<svg xmlns="http://www.w3.org/2000/svg" xmlns:xlink="http://www.w3.org/1999/xlink" viewBox="0 0 92.77 149.49">
    <defs>
        <style>
            .cls-1 {
                fill: url(#未命名的渐变_17);
            }

            .cls-2 {
                fill: url(#未命名的渐变_74);
            }

            .cls-3 {
                fill: url(#未命名的渐变_74-2);
            }

            .cls-4 {
                fill: url(#未命名的渐变_17-2);
            }

            .cls-5 {
                fill: #5e5c60;
            }

            .cls-6 {
                fill: #e6e6e6;
            }

            .cls-7 {
                fill: #fff;
            }

            .cls-8 {
                fill: url(#未命名的渐变_67);
            }

            .cls-9 {
                fill: url(#未命名的渐变_67-2);
            }

            .cls-10 {
                fill: url(#未命名的渐变_67-3);
            }

            .cls-11 {
                fill: url(#未命名的渐变_67-4);
            }

            .cls-12 {
                fill: url(#未命名的渐变_67-5);
            }

            .cls-13 {
                fill: url(#未命名的渐变_67-6);
            }

            .cls-14 {
                fill: url(#未命名的渐变_67-7);
            }

            .cls-15 {
                fill: #eaeaea;
            }

            .cls-16 {
                opacity: 0.2;
            }
        </style>
        <linearGradient id="未命名的渐变_17" x1="46.93" y1="149.45" x2="46.93" y2="105.76" gradientUnits="userSpaceOnUse">
            <stop offset="0" stop-color="#b9b9b9" />
            <stop offset="0.08" stop-color="#dbdbdb" />
            <stop offset="0.95" stop-color="#dbdbdb" />
            <stop offset="1" stop-color="#fff" />
        </linearGradient>
        <linearGradient id="未命名的渐变_74" x1="895.04" y1="345.49" x2="942.46" y2="345.49"
            gradientTransform="translate(-871.85 -219.71)" gradientUnits="userSpaceOnUse">
            <stop offset="0" stop-color="#6b6b6b" />
            <stop offset="0.01" stop-color="#767676" />
            <stop offset="0.03" stop-color="#959595" />
            <stop offset="0.04" stop-color="#aaa" />
            <stop offset="0.37" stop-color="#ccc" />
            <stop offset="0.74" stop-color="#eaeaea" />
            <stop offset="0.94" stop-color="#f6f6f6" />
            <stop offset="0.95" stop-color="#ededed" />
            <stop offset="0.96" stop-color="#d4d4d4" />
            <stop offset="0.97" stop-color="#ababab" />
            <stop offset="0.99" stop-color="#737373" />
            <stop offset="0.99" stop-color="#666" />
        </linearGradient>
        <linearGradient id="未命名的渐变_74-2" x1="46.38" y1="105.76" x2="46.38" y2="0"
            gradientTransform="matrix(1, 0, 0, 1, 0, 0)" xlink:href="#未命名的渐变_74" />
        <linearGradient id="未命名的渐变_17-2" x1="897.13" y1="345.39" x2="938.76" y2="345.39"
            gradientTransform="translate(-871.14 -218.82)" xlink:href="#未命名的渐变_17" />
        <linearGradient id="未命名的渐变_67" x1="8.5" y1="142.31" x2="8.5" y2="139.39" gradientUnits="userSpaceOnUse">
            <stop offset="0" stop-color="#6b6b6b" />
            <stop offset="0.11" stop-color="#767676" />
            <stop offset="0.3" stop-color="#959595" />
            <stop offset="0.41" stop-color="#aaa" />
            <stop offset="0.56" stop-color="#ccc" />
            <stop offset="0.71" stop-color="#eaeaea" />
            <stop offset="0.8" stop-color="#f6f6f6" />
            <stop offset="0.83" stop-color="#ededed" />
            <stop offset="0.87" stop-color="#d4d4d4" />
            <stop offset="0.92" stop-color="#ababab" />
            <stop offset="0.98" stop-color="#737373" />
            <stop offset="0.99" stop-color="#666" />
        </linearGradient>
        <linearGradient id="未命名的渐变_67-2" x1="21.18" y1="142.31" x2="21.18" y2="139.39" xlink:href="#未命名的渐变_67" />
        <linearGradient id="未命名的渐变_67-3" x1="34.27" y1="142.31" x2="34.27" y2="139.39" xlink:href="#未命名的渐变_67" />
        <linearGradient id="未命名的渐变_67-4" x1="47.01" y1="142.31" x2="47.01" y2="139.39" xlink:href="#未命名的渐变_67" />
        <linearGradient id="未命名的渐变_67-5" x1="59.57" y1="142.31" x2="59.57" y2="139.39" xlink:href="#未命名的渐变_67" />
        <linearGradient id="未命名的渐变_67-6" x1="72.14" y1="142.31" x2="72.14" y2="139.39" xlink:href="#未命名的渐变_67" />
        <linearGradient id="未命名的渐变_67-7" x1="85.01" y1="142.31" x2="85.01" y2="139.39" xlink:href="#未命名的渐变_67" />
    </defs>
    <title>3-phase switching enclosure(三相开关柜)</title>
    <g id="图层_2" data-name="图层 2">
        <g id="图层_59" data-name="图层 59">
            <g id="_3-phase_switching_enclosure_三相开关柜_" data-name="3-phase switching enclosure(三相开关柜)">
                <rect class="cls-1" x="1.15" y="105.76" width="91.56" height="43.68" />
                <rect class="cls-2" x="23.19" y="79.91" width="47.42" height="91.74"
                    transform="translate(-78.88 172.67) rotate(-90)" />
                <rect class="cls-3" width="92.77" height="105.76" rx="0.86" />
                <rect class="cls-4" x="25.99" y="82.89" width="41.63" height="87.37"
                    transform="translate(-79.77 173.38) rotate(-90)" />
                <rect class="cls-5" x="6.92" y="105.76" width="79.38" height="37.16" />
                <rect class="cls-6" x="9.57" y="105.76" width="10.35" height="33.63" />
                <rect class="cls-7" x="9.46" y="108.61" width="10.55" height="0.45" />
                <rect class="cls-7" x="9.46" y="111.88" width="10.55" height="0.45" />
                <rect class="cls-7" x="9.46" y="116.34" width="10.55" height="0.45" />
                <rect class="cls-7" x="9.46" y="120.4" width="10.55" height="0.45" />
                <rect class="cls-7" x="9.46" y="124.45" width="10.55" height="0.45" />
                <rect class="cls-7" x="9.46" y="128.14" width="10.55" height="0.45" />
                <rect class="cls-7" x="9.46" y="132.22" width="10.55" height="0.45" />
                <rect class="cls-7" x="9.46" y="136.09" width="10.55" height="0.45" />
                <rect class="cls-6" x="22.46" y="105.76" width="10.35" height="33.63" />
                <rect class="cls-7" x="22.36" y="108.61" width="10.55" height="0.45" />
                <rect class="cls-7" x="22.36" y="111.88" width="10.55" height="0.45" />
                <rect class="cls-7" x="22.36" y="116.34" width="10.55" height="0.45" />
                <rect class="cls-7" x="22.36" y="120.4" width="10.55" height="0.45" />
                <rect class="cls-7" x="22.36" y="124.45" width="10.55" height="0.45" />
                <rect class="cls-7" x="22.36" y="128.14" width="10.55" height="0.45" />
                <rect class="cls-7" x="22.36" y="132.22" width="10.55" height="0.45" />
                <rect class="cls-7" x="22.36" y="136.09" width="10.55" height="0.45" />
                <rect class="cls-6" x="35.6" y="105.76" width="10.35" height="33.63" />
                <rect class="cls-7" x="35.49" y="108.61" width="10.55" height="0.45" />
                <rect class="cls-7" x="35.49" y="111.88" width="10.55" height="0.45" />
                <rect class="cls-7" x="35.49" y="116.34" width="10.55" height="0.45" />
                <rect class="cls-7" x="35.49" y="120.4" width="10.55" height="0.45" />
                <rect class="cls-7" x="35.49" y="124.45" width="10.55" height="0.45" />
                <rect class="cls-7" x="35.49" y="128.14" width="10.55" height="0.45" />
                <rect class="cls-7" x="35.49" y="132.22" width="10.55" height="0.45" />
                <rect class="cls-7" x="35.49" y="136.09" width="10.55" height="0.45" />
                <rect class="cls-6" x="48.16" y="105.76" width="10.35" height="33.63" />
                <rect class="cls-7" x="48.06" y="108.61" width="10.55" height="0.45" />
                <rect class="cls-7" x="48.06" y="111.88" width="10.55" height="0.45" />
                <rect class="cls-7" x="48.06" y="116.34" width="10.55" height="0.45" />
                <rect class="cls-7" x="48.06" y="120.4" width="10.55" height="0.45" />
                <rect class="cls-7" x="48.06" y="124.45" width="10.55" height="0.45" />
                <rect class="cls-7" x="48.06" y="128.14" width="10.55" height="0.45" />
                <rect class="cls-7" x="48.06" y="132.22" width="10.55" height="0.45" />
                <rect class="cls-7" x="48.06" y="136.09" width="10.55" height="0.45" />
                <rect class="cls-6" x="60.56" y="105.76" width="10.35" height="33.63" />
                <rect class="cls-7" x="60.46" y="108.61" width="10.55" height="0.45" />
                <rect class="cls-7" x="60.46" y="111.88" width="10.55" height="0.45" />
                <rect class="cls-7" x="60.46" y="116.34" width="10.55" height="0.45" />
                <rect class="cls-7" x="60.46" y="120.4" width="10.55" height="0.45" />
                <rect class="cls-7" x="60.46" y="124.45" width="10.55" height="0.45" />
                <rect class="cls-7" x="60.46" y="128.14" width="10.55" height="0.45" />
                <rect class="cls-7" x="60.46" y="132.22" width="10.55" height="0.45" />
                <rect class="cls-7" x="60.46" y="136.09" width="10.55" height="0.45" />
                <rect class="cls-6" x="73.2" y="105.76" width="10.35" height="33.63" />
                <rect class="cls-7" x="73.1" y="108.61" width="10.55" height="0.45" />
                <rect class="cls-7" x="73.1" y="111.88" width="10.55" height="0.45" />
                <rect class="cls-7" x="73.1" y="116.34" width="10.55" height="0.45" />
                <rect class="cls-7" x="73.1" y="120.4" width="10.55" height="0.45" />
                <rect class="cls-7" x="73.1" y="124.45" width="10.55" height="0.45" />
                <rect class="cls-7" x="73.1" y="128.14" width="10.55" height="0.45" />
                <rect class="cls-7" x="73.1" y="132.22" width="10.55" height="0.45" />
                <rect class="cls-7" x="73.1" y="136.09" width="10.55" height="0.45" />
                <rect class="cls-8" x="7.04" y="139.39" width="2.93" height="2.93" />
                <rect class="cls-9" x="19.72" y="139.39" width="2.93" height="2.93" />
                <rect class="cls-10" x="32.8" y="139.39" width="2.93" height="2.93" />
                <rect class="cls-11" x="45.55" y="139.39" width="2.93" height="2.93" />
                <rect class="cls-12" x="58.11" y="139.39" width="2.93" height="2.93" />
                <rect class="cls-13" x="70.67" y="139.39" width="2.93" height="2.93" />
                <rect class="cls-14" x="83.55" y="139.39" width="2.93" height="2.93" />
                <rect class="cls-15" x="7.47" y="41.06" width="79.08" height="44.09" />
                
            </g>
        </g>
    </g>
</svg>