<svg xmlns="http://www.w3.org/2000/svg" xmlns:xlink="http://www.w3.org/1999/xlink" viewBox="0 0 88.07 148.89">
    <defs>
        <style>
            .cls-1 {
                fill: url(#未命名的渐变_74);
            }

            .cls-2 {
                fill: url(#未命名的渐变_74-2);
            }

            .cls-3 {
                fill: url(#未命名的渐变_85);
            }

            .cls-4 {
                fill: url(#未命名的渐变_74-3);
            }

            .cls-5 {
                fill: #383432;
            }

            .cls-6 {
                fill: #e6e6e6;
            }

            .cls-7 {
                fill: #009f8f;
            }

            .cls-8 {
                fill: #e8ca9d;
            }

            .cls-9 {
                fill: url(#未命名的渐变_67);
            }

            .cls-10 {
                opacity: 0.2;
            }
        </style>
        <linearGradient id="未命名的渐变_74" y1="74.44" x2="88.07" y2="74.44" gradientUnits="userSpaceOnUse">
            <stop offset="0" stop-color="#6b6b6b" />
            <stop offset="0.01" stop-color="#767676" />
            <stop offset="0.03" stop-color="#959595" />
            <stop offset="0.04" stop-color="#aaa" />
            <stop offset="0.37" stop-color="#ccc" />
            <stop offset="0.74" stop-color="#eaeaea" />
            <stop offset="0.94" stop-color="#f6f6f6" />
            <stop offset="0.95" stop-color="#ededed" />
            <stop offset="0.96" stop-color="#d4d4d4" />
            <stop offset="0.97" stop-color="#ababab" />
            <stop offset="0.99" stop-color="#737373" />
            <stop offset="0.99" stop-color="#666" />
        </linearGradient>
        <linearGradient id="未命名的渐变_74-2" x1="14.75" y1="46.5" x2="73.05" y2="46.5" xlink:href="#未命名的渐变_74" />
        <linearGradient id="未命名的渐变_85" x1="14.75" y1="36.33" x2="73.05" y2="36.33" gradientUnits="userSpaceOnUse">
            <stop offset="0" stop-color="#6b6b6b" />
            <stop offset="0.11" stop-color="#767676" />
            <stop offset="0.3" stop-color="#959595" />
            <stop offset="0.41" stop-color="#aaa" />
            <stop offset="0.68" stop-color="#acacac" />
            <stop offset="0.78" stop-color="#b3b3b3" />
            <stop offset="0.85" stop-color="#bebebe" />
            <stop offset="0.91" stop-color="#cfcfcf" />
            <stop offset="0.95" stop-color="#e5e5e5" />
            <stop offset="0.99" stop-color="#f6f6f6" />
            <stop offset="0.99" stop-color="#ededed" />
            <stop offset="0.99" stop-color="#d4d4d4" />
            <stop offset="0.99" stop-color="#adadad" />
        </linearGradient>
        <linearGradient id="未命名的渐变_74-3" x1="17.07" y1="35.82" x2="71.08" y2="35.82" xlink:href="#未命名的渐变_74" />
        <linearGradient id="未命名的渐变_67" x1="53.79" y1="36.92" x2="64.9" y2="36.92" gradientUnits="userSpaceOnUse">
            <stop offset="0" stop-color="#6b6b6b" />
            <stop offset="0.11" stop-color="#767676" />
            <stop offset="0.3" stop-color="#959595" />
            <stop offset="0.41" stop-color="#aaa" />
            <stop offset="0.56" stop-color="#ccc" />
            <stop offset="0.71" stop-color="#eaeaea" />
            <stop offset="0.8" stop-color="#f6f6f6" />
            <stop offset="0.83" stop-color="#ededed" />
            <stop offset="0.87" stop-color="#d4d4d4" />
            <stop offset="0.92" stop-color="#ababab" />
            <stop offset="0.98" stop-color="#737373" />
            <stop offset="0.99" stop-color="#666" />
        </linearGradient>
    </defs>
    <title>AC drive交流传动)</title>
    <g id="图层_2" data-name="图层 2">
        <g id="图层_59" data-name="图层 59">
            <g id="AC_drive交流传动_" data-name="AC drive交流传动)">
                <rect class="cls-1" width="88.07" height="148.89" rx="0.86" />
                <rect class="cls-2" x="14.75" width="58.3" height="92.99" />
                <path class="cls-3"
                    d="M14.75,0H73a0,0,0,0,1,0,0V72.06a.6.6,0,0,1-.6.6H15.35a.6.6,0,0,1-.6-.6V0A0,0,0,0,1,14.75,0Z" />
                <path class="cls-4"
                    d="M17.55,2H70.6a.48.48,0,0,1,.48.48V68.59A1.08,1.08,0,0,1,70,69.66H18.15a1.08,1.08,0,0,1-1.08-1.08V2.45A.48.48,0,0,1,17.55,2Z" />
                <rect class="cls-5" x="27.74" y="12.04" width="30.35" height="10.1" />
                <rect class="cls-6" x="24.3" y="33.82" width="12.15" height="9.09" />
                <rect class="cls-6" x="38.02" y="33.82" width="12.15" height="9.09" />
                <rect class="cls-6" x="24.3" y="44.59" width="12.15" height="9.09" />
                <rect class="cls-7" x="24.3" y="55.12" width="12.15" height="9.09" />
                <rect class="cls-5" x="28.97" y="113.25" width="30.53" height="10.18" />
                <rect class="cls-6" x="37.78" y="55.12" width="12.15" height="9.09" />
                <rect class="cls-8" x="52.02" y="55.12" width="12.15" height="9.09" />
                <rect class="cls-6" x="37.78" y="44.59" width="12.15" height="9.09" />
                <rect class="cls-6" x="52.02" y="44.59" width="12.15" height="9.09" />
                <circle class="cls-9" cx="59.35" cy="36.92" r="5.56" />
                <circle class="cls-6" cx="59.35" cy="36.92" r="4.82" />
                <rect class="cls-5" y="105.27" width="88.07" height="1.81" />
                
            </g>
        </g>
    </g>
</svg>