<svg xmlns="http://www.w3.org/2000/svg" xmlns:xlink="http://www.w3.org/1999/xlink" viewBox="0 0 64.8 149.21">
    <defs>
        <style>
            .cls-1 {
                fill: #c3c3c3;
            }

            .cls-2 {
                fill: #e6e6e6;
            }

            .cls-3 {
                fill: #c1c1c1;
            }

            .cls-3,
            .cls-6 {
                opacity: 0.51;
            }

            .cls-4 {
                fill: url(#未命名的渐变_85);
            }

            .cls-5 {
                fill: url(#未命名的渐变_85-2);
            }

            .cls-6 {
                fill: none;
                stroke: #c1c1c1;
                stroke-miterlimit: 10;
                stroke-width: 0.25px;
            }

            .cls-7 {
                fill: #383432;
            }

            .cls-8 {
                fill: url(#未命名的渐变_85-3);
            }

            .cls-9 {
                fill: url(#未命名的渐变_85-4);
            }

            .cls-10 {
                fill: url(#未命名的渐变_85-5);
            }

            .cls-11 {
                fill: url(#未命名的渐变_85-6);
            }

            .cls-12 {
                fill: url(#未命名的渐变_85-7);
            }

            .cls-13 {
                fill: url(#未命名的渐变_85-8);
            }

            .cls-14 {
                opacity: 0.2;
            }
        </style>
        <linearGradient id="未命名的渐变_85" x1="51.52" y1="80.08" x2="56.87" y2="80.08" gradientUnits="userSpaceOnUse">
            <stop offset="0" stop-color="#6b6b6b" />
            <stop offset="0.11" stop-color="#767676" />
            <stop offset="0.3" stop-color="#959595" />
            <stop offset="0.41" stop-color="#aaa" />
            <stop offset="0.68" stop-color="#acacac" />
            <stop offset="0.78" stop-color="#b3b3b3" />
            <stop offset="0.85" stop-color="#bebebe" />
            <stop offset="0.91" stop-color="#cfcfcf" />
            <stop offset="0.95" stop-color="#e5e5e5" />
            <stop offset="0.99" stop-color="#f6f6f6" />
            <stop offset="0.99" stop-color="#ededed" />
            <stop offset="0.99" stop-color="#d4d4d4" />
            <stop offset="0.99" stop-color="#adadad" />
        </linearGradient>
        <linearGradient id="未命名的渐变_85-2" x1="51.52" y1="109.73" x2="56.87" y2="109.73" xlink:href="#未命名的渐变_85" />
        <linearGradient id="未命名的渐变_85-3" x1="25.88" y1="27.99" x2="30.64" y2="27.99" xlink:href="#未命名的渐变_85" />
        <linearGradient id="未命名的渐变_85-4" x1="33.12" y1="27.99" x2="37.88" y2="27.99" xlink:href="#未命名的渐变_85" />
        <linearGradient id="未命名的渐变_85-5" x1="36.52" y1="34.11" x2="41.28" y2="34.11" xlink:href="#未命名的渐变_85" />
        <linearGradient id="未命名的渐变_85-6" x1="50.67" y1="56.28" x2="57.71" y2="56.28" xlink:href="#未命名的渐变_85" />
        <linearGradient id="未命名的渐变_85-7" x1="29.18" y1="34.32" x2="33.94" y2="34.32" xlink:href="#未命名的渐变_85" />
        <linearGradient id="未命名的渐变_85-8" x1="22.29" y1="34.11" x2="27.05" y2="34.11" xlink:href="#未命名的渐变_85" />
    </defs>
    <title>AC drive交流传动) (2)</title>
    <g id="图层_2" data-name="图层 2">
        <g id="图层_59" data-name="图层 59">
            <g id="AC_drive交流传动_" data-name="AC drive交流传动)">
                <rect class="cls-1" x="0.41" width="64.39" height="149.21" rx="0.58" />
                <rect class="cls-2" x="4.62" y="5.4" width="4.08" height="4.8" />
                <rect class="cls-3" x="13.87" y="9.28" width="35.83" height="30.5" rx="0.75" />
                <rect class="cls-2" x="14.52" y="9.83" width="34.54" height="29.4" rx="0.75" />
                <rect class="cls-2" x="55.82" y="5.4" width="4.08" height="4.8" />
                <rect class="cls-2" x="55.82" y="15.12" width="4.08" height="4.8" />
                <rect class="cls-2" x="55.82" y="24.85" width="4.08" height="4.8" />
                <rect class="cls-2" x="55.82" y="34.3" width="4.08" height="4.8" />
                <rect class="cls-2" x="50.93" y="64.83" width="8.16" height="30.5" rx="0.34" />
                <rect class="cls-2" x="50.88" y="97.12" width="8.16" height="25.23" rx="0.38" />
                <path class="cls-4"
                    d="M56.51,90.94,52.08,92a.46.46,0,0,1-.56-.45l.2-23a.46.46,0,0,1,.59-.44l4.22,1.24a.45.45,0,0,1,.34.44V90.5A.46.46,0,0,1,56.51,90.94Z" />
                <circle cx="53.02" cy="70.73" r="0.77" />
                <circle cx="55.36" cy="72.05" r="0.77" />
                <circle cx="55.36" cy="74.39" r="0.77" />
                <circle cx="55.36" cy="77.51" r="0.77" />
                <circle cx="55.36" cy="79.85" r="0.77" />
                <circle cx="55.36" cy="82.65" r="0.77" />
                <circle cx="55.36" cy="85.46" r="0.77" />
                <circle cx="55.36" cy="87.98" r="0.77" />
                <circle cx="53.02" cy="73.09" r="0.77" />
                <circle cx="53.02" cy="76.04" r="0.77" />
                <circle cx="53.02" cy="78.7" r="0.77" />
                <circle cx="53.02" cy="81.28" r="0.77" />
                <circle cx="53.02" cy="83.92" r="0.77" />
                <circle cx="53.02" cy="86.68" r="0.77" />
                <circle cx="53.02" cy="89.43" r="0.77" />
                <path class="cls-5"
                    d="M56.51,120.6l-4.43,1.05a.45.45,0,0,1-.56-.45l.2-22.94a.45.45,0,0,1,.59-.44l4.22,1.23a.47.47,0,0,1,.34.44v20.66A.47.47,0,0,1,56.51,120.6Z" />
                <circle cx="53.02" cy="100.38" r="0.77" />
                <circle cx="55.36" cy="101.71" r="0.77" />
                <circle cx="55.36" cy="104.05" r="0.77" />
                <circle cx="55.36" cy="107.16" r="0.77" />
                <circle cx="55.36" cy="109.51" r="0.77" />
                <circle cx="55.36" cy="112.3" r="0.77" />
                <circle cx="55.36" cy="115.12" r="0.77" />
                <circle cx="55.36" cy="117.64" r="0.77" />
                <circle cx="53.02" cy="102.74" r="0.77" />
                <circle cx="53.02" cy="105.7" r="0.77" />
                <circle cx="53.02" cy="108.35" r="0.77" />
                <circle cx="53.02" cy="110.94" r="0.77" />
                <circle cx="53.02" cy="113.58" r="0.77" />
                <circle cx="53.02" cy="116.33" r="0.77" />
                <circle cx="53.02" cy="119.09" r="0.77" />
                <rect class="cls-2" x="55.76" y="131.87" width="4.08" height="4.8" />
                <rect class="cls-2" x="4.62" y="141.46" width="4.08" height="4.8" />
                <rect class="cls-2" x="55.76" y="141.46" width="4.08" height="4.8" />
                <rect class="cls-2" x="49.7" y="51.64" width="8.98" height="9.29" rx="0.3" />
                <rect class="cls-6" x="46.86" y="63.08" width="14.65" height="61.57" rx="0.56" />
                <rect class="cls-2" x="4.62" y="15.12" width="4.08" height="4.8" />
                <rect class="cls-2" x="4.62" y="24.85" width="4.08" height="4.8" />
                <rect class="cls-2" x="4.62" y="34.03" width="4.08" height="4.8" />
                <rect class="cls-2" x="4.62" y="43.61" width="4.08" height="4.8" />
                <rect class="cls-7" y="52.59" width="28.63" height="81.68" />
                <rect class="cls-7" x="18.12" y="15.12" width="27.33" height="7.31" />
                <circle class="cls-8" cx="28.26" cy="27.99" r="2.38" />
                <circle class="cls-9" cx="35.5" cy="27.99" r="2.38" />
                <circle class="cls-10" cx="38.9" cy="34.11" r="2.38" />
                <circle class="cls-11" cx="54.19" cy="56.28" r="3.52" />
                <circle class="cls-12" cx="31.56" cy="34.32" r="2.38" />
                <circle class="cls-13" cx="24.67" cy="34.11" r="2.38" />
                <circle cx="54.19" cy="54.05" r="0.77" />
                <circle cx="56.36" cy="56.29" r="0.77" />
                <circle cx="54.19" cy="58.51" r="0.77" />
                <circle cx="52.02" cy="56.29" r="0.77" />
                
            </g>
        </g>
    </g>
</svg>