<svg xmlns="http://www.w3.org/2000/svg" xmlns:xlink="http://www.w3.org/1999/xlink" viewBox="0 0 150 99.01">
    <defs>
        <style>
            .cls-1 {
                fill: #a3a3a3;
            }

            .cls-2 {
                fill: url(#未命名的渐变_105);
            }

            .cls-3 {
                fill: url(#未命名的渐变_105-2);
            }

            .cls-4 {
                fill: url(#未命名的渐变_74);
            }

            .cls-5 {
                fill: #3e3938;
            }

            .cls-6 {
                fill: url(#未命名的渐变_67);
            }

            .cls-7 {
                fill: url(#未命名的渐变_105-3);
            }

            .cls-8 {
                fill: url(#未命名的渐变_67-2);
            }

            .cls-9 {
                fill: url(#未命名的渐变_67-3);
            }

            .cls-10 {
                fill: url(#未命名的渐变_67-4);
            }

            .cls-11 {
                fill: url(#未命名的渐变_67-5);
            }

            .cls-12 {
                fill: url(#未命名的渐变_67-6);
            }

            .cls-13 {
                fill: url(#未命名的渐变_67-7);
            }

            .cls-14 {
                fill: url(#未命名的渐变_67-8);
            }

            .cls-15 {
                fill: url(#未命名的渐变_105-4);
            }

            .cls-16 {
                fill: url(#未命名的渐变_105-5);
            }

            .cls-17 {
                fill: url(#未命名的渐变_67-9);
            }

            .cls-18 {
                fill: url(#未命名的渐变_67-10);
            }

            .cls-19 {
                fill: url(#未命名的渐变_67-11);
            }

            .cls-20 {
                fill: url(#未命名的渐变_67-12);
            }

            .cls-21 {
                fill: url(#未命名的渐变_67-13);
            }

            .cls-22 {
                fill: url(#未命名的渐变_67-14);
            }

            .cls-23 {
                fill: url(#未命名的渐变_67-15);
            }

            .cls-24 {
                fill: url(#未命名的渐变_105-6);
            }

            .cls-25 {
                fill: url(#未命名的渐变_105-7);
            }

            .cls-26 {
                fill: url(#未命名的渐变_105-8);
            }

            .cls-27 {
                fill: url(#未命名的渐变_105-9);
            }

            .cls-28 {
                fill: url(#未命名的渐变_67-16);
            }

            .cls-29 {
                fill: url(#未命名的渐变_67-17);
            }

            .cls-30 {
                fill: url(#未命名的渐变_67-18);
            }

            .cls-31 {
                fill: url(#未命名的渐变_74-2);
            }

            .cls-32 {
                fill: #c1c1c1;
            }

            .cls-33 {
                fill: url(#未命名的渐变_67-19);
            }

            .cls-34 {
                fill: url(#未命名的渐变_67-20);
            }

            .cls-35 {
                fill: none;
                stroke: #c2c1c1;
                stroke-miterlimit: 10;
                stroke-width: 0.1px;
            }

            .cls-36 {
                opacity: 0.2;
            }
        </style>
        <linearGradient id="未命名的渐变_105" x1="60.3" y1="86.67" x2="60.3" y2="62.31" gradientUnits="userSpaceOnUse">
            <stop offset="0" stop-color="#e2e2e2" />
            <stop offset="0.03" stop-color="#d0d0d0" />
            <stop offset="0.06" stop-color="#bcbcbc" />
            <stop offset="0.09" stop-color="#b5b5b5" />
            <stop offset="0.49" stop-color="#f6f6f6" />
            <stop offset="0.63" stop-color="#f3f3f3" />
            <stop offset="0.73" stop-color="#eaeaea" />
            <stop offset="0.82" stop-color="#dbdbdb" />
            <stop offset="0.9" stop-color="#c6c6c6" />
            <stop offset="0.97" stop-color="#aaa" />
            <stop offset="1" stop-color="#9b9b9b" />
        </linearGradient>
        <linearGradient id="未命名的渐变_105-2" x1="96.54" y1="87.27" x2="96.54" y2="62.28" xlink:href="#未命名的渐变_105" />
        <linearGradient id="未命名的渐变_74" x1="75.28" y1="59.93" x2="75.28" y2="16.25"
            gradientTransform="translate(37.18 113.37) rotate(-90)" gradientUnits="userSpaceOnUse">
            <stop offset="0" stop-color="#6b6b6b" />
            <stop offset="0.01" stop-color="#767676" />
            <stop offset="0.03" stop-color="#959595" />
            <stop offset="0.04" stop-color="#aaa" />
            <stop offset="0.37" stop-color="#ccc" />
            <stop offset="0.74" stop-color="#eaeaea" />
            <stop offset="0.94" stop-color="#f6f6f6" />
            <stop offset="0.95" stop-color="#ededed" />
            <stop offset="0.96" stop-color="#d4d4d4" />
            <stop offset="0.97" stop-color="#ababab" />
            <stop offset="0.99" stop-color="#737373" />
            <stop offset="0.99" stop-color="#666" />
        </linearGradient>
        <linearGradient id="未命名的渐变_67" x1="33.92" y1="88.48" x2="33.92" y2="62.31" gradientUnits="userSpaceOnUse">
            <stop offset="0" stop-color="#6b6b6b" />
            <stop offset="0.11" stop-color="#767676" />
            <stop offset="0.3" stop-color="#959595" />
            <stop offset="0.41" stop-color="#aaa" />
            <stop offset="0.56" stop-color="#ccc" />
            <stop offset="0.71" stop-color="#eaeaea" />
            <stop offset="0.8" stop-color="#f6f6f6" />
            <stop offset="0.83" stop-color="#ededed" />
            <stop offset="0.87" stop-color="#d4d4d4" />
            <stop offset="0.92" stop-color="#ababab" />
            <stop offset="0.98" stop-color="#737373" />
            <stop offset="0.99" stop-color="#666" />
        </linearGradient>
        <linearGradient id="未命名的渐变_105-3" x1="42.71" y1="88.48" x2="42.71" y2="62.31" xlink:href="#未命名的渐变_105" />
        <linearGradient id="未命名的渐变_67-2" x1="78.16" y1="87.27" x2="78.16" y2="62.28" xlink:href="#未命名的渐变_67" />
        <linearGradient id="未命名的渐变_67-3" x1="115.79" y1="87.27" x2="115.79" y2="62.28" xlink:href="#未命名的渐变_67" />
        <linearGradient id="未命名的渐变_67-4" x1="120.68" y1="87.27" x2="120.68" y2="62.28" xlink:href="#未命名的渐变_67" />
        <linearGradient id="未命名的渐变_67-5" x1="44.71" y1="86.89" x2="44.71" y2="62.31" xlink:href="#未命名的渐变_67" />
        <linearGradient id="未命名的渐变_67-6" x1="49.23" y1="86.89" x2="49.23" y2="62.31" xlink:href="#未命名的渐变_67" />
        <linearGradient id="未命名的渐变_67-7" x1="54.73" y1="86.75" x2="54.73" y2="62.17" xlink:href="#未命名的渐变_67" />
        <linearGradient id="未命名的渐变_67-8" x1="61.86" y1="86.89" x2="61.86" y2="62.31" xlink:href="#未命名的渐变_67" />
        <linearGradient id="未命名的渐变_105-4" x1="60.31" y1="64.07" x2="60.31" y2="63.14" xlink:href="#未命名的渐变_105" />
        <linearGradient id="未命名的渐变_105-5" x1="96.54" y1="64.33" x2="96.54" y2="62.9" xlink:href="#未命名的渐变_105" />
        <linearGradient id="未命名的渐变_67-9" x1="96.54" y1="66.11" x2="96.54" y2="65.35" xlink:href="#未命名的渐变_67" />
        <linearGradient id="未命名的渐变_67-10" x1="96.54" y1="68.81" x2="96.54" y2="68.04" xlink:href="#未命名的渐变_67" />
        <linearGradient id="未命名的渐变_67-11" x1="96.54" y1="71.64" x2="96.54" y2="70.88" xlink:href="#未命名的渐变_67" />
        <linearGradient id="未命名的渐变_67-12" x1="96.54" y1="74.49" x2="96.54" y2="73.72" xlink:href="#未命名的渐变_67" />
        <linearGradient id="未命名的渐变_67-13" x1="96.54" y1="77.17" x2="96.54" y2="76.4" xlink:href="#未命名的渐变_67" />
        <linearGradient id="未命名的渐变_67-14" x1="96.54" y1="79.9" x2="96.54" y2="79.13" xlink:href="#未命名的渐变_67" />
        <linearGradient id="未命名的渐变_67-15" x1="96.54" y1="82.65" x2="96.54" y2="81.88" xlink:href="#未命名的渐变_67" />
        <linearGradient id="未命名的渐变_105-6" x1="96.54" y1="85.28" x2="96.54" y2="83.85" xlink:href="#未命名的渐变_105" />
        <linearGradient id="未命名的渐变_105-7" x1="78.16" y1="64.92" x2="78.16" y2="62.75" xlink:href="#未命名的渐变_105" />
        <linearGradient id="未命名的渐变_105-8" x1="78.16" y1="85.65" x2="78.16" y2="83.48" xlink:href="#未命名的渐变_105" />
        <linearGradient id="未命名的渐变_105-9" x1="60.39" y1="85.03" x2="60.39" y2="84.1" xlink:href="#未命名的渐变_105" />
        <linearGradient id="未命名的渐变_67-16" x1="380.47" y1="-629.64" x2="385.91" y2="-629.64"
            gradientTransform="translate(-308.16 724.86)" xlink:href="#未命名的渐变_67" />
        <linearGradient id="未命名的渐变_67-17" x1="289.05" y1="-629.24" x2="294.49" y2="-629.24"
            gradientTransform="translate(-217.14 633.04)" xlink:href="#未命名的渐变_67" />
        <linearGradient id="未命名的渐变_67-18" x1="347.9" y1="-629.98" x2="350.28" y2="-629.98"
            gradientTransform="translate(-273.72 691.1)" xlink:href="#未命名的渐变_67" />
        <linearGradient id="未命名的渐变_74-2" x1="299.36" y1="-564.91" x2="299.36" y2="-694.08"
            gradientTransform="translate(-224.47 640.88)" xlink:href="#未命名的渐变_74" />
        <linearGradient id="未命名的渐变_67-19" x1="0" y1="49.48" x2="5.45" y2="49.48" xlink:href="#未命名的渐变_67" />
        <linearGradient id="未命名的渐变_67-20" x1="144.55" y1="49.54" x2="150" y2="49.54" xlink:href="#未命名的渐变_67" />
    </defs>
    <title>Biogas power generation（沼气发电）</title>
    <g id="图层_2" data-name="图层 2">
        <g id="图层_59" data-name="图层 59">
            <g id="Biogas_power_generation_沼气发电_" data-name="Biogas power generation（沼气发电）">
                <polygon class="cls-1" points="103.87 89.96 98.38 89.96 98.89 86.67 103.45 86.67 103.87 89.96" />
                <polygon class="cls-1" points="61.98 89.96 56.5 89.96 57.01 86.67 61.57 86.67 61.98 89.96" />
                <rect class="cls-2" x="44.42" y="62.31" width="31.77" height="24.35" />
                <rect class="cls-3" x="80.12" y="62.28" width="32.84" height="24.99" />
                <rect class="cls-4" x="53.44" y="-31.74" width="43.68" height="139.66"
                    transform="translate(113.37 -37.18) rotate(90)" />
                <rect class="cls-5" x="29.21" y="16.53" width="23.61" height="58.88"
                    transform="translate(86.98 4.96) rotate(90)" />
                <rect class="cls-5" x="93.7" y="13.69" width="23.61" height="64.56"
                    transform="translate(151.48 -59.53) rotate(90)" />
                <rect class="cls-1" x="32.07" y="35.8" width="37.25" height="20.84" />
                <rect class="cls-6" x="26.82" y="62.31" width="14.2" height="26.17" />
                <rect class="cls-7" x="41.01" y="62.31" width="3.4" height="26.17" />
                <rect class="cls-8" x="76.21" y="62.28" width="3.9" height="24.99" />
                <rect class="cls-9" x="112.96" y="62.28" width="5.65" height="24.99" />
                <path class="cls-10"
                    d="M120.85,87.27h-2.24v-25h2.24s1.9,4.46,1.9,12.5A44.62,44.62,0,0,1,120.85,87.27Z" />
                <rect class="cls-11" x="44.42" y="62.31" width="0.59" height="24.57" />
                <rect class="cls-12" x="48.94" y="62.31" width="0.59" height="24.57" />
                <rect class="cls-13" x="54.44" y="62.17" width="0.59" height="24.57" />
                <rect class="cls-14" x="61.57" y="62.31" width="0.59" height="24.57" />
                <rect class="cls-15" x="44.42" y="63.14" width="31.79" height="0.94" />
                <rect class="cls-16" x="80.12" y="62.9" width="32.84" height="1.43" />
                <rect class="cls-17" x="80.12" y="65.35" width="32.84" height="0.77" />
                <rect class="cls-18" x="80.12" y="68.04" width="32.84" height="0.77" />
                <rect class="cls-19" x="80.12" y="70.88" width="32.84" height="0.77" />
                <rect class="cls-20" x="80.12" y="73.72" width="32.84" height="0.77" />
                <rect class="cls-21" x="80.12" y="76.4" width="32.84" height="0.77" />
                <rect class="cls-22" x="80.12" y="79.13" width="32.84" height="0.77" />
                <rect class="cls-23" x="80.12" y="81.88" width="32.84" height="0.77" />
                <rect class="cls-24" x="80.12" y="83.85" width="32.84" height="1.43" />
                <rect class="cls-25" x="76.21" y="62.75" width="3.9" height="2.17" />
                <rect class="cls-26" x="76.21" y="83.48" width="3.9" height="2.17" />
                <rect class="cls-1" x="55.09" y="89.96" width="8.53" height="2.53" />
                <rect class="cls-1" x="96.97" y="89.96" width="8.53" height="2.53" />
                <rect class="cls-27" x="44.57" y="84.1" width="31.64" height="0.94" />
                <rect class="cls-1" x="76.59" y="39.95" width="14.22" height="12.21" />
                <rect class="cls-28" x="72.31" y="25.3" width="5.45" height="139.85"
                    transform="translate(170.25 20.19) rotate(90)" />
                <rect class="cls-29" x="71.91" y="-66.12" width="5.45" height="139.85"
                    transform="translate(78.43 -70.83) rotate(90)" />
                <rect class="cls-30" x="74.18" y="-8.8" width="2.38" height="139.85"
                    transform="translate(136.49 -14.25) rotate(90)" />
                <rect class="cls-31" x="70.02" y="-53.2" width="9.73" height="129.17"
                    transform="translate(86.27 -63.5) rotate(90)" />
                <rect class="cls-32" x="68.49" y="-38.84" width="12.79" height="129.17"
                    transform="translate(100.63 -49.15) rotate(90)" />
                <rect class="cls-33" width="5.45" height="98.96" />
                <rect class="cls-34" x="144.55" y="0.06" width="5.45" height="98.96" />
                <rect class="cls-35" x="35.11" y="37.75" width="4.4" height="4.4" rx="0.13" />
                <rect class="cls-35" x="41.66" y="37.75" width="4.4" height="4.4" rx="0.13" />
                <rect class="cls-35" x="48.47" y="37.75" width="4.4" height="4.4" rx="0.13" />
                <rect class="cls-35" x="55.41" y="37.75" width="4.4" height="4.4" rx="0.13" />
                <rect class="cls-35" x="61.91" y="37.75" width="4.4" height="4.4" rx="0.13" />
                <rect class="cls-35" x="35.07" y="45.32" width="4.4" height="4.4" rx="0.13" />
                <rect class="cls-35" x="41.61" y="45.32" width="4.4" height="4.4" rx="0.13" />
                <rect class="cls-35" x="48.42" y="45.32" width="4.4" height="4.4" rx="0.13" />
                <rect class="cls-35" x="55.37" y="45.32" width="4.4" height="4.4" rx="0.13" />
                <rect class="cls-35" x="61.87" y="45.32" width="4.4" height="4.4" rx="0.13" />
                <rect class="cls-35" x="14.13" y="36.02" width="15.71" height="19.74" />
                <line class="cls-35" x1="14.13" y1="39.61" x2="29.84" y2="39.56" />
                <rect class="cls-35" x="92.94" y="36.22" width="11.98" height="19.87" />
                <line class="cls-35" x1="92.94" y1="39.84" x2="104.91" y2="39.79" />
                <rect class="cls-35" x="107.86" y="36.22" width="11.98" height="19.87" />
                <line class="cls-35" x1="107.86" y1="39.84" x2="119.83" y2="39.79" />
                <rect class="cls-35" x="123" y="36.22" width="11.98" height="19.87" />
                <line class="cls-35" x1="123" y1="39.84" x2="134.98" y2="39.79" />
                
            </g>
        </g>
    </g>
</svg>