<svg xmlns="http://www.w3.org/2000/svg" xmlns:xlink="http://www.w3.org/1999/xlink" viewBox="0 0 149.18 135.74">
    <defs>
        <style>
            .cls-1,
            .cls-11,
            .cls-5 {
                fill: #b4b4bc;
            }

            .cls-1 {
                stroke: #3f3f3f;
            }

            .cls-1,
            .cls-12,
            .cls-4,
            .cls-5,
            .cls-8,
            .cls-9 {
                stroke-miterlimit: 10;
            }

            .cls-1,
            .cls-12,
            .cls-5 {
                stroke-width: 0.1px;
            }

            .cls-2 {
                fill: url(#未命名的渐变_74);
            }

            .cls-3 {
                fill: url(#未命名的渐变_17);
            }

            .cls-4,
            .cls-8,
            .cls-9 {
                stroke: #b5b5b5;
                stroke-width: 0.25px;
            }

            .cls-4 {
                fill: url(#未命名的渐变_105);
            }

            .cls-12,
            .cls-5 {
                stroke: #4e4f41;
            }

            .cls-16,
            .cls-6 {
                fill: #e6e6e6;
            }

            .cls-7 {
                fill: #fff;
            }

            .cls-8 {
                fill: url(#未命名的渐变_105-2);
            }

            .cls-9 {
                fill: url(#未命名的渐变_105-3);
            }

            .cls-10 {
                fill: url(#未命名的渐变_67);
            }

            .cls-12,
            .cls-13 {
                fill: #4e4f41;
            }

            .cls-14 {
                fill: url(#未命名的渐变_67-2);
            }

            .cls-15 {
                fill: #848484;
            }

            .cls-16 {
                opacity: 0.6;
            }

            .cls-17 {
                fill: url(#未命名的渐变_67-3);
            }

            .cls-18 {
                fill: url(#未命名的渐变_67-4);
            }

            .cls-19 {
                fill: url(#未命名的渐变_105-4);
            }

            .cls-20 {
                fill: url(#未命名的渐变_105-5);
            }

            .cls-21 {
                fill: url(#未命名的渐变_105-6);
            }

            .cls-22 {
                fill: url(#未命名的渐变_105-7);
            }

            .cls-23 {
                fill: url(#未命名的渐变_105-8);
            }

            .cls-24 {
                fill: url(#未命名的渐变_105-9);
            }

            .cls-25 {
                opacity: 0.2;
            }
        </style>
        <linearGradient id="未命名的渐变_74" x1="5.17" y1="67.87" x2="144.46" y2="67.87" gradientUnits="userSpaceOnUse">
            <stop offset="0" stop-color="#6b6b6b" />
            <stop offset="0.01" stop-color="#767676" />
            <stop offset="0.03" stop-color="#959595" />
            <stop offset="0.04" stop-color="#aaa" />
            <stop offset="0.37" stop-color="#ccc" />
            <stop offset="0.74" stop-color="#eaeaea" />
            <stop offset="0.94" stop-color="#f6f6f6" />
            <stop offset="0.95" stop-color="#ededed" />
            <stop offset="0.96" stop-color="#d4d4d4" />
            <stop offset="0.97" stop-color="#ababab" />
            <stop offset="0.99" stop-color="#737373" />
            <stop offset="0.99" stop-color="#666" />
        </linearGradient>
        <linearGradient id="未命名的渐变_17" y1="67.47" x2="149.18" y2="67.47" gradientUnits="userSpaceOnUse">
            <stop offset="0" stop-color="#b9b9b9" />
            <stop offset="0.08" stop-color="#dbdbdb" />
            <stop offset="0.95" stop-color="#dbdbdb" />
            <stop offset="1" stop-color="#fff" />
        </linearGradient>
        <linearGradient id="未命名的渐变_105" x1="25.92" y1="88.24" x2="25.92" y2="71.77" gradientUnits="userSpaceOnUse">
            <stop offset="0" stop-color="#e2e2e2" />
            <stop offset="0.03" stop-color="#d0d0d0" />
            <stop offset="0.06" stop-color="#bcbcbc" />
            <stop offset="0.09" stop-color="#b5b5b5" />
            <stop offset="0.49" stop-color="#f6f6f6" />
            <stop offset="0.63" stop-color="#f3f3f3" />
            <stop offset="0.73" stop-color="#eaeaea" />
            <stop offset="0.82" stop-color="#dbdbdb" />
            <stop offset="0.9" stop-color="#c6c6c6" />
            <stop offset="0.97" stop-color="#aaa" />
            <stop offset="1" stop-color="#9b9b9b" />
        </linearGradient>
        <linearGradient id="未命名的渐变_105-2" x1="123.79" y1="88.54" x2="123.79" y2="72.08" xlink:href="#未命名的渐变_105" />
        <linearGradient id="未命名的渐变_105-3" x1="74.59" y1="88.24" x2="74.59" y2="71.77" xlink:href="#未命名的渐变_105" />
        <linearGradient id="未命名的渐变_67" x1="74.18" y1="102.73" x2="74.18" y2="87.67" gradientUnits="userSpaceOnUse">
            <stop offset="0" stop-color="#6b6b6b" />
            <stop offset="0.11" stop-color="#767676" />
            <stop offset="0.3" stop-color="#959595" />
            <stop offset="0.41" stop-color="#aaa" />
            <stop offset="0.56" stop-color="#ccc" />
            <stop offset="0.71" stop-color="#eaeaea" />
            <stop offset="0.8" stop-color="#f6f6f6" />
            <stop offset="0.83" stop-color="#ededed" />
            <stop offset="0.87" stop-color="#d4d4d4" />
            <stop offset="0.92" stop-color="#ababab" />
            <stop offset="0.98" stop-color="#737373" />
            <stop offset="0.99" stop-color="#666" />
        </linearGradient>
        <linearGradient id="未命名的渐变_67-2" x1="25.88" y1="87.03" x2="25.88" y2="76.07" xlink:href="#未命名的渐变_67" />
        <linearGradient id="未命名的渐变_67-3" x1="74.55" y1="87.03" x2="74.55" y2="76.07" xlink:href="#未命名的渐变_67" />
        <linearGradient id="未命名的渐变_67-4" x1="123.75" y1="87.33" x2="123.75" y2="76.37" xlink:href="#未命名的渐变_67" />
        <linearGradient id="未命名的渐变_105-4" x1="17.73" y1="15.03" x2="28.49" y2="15.03" xlink:href="#未命名的渐变_105" />
        <linearGradient id="未命名的渐变_105-5" x1="17.73" y1="118.53" x2="28.49" y2="118.53" xlink:href="#未命名的渐变_105" />
        <linearGradient id="未命名的渐变_105-6" x1="63.83" y1="118.53" x2="74.59" y2="118.53" xlink:href="#未命名的渐变_105" />
        <linearGradient id="未命名的渐变_105-7" x1="109.41" y1="118.53" x2="120.17" y2="118.53" xlink:href="#未命名的渐变_105" />
        <linearGradient id="未命名的渐变_105-8" x1="63.83" y1="15.03" x2="74.59" y2="15.03" xlink:href="#未命名的渐变_105" />
        <linearGradient id="未命名的渐变_105-9" x1="109.41" y1="15.03" x2="120.17" y2="15.03" xlink:href="#未命名的渐变_105" />
    </defs>
    <title>Circuit breaker（断路器）</title>
    <g id="图层_2" data-name="图层 2">
        <g id="图层_59" data-name="图层 59">
            <g id="Circuit_breaker_断路器_" data-name="Circuit breaker（断路器）">
                <rect class="cls-1" x="33.54" y="56.43" width="18.54" height="6.74" />
                <rect class="cls-2" x="5.17" width="139.29" height="135.74" rx="0.31" />
                <rect class="cls-3" y="25.92" width="149.18" height="83.1" rx="0.31" />
                <rect class="cls-4" x="5.2" y="71.77" width="41.45" height="16.47" />
                <rect class="cls-5" x="33.54" y="56.42" width="18.54" height="6.74" />
                <rect class="cls-6" x="10.62" y="72.95" width="30.68" height="14.72" />
                <rect class="cls-7" x="46.65" y="56.69" width="5.17" height="6.21" />
                <rect class="cls-8" x="103.06" y="72.08" width="41.45" height="16.47" />
                <rect class="cls-9" x="53.86" y="71.77" width="41.45" height="16.47" />
                <rect class="cls-6" x="108.48" y="73.25" width="30.68" height="14.72" />
                <rect class="cls-10" x="1.03" y="87.67" width="146.29" height="15.06" />
                <rect class="cls-7" x="33.99" y="95.56" width="81.64" height="3.81" />
                <rect class="cls-11" x="18.23" y="92.57" width="113.5" height="8.2" />
                <rect class="cls-12" x="84.79" y="56.69" width="18.54" height="6.74" />
                <rect class="cls-13" x="107.46" y="95.92" width="6.71" height="3.09" />
                <rect class="cls-13" x="35.57" y="95.56" width="6.71" height="3.09" />
                <rect class="cls-7" x="97.89" y="56.95" width="5.17" height="6.21" />
                <rect class="cls-12" x="129.62" y="56.42" width="18.54" height="6.74" />
                <rect class="cls-7" x="142.73" y="56.69" width="5.17" height="6.21" />
                <rect class="cls-11" x="10.57" y="76.07" width="30.62" height="0.53" />
                <rect class="cls-14" x="13.84" y="76.07" width="24.09" height="10.96" />
                <rect class="cls-6" x="59.28" y="72.95" width="30.68" height="14.72" />
                <rect class="cls-15" x="18.23" y="92.57" width="113.5" height="0.53" />
                <rect class="cls-16" x="42.93" y="87.67" width="63.88" height="17.42" />
                <rect class="cls-11" x="59.24" y="76.07" width="30.62" height="0.53" />
                <rect class="cls-17" x="62.5" y="76.07" width="24.09" height="10.96" />
                <rect class="cls-11" x="108.44" y="76.37" width="30.62" height="0.53" />
                <rect class="cls-18" x="111.7" y="76.37" width="24.09" height="10.96" />
                <circle class="cls-19" cx="23.11" cy="15.03" r="5.38" />
                <rect x="19.18" y="14.27" width="7.87" height="1.52" rx="0.14"
                    transform="translate(17.4 -11.94) rotate(45)" />
                <rect x="19.18" y="14.27" width="7.87" height="1.52" rx="0.14"
                    transform="translate(-3.86 20.74) rotate(-45)" />
                <circle class="cls-20" cx="23.11" cy="118.53" r="5.38" />
                <rect x="19.18" y="117.77" width="7.87" height="1.52" rx="0.14"
                    transform="translate(90.58 18.37) rotate(45)" />
                <rect x="19.18" y="117.77" width="7.87" height="1.52" rx="0.14"
                    transform="translate(-77.04 51.06) rotate(-45)" />
                <circle class="cls-21" cx="69.21" cy="118.53" r="5.38" />
                <rect x="65.28" y="117.77" width="7.87" height="1.52" rx="0.14"
                    transform="translate(104.08 -14.22) rotate(45)" />
                <rect x="65.28" y="117.77" width="7.87" height="1.52" rx="0.14"
                    transform="translate(-63.54 83.65) rotate(-45)" />
                <circle class="cls-22" cx="114.79" cy="118.53" r="5.38" />
                <rect x="110.86" y="117.77" width="7.87" height="1.52" rx="0.14"
                    transform="translate(117.43 -46.45) rotate(45)" />
                <rect x="110.86" y="117.77" width="7.87" height="1.52" rx="0.14"
                    transform="translate(-50.19 115.88) rotate(-45)" />
                <circle class="cls-23" cx="69.21" cy="15.03" r="5.38" />
                <rect x="65.28" y="14.27" width="7.87" height="1.52" rx="0.14"
                    transform="translate(30.9 -44.53) rotate(45)" />
                <rect x="65.28" y="14.27" width="7.87" height="1.52" rx="0.14"
                    transform="translate(9.64 53.34) rotate(-45)" />
                <circle class="cls-24" cx="114.79" cy="15.03" r="5.38" />
                <rect x="110.86" y="14.27" width="7.87" height="1.52" rx="0.14"
                    transform="translate(44.25 -76.77) rotate(45)" />
                <rect x="110.86" y="14.27" width="7.87" height="1.52" rx="0.14"
                    transform="translate(22.99 85.57) rotate(-45)" />
                <rect class="cls-11" x="4.64" y="34.18" width="140.5" height="5.31" />
                
            </g>
        </g>
    </g>
</svg>