<svg xmlns="http://www.w3.org/2000/svg" xmlns:xlink="http://www.w3.org/1999/xlink" viewBox="0 0 150 27.4">
    <defs>
        <style>
            .cls-1 {
                fill: url(#未命名的渐变_105);
            }

            .cls-2 {
                fill: url(#未命名的渐变_67);
            }

            .cls-3 {
                fill: url(#未命名的渐变_105-2);
            }

            .cls-4 {
                fill: url(#未命名的渐变_105-3);
            }

            .cls-5 {
                fill: url(#未命名的渐变_105-4);
            }

            .cls-6 {
                fill: url(#未命名的渐变_105-5);
            }

            .cls-7 {
                fill: url(#未命名的渐变_105-6);
            }

            .cls-8 {
                fill: url(#未命名的渐变_67-2);
            }

            .cls-9 {
                fill: url(#未命名的渐变_105-7);
            }

            .cls-10 {
                fill: url(#未命名的渐变_105-8);
            }

            .cls-11 {
                fill: url(#未命名的渐变_105-9);
            }

            .cls-12 {
                fill: url(#未命名的渐变_105-10);
            }

            .cls-13 {
                fill: url(#未命名的渐变_105-11);
            }

            .cls-14 {
                fill: url(#未命名的渐变_67-3);
            }

            .cls-15 {
                fill: url(#未命名的渐变_105-12);
            }

            .cls-16 {
                fill: url(#未命名的渐变_105-13);
            }

            .cls-17 {
                fill: url(#未命名的渐变_105-14);
            }

            .cls-18 {
                fill: url(#未命名的渐变_105-15);
            }

            .cls-19 {
                fill: url(#未命名的渐变_105-16);
            }

            .cls-20 {
                fill: url(#未命名的渐变_105-17);
            }

            .cls-21 {
                fill: url(#未命名的渐变_105-18);
            }

            .cls-22 {
                fill: url(#未命名的渐变_67-4);
            }

            .cls-23 {
                fill: url(#未命名的渐变_67-5);
            }

            .cls-24 {
                fill: url(#未命名的渐变_67-6);
            }

            .cls-25 {
                fill: url(#未命名的渐变_105-19);
            }

            .cls-26 {
                fill: url(#未命名的渐变_67-7);
            }

            .cls-27 {
                fill: url(#未命名的渐变_67-8);
            }

            .cls-28 {
                fill: url(#未命名的渐变_105-20);
            }

            .cls-29 {
                fill: url(#未命名的渐变_67-9);
            }

            .cls-30 {
                fill: url(#未命名的渐变_67-10);
            }

            .cls-31 {
                fill: url(#未命名的渐变_105-21);
            }

            .cls-32 {
                fill: url(#未命名的渐变_67-11);
            }

            .cls-33 {
                fill: url(#未命名的渐变_67-12);
            }

            .cls-34 {
                fill: url(#未命名的渐变_105-22);
            }

            .cls-35 {
                fill: url(#未命名的渐变_67-13);
            }

            .cls-36 {
                fill: url(#未命名的渐变_67-14);
            }

            .cls-37 {
                fill: url(#未命名的渐变_105-23);
            }

            .cls-38 {
                fill: url(#未命名的渐变_67-15);
            }

            .cls-39 {
                fill: url(#未命名的渐变_67-16);
            }

            .cls-40 {
                fill: url(#未命名的渐变_105-24);
            }

            .cls-41 {
                fill: url(#未命名的渐变_67-17);
            }

            .cls-42 {
                fill: url(#未命名的渐变_67-18);
            }

            .cls-43 {
                fill: url(#未命名的渐变_105-25);
            }

            .cls-44 {
                fill: url(#未命名的渐变_67-19);
            }

            .cls-45 {
                fill: url(#未命名的渐变_67-20);
            }

            .cls-46 {
                fill: url(#未命名的渐变_105-26);
            }

            .cls-47 {
                fill: url(#未命名的渐变_67-21);
            }

            .cls-48 {
                fill: url(#未命名的渐变_67-22);
            }

            .cls-49 {
                fill: url(#未命名的渐变_105-27);
            }

            .cls-50 {
                fill: url(#未命名的渐变_67-23);
            }

            .cls-51 {
                fill: url(#未命名的渐变_67-24);
            }

            .cls-52 {
                fill: url(#未命名的渐变_105-28);
            }

            .cls-53 {
                fill: url(#未命名的渐变_67-25);
            }

            .cls-54 {
                fill: url(#未命名的渐变_67-26);
            }

            .cls-55 {
                fill: url(#未命名的渐变_105-29);
            }

            .cls-56 {
                fill: url(#未命名的渐变_67-27);
            }

            .cls-57 {
                fill: url(#未命名的渐变_67-28);
            }

            .cls-58 {
                fill: url(#未命名的渐变_105-30);
            }

            .cls-59 {
                fill: url(#未命名的渐变_67-29);
            }

            .cls-60 {
                opacity: 0.2;
            }
        </style>
        <linearGradient id="未命名的渐变_105" x1="-179.22" y1="212.33" x2="-151.86" y2="212.33"
            gradientTransform="matrix(0, 1, 1, 0, -179.22, 179.22)" gradientUnits="userSpaceOnUse">
            <stop offset="0" stop-color="#e2e2e2" />
            <stop offset="0.03" stop-color="#d0d0d0" />
            <stop offset="0.06" stop-color="#bcbcbc" />
            <stop offset="0.09" stop-color="#b5b5b5" />
            <stop offset="0.49" stop-color="#f6f6f6" />
            <stop offset="0.63" stop-color="#f3f3f3" />
            <stop offset="0.73" stop-color="#eaeaea" />
            <stop offset="0.82" stop-color="#dbdbdb" />
            <stop offset="0.9" stop-color="#c6c6c6" />
            <stop offset="0.97" stop-color="#aaa" />
            <stop offset="1" stop-color="#9b9b9b" />
        </linearGradient>
        <linearGradient id="未命名的渐变_67" x1="-177.98" y1="212.77" x2="-153.19" y2="212.77"
            gradientTransform="matrix(0, 1, 1, 0, -179.22, 179.22)" gradientUnits="userSpaceOnUse">
            <stop offset="0" stop-color="#6b6b6b" />
            <stop offset="0.11" stop-color="#767676" />
            <stop offset="0.3" stop-color="#959595" />
            <stop offset="0.41" stop-color="#aaa" />
            <stop offset="0.56" stop-color="#ccc" />
            <stop offset="0.71" stop-color="#eaeaea" />
            <stop offset="0.8" stop-color="#f6f6f6" />
            <stop offset="0.83" stop-color="#ededed" />
            <stop offset="0.87" stop-color="#d4d4d4" />
            <stop offset="0.92" stop-color="#ababab" />
            <stop offset="0.98" stop-color="#737373" />
            <stop offset="0.99" stop-color="#666" />
        </linearGradient>
        <linearGradient id="未命名的渐变_105-2" x1="-178.17" y1="200.28" x2="-152.87" y2="200.28" xlink:href="#未命名的渐变_105" />
        <linearGradient id="未命名的渐变_105-3" x1="-178.17" y1="208.67" x2="-152.87" y2="208.67" xlink:href="#未命名的渐变_105" />
        <linearGradient id="未命名的渐变_105-4" x1="-178.17" y1="217.07" x2="-152.87" y2="217.07" xlink:href="#未命名的渐变_105" />
        <linearGradient id="未命名的渐变_105-5" x1="-178.17" y1="225.46" x2="-152.87" y2="225.46" xlink:href="#未命名的渐变_105" />
        <linearGradient id="未命名的渐变_105-6" x1="-179.2" y1="257.92" x2="-151.84" y2="257.92" xlink:href="#未命名的渐变_105" />
        <linearGradient id="未命名的渐变_67-2" x1="-177.96" y1="258.37" x2="-153.17" y2="258.37" xlink:href="#未命名的渐变_67" />
        <linearGradient id="未命名的渐变_105-7" x1="-178.15" y1="245.88" x2="-152.85" y2="245.88" xlink:href="#未命名的渐变_105" />
        <linearGradient id="未命名的渐变_105-8" x1="-178.15" y1="254.27" x2="-152.85" y2="254.27" xlink:href="#未命名的渐变_105" />
        <linearGradient id="未命名的渐变_105-9" x1="-178.15" y1="262.66" x2="-152.85" y2="262.66" xlink:href="#未命名的渐变_105" />
        <linearGradient id="未命名的渐变_105-10" x1="-178.15" y1="271.05" x2="-152.85" y2="271.05" xlink:href="#未命名的渐变_105" />
        <linearGradient id="未命名的渐变_105-11" x1="-179.18" y1="304.06" x2="-151.82" y2="304.06" xlink:href="#未命名的渐变_105" />
        <linearGradient id="未命名的渐变_67-3" x1="-177.94" y1="304.51" x2="-153.15" y2="304.51" xlink:href="#未命名的渐变_67" />
        <linearGradient id="未命名的渐变_105-12" x1="-178.13" y1="292.02" x2="-152.84" y2="292.02" xlink:href="#未命名的渐变_105" />
        <linearGradient id="未命名的渐变_105-13" x1="-178.13" y1="300.41" x2="-152.84" y2="300.41" xlink:href="#未命名的渐变_105" />
        <linearGradient id="未命名的渐变_105-14" x1="-178.13" y1="308.8" x2="-152.84" y2="308.8" xlink:href="#未命名的渐变_105" />
        <linearGradient id="未命名的渐变_105-15" x1="-178.13" y1="317.19" x2="-152.84" y2="317.19" xlink:href="#未命名的渐变_105" />
        <linearGradient id="未命名的渐变_105-16" x1="-166.57" y1="579.2" x2="-164.21" y2="579.2"
            gradientTransform="translate(244.77 -565.37)" xlink:href="#未命名的渐变_105" />
        <linearGradient id="未命名的渐变_105-17" x1="-165.72" y1="579.09" x2="-165.06" y2="579.09"
            gradientTransform="translate(244.87 -565.26)" xlink:href="#未命名的渐变_105" />
        <linearGradient id="未命名的渐变_105-18" x1="-168.68" y1="653.61" x2="-162.4" y2="653.61"
            gradientTransform="translate(170.51 -639.93)" xlink:href="#未命名的渐变_105" />
        <linearGradient id="未命名的渐变_67-4" x1="-168.68" y1="180.69" x2="-162.4" y2="180.69"
            gradientTransform="matrix(1, 0, 0, -1, 167.01, 194.37)" xlink:href="#未命名的渐变_67" />
        <linearGradient id="未命名的渐变_67-5" x1="-168.68" y1="187.77" x2="-162.4" y2="187.77"
            gradientTransform="matrix(1, 0, 0, -1, 174.09, 201.45)" xlink:href="#未命名的渐变_67" />
        <linearGradient id="未命名的渐变_67-6" x1="-166.57" y1="201.37" x2="-164.21" y2="201.37" xlink:href="#未命名的渐变_67" />
        <linearGradient id="未命名的渐变_105-19" x1="-166.35" y1="201.37" x2="-164.42" y2="201.37" xlink:href="#未命名的渐变_105" />
        <linearGradient id="未命名的渐变_67-7" x1="-166.06" y1="201.37" x2="-164.72" y2="201.37" xlink:href="#未命名的渐变_67" />
        <linearGradient id="未命名的渐变_67-8" x1="-166.57" y1="209.73" x2="-164.21" y2="209.73" xlink:href="#未命名的渐变_67" />
        <linearGradient id="未命名的渐变_105-20" x1="-166.35" y1="209.73" x2="-164.42" y2="209.73" xlink:href="#未命名的渐变_105" />
        <linearGradient id="未命名的渐变_67-9" x1="-166.06" y1="209.73" x2="-164.72" y2="209.73" xlink:href="#未命名的渐变_67" />
        <linearGradient id="未命名的渐变_67-10" x1="-166.57" y1="218.12" x2="-164.21" y2="218.12" xlink:href="#未命名的渐变_67" />
        <linearGradient id="未命名的渐变_105-21" x1="-166.35" y1="218.12" x2="-164.42" y2="218.12" xlink:href="#未命名的渐变_105" />
        <linearGradient id="未命名的渐变_67-11" x1="-166.06" y1="218.12" x2="-164.72" y2="218.12" xlink:href="#未命名的渐变_67" />
        <linearGradient id="未命名的渐变_67-12" x1="-166.57" y1="226.67" x2="-164.21" y2="226.67" xlink:href="#未命名的渐变_67" />
        <linearGradient id="未命名的渐变_105-22" x1="-166.35" y1="226.67" x2="-164.42" y2="226.67" xlink:href="#未命名的渐变_105" />
        <linearGradient id="未命名的渐变_67-13" x1="-166.06" y1="226.67" x2="-164.72" y2="226.67" xlink:href="#未命名的渐变_67" />
        <linearGradient id="未命名的渐变_67-14" x1="-166.57" y1="246.89" x2="-164.21" y2="246.89" xlink:href="#未命名的渐变_67" />
        <linearGradient id="未命名的渐变_105-23" x1="-166.35" y1="246.89" x2="-164.42" y2="246.89" xlink:href="#未命名的渐变_105" />
        <linearGradient id="未命名的渐变_67-15" x1="-166.06" y1="246.89" x2="-164.72" y2="246.89" xlink:href="#未命名的渐变_67" />
        <linearGradient id="未命名的渐变_67-16" x1="-166.57" y1="255.19" x2="-164.21" y2="255.19" xlink:href="#未命名的渐变_67" />
        <linearGradient id="未命名的渐变_105-24" x1="-166.35" y1="255.19" x2="-164.42" y2="255.19" xlink:href="#未命名的渐变_105" />
        <linearGradient id="未命名的渐变_67-17" x1="-166.06" y1="255.19" x2="-164.72" y2="255.19" xlink:href="#未命名的渐变_67" />
        <linearGradient id="未命名的渐变_67-18" x1="-166.57" y1="263.74" x2="-164.21" y2="263.74" xlink:href="#未命名的渐变_67" />
        <linearGradient id="未命名的渐变_105-25" x1="-166.35" y1="263.74" x2="-164.42" y2="263.74" xlink:href="#未命名的渐变_105" />
        <linearGradient id="未命名的渐变_67-19" x1="-166.06" y1="263.74" x2="-164.72" y2="263.74" xlink:href="#未命名的渐变_67" />
        <linearGradient id="未命名的渐变_67-20" x1="-166.57" y1="272.23" x2="-164.21" y2="272.23" xlink:href="#未命名的渐变_67" />
        <linearGradient id="未命名的渐变_105-26" x1="-166.35" y1="272.23" x2="-164.42" y2="272.23" xlink:href="#未命名的渐变_105" />
        <linearGradient id="未命名的渐变_67-21" x1="-166.06" y1="272.23" x2="-164.72" y2="272.23" xlink:href="#未命名的渐变_67" />
        <linearGradient id="未命名的渐变_67-22" x1="-166.68" y1="293.09" x2="-164.32" y2="293.09" xlink:href="#未命名的渐变_67" />
        <linearGradient id="未命名的渐变_105-27" x1="-166.46" y1="293.09" x2="-164.54" y2="293.09" xlink:href="#未命名的渐变_105" />
        <linearGradient id="未命名的渐变_67-23" x1="-166.17" y1="293.09" x2="-164.83" y2="293.09" xlink:href="#未命名的渐变_67" />
        <linearGradient id="未命名的渐变_67-24" x1="-166.66" y1="301.59" x2="-164.3" y2="301.59" xlink:href="#未命名的渐变_67" />
        <linearGradient id="未命名的渐变_105-28" x1="-166.44" y1="301.59" x2="-164.52" y2="301.59" xlink:href="#未命名的渐变_105" />
        <linearGradient id="未命名的渐变_67-25" x1="-166.15" y1="301.59" x2="-164.81" y2="301.59" xlink:href="#未命名的渐变_67" />
        <linearGradient id="未命名的渐变_67-26" x1="-166.57" y1="309.98" x2="-164.21" y2="309.98" xlink:href="#未命名的渐变_67" />
        <linearGradient id="未命名的渐变_105-29" x1="-166.35" y1="309.98" x2="-164.42" y2="309.98" xlink:href="#未命名的渐变_105" />
        <linearGradient id="未命名的渐变_67-27" x1="-166.06" y1="309.98" x2="-164.72" y2="309.98" xlink:href="#未命名的渐变_67" />
        <linearGradient id="未命名的渐变_67-28" x1="-166.57" y1="318.37" x2="-164.21" y2="318.37" xlink:href="#未命名的渐变_67" />
        <linearGradient id="未命名的渐变_105-30" x1="-166.35" y1="318.37" x2="-164.42" y2="318.37" xlink:href="#未命名的渐变_105" />
        <linearGradient id="未命名的渐变_67-29" x1="-166.06" y1="318.37" x2="-164.72" y2="318.37" xlink:href="#未命名的渐变_67" />
    </defs>
    <title>Concentrated Solar plants 2（集中太阳能发电厂2）</title>
    <g id="图层_2" data-name="图层 2">
        <g id="图层_59" data-name="图层 59">
            <g id="Concentrated_Solar_plants_2_集中太阳能发电厂2_" data-name="Concentrated Solar plants 2（集中太阳能发电厂2）">
                <path class="cls-1"
                    d="M9.23,27.36s3.22-4,3.33-13.68C12.66,5,9.23,0,9.23,0H54.09A39.27,39.27,0,0,1,57,13.68c0,6.6-2.9,13.68-2.9,13.68Z" />
                <path class="cls-2"
                    d="M11.42,26s2.18-3.54,2.29-12.35c.09-7.85-2.29-12.44-2.29-12.44H53.54a42.26,42.26,0,0,1,2.15,12.4A45.53,45.53,0,0,1,53.54,26Z" />
                <path class="cls-3"
                    d="M20.42,26.34a34,34,0,0,0,2.22-12.66,38.65,38.65,0,0,0-2.2-12.63h-1A45.13,45.13,0,0,1,21.66,13.7a48.77,48.77,0,0,1-2.18,12.64Z" />
                <path class="cls-4"
                    d="M28.82,26.34A34,34,0,0,0,31,13.68,38.49,38.49,0,0,0,28.83,1.05h-1A45.36,45.36,0,0,1,30.06,13.7a49,49,0,0,1-2.19,12.64Z" />
                <path class="cls-5"
                    d="M37.21,26.34a34,34,0,0,0,2.22-12.66A38.49,38.49,0,0,0,37.22,1.05h-.95A45.13,45.13,0,0,1,38.45,13.7a49.25,49.25,0,0,1-2.18,12.64Z" />
                <path class="cls-6"
                    d="M45.6,26.34a34,34,0,0,0,2.22-12.66,38.65,38.65,0,0,0-2.2-12.63h-1A45.13,45.13,0,0,1,46.84,13.7a48.77,48.77,0,0,1-2.18,12.64Z" />
                <path class="cls-7"
                    d="M54.82,27.38s3.23-4,3.34-13.68C58.25,5,54.82,0,54.82,0H99.68a39.16,39.16,0,0,1,2.91,13.68c0,6.59-2.91,13.68-2.91,13.68Z" />
                <path class="cls-8"
                    d="M57,26.05S59.2,22.51,59.3,13.7C59.39,5.85,57,1.26,57,1.26H99.13a42.06,42.06,0,0,1,2.16,12.39,45.36,45.36,0,0,1-2.16,12.4Z" />
                <path class="cls-9"
                    d="M66,26.36A34,34,0,0,0,68.24,13.7,38.49,38.49,0,0,0,66,1.07h-1a45.13,45.13,0,0,1,2.18,12.65,49.25,49.25,0,0,1-2.18,12.64Z" />
                <path class="cls-10"
                    d="M74.41,26.36A34,34,0,0,0,76.63,13.7a38.65,38.65,0,0,0-2.2-12.63h-1a45.13,45.13,0,0,1,2.18,12.65,48.77,48.77,0,0,1-2.18,12.64Z" />
                <path class="cls-11"
                    d="M82.8,26.36A34,34,0,0,0,85,13.7a38.65,38.65,0,0,0-2.2-12.63h-1A45.13,45.13,0,0,1,84,13.72a48.77,48.77,0,0,1-2.18,12.64Z" />
                <path class="cls-12"
                    d="M91.2,26.36A34,34,0,0,0,93.42,13.7,38.49,38.49,0,0,0,91.21,1.07h-1a45.36,45.36,0,0,1,2.19,12.65,49,49,0,0,1-2.19,12.64Z" />
                <path class="cls-13"
                    d="M101,27.4s3.23-4,3.34-13.68C104.39,5.06,101,0,101,0h44.86a39.16,39.16,0,0,1,2.91,13.68c0,6.59-2.91,13.68-2.91,13.68Z" />
                <path class="cls-14"
                    d="M103.15,26.07s2.19-3.54,2.29-12.35c.09-7.85-2.29-12.44-2.29-12.44h42.12a42.06,42.06,0,0,1,2.16,12.39,45.36,45.36,0,0,1-2.16,12.4Z" />
                <path class="cls-15"
                    d="M112.16,26.38a34,34,0,0,0,2.22-12.66,38.49,38.49,0,0,0-2.21-12.63h-1a45.13,45.13,0,0,1,2.18,12.65,49.25,49.25,0,0,1-2.18,12.64Z" />
                <path class="cls-16"
                    d="M120.55,26.38a34,34,0,0,0,2.22-12.66,38.65,38.65,0,0,0-2.2-12.63h-1a45.13,45.13,0,0,1,2.18,12.65,48.77,48.77,0,0,1-2.18,12.64Z" />
                <path class="cls-17"
                    d="M128.94,26.38a34,34,0,0,0,2.22-12.66A38.65,38.65,0,0,0,129,1.09h-1a45.13,45.13,0,0,1,2.18,12.65A48.77,48.77,0,0,1,128,26.38Z" />
                <path class="cls-18"
                    d="M137.34,26.38a34.12,34.12,0,0,0,2.21-12.66,38.65,38.65,0,0,0-2.2-12.63h-1a45.36,45.36,0,0,1,2.19,12.65,49,49,0,0,1-2.19,12.64Z" />
                <rect class="cls-19" x="78.2" y="-56.79" width="2.36" height="141.24"
                    transform="translate(93.21 -65.55) rotate(90)" />
                <rect class="cls-20" x="79.16" y="-56.68" width="0.66" height="141.03"
                    transform="translate(93.32 -65.66) rotate(90)" />
                <rect class="cls-21" x="1.83" y="8.71" width="6.29" height="9.95" rx="0.3"
                    transform="translate(18.65 8.71) rotate(90)" />
                <rect class="cls-22" x="-1.68" y="13.33" width="6.29" height="0.7"
                    transform="translate(15.15 12.21) rotate(90)" />
                <rect class="cls-23" x="5.41" y="13.33" width="6.29" height="0.7"
                    transform="translate(22.23 5.13) rotate(90)" />
                <circle class="cls-24" cx="22.15" cy="13.83" r="1.18" />
                <circle class="cls-25" cx="22.15" cy="13.83" r="0.96" />
                <circle class="cls-26" cx="22.15" cy="13.83" r="0.67" />
                <circle class="cls-27" cx="30.51" cy="13.83" r="1.18" />
                <circle class="cls-28" cx="30.51" cy="13.83" r="0.96" />
                <circle class="cls-29" cx="30.51" cy="13.83" r="0.67" />
                <circle class="cls-30" cx="38.9" cy="13.83" r="1.18" />
                <circle class="cls-31" cx="38.9" cy="13.83" r="0.96" />
                <circle class="cls-32" cx="38.9" cy="13.83" r="0.67" />
                <circle class="cls-33" cx="47.45" cy="13.83" r="1.18" />
                <circle class="cls-34" cx="47.45" cy="13.83" r="0.96" />
                <circle class="cls-35" cx="47.45" cy="13.83" r="0.67" />
                <circle class="cls-36" cx="67.67" cy="13.83" r="1.18" />
                <circle class="cls-37" cx="67.67" cy="13.83" r="0.96" />
                <circle class="cls-38" cx="67.67" cy="13.83" r="0.67" />
                <circle class="cls-39" cx="75.97" cy="13.83" r="1.18" />
                <circle class="cls-40" cx="75.97" cy="13.83" r="0.96" />
                <circle class="cls-41" cx="75.97" cy="13.83" r="0.67" />
                <circle class="cls-42" cx="84.52" cy="13.83" r="1.18" />
                <circle class="cls-43" cx="84.52" cy="13.83" r="0.96" />
                <circle class="cls-44" cx="84.52" cy="13.83" r="0.67" />
                <circle class="cls-45" cx="93.02" cy="13.83" r="1.18" />
                <circle class="cls-46" cx="93.02" cy="13.83" r="0.96" />
                <circle class="cls-47" cx="93.02" cy="13.83" r="0.67" />
                <circle class="cls-48" cx="113.87" cy="13.72" r="1.18" />
                <circle class="cls-49" cx="113.87" cy="13.72" r="0.96" />
                <circle class="cls-50" cx="113.87" cy="13.72" r="0.67" />
                <circle class="cls-51" cx="122.37" cy="13.74" r="1.18" />
                <circle class="cls-52" cx="122.37" cy="13.74" r="0.96" />
                <circle class="cls-53" cx="122.37" cy="13.74" r="0.67" />
                <circle class="cls-54" cx="130.76" cy="13.83" r="1.18" />
                <circle class="cls-55" cx="130.76" cy="13.83" r="0.96" />
                <circle class="cls-56" cx="130.76" cy="13.83" r="0.67" />
                <circle class="cls-57" cx="139.16" cy="13.83" r="1.18" />
                <circle class="cls-58" cx="139.16" cy="13.83" r="0.96" />
                <circle class="cls-59" cx="139.16" cy="13.83" r="0.67" />
                
            </g>
        </g>
    </g>
</svg>