<svg xmlns="http://www.w3.org/2000/svg" xmlns:xlink="http://www.w3.org/1999/xlink" viewBox="0 0 150.82 99.63">
    <defs>
        <style>
            .cls-1 {
                fill: url(#未命名的渐变_74);
            }

            .cls-2 {
                fill: #949494;
            }

            .cls-3 {
                fill: #707070;
            }

            .cls-4 {
                fill: #fff;
            }

            .cls-5 {
                fill: url(#未命名的渐变_74-2);
            }

            .cls-6 {
                fill: url(#未命名的渐变_74-3);
            }

            .cls-7 {
                fill: url(#未命名的渐变_74-4);
            }

            .cls-8 {
                fill: url(#未命名的渐变_74-5);
            }

            .cls-9 {
                fill: url(#未命名的渐变_74-6);
            }

            .cls-10 {
                fill: url(#未命名的渐变_74-7);
            }

            .cls-11 {
                fill: url(#未命名的渐变_74-8);
            }

            .cls-12 {
                fill: url(#未命名的渐变_74-9);
            }

            .cls-13 {
                opacity: 0.2;
            }
        </style>
        <linearGradient id="未命名的渐变_74" x1="0.63" y1="39.94" x2="50.51" y2="39.94"
            gradientTransform="translate(0.06 1.7)" gradientUnits="userSpaceOnUse">
            <stop offset="0" stop-color="#6b6b6b" />
            <stop offset="0.01" stop-color="#767676" />
            <stop offset="0.03" stop-color="#959595" />
            <stop offset="0.04" stop-color="#aaa" />
            <stop offset="0.37" stop-color="#ccc" />
            <stop offset="0.74" stop-color="#eaeaea" />
            <stop offset="0.94" stop-color="#f6f6f6" />
            <stop offset="0.95" stop-color="#ededed" />
            <stop offset="0.96" stop-color="#d4d4d4" />
            <stop offset="0.97" stop-color="#ababab" />
            <stop offset="0.99" stop-color="#737373" />
            <stop offset="0.99" stop-color="#666" />
        </linearGradient>
        <linearGradient id="未命名的渐变_74-2" x1="50.51" y1="39.94" x2="100.39" y2="39.94"
            gradientTransform="translate(0.05 2.31)" xlink:href="#未命名的渐变_74" />
        <linearGradient id="未命名的渐变_74-3" x1="100.39" y1="39.94" x2="150.26" y2="39.94"
            gradientTransform="translate(0.05 2.92)" xlink:href="#未命名的渐变_74" />
        <linearGradient id="未命名的渐变_74-4" x1="0.63" y1="88.14" x2="4.63" y2="88.14"
            gradientTransform="translate(-0.53 1.41)" xlink:href="#未命名的渐变_74" />
        <linearGradient id="未命名的渐变_74-5" x1="36.73" y1="88.68" x2="40.69" y2="88.68"
            gradientTransform="translate(-0.54 1.85)" xlink:href="#未命名的渐变_74" />
        <linearGradient id="未命名的渐变_74-6" x1="73.2" y1="88.28" x2="77.17" y2="88.28"
            gradientTransform="translate(-0.54 2.3)" xlink:href="#未命名的渐变_74" />
        <linearGradient id="未命名的渐变_74-7" x1="109.58" y1="87.81" x2="113.54" y2="87.81"
            gradientTransform="translate(-0.53 2.74)" xlink:href="#未命名的渐变_74" />
        <linearGradient id="未命名的渐变_74-8" x1="75.45" y1="84.31" x2="75.45" y2="79.98"
            gradientTransform="translate(-0.46 2.3)" xlink:href="#未命名的渐变_74" />
        <linearGradient id="未命名的渐变_74-9" x1="75.45" y1="96.41" x2="75.45" y2="92.08"
            gradientTransform="translate(-0.61 2.3)" xlink:href="#未命名的渐变_74" />
    </defs>
    <title>Concentrated Solar plants 1（聚光太阳能发电厂）</title>
    <g id="图层_2" data-name="图层 2">
        <g id="图层_59" data-name="图层 59">
            <g id="Concentrated_Solar_plants_1_聚光太阳能发电厂_" data-name="Concentrated Solar plants 1（聚光太阳能发电厂）">
                <rect class="cls-1" x="0.69" y="0.3" width="49.88" height="82.67"
                    transform="translate(0.51 -0.31) rotate(0.7)" />
                <rect class="cls-2" x="2.55" y="1.27" width="47.19" height="2.93"
                    transform="translate(0.04 -0.32) rotate(0.7)" />
                <rect class="cls-3" x="2.08" y="4.2" width="47.19" height="74.55"
                    transform="translate(0.51 -0.31) rotate(0.7)" />
                <rect class="cls-4" x="2.48" y="8.56" width="47.19" height="0.84"
                    transform="translate(0.11 -0.32) rotate(0.7)" />
                <rect class="cls-4" x="-30.99" y="40.81" width="74.55" height="0.84"
                    transform="translate(47.59 35.45) rotate(90.7)" />
                <rect class="cls-4" x="-25.41" y="40.88" width="74.55" height="0.84"
                    transform="translate(53.3 29.94) rotate(90.7)" />
                <rect class="cls-4" x="-19.83" y="40.95" width="74.55" height="0.84"
                    transform="translate(59.02 24.44) rotate(90.7)" />
                <rect class="cls-4" x="-14.26" y="41.02" width="74.55" height="0.84"
                    transform="translate(64.73 18.93) rotate(90.7)" />
                <rect class="cls-4" x="-8.68" y="41.08" width="74.55" height="0.84"
                    transform="translate(70.44 13.42) rotate(90.7)" />
                <rect class="cls-4" x="-3.1" y="41.15" width="74.55" height="0.84"
                    transform="translate(76.16 7.91) rotate(90.7)" />
                <rect class="cls-4" x="2.47" y="41.22" width="74.55" height="0.84"
                    transform="translate(81.87 2.41) rotate(90.7)" />
                <rect class="cls-4" x="7.63" y="41.28" width="74.55" height="0.84"
                    transform="translate(87.15 -2.68) rotate(90.7)" />
                <rect class="cls-4" x="2.41" y="14.08" width="47.19" height="0.84"
                    transform="translate(0.18 -0.32) rotate(0.7)" />
                <rect class="cls-4" x="2.34" y="19.59" width="47.19" height="0.84"
                    transform="translate(0.25 -0.32) rotate(0.7)" />
                <rect class="cls-4" x="2.28" y="24.88" width="47.19" height="0.84"
                    transform="translate(0.31 -0.31) rotate(0.7)" />
                <rect class="cls-4" x="2.21" y="30.21" width="47.19" height="0.84"
                    transform="translate(0.38 -0.31) rotate(0.7)" />
                <rect class="cls-4" x="2.15" y="35.72" width="47.19" height="0.84"
                    transform="translate(0.44 -0.31) rotate(0.7)" />
                <rect class="cls-4" x="2.08" y="41.01" width="47.19" height="0.84"
                    transform="translate(0.51 -0.31) rotate(0.7)" />
                <rect class="cls-4" x="2.02" y="46.34" width="47.19" height="0.84"
                    transform="translate(0.57 -0.31) rotate(0.7)" />
                <rect class="cls-4" x="1.95" y="51.85" width="47.19" height="0.84"
                    transform="translate(0.64 -0.31) rotate(0.7)" />
                <rect class="cls-4" x="1.88" y="57.37" width="47.19" height="0.84"
                    transform="translate(0.71 -0.31) rotate(0.7)" />
                <rect class="cls-4" x="1.82" y="62.48" width="47.19" height="0.84"
                    transform="translate(0.77 -0.31) rotate(0.7)" />
                <rect class="cls-4" x="1.75" y="67.95" width="47.19" height="0.84"
                    transform="translate(0.84 -0.3) rotate(0.7)" />
                <rect class="cls-4" x="1.68" y="73.51" width="47.19" height="0.84"
                    transform="translate(0.9 -0.3) rotate(0.7)" />
                <rect class="cls-2" x="1.61" y="78.74" width="47.19" height="2.93"
                    transform="translate(0.98 -0.3) rotate(0.7)" />
                <rect class="cls-5" x="50.56" y="0.91" width="49.88" height="82.67"
                    transform="translate(0.52 -0.92) rotate(0.7)" />
                <rect class="cls-2" x="52.43" y="1.88" width="47.19" height="2.93"
                    transform="translate(0.05 -0.93) rotate(0.7)" />
                <rect class="cls-3" x="51.96" y="4.81" width="47.19" height="74.55"
                    transform="translate(0.52 -0.92) rotate(0.7)" />
                <rect class="cls-4" x="52.35" y="9.17" width="47.19" height="0.84"
                    transform="translate(0.12 -0.93) rotate(0.7)" />
                <rect class="cls-4" x="18.89" y="41.42" width="74.55" height="0.84"
                    transform="translate(98.68 -13.8) rotate(90.7)" />
                <rect class="cls-4" x="24.46" y="41.49" width="74.55" height="0.84"
                    transform="translate(104.4 -19.31) rotate(90.7)" />
                <rect class="cls-4" x="30.04" y="41.56" width="74.55" height="0.84"
                    transform="translate(110.11 -24.82) rotate(90.7)" />
                <rect class="cls-4" x="35.62" y="41.62" width="74.55" height="0.84"
                    transform="translate(115.82 -30.33) rotate(90.7)" />
                <rect class="cls-4" x="41.19" y="41.69" width="74.55" height="0.84"
                    transform="translate(121.53 -35.83) rotate(90.7)" />
                <rect class="cls-4" x="46.77" y="41.76" width="74.55" height="0.84"
                    transform="translate(127.25 -41.34) rotate(90.7)" />
                <rect class="cls-4" x="52.35" y="41.83" width="74.55" height="0.84"
                    transform="translate(132.96 -46.85) rotate(90.7)" />
                <rect class="cls-4" x="57.5" y="41.89" width="74.55" height="0.84"
                    transform="translate(138.24 -51.94) rotate(90.7)" />
                <rect class="cls-4" x="52.28" y="14.68" width="47.19" height="0.84"
                    transform="translate(0.19 -0.93) rotate(0.7)" />
                <rect class="cls-4" x="52.22" y="20.2" width="47.19" height="0.84"
                    transform="translate(0.26 -0.92) rotate(0.7)" />
                <rect class="cls-4" x="52.15" y="25.49" width="47.19" height="0.84"
                    transform="translate(0.32 -0.92) rotate(0.7)" />
                <rect class="cls-4" x="52.09" y="30.81" width="47.19" height="0.84"
                    transform="translate(0.39 -0.92) rotate(0.7)" />
                <rect class="cls-4" x="52.02" y="36.33" width="47.19" height="0.84"
                    transform="translate(0.45 -0.92) rotate(0.7)" />
                <rect class="cls-4" x="51.96" y="41.62" width="47.19" height="0.84"
                    transform="translate(0.52 -0.92) rotate(0.7)" />
                <rect class="cls-4" x="51.89" y="46.94" width="47.19" height="0.84"
                    transform="translate(0.58 -0.92) rotate(0.7)" />
                <rect class="cls-4" x="51.82" y="52.46" width="47.19" height="0.84"
                    transform="translate(0.65 -0.92) rotate(0.7)" />
                <rect class="cls-4" x="51.76" y="57.98" width="47.19" height="0.84"
                    transform="translate(0.72 -0.92) rotate(0.7)" />
                <rect class="cls-4" x="51.69" y="63.09" width="47.19" height="0.84"
                    transform="translate(0.78 -0.91) rotate(0.7)" />
                <rect class="cls-4" x="51.63" y="68.56" width="47.19" height="0.84"
                    transform="translate(0.85 -0.91) rotate(0.7)" />
                <rect class="cls-4" x="51.56" y="74.12" width="47.19" height="0.84"
                    transform="translate(0.92 -0.91) rotate(0.7)" />
                <rect class="cls-2" x="51.48" y="79.35" width="47.19" height="2.93"
                    transform="translate(0.99 -0.91) rotate(0.7)" />
                <rect class="cls-6" x="100.44" y="1.52" width="49.88" height="82.67"
                    transform="translate(0.53 -1.53) rotate(0.7)" />
                <rect class="cls-2" x="102.3" y="2.48" width="47.19" height="2.93"
                    transform="translate(0.06 -1.54) rotate(0.7)" />
                <rect class="cls-3" x="101.83" y="5.41" width="47.19" height="74.55"
                    transform="translate(0.53 -1.53) rotate(0.7)" />
                <rect class="cls-4" x="102.23" y="9.78" width="47.19" height="0.84"
                    transform="translate(0.13 -1.54) rotate(0.7)" />
                <rect class="cls-4" x="68.76" y="42.03" width="74.55" height="0.84"
                    transform="translate(149.78 -63.06) rotate(90.7)" />
                <rect class="cls-4" x="74.34" y="42.1" width="74.55" height="0.84"
                    transform="translate(155.49 -68.57) rotate(90.7)" />
                <rect class="cls-4" x="79.91" y="42.17" width="74.55" height="0.84"
                    transform="translate(161.2 -74.07) rotate(90.7)" />
                <rect class="cls-4" x="85.49" y="42.23" width="74.55" height="0.84"
                    transform="translate(166.91 -79.58) rotate(90.7)" />
                <rect class="cls-4" x="91.07" y="42.3" width="74.55" height="0.84"
                    transform="translate(172.63 -85.09) rotate(90.7)" />
                <rect class="cls-4" x="96.64" y="42.37" width="74.55" height="0.84"
                    transform="translate(178.34 -90.59) rotate(90.7)" />
                <rect class="cls-4" x="102.22" y="42.44" width="74.55" height="0.84"
                    transform="translate(184.05 -96.1) rotate(90.7)" />
                <rect class="cls-4" x="107.38" y="42.5" width="74.55" height="0.84"
                    transform="translate(189.33 -101.19) rotate(90.7)" />
                <rect class="cls-4" x="102.16" y="15.29" width="47.19" height="0.84"
                    transform="translate(0.2 -1.53) rotate(0.7)" />
                <rect class="cls-4" x="102.09" y="20.81" width="47.19" height="0.84"
                    transform="translate(0.27 -1.53) rotate(0.7)" />
                <rect class="cls-4" x="102.03" y="26.1" width="47.19" height="0.84"
                    transform="translate(0.33 -1.53) rotate(0.7)" />
                <rect class="cls-4" x="101.96" y="31.42" width="47.19" height="0.84"
                    transform="translate(0.4 -1.53) rotate(0.7)" />
                <rect class="cls-4" x="101.89" y="36.94" width="47.19" height="0.84"
                    transform="translate(0.47 -1.53) rotate(0.7)" />
                <rect class="cls-4" x="101.83" y="42.23" width="47.19" height="0.84"
                    transform="translate(0.53 -1.53) rotate(0.7)" />
                <rect class="cls-4" x="101.76" y="47.55" width="47.19" height="0.84"
                    transform="translate(0.6 -1.53) rotate(0.7)" />
                <rect class="cls-4" x="101.7" y="53.07" width="47.19" height="0.84"
                    transform="translate(0.66 -1.53) rotate(0.7)" />
                <rect class="cls-4" x="101.63" y="58.59" width="47.19" height="0.84"
                    transform="translate(0.73 -1.52) rotate(0.7)" />
                <rect class="cls-4" x="101.57" y="63.7" width="47.19" height="0.84"
                    transform="translate(0.79 -1.52) rotate(0.7)" />
                <rect class="cls-4" x="101.5" y="69.17" width="47.19" height="0.84"
                    transform="translate(0.86 -1.52) rotate(0.7)" />
                <rect class="cls-4" x="101.43" y="74.73" width="47.19" height="0.84"
                    transform="translate(0.93 -1.52) rotate(0.7)" />
                <rect class="cls-2" x="101.36" y="79.96" width="47.19" height="2.93"
                    transform="translate(1 -1.52) rotate(0.7)" />
                <rect class="cls-7" x="0.1" y="83.01" width="4" height="13.08"
                    transform="translate(1.09 -0.02) rotate(0.7)" />
                <rect class="cls-8" x="36.19" y="84" width="3.96" height="13.08"
                    transform="translate(1.11 -0.46) rotate(0.7)" />
                <rect class="cls-9" x="72.67" y="84.05" width="3.96" height="13.08"
                    transform="translate(1.11 -0.9) rotate(0.7)" />
                <rect class="cls-10" x="109.04" y="84.02" width="3.96" height="13.08"
                    transform="translate(1.11 -1.35) rotate(0.7)" />
                <rect class="cls-11" x="0.17" y="82.28" width="149.63" height="4.34"
                    transform="translate(1.04 -0.91) rotate(0.7)" />
                <rect class="cls-12" x="0.02" y="94.38" width="149.63" height="4.34"
                    transform="translate(1.18 -0.91) rotate(0.7)" />
                
            </g>
        </g>
    </g>
</svg>