<svg xmlns="http://www.w3.org/2000/svg" xmlns:xlink="http://www.w3.org/1999/xlink" viewBox="0 0 96.74 149.24">
    <defs>
        <style>
            .cls-1 {
                fill: url(#未命名的渐变_85);
            }

            .cls-2 {
                fill: url(#未命名的渐变_85-2);
            }

            .cls-3 {
                fill: url(#未命名的渐变_74);
            }

            .cls-4 {
                fill: url(#未命名的渐变_74-2);
            }

            .cls-5 {
                fill: url(#未命名的渐变_74-3);
            }

            .cls-6 {
                fill: #dadbe0;
            }

            .cls-7 {
                fill: #c1c1c1;
            }

            .cls-8 {
                fill: #1a81c9;
            }

            .cls-9 {
                fill: #0bc360;
            }

            .cls-10 {
                fill: #e56d79;
            }

            .cls-11 {
                fill: #f5e300;
            }

            .cls-12 {
                fill: url(#未命名的渐变_8);
            }

            .cls-13 {
                fill: #dcdcdd;
            }

            .cls-14 {
                fill: url(#未命名的渐变_8-2);
            }

            .cls-15 {
                fill: url(#未命名的渐变_8-3);
            }

            .cls-16 {
                fill: url(#未命名的渐变_8-4);
            }

            .cls-17 {
                fill: url(#未命名的渐变_8-5);
            }

            .cls-18 {
                fill: url(#未命名的渐变_8-6);
            }

            .cls-19 {
                fill: url(#未命名的渐变_8-7);
            }

            .cls-20 {
                fill: url(#未命名的渐变_8-8);
            }

            .cls-21 {
                fill: url(#未命名的渐变_8-9);
            }

            .cls-22 {
                fill: url(#未命名的渐变_85-3);
            }

            .cls-23 {
                fill: url(#未命名的渐变_85-4);
            }

            .cls-24 {
                opacity: 0.2;
            }
        </style>
        <linearGradient id="未命名的渐变_85" y1="1.61" x2="96.74" y2="1.61" gradientUnits="userSpaceOnUse">
            <stop offset="0" stop-color="#6b6b6b" />
            <stop offset="0.11" stop-color="#767676" />
            <stop offset="0.3" stop-color="#959595" />
            <stop offset="0.41" stop-color="#aaa" />
            <stop offset="0.68" stop-color="#acacac" />
            <stop offset="0.78" stop-color="#b3b3b3" />
            <stop offset="0.85" stop-color="#bebebe" />
            <stop offset="0.91" stop-color="#cfcfcf" />
            <stop offset="0.95" stop-color="#e5e5e5" />
            <stop offset="0.99" stop-color="#f6f6f6" />
            <stop offset="0.99" stop-color="#ededed" />
            <stop offset="0.99" stop-color="#d4d4d4" />
            <stop offset="0.99" stop-color="#adadad" />
        </linearGradient>
        <linearGradient id="未命名的渐变_85-2" y1="135.7" x2="96.74" y2="135.7" xlink:href="#未命名的渐变_85" />
        <linearGradient id="未命名的渐变_74" y1="68.53" x2="96.74" y2="68.53" gradientUnits="userSpaceOnUse">
            <stop offset="0" stop-color="#6b6b6b" />
            <stop offset="0.01" stop-color="#767676" />
            <stop offset="0.03" stop-color="#959595" />
            <stop offset="0.04" stop-color="#aaa" />
            <stop offset="0.37" stop-color="#ccc" />
            <stop offset="0.74" stop-color="#eaeaea" />
            <stop offset="0.94" stop-color="#f6f6f6" />
            <stop offset="0.95" stop-color="#ededed" />
            <stop offset="0.96" stop-color="#d4d4d4" />
            <stop offset="0.97" stop-color="#ababab" />
            <stop offset="0.99" stop-color="#737373" />
            <stop offset="0.99" stop-color="#666" />
        </linearGradient>
        <linearGradient id="未命名的渐变_74-2" x1="48.37" y1="46.07" x2="48.37" y2="22.03" xlink:href="#未命名的渐变_74" />
        <linearGradient id="未命名的渐变_74-3" x1="48.37" y1="17.72" x2="48.37" y2="6.06" xlink:href="#未命名的渐变_74" />
        <linearGradient id="未命名的渐变_8" x1="13.61" y1="33.27" x2="13.61" y2="28.52" gradientUnits="userSpaceOnUse">
            <stop offset="0" stop-color="#e6e6e6" />
            <stop offset="0.32" stop-color="#d6d6d6" />
            <stop offset="0.94" stop-color="#adadad" />
            <stop offset="1" stop-color="#a8a8a8" />
        </linearGradient>
        <linearGradient id="未命名的渐变_8-2" x1="20.34" y1="33.27" x2="20.34" y2="28.52" xlink:href="#未命名的渐变_8" />
        <linearGradient id="未命名的渐变_8-3" x1="26.96" y1="33.27" x2="26.96" y2="28.52" xlink:href="#未命名的渐变_8" />
        <linearGradient id="未命名的渐变_8-4" x1="34.84" y1="33.27" x2="34.84" y2="28.52" xlink:href="#未命名的渐变_8" />
        <linearGradient id="未命名的渐变_8-5" x1="41.76" y1="33.27" x2="41.76" y2="28.52" xlink:href="#未命名的渐变_8" />
        <linearGradient id="未命名的渐变_8-6" x1="49.03" y1="33.27" x2="49.03" y2="28.52" xlink:href="#未命名的渐变_8" />
        <linearGradient id="未命名的渐变_8-7" x1="55.97" y1="33.27" x2="55.97" y2="28.52" xlink:href="#未命名的渐变_8" />
        <linearGradient id="未命名的渐变_8-8" x1="62.98" y1="33.27" x2="62.98" y2="28.52" xlink:href="#未命名的渐变_8" />
        <linearGradient id="未命名的渐变_8-9" x1="69.97" y1="33.27" x2="69.97" y2="28.52" xlink:href="#未命名的渐变_8" />
        <linearGradient id="未命名的渐变_85-3" x1="5.29" y1="143.4" x2="15.32" y2="143.4" xlink:href="#未命名的渐变_85" />
        <linearGradient id="未命名的渐变_85-4" x1="81.61" y1="143.4" x2="91.64" y2="143.4" xlink:href="#未命名的渐变_85" />
    </defs>
    <title>Control system（控制系统）</title>
    <g id="图层_2" data-name="图层 2">
        <g id="图层_59" data-name="图层 59">
            <g id="Control_system_控制系统_" data-name="Control system（控制系统）">
                <rect class="cls-1" width="96.74" height="3.22" />
                <rect class="cls-2" y="133.83" width="96.74" height="3.74" />
                <rect class="cls-3" y="3.22" width="96.74" height="130.61" />
                <rect class="cls-4" x="5.2" y="22.03" width="86.34" height="24.04" />
                <rect class="cls-5" x="5.2" y="6.06" width="86.34" height="11.65" />
                <rect class="cls-6" x="6.33" y="23.72" width="84.07" height="20.83" />
                <circle class="cls-7" cx="13.65" cy="40.16" r="2.46" />
                <circle class="cls-8" cx="13.65" cy="40.16" r="1.79" />
                <circle class="cls-7" cx="20.34" cy="40.16" r="2.46" />
                <circle class="cls-9" cx="20.34" cy="40.16" r="1.79" />
                <circle class="cls-7" cx="42.02" cy="40.16" r="2.46" />
                <circle class="cls-10" cx="42.02" cy="40.16" r="1.79" />
                <circle class="cls-7" cx="48.81" cy="40.16" r="2.46" />
                <circle class="cls-10" cx="48.81" cy="40.16" r="1.79" />
                <circle class="cls-7" cx="56.19" cy="40.16" r="2.46" />
                <circle class="cls-11" cx="56.19" cy="40.16" r="1.79" />
                <circle class="cls-7" cx="63.19" cy="40.16" r="2.46" />
                <circle class="cls-11" cx="63.19" cy="40.16" r="1.79" />
                <circle class="cls-7" cx="69.98" cy="40.16" r="2.46" />
                <circle class="cls-11" cx="69.98" cy="40.16" r="1.79" />
                <circle class="cls-7" cx="27.14" cy="40.16" r="2.46" />
                <circle class="cls-10" cx="27.14" cy="40.16" r="1.79" />
                <circle class="cls-7" cx="34.85" cy="40.16" r="2.46" />
                <circle class="cls-10" cx="34.85" cy="40.16" r="1.79" />
                <rect class="cls-7" x="11.21" y="26.14" width="4.81" height="7.93" />
                <rect class="cls-12" x="12.05" y="28.52" width="3.12" height="4.75" />
                <rect class="cls-13" x="12.05" y="27.06" width="3.12" height="1.46" />
                <rect class="cls-7" x="17.94" y="26.14" width="4.81" height="7.93" />
                <rect class="cls-14" x="18.77" y="28.52" width="3.12" height="4.75" />
                <rect class="cls-13" x="18.77" y="27.06" width="3.12" height="1.46" />
                <rect class="cls-7" x="24.56" y="26.14" width="4.81" height="7.93" />
                <rect class="cls-15" x="25.4" y="28.52" width="3.12" height="4.75" />
                <rect class="cls-13" x="25.4" y="27.06" width="3.12" height="1.46" />
                <rect class="cls-7" x="32.45" y="26.14" width="4.81" height="7.93" />
                <rect class="cls-16" x="33.28" y="28.52" width="3.12" height="4.75" />
                <rect class="cls-13" x="33.28" y="27.06" width="3.12" height="1.46" />
                <rect class="cls-7" x="39.36" y="26.14" width="4.81" height="7.93" />
                <rect class="cls-17" x="40.2" y="28.52" width="3.12" height="4.75" />
                <rect class="cls-13" x="40.2" y="27.06" width="3.12" height="1.46" />
                <rect class="cls-7" x="46.63" y="26.14" width="4.81" height="7.93" />
                <rect class="cls-18" x="47.47" y="28.52" width="3.12" height="4.75" />
                <rect class="cls-13" x="47.47" y="27.06" width="3.12" height="1.46" />
                <rect class="cls-7" x="53.57" y="26.14" width="4.81" height="7.93" />
                <rect class="cls-19" x="54.41" y="28.52" width="3.12" height="4.75" />
                <rect class="cls-13" x="54.41" y="27.06" width="3.12" height="1.46" />
                <rect class="cls-7" x="60.58" y="26.14" width="4.81" height="7.93" />
                <rect class="cls-20" x="61.41" y="28.52" width="3.12" height="4.75" />
                <rect class="cls-13" x="61.41" y="27.06" width="3.12" height="1.46" />
                <rect class="cls-7" x="67.57" y="26.14" width="4.81" height="7.93" />
                <rect class="cls-21" x="68.41" y="28.52" width="3.12" height="4.75" />
                <rect class="cls-13" x="68.41" y="27.06" width="3.12" height="1.46" />
                <circle class="cls-6" cx="13.64" cy="9.63" r="2.79" />
                <circle cx="13.64" cy="9.63" r="2.16" />
                <circle class="cls-6" cx="13.64" cy="9.63" r="1.51" />
                <circle cx="13.64" cy="9.63" r="1.27" />
                <path d="M15,16.43s-.12.56-1.35.56a1.51,1.51,0,0,1-1.35-.56l.21-6.8H14.8Z" />
                <rect class="cls-7" x="12.4" y="12.21" width="2.47" height="0.19" />
                <rect class="cls-7" x="12.39" y="12.73" width="2.51" height="0.19" />
                <rect class="cls-7" x="12.36" y="13.22" width="2.54" height="0.19" />
                <rect class="cls-7" x="12.33" y="13.71" width="2.55" height="0.19" />
                <rect class="cls-7" x="12.32" y="14.23" width="2.61" height="0.19" />
                <rect class="cls-7" x="12.32" y="14.74" width="2.62" height="0.19" />
                <rect class="cls-7" x="12.29" y="15.25" width="2.64" height="0.19" />
                <rect class="cls-7" x="12.27" y="15.74" width="2.68" height="0.19" />
                <rect class="cls-7" x="12.27" y="16.23" width="2.7" height="0.19" />
                <circle class="cls-6" cx="25.52" cy="9.63" r="2.79" />
                <circle cx="25.52" cy="9.63" r="2.16" />
                <circle class="cls-6" cx="25.52" cy="9.63" r="1.51" />
                <circle cx="25.52" cy="9.63" r="1.27" />
                <path d="M26.84,16.43s-.12.56-1.35.56a1.51,1.51,0,0,1-1.35-.56l.21-6.8h2.33Z" />
                <rect class="cls-7" x="24.27" y="12.21" width="2.47" height="0.19" />
                <rect class="cls-7" x="24.26" y="12.73" width="2.51" height="0.19" />
                <rect class="cls-7" x="24.23" y="13.22" width="2.54" height="0.19" />
                <rect class="cls-7" x="24.21" y="13.71" width="2.55" height="0.19" />
                <rect class="cls-7" x="24.19" y="14.23" width="2.61" height="0.19" />
                <rect class="cls-7" x="24.19" y="14.74" width="2.62" height="0.19" />
                <rect class="cls-7" x="24.16" y="15.25" width="2.64" height="0.19" />
                <rect class="cls-7" x="24.14" y="15.74" width="2.68" height="0.19" />
                <rect class="cls-7" x="24.14" y="16.23" width="2.7" height="0.19" />
                <circle class="cls-6" cx="37.29" cy="9.63" r="2.79" />
                <circle cx="37.29" cy="9.63" r="2.16" />
                <circle class="cls-6" cx="37.29" cy="9.63" r="1.51" />
                <circle cx="37.29" cy="9.63" r="1.27" />
                <path d="M38.62,16.43s-.12.56-1.35.56a1.51,1.51,0,0,1-1.35-.56l.21-6.8h2.32Z" />
                <rect class="cls-7" x="36.05" y="12.21" width="2.47" height="0.19" />
                <rect class="cls-7" x="36.04" y="12.73" width="2.51" height="0.19" />
                <rect class="cls-7" x="36.01" y="13.22" width="2.54" height="0.19" />
                <rect class="cls-7" x="35.98" y="13.71" width="2.55" height="0.19" />
                <rect class="cls-7" x="35.97" y="14.23" width="2.61" height="0.19" />
                <rect class="cls-7" x="35.97" y="14.74" width="2.62" height="0.19" />
                <rect class="cls-7" x="35.94" y="15.25" width="2.64" height="0.19" />
                <rect class="cls-7" x="35.92" y="15.74" width="2.68" height="0.19" />
                <rect class="cls-7" x="35.92" y="16.23" width="2.7" height="0.19" />
                <circle class="cls-6" cx="61.07" cy="9.67" r="2.79" />
                <circle cx="61.07" cy="9.67" r="2.16" />
                <circle class="cls-6" cx="61.07" cy="9.67" r="1.51" />
                <circle cx="61.07" cy="9.67" r="1.27" />
                <path d="M62.39,16.47S62.27,17,61,17a1.5,1.5,0,0,1-1.34-.56l.21-6.8h2.32Z" />
                <rect class="cls-7" x="59.83" y="12.25" width="2.47" height="0.19" />
                <rect class="cls-7" x="59.82" y="12.78" width="2.51" height="0.19" />
                <rect class="cls-7" x="59.79" y="13.26" width="2.54" height="0.19" />
                <rect class="cls-7" x="59.76" y="13.75" width="2.55" height="0.19" />
                <rect class="cls-7" x="59.75" y="14.27" width="2.61" height="0.19" />
                <rect class="cls-7" x="59.74" y="14.78" width="2.62" height="0.19" />
                <rect class="cls-7" x="59.72" y="15.3" width="2.64" height="0.19" />
                <rect class="cls-7" x="59.7" y="15.78" width="2.68" height="0.19" />
                <rect class="cls-7" x="59.7" y="16.27" width="2.7" height="0.19" />
                <circle class="cls-6" cx="72.95" cy="9.68" r="2.79" />
                <circle cx="72.95" cy="9.68" r="2.16" />
                <circle class="cls-6" cx="72.95" cy="9.68" r="1.51" />
                <circle cx="72.95" cy="9.68" r="1.27" />
                <path d="M74.27,16.47s-.12.56-1.34.56a1.51,1.51,0,0,1-1.35-.56l.21-6.79h2.32Z" />
                <rect class="cls-7" x="71.71" y="12.25" width="2.47" height="0.19" />
                <rect class="cls-7" x="71.7" y="12.78" width="2.51" height="0.19" />
                <rect class="cls-7" x="71.67" y="13.26" width="2.54" height="0.19" />
                <rect class="cls-7" x="71.64" y="13.75" width="2.55" height="0.19" />
                <rect class="cls-7" x="71.63" y="14.28" width="2.61" height="0.19" />
                <rect class="cls-7" x="71.62" y="14.79" width="2.62" height="0.19" />
                <rect class="cls-7" x="71.6" y="15.3" width="2.64" height="0.19" />
                <rect class="cls-7" x="71.58" y="15.79" width="2.68" height="0.19" />
                <rect class="cls-7" x="71.58" y="16.27" width="2.7" height="0.19" />
                <circle class="cls-6" cx="84.76" cy="9.55" r="2.79" />
                <circle cx="84.76" cy="9.55" r="2.16" />
                <circle class="cls-6" cx="84.76" cy="9.55" r="1.51" />
                <circle cx="84.76" cy="9.55" r="1.27" />
                <path d="M86.09,16.35s-.12.56-1.35.56a1.51,1.51,0,0,1-1.35-.56l.21-6.8h2.32Z" />
                <rect class="cls-7" x="83.52" y="12.13" width="2.47" height="0.19" />
                <rect class="cls-7" x="83.51" y="12.65" width="2.51" height="0.19" />
                <rect class="cls-7" x="83.48" y="13.14" width="2.54" height="0.19" />
                <rect class="cls-7" x="83.45" y="13.63" width="2.55" height="0.19" />
                <rect class="cls-7" x="83.44" y="14.15" width="2.61" height="0.19" />
                <rect class="cls-7" x="83.44" y="14.66" width="2.62" height="0.19" />
                <rect class="cls-7" x="83.41" y="15.17" width="2.64" height="0.19" />
                <rect class="cls-7" x="83.39" y="15.66" width="2.68" height="0.19" />
                <rect class="cls-7" x="83.39" y="16.15" width="2.7" height="0.19" />
                <rect class="cls-22" x="5.29" y="137.57" width="10.03" height="11.67" />
                <rect class="cls-23" x="81.61" y="137.57" width="10.03" height="11.67" />
                
            </g>
        </g>
    </g>
</svg>