<svg xmlns="http://www.w3.org/2000/svg" xmlns:xlink="http://www.w3.org/1999/xlink" viewBox="0 0 112.4 149.28">
    <defs>
        <style>
            .cls-1 {
                fill: url(#未命名的渐变_74);
            }

            .cls-2 {
                fill: #e6e6e6;
            }

            .cls-3 {
                fill: #5e5e5e;
            }

            .cls-4 {
                fill: #8e8e8e;
            }

            .cls-5 {
                fill: #353535;
            }

            .cls-6 {
                fill: #c9c9c9;
            }

            .cls-7 {
                fill: url(#未命名的渐变_33);
            }

            .cls-8 {
                fill: #7f7f7f;
            }

            .cls-9 {
                fill: #dcdcdd;
            }

            .cls-10 {
                fill: url(#未命名的渐变_105);
            }

            .cls-11 {
                fill: url(#未命名的渐变_105-2);
            }

            .cls-12 {
                fill: none;
                stroke: #7f7f7f;
                stroke-width: 0.25px;
            }

            .cls-12,
            .cls-32,
            .cls-33 {
                stroke-miterlimit: 10;
            }

            .cls-13 {
                fill: #faf9f9;
            }

            .cls-14 {
                fill: url(#未命名的渐变_33-2);
            }

            .cls-15 {
                fill: url(#未命名的渐变_33-3);
            }

            .cls-16 {
                fill: url(#未命名的渐变_105-3);
            }

            .cls-17 {
                fill: url(#未命名的渐变_105-4);
            }

            .cls-18 {
                fill: url(#未命名的渐变_33-4);
            }

            .cls-19 {
                fill: url(#未命名的渐变_33-5);
            }

            .cls-20 {
                fill: url(#未命名的渐变_105-5);
            }

            .cls-21 {
                fill: url(#未命名的渐变_105-6);
            }

            .cls-22 {
                fill: url(#未命名的渐变_33-6);
            }

            .cls-23 {
                fill: #666;
            }

            .cls-24 {
                fill: #fff;
            }

            .cls-25 {
                fill: #994146;
            }

            .cls-26 {
                fill: #83c8ca;
            }

            .cls-27 {
                fill: url(#未命名的渐变_105-7);
            }

            .cls-28 {
                fill: url(#未命名的渐变_105-8);
            }

            .cls-29 {
                fill: url(#未命名的渐变_105-9);
            }

            .cls-30 {
                fill: url(#未命名的渐变_105-10);
            }

            .cls-31 {
                fill: #bbbbbc;
            }

            .cls-32,
            .cls-33 {
                fill: #e8e8e8;
                stroke: #939399;
            }

            .cls-32 {
                stroke-width: 0.1px;
            }

            .cls-33 {
                stroke-width: 0.05px;
            }

            .cls-34 {
                fill: url(#未命名的渐变_105-11);
            }

            .cls-35 {
                fill: url(#未命名的渐变_105-12);
            }

            .cls-36 {
                fill: url(#未命名的渐变_105-13);
            }

            .cls-37 {
                fill: url(#未命名的渐变_105-14);
            }

            .cls-38 {
                fill: url(#未命名的渐变_105-15);
            }

            .cls-39 {
                fill: url(#未命名的渐变_105-16);
            }

            .cls-40 {
                fill: url(#未命名的渐变_105-17);
            }

            .cls-41 {
                fill: url(#未命名的渐变_105-18);
            }

            .cls-42 {
                fill: url(#未命名的渐变_105-19);
            }

            .cls-43 {
                fill: url(#未命名的渐变_105-20);
            }

            .cls-44 {
                fill: url(#未命名的渐变_105-21);
            }

            .cls-45 {
                fill: url(#未命名的渐变_105-22);
            }

            .cls-46 {
                fill: url(#未命名的渐变_105-23);
            }

            .cls-47 {
                fill: url(#未命名的渐变_105-24);
            }

            .cls-48 {
                fill: url(#未命名的渐变_105-25);
            }

            .cls-49 {
                fill: url(#未命名的渐变_105-26);
            }

            .cls-50 {
                fill: url(#未命名的渐变_105-27);
            }

            .cls-51 {
                fill: url(#未命名的渐变_105-28);
            }

            .cls-52 {
                fill: url(#未命名的渐变_105-29);
            }

            .cls-53 {
                fill: url(#未命名的渐变_105-30);
            }

            .cls-54 {
                fill: url(#未命名的渐变_105-31);
            }

            .cls-55 {
                fill: url(#未命名的渐变_105-32);
            }

            .cls-56 {
                fill: url(#未命名的渐变_105-33);
            }

            .cls-57 {
                fill: url(#未命名的渐变_105-34);
            }

            .cls-58 {
                opacity: 0.2;
            }
        </style>
        <linearGradient id="未命名的渐变_74" x1="0.86" y1="75.37" x2="111.23" y2="75.37"
            gradientTransform="translate(-19.33 131.41) rotate(-90)" gradientUnits="userSpaceOnUse">
            <stop offset="0" stop-color="#6b6b6b" />
            <stop offset="0.01" stop-color="#767676" />
            <stop offset="0.03" stop-color="#959595" />
            <stop offset="0.04" stop-color="#aaa" />
            <stop offset="0.37" stop-color="#ccc" />
            <stop offset="0.74" stop-color="#eaeaea" />
            <stop offset="0.94" stop-color="#f6f6f6" />
            <stop offset="0.95" stop-color="#ededed" />
            <stop offset="0.96" stop-color="#d4d4d4" />
            <stop offset="0.97" stop-color="#ababab" />
            <stop offset="0.99" stop-color="#737373" />
            <stop offset="0.99" stop-color="#666" />
        </linearGradient>
        <linearGradient id="未命名的渐变_33" x1="22.06" y1="34.45" x2="34.93" y2="34.45" gradientUnits="userSpaceOnUse">
            <stop offset="0" stop-color="#b7b7b7" />
            <stop offset="0.03" stop-color="#d6d6d6" />
            <stop offset="0.04" stop-color="#e4e4e4" />
            <stop offset="0.11" stop-color="#ededed" />
            <stop offset="0.23" stop-color="#f4f4f4" />
            <stop offset="0.56" stop-color="#f6f6f6" />
            <stop offset="0.8" stop-color="#f4f4f4" />
            <stop offset="0.89" stop-color="#ededed" />
            <stop offset="0.95" stop-color="#e2e2e2" />
            <stop offset="0.97" stop-color="#dedede" />
            <stop offset="0.98" stop-color="#c8c8c8" />
            <stop offset="1" stop-color="#b3b3b3" />
        </linearGradient>
        <linearGradient id="未命名的渐变_105" x1="32.93" y1="34.77" x2="33.64" y2="34.77" gradientUnits="userSpaceOnUse">
            <stop offset="0" stop-color="#e2e2e2" />
            <stop offset="0.03" stop-color="#d0d0d0" />
            <stop offset="0.06" stop-color="#bcbcbc" />
            <stop offset="0.09" stop-color="#b5b5b5" />
            <stop offset="0.49" stop-color="#f6f6f6" />
            <stop offset="0.63" stop-color="#f3f3f3" />
            <stop offset="0.73" stop-color="#eaeaea" />
            <stop offset="0.82" stop-color="#dbdbdb" />
            <stop offset="0.9" stop-color="#c6c6c6" />
            <stop offset="0.97" stop-color="#aaa" />
            <stop offset="1" stop-color="#9b9b9b" />
        </linearGradient>
        <linearGradient id="未命名的渐变_105-2" x1="28.19" y1="39.51" x2="28.89" y2="39.51" xlink:href="#未命名的渐变_105" />
        <linearGradient id="未命名的渐变_33-2" x1="31.06" y1="37.82" x2="36.22" y2="37.82"
            gradientTransform="translate(-2.4 -0.22) rotate(-0.18)" xlink:href="#未命名的渐变_33" />
        <linearGradient id="未命名的渐变_33-3" x1="38.35" y1="34.53" x2="51.22" y2="34.53" xlink:href="#未命名的渐变_33" />
        <linearGradient id="未命名的渐变_105-3" x1="49.22" y1="34.85" x2="49.92" y2="34.85" xlink:href="#未命名的渐变_105" />
        <linearGradient id="未命名的渐变_105-4" x1="44.47" y1="39.58" x2="45.18" y2="39.58" xlink:href="#未命名的渐变_105" />
        <linearGradient id="未命名的渐变_33-4" x1="47.35" y1="37.95" x2="52.51" y2="37.95"
            gradientTransform="translate(-2.4 -0.22) rotate(-0.18)" xlink:href="#未命名的渐变_33" />
        <linearGradient id="未命名的渐变_33-5" x1="54.56" y1="34.6" x2="67.43" y2="34.6" xlink:href="#未命名的渐变_33" />
        <linearGradient id="未命名的渐变_105-5" x1="65.43" y1="34.93" x2="66.14" y2="34.93" xlink:href="#未命名的渐变_105" />
        <linearGradient id="未命名的渐变_105-6" x1="60.69" y1="39.66" x2="61.39" y2="39.66" xlink:href="#未命名的渐变_105" />
        <linearGradient id="未命名的渐变_33-6" x1="63.56" y1="38.08" x2="68.72" y2="38.08"
            gradientTransform="translate(-2.4 -0.22) rotate(-0.18)" xlink:href="#未命名的渐变_33" />
        <linearGradient id="未命名的渐变_105-7" x1="104.09" y1="19.47" x2="108.6" y2="19.47" xlink:href="#未命名的渐变_105" />
        <linearGradient id="未命名的渐变_105-8" x1="4.06" y1="19.47" x2="8.57" y2="19.47" xlink:href="#未命名的渐变_105" />
        <linearGradient id="未命名的渐变_105-9" x1="4.21" y1="132.25" x2="8.72" y2="132.25" xlink:href="#未命名的渐变_105" />
        <linearGradient id="未命名的渐变_105-10" x1="104.09" y1="132.25" x2="108.6" y2="132.25" xlink:href="#未命名的渐变_105" />
        <linearGradient id="未命名的渐变_105-11" x1="30.78" y1="81.09" x2="30.78" y2="78.06" xlink:href="#未命名的渐变_105" />
        <linearGradient id="未命名的渐变_105-12" x1="56.61" y1="81.09" x2="56.61" y2="78.06" xlink:href="#未命名的渐变_105" />
        <linearGradient id="未命名的渐变_105-13" x1="82.24" y1="81.09" x2="82.24" y2="78.06" xlink:href="#未命名的渐变_105" />
        <linearGradient id="未命名的渐变_105-14" x1="30.78" y1="88.15" x2="30.78" y2="85.12" xlink:href="#未命名的渐变_105" />
        <linearGradient id="未命名的渐变_105-15" x1="56.61" y1="88.15" x2="56.61" y2="85.12" xlink:href="#未命名的渐变_105" />
        <linearGradient id="未命名的渐变_105-16" x1="82.24" y1="88.15" x2="82.24" y2="85.12" xlink:href="#未命名的渐变_105" />
        <linearGradient id="未命名的渐变_105-17" x1="30.78" y1="95.21" x2="30.78" y2="92.18" xlink:href="#未命名的渐变_105" />
        <linearGradient id="未命名的渐变_105-18" x1="56.61" y1="95.21" x2="56.61" y2="92.18" xlink:href="#未命名的渐变_105" />
        <linearGradient id="未命名的渐变_105-19" x1="82.24" y1="95.21" x2="82.24" y2="92.18" xlink:href="#未命名的渐变_105" />
        <linearGradient id="未命名的渐变_105-20" x1="30.78" y1="102.27" x2="30.78" y2="99.23" xlink:href="#未命名的渐变_105" />
        <linearGradient id="未命名的渐变_105-21" x1="56.61" y1="102.27" x2="56.61" y2="99.23" xlink:href="#未命名的渐变_105" />
        <linearGradient id="未命名的渐变_105-22" x1="82.24" y1="102.27" x2="82.24" y2="99.23" xlink:href="#未命名的渐变_105" />
        <linearGradient id="未命名的渐变_105-23" x1="30.78" y1="109.32" x2="30.78" y2="106.29" xlink:href="#未命名的渐变_105" />
        <linearGradient id="未命名的渐变_105-24" x1="56.61" y1="109.32" x2="56.61" y2="106.29" xlink:href="#未命名的渐变_105" />
        <linearGradient id="未命名的渐变_105-25" x1="82.24" y1="109.32" x2="82.24" y2="106.29" xlink:href="#未命名的渐变_105" />
        <linearGradient id="未命名的渐变_105-26" x1="30.78" y1="116.38" x2="30.78" y2="113.35" xlink:href="#未命名的渐变_105" />
        <linearGradient id="未命名的渐变_105-27" x1="56.61" y1="116.38" x2="56.61" y2="113.35" xlink:href="#未命名的渐变_105" />
        <linearGradient id="未命名的渐变_105-28" x1="82.24" y1="116.38" x2="82.24" y2="113.35" xlink:href="#未命名的渐变_105" />
        <linearGradient id="未命名的渐变_105-29" x1="30.78" y1="123.44" x2="30.78" y2="120.41" xlink:href="#未命名的渐变_105" />
        <linearGradient id="未命名的渐变_105-30" x1="56.61" y1="123.44" x2="56.61" y2="120.41" xlink:href="#未命名的渐变_105" />
        <linearGradient id="未命名的渐变_105-31" x1="82.24" y1="123.44" x2="82.24" y2="120.41" xlink:href="#未命名的渐变_105" />
        <linearGradient id="未命名的渐变_105-32" x1="30.78" y1="130.49" x2="30.78" y2="127.46" xlink:href="#未命名的渐变_105" />
        <linearGradient id="未命名的渐变_105-33" x1="56.61" y1="130.49" x2="56.61" y2="127.46" xlink:href="#未命名的渐变_105" />
        <linearGradient id="未命名的渐变_105-34" x1="82.24" y1="130.49" x2="82.24" y2="127.46" xlink:href="#未命名的渐变_105" />
    </defs>
    <title>Diesel generator（柴油发电机）</title>
    <g id="图层_2" data-name="图层 2">
        <g id="图层_59" data-name="图层 59">
            <g id="Diesel_generator_柴油发电机_" data-name="Diesel generator（柴油发电机）">
                <rect class="cls-1" x="-6.12" y="20.19" width="124.33" height="110.37"
                    transform="translate(131.41 19.33) rotate(90)" />
                <rect class="cls-2" x="30.72" y="-7.09" width="50.67" height="90.98"
                    transform="translate(94.45 -17.66) rotate(90)" />
                <rect class="cls-3" x="15.85" y="23.09" width="80.21" height="30.13" rx="1.69" />
                <rect class="cls-4" x="19.5" y="25.87" width="72.92" height="24.36" rx="0.56" />
                <rect class="cls-2" x="23.16" y="58.86" width="65.79" height="90.98"
                    transform="translate(160.41 48.3) rotate(90)" />
                <rect class="cls-5" x="50.18" y="87.06" width="12.03" height="112.4"
                    transform="translate(199.46 87.06) rotate(90)" />
                <polygon class="cls-6"
                    points="0.86 13.06 0.86 7.04 7.28 0 104.05 0 110.94 7.04 110.94 13.06 0.86 13.06" />
                <rect class="cls-7" x="22.06" y="27.93" width="12.87" height="13.04" />
                <path class="cls-8"
                    d="M34,28.81H23a.11.11,0,0,0-.12.11V40.16a.12.12,0,0,0,.12.12h6.87l4.32-4.2V28.92A.11.11,0,0,0,34,28.81Z" />
                <path class="cls-9"
                    d="M33.79,29H23.18a.11.11,0,0,0-.11.11V39.91a.11.11,0,0,0,.11.11h6.58l4.14-4V29.14A.11.11,0,0,0,33.79,29Z" />
                <circle class="cls-10" cx="33.28" cy="34.77" r="0.35" />
                <circle class="cls-11" cx="28.54" cy="39.51" r="0.35" />
                <line class="cls-12" x1="28.19" y1="30.52" x2="28.84" y2="31.45" />
                <line class="cls-12" x1="31.78" y1="29.96" x2="31.79" y2="31.09" />
                <line class="cls-12" x1="24.68" y1="34.21" x2="25.7" y2="34.71" />
                <line class="cls-12" x1="24.22" y1="37.46" x2="25.35" y2="37.49" />
                <rect class="cls-13" x="23.6" y="29.65" width="3.59" height="1.33" />
                <polygon class="cls-8" points="26.03 31.63 29.9 36.18 30.32 35.7 26.03 31.63" />
                <path class="cls-14" d="M33.94,35.81A3,3,0,0,0,28.79,38a3,3,0,0,0,.79,2Z" />
                <rect class="cls-15" x="38.35" y="28.01" width="12.87" height="13.04" />
                <path class="cls-8"
                    d="M50.31,28.88H39.23a.12.12,0,0,0-.11.12V40.24a.11.11,0,0,0,.11.12h6.88l4.32-4.21V29A.13.13,0,0,0,50.31,28.88Z" />
                <path class="cls-9"
                    d="M50.08,29.11H39.47a.11.11,0,0,0-.12.11V40a.11.11,0,0,0,.12.11h6.58l4.14-4V29.22A.11.11,0,0,0,50.08,29.11Z" />
                <circle class="cls-16" cx="49.57" cy="34.85" r="0.35" />
                <circle class="cls-17" cx="44.83" cy="39.58" r="0.35" />
                <line class="cls-12" x1="44.48" y1="30.6" x2="45.13" y2="31.53" />
                <line class="cls-12" x1="48.07" y1="30.03" x2="48.08" y2="31.17" />
                <line class="cls-12" x1="40.97" y1="34.29" x2="41.99" y2="34.78" />
                <line class="cls-12" x1="40.5" y1="37.54" x2="41.64" y2="37.57" />
                <rect class="cls-13" x="39.89" y="29.73" width="3.59" height="1.33" />
                <polygon class="cls-8" points="42.31 31.7 46.19 36.26 46.61 35.78 42.31 31.7" />
                <path class="cls-18" d="M50.22,35.89A3,3,0,0,0,48.1,35a3,3,0,0,0-3,3,3.07,3.07,0,0,0,.8,2Z" />
                <rect class="cls-19" x="54.56" y="28.08" width="12.87" height="13.04" />
                <path class="cls-8"
                    d="M66.52,29H55.45a.12.12,0,0,0-.12.12V40.32a.12.12,0,0,0,.12.12h6.87l4.32-4.21V29.08A.12.12,0,0,0,66.52,29Z" />
                <path class="cls-9"
                    d="M66.29,29.19H55.68a.11.11,0,0,0-.11.11V40.07a.11.11,0,0,0,.11.11h6.58l4.14-4V29.3A.11.11,0,0,0,66.29,29.19Z" />
                <circle class="cls-20" cx="65.78" cy="34.93" r="0.35" />
                <circle class="cls-21" cx="61.04" cy="39.66" r="0.35" />
                <line class="cls-12" x1="60.69" y1="30.68" x2="61.35" y2="31.61" />
                <line class="cls-12" x1="64.28" y1="30.11" x2="64.29" y2="31.25" />
                <line class="cls-12" x1="57.18" y1="34.37" x2="58.21" y2="34.86" />
                <line class="cls-12" x1="56.72" y1="37.62" x2="57.85" y2="37.64" />
                <rect class="cls-13" x="56.11" y="29.81" width="3.59" height="1.33" />
                <polygon class="cls-8" points="58.53 31.78 62.4 36.33 62.83 35.86 58.53 31.78" />
                <path class="cls-22" d="M66.44,36a3,3,0,0,0-2.13-.86,3,3,0,0,0-3,3,3,3,0,0,0,.79,2Z" />
                <circle class="cls-23" cx="34.33" cy="46.33" r="2.31" />
                <circle class="cls-24" cx="34.33" cy="46.33" r="1.98" />
                <circle class="cls-25" cx="34.33" cy="46.33" r="1.64" />
                <circle class="cls-23" cx="54.21" cy="46.33" r="2.31" />
                <circle class="cls-24" cx="54.21" cy="46.33" r="1.98" />
                <circle class="cls-25" cx="54.21" cy="46.33" r="1.64" />
                <circle class="cls-23" cx="44.24" cy="46.33" r="2.31" />
                <circle class="cls-24" cx="44.24" cy="46.33" r="1.98" />
                <circle class="cls-26" cx="44.24" cy="46.33" r="1.64" />
                <circle class="cls-27" cx="106.34" cy="19.47" r="2.26" />
                <rect x="104.69" y="19.15" width="3.3" height="0.64" rx="0.05"
                    transform="translate(44.92 -69.49) rotate(45)" />
                <rect x="104.69" y="19.15" width="3.3" height="0.64" rx="0.05"
                    transform="translate(17.38 80.9) rotate(-45)" />
                <circle class="cls-28" cx="6.31" cy="19.47" r="2.26" />
                <rect x="4.67" y="19.15" width="3.3" height="0.64" rx="0.05"
                    transform="translate(15.62 1.24) rotate(45)" />
                <rect x="4.67" y="19.15" width="3.3" height="0.64" rx="0.05"
                    transform="translate(-11.92 10.17) rotate(-45)" />
                <circle class="cls-29" cx="6.46" cy="132.25" r="2.26" />
                <rect x="4.81" y="131.94" width="3.3" height="0.64" rx="0.05"
                    transform="translate(95.41 34.17) rotate(45)" />
                <rect x="4.81" y="131.94" width="3.3" height="0.64" rx="0.05"
                    transform="translate(-91.63 43.31) rotate(-45)" />
                <circle class="cls-30" cx="106.34" cy="132.25" r="2.26" />
                <rect x="104.69" y="131.94" width="3.3" height="0.64" rx="0.05"
                    transform="translate(124.67 -36.46) rotate(45)" />
                <rect x="104.69" y="131.94" width="3.3" height="0.64" rx="0.05"
                    transform="translate(-62.37 113.93) rotate(-45)" />
                <circle class="cls-31" cx="73.62" cy="38.98" r="4.62" />
                <circle class="cls-32" cx="73.62" cy="38.98" r="3.76" />
                <rect class="cls-33" x="71.82" y="41.05" width="3.6" height="0.66" />
                <rect class="cls-31" x="76.28" y="38.52" width="0.43" height="0.92"
                    transform="translate(115.48 -37.51) rotate(90)" />
                <rect class="cls-31" x="75.44" y="36.49" width="0.43" height="0.92"
                    transform="translate(48.29 -42.67) rotate(45)" />
                <rect class="cls-31" x="73.41" y="35.65" width="0.43" height="0.92" />
                <rect class="cls-31" x="71.38" y="36.49" width="0.43" height="0.92"
                    transform="translate(-5.16 61.45) rotate(-45)" />
                <rect class="cls-31" x="70.54" y="38.52" width="0.43" height="0.92"
                    transform="translate(31.77 109.73) rotate(-90)" />
                <polygon class="cls-8" points="72.94 41.31 72.27 40.98 74.98 36.23 72.94 41.31" />
                <circle class="cls-31" cx="73.62" cy="38.98" r="0.65" />
                <circle class="cls-31" cx="86.65" cy="38.77" r="4.62" />
                <circle class="cls-32" cx="86.65" cy="38.77" r="3.76" />
                <rect class="cls-33" x="84.85" y="40.83" width="3.6" height="0.66" />
                <rect class="cls-31" x="89.31" y="38.31" width="0.43" height="0.92"
                    transform="translate(128.29 -50.75) rotate(90)" />
                <rect class="cls-31" x="88.47" y="36.28" width="0.43" height="0.92"
                    transform="translate(51.95 -51.95) rotate(45)" />
                <rect class="cls-31" x="86.44" y="35.43" width="0.43" height="0.92" />
                <rect class="cls-31" x="84.4" y="36.28" width="0.43" height="0.92"
                    transform="translate(-1.19 70.6) rotate(-45)" />
                <rect class="cls-31" x="83.56" y="38.31" width="0.43" height="0.92"
                    transform="translate(45.01 122.55) rotate(-90)" />
                <polygon class="cls-8" points="85.97 41.09 85.3 40.77 88 36.02 85.97 41.09" />
                <circle class="cls-31" cx="86.65" cy="38.77" r="0.65" />
                <rect class="cls-34" x="24.44" y="78.06" width="12.69" height="3.03" rx="0.32" />
                <rect class="cls-35" x="50.26" y="78.06" width="12.69" height="3.03" rx="0.32" />
                <rect class="cls-36" x="75.89" y="78.06" width="12.69" height="3.03" rx="0.32" />
                <rect class="cls-37" x="24.44" y="85.12" width="12.69" height="3.03" rx="0.32" />
                <rect class="cls-38" x="50.26" y="85.12" width="12.69" height="3.03" rx="0.32" />
                <rect class="cls-39" x="75.89" y="85.12" width="12.69" height="3.03" rx="0.32" />
                <rect class="cls-40" x="24.44" y="92.18" width="12.69" height="3.03" rx="0.32" />
                <rect class="cls-41" x="50.26" y="92.18" width="12.69" height="3.03" rx="0.32" />
                <rect class="cls-42" x="75.89" y="92.18" width="12.69" height="3.03" rx="0.32" />
                <rect class="cls-43" x="24.44" y="99.23" width="12.69" height="3.03" rx="0.32" />
                <rect class="cls-44" x="50.26" y="99.23" width="12.69" height="3.03" rx="0.32" />
                <rect class="cls-45" x="75.89" y="99.23" width="12.69" height="3.03" rx="0.32" />
                <rect class="cls-46" x="24.44" y="106.29" width="12.69" height="3.03" rx="0.32" />
                <rect class="cls-47" x="50.26" y="106.29" width="12.69" height="3.03" rx="0.32" />
                <rect class="cls-48" x="75.89" y="106.29" width="12.69" height="3.03" rx="0.32" />
                <rect class="cls-49" x="24.44" y="113.35" width="12.69" height="3.03" rx="0.32" />
                <rect class="cls-50" x="50.26" y="113.35" width="12.69" height="3.03" rx="0.32" />
                <rect class="cls-51" x="75.89" y="113.35" width="12.69" height="3.03" rx="0.32" />
                <rect class="cls-52" x="24.44" y="120.41" width="12.69" height="3.03" rx="0.32" />
                <rect class="cls-53" x="50.26" y="120.41" width="12.69" height="3.03" rx="0.32" />
                <rect class="cls-54" x="75.89" y="120.41" width="12.69" height="3.03" rx="0.32" />
                <rect class="cls-55" x="24.44" y="127.46" width="12.69" height="3.03" rx="0.32" />
                <rect class="cls-56" x="50.26" y="127.46" width="12.69" height="3.03" rx="0.32" />
                <rect class="cls-57" x="75.89" y="127.46" width="12.69" height="3.03" rx="0.32" />
                
            </g>
        </g>
    </g>
</svg>