<svg xmlns="http://www.w3.org/2000/svg" xmlns:xlink="http://www.w3.org/1999/xlink" viewBox="0 0 149.9 87.74">
    <defs>
        <style>
            .cls-1 {
                fill: url(#未命名的渐变_74);
            }

            .cls-2 {
                fill: url(#未命名的渐变_74-2);
            }

            .cls-3 {
                fill: url(#未命名的渐变_67);
            }

            .cls-4 {
                fill: url(#未命名的渐变_74-3);
            }

            .cls-5 {
                fill: url(#未命名的渐变_67-2);
            }

            .cls-6 {
                fill: url(#未命名的渐变_67-3);
            }

            .cls-7 {
                fill: url(#未命名的渐变_67-4);
            }

            .cls-8 {
                fill: url(#未命名的渐变_67-5);
            }

            .cls-9 {
                fill: url(#未命名的渐变_67-6);
            }

            .cls-10 {
                fill: url(#未命名的渐变_67-7);
            }

            .cls-11 {
                fill: url(#未命名的渐变_74-4);
            }

            .cls-12 {
                fill: #595757;
            }

            .cls-13 {
                fill: url(#未命名的渐变_85);
            }

            .cls-14 {
                fill: #c3c3c3;
            }

            .cls-15 {
                fill: #939393;
            }

            .cls-16 {
                fill: url(#未命名的渐变_67-8);
            }

            .cls-17 {
                fill: url(#未命名的渐变_67-9);
            }

            .cls-18 {
                fill: url(#未命名的渐变_67-10);
            }

            .cls-19 {
                fill: url(#未命名的渐变_67-11);
            }

            .cls-20 {
                fill: url(#未命名的渐变_67-12);
            }

            .cls-21 {
                fill: url(#未命名的渐变_67-13);
            }

            .cls-22 {
                fill: url(#未命名的渐变_67-14);
            }

            .cls-23 {
                fill: url(#未命名的渐变_67-15);
            }

            .cls-24 {
                fill: url(#未命名的渐变_67-16);
            }

            .cls-25 {
                fill: url(#未命名的渐变_67-17);
            }

            .cls-26 {
                fill: url(#未命名的渐变_67-18);
            }

            .cls-27 {
                fill: url(#未命名的渐变_67-19);
            }

            .cls-28 {
                fill: url(#未命名的渐变_67-20);
            }

            .cls-29 {
                fill: url(#未命名的渐变_67-21);
            }

            .cls-30 {
                fill: #e6e6e6;
            }

            .cls-31 {
                fill: url(#未命名的渐变_67-22);
            }

            .cls-32 {
                fill: url(#未命名的渐变_67-23);
            }

            .cls-33 {
                fill: url(#未命名的渐变_67-24);
            }

            .cls-34 {
                fill: url(#未命名的渐变_67-25);
            }

            .cls-35 {
                fill: url(#未命名的渐变_67-26);
            }

            .cls-36 {
                fill: url(#未命名的渐变_67-27);
            }

            .cls-37 {
                fill: url(#未命名的渐变_67-28);
            }

            .cls-38 {
                fill: url(#未命名的渐变_67-29);
            }

            .cls-39 {
                fill: url(#未命名的渐变_67-30);
            }

            .cls-40 {
                fill: url(#未命名的渐变_67-31);
            }

            .cls-41 {
                fill: url(#未命名的渐变_67-32);
            }

            .cls-42 {
                opacity: 0.2;
            }
        </style>
        <linearGradient id="未命名的渐变_74" x1="9.83" y1="29.27" x2="71.16" y2="29.27"
            gradientTransform="translate(11.23 69.76) rotate(-90)" gradientUnits="userSpaceOnUse">
            <stop offset="0" stop-color="#6b6b6b" />
            <stop offset="0.01" stop-color="#767676" />
            <stop offset="0.03" stop-color="#959595" />
            <stop offset="0.04" stop-color="#aaa" />
            <stop offset="0.37" stop-color="#ccc" />
            <stop offset="0.74" stop-color="#eaeaea" />
            <stop offset="0.94" stop-color="#f6f6f6" />
            <stop offset="0.95" stop-color="#ededed" />
            <stop offset="0.96" stop-color="#d4d4d4" />
            <stop offset="0.97" stop-color="#ababab" />
            <stop offset="0.99" stop-color="#737373" />
            <stop offset="0.99" stop-color="#666" />
        </linearGradient>
        <linearGradient id="未命名的渐变_74-2" x1="9.83" y1="44.01" x2="68.89" y2="44.01"
            gradientTransform="translate(-4.65 83.37) rotate(-90)" xlink:href="#未命名的渐变_74" />
        <linearGradient id="未命名的渐变_67" x1="-360.07" y1="566.58" x2="-338.12" y2="566.58"
            gradientTransform="translate(421.4 -535.1)" gradientUnits="userSpaceOnUse">
            <stop offset="0" stop-color="#6b6b6b" />
            <stop offset="0.11" stop-color="#767676" />
            <stop offset="0.3" stop-color="#959595" />
            <stop offset="0.41" stop-color="#aaa" />
            <stop offset="0.56" stop-color="#ccc" />
            <stop offset="0.71" stop-color="#eaeaea" />
            <stop offset="0.8" stop-color="#f6f6f6" />
            <stop offset="0.83" stop-color="#ededed" />
            <stop offset="0.87" stop-color="#d4d4d4" />
            <stop offset="0.92" stop-color="#ababab" />
            <stop offset="0.98" stop-color="#737373" />
            <stop offset="0.99" stop-color="#666" />
        </linearGradient>
        <linearGradient id="未命名的渐变_74-3" x1="50.63" y1="37.8" x2="50.63" y2="23.5"
            gradientTransform="translate(19.98 81.28) rotate(-90)" xlink:href="#未命名的渐变_74" />
        <linearGradient id="未命名的渐变_67-2" x1="76.63" y1="44.45" x2="76.63" y2="19"
            gradientTransform="translate(44.9 108.36) rotate(-90)" xlink:href="#未命名的渐变_67" />
        <linearGradient id="未命名的渐变_67-3" x1="100.74" y1="46.12" x2="100.74" y2="16.54"
            gradientTransform="matrix(1, 0, 0, 1, 0, 0)" xlink:href="#未命名的渐变_67" />
        <linearGradient id="未命名的渐变_67-4" x1="76.81" y1="19.45" x2="76.81" y2="17.23"
            gradientTransform="translate(58.47 95.15) rotate(-90)" xlink:href="#未命名的渐变_67" />
        <linearGradient id="未命名的渐变_67-5" x1="76.81" y1="28.19" x2="76.81" y2="25.98"
            gradientTransform="translate(49.72 103.89) rotate(-90)" xlink:href="#未命名的渐变_67" />
        <linearGradient id="未命名的渐变_67-6" x1="76.81" y1="37" x2="76.81" y2="34.79"
            gradientTransform="translate(40.91 112.7) rotate(-90)" xlink:href="#未命名的渐变_67" />
        <linearGradient id="未命名的渐变_67-7" x1="76.81" y1="45.81" x2="76.81" y2="43.6"
            gradientTransform="translate(32.1 121.51) rotate(-90)" xlink:href="#未命名的渐变_67" />
        <linearGradient id="未命名的渐变_74-4" x1="39.52" y1="20.79" x2="39.52" y2="5.05"
            gradientTransform="translate(26.6 52.44) rotate(-90)" xlink:href="#未命名的渐变_74" />
        <linearGradient id="未命名的渐变_85" x1="9.83" y1="43.75" x2="68.89" y2="43.75"
            gradientTransform="translate(-4.39 83.11) rotate(-90)" gradientUnits="userSpaceOnUse">
            <stop offset="0" stop-color="#6b6b6b" />
            <stop offset="0.11" stop-color="#767676" />
            <stop offset="0.3" stop-color="#959595" />
            <stop offset="0.41" stop-color="#aaa" />
            <stop offset="0.68" stop-color="#acacac" />
            <stop offset="0.78" stop-color="#b3b3b3" />
            <stop offset="0.85" stop-color="#bebebe" />
            <stop offset="0.91" stop-color="#cfcfcf" />
            <stop offset="0.95" stop-color="#e5e5e5" />
            <stop offset="0.99" stop-color="#f6f6f6" />
            <stop offset="0.99" stop-color="#ededed" />
            <stop offset="0.99" stop-color="#d4d4d4" />
            <stop offset="0.99" stop-color="#adadad" />
        </linearGradient>
        <linearGradient id="未命名的渐变_67-8" x1="96.19" y1="22.45" x2="96.19" y2="21.41"
            gradientTransform="translate(74.26 118.12) rotate(-90)" xlink:href="#未命名的渐变_67" />
        <linearGradient id="未命名的渐变_67-9" x1="96.19" y1="24.54" x2="96.19" y2="23.5"
            gradientTransform="translate(72.17 120.21) rotate(-90)" xlink:href="#未命名的渐变_67" />
        <linearGradient id="未命名的渐变_67-10" x1="96.19" y1="26.64" x2="96.19" y2="25.6"
            gradientTransform="translate(70.07 122.31) rotate(-90)" xlink:href="#未命名的渐变_67" />
        <linearGradient id="未命名的渐变_67-11" x1="96.19" y1="28.73" x2="96.19" y2="27.69"
            gradientTransform="translate(67.98 124.4) rotate(-90)" xlink:href="#未命名的渐变_67" />
        <linearGradient id="未命名的渐变_67-12" x1="96.19" y1="30.82" x2="96.19" y2="29.78"
            gradientTransform="translate(65.89 126.49) rotate(-90)" xlink:href="#未命名的渐变_67" />
        <linearGradient id="未命名的渐变_67-13" x1="96.19" y1="32.92" x2="96.19" y2="31.88"
            gradientTransform="translate(63.79 128.59) rotate(-90)" xlink:href="#未命名的渐变_67" />
        <linearGradient id="未命名的渐变_67-14" x1="96.19" y1="35.01" x2="96.19" y2="33.97"
            gradientTransform="translate(61.7 130.68) rotate(-90)" xlink:href="#未命名的渐变_67" />
        <linearGradient id="未命名的渐变_67-15" x1="96.19" y1="37.1" x2="96.19" y2="36.06"
            gradientTransform="translate(59.61 132.77) rotate(-90)" xlink:href="#未命名的渐变_67" />
        <linearGradient id="未命名的渐变_67-16" x1="96.19" y1="39.2" x2="96.19" y2="38.16"
            gradientTransform="translate(57.51 134.87) rotate(-90)" xlink:href="#未命名的渐变_67" />
        <linearGradient id="未命名的渐变_67-17" x1="96.19" y1="41.29" x2="96.19" y2="40.25"
            gradientTransform="translate(55.42 136.96) rotate(-90)" xlink:href="#未命名的渐变_67" />
        <linearGradient id="未命名的渐变_67-18" x1="96.19" y1="43.38" x2="96.19" y2="42.34"
            gradientTransform="translate(53.33 139.05) rotate(-90)" xlink:href="#未命名的渐变_67" />
        <linearGradient id="未命名的渐变_67-19" x1="96.19" y1="45.74" x2="96.19" y2="44.7"
            gradientTransform="translate(50.97 141.41) rotate(-90)" xlink:href="#未命名的渐变_67" />
        <linearGradient id="未命名的渐变_67-20" x1="96.13" y1="18.34" x2="96.13" y2="17.3"
            gradientTransform="translate(78.32 113.95) rotate(-90)" xlink:href="#未命名的渐变_67" />
        <linearGradient id="未命名的渐变_67-21" x1="96.13" y1="20.49" x2="96.13" y2="19.45"
            gradientTransform="translate(76.17 116.1) rotate(-90)" xlink:href="#未命名的渐变_67" />
        <linearGradient id="未命名的渐变_67-22" x1="32" y1="29.29" x2="35.36" y2="29.29"
            gradientTransform="matrix(1, 0, 0, 1, 0, 0)" xlink:href="#未命名的渐变_67" />
        <linearGradient id="未命名的渐变_67-23" x1="-342.79" y1="599.41" x2="-339.21" y2="599.41"
            gradientTransform="translate(380.47 -559.83)" xlink:href="#未命名的渐变_67" />
        <linearGradient id="未命名的渐变_67-24" x1="-355.26" y1="623.89" x2="-345.93" y2="623.89"
            gradientTransform="translate(365.59 -593.9)" xlink:href="#未命名的渐变_67" />
        <linearGradient id="未命名的渐变_67-25" x1="-355.66" y1="629.82" x2="-345.29" y2="629.82"
            gradientTransform="translate(359.54 -599.71)" xlink:href="#未命名的渐变_67" />
        <linearGradient id="未命名的渐变_67-26" x1="-376.44" y1="631.02" x2="-358.63" y2="631.02"
            gradientTransform="translate(375.4 -617.97)" xlink:href="#未命名的渐变_67" />
        <linearGradient id="未命名的渐变_67-27" x1="-353.97" y1="613.58" x2="-347.15" y2="613.58"
            gradientTransform="translate(375.86 -583.56)" xlink:href="#未命名的渐变_67" />
        <linearGradient id="未命名的渐变_67-28" x1="-372.69" y1="558.11" x2="-372.69" y2="540.5"
            gradientTransform="translate(462.27 -541.4)" xlink:href="#未命名的渐变_67" />
        <linearGradient id="未命名的渐变_67-29" x1="191.07" y1="987.81" x2="191.07" y2="957.79"
            gradientTransform="translate(-110.37 -941.35)" xlink:href="#未命名的渐变_67" />
        <linearGradient id="未命名的渐变_67-30" x1="154.67" y1="987.78" x2="154.67" y2="957.75"
            gradientTransform="translate(-37.57 -941.28)" xlink:href="#未命名的渐变_67" />
        <linearGradient id="未命名的渐变_67-31" x1="-374.02" y1="558.11" x2="-374.02" y2="540.5"
            gradientTransform="translate(463.6 -542.73)" xlink:href="#未命名的渐变_67" />
        <linearGradient id="未命名的渐变_67-32" x1="-379.8" y1="562.81" x2="-379.8" y2="534.13"
            gradientTransform="translate(470.21 -547.69)" xlink:href="#未命名的渐变_67" />
    </defs>
    <title>Diesel backed UPS system（柴油备用系统）</title>
    <g id="图层_2" data-name="图层 2">
        <g id="图层_59" data-name="图层 59">
            <g id="Diesel_backed_UPS_system_柴油备用系统_" data-name="Diesel backed UPS system（柴油备用系统）">
                <rect class="cls-1" x="32.02" y="-1.4" width="16.95" height="61.33"
                    transform="translate(69.76 -11.23) rotate(90)" />
                <rect class="cls-2" x="30.62" y="14.48" width="17.47" height="59.06"
                    transform="translate(83.37 4.65) rotate(90)" />
                <rect class="cls-3" x="61.33" y="28.08" width="21.95" height="6.83"
                    transform="translate(103.79 -40.81) rotate(90)" />
                <rect class="cls-4" x="43.48" y="10.69" width="14.3" height="39.93"
                    transform="translate(81.28 -19.98) rotate(90)" />
                <rect class="cls-5" x="63.9" y="30.81" width="25.45" height="1.83"
                    transform="translate(108.36 -44.9) rotate(90)" />
                <path class="cls-6" d="M77.54,46.12V16.54h39.93s6.46,1.8,6.46,14.79c0,13.37-6.46,14.79-6.46,14.79Z" />
                <rect class="cls-7" x="75.7" y="17.6" width="2.22" height="1.47"
                    transform="translate(95.15 -58.47) rotate(90)" />
                <rect class="cls-8" x="75.7" y="26.35" width="2.22" height="1.47"
                    transform="translate(103.89 -49.72) rotate(90)" />
                <rect class="cls-9" x="75.7" y="35.16" width="2.22" height="1.47"
                    transform="translate(112.7 -40.91) rotate(90)" />
                <rect class="cls-10" x="75.7" y="43.97" width="2.22" height="1.47"
                    transform="translate(121.51 -32.1) rotate(90)" />
                <rect class="cls-11" x="31.65" y="-17.74" width="15.74" height="61.33"
                    transform="translate(52.44 -26.6) rotate(90)" />
                <rect class="cls-12" x="57.74" y="-4.43" width="34.42" height="149.9"
                    transform="translate(145.48 -4.43) rotate(90)" />
                <rect class="cls-13" x="36.99" y="14.22" width="4.74" height="59.06"
                    transform="translate(83.11 4.39) rotate(90)" />
                <rect class="cls-14" x="89.46" y="-10.05" width="1.84" height="25.1"
                    transform="translate(92.88 -87.89) rotate(90)" />
                <rect class="cls-14" x="94.15" y="35.36" width="3.69" height="25.59"
                    transform="translate(144.15 -47.85) rotate(90)" />
                <rect class="cls-14" x="84.83" y="0.05" width="9.51" height="16.24"
                    transform="translate(97.75 -81.41) rotate(90)" />
                <rect class="cls-15" x="89.26" y="6.29" width="0.64" height="13.84"
                    transform="translate(102.8 -76.36) rotate(90)" />
                <rect class="cls-16" x="95.67" y="8.45" width="1.04" height="26.95"
                    transform="translate(118.12 -74.26) rotate(90)" />
                <rect class="cls-17" x="95.67" y="10.55" width="1.04" height="26.95"
                    transform="translate(120.21 -72.17) rotate(90)" />
                <rect class="cls-18" x="95.67" y="12.64" width="1.04" height="26.95"
                    transform="translate(122.31 -70.07) rotate(90)" />
                <rect class="cls-19" x="95.67" y="14.73" width="1.04" height="26.95"
                    transform="translate(124.4 -67.98) rotate(90)" />
                <rect class="cls-20" x="95.67" y="16.83" width="1.04" height="26.95"
                    transform="translate(126.49 -65.89) rotate(90)" />
                <rect class="cls-21" x="95.67" y="18.92" width="1.04" height="26.95"
                    transform="translate(128.59 -63.79) rotate(90)" />
                <rect class="cls-22" x="95.67" y="21.01" width="1.04" height="26.95"
                    transform="translate(130.68 -61.7) rotate(90)" />
                <rect class="cls-23" x="95.67" y="23.11" width="1.04" height="26.95"
                    transform="translate(132.77 -59.61) rotate(90)" />
                <rect class="cls-24" x="95.67" y="25.2" width="1.04" height="26.95"
                    transform="translate(134.87 -57.51) rotate(90)" />
                <rect class="cls-25" x="95.67" y="27.29" width="1.04" height="26.95"
                    transform="translate(136.96 -55.42) rotate(90)" />
                <rect class="cls-26" x="95.67" y="29.39" width="1.04" height="26.95"
                    transform="translate(139.05 -53.33) rotate(90)" />
                <rect class="cls-27" x="95.67" y="31.75" width="1.04" height="26.95"
                    transform="translate(141.41 -50.97) rotate(90)" />
                <rect class="cls-28" x="95.61" y="4.34" width="1.04" height="26.95"
                    transform="translate(113.95 -78.32) rotate(90)" />
                <rect class="cls-29" x="95.61" y="6.49" width="1.04" height="26.95"
                    transform="translate(116.1 -76.17) rotate(90)" />
                <rect class="cls-30" x="95.26" y="37.95" width="1.49" height="25.59"
                    transform="translate(146.75 -45.26) rotate(90)" />
                <rect class="cls-30" x="95.07" y="32.47" width="1.86" height="25.59"
                    transform="translate(141.27 -50.74) rotate(90)" />
                <rect class="cls-14" x="39.85" y="-9.54" width="0.31" height="60.36"
                    transform="translate(60.64 -19.38) rotate(90)" />
                <rect class="cls-14" x="50.42" y="3.4" width="0.31" height="40.21"
                    transform="translate(74.08 -27.07) rotate(90)" />
                <rect class="cls-31" x="32" y="20.79" width="3.36" height="17.01" />
                <rect class="cls-32" x="37.68" y="10.17" width="3.58" height="58.83"
                    transform="translate(79.06 0.11) rotate(90)" />
                <rect class="cls-33" x="10.33" y="25.05" width="9.34" height="9.88"
                    transform="translate(44.99 14.99) rotate(90)" />
                <rect class="cls-34" x="3.88" y="29.12" width="10.37" height="1.98" rx="0.26"
                    transform="translate(39.18 21.05) rotate(90)" />
                <rect class="cls-35" x="-1.04" y="12.06" width="17.81" height="1.98" rx="0.26"
                    transform="translate(20.92 5.19) rotate(90)" />
                <rect class="cls-36" x="21.89" y="24.66" width="6.83" height="10.73"
                    transform="translate(55.33 4.72) rotate(90)" />
                <rect class="cls-37" x="89.03" y="-0.91" width="1.1" height="17.61" rx="0.14"
                    transform="translate(97.48 -81.69) rotate(90)" />
                <rect class="cls-38" x="80.36" y="16.44" width="0.69" height="30.03"
                    transform="translate(161.41 62.91) rotate(-180)" />
                <rect class="cls-30" x="109.67" y="16.48" width="0.6" height="30.03"
                    transform="translate(219.93 62.98) rotate(-180)" />
                <rect class="cls-39" x="116.76" y="16.48" width="0.69" height="30.03"
                    transform="translate(234.21 62.98) rotate(-180)" />
                <rect class="cls-40" x="89.03" y="-2.24" width="1.1" height="17.61" rx="0.14"
                    transform="translate(96.15 -83.02) rotate(90)" />
                <rect class="cls-41" x="89.62" y="-13.55" width="1.58" height="28.68" rx="0.14"
                    transform="translate(91.2 -89.62) rotate(90)" />
                <rect class="cls-14" x="87.24" y="8.94" width="4.65" height="13.84"
                    transform="translate(105.42 -73.7) rotate(90)" />
                <rect class="cls-30" x="6.89" y="57.14" width="25.1" height="26.77"
                    transform="translate(89.96 51.09) rotate(90)" />
                <rect class="cls-30" x="43.3" y="57.14" width="25.1" height="26.77"
                    transform="translate(126.38 14.67) rotate(90)" />
                <rect class="cls-30" x="80.69" y="57.14" width="25.1" height="26.77"
                    transform="translate(163.76 -22.72) rotate(90)" />
                <rect class="cls-30" x="117.92" y="57.14" width="25.1" height="26.77"
                    transform="translate(200.99 -59.94) rotate(90)" />
                
            </g>
        </g>
    </g>
</svg>