<svg xmlns="http://www.w3.org/2000/svg" xmlns:xlink="http://www.w3.org/1999/xlink" viewBox="0 0 150 59.79">
    <defs>
        <style>
            .cls-1 {
                fill: #bbb;
            }

            .cls-2 {
                fill: #4f4d4d;
            }

            .cls-3 {
                fill: #424242;
            }

            .cls-4 {
                fill: #c1c1c1;
            }

            .cls-5 {
                fill: url(#未命名的渐变_67);
            }

            .cls-6 {
                fill: url(#未命名的渐变_67-2);
            }

            .cls-7 {
                fill: url(#未命名的渐变_67-3);
            }

            .cls-8 {
                opacity: 0.2;
            }
        </style>
        <linearGradient id="未命名的渐变_67" x1="131.3" y1="43.1" x2="131.3" y2="14.52" gradientUnits="userSpaceOnUse">
            <stop offset="0" stop-color="#6b6b6b" />
            <stop offset="0.11" stop-color="#767676" />
            <stop offset="0.3" stop-color="#959595" />
            <stop offset="0.41" stop-color="#aaa" />
            <stop offset="0.56" stop-color="#ccc" />
            <stop offset="0.71" stop-color="#eaeaea" />
            <stop offset="0.8" stop-color="#f6f6f6" />
            <stop offset="0.83" stop-color="#ededed" />
            <stop offset="0.87" stop-color="#d4d4d4" />
            <stop offset="0.92" stop-color="#ababab" />
            <stop offset="0.98" stop-color="#737373" />
            <stop offset="0.99" stop-color="#666" />
        </linearGradient>
        <linearGradient id="未命名的渐变_67-2" x1="136.65" y1="39.92" x2="136.65" y2="17.59" xlink:href="#未命名的渐变_67" />
        <linearGradient id="未命名的渐变_67-3" x1="144.92" y1="37.57" x2="144.92" y2="20.02" xlink:href="#未命名的渐变_67" />
    </defs>
    <title>Electrolyzer（电解槽）</title>
    <g id="图层_2" data-name="图层 2">
        <g id="图层_59" data-name="图层 59">
            <g id="Electrolyzer_电解槽_" data-name="Electrolyzer（电解槽）">
                <polygon class="cls-1"
                    points="84.88 6.27 62.64 6.27 54.05 0 46.34 8.84 64.76 12.1 64.82 10.9 84.88 10.9 84.88 6.27" />
                <rect class="cls-2" x="43.58" y="8.59" width="43.33" height="4.63" />
                <polygon class="cls-3"
                    points="129.07 45.02 129.07 12.1 0 12.1 0 54.34 129.07 54.34 145.4 54.34 145.4 45.02 129.07 45.02" />
                <rect class="cls-4" x="9.4" y="19.37" width="113.61" height="29.08" />
                <rect class="cls-2" y="54.34" width="145.4" height="5.45" />
                <rect class="cls-5" x="129.15" y="14.52" width="4.3" height="28.58" />
                <rect class="cls-6" x="133.45" y="17.59" width="6.39" height="22.33" />
                <polygon class="cls-7" points="150 36.29 139.85 37.57 139.85 20.02 150 21.16 150 36.29" />
                
            </g>
        </g>
    </g>
</svg>