<svg xmlns="http://www.w3.org/2000/svg" xmlns:xlink="http://www.w3.org/1999/xlink" viewBox="0 0 150.5 116.5">
    <defs>
        <style>
            .cls-1 {
                fill: none;
                stroke: #3b3a3a;
                stroke-miterlimit: 10;
                stroke-width: 0.5px;
            }

            .cls-2 {
                fill: url(#未命名的渐变_74);
            }

            .cls-3 {
                fill: url(#未命名的渐变_74-2);
            }

            .cls-4 {
                fill: #c6c6c6;
            }

            .cls-5 {
                fill: url(#未命名的渐变_74-3);
            }

            .cls-6 {
                fill: url(#未命名的渐变_74-4);
            }

            .cls-7 {
                fill: url(#未命名的渐变_67);
            }

            .cls-8 {
                fill: url(#未命名的渐变_67-2);
            }

            .cls-9 {
                fill: url(#未命名的渐变_67-3);
            }

            .cls-10 {
                fill: url(#未命名的渐变_67-4);
            }

            .cls-11 {
                fill: url(#未命名的渐变_67-5);
            }

            .cls-12 {
                fill: url(#未命名的渐变_67-6);
            }

            .cls-13 {
                fill: #fff;
            }

            .cls-14 {
                fill: #595757;
            }

            .cls-15 {
                opacity: 0.2;
            }
        </style>
        <linearGradient id="未命名的渐变_74" x1="5.3" y1="27.05" x2="143.27" y2="27.05" gradientUnits="userSpaceOnUse">
            <stop offset="0" stop-color="#6b6b6b" />
            <stop offset="0.01" stop-color="#767676" />
            <stop offset="0.03" stop-color="#959595" />
            <stop offset="0.04" stop-color="#aaa" />
            <stop offset="0.37" stop-color="#ccc" />
            <stop offset="0.74" stop-color="#eaeaea" />
            <stop offset="0.94" stop-color="#f6f6f6" />
            <stop offset="0.95" stop-color="#ededed" />
            <stop offset="0.96" stop-color="#d4d4d4" />
            <stop offset="0.97" stop-color="#ababab" />
            <stop offset="0.99" stop-color="#737373" />
            <stop offset="0.99" stop-color="#666" />
        </linearGradient>
        <linearGradient id="未命名的渐变_74-2" x1="1.9" y1="56.66" x2="147.67" y2="56.66" xlink:href="#未命名的渐变_74" />
        <linearGradient id="未命名的渐变_74-3" x1="90.37" y1="109.77" x2="90.37" y2="77.8" xlink:href="#未命名的渐变_74" />
        <linearGradient id="未命名的渐变_74-4" x1="114.27" y1="107.57" x2="114.27" y2="79.01" xlink:href="#未命名的渐变_74" />
        <linearGradient id="未命名的渐变_67" x1="127.22" y1="109.41" x2="127.22" y2="77.8" gradientUnits="userSpaceOnUse">
            <stop offset="0" stop-color="#6b6b6b" />
            <stop offset="0.11" stop-color="#767676" />
            <stop offset="0.3" stop-color="#959595" />
            <stop offset="0.41" stop-color="#aaa" />
            <stop offset="0.56" stop-color="#ccc" />
            <stop offset="0.71" stop-color="#eaeaea" />
            <stop offset="0.8" stop-color="#f6f6f6" />
            <stop offset="0.83" stop-color="#ededed" />
            <stop offset="0.87" stop-color="#d4d4d4" />
            <stop offset="0.92" stop-color="#ababab" />
            <stop offset="0.98" stop-color="#737373" />
            <stop offset="0.99" stop-color="#666" />
        </linearGradient>
        <linearGradient id="未命名的渐变_67-2" x1="70.53" y1="103.4" x2="70.53" y2="80.05" xlink:href="#未命名的渐变_67" />
        <linearGradient id="未命名的渐变_67-3" x1="55" y1="107.13" x2="55" y2="77.8" xlink:href="#未命名的渐变_67" />
        <linearGradient id="未命名的渐变_67-4" x1="33.58" y1="106.36" x2="33.58" y2="77.8" xlink:href="#未命名的渐变_67" />
        <linearGradient id="未命名的渐变_67-5" x1="14.02" y1="107.13" x2="14.02" y2="77.8" xlink:href="#未命名的渐变_67" />
        <linearGradient id="未命名的渐变_67-6" x1="65.6" y1="109.77" x2="65.6" y2="77.8" xlink:href="#未命名的渐变_67" />
    </defs>
    <title>Generator（发电机）</title>
    <g id="图层_2" data-name="图层 2">
        <g id="图层_59" data-name="图层 59">
            <g id="Generator_发电机_" data-name="Generator（发电机）">
                <rect class="cls-1" x="0.25" y="0.25" width="150" height="116" />
                <rect class="cls-2" x="5.3" y="14.31" width="137.97" height="25.48" />
                <rect class="cls-3" x="1.9" y="40.56" width="145.77" height="32.19" />
                <rect class="cls-4" x="1.9" y="35.51" width="145.77" height="5.05" />
                <rect class="cls-4" x="1.9" y="72.75" width="145.77" height="5.05" />
                <rect class="cls-5" x="73.93" y="77.8" width="32.87" height="31.97" />
                <rect class="cls-6" x="106.8" y="79.01" width="14.94" height="28.56" />
                <rect class="cls-7" x="121.74" y="77.8" width="10.96" height="31.61" />
                <rect class="cls-8" x="67.12" y="80.05" width="6.81" height="23.34" />
                <rect class="cls-9" x="45.92" y="77.8" width="18.15" height="29.33" />
                <rect class="cls-10" x="21.23" y="77.8" width="24.69" height="28.56" />
                <rect x="9.92" y="42.54" width="56.68" height="27.68" />
                <rect x="74.05" y="42.54" width="67.13" height="27.68" />
                <path class="cls-11"
                    d="M8.36,77.8H21.23a0,0,0,0,1,0,0v29.33a0,0,0,0,1,0,0H8.36a1.54,1.54,0,0,1-1.54-1.54V79.35A1.54,1.54,0,0,1,8.36,77.8Z" />
                <rect class="cls-12" x="64.07" y="77.8" width="3.05" height="31.97" />
                <rect class="cls-13" x="12.72" y="47.16" width="16.36" height="20.44" />
                <rect class="cls-13" x="32" y="47.16" width="32.07" height="12.3" />
                <rect class="cls-13" x="92.64" y="45.69" width="14.19" height="22.82" />
                <rect class="cls-13" x="108.73" y="46.29" width="25.86" height="18.94" />
                <rect x="13.64" y="49.93" width="14.5" height="16.36" />
                <rect x="93.46" y="49.41" width="12.3" height="17.2" />
                <rect x="110.21" y="48.75" width="22.48" height="15.15" />
                <rect class="cls-14" x="21.89" y="59.73" width="4.23" height="3.84" />
                <rect class="cls-14" x="100.12" y="59.08" width="4.54" height="5.1" />
                <rect class="cls-13" x="32" y="62.45" width="14.91" height="5.32" />
                <rect class="cls-13" x="49.16" y="62.45" width="14.91" height="5.32" />
                <rect class="cls-13" x="77.81" y="50.21" width="10.38" height="9.69" />
                <rect x="33.09" y="49.39" width="29.38" height="9.19" rx="0.33" />
                <rect class="cls-4" x="33.45" y="53.42" width="27.95" height="0.56" />
                <rect class="cls-4" x="46.91" y="53.98" width="0.51" height="3.63" />
                
            </g>
        </g>
    </g>
</svg>