<svg xmlns="http://www.w3.org/2000/svg" xmlns:xlink="http://www.w3.org/1999/xlink" viewBox="0 0 56.72 150">
    <defs>
        <style>
            .cls-1 {
                fill: url(#未命名的渐变_67);
            }

            .cls-2 {
                fill: url(#未命名的渐变_67-2);
            }

            .cls-3 {
                fill: url(#未命名的渐变_67-3);
            }

            .cls-4 {
                fill: url(#未命名的渐变_67-4);
            }

            .cls-5 {
                fill: url(#未命名的渐变_67-5);
            }

            .cls-6 {
                fill: url(#未命名的渐变_67-6);
            }

            .cls-7 {
                fill: url(#未命名的渐变_67-7);
            }

            .cls-8 {
                fill: url(#未命名的渐变_67-8);
            }

            .cls-9 {
                fill: url(#未命名的渐变_67-9);
            }

            .cls-10 {
                fill: url(#未命名的渐变_67-10);
            }

            .cls-11 {
                opacity: 0.2;
            }
        </style>
        <linearGradient id="未命名的渐变_67" x1="13.52" y1="3.25" x2="43.2" y2="3.25" gradientUnits="userSpaceOnUse">
            <stop offset="0" stop-color="#6b6b6b" />
            <stop offset="0.11" stop-color="#767676" />
            <stop offset="0.3" stop-color="#959595" />
            <stop offset="0.41" stop-color="#aaa" />
            <stop offset="0.56" stop-color="#ccc" />
            <stop offset="0.71" stop-color="#eaeaea" />
            <stop offset="0.8" stop-color="#f6f6f6" />
            <stop offset="0.83" stop-color="#ededed" />
            <stop offset="0.87" stop-color="#d4d4d4" />
            <stop offset="0.92" stop-color="#ababab" />
            <stop offset="0.98" stop-color="#737373" />
            <stop offset="0.99" stop-color="#666" />
        </linearGradient>
        <linearGradient id="未命名的渐变_67-2" x1="16.3" y1="23.94" x2="40.42" y2="23.94" xlink:href="#未命名的渐变_67" />
        <linearGradient id="未命名的渐变_67-3" x1="15.67" y1="113.69" x2="41.36" y2="113.69" xlink:href="#未命名的渐变_67" />
        <linearGradient id="未命名的渐变_67-4" x1="24.24" y1="140.76" x2="32.07" y2="140.76" xlink:href="#未命名的渐变_67" />
        <linearGradient id="未命名的渐变_67-5" x1="18.76" y1="69.12" x2="37.76" y2="69.12" xlink:href="#未命名的渐变_67" />
        <linearGradient id="未命名的渐变_67-6" x1="0" y1="40.37" x2="56.72" y2="40.37" xlink:href="#未命名的渐变_67" />
        <linearGradient id="未命名的渐变_67-7" x1="0" y1="55.14" x2="56.72" y2="55.14" xlink:href="#未命名的渐变_67" />
        <linearGradient id="未命名的渐变_67-8" x1="0" y1="69.91" x2="56.72" y2="69.91" xlink:href="#未命名的渐变_67" />
        <linearGradient id="未命名的渐变_67-9" x1="0" y1="84.68" x2="56.72" y2="84.68" xlink:href="#未命名的渐变_67" />
        <linearGradient id="未命名的渐变_67-10" x1="0" y1="99.45" x2="56.72" y2="99.45" xlink:href="#未命名的渐变_67" />
    </defs>
    <title>Insulator（绝缘体）</title>
    <g id="图层_2" data-name="图层 2">
        <g id="图层_59" data-name="图层 59">
            <g id="Insulator_绝缘体_" data-name="Insulator（绝缘体）">
                <rect class="cls-1" x="13.52" width="29.68" height="6.49" rx="0.35" />
                <ellipse class="cls-2" cx="28.36" cy="23.94" rx="12.06" ry="8.59" />
                <ellipse class="cls-3" cx="28.52" cy="113.69" rx="12.84" ry="8.59" />
                <rect class="cls-4" x="24.24" y="131.52" width="7.83" height="18.48" />
                <rect class="cls-5" x="18.76" y="6.31" width="19" height="125.63" />
                <polygon class="cls-6"
                    points="56.72 43.2 0 43.2 0 40.04 19.12 37.54 37.52 37.54 56.72 39.92 56.72 43.2" />
                <polygon class="cls-7"
                    points="56.72 57.97 0 57.97 0 54.81 19.12 52.31 37.52 52.31 56.72 54.69 56.72 57.97" />
                <polygon class="cls-8"
                    points="56.72 72.74 0 72.74 0 69.58 19.12 67.08 37.52 67.08 56.72 69.46 56.72 72.74" />
                <polygon class="cls-9"
                    points="56.72 87.51 0 87.51 0 84.35 19.12 81.85 37.52 81.85 56.72 84.23 56.72 87.51" />
                <polygon class="cls-10"
                    points="56.72 102.28 0 102.28 0 99.12 19.12 96.62 37.52 96.62 56.72 99 56.72 102.28" />
                
            </g>
        </g>
    </g>
</svg>