<svg xmlns="http://www.w3.org/2000/svg" xmlns:xlink="http://www.w3.org/1999/xlink" viewBox="0 0 149.36 96.48">
    <defs>
        <style>
            .cls-1 {
                fill: url(#未命名的渐变_105);
            }

            .cls-2 {
                fill: #e2e2e2;
            }

            .cls-3 {
                fill: #949494;
            }

            .cls-4 {
                fill: #9b9b9b;
            }

            .cls-5 {
                fill: url(#未命名的渐变_105-2);
            }

            .cls-6 {
                fill: url(#未命名的渐变_105-3);
            }

            .cls-7 {
                fill: url(#未命名的渐变_105-4);
            }

            .cls-8 {
                fill: url(#未命名的渐变_105-5);
            }

            .cls-9 {
                fill: url(#未命名的渐变_105-6);
            }

            .cls-10 {
                fill: url(#未命名的渐变_105-7);
            }

            .cls-11 {
                fill: url(#未命名的渐变_105-8);
            }

            .cls-12 {
                fill: url(#未命名的渐变_105-9);
            }

            .cls-13 {
                fill: url(#未命名的渐变_105-10);
            }

            .cls-14 {
                fill: url(#未命名的渐变_105-11);
            }

            .cls-15 {
                fill: url(#未命名的渐变_105-12);
            }

            .cls-16 {
                fill: url(#未命名的渐变_105-13);
            }

            .cls-17 {
                fill: url(#未命名的渐变_105-14);
            }

            .cls-18 {
                fill: url(#未命名的渐变_105-15);
            }

            .cls-19 {
                fill: url(#未命名的渐变_105-16);
            }

            .cls-20 {
                fill: url(#未命名的渐变_105-17);
            }

            .cls-21 {
                fill: url(#未命名的渐变_105-18);
            }

            .cls-22 {
                fill: url(#未命名的渐变_105-19);
            }

            .cls-23 {
                fill: url(#未命名的渐变_105-20);
            }

            .cls-24 {
                fill: url(#未命名的渐变_105-21);
            }

            .cls-25 {
                fill: url(#未命名的渐变_105-22);
            }

            .cls-26 {
                fill: url(#未命名的渐变_105-23);
            }

            .cls-27 {
                fill: url(#未命名的渐变_105-24);
            }

            .cls-28 {
                fill: url(#未命名的渐变_105-25);
            }

            .cls-29 {
                fill: url(#未命名的渐变_105-26);
            }

            .cls-30 {
                fill: url(#未命名的渐变_105-27);
            }

            .cls-31 {
                fill: url(#未命名的渐变_105-28);
            }

            .cls-32 {
                fill: url(#未命名的渐变_67);
            }

            .cls-33 {
                fill: url(#未命名的渐变_105-29);
            }

            .cls-34 {
                fill: url(#未命名的渐变_105-30);
            }

            .cls-35 {
                fill: url(#未命名的渐变_105-31);
            }

            .cls-36 {
                fill: url(#未命名的渐变_105-32);
            }

            .cls-37 {
                fill: url(#未命名的渐变_105-33);
            }

            .cls-38 {
                fill: url(#未命名的渐变_105-34);
            }

            .cls-39 {
                fill: url(#未命名的渐变_105-35);
            }

            .cls-40 {
                fill: url(#未命名的渐变_105-36);
            }

            .cls-41 {
                fill: url(#未命名的渐变_105-37);
            }

            .cls-42 {
                fill: url(#未命名的渐变_105-38);
            }

            .cls-43 {
                fill: url(#未命名的渐变_105-39);
            }

            .cls-44 {
                fill: url(#未命名的渐变_105-40);
            }

            .cls-45 {
                fill: url(#未命名的渐变_105-41);
            }

            .cls-46 {
                fill: url(#未命名的渐变_105-42);
            }

            .cls-47 {
                fill: url(#未命名的渐变_105-43);
            }

            .cls-48 {
                fill: url(#未命名的渐变_105-44);
            }

            .cls-49 {
                fill: url(#未命名的渐变_105-45);
            }

            .cls-50 {
                fill: url(#未命名的渐变_105-46);
            }

            .cls-51 {
                fill: url(#未命名的渐变_105-47);
            }

            .cls-52 {
                fill: url(#未命名的渐变_105-48);
            }

            .cls-53 {
                fill: url(#未命名的渐变_105-49);
            }

            .cls-54 {
                fill: url(#未命名的渐变_105-50);
            }

            .cls-55 {
                fill: url(#未命名的渐变_105-51);
            }

            .cls-56 {
                fill: url(#未命名的渐变_105-52);
            }

            .cls-57 {
                fill: url(#未命名的渐变_105-53);
            }

            .cls-58 {
                fill: url(#未命名的渐变_105-54);
            }

            .cls-59 {
                fill: url(#未命名的渐变_105-55);
            }

            .cls-60 {
                fill: url(#未命名的渐变_67-2);
            }

            .cls-61 {
                fill: url(#未命名的渐变_105-56);
            }

            .cls-62 {
                fill: url(#未命名的渐变_105-57);
            }

            .cls-63 {
                fill: url(#未命名的渐变_105-58);
            }

            .cls-64 {
                fill: url(#未命名的渐变_105-59);
            }

            .cls-65 {
                fill: url(#未命名的渐变_105-60);
            }

            .cls-66 {
                fill: url(#未命名的渐变_105-61);
            }

            .cls-67 {
                fill: url(#未命名的渐变_105-62);
            }

            .cls-68 {
                fill: url(#未命名的渐变_105-63);
            }

            .cls-69 {
                fill: url(#未命名的渐变_105-64);
            }

            .cls-70 {
                fill: url(#未命名的渐变_105-65);
            }

            .cls-71 {
                fill: url(#未命名的渐变_105-66);
            }

            .cls-72 {
                fill: url(#未命名的渐变_105-67);
            }

            .cls-73 {
                fill: url(#未命名的渐变_105-68);
            }

            .cls-74 {
                fill: url(#未命名的渐变_105-69);
            }

            .cls-75 {
                fill: url(#未命名的渐变_105-70);
            }

            .cls-76 {
                fill: url(#未命名的渐变_105-71);
            }

            .cls-77 {
                fill: url(#未命名的渐变_105-72);
            }

            .cls-78 {
                fill: url(#未命名的渐变_105-73);
            }

            .cls-79 {
                fill: url(#未命名的渐变_105-74);
            }

            .cls-80 {
                fill: url(#未命名的渐变_105-75);
            }

            .cls-81 {
                fill: url(#未命名的渐变_105-76);
            }

            .cls-82 {
                fill: url(#未命名的渐变_105-77);
            }

            .cls-83 {
                fill: url(#未命名的渐变_105-78);
            }

            .cls-84 {
                fill: url(#未命名的渐变_105-79);
            }

            .cls-85 {
                fill: url(#未命名的渐变_105-80);
            }

            .cls-86 {
                fill: url(#未命名的渐变_105-81);
            }

            .cls-87 {
                opacity: 0.2;
            }
        </style>
        <linearGradient id="未命名的渐变_105" x1="39.43" y1="53.73" x2="98.4" y2="53.73" gradientUnits="userSpaceOnUse">
            <stop offset="0" stop-color="#e2e2e2" />
            <stop offset="0.03" stop-color="#d0d0d0" />
            <stop offset="0.06" stop-color="#bcbcbc" />
            <stop offset="0.09" stop-color="#b5b5b5" />
            <stop offset="0.49" stop-color="#f6f6f6" />
            <stop offset="0.63" stop-color="#f3f3f3" />
            <stop offset="0.73" stop-color="#eaeaea" />
            <stop offset="0.82" stop-color="#dbdbdb" />
            <stop offset="0.9" stop-color="#c6c6c6" />
            <stop offset="0.97" stop-color="#aaa" />
            <stop offset="1" stop-color="#9b9b9b" />
        </linearGradient>
        <linearGradient id="未命名的渐变_105-2" x1="51.82" y1="9.51" x2="53.76" y2="9.51" xlink:href="#未命名的渐变_105" />
        <linearGradient id="未命名的渐变_105-3" x1="55.42" y1="9.51" x2="57.37" y2="9.51" xlink:href="#未命名的渐变_105" />
        <linearGradient id="未命名的渐变_105-4" x1="58.52" y1="9.51" x2="60.47" y2="9.51" xlink:href="#未命名的渐变_105" />
        <linearGradient id="未命名的渐变_105-5" x1="62.81" y1="9.51" x2="64.75" y2="9.51" xlink:href="#未命名的渐变_105" />
        <linearGradient id="未命名的渐变_105-6" x1="66.42" y1="9.51" x2="68.36" y2="9.51" xlink:href="#未命名的渐变_105" />
        <linearGradient id="未命名的渐变_105-7" x1="241.05" y1="154.76" x2="243.28" y2="154.76"
            gradientTransform="translate(-173.5 -142.65)" xlink:href="#未命名的渐变_105" />
        <linearGradient id="未命名的渐变_105-8" x1="236.08" y1="154.76" x2="238.31" y2="154.76"
            gradientTransform="translate(-168.53 -137.68)" xlink:href="#未命名的渐变_105" />
        <linearGradient id="未命名的渐变_105-9" x1="231.12" y1="154.76" x2="233.34" y2="154.76"
            gradientTransform="translate(-163.56 -132.72)" xlink:href="#未命名的渐变_105" />
        <linearGradient id="未命名的渐变_105-10" x1="226.15" y1="154.76" x2="228.38" y2="154.76"
            gradientTransform="translate(-158.59 -127.75)" xlink:href="#未命名的渐变_105" />
        <linearGradient id="未命名的渐变_105-11" x1="221.18" y1="154.76" x2="223.41" y2="154.76"
            gradientTransform="translate(-153.62 -122.78)" xlink:href="#未命名的渐变_105" />
        <linearGradient id="未命名的渐变_105-12" x1="216.21" y1="154.76" x2="218.44" y2="154.76"
            gradientTransform="translate(-148.65 -117.81)" xlink:href="#未命名的渐变_105" />
        <linearGradient id="未命名的渐变_105-13" x1="211.24" y1="154.76" x2="213.47" y2="154.76"
            gradientTransform="translate(-143.69 -112.84)" xlink:href="#未命名的渐变_105" />
        <linearGradient id="未命名的渐变_105-14" x1="206.27" y1="154.76" x2="208.5" y2="154.76"
            gradientTransform="translate(-138.72 -107.87)" xlink:href="#未命名的渐变_105" />
        <linearGradient id="未命名的渐变_105-15" x1="201.3" y1="154.76" x2="203.53" y2="154.76"
            gradientTransform="translate(-133.75 -102.9)" xlink:href="#未命名的渐变_105" />
        <linearGradient id="未命名的渐变_105-16" x1="196.33" y1="154.76" x2="198.56" y2="154.76"
            gradientTransform="translate(-128.78 -97.93)" xlink:href="#未命名的渐变_105" />
        <linearGradient id="未命名的渐变_105-17" x1="191.37" y1="154.76" x2="193.59" y2="154.76"
            gradientTransform="translate(-123.81 -92.97)" xlink:href="#未命名的渐变_105" />
        <linearGradient id="未命名的渐变_105-18" x1="186.4" y1="154.76" x2="188.63" y2="154.76"
            gradientTransform="translate(-118.84 -88)" xlink:href="#未命名的渐变_105" />
        <linearGradient id="未命名的渐变_105-19" x1="181.43" y1="154.76" x2="183.66" y2="154.76"
            gradientTransform="translate(-113.87 -83.03)" xlink:href="#未命名的渐变_105" />
        <linearGradient id="未命名的渐变_105-20" x1="176.46" y1="154.76" x2="178.69" y2="154.76"
            gradientTransform="translate(-108.91 -78.06)" xlink:href="#未命名的渐变_105" />
        <linearGradient id="未命名的渐变_105-21" x1="171.49" y1="154.76" x2="173.72" y2="154.76"
            gradientTransform="translate(-103.94 -73.09)" xlink:href="#未命名的渐变_105" />
        <linearGradient id="未命名的渐变_105-22" x1="166.52" y1="154.76" x2="168.75" y2="154.76"
            gradientTransform="translate(-98.97 -68.12)" xlink:href="#未命名的渐变_105" />
        <linearGradient id="未命名的渐变_105-23" x1="69.95" y1="9.51" x2="71.89" y2="9.51" xlink:href="#未命名的渐变_105" />
        <linearGradient id="未命名的渐变_105-24" x1="73.34" y1="9.51" x2="75.28" y2="9.51" xlink:href="#未命名的渐变_105" />
        <linearGradient id="未命名的渐变_105-25" x1="76.95" y1="9.51" x2="78.89" y2="9.51" xlink:href="#未命名的渐变_105" />
        <linearGradient id="未命名的渐变_105-26" x1="84.25" y1="9.51" x2="86.2" y2="9.51" xlink:href="#未命名的渐变_105" />
        <linearGradient id="未命名的渐变_105-27" x1="80.6" y1="9.51" x2="82.54" y2="9.51" xlink:href="#未命名的渐变_105" />
        <linearGradient id="未命名的渐变_105-28" x1="78.08" y1="51.58" x2="149.2" y2="51.58" xlink:href="#未命名的渐变_105" />
        <linearGradient id="未命名的渐变_67" x1="77.92" y1="93.41" x2="149.36" y2="93.41" gradientUnits="userSpaceOnUse">
            <stop offset="0" stop-color="#6b6b6b" />
            <stop offset="0.11" stop-color="#767676" />
            <stop offset="0.3" stop-color="#959595" />
            <stop offset="0.41" stop-color="#aaa" />
            <stop offset="0.56" stop-color="#ccc" />
            <stop offset="0.71" stop-color="#eaeaea" />
            <stop offset="0.8" stop-color="#f6f6f6" />
            <stop offset="0.83" stop-color="#ededed" />
            <stop offset="0.87" stop-color="#d4d4d4" />
            <stop offset="0.92" stop-color="#ababab" />
            <stop offset="0.98" stop-color="#737373" />
            <stop offset="0.99" stop-color="#666" />
        </linearGradient>
        <linearGradient id="未命名的渐变_105-29" x1="93.02" y1="5.13" x2="95.36" y2="5.13" xlink:href="#未命名的渐变_105" />
        <linearGradient id="未命名的渐变_105-30" x1="97.37" y1="5.13" x2="99.71" y2="5.13" xlink:href="#未命名的渐变_105" />
        <linearGradient id="未命名的渐变_105-31" x1="101.11" y1="5.13" x2="103.45" y2="5.13" xlink:href="#未命名的渐变_105" />
        <linearGradient id="未命名的渐变_105-32" x1="106.28" y1="5.13" x2="108.62" y2="5.13" xlink:href="#未命名的渐变_105" />
        <linearGradient id="未命名的渐变_105-33" x1="110.63" y1="5.13" x2="112.97" y2="5.13" xlink:href="#未命名的渐变_105" />
        <linearGradient id="未命名的渐变_105-34" x1="245.24" y1="199.43" x2="247.59" y2="199.43"
            gradientTransform="translate(-133.07 -191.57)" xlink:href="#未命名的渐变_105" />
        <linearGradient id="未命名的渐变_105-35" x1="240.03" y1="199.43" x2="242.37" y2="199.43"
            gradientTransform="translate(-127.85 -186.36)" xlink:href="#未命名的渐变_105" />
        <linearGradient id="未命名的渐变_105-36" x1="234.81" y1="199.43" x2="237.15" y2="199.43"
            gradientTransform="translate(-122.64 -181.14)" xlink:href="#未命名的渐变_105" />
        <linearGradient id="未命名的渐变_105-37" x1="229.59" y1="199.43" x2="231.93" y2="199.43"
            gradientTransform="translate(-117.42 -175.92)" xlink:href="#未命名的渐变_105" />
        <linearGradient id="未命名的渐变_105-38" x1="224.37" y1="199.43" x2="226.71" y2="199.43"
            gradientTransform="translate(-112.2 -170.7)" xlink:href="#未命名的渐变_105" />
        <linearGradient id="未命名的渐变_105-39" x1="219.15" y1="199.43" x2="221.49" y2="199.43"
            gradientTransform="translate(-106.98 -165.48)" xlink:href="#未命名的渐变_105" />
        <linearGradient id="未命名的渐变_105-40" x1="213.93" y1="199.43" x2="216.27" y2="199.43"
            gradientTransform="translate(-101.76 -160.26)" xlink:href="#未命名的渐变_105" />
        <linearGradient id="未命名的渐变_105-41" x1="208.71" y1="199.43" x2="211.05" y2="199.43"
            gradientTransform="translate(-96.54 -155.04)" xlink:href="#未命名的渐变_105" />
        <linearGradient id="未命名的渐变_105-42" x1="203.49" y1="199.43" x2="205.83" y2="199.43"
            gradientTransform="translate(-91.32 -149.82)" xlink:href="#未命名的渐变_105" />
        <linearGradient id="未命名的渐变_105-43" x1="198.28" y1="199.43" x2="200.62" y2="199.43"
            gradientTransform="translate(-86.1 -144.6)" xlink:href="#未命名的渐变_105" />
        <linearGradient id="未命名的渐变_105-44" x1="193.06" y1="199.43" x2="195.4" y2="199.43"
            gradientTransform="translate(-80.88 -139.39)" xlink:href="#未命名的渐变_105" />
        <linearGradient id="未命名的渐变_105-45" x1="187.84" y1="199.43" x2="190.18" y2="199.43"
            gradientTransform="translate(-75.67 -134.17)" xlink:href="#未命名的渐变_105" />
        <linearGradient id="未命名的渐变_105-46" x1="182.62" y1="199.43" x2="184.96" y2="199.43"
            gradientTransform="translate(-70.45 -128.95)" xlink:href="#未命名的渐变_105" />
        <linearGradient id="未命名的渐变_105-47" x1="177.4" y1="199.43" x2="179.74" y2="199.43"
            gradientTransform="translate(-65.23 -123.73)" xlink:href="#未命名的渐变_105" />
        <linearGradient id="未命名的渐变_105-48" x1="172.18" y1="199.43" x2="174.52" y2="199.43"
            gradientTransform="translate(-60.01 -118.51)" xlink:href="#未命名的渐变_105" />
        <linearGradient id="未命名的渐变_105-49" x1="166.96" y1="199.43" x2="169.3" y2="199.43"
            gradientTransform="translate(-54.79 -113.29)" xlink:href="#未命名的渐变_105" />
        <linearGradient id="未命名的渐变_105-50" x1="114.88" y1="5.13" x2="117.22" y2="5.13" xlink:href="#未命名的渐变_105" />
        <linearGradient id="未命名的渐变_105-51" x1="118.98" y1="5.13" x2="121.32" y2="5.13" xlink:href="#未命名的渐变_105" />
        <linearGradient id="未命名的渐变_105-52" x1="123.33" y1="5.13" x2="125.67" y2="5.13" xlink:href="#未命名的渐变_105" />
        <linearGradient id="未命名的渐变_105-53" x1="132.14" y1="5.13" x2="134.48" y2="5.13" xlink:href="#未命名的渐变_105" />
        <linearGradient id="未命名的渐变_105-54" x1="127.73" y1="5.13" x2="130.08" y2="5.13" xlink:href="#未命名的渐变_105" />
        <linearGradient id="未命名的渐变_105-55" x1="0.15" y1="49.85" x2="71.69" y2="49.85" xlink:href="#未命名的渐变_105" />
        <linearGradient id="未命名的渐变_67-2" x1="0" y1="93.29" x2="71.84" y2="93.29" xlink:href="#未命名的渐变_67" />
        <linearGradient id="未命名的渐变_105-56" x1="19.56" y1="1.61" x2="21.91" y2="1.61" xlink:href="#未命名的渐变_105" />
        <linearGradient id="未命名的渐变_105-57" x1="23.32" y1="1.61" x2="25.67" y2="1.61" xlink:href="#未命名的渐变_105" />
        <linearGradient id="未命名的渐变_105-58" x1="28.52" y1="1.61" x2="30.87" y2="1.61" xlink:href="#未命名的渐变_105" />
        <linearGradient id="未命名的渐变_105-59" x1="32.89" y1="1.61" x2="35.25" y2="1.61" xlink:href="#未命名的渐变_105" />
        <linearGradient id="未命名的渐变_105-60" x1="248.61" y1="121.71" x2="251.04" y2="121.71"
            gradientTransform="translate(-214.21 -117.27)" xlink:href="#未命名的渐变_105" />
        <linearGradient id="未命名的渐变_105-61" x1="243.19" y1="121.71" x2="245.62" y2="121.71"
            gradientTransform="translate(-208.79 -111.85)" xlink:href="#未命名的渐变_105" />
        <linearGradient id="未命名的渐变_105-62" x1="237.77" y1="121.71" x2="240.2" y2="121.71"
            gradientTransform="translate(-203.37 -106.43)" xlink:href="#未命名的渐变_105" />
        <linearGradient id="未命名的渐变_105-63" x1="232.35" y1="121.71" x2="234.78" y2="121.71"
            gradientTransform="translate(-197.95 -101.01)" xlink:href="#未命名的渐变_105" />
        <linearGradient id="未命名的渐变_105-64" x1="226.93" y1="121.71" x2="229.36" y2="121.71"
            gradientTransform="translate(-192.53 -95.59)" xlink:href="#未命名的渐变_105" />
        <linearGradient id="未命名的渐变_105-65" x1="221.51" y1="121.71" x2="223.94" y2="121.71"
            gradientTransform="translate(-187.11 -90.17)" xlink:href="#未命名的渐变_105" />
        <linearGradient id="未命名的渐变_105-66" x1="216.09" y1="121.71" x2="218.52" y2="121.71"
            gradientTransform="translate(-181.69 -84.75)" xlink:href="#未命名的渐变_105" />
        <linearGradient id="未命名的渐变_105-67" x1="210.67" y1="121.71" x2="213.1" y2="121.71"
            gradientTransform="translate(-176.27 -79.33)" xlink:href="#未命名的渐变_105" />
        <linearGradient id="未命名的渐变_105-68" x1="205.25" y1="121.71" x2="207.68" y2="121.71"
            gradientTransform="translate(-170.85 -73.91)" xlink:href="#未命名的渐变_105" />
        <linearGradient id="未命名的渐变_105-69" x1="199.83" y1="121.71" x2="202.26" y2="121.71"
            gradientTransform="translate(-165.43 -68.49)" xlink:href="#未命名的渐变_105" />
        <linearGradient id="未命名的渐变_105-70" x1="194.41" y1="121.71" x2="196.84" y2="121.71"
            gradientTransform="translate(-160.01 -63.07)" xlink:href="#未命名的渐变_105" />
        <linearGradient id="未命名的渐变_105-71" x1="188.99" y1="121.71" x2="191.43" y2="121.71"
            gradientTransform="translate(-154.59 -57.65)" xlink:href="#未命名的渐变_105" />
        <linearGradient id="未命名的渐变_105-72" x1="183.57" y1="121.71" x2="186.01" y2="121.71"
            gradientTransform="translate(-149.17 -52.23)" xlink:href="#未命名的渐变_105" />
        <linearGradient id="未命名的渐变_105-73" x1="178.15" y1="121.71" x2="180.59" y2="121.71"
            gradientTransform="translate(-143.75 -46.81)" xlink:href="#未命名的渐变_105" />
        <linearGradient id="未命名的渐变_105-74" x1="172.73" y1="121.71" x2="175.17" y2="121.71"
            gradientTransform="translate(-138.33 -41.39)" xlink:href="#未命名的渐变_105" />
        <linearGradient id="未命名的渐变_105-75" x1="167.31" y1="121.71" x2="169.75" y2="121.71"
            gradientTransform="translate(-132.91 -35.97)" xlink:href="#未命名的渐变_105" />
        <linearGradient id="未命名的渐变_105-76" x1="37.17" y1="1.61" x2="39.53" y2="1.61" xlink:href="#未命名的渐变_105" />
        <linearGradient id="未命名的渐变_105-77" x1="41.29" y1="1.61" x2="43.64" y2="1.61" xlink:href="#未命名的渐变_105" />
        <linearGradient id="未命名的渐变_105-78" x1="45.67" y1="1.61" x2="48.02" y2="1.61" xlink:href="#未命名的渐变_105" />
        <linearGradient id="未命名的渐变_105-79" x1="54.52" y1="1.61" x2="56.88" y2="1.61" xlink:href="#未命名的渐变_105" />
        <linearGradient id="未命名的渐变_105-80" x1="50.1" y1="1.61" x2="52.45" y2="1.61" xlink:href="#未命名的渐变_105" />
        <linearGradient id="未命名的渐变_105-81" x1="15.18" y1="1.61" x2="17.54" y2="1.61" xlink:href="#未命名的渐变_105" />
    </defs>
    <title>Nuclear reactors（核反应堆）</title>
    <g id="图层_2" data-name="图层 2">
        <g id="图层_59" data-name="图层 59">
            <g id="Nuclear_reactors_核反应堆_" data-name="Nuclear reactors（核反应堆）">
                <path class="cls-1"
                    d="M98.4,96.48h-59s9.53-34.55,11.08-46C51.89,40.19,51.72,11,51.72,11h34.5S85,39.9,85.58,50.73C87,75,98.4,96.48,98.4,96.48Z" />
                <rect class="cls-2" x="67.39" y="10.99" width="2.55" height="79.65" />
                <polygon class="cls-3" points="98.53 96.48 39.3 96.48 41.01 90.64 95.66 90.64 98.53 96.48" />
                <rect class="cls-4" x="51.19" y="8.75" width="35.45" height="1.85" />
                <rect class="cls-5" x="51.82" y="8.03" width="1.94" height="2.96" />
                <rect class="cls-6" x="55.42" y="8.03" width="1.94" height="2.96" />
                <rect class="cls-7" x="58.52" y="8.03" width="1.94" height="2.96" />
                <rect class="cls-8" x="62.81" y="8.03" width="1.94" height="2.96" />
                <rect class="cls-9" x="66.42" y="8.03" width="1.94" height="2.96" />
                <rect class="cls-10" x="67.55" y="10.17" width="2.23" height="3.87"
                    transform="translate(56.56 80.77) rotate(-90)" />
                <rect class="cls-11" x="67.55" y="15.14" width="2.23" height="3.87"
                    transform="translate(51.6 85.74) rotate(-90)" />
                <rect class="cls-12" x="67.55" y="20.11" width="2.23" height="3.87"
                    transform="translate(46.63 90.71) rotate(-90)" />
                <rect class="cls-13" x="67.55" y="25.08" width="2.23" height="3.87"
                    transform="translate(41.66 95.68) rotate(-90)" />
                <rect class="cls-14" x="67.55" y="30.04" width="2.23" height="3.87"
                    transform="translate(36.69 100.65) rotate(-90)" />
                <rect class="cls-15" x="67.55" y="35.01" width="2.23" height="3.87"
                    transform="translate(31.72 105.62) rotate(-90)" />
                <rect class="cls-16" x="67.55" y="39.98" width="2.23" height="3.87"
                    transform="translate(26.75 110.58) rotate(-90)" />
                <rect class="cls-17" x="67.55" y="44.95" width="2.23" height="3.87"
                    transform="translate(21.78 115.55) rotate(-90)" />
                <rect class="cls-18" x="67.55" y="49.92" width="2.23" height="3.87"
                    transform="translate(16.82 120.52) rotate(-90)" />
                <rect class="cls-19" x="67.55" y="54.89" width="2.23" height="3.87"
                    transform="translate(11.85 125.49) rotate(-90)" />
                <rect class="cls-20" x="67.55" y="59.86" width="2.23" height="3.87"
                    transform="translate(6.88 130.46) rotate(-90)" />
                <rect class="cls-21" x="67.55" y="64.83" width="2.23" height="3.87"
                    transform="translate(1.91 135.43) rotate(-90)" />
                <rect class="cls-22" x="67.55" y="69.79" width="2.23" height="3.87"
                    transform="translate(-3.06 140.4) rotate(-90)" />
                <rect class="cls-23" x="67.55" y="74.76" width="2.23" height="3.87"
                    transform="translate(-8.03 145.37) rotate(-90)" />
                <rect class="cls-24" x="67.55" y="79.73" width="2.23" height="3.87"
                    transform="translate(-13 150.33) rotate(-90)" />
                <rect class="cls-25" x="67.55" y="84.7" width="2.23" height="3.87"
                    transform="translate(-17.97 155.3) rotate(-90)" />
                <rect class="cls-26" x="69.95" y="8.03" width="1.94" height="2.96" />
                <rect class="cls-27" x="73.34" y="8.03" width="1.94" height="2.96" />
                <rect class="cls-28" x="76.95" y="8.03" width="1.94" height="2.96" />
                <rect class="cls-29" x="84.25" y="8.03" width="1.94" height="2.96" />
                <rect class="cls-30" x="80.6" y="8.03" width="1.94" height="2.96" />
                <path class="cls-31"
                    d="M149.2,96.48H78.08S89.57,60.19,91.44,48.13c1.67-10.77,1.45-41.45,1.45-41.45h41.62s-1.52,30.38-.77,41.75C135.43,73.92,149.2,96.48,149.2,96.48Z" />
                <rect class="cls-2" x="111.8" y="6.68" width="3.08" height="83.66" />
                <polygon class="cls-32" points="149.36 96.48 77.92 96.48 79.99 90.34 145.89 90.34 149.36 96.48" />
                <rect class="cls-4" x="92.26" y="4.33" width="42.76" height="1.94" />
                <rect class="cls-33" x="93.02" y="3.58" width="2.34" height="3.11" />
                <rect class="cls-34" x="97.37" y="3.58" width="2.34" height="3.11" />
                <rect class="cls-35" x="101.11" y="3.58" width="2.34" height="3.11" />
                <rect class="cls-36" x="106.28" y="3.58" width="2.34" height="3.11" />
                <rect class="cls-37" x="110.63" y="3.58" width="2.34" height="3.11" />
                <rect class="cls-38" x="112.17" y="5.52" width="2.34" height="4.66"
                    transform="translate(105.49 121.2) rotate(-90)" />
                <rect class="cls-39" x="112.17" y="10.74" width="2.34" height="4.66"
                    transform="translate(100.27 126.42) rotate(-90)" />
                <rect class="cls-40" x="112.17" y="15.96" width="2.34" height="4.66"
                    transform="translate(95.05 131.63) rotate(-90)" />
                <rect class="cls-41" x="112.17" y="21.18" width="2.34" height="4.66"
                    transform="translate(89.83 136.85) rotate(-90)" />
                <rect class="cls-42" x="112.17" y="26.4" width="2.34" height="4.66"
                    transform="translate(84.61 142.07) rotate(-90)" />
                <rect class="cls-43" x="112.17" y="31.62" width="2.34" height="4.66"
                    transform="translate(79.39 147.29) rotate(-90)" />
                <rect class="cls-44" x="112.17" y="36.84" width="2.34" height="4.66"
                    transform="translate(74.17 152.51) rotate(-90)" />
                <rect class="cls-45" x="112.17" y="42.06" width="2.34" height="4.66"
                    transform="translate(68.95 157.73) rotate(-90)" />
                <rect class="cls-46" x="112.17" y="47.27" width="2.34" height="4.66"
                    transform="translate(63.74 162.95) rotate(-90)" />
                <rect class="cls-47" x="112.17" y="52.49" width="2.34" height="4.66"
                    transform="translate(58.52 168.17) rotate(-90)" />
                <rect class="cls-48" x="112.17" y="57.71" width="2.34" height="4.66"
                    transform="translate(53.3 173.39) rotate(-90)" />
                <rect class="cls-49" x="112.17" y="62.93" width="2.34" height="4.66"
                    transform="translate(48.08 178.6) rotate(-90)" />
                <rect class="cls-50" x="112.17" y="68.15" width="2.34" height="4.66"
                    transform="translate(42.86 183.82) rotate(-90)" />
                <rect class="cls-51" x="112.17" y="73.37" width="2.34" height="4.66"
                    transform="translate(37.64 189.04) rotate(-90)" />
                <rect class="cls-52" x="112.17" y="78.59" width="2.34" height="4.66"
                    transform="translate(32.42 194.26) rotate(-90)" />
                <rect class="cls-53" x="112.17" y="83.81" width="2.34" height="4.66"
                    transform="translate(27.2 199.48) rotate(-90)" />
                <rect class="cls-54" x="114.88" y="3.58" width="2.34" height="3.11" />
                <rect class="cls-55" x="118.98" y="3.58" width="2.34" height="3.11" />
                <rect class="cls-56" x="123.33" y="3.58" width="2.34" height="3.11" />
                <rect class="cls-57" x="132.14" y="3.58" width="2.34" height="3.11" />
                <rect class="cls-58" x="127.73" y="3.58" width="2.34" height="3.11" />
                <path class="cls-59"
                    d="M71.69,96.48H.15S11.72,58.8,13.6,46.27c1.67-11.19,1.46-43,1.46-43H56.91s-1.53,31.54-.77,43.35C57.83,73.05,71.69,96.48,71.69,96.48Z" />
                <rect class="cls-2" x="34.07" y="3.23" width="3.1" height="86.88" />
                <polygon class="cls-60" points="71.84 96.48 0 96.48 2.08 90.1 68.36 90.1 71.84 96.48" />
                <rect class="cls-4" x="14.42" y="0.78" width="43" height="2.02" />
                <rect class="cls-61" x="19.56" width="2.36" height="3.23" />
                <rect class="cls-62" x="23.32" width="2.36" height="3.23" />
                <rect class="cls-63" x="28.52" width="2.36" height="3.23" />
                <rect class="cls-64" x="32.89" width="2.36" height="3.23" />
                <rect class="cls-65" x="34.41" y="2.1" width="2.43" height="4.69"
                    transform="translate(31.18 40.06) rotate(-90)" />
                <rect class="cls-66" x="34.41" y="7.52" width="2.43" height="4.69"
                    transform="translate(25.76 45.48) rotate(-90)" />
                <rect class="cls-67" x="34.41" y="12.94" width="2.43" height="4.69"
                    transform="translate(20.34 50.9) rotate(-90)" />
                <rect class="cls-68" x="34.41" y="18.36" width="2.43" height="4.69"
                    transform="translate(14.92 56.32) rotate(-90)" />
                <rect class="cls-69" x="34.41" y="23.78" width="2.43" height="4.69"
                    transform="translate(9.5 61.74) rotate(-90)" />
                <rect class="cls-70" x="34.41" y="29.2" width="2.43" height="4.69"
                    transform="translate(4.08 67.16) rotate(-90)" />
                <rect class="cls-71" x="34.41" y="34.62" width="2.43" height="4.69"
                    transform="translate(-1.34 72.58) rotate(-90)" />
                <rect class="cls-72" x="34.41" y="40.04" width="2.43" height="4.69"
                    transform="translate(-6.76 78) rotate(-90)" />
                <rect class="cls-73" x="34.41" y="45.46" width="2.43" height="4.69"
                    transform="translate(-12.18 83.42) rotate(-90)" />
                <rect class="cls-74" x="34.41" y="50.88" width="2.43" height="4.69"
                    transform="translate(-17.6 88.84) rotate(-90)" />
                <rect class="cls-75" x="34.41" y="56.3" width="2.43" height="4.69"
                    transform="translate(-23.02 94.26) rotate(-90)" />
                <rect class="cls-76" x="34.41" y="61.72" width="2.43" height="4.69"
                    transform="translate(-28.44 99.68) rotate(-90)" />
                <rect class="cls-77" x="34.41" y="67.14" width="2.43" height="4.69"
                    transform="translate(-33.86 105.1) rotate(-90)" />
                <rect class="cls-78" x="34.41" y="72.56" width="2.43" height="4.69"
                    transform="translate(-39.28 110.52) rotate(-90)" />
                <rect class="cls-79" x="34.41" y="77.98" width="2.43" height="4.69"
                    transform="translate(-44.7 115.94) rotate(-90)" />
                <rect class="cls-80" x="34.41" y="83.39" width="2.43" height="4.69"
                    transform="translate(-50.12 121.36) rotate(-90)" />
                <rect class="cls-81" x="37.17" width="2.36" height="3.23" />
                <rect class="cls-82" x="41.29" width="2.36" height="3.23" />
                <rect class="cls-83" x="45.67" width="2.36" height="3.23" />
                <rect class="cls-84" x="54.52" width="2.36" height="3.23" />
                <rect class="cls-85" x="50.1" width="2.36" height="3.23" />
                <rect class="cls-86" x="15.18" width="2.36" height="3.23" />
                
            </g>
        </g>
    </g>
</svg>