<svg xmlns="http://www.w3.org/2000/svg" xmlns:xlink="http://www.w3.org/1999/xlink" viewBox="0 0 150 89.76">
    <defs>
        <style>
            .cls-1 {
                fill: url(#未命名的渐变_105);
            }

            .cls-2 {
                fill: url(#未命名的渐变_67);
            }

            .cls-3 {
                fill: url(#未命名的渐变_105-2);
            }

            .cls-4 {
                fill: url(#未命名的渐变_105-3);
            }

            .cls-5 {
                fill: url(#未命名的渐变_74);
            }

            .cls-6 {
                fill: #9b9b9b;
            }

            .cls-7 {
                fill: url(#未命名的渐变_105-4);
            }

            .cls-8 {
                fill: #e2e2e2;
            }

            .cls-9 {
                fill: url(#未命名的渐变_105-5);
            }

            .cls-10 {
                fill: url(#未命名的渐变_105-6);
            }

            .cls-11 {
                fill: url(#未命名的渐变_105-7);
            }

            .cls-12 {
                fill: url(#未命名的渐变_105-8);
            }

            .cls-13 {
                fill: url(#未命名的渐变_105-9);
            }

            .cls-14 {
                fill: url(#未命名的渐变_105-10);
            }

            .cls-15 {
                fill: url(#未命名的渐变_105-11);
            }

            .cls-16 {
                fill: url(#未命名的渐变_105-12);
            }

            .cls-17 {
                fill: url(#未命名的渐变_105-13);
            }

            .cls-18 {
                fill: url(#未命名的渐变_105-14);
            }

            .cls-19 {
                fill: url(#未命名的渐变_105-15);
            }

            .cls-20 {
                fill: url(#未命名的渐变_105-16);
            }

            .cls-21 {
                fill: url(#未命名的渐变_105-17);
            }

            .cls-22 {
                fill: url(#未命名的渐变_105-18);
            }

            .cls-23 {
                fill: url(#未命名的渐变_105-19);
            }

            .cls-24 {
                fill: url(#未命名的渐变_105-20);
            }

            .cls-25 {
                fill: url(#未命名的渐变_105-21);
            }

            .cls-26 {
                fill: url(#未命名的渐变_105-22);
            }

            .cls-27 {
                fill: url(#未命名的渐变_105-23);
            }

            .cls-28 {
                fill: url(#未命名的渐变_105-24);
            }

            .cls-29 {
                fill: url(#未命名的渐变_105-25);
            }

            .cls-30 {
                fill: url(#未命名的渐变_105-26);
            }

            .cls-31 {
                fill: url(#未命名的渐变_105-27);
            }

            .cls-32 {
                fill: url(#未命名的渐变_105-28);
            }

            .cls-33 {
                fill: url(#未命名的渐变_105-29);
            }

            .cls-34 {
                fill: url(#未命名的渐变_105-30);
            }

            .cls-35 {
                fill: #949494;
            }

            .cls-36 {
                opacity: 0.2;
            }
        </style>
        <linearGradient id="未命名的渐变_105" x1="14.73" y1="5.83" x2="21.28" y2="5.83" gradientUnits="userSpaceOnUse">
            <stop offset="0" stop-color="#e2e2e2" />
            <stop offset="0.03" stop-color="#d0d0d0" />
            <stop offset="0.06" stop-color="#bcbcbc" />
            <stop offset="0.09" stop-color="#b5b5b5" />
            <stop offset="0.49" stop-color="#f6f6f6" />
            <stop offset="0.63" stop-color="#f3f3f3" />
            <stop offset="0.73" stop-color="#eaeaea" />
            <stop offset="0.82" stop-color="#dbdbdb" />
            <stop offset="0.9" stop-color="#c6c6c6" />
            <stop offset="0.97" stop-color="#aaa" />
            <stop offset="1" stop-color="#9b9b9b" />
        </linearGradient>
        <linearGradient id="未命名的渐变_67" x1="40.46" y1="64.93" x2="99.18" y2="64.93" gradientUnits="userSpaceOnUse">
            <stop offset="0" stop-color="#6b6b6b" />
            <stop offset="0.11" stop-color="#767676" />
            <stop offset="0.3" stop-color="#959595" />
            <stop offset="0.41" stop-color="#aaa" />
            <stop offset="0.56" stop-color="#ccc" />
            <stop offset="0.71" stop-color="#eaeaea" />
            <stop offset="0.8" stop-color="#f6f6f6" />
            <stop offset="0.83" stop-color="#ededed" />
            <stop offset="0.87" stop-color="#d4d4d4" />
            <stop offset="0.92" stop-color="#ababab" />
            <stop offset="0.98" stop-color="#737373" />
            <stop offset="0.99" stop-color="#666" />
        </linearGradient>
        <linearGradient id="未命名的渐变_105-2" x1="12.39" y1="31.3" x2="23.26" y2="31.3"
            gradientTransform="translate(-13.47 49.12) rotate(-90)" xlink:href="#未命名的渐变_105" />
        <linearGradient id="未命名的渐变_105-3" x1="40.46" y1="33.63" x2="99.18" y2="33.63" xlink:href="#未命名的渐变_105" />
        <linearGradient id="未命名的渐变_74" x1="2.43" y1="69.14" x2="62.54" y2="69.14"
            gradientTransform="translate(-36.65 101.62) rotate(-90)" gradientUnits="userSpaceOnUse">
            <stop offset="0" stop-color="#6b6b6b" />
            <stop offset="0.01" stop-color="#767676" />
            <stop offset="0.03" stop-color="#959595" />
            <stop offset="0.04" stop-color="#aaa" />
            <stop offset="0.37" stop-color="#ccc" />
            <stop offset="0.74" stop-color="#eaeaea" />
            <stop offset="0.94" stop-color="#f6f6f6" />
            <stop offset="0.95" stop-color="#ededed" />
            <stop offset="0.96" stop-color="#d4d4d4" />
            <stop offset="0.97" stop-color="#ababab" />
            <stop offset="0.99" stop-color="#737373" />
            <stop offset="0.99" stop-color="#666" />
        </linearGradient>
        <linearGradient id="未命名的渐变_105-4" x1="92.65" y1="52.36" x2="142.62" y2="52.36" xlink:href="#未命名的渐变_105" />
        <linearGradient id="未命名的渐变_105-5" x1="103.15" y1="19.7" x2="104.8" y2="19.7" xlink:href="#未命名的渐变_105" />
        <linearGradient id="未命名的渐变_105-6" x1="106.21" y1="19.7" x2="107.85" y2="19.7" xlink:href="#未命名的渐变_105" />
        <linearGradient id="未命名的渐变_105-7" x1="108.83" y1="19.7" x2="110.48" y2="19.7" xlink:href="#未命名的渐变_105" />
        <linearGradient id="未命名的渐变_105-8" x1="112.47" y1="19.7" x2="114.11" y2="19.7" xlink:href="#未命名的渐变_105" />
        <linearGradient id="未命名的渐变_105-9" x1="115.53" y1="19.7" x2="117.17" y2="19.7" xlink:href="#未命名的渐变_105" />
        <linearGradient id="未命名的渐变_105-10" x1="623.27" y1="194.4" x2="624.91" y2="194.4"
            gradientTransform="translate(-506.66 -172.78)" xlink:href="#未命名的渐变_105" />
        <linearGradient id="未命名的渐变_105-11" x1="619.6" y1="194.4" x2="621.24" y2="194.4"
            gradientTransform="translate(-502.99 -169.11)" xlink:href="#未命名的渐变_105" />
        <linearGradient id="未命名的渐变_105-12" x1="615.93" y1="194.4" x2="617.58" y2="194.4"
            gradientTransform="translate(-499.32 -165.44)" xlink:href="#未命名的渐变_105" />
        <linearGradient id="未命名的渐变_105-13" x1="612.26" y1="194.4" x2="613.91" y2="194.4"
            gradientTransform="translate(-495.65 -161.78)" xlink:href="#未命名的渐变_105" />
        <linearGradient id="未命名的渐变_105-14" x1="608.59" y1="194.4" x2="610.24" y2="194.4"
            gradientTransform="translate(-491.98 -158.11)" xlink:href="#未命名的渐变_105" />
        <linearGradient id="未命名的渐变_105-15" x1="604.92" y1="194.4" x2="606.57" y2="194.4"
            gradientTransform="translate(-488.31 -154.44)" xlink:href="#未命名的渐变_105" />
        <linearGradient id="未命名的渐变_105-16" x1="601.25" y1="194.4" x2="602.9" y2="194.4"
            gradientTransform="translate(-484.64 -150.77)" xlink:href="#未命名的渐变_105" />
        <linearGradient id="未命名的渐变_105-17" x1="597.58" y1="194.4" x2="599.23" y2="194.4"
            gradientTransform="translate(-480.97 -147.1)" xlink:href="#未命名的渐变_105" />
        <linearGradient id="未命名的渐变_105-18" x1="593.91" y1="194.4" x2="595.56" y2="194.4"
            gradientTransform="translate(-477.3 -143.43)" xlink:href="#未命名的渐变_105" />
        <linearGradient id="未命名的渐变_105-19" x1="590.24" y1="194.4" x2="591.89" y2="194.4"
            gradientTransform="translate(-473.63 -139.76)" xlink:href="#未命名的渐变_105" />
        <linearGradient id="未命名的渐变_105-20" x1="586.57" y1="194.4" x2="588.22" y2="194.4"
            gradientTransform="translate(-469.97 -136.09)" xlink:href="#未命名的渐变_105" />
        <linearGradient id="未命名的渐变_105-21" x1="582.9" y1="194.4" x2="584.55" y2="194.4"
            gradientTransform="translate(-466.3 -132.42)" xlink:href="#未命名的渐变_105" />
        <linearGradient id="未命名的渐变_105-22" x1="579.23" y1="194.4" x2="580.88" y2="194.4"
            gradientTransform="translate(-462.63 -128.75)" xlink:href="#未命名的渐变_105" />
        <linearGradient id="未命名的渐变_105-23" x1="575.56" y1="194.4" x2="577.21" y2="194.4"
            gradientTransform="translate(-458.96 -125.08)" xlink:href="#未命名的渐变_105" />
        <linearGradient id="未命名的渐变_105-24" x1="571.9" y1="194.4" x2="573.54" y2="194.4"
            gradientTransform="translate(-455.29 -121.41)" xlink:href="#未命名的渐变_105" />
        <linearGradient id="未命名的渐变_105-25" x1="568.23" y1="194.4" x2="569.87" y2="194.4"
            gradientTransform="translate(-451.62 -117.74)" xlink:href="#未命名的渐变_105" />
        <linearGradient id="未命名的渐变_105-26" x1="118.51" y1="19.7" x2="120.16" y2="19.7" xlink:href="#未命名的渐变_105" />
        <linearGradient id="未命名的渐变_105-27" x1="121.39" y1="19.7" x2="123.04" y2="19.7" xlink:href="#未命名的渐变_105" />
        <linearGradient id="未命名的渐变_105-28" x1="124.45" y1="19.7" x2="126.09" y2="19.7" xlink:href="#未命名的渐变_105" />
        <linearGradient id="未命名的渐变_105-29" x1="130.64" y1="19.7" x2="132.28" y2="19.7" xlink:href="#未命名的渐变_105" />
        <linearGradient id="未命名的渐变_105-30" x1="127.54" y1="19.7" x2="129.19" y2="19.7" xlink:href="#未命名的渐变_105" />
    </defs>
    <title>Nuclear power plant（核电站）</title>
    <g id="图层_2" data-name="图层 2">
        <g id="图层_59" data-name="图层 59">
            <g id="Nuclear_power_plant_核电站_" data-name="Nuclear power plant（核电站）">
                <rect class="cls-1" x="14.73" width="6.55" height="11.66" />
                <rect class="cls-2" x="40.46" y="45.92" width="58.72" height="38.01" />
                <rect class="cls-3" x="-3.72" y="25.87" width="43.1" height="10.86"
                    transform="translate(49.12 13.47) rotate(90)" />
                <path class="cls-4" d="M99.18,45.92c-2.89-14-14.93-24.59-29.36-24.59S43.35,31.87,40.46,45.92Z" />
                <rect class="cls-5" x="15.64" y="39.08" width="33.69" height="60.11"
                    transform="translate(101.62 36.65) rotate(90)" />
                <rect class="cls-6" x="6.78" y="59.86" width="5.9" height="14.39" />
                <rect class="cls-6" x="18.44" y="59.86" width="5.9" height="14.39" />
                <rect class="cls-6" x="30.09" y="59.86" width="5.9" height="14.39" />
                <rect class="cls-6" x="41.75" y="59.86" width="5.9" height="14.39" />
                <rect class="cls-6" x="53.41" y="59.86" width="5.9" height="14.39" />
                <path class="cls-7"
                    d="M142.62,83.93h-50s8.08-25.51,9.39-34c1.18-7.57,1-29.14,1-29.14H132.3s-1.07,21.36-.54,29.36C133,68.07,142.62,83.93,142.62,83.93Z" />
                <rect class="cls-8" x="116.35" y="20.79" width="2.16" height="58.82" />
                <polygon class="cls-6" points="142.73 83.93 92.55 83.93 94 79.61 140.3 79.61 142.73 83.93" />
                <rect class="cls-6" x="102.62" y="19.14" width="30.04" height="1.37" />
                <rect class="cls-9" x="103.15" y="18.61" width="1.65" height="2.19" />
                <rect class="cls-10" x="106.21" y="18.61" width="1.65" height="2.19" />
                <rect class="cls-11" x="108.83" y="18.61" width="1.65" height="2.19" />
                <rect class="cls-12" x="112.47" y="18.61" width="1.65" height="2.19" />
                <rect class="cls-13" x="115.53" y="18.61" width="1.65" height="2.19" />
                <rect class="cls-14" x="116.61" y="19.98" width="1.65" height="3.28"
                    transform="translate(95.81 139.05) rotate(-90)" />
                <rect class="cls-15" x="116.61" y="23.65" width="1.65" height="3.28"
                    transform="translate(92.14 142.72) rotate(-90)" />
                <rect class="cls-16" x="116.61" y="27.32" width="1.65" height="3.28"
                    transform="translate(88.47 146.39) rotate(-90)" />
                <rect class="cls-17" x="116.61" y="30.99" width="1.65" height="3.28"
                    transform="translate(84.81 150.06) rotate(-90)" />
                <rect class="cls-18" x="116.61" y="34.66" width="1.65" height="3.28"
                    transform="translate(81.14 153.73) rotate(-90)" />
                <rect class="cls-19" x="116.61" y="38.33" width="1.65" height="3.28"
                    transform="translate(77.47 157.4) rotate(-90)" />
                <rect class="cls-20" x="116.61" y="42" width="1.65" height="3.28"
                    transform="translate(73.8 161.06) rotate(-90)" />
                <rect class="cls-21" x="116.61" y="45.66" width="1.65" height="3.28"
                    transform="translate(70.13 164.73) rotate(-90)" />
                <rect class="cls-22" x="116.61" y="49.33" width="1.65" height="3.28"
                    transform="translate(66.46 168.4) rotate(-90)" />
                <rect class="cls-23" x="116.61" y="53" width="1.65" height="3.28"
                    transform="translate(62.79 172.07) rotate(-90)" />
                <rect class="cls-24" x="116.61" y="56.67" width="1.65" height="3.28"
                    transform="translate(59.12 175.74) rotate(-90)" />
                <rect class="cls-25" x="116.61" y="60.34" width="1.65" height="3.28"
                    transform="translate(55.45 179.41) rotate(-90)" />
                <rect class="cls-26" x="116.61" y="64.01" width="1.65" height="3.28"
                    transform="translate(51.78 183.08) rotate(-90)" />
                <rect class="cls-27" x="116.61" y="67.68" width="1.65" height="3.28"
                    transform="translate(48.11 186.75) rotate(-90)" />
                <rect class="cls-28" x="116.61" y="71.35" width="1.65" height="3.28"
                    transform="translate(44.44 190.42) rotate(-90)" />
                <rect class="cls-29" x="116.61" y="75.02" width="1.65" height="3.28"
                    transform="translate(40.77 194.09) rotate(-90)" />
                <rect class="cls-30" x="118.51" y="18.61" width="1.65" height="2.19" />
                <rect class="cls-31" x="121.39" y="18.61" width="1.65" height="2.19" />
                <rect class="cls-32" x="124.45" y="18.61" width="1.65" height="2.19" />
                <rect class="cls-33" x="130.64" y="18.61" width="1.65" height="2.19" />
                <rect class="cls-34" x="127.54" y="18.61" width="1.65" height="2.19" />
                <rect class="cls-35" y="83.93" width="150" height="5.83" />
                
            </g>
        </g>
    </g>
</svg>