<svg xmlns="http://www.w3.org/2000/svg" xmlns:xlink="http://www.w3.org/1999/xlink" viewBox="0 0 98.58 149.89">
    <defs>
        <style>
            .cls-1 {
                fill: url(#未命名的渐变_74);
            }

            .cls-2 {
                fill: #595757;
            }

            .cls-3 {
                fill: #eaeaea;
            }

            .cls-4 {
                fill: #efcd22;
            }

            .cls-5 {
                fill: #dc6d70;
            }

            .cls-6 {
                fill: #59b984;
            }

            .cls-7 {
                fill: #c1c1c1;
            }

            .cls-8 {
                fill: #52b47f;
            }

            .cls-9 {
                opacity: 0.2;
            }
        </style>
        <linearGradient id="未命名的渐变_74" y1="74.94" x2="98.58" y2="74.94" gradientUnits="userSpaceOnUse">
            <stop offset="0" stop-color="#6b6b6b" />
            <stop offset="0.01" stop-color="#767676" />
            <stop offset="0.03" stop-color="#959595" />
            <stop offset="0.04" stop-color="#aaa" />
            <stop offset="0.37" stop-color="#ccc" />
            <stop offset="0.74" stop-color="#eaeaea" />
            <stop offset="0.94" stop-color="#f6f6f6" />
            <stop offset="0.95" stop-color="#ededed" />
            <stop offset="0.96" stop-color="#d4d4d4" />
            <stop offset="0.97" stop-color="#ababab" />
            <stop offset="0.99" stop-color="#737373" />
            <stop offset="0.99" stop-color="#666" />
        </linearGradient>
    </defs>
    <title>Power monitor（电源监视器）</title>
    <g id="图层_2" data-name="图层 2">
        <g id="图层_59" data-name="图层 59">
            <g id="Power_monitor_电源监视器_" data-name="Power monitor（电源监视器）">
                <rect class="cls-1" width="98.58" height="149.89" rx="0.35" />
                <rect class="cls-2" x="8.97" y="15.09" width="80.09" height="40.5" />
                <rect class="cls-3" x="11.17" y="17.18" width="75.42" height="36.23" />
                <circle class="cls-4" cx="24.72" cy="7.97" r="2.46" />
                <circle class="cls-5" cx="48.77" cy="7.97" r="2.46" />
                <circle class="cls-6" cx="72.71" cy="7.97" r="2.46" />
                <rect class="cls-5" x="11.17" y="65.82" width="15.23" height="7.64" rx="0.99" />
                <rect class="cls-7" x="11.09" y="87.08" width="15.26" height="7.64" rx="0.99" />
                <rect class="cls-7" x="31.51" y="87.08" width="15.65" height="7.64" rx="0.99" />
                <rect class="cls-7" x="51.57" y="87.08" width="15.93" height="7.64" rx="0.99" />
                <rect class="cls-7" x="72.97" y="87.08" width="15.26" height="7.64" rx="0.99" />
                <rect class="cls-7" x="11.09" y="101.25" width="15.26" height="7.64" rx="0.99" />
                <rect class="cls-7" x="31.51" y="101.25" width="15.65" height="7.64" rx="0.99" />
                <rect class="cls-7" x="51.57" y="101.25" width="15.93" height="7.64" rx="0.99" />
                <rect class="cls-7" x="72.97" y="101.25" width="15.26" height="7.64" rx="0.99" />
                <rect class="cls-7" x="11.09" y="115.42" width="15.26" height="7.64" rx="0.99" />
                <rect class="cls-7" x="31.51" y="115.42" width="15.65" height="7.64" rx="0.99" />
                <rect class="cls-7" x="51.57" y="115.42" width="15.93" height="7.64" rx="0.99" />
                <rect class="cls-7" x="72.97" y="115.42" width="15.26" height="7.64" rx="0.99" />
                <rect class="cls-7" x="11.09" y="129.05" width="15.26" height="7.64" rx="0.99" />
                <rect class="cls-7" x="31.51" y="129.05" width="15.65" height="7.64" rx="0.99" />
                <rect class="cls-7" x="51.57" y="129.05" width="15.93" height="7.64" rx="0.99" />
                <rect class="cls-7" x="72.97" y="129.05" width="15.26" height="7.64" rx="0.99" />
                <rect class="cls-8" x="72.82" y="66.93" width="15.49" height="7.64" rx="0.99" />
                <polygon class="cls-7"
                    points="60.23 69.95 38.35 69.95 38.35 65.85 41.41 63.02 56.78 63.02 60.23 65.72 60.23 69.95" />
                <polygon class="cls-7"
                    points="60.23 71.89 38.35 71.89 38.35 75.79 41.41 78.49 56.78 78.49 60.23 75.91 60.23 71.89" />
                
            </g>
        </g>
    </g>
</svg>