<svg xmlns="http://www.w3.org/2000/svg" xmlns:xlink="http://www.w3.org/1999/xlink" viewBox="0 0 78.18 149.83">
    <defs>
        <style>
            .cls-1 {
                fill: url(#未命名的渐变_67);
            }

            .cls-2 {
                fill: url(#未命名的渐变_67-2);
            }

            .cls-3 {
                fill: url(#未命名的渐变_67-3);
            }

            .cls-4 {
                fill: url(#未命名的渐变_67-4);
            }

            .cls-5 {
                fill: url(#未命名的渐变_67-5);
            }

            .cls-6 {
                fill: url(#未命名的渐变_67-6);
            }

            .cls-7 {
                fill: url(#未命名的渐变_67-7);
            }

            .cls-8 {
                fill: url(#未命名的渐变_67-8);
            }

            .cls-9 {
                fill: url(#未命名的渐变_67-9);
            }

            .cls-10 {
                fill: url(#未命名的渐变_67-10);
            }

            .cls-11 {
                fill: url(#未命名的渐变_67-11);
            }

            .cls-12 {
                fill: url(#未命名的渐变_67-12);
            }

            .cls-13 {
                fill: url(#未命名的渐变_67-13);
            }

            .cls-14 {
                fill: url(#未命名的渐变_67-14);
            }

            .cls-15 {
                fill: url(#未命名的渐变_67-15);
            }

            .cls-16 {
                fill: url(#未命名的渐变_67-16);
            }

            .cls-17 {
                fill: url(#未命名的渐变_67-17);
            }

            .cls-18 {
                fill: url(#未命名的渐变_67-18);
            }

            .cls-19 {
                fill: url(#未命名的渐变_67-19);
            }

            .cls-20 {
                fill: url(#未命名的渐变_67-20);
            }

            .cls-21 {
                fill: url(#未命名的渐变_67-21);
            }

            .cls-22 {
                fill: url(#未命名的渐变_67-22);
            }

            .cls-23 {
                fill: url(#未命名的渐变_67-23);
            }

            .cls-24 {
                fill: url(#未命名的渐变_67-24);
            }

            .cls-25 {
                fill: url(#未命名的渐变_67-25);
            }

            .cls-26 {
                fill: url(#未命名的渐变_67-26);
            }

            .cls-27 {
                fill: url(#未命名的渐变_105);
            }

            .cls-28 {
                fill: url(#未命名的渐变_105-2);
            }

            .cls-29 {
                fill: url(#未命名的渐变_105-3);
            }

            .cls-30 {
                fill: url(#未命名的渐变_105-4);
            }

            .cls-31 {
                fill: url(#未命名的渐变_105-5);
            }

            .cls-32 {
                fill: url(#未命名的渐变_105-6);
            }

            .cls-33 {
                fill: url(#未命名的渐变_74);
            }

            .cls-34 {
                fill: #282828;
            }

            .cls-35 {
                fill: url(#未命名的渐变_105-7);
            }

            .cls-36 {
                fill: url(#未命名的渐变_105-8);
            }

            .cls-37 {
                opacity: 0.2;
            }
        </style>
        <linearGradient id="未命名的渐变_67" x1="22.88" y1="33.57" x2="34.99" y2="33.57"
            gradientTransform="translate(-18.49 -32.43) scale(1 1.03)" gradientUnits="userSpaceOnUse">
            <stop offset="0" stop-color="#6b6b6b" />
            <stop offset="0.11" stop-color="#767676" />
            <stop offset="0.3" stop-color="#959595" />
            <stop offset="0.41" stop-color="#aaa" />
            <stop offset="0.56" stop-color="#ccc" />
            <stop offset="0.71" stop-color="#eaeaea" />
            <stop offset="0.8" stop-color="#f6f6f6" />
            <stop offset="0.83" stop-color="#ededed" />
            <stop offset="0.87" stop-color="#d4d4d4" />
            <stop offset="0.92" stop-color="#ababab" />
            <stop offset="0.98" stop-color="#737373" />
            <stop offset="0.99" stop-color="#666" />
        </linearGradient>
        <linearGradient id="未命名的渐变_67-2" x1="22.88" y1="86.93" x2="34.99" y2="86.93"
            gradientTransform="translate(-9.76 -33.13) scale(1 1.03)" xlink:href="#未命名的渐变_67" />
        <linearGradient id="未命名的渐变_67-3" x1="24.99" y1="60.25" x2="32.91" y2="60.25"
            gradientTransform="translate(-14.12 -32.78) scale(1 1.03)" xlink:href="#未命名的渐变_67" />
        <linearGradient id="未命名的渐变_67-4" x1="17.68" y1="38.25" x2="40.6" y2="38.25"
            gradientTransform="matrix(0.98, -0.16, 0.16, 1.02, -23.61, -27.42)" xlink:href="#未命名的渐变_67" />
        <linearGradient id="未命名的渐变_67-5" x1="17.68" y1="43.13" x2="40.6" y2="43.13"
            gradientTransform="matrix(0.98, -0.16, 0.16, 1.02, -23.61, -27.42)" xlink:href="#未命名的渐变_67" />
        <linearGradient id="未命名的渐变_67-6" x1="17.68" y1="48.02" x2="40.6" y2="48.02"
            gradientTransform="matrix(0.98, -0.16, 0.16, 1.02, -23.61, -27.42)" xlink:href="#未命名的渐变_67" />
        <linearGradient id="未命名的渐变_67-7" x1="17.68" y1="52.91" x2="40.6" y2="52.91"
            gradientTransform="matrix(0.98, -0.16, 0.16, 1.02, -23.61, -27.42)" xlink:href="#未命名的渐变_67" />
        <linearGradient id="未命名的渐变_67-8" x1="17.68" y1="57.79" x2="40.6" y2="57.79"
            gradientTransform="matrix(0.98, -0.16, 0.16, 1.02, -23.61, -27.42)" xlink:href="#未命名的渐变_67" />
        <linearGradient id="未命名的渐变_67-9" x1="17.68" y1="62.68" x2="40.6" y2="62.68"
            gradientTransform="matrix(0.98, -0.16, 0.16, 1.02, -23.61, -27.42)" xlink:href="#未命名的渐变_67" />
        <linearGradient id="未命名的渐变_67-10" x1="17.68" y1="67.57" x2="40.6" y2="67.57"
            gradientTransform="matrix(0.98, -0.16, 0.16, 1.02, -23.61, -27.42)" xlink:href="#未命名的渐变_67" />
        <linearGradient id="未命名的渐变_67-11" x1="17.68" y1="72.45" x2="40.6" y2="72.45"
            gradientTransform="matrix(0.98, -0.16, 0.16, 1.02, -23.61, -27.42)" xlink:href="#未命名的渐变_67" />
        <linearGradient id="未命名的渐变_67-12" x1="17.68" y1="77.34" x2="40.6" y2="77.34"
            gradientTransform="matrix(0.98, -0.16, 0.16, 1.02, -23.61, -27.42)" xlink:href="#未命名的渐变_67" />
        <linearGradient id="未命名的渐变_67-13" x1="17.68" y1="82.23" x2="40.6" y2="82.23"
            gradientTransform="matrix(0.98, -0.16, 0.16, 1.02, -23.61, -27.42)" xlink:href="#未命名的渐变_67" />
        <linearGradient id="未命名的渐变_67-14" x1="-387.59" y1="-30.21" x2="-375.49" y2="-30.21"
            gradientTransform="matrix(1, 0, 0, -1.03, 447.67, -28.96)" xlink:href="#未命名的渐变_67" />
        <linearGradient id="未命名的渐变_67-15" x1="-387.59" y1="23.15" x2="-375.49" y2="23.15"
            gradientTransform="matrix(1, 0, 0, -1.03, 438.94, 80.26)" xlink:href="#未命名的渐变_67" />
        <linearGradient id="未命名的渐变_67-16" x1="-385.49" y1="-3.53" x2="-377.56" y2="-3.53"
            gradientTransform="matrix(1, 0, 0, -1.03, 443.28, 25.65)" xlink:href="#未命名的渐变_67" />
        <linearGradient id="未命名的渐变_67-17" x1="-392.79" y1="-25.53" x2="-369.87" y2="-25.53"
            gradientTransform="matrix(-0.98, -0.16, -0.16, 1.02, -312.06, -27.42)" xlink:href="#未命名的渐变_67" />
        <linearGradient id="未命名的渐变_67-18" x1="-392.79" y1="-20.65" x2="-369.87" y2="-20.65"
            gradientTransform="matrix(-0.98, -0.16, -0.16, 1.02, -312.06, -27.42)" xlink:href="#未命名的渐变_67" />
        <linearGradient id="未命名的渐变_67-19" x1="-392.79" y1="-15.76" x2="-369.87" y2="-15.76"
            gradientTransform="matrix(-0.98, -0.16, -0.16, 1.02, -312.06, -27.42)" xlink:href="#未命名的渐变_67" />
        <linearGradient id="未命名的渐变_67-20" x1="-392.79" y1="-10.87" x2="-369.87" y2="-10.87"
            gradientTransform="matrix(-0.98, -0.16, -0.16, 1.02, -312.06, -27.42)" xlink:href="#未命名的渐变_67" />
        <linearGradient id="未命名的渐变_67-21" x1="-392.79" y1="-5.99" x2="-369.87" y2="-5.99"
            gradientTransform="matrix(-0.98, -0.16, -0.16, 1.02, -312.06, -27.42)" xlink:href="#未命名的渐变_67" />
        <linearGradient id="未命名的渐变_67-22" x1="-392.79" y1="-1.1" x2="-369.87" y2="-1.1"
            gradientTransform="matrix(-0.98, -0.16, -0.16, 1.02, -312.06, -27.42)" xlink:href="#未命名的渐变_67" />
        <linearGradient id="未命名的渐变_67-23" x1="-392.79" y1="3.79" x2="-369.87" y2="3.79"
            gradientTransform="matrix(-0.98, -0.16, -0.16, 1.02, -312.06, -27.42)" xlink:href="#未命名的渐变_67" />
        <linearGradient id="未命名的渐变_67-24" x1="-392.79" y1="8.67" x2="-369.87" y2="8.67"
            gradientTransform="matrix(-0.98, -0.16, -0.16, 1.02, -312.06, -27.42)" xlink:href="#未命名的渐变_67" />
        <linearGradient id="未命名的渐变_67-25" x1="-392.79" y1="13.56" x2="-369.87" y2="13.56"
            gradientTransform="matrix(-0.98, -0.16, -0.16, 1.02, -312.06, -27.42)" xlink:href="#未命名的渐变_67" />
        <linearGradient id="未命名的渐变_67-26" x1="-392.79" y1="18.44" x2="-369.87" y2="18.44"
            gradientTransform="matrix(-0.98, -0.16, -0.16, 1.02, -312.06, -27.42)" xlink:href="#未命名的渐变_67" />
        <linearGradient id="未命名的渐变_105" x1="8.52" y1="103.25" x2="69.2" y2="103.25" gradientUnits="userSpaceOnUse">
            <stop offset="0" stop-color="#e2e2e2" />
            <stop offset="0.03" stop-color="#d0d0d0" />
            <stop offset="0.06" stop-color="#bcbcbc" />
            <stop offset="0.09" stop-color="#b5b5b5" />
            <stop offset="0.49" stop-color="#f6f6f6" />
            <stop offset="0.63" stop-color="#f3f3f3" />
            <stop offset="0.73" stop-color="#eaeaea" />
            <stop offset="0.82" stop-color="#dbdbdb" />
            <stop offset="0.9" stop-color="#c6c6c6" />
            <stop offset="0.97" stop-color="#aaa" />
            <stop offset="1" stop-color="#9b9b9b" />
        </linearGradient>
        <linearGradient id="未命名的渐变_105-2" x1="131.37" y1="200.59" x2="131.37" y2="198.54"
            gradientTransform="translate(-43.95 -128.58) scale(0.74 1)" xlink:href="#未命名的渐变_105" />
        <linearGradient id="未命名的渐变_105-3" x1="36.26" y1="301.97" x2="36.26" y2="299.92"
            gradientTransform="matrix(0.74, 0, 0, -1, 26.37, 390.75)" xlink:href="#未命名的渐变_105" />
        <linearGradient id="未命名的渐变_105-4" x1="-311.47" y1="-60.41" x2="-311.47" y2="-62.46"
            gradientTransform="matrix(0.74, 0, 0, -0.8, 256.83, 21.73)" xlink:href="#未命名的渐变_105" />
        <linearGradient id="未命名的渐变_105-5" x1="-395.72" y1="51.79" x2="-395.72" y2="49.74"
            gradientTransform="translate(319.53 49.48) scale(0.74 0.8)" xlink:href="#未命名的渐变_105" />
        <linearGradient id="未命名的渐变_105-6" x1="4.34" y1="54.2" x2="73.28" y2="54.2" xlink:href="#未命名的渐变_105" />
        <linearGradient id="未命名的渐变_74" x1="29.32" y1="80.42" x2="50.12" y2="80.42" gradientUnits="userSpaceOnUse">
            <stop offset="0" stop-color="#6b6b6b" />
            <stop offset="0.01" stop-color="#767676" />
            <stop offset="0.03" stop-color="#959595" />
            <stop offset="0.04" stop-color="#aaa" />
            <stop offset="0.37" stop-color="#ccc" />
            <stop offset="0.74" stop-color="#eaeaea" />
            <stop offset="0.94" stop-color="#f6f6f6" />
            <stop offset="0.95" stop-color="#ededed" />
            <stop offset="0.96" stop-color="#d4d4d4" />
            <stop offset="0.97" stop-color="#ababab" />
            <stop offset="0.99" stop-color="#737373" />
            <stop offset="0.99" stop-color="#666" />
        </linearGradient>
        <linearGradient id="未命名的渐变_105-7" x1="11.91" y1="148.31" x2="24.98" y2="148.31" xlink:href="#未命名的渐变_105" />
        <linearGradient id="未命名的渐变_105-8" x1="53.69" y1="148.31" x2="66.76" y2="148.31" xlink:href="#未命名的渐变_105" />
    </defs>
    <title>Recloser（重合闸）</title>
    <g id="图层_2" data-name="图层 2">
        <g id="图层_59" data-name="图层 59">
            <g id="Recloser_重合闸_" data-name="Recloser（重合闸）">
                <rect class="cls-1" x="4.29" y="0.9" width="12.05" height="2.52" rx="0.32"
                    transform="translate(-0.21 1.67) rotate(-9.13)" />
                <rect class="cls-2" x="13.02" y="55.16" width="12.05" height="2.52" rx="0.32"
                    transform="translate(-8.71 3.74) rotate(-9.13)" />
                <rect class="cls-3" x="10.75" y="3.06" width="7.89" height="52.44"
                    transform="translate(-4.46 2.7) rotate(-9.13)" />
                <polygon class="cls-4" points="22.73 6.22 0.21 9.85 0 8.54 7.43 6.3 14.74 5.13 22.52 4.88 22.73 6.22" />
                <polygon class="cls-5"
                    points="23.53 11.19 1.01 14.81 0.8 13.51 8.23 11.27 15.54 10.1 23.31 9.85 23.53 11.19" />
                <polygon class="cls-6"
                    points="24.33 16.16 1.81 19.79 1.6 18.48 9.03 16.24 16.33 15.06 24.11 14.81 24.33 16.16" />
                <polygon class="cls-7"
                    points="25.13 21.13 2.61 24.75 2.4 23.45 9.82 21.21 17.13 20.03 24.91 19.78 25.13 21.13" />
                <polygon class="cls-8"
                    points="25.93 26.1 3.4 29.72 3.2 28.42 10.62 26.18 17.93 25 25.71 24.75 25.93 26.1" />
                <polygon class="cls-9"
                    points="26.73 31.07 4.2 34.69 4 33.39 11.42 31.15 18.73 29.97 26.51 29.72 26.73 31.07" />
                <polygon class="cls-10"
                    points="27.53 36.04 5 39.66 4.79 38.36 12.22 36.12 19.53 34.94 27.31 34.69 27.53 36.04" />
                <polygon class="cls-11"
                    points="28.32 41.01 5.8 44.63 5.59 43.33 13.02 41.09 20.33 39.91 28.11 39.66 28.32 41.01" />
                <polygon class="cls-12"
                    points="29.12 45.98 6.6 49.6 6.39 48.3 13.82 46.06 21.13 44.88 28.91 44.63 29.12 45.98" />
                <polygon class="cls-13"
                    points="29.92 50.95 7.4 54.57 7.19 53.27 14.62 51.03 21.93 49.85 29.71 49.6 29.92 50.95" />
                <rect class="cls-14" x="61.84" y="0.89" width="12.05" height="2.52" rx="0.32"
                    transform="translate(134.53 15.05) rotate(-170.87)" />
                <rect class="cls-15" x="53.12" y="55.16" width="12.05" height="2.52" rx="0.32"
                    transform="translate(108.58 121.5) rotate(-170.87)" />
                <rect class="cls-16" x="59.55" y="3.06" width="7.89" height="52.44"
                    transform="translate(121.53 68.27) rotate(-170.87)" />
                <polygon class="cls-17"
                    points="55.45 6.22 77.97 9.84 78.18 8.54 70.75 6.3 63.45 5.12 55.67 4.87 55.45 6.22" />
                <polygon class="cls-18"
                    points="54.65 11.19 77.17 14.81 77.38 13.51 69.95 11.27 62.65 10.09 54.87 9.84 54.65 11.19" />
                <polygon class="cls-19"
                    points="53.85 16.16 76.38 19.78 76.58 18.48 69.16 16.24 61.85 15.06 54.07 14.81 53.85 16.16" />
                <polygon class="cls-20"
                    points="53.05 21.13 75.58 24.75 75.78 23.45 68.36 21.21 61.05 20.03 53.27 19.78 53.05 21.13" />
                <polygon class="cls-21"
                    points="52.26 26.1 74.78 29.72 74.99 28.42 67.56 26.18 60.25 25 52.47 24.75 52.26 26.1" />
                <polygon class="cls-22"
                    points="51.46 31.07 73.98 34.69 74.19 33.39 66.76 31.14 59.45 29.97 51.67 29.72 51.46 31.07" />
                <polygon class="cls-23"
                    points="50.66 36.04 73.18 39.66 73.39 38.36 65.96 36.12 58.65 34.94 50.87 34.69 50.66 36.04" />
                <polygon class="cls-24"
                    points="49.86 41.01 72.38 44.63 72.59 43.33 65.16 41.09 57.85 39.91 50.08 39.66 49.86 41.01" />
                <polygon class="cls-25"
                    points="49.06 45.98 71.58 49.6 71.79 48.3 64.36 46.05 57.05 44.88 49.28 44.63 49.06 45.98" />
                <polygon class="cls-26"
                    points="48.26 50.95 70.78 54.57 70.99 53.27 63.56 51.02 56.26 49.85 48.48 49.6 48.26 50.95" />
                <rect class="cls-27" x="8.52" y="59.7" width="60.68" height="87.1" />
                <rect class="cls-28" x="47.51" y="69.96" width="11.81" height="2.05"
                    transform="translate(-30.46 41.72) rotate(-33.8)" />
                <rect class="cls-29" x="47.34" y="88.79" width="11.81" height="2.05"
                    transform="matrix(0.81, 0.59, -0.59, 0.81, 62.62, -14.18)" />
                <rect class="cls-30" x="20.07" y="69.97" width="11.81" height="1.64"
                    transform="translate(8.18 144.07) rotate(-146.2)" />
                <rect class="cls-31" x="20.33" y="89.21" width="11.81" height="1.64"
                    transform="translate(100.21 147.65) rotate(144.17)" />
                <rect class="cls-32" x="4.34" y="48.7" width="68.94" height="11" />
                <rect class="cls-33" x="29.32" y="73.52" width="20.8" height="13.78" />
                <rect class="cls-34" x="32.48" y="76.72" width="14.15" height="7.26" />
                <rect class="cls-35" x="11.91" y="146.8" width="13.07" height="3.04" />
                <rect class="cls-36" x="53.69" y="146.8" width="13.07" height="3.04" />
                
            </g>
        </g>
    </g>
</svg>