<svg xmlns="http://www.w3.org/2000/svg" xmlns:xlink="http://www.w3.org/1999/xlink" viewBox="0 0 150 126.09">
    <defs>
        <style>
            .cls-1 {
                fill: url(#未命名的渐变_74);
            }

            .cls-2 {
                fill: #353535;
            }

            .cls-3 {
                fill: #c1c1c1;
            }

            .cls-4 {
                fill: #e7e7e7;
            }

            .cls-5 {
                fill: #9e9e9e;
            }

            .cls-6 {
                opacity: 0.2;
            }
        </style>
        <linearGradient id="未命名的渐变_74" x1="45.76" y1="63.05" x2="104.24" y2="63.05" gradientUnits="userSpaceOnUse">
            <stop offset="0" stop-color="#6b6b6b" />
            <stop offset="0.01" stop-color="#767676" />
            <stop offset="0.03" stop-color="#959595" />
            <stop offset="0.04" stop-color="#aaa" />
            <stop offset="0.37" stop-color="#ccc" />
            <stop offset="0.74" stop-color="#eaeaea" />
            <stop offset="0.94" stop-color="#f6f6f6" />
            <stop offset="0.95" stop-color="#ededed" />
            <stop offset="0.96" stop-color="#d4d4d4" />
            <stop offset="0.97" stop-color="#ababab" />
            <stop offset="0.99" stop-color="#737373" />
            <stop offset="0.99" stop-color="#666" />
        </linearGradient>
    </defs>
    <title>Rectifier 1（整流器）</title>
    <g id="图层_2" data-name="图层 2">
        <g id="图层_59" data-name="图层 59">
            <g id="Rectifier_1_整流器_" data-name="Rectifier 1（整流器）">
                <rect class="cls-1" x="45.76" width="58.48" height="126.09" />
                <rect class="cls-2" x="48.64" y="3.57" width="52.33" height="119.1" />
                <rect class="cls-3" x="50.02" y="4.65" width="49.55" height="116.53" />
                <rect class="cls-4" x="76.86" y="11.99" width="14.55" height="3.47" />
                <rect class="cls-5" x="104.24" y="4.02" width="45.76" height="5.48" />
                <rect class="cls-5" x="104.24" y="12.72" width="45.76" height="5.48" />
                <rect class="cls-5" x="104.24" y="21.43" width="45.76" height="5.48" />
                <rect class="cls-5" x="104.24" y="30.14" width="45.76" height="5.48" />
                <rect class="cls-5" x="104.24" y="38.84" width="45.76" height="5.48" />
                <rect class="cls-5" x="104.24" y="47.55" width="45.76" height="5.48" />
                <rect class="cls-5" x="104.24" y="56.26" width="45.76" height="5.48" />
                <rect class="cls-5" x="104.24" y="64.96" width="45.76" height="5.48" />
                <rect class="cls-5" x="104.24" y="73.67" width="45.76" height="5.48" />
                <rect class="cls-5" x="104.24" y="82.38" width="45.76" height="5.48" />
                <rect class="cls-5" x="104.24" y="91.08" width="45.76" height="5.48" />
                <rect class="cls-5" x="104.24" y="99.79" width="45.76" height="5.48" />
                <rect class="cls-5" x="104.24" y="108.49" width="45.76" height="5.48" />
                <rect class="cls-5" x="104.24" y="117.2" width="45.76" height="5.48" />
                <rect class="cls-5" y="3.79" width="45.76" height="5.48" />
                <rect class="cls-5" y="12.49" width="45.76" height="5.48" />
                <rect class="cls-5" y="21.2" width="45.76" height="5.48" />
                <rect class="cls-5" y="29.91" width="45.76" height="5.48" />
                <rect class="cls-5" y="38.61" width="45.76" height="5.48" />
                <rect class="cls-5" y="47.32" width="45.76" height="5.48" />
                <rect class="cls-5" y="56.03" width="45.76" height="5.48" />
                <rect class="cls-5" y="64.73" width="45.76" height="5.48" />
                <rect class="cls-5" y="73.44" width="45.76" height="5.48" />
                <rect class="cls-5" y="82.15" width="45.76" height="5.48" />
                <rect class="cls-5" y="90.85" width="45.76" height="5.48" />
                <rect class="cls-5" y="99.56" width="45.76" height="5.48" />
                <rect class="cls-5" y="108.26" width="45.76" height="5.48" />
                <rect class="cls-5" y="116.97" width="45.76" height="5.48" />
                <rect class="cls-4" x="58.25" y="110.82" width="14.55" height="3.47" />
                <rect class="cls-4" x="50.63" y="15.94" width="14.55" height="3.47"
                    transform="translate(75.58 -40.23) rotate(90)" />
                <rect class="cls-4" x="84.58" y="103.27" width="14.55" height="3.47"
                    transform="translate(196.85 13.16) rotate(90)" />
                
            </g>
        </g>
    </g>
</svg>