<svg xmlns="http://www.w3.org/2000/svg" xmlns:xlink="http://www.w3.org/1999/xlink" viewBox="0 0 150 100.5">
    <defs>
        <style>
            .cls-1 {
                fill: url(#未命名的渐变_74);
            }

            .cls-2 {
                fill: #3e3938;
            }

            .cls-3 {
                fill: url(#未命名的渐变_105);
            }

            .cls-4 {
                fill: url(#未命名的渐变_105-2);
            }

            .cls-5 {
                fill: url(#未命名的渐变_105-3);
            }

            .cls-6 {
                opacity: 0.2;
            }
        </style>
        <linearGradient id="未命名的渐变_74" x1="7.09" y1="50.25" x2="142.71" y2="50.25" gradientUnits="userSpaceOnUse">
            <stop offset="0" stop-color="#6b6b6b" />
            <stop offset="0.01" stop-color="#767676" />
            <stop offset="0.03" stop-color="#959595" />
            <stop offset="0.04" stop-color="#aaa" />
            <stop offset="0.37" stop-color="#ccc" />
            <stop offset="0.74" stop-color="#eaeaea" />
            <stop offset="0.94" stop-color="#f6f6f6" />
            <stop offset="0.95" stop-color="#ededed" />
            <stop offset="0.96" stop-color="#d4d4d4" />
            <stop offset="0.97" stop-color="#ababab" />
            <stop offset="0.99" stop-color="#737373" />
            <stop offset="0.99" stop-color="#666" />
        </linearGradient>
        <linearGradient id="未命名的渐变_105" x1="11.46" y1="95.64" x2="16.56" y2="95.64" gradientUnits="userSpaceOnUse">
            <stop offset="0" stop-color="#e2e2e2" />
            <stop offset="0.03" stop-color="#d0d0d0" />
            <stop offset="0.06" stop-color="#bcbcbc" />
            <stop offset="0.09" stop-color="#b5b5b5" />
            <stop offset="0.49" stop-color="#f6f6f6" />
            <stop offset="0.63" stop-color="#f3f3f3" />
            <stop offset="0.73" stop-color="#eaeaea" />
            <stop offset="0.82" stop-color="#dbdbdb" />
            <stop offset="0.9" stop-color="#c6c6c6" />
            <stop offset="0.97" stop-color="#aaa" />
            <stop offset="1" stop-color="#9b9b9b" />
        </linearGradient>
        <linearGradient id="未命名的渐变_105-2" x1="75" y1="19.39" x2="75" y2="17.69" xlink:href="#未命名的渐变_105" />
        <linearGradient id="未命名的渐变_105-3" x1="75" y1="21.8" x2="75" y2="20.1" xlink:href="#未命名的渐变_105" />
    </defs>
    <title>SCR assembly（scr组件）</title>
    <g id="图层_2" data-name="图层 2">
        <g id="图层_59" data-name="图层 59">
            <g id="SCR_assembly_scr组件_" data-name="SCR assembly（scr组件）">
                <rect class="cls-1" x="7.09" width="135.61" height="100.5" />
                <circle class="cls-2" cx="14.01" cy="95.64" r="4" />
                <circle class="cls-3" cx="14.01" cy="95.64" r="2.55" />
                <rect x="12.14" y="95.28" width="3.73" height="0.72" rx="0.05"
                    transform="translate(71.73 18.11) rotate(45)" />
                <rect x="12.14" y="95.28" width="3.73" height="0.72" rx="0.05"
                    transform="translate(-63.53 37.92) rotate(-45)" />
                <rect class="cls-4" y="17.69" width="150" height="1.7" rx="0.23" />
                <rect class="cls-5" y="20.1" width="150" height="1.7" rx="0.23" />
                <rect class="cls-2" x="16.98" y="37" width="17.77" height="2.73" rx="0.36" />
                <rect class="cls-2" x="16.98" y="32.3" width="17.77" height="2.73" rx="0.36" />
                <rect class="cls-2" x="16.98" y="41.7" width="17.77" height="2.73" rx="0.36" />
                <rect class="cls-2" x="16.98" y="46.4" width="17.77" height="2.73" rx="0.36" />
                <rect class="cls-2" x="16.98" y="51.1" width="17.77" height="2.73" rx="0.36" />
                <rect class="cls-2" x="16.98" y="55.8" width="17.77" height="2.73" rx="0.36" />
                <rect class="cls-2" x="16.98" y="65.41" width="17.77" height="2.73" rx="0.36" />
                <rect class="cls-2" x="16.98" y="70.11" width="17.77" height="2.73" rx="0.36" />
                <rect class="cls-2" x="16.98" y="74.81" width="17.77" height="2.73" rx="0.36" />
                <rect class="cls-2" x="16.98" y="79.51" width="17.77" height="2.73" rx="0.36" />
                <rect class="cls-2" x="16.98" y="84.21" width="17.77" height="2.73" rx="0.36" />
                <rect class="cls-2" x="16.98" y="88.91" width="17.77" height="2.73" rx="0.36" />
                <rect class="cls-2" x="41.63" y="65.41" width="17.77" height="2.73" rx="0.36" />
                <rect class="cls-2" x="41.63" y="70.11" width="17.77" height="2.73" rx="0.36" />
                <rect class="cls-2" x="41.63" y="74.81" width="17.77" height="2.73" rx="0.36" />
                <rect class="cls-2" x="41.63" y="79.51" width="17.77" height="2.73" rx="0.36" />
                <rect class="cls-2" x="41.63" y="84.21" width="17.77" height="2.73" rx="0.36" />
                <rect class="cls-2" x="38.73" y="96.93" width="71.79" height="3.57" />
                <rect class="cls-2" x="41.63" y="32.3" width="17.77" height="2.73" rx="0.36" />
                <rect class="cls-2" x="41.63" y="37" width="17.77" height="2.73" rx="0.36" />
                <rect class="cls-2" x="41.63" y="41.7" width="17.77" height="2.73" rx="0.36" />
                <rect class="cls-2" x="41.63" y="46.4" width="17.77" height="2.73" rx="0.36" />
                <rect class="cls-2" x="41.63" y="51.1" width="17.77" height="2.73" rx="0.36" />
                <rect class="cls-2" x="41.63" y="55.8" width="17.77" height="2.73" rx="0.36" />
                <rect class="cls-2" x="89.78" y="32.3" width="17.77" height="2.73" rx="0.36" />
                <rect class="cls-2" x="89.78" y="37" width="17.77" height="2.73" rx="0.36" />
                <rect class="cls-2" x="89.78" y="41.7" width="17.77" height="2.73" rx="0.36" />
                <rect class="cls-2" x="89.78" y="46.4" width="17.77" height="2.73" rx="0.36" />
                <rect class="cls-2" x="89.78" y="51.1" width="17.77" height="2.73" rx="0.36" />
                <rect class="cls-2" x="89.78" y="55.8" width="17.77" height="2.73" rx="0.36" />
                <rect class="cls-2" x="89.78" y="65.41" width="17.77" height="2.73" rx="0.36" />
                <rect class="cls-2" x="89.78" y="70.11" width="17.77" height="2.73" rx="0.36" />
                <rect class="cls-2" x="89.78" y="74.81" width="17.77" height="2.73" rx="0.36" />
                <rect class="cls-2" x="89.78" y="79.51" width="17.77" height="2.73" rx="0.36" />
                <rect class="cls-2" x="89.78" y="84.21" width="17.77" height="2.73" rx="0.36" />
                <rect class="cls-2" x="89.78" y="88.91" width="17.77" height="2.73" rx="0.36" />
                <rect class="cls-2" x="114.42" y="65.41" width="17.77" height="2.73" rx="0.36" />
                <rect class="cls-2" x="114.42" y="70.11" width="17.77" height="2.73" rx="0.36" />
                <rect class="cls-2" x="114.42" y="74.81" width="17.77" height="2.73" rx="0.36" />
                <rect class="cls-2" x="114.42" y="79.51" width="17.77" height="2.73" rx="0.36" />
                <rect class="cls-2" x="114.42" y="84.21" width="17.77" height="2.73" rx="0.36" />
                <rect class="cls-2" x="114.42" y="88.91" width="17.77" height="2.73" rx="0.36" />
                <rect class="cls-2" x="114.42" y="32.3" width="17.77" height="2.73" rx="0.36" />
                <rect class="cls-2" x="114.42" y="37" width="17.77" height="2.73" rx="0.36" />
                <rect class="cls-2" x="114.42" y="41.7" width="17.77" height="2.73" rx="0.36" />
                <rect class="cls-2" x="114.42" y="46.4" width="17.77" height="2.73" rx="0.36" />
                <rect class="cls-2" x="114.42" y="51.1" width="17.77" height="2.73" rx="0.36" />
                <rect class="cls-2" x="114.42" y="55.8" width="17.77" height="2.73" rx="0.36" />
               
            </g>
        </g>
    </g>
</svg>