<svg xmlns="http://www.w3.org/2000/svg" xmlns:xlink="http://www.w3.org/1999/xlink" viewBox="0 0 149.59 138.22">
    <defs>
        <style>
            .cls-1 {
                fill: #3e3938;
            }

            .cls-2 {
                fill: url(#未命名的渐变_74);
            }

            .cls-3 {
                fill: url(#未命名的渐变_74-2);
            }

            .cls-4 {
                fill: url(#未命名的渐变_74-3);
            }

            .cls-5 {
                fill: url(#未命名的渐变_74-4);
            }

            .cls-6 {
                fill: #bab9ba;
            }

            .cls-7 {
                fill: url(#未命名的渐变_85);
            }

            .cls-8 {
                fill: url(#未命名的渐变_85-2);
            }

            .cls-9 {
                fill: url(#未命名的渐变_85-3);
            }

            .cls-10 {
                fill: #fff;
            }

            .cls-11 {
                fill: #eaeaea;
            }

            .cls-12 {
                fill: #7f7f7f;
            }

            .cls-13 {
                fill: #c1c1c1;
                opacity: 0.51;
            }

            .cls-14 {
                fill: none;
                stroke: #7f7f7f;
                stroke-miterlimit: 10;
                stroke-width: 0.25px;
            }

            .cls-15 {
                fill: #dedede;
            }

            .cls-16 {
                fill: #d34c5a;
            }

            .cls-17 {
                fill: #504e4e;
            }

            .cls-18 {
                fill: #019e8f;
            }

            .cls-19 {
                fill: #009e8e;
            }

            .cls-20 {
                fill: #e7c400;
            }

            .cls-21 {
                fill: url(#未命名的渐变_85-4);
            }

            .cls-22 {
                fill: url(#未命名的渐变_85-5);
            }

            .cls-23 {
                fill: url(#未命名的渐变_85-6);
            }

            .cls-24 {
                fill: url(#未命名的渐变_85-7);
            }

            .cls-25 {
                fill: url(#未命名的渐变_85-8);
            }

            .cls-26 {
                fill: url(#未命名的渐变_85-9);
            }

            .cls-27 {
                fill: url(#未命名的渐变_85-10);
            }

            .cls-28 {
                fill: url(#未命名的渐变_85-11);
            }

            .cls-29 {
                fill: url(#未命名的渐变_85-12);
            }

            .cls-30 {
                fill: url(#未命名的渐变_85-13);
            }

            .cls-31 {
                fill: url(#未命名的渐变_85-14);
            }

            .cls-32 {
                fill: url(#未命名的渐变_85-15);
            }

            .cls-33 {
                fill: url(#未命名的渐变_85-16);
            }

            .cls-34 {
                opacity: 0.2;
            }
        </style>
        <linearGradient id="未命名的渐变_74" x1="10.59" y1="69.09" x2="42.46" y2="69.09" gradientUnits="userSpaceOnUse">
            <stop offset="0" stop-color="#6b6b6b" />
            <stop offset="0.01" stop-color="#767676" />
            <stop offset="0.03" stop-color="#959595" />
            <stop offset="0.04" stop-color="#aaa" />
            <stop offset="0.37" stop-color="#ccc" />
            <stop offset="0.74" stop-color="#eaeaea" />
            <stop offset="0.94" stop-color="#f6f6f6" />
            <stop offset="0.95" stop-color="#ededed" />
            <stop offset="0.96" stop-color="#d4d4d4" />
            <stop offset="0.97" stop-color="#ababab" />
            <stop offset="0.99" stop-color="#737373" />
            <stop offset="0.99" stop-color="#666" />
        </linearGradient>
        <linearGradient id="未命名的渐变_74-2" x1="42.46" y1="69.09" x2="74.46" y2="69.09" xlink:href="#未命名的渐变_74" />
        <linearGradient id="未命名的渐变_74-3" x1="74.46" y1="69.09" x2="106.52" y2="69.09" xlink:href="#未命名的渐变_74" />
        <linearGradient id="未命名的渐变_74-4" x1="106.47" y1="69.09" x2="138.53" y2="69.09" xlink:href="#未命名的渐变_74" />
        <linearGradient id="未命名的渐变_85" x1="10.45" y1="24.55" x2="42.51" y2="24.55" gradientUnits="userSpaceOnUse">
            <stop offset="0" stop-color="#6b6b6b" />
            <stop offset="0.11" stop-color="#767676" />
            <stop offset="0.3" stop-color="#959595" />
            <stop offset="0.41" stop-color="#aaa" />
            <stop offset="0.68" stop-color="#acacac" />
            <stop offset="0.78" stop-color="#b3b3b3" />
            <stop offset="0.85" stop-color="#bebebe" />
            <stop offset="0.91" stop-color="#cfcfcf" />
            <stop offset="0.95" stop-color="#e5e5e5" />
            <stop offset="0.99" stop-color="#f6f6f6" />
            <stop offset="0.99" stop-color="#ededed" />
            <stop offset="0.99" stop-color="#d4d4d4" />
            <stop offset="0.99" stop-color="#adadad" />
        </linearGradient>
        <linearGradient id="未命名的渐变_85-2" x1="10.45" y1="66.35" x2="42.51" y2="66.35" xlink:href="#未命名的渐变_85" />
        <linearGradient id="未命名的渐变_85-3" x1="10.45" y1="46.09" x2="26.48" y2="46.09" xlink:href="#未命名的渐变_85" />
        <linearGradient id="未命名的渐变_85-4" x1="26.43" y1="46.09" x2="42.46" y2="46.09" xlink:href="#未命名的渐变_85" />
        <linearGradient id="未命名的渐变_85-5" x1="42.46" y1="24.55" x2="74.51" y2="24.55" xlink:href="#未命名的渐变_85" />
        <linearGradient id="未命名的渐变_85-6" x1="42.46" y1="66.35" x2="74.51" y2="66.35" xlink:href="#未命名的渐变_85" />
        <linearGradient id="未命名的渐变_85-7" x1="42.46" y1="46.09" x2="58.49" y2="46.09" xlink:href="#未命名的渐变_85" />
        <linearGradient id="未命名的渐变_85-8" x1="58.44" y1="46.09" x2="74.46" y2="46.09" xlink:href="#未命名的渐变_85" />
        <linearGradient id="未命名的渐变_85-9" x1="74.46" y1="24.55" x2="106.52" y2="24.55" xlink:href="#未命名的渐变_85" />
        <linearGradient id="未命名的渐变_85-10" x1="74.46" y1="66.35" x2="106.52" y2="66.35" xlink:href="#未命名的渐变_85" />
        <linearGradient id="未命名的渐变_85-11" x1="74.46" y1="46.09" x2="90.49" y2="46.09" xlink:href="#未命名的渐变_85" />
        <linearGradient id="未命名的渐变_85-12" x1="90.44" y1="46.09" x2="106.47" y2="46.09" xlink:href="#未命名的渐变_85" />
        <linearGradient id="未命名的渐变_85-13" x1="106.47" y1="24.55" x2="138.53" y2="24.55" xlink:href="#未命名的渐变_85" />
        <linearGradient id="未命名的渐变_85-14" x1="106.47" y1="66.35" x2="138.53" y2="66.35" xlink:href="#未命名的渐变_85" />
        <linearGradient id="未命名的渐变_85-15" x1="106.47" y1="46.09" x2="122.5" y2="46.09" xlink:href="#未命名的渐变_85" />
        <linearGradient id="未命名的渐变_85-16" x1="122.45" y1="46.09" x2="138.48" y2="46.09" xlink:href="#未命名的渐变_85" />
    </defs>
    <title>Simple substation（简易变电站）</title>
    <g id="图层_2" data-name="图层 2">
        <g id="图层_59" data-name="图层 59">
            <g id="Simple_substation_简易变电站_" data-name="Simple substation（简易变电站）">
                <rect class="cls-1" x="8.19" y="6.33" width="132.52" height="125.36" />
                <rect class="cls-2" x="10.59" y="9.07" width="31.87" height="120.04" />
                <rect class="cls-3" x="42.46" y="9.07" width="32.01" height="120.04" />
                <rect class="cls-4" x="74.46" y="9.07" width="32.06" height="120.04" />
                <rect class="cls-5" x="106.47" y="9.07" width="32.06" height="120.04" />
                <rect class="cls-6" width="149.48" height="6.53" />
                <rect class="cls-6" x="0.11" y="131.69" width="149.48" height="6.53" />
                <rect class="cls-6" x="2.94" y="6.53" width="5.26" height="125.16" />
                <rect class="cls-6" x="140.72" y="6.53" width="5.26" height="125.16" />
                <rect class="cls-7" x="10.45" y="22.63" width="32.06" height="3.85" />
                <rect class="cls-8" x="10.45" y="65.84" width="32.06" height="1.01" />
                <rect class="cls-9" x="10.45" y="27.26" width="16.03" height="37.67" />
                <circle class="cls-10" cx="18.44" cy="33.25" r="3.49" />
                <path class="cls-11"
                    d="M15,33.25a3.48,3.48,0,0,0,1.53,2.89,4.21,4.21,0,0,0,.51,0,3.78,3.78,0,0,0,3.75-3.81A3.83,3.83,0,0,0,20,30.14,3.49,3.49,0,0,0,15,33.25Z" />
                <path class="cls-12"
                    d="M18.44,29.43a3.83,3.83,0,1,0,3.82,3.82A3.82,3.82,0,0,0,18.44,29.43Zm0,7.32a3.5,3.5,0,1,1,3.49-3.5A3.5,3.5,0,0,1,18.44,36.75Z" />
                <circle class="cls-13" cx="18.44" cy="33.25" r="3.35" />
                <path class="cls-12"
                    d="M19.28,34.59l.37-.37a.15.15,0,0,0,0-.21h-.06a2.57,2.57,0,0,1-.62-.41c-.51-.49-2.42-2.55-2.42-2.55s1.74,2.19,2.22,2.87a2.63,2.63,0,0,1,.26.63l0,0h0l0,0A.15.15,0,0,0,19.28,34.59Z" />
                <circle class="cls-12" cx="18.56" cy="33.3" r="0.3" />
                <line class="cls-14" x1="19.94" y1="30.48" x2="19.7" y2="30.95" />
                <line class="cls-14" x1="17.04" y1="30.48" x2="17.29" y2="30.95" />
                <line class="cls-14" x1="15.37" y1="32.84" x2="15.89" y2="32.92" />
                <line class="cls-14" x1="21.65" y1="32.83" x2="21.13" y2="32.9" />
                <circle class="cls-15" cx="18.56" cy="33.3" r="0.17" />
                <circle class="cls-10" cx="18.39" cy="58.89" r="3.49" />
                <path class="cls-11"
                    d="M14.89,58.89a3.48,3.48,0,0,0,1.53,2.88,3,3,0,0,0,.52,0A3.77,3.77,0,0,0,20.68,58,3.9,3.9,0,0,0,20,55.77a3.5,3.5,0,0,0-5.08,3.12Z" />
                <path class="cls-12"
                    d="M18.39,55.06a3.83,3.83,0,1,0,3.82,3.83A3.84,3.84,0,0,0,18.39,55.06Zm0,7.32a3.5,3.5,0,1,1,3.49-3.49A3.5,3.5,0,0,1,18.39,62.38Z" />
                <circle class="cls-13" cx="18.39" cy="58.89" r="3.35" />
                <path class="cls-12"
                    d="M19.22,60.23l.38-.38a.14.14,0,0,0,0-.21h-.06a2.47,2.47,0,0,1-.63-.41c-.5-.48-2.42-2.55-2.42-2.55s1.74,2.19,2.22,2.87a2.71,2.71,0,0,1,.27.63v0h0a.08.08,0,0,0,0,0A.15.15,0,0,0,19.22,60.23Z" />
                <circle class="cls-12" cx="18.51" cy="58.93" r="0.3" />
                <line class="cls-14" x1="19.89" y1="56.11" x2="19.64" y2="56.58" />
                <line class="cls-14" x1="16.99" y1="56.11" x2="17.24" y2="56.58" />
                <line class="cls-14" x1="15.31" y1="58.47" x2="15.83" y2="58.55" />
                <line class="cls-14" x1="21.6" y1="58.46" x2="21.08" y2="58.53" />
                <circle class="cls-15" cx="18.51" cy="58.93" r="0.17" />
                <rect class="cls-16" x="12.92" y="41.92" width="2.55" height="2.67" />
                <rect class="cls-17" x="12.92" y="47.29" width="2.55" height="2.67" />
                <rect class="cls-17" x="16.98" y="47.29" width="2.55" height="2.67" />
                <rect class="cls-17" x="20.99" y="47.43" width="2.55" height="2.67" />
                <rect class="cls-18" x="16.98" y="41.92" width="2.55" height="2.67" />
                <rect class="cls-19" x="16.98" y="41.92" width="2.55" height="2.67" />
                <rect class="cls-20" x="20.99" y="41.92" width="2.55" height="2.67" />
                <rect class="cls-21" x="26.43" y="27.26" width="16.03" height="37.67" />
                <circle class="cls-10" cx="34.42" cy="33.25" r="3.49" />
                <path class="cls-11"
                    d="M30.93,33.25a3.49,3.49,0,0,0,1.52,2.89,4.55,4.55,0,0,0,.52,0,3.77,3.77,0,0,0,3.74-3.81A3.82,3.82,0,0,0,36,30.14a3.49,3.49,0,0,0-5.07,3.11Z" />
                <path class="cls-12"
                    d="M34.42,29.43a3.83,3.83,0,1,0,3.82,3.82A3.82,3.82,0,0,0,34.42,29.43Zm0,7.32a3.5,3.5,0,1,1,3.49-3.5A3.5,3.5,0,0,1,34.42,36.75Z" />
                <circle class="cls-13" cx="34.42" cy="33.25" r="3.35" />
                <path class="cls-12"
                    d="M35.26,34.59l.37-.37a.14.14,0,0,0,0-.21h-.06a2.57,2.57,0,0,1-.62-.41c-.51-.49-2.42-2.55-2.42-2.55s1.74,2.19,2.21,2.87a2.71,2.71,0,0,1,.27.63s0,0,0,0h0l0,0A.15.15,0,0,0,35.26,34.59Z" />
                <circle class="cls-12" cx="34.54" cy="33.3" r="0.3" />
                <line class="cls-14" x1="35.92" y1="30.48" x2="35.67" y2="30.95" />
                <line class="cls-14" x1="33.02" y1="30.48" x2="33.27" y2="30.95" />
                <line class="cls-14" x1="31.35" y1="32.84" x2="31.87" y2="32.92" />
                <line class="cls-14" x1="37.63" y1="32.83" x2="37.11" y2="32.9" />
                <circle class="cls-15" cx="34.54" cy="33.3" r="0.17" />
                <circle class="cls-10" cx="34.37" cy="58.89" r="3.49" />
                <path class="cls-11"
                    d="M30.87,58.89a3.48,3.48,0,0,0,1.53,2.88,3,3,0,0,0,.52,0A3.77,3.77,0,0,0,36.66,58a3.84,3.84,0,0,0-.72-2.24,3.47,3.47,0,0,0-1.57-.38A3.5,3.5,0,0,0,30.87,58.89Z" />
                <path class="cls-12"
                    d="M34.37,55.06a3.83,3.83,0,1,0,3.82,3.83A3.83,3.83,0,0,0,34.37,55.06Zm0,7.32a3.5,3.5,0,1,1,3.49-3.49A3.5,3.5,0,0,1,34.37,62.38Z" />
                <circle class="cls-13" cx="34.37" cy="58.89" r="3.35" />
                <path class="cls-12"
                    d="M35.2,60.23l.38-.38a.17.17,0,0,0,0-.21h-.06a2.47,2.47,0,0,1-.63-.41c-.5-.48-2.42-2.55-2.42-2.55s1.74,2.19,2.22,2.87a3.22,3.22,0,0,1,.27.63.06.06,0,0,0,0,0h0l0,0A.15.15,0,0,0,35.2,60.23Z" />
                <circle class="cls-12" cx="34.48" cy="58.93" r="0.3" />
                <line class="cls-14" x1="35.87" y1="56.11" x2="35.62" y2="56.58" />
                <line class="cls-14" x1="32.97" y1="56.11" x2="33.21" y2="56.58" />
                <line class="cls-14" x1="31.29" y1="58.47" x2="31.81" y2="58.55" />
                <line class="cls-14" x1="37.58" y1="58.46" x2="37.05" y2="58.53" />
                <circle class="cls-15" cx="34.48" cy="58.93" r="0.17" />
                <rect class="cls-16" x="28.9" y="41.92" width="2.55" height="2.67" />
                <rect class="cls-17" x="28.9" y="47.29" width="2.55" height="2.67" />
                <rect class="cls-17" x="32.96" y="47.29" width="2.55" height="2.67" />
                <rect class="cls-17" x="36.97" y="47.43" width="2.55" height="2.67" />
                <rect class="cls-18" x="32.96" y="41.92" width="2.55" height="2.67" />
                <rect class="cls-19" x="32.96" y="41.92" width="2.55" height="2.67" />
                <rect class="cls-20" x="36.97" y="41.92" width="2.55" height="2.67" />
                <rect class="cls-22" x="42.46" y="22.63" width="32.06" height="3.85" />
                <rect class="cls-23" x="42.46" y="65.84" width="32.06" height="1.01" />
                <rect class="cls-24" x="42.46" y="27.26" width="16.03" height="37.67" />
                <circle class="cls-10" cx="50.45" cy="33.25" r="3.49" />
                <path class="cls-11"
                    d="M47,33.25a3.49,3.49,0,0,0,1.52,2.89,4.38,4.38,0,0,0,.52,0,3.77,3.77,0,0,0,3.74-3.81A3.82,3.82,0,0,0,52,30.14,3.49,3.49,0,0,0,47,33.25Z" />
                <path class="cls-12"
                    d="M50.45,29.43a3.83,3.83,0,1,0,3.82,3.82A3.82,3.82,0,0,0,50.45,29.43Zm0,7.32a3.5,3.5,0,1,1,3.49-3.5A3.5,3.5,0,0,1,50.45,36.75Z" />
                <circle class="cls-13" cx="50.45" cy="33.25" r="3.35" />
                <path class="cls-12"
                    d="M51.28,34.59l.38-.37a.15.15,0,0,0,0-.21H51.6a2.57,2.57,0,0,1-.62-.41c-.51-.49-2.43-2.55-2.43-2.55s1.75,2.19,2.22,2.87a2.71,2.71,0,0,1,.27.63s0,0,0,0h0l0,0A.13.13,0,0,0,51.28,34.59Z" />
                <circle class="cls-12" cx="50.57" cy="33.3" r="0.3" />
                <line class="cls-14" x1="51.95" y1="30.48" x2="51.7" y2="30.95" />
                <line class="cls-14" x1="49.05" y1="30.48" x2="49.3" y2="30.95" />
                <line class="cls-14" x1="47.37" y1="32.84" x2="47.9" y2="32.92" />
                <line class="cls-14" x1="53.66" y1="32.83" x2="53.14" y2="32.9" />
                <circle class="cls-15" cx="50.57" cy="33.3" r="0.17" />
                <circle class="cls-10" cx="50.39" cy="58.89" r="3.49" />
                <path class="cls-11"
                    d="M46.9,58.89a3.48,3.48,0,0,0,1.53,2.88,3,3,0,0,0,.52,0A3.77,3.77,0,0,0,52.69,58,3.84,3.84,0,0,0,52,55.77a3.49,3.49,0,0,0-5.07,3.12Z" />
                <path class="cls-12"
                    d="M50.39,55.06a3.83,3.83,0,1,0,3.83,3.83A3.83,3.83,0,0,0,50.39,55.06Zm0,7.32a3.5,3.5,0,1,1,3.5-3.49A3.49,3.49,0,0,1,50.39,62.38Z" />
                <circle class="cls-13" cx="50.39" cy="58.89" r="3.35" />
                <path class="cls-12"
                    d="M51.23,60.23l.38-.38a.17.17,0,0,0,0-.21h-.07a2.46,2.46,0,0,1-.62-.41c-.51-.48-2.42-2.55-2.42-2.55s1.74,2.19,2.22,2.87a3.22,3.22,0,0,1,.27.63.06.06,0,0,0,0,0h0s0,0,0,0A.17.17,0,0,0,51.23,60.23Z" />
                <circle class="cls-12" cx="50.51" cy="58.93" r="0.3" />
                <line class="cls-14" x1="51.9" y1="56.11" x2="51.65" y2="56.58" />
                <line class="cls-14" x1="49" y1="56.11" x2="49.24" y2="56.58" />
                <line class="cls-14" x1="47.32" y1="58.47" x2="47.84" y2="58.55" />
                <line class="cls-14" x1="53.6" y1="58.46" x2="53.08" y2="58.53" />
                <circle class="cls-15" cx="50.51" cy="58.93" r="0.17" />
                <rect class="cls-16" x="44.93" y="41.92" width="2.55" height="2.67" />
                <rect class="cls-17" x="44.93" y="47.29" width="2.55" height="2.67" />
                <rect class="cls-17" x="48.99" y="47.29" width="2.55" height="2.67" />
                <rect class="cls-17" x="53" y="47.43" width="2.55" height="2.67" />
                <rect class="cls-18" x="48.99" y="41.92" width="2.55" height="2.67" />
                <rect class="cls-19" x="48.99" y="41.92" width="2.55" height="2.67" />
                <rect class="cls-20" x="53" y="41.92" width="2.55" height="2.67" />
                <rect class="cls-25" x="58.44" y="27.26" width="16.03" height="37.67" />
                <circle class="cls-10" cx="66.43" cy="33.25" r="3.49" />
                <path class="cls-11"
                    d="M62.93,33.25a3.5,3.5,0,0,0,1.53,2.89,4.38,4.38,0,0,0,.52,0,3.77,3.77,0,0,0,3.74-3.81A3.89,3.89,0,0,0,68,30.14a3.5,3.5,0,0,0-5.08,3.11Z" />
                <path class="cls-12"
                    d="M66.43,29.43a3.83,3.83,0,1,0,3.82,3.82A3.83,3.83,0,0,0,66.43,29.43Zm0,7.32a3.5,3.5,0,1,1,3.49-3.5A3.5,3.5,0,0,1,66.43,36.75Z" />
                <circle class="cls-13" cx="66.43" cy="33.25" r="3.35" />
                <path class="cls-12"
                    d="M67.26,34.59l.38-.37a.15.15,0,0,0,0-.21h-.06a2.79,2.79,0,0,1-.63-.41c-.5-.49-2.42-2.55-2.42-2.55s1.74,2.19,2.22,2.87a3.22,3.22,0,0,1,.27.63.08.08,0,0,0,0,0h0l0,0A.13.13,0,0,0,67.26,34.59Z" />
                <circle class="cls-12" cx="66.54" cy="33.3" r="0.3" />
                <line class="cls-14" x1="67.93" y1="30.48" x2="67.68" y2="30.95" />
                <line class="cls-14" x1="65.03" y1="30.48" x2="65.28" y2="30.95" />
                <line class="cls-14" x1="63.35" y1="32.84" x2="63.87" y2="32.92" />
                <line class="cls-14" x1="69.64" y1="32.83" x2="69.12" y2="32.9" />
                <circle class="cls-15" cx="66.54" cy="33.3" r="0.17" />
                <circle class="cls-10" cx="66.37" cy="58.89" r="3.49" />
                <path class="cls-11"
                    d="M62.88,58.89a3.46,3.46,0,0,0,1.53,2.88,2.92,2.92,0,0,0,.51,0A3.78,3.78,0,0,0,68.67,58,3.84,3.84,0,0,0,68,55.77a3.49,3.49,0,0,0-5.07,3.12Z" />
                <path class="cls-12"
                    d="M66.37,55.06a3.83,3.83,0,1,0,3.83,3.83A3.83,3.83,0,0,0,66.37,55.06Zm0,7.32a3.5,3.5,0,1,1,3.49-3.49A3.49,3.49,0,0,1,66.37,62.38Z" />
                <circle class="cls-13" cx="66.37" cy="58.89" r="3.35" />
                <path class="cls-12"
                    d="M67.21,60.23l.37-.38a.15.15,0,0,0,0-.21h-.06a2.3,2.3,0,0,1-.62-.41c-.51-.48-2.42-2.55-2.42-2.55s1.74,2.19,2.22,2.87a2.63,2.63,0,0,1,.26.63s0,0,0,0h0s0,0,0,0A.17.17,0,0,0,67.21,60.23Z" />
                <circle class="cls-12" cx="66.49" cy="58.93" r="0.3" />
                <line class="cls-14" x1="67.87" y1="56.11" x2="67.63" y2="56.58" />
                <line class="cls-14" x1="64.97" y1="56.11" x2="65.22" y2="56.58" />
                <line class="cls-14" x1="63.3" y1="58.47" x2="63.82" y2="58.55" />
                <line class="cls-14" x1="69.58" y1="58.46" x2="69.06" y2="58.53" />
                <circle class="cls-15" cx="66.49" cy="58.93" r="0.17" />
                <rect class="cls-16" x="60.91" y="41.92" width="2.55" height="2.67" />
                <rect class="cls-17" x="60.91" y="47.29" width="2.55" height="2.67" />
                <rect class="cls-17" x="64.97" y="47.29" width="2.55" height="2.67" />
                <rect class="cls-17" x="68.97" y="47.43" width="2.55" height="2.67" />
                <rect class="cls-18" x="64.97" y="41.92" width="2.55" height="2.67" />
                <rect class="cls-19" x="64.97" y="41.92" width="2.55" height="2.67" />
                <rect class="cls-20" x="68.97" y="41.92" width="2.55" height="2.67" />
                <rect class="cls-26" x="74.46" y="22.63" width="32.06" height="3.85" />
                <rect class="cls-27" x="74.46" y="65.84" width="32.06" height="1.01" />
                <rect class="cls-28" x="74.46" y="27.26" width="16.03" height="37.67" />
                <circle class="cls-10" cx="82.46" cy="33.25" r="3.49" />
                <path class="cls-11"
                    d="M79,33.25a3.5,3.5,0,0,0,1.53,2.89,4.38,4.38,0,0,0,.52,0,3.78,3.78,0,0,0,3.74-3.81A3.83,3.83,0,0,0,84,30.14a3.47,3.47,0,0,0-1.57-.38A3.5,3.5,0,0,0,79,33.25Z" />
                <path class="cls-12"
                    d="M82.46,29.43a3.83,3.83,0,1,0,3.82,3.82A3.82,3.82,0,0,0,82.46,29.43Zm0,7.32A3.5,3.5,0,1,1,86,33.25,3.5,3.5,0,0,1,82.46,36.75Z" />
                <circle class="cls-13" cx="82.46" cy="33.25" r="3.35" />
                <path class="cls-12"
                    d="M83.29,34.59l.38-.37a.17.17,0,0,0,0-.21h-.06a2.79,2.79,0,0,1-.63-.41c-.5-.49-2.42-2.55-2.42-2.55s1.74,2.19,2.22,2.87a3.22,3.22,0,0,1,.27.63.08.08,0,0,0,0,0h0l0,0A.13.13,0,0,0,83.29,34.59Z" />
                <circle class="cls-12" cx="82.57" cy="33.3" r="0.3" />
                <line class="cls-14" x1="83.96" y1="30.48" x2="83.71" y2="30.95" />
                <line class="cls-14" x1="81.06" y1="30.48" x2="81.3" y2="30.95" />
                <line class="cls-14" x1="79.38" y1="32.84" x2="79.9" y2="32.92" />
                <line class="cls-14" x1="85.67" y1="32.83" x2="85.14" y2="32.9" />
                <circle class="cls-15" cx="82.57" cy="33.3" r="0.17" />
                <circle class="cls-10" cx="82.4" cy="58.89" r="3.49" />
                <path class="cls-11"
                    d="M78.91,58.89a3.48,3.48,0,0,0,1.52,2.88,3,3,0,0,0,.52,0A3.78,3.78,0,0,0,84.7,58,3.84,3.84,0,0,0,84,55.77a3.49,3.49,0,0,0-5.07,3.12Z" />
                <path class="cls-12"
                    d="M82.4,55.06a3.83,3.83,0,1,0,3.82,3.83A3.83,3.83,0,0,0,82.4,55.06Zm0,7.32a3.5,3.5,0,1,1,3.49-3.49A3.49,3.49,0,0,1,82.4,62.38Z" />
                <circle class="cls-13" cx="82.4" cy="58.89" r="3.35" />
                <path class="cls-12"
                    d="M83.24,60.23l.37-.38a.15.15,0,0,0,0-.21h-.06a2.3,2.3,0,0,1-.62-.41c-.51-.48-2.42-2.55-2.42-2.55s1.74,2.19,2.21,2.87a2.71,2.71,0,0,1,.27.63s0,0,0,0h0a.08.08,0,0,0,0,0A.17.17,0,0,0,83.24,60.23Z" />
                <circle class="cls-12" cx="82.52" cy="58.93" r="0.3" />
                <line class="cls-14" x1="83.9" y1="56.11" x2="83.66" y2="56.58" />
                <line class="cls-14" x1="81" y1="56.11" x2="81.25" y2="56.58" />
                <line class="cls-14" x1="79.33" y1="58.47" x2="79.85" y2="58.55" />
                <line class="cls-14" x1="85.61" y1="58.46" x2="85.09" y2="58.53" />
                <circle class="cls-15" cx="82.52" cy="58.93" r="0.17" />
                <rect class="cls-16" x="76.94" y="41.92" width="2.55" height="2.67" />
                <rect class="cls-17" x="76.94" y="47.29" width="2.55" height="2.67" />
                <rect class="cls-17" x="81" y="47.29" width="2.55" height="2.67" />
                <rect class="cls-17" x="85" y="47.43" width="2.55" height="2.67" />
                <rect class="cls-18" x="81" y="41.92" width="2.55" height="2.67" />
                <rect class="cls-19" x="81" y="41.92" width="2.55" height="2.67" />
                <rect class="cls-20" x="85" y="41.92" width="2.55" height="2.67" />
                <rect class="cls-29" x="90.44" y="27.26" width="16.03" height="37.67" />
                <circle class="cls-10" cx="98.43" cy="33.25" r="3.49" />
                <path class="cls-11"
                    d="M94.94,33.25a3.5,3.5,0,0,0,1.53,2.89,4.38,4.38,0,0,0,.51,0,3.78,3.78,0,0,0,3.75-3.81,3.83,3.83,0,0,0-.72-2.23,3.49,3.49,0,0,0-5.07,3.11Z" />
                <path class="cls-12"
                    d="M98.43,29.43a3.83,3.83,0,1,0,3.83,3.82A3.82,3.82,0,0,0,98.43,29.43Zm0,7.32a3.5,3.5,0,1,1,3.5-3.5A3.5,3.5,0,0,1,98.43,36.75Z" />
                <circle class="cls-13" cx="98.43" cy="33.25" r="3.35" />
                <path class="cls-12"
                    d="M99.27,34.59l.38-.37a.17.17,0,0,0,0-.21h-.07a2.78,2.78,0,0,1-.62-.41c-.51-.49-2.42-2.55-2.42-2.55s1.74,2.19,2.22,2.87a3.22,3.22,0,0,1,.27.63.08.08,0,0,0,0,0h0l0,0A.14.14,0,0,0,99.27,34.59Z" />
                <circle class="cls-12" cx="98.55" cy="33.3" r="0.3" />
                <line class="cls-14" x1="99.93" y1="30.48" x2="99.69" y2="30.95" />
                <line class="cls-14" x1="97.03" y1="30.48" x2="97.28" y2="30.95" />
                <line class="cls-14" x1="95.36" y1="32.84" x2="95.88" y2="32.92" />
                <line class="cls-14" x1="101.64" y1="32.83" x2="101.12" y2="32.9" />
                <circle class="cls-15" cx="98.55" cy="33.3" r="0.17" />
                <circle class="cls-10" cx="98.38" cy="58.89" r="3.49" />
                <path class="cls-11"
                    d="M94.89,58.89a3.48,3.48,0,0,0,1.52,2.88,3,3,0,0,0,.52,0,3.77,3.77,0,0,0,3.74-3.8,3.83,3.83,0,0,0-.71-2.24,3.49,3.49,0,0,0-5.07,3.12Z" />
                <path class="cls-12"
                    d="M98.38,55.06a3.83,3.83,0,1,0,3.82,3.83A3.83,3.83,0,0,0,98.38,55.06Zm0,7.32a3.5,3.5,0,1,1,3.49-3.49A3.49,3.49,0,0,1,98.38,62.38Z" />
                <circle class="cls-13" cx="98.38" cy="58.89" r="3.35" />
                <path class="cls-12"
                    d="M99.21,60.23l.38-.38a.14.14,0,0,0,0-.21h-.06a2.3,2.3,0,0,1-.62-.41c-.51-.48-2.43-2.55-2.43-2.55s1.75,2.19,2.22,2.87a2.71,2.71,0,0,1,.27.63v0h0a.08.08,0,0,0,0,0A.15.15,0,0,0,99.21,60.23Z" />
                <circle class="cls-12" cx="98.5" cy="58.93" r="0.3" />
                <line class="cls-14" x1="99.88" y1="56.11" x2="99.63" y2="56.58" />
                <line class="cls-14" x1="96.98" y1="56.11" x2="97.23" y2="56.58" />
                <line class="cls-14" x1="95.3" y1="58.47" x2="95.83" y2="58.55" />
                <line class="cls-14" x1="101.59" y1="58.46" x2="101.07" y2="58.53" />
                <circle class="cls-15" cx="98.5" cy="58.93" r="0.17" />
                <rect class="cls-16" x="92.91" y="41.92" width="2.55" height="2.67" />
                <rect class="cls-17" x="92.91" y="47.29" width="2.55" height="2.67" />
                <rect class="cls-17" x="96.97" y="47.29" width="2.55" height="2.67" />
                <rect class="cls-17" x="100.98" y="47.43" width="2.55" height="2.67" />
                <rect class="cls-18" x="96.97" y="41.92" width="2.55" height="2.67" />
                <rect class="cls-19" x="96.97" y="41.92" width="2.55" height="2.67" />
                <rect class="cls-20" x="100.98" y="41.92" width="2.55" height="2.67" />
                <rect class="cls-30" x="106.47" y="22.63" width="32.06" height="3.85" />
                <rect class="cls-31" x="106.47" y="65.84" width="32.06" height="1.01" />
                <rect class="cls-32" x="106.47" y="27.26" width="16.03" height="37.67" />
                <circle class="cls-10" cx="114.46" cy="33.25" r="3.49" />
                <path class="cls-11"
                    d="M111,33.25a3.48,3.48,0,0,0,1.53,2.89,4.38,4.38,0,0,0,.51,0,3.78,3.78,0,0,0,3.75-3.81,3.83,3.83,0,0,0-.72-2.23A3.49,3.49,0,0,0,111,33.25Z" />
                <path class="cls-12"
                    d="M114.46,29.43a3.83,3.83,0,1,0,3.83,3.82A3.82,3.82,0,0,0,114.46,29.43Zm0,7.32a3.5,3.5,0,1,1,3.49-3.5A3.5,3.5,0,0,1,114.46,36.75Z" />
                <circle class="cls-13" cx="114.46" cy="33.25" r="3.35" />
                <path class="cls-12"
                    d="M115.3,34.59l.37-.37a.14.14,0,0,0,0-.21h-.06a2.57,2.57,0,0,1-.62-.41c-.51-.49-2.42-2.55-2.42-2.55s1.74,2.19,2.22,2.87a2.63,2.63,0,0,1,.26.63s0,0,0,0h0l0,0A.14.14,0,0,0,115.3,34.59Z" />
                <circle class="cls-12" cx="114.58" cy="33.3" r="0.3" />
                <line class="cls-14" x1="115.96" y1="30.48" x2="115.72" y2="30.95" />
                <line class="cls-14" x1="113.06" y1="30.48" x2="113.31" y2="30.95" />
                <line class="cls-14" x1="111.39" y1="32.84" x2="111.91" y2="32.92" />
                <line class="cls-14" x1="117.67" y1="32.83" x2="117.15" y2="32.9" />
                <circle class="cls-15" cx="114.58" cy="33.3" r="0.17" />
                <circle class="cls-10" cx="114.41" cy="58.89" r="3.49" />
                <path class="cls-11"
                    d="M110.92,58.89a3.48,3.48,0,0,0,1.52,2.88,3,3,0,0,0,.52,0A3.77,3.77,0,0,0,116.7,58a3.9,3.9,0,0,0-.71-2.24,3.49,3.49,0,0,0-5.07,3.12Z" />
                <path class="cls-12"
                    d="M114.41,55.06a3.83,3.83,0,1,0,3.82,3.83A3.84,3.84,0,0,0,114.41,55.06Zm0,7.32a3.5,3.5,0,1,1,3.49-3.49A3.49,3.49,0,0,1,114.41,62.38Z" />
                <circle class="cls-13" cx="114.41" cy="58.89" r="3.35" />
                <path class="cls-12"
                    d="M115.24,60.23l.38-.38a.15.15,0,0,0,0-.21h-.06a2.47,2.47,0,0,1-.63-.41c-.5-.48-2.42-2.55-2.42-2.55s1.74,2.19,2.22,2.87a2.71,2.71,0,0,1,.27.63v0h0a.08.08,0,0,0,0,0A.15.15,0,0,0,115.24,60.23Z" />
                <circle class="cls-12" cx="114.53" cy="58.93" r="0.3" />
                <line class="cls-14" x1="115.91" y1="56.11" x2="115.66" y2="56.58" />
                <line class="cls-14" x1="113.01" y1="56.11" x2="113.26" y2="56.58" />
                <line class="cls-14" x1="111.33" y1="58.47" x2="111.85" y2="58.55" />
                <line class="cls-14" x1="117.62" y1="58.46" x2="117.1" y2="58.53" />
                <circle class="cls-15" cx="114.53" cy="58.93" r="0.17" />
                <rect class="cls-16" x="108.94" y="41.92" width="2.55" height="2.67" />
                <rect class="cls-17" x="108.94" y="47.29" width="2.55" height="2.67" />
                <rect class="cls-17" x="113" y="47.29" width="2.55" height="2.67" />
                <rect class="cls-17" x="117.01" y="47.43" width="2.55" height="2.67" />
                <rect class="cls-18" x="113" y="41.92" width="2.55" height="2.67" />
                <rect class="cls-19" x="113" y="41.92" width="2.55" height="2.67" />
                <rect class="cls-20" x="117.01" y="41.92" width="2.55" height="2.67" />
                <rect class="cls-33" x="122.45" y="27.26" width="16.03" height="37.67" />
                <circle class="cls-10" cx="130.44" cy="33.25" r="3.49" />
                <path class="cls-11"
                    d="M127,33.25a3.49,3.49,0,0,0,1.52,2.89,4.55,4.55,0,0,0,.52,0,3.77,3.77,0,0,0,3.74-3.81,3.82,3.82,0,0,0-.71-2.23A3.49,3.49,0,0,0,127,33.25Z" />
                <path class="cls-12"
                    d="M130.44,29.43a3.83,3.83,0,1,0,3.82,3.82A3.82,3.82,0,0,0,130.44,29.43Zm0,7.32a3.5,3.5,0,1,1,3.49-3.5A3.5,3.5,0,0,1,130.44,36.75Z" />
                <circle class="cls-13" cx="130.44" cy="33.25" r="3.35" />
                <path class="cls-12"
                    d="M131.28,34.59l.37-.37a.14.14,0,0,0,0-.21h-.06a2.57,2.57,0,0,1-.62-.41c-.51-.49-2.42-2.55-2.42-2.55s1.74,2.19,2.21,2.87a2.71,2.71,0,0,1,.27.63s0,0,0,0h0l0,0A.15.15,0,0,0,131.28,34.59Z" />
                <circle class="cls-12" cx="130.56" cy="33.3" r="0.3" />
                <line class="cls-14" x1="131.94" y1="30.48" x2="131.69" y2="30.95" />
                <line class="cls-14" x1="129.04" y1="30.48" x2="129.29" y2="30.95" />
                <line class="cls-14" x1="127.37" y1="32.84" x2="127.89" y2="32.92" />
                <line class="cls-14" x1="133.65" y1="32.83" x2="133.13" y2="32.9" />
                <circle class="cls-15" cx="130.56" cy="33.3" r="0.17" />
                <circle class="cls-10" cx="130.39" cy="58.89" r="3.49" />
                <path class="cls-11"
                    d="M126.89,58.89a3.48,3.48,0,0,0,1.53,2.88,3,3,0,0,0,.52,0,3.77,3.77,0,0,0,3.74-3.8,3.84,3.84,0,0,0-.72-2.24,3.47,3.47,0,0,0-1.57-.38A3.5,3.5,0,0,0,126.89,58.89Z" />
                <path class="cls-12"
                    d="M130.39,55.06a3.83,3.83,0,1,0,3.82,3.83A3.83,3.83,0,0,0,130.39,55.06Zm0,7.32a3.5,3.5,0,1,1,3.49-3.49A3.5,3.5,0,0,1,130.39,62.38Z" />
                <circle class="cls-13" cx="130.39" cy="58.89" r="3.35" />
                <path class="cls-12"
                    d="M131.22,60.23l.38-.38a.17.17,0,0,0,0-.21h-.06a2.47,2.47,0,0,1-.63-.41c-.5-.48-2.42-2.55-2.42-2.55s1.74,2.19,2.22,2.87a3.22,3.22,0,0,1,.27.63.06.06,0,0,0,0,0h0l0,0A.15.15,0,0,0,131.22,60.23Z" />
                <circle class="cls-12" cx="130.5" cy="58.93" r="0.3" />
                <line class="cls-14" x1="131.89" y1="56.11" x2="131.64" y2="56.58" />
                <line class="cls-14" x1="128.99" y1="56.11" x2="129.23" y2="56.58" />
                <line class="cls-14" x1="127.31" y1="58.47" x2="127.83" y2="58.55" />
                <line class="cls-14" x1="133.6" y1="58.46" x2="133.07" y2="58.53" />
                <circle class="cls-15" cx="130.5" cy="58.93" r="0.17" />
                <rect class="cls-16" x="124.92" y="41.92" width="2.55" height="2.67" />
                <rect class="cls-17" x="124.92" y="47.29" width="2.55" height="2.67" />
                <rect class="cls-17" x="128.98" y="47.29" width="2.55" height="2.67" />
                <rect class="cls-17" x="132.99" y="47.43" width="2.55" height="2.67" />
                <rect class="cls-18" x="128.98" y="41.92" width="2.55" height="2.67" />
                <rect class="cls-19" x="128.98" y="41.92" width="2.55" height="2.67" />
                <rect class="cls-20" x="132.99" y="41.92" width="2.55" height="2.67" />
                
            </g>
        </g>
    </g>
</svg>