<svg xmlns="http://www.w3.org/2000/svg" xmlns:xlink="http://www.w3.org/1999/xlink" viewBox="0 0 70.95 149.66">
    <defs>
        <style>
            .cls-1 {
                fill: url(#未命名的渐变_67);
            }

            .cls-2 {
                fill: url(#未命名的渐变_67-2);
            }

            .cls-3 {
                fill: url(#未命名的渐变_67-3);
            }

            .cls-4 {
                fill: url(#未命名的渐变_67-4);
            }

            .cls-5 {
                fill: url(#未命名的渐变_67-5);
            }

            .cls-6 {
                fill: url(#未命名的渐变_67-6);
            }

            .cls-7 {
                fill: url(#未命名的渐变_67-7);
            }

            .cls-8 {
                fill: url(#未命名的渐变_67-8);
            }

            .cls-9 {
                fill: url(#未命名的渐变_67-9);
            }

            .cls-10 {
                fill: url(#未命名的渐变_67-10);
            }

            .cls-11 {
                fill: url(#未命名的渐变_67-11);
            }

            .cls-12 {
                fill: url(#未命名的渐变_67-12);
            }

            .cls-13 {
                fill: url(#未命名的渐变_67-13);
            }

            .cls-14 {
                opacity: 0.2;
            }
        </style>
        <linearGradient id="未命名的渐变_67" x1="19.43" y1="19.5" x2="52.16" y2="19.5" gradientUnits="userSpaceOnUse">
            <stop offset="0" stop-color="#6b6b6b" />
            <stop offset="0.11" stop-color="#767676" />
            <stop offset="0.3" stop-color="#959595" />
            <stop offset="0.41" stop-color="#aaa" />
            <stop offset="0.56" stop-color="#ccc" />
            <stop offset="0.71" stop-color="#eaeaea" />
            <stop offset="0.8" stop-color="#f6f6f6" />
            <stop offset="0.83" stop-color="#ededed" />
            <stop offset="0.87" stop-color="#d4d4d4" />
            <stop offset="0.92" stop-color="#ababab" />
            <stop offset="0.98" stop-color="#737373" />
            <stop offset="0.99" stop-color="#666" />
        </linearGradient>
        <linearGradient id="未命名的渐变_67-2" x1="31.22" y1="8.65" x2="39.97" y2="8.65" xlink:href="#未命名的渐变_67" />
        <linearGradient id="未命名的渐变_67-3" x1="19.39" y1="126.42" x2="52.32" y2="126.42" xlink:href="#未命名的渐变_67" />
        <linearGradient id="未命名的渐变_67-4" x1="20.39" y1="72.96" x2="51.52" y2="72.96" xlink:href="#未命名的渐变_67" />
        <linearGradient id="未命名的渐变_67-5" x1="-19.59" y1="-60.47" x2="57.08" y2="-60.47"
            gradientTransform="matrix(0.92, 0, 0, 1.47, 18.06, 120.5)" xlink:href="#未命名的渐变_67" />
        <linearGradient id="未命名的渐变_67-6" x1="-19.54" y1="-28.4" x2="57.12" y2="-28.4"
            gradientTransform="matrix(0.92, 0, 0, 1.36, 18.15, 102.41)" xlink:href="#未命名的渐变_67" />
        <linearGradient id="未命名的渐变_67-7" x1="-19.69" y1="-4.68" x2="56.98" y2="-4.68"
            gradientTransform="matrix(0.92, 0, 0, 1.36, 18.15, 102.41)" xlink:href="#未命名的渐变_67" />
        <linearGradient id="未命名的渐变_67-8" x1="-12.93" y1="-72.17" x2="50" y2="-72.17"
            gradientTransform="matrix(0.92, 0, -0.01, 1.79, 17.9, 174.51)" xlink:href="#未命名的渐变_67" />
        <linearGradient id="未命名的渐变_67-9" x1="-12.14" y1="-54.36" x2="50.79" y2="-54.36"
            gradientTransform="matrix(0.92, 0, -0.01, 1.79, 17.9, 174.51)" xlink:href="#未命名的渐变_67" />
        <linearGradient id="未命名的渐变_67-10" x1="-12.04" y1="-36.94" x2="50.89" y2="-36.94"
            gradientTransform="matrix(0.92, 0, -0.01, 1.8, 17.9, 175.47)" xlink:href="#未命名的渐变_67" />
        <linearGradient id="未命名的渐变_67-11" x1="26.89" y1="9" x2="45.1" y2="9" xlink:href="#未命名的渐变_67" />
        <linearGradient id="未命名的渐变_67-12" x1="31.7" y1="139.14" x2="39.72" y2="139.14" xlink:href="#未命名的渐变_67" />
        <linearGradient id="未命名的渐变_67-13" x1="26.85" y1="138.57" x2="45.06" y2="138.57" xlink:href="#未命名的渐变_67" />
    </defs>
    <title>Surge arrestor（电涌放电器）</title>
    <g id="图层_2" data-name="图层 2">
        <g id="图层_59" data-name="图层 59">
            <g id="Surge_arrestor_电涌放电器_" data-name="Surge arrestor（电涌放电器）">
                <rect class="cls-1" x="19.43" y="17.31" width="32.73" height="4.39" rx="0.38" />
                <rect class="cls-2" x="31.22" width="8.74" height="17.31" />
                <rect class="cls-3" x="19.39" y="124.23" width="32.93" height="4.39" rx="0.38" />
                <rect class="cls-4" x="20.39" y="21.69" width="31.12" height="102.54" />
                <polygon class="cls-5"
                    points="70.92 37.39 0.24 37.18 0.26 30.9 24.1 26.01 47.04 26.08 70.94 30.86 70.92 37.39" />
                <polygon class="cls-6"
                    points="70.93 69.15 0.23 68.95 0.25 63.13 24.09 58.62 47.03 58.69 70.95 63.12 70.93 69.15" />
                <polygon class="cls-7"
                    points="70.7 101.4 0 101.2 0.02 95.38 23.86 90.87 46.8 90.94 70.72 95.37 70.7 101.4" />
                <polygon class="cls-8"
                    points="64.36 50.87 6.34 50.7 6.36 44.4 25.93 39.5 44.76 39.55 64.38 44.33 64.36 50.87" />
                <polygon class="cls-9"
                    points="64.99 82.79 6.98 82.62 7 76.33 26.57 71.42 45.39 71.48 65.01 76.26 64.99 82.79" />
                <polygon class="cls-10"
                    points="65 114.8 6.98 114.63 7 108.31 26.57 103.39 45.4 103.44 65.01 108.24 65 114.8" />
                <rect class="cls-11" x="26.89" y="4.63" width="18.21" height="8.74" />
                <rect class="cls-12" x="31.7" y="128.62" width="8.02" height="21.04" />
                <rect class="cls-13" x="26.85" y="133.97" width="18.21" height="9.19" rx="0.7" />
                
            </g>
        </g>
    </g>
</svg>