<svg xmlns="http://www.w3.org/2000/svg" xmlns:xlink="http://www.w3.org/1999/xlink" viewBox="0 0 149.36 131.22">
    <defs>
        <style>
            .cls-1 {
                fill: none;
            }

            .cls-1,
            .cls-2 {
                stroke: #c6c6c6;
                stroke-miterlimit: 10;
                stroke-width: 0.15px;
            }

            .cls-2 {
                fill: #fff;
            }

            .cls-3 {
                fill: url(#未命名的渐变_67);
            }

            .cls-4 {
                fill: url(#未命名的渐变_67-2);
            }

            .cls-5 {
                fill: url(#未命名的渐变_67-3);
            }

            .cls-6 {
                fill: url(#未命名的渐变_67-4);
            }

            .cls-7 {
                fill: url(#未命名的渐变_67-5);
            }

            .cls-8 {
                fill: url(#未命名的渐变_67-6);
            }

            .cls-9 {
                fill: url(#未命名的渐变_67-7);
            }

            .cls-10 {
                fill: url(#未命名的渐变_67-8);
            }

            .cls-11 {
                fill: url(#未命名的渐变_67-9);
            }

            .cls-12 {
                fill: url(#未命名的渐变_67-10);
            }

            .cls-13 {
                fill: url(#未命名的渐变_67-11);
            }

            .cls-14 {
                fill: url(#未命名的渐变_67-12);
            }

            .cls-15 {
                fill: url(#未命名的渐变_67-13);
            }

            .cls-16 {
                fill: url(#未命名的渐变_67-14);
            }

            .cls-17 {
                fill: url(#未命名的渐变_67-15);
            }

            .cls-18 {
                fill: url(#未命名的渐变_67-16);
            }

            .cls-19 {
                fill: url(#未命名的渐变_67-17);
            }

            .cls-20 {
                fill: url(#未命名的渐变_67-18);
            }

            .cls-21 {
                fill: url(#未命名的渐变_67-19);
            }

            .cls-22 {
                fill: url(#未命名的渐变_67-20);
            }

            .cls-23 {
                fill: url(#未命名的渐变_67-21);
            }

            .cls-24 {
                fill: url(#未命名的渐变_67-22);
            }

            .cls-25 {
                fill: url(#未命名的渐变_67-23);
            }

            .cls-26 {
                fill: url(#未命名的渐变_67-24);
            }

            .cls-27 {
                fill: url(#未命名的渐变_67-25);
            }

            .cls-28 {
                fill: url(#未命名的渐变_67-26);
            }

            .cls-29 {
                fill: url(#未命名的渐变_67-27);
            }

            .cls-30 {
                fill: url(#未命名的渐变_67-28);
            }

            .cls-31 {
                fill: url(#未命名的渐变_67-29);
            }

            .cls-32 {
                fill: url(#未命名的渐变_67-30);
            }

            .cls-33 {
                fill: url(#未命名的渐变_67-31);
            }

            .cls-34 {
                fill: url(#未命名的渐变_67-32);
            }

            .cls-35 {
                fill: url(#未命名的渐变_67-33);
            }

            .cls-36 {
                fill: url(#未命名的渐变_67-34);
            }

            .cls-37 {
                fill: url(#未命名的渐变_67-35);
            }

            .cls-38 {
                fill: url(#未命名的渐变_67-36);
            }

            .cls-39 {
                fill: url(#未命名的渐变_67-37);
            }

            .cls-40 {
                fill: url(#未命名的渐变_67-38);
            }

            .cls-41 {
                fill: url(#未命名的渐变_67-39);
            }

            .cls-42 {
                fill: url(#未命名的渐变_67-40);
            }

            .cls-43 {
                fill: url(#未命名的渐变_67-41);
            }

            .cls-44 {
                fill: #c1c1c1;
            }

            .cls-45 {
                fill: url(#未命名的渐变_67-42);
            }

            .cls-46 {
                fill: url(#未命名的渐变_67-43);
            }

            .cls-47 {
                fill: url(#未命名的渐变_67-44);
            }

            .cls-48 {
                fill: url(#未命名的渐变_67-45);
            }

            .cls-49 {
                fill: url(#未命名的渐变_67-46);
            }

            .cls-50 {
                fill: url(#未命名的渐变_67-47);
            }

            .cls-51 {
                fill: url(#未命名的渐变_67-48);
            }

            .cls-52 {
                fill: url(#未命名的渐变_67-49);
            }

            .cls-53 {
                fill: url(#未命名的渐变_67-50);
            }

            .cls-54 {
                fill: url(#未命名的渐变_67-51);
            }

            .cls-55 {
                opacity: 0.2;
            }
        </style>
        <linearGradient id="未命名的渐变_67" x1="19.99" y1="16.28" x2="19.99" y2="13.83" gradientUnits="userSpaceOnUse">
            <stop offset="0" stop-color="#6b6b6b" />
            <stop offset="0.11" stop-color="#767676" />
            <stop offset="0.3" stop-color="#959595" />
            <stop offset="0.41" stop-color="#aaa" />
            <stop offset="0.56" stop-color="#ccc" />
            <stop offset="0.71" stop-color="#eaeaea" />
            <stop offset="0.8" stop-color="#f6f6f6" />
            <stop offset="0.83" stop-color="#ededed" />
            <stop offset="0.87" stop-color="#d4d4d4" />
            <stop offset="0.92" stop-color="#ababab" />
            <stop offset="0.98" stop-color="#737373" />
            <stop offset="0.99" stop-color="#666" />
        </linearGradient>
        <linearGradient id="未命名的渐变_67-2" x1="129.44" y1="16.29" x2="129.44" y2="13.83" xlink:href="#未命名的渐变_67" />
        <linearGradient id="未命名的渐变_67-3" x1="74.77" y1="2.07" x2="74.77" y2="0.53" xlink:href="#未命名的渐变_67" />
        <linearGradient id="未命名的渐变_67-4" x1="-50.68" y1="-188.72" x2="-50.68" y2="-190.25"
            gradientTransform="translate(166.9 130.7) scale(1.81 0.65)" xlink:href="#未命名的渐变_67" />
        <linearGradient id="未命名的渐变_67-5" x1="-353.88" y1="329.48" x2="-353.88" y2="327.94"
            gradientTransform="matrix(1.81, 0, 0, -0.65, 716.62, 220.82)" xlink:href="#未命名的渐变_67" />
        <linearGradient id="未命名的渐变_67-6" x1="-49.24" y1="-181.33" x2="-49.24" y2="-182.86"
            gradientTransform="translate(164.15 131.36) scale(1.81 0.65)" xlink:href="#未命名的渐变_67" />
        <linearGradient id="未命名的渐变_67-7" x1="-347.3" y1="336.42" x2="-347.3" y2="334.88"
            gradientTransform="matrix(1.91, 0, 0, -0.65, 737.08, 230.66)" xlink:href="#未命名的渐变_67" />
        <linearGradient id="未命名的渐变_67-8" x1="-71.46" y1="-217.99" x2="-71.46" y2="-219.53"
            gradientTransform="translate(220.87 160.98) scale(2.04 0.65)" xlink:href="#未命名的渐变_67" />
        <linearGradient id="未命名的渐变_67-9" x1="-330.23" y1="351.74" x2="-330.23" y2="350.2"
            gradientTransform="matrix(2.16, 0, 0, -0.65, 786.68, 246.37)" xlink:href="#未命名的渐变_67" />
        <linearGradient id="未命名的渐变_67-10" x1="-93.4" y1="-165.91" x2="-93.4" y2="-167.45"
            gradientTransform="translate(295.64 133.06) scale(2.36 0.65)" xlink:href="#未命名的渐变_67" />
        <linearGradient id="未命名的渐变_67-11" x1="-340.5" y1="336.63" x2="-340.5" y2="335.09"
            gradientTransform="matrix(2.16, 0, 0, -0.65, 808.78, 242.24)" xlink:href="#未命名的渐变_67" />
        <linearGradient id="未命名的渐变_67-12" x1="-92.13" y1="-157.87" x2="-92.13" y2="-159.41"
            gradientTransform="translate(292.63 133.86) scale(2.36 0.65)" xlink:href="#未命名的渐变_67" />
        <linearGradient id="未命名的渐变_67-13" x1="-333.41" y1="344.67" x2="-333.41" y2="343.13"
            gradientTransform="matrix(2.31, 0, 0, -0.65, 843.39, 253.31)" xlink:href="#未命名的渐变_67" />
        <linearGradient id="未命名的渐变_67-14" x1="-103.86" y1="-150.03" x2="-103.86" y2="-151.56"
            gradientTransform="translate(342.11 134.57) scale(2.57 0.65)" xlink:href="#未命名的渐变_67" />
        <linearGradient id="未命名的渐变_67-15" x1="-324.96" y1="352.89" x2="-324.96" y2="351.35"
            gradientTransform="matrix(2.52, 0, 0, -0.65, 893.94, 264.88)" xlink:href="#未命名的渐变_67" />
        <linearGradient id="未命名的渐变_67-16" x1="-113.04" y1="-140.67" x2="-113.04" y2="-142.21"
            gradientTransform="translate(388.92 135.73) scale(2.78 0.65)" xlink:href="#未命名的渐变_67" />
        <linearGradient id="未命名的渐变_67-17" x1="-317.53" y1="362.26" x2="-317.53" y2="360.72"
            gradientTransform="matrix(2.74, 0, 0, -0.65, 945.23, 277.98)" xlink:href="#未命名的渐变_67" />
        <linearGradient id="未命名的渐变_67-18" x1="-114.47" y1="-130.4" x2="-114.47" y2="-131.94"
            gradientTransform="translate(399.03 136.59) scale(2.83 0.65)" xlink:href="#未命名的渐变_67" />
        <linearGradient id="未命名的渐变_67-19" x1="-310.99" y1="372.25" x2="-310.99" y2="370.71"
            gradientTransform="matrix(2.97, 0, 0, -0.65, 998.64, 291.8)" xlink:href="#未命名的渐变_67" />
        <linearGradient id="未命名的渐变_67-20" x1="-126.91" y1="-91.01" x2="-126.91" y2="-92.55"
            gradientTransform="translate(474.42 118.33) scale(3.15 0.65)" xlink:href="#未命名的渐变_67" />
        <linearGradient id="未命名的渐变_67-21" x1="-316.79" y1="362.64" x2="-316.79" y2="361.1"
            gradientTransform="matrix(2.97, 0, 0, -0.65, 1015.89, 292.54)" xlink:href="#未命名的渐变_67" />
        <linearGradient id="未命名的渐变_67-22" x1="-130.42" y1="-81.3" x2="-130.42" y2="-82.84"
            gradientTransform="translate(501.12 119.03) scale(3.27 0.65)" xlink:href="#未命名的渐变_67" />
        <linearGradient id="未命名的渐变_67-23" x1="-308.38" y1="372.53" x2="-308.38" y2="370.99"
            gradientTransform="matrix(3.32, 0, 0, -0.65, 1098.88, 306.39)" xlink:href="#未命名的渐变_67" />
        <linearGradient id="未命名的渐变_67-24" x1="-142.85" y1="-71.43" x2="-142.85" y2="-72.97"
            gradientTransform="translate(601.22 119.72) scale(3.68 0.65)" xlink:href="#未命名的渐变_67" />
        <linearGradient id="未命名的渐变_67-25" x1="-306.1" y1="382.45" x2="-306.1" y2="380.91"
            gradientTransform="matrix(3.4, 0, 0, -0.65, 1114.86, 319.93)" xlink:href="#未命名的渐变_67" />
        <linearGradient id="未命名的渐变_67-26" x1="-141.86" y1="-61.04" x2="-141.86" y2="-62.58"
            gradientTransform="translate(597.75 120.65) scale(3.68 0.65)" xlink:href="#未命名的渐变_67" />
        <linearGradient id="未命名的渐变_67-27" x1="-301.91" y1="393.17" x2="-301.91" y2="391.63"
            gradientTransform="matrix(3.59, 0, 0, -0.65, 1159.48, 334.73)" xlink:href="#未命名的渐变_67" />
        <linearGradient id="未命名的渐变_67-28" x1="-146.26" y1="-30.52" x2="-146.26" y2="-32.06"
            gradientTransform="translate(641.25 109.47) scale(3.87 0.65)" xlink:href="#未命名的渐变_67" />
        <linearGradient id="未命名的渐变_67-29" x1="-296.19" y1="404.77" x2="-296.19" y2="403.23"
            gradientTransform="matrix(3.94, 0, 0, -0.65, 1242.56, 350.37)" xlink:href="#未命名的渐变_67" />
        <linearGradient id="未命名的渐变_67-30" x1="-151.32" y1="-18.47" x2="-151.32" y2="-20.01"
            gradientTransform="translate(697.57 110.22) scale(4.11 0.65)" xlink:href="#未命名的渐变_67" />
        <linearGradient id="未命名的渐变_67-31" x1="-291.03" y1="417.1" x2="-291.03" y2="415.56"
            gradientTransform="matrix(4.31, 0, 0, -0.65, 1327.51, 367.47)" xlink:href="#未命名的渐变_67" />
        <linearGradient id="未命名的渐变_67-32" x1="-157.26" y1="-5.32" x2="-157.26" y2="-6.86"
            gradientTransform="translate(771.96 111.14) scale(4.43 0.65)" xlink:href="#未命名的渐变_67" />
        <linearGradient id="未命名的渐变_67-33" x1="-288.06" y1="429.38" x2="-288.06" y2="427.84"
            gradientTransform="matrix(4.51, 0, 0, -0.65, 1372.87, 384.4)" xlink:href="#未命名的渐变_67" />
        <linearGradient id="未命名的渐变_67-34" x1="-161.87" y1="7.19" x2="-161.87" y2="5.65"
            gradientTransform="translate(839.4 111.99) scale(4.72 0.65)" xlink:href="#未命名的渐变_67" />
        <linearGradient id="未命名的渐变_67-35" x1="-287.25" y1="442.45" x2="-287.25" y2="440.91"
            gradientTransform="matrix(4.51, 0, 0, -0.65, 1369.75, 402.09)" xlink:href="#未命名的渐变_67" />
        <linearGradient id="未命名的渐变_67-36" x1="-163.21" y1="20.5" x2="-163.21" y2="18.96"
            gradientTransform="translate(866.47 112.9) scale(4.85 0.65)" xlink:href="#未命名的渐变_67" />
        <linearGradient id="未命名的渐变_67-37" x1="-283.82" y1="455.97" x2="-283.82" y2="454.43"
            gradientTransform="matrix(4.8, 0, 0, -0.65, 1435.64, 420.77)" xlink:href="#未命名的渐变_67" />
        <linearGradient id="未命名的渐变_67-38" x1="93.06" y1="9.83" x2="93.06" y2="7.57" xlink:href="#未命名的渐变_67" />
        <linearGradient id="未命名的渐变_67-39" x1="69.96" y1="81.59" x2="71.66" y2="81.59"
            gradientTransform="translate(10.59 -15.33) scale(1 1.01)" xlink:href="#未命名的渐变_67" />
        <linearGradient id="未命名的渐变_67-40" x1="-578.1" y1="49.16" x2="-576.41" y2="49.16"
            gradientTransform="matrix(1, 0, 0, -1.01, 645.66, 115.99)" xlink:href="#未命名的渐变_67" />
        <linearGradient id="未命名的渐变_67-41" x1="57.64" y1="9.83" x2="57.64" y2="7.57" xlink:href="#未命名的渐变_67" />
        <linearGradient id="未命名的渐变_67-42" x1="71.47" y1="2.46" x2="71.47" y2="0" xlink:href="#未命名的渐变_67" />
        <linearGradient id="未命名的渐变_67-43" x1="78.08" y1="2.46" x2="78.08" y2="0" xlink:href="#未命名的渐变_67" />
        <linearGradient id="未命名的渐变_67-44" x1="1.64" y1="76.94" x2="1.64" y2="74.42" xlink:href="#未命名的渐变_67" />
        <linearGradient id="未命名的渐变_67-45" x1="147.73" y1="76.94" x2="147.73" y2="74.58" xlink:href="#未命名的渐变_67" />
        <linearGradient id="未命名的渐变_67-46" x1="113.56" y1="71.12" x2="113.56" y2="68.96" xlink:href="#未命名的渐变_67" />
        <linearGradient id="未命名的渐变_67-47" x1="35.66" y1="71.09" x2="35.66" y2="69.05" xlink:href="#未命名的渐变_67" />
        <linearGradient id="未命名的渐变_67-48" x1="68.7" y1="60.01" x2="68.7" y2="57.45" xlink:href="#未命名的渐变_67" />
        <linearGradient id="未命名的渐变_67-49" x1="80.78" y1="59.86" x2="80.78" y2="57.48" xlink:href="#未命名的渐变_67" />
        <linearGradient id="未命名的渐变_67-50" x1="175.24" y1="-16.77" x2="175.24" y2="-19.14"
            gradientTransform="translate(-57.87 81.45) scale(0.92 0.94)" xlink:href="#未命名的渐变_67" />
        <linearGradient id="未命名的渐变_67-51" x1="-523.76" y1="151.03" x2="-523.76" y2="148.66"
            gradientTransform="matrix(0.92, 0, 0, -0.94, 527.6, 205.51)" xlink:href="#未命名的渐变_67" />
    </defs>
    <title>Transmission tower（输电塔）</title>
    <g id="图层_2" data-name="图层 2">
        <g id="图层_59" data-name="图层 59">
            <g id="Transmission_tower_输电塔_" data-name="Transmission tower（输电塔）">
                <polyline class="cls-1" points="70.59 0.43 21.48 14.3 71.19 2.29" />
                <polyline class="cls-1" points="79.23 0.43 128.33 14.3 78.62 2.29" />
                <line class="cls-1" x1="70.5" y1="1.23" x2="45.74" y2="14.3" />
                <line class="cls-1" x1="71.19" y1="1.91" x2="47.22" y2="14.5" />
                <line class="cls-1" x1="78.76" y1="1.13" x2="103.52" y2="14.21" />
                <line class="cls-1" x1="78.07" y1="1.81" x2="102.04" y2="14.4" />
                <line class="cls-2" x1="58.58" y1="8.11" x2="91.97" y2="8.11" />
                <line class="cls-2" x1="58.45" y1="9.08" x2="91.84" y2="9.08" />
                <polyline class="cls-1" points="22.17 16.11 22.17 38.45 18.92 38.45 18.92 16.28" />
                <line class="cls-2" x1="18.03" y1="22.56" x2="20.19" y2="22.56" />
                <line class="cls-2" x1="18.03" y1="23.8" x2="20.19" y2="23.8" />
                <line class="cls-2" x1="17.74" y1="36.79" x2="20.3" y2="36.79" />
                <line class="cls-2" x1="20.79" y1="36.79" x2="23.35" y2="36.79" />
                <line class="cls-2" x1="20.91" y1="22.56" x2="23.06" y2="22.56" />
                <line class="cls-2" x1="20.91" y1="23.8" x2="23.06" y2="23.8" />
                <line class="cls-2" x1="20.91" y1="29.68" x2="23.06" y2="29.68" />
                <line class="cls-2" x1="20.91" y1="30.91" x2="23.06" y2="30.91" />
                <line class="cls-2" x1="17.84" y1="29.68" x2="20" y2="29.68" />
                <line class="cls-2" x1="17.84" y1="30.91" x2="20" y2="30.91" />
                <polyline class="cls-1" points="4.47 76.33 4.47 98.67 1.31 98.67 1.31 76.5" />
                <line class="cls-2" x1="0.45" y1="82.78" x2="2.55" y2="82.78" />
                <line class="cls-2" x1="0.45" y1="84.02" x2="2.55" y2="84.02" />
                <line class="cls-2" x1="0.17" y1="97" x2="2.65" y2="97" />
                <line class="cls-2" x1="3.13" y1="97" x2="5.62" y2="97" />
                <line class="cls-2" x1="3.24" y1="82.78" x2="5.34" y2="82.78" />
                <line class="cls-2" x1="3.24" y1="84.02" x2="5.34" y2="84.02" />
                <line class="cls-2" x1="3.24" y1="89.89" x2="5.34" y2="89.89" />
                <line class="cls-2" x1="3.24" y1="91.13" x2="5.34" y2="91.13" />
                <line class="cls-2" x1="0.26" y1="89.89" x2="2.36" y2="89.89" />
                <line class="cls-2" x1="0.26" y1="91.13" x2="2.36" y2="91.13" />
                <polyline class="cls-1" points="37.01 76.4 37.01 98.74 33.84 98.74 33.84 76.57" />
                <line class="cls-2" x1="32.98" y1="82.85" x2="35.08" y2="82.85" />
                <line class="cls-2" x1="32.98" y1="84.09" x2="35.08" y2="84.09" />
                <line class="cls-2" x1="32.7" y1="97.08" x2="35.19" y2="97.08" />
                <line class="cls-2" x1="35.67" y1="97.08" x2="38.15" y2="97.08" />
                <line class="cls-2" x1="35.78" y1="82.85" x2="37.88" y2="82.85" />
                <line class="cls-2" x1="35.78" y1="84.09" x2="37.88" y2="84.09" />
                <line class="cls-2" x1="35.78" y1="89.96" x2="37.88" y2="89.96" />
                <line class="cls-2" x1="35.78" y1="91.2" x2="37.88" y2="91.2" />
                <line class="cls-2" x1="32.8" y1="89.96" x2="34.89" y2="89.96" />
                <line class="cls-2" x1="32.8" y1="91.2" x2="34.89" y2="91.2" />
                <polyline class="cls-1" points="115.14 76.25 115.14 98.6 111.97 98.6 111.97 76.43" />
                <line class="cls-2" x1="111.11" y1="82.71" x2="113.21" y2="82.71" />
                <line class="cls-2" x1="111.11" y1="83.95" x2="113.21" y2="83.95" />
                <line class="cls-2" x1="110.83" y1="96.93" x2="113.32" y2="96.93" />
                <line class="cls-2" x1="113.8" y1="96.93" x2="116.29" y2="96.93" />
                <line class="cls-2" x1="113.91" y1="82.71" x2="116.01" y2="82.71" />
                <line class="cls-2" x1="113.91" y1="83.95" x2="116.01" y2="83.95" />
                <line class="cls-2" x1="113.91" y1="89.82" x2="116.01" y2="89.82" />
                <line class="cls-2" x1="113.91" y1="91.06" x2="116.01" y2="91.06" />
                <line class="cls-2" x1="110.93" y1="89.82" x2="113.02" y2="89.82" />
                <line class="cls-2" x1="110.93" y1="91.06" x2="113.02" y2="91.06" />
                <polyline class="cls-1" points="147.52 76.31 147.52 98.65 144.35 98.65 144.35 76.48" />
                <line class="cls-2" x1="143.49" y1="82.76" x2="145.59" y2="82.76" />
                <line class="cls-2" x1="143.49" y1="84" x2="145.59" y2="84" />
                <line class="cls-2" x1="143.21" y1="96.99" x2="145.69" y2="96.99" />
                <line class="cls-2" x1="146.17" y1="96.99" x2="148.66" y2="96.99" />
                <line class="cls-2" x1="146.29" y1="82.76" x2="148.38" y2="82.76" />
                <line class="cls-2" x1="146.29" y1="84" x2="148.38" y2="84" />
                <line class="cls-2" x1="146.29" y1="89.88" x2="148.38" y2="89.88" />
                <line class="cls-2" x1="146.29" y1="91.11" x2="148.38" y2="91.11" />
                <line class="cls-2" x1="143.3" y1="89.88" x2="145.4" y2="89.88" />
                <line class="cls-2" x1="143.3" y1="91.11" x2="145.4" y2="91.11" />
                <polyline class="cls-1" points="130.11 16.29 130.11 38.45 127.28 38.45 127.28 16.46" />
                <line class="cls-2" x1="126.52" y1="22.69" x2="128.39" y2="22.69" />
                <line class="cls-2" x1="126.52" y1="23.92" x2="128.39" y2="23.92" />
                <line class="cls-2" x1="126.26" y1="36.8" x2="128.48" y2="36.8" />
                <line class="cls-2" x1="128.91" y1="36.8" x2="131.13" y2="36.8" />
                <line class="cls-2" x1="129.01" y1="22.69" x2="130.89" y2="22.69" />
                <line class="cls-2" x1="129.01" y1="23.92" x2="130.89" y2="23.92" />
                <line class="cls-2" x1="129.01" y1="29.75" x2="130.89" y2="29.75" />
                <line class="cls-2" x1="129.01" y1="30.98" x2="130.89" y2="30.98" />
                <line class="cls-2" x1="126.35" y1="29.75" x2="128.22" y2="29.75" />
                <line class="cls-2" x1="126.35" y1="30.98" x2="128.22" y2="30.98" />
                <rect class="cls-3" x="18.76" y="13.83" width="2.46" height="2.46" />
                <rect class="cls-4" x="128.21" y="13.83" width="2.46" height="2.46" />
                <rect class="cls-5" x="72.69" y="0.53" width="4.16" height="1.54" />
                <rect class="cls-6" x="71.21" y="7.38" width="7.55" height="1"
                    transform="translate(13.98 -36.44) rotate(30)" />
                <rect class="cls-7" x="71" y="7.26" width="7.55" height="1"
                    transform="matrix(-0.84, 0.54, -0.54, -0.84, 141.8, -26.3)" />
                <rect class="cls-8" x="71.07" y="12.82" width="7.55" height="1"
                    transform="translate(16.69 -35.64) rotate(30)" />
                <rect class="cls-9" x="70.83" y="12.6" width="7.93" height="1"
                    transform="translate(144.73 -16.48) rotate(147.15)" />
                <rect class="cls-10" x="70.69" y="18.68" width="8.5" height="1"
                    transform="translate(24.04 -39.07) rotate(34.49)" />
                <rect class="cls-11" x="70.16" y="18.37" width="8.97" height="1"
                    transform="translate(146.84 -7.89) rotate(145.47)" />
                <rect class="cls-12" x="70.05" y="24.52" width="9.83" height="1"
                    transform="translate(22.55 -34.13) rotate(30)" />
                <rect class="cls-13" x="70.11" y="24.04" width="8.97" height="1"
                    transform="translate(151.47 8.48) rotate(150)" />
                <rect class="cls-14" x="70.05" y="30.54" width="9.83" height="1"
                    transform="translate(25.56 -33.32) rotate(30)" />
                <rect class="cls-15" x="70.07" y="29.9" width="9.59" height="1"
                    transform="translate(154.9 19.28) rotate(150)" />
                <rect class="cls-16" x="69.48" y="36.33" width="10.71" height="1"
                    transform="translate(28.44 -32.48) rotate(30)" />
                <rect class="cls-17" x="69.48" y="36.13" width="10.49" height="1"
                    transform="translate(157.75 31) rotate(150)" />
                <rect class="cls-18" x="69.42" y="43.55" width="11.55" height="1"
                    transform="translate(32.1 -31.7) rotate(30)" />
                <rect class="cls-19" x="68.98" y="43.17" width="11.41" height="1"
                    transform="translate(161.19 44.14) rotate(150)" />
                <rect class="cls-20" x="69.03" y="51.07" width="11.78" height="1"
                    transform="translate(35.82 -30.55) rotate(30)" />
                <rect class="cls-21" x="68.74" y="50.51" width="12.36" height="1"
                    transform="translate(165.3 57.73) rotate(150)" />
                <rect class="cls-22" x="68.72" y="58.34" width="13.09" height="1"
                    transform="translate(35.05 -27.82) rotate(27.09)" />
                <rect class="cls-23" x="68.74" y="57.48" width="12.36" height="1"
                    transform="translate(167.79 76.63) rotate(153.62)" />
                <rect class="cls-24" x="68.33" y="65.34" width="13.59" height="1"
                    transform="translate(38.22 -26.99) rotate(27.09)" />
                <rect class="cls-25" x="67.44" y="64.92" width="13.82" height="1"
                    transform="translate(170.02 90.98) rotate(153.62)" />
                <rect class="cls-26" x="67.28" y="72.42" width="15.33" height="1"
                    transform="translate(41.42 -26.12) rotate(27.09)" />
                <rect class="cls-27" x="67.42" y="72.03" width="14.14" height="1"
                    transform="translate(173.45 104.4) rotate(153.62)" />
                <rect class="cls-28" x="67.46" y="80.08" width="15.33" height="1"
                    transform="translate(44.93 -25.37) rotate(27.09)" />
                <rect class="cls-29" x="66.84" y="79.87" width="14.95" height="1"
                    transform="translate(176.6 119.35) rotate(153.62)" />
                <rect class="cls-30" x="67.32" y="88.69" width="16.1" height="1"
                    transform="translate(45.33 -23.65) rotate(25.29)" />
                <rect class="cls-31" x="66.66" y="88" width="16.4" height="1"
                    transform="translate(181.24 134.51) rotate(153.62)" />
                <rect class="cls-32" x="66.65" y="97.25" width="17.11" height="1"
                    transform="translate(48.97 -22.76) rotate(25.29)" />
                <rect class="cls-33" x="65.52" y="97.11" width="17.91" height="1"
                    transform="translate(184.57 151.95) rotate(153.62)" />
                <rect class="cls-34" x="66.02" y="106.7" width="18.43" height="1"
                    transform="translate(53.01 -21.87) rotate(25.29)" />
                <rect class="cls-35" x="64.91" y="106.08" width="18.76" height="1"
                    transform="translate(188.2 169.05) rotate(153.62)" />
                <rect class="cls-36" x="65.38" y="115.65" width="19.64" height="1"
                    transform="translate(56.83 -21) rotate(25.29)" />
                <rect class="cls-37" x="65.42" y="115.29" width="18.76" height="1"
                    transform="translate(193.26 186.28) rotate(153.62)" />
                <rect class="cls-38" x="65.12" y="125.19" width="20.17" height="1"
                    transform="translate(60.9 -20.08) rotate(25.29)" />
                <rect class="cls-39" x="64.53" y="125.22" width="19.95" height="1"
                    transform="translate(197.11 205.23) rotate(153.62)" />
                <rect class="cls-40" x="91.88" y="7.57" width="2.35" height="2.26" />
                <rect class="cls-41" x="80.56" y="2.27" width="1.69" height="128.98"
                    transform="translate(-3.23 4.15) rotate(-2.86)" />
                <rect class="cls-42" x="67.56" y="2.03" width="1.69" height="128.98"
                    transform="translate(133.4 136.38) rotate(-177.14)" />
                <rect class="cls-43" x="56.47" y="7.57" width="2.35" height="2.26" />
                <rect class="cls-44" x="21.21" y="14.02" width="106.99" height="2.09" />
                <rect class="cls-45" x="70.24" width="2.46" height="2.46" />
                <rect class="cls-46" x="76.86" width="2.46" height="2.46" />
                <line class="cls-1" x1="102.95" y1="65.61" x2="102.95" y2="74.78" />
                <line class="cls-1" x1="45.7" y1="65.71" x2="45.7" y2="74.87" />
                <polyline class="cls-1" points="68.7 57.63 2.61 75 68.95 59.47" />
                <polyline class="cls-1" points="81.56 57.98 147.13 75.1 80.78 59.51" />
                <line class="cls-1" x1="68.7" y1="57.98" x2="45.45" y2="75.39" />
                <line class="cls-1" x1="68.35" y1="59.61" x2="45.95" y2="76.4" />
                <line class="cls-1" x1="46.51" y1="63.54" x2="25.15" y2="75.06" />
                <line class="cls-1" x1="46.02" y1="64.83" x2="25.45" y2="75.94" />
                <line class="cls-1" x1="104.33" y1="64.08" x2="124.65" y2="74.85" />
                <line class="cls-1" x1="103.41" y1="64.64" x2="124.37" y2="75.76" />
                <line class="cls-1" x1="81.85" y1="59.61" x2="102.52" y2="75" />
                <line class="cls-1" x1="81.6" y1="60.49" x2="101.46" y2="75.73" />
                <line class="cls-2" x1="36.74" y1="69.37" x2="112.97" y2="69.37" />
                <line class="cls-2" x1="36.68" y1="70.29" x2="112.6" y2="70.29" />
                <rect class="cls-47" y="74.42" width="3.28" height="2.52" />
                <rect class="cls-48" x="146.09" y="74.58" width="3.28" height="2.37" />
                <rect class="cls-49" x="112.6" y="68.96" width="1.91" height="2.16" />
                <rect class="cls-50" x="34.58" y="69.05" width="2.16" height="2.04" />
                <rect class="cls-44" x="3.28" y="74.75" width="142.81" height="1.96" />
                <rect class="cls-51" x="67.42" y="57.45" width="2.56" height="2.56" />
                <rect class="cls-52" x="79.38" y="57.48" width="2.8" height="2.37" />
                <rect class="cls-53" x="101.98" y="63.45" width="2.57" height="2.23"
                    transform="translate(18.36 -22.75) rotate(13.79)" />
                <rect class="cls-54" x="44.7" y="63.5" width="2.57" height="2.23"
                    transform="translate(106.04 116.41) rotate(166.21)" />
                
            </g>
        </g>
    </g>
</svg>