<svg xmlns="http://www.w3.org/2000/svg" xmlns:xlink="http://www.w3.org/1999/xlink" viewBox="0 0 47.6 149.66">
    <defs>
        <style>
            .cls-1 {
                fill: url(#未命名的渐变_67);
            }

            .cls-2 {
                fill: url(#未命名的渐变_67-2);
            }

            .cls-3 {
                fill: url(#未命名的渐变_67-3);
            }

            .cls-4 {
                fill: url(#未命名的渐变_67-4);
            }

            .cls-5 {
                fill: url(#未命名的渐变_67-5);
            }

            .cls-6 {
                fill: url(#未命名的渐变_67-6);
            }

            .cls-7 {
                fill: url(#未命名的渐变_67-7);
            }

            .cls-8 {
                fill: url(#未命名的渐变_67-8);
            }

            .cls-9 {
                fill: url(#未命名的渐变_67-9);
            }

            .cls-10 {
                fill: url(#未命名的渐变_67-10);
            }

            .cls-11 {
                fill: url(#未命名的渐变_67-11);
            }

            .cls-12 {
                fill: url(#未命名的渐变_67-12);
            }

            .cls-13 {
                fill: url(#未命名的渐变_67-13);
            }

            .cls-14 {
                fill: url(#未命名的渐变_67-14);
            }

            .cls-15 {
                fill: url(#未命名的渐变_67-15);
            }

            .cls-16 {
                opacity: 0.2;
            }
        </style>
        <linearGradient id="未命名的渐变_67" x1="8.83" y1="16.29" x2="36.18" y2="16.29" gradientUnits="userSpaceOnUse">
            <stop offset="0" stop-color="#6b6b6b" />
            <stop offset="0.11" stop-color="#767676" />
            <stop offset="0.3" stop-color="#959595" />
            <stop offset="0.41" stop-color="#aaa" />
            <stop offset="0.56" stop-color="#ccc" />
            <stop offset="0.71" stop-color="#eaeaea" />
            <stop offset="0.8" stop-color="#f6f6f6" />
            <stop offset="0.83" stop-color="#ededed" />
            <stop offset="0.87" stop-color="#d4d4d4" />
            <stop offset="0.92" stop-color="#ababab" />
            <stop offset="0.98" stop-color="#737373" />
            <stop offset="0.99" stop-color="#666" />
        </linearGradient>
        <linearGradient id="未命名的渐变_67-2" x1="17.74" y1="7.24" x2="27.51" y2="7.24" xlink:href="#未命名的渐变_67" />
        <linearGradient id="未命名的渐变_67-3" x1="13.94" y1="74.69" x2="31.11" y2="74.69" xlink:href="#未命名的渐变_67" />
        <linearGradient id="未命名的渐变_67-4" x1="1.01" y1="77.12" x2="44.57" y2="77.12" xlink:href="#未命名的渐变_67" />
        <linearGradient id="未命名的渐变_67-5" x1="15.06" y1="134.24" x2="29.98" y2="134.24" xlink:href="#未命名的渐变_67" />
        <linearGradient id="未命名的渐变_67-6" x1="15.06" y1="137.48" x2="29.98" y2="137.48" xlink:href="#未命名的渐变_67" />
        <linearGradient id="未命名的渐变_67-7" x1="15.06" y1="140.71" x2="29.98" y2="140.71" xlink:href="#未命名的渐变_67" />
        <linearGradient id="未命名的渐变_67-8" x1="15.06" y1="143.94" x2="29.98" y2="143.94" xlink:href="#未命名的渐变_67" />
        <linearGradient id="未命名的渐变_67-9" x1="21.79" y1="-31.17" x2="91.48" y2="-31.17"
            gradientTransform="matrix(0.59, 0, 0, 1.12, -10.64, 59.82)" xlink:href="#未命名的渐变_67" />
        <linearGradient id="未命名的渐变_67-10" x1="21.91" y1="-21.62" x2="91.61" y2="-21.62"
            gradientTransform="matrix(0.59, 0, 0, 1.12, -10.64, 59.82)" xlink:href="#未命名的渐变_67" />
        <linearGradient id="未命名的渐变_67-11" x1="21.79" y1="-12.07" x2="91.49" y2="-12.07"
            gradientTransform="matrix(0.59, 0, 0, 1.12, -10.64, 59.82)" xlink:href="#未命名的渐变_67" />
        <linearGradient id="未命名的渐变_67-12" x1="22.02" y1="-2.91" x2="91.71" y2="-2.91"
            gradientTransform="matrix(0.59, 0, 0, 1.12, -10.64, 59.82)" xlink:href="#未命名的渐变_67" />
        <linearGradient id="未命名的渐变_67-13" x1="21.9" y1="6.82" x2="91.59" y2="6.82"
            gradientTransform="matrix(0.59, 0, 0, 1.12, -10.64, 59.82)" xlink:href="#未命名的渐变_67" />
        <linearGradient id="未命名的渐变_67-14" x1="15.16" y1="7.5" x2="30" y2="7.5" xlink:href="#未命名的渐变_67" />
        <linearGradient id="未命名的渐变_67-15" x1="17.82" y1="140.48" x2="27.85" y2="140.48" xlink:href="#未命名的渐变_67" />
    </defs>
    <title>Transformer component（变压器元件）</title>
    <g id="图层_2" data-name="图层 2">
        <g id="图层_59" data-name="图层 59">
            <g id="Transformer_component_变压器元件_" data-name="Transformer component（变压器元件）">
                <rect class="cls-1" x="8.83" y="14.49" width="27.34" height="3.6" rx="0.38" />
                <rect class="cls-2" x="17.74" width="9.78" height="14.49" />
                <rect class="cls-3" x="13.94" y="18.09" width="17.17" height="113.21" />
                <rect class="cls-4" x="1.01" y="74.2" width="43.56" height="5.83" rx="0.38" />
                <rect class="cls-5" x="15.06" y="133.32" width="14.92" height="1.85" />
                <rect class="cls-6" x="15.06" y="136.55" width="14.92" height="1.85" />
                <rect class="cls-7" x="15.06" y="139.78" width="14.92" height="1.85" />
                <rect class="cls-8" x="15.06" y="143.01" width="14.92" height="1.85" />
                <polygon class="cls-9"
                    points="42.96 28.83 2.19 28.71 2.2 24.34 15.96 20.93 29.19 20.97 42.98 24.29 42.96 28.83" />
                <polygon class="cls-10"
                    points="43.01 39.56 2.23 39.45 2.25 35.07 16 31.67 29.23 31.71 43.02 35.03 43.01 39.56" />
                <polygon class="cls-11"
                    points="42.91 50.3 2.13 50.19 2.15 45.81 15.9 42.41 29.13 42.45 42.92 45.77 42.91 50.3" />
                <polygon class="cls-12"
                    points="43.01 60.61 2.23 60.49 2.25 56.12 16 52.71 29.23 52.75 43.02 56.07 43.01 60.61" />
                <polygon class="cls-13"
                    points="42.91 71.55 2.13 71.43 2.15 67.06 15.9 63.66 29.13 63.69 42.92 67.01 42.91 71.55" />
                <rect class="cls-14" x="15.16" y="3.6" width="14.84" height="7.8" rx="0.37" />
                <rect class="cls-15" x="17.82" y="131.3" width="10.03" height="18.36" />
                
            </g>
        </g>
    </g>
</svg>