<svg xmlns="http://www.w3.org/2000/svg" xmlns:xlink="http://www.w3.org/1999/xlink" viewBox="0 0 149.8 148.27">
    <defs>
        <style>
            .cls-1 {
                fill: url(#未命名的渐变_67);
            }

            .cls-2 {
                fill: url(#未命名的渐变_67-2);
            }

            .cls-3 {
                fill: url(#未命名的渐变_67-3);
            }

            .cls-4 {
                fill: url(#未命名的渐变_67-4);
            }

            .cls-5 {
                fill: url(#未命名的渐变_67-5);
            }

            .cls-6 {
                fill: url(#未命名的渐变_67-6);
            }

            .cls-7 {
                fill: url(#未命名的渐变_67-7);
            }

            .cls-8 {
                fill: url(#未命名的渐变_67-8);
            }

            .cls-9 {
                fill: url(#未命名的渐变_67-9);
            }

            .cls-10 {
                fill: url(#未命名的渐变_67-10);
            }

            .cls-11 {
                fill: url(#未命名的渐变_67-11);
            }

            .cls-12 {
                fill: url(#未命名的渐变_67-12);
            }

            .cls-13 {
                fill: url(#未命名的渐变_67-13);
            }

            .cls-14 {
                fill: url(#未命名的渐变_67-14);
            }

            .cls-15 {
                fill: url(#未命名的渐变_67-15);
            }

            .cls-16 {
                fill: url(#未命名的渐变_67-16);
            }

            .cls-17 {
                fill: url(#未命名的渐变_67-17);
            }

            .cls-18 {
                fill: url(#未命名的渐变_67-18);
            }

            .cls-19 {
                fill: url(#未命名的渐变_67-19);
            }

            .cls-20 {
                fill: url(#未命名的渐变_67-20);
            }

            .cls-21 {
                fill: url(#未命名的渐变_67-21);
            }

            .cls-22 {
                fill: url(#未命名的渐变_67-22);
            }

            .cls-23 {
                fill: url(#未命名的渐变_67-23);
            }

            .cls-24 {
                fill: url(#未命名的渐变_67-24);
            }

            .cls-25 {
                fill: url(#未命名的渐变_67-25);
            }

            .cls-26 {
                fill: url(#未命名的渐变_67-26);
            }

            .cls-27 {
                fill: url(#未命名的渐变_74);
            }

            .cls-28 {
                fill: url(#未命名的渐变_74-2);
            }

            .cls-29 {
                fill: url(#未命名的渐变_74-3);
            }

            .cls-30 {
                fill: url(#未命名的渐变_74-4);
            }

            .cls-31 {
                fill: url(#未命名的渐变_74-5);
            }

            .cls-32 {
                fill: #373332;
            }

            .cls-33 {
                fill: #d1d1d1;
            }

            .cls-34 {
                fill: url(#未命名的渐变_67-27);
            }

            .cls-35 {
                fill: url(#未命名的渐变_67-28);
            }

            .cls-36 {
                fill: url(#未命名的渐变_67-29);
            }

            .cls-37 {
                fill: url(#未命名的渐变_67-30);
            }

            .cls-38 {
                fill: url(#未命名的渐变_67-31);
            }

            .cls-39 {
                fill: url(#未命名的渐变_67-32);
            }

            .cls-40 {
                fill: url(#未命名的渐变_67-33);
            }

            .cls-41 {
                fill: url(#未命名的渐变_67-34);
            }

            .cls-42 {
                fill: url(#未命名的渐变_67-35);
            }

            .cls-43 {
                fill: url(#未命名的渐变_67-36);
            }

            .cls-44 {
                fill: url(#未命名的渐变_67-37);
            }

            .cls-45 {
                fill: url(#未命名的渐变_67-38);
            }

            .cls-46 {
                fill: url(#未命名的渐变_67-39);
            }

            .cls-47 {
                fill: url(#未命名的渐变_67-40);
            }

            .cls-48 {
                fill: url(#未命名的渐变_74-6);
            }

            .cls-49 {
                opacity: 0.2;
            }
        </style>
        <linearGradient id="未命名的渐变_67" x1="107.23" y1="23.84" x2="110.3" y2="23.84"
            gradientTransform="translate(1.18 1.27)" gradientUnits="userSpaceOnUse">
            <stop offset="0" stop-color="#6b6b6b" />
            <stop offset="0.11" stop-color="#767676" />
            <stop offset="0.3" stop-color="#959595" />
            <stop offset="0.41" stop-color="#aaa" />
            <stop offset="0.56" stop-color="#ccc" />
            <stop offset="0.71" stop-color="#eaeaea" />
            <stop offset="0.8" stop-color="#f6f6f6" />
            <stop offset="0.83" stop-color="#ededed" />
            <stop offset="0.87" stop-color="#d4d4d4" />
            <stop offset="0.92" stop-color="#ababab" />
            <stop offset="0.98" stop-color="#737373" />
            <stop offset="0.99" stop-color="#666" />
        </linearGradient>
        <linearGradient id="未命名的渐变_67-2" x1="104.39" y1="27.56" x2="113.14" y2="27.56"
            gradientTransform="translate(1.21 1.27)" xlink:href="#未命名的渐变_67" />
        <linearGradient id="未命名的渐变_67-3" x1="107.55" y1="17.77" x2="109.98" y2="17.77"
            gradientTransform="translate(1.14 1.27)" xlink:href="#未命名的渐变_67" />
        <linearGradient id="未命名的渐变_67-4" x1="108.1" y1="16.13" x2="109.43" y2="16.13"
            gradientTransform="translate(1.13 1.27)" xlink:href="#未命名的渐变_67" />
        <linearGradient id="未命名的渐变_67-5" x1="108.46" y1="14.51" x2="109.07" y2="14.51"
            gradientTransform="translate(1.11 1.27)" xlink:href="#未命名的渐变_67" />
        <linearGradient id="未命名的渐变_67-6" x1="72.26" y1="-58.67" x2="82.41" y2="-58.67"
            gradientTransform="matrix(0.92, 0, 0.01, 1.35, 38.99, 102.31)" xlink:href="#未命名的渐变_67" />
        <linearGradient id="未命名的渐变_67-7" x1="106.77" y1="18.71" x2="110.76" y2="18.71"
            gradientTransform="translate(1.14 1.27)" xlink:href="#未命名的渐变_67" />
        <linearGradient id="未命名的渐变_67-8" x1="59.06" y1="24.86" x2="62.13" y2="24.86"
            gradientTransform="matrix(1, 0, 0, 1, 0, 0)" xlink:href="#未命名的渐变_67" />
        <linearGradient id="未命名的渐变_67-9" x1="56.22" y1="28.83" x2="64.97" y2="28.83"
            gradientTransform="matrix(1, 0, 0, 1, 0, 0)" xlink:href="#未命名的渐变_67" />
        <linearGradient id="未命名的渐变_67-10" x1="59.39" y1="18.36" x2="61.81" y2="18.36"
            gradientTransform="matrix(1, 0, 0, 1, 0, 0)" xlink:href="#未命名的渐变_67" />
        <linearGradient id="未命名的渐变_67-11" x1="59.93" y1="16.6" x2="61.26" y2="16.6"
            gradientTransform="matrix(1, 0, 0, 1, 0, 0)" xlink:href="#未命名的渐变_67" />
        <linearGradient id="未命名的渐变_67-12" x1="60.29" y1="14.87" x2="60.9" y2="14.87"
            gradientTransform="matrix(1, 0, 0, 1, 0, 0)" xlink:href="#未命名的渐变_67" />
        <linearGradient id="未命名的渐变_67-13" x1="20.02" y1="-57.94" x2="30.17" y2="-57.94"
            gradientTransform="matrix(0.92, 0, 0, 1.35, 37.24, 100.51)" xlink:href="#未命名的渐变_67" />
        <linearGradient id="未命名的渐变_67-14" x1="58.6" y1="19.36" x2="62.59" y2="19.36"
            gradientTransform="matrix(1, 0, 0, 1, 0, 0)" xlink:href="#未命名的渐变_67" />
        <linearGradient id="未命名的渐变_67-15" x1="88.78" y1="29.21" x2="101.92" y2="29.21"
            gradientTransform="matrix(1, 0, 0, 1, 0, 0)" xlink:href="#未命名的渐变_67" />
        <linearGradient id="未命名的渐变_67-16" x1="93.05" y1="16.03" x2="97.66" y2="16.03"
            gradientTransform="matrix(1, 0, 0, 1, 0, 0)" xlink:href="#未命名的渐变_67" />
        <linearGradient id="未命名的渐变_67-17" x1="93.53" y1="6.45" x2="97.17" y2="6.45"
            gradientTransform="matrix(1, 0, 0, 1, 0, 0)" xlink:href="#未命名的渐变_67" />
        <linearGradient id="未命名的渐变_67-18" x1="94.35" y1="3.92" x2="96.35" y2="3.92"
            gradientTransform="matrix(1, 0, 0, 1, 0, 0)" xlink:href="#未命名的渐变_67" />
        <linearGradient id="未命名的渐变_67-19" x1="94.89" y1="1.25" x2="95.81" y2="1.25"
            gradientTransform="matrix(1, 0, 0, 1, 0, 0)" xlink:href="#未命名的渐变_67" />
        <linearGradient id="未命名的渐变_67-20" x1="55.04" y1="-66.09" x2="70.27" y2="-66.09"
            gradientTransform="matrix(0.92, 0, 0, 1.35, 37.24, 100.51)" xlink:href="#未命名的渐变_67" />
        <linearGradient id="未命名的渐变_67-21" x1="55.16" y1="-63.04" x2="70.39" y2="-63.04"
            gradientTransform="matrix(0.92, 0, 0, 1.35, 37.24, 100.51)" xlink:href="#未命名的渐变_67" />
        <linearGradient id="未命名的渐变_67-22" x1="55.17" y1="-59.93" x2="70.4" y2="-59.93"
            gradientTransform="matrix(0.92, 0, 0, 1.35, 37.24, 100.51)" xlink:href="#未命名的渐变_67" />
        <linearGradient id="未命名的渐变_67-23" x1="92.36" y1="7.99" x2="98.35" y2="7.99"
            gradientTransform="matrix(1, 0, 0, 1, 0, 0)" xlink:href="#未命名的渐变_67" />
        <linearGradient id="未命名的渐变_67-24" x1="45.88" y1="21.8" x2="48.95" y2="21.8"
            gradientTransform="matrix(1, 0, 0, 1, 0, 0)" xlink:href="#未命名的渐变_67" />
        <linearGradient id="未命名的渐变_67-25" x1="43.04" y1="28.43" x2="51.79" y2="28.43"
            gradientTransform="matrix(1, 0, 0, 1, 0, 0)" xlink:href="#未命名的渐变_67" />
        <linearGradient id="未命名的渐变_67-26" x1="23.73" y1="29.16" x2="36.87" y2="29.16"
            gradientTransform="matrix(1, 0, 0, 1, 0, 0)" xlink:href="#未命名的渐变_67" />
        <linearGradient id="未命名的渐变_74" x1="30.03" y1="140.8" x2="36.84" y2="140.8" gradientUnits="userSpaceOnUse">
            <stop offset="0" stop-color="#6b6b6b" />
            <stop offset="0.01" stop-color="#767676" />
            <stop offset="0.03" stop-color="#959595" />
            <stop offset="0.04" stop-color="#aaa" />
            <stop offset="0.37" stop-color="#ccc" />
            <stop offset="0.74" stop-color="#eaeaea" />
            <stop offset="0.94" stop-color="#f6f6f6" />
            <stop offset="0.95" stop-color="#ededed" />
            <stop offset="0.96" stop-color="#d4d4d4" />
            <stop offset="0.97" stop-color="#ababab" />
            <stop offset="0.99" stop-color="#737373" />
            <stop offset="0.99" stop-color="#666" />
        </linearGradient>
        <linearGradient id="未命名的渐变_74-2" x1="97.77" y1="140.8" x2="104.58" y2="140.8" xlink:href="#未命名的渐变_74" />
        <linearGradient id="未命名的渐变_74-3" x1="521.94" y1="64.34" x2="521.94" y2="49.18"
            gradientTransform="translate(-395.95 69.02)" xlink:href="#未命名的渐变_74" />
        <linearGradient id="未命名的渐变_74-4" x1="9.25" y1="80.61" x2="126.34" y2="80.61" xlink:href="#未命名的渐变_74" />
        <linearGradient id="未命名的渐变_74-5" x1="125.89" y1="76.16" x2="149.8" y2="76.16" xlink:href="#未命名的渐变_74" />
        <linearGradient id="未命名的渐变_67-27" x1="28" y1="15.97" x2="32.6" y2="15.97"
            gradientTransform="matrix(1, 0, 0, 1, 0, 0)" xlink:href="#未命名的渐变_67" />
        <linearGradient id="未命名的渐变_67-28" x1="28.48" y1="6.39" x2="32.12" y2="6.39"
            gradientTransform="matrix(1, 0, 0, 1, 0, 0)" xlink:href="#未命名的渐变_67" />
        <linearGradient id="未命名的渐变_67-29" x1="29.3" y1="3.87" x2="31.3" y2="3.87"
            gradientTransform="matrix(1, 0, 0, 1, 0, 0)" xlink:href="#未命名的渐变_67" />
        <linearGradient id="未命名的渐变_67-30" x1="29.84" y1="1.2" x2="30.76" y2="1.2"
            gradientTransform="matrix(1, 0, 0, 1, 0, 0)" xlink:href="#未命名的渐变_67" />
        <linearGradient id="未命名的渐变_67-31" x1="-15.52" y1="-65.99" x2="-0.29" y2="-65.99"
            gradientTransform="matrix(0.92, 0, 0, 1.35, 37.24, 100.51)" xlink:href="#未命名的渐变_67" />
        <linearGradient id="未命名的渐变_67-32" x1="-15.4" y1="-62.94" x2="-0.17" y2="-62.94"
            gradientTransform="matrix(0.92, 0, 0, 1.35, 37.24, 100.51)" xlink:href="#未命名的渐变_67" />
        <linearGradient id="未命名的渐变_67-33" x1="-15.39" y1="-59.83" x2="-0.16" y2="-59.83"
            gradientTransform="matrix(0.92, 0, 0, 1.35, 37.24, 100.51)" xlink:href="#未命名的渐变_67" />
        <linearGradient id="未命名的渐变_67-34" x1="27.31" y1="7.94" x2="33.3" y2="7.94"
            gradientTransform="matrix(1, 0, 0, 1, 0, 0)" xlink:href="#未命名的渐变_67" />
        <linearGradient id="未命名的渐变_67-35" x1="46.21" y1="15.42" x2="48.63" y2="15.42"
            gradientTransform="matrix(1, 0, 0, 1, 0, 0)" xlink:href="#未命名的渐变_67" />
        <linearGradient id="未命名的渐变_67-36" x1="46.75" y1="13.74" x2="48.08" y2="13.74"
            gradientTransform="matrix(1, 0, 0, 1, 0, 0)" xlink:href="#未命名的渐变_67" />
        <linearGradient id="未命名的渐变_67-37" x1="47.11" y1="11.96" x2="47.72" y2="11.96"
            gradientTransform="matrix(1, 0, 0, 1, 0, 0)" xlink:href="#未命名的渐变_67" />
        <linearGradient id="未命名的渐变_67-38" x1="5.64" y1="-60.55" x2="15.79" y2="-60.55"
            gradientTransform="matrix(0.92, 0, 0, 1.35, 37.24, 100.51)" xlink:href="#未命名的渐变_67" />
        <linearGradient id="未命名的渐变_67-39" x1="5.73" y1="-58.16" x2="15.87" y2="-58.16"
            gradientTransform="matrix(0.92, 0, 0, 1.35, 37.24, 100.51)" xlink:href="#未命名的渐变_67" />
        <linearGradient id="未命名的渐变_67-40" x1="45.42" y1="16.45" x2="49.41" y2="16.45"
            gradientTransform="matrix(1, 0, 0, 1, 0, 0)" xlink:href="#未命名的渐变_67" />
        <linearGradient id="未命名的渐变_74-6" x1="0" y1="28.33" x2="134" y2="28.33" xlink:href="#未命名的渐变_74" />
    </defs>
    <title>Transformer（变压器）</title>
    <g id="图层_2" data-name="图层 2">
        <g id="图层_59" data-name="图层 59">
            <g id="Transformer_变压器_" data-name="Transformer（变压器）">
                <rect class="cls-1" x="108.41" y="20.38" width="3.07" height="9.47"
                    transform="translate(-0.18 0.82) rotate(-0.43)" />
                <rect class="cls-2" x="105.6" y="25.12" width="8.75" height="7.43" rx="0.25"
                    transform="translate(-0.21 0.82) rotate(-0.43)" />
                <rect class="cls-3" x="108.69" y="18.37" width="2.42" height="1.36"
                    transform="translate(-0.14 0.82) rotate(-0.43)" />
                <rect class="cls-4" x="109.22" y="16.44" width="1.33" height="1.93"
                    transform="translate(-0.13 0.82) rotate(-0.43)" />
                <rect class="cls-5" x="109.57" y="15.12" width="0.61" height="1.32"
                    transform="translate(-0.11 0.82) rotate(-0.43)" />
                <polygon class="cls-6"
                    points="114.61 23.29 105.25 23.34 105.25 22.6 108.4 22.01 111.44 21.99 114.61 22.53 114.61 23.29" />
                <rect class="cls-7" x="107.91" y="19.36" width="3.99" height="1.24" rx="0.15"
                    transform="translate(-0.15 0.82) rotate(-0.43)" />
                <rect class="cls-8" x="59.06" y="19.79" width="3.07" height="10.13" />
                <rect class="cls-9" x="56.22" y="24.86" width="8.75" height="7.95" rx="0.25" />
                <rect class="cls-10" x="59.39" y="17.63" width="2.42" height="1.46" />
                <rect class="cls-11" x="59.93" y="15.57" width="1.33" height="2.06" />
                <rect class="cls-12" x="60.29" y="14.16" width="0.61" height="1.41" />
                <polygon class="cls-13"
                    points="65.27 22.94 55.92 22.92 55.92 22.13 59.08 21.52 62.11 21.53 65.28 22.13 65.27 22.94" />
                <rect class="cls-14" x="58.6" y="18.7" width="3.99" height="1.32" rx="0.15" />
                <rect class="cls-15" x="88.78" y="23.42" width="13.14" height="11.59" rx="0.49" />
                <rect class="cls-16" x="93.05" y="8.64" width="4.6" height="14.78" />
                <rect class="cls-17" x="93.53" y="5.38" width="3.64" height="2.13" />
                <rect class="cls-18" x="94.35" y="2.45" width="2" height="2.93" />
                <rect class="cls-19" x="94.89" y="0.05" width="0.92" height="2.4" />
                <polygon class="cls-20"
                    points="102.27 12.36 88.23 12.32 88.23 11.17 92.97 10.28 97.53 10.29 102.28 11.17 102.27 12.36" />
                <polygon class="cls-21"
                    points="102.37 16.48 88.33 16.45 88.33 15.29 93.07 14.4 97.63 14.42 102.38 15.29 102.37 16.48" />
                <polygon class="cls-22"
                    points="102.37 20.69 88.33 20.65 88.33 19.5 93.07 18.61 97.63 18.62 102.38 19.5 102.37 20.69" />
                <rect class="cls-23" x="92.36" y="7.03" width="5.99" height="1.93" rx="0.24" />
                <rect class="cls-24" x="45.88" y="16.88" width="3.07" height="9.85" />
                <rect class="cls-25" x="43.04" y="24.57" width="8.75" height="7.72" rx="0.25" />
                <rect class="cls-26" x="23.73" y="23.36" width="13.14" height="11.59" rx="0.49" />
                <rect class="cls-27" x="30.03" y="133.33" width="6.8" height="14.94" />
                <rect class="cls-28" x="97.77" y="133.33" width="6.8" height="14.94" />
                <rect class="cls-29" x="123.58" y="118.2" width="4.82" height="15.16"
                    transform="translate(251.77 -0.21) rotate(90)" />
                <rect class="cls-30" x="9.25" y="26.4" width="117.08" height="108.42" />
                <rect class="cls-31" x="125.89" y="37.96" width="23.91" height="76.39" />
                <rect class="cls-32" x="13.61" y="39.68" width="108.37" height="81.89" />
                <rect class="cls-33" x="17.77" y="39.73" width="2.58" height="81.75" />
                <rect class="cls-33" x="23.12" y="39.73" width="2.58" height="81.75" />
                <rect class="cls-33" x="28.34" y="39.73" width="2.58" height="81.75" />
                <rect class="cls-33" x="33.55" y="39.73" width="2.58" height="81.75" />
                <rect class="cls-33" x="39.46" y="39.73" width="2.58" height="81.75" />
                <rect class="cls-33" x="44.63" y="39.73" width="2.58" height="81.75" />
                <rect class="cls-33" x="50.49" y="39.73" width="2.58" height="81.75" />
                <rect class="cls-33" x="55.71" y="39.73" width="2.58" height="81.75" />
                <rect class="cls-33" x="60.86" y="39.73" width="2.58" height="81.75" />
                <rect class="cls-33" x="66.01" y="39.73" width="2.58" height="81.75" />
                <rect class="cls-33" x="71.55" y="39.73" width="2.58" height="81.75" />
                <rect class="cls-33" x="77.09" y="39.73" width="2.58" height="81.75" />
                <rect class="cls-33" x="82.76" y="39.73" width="2.58" height="81.75" />
                <rect class="cls-33" x="87.65" y="39.73" width="2.58" height="81.75" />
                <rect class="cls-33" x="93.45" y="39.73" width="2.58" height="81.75" />
                <rect class="cls-33" x="98.6" y="39.73" width="2.58" height="81.75" />
                <rect class="cls-33" x="104.27" y="39.73" width="2.58" height="81.75" />
                <rect class="cls-33" x="109.61" y="39.73" width="2.58" height="81.75" />
                <rect class="cls-33" x="114.96" y="39.73" width="2.58" height="81.75" />
                <rect class="cls-34" x="28" y="8.58" width="4.6" height="14.78" />
                <rect class="cls-35" x="28.48" y="5.33" width="3.64" height="2.13" />
                <rect class="cls-36" x="29.3" y="2.4" width="2" height="2.93" />
                <rect class="cls-37" x="29.84" width="0.92" height="2.4" />
                <polygon class="cls-38"
                    points="37.22 12.31 23.18 12.27 23.18 11.12 27.92 10.23 32.48 10.24 37.23 11.12 37.22 12.31" />
                <polygon class="cls-39"
                    points="37.32 16.43 23.28 16.39 23.28 15.24 28.02 14.35 32.58 14.37 37.32 15.24 37.32 16.43" />
                <polygon class="cls-40"
                    points="37.32 20.64 23.28 20.6 23.28 19.45 28.02 18.56 32.58 18.57 37.32 19.45 37.32 20.64" />
                <rect class="cls-41" x="27.31" y="6.97" width="5.99" height="1.93" rx="0.24" />
                <rect class="cls-42" x="46.21" y="14.71" width="2.42" height="1.42" />
                <rect class="cls-43" x="46.75" y="12.76" width="1.33" height="1.95" />
                <rect class="cls-44" x="47.11" y="11.16" width="0.61" height="1.6" />
                <polygon class="cls-45"
                    points="52.03 19.36 42.67 19.34 42.68 18.57 45.83 17.98 48.87 17.98 52.03 18.57 52.03 19.36" />
                <polygon class="cls-46"
                    points="52.09 22.59 42.74 22.57 42.74 21.8 45.9 21.21 48.93 21.22 52.1 21.8 52.09 22.59" />
                <rect class="cls-47" x="45.42" y="15.81" width="3.99" height="1.29" rx="0.15" />
                <rect class="cls-48" y="26.4" width="134" height="3.86" />
                
            </g>
        </g>
    </g>
</svg>