<svg xmlns="http://www.w3.org/2000/svg" xmlns:xlink="http://www.w3.org/1999/xlink" viewBox="0 0 177.73 149.54">
    <defs>
        <style>
            .cls-1 {
                fill: #bababa;
            }

            .cls-2 {
                fill: url(#未命名的渐变_67);
            }

            .cls-3 {
                fill: #dbdbdb;
            }

            .cls-4 {
                fill: #909191;
            }

            .cls-5 {
                fill: none;
                stroke: #bababa;
                stroke-miterlimit: 10;
                stroke-width: 0.25px;
            }

            .cls-6 {
                fill: url(#未命名的渐变_67-2);
            }

            .cls-7 {
                fill: url(#未命名的渐变_67-3);
            }

            .cls-8 {
                opacity: 0.2;
            }
        </style>
        <linearGradient id="未命名的渐变_67" x1="34.01" y1="74.77" x2="46.72" y2="74.77" gradientUnits="userSpaceOnUse">
            <stop offset="0" stop-color="#6b6b6b" />
            <stop offset="0.11" stop-color="#767676" />
            <stop offset="0.3" stop-color="#959595" />
            <stop offset="0.41" stop-color="#aaa" />
            <stop offset="0.56" stop-color="#ccc" />
            <stop offset="0.71" stop-color="#eaeaea" />
            <stop offset="0.8" stop-color="#f6f6f6" />
            <stop offset="0.83" stop-color="#ededed" />
            <stop offset="0.87" stop-color="#d4d4d4" />
            <stop offset="0.92" stop-color="#ababab" />
            <stop offset="0.98" stop-color="#737373" />
            <stop offset="0.99" stop-color="#666" />
        </linearGradient>
        <linearGradient id="未命名的渐变_67-2" x1="7.67" y1="26.56" x2="13.73" y2="26.56" xlink:href="#未命名的渐变_67" />
        <linearGradient id="未命名的渐变_67-3" x1="66.01" y1="18.43" x2="72.07" y2="18.43" xlink:href="#未命名的渐变_67" />
    </defs>
    <title>Utility pole with cables（带电缆的电线杆）</title>
    <g id="图层_2" data-name="图层 2">
        <g id="图层_59" data-name="图层 59">
            <g id="Utility_pole_with_cables_带电缆的电线杆_" data-name="Utility pole with cables（带电缆的电线杆）">
                <polygon class="cls-1" points="79.39 20.22 6.83 29.91 0 26.82 72.56 17.14 79.39 20.22" />
                <rect class="cls-2" x="34.01" width="12.7" height="149.54" rx="0.94" />
                <polygon class="cls-3" points="79.39 24.26 6.83 33.95 6.83 30.04 79.39 20.36 79.39 24.26" />
                <polygon class="cls-4" points="6.83 33.95 0 30.86 0 26.96 6.83 30.04 6.83 33.95" />
                <path class="cls-5" d="M12.81,29.25S82.44,76,168.35,77.06" />
                <path class="cls-5" d="M70.24,20.36S99.78,38.48,177.72,44.27" />
                <path class="cls-6" d="M7.67,23.52v5h0c.12.59,1.39,1.06,3,1.06s2.85-.47,3-1.06h.05v-5Z" />
                <ellipse class="cls-1" cx="10.7" cy="23.52" rx="3.03" ry="1.29" />
                <path class="cls-7" d="M66,15.4v5h0c.13.59,1.39,1.06,3,1.06s2.86-.47,3-1.06h0v-5Z" />
                <ellipse class="cls-1" cx="69.04" cy="15.4" rx="3.03" ry="1.29" />
                
            </g>
        </g>
    </g>
</svg>