<svg xmlns="http://www.w3.org/2000/svg" xmlns:xlink="http://www.w3.org/1999/xlink" viewBox="0 0 150 144.17">
    <defs>
        <style>
            .cls-1 {
                fill: url(#未命名的渐变_74);
            }

            .cls-2 {
                fill: url(#未命名的渐变_105);
            }

            .cls-3 {
                fill: url(#未命名的渐变_105-2);
            }

            .cls-4 {
                fill: url(#未命名的渐变_105-3);
            }

            .cls-5 {
                fill: url(#未命名的渐变_105-4);
            }

            .cls-6 {
                fill: url(#未命名的渐变_67);
            }

            .cls-7 {
                fill: url(#未命名的渐变_67-2);
            }

            .cls-8 {
                fill: url(#未命名的渐变_67-3);
            }

            .cls-9 {
                fill: url(#未命名的渐变_67-4);
            }

            .cls-10 {
                fill: url(#未命名的渐变_67-5);
            }

            .cls-11 {
                fill: url(#未命名的渐变_67-6);
            }

            .cls-12 {
                fill: url(#未命名的渐变_67-7);
            }

            .cls-13 {
                fill: url(#未命名的渐变_67-8);
            }

            .cls-14 {
                fill: url(#未命名的渐变_67-9);
            }

            .cls-15 {
                fill: url(#未命名的渐变_67-10);
            }

            .cls-16 {
                fill: url(#未命名的渐变_67-11);
            }

            .cls-17 {
                fill: url(#未命名的渐变_67-12);
            }

            .cls-18 {
                fill: url(#未命名的渐变_67-13);
            }

            .cls-19 {
                fill: url(#未命名的渐变_67-14);
            }

            .cls-20 {
                fill: url(#未命名的渐变_67-15);
            }

            .cls-21 {
                fill: url(#未命名的渐变_67-16);
            }

            .cls-22 {
                fill: url(#未命名的渐变_67-17);
            }

            .cls-23 {
                fill: url(#未命名的渐变_67-18);
            }

            .cls-24 {
                fill: url(#未命名的渐变_67-19);
            }

            .cls-25 {
                fill: url(#未命名的渐变_67-20);
            }

            .cls-26 {
                fill: url(#未命名的渐变_67-21);
            }

            .cls-27 {
                fill: url(#未命名的渐变_67-22);
            }

            .cls-28 {
                fill: url(#未命名的渐变_67-23);
            }

            .cls-29 {
                fill: url(#未命名的渐变_67-24);
            }

            .cls-30 {
                fill: url(#未命名的渐变_67-25);
            }

            .cls-31 {
                fill: url(#未命名的渐变_67-26);
            }

            .cls-32 {
                fill: url(#未命名的渐变_67-27);
            }

            .cls-33 {
                fill: url(#未命名的渐变_67-28);
            }

            .cls-34 {
                fill: url(#未命名的渐变_67-29);
            }

            .cls-35 {
                fill: url(#未命名的渐变_67-30);
            }

            .cls-36 {
                fill: url(#未命名的渐变_85);
            }

            .cls-37 {
                opacity: 0.2;
            }
        </style>
        <linearGradient id="未命名的渐变_74" y1="114.65" x2="150" y2="114.65" gradientUnits="userSpaceOnUse">
            <stop offset="0" stop-color="#6b6b6b" />
            <stop offset="0.01" stop-color="#767676" />
            <stop offset="0.03" stop-color="#959595" />
            <stop offset="0.04" stop-color="#aaa" />
            <stop offset="0.37" stop-color="#ccc" />
            <stop offset="0.74" stop-color="#eaeaea" />
            <stop offset="0.94" stop-color="#f6f6f6" />
            <stop offset="0.95" stop-color="#ededed" />
            <stop offset="0.96" stop-color="#d4d4d4" />
            <stop offset="0.97" stop-color="#ababab" />
            <stop offset="0.99" stop-color="#737373" />
            <stop offset="0.99" stop-color="#666" />
        </linearGradient>
        <linearGradient id="未命名的渐变_105" x1="5.45" y1="92.82" x2="13.01" y2="92.82" gradientUnits="userSpaceOnUse">
            <stop offset="0" stop-color="#e2e2e2" />
            <stop offset="0.03" stop-color="#d0d0d0" />
            <stop offset="0.06" stop-color="#bcbcbc" />
            <stop offset="0.09" stop-color="#b5b5b5" />
            <stop offset="0.49" stop-color="#f6f6f6" />
            <stop offset="0.63" stop-color="#f3f3f3" />
            <stop offset="0.73" stop-color="#eaeaea" />
            <stop offset="0.82" stop-color="#dbdbdb" />
            <stop offset="0.9" stop-color="#c6c6c6" />
            <stop offset="0.97" stop-color="#aaa" />
            <stop offset="1" stop-color="#9b9b9b" />
        </linearGradient>
        <linearGradient id="未命名的渐变_105-2" x1="134.4" y1="93.1" x2="141.96" y2="93.1" xlink:href="#未命名的渐变_105" />
        <linearGradient id="未命名的渐变_105-3" x1="134.4" y1="137.91" x2="141.96" y2="137.91" xlink:href="#未命名的渐变_105" />
        <linearGradient id="未命名的渐变_105-4" x1="5.45" y1="137.91" x2="13.01" y2="137.91" xlink:href="#未命名的渐变_105" />
        <linearGradient id="未命名的渐变_67" x1="16.32" y1="10.07" x2="33.95" y2="10.07" gradientUnits="userSpaceOnUse">
            <stop offset="0" stop-color="#6b6b6b" />
            <stop offset="0.11" stop-color="#767676" />
            <stop offset="0.3" stop-color="#959595" />
            <stop offset="0.41" stop-color="#aaa" />
            <stop offset="0.56" stop-color="#ccc" />
            <stop offset="0.71" stop-color="#eaeaea" />
            <stop offset="0.8" stop-color="#f6f6f6" />
            <stop offset="0.83" stop-color="#ededed" />
            <stop offset="0.87" stop-color="#d4d4d4" />
            <stop offset="0.92" stop-color="#ababab" />
            <stop offset="0.98" stop-color="#737373" />
            <stop offset="0.99" stop-color="#666" />
        </linearGradient>
        <linearGradient id="未命名的渐变_67-2" x1="22.48" y1="4.35" x2="27.43" y2="4.35" xlink:href="#未命名的渐变_67" />
        <linearGradient id="未命名的渐变_67-3" x1="17.17" y1="45.08" x2="33.49" y2="45.08" xlink:href="#未命名的渐变_67" />
        <linearGradient id="未命名的渐变_67-4" x1="-15.31" y1="-200.1" x2="24.91" y2="-200.1"
            gradientTransform="matrix(0.92, 0, 0, 1.47, 19.87, 310.79)" xlink:href="#未命名的渐变_67" />
        <linearGradient id="未命名的渐变_67-5" x1="-15.29" y1="-157.63" x2="24.92" y2="-157.63"
            gradientTransform="matrix(0.92, 0, 0, 1.36, 20.08, 247.94)" xlink:href="#未命名的渐变_67" />
        <linearGradient id="未命名的渐变_67-6" x1="-15.37" y1="-145.11" x2="24.85" y2="-145.11"
            gradientTransform="matrix(0.92, 0, 0, 1.36, 20.08, 247.94)" xlink:href="#未命名的渐变_67" />
        <linearGradient id="未命名的渐变_67-7" x1="-11.82" y1="-263.27" x2="21.19" y2="-263.27"
            gradientTransform="matrix(0.92, 0, -0.01, 1.79, 19.33, 495.91)" xlink:href="#未命名的渐变_67" />
        <linearGradient id="未命名的渐变_67-8" x1="-11.4" y1="-253.88" x2="21.61" y2="-253.88"
            gradientTransform="matrix(0.92, 0, -0.01, 1.79, 19.33, 495.91)" xlink:href="#未命名的渐变_67" />
        <linearGradient id="未命名的渐变_67-9" x1="-11.35" y1="-245.56" x2="21.66" y2="-245.56"
            gradientTransform="matrix(0.92, 0, -0.01, 1.8, 19.32, 499.35)" xlink:href="#未命名的渐变_67" />
        <linearGradient id="未命名的渐变_67-10" x1="20.24" y1="4.49" x2="29.79" y2="4.49" xlink:href="#未命名的渐变_67" />
        <linearGradient id="未命名的渐变_67-11" x1="66.12" y1="10.07" x2="83.75" y2="10.07" xlink:href="#未命名的渐变_67" />
        <linearGradient id="未命名的渐变_67-12" x1="72.28" y1="4.35" x2="77.23" y2="4.35" xlink:href="#未命名的渐变_67" />
        <linearGradient id="未命名的渐变_67-13" x1="66.97" y1="45.08" x2="83.29" y2="45.08" xlink:href="#未命名的渐变_67" />
        <linearGradient id="未命名的渐变_67-14" x1="38.71" y1="-200.2" x2="78.92" y2="-200.2"
            gradientTransform="matrix(0.92, 0, 0, 1.47, 19.87, 310.79)" xlink:href="#未命名的渐变_67" />
        <linearGradient id="未命名的渐变_67-15" x1="38.71" y1="-157.73" x2="78.93" y2="-157.73"
            gradientTransform="matrix(0.92, 0, 0, 1.36, 20.08, 247.94)" xlink:href="#未命名的渐变_67" />
        <linearGradient id="未命名的渐变_67-16" x1="38.63" y1="-145.22" x2="78.85" y2="-145.22"
            gradientTransform="matrix(0.92, 0, 0, 1.36, 20.08, 247.94)" xlink:href="#未命名的渐变_67" />
        <linearGradient id="未命名的渐变_67-17" x1="42.2" y1="-263.35" x2="75.21" y2="-263.35"
            gradientTransform="matrix(0.92, 0, -0.01, 1.79, 19.33, 495.91)" xlink:href="#未命名的渐变_67" />
        <linearGradient id="未命名的渐变_67-18" x1="42.61" y1="-253.96" x2="75.62" y2="-253.96"
            gradientTransform="matrix(0.92, 0, -0.01, 1.79, 19.33, 495.91)" xlink:href="#未命名的渐变_67" />
        <linearGradient id="未命名的渐变_67-19" x1="42.67" y1="-245.64" x2="75.68" y2="-245.64"
            gradientTransform="matrix(0.92, 0, -0.01, 1.8, 19.32, 499.35)" xlink:href="#未命名的渐变_67" />
        <linearGradient id="未命名的渐变_67-20" x1="70.04" y1="4.49" x2="79.59" y2="4.49" xlink:href="#未命名的渐变_67" />
        <linearGradient id="未命名的渐变_67-21" x1="116.1" y1="10.07" x2="133.72" y2="10.07" xlink:href="#未命名的渐变_67" />
        <linearGradient id="未命名的渐变_67-22" x1="122.25" y1="4.35" x2="127.21" y2="4.35" xlink:href="#未命名的渐变_67" />
        <linearGradient id="未命名的渐变_67-23" x1="116.94" y1="45.08" x2="133.27" y2="45.08" xlink:href="#未命名的渐变_67" />
        <linearGradient id="未命名的渐变_67-24" x1="92.92" y1="-200.3" x2="133.13" y2="-200.3"
            gradientTransform="matrix(0.92, 0, 0, 1.47, 19.87, 310.79)" xlink:href="#未命名的渐变_67" />
        <linearGradient id="未命名的渐变_67-25" x1="92.9" y1="-157.84" x2="133.12" y2="-157.84"
            gradientTransform="matrix(0.92, 0, 0, 1.36, 20.08, 247.94)" xlink:href="#未命名的渐变_67" />
        <linearGradient id="未命名的渐变_67-26" x1="92.83" y1="-145.33" x2="133.04" y2="-145.33"
            gradientTransform="matrix(0.92, 0, 0, 1.36, 20.08, 247.94)" xlink:href="#未命名的渐变_67" />
        <linearGradient id="未命名的渐变_67-27" x1="96.41" y1="-263.43" x2="129.41" y2="-263.43"
            gradientTransform="matrix(0.92, 0, -0.01, 1.79, 19.33, 495.91)" xlink:href="#未命名的渐变_67" />
        <linearGradient id="未命名的渐变_67-28" x1="96.82" y1="-254.04" x2="129.83" y2="-254.04"
            gradientTransform="matrix(0.92, 0, -0.01, 1.79, 19.33, 495.91)" xlink:href="#未命名的渐变_67" />
        <linearGradient id="未命名的渐变_67-29" x1="96.88" y1="-245.72" x2="129.88" y2="-245.72"
            gradientTransform="matrix(0.92, 0, -0.01, 1.8, 19.32, 499.35)" xlink:href="#未命名的渐变_67" />
        <linearGradient id="未命名的渐变_67-30" x1="120.02" y1="4.49" x2="129.57" y2="4.49" xlink:href="#未命名的渐变_67" />
        <linearGradient id="未命名的渐变_85" y1="81.92" x2="150" y2="81.92" gradientUnits="userSpaceOnUse">
            <stop offset="0" stop-color="#6b6b6b" />
            <stop offset="0.11" stop-color="#767676" />
            <stop offset="0.3" stop-color="#959595" />
            <stop offset="0.41" stop-color="#aaa" />
            <stop offset="0.68" stop-color="#acacac" />
            <stop offset="0.78" stop-color="#b3b3b3" />
            <stop offset="0.85" stop-color="#bebebe" />
            <stop offset="0.91" stop-color="#cfcfcf" />
            <stop offset="0.95" stop-color="#e5e5e5" />
            <stop offset="0.99" stop-color="#f6f6f6" />
            <stop offset="0.99" stop-color="#ededed" />
            <stop offset="0.99" stop-color="#d4d4d4" />
            <stop offset="0.99" stop-color="#adadad" />
        </linearGradient>
    </defs>
    <title>Vacuum switch（真空开关）</title>
    <g id="图层_2" data-name="图层 2">
        <g id="图层_59" data-name="图层 59">
            <g id="Vacuum_switch_真空开关_" data-name="Vacuum switch（真空开关）">
                <rect class="cls-1" y="85.13" width="150" height="59.05" />
                <circle class="cls-2" cx="9.23" cy="92.82" r="3.78" />
                <rect x="7.32" y="92.45" width="3.82" height="0.74" rx="0.05"
                    transform="translate(68.34 20.66) rotate(45)" />
                <rect x="7.32" y="92.45" width="3.82" height="0.74" rx="0.05"
                    transform="translate(-62.93 33.71) rotate(-45)" />
                <circle class="cls-3" cx="138.18" cy="93.1" r="3.78" />
                <rect x="136.27" y="92.73" width="3.82" height="0.74" rx="0.05"
                    transform="translate(106.3 -70.44) rotate(45)" />
                <rect x="136.27" y="92.73" width="3.82" height="0.74" rx="0.05"
                    transform="translate(-25.36 124.98) rotate(-45)" />
                <circle class="cls-4" cx="138.18" cy="137.91" r="3.78" />
                <rect x="136.27" y="137.54" width="3.82" height="0.74" rx="0.05"
                    transform="translate(137.99 -57.32) rotate(45)" />
                <rect x="136.27" y="137.54" width="3.82" height="0.74" rx="0.05"
                    transform="translate(-57.04 138.1) rotate(-45)" />
                <circle class="cls-5" cx="9.23" cy="137.91" r="3.78" />
                <rect x="7.32" y="137.54" width="3.82" height="0.74" rx="0.05"
                    transform="translate(100.22 33.86) rotate(45)" />
                <rect x="7.32" y="137.54" width="3.82" height="0.74" rx="0.05"
                    transform="translate(-94.81 46.92) rotate(-45)" />
                <rect class="cls-6" x="16.32" y="8.69" width="17.62" height="2.75" rx="0.26" />
                <rect class="cls-7" x="22.48" width="4.96" height="8.69" />
                <rect class="cls-8" x="17.17" y="11.44" width="16.33" height="67.28" />
                <polygon class="cls-9"
                    points="43.67 19.72 6.6 19.61 6.61 16.3 19.11 13.72 31.14 13.76 43.68 16.28 43.67 19.72" />
                <polygon class="cls-10"
                    points="43.68 36.48 6.59 36.37 6.6 33.3 19.11 30.92 31.14 30.96 43.69 33.3 43.68 36.48" />
                <polygon class="cls-11"
                    points="43.55 53.49 6.47 53.38 6.48 50.31 18.99 47.93 31.02 47.97 43.56 50.31 43.55 53.49" />
                <polygon class="cls-12"
                    points="40.23 26.83 9.8 26.74 9.8 23.42 20.07 20.84 29.95 20.86 40.24 23.39 40.23 26.83" />
                <polygon class="cls-13"
                    points="40.56 43.67 10.13 43.58 10.14 40.26 20.41 37.68 30.28 37.7 40.57 40.23 40.56 43.67" />
                <polygon class="cls-14"
                    points="40.56 60.55 10.13 60.47 10.14 57.13 20.41 54.54 30.28 54.57 40.57 57.1 40.56 60.55" />
                <rect class="cls-15" x="20.24" y="1.85" width="9.55" height="5.29" />
                <rect class="cls-16" x="66.12" y="8.69" width="17.62" height="2.75" rx="0.26" />
                <rect class="cls-17" x="72.28" width="4.96" height="8.69" />
                <rect class="cls-18" x="66.97" y="11.44" width="16.33" height="67.28" />
                <polygon class="cls-19"
                    points="93.47 19.72 56.4 19.61 56.41 16.3 68.91 13.72 80.94 13.76 93.48 16.28 93.47 19.72" />
                <polygon class="cls-20"
                    points="93.48 36.48 56.39 36.37 56.4 33.3 68.91 30.92 80.94 30.96 93.48 33.3 93.48 36.48" />
                <polygon class="cls-21"
                    points="93.36 53.49 56.27 53.38 56.28 50.31 68.79 47.93 80.82 47.97 93.36 50.31 93.36 53.49" />
                <polygon class="cls-22"
                    points="90.03 26.83 59.6 26.74 59.6 23.42 69.87 20.84 79.75 20.86 90.04 23.39 90.03 26.83" />
                <polygon class="cls-23"
                    points="90.36 43.67 59.93 43.58 59.94 40.26 70.2 37.68 80.08 37.7 90.37 40.23 90.36 43.67" />
                <polygon class="cls-24"
                    points="90.36 60.55 59.93 60.47 59.94 57.13 70.21 54.54 80.08 54.57 90.37 57.1 90.36 60.55" />
                <rect class="cls-25" x="70.04" y="1.85" width="9.55" height="5.29" />
                <rect class="cls-26" x="116.1" y="8.69" width="17.62" height="2.75" rx="0.26" />
                <rect class="cls-27" x="122.25" width="4.96" height="8.69" />
                <rect class="cls-28" x="116.94" y="11.44" width="16.33" height="67.28" />
                <polygon class="cls-29"
                    points="143.45 19.72 106.37 19.61 106.38 16.3 118.89 13.72 130.92 13.76 143.46 16.28 143.45 19.72" />
                <polygon class="cls-30"
                    points="143.45 36.48 106.37 36.37 106.38 33.3 118.89 30.92 130.92 30.96 143.46 33.3 143.45 36.48" />
                <polygon class="cls-31"
                    points="143.33 53.49 106.25 53.38 106.25 50.31 118.76 47.93 130.8 47.97 143.34 50.31 143.33 53.49" />
                <polygon class="cls-32"
                    points="140 26.83 109.57 26.74 109.58 23.42 119.85 20.84 129.72 20.86 140.01 23.39 140 26.83" />
                <polygon class="cls-33"
                    points="140.34 43.67 109.91 43.58 109.92 40.26 120.18 37.68 130.06 37.7 140.35 40.23 140.34 43.67" />
                <polygon class="cls-34"
                    points="140.34 60.55 109.91 60.47 109.92 57.13 120.18 54.54 130.06 54.57 140.35 57.1 140.34 60.55" />
                <rect class="cls-35" x="120.02" y="1.85" width="9.55" height="5.29" />
                <rect class="cls-36" y="78.72" width="150" height="6.4" />
                
            </g>
        </g>
    </g>
</svg>