 

<svg xmlns:agg="http://www.example.com" xmlns="http://www.w3.org/2000/svg" width="1.0320in" height="1.0750in" viewBox="0 0 959 999">

<path style="fill:#b2b2b2" d="M892,263 l-864,0 0,707 864,0 0,-707z" />
<path style="fill:#bfbfbf" d="M892,263 l-864,0 0,530 864,79 0,-609z" />
<path style="fill:#ccc" d="M892,263 l-864,0 0,491 864,79 0,-570z" />
<path style="fill:#d9d9d9" d="M892,263 l-864,0 0,413 864,78 0,-491z" />
<path style="fill:#e5e5e5" d="M892,263 l-864,0 0,236 864,79 0,-315z" />
<path style="fill:none;stroke:#000;stroke-width:2" d="M892,263 l-864,0 0,707 864,0 0,-707" />
<path style="fill:#7f7f7f" d="M813,28 l-275,0 0,235 275,0 0,-235z" />
<path style="fill:#999" d="M796,28 l-241,0 0,235 241,0 0,-235z" />
<path style="fill:#b2b2b2" d="M767,28 l-183,0 0,235 183,0 0,-235z" />
<path style="fill:#ccc" d="M756,28 l-161,0 0,235 161,0 0,-235z" />
<path style="fill:#e5e5e5" d="M716,28 l-80,0 0,235 80,0 0,-235z" />
<path style="fill:none;stroke:#000;stroke-width:2" d="M813,28 l-275,0 0,235 275,0 0,-235" />
<path style="fill:#ccc;stroke:#000;stroke-width:2" d="M931,342 l-39,0 0,157 39,0 0,-157z" />
<path style="fill:#999;stroke:#000;stroke-width:2" d="M931,636 l-39,0 0,99 39,0 0,-99z" />
<path style="fill:#7f7f7f" d="M852,185 l-19,0 0,667 19,0 0,-667z" />

</svg>
