<?xml version="1.0" encoding="UTF-8"?>
<svg xmlns="http://www.w3.org/2000/svg" xmlns:xlink="http://www.w3.org/1999/xlink" viewBox="0 0 150 150.85">
  <defs>
    <style>
      .cls-1 {
        fill: url(#_未命名的渐变_13);
      }

      .cls-1, .cls-2, .cls-3, .cls-4, .cls-5, .cls-6, .cls-7, .cls-8, .cls-9, .cls-10, .cls-11, .cls-12, .cls-13, .cls-14, .cls-15, .cls-16, .cls-17, .cls-18, .cls-19, .cls-20, .cls-21, .cls-22, .cls-23, .cls-24, .cls-25, .cls-26, .cls-27, .cls-28, .cls-29, .cls-30, .cls-31, .cls-32, .cls-33, .cls-34, .cls-35, .cls-36, .cls-37 {
        stroke-width: 0px;
      }

      .cls-2 {
        fill: url(#_未命名的渐变_21);
      }

      .cls-3 {
        fill: url(#_未命名的渐变_78);
      }

      .cls-4 {
        fill: url(#_未命名的渐变_73);
      }

      .cls-5 {
        fill: url(#_未命名的渐变_55);
      }

      .cls-6, .cls-38 {
        fill: none;
      }

      .cls-38 {
        stroke: #fff;
        stroke-miterlimit: 10;
        stroke-width: .1px;
      }

      .cls-7 {
        fill: url(#_未命名的渐变_13-3);
      }

      .cls-8 {
        fill: url(#_未命名的渐变_13-2);
      }

      .cls-9 {
        fill: url(#_未命名的渐变_13-4);
      }

      .cls-10 {
        fill: url(#_未命名的渐变_21-2);
      }

      .cls-11 {
        fill: url(#_未命名的渐变_21-3);
      }

      .cls-12 {
        fill: url(#_未命名的渐变_21-4);
      }

      .cls-13 {
        fill: url(#_未命名的渐变_322-3);
      }

      .cls-14 {
        fill: url(#_未命名的渐变_322-9);
      }

      .cls-15 {
        fill: url(#_未命名的渐变_322-8);
      }

      .cls-16 {
        fill: url(#_未命名的渐变_322-7);
      }

      .cls-17 {
        fill: url(#_未命名的渐变_322-4);
      }

      .cls-18 {
        fill: url(#_未命名的渐变_322-2);
      }

      .cls-19 {
        fill: url(#_未命名的渐变_322-5);
      }

      .cls-20 {
        fill: url(#_未命名的渐变_322-6);
      }

      .cls-21 {
        fill: url(#_未命名的渐变_319-7);
      }

      .cls-22 {
        fill: url(#_未命名的渐变_319-5);
      }

      .cls-23 {
        fill: url(#_未命名的渐变_319-4);
      }

      .cls-24 {
        fill: url(#_未命名的渐变_319-6);
      }

      .cls-25 {
        fill: url(#_未命名的渐变_319-3);
      }

      .cls-26 {
        fill: url(#_未命名的渐变_319-2);
      }

      .cls-27 {
        fill: url(#_未命名的渐变_319-8);
      }

      .cls-28 {
        fill: url(#_未命名的渐变_319-9);
      }

      .cls-29 {
        fill: url(#_新建图案);
        opacity: .1;
      }

      .cls-39 {
        mix-blend-mode: soft-light;
      }

      .cls-40 {
        opacity: .2;
      }

      .cls-30 {
        fill: url(#_未命名的渐变_9);
      }

      .cls-41 {
        isolation: isolate;
      }

      .cls-32 {
        fill: url(#_未命名的渐变_9-2);
      }

      .cls-33 {
        fill: url(#_未命名的渐变_322);
      }

      .cls-34 {
        fill: url(#_未命名的渐变_319);
      }

      .cls-35 {
        fill: url(#_未命名的渐变_154);
      }

      .cls-42 {
        mix-blend-mode: multiply;
        opacity: .45;
      }

      .cls-43 {
        opacity: 0;
      }

      .cls-36 {
        fill: #e0edff;
      }

      .cls-37 {
        fill: #000715;
      }
    </style>
    <pattern id="_新建图案" data-name="新建图案" x="0" y="0" width="18.57" height="32.16" patternTransform="translate(4237.36 1596.07)" patternUnits="userSpaceOnUse" viewBox="0 0 18.57 32.16">
      <g>
        <rect class="cls-6" x="0" y="0" width="18.57" height="32.16"/>
        <g>
          <g>
            <polyline class="cls-38" points="18.57 21.44 18.57 32.16 18.57 42.88"/>
            <polyline class="cls-38" points="9.29 26.8 18.57 32.16 27.85 37.51 27.85 37.52"/>
            <polyline class="cls-38" points="9.29 37.52 9.29 37.51 18.57 32.16 27.85 26.8"/>
          </g>
          <polygon class="cls-38" points="27.85 37.52 27.85 26.8 18.57 21.44 9.28 26.8 9.28 37.52 18.57 42.88 27.85 37.52"/>
        </g>
        <g>
          <g>
            <polyline class="cls-38" points="0 21.44 0 32.16 0 42.88"/>
            <polyline class="cls-38" points="-9.28 26.8 0 32.16 9.28 37.51 9.28 37.52"/>
            <polyline class="cls-38" points="-9.28 37.52 -9.28 37.51 0 32.16 9.28 26.8"/>
          </g>
          <polygon class="cls-38" points="9.28 37.52 9.28 26.8 0 21.44 -9.28 26.8 -9.28 37.52 0 42.88 9.28 37.52"/>
        </g>
        <g>
          <g>
            <polyline class="cls-38" points="18.57 10.72 27.85 16.08 37.13 21.43 37.13 21.44"/>
            <polyline class="cls-38" points="18.57 21.44 18.57 21.43 27.85 16.08 37.13 10.72"/>
          </g>
          <polygon class="cls-38" points="37.14 21.44 37.14 10.72 27.85 5.36 18.57 10.72 18.57 21.44 27.85 26.8 37.14 21.44"/>
        </g>
        <g>
          <g>
            <polyline class="cls-38" points="9.28 5.36 9.28 16.08 9.28 26.8"/>
            <polyline class="cls-38" points="0 10.72 9.28 16.08 18.56 21.43 18.56 21.44"/>
            <polyline class="cls-38" points="0 21.44 0 21.43 9.28 16.08 18.56 10.72"/>
          </g>
          <polygon class="cls-38" points="18.57 21.44 18.57 10.72 9.28 5.36 0 10.72 0 21.44 9.28 26.8 18.57 21.44"/>
        </g>
        <g>
          <g>
            <polyline class="cls-38" points="-18.56 10.72 -9.28 16.08 0 21.43 0 21.44"/>
            <polyline class="cls-38" points="-18.56 21.44 -18.56 21.43 -9.28 16.08 0 10.72"/>
          </g>
          <polygon class="cls-38" points="0 21.44 0 10.72 -9.28 5.36 -18.57 10.72 -18.57 21.44 -9.28 26.8 0 21.44"/>
        </g>
        <g>
          <g>
            <polyline class="cls-38" points="18.57 -10.72 18.57 0 18.57 10.72"/>
            <polyline class="cls-38" points="9.29 -5.36 18.57 0 27.85 5.35 27.85 5.36"/>
            <polyline class="cls-38" points="9.29 5.36 9.29 5.35 18.57 0 27.85 -5.36"/>
          </g>
          <polygon class="cls-38" points="27.85 5.36 27.85 -5.36 18.57 -10.72 9.28 -5.36 9.28 5.36 18.57 10.72 27.85 5.36"/>
        </g>
        <g>
          <g>
            <polyline class="cls-38" points="0 -10.72 0 0 0 10.72"/>
            <polyline class="cls-38" points="-9.28 -5.36 0 0 9.28 5.35 9.28 5.36"/>
            <polyline class="cls-38" points="-9.28 5.36 -9.28 5.35 0 0 9.28 -5.36"/>
          </g>
          <polygon class="cls-38" points="9.28 5.36 9.28 -5.36 0 -10.72 -9.28 -5.36 -9.28 5.36 0 10.72 9.28 5.36"/>
        </g>
      </g>
    </pattern>
    <linearGradient id="_未命名的渐变_21" data-name="未命名的渐变 21" x1="29.88" y1="99.91" x2="119.63" y2="99.91" gradientUnits="userSpaceOnUse">
      <stop offset="0" stop-color="#35455c"/>
      <stop offset=".15" stop-color="#7497d0"/>
      <stop offset=".25" stop-color="#7497d0"/>
      <stop offset=".9" stop-color="#11161a"/>
      <stop offset="1" stop-color="#263141"/>
    </linearGradient>
    <linearGradient id="_未命名的渐变_13" data-name="未命名的渐变 13" x1="30.09" y1="49.09" x2="119.63" y2="49.09" gradientUnits="userSpaceOnUse">
      <stop offset="0" stop-color="#81aaea"/>
      <stop offset="1" stop-color="#4d709c"/>
    </linearGradient>
    <linearGradient id="_未命名的渐变_13-2" data-name="未命名的渐变 13" x1="25.92" y1="44.04" x2="123.6" y2="44.04" xlink:href="#_未命名的渐变_13"/>
    <linearGradient id="_未命名的渐变_13-3" data-name="未命名的渐变 13" x1="25.92" y1="44.04" x2="123.6" y2="44.04" xlink:href="#_未命名的渐变_13"/>
    <linearGradient id="_未命名的渐变_73" data-name="未命名的渐变 73" x1="25.91" y1="60.96" x2="123.6" y2="60.96" gradientUnits="userSpaceOnUse">
      <stop offset="0" stop-color="#0071ed"/>
      <stop offset=".15" stop-color="#0bc9ff"/>
      <stop offset=".25" stop-color="#0bc9ff"/>
      <stop offset=".85" stop-color="#1928d3"/>
      <stop offset="1" stop-color="#0071ed"/>
    </linearGradient>
    <linearGradient id="_未命名的渐变_78" data-name="未命名的渐变 78" x1="24.76" y1="44.04" x2="124.76" y2="44.04" gradientUnits="userSpaceOnUse">
      <stop offset="0" stop-color="#6fe3ff"/>
      <stop offset="1" stop-color="#00b6ff"/>
    </linearGradient>
    <linearGradient id="_未命名的渐变_319" data-name="未命名的渐变 319" x1="74.6" y1="11.9" x2="75.67" y2="11.9" gradientUnits="userSpaceOnUse">
      <stop offset="0" stop-color="#4c6383"/>
      <stop offset=".2" stop-color="#8fbbff"/>
      <stop offset=".9" stop-color="#3c4d5c"/>
      <stop offset="1" stop-color="#4c6383"/>
    </linearGradient>
    <linearGradient id="_未命名的渐变_322" data-name="未命名的渐变 322" x1="74.6" y1="8.17" x2="75.66" y2="8.17" gradientUnits="userSpaceOnUse">
      <stop offset="0" stop-color="#9ec6ff"/>
      <stop offset="1" stop-color="#749bcf"/>
    </linearGradient>
    <linearGradient id="_未命名的渐变_319-2" data-name="未命名的渐变 319" x1="113.27" y1="58.06" x2="114.34" y2="58.06" xlink:href="#_未命名的渐变_319"/>
    <linearGradient id="_未命名的渐变_322-2" data-name="未命名的渐变 322" x1="113.27" y1="54.46" x2="114.33" y2="54.46" xlink:href="#_未命名的渐变_322"/>
    <linearGradient id="_未命名的渐变_319-3" data-name="未命名的渐变 319" x1="35.94" y1="58.06" x2="37.01" y2="58.06" xlink:href="#_未命名的渐变_319"/>
    <linearGradient id="_未命名的渐变_322-3" data-name="未命名的渐变 322" x1="35.94" y1="54.46" x2="37" y2="54.46" xlink:href="#_未命名的渐变_322"/>
    <linearGradient id="_未命名的渐变_319-4" data-name="未命名的渐变 319" x1="113.27" y1="23.35" x2="114.34" y2="23.35" xlink:href="#_未命名的渐变_319"/>
    <linearGradient id="_未命名的渐变_322-4" data-name="未命名的渐变 322" x1="113.27" y1="19.17" x2="114.33" y2="19.17" xlink:href="#_未命名的渐变_322"/>
    <linearGradient id="_未命名的渐变_319-5" data-name="未命名的渐变 319" x1="35.94" y1="22.77" x2="37.01" y2="22.77" xlink:href="#_未命名的渐变_319"/>
    <linearGradient id="_未命名的渐变_322-5" data-name="未命名的渐变 322" x1="35.94" y1="19.17" x2="37" y2="19.17" xlink:href="#_未命名的渐变_322"/>
    <linearGradient id="_未命名的渐变_319-6" data-name="未命名的渐变 319" x1="74.6" y1="66.73" x2="75.91" y2="66.73" xlink:href="#_未命名的渐变_319"/>
    <linearGradient id="_未命名的渐变_322-6" data-name="未命名的渐变 322" x1="74.6" y1="64.74" x2="75.91" y2="64.74" xlink:href="#_未命名的渐变_322"/>
    <linearGradient id="_未命名的渐变_319-7" data-name="未命名的渐变 319" x1="74.6" y1="71.38" x2="75.67" y2="71.38" xlink:href="#_未命名的渐变_319"/>
    <linearGradient id="_未命名的渐变_322-7" data-name="未命名的渐变 322" x1="74.6" y1="69.39" x2="75.66" y2="69.39" xlink:href="#_未命名的渐变_322"/>
    <linearGradient id="_未命名的渐变_319-8" data-name="未命名的渐变 319" x1="25.44" y1="55.31" x2="124.75" y2="55.31" xlink:href="#_未命名的渐变_319"/>
    <linearGradient id="_未命名的渐变_9" data-name="未命名的渐变 9" x1="26.4" y1="26.97" x2="123.81" y2="26.97" gradientUnits="userSpaceOnUse">
      <stop offset="0" stop-color="#4c6383"/>
      <stop offset=".1" stop-color="#3c4d5c"/>
      <stop offset=".8" stop-color="#8fbbff"/>
      <stop offset="1" stop-color="#4c6383"/>
    </linearGradient>
    <linearGradient id="_未命名的渐变_322-8" data-name="未命名的渐变 322" x1="25.45" y1="40.61" x2="124.75" y2="40.61" xlink:href="#_未命名的渐变_322"/>
    <linearGradient id="_未命名的渐变_319-9" data-name="未命名的渐变 319" x1="25.44" y1="51.14" x2="124.75" y2="51.14" xlink:href="#_未命名的渐变_319"/>
    <linearGradient id="_未命名的渐变_9-2" data-name="未命名的渐变 9" y1="22.8" y2="22.8" xlink:href="#_未命名的渐变_9"/>
    <linearGradient id="_未命名的渐变_322-9" data-name="未命名的渐变 322" x1="25.45" y1="36.44" x2="124.75" y2="36.44" xlink:href="#_未命名的渐变_322"/>
    <linearGradient id="_未命名的渐变_55" data-name="未命名的渐变 55" x1="60.48" y1="17.85" x2="89.04" y2="17.85" gradientUnits="userSpaceOnUse">
      <stop offset="0" stop-color="#263141"/>
      <stop offset=".1" stop-color="#11161a"/>
      <stop offset=".75" stop-color="#7497d0"/>
      <stop offset=".85" stop-color="#7497d0"/>
      <stop offset="1" stop-color="#35455c"/>
    </linearGradient>
    <linearGradient id="_未命名的渐变_154" data-name="未命名的渐变 154" x1="72.04" y1="44.41" x2="113.12" y2="44.41" gradientUnits="userSpaceOnUse">
      <stop offset="0" stop-color="#10243b" stop-opacity=".6"/>
      <stop offset="1" stop-color="#10243b" stop-opacity="0"/>
    </linearGradient>
    <linearGradient id="_未命名的渐变_21-2" data-name="未命名的渐变 21" x1="53.82" y1="34.13" x2="95.68" y2="34.13" xlink:href="#_未命名的渐变_21"/>
    <linearGradient id="_未命名的渐变_13-4" data-name="未命名的渐变 13" x1="56.97" y1="10.32" x2="92.62" y2="10.32" xlink:href="#_未命名的渐变_13"/>
    <linearGradient id="_未命名的渐变_21-3" data-name="未命名的渐变 21" x1="29.76" y1="83.36" x2="119.76" y2="83.36" xlink:href="#_未命名的渐变_21"/>
    <linearGradient id="_未命名的渐变_21-4" data-name="未命名的渐变 21" x1="29.76" y1="111.36" x2="119.76" y2="111.36" xlink:href="#_未命名的渐变_21"/>
  </defs>
  <g class="cls-41">
    <g id="_图层_2" data-name="图层 2">
      <g id="_图层_1-2" data-name="图层 1">
        <g id="_其他辅助厂房" data-name="其他辅助厂房">
          <g>
            <g id="_背景" data-name="背景" class="cls-43">
              <rect class="cls-37" y=".24" width="150" height="150"/>
              <rect id="_网格" data-name="网格" class="cls-29" y=".24" width="150" height="150"/>
            </g>
            <g>
              <g class="cls-41">
                <path class="cls-2" d="m119.63,49.21l-.21,75.83c-.02,6.59-4.35,13.18-13.01,18.21-17.42,10.12-45.77,10.13-63.31,0-8.82-5.09-13.23-11.78-13.21-18.46l.21-75.83c-.02,6.68,4.39,13.36,13.21,18.46,17.54,10.13,45.89,10.12,63.31,0,8.66-5.03,12.99-11.62,13.01-18.21Z"/>
                <path class="cls-1" d="m106.41,30.75c17.54,10.13,17.64,26.54.21,36.67s-45.77,10.13-63.31,0c-17.54-10.12-17.62-26.54-.2-36.67,17.43-10.13,45.77-10.13,63.31,0Z"/>
              </g>
              <path class="cls-8" d="m109.18,24.04c19.14,11.05,19.24,28.96.23,40.01-19.01,11.05-49.92,11.05-69.06,0-19.13-11.05-19.23-28.95-.23-40,19.01-11.05,49.93-11.05,69.06,0Z"/>
              <path class="cls-7" d="m109.18,24.04c19.14,11.05,19.24,28.96.23,40.01-19.01,11.05-49.92,11.05-69.06,0-19.13-11.05-19.23-28.95-.23-40,19.01-11.05,49.93-11.05,69.06,0Z"/>
              <path class="cls-4" d="m123.6,44.18l-.02,5.69c-.02,7.19-4.75,14.38-14.2,19.86-19.01,11.05-49.92,11.05-69.06,0-9.63-5.56-14.44-12.85-14.41-20.14l.02-5.69c-.02,7.28,4.79,14.58,14.41,20.14,19.14,11.05,50.06,11.05,69.06,0,9.45-5.49,14.17-12.67,14.2-19.86Z"/>
              <path class="cls-3" d="m109.76,23.03c-9.43-5.44-21.91-8.44-35.15-8.44s-25.7,3-35.08,8.45c-9.54,5.54-14.78,12.98-14.77,20.94.01,8.01,5.34,15.5,15,21.08,9.43,5.44,21.92,8.44,35.17,8.44s25.7-3,35.06-8.44c9.54-5.54,14.79-12.98,14.78-20.94-.01-8.01-5.34-15.5-15-21.08Zm-.36,41.02c-19.01,11.05-49.92,11.05-69.06,0-19.13-11.05-19.23-28.95-.23-40,19.01-11.05,49.93-11.05,69.06,0,19.14,11.05,19.24,28.96.23,40.01Z"/>
              <g>
                <g>
                  <g class="cls-41">
                    <path class="cls-34" d="m74.61,8.22s0,0,0,0c0,.02.01.03.03.05,0,0,0,0,0,0,.01.02.03.03.04.05.01,0,.02.02.04.03.01,0,.02.02.03.02.03.02.07.03.1.05.01,0,.03,0,.04.01.02,0,.03,0,.05.01.02,0,.04,0,.06.01,0,0,.01,0,.02,0,.03,0,.06,0,.09,0,0,0,0,0,.01,0,.03,0,.06,0,.09,0,0,0,0,0,.01,0,.03,0,.06,0,.09-.01,0,0,.01,0,.02,0,.03,0,.05-.01.07-.02,0,0,0,0,.01,0,.03-.01.06-.02.08-.04.1-.06.16-.14.16-.22v7.16c0,.08-.05.16-.15.22-.02.01-.05.03-.08.04,0,0,0,0,0,0,0,0,0,0-.01,0-.02,0-.03.01-.05.02,0,0-.02,0-.03,0,0,0-.01,0-.02,0,0,0,0,0-.01,0-.02,0-.03,0-.05,0,0,0-.01,0-.02,0,0,0,0,0-.01,0,0,0-.01,0-.02,0-.02,0-.03,0-.05,0,0,0-.01,0-.02,0,0,0,0,0-.01,0,0,0-.02,0-.02,0-.02,0-.04,0-.06,0,0,0,0,0,0,0,0,0-.01,0-.02,0-.02,0-.03,0-.05,0,0,0-.01,0-.02,0-.02,0-.04,0-.05-.01,0,0-.02,0-.03,0,0,0,0,0-.01,0-.04-.01-.07-.03-.1-.05,0,0,0,0,0,0-.01,0-.02-.01-.03-.02-.01,0-.03-.02-.04-.03,0,0,0,0,0,0-.01-.01-.02-.02-.03-.04,0,0,0,0,0,0,0,0,0,0,0,0,0,0,0,0,0-.01,0,0-.01-.02-.01-.03,0,0,0,0,0,0,0,0,0,0,0,0,0,0,0-.01,0-.02,0-.01,0-.02,0-.03,0,0,0,0,0,0v-7.16s0,.04,0,.05Z"/>
                    <path class="cls-33" d="m74.76,7.95c-.21.12-.21.31,0,.43.21.12.54.12.75,0,.21-.12.21-.31,0-.43s-.54-.12-.75,0Z"/>
                  </g>
                  <g class="cls-41">
                    <path class="cls-26" d="m113.28,54.52s0,0,0,0c0,.02.01.03.03.05,0,0,0,0,0,0,.01.02.03.03.04.05.01,0,.02.02.04.03.01,0,.02.02.03.02.03.02.07.03.1.05.01,0,.03,0,.04.01.02,0,.03,0,.05.01.02,0,.04,0,.06.01,0,0,.01,0,.02,0,.03,0,.06,0,.09,0,0,0,0,0,.01,0,.03,0,.06,0,.09,0,0,0,0,0,.01,0,.03,0,.06,0,.09-.01,0,0,.01,0,.02,0,.03,0,.05-.01.07-.02,0,0,0,0,.01,0,.03-.01.06-.02.08-.04.1-.06.16-.14.16-.22v6.88c0,.08-.05.16-.15.22-.02.01-.05.03-.08.04,0,0,0,0,0,0,0,0,0,0-.01,0-.02,0-.03.01-.05.02,0,0-.02,0-.03,0,0,0-.01,0-.02,0,0,0,0,0-.01,0-.02,0-.03,0-.05,0,0,0-.01,0-.02,0,0,0,0,0-.01,0,0,0-.01,0-.02,0-.02,0-.03,0-.05,0,0,0-.01,0-.02,0,0,0,0,0-.01,0,0,0-.02,0-.02,0-.02,0-.04,0-.06,0,0,0,0,0,0,0,0,0-.01,0-.02,0-.02,0-.03,0-.05,0,0,0-.01,0-.02,0-.02,0-.04,0-.05-.01,0,0-.02,0-.03,0,0,0,0,0-.01,0-.04-.01-.07-.03-.1-.05,0,0,0,0,0,0-.01,0-.02-.01-.03-.02-.01,0-.03-.02-.04-.03,0,0,0,0,0,0-.01-.01-.02-.02-.03-.04,0,0,0,0,0,0,0,0,0,0,0,0,0,0,0,0,0-.01,0,0-.01-.02-.01-.03,0,0,0,0,0,0,0,0,0,0,0,0,0,0,0-.01,0-.02,0-.01,0-.02,0-.03,0,0,0,0,0,0v-6.88s0,.04,0,.05Z"/>
                    <path class="cls-18" d="m113.43,54.25c-.21.12-.21.31,0,.43.21.12.54.12.75,0s.21-.31,0-.43-.54-.12-.75,0Z"/>
                  </g>
                  <g class="cls-41">
                    <path class="cls-25" d="m35.95,54.52s0,0,0,0c0,.02.01.03.03.05,0,0,0,0,0,0,.01.02.03.03.04.05.01,0,.02.02.04.03.01,0,.02.02.03.02.03.02.07.03.1.05.01,0,.03,0,.04.01.02,0,.03,0,.05.01.02,0,.04,0,.06.01,0,0,.01,0,.02,0,.03,0,.06,0,.09,0,0,0,0,0,.01,0,.03,0,.06,0,.09,0,0,0,0,0,.01,0,.03,0,.06,0,.09-.01,0,0,.01,0,.02,0,.03,0,.05-.01.07-.02,0,0,0,0,.01,0,.03-.01.06-.02.08-.04.1-.06.16-.14.16-.22v6.88c0,.08-.05.16-.15.22-.02.01-.05.03-.08.04,0,0,0,0,0,0,0,0,0,0-.01,0-.02,0-.03.01-.05.02,0,0-.02,0-.03,0,0,0-.01,0-.02,0,0,0,0,0-.01,0-.02,0-.03,0-.05,0,0,0-.01,0-.02,0,0,0,0,0-.01,0,0,0-.01,0-.02,0-.02,0-.03,0-.05,0,0,0-.01,0-.02,0,0,0,0,0-.01,0,0,0-.02,0-.02,0-.02,0-.04,0-.06,0,0,0,0,0,0,0,0,0-.01,0-.02,0-.02,0-.03,0-.05,0,0,0-.01,0-.02,0-.02,0-.04,0-.05-.01,0,0-.02,0-.03,0,0,0,0,0-.01,0-.04-.01-.07-.03-.1-.05,0,0,0,0,0,0-.01,0-.02-.01-.03-.02-.01,0-.03-.02-.04-.03,0,0,0,0,0,0-.01-.01-.02-.02-.03-.04,0,0,0,0,0,0,0,0,0,0,0,0,0,0,0,0,0-.01,0,0-.01-.02-.01-.03,0,0,0,0,0,0,0,0,0,0,0,0,0,0,0-.01,0-.02,0-.01,0-.02,0-.03,0,0,0,0,0,0v-6.88s0,.04,0,.05Z"/>
                    <path class="cls-13" d="m36.1,54.25c-.21.12-.21.31,0,.43.21.12.54.12.75,0,.21-.12.21-.31,0-.43-.21-.12-.54-.12-.75,0Z"/>
                  </g>
                  <g class="cls-41">
                    <path class="cls-23" d="m113.28,19.23s0,0,0,0c0,.02.01.03.03.05,0,0,0,0,0,0,.01.02.03.03.04.05.01,0,.02.02.04.03.01,0,.02.02.03.02.03.02.07.03.1.05.01,0,.03,0,.04.01.02,0,.03,0,.05.01.02,0,.04,0,.06.01,0,0,.01,0,.02,0,.03,0,.06,0,.09,0,0,0,0,0,.01,0,.03,0,.06,0,.09,0,0,0,0,0,.01,0,.03,0,.06,0,.09-.01,0,0,.01,0,.02,0,.03,0,.05-.01.07-.02,0,0,0,0,.01,0,.03-.01.06-.02.08-.04.1-.06.16-.14.16-.22v8.05c0,.08-.05.16-.15.22-.02.01-.05.03-.08.04,0,0,0,0,0,0,0,0,0,0-.01,0-.02,0-.03.01-.05.02,0,0-.02,0-.03,0,0,0-.01,0-.02,0,0,0,0,0-.01,0-.02,0-.03,0-.05,0,0,0-.01,0-.02,0,0,0,0,0-.01,0,0,0-.01,0-.02,0-.02,0-.03,0-.05,0,0,0-.01,0-.02,0,0,0,0,0-.01,0,0,0-.02,0-.02,0-.02,0-.04,0-.06,0,0,0,0,0,0,0,0,0-.01,0-.02,0-.02,0-.03,0-.05,0,0,0-.01,0-.02,0-.02,0-.04,0-.05-.01,0,0-.02,0-.03,0,0,0,0,0-.01,0-.04-.01-.07-.03-.1-.05,0,0,0,0,0,0-.01,0-.02-.01-.03-.02-.01,0-.03-.02-.04-.03,0,0,0,0,0,0-.01-.01-.02-.02-.03-.04,0,0,0,0,0,0,0,0,0,0,0,0,0,0,0,0,0-.01,0,0-.01-.02-.01-.03,0,0,0,0,0,0,0,0,0,0,0,0,0,0,0-.01,0-.02,0-.01,0-.02,0-.03,0,0,0,0,0,0v-8.05s0,.04,0,.05Z"/>
                    <path class="cls-17" d="m113.43,18.95c-.21.12-.21.31,0,.43s.54.12.75,0,.21-.31,0-.43c-.21-.12-.54-.12-.75,0Z"/>
                  </g>
                  <g class="cls-41">
                    <path class="cls-22" d="m35.95,19.23s0,0,0,0c0,.02.01.03.03.05,0,0,0,0,0,0,.01.02.03.03.04.05.01,0,.02.02.04.03.01,0,.02.02.03.02.03.02.07.03.1.05.01,0,.03,0,.04.01.02,0,.03,0,.05.01.02,0,.04,0,.06.01,0,0,.01,0,.02,0,.03,0,.06,0,.09,0,0,0,0,0,.01,0,.03,0,.06,0,.09,0,0,0,0,0,.01,0,.03,0,.06,0,.09-.01,0,0,.01,0,.02,0,.03,0,.05-.01.07-.02,0,0,0,0,.01,0,.03-.01.06-.02.08-.04.1-.06.16-.14.16-.22v6.88c0,.08-.05.16-.15.22-.02.01-.05.03-.08.04,0,0,0,0,0,0,0,0,0,0-.01,0-.02,0-.03.01-.05.02,0,0-.02,0-.03,0,0,0-.01,0-.02,0,0,0,0,0-.01,0-.02,0-.03,0-.05,0,0,0-.01,0-.02,0,0,0,0,0-.01,0,0,0-.01,0-.02,0-.02,0-.03,0-.05,0,0,0-.01,0-.02,0,0,0,0,0-.01,0,0,0-.02,0-.02,0-.02,0-.04,0-.06,0,0,0,0,0,0,0,0,0-.01,0-.02,0-.02,0-.03,0-.05,0,0,0-.01,0-.02,0-.02,0-.04,0-.05-.01,0,0-.02,0-.03,0,0,0,0,0-.01,0-.04-.01-.07-.03-.1-.05,0,0,0,0,0,0-.01,0-.02-.01-.03-.02-.01,0-.03-.02-.04-.03,0,0,0,0,0,0-.01-.01-.02-.02-.03-.04,0,0,0,0,0,0,0,0,0,0,0,0,0,0,0,0,0-.01,0,0-.01-.02-.01-.03,0,0,0,0,0,0,0,0,0,0,0,0,0,0,0-.01,0-.02,0-.01,0-.02,0-.03,0,0,0,0,0,0v-6.88s0,.04,0,.05Z"/>
                    <path class="cls-19" d="m36.1,18.95c-.21.12-.21.31,0,.43.21.12.54.12.75,0s.21-.31,0-.43c-.21-.12-.54-.12-.75,0Z"/>
                  </g>
                  <g class="cls-41">
                    <path class="cls-24" d="m74.61,64.79s0,0,0,0c0,.02.02.03.03.05,0,0,0,0,0,0,.01.02.03.03.05.05.01,0,.03.02.05.03.01,0,.03.02.04.02.04.02.08.03.13.05.02,0,.03,0,.05.01.02,0,.04,0,.07.01.03,0,.05,0,.08.01,0,0,.01,0,.02,0,.04,0,.07,0,.11,0,0,0,.01,0,.02,0,.04,0,.07,0,.11,0,0,0,.01,0,.02,0,.04,0,.07,0,.11-.01,0,0,.01,0,.02,0,.03,0,.06-.01.09-.02,0,0,.01,0,.02,0,.04-.01.07-.02.1-.04.13-.06.19-.14.19-.22v3.68c0,.08-.06.16-.19.22-.03.01-.06.03-.09.04,0,0,0,0,0,0,0,0-.01,0-.02,0-.02,0-.04.01-.06.02-.01,0-.02,0-.03,0,0,0-.01,0-.02,0,0,0-.01,0-.02,0-.02,0-.04,0-.06,0,0,0-.02,0-.02,0,0,0-.01,0-.02,0,0,0-.02,0-.02,0-.02,0-.04,0-.06,0,0,0-.01,0-.02,0,0,0-.01,0-.02,0,0,0-.02,0-.03,0-.02,0-.05,0-.07,0,0,0,0,0,0,0,0,0-.01,0-.02,0-.02,0-.04,0-.06,0,0,0-.02,0-.02,0-.02,0-.04,0-.07-.01-.01,0-.02,0-.03,0,0,0,0,0-.01,0-.05-.01-.09-.03-.13-.05,0,0,0,0,0,0-.01,0-.02-.01-.03-.02-.02,0-.03-.02-.05-.03,0,0,0,0,0,0-.02-.01-.03-.02-.04-.04,0,0,0,0,0,0,0,0,0,0,0,0,0,0,0,0-.01-.01,0,0-.01-.02-.02-.03,0,0,0,0,0,0,0,0,0,0,0,0,0,0,0-.01,0-.02,0-.01,0-.02,0-.03,0,0,0,0,0,0v-3.68s0,.04,0,.05Z"/>
                    <path class="cls-20" d="m74.79,64.52c-.26.12-.26.31,0,.43.25.12.67.12.92,0,.26-.12.26-.31,0-.43-.25-.12-.67-.12-.93,0Z"/>
                  </g>
                  <g class="cls-41">
                    <path class="cls-21" d="m74.61,69.44s0,0,0,0c0,.02.01.03.03.05,0,0,0,0,0,0,.01.02.03.03.04.05.01,0,.02.02.04.03.01,0,.02.02.03.02.03.02.07.03.1.05.01,0,.03,0,.04.01.02,0,.03,0,.05.01.02,0,.04,0,.06.01,0,0,.01,0,.02,0,.03,0,.06,0,.09,0,0,0,0,0,.01,0,.03,0,.06,0,.09,0,0,0,0,0,.01,0,.03,0,.06,0,.09-.01,0,0,.01,0,.02,0,.03,0,.05-.01.07-.02,0,0,0,0,.01,0,.03-.01.06-.02.08-.04.1-.06.16-.14.16-.22v3.68c0,.08-.05.16-.15.22-.02.01-.05.03-.08.04,0,0,0,0,0,0,0,0,0,0-.01,0-.02,0-.03.01-.05.02,0,0-.02,0-.03,0,0,0-.01,0-.02,0,0,0,0,0-.01,0-.02,0-.03,0-.05,0,0,0-.01,0-.02,0,0,0,0,0-.01,0,0,0-.01,0-.02,0-.02,0-.03,0-.05,0,0,0-.01,0-.02,0,0,0,0,0-.01,0,0,0-.02,0-.02,0-.02,0-.04,0-.06,0,0,0,0,0,0,0,0,0-.01,0-.02,0-.02,0-.03,0-.05,0,0,0-.01,0-.02,0-.02,0-.04,0-.05-.01,0,0-.02,0-.03,0,0,0,0,0-.01,0-.04-.01-.07-.03-.1-.05,0,0,0,0,0,0-.01,0-.02-.01-.03-.02-.01,0-.03-.02-.04-.03,0,0,0,0,0,0-.01-.01-.02-.02-.03-.04,0,0,0,0,0,0,0,0,0,0,0,0,0,0,0,0,0-.01,0,0-.01-.02-.01-.03,0,0,0,0,0,0,0,0,0,0,0,0,0,0,0-.01,0-.02,0-.01,0-.02,0-.03,0,0,0,0,0,0v-3.68s0,.04,0,.05Z"/>
                    <path class="cls-16" d="m74.76,69.17c-.21.12-.21.31,0,.43.21.12.54.12.75,0,.21-.12.21-.31,0-.43s-.54-.12-.75,0Z"/>
                  </g>
                </g>
                <g class="cls-41">
                  <path class="cls-27" d="m110.34,60.96c-19.31,11.22-50.83,11.22-70.25,0-9.78-5.65-14.67-13.07-14.65-20.49v.78c-.02,7.42,4.86,14.84,14.64,20.49,19.42,11.21,50.94,11.22,70.25,0,9.59-5.57,14.39-12.88,14.41-20.2v-.78c-.02,7.32-4.82,14.63-14.4,20.2Z"/>
                  <path class="cls-30" d="m109.45,20.65c-19.06-11-49.98-11-68.91,0-9.41,5.47-14.11,12.64-14.13,19.82v.78c.02-7.18,4.73-14.35,14.13-19.82,18.93-11,49.85-11,68.91,0,9.59,5.54,14.38,12.82,14.36,20.1v-.78c.02-7.27-4.77-14.56-14.36-20.1Z"/>
                  <path class="cls-15" d="m110.12,20.27c-19.44-11.22-50.95-11.21-70.25,0-19.31,11.22-19.21,29.47.23,40.69,19.42,11.21,50.94,11.22,70.25,0,19.3-11.22,19.2-29.48-.23-40.69Zm-.44,40.3c-18.93,11-49.85,11-68.91,0-19.06-11-19.16-28.91-.22-39.92,18.93-11,49.85-11,68.91,0,19.06,11,19.16,28.91.22,39.92Z"/>
                </g>
                <g class="cls-41">
                  <path class="cls-28" d="m110.34,56.79c-19.31,11.22-50.83,11.22-70.25,0-9.78-5.65-14.67-13.07-14.65-20.49v.78c-.02,7.42,4.86,14.84,14.64,20.49,19.42,11.21,50.94,11.22,70.25,0,9.59-5.57,14.39-12.88,14.41-20.2v-.78c-.02,7.32-4.82,14.63-14.4,20.2Z"/>
                  <path class="cls-32" d="m109.45,16.48c-19.06-11-49.98-11-68.91,0-9.41,5.47-14.11,12.64-14.13,19.82v.78c.02-7.18,4.73-14.35,14.13-19.82,18.93-11,49.85-11,68.91,0,9.59,5.54,14.38,12.82,14.36,20.1v-.78c.02-7.27-4.77-14.56-14.36-20.1Z"/>
                  <path class="cls-14" d="m110.12,16.09c-19.44-11.22-50.95-11.21-70.25,0-19.31,11.22-19.21,29.47.23,40.69,19.42,11.21,50.94,11.22,70.25,0,19.3-11.22,19.2-29.48-.23-40.69Zm-.44,40.3c-18.93,11-49.85,11-68.91,0-19.06-11-19.16-28.91-.22-39.92,18.93-11,49.85-11,68.91,0,19.06,11,19.16,28.91.22,39.92Z"/>
                </g>
              </g>
              <path class="cls-5" d="m84.82,4.49c-5.58-3.22-14.6-3.22-20.14,0-2.75,1.6-4.13,3.69-4.14,5.79l-.07,23.24c0-2.1,1.38-4.19,4.14-5.79,5.54-3.22,14.57-3.22,20.14,0,2.82,1.63,4.23,3.76,4.22,5.89l.07-23.24c0-2.13-1.4-4.26-4.22-5.89Z"/>
              <polygon class="cls-35" points="92.51 32.51 72.04 44.41 82.21 50.28 72.04 56.19 92.65 56.3 113.12 44.41 92.51 32.51"/>
              <path class="cls-10" d="m95.66,45.95l-3.11-8.94.06-26.64c0,2.63-1.73,5.25-5.18,7.25-6.94,4.03-18.24,4.03-25.22,0-3.5-2.02-5.25-4.68-5.24-7.34l-.06,26.8-3.04,8.75s-.02.02-.03.03c0,.02,0,.03,0,.05l-.02.06h.02c.06,3.07,2.12,6.13,6.17,8.47,8.19,4.73,21.44,4.73,29.59,0,4.02-2.34,6.05-5.4,6.08-8.46,0,0-.01-.01-.02-.02Z"/>
              <path class="cls-9" d="m87.35,3.01c-6.96-4.02-18.26-4.02-25.2.01-6.94,4.03-6.9,10.58.06,14.6,6.99,4.03,18.28,4.03,25.22,0,6.94-4.03,6.9-10.58-.08-14.61Zm-2.44,13.15c-5.54,3.22-14.57,3.22-20.17-.01-5.58-3.22-5.6-8.45-.07-11.67s14.57-3.22,20.14,0c5.6,3.23,5.63,8.46.09,11.68Z"/>
            </g>

          </g>
          <g>
            <g class="cls-39">
              <path class="cls-36" d="m119.76,70.66v6.04c-2.34,4.42-6.53,8.45-12.42,11.74-9.06,5.09-20.83,7.62-32.57,7.62s-24.6-2.75-33.81-8.3c-5.17-3.06-8.98-6.75-11.21-10.79v-5.02c1.36,5.32,5.59,10.26,12.19,14.19,17.47,10.49,46.41,10.79,64.49.68,7.77-4.38,12.45-10.08,13.32-16.15Z"/>
              <path class="cls-36" d="m119.76,70.41v6.04c-2.34,4.42-6.53,8.45-12.42,11.74-9.06,5.09-20.83,7.62-32.57,7.62s-24.6-2.75-33.81-8.3c-5.17-3.06-8.98-6.75-11.21-10.79v-5.02c1.36,5.32,5.59,10.26,12.19,14.19,17.47,10.49,46.41,10.79,64.49.68,7.77-4.38,12.45-10.08,13.32-16.15Z"/>
            </g>
            <g>
              <g class="cls-42">
                <path class="cls-37" d="m119.76,70.91v6.04c-2.34,4.42-6.53,8.45-12.42,11.74-9.06,5.09-20.83,7.62-32.57,7.62s-24.6-2.75-33.81-8.3c-5.17-3.06-8.98-6.75-11.21-10.79v-5.02c1.36,5.32,5.59,10.26,12.19,14.19,17.47,10.49,46.41,10.79,64.49.68,7.77-4.38,12.45-10.08,13.32-16.15Z"/>
              </g>
              <path class="cls-11" d="m119.76,70.66v6.04c-2.34,4.42-6.53,8.45-12.42,11.74-9.06,5.09-20.83,7.62-32.57,7.62s-24.6-2.75-33.81-8.3c-5.17-3.06-8.98-6.75-11.21-10.79v-5.02c1.36,5.32,5.59,10.26,12.19,14.19,17.47,10.49,46.41,10.79,64.49.68,7.77-4.38,12.45-10.08,13.32-16.15Z"/>
            </g>
          </g>
          <g>
            <g class="cls-39">
              <path class="cls-36" d="m119.76,98.66v6.04c-2.34,4.42-6.53,8.45-12.42,11.74-9.06,5.09-20.83,7.62-32.57,7.62s-24.6-2.75-33.81-8.3c-5.17-3.06-8.98-6.75-11.21-10.79v-5.02c1.36,5.32,5.59,10.26,12.19,14.19,17.47,10.49,46.41,10.79,64.49.68,7.77-4.38,12.45-10.08,13.32-16.15Z"/>
              <path class="cls-36" d="m119.76,98.41v6.04c-2.34,4.42-6.53,8.45-12.42,11.74-9.06,5.09-20.83,7.62-32.57,7.62s-24.6-2.75-33.81-8.3c-5.17-3.06-8.98-6.75-11.21-10.79v-5.02c1.36,5.32,5.59,10.26,12.19,14.19,17.47,10.49,46.41,10.79,64.49.68,7.77-4.38,12.45-10.08,13.32-16.15Z"/>
            </g>
            <g>
              <g class="cls-42">
                <path class="cls-37" d="m119.76,98.91v6.04c-2.34,4.42-6.53,8.45-12.42,11.74-9.06,5.09-20.83,7.62-32.57,7.62s-24.6-2.75-33.81-8.3c-5.17-3.06-8.98-6.75-11.21-10.79v-5.02c1.36,5.32,5.59,10.26,12.19,14.19,17.47,10.49,46.41,10.79,64.49.68,7.77-4.38,12.45-10.08,13.32-16.15Z"/>
              </g>
              <path class="cls-12" d="m119.76,98.66v6.04c-2.34,4.42-6.53,8.45-12.42,11.74-9.06,5.09-20.83,7.62-32.57,7.62s-24.6-2.75-33.81-8.3c-5.17-3.06-8.98-6.75-11.21-10.79v-5.02c1.36,5.32,5.59,10.26,12.19,14.19,17.47,10.49,46.41,10.79,64.49.68,7.77-4.38,12.45-10.08,13.32-16.15Z"/>
            </g>
          </g>
        </g>
      </g>
    </g>
  </g>
</svg>