<?xml version="1.0" encoding="UTF-8"?>
<svg id="_图层_2" data-name="图层 2" xmlns="http://www.w3.org/2000/svg" xmlns:xlink="http://www.w3.org/1999/xlink" viewBox="0 0 150 150">
  <defs>
    <style>
      .cls-1 {
        fill: url(#_未命名的渐变_18);
      }

      .cls-1, .cls-2, .cls-3, .cls-4, .cls-5, .cls-6, .cls-7, .cls-8, .cls-9, .cls-10, .cls-11, .cls-12, .cls-13, .cls-14, .cls-15, .cls-16, .cls-17, .cls-18, .cls-19, .cls-20, .cls-21, .cls-22, .cls-23, .cls-24, .cls-25, .cls-26, .cls-27, .cls-28, .cls-29, .cls-30, .cls-31, .cls-32, .cls-33, .cls-34, .cls-35, .cls-36, .cls-37, .cls-38, .cls-39, .cls-40, .cls-41, .cls-42, .cls-43, .cls-44, .cls-45, .cls-46, .cls-47, .cls-48, .cls-49, .cls-50, .cls-51, .cls-52, .cls-53, .cls-54, .cls-55, .cls-56, .cls-57, .cls-58, .cls-59, .cls-60, .cls-61, .cls-62, .cls-63, .cls-64, .cls-65, .cls-66, .cls-67, .cls-68, .cls-69, .cls-70, .cls-71, .cls-72, .cls-73, .cls-74, .cls-75, .cls-76, .cls-77, .cls-78, .cls-79, .cls-80, .cls-81, .cls-82, .cls-83, .cls-84, .cls-85, .cls-86, .cls-87 {
        stroke-width: 0px;
      }

      .cls-2 {
        fill: url(#_未命名的渐变_15);
      }

      .cls-3 {
        fill: url(#_未命名的渐变_16);
      }

      .cls-4 {
        fill: url(#_未命名的渐变_24);
      }

      .cls-5 {
        fill: url(#_未命名的渐变_28);
      }

      .cls-6 {
        fill: url(#_未命名的渐变_22);
      }

      .cls-7 {
        fill: url(#_未命名的渐变_26);
      }

      .cls-8 {
        fill: url(#_未命名的渐变_29);
      }

      .cls-9 {
        fill: url(#_未命名的渐变_27);
      }

      .cls-10 {
        fill: url(#_未命名的渐变_20);
      }

      .cls-11, .cls-88 {
        fill: none;
      }

      .cls-12 {
        fill: url(#_未命名的渐变_136-12);
      }

      .cls-13 {
        fill: url(#_未命名的渐变_136-10);
      }

      .cls-14 {
        fill: url(#_未命名的渐变_136-11);
      }

      .cls-88 {
        stroke: #fff;
        stroke-miterlimit: 10;
        stroke-width: .1px;
      }

      .cls-15 {
        fill: url(#_未命名的渐变_18-3);
      }

      .cls-16 {
        fill: url(#_未命名的渐变_18-2);
      }

      .cls-17 {
        fill: url(#_未命名的渐变_16-3);
      }

      .cls-18 {
        fill: url(#_未命名的渐变_16-2);
      }

      .cls-19 {
        fill: url(#_未命名的渐变_15-3);
      }

      .cls-20 {
        fill: url(#_未命名的渐变_15-2);
      }

      .cls-21 {
        fill: url(#_未命名的渐变_28-2);
      }

      .cls-22 {
        fill: url(#_未命名的渐变_26-2);
      }

      .cls-23 {
        fill: url(#_未命名的渐变_26-3);
      }

      .cls-24 {
        fill: url(#_未命名的渐变_27-4);
      }

      .cls-25 {
        fill: url(#_未命名的渐变_27-3);
      }

      .cls-26 {
        fill: url(#_未命名的渐变_27-2);
      }

      .cls-27 {
        fill: url(#_未命名的渐变_24-2);
      }

      .cls-28 {
        fill: url(#_未命名的渐变_24-3);
      }

      .cls-29 {
        fill: url(#_未命名的渐变_179-2);
      }

      .cls-30 {
        fill: url(#_未命名的渐变_151-2);
      }

      .cls-31 {
        fill: url(#_未命名的渐变_151-4);
      }

      .cls-32 {
        fill: url(#_未命名的渐变_151-3);
      }

      .cls-33 {
        fill: url(#_未命名的渐变_169-4);
      }

      .cls-34 {
        fill: url(#_未命名的渐变_169-2);
      }

      .cls-35 {
        fill: url(#_未命名的渐变_169-3);
      }

      .cls-36 {
        fill: url(#_未命名的渐变_163-2);
      }

      .cls-37 {
        fill: url(#_未命名的渐变_143-5);
      }

      .cls-38 {
        fill: url(#_未命名的渐变_143-6);
      }

      .cls-39 {
        fill: url(#_未命名的渐变_143-2);
      }

      .cls-40 {
        fill: url(#_未命名的渐变_143-3);
      }

      .cls-41 {
        fill: url(#_未命名的渐变_143-4);
      }

      .cls-42 {
        fill: url(#_未命名的渐变_143-7);
      }

      .cls-43 {
        fill: url(#_未命名的渐变_143-8);
      }

      .cls-44 {
        fill: url(#_未命名的渐变_132-2);
      }

      .cls-45 {
        fill: url(#_未命名的渐变_136-9);
      }

      .cls-46 {
        fill: url(#_未命名的渐变_136-8);
      }

      .cls-47 {
        fill: url(#_未命名的渐变_136-4);
      }

      .cls-48 {
        fill: url(#_未命名的渐变_136-5);
      }

      .cls-49 {
        fill: url(#_未命名的渐变_136-6);
      }

      .cls-50 {
        fill: url(#_未命名的渐变_136-7);
      }

      .cls-51 {
        fill: url(#_未命名的渐变_136-2);
      }

      .cls-52 {
        fill: url(#_未命名的渐变_136-3);
      }

      .cls-53 {
        fill: url(#_未命名的渐变_138-3);
      }

      .cls-54 {
        fill: url(#_未命名的渐变_138-8);
      }

      .cls-55 {
        fill: url(#_未命名的渐变_138-9);
      }

      .cls-56 {
        fill: url(#_未命名的渐变_138-2);
      }

      .cls-57 {
        fill: url(#_未命名的渐变_138-6);
      }

      .cls-58 {
        fill: url(#_未命名的渐变_138-7);
      }

      .cls-59 {
        fill: url(#_未命名的渐变_138-4);
      }

      .cls-60 {
        fill: url(#_未命名的渐变_138-5);
      }

      .cls-61 {
        fill: url(#_未命名的渐变_327-2);
      }

      .cls-62 {
        fill: url(#_未命名的渐变_327-3);
      }

      .cls-63 {
        fill: url(#_未命名的渐变_324-2);
      }

      .cls-64 {
        fill: url(#_未命名的渐变_324-3);
      }

      .cls-65 {
        fill: url(#_新建图案);
        opacity: .1;
      }

      .cls-89 {
        opacity: .2;
      }

      .cls-67 {
        fill: url(#_未命名的渐变_654);
      }

      .cls-68 {
        fill: url(#_未命名的渐变_179);
      }

      .cls-69 {
        fill: url(#_未命名的渐变_177);
      }

      .cls-70 {
        fill: url(#_未命名的渐变_324);
      }

      .cls-71 {
        fill: url(#_未命名的渐变_327);
      }

      .cls-72 {
        fill: url(#_未命名的渐变_553);
      }

      .cls-73 {
        fill: url(#_未命名的渐变_330);
      }

      .cls-74 {
        fill: url(#_未命名的渐变_331);
      }

      .cls-75 {
        fill: url(#_未命名的渐变_147);
      }

      .cls-76 {
        fill: url(#_未命名的渐变_142);
      }

      .cls-77 {
        fill: url(#_未命名的渐变_143);
      }

      .cls-78 {
        fill: url(#_未命名的渐变_132);
      }

      .cls-79 {
        fill: url(#_未命名的渐变_138);
      }

      .cls-80 {
        fill: url(#_未命名的渐变_136);
      }

      .cls-81 {
        fill: url(#_未命名的渐变_124);
      }

      .cls-82 {
        fill: url(#_未命名的渐变_151);
      }

      .cls-83 {
        fill: url(#_未命名的渐变_169);
      }

      .cls-84 {
        fill: url(#_未命名的渐变_163);
      }

      .cls-90 {
        opacity: 0;
      }

      .cls-85 {
        fill: #272f39;
      }

      .cls-86 {
        fill: #3c4960;
      }

      .cls-87 {
        fill: #010714;
      }
    </style>
    <pattern id="_新建图案" data-name="新建图案" x="0" y="0" width="18.57" height="32.16" patternTransform="translate(3431.69 630.87)" patternUnits="userSpaceOnUse" viewBox="0 0 18.57 32.16">
      <g>
        <rect class="cls-11" x="0" y="0" width="18.57" height="32.16"/>
        <g>
          <g>
            <polyline class="cls-88" points="18.57 21.44 18.57 32.16 18.57 42.88"/>
            <polyline class="cls-88" points="9.29 26.8 18.57 32.16 27.85 37.51 27.85 37.52"/>
            <polyline class="cls-88" points="9.29 37.52 9.29 37.51 18.57 32.16 27.85 26.8"/>
          </g>
          <polygon class="cls-88" points="27.85 37.52 27.85 26.8 18.57 21.44 9.28 26.8 9.28 37.52 18.57 42.88 27.85 37.52"/>
        </g>
        <g>
          <g>
            <polyline class="cls-88" points="0 21.44 0 32.16 0 42.88"/>
            <polyline class="cls-88" points="-9.28 26.8 0 32.16 9.28 37.51 9.28 37.52"/>
            <polyline class="cls-88" points="-9.28 37.52 -9.28 37.51 0 32.16 9.28 26.8"/>
          </g>
          <polygon class="cls-88" points="9.28 37.52 9.28 26.8 0 21.44 -9.28 26.8 -9.28 37.52 0 42.88 9.28 37.52"/>
        </g>
        <g>
          <g>
            <polyline class="cls-88" points="18.57 10.72 27.85 16.08 37.13 21.43 37.13 21.44"/>
            <polyline class="cls-88" points="18.57 21.44 18.57 21.43 27.85 16.08 37.13 10.72"/>
          </g>
          <polygon class="cls-88" points="37.14 21.44 37.14 10.72 27.85 5.36 18.57 10.72 18.57 21.44 27.85 26.8 37.14 21.44"/>
        </g>
        <g>
          <g>
            <polyline class="cls-88" points="9.28 5.36 9.28 16.08 9.28 26.8"/>
            <polyline class="cls-88" points="0 10.72 9.28 16.08 18.56 21.43 18.56 21.44"/>
            <polyline class="cls-88" points="0 21.44 0 21.43 9.28 16.08 18.56 10.72"/>
          </g>
          <polygon class="cls-88" points="18.57 21.44 18.57 10.72 9.28 5.36 0 10.72 0 21.44 9.28 26.8 18.57 21.44"/>
        </g>
        <g>
          <g>
            <polyline class="cls-88" points="-18.56 10.72 -9.28 16.08 0 21.43 0 21.44"/>
            <polyline class="cls-88" points="-18.56 21.44 -18.56 21.43 -9.28 16.08 0 10.72"/>
          </g>
          <polygon class="cls-88" points="0 21.44 0 10.72 -9.28 5.36 -18.57 10.72 -18.57 21.44 -9.28 26.8 0 21.44"/>
        </g>
        <g>
          <g>
            <polyline class="cls-88" points="18.57 -10.72 18.57 0 18.57 10.72"/>
            <polyline class="cls-88" points="9.29 -5.36 18.57 0 27.85 5.35 27.85 5.36"/>
            <polyline class="cls-88" points="9.29 5.36 9.29 5.35 18.57 0 27.85 -5.36"/>
          </g>
          <polygon class="cls-88" points="27.85 5.36 27.85 -5.36 18.57 -10.72 9.28 -5.36 9.28 5.36 18.57 10.72 27.85 5.36"/>
        </g>
        <g>
          <g>
            <polyline class="cls-88" points="0 -10.72 0 0 0 10.72"/>
            <polyline class="cls-88" points="-9.28 -5.36 0 0 9.28 5.35 9.28 5.36"/>
            <polyline class="cls-88" points="-9.28 5.36 -9.28 5.35 0 0 9.28 -5.36"/>
          </g>
          <polygon class="cls-88" points="9.28 5.36 9.28 -5.36 0 -10.72 -9.28 -5.36 -9.28 5.36 0 10.72 9.28 5.36"/>
        </g>
      </g>
    </pattern>
    <linearGradient id="_未命名的渐变_147" data-name="未命名的渐变 147" x1="47.43" y1="112.43" x2="115.37" y2="112.43" gradientUnits="userSpaceOnUse">
      <stop offset="0" stop-color="#607da9"/>
      <stop offset="1" stop-color="#465671"/>
    </linearGradient>
    <linearGradient id="_未命名的渐变_18" data-name="未命名的渐变 18" x1="75" y1="137.89" x2="110.99" y2="101.9" gradientUnits="userSpaceOnUse">
      <stop offset="0" stop-color="#283140"/>
      <stop offset="1" stop-color="#12161a"/>
    </linearGradient>
    <linearGradient id="_未命名的渐变_29" data-name="未命名的渐变 29" x1="68.55" y1="135.58" x2="49.49" y2="116.52" gradientUnits="userSpaceOnUse">
      <stop offset="0" stop-color="#425266"/>
      <stop offset="1" stop-color="#596b8a"/>
    </linearGradient>
    <linearGradient id="_未命名的渐变_132" data-name="未命名的渐变 132" x1="9.41" y1="87.11" x2="18.07" y2="87.11" gradientUnits="userSpaceOnUse">
      <stop offset="0" stop-color="#87a9e4"/>
      <stop offset="1" stop-color="#6981ad"/>
    </linearGradient>
    <linearGradient id="_未命名的渐变_163" data-name="未命名的渐变 163" x1="10.75" y1="91.1" x2="17.43" y2="84.42" gradientUnits="userSpaceOnUse">
      <stop offset="0" stop-color="#232b37"/>
      <stop offset="1" stop-color="#283240"/>
    </linearGradient>
    <linearGradient id="_未命名的渐变_27" data-name="未命名的渐变 27" x1="10.27" y1="90.32" x2="9.26" y2="89.31" gradientUnits="userSpaceOnUse">
      <stop offset="0" stop-color="#7493c6"/>
      <stop offset="1" stop-color="#84a6e0"/>
    </linearGradient>
    <linearGradient id="_未命名的渐变_28" data-name="未命名的渐变 28" x1="34.12" y1="123.02" x2="43.9" y2="123.02" gradientUnits="userSpaceOnUse">
      <stop offset="0" stop-color="#87a9e4"/>
      <stop offset="1" stop-color="#80a2da"/>
    </linearGradient>
    <linearGradient id="_未命名的渐变_18-2" data-name="未命名的渐变 18" x1="35.55" y1="127.49" x2="43.19" y2="119.85" xlink:href="#_未命名的渐变_18"/>
    <linearGradient id="_未命名的渐变_27-2" data-name="未命名的渐变 27" x1="34.98" y1="126.63" x2="33.98" y2="125.62" xlink:href="#_未命名的渐变_27"/>
    <linearGradient id="_未命名的渐变_138" data-name="未命名的渐变 138" x1="212.07" y1="-655.05" x2="254.02" y2="-655.05" gradientTransform="translate(-220.8 -592.26) rotate(138)" gradientUnits="userSpaceOnUse">
      <stop offset="0" stop-color="#3b485e"/>
      <stop offset=".27" stop-color="#323d4f"/>
      <stop offset=".68" stop-color="#28313f"/>
      <stop offset="1" stop-color="#252d3a"/>
    </linearGradient>
    <linearGradient id="_未命名的渐变_136" data-name="未命名的渐变 136" x1="252.91" y1="-650.01" x2="255.13" y2="-652.24" gradientTransform="translate(-220.8 -592.26) rotate(138)" gradientUnits="userSpaceOnUse">
      <stop offset="0" stop-color="#495976"/>
      <stop offset="1" stop-color="#455571"/>
    </linearGradient>
    <linearGradient id="_未命名的渐变_143" data-name="未命名的渐变 143" x1="246.3" y1="-640.43" x2="221.54" y2="-665.19" gradientTransform="translate(-220.8 -592.26) rotate(138)" gradientUnits="userSpaceOnUse">
      <stop offset="0" stop-color="#6986b6"/>
      <stop offset="1" stop-color="#7998cd"/>
    </linearGradient>
    <linearGradient id="_未命名的渐变_16" data-name="未命名的渐变 16" x1="461.1" y1="-537.11" x2="539.05" y2="-537.11" gradientTransform="translate(286.29 -636.63) rotate(59) scale(1 -1)" gradientUnits="userSpaceOnUse">
      <stop offset="0" stop-color="#87a9e4"/>
      <stop offset="1" stop-color="#547097"/>
    </linearGradient>
    <linearGradient id="_未命名的渐变_15" data-name="未命名的渐变 15" x1="461.1" y1="-509.02" x2="539.66" y2="-509.02" gradientTransform="translate(286.29 -636.63) rotate(59) scale(1 -1)" gradientUnits="userSpaceOnUse">
      <stop offset="0" stop-color="#38455a"/>
      <stop offset=".15" stop-color="#7a96ca"/>
      <stop offset=".25" stop-color="#7a96ca"/>
      <stop offset=".9" stop-color="#12161a"/>
      <stop offset="1" stop-color="#283140"/>
    </linearGradient>
    <linearGradient id="_未命名的渐变_16-2" data-name="未命名的渐变 16" x1="465.24" y1="-577.42" x2="534.86" y2="-577.42" xlink:href="#_未命名的渐变_16"/>
    <linearGradient id="_未命名的渐变_15-2" data-name="未命名的渐变 15" x1="465.24" y1="-552.41" x2="535.11" y2="-552.41" xlink:href="#_未命名的渐变_15"/>
    <linearGradient id="_未命名的渐变_16-3" data-name="未命名的渐变 16" x1="471.64" y1="-596" x2="529.49" y2="-596" xlink:href="#_未命名的渐变_16"/>
    <linearGradient id="_未命名的渐变_15-3" data-name="未命名的渐变 15" x1="471.2" y1="-584.97" x2="529.49" y2="-584.97" xlink:href="#_未命名的渐变_15"/>
    <linearGradient id="_未命名的渐变_138-2" data-name="未命名的渐变 138" x1="196.18" y1="-668.2" x2="242.33" y2="-668.2" xlink:href="#_未命名的渐变_138"/>
    <linearGradient id="_未命名的渐变_136-2" data-name="未命名的渐变 136" x1="237.33" y1="-661.76" x2="241.93" y2="-666.35" xlink:href="#_未命名的渐变_136"/>
    <linearGradient id="_未命名的渐变_143-2" data-name="未命名的渐变 143" x1="228.95" y1="-654.11" x2="204.19" y2="-678.87" xlink:href="#_未命名的渐变_143"/>
    <linearGradient id="_未命名的渐变_138-3" data-name="未命名的渐变 138" x1="207.07" y1="-655.27" x2="249.3" y2="-655.27" xlink:href="#_未命名的渐变_138"/>
    <linearGradient id="_未命名的渐变_136-3" data-name="未命名的渐变 136" x1="247.27" y1="-649.82" x2="250.32" y2="-652.87" xlink:href="#_未命名的渐变_136"/>
    <linearGradient id="_未命名的渐变_143-3" data-name="未命名的渐变 143" x1="240.1" y1="-640.8" x2="215.34" y2="-665.56" xlink:href="#_未命名的渐变_143"/>
    <linearGradient id="_未命名的渐变_138-4" data-name="未命名的渐变 138" x1="193.57" y1="-683.07" x2="240.88" y2="-683.07" xlink:href="#_未命名的渐变_138"/>
    <linearGradient id="_未命名的渐变_136-4" data-name="未命名的渐变 136" x1="235.23" y1="-676.55" x2="239.98" y2="-681.3" xlink:href="#_未命名的渐变_136"/>
    <linearGradient id="_未命名的渐变_143-4" data-name="未命名的渐变 143" x1="226.35" y1="-669.4" x2="201.59" y2="-694.16" xlink:href="#_未命名的渐变_143"/>
    <linearGradient id="_未命名的渐变_151" data-name="未命名的渐变 151" x1="32.91" y1="160.39" x2="78.12" y2="160.39" gradientTransform="translate(82.32 -89.35) rotate(159.82) scale(1 -1)" gradientUnits="userSpaceOnUse">
      <stop offset="0" stop-color="#6f8bbc"/>
      <stop offset=".49" stop-color="#7593c7"/>
      <stop offset="1" stop-color="#7998cd"/>
    </linearGradient>
    <linearGradient id="_未命名的渐变_136-5" data-name="未命名的渐变 136" x1="74.35" y1="166.08" x2="77.44" y2="162.99" gradientTransform="translate(82.32 -89.35) rotate(159.82) scale(1 -1)" xlink:href="#_未命名的渐变_136"/>
    <linearGradient id="_未命名的渐变_169" data-name="未命名的渐变 169" x1="65.69" y1="173.44" x2="40.93" y2="148.69" gradientTransform="translate(82.32 -89.35) rotate(159.82) scale(1 -1)" gradientUnits="userSpaceOnUse">
      <stop offset="0" stop-color="#252d3a"/>
      <stop offset="1" stop-color="#28313f"/>
    </linearGradient>
    <linearGradient id="_未命名的渐变_151-2" data-name="未命名的渐变 151" x1="33.83" y1="168.59" x2="78.27" y2="168.59" xlink:href="#_未命名的渐变_151"/>
    <linearGradient id="_未命名的渐变_136-6" data-name="未命名的渐变 136" x1="74.62" y1="174.54" x2="78.23" y2="170.92" gradientTransform="translate(82.32 -89.35) rotate(159.82) scale(1 -1)" xlink:href="#_未命名的渐变_136"/>
    <linearGradient id="_未命名的渐变_169-2" data-name="未命名的渐变 169" x1="66.6" y1="182.55" x2="41.85" y2="157.8" xlink:href="#_未命名的渐变_169"/>
    <linearGradient id="_未命名的渐变_151-3" data-name="未命名的渐变 151" x1="35.42" y1="176.33" x2="79.61" y2="176.33" xlink:href="#_未命名的渐变_151"/>
    <linearGradient id="_未命名的渐变_136-7" data-name="未命名的渐变 136" x1="75.84" y1="182.52" x2="79.94" y2="178.43" gradientTransform="translate(82.32 -89.35) rotate(159.82) scale(1 -1)" xlink:href="#_未命名的渐变_136"/>
    <linearGradient id="_未命名的渐变_169-3" data-name="未命名的渐变 169" x1="68.19" y1="190.9" x2="43.43" y2="166.14" xlink:href="#_未命名的渐变_169"/>
    <linearGradient id="_未命名的渐变_151-4" data-name="未命名的渐变 151" x1="39.06" y1="183.69" x2="82.21" y2="183.69" xlink:href="#_未命名的渐变_151"/>
    <linearGradient id="_未命名的渐变_136-8" data-name="未命名的渐变 136" x1="79.09" y1="189.75" x2="82.94" y2="185.9" gradientTransform="translate(82.32 -89.35) rotate(159.82) scale(1 -1)" xlink:href="#_未命名的渐变_136"/>
    <linearGradient id="_未命名的渐变_169-4" data-name="未命名的渐变 169" x1="71.84" y1="198.53" x2="47.08" y2="173.77" xlink:href="#_未命名的渐变_169"/>
    <linearGradient id="_未命名的渐变_138-5" data-name="未命名的渐变 138" x1="194.57" y1="-690.33" x2="241.51" y2="-690.33" xlink:href="#_未命名的渐变_138"/>
    <linearGradient id="_未命名的渐变_136-9" data-name="未命名的渐变 136" x1="236.39" y1="-684.15" x2="240.45" y2="-688.22" xlink:href="#_未命名的渐变_136"/>
    <linearGradient id="_未命名的渐变_143-5" data-name="未命名的渐变 143" x1="227.34" y1="-677.16" x2="202.59" y2="-701.92" xlink:href="#_未命名的渐变_143"/>
    <linearGradient id="_未命名的渐变_138-6" data-name="未命名的渐变 138" x1="196.52" y1="-697.96" x2="242.75" y2="-697.96" xlink:href="#_未命名的渐变_138"/>
    <linearGradient id="_未命名的渐变_136-10" data-name="未命名的渐变 136" x1="238.56" y1="-692.13" x2="241.46" y2="-695.04" xlink:href="#_未命名的渐变_136"/>
    <linearGradient id="_未命名的渐变_143-6" data-name="未命名的渐变 143" x1="229.29" y1="-685.37" x2="204.53" y2="-710.12" xlink:href="#_未命名的渐变_143"/>
    <linearGradient id="_未命名的渐变_138-7" data-name="未命名的渐变 138" x1="200.81" y1="-661" x2="245.04" y2="-661" xlink:href="#_未命名的渐变_138"/>
    <linearGradient id="_未命名的渐变_136-11" data-name="未命名的渐变 136" x1="241.45" y1="-654.9" x2="245.58" y2="-659.03" xlink:href="#_未命名的渐变_136"/>
    <linearGradient id="_未命名的渐变_143-7" data-name="未命名的渐变 143" x1="233.84" y1="-646.19" x2="209" y2="-671.03" xlink:href="#_未命名的渐变_143"/>
    <linearGradient id="_未命名的渐变_26" data-name="未命名的渐变 26" x1="64.02" y1="50.45" x2="69.37" y2="50.45" gradientUnits="userSpaceOnUse">
      <stop offset="0" stop-color="#8be0fa"/>
      <stop offset="1" stop-color="#4eb4f8"/>
    </linearGradient>
    <linearGradient id="_未命名的渐变_24" data-name="未命名的渐变 24" x1="64.02" y1="52.65" x2="69.37" y2="52.65" gradientUnits="userSpaceOnUse">
      <stop offset="0" stop-color="#2a73e4"/>
      <stop offset=".15" stop-color="#59c6f9"/>
      <stop offset=".25" stop-color="#59c6f9"/>
      <stop offset=".85" stop-color="#1433ca"/>
      <stop offset="1" stop-color="#2a73e4"/>
    </linearGradient>
    <linearGradient id="_未命名的渐变_138-8" data-name="未命名的渐变 138" x1="193.47" y1="-675.65" x2="240.77" y2="-675.65" xlink:href="#_未命名的渐变_138"/>
    <linearGradient id="_未命名的渐变_136-12" data-name="未命名的渐变 136" x1="235.12" y1="-669.13" x2="239.87" y2="-673.88" xlink:href="#_未命名的渐变_136"/>
    <linearGradient id="_未命名的渐变_143-8" data-name="未命名的渐变 143" x1="226.24" y1="-661.98" x2="201.48" y2="-686.74" xlink:href="#_未命名的渐变_143"/>
    <linearGradient id="_未命名的渐变_177" data-name="未命名的渐变 177" x1="64.26" y1="42.85" x2="69.13" y2="51.23" gradientUnits="userSpaceOnUse">
      <stop offset=".38" stop-color="#7894c7"/>
      <stop offset=".46" stop-color="#7591c2"/>
      <stop offset=".56" stop-color="#6e88b6"/>
      <stop offset=".65" stop-color="#6279a1"/>
      <stop offset=".75" stop-color="#516484"/>
      <stop offset=".84" stop-color="#3b4a5f"/>
      <stop offset=".91" stop-color="#28323e"/>
    </linearGradient>
    <linearGradient id="_未命名的渐变_179" data-name="未命名的渐变 179" x1="65.09" y1="46.47" x2="64.83" y2="45.6" gradientUnits="userSpaceOnUse">
      <stop offset=".14" stop-color="#81a2db"/>
      <stop offset="1" stop-color="#28323e"/>
    </linearGradient>
    <linearGradient id="_未命名的渐变_179-2" data-name="未命名的渐变 179" x1="68.02" y1="48.84" x2="66.68" y2="44.33" xlink:href="#_未命名的渐变_179"/>
    <linearGradient id="_未命名的渐变_28-2" data-name="未命名的渐变 28" x1="28.7" y1="72.52" x2="38.48" y2="72.52" xlink:href="#_未命名的渐变_28"/>
    <linearGradient id="_未命名的渐变_18-3" data-name="未命名的渐变 18" x1="30.12" y1="76.99" x2="37.76" y2="69.35" xlink:href="#_未命名的渐变_18"/>
    <linearGradient id="_未命名的渐变_27-3" data-name="未命名的渐变 27" x1="29.56" y1="76.13" x2="28.55" y2="75.12" xlink:href="#_未命名的渐变_27"/>
    <linearGradient id="_未命名的渐变_132-2" data-name="未命名的渐变 132" x1="51.89" y1="113.53" x2="60.55" y2="113.53" xlink:href="#_未命名的渐变_132"/>
    <linearGradient id="_未命名的渐变_163-2" data-name="未命名的渐变 163" x1="53.23" y1="117.52" x2="59.92" y2="110.83" xlink:href="#_未命名的渐变_163"/>
    <linearGradient id="_未命名的渐变_27-4" data-name="未命名的渐变 27" x1="52.75" y1="116.74" x2="51.74" y2="115.73" xlink:href="#_未命名的渐变_27"/>
    <linearGradient id="_未命名的渐变_654" data-name="未命名的渐变 654" x1="103.82" y1="110.06" x2="95.21" y2="101.45" gradientUnits="userSpaceOnUse">
      <stop offset="0" stop-color="#7694c8"/>
      <stop offset=".42" stop-color="#617da9"/>
      <stop offset="1" stop-color="#627eab"/>
    </linearGradient>
    <linearGradient id="_未命名的渐变_26-2" data-name="未命名的渐变 26" x1="447.55" y1="-605.7" x2="457.4" y2="-605.7" gradientTransform="translate(335.98 -587.89) rotate(60.74) scale(1 -1)" xlink:href="#_未命名的渐变_26"/>
    <linearGradient id="_未命名的渐变_24-2" data-name="未命名的渐变 24" x1="447.55" y1="-603.69" x2="457.41" y2="-603.69" gradientTransform="translate(335.98 -587.89) rotate(60.74) scale(1 -1)" xlink:href="#_未命名的渐变_24"/>
    <linearGradient id="_未命名的渐变_26-3" data-name="未命名的渐变 26" x1="448.42" y1="-618.31" x2="456.45" y2="-618.31" gradientTransform="translate(335.98 -587.89) rotate(60.74) scale(1 -1)" xlink:href="#_未命名的渐变_26"/>
    <linearGradient id="_未命名的渐变_24-3" data-name="未命名的渐变 24" x1="448.42" y1="-611.05" x2="456.45" y2="-611.05" gradientTransform="translate(335.98 -587.89) rotate(60.74) scale(1 -1)" xlink:href="#_未命名的渐变_24"/>
    <linearGradient id="_未命名的渐变_138-9" data-name="未命名的渐变 138" x1="207.53" y1="-720.16" x2="270.74" y2="-720.16" xlink:href="#_未命名的渐变_138"/>
    <linearGradient id="_未命名的渐变_331" data-name="未命名的渐变 331" x1="240.7" y1="-704.09" x2="265.99" y2="-729.38" gradientTransform="translate(-220.8 -592.26) rotate(138)" gradientUnits="userSpaceOnUse">
      <stop offset="0" stop-color="#627eab"/>
      <stop offset="1" stop-color="#455571"/>
    </linearGradient>
    <linearGradient id="_未命名的渐变_330" data-name="未命名的渐变 330" x1="230.52" y1="-703.31" x2="213.01" y2="-720.82" gradientTransform="translate(-220.8 -592.26) rotate(138)" gradientUnits="userSpaceOnUse">
      <stop offset="0" stop-color="#6986b6"/>
      <stop offset=".42" stop-color="#617da9"/>
      <stop offset="1" stop-color="#627eab"/>
    </linearGradient>
    <linearGradient id="_未命名的渐变_124" data-name="未命名的渐变 124" x1="212.21" y1="-723.87" x2="265.62" y2="-723.87" gradientTransform="translate(-220.8 -592.26) rotate(138)" gradientUnits="userSpaceOnUse">
      <stop offset="0" stop-color="#4a5b77"/>
      <stop offset="1" stop-color="#1e252f"/>
    </linearGradient>
    <linearGradient id="_未命名的渐变_553" data-name="未命名的渐变 553" x1="239.84" y1="-708.94" x2="262.28" y2="-731.39" gradientTransform="translate(-220.8 -592.26) rotate(138)" gradientUnits="userSpaceOnUse">
      <stop offset="0" stop-color="#475772"/>
      <stop offset="1" stop-color="#42526c"/>
    </linearGradient>
    <linearGradient id="_未命名的渐变_22" data-name="未命名的渐变 22" x1="527.94" y1="-837.2" x2="537.41" y2="-838.91" gradientTransform="translate(-10.33 -757.35) rotate(161.33) scale(.35 1)" gradientUnits="userSpaceOnUse">
      <stop offset="0" stop-color="#617daa"/>
      <stop offset="1" stop-color="#445470"/>
    </linearGradient>
    <linearGradient id="_未命名的渐变_142" data-name="未命名的渐变 142" x1="226.34" y1="-707.51" x2="219.75" y2="-726.17" gradientTransform="translate(-220.8 -592.26) rotate(138)" gradientUnits="userSpaceOnUse">
      <stop offset="0" stop-color="#6c8abb"/>
      <stop offset="1" stop-color="#7b9bd1"/>
    </linearGradient>
    <linearGradient id="_未命名的渐变_20" data-name="未命名的渐变 20" x1="465.73" y1="-832.09" x2="466.77" y2="-833.13" gradientTransform="translate(-10.33 -757.35) rotate(161.33) scale(.35 1)" gradientUnits="userSpaceOnUse">
      <stop offset="0" stop-color="#495a77"/>
      <stop offset="1" stop-color="#6e8dbf"/>
    </linearGradient>
    <linearGradient id="_未命名的渐变_327" data-name="未命名的渐变 327" x1="79.45" y1="94.59" x2="80.8" y2="94.59" gradientUnits="userSpaceOnUse">
      <stop offset="0" stop-color="#85a7e1"/>
      <stop offset="1" stop-color="#6582b1"/>
    </linearGradient>
    <linearGradient id="_未命名的渐变_324" data-name="未命名的渐变 324" x1="601.51" y1="-400.82" x2="603.43" y2="-400.82" gradientTransform="translate(43.14 -628.42) rotate(120.74)" gradientUnits="userSpaceOnUse">
      <stop offset="0" stop-color="#38455a"/>
      <stop offset=".15" stop-color="#7a96ca"/>
      <stop offset=".25" stop-color="#7a96ca"/>
      <stop offset=".9" stop-color="#303b4d"/>
      <stop offset="1" stop-color="#283140"/>
    </linearGradient>
    <linearGradient id="_未命名的渐变_327-2" data-name="未命名的渐变 327" x1="65.4" y1="125.04" x2="66.75" y2="125.04" xlink:href="#_未命名的渐变_327"/>
    <linearGradient id="_未命名的渐变_324-2" data-name="未命名的渐变 324" x1="634.87" y1="-404.31" x2="636.79" y2="-404.31" xlink:href="#_未命名的渐变_324"/>
    <linearGradient id="_未命名的渐变_327-3" data-name="未命名的渐变 327" x1="101.49" y1="81.33" x2="102.84" y2="81.33" xlink:href="#_未命名的渐变_327"/>
    <linearGradient id="_未命名的渐变_324-3" data-name="未命名的渐变 324" x1="578.86" y1="-412.98" x2="580.77" y2="-412.98" xlink:href="#_未命名的渐变_324"/>
  </defs>
  <g id="_图层_1-2" data-name="图层 1">
    <g id="_励磁机" data-name="励磁机">
      <g id="_背景" data-name="背景" class="cls-90">
        <rect class="cls-87" width="150" height="150"/>
        <rect id="_网格" data-name="网格" class="cls-65" width="150" height="150"/>
      </g>
      <g>
        <g>
          <polygon class="cls-75" points="92.14 92.67 47.43 118.59 70.66 132.2 115.37 106.28 92.14 92.67"/>
          <polygon class="cls-1" points="70.66 132.2 70.61 133.51 115.33 107.59 115.37 106.28 70.66 132.2"/>
          <polygon class="cls-8" points="47.43 118.59 47.38 119.9 70.61 133.51 70.66 132.2 47.43 118.59"/>
        </g>
        <g>
          <polygon class="cls-78" points="17.34 84.63 9.41 89.16 10.13 89.58 18.07 85.05 17.34 84.63"/>
          <polygon class="cls-84" points="10.13 89.58 10.12 90.47 18.06 85.93 18.07 85.05 10.13 89.58"/>
          <polygon class="cls-9" points="9.41 89.16 9.4 90.05 10.12 90.47 10.13 89.58 9.41 89.16"/>
        </g>
        <g>
          <polygon class="cls-5" points="43.18 120.15 34.12 125.48 34.85 125.89 43.9 120.56 43.18 120.15"/>
          <polygon class="cls-16" points="34.85 125.89 34.84 126.78 43.89 121.45 43.9 120.56 34.85 125.89"/>
          <polygon class="cls-26" points="34.12 125.48 34.12 126.36 34.84 126.78 34.85 125.89 34.12 125.48"/>
        </g>
        <g>
          <polygon class="cls-79" points="63.99 40.95 60.29 38.62 24.69 59.98 28.17 63.15 63.99 40.95"/>
          <polygon class="cls-80" points="24.69 59.93 24.08 60.17 27.45 63.23 28.17 63.11 24.69 59.93"/>
          <polygon class="cls-77" points="60.29 38.62 59.45 39.01 24.1 60.16 24.69 59.93 60.29 38.62"/>
        </g>
        <g>
          <path class="cls-3" d="m103.62,102.03c4.92-2.96,7.93-9.16,7.8-17.91-.25-17.53-12.97-38.69-28.42-47.24-7.74-4.3-14.7-4.57-19.66-1.59-4.92,2.96-7.91,9.15-7.79,17.87.24,17.56,12.96,38.73,28.4,47.25,7.74,4.3,14.71,4.59,19.68,1.61Z"/>
          <path class="cls-2" d="m103.62,102.03l29.18-16.82c4.92-2.96,7.93-9.16,7.8-17.91-.25-17.53-12.97-38.69-28.42-47.24-7.74-4.3-14.7-4.57-19.66-1.59l-29.18,16.82c4.97-2.99,11.93-2.71,19.66,1.59,15.45,8.55,28.17,29.71,28.42,47.24.13,8.75-2.87,14.95-7.8,17.91Z"/>
        </g>
        <g>
          <path class="cls-18" d="m60.94,122.78c4.4-2.64,7.08-8.18,6.96-15.99-.23-15.65,3.73-43.76-10.06-51.4-6.91-3.84-28.44,5.13-32.88,7.79-4.4,2.64-7.06,8.17-6.96,15.96.22,15.68,11.57,34.59,25.36,42.2,6.91,3.84,13.14,4.1,17.57,1.44Z"/>
          <path class="cls-20" d="m60.94,122.78l37.7-22.36c4.4-2.64,7.08-8.18,6.96-15.99-.23-15.65-11.58-34.55-25.38-42.19-6.91-3.84-13.12-4.08-17.56-1.42l-37.7,22.36c4.44-2.67,10.65-2.42,17.56,1.42,13.79,7.63,25.15,26.54,25.38,42.19.12,7.81-2.57,13.35-6.96,15.99Z"/>
        </g>
        <g>
          <path class="cls-17" d="m46.1,125.43c3.65-2.2,5.88-6.8,5.79-13.29-.19-13.01-1.66-29.49-13.13-35.83-5.74-3.19-18.86-2.62-22.55-.4s-5.87,6.79-5.78,13.26c.18,13.03,9.62,28.74,21.07,35.07,5.74,3.19,10.91,3.41,14.6,1.19Z"/>
          <path class="cls-19" d="m46.1,125.43l8.56-5.67c3.65-2.2,5.88-6.8,5.79-13.29-.19-13.01-9.62-28.71-21.09-35.06-5.74-3.19-10.9-3.39-14.59-1.18l-8.56,5.67c3.69-2.22,8.85-2.01,14.59,1.18,11.46,6.34,20.9,22.05,21.09,35.06.1,6.49-2.13,11.09-5.79,13.29Z"/>
        </g>
        <g>
          <polygon class="cls-56" points="80.61 42.62 82.31 37.54 46.71 58.9 44.78 64.83 80.61 42.62"/>
          <polygon class="cls-51" points="46.71 58.85 46.16 58.35 44.23 64.28 44.78 64.78 46.71 58.85"/>
          <polygon class="cls-39" points="82.31 37.54 81.77 37.04 46.16 58.35 46.71 58.85 82.31 37.54"/>
        </g>
        <g>
          <polygon class="cls-53" points="67.2 38.15 65.14 34.75 29.54 56.11 31.38 60.36 67.2 38.15"/>
          <polygon class="cls-52" points="29.54 56.06 28.93 56.3 30.66 60.44 31.38 60.31 29.54 56.06"/>
          <polygon class="cls-40" points="65.14 34.75 64.3 35.13 28.95 56.28 29.54 56.06 65.14 34.75"/>
        </g>
        <g>
          <polygon class="cls-59" points="91.36 52.39 94.48 47.16 58.88 68.53 55.53 74.6 91.36 52.39"/>
          <polygon class="cls-47" points="58.88 68.48 58.33 67.97 54.98 74.05 55.53 74.55 58.88 68.48"/>
          <polygon class="cls-41" points="94.48 47.16 93.93 46.66 58.33 67.97 58.88 68.48 94.48 47.16"/>
        </g>
        <g>
          <polygon class="cls-82" points="101.8 69.84 105.49 69.09 69.98 90.61 65.43 91.16 101.8 69.84"/>
          <polygon class="cls-48" points="70.03 90.63 70.22 91.35 65.67 91.91 65.48 91.19 70.03 90.63"/>
          <polygon class="cls-83" points="105.49 69.09 105.68 69.81 70.22 91.35 70.03 90.63 105.49 69.09"/>
        </g>
        <g>
          <polygon class="cls-30" points="104.18 76.73 107.77 77.96 72.27 99.48 67.81 98.05 104.18 76.73"/>
          <polygon class="cls-49" points="72.31 99.5 72.5 100.22 68.05 98.79 67.86 98.07 72.31 99.5"/>
          <polygon class="cls-34" points="107.77 77.96 107.96 78.68 72.5 100.22 72.31 99.5 107.77 77.96"/>
        </g>
        <g>
          <polygon class="cls-32" points="105.38 83.89 109.16 86.34 73.65 107.85 69.02 105.22 105.38 83.89"/>
          <polygon class="cls-50" points="73.7 107.88 73.89 108.6 69.25 105.96 69.06 105.24 73.7 107.88"/>
          <polygon class="cls-35" points="109.16 86.34 109.35 87.05 73.89 108.6 73.7 107.88 109.16 86.34"/>
        </g>
        <g>
          <polygon class="cls-31" points="105.38 91.43 108.37 94.76 72.86 116.28 69.02 112.76 105.38 91.43"/>
          <polygon class="cls-46" points="72.91 116.3 73.1 117.02 69.25 113.5 69.06 112.78 72.91 116.3"/>
          <polygon class="cls-33" points="108.37 94.76 108.56 95.48 73.1 117.02 72.91 116.3 108.37 94.76"/>
        </g>
        <g>
          <polygon class="cls-60" points="95.41 57.84 98.93 53.59 63.33 74.96 59.58 80.05 95.41 57.84"/>
          <polygon class="cls-45" points="63.33 74.91 62.78 74.4 59.03 79.49 59.58 80 63.33 74.91"/>
          <polygon class="cls-37" points="98.93 53.59 98.38 53.09 62.78 74.4 63.33 74.91 98.93 53.59"/>
        </g>
        <g>
          <polygon class="cls-57" points="98.9 63.56 102.98 60.99 67.37 82.36 63.07 85.77 98.9 63.56"/>
          <polygon class="cls-13" points="67.37 82.31 66.83 81.8 62.52 85.22 63.07 85.72 67.37 82.31"/>
          <polygon class="cls-38" points="102.98 60.99 102.43 60.49 66.83 81.8 67.37 82.31 102.98 60.99"/>
        </g>
        <g>
          <polygon class="cls-58" points="74.32 39.69 73.51 34.69 37.91 56.05 38.5 61.9 74.32 39.69"/>
          <polygon class="cls-14" points="37.91 56.01 37.18 55.93 37.71 61.62 38.5 61.85 37.91 56.01"/>
          <polygon class="cls-42" points="73.51 34.69 72.63 34.79 37.22 55.93 37.91 56.01 73.51 34.69"/>
        </g>
        <g>
          <path class="cls-7" d="m69.37,50.46c0,.39-.26.79-.78,1.09-1.04.6-2.73.6-3.78,0-.53-.3-.79-.7-.79-1.1s.26-.79.78-1.09c1.04-.61,2.73-.61,3.78,0,.53.3.79.7.79,1.1Z"/>
          <path class="cls-4" d="m69.37,50.46v2.85c0,.39-.26.79-.78,1.09-1.04.6-2.73.6-3.78,0-.53-.3-.79-.7-.79-1.1v-2.85c0,.4.26.8.79,1.1,1.05.61,2.74.61,3.78,0,.52-.3.78-.7.78-1.09Z"/>
        </g>
        <g>
          <polygon class="cls-54" points="86.47 46.81 89.59 41.58 53.99 62.94 50.64 69.02 86.47 46.81"/>
          <polygon class="cls-12" points="53.99 62.89 53.44 62.39 50.1 68.46 50.64 68.97 53.99 62.89"/>
          <polygon class="cls-43" points="89.59 41.58 89.04 41.07 53.44 62.39 53.99 62.89 89.59 41.58"/>
        </g>
        <g>
          <path class="cls-69" d="m67.23,42.44c-1.65-.39-3.43,1.14-3.97,3.43s.37,4.45,2.02,4.84c1.65.39,3.43-1.14,3.97-3.43s.4-4.46-2.02-4.84Zm1.5,4.81c-.4,1.71-1.59,2.89-2.65,2.64-1.06-.25-1.6-1.84-1.2-3.54s1.59-2.89,2.65-2.64c1.06.25,1.6,1.84,1.2,3.54Z"/>
          <path class="cls-85" d="m67.9,42.65c-1.65-.39-3.43,1.14-3.97,3.43s.37,4.45,2.02,4.84c1.65.39,3.43-1.14,3.97-3.43s-.37-4.45-2.02-4.84Zm.87,4.6c-.4,1.71-1.59,2.89-2.65,2.64-1.06-.25-1.6-1.84-1.2-3.54s1.59-2.89,2.65-2.64c1.06.25,1.6,1.84,1.2,3.54Z"/>
          <g>
            <path class="cls-68" d="m64.85,46.3c.08-.32.19-.62.31-.9-.13.27-.24.56-.31.87-.03.15-.05.29-.07.43.02-.13.04-.27.07-.41Z"/>
            <path class="cls-29" d="m67.76,43.66c-.19-.05-.39-.04-.59-.01.11,0,.22,0,.33.02,1.06.25,1.6,1.84,1.2,3.54-.39,1.68-1.55,2.84-2.6,2.64.06.02.12.06.18.07,1.2.28,2.5-.89,2.91-2.62.41-1.73-.23-3.36-1.43-3.64Z"/>
          </g>
        </g>
        <g>
          <polygon class="cls-21" points="37.75 69.65 28.7 74.98 29.42 75.39 38.48 70.06 37.75 69.65"/>
          <polygon class="cls-15" points="29.42 75.39 29.41 76.28 38.47 70.95 38.48 70.06 29.42 75.39"/>
          <polygon class="cls-25" points="28.7 74.98 28.69 75.86 29.41 76.28 29.42 75.39 28.7 74.98"/>
        </g>
        <g>
          <polygon class="cls-44" points="59.83 111.05 51.89 115.58 52.61 116 60.55 111.47 59.83 111.05"/>
          <polygon class="cls-36" points="52.61 116 52.6 116.88 60.54 112.35 60.55 111.47 52.61 116"/>
          <polygon class="cls-24" points="51.89 115.58 51.88 116.47 52.6 116.88 52.61 116 51.89 115.58"/>
        </g>
        <g>
          <polygon class="cls-67" points="96.74 100.3 103.21 110.67 102.19 111.11 95.79 100.87 96.74 100.3"/>
          <polygon class="cls-86" points="95.76 100.81 102.23 111.17 95.91 107.21 95.76 100.81"/>
        </g>
        <g>
          <g>
            <path class="cls-22" d="m31.19,107.22c.63-.35,1.04-1.13,1.05-2.23.04-2.22-1.49-4.94-3.41-6.08-.96-.57-1.84-.63-2.48-.28s-1.03,1.13-1.05,2.23c-.04,2.22,1.49,4.94,3.41,6.08.96.57,1.84.64,2.48.28Z"/>
            <path class="cls-27" d="m31.19,107.22l1.03-.57c.63-.35,1.04-1.13,1.05-2.23.04-2.22-1.49-4.94-3.41-6.08-.96-.57-1.84-.63-2.48-.28l-1.03.57c.64-.36,1.52-.3,2.48.28,1.92,1.14,3.44,3.86,3.41,6.08-.02,1.11-.42,1.88-1.05,2.23Z"/>
          </g>
          <g>
            <path class="cls-23" d="m19.72,112.55c.52-.29.84-.92.86-1.82.03-1.8-1.21-4.02-2.78-4.95-.78-.47-1.5-.52-2.02-.22s-.84.92-.86,1.81c-.03,1.81,1.21,4.03,2.77,4.95.78.47,1.5.52,2.02.23Z"/>
            <path class="cls-28" d="m19.72,112.55l10.64-5.96c.52-.29.84-.92.86-1.82.03-1.8-1.21-4.02-2.78-4.95-.78-.47-1.5-.52-2.02-.22l-10.64,5.96c.52-.29,1.24-.24,2.02.22,1.56.93,2.81,3.15,2.78,4.95-.01.9-.34,1.53-.86,1.82Z"/>
          </g>
        </g>
        <g>
          <g>
            <polygon class="cls-55" points="87.6 113.03 103.65 78.2 78.78 93.16 62.95 127.47 87.6 113.03"/>
            <polygon class="cls-74" points="78.78 93.1 78.11 92.38 62.28 126.69 62.95 127.4 78.78 93.1"/>
            <polygon class="cls-73" points="103.65 78.2 102.98 77.48 78.11 92.38 78.78 93.1 103.65 78.2"/>
          </g>
          <polygon class="cls-81" points="89.22 115.42 103.15 84.65 102.73 84.59 82.24 95.92 69.02 126.56 69.78 127.2 87.66 117.11 89.22 115.42"/>
          <polygon class="cls-72" points="82.14 97.93 80.03 95.31 66.9 123.99 69.1 126.52 82.14 97.93"/>
          <polygon class="cls-6" points="84.11 96.09 81.94 93.63 80.04 95.34 82.11 97.99 84.11 96.09"/>
          <polygon class="cls-76" points="102.73 84.58 100.62 82.51 81.93 93.63 84.11 96.06 102.73 84.58"/>
          <polygon class="cls-10" points="103.16 84.65 101.22 82.79 100.62 82.51 102.74 84.59 103.16 84.65"/>
          <g>
            <path class="cls-71" d="m80.61,93.78c-.12-.07-.29-.06-.48.04-.37.21-.68.72-.68,1.15,0,.21.07.36.19.43.12.07.29.06.48-.04.37-.21.68-.72.68-1.15,0-.21-.07-.36-.19-.43Zm-.44,1.29c-.12.06-.22.07-.29.03-.07-.04-.12-.14-.12-.27,0-.26.19-.58.42-.71.12-.06.22-.07.29-.03.07.04.12.14.12.27,0,.26-.19.58-.42.71Z"/>
            <path class="cls-70" d="m79.64,95.4l-.51-.34c-.12-.07-.19-.22-.19-.43,0-.42.31-.94.68-1.15.19-.1.36-.11.48-.04l.51.34c-.12-.07-.29-.06-.48.04-.37.21-.68.72-.68,1.15,0,.21.07.36.19.43Z"/>
          </g>
          <g>
            <path class="cls-61" d="m66.56,124.23c-.12-.07-.29-.06-.48.04-.37.21-.68.72-.68,1.15,0,.21.07.36.19.43.12.07.29.06.48-.04.37-.21.68-.72.68-1.15,0-.21-.07-.36-.19-.43Zm-.44,1.29c-.12.06-.22.07-.29.03-.07-.04-.12-.14-.12-.27,0-.26.19-.58.42-.71.12-.06.22-.07.29-.03.07.04.12.14.12.27,0,.26-.19.58-.42.71Z"/>
            <path class="cls-63" d="m65.59,125.86l-.51-.34c-.12-.07-.19-.22-.19-.43,0-.42.31-.94.68-1.15.19-.1.36-.11.48-.04l.51.34c-.12-.07-.29-.06-.48.04-.37.21-.68.72-.68,1.15,0,.21.07.36.19.43Z"/>
          </g>
          <g>
            <path class="cls-62" d="m102.65,80.52c-.12-.07-.29-.06-.48.04-.37.21-.68.72-.68,1.15,0,.21.07.36.19.43.12.07.29.06.48-.04.37-.21.68-.72.68-1.15,0-.21-.07-.36-.19-.43Zm-.44,1.29c-.12.06-.22.07-.29.03-.07-.04-.12-.14-.12-.27,0-.26.19-.58.42-.71.12-.06.22-.07.29-.03.07.04.12.14.12.27,0,.26-.19.58-.42.71Z"/>
            <path class="cls-64" d="m101.67,82.14l-.51-.34c-.12-.07-.19-.22-.19-.43,0-.42.31-.94.68-1.15.19-.1.36-.11.48-.04l.51.34c-.12-.07-.29-.06-.48.04-.37.21-.68.72-.68,1.15,0,.21.07.36.19.43Z"/>
          </g>
        </g>
      </g>
     
    </g>
  </g>
</svg>