<?xml version="1.0" encoding="UTF-8"?>
<svg id="_图层_2" data-name="图层 2" xmlns="http://www.w3.org/2000/svg" xmlns:xlink="http://www.w3.org/1999/xlink" viewBox="0 0 150 150.14">
  <defs>
    <style>
      .cls-1 {
        fill: url(#_未命名的渐变_13);
      }

      .cls-1, .cls-2, .cls-3, .cls-4, .cls-5, .cls-6, .cls-7, .cls-8, .cls-9, .cls-10, .cls-11, .cls-12 {
        stroke-width: 0px;
      }

      .cls-2 {
        fill: url(#_未命名的渐变_21);
      }

      .cls-3 {
        fill: url(#_未命名的渐变_73);
      }

      .cls-4 {
        fill: url(#_未命名的渐变_32);
      }

      .cls-5, .cls-13 {
        fill: none;
      }

      .cls-13 {
        stroke: #fff;
        stroke-miterlimit: 10;
        stroke-width: .1px;
      }

      .cls-6 {
        fill: url(#_未命名的渐变_73-2);
      }

      .cls-7 {
        fill: url(#_未命名的渐变_73-3);
      }

      .cls-8 {
        fill: url(#_新建图案);
        opacity: .1;
      }

      .cls-14 {
        opacity: .2;
      }

      .cls-10 {
        fill: url(#_未命名的渐变_184);
      }

      .cls-15 {
        opacity: 0;
      }

      .cls-11 {
        fill: #81aaea;
      }

      .cls-12 {
        fill: #000715;
      }
    </style>
    <pattern id="_新建图案" data-name="新建图案" x="0" y="0" width="18.57" height="32.16" patternTransform="translate(3940.26 952.58)" patternUnits="userSpaceOnUse" viewBox="0 0 18.57 32.16">
      <g>
        <rect class="cls-5" x="0" y="0" width="18.57" height="32.16"/>
        <g>
          <g>
            <polyline class="cls-13" points="18.57 21.44 18.57 32.16 18.57 42.88"/>
            <polyline class="cls-13" points="9.29 26.8 18.57 32.16 27.85 37.51 27.85 37.52"/>
            <polyline class="cls-13" points="9.29 37.52 9.29 37.51 18.57 32.16 27.85 26.8"/>
          </g>
          <polygon class="cls-13" points="27.85 37.52 27.85 26.8 18.57 21.44 9.28 26.8 9.28 37.52 18.57 42.88 27.85 37.52"/>
        </g>
        <g>
          <g>
            <polyline class="cls-13" points="0 21.44 0 32.16 0 42.88"/>
            <polyline class="cls-13" points="-9.28 26.8 0 32.16 9.28 37.51 9.28 37.52"/>
            <polyline class="cls-13" points="-9.28 37.52 -9.28 37.51 0 32.16 9.28 26.8"/>
          </g>
          <polygon class="cls-13" points="9.28 37.52 9.28 26.8 0 21.44 -9.28 26.8 -9.28 37.52 0 42.88 9.28 37.52"/>
        </g>
        <g>
          <g>
            <polyline class="cls-13" points="18.57 10.72 27.85 16.08 37.13 21.43 37.13 21.44"/>
            <polyline class="cls-13" points="18.57 21.44 18.57 21.43 27.85 16.08 37.13 10.72"/>
          </g>
          <polygon class="cls-13" points="37.14 21.44 37.14 10.72 27.85 5.36 18.57 10.72 18.57 21.44 27.85 26.8 37.14 21.44"/>
        </g>
        <g>
          <g>
            <polyline class="cls-13" points="9.28 5.36 9.28 16.08 9.28 26.8"/>
            <polyline class="cls-13" points="0 10.72 9.28 16.08 18.56 21.43 18.56 21.44"/>
            <polyline class="cls-13" points="0 21.44 0 21.43 9.28 16.08 18.56 10.72"/>
          </g>
          <polygon class="cls-13" points="18.57 21.44 18.57 10.72 9.28 5.36 0 10.72 0 21.44 9.28 26.8 18.57 21.44"/>
        </g>
        <g>
          <g>
            <polyline class="cls-13" points="-18.56 10.72 -9.28 16.08 0 21.43 0 21.44"/>
            <polyline class="cls-13" points="-18.56 21.44 -18.56 21.43 -9.28 16.08 0 10.72"/>
          </g>
          <polygon class="cls-13" points="0 21.44 0 10.72 -9.28 5.36 -18.57 10.72 -18.57 21.44 -9.28 26.8 0 21.44"/>
        </g>
        <g>
          <g>
            <polyline class="cls-13" points="18.57 -10.72 18.57 0 18.57 10.72"/>
            <polyline class="cls-13" points="9.29 -5.36 18.57 0 27.85 5.35 27.85 5.36"/>
            <polyline class="cls-13" points="9.29 5.36 9.29 5.35 18.57 0 27.85 -5.36"/>
          </g>
          <polygon class="cls-13" points="27.85 5.36 27.85 -5.36 18.57 -10.72 9.28 -5.36 9.28 5.36 18.57 10.72 27.85 5.36"/>
        </g>
        <g>
          <g>
            <polyline class="cls-13" points="0 -10.72 0 0 0 10.72"/>
            <polyline class="cls-13" points="-9.28 -5.36 0 0 9.28 5.35 9.28 5.36"/>
            <polyline class="cls-13" points="-9.28 5.36 -9.28 5.35 0 0 9.28 -5.36"/>
          </g>
          <polygon class="cls-13" points="9.28 5.36 9.28 -5.36 0 -10.72 -9.28 -5.36 -9.28 5.36 0 10.72 9.28 5.36"/>
        </g>
      </g>
    </pattern>
    <linearGradient id="_未命名的渐变_21" data-name="未命名的渐变 21" x1="30.66" y1="96.5" x2="119.86" y2="96.5" gradientUnits="userSpaceOnUse">
      <stop offset="0" stop-color="#35455c"/>
      <stop offset=".15" stop-color="#7497d0"/>
      <stop offset=".25" stop-color="#7497d0"/>
      <stop offset=".9" stop-color="#11161a"/>
      <stop offset="1" stop-color="#263141"/>
    </linearGradient>
    <linearGradient id="_未命名的渐变_13" data-name="未命名的渐变 13" x1="30.87" y1="43" x2="119.86" y2="43" gradientUnits="userSpaceOnUse">
      <stop offset="0" stop-color="#81aaea"/>
      <stop offset="1" stop-color="#4d709c"/>
    </linearGradient>
    <linearGradient id="_未命名的渐变_184" data-name="未命名的渐变 184" x1="30.87" y1="43" x2="119.86" y2="43" gradientUnits="userSpaceOnUse">
      <stop offset=".9" stop-color="#11161a"/>
      <stop offset="1" stop-color="#263141"/>
    </linearGradient>
    <radialGradient id="_未命名的渐变_32" data-name="未命名的渐变 32" cx="59.77" cy="34.32" fx="59.77" fy="34.32" r="59" gradientTransform="translate(0 6.86) scale(1 .8)" gradientUnits="userSpaceOnUse">
      <stop offset="0" stop-color="#7497d0"/>
      <stop offset=".19" stop-color="#617ead"/>
      <stop offset=".62" stop-color="#324156"/>
      <stop offset=".9" stop-color="#11161a"/>
      <stop offset="1" stop-color="#263141"/>
    </radialGradient>
    <linearGradient id="_未命名的渐变_73" data-name="未命名的渐变 73" x1="30.76" y1="76.98" x2="119.76" y2="76.98" gradientUnits="userSpaceOnUse">
      <stop offset="0" stop-color="#0071ed"/>
      <stop offset=".15" stop-color="#0bc9ff"/>
      <stop offset=".25" stop-color="#0bc9ff"/>
      <stop offset=".85" stop-color="#1928d3"/>
      <stop offset="1" stop-color="#0071ed"/>
    </linearGradient>
    <linearGradient id="_未命名的渐变_73-2" data-name="未命名的渐变 73" y1="99.98" y2="99.98" xlink:href="#_未命名的渐变_73"/>
    <linearGradient id="_未命名的渐变_73-3" data-name="未命名的渐变 73" y1="120.98" y2="120.98" xlink:href="#_未命名的渐变_73"/>
  </defs>
  <g id="_图层_1-2" data-name="图层 1">
    <g id="_反应堆厂房" data-name="反应堆厂房">
      <g>
        <g id="_背景" data-name="背景" class="cls-15">
          <rect class="cls-12" width="150" height="150"/>
          <rect id="_网格" data-name="网格" class="cls-8" width="150" height="150"/>
        </g>
        <path class="cls-2" d="m106.94,61.22c-17.32,10.07-45.5,10.06-62.93,0-8.77-5.06-13.15-11.71-13.14-18.35l-.21,81.36c-.02,6.64,4.36,13.29,13.14,18.35,17.44,10.07,45.61,10.07,62.93,0,8.6-5,12.91-11.54,12.93-18.1l.21-81.36c-.02,6.55-4.32,13.1-12.93,18.1Z"/>
        <path class="cls-1" d="m106.72,24.77c-17.43-10.06-45.6-10.07-62.93,0-17.32,10.07-17.22,26.39.21,36.45,17.44,10.07,45.61,10.07,62.93,0s17.22-26.39-.21-36.45Z"/>
        <path class="cls-11" d="m107.72,23.04c-8.73-5.04-20.27-7.82-32.51-7.82s-23.75,2.78-32.43,7.82c-8.99,5.22-13.94,12.29-13.92,19.89.01,7.65,5.03,14.76,14.14,20.02,8.73,5.04,20.28,7.82,32.51,7.82h0c12.23,0,23.74-2.78,32.42-7.82,8.99-5.22,13.93-12.29,13.92-19.89,0-7.65-5.03-14.76-14.14-20.02Z"/>
        <path class="cls-10" d="m106.72,24.77c-17.43-10.06-45.6-10.07-62.93,0-17.32,10.07-17.22,26.39.21,36.45,17.44,10.07,45.61,10.07,62.93,0s17.22-26.39-.21-36.45Z"/>
        <path class="cls-4" d="m119.74,40.4c0-.2-.02-.41-.03-.61-.02-.32-.05-.65-.08-.97,0,.04,0,.09,0,.13-.35-4.48-1.28-7.67-1.81-9.2-1.04-2.95-2.22-5.95-5.14-10.18-.87-1.26-3.29-4.53-7.05-7.73-4.11-3.5-7.98-5.48-9.07-6.01-1.43-.69-3.21-1.54-5.07-2.17-2.46-.83-3.37-1.15-7.01-1.93-1.01-.22-3.42-.57-4.45-.65-2.96-.23-3.61-.28-6.5-.21-3.38.08-7.68.74-11.23,1.72-2.42.67-4.29,1.4-5.48,1.89-1.5.62-3.42,1.61-4.85,2.36.64-.36,1.32-.67,2.02-.93-.71.26-1.38.57-2.02.93-2.68,1.54-3.42,2.1-5.63,3.74-1.12.83-2.47,2.11-3.5,3.05-1.21,1.1-3.82,4.01-5.39,6.41-.52.79-1.23,1.84-1.67,2.68-.84,1.6-1.98,3.74-2.57,5.45-.5,1.45-1.16,3.39-1.49,4.89-.38,1.72-.68,4.03-.87,5.83,0-.1,0-.2.02-.3-.02.22-.04.44-.06.66-.02.31-.04.62-.06.92-.02.45-.03.9-.03,1.35-.02,6.49,4.17,13,12.6,18.04,17.14,10.25,45.33,10.53,62.96.64,8.96-5.03,13.47-11.72,13.49-18.43,0-.45,0-.9-.02-1.35Z"/>
        <path class="cls-3" d="m119.76,64.42v5.97c-2.31,4.37-6.46,8.36-12.28,11.61-8.96,5.04-20.6,7.54-32.2,7.54s-24.33-2.72-33.44-8.21c-5.11-3.02-8.88-6.68-11.08-10.67v-4.96c1.34,5.26,5.52,10.15,12.05,14.03,17.28,10.37,45.9,10.67,63.77.67,7.69-4.33,12.31-9.96,13.17-15.97Z"/>
        <path class="cls-6" d="m119.76,87.42v5.97c-2.31,4.37-6.46,8.36-12.28,11.61-8.96,5.04-20.6,7.54-32.2,7.54s-24.33-2.72-33.44-8.21c-5.11-3.02-8.88-6.68-11.08-10.67v-4.96c1.34,5.26,5.52,10.15,12.05,14.03,17.28,10.37,45.9,10.67,63.77.67,7.69-4.33,12.31-9.96,13.17-15.97Z"/>
        <path class="cls-7" d="m119.76,108.42v5.97c-2.31,4.37-6.46,8.36-12.28,11.61-8.96,5.04-20.6,7.54-32.2,7.54s-24.33-2.72-33.44-8.21c-5.11-3.02-8.88-6.68-11.08-10.67v-4.96c1.34,5.26,5.52,10.15,12.05,14.03,17.28,10.37,45.9,10.67,63.77.67,7.69-4.33,12.31-9.96,13.17-15.97Z"/>
      </g>
     
    </g>
  </g>
</svg>