<?xml version="1.0" encoding="UTF-8"?>
<svg id="_图层_2" data-name="图层 2" xmlns="http://www.w3.org/2000/svg" xmlns:xlink="http://www.w3.org/1999/xlink" viewBox="0 0 150 150.12">
  <defs>
    <style>
      .cls-1 {
        fill: url(#_未命名的渐变_13);
      }

      .cls-1, .cls-2, .cls-3, .cls-4, .cls-5, .cls-6, .cls-7, .cls-8, .cls-9, .cls-10, .cls-11, .cls-12, .cls-13, .cls-14, .cls-15, .cls-16 {
        stroke-width: 0px;
      }

      .cls-2 {
        fill: url(#_未命名的渐变_10);
      }

      .cls-3 {
        fill: url(#_未命名的渐变_19);
      }

      .cls-4 {
        fill: url(#_未命名的渐变_63);
      }

      .cls-5, .cls-17 {
        fill: none;
      }

      .cls-17 {
        stroke: #fff;
      }

      .cls-17, .cls-18, .cls-19, .cls-20, .cls-21, .cls-22, .cls-23, .cls-24, .cls-25, .cls-26, .cls-27, .cls-28, .cls-29, .cls-30, .cls-31, .cls-32, .cls-33, .cls-34, .cls-35, .cls-36, .cls-37, .cls-38, .cls-39, .cls-40, .cls-41, .cls-42, .cls-43, .cls-44 {
        stroke-miterlimit: 10;
        stroke-width: .1px;
      }

      .cls-6 {
        fill: #000714;
        opacity: .2;
      }

      .cls-18 {
        filter: url(#outer-glow-9);
      }

      .cls-18, .cls-19, .cls-20, .cls-21, .cls-22, .cls-23, .cls-24, .cls-25, .cls-26, .cls-27, .cls-28, .cls-29, .cls-30, .cls-31, .cls-32, .cls-33, .cls-34, .cls-35, .cls-36, .cls-37, .cls-38, .cls-39, .cls-40, .cls-41, .cls-42, .cls-43, .cls-44 {
        fill: #7defff;
        stroke: #008bff;
      }

      .cls-19 {
        filter: url(#outer-glow-3);
      }

      .cls-20 {
        filter: url(#outer-glow-5);
      }

      .cls-21 {
        filter: url(#outer-glow-2);
      }

      .cls-22 {
        filter: url(#outer-glow-7);
      }

      .cls-23 {
        filter: url(#outer-glow-4);
      }

      .cls-24 {
        filter: url(#outer-glow-1);
      }

      .cls-25 {
        filter: url(#outer-glow-6);
      }

      .cls-26 {
        filter: url(#outer-glow-8);
      }

      .cls-7 {
        fill: url(#_未命名的渐变_10-2);
      }

      .cls-8 {
        fill: url(#_未命名的渐变_1827);
      }

      .cls-9 {
        fill: url(#_新建图案);
        opacity: .1;
      }

      .cls-45 {
        opacity: .2;
      }

      .cls-46 {
        isolation: isolate;
      }

      .cls-27 {
        filter: url(#outer-glow-19);
      }

      .cls-28 {
        filter: url(#outer-glow-11);
      }

      .cls-29 {
        filter: url(#outer-glow-18);
      }

      .cls-30 {
        filter: url(#outer-glow-16);
      }

      .cls-31 {
        filter: url(#outer-glow-13);
      }

      .cls-32 {
        filter: url(#outer-glow-17);
      }

      .cls-33 {
        filter: url(#outer-glow-12);
      }

      .cls-34 {
        filter: url(#outer-glow-15);
      }

      .cls-35 {
        filter: url(#outer-glow-14);
      }

      .cls-36 {
        filter: url(#outer-glow-10);
      }

      .cls-37 {
        filter: url(#outer-glow-27);
      }

      .cls-38 {
        filter: url(#outer-glow-22);
      }

      .cls-39 {
        filter: url(#outer-glow-21);
      }

      .cls-40 {
        filter: url(#outer-glow-25);
      }

      .cls-41 {
        filter: url(#outer-glow-24);
      }

      .cls-42 {
        filter: url(#outer-glow-23);
      }

      .cls-43 {
        filter: url(#outer-glow-26);
      }

      .cls-44 {
        filter: url(#outer-glow-20);
      }

      .cls-47 {
        opacity: 0;
      }

      .cls-11 {
        fill: #263141;
      }

      .cls-12 {
        fill: #4a5f7b;
      }

      .cls-13 {
        fill: #6f95cf;
      }

      .cls-14 {
        fill: #161d24;
      }

      .cls-15 {
        fill: #81aaea;
      }

      .cls-16 {
        fill: #000715;
      }
    </style>
    <pattern id="_新建图案" data-name="新建图案" x="0" y="0" width="18.57" height="32.16" patternTransform="translate(3754.57 952.64)" patternUnits="userSpaceOnUse" viewBox="0 0 18.57 32.16">
      <g>
        <rect class="cls-5" x="0" y="0" width="18.57" height="32.16"/>
        <g>
          <g>
            <polyline class="cls-17" points="18.57 21.44 18.57 32.16 18.57 42.88"/>
            <polyline class="cls-17" points="9.29 26.8 18.57 32.16 27.85 37.51 27.85 37.52"/>
            <polyline class="cls-17" points="9.29 37.52 9.29 37.51 18.57 32.16 27.85 26.8"/>
          </g>
          <polygon class="cls-17" points="27.85 37.52 27.85 26.8 18.57 21.44 9.28 26.8 9.28 37.52 18.57 42.88 27.85 37.52"/>
        </g>
        <g>
          <g>
            <polyline class="cls-17" points="0 21.44 0 32.16 0 42.88"/>
            <polyline class="cls-17" points="-9.28 26.8 0 32.16 9.28 37.51 9.28 37.52"/>
            <polyline class="cls-17" points="-9.28 37.52 -9.28 37.51 0 32.16 9.28 26.8"/>
          </g>
          <polygon class="cls-17" points="9.28 37.52 9.28 26.8 0 21.44 -9.28 26.8 -9.28 37.52 0 42.88 9.28 37.52"/>
        </g>
        <g>
          <g>
            <polyline class="cls-17" points="18.57 10.72 27.85 16.08 37.13 21.43 37.13 21.44"/>
            <polyline class="cls-17" points="18.57 21.44 18.57 21.43 27.85 16.08 37.13 10.72"/>
          </g>
          <polygon class="cls-17" points="37.14 21.44 37.14 10.72 27.85 5.36 18.57 10.72 18.57 21.44 27.85 26.8 37.14 21.44"/>
        </g>
        <g>
          <g>
            <polyline class="cls-17" points="9.28 5.36 9.28 16.08 9.28 26.8"/>
            <polyline class="cls-17" points="0 10.72 9.28 16.08 18.56 21.43 18.56 21.44"/>
            <polyline class="cls-17" points="0 21.44 0 21.43 9.28 16.08 18.56 10.72"/>
          </g>
          <polygon class="cls-17" points="18.57 21.44 18.57 10.72 9.28 5.36 0 10.72 0 21.44 9.28 26.8 18.57 21.44"/>
        </g>
        <g>
          <g>
            <polyline class="cls-17" points="-18.56 10.72 -9.28 16.08 0 21.43 0 21.44"/>
            <polyline class="cls-17" points="-18.56 21.44 -18.56 21.43 -9.28 16.08 0 10.72"/>
          </g>
          <polygon class="cls-17" points="0 21.44 0 10.72 -9.28 5.36 -18.57 10.72 -18.57 21.44 -9.28 26.8 0 21.44"/>
        </g>
        <g>
          <g>
            <polyline class="cls-17" points="18.57 -10.72 18.57 0 18.57 10.72"/>
            <polyline class="cls-17" points="9.29 -5.36 18.57 0 27.85 5.35 27.85 5.36"/>
            <polyline class="cls-17" points="9.29 5.36 9.29 5.35 18.57 0 27.85 -5.36"/>
          </g>
          <polygon class="cls-17" points="27.85 5.36 27.85 -5.36 18.57 -10.72 9.28 -5.36 9.28 5.36 18.57 10.72 27.85 5.36"/>
        </g>
        <g>
          <g>
            <polyline class="cls-17" points="0 -10.72 0 0 0 10.72"/>
            <polyline class="cls-17" points="-9.28 -5.36 0 0 9.28 5.35 9.28 5.36"/>
            <polyline class="cls-17" points="-9.28 5.36 -9.28 5.35 0 0 9.28 -5.36"/>
          </g>
          <polygon class="cls-17" points="9.28 5.36 9.28 -5.36 0 -10.72 -9.28 -5.36 -9.28 5.36 0 10.72 9.28 5.36"/>
        </g>
      </g>
    </pattern>
    <linearGradient id="_未命名的渐变_1827" data-name="未命名的渐变 1827" x1="35.14" y1="117.07" x2="68.52" y2="59.26" gradientUnits="userSpaceOnUse">
      <stop offset="0" stop-color="#3e5268"/>
      <stop offset="1" stop-color="#556b8e"/>
    </linearGradient>
    <linearGradient id="_未命名的渐变_10" data-name="未命名的渐变 10" x1="92.1" y1="147.65" x2="146.41" y2="53.58" gradientUnits="userSpaceOnUse">
      <stop offset="0" stop-color="#263141"/>
      <stop offset="1" stop-color="#11161a"/>
    </linearGradient>
    <linearGradient id="_未命名的渐变_13" data-name="未命名的渐变 13" x1="11.99" y1="38.79" x2="138.2" y2="38.79" gradientUnits="userSpaceOnUse">
      <stop offset="0" stop-color="#81aaea"/>
      <stop offset="1" stop-color="#4d709c"/>
    </linearGradient>
    <linearGradient id="_未命名的渐变_10-2" data-name="未命名的渐变 10" x1="21.88" y1="35.28" x2="44.11" y2="-3.21" xlink:href="#_未命名的渐变_10"/>
    <linearGradient id="_未命名的渐变_63" data-name="未命名的渐变 63" x1="44.13" y1="112.43" x2="49.59" y2="112.43" gradientUnits="userSpaceOnUse">
      <stop offset="0" stop-color="#293541"/>
      <stop offset="1" stop-color="#303f4e"/>
    </linearGradient>
    <linearGradient id="_未命名的渐变_19" data-name="未命名的渐变 19" x1="44.01" y1="118.94" x2="49.71" y2="109.07" gradientUnits="userSpaceOnUse">
      <stop offset="0" stop-color="#00fdff" stop-opacity=".8"/>
      <stop offset=".03" stop-color="#00f2ff" stop-opacity=".73"/>
      <stop offset=".11" stop-color="#00daff" stop-opacity=".56"/>
      <stop offset=".19" stop-color="#00c4ff" stop-opacity=".41"/>
      <stop offset=".29" stop-color="#00b1ff" stop-opacity=".28"/>
      <stop offset=".38" stop-color="#00a2ff" stop-opacity=".18"/>
      <stop offset=".49" stop-color="#0097ff" stop-opacity=".1"/>
      <stop offset=".61" stop-color="#008fff" stop-opacity=".04"/>
      <stop offset=".76" stop-color="#008aff" stop-opacity="0"/>
      <stop offset="1" stop-color="#0089ff" stop-opacity="0"/>
    </linearGradient>
    <filter id="outer-glow-1" filterUnits="userSpaceOnUse">
      <feOffset dx="0" dy="0"/>
      <feGaussianBlur result="blur" stdDeviation="2"/>
      <feFlood flood-color="#008bff" flood-opacity="1"/>
      <feComposite in2="blur" operator="in"/>
      <feComposite in="SourceGraphic"/>
    </filter>
    <filter id="outer-glow-2" filterUnits="userSpaceOnUse">
      <feOffset dx="0" dy="0"/>
      <feGaussianBlur result="blur-2" stdDeviation="2"/>
      <feFlood flood-color="#008bff" flood-opacity="1"/>
      <feComposite in2="blur-2" operator="in"/>
      <feComposite in="SourceGraphic"/>
    </filter>
    <filter id="outer-glow-3" filterUnits="userSpaceOnUse">
      <feOffset dx="0" dy="0"/>
      <feGaussianBlur result="blur-3" stdDeviation="2"/>
      <feFlood flood-color="#008bff" flood-opacity="1"/>
      <feComposite in2="blur-3" operator="in"/>
      <feComposite in="SourceGraphic"/>
    </filter>
    <filter id="outer-glow-4" filterUnits="userSpaceOnUse">
      <feOffset dx="0" dy="0"/>
      <feGaussianBlur result="blur-4" stdDeviation="2"/>
      <feFlood flood-color="#008bff" flood-opacity="1"/>
      <feComposite in2="blur-4" operator="in"/>
      <feComposite in="SourceGraphic"/>
    </filter>
    <filter id="outer-glow-5" filterUnits="userSpaceOnUse">
      <feOffset dx="0" dy="0"/>
      <feGaussianBlur result="blur-5" stdDeviation="2"/>
      <feFlood flood-color="#008bff" flood-opacity="1"/>
      <feComposite in2="blur-5" operator="in"/>
      <feComposite in="SourceGraphic"/>
    </filter>
    <filter id="outer-glow-6" filterUnits="userSpaceOnUse">
      <feOffset dx="0" dy="0"/>
      <feGaussianBlur result="blur-6" stdDeviation="2"/>
      <feFlood flood-color="#008bff" flood-opacity="1"/>
      <feComposite in2="blur-6" operator="in"/>
      <feComposite in="SourceGraphic"/>
    </filter>
    <filter id="outer-glow-7" filterUnits="userSpaceOnUse">
      <feOffset dx="0" dy="0"/>
      <feGaussianBlur result="blur-7" stdDeviation="2"/>
      <feFlood flood-color="#008bff" flood-opacity="1"/>
      <feComposite in2="blur-7" operator="in"/>
      <feComposite in="SourceGraphic"/>
    </filter>
    <filter id="outer-glow-8" filterUnits="userSpaceOnUse">
      <feOffset dx="0" dy="0"/>
      <feGaussianBlur result="blur-8" stdDeviation="2"/>
      <feFlood flood-color="#008bff" flood-opacity="1"/>
      <feComposite in2="blur-8" operator="in"/>
      <feComposite in="SourceGraphic"/>
    </filter>
    <filter id="outer-glow-9" filterUnits="userSpaceOnUse">
      <feOffset dx="0" dy="0"/>
      <feGaussianBlur result="blur-9" stdDeviation="2"/>
      <feFlood flood-color="#008bff" flood-opacity="1"/>
      <feComposite in2="blur-9" operator="in"/>
      <feComposite in="SourceGraphic"/>
    </filter>
    <filter id="outer-glow-10" filterUnits="userSpaceOnUse">
      <feOffset dx="0" dy="0"/>
      <feGaussianBlur result="blur-10" stdDeviation="2"/>
      <feFlood flood-color="#008bff" flood-opacity="1"/>
      <feComposite in2="blur-10" operator="in"/>
      <feComposite in="SourceGraphic"/>
    </filter>
    <filter id="outer-glow-11" filterUnits="userSpaceOnUse">
      <feOffset dx="0" dy="0"/>
      <feGaussianBlur result="blur-11" stdDeviation="2"/>
      <feFlood flood-color="#008bff" flood-opacity="1"/>
      <feComposite in2="blur-11" operator="in"/>
      <feComposite in="SourceGraphic"/>
    </filter>
    <filter id="outer-glow-12" filterUnits="userSpaceOnUse">
      <feOffset dx="0" dy="0"/>
      <feGaussianBlur result="blur-12" stdDeviation="2"/>
      <feFlood flood-color="#008bff" flood-opacity="1"/>
      <feComposite in2="blur-12" operator="in"/>
      <feComposite in="SourceGraphic"/>
    </filter>
    <filter id="outer-glow-13" filterUnits="userSpaceOnUse">
      <feOffset dx="0" dy="0"/>
      <feGaussianBlur result="blur-13" stdDeviation="2"/>
      <feFlood flood-color="#008bff" flood-opacity="1"/>
      <feComposite in2="blur-13" operator="in"/>
      <feComposite in="SourceGraphic"/>
    </filter>
    <filter id="outer-glow-14" filterUnits="userSpaceOnUse">
      <feOffset dx="0" dy="0"/>
      <feGaussianBlur result="blur-14" stdDeviation="2"/>
      <feFlood flood-color="#008bff" flood-opacity="1"/>
      <feComposite in2="blur-14" operator="in"/>
      <feComposite in="SourceGraphic"/>
    </filter>
    <filter id="outer-glow-15" filterUnits="userSpaceOnUse">
      <feOffset dx="0" dy="0"/>
      <feGaussianBlur result="blur-15" stdDeviation="2"/>
      <feFlood flood-color="#008bff" flood-opacity="1"/>
      <feComposite in2="blur-15" operator="in"/>
      <feComposite in="SourceGraphic"/>
    </filter>
    <filter id="outer-glow-16" filterUnits="userSpaceOnUse">
      <feOffset dx="0" dy="0"/>
      <feGaussianBlur result="blur-16" stdDeviation="2"/>
      <feFlood flood-color="#008bff" flood-opacity="1"/>
      <feComposite in2="blur-16" operator="in"/>
      <feComposite in="SourceGraphic"/>
    </filter>
    <filter id="outer-glow-17" filterUnits="userSpaceOnUse">
      <feOffset dx="0" dy="0"/>
      <feGaussianBlur result="blur-17" stdDeviation="2"/>
      <feFlood flood-color="#008bff" flood-opacity="1"/>
      <feComposite in2="blur-17" operator="in"/>
      <feComposite in="SourceGraphic"/>
    </filter>
    <filter id="outer-glow-18" filterUnits="userSpaceOnUse">
      <feOffset dx="0" dy="0"/>
      <feGaussianBlur result="blur-18" stdDeviation="2"/>
      <feFlood flood-color="#008bff" flood-opacity="1"/>
      <feComposite in2="blur-18" operator="in"/>
      <feComposite in="SourceGraphic"/>
    </filter>
    <filter id="outer-glow-19" filterUnits="userSpaceOnUse">
      <feOffset dx="0" dy="0"/>
      <feGaussianBlur result="blur-19" stdDeviation="2"/>
      <feFlood flood-color="#008bff" flood-opacity="1"/>
      <feComposite in2="blur-19" operator="in"/>
      <feComposite in="SourceGraphic"/>
    </filter>
    <filter id="outer-glow-20" filterUnits="userSpaceOnUse">
      <feOffset dx="0" dy="0"/>
      <feGaussianBlur result="blur-20" stdDeviation="2"/>
      <feFlood flood-color="#008bff" flood-opacity="1"/>
      <feComposite in2="blur-20" operator="in"/>
      <feComposite in="SourceGraphic"/>
    </filter>
    <filter id="outer-glow-21" filterUnits="userSpaceOnUse">
      <feOffset dx="0" dy="0"/>
      <feGaussianBlur result="blur-21" stdDeviation="2"/>
      <feFlood flood-color="#008bff" flood-opacity="1"/>
      <feComposite in2="blur-21" operator="in"/>
      <feComposite in="SourceGraphic"/>
    </filter>
    <filter id="outer-glow-22" filterUnits="userSpaceOnUse">
      <feOffset dx="0" dy="0"/>
      <feGaussianBlur result="blur-22" stdDeviation="2"/>
      <feFlood flood-color="#008bff" flood-opacity="1"/>
      <feComposite in2="blur-22" operator="in"/>
      <feComposite in="SourceGraphic"/>
    </filter>
    <filter id="outer-glow-23" filterUnits="userSpaceOnUse">
      <feOffset dx="0" dy="0"/>
      <feGaussianBlur result="blur-23" stdDeviation="2"/>
      <feFlood flood-color="#008bff" flood-opacity="1"/>
      <feComposite in2="blur-23" operator="in"/>
      <feComposite in="SourceGraphic"/>
    </filter>
    <filter id="outer-glow-24" filterUnits="userSpaceOnUse">
      <feOffset dx="0" dy="0"/>
      <feGaussianBlur result="blur-24" stdDeviation="2"/>
      <feFlood flood-color="#008bff" flood-opacity="1"/>
      <feComposite in2="blur-24" operator="in"/>
      <feComposite in="SourceGraphic"/>
    </filter>
    <filter id="outer-glow-25" filterUnits="userSpaceOnUse">
      <feOffset dx="0" dy="0"/>
      <feGaussianBlur result="blur-25" stdDeviation="2"/>
      <feFlood flood-color="#008bff" flood-opacity="1"/>
      <feComposite in2="blur-25" operator="in"/>
      <feComposite in="SourceGraphic"/>
    </filter>
    <filter id="outer-glow-26" filterUnits="userSpaceOnUse">
      <feOffset dx="0" dy="0"/>
      <feGaussianBlur result="blur-26" stdDeviation="2"/>
      <feFlood flood-color="#008bff" flood-opacity="1"/>
      <feComposite in2="blur-26" operator="in"/>
      <feComposite in="SourceGraphic"/>
    </filter>
    <filter id="outer-glow-27" filterUnits="userSpaceOnUse">
      <feOffset dx="0" dy="0"/>
      <feGaussianBlur result="blur-27" stdDeviation="2"/>
      <feFlood flood-color="#008bff" flood-opacity="1"/>
      <feComposite in2="blur-27" operator="in"/>
      <feComposite in="SourceGraphic"/>
    </filter>
  </defs>
  <g id="_图层_1-2" data-name="图层 1">
    <g id="_变电站" data-name="变电站">
      <g id="_背景" data-name="背景" class="cls-47">
        <rect class="cls-16" y=".06" width="150" height="150"/>
        <rect id="_网格" data-name="网格" class="cls-9" y=".06" width="150" height="150"/>
      </g>
      <g>
        <g class="cls-46">
          <polygon class="cls-8" points="7.78 26.33 7.57 101.15 95.88 150 96.1 75.18 7.78 26.33"/>
          <polygon class="cls-2" points="96.59 75.3 142.13 51.11 141.92 125.93 96.38 150.12 96.59 75.3"/>
          <polygon class="cls-1" points="11.99 26.46 53.6 2.27 138.2 51.12 96.59 75.3 11.99 26.46"/>
          <polygon class="cls-7" points="12.2 26.58 53.82 2.39 53.79 5.49 12.18 29.67 12.2 26.58"/>
          <polygon class="cls-12" points="54.03 2.39 53.79 5.49 138.39 54.33 138.63 51.24 54.03 2.39"/>
          <polygon class="cls-6" points="7.78 26.33 7.61 34.28 96.27 85.46 96.48 77.72 7.78 26.33"/>
          <path class="cls-15" d="m53.6,0L8.06,26.46l88.53,51.11,45.54-26.46L53.6,0Zm42.99,75.3L11.99,26.46,53.6,2.27l84.6,48.84-41.61,24.18Z"/>
          <polygon class="cls-11" points="96.48 77.72 142.13 51.11 142.34 61.85 96.8 86.04 96.48 77.72"/>
          <g>
            <g>
              <polygon class="cls-13" points="44.15 105.86 44.13 119.01 49.57 122.15 49.59 109 44.15 105.86"/>
              <polygon class="cls-4" points="49.59 109 44.5 118.79 44.13 119 44.15 105.86 44.5 106.07 49.59 109"/>
              <polygon class="cls-3" points="44.15 105.86 44.13 119.01 49.57 122.15 49.59 109 44.15 105.86"/>
              <polygon class="cls-14" points="44.5 106.07 44.5 118.79 44.13 119 44.15 105.86 44.5 106.07"/>
            </g>
            <g class="cls-46">
              <polygon class="cls-12" points="50.05 108.82 50.05 109.19 43.67 105.51 43.68 105.14 50.05 108.82"/>
              <polygon class="cls-14" points="50.05 108.82 50.68 108.45 50.68 108.82 50.05 109.19 50.05 108.82"/>
              <polygon class="cls-13" points="43.68 105.14 44.31 104.77 50.68 108.45 50.05 108.82 43.68 105.14"/>
            </g>
            <g class="cls-46">
              <polygon class="cls-12" points="42.15 119.06 42.15 119.43 49.79 123.84 49.79 123.48 42.15 119.06"/>
              <polygon class="cls-14" points="49.79 123.48 49.79 123.84 51.06 123.11 51.06 122.74 49.79 123.48"/>
              <polygon class="cls-13" points="43.41 118.32 42.15 119.06 49.79 123.48 51.06 122.74 43.41 118.32"/>
            </g>
          </g>
        </g>
        <g>
          <g>
            <g class="cls-46">
              <polygon class="cls-10" points="12.55 44.99 12.55 48.2 8.59 45.91 8.59 42.71 12.55 44.99"/>
              <polygon class="cls-13" points="12.55 48.2 12.55 48.81 8.06 46.22 8.59 45.91 12.55 48.2"/>
              <polygon class="cls-14" points="8.59 42.71 8.59 45.91 8.06 46.22 8.07 42.4 8.59 42.71"/>
              <polygon class="cls-24" points="8.59 42.71 8.59 45.91 12.55 48.2 12.55 44.99 8.59 42.71"/>
            </g>
            <g class="cls-46">
              <polygon class="cls-10" points="17.42 47.86 17.41 51.07 13.45 48.78 13.46 45.58 17.42 47.86"/>
              <polygon class="cls-13" points="17.41 51.07 17.41 51.68 12.92 49.09 13.45 48.78 17.41 51.07"/>
              <polygon class="cls-14" points="13.46 45.58 13.45 48.78 12.92 49.09 12.93 45.27 13.46 45.58"/>
              <polygon class="cls-21" points="13.46 45.58 13.45 48.78 17.41 51.07 17.42 47.86 13.46 45.58"/>
            </g>
            <g class="cls-46">
              <polygon class="cls-10" points="22.28 50.65 22.28 53.86 18.32 51.57 18.32 48.37 22.28 50.65"/>
              <polygon class="cls-13" points="22.28 53.86 22.28 54.47 17.79 51.88 18.32 51.57 22.28 53.86"/>
              <polygon class="cls-14" points="18.32 48.37 18.32 51.57 17.79 51.88 17.8 48.06 18.32 48.37"/>
              <polygon class="cls-19" points="18.32 48.37 18.32 51.57 22.28 53.86 22.28 50.65 18.32 48.37"/>
            </g>
            <g class="cls-46">
              <polygon class="cls-10" points="27.15 53.52 27.14 56.73 23.18 54.44 23.19 51.24 27.15 53.52"/>
              <polygon class="cls-13" points="27.14 56.73 27.14 57.34 22.65 54.75 23.18 54.44 27.14 56.73"/>
              <polygon class="cls-14" points="23.19 51.24 23.18 54.44 22.65 54.75 22.66 50.93 23.19 51.24"/>
              <polygon class="cls-23" points="23.19 51.24 23.18 54.44 27.14 56.73 27.15 53.52 23.19 51.24"/>
            </g>
          </g>
          <g>
            <g class="cls-46">
              <polygon class="cls-10" points="32.01 56.2 32.01 59.4 28.05 57.12 28.05 53.92 32.01 56.2"/>
              <polygon class="cls-13" points="32.01 59.4 32.01 60.02 27.52 57.43 28.05 57.12 32.01 59.4"/>
              <polygon class="cls-14" points="28.05 53.92 28.05 57.12 27.52 57.43 27.53 53.61 28.05 53.92"/>
              <polygon class="cls-20" points="28.05 53.92 28.05 57.12 32.01 59.4 32.01 56.2 28.05 53.92"/>
            </g>
            <g class="cls-46">
              <polygon class="cls-10" points="36.87 59.07 36.87 62.27 32.91 59.99 32.92 56.79 36.87 59.07"/>
              <polygon class="cls-13" points="36.87 62.27 36.87 62.89 32.38 60.3 32.91 59.99 36.87 62.27"/>
              <polygon class="cls-14" points="32.92 56.79 32.91 59.99 32.38 60.3 32.39 56.48 32.92 56.79"/>
              <polygon class="cls-25" points="32.92 56.79 32.91 59.99 36.87 62.27 36.87 59.07 32.92 56.79"/>
            </g>
            <g class="cls-46">
              <polygon class="cls-10" points="41.74 61.86 41.74 65.06 37.78 62.78 37.78 59.58 41.74 61.86"/>
              <polygon class="cls-13" points="41.74 65.06 41.74 65.68 37.25 63.09 37.78 62.78 41.74 65.06"/>
              <polygon class="cls-14" points="37.78 59.58 37.78 62.78 37.25 63.09 37.25 59.27 37.78 59.58"/>
              <polygon class="cls-22" points="37.78 59.58 37.78 62.78 41.74 65.06 41.74 61.86 37.78 59.58"/>
            </g>
            <g class="cls-46">
              <polygon class="cls-10" points="46.6 64.73 46.6 67.93 42.64 65.65 42.65 62.45 46.6 64.73"/>
              <polygon class="cls-13" points="46.6 67.93 46.6 68.55 42.11 65.96 42.64 65.65 46.6 67.93"/>
              <polygon class="cls-14" points="42.65 62.45 42.64 65.65 42.11 65.96 42.12 62.14 42.65 62.45"/>
              <polygon class="cls-26" points="42.65 62.45 42.64 65.65 46.6 67.93 46.6 64.73 42.65 62.45"/>
            </g>
          </g>
          <g>
            <g class="cls-46">
              <polygon class="cls-10" points="51.55 67.7 51.55 70.9 47.59 68.61 47.59 65.41 51.55 67.7"/>
              <polygon class="cls-13" points="51.55 70.9 51.55 71.51 47.06 68.92 47.59 68.61 51.55 70.9"/>
              <polygon class="cls-14" points="47.59 65.41 47.59 68.61 47.06 68.92 47.06 65.11 47.59 65.41"/>
              <polygon class="cls-18" points="47.59 65.41 47.59 68.61 51.55 70.9 51.55 67.7 47.59 65.41"/>
            </g>
            <g class="cls-46">
              <polygon class="cls-10" points="56.41 70.57 56.41 73.77 52.45 71.48 52.46 68.28 56.41 70.57"/>
              <polygon class="cls-13" points="56.41 73.77 56.41 74.38 51.92 71.79 52.45 71.48 56.41 73.77"/>
              <polygon class="cls-14" points="52.46 68.28 52.45 71.48 51.92 71.79 51.93 67.98 52.46 68.28"/>
              <polygon class="cls-36" points="52.46 68.28 52.45 71.48 56.41 73.77 56.41 70.57 52.46 68.28"/>
            </g>
            <g class="cls-46">
              <polygon class="cls-10" points="61.28 73.36 61.28 76.56 57.32 74.27 57.32 71.07 61.28 73.36"/>
              <polygon class="cls-13" points="61.28 76.56 61.28 77.17 56.79 74.58 57.32 74.27 61.28 76.56"/>
              <polygon class="cls-14" points="57.32 71.07 57.32 74.27 56.79 74.58 56.79 70.77 57.32 71.07"/>
              <polygon class="cls-28" points="57.32 71.07 57.32 74.27 61.28 76.56 61.28 73.36 57.32 71.07"/>
            </g>
            <g class="cls-46">
              <polygon class="cls-10" points="66.14 76.23 66.14 79.43 62.18 77.14 62.19 73.94 66.14 76.23"/>
              <polygon class="cls-13" points="66.14 79.43 66.14 80.04 61.65 77.45 62.18 77.14 66.14 79.43"/>
              <polygon class="cls-14" points="62.19 73.94 62.18 77.14 61.65 77.45 61.66 73.64 62.19 73.94"/>
              <polygon class="cls-33" points="62.19 73.94 62.18 77.14 66.14 79.43 66.14 76.23 62.19 73.94"/>
            </g>
          </g>
          <g>
            <g class="cls-46">
              <polygon class="cls-10" points="71.01 78.9 71 82.11 67.05 79.82 67.05 76.62 71.01 78.9"/>
              <polygon class="cls-13" points="71 82.11 71 82.72 66.52 80.13 67.05 79.82 71 82.11"/>
              <polygon class="cls-14" points="67.05 76.62 67.05 79.82 66.52 80.13 66.52 76.31 67.05 76.62"/>
              <polygon class="cls-31" points="67.05 76.62 67.05 79.82 71 82.11 71.01 78.9 67.05 76.62"/>
            </g>
            <g class="cls-46">
              <polygon class="cls-10" points="75.87 81.77 75.87 84.98 71.91 82.69 71.92 79.49 75.87 81.77"/>
              <polygon class="cls-13" points="75.87 84.98 75.87 85.59 71.38 83 71.91 82.69 75.87 84.98"/>
              <polygon class="cls-14" points="71.92 79.49 71.91 82.69 71.38 83 71.39 79.19 71.92 79.49"/>
              <polygon class="cls-35" points="71.92 79.49 71.91 82.69 75.87 84.98 75.87 81.77 71.92 79.49"/>
            </g>
            <g class="cls-46">
              <polygon class="cls-10" points="80.74 84.56 80.73 87.77 76.78 85.48 76.78 82.28 80.74 84.56"/>
              <polygon class="cls-13" points="80.73 87.77 80.73 88.38 76.25 85.79 76.78 85.48 80.73 87.77"/>
              <polygon class="cls-14" points="76.78 82.28 76.78 85.48 76.25 85.79 76.25 81.98 76.78 82.28"/>
              <polygon class="cls-34" points="76.78 82.28 76.78 85.48 80.73 87.77 80.74 84.56 76.78 82.28"/>
            </g>
            <g class="cls-46">
              <polygon class="cls-10" points="85.6 87.43 85.6 90.64 81.64 88.35 81.64 85.15 85.6 87.43"/>
              <polygon class="cls-13" points="85.6 90.64 85.6 91.25 81.11 88.66 81.64 88.35 85.6 90.64"/>
              <polygon class="cls-14" points="81.64 85.15 81.64 88.35 81.11 88.66 81.12 84.85 81.64 85.15"/>
              <polygon class="cls-30" points="81.64 85.15 81.64 88.35 85.6 90.64 85.6 87.43 81.64 85.15"/>
            </g>
          </g>
          <g>
            <g class="cls-46">
              <polygon class="cls-10" points="90.49 90.17 90.49 93.38 86.53 91.09 86.53 87.89 90.49 90.17"/>
              <polygon class="cls-13" points="90.49 93.38 90.49 93.99 86 91.4 86.53 91.09 90.49 93.38"/>
              <polygon class="cls-14" points="86.53 87.89 86.53 91.09 86 91.4 86.01 87.58 86.53 87.89"/>
              <polygon class="cls-32" points="86.53 87.89 86.53 91.09 90.49 93.38 90.49 90.17 86.53 87.89"/>
            </g>
            <g class="cls-46">
              <polygon class="cls-10" points="95.36 93.04 95.35 96.25 91.4 93.96 91.4 90.76 95.36 93.04"/>
              <polygon class="cls-13" points="95.35 96.25 95.35 96.86 90.87 94.27 91.4 93.96 95.35 96.25"/>
              <polygon class="cls-14" points="91.4 90.76 91.4 93.96 90.87 94.27 90.87 90.45 91.4 90.76"/>
              <polygon class="cls-29" points="91.4 90.76 91.4 93.96 95.35 96.25 95.36 93.04 91.4 90.76"/>
            </g>
          </g>
        </g>
        <g>
          <g>
            <g class="cls-46">
              <polygon class="cls-10" points="137.42 71 137.43 74.2 141.38 71.91 141.38 68.71 137.42 71"/>
              <polygon class="cls-13" points="137.43 74.2 137.43 74.81 141.91 72.22 141.38 71.91 137.43 74.2"/>
              <polygon class="cls-14" points="141.38 68.71 141.38 71.91 141.91 72.22 141.91 68.41 141.38 68.71"/>
              <polygon class="cls-27" points="141.38 68.71 141.38 71.91 137.43 74.2 137.42 71 141.38 68.71"/>
            </g>
            <g class="cls-46">
              <polygon class="cls-10" points="132.56 73.79 132.56 76.99 136.52 74.7 136.52 71.5 132.56 73.79"/>
              <polygon class="cls-13" points="132.56 76.99 132.56 77.6 137.05 75.01 136.52 74.7 132.56 76.99"/>
              <polygon class="cls-14" points="136.52 71.5 136.52 74.7 137.05 75.01 137.04 71.2 136.52 71.5"/>
              <polygon class="cls-44" points="136.52 71.5 136.52 74.7 132.56 76.99 132.56 73.79 136.52 71.5"/>
            </g>
            <g class="cls-46">
              <polygon class="cls-10" points="127.69 76.66 127.7 79.86 131.65 77.57 131.65 74.37 127.69 76.66"/>
              <polygon class="cls-13" points="127.7 79.86 127.7 80.47 132.18 77.88 131.65 77.57 127.7 79.86"/>
              <polygon class="cls-14" points="131.65 74.37 131.65 77.57 132.18 77.88 132.18 74.07 131.65 74.37"/>
              <polygon class="cls-39" points="131.65 74.37 131.65 77.57 127.7 79.86 127.69 76.66 131.65 74.37"/>
            </g>
          </g>
          <g>
            <g class="cls-46">
              <polygon class="cls-10" points="122.83 79.33 122.83 82.54 126.79 80.25 126.79 77.05 122.83 79.33"/>
              <polygon class="cls-13" points="122.83 82.54 122.83 83.15 127.32 80.56 126.79 80.25 122.83 82.54"/>
              <polygon class="cls-14" points="126.79 77.05 126.79 80.25 127.32 80.56 127.31 76.74 126.79 77.05"/>
              <polygon class="cls-38" points="126.79 77.05 126.79 80.25 122.83 82.54 122.83 79.33 126.79 77.05"/>
            </g>
            <g class="cls-46">
              <polygon class="cls-10" points="117.96 82.2 117.97 85.41 121.92 83.12 121.92 79.92 117.96 82.2"/>
              <polygon class="cls-13" points="117.97 85.41 117.97 86.02 122.46 83.43 121.92 83.12 117.97 85.41"/>
              <polygon class="cls-14" points="121.92 79.92 121.92 83.12 122.46 83.43 122.45 79.62 121.92 79.92"/>
              <polygon class="cls-42" points="121.92 79.92 121.92 83.12 117.97 85.41 117.96 82.2 121.92 79.92"/>
            </g>
            <g class="cls-46">
              <polygon class="cls-10" points="113.1 84.99 113.1 88.2 117.06 85.91 117.06 82.71 113.1 84.99"/>
              <polygon class="cls-13" points="113.1 88.2 113.1 88.81 117.59 86.22 117.06 85.91 113.1 88.2"/>
              <polygon class="cls-14" points="117.06 82.71 117.06 85.91 117.59 86.22 117.58 82.4 117.06 82.71"/>
              <polygon class="cls-41" points="117.06 82.71 117.06 85.91 113.1 88.2 113.1 84.99 117.06 82.71"/>
            </g>
            <g class="cls-46">
              <polygon class="cls-10" points="108.23 87.86 108.24 91.07 112.2 88.78 112.19 85.58 108.23 87.86"/>
              <polygon class="cls-13" points="108.24 91.07 108.24 91.68 112.73 89.09 112.2 88.78 108.24 91.07"/>
              <polygon class="cls-14" points="112.19 85.58 112.2 88.78 112.73 89.09 112.72 85.28 112.19 85.58"/>
              <polygon class="cls-40" points="112.19 85.58 112.2 88.78 108.24 91.07 108.23 87.86 112.19 85.58"/>
            </g>
          </g>
          <g>
            <g class="cls-46">
              <polygon class="cls-10" points="103.34 90.6 103.35 93.81 107.31 91.52 107.3 88.32 103.34 90.6"/>
              <polygon class="cls-13" points="103.35 93.81 103.35 94.42 107.84 91.83 107.31 91.52 103.35 93.81"/>
              <polygon class="cls-14" points="107.3 88.32 107.31 91.52 107.84 91.83 107.83 88.01 107.3 88.32"/>
              <polygon class="cls-43" points="107.3 88.32 107.31 91.52 103.35 93.81 103.34 90.6 107.3 88.32"/>
            </g>
            <g class="cls-46">
              <polygon class="cls-10" points="98.48 93.47 98.48 96.68 102.44 94.39 102.44 91.19 98.48 93.47"/>
              <polygon class="cls-13" points="98.48 96.68 98.48 97.29 102.97 94.7 102.44 94.39 98.48 96.68"/>
              <polygon class="cls-14" points="102.44 91.19 102.44 94.39 102.97 94.7 102.96 90.88 102.44 91.19"/>
              <polygon class="cls-37" points="102.44 91.19 102.44 94.39 98.48 96.68 98.48 93.47 102.44 91.19"/>
            </g>
          </g>
        </g>
      </g>
     
    </g>
  </g>
</svg>