<?xml version="1.0" encoding="UTF-8"?>
<svg id="_图层_2" data-name="图层 2" xmlns="http://www.w3.org/2000/svg" xmlns:xlink="http://www.w3.org/1999/xlink" viewBox="0 0 149.66 149.92">
  <defs>
    <style>
      .cls-1 {
        fill: url(#_未命名的渐变_88);
      }

      .cls-1, .cls-2, .cls-3, .cls-4, .cls-5, .cls-6, .cls-7, .cls-8, .cls-9, .cls-10, .cls-11, .cls-12, .cls-13, .cls-14, .cls-15, .cls-16, .cls-17, .cls-18, .cls-19, .cls-20, .cls-21, .cls-22, .cls-23, .cls-24, .cls-25, .cls-26, .cls-27, .cls-28, .cls-29, .cls-30, .cls-31, .cls-32, .cls-33, .cls-34, .cls-35, .cls-36, .cls-37, .cls-38, .cls-39, .cls-40, .cls-41, .cls-42, .cls-43, .cls-44, .cls-45, .cls-46, .cls-47, .cls-48, .cls-49, .cls-50, .cls-51, .cls-52, .cls-53, .cls-54, .cls-55, .cls-56, .cls-57, .cls-58, .cls-59, .cls-60, .cls-61, .cls-62, .cls-63, .cls-64, .cls-65, .cls-66, .cls-67, .cls-68, .cls-69, .cls-70, .cls-71, .cls-72, .cls-73, .cls-74, .cls-75, .cls-76, .cls-77, .cls-78, .cls-79, .cls-80, .cls-81, .cls-82, .cls-83, .cls-84, .cls-85, .cls-86, .cls-87, .cls-88, .cls-89, .cls-90, .cls-91, .cls-92, .cls-93, .cls-94, .cls-95, .cls-96, .cls-97, .cls-98, .cls-99, .cls-100 {
        stroke-width: 0px;
      }

      .cls-2 {
        fill: url(#_未命名的渐变_47);
      }

      .cls-101 {
        clip-path: url(#clippath);
      }

      .cls-3 {
        fill: none;
      }

      .cls-4 {
        fill: url(#_未命名的渐变_47-2);
      }

      .cls-5 {
        fill: url(#_未命名的渐变_47-4);
      }

      .cls-6 {
        fill: url(#_未命名的渐变_47-3);
      }

      .cls-7 {
        fill: url(#_未命名的渐变_47-5);
      }

      .cls-8 {
        fill: url(#_未命名的渐变_47-6);
      }

      .cls-9 {
        fill: url(#_未命名的渐变_47-7);
      }

      .cls-10 {
        fill: url(#_未命名的渐变_47-8);
      }

      .cls-11 {
        fill: url(#_未命名的渐变_47-9);
      }

      .cls-12 {
        fill: url(#_未命名的渐变_88-9);
      }

      .cls-13 {
        fill: url(#_未命名的渐变_88-8);
      }

      .cls-14 {
        fill: url(#_未命名的渐变_88-4);
      }

      .cls-15 {
        fill: url(#_未命名的渐变_88-5);
      }

      .cls-16 {
        fill: url(#_未命名的渐变_88-6);
      }

      .cls-17 {
        fill: url(#_未命名的渐变_88-7);
      }

      .cls-18 {
        fill: url(#_未命名的渐变_88-3);
      }

      .cls-19 {
        fill: url(#_未命名的渐变_88-2);
      }

      .cls-20 {
        fill: url(#_未命名的渐变_88-10);
      }

      .cls-21 {
        fill: url(#_未命名的渐变_200-2);
      }

      .cls-22 {
        fill: url(#_未命名的渐变_200-3);
      }

      .cls-23 {
        fill: url(#_未命名的渐变_200-6);
      }

      .cls-24 {
        fill: url(#_未命名的渐变_200-5);
      }

      .cls-25 {
        fill: url(#_未命名的渐变_200-8);
      }

      .cls-26 {
        fill: url(#_未命名的渐变_200-7);
      }

      .cls-27 {
        fill: url(#_未命名的渐变_200-4);
      }

      .cls-28 {
        fill: url(#_未命名的渐变_202-2);
      }

      .cls-29 {
        fill: url(#_未命名的渐变_47-11);
      }

      .cls-30 {
        fill: url(#_未命名的渐变_47-14);
      }

      .cls-31 {
        fill: url(#_未命名的渐变_47-12);
      }

      .cls-32 {
        fill: url(#_未命名的渐变_47-13);
      }

      .cls-33 {
        fill: url(#_未命名的渐变_47-10);
      }

      .cls-34 {
        fill: url(#_未命名的渐变_47-15);
      }

      .cls-102 {
        clip-path: url(#clippath-1);
      }

      .cls-103 {
        clip-path: url(#clippath-4);
      }

      .cls-104 {
        clip-path: url(#clippath-3);
      }

      .cls-105 {
        clip-path: url(#clippath-2);
      }

      .cls-106 {
        clip-path: url(#clippath-7);
      }

      .cls-107 {
        clip-path: url(#clippath-8);
      }

      .cls-108 {
        clip-path: url(#clippath-6);
      }

      .cls-109 {
        clip-path: url(#clippath-5);
      }

      .cls-110 {
        clip-path: url(#clippath-9);
      }

      .cls-111 {
        clip-path: url(#clippath-20);
      }

      .cls-112 {
        clip-path: url(#clippath-21);
      }

      .cls-113 {
        clip-path: url(#clippath-14);
      }

      .cls-114 {
        clip-path: url(#clippath-13);
      }

      .cls-115 {
        clip-path: url(#clippath-12);
      }

      .cls-116 {
        clip-path: url(#clippath-10);
      }

      .cls-117 {
        clip-path: url(#clippath-15);
      }

      .cls-118 {
        clip-path: url(#clippath-17);
      }

      .cls-119 {
        clip-path: url(#clippath-16);
      }

      .cls-120 {
        clip-path: url(#clippath-19);
      }

      .cls-121 {
        clip-path: url(#clippath-11);
      }

      .cls-122 {
        clip-path: url(#clippath-18);
      }

      .cls-123 {
        opacity: .2;
      }

      .cls-124 {
        isolation: isolate;
      }

      .cls-36 {
        fill: url(#_未命名的渐变_202);
      }

      .cls-37 {
        fill: url(#_未命名的渐变_200);
      }

      .cls-38 {
        fill: #010714;
        opacity: 0;
      }

      .cls-39 {
        fill: #4b5c7c;
      }

      .cls-40 {
        fill: #627aa3;
      }

      .cls-41 {
        fill: #60779f;
      }

      .cls-42 {
        fill: #7590c2;
      }

      .cls-43 {
        fill: #5e749b;
      }

      .cls-44 {
        fill: #526587;
      }

      .cls-45 {
        fill: #4d5f80;
      }

      .cls-46 {
        fill: #4f6283;
      }

      .cls-47 {
        fill: #313c4f;
      }

      .cls-48 {
        fill: #262f3e;
      }

      .cls-49 {
        fill: #2c3646;
      }

      .cls-50 {
        fill: #485978;
      }

      .cls-51 {
        fill: #293343;
      }

      .cls-52 {
        fill: #293242;
      }

      .cls-53 {
        fill: #5c7197;
      }

      .cls-54 {
        fill: #2d3749;
      }

      .cls-55 {
        fill: #566b90;
      }

      .cls-56 {
        fill: #2b3543;
      }

      .cls-57 {
        fill: #2a3444;
      }

      .cls-58 {
        fill: #2a3343;
      }

      .cls-59 {
        fill: #283241;
      }

      .cls-60 {
        fill: #283141;
      }

      .cls-61 {
        fill: #637ba5;
      }

      .cls-62 {
        fill: #465674;
      }

      .cls-63 {
        fill: #54688c;
      }

      .cls-64 {
        fill: #2e394b;
      }

      .cls-65 {
        fill: #313d50;
      }

      .cls-66 {
        fill: #3b485f;
      }

      .cls-67 {
        fill: #38455b;
      }

      .cls-68 {
        fill: #3a475d;
      }

      .cls-69 {
        fill: #273040;
      }

      .cls-70 {
        fill: #344052;
      }

      .cls-71 {
        fill: #344054;
      }

      .cls-72 {
        fill: #262e3c;
      }

      .cls-73 {
        fill: #596e94;
      }

      .cls-74 {
        fill: #1a202a;
      }

      .cls-75 {
        fill: #1b212c;
      }

      .cls-76 {
        fill: #3e4d69;
      }

      .cls-77 {
        fill: #374358;
      }

      .cls-78 {
        fill: #364257;
      }

      .cls-79 {
        fill: #364256;
      }

      .cls-80 {
        fill: #1c232d;
      }

      .cls-81 {
        fill: #1d242f;
      }

      .cls-82 {
        fill: #41506c;
      }

      .cls-83 {
        fill: #42516c;
      }

      .cls-84 {
        fill: #435370;
      }

      .cls-85 {
        fill: #212834;
      }

      .cls-86 {
        fill: #232a37;
      }

      .cls-87 {
        fill: #222936;
      }

      .cls-88 {
        fill: #1f2632;
      }

      .cls-89 {
        fill: #1e2531;
      }

      .cls-90 {
        fill: #252d3b;
      }

      .cls-91 {
        fill: #252d3c;
      }

      .cls-92 {
        fill: #242b39;
      }

      .cls-93 {
        fill: #242c3a;
      }

      .cls-94 {
        fill: #728fc2;
      }

      .cls-95 {
        fill: #303b4d;
      }

      .cls-96 {
        fill: #323e52;
      }

      .cls-97 {
        fill: #6a82af;
      }

      .cls-98 {
        fill: #84a7e3;
      }

      .cls-99 {
        fill: #657da7;
      }

      .cls-100 {
        fill: #6780ab;
      }
    </style>
    <linearGradient id="_未命名的渐变_47" data-name="未命名的渐变 47" x1="59.26" y1="140.83" x2="86.96" y2="140.83" gradientUnits="userSpaceOnUse">
      <stop offset="0" stop-color="#38455a"/>
      <stop offset=".15" stop-color="#7a96ca"/>
      <stop offset=".25" stop-color="#7a96ca"/>
      <stop offset=".9" stop-color="#12161a"/>
      <stop offset="1" stop-color="#283140"/>
    </linearGradient>
    <linearGradient id="_未命名的渐变_88" data-name="未命名的渐变 88" x1="59.29" y1="132.46" x2="86.96" y2="132.46" gradientUnits="userSpaceOnUse">
      <stop offset="0" stop-color="#283140"/>
      <stop offset="1" stop-color="#12161a"/>
    </linearGradient>
    <linearGradient id="_未命名的渐变_47-2" data-name="未命名的渐变 47" x1="60.03" y1="132.98" x2="86.2" y2="132.98" xlink:href="#_未命名的渐变_47"/>
    <clipPath id="clippath">
      <path class="cls-3" d="m87.57,127.41c.09-1.16-.37-2.36-1.45-3.52l2.65-36.21c1.17,1.26,1.67,2.57,1.57,3.83-.92,11.97-1.85,23.93-2.77,35.9Z"/>
    </clipPath>
    <clipPath id="clippath-1">
      <path class="cls-3" d="m55.89,90.18c0-3.15,3.72-6.05,10.03-7.26,8.64-1.66,18.88.47,22.86,4.76l-2.65,36.21c-3.66-3.95-13.08-5.91-21.03-4.38-5.8,1.12-9.23,3.79-9.23,6.68,0-12,.02-24.01.02-36.01Z"/>
    </clipPath>
    <clipPath id="clippath-2">
      <path class="cls-3" d="m89.2,92.39c-.87,11.34-1.75,22.68-2.62,34.02.08-1.08-.35-2.21-1.35-3.29l2.5-34.31c1.09,1.18,1.56,2.4,1.47,3.58Z"/>
    </clipPath>
    <clipPath id="clippath-3">
      <path class="cls-3" d="m56.94,125.27c0-11.37.02-22.75.03-34.12,0-2.94,3.48-5.65,9.38-6.79,8.08-1.56,17.66.44,21.38,4.45l-2.5,34.31c-3.42-3.69-12.22-5.52-19.66-4.09-5.42,1.04-8.62,3.54-8.62,6.24Z"/>
    </clipPath>
    <clipPath id="clippath-4">
      <path class="cls-3" d="m56.97,91.15c0,1.09.48,2.21,1.48,3.3,3.72,4.01,13.29,6.01,21.38,4.45,5.71-1.1,9.15-3.67,9.37-6.51-.87,11.34-1.75,22.68-2.62,34.02-.2,2.6-3.36,4.97-8.61,5.98-7.43,1.43-16.23-.4-19.66-4.09-.93-1-1.36-2.03-1.36-3.03,0-11.37.02-22.75.03-34.12Z"/>
    </clipPath>
    <linearGradient id="_未命名的渐变_47-3" data-name="未命名的渐变 47" x1="55.87" y1="112.25" x2="90.35" y2="112.25" xlink:href="#_未命名的渐变_47"/>
    <linearGradient id="_未命名的渐变_88-2" data-name="未命名的渐变 88" x1="55.89" y1="90.69" x2="90.36" y2="90.69" gradientTransform="translate(160.9 14.1) rotate(87.77)" xlink:href="#_未命名的渐变_88"/>
    <clipPath id="clippath-5">
      <path class="cls-3" d="m72.4,87l-.04.94s0-.04-.03-.07l.04-.94s.03.04.03.07Z"/>
    </clipPath>
    <clipPath id="clippath-6">
      <path class="cls-3" d="m71.74,87.92l.04-.94c0-.06.07-.11.18-.13.16-.03.34,0,.41.09l-.04.94c-.07-.08-.26-.12-.41-.09-.11.02-.18.07-.18.13Z"/>
    </clipPath>
    <clipPath id="clippath-7">
      <path class="cls-3" d="m55.85,60.51c-.34-3.31,3.44-6.42,10.03-7.69,8.67-1.67,18.93.47,22.92,4.77l-4.55,27.99c-3.11-3.35-11.09-5.01-17.83-3.71-5.13.99-8.07,3.41-7.81,5.98-.92-9.11-1.85-18.22-2.77-27.34Z"/>
    </clipPath>
    <clipPath id="clippath-8">
      <path class="cls-3" d="m85.45,88.88c.19-1.08-.17-2.21-1.19-3.3l4.55-27.99c1.3,1.4,1.77,2.86,1.52,4.25-1.47,8.11-3.42,18.93-4.88,27.04Z"/>
    </clipPath>
    <clipPath id="clippath-9">
      <path class="cls-3" d="m89.09,62.7c-1.52,8.39-3.03,16.78-4.55,25.18.18-1-.16-2.06-1.1-3.07l4.24-26.06c1.21,1.3,1.65,2.66,1.42,3.95Z"/>
    </clipPath>
    <clipPath id="clippath-10">
      <path class="cls-3" d="m59.6,86.91c-.86-8.48-1.72-16.97-2.58-25.45-.31-3.08,3.2-5.97,9.33-7.15,8.06-1.55,17.6.44,21.31,4.44l-4.24,26.06c-2.89-3.11-10.31-4.66-16.57-3.45-4.77.92-7.5,3.17-7.26,5.56Z"/>
    </clipPath>
    <clipPath id="clippath-11">
      <path class="cls-3" d="m57.02,61.46c.1.97.57,1.95,1.46,2.91,3.71,4,13.25,5.99,21.31,4.44,5.43-1.05,8.81-3.43,9.29-6.11-1.52,8.39-3.03,16.78-4.55,25.18-.38,2.08-3,3.93-7.22,4.75-6.27,1.21-13.69-.34-16.57-3.45-.69-.74-1.06-1.51-1.13-2.26-.86-8.48-1.72-16.97-2.58-25.45Z"/>
    </clipPath>
    <linearGradient id="_未命名的渐变_88-3" data-name="未命名的渐变 88" x1="55.83" y1="60.61" x2="90.39" y2="60.61" gradientTransform="translate(130.84 -14.8) rotate(87.77)" xlink:href="#_未命名的渐变_88"/>
    <linearGradient id="_未命名的渐变_47-4" data-name="未命名的渐变 47" x1="55.85" y1="77.47" x2="90.33" y2="77.47" xlink:href="#_未命名的渐变_47"/>
    <clipPath id="clippath-12">
      <path class="cls-3" d="m72.86,57.62l-.04.94s0-.04-.03-.07l.04-.94s.03.04.03.07Z"/>
    </clipPath>
    <clipPath id="clippath-13">
      <path class="cls-3" d="m72.21,58.54l.04-.94c0-.06.07-.11.18-.13.16-.03.34,0,.41.09l-.04.94c-.07-.08-.26-.12-.41-.09-.11.02-.18.07-.18.13Z"/>
    </clipPath>
    <clipPath id="clippath-14">
      <path class="cls-3" d="m72.24,57.6s0,.04.03.07c.07.08.26.12.41.09.11-.02.18-.07.18-.13l-.04.94c0,.06-.07.11-.18.13-.16.03-.34,0-.41-.09-.02-.02-.03-.04-.03-.07.01-.28.03-.66.04-.94Z"/>
    </clipPath>
    <clipPath id="clippath-15">
      <path class="cls-3" d="m85.78,59.87c.36-1.18.03-2.45-1.09-3.66l4.18-15.97c1.45,1.57,1.88,3.21,1.42,4.74-1.5,4.96-3,9.93-4.51,14.89Z"/>
    </clipPath>
    <clipPath id="clippath-16">
      <path class="cls-3" d="m55.86,43.65c-.77-3.5,3.06-6.86,10-8.2,8.7-1.68,19,.47,23.01,4.79l-4.18,15.97c-3.09-3.34-11.05-4.99-17.77-3.7-5.36,1.03-8.31,3.63-7.72,6.33-1.11-5.06-2.22-10.13-3.34-15.19Z"/>
    </clipPath>
    <clipPath id="clippath-17">
      <path class="cls-3" d="m88.91,45.79c-1.31,4.35-2.63,8.7-3.94,13.06.33-1.11.03-2.29-1.02-3.42l3.66-14c1.34,1.45,1.73,2.96,1.31,4.37Z"/>
    </clipPath>
    <clipPath id="clippath-18">
      <path class="cls-3" d="m60.08,57.88c-.97-4.44-1.95-8.88-2.92-13.32-.71-3.23,2.82-6.33,9.22-7.56,8.03-1.55,17.53.43,21.22,4.42l-3.66,14c-2.9-3.12-10.35-4.68-16.64-3.46-5.02.97-7.78,3.4-7.23,5.93Z"/>
    </clipPath>
    <clipPath id="clippath-19">
      <path class="cls-3" d="m57.16,44.56c.18.82.63,1.65,1.38,2.46,3.7,3.99,13.2,5.96,21.22,4.42,5.12-.98,8.4-3.16,9.15-5.65-1.31,4.35-2.63,8.7-3.94,13.06-.59,1.95-3.16,3.65-7.17,4.43-6.29,1.21-13.74-.34-16.64-3.46-.59-.63-.94-1.28-1.08-1.92-.97-4.44-1.95-8.88-2.92-13.32Z"/>
    </clipPath>
    <linearGradient id="_未命名的渐变_88-4" data-name="未命名的渐变 88" x1="55.76" y1="43.27" x2="90.46" y2="43.27" gradientTransform="translate(113.51 -31.46) rotate(87.77)" xlink:href="#_未命名的渐变_88"/>
    <linearGradient id="_未命名的渐变_47-5" data-name="未命名的渐变 47" x1="55.86" y1="54.34" x2="90.28" y2="54.34" xlink:href="#_未命名的渐变_47"/>
    <linearGradient id="_未命名的渐变_200" data-name="未命名的渐变 200" x1="57.32" y1="25.97" x2="64.26" y2="25.97" gradientUnits="userSpaceOnUse">
      <stop offset="0" stop-color="#425266"/>
      <stop offset="0" stop-color="#425266"/>
      <stop offset="1" stop-color="#596b8a"/>
    </linearGradient>
    <clipPath id="clippath-20">
      <path class="cls-3" d="m96.53,46.71l-1.55.34c.91-.2,1.58-1.24,1.59-2.66,0-1.77-1.01-3.46-2.28-3.77l1.55-.34c1.26.31,2.29,1.99,2.28,3.77,0,1.42-.67,2.46-1.59,2.66Z"/>
    </clipPath>
    <clipPath id="clippath-21">
      <path class="cls-3" d="m47.59,93.97l-3.66,4.42c1.23-1.49,1.36-2.82,1.36-2.91l3.66-4.42c0,.1-.13,1.42-1.36,2.91Z"/>
    </clipPath>
    <linearGradient id="_未命名的渐变_88-5" data-name="未命名的渐变 88" x1="45.29" y1="62.66" x2="57.94" y2="62.66" xlink:href="#_未命名的渐变_88"/>
    <linearGradient id="_未命名的渐变_47-6" data-name="未命名的渐变 47" x1="44.91" y1="23.89" x2="55.37" y2="32.9" xlink:href="#_未命名的渐变_47"/>
    <linearGradient id="_未命名的渐变_200-2" data-name="未命名的渐变 200" x1="33.38" y1="64.34" x2="54.25" y2="64.34" xlink:href="#_未命名的渐变_200"/>
    <linearGradient id="_未命名的渐变_88-6" data-name="未命名的渐变 88" x1="55.74" y1="32.05" x2="61.77" y2="32.05" xlink:href="#_未命名的渐变_88"/>
    <linearGradient id="_未命名的渐变_200-3" data-name="未命名的渐变 200" x1="82.49" y1="39.3" x2="88.57" y2="39.3" xlink:href="#_未命名的渐变_200"/>
    <linearGradient id="_未命名的渐变_200-4" data-name="未命名的渐变 200" x1="81.51" y1="40.77" x2="82.53" y2="40.77" xlink:href="#_未命名的渐变_200"/>
    <linearGradient id="_未命名的渐变_200-5" data-name="未命名的渐变 200" x1="81.57" y1="30.25" x2="88.57" y2="30.25" xlink:href="#_未命名的渐变_200"/>
    <linearGradient id="_未命名的渐变_47-7" data-name="未命名的渐变 47" x1="94.24" y1="41.26" x2="95.07" y2="47.05" xlink:href="#_未命名的渐变_47"/>
    <linearGradient id="_未命名的渐变_88-7" data-name="未命名的渐变 88" x1="91.39" y1="44.18" x2="94.82" y2="44.18" xlink:href="#_未命名的渐变_88"/>
    <linearGradient id="_未命名的渐变_47-8" data-name="未命名的渐变 47" x1="86.15" y1="33.38" x2="95.84" y2="49.76" xlink:href="#_未命名的渐变_47"/>
    <linearGradient id="_未命名的渐变_200-6" data-name="未命名的渐变 200" x1="85.75" y1="39.94" x2="93.48" y2="39.94" xlink:href="#_未命名的渐变_200"/>
    <linearGradient id="_未命名的渐变_47-9" data-name="未命名的渐变 47" x1="91.46" y1="42" x2="92.29" y2="47.78" xlink:href="#_未命名的渐变_47"/>
    <linearGradient id="_未命名的渐变_88-8" data-name="未命名的渐变 88" x1="88.61" y1="44.92" x2="92.04" y2="44.92" xlink:href="#_未命名的渐变_88"/>
    <linearGradient id="_未命名的渐变_47-10" data-name="未命名的渐变 47" x1="63.72" y1="35.72" x2="82.5" y2="35.72" xlink:href="#_未命名的渐变_47"/>
    <linearGradient id="_未命名的渐变_202" data-name="未命名的渐变 202" x1="63.77" y1="24.24" x2="82.5" y2="24.24" gradientUnits="userSpaceOnUse">
      <stop offset="0" stop-color="#87a9e4"/>
      <stop offset="1" stop-color="#547097"/>
      <stop offset="1" stop-color="#547097"/>
    </linearGradient>
    <linearGradient id="_未命名的渐变_47-11" data-name="未命名的渐变 47" x1="59.93" y1="27.38" x2="84.28" y2="48.34" xlink:href="#_未命名的渐变_47"/>
    <linearGradient id="_未命名的渐变_47-12" data-name="未命名的渐变 47" x1="87.64" y1="43.13" x2="92.17" y2="47.04" xlink:href="#_未命名的渐变_47"/>
    <linearGradient id="_未命名的渐变_200-7" data-name="未命名的渐变 200" x1="84.51" y1="44.17" x2="54.65" y2="37.69" xlink:href="#_未命名的渐变_200"/>
    <linearGradient id="_未命名的渐变_47-13" data-name="未命名的渐变 47" x1="54.06" y1="23.78" x2="92.16" y2="23.78" xlink:href="#_未命名的渐变_47"/>
    <linearGradient id="_未命名的渐变_202-2" data-name="未命名的渐变 202" x1="54.1" y1="11.43" x2="92.16" y2="11.43" xlink:href="#_未命名的渐变_202"/>
    <linearGradient id="_未命名的渐变_47-14" data-name="未命名的渐变 47" x1="93.78" y1="103.9" x2="79.36" y2="128.86" xlink:href="#_未命名的渐变_47"/>
    <linearGradient id="_未命名的渐变_88-9" data-name="未命名的渐变 88" x1="110.01" y1="116.79" x2="87.23" y2="129.94" xlink:href="#_未命名的渐变_88"/>
    <linearGradient id="_未命名的渐变_88-10" data-name="未命名的渐变 88" x1="-97.07" y1="-87.54" x2="-79.15" y2="-87.54" gradientTransform="translate(205.11 190.83) rotate(-12.15)" xlink:href="#_未命名的渐变_88"/>
    <linearGradient id="_未命名的渐变_47-15" data-name="未命名的渐变 47" x1="-86.75" y1="-101.8" x2="-101.06" y2="-74.95" gradientTransform="translate(205.11 190.83) rotate(-12.15)" xlink:href="#_未命名的渐变_47"/>
    <linearGradient id="_未命名的渐变_200-8" data-name="未命名的渐变 200" x1="182.09" y1="200.23" x2="202.2" y2="200.23" gradientTransform="translate(-73.5 -92.53) rotate(5.11)" xlink:href="#_未命名的渐变_200"/>
  </defs>
  <g id="_图层_1-2" data-name="图层 1">
    <g id="_安全阀" data-name="安全阀">
      <rect class="cls-38" width="149.66" height="149.92"/>
      <g>
        <g class="cls-124">
          <path class="cls-2" d="m86.03,144.09c.09-.14.18-.29.26-.44.05-.09.09-.18.13-.27.07-.15.13-.29.19-.44.03-.09.07-.17.09-.26.05-.16.09-.32.12-.48.02-.08.04-.15.05-.23.04-.24.06-.47.06-.71l.02-8.78c0,.24-.02.47-.06.71-.01.08-.03.15-.05.23-.03.16-.07.32-.12.48-.03.09-.06.17-.09.26-.06.15-.12.3-.19.44-.04.09-.09.18-.13.26-.08.15-.17.29-.26.44-.05.08-.1.16-.16.24-.12.17-.25.33-.39.49-.05.06-.09.11-.14.17-.2.21-.41.43-.64.63-.05.05-.11.09-.17.14-.18.15-.37.3-.57.45-.32.24-.67.47-1.04.69-.37.22-.77.42-1.17.6-.14.06-.28.12-.42.18-.27.11-.54.23-.81.33-.16.06-.33.11-.5.17-.27.09-.54.17-.81.25-.16.04-.31.09-.47.13-.55.14-1.1.27-1.67.36-.03,0-.05,0-.08.01-.55.09-1.11.16-1.67.21-.14.01-.28.03-.42.04-.61.05-1.23.07-1.85.07-.08,0-.16,0-.24,0-.57,0-1.14-.04-1.7-.09-.12-.01-.24-.02-.36-.03-.61-.06-1.21-.15-1.8-.26-.12-.02-.24-.05-.36-.07-.56-.11-1.11-.24-1.65-.4-.05-.02-.11-.03-.16-.04-.52-.16-1.02-.34-1.5-.53-.12-.05-.25-.1-.37-.16-.4-.17-.79-.36-1.17-.56-.12-.07-.25-.13-.37-.19-.35-.2-.68-.41-.98-.63-.1-.07-.19-.15-.29-.23-.19-.15-.39-.3-.56-.45-.07-.06-.13-.13-.2-.19-.21-.19-.4-.39-.58-.59-.08-.09-.15-.19-.23-.28-.14-.18-.27-.36-.39-.55-.07-.12-.15-.23-.21-.35-.05-.09-.1-.18-.14-.28-.07-.15-.13-.3-.19-.44-.03-.09-.07-.18-.1-.27-.05-.16-.09-.32-.12-.49-.02-.08-.04-.16-.05-.23-.04-.24-.06-.48-.06-.72l-.02,8.78c0,.24.02.48.06.72.01.08.03.16.05.23.03.16.07.33.12.49.03.09.06.18.1.27.06.15.12.3.19.44.04.09.09.18.14.28.03.06.06.13.1.19.03.05.08.11.11.16.12.18.25.37.39.55.07.09.15.19.23.28.18.2.37.4.58.59.05.05.1.11.15.16.01.01.03.02.04.04.17.15.37.3.56.45.1.08.19.15.29.23.31.22.63.43.98.63.06.03.12.07.18.1.06.03.13.06.2.09.38.2.77.39,1.17.56.12.05.24.11.37.16.49.2.99.38,1.5.53.01,0,.02,0,.04.01.04.01.08.02.12.03.54.16,1.09.29,1.65.4.12.02.24.05.36.07.59.11,1.19.19,1.8.26.12.01.24.02.35.03.57.05,1.14.08,1.71.09.08,0,.16,0,.24,0,.62,0,1.24-.02,1.85-.07.07,0,.13,0,.2,0,.08,0,.15-.02.22-.03.56-.05,1.12-.12,1.67-.21.03,0,.05,0,.08-.01.57-.1,1.13-.22,1.67-.36.07-.02.14-.03.2-.04.09-.02.18-.06.27-.08.28-.08.55-.16.81-.25.17-.06.33-.11.49-.17.28-.1.55-.21.81-.33.11-.05.22-.08.33-.13.03-.01.06-.03.09-.05.41-.19.8-.39,1.17-.6.38-.22.72-.45,1.04-.68.03-.02.06-.04.09-.06.17-.13.33-.26.48-.39.05-.05.11-.09.17-.13.23-.21.45-.42.64-.63.05-.06.09-.11.14-.17.14-.16.27-.32.39-.49.06-.08.11-.16.16-.24Z"/>
          <path class="cls-1" d="m82.88,126.79c5.42,3.13,5.45,8.2.06,11.33-5.39,3.13-14.15,3.13-19.56,0-5.42-3.13-5.45-8.2-.06-11.34,5.39-3.13,14.15-3.13,19.57,0Z"/>
        </g>
        <g class="cls-124">
          <path class="cls-4" d="m85.33,134.11c.09-.14.17-.28.25-.42.04-.08.09-.17.13-.25.07-.14.12-.28.18-.42.03-.08.06-.17.09-.25.05-.15.08-.3.11-.45.01-.07.03-.14.05-.21.03-.22.06-.45.06-.67v-4.39c.01.22,0,.45-.04.67-.01.07-.03.14-.05.21-.03.15-.07.3-.11.45-.03.08-.06.17-.09.25-.05.14-.11.28-.18.42-.04.08-.08.17-.13.25-.08.14-.16.28-.25.41-.05.08-.1.15-.15.23-.11.16-.24.31-.37.46-.05.05-.09.11-.14.16-.19.2-.39.4-.61.6-.05.04-.11.08-.16.13-.17.14-.35.29-.54.43-.31.22-.63.44-.99.65-.35.21-.73.39-1.11.57-.13.06-.26.11-.4.17-.25.11-.51.21-.77.31-.15.06-.31.11-.47.16-.25.08-.51.16-.77.24-.15.04-.3.08-.45.12-.52.13-1.04.25-1.58.34-.02,0-.05,0-.08.01-.52.09-1.05.15-1.58.2-.13.01-.27.02-.4.03-.58.04-1.16.07-1.75.06-.08,0-.15,0-.23,0-.54,0-1.08-.04-1.61-.08-.11,0-.22-.02-.34-.03-.57-.06-1.14-.14-1.7-.24-.12-.02-.23-.05-.35-.07-.53-.11-1.05-.23-1.56-.38-.05-.01-.1-.03-.15-.04-.49-.15-.96-.32-1.42-.5-.12-.05-.23-.1-.35-.15-.38-.16-.75-.34-1.1-.53-.12-.06-.24-.12-.35-.18-.33-.19-.64-.39-.93-.6-.1-.07-.18-.14-.28-.22-.18-.14-.36-.28-.53-.42-.07-.06-.12-.12-.18-.18-.2-.18-.38-.37-.55-.56-.08-.09-.14-.18-.21-.27-.13-.17-.26-.34-.37-.52-.07-.11-.14-.22-.2-.33-.05-.09-.09-.17-.13-.26-.07-.14-.12-.28-.18-.42-.03-.09-.07-.17-.09-.26-.05-.15-.08-.31-.11-.46-.01-.07-.04-.15-.05-.22-.03-.23-.06-.46-.05-.68v4.39c-.01.23,0,.46.04.68.01.07.03.15.05.22.03.15.07.31.11.46.03.09.06.17.09.26.05.14.11.28.18.42.04.09.09.17.13.26.03.06.06.12.09.18.03.05.08.1.11.15.11.17.23.35.37.52.07.09.14.18.21.27.17.19.35.38.55.56.05.05.09.1.14.15.01.01.03.02.04.03.16.14.35.28.53.42.09.07.18.14.27.21.29.21.6.41.93.6.05.03.11.06.17.09.06.03.13.06.19.09.35.19.72.37,1.1.53.12.05.23.1.35.15.46.18.93.35,1.42.5.01,0,.02,0,.03.01.04.01.08.02.11.03.51.15,1.03.27,1.56.38.12.02.23.05.35.07.56.1,1.13.18,1.7.24.11.01.22.02.33.03.53.05,1.07.07,1.61.08.08,0,.15,0,.23,0,.58,0,1.17-.02,1.75-.06.06,0,.13,0,.19,0,.07,0,.14-.02.21-.03.53-.05,1.06-.11,1.58-.2.03,0,.05,0,.08-.01.54-.09,1.06-.21,1.58-.34.06-.02.13-.03.19-.04.09-.02.17-.05.25-.08.26-.07.51-.15.77-.24.16-.05.32-.1.47-.16.26-.1.52-.2.77-.31.1-.04.21-.08.31-.12.03-.01.06-.03.09-.04.38-.18.75-.36,1.11-.57.36-.21.68-.42.99-.65.03-.02.06-.04.08-.05.16-.12.31-.25.45-.37.05-.04.11-.09.16-.13.22-.19.42-.39.61-.6.05-.05.09-.11.13-.16.13-.15.26-.31.37-.46.05-.08.1-.15.15-.23Z"/>
          <path class="cls-83" d="m82.34,121.66c5.12,2.96,5.15,7.75.05,10.71-5.09,2.96-13.37,2.96-18.49,0-5.13-2.96-5.15-7.76-.06-10.72,5.1-2.96,13.37-2.96,18.5,0Z"/>
        </g>
        <g class="cls-124">
          <path class="cls-61" d="m86.13,123.88c3.66,3.95.18,8.39-7.77,9.92-7.95,1.53-17.37-.43-21.03-4.38-3.66-3.95-.18-8.39,7.77-9.92,7.95-1.53,17.37.43,21.03,4.38Zm-14.12,2.72c-.07-.08-.26-.12-.41-.09s-.22.12-.15.19.26.12.41.09.22-.12.15-.19"/>
          <g class="cls-124">
            <g class="cls-101">
              <g class="cls-124">
                <path class="cls-76" d="m87.57,127.41l2.77-35.9c.1-1.26-.4-2.57-1.57-3.83l-2.65,36.21c1.08,1.16,1.54,2.36,1.45,3.52"/>
              </g>
            </g>
          </g>
          <g class="cls-124">
            <g class="cls-102">
              <g class="cls-124">
                <path class="cls-76" d="m86.13,123.88l2.65-36.21c-.95-1.02-2.25-1.92-3.8-2.68l-2.34,36.42c1.43.69,2.62,1.52,3.5,2.46"/>
                <path class="cls-82" d="m82.63,121.42l2.34-36.42c-.53-.26-1.08-.5-1.66-.72l-2.21,36.48c.53.2,1.04.42,1.53.66"/>
                <path class="cls-84" d="m81.1,120.76l2.21-36.48c-.47-.18-.96-.35-1.46-.51l-2.1,36.52c.46.14.91.3,1.34.47"/>
                <path class="cls-62" d="m79.76,120.3l2.1-36.52c-.45-.14-.9-.27-1.37-.39l-1.99,36.55c.43.11.85.23,1.26.36"/>
                <path class="cls-50" d="m78.5,119.94l1.99-36.55c-.43-.11-.88-.22-1.33-.31l-1.88,36.57c.41.09.82.18,1.22.29"/>
                <path class="cls-39" d="m77.28,119.65l1.88-36.57c-.43-.09-.87-.17-1.32-.25l-1.78,36.59c.41.07.81.14,1.21.23"/>
                <path class="cls-45" d="m76.07,119.42l1.78-36.59c-.44-.07-.88-.14-1.33-.2l-1.67,36.61c.41.05.82.11,1.22.18"/>
                <path class="cls-46" d="m74.85,119.25l1.67-36.61c-.45-.06-.9-.11-1.36-.15l-1.56,36.62c.42.04.84.08,1.25.13"/>
                <path class="cls-44" d="m73.6,119.11l1.56-36.62c-.47-.04-.94-.07-1.42-.1l-1.45,36.63c.44.02.87.05,1.3.09"/>
                <path class="cls-63" d="m72.3,119.02l1.45-36.63c-.5-.02-1.01-.04-1.52-.04l-1.33,36.63c.47,0,.93.01,1.4.04"/>
                <path class="cls-55" d="m70.9,118.99l1.33-36.63c-.57,0-1.13,0-1.7.03l-1.19,36.63c.52-.02,1.04-.03,1.56-.03"/>
                <path class="cls-73" d="m69.34,119.02l1.19-36.63c-.69.03-1.38.08-2.06.15l-1.03,36.62c.63-.07,1.26-.11,1.9-.14"/>
                <path class="cls-53" d="m67.44,119.16l1.03-36.62c-.86.09-1.71.22-2.55.38-2.19.42-4.07,1.05-5.59,1.81l-.38,36.44c1.4-.71,3.13-1.28,5.14-1.67.77-.15,1.55-.26,2.35-.35"/>
                <path class="cls-73" d="m59.95,121.18l.38-36.44c-.48.25-.93.5-1.34.78l-.27,36.38c.38-.25.79-.49,1.24-.71"/>
                <path class="cls-55" d="m58.72,121.89l.27-36.38c-.34.22-.65.45-.93.69l-.2,36.33c.26-.22.55-.43.86-.64"/>
                <path class="cls-63" d="m57.86,122.53l.2-36.33c-.25.21-.48.42-.68.64l-.14,36.27c.19-.2.4-.4.63-.59"/>
                <path class="cls-44" d="m57.23,123.12l.14-36.27c-.19.21-.37.42-.53.63l-.1,36.22c.14-.2.31-.39.49-.58"/>
                <path class="cls-46" d="m56.75,123.7l.1-36.22c-.15.21-.29.42-.4.63l-.07,36.17c.11-.2.23-.39.37-.58"/>
                <path class="cls-45" d="m56.38,124.28l.07-36.17c-.11.21-.21.42-.29.64l-.04,36.12c.07-.2.16-.39.27-.59"/>
                <path class="cls-39" d="m56.11,124.87l.04-36.12c-.08.22-.14.43-.19.65l-.03,36.07c.04-.2.1-.4.17-.6"/>
                <path class="cls-50" d="m55.94,125.47l.03-36.07c-.05.23-.07.46-.08.69l-.02,36.02c0-.21.03-.42.07-.63"/>
                <path class="cls-62" d="m55.87,126.1l.02-36.02s0,.06,0,.09l-.02,36.01s0-.06,0-.09"/>
              </g>
            </g>
          </g>
          <g class="cls-124">
            <g class="cls-105">
              <g class="cls-124">
                <path class="cls-76" d="m89.2,92.39l-2.62,34.02c.08-1.08-.35-2.21-1.35-3.29l2.5-34.31c1.09,1.18,1.56,2.4,1.47,3.58"/>
              </g>
            </g>
          </g>
          <g class="cls-124">
            <g class="cls-104">
              <g class="cls-124">
                <path class="cls-76" d="m87.73,88.81l-2.5,34.31c-.82-.88-1.93-1.65-3.27-2.3l2.22-34.51c1.45.71,2.67,1.55,3.55,2.5"/>
                <path class="cls-82" d="m84.17,86.31l-2.22,34.51c-.45-.22-.93-.43-1.43-.62l2.09-34.57c.54.21,1.06.43,1.55.67"/>
                <path class="cls-84" d="m82.62,85.64l-2.09,34.57c-.4-.15-.82-.3-1.25-.43l1.98-34.6c.47.15.92.3,1.36.47"/>
                <path class="cls-62" d="m81.26,85.17l-1.98,34.6c-.38-.12-.78-.23-1.18-.34l1.88-34.63c.44.11.86.23,1.28.37"/>
                <path class="cls-50" d="m79.98,84.8l-1.88,34.63c-.37-.1-.76-.19-1.14-.27l1.78-34.66c.42.09.84.19,1.24.29"/>
                <path class="cls-39" d="m78.73,84.51l-1.78,34.66c-.37-.08-.75-.15-1.13-.21l1.68-34.68c.42.07.83.15,1.23.23"/>
                <path class="cls-45" d="m77.5,84.28l-1.68,34.68c-.38-.06-.76-.12-1.14-.17l1.58-34.69c.42.05.83.11,1.24.18"/>
                <path class="cls-46" d="m76.26,84.1l-1.58,34.69c-.39-.05-.78-.09-1.17-.13l1.48-34.7c.43.04.85.08,1.27.14"/>
                <path class="cls-44" d="m74.99,83.96l-1.48,34.7c-.4-.04-.81-.06-1.22-.08l1.37-34.71c.44.02.89.05,1.33.09"/>
                <path class="cls-63" d="m73.67,83.87l-1.37,34.71c-.43-.02-.87-.03-1.31-.03l1.26-34.71c.48,0,.95.01,1.42.04"/>
                <path class="cls-55" d="m72.24,83.83l-1.26,34.71c-.49,0-.98,0-1.46.03l1.13-34.71c.53-.02,1.06-.03,1.59-.03"/>
                <path class="cls-73" d="m70.65,83.86l-1.13,34.71c-.59.03-1.19.07-1.78.13l.97-34.7c.64-.07,1.28-.12,1.93-.14"/>
                <path class="cls-53" d="m68.72,84.01l-.97,34.7c-.74.08-1.47.19-2.18.32-1.88.36-3.5.9-4.8,1.56l.36-34.53c1.42-.72,3.17-1.3,5.22-1.69.78-.15,1.57-.27,2.38-.35"/>
                <path class="cls-73" d="m61.13,86.06l-.36,34.53c-.42.21-.8.43-1.16.67l.26-34.47c.38-.25.8-.5,1.26-.73"/>
                <path class="cls-55" d="m59.87,86.78l-.26,34.47c-.29.19-.56.39-.8.6l.19-34.42c.27-.22.56-.44.87-.65"/>
                <path class="cls-63" d="m59,87.43l-.19,34.42c-.21.18-.41.37-.59.55l.14-34.37c.19-.21.41-.41.64-.6"/>
                <path class="cls-44" d="m58.36,88.04l-.14,34.37c-.17.18-.32.36-.45.54l.1-34.33c.15-.2.31-.4.49-.59"/>
                <path class="cls-46" d="m57.86,88.63l-.1,34.33c-.13.18-.25.36-.35.54l.07-34.28c.11-.2.23-.39.38-.59"/>
                <path class="cls-45" d="m57.49,89.21l-.07,34.28c-.1.18-.18.36-.25.55l.05-34.23c.07-.2.17-.4.27-.6"/>
                <path class="cls-39" d="m57.21,89.81l-.05,34.23c-.07.19-.12.37-.16.56l.03-34.18c.04-.21.1-.41.17-.61"/>
                <path class="cls-50" d="m57.04,90.42l-.03,34.18c-.04.2-.06.39-.07.59l.03-34.13c0-.22.03-.43.07-.64"/>
                <path class="cls-62" d="m56.97,91.06l-.03,34.13s0,.05,0,.08l.03-34.12s0-.06,0-.09"/>
              </g>
            </g>
          </g>
          <g class="cls-124">
            <g class="cls-103">
              <g class="cls-124">
                <path class="cls-76" d="m56.97,91.15l-.03,34.12c0,1,.44,2.03,1.36,3.03.97,1.05,2.38,1.95,4.06,2.66l.5-33.62c-1.83-.78-3.36-1.76-4.42-2.9-1.01-1.09-1.48-2.21-1.48-3.3"/>
                <path class="cls-82" d="m62.86,97.34l-.5,33.62c.5.21,1.02.41,1.56.59l.64-33.57c-.59-.19-1.16-.41-1.7-.64"/>
                <path class="cls-84" d="m64.56,97.98l-.64,33.57c.44.15.9.28,1.37.41l.76-33.54c-.51-.13-1.01-.28-1.49-.44"/>
                <path class="cls-62" d="m66.05,98.42l-.76,33.54c.42.11.85.21,1.29.31l.87-33.51c-.48-.1-.95-.21-1.41-.33"/>
                <path class="cls-50" d="m67.46,98.75l-.87,33.51c.41.09.83.16,1.26.23l.98-33.49c-.46-.08-.92-.16-1.37-.25"/>
                <path class="cls-39" d="m68.83,99.01l-.98,33.49c.42.07.84.13,1.26.18l1.09-33.47c-.46-.05-.92-.12-1.37-.19"/>
                <path class="cls-45" d="m70.2,99.2l-1.09,33.47c.43.05.86.09,1.3.12l1.21-33.46c-.47-.04-.94-.08-1.41-.14"/>
                <path class="cls-46" d="m71.61,99.34l-1.21,33.46c.45.03.91.06,1.36.07l1.33-33.46c-.5-.01-.99-.04-1.48-.08"/>
                <path class="cls-44" d="m73.1,99.41l-1.33,33.46c.49.01.99.02,1.48,0l1.46-33.46c-.54.01-1.08,0-1.61,0"/>
                <path class="cls-63" d="m74.71,99.42l-1.46,33.46c.59-.01,1.18-.04,1.76-.09l1.61-33.46c-.64.05-1.28.08-1.92.09"/>
                <path class="cls-55" d="m76.62,99.33l-1.61,33.46c.87-.07,1.74-.18,2.59-.33l1.84-33.49c-.93.16-1.87.28-2.82.36"/>
                <path class="cls-73" d="m79.44,98.97l-1.84,33.49c.12-.02.24-.04.35-.07,1.28-.25,2.44-.57,3.46-.97l2.17-33.58c-1.11.43-2.37.78-3.77,1.05-.13.02-.26.05-.38.07"/>
                <path class="cls-55" d="m83.59,97.85l-2.17,33.58c.7-.27,1.33-.57,1.9-.89l2.34-33.66c-.62.35-1.31.68-2.07.97"/>
                <path class="cls-63" d="m85.66,96.88l-2.34,33.66c.37-.21.72-.44,1.03-.67l2.43-33.72c-.34.25-.71.5-1.12.73"/>
                <path class="cls-44" d="m86.78,96.15l-2.43,33.72c.27-.2.51-.41.73-.62l2.49-33.77c-.24.23-.5.45-.79.67"/>
                <path class="cls-46" d="m87.57,95.47l-2.49,33.77c.2-.19.38-.39.55-.6l2.54-33.83c-.18.22-.38.44-.59.65"/>
                <path class="cls-45" d="m88.17,94.83l-2.54,33.83c.15-.19.29-.39.41-.59l2.58-33.88c-.13.22-.28.43-.44.64"/>
                <path class="cls-39" d="m88.61,94.18l-2.58,33.88c.12-.2.21-.4.29-.6l2.6-33.93c-.09.22-.19.44-.32.65"/>
                <path class="cls-50" d="m88.93,93.53l-2.6,33.93c.08-.21.14-.41.19-.63l2.62-33.99c-.05.23-.11.46-.2.68"/>
                <path class="cls-62" d="m89.13,92.85l-2.62,33.99c.03-.14.05-.28.06-.42l2.62-34.02c-.01.15-.03.3-.06.46"/>
              </g>
            </g>
          </g>
          <ellipse class="cls-61" cx="73.09" cy="91.63" rx="7.78" ry="16.13" transform="translate(-21.31 161.1) rotate(-87.77)"/>
          <path class="cls-6" d="m90.27,92.03c-.05.22-.11.44-.19.65-.02.05-.05.11-.07.16-.07.16-.15.32-.23.48-.04.07-.08.14-.12.2-.1.16-.2.31-.32.46-.04.06-.08.11-.13.17-.17.21-.36.42-.57.62-.04.04-.08.07-.12.11-.2.19-.42.37-.65.55-.06.05-.12.09-.18.14-.32.24-.67.46-1.04.68-.08.05-.16.09-.25.14-.23.13-.47.25-.72.37-.09.04-.17.08-.26.13-.33.15-.68.3-1.04.44-.04.01-.08.03-.11.04-.57.21-1.16.41-1.8.59-.02,0-.04.01-.06.02-.66.18-1.35.35-2.07.49-.38.07-.77.13-1.16.19-.2.03-.4.07-.6.09-.37.05-.74.09-1.11.12-.16.02-.32.04-.49.05-.12,0-.25.01-.37.02-.51.04-1.02.06-1.53.08-.26,0-.52,0-.78,0-.3,0-.6,0-.89,0-.29,0-.59-.02-.88-.03-.25-.01-.49-.02-.73-.04-.32-.02-.63-.05-.94-.08-.21-.02-.43-.04-.64-.06-.34-.04-.68-.09-1.02-.14-.17-.03-.35-.05-.52-.07-.4-.06-.8-.14-1.19-.22-.11-.02-.22-.04-.33-.06-.31-.06-.6-.14-.9-.21-.2-.05-.41-.09-.61-.14-.07-.02-.13-.04-.2-.06-.45-.12-.9-.25-1.33-.39-.11-.04-.21-.08-.32-.11-.46-.16-.91-.32-1.34-.5-.18-.07-.35-.15-.53-.23-.27-.12-.54-.25-.8-.38-.18-.09-.35-.18-.52-.27-.25-.14-.5-.28-.74-.43-.15-.09-.3-.18-.45-.28-.25-.17-.48-.34-.71-.52-.11-.09-.23-.17-.34-.26-.32-.27-.62-.54-.89-.83-1.08-1.16-1.58-2.36-1.58-3.52,0,12-.02,24.01-.02,36.01,0,1.07.47,2.18,1.46,3.24.25.27.52.52.82.77.1.08.21.16.31.24.21.16.42.32.65.48.13.09.27.17.41.26.22.14.44.27.68.4.16.08.32.17.48.25.24.12.48.23.73.35.09.04.17.09.27.13.07.03.15.05.22.08.4.16.81.32,1.23.46.08.03.14.06.22.08.02,0,.05.01.07.02.4.13.8.25,1.22.36.06.02.11.04.17.05,0,0,0,0,.01,0,.18.05.37.09.55.13.27.07.54.13.82.19,0,0,.01,0,.02,0,.1.02.21.04.31.06.34.07.67.13,1.01.19.02,0,.05,0,.08.01.16.03.32.04.48.07.26.04.53.08.79.11.05,0,.1,0,.15.01.19.02.39.04.58.06.22.02.44.05.66.06.07,0,.14,0,.21.01.23.02.45.02.68.04.19,0,.38.02.57.03.08,0,.16,0,.24,0,.27,0,.55,0,.82,0,.17,0,.35,0,.52,0,.06,0,.13,0,.19,0,.47-.01.94-.04,1.41-.07.09,0,.19,0,.28-.01.02,0,.04,0,.06,0,.15-.01.3-.03.45-.05.34-.03.68-.07,1.02-.11.19-.02.37-.06.55-.08.23-.04.47-.07.7-.11.12-.02.24-.04.36-.07.67-.13,1.3-.28,1.91-.45.02,0,.04,0,.06-.02.58-.16,1.13-.35,1.65-.54.02,0,.05-.02.07-.02.01,0,.02-.01.04-.02.33-.13.65-.27.96-.41.08-.04.16-.08.24-.12.23-.11.45-.22.66-.34.05-.03.1-.05.15-.08.03-.02.05-.04.08-.05.34-.2.66-.41.96-.63.02-.02.05-.03.07-.04.04-.03.06-.06.1-.08.21-.17.42-.33.6-.51.03-.02.06-.05.08-.07,0,0,.02-.02.03-.03.19-.18.36-.37.52-.57.01-.01.03-.03.04-.04.03-.04.05-.07.08-.11.11-.14.2-.28.29-.42.02-.03.05-.06.07-.1.02-.03.03-.06.04-.09.08-.14.15-.29.22-.44.02-.04.04-.07.06-.11,0-.01,0-.02.01-.04.08-.2.14-.4.18-.6,0-.01,0-.02,0-.03.03-.15.05-.3.06-.45.92-11.97,1.85-23.93,2.77-35.9-.01.17-.04.35-.08.52Z"/>
          <ellipse class="cls-19" cx="73.12" cy="90.69" rx="8.31" ry="17.24" transform="translate(-20.34 160.23) rotate(-87.77)"/>
        </g>
        <g class="cls-124">
          <path class="cls-58" d="m84.26,85.58c3.11,3.35.16,7.12-6.59,8.41-6.74,1.3-14.73-.36-17.83-3.71-3.11-3.35-.16-7.12,6.59-8.41,6.74-1.3,14.73.36,17.83,3.71Zm-11.93,2.3c-.07-.08-.26-.12-.41-.09s-.22.12-.15.19.26.12.41.09.22-.12.15-.19"/>
          <g class="cls-124">
            <g class="cls-109">
              <g class="cls-124">
                <path class="cls-74" d="m72.4,87l-.04.94s0-.04-.03-.07l.04-.94s.03.04.03.07"/>
              </g>
            </g>
          </g>
          <g class="cls-124">
            <g class="cls-108">
              <g class="cls-124">
                <path class="cls-74" d="m72.37,86.93l-.04.94s-.05-.04-.08-.05l.04-.94s.06.03.08.05"/>
                <path class="cls-75" d="m72.29,86.88l-.04.94s-.02,0-.03-.01l.04-.94s.02,0,.03.01"/>
                <path class="cls-80" d="m72.26,86.87l-.04.94s-.02,0-.03,0l.04-.94s.02,0,.03,0"/>
                <path class="cls-81" d="m72.23,86.86l-.04.94s-.02,0-.03,0l.04-.94s.02,0,.03,0"/>
                <path class="cls-89" d="m72.21,86.85l-.04.94s-.02,0-.03,0l.04-.94s.02,0,.03,0"/>
                <path class="cls-88" d="m72.18,86.85l-.04.94s-.02,0-.02,0l.04-.94s.02,0,.02,0"/>
                <path class="cls-85" d="m72.16,86.84l-.04.94s-.02,0-.03,0l.04-.94s.02,0,.03,0"/>
                <path class="cls-87" d="m72.13,86.84l-.04.94s-.02,0-.03,0l.04-.94s.02,0,.03,0"/>
                <path class="cls-86" d="m72.11,86.84l-.04.94s-.02,0-.03,0l.04-.94s.02,0,.03,0"/>
                <path class="cls-92" d="m72.08,86.84l-.04.94s-.02,0-.03,0l.04-.94s.02,0,.03,0"/>
                <path class="cls-90" d="m72.05,86.84l-.04.94s-.02,0-.04,0l.04-.94s.02,0,.04,0"/>
                <path class="cls-72" d="m72.01,86.84l-.04.94s-.04,0-.05,0c0,0,0,0,0,0l.04-.94s0,0,0,0c.02,0,.04,0,.05,0"/>
                <path class="cls-48" d="m71.95,86.85l-.04.94s-.03,0-.05.01l.04-.94s.03,0,.05-.01"/>
                <path class="cls-72" d="m71.9,86.86l-.04.94s-.03.01-.05.02l.04-.94s.03-.01.05-.02"/>
                <path class="cls-90" d="m71.85,86.88l-.04.94s-.02,0-.02.01l.04-.94s.01,0,.02-.01"/>
                <path class="cls-92" d="m71.83,86.9l-.04.94s-.01,0-.02.01l.04-.94s.01,0,.02-.01"/>
                <path class="cls-86" d="m71.81,86.91l-.04.94s0,0-.01.01l.04-.94s0,0,.01-.01"/>
                <path class="cls-87" d="m71.8,86.92l-.04.94s0,0,0,.01l.04-.94s0,0,0-.01"/>
                <path class="cls-85" d="m71.79,86.93l-.04.94s0,0,0,.01l.04-.94s0,0,0-.01"/>
                <path class="cls-88" d="m71.78,86.95l-.04.94s0,0,0,.01l.04-.94s0,0,0-.01"/>
                <path class="cls-89" d="m71.78,86.96l-.04.94s0,0,0,.01l.04-.94s0,0,0-.01"/>
                <polyline class="cls-81" points="71.78 86.97 71.74 87.91 71.74 87.92 71.78 86.98 71.78 86.97"/>
              </g>
            </g>
          </g>
          <g class="cls-124">
            <g class="cls-106">
              <g class="cls-124">
                <path class="cls-74" d="m84.26,85.58l4.55-27.99c-.71-.77-1.63-1.47-2.7-2.09l-3.95,28.45c.83.48,1.55,1.03,2.1,1.63"/>
                <path class="cls-75" d="m82.16,83.95l3.95-28.45c-.47-.27-.98-.53-1.51-.78l-3.61,28.62c.41.19.8.39,1.17.6"/>
                <path class="cls-80" d="m80.98,83.34l3.61-28.62c-.42-.19-.85-.37-1.3-.55l-3.32,28.74c.35.13.69.28,1.01.42"/>
                <path class="cls-81" d="m79.97,82.92l3.32-28.74c-.4-.15-.81-.3-1.23-.43l-3.05,28.84c.33.11.65.22.96.34"/>
                <path class="cls-89" d="m79.01,82.58l3.05-28.84c-.39-.12-.79-.24-1.19-.35l-2.78,28.92c.32.09.62.18.93.27"/>
                <path class="cls-88" d="m78.09,82.31l2.78-28.92c-.38-.1-.78-.2-1.17-.29l-2.52,28.98c.31.07.61.15.91.23"/>
                <path class="cls-85" d="m77.17,82.08l2.52-28.98c-.39-.09-.78-.17-1.17-.24l-2.26,29.04c.31.06.61.12.91.19"/>
                <path class="cls-87" d="m76.26,81.89l2.26-29.04c-.39-.07-.78-.14-1.18-.2l-2,29.08c.31.05.62.1.92.16"/>
                <path class="cls-86" d="m75.34,81.73l2-29.08c-.4-.06-.8-.11-1.2-.16l-1.73,29.12c.31.04.63.08.93.13"/>
                <path class="cls-92" d="m74.41,81.61l1.73-29.12c-.41-.05-.82-.09-1.23-.12l-1.46,29.14c.32.03.64.06.96.09"/>
                <path class="cls-90" d="m73.45,81.51l1.46-29.14c-.42-.03-.85-.06-1.27-.08l-1.18,29.16c.33.01.66.04.99.06"/>
                <path class="cls-72" d="m72.46,81.45l1.18-29.16c-.45-.02-.89-.03-1.34-.03l-.88,29.17c.35,0,.7.01,1.04.03"/>
                <path class="cls-48" d="m71.41,81.42l.88-29.17c-.49,0-.98,0-1.47.02l-.55,29.17c.38-.01.76-.02,1.14-.02"/>
                <path class="cls-69" d="m70.27,81.44l.55-29.17c-.58.02-1.17.06-1.75.11l-.17,29.14c.45-.04.91-.07,1.36-.08"/>
                <path class="cls-59" d="m68.91,81.52l.17-29.14c-.93.08-1.86.2-2.77.36l.45,29.06c.71-.13,1.43-.22,2.16-.28"/>
                <path class="cls-51" d="m66.75,81.81l-.45-29.06c-.14.02-.28.05-.41.08-1.3.25-2.49.57-3.57.95l1.33,28.83c.83-.3,1.76-.55,2.78-.74.11-.02.21-.04.32-.06"/>
                <path class="cls-59" d="m63.65,82.61l-1.33-28.83c-.81.29-1.55.61-2.22.96l1.83,28.62c.52-.27,1.1-.52,1.73-.75"/>
                <path class="cls-69" d="m61.92,83.36l-1.83-28.62c-.43.23-.84.47-1.21.72l2.1,28.46c.29-.19.6-.38.94-.56"/>
                <path class="cls-48" d="m60.98,83.91l-2.1-28.46c-.31.21-.59.42-.86.64l2.29,28.32c.2-.17.43-.34.67-.5"/>
                <path class="cls-72" d="m60.31,84.41l-2.29-28.32c-.23.19-.45.39-.64.6l2.43,28.19c.15-.16.32-.31.5-.46"/>
                <path class="cls-90" d="m59.81,84.88l-2.43-28.19c-.18.19-.35.38-.5.58l2.54,28.06c.12-.15.25-.3.39-.45"/>
                <path class="cls-92" d="m59.42,85.33l-2.54-28.06c-.15.19-.28.38-.39.57l2.63,27.93c.09-.15.19-.3.3-.45"/>
                <path class="cls-86" d="m59.12,85.77l-2.63-27.93c-.11.19-.21.38-.3.57l2.69,27.8c.07-.15.14-.3.23-.44"/>
                <path class="cls-87" d="m58.89,86.22l-2.69-27.8c-.08.19-.15.38-.21.58l2.74,27.67c.04-.15.1-.3.16-.45"/>
                <path class="cls-85" d="m58.72,86.67l-2.74-27.67c-.06.2-.1.39-.12.59l2.77,27.54c.02-.15.05-.31.1-.46"/>
                <path class="cls-88" d="m58.63,87.13l-2.77-27.54c-.03.2-.04.41-.03.62l2.77,27.41c0-.16,0-.32.03-.48"/>
                <path class="cls-89" d="m58.6,87.61l-2.77-27.41c0,.1,0,.21.02.31l2.77,27.34c0-.08-.01-.16-.02-.24"/>
              </g>
            </g>
          </g>
          <path class="cls-58" d="m83.43,84.8c2.89,3.11.14,6.61-6.12,7.82s-13.69-.34-16.57-3.45c-2.89-3.11-.14-6.61,6.12-7.82,6.27-1.21,13.69.34,16.57,3.45Zm-11.07,2.13c-.07-.08-.26-.12-.41-.09s-.22.12-.15.19.26.12.41.09.22-.12.15-.19"/>
          <g class="cls-124">
            <g class="cls-107">
              <g class="cls-124">
                <path class="cls-74" d="m85.45,88.88l4.88-27.04c.25-1.39-.22-2.85-1.52-4.25l-4.55,27.99c1.01,1.09,1.38,2.23,1.19,3.3"/>
              </g>
            </g>
          </g>
          <g class="cls-124">
            <g class="cls-110">
              <g class="cls-124">
                <path class="cls-74" d="m89.09,62.7l-4.55,25.18c.18-1-.16-2.06-1.1-3.07l4.24-26.06c1.21,1.3,1.65,2.66,1.42,3.95"/>
              </g>
            </g>
          </g>
          <g class="cls-124">
            <g class="cls-116">
              <g class="cls-124">
                <path class="cls-74" d="m87.67,58.75l-4.24,26.06c-.52-.56-1.18-1.06-1.95-1.51l3.68-26.49c1,.58,1.85,1.23,2.51,1.95"/>
                <path class="cls-75" d="m85.16,56.8l-3.68,26.49c-.34-.2-.71-.39-1.09-.56l3.36-26.65c.49.23.96.47,1.4.72"/>
                <path class="cls-80" d="m83.76,56.08l-3.36,26.65c-.3-.14-.62-.27-.94-.39l3.09-26.76c.42.16.82.33,1.21.51"/>
                <path class="cls-81" d="m82.54,55.57l-3.09,26.76c-.29-.11-.59-.21-.89-.31l2.84-26.85c.39.13.77.26,1.14.4"/>
                <path class="cls-89" d="m81.4,55.17l-2.84,26.85c-.28-.09-.57-.18-.86-.26l2.59-26.93c.38.1.75.21,1.11.33"/>
                <path class="cls-88" d="m80.29,54.84l-2.59,26.93c-.28-.08-.56-.15-.85-.21l2.35-26.99c.37.08.73.18,1.09.27"/>
                <path class="cls-85" d="m79.2,54.57l-2.35,26.99c-.28-.06-.56-.12-.85-.18l2.11-27.04c.37.07.73.15,1.09.23"/>
                <path class="cls-87" d="m78.11,54.34l-2.11,27.04c-.28-.05-.57-.1-.85-.15l1.86-27.08c.37.06.74.12,1.1.19"/>
                <path class="cls-86" d="m77.01,54.15l-1.86,27.08c-.29-.04-.58-.08-.87-.12l1.62-27.11c.38.04.75.09,1.12.15"/>
                <path class="cls-92" d="m75.9,54l-1.62,27.11c-.29-.03-.59-.06-.89-.09l1.36-27.14c.38.03.77.07,1.14.11"/>
                <path class="cls-90" d="m74.75,53.89l-1.36,27.14c-.31-.02-.61-.04-.92-.06l1.1-27.15c.4.02.79.04,1.18.07"/>
                <path class="cls-72" d="m73.57,53.81l-1.1,27.15c-.32-.01-.65-.02-.97-.03l.82-27.16c.42,0,.83.01,1.25.03"/>
                <path class="cls-48" d="m72.32,53.78l-.82,27.16c-.35,0-.71,0-1.06.01l.52-27.16c.46-.02.91-.02,1.37-.02"/>
                <path class="cls-69" d="m70.95,53.8l-.52,27.16c-.42.01-.84.04-1.27.08l.15-27.13c.54-.05,1.08-.08,1.63-.1"/>
                <path class="cls-59" d="m69.32,53.9l-.15,27.13c-.67.06-1.34.15-2,.26l-.42-27.06c.85-.15,1.71-.26,2.57-.34"/>
                <path class="cls-51" d="m66.75,54.24l.42,27.06c-.1.02-.21.04-.31.06-.94.18-1.81.42-2.58.69l-1.25-26.85c1-.36,2.11-.66,3.32-.89.13-.03.26-.05.4-.07"/>
                <path class="cls-59" d="m63.03,55.2l1.25,26.85c-.59.21-1.12.44-1.61.7l-1.7-26.65c.62-.33,1.31-.63,2.06-.89"/>
                <path class="cls-69" d="m60.97,56.09l1.7,26.65c-.31.16-.61.34-.87.52l-1.95-26.5c.35-.23.72-.45,1.12-.67"/>
                <path class="cls-48" d="m59.84,56.76l1.95,26.5c-.22.15-.43.3-.62.46l-2.13-26.37c.24-.2.51-.4.8-.59"/>
                <path class="cls-72" d="m59.05,57.35l2.13,26.37c-.17.14-.32.28-.47.43l-2.26-26.24c.18-.19.38-.37.6-.56"/>
                <path class="cls-90" d="m58.45,57.91l2.26,26.24c-.13.14-.25.28-.36.42l-2.37-26.12c.14-.18.3-.36.47-.54"/>
                <path class="cls-92" d="m57.98,58.45l2.37,26.12c-.1.14-.2.27-.28.41l-2.45-26c.11-.18.23-.36.36-.53"/>
                <path class="cls-86" d="m57.62,58.98l2.45,26c-.08.14-.15.27-.21.41l-2.51-25.89c.08-.18.17-.36.27-.53"/>
                <path class="cls-87" d="m57.34,59.51l2.51,25.89c-.06.14-.11.28-.15.42l-2.55-25.77c.05-.18.12-.36.19-.54"/>
                <path class="cls-85" d="m57.15,60.05l2.55,25.77c-.04.14-.07.28-.09.43l-2.58-25.64c.02-.19.06-.37.11-.55"/>
                <path class="cls-88" d="m57.04,60.6l2.58,25.64c-.02.15-.03.3-.02.45l-2.59-25.52c0-.19,0-.38.03-.57"/>
                <path class="cls-89" d="m57.01,61.17l2.59,25.52c0,.07,0,.15.01.22l-2.58-25.45c0-.1-.02-.19-.02-.29"/>
              </g>
            </g>
          </g>
          <ellipse class="cls-58" cx="73.08" cy="61.56" rx="7.75" ry="16.08" transform="translate(8.73 132.18) rotate(-87.77)"/>
          <g class="cls-124">
            <g class="cls-121">
              <g class="cls-124">
                <path class="cls-74" d="m57.02,61.46l2.58,25.45c.08.75.44,1.52,1.13,2.26,1.01,1.09,2.58,1.99,4.46,2.65l-.98-24.05c-2.42-.84-4.44-2-5.74-3.4-.89-.96-1.36-1.94-1.46-2.91"/>
                <path class="cls-75" d="m64.22,67.77l.98,24.05c.48.17.97.32,1.48.45l-.56-23.92c-.66-.17-1.29-.36-1.91-.58"/>
                <path class="cls-80" d="m66.13,68.34l.56,23.92c.43.11.87.21,1.32.3l-.18-23.84c-.58-.11-1.15-.24-1.7-.39"/>
                <path class="cls-81" d="m67.83,68.73l.18,23.84c.41.08.83.15,1.26.21l.18-23.77c-.55-.08-1.09-.17-1.62-.27"/>
                <path class="cls-89" d="m69.45,69.01l-.18,23.77c.41.06.83.11,1.26.15l.54-23.73c-.54-.05-1.08-.11-1.62-.19"/>
                <path class="cls-88" d="m71.07,69.19l-.54,23.73c.43.04.87.07,1.31.09l.92-23.71c-.56-.02-1.12-.06-1.68-.11"/>
                <path class="cls-85" d="m72.75,69.3l-.92,23.71c.47.02.94.02,1.41.02l1.32-23.7c-.61,0-1.21,0-1.82-.02"/>
                <path class="cls-87" d="m74.56,69.33l-1.32,23.7c.56,0,1.12-.04,1.68-.08l1.8-23.73c-.72.06-1.44.09-2.16.11"/>
                <path class="cls-86" d="m76.73,69.22l-1.8,23.73c.81-.07,1.61-.17,2.39-.33.16-.03.32-.06.47-.1l2.62-23.85c-.2.04-.4.09-.61.12-1,.19-2.03.33-3.07.42"/>
                <path class="cls-92" d="m80.41,68.68l-2.62,23.85c.65-.14,1.26-.31,1.83-.5l3.14-23.99c-.73.24-1.51.46-2.35.64"/>
                <path class="cls-86" d="m82.76,68.04l-3.14,23.99c.81-.27,1.54-.59,2.16-.94l3.76-24.26c-.8.45-1.73.86-2.78,1.21"/>
                <path class="cls-87" d="m85.53,66.83l-3.76,24.26c.36-.2.69-.42.98-.64l4.04-24.44c-.38.29-.8.57-1.27.83"/>
                <path class="cls-85" d="m86.8,66l-4.04,24.44c.25-.19.47-.39.67-.59l4.23-24.61c-.26.26-.55.52-.87.76"/>
                <path class="cls-88" d="m87.67,65.24l-4.23,24.61c.18-.19.35-.38.49-.57l4.37-24.78c-.18.25-.39.5-.62.74"/>
                <path class="cls-89" d="m88.29,64.5l-4.37,24.78c.14-.19.25-.39.35-.58l4.47-24.94c-.12.26-.27.51-.45.75"/>
                <path class="cls-81" d="m88.74,63.75l-4.47,24.94c.1-.2.17-.41.22-.61l4.54-25.12c-.07.27-.16.53-.29.79"/>
                <path class="cls-80" d="m89.03,62.96l-4.54,25.12c.02-.07.03-.13.04-.2l4.55-25.18c-.02.09-.03.17-.06.26"/>
              </g>
            </g>
          </g>
          <ellipse class="cls-18" cx="73.11" cy="60.61" rx="8.34" ry="17.29" transform="translate(9.7 131.32) rotate(-87.77)"/>
          <path class="cls-5" d="m90.33,61.84c-.02.12-.06.24-.09.36-.07.25-.16.5-.27.74-.01.03-.03.06-.05.09-.11.22-.24.44-.39.65-.03.05-.06.09-.09.14-.17.23-.37.46-.58.69-.04.04-.09.08-.13.13-.25.25-.53.49-.83.73-.08.06-.16.12-.24.18-.12.09-.24.18-.37.26-.09.06-.19.12-.29.18-.13.08-.26.16-.4.24-.05.03-.11.06-.17.09-.4.22-.83.44-1.28.64,0,0-.02,0-.03.01-.46.2-.95.38-1.46.56-.06.02-.11.04-.17.06-.36.12-.73.23-1.12.34-.08.02-.17.04-.25.07-.31.08-.63.16-.95.23-.27.06-.53.12-.81.17-.86.17-1.74.28-2.63.38-.23.02-.45.05-.68.07-.69.06-1.39.09-2.08.1-.22,0-.45,0-.67,0-.38,0-.76,0-1.14-.01-.25,0-.49-.02-.74-.03-.33-.02-.66-.04-.98-.06-.25-.02-.51-.04-.76-.06-.31-.03-.63-.07-.94-.11-.25-.03-.5-.06-.74-.1-.34-.05-.67-.11-1-.17-.22-.04-.44-.08-.66-.12-.51-.1-1.01-.22-1.51-.34-.06-.02-.13-.03-.19-.04-.63-.16-1.23-.35-1.82-.55-.3-.1-.6-.2-.88-.31-.07-.03-.14-.05-.21-.08-.39-.15-.77-.32-1.14-.49-.09-.04-.18-.09-.28-.13-.29-.14-.57-.29-.85-.44-.08-.05-.17-.09-.25-.14-.33-.19-.65-.39-.95-.59-.06-.04-.11-.08-.16-.12-.25-.17-.48-.36-.71-.54-.07-.06-.15-.12-.22-.18-.26-.23-.51-.46-.73-.7-.95-1.03-1.46-2.09-1.57-3.12.92,9.11,1.85,18.22,2.77,27.34.08.81.48,1.63,1.22,2.43.24.26.53.51.83.75.08.07.17.13.26.2.25.19.52.37.81.54.08.05.15.1.23.14.36.21.75.41,1.15.59.09.04.19.08.29.12.33.14.68.28,1.03.41.07.03.13.06.21.08.05.02.11.03.16.05.46.16.93.3,1.42.43,0,0,0,0,.01,0,.04.01.09.02.13.03.38.1.77.19,1.17.27.04,0,.08.02.12.03.13.03.27.04.4.07.26.05.51.09.78.13.06,0,.12.02.18.03.13.02.27.03.4.05.24.03.48.06.73.08.08,0,.15.02.23.03.12.01.24.01.36.02.25.02.51.04.76.05.09,0,.18.01.28.02.1,0,.2,0,.3,0,.29,0,.59.01.88.01.11,0,.22,0,.34,0,.06,0,.12,0,.19,0,.54-.01,1.08-.03,1.62-.08,0,0,0,0,0,0,.38-.03.75-.07,1.12-.12.06,0,.12-.01.18-.02.43-.06.86-.13,1.28-.21.17-.03.33-.07.49-.1.38-.08.74-.17,1.09-.27.05-.01.1-.03.15-.05.26-.07.51-.15.76-.23.11-.04.2-.08.31-.12.19-.07.38-.14.56-.21.24-.1.48-.2.7-.31.17-.08.33-.16.49-.24.08-.04.18-.08.25-.13.11-.06.19-.13.29-.19.19-.12.38-.24.56-.36.07-.05.15-.09.21-.14.1-.07.17-.15.26-.23.11-.09.22-.18.32-.28.05-.04.1-.09.15-.13.11-.12.2-.24.3-.36.06-.07.12-.13.17-.2.02-.02.04-.04.05-.06.15-.21.27-.42.38-.63,0,0,0-.02.01-.03.02-.05.03-.1.05-.15.07-.16.14-.32.18-.48.02-.07.03-.14.05-.22,0,0,0,0,0,0l4.88-27.04Z"/>
        </g>
        <g class="cls-124">
          <path class="cls-61" d="m84.68,56.21c3.09,3.34.16,7.09-6.56,8.38-6.72,1.29-14.67-.36-17.77-3.7s-.16-7.09,6.56-8.38,14.67.36,17.77,3.7Zm-11.88,2.29c-.07-.08-.26-.12-.41-.09s-.22.12-.15.19.26.12.41.09.22-.12.15-.19"/>
          <g class="cls-124">
            <g class="cls-115">
              <g class="cls-124">
                <path class="cls-76" d="m72.86,57.62l-.04.94s0-.04-.03-.07l.04-.94s.03.04.03.07"/>
              </g>
            </g>
          </g>
          <g class="cls-124">
            <g class="cls-114">
              <g class="cls-124">
                <path class="cls-76" d="m72.84,57.56l-.04.94s-.05-.04-.08-.05l.04-.94s.06.03.08.05"/>
                <path class="cls-82" d="m72.76,57.5l-.04.94s-.02,0-.03-.01l.04-.94s.02,0,.03.01"/>
                <path class="cls-84" d="m72.73,57.49l-.04.94s-.02,0-.03,0l.04-.94s.02,0,.03,0"/>
                <path class="cls-62" d="m72.7,57.48l-.04.94s-.02,0-.03,0l.04-.94s.02,0,.03,0"/>
                <path class="cls-50" d="m72.68,57.48l-.04.94s-.02,0-.03,0l.04-.94s.02,0,.03,0"/>
                <path class="cls-39" d="m72.65,57.47l-.04.94s-.02,0-.02,0l.04-.94s.02,0,.02,0"/>
                <path class="cls-45" d="m72.63,57.47l-.04.94s-.02,0-.03,0l.04-.94s.02,0,.03,0"/>
                <path class="cls-46" d="m72.6,57.46l-.04.94s-.02,0-.03,0l.04-.94s.02,0,.03,0"/>
                <path class="cls-44" d="m72.57,57.46l-.04.94s-.02,0-.03,0l.04-.94s.02,0,.03,0"/>
                <path class="cls-63" d="m72.55,57.46l-.04.94s-.02,0-.03,0l.04-.94s.02,0,.03,0"/>
                <path class="cls-55" d="m72.52,57.46l-.04.94s-.02,0-.04,0l.04-.94s.02,0,.04,0"/>
                <path class="cls-73" d="m72.48,57.46l-.04.94s-.04,0-.05,0c0,0,0,0,0,0l.04-.94s0,0,0,0c.02,0,.04,0,.05,0"/>
                <path class="cls-53" d="m72.41,57.47l-.04.94s-.03,0-.05.01l.04-.94s.03,0,.05-.01"/>
                <path class="cls-73" d="m72.37,57.48l-.04.94s-.03.01-.05.02l.04-.94s.03-.01.05-.02"/>
                <path class="cls-55" d="m72.32,57.51l-.04.94s-.02,0-.02.01l.04-.94s.01,0,.02-.01"/>
                <path class="cls-63" d="m72.3,57.52l-.04.94s-.01,0-.02.01l.04-.94s.01,0,.02-.01"/>
                <path class="cls-44" d="m72.28,57.53l-.04.94s0,0-.01.01l.04-.94s0,0,.01-.01"/>
                <path class="cls-46" d="m72.27,57.54l-.04.94s0,0,0,.01l.04-.94s0,0,0-.01"/>
                <path class="cls-45" d="m72.26,57.56l-.04.94s0,0,0,.01l.04-.94s0,0,0-.01"/>
                <path class="cls-39" d="m72.25,57.57l-.04.94s0,0,0,.01l.04-.94s0,0,0-.01"/>
                <path class="cls-50" d="m72.25,57.58l-.04.94s0,0,0,.01l.04-.94s0,0,0-.01"/>
                <polyline class="cls-62" points="72.24 57.59 72.21 58.53 72.21 58.54 72.24 57.6 72.24 57.59"/>
              </g>
            </g>
          </g>
          <g class="cls-124">
            <g class="cls-113">
              <g class="cls-124">
                <path class="cls-76" d="m72.24,57.6l-.04.94s0,.04.03.07c.02.02.05.04.08.05l.04-.94s-.06-.03-.08-.05c-.02-.02-.03-.04-.03-.07"/>
                <path class="cls-82" d="m72.35,57.72l-.04.94s.02,0,.03.01l.04-.94s-.02,0-.03-.01"/>
                <path class="cls-84" d="m72.38,57.73l-.04.94s.02,0,.03,0l.04-.94s-.02,0-.03,0"/>
                <path class="cls-62" d="m72.41,57.74l-.04.94s.02,0,.03,0l.04-.94s-.02,0-.03,0"/>
                <path class="cls-50" d="m72.43,57.74l-.04.94s.02,0,.03,0l.04-.94s-.02,0-.03,0"/>
                <path class="cls-39" d="m72.46,57.75l-.04.94s.02,0,.02,0l.04-.94s-.02,0-.02,0"/>
                <path class="cls-45" d="m72.48,57.75l-.04.94s.02,0,.03,0l.04-.94s-.02,0-.03,0"/>
                <path class="cls-46" d="m72.51,57.76l-.04.94s.02,0,.03,0l.04-.94s-.02,0-.03,0"/>
                <path class="cls-44" d="m72.54,57.76l-.04.94s.02,0,.03,0l.04-.94s-.02,0-.03,0"/>
                <path class="cls-63" d="m72.56,57.76l-.04.94s.02,0,.03,0l.04-.94s-.02,0-.03,0"/>
                <path class="cls-55" d="m72.59,57.76l-.04.94s.02,0,.04,0l.04-.94s-.02,0-.04,0"/>
                <path class="cls-73" d="m72.63,57.76l-.04.94s.04,0,.05,0c0,0,0,0,0,0l.04-.94s0,0,0,0c-.02,0-.04,0-.05,0"/>
                <path class="cls-53" d="m72.69,57.75l-.04.94s.03,0,.05-.01l.04-.94s-.03,0-.05.01"/>
                <path class="cls-73" d="m72.74,57.73l-.04.94s.03-.01.05-.02l.04-.94s-.03.01-.05.02"/>
                <path class="cls-55" d="m72.79,57.71l-.04.94s.02,0,.02-.01l.04-.94s-.01,0-.02.01"/>
                <path class="cls-63" d="m72.81,57.7l-.04.94s.01,0,.02-.01l.04-.94s-.01,0-.02.01"/>
                <path class="cls-44" d="m72.83,57.69l-.04.94s0,0,.01-.01l.04-.94s0,0-.01.01"/>
                <path class="cls-46" d="m72.84,57.67l-.04.94s0,0,0-.01l.04-.94s0,0,0,.01"/>
                <path class="cls-45" d="m72.85,57.66l-.04.94s0,0,0-.01l.04-.94s0,0,0,.01"/>
                <path class="cls-39" d="m72.86,57.65l-.04.94s0,0,0-.01l.04-.94s0,0,0,.01"/>
                <path class="cls-50" d="m72.86,57.64l-.04.94s0,0,0-.01l.04-.94s0,0,0,.01"/>
                <polyline class="cls-62" points="72.86 57.63 72.83 58.57 72.83 58.56 72.86 57.62 72.86 57.63"/>
              </g>
            </g>
          </g>
          <g class="cls-124">
            <g class="cls-117">
              <g class="cls-124">
                <path class="cls-76" d="m85.78,59.87l4.51-14.89c.46-1.53.04-3.17-1.42-4.74l-4.18,15.97c1.12,1.21,1.45,2.48,1.09,3.66"/>
              </g>
            </g>
          </g>
          <g class="cls-124">
            <g class="cls-119">
              <g class="cls-124">
                <path class="cls-76" d="m84.68,56.21l4.18-15.97c-.46-.5-1.01-.97-1.62-1.4l-3.81,16.29c.48.34.9.7,1.25,1.08"/>
                <path class="cls-82" d="m83.43,55.13l3.81-16.29c-.42-.3-.87-.58-1.35-.84l-3.51,16.48c.37.21.72.42,1.04.65"/>
                <path class="cls-84" d="m82.39,54.47l3.51-16.48c-.38-.21-.77-.41-1.18-.6l-3.24,16.62c.32.15.62.3.91.46"/>
                <path class="cls-62" d="m81.48,54.01l3.24-16.62c-.36-.17-.73-.32-1.11-.47l-2.99,16.73c.29.12.58.24.86.37"/>
                <path class="cls-50" d="m80.62,53.64l2.99-16.73c-.35-.14-.71-.27-1.07-.4l-2.74,16.82c.28.1.56.2.83.31"/>
                <path class="cls-39" d="m79.79,53.34l2.74-16.82c-.35-.12-.7-.23-1.06-.34l-2.5,16.89c.28.08.55.17.82.26"/>
                <path class="cls-45" d="m78.98,53.08l2.5-16.89c-.34-.1-.69-.2-1.05-.29l-2.26,16.96c.27.07.55.14.81.22"/>
                <path class="cls-46" d="m78.16,52.85l2.26-16.96c-.34-.09-.69-.17-1.05-.25l-2.02,17.01c.27.06.54.12.81.19"/>
                <path class="cls-44" d="m77.35,52.66l2.02-17.01c-.35-.08-.7-.15-1.06-.21l-1.78,17.06c.28.05.55.1.82.16"/>
                <path class="cls-63" d="m76.54,52.5l1.78-17.06c-.35-.06-.71-.12-1.06-.18l-1.54,17.1c.28.04.55.09.82.14"/>
                <path class="cls-55" d="m75.72,52.37l1.54-17.1c-.35-.05-.71-.1-1.07-.14l-1.29,17.13c.28.03.55.07.82.11"/>
                <path class="cls-73" d="m74.89,52.26l1.29-17.13c-.35-.04-.71-.08-1.07-.11l-1.05,17.16c.28.02.55.05.82.08"/>
                <path class="cls-53" d="m74.07,52.17l1.05-17.16c-.35-.03-.71-.06-1.06-.08l-.81,17.18c.27.02.55.04.82.06"/>
                <path class="cls-43" d="m73.25,52.11l.81-17.18c-.35-.02-.71-.03-1.07-.04l-.57,17.19c.27,0,.55.02.82.03"/>
                <path class="cls-41" d="m72.42,52.08l.57-17.19c-.37,0-.73-.01-1.1-.01l-.32,17.19c.28,0,.57,0,.85,0"/>
                <path class="cls-40" d="m71.58,52.07l.32-17.19c-.39,0-.79,0-1.18.02l-.05,17.18c.3-.01.61-.02.91-.02"/>
                <path class="cls-99" d="m70.67,52.09l.05-17.18c-.47.02-.94.05-1.41.08l.27,17.17c.36-.03.73-.05,1.09-.06"/>
                <path class="cls-100" d="m69.58,52.15l-.27-17.17c-.84.07-1.68.17-2.5.3l.84,17.1c.64-.1,1.28-.18,1.93-.23"/>
                <path class="cls-97" d="m67.64,52.38l-.84-17.1c-.32.05-.63.11-.94.17-.54.1-1.05.22-1.55.34l1.41,16.98c.38-.1.78-.19,1.2-.27.24-.05.48-.09.73-.13"/>
                <path class="cls-100" d="m65.72,52.78l-1.41-16.98c-1.17.3-2.23.65-3.18,1.06l2.14,16.74c.73-.32,1.55-.59,2.45-.82"/>
                <path class="cls-99" d="m63.27,53.6l-2.14-16.74c-.54.23-1.05.49-1.52.75l2.48,16.57c.36-.21.75-.4,1.17-.58"/>
                <path class="cls-40" d="m62.09,54.18l-2.48-16.57c-.36.21-.7.42-1.02.65l2.71,16.42c.24-.17.51-.34.79-.5"/>
                <path class="cls-41" d="m61.31,54.68l-2.71-16.42c-.27.19-.52.39-.75.59l2.88,16.29c.18-.15.37-.31.58-.45"/>
                <path class="cls-43" d="m60.73,55.13l-2.88-16.29c-.21.18-.4.37-.58.56l3.02,16.16c.14-.15.29-.29.45-.43"/>
                <path class="cls-53" d="m60.28,55.56l-3.02-16.16c-.17.18-.32.36-.46.54l3.12,16.04c.11-.14.23-.28.36-.42"/>
                <path class="cls-73" d="m59.92,55.98l-3.12-16.04c-.13.17-.26.35-.36.53l3.2,15.92c.08-.14.18-.28.28-.41"/>
                <path class="cls-55" d="m59.64,56.39l-3.2-15.92c-.11.17-.2.35-.28.53l3.27,15.8c.06-.14.13-.27.22-.41"/>
                <path class="cls-63" d="m59.43,56.79l-3.27-15.8c-.08.17-.15.35-.2.53l3.31,15.68c.04-.14.1-.27.16-.41"/>
                <path class="cls-44" d="m59.27,57.2l-3.31-15.68c-.06.18-.1.36-.13.54l3.34,15.55c.02-.14.06-.28.1-.41"/>
                <path class="cls-46" d="m59.17,57.62l-3.34-15.55c-.03.18-.05.36-.06.55l3.36,15.43c0-.14.02-.28.04-.42"/>
                <path class="cls-45" d="m59.12,58.04l-3.36-15.43c0,.19,0,.38.02.56l3.35,15.3c-.01-.15-.02-.29-.01-.44"/>
                <path class="cls-39" d="m59.14,58.47l-3.35-15.3c.02.16.04.32.08.47l3.34,15.19c-.03-.12-.05-.24-.06-.37"/>
              </g>
            </g>
          </g>
          <g class="cls-124">
            <g class="cls-118">
              <g class="cls-124">
                <path class="cls-76" d="m88.91,45.79l-3.94,13.06c.33-1.11.03-2.29-1.02-3.42l3.66-14c1.34,1.45,1.73,2.96,1.31,4.37"/>
              </g>
            </g>
          </g>
          <path class="cls-61" d="m83.95,55.42c2.9,3.12.15,6.64-6.15,7.85-6.29,1.21-13.74-.34-16.64-3.46-2.9-3.12-.15-6.64,6.15-7.85s13.74.34,16.64,3.46Zm-11.11,2.14c-.07-.08-.26-.12-.41-.09s-.22.12-.15.19.26.12.41.09.22-.12.15-.19"/>
          <g class="cls-124">
            <g class="cls-122">
              <g class="cls-124">
                <path class="cls-76" d="m87.61,41.42l-3.66,14c-.33-.36-.73-.7-1.18-1.02l3.34-14.28c.57.4,1.07.84,1.5,1.3"/>
                <path class="cls-82" d="m86.11,40.12l-3.34,14.28c-.3-.21-.63-.42-.97-.61l3.07-14.45c.44.25.86.51,1.24.78"/>
                <path class="cls-84" d="m84.86,39.34l-3.07,14.45c-.27-.15-.56-.3-.86-.43l2.83-14.57c.38.18.74.36,1.09.55"/>
                <path class="cls-62" d="m83.77,38.79l-2.83,14.57c-.26-.12-.53-.23-.8-.34l2.61-14.66c.35.14.69.28,1.02.44"/>
                <path class="cls-50" d="m82.75,38.35l-2.61,14.66c-.25-.1-.51-.2-.78-.29l2.4-14.74c.34.12.67.24.99.36"/>
                <path class="cls-39" d="m81.76,37.98l-2.4,14.74c-.25-.09-.51-.17-.77-.24l2.19-14.81c.33.1.66.2.98.31"/>
                <path class="cls-45" d="m80.78,37.67l-2.19,14.81c-.25-.07-.5-.14-.76-.21l1.98-14.87c.33.08.65.17.97.27"/>
                <path class="cls-46" d="m79.81,37.41l-1.98,14.87c-.25-.06-.5-.12-.76-.18l1.77-14.91c.33.07.65.15.97.23"/>
                <path class="cls-44" d="m78.85,37.18l-1.77,14.91c-.25-.05-.51-.11-.76-.15l1.56-14.96c.33.06.65.12.98.19"/>
                <path class="cls-63" d="m77.87,36.99l-1.56,14.96c-.25-.05-.51-.09-.77-.13l1.34-14.99c.33.05.66.1.98.16"/>
                <path class="cls-55" d="m76.89,36.83l-1.34,14.99c-.26-.04-.51-.07-.77-.1l1.13-15.02c.33.04.66.08.99.13"/>
                <path class="cls-73" d="m75.9,36.7l-1.13,15.02c-.26-.03-.51-.06-.77-.08l.92-15.04c.33.03.66.06.99.1"/>
                <path class="cls-53" d="m74.92,36.6l-.92,15.04c-.25-.02-.51-.04-.77-.05l.71-15.06c.33.02.65.04.98.07"/>
                <path class="cls-43" d="m73.94,36.53l-.71,15.06c-.26-.01-.51-.03-.77-.03l.49-15.06c.33,0,.66.02.98.04"/>
                <path class="cls-41" d="m72.95,36.48l-.49,15.06c-.26,0-.53,0-.8,0l.27-15.07c.34,0,.68,0,1.01.01"/>
                <path class="cls-40" d="m71.94,36.47l-.27,15.07c-.29,0-.57,0-.86.02l.04-15.06c.36-.01.73-.02,1.09-.02"/>
                <path class="cls-99" d="m70.85,36.5l-.04,15.06c-.34.01-.68.03-1.03.06l-.24-15.05c.43-.03.87-.06,1.31-.08"/>
                <path class="cls-100" d="m69.54,36.57l.24,15.05c-.63.05-1.26.13-1.87.23l-.76-14.98c.79-.13,1.59-.22,2.39-.29"/>
                <path class="cls-97" d="m67.15,36.86l.76,14.98c-.2.03-.4.07-.6.11-.37.07-.73.15-1.07.24l-1.22-14.89c.44-.11.9-.21,1.37-.3.25-.05.51-.09.76-.14"/>
                <path class="cls-100" d="m65.02,37.3l1.22,14.89c-.86.22-1.64.48-2.33.77l-1.86-14.68c.89-.38,1.88-.71,2.97-.99"/>
                <path class="cls-99" d="m62.04,38.29l1.86,14.68c-.4.17-.76.35-1.1.54l-2.17-14.53c.43-.25.9-.48,1.41-.69"/>
                <path class="cls-40" d="m60.64,38.98l2.17,14.53c-.26.15-.51.31-.74.47l-2.37-14.4c.29-.21.61-.41.94-.6"/>
                <path class="cls-41" d="m59.69,39.58l2.37,14.4c-.19.14-.37.28-.54.42l-2.52-14.28c.21-.18.44-.37.69-.54"/>
                <path class="cls-43" d="m59,40.12l2.52,14.28c-.15.13-.29.27-.42.4l-2.64-14.17c.17-.17.35-.35.54-.51"/>
                <path class="cls-53" d="m58.46,40.64l2.64,14.17c-.12.13-.23.26-.34.39l-2.73-14.06c.13-.17.27-.34.43-.5"/>
                <path class="cls-73" d="m58.03,41.13l2.73,14.06c-.1.13-.18.25-.26.38l-2.8-13.95c.1-.17.21-.33.34-.49"/>
                <path class="cls-55" d="m57.7,41.62l2.8,13.95c-.08.13-.14.25-.2.38l-2.86-13.85c.07-.16.16-.33.26-.49"/>
                <path class="cls-63" d="m57.44,42.11l2.86,13.85c-.06.13-.11.25-.15.38l-2.9-13.74c.05-.16.11-.33.19-.49"/>
                <path class="cls-44" d="m57.25,42.6l2.9,13.74c-.04.13-.07.26-.1.39l-2.93-13.64c.03-.17.07-.33.12-.49"/>
                <path class="cls-46" d="m57.13,43.09l2.93,13.64c-.02.13-.04.26-.04.4l-2.94-13.53c0-.17.02-.34.05-.5"/>
                <path class="cls-45" d="m57.07,43.6l2.94,13.53c0,.14,0,.27.01.41l-2.93-13.42c-.02-.17-.02-.35-.02-.52"/>
                <path class="cls-39" d="m57.09,44.12l2.93,13.42c.01.11.03.23.06.34l-2.92-13.32c-.03-.15-.06-.29-.07-.44"/>
              </g>
            </g>
          </g>
          <ellipse class="cls-61" cx="73.08" cy="44.21" rx="7.72" ry="16.01" transform="translate(26.05 115.52) rotate(-87.77)"/>
          <g class="cls-124">
            <g class="cls-120">
              <g class="cls-124">
                <path class="cls-76" d="m57.16,44.56l2.92,13.32c.14.64.5,1.29,1.08,1.92,1.25,1.35,3.35,2.41,5.85,3.07l-1.01-11.94c-3.18-.85-5.86-2.2-7.46-3.92-.75-.81-1.2-1.64-1.38-2.46"/>
                <path class="cls-82" d="m66,50.93l1.01,11.94c.57.15,1.17.29,1.78.4l-.52-11.83c-.78-.14-1.54-.31-2.27-.51"/>
                <path class="cls-84" d="m68.27,51.44l.52,11.83c.53.1,1.06.18,1.61.24l-.07-11.77c-.69-.08-1.38-.18-2.05-.3"/>
                <path class="cls-62" d="m70.32,51.74l.07,11.77c.52.06,1.05.1,1.59.13l.36-11.73c-.68-.04-1.36-.09-2.03-.17"/>
                <path class="cls-50" d="m72.35,51.91l-.36,11.73c.56.03,1.13.04,1.7.03l.83-11.72c-.73.01-1.45,0-2.17-.04"/>
                <path class="cls-39" d="m74.52,51.95l-.83,11.72c.69,0,1.37-.05,2.06-.11l1.4-11.75c-.87.08-1.75.13-2.62.14"/>
                <path class="cls-45" d="m77.14,51.81l-1.4,11.75c.69-.07,1.38-.17,2.06-.3,1.68-.32,3.11-.81,4.24-1.41l3.14-12.22c-1.45.77-3.27,1.39-5.41,1.8-.86.17-1.74.29-2.62.38"/>
                <path class="cls-39" d="m85.18,49.63l-3.14,12.22c.46-.24.88-.51,1.24-.79l3.48-12.44c-.46.36-.99.69-1.58,1"/>
                <path class="cls-50" d="m86.76,48.63l-3.48,12.44c.3-.23.56-.47.79-.72l3.7-12.64c-.29.32-.63.62-1,.91"/>
                <path class="cls-62" d="m87.77,47.71l-3.7,12.64c.21-.23.39-.47.54-.72l3.84-12.84c-.19.31-.42.62-.69.91"/>
                <path class="cls-84" d="m88.46,46.8l-3.84,12.84c.15-.25.27-.51.35-.77l3.94-13.05c-.1.33-.25.66-.45.98"/>
                <path class="cls-82" d="m88.9,45.82l-3.94,13.05s0-.02,0-.03l3.94-13.06s0,.02-.01.03"/>
              </g>
            </g>
          </g>
          <ellipse class="cls-14" cx="73.11" cy="43.27" rx="8.37" ry="17.36" transform="translate(27.03 114.65) rotate(-87.77)"/>
          <path class="cls-7" d="m90.21,45.17c-.04.12-.08.23-.13.35-.03.07-.07.13-.1.2-.05.1-.1.21-.16.31-.04.07-.09.15-.14.22-.06.09-.12.18-.18.27-.05.07-.11.15-.17.22-.07.09-.14.18-.22.26-.06.07-.13.13-.19.2-.09.1-.19.19-.29.29-.07.07-.14.13-.22.2-.11.09-.21.18-.33.27-.07.06-.15.12-.22.17-.21.16-.43.31-.66.46-.02.02-.04.03-.07.05-.26.16-.53.32-.82.47-.07.04-.14.07-.21.11-.35.18-.72.36-1.12.53,0,0,0,0-.01,0-.4.17-.82.32-1.25.47-.08.03-.16.06-.24.08-.43.14-.87.27-1.33.39-.09.02-.18.04-.27.07-.49.12-.98.24-1.51.34-.51.1-1.02.18-1.54.25-.17.02-.34.04-.51.06-.31.04-.63.07-.95.1-.82.08-1.65.12-2.47.14-.18,0-.37,0-.55,0-.56,0-1.12,0-1.67-.03-.16,0-.33,0-.49-.02-.66-.04-1.32-.09-1.98-.16-.12-.01-.23-.03-.34-.05-.56-.07-1.12-.15-1.67-.25-.18-.03-.36-.06-.54-.1-.74-.14-1.47-.3-2.17-.48-.46-.12-.91-.25-1.36-.4-.1-.03-.19-.07-.29-.1-.34-.11-.68-.23-1.01-.36-.15-.06-.3-.12-.45-.18-.27-.11-.53-.22-.78-.34-.16-.07-.31-.15-.46-.22-.24-.12-.47-.23-.69-.36-.15-.08-.29-.16-.43-.24-.22-.13-.43-.26-.63-.39-.13-.08-.25-.16-.38-.25-.21-.15-.41-.31-.61-.46-.09-.08-.2-.15-.29-.23-.28-.24-.54-.48-.77-.74-.81-.87-1.3-1.77-1.5-2.66,1.11,5.06,2.22,10.13,3.34,15.19.15.69.53,1.38,1.16,2.05.18.2.38.38.6.57.07.06.15.12.22.18.15.12.31.24.47.36.09.07.19.13.29.19.16.1.32.21.49.3.11.06.22.12.33.19.17.09.35.19.54.28.12.06.23.11.35.17.2.09.4.18.61.26.11.05.22.09.34.14.26.1.52.19.79.28.07.02.14.05.22.08.33.11.67.21,1.01.3.01,0,.02,0,.04,0,.54.14,1.1.27,1.68.37.07.01.13.03.19.04.07.01.15.02.22.03.42.07.85.14,1.29.19.07,0,.14.02.21.03.02,0,.04,0,.06,0,.5.06,1.01.1,1.52.13.04,0,.08,0,.12,0,.09,0,.18,0,.26,0,.43.02.86.03,1.29.02.09,0,.18,0,.27,0,.05,0,.11,0,.16,0,.64-.01,1.28-.05,1.91-.11.04,0,.09,0,.13,0,.07,0,.13-.02.2-.03.66-.07,1.32-.16,1.97-.28.5-.1.97-.21,1.42-.33.15-.04.28-.08.43-.13.3-.09.59-.18.87-.28.15-.05.3-.11.44-.17.25-.1.5-.2.73-.31.14-.06.27-.12.4-.19.07-.04.15-.07.22-.1.22-.12.43-.24.64-.37.02-.01.04-.02.06-.03.23-.14.44-.29.64-.44.04-.03.06-.06.1-.09.19-.15.35-.31.52-.47.07-.07.16-.13.23-.21.02-.02.03-.04.05-.06.13-.14.23-.29.33-.44.06-.09.15-.17.2-.26,0-.01.01-.03.02-.04.11-.19.19-.39.27-.59.02-.06.07-.12.09-.19,0-.01,0-.02,0-.03,1.5-4.96,3-9.93,4.51-14.89-.02.07-.05.13-.07.2Z"/>
        </g>
        <g class="cls-124">
          <path class="cls-37" d="m60.86,25.95c-1.07.62-1.92,1.32-2.58,2.06l-.97-.56c.69-.73,1.55-1.42,2.61-2.04,1.03-.6,2.17-1.09,3.38-1.48l.96.56c-1.22.38-2.38.87-3.41,1.46Z"/>
        </g>
        <g class="cls-124">
          <polygon class="cls-98" points="94.54 40.05 96.07 39.72 98.55 40.29 97.02 40.62 94.54 40.05"/>
          <polygon class="cls-56" points="98.24 43.88 99.78 43.55 98.52 46.25 96.99 46.58 98.24 43.88"/>
          <polygon class="cls-70" points="97.02 40.62 98.55 40.29 99.78 43.55 98.24 43.88 97.02 40.62"/>
          <polygon class="cls-94" points="97.02 40.62 98.24 43.88 96.99 46.58 94.51 46.01 93.29 42.74 94.54 40.05 97.02 40.62"/>
        </g>
        <g class="cls-124">
          <polygon class="cls-78" points="56.59 31.42 58.14 31.08 95.84 40.29 94.3 40.63 56.59 31.42"/>
          <g class="cls-124">
            <g class="cls-111">
              <g class="cls-124">
                <path class="cls-96" d="m94.3,40.63l1.55-.34s.02,0,.03,0l-1.55.34s-.02,0-.03,0"/>
                <path class="cls-71" d="m94.33,40.64l1.55-.34s.1.03.15.05l-1.55.34s-.1-.03-.15-.05"/>
                <path class="cls-79" d="m94.48,40.68l1.55-.34c.05.02.11.04.16.06l-1.55.34c-.05-.02-.11-.05-.16-.06"/>
                <path class="cls-77" d="m94.64,40.75l1.55-.34c.06.03.12.06.18.09l-1.55.34c-.06-.03-.12-.06-.18-.09"/>
                <path class="cls-67" d="m94.81,40.84l1.55-.34c.07.04.14.08.21.13l-1.55.34c-.07-.05-.14-.09-.21-.13"/>
                <path class="cls-68" d="m95.02,40.97l1.55-.34c.11.08.21.16.31.25l-1.55.34c-.1-.09-.2-.18-.31-.25"/>
                <path class="cls-66" d="m95.32,41.22l1.55-.34c.18.18.35.38.51.61l-1.55.34c-.15-.23-.32-.44-.51-.61"/>
                <path class="cls-68" d="m95.83,41.83l1.55-.34c.08.13.16.26.23.4l-1.55.34c-.07-.14-.15-.27-.23-.4"/>
                <path class="cls-67" d="m96.06,42.23l1.55-.34c.05.09.09.18.13.28l-1.55.34c-.04-.09-.08-.19-.13-.28"/>
                <path class="cls-77" d="m96.19,42.51l1.55-.34c.03.08.06.16.09.24l-1.55.34c-.03-.08-.06-.16-.09-.24"/>
                <path class="cls-79" d="m96.28,42.74l1.55-.34c.03.07.05.14.07.22l-1.55.34c-.02-.07-.05-.14-.07-.22"/>
                <path class="cls-71" d="m96.36,42.96l1.55-.34c.02.07.04.13.06.2l-1.55.34c-.02-.07-.04-.14-.06-.2"/>
                <path class="cls-96" d="m96.41,43.16l1.55-.34c.02.06.03.13.05.2l-1.55.34c-.01-.07-.03-.13-.05-.2"/>
                <path class="cls-47" d="m96.46,43.36l1.55-.34c.01.06.03.12.04.19l-1.55.34c-.01-.06-.02-.13-.04-.19"/>
                <path class="cls-95" d="m96.5,43.54l1.55-.34c.01.06.02.12.03.19l-1.55.34c0-.06-.02-.13-.03-.19"/>
                <path class="cls-64" d="m96.53,43.73l1.55-.34c0,.06.02.12.02.19l-1.55.34c0-.06-.01-.13-.02-.19"/>
                <path class="cls-54" d="m96.55,43.92l1.55-.34c0,.06.01.13.01.19l-1.55.34c0-.06,0-.13-.01-.19"/>
                <path class="cls-49" d="m96.57,44.11l1.55-.34c0,.06,0,.13,0,.2l-1.55.34c0-.07,0-.13,0-.2"/>
                <path class="cls-57" d="m96.57,44.3l1.55-.34s0,.06,0,.09c0,.04,0,.08,0,.11l-1.55.34s0-.08,0-.11c0-.03,0-.06,0-.09"/>
                <path class="cls-52" d="m96.57,44.51l1.55-.34c0,.07,0,.14-.01.21l-1.55.34c0-.07,0-.14.01-.21"/>
                <path class="cls-60" d="m96.56,44.72l1.55-.34c0,.08-.01.15-.02.22l-1.55.34c0-.07.02-.15.02-.22"/>
                <path class="cls-48" d="m96.54,44.94l1.55-.34c-.01.08-.03.17-.04.25l-1.55.34c.02-.08.03-.16.04-.25"/>
                <path class="cls-91" d="m96.49,45.19l1.55-.34c-.02.1-.05.21-.07.3l-1.55.34c.03-.1.05-.2.07-.3"/>
                <path class="cls-93" d="m96.42,45.49l1.55-.34c-.25.84-.78,1.42-1.43,1.56l-1.55.34c.66-.14,1.19-.72,1.43-1.56"/>
              </g>
            </g>
          </g>
          <path class="cls-65" d="m94.3,40.63c1.26.31,2.29,1.99,2.28,3.77,0,1.77-1.05,2.95-2.31,2.64l-37.7-9.21.03-6.41,37.7,9.21Z"/>
        </g>
        <g class="cls-124">
          <g class="cls-124">
            <g class="cls-112">
              <g class="cls-124">
                <path class="cls-93" d="m45.29,95.48l3.66-4.42c0,.1-.13,1.42-1.36,2.91l-3.66,4.42c1.23-1.49,1.36-2.82,1.36-2.91"/>
              </g>
            </g>
          </g>
          <polygon class="cls-15" points="54.27 34.26 57.94 29.83 48.96 91.06 45.29 95.48 54.27 34.26"/>
          <path class="cls-8" d="m49.73,22.67s-.04-.03-.06-.05c-.06-.05-.11-.09-.17-.13-.07-.05-.14-.1-.21-.14,0,0,0,0-.01,0-.01,0-.02-.01-.04-.02-.08-.05-.17-.1-.25-.14-.04-.02-.08-.03-.12-.05-.06-.03-.12-.05-.18-.07-.09-.03-.19-.06-.28-.08-.06-.01-.12-.03-.18-.04-.03,0-.06-.02-.09-.02-.11-.02-.22-.02-.33-.03,0,0,0,0,0,0-.08,0-.15,0-.23,0-.07,0-.13.01-.19.02-.02,0-.05,0-.07.01,0,0-.02,0-.03,0-.02,0-.05,0-.07.01-.05.01-.1.02-.15.04-.05.01-.1.03-.14.05-.03.01-.06.02-.09.04,0,0,0,0-.01,0,0,0-.02,0-.03.01-.04.02-.08.04-.13.06-.04.02-.08.04-.12.07s-.08.05-.11.08c0,0-.02.01-.02.02,0,0,0,0-.01,0-.02.02-.05.04-.07.06-.04.03-.07.06-.11.09-.04.03-.07.07-.11.11-.02.02-.04.05-.06.07l-3.66,4.42c.1-.12.22-.23.35-.33,0,0,0,0,.01,0,.13-.09.27-.17.41-.23,0,0,0,0,.01,0,.14-.06.3-.11.46-.14,0,0,.02,0,.03,0,.16-.03.33-.04.5-.04.14,0,.28.02.42.05.06.01.12.03.18.04.09.02.19.05.28.08.06.02.12.05.19.07.12.05.25.11.37.18.01,0,.02.01.04.02.15.09.31.2.45.33l8.21,7.17,3.66-4.42-8.21-7.17Z"/>
          <path class="cls-21" d="m44.15,26.32c.64.01,1.33.26,1.92.77l8.21,7.17-8.98,61.22c-.01.14-.25,2.74-3.56,4.78-3.3,2.05-8.13,2.09-8.39,2.1l8.58-74.2c.14-1.19,1.12-1.86,2.22-1.84Z"/>
        </g>
        <g>
          <g class="cls-124">
            <polygon class="cls-39" points="55.78 27.23 55.74 40.4 54.77 39.84 54.81 26.67 55.78 27.23"/>
            <path class="cls-16" d="m61.77,23.71c-.68.21-1.33.46-1.95.74-.05.02-.11.04-.16.06-.45.21-.89.43-1.3.67-.36.21-.7.44-1.01.66-.04.03-.09.05-.12.08-.04.03-.08.07-.12.1-.17.13-.34.27-.5.41-.07.06-.15.12-.22.19-.22.2-.42.4-.6.61,0,0,0,0,0,0l-.04,13.17c.18-.21.39-.41.61-.61.07-.06.14-.12.22-.19.16-.14.32-.27.5-.41.08-.06.16-.12.25-.18.32-.23.65-.45,1.01-.67.46-.27.95-.51,1.46-.73.62-.28,1.27-.53,1.95-.73,0,0,0,0,0,0h0s0,0,0,0l.04-13.17Z"/>
            <path class="cls-42" d="m58.36,25.17c-1.07.62-1.92,1.32-2.58,2.06l-.97-.56c.69-.73,1.55-1.42,2.61-2.04s2.17-1.09,3.38-1.48l.96.56c-1.22.38-2.38.87-3.41,1.46Z"/>
          </g>
          <g class="cls-124">
            <path class="cls-22" d="m87.95,46.9c.21-.18.4-.37.59-.56l.05-17.55c-.18.19-.38.38-.59.56-.07.06-.14.12-.21.17-.15.12-.3.25-.45.37-.06.05-.13.1-.2.14-.34.25-.7.49-1.1.72-.48.28-1,.53-1.53.77-.63.28-1.29.54-1.98.75l-.05,17.55c.69-.22,1.34-.47,1.98-.75.05-.02.1-.03.15-.06.48-.22.94-.45,1.38-.71.4-.23.76-.47,1.1-.72.03-.03.08-.05.11-.07.03-.02.06-.05.09-.07.16-.12.31-.24.45-.37.07-.06.14-.12.21-.17Z"/>
            <polygon class="cls-27" points="82.53 32.27 82.48 49.82 81.51 49.26 81.56 31.71 82.53 32.27"/>
            <path class="cls-24" d="m88.58,28.78c-.67.7-1.51,1.37-2.54,1.96s-2.25,1.12-3.51,1.52l-.97-.56c1.27-.38,2.47-.88,3.54-1.5,1.03-.6,1.87-1.27,2.52-1.98l.96.56Z"/>
          </g>
        </g>
        <g class="cls-124">
          <path class="cls-9" d="m96.35,44.19s0-.1,0-.15c0-.05,0-.1-.01-.14,0-.04,0-.09-.02-.13,0,0,0,0,0,0,0,0,0,0,0,0,0-.05-.01-.1-.02-.14,0-.05-.02-.1-.03-.14-.01-.05-.02-.1-.04-.15,0,0,0-.02,0-.03,0,0,0-.01,0-.02-.01-.04-.02-.07-.03-.11-.02-.06-.04-.11-.06-.16-.02-.05-.04-.1-.06-.14,0,0,0-.01,0-.02,0,0,0-.01,0-.02-.03-.07-.07-.14-.1-.21-.02-.03-.03-.05-.05-.08-.04-.06-.07-.12-.11-.18-.02-.03-.04-.07-.07-.11-.02-.03-.05-.06-.08-.09-.02-.03-.05-.06-.07-.09-.02-.02-.03-.04-.05-.06-.04-.04-.08-.07-.12-.1-.04-.04-.08-.08-.13-.11-.01-.01-.02-.02-.04-.03-.05-.04-.11-.08-.17-.11-.02-.01-.04-.02-.07-.04,0,0-.02,0-.03-.01-.01,0-.03-.02-.04-.02-.04-.02-.08-.04-.12-.05-.04-.01-.08-.03-.11-.04-.02,0-.04,0-.05-.01-.02,0-.04,0-.06-.01-.03,0-.07-.01-.1-.01-.03,0-.07,0-.1,0,0,0,0,0,0,0,0,0,0,0,0,0-.03,0-.06,0-.09,0-.03,0-.07,0-.1.01-.02,0-.04,0-.07.01l-1.54.33c.08-.02.16-.03.25-.02,0,0,0,0,0,0,.09,0,.17.01.26.03.11.03.23.07.33.12,0,0,.02,0,.03.01.09.05.18.11.27.18.04.03.09.08.13.11.06.05.11.1.17.16.02.03.05.06.07.09.05.06.1.13.14.2.04.06.08.12.11.18.06.1.11.2.16.31,0,0,0,.01,0,.02.06.13.11.27.15.42,0,0,0,.01,0,.02.04.15.07.31.1.46,0,0,0,0,0,0,.02.16.03.32.03.49,0,.26-.03.5-.09.72,0,.01,0,.02,0,.04-.05.2-.13.39-.23.55-.02.04-.05.07-.07.1-.08.12-.17.22-.27.3-.03.03-.07.06-.11.09-.13.09-.27.17-.43.2l1.54-.33c.16-.03.3-.11.43-.2.04-.03.07-.06.11-.09.1-.09.19-.19.27-.3.02-.03.05-.06.07-.1.08-.14.16-.3.21-.48,0-.02.01-.05.02-.07,0-.01,0-.02,0-.04.01-.04.02-.08.03-.12.01-.06.02-.12.03-.19,0-.05.01-.11.02-.17,0-.05,0-.1,0-.16,0-.03,0-.06,0-.09,0-.02,0-.04,0-.06Z"/>
          <path class="cls-17" d="m93.11,41.8c.95.22,1.71,1.46,1.71,2.79,0,1.31-.78,2.2-1.73,1.98s-1.71-1.46-1.7-2.78.78-2.21,1.72-2Z"/>
        </g>
        <g class="cls-124">
          <path class="cls-10" d="m94.77,44.67s0-.08,0-.12c0-.09,0-.18,0-.27,0,0,0,0,0,0,0,0,0,0,0,0,0-.08-.01-.17-.02-.25,0-.05-.01-.11-.02-.16,0-.02,0-.03,0-.05,0-.01,0-.02,0-.04-.01-.08-.03-.16-.04-.24,0-.03-.02-.07-.02-.1,0-.02-.01-.04-.02-.07,0-.02-.01-.05-.02-.07-.02-.08-.04-.16-.07-.23,0-.02-.01-.04-.02-.06,0-.02-.01-.04-.02-.06-.01-.04-.02-.07-.04-.11-.03-.08-.06-.15-.09-.22,0,0,0-.01,0-.02,0-.01-.01-.02-.02-.03-.02-.06-.05-.11-.08-.17-.02-.05-.05-.09-.07-.14,0-.01-.01-.03-.02-.04,0,0,0-.02-.01-.03-.04-.07-.08-.14-.12-.2-.01-.02-.02-.03-.03-.05-.02-.02-.03-.04-.05-.07-.02-.03-.04-.06-.06-.09-.02-.03-.04-.05-.06-.07-.03-.04-.06-.07-.09-.11-.01-.02-.03-.03-.04-.05-.04-.05-.09-.09-.13-.12l-6.57-10.01-1.29.5,6.57,10.01c.06.05.12.11.18.17.03.03.06.07.09.11.04.05.08.1.12.16.02.02.03.04.05.07.06.09.11.18.16.27,0,.01.02.03.02.04.05.1.1.2.15.3,0,.01.01.02.02.03.05.11.09.23.13.35,0,.02.01.04.02.06.04.12.07.24.1.36,0,.02.01.04.02.06.03.13.05.25.07.38,0,.02,0,.03,0,.05.02.13.03.27.04.41,0,0,0,0,0,0,0,.13,0,.26,0,.39,0,.03,0,.06,0,.09,0,.12-.02.24-.04.36,0,.02,0,.03,0,.05,0,.01,0,.02,0,.04-.03.18-.09.35-.15.52-.02.05-.04.09-.06.13-.08.17-.17.34-.29.5,0,0,0,0-.01.01-.11.15-.26.28-.41.4-.04.03-.08.06-.13.09-.17.12-.36.23-.58.32l1.29-.5c.22-.09.41-.2.58-.32.04-.03.09-.06.13-.09.15-.12.3-.26.41-.4,0,0,0,0,.01-.01.12-.15.21-.32.29-.5.02-.04.04-.09.06-.13.06-.17.12-.34.15-.52,0,0,0-.02,0-.02,0,0,0,0,0,0,0-.02,0-.03,0-.05.01-.09.03-.18.04-.28,0-.03,0-.05,0-.08,0-.03,0-.06,0-.09Z"/>
          <path class="cls-23" d="m85.74,31.94l6.56,10.01c1.45,1.19,2.68,6.92-3.5,5.87l-2.63-.29-.43-15.58Z"/>
        </g>
        <g class="cls-124">
          <path class="cls-11" d="m93.57,44.93s0-.1,0-.15c0-.05,0-.1-.01-.14,0-.04,0-.09-.02-.13,0,0,0,0,0,0,0,0,0,0,0,0,0-.05-.01-.1-.02-.14,0-.05-.02-.1-.03-.14-.01-.05-.02-.1-.04-.15,0,0,0-.02,0-.03,0,0,0-.01,0-.02-.01-.04-.02-.07-.03-.11-.02-.06-.04-.11-.06-.16-.02-.05-.04-.1-.06-.14,0,0,0-.01,0-.02,0,0,0-.01,0-.02-.03-.07-.07-.14-.1-.21-.02-.03-.03-.05-.05-.08-.04-.06-.07-.12-.11-.18-.02-.03-.04-.07-.07-.11-.02-.03-.05-.06-.08-.09-.02-.03-.05-.06-.07-.09-.02-.02-.03-.04-.05-.06-.04-.04-.08-.07-.12-.1-.04-.04-.08-.08-.13-.11-.01-.01-.02-.02-.04-.03-.05-.04-.11-.08-.17-.11-.02-.01-.04-.02-.07-.04,0,0-.02,0-.03-.01-.01,0-.03-.02-.04-.02-.04-.02-.08-.04-.12-.05-.04-.01-.08-.03-.11-.04-.02,0-.04,0-.05-.01-.02,0-.04,0-.06-.01-.03,0-.07-.01-.1-.01-.03,0-.07,0-.1,0,0,0,0,0,0,0,0,0,0,0,0,0-.03,0-.06,0-.09,0-.03,0-.07,0-.1.01-.02,0-.04,0-.07.01l-1.54.33c.08-.02.16-.03.25-.02,0,0,0,0,0,0,.09,0,.17.01.26.03.11.03.23.07.33.12,0,0,.02,0,.03.01.09.05.18.11.27.18.04.03.09.08.13.11.06.05.11.1.17.16.02.03.05.06.07.09.05.06.1.13.14.2.04.06.08.12.11.18.06.1.11.2.16.31,0,0,0,.01,0,.02.06.13.11.27.15.42,0,0,0,.01,0,.02.04.15.07.31.1.46,0,0,0,0,0,0,.02.16.03.32.03.49,0,.26-.03.5-.09.72,0,.01,0,.02,0,.04-.05.2-.13.39-.23.55-.02.04-.05.07-.07.1-.08.12-.17.22-.27.3-.03.03-.07.06-.11.09-.13.09-.27.17-.43.2l1.54-.33c.16-.03.3-.11.43-.2.04-.03.07-.06.11-.09.1-.09.19-.19.27-.3.02-.03.05-.06.07-.1.08-.14.16-.3.21-.48,0-.02.01-.05.02-.07,0-.01,0-.02,0-.04.01-.04.02-.08.03-.12.01-.06.02-.12.03-.19,0-.05.01-.11.02-.17,0-.05,0-.1,0-.16,0-.03,0-.06,0-.09,0-.02,0-.04,0-.06Z"/>
          <path class="cls-13" d="m90.33,42.53c.95.22,1.71,1.46,1.71,2.79,0,1.31-.78,2.2-1.73,1.98s-1.71-1.46-1.7-2.78c0-1.32.78-2.21,1.72-2Z"/>
        </g>
        <g class="cls-124">
          <path class="cls-33" d="m82.3,42.74s.02-.09.03-.13c.07-.26.11-.53.11-.79l.05-17.55c0,.26-.05.53-.11.79-.01.04-.02.09-.03.13-.08.25-.18.5-.32.74-.03.05-.06.09-.08.14-.15.25-.33.49-.54.72-.02.02-.04.04-.06.06-.21.23-.46.44-.73.65-.05.04-.09.07-.13.11-.22.16-.45.31-.7.46-.41.24-.87.45-1.33.63-.08.03-.15.06-.23.09-.44.16-.9.3-1.37.42-.15.04-.3.07-.45.1-.38.08-.76.15-1.15.2-.16.02-.32.04-.48.06-.44.04-.89.07-1.34.07-.1,0-.21.01-.31.01-.55,0-1.09-.03-1.63-.09-.15-.02-.29-.04-.43-.06-.39-.05-.78-.12-1.16-.2-.18-.04-.35-.08-.53-.13-.37-.1-.73-.2-1.09-.33-.12-.04-.25-.08-.37-.13-.48-.19-.94-.4-1.36-.64-.24-.14-.46-.28-.67-.43-.07-.05-.13-.1-.19-.15-.13-.1-.26-.2-.38-.3-.05-.04-.09-.09-.13-.13-.14-.13-.27-.27-.39-.4-.05-.06-.1-.13-.15-.19-.1-.12-.18-.24-.26-.37-.05-.08-.1-.16-.14-.24-.03-.06-.07-.12-.1-.19-.05-.1-.09-.2-.13-.3-.02-.06-.05-.12-.07-.19-.03-.11-.06-.22-.08-.33-.01-.05-.03-.11-.03-.16-.02-.16-.04-.33-.04-.49l-.05,17.55c0,.16.01.33.04.49,0,.05.02.11.03.16.02.11.05.22.08.33.02.06.04.12.07.18.04.1.08.2.13.3.03.06.06.12.1.19.02.04.04.09.07.13.02.04.05.07.08.11.08.12.17.25.26.37.05.06.1.13.15.19.12.14.25.27.39.4.04.03.06.07.1.1,0,0,.02.02.03.02.12.11.25.21.38.31.06.05.12.1.19.15.21.15.43.29.67.43.04.02.08.05.12.07.39.22.81.41,1.25.58.12.05.24.09.37.13.2.07.4.15.6.21.16.05.32.08.48.12.18.05.35.09.53.13.38.08.77.15,1.16.2.15.02.29.05.43.06.54.06,1.08.09,1.63.09.1,0,.21,0,.31-.01.35,0,.71-.01,1.06-.04.1,0,.19-.03.28-.04.16-.02.32-.04.48-.06.39-.05.77-.12,1.15-.2.15-.03.3-.06.45-.1.08-.02.17-.03.25-.05.39-.1.76-.23,1.13-.37.08-.03.15-.06.23-.09.16-.06.32-.12.48-.19.3-.13.58-.28.86-.44.25-.15.48-.3.7-.46.02-.01.04-.03.06-.04.03-.02.05-.05.08-.07.27-.21.52-.43.73-.65.02-.02.04-.04.06-.06.22-.23.39-.48.54-.72.03-.05.06-.09.09-.14.14-.24.24-.49.32-.74Z"/>
          <path class="cls-36" d="m79.74,20.4c3.66,2.12,3.68,5.55.04,7.67-3.65,2.12-9.58,2.12-13.25,0-3.67-2.12-3.68-5.55-.04-7.67s9.57-2.12,13.24,0Z"/>
        </g>
        <g class="cls-124">
          <polygon class="cls-29" points="54.29 34.22 54.87 33.45 90.16 41.7 88.61 42.04 54.29 34.22"/>
          <path class="cls-31" d="m92.43,45.37c0-.07,0-.13,0-.2,0-.06,0-.13-.01-.19,0-.06-.01-.12-.02-.18,0,0,0,0,0,0,0,0,0,0,0,0,0-.06-.02-.13-.03-.19-.01-.06-.02-.13-.04-.19-.01-.07-.03-.13-.05-.2,0-.02,0-.03-.01-.05,0,0,0-.02,0-.03-.01-.04-.02-.08-.04-.13-.02-.07-.05-.14-.07-.22-.03-.08-.06-.16-.09-.24,0,0,0,0,0,0,0,0,0,0,0,0-.04-.09-.08-.18-.13-.27-.03-.06-.07-.12-.1-.17-.03-.05-.05-.1-.08-.14-.02-.03-.03-.05-.05-.08-.02-.03-.05-.06-.08-.09-.11-.16-.23-.3-.35-.43-.03-.03-.05-.07-.08-.09-.03-.03-.06-.05-.09-.07-.04-.03-.07-.06-.11-.09-.04-.03-.07-.06-.11-.09-.07-.05-.14-.09-.21-.13-.01,0-.03-.01-.04-.02-.01,0-.02-.01-.03-.02-.03-.02-.07-.04-.1-.05-.05-.02-.11-.05-.16-.06-.05-.02-.1-.03-.15-.05-.01,0-.02,0-.03,0l-1.55.34c.15.04.3.1.44.17.01,0,.02.01.03.02.12.07.24.15.35.24.04.03.08.06.11.09.06.05.11.11.16.16.13.13.25.27.36.43.04.06.08.11.12.17.03.05.06.09.08.14.08.14.16.29.23.45,0,0,0,0,0,0,.08.19.15.38.2.58,0,0,0,.02,0,.03.06.2.1.41.13.62,0,0,0,0,0,0,.03.22.04.44.04.66,0,.17-.01.34-.03.5,0,0,0,.02,0,.03-.02.14-.05.28-.08.41,0,.03-.02.06-.02.1-.01.05-.03.1-.05.15-.05.15-.11.29-.17.42-.02.04-.04.08-.06.12-.09.15-.18.29-.29.41-.02.02-.04.03-.06.05-.1.1-.2.18-.31.25-.03.02-.07.04-.1.06-.13.07-.27.13-.42.17l1.55-.34c.15-.03.28-.09.42-.17.04-.02.07-.04.1-.06.11-.07.21-.15.31-.25.02-.02.04-.03.06-.05.11-.12.2-.26.29-.41.02-.04.04-.08.06-.12.07-.13.12-.27.17-.42,0-.03.02-.05.03-.08,0-.02.01-.05.02-.07,0-.03.02-.06.02-.1.01-.04.02-.09.03-.13.02-.08.03-.16.04-.25,0,0,0-.02,0-.02,0,0,0-.02,0-.03,0-.06.01-.11.02-.17,0-.07,0-.14.01-.21,0-.04,0-.08,0-.11,0-.03,0-.06,0-.09Z"/>
          <path class="cls-26" d="m88.61,42.04c1.26.31,2.29,1.99,2.28,3.77,0,1.77-1.05,2.95-2.31,2.64l-35.09-8.28.8-5.95,34.32,7.82Z"/>
        </g>
        <g class="cls-124">
          <polygon class="cls-98" points="85.76 42.37 87.29 42.04 89.77 42.61 88.24 42.94 85.76 42.37"/>
          <polygon class="cls-56" points="89.46 46.2 90.99 45.87 89.74 48.58 88.21 48.9 89.46 46.2"/>
          <polygon class="cls-70" points="88.24 42.94 89.77 42.61 90.99 45.87 89.46 46.2 88.24 42.94"/>
          <polygon class="cls-94" points="88.24 42.94 89.46 46.2 88.21 48.9 85.73 48.33 84.51 45.06 85.76 42.37 88.24 42.94"/>
        </g>
        <g class="cls-124">
          <path class="cls-32" d="m90.88,29.11c.13-.2.25-.4.36-.6.07-.12.13-.24.18-.36.1-.2.18-.4.26-.61.04-.12.09-.24.13-.36.07-.22.12-.44.17-.66.02-.1.05-.21.07-.31.05-.33.08-.65.08-.98l.04-13.74c0,.33-.03.65-.08.98-.02.1-.04.21-.07.31-.05.22-.1.44-.17.66-.04.12-.08.24-.13.36-.08.2-.16.4-.26.61-.06.12-.12.24-.18.36-.11.2-.23.4-.36.6-.07.11-.14.23-.22.34-.16.23-.35.45-.54.67-.07.08-.13.16-.2.24-.27.3-.56.58-.88.87-.07.06-.16.12-.23.19-.27.22-.54.45-.84.66-.07.05-.14.1-.21.15-.37.26-.75.51-1.16.75-.51.3-1.06.57-1.61.83-.19.09-.38.16-.58.25-.37.16-.74.31-1.12.45-.22.08-.45.16-.68.23-.37.12-.74.24-1.11.34-.21.06-.43.12-.65.17-.75.19-1.52.37-2.3.5-.04,0-.07,0-.11.02-.76.13-1.52.22-2.3.29-.28.03-.55.05-.83.07-.19.01-.38.02-.57.03-.41.02-.82.03-1.23.03-.15,0-.3,0-.45,0-.56,0-1.11-.02-1.66-.05-.11,0-.22-.02-.33-.02-.45-.03-.89-.06-1.34-.11-.18-.02-.36-.04-.55-.07-.38-.05-.75-.1-1.12-.16-.19-.03-.37-.06-.56-.09-.4-.07-.79-.15-1.18-.24-.14-.03-.28-.06-.42-.09-.51-.12-1.02-.26-1.52-.41-.71-.21-1.4-.46-2.07-.73-.17-.07-.34-.14-.51-.22-.55-.24-1.09-.5-1.61-.77-.17-.09-.35-.17-.51-.27-.48-.28-.93-.57-1.35-.87-.14-.1-.26-.21-.39-.31-.27-.2-.53-.41-.77-.62-.3-.26-.57-.53-.83-.81-.06-.06-.11-.12-.16-.18-.25-.28-.49-.57-.7-.87-.02-.03-.04-.06-.05-.08-.17-.25-.32-.51-.46-.76-.07-.13-.13-.25-.2-.38-.1-.2-.18-.41-.26-.61-.05-.12-.1-.25-.13-.37-.07-.22-.12-.45-.17-.67-.02-.11-.05-.21-.07-.32-.05-.33-.08-.66-.08-1l-.04,13.74c0,.33.03.66.08,1,.02.11.05.21.07.32.05.22.1.45.17.67.04.12.09.25.13.37.08.2.16.41.26.61.06.13.13.25.2.38.05.09.08.18.13.26.1.17.21.33.33.5.02.03.03.06.05.08.21.29.44.58.7.87.05.06.11.12.16.18.24.26.49.51.77.76.02.02.04.03.06.05.24.21.51.41.77.62.13.1.25.21.39.31.42.3.87.59,1.35.87.08.05.16.09.24.14.09.05.18.08.27.13.52.28,1.05.53,1.61.77.17.07.34.15.51.22.67.27,1.36.52,2.07.73.02,0,.03.01.05.02.48.14.97.27,1.47.39.14.03.28.06.41.09.39.09.79.17,1.19.24.18.03.37.06.56.09.37.06.74.11,1.12.16.18.02.37.05.55.07.44.05.89.08,1.33.11.11,0,.22.02.33.02.55.03,1.11.04,1.66.05.15,0,.3,0,.45,0,.41,0,.82-.01,1.23-.03.19,0,.38-.02.57-.03.17-.01.35-.02.52-.03.1,0,.21-.03.31-.04.77-.07,1.54-.16,2.3-.29.04,0,.07,0,.11-.02.78-.13,1.55-.31,2.3-.5.09-.02.19-.04.28-.06.12-.03.24-.08.37-.11.38-.11.75-.22,1.12-.35.23-.08.46-.15.68-.23.38-.14.75-.29,1.12-.45.15-.06.3-.11.45-.18.04-.02.08-.04.13-.07.56-.26,1.1-.53,1.61-.83.41-.24.8-.49,1.16-.75.07-.05.14-.1.21-.15.06-.04.12-.08.18-.12.24-.18.45-.36.66-.54.07-.06.16-.12.23-.18.32-.28.61-.57.88-.87.07-.08.13-.16.2-.24.19-.22.37-.44.54-.67.08-.11.15-.22.22-.34Z"/>
          <path class="cls-28" d="m86.54,3.64c7.46,4.3,7.49,11.28.09,15.58-7.41,4.3-19.46,4.31-26.91,0-7.46-4.3-7.49-11.29-.09-15.59,7.41-4.3,19.46-4.3,26.91,0Z"/>
        </g>
        <g class="cls-124">
          <path class="cls-30" d="m88.93,101.1c-1.85-1.08-4.42-.93-7.26.71-5.63,3.25-10.19,11.14-10.17,17.62,0,3.21,1.15,5.48,2.98,6.54l16.92,9.83c-1.83-1.06-2.97-3.33-2.98-6.54-.02-6.48,4.54-14.37,10.17-17.62,2.84-1.64,5.4-1.79,7.26-.71l-16.92-9.83Z"/>
          <path class="cls-12" d="m98.58,111.64c5.64-3.25,10.22-.64,10.24,5.84s-4.53,14.36-10.17,17.61c-5.63,3.25-10.22.64-10.24-5.83s4.54-14.37,10.17-17.62Z"/>
        </g>
        <g class="cls-124">
          <path class="cls-20" d="m108.04,116.06c-.02-.07-.04-.13-.07-.2-.04-.12-.07-.23-.11-.35-.03-.08-.05-.17-.08-.25-.03-.09-.08-.18-.11-.27-.04-.09-.07-.18-.11-.27-.08-.18-.17-.36-.27-.53-.03-.06-.06-.12-.1-.18-.13-.22-.27-.43-.41-.62-.03-.04-.07-.08-.1-.12-.12-.15-.24-.29-.37-.42-.06-.06-.11-.11-.17-.16-.11-.1-.23-.2-.34-.29-.06-.05-.13-.1-.19-.14-.13-.09-.25-.16-.38-.24-.06-.03-.12-.07-.18-.1-.19-.1-.39-.18-.59-.25l-1.67-.54c.2.07.4.15.59.25.06.03.12.07.18.1.13.07.26.15.38.24.06.04.13.09.19.14.12.09.23.19.34.29.06.05.11.1.17.16.13.13.25.27.37.42.03.04.07.08.1.12.15.19.28.4.41.62.03.06.06.12.1.18.09.17.18.34.27.53.04.09.08.18.11.27.07.17.13.34.19.52.04.11.08.23.11.35.08.26.15.52.21.8.07.33.13.66.17,1,0,.04.01.08.02.12.04.33.07.67.09,1.02,0,.03,0,.05,0,.08.02.37.02.74.01,1.11,0,.02,0,.03,0,.05,0,.36-.03.73-.07,1.1,0,.03,0,.07,0,.1-.04.37-.08.74-.14,1.11,0,.02,0,.04,0,.06-.06.39-.13.77-.22,1.16,0,.02-.01.05-.02.07-.08.37-.17.74-.27,1.1-.01.04-.02.08-.03.12-.1.36-.21.71-.33,1.06-.01.04-.03.08-.04.13-.12.34-.24.68-.37,1.01-.03.07-.06.14-.09.22-.11.27-.23.55-.35.82-.04.1-.08.19-.13.29-.04.09-.09.17-.13.25-.19.39-.39.77-.6,1.14-.07.13-.15.26-.22.39-.21.36-.43.7-.66,1.04-.06.08-.11.17-.17.25-.26.36-.52.72-.8,1.06-.24.29-.49.58-.74.85-.03.03-.05.05-.08.08-.25.26-.5.51-.75.74-.29.26-.57.5-.86.71-.02.01-.04.03-.06.04-.27.2-.55.39-.82.56-.01,0-.02.01-.04.02-.27.16-.54.31-.81.43-.02.01-.05.02-.07.03-.26.12-.52.22-.77.3-.03,0-.05.02-.08.03-.26.08-.51.14-.76.19-.02,0-.03,0-.05,0-.27.04-.53.07-.78.07,0,0-.01,0-.02,0-.25,0-.5-.01-.74-.05-.02,0-.04,0-.06-.01-.24-.04-.47-.09-.7-.16h0s0,0,0,0h0s1.67.54,1.67.54c0,0,0,0,0,0,.13.04.27.08.4.11.1.02.2.04.3.05.02,0,.04,0,.06.01.01,0,.02,0,.04,0,.12.02.24.03.37.03.11,0,.22,0,.34,0,0,0,.01,0,.02,0,0,0,0,0,.01,0,.12,0,.24,0,.36-.02.12-.01.24-.03.36-.04.02,0,.03,0,.05,0,.02,0,.03,0,.05,0,.09-.02.17-.03.26-.05.12-.03.24-.06.36-.09.04-.01.09-.03.14-.04.03,0,.05-.02.08-.03.05-.02.1-.03.15-.05.12-.04.25-.09.37-.14.08-.03.16-.07.24-.11.02-.01.05-.02.07-.03.02-.01.05-.02.07-.03.13-.06.26-.13.39-.2.12-.06.23-.13.35-.2.01,0,.02-.01.04-.02,0,0,.02,0,.03-.02.14-.09.28-.18.43-.28.12-.08.25-.18.37-.27.02-.01.04-.03.06-.04.01,0,.02-.02.04-.03.17-.13.33-.26.5-.4.11-.09.22-.19.32-.28.08-.07.15-.14.23-.21.18-.17.35-.35.52-.53.03-.03.05-.05.08-.08,0,0,.01-.01.02-.02.24-.26.48-.53.71-.82,0,0,0-.01.01-.02.28-.34.54-.69.8-1.06.01-.02.03-.04.04-.06.04-.06.08-.13.12-.19.23-.34.45-.69.66-1.04.08-.13.15-.26.22-.39.21-.37.41-.75.6-1.14.03-.06.06-.12.09-.18.01-.02.02-.05.03-.07.05-.1.09-.19.13-.29.09-.19.18-.39.26-.59.03-.08.06-.15.09-.23.03-.07.06-.14.09-.21.04-.09.07-.18.11-.27.08-.2.15-.4.22-.6.02-.05.03-.1.05-.14.01-.04.03-.09.04-.13.03-.1.07-.2.1-.29.06-.18.11-.37.17-.55.02-.07.04-.15.06-.22.01-.04.02-.08.03-.12.02-.06.04-.13.05-.19.05-.18.09-.35.13-.53.03-.12.06-.25.08-.38,0-.03.01-.05.02-.08,0-.02.01-.05.02-.07.04-.17.07-.35.1-.52.03-.17.06-.34.09-.51,0-.02,0-.04,0-.05,0-.02,0-.04,0-.06.02-.13.04-.27.06-.4.02-.17.04-.34.06-.5,0-.07.01-.14.02-.2,0-.04,0-.07,0-.11,0-.06.01-.13.02-.19.01-.17.02-.33.03-.49,0-.14.01-.28.02-.41,0-.02,0-.03,0-.05,0-.01,0-.02,0-.04,0-.17,0-.33,0-.5,0-.17,0-.34-.01-.51,0-.02,0-.05,0-.07,0-.03,0-.05,0-.08,0-.12-.01-.24-.02-.36-.01-.18-.03-.36-.05-.54,0-.04-.01-.08-.02-.12,0-.04-.01-.08-.02-.12-.01-.11-.03-.21-.04-.32-.03-.2-.07-.4-.11-.6,0-.03-.01-.06-.02-.09-.04-.2-.09-.4-.15-.6Z"/>
          <path class="cls-34" d="m93.11,138.68c-.08-.06-.16-.11-.24-.18-.15-.11-.29-.23-.43-.36-.07-.07-.14-.13-.21-.2-.16-.16-.31-.33-.46-.52-.04-.05-.08-.1-.12-.15-.18-.24-.35-.5-.52-.77-.04-.07-.08-.15-.12-.22-.12-.21-.23-.43-.33-.66-.05-.11-.09-.22-.14-.33-.09-.21-.17-.42-.24-.65-.05-.14-.1-.28-.14-.43-.1-.32-.19-.65-.27-.99-.09-.41-.16-.83-.21-1.25,0-.05-.01-.1-.02-.16-.05-.42-.09-.84-.11-1.27,0-.03,0-.06,0-.1-.02-.46-.03-.92-.01-1.39,0-.02,0-.04,0-.05.01-.45.04-.91.08-1.37,0-.04,0-.09.01-.13.04-.46.1-.92.17-1.38,0-.02,0-.05.01-.07.08-.48.17-.96.27-1.45,0-.03.01-.06.02-.09.1-.46.21-.92.34-1.38.01-.05.03-.1.04-.14.12-.45.26-.89.41-1.33.02-.05.03-.1.05-.15.14-.42.3-.85.47-1.26.04-.09.07-.18.11-.27.14-.34.29-.68.44-1.02.05-.12.1-.24.16-.36.05-.11.11-.21.16-.32.23-.48.48-.95.74-1.41.09-.16.19-.33.28-.49.26-.44.54-.88.82-1.3.07-.1.14-.21.21-.31.32-.46.65-.9.99-1.32.3-.37.61-.72.93-1.06.03-.03.06-.06.1-.1.31-.32.62-.63.94-.93.36-.32.71-.62,1.07-.89.02-.02.05-.03.07-.05.34-.25.68-.49,1.02-.69.02,0,.03-.02.05-.03.34-.2.68-.38,1.01-.54.03-.01.06-.02.08-.04.32-.15.64-.27.96-.37.03-.01.07-.02.1-.03.32-.1.64-.18.95-.23.02,0,.04,0,.07-.01.33-.06.66-.09.98-.09,0,0,.01,0,.02,0,.32,0,.63.02.93.06.02,0,.05,0,.07.01.3.05.59.11.87.2,0,0,0,0,0,0l-.79-.26-.88-.29s0,0,0,0c-.16-.05-.33-.1-.5-.14-.12-.03-.25-.05-.37-.07-.02,0-.05,0-.07-.01-.02,0-.03,0-.05,0-.15-.02-.3-.03-.46-.04-.14,0-.28,0-.42,0,0,0-.02,0-.02,0,0,0,0,0-.01,0-.15,0-.3.01-.45.03-.15.01-.3.03-.45.06-.02,0-.04,0-.06.01-.02,0-.04,0-.07.01-.11.02-.22.04-.33.06-.15.03-.3.07-.45.12-.06.02-.11.04-.17.05-.03.01-.07.02-.1.03-.06.02-.13.04-.19.06-.15.05-.31.11-.47.18-.1.04-.2.09-.3.14-.03.01-.06.02-.09.04-.03.01-.06.03-.09.04-.16.08-.33.16-.49.25-.14.08-.29.16-.44.25-.02,0-.03.02-.05.03-.01,0-.02.01-.03.02-.18.11-.35.22-.53.34-.15.1-.31.22-.46.33-.02.02-.05.03-.07.05-.01.01-.03.02-.04.03-.21.16-.42.33-.63.5-.13.11-.27.23-.4.35-.1.09-.19.18-.29.27-.22.21-.44.43-.66.66-.03.03-.06.06-.1.1,0,0-.01.01-.02.02-.31.33-.6.67-.89,1.02,0,0-.01.02-.02.02-.34.42-.68.86-.99,1.32-.02.03-.04.05-.06.07-.05.08-.1.16-.15.24-.29.42-.56.85-.82,1.3-.09.16-.19.32-.28.49-.26.46-.51.93-.74,1.42-.04.08-.08.15-.12.23-.01.03-.03.06-.04.09-.06.12-.11.24-.16.36-.11.24-.22.48-.33.73-.04.09-.08.19-.11.28-.04.09-.07.18-.11.27-.04.11-.09.22-.13.33-.09.25-.19.5-.27.75-.02.06-.04.12-.06.18-.02.05-.03.1-.05.16-.04.12-.08.25-.12.37-.07.23-.14.46-.21.69-.03.09-.05.18-.08.27-.01.05-.03.1-.04.15-.02.08-.05.16-.07.24-.06.22-.11.44-.17.66-.04.16-.07.31-.11.47,0,.03-.01.06-.02.09,0,.03-.01.06-.02.09-.05.22-.09.43-.13.65-.04.21-.08.43-.11.64,0,.02,0,.04,0,.07,0,.02,0,.05-.01.07-.03.17-.05.33-.07.5-.03.21-.05.42-.08.63,0,.09-.02.17-.02.26,0,.04,0,.09-.01.13,0,.08-.02.16-.02.24-.02.21-.03.41-.04.62,0,.17-.01.35-.02.52,0,.02,0,.04,0,.05,0,.02,0,.03,0,.05,0,.21,0,.41,0,.62,0,.21,0,.42.02.63,0,.03,0,.06,0,.09,0,.03,0,.07,0,.1,0,.15.01.3.03.45.02.23.04.45.06.68,0,.05.01.1.02.15,0,.05.01.1.02.15.02.13.03.26.05.4.04.25.09.5.14.75,0,.04.02.07.02.11.06.25.12.5.18.74.02.09.06.17.08.25.04.15.09.29.14.43.03.1.06.21.1.31.04.12.1.22.14.34.05.11.09.22.14.33.1.23.22.45.33.66.04.07.08.15.12.22.16.27.33.53.52.77.04.05.08.1.12.15.15.18.3.35.45.52.07.07.14.13.21.2.14.13.28.25.43.36.08.06.16.12.24.18.16.11.32.2.48.29.07.04.15.09.22.12.24.12.48.22.73.31,0,0,0,0,0,0l1.67.54c-.25-.08-.5-.19-.74-.31-.08-.04-.15-.08-.22-.12-.16-.09-.32-.19-.48-.29Z"/>
          <path class="cls-25" d="m97.29,111.35c5.61-5.08,11.39-3.52,12.92,3.48,1.53,6.99-1.78,16.78-7.39,21.85-5.61,5.08-11.4,3.52-12.92-3.47-1.53-7,1.78-16.79,7.39-21.87Zm4.98,22.82c4.5-4.07,7.15-11.91,5.93-17.52s-5.86-6.86-10.36-2.79c-4.5,4.07-7.15,11.91-5.92,17.52,1.22,5.6,5.86,6.85,10.35,2.78"/>
        </g>
      </g>
      
    </g>
  </g>
</svg>