<?xml version="1.0" encoding="UTF-8"?>
<svg id="_图层_2" data-name="图层 2" xmlns="http://www.w3.org/2000/svg" xmlns:xlink="http://www.w3.org/1999/xlink" viewBox="0 0 149.66 149.96">
  <defs>
    <style>
      .cls-1 {
        fill: url(#_未命名的渐变_88);
      }

      .cls-1, .cls-2, .cls-3, .cls-4, .cls-5, .cls-6, .cls-7, .cls-8, .cls-9, .cls-10, .cls-11, .cls-12, .cls-13, .cls-14, .cls-15, .cls-16, .cls-17, .cls-18, .cls-19, .cls-20, .cls-21, .cls-22, .cls-23, .cls-24, .cls-25, .cls-26, .cls-27, .cls-28, .cls-29, .cls-30, .cls-31, .cls-32, .cls-33, .cls-34, .cls-35, .cls-36, .cls-37, .cls-38, .cls-39, .cls-40, .cls-41, .cls-42, .cls-43, .cls-44, .cls-45, .cls-46, .cls-47, .cls-48, .cls-49, .cls-50, .cls-51, .cls-52, .cls-53, .cls-54, .cls-55, .cls-56, .cls-57, .cls-58, .cls-59, .cls-60, .cls-61, .cls-62, .cls-63, .cls-64, .cls-65, .cls-66, .cls-67, .cls-68 {
        stroke-width: 0px;
      }

      .cls-2 {
        fill: url(#_未命名的渐变_47);
      }

      .cls-3 {
        fill: url(#_未命名的渐变_30);
      }

      .cls-69 {
        clip-path: url(#clippath);
      }

      .cls-4 {
        fill: none;
      }

      .cls-5 {
        fill: url(#_未命名的渐变_47-2);
      }

      .cls-6 {
        fill: url(#_未命名的渐变_47-4);
      }

      .cls-7 {
        fill: url(#_未命名的渐变_47-3);
      }

      .cls-8 {
        fill: url(#_未命名的渐变_47-5);
      }

      .cls-9 {
        fill: url(#_未命名的渐变_47-6);
      }

      .cls-10 {
        fill: url(#_未命名的渐变_47-7);
      }

      .cls-11 {
        fill: url(#_未命名的渐变_47-8);
      }

      .cls-12 {
        fill: url(#_未命名的渐变_200-2);
      }

      .cls-13 {
        fill: url(#_未命名的渐变_200-3);
      }

      .cls-14 {
        fill: url(#_未命名的渐变_200-4);
      }

      .cls-70 {
        clip-path: url(#clippath-1);
      }

      .cls-71 {
        clip-path: url(#clippath-4);
      }

      .cls-72 {
        clip-path: url(#clippath-3);
      }

      .cls-73 {
        clip-path: url(#clippath-2);
      }

      .cls-74 {
        clip-path: url(#clippath-7);
      }

      .cls-75 {
        clip-path: url(#clippath-8);
      }

      .cls-76 {
        clip-path: url(#clippath-6);
      }

      .cls-77 {
        clip-path: url(#clippath-5);
      }

      .cls-78 {
        clip-path: url(#clippath-9);
      }

      .cls-79 {
        clip-path: url(#clippath-14);
      }

      .cls-80 {
        clip-path: url(#clippath-13);
      }

      .cls-81 {
        clip-path: url(#clippath-12);
      }

      .cls-82 {
        clip-path: url(#clippath-10);
      }

      .cls-83 {
        clip-path: url(#clippath-15);
      }

      .cls-84 {
        clip-path: url(#clippath-17);
      }

      .cls-85 {
        clip-path: url(#clippath-16);
      }

      .cls-86 {
        clip-path: url(#clippath-19);
      }

      .cls-87 {
        clip-path: url(#clippath-11);
      }

      .cls-88 {
        clip-path: url(#clippath-18);
      }

      .cls-89 {
        opacity: .2;
      }

      .cls-90 {
        isolation: isolate;
      }

      .cls-16 {
        fill: url(#_未命名的渐变_202);
      }

      .cls-17 {
        fill: url(#_未命名的渐变_200);
      }

      .cls-18 {
        fill: url(#_未命名的渐变_220);
      }

      .cls-19 {
        fill: #010714;
        opacity: 0;
      }

      .cls-20 {
        fill: #4b5c7c;
      }

      .cls-21 {
        fill: #60779f;
      }

      .cls-22 {
        fill: #7590c2;
      }

      .cls-23 {
        fill: #7694c9;
      }

      .cls-24 {
        fill: #5e749b;
      }

      .cls-25 {
        fill: #526587;
      }

      .cls-26 {
        fill: #4d5f80;
      }

      .cls-27 {
        fill: #4f6283;
      }

      .cls-28 {
        fill: #313c4f;
      }

      .cls-29 {
        fill: #262f3e;
      }

      .cls-30 {
        fill: #354257;
      }

      .cls-31 {
        fill: #2c3647;
      }

      .cls-32 {
        fill: #485978;
      }

      .cls-33 {
        fill: #293243;
      }

      .cls-34 {
        fill: #5c7197;
      }

      .cls-35 {
        fill: #2d3749;
      }

      .cls-36 {
        fill: #2d3746;
      }

      .cls-37 {
        fill: #566b90;
      }

      .cls-38 {
        fill: #2a3445;
      }

      .cls-39 {
        fill: #283141;
      }

      .cls-40 {
        fill: #465674;
      }

      .cls-41 {
        fill: #54688c;
      }

      .cls-42 {
        fill: #6d86b5;
      }

      .cls-43 {
        fill: #2e394b;
      }

      .cls-44 {
        fill: #3a485f;
      }

      .cls-45 {
        fill: #313c50;
      }

      .cls-46 {
        fill: #38455b;
      }

      .cls-47 {
        fill: #273140;
      }

      .cls-48 {
        fill: #344054;
      }

      .cls-49 {
        fill: #39475d;
      }

      .cls-50 {
        fill: #596e94;
      }

      .cls-51 {
        fill: #3c4a62;
      }

      .cls-52 {
        fill: #1a202a;
      }

      .cls-53 {
        fill: #3e4d69;
      }

      .cls-54 {
        fill: #3d4c64;
      }

      .cls-55 {
        fill: #3f4d66;
      }

      .cls-56 {
        fill: #364359;
      }

      .cls-57 {
        fill: #44546f;
      }

      .cls-58 {
        fill: #41516b;
      }

      .cls-59 {
        fill: #41506c;
      }

      .cls-60 {
        fill: #404f68;
      }

      .cls-61 {
        fill: #435370;
      }

      .cls-62 {
        fill: #43526d;
      }

      .cls-63 {
        fill: #232c3a;
      }

      .cls-64 {
        fill: #171d23;
      }

      .cls-65 {
        fill: #252d3c;
      }

      .cls-66 {
        fill: #303b4e;
      }

      .cls-67 {
        fill: #323e52;
      }

      .cls-68 {
        fill: #84a7e3;
      }
    </style>
    <clipPath id="clippath">
      <path class="cls-4" d="m71.98,97.59l3.52,2.05c.34.2.55.61.55,1.2,0,1.19-.84,2.64-1.87,3.23l-3.52-2.05c1.03-.6,1.87-2.04,1.87-3.23,0-.59-.21-1.01-.55-1.2Z"/>
    </clipPath>
    <clipPath id="clippath-1">
      <path class="cls-4" d="m72.85,104.21l-3.52-2.05c.34.2.81.17,1.33-.13l3.52,2.05c-.52.3-.99.33-1.33.13Z"/>
    </clipPath>
    <clipPath id="clippath-2">
      <path class="cls-4" d="m71.94,83.06l3.52,2.05c.34.2.55.61.55,1.2,0,1.19-.84,2.64-1.87,3.23l-3.52-2.05c1.03-.6,1.87-2.04,1.87-3.23,0-.59-.21-1.01-.55-1.2Z"/>
    </clipPath>
    <clipPath id="clippath-3">
      <path class="cls-4" d="m72.81,89.68l-3.52-2.05c.34.2.81.17,1.33-.13l3.52,2.05c-.52.3-.99.33-1.33.13Z"/>
    </clipPath>
    <clipPath id="clippath-4">
      <path class="cls-4" d="m65.58,91.27l3.52,2.05c.84.49,1.36,1.53,1.37,3.01,0,2.97-2.08,6.59-4.67,8.08l-3.52-2.05c2.59-1.5,4.68-5.11,4.67-8.08,0-1.48-.52-2.52-1.37-3.01Z"/>
    </clipPath>
    <clipPath id="clippath-5">
      <path class="cls-4" d="m62.47,104.73l-3.52-2.05c.85.49,2.03.42,3.33-.33l3.52,2.05c-1.3.75-2.48.82-3.33.33Z"/>
    </clipPath>
    <clipPath id="clippath-6">
      <path class="cls-4" d="m55.21,107.27l3.52,2.05c.34.2.55.61.55,1.21,0,1.19-.83,2.63-1.86,3.23l-3.52-2.05c1.03-.6,1.87-2.04,1.86-3.23,0-.59-.21-1.01-.55-1.21Z"/>
    </clipPath>
    <clipPath id="clippath-7">
      <path class="cls-4" d="m56.08,113.89l-3.52-2.05c.34.2.82.17,1.34-.13l3.52,2.05c-.52.3-1,.33-1.34.13Z"/>
    </clipPath>
    <clipPath id="clippath-8">
      <path class="cls-4" d="m72.66,79.09l3.52,2.05c-2.67-1.55-6.36-1.33-10.45,1.02l-3.52-2.05c4.08-2.36,7.78-2.57,10.45-1.02Z"/>
    </clipPath>
    <clipPath id="clippath-9">
      <path class="cls-4" d="m55.16,89.83l3.52,2.05c.34.2.55.61.55,1.21,0,1.19-.83,2.63-1.86,3.23l-3.52-2.05c1.03-.6,1.87-2.04,1.86-3.23,0-.59-.21-1.01-.55-1.21Z"/>
    </clipPath>
    <clipPath id="clippath-10">
      <path class="cls-4" d="m56.03,96.44l-3.52-2.05c.34.2.82.17,1.34-.13l3.52,2.05c-.52.3-1,.33-1.34.13Z"/>
    </clipPath>
    <clipPath id="clippath-11">
      <path class="cls-4" d="m55.39,116.91l-3.52-2.05c-2.63-1.53-4.27-4.79-4.28-9.41-.03-9.32,6.52-20.66,14.62-25.34l3.52,2.05c-8.1,4.68-14.65,16.02-14.62,25.34.01,4.63,1.65,7.88,4.28,9.41Z"/>
    </clipPath>
    <clipPath id="clippath-12">
      <path class="cls-4" d="m67.72,94.06l14.1,8.19c-.81-.47-1.93-.4-3.17.31l-14.1-8.19c1.24-.72,2.36-.78,3.17-.31Z"/>
    </clipPath>
    <clipPath id="clippath-13">
      <path class="cls-4" d="m75.5,113.11l-14.1-8.19c-.8-.47-1.3-1.45-1.3-2.86,0-2.83,1.98-6.27,4.44-7.69l14.1,8.19c-2.46,1.42-4.45,4.86-4.44,7.69,0,1.4.5,2.39,1.3,2.86Z"/>
    </clipPath>
    <linearGradient id="_未命名的渐变_47" data-name="未命名的渐变 47" x1="866.65" y1="139.97" x2="913.92" y2="139.97" gradientTransform="translate(972.98) rotate(-180) scale(1 -1)" gradientUnits="userSpaceOnUse">
      <stop offset="0" stop-color="#38455a"/>
      <stop offset=".15" stop-color="#7a96ca"/>
      <stop offset=".25" stop-color="#7a96ca"/>
      <stop offset=".9" stop-color="#12161a"/>
      <stop offset="1" stop-color="#283140"/>
    </linearGradient>
    <linearGradient id="_未命名的渐变_200" data-name="未命名的渐变 200" x1="866.73" y1="130.05" x2="913.87" y2="130.05" gradientTransform="translate(972.98) rotate(-180) scale(1 -1)" gradientUnits="userSpaceOnUse">
      <stop offset="0" stop-color="#425266"/>
      <stop offset="0" stop-color="#425266"/>
      <stop offset="1" stop-color="#596b8a"/>
    </linearGradient>
    <linearGradient id="_未命名的渐变_47-2" data-name="未命名的渐变 47" x1="880.71" y1="131.66" x2="899.76" y2="131.66" xlink:href="#_未命名的渐变_47"/>
    <linearGradient id="_未命名的渐变_200-2" data-name="未命名的渐变 200" x1="880.74" y1="128.03" x2="899.74" y2="128.03" xlink:href="#_未命名的渐变_200"/>
    <linearGradient id="_未命名的渐变_47-3" data-name="未命名的渐变 47" x1="881.54" y1="121.38" x2="898.32" y2="121.38" xlink:href="#_未命名的渐变_47"/>
    <linearGradient id="_未命名的渐变_47-4" data-name="未命名的渐变 47" x1="879.62" y1="104.4" x2="900.23" y2="104.4" xlink:href="#_未命名的渐变_47"/>
    <linearGradient id="_未命名的渐变_47-5" data-name="未命名的渐变 47" x1="866.91" y1="94.08" x2="912.36" y2="94.08" xlink:href="#_未命名的渐变_47"/>
    <linearGradient id="_未命名的渐变_202" data-name="未命名的渐变 202" x1="866.93" y1="84.42" x2="912.36" y2="84.42" gradientTransform="translate(972.98) rotate(-180) scale(1 -1)" gradientUnits="userSpaceOnUse">
      <stop offset="0" stop-color="#87a9e4"/>
      <stop offset="1" stop-color="#547097"/>
      <stop offset="1" stop-color="#547097"/>
    </linearGradient>
    <linearGradient id="_未命名的渐变_47-6" data-name="未命名的渐变 47" x1="866.78" y1="87.43" x2="912.23" y2="87.43" xlink:href="#_未命名的渐变_47"/>
    <linearGradient id="_未命名的渐变_200-3" data-name="未命名的渐变 200" x1="866.86" y1="77.77" x2="912.18" y2="77.77" xlink:href="#_未命名的渐变_200"/>
    <linearGradient id="_未命名的渐变_47-7" data-name="未命名的渐变 47" x1="879.58" y1="58.19" x2="900.27" y2="58.19" xlink:href="#_未命名的渐变_47"/>
    <linearGradient id="_未命名的渐变_200-4" data-name="未命名的渐变 200" x1="879.73" y1="33" x2="900.25" y2="33" gradientTransform="translate(973.07 2.52) rotate(-179.84) scale(1 -1)" xlink:href="#_未命名的渐变_200"/>
    <clipPath id="clippath-14">
      <path class="cls-4" d="m92.58,30.41c-.64-1.76-2.58-3.31-5.46-4.12-4.92-1.37-10.75-.04-13.02,2.97l-.44,1.27c2.38-3.16,8.5-4.56,13.67-3.12,3.03.85,5.06,2.48,5.74,4.33-.16-.44-.32-.88-.49-1.32Z"/>
    </clipPath>
    <clipPath id="clippath-15">
      <path class="cls-4" d="m72.94,31.83c.16-.44.39-.88.72-1.31l.44-1.27c-.31.41-.53.82-.68,1.24-.01.04-.03.09-.05.13,0,.02-.02.05-.02.07-.01.04-.03.09-.05.13s-.03.09-.05.13c0,.02-.02.05-.02.07-.01.04-.03.09-.05.13s-.03.09-.05.13c0,.02-.02.05-.02.07-.01.04-.03.09-.05.13s-.03.09-.05.13c0,.02-.02.05-.02.07-.01.04-.03.09-.05.13Z"/>
    </clipPath>
    <clipPath id="clippath-16">
      <path class="cls-4" d="m82.74,31.74v.53s.01-.05.03-.07v-.53s-.03.05-.03.07Z"/>
    </clipPath>
    <clipPath id="clippath-17">
      <path class="cls-4" d="m83.27,32.27v-.53c0-.06-.06-.12-.16-.15-.13-.04-.29,0-.35.08v.53c.06-.08.22-.12.35-.08.1.03.15.09.15.15Z"/>
    </clipPath>
    <clipPath id="clippath-18">
      <path class="cls-4" d="m83.27,31.74s0,.05-.02.07c-.06.08-.22.12-.35.08-.1-.03-.15-.09-.15-.15v.53c0,.06.06.12.16.15.13.04.29,0,.35-.08.02-.02.02-.05.02-.07,0-.16,0-.37,0-.53Z"/>
    </clipPath>
    <clipPath id="clippath-19">
      <path class="cls-4" d="m93.06,31.73c-.16-.44-.32-.88-.49-1.32.45,1.24.27,2.57-.67,3.82-2.27,3.01-8.1,4.34-13.02,2.97-4.25-1.19-6.43-4-5.48-6.69,0,.02-.02.05-.02.07-.01.04-.03.09-.05.13s-.03.09-.05.13-.03.09-.05.13-.03.09-.05.13c0,.02-.02.05-.02.07-.01.04-.03.09-.05.13,0,.02-.02.05-.02.07-.01.04-.03.09-.05.13s-.03.09-.05.13c0,.02-.02.05-.02.07-.01.04-.03.09-.05.13-1,2.82,1.28,5.78,5.75,7.03,5.16,1.44,11.28.05,13.67-3.12.98-1.31,1.18-2.71.7-4.01Z"/>
    </clipPath>
    <linearGradient id="_未命名的渐变_30" data-name="未命名的渐变 30" x1="880.56" y1="24.14" x2="899.65" y2="24.14" gradientTransform="translate(972.98) rotate(-180) scale(1 -1)" gradientUnits="userSpaceOnUse">
      <stop offset="0" stop-color="#2a73e4"/>
      <stop offset=".15" stop-color="#59c6f9"/>
      <stop offset=".25" stop-color="#59c6f9"/>
      <stop offset=".85" stop-color="#1433ca"/>
      <stop offset="1" stop-color="#2a73e4"/>
    </linearGradient>
    <linearGradient id="_未命名的渐变_220" data-name="未命名的渐变 220" x1="880.62" y1="10.28" x2="899.65" y2="10.28" gradientTransform="translate(972.98) rotate(-180) scale(1 -1)" gradientUnits="userSpaceOnUse">
      <stop offset="0" stop-color="#8be0fa"/>
      <stop offset="1" stop-color="#4eb4f8"/>
    </linearGradient>
    <linearGradient id="_未命名的渐变_47-8" data-name="未命名的渐变 47" x1="94.47" y1="103.08" x2="86.03" y2="113.8" gradientTransform="matrix(1,0,0,1,0,0)" xlink:href="#_未命名的渐变_47"/>
    <linearGradient id="_未命名的渐变_88" data-name="未命名的渐变 88" x1="87.11" y1="110.51" x2="95.94" y2="110.51" gradientTransform="translate(141.09 -24.15) rotate(59.84)" gradientUnits="userSpaceOnUse">
      <stop offset="0" stop-color="#283140"/>
      <stop offset="1" stop-color="#12161a"/>
    </linearGradient>
  </defs>
  <g id="_图层_1-2" data-name="图层 1">
    <g id="_安全阀" data-name="安全阀">
      <rect class="cls-19" width="149.66" height="149.92"/>
      <g>
        <g class="cls-90">
          <g class="cls-90">
            <g class="cls-69">
              <g class="cls-90">
                <path class="cls-55" d="m74.18,104.08l-3.52-2.05s.03-.02.05-.03l3.52,2.05s-.03.02-.05.03"/>
                <path class="cls-60" d="m74.23,104.05l-3.52-2.05s.09-.06.14-.09l3.52,2.05s-.09.06-.14.09"/>
                <path class="cls-58" d="m74.37,103.96l-3.52-2.05c.06-.04.11-.08.16-.12l3.52,2.05c-.05.04-.11.08-.16.12"/>
                <path class="cls-62" d="m74.54,103.84l-3.52-2.05c.07-.06.14-.12.21-.18l3.52,2.05c-.07.06-.14.12-.21.18"/>
                <path class="cls-57" d="m74.74,103.66l-3.52-2.05c.16-.15.31-.31.44-.49l3.52,2.05c-.14.18-.29.34-.44.49"/>
                <path class="cls-62" d="m75.19,103.17l-3.52-2.05c.04-.05.08-.11.12-.16l3.52,2.05c-.04.06-.08.11-.12.16"/>
                <path class="cls-58" d="m75.3,103l-3.52-2.05s.06-.08.08-.12l3.52,2.05s-.05.08-.08.12"/>
                <path class="cls-60" d="m75.39,102.88l-3.52-2.05s.05-.07.07-.11l3.52,2.05s-.05.07-.07.11"/>
                <path class="cls-55" d="m75.45,102.77l-3.52-2.05s.04-.07.06-.11l3.52,2.05s-.04.07-.06.11"/>
                <path class="cls-54" d="m75.52,102.67l-3.52-2.05s.04-.07.06-.1l3.52,2.05s-.04.07-.06.1"/>
                <path class="cls-51" d="m75.57,102.57l-3.52-2.05s.04-.07.05-.1l3.52,2.05s-.03.07-.05.1"/>
                <path class="cls-44" d="m75.63,102.47l-3.52-2.05s.03-.07.05-.1l3.52,2.05s-.03.07-.05.1"/>
                <path class="cls-49" d="m75.68,102.37l-3.52-2.05s.03-.07.05-.1l3.52,2.05s-.03.07-.05.1"/>
                <path class="cls-46" d="m75.72,102.27l-3.52-2.05s.03-.07.04-.1l3.52,2.05s-.03.07-.04.1"/>
                <path class="cls-56" d="m75.77,102.16l-3.52-2.05s.03-.07.04-.1l3.52,2.05s-.03.07-.04.1"/>
                <path class="cls-30" d="m75.81,102.06l-3.52-2.05s.03-.07.04-.1l3.52,2.05s-.02.07-.04.1"/>
                <path class="cls-48" d="m75.84,101.96l-3.52-2.05s.02-.07.03-.1l3.52,2.05s-.02.07-.03.1"/>
                <path class="cls-67" d="m75.88,101.86l-3.52-2.05s.02-.07.03-.1l3.52,2.05s-.02.07-.03.1"/>
                <path class="cls-45" d="m75.91,101.76l-3.52-2.05s.02-.07.03-.1l3.52,2.05s-.02.07-.03.1"/>
                <path class="cls-66" d="m75.94,101.66l-3.52-2.05s.02-.07.03-.1l3.52,2.05s-.02.07-.03.1"/>
                <path class="cls-43" d="m75.97,101.55l-3.52-2.05s.02-.07.02-.1l3.52,2.05s-.01.07-.02.1"/>
                <path class="cls-35" d="m75.99,101.45l-3.52-2.05s.01-.07.02-.11l3.52,2.05s-.01.07-.02.11"/>
                <path class="cls-31" d="m76.01,101.34l-3.52-2.05s.01-.07.02-.11l3.52,2.05s-.01.07-.02.11"/>
                <path class="cls-38" d="m76.03,101.23l-3.52-2.05s0-.08.01-.12l3.52,2.05s0,.08-.01.12"/>
                <path class="cls-33" d="m76.04,101.12l-3.52-2.05s0-.08,0-.12l3.52,2.05s0,.08,0,.12"/>
                <path class="cls-47" d="m76.05,101l-3.52-2.05s0-.09,0-.13l3.52,2.05s0,.09,0,.13"/>
                <path class="cls-29" d="m76.05,100.87l-3.52-2.05s0-.01,0-.02c0-.05,0-.09,0-.13l3.52,2.05s0,.09,0,.13c0,0,0,.01,0,.02"/>
                <path class="cls-65" d="m76.05,100.71l-3.52-2.05c0-.06,0-.12-.02-.18l3.52,2.05c0,.06.01.12.02.18"/>
                <path class="cls-63" d="m76.03,100.53l-3.52-2.05c-.06-.43-.25-.73-.52-.89l3.52,2.05c.27.16.46.46.52.89"/>
              </g>
            </g>
          </g>
          <g class="cls-90">
            <g class="cls-70">
              <g class="cls-90">
                <polyline class="cls-47" points="72.85 104.21 69.33 102.16 69.33 102.16 72.85 104.21 72.85 104.21"/>
                <path class="cls-33" d="m72.85,104.21l-3.52-2.05s.05.03.07.04l3.52,2.05s-.05-.02-.07-.04"/>
                <path class="cls-38" d="m72.93,104.25l-3.52-2.05s.05.02.07.03l3.52,2.05s-.05-.02-.07-.03"/>
                <path class="cls-31" d="m73,104.28l-3.52-2.05s.05.02.07.02l3.52,2.05s-.05-.01-.07-.02"/>
                <path class="cls-35" d="m73.07,104.3l-3.52-2.05s.05.01.07.02l3.52,2.05s-.05,0-.07-.02"/>
                <path class="cls-43" d="m73.14,104.32l-3.52-2.05s.05,0,.07.01l3.52,2.05s-.05,0-.07-.01"/>
                <path class="cls-66" d="m73.21,104.33l-3.52-2.05s.05,0,.07,0l3.52,2.05s-.05,0-.07,0"/>
                <path class="cls-45" d="m73.28,104.33l-3.52-2.05s.05,0,.07,0l3.52,2.05s-.05,0-.07,0"/>
                <path class="cls-67" d="m73.35,104.34l-3.52-2.05s.05,0,.07,0l3.52,2.05s-.05,0-.07,0"/>
                <path class="cls-48" d="m73.42,104.33l-3.52-2.05s.05,0,.07,0l3.52,2.05s-.05,0-.07,0"/>
                <path class="cls-30" d="m73.5,104.33l-3.52-2.05s.05,0,.08-.01l3.52,2.05s-.05,0-.08.01"/>
                <path class="cls-56" d="m73.57,104.32l-3.52-2.05s.05-.01.08-.02l3.52,2.05s-.05.01-.08.02"/>
                <path class="cls-46" d="m73.65,104.3l-3.52-2.05s.05-.01.08-.02l3.52,2.05s-.05.01-.08.02"/>
                <path class="cls-49" d="m73.73,104.28l-3.52-2.05s.06-.02.09-.03l3.52,2.05s-.06.02-.09.03"/>
                <path class="cls-44" d="m73.82,104.25l-3.52-2.05s.06-.02.09-.03l3.52,2.05s-.06.02-.09.03"/>
                <path class="cls-51" d="m73.91,104.22l-3.52-2.05s.06-.03.1-.04l3.52,2.05s-.07.03-.1.04"/>
                <path class="cls-54" d="m74,104.17l-3.52-2.05s.07-.04.11-.05l3.52,2.05s-.07.04-.11.05"/>
                <path class="cls-55" d="m74.11,104.12l-3.52-2.05s.05-.03.07-.04l3.52,2.05s-.05.03-.07.04"/>
              </g>
            </g>
          </g>
          <g class="cls-90">
            <g class="cls-73">
              <g class="cls-90">
                <path class="cls-55" d="m74.14,89.55l-3.52-2.05s.03-.02.05-.03l3.52,2.05s-.03.02-.05.03"/>
                <path class="cls-60" d="m74.19,89.52l-3.52-2.05s.09-.06.14-.09l3.52,2.05s-.09.06-.14.09"/>
                <path class="cls-58" d="m74.33,89.43l-3.52-2.05c.06-.04.11-.08.16-.12l3.52,2.05c-.05.04-.11.08-.16.12"/>
                <path class="cls-62" d="m74.49,89.3l-3.52-2.05c.07-.06.14-.12.21-.18l3.52,2.05c-.07.06-.14.12-.21.18"/>
                <path class="cls-57" d="m74.7,89.12l-3.52-2.05c.16-.15.31-.31.44-.49l3.52,2.05c-.14.18-.29.34-.44.49"/>
                <path class="cls-62" d="m75.14,88.63l-3.52-2.05c.04-.05.08-.11.12-.16l3.52,2.05c-.04.06-.08.11-.12.16"/>
                <path class="cls-58" d="m75.26,88.47l-3.52-2.05s.06-.08.08-.12l3.52,2.05s-.05.08-.08.12"/>
                <path class="cls-60" d="m75.34,88.35l-3.52-2.05s.05-.07.07-.11l3.52,2.05s-.05.07-.07.11"/>
                <path class="cls-55" d="m75.41,88.24l-3.52-2.05s.04-.07.06-.11l3.52,2.05s-.04.07-.06.11"/>
                <path class="cls-54" d="m75.48,88.13l-3.52-2.05s.04-.07.06-.1l3.52,2.05s-.04.07-.06.1"/>
                <path class="cls-51" d="m75.53,88.03l-3.52-2.05s.04-.07.05-.1l3.52,2.05s-.03.07-.05.1"/>
                <path class="cls-44" d="m75.58,87.93l-3.52-2.05s.03-.07.05-.1l3.52,2.05s-.03.07-.05.1"/>
                <path class="cls-49" d="m75.63,87.83l-3.52-2.05s.03-.07.05-.1l3.52,2.05s-.03.07-.05.1"/>
                <path class="cls-46" d="m75.68,87.73l-3.52-2.05s.03-.07.04-.1l3.52,2.05s-.03.07-.04.1"/>
                <path class="cls-56" d="m75.72,87.63l-3.52-2.05s.03-.07.04-.1l3.52,2.05s-.03.07-.04.1"/>
                <path class="cls-30" d="m75.77,87.53l-3.52-2.05s.03-.07.04-.1l3.52,2.05s-.02.07-.04.1"/>
                <path class="cls-48" d="m75.8,87.43l-3.52-2.05s.02-.07.03-.1l3.52,2.05s-.02.07-.03.1"/>
                <path class="cls-67" d="m75.84,87.33l-3.52-2.05s.02-.07.03-.1l3.52,2.05s-.02.07-.03.1"/>
                <path class="cls-45" d="m75.87,87.23l-3.52-2.05s.02-.07.03-.1l3.52,2.05s-.02.07-.03.1"/>
                <path class="cls-66" d="m75.9,87.12l-3.52-2.05s.02-.07.03-.1l3.52,2.05s-.02.07-.03.1"/>
                <path class="cls-43" d="m75.92,87.02l-3.52-2.05s.02-.07.02-.1l3.52,2.05s-.01.07-.02.1"/>
                <path class="cls-35" d="m75.95,86.92l-3.52-2.05s.01-.07.02-.11l3.52,2.05s-.01.07-.02.11"/>
                <path class="cls-31" d="m75.97,86.81l-3.52-2.05s.01-.07.02-.11l3.52,2.05s-.01.07-.02.11"/>
                <path class="cls-38" d="m75.99,86.7l-3.52-2.05s0-.08.01-.12l3.52,2.05s0,.08-.01.12"/>
                <path class="cls-33" d="m76,86.59l-3.52-2.05s0-.08,0-.12l3.52,2.05s0,.08,0,.12"/>
                <path class="cls-47" d="m76.01,86.46l-3.52-2.05s0-.09,0-.13l3.52,2.05s0,.09,0,.13"/>
                <path class="cls-29" d="m76.01,86.33l-3.52-2.05s0-.01,0-.02c0-.05,0-.09,0-.13l3.52,2.05s0,.09,0,.13c0,0,0,.01,0,.02"/>
                <path class="cls-65" d="m76.01,86.18l-3.52-2.05c0-.06,0-.12-.02-.18l3.52,2.05c0,.06.01.12.02.18"/>
                <path class="cls-63" d="m75.99,86l-3.52-2.05c-.06-.43-.25-.73-.53-.89l3.52,2.05c.27.16.46.46.53.89"/>
              </g>
            </g>
          </g>
          <g class="cls-90">
            <g class="cls-72">
              <g class="cls-90">
                <polyline class="cls-47" points="72.81 89.68 69.29 87.63 69.29 87.63 72.81 89.68 72.81 89.68"/>
                <path class="cls-33" d="m72.81,89.68l-3.52-2.05s.05.03.07.04l3.52,2.05s-.05-.02-.07-.04"/>
                <path class="cls-38" d="m72.88,89.72l-3.52-2.05s.05.02.07.03l3.52,2.05s-.05-.02-.07-.03"/>
                <path class="cls-31" d="m72.96,89.75l-3.52-2.05s.05.02.07.02l3.52,2.05s-.05-.01-.07-.02"/>
                <path class="cls-35" d="m73.03,89.77l-3.52-2.05s.05.01.07.02l3.52,2.05s-.05,0-.07-.02"/>
                <path class="cls-43" d="m73.1,89.78l-3.52-2.05s.05,0,.07.01l3.52,2.05s-.05,0-.07-.01"/>
                <path class="cls-66" d="m73.17,89.8l-3.52-2.05s.05,0,.07,0l3.52,2.05s-.05,0-.07,0"/>
                <path class="cls-45" d="m73.24,89.8l-3.52-2.05s.05,0,.07,0l3.52,2.05s-.05,0-.07,0"/>
                <path class="cls-67" d="m73.31,89.8l-3.52-2.05s.05,0,.07,0l3.52,2.05s-.05,0-.07,0"/>
                <path class="cls-48" d="m73.38,89.8l-3.52-2.05s.05,0,.07,0l3.52,2.05s-.05,0-.07,0"/>
                <path class="cls-30" d="m73.46,89.79l-3.52-2.05s.05,0,.08-.01l3.52,2.05s-.05,0-.08.01"/>
                <path class="cls-56" d="m73.53,89.78l-3.52-2.05s.05-.01.08-.02l3.52,2.05s-.05.01-.08.02"/>
                <path class="cls-46" d="m73.61,89.77l-3.52-2.05s.05-.01.08-.02l3.52,2.05s-.05.01-.08.02"/>
                <path class="cls-49" d="m73.69,89.74l-3.52-2.05s.06-.02.09-.03l3.52,2.05s-.06.02-.09.03"/>
                <path class="cls-44" d="m73.77,89.72l-3.52-2.05s.06-.02.09-.03l3.52,2.05s-.06.02-.09.03"/>
                <path class="cls-51" d="m73.87,89.68l-3.52-2.05s.06-.03.1-.04l3.52,2.05s-.07.03-.1.04"/>
                <path class="cls-54" d="m73.96,89.64l-3.52-2.05s.07-.04.11-.05l3.52,2.05s-.07.04-.11.05"/>
                <path class="cls-55" d="m74.07,89.59l-3.52-2.05s.05-.03.07-.04l3.52,2.05s-.05.03-.07.04"/>
              </g>
            </g>
          </g>
          <g class="cls-90">
            <g class="cls-71">
              <g class="cls-90">
                <path class="cls-55" d="m65.8,104.41l-3.52-2.05s.09-.05.13-.08l3.52,2.05s-.08.05-.13.08"/>
                <path class="cls-60" d="m65.93,104.33l-3.52-2.05c.12-.07.23-.15.35-.22l3.52,2.05c-.11.08-.23.15-.35.22"/>
                <path class="cls-58" d="m66.27,104.11l-3.52-2.05c.14-.1.28-.2.41-.31l3.52,2.05c-.14.11-.27.21-.41.31"/>
                <path class="cls-62" d="m66.68,103.8l-3.52-2.05c.18-.14.35-.29.52-.45l3.52,2.05c-.17.16-.34.31-.52.45"/>
                <path class="cls-57" d="m67.2,103.35l-3.52-2.05c.39-.37.76-.78,1.1-1.22l3.52,2.05c-.34.44-.71.86-1.1,1.22"/>
                <path class="cls-62" d="m68.3,102.13l-3.52-2.05c.1-.13.2-.27.3-.4l3.52,2.05c-.1.14-.19.27-.3.4"/>
                <path class="cls-58" d="m68.6,101.73l-3.52-2.05c.07-.1.14-.2.2-.3l3.52,2.05c-.07.1-.13.2-.2.3"/>
                <path class="cls-60" d="m68.8,101.42l-3.52-2.05c.06-.09.11-.18.17-.27l3.52,2.05c-.06.09-.11.18-.17.27"/>
                <path class="cls-55" d="m68.97,101.15l-3.52-2.05c.05-.09.1-.17.16-.26l3.52,2.05c-.05.09-.1.18-.16.26"/>
                <path class="cls-54" d="m69.13,100.89l-3.52-2.05c.05-.08.09-.17.14-.25l3.52,2.05c-.05.08-.09.17-.14.25"/>
                <path class="cls-51" d="m69.27,100.64l-3.52-2.05c.05-.08.09-.17.13-.25l3.52,2.05c-.04.08-.09.17-.13.25"/>
                <path class="cls-44" d="m69.4,100.39l-3.52-2.05c.04-.08.08-.17.12-.25l3.52,2.05c-.04.08-.08.17-.12.25"/>
                <path class="cls-49" d="m69.52,100.14l-3.52-2.05c.04-.08.08-.17.12-.25l3.52,2.05c-.04.08-.08.17-.12.25"/>
                <path class="cls-46" d="m69.64,99.88l-3.52-2.05c.04-.08.07-.17.11-.25l3.52,2.05c-.04.08-.07.17-.11.25"/>
                <path class="cls-56" d="m69.75,99.63l-3.52-2.05c.04-.08.07-.17.1-.25l3.52,2.05c-.03.08-.07.17-.1.25"/>
                <path class="cls-30" d="m69.85,99.38l-3.52-2.05c.03-.08.06-.17.09-.25l3.52,2.05c-.03.08-.06.17-.09.25"/>
                <path class="cls-48" d="m69.95,99.12l-3.52-2.05c.03-.08.06-.17.09-.25l3.52,2.05c-.03.08-.06.17-.09.25"/>
                <path class="cls-67" d="m70.03,98.87l-3.52-2.05c.03-.08.05-.17.08-.25l3.52,2.05c-.03.08-.05.17-.08.25"/>
                <path class="cls-45" d="m70.11,98.62l-3.52-2.05c.03-.09.05-.17.07-.26l3.52,2.05c-.02.09-.05.17-.07.26"/>
                <path class="cls-66" d="m70.19,98.36l-3.52-2.05c.02-.09.04-.17.07-.26l3.52,2.05c-.02.09-.04.17-.07.26"/>
                <path class="cls-43" d="m70.25,98.11l-3.52-2.05c.02-.09.04-.17.06-.26l3.52,2.05c-.02.09-.04.17-.06.26"/>
                <path class="cls-35" d="m70.31,97.84l-3.52-2.05c.02-.09.04-.18.05-.27l3.52,2.05c-.02.09-.03.18-.05.27"/>
                <path class="cls-31" d="m70.36,97.58l-3.52-2.05c.02-.09.03-.18.04-.27l3.52,2.05c-.01.09-.03.18-.04.27"/>
                <path class="cls-38" d="m70.4,97.3l-3.52-2.05c.01-.1.02-.19.03-.29l3.52,2.05c0,.1-.02.19-.03.29"/>
                <path class="cls-33" d="m70.44,97.01l-3.52-2.05c.01-.1.02-.2.02-.3l3.52,2.05c0,.1-.01.2-.02.3"/>
                <path class="cls-47" d="m70.46,96.71l-3.52-2.05c0-.11,0-.22.01-.33l3.52,2.05c0,.11,0,.22-.01.33"/>
                <path class="cls-29" d="m70.47,96.37l-3.52-2.05s0-.03,0-.05c0-.11,0-.22-.01-.33l3.52,2.05c0,.11,0,.22.01.33,0,.02,0,.03,0,.05"/>
                <path class="cls-65" d="m70.46,95.99l-3.52-2.05c0-.16-.02-.31-.05-.45l3.52,2.05c.02.14.04.3.05.45"/>
                <path class="cls-63" d="m70.42,95.54l-3.52-2.05c-.15-1.07-.63-1.83-1.31-2.22l3.52,2.05c.68.4,1.16,1.16,1.31,2.22"/>
              </g>
            </g>
          </g>
          <g class="cls-90">
            <g class="cls-77">
              <g class="cls-90">
                <polyline class="cls-47" points="62.47 104.73 58.95 102.69 58.95 102.69 62.47 104.74 62.47 104.73"/>
                <path class="cls-33" d="m62.47,104.74l-3.52-2.05c.06.03.12.07.18.09l3.52,2.05c-.06-.03-.12-.06-.18-.09"/>
                <path class="cls-38" d="m62.66,104.83l-3.52-2.05c.06.03.12.05.18.07l3.52,2.05c-.06-.02-.12-.05-.18-.07"/>
                <path class="cls-31" d="m62.84,104.91l-3.52-2.05c.06.02.12.04.18.06l3.52,2.05c-.06-.02-.12-.04-.18-.06"/>
                <path class="cls-35" d="m63.02,104.96l-3.52-2.05c.06.02.12.03.17.04l3.52,2.05c-.06-.01-.12-.02-.17-.04"/>
                <path class="cls-43" d="m63.19,105l-3.52-2.05c.06.01.12.02.18.03l3.52,2.05c-.06,0-.12-.02-.18-.03"/>
                <path class="cls-66" d="m63.37,105.03l-3.52-2.05c.06,0,.12.01.18.02l3.52,2.05c-.06,0-.12,0-.18-.02"/>
                <path class="cls-45" d="m63.54,105.05l-3.52-2.05c.06,0,.12,0,.18,0l3.52,2.05c-.06,0-.12,0-.18,0"/>
                <path class="cls-67" d="m63.72,105.05l-3.52-2.05c.06,0,.12,0,.18,0l3.52,2.05c-.06,0-.12,0-.18,0"/>
                <path class="cls-48" d="m63.9,105.04l-3.52-2.05c.06,0,.12,0,.18-.02l3.52,2.05c-.06,0-.12.01-.18.02"/>
                <path class="cls-30" d="m64.08,105.03l-3.52-2.05c.06,0,.12-.02.19-.03l3.52,2.05c-.06.01-.13.02-.19.03"/>
                <path class="cls-56" d="m64.27,105l-3.52-2.05c.06-.01.13-.03.2-.04l3.52,2.05c-.07.02-.13.03-.2.04"/>
                <path class="cls-46" d="m64.47,104.96l-3.52-2.05c.07-.02.13-.03.2-.05l3.52,2.05c-.07.02-.13.04-.2.05"/>
                <path class="cls-49" d="m64.67,104.9l-3.52-2.05c.07-.02.14-.04.22-.07l3.52,2.05c-.07.03-.14.05-.22.07"/>
                <path class="cls-44" d="m64.88,104.83l-3.52-2.05c.07-.03.15-.05.23-.09l3.52,2.05c-.08.03-.15.06-.23.09"/>
                <path class="cls-51" d="m65.11,104.75l-3.52-2.05c.08-.03.16-.07.24-.11l3.52,2.05c-.08.04-.16.07-.24.11"/>
                <path class="cls-54" d="m65.35,104.64l-3.52-2.05c.09-.04.18-.09.27-.14l3.52,2.05c-.09.05-.18.09-.27.14"/>
                <path class="cls-55" d="m65.62,104.5l-3.52-2.05c.06-.03.12-.06.18-.1l3.52,2.05c-.06.03-.12.07-.18.1"/>
              </g>
            </g>
          </g>
          <g class="cls-90">
            <g class="cls-76">
              <g class="cls-90">
                <path class="cls-55" d="m57.42,113.76l-3.52-2.05s.03-.02.05-.03l3.52,2.05s-.03.02-.05.03"/>
                <path class="cls-60" d="m57.47,113.73l-3.52-2.05s.09-.06.14-.09l3.52,2.05s-.09.06-.14.09"/>
                <path class="cls-58" d="m57.61,113.64l-3.52-2.05c.06-.04.11-.08.16-.12l3.52,2.05c-.05.04-.11.08-.16.12"/>
                <path class="cls-62" d="m57.77,113.52l-3.52-2.05c.07-.06.14-.12.21-.18l3.52,2.05c-.07.06-.14.12-.21.18"/>
                <path class="cls-57" d="m57.98,113.34l-3.52-2.05c.16-.15.3-.31.44-.49l3.52,2.05c-.14.18-.28.34-.44.49"/>
                <path class="cls-62" d="m58.42,112.85l-3.52-2.05c.04-.05.08-.11.12-.16l3.52,2.05c-.04.05-.08.11-.12.16"/>
                <path class="cls-58" d="m58.53,112.69l-3.52-2.05s.05-.08.08-.12l3.52,2.05s-.05.08-.08.12"/>
                <path class="cls-60" d="m58.61,112.57l-3.52-2.05s.05-.07.07-.11l3.52,2.05s-.04.07-.07.11"/>
                <path class="cls-55" d="m58.68,112.46l-3.52-2.05s.04-.07.06-.1l3.52,2.05s-.04.07-.06.1"/>
                <path class="cls-54" d="m58.74,112.36l-3.52-2.05s.04-.07.06-.1l3.52,2.05s-.04.07-.06.1"/>
                <path class="cls-51" d="m58.8,112.26l-3.52-2.05s.04-.07.05-.1l3.52,2.05s-.03.07-.05.1"/>
                <path class="cls-44" d="m58.85,112.15l-3.52-2.05s.03-.07.05-.1l3.52,2.05s-.03.07-.05.1"/>
                <path class="cls-49" d="m58.9,112.05l-3.52-2.05s.03-.07.05-.1l3.52,2.05s-.03.07-.05.1"/>
                <path class="cls-46" d="m58.95,111.95l-3.52-2.05s.03-.07.04-.1l3.52,2.05s-.03.07-.04.1"/>
                <path class="cls-56" d="m58.99,111.85l-3.52-2.05s.03-.07.04-.1l3.52,2.05s-.03.07-.04.1"/>
                <path class="cls-30" d="m59.03,111.75l-3.52-2.05s.03-.07.04-.1l3.52,2.05s-.02.07-.04.1"/>
                <path class="cls-48" d="m59.07,111.65l-3.52-2.05s.02-.07.03-.1l3.52,2.05s-.02.07-.03.1"/>
                <path class="cls-67" d="m59.11,111.55l-3.52-2.05s.02-.07.03-.1l3.52,2.05s-.02.07-.03.1"/>
                <path class="cls-45" d="m59.14,111.45l-3.52-2.05s.02-.07.03-.1l3.52,2.05s-.02.07-.03.1"/>
                <path class="cls-66" d="m59.17,111.35l-3.52-2.05s.02-.07.03-.1l3.52,2.05s-.02.07-.03.1"/>
                <path class="cls-43" d="m59.19,111.24l-3.52-2.05s.02-.07.02-.1l3.52,2.05s-.02.07-.02.1"/>
                <path class="cls-35" d="m59.22,111.14l-3.52-2.05s.01-.07.02-.11l3.52,2.05s-.01.07-.02.11"/>
                <path class="cls-31" d="m59.24,111.03l-3.52-2.05s.01-.07.02-.11l3.52,2.05s-.01.07-.02.11"/>
                <path class="cls-38" d="m59.25,110.92l-3.52-2.05s0-.08.01-.12l3.52,2.05s0,.08-.01.12"/>
                <path class="cls-33" d="m59.27,110.8l-3.52-2.05s0-.08,0-.12l3.52,2.05s0,.08,0,.12"/>
                <path class="cls-47" d="m59.28,110.68l-3.52-2.05s0-.09,0-.13l3.52,2.05s0,.09,0,.13"/>
                <path class="cls-29" d="m59.28,110.55l-3.52-2.05s0-.01,0-.02c0-.05,0-.09,0-.13l3.52,2.05s0,.09,0,.13c0,0,0,.01,0,.02"/>
                <path class="cls-65" d="m59.28,110.4l-3.52-2.05c0-.06,0-.12-.02-.18l3.52,2.05c0,.06.01.12.02.18"/>
                <path class="cls-63" d="m59.26,110.21l-3.52-2.05c-.06-.43-.25-.73-.52-.89l3.52,2.05c.27.16.46.46.52.89"/>
              </g>
            </g>
          </g>
          <g class="cls-90">
            <g class="cls-74">
              <g class="cls-90">
                <polyline class="cls-47" points="56.08 113.89 52.55 111.84 52.56 111.84 56.08 113.89 56.08 113.89"/>
                <path class="cls-33" d="m56.08,113.89l-3.52-2.05s.05.03.07.04l3.52,2.05s-.05-.02-.07-.04"/>
                <path class="cls-38" d="m56.15,113.93l-3.52-2.05s.05.02.07.03l3.52,2.05s-.05-.02-.07-.03"/>
                <path class="cls-31" d="m56.23,113.96l-3.52-2.05s.05.02.07.02l3.52,2.05s-.05-.01-.07-.02"/>
                <path class="cls-35" d="m56.3,113.98l-3.52-2.05s.05.01.07.02l3.52,2.05s-.05-.01-.07-.02"/>
                <path class="cls-43" d="m56.37,114l-3.52-2.05s.05,0,.07.01l3.52,2.05s-.05,0-.07-.01"/>
                <path class="cls-66" d="m56.44,114.01l-3.52-2.05s.05,0,.07,0l3.52,2.05s-.05,0-.07,0"/>
                <path class="cls-45" d="m56.51,114.02l-3.52-2.05s.05,0,.07,0l3.52,2.05s-.05,0-.07,0"/>
                <path class="cls-67" d="m56.58,114.02l-3.52-2.05s.05,0,.07,0l3.52,2.05s-.05,0-.07,0"/>
                <path class="cls-48" d="m56.65,114.01l-3.52-2.05s.05,0,.07,0l3.52,2.05s-.05,0-.07,0"/>
                <path class="cls-30" d="m56.73,114.01l-3.52-2.05s.05,0,.08-.01l3.52,2.05s-.05,0-.08.01"/>
                <path class="cls-56" d="m56.8,114l-3.52-2.05s.05-.01.08-.02l3.52,2.05s-.05.01-.08.02"/>
                <path class="cls-46" d="m56.88,113.98l-3.52-2.05s.05-.01.08-.02l3.52,2.05s-.05.02-.08.02"/>
                <path class="cls-49" d="m56.96,113.96l-3.52-2.05s.06-.02.09-.03l3.52,2.05s-.06.02-.09.03"/>
                <path class="cls-44" d="m57.05,113.93l-3.52-2.05s.06-.02.09-.03l3.52,2.05s-.06.02-.09.03"/>
                <path class="cls-51" d="m57.14,113.9l-3.52-2.05s.06-.03.1-.04l3.52,2.05s-.07.03-.1.04"/>
                <path class="cls-54" d="m57.24,113.85l-3.52-2.05s.07-.04.11-.05l3.52,2.05s-.07.04-.11.05"/>
                <path class="cls-55" d="m57.35,113.8l-3.52-2.05s.05-.03.07-.04l3.52,2.05s-.05.03-.07.04"/>
              </g>
            </g>
          </g>
          <g class="cls-90">
            <g class="cls-75">
              <g class="cls-90">
                <path class="cls-55" d="m65.74,82.16l-3.52-2.05c.18-.11.37-.21.55-.31l3.52,2.05c-.18.1-.37.2-.55.31"/>
                <path class="cls-54" d="m66.29,81.86l-3.52-2.05c.29-.15.57-.3.85-.43l3.52,2.05c-.28.13-.56.27-.85.43"/>
                <path class="cls-51" d="m67.14,81.43l-3.52-2.05c.26-.12.51-.23.76-.33l3.52,2.05c-.25.1-.51.21-.76.33"/>
                <path class="cls-44" d="m67.9,81.1l-3.52-2.05c.24-.1.47-.19.71-.27l3.52,2.05c-.23.08-.47.17-.71.27"/>
                <path class="cls-49" d="m68.61,80.83l-3.52-2.05c.23-.08.45-.15.68-.22l3.52,2.05c-.22.07-.45.14-.68.22"/>
                <path class="cls-46" d="m69.28,80.61l-3.52-2.05c.21-.06.42-.12.63-.17l3.52,2.05c-.21.05-.42.1-.63.17"/>
                <path class="cls-56" d="m69.91,80.45l-3.52-2.05c.21-.05.41-.09.61-.13l3.52,2.05c-.2.04-.41.08-.61.13"/>
                <path class="cls-30" d="m70.52,80.32l-3.52-2.05c.2-.04.4-.07.59-.09l3.52,2.05c-.19.02-.39.05-.59.09"/>
                <path class="cls-48" d="m71.11,80.23l-3.52-2.05c.19-.02.39-.04.58-.06l3.52,2.05c-.19.01-.38.03-.58.06"/>
                <path class="cls-67" d="m71.69,80.17l-3.52-2.05c.19-.01.38-.02.57-.02l3.52,2.05c-.19,0-.37,0-.57.02"/>
                <path class="cls-45" d="m72.26,80.15l-3.52-2.05c.19,0,.38,0,.56.01l3.52,2.05c-.18-.01-.37-.01-.56-.01"/>
                <path class="cls-66" d="m72.82,80.16l-3.52-2.05c.19.01.37.03.55.05l3.52,2.05c-.18-.02-.36-.04-.55-.05"/>
                <path class="cls-43" d="m73.37,80.21l-3.52-2.05c.19.02.37.05.55.09l3.52,2.05c-.18-.04-.37-.06-.55-.09"/>
                <path class="cls-35" d="m73.92,80.3l-3.52-2.05c.19.04.37.08.55.13l3.52,2.05c-.18-.05-.36-.09-.55-.13"/>
                <path class="cls-31" d="m74.47,80.43l-3.52-2.05c.19.05.38.11.56.18l3.52,2.05c-.18-.07-.37-.13-.56-.18"/>
                <path class="cls-38" d="m75.03,80.6l-3.52-2.05c.19.07.38.15.57.23l3.52,2.05c-.18-.09-.37-.16-.57-.23"/>
                <path class="cls-33" d="m75.6,80.84l-3.52-2.05c.2.09.39.19.57.3l3.52,2.05c-.19-.11-.38-.21-.57-.3"/>
                <polyline class="cls-47" points="76.17 81.13 72.65 79.08 72.66 79.09 76.18 81.14 76.17 81.13"/>
              </g>
            </g>
          </g>
          <g class="cls-90">
            <g class="cls-78">
              <g class="cls-90">
                <path class="cls-55" d="m57.37,96.31l-3.52-2.05s.03-.02.05-.03l3.52,2.05s-.03.02-.05.03"/>
                <path class="cls-60" d="m57.42,96.28l-3.52-2.05s.09-.06.14-.09l3.52,2.05s-.09.06-.14.09"/>
                <path class="cls-58" d="m57.56,96.19l-3.52-2.05c.06-.04.11-.08.16-.12l3.52,2.05c-.05.04-.11.08-.16.12"/>
                <path class="cls-62" d="m57.72,96.07l-3.52-2.05c.07-.06.14-.12.21-.18l3.52,2.05c-.07.06-.14.12-.21.18"/>
                <path class="cls-57" d="m57.93,95.89l-3.52-2.05c.16-.15.3-.31.44-.49l3.52,2.05c-.14.18-.28.34-.44.49"/>
                <path class="cls-62" d="m58.37,95.4l-3.52-2.05c.04-.05.08-.11.12-.16l3.52,2.05c-.04.05-.08.11-.12.16"/>
                <path class="cls-58" d="m58.48,95.24l-3.52-2.05s.05-.08.08-.12l3.52,2.05s-.05.08-.08.12"/>
                <path class="cls-60" d="m58.56,95.12l-3.52-2.05s.05-.07.07-.11l3.52,2.05s-.04.07-.07.11"/>
                <path class="cls-55" d="m58.63,95.01l-3.52-2.05s.04-.07.06-.1l3.52,2.05s-.04.07-.06.1"/>
                <path class="cls-54" d="m58.69,94.91l-3.52-2.05s.04-.07.06-.1l3.52,2.05s-.04.07-.06.1"/>
                <path class="cls-51" d="m58.75,94.81l-3.52-2.05s.04-.07.05-.1l3.52,2.05s-.03.07-.05.1"/>
                <path class="cls-44" d="m58.8,94.71l-3.52-2.05s.03-.07.05-.1l3.52,2.05s-.03.07-.05.1"/>
                <path class="cls-49" d="m58.85,94.61l-3.52-2.05s.03-.07.05-.1l3.52,2.05s-.03.07-.05.1"/>
                <path class="cls-46" d="m58.9,94.51l-3.52-2.05s.03-.07.04-.1l3.52,2.05s-.03.07-.04.1"/>
                <path class="cls-56" d="m58.94,94.41l-3.52-2.05s.03-.07.04-.1l3.52,2.05s-.03.07-.04.1"/>
                <path class="cls-30" d="m58.98,94.31l-3.52-2.05s.03-.07.04-.1l3.52,2.05s-.02.07-.04.1"/>
                <path class="cls-48" d="m59.02,94.2l-3.52-2.05s.02-.07.03-.1l3.52,2.05s-.02.07-.03.1"/>
                <path class="cls-67" d="m59.06,94.1l-3.52-2.05s.02-.07.03-.1l3.52,2.05s-.02.07-.03.1"/>
                <path class="cls-45" d="m59.09,94l-3.52-2.05s.02-.07.03-.1l3.52,2.05s-.02.07-.03.1"/>
                <path class="cls-66" d="m59.12,93.9l-3.52-2.05s.02-.07.03-.1l3.52,2.05s-.02.07-.03.1"/>
                <path class="cls-43" d="m59.14,93.8l-3.52-2.05s.02-.07.02-.1l3.52,2.05s-.02.07-.02.1"/>
                <path class="cls-35" d="m59.17,93.69l-3.52-2.05s.01-.07.02-.11l3.52,2.05s-.01.07-.02.11"/>
                <path class="cls-31" d="m59.19,93.58l-3.52-2.05s.01-.07.02-.11l3.52,2.05s-.01.07-.02.11"/>
                <path class="cls-38" d="m59.2,93.48l-3.52-2.05s0-.08.01-.12l3.52,2.05s0,.08-.01.12"/>
                <path class="cls-33" d="m59.22,93.36l-3.52-2.05s0-.08,0-.12l3.52,2.05s0,.08,0,.12"/>
                <path class="cls-47" d="m59.23,93.24l-3.52-2.05s0-.09,0-.13l3.52,2.05s0,.09,0,.13"/>
                <path class="cls-29" d="m59.23,93.1l-3.52-2.05s0-.01,0-.02c0-.05,0-.09,0-.13l3.52,2.05s0,.09,0,.13c0,0,0,.01,0,.02"/>
                <path class="cls-65" d="m59.23,92.95l-3.52-2.05c0-.06,0-.12-.02-.18l3.52,2.05c0,.06.01.12.02.18"/>
                <path class="cls-63" d="m59.21,92.77l-3.52-2.05c-.06-.43-.25-.73-.53-.89l3.52,2.05c.27.16.46.47.53.89"/>
              </g>
            </g>
          </g>
          <g class="cls-90">
            <g class="cls-82">
              <g class="cls-90">
                <polyline class="cls-47" points="56.03 96.44 52.51 94.4 52.51 94.4 56.03 96.45 56.03 96.44"/>
                <path class="cls-33" d="m56.03,96.45l-3.52-2.05s.05.03.07.04l3.52,2.05s-.05-.02-.07-.04"/>
                <path class="cls-38" d="m56.1,96.48l-3.52-2.05s.05.02.07.03l3.52,2.05s-.05-.02-.07-.03"/>
                <path class="cls-31" d="m56.18,96.51l-3.52-2.05s.05.02.07.02l3.52,2.05s-.05-.01-.07-.02"/>
                <path class="cls-35" d="m56.25,96.54l-3.52-2.05s.05.01.07.02l3.52,2.05s-.05-.01-.07-.02"/>
                <path class="cls-43" d="m56.32,96.55l-3.52-2.05s.05,0,.07.01l3.52,2.05s-.05,0-.07-.01"/>
                <path class="cls-66" d="m56.39,96.56l-3.52-2.05s.05,0,.07,0l3.52,2.05s-.05,0-.07,0"/>
                <path class="cls-45" d="m56.46,96.57l-3.52-2.05s.05,0,.07,0l3.52,2.05s-.05,0-.07,0"/>
                <path class="cls-67" d="m56.53,96.57l-3.52-2.05s.05,0,.07,0l3.52,2.05s-.05,0-.07,0"/>
                <path class="cls-48" d="m56.6,96.57l-3.52-2.05s.05,0,.07,0l3.52,2.05s-.05,0-.07,0"/>
                <path class="cls-30" d="m56.68,96.56l-3.52-2.05s.05,0,.08-.01l3.52,2.05s-.05,0-.08.01"/>
                <path class="cls-56" d="m56.75,96.55l-3.52-2.05s.05-.01.08-.02l3.52,2.05s-.05.01-.08.02"/>
                <path class="cls-46" d="m56.83,96.53l-3.52-2.05s.05-.01.08-.02l3.52,2.05s-.05.02-.08.02"/>
                <path class="cls-49" d="m56.91,96.51l-3.52-2.05s.06-.02.09-.03l3.52,2.05s-.06.02-.09.03"/>
                <path class="cls-44" d="m57,96.48l-3.52-2.05s.06-.02.09-.03l3.52,2.05s-.06.02-.09.03"/>
                <path class="cls-51" d="m57.09,96.45l-3.52-2.05s.06-.03.1-.04l3.52,2.05s-.07.03-.1.04"/>
                <path class="cls-54" d="m57.19,96.41l-3.52-2.05s.07-.04.11-.05l3.52,2.05s-.07.04-.11.05"/>
                <path class="cls-55" d="m57.3,96.35l-3.52-2.05s.05-.03.07-.04l3.52,2.05s-.05.03-.07.04"/>
              </g>
            </g>
          </g>
          <g class="cls-90">
            <g class="cls-87">
              <g class="cls-90">
                <path class="cls-63" d="m55.39,116.91l-3.52-2.05c-2.14-1.24-3.62-3.63-4.11-6.97l3.52,2.05c.49,3.34,1.97,5.72,4.11,6.97"/>
                <path class="cls-65" d="m51.29,109.95l-3.52-2.05c-.07-.45-.11-.92-.14-1.41l3.52,2.05c.03.49.08.96.14,1.41"/>
                <path class="cls-29" d="m51.14,108.54l-3.52-2.05c-.02-.34-.03-.68-.03-1.04,0-.05,0-.1,0-.15l3.52,2.05c0,.05,0,.1,0,.15,0,.35.01.7.03,1.04"/>
                <path class="cls-47" d="m51.11,107.35l-3.52-2.05c0-.35.01-.69.03-1.04l3.52,2.05c-.02.35-.03.7-.03,1.04"/>
                <path class="cls-33" d="m51.14,106.3l-3.52-2.05c.02-.32.04-.63.07-.95l3.52,2.05c-.03.32-.06.64-.07.95"/>
                <path class="cls-38" d="m51.22,105.35l-3.52-2.05c.03-.3.07-.61.11-.91l3.52,2.05c-.04.31-.08.61-.11.91"/>
                <path class="cls-31" d="m51.33,104.44l-3.52-2.05c.04-.29.08-.57.13-.86l3.52,2.05c-.05.29-.09.57-.13.86"/>
                <path class="cls-35" d="m51.46,103.58l-3.52-2.05c.05-.28.1-.56.16-.84l3.52,2.05c-.06.28-.11.56-.16.84"/>
                <path class="cls-43" d="m51.62,102.74l-3.52-2.05c.06-.27.12-.55.18-.82l3.52,2.05c-.07.27-.13.55-.18.82"/>
                <path class="cls-66" d="m51.8,101.91l-3.52-2.05c.06-.27.13-.54.2-.81l3.52,2.05c-.07.27-.14.54-.2.81"/>
                <path class="cls-45" d="m52.01,101.11l-3.52-2.05c.07-.27.15-.53.23-.8l3.52,2.05c-.08.27-.16.53-.23.8"/>
                <path class="cls-67" d="m52.24,100.31l-3.52-2.05c.08-.27.16-.53.25-.8l3.52,2.05c-.09.27-.17.53-.25.8"/>
                <path class="cls-48" d="m52.49,99.51l-3.52-2.05c.09-.27.18-.53.27-.79l3.52,2.05c-.09.26-.19.53-.27.79"/>
                <path class="cls-30" d="m52.76,98.72l-3.52-2.05c.1-.27.19-.53.3-.8l3.52,2.05c-.1.26-.2.53-.3.8"/>
                <path class="cls-56" d="m53.06,97.92l-3.52-2.05c.1-.27.21-.53.32-.79l3.52,2.05c-.11.26-.22.53-.32.79"/>
                <path class="cls-46" d="m53.38,97.12l-3.52-2.05c.11-.27.23-.53.34-.79l3.52,2.05c-.12.26-.23.53-.34.79"/>
                <path class="cls-49" d="m53.72,96.33l-3.52-2.05c.12-.26.24-.53.37-.79l3.52,2.05c-.13.26-.25.53-.37.79"/>
                <path class="cls-44" d="m54.09,95.54l-3.52-2.05c.13-.26.26-.53.39-.79l3.52,2.05c-.13.26-.26.52-.39.79"/>
                <path class="cls-51" d="m54.48,94.75l-3.52-2.05c.13-.26.27-.53.41-.79l3.52,2.05c-.14.26-.28.52-.41.79"/>
                <path class="cls-54" d="m54.89,93.96l-3.52-2.05c.14-.26.29-.52.44-.78l3.52,2.05c-.15.26-.29.52-.44.78"/>
                <path class="cls-55" d="m55.33,93.18l-3.52-2.05c.16-.28.32-.55.49-.82l3.52,2.05c-.17.27-.33.55-.49.82"/>
                <path class="cls-60" d="m55.81,92.35l-3.52-2.05c.17-.29.35-.57.54-.85l3.52,2.05c-.18.28-.36.57-.54.85"/>
                <path class="cls-58" d="m56.35,91.5l-3.52-2.05c.21-.32.42-.64.64-.95l3.52,2.05c-.22.31-.43.63-.64.95"/>
                <path class="cls-62" d="m56.99,90.55l-3.52-2.05c.3-.43.61-.85.93-1.27l3.52,2.05c-.32.41-.63.84-.93,1.27"/>
                <path class="cls-57" d="m57.91,89.28l-3.52-2.05c1.07-1.39,2.22-2.68,3.45-3.83l3.52,2.05c-1.23,1.15-2.39,2.44-3.45,3.83"/>
                <path class="cls-62" d="m61.37,85.45l-3.52-2.05c.53-.49,1.06-.96,1.61-1.4l3.52,2.05c-.55.44-1.09.9-1.61,1.4"/>
                <path class="cls-58" d="m62.98,84.05l-3.52-2.05c.42-.34.85-.65,1.28-.95l3.52,2.05c-.43.3-.86.62-1.28.95"/>
                <path class="cls-60" d="m64.26,83.1l-3.52-2.05c.36-.25.71-.48,1.08-.7l3.52,2.05c-.36.22-.72.45-1.08.7"/>
                <path class="cls-55" d="m65.34,82.4l-3.52-2.05c.13-.08.26-.16.4-.24l3.52,2.05c-.13.08-.27.16-.4.24"/>
              </g>
            </g>
          </g>
          <path class="cls-39" d="m65.74,82.16c8.11-4.68,14.7-.93,14.73,8.39.03,9.31-6.52,20.65-14.63,25.33-8.1,4.68-14.69.92-14.72-8.39-.03-9.32,6.52-20.66,14.62-25.34Zm.06,22.24c2.59-1.5,4.68-5.11,4.67-8.08s-2.11-4.18-4.7-2.68-4.67,5.11-4.66,8.09,2.11,4.17,4.7,2.68m-8.38,9.35c1.03-.6,1.87-2.04,1.86-3.23s-.84-1.67-1.88-1.08-1.87,2.04-1.87,3.24.85,1.66,1.88,1.07m16.72-24.21c1.03-.6,1.87-2.04,1.87-3.23s-.85-1.67-1.88-1.07-1.87,2.05-1.86,3.24.84,1.67,1.88,1.07m.04,14.53c1.03-.6,1.87-2.04,1.87-3.23s-.85-1.67-1.88-1.07-1.87,2.04-1.86,3.24.84,1.67,1.88,1.07m-16.82-7.77c1.03-.6,1.87-2.04,1.86-3.23s-.84-1.67-1.88-1.08-1.87,2.05-1.87,3.24.85,1.66,1.88,1.07"/>
        </g>
        <g class="cls-90">
          <g class="cls-90">
            <g class="cls-81">
              <g class="cls-90">
                <path class="cls-55" d="m78.64,102.56l-14.1-8.19c.06-.03.11-.06.17-.09l14.1,8.19c-.06.03-.11.06-.17.09"/>
                <path class="cls-54" d="m78.81,102.47l-14.1-8.19c.09-.05.17-.09.26-.13l14.1,8.19c-.09.04-.17.08-.26.13"/>
                <path class="cls-51" d="m79.07,102.34l-14.1-8.19c.08-.04.16-.07.23-.1l14.1,8.19c-.08.03-.15.07-.23.1"/>
                <path class="cls-44" d="m79.3,102.23l-14.1-8.19c.07-.03.14-.06.21-.08l14.1,8.19c-.07.02-.14.05-.21.08"/>
                <path class="cls-49" d="m79.51,102.15l-14.1-8.19c.07-.02.14-.05.21-.07l14.1,8.19c-.07.02-.14.04-.21.07"/>
                <path class="cls-46" d="m79.72,102.09l-14.1-8.19c.06-.02.13-.04.19-.05l14.1,8.19c-.06.01-.13.03-.19.05"/>
                <path class="cls-56" d="m79.91,102.04l-14.1-8.19c.06-.01.12-.03.19-.04l14.1,8.19c-.06.01-.12.02-.19.04"/>
                <path class="cls-30" d="m80.1,102l-14.1-8.19c.06-.01.12-.02.18-.03l14.1,8.19c-.06,0-.12.02-.18.03"/>
                <path class="cls-48" d="m80.28,101.97l-14.1-8.19c.06,0,.12-.01.18-.02l14.1,8.19c-.06,0-.12,0-.18.02"/>
                <path class="cls-67" d="m80.45,101.95l-14.1-8.19c.06,0,.11,0,.17,0l14.1,8.19c-.06,0-.11,0-.17,0"/>
                <path class="cls-45" d="m80.62,101.95l-14.1-8.19c.06,0,.11,0,.17,0l14.1,8.19c-.06,0-.11,0-.17,0"/>
                <path class="cls-66" d="m80.79,101.95l-14.1-8.19c.06,0,.11,0,.17.01l14.1,8.19c-.05,0-.11-.01-.17-.01"/>
                <path class="cls-43" d="m80.96,101.97l-14.1-8.19c.06,0,.11.02.17.03l14.1,8.19c-.06-.01-.11-.02-.17-.03"/>
                <path class="cls-35" d="m81.13,101.99l-14.1-8.19c.06.01.11.02.17.04l14.1,8.19c-.05-.01-.11-.03-.17-.04"/>
                <path class="cls-31" d="m81.29,102.03l-14.1-8.19c.06.02.11.03.17.05l14.1,8.19c-.06-.02-.11-.04-.17-.05"/>
                <path class="cls-38" d="m81.46,102.08l-14.1-8.19c.06.02.12.04.17.07l14.1,8.19c-.06-.03-.11-.05-.17-.07"/>
                <path class="cls-33" d="m81.64,102.16l-14.1-8.19c.06.03.12.06.17.09l14.1,8.19c-.06-.03-.11-.06-.17-.09"/>
                <polyline class="cls-47" points="81.81 102.25 67.71 94.05 67.72 94.06 81.81 102.25 81.81 102.25"/>
              </g>
            </g>
          </g>
          <g class="cls-90">
            <g class="cls-80">
              <g class="cls-90">
                <path class="cls-63" d="m75.5,113.11l-14.1-8.19c-.65-.38-1.1-1.1-1.25-2.12l14.1,8.19c.15,1.01.6,1.74,1.25,2.12"/>
                <path class="cls-65" d="m74.25,111l-14.1-8.19c-.02-.14-.03-.28-.04-.43l14.1,8.19c0,.15.02.29.04.43"/>
                <path class="cls-29" d="m74.21,110.57l-14.1-8.19c0-.1,0-.21,0-.32,0-.02,0-.03,0-.05l14.1,8.19s0,.03,0,.05c0,.11,0,.21,0,.32"/>
                <path class="cls-47" d="m74.2,110.21l-14.1-8.19c0-.11,0-.21,0-.32l14.1,8.19c0,.11,0,.21,0,.32"/>
                <path class="cls-33" d="m74.21,109.89l-14.1-8.19c0-.1.01-.19.02-.29l14.1,8.19c0,.1-.02.19-.02.29"/>
                <path class="cls-38" d="m74.23,109.6l-14.1-8.19c0-.09.02-.19.03-.28l14.1,8.19c-.01.09-.02.19-.03.28"/>
                <path class="cls-31" d="m74.26,109.32l-14.1-8.19c.01-.09.03-.17.04-.26l14.1,8.19c-.02.09-.03.17-.04.26"/>
                <path class="cls-35" d="m74.31,109.06l-14.1-8.19c.01-.08.03-.17.05-.25l14.1,8.19c-.02.09-.03.17-.05.25"/>
                <path class="cls-43" d="m74.35,108.8l-14.1-8.19c.02-.08.04-.17.06-.25l14.1,8.19c-.02.08-.04.17-.06.25"/>
                <path class="cls-66" d="m74.41,108.55l-14.1-8.19c.02-.08.04-.16.06-.24l14.1,8.19c-.02.08-.04.16-.06.24"/>
                <path class="cls-45" d="m74.47,108.31l-14.1-8.19c.02-.08.04-.16.07-.24l14.1,8.19c-.02.08-.05.16-.07.24"/>
                <path class="cls-67" d="m74.54,108.07l-14.1-8.19c.02-.08.05-.16.08-.24l14.1,8.19c-.03.08-.05.16-.08.24"/>
                <path class="cls-48" d="m74.62,107.82l-14.1-8.19c.03-.08.05-.16.08-.24l14.1,8.19c-.03.08-.06.16-.08.24"/>
                <path class="cls-30" d="m74.7,107.58l-14.1-8.19c.03-.08.06-.16.09-.24l14.1,8.19c-.03.08-.06.16-.09.24"/>
                <path class="cls-56" d="m74.79,107.34l-14.1-8.19c.03-.08.06-.16.1-.24l14.1,8.19c-.03.08-.07.16-.1.24"/>
                <path class="cls-46" d="m74.89,107.1l-14.1-8.19c.03-.08.07-.16.1-.24l14.1,8.19c-.04.08-.07.16-.1.24"/>
                <path class="cls-49" d="m74.99,106.86l-14.1-8.19c.04-.08.07-.16.11-.24l14.1,8.19c-.04.08-.08.16-.11.24"/>
                <path class="cls-44" d="m75.1,106.62l-14.1-8.19c.04-.08.08-.16.12-.24l14.1,8.19c-.04.08-.08.16-.12.24"/>
                <path class="cls-51" d="m75.22,106.38l-14.1-8.19c.04-.08.08-.16.13-.24l14.1,8.19c-.04.08-.08.16-.13.24"/>
                <path class="cls-54" d="m75.35,106.14l-14.1-8.19c.04-.08.09-.16.13-.24l14.1,8.19c-.05.08-.09.16-.13.24"/>
                <path class="cls-55" d="m75.48,105.9l-14.1-8.19c.05-.08.1-.17.15-.25l14.1,8.19c-.05.08-.1.17-.15.25"/>
                <path class="cls-60" d="m75.63,105.66l-14.1-8.19c.05-.09.11-.17.16-.26l14.1,8.19c-.06.09-.11.17-.16.26"/>
                <path class="cls-58" d="m75.79,105.4l-14.1-8.19c.06-.1.13-.19.19-.29l14.1,8.19c-.07.09-.13.19-.19.29"/>
                <path class="cls-62" d="m75.98,105.11l-14.1-8.19c.09-.13.18-.26.28-.38l14.1,8.19c-.1.13-.19.25-.28.38"/>
                <path class="cls-57" d="m76.26,104.72l-14.1-8.19c.32-.42.68-.81,1.05-1.16l14.1,8.19c-.37.35-.72.74-1.05,1.16"/>
                <path class="cls-62" d="m77.31,103.56l-14.1-8.19c.16-.15.32-.29.49-.42l14.1,8.19c-.17.13-.33.27-.49.42"/>
                <path class="cls-58" d="m77.8,103.14l-14.1-8.19c.13-.1.26-.2.39-.29l14.1,8.19c-.13.09-.26.19-.39.29"/>
                <path class="cls-60" d="m78.19,102.85l-14.1-8.19c.11-.08.22-.15.33-.21l14.1,8.19c-.11.07-.22.14-.33.21"/>
                <path class="cls-55" d="m78.52,102.63l-14.1-8.19s.08-.05.12-.07l14.1,8.19s-.08.05-.12.07"/>
              </g>
            </g>
          </g>
          <path class="cls-39" d="m78.64,102.56c2.46-1.42,4.46-.28,4.47,2.55s-1.98,6.27-4.44,7.69-4.46.28-4.47-2.55,1.98-6.27,4.44-7.69Z"/>
        </g>
        <g class="cls-90">
          <g>
            <path class="cls-52" d="m85.62,124.75c-.03-.07-.06-.14-.1-.2-.02-.04-.05-.07-.08-.11-.05-.06-.1-.12-.16-.18-.04-.04-.08-.07-.12-.1-.1-.08-.2-.16-.32-.23-.11-.07-.24-.12-.37-.17-.11-.05-.23-.09-.35-.12-.07-.02-.13-.04-.2-.06-.24-.06-.48-.1-.73-.12-.05,0-.1,0-.15,0-.25-.02-.5-.01-.75,0-.04,0-.07,0-.11,0-.27.03-.53.08-.78.15-.06.02-.11.03-.17.05-.2.06-.39.14-.57.23-.03.02-.07.03-.1.05-.15.09-.28.18-.4.28-.02.02-.03.04-.05.05-.1.09-.18.19-.25.3-.04.06-.07.13-.1.2-.01.03-.03.07-.04.1-.03.1-.05.21-.05.31l-.02-6.23c0-.11.02-.21.05-.31.01-.03.03-.07.04-.1.02-.05.04-.11.07-.16,0-.01.02-.02.03-.04.07-.1.15-.2.25-.3.02-.01.02-.03.04-.05,0,0,0,0,0,0,.11-.1.24-.2.4-.28.01,0,.03-.01.04-.02.02-.01.04-.02.06-.03.18-.09.37-.17.57-.23.03,0,.06-.03.09-.04.03,0,.06,0,.09-.02.25-.07.51-.12.78-.15.04,0,.07,0,.11,0,.25-.02.5-.02.75,0,.03,0,.07,0,.1,0,.02,0,.04,0,.05,0,.25.02.5.06.73.12.02,0,.04,0,.05,0,.05.01.09.04.14.05.12.04.24.08.35.12.03.01.06.02.09.03.09.04.19.09.27.14.09.05.17.11.25.16.03.02.05.04.07.07.04.03.08.07.12.1.06.06.11.12.16.18.03.04.06.07.08.11.04.07.08.13.1.2.01.03.03.06.04.1.03.1.05.2.05.31l.02,6.23c0-.1-.02-.21-.05-.31-.01-.03-.03-.06-.04-.1Z"/>
            <path class="cls-52" d="m96.98,128.55c.02-.05.04-.11.07-.16,0-.01.02-.02.03-.04.06-.1.15-.2.25-.29.02-.02.02-.03.04-.05,0,0,0,0,0,0,.11-.1.25-.2.4-.28.01,0,.03-.01.04-.02.02-.01.04-.02.06-.03.18-.09.37-.17.57-.24.03,0,.06-.03.09-.04.03,0,.06,0,.08-.02.25-.07.51-.12.77-.15.04,0,.07,0,.11,0,.25-.02.49-.02.74,0,.03,0,.07,0,.1,0,.02,0,.03,0,.05,0,.25.02.49.06.73.12.02,0,.04,0,.05,0,.05.01.09.04.14.05.12.04.24.08.35.13.03.01.06.02.09.03.1.04.19.09.28.14.09.05.17.11.25.16.03.02.05.04.07.07.04.03.08.07.12.1.06.06.11.12.16.18.03.04.06.07.08.11.04.07.08.13.1.2.01.03.03.06.04.1.03.1.05.2.05.31l.02,6.23c0-.1-.02-.21-.05-.31-.01-.03-.03-.06-.04-.1-.03-.07-.06-.14-.1-.2-.02-.04-.05-.07-.08-.11-.05-.06-.1-.12-.16-.18-.04-.03-.07-.07-.12-.1-.1-.08-.2-.16-.32-.23-.11-.07-.24-.12-.37-.17-.11-.05-.23-.09-.35-.13-.07-.02-.13-.04-.2-.06-.24-.06-.48-.1-.73-.12-.05,0-.1,0-.15,0-.25-.02-.5-.01-.74,0-.04,0-.07,0-.11,0-.27.03-.52.08-.77.15-.06.02-.11.03-.17.05-.2.07-.39.14-.57.24-.03.02-.07.03-.1.05-.15.09-.28.18-.4.28-.02.02-.03.04-.05.06-.1.09-.18.19-.25.29-.04.06-.07.13-.1.19-.01.03-.03.07-.04.1-.03.1-.05.21-.05.31l-.02-6.23c0-.11.02-.21.05-.31.01-.03.03-.07.04-.1Z"/>
            <path class="cls-52" d="m75.26,129.31c.06-.21.15-.41.27-.61.01-.02.01-.04.02-.06.02-.03.04-.06.06-.09.06-.1.13-.2.21-.3.04-.05.08-.1.12-.15.1-.11.2-.22.31-.32.03-.03.05-.06.08-.09,0,0,.02-.01.02-.02.09-.08.2-.16.3-.24.05-.04.1-.08.16-.12.17-.12.34-.23.54-.34.03-.02.06-.04.1-.05.31-.18.65-.33,1-.46.1-.04.2-.07.3-.1.16-.06.32-.12.49-.17.13-.04.26-.06.39-.09.14-.04.28-.07.42-.1.31-.07.62-.12.94-.16.12-.02.23-.04.35-.05.43-.05.87-.07,1.31-.07.08,0,.16,0,.25,0,.29,0,.57,0,.86.03.08,0,.15.02.23.03.13.01.26.03.38.05.31.04.62.09.93.16.12.03.24.05.36.08.07.02.13.03.2.04.12.03.23.09.36.13.31.09.6.2.89.32.07.03.16.05.23.08.24.11.47.23.69.35.2.12.39.24.57.37.01.01.03.02.05.03.02.02.04.04.06.06.22.17.42.34.59.52.01.02.03.03.05.05.17.19.31.38.44.58.02.04.05.07.07.11.11.2.2.39.26.6.01.04.02.07.03.11.05.21.09.42.09.64l.02,6.23c0-.21-.04-.43-.09-.64,0-.04-.02-.07-.03-.11-.06-.2-.15-.4-.26-.6-.02-.04-.05-.08-.07-.11-.12-.2-.26-.39-.44-.58-.01-.02-.03-.03-.05-.05-.17-.18-.37-.36-.59-.52-.04-.03-.07-.06-.11-.09-.18-.13-.36-.25-.57-.37-.29-.17-.6-.3-.92-.44-.29-.12-.59-.22-.89-.32-.18-.06-.36-.12-.55-.17-.12-.03-.24-.05-.36-.08-.3-.06-.61-.12-.93-.16-.13-.02-.25-.04-.38-.05-.36-.04-.72-.05-1.08-.06-.08,0-.16,0-.25,0-.44,0-.88.03-1.31.07-.12.01-.23.03-.35.05-.32.04-.63.09-.94.16-.14.03-.29.07-.43.1-.3.08-.59.17-.87.27-.1.04-.2.07-.3.1-.39.15-.76.32-1.1.52-.19.11-.37.23-.53.34-.06.04-.11.08-.16.13-.1.08-.21.16-.3.24-.04.03-.07.07-.11.1-.11.11-.22.21-.31.32-.04.05-.08.1-.12.15-.08.1-.15.2-.21.3-.03.05-.06.09-.09.14-.11.2-.21.41-.27.61-.01.03-.02.07-.03.1-.06.22-.09.44-.09.66l-.02-6.23c0-.22.04-.44.09-.66,0-.04.02-.07.03-.1Z"/>
            <path class="cls-52" d="m63.6,137.29c-.04.06-.07.13-.1.2-.01.03-.03.07-.04.1-.03.1-.05.21-.05.31l-.02-6.23c0-.11.02-.21.05-.31.01-.03.03-.07.04-.1.02-.05.04-.11.07-.16,0-.01.02-.02.03-.04.06-.1.15-.2.25-.3.02-.02.02-.03.04-.05,0,0,0,0,0,0,.11-.1.24-.2.4-.28.01,0,.03-.01.04-.02.02-.01.04-.02.06-.03.18-.09.36-.17.56-.23.03,0,.06-.03.09-.04.03,0,.06,0,.09-.02.25-.07.51-.12.77-.15.04,0,.07,0,.11,0,.25-.02.49-.02.74,0,.03,0,.07,0,.1,0,.02,0,.04,0,.06,0,.25.02.5.06.73.12.02,0,.03,0,.05,0,.05.01.09.04.14.05.12.04.24.08.36.13.03.01.06.02.09.03.1.04.19.09.27.14.09.05.17.11.25.16.03.02.05.04.07.07.04.03.08.07.12.1.06.06.11.12.16.18.03.04.06.07.08.11.04.07.08.14.11.21.01.03.03.06.04.1.03.1.05.21.05.31l.02,6.23c0-.1-.02-.21-.05-.31-.01-.03-.03-.06-.04-.1-.03-.07-.06-.14-.11-.21-.02-.04-.05-.07-.08-.11-.05-.06-.1-.12-.16-.18-.04-.04-.08-.07-.12-.1-.1-.08-.2-.16-.32-.23-.11-.07-.24-.12-.37-.17-.11-.05-.23-.09-.36-.13-.06-.02-.13-.04-.19-.06-.24-.06-.48-.1-.73-.12-.05,0-.1,0-.16,0-.25-.02-.49-.01-.74,0-.04,0-.07,0-.11,0-.27.03-.52.08-.77.15-.06.02-.11.03-.17.05-.2.06-.39.14-.56.23-.03.02-.07.03-.1.05-.15.09-.28.18-.4.28-.02.02-.03.04-.05.05-.1.09-.18.19-.25.29Z"/>
            <path class="cls-52" d="m77.84,139.6c.02-.05.04-.11.07-.16,0-.01.02-.02.03-.04.06-.1.15-.2.25-.29.02-.02.02-.03.04-.05,0,0,0,0,0,0,.11-.1.24-.2.4-.28.01,0,.03-.01.04-.02.02-.01.04-.02.06-.03.18-.09.37-.17.57-.24.03,0,.06-.03.09-.04.03,0,.06,0,.08-.02.25-.07.5-.12.77-.15.04,0,.07,0,.11,0,.25-.02.49-.02.74,0,.03,0,.07,0,.1,0,.02,0,.04,0,.06,0,.25.02.5.06.73.12.02,0,.03,0,.05,0,.05.01.09.04.14.05.12.04.24.08.36.13.03.01.06.02.09.03.1.04.19.09.28.14.09.05.17.11.25.16.03.02.05.04.07.07.04.03.08.07.12.1.06.06.11.12.16.18.03.04.06.07.08.11.04.07.08.13.1.2.01.03.03.06.04.1.03.1.05.2.05.31l.02,6.23c0-.1-.02-.21-.05-.31-.01-.03-.03-.06-.04-.1-.03-.07-.06-.14-.1-.2-.02-.04-.05-.07-.08-.11-.05-.06-.1-.12-.16-.18-.04-.03-.07-.07-.12-.1-.1-.08-.2-.16-.32-.23-.11-.07-.24-.12-.37-.18-.12-.05-.24-.09-.36-.13-.06-.02-.13-.04-.19-.06-.24-.06-.48-.1-.73-.12-.05,0-.1,0-.16,0-.25-.02-.49-.01-.74,0-.04,0-.07,0-.11,0-.26.03-.52.08-.77.15-.06.02-.11.03-.17.05-.2.06-.39.14-.57.24-.03.02-.07.03-.1.05-.15.09-.28.18-.4.28-.02.02-.03.04-.05.06-.1.09-.18.19-.25.29-.04.06-.07.13-.1.2-.01.03-.03.07-.04.1-.03.1-.05.21-.05.31l-.02-6.23c0-.11.02-.21.05-.31.01-.03.03-.07.04-.1Z"/>
          </g>
          <path class="cls-2" d="m60.62,141.17c-.16-.25-.31-.49-.45-.75-.08-.15-.16-.3-.23-.45-.12-.25-.22-.5-.32-.75-.06-.15-.11-.3-.16-.45-.08-.27-.15-.55-.21-.82-.03-.13-.06-.26-.08-.39-.06-.4-.1-.81-.1-1.21l-.02-6.23c0,.41.04.81.1,1.21.02.13.06.26.08.39.06.27.12.55.21.82.05.15.1.3.16.45.09.25.2.5.32.75.07.15.15.3.23.45.14.25.29.5.45.75.09.14.18.28.28.42.2.28.43.56.66.83.08.1.16.2.25.29.34.37.7.73,1.1,1.08.09.08.19.15.29.23.33.28.67.55,1.04.82.09.06.18.12.27.19.46.32.93.63,1.44.93.64.37,1.31.71,2,1.03.23.11.48.2.72.31.45.19.91.38,1.39.56.28.1.56.2.85.29.46.15.92.3,1.39.43.37.11.74.21,1.12.3.19.05.38.1.58.14.59.13,1.18.26,1.78.36.06.01.11.02.17.03.66.11,1.32.2,1.99.28.19.02.39.04.58.06.48.05.97.09,1.46.12.24.02.47.03.71.04.51.02,1.02.04,1.53.04.18,0,.37,0,.55,0,.69,0,1.38-.02,2.06-.06.14,0,.28-.02.42-.03.55-.04,1.1-.08,1.64-.14.23-.02.46-.05.68-.08.47-.06.93-.12,1.39-.2.23-.04.46-.07.69-.12.5-.09.99-.19,1.48-.3.17-.04.34-.07.51-.11.65-.15,1.29-.33,1.92-.52.11-.03.21-.07.31-.1.51-.16,1.02-.33,1.51-.52.17-.06.35-.13.52-.2.48-.19.95-.39,1.41-.6.11-.05.22-.1.33-.15.59-.28,1.17-.58,1.73-.9.6-.35,1.16-.71,1.68-1.08.18-.12.32-.26.49-.39.33-.25.66-.5.96-.77.37-.33.71-.66,1.03-1,.07-.07.14-.15.2-.22.31-.35.61-.71.86-1.08.02-.03.04-.07.06-.1.22-.31.4-.63.57-.95.09-.16.17-.31.24-.47.12-.25.22-.5.32-.76.06-.15.12-.31.17-.46.09-.28.15-.55.21-.83.03-.13.06-.27.08-.4.06-.41.1-.82.1-1.24l.02,6.23c0,.41-.04.82-.1,1.24-.02.13-.06.27-.08.4-.06.28-.12.56-.21.83-.05.16-.11.31-.17.46-.09.25-.2.51-.32.76-.08.16-.16.32-.24.47-.06.11-.1.22-.17.32-.12.21-.26.42-.41.63-.02.03-.04.07-.06.1-.26.37-.55.72-.86,1.08-.07.07-.13.15-.2.22-.3.32-.61.64-.95.94-.02.02-.05.04-.07.06-.3.26-.63.52-.96.77-.17.13-.31.26-.49.38-.52.37-1.08.73-1.68,1.08-.1.06-.2.11-.3.17-.46.26-.94.5-1.43.73-.11.05-.22.1-.33.15-.46.21-.92.41-1.4.6-.17.07-.35.13-.52.2-.49.18-1,.36-1.51.52-.11.03-.21.07-.31.1-.03,0-.06.02-.1.03-.6.18-1.21.34-1.82.48-.17.04-.34.07-.51.11-.49.11-.98.21-1.48.3-.23.04-.46.08-.69.12-.46.07-.92.14-1.39.2-.23.03-.45.06-.68.08-.55.06-1.1.1-1.65.14-.14,0-.28.02-.41.03-.69.04-1.38.05-2.07.06-.18,0-.36,0-.55,0-.51,0-1.02-.02-1.53-.04-.24-.01-.47-.03-.71-.04-.22-.01-.44-.02-.65-.04-.27-.02-.54-.06-.81-.08-.19-.02-.39-.04-.58-.06-.67-.08-1.33-.17-1.99-.28-.06,0-.11-.02-.17-.03-.6-.11-1.19-.23-1.78-.36-.19-.04-.39-.09-.58-.14-.22-.05-.45-.1-.67-.16-.15-.04-.3-.1-.45-.14-.47-.13-.93-.28-1.38-.43-.28-.09-.57-.19-.85-.29-.47-.17-.93-.36-1.38-.56-.18-.08-.38-.14-.56-.22-.05-.02-.1-.06-.16-.08-.69-.32-1.36-.66-2-1.03-.51-.3-.99-.61-1.44-.93-.09-.06-.18-.12-.27-.19-.07-.05-.15-.1-.22-.15-.29-.22-.56-.44-.82-.67-.09-.08-.2-.15-.29-.23-.4-.35-.76-.71-1.1-1.08-.09-.1-.16-.2-.24-.29-.24-.27-.46-.55-.67-.83-.1-.14-.19-.28-.28-.42Z"/>
          <path class="cls-17" d="m99.44,120.38c9.2,5.34,9.15,14.01-.11,19.35-9.26,5.34-24.21,5.34-33.41,0-9.2-5.34-9.15-14.01.1-19.36s24.22-5.34,33.42,0Zm-11.44,12.76c2.95-1.71,2.97-4.47.03-6.18s-7.71-1.71-10.66,0-2.97,4.47-.03,6.18,7.71,1.71,10.66,0m14.03-2.96c1.18-.68,1.2-1.79.02-2.47s-3.09-.68-4.27,0c-1.18.68-1.19,1.79-.01,2.47s3.09.68,4.26,0m-17.22-10.01c1.18-.68,1.2-1.79.02-2.47s-3.09-.68-4.27,0-1.18,1.79-.01,2.47c1.18.68,3.09.68,4.26,0m-16.27,12.73c1.18-.68,1.18-1.79,0-2.47-1.17-.68-3.08-.68-4.26,0s-1.18,1.79-.01,2.47c1.18.68,3.09.68,4.27,0m14.35,8.34c1.18-.68,1.19-1.79.01-2.47-1.18-.68-3.08-.68-4.26,0-1.18.68-1.19,1.79-.01,2.47s3.09.68,4.26,0"/>
        </g>
        <g class="cls-90">
          <path class="cls-5" d="m73.37,130.78s-.02-.09-.03-.14c-.07-.27-.11-.53-.11-.8v-1.78c0,.27.04.54.11.8.01.05.02.09.03.14.08.25.19.5.32.75.03.05.06.1.09.14.15.25.33.5.55.74.02.02.04.04.06.06.22.23.47.45.74.66.05.04.09.07.14.11.22.16.46.32.72.47.42.24.88.45,1.36.64.08.03.16.07.24.1.45.17.92.31,1.4.43.15.04.31.07.46.1.38.08.77.15,1.17.2.16.02.32.04.49.06.45.05.91.07,1.36.08.1,0,.21.01.31.01.56,0,1.11-.03,1.66-.09.15-.02.3-.04.44-.06.4-.05.79-.12,1.18-.2.18-.04.36-.08.54-.13.38-.1.75-.21,1.1-.34.12-.04.25-.08.38-.13.49-.19.96-.41,1.39-.66.24-.14.47-.28.68-.43.07-.05.13-.1.2-.15.13-.1.27-.2.39-.31.05-.04.09-.09.13-.13.14-.13.28-.27.4-.41.06-.06.1-.13.16-.19.1-.12.19-.25.27-.38.05-.08.1-.16.15-.24.03-.06.07-.13.1-.19.05-.1.09-.2.13-.31.02-.06.05-.12.07-.19.03-.11.06-.22.08-.34.01-.05.03-.11.03-.16.03-.17.04-.33.04-.5h0s0,1.78,0,1.78c0,.17-.01.33-.04.5,0,.05-.02.11-.03.16-.02.11-.05.22-.08.34-.02.06-.04.12-.07.19-.04.1-.08.2-.13.3-.03.06-.06.13-.1.19-.02.04-.04.09-.07.13-.02.04-.05.07-.08.11-.08.13-.17.25-.27.38-.05.06-.1.13-.15.19-.12.14-.26.28-.4.41-.04.03-.06.07-.1.11,0,0-.02.02-.03.02-.12.11-.25.21-.39.31-.07.05-.13.1-.2.15-.21.15-.43.29-.68.43-.04.02-.08.05-.12.07-.4.22-.83.41-1.27.59-.12.05-.25.09-.37.13-.21.07-.4.15-.62.22-.16.05-.33.08-.49.12-.18.05-.36.09-.54.13-.39.08-.78.15-1.18.2-.15.02-.29.05-.44.06-.55.06-1.1.09-1.66.09-.1,0-.21,0-.31-.01-.36,0-.72-.01-1.08-.04-.1,0-.19-.03-.29-.04-.16-.02-.32-.04-.49-.06-.4-.05-.79-.12-1.17-.2-.15-.03-.31-.06-.46-.1-.08-.02-.17-.03-.25-.05-.39-.11-.78-.23-1.15-.37-.08-.03-.16-.06-.24-.1-.16-.06-.33-.12-.48-.19-.3-.14-.59-.29-.87-.45-.26-.15-.49-.31-.71-.47-.02-.01-.04-.03-.06-.04-.03-.02-.05-.05-.08-.07-.28-.21-.53-.43-.74-.66-.02-.02-.04-.04-.06-.06-.22-.24-.4-.49-.55-.74-.03-.05-.06-.09-.09-.14-.14-.25-.25-.5-.32-.75Z"/>
          <path class="cls-12" d="m76.03,124.13c-3.73,2.16-3.75,5.65-.05,7.8,3.71,2.16,9.74,2.16,13.47,0,3.73-2.15,3.75-5.64.04-7.8s-9.73-2.15-13.45,0Z"/>
        </g>
        <g class="cls-90">
          <path class="cls-7" d="m74.84,128.72s-.02-.08-.03-.12c-.06-.23-.1-.47-.1-.7l-.05-17.79c0,.24.04.47.1.71.01.04.02.08.03.12.07.22.16.44.28.66.02.04.05.08.08.12.13.22.29.44.48.65.02.02.04.03.05.05.19.2.41.39.65.58.04.03.08.06.12.1.19.14.4.28.63.41.32.18.67.34,1.02.48.32.13.65.25.99.35.21.06.4.14.62.19.13.03.27.06.4.09.34.07.68.13,1.03.18.14.02.28.04.43.05.4.04.8.06,1.2.07.09,0,.18.01.27.01.49,0,.97-.03,1.46-.08.13-.01.26-.04.39-.06.35-.05.7-.1,1.04-.18.16-.03.32-.07.47-.12.33-.09.66-.18.97-.3.11-.04.22-.07.33-.12.43-.17.84-.36,1.22-.58.21-.12.41-.25.59-.38.06-.04.12-.09.17-.14.12-.09.23-.18.34-.27.04-.04.08-.08.12-.11.13-.12.24-.24.35-.36.05-.06.09-.11.14-.17.09-.11.16-.22.24-.33.03-.05.07-.11.1-.16.13-.22.23-.45.3-.68.01-.04.02-.08.03-.12.06-.24.1-.49.1-.73l.05,17.79c0,.24-.04.49-.1.73,0,.04-.02.08-.03.12-.07.23-.17.46-.3.68-.01.02-.02.04-.03.06-.02.03-.05.06-.07.1-.07.11-.15.22-.24.33-.04.06-.09.11-.14.17-.11.12-.22.24-.35.36-.03.03-.06.06-.09.09,0,0-.02.01-.03.02-.1.09-.22.18-.34.27-.06.05-.11.09-.17.14-.18.13-.38.26-.59.38-.04.02-.07.04-.11.06-.35.19-.72.36-1.11.51-.11.04-.22.08-.33.12-.18.06-.36.14-.54.19-.14.04-.29.07-.43.1-.16.04-.31.08-.47.11-.34.07-.69.13-1.04.18-.13.02-.26.04-.39.06-.48.05-.97.08-1.46.08-.09,0-.18,0-.27,0-.32,0-.64,0-.96-.04-.08,0-.17-.02-.25-.03-.14-.01-.28-.03-.42-.05-.35-.05-.69-.1-1.03-.18-.14-.03-.27-.05-.4-.09-.07-.02-.15-.03-.22-.05-.14-.04-.26-.1-.39-.14-.34-.1-.67-.22-.99-.35-.08-.03-.18-.05-.26-.09-.27-.12-.52-.25-.76-.39-.23-.13-.43-.27-.63-.41-.02-.01-.04-.02-.05-.03-.03-.02-.04-.04-.07-.06-.24-.19-.46-.38-.65-.58-.02-.02-.04-.03-.05-.05-.19-.21-.35-.43-.48-.65-.03-.04-.05-.08-.08-.12-.12-.22-.22-.44-.28-.66Z"/>
          <path class="cls-28" d="m77.13,106.66c-3.27,1.89-3.3,4.96-.05,6.85,3.26,1.89,8.56,1.89,11.83,0,3.27-1.89,3.3-4.96.04-6.85-3.25-1.89-8.55-1.89-11.82,0Z"/>
        </g>
        <g class="cls-90">
          <path class="cls-6" d="m73.47,112.46c-.07-.11-.14-.22-.2-.33-.04-.07-.07-.13-.1-.2-.05-.11-.1-.22-.14-.33-.02-.06-.05-.13-.07-.19-.04-.12-.07-.24-.09-.36-.01-.06-.03-.11-.04-.17-.03-.18-.04-.35-.04-.53l-.05-17.79c0,.18.02.35.04.53,0,.06.02.11.04.17.02.12.05.24.09.36.02.07.05.13.07.2.04.11.09.22.14.33.03.07.06.13.1.2.06.11.13.22.2.33.04.06.08.12.12.18.09.12.19.24.29.36.04.04.07.08.1.12.15.16.3.32.48.47.04.03.08.07.12.1.13.11.27.22.42.33.24.18.49.35.77.51.45.26.95.49,1.46.69.09.03.17.07.26.1.48.18.99.33,1.51.46.16.04.33.07.49.11.41.09.84.16,1.26.22.17.02.35.05.52.07.49.05.98.07,1.47.08.11,0,.23.01.34.01.6,0,1.2-.04,1.79-.1.16-.02.32-.05.48-.07.43-.06.86-.13,1.28-.22.2-.04.39-.09.58-.14.41-.11.81-.23,1.19-.36.13-.05.27-.09.4-.14.53-.21,1.03-.44,1.5-.71.26-.15.5-.31.73-.47.08-.05.14-.11.21-.17.14-.11.29-.22.42-.33.05-.05.09-.09.14-.14.15-.15.3-.29.43-.44.06-.07.11-.14.17-.21.1-.13.2-.27.29-.41.05-.09.11-.17.16-.26.04-.07.07-.14.11-.21.05-.11.1-.22.14-.33.03-.07.05-.13.07-.2.04-.12.06-.24.09-.36.01-.06.03-.12.04-.17.03-.18.04-.36.04-.54l.05,17.79c0,.18-.02.36-.04.54,0,.06-.02.12-.04.17-.02.12-.05.24-.09.36-.02.07-.05.13-.07.2-.04.11-.09.22-.14.33-.03.07-.07.14-.11.21-.03.05-.05.09-.07.14-.02.04-.06.08-.08.12-.09.14-.18.27-.29.41-.05.07-.11.14-.17.21-.13.15-.28.3-.43.44-.04.04-.07.08-.11.12,0,0-.02.02-.03.03-.13.11-.27.22-.42.33-.07.05-.14.11-.21.17-.23.16-.47.32-.73.47-.04.03-.09.05-.13.07-.43.24-.89.45-1.37.63-.13.05-.27.09-.4.14-.22.08-.44.17-.66.23-.17.05-.35.08-.53.13-.19.05-.38.1-.58.14-.42.09-.85.16-1.28.22-.16.02-.31.05-.48.07-.59.06-1.19.1-1.79.1-.11,0-.22-.01-.34-.01-.39,0-.78-.01-1.16-.04-.1,0-.21-.03-.31-.04-.18-.02-.35-.04-.52-.07-.43-.06-.85-.13-1.26-.22-.17-.04-.33-.07-.49-.11-.09-.02-.18-.04-.27-.06-.43-.11-.84-.25-1.24-.4-.09-.03-.17-.07-.26-.1-.17-.07-.35-.13-.52-.21-.33-.15-.64-.31-.94-.48-.28-.16-.53-.33-.77-.51-.02-.01-.04-.03-.06-.04-.13-.09-.24-.19-.36-.29-.04-.03-.09-.07-.13-.1-.17-.15-.33-.31-.48-.47-.04-.04-.07-.09-.11-.13-.1-.12-.2-.24-.29-.36-.04-.06-.08-.12-.12-.18Z"/>
          <ellipse class="cls-22" cx="83.02" cy="92.54" rx="10.28" ry="5.95" transform="translate(-.26 .24) rotate(-.16)"/>
        </g>
        <g>
          <g class="cls-90">
            <path class="cls-8" d="m62.12,95.35c-.16-.24-.3-.48-.43-.72-.08-.14-.15-.29-.22-.44-.11-.24-.22-.48-.31-.72-.05-.14-.11-.29-.15-.43-.08-.26-.14-.53-.2-.79-.03-.12-.06-.25-.08-.37-.06-.39-.1-.78-.1-1.17l-.02-6.23c0,.39.04.78.1,1.17.02.12.05.25.08.37.05.26.12.53.2.79.05.14.1.29.15.43.09.24.19.48.31.72.07.15.14.29.22.44.13.24.28.48.43.72.09.13.17.27.27.4.19.27.41.54.64.8.08.09.15.19.23.28.32.35.67.7,1.06,1.04.08.08.18.15.27.22.32.27.65.54,1,.79.08.06.17.12.25.18.44.31.89.61,1.39.89.61.36,1.26.68,1.93.99.22.1.46.2.69.29.44.19.88.37,1.33.54.27.1.54.19.81.28.44.15.88.28,1.33.41.36.1.71.2,1.08.29.19.05.37.09.56.14.57.13,1.14.25,1.71.35.05,0,.11.02.16.03.63.11,1.27.2,1.91.27.19.02.38.04.56.06.47.05.93.09,1.4.12.23.01.46.03.68.04.49.02.98.04,1.47.04.18,0,.35,0,.53,0,.66,0,1.32-.02,1.99-.05.13,0,.27-.02.4-.03.53-.03,1.06-.08,1.58-.13.22-.02.44-.05.66-.08.45-.06.89-.12,1.34-.19.22-.04.44-.07.67-.11.48-.09.95-.18,1.42-.29.16-.04.33-.07.49-.11.62-.15,1.24-.31,1.85-.5.1-.03.2-.07.3-.1.49-.15.98-.32,1.45-.5.17-.06.33-.13.5-.19.46-.18.91-.37,1.35-.57.11-.05.22-.09.32-.14.57-.27,1.13-.56,1.66-.87.58-.33,1.11-.68,1.61-1.04.17-.12.31-.25.47-.37.32-.24.64-.49.92-.74.36-.31.68-.64.99-.97.07-.07.13-.14.19-.22.3-.34.58-.68.83-1.03.02-.03.04-.07.06-.1.21-.3.38-.6.55-.91.08-.15.16-.3.23-.45.12-.24.22-.48.31-.73.06-.15.11-.3.16-.45.08-.27.14-.53.2-.8.03-.13.06-.26.08-.38.06-.4.1-.79.1-1.19l.02,6.23c0,.4-.03.79-.1,1.19-.02.13-.06.26-.08.38-.05.27-.12.53-.2.8-.05.15-.1.3-.16.45-.09.24-.19.49-.31.73-.07.15-.15.3-.23.45-.06.1-.1.21-.16.31-.12.2-.25.4-.39.6-.02.03-.04.07-.06.1-.25.35-.53.7-.83,1.03-.06.07-.13.14-.19.22-.29.31-.58.61-.92.91-.02.02-.05.04-.07.06-.28.25-.6.49-.92.74-.16.12-.3.25-.47.37-.5.36-1.04.7-1.61,1.04-.1.06-.19.11-.29.16-.44.25-.9.48-1.37.7-.1.05-.21.09-.32.14-.44.2-.89.39-1.35.57-.16.06-.33.13-.5.19-.48.18-.96.34-1.45.5-.1.03-.2.07-.3.1-.03,0-.06.02-.09.03-.57.17-1.16.32-1.75.47-.16.04-.33.07-.49.11-.47.1-.94.2-1.42.29-.22.04-.44.08-.67.11-.44.07-.89.13-1.34.19-.22.03-.44.06-.66.08-.53.06-1.05.1-1.58.13-.13,0-.26.02-.4.03-.66.04-1.32.05-1.99.05-.18,0-.35,0-.53,0-.49,0-.98-.02-1.47-.04-.23-.01-.46-.03-.68-.04-.21-.01-.42-.02-.63-.04-.26-.02-.52-.05-.78-.08-.19-.02-.37-.04-.56-.06-.64-.08-1.28-.16-1.91-.27-.05,0-.11-.02-.16-.03-.58-.1-1.15-.22-1.72-.35-.19-.04-.37-.09-.56-.14-.21-.05-.43-.1-.64-.16-.15-.04-.29-.09-.44-.13-.45-.13-.89-.27-1.33-.41-.27-.09-.55-.18-.82-.28-.45-.17-.9-.35-1.33-.54-.18-.08-.36-.14-.54-.22-.05-.02-.1-.05-.15-.08-.66-.31-1.31-.63-1.93-.99-.49-.29-.95-.59-1.39-.89-.09-.06-.17-.12-.26-.18-.07-.05-.14-.1-.21-.15-.28-.21-.54-.43-.79-.65-.09-.07-.19-.15-.27-.22-.38-.34-.73-.68-1.06-1.04-.08-.09-.15-.19-.23-.28-.23-.26-.45-.53-.64-.8-.1-.13-.18-.27-.27-.4Z"/>
            <path class="cls-16" d="m67.32,75.11c-8.9,5.14-8.95,13.47-.1,18.61,8.84,5.14,23.23,5.14,32.13,0,8.89-5.14,8.94-13.47.1-18.61-8.84-5.14-23.23-5.14-32.12,0Z"/>
          </g>
          <g class="cls-90">
            <path class="cls-9" d="m62.25,88.7c-.16-.24-.3-.48-.43-.72-.08-.14-.15-.29-.22-.44-.11-.24-.21-.48-.31-.72-.05-.14-.11-.29-.15-.43-.08-.26-.14-.52-.2-.79-.03-.13-.06-.25-.08-.37-.06-.39-.1-.78-.1-1.17l-.02-6.23c0,.39.04.78.1,1.17.02.13.05.25.08.37.05.26.12.53.2.79.05.14.1.29.15.43.09.24.19.48.31.72.07.15.14.29.22.44.13.24.28.48.43.72.09.13.17.27.27.4.19.27.41.54.64.8.08.09.15.19.23.28.32.35.67.7,1.05,1.04.09.08.19.15.27.22.32.27.64.53,1,.79.08.06.17.12.26.18.44.31.89.6,1.39.89.61.36,1.26.68,1.92.99.22.1.46.2.69.29.44.19.88.37,1.33.54.27.1.54.19.82.28.44.15.88.28,1.33.41.36.1.71.2,1.08.29.19.05.37.09.56.14.57.13,1.14.25,1.72.35.05,0,.1.02.15.03.63.11,1.27.2,1.91.27.18.02.37.04.56.06.47.05.94.09,1.41.12.23.01.45.03.68.04.49.02.98.04,1.48.04.17,0,.35,0,.52,0,.66,0,1.33-.02,1.99-.06.14,0,.27-.02.4-.03.53-.03,1.05-.08,1.58-.13.22-.02.44-.05.66-.08.45-.05.89-.12,1.33-.19.22-.04.45-.07.67-.11.48-.09.95-.18,1.42-.29.17-.04.33-.07.5-.11.62-.15,1.24-.31,1.84-.49.1-.03.2-.07.3-.1.49-.15.97-.32,1.45-.5.17-.06.34-.13.5-.19.46-.18.91-.37,1.35-.57.1-.05.21-.09.32-.14.57-.27,1.13-.56,1.66-.87.58-.33,1.11-.68,1.61-1.04.17-.12.31-.25.47-.37.32-.24.64-.48.92-.74.36-.32.68-.64.99-.97.07-.07.13-.14.19-.22.3-.34.58-.68.83-1.04.02-.03.04-.06.06-.1.21-.3.38-.61.55-.91.08-.15.16-.3.23-.45.12-.24.22-.48.31-.73.06-.15.11-.3.16-.45.08-.27.14-.53.2-.8.03-.13.06-.25.08-.38.06-.4.1-.79.1-1.19l.02,6.23c0,.4-.03.79-.1,1.19-.02.13-.06.26-.08.38-.05.27-.12.53-.2.8-.05.15-.1.3-.16.45-.09.24-.19.49-.31.73-.07.15-.15.3-.23.45-.06.1-.1.21-.16.31-.12.2-.25.4-.39.6-.02.03-.04.06-.06.1-.25.35-.53.7-.83,1.04-.06.07-.13.14-.19.22-.29.31-.58.61-.91.91-.02.02-.05.04-.07.06-.28.25-.6.49-.92.74-.16.12-.3.25-.47.37-.5.36-1.04.7-1.61,1.04-.1.06-.19.11-.29.16-.44.25-.9.48-1.37.7-.1.05-.21.09-.32.14-.44.2-.89.39-1.35.57-.17.07-.33.13-.5.19-.48.18-.96.34-1.45.5-.1.03-.2.07-.3.1-.03,0-.06.02-.09.03-.57.17-1.16.32-1.75.46-.16.04-.33.07-.5.11-.47.1-.94.2-1.42.29-.22.04-.44.08-.66.11-.44.07-.89.13-1.34.19-.22.03-.44.06-.66.08-.52.06-1.05.1-1.58.13-.13,0-.27.02-.4.03-.66.04-1.32.05-1.99.06-.18,0-.35,0-.53,0-.49,0-.98-.02-1.48-.04-.23-.01-.45-.03-.68-.04-.21-.01-.42-.02-.63-.04-.26-.02-.51-.05-.77-.08-.19-.02-.37-.04-.56-.06-.64-.08-1.28-.16-1.91-.27-.05,0-.1-.02-.15-.03-.58-.1-1.15-.22-1.72-.35-.19-.04-.37-.09-.56-.14-.21-.05-.43-.1-.64-.16-.15-.04-.29-.09-.43-.13-.45-.13-.89-.27-1.33-.41-.27-.09-.55-.18-.81-.28-.45-.17-.9-.35-1.33-.54-.18-.08-.36-.14-.54-.22-.05-.02-.1-.05-.15-.08-.66-.31-1.31-.63-1.92-.99-.49-.29-.95-.59-1.39-.89-.09-.06-.17-.12-.26-.18-.07-.05-.14-.1-.21-.15-.28-.21-.54-.43-.79-.65-.09-.07-.19-.15-.27-.22-.38-.34-.73-.68-1.06-1.04-.08-.09-.15-.19-.23-.28-.23-.26-.45-.53-.64-.8-.1-.13-.18-.27-.27-.4Z"/>
            <path class="cls-13" d="m67.45,68.46c-8.9,5.14-8.95,13.47-.1,18.61,8.84,5.14,23.22,5.14,32.12,0,8.9-5.14,8.94-13.47.1-18.6s-23.22-5.14-32.12,0Z"/>
          </g>
        </g>
        <g class="cls-90">
          <path class="cls-10" d="m73.5,79.59c-.07-.11-.14-.22-.2-.33-.04-.07-.07-.13-.1-.2-.05-.11-.1-.22-.14-.33-.02-.06-.05-.13-.07-.19-.04-.12-.07-.24-.09-.36-.01-.06-.03-.11-.04-.17-.03-.18-.04-.35-.04-.53l-.13-44.46c0,.18.02.35.04.53,0,.06.02.11.04.17.02.12.05.24.09.36.02.07.05.13.07.2.04.11.09.22.14.33.03.07.06.13.1.2.06.11.13.22.2.33.04.06.08.12.12.18.09.12.19.24.29.36.04.04.07.08.1.12.15.16.3.32.48.47.04.03.08.07.12.1.13.11.27.22.42.33.24.18.49.35.77.51.46.26.95.49,1.46.69.09.03.17.07.25.1.48.18.99.33,1.51.46.16.04.33.07.49.11.42.09.84.16,1.27.22.17.02.35.05.52.07.49.05.98.07,1.47.08.11,0,.22.01.33.01.6,0,1.2-.04,1.79-.1.16-.02.32-.05.48-.07.43-.06.86-.13,1.28-.22.2-.04.39-.09.58-.14.41-.11.81-.23,1.19-.36.13-.05.27-.09.4-.14.53-.21,1.03-.44,1.5-.71.26-.15.5-.31.73-.47.08-.05.14-.11.21-.17.14-.11.29-.22.42-.33.05-.05.1-.09.14-.14.15-.14.3-.29.43-.44.06-.07.11-.14.17-.21.1-.13.2-.27.29-.41.05-.09.11-.17.16-.26.04-.07.07-.14.11-.21.05-.11.1-.22.14-.33.03-.07.05-.13.07-.2.04-.12.07-.24.09-.36.01-.06.03-.11.04-.17.03-.18.04-.36.04-.54l.13,44.46c0,.18-.02.36-.04.54,0,.06-.03.12-.04.17-.02.12-.05.24-.09.36-.02.07-.05.14-.07.2-.04.11-.09.22-.14.33-.03.07-.07.14-.11.21-.03.05-.04.09-.07.14-.02.04-.06.08-.08.12-.09.14-.18.27-.29.41-.05.07-.11.14-.17.21-.13.15-.28.3-.43.44-.04.04-.07.08-.11.12,0,0-.02.02-.03.03-.13.11-.28.23-.42.34-.07.05-.13.11-.21.16-.23.16-.47.32-.73.47-.04.03-.09.05-.13.07-.43.24-.89.45-1.37.63-.13.05-.27.09-.4.14-.22.08-.44.17-.67.24-.17.05-.35.08-.53.13-.19.05-.38.1-.58.14-.42.09-.84.16-1.28.22-.16.02-.32.05-.48.07-.59.06-1.19.1-1.79.1-.11,0-.22-.01-.33-.01-.39,0-.78-.01-1.16-.04-.1,0-.21-.03-.31-.04-.18-.02-.35-.04-.52-.07-.43-.06-.85-.13-1.27-.22-.16-.04-.33-.07-.49-.11-.09-.02-.18-.03-.27-.06-.43-.11-.84-.25-1.24-.4-.09-.03-.17-.07-.25-.1-.17-.07-.35-.13-.52-.21-.33-.15-.64-.31-.94-.49-.28-.16-.53-.33-.77-.51-.02-.01-.05-.03-.06-.04-.13-.09-.24-.19-.36-.29-.04-.03-.09-.07-.13-.1-.17-.15-.33-.31-.48-.47-.04-.04-.07-.08-.11-.13-.1-.12-.2-.24-.29-.36-.04-.06-.08-.12-.12-.18Z"/>
          <ellipse class="cls-14" cx="82.98" cy="33" rx="10.28" ry="5.95" transform="translate(-.09 .24) rotate(-.16)"/>
        </g>
        <g class="cls-90">
          <g class="cls-90">
            <g class="cls-79">
              <g class="cls-90">
                <path class="cls-59" d="m73.66,30.52l.44-1.27c.29-.38.63-.73,1.02-1.06l-.39,1.21c-.41.34-.77.71-1.07,1.11"/>
                <path class="cls-61" d="m74.73,29.41l.39-1.21c1.46-1.21,3.59-2.02,5.91-2.32l-.09,1.1c-2.44.31-4.67,1.16-6.21,2.44"/>
                <path class="cls-59" d="m80.94,26.98l.09-1.1c.98-.13,1.99-.16,3.01-.1l.06,1.09c-1.06-.07-2.13-.03-3.16.1"/>
                <path class="cls-53" d="m84.09,26.87l-.06-1.09c1.04.06,2.08.23,3.08.51,2.89.81,4.82,2.36,5.46,4.12l.49,1.32c-.68-1.85-2.71-3.48-5.74-4.33-1.05-.29-2.14-.47-3.23-.54"/>
              </g>
            </g>
          </g>
          <g class="cls-90">
            <g class="cls-83">
              <g class="cls-90">
                <path class="cls-53" d="m72.94,31.83l.47-1.33c.08-.21.17-.43.29-.64l-.46,1.3c-.12.22-.22.45-.3.67"/>
                <path class="cls-59" d="m73.24,31.16l.46-1.3c.11-.2.24-.4.39-.6l-.44,1.27c-.16.21-.29.42-.41.63"/>
              </g>
            </g>
          </g>
          <ellipse class="cls-42" cx="83.01" cy="33.13" rx="10.3" ry="6.29" transform="translate(-.16 .4) rotate(-.27)"/>
          <ellipse class="cls-42" cx="83" cy="32.27" rx=".27" ry=".16" transform="translate(-.15 .4) rotate(-.27)"/>
          <g class="cls-90">
            <g class="cls-85">
              <g class="cls-90">
                <path class="cls-61" d="m82.74,31.74v.53s0-.01,0-.02v-.53s0,.01,0,.02"/>
                <path class="cls-40" d="m82.74,31.73v.53s0-.01,0-.02v-.53s0,.01,0,.02"/>
                <path class="cls-32" d="m82.74,31.71v.53s0-.01.01-.02v-.53s0,.01-.01.02"/>
                <path class="cls-20" d="m82.75,31.69v.53s0,0,.01-.01v-.53s0,0-.01.01"/>
              </g>
            </g>
          </g>
          <g class="cls-90">
            <g class="cls-84">
              <g class="cls-90">
                <polyline class="cls-20" points="82.76 31.67 82.76 32.2 82.77 32.19 82.77 31.66 82.76 31.67"/>
                <path class="cls-26" d="m82.77,31.66v.53s.02-.02.03-.02v-.53s-.02.01-.03.02"/>
                <path class="cls-27" d="m82.79,31.64v.53s.09-.05.15-.06v-.53c-.06,0-.11.03-.15.06"/>
                <path class="cls-26" d="m82.94,31.58v.53s.03,0,.05,0v-.53s-.03,0-.05,0"/>
                <path class="cls-20" d="m82.99,31.58v.53s.03,0,.04,0v-.53s-.03,0-.04,0"/>
                <path class="cls-32" d="m83.02,31.58v.53s.02,0,.04,0v-.53s-.02,0-.04,0"/>
                <path class="cls-40" d="m83.06,31.58v.53s.02,0,.04,0v-.53s-.02,0-.04,0"/>
                <path class="cls-61" d="m83.09,31.59v.53s.02,0,.03,0c0,0,0,0,.01,0v-.53s0,0-.01,0c0,0-.02,0-.02,0"/>
                <path class="cls-59" d="m83.12,31.6v.53s.03,0,.04.01v-.53s-.03,0-.04-.01"/>
                <path class="cls-53" d="m83.16,31.61v.53c.07.03.11.08.11.13v-.53c0-.05-.04-.1-.11-.13"/>
              </g>
            </g>
          </g>
          <g class="cls-90">
            <g class="cls-88">
              <g class="cls-90">
                <path class="cls-61" d="m83.27,31.74v.53s0,.01,0,.02v-.53s0-.01,0-.02"/>
                <path class="cls-40" d="m83.27,31.75v.53s0,.01,0,.02v-.53s0-.01,0-.02"/>
                <path class="cls-32" d="m83.26,31.78v.53s0,.01,0,.02v-.53s0-.01,0-.02"/>
                <path class="cls-20" d="m83.25,31.79v.53s0,0,0,.01c0,0,0,0,0,0v-.53s0,0,0,0c0,0,0,0,0-.01"/>
                <path class="cls-26" d="m83.24,31.82v.53s-.01.02-.02.02v-.53s.01-.01.02-.02"/>
                <path class="cls-27" d="m83.21,31.84v.53s-.09.05-.15.06v-.53c.06,0,.11-.03.15-.06"/>
                <path class="cls-26" d="m83.06,31.9v.53s-.03,0-.04,0v-.53s.03,0,.04,0"/>
                <path class="cls-20" d="m83.02,31.9v.53s-.02,0-.03,0v-.53s.02,0,.03,0"/>
                <path class="cls-32" d="m82.98,31.9v.53s-.02,0-.03,0v-.53s.02,0,.03,0"/>
                <path class="cls-40" d="m82.95,31.9v.53s-.02,0-.03,0v-.53s.02,0,.03,0"/>
                <path class="cls-61" d="m82.91,31.89v.53s-.01,0-.02,0c0,0,0,0-.01,0v-.53s0,0,0,0c0,0,.02,0,.02,0"/>
                <path class="cls-59" d="m82.88,31.88v.53s-.02,0-.03-.01v-.53s.02,0,.03.01"/>
                <path class="cls-53" d="m82.84,31.87v.53c-.07-.03-.1-.08-.1-.13v-.53c0,.05.04.1.1.13"/>
              </g>
            </g>
          </g>
          <g class="cls-90">
            <g class="cls-86">
              <g class="cls-90">
                <path class="cls-32" d="m93.06,31.73l-.49-1.32c.06.15.1.31.14.46l.49,1.35c-.04-.16-.09-.32-.15-.48"/>
                <path class="cls-20" d="m93.21,32.22l-.49-1.35c.04.17.07.35.08.53l.5,1.37c-.02-.19-.05-.37-.09-.56"/>
                <path class="cls-26" d="m93.3,32.77l-.5-1.37c.01.17.02.34,0,.51l.5,1.4c0-.18,0-.36,0-.54"/>
                <path class="cls-27" d="m93.3,33.31l-.5-1.4c0,.17-.03.33-.06.5l.49,1.43c.03-.18.06-.35.06-.53"/>
                <path class="cls-25" d="m93.24,33.83l-.49-1.43c-.03.17-.08.33-.13.5l.49,1.45c.06-.17.1-.35.14-.52"/>
                <path class="cls-41" d="m93.1,34.36l-.49-1.45c-.06.17-.13.34-.21.51l.48,1.48c.09-.18.16-.35.22-.53"/>
                <path class="cls-37" d="m92.88,34.89l-.48-1.48c-.09.18-.19.35-.3.53l.46,1.5c.12-.18.23-.37.32-.55"/>
                <path class="cls-50" d="m92.57,35.45l-.46-1.5c-.06.09-.13.19-.2.28s-.15.19-.23.28l.44,1.53c.08-.1.16-.2.24-.3s.14-.2.21-.29"/>
                <path class="cls-34" d="m92.12,36.04l-.44-1.53c-.18.21-.38.41-.6.61l.41,1.56c.23-.2.44-.41.63-.64"/>
                <path class="cls-24" d="m91.5,36.67l-.41-1.56c-.29.26-.62.51-.97.74l.36,1.6c.37-.24.71-.5,1.02-.77"/>
                <path class="cls-21" d="m90.48,37.44l-.36-1.6c-1.17.76-2.63,1.3-4.22,1.61l.15,1.68c1.67-.32,3.2-.9,4.43-1.69"/>
                <path class="cls-24" d="m86.05,39.13l-.15-1.68c-.46.09-.93.16-1.4.2l.08,1.69c.5-.05.99-.12,1.47-.21"/>
                <path class="cls-34" d="m84.57,39.35l-.08-1.69c-.36.03-.72.06-1.08.07l.03,1.69c.38-.01.76-.03,1.14-.07"/>
                <path class="cls-50" d="m83.44,39.42l-.03-1.69c-.31,0-.62,0-.94,0l-.02,1.69c.33,0,.66,0,.98,0"/>
                <path class="cls-37" d="m82.45,39.42l.02-1.69c-.29,0-.58-.03-.87-.05l-.06,1.69c.3.03.61.04.91.05"/>
                <path class="cls-41" d="m81.54,39.36l.06-1.69c-.28-.02-.55-.05-.83-.09l-.1,1.68c.29.04.58.07.87.1"/>
                <path class="cls-25" d="m80.67,39.27l.1-1.68c-.27-.04-.53-.08-.8-.13l-.14,1.68c.28.05.56.1.84.14"/>
                <path class="cls-27" d="m79.83,39.13l.14-1.68c-.26-.05-.52-.11-.78-.18l-.18,1.67c.27.07.55.13.82.18"/>
                <path class="cls-26" d="m79.01,38.94l.18-1.67c-.1-.03-.2-.05-.3-.08-.16-.04-.32-.09-.47-.14l-.22,1.66c.16.05.33.1.49.15.11.03.21.06.32.09"/>
                <path class="cls-20" d="m78.2,38.71l.22-1.66c-.26-.08-.51-.17-.75-.27l-.26,1.64c.25.1.52.19.79.28"/>
                <path class="cls-32" d="m77.41,38.43l.26-1.64c-.26-.1-.51-.21-.75-.32l-.3,1.63c.25.12.51.23.78.34"/>
                <path class="cls-40" d="m76.62,38.09l.3-1.63c-.27-.13-.52-.26-.76-.4l-.34,1.61c.25.15.52.29.8.42"/>
                <path class="cls-61" d="m75.83,37.67l.34-1.61c-.28-.17-.54-.34-.79-.52l-.37,1.58c.26.19.53.38.82.55"/>
                <path class="cls-59" d="m75,37.12l.37-1.58c-.32-.24-.6-.49-.85-.75l-.42,1.54c.26.28.56.54.9.79"/>
                <path class="cls-53" d="m74.11,36.32l.42-1.54c-1.21-1.27-1.64-2.79-1.11-4.28l-.47,1.33c-.56,1.56-.1,3.16,1.17,4.49"/>
              </g>
            </g>
          </g>
          <path class="cls-42" d="m87.11,26.29c4.92,1.37,7.06,4.92,4.79,7.94-2.27,3.01-8.1,4.34-13.02,2.97-4.92-1.37-7.06-4.92-4.79-7.94,2.27-3.01,8.1-4.34,13.02-2.97Zm-4.35,5.38c-.06.08,0,.18.13.21s.29,0,.35-.08,0-.18-.13-.21-.29,0-.35.08"/>
        </g>
        <g class="cls-90">
          <path class="cls-3" d="m73.54,33.48s-.02-.09-.03-.14c-.07-.27-.11-.53-.11-.8l-.06-22.23c0,.27.05.54.11.8.01.05.02.09.03.14.08.25.18.5.32.75.03.05.06.09.09.14.15.25.33.5.55.74.02.02.04.04.06.06.22.23.47.45.74.66.05.04.09.07.14.11.22.16.46.32.72.47.42.24.88.45,1.36.64.08.03.16.07.24.1.45.17.92.31,1.39.43.15.04.31.07.46.1.38.08.77.15,1.17.2.16.02.32.04.48.06.45.05.91.07,1.37.08.1,0,.2.01.31.01.55,0,1.11-.03,1.66-.09.15-.02.3-.04.45-.06.4-.05.79-.12,1.18-.2.18-.04.36-.08.54-.13.38-.1.75-.21,1.1-.34.12-.04.25-.08.37-.13.49-.19.96-.41,1.39-.65.24-.14.47-.28.68-.43.07-.05.13-.11.2-.16.13-.1.26-.2.38-.31.05-.04.09-.09.14-.13.14-.13.28-.27.4-.41.06-.06.1-.13.15-.19.1-.12.19-.25.27-.38.05-.08.1-.16.15-.24.03-.06.07-.13.1-.19.05-.1.09-.2.13-.3.02-.06.05-.12.07-.19.03-.11.06-.22.08-.34.01-.05.03-.11.03-.16.03-.17.04-.33.04-.5l.06,22.23c0,.17-.01.33-.04.5,0,.05-.02.11-.03.16-.02.11-.05.22-.08.33-.02.06-.04.12-.07.19-.04.1-.08.2-.13.3-.03.06-.06.13-.1.19-.02.04-.04.09-.07.13-.02.04-.05.07-.08.11-.08.13-.17.25-.27.38-.05.06-.1.13-.16.19-.12.14-.26.28-.4.41-.04.03-.06.07-.1.11,0,0-.02.02-.03.02-.12.11-.25.21-.39.31-.07.05-.12.1-.19.15-.21.15-.44.3-.68.43-.04.02-.08.05-.12.07-.4.22-.82.41-1.27.59-.12.05-.25.09-.37.13-.21.07-.4.15-.62.22-.16.05-.33.08-.49.12-.18.05-.36.09-.54.13-.39.08-.78.15-1.18.2-.15.02-.29.05-.44.06-.55.06-1.1.09-1.66.09-.1,0-.2,0-.3-.01-.36,0-.72-.01-1.08-.04-.1,0-.19-.03-.28-.04-.16-.02-.32-.04-.48-.06-.4-.05-.79-.12-1.17-.2-.15-.03-.31-.06-.46-.1-.08-.02-.17-.03-.25-.05-.39-.11-.77-.23-1.15-.37-.08-.03-.16-.06-.24-.1-.16-.06-.33-.12-.48-.19-.3-.14-.59-.29-.87-.45-.26-.15-.49-.31-.71-.47-.02-.01-.04-.03-.06-.04-.03-.02-.05-.05-.08-.07-.28-.21-.53-.43-.74-.66-.02-.02-.04-.04-.06-.06-.22-.24-.4-.48-.55-.74-.03-.05-.06-.09-.09-.14-.14-.25-.25-.5-.32-.75Z"/>
          <path class="cls-18" d="m76.14,6.39c-3.73,2.15-3.75,5.64-.05,7.79s9.73,2.15,13.45,0c3.73-2.15,3.75-5.64.04-7.79-3.7-2.15-9.72-2.15-13.45,0Z"/>
        </g>
        <g class="cls-90">
          <path class="cls-11" d="m87.52,114.92c-.04-.08-.07-.15-.11-.24-.06-.15-.12-.32-.16-.49-.02-.09-.05-.18-.06-.27-.05-.27-.08-.55-.08-.86,0-.35.03-.7.09-1.06,0,0,0-.02,0-.03.06-.36.14-.72.25-1.08,0,0,0,0,0,0,.11-.36.24-.72.4-1.08,0,0,0-.02.01-.02.16-.36.33-.71.53-1.05,0,0,0,0,0-.01.19-.33.4-.64.62-.95.02-.02.04-.05.05-.07.21-.28.44-.56.67-.81.05-.05.1-.1.15-.16.22-.22.44-.44.67-.63.03-.02.05-.04.07-.06.28-.23.57-.43.87-.6.3-.18.6-.31.89-.41,0,0,0,0,.01,0,.28-.1.56-.15.82-.18,0,0,.01,0,.02,0,.26-.02.51,0,.74.04,0,0,0,0,0,0,.23.05.45.13.65.25l-1.54-.89s0,0,0,0c-.06-.03-.11-.06-.17-.09-.06-.03-.11-.05-.17-.07-.06-.02-.11-.04-.17-.05-.04-.01-.09-.02-.14-.03,0,0,0,0,0,0,0,0-.01,0-.02,0-.05-.01-.11-.02-.17-.03-.05,0-.11-.01-.17-.01-.06,0-.11,0-.17,0-.06,0-.11,0-.17,0-.02,0-.04,0-.05,0,0,0-.01,0-.02,0-.03,0-.07,0-.1.01-.06,0-.12.02-.18.03-.06.01-.12.02-.18.04-.06.01-.13.03-.19.05-.05.02-.11.03-.16.05,0,0,0,0-.01,0,0,0-.02,0-.03,0-.07.02-.14.05-.21.08-.08.03-.15.06-.23.1-.08.04-.17.08-.26.13-.05.03-.11.06-.16.09-.04.02-.08.05-.12.07-.11.07-.22.14-.32.21-.13.09-.26.19-.39.29-.01.01-.03.02-.04.03-.03.02-.05.04-.07.06-.13.1-.25.21-.37.32-.1.1-.2.2-.3.31-.05.05-.1.1-.15.16-.2.22-.4.45-.59.69-.03.04-.06.08-.09.12-.02.02-.04.05-.05.07-.05.06-.09.13-.14.19-.07.09-.13.19-.19.29-.05.08-.11.17-.16.26-.04.07-.09.14-.13.21,0,0,0,0,0,.01,0,0,0,.01-.01.02-.04.08-.09.16-.13.24-.04.08-.08.16-.12.24-.04.08-.08.16-.12.24-.04.08-.07.16-.11.24-.01.02-.02.05-.03.07,0,0,0,.02-.01.03-.02.05-.04.09-.06.14-.03.08-.07.16-.1.24-.03.08-.06.16-.09.24-.03.08-.06.16-.08.24-.02.07-.05.15-.07.22,0,0,0,0,0,0,0,0,0,0,0,.01-.02.08-.05.16-.07.24-.02.08-.04.16-.06.24-.02.08-.04.16-.06.25-.02.08-.03.17-.05.25,0,.03,0,.06-.01.09,0,0,0,.02,0,.03,0,.05-.02.09-.02.14-.01.09-.02.18-.03.27,0,.1-.02.19-.02.29,0,.11,0,.21,0,.31,0,.02,0,.03,0,.05,0,.11,0,.21,0,.31,0,.15.02.29.04.42,0,.05.02.08.03.13.02.09.04.18.06.27.04.18.1.34.16.49.03.08.07.16.11.24.08.15.16.28.26.4.04.06.08.12.13.17.15.16.31.3.49.4l1.54.89c-.18-.11-.34-.25-.49-.4-.05-.05-.08-.11-.13-.17-.09-.12-.18-.25-.26-.4Z"/>
          <ellipse class="cls-1" cx="91.52" cy="110.51" rx="6.22" ry="3.61" transform="translate(-50.01 134.12) rotate(-59.84)"/>
        </g>
        <g class="cls-90">
          <polygon class="cls-36" points="90.84 116.24 89.31 115.34 87.35 112.59 88.88 113.48 90.84 116.24"/>
          <polygon class="cls-68" points="88.88 113.48 87.35 112.59 89.28 107.57 90.82 108.47 88.88 113.48"/>
          <polygon class="cls-23" points="90.82 108.47 89.28 107.57 93.19 105.32 94.73 106.21 90.82 108.47"/>
          <polygon class="cls-64" points="94.73 106.21 96.7 108.97 94.75 113.98 90.84 116.24 88.88 113.48 90.82 108.47 94.73 106.21"/>
        </g>
      </g>
      <g class="cls-89">
        <path class="cls-15" d="m56.6,79.75c-.17.37-.39.79-.65,1.25s-.54.95-.84,1.44-.6,1-.9,1.43-.59.88-.85,1.25l-2.34-1.16c.27-.37.56-.77.87-1.22s.61-.9.89-1.36.55-.91.79-1.36.44-.83.59-1.18l2.44.91Zm4-1.85v4.12c.01.39-.03.79-.13,1.17-.09.28-.24.53-.45.73-.24.2-.51.36-.81.46-.33.11-.73.23-1.21.34l-1.18.29-.83-2.59.9-.22c.25-.06.49-.15.72-.27.15-.14.22-.35.2-.55v-3.11l-5.59.74.6-7.74c.62-.08,1.28-.18,2-.29s1.4-.22,2.11-.34l2.14-.39c.71-.13,1.4-.27,2.06-.41s1.29-.27,1.87-.41,1.11-.26,1.57-.39l.55,2.63-2.08.48c-.76.17-1.57.34-2.41.5l-2.6.49-2.58.45-.17,2.55,2.54-.34v-2.21l2.78-.31v2.15l4.93-.65v2.47l-4.93.65Zm2.72-.22c.17.19.39.45.65.78s.54.69.83,1.08.58.79.86,1.2.54.81.77,1.18l-2.36,1.82c-.18-.35-.4-.74-.65-1.15s-.51-.83-.79-1.24l-.81-1.14c-.27-.36-.51-.66-.73-.91l2.23-1.62Z"/>
        <path class="cls-15" d="m82.12,72.86v2.21l-14.64,1.89v-2.18l3.27-.43.25-1-2.39.31v-1.86l2.84-.37.21-.87-3.4.44v-2.19l13.08-1.73v2.2l-6.85.9-.21.88,6-.79-.15,2.85,1.99-.26Zm-13.19,4.66l11.75-1.56v5.63l-11.75,1.56v-5.63Zm2.59,3.09l6.44-.84v-1.29l-6.44.85v1.28Zm2.08-6.65l3.87-.51.07-1-3.72.56-.22.95Z"/>
        <path class="cls-15" d="m88.82,75.51c-.17.37-.39.79-.65,1.25s-.54,1-.84,1.44-.6,1-.9,1.43-.59.88-.85,1.25l-2.34-1.13c.27-.36.56-.76.87-1.21s.61-.9.9-1.36.55-.91.79-1.36.43-.83.58-1.18l2.44.87Zm4-1.85v4.12c0,.4-.05.8-.16,1.18-.08.28-.23.53-.45.73-.23.21-.5.36-.8.45-.33.12-.74.23-1.22.35l-1.17.29-.83-2.6.9-.21c.25-.05.5-.14.72-.28.16-.13.24-.34.21-.54v-3.12l-5.6.74.58-7.74c.62-.08,1.28-.18,2-.29s1.4-.22,2.11-.34l2.14-.39c.72-.13,1.4-.27,2.07-.41s1.28-.27,1.87-.41,1.1-.26,1.56-.39l.55,2.63-2.1.53c-.77.17-1.57.34-2.42.5-.85.16-1.71.33-2.59.49l-2.58.45-.18,2.55,2.59-.34v-2.27l2.78-.3v2.15l4.93-.65v2.47l-4.91.65Zm2.71-.22c.18.19.4.45.66.78l.83,1.08c.29.39.58.79.86,1.2s.53.81.76,1.18l-2.36,1.82c-.18-.35-.4-.74-.65-1.16s-.51-.82-.79-1.23-.54-.78-.81-1.14-.51-.66-.72-.91l2.22-1.62Z"/>
      </g>
    </g>
  </g>
</svg>