<?xml version="1.0" encoding="UTF-8"?>
<svg id="_图层_2" data-name="图层 2" xmlns="http://www.w3.org/2000/svg" xmlns:xlink="http://www.w3.org/1999/xlink" viewBox="0 0 150 150">
  <defs>
    <style>
      .cls-1 {
        fill: url(#_未命名的渐变_13);
      }

      .cls-1, .cls-2, .cls-3, .cls-4, .cls-5, .cls-6, .cls-7, .cls-8, .cls-9, .cls-10, .cls-11, .cls-12, .cls-13, .cls-14, .cls-15, .cls-16, .cls-17, .cls-18, .cls-19, .cls-20, .cls-21, .cls-22, .cls-23, .cls-24, .cls-25, .cls-26, .cls-27, .cls-28, .cls-29, .cls-30, .cls-31, .cls-32, .cls-33, .cls-34, .cls-35, .cls-36, .cls-37, .cls-38, .cls-39, .cls-40, .cls-41, .cls-42, .cls-43, .cls-44, .cls-45, .cls-46, .cls-47, .cls-48, .cls-49, .cls-50, .cls-51, .cls-52, .cls-53, .cls-54, .cls-55, .cls-56, .cls-57, .cls-58, .cls-59, .cls-60 {
        stroke-width: 0px;
      }

      .cls-2 {
        fill: url(#_未命名的渐变_21);
      }

      .cls-3 {
        fill: url(#_未命名的渐变_78);
      }

      .cls-4 {
        fill: url(#_未命名的渐变_73);
      }

      .cls-5, .cls-61, .cls-62, .cls-63, .cls-64, .cls-65, .cls-66, .cls-67, .cls-68, .cls-69, .cls-70, .cls-71, .cls-72, .cls-73, .cls-74, .cls-75, .cls-76, .cls-77, .cls-78, .cls-79, .cls-80, .cls-81 {
        fill: none;
      }

      .cls-6 {
        fill: url(#_未命名的渐变_319-14);
      }

      .cls-7 {
        fill: url(#_未命名的渐变_319-13);
      }

      .cls-8 {
        fill: url(#_未命名的渐变_319-15);
      }

      .cls-9 {
        fill: url(#_未命名的渐变_319-11);
      }

      .cls-10 {
        fill: url(#_未命名的渐变_319-16);
      }

      .cls-11 {
        fill: url(#_未命名的渐变_319-10);
      }

      .cls-12 {
        fill: url(#_未命名的渐变_319-12);
      }

      .cls-13 {
        fill: url(#_未命名的渐变_319-17);
      }

      .cls-14 {
        fill: url(#_未命名的渐变_319-19);
      }

      .cls-15 {
        fill: url(#_未命名的渐变_319-18);
      }

      .cls-16 {
        fill: url(#_未命名的渐变_319-20);
      }

      .cls-17 {
        fill: url(#_未命名的渐变_322-17);
      }

      .cls-18 {
        fill: url(#_未命名的渐变_322-13);
      }

      .cls-19 {
        fill: url(#_未命名的渐变_322-18);
      }

      .cls-20 {
        fill: url(#_未命名的渐变_322-15);
      }

      .cls-21 {
        fill: url(#_未命名的渐变_322-12);
      }

      .cls-22 {
        fill: url(#_未命名的渐变_322-14);
      }

      .cls-23 {
        fill: url(#_未命名的渐变_322-11);
      }

      .cls-24 {
        fill: url(#_未命名的渐变_322-20);
      }

      .cls-25 {
        fill: url(#_未命名的渐变_322-21);
      }

      .cls-26 {
        fill: url(#_未命名的渐变_322-19);
      }

      .cls-27 {
        fill: url(#_未命名的渐变_322-16);
      }

      .cls-28 {
        fill: url(#_未命名的渐变_322-10);
      }

      .cls-61 {
        stroke: #fff;
        stroke-width: .1px;
      }

      .cls-61, .cls-62, .cls-63, .cls-64, .cls-65, .cls-66, .cls-67, .cls-68, .cls-69, .cls-70, .cls-71, .cls-72, .cls-73, .cls-74, .cls-75, .cls-76, .cls-77, .cls-78, .cls-79, .cls-80, .cls-81 {
        stroke-miterlimit: 10;
      }

      .cls-29 {
        fill: url(#_未命名的渐变_13-2);
      }

      .cls-30 {
        fill: url(#_未命名的渐变_21-5);
      }

      .cls-31 {
        fill: url(#_未命名的渐变_21-2);
      }

      .cls-32 {
        fill: url(#_未命名的渐变_21-3);
      }

      .cls-33 {
        fill: url(#_未命名的渐变_21-4);
      }

      .cls-34 {
        fill: url(#_未命名的渐变_322-3);
      }

      .cls-35 {
        fill: url(#_未命名的渐变_322-9);
      }

      .cls-36 {
        fill: url(#_未命名的渐变_322-8);
      }

      .cls-37 {
        fill: url(#_未命名的渐变_322-7);
      }

      .cls-38 {
        fill: url(#_未命名的渐变_322-4);
      }

      .cls-39 {
        fill: url(#_未命名的渐变_322-2);
      }

      .cls-40 {
        fill: url(#_未命名的渐变_322-5);
      }

      .cls-41 {
        fill: url(#_未命名的渐变_322-6);
      }

      .cls-42 {
        fill: url(#_未命名的渐变_319-7);
      }

      .cls-43 {
        fill: url(#_未命名的渐变_319-5);
      }

      .cls-44 {
        fill: url(#_未命名的渐变_319-4);
      }

      .cls-45 {
        fill: url(#_未命名的渐变_319-6);
      }

      .cls-46 {
        fill: url(#_未命名的渐变_319-3);
      }

      .cls-47 {
        fill: url(#_未命名的渐变_319-2);
      }

      .cls-48 {
        fill: url(#_未命名的渐变_319-8);
      }

      .cls-49 {
        fill: url(#_未命名的渐变_319-9);
      }

      .cls-50 {
        fill: url(#_新建图案);
        opacity: .1;
      }

      .cls-82 {
        opacity: .2;
      }

      .cls-62 {
        stroke: url(#_未命名的渐变_4-20);
      }

      .cls-62, .cls-63, .cls-64, .cls-65, .cls-66, .cls-67, .cls-68, .cls-69, .cls-70, .cls-71, .cls-72, .cls-73, .cls-74, .cls-75, .cls-76, .cls-77, .cls-78, .cls-79, .cls-80, .cls-81 {
        stroke-linecap: round;
        stroke-width: .5px;
      }

      .cls-63 {
        stroke: url(#_未命名的渐变_4-17);
      }

      .cls-64 {
        stroke: url(#_未命名的渐变_4-18);
      }

      .cls-65 {
        stroke: url(#_未命名的渐变_4-19);
      }

      .cls-66 {
        stroke: url(#_未命名的渐变_4-13);
      }

      .cls-67 {
        stroke: url(#_未命名的渐变_4-14);
      }

      .cls-68 {
        stroke: url(#_未命名的渐变_4-12);
      }

      .cls-69 {
        stroke: url(#_未命名的渐变_4-10);
      }

      .cls-70 {
        stroke: url(#_未命名的渐变_4-11);
      }

      .cls-71 {
        stroke: url(#_未命名的渐变_4-16);
      }

      .cls-72 {
        stroke: url(#_未命名的渐变_4-15);
      }

      .cls-51 {
        fill: url(#_未命名的渐变_9);
      }

      .cls-83 {
        isolation: isolate;
      }

      .cls-73 {
        stroke: url(#_未命名的渐变_4);
      }

      .cls-53 {
        fill: url(#_未命名的渐变_9-2);
      }

      .cls-54 {
        fill: url(#_未命名的渐变_9-3);
      }

      .cls-55 {
        fill: url(#_未命名的渐变_322);
      }

      .cls-56 {
        fill: url(#_未命名的渐变_319);
      }

      .cls-84 {
        opacity: 0;
      }

      .cls-57 {
        fill: #5c7296;
      }

      .cls-58 {
        fill: #9dbef4;
      }

      .cls-59 {
        fill: #8bace6;
      }

      .cls-60 {
        fill: #000715;
      }

      .cls-74 {
        stroke: url(#_未命名的渐变_4-6);
      }

      .cls-75 {
        stroke: url(#_未命名的渐变_4-3);
      }

      .cls-76 {
        stroke: url(#_未命名的渐变_4-2);
      }

      .cls-77 {
        stroke: url(#_未命名的渐变_4-7);
      }

      .cls-78 {
        stroke: url(#_未命名的渐变_4-8);
      }

      .cls-79 {
        stroke: url(#_未命名的渐变_4-9);
      }

      .cls-80 {
        stroke: url(#_未命名的渐变_4-4);
      }

      .cls-81 {
        stroke: url(#_未命名的渐变_4-5);
      }
    </style>
    <pattern id="_新建图案" data-name="新建图案" x="0" y="0" width="18.57" height="32.16" patternTransform="translate(3810.27 952.58)" patternUnits="userSpaceOnUse" viewBox="0 0 18.57 32.16">
      <g>
        <rect class="cls-5" x="0" y="0" width="18.57" height="32.16"/>
        <g>
          <g>
            <polyline class="cls-61" points="18.57 21.44 18.57 32.16 18.57 42.88"/>
            <polyline class="cls-61" points="9.29 26.8 18.57 32.16 27.85 37.51 27.85 37.52"/>
            <polyline class="cls-61" points="9.29 37.52 9.29 37.51 18.57 32.16 27.85 26.8"/>
          </g>
          <polygon class="cls-61" points="27.85 37.52 27.85 26.8 18.57 21.44 9.28 26.8 9.28 37.52 18.57 42.88 27.85 37.52"/>
        </g>
        <g>
          <g>
            <polyline class="cls-61" points="0 21.44 0 32.16 0 42.88"/>
            <polyline class="cls-61" points="-9.28 26.8 0 32.16 9.28 37.51 9.28 37.52"/>
            <polyline class="cls-61" points="-9.28 37.52 -9.28 37.51 0 32.16 9.28 26.8"/>
          </g>
          <polygon class="cls-61" points="9.28 37.52 9.28 26.8 0 21.44 -9.28 26.8 -9.28 37.52 0 42.88 9.28 37.52"/>
        </g>
        <g>
          <g>
            <polyline class="cls-61" points="18.57 10.72 27.85 16.08 37.13 21.43 37.13 21.44"/>
            <polyline class="cls-61" points="18.57 21.44 18.57 21.43 27.85 16.08 37.13 10.72"/>
          </g>
          <polygon class="cls-61" points="37.14 21.44 37.14 10.72 27.85 5.36 18.57 10.72 18.57 21.44 27.85 26.8 37.14 21.44"/>
        </g>
        <g>
          <g>
            <polyline class="cls-61" points="9.28 5.36 9.28 16.08 9.28 26.8"/>
            <polyline class="cls-61" points="0 10.72 9.28 16.08 18.56 21.43 18.56 21.44"/>
            <polyline class="cls-61" points="0 21.44 0 21.43 9.28 16.08 18.56 10.72"/>
          </g>
          <polygon class="cls-61" points="18.57 21.44 18.57 10.72 9.28 5.36 0 10.72 0 21.44 9.28 26.8 18.57 21.44"/>
        </g>
        <g>
          <g>
            <polyline class="cls-61" points="-18.56 10.72 -9.28 16.08 0 21.43 0 21.44"/>
            <polyline class="cls-61" points="-18.56 21.44 -18.56 21.43 -9.28 16.08 0 10.72"/>
          </g>
          <polygon class="cls-61" points="0 21.44 0 10.72 -9.28 5.36 -18.57 10.72 -18.57 21.44 -9.28 26.8 0 21.44"/>
        </g>
        <g>
          <g>
            <polyline class="cls-61" points="18.57 -10.72 18.57 0 18.57 10.72"/>
            <polyline class="cls-61" points="9.29 -5.36 18.57 0 27.85 5.35 27.85 5.36"/>
            <polyline class="cls-61" points="9.29 5.36 9.29 5.35 18.57 0 27.85 -5.36"/>
          </g>
          <polygon class="cls-61" points="27.85 5.36 27.85 -5.36 18.57 -10.72 9.28 -5.36 9.28 5.36 18.57 10.72 27.85 5.36"/>
        </g>
        <g>
          <g>
            <polyline class="cls-61" points="0 -10.72 0 0 0 10.72"/>
            <polyline class="cls-61" points="-9.28 -5.36 0 0 9.28 5.35 9.28 5.36"/>
            <polyline class="cls-61" points="-9.28 5.36 -9.28 5.35 0 0 9.28 -5.36"/>
          </g>
          <polygon class="cls-61" points="9.28 5.36 9.28 -5.36 0 -10.72 -9.28 -5.36 -9.28 5.36 0 10.72 9.28 5.36"/>
        </g>
      </g>
    </pattern>
    <linearGradient id="_未命名的渐变_21" data-name="未命名的渐变 21" x1="40.02" y1="102.79" x2="107.88" y2="102.79" gradientUnits="userSpaceOnUse">
      <stop offset="0" stop-color="#35455c"/>
      <stop offset=".15" stop-color="#7497d0"/>
      <stop offset=".25" stop-color="#7497d0"/>
      <stop offset=".9" stop-color="#11161a"/>
      <stop offset="1" stop-color="#263141"/>
    </linearGradient>
    <linearGradient id="_未命名的渐变_13" data-name="未命名的渐变 13" x1="40.23" y1="55.99" x2="107.88" y2="55.99" gradientUnits="userSpaceOnUse">
      <stop offset="0" stop-color="#81aaea"/>
      <stop offset="1" stop-color="#4d709c"/>
    </linearGradient>
    <linearGradient id="_未命名的渐变_21-2" data-name="未命名的渐变 21" x1="40.24" y1="59.93" x2="107.93" y2="59.93" xlink:href="#_未命名的渐变_21"/>
    <linearGradient id="_未命名的渐变_21-3" data-name="未命名的渐变 21" x1="35.36" y1="56.96" x2="113.31" y2="56.96" xlink:href="#_未命名的渐变_21"/>
    <linearGradient id="_未命名的渐变_13-2" data-name="未命名的渐变 13" x1="35.37" y1="44.98" x2="113.31" y2="44.98" gradientTransform="translate(119.11 -29.48) rotate(89.84)" xlink:href="#_未命名的渐变_13"/>
    <linearGradient id="_未命名的渐变_21-4" data-name="未命名的渐变 21" x1="57.07" y1="27.68" x2="90.87" y2="61.48" xlink:href="#_未命名的渐变_21"/>
    <linearGradient id="_未命名的渐变_21-5" data-name="未命名的渐变 21" x1="40.17" y1="54.17" x2="107.79" y2="54.17" xlink:href="#_未命名的渐变_21"/>
    <linearGradient id="_未命名的渐变_319" data-name="未命名的渐变 319" x1="74.48" y1="63.53" x2="75.34" y2="63.53" gradientUnits="userSpaceOnUse">
      <stop offset="0" stop-color="#4c6383"/>
      <stop offset=".2" stop-color="#8fbbff"/>
      <stop offset=".9" stop-color="#3c4d5c"/>
      <stop offset="1" stop-color="#4c6383"/>
    </linearGradient>
    <linearGradient id="_未命名的渐变_322" data-name="未命名的渐变 322" x1="74.48" y1="58.89" x2="75.33" y2="58.89" gradientUnits="userSpaceOnUse">
      <stop offset="0" stop-color="#9ec6ff"/>
      <stop offset="1" stop-color="#749bcf"/>
    </linearGradient>
    <linearGradient id="_未命名的渐变_319-2" data-name="未命名的渐变 319" x1="84.96" y1="62.85" x2="85.82" y2="62.85" xlink:href="#_未命名的渐变_319"/>
    <linearGradient id="_未命名的渐变_322-2" data-name="未命名的渐变 322" x1="84.96" y1="58.21" x2="85.82" y2="58.21" xlink:href="#_未命名的渐变_322"/>
    <linearGradient id="_未命名的渐变_319-3" data-name="未命名的渐变 319" x1="95.11" y1="60.23" x2="95.97" y2="60.23" xlink:href="#_未命名的渐变_319"/>
    <linearGradient id="_未命名的渐变_322-3" data-name="未命名的渐变 322" x1="95.11" y1="55.59" x2="95.97" y2="55.59" xlink:href="#_未命名的渐变_322"/>
    <linearGradient id="_未命名的渐变_319-4" data-name="未命名的渐变 319" x1="104.67" y1="55.24" x2="105.52" y2="55.24" xlink:href="#_未命名的渐变_319"/>
    <linearGradient id="_未命名的渐变_322-4" data-name="未命名的渐变 322" x1="104.67" y1="50.6" x2="105.52" y2="50.6" xlink:href="#_未命名的渐变_322"/>
    <linearGradient id="_未命名的渐变_319-5" data-name="未命名的渐变 319" x1="112.53" y1="47.12" x2="113.39" y2="47.12" xlink:href="#_未命名的渐变_319"/>
    <linearGradient id="_未命名的渐变_322-5" data-name="未命名的渐变 322" x1="112.53" y1="42.48" x2="113.39" y2="42.48" xlink:href="#_未命名的渐变_322"/>
    <linearGradient id="_未命名的渐变_319-6" data-name="未命名的渐变 319" x1="65.73" y1="62.64" x2="66.58" y2="62.64" xlink:href="#_未命名的渐变_319"/>
    <linearGradient id="_未命名的渐变_322-6" data-name="未命名的渐变 322" x1="65.73" y1="58" x2="66.58" y2="58" xlink:href="#_未命名的渐变_322"/>
    <linearGradient id="_未命名的渐变_319-7" data-name="未命名的渐变 319" x1="57.73" y1="61.24" x2="58.59" y2="61.24" xlink:href="#_未命名的渐变_319"/>
    <linearGradient id="_未命名的渐变_322-7" data-name="未命名的渐变 322" x1="57.73" y1="56.6" x2="58.59" y2="56.6" xlink:href="#_未命名的渐变_322"/>
    <linearGradient id="_未命名的渐变_322-8" data-name="未命名的渐变 322" x1="53.36" y1="55.21" x2="54.21" y2="55.21" xlink:href="#_未命名的渐变_322"/>
    <linearGradient id="_未命名的渐变_319-8" data-name="未命名的渐变 319" x1="50.12" y1="58.58" x2="50.98" y2="58.58" xlink:href="#_未命名的渐变_319"/>
    <linearGradient id="_未命名的渐变_322-9" data-name="未命名的渐变 322" x1="50.12" y1="53.94" x2="50.98" y2="53.94" xlink:href="#_未命名的渐变_322"/>
    <linearGradient id="_未命名的渐变_319-9" data-name="未命名的渐变 319" x1="41.94" y1="53.63" x2="42.8" y2="53.63" xlink:href="#_未命名的渐变_319"/>
    <linearGradient id="_未命名的渐变_322-10" data-name="未命名的渐变 322" x1="41.94" y1="48.99" x2="42.8" y2="48.99" xlink:href="#_未命名的渐变_322"/>
    <linearGradient id="_未命名的渐变_319-10" data-name="未命名的渐变 319" x1="36.74" y1="33.46" x2="37.6" y2="33.46" xlink:href="#_未命名的渐变_319"/>
    <linearGradient id="_未命名的渐变_322-11" data-name="未命名的渐变 322" x1="36.74" y1="28.82" x2="37.59" y2="28.82" xlink:href="#_未命名的渐变_322"/>
    <linearGradient id="_未命名的渐变_319-11" data-name="未命名的渐变 319" x1="42.13" y1="27.25" x2="42.99" y2="27.25" xlink:href="#_未命名的渐变_319"/>
    <linearGradient id="_未命名的渐变_322-12" data-name="未命名的渐变 322" x1="42.13" y1="22.61" x2="42.99" y2="22.61" xlink:href="#_未命名的渐变_322"/>
    <linearGradient id="_未命名的渐变_319-12" data-name="未命名的渐变 319" x1="49.3" y1="22.74" x2="50.16" y2="22.74" xlink:href="#_未命名的渐变_319"/>
    <linearGradient id="_未命名的渐变_322-13" data-name="未命名的渐变 322" x1="49.3" y1="18.1" x2="50.15" y2="18.1" xlink:href="#_未命名的渐变_322"/>
    <linearGradient id="_未命名的渐变_319-13" data-name="未命名的渐变 319" x1="57.16" y1="19.83" x2="58.02" y2="19.83" xlink:href="#_未命名的渐变_319"/>
    <linearGradient id="_未命名的渐变_322-14" data-name="未命名的渐变 322" x1="57.16" y1="15.19" x2="58.02" y2="15.19" xlink:href="#_未命名的渐变_322"/>
    <linearGradient id="_未命名的渐变_319-14" data-name="未命名的渐变 319" x1="94.01" y1="20.65" x2="94.87" y2="20.65" xlink:href="#_未命名的渐变_319"/>
    <linearGradient id="_未命名的渐变_322-15" data-name="未命名的渐变 322" x1="94.01" y1="16.01" x2="94.87" y2="16.01" xlink:href="#_未命名的渐变_322"/>
    <linearGradient id="_未命名的渐变_319-15" data-name="未命名的渐变 319" x1="102.26" y1="24.08" x2="103.11" y2="24.08" xlink:href="#_未命名的渐变_319"/>
    <linearGradient id="_未命名的渐变_322-16" data-name="未命名的渐变 322" x1="102.26" y1="19.44" x2="103.11" y2="19.44" xlink:href="#_未命名的渐变_322"/>
    <linearGradient id="_未命名的渐变_319-16" data-name="未命名的渐变 319" x1="108.73" y1="29.02" x2="109.58" y2="29.02" xlink:href="#_未命名的渐变_319"/>
    <linearGradient id="_未命名的渐变_322-17" data-name="未命名的渐变 322" x1="108.73" y1="24.38" x2="109.58" y2="24.38" xlink:href="#_未命名的渐变_322"/>
    <linearGradient id="_未命名的渐变_319-17" data-name="未命名的渐变 319" x1="36.36" y1="46.72" x2="37.22" y2="46.72" xlink:href="#_未命名的渐变_319"/>
    <linearGradient id="_未命名的渐变_322-18" data-name="未命名的渐变 322" x1="36.36" y1="42.08" x2="37.21" y2="42.08" xlink:href="#_未命名的渐变_322"/>
    <linearGradient id="_未命名的渐变_319-18" data-name="未命名的渐变 319" x1="35.01" y1="57" x2="114.99" y2="57" xlink:href="#_未命名的渐变_319"/>
    <linearGradient id="_未命名的渐变_9" data-name="未命名的渐变 9" x1="35.78" y1="34.17" x2="114.23" y2="34.17" gradientUnits="userSpaceOnUse">
      <stop offset="0" stop-color="#4c6383"/>
      <stop offset=".1" stop-color="#3c4d5c"/>
      <stop offset=".8" stop-color="#8fbbff"/>
      <stop offset="1" stop-color="#4c6383"/>
    </linearGradient>
    <linearGradient id="_未命名的渐变_322-19" data-name="未命名的渐变 322" x1="35.01" y1="45.16" x2="114.99" y2="45.16" xlink:href="#_未命名的渐变_322"/>
    <linearGradient id="_未命名的渐变_319-19" data-name="未命名的渐变 319" x1="35.01" y1="50.34" x2="114.99" y2="50.34" xlink:href="#_未命名的渐变_319"/>
    <linearGradient id="_未命名的渐变_9-2" data-name="未命名的渐变 9" y1="27.51" y2="27.51" xlink:href="#_未命名的渐变_9"/>
    <linearGradient id="_未命名的渐变_322-20" data-name="未命名的渐变 322" x1="35.01" y1="38.5" x2="114.99" y2="38.5" xlink:href="#_未命名的渐变_322"/>
    <linearGradient id="_未命名的渐变_319-20" data-name="未命名的渐变 319" x1="35.01" y1="47.11" x2="114.99" y2="47.11" xlink:href="#_未命名的渐变_319"/>
    <linearGradient id="_未命名的渐变_9-3" data-name="未命名的渐变 9" y1="24.28" y2="24.28" xlink:href="#_未命名的渐变_9"/>
    <linearGradient id="_未命名的渐变_322-21" data-name="未命名的渐变 322" x1="35.01" y1="35.27" x2="114.99" y2="35.27" xlink:href="#_未命名的渐变_322"/>
    <linearGradient id="_未命名的渐变_73" data-name="未命名的渐变 73" x1="64.71" y1="23.61" x2="85.29" y2="23.61" gradientUnits="userSpaceOnUse">
      <stop offset="0" stop-color="#0071ed"/>
      <stop offset=".15" stop-color="#0bc9ff"/>
      <stop offset=".25" stop-color="#0bc9ff"/>
      <stop offset=".85" stop-color="#1928d3"/>
      <stop offset="1" stop-color="#0071ed"/>
    </linearGradient>
    <linearGradient id="_未命名的渐变_78" data-name="未命名的渐变 78" x1="64.75" y1="13.82" x2="85.29" y2="13.82" gradientUnits="userSpaceOnUse">
      <stop offset="0" stop-color="#6fe3ff"/>
      <stop offset="1" stop-color="#00b6ff"/>
    </linearGradient>
    <linearGradient id="_未命名的渐变_4" data-name="未命名的渐变 4" x1="38.63" y1="58.65" x2="38.88" y2="58.22" gradientUnits="userSpaceOnUse">
      <stop offset="0" stop-color="#506381"/>
      <stop offset=".2" stop-color="#98bdff"/>
      <stop offset=".9" stop-color="#3f4d5b"/>
      <stop offset="1" stop-color="#506381"/>
    </linearGradient>
    <linearGradient id="_未命名的渐变_4-2" data-name="未命名的渐变 4" x1="38.63" y1="62.7" x2="38.88" y2="62.27" xlink:href="#_未命名的渐变_4"/>
    <linearGradient id="_未命名的渐变_4-3" data-name="未命名的渐变 4" y1="66.75" x2="38.88" y2="66.32" xlink:href="#_未命名的渐变_4"/>
    <linearGradient id="_未命名的渐变_4-4" data-name="未命名的渐变 4" y1="70.81" x2="38.88" y2="70.37" xlink:href="#_未命名的渐变_4"/>
    <linearGradient id="_未命名的渐变_4-5" data-name="未命名的渐变 4" x1="38.63" y1="74.86" x2="38.88" y2="74.42" xlink:href="#_未命名的渐变_4"/>
    <linearGradient id="_未命名的渐变_4-6" data-name="未命名的渐变 4" y1="78.91" x2="38.88" y2="78.48" xlink:href="#_未命名的渐变_4"/>
    <linearGradient id="_未命名的渐变_4-7" data-name="未命名的渐变 4" y1="82.96" x2="38.88" y2="82.53" xlink:href="#_未命名的渐变_4"/>
    <linearGradient id="_未命名的渐变_4-8" data-name="未命名的渐变 4" x1="38.63" y1="87.01" y2="86.58" xlink:href="#_未命名的渐变_4"/>
    <linearGradient id="_未命名的渐变_4-9" data-name="未命名的渐变 4" x1="38.63" y1="91.07" x2="38.88" y2="90.63" xlink:href="#_未命名的渐变_4"/>
    <linearGradient id="_未命名的渐变_4-10" data-name="未命名的渐变 4" x1="38.63" y1="95.12" x2="38.88" y2="94.69" xlink:href="#_未命名的渐变_4"/>
    <linearGradient id="_未命名的渐变_4-11" data-name="未命名的渐变 4" x1="38.63" y1="99.17" x2="38.88" y2="98.74" xlink:href="#_未命名的渐变_4"/>
    <linearGradient id="_未命名的渐变_4-12" data-name="未命名的渐变 4" x1="38.63" y1="103.22" x2="38.88" y2="102.79" xlink:href="#_未命名的渐变_4"/>
    <linearGradient id="_未命名的渐变_4-13" data-name="未命名的渐变 4" x1="38.63" y1="107.28" y2="106.84" xlink:href="#_未命名的渐变_4"/>
    <linearGradient id="_未命名的渐变_4-14" data-name="未命名的渐变 4" x1="38.63" y1="111.33" x2="38.88" y2="110.9" xlink:href="#_未命名的渐变_4"/>
    <linearGradient id="_未命名的渐变_4-15" data-name="未命名的渐变 4" x1="38.63" y1="115.38" x2="38.88" y2="114.95" xlink:href="#_未命名的渐变_4"/>
    <linearGradient id="_未命名的渐变_4-16" data-name="未命名的渐变 4" x1="38.63" y1="119.43" x2="38.88" y2="119" xlink:href="#_未命名的渐变_4"/>
    <linearGradient id="_未命名的渐变_4-17" data-name="未命名的渐变 4" x1="38.63" y1="123.49" x2="38.88" y2="123.05" xlink:href="#_未命名的渐变_4"/>
    <linearGradient id="_未命名的渐变_4-18" data-name="未命名的渐变 4" x1="38.63" y1="127.54" x2="38.88" y2="127.11" xlink:href="#_未命名的渐变_4"/>
    <linearGradient id="_未命名的渐变_4-19" data-name="未命名的渐变 4" x1="38.63" y1="131.59" x2="38.88" y2="131.16" xlink:href="#_未命名的渐变_4"/>
    <linearGradient id="_未命名的渐变_4-20" data-name="未命名的渐变 4" x1="38.63" y1="135.64" x2="38.88" y2="135.21" xlink:href="#_未命名的渐变_4"/>
  </defs>
  <g id="_图层_1-2" data-name="图层 1">
    <g id="_屏蔽厂房" data-name="屏蔽厂房">
      <g id="_背景" data-name="背景" class="cls-84">
        <rect class="cls-60" width="150" height="150"/>
        <rect id="_网格" data-name="网格" class="cls-50" width="150" height="150"/>
      </g>
      <g>
        <g class="cls-83">
          <path class="cls-2" d="m107.88,56.08l-.21,74.1c-.01,4.98-3.29,9.96-9.83,13.76-13.17,7.65-34.59,7.65-47.84,0-6.67-3.85-10-8.91-9.99-13.95l.21-74.1c-.01,5.05,3.32,10.1,9.99,13.95,13.25,7.65,34.67,7.65,47.84,0,6.54-3.8,9.81-8.77,9.83-13.76Z"/>
          <path class="cls-1" d="m97.9,42.13c13.25,7.65,13.32,20.06.16,27.71s-34.59,7.65-47.84,0c-13.26-7.65-13.33-20.06-.16-27.71s34.58-7.65,47.84,0Z"/>
        </g>
        <path class="cls-31" d="m107.93,44.36l-.03,11.86c-.01,4.98-3.29,9.96-9.83,13.76-13.16,7.65-34.58,7.65-47.83,0-6.67-3.85-10-8.91-9.99-13.95l.03-11.86c-.01,5.05,3.32,10.1,9.99,13.95,13.25,7.65,34.67,7.65,47.83,0,6.54-3.8,9.81-8.77,9.83-13.76Z"/>
        <g class="cls-83">
          <path class="cls-32" d="m113.31,45.1v1.48c-.02,5.74-3.79,11.47-11.33,15.85-15.17,8.81-39.85,8.81-55.11,0-7.68-4.44-11.52-10.26-11.5-16.07v-1.48c-.01,5.81,3.82,11.64,11.51,16.07,15.26,8.81,39.94,8.81,55.11,0,7.54-4.38,11.31-10.11,11.32-15.85Z"/>
          <ellipse class="cls-29" cx="74.34" cy="44.98" rx="22.57" ry="38.97" transform="translate(29.14 119.19) rotate(-89.84)"/>
        </g>
        <path class="cls-33" d="m77.94,25.32l-8.03-.02c-2.79.19-2.55,0-5.2.59l-24.56,18.72,67.64-.04s0,0,0,0l-22.49-18.22c-2.6-.58-4.63-.82-7.36-1.01Z"/>
        <path class="cls-30" d="m40.17,44.56c.18,4.89,3.5,9.76,9.97,13.49,13.25,7.65,34.67,7.65,47.83,0,6.42-3.73,9.69-8.6,9.81-13.49H40.17Z"/>
        <g>
          <g class="cls-83">
            <path class="cls-56" d="m74.48,58.93s0,0,0,0c0,.01.01.03.02.04,0,0,0,0,0,0,0,.01.02.03.03.04,0,0,.02.01.03.02,0,0,.02.01.03.02.03.01.05.03.08.04.01,0,.02,0,.03,0,.01,0,.03,0,.04.01.02,0,.03,0,.05,0,0,0,0,0,.01,0,.02,0,.05,0,.07,0,0,0,0,0,.01,0,.02,0,.05,0,.07,0,0,0,0,0,.01,0,.02,0,.05,0,.07-.01,0,0,0,0,.01,0,.02,0,.04-.01.06-.02,0,0,0,0,.01,0,.02,0,.04-.02.07-.03.08-.05.13-.11.13-.18v9.03c0,.06-.04.13-.12.18-.02.01-.04.02-.06.03,0,0,0,0,0,0,0,0,0,0-.01,0-.01,0-.03,0-.04.01,0,0-.01,0-.02,0,0,0,0,0-.01,0,0,0,0,0-.01,0-.01,0-.03,0-.04,0,0,0-.01,0-.02,0,0,0,0,0-.01,0,0,0-.01,0-.02,0-.01,0-.03,0-.04,0,0,0,0,0-.01,0,0,0,0,0-.01,0,0,0-.01,0-.02,0-.02,0-.03,0-.05,0,0,0,0,0,0,0,0,0,0,0-.01,0-.01,0-.02,0-.04,0,0,0-.01,0-.02,0-.01,0-.03,0-.04-.01,0,0-.02,0-.02,0,0,0,0,0,0,0-.03-.01-.06-.02-.08-.04,0,0,0,0,0,0,0,0-.01-.01-.02-.02-.01,0-.02-.01-.03-.02,0,0,0,0,0,0-.01,0-.02-.02-.03-.03,0,0,0,0,0,0,0,0,0,0,0,0,0,0,0,0,0-.01,0,0,0-.02-.01-.02,0,0,0,0,0,0,0,0,0,0,0,0,0,0,0-.01,0-.02,0,0,0-.02,0-.02,0,0,0,0,0,0v-9.03s0,.03,0,.04Z"/>
            <path class="cls-55" d="m74.6,58.71c-.17.1-.17.25,0,.35.17.1.44.1.6,0s.17-.25,0-.35-.44-.1-.6,0Z"/>
          </g>
          <g class="cls-83">
            <path class="cls-47" d="m84.97,58.25s0,0,0,0c0,.01.01.03.02.04,0,0,0,0,0,0,0,.01.02.03.03.04,0,0,.02.01.03.02,0,0,.02.01.03.02.03.01.05.03.08.04.01,0,.02,0,.03,0,.01,0,.03,0,.04.01.02,0,.03,0,.05,0,0,0,0,0,.01,0,.02,0,.05,0,.07,0,0,0,0,0,.01,0,.02,0,.05,0,.07,0,0,0,0,0,.01,0,.02,0,.05,0,.07-.01,0,0,0,0,.01,0,.02,0,.04-.01.06-.02,0,0,0,0,.01,0,.02,0,.04-.02.07-.03.08-.05.13-.11.13-.18v9.03c0,.06-.04.13-.12.18-.02.01-.04.02-.06.03,0,0,0,0,0,0,0,0,0,0-.01,0-.01,0-.03,0-.04.01,0,0-.01,0-.02,0,0,0,0,0-.01,0,0,0,0,0-.01,0-.01,0-.03,0-.04,0,0,0-.01,0-.02,0,0,0,0,0-.01,0,0,0-.01,0-.02,0-.01,0-.03,0-.04,0,0,0,0,0-.01,0,0,0,0,0-.01,0,0,0-.01,0-.02,0-.02,0-.03,0-.05,0,0,0,0,0,0,0,0,0,0,0-.01,0-.01,0-.02,0-.04,0,0,0-.01,0-.02,0-.01,0-.03,0-.04-.01,0,0-.02,0-.02,0,0,0,0,0,0,0-.03-.01-.06-.02-.08-.04,0,0,0,0,0,0,0,0-.01-.01-.02-.02-.01,0-.02-.01-.03-.02,0,0,0,0,0,0-.01,0-.02-.02-.03-.03,0,0,0,0,0,0,0,0,0,0,0,0,0,0,0,0,0-.01,0,0,0-.02-.01-.02,0,0,0,0,0,0,0,0,0,0,0,0,0,0,0-.01,0-.02,0,0,0-.02,0-.02,0,0,0,0,0,0v-9.03s0,.03,0,.04Z"/>
            <path class="cls-39" d="m85.09,58.03c-.17.1-.17.25,0,.35.17.1.44.1.6,0s.17-.25,0-.35-.44-.1-.6,0Z"/>
          </g>
          <g class="cls-83">
            <path class="cls-46" d="m95.12,55.63s0,0,0,0c0,.01.01.03.02.04,0,0,0,0,0,0,0,.01.02.03.03.04,0,0,.02.01.03.02,0,0,.02.01.03.02.03.01.05.03.08.04.01,0,.02,0,.03,0,.01,0,.03,0,.04.01.02,0,.03,0,.05,0,0,0,0,0,.01,0,.02,0,.05,0,.07,0,0,0,0,0,.01,0,.02,0,.05,0,.07,0,0,0,0,0,.01,0,.02,0,.05,0,.07-.01,0,0,0,0,.01,0,.02,0,.04-.01.06-.02,0,0,0,0,.01,0,.02,0,.04-.02.07-.03.08-.05.13-.11.13-.18v9.03c0,.06-.04.13-.12.18-.02.01-.04.02-.06.03,0,0,0,0,0,0,0,0,0,0-.01,0-.01,0-.03,0-.04.01,0,0-.01,0-.02,0,0,0,0,0-.01,0,0,0,0,0-.01,0-.01,0-.03,0-.04,0,0,0-.01,0-.02,0,0,0,0,0-.01,0,0,0-.01,0-.02,0-.01,0-.03,0-.04,0,0,0,0,0-.01,0,0,0,0,0-.01,0,0,0-.01,0-.02,0-.02,0-.03,0-.05,0,0,0,0,0,0,0,0,0,0,0-.01,0-.01,0-.02,0-.04,0,0,0-.01,0-.02,0-.01,0-.03,0-.04-.01,0,0-.02,0-.02,0,0,0,0,0,0,0-.03-.01-.06-.02-.08-.04,0,0,0,0,0,0,0,0-.01-.01-.02-.02-.01,0-.02-.01-.03-.02,0,0,0,0,0,0-.01,0-.02-.02-.03-.03,0,0,0,0,0,0,0,0,0,0,0,0,0,0,0,0,0-.01,0,0,0-.02-.01-.02,0,0,0,0,0,0,0,0,0,0,0,0,0,0,0-.01,0-.02,0,0,0-.02,0-.02,0,0,0,0,0,0v-9.03s0,.03,0,.04Z"/>
            <path class="cls-34" d="m95.24,55.41c-.17.1-.17.25,0,.35.17.1.44.1.6,0s.17-.25,0-.35-.44-.1-.6,0Z"/>
          </g>
          <g class="cls-83">
            <path class="cls-44" d="m104.67,50.64s0,0,0,0c0,.01.01.03.02.04,0,0,0,0,0,0,0,.01.02.03.03.04,0,0,.02.01.03.02,0,0,.02.01.03.02.03.01.05.03.08.04.01,0,.02,0,.03,0,.01,0,.03,0,.04.01.02,0,.03,0,.05,0,0,0,0,0,.01,0,.02,0,.05,0,.07,0,0,0,0,0,.01,0,.02,0,.05,0,.07,0,0,0,0,0,.01,0,.02,0,.05,0,.07-.01,0,0,0,0,.01,0,.02,0,.04-.01.06-.02,0,0,0,0,.01,0,.02,0,.04-.02.07-.03.08-.05.13-.11.13-.18v9.03c0,.06-.04.13-.12.18-.02.01-.04.02-.06.03,0,0,0,0,0,0,0,0,0,0-.01,0-.01,0-.03,0-.04.01,0,0-.01,0-.02,0,0,0,0,0-.01,0,0,0,0,0-.01,0-.01,0-.03,0-.04,0,0,0-.01,0-.02,0,0,0,0,0-.01,0,0,0-.01,0-.02,0-.01,0-.03,0-.04,0,0,0,0,0-.01,0,0,0,0,0-.01,0,0,0-.01,0-.02,0-.02,0-.03,0-.05,0,0,0,0,0,0,0,0,0,0,0-.01,0-.01,0-.02,0-.04,0,0,0-.01,0-.02,0-.01,0-.03,0-.04-.01,0,0-.02,0-.02,0,0,0,0,0,0,0-.03-.01-.06-.02-.08-.04,0,0,0,0,0,0,0,0-.01-.01-.02-.02-.01,0-.02-.01-.03-.02,0,0,0,0,0,0-.01,0-.02-.02-.03-.03,0,0,0,0,0,0,0,0,0,0,0,0,0,0,0,0,0-.01,0,0,0-.02-.01-.02,0,0,0,0,0,0,0,0,0,0,0,0,0,0,0-.01,0-.02,0,0,0-.02,0-.02,0,0,0,0,0,0v-9.03s0,.03,0,.04Z"/>
            <path class="cls-38" d="m104.79,50.42c-.17.1-.17.25,0,.35.17.1.44.1.6,0s.17-.25,0-.35-.44-.1-.6,0Z"/>
          </g>
          <g class="cls-83">
            <path class="cls-43" d="m112.54,42.52s0,0,0,0c0,.01.01.03.02.04,0,0,0,0,0,0,0,.01.02.03.03.04,0,0,.02.01.03.02,0,0,.02.01.03.02.03.01.05.03.08.04.01,0,.02,0,.03,0,.01,0,.03,0,.04.01.02,0,.03,0,.05,0,0,0,0,0,.01,0,.02,0,.05,0,.07,0,0,0,0,0,.01,0,.02,0,.05,0,.07,0,0,0,0,0,.01,0,.02,0,.05,0,.07-.01,0,0,0,0,.01,0,.02,0,.04-.01.06-.02,0,0,0,0,.01,0,.02,0,.04-.02.07-.03.08-.05.13-.11.13-.18v9.03c0,.06-.04.13-.12.18-.02.01-.04.02-.06.03,0,0,0,0,0,0,0,0,0,0-.01,0-.01,0-.03,0-.04.01,0,0-.01,0-.02,0,0,0,0,0-.01,0,0,0,0,0-.01,0-.01,0-.03,0-.04,0,0,0-.01,0-.02,0,0,0,0,0-.01,0,0,0-.01,0-.02,0-.01,0-.03,0-.04,0,0,0,0,0-.01,0,0,0,0,0-.01,0,0,0-.01,0-.02,0-.02,0-.03,0-.05,0,0,0,0,0,0,0,0,0,0,0-.01,0-.01,0-.02,0-.04,0,0,0-.01,0-.02,0-.01,0-.03,0-.04-.01,0,0-.02,0-.02,0,0,0,0,0,0,0-.03-.01-.06-.02-.08-.04,0,0,0,0,0,0,0,0-.01-.01-.02-.02-.01,0-.02-.01-.03-.02,0,0,0,0,0,0-.01,0-.02-.02-.03-.03,0,0,0,0,0,0,0,0,0,0,0,0,0,0,0,0,0-.01,0,0,0-.02-.01-.02,0,0,0,0,0,0,0,0,0,0,0,0,0,0,0-.01,0-.02,0,0,0-.02,0-.02,0,0,0,0,0,0v-9.03s0,.03,0,.04Z"/>
            <path class="cls-40" d="m112.66,42.3c-.17.1-.17.25,0,.35.17.1.44.1.6,0s.17-.25,0-.35-.44-.1-.6,0Z"/>
          </g>
          <g class="cls-83">
            <path class="cls-45" d="m65.73,58.04s0,0,0,0c0,.01.01.03.02.04,0,0,0,0,0,0,0,.01.02.03.03.04,0,0,.02.01.03.02,0,0,.02.01.03.02.03.01.05.03.08.04.01,0,.02,0,.03,0,.01,0,.03,0,.04.01.02,0,.03,0,.05,0,0,0,0,0,.01,0,.02,0,.05,0,.07,0,0,0,0,0,.01,0,.02,0,.05,0,.07,0,0,0,0,0,.01,0,.02,0,.05,0,.07-.01,0,0,0,0,.01,0,.02,0,.04-.01.06-.02,0,0,0,0,.01,0,.02,0,.04-.02.07-.03.08-.05.13-.11.13-.18v9.03c0,.06-.04.13-.12.18-.02.01-.04.02-.06.03,0,0,0,0,0,0,0,0,0,0-.01,0-.01,0-.03,0-.04.01,0,0-.01,0-.02,0,0,0,0,0-.01,0,0,0,0,0-.01,0-.01,0-.03,0-.04,0,0,0-.01,0-.02,0,0,0,0,0-.01,0,0,0-.01,0-.02,0-.01,0-.03,0-.04,0,0,0,0,0-.01,0,0,0,0,0-.01,0,0,0-.01,0-.02,0-.02,0-.03,0-.05,0,0,0,0,0,0,0,0,0,0,0-.01,0-.01,0-.02,0-.04,0,0,0-.01,0-.02,0-.01,0-.03,0-.04-.01,0,0-.02,0-.02,0,0,0,0,0,0,0-.03-.01-.06-.02-.08-.04,0,0,0,0,0,0,0,0-.01-.01-.02-.02-.01,0-.02-.01-.03-.02,0,0,0,0,0,0-.01,0-.02-.02-.03-.03,0,0,0,0,0,0,0,0,0,0,0,0,0,0,0,0,0-.01,0,0,0-.02-.01-.02,0,0,0,0,0,0,0,0,0,0,0,0,0,0,0-.01,0-.02,0,0,0-.02,0-.02,0,0,0,0,0,0v-9.03s0,.03,0,.04Z"/>
            <path class="cls-41" d="m65.85,57.82c-.17.1-.17.25,0,.35.17.1.44.1.6,0s.17-.25,0-.35-.44-.1-.6,0Z"/>
          </g>
          <g class="cls-83">
            <path class="cls-42" d="m57.74,56.65s0,0,0,0c0,.01.01.03.02.04,0,0,0,0,0,0,0,.01.02.03.03.04,0,0,.02.01.03.02,0,0,.02.01.03.02.03.01.05.03.08.04.01,0,.02,0,.03,0,.01,0,.03,0,.04.01.02,0,.03,0,.05,0,0,0,0,0,.01,0,.02,0,.05,0,.07,0,0,0,0,0,.01,0,.02,0,.05,0,.07,0,0,0,0,0,.01,0,.02,0,.05,0,.07-.01,0,0,0,0,.01,0,.02,0,.04-.01.06-.02,0,0,0,0,.01,0,.02,0,.04-.02.07-.03.08-.05.13-.11.13-.18v9.03c0,.06-.04.13-.12.18-.02.01-.04.02-.06.03,0,0,0,0,0,0,0,0,0,0-.01,0-.01,0-.03,0-.04.01,0,0-.01,0-.02,0,0,0,0,0-.01,0,0,0,0,0-.01,0-.01,0-.03,0-.04,0,0,0-.01,0-.02,0,0,0,0,0-.01,0,0,0-.01,0-.02,0-.01,0-.03,0-.04,0,0,0,0,0-.01,0,0,0,0,0-.01,0,0,0-.01,0-.02,0-.02,0-.03,0-.05,0,0,0,0,0,0,0,0,0,0,0-.01,0-.01,0-.02,0-.04,0,0,0-.01,0-.02,0-.01,0-.03,0-.04-.01,0,0-.02,0-.02,0,0,0,0,0,0,0-.03-.01-.06-.02-.08-.04,0,0,0,0,0,0,0,0-.01-.01-.02-.02-.01,0-.02-.01-.03-.02,0,0,0,0,0,0-.01,0-.02-.02-.03-.03,0,0,0,0,0,0,0,0,0,0,0,0,0,0,0,0,0-.01,0,0,0-.02-.01-.02,0,0,0,0,0,0,0,0,0,0,0,0,0,0,0-.01,0-.02,0,0,0-.02,0-.02,0,0,0,0,0,0v-9.03s0,.03,0,.04Z"/>
            <path class="cls-37" d="m57.86,56.43c-.17.1-.17.25,0,.35.17.1.44.1.6,0s.17-.25,0-.35-.44-.1-.6,0Z"/>
          </g>
          <g class="cls-83">
            <path class="cls-36" d="m53.48,55.03c-.17.1-.17.25,0,.35.17.1.44.1.6,0s.17-.25,0-.35-.44-.1-.6,0Z"/>
          </g>
          <g class="cls-83">
            <path class="cls-48" d="m50.13,53.98s0,0,0,0c0,.01.01.03.02.04,0,0,0,0,0,0,0,.01.02.03.03.04,0,0,.02.01.03.02,0,0,.02.01.03.02.03.01.05.03.08.04.01,0,.02,0,.03,0,.01,0,.03,0,.04.01.02,0,.03,0,.05,0,0,0,0,0,.01,0,.02,0,.05,0,.07,0,0,0,0,0,.01,0,.02,0,.05,0,.07,0,0,0,0,0,.01,0,.02,0,.05,0,.07-.01,0,0,0,0,.01,0,.02,0,.04-.01.06-.02,0,0,0,0,.01,0,.02,0,.04-.02.07-.03.08-.05.13-.11.13-.18v9.03c0,.06-.04.13-.12.18-.02.01-.04.02-.06.03,0,0,0,0,0,0,0,0,0,0-.01,0-.01,0-.03,0-.04.01,0,0-.01,0-.02,0,0,0,0,0-.01,0,0,0,0,0-.01,0-.01,0-.03,0-.04,0,0,0-.01,0-.02,0,0,0,0,0-.01,0,0,0-.01,0-.02,0-.01,0-.03,0-.04,0,0,0,0,0-.01,0,0,0,0,0-.01,0,0,0-.01,0-.02,0-.02,0-.03,0-.05,0,0,0,0,0,0,0,0,0,0,0-.01,0-.01,0-.02,0-.04,0,0,0-.01,0-.02,0-.01,0-.03,0-.04-.01,0,0-.02,0-.02,0,0,0,0,0,0,0-.03-.01-.06-.02-.08-.04,0,0,0,0,0,0,0,0-.01-.01-.02-.02-.01,0-.02-.01-.03-.02,0,0,0,0,0,0-.01,0-.02-.02-.03-.03,0,0,0,0,0,0,0,0,0,0,0,0,0,0,0,0,0-.01,0,0,0-.02-.01-.02,0,0,0,0,0,0,0,0,0,0,0,0,0,0,0-.01,0-.02,0,0,0-.02,0-.02,0,0,0,0,0,0v-9.03s0,.03,0,.04Z"/>
            <path class="cls-35" d="m50.25,53.76c-.17.1-.17.25,0,.35.17.1.44.1.6,0s.17-.25,0-.35-.44-.1-.6,0Z"/>
          </g>
          <g class="cls-83">
            <path class="cls-49" d="m41.95,49.04s0,0,0,0c0,.01.01.03.02.04,0,0,0,0,0,0,0,.01.02.03.03.04,0,0,.02.01.03.02,0,0,.02.01.03.02.03.01.05.03.08.04.01,0,.02,0,.03,0,.01,0,.03,0,.04.01.02,0,.03,0,.05,0,0,0,0,0,.01,0,.02,0,.05,0,.07,0,0,0,0,0,.01,0,.02,0,.05,0,.07,0,0,0,0,0,.01,0,.02,0,.05,0,.07-.01,0,0,0,0,.01,0,.02,0,.04-.01.06-.02,0,0,0,0,.01,0,.02,0,.04-.02.07-.03.08-.05.13-.11.13-.18v9.03c0,.06-.04.13-.12.18-.02.01-.04.02-.06.03,0,0,0,0,0,0,0,0,0,0-.01,0-.01,0-.03,0-.04.01,0,0-.01,0-.02,0,0,0,0,0-.01,0,0,0,0,0-.01,0-.01,0-.03,0-.04,0,0,0-.01,0-.02,0,0,0,0,0-.01,0,0,0-.01,0-.02,0-.01,0-.03,0-.04,0,0,0,0,0-.01,0,0,0,0,0-.01,0,0,0-.01,0-.02,0-.02,0-.03,0-.05,0,0,0,0,0,0,0,0,0,0,0-.01,0-.01,0-.02,0-.04,0,0,0-.01,0-.02,0-.01,0-.03,0-.04-.01,0,0-.02,0-.02,0,0,0,0,0,0,0-.03-.01-.06-.02-.08-.04,0,0,0,0,0,0,0,0-.01-.01-.02-.02-.01,0-.02-.01-.03-.02,0,0,0,0,0,0-.01,0-.02-.02-.03-.03,0,0,0,0,0,0,0,0,0,0,0,0,0,0,0,0,0-.01,0,0,0-.02-.01-.02,0,0,0,0,0,0,0,0,0,0,0,0,0,0,0-.01,0-.02,0,0,0-.02,0-.02,0,0,0,0,0,0v-9.03s0,.03,0,.04Z"/>
            <path class="cls-28" d="m42.07,48.82c-.17.1-.17.25,0,.35.17.1.44.1.6,0s.17-.25,0-.35-.44-.1-.6,0Z"/>
          </g>
          <g class="cls-83">
            <path class="cls-11" d="m36.75,28.87s0,0,0,0c0,.01.01.03.02.04,0,0,0,0,0,0,0,.01.02.03.03.04,0,0,.02.01.03.02,0,0,.02.01.03.02.03.01.05.03.08.04.01,0,.02,0,.03,0,.01,0,.03,0,.04.01.02,0,.03,0,.05,0,0,0,0,0,.01,0,.02,0,.05,0,.07,0,0,0,0,0,.01,0,.02,0,.05,0,.07,0,0,0,0,0,.01,0,.02,0,.05,0,.07-.01,0,0,0,0,.01,0,.02,0,.04-.01.06-.02,0,0,0,0,.01,0,.02,0,.04-.02.07-.03.08-.05.13-.11.13-.18v9.03c0,.06-.04.13-.12.18-.02.01-.04.02-.06.03,0,0,0,0,0,0,0,0,0,0-.01,0-.01,0-.03,0-.04.01,0,0-.01,0-.02,0,0,0,0,0-.01,0,0,0,0,0-.01,0-.01,0-.03,0-.04,0,0,0-.01,0-.02,0,0,0,0,0-.01,0,0,0-.01,0-.02,0-.01,0-.03,0-.04,0,0,0,0,0-.01,0,0,0,0,0-.01,0,0,0-.01,0-.02,0-.02,0-.03,0-.05,0,0,0,0,0,0,0,0,0,0,0-.01,0-.01,0-.02,0-.04,0,0,0-.01,0-.02,0-.01,0-.03,0-.04-.01,0,0-.02,0-.02,0,0,0,0,0,0,0-.03-.01-.06-.02-.08-.04,0,0,0,0,0,0,0,0-.01-.01-.02-.02-.01,0-.02-.01-.03-.02,0,0,0,0,0,0-.01,0-.02-.02-.03-.03,0,0,0,0,0,0,0,0,0,0,0,0,0,0,0,0,0-.01,0,0,0-.02-.01-.02,0,0,0,0,0,0,0,0,0,0,0,0,0,0,0-.01,0-.02,0,0,0-.02,0-.02,0,0,0,0,0,0v-9.03s0,.03,0,.04Z"/>
            <path class="cls-23" d="m36.87,28.65c-.17.1-.17.25,0,.35.17.1.44.1.6,0s.17-.25,0-.35-.44-.1-.6,0Z"/>
          </g>
          <g class="cls-83">
            <path class="cls-9" d="m42.14,22.65s0,0,0,0c0,.01.01.03.02.04,0,0,0,0,0,0,0,.01.02.03.03.04,0,0,.02.01.03.02,0,0,.02.01.03.02.03.01.05.03.08.04.01,0,.02,0,.03,0,.01,0,.03,0,.04.01.02,0,.03,0,.05,0,0,0,0,0,.01,0,.02,0,.05,0,.07,0,0,0,0,0,.01,0,.02,0,.05,0,.07,0,0,0,0,0,.01,0,.02,0,.05,0,.07-.01,0,0,0,0,.01,0,.02,0,.04-.01.06-.02,0,0,0,0,.01,0,.02,0,.04-.02.07-.03.08-.05.13-.11.13-.18v9.03c0,.06-.04.13-.12.18-.02.01-.04.02-.06.03,0,0,0,0,0,0,0,0,0,0-.01,0-.01,0-.03,0-.04.01,0,0-.01,0-.02,0,0,0,0,0-.01,0,0,0,0,0-.01,0-.01,0-.03,0-.04,0,0,0-.01,0-.02,0,0,0,0,0-.01,0,0,0-.01,0-.02,0-.01,0-.03,0-.04,0,0,0,0,0-.01,0,0,0,0,0-.01,0,0,0-.01,0-.02,0-.02,0-.03,0-.05,0,0,0,0,0,0,0,0,0,0,0-.01,0-.01,0-.02,0-.04,0,0,0-.01,0-.02,0-.01,0-.03,0-.04-.01,0,0-.02,0-.02,0,0,0,0,0,0,0-.03-.01-.06-.02-.08-.04,0,0,0,0,0,0,0,0-.01-.01-.02-.02-.01,0-.02-.01-.03-.02,0,0,0,0,0,0-.01,0-.02-.02-.03-.03,0,0,0,0,0,0,0,0,0,0,0,0,0,0,0,0,0-.01,0,0,0-.02-.01-.02,0,0,0,0,0,0,0,0,0,0,0,0,0,0,0-.01,0-.02,0,0,0-.02,0-.02,0,0,0,0,0,0v-9.03s0,.03,0,.04Z"/>
            <path class="cls-21" d="m42.26,22.43c-.17.1-.17.25,0,.35.17.1.44.1.6,0s.17-.25,0-.35-.44-.1-.6,0Z"/>
          </g>
          <g class="cls-83">
            <path class="cls-12" d="m49.31,18.15s0,0,0,0c0,.01.01.03.02.04,0,0,0,0,0,0,0,.01.02.03.03.04,0,0,.02.01.03.02,0,0,.02.01.03.02.03.01.05.03.08.04.01,0,.02,0,.03,0,.01,0,.03,0,.04.01.02,0,.03,0,.05,0,0,0,0,0,.01,0,.02,0,.05,0,.07,0,0,0,0,0,.01,0,.02,0,.05,0,.07,0,0,0,0,0,.01,0,.02,0,.05,0,.07-.01,0,0,0,0,.01,0,.02,0,.04-.01.06-.02,0,0,0,0,.01,0,.02,0,.04-.02.07-.03.08-.05.13-.11.13-.18v9.03c0,.06-.04.13-.12.18-.02.01-.04.02-.06.03,0,0,0,0,0,0,0,0,0,0-.01,0-.01,0-.03,0-.04.01,0,0-.01,0-.02,0,0,0,0,0-.01,0,0,0,0,0-.01,0-.01,0-.03,0-.04,0,0,0-.01,0-.02,0,0,0,0,0-.01,0,0,0-.01,0-.02,0-.01,0-.03,0-.04,0,0,0,0,0-.01,0,0,0,0,0-.01,0,0,0-.01,0-.02,0-.02,0-.03,0-.05,0,0,0,0,0,0,0,0,0,0,0-.01,0-.01,0-.02,0-.04,0,0,0-.01,0-.02,0-.01,0-.03,0-.04-.01,0,0-.02,0-.02,0,0,0,0,0,0,0-.03-.01-.06-.02-.08-.04,0,0,0,0,0,0,0,0-.01-.01-.02-.02-.01,0-.02-.01-.03-.02,0,0,0,0,0,0-.01,0-.02-.02-.03-.03,0,0,0,0,0,0,0,0,0,0,0,0,0,0,0,0,0-.01,0,0,0-.02-.01-.02,0,0,0,0,0,0,0,0,0,0,0,0,0,0,0-.01,0-.02,0,0,0-.02,0-.02,0,0,0,0,0,0v-9.03s0,.03,0,.04Z"/>
            <path class="cls-18" d="m49.42,17.93c-.17.1-.17.25,0,.35.17.1.44.1.6,0s.17-.25,0-.35-.44-.1-.6,0Z"/>
          </g>
          <g class="cls-83">
            <path class="cls-7" d="m57.17,15.23s0,0,0,0c0,.01.01.03.02.04,0,0,0,0,0,0,0,.01.02.03.03.04,0,0,.02.01.03.02,0,0,.02.01.03.02.03.01.05.03.08.04.01,0,.02,0,.03,0,.01,0,.03,0,.04.01.02,0,.03,0,.05,0,0,0,0,0,.01,0,.02,0,.05,0,.07,0,0,0,0,0,.01,0,.02,0,.05,0,.07,0,0,0,0,0,.01,0,.02,0,.05,0,.07-.01,0,0,0,0,.01,0,.02,0,.04-.01.06-.02,0,0,0,0,.01,0,.02,0,.04-.02.07-.03.08-.05.13-.11.13-.18v9.03c0,.06-.04.13-.12.18-.02.01-.04.02-.06.03,0,0,0,0,0,0,0,0,0,0-.01,0-.01,0-.03,0-.04.01,0,0-.01,0-.02,0,0,0,0,0-.01,0,0,0,0,0-.01,0-.01,0-.03,0-.04,0,0,0-.01,0-.02,0,0,0,0,0-.01,0,0,0-.01,0-.02,0-.01,0-.03,0-.04,0,0,0,0,0-.01,0,0,0,0,0-.01,0,0,0-.01,0-.02,0-.02,0-.03,0-.05,0,0,0,0,0,0,0,0,0,0,0-.01,0-.01,0-.02,0-.04,0,0,0-.01,0-.02,0-.01,0-.03,0-.04-.01,0,0-.02,0-.02,0,0,0,0,0,0,0-.03-.01-.06-.02-.08-.04,0,0,0,0,0,0,0,0-.01-.01-.02-.02-.01,0-.02-.01-.03-.02,0,0,0,0,0,0-.01,0-.02-.02-.03-.03,0,0,0,0,0,0,0,0,0,0,0,0,0,0,0,0,0-.01,0,0,0-.02-.01-.02,0,0,0,0,0,0,0,0,0,0,0,0,0,0,0-.01,0-.02,0,0,0-.02,0-.02,0,0,0,0,0,0v-9.03s0,.03,0,.04Z"/>
            <path class="cls-22" d="m57.29,15.01c-.17.1-.17.25,0,.35.17.1.44.1.6,0s.17-.25,0-.35-.44-.1-.6,0Z"/>
          </g>
          <g class="cls-83">
            <path class="cls-6" d="m94.02,16.06s0,0,0,0c0,.01.01.03.02.04,0,0,0,0,0,0,0,.01.02.03.03.04,0,0,.02.01.03.02,0,0,.02.01.03.02.03.01.05.03.08.04.01,0,.02,0,.03,0,.01,0,.03,0,.04.01.02,0,.03,0,.05,0,0,0,0,0,.01,0,.02,0,.05,0,.07,0,0,0,0,0,.01,0,.02,0,.05,0,.07,0,0,0,0,0,.01,0,.02,0,.05,0,.07-.01,0,0,0,0,.01,0,.02,0,.04-.01.06-.02,0,0,0,0,.01,0,.02,0,.04-.02.07-.03.08-.05.13-.11.13-.18v9.03c0,.06-.04.13-.12.18-.02.01-.04.02-.06.03,0,0,0,0,0,0,0,0,0,0-.01,0-.01,0-.03,0-.04.01,0,0-.01,0-.02,0,0,0,0,0-.01,0,0,0,0,0-.01,0-.01,0-.03,0-.04,0,0,0-.01,0-.02,0,0,0,0,0-.01,0,0,0-.01,0-.02,0-.01,0-.03,0-.04,0,0,0,0,0-.01,0,0,0,0,0-.01,0,0,0-.01,0-.02,0-.02,0-.03,0-.05,0,0,0,0,0,0,0,0,0,0,0-.01,0-.01,0-.02,0-.04,0,0,0-.01,0-.02,0-.01,0-.03,0-.04-.01,0,0-.02,0-.02,0,0,0,0,0,0,0-.03-.01-.06-.02-.08-.04,0,0,0,0,0,0,0,0-.01-.01-.02-.02-.01,0-.02-.01-.03-.02,0,0,0,0,0,0-.01,0-.02-.02-.03-.03,0,0,0,0,0,0,0,0,0,0,0,0,0,0,0,0,0-.01,0,0,0-.02-.01-.02,0,0,0,0,0,0,0,0,0,0,0,0,0,0,0-.01,0-.02,0,0,0-.02,0-.02,0,0,0,0,0,0v-9.03s0,.03,0,.04Z"/>
            <path class="cls-20" d="m94.14,15.84c-.17.1-.17.25,0,.35.17.1.44.1.6,0s.17-.25,0-.35-.44-.1-.6,0Z"/>
          </g>
          <g class="cls-83">
            <path class="cls-8" d="m102.26,19.48s0,0,0,0c0,.01.01.03.02.04,0,0,0,0,0,0,0,.01.02.03.03.04,0,0,.02.01.03.02,0,0,.02.01.03.02.03.01.05.03.08.04.01,0,.02,0,.03,0,.01,0,.03,0,.04.01.02,0,.03,0,.05,0,0,0,0,0,.01,0,.02,0,.05,0,.07,0,0,0,0,0,.01,0,.02,0,.05,0,.07,0,0,0,0,0,.01,0,.02,0,.05,0,.07-.01,0,0,0,0,.01,0,.02,0,.04-.01.06-.02,0,0,0,0,.01,0,.02,0,.04-.02.07-.03.08-.05.13-.11.13-.18v9.03c0,.06-.04.13-.12.18-.02.01-.04.02-.06.03,0,0,0,0,0,0,0,0,0,0-.01,0-.01,0-.03,0-.04.01,0,0-.01,0-.02,0,0,0,0,0-.01,0,0,0,0,0-.01,0-.01,0-.03,0-.04,0,0,0-.01,0-.02,0,0,0,0,0-.01,0,0,0-.01,0-.02,0-.01,0-.03,0-.04,0,0,0,0,0-.01,0,0,0,0,0-.01,0,0,0-.01,0-.02,0-.02,0-.03,0-.05,0,0,0,0,0,0,0,0,0,0,0-.01,0-.01,0-.02,0-.04,0,0,0-.01,0-.02,0-.01,0-.03,0-.04-.01,0,0-.02,0-.02,0,0,0,0,0,0,0-.03-.01-.06-.02-.08-.04,0,0,0,0,0,0,0,0-.01-.01-.02-.02-.01,0-.02-.01-.03-.02,0,0,0,0,0,0-.01,0-.02-.02-.03-.03,0,0,0,0,0,0,0,0,0,0,0,0,0,0,0,0,0-.01,0,0,0-.02-.01-.02,0,0,0,0,0,0,0,0,0,0,0,0,0,0,0-.01,0-.02,0,0,0-.02,0-.02,0,0,0,0,0,0v-9.03s0,.03,0,.04Z"/>
            <path class="cls-27" d="m102.38,19.26c-.17.1-.17.25,0,.35.17.1.44.1.6,0s.17-.25,0-.35-.44-.1-.6,0Z"/>
          </g>
          <g class="cls-83">
            <path class="cls-10" d="m108.73,24.43s0,0,0,0c0,.01.01.03.02.04,0,0,0,0,0,0,0,.01.02.03.03.04,0,0,.02.01.03.02,0,0,.02.01.03.02.03.01.05.03.08.04.01,0,.02,0,.03,0,.01,0,.03,0,.04.01.02,0,.03,0,.05,0,0,0,0,0,.01,0,.02,0,.05,0,.07,0,0,0,0,0,.01,0,.02,0,.05,0,.07,0,0,0,0,0,.01,0,.02,0,.05,0,.07-.01,0,0,0,0,.01,0,.02,0,.04-.01.06-.02,0,0,0,0,.01,0,.02,0,.04-.02.07-.03.08-.05.13-.11.13-.18v9.03c0,.06-.04.13-.12.18-.02.01-.04.02-.06.03,0,0,0,0,0,0,0,0,0,0-.01,0-.01,0-.03,0-.04.01,0,0-.01,0-.02,0,0,0,0,0-.01,0,0,0,0,0-.01,0-.01,0-.03,0-.04,0,0,0-.01,0-.02,0,0,0,0,0-.01,0,0,0-.01,0-.02,0-.01,0-.03,0-.04,0,0,0,0,0-.01,0,0,0,0,0-.01,0,0,0-.01,0-.02,0-.02,0-.03,0-.05,0,0,0,0,0,0,0,0,0,0,0-.01,0-.01,0-.02,0-.04,0,0,0-.01,0-.02,0-.01,0-.03,0-.04-.01,0,0-.02,0-.02,0,0,0,0,0,0,0-.03-.01-.06-.02-.08-.04,0,0,0,0,0,0,0,0-.01-.01-.02-.02-.01,0-.02-.01-.03-.02,0,0,0,0,0,0-.01,0-.02-.02-.03-.03,0,0,0,0,0,0,0,0,0,0,0,0,0,0,0,0,0-.01,0,0,0-.02-.01-.02,0,0,0,0,0,0,0,0,0,0,0,0,0,0,0-.01,0-.02,0,0,0-.02,0-.02,0,0,0,0,0,0v-9.03s0,.03,0,.04Z"/>
            <path class="cls-17" d="m108.85,24.21c-.17.1-.17.25,0,.35.17.1.44.1.6,0s.17-.25,0-.35-.44-.1-.6,0Z"/>
          </g>
          <g class="cls-83">
            <path class="cls-13" d="m36.37,42.12s0,0,0,0c0,.01.01.03.02.04,0,0,0,0,0,0,0,.01.02.03.03.04,0,0,.02.01.03.02,0,0,.02.01.03.02.03.01.05.03.08.04.01,0,.02,0,.03,0,.01,0,.03,0,.04.01.02,0,.03,0,.05,0,0,0,0,0,.01,0,.02,0,.05,0,.07,0,0,0,0,0,.01,0,.02,0,.05,0,.07,0,0,0,0,0,.01,0,.02,0,.05,0,.07-.01,0,0,0,0,.01,0,.02,0,.04-.01.06-.02,0,0,0,0,.01,0,.02,0,.04-.02.07-.03.08-.05.13-.11.13-.18v9.03c0,.06-.04.13-.12.18-.02.01-.04.02-.06.03,0,0,0,0,0,0,0,0,0,0-.01,0-.01,0-.03,0-.04.01,0,0-.01,0-.02,0,0,0,0,0-.01,0,0,0,0,0-.01,0-.01,0-.03,0-.04,0,0,0-.01,0-.02,0,0,0,0,0-.01,0,0,0-.01,0-.02,0-.01,0-.03,0-.04,0,0,0,0,0-.01,0,0,0,0,0-.01,0,0,0-.01,0-.02,0-.02,0-.03,0-.05,0,0,0,0,0,0,0,0,0,0,0-.01,0-.01,0-.02,0-.04,0,0,0-.01,0-.02,0-.01,0-.03,0-.04-.01,0,0-.02,0-.02,0,0,0,0,0,0,0-.03-.01-.06-.02-.08-.04,0,0,0,0,0,0,0,0-.01-.01-.02-.02-.01,0-.02-.01-.03-.02,0,0,0,0,0,0-.01,0-.02-.02-.03-.03,0,0,0,0,0,0,0,0,0,0,0,0,0,0,0,0,0-.01,0,0,0-.02-.01-.02,0,0,0,0,0,0,0,0,0,0,0,0,0,0,0-.01,0-.02,0,0,0-.02,0-.02,0,0,0,0,0,0v-9.03s0,.03,0,.04Z"/>
            <path class="cls-19" d="m36.49,41.9c-.17.1-.17.25,0,.35.17.1.44.1.6,0s.17-.25,0-.35-.44-.1-.6,0Z"/>
          </g>
          <g class="cls-83">
            <path class="cls-15" d="m103.39,61.55c-15.55,9.04-40.94,9.03-56.58,0-7.88-4.55-11.81-10.53-11.79-16.5v.63c-.02,5.97,3.92,11.95,11.79,16.5,15.64,9.03,41.03,9.04,56.58,0,7.72-4.49,11.59-10.37,11.6-16.27v-.63c-.01,5.9-3.88,11.78-11.6,16.27Z"/>
            <path class="cls-51" d="m102.66,29.09c-15.35-8.86-40.25-8.86-55.5,0-7.58,4.4-11.37,10.18-11.38,15.96v.63c.01-5.78,3.81-11.56,11.38-15.96,15.25-8.86,40.15-8.86,55.5,0,7.72,4.46,11.58,10.33,11.56,16.19v-.63c.02-5.86-3.84-11.73-11.56-16.19Z"/>
            <path class="cls-26" d="m103.2,28.78c-15.65-9.04-41.04-9.03-56.58,0-15.55,9.04-15.47,23.74.18,32.77,15.64,9.03,41.03,9.04,56.58,0,15.54-9.03,15.46-23.74-.18-32.77Zm-.36,32.46c-15.25,8.86-40.15,8.86-55.5,0-15.35-8.86-15.43-23.29-.18-32.15,15.25-8.86,40.15-8.86,55.5,0,15.35,8.86,15.43,23.29.18,32.15Z"/>
          </g>
          <g class="cls-83">
            <path class="cls-14" d="m103.39,54.89c-15.55,9.04-40.94,9.03-56.58,0-7.88-4.55-11.81-10.53-11.79-16.5v.63c-.02,5.97,3.92,11.95,11.79,16.5,15.64,9.03,41.03,9.04,56.58,0,7.72-4.49,11.59-10.37,11.6-16.27v-.63c-.01,5.9-3.88,11.78-11.6,16.27Z"/>
            <path class="cls-53" d="m102.66,22.43c-15.35-8.86-40.25-8.86-55.5,0-7.58,4.4-11.37,10.18-11.38,15.96v.63c.01-5.78,3.81-11.56,11.38-15.96,15.25-8.86,40.15-8.86,55.5,0,7.72,4.46,11.58,10.33,11.56,16.19v-.63c.02-5.86-3.84-11.73-11.56-16.19Z"/>
            <path class="cls-24" d="m103.2,22.12c-15.65-9.04-41.04-9.03-56.58,0-15.55,9.04-15.47,23.74.18,32.77,15.64,9.03,41.03,9.04,56.58,0,15.54-9.03,15.46-23.74-.18-32.77Zm-.36,32.46c-15.25,8.86-40.15,8.86-55.5,0-15.35-8.86-15.43-23.29-.18-32.15,15.25-8.86,40.15-8.86,55.5,0,15.35,8.86,15.43,23.29.18,32.15Z"/>
          </g>
          <g class="cls-83">
            <path class="cls-16" d="m103.39,51.66c-15.55,9.04-40.94,9.03-56.58,0-7.88-4.55-11.81-10.53-11.79-16.5v.63c-.02,5.97,3.92,11.95,11.79,16.5,15.64,9.03,41.03,9.04,56.58,0,7.72-4.49,11.59-10.37,11.6-16.27v-.63c-.01,5.9-3.88,11.78-11.6,16.27Z"/>
            <path class="cls-54" d="m102.66,19.2c-15.35-8.86-40.25-8.86-55.5,0-7.58,4.4-11.37,10.18-11.38,15.96v.63c.01-5.78,3.81-11.56,11.38-15.96,15.25-8.86,40.15-8.86,55.5,0,7.72,4.46,11.58,10.33,11.56,16.19v-.63c.02-5.86-3.84-11.73-11.56-16.19Z"/>
            <path class="cls-25" d="m103.2,18.88c-15.65-9.04-41.04-9.03-56.58,0-15.55,9.04-15.47,23.74.18,32.77,15.64,9.03,41.03,9.04,56.58,0,15.54-9.03,15.46-23.74-.18-32.77Zm-.36,32.46c-15.25,8.86-40.15,8.86-55.5,0-15.35-8.86-15.43-23.29-.18-32.15,15.25-8.86,40.15-8.86,55.5,0,15.35,8.86,15.43,23.29.18,32.15Z"/>
          </g>
        </g>
        <g class="cls-83">
          <path class="cls-4" d="m85.29,13.85l-.04,13.67c0,1.51-1,3.02-2.99,4.18-4,2.32-10.5,2.32-14.53,0-2.03-1.17-3.04-2.71-3.03-4.24l.04-13.67c0,1.53,1.01,3.07,3.03,4.24,4.02,2.32,10.53,2.33,14.53,0,1.99-1.16,2.98-2.67,2.99-4.18Z"/>
          <path class="cls-3" d="m82.26,9.61c4.02,2.32,4.05,6.09.05,8.42-4,2.32-10.5,2.32-14.53,0s-4.05-6.09-.05-8.41,10.51-2.32,14.53,0Z"/>
        </g>
        <g>
          <g class="cls-83">
            <polygon class="cls-57" points="38.14 50.97 38.14 50.39 35.86 51.71 36.03 137.09 36.53 136.8 36.36 51.99 38.14 50.97"/>
            <polygon class="cls-59" points="35.86 51.71 35.69 51.61 35.86 137 36.03 137.09 35.86 51.71"/>
            <polygon class="cls-58" points="37.97 50.29 35.69 51.61 35.86 51.71 38.14 50.39 37.97 50.29"/>
          </g>
          <line class="cls-73" x1="36.17" y1="56.94" x2="41.33" y2="59.92"/>
          <line class="cls-76" x1="36.17" y1="60.99" x2="41.33" y2="63.97"/>
          <line class="cls-75" x1="36.17" y1="65.05" x2="41.33" y2="68.03"/>
          <line class="cls-80" x1="36.17" y1="69.1" x2="41.33" y2="72.08"/>
          <line class="cls-81" x1="36.17" y1="73.15" x2="41.33" y2="76.13"/>
          <line class="cls-74" x1="36.17" y1="77.2" x2="41.33" y2="80.18"/>
          <line class="cls-77" x1="36.17" y1="81.26" x2="41.33" y2="84.24"/>
          <line class="cls-78" x1="36.17" y1="85.31" x2="41.33" y2="88.29"/>
          <line class="cls-79" x1="36.17" y1="89.36" x2="41.33" y2="92.34"/>
          <line class="cls-69" x1="36.17" y1="93.41" x2="41.33" y2="96.39"/>
          <line class="cls-70" x1="36.17" y1="97.47" x2="41.33" y2="100.45"/>
          <line class="cls-68" x1="36.17" y1="101.52" x2="41.33" y2="104.5"/>
          <line class="cls-66" x1="36.17" y1="105.57" x2="41.33" y2="108.55"/>
          <line class="cls-67" x1="36.17" y1="109.62" x2="41.33" y2="112.6"/>
          <line class="cls-72" x1="36.17" y1="113.68" x2="41.33" y2="116.65"/>
          <line class="cls-71" x1="36.17" y1="117.73" x2="41.33" y2="120.71"/>
          <line class="cls-63" x1="36.17" y1="121.78" x2="41.33" y2="124.76"/>
          <line class="cls-64" x1="36.17" y1="125.83" x2="41.33" y2="128.81"/>
          <line class="cls-65" x1="36.17" y1="129.88" x2="41.33" y2="132.86"/>
          <line class="cls-62" x1="36.17" y1="133.94" x2="41.33" y2="136.92"/>
          <g class="cls-83">
            <polygon class="cls-57" points="43.41 53.01 43.41 52.44 41.13 53.75 41.3 139.14 41.8 138.85 41.63 54.04 43.41 53.01"/>
            <polygon class="cls-59" points="41.13 53.75 40.96 53.65 41.13 139.04 41.3 139.14 41.13 53.75"/>
            <polygon class="cls-58" points="43.24 52.34 40.96 53.65 41.13 53.75 43.41 52.44 43.24 52.34"/>
          </g>
        </g>
      </g>
     
    </g>
  </g>
</svg>