<?xml version="1.0" encoding="UTF-8"?>
<svg id="_图层_2" data-name="图层 2" xmlns="http://www.w3.org/2000/svg" xmlns:xlink="http://www.w3.org/1999/xlink" viewBox="0 0 150.06 150">
  <defs>
    <style>
      .cls-1 {
        fill: url(#_未命名的渐变_13);
      }

      .cls-1, .cls-2, .cls-3, .cls-4, .cls-5, .cls-6, .cls-7, .cls-8, .cls-9, .cls-10, .cls-11, .cls-12, .cls-13, .cls-14, .cls-15, .cls-16, .cls-17, .cls-18, .cls-19, .cls-20, .cls-21, .cls-22, .cls-23, .cls-24, .cls-25, .cls-26, .cls-27, .cls-28, .cls-29, .cls-30, .cls-31, .cls-32, .cls-33, .cls-34, .cls-35, .cls-36 {
        stroke-width: 0px;
      }

      .cls-2 {
        fill: url(#_未命名的渐变_10);
      }

      .cls-3 {
        fill: url(#_未命名的渐变_21);
      }

      .cls-4 {
        fill: url(#_未命名的渐变_25);
      }

      .cls-5 {
        fill: url(#_未命名的渐变_85);
      }

      .cls-6 {
        fill: url(#_未命名的渐变_83);
      }

      .cls-7 {
        fill: url(#_未命名的渐变_86);
      }

      .cls-37 {
        filter: url(#outer-glow-10);
      }

      .cls-37, .cls-38, .cls-39, .cls-40, .cls-41, .cls-42, .cls-43, .cls-44, .cls-45, .cls-46, .cls-47, .cls-48, .cls-49 {
        stroke-miterlimit: 10;
        stroke-width: .1px;
      }

      .cls-37, .cls-38, .cls-39, .cls-41, .cls-42, .cls-43, .cls-44, .cls-45, .cls-46, .cls-47, .cls-48, .cls-49 {
        fill: #9ef;
        stroke: #008dff;
      }

      .cls-38 {
        filter: url(#outer-glow-11);
      }

      .cls-39 {
        filter: url(#outer-glow-12);
      }

      .cls-8, .cls-40 {
        fill: none;
      }

      .cls-9 {
        fill: url(#_未命名的渐变_1827-2);
      }

      .cls-40 {
        stroke: #fff;
      }

      .cls-41 {
        filter: url(#outer-glow-4);
      }

      .cls-42 {
        filter: url(#outer-glow-1);
      }

      .cls-43 {
        filter: url(#outer-glow-3);
      }

      .cls-44 {
        filter: url(#outer-glow-5);
      }

      .cls-45 {
        filter: url(#outer-glow-8);
      }

      .cls-46 {
        filter: url(#outer-glow-2);
      }

      .cls-47 {
        filter: url(#outer-glow-9);
      }

      .cls-48 {
        filter: url(#outer-glow-7);
      }

      .cls-49 {
        filter: url(#outer-glow-6);
      }

      .cls-10 {
        fill: url(#_未命名的渐变_86-4);
      }

      .cls-11 {
        fill: url(#_未命名的渐变_86-3);
      }

      .cls-12 {
        fill: url(#_未命名的渐变_86-2);
      }

      .cls-13 {
        fill: url(#_未命名的渐变_83-4);
      }

      .cls-14 {
        fill: url(#_未命名的渐变_83-3);
      }

      .cls-15 {
        fill: url(#_未命名的渐变_83-2);
      }

      .cls-16 {
        fill: url(#_未命名的渐变_85-5);
      }

      .cls-17 {
        fill: url(#_未命名的渐变_85-4);
      }

      .cls-18 {
        fill: url(#_未命名的渐变_85-3);
      }

      .cls-19 {
        fill: url(#_未命名的渐变_85-2);
      }

      .cls-20 {
        fill: url(#_未命名的渐变_10-2);
      }

      .cls-21 {
        fill: url(#_未命名的渐变_13-2);
      }

      .cls-22 {
        fill: url(#_未命名的渐变_1827);
      }

      .cls-23 {
        fill: url(#_未命名的渐变_21-5);
      }

      .cls-24 {
        fill: url(#_未命名的渐变_21-6);
      }

      .cls-25 {
        fill: url(#_未命名的渐变_21-2);
      }

      .cls-26 {
        fill: url(#_未命名的渐变_21-3);
      }

      .cls-27 {
        fill: url(#_未命名的渐变_21-4);
      }

      .cls-28 {
        fill: url(#_未命名的渐变_25-2);
      }

      .cls-29 {
        fill: url(#_未命名的渐变_25-3);
      }

      .cls-30 {
        fill: url(#_新建图案);
        opacity: .1;
      }

      .cls-50 {
        mix-blend-mode: soft-light;
      }

      .cls-51 {
        opacity: .2;
      }

      .cls-31 {
        fill: url(#_未命名的渐变_8);
      }

      .cls-52 {
        isolation: isolate;
      }

      .cls-53 {
        mix-blend-mode: multiply;
        opacity: .45;
      }

      .cls-54 {
        opacity: 0;
      }

      .cls-33 {
        fill: #7696cb;
      }

      .cls-34 {
        fill: #171d23;
      }

      .cls-35 {
        fill: #e6f1ff;
      }

      .cls-36 {
        fill: #000715;
      }
    </style>
    <pattern id="_新建图案" data-name="新建图案" x="0" y="0" width="18.57" height="32.16" patternTransform="translate(3587.48 1370.69)" patternUnits="userSpaceOnUse" viewBox="0 0 18.57 32.16">
      <g>
        <rect class="cls-8" x="0" y="0" width="18.57" height="32.16"/>
        <g>
          <g>
            <polyline class="cls-40" points="18.57 21.44 18.57 32.16 18.57 42.88"/>
            <polyline class="cls-40" points="9.29 26.8 18.57 32.16 27.85 37.51 27.85 37.52"/>
            <polyline class="cls-40" points="9.29 37.52 9.29 37.51 18.57 32.16 27.85 26.8"/>
          </g>
          <polygon class="cls-40" points="27.85 37.52 27.85 26.8 18.57 21.44 9.28 26.8 9.28 37.52 18.57 42.88 27.85 37.52"/>
        </g>
        <g>
          <g>
            <polyline class="cls-40" points="0 21.44 0 32.16 0 42.88"/>
            <polyline class="cls-40" points="-9.28 26.8 0 32.16 9.28 37.51 9.28 37.52"/>
            <polyline class="cls-40" points="-9.28 37.52 -9.28 37.51 0 32.16 9.28 26.8"/>
          </g>
          <polygon class="cls-40" points="9.28 37.52 9.28 26.8 0 21.44 -9.28 26.8 -9.28 37.52 0 42.88 9.28 37.52"/>
        </g>
        <g>
          <g>
            <polyline class="cls-40" points="18.57 10.72 27.85 16.08 37.13 21.43 37.13 21.44"/>
            <polyline class="cls-40" points="18.57 21.44 18.57 21.43 27.85 16.08 37.13 10.72"/>
          </g>
          <polygon class="cls-40" points="37.14 21.44 37.14 10.72 27.85 5.36 18.57 10.72 18.57 21.44 27.85 26.8 37.14 21.44"/>
        </g>
        <g>
          <g>
            <polyline class="cls-40" points="9.28 5.36 9.28 16.08 9.28 26.8"/>
            <polyline class="cls-40" points="0 10.72 9.28 16.08 18.56 21.43 18.56 21.44"/>
            <polyline class="cls-40" points="0 21.44 0 21.43 9.28 16.08 18.56 10.72"/>
          </g>
          <polygon class="cls-40" points="18.57 21.44 18.57 10.72 9.28 5.36 0 10.72 0 21.44 9.28 26.8 18.57 21.44"/>
        </g>
        <g>
          <g>
            <polyline class="cls-40" points="-18.56 10.72 -9.28 16.08 0 21.43 0 21.44"/>
            <polyline class="cls-40" points="-18.56 21.44 -18.56 21.43 -9.28 16.08 0 10.72"/>
          </g>
          <polygon class="cls-40" points="0 21.44 0 10.72 -9.28 5.36 -18.57 10.72 -18.57 21.44 -9.28 26.8 0 21.44"/>
        </g>
        <g>
          <g>
            <polyline class="cls-40" points="18.57 -10.72 18.57 0 18.57 10.72"/>
            <polyline class="cls-40" points="9.29 -5.36 18.57 0 27.85 5.35 27.85 5.36"/>
            <polyline class="cls-40" points="9.29 5.36 9.29 5.35 18.57 0 27.85 -5.36"/>
          </g>
          <polygon class="cls-40" points="27.85 5.36 27.85 -5.36 18.57 -10.72 9.28 -5.36 9.28 5.36 18.57 10.72 27.85 5.36"/>
        </g>
        <g>
          <g>
            <polyline class="cls-40" points="0 -10.72 0 0 0 10.72"/>
            <polyline class="cls-40" points="-9.28 -5.36 0 0 9.28 5.35 9.28 5.36"/>
            <polyline class="cls-40" points="-9.28 5.36 -9.28 5.35 0 0 9.28 -5.36"/>
          </g>
          <polygon class="cls-40" points="9.28 5.36 9.28 -5.36 0 -10.72 -9.28 -5.36 -9.28 5.36 0 10.72 9.28 5.36"/>
        </g>
      </g>
    </pattern>
    <linearGradient id="_未命名的渐变_85" data-name="未命名的渐变 85" x1=".04" y1="72.01" x2=".84" y2="72.01" gradientUnits="userSpaceOnUse">
      <stop offset="0" stop-color="#b0bdcd"/>
      <stop offset="1" stop-color="#d1d9e6"/>
    </linearGradient>
    <linearGradient id="_未命名的渐变_83" data-name="未命名的渐变 83" x1=".82" y1="56.54" x2="54.86" y2="56.54" gradientUnits="userSpaceOnUse">
      <stop offset="0" stop-color="#9dadc0"/>
      <stop offset="1" stop-color="#7c89a8"/>
    </linearGradient>
    <linearGradient id="_未命名的渐变_86" data-name="未命名的渐变 86" x1=".06" y1="52.05" x2="54.86" y2="52.05" gradientUnits="userSpaceOnUse">
      <stop offset="0" stop-color="#f8faff"/>
      <stop offset="1" stop-color="#e2e8f0"/>
    </linearGradient>
    <linearGradient id="_未命名的渐变_85-2" data-name="未命名的渐变 85" x1="0" y1="99.3" x2="95.81" y2="99.3" xlink:href="#_未命名的渐变_85"/>
    <linearGradient id="_未命名的渐变_83-2" data-name="未命名的渐变 83" x1="95.86" y1="126.81" x2="96.66" y2="126.81" xlink:href="#_未命名的渐变_83"/>
    <linearGradient id="_未命名的渐变_86-2" data-name="未命名的渐变 86" x1=".1" y1="94.89" x2="96.66" y2="94.89" xlink:href="#_未命名的渐变_86"/>
    <linearGradient id="_未命名的渐变_85-3" data-name="未命名的渐变 85" x1="54.17" y1="69" x2="149.98" y2="69" xlink:href="#_未命名的渐变_85"/>
    <linearGradient id="_未命名的渐变_83-3" data-name="未命名的渐变 83" x1="149.27" y1="96.05" x2="150.06" y2="96.05" xlink:href="#_未命名的渐变_83"/>
    <linearGradient id="_未命名的渐变_86-3" data-name="未命名的渐变 86" x1="53.5" y1="64.13" x2="150.06" y2="64.13" xlink:href="#_未命名的渐变_86"/>
    <linearGradient id="_未命名的渐变_1827" data-name="未命名的渐变 1827" x1="96.56" y1="82.06" x2="96.56" y2="25.87" gradientUnits="userSpaceOnUse">
      <stop offset="0" stop-color="#3e5268"/>
      <stop offset="1" stop-color="#556b8e"/>
    </linearGradient>
    <linearGradient id="_未命名的渐变_10" data-name="未命名的渐变 10" x1="115.01" y1="34.49" x2="115.01" y2="82.06" gradientUnits="userSpaceOnUse">
      <stop offset="0" stop-color="#263141"/>
      <stop offset="1" stop-color="#11161a"/>
    </linearGradient>
    <linearGradient id="_未命名的渐变_13" data-name="未命名的渐变 13" x1="83.71" y1="30.18" x2="120.33" y2="30.18" gradientUnits="userSpaceOnUse">
      <stop offset="0" stop-color="#81aaea"/>
      <stop offset="1" stop-color="#4d709c"/>
    </linearGradient>
    <filter id="outer-glow-1" filterUnits="userSpaceOnUse">
      <feOffset dx="0" dy="0"/>
      <feGaussianBlur result="blur" stdDeviation="2"/>
      <feFlood flood-color="#008dff" flood-opacity="1"/>
      <feComposite in2="blur" operator="in"/>
      <feComposite in="SourceGraphic"/>
    </filter>
    <filter id="outer-glow-2" filterUnits="userSpaceOnUse">
      <feOffset dx="0" dy="0"/>
      <feGaussianBlur result="blur-2" stdDeviation="2"/>
      <feFlood flood-color="#008dff" flood-opacity="1"/>
      <feComposite in2="blur-2" operator="in"/>
      <feComposite in="SourceGraphic"/>
    </filter>
    <filter id="outer-glow-3" filterUnits="userSpaceOnUse">
      <feOffset dx="0" dy="0"/>
      <feGaussianBlur result="blur-3" stdDeviation="2"/>
      <feFlood flood-color="#008dff" flood-opacity="1"/>
      <feComposite in2="blur-3" operator="in"/>
      <feComposite in="SourceGraphic"/>
    </filter>
    <filter id="outer-glow-4" filterUnits="userSpaceOnUse">
      <feOffset dx="0" dy="0"/>
      <feGaussianBlur result="blur-4" stdDeviation="2"/>
      <feFlood flood-color="#008dff" flood-opacity="1"/>
      <feComposite in2="blur-4" operator="in"/>
      <feComposite in="SourceGraphic"/>
    </filter>
    <filter id="outer-glow-5" filterUnits="userSpaceOnUse">
      <feOffset dx="0" dy="0"/>
      <feGaussianBlur result="blur-5" stdDeviation="2"/>
      <feFlood flood-color="#008dff" flood-opacity="1"/>
      <feComposite in2="blur-5" operator="in"/>
      <feComposite in="SourceGraphic"/>
    </filter>
    <filter id="outer-glow-6" filterUnits="userSpaceOnUse">
      <feOffset dx="0" dy="0"/>
      <feGaussianBlur result="blur-6" stdDeviation="2"/>
      <feFlood flood-color="#008dff" flood-opacity="1"/>
      <feComposite in2="blur-6" operator="in"/>
      <feComposite in="SourceGraphic"/>
    </filter>
    <filter id="outer-glow-7" filterUnits="userSpaceOnUse">
      <feOffset dx="0" dy="0"/>
      <feGaussianBlur result="blur-7" stdDeviation="2"/>
      <feFlood flood-color="#008dff" flood-opacity="1"/>
      <feComposite in2="blur-7" operator="in"/>
      <feComposite in="SourceGraphic"/>
    </filter>
    <filter id="outer-glow-8" filterUnits="userSpaceOnUse">
      <feOffset dx="0" dy="0"/>
      <feGaussianBlur result="blur-8" stdDeviation="2"/>
      <feFlood flood-color="#008dff" flood-opacity="1"/>
      <feComposite in2="blur-8" operator="in"/>
      <feComposite in="SourceGraphic"/>
    </filter>
    <filter id="outer-glow-9" filterUnits="userSpaceOnUse">
      <feOffset dx="0" dy="0"/>
      <feGaussianBlur result="blur-9" stdDeviation="2"/>
      <feFlood flood-color="#008dff" flood-opacity="1"/>
      <feComposite in2="blur-9" operator="in"/>
      <feComposite in="SourceGraphic"/>
    </filter>
    <filter id="outer-glow-10" filterUnits="userSpaceOnUse">
      <feOffset dx="0" dy="0"/>
      <feGaussianBlur result="blur-10" stdDeviation="2"/>
      <feFlood flood-color="#008dff" flood-opacity="1"/>
      <feComposite in2="blur-10" operator="in"/>
      <feComposite in="SourceGraphic"/>
    </filter>
    <filter id="outer-glow-11" filterUnits="userSpaceOnUse">
      <feOffset dx="0" dy="0"/>
      <feGaussianBlur result="blur-11" stdDeviation="2"/>
      <feFlood flood-color="#008dff" flood-opacity="1"/>
      <feComposite in2="blur-11" operator="in"/>
      <feComposite in="SourceGraphic"/>
    </filter>
    <filter id="outer-glow-12" filterUnits="userSpaceOnUse">
      <feOffset dx="0" dy="0"/>
      <feGaussianBlur result="blur-12" stdDeviation="2"/>
      <feFlood flood-color="#008dff" flood-opacity="1"/>
      <feComposite in2="blur-12" operator="in"/>
      <feComposite in="SourceGraphic"/>
    </filter>
    <radialGradient id="_未命名的渐变_25" data-name="未命名的渐变 25" cx="89.36" cy="56.67" fx="89.36" fy="56.67" r="6.76" gradientUnits="userSpaceOnUse">
      <stop offset="0" stop-color="#151e26"/>
      <stop offset=".51" stop-color="#35455a"/>
    </radialGradient>
    <radialGradient id="_未命名的渐变_25-2" data-name="未命名的渐变 25" cx="95.47" cy="60.11" fx="95.47" fy="60.11" r="6.76" xlink:href="#_未命名的渐变_25"/>
    <radialGradient id="_未命名的渐变_25-3" data-name="未命名的渐变 25" cx="101.81" cy="63.47" fx="101.81" fy="63.47" xlink:href="#_未命名的渐变_25"/>
    <linearGradient id="_未命名的渐变_13-2" data-name="未命名的渐变 13" x1="82.86" y1="29.55" x2="121.08" y2="29.55" xlink:href="#_未命名的渐变_13"/>
    <linearGradient id="_未命名的渐变_1827-2" data-name="未命名的渐变 1827" x1="96.18" y1="41.05" x2="96.18" y2="25.22" xlink:href="#_未命名的渐变_1827"/>
    <linearGradient id="_未命名的渐变_10-2" data-name="未命名的渐变 10" x1="115.29" y1="33.88" x2="115.29" y2="41.05" xlink:href="#_未命名的渐变_10"/>
    <linearGradient id="_未命名的渐变_85-4" data-name="未命名的渐变 85" x1="95.18" y1="127.02" x2="95.98" y2="127.02" xlink:href="#_未命名的渐变_85"/>
    <linearGradient id="_未命名的渐变_83-4" data-name="未命名的渐变 83" x1="95.95" y1="111.54" x2="150" y2="111.54" xlink:href="#_未命名的渐变_83"/>
    <linearGradient id="_未命名的渐变_86-4" data-name="未命名的渐变 86" x1="95.2" y1="107.05" x2="150" y2="107.05" xlink:href="#_未命名的渐变_86"/>
    <linearGradient id="_未命名的渐变_21" data-name="未命名的渐变 21" x1="91.53" y1="60.64" x2="81.79" y2="66.26" gradientUnits="userSpaceOnUse">
      <stop offset="0" stop-color="#35455c"/>
      <stop offset=".15" stop-color="#7497d0"/>
      <stop offset=".25" stop-color="#7497d0"/>
      <stop offset=".9" stop-color="#11161a"/>
      <stop offset="1" stop-color="#263141"/>
    </linearGradient>
    <linearGradient id="_未命名的渐变_21-2" data-name="未命名的渐变 21" x1="90.47" y1="65.57" x2="94.83" y2="68.08" xlink:href="#_未命名的渐变_21"/>
    <linearGradient id="_未命名的渐变_21-3" data-name="未命名的渐变 21" x1="85.81" y1="63.2" x2="90.17" y2="65.71" xlink:href="#_未命名的渐变_21"/>
    <linearGradient id="_未命名的渐变_85-5" data-name="未命名的渐变 85" x1="6.09" y1="81.75" x2="144.83" y2="81.75" xlink:href="#_未命名的渐变_85"/>
    <linearGradient id="_未命名的渐变_21-4" data-name="未命名的渐变 21" x1="91.96" y1="66.48" x2="96.32" y2="69" xlink:href="#_未命名的渐变_21"/>
    <linearGradient id="_未命名的渐变_21-5" data-name="未命名的渐变 21" x1="97.04" y1="69" x2="101.4" y2="71.52" xlink:href="#_未命名的渐变_21"/>
    <linearGradient id="_未命名的渐变_21-6" data-name="未命名的渐变 21" x1="98.53" y1="69.92" x2="102.89" y2="72.44" xlink:href="#_未命名的渐变_21"/>
    <linearGradient id="_未命名的渐变_8" data-name="未命名的渐变 8" x1="7.02" y1="80.16" x2="145.75" y2="80.16" gradientUnits="userSpaceOnUse">
      <stop offset="0" stop-color="#6fe3ff" stop-opacity=".6"/>
      <stop offset=".95" stop-color="#05b8ff" stop-opacity=".4"/>
      <stop offset="1" stop-color="#00b6ff" stop-opacity="0"/>
    </linearGradient>
  </defs>
  <g id="_图层_1-2" data-name="图层 1">
    <g id="_循环水泵房" data-name="循环水泵房">
      <g id="_背景" data-name="背景" class="cls-54">
        <rect class="cls-36" x=".03" width="150" height="150"/>
        <rect id="_网格" data-name="网格" class="cls-30" x=".03" width="150" height="150"/>
      </g>
      <g>
        <g class="cls-52">
          <polygon class="cls-5" points=".84 67.97 .82 76.5 .04 76.05 .06 67.52 .84 67.97"/>
          <polygon class="cls-6" points=".84 67.97 .82 76.5 54.84 45.11 54.86 36.58 .84 67.97"/>
          <polygon class="cls-7" points=".06 67.52 54.09 36.13 54.86 36.58 .84 67.97 .06 67.52"/>
        </g>
        <g>
          <polygon class="cls-19" points="95.81 122.69 95.79 131.22 0 75.92 .02 67.39 95.81 122.69"/>
          <polygon class="cls-15" points="95.89 122.77 96.66 122.32 96.64 130.85 95.86 131.3 95.89 122.77"/>
          <polygon class="cls-12" points=".1 67.46 .87 67.02 96.66 122.32 95.89 122.77 .1 67.46"/>
        </g>
        <g>
          <polygon class="cls-18" points="149.98 92.39 149.95 100.92 54.17 45.62 54.19 37.08 149.98 92.39"/>
          <polygon class="cls-14" points="149.29 92 150.06 91.56 150.04 100.09 149.27 100.54 149.29 92"/>
          <polygon class="cls-11" points="53.5 36.7 54.27 36.25 150.06 91.56 149.29 92 53.5 36.7"/>
        </g>
        <polygon class="cls-22" points="109.52 40.77 109.41 82.06 83.59 67.15 83.71 25.87 109.52 40.77"/>
        <polygon class="cls-2" points="109.52 40.77 120.33 34.49 120.61 74.34 117.86 72.71 109.41 82.06 109.52 40.77"/>
        <polygon class="cls-1" points="83.71 25.87 94.52 19.59 120.33 34.49 109.52 40.77 83.71 25.87"/>
        <g>
          <g>
            <g class="cls-52">
              <polygon class="cls-32" points="92.64 35.2 92.64 36.18 89.88 34.59 89.89 33.61 92.64 35.2"/>
              <polygon class="cls-33" points="92.64 36.18 92.64 36.61 89.52 34.8 89.88 34.59 92.64 36.18"/>
              <polygon class="cls-34" points="89.89 33.61 89.88 34.59 89.52 34.8 89.52 33.4 89.89 33.61"/>
              <polygon class="cls-42" points="89.89 33.61 89.88 34.59 92.64 36.18 92.64 35.2 89.89 33.61"/>
            </g>
            <g class="cls-52">
              <polygon class="cls-32" points="96.03 37.2 96.02 38.18 93.27 36.59 93.27 35.61 96.03 37.2"/>
              <polygon class="cls-33" points="96.02 38.18 96.02 38.61 92.9 36.8 93.27 36.59 96.02 38.18"/>
              <polygon class="cls-34" points="93.27 35.61 93.27 36.59 92.9 36.8 92.91 35.4 93.27 35.61"/>
              <polygon class="cls-46" points="93.27 35.61 93.27 36.59 96.02 38.18 96.03 37.2 93.27 35.61"/>
            </g>
            <g class="cls-52">
              <polygon class="cls-32" points="99.41 39.14 99.41 40.12 96.65 38.53 96.66 37.55 99.41 39.14"/>
              <polygon class="cls-33" points="99.41 40.12 99.41 40.55 96.29 38.74 96.65 38.53 99.41 40.12"/>
              <polygon class="cls-34" points="96.66 37.55 96.65 38.53 96.29 38.74 96.29 37.34 96.66 37.55"/>
              <polygon class="cls-43" points="96.66 37.55 96.65 38.53 99.41 40.12 99.41 39.14 96.66 37.55"/>
            </g>
            <g class="cls-52">
              <polygon class="cls-32" points="102.8 41.14 102.79 42.12 100.04 40.53 100.04 39.55 102.8 41.14"/>
              <polygon class="cls-33" points="102.79 42.12 102.79 42.54 99.67 40.74 100.04 40.53 102.79 42.12"/>
              <polygon class="cls-34" points="100.04 39.55 100.04 40.53 99.67 40.74 99.68 39.34 100.04 39.55"/>
              <polygon class="cls-41" points="100.04 39.55 100.04 40.53 102.79 42.12 102.8 41.14 100.04 39.55"/>
            </g>
          </g>
          <g>
            <g class="cls-52">
              <polygon class="cls-32" points="92.64 37.66 92.64 39.89 89.88 38.3 89.89 36.07 92.64 37.66"/>
              <polygon class="cls-33" points="92.64 39.89 92.64 40.32 89.52 38.51 89.88 38.3 92.64 39.89"/>
              <polygon class="cls-34" points="89.89 36.07 89.88 38.3 89.52 38.51 89.52 35.86 89.89 36.07"/>
              <polygon class="cls-44" points="89.89 36.07 89.88 38.3 92.64 39.89 92.64 37.66 89.89 36.07"/>
            </g>
            <g class="cls-52">
              <polygon class="cls-32" points="96.03 39.66 96.02 41.89 93.27 40.3 93.27 38.07 96.03 39.66"/>
              <polygon class="cls-33" points="96.02 41.89 96.02 42.32 92.9 40.51 93.27 40.3 96.02 41.89"/>
              <polygon class="cls-34" points="93.27 38.07 93.27 40.3 92.9 40.51 92.91 37.86 93.27 38.07"/>
              <polygon class="cls-49" points="93.27 38.07 93.27 40.3 96.02 41.89 96.03 39.66 93.27 38.07"/>
            </g>
            <g class="cls-52">
              <polygon class="cls-32" points="99.41 41.6 99.41 43.83 96.65 42.24 96.66 40.01 99.41 41.6"/>
              <polygon class="cls-33" points="99.41 43.83 99.41 44.26 96.29 42.45 96.65 42.24 99.41 43.83"/>
              <polygon class="cls-34" points="96.66 40.01 96.65 42.24 96.29 42.45 96.29 39.8 96.66 40.01"/>
              <polygon class="cls-48" points="96.66 40.01 96.65 42.24 99.41 43.83 99.41 41.6 96.66 40.01"/>
            </g>
            <g class="cls-52">
              <polygon class="cls-32" points="102.8 43.6 102.79 45.83 100.04 44.24 100.04 42.01 102.8 43.6"/>
              <polygon class="cls-33" points="102.79 45.83 102.79 46.25 99.67 44.45 100.04 44.24 102.79 45.83"/>
              <polygon class="cls-34" points="100.04 42.01 100.04 44.24 99.67 44.45 99.68 41.8 100.04 42.01"/>
              <polygon class="cls-45" points="100.04 42.01 100.04 44.24 102.79 45.83 102.8 43.6 100.04 42.01"/>
            </g>
          </g>
        </g>
        <g>
          <g>
            <g class="cls-52">
              <polygon class="cls-32" points="108.02 32.55 108.02 33.53 105.26 31.94 105.27 30.97 108.02 32.55"/>
              <polygon class="cls-33" points="108.02 33.53 108.02 33.96 104.89 32.16 105.26 31.94 108.02 33.53"/>
              <polygon class="cls-34" points="105.27 30.97 105.26 31.94 104.89 32.16 104.9 30.75 105.27 30.97"/>
              <polygon class="cls-47" points="105.27 30.97 105.26 31.94 108.02 33.53 108.02 32.55 105.27 30.97"/>
            </g>
            <g class="cls-52">
              <polygon class="cls-32" points="111.4 34.55 111.4 35.53 108.65 33.94 108.65 32.96 111.4 34.55"/>
              <polygon class="cls-33" points="111.4 35.53 111.4 35.96 108.28 34.15 108.65 33.94 111.4 35.53"/>
              <polygon class="cls-34" points="108.65 32.96 108.65 33.94 108.28 34.15 108.28 32.75 108.65 32.96"/>
              <polygon class="cls-37" points="108.65 32.96 108.65 33.94 111.4 35.53 111.4 34.55 108.65 32.96"/>
            </g>
          </g>
          <g>
            <g class="cls-52">
              <polygon class="cls-32" points="108.02 34.71 108.02 36.94 105.26 35.35 105.27 33.12 108.02 34.71"/>
              <polygon class="cls-33" points="108.02 36.94 108.02 37.36 104.89 35.56 105.26 35.35 108.02 36.94"/>
              <polygon class="cls-34" points="105.27 33.12 105.26 35.35 104.89 35.56 104.9 32.91 105.27 33.12"/>
              <polygon class="cls-38" points="105.27 33.12 105.26 35.35 108.02 36.94 108.02 34.71 105.27 33.12"/>
            </g>
            <g class="cls-52">
              <polygon class="cls-32" points="111.4 36.71 111.4 38.94 108.65 37.34 108.65 35.12 111.4 36.71"/>
              <polygon class="cls-33" points="111.4 38.94 111.4 39.36 108.28 37.56 108.65 37.34 111.4 38.94"/>
              <polygon class="cls-34" points="108.65 35.12 108.65 37.34 108.28 37.56 108.28 34.91 108.65 35.12"/>
              <polygon class="cls-39" points="108.65 35.12 108.65 37.34 111.4 38.94 111.4 36.71 108.65 35.12"/>
            </g>
          </g>
        </g>
        <polygon class="cls-4" points="87.42 54.16 87.41 56.68 91.3 59.18 91.3 56.66 87.42 54.16"/>
        <polygon class="cls-28" points="93.53 57.59 93.53 60.12 97.41 62.62 97.41 60.1 93.53 57.59"/>
        <polygon class="cls-29" points="99.87 60.95 99.87 63.48 103.75 65.98 103.75 63.46 99.87 60.95"/>
        <g class="cls-52">
          <polygon class="cls-21" points="82.86 25.22 94.43 18.49 121.08 33.88 109.5 40.6 82.86 25.22"/>
          <g>
            <g class="cls-50">
              <polygon class="cls-35" points="109.5 40.6 109.5 41.05 82.85 25.67 82.86 25.22 109.5 40.6"/>
              <polygon class="cls-35" points="109.5 40.35 109.5 40.8 82.85 25.42 82.86 24.97 109.5 40.35"/>
            </g>
            <g>
              <g class="cls-53">
                <polygon class="cls-32" points="109.5 40.85 109.5 41.3 82.85 25.92 82.86 25.47 109.5 40.85"/>
              </g>
              <polygon class="cls-9" points="109.5 40.6 109.5 41.05 82.85 25.67 82.86 25.22 109.5 40.6"/>
            </g>
          </g>
          <g>
            <g class="cls-53">
              <polygon class="cls-32" points="109.5 40.6 121.08 33.88 121.07 34.33 109.5 41.05 109.5 40.6"/>
              <polygon class="cls-32" points="109.5 40.85 121.08 34.13 121.07 34.58 109.5 41.3 109.5 40.85"/>
            </g>
            <g>
              <g class="cls-50">
                <polygon class="cls-35" points="109.5 40.35 121.08 33.63 121.07 34.08 109.5 40.8 109.5 40.35"/>
              </g>
              <polygon class="cls-20" points="109.5 40.6 121.08 33.88 121.07 34.33 109.5 41.05 109.5 40.6"/>
            </g>
          </g>
        </g>
        <g class="cls-52">
          <polygon class="cls-17" points="95.98 122.98 95.95 131.51 95.18 131.06 95.2 122.53 95.98 122.98"/>
          <polygon class="cls-13" points="95.98 122.98 95.95 131.51 149.98 100.11 150 91.58 95.98 122.98"/>
          <polygon class="cls-10" points="95.2 122.53 149.23 91.13 150 91.58 95.98 122.98 95.2 122.53"/>
        </g>
        <path class="cls-3" d="m87.01,60.03l2.16-3.43s0-.04-.03-.08c-.06-.08-.2-.18-.34-.28-.09-.06-.18-.11-.27-.15-.16-.08-.27-.1-.29-.07l-2.29,3.64s0,0,0,0l-1.7,10.89s.11-.05.29-.05c.1,0,.2.02.31.03,0,0,0,0,.01,0-.09-.02-.19-.03-.28-.03-.27-.01-.37.03-.23.11.09.05.25.09.43.12.1.02.21.03.31.03.24.01.33-.02.26-.08l1.66-10.65Z"/>
        <path class="cls-25" d="m93.01,63.39l2.16-3.43s0-.04-.03-.08c-.06-.08-.2-.18-.34-.28-.09-.06-.18-.11-.27-.15-.16-.08-.27-.1-.29-.07l-2.29,3.64s0,0,0,0l-1.7,10.89s.11-.05.29-.05c.1,0,.2.02.31.03,0,0,0,0,.01,0-.09-.02-.19-.03-.28-.03-.27-.01-.37.03-.23.11.09.05.25.09.43.12.1.02.21.03.31.03.24.01.33-.02.26-.08l1.66-10.65Z"/>
        <path class="cls-26" d="m88.35,61.02l2.16-3.43s0-.04-.03-.08c-.06-.08-.2-.18-.34-.28-.09-.06-.18-.11-.27-.15-.16-.08-.27-.1-.29-.07l-2.29,3.64s0,0,0,0l-1.7,10.89s.11-.05.29-.05c.1,0,.2.02.31.03,0,0,0,0,.01,0-.09-.02-.19-.03-.28-.03-.27-.01-.37.03-.23.11.09.05.25.09.43.12.1.02.21.03.31.03.24.01.33-.02.26-.08l1.66-10.65Z"/>
        <polygon class="cls-16" points="6.09 69.72 54.22 41.91 144.83 93.56 96.08 121.59 6.09 69.72"/>
        <path class="cls-27" d="m94.5,64.31l2.16-3.43s0-.04-.03-.08c-.06-.08-.2-.18-.34-.28-.09-.06-.18-.11-.27-.15-.16-.08-.27-.1-.29-.07l-2.29,3.64s0,0,0,0l-1.7,10.89s.11-.05.29-.05c.1,0,.2.02.31.03,0,0,0,0,.01,0-.09-.02-.19-.03-.28-.03-.27-.01-.37.03-.23.11.09.05.25.09.43.12.1.02.21.03.31.03.24.01.33-.02.26-.08l1.66-10.65Z"/>
        <path class="cls-23" d="m99.58,66.83l2.16-3.43s0-.04-.03-.08c-.06-.08-.2-.18-.34-.28-.09-.06-.18-.11-.27-.15-.16-.08-.27-.1-.29-.07l-2.29,3.64s0,0,0,0l-1.7,10.89s.11-.05.29-.05c.1,0,.2.02.31.03,0,0,0,0,.01,0-.09-.02-.19-.03-.28-.03-.27-.01-.37.03-.23.11.09.05.25.09.43.12.1.02.21.03.31.03.24.01.33-.02.26-.08l1.66-10.65Z"/>
        <path class="cls-24" d="m101.07,67.74l2.16-3.43s0-.04-.03-.08c-.06-.08-.2-.18-.34-.28-.09-.06-.18-.11-.27-.15-.16-.08-.27-.1-.29-.07l-2.29,3.64s0,0,0,0l-1.7,10.89s.11-.05.29-.05c.1,0,.2.02.31.03,0,0,0,0,.01,0-.09-.02-.19-.03-.28-.03-.27-.01-.37.03-.23.11.09.05.25.09.43.12.1.02.21.03.31.03.24.01.33-.02.26-.08l1.66-10.65Z"/>
        <polygon class="cls-31" points="7.02 68.13 55.15 40.32 145.75 91.96 97.01 120 7.02 68.13"/>
      </g>
     
    </g>
  </g>
</svg>