<?xml version="1.0" encoding="UTF-8"?>
<svg id="_图层_2" data-name="图层 2" xmlns="http://www.w3.org/2000/svg" xmlns:xlink="http://www.w3.org/1999/xlink" viewBox="0 0 150.42 150">
  <defs>
    <style>
      .cls-1 {
        fill: url(#_未命名的渐变_13);
      }

      .cls-1, .cls-2, .cls-3, .cls-4, .cls-5, .cls-6, .cls-7, .cls-8, .cls-9, .cls-10, .cls-11, .cls-12 {
        stroke-width: 0px;
      }

      .cls-2 {
        fill: url(#_未命名的渐变_21);
      }

      .cls-3 {
        fill: url(#_未命名的渐变_78);
      }

      .cls-4 {
        fill: url(#_未命名的渐变_73);
      }

      .cls-5 {
        fill: url(#_未命名的渐变_56);
      }

      .cls-6, .cls-13 {
        fill: none;
      }

      .cls-13 {
        stroke: #fff;
        stroke-miterlimit: 10;
        stroke-width: .1px;
      }

      .cls-7 {
        fill: url(#_未命名的渐变_56-2);
      }

      .cls-8 {
        fill: url(#_未命名的渐变_56-3);
      }

      .cls-9 {
        fill: url(#_未命名的渐变_21-2);
      }

      .cls-10 {
        fill: url(#_新建图案);
        opacity: .1;
      }

      .cls-14 {
        filter: url(#drop-shadow-1);
      }

      .cls-14, .cls-15 {
        isolation: isolate;
      }

      .cls-16 {
        opacity: .2;
      }

      .cls-17 {
        opacity: 0;
      }

      .cls-11 {
        fill: #bfbfbf;
      }

      .cls-12 {
        fill: #000715;
      }
    </style>
    <pattern id="_新建图案" data-name="新建图案" x="0" y="0" width="18.57" height="32.16" patternTransform="translate(3680.71 470.14)" patternUnits="userSpaceOnUse" viewBox="0 0 18.57 32.16">
      <g>
        <rect class="cls-6" x="0" y="0" width="18.57" height="32.16"/>
        <g>
          <g>
            <polyline class="cls-13" points="18.57 21.44 18.57 32.16 18.57 42.88"/>
            <polyline class="cls-13" points="9.29 26.8 18.57 32.16 27.85 37.51 27.85 37.52"/>
            <polyline class="cls-13" points="9.29 37.52 9.29 37.51 18.57 32.16 27.85 26.8"/>
          </g>
          <polygon class="cls-13" points="27.85 37.52 27.85 26.8 18.57 21.44 9.28 26.8 9.28 37.52 18.57 42.88 27.85 37.52"/>
        </g>
        <g>
          <g>
            <polyline class="cls-13" points="0 21.44 0 32.16 0 42.88"/>
            <polyline class="cls-13" points="-9.28 26.8 0 32.16 9.28 37.51 9.28 37.52"/>
            <polyline class="cls-13" points="-9.28 37.52 -9.28 37.51 0 32.16 9.28 26.8"/>
          </g>
          <polygon class="cls-13" points="9.28 37.52 9.28 26.8 0 21.44 -9.28 26.8 -9.28 37.52 0 42.88 9.28 37.52"/>
        </g>
        <g>
          <g>
            <polyline class="cls-13" points="18.57 10.72 27.85 16.08 37.13 21.43 37.13 21.44"/>
            <polyline class="cls-13" points="18.57 21.44 18.57 21.43 27.85 16.08 37.13 10.72"/>
          </g>
          <polygon class="cls-13" points="37.14 21.44 37.14 10.72 27.85 5.36 18.57 10.72 18.57 21.44 27.85 26.8 37.14 21.44"/>
        </g>
        <g>
          <g>
            <polyline class="cls-13" points="9.28 5.36 9.28 16.08 9.28 26.8"/>
            <polyline class="cls-13" points="0 10.72 9.28 16.08 18.56 21.43 18.56 21.44"/>
            <polyline class="cls-13" points="0 21.44 0 21.43 9.28 16.08 18.56 10.72"/>
          </g>
          <polygon class="cls-13" points="18.57 21.44 18.57 10.72 9.28 5.36 0 10.72 0 21.44 9.28 26.8 18.57 21.44"/>
        </g>
        <g>
          <g>
            <polyline class="cls-13" points="-18.56 10.72 -9.28 16.08 0 21.43 0 21.44"/>
            <polyline class="cls-13" points="-18.56 21.44 -18.56 21.43 -9.28 16.08 0 10.72"/>
          </g>
          <polygon class="cls-13" points="0 21.44 0 10.72 -9.28 5.36 -18.57 10.72 -18.57 21.44 -9.28 26.8 0 21.44"/>
        </g>
        <g>
          <g>
            <polyline class="cls-13" points="18.57 -10.72 18.57 0 18.57 10.72"/>
            <polyline class="cls-13" points="9.29 -5.36 18.57 0 27.85 5.35 27.85 5.36"/>
            <polyline class="cls-13" points="9.29 5.36 9.29 5.35 18.57 0 27.85 -5.36"/>
          </g>
          <polygon class="cls-13" points="27.85 5.36 27.85 -5.36 18.57 -10.72 9.28 -5.36 9.28 5.36 18.57 10.72 27.85 5.36"/>
        </g>
        <g>
          <g>
            <polyline class="cls-13" points="0 -10.72 0 0 0 10.72"/>
            <polyline class="cls-13" points="-9.28 -5.36 0 0 9.28 5.35 9.28 5.36"/>
            <polyline class="cls-13" points="-9.28 5.36 -9.28 5.35 0 0 9.28 -5.36"/>
          </g>
          <polygon class="cls-13" points="9.28 5.36 9.28 -5.36 0 -10.72 -9.28 -5.36 -9.28 5.36 0 10.72 9.28 5.36"/>
        </g>
      </g>
    </pattern>
    <linearGradient id="_未命名的渐变_21" data-name="未命名的渐变 21" x1="70.41" y1="51.2" x2="56.84" y2="74.71" gradientUnits="userSpaceOnUse">
      <stop offset="0" stop-color="#35455c"/>
      <stop offset=".15" stop-color="#7497d0"/>
      <stop offset=".25" stop-color="#7497d0"/>
      <stop offset=".9" stop-color="#11161a"/>
      <stop offset="1" stop-color="#263141"/>
    </linearGradient>
    <linearGradient id="_未命名的渐变_13" data-name="未命名的渐变 13" x1="131.13" y1="86.69" x2="117.75" y2="109.88" gradientTransform="translate(146.89 -58.69) rotate(59.84)" gradientUnits="userSpaceOnUse">
      <stop offset="0" stop-color="#81aaea"/>
      <stop offset="1" stop-color="#4d709c"/>
    </linearGradient>
    <filter id="drop-shadow-1" filterUnits="userSpaceOnUse">
      <feOffset dx="0" dy="-1"/>
      <feGaussianBlur result="blur" stdDeviation="0"/>
      <feFlood flood-color="#000" flood-opacity=".45"/>
      <feComposite in2="blur" operator="in"/>
      <feComposite in="SourceGraphic"/>
    </filter>
    <linearGradient id="_未命名的渐变_21-2" data-name="未命名的渐变 21" x1="122.33" y1="79.21" x2="107.73" y2="104.48" xlink:href="#_未命名的渐变_21"/>
    <linearGradient id="_未命名的渐变_73" data-name="未命名的渐变 73" x1="131.95" y1="84.26" x2="116.68" y2="110.71" gradientUnits="userSpaceOnUse">
      <stop offset="0" stop-color="#0071ed"/>
      <stop offset=".15" stop-color="#0bc9ff"/>
      <stop offset=".25" stop-color="#0bc9ff"/>
      <stop offset=".85" stop-color="#1928d3"/>
      <stop offset="1" stop-color="#0071ed"/>
    </linearGradient>
    <linearGradient id="_未命名的渐变_78" data-name="未命名的渐变 78" x1="147.23" y1="93.17" x2="131.99" y2="119.55" gradientTransform="translate(161.42 -67.79) rotate(59.84)" gradientUnits="userSpaceOnUse">
      <stop offset="0" stop-color="#6fe3ff"/>
      <stop offset="1" stop-color="#00b6ff"/>
    </linearGradient>
    <linearGradient id="_未命名的渐变_56" data-name="未命名的渐变 56" x1="51.61" y1="77.12" x2="67.02" y2="77.12" gradientUnits="userSpaceOnUse">
      <stop offset="0" stop-color="#10243b" stop-opacity=".6"/>
      <stop offset=".03" stop-color="#10243b" stop-opacity=".6"/>
      <stop offset="1" stop-color="#10243b" stop-opacity=".6"/>
    </linearGradient>
    <linearGradient id="_未命名的渐变_56-2" data-name="未命名的渐变 56" x1="68.07" y1="75.15" x2="82.71" y2="75.15" xlink:href="#_未命名的渐变_56"/>
    <linearGradient id="_未命名的渐变_56-3" data-name="未命名的渐变 56" x1="83.83" y1="72.88" x2="99.23" y2="72.88" xlink:href="#_未命名的渐变_56"/>
  </defs>
  <g id="_图层_1-2" data-name="图层 1">
    <g id="_控制棒" data-name="控制棒">
      <g id="_背景" data-name="背景" class="cls-17">
        <rect class="cls-12" x=".42" width="150" height="150"/>
        <rect id="_网格" data-name="网格" class="cls-10" x=".42" width="150" height="150"/>
      </g>
      <path class="cls-2" d="m126.65,86.4c.14-.04.28-.08.42-.12.13-.03.26-.06.39-.08.17-.03.34-.06.5-.08.1-.01.19-.02.29-.03.21-.01.41-.02.61-.01.05,0,.09,0,.14,0,.24.01.47.04.7.09.06.01.11.03.17.04.18.04.35.09.52.15.05.02.11.04.16.06.22.08.42.18.62.3h0s0,0,0,0L16.22,19.91s-.03-.02-.05-.03c-.15-.09-.31-.16-.48-.23-.03-.01-.06-.02-.09-.03-.05-.02-.11-.04-.16-.06-.08-.03-.16-.06-.25-.09-.09-.03-.18-.04-.27-.06-.06-.01-.11-.03-.17-.04-.03,0-.06-.02-.09-.02-.19-.03-.38-.05-.57-.07-.01,0-.03,0-.04,0-.04,0-.09,0-.14,0-.15,0-.3-.01-.45,0-.05,0-.1.01-.16.02-.09,0-.19.02-.29.03-.09.01-.18.01-.27.03-.08.01-.16.04-.24.05-.13.02-.26.05-.39.08-.07.02-.14.03-.21.04-.07.02-.14.05-.21.07-.22.07-.44.14-.67.23-.08.03-.16.05-.24.08-.04.02-.09.05-.14.07-.39.17-.79.36-1.19.59-.31.18-.61.37-.91.58-.1.07-.19.14-.29.21-.2.14-.4.29-.6.45-.11.09-.22.18-.33.27-.18.15-.36.31-.54.47-.11.1-.21.2-.32.3-.07.06-.13.12-.2.19-.07.07-.13.15-.2.22-.21.22-.42.44-.63.67-.07.07-.14.14-.2.22-.06.06-.11.13-.16.2-.13.15-.25.3-.37.45-.08.1-.16.19-.24.29-.06.08-.12.17-.19.25-.09.12-.18.24-.26.36-.06.08-.12.16-.18.24-.1.14-.19.29-.29.43-.06.09-.12.18-.18.27-.02.04-.05.07-.08.11-.17.26-.33.53-.49.8-.01.02-.02.04-.03.06-.03.06-.06.11-.09.17-.11.19-.22.38-.32.57-.05.09-.09.18-.14.28-.05.1-.1.19-.15.29-.04.08-.08.16-.12.25-.11.22-.21.45-.31.68-.02.04-.04.08-.05.12,0,.01,0,.02-.01.03-.12.28-.24.57-.35.85-.02.05-.04.11-.06.16-.04.1-.08.21-.11.31-.05.14-.1.28-.15.42-.04.11-.07.22-.1.33-.04.13-.08.26-.12.39-.02.08-.05.16-.07.24-.04.15-.07.29-.11.44-.04.16-.08.32-.12.49-.01.06-.03.11-.04.17-.02.12-.04.23-.06.35-.05.25-.09.51-.13.76,0,.07-.03.14-.04.21-.02.16-.03.32-.05.47-.01.11-.02.22-.03.34-.03.35-.04.7-.04,1.05,0,1.12.15,2.12.43,2.98.18.57.43,1.09.72,1.54.15.22.3.43.47.62.34.38.72.7,1.15.95l114.94,66.8c-1.7-.99-2.76-3.1-2.77-6.09,0-.35.02-.7.04-1.05,0-.11.02-.22.03-.33.02-.23.05-.45.08-.68.04-.25.08-.5.13-.76.03-.17.06-.34.1-.52.04-.16.08-.32.12-.49.06-.22.11-.45.18-.68.04-.13.08-.26.12-.39.08-.25.16-.51.25-.76.04-.1.07-.21.11-.31.13-.35.27-.7.42-1.04.02-.04.04-.08.06-.12.14-.31.28-.61.43-.92.05-.1.1-.19.15-.29.15-.29.3-.57.46-.85.03-.06.06-.11.09-.17.19-.33.39-.65.6-.97.06-.09.12-.18.18-.27.15-.23.31-.46.47-.68.09-.12.18-.24.27-.36.14-.19.28-.37.43-.55.12-.15.25-.3.37-.45.12-.14.24-.27.36-.41.21-.23.42-.45.63-.67.13-.14.27-.27.4-.4.11-.1.21-.2.32-.3.18-.16.36-.32.54-.47.11-.09.22-.18.33-.27.2-.16.4-.3.6-.45.1-.07.19-.14.29-.21.3-.2.6-.4.91-.58.41-.23.8-.42,1.19-.59.13-.05.25-.1.37-.15.23-.09.45-.16.67-.23Z"/>
      <ellipse class="cls-1" cx="124.44" cy="98.28" rx="13.39" ry="7.75" transform="translate(-23.06 156.49) rotate(-59.84)"/>
      <g class="cls-14">
        <path class="cls-9" d="m118.32,76.9c-1.88-1.09-4.48-.94-7.35.72-5.71,3.29-10.32,11.29-10.3,17.84,0,3.26,1.16,5.55,3.02,6.63l15.33,8.91c-1.86-1.08-3.01-3.37-3.02-6.63-.02-6.56,4.6-14.55,10.3-17.84,2.87-1.66,5.47-1.81,7.35-.72l-15.33-8.91Z"/>
        <ellipse class="cls-11" cx="126.33" cy="98.4" rx="14.57" ry="8.44" transform="translate(-22.22 158.18) rotate(-59.84)"/>
      </g>
      <g class="cls-15">
        <path class="cls-4" d="m124.28,79.83c-1.97-1.14-4.69-.98-7.69.75-5.97,3.45-10.79,11.8-10.77,18.66,0,3.41,1.21,5.81,3.15,6.93l22.99,13.36c-1.94-1.13-3.14-3.53-3.15-6.93-.02-6.86,4.8-15.21,10.77-18.66,3-1.73,5.73-1.9,7.69-.75l-22.99-13.36Z"/>
        <ellipse class="cls-3" cx="139.61" cy="106.36" rx="15.24" ry="8.82" transform="translate(-22.5 173.63) rotate(-59.84)"/>
      </g>
     
    </g>
  </g>
</svg>