<?xml version="1.0" encoding="UTF-8"?>
<svg id="_图层_2" data-name="图层 2" xmlns="http://www.w3.org/2000/svg" xmlns:xlink="http://www.w3.org/1999/xlink" viewBox="0 0 150 150">
  <defs>
    <style>
      .cls-1 {
        fill: url(#_未命名的渐变_13);
      }

      .cls-1, .cls-2, .cls-3, .cls-4, .cls-5, .cls-6, .cls-7, .cls-8, .cls-9, .cls-10, .cls-11, .cls-12, .cls-13, .cls-14, .cls-15, .cls-16, .cls-17, .cls-18, .cls-19, .cls-20, .cls-21, .cls-22, .cls-23, .cls-24, .cls-25, .cls-26, .cls-27, .cls-28, .cls-29, .cls-30, .cls-31, .cls-32, .cls-33, .cls-34, .cls-35, .cls-36, .cls-37, .cls-38, .cls-39, .cls-40, .cls-41, .cls-42, .cls-43, .cls-44, .cls-45, .cls-46, .cls-47, .cls-48, .cls-49, .cls-50, .cls-51, .cls-52, .cls-53, .cls-54, .cls-55 {
        stroke-width: 0px;
      }

      .cls-2 {
        fill: url(#_未命名的渐变_21);
      }

      .cls-3, .cls-56 {
        fill: none;
      }

      .cls-4 {
        fill: url(#_未命名的渐变_319-14);
      }

      .cls-5 {
        fill: url(#_未命名的渐变_319-13);
      }

      .cls-6 {
        fill: url(#_未命名的渐变_319-15);
      }

      .cls-7 {
        fill: url(#_未命名的渐变_319-11);
      }

      .cls-8 {
        fill: url(#_未命名的渐变_319-16);
      }

      .cls-9 {
        fill: url(#_未命名的渐变_319-10);
      }

      .cls-10 {
        fill: url(#_未命名的渐变_319-12);
      }

      .cls-11 {
        fill: url(#_未命名的渐变_319-17);
      }

      .cls-12 {
        fill: url(#_未命名的渐变_319-19);
      }

      .cls-13 {
        fill: url(#_未命名的渐变_319-18);
      }

      .cls-14 {
        fill: url(#_未命名的渐变_319-20);
      }

      .cls-15 {
        fill: url(#_未命名的渐变_319-21);
      }

      .cls-16 {
        fill: url(#_未命名的渐变_319-22);
      }

      .cls-17 {
        fill: url(#_未命名的渐变_322-17);
      }

      .cls-18 {
        fill: url(#_未命名的渐变_322-13);
      }

      .cls-19 {
        fill: url(#_未命名的渐变_322-18);
      }

      .cls-20 {
        fill: url(#_未命名的渐变_322-15);
      }

      .cls-21 {
        fill: url(#_未命名的渐变_322-12);
      }

      .cls-22 {
        fill: url(#_未命名的渐变_322-14);
      }

      .cls-23 {
        fill: url(#_未命名的渐变_322-11);
      }

      .cls-24 {
        fill: url(#_未命名的渐变_322-22);
      }

      .cls-25 {
        fill: url(#_未命名的渐变_322-23);
      }

      .cls-26 {
        fill: url(#_未命名的渐变_322-20);
      }

      .cls-27 {
        fill: url(#_未命名的渐变_322-21);
      }

      .cls-28 {
        fill: url(#_未命名的渐变_322-19);
      }

      .cls-29 {
        fill: url(#_未命名的渐变_322-16);
      }

      .cls-30 {
        fill: url(#_未命名的渐变_322-10);
      }

      .cls-56 {
        stroke: #fff;
        stroke-miterlimit: 10;
        stroke-width: .1px;
      }

      .cls-31 {
        fill: url(#_未命名的渐变_322-3);
      }

      .cls-32 {
        fill: url(#_未命名的渐变_322-9);
      }

      .cls-33 {
        fill: url(#_未命名的渐变_322-8);
      }

      .cls-34 {
        fill: url(#_未命名的渐变_322-7);
      }

      .cls-35 {
        fill: url(#_未命名的渐变_322-4);
      }

      .cls-36 {
        fill: url(#_未命名的渐变_322-2);
      }

      .cls-37 {
        fill: url(#_未命名的渐变_322-5);
      }

      .cls-38 {
        fill: url(#_未命名的渐变_322-6);
      }

      .cls-39 {
        fill: url(#_未命名的渐变_319-7);
      }

      .cls-40 {
        fill: url(#_未命名的渐变_319-5);
      }

      .cls-41 {
        fill: url(#_未命名的渐变_319-4);
      }

      .cls-42 {
        fill: url(#_未命名的渐变_319-6);
      }

      .cls-43 {
        fill: url(#_未命名的渐变_319-3);
      }

      .cls-44 {
        fill: url(#_未命名的渐变_319-2);
      }

      .cls-45 {
        fill: url(#_未命名的渐变_319-8);
      }

      .cls-46 {
        fill: url(#_未命名的渐变_319-9);
      }

      .cls-47 {
        fill: url(#_新建图案);
        opacity: .1;
      }

      .cls-57 {
        opacity: .2;
      }

      .cls-48 {
        fill: url(#_未命名的渐变_7);
      }

      .cls-49 {
        fill: url(#_未命名的渐变_9);
      }

      .cls-58 {
        isolation: isolate;
      }

      .cls-51 {
        fill: url(#_未命名的渐变_9-2);
      }

      .cls-52 {
        fill: url(#_未命名的渐变_9-3);
      }

      .cls-53 {
        fill: url(#_未命名的渐变_322);
      }

      .cls-54 {
        fill: url(#_未命名的渐变_319);
      }

      .cls-59 {
        opacity: 0;
      }

      .cls-55 {
        fill: #000715;
      }
    </style>
    <pattern id="_新建图案" data-name="新建图案" x="0" y="0" width="18.57" height="32.16" patternTransform="translate(3940.26 1370.69)" patternUnits="userSpaceOnUse" viewBox="0 0 18.57 32.16">
      <g>
        <rect class="cls-3" x="0" y="0" width="18.57" height="32.16"/>
        <g>
          <g>
            <polyline class="cls-56" points="18.57 21.44 18.57 32.16 18.57 42.88"/>
            <polyline class="cls-56" points="9.29 26.8 18.57 32.16 27.85 37.51 27.85 37.52"/>
            <polyline class="cls-56" points="9.29 37.52 9.29 37.51 18.57 32.16 27.85 26.8"/>
          </g>
          <polygon class="cls-56" points="27.85 37.52 27.85 26.8 18.57 21.44 9.28 26.8 9.28 37.52 18.57 42.88 27.85 37.52"/>
        </g>
        <g>
          <g>
            <polyline class="cls-56" points="0 21.44 0 32.16 0 42.88"/>
            <polyline class="cls-56" points="-9.28 26.8 0 32.16 9.28 37.51 9.28 37.52"/>
            <polyline class="cls-56" points="-9.28 37.52 -9.28 37.51 0 32.16 9.28 26.8"/>
          </g>
          <polygon class="cls-56" points="9.28 37.52 9.28 26.8 0 21.44 -9.28 26.8 -9.28 37.52 0 42.88 9.28 37.52"/>
        </g>
        <g>
          <g>
            <polyline class="cls-56" points="18.57 10.72 27.85 16.08 37.13 21.43 37.13 21.44"/>
            <polyline class="cls-56" points="18.57 21.44 18.57 21.43 27.85 16.08 37.13 10.72"/>
          </g>
          <polygon class="cls-56" points="37.14 21.44 37.14 10.72 27.85 5.36 18.57 10.72 18.57 21.44 27.85 26.8 37.14 21.44"/>
        </g>
        <g>
          <g>
            <polyline class="cls-56" points="9.28 5.36 9.28 16.08 9.28 26.8"/>
            <polyline class="cls-56" points="0 10.72 9.28 16.08 18.56 21.43 18.56 21.44"/>
            <polyline class="cls-56" points="0 21.44 0 21.43 9.28 16.08 18.56 10.72"/>
          </g>
          <polygon class="cls-56" points="18.57 21.44 18.57 10.72 9.28 5.36 0 10.72 0 21.44 9.28 26.8 18.57 21.44"/>
        </g>
        <g>
          <g>
            <polyline class="cls-56" points="-18.56 10.72 -9.28 16.08 0 21.43 0 21.44"/>
            <polyline class="cls-56" points="-18.56 21.44 -18.56 21.43 -9.28 16.08 0 10.72"/>
          </g>
          <polygon class="cls-56" points="0 21.44 0 10.72 -9.28 5.36 -18.57 10.72 -18.57 21.44 -9.28 26.8 0 21.44"/>
        </g>
        <g>
          <g>
            <polyline class="cls-56" points="18.57 -10.72 18.57 0 18.57 10.72"/>
            <polyline class="cls-56" points="9.29 -5.36 18.57 0 27.85 5.35 27.85 5.36"/>
            <polyline class="cls-56" points="9.29 5.36 9.29 5.35 18.57 0 27.85 -5.36"/>
          </g>
          <polygon class="cls-56" points="27.85 5.36 27.85 -5.36 18.57 -10.72 9.28 -5.36 9.28 5.36 18.57 10.72 27.85 5.36"/>
        </g>
        <g>
          <g>
            <polyline class="cls-56" points="0 -10.72 0 0 0 10.72"/>
            <polyline class="cls-56" points="-9.28 -5.36 0 0 9.28 5.35 9.28 5.36"/>
            <polyline class="cls-56" points="-9.28 5.36 -9.28 5.35 0 0 9.28 -5.36"/>
          </g>
          <polygon class="cls-56" points="9.28 5.36 9.28 -5.36 0 -10.72 -9.28 -5.36 -9.28 5.36 0 10.72 9.28 5.36"/>
        </g>
      </g>
    </pattern>
    <linearGradient id="_未命名的渐变_21" data-name="未命名的渐变 21" x1="6.27" y1="104.34" x2="144.06" y2="104.34" gradientUnits="userSpaceOnUse">
      <stop offset="0" stop-color="#35455c"/>
      <stop offset=".15" stop-color="#7497d0"/>
      <stop offset=".25" stop-color="#7497d0"/>
      <stop offset=".9" stop-color="#11161a"/>
      <stop offset="1" stop-color="#263141"/>
    </linearGradient>
    <linearGradient id="_未命名的渐变_13" data-name="未命名的渐变 13" x1="6.36" y1="68.19" x2="144.06" y2="68.19" gradientTransform="translate(143.19 -7.21) rotate(89.84)" gradientUnits="userSpaceOnUse">
      <stop offset="0" stop-color="#81aaea"/>
      <stop offset="1" stop-color="#4d709c"/>
    </linearGradient>
    <linearGradient id="_未命名的渐变_7" data-name="未命名的渐变 7" x1="13.8" y1="67.79" x2="137.69" y2="67.79" gradientTransform="translate(143.34 -8.13) rotate(89.85)" gradientUnits="userSpaceOnUse">
      <stop offset="0" stop-color="#283140"/>
      <stop offset=".1" stop-color="#12161a"/>
      <stop offset=".75" stop-color="#7a98cc"/>
      <stop offset=".85" stop-color="#7a98cc"/>
      <stop offset="1" stop-color="#38455a"/>
    </linearGradient>
    <linearGradient id="_未命名的渐变_319" data-name="未命名的渐变 319" x1="73.84" y1="100.1" x2="75.35" y2="100.1" gradientUnits="userSpaceOnUse">
      <stop offset="0" stop-color="#4c6383"/>
      <stop offset=".2" stop-color="#8fbbff"/>
      <stop offset=".9" stop-color="#3c4d5c"/>
      <stop offset="1" stop-color="#4c6383"/>
    </linearGradient>
    <linearGradient id="_未命名的渐变_322" data-name="未命名的渐变 322" x1="73.84" y1="91.94" x2="75.34" y2="91.94" gradientUnits="userSpaceOnUse">
      <stop offset="0" stop-color="#9ec6ff"/>
      <stop offset="1" stop-color="#749bcf"/>
    </linearGradient>
    <linearGradient id="_未命名的渐变_319-2" data-name="未命名的渐变 319" x1="92.28" y1="98.91" x2="93.79" y2="98.91" xlink:href="#_未命名的渐变_319"/>
    <linearGradient id="_未命名的渐变_322-2" data-name="未命名的渐变 322" x1="92.28" y1="90.75" x2="93.78" y2="90.75" xlink:href="#_未命名的渐变_322"/>
    <linearGradient id="_未命名的渐变_319-3" data-name="未命名的渐变 319" x1="110.13" y1="94.3" x2="111.63" y2="94.3" xlink:href="#_未命名的渐变_319"/>
    <linearGradient id="_未命名的渐变_322-3" data-name="未命名的渐变 322" x1="110.13" y1="86.14" x2="111.63" y2="86.14" xlink:href="#_未命名的渐变_322"/>
    <linearGradient id="_未命名的渐变_319-4" data-name="未命名的渐变 319" x1="126.93" y1="85.52" x2="128.44" y2="85.52" xlink:href="#_未命名的渐变_319"/>
    <linearGradient id="_未命名的渐变_322-4" data-name="未命名的渐变 322" x1="126.93" y1="77.36" x2="128.43" y2="77.36" xlink:href="#_未命名的渐变_322"/>
    <linearGradient id="_未命名的渐变_319-5" data-name="未命名的渐变 319" x1="140.76" y1="71.25" x2="142.27" y2="71.25" xlink:href="#_未命名的渐变_319"/>
    <linearGradient id="_未命名的渐变_322-5" data-name="未命名的渐变 322" x1="140.76" y1="63.09" x2="142.26" y2="63.09" xlink:href="#_未命名的渐变_322"/>
    <linearGradient id="_未命名的渐变_319-6" data-name="未命名的渐变 319" x1="58.45" y1="98.54" x2="59.96" y2="98.54" xlink:href="#_未命名的渐变_319"/>
    <linearGradient id="_未命名的渐变_322-6" data-name="未命名的渐变 322" x1="58.45" y1="90.38" x2="59.95" y2="90.38" xlink:href="#_未命名的渐变_322"/>
    <linearGradient id="_未命名的渐变_319-7" data-name="未命名的渐变 319" x1="44.4" y1="96.08" x2="45.91" y2="96.08" xlink:href="#_未命名的渐变_319"/>
    <linearGradient id="_未命名的渐变_322-7" data-name="未命名的渐变 322" x1="44.4" y1="87.92" x2="45.9" y2="87.92" xlink:href="#_未命名的渐变_322"/>
    <linearGradient id="_未命名的渐变_322-8" data-name="未命名的渐变 322" x1="36.7" y1="85.47" x2="38.21" y2="85.47" xlink:href="#_未命名的渐变_322"/>
    <linearGradient id="_未命名的渐变_319-8" data-name="未命名的渐变 319" x1="31.02" y1="91.4" x2="32.52" y2="91.4" xlink:href="#_未命名的渐变_319"/>
    <linearGradient id="_未命名的渐变_322-9" data-name="未命名的渐变 322" x1="31.02" y1="83.24" x2="32.52" y2="83.24" xlink:href="#_未命名的渐变_322"/>
    <linearGradient id="_未命名的渐变_319-9" data-name="未命名的渐变 319" x1="16.63" y1="82.7" x2="18.14" y2="82.7" xlink:href="#_未命名的渐变_319"/>
    <linearGradient id="_未命名的渐变_322-10" data-name="未命名的渐变 322" x1="16.63" y1="74.54" x2="18.13" y2="74.54" xlink:href="#_未命名的渐变_322"/>
    <linearGradient id="_未命名的渐变_319-10" data-name="未命名的渐变 319" x1="7.48" y1="47.23" x2="8.99" y2="47.23" xlink:href="#_未命名的渐变_319"/>
    <linearGradient id="_未命名的渐变_322-11" data-name="未命名的渐变 322" x1="7.48" y1="39.07" x2="8.99" y2="39.07" xlink:href="#_未命名的渐变_322"/>
    <linearGradient id="_未命名的渐变_319-11" data-name="未命名的渐变 319" x1="16.96" y1="36.3" x2="18.47" y2="36.3" xlink:href="#_未命名的渐变_319"/>
    <linearGradient id="_未命名的渐变_322-12" data-name="未命名的渐变 322" x1="16.96" y1="28.14" x2="18.46" y2="28.14" xlink:href="#_未命名的渐变_322"/>
    <linearGradient id="_未命名的渐变_319-12" data-name="未命名的渐变 319" x1="29.57" y1="28.38" x2="31.07" y2="28.38" xlink:href="#_未命名的渐变_319"/>
    <linearGradient id="_未命名的渐变_322-13" data-name="未命名的渐变 322" x1="29.57" y1="20.22" x2="31.07" y2="20.22" xlink:href="#_未命名的渐变_322"/>
    <linearGradient id="_未命名的渐变_319-13" data-name="未命名的渐变 319" x1="43.39" y1="23.25" x2="44.9" y2="23.25" xlink:href="#_未命名的渐变_319"/>
    <linearGradient id="_未命名的渐变_322-14" data-name="未命名的渐变 322" x1="43.39" y1="15.09" x2="44.9" y2="15.09" xlink:href="#_未命名的渐变_322"/>
    <linearGradient id="_未命名的渐变_319-14" data-name="未命名的渐变 319" x1="64.33" y1="19.07" x2="65.83" y2="19.07" xlink:href="#_未命名的渐变_319"/>
    <linearGradient id="_未命名的渐变_322-15" data-name="未命名的渐变 322" x1="64.33" y1="10.91" x2="65.83" y2="10.91" xlink:href="#_未命名的渐变_322"/>
    <linearGradient id="_未命名的渐变_319-15" data-name="未命名的渐变 319" x1="88.6" y1="20.46" x2="90.11" y2="20.46" xlink:href="#_未命名的渐变_319"/>
    <linearGradient id="_未命名的渐变_322-16" data-name="未命名的渐变 322" x1="88.6" y1="12.3" x2="90.11" y2="12.3" xlink:href="#_未命名的渐变_322"/>
    <linearGradient id="_未命名的渐变_319-16" data-name="未命名的渐变 319" x1="108.19" y1="24.7" x2="109.7" y2="24.7" xlink:href="#_未命名的渐变_319"/>
    <linearGradient id="_未命名的渐变_322-17" data-name="未命名的渐变 322" x1="108.19" y1="16.54" x2="109.69" y2="16.54" xlink:href="#_未命名的渐变_322"/>
    <linearGradient id="_未命名的渐变_319-17" data-name="未命名的渐变 319" x1="122.69" y1="30.73" x2="124.2" y2="30.73" xlink:href="#_未命名的渐变_319"/>
    <linearGradient id="_未命名的渐变_322-18" data-name="未命名的渐变 322" x1="122.69" y1="22.57" x2="124.19" y2="22.57" xlink:href="#_未命名的渐变_322"/>
    <linearGradient id="_未命名的渐变_319-18" data-name="未命名的渐变 319" x1="134.07" y1="39.43" x2="135.58" y2="39.43" xlink:href="#_未命名的渐变_319"/>
    <linearGradient id="_未命名的渐变_322-19" data-name="未命名的渐变 322" x1="134.07" y1="31.27" x2="135.57" y2="31.27" xlink:href="#_未命名的渐变_322"/>
    <linearGradient id="_未命名的渐变_319-19" data-name="未命名的渐变 319" x1="6.81" y1="70.54" x2="8.32" y2="70.54" xlink:href="#_未命名的渐变_319"/>
    <linearGradient id="_未命名的渐变_322-20" data-name="未命名的渐变 322" x1="6.81" y1="62.38" x2="8.32" y2="62.38" xlink:href="#_未命名的渐变_322"/>
    <linearGradient id="_未命名的渐变_319-20" data-name="未命名的渐变 319" x1="4.44" y1="88.62" x2="145.08" y2="88.62" xlink:href="#_未命名的渐变_319"/>
    <linearGradient id="_未命名的渐变_9" data-name="未命名的渐变 9" x1="5.79" y1="48.48" x2="143.74" y2="48.48" gradientUnits="userSpaceOnUse">
      <stop offset="0" stop-color="#4c6383"/>
      <stop offset=".1" stop-color="#3c4d5c"/>
      <stop offset=".8" stop-color="#8fbbff"/>
      <stop offset="1" stop-color="#4c6383"/>
    </linearGradient>
    <linearGradient id="_未命名的渐变_322-21" data-name="未命名的渐变 322" x1="4.44" y1="67.81" x2="145.08" y2="67.81" xlink:href="#_未命名的渐变_322"/>
    <linearGradient id="_未命名的渐变_319-21" data-name="未命名的渐变 319" x1="4.44" y1="76.91" x2="145.08" y2="76.91" xlink:href="#_未命名的渐变_319"/>
    <linearGradient id="_未命名的渐变_9-2" data-name="未命名的渐变 9" y1="36.77" y2="36.77" xlink:href="#_未命名的渐变_9"/>
    <linearGradient id="_未命名的渐变_322-22" data-name="未命名的渐变 322" x1="4.44" y1="56.09" x2="145.08" y2="56.09" xlink:href="#_未命名的渐变_322"/>
    <linearGradient id="_未命名的渐变_319-22" data-name="未命名的渐变 319" x1="4.44" y1="71.23" x2="145.08" y2="71.23" xlink:href="#_未命名的渐变_319"/>
    <linearGradient id="_未命名的渐变_9-3" data-name="未命名的渐变 9" y1="31.08" y2="31.08" xlink:href="#_未命名的渐变_9"/>
    <linearGradient id="_未命名的渐变_322-23" data-name="未命名的渐变 322" x1="4.44" y1="50.41" x2="145.08" y2="50.41" xlink:href="#_未命名的渐变_322"/>
  </defs>
  <g id="_图层_1-2" data-name="图层 1">
    <g id="_核辅助厂房" data-name="核辅助厂房">
      <g id="_背景" data-name="背景" class="cls-59">
        <rect class="cls-55" width="150" height="150"/>
        <rect id="_网格" data-name="网格" class="cls-47" width="150" height="150"/>
      </g>
      <g>
        <g class="cls-58">
          <path class="cls-2" d="m144.06,68.39l-.09,32.61c-.03,10.14-6.69,20.27-20.01,28-26.8,15.57-70.39,15.57-97.37,0-13.57-7.84-20.35-18.12-20.32-28.4l.09-32.61c-.03,10.27,6.75,20.56,20.32,28.4,26.98,15.57,70.57,15.57,97.37,0,13.31-7.74,19.98-17.86,20.01-28Z"/>
          <ellipse class="cls-1" cx="75.21" cy="68.19" rx="39.88" ry="68.85" transform="translate(6.8 143.21) rotate(-89.84)"/>
          <ellipse class="cls-48" cx="75.74" cy="67.79" rx="34.6" ry="61.94" transform="translate(7.75 143.36) rotate(-89.85)"/>
        </g>
        <g>
          <g class="cls-58">
            <path class="cls-54" d="m73.85,92.02s0,0,0,0c0,.02.02.05.04.07,0,0,0,0,0,.01.02.02.04.04.06.07.02.01.03.03.05.04.02.01.03.02.05.03.04.03.1.05.15.06.02,0,.04.01.06.02.02,0,.05.01.08.02.03,0,.06.01.09.02,0,0,.01,0,.02,0,.04,0,.08,0,.13,0,0,0,.01,0,.02,0,.04,0,.08,0,.12,0,0,0,.01,0,.02,0,.04,0,.08-.01.12-.02,0,0,.01,0,.02,0,.04,0,.07-.02.1-.03,0,0,.01,0,.02,0,.04-.02.08-.03.11-.05.15-.09.22-.2.22-.31v15.89c0,.11-.07.22-.22.31-.03.02-.07.04-.11.05,0,0,0,0,0,0,0,0-.01,0-.02,0-.02,0-.04.02-.07.02-.01,0-.02,0-.04,0,0,0-.01,0-.02,0,0,0-.01,0-.02,0-.02,0-.05,0-.07.01,0,0-.02,0-.03,0,0,0-.01,0-.02,0,0,0-.02,0-.03,0-.02,0-.05,0-.07,0,0,0-.02,0-.02,0,0,0-.01,0-.02,0-.01,0-.02,0-.03,0-.03,0-.06,0-.08,0,0,0,0,0,0,0,0,0-.01,0-.02,0-.02,0-.04,0-.06,0,0,0-.02,0-.03,0-.03,0-.05-.01-.08-.02-.01,0-.03,0-.04,0,0,0-.01,0-.02,0-.05-.02-.1-.04-.15-.07,0,0,0,0,0,0-.01,0-.02-.02-.04-.03-.02-.01-.04-.03-.05-.04,0,0,0,0,0,0-.02-.02-.03-.03-.05-.05,0,0,0,0,0-.01,0,0,0,0,0-.01,0,0,0-.01-.01-.02,0-.01-.01-.03-.02-.04,0,0,0,0,0,0,0,0,0,0,0,0,0,0,0-.02,0-.03,0-.01,0-.03,0-.04,0,0,0,0,0,0v-15.89s0,.05,0,.08Z"/>
            <path class="cls-53" d="m74.06,91.63c-.29.17-.29.45,0,.62.29.17.77.17,1.06,0,.29-.17.3-.44,0-.61-.29-.17-.77-.17-1.06,0Z"/>
          </g>
          <g class="cls-58">
            <path class="cls-44" d="m92.29,90.83s0,0,0,0c0,.02.02.05.04.07,0,0,0,0,0,.01.02.02.04.04.06.07.02.01.03.03.05.04.02.01.03.02.05.03.04.03.1.05.15.06.02,0,.04.01.06.02.02,0,.05.01.08.02.03,0,.06.01.09.02,0,0,.01,0,.02,0,.04,0,.08,0,.13,0,0,0,.01,0,.02,0,.04,0,.08,0,.12,0,0,0,.01,0,.02,0,.04,0,.08-.01.12-.02,0,0,.01,0,.02,0,.04,0,.07-.02.1-.03,0,0,.01,0,.02,0,.04-.02.08-.03.11-.05.15-.09.22-.2.22-.31v15.89c0,.11-.07.22-.22.31-.03.02-.07.04-.11.05,0,0,0,0,0,0,0,0-.01,0-.02,0-.02,0-.04.02-.07.02-.01,0-.02,0-.04,0,0,0-.01,0-.02,0,0,0-.01,0-.02,0-.02,0-.05,0-.07.01,0,0-.02,0-.03,0,0,0-.01,0-.02,0,0,0-.02,0-.03,0-.02,0-.05,0-.07,0,0,0-.02,0-.02,0,0,0-.01,0-.02,0-.01,0-.02,0-.03,0-.03,0-.06,0-.08,0,0,0,0,0,0,0,0,0-.01,0-.02,0-.02,0-.04,0-.06,0,0,0-.02,0-.03,0-.03,0-.05-.01-.08-.02-.01,0-.03,0-.04,0,0,0-.01,0-.02,0-.05-.02-.1-.04-.15-.07,0,0,0,0,0,0-.01,0-.02-.02-.04-.03-.02-.01-.04-.03-.05-.04,0,0,0,0,0,0-.02-.02-.03-.03-.05-.05,0,0,0,0,0-.01,0,0,0,0,0-.01,0,0,0-.01-.01-.02,0-.01-.01-.03-.02-.04,0,0,0,0,0,0,0,0,0,0,0,0,0,0,0-.02,0-.03,0-.01,0-.03,0-.04,0,0,0,0,0,0v-15.89s0,.05,0,.08Z"/>
            <path class="cls-36" d="m92.5,90.44c-.29.17-.29.45,0,.62.29.17.77.17,1.06,0,.29-.17.3-.44,0-.61-.29-.17-.77-.17-1.06,0Z"/>
          </g>
          <g class="cls-58">
            <path class="cls-43" d="m110.14,86.22s0,0,0,0c0,.02.02.05.04.07,0,0,0,0,0,.01.02.02.04.04.06.07.02.01.03.03.05.04.02.01.03.02.05.03.04.03.1.05.15.06.02,0,.04.01.06.02.02,0,.05.01.08.02.03,0,.06.01.09.02,0,0,.01,0,.02,0,.04,0,.08,0,.13,0,0,0,.01,0,.02,0,.04,0,.08,0,.12,0,0,0,.01,0,.02,0,.04,0,.08-.01.12-.02,0,0,.01,0,.02,0,.04,0,.07-.02.1-.03,0,0,.01,0,.02,0,.04-.02.08-.03.11-.05.15-.09.22-.2.22-.31v15.89c0,.11-.07.22-.22.31-.03.02-.07.04-.11.05,0,0,0,0,0,0,0,0-.01,0-.02,0-.02,0-.04.02-.07.02-.01,0-.02,0-.04,0,0,0-.01,0-.02,0,0,0-.01,0-.02,0-.02,0-.05,0-.07.01,0,0-.02,0-.03,0,0,0-.01,0-.02,0,0,0-.02,0-.03,0-.02,0-.05,0-.07,0,0,0-.02,0-.02,0,0,0-.01,0-.02,0-.01,0-.02,0-.03,0-.03,0-.06,0-.08,0,0,0,0,0,0,0,0,0-.01,0-.02,0-.02,0-.04,0-.06,0,0,0-.02,0-.03,0-.03,0-.05-.01-.08-.02-.01,0-.03,0-.04,0,0,0-.01,0-.02,0-.05-.02-.1-.04-.15-.07,0,0,0,0,0,0-.01,0-.02-.02-.04-.03-.02-.01-.04-.03-.05-.04,0,0,0,0,0,0-.02-.02-.03-.03-.05-.05,0,0,0,0,0-.01,0,0,0,0,0-.01,0,0,0-.01-.01-.02,0-.01-.01-.03-.02-.04,0,0,0,0,0,0,0,0,0,0,0,0,0,0,0-.02,0-.03,0-.01,0-.03,0-.04,0,0,0,0,0,0v-15.89s0,.05,0,.08Z"/>
            <path class="cls-31" d="m110.35,85.83c-.29.17-.29.45,0,.62.29.17.77.17,1.06,0,.29-.17.3-.44,0-.61-.29-.17-.77-.17-1.06,0Z"/>
          </g>
          <g class="cls-58">
            <path class="cls-41" d="m126.94,77.44s0,0,0,0c0,.02.02.05.04.07,0,0,0,0,0,.01.02.02.04.04.06.07.02.01.03.03.05.04.02.01.03.02.05.03.04.03.1.05.15.06.02,0,.04.01.06.02.02,0,.05.01.08.02.03,0,.06.01.09.02,0,0,.01,0,.02,0,.04,0,.08,0,.13,0,0,0,.01,0,.02,0,.04,0,.08,0,.12,0,0,0,.01,0,.02,0,.04,0,.08-.01.12-.02,0,0,.01,0,.02,0,.04,0,.07-.02.1-.03,0,0,.01,0,.02,0,.04-.02.08-.03.11-.05.15-.09.22-.2.22-.31v15.89c0,.11-.07.22-.22.31-.03.02-.07.04-.11.05,0,0,0,0,0,0,0,0-.01,0-.02,0-.02,0-.04.02-.07.02-.01,0-.02,0-.04,0,0,0-.01,0-.02,0,0,0-.01,0-.02,0-.02,0-.05,0-.07.01,0,0-.02,0-.03,0,0,0-.01,0-.02,0,0,0-.02,0-.03,0-.02,0-.05,0-.07,0,0,0-.02,0-.02,0,0,0-.01,0-.02,0-.01,0-.02,0-.03,0-.03,0-.06,0-.08,0,0,0,0,0,0,0,0,0-.01,0-.02,0-.02,0-.04,0-.06,0,0,0-.02,0-.03,0-.03,0-.05-.01-.08-.02-.01,0-.03,0-.04,0,0,0-.01,0-.02,0-.05-.02-.1-.04-.15-.07,0,0,0,0,0,0-.01,0-.02-.02-.04-.03-.02-.01-.04-.03-.05-.04,0,0,0,0,0,0-.02-.02-.03-.03-.05-.05,0,0,0,0,0-.01,0,0,0,0,0-.01,0,0,0-.01-.01-.02,0-.01-.01-.03-.02-.04,0,0,0,0,0,0,0,0,0,0,0,0,0,0,0-.02,0-.03,0-.01,0-.03,0-.04,0,0,0,0,0,0v-15.89s0,.05,0,.08Z"/>
            <path class="cls-35" d="m127.15,77.06c-.29.17-.29.45,0,.62.29.17.77.17,1.06,0,.29-.17.3-.44,0-.61-.29-.17-.77-.17-1.06,0Z"/>
          </g>
          <g class="cls-58">
            <path class="cls-40" d="m140.77,63.17s0,0,0,0c0,.02.02.05.04.07,0,0,0,0,0,.01.02.02.04.04.06.07.02.01.03.03.05.04.02.01.03.02.05.03.04.03.1.05.15.06.02,0,.04.01.06.02.02,0,.05.01.08.02.03,0,.06.01.09.02,0,0,.01,0,.02,0,.04,0,.08,0,.13,0,0,0,.01,0,.02,0,.04,0,.08,0,.12,0,0,0,.01,0,.02,0,.04,0,.08-.01.12-.02,0,0,.01,0,.02,0,.04,0,.07-.02.1-.03,0,0,.01,0,.02,0,.04-.02.08-.03.11-.05.15-.09.22-.2.22-.31v15.89c0,.11-.07.22-.22.31-.03.02-.07.04-.11.05,0,0,0,0,0,0,0,0-.01,0-.02,0-.02,0-.04.02-.07.02-.01,0-.02,0-.04,0,0,0-.01,0-.02,0,0,0-.01,0-.02,0-.02,0-.05,0-.07.01,0,0-.02,0-.03,0,0,0-.01,0-.02,0,0,0-.02,0-.03,0-.02,0-.05,0-.07,0,0,0-.02,0-.02,0,0,0-.01,0-.02,0-.01,0-.02,0-.03,0-.03,0-.06,0-.08,0,0,0,0,0,0,0,0,0-.01,0-.02,0-.02,0-.04,0-.06,0,0,0-.02,0-.03,0-.03,0-.05-.01-.08-.02-.01,0-.03,0-.04,0,0,0-.01,0-.02,0-.05-.02-.1-.04-.15-.07,0,0,0,0,0,0-.01,0-.02-.02-.04-.03-.02-.01-.04-.03-.05-.04,0,0,0,0,0,0-.02-.02-.03-.03-.05-.05,0,0,0,0,0-.01,0,0,0,0,0-.01,0,0,0-.01-.01-.02,0-.01-.01-.03-.02-.04,0,0,0,0,0,0,0,0,0,0,0,0,0,0,0-.02,0-.03,0-.01,0-.03,0-.04,0,0,0,0,0,0v-15.89s0,.05,0,.08Z"/>
            <path class="cls-37" d="m140.98,62.78c-.29.17-.29.45,0,.62.29.17.77.17,1.06,0,.29-.17.3-.44,0-.61-.29-.17-.77-.17-1.06,0Z"/>
          </g>
          <g class="cls-58">
            <path class="cls-42" d="m58.46,90.45s0,0,0,0c0,.02.02.05.04.07,0,0,0,0,0,.01.02.02.04.04.06.07.02.01.03.03.05.04.02.01.03.02.05.03.04.03.1.05.15.06.02,0,.04.01.06.02.02,0,.05.01.08.02.03,0,.06.01.09.02,0,0,.01,0,.02,0,.04,0,.08,0,.13,0,0,0,.01,0,.02,0,.04,0,.08,0,.12,0,0,0,.01,0,.02,0,.04,0,.08-.01.12-.02,0,0,.01,0,.02,0,.04,0,.07-.02.1-.03,0,0,.01,0,.02,0,.04-.02.08-.03.11-.05.15-.09.22-.2.22-.31v15.89c0,.11-.07.22-.22.31-.03.02-.07.04-.11.05,0,0,0,0,0,0,0,0-.01,0-.02,0-.02,0-.04.02-.07.02-.01,0-.02,0-.04,0,0,0-.01,0-.02,0,0,0-.01,0-.02,0-.02,0-.05,0-.07.01,0,0-.02,0-.03,0,0,0-.01,0-.02,0,0,0-.02,0-.03,0-.02,0-.05,0-.07,0,0,0-.02,0-.02,0,0,0-.01,0-.02,0-.01,0-.02,0-.03,0-.03,0-.06,0-.08,0,0,0,0,0,0,0,0,0-.01,0-.02,0-.02,0-.04,0-.06,0,0,0-.02,0-.03,0-.03,0-.05-.01-.08-.02-.01,0-.03,0-.04,0,0,0-.01,0-.02,0-.05-.02-.1-.04-.15-.07,0,0,0,0,0,0-.01,0-.02-.02-.04-.03-.02-.01-.04-.03-.05-.04,0,0,0,0,0,0-.02-.02-.03-.03-.05-.05,0,0,0,0,0-.01,0,0,0,0,0-.01,0,0,0-.01-.01-.02,0-.01-.01-.03-.02-.04,0,0,0,0,0,0,0,0,0,0,0,0,0,0,0-.02,0-.03,0-.01,0-.03,0-.04,0,0,0,0,0,0v-15.89s0,.05,0,.08Z"/>
            <path class="cls-38" d="m58.67,90.07c-.29.17-.29.45,0,.62.29.17.77.17,1.06,0,.29-.17.3-.44,0-.61-.29-.17-.77-.17-1.06,0Z"/>
          </g>
          <g class="cls-58">
            <path class="cls-39" d="m44.41,88s0,0,0,0c0,.02.02.05.04.07,0,0,0,0,0,.01.02.02.04.04.06.07.02.01.03.03.05.04.02.01.03.02.05.03.04.03.1.05.15.06.02,0,.04.01.06.02.02,0,.05.01.08.02.03,0,.06.01.09.02,0,0,.01,0,.02,0,.04,0,.08,0,.13,0,0,0,.01,0,.02,0,.04,0,.08,0,.12,0,0,0,.01,0,.02,0,.04,0,.08-.01.12-.02,0,0,.01,0,.02,0,.04,0,.07-.02.1-.03,0,0,.01,0,.02,0,.04-.02.08-.03.11-.05.15-.09.22-.2.22-.31v15.89c0,.11-.07.22-.22.31-.03.02-.07.04-.11.05,0,0,0,0,0,0,0,0-.01,0-.02,0-.02,0-.04.02-.07.02-.01,0-.02,0-.04,0,0,0-.01,0-.02,0,0,0-.01,0-.02,0-.02,0-.05,0-.07.01,0,0-.02,0-.03,0,0,0-.01,0-.02,0,0,0-.02,0-.03,0-.02,0-.05,0-.07,0,0,0-.02,0-.02,0,0,0-.01,0-.02,0-.01,0-.02,0-.03,0-.03,0-.06,0-.08,0,0,0,0,0,0,0,0,0-.01,0-.02,0-.02,0-.04,0-.06,0,0,0-.02,0-.03,0-.03,0-.05-.01-.08-.02-.01,0-.03,0-.04,0,0,0-.01,0-.02,0-.05-.02-.1-.04-.15-.07,0,0,0,0,0,0-.01,0-.02-.02-.04-.03-.02-.01-.04-.03-.05-.04,0,0,0,0,0,0-.02-.02-.03-.03-.05-.05,0,0,0,0,0-.01,0,0,0,0,0-.01,0,0,0-.01-.01-.02,0-.01-.01-.03-.02-.04,0,0,0,0,0,0,0,0,0,0,0,0,0,0,0-.02,0-.03,0-.01,0-.03,0-.04,0,0,0,0,0,0v-15.89s0,.05,0,.08Z"/>
            <path class="cls-34" d="m44.62,87.61c-.29.17-.29.45,0,.62.29.17.77.17,1.06,0,.29-.17.3-.44,0-.61-.29-.17-.77-.17-1.06,0Z"/>
          </g>
          <g class="cls-58">
            <path class="cls-33" d="m36.92,85.16c-.29.17-.29.45,0,.62.29.17.77.17,1.06,0,.29-.17.3-.44,0-.61-.29-.17-.77-.17-1.06,0Z"/>
          </g>
          <g class="cls-58">
            <path class="cls-45" d="m31.03,83.32s0,0,0,0c0,.02.02.05.04.07,0,0,0,0,0,.01.02.02.04.04.06.07.02.01.03.03.05.04.02.01.03.02.05.03.04.03.1.05.15.06.02,0,.04.01.06.02.02,0,.05.01.08.02.03,0,.06.01.09.02,0,0,.01,0,.02,0,.04,0,.08,0,.13,0,0,0,.01,0,.02,0,.04,0,.08,0,.12,0,0,0,.01,0,.02,0,.04,0,.08-.01.12-.02,0,0,.01,0,.02,0,.04,0,.07-.02.1-.03,0,0,.01,0,.02,0,.04-.02.08-.03.11-.05.15-.09.22-.2.22-.31v15.89c0,.11-.07.22-.22.31-.03.02-.07.04-.11.05,0,0,0,0,0,0,0,0-.01,0-.02,0-.02,0-.04.02-.07.02-.01,0-.02,0-.04,0,0,0-.01,0-.02,0,0,0-.01,0-.02,0-.02,0-.05,0-.07.01,0,0-.02,0-.03,0,0,0-.01,0-.02,0,0,0-.02,0-.03,0-.02,0-.05,0-.07,0,0,0-.02,0-.02,0,0,0-.01,0-.02,0-.01,0-.02,0-.03,0-.03,0-.06,0-.08,0,0,0,0,0,0,0,0,0-.01,0-.02,0-.02,0-.04,0-.06,0,0,0-.02,0-.03,0-.03,0-.05-.01-.08-.02-.01,0-.03,0-.04,0,0,0-.01,0-.02,0-.05-.02-.1-.04-.15-.07,0,0,0,0,0,0-.01,0-.02-.02-.04-.03-.02-.01-.04-.03-.05-.04,0,0,0,0,0,0-.02-.02-.03-.03-.05-.05,0,0,0,0,0-.01,0,0,0,0,0-.01,0,0,0-.01-.01-.02,0-.01-.01-.03-.02-.04,0,0,0,0,0,0,0,0,0,0,0,0,0,0,0-.02,0-.03,0-.01,0-.03,0-.04,0,0,0,0,0,0v-15.89s0,.05,0,.08Z"/>
            <path class="cls-32" d="m31.24,82.93c-.29.17-.29.45,0,.62.29.17.77.17,1.06,0,.29-.17.3-.44,0-.61-.29-.17-.77-.17-1.06,0Z"/>
          </g>
          <g class="cls-58">
            <path class="cls-46" d="m16.64,74.62s0,0,0,0c0,.02.02.05.04.07,0,0,0,0,0,.01.02.02.04.04.06.07.02.01.03.03.05.04.02.01.03.02.05.03.04.03.1.05.15.06.02,0,.04.01.06.02.02,0,.05.01.08.02.03,0,.06.01.09.02,0,0,.01,0,.02,0,.04,0,.08,0,.13,0,0,0,.01,0,.02,0,.04,0,.08,0,.12,0,0,0,.01,0,.02,0,.04,0,.08-.01.12-.02,0,0,.01,0,.02,0,.04,0,.07-.02.1-.03,0,0,.01,0,.02,0,.04-.02.08-.03.11-.05.15-.09.22-.2.22-.31v15.89c0,.11-.07.22-.22.31-.03.02-.07.04-.11.05,0,0,0,0,0,0,0,0-.01,0-.02,0-.02,0-.04.02-.07.02-.01,0-.02,0-.04,0,0,0-.01,0-.02,0,0,0-.01,0-.02,0-.02,0-.05,0-.07.01,0,0-.02,0-.03,0,0,0-.01,0-.02,0,0,0-.02,0-.03,0-.02,0-.05,0-.07,0,0,0-.02,0-.02,0,0,0-.01,0-.02,0-.01,0-.02,0-.03,0-.03,0-.06,0-.08,0,0,0,0,0,0,0,0,0-.01,0-.02,0-.02,0-.04,0-.06,0,0,0-.02,0-.03,0-.03,0-.05-.01-.08-.02-.01,0-.03,0-.04,0,0,0-.01,0-.02,0-.05-.02-.1-.04-.15-.07,0,0,0,0,0,0-.01,0-.02-.02-.04-.03-.02-.01-.04-.03-.05-.04,0,0,0,0,0,0-.02-.02-.03-.03-.05-.05,0,0,0,0,0-.01,0,0,0,0,0-.01,0,0,0-.01-.01-.02,0-.01-.01-.03-.02-.04,0,0,0,0,0,0,0,0,0,0,0,0,0,0,0-.02,0-.03,0-.01,0-.03,0-.04,0,0,0,0,0,0v-15.89s0,.05,0,.08Z"/>
            <path class="cls-30" d="m16.85,74.23c-.29.17-.29.45,0,.62.29.17.77.17,1.06,0,.29-.17.3-.44,0-.61-.29-.17-.77-.17-1.06,0Z"/>
          </g>
          <g class="cls-58">
            <path class="cls-9" d="m7.5,39.15s0,0,0,0c0,.02.02.05.04.07,0,0,0,0,0,.01.02.02.04.04.06.07.02.01.03.03.05.04.02.01.03.02.05.03.04.03.1.05.15.06.02,0,.04.01.06.02.02,0,.05.01.08.02.03,0,.06.01.09.02,0,0,.01,0,.02,0,.04,0,.08,0,.13,0,0,0,.01,0,.02,0,.04,0,.08,0,.12,0,0,0,.01,0,.02,0,.04,0,.08-.01.12-.02,0,0,.01,0,.02,0,.04,0,.07-.02.1-.03,0,0,.01,0,.02,0,.04-.02.08-.03.11-.05.15-.09.22-.2.22-.31v15.89c0,.11-.07.22-.22.31-.03.02-.07.04-.11.05,0,0,0,0,0,0,0,0-.01,0-.02,0-.02,0-.04.02-.07.02-.01,0-.02,0-.04,0,0,0-.01,0-.02,0,0,0-.01,0-.02,0-.02,0-.05,0-.07.01,0,0-.02,0-.03,0,0,0-.01,0-.02,0,0,0-.02,0-.03,0-.02,0-.05,0-.07,0,0,0-.02,0-.02,0,0,0-.01,0-.02,0-.01,0-.02,0-.03,0-.03,0-.06,0-.08,0,0,0,0,0,0,0,0,0-.01,0-.02,0-.02,0-.04,0-.06,0,0,0-.02,0-.03,0-.03,0-.05-.01-.08-.02-.01,0-.03,0-.04,0,0,0-.01,0-.02,0-.05-.02-.1-.04-.15-.07,0,0,0,0,0,0-.01,0-.02-.02-.04-.03-.02-.01-.04-.03-.05-.04,0,0,0,0,0,0-.02-.02-.03-.03-.05-.05,0,0,0,0,0-.01,0,0,0,0,0-.01,0,0,0-.01-.01-.02,0-.01-.01-.03-.02-.04,0,0,0,0,0,0,0,0,0,0,0,0,0,0,0-.02,0-.03,0-.01,0-.03,0-.04,0,0,0,0,0,0v-15.89s0,.05,0,.08Z"/>
            <path class="cls-23" d="m7.7,38.76c-.29.17-.29.45,0,.62.29.17.77.17,1.06,0,.29-.17.3-.44,0-.61-.29-.17-.77-.17-1.06,0Z"/>
          </g>
          <g class="cls-58">
            <path class="cls-7" d="m16.98,28.22s0,0,0,0c0,.02.02.05.04.07,0,0,0,0,0,.01.02.02.04.04.06.07.02.01.03.03.05.04.02.01.03.02.05.03.04.03.1.05.15.06.02,0,.04.01.06.02.02,0,.05.01.08.02.03,0,.06.01.09.02,0,0,.01,0,.02,0,.04,0,.08,0,.13,0,0,0,.01,0,.02,0,.04,0,.08,0,.12,0,0,0,.01,0,.02,0,.04,0,.08-.01.12-.02,0,0,.01,0,.02,0,.04,0,.07-.02.1-.03,0,0,.01,0,.02,0,.04-.02.08-.03.11-.05.15-.09.22-.2.22-.31v15.89c0,.11-.07.22-.22.31-.03.02-.07.04-.11.05,0,0,0,0,0,0,0,0-.01,0-.02,0-.02,0-.04.02-.07.02-.01,0-.02,0-.04,0,0,0-.01,0-.02,0,0,0-.01,0-.02,0-.02,0-.05,0-.07.01,0,0-.02,0-.03,0,0,0-.01,0-.02,0,0,0-.02,0-.03,0-.02,0-.05,0-.07,0,0,0-.02,0-.02,0,0,0-.01,0-.02,0-.01,0-.02,0-.03,0-.03,0-.06,0-.08,0,0,0,0,0,0,0,0,0-.01,0-.02,0-.02,0-.04,0-.06,0,0,0-.02,0-.03,0-.03,0-.05-.01-.08-.02-.01,0-.03,0-.04,0,0,0-.01,0-.02,0-.05-.02-.1-.04-.15-.07,0,0,0,0,0,0-.01,0-.02-.02-.04-.03-.02-.01-.04-.03-.05-.04,0,0,0,0,0,0-.02-.02-.03-.03-.05-.05,0,0,0,0,0-.01,0,0,0,0,0-.01,0,0,0-.01-.01-.02,0-.01-.01-.03-.02-.04,0,0,0,0,0,0,0,0,0,0,0,0,0,0,0-.02,0-.03,0-.01,0-.03,0-.04,0,0,0,0,0,0v-15.89s0,.05,0,.08Z"/>
            <path class="cls-21" d="m17.18,27.83c-.29.17-.29.45,0,.62.29.17.77.17,1.06,0,.29-.17.3-.44,0-.61-.29-.17-.77-.17-1.06,0Z"/>
          </g>
          <g class="cls-58">
            <path class="cls-10" d="m29.58,20.3s0,0,0,0c0,.02.02.05.04.07,0,0,0,0,0,.01.02.02.04.04.06.07.02.01.03.03.05.04.02.01.03.02.05.03.04.03.1.05.15.06.02,0,.04.01.06.02.02,0,.05.01.08.02.03,0,.06.01.09.02,0,0,.01,0,.02,0,.04,0,.08,0,.13,0,0,0,.01,0,.02,0,.04,0,.08,0,.12,0,0,0,.01,0,.02,0,.04,0,.08-.01.12-.02,0,0,.01,0,.02,0,.04,0,.07-.02.1-.03,0,0,.01,0,.02,0,.04-.02.08-.03.11-.05.15-.09.22-.2.22-.31v15.89c0,.11-.07.22-.22.31-.03.02-.07.04-.11.05,0,0,0,0,0,0,0,0-.01,0-.02,0-.02,0-.04.02-.07.02-.01,0-.02,0-.04,0,0,0-.01,0-.02,0,0,0-.01,0-.02,0-.02,0-.05,0-.07.01,0,0-.02,0-.03,0,0,0-.01,0-.02,0,0,0-.02,0-.03,0-.02,0-.05,0-.07,0,0,0-.02,0-.02,0,0,0-.01,0-.02,0-.01,0-.02,0-.03,0-.03,0-.06,0-.08,0,0,0,0,0,0,0,0,0-.01,0-.02,0-.02,0-.04,0-.06,0,0,0-.02,0-.03,0-.03,0-.05-.01-.08-.02-.01,0-.03,0-.04,0,0,0-.01,0-.02,0-.05-.02-.1-.04-.15-.07,0,0,0,0,0,0-.01,0-.02-.02-.04-.03-.02-.01-.04-.03-.05-.04,0,0,0,0,0,0-.02-.02-.03-.03-.05-.05,0,0,0,0,0-.01,0,0,0,0,0-.01,0,0,0-.01-.01-.02,0-.01-.01-.03-.02-.04,0,0,0,0,0,0,0,0,0,0,0,0,0,0,0-.02,0-.03,0-.01,0-.03,0-.04,0,0,0,0,0,0v-15.89s0,.05,0,.08Z"/>
            <path class="cls-18" d="m29.79,19.92c-.29.17-.29.45,0,.62.29.17.77.17,1.06,0,.29-.17.3-.44,0-.61-.29-.17-.77-.17-1.06,0Z"/>
          </g>
          <g class="cls-58">
            <path class="cls-5" d="m43.41,15.17s0,0,0,0c0,.02.02.05.04.07,0,0,0,0,0,.01.02.02.04.04.06.07.02.01.03.03.05.04.02.01.03.02.05.03.04.03.1.05.15.06.02,0,.04.01.06.02.02,0,.05.01.08.02.03,0,.06.01.09.02,0,0,.01,0,.02,0,.04,0,.08,0,.13,0,0,0,.01,0,.02,0,.04,0,.08,0,.12,0,0,0,.01,0,.02,0,.04,0,.08-.01.12-.02,0,0,.01,0,.02,0,.04,0,.07-.02.1-.03,0,0,.01,0,.02,0,.04-.02.08-.03.11-.05.15-.09.22-.2.22-.31v15.89c0,.11-.07.22-.22.31-.03.02-.07.04-.11.05,0,0,0,0,0,0,0,0-.01,0-.02,0-.02,0-.04.02-.07.02-.01,0-.02,0-.04,0,0,0-.01,0-.02,0,0,0-.01,0-.02,0-.02,0-.05,0-.07.01,0,0-.02,0-.03,0,0,0-.01,0-.02,0,0,0-.02,0-.03,0-.02,0-.05,0-.07,0,0,0-.02,0-.02,0,0,0-.01,0-.02,0-.01,0-.02,0-.03,0-.03,0-.06,0-.08,0,0,0,0,0,0,0,0,0-.01,0-.02,0-.02,0-.04,0-.06,0,0,0-.02,0-.03,0-.03,0-.05-.01-.08-.02-.01,0-.03,0-.04,0,0,0-.01,0-.02,0-.05-.02-.1-.04-.15-.07,0,0,0,0,0,0-.01,0-.02-.02-.04-.03-.02-.01-.04-.03-.05-.04,0,0,0,0,0,0-.02-.02-.03-.03-.05-.05,0,0,0,0,0-.01,0,0,0,0,0-.01,0,0,0-.01-.01-.02,0-.01-.01-.03-.02-.04,0,0,0,0,0,0,0,0,0,0,0,0,0,0,0-.02,0-.03,0-.01,0-.03,0-.04,0,0,0,0,0,0v-15.89s0,.05,0,.08Z"/>
            <path class="cls-22" d="m43.62,14.79c-.29.17-.29.45,0,.62.29.17.77.17,1.06,0,.29-.17.3-.44,0-.61-.29-.17-.77-.17-1.06,0Z"/>
          </g>
          <g class="cls-58">
            <path class="cls-4" d="m64.34,10.99s0,0,0,0c0,.02.02.05.04.07,0,0,0,0,0,.01.02.02.04.04.06.07.02.01.03.03.05.04.02.01.03.02.05.03.04.03.1.05.15.06.02,0,.04.01.06.02.02,0,.05.01.08.02.03,0,.06.01.09.02,0,0,.01,0,.02,0,.04,0,.08,0,.13,0,0,0,.01,0,.02,0,.04,0,.08,0,.12,0,0,0,.01,0,.02,0,.04,0,.08-.01.12-.02,0,0,.01,0,.02,0,.04,0,.07-.02.1-.03,0,0,.01,0,.02,0,.04-.02.08-.03.11-.05.15-.09.22-.2.22-.31v15.89c0,.11-.07.22-.22.31-.03.02-.07.04-.11.05,0,0,0,0,0,0,0,0-.01,0-.02,0-.02,0-.04.02-.07.02-.01,0-.02,0-.04,0,0,0-.01,0-.02,0,0,0-.01,0-.02,0-.02,0-.05,0-.07.01,0,0-.02,0-.03,0,0,0-.01,0-.02,0,0,0-.02,0-.03,0-.02,0-.05,0-.07,0,0,0-.02,0-.02,0,0,0-.01,0-.02,0-.01,0-.02,0-.03,0-.03,0-.06,0-.08,0,0,0,0,0,0,0,0,0-.01,0-.02,0-.02,0-.04,0-.06,0,0,0-.02,0-.03,0-.03,0-.05-.01-.08-.02-.01,0-.03,0-.04,0,0,0-.01,0-.02,0-.05-.02-.1-.04-.15-.07,0,0,0,0,0,0-.01,0-.02-.02-.04-.03-.02-.01-.04-.03-.05-.04,0,0,0,0,0,0-.02-.02-.03-.03-.05-.05,0,0,0,0,0-.01,0,0,0,0,0-.01,0,0,0-.01-.01-.02,0-.01-.01-.03-.02-.04,0,0,0,0,0,0,0,0,0,0,0,0,0,0,0-.02,0-.03,0-.01,0-.03,0-.04,0,0,0,0,0,0v-15.89s0,.05,0,.08Z"/>
            <path class="cls-20" d="m64.55,10.6c-.29.17-.29.45,0,.62.29.17.77.17,1.06,0,.29-.17.3-.44,0-.61-.29-.17-.77-.17-1.06,0Z"/>
          </g>
          <g class="cls-58">
            <path class="cls-6" d="m88.62,12.38s0,0,0,0c0,.02.02.05.04.07,0,0,0,0,0,.01.02.02.04.04.06.07.02.01.03.03.05.04.02.01.03.02.05.03.04.03.1.05.15.06.02,0,.04.01.06.02.02,0,.05.01.08.02.03,0,.06.01.09.02,0,0,.01,0,.02,0,.04,0,.08,0,.13,0,0,0,.01,0,.02,0,.04,0,.08,0,.12,0,0,0,.01,0,.02,0,.04,0,.08-.01.12-.02,0,0,.01,0,.02,0,.04,0,.07-.02.1-.03,0,0,.01,0,.02,0,.04-.02.08-.03.11-.05.15-.09.22-.2.22-.31v15.89c0,.11-.07.22-.22.31-.03.02-.07.04-.11.05,0,0,0,0,0,0,0,0-.01,0-.02,0-.02,0-.04.02-.07.02-.01,0-.02,0-.04,0,0,0-.01,0-.02,0,0,0-.01,0-.02,0-.02,0-.05,0-.07.01,0,0-.02,0-.03,0,0,0-.01,0-.02,0,0,0-.02,0-.03,0-.02,0-.05,0-.07,0,0,0-.02,0-.02,0,0,0-.01,0-.02,0-.01,0-.02,0-.03,0-.03,0-.06,0-.08,0,0,0,0,0,0,0,0,0-.01,0-.02,0-.02,0-.04,0-.06,0,0,0-.02,0-.03,0-.03,0-.05-.01-.08-.02-.01,0-.03,0-.04,0,0,0-.01,0-.02,0-.05-.02-.1-.04-.15-.07,0,0,0,0,0,0-.01,0-.02-.02-.04-.03-.02-.01-.04-.03-.05-.04,0,0,0,0,0,0-.02-.02-.03-.03-.05-.05,0,0,0,0,0-.01,0,0,0,0,0-.01,0,0,0-.01-.01-.02,0-.01-.01-.03-.02-.04,0,0,0,0,0,0,0,0,0,0,0,0,0,0,0-.02,0-.03,0-.01,0-.03,0-.04,0,0,0,0,0,0v-15.89s0,.05,0,.08Z"/>
            <path class="cls-29" d="m88.82,12c-.29.17-.29.45,0,.62.29.17.77.17,1.06,0,.29-.17.3-.44,0-.61-.29-.17-.77-.17-1.06,0Z"/>
          </g>
          <g class="cls-58">
            <path class="cls-8" d="m108.21,16.62s0,0,0,0c0,.02.02.05.04.07,0,0,0,0,0,.01.02.02.04.04.06.07.02.01.03.03.05.04.02.01.03.02.05.03.04.03.1.05.15.06.02,0,.04.01.06.02.02,0,.05.01.08.02.03,0,.06.01.09.02,0,0,.01,0,.02,0,.04,0,.08,0,.13,0,0,0,.01,0,.02,0,.04,0,.08,0,.12,0,0,0,.01,0,.02,0,.04,0,.08-.01.12-.02,0,0,.01,0,.02,0,.04,0,.07-.02.1-.03,0,0,.01,0,.02,0,.04-.02.08-.03.11-.05.15-.09.22-.2.22-.31v15.89c0,.11-.07.22-.22.31-.03.02-.07.04-.11.05,0,0,0,0,0,0,0,0-.01,0-.02,0-.02,0-.04.02-.07.02-.01,0-.02,0-.04,0,0,0-.01,0-.02,0,0,0-.01,0-.02,0-.02,0-.05,0-.07.01,0,0-.02,0-.03,0,0,0-.01,0-.02,0,0,0-.02,0-.03,0-.02,0-.05,0-.07,0,0,0-.02,0-.02,0,0,0-.01,0-.02,0-.01,0-.02,0-.03,0-.03,0-.06,0-.08,0,0,0,0,0,0,0,0,0-.01,0-.02,0-.02,0-.04,0-.06,0,0,0-.02,0-.03,0-.03,0-.05-.01-.08-.02-.01,0-.03,0-.04,0,0,0-.01,0-.02,0-.05-.02-.1-.04-.15-.07,0,0,0,0,0,0-.01,0-.02-.02-.04-.03-.02-.01-.04-.03-.05-.04,0,0,0,0,0,0-.02-.02-.03-.03-.05-.05,0,0,0,0,0-.01,0,0,0,0,0-.01,0,0,0-.01-.01-.02,0-.01-.01-.03-.02-.04,0,0,0,0,0,0,0,0,0,0,0,0,0,0,0-.02,0-.03,0-.01,0-.03,0-.04,0,0,0,0,0,0v-15.89s0,.05,0,.08Z"/>
            <path class="cls-17" d="m108.41,16.24c-.29.17-.29.45,0,.62.29.17.77.17,1.06,0,.29-.17.3-.44,0-.61-.29-.17-.77-.17-1.06,0Z"/>
          </g>
          <g class="cls-58">
            <path class="cls-11" d="m122.7,22.64s0,0,0,0c0,.02.02.05.04.07,0,0,0,0,0,.01.02.02.04.04.06.07.02.01.03.03.05.04.02.01.03.02.05.03.04.03.1.05.15.06.02,0,.04.01.06.02.02,0,.05.01.08.02.03,0,.06.01.09.02,0,0,.01,0,.02,0,.04,0,.08,0,.13,0,0,0,.01,0,.02,0,.04,0,.08,0,.12,0,0,0,.01,0,.02,0,.04,0,.08-.01.12-.02,0,0,.01,0,.02,0,.04,0,.07-.02.1-.03,0,0,.01,0,.02,0,.04-.02.08-.03.11-.05.15-.09.22-.2.22-.31v15.89c0,.11-.07.22-.22.31-.03.02-.07.04-.11.05,0,0,0,0,0,0,0,0-.01,0-.02,0-.02,0-.04.02-.07.02-.01,0-.02,0-.04,0,0,0-.01,0-.02,0,0,0-.01,0-.02,0-.02,0-.05,0-.07.01,0,0-.02,0-.03,0,0,0-.01,0-.02,0,0,0-.02,0-.03,0-.02,0-.05,0-.07,0,0,0-.02,0-.02,0,0,0-.01,0-.02,0-.01,0-.02,0-.03,0-.03,0-.06,0-.08,0,0,0,0,0,0,0,0,0-.01,0-.02,0-.02,0-.04,0-.06,0,0,0-.02,0-.03,0-.03,0-.05-.01-.08-.02-.01,0-.03,0-.04,0,0,0-.01,0-.02,0-.05-.02-.1-.04-.15-.07,0,0,0,0,0,0-.01,0-.02-.02-.04-.03-.02-.01-.04-.03-.05-.04,0,0,0,0,0,0-.02-.02-.03-.03-.05-.05,0,0,0,0,0-.01,0,0,0,0,0-.01,0,0,0-.01-.01-.02,0-.01-.01-.03-.02-.04,0,0,0,0,0,0,0,0,0,0,0,0,0,0,0-.02,0-.03,0-.01,0-.03,0-.04,0,0,0,0,0,0v-15.89s0,.05,0,.08Z"/>
            <path class="cls-19" d="m122.91,22.26c-.29.17-.29.45,0,.62.29.17.77.17,1.06,0,.29-.17.3-.44,0-.61-.29-.17-.77-.17-1.06,0Z"/>
          </g>
          <g class="cls-58">
            <path class="cls-13" d="m134.08,31.34s0,0,0,0c0,.02.02.05.04.07,0,0,0,0,0,.01.02.02.04.04.06.07.02.01.03.03.05.04.02.01.03.02.05.03.04.03.1.05.15.06.02,0,.04.01.06.02.02,0,.05.01.08.02.03,0,.06.01.09.02,0,0,.01,0,.02,0,.04,0,.08,0,.13,0,0,0,.01,0,.02,0,.04,0,.08,0,.12,0,0,0,.01,0,.02,0,.04,0,.08-.01.12-.02,0,0,.01,0,.02,0,.04,0,.07-.02.1-.03,0,0,.01,0,.02,0,.04-.02.08-.03.11-.05.15-.09.22-.2.22-.31v15.89c0,.11-.07.22-.22.31-.03.02-.07.04-.11.05,0,0,0,0,0,0,0,0-.01,0-.02,0-.02,0-.04.02-.07.02-.01,0-.02,0-.04,0,0,0-.01,0-.02,0,0,0-.01,0-.02,0-.02,0-.05,0-.07.01,0,0-.02,0-.03,0,0,0-.01,0-.02,0,0,0-.02,0-.03,0-.02,0-.05,0-.07,0,0,0-.02,0-.02,0,0,0-.01,0-.02,0-.01,0-.02,0-.03,0-.03,0-.06,0-.08,0,0,0,0,0,0,0,0,0-.01,0-.02,0-.02,0-.04,0-.06,0,0,0-.02,0-.03,0-.03,0-.05-.01-.08-.02-.01,0-.03,0-.04,0,0,0-.01,0-.02,0-.05-.02-.1-.04-.15-.07,0,0,0,0,0,0-.01,0-.02-.02-.04-.03-.02-.01-.04-.03-.05-.04,0,0,0,0,0,0-.02-.02-.03-.03-.05-.05,0,0,0,0,0-.01,0,0,0,0,0-.01,0,0,0-.01-.01-.02,0-.01-.01-.03-.02-.04,0,0,0,0,0,0,0,0,0,0,0,0,0,0,0-.02,0-.03,0-.01,0-.03,0-.04,0,0,0,0,0,0v-15.89s0,.05,0,.08Z"/>
            <path class="cls-28" d="m134.29,30.96c-.29.17-.29.45,0,.62.29.17.77.17,1.06,0,.29-.17.3-.44,0-.61-.29-.17-.77-.17-1.06,0Z"/>
          </g>
          <g class="cls-58">
            <path class="cls-12" d="m6.83,62.46s0,0,0,0c0,.02.02.05.04.07,0,0,0,0,0,.01.02.02.04.04.06.07.02.01.03.03.05.04.02.01.03.02.05.03.04.03.1.05.15.06.02,0,.04.01.06.02.02,0,.05.01.08.02.03,0,.06.01.09.02,0,0,.01,0,.02,0,.04,0,.08,0,.13,0,0,0,.01,0,.02,0,.04,0,.08,0,.12,0,0,0,.01,0,.02,0,.04,0,.08-.01.12-.02,0,0,.01,0,.02,0,.04,0,.07-.02.1-.03,0,0,.01,0,.02,0,.04-.02.08-.03.11-.05.15-.09.22-.2.22-.31v15.89c0,.11-.07.22-.22.31-.03.02-.07.04-.11.05,0,0,0,0,0,0,0,0-.01,0-.02,0-.02,0-.04.02-.07.02-.01,0-.02,0-.04,0,0,0-.01,0-.02,0,0,0-.01,0-.02,0-.02,0-.05,0-.07.01,0,0-.02,0-.03,0,0,0-.01,0-.02,0,0,0-.02,0-.03,0-.02,0-.05,0-.07,0,0,0-.02,0-.02,0,0,0-.01,0-.02,0-.01,0-.02,0-.03,0-.03,0-.06,0-.08,0,0,0,0,0,0,0,0,0-.01,0-.02,0-.02,0-.04,0-.06,0,0,0-.02,0-.03,0-.03,0-.05-.01-.08-.02-.01,0-.03,0-.04,0,0,0-.01,0-.02,0-.05-.02-.1-.04-.15-.07,0,0,0,0,0,0-.01,0-.02-.02-.04-.03-.02-.01-.04-.03-.05-.04,0,0,0,0,0,0-.02-.02-.03-.03-.05-.05,0,0,0,0,0-.01,0,0,0,0,0-.01,0,0,0-.01-.01-.02,0-.01-.01-.03-.02-.04,0,0,0,0,0,0,0,0,0,0,0,0,0,0,0-.02,0-.03,0-.01,0-.03,0-.04,0,0,0,0,0,0v-15.89s0,.05,0,.08Z"/>
            <path class="cls-26" d="m7.03,62.07c-.29.17-.29.45,0,.62.29.17.77.17,1.06,0,.29-.17.3-.44,0-.61-.29-.17-.77-.17-1.06,0Z"/>
          </g>
          <g class="cls-58">
            <path class="cls-14" d="m124.68,96.62c-27.35,15.89-71.98,15.88-99.49,0-13.85-8-20.77-18.52-20.74-29.02v1.11c-.03,10.5,6.89,21.02,20.74,29.02,27.51,15.88,72.14,15.89,99.49,0,13.58-7.89,20.37-18.24,20.4-28.61v-1.11c-.03,10.37-6.82,20.72-20.4,28.61Z"/>
            <path class="cls-49" d="m123.41,39.54c-26.99-15.58-70.78-15.58-97.59,0-13.32,7.74-19.99,17.9-20.02,28.07v1.11c.03-10.17,6.69-20.33,20.01-28.07,26.81-15.58,70.6-15.58,97.59,0,13.58,7.84,20.37,18.16,20.34,28.46v-1.11c.03-10.3-6.75-20.62-20.33-28.46Z"/>
            <path class="cls-27" d="m124.35,38.99c-27.53-15.89-72.16-15.88-99.49,0-27.35,15.89-27.2,41.74.32,57.63,27.51,15.88,72.15,15.89,99.49,0,27.33-15.88,27.19-41.75-.32-57.63Zm-.63,57.08c-26.81,15.58-70.6,15.58-97.59,0-26.99-15.58-27.13-40.95-.32-56.53,26.81-15.58,70.6-15.58,97.59,0,26.99,15.58,27.13,40.95.32,56.53Z"/>
          </g>
          <g class="cls-58">
            <path class="cls-15" d="m124.68,84.91c-27.35,15.89-71.98,15.88-99.49,0-13.85-8-20.77-18.52-20.74-29.02v1.11c-.03,10.5,6.89,21.02,20.74,29.02,27.51,15.88,72.14,15.89,99.49,0,13.58-7.89,20.37-18.24,20.4-28.61v-1.11c-.03,10.37-6.82,20.72-20.4,28.61Z"/>
            <path class="cls-51" d="m123.41,27.83c-26.99-15.58-70.78-15.58-97.59,0-13.32,7.74-19.99,17.9-20.02,28.07v1.11c.03-10.17,6.69-20.33,20.01-28.07,26.81-15.58,70.6-15.58,97.59,0,13.58,7.84,20.37,18.16,20.34,28.46v-1.11c.03-10.3-6.75-20.62-20.33-28.46Z"/>
            <path class="cls-24" d="m124.35,27.28c-27.53-15.89-72.16-15.88-99.49,0-27.35,15.89-27.2,41.74.32,57.63,27.51,15.88,72.15,15.89,99.49,0,27.33-15.88,27.19-41.75-.32-57.63Zm-.63,57.08c-26.81,15.58-70.6,15.58-97.59,0C-.86,68.78-1,43.41,25.81,27.83c26.81-15.58,70.6-15.58,97.59,0,26.99,15.58,27.13,40.95.32,56.53Z"/>
          </g>
          <g class="cls-58">
            <path class="cls-16" d="m124.68,79.22c-27.35,15.89-71.98,15.88-99.49,0-13.85-8-20.77-18.52-20.74-29.02v1.11c-.03,10.5,6.89,21.02,20.74,29.02,27.51,15.88,72.14,15.89,99.49,0,13.58-7.89,20.37-18.24,20.4-28.61v-1.11c-.03,10.37-6.82,20.72-20.4,28.61Z"/>
            <path class="cls-52" d="m123.41,22.14c-26.99-15.58-70.78-15.58-97.59,0-13.32,7.74-19.99,17.9-20.02,28.07v1.11c.03-10.17,6.69-20.33,20.01-28.07,26.81-15.58,70.6-15.58,97.59,0,13.58,7.84,20.37,18.16,20.34,28.46v-1.11c.03-10.3-6.75-20.62-20.33-28.46Z"/>
            <path class="cls-25" d="m124.35,21.59c-27.53-15.89-72.16-15.88-99.49,0-27.35,15.89-27.2,41.74.32,57.63,27.51,15.88,72.15,15.89,99.49,0,27.33-15.88,27.19-41.75-.32-57.63Zm-.63,57.08c-26.81,15.58-70.6,15.58-97.59,0C-.86,63.09-1,37.73,25.81,22.14c26.81-15.58,70.6-15.58,97.59,0,26.99,15.58,27.13,40.95.32,56.53Z"/>
          </g>
        </g>
       
      </g>
    </g>
  </g>
</svg>