<?xml version="1.0" encoding="UTF-8"?>
<svg id="_图层_2" data-name="图层 2" xmlns="http://www.w3.org/2000/svg" xmlns:xlink="http://www.w3.org/1999/xlink" viewBox="0 0 149.66 149.92">
  <defs>
    <style>
      .cls-1 {
        fill: url(#_未命名的渐变_88);
      }

      .cls-1, .cls-2, .cls-3, .cls-4, .cls-5, .cls-6, .cls-7, .cls-8, .cls-9, .cls-10, .cls-11, .cls-12, .cls-13, .cls-14, .cls-15, .cls-16, .cls-17, .cls-18, .cls-19, .cls-20, .cls-21, .cls-22, .cls-23, .cls-24, .cls-25, .cls-26, .cls-27, .cls-28, .cls-29, .cls-30, .cls-31, .cls-32, .cls-33, .cls-34, .cls-35, .cls-36, .cls-37, .cls-38, .cls-39, .cls-40, .cls-41, .cls-42, .cls-43, .cls-44, .cls-45, .cls-46, .cls-47, .cls-48, .cls-49, .cls-50, .cls-51, .cls-52, .cls-53, .cls-54, .cls-55, .cls-56, .cls-57, .cls-58, .cls-59, .cls-60, .cls-61, .cls-62, .cls-63, .cls-64, .cls-65, .cls-66, .cls-67, .cls-68, .cls-69, .cls-70, .cls-71, .cls-72, .cls-73, .cls-74, .cls-75, .cls-76, .cls-77, .cls-78, .cls-79, .cls-80, .cls-81, .cls-82 {
        stroke-width: 0px;
      }

      .cls-2 {
        fill: url(#_未命名的渐变_30);
      }

      .cls-83 {
        clip-path: url(#clippath);
      }

      .cls-3 {
        fill: none;
      }

      .cls-4 {
        fill: url(#_未命名的渐变_200-22);
      }

      .cls-5 {
        fill: url(#_未命名的渐变_200-21);
      }

      .cls-6 {
        fill: url(#_未命名的渐变_200-20);
      }

      .cls-7 {
        fill: url(#_未命名的渐变_200-23);
      }

      .cls-8 {
        fill: url(#_未命名的渐变_200-19);
      }

      .cls-9 {
        fill: url(#_未命名的渐变_200-15);
      }

      .cls-10 {
        fill: url(#_未命名的渐变_200-18);
      }

      .cls-11 {
        fill: url(#_未命名的渐变_200-13);
      }

      .cls-12 {
        fill: url(#_未命名的渐变_200-10);
      }

      .cls-13 {
        fill: url(#_未命名的渐变_200-16);
      }

      .cls-14 {
        fill: url(#_未命名的渐变_200-11);
      }

      .cls-15 {
        fill: url(#_未命名的渐变_200-12);
      }

      .cls-16 {
        fill: url(#_未命名的渐变_200-17);
      }

      .cls-17 {
        fill: url(#_未命名的渐变_200-14);
      }

      .cls-18 {
        fill: url(#_未命名的渐变_88-9);
      }

      .cls-19 {
        fill: url(#_未命名的渐变_88-8);
      }

      .cls-20 {
        fill: url(#_未命名的渐变_88-4);
      }

      .cls-21 {
        fill: url(#_未命名的渐变_88-5);
      }

      .cls-22 {
        fill: url(#_未命名的渐变_88-6);
      }

      .cls-23 {
        fill: url(#_未命名的渐变_88-7);
      }

      .cls-24 {
        fill: url(#_未命名的渐变_88-3);
      }

      .cls-25 {
        fill: url(#_未命名的渐变_88-2);
      }

      .cls-26 {
        fill: url(#_未命名的渐变_88-21);
      }

      .cls-27 {
        fill: url(#_未命名的渐变_88-20);
      }

      .cls-28 {
        fill: url(#_未命名的渐变_88-13);
      }

      .cls-29 {
        fill: url(#_未命名的渐变_88-12);
      }

      .cls-30 {
        fill: url(#_未命名的渐变_88-14);
      }

      .cls-31 {
        fill: url(#_未命名的渐变_88-15);
      }

      .cls-32 {
        fill: url(#_未命名的渐变_88-17);
      }

      .cls-33 {
        fill: url(#_未命名的渐变_88-16);
      }

      .cls-34 {
        fill: url(#_未命名的渐变_88-23);
      }

      .cls-35 {
        fill: url(#_未命名的渐变_88-22);
      }

      .cls-36 {
        fill: url(#_未命名的渐变_88-24);
      }

      .cls-37 {
        fill: url(#_未命名的渐变_88-11);
      }

      .cls-38 {
        fill: url(#_未命名的渐变_88-10);
      }

      .cls-39 {
        fill: url(#_未命名的渐变_88-18);
      }

      .cls-40 {
        fill: url(#_未命名的渐变_88-19);
      }

      .cls-41 {
        fill: url(#_未命名的渐变_180-2);
      }

      .cls-42 {
        fill: url(#_未命名的渐变_200-2);
      }

      .cls-43 {
        fill: url(#_未命名的渐变_200-3);
      }

      .cls-44 {
        fill: url(#_未命名的渐变_200-6);
      }

      .cls-45 {
        fill: url(#_未命名的渐变_200-5);
      }

      .cls-46 {
        fill: url(#_未命名的渐变_200-8);
      }

      .cls-47 {
        fill: url(#_未命名的渐变_200-7);
      }

      .cls-48 {
        fill: url(#_未命名的渐变_200-9);
      }

      .cls-49 {
        fill: url(#_未命名的渐变_200-4);
      }

      .cls-50 {
        fill: url(#_未命名的渐变_202-3);
      }

      .cls-51 {
        fill: url(#_未命名的渐变_202-4);
      }

      .cls-52 {
        fill: url(#_未命名的渐变_202-2);
      }

      .cls-53 {
        fill: url(#_新建渐变色板_4);
      }

      .cls-54 {
        fill: url(#_新建渐变色板_3);
      }

      .cls-55 {
        fill: url(#_新建渐变色板_3-10);
      }

      .cls-56 {
        fill: url(#_新建渐变色板_3-11);
      }

      .cls-57 {
        fill: url(#_新建渐变色板_3-12);
      }

      .cls-58 {
        fill: url(#_新建渐变色板_3-13);
      }

      .cls-59 {
        fill: url(#_新建渐变色板_3-14);
      }

      .cls-84 {
        opacity: .2;
      }

      .cls-85 {
        isolation: isolate;
      }

      .cls-61 {
        fill: url(#_未命名的渐变_202);
      }

      .cls-62 {
        fill: url(#_未命名的渐变_200);
      }

      .cls-63 {
        fill: url(#_未命名的渐变_220);
      }

      .cls-64 {
        fill: url(#_未命名的渐变_180);
      }

      .cls-65 {
        fill: #010714;
        opacity: 0;
      }

      .cls-66 {
        fill: #f6f6f6;
      }

      .cls-67 {
        fill: #a2a2a2;
      }

      .cls-68 {
        fill: #44546f;
      }

      .cls-69 {
        fill: #9d9d9d;
      }

      .cls-70 {
        fill: url(#_新建渐变色板_3-6);
      }

      .cls-71 {
        fill: url(#_新建渐变色板_3-5);
      }

      .cls-72 {
        fill: url(#_新建渐变色板_3-4);
      }

      .cls-73 {
        fill: url(#_新建渐变色板_3-3);
      }

      .cls-74 {
        fill: url(#_新建渐变色板_3-2);
      }

      .cls-75 {
        fill: url(#_新建渐变色板_3-8);
      }

      .cls-76 {
        fill: url(#_新建渐变色板_3-7);
      }

      .cls-77 {
        fill: url(#_新建渐变色板_3-9);
      }

      .cls-78 {
        fill: url(#_新建渐变色板_4-4);
      }

      .cls-79 {
        fill: url(#_新建渐变色板_4-2);
      }

      .cls-80 {
        fill: url(#_新建渐变色板_4-3);
      }

      .cls-81 {
        fill: url(#_新建渐变色板_4-6);
      }

      .cls-82 {
        fill: url(#_新建渐变色板_4-5);
      }
    </style>
    <linearGradient id="_未命名的渐变_88" data-name="未命名的渐变 88" x1="143.94" y1="88.02" x2="147.17" y2="88.02" gradientUnits="userSpaceOnUse">
      <stop offset="0" stop-color="#283140"/>
      <stop offset="1" stop-color="#12161a"/>
    </linearGradient>
    <linearGradient id="_未命名的渐变_200" data-name="未命名的渐变 200" x1="142.05" y1="88.4" x2="143.99" y2="88.4" gradientUnits="userSpaceOnUse">
      <stop offset="0" stop-color="#425266"/>
      <stop offset="0" stop-color="#425266"/>
      <stop offset="1" stop-color="#596b8a"/>
    </linearGradient>
    <linearGradient id="_未命名的渐变_88-2" data-name="未命名的渐变 88" x1="136.05" y1="84.12" x2="139.27" y2="84.12" xlink:href="#_未命名的渐变_88"/>
    <linearGradient id="_未命名的渐变_200-2" data-name="未命名的渐变 200" x1="134.16" y1="84.49" x2="136.09" y2="84.49" xlink:href="#_未命名的渐变_200"/>
    <linearGradient id="_未命名的渐变_88-3" data-name="未命名的渐变 88" x1="128.15" y1="81.61" x2="131.38" y2="81.61" xlink:href="#_未命名的渐变_88"/>
    <linearGradient id="_未命名的渐变_200-3" data-name="未命名的渐变 200" x1="126.26" y1="81.98" x2="128.2" y2="81.98" xlink:href="#_未命名的渐变_200"/>
    <linearGradient id="_未命名的渐变_88-4" data-name="未命名的渐变 88" x1="120.26" y1="78.21" x2="123.48" y2="78.21" xlink:href="#_未命名的渐变_88"/>
    <linearGradient id="_未命名的渐变_200-4" data-name="未命名的渐变 200" x1="118.37" y1="78.59" x2="120.3" y2="78.59" xlink:href="#_未命名的渐变_200"/>
    <linearGradient id="_未命名的渐变_88-5" data-name="未命名的渐变 88" x1="104.47" y1="72.9" x2="107.69" y2="72.9" xlink:href="#_未命名的渐变_88"/>
    <linearGradient id="_未命名的渐变_200-5" data-name="未命名的渐变 200" x1="102.58" y1="73.28" x2="104.51" y2="73.28" xlink:href="#_未命名的渐变_200"/>
    <linearGradient id="_未命名的渐变_88-6" data-name="未命名的渐变 88" x1="96.57" y1="67.98" x2="99.8" y2="67.98" xlink:href="#_未命名的渐变_88"/>
    <linearGradient id="_未命名的渐变_200-6" data-name="未命名的渐变 200" x1="94.68" y1="68.36" x2="96.62" y2="68.36" xlink:href="#_未命名的渐变_200"/>
    <linearGradient id="_未命名的渐变_88-7" data-name="未命名的渐变 88" x1="112.36" y1="75.95" x2="115.59" y2="75.95" xlink:href="#_未命名的渐变_88"/>
    <linearGradient id="_未命名的渐变_200-7" data-name="未命名的渐变 200" x1="110.47" y1="76.33" x2="112.41" y2="76.33" xlink:href="#_未命名的渐变_200"/>
    <linearGradient id="_未命名的渐变_88-8" data-name="未命名的渐变 88" x1="88.68" y1="62.14" x2="91.9" y2="62.14" xlink:href="#_未命名的渐变_88"/>
    <linearGradient id="_未命名的渐变_200-8" data-name="未命名的渐变 200" x1="86.79" y1="62.52" x2="88.72" y2="62.52" xlink:href="#_未命名的渐变_200"/>
    <linearGradient id="_未命名的渐变_88-9" data-name="未命名的渐变 88" x1="82.01" y1="128.79" x2="85.24" y2="128.79" xlink:href="#_未命名的渐变_88"/>
    <linearGradient id="_未命名的渐变_200-9" data-name="未命名的渐变 200" x1="80.12" y1="129.17" x2="82.05" y2="129.17" xlink:href="#_未命名的渐变_200"/>
    <linearGradient id="_未命名的渐变_88-10" data-name="未命名的渐变 88" x1="74.11" y1="124.89" x2="77.34" y2="124.89" xlink:href="#_未命名的渐变_88"/>
    <linearGradient id="_未命名的渐变_200-10" data-name="未命名的渐变 200" x1="72.23" y1="125.27" x2="74.16" y2="125.27" xlink:href="#_未命名的渐变_200"/>
    <linearGradient id="_未命名的渐变_88-11" data-name="未命名的渐变 88" x1="66.22" y1="122.38" x2="69.45" y2="122.38" xlink:href="#_未命名的渐变_88"/>
    <linearGradient id="_未命名的渐变_200-11" data-name="未命名的渐变 200" x1="64.33" y1="122.76" x2="66.27" y2="122.76" xlink:href="#_未命名的渐变_200"/>
    <linearGradient id="_未命名的渐变_88-12" data-name="未命名的渐变 88" x1="58.32" y1="118.98" x2="61.55" y2="118.98" xlink:href="#_未命名的渐变_88"/>
    <linearGradient id="_未命名的渐变_200-12" data-name="未命名的渐变 200" x1="56.44" y1="119.36" x2="58.37" y2="119.36" xlink:href="#_未命名的渐变_200"/>
    <linearGradient id="_未命名的渐变_88-13" data-name="未命名的渐变 88" x1="42.53" y1="113.68" x2="45.76" y2="113.68" xlink:href="#_未命名的渐变_88"/>
    <linearGradient id="_未命名的渐变_200-13" data-name="未命名的渐变 200" x1="40.65" y1="114.05" x2="42.58" y2="114.05" xlink:href="#_未命名的渐变_200"/>
    <linearGradient id="_未命名的渐变_88-14" data-name="未命名的渐变 88" x1="34.64" y1="108.75" x2="37.87" y2="108.75" xlink:href="#_未命名的渐变_88"/>
    <linearGradient id="_未命名的渐变_200-14" data-name="未命名的渐变 200" x1="32.75" y1="109.13" x2="34.69" y2="109.13" xlink:href="#_未命名的渐变_200"/>
    <linearGradient id="_未命名的渐变_88-15" data-name="未命名的渐变 88" x1="50.43" y1="116.73" x2="53.66" y2="116.73" xlink:href="#_未命名的渐变_88"/>
    <linearGradient id="_未命名的渐变_200-15" data-name="未命名的渐变 200" x1="48.54" y1="117.1" x2="50.48" y2="117.1" xlink:href="#_未命名的渐变_200"/>
    <linearGradient id="_未命名的渐变_88-16" data-name="未命名的渐变 88" x1="26.75" y1="102.91" x2="29.97" y2="102.91" xlink:href="#_未命名的渐变_88"/>
    <linearGradient id="_未命名的渐变_200-16" data-name="未命名的渐变 200" x1="24.86" y1="103.29" x2="26.79" y2="103.29" xlink:href="#_未命名的渐变_200"/>
    <linearGradient id="_未命名的渐变_202" data-name="未命名的渐变 202" x1="25.33" y1="75.48" x2="34.59" y2="75.48" gradientUnits="userSpaceOnUse">
      <stop offset="0" stop-color="#87a9e4"/>
      <stop offset="1" stop-color="#547097"/>
      <stop offset="1" stop-color="#547097"/>
    </linearGradient>
    <linearGradient id="_未命名的渐变_88-17" data-name="未命名的渐变 88" x1="31.41" y1="93.03" x2="74.95" y2="93.03" xlink:href="#_未命名的渐变_88"/>
    <linearGradient id="_未命名的渐变_88-18" data-name="未命名的渐变 88" x1="82.06" y1="117.38" x2="85.3" y2="117.38" xlink:href="#_未命名的渐变_88"/>
    <linearGradient id="_未命名的渐变_202-2" data-name="未命名的渐变 202" x1="76.04" y1="104.76" x2="85.3" y2="104.76" xlink:href="#_未命名的渐变_202"/>
    <linearGradient id="_未命名的渐变_200-17" data-name="未命名的渐变 200" x1="25.34" y1="101.92" x2="82.05" y2="101.92" xlink:href="#_未命名的渐变_200"/>
    <linearGradient id="_未命名的渐变_88-19" data-name="未命名的渐变 88" x1="98.9" y1="91.19" x2="101.03" y2="91.19" xlink:href="#_未命名的渐变_88"/>
    <linearGradient id="_未命名的渐变_200-18" data-name="未命名的渐变 200" x1="61.74" y1="81.05" x2="98.9" y2="81.05" xlink:href="#_未命名的渐变_200"/>
    <linearGradient id="_未命名的渐变_88-20" data-name="未命名的渐变 88" x1="106.84" y1="87.25" x2="108.97" y2="87.25" xlink:href="#_未命名的渐变_88"/>
    <linearGradient id="_未命名的渐变_200-19" data-name="未命名的渐变 200" x1="69.68" y1="77.12" x2="106.84" y2="77.12" xlink:href="#_未命名的渐变_200"/>
    <linearGradient id="_未命名的渐变_88-21" data-name="未命名的渐变 88" x1="114.78" y1="83.31" x2="116.91" y2="83.31" xlink:href="#_未命名的渐变_88"/>
    <linearGradient id="_未命名的渐变_200-20" data-name="未命名的渐变 200" x1="77.62" y1="73.18" x2="114.78" y2="73.18" xlink:href="#_未命名的渐变_200"/>
    <linearGradient id="_未命名的渐变_88-22" data-name="未命名的渐变 88" x1="143.74" y1="76.23" x2="147.17" y2="76.23" xlink:href="#_未命名的渐变_88"/>
    <linearGradient id="_未命名的渐变_200-21" data-name="未命名的渐变 200" x1="87.26" y1="60.65" x2="143.97" y2="60.65" xlink:href="#_未命名的渐变_200"/>
    <radialGradient id="_未命名的渐变_180" data-name="未命名的渐变 180" cx="56.81" cy="66.2" fx="56.81" fy="66.2" r="44.42" gradientUnits="userSpaceOnUse">
      <stop offset="0" stop-color="#7a96ca"/>
      <stop offset=".9" stop-color="#12161a"/>
      <stop offset="1" stop-color="#283140"/>
    </radialGradient>
    <radialGradient id="_未命名的渐变_180-2" data-name="未命名的渐变 180" cx="112.37" cy="33.38" fx="112.37" fy="33.38" r="42.59" xlink:href="#_未命名的渐变_180"/>
    <linearGradient id="_新建渐变色板_3" data-name="新建渐变色板 3" x1="82.7" y1="33.4" x2="112.68" y2="84.22" gradientUnits="userSpaceOnUse">
      <stop offset="0" stop-color="#38455a"/>
      <stop offset=".15" stop-color="#7a96ca"/>
      <stop offset=".25" stop-color="#7a96ca"/>
      <stop offset=".9" stop-color="#12161a"/>
      <stop offset="1" stop-color="#283140"/>
    </linearGradient>
    <clipPath id="clippath">
      <path class="cls-3" d="m84.11,103.56l-3.18,1.85c-.33.19-.66.36-1.01.52l3.18-1.85c.35-.15.68-.33,1.01-.52Z"/>
    </clipPath>
    <linearGradient id="_未命名的渐变_88-23" data-name="未命名的渐变 88" x1="91.63" y1="93.32" x2="94.92" y2="93.32" xlink:href="#_未命名的渐变_88"/>
    <linearGradient id="_未命名的渐变_202-3" data-name="未命名的渐变 202" x1="80.83" y1="71.74" x2="94.92" y2="71.74" xlink:href="#_未命名的渐变_202"/>
    <linearGradient id="_未命名的渐变_200-22" data-name="未命名的渐变 200" x1="79.94" y1="91.1" x2="91.72" y2="91.1" xlink:href="#_未命名的渐变_200"/>
    <linearGradient id="_未命名的渐变_88-24" data-name="未命名的渐变 88" x1="143.97" y1="60.29" x2="147.26" y2="60.29" xlink:href="#_未命名的渐变_88"/>
    <linearGradient id="_未命名的渐变_202-4" data-name="未命名的渐变 202" x1="133.18" y1="38.71" x2="147.26" y2="38.71" xlink:href="#_未命名的渐变_202"/>
    <linearGradient id="_未命名的渐变_200-23" data-name="未命名的渐变 200" x1="132.28" y1="58.07" x2="144.07" y2="58.07" xlink:href="#_未命名的渐变_200"/>
    <linearGradient id="_新建渐变色板_3-2" data-name="新建渐变色板 3" x1="30.4" y1="91.68" x2="33.88" y2="97.59" xlink:href="#_新建渐变色板_3"/>
    <linearGradient id="_新建渐变色板_3-3" data-name="新建渐变色板 3" x1="16.78" y1="100.01" x2="19.85" y2="105.2" xlink:href="#_新建渐变色板_3"/>
    <linearGradient id="_新建渐变色板_4" data-name="新建渐变色板 4" x1="4.49" y1="108.98" x2="9.06" y2="108.98" gradientUnits="userSpaceOnUse">
      <stop offset="0" stop-color="#87a9e4"/>
      <stop offset="1" stop-color="#547097"/>
      <stop offset="1" stop-color="#547097"/>
    </linearGradient>
    <linearGradient id="_新建渐变色板_3-4" data-name="新建渐变色板 3" x1="46.4" y1="98.54" x2="49.89" y2="104.45" xlink:href="#_新建渐变色板_3"/>
    <linearGradient id="_新建渐变色板_3-5" data-name="新建渐变色板 3" x1="32.79" y1="106.87" x2="35.85" y2="112.06" xlink:href="#_新建渐变色板_3"/>
    <linearGradient id="_新建渐变色板_4-2" data-name="新建渐变色板 4" x1="20.5" y1="115.84" x2="25.07" y2="115.84" xlink:href="#_新建渐变色板_4"/>
    <linearGradient id="_新建渐变色板_3-6" data-name="新建渐变色板 3" x1="26.4" y1="77.2" x2="29.88" y2="83.1" xlink:href="#_新建渐变色板_3"/>
    <linearGradient id="_新建渐变色板_3-7" data-name="新建渐变色板 3" x1="12.78" y1="85.53" x2="15.84" y2="90.72" xlink:href="#_新建渐变色板_3"/>
    <linearGradient id="_新建渐变色板_4-3" data-name="新建渐变色板 4" x1=".49" y1="94.5" x2="5.06" y2="94.5" xlink:href="#_新建渐变色板_4"/>
    <linearGradient id="_新建渐变色板_3-8" data-name="新建渐变色板 3" x1="42.4" y1="84.06" x2="45.89" y2="89.97" xlink:href="#_新建渐变色板_3"/>
    <linearGradient id="_未命名的渐变_30" data-name="未命名的渐变 30" x1="28.66" y1="92.08" x2="31.32" y2="96.78" gradientUnits="userSpaceOnUse">
      <stop offset="0" stop-color="#2a73e4"/>
      <stop offset=".15" stop-color="#59c6f9"/>
      <stop offset=".25" stop-color="#59c6f9"/>
      <stop offset=".85" stop-color="#1433ca"/>
      <stop offset="1" stop-color="#2a73e4"/>
    </linearGradient>
    <linearGradient id="_未命名的渐变_220" data-name="未命名的渐变 220" x1="16.5" y1="101.36" x2="21.06" y2="101.36" gradientUnits="userSpaceOnUse">
      <stop offset="0" stop-color="#8be0fa"/>
      <stop offset="1" stop-color="#4eb4f8"/>
    </linearGradient>
    <linearGradient id="_新建渐变色板_3-9" data-name="新建渐变色板 3" x1="29.06" y1="65.38" x2="32.55" y2="71.29" xlink:href="#_新建渐变色板_3"/>
    <linearGradient id="_新建渐变色板_3-10" data-name="新建渐变色板 3" x1="15.45" y1="73.71" x2="18.51" y2="78.9" xlink:href="#_新建渐变色板_3"/>
    <linearGradient id="_新建渐变色板_4-4" data-name="新建渐变色板 4" x1="3.16" y1="82.68" x2="7.73" y2="82.68" xlink:href="#_新建渐变色板_4"/>
    <linearGradient id="_新建渐变色板_3-11" data-name="新建渐变色板 3" x1="45.07" y1="72.24" x2="48.56" y2="78.15" xlink:href="#_新建渐变色板_3"/>
    <linearGradient id="_新建渐变色板_3-12" data-name="新建渐变色板 3" x1="31.46" y1="80.57" x2="34.52" y2="85.76" xlink:href="#_新建渐变色板_3"/>
    <linearGradient id="_新建渐变色板_4-5" data-name="新建渐变色板 4" x1="19.16" y1="89.54" x2="23.73" y2="89.54" xlink:href="#_新建渐变色板_4"/>
    <linearGradient id="_新建渐变色板_3-13" data-name="新建渐变色板 3" x1="58.22" y1="90.73" x2="61.71" y2="96.63" xlink:href="#_新建渐变色板_3"/>
    <linearGradient id="_新建渐变色板_3-14" data-name="新建渐变色板 3" x1="44.61" y1="99.06" x2="47.67" y2="104.25" xlink:href="#_新建渐变色板_3"/>
    <linearGradient id="_新建渐变色板_4-6" data-name="新建渐变色板 4" x1="32.31" y1="108.03" x2="36.88" y2="108.03" xlink:href="#_新建渐变色板_4"/>
  </defs>
  <g id="_图层_1-2" data-name="图层 1">
    <g id="_汽水分离再热器" data-name="汽水分离再热器">
      <rect class="cls-65" width="149.66" height="149.92"/>
      <g>
        <g>
          <g class="cls-85">
            <polygon class="cls-1" points="143.99 80.51 147.17 78.67 147.12 95.53 143.94 97.38 143.99 80.51"/>
            <polygon class="cls-66" points="142.1 79.42 145.28 77.58 147.17 78.67 143.99 80.51 142.1 79.42"/>
            <polygon class="cls-62" points="143.99 80.51 143.94 97.38 142.05 96.29 142.1 79.42 143.99 80.51"/>
          </g>
          <g class="cls-85">
            <polygon class="cls-25" points="136.09 76.61 139.27 74.76 139.22 91.62 136.05 93.47 136.09 76.61"/>
            <polygon class="cls-66" points="134.2 75.52 137.38 73.67 139.27 74.76 136.09 76.61 134.2 75.52"/>
            <polygon class="cls-42" points="136.09 76.61 136.05 93.47 134.15 92.38 134.2 75.52 136.09 76.61"/>
          </g>
          <g class="cls-85">
            <polygon class="cls-24" points="128.2 74.1 131.38 72.25 131.33 89.12 128.15 90.96 128.2 74.1"/>
            <polygon class="cls-66" points="126.31 73.01 129.49 71.16 131.38 72.25 128.2 74.1 126.31 73.01"/>
            <polygon class="cls-43" points="128.2 74.1 128.15 90.96 126.26 89.87 126.31 73.01 128.2 74.1"/>
          </g>
          <g class="cls-85">
            <polygon class="cls-20" points="120.3 70.7 123.48 68.85 123.43 85.72 120.26 87.56 120.3 70.7"/>
            <polygon class="cls-66" points="118.41 69.61 121.59 67.76 123.48 68.85 120.3 70.7 118.41 69.61"/>
            <polygon class="cls-49" points="120.3 70.7 120.26 87.56 118.36 86.47 118.41 69.61 120.3 70.7"/>
          </g>
          <g class="cls-85">
            <polygon class="cls-21" points="104.51 65.4 107.69 63.55 107.64 80.41 104.47 82.26 104.51 65.4"/>
            <polygon class="cls-66" points="102.62 64.3 105.8 62.46 107.69 63.55 104.51 65.4 102.62 64.3"/>
            <polygon class="cls-45" points="104.51 65.4 104.47 82.26 102.57 81.17 102.62 64.3 104.51 65.4"/>
          </g>
          <g class="cls-85">
            <polygon class="cls-22" points="96.62 60.47 99.8 58.63 99.75 75.49 96.57 77.34 96.62 60.47"/>
            <polygon class="cls-66" points="94.73 59.38 97.91 57.53 99.8 58.63 96.62 60.47 94.73 59.38"/>
            <polygon class="cls-44" points="96.62 60.47 96.57 77.34 94.68 76.25 94.73 59.38 96.62 60.47"/>
          </g>
          <g class="cls-85">
            <polygon class="cls-23" points="112.41 68.45 115.59 66.6 115.54 83.46 112.36 85.31 112.41 68.45"/>
            <polygon class="cls-66" points="110.52 67.35 113.7 65.51 115.59 66.6 112.41 68.45 110.52 67.35"/>
            <polygon class="cls-47" points="112.41 68.45 112.36 85.31 110.47 84.22 110.52 67.35 112.41 68.45"/>
          </g>
          <g class="cls-85">
            <polygon class="cls-19" points="88.72 54.63 91.9 52.78 91.85 69.65 88.68 71.49 88.72 54.63"/>
            <polygon class="cls-66" points="86.83 53.54 90.01 51.69 91.9 52.78 88.72 54.63 86.83 53.54"/>
            <polygon class="cls-46" points="88.72 54.63 88.68 71.49 86.79 70.4 86.83 53.54 88.72 54.63"/>
          </g>
        </g>
        <g>
          <g class="cls-85">
            <polygon class="cls-18" points="82.06 121.29 85.24 119.44 85.19 136.3 82.01 138.15 82.06 121.29"/>
            <polygon class="cls-66" points="80.17 120.19 83.34 118.35 85.24 119.44 82.06 121.29 80.17 120.19"/>
            <polygon class="cls-48" points="82.06 121.29 82.01 138.15 80.12 137.06 80.17 120.19 82.06 121.29"/>
          </g>
          <g class="cls-85">
            <polygon class="cls-38" points="74.16 117.38 77.34 115.53 77.29 132.4 74.11 134.24 74.16 117.38"/>
            <polygon class="cls-66" points="72.27 116.29 75.45 114.44 77.34 115.53 74.16 117.38 72.27 116.29"/>
            <polygon class="cls-12" points="74.16 117.38 74.11 134.24 72.22 133.15 72.27 116.29 74.16 117.38"/>
          </g>
          <g class="cls-85">
            <polygon class="cls-37" points="66.27 114.87 69.45 113.02 69.4 129.89 66.22 131.73 66.27 114.87"/>
            <polygon class="cls-66" points="64.38 113.78 67.55 111.93 69.45 113.02 66.27 114.87 64.38 113.78"/>
            <polygon class="cls-14" points="66.27 114.87 66.22 131.73 64.33 130.64 64.38 113.78 66.27 114.87"/>
          </g>
          <g class="cls-85">
            <polygon class="cls-29" points="58.37 111.47 61.55 109.62 61.5 126.49 58.32 128.34 58.37 111.47"/>
            <polygon class="cls-66" points="56.48 110.38 59.66 108.53 61.55 109.62 58.37 111.47 56.48 110.38"/>
            <polygon class="cls-15" points="58.37 111.47 58.32 128.34 56.43 127.24 56.48 110.38 58.37 111.47"/>
          </g>
          <g class="cls-85">
            <polygon class="cls-28" points="42.58 106.17 45.76 104.32 45.71 121.18 42.53 123.03 42.58 106.17"/>
            <polygon class="cls-66" points="40.69 105.08 43.87 103.23 45.76 104.32 42.58 106.17 40.69 105.08"/>
            <polygon class="cls-11" points="42.58 106.17 42.53 123.03 40.64 121.94 40.69 105.08 42.58 106.17"/>
          </g>
          <g class="cls-85">
            <polygon class="cls-30" points="34.69 101.24 37.87 99.4 37.82 116.26 34.64 118.11 34.69 101.24"/>
            <polygon class="cls-66" points="32.8 100.15 35.98 98.31 37.87 99.4 34.69 101.24 32.8 100.15"/>
            <polygon class="cls-17" points="34.69 101.24 34.64 118.11 32.75 117.02 32.8 100.15 34.69 101.24"/>
          </g>
          <g class="cls-85">
            <polygon class="cls-31" points="50.48 109.22 53.66 107.37 53.61 124.23 50.43 126.08 50.48 109.22"/>
            <polygon class="cls-66" points="48.59 108.13 51.77 106.28 53.66 107.37 50.48 109.22 48.59 108.13"/>
            <polygon class="cls-9" points="50.48 109.22 50.43 126.08 48.54 124.99 48.59 108.13 50.48 109.22"/>
          </g>
          <g class="cls-85">
            <polygon class="cls-33" points="26.79 95.4 29.97 93.55 29.92 110.42 26.75 112.26 26.79 95.4"/>
            <polygon class="cls-66" points="24.9 94.31 28.08 92.46 29.97 93.55 26.79 95.4 24.9 94.31"/>
            <polygon class="cls-13" points="26.79 95.4 26.75 112.26 24.85 111.17 24.9 94.31 26.79 95.4"/>
          </g>
        </g>
        <polygon class="cls-61" points="25.33 74.65 28.51 72.8 34.59 76.31 31.41 78.16 25.33 74.65"/>
        <path class="cls-32" d="m74.23,106.56c-.16.08-.33.15-.49.23-.15.07-.3.13-.45.19-.16.06-.31.12-.47.17-.16.06-.32.11-.49.16-.15.05-.31.09-.46.13-.17.05-.35.09-.52.13-.15.03-.31.06-.46.09-.18.03-.36.06-.55.09-.15.02-.31.04-.46.06-.19.02-.38.04-.57.05-.16.01-.31.02-.47.03-.2,0-.39,0-.59,0-.16,0-.32,0-.48,0-.2,0-.4-.02-.61-.03-.17-.01-.33-.02-.5-.04-.2-.02-.41-.05-.61-.07-.18-.02-.36-.05-.54-.08-.2-.03-.4-.07-.6-.11-.2-.04-.4-.08-.6-.12-.19-.04-.38-.09-.57-.14-.23-.06-.45-.12-.68-.18-.18-.05-.36-.11-.55-.17-.26-.08-.52-.17-.78-.26-.18-.06-.35-.13-.53-.2-.31-.12-.63-.25-.94-.38-.16-.07-.33-.14-.49-.21-.53-.24-1.06-.49-1.6-.77-.43-.22-.86-.46-1.29-.71-.48-.28-.95-.58-1.42-.88-.25-.16-.5-.33-.75-.5-.32-.21-.63-.44-.95-.66-.25-.18-.5-.36-.74-.54-.29-.22-.57-.44-.86-.67-.31-.24-.62-.49-.92-.75-.27-.23-.54-.46-.81-.69-.3-.26-.6-.53-.89-.8-.26-.24-.52-.49-.78-.74-.29-.28-.58-.57-.87-.86-.25-.26-.51-.52-.76-.78-.28-.3-.56-.6-.84-.91-.21-.24-.42-.47-.63-.71-.67-.77-1.34-1.56-1.98-2.38-.21-.27-.41-.55-.62-.82-.26-.35-.53-.69-.78-1.05-.43-.59-.85-1.2-1.25-1.81-.06-.08-.11-.17-.16-.25-.34-.52-.67-1.04-1-1.57-.11-.18-.22-.36-.32-.54-.28-.46-.55-.92-.81-1.38-.09-.16-.19-.33-.28-.49-.34-.61-.67-1.22-.98-1.84-.05-.09-.09-.19-.14-.28-.27-.54-.54-1.08-.79-1.62-.08-.17-.16-.34-.23-.5-.29-.63-.57-1.26-.83-1.9,0-.01-.01-.03-.02-.04-.29-.7-.57-1.41-.84-2.12,0,0,0,0,0,0l-3.18,1.85c.09.24.18.47.27.71.18.47.37.95.57,1.42,0,.01,0,.02.01.04,0,0,0,0,0,0,.2.49.42.98.63,1.46.06.14.13.28.2.43.08.17.15.33.23.5.08.18.16.36.25.53.18.37.36.73.55,1.1.05.09.09.18.13.27.02.03.03.06.05.1.25.49.52.98.78,1.47.05.09.1.18.16.27.09.16.18.33.28.49.14.24.27.48.41.72.13.22.27.45.4.67.11.18.21.36.32.53.06.1.12.21.19.31.27.43.54.84.82,1.26.06.08.11.17.16.25.01.02.02.03.03.05.38.57.77,1.13,1.16,1.68.02.03.04.05.06.08.26.36.52.7.78,1.05.19.26.38.52.58.78.01.02.03.03.04.05.64.82,1.3,1.61,1.98,2.38.08.09.15.19.23.27.13.15.27.29.41.44.28.31.55.61.84.91.25.27.5.53.76.79.29.29.57.58.87.86.26.25.52.5.79.74.29.27.59.54.89.8.27.24.54.47.81.7.3.25.61.5.92.75.17.13.33.27.49.4.12.09.24.18.37.27.25.18.49.36.74.54.31.23.63.45.95.66.25.17.5.34.76.5.14.09.29.19.43.28.33.2.66.4.99.59.43.25.85.48,1.28.7,0,0,.01,0,.02,0,.54.28,1.07.53,1.6.77.06.03.12.06.18.08.11.05.21.08.31.13.32.13.63.26.94.38.1.04.19.08.29.12.08.03.16.05.24.08.26.09.52.18.78.26.12.04.24.08.36.12.06.02.12.03.19.05.23.07.45.12.68.18.14.03.27.08.41.11.05.01.11.02.16.03.2.04.4.08.59.12.15.03.29.06.44.09.06,0,.11.01.17.02.18.03.36.05.53.07.14.02.29.04.43.06.06,0,.12,0,.18.01.17.02.33.03.5.04.13,0,.26.02.39.03.07,0,.14,0,.21,0,.16,0,.32,0,.48,0,.11,0,.23,0,.34,0,.08,0,.17-.01.25-.01.16,0,.31-.01.47-.03.1,0,.2,0,.29-.02.1,0,.19-.02.28-.03.16-.02.31-.04.46-.06.08-.01.16-.02.24-.03.1-.02.2-.04.31-.06.15-.03.31-.06.46-.09.07-.01.14-.02.21-.04.11-.03.21-.06.32-.09.15-.04.31-.08.46-.13.06-.02.12-.03.18-.05.11-.03.21-.08.31-.11.16-.05.31-.11.47-.17.05-.02.11-.04.17-.06.1-.04.19-.09.28-.13.17-.07.33-.15.49-.23.06-.03.11-.05.17-.08.18-.09.36-.19.54-.3l3.18-1.85c-.23.13-.47.26-.71.38Z"/>
        <polygon class="cls-39" points="82.12 107.43 85.3 105.59 85.24 127.34 82.06 129.18 82.12 107.43"/>
        <polygon class="cls-52" points="76.04 103.92 79.22 102.08 85.3 105.59 82.12 107.43 76.04 103.92"/>
        <path class="cls-16" d="m82.12,107.43l-.06,21.75-56.78-32.78.06-21.75,6.08,3.51c4.28,11.55,12.65,22.55,22.27,28.1,9.63,5.56,18.02,4.24,22.36-2.34l6.08,3.51Z"/>
        <g>
          <polygon class="cls-40" points="98.94 84.67 101.03 83.46 100.99 97.71 98.9 98.92 98.94 84.67"/>
          <path class="cls-10" d="m98.94,84.67l-.04,14.25-37.21-21.48.04-14.25,3.98,2.3c2.81,7.57,8.29,14.77,14.59,18.41,6.31,3.64,11.81,2.78,14.65-1.53l3.98,2.3Z"/>
        </g>
        <g>
          <polygon class="cls-27" points="106.88 80.73 108.97 79.52 108.93 93.77 106.84 94.98 106.88 80.73"/>
          <path class="cls-8" d="m106.88,80.73l-.04,14.25-37.21-21.48.04-14.25,3.98,2.3c2.81,7.57,8.29,14.77,14.59,18.41,6.31,3.64,11.81,2.78,14.65-1.53l3.98,2.3Z"/>
        </g>
        <g>
          <polygon class="cls-26" points="114.82 76.79 116.91 75.58 116.87 89.83 114.78 91.04 114.82 76.79"/>
          <path class="cls-6" d="m114.82,76.79l-.04,14.25-37.21-21.48.04-14.25,3.98,2.3c2.81,7.57,8.29,14.77,14.59,18.41,6.31,3.64,11.81,2.78,14.65-1.53l3.98,2.3Z"/>
        </g>
        <polygon class="cls-35" points="143.8 66.65 147.17 64.87 147.11 85.81 143.74 87.58 143.8 66.65"/>
        <path class="cls-5" d="m144.04,66.17l-.06,21.75-56.78-32.78.06-21.75,6.08,3.51c4.28,11.55,12.65,22.55,22.27,28.1,9.63,5.56,18.02,4.24,22.36-2.34l6.08,3.51Z"/>
        <g>
          <circle class="cls-64" cx="61.27" cy="77.69" r="33.92"/>
          <circle class="cls-41" cx="116.64" cy="44.39" r="32.52"/>
          <path class="cls-54" d="m145.46,53.07c-.01-.36-.03-.73-.05-1.1-.01-.17-.03-.33-.04-.5,0-.07-.01-.14-.02-.22-.01-.13-.02-.26-.03-.39-.04-.37-.08-.74-.12-1.11-.05-.38-.1-.76-.16-1.14,0-.01,0-.02,0-.03,0-.01,0-.03,0-.04-.06-.36-.12-.72-.19-1.08-.07-.39-.15-.79-.24-1.18-.03-.14-.07-.28-.1-.42-.02-.08-.04-.17-.06-.25-.04-.17-.08-.35-.12-.52-.1-.4-.2-.8-.32-1.2-.08-.29-.17-.58-.26-.88-.02-.05-.03-.11-.05-.16-.02-.05-.03-.11-.05-.16-.12-.39-.25-.78-.38-1.17-.13-.39-.26-.77-.4-1.16-.03-.07-.05-.14-.08-.21-.02-.06-.04-.11-.06-.17-.09-.24-.18-.49-.27-.73-.14-.37-.29-.74-.44-1.1-.11-.26-.22-.52-.34-.79-.02-.05-.04-.09-.06-.14-.02-.05-.04-.11-.07-.16-.16-.37-.33-.73-.5-1.1-.19-.4-.38-.8-.58-1.19-.03-.06-.06-.12-.09-.18-.04-.08-.08-.15-.12-.23-.16-.32-.32-.64-.49-.95-.21-.39-.43-.78-.65-1.17-.11-.2-.22-.4-.33-.59-.05-.08-.09-.16-.13-.24-.2-.34-.42-.66-.62-.99-.3-.49-.6-.98-.91-1.46-.05-.08-.09-.16-.14-.23-.46-.69-.94-1.37-1.43-2.03,0,0,0-.01-.01-.02-.33-.45-.67-.89-1.01-1.32-.28-.35-.56-.7-.84-1.04,0,0-.01-.02-.02-.02,0,0,0,0-.01-.01-.29-.35-.58-.69-.88-1.03-.29-.33-.59-.66-.88-.98-.05-.05-.1-.1-.15-.16-.05-.05-.1-.11-.15-.16-.21-.22-.42-.44-.63-.66-.32-.32-.63-.64-.96-.95-.1-.1-.2-.19-.3-.28-.08-.07-.15-.14-.23-.21-.16-.15-.31-.29-.47-.44-.33-.3-.67-.59-1.01-.88-.15-.13-.3-.24-.45-.37-.08-.06-.15-.13-.23-.19-.11-.09-.22-.18-.33-.27-.33-.26-.66-.51-1-.76-.24-.18-.49-.35-.73-.52-.04-.03-.09-.06-.13-.1-.04-.03-.08-.06-.12-.09-.32-.22-.64-.43-.97-.64-.32-.2-.64-.4-.96-.59-.07-.04-.15-.09-.22-.13-.24-.14-.48-.27-.72-.4-.31-.17-.62-.33-.93-.48-.2-.1-.4-.19-.6-.28-.05-.02-.1-.05-.15-.07-.06-.03-.12-.06-.18-.08-.31-.14-.61-.26-.91-.39-.31-.12-.61-.24-.92-.34-.05-.02-.1-.03-.15-.05-.05-.02-.09-.03-.14-.05-.21-.07-.41-.14-.62-.2-.32-.1-.63-.18-.94-.26-.15-.04-.3-.07-.44-.1-.07-.01-.13-.03-.2-.04-.1-.02-.2-.05-.29-.06-.33-.07-.67-.12-.99-.16-.2-.03-.4-.04-.6-.06-.07,0-.14-.02-.21-.02-.07,0-.14-.02-.2-.02-.36-.02-.72-.04-1.07-.04-.15,0-.3.02-.46.02-.12,0-.24,0-.35.02-.12,0-.25,0-.37.02-.45.04-.88.1-1.31.19,0,0-.02,0-.02,0-.09.02-.18.05-.27.08-.44.1-.87.21-1.29.35-.03.01-.06.03-.1.04-.61.22-1.19.48-1.74.8L37.81,53.32c.55-.32,1.14-.58,1.74-.8.45-.16.91-.29,1.39-.4.09-.02.18-.06.27-.08.55-.11,1.12-.18,1.7-.21.12,0,.24-.01.35-.02.56-.02,1.14-.01,1.73.03.07,0,.14.01.21.02.61.06,1.24.15,1.88.29.06.01.13.03.2.04.65.15,1.32.33,2,.56.05.02.09.03.14.05.71.24,1.43.53,2.16.86.05.02.1.05.14.07.74.34,1.49.73,2.25,1.17.77.44,1.53.93,2.28,1.45.04.03.09.06.13.09.7.49,1.38,1.01,2.06,1.55.08.06.15.12.23.19.65.54,1.3,1.1,1.93,1.69.08.07.15.14.23.21.64.6,1.27,1.23,1.88,1.88.05.05.1.11.16.16.66.7,1.3,1.42,1.92,2.17,0,0,.01.02.02.02.64.77,1.26,1.56,1.85,2.37,0,0,0,0,0,0,.55.74,1.07,1.5,1.58,2.28.31.48.61.97.91,1.45.25.41.52.82.76,1.23.11.2.22.4.33.6.39.7.78,1.4,1.14,2.11.04.08.08.15.12.23.44.87.85,1.74,1.24,2.63.02.05.04.09.06.14.38.87.73,1.74,1.05,2.62.02.06.04.12.07.18.33.9.63,1.8.91,2.7.02.05.03.11.05.16.26.87.49,1.74.69,2.61.02.08.04.17.06.25.2.9.38,1.79.52,2.68,0,.01,0,.03,0,.04.14.9.25,1.79.32,2.67,0,.07.01.14.02.22.07.88.11,1.76.11,2.63,0,.86-.05,1.69-.12,2.49,0,.07-.02.14-.02.22-.07.73-.18,1.44-.31,2.12-.02.09-.04.18-.05.27-.14.66-.3,1.29-.49,1.89-.04.11-.07.22-.11.33-.19.56-.4,1.11-.63,1.62-.03.06-.05.12-.08.18-.28.59-.58,1.14-.91,1.65-.04.07-.09.13-.14.19-.28.41-.57.8-.88,1.17-.11.13-.23.26-.35.38-.27.29-.56.57-.85.83-.12.11-.24.22-.37.32-.42.33-.85.65-1.31.91l68.87-40.02c.46-.27.89-.58,1.31-.91.13-.1.25-.21.37-.32.3-.26.58-.53.85-.82.12-.13.24-.25.35-.38.31-.37.61-.75.88-1.17.04-.07.1-.13.14-.19,0-.01.02-.03.03-.04.31-.49.6-1,.86-1.55,0-.02.02-.04.02-.06.03-.06.05-.12.08-.18.16-.34.31-.69.44-1.05.07-.18.12-.38.19-.57.04-.11.08-.22.11-.33.03-.1.07-.2.1-.3.11-.38.21-.76.3-1.16.03-.14.06-.29.09-.43.02-.09.04-.18.05-.27.03-.14.06-.27.08-.41.06-.35.12-.72.16-1.09.03-.2.04-.41.06-.62,0-.07.02-.14.02-.22,0-.09.02-.17.03-.26.03-.35.05-.71.07-1.07.02-.36.02-.73.03-1.1,0-.02,0-.04,0-.07,0-.34,0-.68-.01-1.03Z"/>
        </g>
        <g class="cls-85">
          <g class="cls-83">
            <g class="cls-85">
              <path class="cls-67" d="m79.92,105.92l3.18-1.85c.18-.08.36-.17.53-.26l-3.18,1.85c-.18.09-.35.18-.53.26"/>
              <path class="cls-69" d="m80.46,105.67l3.18-1.85c.16-.08.32-.17.47-.26l-3.18,1.85c-.16.09-.31.18-.47.26"/>
            </g>
          </g>
        </g>
        <g>
          <polygon class="cls-34" points="91.74 75.81 94.92 73.97 94.81 110.84 91.63 112.68 91.74 75.81"/>
          <polygon class="cls-50" points="80.83 69.52 84.01 67.67 94.92 73.97 91.74 75.81 80.83 69.52"/>
          <path class="cls-4" d="m91.74,75.81l-.1,36.87-11.71-6.76c4.53-2.02,7.41-7.1,7.43-14.6.02-7.06-2.48-14.87-6.52-21.81l10.9,6.3Z"/>
        </g>
        <g>
          <polygon class="cls-36" points="144.08 42.78 147.26 40.93 147.15 77.81 143.97 79.65 144.08 42.78"/>
          <polygon class="cls-51" points="133.18 36.49 136.35 34.64 147.26 40.93 144.08 42.78 133.18 36.49"/>
          <path class="cls-7" d="m144.08,42.78l-.1,36.87-11.71-6.76c4.53-2.02,7.41-7.1,7.43-14.6.02-7.06-2.48-14.87-6.52-21.81l10.9,6.3Z"/>
        </g>
        <g>
          <g class="cls-85">
            <path class="cls-74" d="m36.19,95.78c.03-.09.07-.18.09-.28.02-.07.02-.15.03-.23.01-.08.03-.15.03-.24,0-.05,0-.1,0-.16,0-.04,0-.09,0-.13,0-.08,0-.15-.01-.23,0-.07-.01-.13-.02-.2,0-.02,0-.05-.01-.07,0,0,0-.02,0-.03,0-.03,0-.06-.01-.09-.01-.06-.02-.11-.03-.17-.01-.06-.03-.11-.04-.17-.01-.05-.03-.11-.04-.16,0-.02-.01-.03-.02-.05,0,0,0-.01,0-.02,0-.03-.02-.06-.03-.09-.02-.05-.03-.1-.05-.16-.02-.05-.04-.1-.06-.15-.02-.05-.04-.1-.06-.15-.01-.03-.02-.06-.04-.09,0,0,0-.01,0-.02,0-.02-.01-.03-.02-.05-.02-.05-.05-.1-.07-.15-.02-.05-.05-.1-.08-.15-.03-.05-.05-.1-.08-.15-.02-.04-.04-.07-.06-.11,0,0,0,0,0-.01,0-.01-.01-.02-.02-.03-.03-.05-.06-.11-.1-.16-.03-.06-.07-.11-.11-.17-.04-.06-.08-.12-.12-.18-.01-.02-.02-.03-.04-.05,0-.01-.02-.02-.02-.03-.03-.04-.06-.08-.09-.12-.08-.1-.16-.2-.24-.29-.01-.01-.03-.03-.04-.04-.19-.21-.4-.41-.61-.57-.01-.01-.02-.02-.04-.03-.11-.08-.22-.16-.33-.23-.04-.02-.07-.04-.11-.06-.04-.02-.08-.05-.13-.07-.06-.03-.13-.06-.19-.09-.05-.02-.11-.05-.16-.07-.02,0-.03-.01-.05-.02,0,0-.01,0-.02,0-.03,0-.05-.02-.08-.03-.04-.01-.09-.02-.13-.04-.04,0-.08-.02-.12-.03-.04,0-.08-.01-.12-.02-.01,0-.02,0-.03,0,0,0,0,0-.01,0-.02,0-.04,0-.07,0-.04,0-.07,0-.11,0s-.07,0-.11,0c-.04,0-.07,0-.1.01-.02,0-.04,0-.06.01,0,0,0,0-.01,0-.01,0-.02,0-.03,0-.03,0-.07.02-.1.03-.03.01-.07.02-.1.04-.03.01-.07.03-.1.05-.02,0-.04.02-.06.03l-5.3,3.08c.12-.07.25-.12.39-.15,0,0,0,0,.01,0,.14-.03.29-.04.44-.02,0,0,0,0,.01,0,.15.01.32.05.48.1,0,0,.01,0,.02,0,.17.06.35.14.53.24.16.09.32.21.48.33.21.17.42.36.61.57.13.14.26.29.38.45,0,.01.02.02.02.03.14.19.26.38.38.58,0,0,0,0,0,.01.12.2.22.41.31.62,0,0,0,.01,0,.02.09.21.17.43.24.64,0,0,0,.01,0,.02.06.21.11.43.15.64,0,0,0,.02,0,.03.03.21.05.43.05.63,0,.14-.02.27-.04.4-.01.08-.02.16-.03.23-.02.1-.06.19-.09.28-.02.06-.04.12-.06.18-.04.09-.1.17-.16.24-.03.04-.05.08-.08.12-.09.1-.2.19-.31.26l5.3-3.08c.12-.07.22-.15.31-.26.03-.03.05-.08.08-.12.06-.08.11-.15.16-.24.03-.05.04-.12.06-.18Z"/>
            <g>
              <ellipse class="cls-68" cx="28.4" cy="96.43" rx="2.16" ry="3.73" transform="translate(-44.6 27.33) rotate(-30.16)"/>
              <ellipse class="cls-68" cx="28.4" cy="96.43" rx="2.16" ry="3.73" transform="translate(-44.6 27.33) rotate(-30.16)"/>
            </g>
          </g>
          <g class="cls-85">
            <path class="cls-73" d="m30.11,98.76c.03-.08.06-.16.08-.24.01-.06.02-.13.03-.2,0-.07.03-.13.03-.21,0-.04,0-.09,0-.13,0-.04,0-.07,0-.11,0-.07,0-.13-.01-.2,0-.06-.01-.12-.02-.17,0-.02,0-.04-.01-.06,0,0,0-.01,0-.02,0-.02,0-.05-.01-.07,0-.05-.02-.1-.03-.15-.01-.05-.02-.1-.03-.14-.01-.05-.02-.09-.04-.14,0-.02,0-.03-.01-.05,0,0,0,0,0-.01,0-.02-.01-.05-.02-.07-.01-.04-.03-.09-.04-.13-.02-.04-.03-.09-.05-.13-.02-.04-.03-.09-.05-.13-.01-.03-.02-.05-.04-.08,0,0,0,0,0-.01,0-.01-.01-.02-.02-.04-.02-.04-.04-.09-.06-.13-.02-.04-.04-.09-.07-.13-.02-.04-.05-.09-.07-.13-.02-.04-.04-.07-.06-.11,0,0,0,0,0,0,0,0,0-.01-.01-.02-.03-.05-.05-.09-.08-.14-.03-.05-.06-.1-.09-.14-.03-.05-.07-.1-.1-.15-.01-.02-.03-.03-.04-.05,0,0-.01-.02-.02-.03-.02-.03-.05-.06-.07-.09-.07-.09-.14-.17-.21-.25-.01-.01-.03-.02-.04-.04-.17-.18-.34-.35-.53-.5-.01,0-.02-.02-.03-.03-.1-.07-.19-.14-.29-.2-.03-.02-.06-.04-.09-.06-.04-.02-.07-.04-.11-.06-.05-.03-.11-.05-.16-.08-.05-.02-.09-.04-.14-.06-.01,0-.03,0-.04-.01,0,0-.01,0-.02,0-.02,0-.05-.02-.07-.02-.04-.01-.08-.02-.11-.03-.04,0-.07-.02-.11-.02-.03,0-.07-.01-.1-.01,0,0-.02,0-.03,0,0,0,0,0,0,0-.02,0-.04,0-.06,0-.03,0-.06,0-.09,0-.03,0-.06,0-.09,0-.03,0-.06,0-.09.01-.02,0-.03,0-.05,0,0,0,0,0,0,0-.01,0-.02,0-.03,0-.03,0-.06.01-.09.02-.03,0-.06.02-.08.03-.03.01-.06.03-.09.04-.02,0-.03.02-.05.03l-21.19,12.31c.1-.06.22-.1.34-.13,0,0,0,0,0,0,.12-.02.25-.03.38-.02,0,0,0,0,0,0,.13.01.27.04.42.09,0,0,.01,0,.02,0,.15.05.3.12.46.21.14.08.28.18.41.29.18.15.36.31.53.5.11.12.22.25.32.38,0,0,.01.02.02.03.12.16.23.32.33.5,0,0,0,0,0,.01.1.17.19.35.27.54,0,0,0,0,0,.01.08.18.15.37.2.55,0,0,0,.01,0,.02.06.18.1.37.13.55,0,0,0,.02,0,.02.03.18.04.37.04.54,0,.12-.02.23-.03.34,0,.07-.01.13-.03.2-.02.09-.05.17-.08.24-.02.05-.03.11-.06.15-.04.08-.09.15-.14.21-.02.03-.04.07-.07.1-.08.09-.17.16-.27.22l21.19-12.31c.1-.06.19-.13.27-.22.03-.03.04-.07.07-.1.05-.07.1-.13.14-.21.02-.05.04-.1.05-.15Z"/>
            <path class="cls-53" d="m6.78,106.36c1.26.73,2.28,2.49,2.28,3.93,0,1.46-1.03,2.03-2.29,1.31s-2.28-2.49-2.28-3.94c0-1.44,1.03-2.02,2.29-1.3Z"/>
          </g>
        </g>
        <g>
          <g class="cls-85">
            <path class="cls-72" d="m52.2,102.64c.03-.09.07-.18.09-.28.02-.07.02-.15.03-.23.01-.08.03-.15.03-.24,0-.05,0-.1,0-.16,0-.04,0-.09,0-.13,0-.08,0-.15-.01-.23,0-.07-.01-.13-.02-.2,0-.02,0-.05-.01-.07,0,0,0-.02,0-.03,0-.03,0-.06-.01-.09-.01-.06-.02-.11-.03-.17-.01-.06-.03-.11-.04-.17-.01-.05-.03-.11-.04-.16,0-.02-.01-.03-.02-.05,0,0,0-.01,0-.02,0-.03-.02-.06-.03-.09-.02-.05-.03-.1-.05-.16-.02-.05-.04-.1-.06-.15-.02-.05-.04-.1-.06-.15-.01-.03-.02-.06-.04-.09,0,0,0-.01,0-.02,0-.02-.01-.03-.02-.05-.02-.05-.05-.1-.07-.15-.02-.05-.05-.1-.08-.15-.03-.05-.05-.1-.08-.15-.02-.04-.04-.07-.06-.11,0,0,0,0,0-.01,0-.01-.01-.02-.02-.03-.03-.05-.06-.11-.1-.16-.03-.06-.07-.11-.11-.17-.04-.06-.08-.12-.12-.18-.01-.02-.02-.03-.04-.05,0-.01-.02-.02-.02-.03-.03-.04-.06-.08-.09-.12-.08-.1-.16-.2-.24-.29-.01-.01-.03-.03-.04-.04-.19-.21-.4-.41-.61-.57-.01-.01-.02-.02-.04-.03-.11-.08-.22-.16-.33-.23-.04-.02-.07-.04-.11-.06-.04-.02-.08-.05-.13-.07-.06-.03-.13-.06-.19-.09-.05-.02-.11-.05-.16-.07-.02,0-.03-.01-.05-.02,0,0-.01,0-.02,0-.03,0-.05-.02-.08-.03-.04-.01-.09-.02-.13-.04-.04,0-.08-.02-.12-.03-.04,0-.08-.01-.12-.02-.01,0-.02,0-.03,0,0,0,0,0-.01,0-.02,0-.04,0-.07,0-.04,0-.07,0-.11,0s-.07,0-.11,0c-.04,0-.07,0-.1.01-.02,0-.04,0-.06.01,0,0,0,0-.01,0-.01,0-.02,0-.03,0-.03,0-.07.02-.1.03-.03.01-.07.02-.1.04-.03.01-.07.03-.1.05-.02,0-.04.02-.06.03l-5.3,3.08c.12-.07.25-.12.39-.15,0,0,0,0,.01,0,.14-.03.29-.04.44-.02,0,0,0,0,.01,0,.15.01.32.05.48.1,0,0,.01,0,.02,0,.17.06.35.14.53.24.16.09.32.21.48.33.21.17.42.36.61.57.13.14.26.29.38.45,0,.01.02.02.02.03.14.19.26.38.38.58,0,0,0,0,0,.01.12.2.22.41.31.62,0,0,0,.01,0,.02.09.21.17.43.24.64,0,0,0,.01,0,.02.06.21.11.43.15.64,0,0,0,.02,0,.03.03.21.05.43.05.63,0,.14-.02.27-.04.4-.01.08-.02.16-.03.23-.02.1-.06.19-.09.28-.02.06-.04.12-.06.18-.04.09-.1.17-.16.24-.03.04-.05.08-.08.12-.09.1-.2.19-.31.26l5.3-3.08c.12-.07.22-.15.31-.26.03-.03.05-.08.08-.12.06-.08.11-.15.16-.24.03-.05.04-.12.06-.18Z"/>
            <g>
              <ellipse class="cls-68" cx="44.41" cy="103.29" rx="2.16" ry="3.73" transform="translate(-45.88 36.3) rotate(-30.16)"/>
              <ellipse class="cls-68" cx="44.41" cy="103.29" rx="2.16" ry="3.73" transform="translate(-45.88 36.3) rotate(-30.16)"/>
            </g>
          </g>
          <g class="cls-85">
            <path class="cls-71" d="m46.12,105.62c.03-.08.06-.16.08-.24.01-.06.02-.13.03-.2,0-.07.03-.13.03-.21,0-.04,0-.09,0-.13,0-.04,0-.07,0-.11,0-.07,0-.13-.01-.2,0-.06-.01-.12-.02-.17,0-.02,0-.04-.01-.06,0,0,0-.01,0-.02,0-.02,0-.05-.01-.07,0-.05-.02-.1-.03-.15-.01-.05-.02-.1-.03-.14-.01-.05-.02-.09-.04-.14,0-.02,0-.03-.01-.05,0,0,0,0,0-.01,0-.02-.01-.05-.02-.07-.01-.04-.03-.09-.04-.13-.02-.04-.03-.09-.05-.13-.02-.04-.03-.09-.05-.13-.01-.03-.02-.05-.04-.08,0,0,0,0,0-.01,0-.01-.01-.02-.02-.04-.02-.04-.04-.09-.06-.13-.02-.04-.04-.09-.07-.13-.02-.04-.05-.09-.07-.13-.02-.04-.04-.07-.06-.11,0,0,0,0,0,0,0,0,0-.01-.01-.02-.03-.05-.05-.09-.08-.14-.03-.05-.06-.1-.09-.14-.03-.05-.07-.1-.1-.15-.01-.02-.03-.03-.04-.05,0,0-.01-.02-.02-.03-.02-.03-.05-.06-.07-.09-.07-.09-.14-.17-.21-.25-.01-.01-.03-.02-.04-.04-.17-.18-.34-.35-.53-.5-.01,0-.02-.02-.03-.03-.1-.07-.19-.14-.29-.2-.03-.02-.06-.04-.09-.06-.04-.02-.07-.04-.11-.06-.05-.03-.11-.05-.16-.08-.05-.02-.09-.04-.14-.06-.01,0-.03,0-.04-.01,0,0-.01,0-.02,0-.02,0-.05-.02-.07-.02-.04-.01-.08-.02-.11-.03-.04,0-.07-.02-.11-.02-.03,0-.07-.01-.1-.01,0,0-.02,0-.03,0,0,0,0,0,0,0-.02,0-.04,0-.06,0-.03,0-.06,0-.09,0-.03,0-.06,0-.09,0-.03,0-.06,0-.09.01-.02,0-.03,0-.05,0,0,0,0,0,0,0-.01,0-.02,0-.03,0-.03,0-.06.01-.09.02-.03,0-.06.02-.08.03-.03.01-.06.03-.09.04-.02,0-.03.02-.05.03l-21.19,12.31c.1-.06.22-.1.34-.13,0,0,0,0,0,0,.12-.02.25-.03.38-.02,0,0,0,0,0,0,.13.01.27.04.42.09,0,0,.01,0,.02,0,.15.05.3.12.46.21.14.08.28.18.41.29.18.15.36.31.53.5.11.12.22.25.32.38,0,0,.01.02.02.03.12.16.23.32.33.5,0,0,0,0,0,.01.1.17.19.35.27.54,0,0,0,0,0,.01.08.18.15.37.2.55,0,0,0,.01,0,.02.06.18.1.37.13.55,0,0,0,.02,0,.02.03.18.04.37.04.54,0,.12-.02.23-.03.34,0,.07-.01.13-.03.2-.02.09-.05.17-.08.24-.02.05-.03.11-.06.15-.04.08-.09.15-.14.21-.02.03-.04.07-.07.1-.08.09-.17.16-.27.22l21.19-12.31c.1-.06.19-.13.27-.22.03-.03.04-.07.07-.1.05-.07.1-.13.14-.21.02-.05.04-.1.05-.15Z"/>
            <path class="cls-79" d="m22.79,113.22c1.26.73,2.28,2.49,2.28,3.93,0,1.46-1.03,2.03-2.29,1.31-1.26-.73-2.28-2.49-2.28-3.94s1.03-2.02,2.29-1.3Z"/>
          </g>
        </g>
        <g>
          <g class="cls-85">
            <path class="cls-70" d="m32.19,81.3c.03-.09.07-.18.09-.28.02-.07.02-.15.03-.23.01-.08.03-.15.03-.24,0-.05,0-.1,0-.16,0-.04,0-.09,0-.13,0-.08,0-.15-.01-.23,0-.07-.01-.13-.02-.2,0-.02,0-.05-.01-.07,0,0,0-.02,0-.03,0-.03,0-.06-.01-.09-.01-.06-.02-.11-.03-.17-.01-.06-.03-.11-.04-.17-.01-.05-.03-.11-.04-.16,0-.02-.01-.03-.02-.05,0,0,0-.01,0-.02,0-.03-.02-.06-.03-.09-.02-.05-.03-.1-.05-.16-.02-.05-.04-.1-.06-.15-.02-.05-.04-.1-.06-.15-.01-.03-.02-.06-.04-.09,0,0,0-.01,0-.02,0-.02-.01-.03-.02-.05-.02-.05-.05-.1-.07-.15-.02-.05-.05-.1-.08-.15-.03-.05-.05-.1-.08-.15-.02-.04-.04-.07-.06-.11,0,0,0,0,0-.01,0-.01-.01-.02-.02-.03-.03-.05-.06-.11-.1-.16-.03-.06-.07-.11-.11-.17-.04-.06-.08-.12-.12-.18-.01-.02-.02-.03-.04-.05,0-.01-.02-.02-.02-.03-.03-.04-.06-.08-.09-.12-.08-.1-.16-.2-.24-.29-.01-.01-.03-.03-.04-.04-.19-.21-.4-.41-.61-.57-.01-.01-.02-.02-.04-.03-.11-.08-.22-.16-.33-.23-.04-.02-.07-.04-.11-.06-.04-.02-.08-.05-.13-.07-.06-.03-.13-.06-.19-.09-.05-.02-.11-.05-.16-.07-.02,0-.03-.01-.05-.02,0,0-.01,0-.02,0-.03,0-.05-.02-.08-.03-.04-.01-.09-.02-.13-.04-.04,0-.08-.02-.12-.03-.04,0-.08-.01-.12-.02-.01,0-.02,0-.03,0,0,0,0,0-.01,0-.02,0-.04,0-.07,0-.04,0-.07,0-.11,0s-.07,0-.11,0c-.04,0-.07,0-.1.01-.02,0-.04,0-.06.01,0,0,0,0-.01,0-.01,0-.02,0-.03,0-.03,0-.07.02-.1.03-.03.01-.07.02-.1.04-.03.01-.07.03-.1.05-.02,0-.04.02-.06.03l-5.3,3.08c.12-.07.25-.12.39-.15,0,0,0,0,.01,0,.14-.03.29-.04.44-.02,0,0,0,0,.01,0,.15.01.32.05.48.1,0,0,.01,0,.02,0,.17.06.35.14.53.24.16.09.32.21.48.33.21.17.42.36.61.57.13.14.26.29.38.45,0,.01.02.02.02.03.14.19.26.38.38.58,0,0,0,0,0,.01.12.2.22.41.31.62,0,0,0,.01,0,.02.09.21.17.43.24.64,0,0,0,.01,0,.02.06.21.11.43.15.64,0,0,0,.02,0,.03.03.21.05.43.05.63,0,.14-.02.27-.04.4-.01.08-.02.16-.03.23-.02.1-.06.19-.09.28-.02.06-.04.12-.06.18-.04.09-.1.17-.16.24-.03.04-.05.08-.08.12-.09.1-.2.19-.31.26l5.3-3.08c.12-.07.22-.15.31-.26.03-.03.05-.08.08-.12.06-.08.11-.15.16-.24.03-.05.04-.12.06-.18Z"/>
            <g>
              <ellipse class="cls-68" cx="24.4" cy="81.94" rx="2.16" ry="3.73" transform="translate(-37.87 23.35) rotate(-30.16)"/>
              <ellipse class="cls-68" cx="24.4" cy="81.94" rx="2.16" ry="3.73" transform="translate(-37.87 23.35) rotate(-30.16)"/>
            </g>
          </g>
          <g class="cls-85">
            <path class="cls-76" d="m26.11,84.28c.03-.08.06-.16.08-.24.01-.06.02-.13.03-.2,0-.07.03-.13.03-.21,0-.04,0-.09,0-.13,0-.04,0-.07,0-.11,0-.07,0-.13-.01-.2,0-.06-.01-.12-.02-.17,0-.02,0-.04-.01-.06,0,0,0-.01,0-.02,0-.02,0-.05-.01-.07,0-.05-.02-.1-.03-.15-.01-.05-.02-.1-.03-.14-.01-.05-.02-.09-.04-.14,0-.02,0-.03-.01-.05,0,0,0,0,0-.01,0-.02-.01-.05-.02-.07-.01-.04-.03-.09-.04-.13-.02-.04-.03-.09-.05-.13-.02-.04-.03-.09-.05-.13-.01-.03-.02-.05-.04-.08,0,0,0,0,0-.01,0-.01-.01-.02-.02-.04-.02-.04-.04-.09-.06-.13-.02-.04-.04-.09-.07-.13-.02-.04-.05-.09-.07-.13-.02-.04-.04-.07-.06-.11,0,0,0,0,0,0,0,0,0-.01-.01-.02-.03-.05-.05-.09-.08-.14-.03-.05-.06-.1-.09-.14-.03-.05-.07-.1-.1-.15-.01-.02-.03-.03-.04-.05,0,0-.01-.02-.02-.03-.02-.03-.05-.06-.07-.09-.07-.09-.14-.17-.21-.25-.01-.01-.03-.02-.04-.04-.17-.18-.34-.35-.53-.5-.01,0-.02-.02-.03-.03-.1-.07-.19-.14-.29-.2-.03-.02-.06-.04-.09-.06-.04-.02-.07-.04-.11-.06-.05-.03-.11-.05-.16-.08-.05-.02-.09-.04-.14-.06-.01,0-.03,0-.04-.01,0,0-.01,0-.02,0-.02,0-.05-.02-.07-.02-.04-.01-.08-.02-.11-.03-.04,0-.07-.02-.11-.02-.03,0-.07-.01-.1-.01,0,0-.02,0-.03,0,0,0,0,0,0,0-.02,0-.04,0-.06,0-.03,0-.06,0-.09,0-.03,0-.06,0-.09,0-.03,0-.06,0-.09.01-.02,0-.03,0-.05,0,0,0,0,0,0,0-.01,0-.02,0-.03,0-.03,0-.06.01-.09.02-.03,0-.06.02-.08.03-.03.01-.06.03-.09.04-.02,0-.03.02-.05.03L1.15,91.72c.1-.06.22-.1.34-.13,0,0,0,0,0,0,.12-.02.25-.03.38-.02,0,0,0,0,0,0,.13.01.27.04.42.09,0,0,.01,0,.02,0,.15.05.3.12.46.21.14.08.28.18.41.29.18.15.36.31.53.5.11.12.22.25.32.38,0,0,.01.02.02.03.12.16.23.32.33.5,0,0,0,0,0,.01.1.17.19.35.27.54,0,0,0,0,0,.01.08.18.15.37.2.55,0,0,0,.01,0,.02.06.18.1.37.13.55,0,0,0,.02,0,.02.03.18.04.37.04.54,0,.12-.02.23-.03.34,0,.07-.01.13-.03.2-.02.09-.05.17-.08.24-.02.05-.03.11-.06.15-.04.08-.09.15-.14.21-.02.03-.04.07-.07.1-.08.09-.17.16-.27.22l21.19-12.31c.1-.06.19-.13.27-.22.03-.03.04-.07.07-.1.05-.07.1-.13.14-.21.02-.05.04-.1.05-.15Z"/>
            <path class="cls-80" d="m2.78,91.88c1.26.73,2.28,2.49,2.28,3.93,0,1.46-1.03,2.03-2.29,1.31s-2.28-2.49-2.28-3.94c0-1.44,1.03-2.02,2.29-1.3Z"/>
          </g>
        </g>
        <g>
          <g class="cls-85">
            <path class="cls-75" d="m48.19,88.16c.03-.09.07-.18.09-.28.02-.07.02-.15.03-.23.01-.08.03-.15.03-.24,0-.05,0-.1,0-.16,0-.04,0-.09,0-.13,0-.08,0-.15-.01-.23,0-.07-.01-.13-.02-.2,0-.02,0-.05-.01-.07,0,0,0-.02,0-.03,0-.03,0-.06-.01-.09-.01-.06-.02-.11-.03-.17-.01-.06-.03-.11-.04-.17-.01-.05-.03-.11-.04-.16,0-.02-.01-.03-.02-.05,0,0,0-.01,0-.02,0-.03-.02-.06-.03-.09-.02-.05-.03-.1-.05-.16-.02-.05-.04-.1-.06-.15-.02-.05-.04-.1-.06-.15-.01-.03-.02-.06-.04-.09,0,0,0-.01,0-.02,0-.02-.01-.03-.02-.05-.02-.05-.05-.1-.07-.15-.02-.05-.05-.1-.08-.15-.03-.05-.05-.1-.08-.15-.02-.04-.04-.07-.06-.11,0,0,0,0,0-.01,0-.01-.01-.02-.02-.03-.03-.05-.06-.11-.1-.16-.03-.06-.07-.11-.11-.17-.04-.06-.08-.12-.12-.18-.01-.02-.02-.03-.04-.05,0-.01-.02-.02-.02-.03-.03-.04-.06-.08-.09-.12-.08-.1-.16-.2-.24-.29-.01-.01-.03-.03-.04-.04-.19-.21-.4-.41-.61-.57-.01-.01-.02-.02-.04-.03-.11-.08-.22-.16-.33-.23-.04-.02-.07-.04-.11-.06-.04-.02-.08-.05-.13-.07-.06-.03-.13-.06-.19-.09-.05-.02-.11-.05-.16-.07-.02,0-.03-.01-.05-.02,0,0-.01,0-.02,0-.03,0-.05-.02-.08-.03-.04-.01-.09-.02-.13-.04-.04,0-.08-.02-.12-.03-.04,0-.08-.01-.12-.02-.01,0-.02,0-.03,0,0,0,0,0-.01,0-.02,0-.04,0-.07,0-.04,0-.07,0-.11,0s-.07,0-.11,0c-.04,0-.07,0-.1.01-.02,0-.04,0-.06.01,0,0,0,0-.01,0-.01,0-.02,0-.03,0-.03,0-.07.02-.1.03-.03.01-.07.02-.1.04-.03.01-.07.03-.1.05-.02,0-.04.02-.06.03l-5.3,3.08c.12-.07.25-.12.39-.15,0,0,0,0,.01,0,.14-.03.29-.04.44-.02,0,0,0,0,.01,0,.15.01.32.05.48.1,0,0,.01,0,.02,0,.17.06.35.14.53.24.16.09.32.21.48.33.21.17.42.36.61.57.13.14.26.29.38.45,0,.01.02.02.02.03.14.19.26.38.38.58,0,0,0,0,0,.01.12.2.22.41.31.62,0,0,0,.01,0,.02.09.21.17.43.24.64,0,0,0,.01,0,.02.06.21.11.43.15.64,0,0,0,.02,0,.03.03.21.05.43.05.63,0,.14-.02.27-.04.4-.01.08-.02.16-.03.23-.02.1-.06.19-.09.28-.02.06-.04.12-.06.18-.04.09-.1.17-.16.24-.03.04-.05.08-.08.12-.09.1-.2.19-.31.26l5.3-3.08c.12-.07.22-.15.31-.26.03-.03.05-.08.08-.12.06-.08.11-.15.16-.24.03-.05.04-.12.06-.18Z"/>
            <g>
              <ellipse class="cls-68" cx="40.41" cy="88.8" rx="2.16" ry="3.73" transform="translate(-39.15 32.33) rotate(-30.16)"/>
              <ellipse class="cls-68" cx="40.41" cy="88.8" rx="2.16" ry="3.73" transform="translate(-39.15 32.33) rotate(-30.16)"/>
            </g>
          </g>
          <g class="cls-85">
            <path class="cls-2" d="m42.12,91.14c.03-.08.06-.16.08-.24.01-.06.02-.13.03-.2,0-.07.03-.13.03-.21,0-.04,0-.09,0-.13,0-.04,0-.07,0-.11,0-.07,0-.13-.01-.2,0-.06-.01-.12-.02-.17,0-.02,0-.04-.01-.06,0,0,0-.01,0-.02,0-.02,0-.05-.01-.07,0-.05-.02-.1-.03-.15-.01-.05-.02-.1-.03-.14-.01-.05-.02-.09-.04-.14,0-.02,0-.03-.01-.05,0,0,0,0,0-.01,0-.02-.01-.05-.02-.07-.01-.04-.03-.09-.04-.13-.02-.04-.03-.09-.05-.13-.02-.04-.03-.09-.05-.13-.01-.03-.02-.05-.04-.08,0,0,0,0,0-.01,0-.01-.01-.02-.02-.04-.02-.04-.04-.09-.06-.13-.02-.04-.04-.09-.07-.13-.02-.04-.05-.09-.07-.13-.02-.04-.04-.07-.06-.11,0,0,0,0,0,0,0,0,0-.01-.01-.02-.03-.05-.05-.09-.08-.14-.03-.05-.06-.1-.09-.14-.03-.05-.07-.1-.1-.15-.01-.02-.03-.03-.04-.05,0,0-.01-.02-.02-.03-.02-.03-.05-.06-.07-.09-.07-.09-.14-.17-.21-.25-.01-.01-.03-.02-.04-.04-.17-.18-.34-.35-.53-.5-.01,0-.02-.02-.03-.03-.1-.07-.19-.14-.29-.2-.03-.02-.06-.04-.09-.06-.04-.02-.07-.04-.11-.06-.05-.03-.11-.05-.16-.08-.05-.02-.09-.04-.14-.06-.01,0-.03,0-.04-.01,0,0-.01,0-.02,0-.02,0-.05-.02-.07-.02-.04-.01-.08-.02-.11-.03-.04,0-.07-.02-.11-.02-.03,0-.07-.01-.1-.01,0,0-.02,0-.03,0,0,0,0,0,0,0-.02,0-.04,0-.06,0-.03,0-.06,0-.09,0-.03,0-.06,0-.09,0-.03,0-.06,0-.09.01-.02,0-.03,0-.05,0,0,0,0,0,0,0-.01,0-.02,0-.03,0-.03,0-.06.01-.09.02-.03,0-.06.02-.08.03-.03.01-.06.03-.09.04-.02,0-.03.02-.05.03l-21.19,12.31c.1-.06.22-.1.34-.13,0,0,0,0,0,0,.12-.02.25-.03.38-.02,0,0,0,0,0,0,.13.01.27.04.42.09,0,0,.01,0,.02,0,.15.05.3.12.46.21.14.08.28.18.41.29.18.15.36.31.53.5.11.12.22.25.32.38,0,0,.01.02.02.03.12.16.23.32.33.5,0,0,0,0,0,.01.1.17.19.35.27.54,0,0,0,0,0,.01.08.18.15.37.2.55,0,0,0,.01,0,.02.06.18.1.37.13.55,0,0,0,.02,0,.02.03.18.04.37.04.54,0,.12-.02.23-.03.34,0,.07-.01.13-.03.2-.02.09-.05.17-.08.24-.02.05-.03.11-.06.15-.04.08-.09.15-.14.21-.02.03-.04.07-.07.1-.08.09-.17.16-.27.22l21.19-12.31c.1-.06.19-.13.27-.22.03-.03.04-.07.07-.1.05-.07.1-.13.14-.21.02-.05.04-.1.05-.15Z"/>
            <path class="cls-63" d="m18.79,98.74c1.26.73,2.28,2.49,2.28,3.93,0,1.46-1.03,2.03-2.29,1.31s-2.28-2.49-2.28-3.94c0-1.44,1.03-2.02,2.29-1.3Z"/>
          </g>
        </g>
        <g>
          <g class="cls-85">
            <path class="cls-77" d="m34.85,69.48c.03-.09.07-.18.09-.28.02-.07.02-.15.03-.23.01-.08.03-.15.03-.24,0-.05,0-.1,0-.16,0-.04,0-.09,0-.13,0-.08,0-.15-.01-.23,0-.07-.01-.13-.02-.2,0-.02,0-.05-.01-.07,0,0,0-.02,0-.03,0-.03,0-.06-.01-.09-.01-.06-.02-.11-.03-.17-.01-.06-.03-.11-.04-.17-.01-.05-.03-.11-.04-.16,0-.02-.01-.03-.02-.05,0,0,0-.01,0-.02,0-.03-.02-.06-.03-.09-.02-.05-.03-.1-.05-.16-.02-.05-.04-.1-.06-.15-.02-.05-.04-.1-.06-.15-.01-.03-.02-.06-.04-.09,0,0,0-.01,0-.02,0-.02-.01-.03-.02-.05-.02-.05-.05-.1-.07-.15-.02-.05-.05-.1-.08-.15-.03-.05-.05-.1-.08-.15-.02-.04-.04-.07-.06-.11,0,0,0,0,0-.01,0-.01-.01-.02-.02-.03-.03-.05-.06-.11-.1-.16-.03-.06-.07-.11-.11-.17-.04-.06-.08-.12-.12-.18-.01-.02-.02-.03-.04-.05,0-.01-.02-.02-.02-.03-.03-.04-.06-.08-.09-.12-.08-.1-.16-.2-.24-.29-.01-.01-.03-.03-.04-.04-.19-.21-.4-.41-.61-.57-.01-.01-.02-.02-.04-.03-.11-.08-.22-.16-.33-.23-.04-.02-.07-.04-.11-.06-.04-.02-.08-.05-.13-.07-.06-.03-.13-.06-.19-.09-.05-.02-.11-.05-.16-.07-.02,0-.03-.01-.05-.02,0,0-.01,0-.02,0-.03,0-.05-.02-.08-.03-.04-.01-.09-.02-.13-.04-.04,0-.08-.02-.12-.03-.04,0-.08-.01-.12-.02-.01,0-.02,0-.03,0,0,0,0,0-.01,0-.02,0-.04,0-.07,0-.04,0-.07,0-.11,0s-.07,0-.11,0c-.04,0-.07,0-.1.01-.02,0-.04,0-.06.01,0,0,0,0-.01,0-.01,0-.02,0-.03,0-.03,0-.07.02-.1.03-.03.01-.07.02-.1.04-.03.01-.07.03-.1.05-.02,0-.04.02-.06.03l-5.3,3.08c.12-.07.25-.12.39-.15,0,0,0,0,.01,0,.14-.03.29-.04.44-.02,0,0,0,0,.01,0,.15.01.32.05.48.1,0,0,.01,0,.02,0,.17.06.35.14.53.24.16.09.32.21.48.33.21.17.42.36.61.57.13.14.26.29.38.45,0,.01.02.02.02.03.14.19.26.38.38.58,0,0,0,0,0,.01.12.2.22.41.31.62,0,0,0,.01,0,.02.09.21.17.43.24.64,0,0,0,.01,0,.02.06.21.11.43.15.64,0,0,0,.02,0,.03.03.21.05.43.05.63,0,.14-.02.27-.04.4-.01.08-.02.16-.03.23-.02.1-.06.19-.09.28-.02.06-.04.12-.06.18-.04.09-.1.17-.16.24-.03.04-.05.08-.08.12-.09.1-.2.19-.31.26l5.3-3.08c.12-.07.22-.15.31-.26.03-.03.05-.08.08-.12.06-.08.11-.15.16-.24.03-.05.04-.12.06-.18Z"/>
            <g>
              <ellipse class="cls-68" cx="27.07" cy="70.13" rx="2.16" ry="3.73" transform="translate(-31.57 23.09) rotate(-30.16)"/>
              <ellipse class="cls-68" cx="27.07" cy="70.13" rx="2.16" ry="3.73" transform="translate(-31.57 23.09) rotate(-30.16)"/>
            </g>
          </g>
          <g class="cls-85">
            <path class="cls-55" d="m28.78,72.46c.03-.08.06-.16.08-.24.01-.06.02-.13.03-.2,0-.07.03-.13.03-.21,0-.04,0-.09,0-.13,0-.04,0-.07,0-.11,0-.07,0-.13-.01-.2,0-.06-.01-.12-.02-.17,0-.02,0-.04-.01-.06,0,0,0-.01,0-.02,0-.02,0-.05-.01-.07,0-.05-.02-.1-.03-.15-.01-.05-.02-.1-.03-.14-.01-.05-.02-.09-.04-.14,0-.02,0-.03-.01-.05,0,0,0,0,0-.01,0-.02-.01-.05-.02-.07-.01-.04-.03-.09-.04-.13-.02-.04-.03-.09-.05-.13-.02-.04-.03-.09-.05-.13-.01-.03-.02-.05-.04-.08,0,0,0,0,0-.01,0-.01-.01-.02-.02-.04-.02-.04-.04-.09-.06-.13-.02-.04-.04-.09-.07-.13-.02-.04-.05-.09-.07-.13-.02-.04-.04-.07-.06-.11,0,0,0,0,0,0,0,0,0-.01-.01-.02-.03-.05-.05-.09-.08-.14-.03-.05-.06-.1-.09-.14-.03-.05-.07-.1-.1-.15-.01-.02-.03-.03-.04-.05,0,0-.01-.02-.02-.03-.02-.03-.05-.06-.07-.09-.07-.09-.14-.17-.21-.25-.01-.01-.03-.02-.04-.04-.17-.18-.34-.35-.53-.5-.01,0-.02-.02-.03-.03-.1-.07-.19-.14-.29-.2-.03-.02-.06-.04-.09-.06-.04-.02-.07-.04-.11-.06-.05-.03-.11-.05-.16-.08-.05-.02-.09-.04-.14-.06-.01,0-.03,0-.04-.01,0,0-.01,0-.02,0-.02,0-.05-.02-.07-.02-.04-.01-.08-.02-.11-.03-.04,0-.07-.02-.11-.02-.03,0-.07-.01-.1-.01,0,0-.02,0-.03,0,0,0,0,0,0,0-.02,0-.04,0-.06,0-.03,0-.06,0-.09,0-.03,0-.06,0-.09,0-.03,0-.06,0-.09.01-.02,0-.03,0-.05,0,0,0,0,0,0,0-.01,0-.02,0-.03,0-.03,0-.06.01-.09.02-.03,0-.06.02-.08.03-.03.01-.06.03-.09.04-.02,0-.03.02-.05.03l-21.19,12.31c.1-.06.22-.1.34-.13,0,0,0,0,0,0,.12-.02.25-.03.38-.02,0,0,0,0,0,0,.13.01.27.04.42.09,0,0,.01,0,.02,0,.15.05.3.12.46.21.14.08.28.18.41.29.18.15.36.31.53.5.11.12.22.25.32.38,0,0,.01.02.02.03.12.16.23.32.33.5,0,0,0,0,0,.01.1.17.19.35.27.54,0,0,0,0,0,.01.08.18.15.37.2.55,0,0,0,.01,0,.02.06.18.1.37.13.55,0,0,0,.02,0,.02.03.18.04.37.04.54,0,.12-.02.23-.03.34,0,.07-.01.13-.03.2-.02.09-.05.17-.08.24-.02.05-.03.11-.06.15-.04.08-.09.15-.14.21-.02.03-.04.07-.07.1-.08.09-.17.16-.27.22l21.19-12.31c.1-.06.19-.13.27-.22.03-.03.04-.07.07-.1.05-.07.1-.13.14-.21.02-.05.04-.1.05-.15Z"/>
            <path class="cls-78" d="m5.45,80.06c1.26.73,2.28,2.49,2.28,3.93,0,1.46-1.03,2.03-2.29,1.31-1.26-.73-2.28-2.49-2.28-3.94s1.03-2.02,2.29-1.3Z"/>
          </g>
        </g>
        <g>
          <g class="cls-85">
            <path class="cls-56" d="m50.86,76.35c.03-.09.07-.18.09-.28.02-.07.02-.15.03-.23.01-.08.03-.15.03-.24,0-.05,0-.1,0-.16,0-.04,0-.09,0-.13,0-.08,0-.15-.01-.23,0-.07-.01-.13-.02-.2,0-.02,0-.05-.01-.07,0,0,0-.02,0-.03,0-.03,0-.06-.01-.09-.01-.06-.02-.11-.03-.17-.01-.06-.03-.11-.04-.17-.01-.05-.03-.11-.04-.16,0-.02-.01-.03-.02-.05,0,0,0-.01,0-.02,0-.03-.02-.06-.03-.09-.02-.05-.03-.1-.05-.16-.02-.05-.04-.1-.06-.15-.02-.05-.04-.1-.06-.15-.01-.03-.02-.06-.04-.09,0,0,0-.01,0-.02,0-.02-.01-.03-.02-.05-.02-.05-.05-.1-.07-.15-.02-.05-.05-.1-.08-.15-.03-.05-.05-.1-.08-.15-.02-.04-.04-.07-.06-.11,0,0,0,0,0-.01,0-.01-.01-.02-.02-.03-.03-.05-.06-.11-.1-.16-.03-.06-.07-.11-.11-.17-.04-.06-.08-.12-.12-.18-.01-.02-.02-.03-.04-.05,0-.01-.02-.02-.02-.03-.03-.04-.06-.08-.09-.12-.08-.1-.16-.2-.24-.29-.01-.01-.03-.03-.04-.04-.19-.21-.4-.41-.61-.57-.01-.01-.02-.02-.04-.03-.11-.08-.22-.16-.33-.23-.04-.02-.07-.04-.11-.06-.04-.02-.08-.05-.13-.07-.06-.03-.13-.06-.19-.09-.05-.02-.11-.05-.16-.07-.02,0-.03-.01-.05-.02,0,0-.01,0-.02,0-.03,0-.05-.02-.08-.03-.04-.01-.09-.02-.13-.04-.04,0-.08-.02-.12-.03-.04,0-.08-.01-.12-.02-.01,0-.02,0-.03,0,0,0,0,0-.01,0-.02,0-.04,0-.07,0-.04,0-.07,0-.11,0s-.07,0-.11,0c-.04,0-.07,0-.1.01-.02,0-.04,0-.06.01,0,0,0,0-.01,0-.01,0-.02,0-.03,0-.03,0-.07.02-.1.03-.03.01-.07.02-.1.04-.03.01-.07.03-.1.05-.02,0-.04.02-.06.03l-5.3,3.08c.12-.07.25-.12.39-.15,0,0,0,0,.01,0,.14-.03.29-.04.44-.02,0,0,0,0,.01,0,.15.01.32.05.48.1,0,0,.01,0,.02,0,.17.06.35.14.53.24.16.09.32.21.48.33.21.17.42.36.61.57.13.14.26.29.38.45,0,.01.02.02.02.03.14.19.26.38.38.58,0,0,0,0,0,.01.12.2.22.41.31.62,0,0,0,.01,0,.02.09.21.17.43.24.64,0,0,0,.01,0,.02.06.21.11.43.15.64,0,0,0,.02,0,.03.03.21.05.43.05.63,0,.14-.02.27-.04.4-.01.08-.02.16-.03.23-.02.1-.06.19-.09.28-.02.06-.04.12-.06.18-.04.09-.1.17-.16.24-.03.04-.05.08-.08.12-.09.1-.2.19-.31.26l5.3-3.08c.12-.07.22-.15.31-.26.03-.03.05-.08.08-.12.06-.08.11-.15.16-.24.03-.05.04-.12.06-.18Z"/>
            <g>
              <ellipse class="cls-68" cx="43.07" cy="76.99" rx="2.16" ry="3.73" transform="translate(-32.85 32.07) rotate(-30.16)"/>
              <ellipse class="cls-68" cx="43.07" cy="76.99" rx="2.16" ry="3.73" transform="translate(-32.85 32.07) rotate(-30.16)"/>
            </g>
          </g>
          <g class="cls-85">
            <path class="cls-57" d="m44.79,79.32c.03-.08.06-.16.08-.24.01-.06.02-.13.03-.2,0-.07.03-.13.03-.21,0-.04,0-.09,0-.13,0-.04,0-.07,0-.11,0-.07,0-.13-.01-.2,0-.06-.01-.12-.02-.17,0-.02,0-.04-.01-.06,0,0,0-.01,0-.02,0-.02,0-.05-.01-.07,0-.05-.02-.1-.03-.15-.01-.05-.02-.1-.03-.14-.01-.05-.02-.09-.04-.14,0-.02,0-.03-.01-.05,0,0,0,0,0-.01,0-.02-.01-.05-.02-.07-.01-.04-.03-.09-.04-.13-.02-.04-.03-.09-.05-.13-.02-.04-.03-.09-.05-.13-.01-.03-.02-.05-.04-.08,0,0,0,0,0-.01,0-.01-.01-.02-.02-.04-.02-.04-.04-.09-.06-.13-.02-.04-.04-.09-.07-.13-.02-.04-.05-.09-.07-.13-.02-.04-.04-.07-.06-.11,0,0,0,0,0,0,0,0,0-.01-.01-.02-.03-.05-.05-.09-.08-.14-.03-.05-.06-.1-.09-.14-.03-.05-.07-.1-.1-.15-.01-.02-.03-.03-.04-.05,0,0-.01-.02-.02-.03-.02-.03-.05-.06-.07-.09-.07-.09-.14-.17-.21-.25-.01-.01-.03-.02-.04-.04-.17-.18-.34-.35-.53-.5-.01,0-.02-.02-.03-.03-.1-.07-.19-.14-.29-.2-.03-.02-.06-.04-.09-.06-.04-.02-.07-.04-.11-.06-.05-.03-.11-.05-.16-.08-.05-.02-.09-.04-.14-.06-.01,0-.03,0-.04-.01,0,0-.01,0-.02,0-.02,0-.05-.02-.07-.02-.04-.01-.08-.02-.11-.03-.04,0-.07-.02-.11-.02-.03,0-.07-.01-.1-.01,0,0-.02,0-.03,0,0,0,0,0,0,0-.02,0-.04,0-.06,0-.03,0-.06,0-.09,0-.03,0-.06,0-.09,0-.03,0-.06,0-.09.01-.02,0-.03,0-.05,0,0,0,0,0,0,0-.01,0-.02,0-.03,0-.03,0-.06.01-.09.02-.03,0-.06.02-.08.03-.03.01-.06.03-.09.04-.02,0-.03.02-.05.03l-21.19,12.31c.1-.06.22-.1.34-.13,0,0,0,0,0,0,.12-.02.25-.03.38-.02,0,0,0,0,0,0,.13.01.27.04.42.09,0,0,.01,0,.02,0,.15.05.3.12.46.21.14.08.28.18.41.29.18.15.36.31.53.5.11.12.22.25.32.38,0,0,.01.02.02.03.12.16.23.32.33.5,0,0,0,0,0,.01.1.17.19.35.27.54,0,0,0,0,0,.01.08.18.15.37.2.55,0,0,0,.01,0,.02.06.18.1.37.13.55,0,0,0,.02,0,.02.03.18.04.37.04.54,0,.12-.02.23-.03.34,0,.07-.01.13-.03.2-.02.09-.05.17-.08.24-.02.05-.03.11-.06.15-.04.08-.09.15-.14.21-.02.03-.04.07-.07.1-.08.09-.17.16-.27.22l21.19-12.31c.1-.06.19-.13.27-.22.03-.03.04-.07.07-.1.05-.07.1-.13.14-.21.02-.05.04-.1.05-.15Z"/>
            <path class="cls-82" d="m21.46,86.92c1.26.73,2.28,2.49,2.28,3.93s-1.03,2.03-2.29,1.31c-1.26-.73-2.28-2.49-2.28-3.94,0-1.44,1.03-2.02,2.29-1.3Z"/>
          </g>
        </g>
        <g>
          <g class="cls-85">
            <path class="cls-58" d="m64.01,94.83c.03-.09.07-.18.09-.28.02-.07.02-.15.03-.23.01-.08.03-.15.03-.24,0-.05,0-.1,0-.16,0-.04,0-.09,0-.13,0-.08,0-.15-.01-.23,0-.07-.01-.13-.02-.2,0-.02,0-.05-.01-.07,0,0,0-.02,0-.03,0-.03,0-.06-.01-.09-.01-.06-.02-.11-.03-.17-.01-.06-.03-.11-.04-.17-.01-.05-.03-.11-.04-.16,0-.02-.01-.03-.02-.05,0,0,0-.01,0-.02,0-.03-.02-.06-.03-.09-.02-.05-.03-.1-.05-.16-.02-.05-.04-.1-.06-.15-.02-.05-.04-.1-.06-.15-.01-.03-.02-.06-.04-.09,0,0,0-.01,0-.02,0-.02-.01-.03-.02-.05-.02-.05-.05-.1-.07-.15-.02-.05-.05-.1-.08-.15-.03-.05-.05-.1-.08-.15-.02-.04-.04-.07-.06-.11,0,0,0,0,0-.01,0-.01-.01-.02-.02-.03-.03-.05-.06-.11-.1-.16-.03-.06-.07-.11-.11-.17-.04-.06-.08-.12-.12-.18-.01-.02-.02-.03-.04-.05,0-.01-.02-.02-.02-.03-.03-.04-.06-.08-.09-.12-.08-.1-.16-.2-.24-.29-.01-.01-.03-.03-.04-.04-.19-.21-.4-.41-.61-.57-.01-.01-.02-.02-.04-.03-.11-.08-.22-.16-.33-.23-.04-.02-.07-.04-.11-.06-.04-.02-.08-.05-.13-.07-.06-.03-.13-.06-.19-.09-.05-.02-.11-.05-.16-.07-.02,0-.03-.01-.05-.02,0,0-.01,0-.02,0-.03,0-.05-.02-.08-.03-.04-.01-.09-.02-.13-.04-.04,0-.08-.02-.12-.03-.04,0-.08-.01-.12-.02-.01,0-.02,0-.03,0,0,0,0,0-.01,0-.02,0-.04,0-.07,0-.04,0-.07,0-.11,0s-.07,0-.11,0c-.04,0-.07,0-.1.01-.02,0-.04,0-.06.01,0,0,0,0-.01,0-.01,0-.02,0-.03,0-.03,0-.07.02-.1.03-.03.01-.07.02-.1.04-.03.01-.07.03-.1.05-.02,0-.04.02-.06.03l-5.3,3.08c.12-.07.25-.12.39-.15,0,0,0,0,.01,0,.14-.03.29-.04.44-.02,0,0,0,0,.01,0,.15.01.32.05.48.1,0,0,.01,0,.02,0,.17.06.35.14.53.24.16.09.32.21.48.33.21.17.42.36.61.57.13.14.26.29.38.45,0,.01.02.02.02.03.14.19.26.38.38.58,0,0,0,0,0,.01.12.2.22.41.31.62,0,0,0,.01,0,.02.09.21.17.43.24.64,0,0,0,.01,0,.02.06.21.11.43.15.64,0,0,0,.02,0,.03.03.21.05.43.05.63,0,.14-.02.27-.04.4-.01.08-.02.16-.03.23-.02.1-.06.19-.09.28-.02.06-.04.12-.06.18-.04.09-.1.17-.16.24-.03.04-.05.08-.08.12-.09.1-.2.19-.31.26l5.3-3.08c.12-.07.22-.15.31-.26.03-.03.05-.08.08-.12.06-.08.11-.15.16-.24.03-.05.04-.12.06-.18Z"/>
            <g>
              <ellipse class="cls-68" cx="56.22" cy="95.47" rx="2.16" ry="3.73" transform="translate(-40.36 41.18) rotate(-30.16)"/>
              <ellipse class="cls-68" cx="56.22" cy="95.47" rx="2.16" ry="3.73" transform="translate(-40.36 41.18) rotate(-30.16)"/>
            </g>
          </g>
          <g class="cls-85">
            <path class="cls-59" d="m57.93,97.81c.03-.08.06-.16.08-.24.01-.06.02-.13.03-.2,0-.07.03-.13.03-.21,0-.04,0-.09,0-.13,0-.04,0-.07,0-.11,0-.07,0-.13-.01-.2,0-.06-.01-.12-.02-.17,0-.02,0-.04-.01-.06,0,0,0-.01,0-.02,0-.02,0-.05-.01-.07,0-.05-.02-.1-.03-.15-.01-.05-.02-.1-.03-.14-.01-.05-.02-.09-.04-.14,0-.02,0-.03-.01-.05,0,0,0,0,0-.01,0-.02-.01-.05-.02-.07-.01-.04-.03-.09-.04-.13-.02-.04-.03-.09-.05-.13-.02-.04-.03-.09-.05-.13-.01-.03-.02-.05-.04-.08,0,0,0,0,0-.01,0-.01-.01-.02-.02-.04-.02-.04-.04-.09-.06-.13-.02-.04-.04-.09-.07-.13-.02-.04-.05-.09-.07-.13-.02-.04-.04-.07-.06-.11,0,0,0,0,0,0,0,0,0-.01-.01-.02-.03-.05-.05-.09-.08-.14-.03-.05-.06-.1-.09-.14-.03-.05-.07-.1-.1-.15-.01-.02-.03-.03-.04-.05,0,0-.01-.02-.02-.03-.02-.03-.05-.06-.07-.09-.07-.09-.14-.17-.21-.25-.01-.01-.03-.02-.04-.04-.17-.18-.34-.35-.53-.5-.01,0-.02-.02-.03-.03-.1-.07-.19-.14-.29-.2-.03-.02-.06-.04-.09-.06-.04-.02-.07-.04-.11-.06-.05-.03-.11-.05-.16-.08-.05-.02-.09-.04-.14-.06-.01,0-.03,0-.04-.01,0,0-.01,0-.02,0-.02,0-.05-.02-.07-.02-.04-.01-.08-.02-.11-.03-.04,0-.07-.02-.11-.02-.03,0-.07-.01-.1-.01,0,0-.02,0-.03,0,0,0,0,0,0,0-.02,0-.04,0-.06,0-.03,0-.06,0-.09,0-.03,0-.06,0-.09,0-.03,0-.06,0-.09.01-.02,0-.03,0-.05,0,0,0,0,0,0,0-.01,0-.02,0-.03,0-.03,0-.06.01-.09.02-.03,0-.06.02-.08.03-.03.01-.06.03-.09.04-.02,0-.03.02-.05.03l-21.19,12.31c.1-.06.22-.1.34-.13,0,0,0,0,0,0,.12-.02.25-.03.38-.02,0,0,0,0,0,0,.13.01.27.04.42.09,0,0,.01,0,.02,0,.15.05.3.12.46.21.14.08.28.18.41.29.18.15.36.31.53.5.11.12.22.25.32.38,0,0,.01.02.02.03.12.16.23.32.33.5,0,0,0,0,0,.01.1.17.19.35.27.54,0,0,0,0,0,.01.08.18.15.37.2.55,0,0,0,.01,0,.02.06.18.1.37.13.55,0,0,0,.02,0,.02.03.18.04.37.04.54,0,.12-.02.23-.03.34,0,.07-.01.13-.03.2-.02.09-.05.17-.08.24-.02.05-.03.11-.06.15-.04.08-.09.15-.14.21-.02.03-.04.07-.07.1-.08.09-.17.16-.27.22l21.19-12.31c.1-.06.19-.13.27-.22.03-.03.04-.07.07-.1.05-.07.1-.13.14-.21.02-.05.04-.1.05-.15Z"/>
            <path class="cls-81" d="m34.6,105.41c1.26.73,2.28,2.49,2.28,3.93s-1.03,2.03-2.29,1.31-2.28-2.49-2.28-3.94c0-1.44,1.03-2.02,2.29-1.3Z"/>
          </g>
        </g>
      </g>
      <g class="cls-84">
        <path class="cls-60" d="m56.6,79.75c-.17.37-.39.79-.65,1.25s-.54.95-.84,1.44-.6,1-.9,1.43-.59.88-.85,1.25l-2.34-1.16c.27-.37.56-.77.87-1.22s.61-.9.89-1.36.55-.91.79-1.36.44-.83.59-1.18l2.44.91Zm4-1.85v4.12c.01.39-.03.79-.13,1.17-.09.28-.24.53-.45.73-.24.2-.51.36-.81.46-.33.11-.73.23-1.21.34l-1.18.29-.83-2.59.9-.22c.25-.06.49-.15.72-.27.15-.14.22-.35.2-.55v-3.11l-5.59.74.6-7.74c.62-.08,1.28-.18,2-.29s1.4-.22,2.11-.34l2.14-.39c.71-.13,1.4-.27,2.06-.41s1.29-.27,1.87-.41,1.11-.26,1.57-.39l.55,2.63-2.08.48c-.76.17-1.57.34-2.41.5l-2.6.49-2.58.45-.17,2.55,2.54-.34v-2.21l2.78-.31v2.15l4.93-.65v2.47l-4.93.65Zm2.72-.22c.17.19.39.45.65.78s.54.69.83,1.08.58.79.86,1.2.54.81.77,1.18l-2.36,1.82c-.18-.35-.4-.74-.65-1.15s-.51-.83-.79-1.24l-.81-1.14c-.27-.36-.51-.66-.73-.91l2.23-1.62Z"/>
        <path class="cls-60" d="m82.12,72.86v2.21l-14.64,1.89v-2.18l3.27-.43.25-1-2.39.31v-1.86l2.84-.37.21-.87-3.4.44v-2.19l13.08-1.73v2.2l-6.85.9-.21.88,6-.79-.15,2.85,1.99-.26Zm-13.19,4.66l11.75-1.56v5.63l-11.75,1.56v-5.63Zm2.59,3.09l6.44-.84v-1.29l-6.44.85v1.28Zm2.08-6.65l3.87-.51.07-1-3.72.56-.22.95Z"/>
        <path class="cls-60" d="m88.82,75.51c-.17.37-.39.79-.65,1.25s-.54,1-.84,1.44-.6,1-.9,1.43-.59.88-.85,1.25l-2.34-1.13c.27-.36.56-.76.87-1.21s.61-.9.9-1.36.55-.91.79-1.36.43-.83.58-1.18l2.44.87Zm4-1.85v4.12c0,.4-.05.8-.16,1.18-.08.28-.23.53-.45.73-.23.21-.5.36-.8.45-.33.12-.74.23-1.22.35l-1.17.29-.83-2.6.9-.21c.25-.05.5-.14.72-.28.16-.13.24-.34.21-.54v-3.12l-5.6.74.58-7.74c.62-.08,1.28-.18,2-.29s1.4-.22,2.11-.34l2.14-.39c.72-.13,1.4-.27,2.07-.41s1.28-.27,1.87-.41,1.1-.26,1.56-.39l.55,2.63-2.1.53c-.77.17-1.57.34-2.42.5s-1.71.33-2.59.49l-2.58.45-.18,2.55,2.59-.34v-2.27l2.78-.3v2.15l4.93-.65v2.47l-4.91.65Zm2.71-.22c.18.19.4.45.66.78l.83,1.08c.29.39.58.79.86,1.2s.53.81.76,1.18l-2.36,1.82c-.18-.35-.4-.74-.65-1.16s-.51-.82-.79-1.23-.54-.78-.81-1.14-.51-.66-.72-.91l2.22-1.62Z"/>
      </g>
    </g>
  </g>
</svg>