<?xml version="1.0" encoding="UTF-8"?>
<svg id="_图层_2" data-name="图层 2" xmlns="http://www.w3.org/2000/svg" xmlns:xlink="http://www.w3.org/1999/xlink" viewBox="0 0 149.66 149.93">
  <defs>
    <style>
      .cls-1 {
        fill: url(#_未命名的渐变_88);
      }

      .cls-1, .cls-2, .cls-3, .cls-4, .cls-5, .cls-6, .cls-7, .cls-8, .cls-9, .cls-10, .cls-11, .cls-12, .cls-13, .cls-14, .cls-15, .cls-16, .cls-17, .cls-18, .cls-19, .cls-20, .cls-21, .cls-22, .cls-23, .cls-24, .cls-25, .cls-26, .cls-27, .cls-28, .cls-29, .cls-30, .cls-31, .cls-32, .cls-33, .cls-34, .cls-35, .cls-36, .cls-37, .cls-38, .cls-39, .cls-40, .cls-41, .cls-42, .cls-43, .cls-44, .cls-45, .cls-46, .cls-47, .cls-48, .cls-49, .cls-50, .cls-51, .cls-52, .cls-53, .cls-54, .cls-55, .cls-56, .cls-57, .cls-58, .cls-59, .cls-60, .cls-61, .cls-62, .cls-63, .cls-64, .cls-65, .cls-66, .cls-67, .cls-68, .cls-69, .cls-70 {
        stroke-width: 0px;
      }

      .cls-2 {
        fill: url(#_未命名的渐变_56);
      }

      .cls-3 {
        fill: url(#_未命名的渐变_30);
      }

      .cls-4 {
        fill: url(#_未命名的渐变_56-2);
      }

      .cls-5 {
        fill: url(#_未命名的渐变_56-3);
      }

      .cls-6 {
        fill: url(#_未命名的渐变_30-2);
      }

      .cls-7 {
        fill: url(#_未命名的渐变_88-9);
      }

      .cls-8 {
        fill: url(#_未命名的渐变_88-8);
      }

      .cls-9 {
        fill: url(#_未命名的渐变_88-4);
      }

      .cls-10 {
        fill: url(#_未命名的渐变_88-5);
      }

      .cls-11 {
        fill: url(#_未命名的渐变_88-6);
      }

      .cls-12 {
        fill: url(#_未命名的渐变_88-7);
      }

      .cls-13 {
        fill: url(#_未命名的渐变_88-3);
      }

      .cls-14 {
        fill: url(#_未命名的渐变_88-2);
      }

      .cls-15 {
        fill: url(#_未命名的渐变_180-2);
      }

      .cls-16 {
        fill: url(#_未命名的渐变_182-3);
      }

      .cls-17 {
        fill: url(#_未命名的渐变_182-2);
      }

      .cls-18 {
        fill: url(#_未命名的渐变_200-2);
      }

      .cls-19 {
        fill: url(#_未命名的渐变_200-3);
      }

      .cls-20 {
        fill: url(#_未命名的渐变_200-6);
      }

      .cls-21 {
        fill: url(#_未命名的渐变_200-5);
      }

      .cls-22 {
        fill: url(#_未命名的渐变_200-4);
      }

      .cls-23 {
        fill: url(#_未命名的渐变_202-6);
      }

      .cls-24 {
        fill: url(#_未命名的渐变_202-7);
      }

      .cls-25 {
        fill: url(#_未命名的渐变_202-3);
      }

      .cls-26 {
        fill: url(#_未命名的渐变_202-4);
      }

      .cls-27 {
        fill: url(#_未命名的渐变_202-5);
      }

      .cls-28 {
        fill: url(#_未命名的渐变_202-2);
      }

      .cls-29 {
        fill: url(#_新建渐变色板_4);
      }

      .cls-30 {
        fill: url(#_新建渐变色板_3);
      }

      .cls-31 {
        fill: url(#_新建渐变色板_3-10);
      }

      .cls-32 {
        fill: url(#_新建渐变色板_3-18);
      }

      .cls-33 {
        fill: url(#_新建渐变色板_3-17);
      }

      .cls-34 {
        fill: url(#_新建渐变色板_3-16);
      }

      .cls-35 {
        fill: url(#_新建渐变色板_3-20);
      }

      .cls-36 {
        fill: url(#_新建渐变色板_3-11);
      }

      .cls-37 {
        fill: url(#_新建渐变色板_3-12);
      }

      .cls-38 {
        fill: url(#_新建渐变色板_3-22);
      }

      .cls-39 {
        fill: url(#_新建渐变色板_3-21);
      }

      .cls-40 {
        fill: url(#_新建渐变色板_3-23);
      }

      .cls-41 {
        fill: url(#_新建渐变色板_3-13);
      }

      .cls-42 {
        fill: url(#_新建渐变色板_3-15);
      }

      .cls-43 {
        fill: url(#_新建渐变色板_3-14);
      }

      .cls-44 {
        fill: url(#_新建渐变色板_3-19);
      }

      .cls-71 {
        opacity: .2;
      }

      .cls-72 {
        isolation: isolate;
      }

      .cls-45 {
        fill: url(#_未命名的渐变_202);
      }

      .cls-46 {
        fill: url(#_未命名的渐变_200);
      }

      .cls-47 {
        fill: url(#_未命名的渐变_182);
      }

      .cls-48 {
        fill: url(#_未命名的渐变_180);
      }

      .cls-49 {
        fill: #010714;
        opacity: 0;
      }

      .cls-50 {
        fill: #5bc3f8;
      }

      .cls-51 {
        fill: #9b9b9b;
      }

      .cls-52 {
        fill: #44546f;
      }

      .cls-53 {
        fill: #193d71;
      }

      .cls-54 {
        fill: #b92e4b;
      }

      .cls-55 {
        fill: #323e51;
      }

      .cls-73 {
        fill: none;
        stroke: #44546f;
        stroke-miterlimit: 10;
        stroke-width: .25px;
      }

      .cls-56 {
        fill: url(#_新建渐变色板_3-6);
      }

      .cls-57 {
        fill: url(#_新建渐变色板_3-5);
      }

      .cls-58 {
        fill: url(#_新建渐变色板_3-4);
      }

      .cls-59 {
        fill: url(#_新建渐变色板_3-3);
      }

      .cls-60 {
        fill: url(#_新建渐变色板_3-2);
      }

      .cls-61 {
        fill: url(#_新建渐变色板_3-8);
      }

      .cls-62 {
        fill: url(#_新建渐变色板_3-7);
      }

      .cls-63 {
        fill: url(#_新建渐变色板_3-9);
      }

      .cls-64 {
        fill: url(#_新建渐变色板_4-4);
      }

      .cls-65 {
        fill: url(#_新建渐变色板_4-2);
      }

      .cls-66 {
        fill: url(#_新建渐变色板_4-3);
      }

      .cls-67 {
        fill: url(#_新建渐变色板_4-8);
      }

      .cls-68 {
        fill: url(#_新建渐变色板_4-6);
      }

      .cls-69 {
        fill: url(#_新建渐变色板_4-7);
      }

      .cls-70 {
        fill: url(#_新建渐变色板_4-5);
      }
    </style>
    <linearGradient id="_未命名的渐变_88" data-name="未命名的渐变 88" x1="103.14" y1="115.63" x2="115.37" y2="115.63" gradientUnits="userSpaceOnUse">
      <stop offset="0" stop-color="#283140"/>
      <stop offset="1" stop-color="#12161a"/>
    </linearGradient>
    <linearGradient id="_未命名的渐变_200" data-name="未命名的渐变 200" x1="82.35" y1="113.18" x2="103.12" y2="113.18" gradientUnits="userSpaceOnUse">
      <stop offset="0" stop-color="#425266"/>
      <stop offset="0" stop-color="#425266"/>
      <stop offset="1" stop-color="#596b8a"/>
    </linearGradient>
    <linearGradient id="_未命名的渐变_202" data-name="未命名的渐变 202" x1="82.33" y1="108.99" x2="115.37" y2="108.99" gradientUnits="userSpaceOnUse">
      <stop offset="0" stop-color="#87a9e4"/>
      <stop offset="1" stop-color="#547097"/>
      <stop offset="1" stop-color="#547097"/>
    </linearGradient>
    <linearGradient id="_新建渐变色板_3" data-name="新建渐变色板 3" x1="138.92" y1="26.39" x2="145.04" y2="36.27" gradientUnits="userSpaceOnUse">
      <stop offset="0" stop-color="#38455a"/>
      <stop offset=".15" stop-color="#7a96ca"/>
      <stop offset=".25" stop-color="#7a96ca"/>
      <stop offset=".9" stop-color="#12161a"/>
      <stop offset="1" stop-color="#283140"/>
    </linearGradient>
    <linearGradient id="_新建渐变色板_4" data-name="新建渐变色板 4" x1="133.09" y1="33.08" x2="141.69" y2="33.08" gradientUnits="userSpaceOnUse">
      <stop offset="0" stop-color="#87a9e4"/>
      <stop offset="1" stop-color="#547097"/>
      <stop offset="1" stop-color="#547097"/>
    </linearGradient>
    <linearGradient id="_新建渐变色板_3-2" data-name="新建渐变色板 3" x1="127.96" y1="24.53" x2="145.95" y2="53.6" xlink:href="#_新建渐变色板_3"/>
    <linearGradient id="_未命名的渐变_88-2" data-name="未命名的渐变 88" x1="54.64" y1="145.75" x2="66.87" y2="145.75" xlink:href="#_未命名的渐变_88"/>
    <linearGradient id="_未命名的渐变_200-2" data-name="未命名的渐变 200" x1="33.85" y1="143.29" x2="54.62" y2="143.29" xlink:href="#_未命名的渐变_200"/>
    <linearGradient id="_未命名的渐变_202-2" data-name="未命名的渐变 202" x1="33.83" y1="139.11" x2="66.87" y2="139.11" xlink:href="#_未命名的渐变_202"/>
    <linearGradient id="_未命名的渐变_88-3" data-name="未命名的渐变 88" x1="35.98" y1="104.29" x2="43.11" y2="104.29" xlink:href="#_未命名的渐变_88"/>
    <linearGradient id="_未命名的渐变_202-3" data-name="未命名的渐变 202" x1="33.13" y1="99.09" x2="43.11" y2="99.09" xlink:href="#_未命名的渐变_202"/>
    <linearGradient id="_未命名的渐变_88-4" data-name="未命名的渐变 88" x1="35.98" y1="123.3" x2="52.6" y2="123.3" xlink:href="#_未命名的渐变_88"/>
    <linearGradient id="_未命名的渐变_200-3" data-name="未命名的渐变 200" x1="30.24" y1="118.59" x2="46.27" y2="118.59" xlink:href="#_未命名的渐变_200"/>
    <linearGradient id="_新建渐变色板_3-3" data-name="新建渐变色板 3" x1="90.88" y1="102.02" x2="94.4" y2="108.16" xlink:href="#_新建渐变色板_3"/>
    <linearGradient id="_未命名的渐变_182" data-name="未命名的渐变 182" x1="57.46" y1="121.63" x2="60.79" y2="127.42" gradientUnits="userSpaceOnUse">
      <stop offset="0" stop-color="#38455a"/>
      <stop offset=".9" stop-color="#12161a"/>
      <stop offset="1" stop-color="#283140"/>
    </linearGradient>
    <radialGradient id="_未命名的渐变_180" data-name="未命名的渐变 180" cx="34.23" cy="84.12" fx="34.23" fy="84.12" r="45.59" gradientUnits="userSpaceOnUse">
      <stop offset="0" stop-color="#7a96ca"/>
      <stop offset=".9" stop-color="#12161a"/>
      <stop offset="1" stop-color="#283140"/>
    </radialGradient>
    <radialGradient id="_未命名的渐变_180-2" data-name="未命名的渐变 180" cx="101.5" cy="45" fx="101.5" fy="45" r="45.59" xlink:href="#_未命名的渐变_180"/>
    <linearGradient id="_新建渐变色板_3-4" data-name="新建渐变色板 3" x1="67.84" y1="45.5" x2="98.61" y2="97.65" xlink:href="#_新建渐变色板_3"/>
    <linearGradient id="_未命名的渐变_88-5" data-name="未命名的渐变 88" x1="57.62" y1="135.91" x2="84.68" y2="135.91" xlink:href="#_未命名的渐变_88"/>
    <linearGradient id="_未命名的渐变_88-6" data-name="未命名的渐变 88" x1="75.47" y1="121.41" x2="84.68" y2="121.41" xlink:href="#_未命名的渐变_88"/>
    <linearGradient id="_未命名的渐变_202-4" data-name="未命名的渐变 202" x1="68.76" y1="113.03" x2="80.9" y2="113.03" xlink:href="#_未命名的渐变_202"/>
    <linearGradient id="_未命名的渐变_200-4" data-name="未命名的渐变 200" x1="45.74" y1="129.11" x2="79.21" y2="129.11" xlink:href="#_未命名的渐变_200"/>
    <linearGradient id="_未命名的渐变_88-7" data-name="未命名的渐变 88" x1="106.12" y1="105.79" x2="133.18" y2="105.79" xlink:href="#_未命名的渐变_88"/>
    <linearGradient id="_未命名的渐变_88-8" data-name="未命名的渐变 88" x1="123.97" y1="91.29" x2="133.18" y2="91.29" xlink:href="#_未命名的渐变_88"/>
    <linearGradient id="_未命名的渐变_202-5" data-name="未命名的渐变 202" x1="117.26" y1="82.91" x2="129.4" y2="82.91" xlink:href="#_未命名的渐变_202"/>
    <linearGradient id="_未命名的渐变_200-5" data-name="未命名的渐变 200" x1="94.24" y1="98.99" x2="127.71" y2="98.99" xlink:href="#_未命名的渐变_200"/>
    <linearGradient id="_未命名的渐变_182-2" data-name="未命名的渐变 182" x1="87.93" y1="20.65" x2="102.34" y2="20.35" xlink:href="#_未命名的渐变_182"/>
    <linearGradient id="_新建渐变色板_3-5" data-name="新建渐变色板 3" x1="86.55" y1="24.99" x2="104.28" y2="24.63" xlink:href="#_新建渐变色板_3"/>
    <linearGradient id="_新建渐变色板_3-6" data-name="新建渐变色板 3" x1="86.57" y1="7.76" x2="101.98" y2="7.76" xlink:href="#_新建渐变色板_3"/>
    <linearGradient id="_新建渐变色板_3-7" data-name="新建渐变色板 3" x1="81.08" y1="14.39" x2="109.63" y2="13.81" xlink:href="#_新建渐变色板_3"/>
    <linearGradient id="_新建渐变色板_4-2" data-name="新建渐变色板 4" x1="79.3" y1="8.28" x2="107.88" y2="8.28" xlink:href="#_新建渐变色板_4"/>
    <linearGradient id="_新建渐变色板_3-8" data-name="新建渐变色板 3" x1="72.86" y1="34.75" x2="76.28" y2="40.72" xlink:href="#_新建渐变色板_3"/>
    <linearGradient id="_未命名的渐变_182-3" data-name="未命名的渐变 182" x1="44.81" y1="42.16" x2="59.22" y2="41.86" xlink:href="#_未命名的渐变_182"/>
    <linearGradient id="_新建渐变色板_3-9" data-name="新建渐变色板 3" x1="43.43" y1="46.51" x2="61.16" y2="46.14" xlink:href="#_新建渐变色板_3"/>
    <linearGradient id="_未命名的渐变_30" data-name="未命名的渐变 30" x1="43.44" y1="29.27" x2="58.86" y2="29.27" gradientUnits="userSpaceOnUse">
      <stop offset="0" stop-color="#2a73e4"/>
      <stop offset=".15" stop-color="#59c6f9"/>
      <stop offset=".25" stop-color="#59c6f9"/>
      <stop offset=".85" stop-color="#1433ca"/>
      <stop offset="1" stop-color="#2a73e4"/>
    </linearGradient>
    <linearGradient id="_未命名的渐变_30-2" data-name="未命名的渐变 30" x1="39.87" y1="35.91" x2="65.16" y2="35.12" xlink:href="#_未命名的渐变_30"/>
    <linearGradient id="_未命名的渐变_88-9" data-name="未命名的渐变 88" x1="10.55" y1="115.99" x2="18.38" y2="115.99" xlink:href="#_未命名的渐变_88"/>
    <linearGradient id="_未命名的渐变_202-6" data-name="未命名的渐变 202" x1="6.83" y1="110.84" x2="13.67" y2="110.84" xlink:href="#_未命名的渐变_202"/>
    <linearGradient id="_未命名的渐变_202-7" data-name="未命名的渐变 202" x1="19.99" y1="118.43" x2="26.83" y2="118.43" xlink:href="#_未命名的渐变_202"/>
    <linearGradient id="_未命名的渐变_200-6" data-name="未命名的渐变 200" x1="6.86" y1="117.96" x2="23.69" y2="117.96" xlink:href="#_未命名的渐变_200"/>
    <linearGradient id="_新建渐变色板_3-10" data-name="新建渐变色板 3" x1="14.53" y1="87.89" x2="32.52" y2="116.97" xlink:href="#_新建渐变色板_3"/>
    <linearGradient id="_新建渐变色板_4-3" data-name="新建渐变色板 4" x1="2.52" y1="104.53" x2="28.06" y2="104.53" gradientTransform="translate(54.59 6.47) rotate(30.16)" xlink:href="#_新建渐变色板_4"/>
    <linearGradient id="_新建渐变色板_3-11" data-name="新建渐变色板 3" x1="11.93" y1="101.74" x2="18.05" y2="111.63" xlink:href="#_新建渐变色板_3"/>
    <linearGradient id="_新建渐变色板_4-4" data-name="新建渐变色板 4" x1="6.1" y1="108.44" x2="14.71" y2="108.44" xlink:href="#_新建渐变色板_4"/>
    <linearGradient id="_新建渐变色板_3-12" data-name="新建渐变色板 3" x1="118.95" y1="68.02" x2="122.79" y2="76.24" xlink:href="#_新建渐变色板_3"/>
    <linearGradient id="_新建渐变色板_3-13" data-name="新建渐变色板 3" x1="112.71" y1="52.27" x2="117.74" y2="59.51" xlink:href="#_新建渐变色板_3"/>
    <linearGradient id="_新建渐变色板_3-14" data-name="新建渐变色板 3" x1="122.2" y1="64.56" x2="129.24" y2="79.62" xlink:href="#_新建渐变色板_3"/>
    <linearGradient id="_新建渐变色板_3-15" data-name="新建渐变色板 3" x1="112.9" y1="45.31" x2="124.43" y2="61.94" xlink:href="#_新建渐变色板_3"/>
    <linearGradient id="_新建渐变色板_4-5" data-name="新建渐变色板 4" x1="107.01" y1="63.98" x2="127.14" y2="63.98" xlink:href="#_新建渐变色板_4"/>
    <linearGradient id="_新建渐变色板_3-16" data-name="新建渐变色板 3" x1="92.34" y1="65.44" x2="95.79" y2="71.46" xlink:href="#_新建渐变色板_3"/>
    <linearGradient id="_新建渐变色板_3-17" data-name="新建渐变色板 3" x1="98.34" y1="81.86" x2="101.79" y2="87.88" xlink:href="#_新建渐变色板_3"/>
    <linearGradient id="_新建渐变色板_3-18" data-name="新建渐变色板 3" x1="70.35" y1="96.28" x2="74.19" y2="104.5" xlink:href="#_新建渐变色板_3"/>
    <linearGradient id="_新建渐变色板_3-19" data-name="新建渐变色板 3" x1="64.11" y1="80.53" x2="69.14" y2="87.77" xlink:href="#_新建渐变色板_3"/>
    <linearGradient id="_新建渐变色板_3-20" data-name="新建渐变色板 3" x1="73.6" y1="92.82" x2="80.64" y2="107.88" xlink:href="#_新建渐变色板_3"/>
    <linearGradient id="_新建渐变色板_3-21" data-name="新建渐变色板 3" x1="64.3" y1="73.57" x2="75.84" y2="90.2" xlink:href="#_新建渐变色板_3"/>
    <linearGradient id="_新建渐变色板_4-6" data-name="新建渐变色板 4" x1="58.41" y1="92.24" x2="78.54" y2="92.24" xlink:href="#_新建渐变色板_4"/>
    <linearGradient id="_新建渐变色板_3-22" data-name="新建渐变色板 3" x1="70.13" y1="98.11" x2="73.47" y2="103.92" xlink:href="#_新建渐变色板_3"/>
    <linearGradient id="_新建渐变色板_4-7" data-name="新建渐变色板 4" x1="67.39" y1="99.35" x2="70.84" y2="104.96" xlink:href="#_新建渐变色板_4"/>
    <linearGradient id="_新建渐变色板_3-23" data-name="新建渐变色板 3" x1="64.2" y1="81.94" x2="67.53" y2="87.76" xlink:href="#_新建渐变色板_3"/>
    <linearGradient id="_新建渐变色板_4-8" data-name="新建渐变色板 4" x1="61.45" y1="83.19" x2="64.91" y2="88.79" xlink:href="#_新建渐变色板_4"/>
    <linearGradient id="_未命名的渐变_56" data-name="未命名的渐变 56" x1="51.02" y1="77.08" x2="66.43" y2="77.08" gradientUnits="userSpaceOnUse">
      <stop offset="0" stop-color="#10243b" stop-opacity=".6"/>
      <stop offset=".03" stop-color="#10243b" stop-opacity=".6"/>
      <stop offset="1" stop-color="#10243b" stop-opacity=".6"/>
    </linearGradient>
    <linearGradient id="_未命名的渐变_56-2" data-name="未命名的渐变 56" x1="67.48" y1="75.12" x2="82.12" y2="75.12" xlink:href="#_未命名的渐变_56"/>
    <linearGradient id="_未命名的渐变_56-3" data-name="未命名的渐变 56" x1="83.24" y1="72.84" x2="98.64" y2="72.84" xlink:href="#_未命名的渐变_56"/>
  </defs>
  <g id="_图层_1-2" data-name="图层 1">
    <g id="_给水泵" data-name="给水泵">
      <rect class="cls-49" y="0" width="149.66" height="149.92"/>
      <g>
        <g>
          <polygon class="cls-1" points="115.37 111.45 115.36 112.71 103.14 119.81 103.14 118.55 115.37 111.45"/>
          <polygon class="cls-46" points="103.14 118.55 103.14 119.81 82.33 107.8 82.33 106.54 103.14 118.55"/>
          <polygon class="cls-45" points="115.37 111.45 103.14 118.55 82.33 106.54 94.55 99.43 115.37 111.45"/>
        </g>
        <g class="cls-72">
          <path class="cls-30" d="m146.87,33.87c.05-.15.11-.29.15-.46.03-.11.03-.24.05-.37.02-.13.05-.25.05-.39,0-.08,0-.17,0-.25,0-.07,0-.14,0-.21,0-.12-.01-.25-.02-.37-.01-.11-.02-.22-.04-.33,0-.04-.01-.08-.02-.11,0-.01,0-.03,0-.04,0-.05-.01-.1-.02-.15-.02-.09-.04-.19-.06-.28-.02-.09-.04-.18-.06-.27-.02-.09-.05-.17-.07-.26,0-.03-.02-.05-.02-.08,0,0,0-.02,0-.03-.02-.05-.03-.1-.05-.15-.03-.08-.06-.17-.09-.25-.03-.08-.06-.17-.09-.25-.03-.08-.07-.17-.1-.25-.02-.05-.04-.09-.06-.14,0,0,0-.02-.01-.03-.01-.03-.02-.06-.04-.08-.04-.08-.08-.17-.12-.25-.04-.08-.08-.17-.12-.25-.04-.08-.09-.17-.13-.25-.03-.06-.07-.12-.1-.18,0,0,0-.02-.01-.02,0-.02-.02-.03-.03-.05-.05-.09-.1-.17-.16-.26-.06-.09-.11-.18-.17-.27-.06-.1-.13-.19-.2-.28-.02-.03-.04-.05-.06-.08-.01-.02-.03-.03-.04-.05-.05-.06-.09-.13-.14-.19-.13-.16-.26-.32-.4-.48-.02-.02-.05-.04-.07-.07-.31-.35-.64-.66-.99-.93-.02-.02-.04-.04-.06-.06-.18-.14-.36-.26-.54-.38-.06-.04-.12-.07-.17-.1-.07-.04-.14-.08-.21-.11-.1-.05-.2-.1-.31-.15-.09-.04-.18-.07-.26-.11-.03,0-.05-.02-.08-.03-.01,0-.02,0-.03-.01-.04-.01-.08-.03-.13-.04-.07-.02-.14-.04-.21-.06-.07-.02-.14-.03-.2-.04-.06-.01-.13-.02-.19-.03-.02,0-.04,0-.05,0,0,0-.01,0-.02,0-.04,0-.07,0-.11,0-.06,0-.12,0-.18,0-.06,0-.12,0-.17,0-.06,0-.11.01-.17.02-.03,0-.06.01-.09.02,0,0-.01,0-.02,0-.02,0-.04,0-.06.01-.06.01-.11.03-.16.05-.05.02-.11.04-.16.06-.06.02-.11.05-.16.08-.03.02-.06.03-.09.05l-5.44,3.16c.19-.11.41-.19.63-.24,0,0,.01,0,.02,0,.22-.05.46-.06.72-.04,0,0,.01,0,.02,0,.25.02.52.08.79.17.01,0,.02,0,.03.01.28.1.56.23.86.39.27.15.53.34.78.54.35.27.68.59.99.93.21.23.42.48.61.73.01.02.03.03.04.05.22.3.43.61.61.94,0,0,0,.02.01.02.19.33.36.67.51,1.01,0,0,0,.02.01.03.15.34.28.69.38,1.04,0,0,0,.02,0,.03.1.35.18.7.24,1.04,0,.01,0,.03,0,.04.05.35.08.69.08,1.03,0,.23-.03.43-.06.64-.02.12-.03.25-.05.37-.04.16-.09.31-.15.45-.04.1-.06.2-.1.29-.07.15-.16.27-.25.39-.05.06-.08.13-.13.19-.15.17-.32.31-.5.42l5.44-3.16c.19-.11.35-.25.5-.42.05-.06.09-.13.13-.19.09-.12.18-.25.25-.39.04-.09.07-.19.1-.29Z"/>
          <path class="cls-29" d="m137.4,28.14c2.37,1.37,4.3,4.7,4.29,7.43,0,2.73-1.94,3.82-4.32,2.45-2.37-1.37-4.3-4.69-4.29-7.42s1.94-3.83,4.32-2.46Z"/>
        </g>
        <g class="cls-72">
          <path class="cls-60" d="m145.55,51.14c.1-.18.21-.35.3-.54.07-.14.13-.3.19-.45.08-.2.16-.39.23-.6.06-.16.1-.34.15-.51.06-.21.12-.43.17-.66.04-.18.07-.37.11-.56.04-.23.08-.47.1-.72.02-.2.04-.4.06-.61,0-.13.03-.25.03-.38.01-.24.02-.49.02-.75,0-.21,0-.42,0-.63,0-.23-.03-.46-.04-.7,0-.1-.01-.2-.02-.3,0-.04,0-.08,0-.12-.03-.32-.07-.65-.11-.98-.01-.09-.03-.18-.04-.27-.01-.08-.03-.17-.04-.25-.02-.12-.04-.25-.06-.37-.05-.28-.11-.55-.17-.83-.01-.06-.03-.12-.04-.18-.01-.06-.03-.12-.04-.18-.04-.15-.07-.3-.11-.45-.07-.26-.14-.52-.21-.78-.02-.06-.04-.13-.06-.19-.02-.06-.03-.11-.05-.17-.04-.13-.08-.27-.12-.4-.08-.25-.17-.5-.25-.75-.03-.09-.06-.17-.1-.26-.02-.06-.04-.11-.06-.17-.04-.1-.07-.2-.11-.31-.1-.25-.19-.49-.3-.74-.05-.12-.1-.24-.15-.35-.02-.05-.05-.11-.07-.16-.03-.07-.06-.15-.09-.22-.11-.25-.23-.49-.34-.74-.07-.15-.14-.29-.22-.43-.03-.05-.05-.1-.07-.15-.03-.05-.05-.1-.07-.15-.13-.25-.26-.5-.4-.74-.09-.16-.18-.32-.27-.47-.03-.05-.06-.1-.08-.15-.02-.04-.05-.08-.07-.12-.15-.26-.3-.51-.46-.76-.09-.14-.18-.28-.27-.41-.04-.07-.09-.13-.13-.2-.04-.06-.08-.12-.12-.18-.19-.28-.38-.56-.58-.84-.05-.06-.09-.13-.14-.19-.08-.11-.16-.21-.23-.31-.11-.15-.22-.31-.34-.46-.08-.11-.17-.21-.26-.31-.21-.26-.42-.52-.64-.77-.09-.11-.18-.23-.28-.33-.06-.07-.13-.13-.19-.19-.43-.47-.87-.93-1.32-1.36-.05-.04-.09-.09-.13-.13-.49-.46-1-.89-1.52-1.3-.06-.04-.11-.1-.17-.14-.1-.08-.2-.14-.3-.21-.34-.25-.68-.49-1.02-.71-.1-.07-.2-.14-.3-.21-.17-.11-.35-.21-.52-.31-.21-.12-.41-.23-.62-.34-.17-.09-.34-.17-.52-.25-.09-.04-.18-.09-.26-.13-.04-.02-.09-.04-.13-.06-.26-.12-.53-.22-.79-.32-.06-.02-.13-.04-.19-.06-.06-.02-.13-.04-.19-.06-.11-.04-.22-.08-.32-.11-.21-.06-.42-.12-.63-.17-.04,0-.08-.02-.12-.02-.04,0-.08-.02-.13-.03-.12-.02-.24-.05-.35-.07-.19-.03-.38-.06-.57-.08-.04,0-.09,0-.13-.01-.04,0-.08,0-.12,0-.1,0-.2-.02-.29-.02-.18,0-.35-.01-.52,0-.06,0-.12,0-.18,0-.04,0-.08,0-.12,0-.07,0-.14,0-.21.01-.17.01-.33.04-.5.06-.08.01-.15.03-.23.05-.04,0-.07.01-.11.02-.05.01-.1.02-.15.03-.16.04-.32.08-.48.13-.08.03-.16.06-.25.09-.04.01-.07.03-.11.04-.04.02-.08.03-.12.04-.16.07-.32.14-.48.22-.09.05-.18.1-.27.15l-5.44,3.16c.28-.16.57-.3.87-.41.04-.01.07-.03.11-.04.28-.1.57-.19.88-.25.04,0,.07-.01.11-.02.3-.06.62-.1.94-.12.04,0,.08,0,.12,0,.32-.01.66,0,1,.02.04,0,.08,0,.12,0,.34.03.69.09,1.05.16.04,0,.08.02.13.03.35.08.71.18,1.08.3.06.02.13.04.19.06.36.13.73.27,1.11.44.09.04.18.09.26.13.37.18.75.37,1.13.59.28.16.55.34.82.52.34.22.68.46,1.02.71.16.12.31.23.47.35.52.41,1.03.84,1.52,1.3.04.04.09.09.13.13.45.43.89.89,1.32,1.36.16.17.31.35.46.52.22.25.43.51.64.77.2.25.41.51.6.77.08.1.16.21.23.31.29.4.57.8.84,1.21.04.07.09.13.13.2.28.43.54.86.8,1.3.03.05.05.1.08.15.26.45.51.91.74,1.37.02.05.05.1.07.14.23.46.45.92.66,1.39.02.05.05.11.07.16.2.46.39.93.56,1.4.02.06.04.11.06.17.17.47.33.94.47,1.41.02.06.03.11.05.17.14.47.27.94.38,1.42.01.06.03.12.04.18.11.46.19.92.27,1.38.01.08.03.17.04.25.07.46.13.92.17,1.37,0,.1.01.2.02.29.03.45.05.89.05,1.32,0,.39-.03.76-.05,1.12-.02.21-.03.41-.06.61-.03.25-.06.48-.1.72-.03.19-.07.38-.11.56-.05.23-.11.44-.17.66-.05.17-.1.34-.15.51-.07.21-.15.4-.23.6-.06.15-.12.31-.19.45-.09.19-.2.37-.3.54-.08.13-.15.26-.23.39-.12.17-.24.33-.37.49-.08.1-.16.22-.25.32-.15.17-.31.31-.47.46-.08.07-.15.16-.24.22-.25.2-.51.39-.79.55l5.44-3.16c.28-.16.54-.35.79-.55.08-.07.16-.15.24-.22.16-.15.32-.29.47-.46.09-.1.17-.21.25-.32.13-.16.26-.32.37-.49.08-.12.15-.26.23-.39Z"/>
          <ellipse class="cls-52" cx="128.72" cy="41.16" rx="10.42" ry="18" transform="translate(-3.25 70.25) rotate(-30.16)"/>
        </g>
        <g>
          <polygon class="cls-14" points="66.87 141.57 66.86 142.83 54.64 149.93 54.64 148.67 66.87 141.57"/>
          <polygon class="cls-18" points="54.64 148.67 54.64 149.93 33.83 137.91 33.83 136.66 54.64 148.67"/>
          <polygon class="cls-28" points="66.87 141.57 54.64 148.67 33.83 136.66 46.05 129.55 66.87 141.57"/>
        </g>
        <polygon class="cls-13" points="42.29 107.92 35.98 108.89 36.79 100.66 43.11 99.69 42.29 107.92"/>
        <polygon class="cls-25" points="43.11 99.69 36.79 100.66 33.13 98.49 39.45 97.52 43.11 99.69"/>
        <g>
          <polygon class="cls-9" points="52.6 137.72 46.29 138.69 35.98 108.89 42.29 107.92 52.6 137.72"/>
          <polygon class="cls-19" points="33.13 98.49 36.79 100.66 35.98 108.89 46.29 138.69 39.75 134.97 30.22 105.63 33.13 98.49"/>
        </g>
        <g class="cls-72">
          <path class="cls-59" d="m126.45,88.44c.03-.09.06-.17.09-.27.01-.07.02-.14.03-.21.01-.08.03-.15.03-.23,0-.05,0-.1,0-.15,0-.04,0-.08,0-.12,0-.07,0-.14-.01-.22,0-.06-.01-.13-.02-.19,0-.02,0-.04-.01-.07,0,0,0-.02,0-.02,0-.03,0-.06-.01-.08,0-.05-.02-.11-.03-.16-.01-.05-.02-.1-.04-.16-.01-.05-.03-.1-.04-.15,0-.02,0-.03-.01-.05,0,0,0-.01,0-.02,0-.03-.02-.05-.02-.08-.02-.05-.03-.1-.05-.15-.02-.05-.03-.1-.05-.14s-.04-.1-.06-.14c-.01-.03-.02-.06-.04-.09,0,0,0-.01,0-.02,0-.01-.01-.03-.02-.04-.02-.05-.04-.1-.07-.14-.02-.05-.05-.1-.07-.14-.02-.05-.05-.1-.08-.15-.02-.04-.04-.08-.06-.11,0,0,0,0,0-.01,0,0,0-.01-.01-.02-.03-.05-.06-.1-.09-.15-.03-.05-.07-.1-.1-.16-.04-.06-.07-.11-.11-.16-.01-.02-.03-.04-.04-.05,0,0-.01-.02-.02-.03-.03-.03-.05-.07-.08-.1-.07-.1-.15-.19-.23-.28-.01-.02-.03-.03-.04-.04-.18-.2-.38-.38-.58-.55-.01,0-.02-.02-.03-.03-.1-.08-.21-.16-.32-.22-.03-.02-.07-.04-.1-.06-.04-.02-.08-.05-.12-.07-.06-.03-.12-.06-.18-.09-.05-.02-.1-.04-.15-.06-.01,0-.03,0-.04-.01,0,0-.01,0-.02,0-.03,0-.05-.02-.08-.03-.04-.01-.08-.02-.12-.03-.04,0-.08-.02-.12-.02-.04,0-.07-.01-.11-.02,0,0-.02,0-.03,0,0,0,0,0,0,0-.02,0-.05,0-.07,0-.03,0-.07,0-.1,0-.03,0-.07,0-.1,0-.03,0-.06,0-.1.01-.02,0-.03,0-.05,0,0,0,0,0,0,0-.01,0-.02,0-.04,0-.03,0-.06.02-.09.03-.03,0-.06.02-.09.03-.03.01-.06.03-.09.04-.02,0-.04.02-.05.03l-65.24,37.91c.11-.06.23-.11.37-.14,0,0,0,0,0,0,.13-.03.27-.03.42-.02,0,0,0,0,0,0,.15.01.3.05.46.1,0,0,.01,0,.02,0,.16.06.33.13.5.23.16.09.31.2.45.31.2.16.4.34.58.55.12.13.24.27.35.42,0,.01.02.02.02.03.13.17.25.36.36.54,0,0,0,0,0,.01.11.19.21.39.3.59,0,0,0,.01,0,.02.09.2.16.4.22.6,0,0,0,.01,0,.02.06.2.11.4.14.6,0,0,0,.02,0,.02.03.2.05.4.05.6,0,.14-.02.25-.04.37,0,.07-.01.15-.03.21-.02.1-.05.18-.09.27-.02.05-.04.12-.06.17-.04.09-.1.16-.15.23-.03.03-.05.08-.07.11-.09.1-.19.18-.29.24l65.24-37.91c.11-.06.21-.15.29-.24.03-.03.05-.07.07-.11.05-.07.11-.14.15-.23.02-.05.04-.11.06-.16Z"/>
          <path class="cls-47" d="m58.86,121.19c1.38.8,2.5,2.72,2.49,4.31s-1.13,2.23-2.51,1.43-2.49-2.73-2.48-4.31c0-1.58,1.12-2.22,2.5-1.42Z"/>
        </g>
        <circle class="cls-48" cx="38.81" cy="95.9" r="34.81"/>
        <circle class="cls-15" cx="106.08" cy="56.79" r="34.81"/>
        <path class="cls-58" d="m132.25,65.68c-.01-.37-.03-.75-.05-1.13-.01-.17-.03-.34-.04-.51,0-.07-.01-.15-.02-.22-.01-.13-.02-.26-.03-.4-.04-.38-.08-.76-.13-1.14-.05-.39-.1-.78-.17-1.17,0-.01,0-.02,0-.03,0-.01,0-.03,0-.04-.06-.37-.12-.74-.19-1.11-.08-.4-.16-.81-.25-1.22-.03-.14-.07-.29-.1-.43-.02-.08-.04-.17-.06-.25-.04-.18-.08-.36-.13-.54-.1-.41-.21-.82-.32-1.24-.08-.3-.17-.6-.26-.9-.02-.06-.03-.11-.05-.17-.02-.05-.03-.11-.05-.16-.12-.4-.25-.8-.39-1.2-.13-.4-.27-.79-.41-1.19-.03-.07-.06-.15-.08-.22-.02-.06-.04-.12-.07-.18-.09-.25-.18-.5-.28-.75-.15-.38-.3-.76-.46-1.13-.11-.27-.23-.54-.35-.81-.02-.05-.04-.1-.06-.14-.02-.05-.05-.11-.07-.16-.17-.38-.34-.75-.51-1.13-.19-.41-.39-.82-.59-1.22-.03-.06-.06-.12-.09-.18-.04-.08-.08-.16-.12-.24-.17-.33-.33-.65-.5-.98-.22-.4-.45-.8-.67-1.2-.11-.2-.22-.41-.34-.61-.05-.08-.09-.16-.14-.24-.2-.35-.43-.68-.64-1.02-.31-.5-.61-1.01-.94-1.5-.05-.08-.1-.16-.15-.24-.47-.71-.96-1.4-1.46-2.09,0,0,0-.01-.01-.02-.34-.46-.68-.91-1.03-1.36-.28-.36-.57-.72-.87-1.07,0,0-.01-.02-.02-.03,0,0,0,0-.01-.01-.3-.36-.6-.71-.9-1.05-.3-.34-.6-.67-.91-1-.05-.05-.1-.11-.15-.16-.05-.06-.1-.11-.16-.16-.21-.23-.43-.45-.64-.67-.32-.33-.65-.65-.98-.97-.1-.1-.21-.19-.31-.29-.08-.07-.16-.15-.23-.22-.16-.15-.32-.3-.48-.45-.34-.31-.69-.61-1.04-.9-.15-.13-.31-.25-.46-.38-.08-.06-.16-.13-.24-.19-.11-.09-.23-.19-.34-.28-.34-.27-.68-.53-1.02-.78-.25-.18-.5-.36-.75-.53-.05-.03-.09-.07-.14-.1-.04-.03-.08-.06-.13-.09-.33-.22-.66-.44-.99-.65-.33-.21-.66-.41-.99-.6-.08-.04-.15-.09-.23-.13-.25-.14-.5-.28-.74-.41-.32-.17-.64-.34-.96-.49-.21-.1-.41-.19-.61-.29-.05-.02-.1-.05-.15-.07-.06-.03-.12-.06-.18-.09-.31-.14-.62-.27-.93-.4-.32-.13-.63-.24-.94-.35-.05-.02-.1-.03-.16-.05-.05-.02-.09-.03-.14-.05-.21-.07-.42-.14-.63-.21-.32-.1-.64-.19-.96-.27-.15-.04-.3-.07-.46-.1-.07-.01-.13-.03-.2-.04-.1-.02-.2-.05-.3-.07-.34-.07-.68-.12-1.02-.17-.21-.03-.41-.04-.61-.06-.07,0-.15-.02-.22-.02-.07,0-.14-.02-.21-.02-.37-.03-.73-.04-1.09-.04-.16,0-.31.02-.47.02-.12,0-.24,0-.36.02-.13,0-.25,0-.38.02-.46.04-.91.11-1.34.19,0,0-.02,0-.02,0-.1.02-.19.06-.28.08-.45.1-.9.21-1.32.36-.04.01-.07.03-.1.05-.62.23-1.22.5-1.79.83L21.77,65.94c.57-.33,1.17-.6,1.79-.83.46-.17.94-.3,1.42-.41.1-.02.19-.06.28-.08.56-.11,1.15-.18,1.74-.22.12,0,.24-.01.36-.02.58-.02,1.17-.01,1.77.04.07,0,.14.02.22.02.63.06,1.27.16,1.93.3.07.01.13.03.2.04.67.15,1.36.34,2.05.57.05.02.09.03.14.05.73.25,1.47.55,2.21.89.05.02.1.05.15.07.76.35,1.53.75,2.31,1.2.79.46,1.57.95,2.33,1.48.05.03.09.06.13.1.72.5,1.42,1.03,2.12,1.59.08.06.16.13.23.19.67.55,1.33,1.13,1.98,1.73.08.07.15.14.23.22.66.62,1.3,1.26,1.93,1.93.05.06.11.11.16.17.67.72,1.33,1.46,1.97,2.23,0,0,.01.02.02.03.65.79,1.29,1.6,1.9,2.43,0,0,0,0,0,0,.56.76,1.1,1.54,1.62,2.34.32.49.63.99.94,1.49.26.42.53.84.78,1.27.12.2.23.41.34.61.4.72.8,1.44,1.17,2.17.04.08.08.16.12.24.45.89.87,1.79,1.27,2.7.02.05.04.1.06.14.39.89.75,1.78,1.08,2.68.02.06.05.12.07.18.34.92.65,1.85.93,2.77.02.06.03.11.05.17.27.89.5,1.78.71,2.67.02.08.04.17.06.25.21.92.39,1.84.54,2.75,0,.01,0,.03,0,.04.15.92.25,1.83.33,2.74,0,.07.01.15.02.22.07.91.11,1.81.11,2.69,0,.89-.05,1.74-.12,2.56,0,.07-.02.15-.02.22-.08.75-.18,1.48-.32,2.17-.02.09-.04.19-.06.28-.14.67-.31,1.32-.5,1.94-.04.12-.08.23-.11.34-.19.58-.41,1.13-.65,1.66-.03.06-.05.13-.08.19-.28.6-.6,1.17-.94,1.7-.04.07-.1.13-.14.2-.28.42-.59.82-.91,1.2-.12.14-.24.26-.36.39-.28.3-.57.58-.88.85-.13.11-.25.22-.38.33-.43.34-.88.66-1.35.94l70.68-41.07c.47-.27.92-.59,1.35-.94.13-.1.25-.22.38-.33.3-.26.59-.55.87-.85.12-.13.24-.26.36-.39.32-.37.62-.77.9-1.2.05-.07.1-.13.14-.2,0-.02.02-.03.03-.04.32-.5.61-1.03.88-1.59,0-.02.02-.04.02-.06.03-.06.05-.13.08-.19.16-.35.32-.7.45-1.08.07-.19.13-.39.19-.58.04-.11.08-.23.11-.34.03-.1.07-.2.1-.31.11-.39.22-.78.31-1.19.03-.14.06-.29.09-.44.02-.09.04-.19.06-.28.03-.14.06-.28.08-.42.06-.36.12-.74.17-1.11.03-.21.04-.43.07-.64,0-.07.02-.15.02-.22,0-.09.02-.17.03-.26.03-.36.05-.73.07-1.1.02-.37.02-.75.03-1.13,0-.02,0-.04,0-.07,0-.35,0-.7-.01-1.05Z"/>
        <path class="cls-73" d="m42.52,53.67s16.43,2.54,27.77,20.14c11.34,17.6,6.45,36.77,6.45,36.77"/>
        <path class="cls-73" d="m61.49,42.91s16.43,2.54,27.77,20.14c11.34,17.6,6.45,36.77,6.45,36.77"/>
        <path class="cls-73" d="m80.46,32.15s16.43,2.54,27.77,20.14c11.34,17.6,6.45,36.77,6.45,36.77"/>
        <g class="cls-72">
          <polygon class="cls-10" points="79.25 129.43 84.68 126.27 63.06 142.38 57.62 145.54 79.25 129.43"/>
          <polygon class="cls-11" points="75.47 116.55 80.9 113.39 84.68 126.27 79.25 129.43 75.47 116.55"/>
          <polygon class="cls-26" points="68.76 112.67 74.19 109.51 80.9 113.39 75.47 116.55 68.76 112.67"/>
          <polygon class="cls-22" points="75.47 116.55 79.25 129.43 57.62 145.54 45.7 138.48 68.73 123.18 68.76 112.67 75.47 116.55"/>
        </g>
        <g class="cls-72">
          <polygon class="cls-12" points="127.75 99.31 133.18 96.16 111.56 112.26 106.12 115.42 127.75 99.31"/>
          <polygon class="cls-8" points="123.97 86.43 129.4 83.27 133.18 96.16 127.75 99.31 123.97 86.43"/>
          <polygon class="cls-27" points="117.26 82.56 122.69 79.4 129.4 83.27 123.97 86.43 117.26 82.56"/>
          <polygon class="cls-21" points="123.97 86.43 127.75 99.31 106.12 115.42 94.2 108.37 117.23 93.06 117.26 82.56 123.97 86.43"/>
        </g>
        <g>
          <g class="cls-72">
            <path class="cls-17" d="m99.24,7.03c-.31-.18-.65-.34-1-.48-.02,0-.04-.01-.05-.02-.05-.02-.11-.04-.17-.06-.2-.07-.41-.15-.62-.21-.11-.03-.23-.06-.34-.08-.07-.02-.13-.03-.2-.05-.06-.01-.12-.03-.18-.05-.23-.05-.46-.09-.69-.12-.08-.01-.16-.02-.24-.03-.06,0-.11-.01-.17-.02-.09,0-.17-.02-.26-.03-.23-.02-.45-.03-.68-.04-.07,0-.14,0-.21,0-.06,0-.12,0-.18,0-.11,0-.21,0-.32,0-.26,0-.51.03-.77.05-.03,0-.05,0-.08.01-.07,0-.13.02-.2.03-.2.03-.4.05-.6.08-.09.02-.16.04-.25.06-.24.05-.46.11-.69.17-.12.03-.25.05-.37.09-.05.02-.1.05-.15.07-.48.17-.95.36-1.36.6-.03.02-.06.03-.08.05-.13.08-.23.17-.35.26-.17.12-.34.23-.48.36-.01.01-.03.02-.05.03-.16.15-.31.3-.43.46-.03.04-.05.07-.07.11-.03.04-.05.08-.08.11-.04.06-.09.13-.13.19-.07.13-.14.26-.18.39,0,.02-.01.04-.02.06,0,.03-.01.05-.02.08-.03.08-.06.17-.07.25-.03.13-.04.27-.05.4,0,.02,0,.04,0,.06l-.07,25.15c0-.24.05-.48.12-.71,0-.03.01-.05.02-.08.08-.22.19-.43.33-.65.03-.04.05-.08.08-.11.15-.21.33-.41.55-.61.14-.13.32-.24.49-.36.14-.1.27-.21.43-.31.42-.24.88-.43,1.36-.6.17-.06.35-.11.52-.16.23-.06.46-.12.69-.17.28-.06.56-.11.85-.15.07,0,.13-.02.2-.03.39-.04.78-.06,1.17-.06.06,0,.12,0,.19,0,.39,0,.77.02,1.15.06.06,0,.11.01.17.02.38.05.75.11,1.11.19.07.02.13.03.2.05.33.08.65.18.96.29.05.02.11.04.17.06.37.14.73.31,1.06.5,1.37.79,2.06,1.83,2.05,2.87l.07-25.15c0-1.04-.68-2.07-2.05-2.87Z"/>
            <path class="cls-57" d="m102.81,10.78s-.02.06-.03.1c-.09.27-.24.54-.41.8-.03.05-.06.09-.09.14-.19.26-.41.51-.68.75-.17.16-.39.3-.6.44-.18.13-.33.26-.53.38-.37.22-.78.4-1.2.57-.11.04-.22.09-.33.13-.26.09-.53.17-.81.25-.28.08-.57.15-.86.21-.35.07-.69.14-1.05.18-.08.01-.17.03-.25.04-.48.05-.96.08-1.45.08-.08,0-.15,0-.23,0-.48,0-.96-.03-1.43-.08-.07,0-.14-.02-.21-.02-.47-.06-.93-.14-1.38-.24-.08-.02-.16-.04-.25-.06-.41-.1-.81-.22-1.2-.36-.07-.02-.14-.04-.21-.07-.46-.18-.9-.38-1.31-.62-1.7-.98-2.55-2.27-2.54-3.55l-.07,25.15c0,1.29.85,2.57,2.54,3.55.39.22.8.42,1.24.6.02,0,.05.01.07.02.07.03.14.05.21.07.25.09.5.18.76.26.14.04.28.07.43.1.08.02.16.04.25.06.08.02.15.04.22.06.28.06.57.11.85.15.1.01.2.02.3.03.07,0,.14.02.21.02.11.01.21.03.32.04.28.02.56.04.85.05.09,0,.18,0,.26,0,.08,0,.15,0,.23,0,.13,0,.26,0,.39,0,.32-.01.64-.03.95-.06.04,0,.07-.01.11-.01.08,0,.17-.02.25-.03.25-.03.5-.06.74-.1.11-.02.2-.06.31-.08.29-.06.58-.13.86-.21.15-.04.31-.07.46-.11.12-.04.23-.09.35-.13.11-.04.22-.08.33-.13.42-.17.83-.35,1.2-.57.04-.02.07-.04.1-.06.16-.1.28-.21.43-.32.21-.15.43-.29.6-.44.02-.01.04-.03.06-.04.2-.19.38-.38.53-.57.04-.05.06-.09.09-.14.03-.05.06-.09.1-.14.05-.08.11-.15.16-.23.09-.16.17-.32.23-.49,0-.03.01-.05.02-.08.01-.03.02-.06.03-.1.03-.1.07-.21.09-.31.03-.16.05-.33.06-.49,0-.03,0-.05,0-.08l.07-25.15c0,.3-.06.59-.15.88Z"/>
            <path class="cls-54" d="m100.41,6.34c3.37,1.94,3.4,5.1.05,7.05s-8.81,1.94-12.17,0c-3.37-1.94-3.4-5.1-.04-7.05,3.35-1.94,8.8-1.94,12.16,0Zm-10.95,6.36c2.72,1.57,7.12,1.57,9.82,0,2.7-1.57,2.68-4.11-.04-5.68-2.72-1.57-7.11-1.58-9.81,0s-2.69,4.12.03,5.69"/>
          </g>
          <path class="cls-56" d="m99.71,4.94c-.35-.2-.72-.38-1.11-.53-.02,0-.04-.01-.06-.02-.06-.02-.13-.04-.19-.06-.22-.08-.45-.16-.68-.23-.13-.04-.26-.06-.39-.1-.07-.02-.14-.04-.22-.05-.07-.01-.13-.03-.2-.05-.25-.05-.51-.1-.76-.13-.09-.01-.19-.02-.28-.03-.06,0-.13-.01-.19-.02-.09,0-.18-.02-.28-.03-.25-.02-.51-.03-.76-.04-.08,0-.16,0-.24,0-.07,0-.14,0-.2,0-.11,0-.23,0-.34,0-.29,0-.57.03-.85.06-.03,0-.07.01-.1.01-.08,0-.15.02-.23.03-.22.03-.44.05-.65.09-.1.02-.18.05-.28.07-.26.05-.52.12-.77.19-.13.04-.28.06-.41.1-.06.02-.11.05-.17.08-.54.19-1.05.4-1.52.67-.03.02-.06.04-.09.06-.15.09-.25.19-.38.28-.19.13-.39.26-.54.4-.01.01-.04.02-.05.04-.18.17-.34.34-.48.51-.03.04-.05.08-.08.12-.03.04-.06.08-.09.13-.05.07-.1.14-.14.21-.08.14-.15.29-.21.44,0,.02-.01.05-.02.07,0,.03-.02.06-.02.08-.03.09-.06.19-.08.28-.03.15-.05.29-.05.44,0,.02,0,.05,0,.07v3.77c0-.27.04-.53.12-.79,0-.03.01-.06.02-.08.08-.24.21-.48.37-.72.03-.04.06-.09.09-.13.17-.23.37-.46.61-.67.16-.14.36-.27.54-.4.16-.11.3-.23.48-.34.46-.27.98-.48,1.52-.67.19-.07.38-.12.58-.18.25-.07.51-.14.77-.19.31-.06.62-.12.93-.16.08,0,.15-.02.23-.03.43-.05.86-.07,1.29-.07.07,0,.14,0,.21,0,.43,0,.86.03,1.28.07.06,0,.13.01.19.02.42.05.83.12,1.24.21.07.02.15.04.22.05.37.09.72.2,1.07.32.06.02.13.04.19.06.41.16.81.34,1.18.55,1.51.87,2.27,2.02,2.27,3.17v-3.77c.01-1.15-.74-2.3-2.26-3.17Z"/>
          <g>
            <path class="cls-55" d="m86.9,6.38s.04,0,.06,0c.09-.21.23-.42.46-.58.34-.23.69-.45,1.03-.68.01,0,.02,0,.03-.01v-1.59c0-.24-.15-.47-.46-.65-.07-.04-.14-.08-.22-.11-.06-.02-.12-.05-.19-.06-.03,0-.06-.02-.1-.02,0,0-.01,0-.02,0-.02,0-.03,0-.04-.01-.05-.01-.1-.02-.16-.03-.05,0-.1-.01-.15-.02-.05,0-.1,0-.16,0-.02,0-.04,0-.06,0,0,0-.01,0-.02,0-.03,0-.05,0-.08,0-.06,0-.12,0-.18.01-.07,0-.14.02-.2.03-.03,0-.06.02-.09.02-.03,0-.05.01-.08.02-.05.01-.09.02-.14.03-.12.04-.24.09-.35.15,0,0-.01,0-.02.01-.07.05-.14.09-.2.15-.04.03-.07.07-.1.1,0,.01-.01.02-.02.03,0,0,0,0,0,.01-.01.02-.02.03-.03.05-.02.03-.03.06-.04.09-.01.03-.02.06-.03.09,0,.03,0,.06-.01.09,0,0,0,0,0,.01v3.77c-.01-.11.03-.23.1-.33,0,0,0,0,0-.01.08-.11.19-.21.33-.29.14-.08.31-.14.48-.19.03,0,.05-.01.08-.02.18-.04.36-.06.55-.06,0,0,.01,0,.02,0Z"/>
            <path class="cls-55" d="m84.96,7.26c-.07-.04-.15-.08-.23-.11-.06-.02-.12-.05-.19-.06-.02,0-.05-.01-.08-.02,0,0-.02,0-.02,0-.02,0-.04-.01-.07-.02-.05-.01-.1-.02-.16-.03-.05,0-.1-.01-.15-.02-.05,0-.11,0-.16,0-.02,0-.05,0-.07,0-.03,0-.06,0-.09,0-.06,0-.12,0-.17.01-.07,0-.14.02-.2.03-.04,0-.07.02-.1.03-.03,0-.05.01-.08.02-.04,0-.08.02-.11.03-.11.04-.2.08-.3.13-.02,0-.04.02-.06.03,0,0,0,0-.01,0-.08.05-.14.1-.2.15-.04.03-.07.07-.1.1,0,0,0,.01-.01.02,0,0,0,0,0,.01-.02.02-.03.04-.04.06-.02.03-.03.06-.04.09-.01.03-.02.06-.03.09,0,.03,0,.06-.01.09,0,0,0,.01,0,.02v3.77c-.01-.12.03-.24.11-.35,0,0,0,0,0-.01.08-.1.19-.2.32-.28.02,0,.04-.02.06-.03.12-.07.26-.12.41-.16.03,0,.05-.01.08-.02.18-.04.37-.07.57-.07.22,0,.42.03.61.07,0,0,.02,0,.02,0,.19.05.35.11.49.19.29.17.46.39.46.65v-3.77c.01-.25-.16-.48-.45-.65Z"/>
            <path class="cls-55" d="m103.27,11.58c-.05-.03-.11-.05-.16-.08-.23-.05-.47-.1-.7-.15-.03,0-.05-.03-.08-.03-.03,0-.07,0-.1,0-.02,0-.04,0-.06,0,0,0-.01,0-.02,0-.03,0-.06,0-.08,0-.06,0-.12,0-.18.01-.07,0-.14.02-.2.03-.03,0-.05.01-.08.02-.03,0-.05.01-.07.02-.05.01-.1.02-.14.03-.12.04-.24.09-.34.15,0,0-.01,0-.02.01-.08.05-.14.1-.2.15-.04.03-.07.07-.1.11,0,.01-.01.02-.02.03,0,0,0,0,0,.01-.01.02-.02.03-.03.05-.02.03-.03.06-.04.09-.01.03-.02.06-.03.09,0,.03,0,.06-.01.09,0,0,0,0,0,.01v3.77c-.01-.11.03-.23.1-.34,0,0,0,0,0-.01.08-.11.19-.21.34-.3.14-.08.31-.14.48-.18.02,0,.05-.01.07-.02.17-.04.36-.06.54-.06,0,0,.01,0,.02,0,.19,0,.39.02.57.06,0,0,.01,0,.02,0,.18.04.36.11.51.19.31.18.47.42.47.66v-3.77c.01-.24-.14-.47-.46-.66Z"/>
            <path class="cls-55" d="m88.15,11.63c-.07-.04-.14-.08-.22-.11-.06-.02-.12-.05-.19-.06-.03,0-.06-.02-.1-.02,0,0-.01,0-.02,0-.02,0-.03,0-.05-.01-.05-.01-.1-.02-.16-.03-.05,0-.1-.01-.15-.02-.05,0-.1,0-.16,0-.02,0-.04,0-.06,0,0,0-.01,0-.02,0-.03,0-.06,0-.08,0-.06,0-.12,0-.18.01-.07,0-.14.02-.2.03-.03,0-.05.01-.08.02-.03,0-.05.01-.07.02-.05.01-.09.02-.14.03-.12.04-.24.09-.34.15,0,0-.01,0-.02.01-.08.05-.14.1-.2.15-.04.03-.07.07-.1.11,0,.01-.01.02-.02.03,0,0,0,0,0,.01-.01.02-.02.03-.03.05-.02.03-.03.06-.04.09-.01.03-.02.06-.03.09,0,.03,0,.06-.01.09,0,0,0,0,0,.01v3.77c-.01-.11.03-.23.1-.34,0,0,0,0,0-.01.08-.11.19-.21.34-.3.14-.08.31-.14.48-.18.02,0,.05-.01.07-.02.17-.04.36-.06.54-.06,0,0,.01,0,.02,0,.19,0,.39.02.57.06,0,0,.01,0,.02,0,.19.04.36.11.51.19.31.18.47.42.47.66v-3.77c.01-.24-.14-.47-.46-.66Z"/>
            <path class="cls-55" d="m95.74,13.42c-.07-.04-.15-.08-.23-.11-.06-.02-.12-.05-.19-.06-.02,0-.05-.01-.08-.02,0,0-.02,0-.02,0-.02,0-.04-.01-.07-.02-.05-.01-.1-.02-.16-.03-.05,0-.1-.01-.16-.02-.05,0-.11,0-.16,0-.02,0-.05,0-.07,0-.03,0-.06,0-.09,0-.06,0-.12,0-.17.01-.07,0-.14.02-.2.03-.04,0-.07.02-.1.03-.03,0-.05.01-.08.02-.04,0-.08.02-.11.03-.11.04-.2.08-.3.13-.02,0-.04.02-.06.03,0,0,0,0-.01,0-.08.05-.14.1-.2.15-.04.03-.07.07-.1.1,0,0,0,.01-.01.02,0,0,0,0,0,.01-.02.02-.03.04-.04.06v.06h0v-.06s-.03.06-.04.09c-.01.03-.02.06-.02.09,0,.03,0,.06-.01.09,0,0,0,.01,0,.02v3.77c-.01-.12.03-.24.11-.35,0,0,0,0,0-.01.08-.1.19-.2.32-.28.02-.01.04-.02.06-.03.12-.07.26-.12.41-.16.03,0,.05-.01.08-.02.18-.04.37-.07.57-.07.22,0,.42.03.61.07,0,0,.02,0,.02,0,.19.05.35.11.49.19.29.17.46.39.46.65v-3.77c.01-.25-.16-.48-.45-.65Z"/>
          </g>
          <path class="cls-62" d="m107.84,8.73c-.01.15-.02.3-.05.45-.02.12-.06.24-.09.36-.04.14-.07.29-.12.43-.04.12-.1.23-.15.35-.06.15-.13.3-.21.45-.06.11-.13.21-.19.32-.1.17-.21.33-.34.5-.07.1-.15.19-.23.29-.18.22-.39.44-.61.65-.08.08-.15.16-.24.23-.14.12-.29.24-.44.36-.13.11-.26.21-.4.32-.16.12-.34.23-.51.34-.18.12-.35.24-.54.35-.62.36-1.3.67-2,.95-.18.07-.37.14-.56.21-.43.16-.89.28-1.34.41-.47.13-.94.26-1.43.36-.57.12-1.15.22-1.73.3-.14.02-.28.04-.42.06-.79.09-1.6.13-2.4.13-.13,0-.25,0-.38,0-.79,0-1.59-.05-2.37-.13-.12-.01-.24-.03-.36-.04-.78-.09-1.55-.23-2.29-.39-.14-.03-.27-.07-.41-.1-.68-.17-1.34-.37-1.98-.6-.11-.04-.24-.07-.35-.12-.77-.3-1.5-.64-2.18-1.03-2.82-1.63-4.23-3.76-4.22-5.89v3.77c-.02,2.13,1.39,4.27,4.21,5.89.65.37,1.34.7,2.07.99.04.01.08.02.11.04.11.04.23.08.35.12.42.15.84.31,1.28.43.23.07.47.12.71.17.14.03.27.07.41.1.13.03.25.07.37.09.47.1.94.18,1.42.25.17.02.34.04.51.06.12.01.23.03.35.04.18.02.35.04.53.06.47.04.94.06,1.4.08.15,0,.29,0,.44,0,.13,0,.25,0,.38,0,.21,0,.43,0,.64,0,.53-.02,1.06-.05,1.58-.11.06,0,.12-.02.18-.03.14-.02.28-.04.42-.06.41-.05.82-.1,1.21-.17.18-.03.34-.09.52-.13.49-.1.96-.22,1.43-.36.25-.07.51-.11.76-.19.2-.07.39-.15.59-.22.19-.07.37-.14.56-.21.7-.28,1.37-.59,2-.95.06-.03.12-.07.17-.1.13-.08.24-.16.37-.25.17-.11.35-.23.52-.34.14-.1.27-.21.4-.32.15-.12.3-.24.44-.36.03-.03.06-.05.09-.07.06-.05.1-.11.15-.16.22-.21.42-.43.6-.65.04-.05.09-.09.13-.14.04-.05.06-.1.1-.15.12-.16.23-.33.34-.5.04-.07.1-.14.14-.21.02-.04.03-.07.05-.11.08-.15.14-.29.21-.44.04-.09.09-.17.12-.26.01-.03.02-.06.03-.09.05-.14.08-.28.12-.42.03-.1.06-.19.08-.29,0-.03,0-.05,0-.08.03-.15.04-.3.05-.45,0-.1.03-.2.03-.29,0-.04,0-.08,0-.13v-3.77c.01.14-.01.28-.02.42Z"/>
          <path class="cls-65" d="m103.66,2.42c5.6,3.24,5.62,8.47.07,11.7-5.57,3.24-14.6,3.24-20.21,0-5.6-3.23-5.63-8.47-.07-11.7s14.61-3.23,20.21,0Zm-14.81,8.83c3.01,1.74,7.89,1.73,10.89,0,2.99-1.74,2.99-4.57-.03-6.31-3.02-1.75-7.9-1.74-10.9,0-2.99,1.74-2.99,4.57.04,6.31m5.78,3.73c.86,0,1.57-.41,1.57-.91,0-.25-.17-.48-.46-.65s-.69-.27-1.13-.27c-.86,0-1.57.41-1.57.91,0,.26.18.49.47.65s.68.27,1.12.26m-.2-14.21c-.87,0-1.58.4-1.57.91,0,.25.18.48.47.64s.68.27,1.11.27c.86,0,1.57-.41,1.57-.91,0-.25-.17-.48-.46-.65s-.68-.27-1.12-.26m10.79,6.16c-.87,0-1.58.4-1.57.91,0,.25.17.48.46.65s.68.27,1.12.26c.86,0,1.57-.41,1.57-.91,0-.25-.18-.48-.47-.64s-.68-.27-1.11-.27m-21.37,1.89c.86,0,1.57-.41,1.57-.91,0-.25-.17-.48-.46-.65s-.69-.27-1.13-.27c-.86,0-1.57.41-1.57.91,0,.25.19.48.47.65s.68.27,1.11.27m17.2,4.05c.62.36,1.62.36,2.24,0s.6-.93-.02-1.29-1.61-.35-2.22,0-.61.94,0,1.29m-15.12.05c.62.36,1.62.36,2.24,0s.6-.93-.02-1.29-1.61-.35-2.22,0-.61.94,0,1.29m-.13-8.76c.62.36,1.62.36,2.23,0s.61-.94,0-1.3-1.61-.35-2.23,0-.6.93,0,1.29m17.34-1.34c-.62-.36-1.61-.35-2.22,0s-.62.93,0,1.29,1.62.36,2.24,0,.6-.93-.02-1.29"/>
        </g>
        <g class="cls-72">
          <path class="cls-61" d="m92.07,30.57c.03-.09.06-.17.08-.26.02-.07.02-.14.03-.22.01-.08.03-.15.03-.23,0-.05,0-.1,0-.15,0-.04,0-.08,0-.12,0-.07,0-.14-.01-.22,0-.06-.01-.13-.02-.19,0-.02,0-.04-.01-.06,0,0,0-.02,0-.02,0-.03,0-.06-.01-.09,0-.05-.02-.11-.03-.16-.01-.05-.02-.11-.04-.16-.01-.05-.03-.1-.04-.15,0-.01,0-.03-.01-.04,0,0,0,0,0-.01,0-.03-.02-.06-.03-.09-.02-.05-.03-.1-.05-.15-.02-.05-.03-.1-.05-.14-.02-.05-.04-.1-.06-.14-.01-.03-.02-.05-.03-.08,0,0,0,0,0-.01,0-.02-.01-.03-.02-.05-.02-.05-.04-.1-.07-.14-.02-.05-.05-.1-.07-.14-.02-.05-.05-.1-.08-.14-.02-.04-.04-.07-.06-.1,0,0,0,0,0-.01,0,0-.01-.02-.02-.03-.03-.05-.06-.1-.09-.15-.03-.05-.07-.1-.1-.15-.04-.06-.07-.11-.11-.16-.01-.02-.02-.03-.04-.05,0,0-.01-.02-.02-.03-.03-.04-.05-.07-.08-.11-.07-.09-.15-.19-.23-.27-.01-.01-.03-.02-.04-.04-.18-.2-.37-.38-.58-.54-.01,0-.02-.02-.03-.03-.1-.08-.21-.15-.32-.22-.03-.02-.07-.04-.1-.06-.04-.02-.08-.05-.12-.07-.06-.03-.12-.06-.18-.09-.05-.02-.1-.04-.15-.06-.02,0-.03,0-.04-.01,0,0-.01,0-.02,0-.03,0-.05-.02-.08-.03-.04-.01-.08-.02-.12-.03-.04,0-.08-.02-.12-.02-.04,0-.07-.01-.11-.02,0,0-.02,0-.03,0,0,0,0,0-.01,0-.02,0-.04,0-.07,0-.03,0-.07,0-.1,0-.03,0-.07,0-.1,0-.03,0-.07,0-.1.01-.02,0-.03,0-.05,0,0,0,0,0-.01,0-.01,0-.02,0-.03,0-.03,0-.06.02-.09.03-.03.01-.06.02-.09.03-.03.01-.06.03-.09.04-.02,0-.04.02-.05.03l-32.62,18.96c.11-.07.24-.11.37-.14,0,0,0,0,.01,0,.13-.03.27-.03.42-.02,0,0,0,0,.01,0,.15.01.3.05.46.1,0,0,.01,0,.02,0,.16.06.33.13.5.23.16.09.31.2.45.31.2.16.39.34.58.54.12.13.24.27.35.42,0,0,.01.02.02.03.13.17.25.36.36.54,0,0,0,0,0,.01.11.19.21.39.3.59,0,0,0,0,0,.01.09.2.16.4.22.6,0,0,0,0,0,.01.06.2.11.4.14.6,0,0,0,.02,0,.02.03.2.05.4.05.6,0,.14-.02.25-.04.38,0,.07-.02.15-.03.21-.02.1-.05.18-.09.27-.02.06-.04.12-.06.17-.04.09-.1.16-.15.23-.03.04-.05.08-.07.11-.09.1-.19.18-.29.24l32.62-18.96c.11-.06.21-.15.29-.24.03-.03.05-.07.08-.11.05-.07.11-.14.15-.23.03-.05.04-.11.06-.17Z"/>
          <path class="cls-53" d="m57.12,44.37c1.38.8,2.49,2.72,2.48,4.3,0,1.58-1.12,2.23-2.5,1.44s-2.5-2.73-2.49-4.32c0-1.58,1.13-2.22,2.51-1.42Z"/>
        </g>
        <g>
          <g class="cls-72">
            <path class="cls-16" d="m56.12,28.54c-.31-.18-.65-.34-1-.48-.02,0-.04-.01-.05-.02-.05-.02-.11-.04-.17-.06-.2-.07-.41-.15-.62-.21-.11-.03-.23-.06-.34-.08-.07-.02-.13-.03-.2-.05-.06-.01-.12-.03-.18-.05-.23-.05-.46-.09-.69-.12-.08-.01-.16-.02-.24-.03-.06,0-.11-.01-.17-.02-.09,0-.17-.02-.26-.03-.23-.02-.45-.03-.68-.04-.07,0-.14,0-.21,0-.06,0-.12,0-.18,0-.11,0-.21,0-.32,0-.26,0-.51.03-.77.05-.03,0-.05,0-.08.01-.07,0-.13.02-.2.03-.2.03-.4.05-.6.08-.09.02-.16.04-.25.06-.24.05-.46.11-.69.17-.12.03-.25.05-.37.09-.05.02-.1.05-.15.07-.48.17-.95.36-1.36.6-.03.02-.06.03-.08.05-.13.08-.23.17-.35.26-.17.12-.34.23-.48.36-.01.01-.03.02-.05.03-.16.15-.31.3-.43.46-.03.04-.05.07-.07.11-.03.04-.05.08-.08.11-.04.06-.09.13-.13.19-.07.13-.14.26-.18.39,0,.02-.01.04-.02.06,0,.03-.01.05-.02.08-.03.08-.06.17-.07.25-.03.13-.04.27-.05.4,0,.02,0,.04,0,.06l-.07,25.15c0-.24.05-.48.12-.71,0-.03.01-.05.02-.08.08-.22.19-.43.33-.65.03-.04.05-.08.08-.11.15-.21.33-.41.55-.61.14-.13.32-.24.49-.36.14-.1.27-.21.43-.31.42-.24.88-.43,1.36-.6.17-.06.35-.11.52-.16.23-.06.46-.12.69-.17.28-.06.56-.11.85-.15.07,0,.13-.02.2-.03.39-.04.78-.06,1.17-.06.06,0,.12,0,.19,0,.39,0,.77.02,1.15.06.06,0,.11.01.17.02.38.05.75.11,1.11.19.07.02.13.03.2.05.33.08.65.18.96.29.05.02.11.04.17.06.37.14.73.31,1.06.5,1.37.79,2.06,1.83,2.05,2.87l.07-25.15c0-1.04-.68-2.07-2.05-2.87Z"/>
            <path class="cls-63" d="m59.69,32.29s-.02.06-.03.1c-.09.27-.24.54-.41.8-.03.05-.06.09-.09.14-.19.26-.41.51-.68.75-.17.16-.39.3-.6.44-.18.13-.33.26-.53.38-.37.22-.78.4-1.2.57-.11.04-.22.09-.33.13-.26.09-.53.17-.81.25-.28.08-.57.15-.86.21-.35.07-.69.14-1.05.18-.08.01-.17.03-.25.04-.48.05-.96.08-1.45.08-.08,0-.15,0-.23,0-.48,0-.96-.03-1.43-.08-.07,0-.14-.02-.21-.02-.47-.06-.93-.14-1.38-.24-.08-.02-.16-.04-.25-.06-.41-.1-.81-.22-1.2-.36-.07-.02-.14-.04-.21-.07-.46-.18-.9-.38-1.31-.62-1.7-.98-2.55-2.27-2.54-3.55l-.07,25.15c0,1.29.85,2.57,2.54,3.55.39.22.8.42,1.24.6.02,0,.05.01.07.02.07.03.14.05.21.07.25.09.5.18.76.26.14.04.28.07.43.1.08.02.16.04.25.06.08.02.15.04.22.06.28.06.57.11.85.15.1.01.2.02.3.03.07,0,.14.02.21.02.11.01.21.03.32.04.28.02.56.04.85.05.09,0,.18,0,.26,0,.08,0,.15,0,.23,0,.13,0,.26,0,.39,0,.32-.01.64-.03.95-.06.04,0,.07-.01.11-.01.08,0,.17-.02.25-.03.25-.03.5-.06.74-.1.11-.02.2-.06.31-.08.29-.06.58-.13.86-.21.15-.04.31-.07.46-.11.12-.04.23-.09.35-.13.11-.04.22-.08.33-.13.42-.17.83-.35,1.2-.57.04-.02.07-.04.1-.06.16-.1.28-.21.43-.32.21-.15.43-.29.6-.44.02-.01.04-.03.06-.04.2-.19.38-.38.53-.57.04-.05.06-.09.09-.14.03-.05.06-.09.1-.14.05-.08.11-.15.16-.23.09-.16.17-.32.23-.49,0-.03.01-.05.02-.08.01-.03.02-.06.03-.1.03-.1.07-.21.09-.31.03-.16.05-.33.06-.49,0-.03,0-.05,0-.08l.07-25.15c0,.3-.06.59-.15.88Z"/>
            <path class="cls-54" d="m57.29,27.86c3.37,1.94,3.4,5.1.05,7.05-3.36,1.95-8.81,1.94-12.17,0s-3.4-5.1-.04-7.05c3.35-1.94,8.8-1.94,12.16,0Zm-10.95,6.36c2.72,1.57,7.12,1.57,9.82,0s2.68-4.11-.04-5.68c-2.72-1.57-7.11-1.58-9.81,0-2.7,1.57-2.69,4.12.03,5.69"/>
          </g>
          <path class="cls-3" d="m56.59,26.45c-.35-.2-.72-.38-1.11-.53-.02,0-.04-.01-.06-.02-.06-.02-.13-.04-.19-.06-.22-.08-.45-.16-.68-.23-.13-.04-.26-.06-.39-.1-.07-.02-.14-.04-.22-.05-.07-.01-.13-.03-.2-.05-.25-.05-.51-.1-.76-.13-.09-.01-.19-.02-.28-.03-.06,0-.13-.01-.19-.02-.09,0-.18-.02-.28-.03-.25-.02-.51-.03-.76-.04-.08,0-.16,0-.24,0-.07,0-.14,0-.2,0-.11,0-.23,0-.34,0-.29,0-.57.03-.85.06-.03,0-.07.01-.1.01-.08,0-.15.02-.23.03-.22.03-.44.05-.65.09-.1.02-.18.05-.28.07-.26.05-.52.12-.77.19-.13.04-.28.06-.41.1-.06.02-.11.05-.17.08-.54.19-1.05.4-1.52.67-.03.02-.06.04-.09.06-.15.09-.25.19-.38.28-.19.13-.39.26-.54.4-.01.01-.04.02-.05.04-.18.17-.34.34-.48.51-.03.04-.05.08-.08.12-.03.04-.06.08-.09.13-.05.07-.1.14-.14.21-.08.14-.15.29-.21.44,0,.02-.01.05-.02.07,0,.03-.02.06-.02.08-.03.09-.06.19-.08.28-.03.15-.05.29-.05.44,0,.02,0,.05,0,.07v3.77c0-.27.04-.53.12-.79,0-.03.01-.06.02-.08.08-.24.21-.48.37-.72.03-.04.06-.09.09-.13.17-.23.37-.46.61-.67.16-.14.36-.27.54-.4.16-.11.3-.23.48-.34.46-.27.98-.48,1.52-.67.19-.07.38-.12.58-.18.25-.07.51-.14.77-.19.31-.06.62-.12.93-.16.08,0,.15-.02.23-.03.43-.05.86-.07,1.29-.07.07,0,.14,0,.21,0,.43,0,.86.03,1.28.07.06,0,.13.01.19.02.42.05.83.12,1.24.21.07.02.15.04.22.05.37.09.72.2,1.07.32.06.02.13.04.19.06.41.16.81.34,1.18.55,1.51.87,2.27,2.02,2.27,3.17v-3.77c.01-1.15-.74-2.3-2.26-3.17Z"/>
          <g>
            <path class="cls-55" d="m43.78,27.89s.04,0,.06,0c.09-.21.23-.42.46-.58.34-.23.69-.45,1.03-.68.01,0,.02,0,.03-.01v-1.59c0-.24-.15-.47-.46-.65-.07-.04-.14-.08-.22-.11-.06-.02-.12-.05-.19-.06-.03,0-.06-.02-.1-.02,0,0-.01,0-.02,0-.02,0-.03,0-.04-.01-.05-.01-.1-.02-.16-.03-.05,0-.1-.01-.15-.02-.05,0-.1,0-.16,0-.02,0-.04,0-.06,0,0,0-.01,0-.02,0-.03,0-.05,0-.08,0-.06,0-.12,0-.18.01-.07,0-.14.02-.2.03-.03,0-.06.02-.09.02-.03,0-.05.01-.08.02-.05.01-.09.02-.14.03-.12.04-.24.09-.35.15,0,0-.01,0-.02.01-.07.05-.14.09-.2.15-.04.03-.07.07-.1.1,0,.01-.01.02-.02.03,0,0,0,0,0,.01-.01.02-.02.03-.03.05-.02.03-.03.06-.04.09-.01.03-.02.06-.03.09,0,.03,0,.06-.01.09,0,0,0,0,0,.01v3.77c-.01-.11.03-.23.1-.33,0,0,0,0,0-.01.08-.11.19-.21.33-.29.14-.08.31-.14.48-.19.03,0,.05-.01.08-.02.18-.04.36-.06.55-.06,0,0,.01,0,.02,0Z"/>
            <path class="cls-55" d="m41.83,28.78c-.07-.04-.15-.08-.23-.11-.06-.02-.12-.05-.19-.06-.02,0-.05-.01-.08-.02,0,0-.02,0-.02,0-.02,0-.04-.01-.07-.02-.05-.01-.1-.02-.16-.03-.05,0-.1-.01-.15-.02-.05,0-.11,0-.16,0-.02,0-.05,0-.07,0-.03,0-.06,0-.09,0-.06,0-.12,0-.17.01-.07,0-.14.02-.2.03-.04,0-.07.02-.1.03-.03,0-.05.01-.08.02-.04,0-.08.02-.11.03-.11.04-.2.08-.3.13-.02,0-.04.02-.06.03,0,0,0,0-.01,0-.08.05-.14.1-.2.15-.04.03-.07.07-.1.1,0,0,0,.01-.01.02,0,0,0,0,0,.01-.02.02-.03.04-.04.06-.02.03-.03.06-.04.09-.01.03-.02.06-.03.09,0,.03,0,.06-.01.09,0,0,0,.01,0,.02v3.77c-.01-.12.03-.24.11-.35,0,0,0,0,0-.01.08-.1.19-.2.32-.28.02,0,.04-.02.06-.03.12-.07.26-.12.41-.16.03,0,.05-.01.08-.02.18-.04.37-.07.57-.07.22,0,.42.03.61.07,0,0,.02,0,.02,0,.19.05.35.11.49.19.29.17.46.39.46.65v-3.77c.01-.25-.16-.48-.45-.65Z"/>
            <path class="cls-55" d="m60.14,33.1c-.05-.03-.11-.05-.16-.08-.23-.05-.47-.1-.7-.15-.03,0-.05-.03-.08-.03-.03,0-.07,0-.1,0-.02,0-.04,0-.06,0,0,0-.01,0-.02,0-.03,0-.06,0-.08,0-.06,0-.12,0-.18.01-.07,0-.14.02-.2.03-.03,0-.05.01-.08.02-.03,0-.05.01-.07.02-.05.01-.1.02-.14.03-.12.04-.24.09-.34.15,0,0-.01,0-.02.01-.08.05-.14.1-.2.15-.04.03-.07.07-.1.11,0,.01-.01.02-.02.03,0,0,0,0,0,.01-.01.02-.02.03-.03.05-.02.03-.03.06-.04.09-.01.03-.02.06-.03.09,0,.03,0,.06-.01.09,0,0,0,0,0,.01v3.77c-.01-.11.03-.23.1-.34,0,0,0,0,0-.01.08-.11.19-.21.34-.3.14-.08.31-.14.48-.18.02,0,.05-.01.07-.02.17-.04.36-.06.54-.06,0,0,.01,0,.02,0,.19,0,.39.02.57.06,0,0,.01,0,.02,0,.18.04.36.11.51.19.31.18.47.42.47.66v-3.77c.01-.24-.14-.47-.46-.66Z"/>
            <path class="cls-55" d="m45.02,33.14c-.07-.04-.14-.08-.22-.11-.06-.02-.12-.05-.19-.06-.03,0-.06-.02-.1-.02,0,0-.01,0-.02,0-.02,0-.03,0-.05-.01-.05-.01-.1-.02-.16-.03-.05,0-.1-.01-.15-.02-.05,0-.1,0-.16,0-.02,0-.04,0-.06,0,0,0-.01,0-.02,0-.03,0-.06,0-.08,0-.06,0-.12,0-.18.01-.07,0-.14.02-.2.03-.03,0-.05.01-.08.02-.03,0-.05.01-.07.02-.05.01-.09.02-.14.03-.12.04-.24.09-.34.15,0,0-.01,0-.02.01-.08.05-.14.1-.2.15-.04.03-.07.07-.1.11,0,.01-.01.02-.02.03,0,0,0,0,0,.01-.01.02-.02.03-.03.05-.02.03-.03.06-.04.09-.01.03-.02.06-.03.09,0,.03,0,.06-.01.09,0,0,0,0,0,.01v3.77c-.01-.11.03-.23.1-.34,0,0,0,0,0-.01.08-.11.19-.21.34-.3.14-.08.31-.14.48-.18.02,0,.05-.01.07-.02.17-.04.36-.06.54-.06,0,0,.01,0,.02,0,.19,0,.39.02.57.06,0,0,.01,0,.02,0,.19.04.36.11.51.19.31.18.47.42.47.66v-3.77c.01-.24-.14-.47-.46-.66Z"/>
            <path class="cls-55" d="m52.62,34.93c-.07-.04-.15-.08-.23-.11-.06-.02-.12-.05-.19-.06-.02,0-.05-.01-.08-.02,0,0-.02,0-.02,0-.02,0-.04-.01-.07-.02-.05-.01-.1-.02-.16-.03-.05,0-.1-.01-.16-.02-.05,0-.11,0-.16,0-.02,0-.05,0-.07,0-.03,0-.06,0-.09,0-.06,0-.12,0-.17.01-.07,0-.14.02-.2.03-.04,0-.07.02-.1.03-.03,0-.05.01-.08.02-.04,0-.08.02-.11.03-.11.04-.2.08-.3.13-.02,0-.04.02-.06.03,0,0,0,0-.01,0-.08.05-.14.1-.2.15-.04.03-.07.07-.1.1,0,0,0,.01-.01.02,0,0,0,0,0,.01-.02.02-.03.04-.04.06v.06h0v-.06s-.03.06-.04.09c-.01.03-.02.06-.02.09,0,.03,0,.06-.01.09,0,0,0,.01,0,.02v3.77c-.01-.12.03-.24.11-.35,0,0,0,0,0-.01.08-.1.19-.2.32-.28.02-.01.04-.02.06-.03.12-.07.26-.12.41-.16.03,0,.05-.01.08-.02.18-.04.37-.07.57-.07.22,0,.42.03.61.07,0,0,.02,0,.02,0,.19.05.35.11.49.19.29.17.46.39.46.65v-3.77c.01-.25-.16-.48-.45-.65Z"/>
          </g>
          <path class="cls-6" d="m64.72,30.25c-.01.15-.02.3-.05.45-.02.12-.06.24-.09.36-.04.14-.07.29-.12.43-.04.12-.1.23-.15.35-.06.15-.13.3-.21.45-.06.11-.13.21-.19.32-.1.17-.21.33-.34.5-.07.1-.15.19-.23.29-.18.22-.39.44-.61.65-.08.08-.15.16-.24.23-.14.12-.29.24-.44.36-.13.11-.26.21-.4.32-.16.12-.34.23-.51.34-.18.12-.35.24-.54.35-.62.36-1.3.67-2,.95-.18.07-.37.14-.56.21-.43.16-.89.28-1.34.41-.47.13-.94.26-1.43.36-.57.12-1.15.22-1.73.3-.14.02-.28.04-.42.06-.79.09-1.6.13-2.4.13-.13,0-.25,0-.38,0-.79,0-1.59-.05-2.37-.13-.12-.01-.24-.03-.36-.04-.78-.09-1.55-.23-2.29-.39-.14-.03-.27-.07-.41-.1-.68-.17-1.34-.37-1.98-.6-.11-.04-.24-.07-.35-.12-.77-.3-1.5-.64-2.18-1.03-2.82-1.63-4.23-3.76-4.22-5.89v3.77c-.02,2.13,1.39,4.27,4.21,5.89.65.37,1.34.7,2.07.99.04.01.08.02.11.04.11.04.23.08.35.12.42.15.84.31,1.28.43.23.07.47.12.71.17.14.03.27.07.41.1.13.03.25.07.37.09.47.1.94.18,1.42.25.17.02.34.04.51.06.12.01.23.03.35.04.18.02.35.04.53.06.47.04.94.06,1.4.08.15,0,.29,0,.44,0,.13,0,.25,0,.38,0,.21,0,.43,0,.64,0,.53-.02,1.06-.05,1.58-.11.06,0,.12-.02.18-.03.14-.02.28-.04.42-.06.41-.05.82-.1,1.21-.17.18-.03.34-.09.52-.13.49-.1.96-.22,1.43-.36.25-.07.51-.11.76-.19.2-.07.39-.15.59-.22.19-.07.37-.14.56-.21.7-.28,1.37-.59,2-.95.06-.03.12-.07.17-.1.13-.08.24-.16.37-.25.17-.11.35-.23.52-.34.14-.1.27-.21.4-.32.15-.12.3-.24.44-.36.03-.03.06-.05.09-.07.06-.05.1-.11.15-.16.22-.21.42-.43.6-.65.04-.05.09-.09.13-.14.04-.05.06-.1.1-.15.12-.16.23-.33.34-.5.04-.07.1-.14.14-.21.02-.04.03-.07.05-.11.08-.15.14-.29.21-.44.04-.09.09-.17.12-.26.01-.03.02-.06.03-.09.05-.14.08-.28.12-.42.03-.1.06-.19.08-.29,0-.03,0-.05,0-.08.03-.15.04-.3.05-.45,0-.1.03-.2.03-.29,0-.04,0-.08,0-.13v-3.77c.01.14-.01.28-.02.42Z"/>
          <path class="cls-50" d="m60.53,23.93c5.6,3.24,5.62,8.47.07,11.7-5.57,3.24-14.6,3.24-20.21,0-5.6-3.23-5.63-8.47-.07-11.7,5.56-3.23,14.61-3.23,20.21,0Zm-14.81,8.83c3.01,1.74,7.89,1.73,10.89,0,2.99-1.74,2.99-4.57-.03-6.31s-7.9-1.74-10.9,0c-2.99,1.74-2.99,4.57.04,6.31m5.78,3.73c.86,0,1.57-.41,1.57-.91,0-.25-.17-.48-.46-.65s-.69-.27-1.13-.27c-.86,0-1.57.41-1.57.91,0,.26.18.49.47.65s.68.27,1.12.26m-.2-14.21c-.87,0-1.58.4-1.57.91,0,.25.18.48.47.64s.68.27,1.11.27c.86,0,1.57-.41,1.57-.91,0-.25-.17-.48-.46-.65s-.68-.27-1.12-.26m10.79,6.16c-.87,0-1.58.4-1.57.91,0,.25.17.48.46.65s.68.27,1.12.26c.86,0,1.57-.41,1.57-.91,0-.25-.18-.48-.47-.64s-.68-.27-1.11-.27m-21.37,1.89c.86,0,1.57-.41,1.57-.91,0-.25-.17-.48-.46-.65s-.69-.27-1.13-.27c-.86,0-1.57.41-1.57.91,0,.25.19.48.47.65s.68.27,1.11.27m17.2,4.05c.62.36,1.62.36,2.24,0s.6-.93-.02-1.29-1.61-.35-2.22,0-.61.94,0,1.29m-15.12.05c.62.36,1.62.36,2.24,0s.6-.93-.02-1.29-1.61-.35-2.22,0-.61.94,0,1.29m-.13-8.76c.62.36,1.62.36,2.23,0s.61-.94,0-1.3-1.61-.35-2.23,0-.6.93,0,1.29m17.34-1.34c-.62-.36-1.61-.35-2.22,0s-.62.93,0,1.29,1.62.36,2.24,0,.6-.93-.02-1.29"/>
        </g>
        <g class="cls-72">
          <polygon class="cls-7" points="10.55 112.82 13.67 111 18.38 119.15 15.26 120.97 10.55 112.82"/>
          <polygon class="cls-23" points="6.83 110.67 9.96 108.86 13.67 111 10.55 112.82 6.83 110.67"/>
          <polygon class="cls-51" points="15.26 120.97 18.38 119.15 23.11 116.45 19.99 118.27 15.26 120.97"/>
          <polygon class="cls-24" points="19.99 118.27 23.11 116.45 26.83 118.6 23.71 120.41 19.99 118.27"/>
          <polygon class="cls-20" points="19.99 118.27 23.71 120.41 15.24 125.24 6.83 110.67 10.55 112.82 15.26 120.97 19.99 118.27"/>
        </g>
        <g class="cls-72">
          <path class="cls-31" d="m32.12,114.5c.1-.18.21-.35.3-.54.07-.14.13-.3.19-.45.08-.2.16-.39.23-.6.06-.16.1-.34.15-.51.06-.21.12-.43.17-.66.04-.18.07-.37.11-.56.04-.23.08-.47.1-.72.02-.2.04-.4.06-.61,0-.13.03-.25.03-.38.01-.24.02-.49.02-.75,0-.21,0-.42,0-.63,0-.23-.03-.46-.04-.7,0-.1-.01-.2-.02-.3,0-.04,0-.08,0-.12-.03-.32-.07-.65-.11-.98-.01-.09-.03-.18-.04-.27-.01-.08-.03-.17-.04-.25-.02-.12-.04-.25-.06-.37-.05-.28-.11-.55-.17-.83-.01-.06-.03-.12-.04-.18-.01-.06-.03-.12-.04-.18-.04-.15-.07-.3-.11-.45-.07-.26-.14-.52-.21-.78-.02-.06-.04-.13-.06-.19-.02-.06-.03-.11-.05-.17-.04-.13-.08-.27-.12-.4-.08-.25-.17-.5-.25-.75-.03-.09-.06-.17-.1-.26-.02-.06-.04-.11-.06-.17-.04-.1-.07-.2-.11-.31-.1-.25-.19-.49-.3-.74-.05-.12-.1-.24-.15-.35-.02-.05-.05-.11-.07-.16-.03-.07-.06-.15-.09-.22-.11-.25-.23-.49-.34-.74-.07-.15-.14-.29-.22-.43-.03-.05-.05-.1-.07-.15-.03-.05-.05-.1-.07-.15-.13-.25-.26-.5-.4-.74-.09-.16-.18-.32-.27-.47-.03-.05-.06-.1-.08-.15-.02-.04-.05-.08-.07-.12-.15-.26-.3-.51-.46-.76-.09-.14-.18-.28-.27-.41-.04-.07-.09-.13-.13-.2-.04-.06-.08-.12-.12-.18-.19-.28-.38-.56-.58-.84-.05-.06-.09-.13-.14-.19-.08-.11-.16-.21-.23-.31-.11-.15-.22-.31-.34-.46-.08-.11-.17-.21-.26-.31-.21-.26-.42-.52-.64-.77-.09-.11-.18-.23-.28-.33-.06-.07-.13-.13-.19-.19-.43-.47-.87-.93-1.32-1.36-.05-.04-.09-.09-.13-.13-.49-.46-1-.89-1.52-1.3-.06-.04-.11-.1-.17-.14-.1-.08-.2-.14-.3-.21-.34-.25-.68-.49-1.02-.71-.1-.07-.2-.14-.3-.21-.17-.11-.35-.21-.52-.31-.21-.12-.41-.23-.62-.34-.17-.09-.34-.17-.52-.25-.09-.04-.18-.09-.26-.13-.04-.02-.09-.04-.13-.06-.26-.12-.53-.22-.79-.32-.06-.02-.13-.04-.19-.06-.06-.02-.13-.04-.19-.06-.11-.04-.22-.08-.32-.11-.21-.06-.42-.12-.63-.17-.04,0-.08-.02-.12-.02-.04,0-.08-.02-.13-.03-.12-.02-.24-.05-.35-.07-.19-.03-.38-.06-.57-.08-.04,0-.09,0-.13-.01-.04,0-.08,0-.12,0-.1,0-.2-.02-.29-.02-.18,0-.35-.01-.52,0-.06,0-.12,0-.18,0-.04,0-.08,0-.12,0-.07,0-.14,0-.21.01-.17.01-.33.04-.5.06-.08.01-.15.03-.23.05-.04,0-.07.01-.11.02-.05.01-.1.02-.15.03-.16.04-.32.08-.48.13-.08.03-.16.06-.25.09-.04.01-.07.03-.11.04-.04.02-.08.03-.12.04-.16.07-.32.14-.48.22-.09.05-.18.1-.27.15l-5.44,3.16c.28-.16.57-.3.87-.41.04-.01.07-.03.11-.04.28-.1.57-.19.88-.25.04,0,.07-.01.11-.02.3-.06.62-.1.94-.12.04,0,.08,0,.12,0,.32-.01.66,0,1,.02.04,0,.08,0,.12,0,.34.03.69.09,1.05.16.04,0,.08.02.13.03.35.08.71.18,1.08.3.06.02.13.04.19.06.36.13.73.27,1.11.44.09.04.18.09.26.13.37.18.75.37,1.13.59.28.16.55.34.82.52.34.22.68.46,1.02.71.16.12.31.23.47.35.52.41,1.03.84,1.52,1.3.04.04.09.09.13.13.45.43.89.89,1.32,1.36.16.17.31.35.46.52.22.25.43.51.64.77.2.25.41.51.6.77.08.1.16.21.23.31.29.4.57.8.84,1.21.04.07.09.13.13.2.28.43.54.86.8,1.3.03.05.05.1.08.15.26.45.51.91.74,1.37.02.05.05.1.07.14.23.46.45.92.66,1.39.02.05.05.11.07.16.2.46.39.93.56,1.4.02.06.04.11.06.17.17.47.33.94.47,1.41.02.06.03.11.05.17.14.47.27.94.38,1.42.01.06.03.12.04.18.11.46.19.92.27,1.38.01.08.03.17.04.25.07.46.13.92.17,1.37,0,.1.01.2.02.29.03.45.05.89.05,1.32,0,.39-.03.76-.05,1.12-.02.21-.03.41-.06.61-.03.25-.06.48-.1.72-.03.19-.07.38-.11.56-.05.23-.11.44-.17.66-.05.17-.1.34-.15.51-.07.21-.15.4-.23.6-.06.15-.12.31-.19.45-.09.19-.2.37-.3.54-.08.13-.15.26-.23.39-.12.17-.24.33-.37.49-.08.1-.16.22-.25.32-.15.17-.31.31-.47.46-.08.07-.15.16-.24.22-.25.2-.51.39-.79.55l5.44-3.16c.28-.16.54-.35.79-.55.08-.07.16-.15.24-.22.16-.15.32-.29.47-.46.09-.1.17-.21.25-.32.13-.16.26-.32.37-.49.08-.12.15-.26.23-.39Z"/>
          <ellipse class="cls-66" cx="15.29" cy="104.53" rx="10.42" ry="18" transform="translate(-50.45 21.84) rotate(-30.16)"/>
        </g>
        <g class="cls-72">
          <path class="cls-36" d="m19.89,109.23c.05-.15.11-.29.15-.46.03-.11.03-.24.05-.37.02-.13.05-.25.05-.39,0-.08,0-.17,0-.25,0-.07,0-.14,0-.21,0-.12-.01-.25-.02-.37-.01-.11-.02-.22-.04-.33,0-.04-.01-.08-.02-.11,0-.01,0-.03,0-.04,0-.05-.01-.1-.02-.15-.02-.09-.04-.19-.06-.28-.02-.09-.04-.18-.06-.27-.02-.09-.05-.17-.07-.26,0-.03-.02-.05-.02-.08,0,0,0-.02,0-.03-.02-.05-.03-.1-.05-.15-.03-.08-.06-.17-.09-.25-.03-.08-.06-.17-.09-.25-.03-.08-.07-.17-.1-.25-.02-.05-.04-.09-.06-.14,0,0,0-.02-.01-.03-.01-.03-.02-.06-.04-.08-.04-.08-.08-.17-.12-.25-.04-.08-.08-.17-.12-.25-.04-.08-.09-.17-.13-.25-.03-.06-.07-.12-.1-.18,0,0,0-.02-.01-.02,0-.02-.02-.03-.03-.05-.05-.09-.1-.17-.16-.26-.06-.09-.11-.18-.17-.27-.06-.1-.13-.19-.2-.28-.02-.03-.04-.05-.06-.08-.01-.02-.03-.03-.04-.05-.05-.06-.09-.13-.14-.19-.13-.16-.26-.32-.4-.48-.02-.02-.05-.04-.07-.07-.31-.35-.64-.66-.99-.93-.02-.02-.04-.04-.06-.06-.18-.14-.36-.26-.54-.38-.06-.04-.12-.07-.17-.1-.07-.04-.14-.08-.21-.11-.1-.05-.2-.1-.31-.15-.09-.04-.18-.07-.26-.11-.03,0-.05-.02-.08-.03-.01,0-.02,0-.03-.01-.04-.01-.08-.03-.13-.04-.07-.02-.14-.04-.21-.06-.07-.02-.14-.03-.2-.04-.06-.01-.13-.02-.19-.03-.02,0-.04,0-.05,0,0,0-.01,0-.02,0-.04,0-.07,0-.11,0-.06,0-.12,0-.18,0-.06,0-.12,0-.17,0-.06,0-.11.01-.17.02-.03,0-.06.01-.09.02,0,0-.01,0-.02,0-.02,0-.04,0-.06.01-.06.01-.11.03-.16.05-.05.02-.11.04-.16.06-.06.02-.11.05-.16.08-.03.02-.06.03-.09.05l-5.44,3.16c.19-.11.41-.19.63-.24,0,0,.01,0,.02,0,.22-.05.46-.06.72-.04,0,0,.01,0,.02,0,.25.02.52.08.79.17.01,0,.02,0,.03.01.28.1.56.23.86.39.27.15.53.34.78.54.35.27.68.59.99.93.21.23.42.48.61.73.01.02.03.03.04.05.22.3.43.61.61.94,0,0,0,.02.01.02.19.33.36.67.51,1.01,0,0,0,.02.01.03.15.34.28.69.38,1.04,0,0,0,.02,0,.03.1.35.18.7.24,1.04,0,.01,0,.03,0,.04.05.35.08.69.08,1.03,0,.23-.03.43-.06.64-.02.12-.03.25-.05.37-.04.16-.09.31-.15.45-.04.1-.06.2-.1.29-.07.15-.16.27-.25.39-.05.06-.08.13-.13.19-.15.17-.32.31-.5.42l5.44-3.16c.19-.11.35-.25.5-.42.05-.06.09-.13.13-.19.09-.12.18-.25.25-.39.04-.09.07-.19.1-.29Z"/>
          <path class="cls-64" d="m10.42,103.49c2.37,1.37,4.3,4.7,4.29,7.43s-1.94,3.82-4.32,2.45c-2.37-1.37-4.3-4.69-4.29-7.42,0-2.73,1.94-3.83,4.32-2.46Z"/>
        </g>
        <g class="cls-72">
          <path class="cls-37" d="m125.12,74.4s0,0-.01,0c-.17.03-.34.04-.53.03,0,0,0,0-.01,0-.19-.02-.38-.06-.58-.13,0,0-.02,0-.02,0-.21-.07-.42-.17-.64-.29-.2-.11-.39-.25-.58-.4-.26-.2-.5-.44-.74-.69-.16-.17-.31-.35-.45-.54,0-.01-.02-.03-.03-.04-.16-.22-.32-.46-.45-.7,0,0,0-.01,0-.02-.14-.24-.27-.49-.38-.75,0,0,0-.01,0-.02-.11-.25-.21-.51-.28-.77,0,0,0-.02,0-.02-.08-.26-.14-.51-.18-.77,0-.01,0-.02,0-.03-.04-.26-.06-.51-.06-.76,0-.17.02-.32.05-.48.01-.09.02-.19.04-.27.03-.12.07-.23.11-.34.03-.07.05-.15.08-.21.05-.11.12-.2.19-.29.03-.05.06-.1.1-.14.11-.12.24-.23.37-.31l-3.26,1.9c-.14.08-.26.19-.37.31-.04.04-.06.09-.1.14-.07.09-.14.18-.19.29-.03.06-.05.14-.08.21-.04.11-.08.22-.11.34-.02.09-.03.18-.04.27-.01.1-.04.19-.04.29,0,.06,0,.12,0,.19,0,.05,0,.1,0,.16,0,.09,0,.18.02.28,0,.08.02.16.03.25,0,.03,0,.05.01.08,0,.01,0,.02,0,.03,0,.04.01.07.02.11.01.07.03.14.04.21.01.07.03.13.05.2.02.06.03.13.05.19,0,.02.01.04.02.05,0,0,0,.01,0,.02.01.04.02.08.03.11.02.06.04.12.06.19.02.06.04.12.07.18.02.06.05.12.07.18.01.03.03.07.04.1,0,0,0,.01,0,.02,0,.02.02.04.03.06.03.06.06.12.09.18.03.06.06.12.09.18.03.06.06.12.1.19.02.04.05.09.08.13,0,0,0,.01,0,.02,0,.01.01.02.02.04.04.06.08.13.11.19.04.07.08.13.13.2.05.07.1.14.15.21.02.02.03.04.05.06,0,.01.02.02.03.04.04.05.07.09.11.14.09.12.19.24.29.35.02.02.04.03.05.05.23.26.48.49.74.69.02.01.03.03.04.04.13.1.27.2.41.28.04.03.09.05.13.08.05.03.1.06.15.09.08.04.15.08.23.11.07.03.13.06.2.08.02,0,.04.01.06.02,0,0,.02,0,.02,0,.03.01.06.02.1.03.05.02.11.03.16.04.05.01.1.02.15.03.05,0,.1.01.14.02.01,0,.02,0,.04,0,0,0,0,0,.02,0,.03,0,.06,0,.08,0,.04,0,.09,0,.13,0,.04,0,.09,0,.13,0,.04,0,.08,0,.12-.02.02,0,.04,0,.06-.01,0,0,0,0,.01,0,.01,0,.03,0,.04,0,.04,0,.08-.02.12-.03.04-.01.08-.03.12-.04.04-.02.08-.04.12-.06.02-.01.05-.02.07-.04l3.26-1.9c-.14.08-.3.14-.47.18Z"/>
          <path class="cls-41" d="m119.51,58.27s0,0-.01,0c-.17.03-.34.04-.53.03,0,0,0,0-.01,0-.19-.02-.38-.06-.58-.13,0,0-.02,0-.02,0-.21-.07-.42-.17-.64-.29-.2-.11-.39-.25-.58-.4-.26-.2-.5-.44-.74-.69-.16-.17-.31-.35-.45-.54,0-.01-.02-.03-.03-.04-.16-.22-.32-.46-.46-.7,0,0,0-.01,0-.02-.14-.24-.27-.49-.38-.75,0,0,0-.02,0-.02-.11-.25-.21-.51-.28-.77,0,0,0-.01,0-.02-.08-.26-.14-.51-.18-.77,0-.01,0-.02,0-.03-.04-.26-.06-.51-.06-.76,0-.17.02-.32.05-.47.01-.09.02-.19.04-.27.03-.12.07-.23.11-.34.03-.07.05-.15.08-.21.05-.11.12-.2.19-.29.03-.05.06-.1.1-.14.11-.12.24-.23.37-.31l-3.26,1.9c-.14.08-.26.18-.37.31-.04.04-.06.09-.1.14-.07.09-.14.18-.19.29-.03.06-.05.14-.08.21-.04.11-.08.22-.11.34-.02.08-.03.18-.04.27-.01.1-.04.19-.04.29,0,.06,0,.12,0,.18,0,.05,0,.1,0,.16,0,.09,0,.18.02.28,0,.08.02.16.03.25,0,.03,0,.05.01.08,0,.01,0,.02,0,.03,0,.04.01.07.02.11.01.07.03.14.04.21.01.07.03.13.05.2.02.06.03.13.05.19,0,.02.01.04.02.06,0,0,0,.01,0,.02.01.04.02.08.03.11.02.06.04.13.06.19.02.06.04.12.07.18.02.06.05.12.07.18.01.03.03.07.04.1,0,0,0,.01,0,.02,0,.02.02.04.03.06.03.06.06.12.09.18.03.06.06.12.09.18.03.06.06.12.1.19.02.04.05.09.08.13,0,0,0,.01,0,.02,0,.01.01.02.02.04.04.06.08.13.11.19.04.07.08.13.13.2.05.07.1.14.15.21.02.02.03.04.05.06,0,.01.02.02.03.04.04.05.07.09.11.14.09.12.19.24.29.35.02.02.04.03.05.05.23.26.48.49.74.69.02.01.03.03.04.04.13.1.27.2.41.28.04.03.09.05.13.08.05.03.1.06.15.09.08.04.15.08.23.11.07.03.13.06.2.08.02,0,.04.01.06.02,0,0,.02,0,.02,0,.03.01.06.02.1.03.05.02.11.03.16.04.05.01.1.02.15.03.05,0,.1.01.14.02.01,0,.03,0,.04,0,0,0,0,0,.01,0,.03,0,.06,0,.08,0,.04,0,.09,0,.13,0,.04,0,.09,0,.13,0,.04,0,.08,0,.12-.02.02,0,.04,0,.06-.01,0,0,0,0,.01,0,.01,0,.03,0,.04,0,.04,0,.08-.02.12-.03.04-.01.08-.03.12-.04.04-.02.08-.04.12-.06.02-.01.05-.02.07-.04l3.26-1.9c-.14.08-.3.14-.47.18Z"/>
          <path class="cls-43" d="m129.99,76.98c.09-.24.18-.47.24-.73.04-.18.06-.39.08-.59.03-.21.08-.4.09-.63,0-.13,0-.27.01-.4,0-.11,0-.23,0-.34,0-.2-.02-.4-.04-.6-.02-.18-.04-.35-.06-.53,0-.05-.02-.11-.03-.16,0-.02,0-.04-.01-.07-.01-.09-.03-.17-.04-.26-.03-.15-.06-.3-.09-.45-.03-.14-.07-.29-.1-.43-.04-.14-.07-.28-.11-.42,0-.03-.02-.06-.03-.09,0-.01,0-.02-.01-.04-.03-.1-.06-.19-.09-.29-.04-.13-.09-.27-.14-.4-.05-.13-.1-.27-.15-.4-.05-.13-.1-.27-.16-.4-.02-.05-.05-.11-.07-.16,0-.02-.01-.03-.02-.05-.03-.06-.05-.12-.08-.19-.06-.13-.12-.27-.18-.4-.06-.13-.13-.26-.2-.4-.07-.13-.14-.27-.21-.4-.04-.07-.08-.14-.12-.21,0-.02-.02-.03-.03-.05-.03-.05-.05-.09-.08-.14-.08-.14-.16-.27-.25-.41-.09-.14-.18-.29-.28-.43-.1-.15-.21-.31-.32-.46-.02-.02-.03-.04-.05-.07-.01-.02-.03-.04-.04-.05-.1-.14-.2-.27-.3-.4-.2-.26-.41-.51-.63-.75-.04-.04-.08-.08-.12-.12-.08-.09-.17-.17-.25-.26-.29-.31-.6-.59-.91-.86-.1-.09-.21-.18-.31-.27-.07-.06-.14-.12-.21-.18-.29-.22-.59-.43-.89-.62-.05-.03-.1-.06-.15-.09l-3.26,1.9c.43.25.84.56,1.24.89.11.09.21.18.31.27.31.27.62.56.91.87.08.09.17.17.25.26.37.4.72.83,1.05,1.28.01.02.03.04.04.05.35.48.67.98.97,1.5,0,.02.02.03.03.05.29.52.56,1.05.8,1.59,0,.02.01.03.02.05.23.54.44,1.09.6,1.65,0,.01,0,.03.01.04.16.55.29,1.1.38,1.64,0,.02,0,.04.01.07.09.55.13,1.1.13,1.63,0,.37-.05.7-.1,1.03-.03.2-.04.41-.08.59-.06.27-.15.5-.24.73-.06.15-.1.32-.17.46-.12.24-.26.44-.41.64-.07.1-.13.22-.21.3-.24.27-.51.49-.81.67l3.26-1.9c.3-.17.57-.4.81-.67.08-.09.14-.21.21-.31.15-.2.29-.4.41-.63.07-.14.11-.31.17-.46Z"/>
          <path class="cls-42" d="m124.67,61.15c.05-.13.08-.28.12-.42.06-.22.12-.43.16-.67.03-.16.04-.34.06-.51.02-.17.05-.33.06-.52,0-.13,0-.27,0-.41,0-.12,0-.24,0-.37,0-.22-.02-.43-.04-.65-.02-.19-.04-.38-.07-.58,0-.06-.02-.13-.03-.2,0-.02,0-.05-.01-.07-.01-.09-.03-.17-.04-.26-.03-.16-.06-.32-.1-.49-.03-.16-.07-.32-.11-.47-.04-.15-.08-.3-.12-.46-.01-.04-.03-.09-.04-.13,0-.02-.01-.03-.02-.05-.03-.09-.05-.18-.08-.26-.05-.15-.1-.29-.15-.44-.05-.15-.11-.29-.16-.43s-.11-.29-.17-.43c-.03-.08-.07-.16-.1-.24,0-.02-.01-.03-.02-.05-.02-.05-.04-.1-.06-.14-.06-.14-.13-.29-.2-.43-.07-.14-.14-.29-.22-.43-.08-.15-.15-.29-.23-.44-.06-.1-.12-.21-.18-.31,0-.01-.02-.03-.02-.04-.02-.03-.03-.06-.05-.08-.09-.15-.18-.3-.27-.45-.1-.16-.2-.31-.3-.47-.11-.17-.23-.33-.34-.49-.04-.05-.07-.1-.11-.14-.02-.03-.04-.06-.06-.09-.08-.11-.16-.22-.25-.33-.22-.29-.45-.56-.69-.83-.06-.07-.13-.13-.19-.19-.1-.11-.2-.21-.3-.31-.33-.34-.66-.65-1.01-.94-.1-.09-.2-.18-.3-.26-.05-.04-.1-.09-.16-.13-.31-.24-.63-.46-.95-.66-.1-.06-.2-.12-.3-.18-.12-.07-.25-.14-.37-.2-.1-.05-.2-.1-.3-.14-.05-.02-.11-.05-.16-.08-.03-.01-.05-.03-.08-.04-.15-.07-.31-.13-.46-.18-.04-.01-.07-.02-.11-.04-.04-.01-.07-.02-.11-.04-.06-.02-.13-.04-.19-.06-.13-.04-.25-.07-.38-.1-.02,0-.04,0-.07-.01-.02,0-.05,0-.07-.02-.07-.01-.14-.03-.21-.04-.11-.02-.22-.03-.33-.05-.03,0-.05,0-.08,0-.02,0-.04,0-.07,0-.06,0-.12-.01-.18-.01-.1,0-.21,0-.31,0-.04,0-.07,0-.1,0-.02,0-.05,0-.07,0-.04,0-.08,0-.12,0-.1,0-.2.02-.29.04-.05,0-.09.02-.13.03-.02,0-.04,0-.06.01-.03,0-.06.01-.09.02-.1.02-.19.05-.28.08-.05.02-.1.03-.14.05-.02,0-.04.02-.06.02-.02,0-.05.02-.07.03-.09.04-.19.08-.28.13-.05.03-.11.06-.16.09l-3.26,1.9c.16-.09.33-.17.51-.24.02,0,.04-.02.07-.02.16-.06.33-.11.51-.15.02,0,.04,0,.07-.01.18-.03.36-.06.55-.07.02,0,.05,0,.07,0,.19,0,.38,0,.58.01.02,0,.05,0,.07,0,.2.02.41.05.62.1.02,0,.05,0,.07.01.21.05.42.11.63.18.04.01.07.02.11.04.21.07.43.16.65.26.05.02.11.05.16.08.22.1.44.21.66.34.48.28.95.61,1.41.98.1.08.2.17.3.26.35.29.68.61,1.01.94.1.1.2.21.3.31.39.43.77.88,1.12,1.35.02.03.04.06.07.09.38.52.74,1.07,1.07,1.63,0,.01.02.03.02.04.33.57.63,1.16.89,1.76,0,.02.01.03.02.05.26.6.48,1.2.67,1.81,0,.02.01.03.02.05.18.6.32,1.21.42,1.81,0,.02,0,.05.01.07.09.61.15,1.21.14,1.79,0,.33-.04.63-.07.93-.02.17-.03.35-.06.51-.04.24-.1.45-.16.67-.04.14-.07.29-.12.42-.08.22-.19.42-.29.62-.05.1-.09.2-.15.29-.17.28-.36.52-.58.74l3.26-1.9c.21-.21.41-.46.58-.74.06-.09.1-.2.15-.3.1-.2.21-.4.29-.62Z"/>
          <path class="cls-70" d="m120.4,64.7c3.75,2.25,6.76,7.5,6.74,11.82-.01,4.38-3.11,6.14-6.91,3.95-1.37-.79-2.65-1.99-3.72-3.41.03-.47.07-.92.07-1.41.02-8.42-3.81-18-9.58-25.51.74-3.46,3.74-4.64,7.34-2.57,4.14,2.39,7.49,8.19,7.47,12.94,0,1.87-.53,3.29-1.42,4.18Zm-.34,11.2c1.76,1.02,3.2.2,3.2-1.82s-1.42-4.49-3.18-5.51c-1.76-1.02-3.2-.2-3.2,1.82,0,2.03,1.42,4.49,3.18,5.51m-5.61-16.13c1.76,1.02,3.2.2,3.2-1.82,0-2.01-1.42-4.48-3.18-5.5s-3.2-.2-3.2,1.81c0,2.03,1.42,4.49,3.18,5.51"/>
        </g>
        <g class="cls-72">
          <path class="cls-34" d="m117.01,58.13c.03-.09.06-.17.09-.27.01-.07.02-.14.03-.21.01-.08.03-.15.03-.23,0-.05,0-.1,0-.15,0-.04,0-.08,0-.12,0-.07,0-.14-.01-.22,0-.06-.01-.13-.02-.19,0-.02,0-.04,0-.06,0,0,0-.02,0-.02,0-.03,0-.06-.01-.09,0-.05-.02-.11-.03-.16-.01-.05-.02-.11-.04-.16-.01-.05-.03-.1-.04-.15,0-.01,0-.03-.01-.04,0,0,0-.01,0-.02,0-.03-.02-.06-.03-.09-.02-.05-.03-.1-.05-.15-.02-.05-.04-.1-.05-.15-.02-.05-.04-.1-.06-.14,0-.02-.02-.05-.03-.07,0,0,0-.01,0-.02,0-.02-.02-.04-.02-.06-.02-.05-.04-.1-.07-.14-.02-.05-.05-.1-.07-.14-.03-.05-.05-.1-.08-.15-.02-.03-.04-.06-.05-.1h0s-.01-.04-.02-.05c-.03-.05-.06-.1-.09-.15-.03-.05-.07-.1-.1-.16-.04-.06-.08-.11-.11-.16-.01-.01-.02-.03-.03-.04,0,0-.01-.02-.02-.03-.03-.04-.06-.08-.09-.12-.07-.09-.15-.19-.23-.27-.01-.01-.03-.02-.04-.04-.18-.2-.37-.38-.57-.54-.01,0-.02-.02-.04-.03-.1-.08-.21-.15-.32-.22-.03-.02-.07-.04-.1-.06-.04-.02-.08-.05-.12-.07-.06-.03-.12-.06-.18-.09-.05-.02-.1-.04-.15-.06-.02,0-.03-.01-.05-.02,0,0-.01,0-.02,0-.02,0-.05-.02-.07-.02-.04-.01-.08-.02-.12-.03-.04,0-.08-.02-.12-.02-.04,0-.07-.01-.11-.02-.01,0-.02,0-.03,0,0,0,0,0-.01,0-.02,0-.04,0-.06,0-.03,0-.07,0-.1,0-.03,0-.07,0-.1,0-.03,0-.07,0-.1.01-.02,0-.04,0-.05.01,0,0,0,0-.01,0-.01,0-.02,0-.03,0-.03,0-.06.02-.09.03-.03.01-.06.02-.09.03-.03.01-.06.03-.09.04-.02,0-.04.02-.05.03l-43.49,25.28c.11-.07.24-.11.37-.14,0,0,0,0,.01,0,.13-.03.27-.03.42-.02,0,0,0,0,.01,0,.15.01.3.05.46.1,0,0,.01,0,.02,0,.16.06.33.13.5.23.15.09.3.2.45.31.2.16.39.34.57.54.12.14.24.28.36.43,0,0,.01.02.02.03.13.17.25.36.36.55,0,0,0,0,0,.01.11.19.21.39.29.59,0,0,0,.01,0,.02.09.2.16.4.22.6v.02c.07.2.11.4.14.6,0,0,0,.02,0,.02.03.2.05.4.05.6,0,.14-.02.25-.04.37,0,.07-.02.15-.03.21-.02.1-.05.18-.09.27-.02.05-.04.12-.06.17-.04.09-.1.16-.15.23-.03.03-.05.08-.07.11-.09.1-.18.18-.29.24l43.49-25.28c.11-.06.21-.14.29-.24.03-.03.05-.07.07-.11.05-.07.11-.14.15-.23.02-.05.04-.11.06-.17Z"/>
          <path class="cls-53" d="m71.18,78.23c1.38.8,2.49,2.73,2.48,4.31,0,1.58-1.12,2.22-2.5,1.42s-2.5-2.72-2.49-4.31,1.13-2.23,2.51-1.43Z"/>
        </g>
        <g class="cls-72">
          <path class="cls-33" d="m123,74.55c.03-.08.06-.17.09-.26.01-.07.02-.14.03-.21.01-.08.03-.15.03-.23,0-.05,0-.1,0-.15,0-.04,0-.08,0-.12,0-.07,0-.14-.01-.22,0-.06-.01-.13-.02-.19,0-.02,0-.04-.01-.07,0,0,0-.02,0-.02,0-.03,0-.06-.01-.08,0-.05-.02-.11-.03-.16-.01-.05-.02-.11-.04-.16-.01-.05-.03-.1-.04-.15,0-.02,0-.03-.01-.05,0,0,0-.01,0-.02,0-.03-.02-.06-.03-.09-.02-.05-.03-.1-.05-.15-.02-.05-.04-.1-.05-.15-.02-.05-.04-.1-.06-.14-.01-.03-.02-.05-.04-.08,0,0,0-.01,0-.02,0-.02-.01-.03-.02-.05-.02-.05-.04-.1-.07-.14-.02-.05-.05-.1-.07-.14-.03-.05-.05-.1-.08-.15-.02-.04-.04-.07-.06-.11,0,0,0,0,0-.01,0,0-.01-.02-.02-.03-.03-.05-.06-.1-.09-.15-.03-.05-.07-.1-.1-.16-.04-.06-.08-.11-.11-.17-.01-.02-.02-.03-.04-.05,0,0-.01-.02-.02-.03-.03-.04-.06-.08-.08-.11-.07-.09-.15-.19-.23-.28-.01-.01-.03-.02-.04-.04-.18-.2-.38-.38-.58-.54-.01,0-.02-.02-.03-.03-.1-.08-.21-.15-.32-.22-.03-.02-.07-.04-.1-.06-.04-.02-.08-.05-.12-.07-.06-.03-.12-.06-.18-.09-.05-.02-.1-.04-.15-.06-.02,0-.03,0-.04-.01,0,0-.01,0-.02,0-.02,0-.05-.02-.07-.02-.04-.01-.08-.02-.12-.03-.04,0-.08-.02-.12-.02-.04,0-.07-.01-.11-.02-.01,0-.02,0-.03,0,0,0,0,0-.01,0-.02,0-.04,0-.06,0-.03,0-.07,0-.1,0-.03,0-.07,0-.1,0-.03,0-.07,0-.1.01-.02,0-.03,0-.05.01,0,0,0,0-.01,0-.01,0-.02,0-.03,0-.03,0-.06.02-.09.03-.03,0-.06.02-.09.03-.03.01-.06.03-.09.04-.02,0-.04.02-.05.03l-43.49,25.28c.11-.06.23-.11.37-.14,0,0,0,0,.01,0,.13-.03.27-.03.41-.02,0,0,0,0,.01,0,.14.01.3.05.45.1,0,0,.01,0,.02,0,.16.06.33.13.5.23.15.09.3.2.45.31.2.16.4.34.58.54.12.14.24.28.35.43,0,0,.01.02.02.03.13.17.25.36.36.55,0,0,0,0,0,.01.11.19.21.39.3.59,0,0,0,.01,0,.02.09.2.16.4.22.6,0,0,0,.01,0,.02.06.2.11.4.14.6,0,0,0,.02,0,.02.03.2.05.4.05.6,0,.13-.02.25-.04.37,0,.07-.01.15-.03.21-.02.1-.05.18-.08.26-.02.06-.04.12-.06.17-.04.09-.1.16-.15.23-.03.04-.05.08-.07.11-.09.1-.18.18-.29.24l43.49-25.28c.11-.06.21-.14.29-.24.03-.03.05-.07.07-.11.05-.07.11-.14.15-.23.02-.05.04-.11.06-.17Z"/>
          <path class="cls-53" d="m77.17,94.65c1.38.8,2.5,2.73,2.49,4.32s-1.13,2.22-2.51,1.42-2.49-2.72-2.48-4.3c0-1.58,1.12-2.23,2.5-1.44Z"/>
        </g>
        <g class="cls-72">
          <path class="cls-32" d="m76.52,102.66s0,0-.01,0c-.17.03-.34.04-.53.03,0,0,0,0-.01,0-.19-.02-.38-.06-.58-.13,0,0-.02,0-.02,0-.21-.07-.42-.17-.64-.29-.2-.11-.39-.25-.58-.4-.26-.2-.5-.44-.74-.69-.16-.17-.31-.35-.45-.54,0-.01-.02-.03-.03-.04-.16-.22-.32-.46-.45-.7,0,0,0-.01,0-.02-.14-.24-.27-.49-.38-.75,0,0,0-.01,0-.02-.11-.25-.21-.51-.28-.77,0,0,0-.02,0-.02-.08-.26-.14-.51-.18-.77,0-.01,0-.02,0-.03-.04-.26-.06-.51-.06-.76,0-.17.02-.32.05-.48.01-.09.02-.19.04-.27.03-.12.07-.23.11-.34.03-.07.05-.15.08-.21.05-.11.12-.2.19-.29.03-.05.06-.1.1-.14.11-.12.24-.23.37-.31l-3.26,1.9c-.14.08-.26.19-.37.31-.04.04-.06.09-.1.14-.07.09-.14.18-.19.29-.03.06-.05.14-.08.21-.04.11-.08.22-.11.34-.02.09-.03.18-.04.27-.01.1-.04.19-.04.29,0,.06,0,.12,0,.19,0,.05,0,.1,0,.16,0,.09,0,.18.02.28,0,.08.02.16.03.25,0,.03,0,.05.01.08,0,.01,0,.02,0,.03,0,.04.01.07.02.11.01.07.03.14.04.21.01.07.03.13.05.2.02.06.03.13.05.19,0,.02.01.04.02.05,0,0,0,.01,0,.02.01.04.02.08.03.11.02.06.04.12.06.19.02.06.04.12.07.18.02.06.05.12.07.18.01.03.03.07.04.1,0,0,0,.01,0,.02,0,.02.02.04.03.06.03.06.06.12.09.18.03.06.06.12.09.18.03.06.06.12.1.19.02.04.05.09.08.13,0,0,0,.01,0,.02,0,.01.01.02.02.04.04.06.08.13.11.19.04.07.08.13.13.2.05.07.1.14.15.21.02.02.03.04.05.06,0,.01.02.02.03.04.04.05.07.09.11.14.09.12.19.24.29.35.02.02.04.03.05.05.23.26.48.49.74.69.02.01.03.03.04.04.13.1.27.2.41.28.04.03.09.05.13.08.05.03.1.06.15.09.08.04.15.08.23.11.07.03.13.06.2.08.02,0,.04.01.06.02,0,0,.02,0,.02,0,.03.01.06.02.1.03.05.02.11.03.16.04.05.01.1.02.15.03.05,0,.1.01.14.02.01,0,.02,0,.04,0,0,0,0,0,.02,0,.03,0,.06,0,.08,0,.04,0,.09,0,.13,0,.04,0,.09,0,.13,0,.04,0,.08,0,.12-.02.02,0,.04,0,.06-.01,0,0,0,0,.01,0,.01,0,.03,0,.04,0,.04,0,.08-.02.12-.03.04-.01.08-.03.12-.04.04-.02.08-.04.12-.06.02-.01.05-.02.07-.04l3.26-1.9c-.14.08-.3.14-.47.18Z"/>
          <path class="cls-44" d="m70.92,86.53s0,0-.01,0c-.17.03-.34.04-.53.03,0,0,0,0-.01,0-.19-.02-.38-.06-.58-.13,0,0-.02,0-.02,0-.21-.07-.42-.17-.64-.29-.2-.11-.39-.25-.58-.4-.26-.2-.5-.44-.74-.69-.16-.17-.31-.35-.45-.54,0-.01-.02-.03-.03-.04-.16-.22-.32-.46-.46-.7,0,0,0-.01,0-.02-.14-.24-.27-.49-.38-.75,0,0,0-.02,0-.02-.11-.25-.21-.51-.28-.77,0,0,0-.01,0-.02-.08-.26-.14-.51-.18-.77,0-.01,0-.02,0-.03-.04-.26-.06-.51-.06-.76,0-.17.02-.32.05-.47.01-.09.02-.19.04-.27.03-.12.07-.23.11-.34.03-.07.05-.15.08-.21.05-.11.12-.2.19-.29.03-.05.06-.1.1-.14.11-.12.24-.23.37-.31l-3.26,1.9c-.14.08-.26.18-.37.31-.04.04-.06.09-.1.14-.07.09-.14.18-.19.29-.03.06-.05.14-.08.21-.04.11-.08.22-.11.34-.02.08-.03.18-.04.27-.01.1-.04.19-.04.29,0,.06,0,.12,0,.18,0,.05,0,.1,0,.16,0,.09,0,.18.02.28,0,.08.02.16.03.25,0,.03,0,.05.01.08,0,.01,0,.02,0,.03,0,.04.01.07.02.11.01.07.03.14.04.21.01.07.03.13.05.2.02.06.03.13.05.19,0,.02.01.04.02.06,0,0,0,.01,0,.02.01.04.02.08.03.11.02.06.04.13.06.19.02.06.04.12.07.18.02.06.05.12.07.18.01.03.03.07.04.1,0,0,0,.01,0,.02,0,.02.02.04.03.06.03.06.06.12.09.18.03.06.06.12.09.18.03.06.06.12.1.19.02.04.05.09.08.13,0,0,0,.01,0,.02,0,.01.01.02.02.04.04.06.08.13.11.19.04.07.08.13.13.2.05.07.1.14.15.21.02.02.03.04.05.06,0,.01.02.02.03.04.04.05.07.09.11.14.09.12.19.24.29.35.02.02.04.03.05.05.23.26.48.49.74.69.02.01.03.03.04.04.13.1.27.2.41.28.04.03.09.05.13.08.05.03.1.06.15.09.08.04.15.08.23.11.07.03.13.06.2.08.02,0,.04.01.06.02,0,0,.02,0,.02,0,.03.01.06.02.1.03.05.02.11.03.16.04.05.01.1.02.15.03.05,0,.1.01.14.02.01,0,.03,0,.04,0,0,0,0,0,.01,0,.03,0,.06,0,.08,0,.04,0,.09,0,.13,0,.04,0,.09,0,.13,0,.04,0,.08,0,.12-.02.02,0,.04,0,.06-.01,0,0,0,0,.01,0,.01,0,.03,0,.04,0,.04,0,.08-.02.12-.03.04-.01.08-.03.12-.04.04-.02.08-.04.12-.06.02-.01.05-.02.07-.04l3.26-1.9c-.14.08-.3.14-.47.18Z"/>
          <path class="cls-35" d="m81.39,105.24c.09-.24.18-.47.24-.73.04-.18.06-.39.08-.59.03-.21.08-.4.09-.63,0-.13,0-.27.01-.4,0-.11,0-.23,0-.34,0-.2-.02-.4-.04-.6-.02-.18-.04-.35-.06-.53,0-.05-.02-.11-.03-.16,0-.02,0-.04-.01-.07-.01-.09-.03-.17-.04-.26-.03-.15-.06-.3-.09-.45-.03-.14-.07-.29-.1-.43-.04-.14-.07-.28-.11-.42,0-.03-.02-.06-.03-.09,0-.01,0-.02-.01-.04-.03-.1-.06-.19-.09-.29-.04-.13-.09-.27-.14-.4-.05-.13-.1-.27-.15-.4-.05-.13-.1-.27-.16-.4-.02-.05-.05-.11-.07-.16,0-.02-.01-.03-.02-.05-.03-.06-.05-.12-.08-.19-.06-.13-.12-.27-.18-.4-.06-.13-.13-.26-.2-.4-.07-.13-.14-.27-.21-.4-.04-.07-.08-.14-.12-.21,0-.02-.02-.03-.03-.05-.03-.05-.05-.09-.08-.14-.08-.14-.16-.27-.25-.41-.09-.14-.18-.29-.28-.43-.1-.15-.21-.31-.32-.46-.02-.02-.03-.04-.05-.07-.01-.02-.03-.04-.04-.05-.1-.14-.2-.27-.3-.4-.2-.26-.41-.51-.63-.75-.04-.04-.08-.08-.12-.12-.08-.09-.17-.17-.25-.26-.29-.31-.6-.59-.91-.86-.1-.09-.21-.18-.31-.27-.07-.06-.14-.12-.21-.18-.29-.22-.59-.43-.89-.62-.05-.03-.1-.06-.15-.09l-3.26,1.9c.43.25.84.56,1.24.89.11.09.21.18.31.27.31.27.62.56.91.87.08.09.17.17.25.26.37.4.72.83,1.05,1.28.01.02.03.04.04.05.35.48.67.98.97,1.5,0,.02.02.03.03.05.29.52.56,1.05.8,1.59,0,.02.01.03.02.05.23.54.44,1.09.6,1.65,0,.01,0,.03.01.04.16.55.29,1.1.38,1.64,0,.02,0,.04.01.07.09.55.13,1.1.13,1.63,0,.37-.05.7-.1,1.03-.03.2-.04.41-.08.59-.06.27-.15.5-.24.73-.06.15-.1.32-.17.46-.12.24-.26.44-.41.64-.07.1-.13.22-.21.3-.24.27-.51.49-.81.67l3.26-1.9c.3-.17.57-.4.81-.67.08-.09.14-.21.21-.31.15-.2.29-.4.41-.63.07-.14.11-.31.17-.46Z"/>
          <path class="cls-39" d="m76.07,89.41c.05-.13.08-.28.12-.42.06-.22.12-.43.16-.67.03-.16.04-.34.06-.51.02-.17.05-.33.06-.52,0-.13,0-.27,0-.41,0-.12,0-.24,0-.37,0-.22-.02-.43-.04-.65-.02-.19-.04-.38-.07-.58,0-.06-.02-.13-.03-.2,0-.02,0-.05-.01-.07-.01-.09-.03-.17-.04-.26-.03-.16-.06-.32-.1-.49-.03-.16-.07-.32-.11-.47-.04-.15-.08-.3-.12-.46-.01-.04-.03-.09-.04-.13,0-.02-.01-.03-.02-.05-.03-.09-.05-.18-.08-.26-.05-.15-.1-.29-.15-.44-.05-.15-.11-.29-.16-.43s-.11-.29-.17-.43c-.03-.08-.07-.16-.1-.24,0-.02-.01-.03-.02-.05-.02-.05-.04-.1-.06-.14-.06-.14-.13-.29-.2-.43-.07-.14-.14-.29-.22-.43-.08-.15-.15-.29-.23-.44-.06-.1-.12-.21-.18-.31,0-.01-.02-.03-.02-.04-.02-.03-.03-.06-.05-.08-.09-.15-.18-.3-.27-.45-.1-.16-.2-.31-.3-.47-.11-.17-.23-.33-.34-.49-.04-.05-.07-.1-.11-.14-.02-.03-.04-.06-.06-.09-.08-.11-.16-.22-.25-.33-.22-.29-.45-.56-.69-.83-.06-.07-.13-.13-.19-.19-.1-.11-.2-.21-.3-.31-.33-.34-.66-.65-1.01-.94-.1-.09-.2-.18-.3-.26-.05-.04-.1-.09-.16-.13-.31-.24-.63-.46-.95-.66-.1-.06-.2-.12-.3-.18-.12-.07-.25-.14-.37-.2-.1-.05-.2-.1-.3-.14-.05-.02-.11-.05-.16-.08-.03-.01-.05-.03-.08-.04-.15-.07-.31-.13-.46-.18-.04-.01-.07-.02-.11-.04-.04-.01-.07-.02-.11-.04-.06-.02-.13-.04-.19-.06-.13-.04-.25-.07-.38-.1-.02,0-.04,0-.07-.01-.02,0-.05,0-.07-.02-.07-.01-.14-.03-.21-.04-.11-.02-.22-.03-.33-.05-.03,0-.05,0-.08,0-.02,0-.04,0-.07,0-.06,0-.12-.01-.18-.01-.1,0-.21,0-.31,0-.04,0-.07,0-.1,0-.02,0-.05,0-.07,0-.04,0-.08,0-.12,0-.1,0-.2.02-.29.04-.05,0-.09.02-.13.03-.02,0-.04,0-.06.01-.03,0-.06.01-.09.02-.1.02-.19.05-.28.08-.05.02-.1.03-.14.05-.02,0-.04.02-.06.02-.02,0-.05.02-.07.03-.09.04-.19.08-.28.13-.05.03-.11.06-.16.09l-3.26,1.9c.16-.09.33-.17.51-.24.02,0,.04-.02.07-.02.16-.06.33-.11.51-.15.02,0,.04,0,.07-.01.18-.03.36-.06.55-.07.02,0,.05,0,.07,0,.19,0,.38,0,.58.01.02,0,.05,0,.07,0,.2.02.41.05.62.1.02,0,.05,0,.07.01.21.05.42.11.63.18.04.01.07.02.11.04.21.07.43.16.65.26.05.02.11.05.16.08.22.1.44.21.66.34.48.28.95.61,1.41.98.1.08.2.17.3.26.35.29.68.61,1.01.94.1.1.2.21.3.31.39.43.77.88,1.12,1.35.02.03.04.06.07.09.38.52.74,1.07,1.07,1.63,0,.01.02.03.02.04.33.57.63,1.16.89,1.76,0,.02.01.03.02.05.26.6.48,1.2.67,1.81,0,.02.01.03.02.05.18.6.32,1.21.42,1.81,0,.02,0,.05.01.07.09.61.15,1.21.14,1.79,0,.33-.04.63-.07.93-.02.17-.03.35-.06.51-.04.24-.1.45-.16.67-.04.14-.07.29-.12.42-.08.22-.19.42-.29.62-.05.1-.09.2-.15.29-.17.28-.36.52-.58.74l3.26-1.9c.21-.21.41-.46.58-.74.06-.09.1-.2.15-.3.1-.2.21-.4.29-.62Z"/>
          <path class="cls-68" d="m71.8,92.96c3.75,2.25,6.76,7.5,6.74,11.82-.01,4.38-3.11,6.14-6.91,3.95-1.37-.79-2.65-1.99-3.72-3.41.03-.47.07-.92.07-1.41.02-8.42-3.81-18-9.58-25.51.74-3.46,3.74-4.64,7.34-2.57,4.14,2.39,7.49,8.19,7.47,12.94,0,1.87-.53,3.29-1.42,4.18Zm-.34,11.2c1.76,1.02,3.2.2,3.2-1.82,0-2.03-1.42-4.49-3.18-5.51s-3.2-.2-3.2,1.82c0,2.03,1.42,4.49,3.18,5.51m-5.61-16.13c1.76,1.02,3.2.2,3.2-1.82,0-2.01-1.42-4.48-3.18-5.5s-3.2-.2-3.2,1.81c0,2.03,1.42,4.49,3.18,5.51"/>
        </g>
        <g class="cls-72">
          <path class="cls-38" d="m74.63,102.41c.03-.09.06-.17.09-.27.01-.07.02-.14.03-.21.01-.08.03-.15.03-.23,0-.05,0-.1,0-.15,0-.04,0-.08,0-.12,0-.07,0-.14-.01-.22,0-.06-.01-.13-.02-.19,0-.02,0-.04-.01-.07,0,0,0-.02,0-.02,0-.03,0-.06-.01-.08,0-.05-.02-.11-.03-.16-.01-.05-.02-.11-.04-.16-.01-.05-.03-.1-.04-.15,0-.02,0-.03-.01-.05,0,0,0-.01,0-.02,0-.03-.02-.06-.03-.09-.02-.05-.03-.1-.05-.15-.02-.05-.04-.1-.05-.15-.02-.05-.04-.1-.06-.14-.01-.03-.02-.05-.04-.08,0,0,0-.01,0-.02,0-.02-.01-.03-.02-.05-.02-.05-.04-.1-.07-.14-.02-.05-.05-.1-.07-.14-.03-.05-.05-.1-.08-.15-.02-.04-.04-.07-.06-.1,0,0,0,0,0-.01,0,0-.01-.02-.02-.03-.03-.05-.06-.1-.09-.15-.03-.05-.07-.1-.1-.16-.04-.06-.08-.11-.11-.17-.01-.02-.02-.03-.03-.05,0-.01-.01-.02-.02-.03-.03-.04-.06-.08-.08-.11-.07-.09-.15-.19-.23-.28-.01-.01-.03-.02-.04-.04-.18-.2-.37-.38-.58-.54-.01,0-.02-.02-.03-.03-.1-.08-.21-.15-.32-.22-.03-.02-.07-.04-.1-.06-.04-.02-.08-.05-.12-.07-.06-.03-.12-.06-.18-.09-.05-.02-.1-.04-.15-.06-.02,0-.03,0-.04-.01,0,0-.01,0-.02,0-.02,0-.05-.02-.07-.02-.04-.01-.08-.02-.12-.03-.04,0-.08-.02-.12-.02-.04,0-.07-.01-.11-.02-.01,0-.02,0-.03,0,0,0,0,0-.01,0-.02,0-.04,0-.06,0-.03,0-.07,0-.1,0-.03,0-.07,0-.1,0-.03,0-.06,0-.1.01-.02,0-.03,0-.05.01,0,0,0,0-.01,0-.01,0-.02,0-.03,0-.03,0-.06.02-.09.03-.03.01-.06.02-.09.03-.03.01-.06.03-.09.04-.02,0-.04.02-.05.03l-3.26,1.9c.11-.06.23-.11.37-.14,0,0,0,0,.01,0,.13-.03.27-.03.41-.02,0,0,0,0,.01,0,.15.01.3.05.45.1,0,0,.01,0,.02,0,.16.06.33.13.5.23.15.09.3.2.45.31.2.16.4.34.58.54.12.14.24.28.35.43,0,0,.01.02.02.03.13.17.25.36.36.55,0,0,0,0,0,.01.11.19.21.39.3.59,0,0,0,.01,0,.02.09.2.16.4.22.6,0,0,0,.01,0,.02.06.2.11.4.14.6,0,0,0,.02,0,.02.03.2.05.4.05.6,0,.14-.02.25-.04.37,0,.07-.01.15-.03.21-.02.1-.05.18-.09.27-.02.05-.04.12-.06.17-.04.09-.1.16-.15.23-.03.03-.05.08-.07.11-.09.1-.19.18-.29.24l3.26-1.9c.11-.06.21-.15.29-.24.03-.03.05-.07.07-.11.05-.07.11-.14.15-.23.02-.05.04-.11.06-.17Z"/>
          <path class="cls-69" d="m69.03,99.13c1.38.8,2.5,2.73,2.49,4.32,0,1.58-1.13,2.23-2.51,1.43s-2.49-2.73-2.48-4.31c0-1.58,1.12-2.23,2.5-1.44Z"/>
        </g>
        <g class="cls-72">
          <path class="cls-40" d="m68.7,86.24c.03-.09.06-.17.09-.27.01-.07.02-.14.03-.21.01-.08.03-.15.03-.23,0-.05,0-.1,0-.15,0-.04,0-.08,0-.12,0-.07,0-.14-.01-.22,0-.06-.01-.13-.02-.19,0-.02,0-.04-.01-.07,0,0,0-.02,0-.02,0-.03,0-.06-.01-.08,0-.05-.02-.11-.03-.16-.01-.05-.02-.11-.04-.16-.01-.05-.03-.1-.04-.15,0-.02,0-.03-.01-.05,0,0,0-.01,0-.02,0-.03-.02-.06-.03-.09-.02-.05-.03-.1-.05-.15-.02-.05-.04-.1-.05-.15-.02-.05-.04-.1-.06-.14-.01-.03-.02-.05-.04-.08,0,0,0-.01,0-.02,0-.02-.01-.03-.02-.05-.02-.05-.04-.1-.07-.14-.02-.05-.05-.1-.07-.14-.03-.05-.05-.1-.08-.15-.02-.04-.04-.07-.06-.1,0,0,0,0,0-.01,0,0-.01-.02-.02-.03-.03-.05-.06-.1-.09-.15-.03-.05-.07-.1-.1-.16-.04-.06-.08-.11-.11-.17-.01-.02-.02-.03-.03-.05,0-.01-.01-.02-.02-.03-.03-.04-.06-.08-.08-.11-.07-.09-.15-.19-.23-.28-.01-.01-.03-.02-.04-.04-.18-.2-.37-.38-.58-.54-.01,0-.02-.02-.03-.03-.1-.08-.21-.15-.32-.22-.03-.02-.07-.04-.1-.06-.04-.02-.08-.05-.12-.07-.06-.03-.12-.06-.18-.09-.05-.02-.1-.04-.15-.06-.02,0-.03,0-.04-.01,0,0-.01,0-.02,0-.02,0-.05-.02-.07-.02-.04-.01-.08-.02-.12-.03-.04,0-.08-.02-.12-.02-.04,0-.07-.01-.11-.02-.01,0-.02,0-.03,0,0,0,0,0-.01,0-.02,0-.04,0-.06,0-.03,0-.07,0-.1,0-.03,0-.07,0-.1,0-.03,0-.06,0-.1.01-.02,0-.03,0-.05.01,0,0,0,0-.01,0-.01,0-.02,0-.03,0-.03,0-.06.02-.09.03-.03.01-.06.02-.09.03-.03.01-.06.03-.09.04-.02,0-.04.02-.05.03l-3.26,1.9c.11-.06.23-.11.37-.14,0,0,0,0,.01,0,.13-.03.27-.03.41-.02,0,0,0,0,.01,0,.15.01.3.05.45.1,0,0,.01,0,.02,0,.16.06.33.13.5.23.15.09.3.2.45.31.2.16.4.34.58.54.12.14.24.28.35.43,0,0,.01.02.02.03.13.17.25.36.36.55,0,0,0,0,0,.01.11.19.21.39.3.59,0,0,0,.01,0,.02.09.2.16.4.22.6,0,0,0,.01,0,.02.06.2.11.4.14.6,0,0,0,.02,0,.02.03.2.05.4.05.6,0,.14-.02.25-.04.37,0,.07-.01.15-.03.21-.02.1-.05.18-.09.27-.02.05-.04.12-.06.17-.04.09-.1.16-.15.23-.03.03-.05.08-.07.11-.09.1-.19.18-.29.24l3.26-1.9c.11-.06.21-.15.29-.24.03-.03.05-.07.07-.11.05-.07.11-.14.15-.23.02-.05.04-.11.06-.17Z"/>
          <path class="cls-67" d="m63.09,82.96c1.38.8,2.5,2.73,2.49,4.32,0,1.58-1.13,2.23-2.51,1.43-1.38-.8-2.49-2.73-2.48-4.31s1.12-2.23,2.5-1.44Z"/>
        </g>
      </g>
    
    </g>
  </g>
</svg>