<?xml version="1.0" encoding="UTF-8"?>
<svg id="_图层_2" data-name="图层 2" xmlns="http://www.w3.org/2000/svg" xmlns:xlink="http://www.w3.org/1999/xlink" viewBox="0 0 149.66 149.92">
  <defs>
    <style>
      .cls-1 {
        fill: url(#_未命名的渐变_88);
      }

      .cls-1, .cls-2, .cls-3, .cls-4, .cls-5, .cls-6, .cls-7, .cls-8, .cls-9, .cls-10, .cls-11, .cls-12, .cls-13, .cls-14, .cls-15, .cls-16, .cls-17, .cls-18, .cls-19, .cls-20, .cls-21, .cls-22, .cls-23, .cls-24, .cls-25, .cls-26, .cls-27, .cls-28, .cls-29, .cls-30, .cls-31, .cls-32, .cls-33, .cls-34, .cls-35, .cls-36, .cls-37, .cls-38, .cls-39, .cls-40, .cls-41, .cls-42, .cls-43, .cls-44, .cls-45, .cls-46, .cls-47, .cls-48, .cls-49, .cls-50, .cls-51, .cls-52, .cls-53, .cls-54, .cls-55, .cls-56, .cls-57, .cls-58, .cls-59, .cls-60, .cls-61, .cls-62, .cls-63, .cls-64, .cls-65, .cls-66, .cls-67, .cls-68, .cls-69, .cls-70, .cls-71 {
        stroke-width: 0px;
      }

      .cls-2 {
        fill: url(#_未命名的渐变_47);
      }

      .cls-3 {
        fill: url(#_未命名的渐变_30);
      }

      .cls-72 {
        clip-path: url(#clippath);
      }

      .cls-4 {
        fill: none;
      }

      .cls-5 {
        fill: url(#_未命名的渐变_47-2);
      }

      .cls-6 {
        fill: url(#_未命名的渐变_47-4);
      }

      .cls-7 {
        fill: url(#_未命名的渐变_47-3);
      }

      .cls-8 {
        fill: url(#_未命名的渐变_47-5);
      }

      .cls-9 {
        fill: url(#_未命名的渐变_47-6);
      }

      .cls-10 {
        fill: url(#_未命名的渐变_47-7);
      }

      .cls-11 {
        fill: url(#_未命名的渐变_47-8);
      }

      .cls-12 {
        fill: url(#_未命名的渐变_47-9);
      }

      .cls-13 {
        fill: url(#_未命名的渐变_88-4);
      }

      .cls-14 {
        fill: url(#_未命名的渐变_88-5);
      }

      .cls-15 {
        fill: url(#_未命名的渐变_88-6);
      }

      .cls-16 {
        fill: url(#_未命名的渐变_88-7);
      }

      .cls-17 {
        fill: url(#_未命名的渐变_88-3);
      }

      .cls-18 {
        fill: url(#_未命名的渐变_88-2);
      }

      .cls-19 {
        fill: url(#_未命名的渐变_47-11);
      }

      .cls-20 {
        fill: url(#_未命名的渐变_47-14);
      }

      .cls-21 {
        fill: url(#_未命名的渐变_47-12);
      }

      .cls-22 {
        fill: url(#_未命名的渐变_47-13);
      }

      .cls-23 {
        fill: url(#_未命名的渐变_47-10);
      }

      .cls-24 {
        fill: url(#_未命名的渐变_47-19);
      }

      .cls-25 {
        fill: url(#_未命名的渐变_47-15);
      }

      .cls-26 {
        fill: url(#_未命名的渐变_47-16);
      }

      .cls-27 {
        fill: url(#_未命名的渐变_47-18);
      }

      .cls-28 {
        fill: url(#_未命名的渐变_47-17);
      }

      .cls-29 {
        fill: url(#_未命名的渐变_47-30);
      }

      .cls-30 {
        fill: url(#_未命名的渐变_47-26);
      }

      .cls-31 {
        fill: url(#_未命名的渐变_47-29);
      }

      .cls-32 {
        fill: url(#_未命名的渐变_47-21);
      }

      .cls-33 {
        fill: url(#_未命名的渐变_47-22);
      }

      .cls-34 {
        fill: url(#_未命名的渐变_47-20);
      }

      .cls-35 {
        fill: url(#_未命名的渐变_47-25);
      }

      .cls-36 {
        fill: url(#_未命名的渐变_47-23);
      }

      .cls-37 {
        fill: url(#_未命名的渐变_47-24);
      }

      .cls-38 {
        fill: url(#_未命名的渐变_47-27);
      }

      .cls-39 {
        fill: url(#_未命名的渐变_47-28);
      }

      .cls-40 {
        fill: url(#_新建渐变色板_4);
      }

      .cls-41 {
        fill: url(#_新建渐变色板_2);
      }

      .cls-73 {
        clip-path: url(#clippath-1);
      }

      .cls-74 {
        clip-path: url(#clippath-2);
      }

      .cls-42 {
        fill: url(#_新建渐变色板_2-14);
      }

      .cls-43 {
        fill: url(#_新建渐变色板_2-10);
      }

      .cls-44 {
        fill: url(#_新建渐变色板_2-11);
      }

      .cls-45 {
        fill: url(#_新建渐变色板_2-13);
      }

      .cls-46 {
        fill: url(#_新建渐变色板_2-12);
      }

      .cls-47 {
        fill: url(#_新建渐变色板_2-15);
      }

      .cls-75 {
        opacity: .2;
      }

      .cls-76 {
        isolation: isolate;
      }

      .cls-49 {
        fill: url(#_未命名的渐变_114);
      }

      .cls-50 {
        fill: #010714;
        opacity: 0;
      }

      .cls-51 {
        fill: #611c19;
      }

      .cls-52 {
        fill: #282525;
      }

      .cls-53 {
        fill: #2d2a2a;
      }

      .cls-54 {
        fill: #2a2727;
      }

      .cls-55 {
        fill: #2b2828;
      }

      .cls-56 {
        fill: #353131;
      }

      .cls-57 {
        fill: #2e2b2b;
      }

      .cls-58 {
        fill: #3e3a3a;
      }

      .cls-59 {
        fill: #c4c4c4;
      }

      .cls-60 {
        fill: #322e2e;
      }

      .cls-61 {
        fill: #302d2d;
      }

      .cls-62 {
        fill: #333030;
      }

      .cls-63 {
        fill: url(#_新建渐变色板_2-5);
      }

      .cls-64 {
        fill: url(#_新建渐变色板_2-3);
      }

      .cls-65 {
        fill: url(#_新建渐变色板_2-4);
      }

      .cls-66 {
        fill: url(#_新建渐变色板_2-6);
      }

      .cls-67 {
        fill: url(#_新建渐变色板_2-2);
      }

      .cls-68 {
        fill: url(#_新建渐变色板_2-9);
      }

      .cls-69 {
        fill: url(#_新建渐变色板_2-8);
      }

      .cls-70 {
        fill: url(#_新建渐变色板_2-7);
      }

      .cls-71 {
        fill: url(#_新建渐变色板_4-2);
      }
    </style>
    <linearGradient id="_未命名的渐变_88" data-name="未命名的渐变 88" x1="26.1" y1="119.35" x2="59.45" y2="119.35" gradientUnits="userSpaceOnUse">
      <stop offset="0" stop-color="#283140"/>
      <stop offset="1" stop-color="#12161a"/>
    </linearGradient>
    <linearGradient id="_新建渐变色板_2" data-name="新建渐变色板 2" x1="26.1" y1="122.91" x2="55" y2="122.91" gradientUnits="userSpaceOnUse">
      <stop offset="0" stop-color="#425266"/>
      <stop offset="0" stop-color="#425266"/>
      <stop offset="1" stop-color="#596b8a"/>
    </linearGradient>
    <linearGradient id="_未命名的渐变_88-2" data-name="未命名的渐变 88" x1="89.52" y1="79.99" x2="122.87" y2="79.99" xlink:href="#_未命名的渐变_88"/>
    <linearGradient id="_新建渐变色板_2-2" data-name="新建渐变色板 2" x1="89.52" y1="83.56" x2="118.41" y2="83.56" xlink:href="#_新建渐变色板_2"/>
    <linearGradient id="_新建渐变色板_2-3" data-name="新建渐变色板 2" x1="54.52" y1="113.18" x2="138.79" y2="113.18" xlink:href="#_新建渐变色板_2"/>
    <linearGradient id="_未命名的渐变_88-3" data-name="未命名的渐变 88" x1="47.34" y1="109.3" x2="138.79" y2="109.3" xlink:href="#_未命名的渐变_88"/>
    <linearGradient id="_新建渐变色板_2-4" data-name="新建渐变色板 2" x1="47.33" y1="135.59" x2="54.53" y2="135.59" xlink:href="#_新建渐变色板_2"/>
    <linearGradient id="_未命名的渐变_88-4" data-name="未命名的渐变 88" x1="61.47" y1="118.4" x2="66.22" y2="118.4" xlink:href="#_未命名的渐变_88"/>
    <clipPath id="clippath">
      <path class="cls-4" d="m50.35,107.38l4.68-2.72c4.17,1.14,7.97,1.03,11.19-.2l-4.68,2.72c-3.21,1.23-7.02,1.33-11.19.2Z"/>
    </clipPath>
    <linearGradient id="_新建渐变色板_2-5" data-name="新建渐变色板 2" x1="50.35" y1="119.76" x2="61.54" y2="119.76" xlink:href="#_新建渐变色板_2"/>
    <linearGradient id="_未命名的渐变_88-5" data-name="未命名的渐变 88" x1="126.7" y1="79.84" x2="131.45" y2="79.84" xlink:href="#_未命名的渐变_88"/>
    <clipPath id="clippath-1">
      <path class="cls-4" d="m115.58,68.81l4.68-2.72c4.17,1.15,7.97,1.04,11.19-.19l-4.68,2.72c-3.21,1.23-7.02,1.33-11.19.19Z"/>
    </clipPath>
    <linearGradient id="_新建渐变色板_2-6" data-name="新建渐变色板 2" x1="115.58" y1="81.2" x2="126.77" y2="81.2" xlink:href="#_新建渐变色板_2"/>
    <linearGradient id="_未命名的渐变_47" data-name="未命名的渐变 47" x1="103.5" y1="17.77" x2="131.45" y2="66.77" gradientUnits="userSpaceOnUse">
      <stop offset="0" stop-color="#38455a"/>
      <stop offset=".15" stop-color="#7a96ca"/>
      <stop offset=".25" stop-color="#7a96ca"/>
      <stop offset=".9" stop-color="#12161a"/>
      <stop offset="1" stop-color="#283140"/>
    </linearGradient>
    <linearGradient id="_未命名的渐变_47-2" data-name="未命名的渐变 47" x1="67.61" y1="64.58" x2="108.03" y2="48.19" xlink:href="#_未命名的渐变_47"/>
    <linearGradient id="_未命名的渐变_47-3" data-name="未命名的渐变 47" x1="78.8" y1="32.03" x2="106.75" y2="81.03" xlink:href="#_未命名的渐变_47"/>
    <linearGradient id="_未命名的渐变_47-4" data-name="未命名的渐变 47" x1="63.02" y1="71.01" x2="75.6" y2="65.51" xlink:href="#_未命名的渐变_47"/>
    <linearGradient id="_未命名的渐变_30" data-name="未命名的渐变 30" x1="51.76" y1="47.48" x2="84.09" y2="95.98" gradientUnits="userSpaceOnUse">
      <stop offset="0" stop-color="#2a73e4"/>
      <stop offset=".15" stop-color="#59c6f9"/>
      <stop offset=".25" stop-color="#59c6f9"/>
      <stop offset=".85" stop-color="#1433ca"/>
      <stop offset="1" stop-color="#2a73e4"/>
    </linearGradient>
    <linearGradient id="_未命名的渐变_47-5" data-name="未命名的渐变 47" x1="34.52" y1="85.27" x2="61.58" y2="76.62" xlink:href="#_未命名的渐变_47"/>
    <linearGradient id="_未命名的渐变_47-6" data-name="未命名的渐变 47" x1="29.41" y1="60.54" x2="57.36" y2="109.54" xlink:href="#_未命名的渐变_47"/>
    <linearGradient id="_新建渐变色板_2-7" data-name="新建渐变色板 2" x1="8.09" y1="81.84" x2="54.23" y2="120.24" xlink:href="#_新建渐变色板_2"/>
    <linearGradient id="_未命名的渐变_47-7" data-name="未命名的渐变 47" x1="23.59" y1="94.63" x2="29.39" y2="101.28" xlink:href="#_未命名的渐变_47"/>
    <linearGradient id="_未命名的渐变_114" data-name="未命名的渐变 114" x1="36.62" y1="102.15" x2="45.04" y2="102.99" gradientUnits="userSpaceOnUse">
      <stop offset="0" stop-color="#142439"/>
      <stop offset="1" stop-color="#142439" stop-opacity="0"/>
    </linearGradient>
    <linearGradient id="_未命名的渐变_47-8" data-name="未命名的渐变 47" x1="17.59" y1="84.23" x2="15.79" y2="99.61" xlink:href="#_未命名的渐变_47"/>
    <clipPath id="clippath-2">
      <path class="cls-4" d="m8.54,79.47l2.81-1.63c.08-.05.16-.09.24-.13l-2.81,1.63c-.08.04-.16.09-.24.13Z"/>
    </clipPath>
    <linearGradient id="_未命名的渐变_47-9" data-name="未命名的渐变 47" x1="20.23" y1="77.6" x2="20.96" y2="91.13" xlink:href="#_未命名的渐变_47"/>
    <linearGradient id="_新建渐变色板_4" data-name="新建渐变色板 4" x1="13.32" y1="77.21" x2="21.01" y2="92.7" gradientUnits="userSpaceOnUse">
      <stop offset="0" stop-color="#87a9e4"/>
      <stop offset="1" stop-color="#547097"/>
      <stop offset="1" stop-color="#547097"/>
    </linearGradient>
    <linearGradient id="_新建渐变色板_2-8" data-name="新建渐变色板 2" x1="3.78" y1="89.98" x2="19.4" y2="89.98" xlink:href="#_新建渐变色板_2"/>
    <linearGradient id="_新建渐变色板_4-2" data-name="新建渐变色板 4" x1="24.02" y1="84.7" x2="40.01" y2="101.96" xlink:href="#_新建渐变色板_4"/>
    <linearGradient id="_未命名的渐变_47-10" data-name="未命名的渐变 47" x1="30.81" y1="93.58" x2="35.52" y2="102.68" xlink:href="#_未命名的渐变_47"/>
    <linearGradient id="_新建渐变色板_2-9" data-name="新建渐变色板 2" x1="20.88" y1="99.72" x2="36.44" y2="99.72" xlink:href="#_新建渐变色板_2"/>
    <linearGradient id="_未命名的渐变_47-11" data-name="未命名的渐变 47" x1="16.67" y1="85.53" x2="17.48" y2="86.83" xlink:href="#_未命名的渐变_47"/>
    <linearGradient id="_新建渐变色板_2-10" data-name="新建渐变色板 2" x1="15.74" y1="86.5" x2="16.98" y2="86.5" xlink:href="#_新建渐变色板_2"/>
    <linearGradient id="_未命名的渐变_47-12" data-name="未命名的渐变 47" x1="8.81" y1="82.83" x2="9.62" y2="84.13" xlink:href="#_未命名的渐变_47"/>
    <linearGradient id="_新建渐变色板_2-11" data-name="新建渐变色板 2" x1="7.88" y1="83.81" x2="9.12" y2="83.81" xlink:href="#_新建渐变色板_2"/>
    <linearGradient id="_未命名的渐变_47-13" data-name="未命名的渐变 47" x1="8.81" y1="94.56" x2="9.62" y2="95.86" xlink:href="#_未命名的渐变_47"/>
    <linearGradient id="_新建渐变色板_2-12" data-name="新建渐变色板 2" x1="7.88" y1="95.54" x2="9.12" y2="95.54" xlink:href="#_新建渐变色板_2"/>
    <linearGradient id="_未命名的渐变_47-14" data-name="未命名的渐变 47" x1="30.09" y1="94.56" x2="30.89" y2="95.86" xlink:href="#_未命名的渐变_47"/>
    <linearGradient id="_新建渐变色板_2-13" data-name="新建渐变色板 2" x1="29.15" y1="95.54" x2="30.39" y2="95.54" xlink:href="#_新建渐变色板_2"/>
    <linearGradient id="_未命名的渐变_47-15" data-name="未命名的渐变 47" x1="22.62" y1="89.57" x2="23.43" y2="90.87" xlink:href="#_未命名的渐变_47"/>
    <linearGradient id="_新建渐变色板_2-14" data-name="新建渐变色板 2" x1="21.69" y1="90.54" x2="22.93" y2="90.54" xlink:href="#_新建渐变色板_2"/>
    <linearGradient id="_未命名的渐变_47-16" data-name="未命名的渐变 47" x1="30.09" y1="106.3" x2="30.89" y2="107.6" xlink:href="#_未命名的渐变_47"/>
    <linearGradient id="_新建渐变色板_2-15" data-name="新建渐变色板 2" x1="29.15" y1="107.27" x2="30.39" y2="107.27" xlink:href="#_新建渐变色板_2"/>
    <linearGradient id="_未命名的渐变_47-17" data-name="未命名的渐变 47" x1="54.9" y1="79.68" x2="53.66" y2="81.78" xlink:href="#_未命名的渐变_47"/>
    <linearGradient id="_未命名的渐变_47-18" data-name="未命名的渐变 47" x1="59.49" y1="81.02" x2="59.09" y2="81.65" xlink:href="#_未命名的渐变_47"/>
    <linearGradient id="_未命名的渐变_47-19" data-name="未命名的渐变 47" x1="59.3" y1="82.97" x2="58.9" y2="83.61" xlink:href="#_未命名的渐变_47"/>
    <linearGradient id="_未命名的渐变_47-20" data-name="未命名的渐变 47" x1="57.47" y1="84.03" x2="57.07" y2="84.66" xlink:href="#_未命名的渐变_47"/>
    <linearGradient id="_未命名的渐变_47-21" data-name="未命名的渐变 47" x1="57.27" y1="82.31" x2="56.87" y2="82.95" xlink:href="#_未命名的渐变_47"/>
    <linearGradient id="_未命名的渐变_47-22" data-name="未命名的渐变 47" x1="58.79" y1="82.1" x2="57.71" y2="83.6" xlink:href="#_未命名的渐变_47"/>
    <linearGradient id="_未命名的渐变_47-23" data-name="未命名的渐变 47" x1="58.43" y1="80.64" x2="55.96" y2="84.71" xlink:href="#_未命名的渐变_47"/>
    <linearGradient id="_未命名的渐变_88-6" data-name="未命名的渐变 88" x1="56.65" y1="83.01" x2="60.29" y2="83.01" xlink:href="#_未命名的渐变_88"/>
    <linearGradient id="_未命名的渐变_47-24" data-name="未命名的渐变 47" x1="103.15" y1="54.92" x2="101.91" y2="57.03" xlink:href="#_未命名的渐变_47"/>
    <linearGradient id="_未命名的渐变_47-25" data-name="未命名的渐变 47" x1="107.73" y1="56.27" x2="107.34" y2="56.9" xlink:href="#_未命名的渐变_47"/>
    <linearGradient id="_未命名的渐变_47-26" data-name="未命名的渐变 47" x1="107.54" y1="58.22" x2="107.15" y2="58.85" xlink:href="#_未命名的渐变_47"/>
    <linearGradient id="_未命名的渐变_47-27" data-name="未命名的渐变 47" x1="105.71" y1="59.27" x2="105.32" y2="59.91" xlink:href="#_未命名的渐变_47"/>
    <linearGradient id="_未命名的渐变_47-28" data-name="未命名的渐变 47" x1="105.51" y1="57.56" x2="105.12" y2="58.19" xlink:href="#_未命名的渐变_47"/>
    <linearGradient id="_未命名的渐变_47-29" data-name="未命名的渐变 47" x1="107.03" y1="57.34" x2="105.95" y2="58.85" xlink:href="#_未命名的渐变_47"/>
    <linearGradient id="_未命名的渐变_47-30" data-name="未命名的渐变 47" x1="106.68" y1="55.89" x2="104.21" y2="59.95" xlink:href="#_未命名的渐变_47"/>
    <linearGradient id="_未命名的渐变_88-7" data-name="未命名的渐变 88" x1="104.89" y1="58.25" x2="108.54" y2="58.25" xlink:href="#_未命名的渐变_88"/>
  </defs>
  <g id="_图层_1-2" data-name="图层 1">
    <g id="_蒸汽发生器" data-name="蒸汽发生器">
      <g>
        <rect class="cls-50" width="149.66" height="149.92"/>
        <g>
          <g class="cls-76">
            <polygon class="cls-58" points="54.77 127.91 59.45 125.19 59.68 129.59 55 132.31 54.77 127.91"/>
            <polygon class="cls-1" points="26.1 113.51 30.78 110.79 59.45 125.19 54.77 127.91 26.1 113.51"/>
            <polygon class="cls-41" points="54.77 127.91 55 132.31 26.33 117.91 26.1 113.51 54.77 127.91"/>
          </g>
          <g class="cls-76">
            <polygon class="cls-58" points="118.19 88.56 122.87 85.84 123.1 90.24 118.41 92.96 118.19 88.56"/>
            <polygon class="cls-18" points="89.52 74.15 94.21 71.43 122.87 85.84 118.19 88.56 89.52 74.15"/>
            <polygon class="cls-67" points="118.19 88.56 118.41 92.96 89.75 78.56 89.52 74.15 118.19 88.56"/>
          </g>
          <g class="cls-76">
            <polygon class="cls-64" points="54.53 135.86 138.79 86.89 138.78 90.5 54.52 139.47 54.53 135.86"/>
            <polygon class="cls-17" points="47.34 131.71 131.61 82.75 138.79 86.89 54.53 135.86 47.34 131.71"/>
            <polygon class="cls-65" points="54.53 135.86 54.52 139.47 47.33 135.32 47.34 131.71 54.53 135.86"/>
          </g>
          <g class="cls-76">
            <polygon class="cls-13" points="61.54 107.18 66.22 104.46 66.15 129.61 61.47 132.33 61.54 107.18"/>
            <g class="cls-76">
              <g class="cls-72">
                <g class="cls-76">
                  <path class="cls-56" d="m50.35,107.38l4.68-2.72c.17.05.34.09.51.13l-4.68,2.72c-.17-.04-.34-.09-.51-.13"/>
                  <path class="cls-62" d="m50.86,107.52l4.68-2.72c.41.1.81.19,1.21.27l-4.68,2.72c-.4-.08-.81-.17-1.21-.27"/>
                  <path class="cls-60" d="m52.08,107.79l4.68-2.72c.42.08.84.15,1.25.21l-4.68,2.72c-.41-.06-.83-.12-1.25-.21"/>
                  <path class="cls-61" d="m53.33,107.99l4.68-2.72c.44.06.87.1,1.3.13l-4.68,2.72c-.43-.03-.86-.07-1.3-.13"/>
                  <path class="cls-57" d="m54.63,108.13l4.68-2.72c.46.03.92.05,1.37.05l-4.68,2.72c-.45,0-.91-.01-1.37-.05"/>
                  <path class="cls-53" d="m56,108.17l4.68-2.72c.5,0,1-.02,1.48-.07l-4.68,2.72c-.48.04-.98.07-1.48.07"/>
                  <path class="cls-55" d="m57.48,108.11l4.68-2.72c.57-.05,1.12-.13,1.66-.24l-4.68,2.72c-.54.11-1.09.19-1.66.24"/>
                  <path class="cls-54" d="m59.14,107.87l4.68-2.72c.69-.14,1.36-.32,2.01-.54l-4.68,2.72c-.65.23-1.32.41-2.01.54"/>
                  <path class="cls-52" d="m61.15,107.33l4.68-2.72c.13-.05.26-.09.39-.14l-4.68,2.72c-.13.05-.26.1-.39.14"/>
                </g>
              </g>
            </g>
            <path class="cls-63" d="m61.54,107.18l-.07,25.14-7.85-4.66-3.27-20.29c4.17,1.14,7.97,1.03,11.19-.2Z"/>
          </g>
          <g class="cls-76">
            <polygon class="cls-14" points="126.77 68.63 131.45 65.91 131.38 91.05 126.7 93.77 126.77 68.63"/>
            <g class="cls-76">
              <g class="cls-73">
                <g class="cls-76">
                  <path class="cls-56" d="m115.58,68.81l4.68-2.72c.19.05.38.1.56.15l-4.68,2.72c-.19-.05-.37-.1-.56-.15"/>
                  <path class="cls-62" d="m116.14,68.96l4.68-2.72c.4.1.81.19,1.2.27l-4.68,2.72c-.4-.08-.8-.17-1.2-.27"/>
                  <path class="cls-60" d="m117.35,69.23l4.68-2.72c.42.08.83.15,1.24.21l-4.68,2.72c-.41-.06-.82-.12-1.24-.21"/>
                  <path class="cls-61" d="m118.59,69.43l4.68-2.72c.44.06.87.1,1.29.13l-4.68,2.72c-.43-.03-.86-.07-1.29-.13"/>
                  <path class="cls-57" d="m119.88,69.57l4.68-2.72c.46.03.92.05,1.37.05l-4.68,2.72c-.45,0-.91-.01-1.37-.05"/>
                  <path class="cls-53" d="m121.25,69.61l4.68-2.72c.5,0,.99-.02,1.47-.07l-4.68,2.72c-.48.04-.97.07-1.47.07"/>
                  <path class="cls-55" d="m122.72,69.55l4.68-2.72c.56-.05,1.12-.13,1.65-.24l-4.68,2.72c-.54.11-1.09.18-1.65.24"/>
                  <path class="cls-54" d="m124.37,69.31l4.68-2.72c.69-.14,1.36-.32,2.01-.54l-4.68,2.72c-.65.23-1.32.41-2.01.54"/>
                  <path class="cls-52" d="m126.38,68.77l4.68-2.72c.13-.05.26-.09.39-.14l-4.68,2.72c-.13.05-.26.1-.39.14"/>
                </g>
              </g>
            </g>
            <path class="cls-66" d="m126.77,68.63l-.07,25.14-7.85-4.66-3.27-20.3c4.17,1.15,7.97,1.04,11.19-.19Z"/>
          </g>
          <g>
            <g class="cls-76">
              <path class="cls-2" d="m139.84,59.88c.17-.28.33-.57.48-.87.11-.23.21-.48.32-.73.13-.31.26-.63.38-.96.09-.27.17-.54.25-.82.1-.35.19-.69.27-1.06.07-.3.12-.6.17-.91.06-.38.12-.76.17-1.16.04-.32.07-.65.09-.99.02-.21.05-.4.06-.61.02-.39.03-.8.03-1.2,0-.34,0-.68-.02-1.02-.01-.37-.04-.75-.07-1.13-.01-.16-.02-.32-.03-.48,0-.06,0-.13-.01-.19-.05-.53-.11-1.06-.18-1.59-.02-.15-.05-.29-.07-.44-.02-.13-.04-.27-.07-.4-.03-.2-.06-.4-.1-.6-.08-.45-.17-.89-.27-1.34-.02-.09-.05-.19-.07-.28-.02-.1-.05-.19-.07-.29-.06-.24-.11-.49-.17-.73-.11-.42-.22-.84-.34-1.26-.03-.1-.06-.2-.09-.3-.03-.09-.06-.18-.08-.27-.07-.22-.13-.44-.2-.65-.13-.4-.27-.81-.41-1.21-.05-.14-.1-.28-.16-.42-.03-.09-.07-.18-.1-.28-.06-.17-.12-.33-.19-.5-.15-.4-.31-.8-.48-1.19-.08-.19-.16-.38-.25-.57-.04-.09-.08-.18-.12-.27-.05-.12-.1-.24-.15-.35-.18-.4-.36-.8-.55-1.19-.11-.24-.23-.47-.35-.7-.04-.08-.08-.16-.12-.24-.04-.08-.08-.16-.12-.24-.21-.4-.42-.8-.64-1.2-.14-.26-.29-.51-.44-.77-.04-.08-.09-.16-.13-.23-.04-.07-.08-.13-.11-.2-.24-.41-.49-.82-.74-1.23-.14-.23-.29-.45-.43-.67-.07-.11-.14-.22-.21-.32-.06-.1-.12-.2-.19-.29-.31-.46-.62-.91-.94-1.36-.08-.1-.16-.21-.23-.31-.12-.17-.25-.33-.37-.5-.18-.25-.36-.5-.55-.74-.14-.18-.28-.34-.42-.51-.34-.42-.68-.83-1.02-1.23-.15-.18-.29-.37-.45-.54-.18-.21-.37-.4-.56-.6-.14-.15-.28-.31-.43-.46-.55-.58-1.11-1.14-1.68-1.68-.06-.06-.13-.12-.2-.18-.52-.48-1.04-.93-1.57-1.37-.16-.13-.32-.27-.49-.4-.15-.12-.3-.25-.45-.37-.44-.34-.88-.66-1.33-.98-.03-.02-.07-.04-.1-.07-.39-.27-.79-.54-1.19-.79-.28-.17-.56-.34-.84-.5-.34-.19-.67-.38-1-.55-.28-.15-.55-.27-.83-.4-.14-.07-.29-.14-.43-.21-.07-.03-.14-.07-.21-.1-.43-.19-.85-.36-1.27-.51-.1-.04-.2-.07-.31-.1-.1-.04-.21-.07-.31-.1-.17-.06-.35-.12-.52-.17-.34-.1-.69-.19-1.02-.27-.06-.02-.13-.02-.19-.04-.07-.02-.14-.03-.21-.04-.19-.04-.39-.08-.57-.12-.31-.05-.61-.1-.92-.13-.07,0-.14,0-.21-.02-.06,0-.13,0-.19-.01-.16-.01-.32-.03-.48-.04-.29-.01-.57-.02-.85-.01-.1,0-.19.01-.29.02-.06,0-.13,0-.19.01-.11,0-.23,0-.34.02-.27.02-.54.06-.8.1-.12.02-.25.05-.37.07-.06.01-.12.02-.18.04-.08.02-.16.03-.24.05-.26.06-.52.13-.78.22-.13.04-.26.1-.4.14-.06.02-.12.04-.18.06-.06.02-.13.04-.19.07-.26.11-.52.23-.78.36-.15.08-.29.15-.43.24l-23.41,13.6c.45-.26.92-.48,1.4-.67.06-.02.12-.04.18-.06.46-.17.93-.3,1.41-.41.06-.01.12-.02.18-.04.49-.1.99-.16,1.51-.19.06,0,.13,0,.19-.01.52-.02,1.06-.01,1.61.03.06,0,.13,0,.19.01.56.05,1.12.14,1.7.26.07.01.14.03.21.04.57.13,1.15.29,1.74.49.1.03.21.07.31.1.59.2,1.19.44,1.79.72.14.06.29.14.43.21.6.29,1.21.59,1.83.95.69.4,1.36.83,2.03,1.29.03.02.07.04.1.07.6.42,1.2.87,1.78,1.34.16.13.33.26.49.4.53.44,1.06.9,1.57,1.38.06.06.13.12.2.18.57.54,1.13,1.1,1.68,1.68.14.15.28.31.43.46.34.37.68.76,1.01,1.14.35.4.69.81,1.03,1.23.33.41.66.82.97,1.24.13.17.25.33.38.5.47.64.92,1.29,1.36,1.96.07.11.14.22.21.32.45.69.88,1.39,1.29,2.1.04.08.09.16.13.23.42.73.82,1.46,1.2,2.21.04.08.08.16.12.24.37.74.72,1.49,1.06,2.25.04.09.08.18.12.27.32.75.63,1.5.91,2.26.03.09.07.19.1.28.28.76.53,1.52.76,2.28.03.09.06.18.08.27.23.76.43,1.53.61,2.29.02.1.05.19.07.29.17.75.31,1.49.44,2.23.02.13.04.27.07.4.11.74.2,1.48.27,2.22.01.16.02.32.03.48.05.72.09,1.44.09,2.14,0,.63-.04,1.22-.09,1.81-.02.34-.05.67-.09.99-.05.4-.1.78-.17,1.16-.05.31-.11.61-.17.91-.08.36-.18.72-.27,1.06-.08.28-.16.56-.25.82-.11.33-.25.65-.38.97-.1.24-.2.49-.31.73-.15.31-.32.59-.48.88-.12.21-.24.43-.37.62-.19.28-.4.54-.6.8-.13.17-.26.35-.4.51-.24.27-.51.51-.77.74-.13.12-.25.25-.38.36-.41.33-.83.63-1.28.89h0s0,0,0,0l23.41-13.6c.45-.26.88-.56,1.28-.89.13-.11.25-.24.38-.36.26-.24.52-.47.76-.74.14-.16.27-.34.4-.51.21-.26.41-.51.6-.79.13-.2.25-.42.37-.63Z"/>
              <path class="cls-5" d="m98.08,28.53c11.4,6.58,20.61,22.54,20.57,35.64s-9.3,18.38-20.7,11.8c-11.4-6.58-20.61-22.54-20.57-35.63.04-13.1,9.3-18.39,20.7-11.81Z"/>
            </g>
            <g class="cls-76">
              <path class="cls-7" d="m115.15,74.13c.17-.28.33-.57.48-.87.11-.23.21-.48.32-.73.13-.31.26-.63.38-.96.09-.27.17-.54.25-.82.1-.35.19-.69.27-1.06.07-.3.12-.6.17-.91.06-.38.12-.76.17-1.16.04-.32.07-.65.09-.99.02-.21.05-.4.06-.61.02-.39.03-.8.03-1.2,0-.34,0-.68-.02-1.02-.01-.37-.04-.75-.07-1.13-.01-.16-.02-.32-.03-.48,0-.06,0-.13-.01-.19-.05-.53-.11-1.06-.18-1.59-.02-.15-.05-.29-.07-.44-.02-.13-.04-.27-.07-.4-.03-.2-.06-.4-.1-.6-.08-.45-.17-.89-.27-1.34-.02-.09-.05-.19-.07-.28-.02-.1-.05-.19-.07-.29-.06-.24-.11-.49-.17-.73-.11-.42-.22-.84-.34-1.26-.03-.1-.06-.2-.09-.3-.03-.09-.06-.18-.08-.27-.07-.22-.13-.44-.2-.65-.13-.4-.27-.81-.41-1.21-.05-.14-.1-.28-.16-.42-.03-.09-.07-.18-.1-.28-.06-.17-.12-.33-.19-.5-.15-.4-.31-.8-.48-1.19-.08-.19-.16-.38-.25-.57-.04-.09-.08-.18-.12-.27-.05-.12-.1-.24-.15-.35-.18-.4-.36-.8-.55-1.19-.11-.24-.23-.47-.35-.7-.04-.08-.08-.16-.12-.24-.04-.08-.08-.16-.12-.24-.21-.4-.42-.8-.64-1.2-.14-.26-.29-.51-.44-.77-.04-.08-.09-.16-.13-.23-.04-.07-.08-.13-.11-.2-.24-.41-.49-.82-.74-1.23-.14-.23-.29-.45-.43-.67-.07-.11-.14-.22-.21-.32-.06-.1-.12-.2-.19-.29-.31-.46-.62-.91-.94-1.36-.08-.1-.16-.21-.23-.31-.12-.17-.25-.33-.37-.5-.18-.25-.36-.5-.55-.74-.14-.18-.28-.34-.42-.51-.34-.42-.68-.83-1.02-1.23-.15-.18-.29-.37-.45-.54-.18-.21-.37-.4-.56-.6-.14-.15-.28-.31-.43-.46-.55-.58-1.11-1.14-1.68-1.68-.06-.06-.13-.12-.2-.18-.52-.48-1.04-.93-1.57-1.37-.16-.13-.32-.27-.49-.4-.15-.12-.3-.25-.45-.37-.44-.34-.88-.66-1.33-.98-.03-.02-.07-.04-.1-.07-.39-.27-.79-.54-1.19-.79-.28-.17-.56-.34-.84-.5-.34-.19-.67-.38-1-.55-.28-.15-.55-.27-.83-.4-.14-.07-.29-.14-.43-.21-.07-.03-.14-.07-.21-.1-.43-.19-.85-.36-1.27-.51-.1-.04-.2-.07-.31-.1-.1-.04-.21-.07-.31-.1-.17-.06-.35-.12-.52-.17-.34-.1-.69-.19-1.02-.27-.06-.02-.13-.02-.19-.04-.07-.02-.14-.03-.21-.04-.19-.04-.39-.08-.57-.12-.31-.05-.61-.1-.92-.13-.07,0-.14,0-.21-.02-.06,0-.13,0-.19-.01-.16-.01-.32-.03-.48-.04-.29-.01-.57-.02-.85-.01-.1,0-.19.01-.29.02-.06,0-.13,0-.19.01-.11,0-.23,0-.34.02-.27.02-.54.06-.8.1-.12.02-.25.05-.37.07-.06.01-.12.02-.18.04-.08.02-.16.03-.24.05-.26.06-.52.13-.78.22-.13.04-.26.1-.4.14-.06.02-.12.04-.18.06-.06.02-.13.04-.19.07-.26.11-.52.23-.78.36-.15.08-.29.15-.43.24l-23.41,13.6c.45-.26.92-.48,1.4-.67.06-.02.12-.04.18-.06.46-.17.93-.3,1.41-.41.06-.01.12-.02.18-.04.49-.1.99-.16,1.51-.19.06,0,.13,0,.19-.01.52-.02,1.06-.01,1.61.03.06,0,.13,0,.19.01.56.05,1.12.14,1.7.26.07.01.14.03.21.04.57.13,1.15.29,1.74.49.1.03.21.07.31.1.59.2,1.19.44,1.79.72.14.06.29.14.43.21.6.29,1.21.59,1.83.95.69.4,1.36.83,2.03,1.29.03.02.07.04.1.07.6.42,1.2.87,1.78,1.34.16.13.33.26.49.4.53.44,1.06.9,1.57,1.38.06.06.13.12.2.18.57.54,1.13,1.1,1.68,1.68.14.15.28.31.43.46.34.37.68.76,1.01,1.14.35.4.69.81,1.03,1.23.33.41.66.82.97,1.24.13.17.25.33.38.5.47.64.92,1.29,1.36,1.96.07.11.14.22.21.32.45.69.88,1.39,1.29,2.1.04.08.09.16.13.23.42.73.82,1.46,1.2,2.21.04.08.08.16.12.24.37.74.72,1.49,1.06,2.25.04.09.08.18.12.27.32.75.63,1.5.91,2.26.03.09.07.19.1.28.28.76.53,1.52.76,2.28.03.09.06.18.08.27.23.76.43,1.53.61,2.29.02.1.05.19.07.29.17.75.31,1.49.44,2.23.02.13.04.27.07.4.11.74.2,1.48.27,2.22.01.16.02.32.03.48.05.72.09,1.44.09,2.14,0,.63-.04,1.22-.09,1.81-.02.34-.05.67-.09.99-.05.4-.1.78-.17,1.16-.05.31-.11.61-.17.91-.08.36-.18.72-.27,1.06-.08.28-.16.56-.25.82-.11.33-.25.65-.38.97-.1.24-.2.49-.31.73-.15.31-.32.59-.48.88-.12.21-.24.43-.37.62-.19.28-.4.54-.6.8-.13.17-.26.35-.4.51-.24.27-.51.51-.77.74-.13.12-.25.25-.38.36-.41.33-.83.63-1.28.89h0s0,0,0,0l23.41-13.6c.45-.26.88-.56,1.28-.89.13-.11.25-.24.38-.36.26-.24.52-.47.76-.74.14-.16.27-.34.4-.51.21-.26.41-.51.6-.79.13-.2.25-.42.37-.63Z"/>
              <path class="cls-6" d="m73.39,42.79c11.4,6.58,20.61,22.54,20.57,35.64s-9.3,18.38-20.7,11.8c-11.4-6.58-20.61-22.54-20.57-35.63.04-13.1,9.3-18.39,20.7-11.81Z"/>
            </g>
            <g class="cls-76">
              <path class="cls-3" d="m90.45,88.39c.17-.28.33-.57.48-.87.11-.23.21-.48.32-.73.13-.31.26-.63.38-.96.09-.27.17-.54.25-.82.1-.35.19-.69.27-1.06.07-.3.12-.6.17-.91.06-.38.12-.76.17-1.16.04-.32.07-.65.09-.99.02-.21.05-.4.06-.61.02-.39.03-.8.03-1.2,0-.34,0-.68-.02-1.02-.01-.37-.04-.75-.07-1.13-.01-.16-.02-.32-.03-.48,0-.06,0-.13-.01-.19-.05-.53-.11-1.06-.18-1.59-.02-.15-.05-.29-.07-.44-.02-.13-.04-.27-.07-.4-.03-.2-.06-.4-.1-.6-.08-.45-.17-.89-.27-1.34-.02-.09-.05-.19-.07-.28-.02-.1-.05-.19-.07-.29-.06-.24-.11-.49-.17-.73-.11-.42-.22-.84-.34-1.26-.03-.1-.06-.2-.09-.3-.03-.09-.06-.18-.08-.27-.07-.22-.13-.44-.2-.65-.13-.4-.27-.81-.41-1.21-.05-.14-.1-.28-.16-.42-.03-.09-.07-.18-.1-.28-.06-.17-.12-.33-.19-.5-.15-.4-.31-.8-.48-1.19-.08-.19-.16-.38-.25-.57-.04-.09-.08-.18-.12-.27-.05-.12-.1-.24-.15-.35-.18-.4-.36-.8-.55-1.19-.11-.24-.23-.47-.35-.7-.04-.08-.08-.16-.12-.24-.04-.08-.08-.16-.12-.24-.21-.4-.42-.8-.64-1.2-.14-.26-.29-.51-.44-.77-.04-.08-.09-.16-.13-.23-.04-.07-.08-.13-.11-.2-.24-.41-.49-.82-.74-1.23-.14-.23-.29-.45-.43-.67-.07-.11-.14-.22-.21-.32-.06-.1-.12-.2-.19-.29-.31-.46-.62-.91-.94-1.36-.08-.1-.16-.21-.23-.31-.12-.17-.25-.33-.37-.5-.18-.25-.36-.5-.55-.74-.14-.18-.28-.34-.42-.51-.34-.42-.68-.83-1.02-1.23-.15-.18-.29-.37-.45-.54-.18-.21-.37-.4-.56-.6-.14-.15-.28-.31-.43-.46-.55-.58-1.11-1.14-1.68-1.68-.06-.06-.13-.12-.2-.18-.52-.48-1.04-.93-1.57-1.37-.16-.13-.32-.27-.49-.4-.15-.12-.3-.25-.45-.37-.44-.34-.88-.66-1.33-.98-.03-.02-.07-.04-.1-.07-.39-.27-.79-.54-1.19-.79-.28-.17-.56-.34-.84-.5-.34-.19-.67-.38-1-.55-.28-.15-.55-.27-.83-.4-.14-.07-.29-.14-.43-.21-.07-.03-.14-.07-.21-.1-.43-.19-.85-.36-1.27-.51-.1-.04-.2-.07-.31-.1-.1-.04-.21-.07-.31-.1-.17-.06-.35-.12-.52-.17-.34-.1-.69-.19-1.02-.27-.06-.02-.13-.02-.19-.04-.07-.02-.14-.03-.21-.04-.19-.04-.39-.08-.57-.12-.31-.05-.61-.1-.92-.13-.07,0-.14,0-.21-.02-.06,0-.13,0-.19-.01-.16-.01-.32-.03-.48-.04-.29-.01-.57-.02-.85-.01-.1,0-.19.01-.29.02-.06,0-.13,0-.19.01-.11,0-.23,0-.34.02-.27.02-.54.06-.8.1-.12.02-.25.05-.37.07-.06.01-.12.02-.18.04-.08.02-.16.03-.24.05-.26.06-.52.13-.78.22-.13.04-.26.1-.4.14-.06.02-.12.04-.18.06-.06.02-.13.04-.19.07-.26.11-.52.23-.78.36-.15.08-.29.15-.43.24l-23.41,13.6c.45-.26.92-.48,1.4-.67.06-.02.12-.04.18-.06.46-.17.93-.3,1.41-.41.06-.01.12-.02.18-.04.49-.1.99-.16,1.51-.19.06,0,.13,0,.19-.01.52-.02,1.06-.01,1.61.03.06,0,.13,0,.19.01.56.05,1.12.14,1.7.26.07.01.14.03.21.04.57.13,1.15.29,1.74.49.1.03.21.07.31.1.59.2,1.19.44,1.79.72.14.06.29.14.43.21.6.29,1.21.59,1.83.95.69.4,1.36.83,2.03,1.29.03.02.07.04.1.07.6.42,1.2.87,1.78,1.34.16.13.33.26.49.4.53.44,1.06.9,1.57,1.38.06.06.13.12.2.18.57.54,1.13,1.1,1.68,1.68.14.15.28.31.43.46.34.37.68.76,1.01,1.14.35.4.69.81,1.03,1.23.33.41.66.82.97,1.24.13.17.25.33.38.5.47.64.92,1.29,1.36,1.96.07.11.14.22.21.32.45.69.88,1.39,1.29,2.1.04.08.09.16.13.23.42.73.82,1.46,1.2,2.21.04.08.08.16.12.24.37.74.72,1.49,1.06,2.25.04.09.08.18.12.27.32.75.63,1.5.91,2.26.03.09.07.19.1.28.28.76.53,1.52.76,2.28.03.09.06.18.08.27.23.76.43,1.53.61,2.29.02.1.05.19.07.29.17.75.31,1.49.44,2.23.02.13.04.27.07.4.11.74.2,1.48.27,2.22.01.16.02.32.03.48.05.72.09,1.44.09,2.14,0,.63-.04,1.22-.09,1.81-.02.34-.05.67-.09.99-.05.4-.1.78-.17,1.16-.05.31-.11.61-.17.91-.08.36-.18.72-.27,1.06-.08.28-.16.56-.25.82-.11.33-.25.65-.38.97-.1.24-.2.49-.31.73-.15.31-.32.59-.48.88-.12.21-.24.43-.37.62-.19.28-.4.54-.6.8-.13.17-.26.35-.4.51-.24.27-.51.51-.77.74-.13.12-.25.25-.38.36-.41.33-.83.63-1.28.89h0s0,0,0,0l23.41-13.6c.45-.26.88-.56,1.28-.89.13-.11.25-.24.38-.36.26-.24.52-.47.76-.74.14-.16.27-.34.4-.51.21-.26.41-.51.6-.79.13-.2.25-.42.37-.63Z"/>
              <path class="cls-8" d="m48.69,57.04c11.4,6.58,20.61,22.54,20.57,35.64s-9.3,18.38-20.7,11.8c-11.4-6.58-20.61-22.54-20.57-35.63.04-13.1,9.3-18.39,20.7-11.81Z"/>
            </g>
            <g class="cls-76">
              <path class="cls-9" d="m65.75,102.65c.17-.28.33-.57.48-.87.11-.23.21-.48.32-.73.13-.31.26-.63.38-.96.09-.27.17-.54.25-.82.1-.35.19-.69.27-1.06.07-.3.12-.6.17-.91.06-.38.12-.76.17-1.16.04-.32.07-.65.09-.99.02-.21.05-.4.06-.61.02-.39.03-.8.03-1.2,0-.34,0-.68-.02-1.02-.01-.37-.04-.75-.07-1.13-.01-.16-.02-.32-.03-.48,0-.06,0-.13-.01-.19-.05-.53-.11-1.06-.18-1.59-.02-.15-.05-.29-.07-.44-.02-.13-.04-.27-.07-.4-.03-.2-.06-.4-.1-.6-.08-.45-.17-.89-.27-1.34-.02-.09-.05-.19-.07-.28-.02-.1-.05-.19-.07-.29-.06-.24-.11-.49-.17-.73-.11-.42-.22-.84-.34-1.26-.03-.1-.06-.2-.09-.3-.03-.09-.06-.18-.08-.27-.07-.22-.13-.44-.2-.65-.13-.4-.27-.81-.41-1.21-.05-.14-.1-.28-.16-.42-.03-.09-.07-.18-.1-.28-.06-.17-.12-.33-.19-.5-.15-.4-.31-.8-.48-1.19-.08-.19-.16-.38-.25-.57-.04-.09-.08-.18-.12-.27-.05-.12-.1-.24-.15-.35-.18-.4-.36-.8-.55-1.19-.11-.24-.23-.47-.35-.7-.04-.08-.08-.16-.12-.24-.04-.08-.08-.16-.12-.24-.21-.4-.42-.8-.64-1.2-.14-.26-.29-.51-.44-.77-.04-.08-.09-.16-.13-.23-.04-.07-.08-.13-.11-.2-.24-.41-.49-.82-.74-1.23-.14-.23-.29-.45-.43-.67-.07-.11-.14-.22-.21-.32-.06-.1-.12-.2-.19-.29-.31-.46-.62-.91-.94-1.36-.08-.1-.16-.21-.23-.31-.12-.17-.25-.33-.37-.5-.18-.25-.36-.5-.55-.74-.14-.18-.28-.34-.42-.51-.34-.42-.68-.83-1.02-1.23-.15-.18-.29-.37-.45-.54-.18-.21-.37-.4-.56-.6-.14-.15-.28-.31-.43-.46-.55-.58-1.11-1.14-1.68-1.68-.06-.06-.13-.12-.2-.18-.52-.48-1.04-.93-1.57-1.37-.16-.13-.32-.27-.49-.4-.15-.12-.3-.25-.45-.37-.44-.34-.88-.66-1.33-.98-.03-.02-.07-.04-.1-.07-.39-.27-.79-.54-1.19-.79-.28-.17-.56-.34-.84-.5-.34-.19-.67-.38-1-.55-.28-.15-.55-.27-.83-.4-.14-.07-.29-.14-.43-.21-.07-.03-.14-.07-.21-.1-.43-.19-.85-.36-1.27-.51-.1-.04-.2-.07-.31-.1-.1-.04-.21-.07-.31-.1-.17-.06-.35-.12-.52-.17-.34-.1-.69-.19-1.02-.27-.06-.02-.13-.02-.19-.04-.07-.02-.14-.03-.21-.04-.19-.04-.39-.08-.57-.12-.31-.05-.61-.1-.92-.13-.07,0-.14,0-.21-.02-.06,0-.13,0-.19-.01-.16-.01-.32-.03-.48-.04-.29-.01-.57-.02-.85-.01-.1,0-.19.01-.29.02-.06,0-.13,0-.19.01-.11,0-.23,0-.34.02-.27.02-.54.06-.8.1-.12.02-.25.05-.37.07-.06.01-.12.02-.18.04-.08.02-.16.03-.24.05-.26.06-.52.13-.78.22-.13.04-.26.1-.4.14-.06.02-.12.04-.18.06-.06.02-.13.04-.19.07-.26.11-.52.23-.78.36-.15.08-.29.15-.43.24l-23.41,13.6c.45-.26.92-.48,1.4-.67.06-.02.12-.04.18-.06.46-.17.93-.3,1.41-.41.06-.01.12-.02.18-.04.49-.1.99-.16,1.51-.19.06,0,.13,0,.19-.01.52-.02,1.06-.01,1.61.03.06,0,.13,0,.19.01.56.05,1.12.14,1.7.26.07.01.14.03.21.04.57.13,1.15.29,1.74.49.1.03.21.07.31.1.59.2,1.19.44,1.79.72.14.06.29.14.43.21.6.29,1.21.59,1.83.95.69.4,1.36.83,2.03,1.29.03.02.07.04.1.07.6.42,1.2.87,1.78,1.34.16.13.33.26.49.4.53.44,1.06.9,1.57,1.38.06.06.13.12.2.18.57.54,1.13,1.1,1.68,1.68.14.15.28.31.43.46.34.37.68.76,1.01,1.14.35.4.69.81,1.03,1.23.33.41.66.82.97,1.24.13.17.25.33.38.5.47.64.92,1.29,1.36,1.96.07.11.14.22.21.32.45.69.88,1.39,1.29,2.1.04.08.09.16.13.23.42.73.82,1.46,1.2,2.21.04.08.08.16.12.24.37.74.72,1.49,1.06,2.25.04.09.08.18.12.27.32.75.63,1.5.91,2.26.03.09.07.19.1.28.28.76.53,1.52.76,2.28.03.09.06.18.08.27.23.76.43,1.53.61,2.29.02.1.05.19.07.29.17.75.31,1.49.44,2.23.02.13.04.27.07.4.11.74.2,1.48.27,2.22.01.16.02.32.03.48.05.72.09,1.44.09,2.14,0,.63-.04,1.22-.09,1.81-.02.34-.05.67-.09.99-.05.4-.1.78-.17,1.16-.05.31-.11.61-.17.91-.08.36-.18.72-.27,1.06-.08.28-.16.56-.25.82-.11.33-.25.65-.38.97-.1.24-.2.49-.31.73-.15.31-.32.59-.48.88-.12.21-.24.43-.37.62-.19.28-.4.54-.6.8-.13.17-.26.35-.4.51-.24.27-.51.51-.77.74-.13.12-.25.25-.38.36-.41.33-.83.63-1.28.89h0s0,0,0,0l23.41-13.6c.45-.26.88-.56,1.28-.89.13-.11.25-.24.38-.36.26-.24.52-.47.76-.74.14-.16.27-.34.4-.51.21-.26.41-.51.6-.79.13-.2.25-.42.37-.63Z"/>
              <path class="cls-70" d="m23.99,71.3c11.4,6.58,20.61,22.54,20.57,35.64-.04,13.09-9.3,18.38-20.7,11.8-11.4-6.58-20.61-22.54-20.57-35.63.04-13.1,9.3-18.39,20.7-11.81Z"/>
              <path class="cls-10" d="m23.95,87.4c3.66,2.12,6.62,7.24,6.61,11.45s-2.99,5.91-6.65,3.79c-3.66-2.12-6.62-7.24-6.61-11.45s2.99-5.91,6.65-3.79Z"/>
            </g>
          </g>
          <g>
            <polygon class="cls-49" points="34.32 90.83 42.34 99.68 42.93 113.86 35.93 113.11 34.32 90.83"/>
            <g>
              <g class="cls-76">
                <path class="cls-11" d="m17.36,92.59c.08-.27.19-.52.32-.74.02-.03.04-.07.06-.1.1-.16.21-.31.33-.44.05-.06.1-.14.16-.19.18-.18.37-.33.58-.45l-2.81,1.63c-.21.12-.4.28-.58.45-.06.06-.1.13-.16.19-.09.11-.19.21-.27.33-.02.04-.04.08-.06.11-.02.03-.04.07-.06.1-.03.06-.07.12-.1.18-.05.11-.1.22-.14.33-.03.07-.05.15-.08.23,0,.01,0,.02-.01.03,0,.01,0,.03-.01.04-.03.09-.05.19-.08.29-.02.09-.04.19-.06.29-.02.09-.03.18-.04.28,0,.02,0,.05,0,.07l-.06,5.38,2.81-1.63.06-5.38c.04-.35.11-.67.2-.97,0-.01,0-.02.01-.03Z"/>
                <g class="cls-76">
                  <g class="cls-74">
                    <g class="cls-76">
                      <path class="cls-51" d="m8.54,79.47l2.81-1.63c.08-.05.16-.09.24-.13l-2.81,1.63c-.08.04-.16.09-.24.13"/>
                    </g>
                  </g>
                </g>
                <polygon class="cls-12" points="19.4 85.47 22.21 83.84 22.19 90.69 19.38 92.32 19.4 85.47"/>
                <polygon class="cls-40" points="8.78 79.34 11.59 77.7 22.21 83.84 19.4 85.47 8.78 79.34"/>
                <path class="cls-69" d="m19.4,85.47l-.02,6.85c-2.63-1.13-4.72.07-5.04,2.91l-.06,5.38-10.03-5.79c-.32-1.66-.48-3.3-.48-4.88.01-5.28,1.93-8.96,5-10.6l10.62,6.13Z"/>
              </g>
              <g class="cls-76">
                <polygon class="cls-71" points="20.9 86.33 23.71 84.7 34.32 90.83 31.51 92.46 20.9 86.33"/>
                <path class="cls-23" d="m39.23,106.42c0-.26-.02-.52-.04-.79,0-.13-.02-.27-.03-.4,0-.05,0-.1-.01-.15,0-.08-.01-.16-.02-.24-.03-.27-.06-.53-.09-.8-.03-.27-.07-.54-.12-.81,0-.03-.01-.06-.01-.09,0-.03-.01-.06-.02-.09-.04-.22-.07-.44-.11-.65-.05-.28-.11-.56-.17-.85-.03-.14-.06-.28-.1-.42-.01-.06-.03-.12-.04-.17-.02-.09-.04-.18-.06-.27-.07-.29-.15-.58-.23-.87-.08-.29-.16-.58-.25-.86,0,0,0,0,0,0,0,0,0,0,0,0-.09-.28-.18-.57-.27-.85-.09-.28-.19-.55-.29-.83-.04-.11-.08-.21-.12-.32-.02-.05-.04-.1-.06-.16-.04-.11-.08-.22-.12-.32-.1-.26-.21-.52-.32-.78-.11-.26-.22-.52-.33-.78-.01-.02-.02-.05-.03-.07-.01-.02-.02-.05-.03-.07-.1-.22-.19-.43-.29-.65-.13-.28-.26-.56-.4-.83-.06-.13-.13-.25-.2-.38-.04-.08-.08-.15-.12-.23-.06-.11-.11-.23-.17-.34-.25-.46-.5-.92-.77-1.38-.03-.05-.06-.1-.09-.15l-2.81,1.63c.36.61.7,1.23,1.03,1.86.04.08.08.15.12.23.31.61.61,1.23.89,1.86.01.02.02.05.03.07.29.65.55,1.3.8,1.96.02.05.04.1.06.15.25.66.48,1.33.68,1.99,0,0,0,0,0,0h0c.2.67.38,1.33.54,2,.01.06.03.12.04.18.15.64.28,1.28.38,1.92,0,.03.01.06.02.09.1.65.18,1.3.24,1.94,0,.05,0,.1.01.15.05.65.08,1.29.08,1.93,0,.78-.05,1.52-.13,2.22,0,.03,0,.05,0,.08-.08.71-.21,1.38-.37,2.02l2.81-1.63c.03-.11.06-.23.08-.35.06-.26.11-.52.16-.79.04-.26.08-.52.12-.78,0-.03,0-.06,0-.09,0-.03,0-.05,0-.08.02-.2.05-.4.06-.61.02-.26.04-.52.05-.78.01-.26.02-.52.02-.79,0-.02,0-.03,0-.05,0-.25,0-.49-.01-.74Z"/>
                <path class="cls-68" d="m31.51,92.46c3.05,5.18,4.94,11.05,4.92,16.33,0,1.59-.18,3.03-.5,4.32l-10.03-5.79.02-5.41c-.35-3.23-2.42-6.82-5.04-8.73l.02-6.85,10.61,6.13Z"/>
              </g>
            </g>
            <g class="cls-76">
              <path class="cls-19" d="m17.91,86.29s0-.02,0-.03c0,0,0-.02,0-.03,0,0,0-.02,0-.03,0-.01,0-.02,0-.03,0-.01,0-.02,0-.03,0-.01,0-.02,0-.03,0-.01,0-.02,0-.03,0-.01,0-.02,0-.03,0-.01,0-.02,0-.03,0-.01,0-.02-.01-.03,0-.01,0-.02-.01-.03,0,0,0-.02-.01-.03,0,0,0-.02-.01-.03,0,0,0-.02-.01-.03s0-.02-.01-.03c0-.01-.01-.02-.02-.03,0-.01-.01-.02-.02-.03,0-.02-.02-.03-.03-.05,0,0,0,0,0,0,0,0,0,0,0,0-.02-.03-.03-.05-.05-.08-.01-.02-.03-.04-.04-.06,0-.01-.02-.02-.03-.04,0,0-.02-.02-.02-.03,0,0-.02-.02-.02-.03,0,0-.02-.02-.02-.03,0,0,0,0,0,0,0,0,0,0,0,0,0,0-.01-.01-.02-.02,0,0-.02-.02-.03-.03,0,0-.02-.02-.03-.03,0,0-.02-.02-.03-.02,0,0-.02-.02-.03-.02,0,0-.02-.01-.03-.02,0,0-.02-.01-.03-.02,0,0-.02-.01-.03-.02,0,0-.02-.01-.03-.02,0,0,0,0,0,0,0,0-.01,0-.02-.01,0,0-.02,0-.03-.01,0,0-.02,0-.03-.01,0,0-.02,0-.03-.01,0,0-.02,0-.03,0,0,0-.02,0-.03,0,0,0-.02,0-.03,0,0,0-.02,0-.03,0,0,0-.02,0-.03,0,0,0-.01,0-.02,0,0,0,0,0,0,0,0,0,0,0,0,0,0,0-.02,0-.03,0-.01,0-.02,0-.03,0-.01,0-.02,0-.04,0-.01,0-.03,0-.04.01-.02,0-.03.01-.05.02l-.94.54c.06-.03.12-.05.2-.04,0,0,0,0,0,0,.07,0,.16.03.24.08.08.05.17.11.24.19,0,0,0,0,0,0,.07.08.14.17.2.26,0,0,0,0,0,0,.06.1.1.2.13.3,0,0,0,0,0,0,.03.1.05.2.05.3,0,.1-.02.18-.05.25,0,0,0,0,0,0-.03.07-.08.12-.13.15l.94-.54s.08-.06.11-.11c0-.01.02-.03.02-.04,0,0,0,0,0,0,0,0,0,0,0,0,0-.01.01-.02.01-.03,0-.01,0-.02.01-.03,0-.01,0-.02,0-.03,0,0,0-.02,0-.03,0,0,0-.02,0-.03,0,0,0-.02,0-.03,0,0,0-.02,0-.03,0,0,0-.02,0-.03h0s0-.02,0-.03Z"/>
              <path class="cls-43" d="m16.36,85.8c.34.2.62.67.62,1.06s-.28.55-.62.35-.62-.68-.62-1.07.28-.54.62-.34Z"/>
            </g>
            <g class="cls-76">
              <path class="cls-21" d="m10.05,83.59s0-.02,0-.03c0,0,0-.02,0-.03,0,0,0-.02,0-.03,0-.01,0-.02,0-.03,0-.01,0-.02,0-.03,0-.01,0-.02,0-.03,0-.01,0-.02,0-.03,0-.01,0-.02,0-.03,0-.01,0-.02,0-.03,0-.01,0-.02-.01-.03,0-.01,0-.02-.01-.03,0,0,0-.02-.01-.03,0,0,0-.02-.01-.03,0,0,0-.02-.01-.03s0-.02-.01-.03c0-.01-.01-.02-.02-.03,0-.01-.01-.02-.02-.03,0-.02-.02-.03-.03-.05,0,0,0,0,0,0,0,0,0,0,0,0-.02-.03-.03-.05-.05-.08-.01-.02-.03-.04-.04-.06,0-.01-.02-.02-.03-.04,0,0-.02-.02-.02-.03,0,0-.02-.02-.02-.03,0,0-.02-.02-.02-.03,0,0,0,0,0,0,0,0,0,0,0,0,0,0-.01-.01-.02-.02,0,0-.02-.02-.03-.03,0,0-.02-.02-.03-.03,0,0-.02-.02-.03-.02,0,0-.02-.02-.03-.02,0,0-.02-.01-.03-.02,0,0-.02-.01-.03-.02,0,0-.02-.01-.03-.02,0,0-.02-.01-.03-.02,0,0,0,0,0,0,0,0-.01,0-.02-.01,0,0-.02,0-.03-.01,0,0-.02,0-.03-.01,0,0-.02,0-.03-.01,0,0-.02,0-.03,0,0,0-.02,0-.03,0,0,0-.02,0-.03,0,0,0-.02,0-.03,0,0,0-.02,0-.03,0,0,0-.01,0-.02,0,0,0,0,0,0,0,0,0,0,0,0,0,0,0-.02,0-.03,0-.01,0-.02,0-.03,0-.01,0-.02,0-.04,0-.01,0-.03,0-.04.01-.02,0-.03.01-.05.02l-.94.54c.06-.03.12-.05.2-.04,0,0,0,0,0,0,.07,0,.16.03.24.08.08.05.17.11.24.19,0,0,0,0,0,0,.07.08.14.17.2.26,0,0,0,0,0,0,.06.1.1.2.13.3,0,0,0,0,0,0,.03.1.05.2.05.3,0,.1-.02.18-.05.25,0,0,0,0,0,0-.03.07-.08.12-.13.15l.94-.54s.08-.06.11-.11c0-.01.02-.03.02-.04,0,0,0,0,0,0,0,0,0,0,0,0,0-.01.01-.02.01-.03,0-.01,0-.02.01-.03,0-.01,0-.02,0-.03,0,0,0-.02,0-.03,0,0,0-.02,0-.03,0,0,0-.02,0-.03,0,0,0-.02,0-.03,0,0,0-.02,0-.03h0s0-.02,0-.03Z"/>
              <path class="cls-44" d="m8.5,83.1c.34.2.62.67.62,1.06s-.28.55-.62.35-.62-.68-.62-1.07.28-.54.62-.34Z"/>
            </g>
            <g class="cls-76">
              <path class="cls-22" d="m10.05,95.32s0-.02,0-.03c0,0,0-.02,0-.03,0,0,0-.02,0-.03,0-.01,0-.02,0-.03,0-.01,0-.02,0-.03,0-.01,0-.02,0-.03,0-.01,0-.02,0-.03,0-.01,0-.02,0-.03,0-.01,0-.02,0-.03,0-.01,0-.02-.01-.03,0-.01,0-.02-.01-.03,0,0,0-.02-.01-.03,0,0,0-.02-.01-.03,0,0,0-.02-.01-.03s0-.02-.01-.03c0-.01-.01-.02-.02-.03,0-.01-.01-.02-.02-.03,0-.02-.02-.03-.03-.05,0,0,0,0,0,0,0,0,0,0,0,0-.02-.03-.03-.05-.05-.08-.01-.02-.03-.04-.04-.06,0-.01-.02-.02-.03-.04,0,0-.02-.02-.02-.03,0,0-.02-.02-.02-.03,0,0-.02-.02-.02-.03,0,0,0,0,0,0,0,0,0,0,0,0,0,0-.01-.01-.02-.02,0,0-.02-.02-.03-.03,0,0-.02-.02-.03-.03,0,0-.02-.02-.03-.02,0,0-.02-.02-.03-.02,0,0-.02-.01-.03-.02,0,0-.02-.01-.03-.02,0,0-.02-.01-.03-.02,0,0-.02-.01-.03-.02,0,0,0,0,0,0,0,0-.01,0-.02-.01,0,0-.02,0-.03-.01,0,0-.02,0-.03-.01,0,0-.02,0-.03-.01,0,0-.02,0-.03,0,0,0-.02,0-.03,0,0,0-.02,0-.03,0,0,0-.02,0-.03,0,0,0-.02,0-.03,0,0,0-.01,0-.02,0,0,0,0,0,0,0,0,0,0,0,0,0,0,0-.02,0-.03,0-.01,0-.02,0-.03,0-.01,0-.02,0-.04,0-.01,0-.03,0-.04.01-.02,0-.03.01-.05.02l-.94.54c.06-.03.12-.05.2-.04,0,0,0,0,0,0,.07,0,.16.03.24.08.08.05.17.11.24.19,0,0,0,0,0,0,.07.08.14.17.2.26,0,0,0,0,0,0,.06.1.1.2.13.3,0,0,0,0,0,0,.03.1.05.2.05.3,0,.1-.02.18-.05.25,0,0,0,0,0,0-.03.07-.08.12-.13.15l.94-.54s.08-.06.11-.11c0-.01.02-.03.02-.04,0,0,0,0,0,0,0,0,0,0,0,0,0-.01.01-.02.01-.03,0-.01,0-.02.01-.03,0-.01,0-.02,0-.03,0,0,0-.02,0-.03,0,0,0-.02,0-.03,0,0,0-.02,0-.03,0,0,0-.02,0-.03,0,0,0-.02,0-.03h0s0-.02,0-.03Z"/>
              <path class="cls-46" d="m8.5,94.83c.34.2.62.67.62,1.06s-.28.55-.62.35-.62-.68-.62-1.07.28-.54.62-.34Z"/>
            </g>
            <g class="cls-76">
              <path class="cls-20" d="m31.33,95.32s0-.02,0-.03c0,0,0-.02,0-.03,0,0,0-.02,0-.03,0-.01,0-.02,0-.03,0-.01,0-.02,0-.03,0-.01,0-.02,0-.03,0-.01,0-.02,0-.03,0-.01,0-.02,0-.03,0-.01,0-.02,0-.03,0-.01,0-.02-.01-.03,0-.01,0-.02-.01-.03,0,0,0-.02-.01-.03,0,0,0-.02-.01-.03,0,0,0-.02-.01-.03s0-.02-.01-.03c0-.01-.01-.02-.02-.03,0-.01-.01-.02-.02-.03,0-.02-.02-.03-.03-.05,0,0,0,0,0,0,0,0,0,0,0,0-.02-.03-.03-.05-.05-.08-.01-.02-.03-.04-.04-.06,0-.01-.02-.02-.03-.04,0,0-.02-.02-.02-.03,0,0-.02-.02-.02-.03,0,0-.02-.02-.02-.03,0,0,0,0,0,0,0,0,0,0,0,0,0,0-.01-.01-.02-.02,0,0-.02-.02-.03-.03,0,0-.02-.02-.03-.03,0,0-.02-.02-.03-.02,0,0-.02-.02-.03-.02,0,0-.02-.01-.03-.02,0,0-.02-.01-.03-.02,0,0-.02-.01-.03-.02,0,0-.02-.01-.03-.02,0,0,0,0,0,0,0,0-.01,0-.02-.01,0,0-.02,0-.03-.01,0,0-.02,0-.03-.01,0,0-.02,0-.03-.01,0,0-.02,0-.03,0,0,0-.02,0-.03,0,0,0-.02,0-.03,0,0,0-.02,0-.03,0,0,0-.02,0-.03,0,0,0-.01,0-.02,0,0,0,0,0,0,0,0,0,0,0,0,0,0,0-.02,0-.03,0-.01,0-.02,0-.03,0-.01,0-.02,0-.04,0-.01,0-.03,0-.04.01-.02,0-.03.01-.05.02l-.94.54c.06-.03.12-.05.2-.04,0,0,0,0,0,0,.07,0,.16.03.24.08.08.05.17.11.24.19,0,0,0,0,0,0,.07.08.14.17.2.26,0,0,0,0,0,0,.06.1.1.2.13.3,0,0,0,0,0,0,.03.1.05.2.05.3,0,.1-.02.18-.05.25,0,0,0,0,0,0-.03.07-.08.12-.13.15l.94-.54s.08-.06.11-.11c0-.01.02-.03.02-.04,0,0,0,0,0,0,0,0,0,0,0,0,0-.01.01-.02.01-.03,0-.01,0-.02.01-.03,0-.01,0-.02,0-.03,0,0,0-.02,0-.03,0,0,0-.02,0-.03,0,0,0-.02,0-.03,0,0,0-.02,0-.03,0,0,0-.02,0-.03h0s0-.02,0-.03Z"/>
              <path class="cls-45" d="m29.78,94.83c.34.2.62.67.62,1.06s-.28.55-.62.35-.62-.68-.62-1.07.28-.54.62-.34Z"/>
            </g>
            <g class="cls-76">
              <path class="cls-25" d="m23.86,90.33s0-.02,0-.03c0,0,0-.02,0-.03,0,0,0-.02,0-.03,0-.01,0-.02,0-.03,0-.01,0-.02,0-.03,0-.01,0-.02,0-.03,0-.01,0-.02,0-.03,0-.01,0-.02,0-.03,0-.01,0-.02,0-.03,0-.01,0-.02-.01-.03,0-.01,0-.02-.01-.03,0,0,0-.02-.01-.03,0,0,0-.02-.01-.03,0,0,0-.02-.01-.03s0-.02-.01-.03c0-.01-.01-.02-.02-.03,0-.01-.01-.02-.02-.03,0-.02-.02-.03-.03-.05,0,0,0,0,0,0,0,0,0,0,0,0-.02-.03-.03-.05-.05-.08-.01-.02-.03-.04-.04-.06,0-.01-.02-.02-.03-.04,0,0-.02-.02-.02-.03,0,0-.02-.02-.02-.03,0,0-.02-.02-.02-.03,0,0,0,0,0,0,0,0,0,0,0,0,0,0-.01-.01-.02-.02,0,0-.02-.02-.03-.03,0,0-.02-.02-.03-.03,0,0-.02-.02-.03-.02,0,0-.02-.02-.03-.02,0,0-.02-.01-.03-.02,0,0-.02-.01-.03-.02,0,0-.02-.01-.03-.02,0,0-.02-.01-.03-.02,0,0,0,0,0,0,0,0-.01,0-.02-.01,0,0-.02,0-.03-.01,0,0-.02,0-.03-.01,0,0-.02,0-.03-.01,0,0-.02,0-.03,0,0,0-.02,0-.03,0,0,0-.02,0-.03,0,0,0-.02,0-.03,0,0,0-.02,0-.03,0,0,0-.01,0-.02,0,0,0,0,0,0,0,0,0,0,0,0,0,0,0-.02,0-.03,0-.01,0-.02,0-.03,0-.01,0-.02,0-.04,0-.01,0-.03,0-.04.01-.02,0-.03.01-.05.02l-.94.54c.06-.03.12-.05.2-.04,0,0,0,0,0,0,.07,0,.16.03.24.08.08.05.17.11.24.19,0,0,0,0,0,0,.07.08.14.17.2.26,0,0,0,0,0,0,.06.1.1.2.13.3,0,0,0,0,0,0,.03.1.05.2.05.3,0,.1-.02.18-.05.25,0,0,0,0,0,0-.03.07-.08.12-.13.15l.94-.54s.08-.06.11-.11c0-.01.02-.03.02-.04,0,0,0,0,0,0,0,0,0,0,0,0,0-.01.01-.02.01-.03,0-.01,0-.02.01-.03,0-.01,0-.02,0-.03,0,0,0-.02,0-.03,0,0,0-.02,0-.03,0,0,0-.02,0-.03,0,0,0-.02,0-.03,0,0,0-.02,0-.03h0s0-.02,0-.03Z"/>
              <path class="cls-42" d="m22.31,89.84c.34.2.62.67.62,1.06s-.28.55-.62.35-.62-.68-.62-1.07.28-.54.62-.34Z"/>
            </g>
            <g class="cls-76">
              <path class="cls-26" d="m31.33,107.05s0-.02,0-.03c0,0,0-.02,0-.03,0,0,0-.02,0-.03,0-.01,0-.02,0-.03,0-.01,0-.02,0-.03,0-.01,0-.02,0-.03,0-.01,0-.02,0-.03,0-.01,0-.02,0-.03,0-.01,0-.02,0-.03,0-.01,0-.02-.01-.03,0-.01,0-.02-.01-.03,0,0,0-.02-.01-.03,0,0,0-.02-.01-.03,0,0,0-.02-.01-.03s0-.02-.01-.03c0-.01-.01-.02-.02-.03,0-.01-.01-.02-.02-.03,0-.02-.02-.03-.03-.05,0,0,0,0,0,0,0,0,0,0,0,0-.02-.03-.03-.05-.05-.08-.01-.02-.03-.04-.04-.06,0-.01-.02-.02-.03-.04,0,0-.02-.02-.02-.03,0,0-.02-.02-.02-.03,0,0-.02-.02-.02-.03,0,0,0,0,0,0,0,0,0,0,0,0,0,0-.01-.01-.02-.02,0,0-.02-.02-.03-.03,0,0-.02-.02-.03-.03,0,0-.02-.02-.03-.02,0,0-.02-.02-.03-.02,0,0-.02-.01-.03-.02,0,0-.02-.01-.03-.02,0,0-.02-.01-.03-.02,0,0-.02-.01-.03-.02,0,0,0,0,0,0,0,0-.01,0-.02-.01,0,0-.02,0-.03-.01,0,0-.02,0-.03-.01,0,0-.02,0-.03-.01,0,0-.02,0-.03,0,0,0-.02,0-.03,0,0,0-.02,0-.03,0,0,0-.02,0-.03,0,0,0-.02,0-.03,0,0,0-.01,0-.02,0,0,0,0,0,0,0,0,0,0,0,0,0,0,0-.02,0-.03,0-.01,0-.02,0-.03,0-.01,0-.02,0-.04,0-.01,0-.03,0-.04.01-.02,0-.03.01-.05.02l-.94.54c.06-.03.12-.05.2-.04,0,0,0,0,0,0,.07,0,.16.03.24.08.08.05.17.11.24.19,0,0,0,0,0,0,.07.08.14.17.2.26,0,0,0,0,0,0,.06.1.1.2.13.3,0,0,0,0,0,0,.03.1.05.2.05.3,0,.1-.02.18-.05.25,0,0,0,0,0,0-.03.07-.08.12-.13.15l.94-.54s.08-.06.11-.11c0-.01.02-.03.02-.04,0,0,0,0,0,0,0,0,0,0,0,0,0-.01.01-.02.01-.03,0-.01,0-.02.01-.03,0-.01,0-.02,0-.03,0,0,0-.02,0-.03,0,0,0-.02,0-.03,0,0,0-.02,0-.03,0,0,0-.02,0-.03,0,0,0-.02,0-.03h0s0-.02,0-.03Z"/>
              <path class="cls-47" d="m29.78,106.57c.34.2.62.67.62,1.06s-.28.55-.62.35-.62-.68-.62-1.07.28-.54.62-.34Z"/>
            </g>
          </g>
          <g>
            <g class="cls-76">
              <path class="cls-28" d="m56.25,82.21c.04-.13.09-.25.16-.37,0,0,0,0,0,0,.07-.12.15-.23.24-.32,0,0,0,0,.01-.01.09-.1.19-.18.29-.24.1-.06.2-.09.29-.1,0,0,0,0,0,0,.09,0,.17,0,.24.05l-4.68-2.72s0,0,0,0c-.01,0-.03-.01-.04-.02-.01,0-.03-.01-.04-.01-.01,0-.03,0-.04,0-.01,0-.03,0-.05,0-.02,0-.03,0-.05,0,0,0-.01,0-.02,0,0,0,0,0,0,0-.01,0-.02,0-.03,0-.02,0-.04,0-.07.01-.03,0-.06.02-.09.03-.03.01-.07.03-.11.05-.09.05-.18.12-.26.2-.01.01-.02.03-.04.04,0,0,0,0-.01.01-.01.01-.02.02-.03.04-.02.02-.04.05-.06.08-.02.02-.04.05-.05.07-.02.02-.03.04-.04.07-.01.02-.03.04-.04.07,0,0,0,0,0,0,0,0,0,0,0,0-.01.02-.02.04-.03.06-.01.02-.02.04-.03.07-.01.02-.02.04-.03.07,0,.02-.02.05-.03.07,0,.02-.02.05-.03.07,0,.01,0,.03-.01.04,0,0,0,0,0,0,0,.01,0,.02,0,.03,0,.03-.02.06-.02.09,0,.04-.01.07-.02.11,0,.05,0,.1,0,.15,0,.24.09.41.22.49l4.68,2.72c-.14-.08-.22-.25-.22-.49,0-.12.02-.25.06-.38,0,0,0,0,0,0Z"/>
              <path class="cls-59" d="m56.96,81.26c.42-.24.76-.04.77.45s-.34,1.07-.76,1.32-.77.06-.77-.43.35-1.09.77-1.33Z"/>
            </g>
            <g class="cls-76">
              <path class="cls-27" d="m59.85,81.24l-.94-.54c.05.03.08.09.08.18,0,.09-.03.19-.08.28,0,0,0,0,0,0-.05.09-.12.17-.2.21-.08.05-.15.05-.21.02l.94.54s0,0,0,0c0,0,0,0,.01,0s0,0,.01,0c0,0,.01,0,.02,0,0,0,.01,0,.02,0,0,0,.01,0,.02,0,0,0,.01,0,.02,0,0,0,.02,0,.03,0,.01,0,.02,0,.03-.01.01,0,.03-.01.04-.02.03-.02.07-.05.1-.08.01-.01.02-.02.03-.03,0,0,.02-.02.02-.03,0,0,.01-.02.02-.03,0,0,.01-.02.02-.02,0,0,0-.02.01-.02,0,0,0,0,0,0,0,0,0,0,0,0,0,0,0-.01.01-.02,0,0,0-.02.01-.02,0,0,0-.02.01-.02,0,0,0-.02.01-.03,0,0,0-.02,0-.03,0,0,0-.02,0-.03,0-.01,0-.02,0-.03,0-.01,0-.03,0-.04,0-.02,0-.04,0-.06,0-.09-.03-.15-.08-.18Z"/>
              <path class="cls-24" d="m59.66,83.19l-.94-.54c.05.03.08.09.08.18,0,.09-.03.19-.08.28,0,0,0,0,0,0-.05.09-.12.17-.2.21-.08.05-.15.05-.21.02l.94.54s0,0,0,0c0,0,0,0,.01,0s0,0,.01,0c0,0,.01,0,.02,0,0,0,.01,0,.02,0,0,0,.01,0,.02,0,0,0,.01,0,.02,0,0,0,.02,0,.03,0,.01,0,.02,0,.03-.01.01,0,.03-.01.04-.02.03-.02.07-.05.1-.08.01-.01.02-.02.03-.03,0,0,.02-.02.02-.03,0,0,.01-.02.02-.03,0,0,.01-.02.02-.02,0,0,0-.02.01-.02,0,0,0,0,0,0,0,0,0,0,0,0,0,0,0-.01.01-.02,0,0,0-.02.01-.02,0,0,0-.02.01-.02,0,0,0-.02.01-.03,0,0,0-.02,0-.03,0,0,0-.02,0-.03,0-.01,0-.02,0-.03,0-.01,0-.03,0-.04,0-.02,0-.04,0-.06,0-.09-.03-.15-.08-.18Z"/>
              <path class="cls-34" d="m57.83,84.24l-.94-.54c.05.03.08.09.08.18,0,.09-.03.19-.08.28,0,0,0,0,0,0-.05.09-.12.17-.2.21-.08.05-.15.05-.21.02l.94.54s0,0,0,0c0,0,0,0,.01,0s0,0,.01,0c0,0,.01,0,.02,0,0,0,.01,0,.02,0,0,0,.01,0,.02,0,0,0,.01,0,.02,0,0,0,.02,0,.03,0,.01,0,.02,0,.03-.01.01,0,.03-.01.04-.02.03-.02.07-.05.1-.08.01-.01.02-.02.03-.03,0,0,.02-.02.02-.03,0,0,.01-.02.02-.03,0,0,.01-.02.02-.02,0,0,0-.02.01-.02,0,0,0,0,0,0,0,0,0,0,0,0,0,0,0-.01.01-.02,0,0,0-.02.01-.02,0,0,0-.02.01-.02,0,0,0-.02.01-.03,0,0,0-.02,0-.03,0,0,0-.02,0-.03,0-.01,0-.02,0-.03,0-.01,0-.03,0-.04,0-.02,0-.04,0-.06,0-.09-.03-.15-.08-.18Z"/>
              <path class="cls-32" d="m57.63,82.53l-.94-.54c.05.03.08.09.08.18,0,.09-.03.19-.08.28,0,0,0,0,0,0-.05.09-.12.17-.2.21-.08.05-.15.05-.21.02l.94.54s0,0,0,0c0,0,0,0,.01,0s0,0,.01,0c0,0,.01,0,.02,0,0,0,.01,0,.02,0,0,0,.01,0,.02,0,0,0,.01,0,.02,0,0,0,.02,0,.03,0,.01,0,.02,0,.03-.01.01,0,.03-.01.04-.02.03-.02.07-.05.1-.08.01-.01.02-.02.03-.03,0,0,.02-.02.02-.03,0,0,.01-.02.02-.03,0,0,.01-.02.02-.02,0,0,0-.02.01-.02,0,0,0,0,0,0,0,0,0,0,0,0,0,0,0-.01.01-.02,0,0,0-.02.01-.02,0,0,0-.02.01-.02,0,0,0-.02.01-.03,0,0,0-.02,0-.03,0,0,0-.02,0-.03,0-.01,0-.02,0-.03,0-.01,0-.03,0-.04,0-.02,0-.04,0-.06,0-.09-.03-.15-.08-.18Z"/>
              <path class="cls-33" d="m59.02,82.07l-.94-.54c.14.08.23.25.23.49,0,.12-.02.25-.06.38,0,0,0,0,0,0-.04.13-.09.25-.16.37,0,0,0,0,0,0-.07.12-.15.23-.24.32,0,0,0,0-.01.01-.09.1-.19.18-.29.24-.11.06-.21.1-.3.1,0,0,0,0,0,0-.09,0-.17,0-.24-.05h0,0,0l.72.42.22.13s.03.01.04.02c.01,0,.03.01.04.01.01,0,.03,0,.04,0,.02,0,.03,0,.05,0,.02,0,.03,0,.05,0,0,0,.01,0,.02,0,0,0,0,0,0,0,.01,0,.02,0,.03,0,.02,0,.04,0,.07-.01.03,0,.06-.02.09-.03.04-.01.07-.03.11-.05.09-.05.18-.12.26-.2.01-.01.02-.03.04-.04,0,0,0,0,.01-.01.01-.01.02-.02.04-.04.02-.02.04-.05.06-.08.02-.02.04-.05.05-.07.02-.02.03-.04.04-.07.01-.02.03-.04.04-.07,0,0,0,0,0,0,0,0,0,0,0,0,.01-.02.02-.04.03-.06.01-.02.02-.04.03-.07.01-.02.02-.04.03-.07,0-.02.02-.05.03-.07,0-.02.02-.05.03-.07,0-.01,0-.03.01-.04,0,0,0,0,0,0,0-.01,0-.02,0-.03,0-.03.02-.06.02-.09,0-.04.01-.07.02-.11,0-.05,0-.1,0-.15,0-.24-.09-.41-.23-.49Z"/>
              <path class="cls-36" d="m56.69,83.58c.02-.13.05-.26.09-.4,0-.01,0-.02.01-.04.04-.14.1-.29.16-.43,0,0,0,0,0,0,.06-.14.14-.29.22-.43,0,0,0,0,0-.01.08-.13.16-.27.26-.39,0-.01.02-.02.02-.03.08-.11.17-.22.27-.32.02-.02.04-.04.06-.06.04-.04.08-.08.12-.12.18-.17.36-.32.56-.43.12-.07.23-.12.34-.16.02,0,.04-.02.06-.02.1-.03.2-.06.3-.07,0,0,.02,0,.03,0,.1,0,.2,0,.29.01,0,0,0,0,.01,0,.09.02.18.05.26.1l-.94-.54s0,0,0,0c-.03-.02-.06-.03-.09-.04-.03-.01-.06-.02-.1-.03-.02,0-.04-.01-.07-.02,0,0,0,0-.01,0,0,0-.01,0-.02,0-.04,0-.07-.01-.11-.01-.04,0-.08,0-.12,0-.01,0-.03,0-.04,0,0,0-.02,0-.03,0-.02,0-.04,0-.07,0-.05,0-.11.02-.16.03-.02,0-.05.02-.07.02-.02,0-.04.01-.06.02-.03,0-.05.02-.08.03-.08.03-.17.08-.26.13-.2.11-.38.26-.56.43-.02.02-.04.03-.06.04-.02.02-.04.05-.07.07-.02.02-.04.04-.06.07-.02.03-.05.05-.07.07-.05.06-.1.12-.15.18-.02.02-.03.04-.05.06,0,.01-.02.02-.03.04-.02.02-.03.04-.05.06-.04.05-.07.1-.11.16-.03.05-.06.1-.09.15,0,0,0,0,0,.01,0,0,0,0,0,.01-.02.04-.05.08-.07.13-.03.05-.05.1-.08.15-.02.05-.04.1-.07.14h0s0,.01,0,.01c-.02.05-.05.11-.07.16-.02.06-.04.11-.06.17,0,.03-.02.06-.03.09,0,.01,0,.02-.01.04,0,.02-.01.04-.02.06-.02.07-.04.14-.05.21,0,.04-.01.09-.02.13,0,.02,0,.04-.01.07,0,.02,0,.04-.01.06-.02.12-.02.24-.02.36,0,.43.12.77.31.99.06.07.14.13.22.18l.94.54c-.33-.19-.53-.59-.53-1.17,0-.14.01-.28.03-.42,0-.02,0-.04.01-.07Z"/>
              <path class="cls-15" d="m58.46,80.91c1.01-.58,1.83-.12,1.83,1.04s-.81,2.57-1.82,3.15-1.83.12-1.83-1.04.81-2.57,1.82-3.15Zm0,2.98c.42-.24.77-.85.77-1.33s-.35-.69-.77-.44-.77.85-.77,1.33.34.69.77.44m-.86,1.03c.15-.09.29-.32.29-.5,0-.19-.14-.25-.29-.16-.16.09-.29.31-.29.5,0,.18.13.26.29.16m1.83-1.06c.16-.09.29-.32.29-.5,0-.19-.13-.26-.29-.16s-.29.31-.29.5c0,.18.13.26.29.16m.19-1.95c.16-.09.29-.31.29-.5,0-.18-.13-.25-.29-.16s-.29.31-.29.49c0,.19.13.26.29.16m-2.51,1.12c0,.19.13.26.29.16.15-.09.29-.31.29-.5,0-.18-.14-.24-.29-.16-.16.09-.29.31-.29.49"/>
            </g>
          </g>
          <g>
            <g class="cls-76">
              <path class="cls-37" d="m104.49,57.45c.04-.13.09-.25.16-.37,0,0,0,0,0,0,.07-.12.15-.23.24-.32,0,0,0,0,.01-.01.09-.1.19-.18.29-.24.1-.06.2-.09.29-.1,0,0,0,0,0,0,.09,0,.17,0,.24.05l-4.68-2.72s0,0,0,0c-.01,0-.03-.01-.04-.02-.01,0-.03-.01-.04-.01-.01,0-.03,0-.04,0-.01,0-.03,0-.05,0-.02,0-.03,0-.05,0,0,0-.01,0-.02,0,0,0,0,0,0,0-.01,0-.02,0-.03,0-.02,0-.04,0-.07.01-.03,0-.06.02-.09.03-.03.01-.07.03-.11.05-.09.05-.18.12-.26.2-.01.01-.02.03-.04.04,0,0,0,0-.01.01-.01.01-.02.02-.03.04-.02.02-.04.05-.06.08-.02.02-.04.05-.05.07-.02.02-.03.04-.04.07-.01.02-.03.04-.04.07,0,0,0,0,0,0,0,0,0,0,0,0-.01.02-.02.04-.03.06-.01.02-.02.04-.03.07-.01.02-.02.04-.03.07,0,.02-.02.05-.03.07,0,.02-.02.05-.03.07,0,.01,0,.03-.01.04,0,0,0,0,0,0,0,.01,0,.02,0,.03,0,.03-.02.06-.02.09,0,.04-.01.07-.02.11,0,.05,0,.1,0,.15,0,.24.09.41.22.49l4.68,2.72c-.14-.08-.22-.25-.22-.49,0-.12.02-.25.06-.38,0,0,0,0,0,0Z"/>
              <path class="cls-59" d="m105.2,56.5c.42-.24.76-.04.77.45s-.34,1.07-.76,1.32-.77.06-.77-.43.35-1.09.77-1.33Z"/>
            </g>
            <g class="cls-76">
              <path class="cls-35" d="m108.09,56.48l-.94-.54c.05.03.08.09.08.18,0,.09-.03.19-.08.28,0,0,0,0,0,0-.05.09-.12.17-.2.21-.08.05-.15.05-.21.02l.94.54s0,0,0,0c0,0,0,0,.01,0s0,0,.01,0c0,0,.01,0,.02,0,0,0,.01,0,.02,0,0,0,.01,0,.02,0,0,0,.01,0,.02,0,0,0,.02,0,.03,0,.01,0,.02,0,.03-.01.01,0,.03-.01.04-.02.03-.02.07-.05.1-.08.01-.01.02-.02.03-.03,0,0,.02-.02.02-.03,0,0,.01-.02.02-.03,0,0,.01-.02.02-.02,0,0,0-.02.01-.02,0,0,0,0,0,0,0,0,0,0,0,0,0,0,0-.01.01-.02,0,0,0-.02.01-.02,0,0,0-.02.01-.02,0,0,0-.02.01-.03,0,0,0-.02,0-.03,0,0,0-.02,0-.03,0-.01,0-.02,0-.03,0-.01,0-.03,0-.04,0-.02,0-.04,0-.06,0-.09-.03-.15-.08-.18Z"/>
              <path class="cls-30" d="m107.9,58.44l-.94-.54c.05.03.08.09.08.18,0,.09-.03.19-.08.28,0,0,0,0,0,0-.05.09-.12.17-.2.21-.08.05-.15.05-.21.02l.94.54s0,0,0,0c0,0,0,0,.01,0s0,0,.01,0c0,0,.01,0,.02,0,0,0,.01,0,.02,0,0,0,.01,0,.02,0,0,0,.01,0,.02,0,0,0,.02,0,.03,0,.01,0,.02,0,.03-.01.01,0,.03-.01.04-.02.03-.02.07-.05.1-.08.01-.01.02-.02.03-.03,0,0,.02-.02.02-.03,0,0,.01-.02.02-.03,0,0,.01-.02.02-.02,0,0,0-.02.01-.02,0,0,0,0,0,0,0,0,0,0,0,0,0,0,0-.01.01-.02,0,0,0-.02.01-.02,0,0,0-.02.01-.02,0,0,0-.02.01-.03,0,0,0-.02,0-.03,0,0,0-.02,0-.03,0-.01,0-.02,0-.03,0-.01,0-.03,0-.04,0-.02,0-.04,0-.06,0-.09-.03-.15-.08-.18Z"/>
              <path class="cls-38" d="m106.07,59.49l-.94-.54c.05.03.08.09.08.18,0,.09-.03.19-.08.28,0,0,0,0,0,0-.05.09-.12.17-.2.21-.08.05-.15.05-.21.02l.94.54s0,0,0,0c0,0,0,0,.01,0s0,0,.01,0c0,0,.01,0,.02,0,0,0,.01,0,.02,0,0,0,.01,0,.02,0,0,0,.01,0,.02,0,0,0,.02,0,.03,0,.01,0,.02,0,.03-.01.01,0,.03-.01.04-.02.03-.02.07-.05.1-.08.01-.01.02-.02.03-.03,0,0,.02-.02.02-.03,0,0,.01-.02.02-.03,0,0,.01-.02.02-.02,0,0,0-.02.01-.02,0,0,0,0,0,0,0,0,0,0,0,0,0,0,0-.01.01-.02,0,0,0-.02.01-.02,0,0,0-.02.01-.02,0,0,0-.02.01-.03,0,0,0-.02,0-.03,0,0,0-.02,0-.03,0-.01,0-.02,0-.03,0-.01,0-.03,0-.04,0-.02,0-.04,0-.06,0-.09-.03-.15-.08-.18Z"/>
              <path class="cls-39" d="m105.87,57.78l-.94-.54c.05.03.08.09.08.18,0,.09-.03.19-.08.28,0,0,0,0,0,0-.05.09-.12.17-.2.21-.08.05-.15.05-.21.02l.94.54s0,0,0,0c0,0,0,0,.01,0s0,0,.01,0c0,0,.01,0,.02,0,0,0,.01,0,.02,0,0,0,.01,0,.02,0,0,0,.01,0,.02,0,0,0,.02,0,.03,0,.01,0,.02,0,.03-.01.01,0,.03-.01.04-.02.03-.02.07-.05.1-.08.01-.01.02-.02.03-.03,0,0,.02-.02.02-.03,0,0,.01-.02.02-.03,0,0,.01-.02.02-.02,0,0,0-.02.01-.02,0,0,0,0,0,0,0,0,0,0,0,0,0,0,0-.01.01-.02,0,0,0-.02.01-.02,0,0,0-.02.01-.02,0,0,0-.02.01-.03,0,0,0-.02,0-.03,0,0,0-.02,0-.03,0-.01,0-.02,0-.03,0-.01,0-.03,0-.04,0-.02,0-.04,0-.06,0-.09-.03-.15-.08-.18Z"/>
              <path class="cls-31" d="m107.26,57.31l-.94-.54c.14.08.23.25.23.49,0,.12-.02.25-.06.38,0,0,0,0,0,0-.04.13-.09.25-.16.37,0,0,0,0,0,0-.07.12-.15.23-.24.32,0,0,0,0-.01.01-.09.1-.19.18-.29.24-.11.06-.21.1-.3.1,0,0,0,0,0,0-.09,0-.17,0-.24-.05h0,0,0l.72.42.22.13s.03.01.04.02c.01,0,.03.01.04.01.01,0,.03,0,.04,0,.02,0,.03,0,.05,0,.02,0,.03,0,.05,0,0,0,.01,0,.02,0,0,0,0,0,0,0,.01,0,.02,0,.03,0,.02,0,.04,0,.07-.01.03,0,.06-.02.09-.03.04-.01.07-.03.11-.05.09-.05.18-.12.26-.2.01-.01.02-.03.04-.04,0,0,0,0,.01-.01.01-.01.02-.02.04-.04.02-.02.04-.05.06-.08.02-.02.04-.05.05-.07.02-.02.03-.04.04-.07.01-.02.03-.04.04-.07,0,0,0,0,0,0,0,0,0,0,0,0,.01-.02.02-.04.03-.06.01-.02.02-.04.03-.07.01-.02.02-.04.03-.07,0-.02.02-.05.03-.07,0-.02.02-.05.03-.07,0-.01,0-.03.01-.04,0,0,0,0,0,0,0-.01,0-.02,0-.03,0-.03.02-.06.02-.09,0-.04.01-.07.02-.11,0-.05,0-.1,0-.15,0-.24-.09-.41-.23-.49Z"/>
              <path class="cls-29" d="m104.94,58.82c.02-.13.05-.26.09-.4,0-.01,0-.02.01-.04.04-.14.1-.29.16-.43,0,0,0,0,0,0,.06-.14.14-.29.22-.43,0,0,0,0,0-.01.08-.13.16-.27.26-.39,0-.01.02-.02.02-.03.08-.11.17-.22.27-.32.02-.02.04-.04.06-.06.04-.04.08-.08.12-.12.18-.17.36-.32.56-.43.12-.07.23-.12.34-.16.02,0,.04-.02.06-.02.1-.03.2-.06.3-.07,0,0,.02,0,.03,0,.1,0,.2,0,.29.01,0,0,0,0,.01,0,.09.02.18.05.26.1l-.94-.54s0,0,0,0c-.03-.02-.06-.03-.09-.04-.03-.01-.06-.02-.1-.03-.02,0-.04-.01-.07-.02,0,0,0,0-.01,0,0,0-.01,0-.02,0-.04,0-.07-.01-.11-.01-.04,0-.08,0-.12,0-.01,0-.03,0-.04,0,0,0-.02,0-.03,0-.02,0-.04,0-.07,0-.05,0-.11.02-.16.03-.02,0-.05.02-.07.02-.02,0-.04.01-.06.02-.03,0-.05.02-.08.03-.08.03-.17.08-.26.13-.2.11-.38.26-.56.43-.02.02-.04.03-.06.04-.02.02-.04.05-.07.07-.02.02-.04.04-.06.07-.02.03-.05.05-.07.07-.05.06-.1.12-.15.18-.02.02-.03.04-.05.06,0,.01-.02.02-.03.04-.02.02-.03.04-.05.06-.04.05-.07.1-.11.16-.03.05-.06.1-.09.15,0,0,0,0,0,.01,0,0,0,0,0,.01-.02.04-.05.08-.07.13-.03.05-.05.1-.08.15-.02.05-.04.1-.07.14h0s0,.01,0,.01c-.02.05-.05.11-.07.16-.02.06-.04.11-.06.17,0,.03-.02.06-.03.09,0,.01,0,.02-.01.04,0,.02-.01.04-.02.06-.02.07-.04.14-.05.21,0,.04-.01.09-.02.13,0,.02,0,.04-.01.07,0,.02,0,.04-.01.06-.02.12-.02.24-.02.36,0,.43.12.77.31.99.06.07.14.13.22.18l.94.54c-.33-.19-.53-.59-.53-1.17,0-.14.01-.28.03-.42,0-.02,0-.04.01-.07Z"/>
              <path class="cls-16" d="m106.71,56.16c1.01-.58,1.83-.12,1.83,1.04s-.81,2.57-1.82,3.15-1.83.12-1.83-1.04.81-2.57,1.82-3.15Zm0,2.98c.42-.24.77-.85.77-1.33s-.35-.69-.77-.44-.77.85-.77,1.33.34.69.77.44m-.86,1.03c.15-.09.29-.32.29-.5,0-.19-.14-.25-.29-.16-.16.09-.29.31-.29.5,0,.18.13.26.29.16m1.83-1.06c.16-.09.29-.32.29-.5,0-.19-.13-.26-.29-.16s-.29.31-.29.5c0,.18.13.26.29.16m.19-1.95c.16-.09.29-.31.29-.5,0-.18-.13-.25-.29-.16s-.29.31-.29.49c0,.19.13.26.29.16m-2.51,1.12c0,.19.13.26.29.16.15-.09.29-.31.29-.5,0-.18-.14-.24-.29-.16-.16.09-.29.31-.29.49"/>
            </g>
          </g>
        </g>
      </g>
      <g class="cls-75">
        <path class="cls-48" d="m56.6,79.75c-.17.37-.39.79-.65,1.25s-.54.95-.84,1.44-.6,1-.9,1.43-.59.88-.85,1.25l-2.34-1.16c.27-.37.56-.77.87-1.22s.61-.9.89-1.36.55-.91.79-1.36.44-.83.59-1.18l2.44.91Zm4-1.85v4.12c.01.39-.03.79-.13,1.17-.09.28-.24.53-.45.73-.24.2-.51.36-.81.46-.33.11-.73.23-1.21.34l-1.18.29-.83-2.59.9-.22c.25-.06.49-.15.72-.27.15-.14.22-.35.2-.55v-3.11l-5.59.74.6-7.74c.62-.08,1.28-.18,2-.29s1.4-.22,2.11-.34l2.14-.39c.71-.13,1.4-.27,2.06-.41s1.29-.27,1.87-.41,1.11-.26,1.57-.39l.55,2.63-2.08.48c-.76.17-1.57.34-2.41.5l-2.6.49-2.58.45-.17,2.55,2.54-.34v-2.21l2.78-.31v2.15l4.93-.65v2.47l-4.93.65Zm2.72-.22c.17.19.39.45.65.78s.54.69.83,1.08.58.79.86,1.2.54.81.77,1.18l-2.36,1.82c-.18-.35-.4-.74-.65-1.15s-.51-.83-.79-1.24l-.81-1.14c-.27-.36-.51-.66-.73-.91l2.23-1.62Z"/>
        <path class="cls-48" d="m82.12,72.86v2.21l-14.64,1.89v-2.18l3.27-.43.25-1-2.39.31v-1.86l2.84-.37.21-.87-3.4.44v-2.19l13.08-1.73v2.2l-6.85.9-.21.88,6-.79-.15,2.85,1.99-.26Zm-13.19,4.66l11.75-1.56v5.63l-11.75,1.56v-5.63Zm2.59,3.09l6.44-.84v-1.29l-6.44.85v1.28Zm2.08-6.65l3.87-.51.07-1-3.72.56-.22.95Z"/>
        <path class="cls-48" d="m88.82,75.51c-.17.37-.39.79-.65,1.25s-.54,1-.84,1.44-.6,1-.9,1.43-.59.88-.85,1.25l-2.34-1.13c.27-.36.56-.76.87-1.21s.61-.9.9-1.36.55-.91.79-1.36.43-.83.58-1.18l2.44.87Zm4-1.85v4.12c0,.4-.05.8-.16,1.18-.08.28-.23.53-.45.73-.23.21-.5.36-.8.45-.33.12-.74.23-1.22.35l-1.17.29-.83-2.6.9-.21c.25-.05.5-.14.72-.28.16-.13.24-.34.21-.54v-3.12l-5.6.74.58-7.74c.62-.08,1.28-.18,2-.29s1.4-.22,2.11-.34l2.14-.39c.72-.13,1.4-.27,2.07-.41s1.28-.27,1.87-.41,1.1-.26,1.56-.39l.55,2.63-2.1.53c-.77.17-1.57.34-2.42.5s-1.71.33-2.59.49l-2.58.45-.18,2.55,2.59-.34v-2.27l2.78-.3v2.15l4.93-.65v2.47l-4.91.65Zm2.71-.22c.18.19.4.45.66.78l.83,1.08c.29.39.58.79.86,1.2s.53.81.76,1.18l-2.36,1.82c-.18-.35-.4-.74-.65-1.16s-.51-.82-.79-1.23-.54-.78-.81-1.14-.51-.66-.72-.91l2.22-1.62Z"/>
      </g>
    </g>
  </g>
</svg>