<?xml version="1.0" encoding="UTF-8"?>
<svg id="_图层_2" data-name="图层 2" xmlns="http://www.w3.org/2000/svg" xmlns:xlink="http://www.w3.org/1999/xlink" viewBox="0 0 150 150">
  <defs>
    <style>
      .cls-1 {
        fill: url(#_未命名的渐变_18);
      }

      .cls-1, .cls-2, .cls-3, .cls-4, .cls-5, .cls-6, .cls-7, .cls-8, .cls-9, .cls-10, .cls-11, .cls-12, .cls-13, .cls-14, .cls-15, .cls-16, .cls-17, .cls-18, .cls-19, .cls-20, .cls-21, .cls-22, .cls-23, .cls-24, .cls-25, .cls-26, .cls-27, .cls-28, .cls-29, .cls-30, .cls-31, .cls-32, .cls-33, .cls-34, .cls-35, .cls-36, .cls-37, .cls-38, .cls-39, .cls-40, .cls-41, .cls-42, .cls-43, .cls-44, .cls-45, .cls-46, .cls-47, .cls-48, .cls-49, .cls-50, .cls-51, .cls-52, .cls-53, .cls-54, .cls-55, .cls-56, .cls-57, .cls-58, .cls-59, .cls-60, .cls-61, .cls-62, .cls-63, .cls-64, .cls-65, .cls-66, .cls-67, .cls-68, .cls-69, .cls-70, .cls-71, .cls-72, .cls-73, .cls-74, .cls-75, .cls-76, .cls-77, .cls-78, .cls-79, .cls-80, .cls-81, .cls-82, .cls-83, .cls-84, .cls-85, .cls-86, .cls-87 {
        stroke-width: 0px;
      }

      .cls-2 {
        fill: url(#_未命名的渐变_15);
      }

      .cls-3 {
        fill: url(#_未命名的渐变_16);
      }

      .cls-4, .cls-88, .cls-89, .cls-90 {
        fill: none;
      }

      .cls-88 {
        stroke: #fff;
        stroke-miterlimit: 10;
        stroke-width: .1px;
      }

      .cls-5 {
        fill: url(#_未命名的渐变_1079);
      }

      .cls-6 {
        fill: url(#_未命名的渐变_1089);
      }

      .cls-7 {
        fill: url(#_未命名的渐变_1067);
      }

      .cls-8 {
        fill: url(#_未命名的渐变_18-2);
      }

      .cls-9 {
        fill: url(#_未命名的渐变_16-2);
      }

      .cls-10 {
        fill: url(#_未命名的渐变_15-2);
      }

      .cls-11 {
        fill: url(#_未命名的渐变_697-2);
      }

      .cls-12 {
        fill: url(#_未命名的渐变_691-4);
      }

      .cls-13 {
        fill: url(#_未命名的渐变_691-3);
      }

      .cls-14 {
        fill: url(#_未命名的渐变_691-2);
      }

      .cls-15 {
        fill: url(#_未命名的渐变_211-3);
      }

      .cls-16 {
        fill: url(#_未命名的渐变_211-2);
      }

      .cls-17 {
        fill: url(#_未命名的渐变_226-3);
      }

      .cls-18 {
        fill: url(#_未命名的渐变_226-4);
      }

      .cls-19 {
        fill: url(#_未命名的渐变_226-5);
      }

      .cls-20 {
        fill: url(#_未命名的渐变_226-2);
      }

      .cls-21 {
        fill: url(#_未命名的渐变_215-3);
      }

      .cls-22 {
        fill: url(#_未命名的渐变_215-2);
      }

      .cls-23 {
        fill: url(#_未命名的渐变_210-2);
      }

      .cls-24 {
        fill: url(#_未命名的渐变_490-3);
      }

      .cls-25 {
        fill: url(#_未命名的渐变_490-4);
      }

      .cls-26 {
        fill: url(#_未命名的渐变_490-2);
      }

      .cls-27 {
        fill: url(#_未命名的渐变_471-3);
      }

      .cls-28 {
        fill: url(#_未命名的渐变_471-2);
      }

      .cls-29 {
        fill: url(#_未命名的渐变_336-2);
      }

      .cls-30 {
        fill: url(#_未命名的渐变_324-2);
      }

      .cls-31 {
        fill: url(#_未命名的渐变_311-4);
      }

      .cls-32 {
        fill: url(#_未命名的渐变_311-5);
      }

      .cls-33 {
        fill: url(#_未命名的渐变_311-8);
      }

      .cls-34 {
        fill: url(#_未命名的渐变_311-3);
      }

      .cls-35 {
        fill: url(#_未命名的渐变_311-6);
      }

      .cls-36 {
        fill: url(#_未命名的渐变_311-7);
      }

      .cls-37 {
        fill: url(#_未命名的渐变_311-2);
      }

      .cls-38 {
        fill: url(#_未命名的渐变_323-3);
      }

      .cls-39 {
        fill: url(#_未命名的渐变_323-2);
      }

      .cls-40 {
        fill: url(#_未命名的渐变_473-2);
      }

      .cls-41 {
        fill: url(#_未命名的渐变_473-3);
      }

      .cls-42 {
        fill: url(#_新建图案);
        opacity: .1;
      }

      .cls-89 {
        stroke: url(#_未命名的渐变_506);
      }

      .cls-89, .cls-90 {
        stroke-linecap: round;
        stroke-linejoin: round;
      }

      .cls-90 {
        stroke: url(#_未命名的渐变_509);
      }

      .cls-91 {
        opacity: .2;
      }

      .cls-43 {
        fill: url(#_未命名的渐变_5);
      }

      .cls-45 {
        fill: url(#_未命名的渐变_691);
      }

      .cls-46 {
        fill: url(#_未命名的渐变_697);
      }

      .cls-47 {
        fill: url(#_未命名的渐变_714);
      }

      .cls-48 {
        fill: url(#_未命名的渐变_710);
      }

      .cls-49 {
        fill: url(#_未命名的渐变_490);
      }

      .cls-50 {
        fill: url(#_未命名的渐变_443);
      }

      .cls-51 {
        fill: url(#_未命名的渐变_471);
      }

      .cls-52 {
        fill: url(#_未命名的渐变_483);
      }

      .cls-53 {
        fill: url(#_未命名的渐变_323);
      }

      .cls-54 {
        fill: url(#_未命名的渐变_324);
      }

      .cls-55 {
        fill: url(#_未命名的渐变_327);
      }

      .cls-56 {
        fill: url(#_未命名的渐变_5-2);
      }

      .cls-57 {
        fill: url(#_未命名的渐变_469);
      }

      .cls-58 {
        fill: url(#_未命名的渐变_437);
      }

      .cls-59 {
        fill: url(#_未命名的渐变_473);
      }

      .cls-60 {
        fill: url(#_未命名的渐变_472);
      }

      .cls-61 {
        fill: url(#_未命名的渐变_474);
      }

      .cls-62 {
        fill: url(#_未命名的渐变_430);
      }

      .cls-63 {
        fill: url(#_未命名的渐变_345);
      }

      .cls-64 {
        fill: url(#_未命名的渐变_332);
      }

      .cls-65 {
        fill: url(#_未命名的渐变_342);
      }

      .cls-66 {
        fill: url(#_未命名的渐变_340);
      }

      .cls-67 {
        fill: url(#_未命名的渐变_348);
      }

      .cls-68 {
        fill: url(#_未命名的渐变_336);
      }

      .cls-69 {
        fill: url(#_未命名的渐变_311);
      }

      .cls-70 {
        fill: url(#_未命名的渐变_210);
      }

      .cls-71 {
        fill: url(#_未命名的渐变_211);
      }

      .cls-72 {
        fill: url(#_未命名的渐变_203);
      }

      .cls-73 {
        fill: url(#_未命名的渐变_257);
      }

      .cls-74 {
        fill: url(#_未命名的渐变_201);
      }

      .cls-75 {
        fill: url(#_未命名的渐变_245);
      }

      .cls-76 {
        fill: url(#_未命名的渐变_215);
      }

      .cls-77 {
        fill: url(#_未命名的渐变_226);
      }

      .cls-78 {
        fill: url(#_未命名的渐变_264);
      }

      .cls-79 {
        fill: url(#_未命名的渐变_274);
      }

      .cls-80 {
        fill: url(#_未命名的渐变_272);
      }

      .cls-81 {
        fill: url(#_未命名的渐变_183);
      }

      .cls-82 {
        fill: url(#_未命名的渐变_293);
      }

      .cls-83 {
        fill: url(#_未命名的渐变_295);
      }

      .cls-84 {
        fill: url(#_未命名的渐变_292);
      }

      .cls-92 {
        opacity: 0;
      }

      .cls-85 {
        fill: #5a7297;
      }

      .cls-86 {
        fill: #13171c;
      }

      .cls-87 {
        fill: #010714;
      }
    </style>
    <pattern id="_新建图案" data-name="新建图案" x="0" y="0" width="18.57" height="32.16" patternTransform="translate(3620.26 437.89)" patternUnits="userSpaceOnUse" viewBox="0 0 18.57 32.16">
      <g>
        <rect class="cls-4" x="0" y="0" width="18.57" height="32.16"/>
        <g>
          <g>
            <polyline class="cls-88" points="18.57 21.44 18.57 32.16 18.57 42.88"/>
            <polyline class="cls-88" points="9.29 26.8 18.57 32.16 27.85 37.51 27.85 37.52"/>
            <polyline class="cls-88" points="9.29 37.52 9.29 37.51 18.57 32.16 27.85 26.8"/>
          </g>
          <polygon class="cls-88" points="27.85 37.52 27.85 26.8 18.57 21.44 9.28 26.8 9.28 37.52 18.57 42.88 27.85 37.52"/>
        </g>
        <g>
          <g>
            <polyline class="cls-88" points="0 21.44 0 32.16 0 42.88"/>
            <polyline class="cls-88" points="-9.28 26.8 0 32.16 9.28 37.51 9.28 37.52"/>
            <polyline class="cls-88" points="-9.28 37.52 -9.28 37.51 0 32.16 9.28 26.8"/>
          </g>
          <polygon class="cls-88" points="9.28 37.52 9.28 26.8 0 21.44 -9.28 26.8 -9.28 37.52 0 42.88 9.28 37.52"/>
        </g>
        <g>
          <g>
            <polyline class="cls-88" points="18.57 10.72 27.85 16.08 37.13 21.43 37.13 21.44"/>
            <polyline class="cls-88" points="18.57 21.44 18.57 21.43 27.85 16.08 37.13 10.72"/>
          </g>
          <polygon class="cls-88" points="37.14 21.44 37.14 10.72 27.85 5.36 18.57 10.72 18.57 21.44 27.85 26.8 37.14 21.44"/>
        </g>
        <g>
          <g>
            <polyline class="cls-88" points="9.28 5.36 9.28 16.08 9.28 26.8"/>
            <polyline class="cls-88" points="0 10.72 9.28 16.08 18.56 21.43 18.56 21.44"/>
            <polyline class="cls-88" points="0 21.44 0 21.43 9.28 16.08 18.56 10.72"/>
          </g>
          <polygon class="cls-88" points="18.57 21.44 18.57 10.72 9.28 5.36 0 10.72 0 21.44 9.28 26.8 18.57 21.44"/>
        </g>
        <g>
          <g>
            <polyline class="cls-88" points="-18.56 10.72 -9.28 16.08 0 21.43 0 21.44"/>
            <polyline class="cls-88" points="-18.56 21.44 -18.56 21.43 -9.28 16.08 0 10.72"/>
          </g>
          <polygon class="cls-88" points="0 21.44 0 10.72 -9.28 5.36 -18.57 10.72 -18.57 21.44 -9.28 26.8 0 21.44"/>
        </g>
        <g>
          <g>
            <polyline class="cls-88" points="18.57 -10.72 18.57 0 18.57 10.72"/>
            <polyline class="cls-88" points="9.29 -5.36 18.57 0 27.85 5.35 27.85 5.36"/>
            <polyline class="cls-88" points="9.29 5.36 9.29 5.35 18.57 0 27.85 -5.36"/>
          </g>
          <polygon class="cls-88" points="27.85 5.36 27.85 -5.36 18.57 -10.72 9.28 -5.36 9.28 5.36 18.57 10.72 27.85 5.36"/>
        </g>
        <g>
          <g>
            <polyline class="cls-88" points="0 -10.72 0 0 0 10.72"/>
            <polyline class="cls-88" points="-9.28 -5.36 0 0 9.28 5.35 9.28 5.36"/>
            <polyline class="cls-88" points="-9.28 5.36 -9.28 5.35 0 0 9.28 -5.36"/>
          </g>
          <polygon class="cls-88" points="9.28 5.36 9.28 -5.36 0 -10.72 -9.28 -5.36 -9.28 5.36 0 10.72 9.28 5.36"/>
        </g>
      </g>
    </pattern>
    <linearGradient id="_未命名的渐变_471" data-name="未命名的渐变 471" x1="88.23" y1="11.97" x2="129.61" y2="11.97" gradientUnits="userSpaceOnUse">
      <stop offset="0" stop-color="#87a9e4"/>
      <stop offset="1" stop-color="#5c7297"/>
    </linearGradient>
    <linearGradient id="_未命名的渐变_473" data-name="未命名的渐变 473" x1="116.43" y1="62.19" x2="142.27" y2="36.34" gradientUnits="userSpaceOnUse">
      <stop offset="0" stop-color="#283140"/>
      <stop offset="1" stop-color="#232b37"/>
    </linearGradient>
    <linearGradient id="_未命名的渐变_490" data-name="未命名的渐变 490" x1="127.09" y1="24.31" x2="128.3" y2="26.18" gradientUnits="userSpaceOnUse">
      <stop offset=".06" stop-color="#485a75"/>
      <stop offset=".76" stop-color="#344052"/>
    </linearGradient>
    <linearGradient id="_未命名的渐变_311" data-name="未命名的渐变 311" x1="118.82" y1="73.57" x2="98.36" y2="1.09" gradientUnits="userSpaceOnUse">
      <stop offset=".05" stop-color="#596b89"/>
      <stop offset="1" stop-color="#5c79a3"/>
    </linearGradient>
    <linearGradient id="_未命名的渐变_490-2" data-name="未命名的渐变 490" x1="88.89" y1="2.39" x2="90.11" y2="4.26" xlink:href="#_未命名的渐变_490"/>
    <linearGradient id="_未命名的渐变_483" data-name="未命名的渐变 483" x1="70.84" y1="70.55" x2="121.23" y2="20.15" gradientUnits="userSpaceOnUse">
      <stop offset="0" stop-color="#536788"/>
      <stop offset="1" stop-color="#3a475d"/>
    </linearGradient>
    <linearGradient id="_未命名的渐变_342" data-name="未命名的渐变 342" x1="123.26" y1="81.26" x2="134.44" y2="81.26" gradientUnits="userSpaceOnUse">
      <stop offset="0" stop-color="#5a6f90"/>
      <stop offset="1" stop-color="#3e4d65"/>
    </linearGradient>
    <linearGradient id="_未命名的渐变_348" data-name="未命名的渐变 348" x1="134.52" y1="84.06" x2="127.97" y2="98.32" gradientUnits="userSpaceOnUse">
      <stop offset="0" stop-color="#1c232c"/>
      <stop offset="1" stop-color="#12161a"/>
    </linearGradient>
    <linearGradient id="_未命名的渐变_345" data-name="未命名的渐变 345" x1="128.47" y1="97.71" x2="123.94" y2="81.64" gradientUnits="userSpaceOnUse">
      <stop offset=".06" stop-color="#1d242e"/>
      <stop offset="1" stop-color="#212833"/>
    </linearGradient>
    <linearGradient id="_未命名的渐变_437" data-name="未命名的渐变 437" x1="127.53" y1="77.31" x2="131.01" y2="82.68" gradientUnits="userSpaceOnUse">
      <stop offset=".06" stop-color="#556d93"/>
      <stop offset=".76" stop-color="#344052"/>
    </linearGradient>
    <linearGradient id="_未命名的渐变_430" data-name="未命名的渐变 430" x1="129.68" y1="82.71" x2="127.92" y2="76.49" gradientUnits="userSpaceOnUse">
      <stop offset=".06" stop-color="#2a3443"/>
      <stop offset="1" stop-color="#212833"/>
    </linearGradient>
    <linearGradient id="_未命名的渐变_323" data-name="未命名的渐变 323" x1="30.67" y1="32.7" x2="126.18" y2="32.7" gradientUnits="userSpaceOnUse">
      <stop offset="0" stop-color="#87a9e4"/>
      <stop offset="1" stop-color="#3e4d65"/>
    </linearGradient>
    <linearGradient id="_未命名的渐变_18" data-name="未命名的渐变 18" x1="53.07" y1="135.75" x2="143.65" y2="45.17" gradientUnits="userSpaceOnUse">
      <stop offset="0" stop-color="#283140"/>
      <stop offset="1" stop-color="#12161a"/>
    </linearGradient>
    <linearGradient id="_未命名的渐变_340" data-name="未命名的渐变 340" x1="112.27" y1="91.04" x2="127.22" y2="91.04" gradientUnits="userSpaceOnUse">
      <stop offset="0" stop-color="#5b77a0"/>
      <stop offset="1" stop-color="#3e4d65"/>
    </linearGradient>
    <linearGradient id="_未命名的渐变_18-2" data-name="未命名的渐变 18" x1="113.79" y1="107.02" x2="129.53" y2="91.28" xlink:href="#_未命名的渐变_18"/>
    <linearGradient id="_未命名的渐变_311-2" data-name="未命名的渐变 311" x1="116.23" y1="108.45" x2="112.11" y2="93.89" xlink:href="#_未命名的渐变_311"/>
    <linearGradient id="_未命名的渐变_1089" data-name="未命名的渐变 1089" x1="89.74" y1="103.02" x2="122.23" y2="103.02" gradientUnits="userSpaceOnUse">
      <stop offset="0" stop-color="#82dbfa"/>
      <stop offset="1" stop-color="#3680e2"/>
    </linearGradient>
    <linearGradient id="_未命名的渐变_1067" data-name="未命名的渐变 1067" x1="98.28" y1="134.44" x2="126.9" y2="105.83" gradientUnits="userSpaceOnUse">
      <stop offset="0" stop-color="#1e4ed3"/>
      <stop offset="1" stop-color="#1433ca"/>
    </linearGradient>
    <linearGradient id="_未命名的渐变_1079" data-name="未命名的渐变 1079" x1="100.83" y1="137.87" x2="91.8" y2="105.91" gradientUnits="userSpaceOnUse">
      <stop offset=".05" stop-color="#49a7ef"/>
      <stop offset="1" stop-color="#2965da"/>
    </linearGradient>
    <linearGradient id="_未命名的渐变_323-2" data-name="未命名的渐变 323" x1="78.63" y1="113.14" x2="95.67" y2="113.14" xlink:href="#_未命名的渐变_323"/>
    <linearGradient id="_未命名的渐变_336" data-name="未命名的渐变 336" x1="82.25" y1="129.71" x2="97.98" y2="113.98" gradientUnits="userSpaceOnUse">
      <stop offset="0" stop-color="#475772"/>
      <stop offset="1" stop-color="#12161a"/>
    </linearGradient>
    <linearGradient id="_未命名的渐变_311-3" data-name="未命名的渐变 311" x1="83.85" y1="131.3" x2="79.31" y2="115.23" xlink:href="#_未命名的渐变_311"/>
    <linearGradient id="_未命名的渐变_323-3" data-name="未命名的渐变 323" x1="86.95" y1="120.45" x2="94.53" y2="120.45" xlink:href="#_未命名的渐变_323"/>
    <linearGradient id="_未命名的渐变_336-2" data-name="未命名的渐变 336" x1="87.09" y1="126.58" x2="94.8" y2="118.87" xlink:href="#_未命名的渐变_336"/>
    <linearGradient id="_未命名的渐变_311-4" data-name="未命名的渐变 311" x1="87.71" y1="126.53" x2="86.6" y2="122.59" xlink:href="#_未命名的渐变_311"/>
    <linearGradient id="_未命名的渐变_710" data-name="未命名的渐变 710" x1="66.08" y1="147.62" x2="75.39" y2="138.31" gradientUnits="userSpaceOnUse">
      <stop offset="0" stop-color="#272f3e"/>
      <stop offset="1" stop-color="#13171c"/>
    </linearGradient>
    <linearGradient id="_未命名的渐变_509" data-name="未命名的渐变 509" x1="76.23" y1="84.7" x2="120.63" y2="84.7" gradientUnits="userSpaceOnUse">
      <stop offset="0" stop-color="#627aa1"/>
      <stop offset=".44" stop-color="#4d5f7d"/>
      <stop offset="1" stop-color="#41516a"/>
    </linearGradient>
    <linearGradient id="_未命名的渐变_471-2" data-name="未命名的渐变 471" x1="25.87" y1="48.27" x2="67.25" y2="48.27" xlink:href="#_未命名的渐变_471"/>
    <linearGradient id="_未命名的渐变_473-2" data-name="未命名的渐变 473" x1="54.07" y1="98.48" x2="79.91" y2="72.64" xlink:href="#_未命名的渐变_473"/>
    <linearGradient id="_未命名的渐变_490-3" data-name="未命名的渐变 490" x1="64.73" y1="60.6" x2="65.94" y2="62.48" xlink:href="#_未命名的渐变_490"/>
    <linearGradient id="_未命名的渐变_311-5" data-name="未命名的渐变 311" x1="56.47" y1="109.86" x2="36" y2="37.39" xlink:href="#_未命名的渐变_311"/>
    <linearGradient id="_未命名的渐变_490-4" data-name="未命名的渐变 490" x1="26.54" y1="38.69" x2="27.75" y2="40.56" xlink:href="#_未命名的渐变_490"/>
    <linearGradient id="_未命名的渐变_471-3" data-name="未命名的渐变 471" x1="25.8" y1="87.01" x2="67.18" y2="87.01" xlink:href="#_未命名的渐变_471"/>
    <linearGradient id="_未命名的渐变_473-3" data-name="未命名的渐变 473" x1="54.72" y1="137.95" x2="79.11" y2="113.56" xlink:href="#_未命名的渐变_473"/>
    <linearGradient id="_未命名的渐变_472" data-name="未命名的渐变 472" x1="67.28" y1="99.22" x2="71.05" y2="105.04" gradientUnits="userSpaceOnUse">
      <stop offset=".06" stop-color="#5e759b"/>
      <stop offset=".76" stop-color="#344052"/>
    </linearGradient>
    <linearGradient id="_未命名的渐变_469" data-name="未命名的渐变 469" x1="69.71" y1="105.07" x2="67.95" y2="98.84" gradientUnits="userSpaceOnUse">
      <stop offset=".06" stop-color="#5b749a"/>
      <stop offset="1" stop-color="#5b759b"/>
    </linearGradient>
    <linearGradient id="_未命名的渐变_311-6" data-name="未命名的渐变 311" x1="56.39" y1="148.61" x2="35.93" y2="76.13" xlink:href="#_未命名的渐变_311"/>
    <linearGradient id="_未命名的渐变_183" data-name="未命名的渐变 183" x1="342.73" y1="70.69" x2="366.58" y2="46.72" gradientTransform="translate(343.48 -28.03) rotate(164.92) scale(.92 -.99) skewX(-2.12)" gradientUnits="userSpaceOnUse">
      <stop offset=".03" stop-color="#181e24"/>
      <stop offset="1" stop-color="#455568"/>
    </linearGradient>
    <linearGradient id="_未命名的渐变_293" data-name="未命名的渐变 293" x1="-148.94" y1="-2.34" x2="-125.97" y2="37.17" gradientTransform="translate(184.74 108.72) rotate(4.72)" gradientUnits="userSpaceOnUse">
      <stop offset=".03" stop-color="#87a9e4"/>
      <stop offset="1" stop-color="#28323e"/>
    </linearGradient>
    <linearGradient id="_未命名的渐变_295" data-name="未命名的渐变 295" x1="304.14" y1="57.55" x2="318.07" y2="28.54" gradientTransform="translate(383.49 146.6) rotate(-167.43) scale(1.07 -1.02) skewX(1.33)" gradientUnits="userSpaceOnUse">
      <stop offset=".13" stop-color="#87a9e4"/>
      <stop offset="1" stop-color="#28323e"/>
    </linearGradient>
    <linearGradient id="_未命名的渐变_292" data-name="未命名的渐变 292" x1="41.73" y1="111.27" x2="49.91" y2="117.38" gradientUnits="userSpaceOnUse">
      <stop offset="0" stop-color="#4f6281"/>
      <stop offset="1" stop-color="#28313f"/>
    </linearGradient>
    <linearGradient id="_未命名的渐变_474" data-name="未命名的渐变 474" x1="43.48" y1="112.34" x2="52.1" y2="125.83" gradientUnits="userSpaceOnUse">
      <stop offset="0" stop-color="#87a9e4"/>
      <stop offset=".92" stop-color="#547097"/>
    </linearGradient>
    <linearGradient id="_未命名的渐变_332" data-name="未命名的渐变 332" x1="607.94" y1="-763.23" x2="615.26" y2="-763.23" gradientTransform="translate(395.71 -795.75) rotate(59.88) scale(1 -1)" gradientUnits="userSpaceOnUse">
      <stop offset="0" stop-color="#87a9e4"/>
      <stop offset="1" stop-color="#7c9cd2"/>
    </linearGradient>
    <linearGradient id="_未命名的渐变_324" data-name="未命名的渐变 324" x1="607.95" y1="-760.65" x2="615.28" y2="-760.65" gradientTransform="translate(395.71 -795.75) rotate(59.88) scale(1 -1)" gradientUnits="userSpaceOnUse">
      <stop offset="0" stop-color="#38455a"/>
      <stop offset=".15" stop-color="#7a96ca"/>
      <stop offset=".25" stop-color="#7a96ca"/>
      <stop offset=".9" stop-color="#303b4d"/>
      <stop offset="1" stop-color="#283140"/>
    </linearGradient>
    <linearGradient id="_未命名的渐变_327" data-name="未命名的渐变 327" x1="608.59" y1="-768.89" x2="614.89" y2="-768.89" gradientTransform="translate(395.71 -795.75) rotate(59.88) scale(1 -1)" gradientUnits="userSpaceOnUse">
      <stop offset="0" stop-color="#85a7e1"/>
      <stop offset="1" stop-color="#6582b1"/>
    </linearGradient>
    <linearGradient id="_未命名的渐变_443" data-name="未命名的渐变 443" x1="612.74" y1="-769.21" x2="611.44" y2="-769.01" gradientTransform="translate(395.71 -795.75) rotate(59.88) scale(1 -1)" gradientUnits="userSpaceOnUse">
      <stop offset="0" stop-color="#85a7e1"/>
      <stop offset="1" stop-color="#28313f"/>
    </linearGradient>
    <linearGradient id="_未命名的渐变_324-2" data-name="未命名的渐变 324" x1="608.48" y1="-765.29" x2="614.91" y2="-765.29" xlink:href="#_未命名的渐变_324"/>
    <linearGradient id="_未命名的渐变_274" data-name="未命名的渐变 274" x1="36.22" y1="85.62" x2="68.31" y2="85.54" gradientUnits="userSpaceOnUse">
      <stop offset="0" stop-color="#2a3542"/>
      <stop offset="1" stop-color="#2a3441"/>
    </linearGradient>
    <linearGradient id="_未命名的渐变_272" data-name="未命名的渐变 272" x1="42.54" y1="81.15" x2="67.93" y2="81.09" gradientUnits="userSpaceOnUse">
      <stop offset="0" stop-color="#677d99"/>
      <stop offset=".16" stop-color="#5c6f89"/>
      <stop offset=".48" stop-color="#49596e"/>
      <stop offset=".77" stop-color="#3e4c5e"/>
      <stop offset="1" stop-color="#3b4859"/>
    </linearGradient>
    <linearGradient id="_未命名的渐变_226" data-name="未命名的渐变 226" x1="64.38" y1="59.31" x2="27.14" y2="63.55" gradientUnits="userSpaceOnUse">
      <stop offset="0" stop-color="#6f8bbc"/>
      <stop offset=".27" stop-color="#7795ca"/>
      <stop offset=".68" stop-color="#80a1da"/>
      <stop offset="1" stop-color="#84a6e0"/>
    </linearGradient>
    <linearGradient id="_未命名的渐变_16" data-name="未命名的渐变 16" x1="590.21" y1="-715.28" x2="625.42" y2="-715.28" gradientTransform="translate(456.06 -759.73) rotate(67.44) scale(1 -1)" gradientUnits="userSpaceOnUse">
      <stop offset="0" stop-color="#87a9e4"/>
      <stop offset="1" stop-color="#547097"/>
    </linearGradient>
    <linearGradient id="_未命名的渐变_15" data-name="未命名的渐变 15" x1="590.28" y1="-705.76" x2="625.65" y2="-705.76" gradientTransform="translate(456.06 -759.73) rotate(67.44) scale(1 -1)" gradientUnits="userSpaceOnUse">
      <stop offset="0" stop-color="#38455a"/>
      <stop offset=".15" stop-color="#7a96ca"/>
      <stop offset=".25" stop-color="#7a96ca"/>
      <stop offset=".9" stop-color="#12161a"/>
      <stop offset="1" stop-color="#283140"/>
    </linearGradient>
    <linearGradient id="_未命名的渐变_5" data-name="未命名的渐变 5" x1="578.22" y1="-1074.7" x2="615.29" y2="-1074.7" gradientTransform="translate(1097.71 -528.79) rotate(89.55) scale(1 -1)" gradientUnits="userSpaceOnUse">
      <stop offset="0" stop-color="#87a9e4"/>
      <stop offset=".91" stop-color="#547097"/>
    </linearGradient>
    <linearGradient id="_未命名的渐变_257" data-name="未命名的渐变 257" x1="573.57" y1="-1082.95" x2="607.84" y2="-1082.95" gradientTransform="translate(1064.16 -530.53) rotate(89.57) scale(1.01 -.96)" gradientUnits="userSpaceOnUse">
      <stop offset="0" stop-color="#1a2128"/>
      <stop offset=".91" stop-color="#4a5b79"/>
    </linearGradient>
    <linearGradient id="_未命名的渐变_211" data-name="未命名的渐变 211" x1="274.48" y1="-607.12" x2="294.28" y2="-607.12" gradientTransform="translate(268.17 -527.02) rotate(-171.5) scale(.54 1.04)" gradientUnits="userSpaceOnUse">
      <stop offset="0" stop-color="#6f8bbc"/>
      <stop offset=".13" stop-color="#6882b0"/>
      <stop offset=".46" stop-color="#596f95"/>
      <stop offset=".77" stop-color="#516485"/>
      <stop offset="1" stop-color="#4e6080"/>
    </linearGradient>
    <linearGradient id="_未命名的渐变_210" data-name="未命名的渐变 210" x1="288.9" y1="-601.05" x2="279.64" y2="-610.31" gradientTransform="translate(268.17 -527.02) rotate(-171.5) scale(.54 1.04)" gradientUnits="userSpaceOnUse">
      <stop offset="0" stop-color="#7998cd"/>
      <stop offset="1" stop-color="#28313f"/>
    </linearGradient>
    <linearGradient id="_未命名的渐变_245" data-name="未命名的渐变 245" x1="720.38" y1="-567.72" x2="740.81" y2="-567.72" gradientTransform="translate(46.64 -594.74) rotate(152.94) scale(.45 1.04)" gradientUnits="userSpaceOnUse">
      <stop offset="0" stop-color="#475773"/>
      <stop offset=".4" stop-color="#4a5c7a"/>
      <stop offset="1" stop-color="#4e6080"/>
    </linearGradient>
    <linearGradient id="_未命名的渐变_210-2" data-name="未命名的渐变 210" x1="672.9" y1="-561.86" x2="664.63" y2="-570.13" gradientTransform="translate(75.44 -609.46) rotate(152.94) scale(.54 1.04)" xlink:href="#_未命名的渐变_210"/>
    <linearGradient id="_未命名的渐变_211-2" data-name="未命名的渐变 211" x1="960.86" y1="-372.32" x2="980.77" y2="-372.32" gradientTransform="translate(-173.33 -532.06) rotate(108.61) scale(.54 1.04)" xlink:href="#_未命名的渐变_211"/>
    <linearGradient id="_未命名的渐变_203" data-name="未命名的渐变 203" x1="-185.85" y1="-460.95" x2="-163.05" y2="-460.95" gradientTransform="translate(362.97 -280.62) rotate(-124.93) scale(.54 1.04)" gradientUnits="userSpaceOnUse">
      <stop offset="0" stop-color="#6f8bbc"/>
      <stop offset=".14" stop-color="#6881af"/>
      <stop offset=".47" stop-color="#596f94"/>
      <stop offset=".77" stop-color="#516384"/>
      <stop offset="1" stop-color="#4e607f"/>
    </linearGradient>
    <linearGradient id="_未命名的渐变_201" data-name="未命名的渐变 201" x1="-169.38" y1="-455.06" x2="-179.75" y2="-465.43" gradientTransform="translate(362.97 -280.62) rotate(-124.93) scale(.54 1.04)" gradientUnits="userSpaceOnUse">
      <stop offset="0" stop-color="#7998cc"/>
      <stop offset="1" stop-color="#7998cd"/>
    </linearGradient>
    <linearGradient id="_未命名的渐变_16-2" data-name="未命名的渐变 16" x1="585.17" y1="-738.35" x2="595.41" y2="-738.35" gradientTransform="translate(418.58 -783.38) rotate(63.13) scale(1 -1)" xlink:href="#_未命名的渐变_16"/>
    <linearGradient id="_未命名的渐变_15-2" data-name="未命名的渐变 15" x1="585.17" y1="-735.61" x2="595.45" y2="-735.61" gradientTransform="translate(418.58 -783.38) rotate(63.13) scale(1 -1)" xlink:href="#_未命名的渐变_15"/>
    <linearGradient id="_未命名的渐变_226-2" data-name="未命名的渐变 226" x1="-132.24" y1="-101.41" x2="-114.96" y2="-101.41" gradientTransform="translate(202.06 99.5) rotate(-54.11) scale(.61 1.55)" xlink:href="#_未命名的渐变_226"/>
    <linearGradient id="_未命名的渐变_215" data-name="未命名的渐变 215" x1="-120.53" y1="-100.31" x2="-131.18" y2="-99.76" gradientTransform="translate(202.06 99.5) rotate(-54.11) scale(.61 1.55)" gradientUnits="userSpaceOnUse">
      <stop offset="0" stop-color="#5d749a"/>
      <stop offset="1" stop-color="#5e7399"/>
    </linearGradient>
    <linearGradient id="_未命名的渐变_226-3" data-name="未命名的渐变 226" x1="179.67" y1="43.97" x2="194.06" y2="43.97" gradientTransform="translate(-78.13 41.81) rotate(-13.67) scale(.54 1.33)" xlink:href="#_未命名的渐变_226"/>
    <linearGradient id="_未命名的渐变_226-4" data-name="未命名的渐变 226" x1="181.67" y1="49.91" x2="191.08" y2="49.91" gradientTransform="translate(-78.13 41.81) rotate(-13.67) scale(.54 1.33)" xlink:href="#_未命名的渐变_226"/>
    <linearGradient id="_未命名的渐变_215-2" data-name="未命名的渐变 215" x1="190.05" y1="45.17" x2="180.57" y2="45.65" gradientTransform="translate(-78.13 41.81) rotate(-13.67) scale(.54 1.33)" xlink:href="#_未命名的渐变_215"/>
    <linearGradient id="_未命名的渐变_215-3" data-name="未命名的渐变 215" x1="-292.17" y1="-296.28" x2="-306.26" y2="-295.55" gradientTransform="translate(312.95 -129.19) rotate(-96.97) scale(.54 1.04)" xlink:href="#_未命名的渐变_215"/>
    <linearGradient id="_未命名的渐变_226-5" data-name="未命名的渐变 226" x1="-307.62" y1="-296.55" x2="-285.65" y2="-296.55" gradientTransform="translate(312.95 -129.19) rotate(-96.97) scale(.54 1.04)" xlink:href="#_未命名的渐变_226"/>
    <linearGradient id="_未命名的渐变_211-3" data-name="未命名的渐变 211" x1="1022.69" y1="-147.93" x2="997.05" y2="-143.52" gradientTransform="translate(-288.85 -299.1) rotate(68.28) scale(.47 1.08)" xlink:href="#_未命名的渐变_211"/>
    <linearGradient id="_未命名的渐变_264" data-name="未命名的渐变 264" x1="581.75" y1="-1059.94" x2="618.93" y2="-1059.94" gradientTransform="translate(788.34 -881.57) rotate(67.84) scale(1 -1)" gradientUnits="userSpaceOnUse">
      <stop offset="0" stop-color="#38455a"/>
      <stop offset=".15" stop-color="#7a96ca"/>
      <stop offset=".25" stop-color="#84a5df"/>
      <stop offset=".9" stop-color="#303c4e"/>
      <stop offset="1" stop-color="#283140"/>
    </linearGradient>
    <linearGradient id="_未命名的渐变_5-2" data-name="未命名的渐变 5" x1="40.38" y1="81.87" x2="65.69" y2="81.87" gradientTransform="translate(-19.29 -9.11) rotate(4.14)" xlink:href="#_未命名的渐变_5"/>
    <linearGradient id="_未命名的渐变_506" data-name="未命名的渐变 506" x1="48.05" y1="76.47" x2="120.72" y2="76.47" gradientUnits="userSpaceOnUse">
      <stop offset="0" stop-color="#87a9e4"/>
      <stop offset=".44" stop-color="#4d5f7d"/>
      <stop offset="1" stop-color="#41516a"/>
    </linearGradient>
    <linearGradient id="_未命名的渐变_691" data-name="未命名的渐变 691" x1="104.54" y1="102.99" x2="102.49" y2="95.72" gradientTransform="translate(-59.87) scale(1.3 1)" gradientUnits="userSpaceOnUse">
      <stop offset=".05" stop-color="#13181c"/>
      <stop offset="1" stop-color="#404f68"/>
    </linearGradient>
    <linearGradient id="_未命名的渐变_311-7" data-name="未命名的渐变 311" x1="104.36" y1="103.03" x2="102.33" y2="95.84" gradientTransform="translate(-59.87) scale(1.3 1)" xlink:href="#_未命名的渐变_311"/>
    <linearGradient id="_未命名的渐变_691-2" data-name="未命名的渐变 691" x1="103.36" y1="103.97" x2="101.31" y2="96.71" xlink:href="#_未命名的渐变_691"/>
    <linearGradient id="_未命名的渐变_311-8" data-name="未命名的渐变 311" x1="103.18" y1="104.02" x2="101.15" y2="96.82" gradientTransform="translate(-59.87) scale(1.3 1)" xlink:href="#_未命名的渐变_311"/>
    <linearGradient id="_未命名的渐变_691-3" data-name="未命名的渐变 691" x1="143.21" y1="71.81" x2="141.16" y2="64.54" xlink:href="#_未命名的渐变_691"/>
    <linearGradient id="_未命名的渐变_697" data-name="未命名的渐变 697" x1="143.03" y1="71.85" x2="141" y2="64.66" gradientTransform="translate(-59.87) scale(1.3 1)" gradientUnits="userSpaceOnUse">
      <stop offset=".05" stop-color="#364357"/>
      <stop offset="1" stop-color="#465671"/>
    </linearGradient>
    <linearGradient id="_未命名的渐变_691-4" data-name="未命名的渐变 691" x1="141.75" y1="72.98" x2="139.7" y2="65.71" xlink:href="#_未命名的渐变_691"/>
    <linearGradient id="_未命名的渐变_697-2" data-name="未命名的渐变 697" x1="141.57" y1="73.02" x2="139.54" y2="65.83" xlink:href="#_未命名的渐变_697"/>
    <linearGradient id="_未命名的渐变_714" data-name="未命名的渐变 714" x1="67.48" y1="146.2" x2="74.04" y2="146.2" gradientUnits="userSpaceOnUse">
      <stop offset=".01" stop-color="#13171c"/>
      <stop offset="1" stop-color="#3e4d65"/>
    </linearGradient>
  </defs>
  <g id="_图层_1-2" data-name="图层 1">
    <g id="_蒸汽发电机" data-name="蒸汽发电机">
      <g id="_背景" data-name="背景" class="cls-92">
        <rect class="cls-87" width="150" height="150"/>
        <rect id="_网格" data-name="网格" class="cls-42" width="150" height="150"/>
      </g>
      <g>
        <g>
          <polygon class="cls-51" points="88.68 .1 88.23 .3 129.16 23.85 129.61 23.65 88.68 .1"/>
          <polygon class="cls-59" points="129.17 23.86 129.1 74.86 129.52 74.67 129.59 23.66 129.17 23.86"/>
          <path class="cls-49" d="m127.13,23.83c-.17.1-.27.3-.27.59,0,.58.41,1.29.92,1.59.26.15.49.16.65.06.1-.06.16-.16.21-.28-.14.01-.28,0-.45-.1-.51-.29-.92-1-.92-1.59,0-.12.03-.22.06-.31-.07,0-.14,0-.2.04Z"/>
          <path class="cls-69" d="m88.23.3l-.07,50.98,40.93,23.55.07-50.98L88.23.3Zm2,3.84c-.17.1-.39.08-.65-.06-.5-.29-.91-.99-.91-1.57,0-.29.1-.49.27-.58.17-.1.39-.08.65.06.5.29.91.99.91,1.57,0,.29-.1.49-.27.59Zm38.22,21.91c-.16.1-.39.08-.65-.06-.5-.29-.91-.99-.91-1.57,0-.29.1-.49.26-.58.16-.1.39-.08.64.06.5.29.91.99.91,1.57,0,.29-.1.49-.27.58Z"/>
          <path class="cls-26" d="m88.94,1.91c-.17.1-.27.3-.27.59,0,.58.41,1.29.92,1.59.26.15.49.16.65.06.1-.06.16-.16.21-.28-.14.01-.28,0-.45-.1-.51-.29-.92-1-.92-1.59,0-.12.03-.22.06-.31-.07,0-.14,0-.2.04Z"/>
        </g>
        <polygon class="cls-52" points="64.06 59.38 67.19 66.89 128.87 30.45 126.2 25.12 64.06 59.38"/>
        <g>
          <g>
            <polygon class="cls-65" points="128.49 78.17 123.26 81.03 129.21 84.35 134.44 81.5 128.49 78.17"/>
            <polygon class="cls-67" points="129.21 84.35 129.18 98.43 134.42 95.57 134.44 81.5 129.21 84.35"/>
          </g>
          <polygon class="cls-63" points="123.26 81.03 123.23 95.1 129.18 98.43 129.21 84.35 123.26 81.03"/>
        </g>
        <path class="cls-58" d="m130.24,78.07l-3.14-1.78-.17.11v4.09s3.17,1.85,3.17,1.85c.86.5,1.95-.12,1.95-1.12,0-1.3-.69-2.5-1.81-3.16Zm.93,3.49c-.15.09-.37.08-.6-.06-.47-.27-.85-.92-.85-1.46,0-.27.09-.46.25-.54.15-.09.37-.08.6.06.47.27.85.93.85,1.46,0,.27-.1.46-.25.55Z"/>
        <path class="cls-62" d="m129.86,78.37l-3.17-1.85v4.35s3.03,1.77,3.03,1.77c.86.5,1.95-.12,1.95-1.12,0-1.3-.69-2.5-1.81-3.16Zm.93,3.49c-.15.09-.37.08-.6-.06-.47-.27-.85-.92-.85-1.46,0-.27.09-.46.25-.54.15-.09.37-.08.6.06.47.27.85.93.85,1.46,0,.27-.1.46-.25.55Z"/>
        <polygon class="cls-53" points="91.64 5.32 30.67 40.74 64.44 60.08 126.18 25.17 91.64 5.32"/>
        <polygon class="cls-1" points="67.19 66.84 67.05 149.74 128.79 114.83 128.92 30.44 67.19 66.84"/>
        <g>
          <polygon class="cls-66" points="123.37 86.83 112.27 93.11 116.12 95.25 127.22 88.97 123.37 86.83"/>
          <polygon class="cls-8" points="116.12 95.25 116.1 109.32 127.19 103.05 127.22 88.97 116.12 95.25"/>
          <polygon class="cls-37" points="112.27 93.11 112.25 107.18 116.1 109.32 116.12 95.25 112.27 93.11"/>
        </g>
        <polygon class="cls-6" points="108.98 94 89.74 104.88 102.99 112.04 122.23 101.16 108.98 94"/>
        <polygon class="cls-7" points="102.99 112.04 102.95 139.1 122.19 128.22 122.23 101.16 102.99 112.04"/>
        <polygon class="cls-5" points="89.74 104.88 89.7 131.94 102.95 139.1 102.99 112.04 89.74 104.88"/>
        <g>
          <polygon class="cls-39" points="89.73 108.34 78.63 114.62 84.58 117.94 95.67 111.67 89.73 108.34"/>
          <polygon class="cls-68" points="84.58 117.94 84.55 132.02 95.65 125.75 95.67 111.67 84.58 117.94"/>
          <polygon class="cls-34" points="78.63 114.62 78.61 128.69 84.55 132.02 84.58 117.94 78.63 114.62"/>
        </g>
        <g>
          <polygon class="cls-38" points="94.09 118.27 86.95 122.3 87.39 122.62 94.53 118.6 94.09 118.27"/>
          <polygon class="cls-29" points="87.39 122.62 87.37 126.86 94.5 122.83 94.53 118.6 87.39 122.62"/>
          <polygon class="cls-31" points="86.95 122.3 86.93 126.53 87.37 126.86 87.39 122.62 86.95 122.3"/>
        </g>
        <polygon class="cls-48" points="67.46 140.66 67.45 148.98 74.01 145.27 74.02 136.95 67.46 140.66"/>
        <polygon class="cls-86" points="71.03 138.66 71 143.61 73.99 145.28 74.01 136.98 71.03 138.66"/>
        <path class="cls-90" d="m76.73,98.05c2.34-.88,43.4-26.7,43.4-26.7"/>
        <g>
          <polygon class="cls-28" points="26.32 36.39 25.87 36.6 66.8 60.15 67.25 59.94 26.32 36.39"/>
          <polygon class="cls-40" points="66.81 60.15 66.75 111.16 67.17 110.97 67.24 59.96 66.81 60.15"/>
          <path class="cls-24" d="m64.78,60.12c-.17.1-.27.3-.27.59,0,.58.41,1.29.92,1.59.26.15.49.16.65.06.1-.06.16-.16.21-.28-.14.01-.28,0-.45-.1-.51-.29-.92-1-.92-1.59,0-.12.03-.22.06-.31-.07,0-.14,0-.2.04Z"/>
          <path class="cls-32" d="m25.87,36.6l-.07,50.98,40.93,23.55.07-50.98-40.93-23.55Zm2,3.84c-.17.1-.39.08-.65-.06-.5-.29-.91-.99-.91-1.57,0-.29.1-.49.27-.58.17-.1.39-.08.65.06.5.29.91.99.91,1.57,0,.29-.1.49-.27.59Zm38.22,21.91c-.16.1-.39.08-.65-.06-.5-.29-.91-.99-.91-1.57,0-.29.1-.49.26-.58.16-.1.39-.08.64.06.5.29.91.99.91,1.57,0,.29-.1.49-.27.58Z"/>
          <path class="cls-25" d="m26.58,38.2c-.17.1-.27.3-.27.59,0,.58.41,1.29.92,1.59.26.15.49.16.65.06.1-.06.16-.16.21-.28-.14.01-.28,0-.45-.1-.51-.29-.92-1-.92-1.59,0-.12.03-.22.06-.31-.07,0-.14,0-.2.04Z"/>
        </g>
        <g>
          <polygon class="cls-27" points="26.25 75.14 25.8 75.34 66.73 98.89 67.18 98.69 26.25 75.14"/>
          <polygon class="cls-41" points="66.74 101.81 66.67 149.9 67.1 149.71 67.16 101.61 66.74 101.81"/>
          <path class="cls-60" d="m70.27,100.42l-3.73-2.1-.16.07.56,4.45,3.18,1.85c.86.5,1.95-.12,1.95-1.12,0-1.3-.69-2.5-1.81-3.16Zm.93,3.49c-.15.09-.37.08-.6-.06-.47-.27-.85-.92-.85-1.46,0-.27.09-.46.25-.54.15-.09.37-.08.6.06.47.27.85.93.85,1.46,0,.27-.1.46-.25.55Z"/>
          <path class="cls-57" d="m69.89,100.72l-3.17-1.85v4.35s3.03,1.77,3.03,1.77c.86.5,1.95-.12,1.95-1.12,0-1.3-.69-2.5-1.81-3.16Zm.93,3.49c-.15.09-.37.08-.6-.06-.47-.27-.85-.92-.85-1.46,0-.27.09-.46.25-.54.15-.09.37-.08.6.06.47.27.85.93.85,1.46,0,.27-.1.46-.25.55Z"/>
          <polygon class="cls-35" points="25.8 75.34 25.73 126.33 66.66 149.87 66.73 98.89 25.8 75.34"/>
        </g>
        <path class="cls-81" d="m34.5,121.43c6.41,11.4,18.02,17.53,25.44,12.85,9.06-5.71,6.75-21.22,1.93-28.85-6.15-9.71-15.02-14.75-22.2-12.83-11.5,5.29-11.57,17.43-5.17,28.82Z"/>
        <ellipse class="cls-82" cx="46.32" cy="114.78" rx="17.33" ry="23.92" transform="translate(-50.32 37.44) rotate(-29.35)"/>
        <ellipse class="cls-83" cx="46.15" cy="114.83" rx="16.35" ry="22.34" transform="translate(-50.36 37.36) rotate(-29.35)"/>
        <ellipse class="cls-85" cx="46.42" cy="114.53" rx="15.93" ry="22.34" transform="translate(-50.18 37.46) rotate(-29.35)"/>
        <g>
          <path class="cls-84" d="m46.7,107.42c-1.49-.97-2.88-1.13-3.92-.6-1.03.52-1.72,1.72-1.82,3.47-.15,2.65,1.07,5.8,2.95,8.03l3.85,5.04,1.02-.59-.04-1.36c.43-.09.83-.36,1.17-.62.93-.69,1.72-1.72,1.83-3.48.2-3.52-2.04-7.96-5.02-9.9Z"/>
          <path class="cls-61" d="m45.64,108.03c-1.49-.97-2.88-1.13-3.92-.6-1.03.52-1.72,1.72-1.82,3.47-.15,2.65,1.07,5.8,2.95,8.03v1.64s4.86,2.81,4.86,2.81v-1.69c.41-.02.79-.11,1.13-.28,1.03-.52,1.72-1.72,1.83-3.48.2-3.52-2.04-7.96-5.02-9.9Z"/>
        </g>
        <g>
          <path class="cls-64" d="m44.31,119.44c.47-.27.76-.85.76-1.67,0-1.65-1.16-3.65-2.6-4.48-.72-.41-1.37-.45-1.84-.18s-.76.85-.76,1.67c0,1.65,1.16,3.66,2.6,4.48.72.41,1.37.45,1.85.18Z"/>
          <path class="cls-54" d="m44.34,119.44l2.59-1.49c.47-.27.76-.85.76-1.67,0-1.65-1.16-3.65-2.6-4.48-.72-.41-1.37-.45-1.84-.18l-2.59,1.49c.47-.27,1.12-.24,1.84.18,1.44.82,2.6,2.83,2.6,4.48,0,.82-.29,1.4-.76,1.67Z"/>
        </g>
        <path class="cls-55" d="m39.23,121.96c.4-.23.65-.73.65-1.44,0-1.42-1-3.14-2.24-3.85-.62-.36-1.18-.39-1.59-.15s-.65.73-.65,1.44c0,1.42,1,3.15,2.24,3.86.62.36,1.18.39,1.59.15Z"/>
        <path class="cls-50" d="m37.84,119.93c.08-.05.14-.15.14-.3,0-.29-.21-.65-.46-.8-.13-.07-.25-.08-.33-.03s-.13.15-.14.3c0,.29.21.65.46.8.13.07.25.08.33.03Z"/>
        <path class="cls-30" d="m39.26,121.97l4.55-2.79c.4-.23.65-.73.65-1.44,0-1.42-1-3.14-2.24-3.85-.62-.36-1.18-.39-1.59-.15l-4.55,2.79c.41-.24.97-.2,1.59.15,1.24.71,2.24,2.44,2.24,3.85,0,.71-.25,1.2-.65,1.44Z"/>
        <polygon class="cls-79" points="65.69 86.43 65.6 90.14 35.72 85.55 37.91 81.02 65.69 86.43"/>
        <polygon class="cls-80" points="65.84 72.1 65.69 90.09 42.15 83.29 42.59 72.54 65.84 72.1"/>
        <polygon class="cls-77" points="27.02 50.61 65.84 72.1 43.32 73.57 27.24 64.43 27.02 50.61"/>
        <g>
          <g>
            <path class="cls-3" d="m35.5,92.24c2.4-1,4.15-3.57,4.67-7.48,1.05-7.85-3.23-18.15-9.56-22.99-3.17-2.43-6.26-3.02-8.68-2.01s-4.14,3.56-4.67,7.47c-1.06,7.86,3.22,18.16,9.55,23,3.17,2.43,6.27,3.03,8.68,2.02Z"/>
            <path class="cls-2" d="m35.63,92.26l8.03-3.17c2.4-1,4.15-3.57,4.67-7.48,1.05-7.85-3.23-18.15-9.56-22.99-3.17-2.43-6.26-3.02-8.68-2.01l-8.03,3.17c2.42-1,5.51-.42,8.68,2.01,6.33,4.84,10.61,15.14,9.56,22.99-.52,3.92-2.28,6.49-4.67,7.48Z"/>
          </g>
          <ellipse class="cls-43" cx="27.76" cy="76.44" rx="10.65" ry="18.53" transform="translate(-27.25 16.54) rotate(-22.6)"/>
          <ellipse class="cls-73" cx="27.87" cy="76.39" rx="9.47" ry="17.38" transform="translate(-27.25 16.61) rotate(-22.63)"/>
          <polygon class="cls-71" points="28.44 79.49 29.24 76.45 18.53 76.34 20.92 79.37 28.44 79.49"/>
          <polygon class="cls-70" points="29.24 76.45 29.3 75.85 18.85 75.79 18.55 76.31 29.24 76.45"/>
          <polygon class="cls-75" points="30.45 80.78 27.82 77.83 21.43 83.18 24.81 85.43 30.45 80.78"/>
          <polygon class="cls-23" points="29.3 77.07 29.01 76.92 21.41 82.9 21.43 83.14 29.3 77.07"/>
          <polygon class="cls-16" points="31.68 80.45 27.97 78.97 26.67 89.78 30.99 89.92 31.68 80.45"/>
          <polygon class="cls-72" points="24.46 75.79 26.62 75.78 17.76 67.06 19.19 71.06 24.46 75.79"/>
          <polygon class="cls-74" points="26.62 75.78 27.09 75.41 18.38 66.92 17.79 67.06 26.62 75.78"/>
          <g>
            <path class="cls-9" d="m29,81.42c.67-.34,1.13-1.13,1.19-2.27.13-2.3-1.33-5.19-3.28-6.46-.97-.64-1.88-.74-2.56-.39s-1.12,1.12-1.19,2.27c-.13,2.3,1.33,5.2,3.27,6.46.97.64,1.88.74,2.56.4Z"/>
            <path class="cls-10" d="m29,81.42l2.26-1.09c.67-.34,1.13-1.13,1.19-2.27.13-2.3-1.33-5.19-3.28-6.46-.97-.64-1.88-.74-2.56-.39l-2.26,1.09c.68-.34,1.59-.24,2.56.39,1.94,1.27,3.41,4.16,3.28,6.46-.07,1.15-.52,1.93-1.19,2.27Z"/>
          </g>
          <polygon class="cls-20" points="27.86 72.17 28.81 73.93 33.65 64.87 31.31 62.7 27.86 72.17"/>
          <polygon class="cls-76" points="28.84 73.94 29.63 73.84 34.2 65.61 33.67 64.91 28.84 73.94"/>
          <polygon class="cls-17" points="30.34 74.69 30.77 77.87 37.97 74.51 36.7 71.34 30.34 74.69"/>
          <polygon class="cls-18" points="32.48 78.55 32.04 78.52 38.63 86.13 38.99 85.54 32.48 78.55"/>
          <polygon class="cls-22" points="30.77 77.88 31.17 78.01 37.69 75.16 38.14 74.4 30.77 77.88"/>
          <polygon class="cls-21" points="26.36 71.93 26.96 71.79 24.17 60.57 23.58 60.42 26.36 71.93"/>
          <polygon class="cls-19" points="25.38 71.79 26.34 71.93 23.55 60.41 23.67 64.51 25.38 71.79"/>
          <polygon class="cls-15" points="32.03 78.5 30.15 80.76 36.45 90.14 39.14 86.33 32.03 78.5"/>
          <path class="cls-78" d="m39.49,85.64c1.04-8.37-3.44-19.22-10-24.23-3.23-2.46-6.36-3.05-8.84-2.02l1.32-.65c2.47-1.03,5.61-.44,8.84,2.02,6.57,5.01,11.05,15.85,10,24.23-.53,4.26-2.38,7.06-4.94,8.12l-1.32.65c2.56-1.07,4.41-3.86,4.94-8.12Z"/>
          <path class="cls-56" d="m29.36,61.18c-6.64-4.9-12.77-2.07-13.68,6.32-.91,8.39,3.73,19.17,10.38,24.07,6.64,4.9,12.77,2.07,13.68-6.32.91-8.39-3.73-19.17-10.38-24.07Zm-2.76,29.25c-6.04-4.68-10.39-14.79-9.72-22.58.67-7.79,6.11-10.31,12.15-5.63,6.04,4.68,10.39,14.79,9.72,22.58-.67,7.79-6.11,10.31-12.15,5.63Z"/>
        </g>
        <path class="cls-89" d="m48.55,80.16l17.29,10.95s1.57.64,3.66.15c2.34-.88,48.3-29.55,48.3-29.55,0,0,2.43-1.22,2.43,2.36v25"/>
        <g>
          <polygon class="cls-45" points="74.63 95.09 74.27 95.26 74.25 103.81 74.61 103.64 76.98 99.51 74.63 95.09"/>
          <polygon class="cls-36" points="74.26 95.25 74.24 103.8 76.54 99.66 74.26 95.25"/>
        </g>
        <g>
          <polygon class="cls-14" points="73.09 96.08 72.74 96.25 72.71 104.79 73.07 104.63 75.44 100.5 73.09 96.08"/>
          <polygon class="cls-33" points="72.73 96.23 72.71 104.78 75 100.65 72.73 96.23"/>
        </g>
        <g>
          <polygon class="cls-13" points="124.92 63.92 124.56 64.08 124.54 72.63 124.9 72.46 127.27 68.33 124.92 63.92"/>
          <polygon class="cls-46" points="124.56 64.07 124.54 72.62 126.83 68.48 124.56 64.07"/>
        </g>
        <g>
          <polygon class="cls-12" points="123.02 65.09 122.66 65.25 122.64 73.8 123 73.63 125.37 69.5 123.02 65.09"/>
          <polygon class="cls-11" points="122.65 65.24 122.64 73.79 124.93 69.65 122.65 65.24"/>
        </g>
        <polygon class="cls-47" points="70.99 143.54 67.48 145.31 67.48 148.86 74.04 145.24 70.99 143.54"/>
      </g>
     
    </g>
  </g>
</svg>