<?xml version="1.0" encoding="UTF-8"?>
<svg id="_图层_2" data-name="图层 2" xmlns="http://www.w3.org/2000/svg" xmlns:xlink="http://www.w3.org/1999/xlink" viewBox="0 0 150 150">
  <defs>
    <style>
      .cls-1 {
        fill: url(#_未命名的渐变_15);
      }

      .cls-1, .cls-2, .cls-3, .cls-4, .cls-5, .cls-6, .cls-7, .cls-8, .cls-9, .cls-10, .cls-11, .cls-12, .cls-13, .cls-14, .cls-15, .cls-16, .cls-17, .cls-18, .cls-19, .cls-20, .cls-21, .cls-22, .cls-23, .cls-24, .cls-25, .cls-26, .cls-27, .cls-28, .cls-29, .cls-30, .cls-31, .cls-32, .cls-33, .cls-34, .cls-35, .cls-36, .cls-37, .cls-38, .cls-39, .cls-40, .cls-41, .cls-42, .cls-43, .cls-44, .cls-45, .cls-46, .cls-47, .cls-48, .cls-49, .cls-50, .cls-51, .cls-52, .cls-53, .cls-54, .cls-55, .cls-56 {
        stroke-width: 0px;
      }

      .cls-2 {
        fill: url(#_未命名的渐变_16);
      }

      .cls-3 {
        fill: url(#_未命名的渐变_21);
      }

      .cls-4 {
        fill: url(#_未命名的渐变_80);
      }

      .cls-5 {
        fill: url(#_未命名的渐变_69);
      }

      .cls-6 {
        fill: url(#_未命名的渐变_67);
      }

      .cls-7 {
        fill: url(#_未命名的渐变_44);
      }

      .cls-8 {
        fill: url(#_未命名的渐变_56);
      }

      .cls-9, .cls-57 {
        fill: none;
      }

      .cls-57 {
        stroke: #fff;
        stroke-miterlimit: 10;
        stroke-width: .1px;
      }

      .cls-10 {
        fill: url(#_未命名的渐变_56-2);
      }

      .cls-11 {
        fill: url(#_未命名的渐变_56-3);
      }

      .cls-12 {
        fill: url(#_未命名的渐变_44-2);
      }

      .cls-13 {
        fill: url(#_未命名的渐变_69-4);
      }

      .cls-14 {
        fill: url(#_未命名的渐变_69-9);
      }

      .cls-15 {
        fill: url(#_未命名的渐变_69-2);
      }

      .cls-16 {
        fill: url(#_未命名的渐变_69-3);
      }

      .cls-17 {
        fill: url(#_未命名的渐变_69-5);
      }

      .cls-18 {
        fill: url(#_未命名的渐变_69-7);
      }

      .cls-19 {
        fill: url(#_未命名的渐变_69-6);
      }

      .cls-20 {
        fill: url(#_未命名的渐变_69-8);
      }

      .cls-21 {
        fill: url(#_未命名的渐变_67-3);
      }

      .cls-22 {
        fill: url(#_未命名的渐变_67-4);
      }

      .cls-23 {
        fill: url(#_未命名的渐变_67-6);
      }

      .cls-24 {
        fill: url(#_未命名的渐变_67-7);
      }

      .cls-25 {
        fill: url(#_未命名的渐变_67-5);
      }

      .cls-26 {
        fill: url(#_未命名的渐变_67-2);
      }

      .cls-27 {
        fill: url(#_未命名的渐变_67-8);
      }

      .cls-28 {
        fill: url(#_未命名的渐变_67-9);
      }

      .cls-29 {
        fill: url(#_未命名的渐变_16-2);
      }

      .cls-30 {
        fill: url(#_未命名的渐变_15-3);
      }

      .cls-31 {
        fill: url(#_未命名的渐变_15-4);
      }

      .cls-32 {
        fill: url(#_未命名的渐变_15-2);
      }

      .cls-33 {
        fill: url(#_未命名的渐变_21-2);
      }

      .cls-34 {
        fill: url(#_未命名的渐变_69-13);
      }

      .cls-35 {
        fill: url(#_未命名的渐变_69-11);
      }

      .cls-36 {
        fill: url(#_未命名的渐变_69-10);
      }

      .cls-37 {
        fill: url(#_未命名的渐变_69-12);
      }

      .cls-38 {
        fill: url(#_未命名的渐变_69-14);
      }

      .cls-39 {
        fill: url(#_未命名的渐变_67-14);
      }

      .cls-40 {
        fill: url(#_未命名的渐变_67-11);
      }

      .cls-41 {
        fill: url(#_未命名的渐变_67-10);
      }

      .cls-42 {
        fill: url(#_未命名的渐变_67-12);
      }

      .cls-43 {
        fill: url(#_未命名的渐变_67-13);
      }

      .cls-44 {
        fill: url(#_未命名的渐变_135-2);
      }

      .cls-45 {
        fill: url(#_新建图案);
        opacity: .1;
      }

      .cls-58 {
        opacity: .2;
      }

      .cls-46 {
        fill: url(#_未命名的渐变_5);
      }

      .cls-47 {
        fill: url(#_未命名的渐变_6);
      }

      .cls-59 {
        isolation: isolate;
      }

      .cls-48 {
        fill: url(#_未命名的渐变_972);
      }

      .cls-49 {
        fill: url(#_未命名的渐变_716);
      }

      .cls-50 {
        fill: url(#_未命名的渐变_718);
      }

      .cls-51 {
        fill: url(#_未命名的渐变_869);
      }

      .cls-52 {
        fill: url(#_未命名的渐变_5-2);
      }

      .cls-53 {
        fill: url(#_未命名的渐变_135);
      }

      .cls-60 {
        opacity: 0;
      }

      .cls-54 {
        fill: #7497d0;
      }

      .cls-55 {
        fill: #0c63ef;
      }

      .cls-56 {
        fill: #010714;
      }
    </style>
    <pattern id="_新建图案" data-name="新建图案" x="0" y="0" width="18.57" height="32.16" patternTransform="translate(3736.34 695.19)" patternUnits="userSpaceOnUse" viewBox="0 0 18.57 32.16">
      <g>
        <rect class="cls-9" x="0" y="0" width="18.57" height="32.16"/>
        <g>
          <g>
            <polyline class="cls-57" points="18.57 21.44 18.57 32.16 18.57 42.88"/>
            <polyline class="cls-57" points="9.29 26.8 18.57 32.16 27.85 37.51 27.85 37.52"/>
            <polyline class="cls-57" points="9.29 37.52 9.29 37.51 18.57 32.16 27.85 26.8"/>
          </g>
          <polygon class="cls-57" points="27.85 37.52 27.85 26.8 18.57 21.44 9.28 26.8 9.28 37.52 18.57 42.88 27.85 37.52"/>
        </g>
        <g>
          <g>
            <polyline class="cls-57" points="0 21.44 0 32.16 0 42.88"/>
            <polyline class="cls-57" points="-9.28 26.8 0 32.16 9.28 37.51 9.28 37.52"/>
            <polyline class="cls-57" points="-9.28 37.52 -9.28 37.51 0 32.16 9.28 26.8"/>
          </g>
          <polygon class="cls-57" points="9.28 37.52 9.28 26.8 0 21.44 -9.28 26.8 -9.28 37.52 0 42.88 9.28 37.52"/>
        </g>
        <g>
          <g>
            <polyline class="cls-57" points="18.57 10.72 27.85 16.08 37.13 21.43 37.13 21.44"/>
            <polyline class="cls-57" points="18.57 21.44 18.57 21.43 27.85 16.08 37.13 10.72"/>
          </g>
          <polygon class="cls-57" points="37.14 21.44 37.14 10.72 27.85 5.36 18.57 10.72 18.57 21.44 27.85 26.8 37.14 21.44"/>
        </g>
        <g>
          <g>
            <polyline class="cls-57" points="9.28 5.36 9.28 16.08 9.28 26.8"/>
            <polyline class="cls-57" points="0 10.72 9.28 16.08 18.56 21.43 18.56 21.44"/>
            <polyline class="cls-57" points="0 21.44 0 21.43 9.28 16.08 18.56 10.72"/>
          </g>
          <polygon class="cls-57" points="18.57 21.44 18.57 10.72 9.28 5.36 0 10.72 0 21.44 9.28 26.8 18.57 21.44"/>
        </g>
        <g>
          <g>
            <polyline class="cls-57" points="-18.56 10.72 -9.28 16.08 0 21.43 0 21.44"/>
            <polyline class="cls-57" points="-18.56 21.44 -18.56 21.43 -9.28 16.08 0 10.72"/>
          </g>
          <polygon class="cls-57" points="0 21.44 0 10.72 -9.28 5.36 -18.57 10.72 -18.57 21.44 -9.28 26.8 0 21.44"/>
        </g>
        <g>
          <g>
            <polyline class="cls-57" points="18.57 -10.72 18.57 0 18.57 10.72"/>
            <polyline class="cls-57" points="9.29 -5.36 18.57 0 27.85 5.35 27.85 5.36"/>
            <polyline class="cls-57" points="9.29 5.36 9.29 5.35 18.57 0 27.85 -5.36"/>
          </g>
          <polygon class="cls-57" points="27.85 5.36 27.85 -5.36 18.57 -10.72 9.28 -5.36 9.28 5.36 18.57 10.72 27.85 5.36"/>
        </g>
        <g>
          <g>
            <polyline class="cls-57" points="0 -10.72 0 0 0 10.72"/>
            <polyline class="cls-57" points="-9.28 -5.36 0 0 9.28 5.35 9.28 5.36"/>
            <polyline class="cls-57" points="-9.28 5.36 -9.28 5.35 0 0 9.28 -5.36"/>
          </g>
          <polygon class="cls-57" points="9.28 5.36 9.28 -5.36 0 -10.72 -9.28 -5.36 -9.28 5.36 0 10.72 9.28 5.36"/>
        </g>
      </g>
    </pattern>
    <linearGradient id="_未命名的渐变_16" data-name="未命名的渐变 16" x1="55.56" y1="140.03" x2="82.68" y2="140.03" gradientUnits="userSpaceOnUse">
      <stop offset="0" stop-color="#87a9e4"/>
      <stop offset="1" stop-color="#547097"/>
    </linearGradient>
    <linearGradient id="_未命名的渐变_15" data-name="未命名的渐变 15" x1="55.56" y1="144.98" x2="82.68" y2="144.98" gradientUnits="userSpaceOnUse">
      <stop offset="0" stop-color="#38455a"/>
      <stop offset=".15" stop-color="#7a96ca"/>
      <stop offset=".25" stop-color="#7a96ca"/>
      <stop offset=".9" stop-color="#12161a"/>
      <stop offset="1" stop-color="#283140"/>
    </linearGradient>
    <linearGradient id="_未命名的渐变_15-2" data-name="未命名的渐变 15" x1="424.47" y1="-394.29" x2="442.63" y2="-394.29" gradientTransform="translate(-366.36 515.45) rotate(.34)" xlink:href="#_未命名的渐变_15"/>
    <linearGradient id="_未命名的渐变_80" data-name="未命名的渐变 80" x1="43.72" y1="113.47" x2="94.14" y2="113.47" gradientUnits="userSpaceOnUse">
      <stop offset="0" stop-color="#38455a"/>
      <stop offset=".99" stop-color="#151a1f"/>
    </linearGradient>
    <linearGradient id="_未命名的渐变_15-3" data-name="未命名的渐变 15" x1="43.72" y1="125.12" x2="94.14" y2="125.12" xlink:href="#_未命名的渐变_15"/>
    <linearGradient id="_未命名的渐变_16-2" data-name="未命名的渐变 16" x1="43.72" y1="103.32" x2="94.14" y2="103.32" xlink:href="#_未命名的渐变_16"/>
    <linearGradient id="_未命名的渐变_15-4" data-name="未命名的渐变 15" x1="43.72" y1="114.97" x2="94.14" y2="114.97" xlink:href="#_未命名的渐变_15"/>
    <linearGradient id="_未命名的渐变_135" data-name="未命名的渐变 135" x1="1023.86" y1="-859.27" x2="1077.43" y2="-859.27" gradientTransform="translate(-272.72 -1299.8) rotate(116.3)" gradientUnits="userSpaceOnUse">
      <stop offset="0" stop-color="#38455a"/>
      <stop offset=".15" stop-color="#80a1d9"/>
      <stop offset=".27" stop-color="#80a1d9"/>
      <stop offset=".91" stop-color="#607da9"/>
      <stop offset="1" stop-color="#283140"/>
    </linearGradient>
    <linearGradient id="_未命名的渐变_5" data-name="未命名的渐变 5" x1="1023.55" y1="-878.81" x2="1076.79" y2="-878.81" gradientTransform="translate(1088.82 -854.47) rotate(179.84)" gradientUnits="userSpaceOnUse">
      <stop offset="0" stop-color="#87a9e4"/>
      <stop offset=".91" stop-color="#547097"/>
    </linearGradient>
    <linearGradient id="_未命名的渐变_69" data-name="未命名的渐变 69" x1="1028.27" y1="-879.18" x2="1058.82" y2="-879.18" gradientTransform="translate(1098.89 -806.24) rotate(179.86) scale(1.01 .95)" gradientUnits="userSpaceOnUse">
      <stop offset="0" stop-color="#4e607f"/>
      <stop offset=".91" stop-color="#708fc1"/>
    </linearGradient>
    <linearGradient id="_未命名的渐变_67" data-name="未命名的渐变 67" x1="1028.21" y1="-875.61" x2="1058.67" y2="-875.61" gradientTransform="translate(1096.72 -775.38) rotate(179.87) scale(1.01 .91)" gradientUnits="userSpaceOnUse">
      <stop offset="0" stop-color="#4d5f7d"/>
      <stop offset=".91" stop-color="#171d23"/>
    </linearGradient>
    <linearGradient id="_未命名的渐变_44" data-name="未命名的渐变 44" x1="27.18" y1="13.87" x2="53.87" y2="39.37" gradientUnits="userSpaceOnUse">
      <stop offset="0" stop-color="#6279a0"/>
      <stop offset=".91" stop-color="#222934"/>
    </linearGradient>
    <linearGradient id="_未命名的渐变_69-2" data-name="未命名的渐变 69" x1="1020.69" y1="-882.85" x2="1026.11" y2="-882.85" gradientTransform="translate(1090.88 -826.26) rotate(179.86) scale(1.01 .95)" xlink:href="#_未命名的渐变_69"/>
    <linearGradient id="_未命名的渐变_67-2" data-name="未命名的渐变 67" x1="53.12" y1="11.17" x2="56.21" y2="11.17" gradientTransform="matrix(1,0,0,1,0,0)" xlink:href="#_未命名的渐变_67"/>
    <linearGradient id="_未命名的渐变_69-3" data-name="未命名的渐变 69" x1="1061.53" y1="-877.53" x2="1066.94" y2="-877.53" gradientTransform="translate(1108.91 -786.78) rotate(179.86) scale(1.01 .95)" xlink:href="#_未命名的渐变_69"/>
    <linearGradient id="_未命名的渐变_67-3" data-name="未命名的渐变 67" x1="29.71" y1="45.72" x2="32.8" y2="45.72" gradientTransform="matrix(1,0,0,1,0,0)" xlink:href="#_未命名的渐变_67"/>
    <linearGradient id="_未命名的渐变_69-4" data-name="未命名的渐变 69" x1="1035.57" y1="-891.46" x2="1040.66" y2="-891.46" gradientTransform="translate(1144.01 -768.18) rotate(-177.5) scale(1.01 .95)" xlink:href="#_未命名的渐变_69"/>
    <linearGradient id="_未命名的渐变_67-4" data-name="未命名的渐变 67" x1="53.74" y1="28.18" x2="56.49" y2="28.18" gradientTransform="matrix(1,0,0,1,0,0)" xlink:href="#_未命名的渐变_67"/>
    <linearGradient id="_未命名的渐变_69-5" data-name="未命名的渐变 69" x1="1047.48" y1="-866.81" x2="1052.57" y2="-866.81" gradientTransform="translate(1128.81 -744.27) rotate(-177.5) scale(1.01 .95)" xlink:href="#_未命名的渐变_69"/>
    <linearGradient id="_未命名的渐变_67-5" data-name="未命名的渐变 67" x1="27.48" y1="28.27" x2="30.24" y2="28.27" gradientTransform="matrix(1,0,0,1,0,0)" xlink:href="#_未命名的渐变_67"/>
    <linearGradient id="_未命名的渐变_69-6" data-name="未命名的渐变 69" x1="1049.35" y1="-935.44" x2="1054.44" y2="-935.44" gradientTransform="translate(1151.96 -796.17) rotate(-177.5) scale(1.01 .95)" xlink:href="#_未命名的渐变_69"/>
    <linearGradient id="_未命名的渐变_67-6" data-name="未命名的渐变 67" x1="84.35" y1="59.62" x2="87.11" y2="59.62" gradientTransform="translate(-32.9 -25.76) rotate(5.01)" xlink:href="#_未命名的渐变_67"/>
    <linearGradient id="_未命名的渐变_69-7" data-name="未命名的渐变 69" x1="1027.58" y1="-869.7" x2="1032.67" y2="-869.7" gradientTransform="translate(1120.42 -764.58) rotate(-177.5) scale(1.01 .95)" xlink:href="#_未命名的渐变_69"/>
    <linearGradient id="_未命名的渐变_67-7" data-name="未命名的渐变 67" x1="39.14" y1="11.57" x2="41.89" y2="11.57" gradientTransform="matrix(1,0,0,1,0,0)" xlink:href="#_未命名的渐变_67"/>
    <linearGradient id="_未命名的渐变_21" data-name="未命名的渐变 21" x1="49.07" y1="79.06" x2="90.76" y2="79.06" gradientUnits="userSpaceOnUse">
      <stop offset="0" stop-color="#35455c"/>
      <stop offset=".15" stop-color="#7497d0"/>
      <stop offset=".25" stop-color="#7497d0"/>
      <stop offset=".9" stop-color="#11161a"/>
      <stop offset="1" stop-color="#263141"/>
    </linearGradient>
    <linearGradient id="_未命名的渐变_21-2" data-name="未命名的渐变 21" x1="79.31" y1="30.01" x2="62.21" y2="59.63" xlink:href="#_未命名的渐变_21"/>
    <linearGradient id="_未命名的渐变_6" data-name="未命名的渐变 6" x1="1064.49" y1="-920.93" x2="1092.58" y2="-937.22" gradientTransform="translate(1185.05 -868.65) rotate(179.84)" gradientUnits="userSpaceOnUse">
      <stop offset="0" stop-color="#87a9e4"/>
      <stop offset=".82" stop-color="#547097"/>
    </linearGradient>
    <linearGradient id="_未命名的渐变_972" data-name="未命名的渐变 972" x1="856.47" y1="-1247.07" x2="880.92" y2="-1247.07" gradientTransform="translate(810.38 -1302.23) rotate(63.68) scale(1 -1)" gradientUnits="userSpaceOnUse">
      <stop offset="0" stop-color="#153acd"/>
      <stop offset=".04" stop-color="#2e5dd6"/>
      <stop offset=".07" stop-color="#4984e1"/>
      <stop offset=".11" stop-color="#60a5ea"/>
      <stop offset=".15" stop-color="#72bef1"/>
      <stop offset=".19" stop-color="#7fd0f6"/>
      <stop offset=".24" stop-color="#86dbf9"/>
      <stop offset=".29" stop-color="#89dffa"/>
      <stop offset=".47" stop-color="#59c6f9"/>
      <stop offset=".9" stop-color="#2d63d9"/>
      <stop offset="1" stop-color="#20468c"/>
    </linearGradient>
    <linearGradient id="_未命名的渐变_718" data-name="未命名的渐变 718" x1="850.11" y1="-1258.21" x2="874.54" y2="-1258.21" gradientTransform="translate(798.33 -1310.81) rotate(62.79) scale(1 -1)" gradientUnits="userSpaceOnUse">
      <stop offset="0" stop-color="#75d3fa"/>
      <stop offset=".91" stop-color="#1f4ed3"/>
    </linearGradient>
    <linearGradient id="_未命名的渐变_869" data-name="未命名的渐变 869" x1="853.58" y1="-1279.28" x2="860.2" y2="-1279.28" gradientTransform="translate(1284.71 -835.81) rotate(90.14) scale(1.01 -.95)" gradientUnits="userSpaceOnUse">
      <stop offset="0" stop-color="#254a98"/>
      <stop offset=".91" stop-color="#60b1ef"/>
    </linearGradient>
    <linearGradient id="_未命名的渐变_716" data-name="未命名的渐变 716" x1="853.54" y1="-1292.42" x2="860.13" y2="-1292.42" gradientTransform="translate(1255.12 -836.24) rotate(90.13) scale(1.01 -.91)" gradientUnits="userSpaceOnUse">
      <stop offset="0" stop-color="#2864da"/>
      <stop offset=".91" stop-color="#171d23"/>
    </linearGradient>
    <linearGradient id="_未命名的渐变_135-2" data-name="未命名的渐变 135" x1="1028.33" y1="-941.66" x2="1081.9" y2="-941.66" xlink:href="#_未命名的渐变_135"/>
    <linearGradient id="_未命名的渐变_5-2" data-name="未命名的渐变 5" x1="1026.74" y1="-961.25" x2="1079.98" y2="-961.25" gradientTransform="translate(1163.65 -896.42) rotate(179.84)" xlink:href="#_未命名的渐变_5"/>
    <linearGradient id="_未命名的渐变_69-8" data-name="未命名的渐变 69" x1="1031.41" y1="-966.35" x2="1061.96" y2="-966.35" gradientTransform="translate(1173.75 -848.19) rotate(179.86) scale(1.01 .95)" xlink:href="#_未命名的渐变_69"/>
    <linearGradient id="_未命名的渐变_67-8" data-name="未命名的渐变 67" x1="1031.35" y1="-965.89" x2="1061.81" y2="-965.89" gradientTransform="translate(1171.6 -817.33) rotate(179.87) scale(1.01 .91)" xlink:href="#_未命名的渐变_67"/>
    <linearGradient id="_未命名的渐变_44-2" data-name="未命名的渐变 44" x1="99.06" y1="54.38" x2="125.75" y2="79.88" xlink:href="#_未命名的渐变_44"/>
    <linearGradient id="_未命名的渐变_69-9" data-name="未命名的渐变 69" x1="1023.83" y1="-970.02" x2="1029.25" y2="-970.02" gradientTransform="translate(1165.74 -868.2) rotate(179.86) scale(1.01 .95)" xlink:href="#_未命名的渐变_69"/>
    <linearGradient id="_未命名的渐变_67-9" data-name="未命名的渐变 67" x1="125" y1="51.68" x2="128.09" y2="51.68" gradientTransform="matrix(1,0,0,1,0,0)" xlink:href="#_未命名的渐变_67"/>
    <linearGradient id="_未命名的渐变_69-10" data-name="未命名的渐变 69" x1="1064.67" y1="-964.7" x2="1070.09" y2="-964.7" gradientTransform="translate(1183.77 -828.72) rotate(179.86) scale(1.01 .95)" xlink:href="#_未命名的渐变_69"/>
    <linearGradient id="_未命名的渐变_67-10" data-name="未命名的渐变 67" x1="101.59" y1="86.22" x2="104.68" y2="86.22" gradientTransform="matrix(1,0,0,1,0,0)" xlink:href="#_未命名的渐变_67"/>
    <linearGradient id="_未命名的渐变_69-11" data-name="未命名的渐变 69" x1="1038.71" y1="-978.62" x2="1043.8" y2="-978.62" gradientTransform="translate(1222.66 -809.9) rotate(-177.5) scale(1.01 .95)" xlink:href="#_未命名的渐变_69"/>
    <linearGradient id="_未命名的渐变_67-11" data-name="未命名的渐变 67" x1="125.62" y1="68.69" x2="128.37" y2="68.69" gradientTransform="matrix(1,0,0,1,0,0)" xlink:href="#_未命名的渐变_67"/>
    <linearGradient id="_未命名的渐变_69-12" data-name="未命名的渐变 69" x1="1050.62" y1="-953.98" x2="1055.71" y2="-953.98" gradientTransform="translate(1207.46 -785.99) rotate(-177.5) scale(1.01 .95)" xlink:href="#_未命名的渐变_69"/>
    <linearGradient id="_未命名的渐变_67-12" data-name="未命名的渐变 67" x1="99.36" y1="68.78" x2="102.12" y2="68.78" gradientTransform="matrix(1,0,0,1,0,0)" xlink:href="#_未命名的渐变_67"/>
    <linearGradient id="_未命名的渐变_69-13" data-name="未命名的渐变 69" x1="1045.39" y1="-1022.57" x2="1050.48" y2="-1022.57" gradientTransform="translate(1223.41 -838.17) rotate(-177.5) scale(1.01 .95)" xlink:href="#_未命名的渐变_69"/>
    <linearGradient id="_未命名的渐变_67-13" data-name="未命名的渐变 67" x1="159.49" y1="93.7" x2="162.25" y2="93.7" gradientTransform="translate(-32.9 -25.76) rotate(5.01)" xlink:href="#_未命名的渐变_67"/>
    <linearGradient id="_未命名的渐变_69-14" data-name="未命名的渐变 69" x1="1030.72" y1="-956.87" x2="1035.81" y2="-956.87" gradientTransform="translate(1199.07 -806.3) rotate(-177.5) scale(1.01 .95)" xlink:href="#_未命名的渐变_69"/>
    <linearGradient id="_未命名的渐变_67-14" data-name="未命名的渐变 67" x1="111.02" y1="52.08" x2="113.77" y2="52.08" gradientTransform="matrix(1,0,0,1,0,0)" xlink:href="#_未命名的渐变_67"/>
    <linearGradient id="_未命名的渐变_56" data-name="未命名的渐变 56" x1="51.19" y1="77.12" x2="66.6" y2="77.12" gradientUnits="userSpaceOnUse">
      <stop offset="0" stop-color="#10243b" stop-opacity=".6"/>
      <stop offset=".03" stop-color="#10243b" stop-opacity=".6"/>
      <stop offset="1" stop-color="#10243b" stop-opacity=".6"/>
    </linearGradient>
    <linearGradient id="_未命名的渐变_56-2" data-name="未命名的渐变 56" x1="67.65" y1="75.15" x2="82.29" y2="75.15" xlink:href="#_未命名的渐变_56"/>
    <linearGradient id="_未命名的渐变_56-3" data-name="未命名的渐变 56" x1="83.41" y1="72.88" x2="98.81" y2="72.88" xlink:href="#_未命名的渐变_56"/>
  </defs>
  <g id="_图层_1-2" data-name="图层 1">
    <g id="_蒸汽分离干燥器" data-name="蒸汽分离干燥器">
      <g id="_背景" data-name="背景" class="cls-60">
        <rect class="cls-56" width="150" height="150"/>
        <rect id="_网格" data-name="网格" class="cls-45" width="150" height="150"/>
      </g>
      <g>
        <g>
          <path class="cls-2" d="m82.68,140.06c0,2-1.31,4.01-3.94,5.54-5.27,3.07-13.87,3.07-19.19,0-2.67-1.54-4-3.56-4-5.58s1.31-4,3.93-5.53c5.28-3.08,13.88-3.08,19.18,0,2.67,1.54,4.01,3.56,4.01,5.58Z"/>
          <path class="cls-1" d="m82.68,140.06v2.05c0,2-1.31,4.01-3.94,5.54-5.27,3.07-13.87,3.07-19.19,0-2.67-1.54-4-3.56-4-5.58v-2.05c0,2.02,1.33,4.04,4,5.58,5.32,3.08,13.91,3.08,19.19,0,2.63-1.53,3.94-3.54,3.94-5.54Z"/>
        </g>
        <path class="cls-32" d="m75.99,104.65c-3.53-1.08-7.12,1.53-10.6-.58-1.71-1.04-4.61.56-4.84,2.23l-.17,32.08c-.01,1.32.83,2.65,2.54,3.69,3.48,2.11,9.22,2.2,12.82.21,1.83-1.01,2.76-2.37,2.77-3.74l.17-29.71c-.01,1.37-.7-3.58-2.7-4.19Z"/>
        <g>
          <path class="cls-4" d="m94.14,113.52c0,3.72-2.44,7.45-7.33,10.29-9.8,5.7-25.77,5.7-35.66-.02-4.96-2.86-7.43-6.62-7.43-10.37s2.44-7.43,7.31-10.27c9.82-5.72,25.79-5.72,35.66,0,4.96,2.86,7.45,6.62,7.45,10.37Z"/>
          <path class="cls-30" d="m94.14,113.52v8.74c0,3.72-2.44,7.45-7.33,10.29-9.8,5.7-25.77,5.7-35.66-.02-4.96-2.86-7.43-6.62-7.43-10.37v-8.74c0,3.75,2.47,7.51,7.43,10.37,9.89,5.72,25.86,5.72,35.66.02,4.89-2.84,7.33-6.57,7.33-10.29Z"/>
        </g>
        <g>
          <path class="cls-29" d="m94.14,103.37c0,3.72-2.44,7.45-7.33,10.29-9.8,5.7-25.77,5.7-35.66-.02-4.96-2.86-7.43-6.62-7.43-10.37s2.44-7.43,7.31-10.27c9.82-5.72,25.79-5.72,35.66,0,4.96,2.86,7.45,6.62,7.45,10.37Z"/>
          <path class="cls-31" d="m94.14,103.37v8.74c0,3.72-2.44,7.45-7.33,10.29-9.8,5.7-25.77,5.7-35.66-.02-4.96-2.86-7.43-6.62-7.43-10.37v-8.74c0,3.75,2.47,7.51,7.43,10.37,9.89,5.72,25.86,5.72,35.66.02,4.89-2.84,7.33-6.57,7.33-10.29Z"/>
        </g>
        <g>
          <path class="cls-53" d="m23.19,39.24c-.63-12.07,6.99-27.1,17.02-33.58,4.93-3.18,9.53-3.7,13-1.97l-4.65-2.67c-3.47-1.73-8.07-1.21-13,1.97-10.03,6.47-17.65,21.5-17.02,33.58.32,6.13,2.71,10.32,6.3,12.11l4.65,2.67c-3.59-1.79-5.98-5.98-6.3-12.11Z"/>
          <ellipse class="cls-46" cx="41.14" cy="27.31" rx="26.62" ry="15.42" transform="translate(-2.02 51.31) rotate(-62.65)"/>
          <ellipse class="cls-5" cx="42.51" cy="27.93" rx="15.49" ry="8.37" transform="translate(-1.82 52.87) rotate(-62.67)"/>
          <ellipse class="cls-6" cx="40.24" cy="26.65" rx="15.45" ry="8.05" transform="translate(-1.9 50.17) rotate(-62.68)"/>
          <path class="cls-7" d="m40.44,5.44c-10.13,6.32-17.98,21.23-17.54,33.31.44,12.08,9.02,16.75,19.15,10.44,10.13-6.32,17.98-21.23,17.54-33.31-.44-12.08-9.02-16.75-19.15-10.44Zm2.26,35.03c-5.68,3.79-10.33,1.24-10.38-5.68-.05-6.93,4.51-15.61,10.2-19.39,5.68-3.79,10.33-1.24,10.38,5.68.05,6.93-4.51,15.61-10.2,19.4Z"/>
          <ellipse class="cls-15" cx="54.94" cy="11.34" rx="2.75" ry="1.48" transform="translate(19.64 54.94) rotate(-62.67)"/>
          <path class="cls-26" d="m56.21,9.78c0-.41-.09-.72-.25-.94-.29-.05-.65.04-1.03.3-1.01.67-1.82,2.21-1.81,3.44,0,.4.1.71.26.93.29.06.64-.03,1.03-.3.99-.68,1.79-2.21,1.8-3.43Z"/>
          <ellipse class="cls-16" cx="31.53" cy="45.88" rx="2.75" ry="1.48" transform="translate(-23.71 52.82) rotate(-62.67)"/>
          <path class="cls-21" d="m32.8,44.32c0-.41-.09-.72-.25-.94-.29-.05-.65.04-1.03.3-1.01.67-1.82,2.21-1.81,3.44,0,.4.1.71.26.93.29.06.64-.03,1.03-.3.99-.68,1.79-2.21,1.8-3.43Z"/>
          <ellipse class="cls-13" cx="55.35" cy="28.34" rx="2.58" ry="1.34" transform="translate(6.48 66.79) rotate(-65.3)"/>
          <path class="cls-22" d="m56.49,26.85c0-.39-.08-.69-.22-.9-.26-.05-.58.04-.92.28-.9.64-1.62,2.1-1.61,3.27,0,.38.09.68.23.89.26.05.57-.03.92-.29.88-.65,1.6-2.11,1.61-3.26Z"/>
          <ellipse class="cls-17" cx="29.1" cy="28.43" rx="2.58" ry="1.34" transform="translate(-8.89 42.99) rotate(-65.3)"/>
          <path class="cls-25" d="m30.24,26.94c0-.39-.08-.69-.22-.9-.26-.05-.58.04-.92.28-.9.64-1.62,2.1-1.61,3.27,0,.38.09.68.23.89.26.05.57-.03.92-.29.88-.65,1.6-2.11,1.61-3.26Z"/>
          <ellipse class="cls-19" cx="47.52" cy="41.3" rx="2.58" ry="1.34" transform="translate(-11.9 62.11) rotate(-60.3)"/>
          <path class="cls-23" d="m48.78,39.92c.04-.39-.02-.69-.14-.91-.26-.07-.58,0-.94.2-.95.56-1.8,1.96-1.89,3.12-.03.38.03.68.15.91.25.08.57.02.94-.2.93-.57,1.78-1.96,1.88-3.11Z"/>
          <ellipse class="cls-18" cx="40.75" cy="11.73" rx="2.58" ry="1.34" transform="translate(13.07 43.85) rotate(-65.3)"/>
          <path class="cls-24" d="m41.89,10.24c0-.39-.08-.69-.22-.9-.26-.05-.58.04-.92.28-.9.64-1.62,2.1-1.61,3.27,0,.38.09.68.23.89.26.05.57-.03.92-.29.88-.65,1.6-2.11,1.61-3.26Z"/>
        </g>
        <g class="cls-59">
          <path class="cls-3" d="m90.76,45.62l-.16,55.03c0,3.06-2.02,6.11-6.03,8.45-8.09,4.7-21.23,4.7-29.37,0-4.09-2.36-6.14-5.47-6.13-8.57l.16-55.03c0,3.1,2.04,6.2,6.13,8.57,8.14,4.7,21.28,4.7,29.37,0,4.01-2.33,6.02-5.39,6.03-8.45Z"/>
          <ellipse class="cls-54" cx="69.99" cy="45.56" rx="12.03" ry="20.77" transform="translate(24.23 115.43) rotate(-89.84)"/>
        </g>
        <g class="cls-59">
          <path class="cls-55" d="m106.69,51.84c6.04-3.49,11.27-1.29,11.99,5.36.78,7.16-3.95,16.77-10.56,21.47-.47.33-.93.63-1.39.9-6.04,3.49-11.27,1.29-12-5.37-.78-7.15,3.95-16.77,10.56-21.46.47-.33.93-.63,1.39-.9Z"/>
          <path class="cls-33" d="m51.82,14.15c-2.21-1.29-5.27-1.08-8.57.83-.46.27-.93.57-1.39.9-6.61,4.69-11.34,14.3-10.56,21.46.33,3.02,1.59,5.13,3.43,6.2l63.44,36.86c-1.84-1.07-3.1-3.17-3.43-6.2-.78-7.15,3.95-16.77,10.56-21.46.47-.33.93-.63,1.39-.9,3.3-1.91,6.35-2.12,8.57-.83L51.82,14.15Z"/>
        </g>
        <ellipse class="cls-47" cx="109.87" cy="63.06" rx="16.24" ry="9.4" transform="translate(2.67 130.56) rotate(-62.05)"/>
        <g>
          <g>
            <path class="cls-48" d="m83.94,39.94c-.21-6.94-3.92-14.06-9.52-17.67-2.75-1.77-5.32-2.06-7.26-1.1l2.59-1.49c1.94-.97,4.5-.68,7.26,1.1,5.6,3.61,9.64,10.94,9.29,17.67-.59.42-1.66,1.06-2.36,1.49Z"/>
            <path class="cls-50" d="m73.29,39.9c-4.67-2.1-2.15-6.63-9.63-11.94.25-6.74,5.03-9.35,10.68-5.83,5.65,3.52,9.45,11.14,9.6,17.81-7.56-3.53-6.83,1.5-10.65-.04Z"/>
            <ellipse class="cls-51" cx="72.58" cy="30.32" rx="1.81" ry="3.36" transform="translate(-5.82 36.74) rotate(-27.36)"/>
          </g>
          <ellipse class="cls-49" cx="72.92" cy="30.08" rx="1.75" ry="3.35" transform="translate(-5.67 36.86) rotate(-27.35)"/>
        </g>
        <g>
          <path class="cls-44" d="m95.07,79.75c-.63-12.07,6.99-27.1,17.02-33.58,4.93-3.18,9.53-3.7,13-1.97l-4.65-2.67c-3.47-1.73-8.07-1.21-13,1.97-10.03,6.47-17.65,21.5-17.02,33.58.32,6.13,2.71,10.32,6.3,12.11l4.65,2.67c-3.59-1.79-5.98-5.98-6.3-12.11Z"/>
          <ellipse class="cls-52" cx="113.02" cy="67.82" rx="26.62" ry="15.42" transform="translate(.86 137.04) rotate(-62.65)"/>
          <ellipse class="cls-20" cx="114.38" cy="68.44" rx="15.49" ry="8.37" transform="translate(1.07 138.63) rotate(-62.67)"/>
          <ellipse class="cls-27" cx="112.12" cy="67.15" rx="15.45" ry="8.05" transform="translate(.99 135.94) rotate(-62.68)"/>
          <path class="cls-12" d="m112.32,45.95c-10.13,6.32-17.98,21.23-17.54,33.31.44,12.08,9.02,16.75,19.15,10.44,10.13-6.32,17.98-21.23,17.54-33.31-.44-12.08-9.02-16.75-19.15-10.44Zm2.26,35.03c-5.68,3.79-10.33,1.24-10.38-5.68-.05-6.93,4.51-15.61,10.2-19.39,5.68-3.79,10.33-1.24,10.38,5.68.05,6.93-4.51,15.61-10.2,19.4Z"/>
          <ellipse class="cls-14" cx="126.81" cy="51.85" rx="2.75" ry="1.48" transform="translate(22.53 140.7) rotate(-62.67)"/>
          <path class="cls-28" d="m128.09,50.29c0-.41-.09-.72-.25-.94-.29-.05-.65.04-1.03.3-1.01.67-1.82,2.21-1.81,3.44,0,.4.1.71.26.93.29.06.64-.03,1.03-.3.99-.68,1.79-2.21,1.8-3.43Z"/>
          <ellipse class="cls-36" cx="103.41" cy="86.39" rx="2.75" ry="1.48" transform="translate(-20.82 138.59) rotate(-62.67)"/>
          <path class="cls-41" d="m104.68,84.83c0-.41-.09-.72-.25-.94-.29-.05-.65.04-1.03.3-1.01.67-1.82,2.21-1.81,3.44,0,.4.1.71.26.93.29.06.64-.03,1.03-.3.99-.68,1.79-2.21,1.8-3.43Z"/>
          <ellipse class="cls-35" cx="127.23" cy="68.85" rx="2.58" ry="1.34" transform="translate(11.53 155.68) rotate(-65.3)"/>
          <path class="cls-40" d="m128.37,67.36c0-.39-.08-.69-.22-.9-.26-.05-.58.04-.92.28-.9.64-1.62,2.1-1.61,3.27,0,.38.09.68.23.89.26.05.57-.03.92-.29.88-.65,1.6-2.11,1.61-3.26Z"/>
          <ellipse class="cls-37" cx="100.98" cy="68.94" rx="2.58" ry="1.34" transform="translate(-3.84 131.88) rotate(-65.3)"/>
          <path class="cls-42" d="m102.12,67.45c0-.39-.08-.69-.22-.9-.26-.05-.58.04-.92.28-.9.64-1.62,2.1-1.61,3.27,0,.38.09.68.23.89.26.05.57-.03.92-.29.88-.65,1.6-2.11,1.61-3.26Z"/>
          <ellipse class="cls-34" cx="119.4" cy="81.81" rx="2.58" ry="1.34" transform="translate(-10.82 144.99) rotate(-60.3)"/>
          <path class="cls-43" d="m120.66,80.42c.04-.39-.02-.69-.14-.91-.26-.07-.58,0-.94.2-.95.56-1.8,1.96-1.89,3.12-.03.38.03.68.15.91.25.08.57.02.94-.2.93-.57,1.78-1.96,1.88-3.11Z"/>
          <ellipse class="cls-38" cx="112.63" cy="52.23" rx="2.58" ry="1.34" transform="translate(18.12 132.74) rotate(-65.3)"/>
          <path class="cls-39" d="m113.77,50.75c0-.39-.08-.69-.22-.9-.26-.05-.58.04-.92.28-.9.64-1.62,2.1-1.61,3.27,0,.38.09.68.23.89.26.05.57-.03.92-.29.88-.65,1.6-2.11,1.61-3.26Z"/>
        </g>
      </g>
    
    </g>
  </g>
</svg>