<?xml version="1.0" encoding="UTF-8"?>
<svg id="_图层_2" data-name="图层 2" xmlns="http://www.w3.org/2000/svg" xmlns:xlink="http://www.w3.org/1999/xlink" viewBox="0 0 150 150">
  <defs>
    <style>
      .cls-1 {
        fill: url(#_未命名的渐变_21);
      }

      .cls-1, .cls-2, .cls-3, .cls-4, .cls-5, .cls-6, .cls-7, .cls-8, .cls-9, .cls-10, .cls-11, .cls-12, .cls-13 {
        stroke-width: 0px;
      }

      .cls-2 {
        fill: url(#_未命名的渐变_45);
      }

      .cls-3 {
        fill: url(#_未命名的渐变_41);
      }

      .cls-4 {
        fill: url(#_未命名的渐变_56);
      }

      .cls-5, .cls-14 {
        fill: none;
      }

      .cls-14 {
        stroke: #fff;
        stroke-miterlimit: 10;
        stroke-width: .1px;
      }

      .cls-6 {
        fill: url(#_未命名的渐变_56-2);
      }

      .cls-7 {
        fill: url(#_未命名的渐变_56-3);
      }

      .cls-8 {
        fill: url(#_未命名的渐变_41-2);
      }

      .cls-9 {
        fill: url(#_新建图案);
        opacity: .1;
      }

      .cls-15 {
        opacity: .2;
      }

      .cls-10 {
        fill: url(#_未命名的渐变_2);
      }

      .cls-11 {
        fill: url(#_未命名的渐变_7);
      }

      .cls-16 {
        opacity: 0;
      }

      .cls-12 {
        fill: #171d23;
      }

      .cls-13 {
        fill: #000715;
      }
    </style>
    <pattern id="_新建图案" data-name="新建图案" x="0" y="0" width="18.57" height="32.16" patternTransform="translate(3884.55 470.14)" patternUnits="userSpaceOnUse" viewBox="0 0 18.57 32.16">
      <g>
        <rect class="cls-5" x="0" y="0" width="18.57" height="32.16"/>
        <g>
          <g>
            <polyline class="cls-14" points="18.57 21.44 18.57 32.16 18.57 42.88"/>
            <polyline class="cls-14" points="9.29 26.8 18.57 32.16 27.85 37.51 27.85 37.52"/>
            <polyline class="cls-14" points="9.29 37.52 9.29 37.51 18.57 32.16 27.85 26.8"/>
          </g>
          <polygon class="cls-14" points="27.85 37.52 27.85 26.8 18.57 21.44 9.28 26.8 9.28 37.52 18.57 42.88 27.85 37.52"/>
        </g>
        <g>
          <g>
            <polyline class="cls-14" points="0 21.44 0 32.16 0 42.88"/>
            <polyline class="cls-14" points="-9.28 26.8 0 32.16 9.28 37.51 9.28 37.52"/>
            <polyline class="cls-14" points="-9.28 37.52 -9.28 37.51 0 32.16 9.28 26.8"/>
          </g>
          <polygon class="cls-14" points="9.28 37.52 9.28 26.8 0 21.44 -9.28 26.8 -9.28 37.52 0 42.88 9.28 37.52"/>
        </g>
        <g>
          <g>
            <polyline class="cls-14" points="18.57 10.72 27.85 16.08 37.13 21.43 37.13 21.44"/>
            <polyline class="cls-14" points="18.57 21.44 18.57 21.43 27.85 16.08 37.13 10.72"/>
          </g>
          <polygon class="cls-14" points="37.14 21.44 37.14 10.72 27.85 5.36 18.57 10.72 18.57 21.44 27.85 26.8 37.14 21.44"/>
        </g>
        <g>
          <g>
            <polyline class="cls-14" points="9.28 5.36 9.28 16.08 9.28 26.8"/>
            <polyline class="cls-14" points="0 10.72 9.28 16.08 18.56 21.43 18.56 21.44"/>
            <polyline class="cls-14" points="0 21.44 0 21.43 9.28 16.08 18.56 10.72"/>
          </g>
          <polygon class="cls-14" points="18.57 21.44 18.57 10.72 9.28 5.36 0 10.72 0 21.44 9.28 26.8 18.57 21.44"/>
        </g>
        <g>
          <g>
            <polyline class="cls-14" points="-18.56 10.72 -9.28 16.08 0 21.43 0 21.44"/>
            <polyline class="cls-14" points="-18.56 21.44 -18.56 21.43 -9.28 16.08 0 10.72"/>
          </g>
          <polygon class="cls-14" points="0 21.44 0 10.72 -9.28 5.36 -18.57 10.72 -18.57 21.44 -9.28 26.8 0 21.44"/>
        </g>
        <g>
          <g>
            <polyline class="cls-14" points="18.57 -10.72 18.57 0 18.57 10.72"/>
            <polyline class="cls-14" points="9.29 -5.36 18.57 0 27.85 5.35 27.85 5.36"/>
            <polyline class="cls-14" points="9.29 5.36 9.29 5.35 18.57 0 27.85 -5.36"/>
          </g>
          <polygon class="cls-14" points="27.85 5.36 27.85 -5.36 18.57 -10.72 9.28 -5.36 9.28 5.36 18.57 10.72 27.85 5.36"/>
        </g>
        <g>
          <g>
            <polyline class="cls-14" points="0 -10.72 0 0 0 10.72"/>
            <polyline class="cls-14" points="-9.28 -5.36 0 0 9.28 5.35 9.28 5.36"/>
            <polyline class="cls-14" points="-9.28 5.36 -9.28 5.35 0 0 9.28 -5.36"/>
          </g>
          <polygon class="cls-14" points="9.28 5.36 9.28 -5.36 0 -10.72 -9.28 -5.36 -9.28 5.36 0 10.72 9.28 5.36"/>
        </g>
      </g>
    </pattern>
    <linearGradient id="_未命名的渐变_21" data-name="未命名的渐变 21" x1="80.1" y1="54.6" x2="55.92" y2="96.48" gradientUnits="userSpaceOnUse">
      <stop offset="0" stop-color="#35455c"/>
      <stop offset=".15" stop-color="#7497d0"/>
      <stop offset=".25" stop-color="#7497d0"/>
      <stop offset=".9" stop-color="#11161a"/>
      <stop offset="1" stop-color="#263141"/>
    </linearGradient>
    <linearGradient id="_未命名的渐变_41" data-name="未命名的渐变 41" x1="130.38" y1="89.87" x2="130.38" y2="133.66" gradientUnits="userSpaceOnUse">
      <stop offset="0" stop-color="#81aaea"/>
      <stop offset="1" stop-color="#4d709c"/>
    </linearGradient>
    <linearGradient id="_未命名的渐变_45" data-name="未命名的渐变 45" x1="131" y1="89.87" x2="131" y2="134.63" gradientUnits="userSpaceOnUse">
      <stop offset="0" stop-color="#7497d0"/>
      <stop offset="1" stop-color="#263141"/>
    </linearGradient>
    <linearGradient id="_未命名的渐变_41-2" data-name="未命名的渐变 41" x1="131" y1="89.87" x2="131" y2="121.6" xlink:href="#_未命名的渐变_41"/>
    <linearGradient id="_未命名的渐变_7" data-name="未命名的渐变 7" x1="131.12" y1="97.6" x2="131.12" y2="125.88" gradientUnits="userSpaceOnUse">
      <stop offset="0" stop-color="#283140"/>
      <stop offset=".1" stop-color="#12161a"/>
      <stop offset=".75" stop-color="#7a98cc"/>
      <stop offset=".85" stop-color="#7a98cc"/>
      <stop offset="1" stop-color="#38455a"/>
    </linearGradient>
    <linearGradient id="_未命名的渐变_2" data-name="未命名的渐变 2" x1="131.12" y1="125.51" x2="131.12" y2="97.23" gradientUnits="userSpaceOnUse">
      <stop offset="0" stop-color="#4cfafe" stop-opacity=".8"/>
      <stop offset=".03" stop-color="#47f0fe" stop-opacity=".73"/>
      <stop offset=".11" stop-color="#3cd9fe" stop-opacity=".56"/>
      <stop offset=".19" stop-color="#33c4fe" stop-opacity=".41"/>
      <stop offset=".28" stop-color="#2bb2fe" stop-opacity=".28"/>
      <stop offset=".38" stop-color="#24a4fe" stop-opacity=".18"/>
      <stop offset=".49" stop-color="#1f99fe" stop-opacity=".1"/>
      <stop offset=".61" stop-color="#1b91fe" stop-opacity=".04"/>
      <stop offset=".76" stop-color="#198dfe" stop-opacity="0"/>
      <stop offset="1" stop-color="#198cff" stop-opacity="0"/>
    </linearGradient>
    <linearGradient id="_未命名的渐变_56" data-name="未命名的渐变 56" x1="51.19" y1="77.12" x2="66.6" y2="77.12" gradientUnits="userSpaceOnUse">
      <stop offset="0" stop-color="#10243b" stop-opacity=".6"/>
      <stop offset=".03" stop-color="#10243b" stop-opacity=".6"/>
      <stop offset="1" stop-color="#10243b" stop-opacity=".6"/>
    </linearGradient>
    <linearGradient id="_未命名的渐变_56-2" data-name="未命名的渐变 56" x1="67.65" y1="75.15" x2="82.29" y2="75.15" xlink:href="#_未命名的渐变_56"/>
    <linearGradient id="_未命名的渐变_56-3" data-name="未命名的渐变 56" x1="83.41" y1="72.88" x2="98.81" y2="72.88" xlink:href="#_未命名的渐变_56"/>
  </defs>
  <g id="_图层_1-2" data-name="图层 1">
    <g id="_饱和蒸汽管" data-name="饱和蒸汽管">
      <g id="_背景" data-name="背景" class="cls-16">
        <rect class="cls-13" width="150" height="150"/>
        <rect id="_网格" data-name="网格" class="cls-9" width="150" height="150"/>
      </g>
      <path class="cls-1" d="m29.67,25.48c-3.1-1.8-7.38-1.55-12.12,1.19C8.16,32.1.56,45.26.59,56.06c.02,5.37,1.91,9.14,4.96,10.92l112.77,65.53c-3.05-1.78-4.95-5.55-4.96-10.92-.03-10.81,7.57-23.97,16.97-29.39,4.73-2.73,9.02-2.99,12.12-1.19L29.67,25.48Z"/>
      <path class="cls-3" d="m130.33,92.2c-9.4,5.43-17,18.59-16.97,29.39.03,10.81,7.68,15.16,17.08,9.73,9.4-5.43,17-18.58,16.97-29.39s-7.68-15.17-17.08-9.74Z"/>
      <path class="cls-2" d="m137.82,89.87c-2.62,0-5.39.83-8.22,2.46-9.34,5.39-16.63,18.03-16.6,28.76.02,8.1,4.52,13.53,11.18,13.53,2.62,0,5.39-.83,8.21-2.46,9.34-5.39,16.63-18.03,16.6-28.76-.02-8.1-4.52-13.54-11.18-13.54Zm-6.77,39.97c-8.45,4.88-15.32.97-15.35-8.75-.03-9.71,6.8-21.54,15.25-26.42,8.45-4.88,15.33-.96,15.36,8.75s-6.8,21.54-15.26,26.42Z"/>
      <path class="cls-8" d="m129.6,93.33c2.83-1.63,5.59-2.46,8.22-2.46,6.52,0,10.96,5.22,11.17,13.03,0-.16.02-.33.02-.49-.02-8.1-4.52-13.54-11.18-13.54-2.62,0-5.39.83-8.22,2.46-9.34,5.39-16.63,18.03-16.6,28.76,0,.17.01.34.02.51.19-10.63,7.38-22.96,16.58-28.27Z"/>
      <path class="cls-11" d="m131.08,99.11c6.08-3.51,11.02-.69,11.04,6.28.02,6.98-4.89,15.48-10.96,18.98s-11.01.69-11.03-6.29c-.02-6.98,4.89-15.48,10.96-18.98Z"/>
      <path class="cls-10" d="m131.08,98.74c6.08-3.51,11.02-.69,11.04,6.28.02,6.98-4.89,15.48-10.96,18.98s-11.01.69-11.03-6.29c-.02-6.98,4.89-15.48,10.96-18.98Z"/>
      <path class="cls-12" d="m132.4,131.09c-2.83,1.63-5.59,2.46-8.22,2.46-6.52,0-10.96-5.22-11.17-13.03,0,.16-.02.33-.02.49.02,8.1,4.52,13.54,11.18,13.54,2.62,0,5.39-.83,8.22-2.46,9.34-5.39,16.63-18.03,16.6-28.76,0-.17-.01-.34-.02-.51-.19,10.63-7.38,22.96-16.58,28.27Z"/>

    </g>
  </g>
</svg>