<svg xmlns="http://www.w3.org/2000/svg" xmlns:xlink="http://www.w3.org/1999/xlink" viewBox="0 0 150 150">
    <defs>
        <style>
            .cls-1 {
                fill: #5d5f69;
            }

            .cls-2 {
                fill: #858792;
            }

            .cls-3 {
                fill: #53565e;
            }

            .cls-4 {
                fill: #3e3938;
            }

            .cls-5 {
                fill: #e57882;
            }

            .cls-6 {
                fill: url(#未命名的渐变_69);
            }

            .cls-7 {
                opacity: 0.18;
                fill: url(#未命名的渐变_31);
            }

            .cls-8 {
                opacity: 0.2;
            }
        </style>
        <radialGradient id="未命名的渐变_69" cx="75" cy="76.95" r="48.96" gradientUnits="userSpaceOnUse">
            <stop offset="0" stop-color="#fff" stop-opacity="0.5" />
            <stop offset="0.03" stop-color="#fff" stop-opacity="0.49" />
            <stop offset="0.95" stop-color="#fff" stop-opacity="0.2" />
        </radialGradient>
        <radialGradient id="未命名的渐变_31" cx="75" cy="73.83" r="40.47" gradientUnits="userSpaceOnUse">
            <stop offset="0" stop-color="#f4f4f4" stop-opacity="0" />
            <stop offset="0.38" stop-color="#f4f4f4" stop-opacity="0.01" />
            <stop offset="0.52" stop-color="#f3f3f3" stop-opacity="0.04" />
            <stop offset="0.62" stop-color="#f2f2f2" stop-opacity="0.09" />
            <stop offset="0.7" stop-color="#f1f1f1" stop-opacity="0.17" />
            <stop offset="0.76" stop-color="#efefef" stop-opacity="0.26" />
            <stop offset="0.82" stop-color="#ededed" stop-opacity="0.38" />
            <stop offset="0.88" stop-color="#ebebeb" stop-opacity="0.53" />
            <stop offset="0.93" stop-color="#e8e8e8" stop-opacity="0.69" />
            <stop offset="0.97" stop-color="#e4e4e4" stop-opacity="0.88" />
            <stop offset="1" stop-color="#e2e2e2" />
        </radialGradient>
    </defs>
    <title>Light- red（红灯） (6)</title>
    <g id="图层_2" data-name="图层 2">
        <g id="图层_20" data-name="图层 20">
            <g id="Light-_red_红灯_" data-name="Light- red（红灯）">
                <polygon class="cls-1"
                    points="95.1 0 54.9 0 20.1 20.1 0 54.9 0 95.1 20.1 129.9 54.9 150 95.1 150 129.9 129.9 150 95.1 150 54.9 129.9 20.1 95.1 0" />
                <polygon class="cls-2"
                    points="93.84 4.67 56.16 4.67 23.52 23.52 4.67 56.16 4.67 93.84 23.52 126.48 56.16 145.32 93.84 145.32 126.48 126.48 145.32 93.84 145.32 56.16 126.48 23.52 93.84 4.67" />
                <polygon class="cls-3"
                    points="90.5 17.14 59.5 17.14 32.65 32.65 17.14 59.5 17.14 90.5 32.65 117.35 59.5 132.86 90.5 132.86 117.35 117.35 132.86 90.5 132.86 59.5 117.35 32.65 90.5 17.14" />
                <circle class="cls-4" cx="75" cy="75" r="53.77" />
                <circle class="cls-5" cx="75" cy="75" r="49.09" />
                <path class="cls-6"
                    d="M128.77,74.61S124.09,42.66,75,42.66a59.67,59.67,0,0,0-53.77,32,53.77,53.77,0,0,1,107.54,0Z" />
                <circle class="cls-7" cx="75" cy="73.83" r="41.88" />
                <g class="cls-8">
                    <path
                        d="M56.78,79.79c-.17.37-.39.79-.65,1.25s-.54.95-.84,1.44-.6,1-.9,1.43-.59.88-.85,1.25L51.2,84c.27-.37.56-.77.87-1.22s.61-.9.89-1.36.55-.91.79-1.36.44-.83.59-1.18Zm4-1.85v4.12a4.1,4.1,0,0,1-.13,1.17,1.74,1.74,0,0,1-.45.73,2.42,2.42,0,0,1-.81.46c-.33.11-.73.23-1.21.34L57,85.05l-.83-2.59.9-.22a2.73,2.73,0,0,0,.72-.27.65.65,0,0,0,.2-.55V78.31l-5.59.74L53,71.31c.62-.08,1.28-.18,2-.29s1.4-.22,2.11-.34l2.14-.39c.71-.13,1.4-.27,2.06-.41s1.29-.27,1.87-.41,1.11-.26,1.57-.39l.55,2.63-2.08.48c-.76.17-1.57.34-2.41.5l-2.6.49-2.58.45-.17,2.55L58,75.84V73.63l2.78-.31v2.15l4.93-.65v2.47Zm2.72-.22c.17.19.39.45.65.78s.54.69.83,1.08.58.79.86,1.2.54.81.77,1.18l-2.36,1.82c-.18-.35-.4-.74-.65-1.15s-.51-.83-.79-1.24L62,80.25c-.27-.36-.51-.66-.73-.91Z" />
                    <path
                        d="M82.3,72.9v2.21L67.66,77V74.82l3.27-.43.25-1-2.39.31V71.84l2.84-.37.21-.87-3.4.44V68.85l13.08-1.73v2.2l-6.85.9-.21.88,6-.79-.15,2.85ZM69.11,77.56,80.86,76v5.63L69.11,83.19Zm2.59,3.09,6.44-.84V78.52l-6.44.85ZM73.78,74l3.87-.51.07-1L74,73.05Z" />
                    <path
                        d="M89,75.55c-.17.37-.39.79-.65,1.25s-.54,1-.84,1.44-.6,1-.9,1.43-.59.88-.85,1.25l-2.34-1.13c.27-.36.56-.76.87-1.21s.61-.9.9-1.36.55-.91.79-1.36.43-.83.58-1.18Zm4-1.85v4.12A4.05,4.05,0,0,1,92.84,79a1.56,1.56,0,0,1-.45.73,2.12,2.12,0,0,1-.8.45c-.33.12-.74.23-1.22.35l-1.17.29-.83-2.6.9-.21a2.17,2.17,0,0,0,.72-.28.6.6,0,0,0,.21-.54V74.07l-5.6.74.58-7.74c.62-.08,1.28-.18,2-.29s1.4-.22,2.11-.34l2.14-.39c.72-.13,1.4-.27,2.07-.41s1.28-.27,1.87-.41,1.1-.26,1.56-.39l.55,2.63L95.38,68c-.77.17-1.57.34-2.42.5s-1.71.33-2.59.49l-2.58.45-.18,2.55,2.59-.34V69.38l2.78-.3v2.15l4.93-.65v2.47Zm2.71-.22q.27.28.66.78l.83,1.08c.29.39.58.79.86,1.2s.53.81.76,1.18l-2.36,1.82c-.18-.35-.4-.74-.65-1.16s-.51-.82-.79-1.23-.54-.78-.81-1.14-.51-.66-.72-.91Z" />
                </g>
              
            </g>
        </g>
    </g>
</svg>