<svg xmlns="http://www.w3.org/2000/svg" xmlns:xlink="http://www.w3.org/1999/xlink" viewBox="0 0 438.8 150">
    <defs>
        <style>
            .cls-1 {
                fill: #5d5f69;
            }

            .cls-2 {
                fill: #858792;
            }

            .cls-3 {
                fill: #53565e;
            }

            .cls-4 {
                fill: #3e3938;
            }

            .cls-5 {
                fill: #f6eb68;
            }

            .cls-6 {
                opacity: 0.68;
                fill: url(#未命名的渐变_31);
            }

            .cls-7 {
                opacity: 0.2;
            }
        </style>
        <radialGradient id="未命名的渐变_31" cx="75" cy="73.83" r="40.47" gradientUnits="userSpaceOnUse">
            <stop offset="0" stop-color="#f4f4f4" stop-opacity="0" />
            <stop offset="0.38" stop-color="#f4f4f4" stop-opacity="0.01" />
            <stop offset="0.52" stop-color="#f3f3f3" stop-opacity="0.04" />
            <stop offset="0.62" stop-color="#f2f2f2" stop-opacity="0.09" />
            <stop offset="0.7" stop-color="#f1f1f1" stop-opacity="0.17" />
            <stop offset="0.76" stop-color="#efefef" stop-opacity="0.26" />
            <stop offset="0.82" stop-color="#ededed" stop-opacity="0.38" />
            <stop offset="0.88" stop-color="#ebebeb" stop-opacity="0.53" />
            <stop offset="0.93" stop-color="#e8e8e8" stop-opacity="0.69" />
            <stop offset="0.97" stop-color="#e4e4e4" stop-opacity="0.88" />
            <stop offset="1" stop-color="#e2e2e2" />
        </radialGradient>
    </defs>
    <title>Light- yellow（黄灯） (6)</title>
    <g id="图层_2" data-name="图层 2">
        <g id="图层_20" data-name="图层 20">
            <g id="Light-_yellow_黄灯_" data-name="Light- yellow（黄灯）">
                <polygon class="cls-1"
                    points="95.1 0 54.9 0 20.1 20.1 0 54.9 0 95.1 20.1 129.9 54.9 150 95.1 150 129.9 129.9 150 95.1 150 54.9 129.9 20.1 95.1 0" />
                <polygon class="cls-2"
                    points="93.84 4.67 56.16 4.67 23.52 23.52 4.67 56.16 4.67 93.84 23.52 126.48 56.16 145.32 93.84 145.32 126.48 126.48 145.32 93.84 145.32 56.16 126.48 23.52 93.84 4.67" />
                <polygon class="cls-3"
                    points="90.5 17.14 59.5 17.14 32.65 32.65 17.14 59.5 17.14 90.5 32.65 117.35 59.5 132.86 90.5 132.86 117.35 117.35 132.86 90.5 132.86 59.5 117.35 32.65 90.5 17.14" />
                <circle class="cls-4" cx="75" cy="75" r="53.77" />
                <circle class="cls-5" cx="75" cy="75" r="49.09" />
                <circle class="cls-6" cx="75" cy="73.83" r="41.88" />

            </g>
           
        </g>
    </g>
</svg>