<svg xmlns="http://www.w3.org/2000/svg" xmlns:xlink="http://www.w3.org/1999/xlink" viewBox="0 0 117.77 151">
    <defs>
        <style>
            .cls-1,
            .cls-4,
            .cls-6 {
                fill: none;
                stroke-miterlimit: 10;
            }

            .cls-1 {
                stroke: url(#未命名的渐变_154);
            }

            .cls-2,
            .cls-3 {
                opacity: 0.3;
            }

            .cls-2 {
                fill: url(#未命名的渐变_108);
            }

            .cls-3 {
                fill: url(#未命名的渐变_289);
            }

            .cls-4 {
                stroke-width: 0.5px;
                stroke: url(#未命名的渐变_154-2);
            }

            .cls-5 {
                opacity: 0.6;
            }

            .cls-6 {
                stroke: #606060;
                stroke-width: 0.25px;
            }

            .cls-7 {
                fill: url(#未命名的渐变_198);
            }

            .cls-8 {
                opacity: 0.2;
            }
        </style>
        <linearGradient id="未命名的渐变_154" x1="6.68" y1="75.5" x2="117.77" y2="75.5" gradientUnits="userSpaceOnUse">
            <stop offset="0" stop-color="#e6f1ff" />
            <stop offset="0.06" stop-color="#5d6166" />
            <stop offset="0.78" stop-color="#eef7ff" />
            <stop offset="0.93" stop-color="#9ba1ab" />
            <stop offset="1" stop-color="#767b82" />
        </linearGradient>
        <linearGradient id="未命名的渐变_108" x1="17.09" y1="17.23" x2="3.88" y2="4.02" gradientUnits="userSpaceOnUse">
            <stop offset="0" stop-color="#a9b1bb" />
            <stop offset="0.06" stop-color="#5d6166" />
            <stop offset="0.78" stop-color="#e2eaf2" />
            <stop offset="0.93" stop-color="#9ba1ab" />
            <stop offset="1" stop-color="#767b82" />
        </linearGradient>
        <linearGradient id="未命名的渐变_289" x1="7.4" y1="75.5" x2="117.04" y2="75.5" gradientUnits="userSpaceOnUse">
            <stop offset="0" stop-color="#a9b1bb" />
            <stop offset="0.06" stop-color="#5d6166" />
            <stop offset="0.78" stop-color="#eef7ff" />
            <stop offset="0.93" stop-color="#9ba1ab" />
            <stop offset="1" stop-color="#767b82" />
        </linearGradient>
        <linearGradient id="未命名的渐变_154-2" x1="0" y1="10.59" x2="14.26" y2="10.59" xlink:href="#未命名的渐变_154" />
        <linearGradient id="未命名的渐变_198" x1="62.05" y1="148.36" x2="62.05" y2="139.18" gradientUnits="userSpaceOnUse">
            <stop offset="0" stop-color="#acafb3" />
            <stop offset="0.16" stop-color="#b8bbbe" stop-opacity="0.75" />
            <stop offset="0.36" stop-color="#c5c8cb" stop-opacity="0.49" />
            <stop offset="0.55" stop-color="#d0d2d4" stop-opacity="0.28" />
            <stop offset="0.73" stop-color="#d7d9db" stop-opacity="0.12" />
            <stop offset="0.88" stop-color="#dbdde0" stop-opacity="0.03" />
            <stop offset="1" stop-color="#dddfe1" stop-opacity="0" />
        </linearGradient>
    </defs>
    <title>Beaker 1(烧杯)</title>
    <g id="图层_2" data-name="图层 2">
        <g id="图层_21" data-name="图层 21">
            <g id="Beaker_1_烧杯_" data-name="Beaker 1(烧杯)">
                <path class="cls-1"
                    d="M7.4.5,8.5,3.35A11.73,11.73,0,0,1,14,13.29V131.8a18.76,18.76,0,0,0,18.71,18.7h59a18.76,18.76,0,0,0,18.71-18.7V13.29A11.72,11.72,0,0,1,116,3.35L117,.5Z" />
                <path class="cls-2" d="M14,13.29v7l-.44.5L.35,7.54,7.41.5,8.49,3.35A11.69,11.69,0,0,1,14,13.29Z" />
                <path class="cls-3"
                    d="M7.4.5,8.5,3.35A11.73,11.73,0,0,1,14,13.29V131.8a18.76,18.76,0,0,0,18.71,18.7h59a18.76,18.76,0,0,0,18.71-18.7V13.29A11.72,11.72,0,0,1,116,3.35L117,.5Z" />
                <path class="cls-4" d="M14,13.29v7l-.44.5L.35,7.54,7.41.5,8.49,3.35A11.69,11.69,0,0,1,14,13.29Z" />
                <g class="cls-5">
                    <polyline class="cls-6" points="90.21 124.81 72.39 124.81 72.39 41.67 89.48 41.67" />
                    <line class="cls-6" x1="72.39" y1="114.62" x2="80.94" y2="114.62" />
                    <line class="cls-6" x1="72.39" y1="93.7" x2="80.94" y2="93.7" />
                    <line class="cls-6" x1="72.39" y1="72.78" x2="80.94" y2="72.78" />
                    <line class="cls-6" x1="72.39" y1="51.85" x2="80.94" y2="51.85" />
                    <line class="cls-6" x1="72.39" y1="104.44" x2="89.48" y2="104.44" />
                    <line class="cls-6" x1="72.39" y1="83.52" x2="89.48" y2="83.52" />
                    <line class="cls-6" x1="72.39" y1="62.6" x2="89.48" y2="62.6" />
                </g>
                <g class="cls-5">
                    <path
                        d="M96.39,126.46a3,3,0,0,1-.45,0,3.06,3.06,0,0,1-.4-.07v-.85a3.75,3.75,0,0,0,.39.1,2.54,2.54,0,0,0,.41,0,1.6,1.6,0,0,0,.39,0,.86.86,0,0,0,.32-.15.83.83,0,0,0,.2-.3,1.44,1.44,0,0,0,.07-.46,1,1,0,0,0-.23-.73,1.08,1.08,0,0,0-.75-.21l-.4,0c-.14,0-.28,0-.41.09l.28-2.89h2v.84H96.38l-.14,1.24.21,0h.23a1.28,1.28,0,0,1,1,.4,1.91,1.91,0,0,1,.35,1.26,1.84,1.84,0,0,1-.45,1.37A1.69,1.69,0,0,1,96.39,126.46Z" />
                    <path
                        d="M100.1,126.46a1.34,1.34,0,0,1-.58-.12,1.11,1.11,0,0,1-.45-.44,2.48,2.48,0,0,1-.28-.85,7.35,7.35,0,0,1-.11-1.37,7.2,7.2,0,0,1,.11-1.37,2.63,2.63,0,0,1,.28-.86,1.08,1.08,0,0,1,.45-.43,1.34,1.34,0,0,1,.58-.12,1.37,1.37,0,0,1,.58.12,1,1,0,0,1,.45.43,2.89,2.89,0,0,1,.28.86,7.32,7.32,0,0,1,.1,1.37,7.46,7.46,0,0,1-.1,1.37,2.72,2.72,0,0,1-.28.85,1.05,1.05,0,0,1-.45.44A1.37,1.37,0,0,1,100.1,126.46Zm0-.84a.52.52,0,0,0,.31-.09.58.58,0,0,0,.21-.3,2.27,2.27,0,0,0,.13-.59c0-.25,0-.57,0-1s0-.71,0-1a2.27,2.27,0,0,0-.13-.59.57.57,0,0,0-.21-.31.59.59,0,0,0-.31-.08.63.63,0,0,0-.32.08.62.62,0,0,0-.2.31,2,2,0,0,0-.12.59,9.24,9.24,0,0,0,0,1.92,2,2,0,0,0,.12.59.63.63,0,0,0,.2.3A.55.55,0,0,0,100.1,125.62Z" />
                    <path d="M96.6,102.89l-1,.26v-.83l1.19-.33h.52v5.41H96.6Z" />
                    <path
                        d="M100.1,107.48a1.34,1.34,0,0,1-.58-.12,1.11,1.11,0,0,1-.45-.44,2.48,2.48,0,0,1-.28-.85,7.35,7.35,0,0,1-.11-1.37,7.2,7.2,0,0,1,.11-1.37,2.63,2.63,0,0,1,.28-.86,1.08,1.08,0,0,1,.45-.43,1.34,1.34,0,0,1,.58-.12,1.37,1.37,0,0,1,.58.12,1,1,0,0,1,.45.43,2.89,2.89,0,0,1,.28.86,7.32,7.32,0,0,1,.1,1.37,7.46,7.46,0,0,1-.1,1.37,2.72,2.72,0,0,1-.28.85,1.05,1.05,0,0,1-.45.44A1.37,1.37,0,0,1,100.1,107.48Zm0-.84a.52.52,0,0,0,.31-.09.58.58,0,0,0,.21-.3,2.27,2.27,0,0,0,.13-.59c0-.25,0-.57,0-1s0-.71,0-1a2.27,2.27,0,0,0-.13-.59.57.57,0,0,0-.21-.31.59.59,0,0,0-.31-.08.63.63,0,0,0-.32.08.62.62,0,0,0-.2.31,2,2,0,0,0-.12.59,9.24,9.24,0,0,0,0,1.92,2,2,0,0,0,.12.59.63.63,0,0,0,.2.3A.55.55,0,0,0,100.1,106.64Z" />
                    <path
                        d="M103.46,107.48a1.34,1.34,0,0,1-.58-.12,1.05,1.05,0,0,1-.45-.44,2.7,2.7,0,0,1-.29-.85,8.46,8.46,0,0,1-.1-1.37,8.28,8.28,0,0,1,.1-1.37,2.87,2.87,0,0,1,.29-.86,1,1,0,0,1,.45-.43,1.34,1.34,0,0,1,.58-.12,1.37,1.37,0,0,1,.58.12,1,1,0,0,1,.44.43,2.61,2.61,0,0,1,.29.86,7.32,7.32,0,0,1,.1,1.37,7.46,7.46,0,0,1-.1,1.37,2.47,2.47,0,0,1-.29.85,1,1,0,0,1-.44.44A1.37,1.37,0,0,1,103.46,107.48Zm0-.84a.54.54,0,0,0,.31-.09.58.58,0,0,0,.21-.3,2.27,2.27,0,0,0,.13-.59c0-.25,0-.57,0-1s0-.71,0-1a2.27,2.27,0,0,0-.13-.59.57.57,0,0,0-.21-.31.62.62,0,0,0-.31-.08.66.66,0,0,0-.32.08.7.7,0,0,0-.21.31,2.87,2.87,0,0,0-.12.59c0,.25,0,.57,0,1s0,.71,0,1a2.87,2.87,0,0,0,.12.59.72.72,0,0,0,.21.3A.57.57,0,0,0,103.46,106.64Z" />
                    <path d="M96.6,82.3l-1,.26v-.83l1.19-.32h.52v5.4H96.6Z" />
                    <path
                        d="M99.75,86.89l-.45,0-.4-.08v-.85a2.24,2.24,0,0,0,.39.1,2.46,2.46,0,0,0,.41,0,1.75,1.75,0,0,0,.4,0,1,1,0,0,0,.31-.16.79.79,0,0,0,.2-.29,1.5,1.5,0,0,0,.07-.47,1,1,0,0,0-.23-.72,1,1,0,0,0-.75-.22,1.84,1.84,0,0,0-.39,0l-.42.08.28-2.88h2v.84H99.74l-.14,1.23.21,0H100a1.3,1.3,0,0,1,1,.4,1.91,1.91,0,0,1,.35,1.26,1.84,1.84,0,0,1-.45,1.37A1.65,1.65,0,0,1,99.75,86.89Z" />
                    <path
                        d="M103.46,86.89a1.34,1.34,0,0,1-.58-.12,1.08,1.08,0,0,1-.45-.43,2.87,2.87,0,0,1-.29-.86,8.46,8.46,0,0,1-.1-1.37,8.37,8.37,0,0,1,.1-1.37,2.8,2.8,0,0,1,.29-.85,1.05,1.05,0,0,1,.45-.44,1.34,1.34,0,0,1,.58-.12,1.37,1.37,0,0,1,.58.12,1,1,0,0,1,.44.44,2.55,2.55,0,0,1,.29.85,9.43,9.43,0,0,1,0,2.74,2.61,2.61,0,0,1-.29.86,1.06,1.06,0,0,1-.44.43A1.37,1.37,0,0,1,103.46,86.89Zm0-.84a.54.54,0,0,0,.31-.09.51.51,0,0,0,.21-.3,2.27,2.27,0,0,0,.13-.59c0-.25,0-.57,0-1s0-.71,0-1a2.27,2.27,0,0,0-.13-.59.51.51,0,0,0-.21-.3.54.54,0,0,0-.31-.09.57.57,0,0,0-.32.09.61.61,0,0,0-.21.3,2.87,2.87,0,0,0-.12.59c0,.25,0,.57,0,1s0,.71,0,1a2.87,2.87,0,0,0,.12.59.61.61,0,0,0,.21.3A.57.57,0,0,0,103.46,86.05Z" />
                    <path
                        d="M95.37,64.5c.37-.41.68-.75.92-1a7.72,7.72,0,0,0,.58-.77,2.88,2.88,0,0,0,.29-.59,1.68,1.68,0,0,0,0-.92.68.68,0,0,0-.16-.26.7.7,0,0,0-.24-.13,1.35,1.35,0,0,0-.29,0,3.29,3.29,0,0,0-.42,0,3.37,3.37,0,0,0-.46.14v-.82a2.15,2.15,0,0,1,.47-.13,3.08,3.08,0,0,1,.53,0,1.33,1.33,0,0,1,1,.37A1.63,1.63,0,0,1,98,61.47a3.24,3.24,0,0,1-.06.64,2.77,2.77,0,0,1-.23.62,4.41,4.41,0,0,1-.45.68,11.3,11.3,0,0,1-.74.86l-.25.27v.06H98.1v.82H95.37Z" />
                    <path
                        d="M100.1,65.5a1.34,1.34,0,0,1-.58-.12,1.18,1.18,0,0,1-.45-.44,2.56,2.56,0,0,1-.28-.85,7.35,7.35,0,0,1-.11-1.37,7.2,7.2,0,0,1,.11-1.37,2.63,2.63,0,0,1,.28-.86,1.08,1.08,0,0,1,.45-.43,1.34,1.34,0,0,1,.58-.12,1.37,1.37,0,0,1,.58.12,1,1,0,0,1,.45.43,2.89,2.89,0,0,1,.28.86,7.32,7.32,0,0,1,.1,1.37,7.46,7.46,0,0,1-.1,1.37,2.81,2.81,0,0,1-.28.85,1.11,1.11,0,0,1-.45.44A1.37,1.37,0,0,1,100.1,65.5Zm0-.85a.51.51,0,0,0,.31-.08.58.58,0,0,0,.21-.3,2.27,2.27,0,0,0,.13-.59c0-.25,0-.58,0-1s0-.71,0-1a2.27,2.27,0,0,0-.13-.59.57.57,0,0,0-.21-.31.59.59,0,0,0-.31-.08.63.63,0,0,0-.32.08.62.62,0,0,0-.2.31,2,2,0,0,0-.12.59,8.18,8.18,0,0,0,0,1,8.31,8.31,0,0,0,0,1,2,2,0,0,0,.12.59.63.63,0,0,0,.2.3A.55.55,0,0,0,100.1,64.65Z" />
                    <path
                        d="M103.46,65.5a1.34,1.34,0,0,1-.58-.12,1.11,1.11,0,0,1-.45-.44,2.8,2.8,0,0,1-.29-.85,8.46,8.46,0,0,1-.1-1.37,8.28,8.28,0,0,1,.1-1.37,2.87,2.87,0,0,1,.29-.86,1,1,0,0,1,.45-.43,1.34,1.34,0,0,1,.58-.12,1.37,1.37,0,0,1,.58.12,1,1,0,0,1,.44.43,2.61,2.61,0,0,1,.29.86,7.32,7.32,0,0,1,.1,1.37,7.46,7.46,0,0,1-.1,1.37,2.55,2.55,0,0,1-.29.85,1.09,1.09,0,0,1-.44.44A1.37,1.37,0,0,1,103.46,65.5Zm0-.85a.53.53,0,0,0,.31-.08.58.58,0,0,0,.21-.3,2.27,2.27,0,0,0,.13-.59c0-.25,0-.58,0-1s0-.71,0-1a2.27,2.27,0,0,0-.13-.59.57.57,0,0,0-.21-.31.62.62,0,0,0-.31-.08.66.66,0,0,0-.32.08.7.7,0,0,0-.21.31,2.87,2.87,0,0,0-.12.59c0,.25,0,.57,0,1s0,.71,0,1a2.87,2.87,0,0,0,.12.59.72.72,0,0,0,.21.3A.57.57,0,0,0,103.46,64.65Z" />
                    <path
                        d="M95.37,43.43c.37-.4.68-.75.92-1a6.72,6.72,0,0,0,.58-.77,2.88,2.88,0,0,0,.29-.59,1.68,1.68,0,0,0,0-.92.68.68,0,0,0-.16-.26.7.7,0,0,0-.24-.13,1.35,1.35,0,0,0-.29,0,3.29,3.29,0,0,0-.42,0,3.37,3.37,0,0,0-.46.14V39a2.15,2.15,0,0,1,.47-.13,3.08,3.08,0,0,1,.53,0,1.33,1.33,0,0,1,1,.37A1.63,1.63,0,0,1,98,40.4a3.24,3.24,0,0,1-.06.64,2.77,2.77,0,0,1-.23.62,4.41,4.41,0,0,1-.45.68,11.3,11.3,0,0,1-.74.86l-.25.27v.06H98.1v.82H95.37Z" />
                    <path
                        d="M99.75,44.43a3,3,0,0,1-.45,0,2.79,2.79,0,0,1-.4-.07v-.85a3.75,3.75,0,0,0,.39.1,2.46,2.46,0,0,0,.41,0,1.75,1.75,0,0,0,.4,0,.81.81,0,0,0,.31-.15.83.83,0,0,0,.2-.3,1.44,1.44,0,0,0,.07-.46,1,1,0,0,0-.23-.73,1.08,1.08,0,0,0-.75-.21l-.39,0-.42.08.28-2.88h2v.84H99.74L99.6,41l.21,0H100a1.3,1.3,0,0,1,1,.4,1.91,1.91,0,0,1,.35,1.26A1.8,1.8,0,0,1,101,44,1.66,1.66,0,0,1,99.75,44.43Z" />
                    <path
                        d="M103.46,44.43a1.34,1.34,0,0,1-.58-.12,1.05,1.05,0,0,1-.45-.44,2.7,2.7,0,0,1-.29-.85,9.5,9.5,0,0,1,0-2.75,2.9,2.9,0,0,1,.29-.85,1,1,0,0,1,.45-.43,1.34,1.34,0,0,1,.58-.12A1.37,1.37,0,0,1,104,39a1,1,0,0,1,.44.43,2.63,2.63,0,0,1,.29.85,9.5,9.5,0,0,1,0,2.75,2.47,2.47,0,0,1-.29.85,1,1,0,0,1-.44.44A1.37,1.37,0,0,1,103.46,44.43Zm0-.84a.54.54,0,0,0,.31-.09.58.58,0,0,0,.21-.3,2.27,2.27,0,0,0,.13-.59c0-.25,0-.57,0-1s0-.71,0-1a2.27,2.27,0,0,0-.13-.59.57.57,0,0,0-.21-.31.53.53,0,0,0-.31-.08.57.57,0,0,0-.32.08.7.7,0,0,0-.21.31,2.87,2.87,0,0,0-.12.59c0,.25,0,.57,0,1s0,.71,0,1a2.87,2.87,0,0,0,.12.59.72.72,0,0,0,.21.3A.57.57,0,0,0,103.46,43.59Z" />
                </g>
                <ellipse class="cls-7" cx="62.05" cy="143.77" rx="43.22" ry="4.59" />
            </g>
        </g>
    </g>
</svg>