<svg xmlns="http://www.w3.org/2000/svg" xmlns:xlink="http://www.w3.org/1999/xlink" viewBox="0 0 92.12 150.76">
    <defs>
        <style>
            .cls-1 {
                opacity: 0.3;
                fill: url(#未命名的渐变_372);
            }

            .cls-2,
            .cls-5 {
                fill: none;
                stroke-linejoin: round;
            }

            .cls-2 {
                stroke-linecap: round;
                stroke-width: 2px;
                opacity: 0.7;
                stroke: url(#未命名的渐变_1614);
            }

            .cls-3 {
                fill: url(#未命名的渐变_198);
            }

            .cls-10,
            .cls-4,
            .cls-6 {
                opacity: 0.2;
            }

            .cls-4 {
                fill: url(#未命名的渐变_108);
            }

            .cls-5 {
                stroke: url(#未命名的渐变_241);
            }

            .cls-6 {
                fill: url(#未命名的渐变_108-2);
            }

            .cls-7 {
                fill: url(#未命名的渐变_154);
            }

            .cls-8 {
                fill: url(#未命名的渐变_352);
            }

            .cls-9 {
                opacity: 0.4;
                fill: url(#未命名的渐变_352-2);
            }
        </style>
        <radialGradient id="未命名的渐变_372" cx="46.06" cy="104.7" r="45.56" gradientUnits="userSpaceOnUse">
            <stop offset="0" stop-color="#fff" stop-opacity="0" />
            <stop offset="0.19" stop-color="#fbfbfb" stop-opacity="0.03" />
            <stop offset="0.36" stop-color="#eff0f1" stop-opacity="0.12" />
            <stop offset="0.53" stop-color="#dbddde" stop-opacity="0.26" />
            <stop offset="0.7" stop-color="#bfc2c5" stop-opacity="0.47" />
            <stop offset="0.86" stop-color="#9c9fa4" stop-opacity="0.73" />
            <stop offset="1" stop-color="#767b82" />
        </radialGradient>
        <linearGradient id="未命名的渐变_1614" x1="46.06" y1="150.46" x2="46.06" y2="8.01" gradientUnits="userSpaceOnUse">
            <stop offset="0" stop-color="#fff" stop-opacity="0" />
            <stop offset="0.02" stop-color="#fff" stop-opacity="0.03" />
            <stop offset="0.39" stop-color="#fff" stop-opacity="0.44" />
            <stop offset="0.69" stop-color="#fff" stop-opacity="0.74" />
            <stop offset="0.9" stop-color="#fff" stop-opacity="0.93" />
            <stop offset="1" stop-color="#fff" />
        </linearGradient>
        <linearGradient id="未命名的渐变_198" x1="-2170.77" y1="106.3" x2="-2170.77" y2="-117.19"
            gradientTransform="translate(720.88 139.94) scale(0.31 0.07)" gradientUnits="userSpaceOnUse">
            <stop offset="0" stop-color="#acafb3" />
            <stop offset="0.16" stop-color="#b8bbbe" stop-opacity="0.75" />
            <stop offset="0.36" stop-color="#c5c8cb" stop-opacity="0.49" />
            <stop offset="0.55" stop-color="#d0d2d4" stop-opacity="0.28" />
            <stop offset="0.73" stop-color="#d7d9db" stop-opacity="0.12" />
            <stop offset="0.88" stop-color="#dbdde0" stop-opacity="0.03" />
            <stop offset="1" stop-color="#dddfe1" stop-opacity="0" />
        </linearGradient>
        <linearGradient id="未命名的渐变_108" x1="34.07" y1="34.28" x2="58.05" y2="34.28" gradientUnits="userSpaceOnUse">
            <stop offset="0" stop-color="#a9b1bb" />
            <stop offset="0.06" stop-color="#5d6166" />
            <stop offset="0.78" stop-color="#e2eaf2" />
            <stop offset="0.93" stop-color="#9ba1ab" />
            <stop offset="1" stop-color="#767b82" />
        </linearGradient>
        <linearGradient id="未命名的渐变_241" y1="79.04" x2="92.12" y2="79.04" gradientUnits="userSpaceOnUse">
            <stop offset="0" stop-color="#767b82" />
            <stop offset="0.07" stop-color="#9ba1ab" />
            <stop offset="0.22" stop-color="#eef7ff" stop-opacity="0" />
            <stop offset="0.94" stop-color="#5d6166" />
            <stop offset="1" stop-color="#e6f1ff" stop-opacity="0" />
        </linearGradient>
        <linearGradient id="未命名的渐变_108-2" x1="32.35" y1="4.04" x2="59.77" y2="4.04" xlink:href="#未命名的渐变_108" />
        <linearGradient id="未命名的渐变_154" x1="31.26" y1="4.5" x2="60.86" y2="4.5" gradientUnits="userSpaceOnUse">
            <stop offset="0" stop-color="#e6f1ff" />
            <stop offset="0.06" stop-color="#5d6166" />
            <stop offset="0.78" stop-color="#eef7ff" />
            <stop offset="0.93" stop-color="#9ba1ab" />
            <stop offset="1" stop-color="#767b82" />
        </linearGradient>
        <linearGradient id="未命名的渐变_352" x1="46.06" y1="87.82" x2="46.06" y2="63.4" gradientUnits="userSpaceOnUse">
            <stop offset="0" stop-color="#fff" stop-opacity="0" />
            <stop offset="0.14" stop-color="#fff" stop-opacity="0.01" />
            <stop offset="0.27" stop-color="#fff" stop-opacity="0.06" />
            <stop offset="0.39" stop-color="#fff" stop-opacity="0.13" />
            <stop offset="0.51" stop-color="#fff" stop-opacity="0.24" />
            <stop offset="0.63" stop-color="#fff" stop-opacity="0.37" />
            <stop offset="0.74" stop-color="#fff" stop-opacity="0.53" />
            <stop offset="0.86" stop-color="#fff" stop-opacity="0.73" />
            <stop offset="0.97" stop-color="#fff" stop-opacity="0.94" />
            <stop offset="1" stop-color="#fff" />
        </linearGradient>
        <linearGradient id="未命名的渐变_352-2" x1="46.06" y1="89.49" x2="46.06" y2="73.64"
            gradientTransform="matrix(1, 0, 0, -1, 0, 219.15)" xlink:href="#未命名的渐变_352" />
    </defs>
    <title>Beaker 3(烧杯)</title>
    <g id="图层_2" data-name="图层 2">
        <g id="图层_21" data-name="图层 21">
            <g id="Beaker_3_烧杯_" data-name="Beaker 3(烧杯)">
                <circle class="cls-1" cx="46.06" cy="104.7" r="45.56" />
                <path class="cls-2" d="M58.05,9V61.56a44.76,44.76,0,1,1-24,0V9" />
                <ellipse class="cls-3" cx="46.06" cy="139.56" rx="24.31" ry="7.68" />
                <path class="cls-4" d="M58.05,7.82V60.74a45.73,45.73,0,0,0-24,0V7.82Z" />
                <path class="cls-5" d="M58,60.72l.09,0V7.82h-24V60.74l.09,0a45.56,45.56,0,1,0,23.8,0Z" />
                <rect class="cls-6" x="32.35" y="0.26" width="27.42" height="7.57" rx="3.18" />
                <path class="cls-7"
                    d="M56.59,8.83C51.21,8.88,45.84,9,40.46,9l-4,0h-1a4.37,4.37,0,0,1-1.33-.27A3.73,3.73,0,0,1,32,7a4.11,4.11,0,0,1-.3-2.48l.11-1a5.25,5.25,0,0,1,.25-1.11A3.71,3.71,0,0,1,35.53,0H56.71a3.22,3.22,0,0,1,1.06.21,3.4,3.4,0,0,1,1.67,1.32,4,4,0,0,1,.61,2c0,.34.05.67.1,1a4,4,0,0,1,0,1.15A3.93,3.93,0,0,1,59,7.86,3.52,3.52,0,0,1,56.59,8.83Zm0-2A3.05,3.05,0,0,0,58,6.55a2.38,2.38,0,0,0,1.13-1.11,2.85,2.85,0,0,0,.27-.84c0-.34.07-.67.1-1A2.66,2.66,0,0,0,59,1.81,3,3,0,0,0,57.6.68,5.39,5.39,0,0,0,55.69.5h-4L35.53.52a2.71,2.71,0,0,0-2.64,2.09,2.55,2.55,0,0,0,0,.87l.12,1a2.14,2.14,0,0,0,.76,1.35,3,3,0,0,0,1.08.75,1.82,1.82,0,0,0,.65.12h1l4,0C45.84,6.63,51.21,6.77,56.59,6.83Z" />
                <path class="cls-8"
                    d="M81.83,87.82a60.15,60.15,0,0,0-35.77-11.5,60.13,60.13,0,0,0-35.77,11.5C14.68,73.72,29,63.4,46.06,63.4S77.46,73.72,81.83,87.82Z" />
                <path class="cls-9"
                    d="M81.83,129.66c-9.75,4.66-22.19,7.46-35.77,7.46s-26-2.8-35.77-7.46c4.39,9.15,18.75,15.85,35.77,15.85S77.46,138.81,81.83,129.66Z" />
               
            </g>
        </g>
    </g>
</svg>