<svg xmlns="http://www.w3.org/2000/svg" xmlns:xlink="http://www.w3.org/1999/xlink" viewBox="0 0 150 119.13">
    <defs>
        <style>
            .cls-1 {
                fill: url(#未命名的渐变_5);
            }

            .cls-2 {
                fill: url(#未命名的渐变_32);
            }

            .cls-3 {
                fill: url(#未命名的渐变_3);
            }

            .cls-4 {
                fill: url(#未命名的渐变_62);
            }

            .cls-5 {
                fill: url(#未命名的渐变_62-2);
            }

            .cls-6 {
                fill: url(#未命名的渐变_5-2);
            }

            .cls-7 {
                opacity: 0.2;
            }
        </style>
        <linearGradient id="未命名的渐变_5" x1="131.76" y1="19" x2="18.24" y2="132.53" gradientUnits="userSpaceOnUse">
            <stop offset="0" stop-color="#d7dce0" />
            <stop offset="1" stop-color="#8a9099" />
        </linearGradient>
        <linearGradient id="未命名的渐变_32" x1="123.22" y1="31.89" x2="26.78" y2="128.32" gradientUnits="userSpaceOnUse">
            <stop offset="0" stop-color="#abafb3" />
            <stop offset="1" stop-color="#45484d" />
        </linearGradient>
        <linearGradient id="未命名的渐变_3" x1="90.18" y1="95.28" x2="26.78" y2="31.89" gradientUnits="userSpaceOnUse">
            <stop offset="0" stop-color="#e8f0fd" stop-opacity="0" />
            <stop offset="0.16" stop-color="#e8f0fd" stop-opacity="0.01" />
            <stop offset="0.29" stop-color="#e8f0fd" stop-opacity="0.05" />
            <stop offset="0.41" stop-color="#e9f0fd" stop-opacity="0.12" />
            <stop offset="0.53" stop-color="#e9f1fd" stop-opacity="0.21" />
            <stop offset="0.63" stop-color="#eaf1fe" stop-opacity="0.33" />
            <stop offset="0.74" stop-color="#ebf1fe" stop-opacity="0.48" />
            <stop offset="0.84" stop-color="#ecf2fe" stop-opacity="0.66" />
            <stop offset="0.94" stop-color="#edf3ff" stop-opacity="0.85" />
            <stop offset="1" stop-color="#eef3ff" />
        </linearGradient>
        <linearGradient id="未命名的渐变_62" x1="102.73" y1="-10.48" x2="47.27" y2="44.98" gradientUnits="userSpaceOnUse">
            <stop offset="0" stop-color="#ebf0f5" />
            <stop offset="1" stop-color="#b8c0cc" />
        </linearGradient>
        <linearGradient id="未命名的渐变_62-2" x1="110.1" y1="-3.95" x2="39.9" y2="66.24" xlink:href="#未命名的渐变_62" />
        <linearGradient id="未命名的渐变_5-2" x1="82.62" y1="-3.84" x2="67.38" y2="11.39" xlink:href="#未命名的渐变_5" />
    </defs>
    <title>Benchtop fume hood(台式通风柜)</title>
    <g id="图层_2" data-name="图层 2">
        <g id="图层_21" data-name="图层 21">
            <g id="Benchtop_fume_hood_台式通风柜_" data-name="Benchtop fume hood(台式通风柜)">
                <path class="cls-1"
                    d="M150,111.22a8.27,8.27,0,0,1-8.26,7.91H8.26A8.27,8.27,0,0,1,0,111.22L5.17,32.09l.28-.3h139.1l.28.3Z" />
                <polygon class="cls-2" points="142.41 109.13 7.58 109.13 11.61 47.06 138.39 47.06 142.41 109.13" />
                <polygon class="cls-3" points="7.58 109.13 11.61 47.06 138.39 47.06 7.58 109.13" />
                <polygon class="cls-4" points="130.46 17.25 19.54 17.25 63.12 7.55 86.88 7.55 130.46 17.25" />
                <polygon class="cls-5"
                    points="144.55 31.79 5.45 31.79 18.46 17.49 19.54 17.25 130.46 17.25 131.54 17.49 144.55 31.79" />
                <rect class="cls-6" x="63.54" width="22.92" height="7.55" />
              
            </g>
        </g>
    </g>
</svg>