<svg xmlns="http://www.w3.org/2000/svg" xmlns:xlink="http://www.w3.org/1999/xlink" viewBox="0 0 114.89 150">
    <defs>
        <style>
            .cls-1 {
                fill: url(#未命名的渐变_32);
            }

            .cls-2 {
                fill: url(#未命名的渐变_5);
            }

            .cls-3 {
                fill: url(#未命名的渐变_111);
            }

            .cls-4 {
                opacity: 0.8;
                fill: url(#未命名的渐变_2);
            }

            .cls-5 {
                opacity: 0.2;
            }
        </style>
        <linearGradient id="未命名的渐变_32" x1="91.43" y1="105.49" x2="23.46" y2="173.46" gradientUnits="userSpaceOnUse">
            <stop offset="0" stop-color="#abafb3" />
            <stop offset="1" stop-color="#45484d" />
        </linearGradient>
        <linearGradient id="未命名的渐变_5" x1="106.61" y1="39.37" x2="8.52" y2="137.46" gradientUnits="userSpaceOnUse">
            <stop offset="0" stop-color="#d7dce0" />
            <stop offset="1" stop-color="#8a9099" />
        </linearGradient>
        <linearGradient id="未命名的渐变_111" x1="73.82" y1="-1.29" x2="41.08" y2="31.45" gradientUnits="userSpaceOnUse">
            <stop offset="0" stop-color="#ebf0f5" />
            <stop offset="1" stop-color="#b8c0cc" />
        </linearGradient>
        <linearGradient id="未命名的渐变_2" x1="57.44" y1="23.01" x2="57.44" y2="6.49" gradientUnits="userSpaceOnUse">
            <stop offset="0" stop-color="#878d93" stop-opacity="0" />
            <stop offset="1" stop-color="#2e3033" />
        </linearGradient>
    </defs>
    <title>Exhaust hood(排气罩)</title>
    <g id="图层_2" data-name="图层 2">
        <g id="图层_21" data-name="图层 21">
            <g id="Exhaust_hood_排气罩_" data-name="Exhaust hood(排气罩)">
                <rect class="cls-1" y="128.95" width="114.89" height="21.05" />
                <polygon class="cls-2"
                    points="75.11 30.16 72.9 30.16 72.9 5.65 42.47 5.65 42.47 30.16 39.78 30.16 0 128.95 114.89 128.95 75.11 30.16" />
                <polygon class="cls-3"
                    points="75.11 0 75.11 30.16 71.84 30.16 70.03 6.49 44.85 6.49 43.04 30.16 39.78 30.16 39.78 0 75.11 0" />
                <polygon class="cls-4"
                    points="71.29 23.01 67.6 13.27 47.29 13.27 43.59 23.01 44.85 6.49 70.04 6.49 71.29 23.01" />
                
            </g>
        </g>
    </g>
</svg>