<svg xmlns="http://www.w3.org/2000/svg" xmlns:xlink="http://www.w3.org/1999/xlink" viewBox="0 0 90.27 150.76">
    <defs>
        <style>
            .cls-1,
            .cls-12,
            .cls-4 {
                opacity: 0.2;
            }

            .cls-1 {
                fill: url(#未命名的渐变_108);
            }

            .cls-2 {
                opacity: 0.3;
                fill: url(#未命名的渐变_108-2);
            }

            .cls-10,
            .cls-3 {
                fill: none;
                stroke-miterlimit: 10;
            }

            .cls-3 {
                stroke: url(#未命名的渐变_118);
            }

            .cls-4 {
                fill: url(#未命名的渐变_108-3);
            }

            .cls-5 {
                fill: url(#未命名的渐变_154);
            }

            .cls-6 {
                fill: url(#未命名的渐变_148);
            }

            .cls-7 {
                fill: url(#未命名的渐变_151);
            }

            .cls-8 {
                fill: url(#未命名的渐变_151-2);
            }

            .cls-9 {
                opacity: 0.6;
            }

            .cls-10 {
                stroke: #606060;
                stroke-width: 0.25px;
            }

            .cls-11 {
                fill: url(#未命名的渐变_198);
            }
        </style>
        <linearGradient id="未命名的渐变_108" x1="31.3" y1="23.41" x2="58.97" y2="23.41" gradientUnits="userSpaceOnUse">
            <stop offset="0" stop-color="#a9b1bb" />
            <stop offset="0.06" stop-color="#5d6166" />
            <stop offset="0.78" stop-color="#e2eaf2" />
            <stop offset="0.93" stop-color="#9ba1ab" />
            <stop offset="1" stop-color="#767b82" />
        </linearGradient>
        <linearGradient id="未命名的渐变_108-2" x1="-5.1" y1="105.78" x2="81.89" y2="90.44" xlink:href="#未命名的渐变_108" />
        <linearGradient id="未命名的渐变_118" x1="45.13" y1="150.76" x2="45.13" y2="5.93" gradientUnits="userSpaceOnUse">
            <stop offset="0" stop-color="#767b82" />
            <stop offset="0.07" stop-color="#9ba1ab" />
            <stop offset="0.22" stop-color="#eef7ff" />
            <stop offset="0.94" stop-color="#5d6166" />
            <stop offset="1" stop-color="#e6f1ff" />
        </linearGradient>
        <linearGradient id="未命名的渐变_108-3" x1="29.3" y1="3.35" x2="60.97" y2="3.35" xlink:href="#未命名的渐变_108" />
        <linearGradient id="未命名的渐变_154" x1="28.21" y1="3.8" x2="62.06" y2="3.8" gradientUnits="userSpaceOnUse">
            <stop offset="0" stop-color="#e6f1ff" />
            <stop offset="0.06" stop-color="#5d6166" />
            <stop offset="0.78" stop-color="#eef7ff" />
            <stop offset="0.93" stop-color="#9ba1ab" />
            <stop offset="1" stop-color="#767b82" />
        </linearGradient>
        <linearGradient id="未命名的渐变_148" x1="49.84" y1="101.44" x2="25.48" y2="94.91" gradientUnits="userSpaceOnUse">
            <stop offset="0" stop-color="#fff" />
            <stop offset="0.03" stop-color="#fff" stop-opacity="0.94" />
            <stop offset="0.14" stop-color="#fff" stop-opacity="0.73" />
            <stop offset="0.26" stop-color="#fff" stop-opacity="0.53" />
            <stop offset="0.37" stop-color="#fff" stop-opacity="0.37" />
            <stop offset="0.49" stop-color="#fff" stop-opacity="0.24" />
            <stop offset="0.61" stop-color="#fff" stop-opacity="0.13" />
            <stop offset="0.73" stop-color="#fff" stop-opacity="0.06" />
            <stop offset="0.86" stop-color="#fff" stop-opacity="0.01" />
            <stop offset="1" stop-color="#fff" stop-opacity="0" />
        </linearGradient>
        <linearGradient id="未命名的渐变_151" x1="35.62" y1="21.88" x2="41" y2="21.88" gradientUnits="userSpaceOnUse">
            <stop offset="0" stop-color="#fff" stop-opacity="0" />
            <stop offset="0.1" stop-color="#fff" stop-opacity="0.02" />
            <stop offset="0.22" stop-color="#fff" stop-opacity="0.09" />
            <stop offset="0.36" stop-color="#fff" stop-opacity="0.19" />
            <stop offset="0.51" stop-color="#fff" stop-opacity="0.34" />
            <stop offset="0.68" stop-color="#fff" stop-opacity="0.53" />
            <stop offset="0.84" stop-color="#fff" stop-opacity="0.76" />
            <stop offset="1" stop-color="#fff" />
        </linearGradient>
        <linearGradient id="未命名的渐变_151-2" x1="40.37" y1="21.88" x2="45.75" y2="21.88"
            gradientTransform="matrix(1, 0, 0, -1, 7.08, 43.77)" xlink:href="#未命名的渐变_151" />
        <linearGradient id="未命名的渐变_198" x1="45.16" y1="147.85" x2="45.16" y2="138.66" gradientUnits="userSpaceOnUse">
            <stop offset="0" stop-color="#acafb3" />
            <stop offset="0.16" stop-color="#b8bbbe" stop-opacity="0.75" />
            <stop offset="0.36" stop-color="#c5c8cb" stop-opacity="0.49" />
            <stop offset="0.55" stop-color="#d0d2d4" stop-opacity="0.28" />
            <stop offset="0.73" stop-color="#d7d9db" stop-opacity="0.12" />
            <stop offset="0.88" stop-color="#dbdde0" stop-opacity="0.03" />
            <stop offset="1" stop-color="#dddfe1" stop-opacity="0" />
        </linearGradient>
    </defs>
    <title>Flask 1(烧瓶)</title>
    <g id="图层_2" data-name="图层 2">
        <g id="图层_21" data-name="图层 21">
            <g id="Flask_1_烧瓶_" data-name="Flask 1(烧瓶)">
                <rect class="cls-1" x="31.3" y="6.43" width="27.68" height="33.96" />
                <path class="cls-2"
                    d="M75.84,150.26H14.43A13.92,13.92,0,0,1,1.21,132L31.3,40.39H59L89.06,132A13.92,13.92,0,0,1,75.84,150.26Z" />
                <path class="cls-3"
                    d="M89.06,132,59,40.39h0v-34H31.3v34L1.21,132a13.92,13.92,0,0,0,13.22,18.27H75.84A13.92,13.92,0,0,0,89.06,132Z" />
                <rect class="cls-4" x="29.3" y="0.26" width="31.67" height="6.17" rx="3.09" />
                <path class="cls-5"
                    d="M57.88,7.43c-5.86.06-11.73.2-17.59.16l-4.4,0-2.2,0h-1.1a6.23,6.23,0,0,1-.67,0,3.4,3.4,0,0,1-.71-.2,4,4,0,0,1-1.95-1.94,3.84,3.84,0,0,1-.34-2.5A3.56,3.56,0,0,1,32.39,0H57.68a3.58,3.58,0,0,1,1.16.14,3.82,3.82,0,0,1,2.61,3.71,3.75,3.75,0,0,1-1,2.42A3.51,3.51,0,0,1,57.88,7.43Zm0-2a2.88,2.88,0,0,0,1.49-.36,2.36,2.36,0,0,0,1.05-1.35,2.39,2.39,0,0,0-.17-1.88A2.56,2.56,0,0,0,58.7.62,8.56,8.56,0,0,0,56.58.5H32.39a2.71,2.71,0,0,0-1.82.72A2.53,2.53,0,0,0,29.75,3a2.31,2.31,0,0,0,.56,1.71,2.1,2.1,0,0,0,1.48.65,2.36,2.36,0,0,0,.37,0h1.53l2.2,0,4.4,0C46.15,5.24,52,5.38,57.88,5.43Z" />
                <path class="cls-6"
                    d="M31,140.44H14.34L36.9,52.29a2.55,2.55,0,0,1,2.5-2.08h0a2.54,2.54,0,0,1,2.54,2.54v76.71A11,11,0,0,1,31,140.44Z" />
                <rect class="cls-7" x="35.62" y="6.43" width="5.38" height="30.9" rx="2.3" />
                <rect class="cls-8" x="47.45" y="6.43" width="5.38" height="30.9" rx="2.3"
                    transform="translate(100.28 43.77) rotate(180)" />
                <g class="cls-9">
                    <line class="cls-10" x1="40.34" y1="131.03" x2="59.57" y2="131.03" />
                    <line class="cls-10" x1="40.34" y1="124.08" x2="49.56" y2="124.08" />
                    <line class="cls-10" x1="40.34" y1="109.82" x2="49.56" y2="109.82" />
                    <line class="cls-10" x1="40.34" y1="95.55" x2="49.56" y2="95.55" />
                    <line class="cls-10" x1="40.34" y1="81.29" x2="49.56" y2="81.29" />
                    <line class="cls-10" x1="40.34" y1="117.14" x2="58.78" y2="117.14" />
                    <line class="cls-10" x1="40.34" y1="102.88" x2="58.78" y2="102.88" />
                    <line class="cls-10" x1="40.34" y1="88.61" x2="58.78" y2="88.61" />
                    <line class="cls-10" x1="40.34" y1="74.35" x2="58.78" y2="74.35" />
                </g>
                <g class="cls-9">
                    <path d="M30.26,127.35l-.89.26,0-.83,1.07-.33h.47l-.09,5.62h-.68Z" />
                    <path
                        d="M33.4,132.15a1.08,1.08,0,0,1-.54-.13,1,1,0,0,1-.4-.46,2.92,2.92,0,0,1-.26-.91,8.49,8.49,0,0,1-.08-1.44,9,9,0,0,1,.1-1.42,2.93,2.93,0,0,1,.26-.86,1.09,1.09,0,0,1,.4-.44,1.14,1.14,0,0,1,.52-.12,1.11,1.11,0,0,1,.52.12,1,1,0,0,1,.4.44,2.93,2.93,0,0,1,.26.86,7.91,7.91,0,0,1,.1,1.42,8.49,8.49,0,0,1-.08,1.44,3.25,3.25,0,0,1-.25.91,1,1,0,0,1-.41.46A1.08,1.08,0,0,1,33.4,132.15Zm0-.9a.48.48,0,0,0,.29-.09.65.65,0,0,0,.19-.32,2.68,2.68,0,0,0,.11-.63,9.29,9.29,0,0,0,0-1c0-.41,0-.74,0-1a3.11,3.11,0,0,0-.12-.61.61.61,0,0,0-.19-.31.42.42,0,0,0-.28-.08.44.44,0,0,0-.28.08.61.61,0,0,0-.19.31,3.22,3.22,0,0,0-.11.61c0,.25,0,.58,0,1s0,.74,0,1a3.33,3.33,0,0,0,.11.63.65.65,0,0,0,.19.32A.48.48,0,0,0,33.4,131.25Z" />
                    <path
                        d="M36.51,132.15A1.08,1.08,0,0,1,36,132a1.06,1.06,0,0,1-.42-.46,2.9,2.9,0,0,1-.27-.91,8.11,8.11,0,0,1-.11-1.44,9.49,9.49,0,0,1,.07-1.42,3,3,0,0,1,.25-.86,1,1,0,0,1,.39-.44,1.11,1.11,0,0,1,.52-.12,1.14,1.14,0,0,1,.52.12,1,1,0,0,1,.41.44,2.91,2.91,0,0,1,.27.86,7.56,7.56,0,0,1,.13,1.42,8.92,8.92,0,0,1,0,1.44,3,3,0,0,1-.24.91,1,1,0,0,1-.4.46A1,1,0,0,1,36.51,132.15Zm0-.9a.48.48,0,0,0,.29-.09.64.64,0,0,0,.18-.32,2.76,2.76,0,0,0,.1-.63c0-.26,0-.6,0-1s0-.74-.06-1a2.45,2.45,0,0,0-.13-.61.69.69,0,0,0-.19-.31.47.47,0,0,0-.29-.08.44.44,0,0,0-.28.08.68.68,0,0,0-.18.31,2.65,2.65,0,0,0-.1.61,9.7,9.7,0,0,0,0,1c0,.4,0,.74.05,1a3.21,3.21,0,0,0,.12.63.65.65,0,0,0,.2.32A.48.48,0,0,0,36.49,131.25Z" />
                    <path d="M30.61,110.17l-.79.21v-.66l1-.27h.42l-.07,4.46h-.61Z" />
                    <path
                        d="M33.12,114a2.12,2.12,0,0,1-.37,0,1.91,1.91,0,0,1-.33-.06v-.72a1.65,1.65,0,0,0,.32.08,1.72,1.72,0,0,0,.34,0,1.08,1.08,0,0,0,.32,0,.79.79,0,0,0,.26-.13.67.67,0,0,0,.16-.25,1,1,0,0,0,.06-.38.88.88,0,0,0-.19-.61.87.87,0,0,0-.61-.17l-.32,0-.33.07.23-2.34h1.59v.68H33.12l-.11,1a.9.9,0,0,1,.16,0h.19a1,1,0,0,1,.83.33,2,2,0,0,1-.07,2.19A1.35,1.35,0,0,1,33.12,114Z" />
                    <path
                        d="M36.16,114a1.12,1.12,0,0,1-.48-.1.93.93,0,0,1-.37-.37,2.34,2.34,0,0,1-.24-.71,6.16,6.16,0,0,1-.09-1.15,5.12,5.12,0,0,1,.07-1.11,2.07,2.07,0,0,1,.22-.69.74.74,0,0,1,.35-.35,1,1,0,0,1,.46-.1,1,1,0,0,1,.46.1.8.8,0,0,1,.36.35,2,2,0,0,1,.25.69,6.27,6.27,0,0,1,.11,1.11,6.6,6.6,0,0,1,0,1.15,2.13,2.13,0,0,1-.22.71.79.79,0,0,1-.35.37A1.06,1.06,0,0,1,36.16,114Zm0-.71a.41.41,0,0,0,.25-.07.48.48,0,0,0,.17-.25,2.38,2.38,0,0,0,.09-.5,6.69,6.69,0,0,0,0-.8,5.35,5.35,0,0,0-.05-.78,1.7,1.7,0,0,0-.11-.48.48.48,0,0,0-.17-.25.55.55,0,0,0-.5,0,.47.47,0,0,0-.16.25,1.46,1.46,0,0,0-.09.48,6.06,6.06,0,0,0,0,.78c0,.33,0,.59,0,.8a2.22,2.22,0,0,0,.11.5.48.48,0,0,0,.17.25A.44.44,0,0,0,36.15,113.26Z" />
                    <path
                        d="M30,97.69c.28-.27.51-.5.69-.7s.32-.36.43-.5a1.92,1.92,0,0,0,.21-.39.78.78,0,0,0,.07-.33.73.73,0,0,0,0-.27.31.31,0,0,0-.11-.16.39.39,0,0,0-.17-.09l-.2,0-.3,0-.34.09,0-.53.34-.08a2.34,2.34,0,0,1,.38,0,1,1,0,0,1,.7.24,1,1,0,0,1,.25.75,1.86,1.86,0,0,1-.05.42,1.5,1.5,0,0,1-.17.4,2.83,2.83,0,0,1-.33.45c-.15.17-.33.36-.55.58l-.19.17v.05H32v.55h-2Z" />
                    <path
                        d="M33.41,98.36a1.18,1.18,0,0,1-.43-.08.83.83,0,0,1-.32-.3,1.55,1.55,0,0,1-.21-.57,4.7,4.7,0,0,1-.06-.91,4.3,4.3,0,0,1,.08-.89,1.66,1.66,0,0,1,.21-.55.71.71,0,0,1,.32-.28,1.09,1.09,0,0,1,.82,0,.71.71,0,0,1,.32.28,1.66,1.66,0,0,1,.21.55,5.12,5.12,0,0,1,.08.89,4.6,4.6,0,0,1-.07.91,1.56,1.56,0,0,1-.2.57.78.78,0,0,1-.33.3A1.12,1.12,0,0,1,33.41,98.36Zm0-.57a.38.38,0,0,0,.22-.06.33.33,0,0,0,.16-.2,1.41,1.41,0,0,0,.09-.39,4.13,4.13,0,0,0,0-.64,5.22,5.22,0,0,0,0-.62,1.61,1.61,0,0,0-.09-.39.42.42,0,0,0-.15-.19.38.38,0,0,0-.22-.06.44.44,0,0,0-.23.06.42.42,0,0,0-.15.19,1.66,1.66,0,0,0-.08.39c0,.16,0,.37,0,.62a5.6,5.6,0,0,0,0,.64,1.41,1.41,0,0,0,.09.39.36.36,0,0,0,.15.2A.41.41,0,0,0,33.41,97.79Z" />
                    <path
                        d="M35.87,98.36a1.18,1.18,0,0,1-.43-.08.78.78,0,0,1-.33-.3,1.73,1.73,0,0,1-.22-.57,5.83,5.83,0,0,1,0-1.8,1.93,1.93,0,0,1,.2-.55.71.71,0,0,1,.32-.28,1,1,0,0,1,.41-.08,1.07,1.07,0,0,1,.41.08.73.73,0,0,1,.33.28,1.66,1.66,0,0,1,.21.55,4.13,4.13,0,0,1,.1.89,4.81,4.81,0,0,1-.05.91,1.4,1.4,0,0,1-.19.57.76.76,0,0,1-.32.3A1.12,1.12,0,0,1,35.87,98.36Zm0-.57a.38.38,0,0,0,.22-.06.36.36,0,0,0,.15-.2,1.15,1.15,0,0,0,.08-.39,5.93,5.93,0,0,0,0-.64c0-.25,0-.46,0-.62a2.18,2.18,0,0,0-.1-.39A.44.44,0,0,0,36,95.3a.38.38,0,0,0-.22-.06.44.44,0,0,0-.23.06.41.41,0,0,0-.14.19,1.27,1.27,0,0,0-.08.39,3.86,3.86,0,0,0,0,.62,3.82,3.82,0,0,0,0,.64,1.41,1.41,0,0,0,.09.39.33.33,0,0,0,.16.2A.41.41,0,0,0,35.86,97.79Z" />
                    <path
                        d="M30.31,84.81c.25-.22.46-.4.62-.56a4.27,4.27,0,0,0,.38-.41,1.75,1.75,0,0,0,.2-.31,1.68,1.68,0,0,0,.06-.27.48.48,0,0,0,0-.22.26.26,0,0,0-.1-.13.35.35,0,0,0-.15-.07l-.19,0-.26,0a2,2,0,0,0-.31.07l0-.43a1.33,1.33,0,0,1,.3-.06,1.87,1.87,0,0,1,.34,0,1,1,0,0,1,.64.2.76.76,0,0,1,.22.61,1.66,1.66,0,0,1,0,.33,1.21,1.21,0,0,1-.15.33,4.08,4.08,0,0,1-.3.37c-.13.13-.29.28-.5.46l-.16.14v0H32.1v.44H30.3Z" />
                    <path
                        d="M33.18,85.35h-.3l-.26,0v-.46l.26,0,.27,0a1.09,1.09,0,0,0,.26,0,.44.44,0,0,0,.2-.08.34.34,0,0,0,.13-.16.58.58,0,0,0,0-.25.47.47,0,0,0-.15-.39.86.86,0,0,0-.49-.11,1.23,1.23,0,0,0-.26,0l-.26,0,.18-1.52h1.28v.44h-.91l-.09.65.13,0h.15a1,1,0,0,1,.67.21A1.09,1.09,0,0,1,34,85.12,1.21,1.21,0,0,1,33.18,85.35Z" />
                    <path
                        d="M35.62,85.35a1.12,1.12,0,0,1-.38-.06.63.63,0,0,1-.3-.24,1.16,1.16,0,0,1-.19-.46,3.55,3.55,0,0,1-.08-.74,3.59,3.59,0,0,1,.06-.72,1.17,1.17,0,0,1,.18-.45.59.59,0,0,1,.28-.22,1.11,1.11,0,0,1,.37-.07,1.12,1.12,0,0,1,.38.07.61.61,0,0,1,.29.22,1.17,1.17,0,0,1,.19.45,3.35,3.35,0,0,1,.09.72,3.17,3.17,0,0,1,0,.74,1.17,1.17,0,0,1-.17.46.61.61,0,0,1-.29.24A1.12,1.12,0,0,1,35.62,85.35Zm0-.45a.46.46,0,0,0,.21-.05.31.31,0,0,0,.13-.16.84.84,0,0,0,.07-.32,4,4,0,0,0,0-.52c0-.2,0-.37,0-.5a1,1,0,0,0-.09-.31.28.28,0,0,0-.14-.16.39.39,0,0,0-.2,0,.42.42,0,0,0-.2,0,.31.31,0,0,0-.13.16,1,1,0,0,0-.07.31,2.53,2.53,0,0,0,0,.5,3.74,3.74,0,0,0,0,.52,1,1,0,0,0,.09.32.28.28,0,0,0,.14.16A.39.39,0,0,0,35.61,84.9Z" />
                    <path
                        d="M31.17,74.89h-.29l-.25,0v-.38a1.27,1.27,0,0,0,.26,0l.26,0,.22,0a.49.49,0,0,0,.17-.06.32.32,0,0,0,.12-.11.35.35,0,0,0,0-.18.3.3,0,0,0-.16-.3,1.06,1.06,0,0,0-.45-.07h-.18v-.34h.18a.83.83,0,0,0,.42-.08.27.27,0,0,0,.15-.27c0-.12,0-.2-.11-.24a.62.62,0,0,0-.33-.07l-.24,0-.23,0V72.5l.23,0,.28,0a1.18,1.18,0,0,1,.34,0,.67.67,0,0,1,.26.1.53.53,0,0,1,.16.2.65.65,0,0,1,0,.29.53.53,0,0,1-.1.34.74.74,0,0,1-.3.19v0a.52.52,0,0,1,.34.19.62.62,0,0,1,.11.37Q32.14,74.89,31.17,74.89Z" />
                    <path
                        d="M33.41,74.89a1,1,0,0,1-.35-.06.53.53,0,0,1-.26-.19,1.12,1.12,0,0,1-.17-.38,2.24,2.24,0,0,1-.05-.61,2.56,2.56,0,0,1,.06-.61,1.06,1.06,0,0,1,.17-.37.61.61,0,0,1,.26-.19,1.21,1.21,0,0,1,.34,0,1.16,1.16,0,0,1,.34,0,.61.61,0,0,1,.26.19.91.91,0,0,1,.17.37,2.5,2.5,0,0,1,.07.61,2.68,2.68,0,0,1-.06.61,1.12,1.12,0,0,1-.16.38.61.61,0,0,1-.27.19A1,1,0,0,1,33.41,74.89Zm0-.38a.38.38,0,0,0,.19,0,.3.3,0,0,0,.12-.13.86.86,0,0,0,.08-.27c0-.11,0-.25,0-.42a2.46,2.46,0,0,0,0-.43.75.75,0,0,0-.07-.25.28.28,0,0,0-.12-.14.54.54,0,0,0-.19,0,.48.48,0,0,0-.18,0,.36.36,0,0,0-.13.14,1.09,1.09,0,0,0-.07.25c0,.11,0,.25,0,.43a2.56,2.56,0,0,0,0,.42,1.31,1.31,0,0,0,.07.27.3.3,0,0,0,.12.13A.41.41,0,0,0,33.41,74.51Z" />
                    <path
                        d="M35.42,74.89a1,1,0,0,1-.35-.06.61.61,0,0,1-.27-.19,1.12,1.12,0,0,1-.17-.38,3.31,3.31,0,0,1-.07-.61,2.56,2.56,0,0,1,.06-.61.9.9,0,0,1,.16-.37.61.61,0,0,1,.26-.19,1.16,1.16,0,0,1,.34,0,1.27,1.27,0,0,1,.34,0,.61.61,0,0,1,.26.19.91.91,0,0,1,.18.37,2.5,2.5,0,0,1,.07.61,2.28,2.28,0,0,1,0,.61,1.12,1.12,0,0,1-.16.38.53.53,0,0,1-.26.19A1,1,0,0,1,35.42,74.89Zm0-.38a.36.36,0,0,0,.19,0,.3.3,0,0,0,.12-.13.67.67,0,0,0,.07-.27,2.56,2.56,0,0,0,0-.42,3.73,3.73,0,0,0,0-.43.73.73,0,0,0-.08-.25.28.28,0,0,0-.12-.14.54.54,0,0,0-.19,0,.48.48,0,0,0-.18,0,.28.28,0,0,0-.12.14,1.09,1.09,0,0,0-.07.25c0,.11,0,.25,0,.43s0,.31,0,.42a1.25,1.25,0,0,0,.08.27.33.33,0,0,0,.13.13A.34.34,0,0,0,35.41,74.51Z" />
                </g>
                <ellipse class="cls-11" cx="45.16" cy="143.26" rx="41.38" ry="4.59" />
       
            </g>
        </g>
    </g>
</svg>