<svg xmlns="http://www.w3.org/2000/svg" xmlns:xlink="http://www.w3.org/1999/xlink" viewBox="0 0 97.09 151.46">
    <defs>
        <style>
            .cls-1,
            .cls-3,
            .cls-5 {
                opacity: 0.3;
            }

            .cls-1 {
                fill: url(#未命名的渐变_45);
            }

            .cls-2,
            .cls-4,
            .cls-6 {
                fill: none;
                stroke-miterlimit: 10;
            }

            .cls-2 {
                stroke: url(#未命名的渐变_120);
            }

            .cls-3 {
                fill: url(#未命名的渐变_44);
            }

            .cls-4 {
                stroke-linecap: round;
                stroke: url(#未命名的渐变_120-2);
            }

            .cls-5 {
                fill: url(#未命名的渐变_132);
            }

            .cls-6 {
                stroke: url(#未命名的渐变_120-3);
            }

            .cls-7 {
                fill: url(#未命名的渐变_132-2);
            }

            .cls-8 {
                fill: url(#未命名的渐变_132-3);
            }

            .cls-9 {
                opacity: 0.2;
            }
        </style>
        <linearGradient id="未命名的渐变_45" x1="81.92" y1="45.37" x2="-2.98" y2="14.46" gradientUnits="userSpaceOnUse">
            <stop offset="0" stop-color="#767b82" />
            <stop offset="0.07" stop-color="#9ba1ab" />
            <stop offset="0.22" stop-color="#e2eaf2" />
            <stop offset="0.94" stop-color="#5d6166" />
            <stop offset="1" stop-color="#a9b1bb" />
        </linearGradient>
        <linearGradient id="未命名的渐变_120" x1="48.55" y1="77.99" x2="48.55" gradientUnits="userSpaceOnUse">
            <stop offset="0" stop-color="#767b82" />
            <stop offset="0.07" stop-color="#9ba1ab" />
            <stop offset="0.22" stop-color="#eef7ff" stop-opacity="0" />
            <stop offset="0.94" stop-color="#5d6166" />
            <stop offset="1" stop-color="#e6f1ff" />
        </linearGradient>
        <linearGradient id="未命名的渐变_44" x1="77.76" y1="45.24" x2="-0.68" y2="8.66" gradientUnits="userSpaceOnUse">
            <stop offset="0" stop-color="#767b82" />
            <stop offset="0.07" stop-color="#9ba1ab" />
            <stop offset="0.16" stop-color="#e2eaf2" />
            <stop offset="0.94" stop-color="#5d6166" />
            <stop offset="1" stop-color="#a9b1bb" />
        </linearGradient>
        <linearGradient id="未命名的渐变_120-2" x1="0.3" y1="7.47" x2="96.8" y2="7.47" xlink:href="#未命名的渐变_120" />
        <linearGradient id="未命名的渐变_132" x1="43.66" y1="114.12" x2="53.43" y2="114.12" gradientUnits="userSpaceOnUse">
            <stop offset="0" stop-color="#a9b1bb" />
            <stop offset="0.06" stop-color="#5d6166" />
            <stop offset="0.78" stop-color="#e2eaf2" />
            <stop offset="0.93" stop-color="#9ba1ab" />
            <stop offset="1" stop-color="#767b82" />
        </linearGradient>
        <linearGradient id="未命名的渐变_120-3" x1="43.16" y1="114.6" x2="53.93" y2="114.6" xlink:href="#未命名的渐变_120" />
        <linearGradient id="未命名的渐变_132-2" x1="0.49" y1="5.23" x2="0.8" y2="5.23" xlink:href="#未命名的渐变_132" />
        <linearGradient id="未命名的渐变_132-3" x1="96.3" y1="5.23" x2="96.6" y2="5.23" xlink:href="#未命名的渐变_132" />
    </defs>
    <title>Funnel（漏斗）</title>
    <g id="图层_2" data-name="图层 2">
        <g id="图层_21" data-name="图层 21">
            <g id="Funnel_漏斗_" data-name="Funnel（漏斗）">
                <path class="cls-1"
                    d="M96.59,5C96.59,2.5,75.08.5,48.55.5S.5,2.5.5,5a.67.67,0,0,0,.29.48L43.66,77.74h9.77L96.3,5.46A.67.67,0,0,0,96.59,5Z" />
                <path class="cls-2"
                    d="M53.43,77.74,96.3,5.46A.67.67,0,0,0,96.59,5C96.59,2.5,75.08.5,48.55.5S.5,2.5.5,5a.67.67,0,0,0,.29.48L43.66,77.74" />
                <path class="cls-3"
                    d="M96.3,5.48,53.43,77.73H43.67L.8,5.48c2.67,2.23,23,4,47.75,4S93.62,7.71,96.3,5.48Z" />
                <path class="cls-4" d="M.8,5.48c2.67,2.23,23,4,47.75,4s45.07-1.74,47.75-4" />
                <polygon class="cls-5" points="53.43 143.66 43.66 150.5 43.66 77.74 53.43 77.74 53.43 143.66" />
                <polyline class="cls-6" points="53.43 77.74 53.43 143.66 50.1 146 43.66 150.5 43.66 77.74" />
                <path class="cls-7" d="M.49,5l.31.5A.64.64,0,0,1,.49,5Z" />
                <path class="cls-8" d="M96.6,5a.65.65,0,0,1-.3.5Z" />
               
            </g>
        </g>
    </g>
</svg>