<svg xmlns="http://www.w3.org/2000/svg" xmlns:xlink="http://www.w3.org/1999/xlink" viewBox="0 0 47.6 150.24">
    <defs>
        <style>
            .cls-1 {
                opacity: 0.3;
                fill: url(#未命名的渐变_46);
            }

            .cls-2,
            .cls-6 {
                fill: none;
                stroke-miterlimit: 10;
            }

            .cls-2 {
                stroke: url(#未命名的渐变_173);
            }

            .cls-3,
            .cls-4,
            .cls-7 {
                opacity: 0.2;
            }

            .cls-3 {
                fill: url(#未命名的渐变_94);
            }

            .cls-4 {
                fill: url(#未命名的渐变_46-2);
            }

            .cls-5 {
                opacity: 0.6;
            }

            .cls-6 {
                stroke: #606060;
                stroke-width: 0.25px;
            }
        </style>
        <linearGradient id="未命名的渐变_46" x1="11.4" y1="73.96" x2="39.36" y2="73.96" gradientUnits="userSpaceOnUse">
            <stop offset="0" stop-color="#a9b1bb" />
            <stop offset="0.06" stop-color="#5d6166" />
            <stop offset="0.84" stop-color="#e2eaf2" />
            <stop offset="0.93" stop-color="#9ba1ab" />
            <stop offset="1" stop-color="#767b82" />
        </linearGradient>
        <linearGradient id="未命名的渐变_173" x1="22.04" y1="148.18" x2="22.04" gradientUnits="userSpaceOnUse">
            <stop offset="0" stop-color="#898f99" />
            <stop offset="0.12" stop-color="#b9c0cc" />
            <stop offset="0.22" stop-color="#eef7ff" stop-opacity="0" />
            <stop offset="0.94" stop-color="#5e6266" />
            <stop offset="1" stop-color="#e6f1ff" />
        </linearGradient>
        <linearGradient id="未命名的渐变_94" x1="7.82" y1="148.96" x2="42.94" y2="148.96" gradientUnits="userSpaceOnUse">
            <stop offset="0" stop-color="#5d6166" />
            <stop offset="0.5" stop-color="#e2eaf2" />
            <stop offset="0.53" stop-color="#767b82" />
            <stop offset="1" stop-color="#e2eaf2" />
        </linearGradient>
        <linearGradient id="未命名的渐变_46-2" x1="6.55" y1="8.15" x2="12.96" y2="1.75" xlink:href="#未命名的渐变_46" />
    </defs>
    <title>Graduated cylinder（量筒）</title>
    <g id="图层_2" data-name="图层 2">
        <g id="图层_21" data-name="图层 21">
            <g id="Graduated_cylinder_量筒_" data-name="Graduated cylinder（量筒）">
                <rect class="cls-1" x="11.4" y="0.24" width="27.95" height="147.44" />
                <polyline class="cls-2" points="39.36 0.24 39.36 147.68 11.4 147.68 11.4 12.56 4.66 0.24" />
                <rect class="cls-3" x="7.82" y="147.68" width="35.12" height="2.56" />
                <polygon class="cls-4" points="11.45 13.05 4.66 0.24 11.45 0.24 11.45 13.05" />
                <g class="cls-5">
                    <line class="cls-6" x1="11.45" y1="136.38" x2="39.36" y2="136.38" />
                    <line class="cls-6" x1="11.45" y1="123.6" x2="39.36" y2="123.6" />
                    <line class="cls-6" x1="11.45" y1="135.11" x2="16.59" y2="135.11" />
                    <line class="cls-6" x1="11.45" y1="133.83" x2="16.59" y2="133.83" />
                    <line class="cls-6" x1="11.45" y1="132.55" x2="16.59" y2="132.55" />
                    <line class="cls-6" x1="11.45" y1="131.27" x2="16.59" y2="131.27" />
                    <line class="cls-6" x1="11.45" y1="129.99" x2="18.13" y2="129.99" />
                    <line class="cls-6" x1="11.45" y1="128.71" x2="16.59" y2="128.71" />
                    <line class="cls-6" x1="11.45" y1="127.44" x2="16.59" y2="127.44" />
                    <line class="cls-6" x1="11.45" y1="126.16" x2="16.59" y2="126.16" />
                    <line class="cls-6" x1="11.45" y1="124.88" x2="16.59" y2="124.88" />
                    <line class="cls-6" x1="11.45" y1="123.6" x2="25.38" y2="123.6" />
                    <line class="cls-6" x1="11.45" y1="110.82" x2="25.38" y2="110.82" />
                    <line class="cls-6" x1="11.45" y1="122.32" x2="16.59" y2="122.32" />
                    <line class="cls-6" x1="11.45" y1="121.04" x2="16.59" y2="121.04" />
                    <line class="cls-6" x1="11.45" y1="119.77" x2="16.59" y2="119.77" />
                    <line class="cls-6" x1="11.45" y1="118.49" x2="16.59" y2="118.49" />
                    <line class="cls-6" x1="11.45" y1="117.21" x2="18.13" y2="117.21" />
                    <line class="cls-6" x1="11.45" y1="115.93" x2="16.59" y2="115.93" />
                    <line class="cls-6" x1="11.45" y1="114.65" x2="16.59" y2="114.65" />
                    <line class="cls-6" x1="11.45" y1="113.37" x2="16.59" y2="113.37" />
                    <line class="cls-6" x1="11.45" y1="112.1" x2="16.59" y2="112.1" />
                    <line class="cls-6" x1="11.45" y1="110.82" x2="39.36" y2="110.82" />
                    <line class="cls-6" x1="11.45" y1="98.03" x2="39.36" y2="98.03" />
                    <line class="cls-6" x1="11.45" y1="109.54" x2="16.59" y2="109.54" />
                    <line class="cls-6" x1="11.45" y1="108.26" x2="16.59" y2="108.26" />
                    <line class="cls-6" x1="11.45" y1="106.98" x2="16.59" y2="106.98" />
                    <line class="cls-6" x1="11.45" y1="105.7" x2="16.59" y2="105.7" />
                    <line class="cls-6" x1="11.45" y1="104.43" x2="18.13" y2="104.43" />
                    <line class="cls-6" x1="11.45" y1="103.15" x2="16.59" y2="103.15" />
                    <line class="cls-6" x1="11.45" y1="101.87" x2="16.59" y2="101.87" />
                    <line class="cls-6" x1="11.45" y1="100.59" x2="16.59" y2="100.59" />
                    <line class="cls-6" x1="11.45" y1="99.31" x2="16.59" y2="99.31" />
                    <line class="cls-6" x1="11.45" y1="98.03" x2="25.38" y2="98.03" />
                    <line class="cls-6" x1="11.45" y1="85.25" x2="25.38" y2="85.25" />
                    <line class="cls-6" x1="11.45" y1="96.76" x2="16.59" y2="96.76" />
                    <line class="cls-6" x1="11.45" y1="95.48" x2="16.59" y2="95.48" />
                    <line class="cls-6" x1="11.45" y1="94.2" x2="16.59" y2="94.2" />
                    <line class="cls-6" x1="11.45" y1="92.92" x2="16.59" y2="92.92" />
                    <line class="cls-6" x1="11.45" y1="91.64" x2="18.13" y2="91.64" />
                    <line class="cls-6" x1="11.45" y1="90.36" x2="16.59" y2="90.36" />
                    <line class="cls-6" x1="11.45" y1="89.09" x2="16.59" y2="89.09" />
                    <line class="cls-6" x1="11.45" y1="87.81" x2="16.59" y2="87.81" />
                    <line class="cls-6" x1="11.45" y1="86.53" x2="16.59" y2="86.53" />
                    <line class="cls-6" x1="11.45" y1="85.25" x2="39.36" y2="85.25" />
                    <line class="cls-6" x1="11.45" y1="72.47" x2="39.36" y2="72.47" />
                    <line class="cls-6" x1="11.45" y1="83.97" x2="16.59" y2="83.97" />
                    <line class="cls-6" x1="11.45" y1="82.69" x2="16.59" y2="82.69" />
                    <line class="cls-6" x1="11.45" y1="81.42" x2="16.59" y2="81.42" />
                    <line class="cls-6" x1="11.45" y1="80.14" x2="16.59" y2="80.14" />
                    <line class="cls-6" x1="11.45" y1="78.86" x2="18.13" y2="78.86" />
                    <line class="cls-6" x1="11.45" y1="77.58" x2="16.59" y2="77.58" />
                    <line class="cls-6" x1="11.45" y1="76.3" x2="16.59" y2="76.3" />
                    <line class="cls-6" x1="11.45" y1="75.02" x2="16.59" y2="75.02" />
                    <line class="cls-6" x1="11.45" y1="73.75" x2="16.59" y2="73.75" />
                    <line class="cls-6" x1="11.45" y1="72.47" x2="25.38" y2="72.47" />
                    <line class="cls-6" x1="11.45" y1="71.19" x2="16.59" y2="71.19" />
                    <line class="cls-6" x1="11.45" y1="69.91" x2="16.59" y2="69.91" />
                    <line class="cls-6" x1="11.45" y1="68.63" x2="16.59" y2="68.63" />
                    <line class="cls-6" x1="11.45" y1="67.35" x2="16.59" y2="67.35" />
                    <line class="cls-6" x1="11.45" y1="66.08" x2="18.13" y2="66.08" />
                    <line class="cls-6" x1="11.45" y1="64.8" x2="16.59" y2="64.8" />
                    <line class="cls-6" x1="11.45" y1="63.52" x2="16.59" y2="63.52" />
                    <line class="cls-6" x1="11.45" y1="62.24" x2="16.59" y2="62.24" />
                    <line class="cls-6" x1="11.45" y1="60.96" x2="16.59" y2="60.96" />
                    <line class="cls-6" x1="11.45" y1="59.52" x2="39.36" y2="59.52" />
                    <line class="cls-6" x1="11.45" y1="46.74" x2="39.36" y2="46.74" />
                    <line class="cls-6" x1="11.45" y1="58.25" x2="16.59" y2="58.25" />
                    <line class="cls-6" x1="11.45" y1="56.97" x2="16.59" y2="56.97" />
                    <line class="cls-6" x1="11.45" y1="55.69" x2="16.59" y2="55.69" />
                    <line class="cls-6" x1="11.45" y1="54.41" x2="16.59" y2="54.41" />
                    <line class="cls-6" x1="11.45" y1="53.13" x2="18.13" y2="53.13" />
                    <line class="cls-6" x1="11.45" y1="51.85" x2="16.59" y2="51.85" />
                    <line class="cls-6" x1="11.45" y1="50.58" x2="16.59" y2="50.58" />
                    <line class="cls-6" x1="11.45" y1="49.3" x2="16.59" y2="49.3" />
                    <line class="cls-6" x1="11.45" y1="48.02" x2="16.59" y2="48.02" />
                    <line class="cls-6" x1="11.45" y1="46.74" x2="25.38" y2="46.74" />
                    <line class="cls-6" x1="11.45" y1="33.96" x2="25.38" y2="33.96" />
                    <line class="cls-6" x1="11.45" y1="45.46" x2="16.59" y2="45.46" />
                    <line class="cls-6" x1="11.45" y1="44.18" x2="16.59" y2="44.18" />
                    <line class="cls-6" x1="11.45" y1="42.91" x2="16.59" y2="42.91" />
                    <line class="cls-6" x1="11.45" y1="41.63" x2="16.59" y2="41.63" />
                    <line class="cls-6" x1="11.45" y1="40.35" x2="18.13" y2="40.35" />
                    <line class="cls-6" x1="11.45" y1="39.07" x2="16.59" y2="39.07" />
                    <line class="cls-6" x1="11.45" y1="37.79" x2="16.59" y2="37.79" />
                    <line class="cls-6" x1="11.45" y1="36.51" x2="16.59" y2="36.51" />
                    <line class="cls-6" x1="11.45" y1="35.24" x2="16.59" y2="35.24" />
                    <line class="cls-6" x1="11.45" y1="33.96" x2="39.36" y2="33.96" />
                    <line class="cls-6" x1="11.45" y1="21.17" x2="39.36" y2="21.17" />
                    <line class="cls-6" x1="11.45" y1="32.68" x2="16.59" y2="32.68" />
                    <line class="cls-6" x1="11.45" y1="31.4" x2="16.59" y2="31.4" />
                    <line class="cls-6" x1="11.45" y1="30.12" x2="16.59" y2="30.12" />
                    <line class="cls-6" x1="11.45" y1="28.84" x2="16.59" y2="28.84" />
                    <line class="cls-6" x1="11.45" y1="27.57" x2="18.13" y2="27.57" />
                    <line class="cls-6" x1="11.45" y1="26.29" x2="16.59" y2="26.29" />
                    <line class="cls-6" x1="11.45" y1="25.01" x2="16.59" y2="25.01" />
                    <line class="cls-6" x1="11.45" y1="23.73" x2="16.59" y2="23.73" />
                    <line class="cls-6" x1="11.45" y1="22.45" x2="16.59" y2="22.45" />
                </g>
                <g class="cls-5">
                    <path d="M22.21,132.56l-.75.14v-.46l.91-.19h.41v3.06h-.57Z" />
                    <path
                        d="M24.89,135.15a1.23,1.23,0,0,1-.44-.07.73.73,0,0,1-.34-.24,1.19,1.19,0,0,1-.22-.48,3.4,3.4,0,0,1-.08-.78,3.25,3.25,0,0,1,.08-.77,1.17,1.17,0,0,1,.22-.49.67.67,0,0,1,.34-.24,1.23,1.23,0,0,1,.44-.07,1.25,1.25,0,0,1,.45.07.67.67,0,0,1,.34.24,1.31,1.31,0,0,1,.22.49,3.31,3.31,0,0,1,.07.77,3.46,3.46,0,0,1-.07.78,1.34,1.34,0,0,1-.22.48.73.73,0,0,1-.34.24A1.25,1.25,0,0,1,24.89,135.15Zm0-.48a.55.55,0,0,0,.24,0,.46.46,0,0,0,.17-.17,1.18,1.18,0,0,0,.09-.34,4.88,4.88,0,0,0,0-1.08,1.28,1.28,0,0,0-.09-.34.46.46,0,0,0-.17-.17.54.54,0,0,0-.24-.05.6.6,0,0,0-.24.05.44.44,0,0,0-.16.17,1.28,1.28,0,0,0-.09.34,4.88,4.88,0,0,0,0,1.08,1.18,1.18,0,0,0,.09.34.44.44,0,0,0,.16.17A.61.61,0,0,0,24.89,134.67Z" />
                    <path
                        d="M27.47,135.15a1.25,1.25,0,0,1-.45-.07.79.79,0,0,1-.34-.24,1.19,1.19,0,0,1-.22-.48,3.4,3.4,0,0,1-.08-.78,3.25,3.25,0,0,1,.08-.77,1.17,1.17,0,0,1,.22-.49.71.71,0,0,1,.34-.24,1.25,1.25,0,0,1,.45-.07,1.23,1.23,0,0,1,.44.07.67.67,0,0,1,.34.24,1.17,1.17,0,0,1,.22.49,3.25,3.25,0,0,1,.08.77,3.4,3.4,0,0,1-.08.78,1.19,1.19,0,0,1-.22.48.73.73,0,0,1-.34.24A1.23,1.23,0,0,1,27.47,135.15Zm0-.48a.53.53,0,0,0,.23,0,.46.46,0,0,0,.17-.17,1.18,1.18,0,0,0,.09-.34A4.87,4.87,0,0,0,28,133a1.28,1.28,0,0,0-.09-.34.46.46,0,0,0-.17-.17.52.52,0,0,0-.23-.05.54.54,0,0,0-.24.05.46.46,0,0,0-.17.17A1.28,1.28,0,0,0,27,133a4.88,4.88,0,0,0,0,1.08,1.18,1.18,0,0,0,.09.34.46.46,0,0,0,.17.17A.55.55,0,0,0,27.47,134.67Z" />
                    <path
                        d="M21.27,121.8c.29-.23.52-.42.71-.59a4.58,4.58,0,0,0,.44-.43,1.28,1.28,0,0,0,.22-.34.58.58,0,0,0,.07-.28.52.52,0,0,0-.05-.23.44.44,0,0,0-.12-.15.48.48,0,0,0-.18-.07.82.82,0,0,0-.22,0,1.77,1.77,0,0,0-.32,0,1.82,1.82,0,0,0-.36.08v-.47l.37-.07a2.61,2.61,0,0,1,.4,0,1.23,1.23,0,0,1,.76.21.76.76,0,0,1,.28.65,1.36,1.36,0,0,1-.05.36,1.13,1.13,0,0,1-.17.35,2.91,2.91,0,0,1-.35.39,6.38,6.38,0,0,1-.56.48l-.19.15v0h1.41v.46H21.27Z" />
                    <path
                        d="M24.89,122.36a1.51,1.51,0,0,1-.44-.06.76.76,0,0,1-.34-.25,1.07,1.07,0,0,1-.22-.48,3.79,3.79,0,0,1,0-1.55,1.19,1.19,0,0,1,.22-.48.76.76,0,0,1,.34-.25,1.51,1.51,0,0,1,.44-.06,1.53,1.53,0,0,1,.45.06.76.76,0,0,1,.34.25,1.34,1.34,0,0,1,.22.48,3.31,3.31,0,0,1,.07.77,3.35,3.35,0,0,1-.07.78,1.19,1.19,0,0,1-.22.48.76.76,0,0,1-.34.25A1.53,1.53,0,0,1,24.89,122.36Zm0-.47a.54.54,0,0,0,.24,0,.4.4,0,0,0,.17-.17,1.1,1.1,0,0,0,.09-.33,4,4,0,0,0,0-.55,4.06,4.06,0,0,0,0-.54,1.1,1.1,0,0,0-.09-.33.4.4,0,0,0-.17-.17.54.54,0,0,0-.24,0,.6.6,0,0,0-.24,0,.38.38,0,0,0-.16.17,1.1,1.1,0,0,0-.09.33,4.06,4.06,0,0,0,0,.54,4,4,0,0,0,0,.55,1.1,1.1,0,0,0,.09.33.38.38,0,0,0,.16.17A.6.6,0,0,0,24.89,121.89Z" />
                    <path
                        d="M27.47,122.36a1.53,1.53,0,0,1-.45-.06.81.81,0,0,1-.34-.25,1.07,1.07,0,0,1-.22-.48,3.79,3.79,0,0,1,0-1.55,1.19,1.19,0,0,1,.22-.48.81.81,0,0,1,.34-.25,1.53,1.53,0,0,1,.45-.06,1.51,1.51,0,0,1,.44.06.76.76,0,0,1,.34.25,1.19,1.19,0,0,1,.22.48,3.79,3.79,0,0,1,0,1.55,1.07,1.07,0,0,1-.22.48.76.76,0,0,1-.34.25A1.51,1.51,0,0,1,27.47,122.36Zm0-.47a.52.52,0,0,0,.23,0,.4.4,0,0,0,.17-.17,1.1,1.1,0,0,0,.09-.33,4,4,0,0,0,0-.55,4.06,4.06,0,0,0,0-.54,1.1,1.1,0,0,0-.09-.33.4.4,0,0,0-.17-.17.52.52,0,0,0-.23,0,.54.54,0,0,0-.24,0,.4.4,0,0,0-.17.17,1.1,1.1,0,0,0-.09.33,4.06,4.06,0,0,0,0,.54,4,4,0,0,0,0,.55,1.1,1.1,0,0,0,.09.33.4.4,0,0,0,.17.17A.54.54,0,0,0,27.47,121.89Z" />
                    <path
                        d="M22,109.58h-.37l-.33,0v-.47l.34,0,.33,0,.28,0a.63.63,0,0,0,.22-.08.36.36,0,0,0,.16-.14.52.52,0,0,0,.05-.23.37.37,0,0,0-.21-.37,1.29,1.29,0,0,0-.58-.1h-.24v-.43h.24a1.16,1.16,0,0,0,.54-.1.37.37,0,0,0,.19-.35.35.35,0,0,0-.15-.32.89.89,0,0,0-.44-.08,1.62,1.62,0,0,0-.3,0l-.3.06v-.45l.3-.06a2.22,2.22,0,0,1,.37,0,2,2,0,0,1,.44,0,.81.81,0,0,1,.34.14.64.64,0,0,1,.21.25.89.89,0,0,1,.08.38.65.65,0,0,1-.13.43.77.77,0,0,1-.38.25v0a.67.67,0,0,1,.44.25.72.72,0,0,1,.15.47C23.28,109.28,22.86,109.58,22,109.58Z" />
                    <path
                        d="M24.89,109.58a1.23,1.23,0,0,1-.44-.07.67.67,0,0,1-.34-.24,1.19,1.19,0,0,1-.22-.48,3.34,3.34,0,0,1-.08-.78,3.25,3.25,0,0,1,.08-.77,1.13,1.13,0,0,1,.22-.48.76.76,0,0,1,.34-.25,1.23,1.23,0,0,1,.44-.07,1.25,1.25,0,0,1,.45.07.76.76,0,0,1,.34.25,1.26,1.26,0,0,1,.22.48A3.31,3.31,0,0,1,26,108a3.4,3.4,0,0,1-.07.78,1.34,1.34,0,0,1-.22.48.67.67,0,0,1-.34.24A1.25,1.25,0,0,1,24.89,109.58Zm0-.47a.54.54,0,0,0,.24,0,.4.4,0,0,0,.17-.17,1.1,1.1,0,0,0,.09-.33,4.22,4.22,0,0,0,0-.55,4,4,0,0,0,0-.54,1.1,1.1,0,0,0-.09-.33.35.35,0,0,0-.17-.17.43.43,0,0,0-.24,0,.47.47,0,0,0-.24,0,.33.33,0,0,0-.16.17,1.1,1.1,0,0,0-.09.33,4,4,0,0,0,0,.54,4.22,4.22,0,0,0,0,.55,1.1,1.1,0,0,0,.09.33.38.38,0,0,0,.16.17A.6.6,0,0,0,24.89,109.11Z" />
                    <path
                        d="M27.47,109.58a1.25,1.25,0,0,1-.45-.07.71.71,0,0,1-.34-.24,1.19,1.19,0,0,1-.22-.48,3.34,3.34,0,0,1-.08-.78,3.25,3.25,0,0,1,.08-.77,1.13,1.13,0,0,1,.22-.48.81.81,0,0,1,.34-.25,1.25,1.25,0,0,1,.45-.07,1.23,1.23,0,0,1,.44.07.76.76,0,0,1,.34.25,1.13,1.13,0,0,1,.22.48,3.25,3.25,0,0,1,.08.77,3.34,3.34,0,0,1-.08.78,1.19,1.19,0,0,1-.22.48.67.67,0,0,1-.34.24A1.23,1.23,0,0,1,27.47,109.58Zm0-.47a.52.52,0,0,0,.23,0,.4.4,0,0,0,.17-.17,1.1,1.1,0,0,0,.09-.33,4.22,4.22,0,0,0,0-.55,4,4,0,0,0,0-.54,1.1,1.1,0,0,0-.09-.33.35.35,0,0,0-.17-.17.41.41,0,0,0-.23,0,.43.43,0,0,0-.24,0,.35.35,0,0,0-.17.17,1.1,1.1,0,0,0-.09.33,4,4,0,0,0,0,.54,4.22,4.22,0,0,0,0,.55,1.1,1.1,0,0,0,.09.33.4.4,0,0,0,.17.17A.54.54,0,0,0,27.47,109.11Z" />
                    <path
                        d="M23.42,96.07h-.34v.69h-.53v-.69H21.16v-.56l1.27-1.81h.65v1.9h.34Zm-.87-.47V94.28h0l-.89,1.29v0Z" />
                    <path
                        d="M24.89,96.8a1.23,1.23,0,0,1-.44-.07.73.73,0,0,1-.34-.24,1.19,1.19,0,0,1-.22-.48,3.4,3.4,0,0,1-.08-.78,3.25,3.25,0,0,1,.08-.77,1.17,1.17,0,0,1,.22-.49.73.73,0,0,1,.34-.24,1.23,1.23,0,0,1,.44-.07,1.25,1.25,0,0,1,.45.07.73.73,0,0,1,.34.24,1.31,1.31,0,0,1,.22.49,3.31,3.31,0,0,1,.07.77,3.46,3.46,0,0,1-.07.78,1.34,1.34,0,0,1-.22.48.73.73,0,0,1-.34.24A1.25,1.25,0,0,1,24.89,96.8Zm0-.48a.55.55,0,0,0,.24,0,.46.46,0,0,0,.17-.17,1.18,1.18,0,0,0,.09-.34,4.87,4.87,0,0,0,0-1.08,1.28,1.28,0,0,0-.09-.34.46.46,0,0,0-.17-.17.54.54,0,0,0-.24-.05.6.6,0,0,0-.24.05.44.44,0,0,0-.16.17,1.28,1.28,0,0,0-.09.34,4.87,4.87,0,0,0,0,1.08,1.18,1.18,0,0,0,.09.34.44.44,0,0,0,.16.17A.61.61,0,0,0,24.89,96.32Z" />
                    <path
                        d="M27.47,96.8a1.25,1.25,0,0,1-.45-.07.79.79,0,0,1-.34-.24,1.19,1.19,0,0,1-.22-.48,3.4,3.4,0,0,1-.08-.78,3.25,3.25,0,0,1,.08-.77,1.17,1.17,0,0,1,.22-.49.79.79,0,0,1,.34-.24,1.25,1.25,0,0,1,.45-.07,1.23,1.23,0,0,1,.44.07.73.73,0,0,1,.34.24,1.17,1.17,0,0,1,.22.49,3.25,3.25,0,0,1,.08.77,3.4,3.4,0,0,1-.08.78,1.19,1.19,0,0,1-.22.48.73.73,0,0,1-.34.24A1.23,1.23,0,0,1,27.47,96.8Zm0-.48a.53.53,0,0,0,.23,0,.46.46,0,0,0,.17-.17,1.18,1.18,0,0,0,.09-.34,4.88,4.88,0,0,0,0-1.08,1.28,1.28,0,0,0-.09-.34.46.46,0,0,0-.17-.17.52.52,0,0,0-.23-.05.54.54,0,0,0-.24.05.46.46,0,0,0-.17.17,1.28,1.28,0,0,0-.09.34,4.87,4.87,0,0,0,0,1.08,1.18,1.18,0,0,0,.09.34.46.46,0,0,0,.17.17A.55.55,0,0,0,27.47,96.32Z" />
                    <path
                        d="M22.06,84l-.35,0-.31,0v-.48l.3.06H22l.3,0a.85.85,0,0,0,.24-.09.5.5,0,0,0,.15-.17.48.48,0,0,0,.05-.26.45.45,0,0,0-.17-.41,1.05,1.05,0,0,0-.57-.12l-.31,0-.31,0,.21-1.63h1.52v.47H22.05l-.11.7.16,0h.18a1.19,1.19,0,0,1,.78.23A1.05,1.05,0,0,1,23,83.77,1.6,1.6,0,0,1,22.06,84Z" />
                    <path
                        d="M24.89,84a1.5,1.5,0,0,1-.44-.07.76.76,0,0,1-.34-.25,1.07,1.07,0,0,1-.22-.48,3.79,3.79,0,0,1,0-1.55,1.19,1.19,0,0,1,.22-.48.76.76,0,0,1,.34-.25,1.51,1.51,0,0,1,.44-.06,1.53,1.53,0,0,1,.45.06.76.76,0,0,1,.34.25,1.34,1.34,0,0,1,.22.48,3.31,3.31,0,0,1,.07.77,3.35,3.35,0,0,1-.07.78,1.19,1.19,0,0,1-.22.48.76.76,0,0,1-.34.25A1.52,1.52,0,0,1,24.89,84Zm0-.48a.54.54,0,0,0,.24-.05.4.4,0,0,0,.17-.17,1.1,1.1,0,0,0,.09-.33,4,4,0,0,0,0-.55,4.16,4.16,0,0,0,0-.54,1.1,1.1,0,0,0-.09-.33.4.4,0,0,0-.17-.17.54.54,0,0,0-.24-.05.6.6,0,0,0-.24.05.38.38,0,0,0-.16.17,1.1,1.1,0,0,0-.09.33,4.16,4.16,0,0,0,0,.54,4,4,0,0,0,0,.55,1.1,1.1,0,0,0,.09.33.38.38,0,0,0,.16.17A.6.6,0,0,0,24.89,83.54Z" />
                    <path
                        d="M27.47,84A1.52,1.52,0,0,1,27,84a.81.81,0,0,1-.34-.25,1.07,1.07,0,0,1-.22-.48,3.79,3.79,0,0,1,0-1.55,1.19,1.19,0,0,1,.22-.48.81.81,0,0,1,.34-.25,1.53,1.53,0,0,1,.45-.06,1.51,1.51,0,0,1,.44.06.76.76,0,0,1,.34.25,1.19,1.19,0,0,1,.22.48,3.79,3.79,0,0,1,0,1.55,1.07,1.07,0,0,1-.22.48.76.76,0,0,1-.34.25A1.5,1.5,0,0,1,27.47,84Zm0-.48a.52.52,0,0,0,.23-.05.4.4,0,0,0,.17-.17A1.1,1.1,0,0,0,28,83a4,4,0,0,0,0-.55,4.16,4.16,0,0,0,0-.54,1.1,1.1,0,0,0-.09-.33.4.4,0,0,0-.17-.17.52.52,0,0,0-.23-.05.54.54,0,0,0-.24.05.4.4,0,0,0-.17.17,1.1,1.1,0,0,0-.09.33,4.16,4.16,0,0,0,0,.54A4,4,0,0,0,27,83a1.1,1.1,0,0,0,.09.33.4.4,0,0,0,.17.17A.54.54,0,0,0,27.47,83.54Z" />
                    <path
                        d="M22.32,71.23a1.4,1.4,0,0,1-.41-.06.73.73,0,0,1-.34-.2.87.87,0,0,1-.23-.37,1.68,1.68,0,0,1-.08-.59,3.24,3.24,0,0,1,.09-.79,1.67,1.67,0,0,1,.31-.61,1.39,1.39,0,0,1,.54-.38,2.05,2.05,0,0,1,.78-.14v.48a1.29,1.29,0,0,0-.82.23.91.91,0,0,0-.33.62h0a.93.93,0,0,1,.26-.15,1,1,0,0,1,.35-.06.94.94,0,0,1,.69.25,1,1,0,0,1,.24.73,1.33,1.33,0,0,1-.06.42.89.89,0,0,1-.19.33,1.12,1.12,0,0,1-.33.22A1.39,1.39,0,0,1,22.32,71.23Zm0-.44a.53.53,0,0,0,.41-.15.61.61,0,0,0,.15-.45.57.57,0,0,0-.14-.42.48.48,0,0,0-.37-.14.62.62,0,0,0-.45.14.6.6,0,0,0-.13.38.74.74,0,0,0,.14.48A.49.49,0,0,0,22.31,70.79Z" />
                    <path
                        d="M24.89,71.23a1.23,1.23,0,0,1-.44-.07.67.67,0,0,1-.34-.24,1.19,1.19,0,0,1-.22-.48,3.34,3.34,0,0,1-.08-.78,3.25,3.25,0,0,1,.08-.77,1.19,1.19,0,0,1,.22-.48.76.76,0,0,1,.34-.25,1.5,1.5,0,0,1,.44-.07,1.52,1.52,0,0,1,.45.07.76.76,0,0,1,.34.25,1.34,1.34,0,0,1,.22.48,3.31,3.31,0,0,1,.07.77,3.4,3.4,0,0,1-.07.78,1.34,1.34,0,0,1-.22.48.67.67,0,0,1-.34.24A1.25,1.25,0,0,1,24.89,71.23Zm0-.47a.54.54,0,0,0,.24-.05.4.4,0,0,0,.17-.17,1.1,1.1,0,0,0,.09-.33,4.22,4.22,0,0,0,0-.55,4,4,0,0,0,0-.54,1.1,1.1,0,0,0-.09-.33.4.4,0,0,0-.17-.17.43.43,0,0,0-.24-.05.47.47,0,0,0-.24.05.38.38,0,0,0-.16.17,1.1,1.1,0,0,0-.09.33,4,4,0,0,0,0,.54,4.22,4.22,0,0,0,0,.55,1.1,1.1,0,0,0,.09.33.38.38,0,0,0,.16.17A.6.6,0,0,0,24.89,70.76Z" />
                    <path
                        d="M27.47,71.23a1.25,1.25,0,0,1-.45-.07.71.71,0,0,1-.34-.24,1.19,1.19,0,0,1-.22-.48,3.34,3.34,0,0,1-.08-.78,3.25,3.25,0,0,1,.08-.77,1.19,1.19,0,0,1,.22-.48.81.81,0,0,1,.34-.25,1.52,1.52,0,0,1,.45-.07,1.5,1.5,0,0,1,.44.07.76.76,0,0,1,.34.25,1.19,1.19,0,0,1,.22.48,3.25,3.25,0,0,1,.08.77,3.34,3.34,0,0,1-.08.78,1.19,1.19,0,0,1-.22.48.67.67,0,0,1-.34.24A1.23,1.23,0,0,1,27.47,71.23Zm0-.47a.52.52,0,0,0,.23-.05.4.4,0,0,0,.17-.17,1.1,1.1,0,0,0,.09-.33,4.22,4.22,0,0,0,0-.55,4,4,0,0,0,0-.54,1.1,1.1,0,0,0-.09-.33.4.4,0,0,0-.17-.17.41.41,0,0,0-.23-.05.43.43,0,0,0-.24.05.4.4,0,0,0-.17.17,1.1,1.1,0,0,0-.09.33,4,4,0,0,0,0,.54,4.22,4.22,0,0,0,0,.55,1.1,1.1,0,0,0,.09.33.4.4,0,0,0,.17.17A.54.54,0,0,0,27.47,70.76Z" />
                    <path d="M22.8,55.67H21.27v-.48h2v.54l-1.14,2.52h-.58Z" />
                    <path
                        d="M24.89,58.29a1.23,1.23,0,0,1-.44-.07.67.67,0,0,1-.34-.24,1.19,1.19,0,0,1-.22-.48,3.4,3.4,0,0,1-.08-.78,3.25,3.25,0,0,1,.08-.77,1.17,1.17,0,0,1,.22-.49.73.73,0,0,1,.34-.24,1.23,1.23,0,0,1,.44-.07,1.25,1.25,0,0,1,.45.07.73.73,0,0,1,.34.24,1.31,1.31,0,0,1,.22.49,3.31,3.31,0,0,1,.07.77,3.46,3.46,0,0,1-.07.78,1.34,1.34,0,0,1-.22.48.67.67,0,0,1-.34.24A1.25,1.25,0,0,1,24.89,58.29Zm0-.47a.54.54,0,0,0,.24,0,.46.46,0,0,0,.17-.17,1.09,1.09,0,0,0,.09-.34,4.87,4.87,0,0,0,0-1.08,1.1,1.1,0,0,0-.09-.33.43.43,0,0,0-.17-.18.55.55,0,0,0-.24,0,.61.61,0,0,0-.24,0,.41.41,0,0,0-.16.18,1.1,1.1,0,0,0-.09.33,4.88,4.88,0,0,0,0,1.08,1.09,1.09,0,0,0,.09.34.44.44,0,0,0,.16.17A.6.6,0,0,0,24.89,57.82Z" />
                    <path
                        d="M27.47,58.29a1.25,1.25,0,0,1-.45-.07.71.71,0,0,1-.34-.24,1.19,1.19,0,0,1-.22-.48,3.4,3.4,0,0,1-.08-.78,3.25,3.25,0,0,1,.08-.77,1.17,1.17,0,0,1,.22-.49.79.79,0,0,1,.34-.24,1.25,1.25,0,0,1,.45-.07,1.23,1.23,0,0,1,.44.07.73.73,0,0,1,.34.24,1.17,1.17,0,0,1,.22.49,3.25,3.25,0,0,1,.08.77,3.4,3.4,0,0,1-.08.78,1.19,1.19,0,0,1-.22.48.67.67,0,0,1-.34.24A1.23,1.23,0,0,1,27.47,58.29Zm0-.47a.52.52,0,0,0,.23,0,.46.46,0,0,0,.17-.17,1.09,1.09,0,0,0,.09-.34,4.87,4.87,0,0,0,0-1.08,1.1,1.1,0,0,0-.09-.33.43.43,0,0,0-.17-.18.53.53,0,0,0-.23,0,.55.55,0,0,0-.24,0,.43.43,0,0,0-.17.18,1.1,1.1,0,0,0-.09.33,4.88,4.88,0,0,0,0,1.08,1.09,1.09,0,0,0,.09.34.46.46,0,0,0,.17.17A.54.54,0,0,0,27.47,57.82Z" />
                    <path
                        d="M22.32,45.51a1.31,1.31,0,0,1-.8-.21.72.72,0,0,1-.29-.64.75.75,0,0,1,.05-.31,1.13,1.13,0,0,1,.11-.22.55.55,0,0,1,.17-.14l.18-.1h0a.91.91,0,0,1-.16-.11.44.44,0,0,1-.13-.14.56.56,0,0,1-.09-.19,1,1,0,0,1,0-.26.78.78,0,0,1,.24-.6,1.39,1.39,0,0,1,1.5,0,.78.78,0,0,1,.24.6.75.75,0,0,1-.11.45.72.72,0,0,1-.33.25h0a1,1,0,0,1,.21.1.46.46,0,0,1,.17.14.78.78,0,0,1,.12.22,1,1,0,0,1,0,.31.72.72,0,0,1-.29.64A1.31,1.31,0,0,1,22.32,45.51Zm0-.44a.66.66,0,0,0,.44-.12.43.43,0,0,0,.14-.34.46.46,0,0,0-.15-.38.78.78,0,0,0-.86,0,.46.46,0,0,0-.15.38.43.43,0,0,0,.14.34A.66.66,0,0,0,22.32,45.07Zm0-1.38a.5.5,0,0,0,.39-.14.48.48,0,0,0,.11-.32.41.41,0,0,0-.12-.32.54.54,0,0,0-.38-.12c-.33,0-.5.15-.5.44a.48.48,0,0,0,.11.32A.47.47,0,0,0,22.32,43.69Z" />
                    <path
                        d="M24.89,45.51a1.5,1.5,0,0,1-.44-.07.76.76,0,0,1-.34-.25,1.07,1.07,0,0,1-.22-.48,3.25,3.25,0,0,1-.08-.77,3.34,3.34,0,0,1,.08-.78,1.19,1.19,0,0,1,.22-.48.67.67,0,0,1,.34-.24,1.23,1.23,0,0,1,.44-.07,1.25,1.25,0,0,1,.45.07.67.67,0,0,1,.34.24,1.34,1.34,0,0,1,.22.48,3.4,3.4,0,0,1,.07.78,3.31,3.31,0,0,1-.07.77,1.19,1.19,0,0,1-.22.48.76.76,0,0,1-.34.25A1.52,1.52,0,0,1,24.89,45.51Zm0-.48a.43.43,0,0,0,.24-.05.35.35,0,0,0,.17-.17,1.1,1.1,0,0,0,.09-.33,4.87,4.87,0,0,0,0-1.08,1.18,1.18,0,0,0-.09-.34.4.4,0,0,0-.17-.17.54.54,0,0,0-.24,0,.6.6,0,0,0-.24,0,.38.38,0,0,0-.16.17,1.18,1.18,0,0,0-.09.34,4.88,4.88,0,0,0,0,1.08,1.1,1.1,0,0,0,.09.33.33.33,0,0,0,.16.17A.47.47,0,0,0,24.89,45Z" />
                    <path
                        d="M27.47,45.51a1.52,1.52,0,0,1-.45-.07.81.81,0,0,1-.34-.25,1.07,1.07,0,0,1-.22-.48,3.25,3.25,0,0,1-.08-.77,3.34,3.34,0,0,1,.08-.78,1.19,1.19,0,0,1,.22-.48.71.71,0,0,1,.34-.24,1.25,1.25,0,0,1,.45-.07,1.23,1.23,0,0,1,.44.07.67.67,0,0,1,.34.24,1.19,1.19,0,0,1,.22.48,3.34,3.34,0,0,1,.08.78,3.25,3.25,0,0,1-.08.77,1.07,1.07,0,0,1-.22.48.76.76,0,0,1-.34.25A1.5,1.5,0,0,1,27.47,45.51Zm0-.48A.41.41,0,0,0,27.7,45a.35.35,0,0,0,.17-.17,1.1,1.1,0,0,0,.09-.33,4.87,4.87,0,0,0,0-1.08,1.18,1.18,0,0,0-.09-.34.4.4,0,0,0-.17-.17.52.52,0,0,0-.23,0,.54.54,0,0,0-.24,0,.4.4,0,0,0-.17.17,1.18,1.18,0,0,0-.09.34,4.88,4.88,0,0,0,0,1.08,1.1,1.1,0,0,0,.09.33.35.35,0,0,0,.17.17A.43.43,0,0,0,27.47,45Z" />
                    <path
                        d="M21.66,32.25a1.42,1.42,0,0,0,.82-.21.84.84,0,0,0,.34-.62h0a.89.89,0,0,1-.24.14,1,1,0,0,1-.35.06,1,1,0,0,1-.71-.24,1,1,0,0,1-.25-.73,1.16,1.16,0,0,1,.07-.42.75.75,0,0,1,.19-.34.81.81,0,0,1,.33-.23,1.28,1.28,0,0,1,.47-.08,1.16,1.16,0,0,1,.42.07.9.9,0,0,1,.34.2,1,1,0,0,1,.22.39,1.72,1.72,0,0,1,.09.6,3.26,3.26,0,0,1-.09.8,1.44,1.44,0,0,1-.3.59,1.27,1.27,0,0,1-.53.37,2.13,2.13,0,0,1-.8.13Zm.62-1a.54.54,0,0,0,.44-.14.55.55,0,0,0,.13-.38.74.74,0,0,0-.13-.48.48.48,0,0,0-.4-.18.52.52,0,0,0-.42.16.72.72,0,0,0-.14.46.57.57,0,0,0,.14.42A.51.51,0,0,0,22.28,31.21Z" />
                    <path
                        d="M24.89,32.72a1.23,1.23,0,0,1-.44-.07.67.67,0,0,1-.34-.24,1.19,1.19,0,0,1-.22-.48,3.79,3.79,0,0,1,0-1.55,1.19,1.19,0,0,1,.22-.48.76.76,0,0,1,.34-.25,1.5,1.5,0,0,1,.44-.07,1.52,1.52,0,0,1,.45.07.76.76,0,0,1,.34.25,1.34,1.34,0,0,1,.22.48,3.31,3.31,0,0,1,.07.77,3.35,3.35,0,0,1-.07.78,1.34,1.34,0,0,1-.22.48.67.67,0,0,1-.34.24A1.25,1.25,0,0,1,24.89,32.72Zm0-.47a.54.54,0,0,0,.24,0A.4.4,0,0,0,25.3,32a1.1,1.1,0,0,0,.09-.33,4.22,4.22,0,0,0,0-.55,4,4,0,0,0,0-.54,1.1,1.1,0,0,0-.09-.33.4.4,0,0,0-.17-.17.43.43,0,0,0-.24-.05.47.47,0,0,0-.24.05.38.38,0,0,0-.16.17,1.1,1.1,0,0,0-.09.33,4,4,0,0,0,0,.54,4.22,4.22,0,0,0,0,.55,1.1,1.1,0,0,0,.09.33.38.38,0,0,0,.16.17A.6.6,0,0,0,24.89,32.25Z" />
                    <path
                        d="M27.47,32.72a1.25,1.25,0,0,1-.45-.07.71.71,0,0,1-.34-.24,1.19,1.19,0,0,1-.22-.48,3.79,3.79,0,0,1,0-1.55,1.19,1.19,0,0,1,.22-.48.81.81,0,0,1,.34-.25,1.52,1.52,0,0,1,.45-.07,1.5,1.5,0,0,1,.44.07.76.76,0,0,1,.34.25,1.19,1.19,0,0,1,.22.48,3.79,3.79,0,0,1,0,1.55,1.19,1.19,0,0,1-.22.48.67.67,0,0,1-.34.24A1.23,1.23,0,0,1,27.47,32.72Zm0-.47a.52.52,0,0,0,.23,0,.4.4,0,0,0,.17-.17A1.1,1.1,0,0,0,28,31.7a4.22,4.22,0,0,0,0-.55,4,4,0,0,0,0-.54,1.1,1.1,0,0,0-.09-.33.4.4,0,0,0-.17-.17.41.41,0,0,0-.23-.05.43.43,0,0,0-.24.05.4.4,0,0,0-.17.17,1.1,1.1,0,0,0-.09.33,4,4,0,0,0,0,.54,4.22,4.22,0,0,0,0,.55,1.1,1.1,0,0,0,.09.33.4.4,0,0,0,.17.17A.54.54,0,0,0,27.47,32.25Z" />
                    <path d="M22.21,17.15l-.75.15v-.47l.91-.18h.41V19.7h-.57Z" />
                    <path
                        d="M24.89,19.74a1.51,1.51,0,0,1-.44-.06.76.76,0,0,1-.34-.25,1.13,1.13,0,0,1-.22-.48,3.79,3.79,0,0,1,0-1.55,1.19,1.19,0,0,1,.22-.48.76.76,0,0,1,.34-.25,1.5,1.5,0,0,1,.44-.07,1.52,1.52,0,0,1,.45.07.76.76,0,0,1,.34.25,1.34,1.34,0,0,1,.22.48,3.31,3.31,0,0,1,.07.77,3.35,3.35,0,0,1-.07.78,1.26,1.26,0,0,1-.22.48.76.76,0,0,1-.34.25A1.53,1.53,0,0,1,24.89,19.74Zm0-.47a.54.54,0,0,0,.24-.05.4.4,0,0,0,.17-.17,1.1,1.1,0,0,0,.09-.33,4.11,4.11,0,0,0,0-.55,4,4,0,0,0,0-.54,1.1,1.1,0,0,0-.09-.33.4.4,0,0,0-.17-.17.54.54,0,0,0-.24-.05.6.6,0,0,0-.24.05.38.38,0,0,0-.16.17,1.1,1.1,0,0,0-.09.33,4,4,0,0,0,0,.54,4.11,4.11,0,0,0,0,.55,1.1,1.1,0,0,0,.09.33.38.38,0,0,0,.16.17A.6.6,0,0,0,24.89,19.27Z" />
                    <path
                        d="M27.47,19.74a1.53,1.53,0,0,1-.45-.06.81.81,0,0,1-.34-.25,1.13,1.13,0,0,1-.22-.48,3.79,3.79,0,0,1,0-1.55,1.19,1.19,0,0,1,.22-.48.81.81,0,0,1,.34-.25,1.52,1.52,0,0,1,.45-.07,1.5,1.5,0,0,1,.44.07.76.76,0,0,1,.34.25,1.19,1.19,0,0,1,.22.48,3.79,3.79,0,0,1,0,1.55,1.13,1.13,0,0,1-.22.48.76.76,0,0,1-.34.25A1.51,1.51,0,0,1,27.47,19.74Zm0-.47a.52.52,0,0,0,.23-.05.4.4,0,0,0,.17-.17,1.1,1.1,0,0,0,.09-.33,4.11,4.11,0,0,0,0-.55,4,4,0,0,0,0-.54,1.1,1.1,0,0,0-.09-.33.4.4,0,0,0-.17-.17.52.52,0,0,0-.23-.05.54.54,0,0,0-.24.05.4.4,0,0,0-.17.17,1.1,1.1,0,0,0-.09.33,4,4,0,0,0,0,.54,4.11,4.11,0,0,0,0,.55,1.1,1.1,0,0,0,.09.33.4.4,0,0,0,.17.17A.54.54,0,0,0,27.47,19.27Z" />
                    <path
                        d="M30,19.74a1.58,1.58,0,0,1-.45-.06.81.81,0,0,1-.34-.25A1.26,1.26,0,0,1,29,19a3.35,3.35,0,0,1-.07-.78A3.31,3.31,0,0,1,29,17.4a1.34,1.34,0,0,1,.22-.48.81.81,0,0,1,.34-.25A1.57,1.57,0,0,1,30,16.6a1.5,1.5,0,0,1,.44.07.71.71,0,0,1,.34.25,1.19,1.19,0,0,1,.22.48A3.79,3.79,0,0,1,31,19a1.13,1.13,0,0,1-.22.48.71.71,0,0,1-.34.25A1.51,1.51,0,0,1,30,19.74Zm0-.47a.6.6,0,0,0,.24-.05.38.38,0,0,0,.16-.17,1.1,1.1,0,0,0,.09-.33,3.9,3.9,0,0,0,0-.55,3.74,3.74,0,0,0,0-.54,1.1,1.1,0,0,0-.09-.33.38.38,0,0,0-.16-.17.6.6,0,0,0-.24-.05.54.54,0,0,0-.24.05.33.33,0,0,0-.16.17,1.1,1.1,0,0,0-.09.33,2.7,2.7,0,0,0,0,.54,2.81,2.81,0,0,0,0,.55,1.1,1.1,0,0,0,.09.33.33.33,0,0,0,.16.17A.54.54,0,0,0,30,19.27Z" />
                </g>
        
            </g>
        </g>
    </g>
</svg>