<svg xmlns="http://www.w3.org/2000/svg" xmlns:xlink="http://www.w3.org/1999/xlink" viewBox="0 0 84.45 150">
    <defs>
        <style>
            .cls-1 {
                fill: none;
            }

            .cls-2 {
                fill: url(#未命名的渐变_85);
            }

            .cls-3 {
                opacity: 0.3;
                fill: url(#未命名的渐变_90);
            }

            .cls-4 {
                fill: url(#未命名的渐变_88);
            }

            .cls-5 {
                fill: url(#未命名的渐变_85-2);
            }

            .cls-6 {
                fill: url(#未命名的渐变_85-3);
            }

            .cls-7 {
                fill: url(#未命名的渐变_85-4);
            }

            .cls-8 {
                clip-path: url(#clip-path);
            }

            .cls-9 {
                fill: url(#未命名的渐变_85-5);
            }

            .cls-10 {
                fill: url(#未命名的渐变_85-6);
            }

            .cls-11 {
                fill: url(#未命名的渐变_85-7);
            }

            .cls-12 {
                fill: url(#未命名的渐变_85-8);
            }

            .cls-13 {
                fill: url(#未命名的渐变_85-9);
            }

            .cls-14 {
                fill: url(#未命名的渐变_85-10);
            }

            .cls-15 {
                fill: url(#未命名的渐变_85-11);
            }

            .cls-16 {
                fill: url(#未命名的渐变_85-12);
            }

            .cls-17 {
                fill: url(#未命名的渐变_85-13);
            }

            .cls-18 {
                fill: url(#未命名的渐变_85-14);
            }

            .cls-19 {
                fill: url(#未命名的渐变_85-15);
            }

            .cls-20 {
                fill: url(#未命名的渐变_85-16);
            }

            .cls-21 {
                fill: url(#未命名的渐变_85-17);
            }

            .cls-22 {
                fill: url(#未命名的渐变_85-18);
            }

            .cls-23 {
                fill: url(#未命名的渐变_85-19);
            }

            .cls-24 {
                fill: url(#未命名的渐变_85-20);
            }

            .cls-25 {
                fill: url(#未命名的渐变_85-21);
            }

            .cls-26 {
                fill: url(#未命名的渐变_88-2);
            }

            .cls-27 {
                fill: url(#未命名的渐变_85-22);
            }

            .cls-28 {
                fill: url(#未命名的渐变_85-23);
            }

            .cls-29 {
                fill: url(#未命名的渐变_85-24);
            }

            .cls-30 {
                clip-path: url(#clip-path-2);
            }

            .cls-31 {
                fill: url(#未命名的渐变_85-25);
            }

            .cls-32 {
                fill: url(#未命名的渐变_85-26);
            }

            .cls-33 {
                fill: url(#未命名的渐变_85-27);
            }

            .cls-34 {
                fill: url(#未命名的渐变_85-28);
            }

            .cls-35 {
                fill: url(#未命名的渐变_85-29);
            }

            .cls-36 {
                fill: url(#未命名的渐变_85-30);
            }

            .cls-37 {
                fill: url(#未命名的渐变_85-31);
            }

            .cls-38 {
                fill: url(#未命名的渐变_85-32);
            }

            .cls-39 {
                fill: url(#未命名的渐变_85-33);
            }

            .cls-40 {
                fill: url(#未命名的渐变_85-34);
            }

            .cls-41 {
                fill: url(#未命名的渐变_85-35);
            }

            .cls-42 {
                fill: url(#未命名的渐变_85-36);
            }

            .cls-43 {
                fill: url(#未命名的渐变_85-37);
            }

            .cls-44 {
                fill: url(#未命名的渐变_85-38);
            }

            .cls-45 {
                fill: url(#未命名的渐变_85-39);
            }

            .cls-46 {
                fill: url(#未命名的渐变_85-40);
            }

            .cls-47 {
                fill: url(#未命名的渐变_85-41);
            }

            .cls-48 {
                fill: url(#未命名的渐变_88-3);
            }

            .cls-49 {
                fill: url(#未命名的渐变_85-42);
            }

            .cls-50 {
                fill: url(#未命名的渐变_85-43);
            }

            .cls-51 {
                clip-path: url(#clip-path-3);
            }

            .cls-52 {
                fill: url(#未命名的渐变_85-44);
            }

            .cls-53 {
                fill: url(#未命名的渐变_85-45);
            }

            .cls-54 {
                fill: url(#未命名的渐变_85-46);
            }

            .cls-55 {
                fill: url(#未命名的渐变_85-47);
            }

            .cls-56 {
                fill: url(#未命名的渐变_85-48);
            }

            .cls-57 {
                fill: url(#未命名的渐变_85-49);
            }

            .cls-58 {
                fill: url(#未命名的渐变_85-50);
            }

            .cls-59 {
                fill: url(#未命名的渐变_85-51);
            }

            .cls-60 {
                fill: url(#未命名的渐变_85-52);
            }

            .cls-61 {
                fill: url(#未命名的渐变_85-53);
            }

            .cls-62 {
                fill: url(#未命名的渐变_85-54);
            }

            .cls-63 {
                fill: url(#未命名的渐变_85-55);
            }

            .cls-64 {
                fill: url(#未命名的渐变_85-56);
            }

            .cls-65 {
                fill: url(#未命名的渐变_85-57);
            }

            .cls-66 {
                fill: url(#未命名的渐变_85-58);
            }

            .cls-67 {
                fill: url(#未命名的渐变_85-59);
            }

            .cls-68 {
                fill: url(#未命名的渐变_85-60);
            }

            .cls-69 {
                fill: url(#未命名的渐变_81);
            }

            .cls-70 {
                fill: url(#未命名的渐变_85-61);
            }

            .cls-71 {
                fill: url(#未命名的渐变_81-2);
            }

            .cls-72 {
                fill: url(#未命名的渐变_85-62);
            }

            .cls-73 {
                fill: url(#未命名的渐变_86);
            }

            .cls-74 {
                fill: url(#未命名的渐变_81-3);
            }

            .cls-75 {
                fill: url(#未命名的渐变_95);
            }

            .cls-76 {
                fill: url(#未命名的渐变_69);
            }

            .cls-77 {
                fill: url(#未命名的渐变_69-2);
            }

            .cls-78 {
                fill: url(#未命名的渐变_69-3);
            }

            .cls-79,
            .cls-81 {
                opacity: 0.5;
            }

            .cls-79 {
                fill: url(#未命名的渐变_9);
            }

            .cls-80 {
                fill: url(#未命名的渐变_69-4);
            }

            .cls-81 {
                fill: url(#未命名的渐变_9-2);
            }

            .cls-82 {
                fill: url(#未命名的渐变_84);
            }

            .cls-83 {
                fill: url(#未命名的渐变_31);
            }

            .cls-84 {
                fill: url(#未命名的渐变_31-2);
            }

            .cls-85 {
                fill: url(#未命名的渐变_31-3);
            }

            .cls-86 {
                fill: url(#未命名的渐变_31-4);
            }

            .cls-87 {
                fill: url(#未命名的渐变_31-5);
            }

            .cls-88 {
                fill: url(#未命名的渐变_31-6);
            }

            .cls-89 {
                fill: url(#未命名的渐变_31-7);
            }

            .cls-90 {
                fill: url(#未命名的渐变_31-8);
            }

            .cls-91 {
                fill: url(#未命名的渐变_31-9);
            }

            .cls-92 {
                fill: url(#未命名的渐变_132);
            }

            .cls-93 {
                fill: url(#未命名的渐变_132-2);
            }

            .cls-94 {
                fill: url(#未命名的渐变_31-10);
            }

            .cls-95 {
                fill: url(#未命名的渐变_31-11);
            }

            .cls-96 {
                fill: url(#未命名的渐变_31-12);
            }

            .cls-97 {
                fill: url(#未命名的渐变_31-13);
            }

            .cls-98 {
                fill: url(#未命名的渐变_31-14);
            }

            .cls-99 {
                fill: url(#未命名的渐变_31-15);
            }

            .cls-100 {
                fill: url(#未命名的渐变_31-16);
            }

            .cls-101 {
                fill: url(#未命名的渐变_31-17);
            }

            .cls-102 {
                fill: url(#未命名的渐变_31-18);
            }

            .cls-103 {
                fill: url(#未命名的渐变_31-19);
            }

            .cls-104 {
                fill: url(#未命名的渐变_69-5);
            }

            .cls-105 {
                fill: url(#未命名的渐变_132-3);
            }

            .cls-106 {
                fill: url(#未命名的渐变_132-4);
            }

            .cls-107 {
                fill: url(#未命名的渐变_132-5);
            }

            .cls-108 {
                fill: url(#未命名的渐变_132-6);
            }

            .cls-109 {
                fill: url(#未命名的渐变_81-4);
            }

            .cls-110 {
                fill: url(#未命名的渐变_83);
            }

            .cls-111 {
                fill: url(#未命名的渐变_89);
            }

            .cls-112 {
                fill: url(#未命名的渐变_81-5);
            }

            .cls-113 {
                fill: url(#未命名的渐变_83-2);
            }

            .cls-114 {
                fill: url(#未命名的渐变_69-6);
            }

            .cls-115 {
                fill: url(#未命名的渐变_69-7);
            }

            .cls-116 {
                fill: url(#未命名的渐变_89-2);
            }

            .cls-117 {
                fill: url(#未命名的渐变_31-20);
            }

            .cls-118 {
                fill: url(#未命名的渐变_31-21);
            }

            .cls-119 {
                fill: url(#未命名的渐变_31-22);
            }

            .cls-120 {
                fill: url(#未命名的渐变_31-23);
            }

            .cls-121 {
                fill: url(#未命名的渐变_31-24);
            }

            .cls-122 {
                fill: url(#未命名的渐变_31-25);
            }

            .cls-123 {
                fill: url(#未命名的渐变_31-26);
            }

            .cls-124 {
                fill: url(#未命名的渐变_31-27);
            }

            .cls-125 {
                fill: url(#未命名的渐变_31-28);
            }

            .cls-126 {
                opacity: 0.2;
            }
        </style>
        <linearGradient id="未命名的渐变_85" x1="54.46" y1="74.27" x2="78.58" y2="88.19"
            gradientTransform="translate(-20.39 16.73) rotate(-15)" gradientUnits="userSpaceOnUse">
            <stop offset="0" stop-color="#a9b1bb" />
            <stop offset="0.06" stop-color="#5d6166" />
            <stop offset="0.78" stop-color="#e2eaf2" />
            <stop offset="0.93" stop-color="#9ba1ab" />
            <stop offset="1" stop-color="#767b82" />
        </linearGradient>
        <linearGradient id="未命名的渐变_90" x1="66.67" y1="85.76" x2="66.67" y2="80.97"
            gradientTransform="translate(-20.39 16.73) rotate(-15)" gradientUnits="userSpaceOnUse">
            <stop offset="0" stop-color="#878d93" stop-opacity="0" />
            <stop offset="1" stop-color="#2e3033" />
        </linearGradient>
        <linearGradient id="未命名的渐变_88" x1="52.85" y1="79.2" x2="57.14" y2="83.49"
            gradientTransform="translate(0.85 2.55)" gradientUnits="userSpaceOnUse">
            <stop offset="0" stop-color="#a9b1bb" />
            <stop offset="0.06" stop-color="#5d6166" />
            <stop offset="0.82" stop-color="#e2eaf2" />
            <stop offset="0.93" stop-color="#9ba1ab" />
            <stop offset="1" stop-color="#767b82" />
        </linearGradient>
        <linearGradient id="未命名的渐变_85-2" x1="52.54" y1="88.47" x2="57.47" y2="88.47"
            gradientTransform="translate(0.85 2.55)" xlink:href="#未命名的渐变_85" />
        <linearGradient id="未命名的渐变_85-3" x1="52.14" y1="87.91" x2="57.86" y2="87.91"
            gradientTransform="translate(0.85 2.55)" xlink:href="#未命名的渐变_85" />
        <linearGradient id="未命名的渐变_85-4" x1="50.13" y1="80.63" x2="59.86" y2="80.63"
            gradientTransform="translate(0.85 2.55)" xlink:href="#未命名的渐变_85" />
        <clipPath id="clip-path">
            <path class="cls-1"
                d="M60.71,83.89a37,37,0,0,1-4.88.42A36.3,36.3,0,0,1,51,83.89V82.05a41.92,41.92,0,0,0,4.85.32,42.55,42.55,0,0,0,4.88-.32Z" />
        </clipPath>
        <linearGradient id="未命名的渐变_85-5" x1="50.53" y1="80.63" x2="50.68" y2="80.63"
            gradientTransform="translate(0.85 2.55)" xlink:href="#未命名的渐变_85" />
        <linearGradient id="未命名的渐变_85-6" x1="51.08" y1="80.63" x2="51.24" y2="80.63"
            gradientTransform="translate(0.85 2.55)" xlink:href="#未命名的渐变_85" />
        <linearGradient id="未命名的渐变_85-7" x1="51.64" y1="80.63" x2="51.79" y2="80.63"
            gradientTransform="translate(0.85 2.55)" xlink:href="#未命名的渐变_85" />
        <linearGradient id="未命名的渐变_85-8" x1="52.2" y1="80.63" x2="52.35" y2="80.63"
            gradientTransform="translate(0.85 2.55)" xlink:href="#未命名的渐变_85" />
        <linearGradient id="未命名的渐变_85-9" x1="52.76" y1="80.63" x2="52.91" y2="80.63"
            gradientTransform="translate(0.85 2.55)" xlink:href="#未命名的渐变_85" />
        <linearGradient id="未命名的渐变_85-10" x1="53.31" y1="80.63" x2="53.47" y2="80.63"
            gradientTransform="translate(0.85 2.55)" xlink:href="#未命名的渐变_85" />
        <linearGradient id="未命名的渐变_85-11" x1="53.87" y1="80.63" x2="54.03" y2="80.63"
            gradientTransform="translate(0.85 2.55)" xlink:href="#未命名的渐变_85" />
        <linearGradient id="未命名的渐变_85-12" x1="54.43" y1="80.63" x2="54.58" y2="80.63"
            gradientTransform="translate(0.85 2.55)" xlink:href="#未命名的渐变_85" />
        <linearGradient id="未命名的渐变_85-13" x1="54.99" y1="80.63" x2="55.14" y2="80.63"
            gradientTransform="translate(0.85 2.55)" xlink:href="#未命名的渐变_85" />
        <linearGradient id="未命名的渐变_85-14" x1="55.55" y1="80.63" x2="55.7" y2="80.63"
            gradientTransform="translate(0.85 2.55)" xlink:href="#未命名的渐变_85" />
        <linearGradient id="未命名的渐变_85-15" x1="56.1" y1="80.63" x2="56.26" y2="80.63"
            gradientTransform="translate(0.85 2.55)" xlink:href="#未命名的渐变_85" />
        <linearGradient id="未命名的渐变_85-16" x1="56.66" y1="80.63" x2="56.81" y2="80.63"
            gradientTransform="translate(0.85 2.55)" xlink:href="#未命名的渐变_85" />
        <linearGradient id="未命名的渐变_85-17" x1="57.22" y1="80.63" x2="57.37" y2="80.63"
            gradientTransform="translate(0.85 2.55)" xlink:href="#未命名的渐变_85" />
        <linearGradient id="未命名的渐变_85-18" x1="57.78" y1="80.63" x2="57.93" y2="80.63"
            gradientTransform="translate(0.85 2.55)" xlink:href="#未命名的渐变_85" />
        <linearGradient id="未命名的渐变_85-19" x1="58.33" y1="80.63" x2="58.49" y2="80.63"
            gradientTransform="translate(0.85 2.55)" xlink:href="#未命名的渐变_85" />
        <linearGradient id="未命名的渐变_85-20" x1="58.89" y1="80.63" x2="59.04" y2="80.63"
            gradientTransform="translate(0.85 2.55)" xlink:href="#未命名的渐变_85" />
        <linearGradient id="未命名的渐变_85-21" x1="59.45" y1="80.63" x2="59.6" y2="80.63"
            gradientTransform="translate(0.85 2.55)" xlink:href="#未命名的渐变_85" />
        <linearGradient id="未命名的渐变_88-2" x1="38.24" y1="83.11" x2="42.53" y2="87.4"
            gradientTransform="matrix(-0.87, 0.5, 0.5, 0.87, 68.7, -15.64)" xlink:href="#未命名的渐变_88" />
        <linearGradient id="未命名的渐变_85-22" x1="37.92" y1="92.38" x2="42.85" y2="92.38"
            gradientTransform="matrix(-0.87, 0.5, 0.5, 0.87, 68.7, -15.64)" xlink:href="#未命名的渐变_85" />
        <linearGradient id="未命名的渐变_85-23" x1="37.53" y1="91.83" x2="43.25" y2="91.83"
            gradientTransform="matrix(-0.87, 0.5, 0.5, 0.87, 68.7, -15.64)" xlink:href="#未命名的渐变_85" />
        <linearGradient id="未命名的渐变_85-24" x1="35.52" y1="84.55" x2="45.25" y2="84.55"
            gradientTransform="matrix(-0.87, 0.5, 0.5, 0.87, 68.7, -15.64)" xlink:href="#未命名的渐变_85" />
        <clipPath id="clip-path-2">
            <path class="cls-1"
                d="M72.14,80.83a36.51,36.51,0,0,0,4.43-2.08,36.21,36.21,0,0,0,4-2.79l-.92-1.6a43.39,43.39,0,0,1-4.05,2.71,41.3,41.3,0,0,1-4.38,2.16Z" />
        </clipPath>
        <linearGradient id="未命名的渐变_85-25" x1="35.91" y1="84.55" x2="36.07" y2="84.55"
            gradientTransform="matrix(1, 0, 0, -1, 43.81, 160.13)" xlink:href="#未命名的渐变_85" />
        <linearGradient id="未命名的渐变_85-26" x1="36.47" y1="84.55" x2="36.62" y2="84.55"
            gradientTransform="matrix(1, 0, 0, -1, 42.77, 160.4)" xlink:href="#未命名的渐变_85" />
        <linearGradient id="未命名的渐变_85-27" x1="37.03" y1="84.55" x2="37.18" y2="84.55"
            gradientTransform="matrix(1, 0, 0, -1, 41.73, 160.68)" xlink:href="#未命名的渐变_85" />
        <linearGradient id="未命名的渐变_85-28" x1="37.59" y1="84.55" x2="37.74" y2="84.55"
            gradientTransform="matrix(1, 0, 0, -1, 40.69, 160.96)" xlink:href="#未命名的渐变_85" />
        <linearGradient id="未命名的渐变_85-29" x1="38.14" y1="84.55" x2="38.3" y2="84.55"
            gradientTransform="matrix(1, 0, 0, -1, 39.65, 161.24)" xlink:href="#未命名的渐变_85" />
        <linearGradient id="未命名的渐变_85-30" x1="38.7" y1="84.55" x2="38.86" y2="84.55"
            gradientTransform="matrix(1, 0, 0, -1, 38.61, 161.52)" xlink:href="#未命名的渐变_85" />
        <linearGradient id="未命名的渐变_85-31" x1="39.26" y1="84.55" x2="39.41" y2="84.55"
            gradientTransform="matrix(1, 0, 0, -1, 37.57, 161.8)" xlink:href="#未命名的渐变_85" />
        <linearGradient id="未命名的渐变_85-32" x1="39.82" y1="84.55" x2="39.97" y2="84.55"
            gradientTransform="matrix(1, 0, 0, -1, 36.53, 162.08)" xlink:href="#未命名的渐变_85" />
        <linearGradient id="未命名的渐变_85-33" x1="40.38" y1="84.55" x2="40.53" y2="84.55"
            gradientTransform="matrix(1, 0, 0, -1, 35.49, 162.36)" xlink:href="#未命名的渐变_85" />
        <linearGradient id="未命名的渐变_85-34" x1="40.93" y1="84.55" x2="41.09" y2="84.55"
            gradientTransform="matrix(1, 0, 0, -1, 34.45, 162.63)" xlink:href="#未命名的渐变_85" />
        <linearGradient id="未命名的渐变_85-35" x1="41.49" y1="84.55" x2="41.64" y2="84.55"
            gradientTransform="matrix(1, 0, 0, -1, 33.41, 162.91)" xlink:href="#未命名的渐变_85" />
        <linearGradient id="未命名的渐变_85-36" x1="42.05" y1="84.55" x2="42.2" y2="84.55"
            gradientTransform="matrix(1, 0, 0, -1, 32.37, 163.19)" xlink:href="#未命名的渐变_85" />
        <linearGradient id="未命名的渐变_85-37" x1="42.61" y1="84.55" x2="42.76" y2="84.55"
            gradientTransform="matrix(1, 0, 0, -1, 31.33, 163.47)" xlink:href="#未命名的渐变_85" />
        <linearGradient id="未命名的渐变_85-38" x1="43.16" y1="84.55" x2="43.32" y2="84.55"
            gradientTransform="matrix(1, 0, 0, -1, 30.28, 163.75)" xlink:href="#未命名的渐变_85" />
        <linearGradient id="未命名的渐变_85-39" x1="43.72" y1="84.55" x2="43.87" y2="84.55"
            gradientTransform="matrix(1, 0, 0, -1, 29.24, 164.03)" xlink:href="#未命名的渐变_85" />
        <linearGradient id="未命名的渐变_85-40" x1="44.28" y1="84.55" x2="44.43" y2="84.55"
            gradientTransform="matrix(1, 0, 0, -1, 28.2, 164.31)" xlink:href="#未命名的渐变_85" />
        <linearGradient id="未命名的渐变_85-41" x1="44.84" y1="84.55" x2="44.99" y2="84.55"
            gradientTransform="matrix(1, 0, 0, -1, 27.16, 164.59)" xlink:href="#未命名的渐变_85" />
        <linearGradient id="未命名的渐变_88-3" x1="64.39" y1="82.14" x2="68.95" y2="86.7"
            gradientTransform="translate(-20.39 16.73) rotate(-15)" xlink:href="#未命名的渐变_88" />
        <linearGradient id="未命名的渐变_85-42" x1="63.63" y1="92.68" x2="69.71" y2="92.68" xlink:href="#未命名的渐变_85" />
        <linearGradient id="未命名的渐变_85-43" x1="61.49" y1="81.29" x2="71.84" y2="81.29"
            gradientTransform="matrix(0.97, -0.26, -0.26, -0.97, 22.31, 176.11)" xlink:href="#未命名的渐变_85" />
        <clipPath id="clip-path-3">
            <path class="cls-1"
                d="M70.48,78.31a41.84,41.84,0,0,0-5.11.93A41.81,41.81,0,0,0,60.49,81L61,82.77a45.19,45.19,0,0,1,4.9-1.65,46.34,46.34,0,0,1,5.09-1Z" />
        </clipPath>
        <linearGradient id="未命名的渐变_85-44" x1="61.91" y1="81.29" x2="62.08" y2="81.29"
            gradientTransform="matrix(1, 0, 0, -1, -0.84, 162.83)" xlink:href="#未命名的渐变_85" />
        <linearGradient id="未命名的渐变_85-45" x1="62.51" y1="81.29" x2="62.67" y2="81.29"
            gradientTransform="matrix(1, 0, 0, -1, -0.86, 162.68)" xlink:href="#未命名的渐变_85" />
        <linearGradient id="未命名的渐变_85-46" x1="63.1" y1="81.29" x2="63.26" y2="81.29"
            gradientTransform="matrix(1, 0, 0, -1, -0.88, 162.53)" xlink:href="#未命名的渐变_85" />
        <linearGradient id="未命名的渐变_85-47" x1="63.69" y1="81.29" x2="63.86" y2="81.29"
            gradientTransform="matrix(1, 0, 0, -1, -0.9, 162.37)" xlink:href="#未命名的渐变_85" />
        <linearGradient id="未命名的渐变_85-48" x1="64.29" y1="81.29" x2="64.45" y2="81.29"
            gradientTransform="matrix(1, 0, 0, -1, -0.92, 162.22)" xlink:href="#未命名的渐变_85" />
        <linearGradient id="未命名的渐变_85-49" x1="64.88" y1="81.29" x2="65.04" y2="81.29"
            gradientTransform="matrix(1, 0, 0, -1, -0.94, 162.07)" xlink:href="#未命名的渐变_85" />
        <linearGradient id="未命名的渐变_85-50" x1="65.47" y1="81.29" x2="65.63" y2="81.29"
            gradientTransform="matrix(1, 0, 0, -1, -0.96, 161.91)" xlink:href="#未命名的渐变_85" />
        <linearGradient id="未命名的渐变_85-51" x1="66.06" y1="81.29" x2="66.23" y2="81.29"
            gradientTransform="matrix(1, 0, 0, -1, -0.98, 161.76)" xlink:href="#未命名的渐变_85" />
        <linearGradient id="未命名的渐变_85-52" x1="66.66" y1="81.29" x2="66.82" y2="81.29"
            gradientTransform="matrix(1, 0, 0, -1, -1, 161.61)" xlink:href="#未命名的渐变_85" />
        <linearGradient id="未命名的渐变_85-53" x1="67.25" y1="81.29" x2="67.41" y2="81.29"
            gradientTransform="matrix(1, 0, 0, -1, -1.02, 161.45)" xlink:href="#未命名的渐变_85" />
        <linearGradient id="未命名的渐变_85-54" x1="67.84" y1="81.29" x2="68.01" y2="81.29"
            gradientTransform="matrix(1, 0, 0, -1, -1.04, 161.3)" xlink:href="#未命名的渐变_85" />
        <linearGradient id="未命名的渐变_85-55" x1="68.44" y1="81.29" x2="68.6" y2="81.29"
            gradientTransform="matrix(1, 0, 0, -1, -1.06, 161.14)" xlink:href="#未命名的渐变_85" />
        <linearGradient id="未命名的渐变_85-56" x1="69.03" y1="81.29" x2="69.19" y2="81.29"
            gradientTransform="matrix(1, 0, 0, -1, -1.08, 160.99)" xlink:href="#未命名的渐变_85" />
        <linearGradient id="未命名的渐变_85-57" x1="69.62" y1="81.29" x2="69.78" y2="81.29"
            gradientTransform="matrix(1, 0, 0, -1, -1.1, 160.84)" xlink:href="#未命名的渐变_85" />
        <linearGradient id="未命名的渐变_85-58" x1="70.21" y1="81.29" x2="70.38" y2="81.29"
            gradientTransform="matrix(1, 0, 0, -1, -1.12, 160.68)" xlink:href="#未命名的渐变_85" />
        <linearGradient id="未命名的渐变_85-59" x1="70.81" y1="81.29" x2="70.97" y2="81.29"
            gradientTransform="matrix(1, 0, 0, -1, -1.14, 160.53)" xlink:href="#未命名的渐变_85" />
        <linearGradient id="未命名的渐变_85-60" x1="71.4" y1="81.29" x2="71.56" y2="81.29"
            gradientTransform="matrix(1, 0, 0, -1, -1.16, 160.38)" xlink:href="#未命名的渐变_85" />
        <linearGradient id="未命名的渐变_81" x1="63.63" y1="100.09" x2="69.71" y2="100.09"
            gradientTransform="translate(3.24 -3.94)" gradientUnits="userSpaceOnUse">
            <stop offset="0" stop-color="#2e3033" />
            <stop offset="1" stop-color="#4a4b4d" />
        </linearGradient>
        <linearGradient id="未命名的渐变_85-61" x1="64.75" y1="100.23" x2="68.59" y2="100.23" xlink:href="#未命名的渐变_85" />
        <linearGradient id="未命名的渐变_81-2" x1="64.75" y1="100.58" x2="68.59" y2="100.58"
            gradientTransform="translate(3.37 -3.95)" xlink:href="#未命名的渐变_81" />
        <linearGradient id="未命名的渐变_85-62" x1="50.59" y1="79.9" x2="82.75" y2="79.9" xlink:href="#未命名的渐变_85" />
        <linearGradient id="未命名的渐变_86" x1="50.59" y1="76.82" x2="82.75" y2="76.82"
            gradientTransform="translate(-20.39 16.73) rotate(-15)" gradientUnits="userSpaceOnUse">
            <stop offset="0" stop-color="#7a8088" />
            <stop offset="0.09" stop-color="#2d2f33" />
            <stop offset="0.19" stop-color="#35373b" />
            <stop offset="0.33" stop-color="#4a4d51" />
            <stop offset="0.51" stop-color="#6d7176" />
            <stop offset="0.71" stop-color="#9da3a8" />
            <stop offset="0.78" stop-color="#b0b7bc" />
            <stop offset="0.93" stop-color="#6d7177" />
            <stop offset="1" stop-color="#5c6067" />
        </linearGradient>
        <linearGradient id="未命名的渐变_81-3" x1="50.59" y1="74.84" x2="82.75" y2="74.84"
            gradientTransform="translate(-3.29 -3.07)" xlink:href="#未命名的渐变_81" />
        <linearGradient id="未命名的渐变_95" x1="63.58" y1="72.54" x2="63.17" y2="71" gradientUnits="userSpaceOnUse">
            <stop offset="0" stop-color="#4a4b4d" />
            <stop offset="1" stop-color="#17181a" />
        </linearGradient>
        <linearGradient id="未命名的渐变_69" x1="23.27" y1="133.94" x2="23.27" y2="43.13" gradientUnits="userSpaceOnUse">
            <stop offset="0" stop-color="#cfd9e6" />
            <stop offset="0.09" stop-color="#a2aab3" />
            <stop offset="0.27" stop-color="#aab2bb" />
            <stop offset="0.54" stop-color="#c0c8d1" />
            <stop offset="0.75" stop-color="#d6dee6" />
            <stop offset="0.93" stop-color="#d0d8e6" />
            <stop offset="1" stop-color="#b9c1cc" />
        </linearGradient>
        <linearGradient id="未命名的渐变_69-2" x1="47.51" y1="48.76" x2="68.48" y2="48.76" xlink:href="#未命名的渐变_69" />
        <linearGradient id="未命名的渐变_69-3" x1="50.58" y1="73.42" x2="65.41" y2="73.42" xlink:href="#未命名的渐变_69" />
        <linearGradient id="未命名的渐变_9" x1="50.58" y1="73.42" x2="65.41" y2="73.42" gradientUnits="userSpaceOnUse">
            <stop offset="0" stop-color="#2e3033" />
            <stop offset="1" stop-color="#878d93" stop-opacity="0" />
        </linearGradient>
        <linearGradient id="未命名的渐变_69-4" x1="49.55" y1="64.26" x2="65.28" y2="73.34" xlink:href="#未命名的渐变_69" />
        <linearGradient id="未命名的渐变_9-2" x1="57.99" y1="72.24" x2="57.99" y2="67.8" xlink:href="#未命名的渐变_9" />
        <linearGradient id="未命名的渐变_84" x1="70.27" y1="89.83" x2="42.86" y2="117.24" gradientUnits="userSpaceOnUse">
            <stop offset="0" stop-color="#4a4b4d" />
            <stop offset="1" stop-color="#2e3033" />
        </linearGradient>
        <linearGradient id="未命名的渐变_31" x1="51.28" y1="109.6" x2="70.14" y2="109.6" gradientUnits="userSpaceOnUse">
            <stop offset="0" stop-color="#64696e" />
            <stop offset="0.06" stop-color="#17181a" />
            <stop offset="0.78" stop-color="#535659" />
            <stop offset="0.93" stop-color="#56595f" />
            <stop offset="1" stop-color="#313335" />
        </linearGradient>
        <linearGradient id="未命名的渐变_31-2" x1="51.28" y1="114.97" x2="70.14" y2="114.97" xlink:href="#未命名的渐变_31" />
        <linearGradient id="未命名的渐变_31-3" x1="52.2" y1="118.04" x2="69.23" y2="118.04" xlink:href="#未命名的渐变_31" />
        <linearGradient id="未命名的渐变_31-4" x1="3.92" y1="148.87" x2="7.31" y2="148.87" xlink:href="#未命名的渐变_31" />
        <linearGradient id="未命名的渐变_31-5" x1="73.49" y1="148.87" x2="76.88" y2="148.87" xlink:href="#未命名的渐变_31" />
        <linearGradient id="未命名的渐变_31-6" x1="53.95" y1="112.29" x2="67.47" y2="112.29" xlink:href="#未命名的渐变_31" />
        <linearGradient id="未命名的渐变_31-7" x1="48.7" y1="132.88" x2="70.14" y2="132.88" xlink:href="#未命名的渐变_31" />
        <linearGradient id="未命名的渐变_31-8" x1="39.22" y1="121.4" x2="49.61" y2="121.4" xlink:href="#未命名的渐变_31" />
        <linearGradient id="未命名的渐变_31-9" x1="40.86" y1="114.97" x2="47.98" y2="114.97" xlink:href="#未命名的渐变_31" />
        <linearGradient id="未命名的渐变_132" x1="41.88" y1="98.3" x2="46.96" y2="98.3" gradientUnits="userSpaceOnUse">
            <stop offset="0" stop-color="#a9b1bb" />
            <stop offset="0.06" stop-color="#5d6166" />
            <stop offset="0.78" stop-color="#e2eaf2" />
            <stop offset="0.93" stop-color="#9ba1ab" />
            <stop offset="1" stop-color="#767b82" />
        </linearGradient>
        <linearGradient id="未命名的渐变_132-2" x1="42.56" y1="110.44" x2="46.27" y2="110.44" xlink:href="#未命名的渐变_132" />
        <linearGradient id="未命名的渐变_31-10" x1="40.03" y1="132.09" x2="48.81" y2="132.09" xlink:href="#未命名的渐变_31" />
        <linearGradient id="未命名的渐变_31-11" x1="40.68" y1="132.09" x2="40.96" y2="132.09" xlink:href="#未命名的渐变_31" />
        <linearGradient id="未命名的渐变_31-12" x1="41.73" y1="132.09" x2="42.01" y2="132.09" xlink:href="#未命名的渐变_31" />
        <linearGradient id="未命名的渐变_31-13" x1="42.79" y1="132.09" x2="43.07" y2="132.09" xlink:href="#未命名的渐变_31" />
        <linearGradient id="未命名的渐变_31-14" x1="43.84" y1="132.09" x2="44.12" y2="132.09" xlink:href="#未命名的渐变_31" />
        <linearGradient id="未命名的渐变_31-15" x1="44.9" y1="132.09" x2="45.18" y2="132.09" xlink:href="#未命名的渐变_31" />
        <linearGradient id="未命名的渐变_31-16" x1="45.95" y1="132.09" x2="46.23" y2="132.09" xlink:href="#未命名的渐变_31" />
        <linearGradient id="未命名的渐变_31-17" x1="47.01" y1="132.09" x2="47.29" y2="132.09" xlink:href="#未命名的渐变_31" />
        <linearGradient id="未命名的渐变_31-18" x1="48.06" y1="132.09" x2="48.34" y2="132.09" xlink:href="#未命名的渐变_31" />
        <linearGradient id="未命名的渐变_31-19" x1="41.41" y1="127.32" x2="47.43" y2="127.32" xlink:href="#未命名的渐变_31" />
        <linearGradient id="未命名的渐变_69-5" x1="39.22" y1="60.68" x2="47.51" y2="60.68" xlink:href="#未命名的渐变_69" />
        <linearGradient id="未命名的渐变_132-3" x1="51.48" y1="13.33" x2="64.51" y2="13.33" xlink:href="#未命名的渐变_132" />
        <linearGradient id="未命名的渐变_132-4" x1="50.07" y1="0.95" x2="65.92" y2="0.95" xlink:href="#未命名的渐变_132" />
        <linearGradient id="未命名的渐变_132-5" x1="47.51" y1="36.67" x2="68.48" y2="36.67"
            gradientTransform="matrix(1, 0, 0, -1.62, 0, 88.35)" xlink:href="#未命名的渐变_132" />
        <linearGradient id="未命名的渐变_132-6" x1="53.09" y1="32.03" x2="62.9" y2="42.49"
            gradientTransform="matrix(1, 0, 0, -1.62, 0, 88.35)" xlink:href="#未命名的渐变_132" />
        <linearGradient id="未命名的渐变_81-4" x1="42.78" y1="62.09" x2="42.78" y2="47.5"
            gradientTransform="matrix(1, 0, 0, 1, 0, 0)" xlink:href="#未命名的渐变_81" />
        <linearGradient id="未命名的渐变_83" x1="42.78" y1="62.09" x2="42.78" y2="47.5" gradientUnits="userSpaceOnUse">
            <stop offset="0" stop-color="#45484d" />
            <stop offset="1" stop-color="#939699" />
        </linearGradient>
        <linearGradient id="未命名的渐变_89" x1="42.78" y1="59.13" x2="42.78" y2="50.46" gradientUnits="userSpaceOnUse">
            <stop offset="0" stop-color="#61666b" />
            <stop offset="0.07" stop-color="#696e73" />
            <stop offset="0.18" stop-color="#7e8489" />
            <stop offset="0.32" stop-color="#a1a7ae" />
            <stop offset="0.48" stop-color="#d1d8e0" />
            <stop offset="0.53" stop-color="#e2eaf2" />
            <stop offset="1" stop-color="#767b82" />
        </linearGradient>
        <linearGradient id="未命名的渐变_81-5" x1="32.7" y1="74.6" x2="32.7" y2="64.62"
            gradientTransform="matrix(1, 0, 0, 1, 0, 0)" xlink:href="#未命名的渐变_81" />
        <linearGradient id="未命名的渐变_83-2" x1="32.7" y1="74.6" x2="32.7" y2="64.62" xlink:href="#未命名的渐变_83" />
        <linearGradient id="未命名的渐变_69-6" x1="24.36" y1="139.18" x2="24.36" y2="112.16" xlink:href="#未命名的渐变_69" />
        <linearGradient id="未命名的渐变_69-7" x1="39.72" y1="147.74" x2="39.72" y2="139.18" xlink:href="#未命名的渐变_69" />
        <linearGradient id="未命名的渐变_89-2" x1="31.15" y1="122.98" x2="31.15" y2="116.1" xlink:href="#未命名的渐变_89" />
        <linearGradient id="未命名的渐变_31-20" x1="40.15" y1="121.38" x2="40.43" y2="121.38" xlink:href="#未命名的渐变_31" />
        <linearGradient id="未命名的渐变_31-21" x1="41.2" y1="121.38" x2="41.49" y2="121.38" xlink:href="#未命名的渐变_31" />
        <linearGradient id="未命名的渐变_31-22" x1="42.26" y1="121.38" x2="42.54" y2="121.38" xlink:href="#未命名的渐变_31" />
        <linearGradient id="未命名的渐变_31-23" x1="43.31" y1="121.38" x2="43.6" y2="121.38" xlink:href="#未命名的渐变_31" />
        <linearGradient id="未命名的渐变_31-24" x1="44.37" y1="121.38" x2="44.65" y2="121.38" xlink:href="#未命名的渐变_31" />
        <linearGradient id="未命名的渐变_31-25" x1="45.42" y1="121.38" x2="45.71" y2="121.38" xlink:href="#未命名的渐变_31" />
        <linearGradient id="未命名的渐变_31-26" x1="46.48" y1="121.38" x2="46.76" y2="121.38" xlink:href="#未命名的渐变_31" />
        <linearGradient id="未命名的渐变_31-27" x1="47.53" y1="121.38" x2="47.82" y2="121.38" xlink:href="#未命名的渐变_31" />
        <linearGradient id="未命名的渐变_31-28" x1="48.66" y1="121.38" x2="48.95" y2="121.38" xlink:href="#未命名的渐变_31" />
    </defs>
    <title>Microscope(显微镜)</title>
    <g id="图层_2" data-name="图层 2">
        <g id="图层_21" data-name="图层 21">
            <g id="Microscope_显微镜_" data-name="Microscope(显微镜)">
                <path class="cls-2" d="M66.2,82.31c-13.06,3.5-16.77-.46-16.77-.46l31.06-8.33S79.26,78.81,66.2,82.31Z" />
                <path class="cls-3" d="M66.2,82.31c-13.06,3.5-16.77-.46-16.77-.46l31.06-8.33S79.26,78.81,66.2,82.31Z" />
                <path class="cls-4"
                    d="M58.68,85.13l-2.85,1.1L53,85.13a4.15,4.15,0,0,0-1.44-1.24h8.57A5.16,5.16,0,0,0,58.68,85.13Z" />
                <path class="cls-5"
                    d="M58.31,95.56a4.32,4.32,0,0,1-2.47.64,4.27,4.27,0,0,1-2.46-.64V85.82a7.21,7.21,0,0,0,2.46.38,7.38,7.38,0,0,0,2.47-.38Z" />
                <path class="cls-6"
                    d="M58.71,95.13a5.62,5.62,0,0,1-2.88.65A5.43,5.43,0,0,1,53,95.13v-10a9.32,9.32,0,0,0,2.85.39,9.65,9.65,0,0,0,2.88-.39Z" />
                <path class="cls-7"
                    d="M60.71,83.89a37,37,0,0,1-4.88.42A36.3,36.3,0,0,1,51,83.89V82.05a41.92,41.92,0,0,0,4.85.32,42.55,42.55,0,0,0,4.88-.32Z" />
                <g class="cls-8">
                    <rect class="cls-9" x="51.37" y="81.7" width="0.15" height="2.95" />
                    <rect class="cls-10" x="51.93" y="81.7" width="0.15" height="2.95" />
                    <rect class="cls-11" x="52.49" y="81.7" width="0.15" height="2.95" />
                    <rect class="cls-12" x="53.05" y="81.7" width="0.15" height="2.95" />
                    <rect class="cls-13" x="53.6" y="81.7" width="0.15" height="2.95" />
                    <rect class="cls-14" x="54.16" y="81.7" width="0.15" height="2.95" />
                    <rect class="cls-15" x="54.72" y="81.7" width="0.15" height="2.95" />
                    <rect class="cls-16" x="55.28" y="81.7" width="0.15" height="2.95" />
                    <rect class="cls-17" x="55.83" y="81.7" width="0.15" height="2.95" />
                    <rect class="cls-18" x="56.39" y="81.7" width="0.15" height="2.95" />
                    <rect class="cls-19" x="56.95" y="81.7" width="0.15" height="2.95" />
                    <rect class="cls-20" x="57.51" y="81.7" width="0.15" height="2.95" />
                    <rect class="cls-21" x="58.06" y="81.7" width="0.15" height="2.95" />
                    <rect class="cls-22" x="58.62" y="81.7" width="0.15" height="2.95" />
                    <rect class="cls-23" x="59.18" y="81.7" width="0.15" height="2.95" />
                    <rect class="cls-24" x="59.74" y="81.7" width="0.15" height="2.95" />
                    <rect class="cls-25" x="60.29" y="81.7" width="0.15" height="2.95" />
                </g>
                <path class="cls-26"
                    d="M74.51,80.89l3-.47,1.9-2.37a4.37,4.37,0,0,1,.64-1.8l-7.43,4.29A5.12,5.12,0,0,1,74.51,80.89Z" />
                <path class="cls-27"
                    d="M80.05,89.74a4.42,4.42,0,0,0,2.47-.69,4.22,4.22,0,0,0,1.8-1.78l-4.87-8.43a7.17,7.17,0,0,1-1.93,1.55,7.27,7.27,0,0,1-2.34.91Z" />
                <path class="cls-28"
                    d="M79.49,89.56a5.56,5.56,0,0,0,2.82-.87,5.36,5.36,0,0,0,2.14-2l-5-8.65a9.29,9.29,0,0,1-2.27,1.76,9.46,9.46,0,0,1-2.69,1.1Z" />
                <path class="cls-29"
                    d="M72.14,80.83a36.51,36.51,0,0,0,4.43-2.08,36.21,36.21,0,0,0,4-2.79l-.92-1.6a43.39,43.39,0,0,1-4.05,2.71,41.3,41.3,0,0,1-4.38,2.16Z" />
                <g class="cls-30">
                    <rect class="cls-31" x="79.73" y="74.1" width="0.15" height="2.95"
                        transform="translate(186.7 101.13) rotate(150)" />
                    <rect class="cls-32" x="79.24" y="74.38" width="0.15" height="2.95"
                        transform="translate(185.94 101.89) rotate(150)" />
                    <rect class="cls-33" x="78.76" y="74.66" width="0.15" height="2.95"
                        transform="translate(185.18 102.65) rotate(150)" />
                    <rect class="cls-34" x="78.28" y="74.94" width="0.15" height="2.95"
                        transform="translate(184.42 103.42) rotate(150)" />
                    <rect class="cls-35" x="77.79" y="75.22" width="0.15" height="2.95"
                        transform="translate(183.66 104.18) rotate(150)" />
                    <rect class="cls-36" x="77.31" y="75.5" width="0.15" height="2.95"
                        transform="translate(182.9 104.94) rotate(150)" />
                    <rect class="cls-37" x="76.83" y="75.78" width="0.15" height="2.95"
                        transform="translate(182.13 105.7) rotate(150)" />
                    <rect class="cls-38" x="76.35" y="76.05" width="0.15" height="2.95"
                        transform="translate(181.37 106.46) rotate(150)" />
                    <rect class="cls-39" x="75.86" y="76.33" width="0.15" height="2.95"
                        transform="translate(180.61 107.22) rotate(150)" />
                    <rect class="cls-40" x="75.38" y="76.61" width="0.15" height="2.95"
                        transform="translate(179.85 107.99) rotate(150)" />
                    <rect class="cls-41" x="74.9" y="76.89" width="0.15" height="2.95"
                        transform="translate(179.09 108.75) rotate(150)" />
                    <rect class="cls-42" x="74.41" y="77.17" width="0.15" height="2.95"
                        transform="translate(178.32 109.51) rotate(150)" />
                    <rect class="cls-43" x="73.93" y="77.45" width="0.15" height="2.95"
                        transform="translate(177.56 110.27) rotate(150)" />
                    <rect class="cls-44" x="73.45" y="77.73" width="0.15" height="2.95"
                        transform="translate(176.8 111.03) rotate(150)" />
                    <rect class="cls-45" x="72.97" y="78.01" width="0.15" height="2.95"
                        transform="translate(176.04 111.8) rotate(150)" />
                    <rect class="cls-46" x="72.48" y="78.29" width="0.15" height="2.95"
                        transform="translate(175.28 112.56) rotate(150)" />
                    <rect class="cls-47" x="72" y="78.56" width="0.15" height="2.95"
                        transform="translate(174.52 113.32) rotate(150)" />
                </g>
                <path class="cls-48"
                    d="M69.09,81.44l-2.64,1.85L63.26,83a4.6,4.6,0,0,0-1.81-.8l8.81-2.36A5.48,5.48,0,0,0,69.09,81.44Z" />
                <path class="cls-49"
                    d="M72.84,95.33a8.94,8.94,0,0,0-3.06.37A8.58,8.58,0,0,0,67,96.91L63.24,83a11.13,11.13,0,0,1,2.83-1.13,11.44,11.44,0,0,1,3.05-.45Z" />
                <path class="cls-50"
                    d="M70.48,78.31a41.84,41.84,0,0,0-5.11.93A41.81,41.81,0,0,0,60.49,81L61,82.77a45.19,45.19,0,0,1,4.9-1.65,46.34,46.34,0,0,1,5.09-1Z" />
                <g class="cls-51">
                    <rect class="cls-52" x="61.07" y="80.07" width="0.16" height="2.95"
                        transform="translate(-19.02 18.61) rotate(-15)" />
                    <rect class="cls-53" x="61.65" y="79.91" width="0.16" height="2.95"
                        transform="matrix(0.97, -0.26, 0.26, 0.97, -18.96, 18.75)" />
                    <rect class="cls-54" x="62.22" y="79.76" width="0.16" height="2.95"
                        transform="translate(-18.9 18.89) rotate(-15)" />
                    <rect class="cls-55" x="62.79" y="79.61" width="0.16" height="2.95"
                        transform="translate(-18.84 19.04) rotate(-15)" />
                    <rect class="cls-56" x="63.37" y="79.45" width="0.16" height="2.95"
                        transform="translate(-18.78 19.18) rotate(-15)" />
                    <rect class="cls-57" x="63.94" y="79.3" width="0.16" height="2.95"
                        transform="matrix(0.97, -0.26, 0.26, 0.97, -18.72, 19.32)" />
                    <rect class="cls-58" x="64.51" y="79.15" width="0.16" height="2.95"
                        transform="translate(-18.67 19.46) rotate(-15)" />
                    <rect class="cls-59" x="65.08" y="78.99" width="0.16" height="2.95"
                        transform="translate(-18.61 19.61) rotate(-15)" />
                    <rect class="cls-60" x="65.66" y="78.84" width="0.16" height="2.95"
                        transform="translate(-18.55 19.75) rotate(-15)" />
                    <rect class="cls-61" x="66.23" y="78.69" width="0.16" height="2.95"
                        transform="matrix(0.97, -0.26, 0.26, 0.97, -18.49, 19.89)" />
                    <rect class="cls-62" x="66.8" y="78.53" width="0.16" height="2.95"
                        transform="translate(-18.43 20.04) rotate(-15)" />
                    <rect class="cls-63" x="67.37" y="78.38" width="0.16" height="2.95"
                        transform="translate(-18.37 20.18) rotate(-15)" />
                    <rect class="cls-64" x="67.95" y="78.23" width="0.16" height="2.95"
                        transform="translate(-18.31 20.32) rotate(-15)" />
                    <rect class="cls-65" x="68.52" y="78.07" width="0.16" height="2.95"
                        transform="translate(-18.25 20.47) rotate(-15)" />
                    <rect class="cls-66" x="69.09" y="77.92" width="0.16" height="2.95"
                        transform="translate(-18.19 20.61) rotate(-15)" />
                    <rect class="cls-67" x="69.66" y="77.77" width="0.16" height="2.95"
                        transform="translate(-18.13 20.75) rotate(-15)" />
                    <rect class="cls-68" x="70.24" y="77.61" width="0.16" height="2.95"
                        transform="translate(-18.07 20.89) rotate(-15)" />
                </g>
                <ellipse class="cls-69" cx="69.91" cy="96.15" rx="3.04" ry="0.47"
                    transform="translate(-22.5 21.37) rotate(-15)" />
                <path class="cls-70"
                    d="M71.88,96.11a5.52,5.52,0,0,0-1.93.24,5.37,5.37,0,0,0-1.77.75l-.11-.4A7.4,7.4,0,0,1,69.86,96a7.48,7.48,0,0,1,1.91-.28Z" />
                <ellipse class="cls-71" cx="70.04" cy="96.63" rx="1.92" ry="0.3"
                    transform="matrix(0.97, -0.26, 0.26, 0.97, -22.62, 21.42)" />
                <path class="cls-72"
                    d="M80.52,73.63s-8.81,3.12-15.34,4.87S49.46,82,49.46,82l-.8-3s8.65-1.57,15.72-3.46,15.34-4.87,15.34-4.87Z" />
                <path class="cls-73"
                    d="M79.72,70.65s-8.81,3.12-15.34,4.87S48.66,79,48.66,79l-.8-3s8.65-1.56,15.72-3.46,15.35-4.86,15.35-4.86Z" />
                <ellipse class="cls-74" cx="63.37" cy="71.77" rx="16.08" ry="0.8"
                    transform="translate(-16.42 18.85) rotate(-15)" />
                <path class="cls-75"
                    d="M78.61,67.54c-1.44,0-7.84,1.42-15.44,3.46-8.58,2.3-15.44,4.51-15.33,4.93,0,0,.12.07.3.07,1.44,0,7.84-1.42,15.44-3.46C72.16,70.24,79,68,78.91,67.61c0,0-.12-.07-.3-.07Z" />
                <path class="cls-76"
                    d="M19.22,84.15v17.36A10.79,10.79,0,0,0,22.15,109,9.71,9.71,0,0,0,29.21,112a9.9,9.9,0,0,0,8.39-4.8h1.62v26.7h0c-17.62,0-31.91-15-31.91-33.61V76.74c0-18.56,14.29-33.61,31.91-33.61h0v35H37.63A9.82,9.82,0,0,0,28,73.37C22.9,74,19.22,78.78,19.22,84.15Z" />
                <rect class="cls-77" x="47.51" y="29.72" width="20.97" height="38.08" />
                <rect class="cls-78" x="50.58" y="72.24" width="14.83" height="2.35" />
                <rect class="cls-79" x="50.58" y="72.24" width="14.83" height="2.35" />
                <polygon class="cls-80" points="65.41 72.24 50.58 72.24 47.51 67.8 68.48 67.8 65.41 72.24" />
                <polygon class="cls-81" points="65.41 72.24 50.58 72.24 47.51 67.8 68.48 67.8 65.41 72.24" />
                <rect class="cls-82" x="33.69" y="98.99" width="45.74" height="9.08" />
                <rect class="cls-83" x="51.28" y="108.07" width="18.87" height="3.07" />
                <rect class="cls-84" x="51.28" y="113.44" width="18.87" height="3.07" />
                <rect class="cls-85" x="52.2" y="116.5" width="17.03" height="3.07" />
                <rect class="cls-86" x="3.92" y="147.74" width="3.4" height="2.26" />
                <rect class="cls-87" x="73.49" y="147.74" width="3.4" height="2.26" />
                <rect class="cls-88" x="53.95" y="111.14" width="13.51" height="2.3" />
                <rect class="cls-89" x="48.7" y="130.52" width="21.45" height="4.71" />
                <rect class="cls-90" x="39.22" y="117.1" width="10.39" height="8.59" />
                <rect class="cls-91" x="40.86" y="112.84" width="7.12" height="4.26" />
                <rect class="cls-92" x="41.88" y="97.61" width="5.08" height="1.38" />
                <rect class="cls-93" x="42.56" y="108.04" width="3.71" height="4.8" />
                <rect class="cls-94" x="40.03" y="128.95" width="8.78" height="6.29" />
                <rect class="cls-95" x="40.68" y="128.95" width="0.28" height="6.29" />
                <rect class="cls-96" x="41.73" y="128.95" width="0.28" height="6.29" />
                <rect class="cls-97" x="42.79" y="128.95" width="0.28" height="6.29" />
                <rect class="cls-98" x="43.84" y="128.95" width="0.28" height="6.29" />
                <rect class="cls-99" x="44.9" y="128.95" width="0.28" height="6.29" />
                <rect class="cls-100" x="45.95" y="128.95" width="0.28" height="6.29" />
                <rect class="cls-101" x="47.01" y="128.95" width="0.28" height="6.29" />
                <rect class="cls-102" x="48.06" y="128.95" width="0.28" height="6.29" />
                <rect class="cls-103" x="41.41" y="125.69" width="6.01" height="3.25" />
                <rect class="cls-104" x="39.22" y="43.13" width="8.29" height="35.1" />
                <rect class="cls-105" x="51.48" y="1.91" width="13.02" height="22.85" />
                <rect class="cls-106" x="50.07" width="15.85" height="1.91" />
                <rect class="cls-107" x="47.51" y="27.81" width="20.97" height="1.91" />
                <polygon class="cls-108" points="64.49 24.76 51.5 24.76 47.51 27.81 68.48 27.81 64.49 24.76" />
                <circle class="cls-109" cx="42.78" cy="54.79" r="7.29" />
                <path class="cls-110"
                    d="M42.78,48A6.8,6.8,0,1,1,36,54.79,6.8,6.8,0,0,1,42.78,48m0-.5a7.3,7.3,0,1,0,7.29,7.29,7.29,7.29,0,0,0-7.29-7.29Z" />
                <circle class="cls-111" cx="42.78" cy="54.79" r="4.34" />
                <circle class="cls-112" cx="32.7" cy="69.61" r="4.99" />
                <path class="cls-113" d="M32.7,66.62a3,3,0,1,1-3,3,3,3,0,0,1,3-3m0-2a5,5,0,1,0,5,5,5,5,0,0,0-5-5Z" />
                <path class="cls-114" d="M36.46,139.18H12.26L28.12,113.6a4.88,4.88,0,0,1,8.34,3.46Z" />
                <rect class="cls-115" y="139.18" width="79.44" height="8.56" rx="2.01" />
                <circle class="cls-116" cx="31.15" cy="119.54" r="3.44" />
                <rect class="cls-117" x="40.15" y="117.1" width="0.28" height="8.57" />
                <rect class="cls-118" x="41.2" y="117.1" width="0.28" height="8.57" />
                <rect class="cls-119" x="42.26" y="117.1" width="0.28" height="8.57" />
                <rect class="cls-120" x="43.31" y="117.1" width="0.28" height="8.57" />
                <rect class="cls-121" x="44.37" y="117.1" width="0.28" height="8.57" />
                <rect class="cls-122" x="45.42" y="117.1" width="0.28" height="8.57" />
                <rect class="cls-123" x="46.48" y="117.1" width="0.28" height="8.57" />
                <rect class="cls-124" x="47.53" y="117.1" width="0.28" height="8.57" />
                <rect class="cls-125" x="48.66" y="117.1" width="0.28" height="8.57" />
           
            </g>
        </g>
    </g>
</svg>