<svg xmlns="http://www.w3.org/2000/svg" xmlns:xlink="http://www.w3.org/1999/xlink" viewBox="0 0 150 118.17">
    <defs>
        <style>
            .cls-1 {
                fill: url(#未命名的渐变_1609);
            }

            .cls-2 {
                opacity: 0.5;
                fill: url(#未命名的渐变_1612);
            }

            .cls-3 {
                fill: url(#未命名的渐变_1363);
            }

            .cls-4 {
                fill: url(#未命名的渐变_1605);
            }

            .cls-5 {
                opacity: 0.2;
            }
        </style>
        <linearGradient id="未命名的渐变_1609" x1="29.81" y1="108.56" x2="120.19" y2="108.56" gradientUnits="userSpaceOnUse">
            <stop offset="0" stop-color="#b7b9bb" />
            <stop offset="0.06" stop-color="#afb1b3" />
            <stop offset="0.62" stop-color="#d7d9db" />
            <stop offset="0.93" stop-color="#e1e3e6" />
            <stop offset="1" stop-color="#c8cacc" />
        </linearGradient>
        <linearGradient id="未命名的渐变_1612" x1="75" y1="118.17" x2="75" y2="98.96" gradientUnits="userSpaceOnUse">
            <stop offset="0" stop-color="#878d93" stop-opacity="0" />
            <stop offset="0.26" stop-color="#7e848a" stop-opacity="0.1" />
            <stop offset="0.57" stop-color="#656a6e" stop-opacity="0.38" />
            <stop offset="0.91" stop-color="#3c3e42" stop-opacity="0.85" />
            <stop offset="1" stop-color="#2e3033" />
        </linearGradient>
        <linearGradient id="未命名的渐变_1363" x1="47.46" y1="67.04" x2="80.1" y2="67.04"
            gradientTransform="translate(89.31 -50.28) rotate(45) scale(1.07 1.08)" gradientUnits="userSpaceOnUse">
            <stop offset="0" stop-color="#c8cacc" />
            <stop offset="0.07" stop-color="#e1e3e6" />
            <stop offset="0.38" stop-color="#e6e9eb" />
            <stop offset="0.94" stop-color="#afb1b3" />
            <stop offset="1" stop-color="#b7b9bb" />
        </linearGradient>
        <linearGradient id="未命名的渐变_1605" y1="74.31" x2="150" y2="74.31" gradientUnits="userSpaceOnUse">
            <stop offset="0" stop-color="#b7b9bb" />
            <stop offset="0.06" stop-color="#afb1b3" />
            <stop offset="0.62" stop-color="#e6e9eb" />
            <stop offset="0.93" stop-color="#e1e3e6" />
            <stop offset="1" stop-color="#c8cacc" />
        </linearGradient>
    </defs>
    <title>Mortar and pestle（研钵和杵）</title>
    <g id="图层_2" data-name="图层 2">
        <g id="图层_21" data-name="图层 21">
            <g id="Mortar_and_pestle_研钵和杵_" data-name="Mortar and pestle（研钵和杵）">
                <path class="cls-1"
                    d="M120.19,118.17H29.81A67.63,67.63,0,0,1,33.08,99,161.44,161.44,0,0,0,75,105.46,161.44,161.44,0,0,0,116.92,99,67.63,67.63,0,0,1,120.19,118.17Z" />
                <path class="cls-2"
                    d="M120.19,118.17H29.81A67.63,67.63,0,0,1,33.08,99,161.44,161.44,0,0,0,75,105.46,161.44,161.44,0,0,0,116.92,99,67.63,67.63,0,0,1,120.19,118.17Z" />
                <path class="cls-3"
                    d="M134.06,19.56c3.1-3.24,1.62-9.79-3.27-14.68s-11.43-6.36-14.67-3.26a5.92,5.92,0,0,0-1.73,3.69,9,9,0,0,1-2.82,5.63L44,66.83c-8.38,7.53-9.59,19.89-2.42,27.06h0c7.17,7.17,19.53,6,27.06-2.42l55.75-67.33a8.87,8.87,0,0,1,5.78-2.83A6,6,0,0,0,134.06,19.56Z" />
                <path class="cls-4"
                    d="M131.62,92C120.3,101.07,89.28,105.46,75,105.46S29.7,101.07,18.38,92C10.52,85.7,3,59.42.13,48.24a4.07,4.07,0,0,1,3.93-5.08H145.94a4.07,4.07,0,0,1,3.93,5.08C147,59.42,139.48,85.7,131.62,92Z" />
            </g>
        </g>
    </g>
</svg>