<svg xmlns="http://www.w3.org/2000/svg" xmlns:xlink="http://www.w3.org/1999/xlink" viewBox="0 0 150 150">
    <defs>
        <style>
            .cls-1 {
                fill: url(#未命名的渐变_1579);
            }

            .cls-2 {
                fill: url(#未命名的渐变_75);
            }

            .cls-3 {
                fill: url(#未命名的渐变_1572);
            }

            .cls-4 {
                fill: url(#未命名的渐变_1579-2);
            }

            .cls-5 {
                fill: url(#未命名的渐变_75-2);
            }

            .cls-6 {
                fill: url(#未命名的渐变_1572-2);
            }

            .cls-7 {
                isolation: isolate;
            }

            .cls-8 {
                fill: url(#未命名的渐变_1055);
            }

            .cls-9 {
                fill: url(#未命名的渐变_75-3);
            }

            .cls-10 {
                fill: url(#未命名的渐变_1050);
            }

            .cls-11 {
                fill: #dcdee0;
            }

            .cls-12 {
                fill: #dddfe1;
            }

            .cls-13 {
                fill: #dee0e2;
            }

            .cls-14 {
                fill: #dfe1e3;
            }

            .cls-15 {
                fill: #e1e2e4;
            }

            .cls-16 {
                fill: #e2e3e5;
            }

            .cls-17 {
                fill: #e3e4e6;
            }

            .cls-18 {
                fill: #e4e5e7;
            }

            .cls-19 {
                fill: #e5e7e8;
            }

            .cls-20 {
                fill: #e6e8e9;
            }

            .cls-21 {
                fill: #e7e9ea;
            }

            .cls-22 {
                fill: #e8eaeb;
            }

            .cls-23 {
                fill: #eaebec;
            }

            .cls-24 {
                fill: #ebeced;
            }

            .cls-25 {
                fill: #ecedee;
            }

            .cls-26 {
                fill: #edeeef;
            }

            .cls-27 {
                fill: #eeeff0;
            }

            .cls-28 {
                fill: #eff0f1;
            }

            .cls-29 {
                fill: #f0f1f2;
            }

            .cls-30 {
                fill: #f1f2f3;
            }

            .cls-31 {
                fill: #f3f3f4;
            }

            .cls-32 {
                fill: #f4f4f5;
            }

            .cls-33 {
                fill: #f5f5f6;
            }

            .cls-34 {
                fill: #f6f6f7;
            }

            .cls-35 {
                fill: #f7f8f8;
            }

            .cls-36 {
                fill: #f8f9f9;
            }

            .cls-37 {
                fill: #f9fafa;
            }

            .cls-38 {
                fill: #fafbfb;
            }

            .cls-39 {
                fill: #fcfcfc;
            }

            .cls-40 {
                fill: #fdfdfd;
            }

            .cls-41 {
                fill: #fefefe;
            }

            .cls-42 {
                fill: #fff;
            }

            .cls-43 {
                opacity: 0.2;
            }
        </style>
        <linearGradient id="未命名的渐变_1579" x1="26.22" y1="112.68" x2="26.22" y2="86.11" gradientUnits="userSpaceOnUse">
            <stop offset="0" stop-color="#e1e3e6" />
            <stop offset="0.67" stop-color="#b8c0cc" />
        </linearGradient>
        <linearGradient id="未命名的渐变_75" x1="26.25" y1="101.36" x2="26.25" y2="70.5" gradientUnits="userSpaceOnUse">
            <stop offset="0" stop-color="#e1e3e6" />
            <stop offset="1" stop-color="#f5faff" />
        </linearGradient>
        <linearGradient id="未命名的渐变_1572" x1="23.31" y1="85.96" x2="28.04" y2="85.96" gradientUnits="userSpaceOnUse">
            <stop offset="0.33" stop-color="#b8c0cc" />
            <stop offset="0.89" stop-color="#e7eaee" />
            <stop offset="1" stop-color="#eaeef2" />
        </linearGradient>
        <linearGradient id="未命名的渐变_1579-2" x1="123.78" y1="150" x2="123.78" y2="123.43" xlink:href="#未命名的渐变_1579" />
        <linearGradient id="未命名的渐变_75-2" x1="123.81" y1="138.68" x2="123.81" y2="107.82" xlink:href="#未命名的渐变_75" />
        <linearGradient id="未命名的渐变_1572-2" x1="120.87" y1="123.28" x2="125.6" y2="123.28" xlink:href="#未命名的渐变_1572" />
        <linearGradient id="未命名的渐变_1055" x1="53.68" y1="46.75" x2="76.56" y2="7.12" gradientUnits="userSpaceOnUse">
            <stop offset="0" stop-color="#5caae6" />
            <stop offset="0.09" stop-color="#2474b3" />
            <stop offset="0.2" stop-color="#2c7ab7" />
            <stop offset="0.37" stop-color="#428ac2" />
            <stop offset="0.58" stop-color="#67a4d4" />
            <stop offset="0.75" stop-color="#8abee6" />
            <stop offset="0.93" stop-color="#8abde6" />
            <stop offset="1" stop-color="#5296cc" />
        </linearGradient>
        <linearGradient id="未命名的渐变_75-3" x1="75.66" y1="42.45" x2="108" y2="42.45" xlink:href="#未命名的渐变_75" />
        <linearGradient id="未命名的渐变_1050" x1="92.02" y1="69.01" x2="114.87" y2="29.42" gradientUnits="userSpaceOnUse">
            <stop offset="0" stop-color="#e6e8eb" />
            <stop offset="0.09" stop-color="#c8cacc" />
            <stop offset="0.27" stop-color="#d0d2d4" />
            <stop offset="0.55" stop-color="#e6e8ea" />
            <stop offset="0.75" stop-color="#fafcff" />
            <stop offset="0.93" stop-color="#f5f7fa" />
            <stop offset="1" stop-color="#ebedf0" />
        </linearGradient>
    </defs>
    <title>Pills（药丸）</title>
    <g id="图层_2" data-name="图层 2">
        <g id="图层_21" data-name="图层 21">
            <g id="Pills_药丸_" data-name="Pills（药丸）">
                <path class="cls-1"
                    d="M52.44,86.27l-.06,11.32c0,3.86-2.54,7.71-7.6,10.65-10.19,5.92-26.78,5.92-37,0-5.16-3-7.74-6.89-7.73-10.8L.06,86.11c0,3.91,2.57,7.82,7.73,10.8,10.27,5.93,26.85,5.93,37,0C49.89,94,52.43,90.13,52.44,86.27Z" />
                <path class="cls-2"
                    d="M52.44,86.11c0,3.91-2.48,7.83-7.61,10.81-10.19,5.92-26.77,5.92-37,0C2.66,94,.06,90.07.06,86.19c0,0,2.64-15.69,26.16-15.69S52.44,86.11,52.44,86.11Z" />
                <rect class="cls-3" x="23.31" y="70.58" width="4.73" height="30.74" rx="2.37" />
                <path class="cls-4"
                    d="M150,123.59l-.06,11.32c0,3.86-2.54,7.71-7.6,10.65-10.19,5.92-26.78,5.92-37,0-5.16-3-7.74-6.89-7.73-10.8l.06-11.32c0,3.91,2.57,7.82,7.73,10.8,10.27,5.93,26.85,5.93,37,0C147.46,131.3,150,127.45,150,123.59Z" />
                <path class="cls-5"
                    d="M150,123.43c0,3.91-2.47,7.83-7.61,10.81-10.19,5.92-26.77,5.92-37,0-5.13-3-7.73-6.84-7.73-10.72,0,0,2.64-15.69,26.16-15.69S150,123.43,150,123.43Z" />
                <rect class="cls-6" x="120.87" y="107.91" width="4.73" height="30.74" rx="2.37" />
                <g class="cls-7">
                    <path class="cls-8"
                        d="M70.75,3.82h0l-.07-.06-.42-.27-.08-.05-.55-.33a1,1,0,0,1-.18-.1,24.3,24.3,0,0,0-3-1.41l-.15-.07A17.27,17.27,0,0,0,64,.77L63.69.7l-.08,0a17.67,17.67,0,0,0-3-.52L60,.1l-.46,0a20.85,20.85,0,0,0-2.85,0L56.17.1l-.27,0-.54.06-.15,0a1.52,1.52,0,0,0-.21,0,22.85,22.85,0,0,0-3.07.64,20.29,20.29,0,0,0-2.2.74l-.3.13c-.6.25-1.22.52-1.71.78l-.42.23-.3.16c-.16.08-.67.37-1.35.81-.34.22-.72.48-1,.72h0l-.13.1,0,0c-.34.25-.69.52-1,.81l-.28.25-.22.2-.12.1-.45.43a.93.93,0,0,0-.14.14l-.28.27a1.85,1.85,0,0,0-.14.14L41.67,7l-.46.49c-.45.49-.79.91-1,1.19l-.08.11c-.23.29-.42.54-.55.73a20.5,20.5,0,0,0-1.79,3,.83.83,0,0,0-.07.13c-.07.14-.14.29-.22.43a19,19,0,0,0-.83,2c-.12.3-.24.69-.34,1s-.24.78-.35,1.23c0,.09,0,.18-.07.28l0,.1c-.12.49-.24,1.12-.34,1.79a.3.3,0,0,0,0,.1c0,.07,0,.25-.07.51,0,0,0,.08,0,.12v.05c0,.34-.08.68-.09,1v.11c0,.38,0,.81,0,1.27v.35c0,.14,0,.28,0,.43s0,.58,0,.86c0,.11,0,.22,0,.34s0,.38,0,.56,0,.22,0,.33,0,.35.06.52a.17.17,0,0,0,0,.07s0,.07,0,.11c.07.47.15.9.22,1.28,0,.11.05.22.07.33.09.39.17.73.24,1a3.37,3.37,0,0,0,.1.34v0c.1.35.2.68.31,1a.56.56,0,0,1,0,.12,23.44,23.44,0,0,0,1.56,3.53h0l.08.16c.08.13.15.27.21.37.23.42.48.81.74,1.19a20.44,20.44,0,0,0,1.22,1.67l.09.11,0,.05c.06.06.12.14.18.21h0l.29.34c.23.27.48.55.7.77l.09.08.62.62A23.22,23.22,0,0,0,44.15,41a.69.69,0,0,1,.13.11,17.4,17.4,0,0,0,1.5,1l.5.31.11.07.53.31.14.07,0,0h0l.08,0,.55.29h0l.17.08.07,0L80.38,62.16c-2.91-1.69-4.71-5.28-4.72-10.39,0-10.25,7.18-22.75,16.11-27.91,4.5-2.6,8.57-2.84,11.51-1.13Z" />
                    <path class="cls-9"
                        d="M91.77,23.86c8.94-5.17,16.2-1,16.23,9.24S100.82,55.88,91.88,61s-16.19,1-16.22-9.27S82.84,29,91.77,23.86Z" />
                </g>
                <g class="cls-7">
                    <path class="cls-10"
                        d="M103.28,22.73c-2.94-1.71-7-1.47-11.51,1.13C82.84,29,75.63,41.52,75.66,51.77c0,5.11,1.81,8.7,4.72,10.39L115,82.28c-2.9-1.68-4.71-5.28-4.72-10.39,0-10.25,7.18-22.75,16.12-27.91,4.49-2.6,8.56-2.84,11.5-1.13Z" />
                    <path class="cls-11"
                        d="M112.8,80.45l-.1-.12a11.11,11.11,0,0,1-.67-1,.83.83,0,0,0-.07-.13c-.2-.36-.39-.73-.56-1.12l-.06-.13c-.16-.41-.32-.83-.45-1.27l0-.13a14.3,14.3,0,0,1-.33-1.43s0-.06,0-.1c-.09-.51-.15-1-.2-1.6v-.06c0-.57-.06-1.16-.06-1.78.13-10.37,7.49-22.81,16.43-27.8q.41-.23.81-.42l.27-.13.53-.25.32-.13.47-.2.33-.12.44-.15.34-.11.42-.12.34-.08.41-.1.33-.06.4-.07.33,0,.38,0,.32,0h1.06l.3,0,.37,0,.29,0,.35.06.28.06.35.1.25.07a3,3,0,0,1,.36.13l.23.08.4.18.16.08h0l.55.29.08,0h0l0,0,.14.07.52.31.12.07.5.31A15.38,15.38,0,0,1,141,44.81l.13.1A21.87,21.87,0,0,1,143,46.49l.62.62.08.09c.23.21.47.49.71.76l.29.34h0l.17.21,0,0,.09.11a20.44,20.44,0,0,1,1.22,1.67c.25.38.51.77.74,1.19.06.1.13.24.2.37l.09.16h0a22.49,22.49,0,0,1,1.55,3.53.56.56,0,0,1,0,.12c.11.33.22.66.31,1v0l.09.34c.07.27.16.61.24,1a3,3,0,0,1,.07.32c.08.38.16.82.22,1.28a.43.43,0,0,1,0,.11s0,0,0,.07l.06.52c0,.11,0,.22,0,.33s0,.37,0,.56l0,.34,0,.86c0,.15,0,.29,0,.43v.35c0,.47,0,.89-.05,1.28v.11c0,.31-.05.65-.09,1v0s0,.08,0,.12c0,.26-.06.44-.07.51s0,.07,0,.1c-.1.67-.23,1.3-.34,1.79l0,.1c0,.11,0,.2-.07.28-.11.45-.23.87-.35,1.24s-.22.68-.34,1a19,19,0,0,1-.84,2l-.21.43-.07.13a21.46,21.46,0,0,1-1.79,3c-.13.19-.33.45-.55.73l-.08.11c-.22.28-.56.7-1,1.19-.15.17-.3.34-.45.49l-.08.08-.14.15-.28.27-.14.13-.46.43-.11.11-.23.19-.28.25c-.35.29-.69.56-1,.82l-.05,0-.13.1h0c-.32.24-.71.5-1,.72-.68.44-1.2.73-1.36.81l-.3.16-.41.23c-.5.26-1.11.53-1.72.78l-.3.13a20.12,20.12,0,0,1-2.19.74,22.85,22.85,0,0,1-3.07.64l-.21,0h-.16c-.17,0-.35,0-.53.06l-.27,0-.56,0a20.85,20.85,0,0,1-2.85,0l-.46,0c-.21,0-.41,0-.61-.06a17.74,17.74,0,0,1-3-.52l-.09,0-.29-.07a17.27,17.27,0,0,1-2.34-.76l-.15-.07a22.9,22.9,0,0,1-3-1.41l-.18-.1-.55-.33-.08,0-.42-.27-.07-.06a6.86,6.86,0,0,1-.86-.67l-.12-.1A9.84,9.84,0,0,1,112.8,80.45Z" />
                    <path class="cls-12"
                        d="M132.77,42.77l.38,0,.31,0,.37,0h.66l.29,0,.35,0,.29,0,.34.06.27.06.34.09.25.07.35.12.22.09.38.17.17.07h0l.54.28.07,0,0,0h0l.14.08.51.29.11.07.49.3a14.55,14.55,0,0,1,1.45,1l.12.1A18.78,18.78,0,0,1,143,47.29l.6.6.08.08c.22.21.46.48.69.75.1.11.18.22.27.33h0a1.63,1.63,0,0,0,.17.2l0,0,.09.1c.23.29.66.85,1.18,1.63.24.36.49.74.71,1.14l.2.36.09.16h0a21.49,21.49,0,0,1,1.51,3.42l0,.12c.11.32.21.64.3,1v0l.09.33c.07.26.15.59.23,1,0,.1.05.21.07.31.07.37.15.79.21,1.25a.36.36,0,0,1,0,.1s0,0,0,.07l.06.5,0,.33c0,.17,0,.35,0,.54s0,.22,0,.33c0,.27,0,.54,0,.83s0,.28,0,.41v.35c0,.44,0,.86,0,1.23,0,0,0,.07,0,.11,0,.3,0,.63-.09,1v0l0,.12c0,.24-.06.42-.07.49s0,.06,0,.1c-.11.64-.23,1.26-.34,1.73a.36.36,0,0,1,0,.1,1.76,1.76,0,0,1-.07.27c-.11.44-.22.84-.34,1.2s-.21.66-.32,1c-.23.6-.49,1.27-.81,1.93l-.21.42-.07.12a20.08,20.08,0,0,1-1.74,2.86c-.13.18-.31.43-.53.71L145,77c-.21.28-.54.68-1,1.16l-.44.48-.08.07a1.85,1.85,0,0,1-.14.14l-.26.26-.14.14-.44.41-.12.1-.21.19-.27.24c-.34.29-.68.55-1,.79l0,0-.13.09v0c-.32.23-.68.48-1,.69-.66.43-1.16.71-1.31.79l-.29.15-.41.22a17.35,17.35,0,0,1-1.66.76l-.29.13a20.48,20.48,0,0,1-2.13.72,25.62,25.62,0,0,1-3,.62l-.2,0-.16,0-.52.06-.26,0-.54,0a21.18,21.18,0,0,1-2.76,0l-.45,0-.59-.06a16.38,16.38,0,0,1-2.87-.51l-.09,0L122,84.7a16.53,16.53,0,0,1-2.26-.73l-.15-.07a24.83,24.83,0,0,1-2.86-1.38l-.18-.09-.53-.32-.08,0-.41-.26-.07-.06a7.18,7.18,0,0,1-.83-.65l-.11-.1a8.06,8.06,0,0,1-.74-.8l-.09-.11a10.44,10.44,0,0,1-.65-.94l-.07-.13a10.91,10.91,0,0,1-.55-1.08.69.69,0,0,0,0-.13,11.11,11.11,0,0,1-.43-1.23.56.56,0,0,0,0-.12c-.12-.44-.23-.9-.32-1.39a.28.28,0,0,0,0-.09,15.12,15.12,0,0,1-.19-1.56.11.11,0,0,0,0,0c0-.56-.06-1.13,0-1.73.13-10,7.26-22.11,15.93-26.94.26-.15.52-.28.78-.41l.26-.13.51-.24.31-.13.46-.19.32-.11c.14,0,.28-.11.43-.15l.32-.1.41-.12.33-.08.4-.1.32-.06.38-.06Z" />
                    <path class="cls-13"
                        d="M133.13,43.7l.37,0,.3,0h1l.28,0c.12,0,.23,0,.34,0l.28,0,.33.06.26.05.34.09.24.07.34.12.21.08.37.17.16.07h0l.52.28.08,0h.05l.13.08.49.29.11.06.47.29a15.49,15.49,0,0,1,1.41,1l.12.1a20.21,20.21,0,0,1,1.74,1.5l.57.58.08.08c.21.21.44.47.66.72l.27.32h0l.17.2,0,0a.76.76,0,0,1,.08.11,18.34,18.34,0,0,1,1.15,1.57c.23.35.47.72.69,1.11l.19.35.08.15h0a21.88,21.88,0,0,1,1.45,3.31.36.36,0,0,0,0,.11c.1.31.2.63.28,1v0l.09.32c.06.25.14.57.22.93,0,.1,0,.2.07.31.07.35.14.76.2,1.2,0,0,0,.07,0,.1a.15.15,0,0,0,0,.07c0,.15,0,.32.05.48s0,.22,0,.32,0,.34,0,.52,0,.21,0,.32q0,.39,0,.81v.4c0,.11,0,.22,0,.33,0,.43,0,.83,0,1.19,0,0,0,.08,0,.11,0,.29-.05.61-.09.93v.05l0,.11-.06.48s0,.06,0,.09c-.1.63-.22,1.22-.32,1.68,0,0,0,.06,0,.1s-.05.18-.07.26c-.11.42-.21.82-.33,1.16l-.31.93c-.22.59-.48,1.23-.79,1.87-.07.13-.14.27-.2.4l-.07.12a19.07,19.07,0,0,1-1.68,2.77l-.52.69a.86.86,0,0,0-.07.1c-.21.26-.53.65-.95,1.12l-.43.46-.08.07-.13.14-.26.25a1.59,1.59,0,0,1-.13.13l-.43.4-.11.1-.21.18L142,80c-.33.28-.66.53-1,.77l0,0-.13.09h0c-.31.23-.66.47-1,.67-.64.42-1.12.69-1.27.77l-.28.15-.39.21a16.36,16.36,0,0,1-1.61.73l-.28.13c-.6.24-1.42.52-2.06.7a25,25,0,0,1-2.88.6l-.2,0-.15,0-.5.05L130,85l-.53,0a18.44,18.44,0,0,1-2.68,0l-.44,0-.57-.06a17.51,17.51,0,0,1-2.78-.49l-.08,0-.28-.07a15.16,15.16,0,0,1-2.19-.72l-.15-.06a26.77,26.77,0,0,1-2.77-1.34,1.4,1.4,0,0,1-.17-.09l-.51-.31-.08,0-.4-.26-.06,0a6.92,6.92,0,0,1-.8-.63l-.11-.1a8.84,8.84,0,0,1-.72-.77l-.09-.11a9.7,9.7,0,0,1-.62-.91s0-.08-.07-.13a10.3,10.3,0,0,1-.53-1.05l0-.12c-.15-.38-.3-.77-.42-1.19l0-.12a12.55,12.55,0,0,1-.31-1.34s0-.06,0-.09c-.08-.48-.15-1-.19-1.5v-.06c0-.54-.06-1.09,0-1.67.13-9.73,7-21.4,15.42-26.08.25-.15.51-.28.76-.4a1.92,1.92,0,0,1,.25-.12l.5-.24.3-.12a3.38,3.38,0,0,1,.44-.18l.31-.12.41-.14.32-.1.4-.12.31-.08.39-.08a1.55,1.55,0,0,1,.31-.06l.37-.07Z" />
                    <path class="cls-14"
                        d="M133.48,44.64l.36,0,.29,0,.35,0h.63l.27,0,.33,0,.27,0a1.65,1.65,0,0,1,.32.06l.25.05.33.08.23.07.33.11.21.08.36.16.15.07h0l.5.26.07,0,0,0h0l.13.07.48.28.1.06.46.28a14.46,14.46,0,0,1,1.36,1l.12.1a17.31,17.31,0,0,1,1.68,1.45l.55.57.08.08c.2.2.42.45.64.7l.26.31h0l.16.19,0,0,.08.1c.22.27.62.79,1.11,1.52.22.34.45.7.66,1.07.05.1.12.22.19.34l.07.14v0a20.45,20.45,0,0,1,1.4,3.2s0,.07,0,.11c.1.3.19.6.28.91v0l.09.31c.06.24.13.55.21.91l.06.29c.07.35.14.74.2,1.16,0,0,0,.07,0,.1v.07l.06.47,0,.3c0,.16,0,.33,0,.51s0,.2,0,.3q0,.39,0,.78v.39c0,.11,0,.21,0,.32,0,.42,0,.81-.05,1.16,0,0,0,.07,0,.1,0,.29-.05.59-.08.9v.16c0,.23-.06.39-.07.46s0,.06,0,.09c-.1.6-.21,1.18-.32,1.62l0,.09c0,.1,0,.18-.06.26-.11.41-.21.79-.32,1.12s-.2.62-.31.9a17.63,17.63,0,0,1-.76,1.81l-.19.39-.07.12A19,19,0,0,1,145.55,76l-.5.67-.08.09c-.2.26-.51.64-.92,1.09l-.41.44-.07.07-.13.13-.25.25a.8.8,0,0,0-.13.13l-.42.38-.1.1-.21.17-.25.23c-.32.27-.63.51-.94.74l0,0-.12.09v0c-.29.21-.64.45-.94.64-.62.41-1.09.67-1.23.75l-.28.14-.37.2a16.37,16.37,0,0,1-1.56.72l-.27.11a16.65,16.65,0,0,1-2,.68,23.9,23.9,0,0,1-2.8.59l-.19,0-.14,0-.49,0-.24,0-.51,0a20.51,20.51,0,0,1-2.6,0l-.42,0-.55,0A16.25,16.25,0,0,1,123.7,84l-.08,0-.27-.06a15.61,15.61,0,0,1-2.13-.7l-.13-.06a23.26,23.26,0,0,1-2.68-1.3,1.4,1.4,0,0,1-.17-.09l-.49-.3-.08,0-.38-.25-.06,0a7.46,7.46,0,0,1-.78-.61l-.1-.1a8.06,8.06,0,0,1-.69-.74l-.09-.11a9.08,9.08,0,0,1-.6-.88.75.75,0,0,1-.07-.12,9.7,9.7,0,0,1-.51-1,.37.37,0,0,0,0-.11,10.55,10.55,0,0,1-.4-1.16l0-.11a13,13,0,0,1-.3-1.3.28.28,0,0,1,0-.09,13.05,13.05,0,0,1-.18-1.45.11.11,0,0,1,0,0c0-.52,0-1.06,0-1.62.12-9.41,6.8-20.69,14.91-25.23l.74-.39.24-.11.48-.23.29-.12.43-.17.3-.11.4-.15.3-.09.39-.11.3-.08.38-.08.3-.06.36-.06Z" />
                    <path class="cls-15"
                        d="M133.84,45.57l.35,0,.28,0h1.21l.32,0,.26,0,.31,0,.25,0,.31.08.23.07.32.11.2.07.35.16.15.07h0l.49.26.07,0h0l.13.07.46.27.1.06.45.27a15,15,0,0,1,1.32.93l.11.1a16,16,0,0,1,1.62,1.41l.54.55.07.08c.2.19.41.43.62.67l.25.3h0l.15.19,0,0,.08.1c.21.26.6.77,1.06,1.47.22.33.44.67.65,1l.17.32s0,.1.08.14v0a19.47,19.47,0,0,1,1.35,3.09l0,.11.27.88v0c0,.1.06.2.08.3s.14.53.21.87l.06.28c.07.34.13.72.19,1.13a.29.29,0,0,0,0,.09v.07q0,.21.06.45l0,.29c0,.16,0,.32,0,.49s0,.2,0,.3,0,.49,0,.75v.38c0,.1,0,.2,0,.31,0,.4,0,.77-.05,1.11,0,0,0,.07,0,.1,0,.28-.05.57-.08.87v.15l-.06.45s0,0,0,.08c-.09.59-.2,1.14-.3,1.57l0,.09-.06.25c-.1.39-.2.76-.31,1.08s-.2.6-.3.87a17.58,17.58,0,0,1-.73,1.74c-.07.13-.13.26-.2.38l-.05.12a20.55,20.55,0,0,1-1.58,2.58c-.12.17-.29.39-.48.64a.36.36,0,0,0-.07.1c-.2.25-.5.61-.89,1l-.4.42-.07.07-.13.13-.24.24-.12.12-.4.37-.11.09-.19.18-.25.21c-.3.26-.61.5-.9.72l0,0-.12.09h0c-.28.21-.62.44-.91.63-.6.38-1,.64-1.19.71l-.26.14-.37.2c-.43.23-1,.47-1.5.69l-.26.11a18.28,18.28,0,0,1-1.93.66A24.78,24.78,0,0,1,132,84l-.18,0h-.14l-.47.06-.24,0-.49,0a16.18,16.18,0,0,1-2.51,0l-.41,0L127,84.1a15.15,15.15,0,0,1-2.61-.47l-.08,0-.26-.06a14.87,14.87,0,0,1-2-.67l-.13-.06a25.22,25.22,0,0,1-2.59-1.26l-.16-.09-.48-.29a.18.18,0,0,0-.07-.05l-.37-.24-.06,0a6.06,6.06,0,0,1-.74-.6l-.1-.09a6.56,6.56,0,0,1-.67-.72.44.44,0,0,1-.08-.11,6.25,6.25,0,0,1-.58-.84.75.75,0,0,1-.07-.12,9,9,0,0,1-.49-1,1.17,1.17,0,0,0,0-.11c-.14-.36-.27-.73-.39-1.12l0-.1a12.2,12.2,0,0,1-.28-1.26s0-.06,0-.09c-.07-.45-.13-.91-.17-1.4v0c0-.5,0-1,0-1.56.13-9.09,6.58-20,14.42-24.37l.71-.38.23-.11.47-.22.27-.11.42-.17.29-.11.38-.14.3-.09.37-.11.3-.07.35-.08.3-.06.34-.06Z" />
                    <path class="cls-16"
                        d="M134.2,46.51l.33,0,.28,0H136l.31,0,.25,0,.31,0,.23,0,.31.08a1.66,1.66,0,0,1,.21.06l.31.11.2.07a2.52,2.52,0,0,1,.34.15l.14.06h0l.48.24.06,0h.05l.12.07.45.26.09.06.43.27a14.56,14.56,0,0,1,1.28.89l.11.1a17.22,17.22,0,0,1,1.56,1.36l.52.54.07.08a7.79,7.79,0,0,1,.59.65,3.07,3.07,0,0,1,.24.29h0c0,.06.1.12.14.17l0,0a.73.73,0,0,0,.08.09c.2.26.58.75,1,1.42.21.32.43.65.62,1l.17.32.07.13h0a20,20,0,0,1,1.3,3l0,.1c.09.28.18.56.26.85v0c0,.1.06.19.08.29s.13.51.2.84l.06.28c.06.32.12.69.18,1.08,0,0,0,.06,0,.09a.13.13,0,0,1,0,.06c0,.14,0,.29,0,.44l0,.28c0,.16,0,.31,0,.47s0,.2,0,.29c0,.24,0,.48,0,.73v.36c0,.1,0,.2,0,.3,0,.39,0,.75,0,1.08,0,0,0,.06,0,.09,0,.27,0,.55-.08.84v0l0,.11c0,.21-.05.37-.06.43s0,0,0,.08c-.09.57-.2,1.1-.3,1.51V69c0,.09-.05.16-.07.24-.09.38-.19.73-.29,1s-.19.58-.29.84c-.2.53-.43,1.11-.71,1.68-.06.13-.13.25-.19.37l0,.11a18.79,18.79,0,0,1-1.52,2.49c-.12.16-.28.38-.47.62l-.07.09c-.18.24-.48.59-.86,1-.13.15-.25.29-.38.42l-.07.06-.12.13a2.5,2.5,0,0,0-.23.23l-.12.11q-.19.19-.39.36l-.1.09-.19.17-.23.21c-.3.25-.6.47-.88.69l0,0-.11.08h0c-.27.21-.6.43-.88.61-.58.37-1,.62-1.15.69l-.25.13-.35.2c-.42.22-.94.45-1.45.66l-.25.11a15.07,15.07,0,0,1-1.86.63,21.77,21.77,0,0,1-2.61.56l-.18,0h-.13l-.46,0-.23,0-.47.05a17.91,17.91,0,0,1-2.43,0l-.39,0-.52,0a15,15,0,0,1-2.51-.45l-.08,0-.25-.06a13.93,13.93,0,0,1-2-.66l-.13-.05a21.43,21.43,0,0,1-2.49-1.23l-.15-.08-.47-.29-.07,0-.35-.23-.06,0a6.53,6.53,0,0,1-.72-.58l-.1-.09a7.06,7.06,0,0,1-.64-.69.76.76,0,0,0-.08-.11,8.25,8.25,0,0,1-.56-.81l-.06-.12a8.24,8.24,0,0,1-.47-.94l0-.11A10.51,10.51,0,0,1,116,76l0-.1c-.11-.39-.2-.79-.28-1.21,0,0,0-.06,0-.08-.07-.44-.13-.89-.16-1.36v-.05c0-.48,0-1,0-1.5.13-8.77,6.35-19.28,13.91-23.51l.69-.37.22-.1.45-.22.27-.11.4-.16.28-.1L132,47l.28-.08.36-.11.29-.07.34-.08.28-.06.34-.05Z" />
                    <path class="cls-17"
                        d="M134.55,47.45l.33,0,.27,0,.31,0H136l.25,0,.3,0a2,2,0,0,1,.24,0l.3,0,.22,0,.3.08.21.06.3.1.19.07.33.14.13.07h0l.46.24.07,0,0,0h0l.12.06.43.25.09.06.42.26a13,13,0,0,1,1.23.87l.11.08a15.75,15.75,0,0,1,1.5,1.33l.5.52.07.07c.18.18.38.41.57.63l.23.28h0l.14.17,0,0,.08.09c.19.24.55.71,1,1.36.2.31.41.63.59,1l.17.3a.54.54,0,0,0,.07.13h0A18,18,0,0,1,148,58.72l0,.1c.09.27.17.54.25.82v0a2.68,2.68,0,0,0,.07.27c.05.22.12.5.19.82a2,2,0,0,1,.05.26c.07.31.12.66.18,1,0,0,0,0,0,.08a.13.13,0,0,1,0,.06c0,.14,0,.28.05.42l0,.28q0,.21,0,.45c0,.09,0,.18,0,.28s0,.46,0,.7v.35c0,.09,0,.19,0,.28,0,.38,0,.73,0,1v.09a7.92,7.92,0,0,1-.08.81v.14l-.06.42s0,0,0,.08c-.08.54-.19,1.06-.28,1.45l0,.09-.06.23a10.05,10.05,0,0,1-.29,1c-.08.24-.18.56-.27.81a15.39,15.39,0,0,1-.69,1.62l-.18.35-.05.11a18,18,0,0,1-1.47,2.4c-.11.16-.27.37-.45.6l-.06.09c-.18.23-.46.57-.83,1-.12.14-.25.27-.37.4l-.07.06-.11.12-.23.22-.11.12-.37.34-.1.09-.18.16-.23.2-.84.67,0,0-.11.08h0c-.26.19-.57.41-.85.58-.55.36-1,.6-1.1.67l-.25.13-.34.18a14,14,0,0,1-1.39.64l-.25.11a15.07,15.07,0,0,1-1.79.61,22.08,22.08,0,0,1-2.51.54l-.17,0-.13,0-.44,0-.22,0-.46,0a16.76,16.76,0,0,1-2.35,0l-.37,0-.5-.06a14,14,0,0,1-2.43-.43l-.07,0-.24-.06a12.94,12.94,0,0,1-1.91-.63l-.12-.05A22.6,22.6,0,0,1,121,80.91l-.14-.08-.45-.28-.07,0-.34-.23,0,0a7.34,7.34,0,0,1-.69-.56l-.1-.09a6.57,6.57,0,0,1-.61-.67.39.39,0,0,1-.08-.1,7.81,7.81,0,0,1-.54-.79l-.06-.1a8.55,8.55,0,0,1-.45-.91l0-.11c-.13-.33-.25-.67-.36-1a.29.29,0,0,1,0-.09,10.52,10.52,0,0,1-.27-1.17s0-.06,0-.08c-.07-.42-.13-.85-.16-1.3v0a13.81,13.81,0,0,1,0-1.45c.12-8.45,6.12-18.58,13.41-22.66l.66-.35.21-.1.44-.2.25-.11.39-.16.27-.1.36-.13.27-.08.35-.1.27-.07.33-.08.27-.05.33-.06Z" />
                    <path class="cls-18"
                        d="M134.91,48.38l.31,0,.26,0h1.1l.29,0,.23,0,.29.05.22,0,.28.07.21.06.28.1.19.06.31.14L139,49h0l.44.22.06,0h0l.12.06.41.24.1.06.4.25a11,11,0,0,1,1.18.84l.1.08a14.67,14.67,0,0,1,1.46,1.29l.47.5.07.07.55.61.22.26h0l.14.17,0,0,.07.09a15.31,15.31,0,0,1,1,1.32c.19.29.39.6.57.93,0,.08.1.18.15.29a.75.75,0,0,1,.07.12h0a18,18,0,0,1,1.19,2.77l0,.1c.09.25.17.52.24.79v0a2.68,2.68,0,0,0,.07.27l.18.78c0,.08,0,.17.05.25.06.3.12.64.17,1,0,0,0,0,0,.08v.06c0,.13,0,.27,0,.4l0,.27,0,.43c0,.1,0,.18,0,.27s0,.44,0,.67V65c0,.09,0,.18,0,.28,0,.36,0,.69-.05,1v.09c0,.25,0,.51-.07.78v.14c0,.19-.05.34-.06.4s0,0,0,.07c-.09.53-.19,1-.28,1.4v.08a2.18,2.18,0,0,1-.06.22c-.09.36-.18.69-.28,1s-.18.54-.27.78a14.21,14.21,0,0,1-.66,1.56,3.59,3.59,0,0,1-.17.34l0,.1a16.33,16.33,0,0,1-1.41,2.31l-.43.58-.07.08c-.17.22-.44.55-.79.94l-.36.38-.06.06-.12.12-.21.21-.11.11c-.13.12-.24.23-.36.33l-.09.09-.18.15-.22.19c-.27.24-.55.45-.81.65l0,0-.11.08h0c-.25.19-.55.39-.81.56-.54.35-.94.58-1.07.65l-.23.12-.33.18c-.39.21-.87.42-1.34.62l-.24.1a15.82,15.82,0,0,1-1.72.59,21.46,21.46,0,0,1-2.42.52l-.17,0-.12,0-.43,0h-.21a3.27,3.27,0,0,1-.44,0,15.5,15.5,0,0,1-2.26,0l-.37,0-.48,0a13.83,13.83,0,0,1-2.33-.42h-.07l-.24-.06a13.09,13.09,0,0,1-1.83-.61l-.12-.06a19.92,19.92,0,0,1-2.31-1.14l-.14-.08-.43-.27-.07,0-.32-.22-.05,0a7.18,7.18,0,0,1-.67-.54l-.09-.09a6,6,0,0,1-.59-.64l-.08-.1a7.18,7.18,0,0,1-.51-.76l-.06-.1a8,8,0,0,1-.43-.88l0-.1a9.59,9.59,0,0,1-.34-1l0-.1c-.1-.36-.18-.73-.25-1.12a.22.22,0,0,1,0-.08c-.07-.4-.12-.82-.16-1.25v0c0-.45,0-.91,0-1.39.13-8.13,5.9-17.87,12.91-21.8l.64-.34.2-.1.42-.19.25-.11.37-.15.26-.1.34-.12.27-.08.33-.1.26-.07.32-.07.26-.05.31,0Z" />
                    <path class="cls-19"
                        d="M135.27,49.32l.3,0,.25,0,.29,0h.77l.28,0,.22,0,.28.05.21,0,.27.07.2.06a2.29,2.29,0,0,1,.28.09l.18.06.3.14a.75.75,0,0,1,.13.06h0l.43.22.06,0h0l.11.06.4.24.09.05.38.24a13.21,13.21,0,0,1,1.15.81l.09.08a14.75,14.75,0,0,1,1.4,1.24l.46.49.06.07c.17.17.35.37.53.58l.21.26h0l.13.16,0,0,.07.08c.18.23.51.67.91,1.27.18.28.37.58.54.89l.15.28.07.12h0a17.54,17.54,0,0,1,1.15,2.66l0,.09c.08.25.16.5.23.76v0l.06.25c.06.2.12.46.18.75,0,.08,0,.16.05.25,0,.28.11.61.16,1,0,0,0,.06,0,.08V63c0,.12,0,.25,0,.39a2.11,2.11,0,0,1,0,.25c0,.14,0,.27,0,.42s0,.17,0,.25,0,.43,0,.65v.32a2.43,2.43,0,0,1,0,.27c0,.35,0,.67,0,1v.08c0,.24,0,.5-.07.75v.13c0,.19,0,.33,0,.38s0,0,0,.08c-.08.5-.17,1-.26,1.34l0,.08c0,.08,0,.15-.05.21-.09.34-.18.66-.27.93s-.17.52-.26.75a15.14,15.14,0,0,1-.63,1.5c-.06.11-.11.22-.17.32l-.05.1a15.53,15.53,0,0,1-1.36,2.22c-.1.15-.24.34-.41.55l-.06.08c-.17.22-.43.53-.77.91l-.34.37-.06,0-.11.11-.21.21-.1.1-.35.32-.09.08-.17.15-.21.19c-.26.22-.52.42-.77.61l0,0-.1.08h0c-.24.18-.53.37-.78.54-.52.33-.9.55-1,.61l-.23.12-.31.17c-.38.2-.84.41-1.29.6l-.23.1a15.24,15.24,0,0,1-1.65.56,18.81,18.81,0,0,1-2.33.5l-.16,0h-.12l-.41.05-.21,0-.43,0a14.29,14.29,0,0,1-2.17,0l-.35,0-.46-.05a12.87,12.87,0,0,1-2.25-.4l-.06,0-.23,0a13.51,13.51,0,0,1-1.76-.6l-.12,0a19.76,19.76,0,0,1-2.21-1.1l-.14-.08-.41-.26-.06,0-.32-.21-.05,0a6.31,6.31,0,0,1-.63-.53L121,79a5.66,5.66,0,0,1-.57-.62l-.07-.09a6.2,6.2,0,0,1-.49-.73l-.06-.09c-.15-.27-.29-.55-.42-.85l0-.1c-.12-.3-.23-.62-.33-1,0,0,0-.06,0-.09-.1-.35-.18-.71-.25-1.08a.22.22,0,0,0,0-.08c-.06-.38-.11-.78-.14-1.2v0c0-.44,0-.88,0-1.34C118.68,64,124.22,54.6,131,50.83q.3-.18.6-.33l.2-.09.4-.19.24-.1.36-.15.25-.09.33-.12.25-.08.32-.09.25-.07.31-.07.25-.05.3,0Z" />
                    <path class="cls-20"
                        d="M135.62,50.25l.3,0,.24,0h1l.27,0,.21,0,.27.05.2,0,.27.06.19.06.27.09a1,1,0,0,1,.16.06l.3.12.12.06h0l.41.21.06,0h0l.11.05.38.23.09,0,.37.23a12.14,12.14,0,0,1,1.1.78l.09.08a12.29,12.29,0,0,1,1.34,1.2l.44.47.06.07c.16.16.33.36.5.56l.21.24h0l.12.16,0,0a.27.27,0,0,1,.07.08,13.68,13.68,0,0,1,.86,1.21c.18.27.36.56.53.86l.14.26.06.12h0a17.59,17.59,0,0,1,1.09,2.55l0,.09c.07.24.15.48.21.73v0l.06.25c0,.19.11.43.17.72,0,.07,0,.15.05.23q.07.42.15.93a.17.17,0,0,0,0,.07v.06c0,.12,0,.24,0,.37l0,.24,0,.4c0,.09,0,.17,0,.25s0,.41,0,.62v.31a2.08,2.08,0,0,1,0,.25c0,.34,0,.64,0,.92v.08c0,.23,0,.48-.07.72v.13l-.06.36s0,0,0,.07c-.08.49-.17.94-.26,1.3v.07a1.94,1.94,0,0,0-.05.2c-.09.33-.17.63-.26.89s-.17.5-.25.72c-.17.45-.37,1-.61,1.44l-.16.31,0,.09a15.47,15.47,0,0,1-1.3,2.13c-.1.14-.24.33-.4.53l-.06.08c-.16.21-.41.51-.73.86q-.17.19-.33.36l-.06,0-.1.11-.2.2a.47.47,0,0,0-.1.1l-.33.3-.09.08-.16.14-.2.18c-.26.22-.51.41-.75.59l0,0-.1.07h0c-.23.17-.51.36-.75.52-.49.32-.86.53-1,.59l-.22.12-.3.16c-.35.19-.8.39-1.23.57l-.22.09a13.53,13.53,0,0,1-1.59.55A19.27,19.27,0,0,1,134,82l-.15,0h-.11l-.4,0-.19,0-.42,0a14.44,14.44,0,0,1-2.08,0l-.34,0-.44,0a12.48,12.48,0,0,1-2.16-.39l-.07,0-.21-.05a12.43,12.43,0,0,1-1.69-.57l-.11,0a17.54,17.54,0,0,1-2.13-1.07l-.13-.07s-.16-.1-.39-.25l-.06,0-.3-.2,0,0a7.49,7.49,0,0,1-.61-.51.6.6,0,0,1-.08-.08,6.19,6.19,0,0,1-.55-.59l-.06-.09a7.18,7.18,0,0,1-.48-.7.41.41,0,0,0,0-.09c-.14-.26-.28-.53-.4-.81a.36.36,0,0,0,0-.09c-.11-.3-.22-.6-.31-.92l0-.09a10.37,10.37,0,0,1-.23-1s0,0,0-.07c-.06-.37-.11-.76-.14-1.16v0q0-.61,0-1.29c.13-7.48,5.44-16.45,11.9-20.08l.58-.31.19-.09.39-.18.23-.1.34-.14.24-.09.31-.11.25-.08.3-.09.25-.06.29-.07.24-.05.29,0Z" />
                    <path class="cls-21"
                        d="M136,51.19l.28,0,.23,0,.28,0h.7l.27,0,.2,0,.26.05.2,0,.25.07.18,0,.26.09.16.06.29.12.12.05h0l.39.2.06,0h0l.09,0,.38.22.08,0,.36.22a11.11,11.11,0,0,1,1.05.75l.09.08a12,12,0,0,1,1.28,1.16c.13.13.28.29.42.45L144,55c.15.15.32.34.48.53l.19.24h0l.12.14,0,0,.06.08c.16.21.46.61.82,1.16.17.26.34.53.5.82l.14.26.06.11h0a16,16,0,0,1,1,2.44l0,.09c.07.22.14.45.2.69v0l.06.24c0,.18.1.42.16.69,0,.07,0,.15,0,.22.05.27.1.57.14.89a.64.64,0,0,0,0,.07v0c0,.12,0,.24,0,.36a2,2,0,0,1,0,.23l0,.39a1.85,1.85,0,0,1,0,.23c0,.2,0,.39,0,.6v.29a2.09,2.09,0,0,1,0,.25c0,.32,0,.61,0,.88v.07c0,.22,0,.46-.07.69v.12c0,.17,0,.3-.05.35a.2.2,0,0,0,0,.07c-.08.46-.17.9-.25,1.24l0,.07a1.05,1.05,0,0,1,0,.19c-.08.31-.16.6-.24.85s-.16.48-.24.69c-.17.43-.35.91-.59,1.38l-.15.29-.05.09a14.84,14.84,0,0,1-1.24,2l-.39.51-.05.07c-.16.2-.4.49-.71.83-.1.12-.21.23-.31.34l-.06.05-.1.11-.19.18a.47.47,0,0,1-.1.1l-.31.29a.6.6,0,0,0-.08.08l-.16.13a1.54,1.54,0,0,1-.19.17c-.24.21-.48.39-.72.57l0,0-.09.06h0c-.22.17-.49.35-.72.5-.47.31-.82.51-.93.57l-.21.11-.29.16c-.34.18-.77.37-1.18.54l-.21.09a16.07,16.07,0,0,1-1.52.53,18.65,18.65,0,0,1-2.15.46l-.14,0h-.12l-.37,0-.19,0-.4,0a13.35,13.35,0,0,1-2,0l-.32,0-.43,0a11.65,11.65,0,0,1-2.07-.38h-.06l-.2,0a13.58,13.58,0,0,1-1.63-.55l-.1,0a16.58,16.58,0,0,1-2-1l-.13-.07-.37-.24-.06,0-.29-.2,0,0a7,7,0,0,1-.59-.49l-.07-.08a4.6,4.6,0,0,1-.52-.56l-.07-.09a6.52,6.52,0,0,1-.45-.67l0-.09a6.12,6.12,0,0,1-.38-.77l0-.09a7.59,7.59,0,0,1-.31-.88s0-.06,0-.08c-.09-.32-.16-.65-.22-1a.2.2,0,0,1,0-.07c-.06-.36-.1-.72-.13-1.11v0c0-.39,0-.8,0-1.23.13-7.16,5.22-15.75,11.4-19.22l.56-.3.19-.09.36-.17.22-.09.33-.14.23-.08.3-.11.23-.07.3-.09.23-.06.28-.07.23,0,.27-.05Z" />
                    <path class="cls-22"
                        d="M136.34,52.12l.27,0,.22,0,.26,0h.68l.25,0,.2,0,.25,0,.19,0,.24.06.18,0,.25.09.15,0,.28.12.11,0h0l.38.2.05,0h0l.09.06.36.2.08.05.34.21a9.2,9.2,0,0,1,1,.72l.09.08a10,10,0,0,1,1.22,1.11l.4.44.06.06.46.52.18.22h0l.11.14,0,0,.05.07c.16.2.45.59.79,1.11a8.66,8.66,0,0,1,.47.79l.13.24.06.11h0a14.07,14.07,0,0,1,1,2.33l0,.08c.07.22.13.44.19.67v0l.06.22.15.66c0,.07,0,.14,0,.22.05.25.09.53.13.84a.64.64,0,0,0,0,.07v.05c0,.11,0,.23,0,.34a1.5,1.5,0,0,0,0,.22c0,.12,0,.25,0,.37s0,.15,0,.23,0,.37,0,.56v.52c0,.31,0,.59,0,.84v.07c0,.21,0,.44-.06.66v.12c0,.16,0,.28,0,.33s0,0,0,.07c-.07.44-.16.85-.24,1.18v.06c0,.07,0,.13,0,.19-.08.3-.15.57-.24.81s-.15.46-.22.66a13,13,0,0,1-.57,1.31,2.59,2.59,0,0,1-.14.29l0,.09a15.57,15.57,0,0,1-1.2,2l-.36.48-.06.07c-.15.19-.37.46-.67.79l-.3.32-.05,0-.1.1-.18.18-.1.09-.3.28a.27.27,0,0,1-.08.07.86.86,0,0,1-.14.13l-.19.17-.68.54,0,0-.09.07h0c-.21.16-.46.33-.69.47-.44.29-.78.49-.89.55l-.2.1-.27.15a11.92,11.92,0,0,1-1.13.52l-.2.09a14.59,14.59,0,0,1-1.45.5,15.94,15.94,0,0,1-2.06.45l-.14,0-.11,0-.36,0-.18,0-.38,0a12.31,12.31,0,0,1-1.92,0l-.31,0-.4,0a11.36,11.36,0,0,1-2-.36l-.06,0-.2,0a10.49,10.49,0,0,1-1.55-.53l-.1,0a16.56,16.56,0,0,1-1.94-1l-.12-.07s-.14-.09-.35-.23l-.06,0-.27-.19,0,0a5.83,5.83,0,0,1-.55-.46l-.08-.07a6.6,6.6,0,0,1-.49-.55l-.06-.08a6,6,0,0,1-.43-.64.56.56,0,0,0-.05-.08c-.13-.24-.25-.48-.36-.74l0-.09a7.55,7.55,0,0,1-.29-.84.24.24,0,0,1,0-.08,7.13,7.13,0,0,1-.21-.94.2.2,0,0,1,0-.07c-.06-.34-.1-.69-.13-1v0a11.4,11.4,0,0,1,0-1.18c.13-6.84,5-15,10.9-18.36l.53-.29.18-.08.35-.17.21-.09.31-.13.22-.08.29-.1.22-.07.28-.09.22,0,.27-.07.22,0,.26-.05Z" />
                    <path class="cls-23"
                        d="M136.69,53.06l.26,0,.22,0,.25,0h.65l.24,0,.2,0,.23,0,.18,0,.24.06.17,0,.23.08.15,0,.26.12.11,0h0l.37.18,0,0h0l.09.05L141,54l.07,0,.33.2c.3.2.69.46,1,.69l.08.08a10.8,10.8,0,0,1,1.17,1.07l.38.42.05.06c.13.14.29.32.43.49s.12.14.18.21h0l.11.13,0,0s0,0,0,.07c.15.19.42.55.75,1.05.15.24.31.49.45.75l.12.24a.31.31,0,0,1,.05.1h0a15,15,0,0,1,.94,2.22l0,.08q.1.31.18.63v0a1.42,1.42,0,0,1,.05.22q.07.26.15.63a1.77,1.77,0,0,0,0,.2c0,.24.09.51.12.81a.15.15,0,0,1,0,.07v0l0,.32a1.8,1.8,0,0,1,0,.22l0,.35a1.48,1.48,0,0,0,0,.21c0,.18,0,.36,0,.54v.49c0,.29,0,.56,0,.81v.06c0,.2,0,.42-.06.63v0l0,.08c0,.16,0,.27,0,.32a.13.13,0,0,0,0,.06c-.07.42-.16.82-.23,1.13l0,.06c0,.07,0,.12,0,.18-.08.28-.15.54-.23.77s-.14.44-.22.63c-.15.39-.32.83-.53,1.25l-.14.27,0,.09a15,15,0,0,1-1.14,1.86l-.35.46-.05.06c-.14.18-.36.45-.64.76l-.29.31,0,.05-.09.09-.18.17-.09.09-.28.26-.08.07-.14.13-.18.15c-.22.19-.44.36-.65.52l0,0-.08.06h0l-.65.46c-.43.27-.75.46-.86.51a.85.85,0,0,1-.19.1l-.26.15c-.31.17-.7.34-1.07.5l-.19.08a13.41,13.41,0,0,1-1.39.48,16.08,16.08,0,0,1-2,.43l-.13,0-.11,0-.34,0h-.18l-.36,0a14,14,0,0,1-1.83,0l-.3,0-.39,0a11.51,11.51,0,0,1-1.89-.35h-.05l-.19,0a10.77,10.77,0,0,1-1.48-.51l-.09,0a14.3,14.3,0,0,1-1.85-1l-.11-.06-.35-.22-.05,0-.26-.18,0,0a4.36,4.36,0,0,1-.53-.45l-.07-.06c-.16-.16-.32-.34-.47-.52l-.06-.08a5.35,5.35,0,0,1-.4-.61l0-.08a6.67,6.67,0,0,1-.34-.71l0-.08a6.27,6.27,0,0,1-.28-.8s0-.05,0-.07c-.08-.29-.14-.59-.2-.9a.17.17,0,0,0,0-.07c0-.32-.09-.65-.11-1v0c0-.36,0-.73,0-1.12.13-6.53,4.76-14.33,10.39-17.51l.51-.27.17-.08.33-.16.2-.08.3-.13.2-.07.28-.1.21-.07.27-.08.21,0,.26-.07.21,0,.25,0Z" />
                    <path class="cls-24"
                        d="M137.05,54l.25,0,.2,0,.24,0h.86l.19,0,.22,0,.18,0,.22,0,.16,0,.23.08.14.05.25.1.11,0h0l.34.18,0,0h0l.08,0a2.79,2.79,0,0,1,.33.19l.07,0,.32.19a8.65,8.65,0,0,1,.92.67l.08.06a11.81,11.81,0,0,1,1.11,1l.36.41.05.06.41.46.17.21h0l.1.13,0,0,.05.07c.14.18.4.53.71,1,.14.22.29.46.42.71a2.18,2.18,0,0,1,.12.22.93.93,0,0,1,.05.1h0a14.09,14.09,0,0,1,.89,2.12l0,.08q.09.29.18.6v0a1.17,1.17,0,0,1,.05.2c0,.16.09.37.14.6l0,.19a7.36,7.36,0,0,1,.12.77.15.15,0,0,1,0,.07v0l0,.31c0,.06,0,.13,0,.2s0,.22,0,.33,0,.14,0,.21,0,.33,0,.51V67c0,.27,0,.53,0,.76v.07c0,.19,0,.39-.07.59v.1c0,.15,0,.26-.05.31v.06c-.07.4-.14.77-.22,1.07V70a1.36,1.36,0,0,0,0,.17c-.08.27-.14.52-.22.73s-.14.41-.21.6a12.89,12.89,0,0,1-.51,1.19c0,.09-.09.18-.13.26l0,.08A13,13,0,0,1,145,74.78l-.33.43,0,.07c-.13.17-.34.42-.61.72l-.27.29-.05,0-.09.08-.16.17-.09.08-.27.25A.46.46,0,0,1,143,77l-.13.12-.17.14c-.21.18-.42.34-.62.5l0,0-.08.06h0l-.62.43c-.41.26-.71.44-.81.49l-.18.1-.25.13c-.3.16-.67.33-1,.48l-.18.08a11.22,11.22,0,0,1-1.31.45,13.61,13.61,0,0,1-1.87.42l-.13,0h-.1l-.33,0-.16,0-.35,0a11.36,11.36,0,0,1-1.75,0l-.28,0-.37,0a9.27,9.27,0,0,1-1.8-.33h0l-.18,0a9.75,9.75,0,0,1-1.41-.48l-.09,0a13,13,0,0,1-1.76-.91l-.1-.06-.33-.22,0,0-.24-.17,0,0a4.06,4.06,0,0,1-.5-.43l-.07-.06a5.24,5.24,0,0,1-.44-.5l-.06-.07a4.89,4.89,0,0,1-.39-.58.3.3,0,0,0,0-.08,4.6,4.6,0,0,1-.32-.67l0-.08a5.65,5.65,0,0,1-.26-.76.19.19,0,0,1,0-.07,7.52,7.52,0,0,1-.19-.85s0,0,0-.06c-.05-.31-.09-.63-.11-1v0c0-.34,0-.69,0-1.06.12-6.21,4.53-13.63,9.89-16.65l.48-.26.16-.08.32-.15.19-.08.28-.12.19-.07.27-.09.2-.07.25-.07.2-.06.25,0,.2,0,.23,0Z" />
                    <path class="cls-25"
                        d="M137.41,54.93l.23,0,.2,0h.83l.22,0h.18l.21,0,.17,0,.21.05.16,0,.22.07.13,0,.24.1.1,0h0l.33.16.05,0h0l.08,0,.32.18.06,0,.3.18a7.9,7.9,0,0,1,.88.64l.08.06a9.46,9.46,0,0,1,1,1L144,58l.05.06c.12.13.26.28.39.44l.15.19h0l.1.12,0,0,.05.06c.13.18.38.51.66,1,.14.21.28.44.41.67l.11.21a1,1,0,0,1,0,.1h0a13.09,13.09,0,0,1,.83,2l0,.07c.06.19.12.38.17.57v0l0,.2c0,.15.08.34.12.56a1.06,1.06,0,0,1,0,.19c0,.21.08.46.11.72,0,0,0,0,0,.07v0a2.64,2.64,0,0,1,0,.29,1.23,1.23,0,0,1,0,.19c0,.1,0,.21,0,.32a1.21,1.21,0,0,1,0,.19c0,.16,0,.32,0,.49v.44c0,.26,0,.5,0,.72V68c0,.18,0,.37-.07.56v.1c0,.14,0,.24,0,.29v0c-.07.38-.14.74-.21,1v.06c0,.06,0,.11-.05.16-.06.25-.13.49-.2.7s-.13.38-.2.56a10.74,10.74,0,0,1-.49,1.13l-.12.25,0,.07a12.37,12.37,0,0,1-1,1.68l-.32.41,0,.06c-.13.17-.33.4-.58.68l-.26.28-.05,0-.08.08-.16.15a.3.3,0,0,1-.08.08l-.26.25-.06.06a.69.69,0,0,0-.13.11l-.16.14c-.2.17-.4.32-.59.47l0,0-.08,0h0c-.18.14-.4.29-.59.41-.38.25-.67.42-.77.47l-.17.09-.23.13c-.29.15-.64.31-1,.45l-.17.08a12.06,12.06,0,0,1-1.24.43,14.65,14.65,0,0,1-1.78.4L136,80h-.09l-.31,0-.16,0-.33,0a13.15,13.15,0,0,1-1.66,0l-.27,0-.35,0a10.25,10.25,0,0,1-1.72-.31l-.05,0-.17,0a9.14,9.14,0,0,1-1.33-.47l-.09,0a13.31,13.31,0,0,1-1.66-.87l-.1-.06-.31-.21,0,0-.23-.17,0,0a4.45,4.45,0,0,1-.47-.41l-.06-.06a4.69,4.69,0,0,1-.42-.47l0-.07a4.4,4.4,0,0,1-.37-.55l0-.07c-.11-.21-.21-.42-.31-.64,0,0,0,0,0-.07a5.21,5.21,0,0,1-.25-.73s0,0,0-.06a6.6,6.6,0,0,1-.17-.82.07.07,0,0,1,0,0,8.44,8.44,0,0,1-.1-.91v0c0-.33,0-.66,0-1,.13-5.89,4.31-12.92,9.39-15.79l.46-.25.15-.07.3-.15.18-.07.27-.12.18-.07.26-.09.19-.06.24-.07.19,0,.23-.05.19,0,.22,0Z" />
                    <path class="cls-26"
                        d="M137.76,55.87l.23,0,.19,0,.22,0H139l.21,0h.17l.2,0,.16,0,.21.05.14,0,.21.07.13,0,.23.1.09,0h0l.32.16,0,0h0l.08,0,.3.17.07,0,.28.17a7.08,7.08,0,0,1,.83.61l.07.06a7.17,7.17,0,0,1,1,.95l.32.37.05.06c.11.12.24.26.36.41l.15.19h0l.09.11,0,0,0,0c.12.17.35.48.62.91.13.2.26.41.38.64,0,.06.07.13.1.2a.56.56,0,0,0,.05.08h0a13.11,13.11,0,0,1,.79,1.9l0,.07q.08.26.15.54v0c0,.06,0,.12,0,.18l.11.53a1.16,1.16,0,0,1,0,.18c0,.2.07.44.1.69,0,0,0,0,0,.06v0l0,.28c0,.06,0,.12,0,.18s0,.2,0,.3v.18c0,.15,0,.31,0,.46v.43c0,.24,0,.47,0,.68v.06l-.06.53v.09a1.76,1.76,0,0,1,0,.28v0c-.06.36-.13.7-.2,1v0a1.55,1.55,0,0,1,0,.15c-.06.24-.13.47-.19.67l-.19.53c-.13.34-.28.71-.46,1.07l-.12.23,0,.07a11.56,11.56,0,0,1-1,1.59c-.07.1-.17.24-.29.39l0,.06c-.12.15-.31.38-.55.64l-.24.27,0,0a.3.3,0,0,0-.08.08l-.15.14-.08.08-.24.23-.07,0-.12.11-.15.13c-.19.16-.37.31-.55.44l0,0-.07.06h0c-.17.13-.38.27-.56.39-.36.24-.63.39-.72.45l-.16.08-.23.13c-.27.14-.6.29-.92.42l-.16.07a11.79,11.79,0,0,1-1.18.42,15.15,15.15,0,0,1-1.69.38l-.11,0h-.09l-.3,0h-.15l-.31,0a9.27,9.27,0,0,1-1.58,0l-.25,0-.34,0a8.19,8.19,0,0,1-1.62-.3h-.05l-.16,0a9.45,9.45,0,0,1-1.26-.45l-.08,0a12.73,12.73,0,0,1-1.58-.83l-.09-.06s-.12-.08-.29-.2l0,0-.22-.16,0,0a5.34,5.34,0,0,1-.44-.39l-.06-.06c-.14-.14-.27-.29-.4-.44a.18.18,0,0,0,0-.07c-.12-.16-.23-.34-.34-.52l0-.07c-.1-.19-.2-.39-.29-.6a.19.19,0,0,1,0-.07,5.44,5.44,0,0,1-.23-.68.64.64,0,0,0,0-.07c-.07-.24-.12-.5-.17-.77v-.05a7.51,7.51,0,0,1-.1-.86v0c0-.3,0-.62,0-.95.13-5.57,4.08-12.22,8.89-14.94l.43-.23.14-.07.29-.14.17-.07.25-.1.17-.07.24-.09.18,0,.23-.07.18,0,.22-.05.17,0,.22,0Z" />
                    <path class="cls-27"
                        d="M138.12,56.8l.22,0,.17,0h1.12l.19,0,.16,0,.19.05.14,0,.2.06.12,0,.22.09.09,0h0l.3.14,0,0h0l.07,0,.29.16.06,0,.27.17a8.79,8.79,0,0,1,.79.57l.06.06a7.53,7.53,0,0,1,.94.9l.31.36,0,0,.34.4.14.17h0a.76.76,0,0,1,.08.11l0,0,0,.06a9.58,9.58,0,0,1,.59.85c.12.19.24.39.35.6l.1.19a.59.59,0,0,0,0,.08h0a12.09,12.09,0,0,1,.73,1.79l0,.06c0,.17.1.34.14.51v0c0,.06,0,.12.05.17s.07.31.1.51l0,.16c0,.2.07.42.1.65,0,0,0,0,0,.06v0l0,.26c0,.06,0,.12,0,.17s0,.19,0,.29a1,1,0,0,0,0,.17v.83c0,.23,0,.45,0,.64v.06L147,69v.09c0,.12,0,.22,0,.26v0c-.06.33-.13.65-.19.9v0a1,1,0,0,0,0,.14c-.06.23-.12.44-.19.63s-.12.34-.17.5c-.13.32-.27.67-.44,1a1.51,1.51,0,0,0-.11.22l0,.06a10.92,10.92,0,0,1-.92,1.5l-.28.37,0,0c-.12.15-.29.36-.52.61l-.23.25,0,0-.08.07a.93.93,0,0,1-.14.14.46.46,0,0,1-.07.07l-.23.22-.06.05-.11.1-.15.13c-.17.15-.35.28-.52.41l0,0-.07,0h0l-.52.36c-.34.23-.6.37-.69.42l-.15.08-.21.12c-.25.14-.57.28-.87.41l-.15.06a10.41,10.41,0,0,1-1.11.39,12.41,12.41,0,0,1-1.6.37l-.11,0h-.08l-.28,0-.14,0-.3,0a10.73,10.73,0,0,1-1.5,0l-.24,0-.31,0a7.76,7.76,0,0,1-1.53-.29h0l-.15,0a8,8,0,0,1-1.19-.42l-.08,0a11.75,11.75,0,0,1-1.48-.8l-.09-.05-.27-.19,0,0-.21-.15,0,0a3.7,3.7,0,0,1-.42-.38l-.06,0a5,5,0,0,1-.37-.42l0-.06a4.13,4.13,0,0,1-.32-.49.25.25,0,0,1,0-.07,4.83,4.83,0,0,1-.27-.56.25.25,0,0,1,0-.07,6,6,0,0,1-.22-.64s0,0,0-.06a5.93,5.93,0,0,1-.16-.73v0c0-.26-.07-.52-.09-.8v0c0-.29,0-.59,0-.9.13-5.25,3.85-11.51,8.38-14.08l.41-.22.13-.07.27-.12.16-.07.24-.1.16-.07.23-.08.17,0,.21-.07.17,0,.21-.05.16,0,.2,0Z" />
                    <path class="cls-28"
                        d="M138.48,57.74l.2,0,.17,0,.2,0h.86l.19,0,.14,0,.18,0,.14,0,.18.06.12,0,.21.08.08,0h0l.28.14,0,0h0l.07,0,.27.15.06,0,.25.16a6.81,6.81,0,0,1,.75.54l.06.06a7.42,7.42,0,0,1,.89.86c.08.11.18.22.28.34l0,.05.32.37.13.17h0l.08.1v0l0,.05c.11.15.31.43.55.8.11.18.23.37.33.57l.09.18,0,.07h0a9.78,9.78,0,0,1,.68,1.68l0,.06c.05.16.09.32.13.48v0a.75.75,0,0,1,0,.16c0,.13.07.29.1.47l0,.16c0,.18.06.38.09.61a.11.11,0,0,0,0,0v0a2,2,0,0,1,0,.25s0,.1,0,.16,0,.17,0,.26,0,.11,0,.16v.78c0,.22,0,.42,0,.61v0l-.06.47v.08c0,.12,0,.21,0,.24v0c-.05.32-.12.62-.18.85v0l0,.13c-.06.21-.12.41-.18.59s-.11.32-.17.47a9.4,9.4,0,0,1-.41.95c0,.07-.07.13-.1.2l0,.06a10.93,10.93,0,0,1-.86,1.41l-.27.35,0,0-.48.57-.22.23,0,0-.07.07-.13.13-.07.06-.22.21-.05,0-.11.09-.13.12-.49.39,0,0-.06,0h0c-.15.12-.33.24-.49.35-.32.21-.56.34-.65.39l-.14.08-.2.11a7.72,7.72,0,0,1-.81.38l-.14.06c-.31.13-.72.27-1,.37a11.93,11.93,0,0,1-1.51.34l-.1,0h-.08l-.27,0h-.13l-.28,0a9.49,9.49,0,0,1-1.41,0l-.23,0-.3,0a8.83,8.83,0,0,1-1.44-.27h0l-.15,0a7.4,7.4,0,0,1-1.11-.41l-.08,0a9.71,9.71,0,0,1-1.38-.76l-.09,0a1.78,1.78,0,0,0-.25-.18l0,0-.19-.14,0,0a4.27,4.27,0,0,1-.38-.36l-.06,0a4.32,4.32,0,0,1-.34-.39l-.05-.06-.3-.46,0-.06a4.45,4.45,0,0,1-.25-.54.14.14,0,0,1,0-.06,3.84,3.84,0,0,1-.2-.6s0,0,0-.06a6.8,6.8,0,0,1-.14-.68v0c0-.25-.06-.5-.08-.76v0c0-.27,0-.55,0-.84a17.29,17.29,0,0,1,7.88-13.23l.39-.2.12-.06c.09,0,.17-.09.26-.12l.15-.07.22-.09.15-.06.21-.08.16-.05.2-.06.16,0,.2-.05.15,0,.19,0Z" />
                    <path class="cls-29"
                        d="M138.83,58.67l.2,0,.16,0,.19,0h.81l.18,0,.13,0,.18,0,.12,0,.18,0,.11,0,.19.08.09,0h0l.27.13,0,0h0l.07,0,.25.15.06,0,.24.15a7,7,0,0,1,.7.51l.06.06a6.46,6.46,0,0,1,.83.82l.26.32,0,.05.29.35a1.58,1.58,0,0,1,.12.15h0l.08.09v0l0,0c.1.14.29.4.51.76a5.27,5.27,0,0,1,.3.53,1.14,1.14,0,0,1,.09.16l0,.07h0a10.06,10.06,0,0,1,.63,1.57l0,.06q.06.21.12.45h0a.83.83,0,0,1,0,.15c0,.12.06.27.09.44l0,.15c0,.17,0,.36.08.57a.09.09,0,0,0,0,0v0c0,.07,0,.15,0,.23s0,.1,0,.15a1.93,1.93,0,0,1,0,.24.92.92,0,0,1,0,.16v.73c0,.2,0,.39,0,.56v0c0,.14,0,.29-.06.44v.08c0,.11,0,.19,0,.22v0c0,.29-.12.57-.17.79v.05a.56.56,0,0,1,0,.12,5.26,5.26,0,0,1-.16.55l-.16.44a8.21,8.21,0,0,1-.39.88l-.09.2,0,0a9.1,9.1,0,0,1-.81,1.32l-.25.32,0,0c-.1.13-.26.32-.46.54l-.2.21,0,0-.06.06a.71.71,0,0,1-.13.12l-.06.07-.2.19-.06,0-.09.09L143,76c-.16.14-.31.26-.46.37l0,0-.06,0h0l-.46.32-.6.37-.13.07-.19.1a7.74,7.74,0,0,1-.76.36l-.13.06a12,12,0,0,1-2.39.67l-.1,0h-.07l-.25,0-.13,0-.26,0a8.45,8.45,0,0,1-1.33,0l-.21,0-.28,0a7.46,7.46,0,0,1-1.35-.26h0l-.14,0a7,7,0,0,1-1.05-.38l-.06,0a10.24,10.24,0,0,1-1.3-.72l-.08-.05-.23-.17,0,0-.18-.14,0,0c-.13-.11-.24-.22-.36-.34l0-.05a2.94,2.94,0,0,1-.32-.37l0-.05c-.1-.14-.19-.28-.28-.43l0-.06c-.08-.16-.16-.32-.23-.5a.14.14,0,0,1,0-.06,4.6,4.6,0,0,1-.19-.56.43.43,0,0,0,0,0c-.06-.21-.1-.42-.14-.64v0c0-.23-.06-.46-.08-.71v0c0-.25,0-.51,0-.78a16.2,16.2,0,0,1,7.38-12.37l.36-.19.11-.06.24-.11.14-.06.21-.09.14-.06.2-.07.15-.05.19-.06.14,0,.19,0,.14,0,.18,0Z" />
                    <path class="cls-30"
                        d="M139.19,59.61l.18,0,.15,0,.18,0h.77l.17,0,.12,0,.17,0,.12,0,.16,0,.11,0,.18.07.08,0h0l.26.12,0,0h0l.06,0,.24.14.05,0,.23.14a5.26,5.26,0,0,1,.65.49l.06.05a5.07,5.07,0,0,1,.77.77c.08.1.16.2.24.32l0,0,.27.32.11.14h0l.07.09v0l0,.05c.09.13.26.37.47.7.09.15.19.32.28.49s0,.1.07.16l0,.06h0a9.79,9.79,0,0,1,.58,1.47v0c0,.14.08.28.11.42h0l0,.15.08.41,0,.13c0,.16.05.34.07.53v.08c0,.07,0,.14,0,.21a.66.66,0,0,1,0,.14c0,.07,0,.15,0,.23v.82c0,.19,0,.36,0,.52v0c0,.13,0,.27-.05.41v.07c0,.1,0,.18,0,.21v0a7.13,7.13,0,0,1-.16.74v0c0,.05,0,.08,0,.12s-.1.36-.15.51-.1.28-.15.41-.22.54-.36.82a1.62,1.62,0,0,1-.1.18l0,.06a11.39,11.39,0,0,1-.76,1.22l-.23.3,0,0c-.09.12-.24.29-.42.49l-.19.21,0,0-.06.06-.11.11-.06.06-.19.18-.05,0-.09.08-.12.11-.43.34h0l-.06.05h0l-.43.3c-.27.18-.48.3-.56.35l-.12.06-.17.1c-.21.11-.46.23-.71.33l-.12.06c-.27.11-.63.24-.91.32a9.61,9.61,0,0,1-1.32.31l-.09,0h-.07l-.24,0h-.12l-.24,0a7.34,7.34,0,0,1-1.24,0l-.2,0-.27,0a6.84,6.84,0,0,1-1.26-.25h0l-.12,0a6.76,6.76,0,0,1-1-.36l-.06,0a7.77,7.77,0,0,1-1.2-.69l-.08,0a2.13,2.13,0,0,0-.21-.16l0,0-.16-.13,0,0c-.12-.1-.23-.21-.34-.32l0-.05c-.1-.1-.2-.22-.3-.34l0-.05c-.09-.13-.18-.26-.26-.4l0-.06a3.22,3.22,0,0,1-.21-.46.17.17,0,0,1,0-.05,3.27,3.27,0,0,1-.17-.53l0,0c0-.19-.09-.38-.12-.59v0a4.6,4.6,0,0,1-.07-.66v0a5.9,5.9,0,0,1,0-.73,15.1,15.1,0,0,1,6.87-11.51,2.79,2.79,0,0,1,.34-.18l.11-.06.21-.1.13-.06.2-.08.13-.05.19-.07.13,0,.18,0,.14,0,.16,0,.14,0,.16,0Z" />
                    <path class="cls-31"
                        d="M139.54,60.55l.18,0,.14,0,.17,0h.72l.16,0H141l.15,0,.11,0,.16,0,.1,0,.17.06.07,0h0l.24.12h.05l.06,0,.22.12,0,0,.21.13a5.52,5.52,0,0,1,.62.46l.05,0a5.31,5.31,0,0,1,.71.74l.23.3,0,0,.25.3a1.47,1.47,0,0,1,.1.13h0l.06.08v0l0,0c.08.12.24.35.42.65a5,5,0,0,1,.26.46l.07.14,0,.06h0A8.78,8.78,0,0,1,146,66v0c0,.13.07.25.1.39h0l0,.13c0,.1,0,.23.07.38a.51.51,0,0,1,0,.13c0,.14.05.31.07.49v.07a1.23,1.23,0,0,1,0,.19s0,.09,0,.13,0,.14,0,.21v.13c0,.11,0,.22,0,.33v.3c0,.18,0,.34,0,.49v0c0,.12,0,.25,0,.38v.07c0,.09,0,.16,0,.19v0c-.05.25-.1.49-.15.68v0l0,.11a4.35,4.35,0,0,1-.15.47l-.13.38c-.1.24-.21.5-.34.76l-.09.17,0,0a9.62,9.62,0,0,1-.71,1.13l-.21.28,0,0-.4.46-.17.19,0,0-.06.06-.1.1-.06.05-.18.17,0,0-.09.07-.1.1-.4.32h0l0,0h0l-.39.27c-.26.17-.45.28-.52.32l-.12.07-.16.08a6.58,6.58,0,0,1-.65.31l-.12.06c-.24.1-.57.22-.84.3a10.06,10.06,0,0,1-1.22.29l-.09,0h-.06l-.22,0h-.11l-.23,0a7.51,7.51,0,0,1-1.16,0l-.19,0-.24,0a6.36,6.36,0,0,1-1.17-.23h0l-.11,0a4.73,4.73,0,0,1-.91-.34l-.06,0a7.08,7.08,0,0,1-1.11-.64l-.06,0-.21-.15,0,0-.15-.12,0,0-.31-.31,0,0a2.61,2.61,0,0,1-.27-.31l0-.05c-.08-.12-.16-.24-.23-.37l0,0c-.07-.14-.14-.28-.2-.43v0c-.06-.16-.11-.32-.16-.49v0c0-.18-.08-.36-.11-.55v0c0-.19-.05-.39-.06-.61v0c0-.22,0-.44,0-.68a14.05,14.05,0,0,1,6.38-10.65l.31-.16.1,0,.2-.1.12-.05.18-.08.12,0,.17-.06.13,0,.16,0,.13,0,.15,0,.13,0,.15,0Z" />
                    <path class="cls-32"
                        d="M139.9,61.48l.16,0,.14,0,.16,0h.82l.11,0,.15,0,.1,0,.15,0,.09,0,.16.06.07,0h0l.22.1,0,0h0l.05,0,.21.11,0,0,.2.12a4.73,4.73,0,0,1,.57.43l0,0a4.53,4.53,0,0,1,.65.7,3.4,3.4,0,0,1,.21.28l0,0c.06.09.15.18.22.28l.1.12h0a.35.35,0,0,1,0,.08h0l0,0c.08.12.22.32.39.6a4.16,4.16,0,0,1,.23.42l.07.13,0,.06h0a8.32,8.32,0,0,1,.47,1.26v0a2,2,0,0,1,.09.35h0s0,.08,0,.12.05.22.07.35,0,.08,0,.12,0,.29.06.45V68c0,.06,0,.12,0,.18v.12a1.34,1.34,0,0,1,0,.2v.12a1.5,1.5,0,0,1,0,.3v.28c0,.16,0,.31,0,.44v0c0,.11,0,.23,0,.35v.06a1.06,1.06,0,0,1,0,.18v0c-.05.24-.1.46-.15.63v0l0,.1c-.05.15-.09.3-.14.43s-.08.24-.13.35a5.19,5.19,0,0,1-.31.7,1.09,1.09,0,0,1-.08.15l0,0a10,10,0,0,1-.65,1l-.2.26,0,0a4.52,4.52,0,0,1-.36.43l-.16.17,0,0,0,.05a.94.94,0,0,0-.1.1l0,0-.16.15,0,0a.27.27,0,0,0-.08.07.39.39,0,0,0-.1.08l-.37.3h0l-.05,0h0l-.36.26-.48.29-.1.06-.15.08c-.18.1-.39.19-.6.29l-.11,0a7.08,7.08,0,0,1-.77.28,9.06,9.06,0,0,1-1.14.28l-.07,0h-.07a1.2,1.2,0,0,1-.2,0l-.1,0-.21,0a6.49,6.49,0,0,1-1.08,0h-.17l-.22,0a5.37,5.37,0,0,1-1.09-.21h0l-.11,0a4.91,4.91,0,0,1-.83-.32l0,0a6,6,0,0,1-1-.6l-.06,0-.19-.14,0,0-.13-.11,0,0a2.47,2.47,0,0,1-.28-.28l0,0a2.37,2.37,0,0,1-.25-.29l0,0a2.39,2.39,0,0,1-.21-.34l0,0-.18-.39v-.05a3,3,0,0,1-.14-.45v0a4,4,0,0,1-.1-.5v0c0-.18,0-.37-.05-.56v0c0-.2,0-.41,0-.63a13,13,0,0,1,5.87-9.79l.28-.15.1,0,.18-.09.11,0,.17-.07.11,0,.16-.06.12,0,.14-.05.12,0,.14,0,.12,0,.14,0Z" />
                    <path class="cls-33"
                        d="M140.26,62.42l.15,0,.13,0,.14,0h.87l.14,0,.1,0,.13,0,.09,0,.15.06.06,0h0l.21.1h0l.05,0,.19.1,0,0,.19.11a4,4,0,0,1,.52.4l.05,0a4.34,4.34,0,0,1,.6.65l.18.27,0,0,.2.26a.44.44,0,0,1,.08.11h0l.06.07h0l0,0c.07.1.2.29.35.54s.14.25.21.39l.06.12,0,.05h0a6.93,6.93,0,0,1,.43,1.15v0c0,.11.05.22.08.33h0s0,.07,0,.11,0,.19.06.32,0,.07,0,.1,0,.26,0,.41v.06a.91.91,0,0,1,0,.17s0,.07,0,.1v.18a.45.45,0,0,1,0,.11,2.72,2.72,0,0,1,0,.28v.25c0,.15,0,.28,0,.41v0c0,.1,0,.21-.05.32v.06a.69.69,0,0,0,0,.16v0c0,.21-.09.41-.13.57v0a.29.29,0,0,0,0,.09c-.05.14-.09.27-.13.39l-.12.32c-.08.2-.17.42-.28.64l-.08.14,0,0a7.65,7.65,0,0,1-.6,1l-.18.24,0,0-.33.39-.15.16,0,0-.05,0-.08.09,0,0-.15.14,0,0-.07.07-.09.08-.33.26,0,0,0,0h0a4,4,0,0,1-.33.24l-.43.27-.1,0-.13.08c-.16.09-.36.17-.55.26l-.1,0c-.21.09-.48.19-.7.26a8.47,8.47,0,0,1-1.05.26h-.13l-.18,0h-.1l-.2,0a5.37,5.37,0,0,1-1,0l-.16,0-.21,0a5.27,5.27,0,0,1-1-.2h0l-.1,0a5,5,0,0,1-.76-.3l0,0a6.52,6.52,0,0,1-.93-.56s0,0,0,0a1.29,1.29,0,0,0-.17-.14l0,0a.69.69,0,0,1-.13-.11l0,0a3.07,3.07,0,0,1-.25-.26l0,0-.22-.26,0,0c-.06-.1-.13-.2-.19-.32l0,0a3,3,0,0,1-.16-.36v0c0-.13-.09-.26-.13-.4v0l-.09-.46v0c0-.17,0-.34-.05-.51v0a5.42,5.42,0,0,1,0-.57,11.87,11.87,0,0,1,5.37-8.93l.25-.14.09-.05.17-.08.1,0,.15-.07.1,0,.14,0,.11,0,.14,0,.1,0,.13,0,.11,0,.12,0Z" />
                    <path class="cls-34"
                        d="M140.61,63.35l.15,0,.11,0,.14,0h.81l.12,0,.09,0,.13,0,.08,0,.13,0,.06,0h0l.19.08,0,0h0l.05,0,.18.1,0,0,.16.1a3.59,3.59,0,0,1,.48.37l0,0a3,3,0,0,1,.55.61,2.72,2.72,0,0,1,.16.25l0,0,.18.23.07.1h0l0,.06v0l0,0c.06.09.18.27.31.49s.13.23.18.35l0,.11,0,0h0a8.27,8.27,0,0,1,.37,1v0c0,.1.05.19.07.29h0s0,.07,0,.1,0,.18.05.29,0,.06,0,.1a3.5,3.5,0,0,1,0,.37v0s0,.1,0,.15v.1a.81.81,0,0,1,0,.16v.1a2.18,2.18,0,0,1,0,.25v.22c0,.13,0,.26,0,.37v0c0,.09,0,.19,0,.29h0v0a1,1,0,0,1,0,.15v0c0,.19-.09.37-.13.51v0l0,.09a2.89,2.89,0,0,1-.11.35c0,.09-.07.2-.11.29s-.16.38-.26.58l-.07.12,0,0a7,7,0,0,1-.54.86l-.16.21,0,0c-.07.09-.17.21-.3.35l-.13.15,0,0,0,0a.6.6,0,0,1-.08.08l0,0-.13.13,0,0-.06.06-.09.07L143,75h0l0,0h0a3.21,3.21,0,0,1-.3.21l-.39.25-.09,0-.12.07c-.14.08-.32.16-.49.24l-.09,0-.64.24a9.32,9.32,0,0,1-.95.24h-.12l-.17,0h-.09l-.18,0a5.42,5.42,0,0,1-.9,0h-.14l-.19,0a4.31,4.31,0,0,1-.91-.18h0l-.09,0a3.44,3.44,0,0,1-.69-.28l-.05,0a5,5,0,0,1-.83-.53l-.05,0s-.07-.06-.15-.13l0,0-.12-.1v0c-.08-.07-.15-.16-.23-.24l0,0a2.35,2.35,0,0,1-.19-.25l0,0a2.75,2.75,0,0,1-.17-.29l0,0a3.27,3.27,0,0,1-.14-.33v0a2.15,2.15,0,0,1-.11-.36v0c0-.13-.06-.27-.08-.41v0a3.42,3.42,0,0,1,0-.46v0a4.34,4.34,0,0,1,0-.51A10.81,10.81,0,0,1,139,64l.23-.12.08,0,.15-.08.09,0,.14-.06.09,0,.13,0,.1,0,.12,0,.09,0,.12,0,.1,0,.11,0Z" />
                    <path class="cls-35"
                        d="M141,64.29l.13,0,.11,0,.13,0h.1l.12,0h.52l.11,0,.09,0,.11,0,.08,0,.12,0,.06,0h0l.17.08h.05l0,0,.16.09,0,0,.15.09a4.7,4.7,0,0,1,.44.34l0,0a3,3,0,0,1,.49.56l.15.24,0,0,.16.2a.35.35,0,0,0,.06.09h0l0,0h0l0,0c0,.09.15.24.27.45s.11.2.16.31l0,.1,0,0h0a5.92,5.92,0,0,1,.32.93v0l.06.26h0a.19.19,0,0,0,0,.08c0,.08,0,.16,0,.26s0,.06,0,.09,0,.21,0,.33v.18a.28.28,0,0,1,0,.09v.23a1.62,1.62,0,0,1,0,.22V70a.34.34,0,0,1,0,.1,3.16,3.16,0,0,1,0,.32v0a2.34,2.34,0,0,1,0,.26h0v0a1.05,1.05,0,0,0,0,.13v0a3.48,3.48,0,0,1-.11.46v0a.14.14,0,0,1,0,.07c0,.12-.07.23-.1.32l-.1.26c-.07.16-.15.34-.24.52l-.06.11,0,0a5.93,5.93,0,0,1-.48.77l-.15.19,0,0L144,74l-.12.13,0,0,0,0a.46.46,0,0,0-.07.07l0,0-.12.11,0,0-.06,0-.07.06-.27.22h0l0,0h0l-.27.19a2.87,2.87,0,0,1-.36.22l-.07.05-.11.06-.44.21-.08,0-.57.21a8,8,0,0,1-.86.23h-.11l-.16,0H140l-.17,0a4.41,4.41,0,0,1-.81,0h-.14l-.17,0a4,4,0,0,1-.81-.17h0l-.08,0a3.61,3.61,0,0,1-.61-.26l0,0a4.42,4.42,0,0,1-.75-.49l0,0s-.06-.06-.13-.12l0,0-.1-.09,0,0a2.11,2.11,0,0,1-.19-.23l0,0a1.84,1.84,0,0,1-.17-.22l0,0a1.35,1.35,0,0,1-.15-.26l0,0-.12-.29v0c0-.11-.07-.22-.1-.33v0c0-.12-.05-.24-.06-.37v0l0-.41h0v-.46a9.74,9.74,0,0,1,4.36-7.22l.21-.11.07,0,.14-.07.08,0,.12-.06.08,0,.12-.05.08,0,.11,0,.09,0,.1,0,.09,0,.1,0Z" />
                    <path class="cls-36"
                        d="M141.33,65.22l.12,0,.1,0,.11,0,.1,0h.69l.07,0,.11,0,.06,0,.12,0h.05l.16.06h0l0,0,.15.08,0,0,.14.08a3,3,0,0,1,.39.31l0,0a2.47,2.47,0,0,1,.43.52c0,.07.09.14.13.22l0,0s.09.11.13.18l.06.08h0l0,0h0v0a3.08,3.08,0,0,1,.23.39c.05.09.1.18.14.27l0,.09v0h0a4.93,4.93,0,0,1,.27.82v0c0,.08,0,.15,0,.23h0s0,0,0,.08,0,.14,0,.23a.17.17,0,0,0,0,.07,2.64,2.64,0,0,1,0,.29V70a1.34,1.34,0,0,1,0,.2v.1a.22.22,0,0,1,0,.08,2.58,2.58,0,0,1,0,.29v0a1.85,1.85,0,0,1,0,.23h0v0a.68.68,0,0,1,0,.12v0c0,.15-.07.29-.11.41v0a.14.14,0,0,0,0,.06,1.83,1.83,0,0,1-.1.28,2.09,2.09,0,0,1-.08.23c-.07.14-.13.3-.22.45l0,.1,0,0a4.54,4.54,0,0,1-.43.68s-.08.1-.13.17l0,0a2.28,2.28,0,0,1-.24.28l-.1.11,0,0,0,0-.06.06,0,0-.11.1,0,0-.06,0-.06.06-.24.19h0l0,0h0l-.24.17-.31.19-.07,0-.1,0c-.11.07-.25.13-.39.2l-.06,0c-.15.07-.35.13-.5.19a7.54,7.54,0,0,1-.77.21h-.1l-.14,0h-.07l-.15,0a6,6,0,0,1-.73,0h-.12l-.15,0a3.31,3.31,0,0,1-.73-.16h0l-.07,0a2.91,2.91,0,0,1-.55-.23l0,0a4.33,4.33,0,0,1-.65-.45l0,0s-.05,0-.11-.11l0,0-.09-.08v0c-.06-.06-.11-.14-.17-.21l0,0-.15-.2,0,0a1.67,1.67,0,0,1-.12-.23l0,0a1.86,1.86,0,0,1-.1-.25v0a2.45,2.45,0,0,1-.08-.29v0l-.06-.32v0c0-.12,0-.24,0-.37h0c0-.13,0-.26,0-.4A8.65,8.65,0,0,1,140,65.73l.18-.11.06,0,.12-.06.07,0,.11,0,.07,0,.1,0,.08,0,.09,0,.08,0,.09,0,.07,0,.09,0Z" />
                    <path class="cls-37"
                        d="M141.68,66.16l.11,0,.09,0,.11,0h.08l.11,0h.43l.09,0h.07l.09,0h.06l.11,0,0,0h0l.14.06h0l0,0,.13.07,0,0,.12.07a2.45,2.45,0,0,1,.35.29l0,0a2.05,2.05,0,0,1,.38.48c0,.06.07.13.1.2s0,0,0,0l.11.16,0,.07h0l0,0h0v0l.19.34a2.56,2.56,0,0,1,.11.24l0,.07,0,0h0a5,5,0,0,1,.22.71v0a1.18,1.18,0,0,1,0,.2h0s0,0,0,.06,0,.12,0,.2v.06a2.11,2.11,0,0,1,0,.26v0h0s0,.07,0,.11v.24a1,1,0,0,1,0,.17v.08a.15.15,0,0,1,0,.07c0,.09,0,.18,0,.25v0a1.42,1.42,0,0,1,0,.2h0v0l0,.1v0c0,.13-.06.26-.09.36v.07q0,.14-.09.24a1.67,1.67,0,0,1-.08.2,3.39,3.39,0,0,1-.18.39l-.05.09v0a6.18,6.18,0,0,1-.38.59l-.12.15v0l-.21.24-.09.1h0l0,0,0,.06,0,0-.09.09,0,0,0,0-.06,0-.2.17h0l0,0h0l-.21.15-.27.17-.06,0-.08.05-.34.17-.06,0a2.73,2.73,0,0,1-.43.16,4.53,4.53,0,0,1-.67.19l0,0h0l-.13,0h-.06l-.13,0a2.83,2.83,0,0,1-.65,0h-.23a2.82,2.82,0,0,1-.64-.14h0l-.06,0a2.09,2.09,0,0,1-.48-.22h0a2.74,2.74,0,0,1-.55-.42l0,0s0-.05-.09-.1l0,0-.07-.07v0l-.14-.19,0,0a1.09,1.09,0,0,1-.13-.17v0l-.11-.2v0l-.09-.22v0a1.82,1.82,0,0,1-.07-.25v0a2.74,2.74,0,0,1-.05-.28v0c0-.1,0-.21,0-.31h0c0-.12,0-.23,0-.35a7.56,7.56,0,0,1,3.35-5.51l.16-.09.05,0,.11-.06.06,0,.09,0,.06,0,.09,0,.06,0,.09,0,.06,0,.08,0,.06,0,.08,0Z" />
                    <path class="cls-38"
                        d="M142,67.09l.1,0,.08,0,.09,0,.08,0h.76l.1,0h0l.13,0h.06l.12.06,0,0,.11.07a2.42,2.42,0,0,1,.31.25l0,0a1.82,1.82,0,0,1,.32.44,1.08,1.08,0,0,1,.08.19l0,0a1.1,1.1,0,0,0,.09.14l0,.06h0s0,0,0,0h0v0c0,.06.09.16.15.29l.09.2,0,.07v0h0a3.05,3.05,0,0,1,.17.6v0l0,.16h0v.06a1.15,1.15,0,0,0,0,.16v.06a1.41,1.41,0,0,1,0,.21v0h0v.29a.76.76,0,0,0,0,.15v.07s0,0,0,.06l0,.21v0l0,.16h0v0s0,.07,0,.08v0q0,.17-.09.3h0l0,0a1.72,1.72,0,0,1-.07.21l-.07.16c-.05.11-.1.22-.16.33l0,.07v0a5.28,5.28,0,0,1-.33.49.94.94,0,0,1-.09.12l0,0a2.25,2.25,0,0,1-.17.21.3.3,0,0,0-.08.08h0l0,0-.05,0,0,0-.08.07,0,0,0,0,0,0-.17.14h0l0,0h0l-.18.13-.22.15,0,0-.07,0-.29.14,0,0a2.75,2.75,0,0,1-.36.15,3.8,3.8,0,0,1-.59.17h-.07l-.11,0h0l-.12,0a3.54,3.54,0,0,1-.56,0h-.21a2.91,2.91,0,0,1-.55-.13h-.06a2,2,0,0,1-.41-.2l0,0a2.26,2.26,0,0,1-.47-.37l0,0s0,0-.08-.09v0l-.06-.07h0s-.07-.11-.11-.17l0,0-.09-.14,0,0-.08-.17v0c0-.06,0-.12-.07-.19v0a1.6,1.6,0,0,1,0-.21v0l0-.23v0a2.11,2.11,0,0,1,0-.26h0c0-.1,0-.19,0-.29a6.52,6.52,0,0,1,2.86-4.65l.13-.08,0,0,.09,0,0,0,.08,0,.05,0,.07,0,.06,0,.07,0,.05,0,.07,0,0,0H142Z" />
                    <path class="cls-39"
                        d="M142.4,68l.08,0,.08,0,.08,0h.07l.08,0h.59l.09,0h0l.11,0h.06l.1.06h0l.1.06a1.78,1.78,0,0,1,.26.22l0,0a1.61,1.61,0,0,1,.26.4s0,.11.07.17a0,0,0,0,0,0,0,.6.6,0,0,0,.06.11l0,0h0l0,0h0a2.15,2.15,0,0,0,.11.24l.06.17,0,.05v0h0a4.53,4.53,0,0,1,.11.49h0a.68.68,0,0,1,0,.14h0v.05a.71.71,0,0,0,0,.14v.22h0V71a.41.41,0,0,0,0,.11v.11l0,.17v0l0,.13h0a.56.56,0,0,1,0,.07v0c0,.08,0,.17-.07.24h0l0,0-.06.17-.06.13c0,.09-.09.18-.14.27l0,.06v0c-.08.12-.15.24-.27.4l-.08.1v0l-.15.16-.06.07h0l0,0,0,0,0,0-.07.06v0l0,0,0,0-.15.12h0l0,0h0l-.14.1-.19.12,0,0-.06,0-.23.12,0,0-.29.13a5,5,0,0,1-.5.15h-.06l-.1,0h-.14a2.57,2.57,0,0,1-.48,0h-.07l-.1,0a1.47,1.47,0,0,1-.46-.11h0l0,0a2.06,2.06,0,0,1-.33-.17l0,0a1.71,1.71,0,0,1-.37-.33l0,0a.23.23,0,0,0-.07-.08v0l0-.06h0c0-.05-.05-.1-.09-.16h0l-.07-.12v0l-.06-.13v0s0-.1-.05-.15v0a.85.85,0,0,1,0-.17h0a1.23,1.23,0,0,1,0-.19v-.23h0a1.85,1.85,0,0,1,0-.23,5.44,5.44,0,0,1,2.35-3.79l.11-.07,0,0,.08,0,0,0,.06,0,0,0,.06,0,0,0,.06,0h0l.06,0h0l0,0Z" />
                    <path class="cls-40"
                        d="M142.75,69l.08,0,.06,0,.08,0,.06,0,.07,0h.62l.09,0h.05l.08,0h0l.08,0a1,1,0,0,1,.22.19l0,0a1.07,1.07,0,0,1,.2.36,1.31,1.31,0,0,1,.05.15v0l.05.09,0,0h0v0h0v0a1.57,1.57,0,0,0,.07.18s0,.09,0,.14v0h0a2.28,2.28,0,0,1,.06.39h0v.11h0v0s0,.07,0,.11v0a.66.66,0,0,0,0,.14h0v.18s0,.06,0,.09v.08l0,.14h0l0,.1h0s0,0,0,0h0a1.07,1.07,0,0,1-.07.19h0v0a.69.69,0,0,0,0,.13.47.47,0,0,0-.05.1l-.11.21,0,0v0a2.28,2.28,0,0,1-.22.31l-.06.08h0l-.11.13,0,0h0l0,0,0,0h0l-.05,0h0l0,0,0,0-.11.1h0l-.11.08a1.26,1.26,0,0,1-.15.1l0,0,0,0-.18.09,0,0-.23.1-.4.14h-.17l-.08,0a1.79,1.79,0,0,1-.4,0h-.14a1.66,1.66,0,0,1-.37-.09h0a1.13,1.13,0,0,1-.26-.16h0a1.9,1.9,0,0,1-.28-.29v0l0-.07v0a.1.1,0,0,1,0,0h0l-.06-.14h0l0-.09v0a.3.3,0,0,1,0-.1h0l0-.12h0a.68.68,0,0,1,0-.14h0s0-.09,0-.14h0v-.17h0c0-.06,0-.12,0-.18a4.38,4.38,0,0,1,1.85-2.94l.08,0h0l.05,0,0,0,0,0,0,0,.05,0h0l0,0,0,0h.14Z" />
                    <path class="cls-41"
                        d="M143.11,69.9l.07,0,0,0,.06,0h.06l.06,0h.05l0,0h.42l.08,0h0l.07,0h0l.07,0a.65.65,0,0,1,.17.16l0,0a1.09,1.09,0,0,1,.14.31l0,.14v0l0,.06v0h0v0h0l0,.14s0,.06,0,.09v0h0c0,.09,0,.18,0,.28h0a.19.19,0,0,1,0,.08h0v.13s0,.06,0,.09h0v.25l0,.09h0a.19.19,0,0,0,0,.07h0v0h0a.69.69,0,0,1-.05.13h0v0l-.05.09a.25.25,0,0,1,0,.07,1.09,1.09,0,0,1-.08.15l0,0h0a2.39,2.39,0,0,1-.16.22l-.05.06h0a.76.76,0,0,0-.09.09l0,0h0v0l0,0h0l0,0h0l0,0,0,0-.08.06h0l-.08.06-.1.07h0l0,0-.13.08h0l-.16.08a2.85,2.85,0,0,1-.31.12h0l-.07,0h-.09a1.13,1.13,0,0,1-.31,0h-.11a.9.9,0,0,1-.28-.08h0l0,0a.64.64,0,0,1-.19-.13h0a.83.83,0,0,1-.19-.26h0l0-.07h0a.17.17,0,0,1,0,0h0s0-.08,0-.12h0a.14.14,0,0,1,0-.07h0a.25.25,0,0,0,0-.07h0s0,0,0-.08h0a.28.28,0,0,1,0-.09h0v-.1h0a.37.37,0,0,1,0-.11h0s0-.08,0-.13a3.42,3.42,0,0,1,1.35-2.07l.06,0h0l0,0h0l0,0,0,0H143l0,0h.12Z" />
                    <ellipse class="cls-42" cx="143.47" cy="71.97" rx="1.5" ry="0.85"
                        transform="translate(-0.29 143.36) rotate(-53.05)" />
                </g>
       
            </g>
        </g>
    </g>
</svg>