<svg xmlns="http://www.w3.org/2000/svg" xmlns:xlink="http://www.w3.org/1999/xlink" viewBox="0 0 105.16 150">
    <defs>
        <style>
            .cls-1 {
                fill: url(#未命名的渐变_1600);
            }

            .cls-2 {
                fill: #b3b8c2;
            }

            .cls-3 {
                fill: url(#未命名的渐变_1589);
            }

            .cls-4 {
                opacity: 0.2;
            }
        </style>
        <linearGradient id="未命名的渐变_1600" x1="-11.21" y1="138.79" x2="116.37" y2="11.21" gradientUnits="userSpaceOnUse">
            <stop offset="0" stop-color="#d7d7db" />
            <stop offset="0.87" stop-color="#f5f5f5" />
            <stop offset="1" stop-color="#dce1e6" />
        </linearGradient>
        <linearGradient id="未命名的渐变_1589" x1="93.65" y1="11.52" x2="99.4" y2="5.76" gradientUnits="userSpaceOnUse">
            <stop offset="0" stop-color="#dee2e6" />
            <stop offset="1" stop-color="#c8cacc" />
        </linearGradient>
    </defs>
    <title>Report(报告)</title>
    <g id="图层_2" data-name="图层 2">
        <g id="图层_21" data-name="图层 21">
            <g id="Report_报告_" data-name="Report(报告)">
                <rect class="cls-1" width="105.16" height="150" />
                <rect class="cls-2" x="34.04" y="13.29" width="37.09" height="4.09" />
                <rect class="cls-2" x="8.58" y="40.97" width="88" height="4.09" />
                <rect class="cls-2" x="8.58" y="47.57" width="88" height="2.04" />
                <rect class="cls-2" x="8.58" y="52.14" width="88" height="2.04" />
                <rect class="cls-2" x="8.58" y="56.72" width="88" height="2.04" />
                <rect class="cls-2" x="8.58" y="61.72" width="23.85" height="2.04" />
                <rect class="cls-2" x="8.58" y="71.48" width="88" height="4.09" />
                <rect class="cls-2" x="8.58" y="78.08" width="88" height="2.04" />
                <rect class="cls-2" x="8.58" y="82.66" width="88" height="2.04" />
                <rect class="cls-2" x="8.58" y="87.23" width="88" height="2.04" />
                <rect class="cls-2" x="8.58" y="92.23" width="44.46" height="2.04" />
                <rect class="cls-2" x="8.58" y="101.99" width="88" height="4.09" />
                <rect class="cls-2" x="8.58" y="108.59" width="88" height="2.04" />
                <rect class="cls-2" x="8.58" y="113.17" width="88" height="2.04" />
                <rect class="cls-2" x="8.58" y="117.74" width="11" height="2.04" />
                <rect class="cls-2" x="63.89" y="127.51" width="18.43" height="4.09" />
                <rect class="cls-2" x="63.89" y="134.11" width="18.43" height="2.04" />
                <rect class="cls-2" x="42.3" y="19.59" width="20.57" height="4.09" />
                <path class="cls-3"
                    d="M104.61,11.52a5.88,5.88,0,0,0-1.25-1.8L95.45,1.8l0,0A6.37,6.37,0,0,0,93.65.55,6.19,6.19,0,0,0,91.1,0H89.83l.41.14a4.91,4.91,0,0,1,3.41,4.67v6.71h6.7a4.92,4.92,0,0,1,4.68,3.4l.13.42V14.06A6.11,6.11,0,0,0,104.61,11.52Z" />
               
            </g>
        </g>
    </g>
</svg>