<svg xmlns="http://www.w3.org/2000/svg" xmlns:xlink="http://www.w3.org/1999/xlink" viewBox="0 0 150 133.19">
    <defs>
        <style>
            .cls-1 {
                fill: url(#未命名的渐变_5);
            }

            .cls-2 {
                fill: url(#未命名的渐变_5-2);
            }

            .cls-3,
            .cls-4 {
                fill: none;
                stroke-miterlimit: 10;
                stroke-width: 0.1px;
            }

            .cls-3 {
                stroke: #e9f2ff;
            }

            .cls-4 {
                stroke: #5e6266;
            }

            .cls-5 {
                opacity: 0.2;
            }
        </style>
        <linearGradient id="未命名的渐变_5" x1="128.69" y1="43.25" x2="21.31" y2="150.63" gradientUnits="userSpaceOnUse">
            <stop offset="0" stop-color="#d7dce0" />
            <stop offset="1" stop-color="#8a9099" />
        </linearGradient>
        <linearGradient id="未命名的渐变_5-2" x1="94.02" y1="-9.44" x2="55.98" y2="28.6" xlink:href="#未命名的渐变_5" />
    </defs>
    <title>Simple tank hood(简易油箱盖)</title>
    <g id="图层_2" data-name="图层 2">
        <g id="图层_21" data-name="图层 21">
            <g id="Simple_tank_hood_简易油箱盖_" data-name="Simple tank hood(简易油箱盖)">
                <polygon class="cls-1"
                    points="103.96 18.52 46.04 18.52 0 91.69 3.87 133.19 146.13 133.19 150 91.69 103.96 18.52" />
                <rect class="cls-2" x="46.54" width="56.93" height="19.15" />
                <line class="cls-3" x1="8.29" y1="112.32" x2="8.29" y2="124.49" />
                <line class="cls-4" x1="45.24" y1="124.49" x2="45.24" y2="112.32" />
                <line class="cls-3" x1="45.24" y1="124.49" x2="8.29" y2="124.49" />
                <line class="cls-4" x1="8.29" y1="112.32" x2="45.24" y2="112.32" />
                <line class="cls-3" x1="56.07" y1="112.32" x2="56.07" y2="124.49" />
                <line class="cls-4" x1="93.02" y1="124.49" x2="93.02" y2="112.32" />
                <line class="cls-3" x1="93.02" y1="124.49" x2="56.07" y2="124.49" />
                <line class="cls-4" x1="56.07" y1="112.32" x2="93.02" y2="112.32" />
                <line class="cls-3" x1="103.85" y1="112.32" x2="103.85" y2="124.49" />
                <line class="cls-4" x1="140.8" y1="124.49" x2="140.8" y2="112.32" />
                <line class="cls-3" x1="140.8" y1="124.49" x2="103.85" y2="124.49" />
                <line class="cls-4" x1="103.85" y1="112.32" x2="140.8" y2="112.32" />
               
            </g>
        </g>
    </g>
</svg>