<svg xmlns="http://www.w3.org/2000/svg" xmlns:xlink="http://www.w3.org/1999/xlink" viewBox="0 0 47.6 150">
    <defs>
        <style>
            .cls-1 {
                opacity: 0.3;
                fill: url(#未命名的渐变_108);
            }

            .cls-2 {
                fill: url(#未命名的渐变_287);
            }

            .cls-3 {
                opacity: 0.6;
            }

            .cls-4,
            .cls-6 {
                fill: none;
                stroke-linecap: round;
                stroke-miterlimit: 10;
                stroke-width: 0.25px;
            }

            .cls-4 {
                stroke: #99334e;
            }

            .cls-5 {
                fill: #99324e;
            }

            .cls-6 {
                stroke: #ea4969;
            }

            .cls-7 {
                opacity: 0.2;
            }
        </style>
        <linearGradient id="未命名的渐变_108" x1="20.75" y1="70.23" x2="26.85" y2="70.23" gradientUnits="userSpaceOnUse">
            <stop offset="0" stop-color="#a9b1bb" />
            <stop offset="0.06" stop-color="#5d6166" />
            <stop offset="0.78" stop-color="#e2eaf2" />
            <stop offset="0.93" stop-color="#9ba1ab" />
            <stop offset="1" stop-color="#767b82" />
        </linearGradient>
        <linearGradient id="未命名的渐变_287" x1="21.38" y1="143.49" x2="25.78" y2="143.88" gradientUnits="userSpaceOnUse">
            <stop offset="0" stop-color="#bb3a54" />
            <stop offset="0.06" stop-color="#66202e" />
            <stop offset="0.78" stop-color="#f24b6c" />
            <stop offset="0.93" stop-color="#d1415e" />
            <stop offset="1" stop-color="#b83952" />
        </linearGradient>
    </defs>
    <title>Thermometer(温度计)</title>
    <g id="图层_2" data-name="图层 2">
        <g id="图层_21" data-name="图层 21">
            <g id="Thermometer_温度计_" data-name="Thermometer(温度计)">
                <rect class="cls-1" x="20.75" width="6.1" height="140.46" rx="3.05" />
                <path class="cls-2"
                    d="M25.87,139.46,25.42,148a1.92,1.92,0,0,1-1.62,2,1.92,1.92,0,0,1-1.62-2l-.45-8.53a2,2,0,0,0,2.07-2.05A2,2,0,0,0,25.87,139.46Z" />
                <g class="cls-3">
                    <line class="cls-4" x1="22.78" y1="53.69" x2="24.82" y2="53.69" />
                    <line class="cls-4" x1="22.78" y1="60" x2="24.82" y2="60" />
                    <line class="cls-4" x1="22.78" y1="54.32" x2="23.8" y2="54.32" />
                    <line class="cls-4" x1="22.78" y1="54.95" x2="23.8" y2="54.95" />
                    <line class="cls-4" x1="22.78" y1="55.58" x2="23.8" y2="55.58" />
                    <line class="cls-4" x1="22.78" y1="56.22" x2="23.8" y2="56.22" />
                    <line class="cls-4" x1="22.78" y1="56.85" x2="23.8" y2="56.85" />
                    <line class="cls-4" x1="22.78" y1="57.48" x2="23.8" y2="57.48" />
                    <line class="cls-4" x1="22.78" y1="58.11" x2="23.8" y2="58.11" />
                    <line class="cls-4" x1="22.78" y1="58.74" x2="23.8" y2="58.74" />
                    <line class="cls-4" x1="22.78" y1="59.37" x2="23.8" y2="59.37" />
                    <line class="cls-4" x1="22.78" y1="66.31" x2="24.82" y2="66.31" />
                    <line class="cls-4" x1="22.78" y1="60.63" x2="23.8" y2="60.63" />
                    <line class="cls-4" x1="22.78" y1="61.26" x2="23.8" y2="61.26" />
                    <line class="cls-4" x1="22.78" y1="61.89" x2="23.8" y2="61.89" />
                    <line class="cls-4" x1="22.78" y1="62.52" x2="23.8" y2="62.52" />
                    <line class="cls-4" x1="22.78" y1="63.15" x2="23.8" y2="63.15" />
                    <line class="cls-4" x1="22.78" y1="63.78" x2="23.8" y2="63.78" />
                    <line class="cls-4" x1="22.78" y1="64.42" x2="23.8" y2="64.42" />
                    <line class="cls-4" x1="22.78" y1="65.05" x2="23.8" y2="65.05" />
                    <line class="cls-4" x1="22.78" y1="65.68" x2="23.8" y2="65.68" />
                    <line class="cls-4" x1="22.78" y1="72.62" x2="24.82" y2="72.62" />
                    <line class="cls-4" x1="22.78" y1="66.94" x2="23.8" y2="66.94" />
                    <line class="cls-4" x1="22.78" y1="67.57" x2="23.8" y2="67.57" />
                    <line class="cls-4" x1="22.78" y1="68.2" x2="23.8" y2="68.2" />
                    <line class="cls-4" x1="22.78" y1="68.83" x2="23.8" y2="68.83" />
                    <line class="cls-4" x1="22.78" y1="69.46" x2="23.8" y2="69.46" />
                    <line class="cls-4" x1="22.78" y1="70.09" x2="23.8" y2="70.09" />
                    <line class="cls-4" x1="22.78" y1="70.72" x2="23.8" y2="70.72" />
                    <line class="cls-4" x1="22.78" y1="71.35" x2="23.8" y2="71.35" />
                    <line class="cls-4" x1="22.78" y1="71.99" x2="23.8" y2="71.99" />
                    <line class="cls-4" x1="22.78" y1="78.92" x2="24.82" y2="78.92" />
                    <line class="cls-4" x1="22.78" y1="73.25" x2="23.8" y2="73.25" />
                    <line class="cls-4" x1="22.78" y1="73.88" x2="23.8" y2="73.88" />
                    <line class="cls-4" x1="22.78" y1="74.51" x2="23.8" y2="74.51" />
                    <line class="cls-4" x1="22.78" y1="75.14" x2="23.8" y2="75.14" />
                    <line class="cls-4" x1="22.78" y1="75.77" x2="23.8" y2="75.77" />
                    <line class="cls-4" x1="22.78" y1="76.4" x2="23.8" y2="76.4" />
                    <line class="cls-4" x1="22.78" y1="77.03" x2="23.8" y2="77.03" />
                    <line class="cls-4" x1="22.78" y1="77.66" x2="23.8" y2="77.66" />
                    <line class="cls-4" x1="22.78" y1="78.29" x2="23.8" y2="78.29" />
                    <line class="cls-4" x1="22.78" y1="85.23" x2="24.82" y2="85.23" />
                    <line class="cls-4" x1="22.78" y1="79.55" x2="23.8" y2="79.55" />
                    <line class="cls-4" x1="22.78" y1="80.19" x2="23.8" y2="80.19" />
                    <line class="cls-4" x1="22.78" y1="80.82" x2="23.8" y2="80.82" />
                    <line class="cls-4" x1="22.78" y1="81.45" x2="23.8" y2="81.45" />
                    <line class="cls-4" x1="22.78" y1="82.08" x2="23.8" y2="82.08" />
                    <line class="cls-4" x1="22.78" y1="82.71" x2="23.8" y2="82.71" />
                    <line class="cls-4" x1="22.78" y1="83.34" x2="23.8" y2="83.34" />
                    <line class="cls-4" x1="22.78" y1="83.97" x2="23.8" y2="83.97" />
                    <line class="cls-4" x1="22.78" y1="84.6" x2="23.8" y2="84.6" />
                    <line class="cls-4" x1="22.78" y1="91.54" x2="24.82" y2="91.54" />
                    <line class="cls-4" x1="22.78" y1="85.86" x2="23.8" y2="85.86" />
                    <line class="cls-4" x1="22.78" y1="86.49" x2="23.8" y2="86.49" />
                    <line class="cls-4" x1="22.78" y1="87.12" x2="23.8" y2="87.12" />
                    <line class="cls-4" x1="22.78" y1="87.76" x2="23.8" y2="87.76" />
                    <line class="cls-4" x1="22.78" y1="88.39" x2="23.8" y2="88.39" />
                    <line class="cls-4" x1="22.78" y1="89.02" x2="23.8" y2="89.02" />
                    <line class="cls-4" x1="22.78" y1="89.65" x2="23.8" y2="89.65" />
                    <line class="cls-4" x1="22.78" y1="90.28" x2="23.8" y2="90.28" />
                    <line class="cls-4" x1="22.78" y1="90.91" x2="23.8" y2="90.91" />
                    <line class="cls-4" x1="22.78" y1="97.85" x2="24.82" y2="97.85" />
                    <line class="cls-4" x1="22.78" y1="92.17" x2="23.8" y2="92.17" />
                    <line class="cls-4" x1="22.78" y1="92.8" x2="23.8" y2="92.8" />
                    <line class="cls-4" x1="22.78" y1="93.43" x2="23.8" y2="93.43" />
                    <line class="cls-4" x1="22.78" y1="94.06" x2="23.8" y2="94.06" />
                    <line class="cls-4" x1="22.78" y1="94.69" x2="23.8" y2="94.69" />
                    <line class="cls-4" x1="22.78" y1="95.32" x2="23.8" y2="95.32" />
                    <line class="cls-4" x1="22.78" y1="95.96" x2="23.8" y2="95.96" />
                    <line class="cls-4" x1="22.78" y1="96.59" x2="23.8" y2="96.59" />
                    <line class="cls-4" x1="22.78" y1="97.22" x2="23.8" y2="97.22" />
                    <line class="cls-4" x1="22.78" y1="104.16" x2="24.82" y2="104.16" />
                    <line class="cls-4" x1="22.78" y1="98.48" x2="23.8" y2="98.48" />
                    <line class="cls-4" x1="22.78" y1="99.11" x2="23.8" y2="99.11" />
                    <line class="cls-4" x1="22.78" y1="99.74" x2="23.8" y2="99.74" />
                    <line class="cls-4" x1="22.78" y1="100.37" x2="23.8" y2="100.37" />
                    <line class="cls-4" x1="22.78" y1="101" x2="23.8" y2="101" />
                    <line class="cls-4" x1="22.78" y1="101.63" x2="23.8" y2="101.63" />
                    <line class="cls-4" x1="22.78" y1="102.26" x2="23.8" y2="102.26" />
                    <line class="cls-4" x1="22.78" y1="102.89" x2="23.8" y2="102.89" />
                    <line class="cls-4" x1="22.78" y1="103.53" x2="23.8" y2="103.53" />
                    <line class="cls-4" x1="22.78" y1="110.46" x2="24.82" y2="110.46" />
                    <line class="cls-4" x1="22.78" y1="104.79" x2="23.8" y2="104.79" />
                    <line class="cls-4" x1="22.78" y1="105.42" x2="23.8" y2="105.42" />
                    <line class="cls-4" x1="22.78" y1="106.05" x2="23.8" y2="106.05" />
                    <line class="cls-4" x1="22.78" y1="106.68" x2="23.8" y2="106.68" />
                    <line class="cls-4" x1="22.78" y1="107.31" x2="23.8" y2="107.31" />
                    <line class="cls-4" x1="22.78" y1="107.94" x2="23.8" y2="107.94" />
                    <line class="cls-4" x1="22.78" y1="108.57" x2="23.8" y2="108.57" />
                    <line class="cls-4" x1="22.78" y1="109.2" x2="23.8" y2="109.2" />
                    <line class="cls-4" x1="22.78" y1="109.83" x2="23.8" y2="109.83" />
                    <line class="cls-4" x1="22.78" y1="116.77" x2="24.82" y2="116.77" />
                    <line class="cls-4" x1="22.78" y1="111.09" x2="23.8" y2="111.09" />
                    <line class="cls-4" x1="22.78" y1="111.73" x2="23.8" y2="111.73" />
                    <line class="cls-4" x1="22.78" y1="112.36" x2="23.8" y2="112.36" />
                    <line class="cls-4" x1="22.78" y1="112.99" x2="23.8" y2="112.99" />
                    <line class="cls-4" x1="22.78" y1="113.62" x2="23.8" y2="113.62" />
                    <line class="cls-4" x1="22.78" y1="114.25" x2="23.8" y2="114.25" />
                    <line class="cls-4" x1="22.78" y1="114.88" x2="23.8" y2="114.88" />
                    <line class="cls-4" x1="22.78" y1="115.51" x2="23.8" y2="115.51" />
                    <line class="cls-4" x1="22.78" y1="116.14" x2="23.8" y2="116.14" />
                </g>
                <g class="cls-3">
                    <path class="cls-5"
                        d="M26.55,116.76a.88.88,0,0,1,0,.17.31.31,0,0,1-.06.13.25.25,0,0,1-.12.08.6.6,0,0,1-.2,0,.56.56,0,0,1-.2,0,.25.25,0,0,1-.12-.08.31.31,0,0,1-.06-.13.73.73,0,0,1,0-.34.31.31,0,0,1,.06-.13.36.36,0,0,1,.12-.08.56.56,0,0,1,.2,0,.6.6,0,0,1,.2,0,.36.36,0,0,1,.12.08.31.31,0,0,1,.06.13A.88.88,0,0,1,26.55,116.76Zm-.12,0a.29.29,0,0,0,0-.09s0,0,0-.06l-.08,0H26a.15.15,0,0,0-.08,0,.13.13,0,0,0-.05.06.28.28,0,0,0,0,.09.22.22,0,0,0,0,.09s0,.05.05.06a.15.15,0,0,0,.08,0h.28a.2.2,0,0,0,.08,0,.07.07,0,0,0,0-.06A.2.2,0,0,0,26.43,116.76Z" />
                    <path class="cls-5" d="M25.89,111.28l0,.28h-.12l0-.34v-.15h.78v.21Z" />
                    <path class="cls-5"
                        d="M26.55,110.2a.88.88,0,0,1,0,.17.23.23,0,0,1-.06.12.27.27,0,0,1-.12.09.6.6,0,0,1-.2,0,.56.56,0,0,1-.2,0,.27.27,0,0,1-.12-.09.23.23,0,0,1-.06-.12.73.73,0,0,1,0-.34.26.26,0,0,1,.06-.13.25.25,0,0,1,.12-.08.56.56,0,0,1,.2,0,.6.6,0,0,1,.2,0,.25.25,0,0,1,.12.08.26.26,0,0,1,.06.13A.88.88,0,0,1,26.55,110.2Zm-.12,0a.2.2,0,0,0,0-.09.07.07,0,0,0,0-.06.2.2,0,0,0-.08,0H26a.15.15,0,0,0-.08,0s0,0-.05.06a.22.22,0,0,0,0,.09.28.28,0,0,0,0,.09.13.13,0,0,0,.05.06.15.15,0,0,0,.08,0l.14,0,.14,0a.19.19,0,0,0,.08,0s0,0,0-.06A.29.29,0,0,0,26.43,110.2Z" />
                    <path class="cls-5"
                        d="M26.4,105.07a1.63,1.63,0,0,0-.15-.27.83.83,0,0,0-.11-.17l-.08-.09-.07,0a.08.08,0,0,0-.06,0,.08.08,0,0,0,0,0,.19.19,0,0,0,0,.07v.21a.69.69,0,0,0,0,.13h-.12s0-.09,0-.13v-.16a.76.76,0,0,1,.05-.29.18.18,0,0,1,.17-.1.15.15,0,0,1,.09,0,.24.24,0,0,1,.09.06l.1.13c0,.06.08.13.12.22l0,.07h0v-.54h.12v.8Z" />
                    <path class="cls-5"
                        d="M26.55,103.63a.78.78,0,0,1,0,.16.26.26,0,0,1-.06.13.27.27,0,0,1-.12.09.6.6,0,0,1-.2,0,.56.56,0,0,1-.2,0,.27.27,0,0,1-.12-.09.26.26,0,0,1-.06-.13.41.41,0,0,1,0-.16.44.44,0,0,1,0-.17.26.26,0,0,1,.06-.13.27.27,0,0,1,.12-.09l.2,0,.2,0a.27.27,0,0,1,.12.09.26.26,0,0,1,.06.13A.79.79,0,0,1,26.55,103.63Zm-.12,0a.2.2,0,0,0,0-.09.1.1,0,0,0,0-.07.19.19,0,0,0-.08,0H26a.15.15,0,0,0-.08,0,.12.12,0,0,0-.05.07.22.22,0,0,0,0,.09.28.28,0,0,0,0,.09.13.13,0,0,0,.05.06l.08,0h.28l.08,0s0,0,0-.06A.29.29,0,0,0,26.43,103.63Z" />
                    <path class="cls-5"
                        d="M26.55,98.47a.66.66,0,0,1,0,.14.49.49,0,0,1,0,.12h-.12s0-.09,0-.13v-.12a.37.37,0,0,0,0-.11s0-.06,0-.08a.15.15,0,0,0,0-.06.07.07,0,0,0-.06,0,.08.08,0,0,0-.09.08.61.61,0,0,0,0,.22v.09h-.11v-.09a.58.58,0,0,0,0-.21.08.08,0,0,0-.16,0,.35.35,0,0,0,0,.16s0,.08,0,.12a.36.36,0,0,0,0,.11h-.12s0-.06,0-.11v-.14a.91.91,0,0,1,0-.17.5.5,0,0,1,0-.13.16.16,0,0,1,.06-.08.17.17,0,0,1,.1,0,.16.16,0,0,1,.11,0,.36.36,0,0,1,.06.15h0a.3.3,0,0,1,.06-.17.14.14,0,0,1,.12-.06C26.47,98,26.55,98.15,26.55,98.47Z" />
                    <path class="cls-5"
                        d="M26.55,97.31a.79.79,0,0,1,0,.17.26.26,0,0,1-.06.13.27.27,0,0,1-.12.09l-.2,0-.2,0a.27.27,0,0,1-.12-.09.26.26,0,0,1-.06-.13.44.44,0,0,1,0-.17.41.41,0,0,1,0-.16.23.23,0,0,1,.06-.13.27.27,0,0,1,.12-.09.56.56,0,0,1,.2,0,.6.6,0,0,1,.2,0,.27.27,0,0,1,.12.09.23.23,0,0,1,.06.13A.78.78,0,0,1,26.55,97.31Zm-.12,0a.29.29,0,0,0,0-.09s0,0,0-.06a.19.19,0,0,0-.08,0l-.14,0-.14,0a.15.15,0,0,0-.08,0,.13.13,0,0,0-.05.06.28.28,0,0,0,0,.09.31.31,0,0,0,0,.1.13.13,0,0,0,.05.06l.08,0h.28l.08,0s0,0,0-.06A.3.3,0,0,0,26.43,97.31Z" />
                    <path class="cls-5"
                        d="M26.36,91.64v.13h.18V92h-.18v.52h-.14L25.76,92v-.25h.48v-.13Zm-.12.34h-.33l.33.33h0Z" />
                    <path class="cls-5"
                        d="M26.55,91a.88.88,0,0,1,0,.17.31.31,0,0,1-.06.13.36.36,0,0,1-.12.08.6.6,0,0,1-.2,0,.56.56,0,0,1-.2,0,.36.36,0,0,1-.12-.08.31.31,0,0,1-.06-.13.73.73,0,0,1,0-.34.31.31,0,0,1,.06-.13.36.36,0,0,1,.12-.08.56.56,0,0,1,.2,0,.6.6,0,0,1,.2,0,.36.36,0,0,1,.12.08.31.31,0,0,1,.06.13A.88.88,0,0,1,26.55,91Zm-.12,0a.2.2,0,0,0,0-.09.07.07,0,0,0,0-.06.2.2,0,0,0-.08,0H26a.15.15,0,0,0-.08,0s0,0-.05.06a.41.41,0,0,0,0,.18s0,0,.05.06a.15.15,0,0,0,.08,0h.28a.2.2,0,0,0,.08,0,.07.07,0,0,0,0-.06A.2.2,0,0,0,26.43,91Z" />
                    <path class="cls-5"
                        d="M26.55,86.11a.53.53,0,0,1,0,.13.37.37,0,0,1,0,.11h-.12s0-.08,0-.11v-.12a.37.37,0,0,0,0-.11.2.2,0,0,0,0-.09.09.09,0,0,0,0-.06.08.08,0,0,0-.07,0,.1.1,0,0,0-.1.06.61.61,0,0,0,0,.22v.12a.49.49,0,0,1,0,.12l-.41-.08V85.7h.12v.41l.18,0a.13.13,0,0,1,0-.06V86a.55.55,0,0,1,.06-.29.2.2,0,0,1,.18-.11.23.23,0,0,1,.2.13A.9.9,0,0,1,26.55,86.11Z" />
                    <path class="cls-5"
                        d="M26.55,85a.78.78,0,0,1,0,.16.26.26,0,0,1-.06.13.27.27,0,0,1-.12.09.6.6,0,0,1-.2,0,.56.56,0,0,1-.2,0,.27.27,0,0,1-.12-.09.26.26,0,0,1-.06-.13.41.41,0,0,1,0-.16.44.44,0,0,1,0-.17.26.26,0,0,1,.06-.13.27.27,0,0,1,.12-.09.56.56,0,0,1,.2,0,.6.6,0,0,1,.2,0,.27.27,0,0,1,.12.09.26.26,0,0,1,.06.13A.79.79,0,0,1,26.55,85Zm-.12,0a.3.3,0,0,0,0-.1s0,0,0-.06a.19.19,0,0,0-.08,0l-.14,0-.14,0a.15.15,0,0,0-.08,0,.13.13,0,0,0-.05.06.31.31,0,0,0,0,.1.28.28,0,0,0,0,.09.13.13,0,0,0,.05.06l.08,0h.28l.08,0s0,0,0-.06A.29.29,0,0,0,26.43,85Z" />
                    <path class="cls-5"
                        d="M26.55,79.7a.88.88,0,0,1,0,.16.26.26,0,0,1-.05.12.2.2,0,0,1-.09.09.33.33,0,0,1-.15,0,.71.71,0,0,1-.21,0,.44.44,0,0,1-.15-.12.59.59,0,0,1-.1-.21,1.23,1.23,0,0,1,0-.29h.12a.66.66,0,0,0,.06.31.26.26,0,0,0,.16.13h0a.23.23,0,0,1,0-.1.51.51,0,0,1,0-.13.4.4,0,0,1,.07-.26.2.2,0,0,1,.18-.09l.11,0a.27.27,0,0,1,.08.07.31.31,0,0,1,.06.13A.9.9,0,0,1,26.55,79.7Zm-.12,0a.28.28,0,0,0,0-.15.15.15,0,0,0-.23,0,.33.33,0,0,0,0,.15.24.24,0,0,0,0,.16.09.09,0,0,0,.09.05c.06,0,.1,0,.12-.05A.21.21,0,0,0,26.43,79.7Z" />
                    <path class="cls-5"
                        d="M26.55,78.66a.88.88,0,0,1,0,.17.31.31,0,0,1-.06.13.36.36,0,0,1-.12.08.6.6,0,0,1-.2,0,.56.56,0,0,1-.2,0,.36.36,0,0,1-.12-.08.31.31,0,0,1-.06-.13.73.73,0,0,1,0-.34.26.26,0,0,1,.06-.13.25.25,0,0,1,.12-.08.56.56,0,0,1,.2,0,.6.6,0,0,1,.2,0,.25.25,0,0,1,.12.08.26.26,0,0,1,.06.13A.88.88,0,0,1,26.55,78.66Zm-.12,0a.2.2,0,0,0,0-.09.1.1,0,0,0,0-.07l-.08,0H26l-.08,0a.12.12,0,0,0-.05.07.22.22,0,0,0,0,.09.28.28,0,0,0,0,.09.13.13,0,0,0,.05.06.15.15,0,0,0,.08,0l.14,0,.14,0a.19.19,0,0,0,.08,0s0,0,0-.06A.29.29,0,0,0,26.43,78.66Z" />
                    <path class="cls-5" d="M25.88,72.93v.58h-.12v-.77h.14l.64.43v.22Z" />
                    <path class="cls-5"
                        d="M26.55,72.07a.79.79,0,0,1,0,.17.26.26,0,0,1-.06.13.27.27,0,0,1-.12.09l-.2,0-.2,0a.27.27,0,0,1-.12-.09.26.26,0,0,1-.06-.13.44.44,0,0,1,0-.17.41.41,0,0,1,0-.16.23.23,0,0,1,.06-.13.27.27,0,0,1,.12-.09.56.56,0,0,1,.2,0,.6.6,0,0,1,.2,0,.27.27,0,0,1,.12.09.23.23,0,0,1,.06.13A.78.78,0,0,1,26.55,72.07Zm-.12,0a.29.29,0,0,0,0-.09s0,0,0-.06a.19.19,0,0,0-.08,0l-.14,0-.14,0a.15.15,0,0,0-.08,0,.13.13,0,0,0-.05.06.28.28,0,0,0,0,.09.22.22,0,0,0,0,.09.12.12,0,0,0,.05.07l.08,0h.28l.08,0a.1.1,0,0,0,0-.07A.2.2,0,0,0,26.43,72.07Z" />
                    <path class="cls-5"
                        d="M26.55,67.08a.83.83,0,0,1-.05.31.18.18,0,0,1-.17.11l-.08,0-.05,0s0,0,0-.06a.19.19,0,0,1,0-.07h0s0,0,0,.06l0,0a.1.1,0,0,1-.05,0H26a.18.18,0,0,1-.16-.09.72.72,0,0,1-.05-.29.67.67,0,0,1,.05-.28.18.18,0,0,1,.16-.09.15.15,0,0,1,.11,0,.23.23,0,0,1,.06.12h0a.24.24,0,0,1,0-.08.21.21,0,0,1,0-.06.1.1,0,0,1,.05,0,.12.12,0,0,1,.08,0,.18.18,0,0,1,.17.11A.78.78,0,0,1,26.55,67.08Zm-.47,0a.22.22,0,0,0,0-.14.1.1,0,0,0-.08,0,.08.08,0,0,0-.08,0,.26.26,0,0,0,0,.14c0,.13,0,.19.11.19a.09.09,0,0,0,.08,0A.28.28,0,0,0,26.08,67.08Zm.36,0a.32.32,0,0,0,0-.16.1.1,0,0,0-.09-.06.11.11,0,0,0-.1.06.35.35,0,0,0,0,.16.32.32,0,0,0,0,.16.11.11,0,0,0,.1.06.11.11,0,0,0,.09,0A.34.34,0,0,0,26.44,67.08Z" />
                    <path class="cls-5"
                        d="M26.55,66a.88.88,0,0,1,0,.17.31.31,0,0,1-.06.13.36.36,0,0,1-.12.08.6.6,0,0,1-.2,0,.56.56,0,0,1-.2,0,.36.36,0,0,1-.12-.08.31.31,0,0,1-.06-.13.73.73,0,0,1,0-.34.31.31,0,0,1,.06-.13.36.36,0,0,1,.12-.08.56.56,0,0,1,.2,0,.6.6,0,0,1,.2,0,.36.36,0,0,1,.12.08.31.31,0,0,1,.06.13A.88.88,0,0,1,26.55,66Zm-.12,0a.24.24,0,0,0,0-.09.07.07,0,0,0,0-.06l-.08,0H26a.15.15,0,0,0-.08,0s0,0-.05.06a.25.25,0,0,0,0,.09.22.22,0,0,0,0,.09s0,.05.05.06a.15.15,0,0,0,.08,0h.28l.08,0a.07.07,0,0,0,0-.06A.2.2,0,0,0,26.43,66Z" />
                    <path class="cls-5"
                        d="M26.43,61a.66.66,0,0,0-.06-.31.19.19,0,0,0-.15-.13h0l0,.09a.59.59,0,0,1,0,.14.48.48,0,0,1-.06.26.21.21,0,0,1-.19.1l-.11,0a.3.3,0,0,1-.08-.08.23.23,0,0,1-.06-.12.9.9,0,0,1,0-.18.81.81,0,0,1,0-.16.31.31,0,0,1,.06-.13.16.16,0,0,1,.1-.08.24.24,0,0,1,.15,0,.65.65,0,0,1,.2,0,.33.33,0,0,1,.15.11.54.54,0,0,1,.1.2,1.35,1.35,0,0,1,0,.31Zm-.27-.24a.37.37,0,0,0,0-.17.14.14,0,0,0-.1,0,.17.17,0,0,0-.12,0,.25.25,0,0,0-.05.16.3.3,0,0,0,0,.15A.14.14,0,0,0,26,61a.13.13,0,0,0,.11-.06A.26.26,0,0,0,26.16,60.79Z" />
                    <path class="cls-5"
                        d="M26.55,59.73a.88.88,0,0,1,0,.17.31.31,0,0,1-.06.13.25.25,0,0,1-.12.08.6.6,0,0,1-.2,0,.56.56,0,0,1-.2,0,.25.25,0,0,1-.12-.08.31.31,0,0,1-.06-.13.73.73,0,0,1,0-.34.23.23,0,0,1,.06-.12.27.27,0,0,1,.12-.09.56.56,0,0,1,.2,0,.6.6,0,0,1,.2,0,.27.27,0,0,1,.12.09.23.23,0,0,1,.06.12A.88.88,0,0,1,26.55,59.73Zm-.12,0a.29.29,0,0,0,0-.09s0,0,0-.06l-.08,0H26a.15.15,0,0,0-.08,0,.13.13,0,0,0-.05.06.28.28,0,0,0,0,.09.22.22,0,0,0,0,.09s0,0,.05.06l.08,0h.28l.08,0a.07.07,0,0,0,0-.06A.2.2,0,0,0,26.43,59.73Z" />
                    <path class="cls-5" d="M25.89,54.74l0,.29h-.12l0-.35v-.15h.78v.21Z" />
                    <path class="cls-5"
                        d="M26.55,53.66a.88.88,0,0,1,0,.17.31.31,0,0,1-.06.13.36.36,0,0,1-.12.08.6.6,0,0,1-.2,0,.56.56,0,0,1-.2,0,.36.36,0,0,1-.12-.08.31.31,0,0,1-.06-.13.73.73,0,0,1,0-.34.31.31,0,0,1,.06-.13.36.36,0,0,1,.12-.08.56.56,0,0,1,.2,0,.6.6,0,0,1,.2,0,.36.36,0,0,1,.12.08.31.31,0,0,1,.06.13A.88.88,0,0,1,26.55,53.66Zm-.12,0a.2.2,0,0,0,0-.09.07.07,0,0,0,0-.06l-.08,0H26a.15.15,0,0,0-.08,0s0,0-.05.06a.41.41,0,0,0,0,.18s0,0,.05.06a.15.15,0,0,0,.08,0h.28l.08,0a.07.07,0,0,0,0-.06A.2.2,0,0,0,26.43,53.66Z" />
                    <path class="cls-5"
                        d="M26.55,52.62a.88.88,0,0,1,0,.17.31.31,0,0,1-.06.13.36.36,0,0,1-.12.08.6.6,0,0,1-.2,0,.56.56,0,0,1-.2,0,.36.36,0,0,1-.12-.08.31.31,0,0,1-.06-.13.73.73,0,0,1,0-.34.31.31,0,0,1,.06-.13.36.36,0,0,1,.12-.08.56.56,0,0,1,.2,0,.6.6,0,0,1,.2,0,.36.36,0,0,1,.12.08.31.31,0,0,1,.06.13A.88.88,0,0,1,26.55,52.62Zm-.12,0a.2.2,0,0,0,0-.09.07.07,0,0,0,0-.06l-.08,0H26a.15.15,0,0,0-.08,0s0,0-.05.06a.22.22,0,0,0,0,.09.28.28,0,0,0,0,.09.13.13,0,0,0,.05.06l.08,0h.28l.08,0s0,0,0-.06A.29.29,0,0,0,26.43,52.62Z" />
                </g>
                <line class="cls-6" x1="23.8" y1="91.06" x2="23.8" y2="137.41" />

            </g>
        </g>
    </g>
</svg>