<svg xmlns="http://www.w3.org/2000/svg" xmlns:xlink="http://www.w3.org/1999/xlink" viewBox="0 0 150 93.54">
    <defs>
        <style>
            .cls-1 {
                fill: url(#未命名的渐变_143);
            }

            .cls-2 {
                fill: url(#未命名的渐变_143-2);
            }

            .cls-3 {
                fill: url(#未命名的渐变_14);
            }

            .cls-4 {
                fill: #a2a7a9;
            }

            .cls-5 {
                fill: url(#未命名的渐变_143-3);
            }

            .cls-6 {
                fill: url(#未命名的渐变_143-4);
            }

            .cls-7 {
                fill: url(#未命名的渐变_143-5);
            }

            .cls-8 {
                fill: url(#未命名的渐变_143-6);
            }

            .cls-9 {
                fill: url(#未命名的渐变_143-7);
            }

            .cls-10 {
                fill: url(#未命名的渐变_143-8);
            }

            .cls-11 {
                fill: url(#未命名的渐变_143-9);
            }

            .cls-12 {
                fill: url(#未命名的渐变_143-10);
            }

            .cls-13 {
                fill: url(#未命名的渐变_143-11);
            }

            .cls-14 {
                fill: url(#未命名的渐变_143-12);
            }

            .cls-15 {
                fill: url(#未命名的渐变_143-13);
            }

            .cls-16 {
                fill: url(#未命名的渐变_143-14);
            }

            .cls-17 {
                fill: url(#未命名的渐变_143-15);
            }

            .cls-18 {
                fill: url(#未命名的渐变_143-16);
            }

            .cls-19 {
                fill: url(#未命名的渐变_143-17);
            }

            .cls-20 {
                fill: url(#未命名的渐变_143-18);
            }

            .cls-21 {
                fill: url(#未命名的渐变_143-19);
            }

            .cls-22 {
                fill: #b0b0b1;
            }

            .cls-23 {
                fill: url(#未命名的渐变_143-20);
            }

            .cls-24 {
                fill: url(#未命名的渐变_143-21);
            }

            .cls-25 {
                fill: url(#未命名的渐变_143-22);
            }

            .cls-26 {
                fill: url(#未命名的渐变_143-23);
            }

            .cls-27 {
                fill: url(#未命名的渐变_143-24);
            }

            .cls-28 {
                fill: url(#未命名的渐变_143-25);
            }

            .cls-29 {
                opacity: 0.2;
            }
        </style>
        <linearGradient id="未命名的渐变_143" x1="60.94" y1="-24.81" x2="60.94" y2="-91.15"
            gradientTransform="translate(41.82 -6.79) rotate(90)" gradientUnits="userSpaceOnUse">
            <stop offset="0" stop-color="#b7b7b7" />
            <stop offset="0.03" stop-color="#9b9d9d" />
            <stop offset="0.07" stop-color="#878b8b" />
            <stop offset="0.09" stop-color="#808484" />
            <stop offset="0.2" stop-color="#a3a6a6" />
            <stop offset="0.49" stop-color="#f6f6f6" />
            <stop offset="0.61" stop-color="#f3f3f3" />
            <stop offset="0.7" stop-color="#eaeaea" />
            <stop offset="0.77" stop-color="#dbdbdb" />
            <stop offset="0.83" stop-color="#c5c5c5" />
            <stop offset="0.9" stop-color="#aaa" />
            <stop offset="0.95" stop-color="#888" />
            <stop offset="1" stop-color="#666" />
        </linearGradient>
        <linearGradient id="未命名的渐变_143-2" x1="101.87" y1="87.52" x2="101.87" y2="73.16"
            gradientTransform="translate(220.49 -48.27) rotate(90)" xlink:href="#未命名的渐变_143" />
        <linearGradient id="未命名的渐变_14" x1="-9.85" y1="36.54" x2="21.29" y2="36.54"
            gradientTransform="translate(80.54 4.09) rotate(90)" gradientUnits="userSpaceOnUse">
            <stop offset="0" stop-color="#ccc" />
            <stop offset="0.01" stop-color="#bbb" />
            <stop offset="0.03" stop-color="#a7a7a7" />
            <stop offset="0.04" stop-color="#a0a0a0" />
            <stop offset="0.04" stop-color="#a0a0a0" />
            <stop offset="0.08" stop-color="#bbb" />
            <stop offset="0.12" stop-color="#d1d1d1" />
            <stop offset="0.16" stop-color="#e2e2e2" />
            <stop offset="0.22" stop-color="#ededed" />
            <stop offset="0.31" stop-color="#f4f4f4" />
            <stop offset="0.53" stop-color="#f6f6f6" />
            <stop offset="0.7" stop-color="#f4f4f4" />
            <stop offset="0.78" stop-color="#ececec" />
            <stop offset="0.84" stop-color="#dfdfdf" />
            <stop offset="0.9" stop-color="#cdcdcd" />
            <stop offset="0.94" stop-color="#b5b5b5" />
            <stop offset="0.98" stop-color="#989898" />
            <stop offset="1" stop-color="#898989" />
        </linearGradient>
        <linearGradient id="未命名的渐变_143-3" x1="-23.98" y1="-24.81" x2="-23.98" y2="-91.65"
            gradientTransform="translate(38.87 112.14)" xlink:href="#未命名的渐变_143" />
        <linearGradient id="未命名的渐变_143-4" x1="46.72" y1="56.5" x2="46.72" y2="32.38"
            gradientTransform="translate(80.79 9.53)" xlink:href="#未命名的渐变_143" />
        <linearGradient id="未命名的渐变_143-5" x1="54.63" y1="85.83" x2="54.63" y2="23.66"
            gradientTransform="translate(109.38 0.12) rotate(90)" xlink:href="#未命名的渐变_143" />
        <linearGradient id="未命名的渐变_143-6" x1="-29.92" y1="642.35" x2="-28.8" y2="642.35"
            gradientTransform="translate(-587.54 53.89) rotate(-90)" xlink:href="#未命名的渐变_143" />
        <linearGradient id="未命名的渐变_143-7" x1="-25.27" y1="642.35" x2="-24.15" y2="642.35"
            gradientTransform="translate(-587.54 53.89) rotate(-90)" xlink:href="#未命名的渐变_143" />
        <linearGradient id="未命名的渐变_143-8" x1="-20.63" y1="642.35" x2="-19.51" y2="642.35"
            gradientTransform="translate(-587.54 53.89) rotate(-90)" xlink:href="#未命名的渐变_143" />
        <linearGradient id="未命名的渐变_143-9" x1="-15.98" y1="642.35" x2="-14.86" y2="642.35"
            gradientTransform="translate(-587.54 53.89) rotate(-90)" xlink:href="#未命名的渐变_143" />
        <linearGradient id="未命名的渐变_143-10" x1="-11.34" y1="642.35" x2="-10.22" y2="642.35"
            gradientTransform="translate(-587.54 53.89) rotate(-90)" xlink:href="#未命名的渐变_143" />
        <linearGradient id="未命名的渐变_143-11" x1="-6.69" y1="642.35" x2="-5.57" y2="642.35"
            gradientTransform="translate(-587.54 53.89) rotate(-90)" xlink:href="#未命名的渐变_143" />
        <linearGradient id="未命名的渐变_143-12" x1="-2.04" y1="642.35" x2="-0.92" y2="642.35"
            gradientTransform="translate(-587.54 53.89) rotate(-90)" xlink:href="#未命名的渐变_143" />
        <linearGradient id="未命名的渐变_143-13" x1="3.16" y1="642.35" x2="4.28" y2="642.35"
            gradientTransform="translate(-587.54 53.89) rotate(-90)" xlink:href="#未命名的渐变_143" />
        <linearGradient id="未命名的渐变_143-14" x1="7.64" y1="642.35" x2="8.76" y2="642.35"
            gradientTransform="translate(-587.54 53.89) rotate(-90)" xlink:href="#未命名的渐变_143" />
        <linearGradient id="未命名的渐变_143-15" x1="12.04" y1="642.35" x2="13.16" y2="642.35"
            gradientTransform="translate(-587.54 53.89) rotate(-90)" xlink:href="#未命名的渐变_143" />
        <linearGradient id="未命名的渐变_143-16" x1="16.6" y1="642.35" x2="17.72" y2="642.35"
            gradientTransform="translate(-587.54 53.89) rotate(-90)" xlink:href="#未命名的渐变_143" />
        <linearGradient id="未命名的渐变_143-17" x1="22.16" y1="642.72" x2="23.28" y2="642.72"
            gradientTransform="translate(-587.54 53.89) rotate(-90)" xlink:href="#未命名的渐变_143" />
        <linearGradient id="未命名的渐变_143-18" x1="26.62" y1="642.35" x2="27.74" y2="642.35"
            gradientTransform="translate(-587.54 53.89) rotate(-90)" xlink:href="#未命名的渐变_143" />
        <linearGradient id="未命名的渐变_143-19" x1="18.84" y1="53.97" x2="23.94" y2="53.97"
            gradientTransform="matrix(1, 0, 0, 1, 0, 0)" xlink:href="#未命名的渐变_143" />
        <linearGradient id="未命名的渐变_143-20" x1="111.59" y1="36.08" x2="111.59" y2="24.26"
            gradientTransform="matrix(1, 0, 0, 1, 0, 0)" xlink:href="#未命名的渐变_143" />
        <linearGradient id="未命名的渐变_143-21" x1="111.25" y1="19.64" x2="111.25" y2="13.66"
            gradientTransform="translate(1.05 0.56) rotate(0.38)" xlink:href="#未命名的渐变_143" />
        <linearGradient id="未命名的渐变_143-22" x1="112.94" y1="259.59" x2="112.94" y2="253.61"
            gradientTransform="matrix(1, -0.01, -0.01, -1, 1.05, 347.67)" xlink:href="#未命名的渐变_143" />
        <linearGradient id="未命名的渐变_143-23" x1="112.03" y1="299.82" x2="112.03" y2="288"
            gradientTransform="matrix(1, 0, 0, -1, 0, 372.17)" xlink:href="#未命名的渐变_143" />
        <linearGradient id="未命名的渐变_143-24" x1="29.19" y1="3.64" x2="32.02" y2="3.64"
            gradientTransform="matrix(1, 0, 0, 1, 0, 0)" xlink:href="#未命名的渐变_143" />
        <linearGradient id="未命名的渐变_143-25" x1="55.65" y1="3.64" x2="58.48" y2="3.64"
            gradientTransform="matrix(1, 0, 0, 1, 0, 0)" xlink:href="#未命名的渐变_143" />
    </defs>
    <title>Motor 4(发动机4)</title>
    <g id="图层_2" data-name="图层 2">
        <g id="图层_19" data-name="图层 19">
            <g id="Motor_4_发动机4_" data-name="Motor 4(发动机4)">
                <rect class="cls-1" x="66.64" y="35.29" width="66.34" height="37.73"
                    transform="translate(45.65 153.96) rotate(-90)" />
                <rect class="cls-2" x="132.97" y="43.76" width="14.36" height="19.7"
                    transform="translate(86.54 193.76) rotate(-90)" />
                <rect class="cls-3" x="34.27" y="-5.76" width="19.45" height="31.14"
                    transform="translate(34.18 53.8) rotate(-90)" />
                <rect class="cls-4" x="43.03" y="-7.81" width="1.82" height="31.25"
                    transform="translate(36.12 51.75) rotate(-90)" />
                <path class="cls-5" d="M29.76,20.49V87.32H13.38S0,87.32,0,53.91,13.38,20.49,13.38,20.49H29.76Z" />
                <polygon class="cls-6" points="130.3 46.27 130.3 60.82 124.71 66.03 124.71 41.91 130.3 46.27" />
                <polygon class="cls-4" points="56.12 23.66 31.71 23.66 28.42 19.5 59.56 19.5 56.12 23.66" />
                <rect class="cls-7" x="23.55" y="29.88" width="62.17" height="49.74"
                    transform="translate(-0.12 109.38) rotate(-90)" />
                <rect class="cls-8" x="29.76" y="82.69" width="50.09" height="1.12" />
                <rect class="cls-9" x="29.76" y="78.04" width="50.09" height="1.12" />
                <rect class="cls-10" x="29.76" y="73.4" width="50.09" height="1.12" />
                <rect class="cls-11" x="29.76" y="68.75" width="50.09" height="1.12" />
                <rect class="cls-12" x="29.76" y="64.11" width="50.09" height="1.12" />
                <rect class="cls-13" x="29.76" y="59.46" width="50.09" height="1.12" />
                <rect class="cls-14" x="29.76" y="54.81" width="50.09" height="1.12" />
                <rect class="cls-15" x="29.76" y="49.61" width="50.09" height="1.12" />
                <rect class="cls-16" x="29.76" y="45.13" width="50.09" height="1.12" />
                <rect class="cls-17" x="29.76" y="40.74" width="50.09" height="1.12" />
                <rect class="cls-18" x="29.76" y="36.17" width="50.09" height="1.12" />
                <rect class="cls-19" x="30.13" y="30.61" width="50.09" height="1.12" />
                <rect class="cls-20" x="29.76" y="26.15" width="50.09" height="1.12" />
                <rect class="cls-4" x="51.9" y="53.33" width="66.52" height="1.38"
                    transform="translate(31.14 139.18) rotate(-90)" />
                <rect class="cls-4" x="-19.26" y="53.22" width="66.83" height="1.38"
                    transform="translate(-39.75 68.06) rotate(-90)" />
                <rect class="cls-4" x="49.15" y="54.02" width="62.14" height="1.44"
                    transform="translate(25.49 134.96) rotate(-90)" />
                <circle class="cls-21" cx="21.39" cy="53.97" r="2.55" />
                <rect class="cls-22" x="19.62" y="53.74" width="3.55" height="0.46"
                    transform="translate(44.43 0.68) rotate(45)" />
                <rect class="cls-22" x="19.62" y="53.74" width="3.55" height="0.46"
                    transform="translate(74.68 77.01) rotate(135)" />
                <rect class="cls-4" x="105.2" y="52.32" width="13.47" height="3.36" />
                <rect class="cls-4" x="28.31" width="4.67" height="6.91" />
                <rect class="cls-4" x="54.38" width="5.18" height="6.91" />
                <path class="cls-23" d="M118.78,24.26c-3.52,8.55-14.38,11.82-14.38,11.82h14.19Z" />
                <polygon class="cls-24" points="118.78 15.01 105.59 20.9 118.74 20.99 118.78 15.01" />
                <polygon class="cls-25" points="118.87 93.26 105.68 87.37 118.83 87.28 118.87 93.26" />
                <path class="cls-26" d="M118.87,84.17c-3.35-8.56-13.67-11.83-13.67-11.83h13.49Z" />
                <circle class="cls-27" cx="30.6" cy="3.64" r="1.42" />
                <rect class="cls-22" x="29.62" y="3.51" width="1.97" height="0.26"
                    transform="translate(11.53 -20.57) rotate(45)" />
                <rect class="cls-22" x="29.62" y="3.51" width="1.97" height="0.26"
                    transform="translate(54.81 -15.43) rotate(135)" />
                <circle class="cls-28" cx="57.06" cy="3.64" r="1.42" />
                <rect class="cls-22" x="56.08" y="3.51" width="1.97" height="0.26"
                    transform="translate(19.28 -39.28) rotate(45)" />
                <rect class="cls-22" x="56.08" y="3.51" width="1.97" height="0.26"
                    transform="translate(99.98 -34.14) rotate(135)" />
                <rect class="cls-4" x="82.11" y="50.93" width="79.17" height="6.04"
                    transform="translate(67.74 175.64) rotate(-90)" />
                
            </g>
        </g>
    </g>
</svg>