<svg xmlns="http://www.w3.org/2000/svg" xmlns:xlink="http://www.w3.org/1999/xlink" viewBox="0 0 138.47 149.99">
    <defs>
        <style>
            .cls-1 {
                fill: #b0b0b1;
            }

            .cls-2 {
                fill: url(#未命名的渐变_143);
            }

            .cls-3 {
                fill: url(#未命名的渐变_143-2);
            }

            .cls-4 {
                fill: url(#未命名的渐变_143-3);
            }

            .cls-5 {
                fill: url(#未命名的渐变_105);
            }

            .cls-6 {
                fill: url(#未命名的渐变_105-2);
            }

            .cls-7 {
                fill: #ededed;
            }

            .cls-8 {
                fill: #6d6d6d;
            }

            .cls-9 {
                fill: url(#未命名的渐变_105-3);
            }

            .cls-10 {
                fill: url(#未命名的渐变_143-4);
            }

            .cls-11 {
                fill: url(#未命名的渐变_143-5);
            }

            .cls-12 {
                fill: url(#未命名的渐变_143-6);
            }

            .cls-13 {
                fill: url(#未命名的渐变_143-7);
            }

            .cls-14 {
                fill: url(#未命名的渐变_143-8);
            }

            .cls-15 {
                fill: url(#未命名的渐变_143-9);
            }

            .cls-16 {
                fill: url(#未命名的渐变_143-10);
            }

            .cls-17 {
                fill: url(#未命名的渐变_143-11);
            }

            .cls-18 {
                fill: url(#未命名的渐变_143-12);
            }

            .cls-19 {
                fill: url(#未命名的渐变_143-13);
            }

            .cls-20 {
                fill: url(#未命名的渐变_143-14);
            }

            .cls-21 {
                fill: url(#未命名的渐变_143-15);
            }

            .cls-22 {
                fill: url(#未命名的渐变_143-16);
            }

            .cls-23 {
                fill: url(#未命名的渐变_143-17);
            }

            .cls-24 {
                fill: url(#未命名的渐变_143-18);
            }

            .cls-25 {
                fill: url(#未命名的渐变_143-19);
            }

            .cls-26 {
                fill: url(#未命名的渐变_143-20);
            }

            .cls-27 {
                fill: url(#未命名的渐变_143-21);
            }

            .cls-28 {
                fill: url(#未命名的渐变_143-22);
            }

            .cls-29 {
                opacity: 0.2;
            }
        </style>
        <linearGradient id="未命名的渐变_143" x1="-573.72" y1="38.96" x2="-573.72" y2="97.2"
            gradientTransform="matrix(1, 0, 0, -1, 651.51, 136.16)" gradientUnits="userSpaceOnUse">
            <stop offset="0" stop-color="#b7b7b7" />
            <stop offset="0.03" stop-color="#9b9d9d" />
            <stop offset="0.07" stop-color="#878b8b" />
            <stop offset="0.09" stop-color="#808484" />
            <stop offset="0.2" stop-color="#a3a6a6" />
            <stop offset="0.49" stop-color="#f6f6f6" />
            <stop offset="0.61" stop-color="#f3f3f3" />
            <stop offset="0.7" stop-color="#eaeaea" />
            <stop offset="0.77" stop-color="#dbdbdb" />
            <stop offset="0.83" stop-color="#c5c5c5" />
            <stop offset="0.9" stop-color="#aaa" />
            <stop offset="0.95" stop-color="#888" />
            <stop offset="1" stop-color="#666" />
        </linearGradient>
        <linearGradient id="未命名的渐变_143-2" x1="-309.75" y1="-431.96" x2="-173.4" y2="-431.96"
            gradientTransform="translate(247.32 500.14)" xlink:href="#未命名的渐变_143" />
        <linearGradient id="未命名的渐变_143-3" x1="-287.92" y1="-442.3" x2="-195.57" y2="-442.3"
            gradientTransform="translate(257.83 510.31)" xlink:href="#未命名的渐变_143" />
        <linearGradient id="未命名的渐变_105" x1="-270.56" y1="-550.61" x2="-212.35" y2="-550.61"
            gradientTransform="translate(365.84 618.91)" gradientUnits="userSpaceOnUse">
            <stop offset="0" stop-color="#e2e2e2" />
            <stop offset="0.03" stop-color="#d0d0d0" />
            <stop offset="0.06" stop-color="#bcbcbc" />
            <stop offset="0.09" stop-color="#b5b5b5" />
            <stop offset="0.49" stop-color="#f6f6f6" />
            <stop offset="0.63" stop-color="#f3f3f3" />
            <stop offset="0.73" stop-color="#eaeaea" />
            <stop offset="0.82" stop-color="#dbdbdb" />
            <stop offset="0.9" stop-color="#c6c6c6" />
            <stop offset="0.97" stop-color="#aaa" />
            <stop offset="1" stop-color="#9b9b9b" />
        </linearGradient>
        <linearGradient id="未命名的渐变_105-2" x1="31.13" y1="97.69" x2="111.84" y2="97.69"
            gradientTransform="matrix(1, 0, 0, 1, 0, 0)" xlink:href="#未命名的渐变_105" />
        <linearGradient id="未命名的渐变_105-3" x1="58.57" y1="97.69" x2="84.4" y2="97.69"
            gradientTransform="matrix(1, 0, 0, 1, 0, 0)" xlink:href="#未命名的渐变_105" />
        <linearGradient id="未命名的渐变_143-4" x1="-267.19" y1="-563.04" x2="-259.97" y2="-563.04"
            gradientTransform="translate(400.4 609.2)" xlink:href="#未命名的渐变_143" />
        <linearGradient id="未命名的渐变_143-5" x1="-245.14" y1="-562.99" x2="-237.92" y2="-562.99"
            gradientTransform="translate(378.3 631.21)" xlink:href="#未命名的渐变_143" />
        <linearGradient id="未命名的渐变_143-6" x1="-222.82" y1="-562.99" x2="-215.61" y2="-562.99"
            gradientTransform="translate(355.98 653.52)" xlink:href="#未命名的渐变_143" />
        <linearGradient id="未命名的渐变_143-7" x1="41.52" y1="76.44" x2="50.88" y2="76.44"
            gradientTransform="matrix(1, 0, 0, 1, 0, 0)" xlink:href="#未命名的渐变_143" />
        <linearGradient id="未命名的渐变_143-8" x1="43.66" y1="76.44" x2="48.74" y2="76.44"
            gradientTransform="matrix(1, 0, 0, 1, 0, 0)" xlink:href="#未命名的渐变_143" />
        <linearGradient id="未命名的渐变_143-9" x1="92.91" y1="76.44" x2="102.28" y2="76.44"
            gradientTransform="matrix(1, 0, 0, 1, 0, 0)" xlink:href="#未命名的渐变_143" />
        <linearGradient id="未命名的渐变_143-10" x1="95.06" y1="76.44" x2="100.13" y2="76.44"
            gradientTransform="matrix(1, 0, 0, 1, 0, 0)" xlink:href="#未命名的渐变_143" />
        <linearGradient id="未命名的渐变_143-11" x1="92.91" y1="119.65" x2="102.28" y2="119.65"
            gradientTransform="matrix(1, 0, 0, 1, 0, 0)" xlink:href="#未命名的渐变_143" />
        <linearGradient id="未命名的渐变_143-12" x1="95.06" y1="119.65" x2="100.13" y2="119.65"
            gradientTransform="matrix(1, 0, 0, 1, 0, 0)" xlink:href="#未命名的渐变_143" />
        <linearGradient id="未命名的渐变_143-13" x1="66.8" y1="63.45" x2="76.17" y2="63.45"
            gradientTransform="matrix(1, 0, 0, 1, 0, 0)" xlink:href="#未命名的渐变_143" />
        <linearGradient id="未命名的渐变_143-14" x1="68.95" y1="63.45" x2="74.02" y2="63.45"
            gradientTransform="matrix(1, 0, 0, 1, 0, 0)" xlink:href="#未命名的渐变_143" />
        <linearGradient id="未命名的渐变_143-15" x1="100.13" y1="97.69" x2="109.5" y2="97.69"
            gradientTransform="matrix(1, 0, 0, 1, 0, 0)" xlink:href="#未命名的渐变_143" />
        <linearGradient id="未命名的渐变_143-16" x1="102.28" y1="97.69" x2="107.35" y2="97.69"
            gradientTransform="matrix(1, 0, 0, 1, 0, 0)" xlink:href="#未命名的渐变_143" />
        <linearGradient id="未命名的渐变_143-17" x1="66.3" y1="132.76" x2="75.67" y2="132.76"
            gradientTransform="matrix(1, 0, 0, 1, 0, 0)" xlink:href="#未命名的渐变_143" />
        <linearGradient id="未命名的渐变_143-18" x1="68.45" y1="132.76" x2="73.52" y2="132.76"
            gradientTransform="matrix(1, 0, 0, 1, 0, 0)" xlink:href="#未命名的渐变_143" />
        <linearGradient id="未命名的渐变_143-19" x1="34.8" y1="97.4" x2="44.16" y2="97.4"
            gradientTransform="matrix(1, 0, 0, 1, 0, 0)" xlink:href="#未命名的渐变_143" />
        <linearGradient id="未命名的渐变_143-20" x1="36.94" y1="97.4" x2="42.02" y2="97.4"
            gradientTransform="matrix(1, 0, 0, 1, 0, 0)" xlink:href="#未命名的渐变_143" />
        <linearGradient id="未命名的渐变_143-21" x1="41.52" y1="119.65" x2="50.88" y2="119.65"
            gradientTransform="matrix(1, 0, 0, 1, 0, 0)" xlink:href="#未命名的渐变_143" />
        <linearGradient id="未命名的渐变_143-22" x1="43.66" y1="119.65" x2="48.74" y2="119.65"
            gradientTransform="matrix(1, 0, 0, 1, 0, 0)" xlink:href="#未命名的渐变_143" />
    </defs>
    <title>Motor 12(发动机12)</title>
    <g id="图层_2" data-name="图层 2">
        <g id="图层_19" data-name="图层 19">
            <g id="Motor_12_发动机12_" data-name="Motor 12(发动机12)">
                <rect class="cls-1" x="63.38" y="111.95" width="16.04" height="55.12"
                    transform="translate(210.91 68.11) rotate(90)" />
                <rect class="cls-2" x="20.68" y="38.96" width="114.23" height="58.25"
                    transform="translate(155.58 136.16) rotate(180)" />
                <rect class="cls-3" x="-62.43" y="62.43" width="136.35" height="11.49"
                    transform="translate(73.92 62.43) rotate(90)" />
                <path class="cls-4"
                    d="M-29.2,63.41H61.37a.88.88,0,0,1,.88.88v8.3a0,0,0,0,1,0,0H-30.09a0,0,0,0,1,0,0V64.3a.88.88,0,0,1,.88-.88Z"
                    transform="translate(84.09 51.92) rotate(90)" />
                <rect class="cls-5" x="95.28" y="66.63" width="58.21" height="3.33"
                    transform="translate(192.69 -56.09) rotate(90)" />
                <rect class="cls-1" x="37" y="147.53" width="73.24" height="2.46"
                    transform="translate(147.25 297.52) rotate(180)" />
                <circle class="cls-1" cx="71.49" cy="97.69" r="43.95" />
                <circle class="cls-6" cx="71.49" cy="97.69" r="40.36" />
                <circle class="cls-7" cx="71.49" cy="97.69" r="20.3" />
                <circle class="cls-8" cx="71.49" cy="97.69" r="17.91" />
                <circle class="cls-9" cx="71.49" cy="97.69" r="12.91" />
                <circle class="cls-8" cx="71.49" cy="97.69" r="9.44" />
                <rect class="cls-10" x="133.21" y="44.52" width="7.21" height="3.3"
                    transform="translate(182.99 -90.65) rotate(90)" />
                <rect class="cls-1" x="108.33" y="29.79" width="5.89" height="12.92"
                    transform="translate(147.52 -75.03) rotate(90)" />
                <rect class="cls-11" x="133.16" y="66.57" width="7.21" height="3.3"
                    transform="translate(204.99 -68.55) rotate(90)" />
                <rect class="cls-12" x="133.16" y="88.88" width="7.21" height="3.3"
                    transform="translate(227.3 -46.23) rotate(90)" />
                <polygon class="cls-13"
                    points="43.86 80.49 48.54 80.49 50.88 76.44 48.54 72.38 43.86 72.38 41.52 76.44 43.86 80.49" />
                <circle class="cls-14" cx="46.2" cy="76.44" r="2.54" />
                <rect class="cls-1" x="45.7" y="73.9" width="1" height="5.07" />
                <polygon class="cls-15"
                    points="95.25 80.49 99.94 80.49 102.28 76.44 99.94 72.38 95.25 72.38 92.91 76.44 95.25 80.49" />
                <circle class="cls-16" cx="97.59" cy="76.44" r="2.54" />
                <rect class="cls-1" x="97.09" y="73.9" width="1" height="5.07" />
                <polygon class="cls-17"
                    points="95.25 123.7 99.94 123.7 102.28 119.65 99.94 115.59 95.25 115.59 92.91 119.65 95.25 123.7" />
                <circle class="cls-18" cx="97.59" cy="119.65" r="2.54" />
                <rect class="cls-1" x="97.09" y="117.11" width="1" height="5.07" />
                <polygon class="cls-19"
                    points="69.14 67.5 73.83 67.5 76.17 63.45 73.83 59.39 69.14 59.39 66.8 63.45 69.14 67.5" />
                <circle class="cls-20" cx="71.49" cy="63.45" r="2.54" />
                <rect class="cls-1" x="70.99" y="60.91" width="1" height="5.07" />
                <polygon class="cls-21"
                    points="102.47 101.74 107.16 101.74 109.5 97.69 107.16 93.63 102.47 93.63 100.13 97.69 102.47 101.74" />
                <circle class="cls-22" cx="104.81" cy="97.69" r="2.54" />
                <rect class="cls-1" x="104.31" y="95.15" width="1" height="5.07" />
                <polygon class="cls-23"
                    points="68.64 136.81 73.33 136.81 75.67 132.76 73.33 128.7 68.64 128.7 66.3 132.76 68.64 136.81" />
                <circle class="cls-24" cx="70.99" cy="132.76" r="2.54" />
                <rect class="cls-1" x="70.49" y="130.22" width="1" height="5.07" />
                <polygon class="cls-25"
                    points="37.14 101.46 41.82 101.46 44.16 97.4 41.82 93.35 37.14 93.35 34.8 97.4 37.14 101.46" />
                <circle class="cls-26" cx="39.48" cy="97.4" r="2.54" />
                <rect class="cls-1" x="38.98" y="94.87" width="1" height="5.07" />
                <polygon class="cls-27"
                    points="43.86 123.7 48.54 123.7 50.88 119.65 48.54 115.59 43.86 115.59 41.52 119.65 43.86 123.7" />
                <circle class="cls-28" cx="46.2" cy="119.65" r="2.54" />
                <rect class="cls-1" x="45.7" y="117.11" width="1" height="5.07" />
                
            </g>
        </g>
    </g>
</svg>