<svg xmlns="http://www.w3.org/2000/svg" xmlns:xlink="http://www.w3.org/1999/xlink" viewBox="0 0 150 78.9">
    <defs>
        <style>
            .cls-1 {
                fill: url(#未命名的渐变_143);
            }

            .cls-2 {
                fill: url(#未命名的渐变_143-2);
            }

            .cls-3 {
                fill: #b0b0b1;
            }

            .cls-4 {
                fill: url(#未命名的渐变_14);
            }

            .cls-5 {
                fill: url(#未命名的渐变_143-3);
            }

            .cls-6 {
                fill: url(#未命名的渐变_143-4);
            }

            .cls-7 {
                fill: url(#未命名的渐变_14-2);
            }

            .cls-8 {
                fill: url(#未命名的渐变_14-3);
            }

            .cls-9 {
                opacity: 0.2;
            }
        </style>
        <linearGradient id="未命名的渐变_143" x1="89.4" y1="73.32" x2="89.4" y2="24.22" gradientUnits="userSpaceOnUse">
            <stop offset="0" stop-color="#b7b7b7" />
            <stop offset="0.03" stop-color="#9b9d9d" />
            <stop offset="0.07" stop-color="#878b8b" />
            <stop offset="0.09" stop-color="#808484" />
            <stop offset="0.2" stop-color="#a3a6a6" />
            <stop offset="0.49" stop-color="#f6f6f6" />
            <stop offset="0.61" stop-color="#f3f3f3" />
            <stop offset="0.7" stop-color="#eaeaea" />
            <stop offset="0.77" stop-color="#dbdbdb" />
            <stop offset="0.83" stop-color="#c5c5c5" />
            <stop offset="0.9" stop-color="#aaa" />
            <stop offset="0.95" stop-color="#888" />
            <stop offset="1" stop-color="#666" />
        </linearGradient>
        <linearGradient id="未命名的渐变_143-2" x1="1084.92" y1="51.03" x2="1084.92" y2="28.64"
            gradientTransform="matrix(1, 0, 0, -1, -1065.77, 79.68)" xlink:href="#未命名的渐变_143" />
        <linearGradient id="未命名的渐变_14" x1="1021.31" y1="24.22" x2="1021.31"
            gradientTransform="matrix(1, 0, 0, -1, -938.54, 24.22)" gradientUnits="userSpaceOnUse">
            <stop offset="0" stop-color="#ccc" />
            <stop offset="0.01" stop-color="#bbb" />
            <stop offset="0.03" stop-color="#a7a7a7" />
            <stop offset="0.04" stop-color="#a0a0a0" />
            <stop offset="0.04" stop-color="#a0a0a0" />
            <stop offset="0.08" stop-color="#bbb" />
            <stop offset="0.12" stop-color="#d1d1d1" />
            <stop offset="0.16" stop-color="#e2e2e2" />
            <stop offset="0.22" stop-color="#ededed" />
            <stop offset="0.31" stop-color="#f4f4f4" />
            <stop offset="0.53" stop-color="#f6f6f6" />
            <stop offset="0.7" stop-color="#f4f4f4" />
            <stop offset="0.78" stop-color="#ececec" />
            <stop offset="0.84" stop-color="#dfdfdf" />
            <stop offset="0.9" stop-color="#cdcdcd" />
            <stop offset="0.94" stop-color="#b5b5b5" />
            <stop offset="0.98" stop-color="#989898" />
            <stop offset="1" stop-color="#898989" />
        </linearGradient>
        <linearGradient id="未命名的渐变_143-3" x1="1088.72" y1="46.46" x2="1088.72" y2="32.93"
            gradientTransform="matrix(1, 0, 0, -1, -1073.37, 79.39)" xlink:href="#未命名的渐变_143" />
        <linearGradient id="未命名的渐变_143-4" x1="1096.93" y1="45.15" x2="1096.93" y2="34.2"
            gradientTransform="matrix(1, 0, 0, -1, -1089.78, 79.35)" xlink:href="#未命名的渐变_143" />
        <linearGradient id="未命名的渐变_14-2" x1="498.45" y1="-164.41" x2="558.47" y2="-164.41"
            gradientTransform="translate(-488.76 213.3)" xlink:href="#未命名的渐变_14" />
        <linearGradient id="未命名的渐变_14-3" x1="501.06" y1="-68.46" x2="556.4" y2="-68.46"
            gradientTransform="translate(-393.08 117.08)" xlink:href="#未命名的渐变_14" />
    </defs>
    <title>Motor 1(发动机1)</title>
    <g id="图层_2" data-name="图层 2">
        <g id="图层_19" data-name="图层 19">
            <g id="Motor_1_发动机1_" data-name="Motor 1(发动机1)">
                <rect class="cls-1" x="57.5" y="24.22" width="63.8" height="49.1" />
                <rect class="cls-2" x="16.4" y="28.64" width="5.49" height="22.39"
                    transform="translate(38.3 79.68) rotate(180)" />
                <rect class="cls-3" x="73.45" y="32.07" width="24.87" height="30.29"
                    transform="translate(171.77 94.43) rotate(180)" />
                <rect class="cls-4" x="63.72" width="38.08" height="24.22"
                    transform="translate(165.53 24.22) rotate(180)" />
                <rect class="cls-5" x="14.3" y="32.93" width="2.1" height="13.53"
                    transform="translate(30.7 79.39) rotate(180)" />
                <rect class="cls-6" y="34.2" width="14.3" height="10.96"
                    transform="translate(14.3 79.35) rotate(180)" />
                <path class="cls-7"
                    d="M9.75,31.1H69.64a.06.06,0,0,1,.06.06V66.5a.19.19,0,0,1-.19.19H9.88a.19.19,0,0,1-.19-.19V31.16a.06.06,0,0,1,.06-.06Z"
                    transform="translate(-9.2 88.59) rotate(-90)" />
                <path class="cls-8"
                    d="M108.55,34.27h54.19a.57.57,0,0,1,.57.57V62.27a.7.7,0,0,1-.7.7H108.68a.7.7,0,0,1-.7-.7V34.84a.57.57,0,0,1,.57-.57Z"
                    transform="translate(87.02 184.27) rotate(-90)" />
                <rect class="cls-3" x="63.72" y="4.2" width="38.08" height="0.82" />
                
            </g>
        </g>
    </g>
</svg>