<svg xmlns="http://www.w3.org/2000/svg" xmlns:xlink="http://www.w3.org/1999/xlink" viewBox="0 0 47.6 150">
    <defs>
        <style>
            .cls-1 {
                fill: url(#未命名的渐变_79);
            }

            .cls-2 {
                fill: url(#未命名的渐变_79-2);
            }

            .cls-3 {
                fill: url(#未命名的渐变_79-3);
            }

            .cls-4 {
                fill: #c1c1c1;
                stroke: #c1c1c1;
                stroke-miterlimit: 10;
                stroke-width: 0.1px;
            }

            .cls-5 {
                fill: #7c7c7c;
            }

            .cls-6 {
                fill: #999;
            }

            .cls-7 {
                opacity: 0.2;
            }
        </style>
        <linearGradient id="未命名的渐变_79" x1="5.54" y1="115.37" x2="33.74" y2="115.37"
            gradientTransform="translate(-95.73 135.01) rotate(-90)" gradientUnits="userSpaceOnUse">
            <stop offset="0" stop-color="#ccc" />
            <stop offset="0.03" stop-color="#bbb" />
            <stop offset="0.06" stop-color="#a7a7a7" />
            <stop offset="0.09" stop-color="#a0a0a0" />
            <stop offset="0.1" stop-color="#a3a3a3" />
            <stop offset="0.49" stop-color="#f6f6f6" />
            <stop offset="0.62" stop-color="#f3f3f3" />
            <stop offset="0.72" stop-color="#eaeaea" />
            <stop offset="0.8" stop-color="#dbdbdb" />
            <stop offset="0.87" stop-color="#c5c5c5" />
            <stop offset="0.94" stop-color="#aaa" />
            <stop offset="1" stop-color="#898989" />
        </linearGradient>
        <linearGradient id="未命名的渐变_79-2" x1="6.73" y1="62.12" x2="32.55" y2="62.12"
            gradientTransform="translate(-42.48 81.76) rotate(-90)" xlink:href="#未命名的渐变_79" />
        <linearGradient id="未命名的渐变_79-3" x1="8.56" y1="21.19" x2="30.72" y2="21.19"
            gradientTransform="translate(-1.55 40.83) rotate(-90)" xlink:href="#未命名的渐变_79" />
    </defs>
    <title>Brick exhaust stack（砖砌排气筒）</title>
    <g id="图层_2" data-name="图层 2">
        <g id="图层_40" data-name="图层 40">
            <g id="Brick_exhaust_stack_砖砌排气筒_" data-name="Brick exhaust stack（砖砌排气筒）">
                <rect class="cls-1" x="-12.19" y="101.27" width="63.67" height="28.19"
                    transform="translate(135.01 95.73) rotate(90)" />
                <rect class="cls-2" x="-1.56" y="49.21" width="42.4" height="25.82"
                    transform="translate(81.76 42.48) rotate(90)" />
                <rect class="cls-3" x="-0.1" y="10.11" width="39.48" height="22.16"
                    transform="translate(40.83 1.55) rotate(90)" />
                <line class="cls-4" x1="8.56" y1="5.5" x2="30.72" y2="5.5" />
                <line class="cls-4" x1="8.56" y1="9.78" x2="30.72" y2="9.78" />
                <line class="cls-4" x1="8.56" y1="14.18" x2="30.72" y2="14.18" />
                <line class="cls-4" x1="8.56" y1="18.58" x2="30.72" y2="18.58" />
                <line class="cls-4" x1="8.56" y1="22.98" x2="30.72" y2="22.98" />
                <line class="cls-4" x1="8.56" y1="27.38" x2="30.72" y2="27.38" />
                <line class="cls-4" x1="8.56" y1="31.78" x2="30.72" y2="31.78" />
                <line class="cls-4" x1="8.56" y1="36.24" x2="30.72" y2="36.24" />
                <line class="cls-4" x1="6.73" y1="44.77" x2="32.55" y2="44.77" />
                <line class="cls-4" x1="6.73" y1="48.92" x2="32.55" y2="48.92" />
                <line class="cls-4" x1="6.73" y1="53.33" x2="32.55" y2="53.33" />
                <line class="cls-4" x1="6.73" y1="57.74" x2="32.55" y2="57.74" />
                <line class="cls-4" x1="6.73" y1="62.15" x2="32.55" y2="62.15" />
                <line class="cls-4" x1="6.73" y1="66.56" x2="32.55" y2="66.56" />
                <line class="cls-4" x1="6.73" y1="53.33" x2="32.55" y2="53.33" />
                <line class="cls-4" x1="6.73" y1="70.97" x2="32.55" y2="70.97" />
                <line class="cls-4" x1="6.73" y1="57.74" x2="32.55" y2="57.74" />
                <line class="cls-4" x1="6.73" y1="75.38" x2="32.55" y2="75.38" />
                <line class="cls-4" x1="5.76" y1="86.97" x2="33.52" y2="86.97" />
                <line class="cls-4" x1="5.54" y1="91.12" x2="33.74" y2="91.12" />
                <line class="cls-4" x1="5.54" y1="95.53" x2="33.74" y2="95.53" />
                <line class="cls-4" x1="5.54" y1="99.94" x2="33.74" y2="99.94" />
                <line class="cls-4" x1="5.54" y1="104.35" x2="33.74" y2="104.35" />
                <line class="cls-4" x1="5.54" y1="108.76" x2="33.74" y2="108.76" />
                <line class="cls-4" x1="5.54" y1="95.53" x2="33.74" y2="95.53" />
                <line class="cls-4" x1="5.54" y1="113.17" x2="33.74" y2="113.17" />
                <line class="cls-4" x1="5.54" y1="99.94" x2="33.74" y2="99.94" />
                <line class="cls-4" x1="5.54" y1="117.57" x2="33.74" y2="117.57" />
                <line class="cls-4" x1="5.54" y1="121.98" x2="33.74" y2="121.98" />
                <line class="cls-4" x1="5.54" y1="126.39" x2="33.74" y2="126.39" />
                <line class="cls-4" x1="5.54" y1="130.8" x2="33.74" y2="130.8" />
                <line class="cls-4" x1="5.54" y1="135.21" x2="33.74" y2="135.21" />
                <line class="cls-4" x1="5.54" y1="139.62" x2="33.74" y2="139.62" />
                <line class="cls-4" x1="5.54" y1="144.03" x2="33.74" y2="144.03" />
                <line class="cls-4" x1="6.76" y1="79.63" x2="32.52" y2="79.63" />
                <rect class="cls-5" x="18.92" y="-10.98" width="1.45" height="23.41"
                    transform="translate(20.36 -18.92) rotate(90)" />
                <rect class="cls-5" x="19.31" y="29.43" width="0.66" height="22.16"
                    transform="translate(60.15 20.87) rotate(90)" />
                <rect class="cls-5" x="19.44" y="70.44" width="0.39" height="25.76"
                    transform="translate(102.96 63.68) rotate(90)" />
                <rect class="cls-6" x="18.24" y="132.88" width="2.8" height="31.43"
                    transform="translate(168.24 128.96) rotate(90)" />
                
            </g>
        </g>
    </g>
</svg>