<svg xmlns="http://www.w3.org/2000/svg" xmlns:xlink="http://www.w3.org/1999/xlink" viewBox="0 0 51.49 150">
    <defs>
        <style>
            .cls-1 {
                fill: url(#未命名的渐变_79);
            }

            .cls-2 {
                fill: url(#未命名的渐变_79-2);
            }

            .cls-3 {
                fill: url(#未命名的渐变_79-3);
            }

            .cls-4 {
                fill: url(#未命名的渐变_79-4);
            }

            .cls-5 {
                fill: url(#未命名的渐变_79-5);
            }

            .cls-6 {
                fill: #c1c1c1;
                stroke: #c1c1c1;
                stroke-miterlimit: 10;
                stroke-width: 0.1px;
            }

            .cls-7 {
                fill: #7c7c7c;
            }

            .cls-8 {
                fill: #999;
            }

            .cls-9 {
                opacity: 0.2;
            }
        </style>
        <linearGradient id="未命名的渐变_79" y1="81.6" x2="51.49" y2="81.6"
            gradientTransform="translate(-55.85 107.35) rotate(-90)" gradientUnits="userSpaceOnUse">
            <stop offset="0" stop-color="#ccc" />
            <stop offset="0.03" stop-color="#bbb" />
            <stop offset="0.06" stop-color="#a7a7a7" />
            <stop offset="0.09" stop-color="#a0a0a0" />
            <stop offset="0.1" stop-color="#a3a3a3" />
            <stop offset="0.49" stop-color="#f6f6f6" />
            <stop offset="0.62" stop-color="#f3f3f3" />
            <stop offset="0.72" stop-color="#eaeaea" />
            <stop offset="0.8" stop-color="#dbdbdb" />
            <stop offset="0.87" stop-color="#c5c5c5" />
            <stop offset="0.94" stop-color="#aaa" />
            <stop offset="1" stop-color="#898989" />
        </linearGradient>
        <linearGradient id="未命名的渐变_79-2" x1="2.66" y1="38.63" x2="48.83" y2="38.63"
            gradientTransform="translate(-12.88 64.38) rotate(-90)" xlink:href="#未命名的渐变_79" />
        <linearGradient id="未命名的渐变_79-3" x1="11.65" y1="115.37" x2="39.84" y2="115.37"
            gradientTransform="translate(-89.62 141.11) rotate(-90)" xlink:href="#未命名的渐变_79" />
        <linearGradient id="未命名的渐变_79-4" x1="12.83" y1="62.12" x2="38.66" y2="62.12"
            gradientTransform="translate(-36.38 87.87) rotate(-90)" xlink:href="#未命名的渐变_79" />
        <linearGradient id="未命名的渐变_79-5" x1="14.67" y1="21.19" x2="36.83" y2="21.19"
            gradientTransform="translate(4.56 46.93) rotate(-90)" xlink:href="#未命名的渐变_79" />
    </defs>
    <title>Brick exhaust stack with deck(带甲板的砖烟囱)</title>
    <g id="图层_2" data-name="图层 2">
        <g id="图层_40" data-name="图层 40">
            <g id="Brick_exhaust_stack_with_deck_带甲板的砖烟囱_" data-name="Brick exhaust stack with deck(带甲板的砖烟囱)">
                <rect class="cls-1" x="23.82" y="55.85" width="3.86" height="51.49"
                    transform="matrix(0, 1, -1, 0, 107.35, 55.85)" />
                <rect class="cls-2" x="23.45" y="15.54" width="4.59" height="46.17"
                    transform="translate(64.38 12.88) rotate(90)" />
                <rect class="cls-3" x="-6.09" y="101.27" width="63.67" height="28.19"
                    transform="translate(141.11 89.62) rotate(90)" />
                <rect class="cls-4" x="4.55" y="49.21" width="42.4" height="25.82"
                    transform="translate(87.87 36.38) rotate(90)" />
                <rect class="cls-5" x="6.01" y="10.11" width="39.48" height="22.16"
                    transform="translate(46.93 -4.56) rotate(90)" />
                <line class="cls-6" x1="14.67" y1="5.5" x2="36.83" y2="5.5" />
                <line class="cls-6" x1="14.67" y1="9.78" x2="36.83" y2="9.78" />
                <line class="cls-6" x1="14.67" y1="14.18" x2="36.83" y2="14.18" />
                <line class="cls-6" x1="14.67" y1="18.58" x2="36.83" y2="18.58" />
                <line class="cls-6" x1="14.67" y1="22.98" x2="36.83" y2="22.98" />
                <line class="cls-6" x1="14.67" y1="27.38" x2="36.83" y2="27.38" />
                <line class="cls-6" x1="14.67" y1="31.78" x2="36.83" y2="31.78" />
                <line class="cls-6" x1="14.67" y1="36.24" x2="36.83" y2="36.24" />
                <line class="cls-6" x1="12.83" y1="44.77" x2="38.66" y2="44.77" />
                <line class="cls-6" x1="12.83" y1="48.92" x2="38.66" y2="48.92" />
                <line class="cls-6" x1="12.83" y1="53.33" x2="38.66" y2="53.33" />
                <line class="cls-6" x1="12.83" y1="57.74" x2="38.66" y2="57.74" />
                <line class="cls-6" x1="12.83" y1="62.15" x2="38.66" y2="62.15" />
                <line class="cls-6" x1="12.83" y1="66.56" x2="38.66" y2="66.56" />
                <line class="cls-6" x1="12.83" y1="53.33" x2="38.66" y2="53.33" />
                <line class="cls-6" x1="12.83" y1="70.97" x2="38.66" y2="70.97" />
                <line class="cls-6" x1="12.83" y1="57.74" x2="38.66" y2="57.74" />
                <line class="cls-6" x1="12.83" y1="75.38" x2="38.66" y2="75.38" />
                <line class="cls-6" x1="11.87" y1="86.97" x2="39.62" y2="86.97" />
                <line class="cls-6" x1="11.65" y1="91.12" x2="39.84" y2="91.12" />
                <line class="cls-6" x1="11.65" y1="95.53" x2="39.84" y2="95.53" />
                <line class="cls-6" x1="11.65" y1="99.94" x2="39.84" y2="99.94" />
                <line class="cls-6" x1="11.65" y1="104.35" x2="39.84" y2="104.35" />
                <line class="cls-6" x1="11.65" y1="108.76" x2="39.84" y2="108.76" />
                <line class="cls-6" x1="11.65" y1="95.53" x2="39.84" y2="95.53" />
                <line class="cls-6" x1="11.65" y1="113.17" x2="39.84" y2="113.17" />
                <line class="cls-6" x1="11.65" y1="99.94" x2="39.84" y2="99.94" />
                <line class="cls-6" x1="11.65" y1="117.57" x2="39.84" y2="117.57" />
                <line class="cls-6" x1="11.65" y1="121.98" x2="39.84" y2="121.98" />
                <line class="cls-6" x1="11.65" y1="126.39" x2="39.84" y2="126.39" />
                <line class="cls-6" x1="11.65" y1="130.8" x2="39.84" y2="130.8" />
                <line class="cls-6" x1="11.65" y1="135.21" x2="39.84" y2="135.21" />
                <line class="cls-6" x1="11.65" y1="139.62" x2="39.84" y2="139.62" />
                <line class="cls-6" x1="11.65" y1="144.03" x2="39.84" y2="144.03" />
                <line class="cls-6" x1="12.87" y1="79.63" x2="38.62" y2="79.63" />
                <rect class="cls-7" x="25.02" y="-10.98" width="1.45" height="23.41"
                    transform="translate(26.47 -25.02) rotate(90)" />
                <rect class="cls-7" x="25.42" y="29.52" width="0.66" height="22.16"
                    transform="translate(66.34 14.85) rotate(90)" />
                <rect class="cls-7" x="25.55" y="70.44" width="0.39" height="25.76"
                    transform="translate(109.07 57.58) rotate(90)" />
                <rect class="cls-8" x="24.35" y="132.88" width="2.8" height="31.43"
                    transform="translate(174.35 122.85) rotate(90)" />
                
            </g>
        </g>
    </g>
</svg>