<svg xmlns="http://www.w3.org/2000/svg" viewBox="0 0 150 105.22">
    <defs>
        <style>
            .cls-1 {
                fill: #848484;
            }

            .cls-2 {
                fill: #c1c1c1;
            }

            .cls-3 {
                fill: #fbfbfb;
            }

            .cls-4 {
                opacity: 0.2;
            }
        </style>
    </defs>
    <title>Chain link fence（铁丝网围栏）</title>
    <g id="图层_2" data-name="图层 2">
        <g id="图层_40" data-name="图层 40">
            <g id="Chain_link_fence_铁丝网围栏_" data-name="Chain link fence（铁丝网围栏）">
                <rect class="cls-1" width="150" height="105.22" />
                <rect class="cls-2" x="3.7" y="4.57" width="141.09" height="96.09" />
                <rect class="cls-3" x="68.37" y="4.57" width="4.89" height="96.09" />
                <rect class="cls-3" x="42.4" y="4.57" width="5.47" height="96.09" />
                <rect class="cls-3" x="54.86" y="4.57" width="5.9" height="96.09" />
                <rect class="cls-3" x="61.85" y="4.57" width="5.43" height="96.09" />
                <rect class="cls-3" x="35.62" y="4.57" width="5.68" height="96.09" />
                <rect class="cls-3" x="48.95" y="4.57" width="4.82" height="96.09" />
                <rect class="cls-3" x="29.28" y="4.57" width="5.25" height="96.09" />
                <rect class="cls-3" x="3.7" y="4.57" width="4.89" height="96.09" />
                <rect class="cls-3" x="9.68" y="4.57" width="5.97" height="96.09" />
                <rect class="cls-3" x="16.74" y="4.57" width="5.07" height="96.09" />
                <rect class="cls-3" x="22.9" y="4.57" width="5.28" height="96.09" />
                <rect class="cls-3" x="139.93" y="4.57" width="4.85" height="96.09" />
                <rect class="cls-3" x="119.86" y="4.57" width="5.36" height="96.09" />
                <rect class="cls-3" x="74.35" y="4.57" width="5.43" height="96.09" />
                <rect class="cls-3" x="132.76" y="4.57" width="6.08" height="96.09" />
                <rect class="cls-3" x="126.31" y="4.57" width="5.36" height="96.09" />
                <rect class="cls-3" x="106.96" y="4.57" width="5.65" height="96.09" />
                <rect class="cls-3" x="113.7" y="4.57" width="5.07" height="96.09" />
                <rect class="cls-3" x="87.94" y="4.57" width="4.88" height="96.09" />
                <rect class="cls-3" x="80.87" y="4.57" width="5.98" height="96.09" />
                <rect class="cls-3" x="100.43" y="4.57" width="5.43" height="96.09" />
                <rect class="cls-3" x="93.92" y="4.57" width="5.43" height="96.09" />
                <rect class="cls-2" x="3.7" y="10.51" width="141.09" height="0.45" />
                <rect class="cls-2" x="3.7" y="16.9" width="141.09" height="0.45" />
                <rect class="cls-2" x="3.7" y="23.28" width="141.09" height="0.45" />
                <rect class="cls-2" x="3.7" y="29.66" width="141.09" height="0.45" />
                <rect class="cls-2" x="3.7" y="36.5" width="141.09" height="0.45" />
                <rect class="cls-2" x="3.7" y="42.88" width="141.09" height="0.45" />
                <rect class="cls-2" x="3.7" y="49.06" width="141.09" height="0.45" />
                <rect class="cls-2" x="3.7" y="55.42" width="141.09" height="0.45" />
                <rect class="cls-2" x="3.7" y="61.81" width="141.09" height="0.45" />
                <rect class="cls-2" x="3.7" y="68.7" width="141.09" height="0.45" />
                <rect class="cls-2" x="3.7" y="75" width="141.09" height="0.45" />
                <rect class="cls-2" x="3.7" y="81.39" width="141.09" height="0.45" />
                <rect class="cls-2" x="3.7" y="87.57" width="141.09" height="0.45" />
                <rect class="cls-2" x="3.7" y="94.44" width="141.09" height="0.45" />
                
            </g>
        </g>
    </g>
</svg>