<svg xmlns="http://www.w3.org/2000/svg" xmlns:xlink="http://www.w3.org/1999/xlink" viewBox="0 0 63.93 150">
    <defs>
        <style>
            .cls-1 {
                fill: url(#未命名的渐变_105);
            }

            .cls-2 {
                fill: #dcdcdd;
            }

            .cls-3 {
                fill: #eaeaea;
            }

            .cls-4 {
                fill: #f5f5f5;
            }

            .cls-5 {
                fill: url(#未命名的渐变_143);
            }

            .cls-6 {
                fill: url(#未命名的渐变_143-2);
            }

            .cls-7 {
                fill: url(#未命名的渐变_143-3);
            }

            .cls-8 {
                fill: url(#未命名的渐变_143-4);
            }

            .cls-9 {
                fill: url(#未命名的渐变_105-2);
            }

            .cls-10 {
                fill: url(#未命名的渐变_143-5);
            }

            .cls-11 {
                fill: url(#未命名的渐变_143-6);
            }

            .cls-12 {
                fill: url(#未命名的渐变_143-7);
            }

            .cls-13 {
                fill: url(#未命名的渐变_143-8);
            }

            .cls-14 {
                opacity: 0.2;
            }
        </style>
        <linearGradient id="未命名的渐变_105" x1="5.06" y1="86.73" x2="27.38" y2="86.73" gradientUnits="userSpaceOnUse">
            <stop offset="0" stop-color="#e2e2e2" />
            <stop offset="0.03" stop-color="#d0d0d0" />
            <stop offset="0.06" stop-color="#bcbcbc" />
            <stop offset="0.09" stop-color="#b5b5b5" />
            <stop offset="0.49" stop-color="#f6f6f6" />
            <stop offset="0.63" stop-color="#f3f3f3" />
            <stop offset="0.73" stop-color="#eaeaea" />
            <stop offset="0.82" stop-color="#dbdbdb" />
            <stop offset="0.9" stop-color="#c6c6c6" />
            <stop offset="0.97" stop-color="#aaa" />
            <stop offset="1" stop-color="#9b9b9b" />
        </linearGradient>
        <linearGradient id="未命名的渐变_143" x1="9" y1="46.36" x2="23.91" y2="46.36" gradientUnits="userSpaceOnUse">
            <stop offset="0" stop-color="#b7b7b7" />
            <stop offset="0.03" stop-color="#9b9d9d" />
            <stop offset="0.07" stop-color="#878b8b" />
            <stop offset="0.09" stop-color="#808484" />
            <stop offset="0.2" stop-color="#a3a6a6" />
            <stop offset="0.49" stop-color="#f6f6f6" />
            <stop offset="0.61" stop-color="#f3f3f3" />
            <stop offset="0.7" stop-color="#eaeaea" />
            <stop offset="0.77" stop-color="#dbdbdb" />
            <stop offset="0.83" stop-color="#c5c5c5" />
            <stop offset="0.9" stop-color="#aaa" />
            <stop offset="0.95" stop-color="#888" />
            <stop offset="1" stop-color="#666" />
        </linearGradient>
        <linearGradient id="未命名的渐变_143-2" x1="9" y1="42.49" x2="23.91" y2="42.49" xlink:href="#未命名的渐变_143" />
        <linearGradient id="未命名的渐变_143-3" x1="9" y1="38.82" x2="23.91" y2="38.82" xlink:href="#未命名的渐变_143" />
        <linearGradient id="未命名的渐变_143-4" x1="4.04" y1="139.31" x2="28.6" y2="139.31" xlink:href="#未命名的渐变_143" />
        <linearGradient id="未命名的渐变_105-2" x1="29.79" y1="86.73" x2="52.12" y2="86.73" xlink:href="#未命名的渐变_105" />
        <linearGradient id="未命名的渐变_143-5" x1="33.74" y1="46.36" x2="48.65" y2="46.36" xlink:href="#未命名的渐变_143" />
        <linearGradient id="未命名的渐变_143-6" x1="33.74" y1="42.49" x2="48.65" y2="42.49" xlink:href="#未命名的渐变_143" />
        <linearGradient id="未命名的渐变_143-7" x1="33.74" y1="38.82" x2="48.65" y2="38.82" xlink:href="#未命名的渐变_143" />
        <linearGradient id="未命名的渐变_143-8" x1="28.78" y1="139.31" x2="53.33" y2="139.31" xlink:href="#未命名的渐变_143" />
    </defs>
    <title>Chimney（烟囱）</title>
    <g id="图层_2" data-name="图层 2">
        <g id="图层_40" data-name="图层 40">
            <g id="Chimney_烟囱_" data-name="Chimney（烟囱）">
                <path class="cls-1"
                    d="M27.38,135.68H5.06S8.28,99.15,8.53,87.17c.29-13.69.84-49.39.84-49.39h14.2s-.73,38.92-.24,51.32S27.38,135.68,27.38,135.68Z" />
                <path class="cls-2"
                    d="M10.22,37.78V30.59a8.63,8.63,0,0,1,1.55-4.94l.83-1.2a13.71,13.71,0,0,0,2.46-7.83v-3a7.15,7.15,0,0,1,3.56-6.18L22.86,5l2.52-.84,2.84-2.43A7.23,7.23,0,0,1,35.13.34l.93.29A6.27,6.27,0,0,0,39.19.8s1.87-.48,2.23.53c.7,2-5.08,3.69-5.08,3.69l-3.13.53a10.83,10.83,0,0,0-7.11,4.52,13.42,13.42,0,0,0-1.82,3.22c-.16.88.23,2.22.1,3a5.7,5.7,0,0,1-.76,1.63,7.48,7.48,0,0,0-1.07,4.28l.31,6.52.71,9.06H10.22" />
                <path class="cls-3"
                    d="M11,37.78v-7c0-1.71,1-2.07,1.89-3.47l1.48-1.79c1.35-2.23,1.47-5.14,1.47-7.85V14.84c0-2.46.38-5.14,2.23-6.37l3.57-2.39,2.13-.81,3.08-.83C28.46,2.86,30,.82,32,1.55l.78.29A4.67,4.67,0,0,0,35.41,2s1.58-.48,1.88.51c.59,1.94-4.95,2.24-4.95,2.24l-2.64.51c-2.43.47-4.39,2.42-5.79,4.75,0,0-2.47,2.38-2.62,3.31s.2,2.15.09,2.91a5.94,5.94,0,0,1-.64,1.57,8.17,8.17,0,0,0-.9,4.15L21.65,29l.6,8.77H11" />
                <path class="cls-4"
                    d="M11,37.78l.63-6.11a7,7,0,0,1,1.12-4l1.37-1.74a14.15,14.15,0,0,0,2.09-7.16V16c0-2.38.35-5,2.07-6.18l2.58-2.76,2-.79,1.44-.4c1.48-1.53,4.37-.22,4.37-.22L25.91,7.23c-2.25.46-3.39.9-4.69,3.16a27.29,27.29,0,0,0-1.31,3.69c-.13.82-1.06,3-1.16,3.74a6.16,6.16,0,0,1-.6,1.53c-.61,1.2-.09,4.64,0,6l2.75,3.88.55,8.5H11" />
                <rect class="cls-5" x="9" y="45.42" width="14.91" height="1.89" />
                <rect class="cls-6" x="9" y="41.55" width="14.91" height="1.89" />
                <rect class="cls-7" x="9" y="37.87" width="14.91" height="1.89" />
                <polygon class="cls-8" points="28.6 142.94 4.04 142.94 5.26 135.68 27.59 135.68 28.6 142.94" />
                <path class="cls-9"
                    d="M52.12,135.68H29.79S33,99.15,33.27,87.17c.29-13.69.84-49.39.84-49.39H48.3s-.72,38.92-.23,51.32S52.12,135.68,52.12,135.68Z" />
                <path class="cls-2"
                    d="M35,37.78V32.72a5.16,5.16,0,0,1,1.44-3.48l.77-.84a8.13,8.13,0,0,0,2.28-5.52V20.8a5,5,0,0,1,3.3-4.35l3.93-1.73L49,14.13l2.63-1.71a8.4,8.4,0,0,1,6.4-1l.86.21a7.45,7.45,0,0,0,2.9.12s1.74-.34,2.07.37c.65,1.42-4.71,2.6-4.71,2.6l-2.89.37a10.76,10.76,0,0,0-6.6,3.18A9.66,9.66,0,0,0,48,20.54c-.14.62.22,1.56.1,2.11a3.54,3.54,0,0,1-.71,1.15,4.33,4.33,0,0,0-1,3l.28,4.59.66,6.38H35" />
                <path class="cls-3"
                    d="M35.69,37.78v-4.9c0-1.2,1-1.46,1.75-2.44l1.37-1.26c1.25-1.57,1.37-3.62,1.37-5.53v-2c0-1.73.35-3.61,2.06-4.48l3.31-1.68,2-.58,2.85-.58c1.48-1.11,2.89-2.55,4.75-2l.73.2a5.59,5.59,0,0,0,2.44.12s1.46-.33,1.74.36c.55,1.36-4.59,1.57-4.59,1.57L53,14.89a8.57,8.57,0,0,0-5.37,3.35s-2.28,1.67-2.42,2.33.18,1.51.08,2a3.55,3.55,0,0,1-.6,1.12,4.64,4.64,0,0,0-.83,2.91l1.68,5,.56,6.17H35.69" />
                <path class="cls-4"
                    d="M35.69,37.78l.58-4.3a4.12,4.12,0,0,1,1-2.82l1.27-1.22a8.32,8.32,0,0,0,1.94-5v-2c0-1.68.32-3.5,1.91-4.35l2.4-1.94,1.82-.55L48,15.31c1.38-1.08,4.05-.15,4.05-.15L49.5,16.28c-2.09.32-3.14.63-4.35,2.22a17.65,17.65,0,0,0-1.22,2.59c-.11.59-1,2.12-1.07,2.64a3.75,3.75,0,0,1-.55,1.07c-.57.85-.09,3.27,0,4.26l2.56,2.74.51,6H35.69" />
                <rect class="cls-10" x="33.74" y="45.42" width="14.91" height="1.89" />
                <rect class="cls-11" x="33.74" y="41.55" width="14.91" height="1.89" />
                <rect class="cls-12" x="33.74" y="37.87" width="14.91" height="1.89" />
                <polygon class="cls-13" points="53.33 142.94 28.78 142.94 30 135.68 52.33 135.68 53.33 142.94" />
                <rect class="cls-4" y="142.94" width="59.04" height="7.06" />
                
            </g>
        </g>
    </g>
</svg>