<svg xmlns="http://www.w3.org/2000/svg" viewBox="0 0 147.88 149.93">
    <defs>
        <style>
            .cls-1,
            .cls-3 {
                fill: #bababa;
            }

            .cls-2 {
                fill: #898989;
            }

            .cls-3 {
                stroke: #e0e0e2;
                stroke-miterlimit: 10;
                stroke-width: 0.1px;
            }

            .cls-4 {
                fill: #ededed;
            }

            .cls-5 {
                opacity: 0.2;
            }
        </style>
    </defs>
    <title>crane（起重机）</title>
    <g id="图层_2" data-name="图层 2">
        <g id="图层_40" data-name="图层 40">
            <g id="crane_起重机_" data-name="crane（起重机）">
                <rect class="cls-1" x="63.26" y="104.01" width="42.54" height="3.27"
                    transform="translate(35.31 231.67) rotate(-120)" />
                <rect class="cls-1" x="19.29" y="73.86" width="123.2" height="8.49"
                    transform="translate(78.92 -34.32) rotate(45)" />
                <rect class="cls-2" x="60.31" y="93.21" width="69.05" height="1.46"
                    transform="translate(95.46 227.42) rotate(-135)" />
                <rect class="cls-2" x="3.35" y="16.54" width="39.92" height="7.22"
                    transform="translate(21.08 -10.58) rotate(45)" />
                <rect class="cls-2" x="88.21" y="132.96" width="59.36" height="16.96" rx="1.22" />
                <rect class="cls-1" x="89.37" y="134.4" width="56.94" height="14.2" rx="1.22" />
                <rect class="cls-1" x="96.41" y="129.67" width="14.37" height="3.22" />
                <path class="cls-3" d="M113.76,129.67H93.62s-2-15.83.68-25.59h19.46Z" />
                <rect class="cls-1" x="1.26" y="3.36" width="11.21" height="4.09"
                    transform="translate(-1.81 6.44) rotate(-45)" />
                <rect class="cls-1" x="57.13" y="62.8" width="7.15" height="3.86"
                    transform="translate(57.87 153.43) rotate(-135)" />
                <rect class="cls-1" x="10.7" y="11.7" width="9.68" height="1.45"
                    transform="translate(-4.23 14.63) rotate(-45)" />
                <rect class="cls-1" x="18.23" y="19.23" width="9.68" height="1.45"
                    transform="translate(-7.35 22.16) rotate(-45)" />
                <rect class="cls-4" x="55.92" y="75.61" width="24.12" height="2.19"
                    transform="translate(35.55 173.93) rotate(-120)" />
                <rect class="cls-1" x="25.76" y="26.76" width="9.68" height="1.45"
                    transform="translate(-10.47 29.69) rotate(-45)" />
                <polygon class="cls-3" points="5.09 28.9 3.19 28.9 1.57 26.86 6.5 26.86 5.09 28.9" />
                <rect class="cls-3" x="1.1" y="16.72" width="5.91" height="10.13" />
                <rect class="cls-1" x="-0.9" y="10.17" width="6.03" height="1.42"
                    transform="translate(-8.77 13) rotate(-90)" />
                <rect class="cls-1" x="2.98" y="10.17" width="6.03" height="1.42"
                    transform="translate(-4.89 16.88) rotate(-90)" />
                <rect class="cls-3" x="3.16" y="28.9" width="1.93" height="1.12" />
                <path class="cls-3"
                    d="M3.16,30H5.09c0,1.12,0,2.31,0,2.31s0,1.51-2.54,1.51A2.43,2.43,0,0,1,.12,32.29L.05,30.43H1.27v1.85s.22.42,1,.44a1.07,1.07,0,0,0,.87-.47Z" />
                <circle class="cls-4" cx="69.9" cy="68.34" r="2.27" />
                <circle class="cls-1" cx="69.9" cy="68.34" r="1.43" />
                <rect class="cls-1" x="114.07" y="117.17" width="33.81" height="12.5" />
                <rect class="cls-4" x="94.83" y="106.47" width="11.35" height="11.35" />
                <rect class="cls-4" x="108.05" y="106.47" width="4.32" height="11.35"
                    transform="translate(220.42 224.28) rotate(180)" />
                <polygon class="cls-4" points="94.83 127.5 104.45 123.92 104.45 120.24 94.83 120.24 94.83 127.5" />
                <rect class="cls-2" x="89.37" y="139.54" width="56.94" height="4.15" />
                <rect class="cls-3" x="1.41" y="13.57" width="5.3" height="3.15" />
                
            </g>
        </g>
    </g>
</svg>