<svg xmlns="http://www.w3.org/2000/svg" xmlns:xlink="http://www.w3.org/1999/xlink" viewBox="0 0 95.33 150">
    <defs>
        <style>
            .cls-1 {
                fill: url(#未命名的渐变_143);
            }

            .cls-2 {
                fill: url(#未命名的渐变_6);
            }

            .cls-3 {
                fill: url(#未命名的渐变_79);
            }

            .cls-4 {
                fill: url(#未命名的渐变_143-2);
            }

            .cls-5 {
                fill: url(#未命名的渐变_79-2);
            }

            .cls-6 {
                fill: url(#未命名的渐变_79-3);
            }

            .cls-7 {
                fill: url(#未命名的渐变_79-4);
            }

            .cls-8 {
                fill: url(#未命名的渐变_143-3);
            }

            .cls-9 {
                fill: #c1c1c1;
            }

            .cls-10 {
                fill: url(#未命名的渐变_79-5);
            }

            .cls-11 {
                fill: url(#未命名的渐变_79-6);
            }

            .cls-12 {
                fill: url(#未命名的渐变_143-4);
            }

            .cls-13 {
                fill: url(#未命名的渐变_143-5);
            }

            .cls-14 {
                fill: url(#未命名的渐变_143-6);
            }

            .cls-15 {
                fill: url(#未命名的渐变_143-7);
            }

            .cls-16 {
                fill: url(#未命名的渐变_143-8);
            }

            .cls-17 {
                fill: url(#未命名的渐变_143-9);
            }

            .cls-18 {
                fill: url(#未命名的渐变_143-10);
            }

            .cls-19 {
                fill: url(#未命名的渐变_105);
            }

            .cls-20 {
                fill: url(#未命名的渐变_79-7);
            }

            .cls-21 {
                fill: url(#未命名的渐变_143-11);
            }

            .cls-22 {
                opacity: 0.2;
            }
        </style>
        <linearGradient id="未命名的渐变_143" x1="10.74" y1="8.44" x2="13.74" y2="8.44" gradientUnits="userSpaceOnUse">
            <stop offset="0" stop-color="#b7b7b7" />
            <stop offset="0.03" stop-color="#9b9d9d" />
            <stop offset="0.07" stop-color="#878b8b" />
            <stop offset="0.09" stop-color="#808484" />
            <stop offset="0.2" stop-color="#a3a6a6" />
            <stop offset="0.49" stop-color="#f6f6f6" />
            <stop offset="0.61" stop-color="#f3f3f3" />
            <stop offset="0.7" stop-color="#eaeaea" />
            <stop offset="0.77" stop-color="#dbdbdb" />
            <stop offset="0.83" stop-color="#c5c5c5" />
            <stop offset="0.9" stop-color="#aaa" />
            <stop offset="0.95" stop-color="#888" />
            <stop offset="1" stop-color="#666" />
        </linearGradient>
        <linearGradient id="未命名的渐变_6" x1="12.15" y1="16.37" x2="12.15" y2="12.1" gradientUnits="userSpaceOnUse">
            <stop offset="0" stop-color="#b7b7b7" />
            <stop offset="0.03" stop-color="#bababa" />
            <stop offset="0.44" stop-color="#dbdbdb" />
            <stop offset="0.77" stop-color="#efefef" />
            <stop offset="1" stop-color="#f6f6f6" />
        </linearGradient>
        <linearGradient id="未命名的渐变_79" x1="79.01" y1="147.01" x2="89.41" y2="147.01" gradientUnits="userSpaceOnUse">
            <stop offset="0" stop-color="#ccc" />
            <stop offset="0.03" stop-color="#bbb" />
            <stop offset="0.06" stop-color="#a7a7a7" />
            <stop offset="0.09" stop-color="#a0a0a0" />
            <stop offset="0.1" stop-color="#a3a3a3" />
            <stop offset="0.49" stop-color="#f6f6f6" />
            <stop offset="0.62" stop-color="#f3f3f3" />
            <stop offset="0.72" stop-color="#eaeaea" />
            <stop offset="0.8" stop-color="#dbdbdb" />
            <stop offset="0.87" stop-color="#c5c5c5" />
            <stop offset="0.94" stop-color="#aaa" />
            <stop offset="1" stop-color="#898989" />
        </linearGradient>
        <linearGradient id="未命名的渐变_143-2" x1="51.2" y1="77.13" x2="72.99" y2="77.13"
            gradientTransform="translate(-15.03 139.22) rotate(-90)" xlink:href="#未命名的渐变_143" />
        <linearGradient id="未命名的渐变_79-2" x1="60.48" y1="87.93" x2="63.68" y2="87.93" xlink:href="#未命名的渐变_79" />
        <linearGradient id="未命名的渐变_79-3" x1="72.99" y1="99.66" x2="72.99" y2="96.27"
            gradientTransform="translate(-24.97 170.96) rotate(-90)" xlink:href="#未命名的渐变_79" />
        <linearGradient id="未命名的渐变_79-4" x1="75.61" y1="149.39" x2="91.89" y2="149.39"
            gradientTransform="translate(-65.64 233.14) rotate(-90)" xlink:href="#未命名的渐变_79" />
        <linearGradient id="未命名的渐变_143-3" x1="0" y1="17.84" x2="24.3" y2="17.84" xlink:href="#未命名的渐变_143" />
        <linearGradient id="未命名的渐变_79-5" x1="-198.15" y1="-50.65" x2="-196.79" y2="-50.65"
            gradientTransform="matrix(0, -1.9, -1, 0, -3.31, -373.13)" xlink:href="#未命名的渐变_79" />
        <linearGradient id="未命名的渐变_79-6" x1="-172.65" y1="523.81" x2="-171.06" y2="523.81"
            gradientTransform="matrix(0, -1.9, -1, 0, 608.02, -250.94)" xlink:href="#未命名的渐变_79" />
        <linearGradient id="未命名的渐变_143-4" x1="12.81" y1="4.77" x2="12.81" y2="0.56" xlink:href="#未命名的渐变_143" />
        <linearGradient id="未命名的渐变_143-5" x1="62.67" y1="583.22" x2="62.67" y2="578.06"
            gradientTransform="matrix(1, 0, 0, -1, 0, 677.72)" xlink:href="#未命名的渐变_143" />
        <linearGradient id="未命名的渐变_143-6" x1="-632.41" y1="5.92" x2="-632.41" y2="0.78"
            gradientTransform="matrix(-1, 0, 0, 1, -548.76, 0)" xlink:href="#未命名的渐变_143" />
        <linearGradient id="未命名的渐变_143-7" x1="62.03" y1="4.13" x2="62.03" y2="0"
            gradientTransform="translate(59.96 64.09) rotate(-90)" xlink:href="#未命名的渐变_143" />
        <linearGradient id="未命名的渐变_143-8" x1="60.91" y1="22.29" x2="63.15" y2="22.29" xlink:href="#未命名的渐变_143" />
        <linearGradient id="未命名的渐变_143-9" x1="80.74" y1="3.81" x2="80.74" y2="0.48" xlink:href="#未命名的渐变_143" />
        <linearGradient id="未命名的渐变_143-10" x1="-519.36" y1="-29.7" x2="-519.36" y2="-34.19"
            gradientTransform="translate(603.57 116.16)" xlink:href="#未命名的渐变_143" />
        <linearGradient id="未命名的渐变_105" x1="52.15" y1="79.61" x2="72.55" y2="79.61" gradientUnits="userSpaceOnUse">
            <stop offset="0" stop-color="#e2e2e2" />
            <stop offset="0.03" stop-color="#d0d0d0" />
            <stop offset="0.06" stop-color="#bcbcbc" />
            <stop offset="0.09" stop-color="#b5b5b5" />
            <stop offset="0.49" stop-color="#f6f6f6" />
            <stop offset="0.63" stop-color="#f3f3f3" />
            <stop offset="0.73" stop-color="#eaeaea" />
            <stop offset="0.82" stop-color="#dbdbdb" />
            <stop offset="0.9" stop-color="#c6c6c6" />
            <stop offset="0.97" stop-color="#aaa" />
            <stop offset="1" stop-color="#9b9b9b" />
        </linearGradient>
        <linearGradient id="未命名的渐变_79-7" x1="73.88" y1="91.84" x2="73.88" y2="88.61"
            gradientTransform="translate(-16.35 164.1) rotate(-90)" xlink:href="#未命名的渐变_79" />
        <linearGradient id="未命名的渐变_143-11" x1="-513.41" y1="-7.58" x2="-513.41" y2="-12.06"
            gradientTransform="translate(575.49 99.99)" xlink:href="#未命名的渐变_143" />
    </defs>
    <title>Emergency shower（紧急淋浴）</title>
    <g id="图层_2" data-name="图层 2">
        <g id="图层_40" data-name="图层 40">
            <g id="Emergency_shower_紧急淋浴_" data-name="Emergency shower（紧急淋浴）">
                <rect class="cls-1" x="10.74" y="4.77" width="3" height="7.33" />
                <polygon class="cls-2" points="24.3 16.37 0 16.37 10.51 12.1 13.74 12.1 24.3 16.37" />
                <polygon class="cls-3" points="89.41 148.78 79.01 148.78 82.74 145.25 85.72 145.25 89.41 148.78" />
                <rect class="cls-4" x="61.64" y="66.23" width="0.91" height="21.79"
                    transform="translate(139.22 15.03) rotate(90)" />
                <rect class="cls-5" x="60.48" y="81.19" width="3.2" height="13.48" />
                <rect class="cls-6" x="71.3" y="88.26" width="3.38" height="19.41"
                    transform="translate(170.96 24.97) rotate(90)" />
                <rect class="cls-7" x="83.14" y="141.25" width="1.22" height="16.28"
                    transform="translate(233.14 65.64) rotate(90)" />
                <rect class="cls-8" y="16.37" width="24.3" height="2.93" />
                <path class="cls-9" d="M63.15,43.49H60.91l-4.51,12,10.93,0ZM60.56,48.4h3.09l2.16,6-7.56,0Z" />
                <rect class="cls-10" x="14.88" y="0.78" width="64.93" height="2.58" />
                <rect class="cls-11" x="14.54" y="74.07" width="139.33" height="3.02"
                    transform="translate(159.79 -8.63) rotate(90)" />
                <path class="cls-12"
                    d="M14.88,3.28V.59s-2.39-.29-3.54,1c-.91,1-.51,3.13-.51,3.13h2.91A1.61,1.61,0,0,1,14,3.55,1,1,0,0,1,14.88,3.28Z" />
                <path class="cls-13"
                    d="M64.9,96.33v3.29s-2.54.36-3.77-1.28c-1-1.28-.64-3.84-.64-3.84h3.2a2.23,2.23,0,0,0,.25,1.5A1,1,0,0,0,64.9,96.33Z" />
                <path class="cls-14"
                    d="M81.58,4.09V.81S84,.46,85.12,2.09c.91,1.28.51,3.83.51,3.83H82.72a2.41,2.41,0,0,0-.24-1.5A.91.91,0,0,0,81.58,4.09Z" />
                <rect class="cls-15" x="59.96" y="-3.09" width="4.13" height="10.31" rx="0.36"
                    transform="translate(64.09 -59.96) rotate(90)" />
                <rect class="cls-16" x="60.91" y="1.09" width="2.24" height="42.4" />
                <rect class="cls-17" x="79.81" y="0.48" width="1.87" height="3.33" />
                <rect class="cls-18" x="83.51" y="81.97" width="1.4" height="4.49"
                    transform="translate(168.43 0.01) rotate(90)" />
                <path class="cls-19" d="M52.15,80.81V77.58h20.4v3.23l-.63.1a63.94,63.94,0,0,1-19.77-.1Z" />
                <rect class="cls-20" x="72.26" y="79.63" width="3.23" height="21.19"
                    transform="translate(164.1 16.35) rotate(90)" />
                <rect class="cls-21" x="59.84" y="87.93" width="4.49" height="4.49"
                    transform="translate(152.25 28.09) rotate(90)" />
                
            </g>
        </g>
    </g>
</svg>