<svg xmlns="http://www.w3.org/2000/svg" viewBox="0 0 150 101.07">
    <defs>
        <style>
            .cls-1 {
                fill: #a5a5a5;
            }

            .cls-2 {
                fill: #bababa;
            }

            .cls-3 {
                fill: #dcdce2;
            }

            .cls-4 {
                opacity: 0.2;
            }
        </style>
    </defs>
    <title>Guard screen（防护屏）</title>
    <g id="图层_2" data-name="图层 2">
        <g id="图层_40" data-name="图层 40">
            <g id="Guard_screen_防护屏_" data-name="Guard screen（防护屏）">
                <rect class="cls-1" width="150" height="101.07" />
                <rect class="cls-2" x="4.71" y="4.41" width="140.95" height="91.49" />
                <ellipse class="cls-3" cx="9.74" cy="50.62" rx="2.86" ry="2.72" />
                <ellipse class="cls-3" cx="9.74" cy="9.01" rx="2.86" ry="2.72" />
                <ellipse class="cls-3" cx="9.74" cy="17.33" rx="2.86" ry="2.72" />
                <ellipse class="cls-3" cx="9.74" cy="25.65" rx="2.86" ry="2.72" />
                <ellipse class="cls-3" cx="9.74" cy="33.98" rx="2.86" ry="2.72" />
                <ellipse class="cls-3" cx="9.74" cy="42.3" rx="2.86" ry="2.72" />
                <ellipse class="cls-3" cx="9.74" cy="58.95" rx="2.86" ry="2.72" />
                <ellipse class="cls-3" cx="9.74" cy="67.27" rx="2.86" ry="2.72" />
                <ellipse class="cls-3" cx="9.74" cy="75.6" rx="2.86" ry="2.72" />
                <ellipse class="cls-3" cx="9.74" cy="83.92" rx="2.86" ry="2.72" />
                <ellipse class="cls-3" cx="9.74" cy="92.24" rx="2.86" ry="2.72" />
                <ellipse class="cls-3" cx="19.81" cy="50.62" rx="2.86" ry="2.72" />
                <ellipse class="cls-3" cx="19.81" cy="9.01" rx="2.86" ry="2.72" />
                <ellipse class="cls-3" cx="19.81" cy="17.33" rx="2.86" ry="2.72" />
                <ellipse class="cls-3" cx="19.81" cy="25.65" rx="2.86" ry="2.72" />
                <ellipse class="cls-3" cx="19.81" cy="33.98" rx="2.86" ry="2.72" />
                <ellipse class="cls-3" cx="19.81" cy="42.3" rx="2.86" ry="2.72" />
                <ellipse class="cls-3" cx="19.81" cy="58.95" rx="2.86" ry="2.72" />
                <ellipse class="cls-3" cx="19.81" cy="67.27" rx="2.86" ry="2.72" />
                <ellipse class="cls-3" cx="19.81" cy="75.6" rx="2.86" ry="2.72" />
                <ellipse class="cls-3" cx="19.81" cy="83.92" rx="2.86" ry="2.72" />
                <ellipse class="cls-3" cx="19.81" cy="92.24" rx="2.86" ry="2.72" />
                <ellipse class="cls-3" cx="29.87" cy="50.62" rx="2.86" ry="2.72" />
                <ellipse class="cls-3" cx="29.87" cy="9.01" rx="2.86" ry="2.72" />
                <ellipse class="cls-3" cx="29.87" cy="17.33" rx="2.86" ry="2.72" />
                <ellipse class="cls-3" cx="29.87" cy="25.65" rx="2.86" ry="2.72" />
                <ellipse class="cls-3" cx="29.87" cy="33.98" rx="2.86" ry="2.72" />
                <ellipse class="cls-3" cx="29.87" cy="42.3" rx="2.86" ry="2.72" />
                <ellipse class="cls-3" cx="29.87" cy="58.95" rx="2.86" ry="2.72" />
                <ellipse class="cls-3" cx="29.87" cy="67.27" rx="2.86" ry="2.72" />
                <ellipse class="cls-3" cx="29.87" cy="75.6" rx="2.86" ry="2.72" />
                <ellipse class="cls-3" cx="29.87" cy="83.92" rx="2.86" ry="2.72" />
                <ellipse class="cls-3" cx="29.87" cy="92.24" rx="2.86" ry="2.72" />
                <ellipse class="cls-3" cx="39.94" cy="50.62" rx="2.86" ry="2.72" />
                <ellipse class="cls-3" cx="39.94" cy="9.01" rx="2.86" ry="2.72" />
                <ellipse class="cls-3" cx="39.94" cy="17.33" rx="2.86" ry="2.72" />
                <ellipse class="cls-3" cx="39.94" cy="25.65" rx="2.86" ry="2.72" />
                <ellipse class="cls-3" cx="39.94" cy="33.98" rx="2.86" ry="2.72" />
                <ellipse class="cls-3" cx="39.94" cy="42.3" rx="2.86" ry="2.72" />
                <ellipse class="cls-3" cx="39.94" cy="58.95" rx="2.86" ry="2.72" />
                <ellipse class="cls-3" cx="39.94" cy="67.27" rx="2.86" ry="2.72" />
                <ellipse class="cls-3" cx="39.94" cy="75.6" rx="2.86" ry="2.72" />
                <ellipse class="cls-3" cx="39.94" cy="83.92" rx="2.86" ry="2.72" />
                <ellipse class="cls-3" cx="39.94" cy="92.24" rx="2.86" ry="2.72" />
                <ellipse class="cls-3" cx="50.01" cy="50.62" rx="2.86" ry="2.72" />
                <ellipse class="cls-3" cx="50.01" cy="9.01" rx="2.86" ry="2.72" />
                <ellipse class="cls-3" cx="50.01" cy="17.33" rx="2.86" ry="2.72" />
                <ellipse class="cls-3" cx="50.01" cy="25.65" rx="2.86" ry="2.72" />
                <ellipse class="cls-3" cx="50.01" cy="33.98" rx="2.86" ry="2.72" />
                <ellipse class="cls-3" cx="50.01" cy="42.3" rx="2.86" ry="2.72" />
                <ellipse class="cls-3" cx="50.01" cy="58.95" rx="2.86" ry="2.72" />
                <ellipse class="cls-3" cx="50.01" cy="67.27" rx="2.86" ry="2.72" />
                <ellipse class="cls-3" cx="50.01" cy="75.6" rx="2.86" ry="2.72" />
                <ellipse class="cls-3" cx="50.01" cy="83.92" rx="2.86" ry="2.72" />
                <ellipse class="cls-3" cx="50.01" cy="92.24" rx="2.86" ry="2.72" />
                <ellipse class="cls-3" cx="60.08" cy="50.62" rx="2.86" ry="2.72" />
                <ellipse class="cls-3" cx="60.08" cy="9.01" rx="2.86" ry="2.72" />
                <ellipse class="cls-3" cx="60.08" cy="17.33" rx="2.86" ry="2.72" />
                <ellipse class="cls-3" cx="60.08" cy="25.65" rx="2.86" ry="2.72" />
                <ellipse class="cls-3" cx="60.08" cy="33.98" rx="2.86" ry="2.72" />
                <ellipse class="cls-3" cx="60.08" cy="42.3" rx="2.86" ry="2.72" />
                <ellipse class="cls-3" cx="60.08" cy="58.95" rx="2.86" ry="2.72" />
                <ellipse class="cls-3" cx="60.08" cy="67.27" rx="2.86" ry="2.72" />
                <ellipse class="cls-3" cx="60.08" cy="75.6" rx="2.86" ry="2.72" />
                <ellipse class="cls-3" cx="60.08" cy="83.92" rx="2.86" ry="2.72" />
                <ellipse class="cls-3" cx="60.08" cy="92.24" rx="2.86" ry="2.72" />
                <ellipse class="cls-3" cx="70.15" cy="50.62" rx="2.86" ry="2.72" />
                <ellipse class="cls-3" cx="70.15" cy="9.01" rx="2.86" ry="2.72" />
                <ellipse class="cls-3" cx="70.15" cy="17.33" rx="2.86" ry="2.72" />
                <ellipse class="cls-3" cx="70.15" cy="25.65" rx="2.86" ry="2.72" />
                <ellipse class="cls-3" cx="70.15" cy="33.98" rx="2.86" ry="2.72" />
                <ellipse class="cls-3" cx="70.15" cy="42.3" rx="2.86" ry="2.72" />
                <ellipse class="cls-3" cx="70.15" cy="58.95" rx="2.86" ry="2.72" />
                <ellipse class="cls-3" cx="70.15" cy="67.27" rx="2.86" ry="2.72" />
                <ellipse class="cls-3" cx="70.15" cy="75.6" rx="2.86" ry="2.72" />
                <ellipse class="cls-3" cx="70.15" cy="83.92" rx="2.86" ry="2.72" />
                <ellipse class="cls-3" cx="70.15" cy="92.24" rx="2.86" ry="2.72" />
                <ellipse class="cls-3" cx="80.21" cy="50.62" rx="2.86" ry="2.72" />
                <ellipse class="cls-3" cx="80.21" cy="9.01" rx="2.86" ry="2.72" />
                <ellipse class="cls-3" cx="80.21" cy="17.33" rx="2.86" ry="2.72" />
                <ellipse class="cls-3" cx="80.21" cy="25.65" rx="2.86" ry="2.72" />
                <ellipse class="cls-3" cx="80.21" cy="33.98" rx="2.86" ry="2.72" />
                <ellipse class="cls-3" cx="80.21" cy="42.3" rx="2.86" ry="2.72" />
                <ellipse class="cls-3" cx="80.21" cy="58.95" rx="2.86" ry="2.72" />
                <ellipse class="cls-3" cx="80.21" cy="67.27" rx="2.86" ry="2.72" />
                <ellipse class="cls-3" cx="80.21" cy="75.6" rx="2.86" ry="2.72" />
                <ellipse class="cls-3" cx="80.21" cy="83.92" rx="2.86" ry="2.72" />
                <ellipse class="cls-3" cx="80.21" cy="92.24" rx="2.86" ry="2.72" />
                <ellipse class="cls-3" cx="90.28" cy="50.62" rx="2.86" ry="2.72" />
                <ellipse class="cls-3" cx="90.28" cy="9.01" rx="2.86" ry="2.72" />
                <ellipse class="cls-3" cx="90.28" cy="17.33" rx="2.86" ry="2.72" />
                <ellipse class="cls-3" cx="90.28" cy="25.65" rx="2.86" ry="2.72" />
                <ellipse class="cls-3" cx="90.28" cy="33.98" rx="2.86" ry="2.72" />
                <ellipse class="cls-3" cx="90.28" cy="42.3" rx="2.86" ry="2.72" />
                <ellipse class="cls-3" cx="90.28" cy="58.95" rx="2.86" ry="2.72" />
                <ellipse class="cls-3" cx="90.28" cy="67.27" rx="2.86" ry="2.72" />
                <ellipse class="cls-3" cx="90.28" cy="75.6" rx="2.86" ry="2.72" />
                <ellipse class="cls-3" cx="90.28" cy="83.92" rx="2.86" ry="2.72" />
                <ellipse class="cls-3" cx="90.28" cy="92.24" rx="2.86" ry="2.72" />
                <ellipse class="cls-3" cx="100.35" cy="50.62" rx="2.86" ry="2.72" />
                <ellipse class="cls-3" cx="100.35" cy="9.01" rx="2.86" ry="2.72" />
                <ellipse class="cls-3" cx="100.35" cy="17.33" rx="2.86" ry="2.72" />
                <ellipse class="cls-3" cx="100.35" cy="25.65" rx="2.86" ry="2.72" />
                <ellipse class="cls-3" cx="100.35" cy="33.98" rx="2.86" ry="2.72" />
                <ellipse class="cls-3" cx="100.35" cy="42.3" rx="2.86" ry="2.72" />
                <ellipse class="cls-3" cx="100.35" cy="58.95" rx="2.86" ry="2.72" />
                <ellipse class="cls-3" cx="100.35" cy="67.27" rx="2.86" ry="2.72" />
                <ellipse class="cls-3" cx="100.35" cy="75.6" rx="2.86" ry="2.72" />
                <ellipse class="cls-3" cx="100.35" cy="83.92" rx="2.86" ry="2.72" />
                <ellipse class="cls-3" cx="100.35" cy="92.24" rx="2.86" ry="2.72" />
                <ellipse class="cls-3" cx="110.42" cy="50.62" rx="2.86" ry="2.72" />
                <ellipse class="cls-3" cx="110.42" cy="9.01" rx="2.86" ry="2.72" />
                <ellipse class="cls-3" cx="110.42" cy="17.33" rx="2.86" ry="2.72" />
                <ellipse class="cls-3" cx="110.42" cy="25.65" rx="2.86" ry="2.72" />
                <ellipse class="cls-3" cx="110.42" cy="33.98" rx="2.86" ry="2.72" />
                <ellipse class="cls-3" cx="110.42" cy="42.3" rx="2.86" ry="2.72" />
                <ellipse class="cls-3" cx="110.42" cy="58.95" rx="2.86" ry="2.72" />
                <ellipse class="cls-3" cx="110.42" cy="67.27" rx="2.86" ry="2.72" />
                <ellipse class="cls-3" cx="110.42" cy="75.6" rx="2.86" ry="2.72" />
                <ellipse class="cls-3" cx="110.42" cy="83.92" rx="2.86" ry="2.72" />
                <ellipse class="cls-3" cx="110.42" cy="92.24" rx="2.86" ry="2.72" />
                <ellipse class="cls-3" cx="120.49" cy="50.62" rx="2.86" ry="2.72" />
                <ellipse class="cls-3" cx="120.49" cy="9.01" rx="2.86" ry="2.72" />
                <ellipse class="cls-3" cx="120.49" cy="17.33" rx="2.86" ry="2.72" />
                <ellipse class="cls-3" cx="120.49" cy="25.65" rx="2.86" ry="2.72" />
                <ellipse class="cls-3" cx="120.49" cy="33.98" rx="2.86" ry="2.72" />
                <ellipse class="cls-3" cx="120.49" cy="42.3" rx="2.86" ry="2.72" />
                <ellipse class="cls-3" cx="120.49" cy="58.95" rx="2.86" ry="2.72" />
                <ellipse class="cls-3" cx="120.49" cy="67.27" rx="2.86" ry="2.72" />
                <ellipse class="cls-3" cx="120.49" cy="75.6" rx="2.86" ry="2.72" />
                <ellipse class="cls-3" cx="120.49" cy="83.92" rx="2.86" ry="2.72" />
                <ellipse class="cls-3" cx="120.49" cy="92.24" rx="2.86" ry="2.72" />
                <ellipse class="cls-3" cx="130.56" cy="50.62" rx="2.86" ry="2.72" />
                <ellipse class="cls-3" cx="130.56" cy="9.01" rx="2.86" ry="2.72" />
                <ellipse class="cls-3" cx="130.56" cy="17.33" rx="2.86" ry="2.72" />
                <ellipse class="cls-3" cx="130.56" cy="25.65" rx="2.86" ry="2.72" />
                <ellipse class="cls-3" cx="130.56" cy="33.98" rx="2.86" ry="2.72" />
                <ellipse class="cls-3" cx="130.56" cy="42.3" rx="2.86" ry="2.72" />
                <ellipse class="cls-3" cx="130.56" cy="58.95" rx="2.86" ry="2.72" />
                <ellipse class="cls-3" cx="130.56" cy="67.27" rx="2.86" ry="2.72" />
                <ellipse class="cls-3" cx="130.56" cy="75.6" rx="2.86" ry="2.72" />
                <ellipse class="cls-3" cx="130.56" cy="83.92" rx="2.86" ry="2.72" />
                <ellipse class="cls-3" cx="130.56" cy="92.24" rx="2.86" ry="2.72" />
                <ellipse class="cls-3" cx="140.62" cy="50.62" rx="2.86" ry="2.72" />
                <ellipse class="cls-3" cx="140.62" cy="9.01" rx="2.86" ry="2.72" />
                <ellipse class="cls-3" cx="140.62" cy="17.33" rx="2.86" ry="2.72" />
                <ellipse class="cls-3" cx="140.62" cy="25.65" rx="2.86" ry="2.72" />
                <ellipse class="cls-3" cx="140.62" cy="33.98" rx="2.86" ry="2.72" />
                <ellipse class="cls-3" cx="140.62" cy="42.3" rx="2.86" ry="2.72" />
                <ellipse class="cls-3" cx="140.62" cy="58.95" rx="2.86" ry="2.72" />
                <ellipse class="cls-3" cx="140.62" cy="67.27" rx="2.86" ry="2.72" />
                <ellipse class="cls-3" cx="140.62" cy="75.6" rx="2.86" ry="2.72" />
                <ellipse class="cls-3" cx="140.62" cy="83.92" rx="2.86" ry="2.72" />
                <ellipse class="cls-3" cx="140.62" cy="92.24" rx="2.86" ry="2.72" />
                
            </g>
        </g>
    </g>
</svg>