<svg xmlns="http://www.w3.org/2000/svg" viewBox="0 0 66.94 150">
    <defs>
        <style>
            .cls-1 {
                fill: #cdcece;
            }

            .cls-2 {
                fill: #dcdcdd;
            }

            .cls-3 {
                fill: #eee;
            }

            .cls-4 {
                opacity: 0.2;
            }
        </style>
    </defs>
    <title>Light smoke（轻烟）</title>
    <g id="图层_2" data-name="图层 2">
        <g id="图层_40" data-name="图层 40">
            <g id="Light_smoke_轻烟_" data-name="Light smoke（轻烟）">
                <path class="cls-1"
                    d="M37.52,7.16S38.21-1.47,24.58.22C13.43,1.6,17.14,11.22,16,13c-.93,1.36-5-.33-6.57,0C0,14.91.1,20.6,0,23.91-.24,32.1,8.18,31,9.68,34.09c1,2.07-4.07,2.73-4.63,7.9-.44,4.07,2.05,3.3,2.28,4.55.31,1.72-6,.25-6,4.79-.06,7,2,7.53,4.13,7.59,4.13.13,4.78-6,7.13-6.19,1.41-.11.44,3.32,4.19,4.75,2.25.87,5.76-1,7.63-.56a3.4,3.4,0,0,1,.87.45,8.79,8.79,0,0,1,2.62,12.21s-7.45,8.51-6,11.79c1.08,2.43,7.92,0,9.44,2.12.62.88-.29,2.93-1.55,5-2.45,4.06-3.07,12.9.87,15.54,1.19.8,4.24.74,5.25,2.31.52.82.59,2.58.49,4.34a20.55,20.55,0,0,0,1.93,10l.79,1.5a10.61,10.61,0,0,1-.32,10.33s-.73,2.23-.27,3,.84.57,1.15,1c1.28,1.66-.18,6.27.1,8.33.24,1.69,2.78,5.75,4.51,5.11,2.59-1-1-9.51.68-12.11.39-.62,2.89-1,3.07-1.94.21-1.14-2.48-3.2-1.88-4.19.37-.6,1.88,1,2.87.54,1.68-.73,2.67-5.61,1.95-7.29-.46-1.06-1.84-.42-2-1.24-.22-1.07,2.57-1.2,2.95-2.89s-2.5-2.53-2.45-3.62c.07-1.44,3.68.2,4.38-1.06,1.27-2.29-4.32-6.31-4.69-8.82-.3-2.07,2.91-3.54,3.63-4.88.6-1.12.13-4-.56-5.06s-2.79-.56-3.69-1.25.06-2.51-.63-3.38c-.54-.68-3.67-.18-3.69-1.37s2.71-.12,3.25-.75c2.13-2.5-1.16-7.8.5-9.88.46-.57,1.7-.51,3-.24a5.84,5.84,0,0,0,6.41-2.88l.14-.25a6.64,6.64,0,0,0-2.16-8.67s-4.23-2-4.54-3.78c-.2-1.15.66-2.34,1.76-3.36a8.24,8.24,0,0,0,2-8.51l-1.84-2.89a7.45,7.45,0,0,1,2.75-10.54,18.53,18.53,0,0,0,3.16-1.7c.44-.42.9-1.61,1.31-2.07a12.83,12.83,0,0,1,3-1.78A6.88,6.88,0,0,0,65.6,23.8L64,21A24.86,24.86,0,0,0,46,8.45Z" />
                <path class="cls-2"
                    d="M36.18,9.6s.59-8-11-6.45C15.73,4.44,18.88,13.37,17.87,15c-.78,1.26-4.21-.31-5.57,0-8,1.8-7.88,7.08-8,10.16-.21,7.6,7,6.6,8.22,9.44.86,1.93-3.46,2.53-3.93,7.34-.37,3.77,1.74,3.06,1.93,4.22.26,1.59-5.49.24-5.1,4.45.36,3.93.74,4.5,2.57,4.7,2.37.25,3-5,5-5.13,1.2-.1,2.36,4.8,5.54,6.14,1.92.8,4.89-.91,6.48-.53a2.85,2.85,0,0,1,.74.42c3.49,2.43,7.11,7.11,4.83,10.89,0,0-4.34,7.9-3.1,10.94.91,2.26,4.11.41,5.41,2.42.52.81,2.89,3.72,1.81,5.67-2.08,3.77-5.74,11-2.4,13.42,1,.74,3.61.68,4.46,2.14a8.93,8.93,0,0,1,.42,4A20.57,20.57,0,0,0,38.85,115l.66,1.4c1.45,3,4.07,4.75,2.46,7.67,0,0-.62,2.08-.23,2.78s.71.53,1,.91c1.09,1.54-2.88,14.46-2.64,16.38.2,1.56,2.35,5.33,3.82,4.74,2.21-.88-.8-15.56.59-18,.33-.57,2.45-.92,2.6-1.8.18-1,3.28-2.22,3.19-3.38-.07-.84-3.37-1.85-2.53-2.25a4,4,0,0,0,1.83-4.52c-.39-1-1.55-.4-1.7-1.15-.19-1,2.18-1.12,2.5-2.69s-2.11-2.35-2.07-3.36c.06-1.33,2.78,3.61,3.37,2.44,1.08-2.13-3.78-4.88-4.1-7.2-.26-1.92,2.47-3.29,3.08-4.53.51-1,.11-3.76-.47-4.7s-2.37-.52-3.14-1.16a45,45,0,0,1-3.25-4.51c-.46-.64-1.11-1.89-.37-2,6.19-.68,2.19-10.26,3.61-12.19.38-.53,1.44-.47,2.56-.22A4.83,4.83,0,0,0,55.05,75l-1.87-.24a6.51,6.51,0,0,0-1.84-8.05s-3.59-1.86-3.85-3.5A4,4,0,0,1,49,60.09a8.16,8.16,0,0,0,1.73-7.9l-1.55-2.68a7.25,7.25,0,0,1,2.33-9.78,15.32,15.32,0,0,0,2.68-1.59c.38-.38.77-1.49,1.11-1.91a10.43,10.43,0,0,1,2.58-1.66A6.7,6.7,0,0,0,60,25l-1.34-2.65A21.21,21.21,0,0,0,43.41,10.8Z" />
                <path class="cls-3"
                    d="M35.78,11.55s.51-7.4-9.69-6C17.75,6.78,20.53,15,19.64,16.53c-.69,1.16-3.71-.28-4.91,0-7,1.66-6.95,6.54-7,9.38-.19,7,6.12,6.1,7.24,8.73.75,1.77-3,2.34-3.47,6.77-.32,3.49,1.54,2.83,1.71,3.9.23,1.48-4.84.23-4.5,4.11.32,3.63-.78,2.14.83,2.31,2.09.23,2.64-4.58,4.4-4.73,1.06-.1,3.52,6.46,6.33,7.69,1.68.75,4.31-.84,5.7-.48a2.7,2.7,0,0,1,.65.38c3.08,2.25,7.29,8.67,5.28,12.17,0,0-3.82,7.29-2.73,10.11.8,2.08,2.6-1.73,3.75.12.46.75,3.17,8,2.22,9.8C33.29,90.27,30.06,96.92,33,99.18c.89.69,2.55-3.92,3.3-2.57a14.68,14.68,0,0,1,1.06,4.24c.43,4.2-.36,5.37.75,8l.77,2.76a28.7,28.7,0,0,1,2,5.62A7.44,7.44,0,0,0,41.5,119c.31.56,1.82,3.57,2.12,3.85,3.4,3.2-2.54,14.72-2.33,16.49.18,1.44,0,1.4,1.28.86,2-.82-.68-8.77,1.55-10,5.85-3.25,4-5.9,2.93-6.1s1.87-2.13,1.79-3.2c-.06-.78-2.11-3.58-1.38-3.94,1.26-.62,2.27-1.31,1.73-2.75-.34-.91-1.47-1.87-1.6-2.57-.17-.91.65,0,.94-1.43s-2.11-3.37-2.07-4.3c0-1.23,1.89,0,1.61-2.19-.23-1.77,1.25-1.52,1.79-2.67.44-1-4.38-5.16-4.9-6a8.8,8.8,0,0,0-1.53-2.32c-.66-.58-.49-2-1-2.7-.4-.58.77-3,1.42-3.07,5.46-.63,1-8.82,2.23-10.6.34-.49,1.27-.44,2.26-.21,1.92.46,3.59-2.11,3.59-2.11a6.2,6.2,0,0,0-1.61-7.44s-4.35-4-4.58-5.48a3.72,3.72,0,0,1,1.32-2.88,7.81,7.81,0,0,0,1.53-7.3l-1.38-2.47a6.91,6.91,0,0,1,2.06-9,13.47,13.47,0,0,0,2.36-1.46c.34-.36.68-1.38,1-1.77a9.34,9.34,0,0,1,2.27-1.53c2.89-1.6,3.8-5.83,1.9-8.8l-1.19-2.45A18.83,18.83,0,0,0,42.14,12.65Z" />
                
            </g>
        </g>
    </g>
</svg>