<svg xmlns="http://www.w3.org/2000/svg" xmlns:xlink="http://www.w3.org/1999/xlink" viewBox="0 0 150.19 132.11">
    <defs>
        <style>
            .cls-1 {
                fill: url(#未命名的渐变_143);
            }

            .cls-2,
            .cls-7,
            .cls-8 {
                fill: #dcdcdd;
            }

            .cls-17,
            .cls-2,
            .cls-8 {
                stroke: #999;
                stroke-miterlimit: 10;
            }

            .cls-17,
            .cls-2 {
                stroke-width: 0.25px;
            }

            .cls-3 {
                fill: url(#未命名的渐变_143-2);
            }

            .cls-4 {
                fill: url(#未命名的渐变_143-3);
            }

            .cls-5 {
                fill: url(#未命名的渐变_143-4);
            }

            .cls-6 {
                fill: url(#未命名的渐变_143-5);
            }

            .cls-8 {
                stroke-width: 0.1px;
            }

            .cls-9 {
                fill: url(#未命名的渐变_143-6);
            }

            .cls-10 {
                fill: url(#未命名的渐变_143-7);
            }

            .cls-11 {
                fill: url(#未命名的渐变_143-8);
            }

            .cls-12 {
                fill: url(#未命名的渐变_143-9);
            }

            .cls-13 {
                fill: url(#未命名的渐变_143-10);
            }

            .cls-14 {
                fill: url(#未命名的渐变_143-11);
            }

            .cls-15 {
                fill: url(#未命名的渐变_143-12);
            }

            .cls-16 {
                fill: url(#未命名的渐变_143-13);
            }

            .cls-17 {
                fill: none;
            }

            .cls-18 {
                opacity: 0.2;
            }
        </style>
        <linearGradient id="未命名的渐变_143" x1="13.28" y1="64.9" x2="13.28" y2="63.38" gradientUnits="userSpaceOnUse">
            <stop offset="0" stop-color="#b7b7b7" />
            <stop offset="0.03" stop-color="#9b9d9d" />
            <stop offset="0.07" stop-color="#878b8b" />
            <stop offset="0.09" stop-color="#808484" />
            <stop offset="0.2" stop-color="#a3a6a6" />
            <stop offset="0.49" stop-color="#f6f6f6" />
            <stop offset="0.61" stop-color="#f3f3f3" />
            <stop offset="0.7" stop-color="#eaeaea" />
            <stop offset="0.77" stop-color="#dbdbdb" />
            <stop offset="0.83" stop-color="#c5c5c5" />
            <stop offset="0.9" stop-color="#aaa" />
            <stop offset="0.95" stop-color="#888" />
            <stop offset="1" stop-color="#666" />
        </linearGradient>
        <linearGradient id="未命名的渐变_143-2" x1="646.79" y1="165.29" x2="646.79" y2="159.67"
            gradientTransform="translate(-614.79 -65.38)" xlink:href="#未命名的渐变_143" />
        <linearGradient id="未命名的渐变_143-3" x1="27.57" y1="130.13" x2="36.82" y2="130.13" xlink:href="#未命名的渐变_143" />
        <linearGradient id="未命名的渐变_143-4" x1="646.79" y1="54.4" x2="646.79" y2="48.77"
            gradientTransform="translate(-503.9 45.52)" xlink:href="#未命名的渐变_143" />
        <linearGradient id="未命名的渐变_143-5" x1="138.47" y1="130.13" x2="147.72" y2="130.13" xlink:href="#未命名的渐变_143" />
        <linearGradient id="未命名的渐变_143-6" x1="22.21" y1="94.82" x2="23.68" y2="94.82" xlink:href="#未命名的渐变_143" />
        <linearGradient id="未命名的渐变_143-7" x1="2.87" y1="94.82" x2="4.34" y2="94.82" xlink:href="#未命名的渐变_143" />
        <linearGradient id="未命名的渐变_143-8" x1="13.28" y1="74.99" x2="13.28" y2="73.48" xlink:href="#未命名的渐变_143" />
        <linearGradient id="未命名的渐变_143-9" x1="13.28" y1="85.09" x2="13.28" y2="83.57" xlink:href="#未命名的渐变_143" />
        <linearGradient id="未命名的渐变_143-10" x1="13.28" y1="95.43" x2="13.28" y2="93.92" xlink:href="#未命名的渐变_143" />
        <linearGradient id="未命名的渐变_143-11" x1="13.28" y1="105.24" x2="13.28" y2="103.72" xlink:href="#未命名的渐变_143" />
        <linearGradient id="未命名的渐变_143-12" x1="13.28" y1="115.14" x2="13.28" y2="113.62" xlink:href="#未命名的渐变_143" />
        <linearGradient id="未命名的渐变_143-13" x1="13.28" y1="125.61" x2="13.28" y2="124.1" xlink:href="#未命名的渐变_143" />
    </defs>
    <title>Mezzanine with office（带夹层的办公室）</title>
    <g id="图层_2" data-name="图层 2">
        <g id="图层_40" data-name="图层 40">
            <g id="Mezzanine_with_office_带夹层的办公室_" data-name="Mezzanine with office（带夹层的办公室）">
                <rect class="cls-1" x="4.34" y="63.38" width="17.88" height="1.52" />
                <rect class="cls-2" x="25.56" y="0.13" width="124.51" height="4.69" />
                <rect class="cls-3" x="0.94" y="94.29" width="62.1" height="5.62"
                    transform="translate(129.1 65.11) rotate(90)" />
                <rect class="cls-4" x="27.57" y="128.15" width="9.25" height="3.96" />
                <rect class="cls-5" x="111.84" y="94.29" width="62.1" height="5.62"
                    transform="translate(239.99 -45.79) rotate(90)" />
                <rect class="cls-6" x="138.47" y="128.15" width="9.25" height="3.96" />
                <rect class="cls-7" x="2.99" y="41.16" width="22.93" height="3.6"
                    transform="translate(28.91 85.92) rotate(180)" />
                <rect class="cls-2" x="25.56" y="4.43" width="124.51" height="54.26" />
                <rect class="cls-8" x="42.94" y="21.22" width="28.73" height="1.68" />
                <rect class="cls-8" x="42.8" y="30.17" width="28.86" height="1.27" />
                <rect class="cls-8" x="43.06" y="25.53" width="27.67" height="1.16"
                    transform="translate(83 -30.78) rotate(90)" />
                <rect class="cls-7" x="-7.35" y="47.35" width="18.3" height="3.6"
                    transform="translate(50.95 47.35) rotate(90)" />
                <rect class="cls-7" x="1.3" y="52.37" width="18.3" height="2.31"
                    transform="translate(63.97 43.08) rotate(90)" />
                <rect class="cls-7" x="9.9" y="52.14" width="18.3" height="2.31"
                    transform="translate(72.35 34.25) rotate(90)" />
                <rect class="cls-8" x="44.05" y="25.57" width="27.67" height="1.09"
                    transform="translate(84 -31.77) rotate(90)" />
                <rect class="cls-8" x="102.66" y="21.44" width="28.68" height="1.68" />
                <rect class="cls-8" x="102.54" y="30.39" width="28.79" height="1.27" />
                <rect class="cls-8" x="102.74" y="25.78" width="27.72" height="1.16"
                    transform="translate(142.97 -90.24) rotate(90)" />
                <rect class="cls-8" x="103.74" y="25.82" width="27.72" height="1.09"
                    transform="translate(143.96 -91.23) rotate(90)" />
                <rect class="cls-2" x="0.58" y="58.69" width="149.49" height="7.36" />
                <rect class="cls-9" x="22.21" y="58.05" width="1.47" height="73.54" />
                <rect class="cls-10" x="2.87" y="58.05" width="1.47" height="73.54" />
                <rect class="cls-11" x="4.34" y="73.48" width="17.88" height="1.52" />
                <rect class="cls-12" x="4.34" y="83.57" width="17.88" height="1.52" />
                <rect class="cls-13" x="4.34" y="93.92" width="17.88" height="1.52" />
                <rect class="cls-14" x="4.34" y="103.72" width="17.88" height="1.52" />
                <rect class="cls-15" x="4.34" y="113.62" width="17.88" height="1.52" />
                <rect class="cls-16" x="4.34" y="124.1" width="17.88" height="1.52" />
                <rect class="cls-17" x="102.54" y="12.5" width="28.79" height="27.72" />
                <rect class="cls-17" x="42.83" y="12.28" width="28.79" height="27.72" />
                
            </g>
        </g>
    </g>
</svg>