<svg xmlns="http://www.w3.org/2000/svg" viewBox="0 0 144.95 150">
    <defs>
        <style>
            .cls-1 {
                fill: #c9c9c9;
            }

            .cls-2 {
                fill: #7f7f7f;
            }

            .cls-3 {
                fill: #cecece;
            }

            .cls-4 {
                fill: #aaa;
            }

            .cls-5 {
                fill: #a8a8a8;
            }

            .cls-6 {
                fill: #eee;
            }

            .cls-7 {
                fill: #dbdbdb;
            }

            .cls-8 {
                fill: #e8e8ea;
            }

            .cls-9 {
                fill: #dcdcdd;
            }

            .cls-10 {
                fill: #ccc;
            }

            .cls-11 {
                fill: #c1c1c1;
            }

            .cls-12 {
                fill: #f9f9f9;
            }

            .cls-13 {
                fill: #9b9bbc;
            }

            .cls-14 {
                fill: #d6d6d6;
            }

            .cls-15 {
                opacity: 0.2;
            }
        </style>
    </defs>
    <title>Oil rig（石油钻机）</title>
    <g id="图层_2" data-name="图层 2">
        <g id="图层_40" data-name="图层 40">
            <g id="Oil_rig_石油钻机_" data-name="Oil rig（石油钻机）">
                <path class="cls-1"
                    d="M13,100.92l-5.49,2.63a13.22,13.22,0,0,0-5.25,19.33h0A5.08,5.08,0,0,0,5.19,125h0a13.66,13.66,0,0,1,10.47,5.88l1.94,2.81A17.14,17.14,0,0,0,29,140.85l2.43.41a26.26,26.26,0,0,1,8.36,3.05l5.28,3a15,15,0,0,0,5.71,1.87l5.55.65a21.88,21.88,0,0,0,7.94-.52l17.1-5.71a40.35,40.35,0,0,1,9.48-2l9.14.77a39,39,0,0,0,36.19-17.93h0a17.32,17.32,0,0,1,2.58-3.15h0a12.29,12.29,0,0,0,1.17-20.63h0a13.27,13.27,0,0,0-7.8-2.54h-3.9a16.17,16.17,0,0,1-9.49-3.08l-7.94-5.75L29.41,94l-9.75,5Z" />
                <path class="cls-2"
                    d="M20.06,109.29h0a9.69,9.69,0,0,0,11.49,7.56h0a5.64,5.64,0,0,1,4.45.93l20,14.35a26.29,26.29,0,0,0,26.42,2.48l6.09-2.82,30.41-17.42c3.44-2,6.71-5.61,5.42-8.08-9.65-18.47-81.24-8.4-81.24-8.4Z" />
                <polygon class="cls-3" points="29.83 114.59 20.05 109.28 20.05 89.89 29.83 95.19 29.83 114.59" />
                <polygon class="cls-4" points="29.59 114.73 39.97 109.13 39.97 89.74 29.59 95.34 29.59 114.73" />
                <polygon class="cls-3" points="63.02 117 29.59 100.95 29.35 94.93 63.02 111.3 63.02 117" />
                <polygon class="cls-1" points="44.61 97.77 24.94 88.16 24.94 83.51 44.61 92.8 44.61 97.77" />
                <polygon class="cls-1" points="72.79 136.26 83.17 130.67 83.17 111.28 72.79 116.87 72.79 136.26" />
                <polygon class="cls-1" points="113.59 114.85 121.16 110.41 121.16 91.02 113.59 95.31 113.59 114.85" />
                <polygon class="cls-3" points="72.79 136.26 63.02 130.96 63.02 110.99 72.79 116.29 72.79 136.26" />
                <polygon class="cls-5" points="113.59 114.85 102.56 110.54 102.56 91.15 113.59 95.46 113.59 114.85" />
                <polygon class="cls-6" points="15.75 85.26 72.79 113.53 124.53 86.73 66.79 64.34 15.75 85.26" />
                <polygon class="cls-7" points="72.79 116.87 15.75 88.23 15.75 85.26 72.79 113.58 72.79 116.87" />
                <polygon class="cls-8" points="34.01 69.4 53.16 62.38 94.99 77.38 72.79 88.07 34.01 69.4" />
                <rect class="cls-9" x="36.85" y="45.93" width="55.35" height="1.44"
                    transform="translate(111.17 -17.87) rotate(90)" />
                <polygon class="cls-10" points="70.36 15.5 62.48 19.25 55.67 16.6 63.68 13.26 70.36 15.5" />
                <polygon class="cls-11" points="61.94 22.71 68.53 19.09 68.53 18.14 61.94 21.76 61.94 22.71" />
                <polygon class="cls-11" points="62.45 22.41 57.7 20.19 57.7 19.25 62.45 21.46 62.45 22.41" />
                <polygon class="cls-1" points="61.36 28.5 57.58 21.77 58.15 21.01 61.94 27.74 61.36 28.5" />
                <polygon class="cls-1" points="61.29 35.52 57.51 28.79 58.08 28.03 61.86 34.76 61.29 35.52" />
                <polygon class="cls-1" points="61.44 42.91 57.66 36.18 58.23 35.42 62.01 42.15 61.44 42.91" />
                <polygon class="cls-1" points="57.51 41.71 62.75 36.35 62.39 35.48 57.15 40.83 57.51 41.71" />
                <polygon class="cls-1" points="61.44 50.59 57.66 43.86 58.23 43.1 62.01 49.83 61.44 50.59" />
                <polygon class="cls-1" points="57.51 49.39 62.75 44.03 62.39 43.15 57.15 48.51 57.51 49.39" />
                <polygon class="cls-1" points="61.32 57.47 57.54 50.74 58.11 49.97 61.9 56.7 61.32 57.47" />
                <polygon class="cls-1" points="57.39 56.26 62.63 50.91 62.28 50.03 57.03 55.38 57.39 56.26" />
                <polygon class="cls-1" points="61.44 64.4 57.66 57.67 58.23 56.91 62.01 63.64 61.44 64.4" />
                <polygon class="cls-1" points="57.51 63.19 62.75 57.84 62.39 56.96 57.15 62.32 57.51 63.19" />
                <polygon class="cls-1" points="61.44 71.39 57.66 64.66 58.23 63.89 62.01 70.63 61.44 71.39" />
                <polygon class="cls-1" points="57.51 70.18 62.75 64.83 62.39 63.95 57.15 69.31 57.51 70.18" />
                <polygon class="cls-1" points="61.44 79.08 57.66 72.35 58.23 71.58 62.01 78.31 61.44 79.08" />
                <polygon class="cls-1" points="57.51 77.87 62.75 72.52 62.39 71.64 57.15 76.99 57.51 77.87" />
                <polygon class="cls-1" points="57.31 34.54 62.56 29.18 62.2 28.31 56.96 33.66 57.31 34.54" />
                <polygon class="cls-1" points="57.39 27.24 62.63 21.88 62.28 21.01 57.03 26.36 57.39 27.24" />
                <polygon class="cls-1" points="62.47 28.92 68.71 18.8 68.14 18.03 61.9 28.15 62.47 28.92" />
                <polygon class="cls-1" points="62.44 36.72 69.1 26.01 68.53 25.24 61.86 35.96 62.44 36.72" />
                <polygon class="cls-1" points="62.33 44.5 68.85 33.93 68.28 33.16 61.76 43.74 62.33 44.5" />
                <polygon class="cls-1" points="68.48 25.93 62.02 22.05 62.13 21.11 68.6 25 68.48 25.93" />
                <polygon class="cls-1" points="68.59 33.13 62.13 29.24 62.24 28.31 68.71 32.19 68.59 33.13" />
                <polygon class="cls-1" points="68.8 40.69 62.34 36.81 62.45 35.87 68.92 39.75 68.8 40.69" />
                <polygon class="cls-1" points="62.62 51.55 69.14 40.98 68.57 40.21 62.05 50.79 62.62 51.55" />
                <polygon class="cls-1" points="69.09 47.74 62.62 43.85 62.74 42.92 69.2 46.8 69.09 47.74" />
                <polygon class="cls-11" points="62.13 29.36 57.24 27.15 57.24 26.21 62.13 28.42 62.13 29.36" />
                <polygon class="cls-11" points="62.13 36.81 57.24 34.59 57.24 33.65 62.13 35.86 62.13 36.81" />
                <polygon class="cls-11" points="62.27 44.38 57.39 42.17 57.39 41.22 62.27 43.43 62.27 44.38" />
                <polygon class="cls-11" points="62.59 51.32 57.7 49.1 57.7 48.16 62.59 50.37 62.59 51.32" />
                <polygon class="cls-11" points="62.39 58.67 57.51 56.45 57.51 55.51 62.39 57.72 62.39 58.67" />
                <polygon class="cls-11" points="62.39 65.83 57.51 63.62 57.51 62.68 62.39 64.89 62.39 65.83" />
                <polygon class="cls-11" points="62.39 73 57.51 70.79 57.51 69.84 62.39 72.06 62.39 73" />
                <polygon class="cls-11" points="62.27 79.99 57.39 77.78 57.39 76.84 62.27 79.05 62.27 79.99" />
                <polygon class="cls-11" points="62.33 29.17 69.1 25.55 69.1 24.6 62.33 28.22 62.33 29.17" />
                <polygon class="cls-11" points="62.33 36.72 69.1 33.1 69.1 32.16 62.33 35.78 62.33 36.72" />
                <polygon class="cls-11" points="62.63 44.21 69.41 40.59 69.41 39.64 62.63 43.26 62.63 44.21" />
                <polygon class="cls-1" points="62.27 58.81 68.79 48.24 68.22 47.48 61.7 58.05 62.27 58.81" />
                <polygon class="cls-1" points="68.61 54.74 62.14 50.86 62.25 49.93 68.72 53.81 68.61 54.74" />
                <polygon class="cls-11" points="62.15 51.22 68.92 47.59 68.92 46.65 62.15 50.27 62.15 51.22" />
                <polygon class="cls-1" points="62.43 66.03 68.95 55.46 68.38 54.69 61.85 65.27 62.43 66.03" />
                <polygon class="cls-1" points="68.9 62.22 62.43 58.34 62.55 57.4 69.01 61.28 68.9 62.22" />
                <polygon class="cls-11" points="62.31 58.62 69.08 54.99 69.08 54.05 62.31 57.67 62.31 58.62" />
                <polygon class="cls-1" points="62.32 73.02 68.84 62.45 68.27 61.68 61.75 72.26 62.32 73.02" />
                <polygon class="cls-1" points="68.79 69.21 62.33 65.32 62.44 64.39 68.91 68.27 68.79 69.21" />
                <polygon class="cls-11" points="62.33 65.68 69.11 62.06 69.11 61.11 62.33 64.73 62.33 65.68" />
                <polygon class="cls-1" points="62.72 79.71 69.24 69.14 68.67 68.37 62.15 78.95 62.72 79.71" />
                <polygon class="cls-1" points="69.19 75.9 62.72 72.02 62.84 71.08 69.31 74.96 69.19 75.9" />
                <polygon class="cls-11" points="62.73 72.37 69.51 68.75 69.51 67.8 62.73 71.42 62.73 72.37" />
                <polygon class="cls-11" points="62.73 79.71 69.51 76.09 69.51 75.15 62.73 78.77 62.73 79.71" />
                <rect class="cls-9" x="27.68" y="47.87" width="60.05" height="1.44"
                    transform="translate(106.3 -9.11) rotate(90)" />
                <rect class="cls-9" x="32.03" y="49.37" width="60.2" height="1.44"
                    transform="translate(112.21 -12.04) rotate(90)" />
                <rect class="cls-9" x="38.96" y="46.37" width="59.92" height="1.44"
                    transform="translate(116.01 -21.82) rotate(90)" />
                <polygon class="cls-9" points="62.48 20.58 55.67 18.03 55.67 16.55 62.48 19.11 62.48 20.58" />
                <polygon class="cls-11" points="62.48 20.58 70.36 16.96 70.36 15.49 62.48 19.11 62.48 20.58" />
                <rect class="cls-9" x="57.3" y="8.97" width="12.81" height="0.72"
                    transform="translate(73.03 -54.37) rotate(90)" />
                <polygon class="cls-10" points="66.8 1.15 62.76 3.07 59.27 1.71 63.37 0 66.8 1.15" />
                <polygon class="cls-11" points="62.68 4.68 66.06 2.82 66.06 2.34 62.68 4.19 62.68 4.68" />
                <polygon class="cls-11" points="62.68 4.56 60.25 3.43 60.25 2.94 62.68 4.08 62.68 4.56" />
                <polygon class="cls-1" points="62.22 7.6 60.34 4.16 60.62 3.76 62.51 7.21 62.22 7.6" />
                <polygon class="cls-1" points="62.22 11.21 60.34 7.77 60.62 7.38 62.51 10.82 62.22 11.21" />
                <polygon class="cls-1" points="62.26 14.97 60.38 11.52 60.66 11.13 62.55 14.58 62.26 14.97" />
                <polygon class="cls-1" points="60.15 14.32 62.76 11.58 62.58 11.13 59.97 13.87 60.15 14.32" />
                <polygon class="cls-1" points="60.15 10.63 62.76 7.89 62.58 7.44 59.97 10.18 60.15 10.63" />
                <polygon class="cls-1" points="60.15 7.16 62.76 4.42 62.58 3.97 59.97 6.71 60.15 7.16" />
                <polygon class="cls-1" points="62.68 8.02 65.79 2.84 65.5 2.45 62.4 7.63 62.68 8.02" />
                <polygon class="cls-1" points="62.54 11.9 65.86 6.41 65.58 6.02 62.25 11.51 62.54 11.9" />
                <polygon class="cls-1" points="62.54 15.58 65.79 10.17 65.5 9.78 62.25 15.19 62.54 15.58" />
                <polygon class="cls-1" points="65.95 6.49 62.73 4.5 62.79 4.02 66.01 6.01 65.95 6.49" />
                <polygon class="cls-1" points="65.88 10.07 62.66 8.08 62.71 7.6 65.94 9.59 65.88 10.07" />
                <polygon class="cls-1" points="65.95 13.71 62.73 11.73 62.79 11.25 66.01 13.23 65.95 13.71" />
                <polygon class="cls-11" points="62.51 8.02 60.08 6.89 60.08 6.4 62.51 7.54 62.51 8.02" />
                <polygon class="cls-11" points="62.61 11.76 60.17 10.63 60.17 10.15 62.61 11.28 62.61 11.76" />
                <polygon class="cls-11" points="62.51 15.33 60.08 14.2 60.08 13.71 62.51 14.85 62.51 15.33" />
                <polygon class="cls-11" points="62.51 15.33 60.08 14.2 60.08 13.71 62.51 14.85 62.51 15.33" />
                <polygon class="cls-11" points="62.61 8.02 65.99 6.17 65.99 5.68 62.61 7.54 62.61 8.02" />
                <polygon class="cls-11" points="62.61 11.7 65.99 9.85 65.99 9.37 62.61 11.22 62.61 11.7" />
                <polygon class="cls-11" points="62.68 15.39 66.06 13.54 66.06 13.05 62.68 14.9 62.68 15.39" />
                <rect class="cls-9" x="53.28" y="9.24" width="14.04" height="0.72"
                    transform="translate(69.9 -50.7) rotate(90)" />
                <rect class="cls-9" x="55.21" y="10.27" width="14.59" height="0.72"
                    transform="translate(73.14 -51.88) rotate(90)" />
                <rect class="cls-9" x="58.78" y="8.74" width="14.23" height="0.72"
                    transform="translate(74.99 -56.79) rotate(90)" />
                <polygon class="cls-9" points="62.76 3.75 59.27 2.44 59.27 1.69 62.76 3 62.76 3.75" />
                <polygon class="cls-11" points="62.76 3.75 66.8 1.9 66.8 1.14 62.76 3 62.76 3.75" />
                <polygon class="cls-3" points="72.79 88.07 72.99 100.24 94.99 89.1 94.8 77.31 72.79 88.07" />
                <polygon class="cls-7" points="72.79 100.24 34.01 81.55 34.01 69.51 72.79 87.88 72.79 100.24" />
                <polygon class="cls-7" points="44.64 97.93 24.91 88.33 24.88 83.51 44.61 92.8 44.64 97.93" />
                <polygon class="cls-12"
                    points="71.07 99.41 61.78 94.93 52.1 94.93 37.32 102.24 37.32 107.86 45.91 113.03 55.61 113.03 71.07 103.98 71.07 99.41" />
                <polygon class="cls-1"
                    points="69.79 99.82 61.1 95.74 52.03 95.74 38.2 102.39 38.2 107.51 46.24 112.22 55.32 112.22 69.79 103.98 69.79 99.82" />
                <polygon class="cls-13"
                    points="66.64 100.35 59.68 97.06 52.43 97.06 41.35 102.44 41.35 106.58 47.79 110.38 55.05 110.38 66.64 103.72 66.64 100.35" />
                <polygon class="cls-1"
                    points="65.27 100.61 59.06 97.77 52.6 97.77 42.72 102.41 42.72 105.98 48.46 109.26 54.94 109.26 65.27 103.51 65.27 100.61" />
                <polygon class="cls-1" points="45.91 114.59 37.32 109.52 37.32 107.82 45.91 112.89 45.91 114.59" />
                <polygon class="cls-1" points="55.61 114.66 71.07 105.67 71.07 103.98 55.61 112.96 55.61 114.66" />
                <rect class="cls-1" x="45.91" y="113.03" width="9.7" height="1.56" />
                <polygon class="cls-1" points="72.79 116.87 124.53 89.53 124.53 86.73 72.79 113.58 72.79 116.87" />
                <polygon class="cls-14" points="24.94 83.51 31.64 80.47 52.1 89.45 44.61 92.8 24.94 83.51" />
                <polygon class="cls-1" points="44.61 92.8 44.64 97.93 52.1 94.04 52.1 89.45 44.61 92.8" />
                <rect class="cls-9" x="67.86" y="64.1" width="57.39" height="1.49"
                    transform="translate(161.4 -31.71) rotate(90)" />
                <polygon class="cls-10" points="102.61 32.54 94.44 36.43 87.37 33.68 95.68 30.22 102.61 32.54" />
                <polygon class="cls-11" points="93.87 40.02 100.71 36.27 100.71 35.29 93.87 39.04 93.87 40.02" />
                <polygon class="cls-11" points="94.41 39.71 89.48 37.41 89.48 36.43 94.41 38.73 94.41 39.71" />
                <polygon class="cls-1" points="93.28 46.03 89.36 39.05 89.95 38.26 93.87 45.24 93.28 46.03" />
                <polygon class="cls-1" points="93.2 53.31 89.28 46.33 89.88 45.54 93.8 52.52 93.2 53.31" />
                <polygon class="cls-1" points="93.36 60.97 89.44 53.99 90.03 53.2 93.95 60.18 93.36 60.97" />
                <polygon class="cls-1" points="89.28 59.72 94.72 54.17 94.35 53.26 88.91 58.81 89.28 59.72" />
                <polygon class="cls-1" points="93.36 68.94 89.44 61.95 90.03 61.16 93.95 68.14 93.36 68.94" />
                <polygon class="cls-1" points="89.28 67.68 94.72 62.13 94.35 61.22 88.91 66.77 89.28 67.68" />
                <polygon class="cls-1" points="93.24 76.06 89.31 69.08 89.91 68.29 93.83 75.27 93.24 76.06" />
                <polygon class="cls-1" points="89.16 74.81 94.59 69.26 94.23 68.35 88.79 73.9 89.16 74.81" />
                <polygon class="cls-1" points="93.36 83.25 89.44 76.27 90.03 75.48 93.95 82.46 93.36 83.25" />
                <polygon class="cls-1" points="89.28 82 94.72 76.45 94.35 75.54 88.91 81.09 89.28 82" />
                <polygon class="cls-1" points="93.36 90.5 89.44 83.52 90.03 82.73 93.95 89.71 93.36 90.5" />
                <polygon class="cls-1" points="89.28 89.25 94.72 83.69 94.35 82.79 88.91 88.34 89.28 89.25" />
                <polygon class="cls-1" points="93.36 98.47 89.44 91.49 90.03 90.7 93.95 97.68 93.36 98.47" />
                <polygon class="cls-1" points="89.28 97.22 94.72 91.67 94.35 90.76 88.91 96.31 89.28 97.22" />
                <polygon class="cls-1" points="89.08 52.29 94.52 46.73 94.15 45.83 88.71 51.38 89.08 52.29" />
                <polygon class="cls-1" points="89.16 44.72 94.59 39.16 94.23 38.26 88.79 43.81 89.16 44.72" />
                <polygon class="cls-1" points="94.43 46.46 100.9 35.97 100.31 35.17 93.84 45.67 94.43 46.46" />
                <polygon class="cls-1" points="94.39 54.55 101.3 43.44 100.71 42.65 93.8 53.76 94.39 54.55" />
                <polygon class="cls-1" points="94.28 62.62 101.05 51.66 100.45 50.86 93.69 61.83 94.28 62.62" />
                <polygon class="cls-1" points="100.66 43.36 93.96 39.34 94.07 38.37 100.78 42.39 100.66 43.36" />
                <polygon class="cls-1" points="100.78 50.82 94.07 46.8 94.19 45.83 100.89 49.85 100.78 50.82" />
                <polygon class="cls-1" points="100.99 58.66 94.29 54.64 94.41 53.67 101.11 57.69 100.99 58.66" />
                <polygon class="cls-1" points="94.58 69.93 101.35 58.96 100.75 58.17 93.99 69.14 94.58 69.93" />
                <polygon class="cls-1" points="101.29 65.97 94.59 61.95 94.7 60.98 101.41 65 101.29 65.97" />
                <polygon class="cls-11" points="94.07 46.92 89.01 44.63 89.01 43.65 94.07 45.94 94.07 46.92" />
                <polygon class="cls-11" points="94.07 54.64 89.01 52.35 89.01 51.37 94.07 53.66 94.07 54.64" />
                <polygon class="cls-11" points="94.22 62.49 89.16 60.2 89.16 59.22 94.22 61.51 94.22 62.49" />
                <polygon class="cls-11" points="94.55 69.69 89.48 67.39 89.48 66.41 94.55 68.7 94.55 69.69" />
                <polygon class="cls-11" points="94.34 77.31 89.28 75.01 89.28 74.03 94.34 76.33 94.34 77.31" />
                <polygon class="cls-11" points="94.34 84.74 89.28 82.45 89.28 81.47 94.34 83.76 94.34 84.74" />
                <polygon class="cls-11" points="94.34 92.17 89.28 89.88 89.28 88.9 94.34 91.19 94.34 92.17" />
                <polygon class="cls-11" points="94.22 99.42 89.16 97.13 89.16 96.15 94.22 98.44 94.22 99.42" />
                <polygon class="cls-11" points="94.28 46.72 101.31 42.97 101.31 41.99 94.28 45.74 94.28 46.72" />
                <polygon class="cls-11" points="94.28 54.55 101.31 50.8 101.31 49.82 94.28 53.57 94.28 54.55" />
                <polygon class="cls-11" points="94.59 62.31 101.62 58.56 101.62 57.58 94.59 61.33 94.59 62.31" />
                <polygon class="cls-1" points="94.22 77.46 100.98 66.5 100.39 65.7 93.62 76.67 94.22 77.46" />
                <polygon class="cls-1" points="100.79 73.24 94.08 69.21 94.2 68.24 100.91 72.27 100.79 73.24" />
                <polygon class="cls-11" points="94.09 69.58 101.12 65.83 101.12 64.85 94.09 68.6 94.09 69.58" />
                <polygon class="cls-1" points="94.38 84.94 101.15 73.98 100.55 73.19 93.79 84.15 94.38 84.94" />
                <polygon class="cls-1" points="101.09 80.99 94.39 76.96 94.51 75.99 101.21 80.02 101.09 80.99" />
                <polygon class="cls-11" points="94.26 77.25 101.28 73.5 101.28 72.52 94.26 76.27 94.26 77.25" />
                <polygon class="cls-1" points="94.27 92.19 101.04 81.23 100.44 80.43 93.68 91.4 94.27 92.19" />
                <polygon class="cls-1" points="100.98 88.23 94.28 84.21 94.4 83.24 101.1 87.26 100.98 88.23" />
                <polygon class="cls-11" points="94.29 84.58 101.31 80.82 101.31 79.84 94.29 83.6 94.29 84.58" />
                <polygon class="cls-1" points="94.69 99.13 101.45 88.17 100.86 87.37 94.09 98.34 94.69 99.13" />
                <polygon class="cls-1" points="101.4 95.17 94.69 91.15 94.81 90.18 101.51 94.2 101.4 95.17" />
                <polygon class="cls-11" points="94.7 91.52 101.72 87.76 101.72 86.78 94.7 90.53 94.7 91.52" />
                <polygon class="cls-11" points="94.7 99.13 101.72 95.38 101.72 94.4 94.7 98.15 94.7 99.13" />
                <rect class="cls-9" x="58.35" y="66.12" width="62.27" height="1.49"
                    transform="translate(156.35 -22.62) rotate(90)" />
                <rect class="cls-9" x="62.86" y="67.66" width="62.42" height="1.49"
                    transform="translate(162.48 -25.66) rotate(90)" />
                <rect class="cls-9" x="70.05" y="64.56" width="62.13" height="1.49"
                    transform="translate(166.42 -35.81) rotate(90)" />
                <polygon class="cls-9" points="94.44 37.82 87.37 35.17 87.37 33.64 94.44 36.29 94.44 37.82" />
                <polygon class="cls-11" points="94.44 37.82 102.61 34.06 102.61 32.53 94.44 36.29 94.44 37.82" />
                
            </g>
        </g>
    </g>
</svg>