<svg xmlns="http://www.w3.org/2000/svg" viewBox="0 0 47.6 150">
    <defs>
        <style>
            .cls-1 {
                fill: #dcdcdd;
            }

            .cls-2 {
                fill: #ccc;
            }

            .cls-3 {
                fill: #c1c1c1;
            }

            .cls-4 {
                fill: #c9c9c9;
            }

            .cls-5 {
                opacity: 0.2;
            }
        </style>
    </defs>
    <title>Oil well（油井）</title>
    <g id="图层_2" data-name="图层 2">
        <g id="图层_40" data-name="图层 40">
            <g id="Oil_well_油井_" data-name="Oil well（油井）">
                <rect class="cls-1" x="-23.83" y="85.92" width="103.54" height="2.69"
                    transform="translate(115.21 59.33) rotate(90)" />
                <polygon class="cls-2" points="38.87 28.99 24.13 36.01 11.37 31.05 26.36 24.8 38.87 28.99" />
                <polygon class="cls-3" points="23.1 42.48 35.44 35.71 35.44 33.94 23.1 40.72 23.1 42.48" />
                <polygon class="cls-3" points="24.06 41.91 15.17 37.78 15.17 36.01 24.06 40.15 24.06 41.91" />
                <polygon class="cls-4" points="22.03 53.32 14.95 40.73 16.02 39.3 23.1 51.89 22.03 53.32" />
                <polygon class="cls-4" points="21.89 66.45 14.82 53.86 15.89 52.43 22.96 65.03 21.89 66.45" />
                <polygon class="cls-4" points="22.17 80.28 15.09 67.69 16.16 66.26 23.24 78.85 22.17 80.28" />
                <polygon class="cls-4" points="14.81 78.02 24.62 68 23.95 66.36 14.15 76.38 14.81 78.02" />
                <polygon class="cls-4" points="22.17 94.64 15.09 82.05 16.16 80.62 23.24 93.21 22.17 94.64" />
                <polygon class="cls-4" points="14.81 92.39 24.62 82.37 23.95 80.73 14.15 90.75 14.81 92.39" />
                <polygon class="cls-4" points="21.95 107.51 14.88 94.91 15.95 93.48 23.02 106.08 21.95 107.51" />
                <polygon class="cls-4" points="14.6 105.25 24.4 95.23 23.74 93.59 13.93 103.61 14.6 105.25" />
                <polygon class="cls-4" points="22.17 120.47 15.09 107.88 16.16 106.45 23.24 119.05 22.17 120.47" />
                <polygon class="cls-4" points="14.81 118.22 24.62 108.2 23.95 106.56 14.15 116.58 14.81 118.22" />
                <polygon class="cls-4" points="22.17 133.55 15.09 120.96 16.16 119.53 23.24 132.12 22.17 133.55" />
                <polygon class="cls-4" points="14.81 131.29 24.62 121.27 23.95 119.63 14.15 129.65 14.81 131.29" />
                <polygon class="cls-4" points="22.17 147.93 15.09 135.34 16.16 133.91 23.24 146.5 22.17 147.93" />
                <polygon class="cls-4" points="14.81 145.67 24.62 135.66 23.95 134.01 14.15 144.03 14.81 145.67" />
                <polygon class="cls-4" points="14.45 64.61 24.26 54.59 23.59 52.95 13.79 62.97 14.45 64.61" />
                <polygon class="cls-4" points="14.6 50.95 24.4 40.94 23.74 39.3 13.93 49.31 14.6 50.95" />
                <polygon class="cls-4" points="24.11 54.1 35.77 35.17 34.7 33.74 23.04 52.67 24.11 54.1" />
                <polygon class="cls-4" points="24.03 68.7 36.5 48.65 35.43 47.22 22.96 67.27 24.03 68.7" />
                <polygon class="cls-4" points="23.84 83.25 36.04 63.47 34.97 62.04 22.77 81.82 23.84 83.25" />
                <polygon class="cls-4" points="35.35 48.51 23.25 41.25 23.46 39.5 35.56 46.76 35.35 48.51" />
                <polygon class="cls-4" points="35.55 61.97 23.45 54.7 23.67 52.95 35.77 60.22 35.55 61.97" />
                <polygon class="cls-4" points="35.94 76.11 23.85 68.85 24.06 67.1 36.16 74.36 35.94 76.11" />
                <polygon class="cls-4" points="24.38 96.44 36.58 76.66 35.51 75.23 23.31 95.01 24.38 96.44" />
                <polygon class="cls-4" points="36.48 89.3 24.39 82.04 24.6 80.29 36.7 87.55 36.48 89.3" />
                <polygon class="cls-3" points="23.46 54.93 14.32 50.79 14.32 49.02 23.46 53.16 23.46 54.93" />
                <polygon class="cls-3" points="23.46 68.85 14.32 64.72 14.32 62.95 23.46 67.08 23.46 68.85" />
                <polygon class="cls-3" points="23.73 83.02 14.6 78.88 14.6 77.11 23.73 81.25 23.73 83.02" />
                <polygon class="cls-3" points="24.31 96 15.18 91.86 15.18 90.09 24.31 94.23 24.31 96" />
                <polygon class="cls-3" points="23.95 109.75 14.82 105.61 14.82 103.84 23.95 107.98 23.95 109.75" />
                <polygon class="cls-3" points="23.95 123.16 14.82 119.02 14.82 117.25 23.95 121.39 23.95 123.16" />
                <polygon class="cls-3" points="23.95 136.56 14.82 132.43 14.82 130.66 23.95 134.8 23.95 136.56" />
                <polygon class="cls-3" points="23.73 149.65 14.6 145.51 14.6 143.74 23.73 147.88 23.73 149.65" />
                <polygon class="cls-3" points="23.83 54.57 36.51 47.8 36.51 46.03 23.83 52.8 23.83 54.57" />
                <polygon class="cls-3" points="23.83 68.7 36.51 61.92 36.51 60.16 23.83 66.93 23.83 68.7" />
                <polygon class="cls-3" points="24.4 82.7 37.08 75.93 37.08 74.16 24.4 80.93 24.4 82.7" />
                <polygon class="cls-4" points="23.72 110.03 35.92 90.24 34.85 88.81 22.65 108.59 23.72 110.03" />
                <polygon class="cls-4" points="35.58 102.41 23.48 95.15 23.69 93.4 35.79 100.66 35.58 102.41" />
                <polygon class="cls-3" points="23.49 95.81 36.17 89.04 36.17 87.27 23.49 94.04 23.49 95.81" />
                <polygon class="cls-4" points="24.02 123.53 36.22 103.74 35.15 102.31 22.95 122.1 24.02 123.53" />
                <polygon class="cls-4" points="36.12 116.39 24.03 109.13 24.24 107.38 36.34 114.64 36.12 116.39" />
                <polygon class="cls-3" points="23.79 109.65 36.47 102.88 36.47 101.11 23.79 107.88 23.79 109.65" />
                <polygon class="cls-4" points="23.82 136.6 36.02 116.82 34.95 115.39 22.75 135.17 23.82 136.6" />
                <polygon class="cls-4" points="35.93 129.46 23.83 122.2 24.04 120.45 36.14 127.71 35.93 129.46" />
                <polygon class="cls-3" points="23.84 122.86 36.52 116.09 36.52 114.32 23.84 121.09 23.84 122.86" />
                <polygon class="cls-4" points="24.56 149.12 36.77 129.34 35.7 127.91 23.49 147.69 24.56 149.12" />
                <polygon class="cls-4" points="36.67 141.98 24.57 134.72 24.79 132.97 36.88 140.23 36.67 141.98" />
                <polygon class="cls-3" points="24.59 135.38 37.26 128.61 37.26 126.84 24.59 133.61 24.59 135.38" />
                <polygon class="cls-3" points="24.59 149.12 37.26 142.35 37.26 140.58 24.59 147.35 24.59 149.12" />
                <rect class="cls-1" x="-40.99" y="89.56" width="112.33" height="2.69"
                    transform="translate(106.08 75.72) rotate(90)" />
                <rect class="cls-1" x="-32.85" y="92.35" width="112.61" height="2.69"
                    transform="translate(117.15 70.24) rotate(90)" />
                <rect class="cls-1" x="-19.89" y="86.75" width="112.09" height="2.69"
                    transform="translate(124.25 51.94) rotate(90)" />
                <polygon class="cls-1" points="24.13 38.5 11.37 33.73 11.37 30.97 24.13 35.74 24.13 38.5" />
                <polygon class="cls-3" points="24.13 38.5 38.87 31.73 38.87 28.97 24.13 35.74 24.13 38.5" />
                <rect class="cls-1" x="14.43" y="16.78" width="23.96" height="1.34"
                    transform="translate(43.86 -8.95) rotate(90)" />
                <polygon class="cls-2" points="32.19 2.15 24.64 5.74 18.11 3.2 25.79 0 32.19 2.15" />
                <polygon class="cls-3" points="24.49 8.75 30.81 5.28 30.81 4.38 24.49 7.84 24.49 8.75" />
                <polygon class="cls-3" points="24.49 8.53 19.94 6.41 19.94 5.5 24.49 7.62 24.49 8.53" />
                <polygon class="cls-4" points="23.64 14.22 20.11 7.77 20.64 7.04 24.17 13.49 23.64 14.22" />
                <polygon class="cls-4" points="23.64 20.98 20.11 14.53 20.64 13.8 24.17 20.25 23.64 20.98" />
                <polygon class="cls-4" points="23.71 28 20.19 21.55 20.72 20.82 24.25 27.27 23.71 28" />
                <polygon class="cls-4" points="19.75 26.79 24.64 21.66 24.31 20.82 19.42 25.95 19.75 26.79" />
                <polygon class="cls-4" points="19.75 19.89 24.64 14.76 24.31 13.92 19.42 19.05 19.75 19.89" />
                <polygon class="cls-4" points="19.75 13.39 24.64 8.26 24.31 7.42 19.42 12.55 19.75 13.39" />
                <polygon class="cls-4" points="24.49 15 30.31 5.31 29.77 4.58 23.96 14.27 24.49 15" />
                <polygon class="cls-4" points="24.23 22.26 30.44 11.99 29.91 11.26 23.69 21.53 24.23 22.26" />
                <polygon class="cls-4" points="24.23 29.15 30.31 19.02 29.77 18.29 23.69 28.42 24.23 29.15" />
                <polygon class="cls-4" points="30.61 12.14 24.58 8.42 24.69 7.53 30.72 11.24 30.61 12.14" />
                <polygon class="cls-4" points="30.48 18.84 24.45 15.12 24.55 14.22 30.59 17.94 30.48 18.84" />
                <polygon class="cls-4" points="30.61 25.65 24.58 21.93 24.69 21.04 30.72 24.76 30.61 25.65" />
                <polygon class="cls-3" points="24.17 15 19.62 12.88 19.62 11.98 24.17 14.1 24.17 15" />
                <polygon class="cls-3" points="24.36 22 19.8 19.89 19.8 18.98 24.36 21.1 24.36 22" />
                <polygon class="cls-3" points="24.17 28.68 19.62 26.56 19.62 25.65 24.17 27.77 24.17 28.68" />
                <polygon class="cls-3" points="24.17 28.68 19.62 26.56 19.62 25.65 24.17 27.77 24.17 28.68" />
                <polygon class="cls-3" points="24.36 15 30.68 11.54 30.68 10.63 24.36 14.1 24.36 15" />
                <polygon class="cls-3" points="24.36 21.89 30.68 18.43 30.68 17.52 24.36 20.99 24.36 21.89" />
                <polygon class="cls-3" points="24.49 28.79 30.81 25.32 30.81 24.41 24.49 27.88 24.49 28.79" />
                <rect class="cls-1" x="6.91" y="17.29" width="26.27" height="1.34"
                    transform="translate(38 -2.08) rotate(90)" />
                <rect class="cls-1" x="10.52" y="19.22" width="27.3" height="1.34"
                    transform="translate(44.06 -4.28) rotate(90)" />
                <rect class="cls-1" x="17.19" y="16.35" width="26.62" height="1.34"
                    transform="translate(47.52 -13.48) rotate(90)" />
                <polygon class="cls-1" points="24.64 7.02 18.11 4.57 18.11 3.16 24.64 5.6 24.64 7.02" />
                <polygon class="cls-3" points="24.64 7.02 32.19 3.55 32.19 2.13 24.64 5.6 24.64 7.02" />
                
            </g>
        </g>
    </g>
</svg>