<svg xmlns="http://www.w3.org/2000/svg" xmlns:xlink="http://www.w3.org/1999/xlink" viewBox="0 0 97.98 150">
    <defs>
        <style>
            .cls-1 {
                fill: #959599;
            }

            .cls-2 {
                fill: url(#未命名的渐变_105);
            }

            .cls-3 {
                fill: url(#未命名的渐变_105-2);
            }

            .cls-4 {
                opacity: 0.2;
            }
        </style>
        <linearGradient id="未命名的渐变_105" x1="44.89" y1="6.35" x2="53.09" y2="6.35" gradientUnits="userSpaceOnUse">
            <stop offset="0" stop-color="#e2e2e2" />
            <stop offset="0.03" stop-color="#d0d0d0" />
            <stop offset="0.06" stop-color="#bcbcbc" />
            <stop offset="0.09" stop-color="#b5b5b5" />
            <stop offset="0.49" stop-color="#f6f6f6" />
            <stop offset="0.63" stop-color="#f3f3f3" />
            <stop offset="0.73" stop-color="#eaeaea" />
            <stop offset="0.82" stop-color="#dbdbdb" />
            <stop offset="0.9" stop-color="#c6c6c6" />
            <stop offset="0.97" stop-color="#aaa" />
            <stop offset="1" stop-color="#9b9b9b" />
        </linearGradient>
        <linearGradient id="未命名的渐变_105-2" x1="47.08" y1="15.08" x2="50.9" y2="15.08" xlink:href="#未命名的渐变_105" />
    </defs>
    <title>Pyramid communication tower（金字塔通信塔）</title>
    <g id="图层_2" data-name="图层 2">
        <g id="图层_40" data-name="图层 40">
            <g id="Pyramid_communication_tower_金字塔通信塔_" data-name="Pyramid communication tower（金字塔通信塔）">
                <polygon class="cls-1" points="95.89 135.5 50.6 150 50.6 146.71 95.89 132.21 95.89 135.5" />
                <polygon class="cls-1" points="89.51 119.04 48.33 132.21 48.33 128.91 89.51 115.75 89.51 119.04" />
                <polygon class="cls-1" points="7.81 119.04 48.99 132.21 48.99 128.91 7.81 115.75 7.81 119.04" />
                <polygon class="cls-1" points="82.82 102.48 48.99 113.38 48.99 110.09 82.82 99.19 82.82 102.48" />
                <polygon class="cls-1" points="76.24 86.23 48.99 95.13 48.99 91.83 76.24 82.94 76.24 86.23" />
                <polygon class="cls-1" points="21.08 86.23 48.33 95.13 48.33 91.83 21.08 82.94 21.08 86.23" />
                <polygon class="cls-1" points="69.66 70.36 48.99 77.02 48.99 73.73 69.66 67.06 69.66 70.36" />
                <polygon class="cls-1" points="63.97 55.2 48.99 59.88 48.99 56.59 63.97 51.91 63.97 55.2" />
                <polygon class="cls-1" points="57.11 40.12 48.99 42.74 48.99 39.45 57.11 36.82 57.11 40.12" />
                <polygon class="cls-1" points="95.89 135.5 50.6 150 50.6 146.71 95.89 132.21 95.89 135.5" />
                <line class="cls-1" x1="48.33" y1="128.91" x2="89.51" y2="115.75" />
                <polygon class="cls-1" points="82.82 102.48 48.99 113.38 48.99 110.09 82.82 99.19 82.82 102.48" />
                <polygon class="cls-1" points="69.66 70.36 48.99 77.02 48.99 73.73 69.66 67.06 69.66 70.36" />
                <polygon class="cls-1" points="63.97 55.2 48.99 59.88 48.99 56.59 63.97 51.91 63.97 55.2" />
                <polygon class="cls-1" points="41.29 40.12 49.41 42.74 49.41 39.45 41.29 36.82 41.29 40.12" />
                <polygon class="cls-1" points="2.52 135.5 47.81 150 47.81 146.71 2.52 132.21 2.52 135.5" />
                <polygon class="cls-1" points="15.58 102.48 49.41 113.38 49.41 110.09 15.58 99.19 15.58 102.48" />
                <polygon class="cls-1" points="28.74 70.36 49.41 77.02 49.41 73.73 28.74 67.06 28.74 70.36" />
                <polygon class="cls-1" points="34.44 55.2 49.41 59.88 49.41 56.59 34.44 51.91 34.44 55.2" />
                <line class="cls-1" x1="57.11" y1="40.11" x2="48.99" y2="42.74" />
                <rect class="cls-2" x="44.89" width="8.19" height="12.7" />
                <rect class="cls-3" x="47.08" y="12.7" width="3.82" height="4.75" />
                <rect class="cls-1" x="47.38" y="17.45" width="3.21" height="132.55" />
                <polygon class="cls-1" points="97.98 135.5 94.77 135.5 47.38 18.55 50.6 18.55 97.98 135.5" />
                <polyline class="cls-1" points="3.21 135.5 50.6 18.55 47.38 18.55 0 135.5" />
                
            </g>
        </g>
    </g>
</svg>