<?xml version="1.0" standalone="no"?><!DOCTYPE svg PUBLIC "-//W3C//DTD SVG 1.1//EN" "http://www.w3.org/Graphics/SVG/1.1/DTD/svg11.dtd"><svg t="1722927667141" class="icon" viewBox="0 0 1024 1024" version="1.1" xmlns="http://www.w3.org/2000/svg" p-id="6603" xmlns:xlink="http://www.w3.org/1999/xlink" width="32" height="32"><path d="M256 213.333333a85.333333 85.333333 0 1 1-170.666667 0 85.333333 85.333333 0 0 1 170.666667 0zM256 512a85.333333 85.333333 0 1 1-170.666667 0 85.333333 85.333333 0 0 1 170.666667 0zM256 810.666667a85.333333 85.333333 0 1 1-170.666667 0 85.333333 85.333333 0 0 1 170.666667 0zM341.333333 213.333333a85.333333 85.333333 0 0 1 85.333334-85.333333h426.666666a85.333333 85.333333 0 1 1 0 170.666667H426.666667a85.333333 85.333333 0 0 1-85.333334-85.333334zM341.333333 512a85.333333 85.333333 0 0 1 85.333334-85.333333h426.666666a85.333333 85.333333 0 1 1 0 170.666666H426.666667a85.333333 85.333333 0 0 1-85.333334-85.333333zM341.333333 810.666667a85.333333 85.333333 0 0 1 85.333334-85.333334h426.666666a85.333333 85.333333 0 1 1 0 170.666667H426.666667a85.333333 85.333333 0 0 1-85.333334-85.333333z" fill="#ffffff" p-id="6604"></path></svg>