<?xml version="1.0" standalone="no"?><!DOCTYPE svg PUBLIC "-//W3C//DTD SVG 1.1//EN" "http://www.w3.org/Graphics/SVG/1.1/DTD/svg11.dtd"><svg t="1722927639931" class="icon" viewBox="0 0 1024 1024" version="1.1" xmlns="http://www.w3.org/2000/svg" p-id="6175" xmlns:xlink="http://www.w3.org/1999/xlink" width="32" height="32"><path d="M471.8592 414.65856a94.72 94.72 0 0 1-94.67904 94.78144H197.26336a94.72 94.72 0 0 1-94.67904-94.86336v-180.224a94.72 94.72 0 0 1 94.67904-94.86336h179.9168a94.72 94.72 0 0 1 94.67904 94.86336z m411.4432 412.07808A94.72 94.72 0 0 1 788.62336 921.6h-179.9168a94.72 94.72 0 0 1-94.65856-94.86336v-180.224a94.72 94.72 0 0 1 94.67904-94.86336h179.9168a94.72 94.72 0 0 1 94.67904 94.86336v180.224z m-411.648 0A94.72 94.72 0 0 1 376.97536 921.6H197.07904A94.72 94.72 0 0 1 102.4 826.73664v-180.224a94.72 94.72 0 0 1 94.67904-94.86336H376.832a94.72 94.72 0 0 1 94.67904 94.86336z m356.352-517.632a21.9136 21.9136 0 0 1 0 30.9248l-114.11456 114.11456a21.8112 21.8112 0 0 1-30.8224 0l-113.9712-114.0736a21.9136 21.9136 0 0 1 0-30.9248l113.9712-114.0736a21.8112 21.8112 0 0 1 30.8224 0l113.9712 114.0736m64.86016-51.6096l-127.24224-127.32416a94.57664 94.57664 0 0 0-133.91872 0l-127.24224 127.32416a94.96576 94.96576 0 0 0 0 134.10304l127.13984 127.32416a94.57664 94.57664 0 0 0 133.91872 0l127.24224-127.42656a94.88384 94.88384 0 0 0 0-134.10304z m0 0" p-id="6176" fill="#ffffff"></path></svg>