<?xml version="1.0" encoding="UTF-8"?>
<svg width="1920px" height="80px" viewBox="0 0 1920 80" version="1.1" xmlns="http://www.w3.org/2000/svg" xmlns:xlink="http://www.w3.org/1999/xlink">
    <title>大标题背景框</title>
    <defs>
        <rect id="path-1" x="0" y="0" width="1920" height="80"></rect>
        <path d="M837.211103,77 L860.788897,77 C861.578597,77 862.350628,77.2337521 863.007698,77.6717988 L865,79 L865,79 L833,79 L834.992302,77.6717988 C835.649372,77.2337521 836.421403,77 837.211103,77 Z" id="path-3"></path>
        <filter x="-18.8%" y="-300.0%" width="137.5%" height="700.0%" filterUnits="objectBoundingBox" id="filter-4">
            <feOffset dx="0" dy="0" in="SourceAlpha" result="shadowOffsetOuter1"></feOffset>
            <feGaussianBlur stdDeviation="2" in="shadowOffsetOuter1" result="shadowBlurOuter1"></feGaussianBlur>
            <feColorMatrix values="0 0 0 0 0.270588235   0 0 0 0 0.51372549   0 0 0 0 1  0 0 0 1 0" type="matrix" in="shadowBlurOuter1"></feColorMatrix>
        </filter>
        <path d="M1059.2111,77 L1082.7889,77 C1083.5786,77 1084.35063,77.2337521 1085.0077,77.6717988 L1087,79 L1087,79 L1055,79 L1056.9923,77.6717988 C1057.64937,77.2337521 1058.4214,77 1059.2111,77 Z" id="path-5"></path>
        <filter x="-18.8%" y="-300.0%" width="137.5%" height="700.0%" filterUnits="objectBoundingBox" id="filter-6">
            <feOffset dx="0" dy="0" in="SourceAlpha" result="shadowOffsetOuter1"></feOffset>
            <feGaussianBlur stdDeviation="2" in="shadowOffsetOuter1" result="shadowBlurOuter1"></feGaussianBlur>
            <feColorMatrix values="0 0 0 0 0.270588235   0 0 0 0 0.51372549   0 0 0 0 1  0 0 0 1 0" type="matrix" in="shadowBlurOuter1"></feColorMatrix>
        </filter>
        <linearGradient x1="50%" y1="50%" x2="50%" y2="100%" id="linearGradient-7">
            <stop stop-color="#4583FF" stop-opacity="0" offset="0%"></stop>
            <stop stop-color="#4583FF" stop-opacity="0.5" offset="100%"></stop>
        </linearGradient>
        <linearGradient x1="50%" y1="50%" x2="50%" y2="100%" id="linearGradient-8">
            <stop stop-color="#4583FF" stop-opacity="0" offset="0%"></stop>
            <stop stop-color="#4583FF" offset="100%"></stop>
        </linearGradient>
        <linearGradient x1="50%" y1="50%" x2="50%" y2="100%" id="linearGradient-9">
            <stop stop-color="#4583FF" stop-opacity="0" offset="0%"></stop>
            <stop stop-color="#BFDBFF" offset="100%"></stop>
        </linearGradient>
        <path d="M1220,0 C1220,44.18278 1184.18278,80 1140,80 L1090,80 L1087.34315,77.3431458 C1085.9143,75.9142972 1084.0006,75.0817627 1081.98876,75.0057137 L1081.68629,75 L1060.31371,75 C1058.19198,75 1056.15715,75.8428547 1054.65685,77.3431458 L1054.65685,77.3431458 L1052,80 L868,80 L865.343146,77.3431458 C863.914297,75.9142972 862.000605,75.0817627 859.988757,75.0057137 L859.686292,75 L838.313708,75 C836.191977,75 834.157145,75.8428547 832.656854,77.3431458 L832.656854,77.3431458 L830,80 L780,80 C735.81722,80 700,44.18278 700,0 L1220,0 Z" id="path-10"></path>
        <filter x="-1.5%" y="-10.0%" width="103.1%" height="120.0%" filterUnits="objectBoundingBox" id="filter-11">
            <feGaussianBlur stdDeviation="4" in="SourceAlpha" result="shadowBlurInner1"></feGaussianBlur>
            <feOffset dx="0" dy="-8" in="shadowBlurInner1" result="shadowOffsetInner1"></feOffset>
            <feComposite in="shadowOffsetInner1" in2="SourceAlpha" operator="arithmetic" k2="-1" k3="1" result="shadowInnerInner1"></feComposite>
            <feColorMatrix values="0 0 0 0 0.270588235   0 0 0 0 0.51372549   0 0 0 0 1  0 0 0 0.5 0" type="matrix" in="shadowInnerInner1"></feColorMatrix>
        </filter>
        <linearGradient x1="50%" y1="0%" x2="50%" y2="100%" id="linearGradient-12">
            <stop stop-color="#4583FF" stop-opacity="0" offset="0%"></stop>
            <stop stop-color="#4583FF" offset="100%"></stop>
        </linearGradient>
        <path d="M1209.86616,39.0002977 L1199.86616,39.0002977 C1200.59952,37.6893382 1201.29706,36.3556185 1201.95744,35.0004641 L1211.95744,35.0004641 C1211.29706,36.3556185 1210.59952,37.6893382 1209.86616,39.0002977 Z M719.764546,38.3326795 L720.133843,39.0002977 L710.133843,39.0002977 C709.400477,37.6893382 708.702939,36.3556185 708.042555,35.0004641 L718.042555,35.0004641 C718.591164,36.1262487 719.165414,37.2372404 719.764546,38.3326795 Z" id="path-13"></path>
        <filter x="-1.2%" y="-150.0%" width="102.4%" height="400.0%" filterUnits="objectBoundingBox" id="filter-14">
            <feOffset dx="0" dy="0" in="SourceAlpha" result="shadowOffsetOuter1"></feOffset>
            <feGaussianBlur stdDeviation="2" in="shadowOffsetOuter1" result="shadowBlurOuter1"></feGaussianBlur>
            <feColorMatrix values="0 0 0 0 0.0175576415   0 0 0 0 0.812934756   0 0 0 0 0.974880159  0 0 0 1 0" type="matrix" in="shadowBlurOuter1"></feColorMatrix>
        </filter>
        <path d="M716.227963,31.0001432 L706.227963,31.0001432 C705.811494,30.01025 705.414367,29.0102176 705.037055,28.0005191 L715.037055,28.0005191 C715.414367,29.0102176 715.811494,30.01025 716.227963,31.0001432 Z M1213.77204,31.0001432 L1203.77204,31.0001432 C1204.18851,30.01025 1204.58563,29.0102176 1204.96294,28.0005191 L1214.96294,28.0005191 C1214.58563,29.0102176 1214.18851,30.01025 1213.77204,31.0001432 Z" id="path-15"></path>
        <filter x="-1.2%" y="-200.0%" width="102.4%" height="500.0%" filterUnits="objectBoundingBox" id="filter-16">
            <feOffset dx="0" dy="0" in="SourceAlpha" result="shadowOffsetOuter1"></feOffset>
            <feGaussianBlur stdDeviation="2" in="shadowOffsetOuter1" result="shadowBlurOuter1"></feGaussianBlur>
            <feColorMatrix values="0 0 0 0 0.0175576415   0 0 0 0 0.812934756   0 0 0 0 0.974880159  0 0 0 1 0" type="matrix" in="shadowBlurOuter1"></feColorMatrix>
        </filter>
        <linearGradient x1="50%" y1="0%" x2="50%" y2="100%" id="linearGradient-17">
            <stop stop-color="#4583FF" stop-opacity="0" offset="0%"></stop>
            <stop stop-color="#4583FF" stop-opacity="0.2" offset="100%"></stop>
        </linearGradient>
        <linearGradient x1="50%" y1="50%" x2="50%" y2="100%" id="linearGradient-18">
            <stop stop-color="#4583FF" stop-opacity="0" offset="0%"></stop>
            <stop stop-color="#4583FF" stop-opacity="0.2" offset="100%"></stop>
        </linearGradient>
        <linearGradient x1="100%" y1="50%" x2="-2.22044605e-14%" y2="50%" id="linearGradient-19">
            <stop stop-color="#4583FF" stop-opacity="0.2" offset="0%"></stop>
            <stop stop-color="#4583FF" stop-opacity="0" offset="100%"></stop>
        </linearGradient>
        <linearGradient x1="50%" y1="100%" x2="50%" y2="50%" id="linearGradient-20">
            <stop stop-color="#4583FF" stop-opacity="0.2" offset="0%"></stop>
            <stop stop-color="#4583FF" stop-opacity="0" offset="100%"></stop>
        </linearGradient>
        <rect id="path-21" x="263.532845" y="29.0021661" width="7.99854922" height="4"></rect>
        <filter x="-75.0%" y="-150.0%" width="250.0%" height="400.0%" filterUnits="objectBoundingBox" id="filter-22">
            <feOffset dx="0" dy="0" in="SourceAlpha" result="shadowOffsetOuter1"></feOffset>
            <feGaussianBlur stdDeviation="2" in="shadowOffsetOuter1" result="shadowBlurOuter1"></feGaussianBlur>
            <feColorMatrix values="0 0 0 0 0.0175576415   0 0 0 0 0.812934756   0 0 0 0 0.974880159  0 0 0 1 0" type="matrix" in="shadowBlurOuter1"></feColorMatrix>
        </filter>
        <rect id="path-23" x="275.530669" y="29.0021661" width="7.99854922" height="4"></rect>
        <filter x="-75.0%" y="-150.0%" width="250.0%" height="400.0%" filterUnits="objectBoundingBox" id="filter-24">
            <feOffset dx="0" dy="0" in="SourceAlpha" result="shadowOffsetOuter1"></feOffset>
            <feGaussianBlur stdDeviation="2" in="shadowOffsetOuter1" result="shadowBlurOuter1"></feGaussianBlur>
            <feColorMatrix values="0 0 0 0 0.0175576415   0 0 0 0 0.812934756   0 0 0 0 0.974880159  0 0 0 1 0" type="matrix" in="shadowBlurOuter1"></feColorMatrix>
        </filter>
        <linearGradient x1="0%" y1="84.7348192%" x2="100%" y2="15.2651808%" id="linearGradient-25">
            <stop stop-color="#4583FF" stop-opacity="0" offset="0%"></stop>
            <stop stop-color="#4583FF" offset="50.4873422%"></stop>
            <stop stop-color="#4583FF" stop-opacity="0" offset="100%"></stop>
        </linearGradient>
        <rect id="path-26" x="263.532845" y="29.0021661" width="7.99854922" height="4"></rect>
        <filter x="-75.0%" y="-150.0%" width="250.0%" height="400.0%" filterUnits="objectBoundingBox" id="filter-27">
            <feOffset dx="0" dy="0" in="SourceAlpha" result="shadowOffsetOuter1"></feOffset>
            <feGaussianBlur stdDeviation="2" in="shadowOffsetOuter1" result="shadowBlurOuter1"></feGaussianBlur>
            <feColorMatrix values="0 0 0 0 0.0175576415   0 0 0 0 0.812934756   0 0 0 0 0.974880159  0 0 0 1 0" type="matrix" in="shadowBlurOuter1"></feColorMatrix>
        </filter>
        <rect id="path-28" x="275.530669" y="29.0021661" width="7.99854922" height="4"></rect>
        <filter x="-75.0%" y="-150.0%" width="250.0%" height="400.0%" filterUnits="objectBoundingBox" id="filter-29">
            <feOffset dx="0" dy="0" in="SourceAlpha" result="shadowOffsetOuter1"></feOffset>
            <feGaussianBlur stdDeviation="2" in="shadowOffsetOuter1" result="shadowBlurOuter1"></feGaussianBlur>
            <feColorMatrix values="0 0 0 0 0.0175576415   0 0 0 0 0.812934756   0 0 0 0 0.974880159  0 0 0 1 0" type="matrix" in="shadowBlurOuter1"></feColorMatrix>
        </filter>
    </defs>
    <g id="大屏可视化-案例" stroke="none" stroke-width="1" fill="none" fill-rule="evenodd">
        <g id="大标题背景框">
            <mask id="mask-2" fill="white">
                <use xlink:href="#path-1"></use>
            </mask>
            <g id="矩形"></g>
            <g id="编组-7" mask="url(#mask-2)">
                <g id="矩形">
                    <use fill="black" fill-opacity="1" filter="url(#filter-4)" xlink:href="#path-3"></use>
                    <use fill="#BFDBFF" fill-rule="evenodd" xlink:href="#path-3"></use>
                </g>
                <g id="矩形备份-13">
                    <use fill="black" fill-opacity="1" filter="url(#filter-6)" xlink:href="#path-5"></use>
                    <use fill="#BFDBFF" fill-rule="evenodd" xlink:href="#path-5"></use>
                </g>
                <g id="形状结合">
                    <use fill-opacity="0.5" fill="#050E33" fill-rule="evenodd" xlink:href="#path-10"></use>
                    <use fill="url(#linearGradient-7)" fill-rule="evenodd" xlink:href="#path-10"></use>
                    <use fill="black" fill-opacity="1" filter="url(#filter-11)" xlink:href="#path-10"></use>
                    <path stroke="url(#linearGradient-8)" stroke-width="5" d="M1217.46044,2.5 C1216.81371,22.9074679 1208.27734,41.3242143 1194.80078,54.8007755 C1180.77603,68.825517 1161.40103,77.5 1140,77.5 L1140,77.5 L1091.03553,77.5 L1089.11091,75.5753788 C1087.22368,73.6881463 1084.69201,72.5935402 1082.03314,72.5057253 L1082.03314,72.5057253 L1060.31371,72.5 C1057.64527,72.5 1055.08157,73.5157709 1053.13951,75.3331269 L1053.13951,75.3331269 L1050.96653,77.5 L869.035534,77.5 L867.110913,75.5753788 C865.22368,73.6881463 862.692007,72.5935402 860.033137,72.5057253 L860.033137,72.5057253 L838.313708,72.5 C835.645269,72.5 833.081574,73.5157709 831.139507,75.3331269 L831.139507,75.3331269 L828.966527,77.5 L780,77.5 C758.598966,77.5 739.223966,68.825517 725.199224,54.8007755 C711.722663,41.3242143 703.186287,22.9074679 702.539559,2.5 L702.539559,2.5 Z" stroke-linejoin="square"></path>
                    <path stroke="url(#linearGradient-9)" stroke-width="2" d="M1218.9938,1 C1218.72811,22.4184069 1209.93886,41.7840105 1195.86144,55.8614357 C1181.56525,70.1576238 1161.81525,79 1140,79 L1140,79 L1090.41421,79 L1088.05025,76.636039 C1086.43822,75.0240067 1084.27763,74.0866645 1082.00723,74.0057185 L1082.00723,74.0057185 L1060.31371,74 C1058.03415,74 1055.84376,74.8648199 1054.18116,76.4127437 L1054.18116,76.4127437 L1051.58661,79 L868.414214,79 L866.050253,76.636039 C864.43822,75.0240067 862.277627,74.0866645 860.00723,74.0057185 L860.00723,74.0057185 L838.313708,74 C836.034148,74 833.843758,74.8648199 832.18116,76.4127437 L832.18116,76.4127437 L829.586611,79 L780,79 C758.184752,79 738.434752,70.1576238 724.138564,55.8614357 C710.061139,41.7840105 701.271892,22.4184069 701.006199,1 L701.006199,1 Z" stroke-linejoin="square"></path>
                </g>
                <path d="M1220,0 C1220,14.1606837 1216.32079,27.4620426 1209.86616,39.0002977 L1199.86616,39.0002977 C1206.32079,27.4620426 1210,14.1606837 1210,0 L1210,0 L1220,0 Z M710,0 C710,14.1606837 713.679207,27.4620426 720.133843,39.0002977 L720.133843,39.0002977 L710.133843,39.0002977 C703.679207,27.4620426 700,14.1606837 700,0 Z" id="形状结合" fill="url(#linearGradient-12)"></path>
                <g id="形状结合">
                    <use fill="black" fill-opacity="1" filter="url(#filter-14)" xlink:href="#path-13"></use>
                    <use fill="#58EEFF" fill-rule="evenodd" xlink:href="#path-13"></use>
                </g>
                <g id="形状结合" opacity="0.400000006">
                    <use fill="black" fill-opacity="1" filter="url(#filter-16)" xlink:href="#path-15"></use>
                    <use fill="#58EEFF" fill-rule="evenodd" xlink:href="#path-15"></use>
                </g>
                <g id="编组-16" transform="translate(1566.500000, 35.002137) scale(-1, 1) translate(-1566.500000, -35.002137) translate(1213.000000, 10.000000)">
                    <path d="M702.96645,12.0026661 C695.427122,22.4278698 690.279588,34.6964012 688.327769,48.0034541 L688.327769,48.0034541 L279.537198,48.0042743 C269.043788,48.0042743 259.543788,43.7509795 252.66714,36.874332 C246.230132,30.4373237 242.091765,21.7016736 241.588926,12.0042672 L241.588926,12.0042672 Z" id="形状结合" stroke="url(#linearGradient-18)" stroke-width="4" fill="url(#linearGradient-17)" transform="translate(473.268599, 30.003463) scale(1, -1) translate(-473.268599, -30.003463) "></path>
                    <path d="M230.902595,12.0011996 C227.620211,15.4926448 224.928687,19.5459588 222.987318,24.0012755 L222.987318,24.0012755 L2,24.0012003 L2,12.0011996 Z" id="形状结合" stroke="url(#linearGradient-20)" stroke-width="4" fill="url(#linearGradient-19)"></path>
                    <g id="矩形">
                        <use fill="black" fill-opacity="1" filter="url(#filter-22)" xlink:href="#path-21"></use>
                        <use fill="#58EEFF" fill-rule="evenodd" xlink:href="#path-21"></use>
                    </g>
                    <g id="矩形" opacity="0.200000003">
                        <use fill="black" fill-opacity="1" filter="url(#filter-24)" xlink:href="#path-23"></use>
                        <use fill="#58EEFF" fill-rule="evenodd" xlink:href="#path-23"></use>
                    </g>
                    <path d="M229.539011,50 C229.539011,22.3857625 251.920714,0 279.529944,0 L289.52813,0 L289.52813,0" id="路径" stroke="url(#linearGradient-25)" stroke-width="8" opacity="0.600000024"></path>
                </g>
                <g id="编组-16" transform="translate(0.000000, 10.000000)">
                    <path d="M702.96645,12.0026661 C695.427122,22.4278698 690.279588,34.6964012 688.327769,48.0034541 L688.327769,48.0034541 L279.537198,48.0042743 C269.043788,48.0042743 259.543788,43.7509795 252.66714,36.874332 C246.230132,30.4373237 242.091765,21.7016736 241.588926,12.0042672 L241.588926,12.0042672 Z" id="形状结合" stroke="url(#linearGradient-18)" stroke-width="4" fill="url(#linearGradient-17)" transform="translate(473.268599, 30.003463) scale(1, -1) translate(-473.268599, -30.003463) "></path>
                    <path d="M230.902595,12.0011996 C227.620211,15.4926448 224.928687,19.5459588 222.987318,24.0012755 L222.987318,24.0012755 L2,24.0012003 L2,12.0011996 Z" id="形状结合" stroke="url(#linearGradient-20)" stroke-width="4" fill="url(#linearGradient-19)"></path>
                    <g id="矩形">
                        <use fill="black" fill-opacity="1" filter="url(#filter-27)" xlink:href="#path-26"></use>
                        <use fill="#58EEFF" fill-rule="evenodd" xlink:href="#path-26"></use>
                    </g>
                    <g id="矩形" opacity="0.200000003">
                        <use fill="black" fill-opacity="1" filter="url(#filter-29)" xlink:href="#path-28"></use>
                        <use fill="#58EEFF" fill-rule="evenodd" xlink:href="#path-28"></use>
                    </g>
                    <path d="M229.539011,50 C229.539011,22.3857625 251.920714,0 279.529944,0 L289.52813,0 L289.52813,0" id="路径" stroke="url(#linearGradient-25)" stroke-width="8" opacity="0.600000024"></path>
                </g>
            </g>
        </g>
    </g>
</svg>