<svg xmlns="http://www.w3.org/2000/svg" xmlns:xlink="http://www.w3.org/1999/xlink" viewBox="0 0 128.28 150.25">
    <defs>
        <style>
            .cls-1,
            .cls-12,
            .cls-2,
            .cls-21,
            .cls-23,
            .cls-24,
            .cls-25,
            .cls-3,
            .cls-30,
            .cls-33,
            .cls-36,
            .cls-37,
            .cls-38,
            .cls-4,
            .cls-5,
            .cls-6,
            .cls-7,
            .cls-8 {
                stroke: #5ac8f7;
            }

            .cls-1,
            .cls-12,
            .cls-2,
            .cls-21,
            .cls-22,
            .cls-23,
            .cls-24,
            .cls-25,
            .cls-3,
            .cls-30,
            .cls-33,
            .cls-36,
            .cls-37,
            .cls-38,
            .cls-4,
            .cls-5,
            .cls-6,
            .cls-7,
            .cls-8 {
                stroke-linejoin: round;
                stroke-width: 0.25px;
            }

            .cls-1,
            .cls-10 {
                fill: url(#未命名的渐变_97);
            }

            .cls-13,
            .cls-2 {
                fill: url(#未命名的渐变_97-2);
            }

            .cls-16,
            .cls-3 {
                fill: url(#未命名的渐变_2519);
            }

            .cls-19,
            .cls-4 {
                fill: url(#未命名的渐变_97-3);
            }

            .cls-26,
            .cls-5 {
                fill: url(#未命名的渐变_97-4);
            }

            .cls-28,
            .cls-6 {
                fill: url(#未命名的渐变_97-5);
            }

            .cls-31,
            .cls-7 {
                fill: url(#未命名的渐变_97-6);
            }

            .cls-34,
            .cls-8 {
                fill: url(#未命名的渐变_97-7);
            }

            .cls-15,
            .cls-23,
            .cls-24,
            .cls-25,
            .cls-9 {
                opacity: 0.2;
            }

            .cls-18,
            .cls-9 {
                isolation: isolate;
            }

            .cls-11 {
                clip-path: url(#clip-path);
            }

            .cls-12 {
                fill: none;
            }

            .cls-14 {
                clip-path: url(#clip-path-2);
            }

            .cls-17 {
                clip-path: url(#clip-path-3);
            }

            .cls-20 {
                clip-path: url(#clip-path-4);
            }

            .cls-21 {
                fill: url(#未命名的渐变_2519-4);
            }

            .cls-22 {
                fill: url(#未命名的渐变_97-13);
                stroke: url(#未命名的渐变_135);
            }

            .cls-23 {
                fill: url(#未命名的渐变_97-14);
            }

            .cls-24 {
                fill: url(#未命名的渐变_97-15);
            }

            .cls-25 {
                fill: url(#未命名的渐变_97-16);
            }

            .cls-27 {
                clip-path: url(#clip-path-5);
            }

            .cls-29 {
                clip-path: url(#clip-path-6);
            }

            .cls-30 {
                fill: url(#未命名的渐变_97-20);
            }

            .cls-32 {
                clip-path: url(#clip-path-7);
            }

            .cls-33 {
                fill: url(#未命名的渐变_97-23);
            }

            .cls-35 {
                clip-path: url(#clip-path-8);
            }

            .cls-36 {
                fill: url(#未命名的渐变_2519-5);
            }

            .cls-37 {
                fill: url(#未命名的渐变_2519-6);
            }

            .cls-38 {
                fill: url(#未命名的渐变_2519-7);
            }
        </style>
        <linearGradient id="未命名的渐变_97" x1="-15.26" y1="81.92" x2="51.14" y2="15.51" gradientUnits="userSpaceOnUse">
            <stop offset="0" stop-color="#2a6aaf" stop-opacity="0" />
            <stop offset="1" stop-color="#5ac8f7" stop-opacity="0.6" />
        </linearGradient>
        <linearGradient id="未命名的渐变_97-2" x1="52.88" y1="94.07" x2="110.81" y2="36.13" xlink:href="#未命名的渐变_97" />
        <linearGradient id="未命名的渐变_2519" x1="104.17" y1="153.83" x2="23.89" y2="73.55" gradientUnits="userSpaceOnUse">
            <stop offset="0" stop-color="#5ac8f7" stop-opacity="0.6" />
            <stop offset="1" stop-color="#2a6aaf" stop-opacity="0" />
        </linearGradient>
        <linearGradient id="未命名的渐变_97-3" x1="40.49" y1="60.85" x2="88.01" y2="13.33" xlink:href="#未命名的渐变_97" />
        <linearGradient id="未命名的渐变_97-4" x1="0.13" y1="126.75" x2="120.07" y2="126.75" xlink:href="#未命名的渐变_97" />
        <linearGradient id="未命名的渐变_97-5" x1="0.18" y1="105.95" x2="120.13" y2="105.95" xlink:href="#未命名的渐变_97" />
        <linearGradient id="未命名的渐变_97-6" x1="90.56" y1="151.37" x2="118.89" y2="123.04" xlink:href="#未命名的渐变_97" />
        <linearGradient id="未命名的渐变_97-7" x1="-3.32" y1="111.35" x2="11.98" y2="96.05" xlink:href="#未命名的渐变_97" />
        <clipPath id="clip-path">
            <polygon class="cls-1" points="0.34 20.7 35.76 0.13 35.54 76.73 0.13 97.31 0.34 20.7" />
        </clipPath>
        <clipPath id="clip-path-2">
            <polygon class="cls-2" points="35.76 0.13 128.15 53.47 127.93 130.07 35.54 76.73 35.76 0.13" />
        </clipPath>
        <clipPath id="clip-path-3">
            <path class="cls-3" d="M127.93,130.07c-2.72.48-54.48,9.57-127.81-32.76L35.54,76.73Z" />
        </clipPath>
        <clipPath id="clip-path-4">
            <path class="cls-4" d="M128.15,53.47C125.43,54,73.67,63,.34,20.71L35.76.12Z" />
        </clipPath>
        <linearGradient id="未命名的渐变_2519-4" x1="104.39" y1="77.23" x2="24.1" y2="-3.06" xlink:href="#未命名的渐变_2519" />
        <linearGradient id="未命名的渐变_97-13" x1="21.17" y1="118.35" x2="107.1" y2="32.42" xlink:href="#未命名的渐变_97" />
        <linearGradient id="未命名的渐变_135" x1="64.14" y1="131.34" x2="64.14" y2="20.58" gradientUnits="userSpaceOnUse">
            <stop offset="0" stop-color="#2a6aaf" stop-opacity="0" />
            <stop offset="0.11" stop-color="#337cbd" stop-opacity="0.11" />
            <stop offset="0.31" stop-color="#4197d1" stop-opacity="0.29" />
            <stop offset="0.51" stop-color="#4cace2" stop-opacity="0.42" />
            <stop offset="0.69" stop-color="#54bced" stop-opacity="0.52" />
            <stop offset="0.86" stop-color="#58c5f5" stop-opacity="0.58" />
            <stop offset="1" stop-color="#5ac8f7" stop-opacity="0.6" />
        </linearGradient>
        <linearGradient id="未命名的渐变_97-14" x1="104.47" y1="125.93" x2="115.03" y2="115.37" xlink:href="#未命名的渐变_97" />
        <linearGradient id="未命名的渐变_97-15" x1="7" y1="98.68" x2="17.57" y2="88.12" xlink:href="#未命名的渐变_97" />
        <linearGradient id="未命名的渐变_97-16" x1="0.13" y1="114.09" x2="120.13" y2="114.09" xlink:href="#未命名的渐变_97" />
        <clipPath id="clip-path-5">
            <path class="cls-5"
                d="M94.73,120c11.76,6.79,20.7,15.39,25.34,25.31l-30.76,4.77c-3.13-6.68-9.15-12.47-17.07-17.05C56.07,123.74,32,119.49,8.48,123.15L.13,105.31C35,99.89,70.75,106.2,94.73,120Z" />
        </clipPath>
        <clipPath id="clip-path-6">
            <path class="cls-6"
                d="M109.69,110s7.73,7.73,10.44,14.25l-30.76,4.78c-3.13-6.68-9.15-12.48-17.07-17-16.17-9.34-40.24-13.59-63.76-9.93L.18,84.25c4-.62,12-1.41,12-1.41S42.08,94.6,61.73,100.5C92.93,109.86,109.69,110,109.69,110Z" />
        </clipPath>
        <linearGradient id="未命名的渐变_97-20" x1="0.18" y1="105.95" x2="120.13" y2="105.95" xlink:href="#未命名的渐变_97" />
        <clipPath id="clip-path-7">
            <polygon class="cls-7" points="120.13 124.28 120.07 145.35 89.31 150.13 89.37 129.06 120.13 124.28" />
        </clipPath>
        <linearGradient id="未命名的渐变_97-23" x1="30.18" y1="144.85" x2="68.96" y2="106.07" xlink:href="#未命名的渐变_97" />
        <clipPath id="clip-path-8">
            <polygon class="cls-8" points="8.54 102.08 8.48 123.15 0.13 105.31 0.18 84.25 8.54 102.08" />
        </clipPath>
        <linearGradient id="未命名的渐变_2519-5" x1="56.22" y1="135.02" x2="42.09" y2="120.9" xlink:href="#未命名的渐变_2519" />
        <linearGradient id="未命名的渐变_2519-6" x1="56.22" y1="119.88" x2="42.09" y2="105.75" xlink:href="#未命名的渐变_2519" />
        <linearGradient id="未命名的渐变_2519-7" x1="59.98" y1="131.25" x2="39.23" y2="110.5" xlink:href="#未命名的渐变_2519" />
    </defs>
    <title>Hospital（医院）</title>
    <g id="图层_2" data-name="图层 2">
        <g id="图层_55" data-name="图层 55">
            <g id="Hospital_医院_" data-name="Hospital（医院）">
                <g class="cls-9">
                    <polygon class="cls-10" points="0.34 20.7 35.76 0.13 35.54 76.73 0.13 97.31 0.34 20.7" />
                    <g class="cls-11">
                        <polygon class="cls-1" points="0.34 20.7 35.76 0.13 35.54 76.73 0.13 97.31 0.34 20.7" />
                    </g>
                    <polygon class="cls-12" points="0.34 20.7 35.76 0.13 35.54 76.73 0.13 97.31 0.34 20.7" />
                </g>
                <g class="cls-9">
                    <polygon class="cls-13" points="35.76 0.13 128.15 53.47 127.93 130.07 35.54 76.73 35.76 0.13" />
                    <g class="cls-14">
                        <polygon class="cls-2" points="35.76 0.13 128.15 53.47 127.93 130.07 35.54 76.73 35.76 0.13" />
                    </g>
                    <polygon class="cls-12" points="35.76 0.13 128.15 53.47 127.93 130.07 35.54 76.73 35.76 0.13" />
                </g>
                <g class="cls-15">
                    <path class="cls-16" d="M127.93,130.07c-2.72.48-54.48,9.57-127.81-32.76L35.54,76.73Z" />
                    <g class="cls-17">
                        <path class="cls-3" d="M127.93,130.07c-2.72.48-54.48,9.57-127.81-32.76L35.54,76.73Z" />
                    </g>
                    <path class="cls-12" d="M127.93,130.07c-2.72.48-54.48,9.57-127.81-32.76L35.54,76.73Z" />
                </g>
                <g class="cls-18">
                    <path class="cls-19" d="M128.15,53.47C125.43,54,73.67,63,.34,20.71L35.76.12Z" />
                    <g class="cls-20">
                        <path class="cls-21" d="M128.15,53.47C125.43,54,73.67,63,.34,20.71L35.76.12Z" />
                    </g>
                    <path class="cls-12" d="M128.15,53.47C125.43,54,73.67,63,.34,20.71L35.76.12Z" />
                </g>
                <path class="cls-22"
                    d="M.34,20.71.13,97.31c73.32,42.33,125.08,33.24,127.8,32.76l.22-76.6C125.43,54,73.67,63,.34,20.71Z" />
                <line class="cls-23" x1="109.75" y1="110.09" x2="109.75" y2="131.21" />
                <line class="cls-24" x1="12.28" y1="103.97" x2="12.28" y2="82.83" />
                <path class="cls-12" d="M12.28,82.83s66.77,27.26,97.47,27.26" />
                <path class="cls-25"
                    d="M58.21,99.52c-15.65-5.12-46-16.68-46-16.68s-8,.79-12.07,1.41v6.33c0,.93,0,1.88,0,2.83L.14,99c0,2.22,0,4.38,0,6.32,34.9-5.42,70.62.89,94.6,14.73A77.2,77.2,0,0,1,108.42,130a49.81,49.81,0,0,1,11.65,15.4l.06-21.07c-2.41-5.15-10.5-14.31-10.5-14.31S87.23,109,58.21,99.52Z" />
                <g class="cls-9">
                    <path class="cls-26"
                        d="M94.73,120c11.76,6.79,20.7,15.39,25.34,25.31l-30.76,4.77c-3.13-6.68-9.15-12.47-17.07-17.05C56.07,123.74,32,119.49,8.48,123.15L.13,105.31C35,99.89,70.75,106.2,94.73,120Z" />
                    <g class="cls-27">
                        <path class="cls-5"
                            d="M94.73,120c11.76,6.79,20.7,15.39,25.34,25.31l-30.76,4.77c-3.13-6.68-9.15-12.47-17.07-17.05C56.07,123.74,32,119.49,8.48,123.15L.13,105.31C35,99.89,70.75,106.2,94.73,120Z" />
                    </g>
                    <path class="cls-12"
                        d="M94.73,120c11.76,6.79,20.7,15.39,25.34,25.31l-30.76,4.77c-3.13-6.68-9.15-12.47-17.07-17.05C56.07,123.74,32,119.49,8.48,123.15L.13,105.31C35,99.89,70.75,106.2,94.73,120Z" />
                </g>
                <g class="cls-18">
                    <path class="cls-28"
                        d="M109.69,110s7.73,7.73,10.44,14.25l-30.76,4.78c-3.13-6.68-9.15-12.48-17.07-17-16.17-9.34-40.24-13.59-63.76-9.93L.18,84.25c4-.62,12-1.41,12-1.41S42.08,94.6,61.73,100.5C92.93,109.86,109.69,110,109.69,110Z" />
                    <g class="cls-29">
                        <path class="cls-30"
                            d="M109.64,110s7.88,8,10.49,14.31l-30.76,4.78c-3.13-6.68-9.15-12.48-17.07-17-16.17-9.34-40.24-13.59-63.76-9.93L.18,84.25c4-.63,12.09-1.42,12.09-1.42s25.81,10.11,45,16.27C91.5,110.09,109.64,110,109.64,110Z" />
                    </g>
                    <path class="cls-12"
                        d="M109.69,110s7.73,7.73,10.44,14.25l-30.76,4.78c-3.13-6.68-9.15-12.48-17.07-17-16.17-9.34-40.24-13.59-63.76-9.93L.18,84.25c4-.62,12-1.41,12-1.41S42.08,94.6,61.73,100.5C92.93,109.86,109.69,110,109.69,110Z" />
                </g>
                <g class="cls-18">
                    <polygon class="cls-31"
                        points="120.13 124.28 120.07 145.35 89.31 150.13 89.37 129.06 120.13 124.28" />
                    <g class="cls-32">
                        <polygon class="cls-7"
                            points="120.13 124.28 120.07 145.35 89.31 150.13 89.37 129.06 120.13 124.28" />
                    </g>
                    <polygon class="cls-12"
                        points="120.13 124.28 120.07 145.35 89.31 150.13 89.37 129.06 120.13 124.28" />
                </g>
                <path class="cls-33"
                    d="M72.3,112c-16.17-9.34-40.24-13.59-63.76-9.93l-.06,21.07c23.52-3.66,47.59.59,63.76,9.92,7.92,4.58,13.94,10.37,17.07,17.05l.06-21.06C86.24,122.38,80.22,116.58,72.3,112Z" />
                <g class="cls-18">
                    <polygon class="cls-34" points="8.54 102.08 8.48 123.15 0.13 105.31 0.18 84.25 8.54 102.08" />
                    <g class="cls-35">
                        <polygon class="cls-8" points="8.54 102.08 8.48 123.15 0.13 105.31 0.18 84.25 8.54 102.08" />
                    </g>
                    <polygon class="cls-12" points="8.54 102.08 8.48 123.15 0.13 105.31 0.18 84.25 8.54 102.08" />
                </g>
                <g class="cls-15">
                    <path class="cls-36"
                        d="M62,128.22a6.69,6.69,0,0,1-3.43,4c-4.75,2.76-12.48,2.76-17.26,0-4.43-2.56-4.78-6.59-1-9.37l.06,0a108.14,108.14,0,0,1,10.79,2C56,126.06,62,128.16,62,128.16A.18.18,0,0,1,62,128.22Z" />
                </g>
                <path class="cls-37"
                    d="M62,113.08a6.67,6.67,0,0,1-3.43,4c-4.75,2.76-12.48,2.76-17.26,0-4.43-2.56-4.78-6.59-1-9.36l.06,0a109.76,109.76,0,0,1,10.79,2C56,110.92,62,113,62,113A.26.26,0,0,1,62,113.08Z" />
                <path class="cls-38"
                    d="M62,113.08v15.14a6.78,6.78,0,0,1-3.44,4c-4.75,2.76-12.48,2.76-17.26,0-2.41-1.39-3.61-3.21-3.61-5V112.06c0,1.82,1.2,3.64,3.61,5,4.78,2.76,12.51,2.76,17.26,0A6.81,6.81,0,0,0,62,113.08Z" />

            </g>
        </g>
    </g>
</svg>