<svg xmlns="http://www.w3.org/2000/svg" xmlns:xlink="http://www.w3.org/1999/xlink" viewBox="0 0 67.17 150.25">
    <defs>
        <style>
            .cls-1,
            .cls-10,
            .cls-2,
            .cls-3,
            .cls-4,
            .cls-5,
            .cls-6 {
                stroke: #5ac8f7;
                stroke-linejoin: round;
                stroke-width: 0.25px;
            }

            .cls-1,
            .cls-8 {
                fill: url(#未命名的渐变_2520);
            }

            .cls-11,
            .cls-2 {
                fill: url(#未命名的渐变_2520-2);
            }

            .cls-13,
            .cls-3 {
                fill: url(#未命名的渐变_2520-3);
            }

            .cls-15,
            .cls-4 {
                fill: url(#未命名的渐变_2520-4);
            }

            .cls-17,
            .cls-5 {
                fill: url(#未命名的渐变_2520-5);
            }

            .cls-19,
            .cls-6 {
                fill: url(#未命名的渐变_2520-6);
            }

            .cls-7 {
                opacity: 0.2;
            }

            .cls-9 {
                clip-path: url(#clip-path);
            }

            .cls-10 {
                fill: none;
            }

            .cls-12 {
                clip-path: url(#clip-path-2);
            }

            .cls-14 {
                clip-path: url(#clip-path-3);
            }

            .cls-16 {
                clip-path: url(#clip-path-4);
            }

            .cls-18 {
                clip-path: url(#clip-path-5);
            }

            .cls-20 {
                clip-path: url(#clip-path-6);
            }
        </style>
        <linearGradient id="未命名的渐变_2520" x1="12.85" y1="100.75" x2="77.52" y2="36.08" gradientUnits="userSpaceOnUse">
            <stop offset="0" stop-color="#2a6aaf" stop-opacity="0" />
            <stop offset="1" stop-color="#5ac8f7" stop-opacity="0.6" />
        </linearGradient>
        <linearGradient id="未命名的渐变_2520-2" x1="-22.69" y1="101.87" x2="51.2" y2="27.99" xlink:href="#未命名的渐变_2520" />
        <linearGradient id="未命名的渐变_2520-3" x1="20.84" y1="127.17" x2="94.73" y2="53.29" xlink:href="#未命名的渐变_2520" />
        <linearGradient id="未命名的渐变_2520-4" x1="19.93" y1="144.49" x2="47.38" y2="117.04" xlink:href="#未命名的渐变_2520" />
        <linearGradient id="未命名的渐变_2520-5" x1="-7.02" y1="117.54" x2="50.95" y2="59.57" xlink:href="#未命名的渐变_2520" />
        <linearGradient id="未命名的渐变_2520-6" x1="16.42" y1="43.28" x2="50.57" y2="9.13" xlink:href="#未命名的渐变_2520" />
        <clipPath id="clip-path">
            <polygon class="cls-1" points="66.86 25.42 67.04 136.71 23.51 111.41 23.33 0.13 66.86 25.42" />
        </clipPath>
        <clipPath id="clip-path-2">
            <polygon class="cls-2" points="23.33 0.13 23.51 111.41 0.26 124.83 0.13 26.99 23.33 0.13" />
        </clipPath>
        <clipPath id="clip-path-3">
            <polygon class="cls-3" points="66.86 25.42 67.04 136.71 43.8 150.13 43.66 52.28 66.86 25.42" />
        </clipPath>
        <clipPath id="clip-path-4">
            <polygon class="cls-4" points="67.04 136.71 43.8 150.13 0.26 124.83 23.51 111.41 67.04 136.71" />
        </clipPath>
        <clipPath id="clip-path-5">
            <polygon class="cls-5" points="43.8 150.13 0.26 124.83 0.13 26.99 43.66 52.28 43.8 150.13" />
        </clipPath>
        <clipPath id="clip-path-6">
            <polygon class="cls-6" points="43.66 52.28 0.13 26.99 23.33 0.13 66.86 25.42 43.66 52.28" />
        </clipPath>
    </defs>
    <title>Large building 3（大厦3）</title>
    <g id="图层_2" data-name="图层 2">
        <g id="图层_55" data-name="图层 55">
            <g id="Large_building_3_大厦3_" data-name="Large building 3（大厦3）">
                <g class="cls-7">
                    <polygon class="cls-8" points="66.86 25.42 67.04 136.71 23.51 111.41 23.33 0.13 66.86 25.42" />
                    <g class="cls-9">
                        <polygon class="cls-1" points="66.86 25.42 67.04 136.71 23.51 111.41 23.33 0.13 66.86 25.42" />
                    </g>
                    <polygon class="cls-10" points="66.86 25.42 67.04 136.71 23.51 111.41 23.33 0.13 66.86 25.42" />
                </g>
                <g class="cls-7">
                    <polygon class="cls-11" points="23.33 0.13 23.51 111.41 0.26 124.83 0.13 26.99 23.33 0.13" />
                    <g class="cls-12">
                        <polygon class="cls-2" points="23.33 0.13 23.51 111.41 0.26 124.83 0.13 26.99 23.33 0.13" />
                    </g>
                    <polygon class="cls-10" points="23.33 0.13 23.51 111.41 0.26 124.83 0.13 26.99 23.33 0.13" />
                </g>
                <polygon class="cls-13" points="66.86 25.42 67.04 136.71 43.8 150.13 43.66 52.28 66.86 25.42" />
                <g class="cls-14">
                    <polygon class="cls-3" points="66.86 25.42 67.04 136.71 43.8 150.13 43.66 52.28 66.86 25.42" />
                </g>
                <polygon class="cls-10" points="66.86 25.42 67.04 136.71 43.8 150.13 43.66 52.28 66.86 25.42" />
                <g class="cls-7">
                    <polygon class="cls-15" points="67.04 136.71 43.8 150.13 0.26 124.83 23.51 111.41 67.04 136.71" />
                    <g class="cls-16">
                        <polygon class="cls-4"
                            points="67.04 136.71 43.8 150.13 0.26 124.83 23.51 111.41 67.04 136.71" />
                    </g>
                    <polygon class="cls-10" points="67.04 136.71 43.8 150.13 0.26 124.83 23.51 111.41 67.04 136.71" />
                </g>
                <polygon class="cls-17" points="43.8 150.13 0.26 124.83 0.13 26.99 43.66 52.28 43.8 150.13" />
                <g class="cls-18">
                    <polygon class="cls-5" points="43.8 150.13 0.26 124.83 0.13 26.99 43.66 52.28 43.8 150.13" />
                </g>
                <polygon class="cls-10" points="43.8 150.13 0.26 124.83 0.13 26.99 43.66 52.28 43.8 150.13" />
                <polygon class="cls-19" points="43.66 52.28 0.13 26.99 23.33 0.13 66.86 25.42 43.66 52.28" />
                <g class="cls-20">
                    <polygon class="cls-6" points="43.66 52.28 0.13 26.99 23.33 0.13 66.86 25.42 43.66 52.28" />
                </g>
                <polygon class="cls-10" points="43.66 52.28 0.13 26.99 23.33 0.13 66.86 25.42 43.66 52.28" />
               
            </g>
        </g>
    </g>
</svg>