<svg xmlns="http://www.w3.org/2000/svg" xmlns:xlink="http://www.w3.org/1999/xlink" viewBox="0 0 65.33 150.25">
    <defs>
        <style>
            .cls-1,
            .cls-10,
            .cls-13,
            .cls-2,
            .cls-3,
            .cls-4,
            .cls-5,
            .cls-6 {
                stroke: #5ac8f7;
                stroke-linejoin: round;
                stroke-width: 0.25px;
            }

            .cls-1,
            .cls-8 {
                fill: url(#未命名的渐变_2520);
            }

            .cls-11,
            .cls-13,
            .cls-2 {
                fill: url(#未命名的渐变_2520-2);
            }

            .cls-14,
            .cls-3 {
                fill: url(#未命名的渐变_2520-3);
            }

            .cls-16,
            .cls-4 {
                fill: url(#未命名的渐变_2520-4);
            }

            .cls-18,
            .cls-5 {
                fill: url(#未命名的渐变_2520-5);
            }

            .cls-20,
            .cls-6 {
                fill: url(#未命名的渐变_2520-6);
            }

            .cls-13,
            .cls-7 {
                opacity: 0.2;
            }

            .cls-9 {
                clip-path: url(#clip-path);
            }

            .cls-10 {
                fill: none;
            }

            .cls-12 {
                clip-path: url(#clip-path-2);
            }

            .cls-15 {
                clip-path: url(#clip-path-3);
            }

            .cls-17 {
                clip-path: url(#clip-path-4);
            }

            .cls-19 {
                clip-path: url(#clip-path-5);
            }

            .cls-21 {
                clip-path: url(#clip-path-6);
            }
        </style>
        <linearGradient id="未命名的渐变_2520" x1="16.35" y1="147.55" x2="48.81" y2="115.09" gradientUnits="userSpaceOnUse">
            <stop offset="0" stop-color="#2a6aaf" stop-opacity="0" />
            <stop offset="1" stop-color="#5ac8f7" stop-opacity="0.6" />
        </linearGradient>
        <linearGradient id="未命名的渐变_2520-2" x1="16.51" y1="35.16" x2="48.97" y2="2.7" xlink:href="#未命名的渐变_2520" />
        <linearGradient id="未命名的渐变_2520-3" x1="8.01" y1="125.45" x2="89.87" y2="43.59" xlink:href="#未命名的渐变_2520" />
        <linearGradient id="未命名的渐变_2520-4" x1="-15.1" y1="116.11" x2="48.06" y2="52.95" xlink:href="#未命名的渐变_2520" />
        <linearGradient id="未命名的渐变_2520-5" x1="-24.55" y1="106.66" x2="57.31" y2="24.8" xlink:href="#未命名的渐变_2520" />
        <linearGradient id="未命名的渐变_2520-6" x1="17.26" y1="97.3" x2="80.42" y2="34.14" xlink:href="#未命名的渐变_2520" />
        <clipPath id="clip-path">
            <polygon class="cls-1" points="65.04 131.32 32.68 150.13 0.13 131.33 32.48 112.52 65.04 131.32" />
        </clipPath>
        <clipPath id="clip-path-2">
            <polygon class="cls-2" points="65.2 18.92 32.84 37.73 0.29 18.93 32.64 0.13 65.2 18.92" />
        </clipPath>
        <clipPath id="clip-path-3">
            <polygon class="cls-3" points="65.2 18.92 65.04 131.32 32.68 150.13 32.84 37.73 65.2 18.92" />
        </clipPath>
        <clipPath id="clip-path-4">
            <polygon class="cls-4" points="32.84 37.73 32.68 150.13 0.13 131.33 0.29 18.93 32.84 37.73" />
        </clipPath>
        <clipPath id="clip-path-5">
            <polygon class="cls-5" points="0.29 18.93 32.64 0.13 32.48 112.52 0.13 131.33 0.29 18.93" />
        </clipPath>
        <clipPath id="clip-path-6">
            <polygon class="cls-6" points="32.64 0.13 65.2 18.92 65.04 131.32 32.48 112.52 32.64 0.13" />
        </clipPath>
    </defs>
    <title>Large building1（大厦1）</title>
    <g id="图层_2" data-name="图层 2">
        <g id="图层_55" data-name="图层 55">
            <g id="Large_building1_大厦1_" data-name="Large building1（大厦1）">
                <g class="cls-7">
                    <polygon class="cls-8" points="65.04 131.32 32.68 150.13 0.13 131.33 32.48 112.52 65.04 131.32" />
                    <g class="cls-9">
                        <polygon class="cls-1"
                            points="65.04 131.32 32.68 150.13 0.13 131.33 32.48 112.52 65.04 131.32" />
                    </g>
                    <polygon class="cls-10" points="65.04 131.32 32.68 150.13 0.13 131.33 32.48 112.52 65.04 131.32" />
                </g>
                <polygon class="cls-11" points="65.2 18.92 32.84 37.73 0.29 18.93 32.64 0.13 65.2 18.92" />
                <g class="cls-12">
                    <polygon class="cls-13" points="65.2 18.92 32.84 37.73 0.29 18.93 32.64 0.13 65.2 18.92" />
                </g>
                <polygon class="cls-10" points="65.2 18.92 32.84 37.73 0.29 18.93 32.64 0.13 65.2 18.92" />
                <polygon class="cls-14" points="65.2 18.92 65.04 131.32 32.68 150.13 32.84 37.73 65.2 18.92" />
                <g class="cls-15">
                    <polygon class="cls-3" points="65.2 18.92 65.04 131.32 32.68 150.13 32.84 37.73 65.2 18.92" />
                </g>
                <polygon class="cls-10" points="65.2 18.92 65.04 131.32 32.68 150.13 32.84 37.73 65.2 18.92" />
                <polygon class="cls-16" points="32.84 37.73 32.68 150.13 0.13 131.33 0.29 18.93 32.84 37.73" />
                <g class="cls-17">
                    <polygon class="cls-4" points="32.84 37.73 32.68 150.13 0.13 131.33 0.29 18.93 32.84 37.73" />
                </g>
                <polygon class="cls-10" points="32.84 37.73 32.68 150.13 0.13 131.33 0.29 18.93 32.84 37.73" />
                <g class="cls-7">
                    <polygon class="cls-18" points="0.29 18.93 32.64 0.13 32.48 112.52 0.13 131.33 0.29 18.93" />
                    <g class="cls-19">
                        <polygon class="cls-5" points="0.29 18.93 32.64 0.13 32.48 112.52 0.13 131.33 0.29 18.93" />
                    </g>
                    <polygon class="cls-10" points="0.29 18.93 32.64 0.13 32.48 112.52 0.13 131.33 0.29 18.93" />
                </g>
                <g class="cls-7">
                    <polygon class="cls-20" points="32.64 0.13 65.2 18.92 65.04 131.32 32.48 112.52 32.64 0.13" />
                    <g class="cls-21">
                        <polygon class="cls-6" points="32.64 0.13 65.2 18.92 65.04 131.32 32.48 112.52 32.64 0.13" />
                    </g>
                    <polygon class="cls-10" points="32.64 0.13 65.2 18.92 65.04 131.32 32.48 112.52 32.64 0.13" />
                </g>
                
            </g>
        </g>
    </g>
</svg>