<svg xmlns="http://www.w3.org/2000/svg" xmlns:xlink="http://www.w3.org/1999/xlink" viewBox="0 0 72.2 150.25">
    <defs>
        <style>
            .cls-1,
            .cls-11,
            .cls-2,
            .cls-3,
            .cls-4,
            .cls-5,
            .cls-6,
            .cls-7 {
                stroke: #5ac8f7;
                stroke-linejoin: round;
                stroke-width: 0.25px;
            }

            .cls-1,
            .cls-9 {
                fill: url(#未命名的渐变_2520);
            }

            .cls-12,
            .cls-2 {
                fill: url(#未命名的渐变_2520-2);
            }

            .cls-14,
            .cls-3 {
                fill: url(#未命名的渐变_2520-3);
            }

            .cls-16,
            .cls-4 {
                fill: url(#未命名的渐变_2520-4);
            }

            .cls-18,
            .cls-5 {
                fill: url(#未命名的渐变_2520-5);
            }

            .cls-20,
            .cls-6 {
                fill: url(#未命名的渐变_2520-6);
            }

            .cls-22,
            .cls-7 {
                fill: url(#未命名的渐变_2520-7);
            }

            .cls-8 {
                opacity: 0.2;
            }

            .cls-10 {
                clip-path: url(#clip-path);
            }

            .cls-11 {
                fill: none;
            }

            .cls-13 {
                clip-path: url(#clip-path-2);
            }

            .cls-15 {
                clip-path: url(#clip-path-3);
            }

            .cls-17 {
                clip-path: url(#clip-path-4);
            }

            .cls-19 {
                clip-path: url(#clip-path-5);
            }

            .cls-21 {
                clip-path: url(#clip-path-6);
            }

            .cls-23 {
                clip-path: url(#clip-path-7);
            }
        </style>
        <linearGradient id="未命名的渐变_2520" x1="18.06" y1="157.97" x2="53.93" y2="122.1" gradientUnits="userSpaceOnUse">
            <stop offset="0" stop-color="#2a6aaf" stop-opacity="0" />
            <stop offset="1" stop-color="#5ac8f7" stop-opacity="0.6" />
        </linearGradient>
        <linearGradient id="未命名的渐变_2520-2" x1="20.34" y1="103.72" x2="87.62" y2="36.44" xlink:href="#未命名的渐变_2520" />
        <linearGradient id="未命名的渐变_2520-3" x1="26.58" y1="122.21" x2="99.99" y2="48.81" xlink:href="#未命名的渐变_2520" />
        <linearGradient id="未命名的渐变_2520-4" x1="-25.86" y1="114.05" x2="62.08" y2="26.11" xlink:href="#未命名的渐变_2520" />
        <linearGradient id="未命名的渐变_2520-5" x1="54.14" y1="38.84" x2="18.27" y2="2.97" xlink:href="#未命名的渐变_2520" />
        <linearGradient id="未命名的渐变_2520-6" x1="-10.79" y1="127.23" x2="70.08" y2="46.36" xlink:href="#未命名的渐变_2520" />
        <linearGradient id="未命名的渐变_2520-7" x1="-27.85" y1="112.06" x2="32.76" y2="51.44" xlink:href="#未命名的渐变_2520" />
        <clipPath id="clip-path">
            <polygon class="cls-1"
                points="71.86 140.03 54.49 150.13 4.57 142.6 0.13 140.03 35.88 119.26 71.86 140.03" />
        </clipPath>
        <clipPath id="clip-path-2">
            <polygon class="cls-2" points="36.09 0.13 72.08 20.9 71.86 140.03 35.88 119.26 36.09 0.13" />
        </clipPath>
        <clipPath id="clip-path-3">
            <polygon class="cls-3" points="72.08 20.9 71.86 140.03 54.49 150.13 54.71 30.99 72.08 20.9" />
        </clipPath>
        <clipPath id="clip-path-4">
            <polygon class="cls-4" points="0.34 20.9 36.09 0.13 35.88 119.26 0.13 140.03 0.34 20.9" />
        </clipPath>
        <clipPath id="clip-path-5">
            <polygon class="cls-5" points="72.08 20.9 54.71 30.99 4.79 23.47 0.34 20.9 36.09 0.13 72.08 20.9" />
        </clipPath>
        <clipPath id="clip-path-6">
            <polygon class="cls-6" points="54.71 30.99 54.49 150.13 4.57 142.6 4.79 23.47 54.71 30.99" />
        </clipPath>
        <clipPath id="clip-path-7">
            <polygon class="cls-7" points="4.79 23.47 4.57 142.6 0.13 140.03 0.34 20.9 4.79 23.47" />
        </clipPath>
    </defs>
    <title>Large building 4（大厦4）</title>
    <g id="图层_2" data-name="图层 2">
        <g id="图层_55" data-name="图层 55">
            <g id="Large_building_4_大厦4_" data-name="Large building 4（大厦4）">
                <g class="cls-8">
                    <polygon class="cls-9"
                        points="71.86 140.03 54.49 150.13 4.57 142.6 0.13 140.03 35.88 119.26 71.86 140.03" />
                    <g class="cls-10">
                        <polygon class="cls-1"
                            points="71.86 140.03 54.49 150.13 4.57 142.6 0.13 140.03 35.88 119.26 71.86 140.03" />
                    </g>
                    <polygon class="cls-11"
                        points="71.86 140.03 54.49 150.13 4.57 142.6 0.13 140.03 35.88 119.26 71.86 140.03" />
                </g>
                <g class="cls-8">
                    <polygon class="cls-12" points="36.09 0.13 72.08 20.9 71.86 140.03 35.88 119.26 36.09 0.13" />
                    <g class="cls-13">
                        <polygon class="cls-2" points="36.09 0.13 72.08 20.9 71.86 140.03 35.88 119.26 36.09 0.13" />
                    </g>
                    <polygon class="cls-11" points="36.09 0.13 72.08 20.9 71.86 140.03 35.88 119.26 36.09 0.13" />
                </g>
                <polygon class="cls-14" points="72.08 20.9 71.86 140.03 54.49 150.13 54.71 30.99 72.08 20.9" />
                <g class="cls-15">
                    <polygon class="cls-3" points="72.08 20.9 71.86 140.03 54.49 150.13 54.71 30.99 72.08 20.9" />
                </g>
                <polygon class="cls-11" points="72.08 20.9 71.86 140.03 54.49 150.13 54.71 30.99 72.08 20.9" />
                <g class="cls-8">
                    <polygon class="cls-16" points="0.34 20.9 36.09 0.13 35.88 119.26 0.13 140.03 0.34 20.9" />
                    <g class="cls-17">
                        <polygon class="cls-4" points="0.34 20.9 36.09 0.13 35.88 119.26 0.13 140.03 0.34 20.9" />
                    </g>
                    <polygon class="cls-11" points="0.34 20.9 36.09 0.13 35.88 119.26 0.13 140.03 0.34 20.9" />
                </g>
                <polygon class="cls-18" points="72.08 20.9 54.71 30.99 4.79 23.47 0.34 20.9 36.09 0.13 72.08 20.9" />
                <g class="cls-19">
                    <polygon class="cls-5" points="72.08 20.9 54.71 30.99 4.79 23.47 0.34 20.9 36.09 0.13 72.08 20.9" />
                </g>
                <polygon class="cls-11" points="72.08 20.9 54.71 30.99 4.79 23.47 0.34 20.9 36.09 0.13 72.08 20.9" />
                <polygon class="cls-20" points="54.71 30.99 54.49 150.13 4.57 142.6 4.79 23.47 54.71 30.99" />
                <g class="cls-21">
                    <polygon class="cls-6" points="54.71 30.99 54.49 150.13 4.57 142.6 4.79 23.47 54.71 30.99" />
                </g>
                <polygon class="cls-11" points="54.71 30.99 54.49 150.13 4.57 142.6 4.79 23.47 54.71 30.99" />
                <polygon class="cls-22" points="4.79 23.47 4.57 142.6 0.13 140.03 0.34 20.9 4.79 23.47" />
                <g class="cls-23">
                    <polygon class="cls-7" points="4.79 23.47 4.57 142.6 0.13 140.03 0.34 20.9 4.79 23.47" />
                </g>
                <polygon class="cls-11" points="4.79 23.47 4.57 142.6 0.13 140.03 0.34 20.9 4.79 23.47" />
               
            </g>
        </g>
    </g>
</svg>