<svg xmlns="http://www.w3.org/2000/svg" xmlns:xlink="http://www.w3.org/1999/xlink" viewBox="0 0 70.29 150.25">
    <defs>
        <style>
            .cls-1,
            .cls-10,
            .cls-13,
            .cls-2,
            .cls-22,
            .cls-23,
            .cls-24,
            .cls-25,
            .cls-26,
            .cls-3,
            .cls-4,
            .cls-5,
            .cls-6 {
                stroke: #5ac8f7;
                stroke-linejoin: round;
                stroke-width: 0.25px;
            }

            .cls-1,
            .cls-8 {
                fill: url(#未命名的渐变_2520);
            }

            .cls-11,
            .cls-13,
            .cls-2 {
                fill: url(#未命名的渐变_2520-2);
            }

            .cls-14,
            .cls-3 {
                fill: url(#未命名的渐变_2520-3);
            }

            .cls-16,
            .cls-4 {
                fill: url(#未命名的渐变_2520-4);
            }

            .cls-18,
            .cls-5 {
                fill: url(#未命名的渐变_2520-5);
            }

            .cls-20,
            .cls-6 {
                fill: url(#未命名的渐变_2520-6);
            }

            .cls-13,
            .cls-22,
            .cls-23,
            .cls-7 {
                opacity: 0.2;
            }

            .cls-9 {
                clip-path: url(#clip-path);
            }

            .cls-10 {
                fill: none;
            }

            .cls-12 {
                clip-path: url(#clip-path-2);
            }

            .cls-15 {
                clip-path: url(#clip-path-3);
            }

            .cls-17 {
                clip-path: url(#clip-path-4);
            }

            .cls-19 {
                clip-path: url(#clip-path-5);
            }

            .cls-21 {
                clip-path: url(#clip-path-6);
            }

            .cls-22 {
                fill: url(#未命名的渐变_2520-19);
            }

            .cls-23 {
                fill: url(#未命名的渐变_2520-20);
            }

            .cls-24 {
                fill: url(#未命名的渐变_2520-21);
            }

            .cls-25 {
                fill: url(#未命名的渐变_2520-22);
            }

            .cls-26 {
                fill: url(#未命名的渐变_2520-23);
            }
        </style>
        <linearGradient id="未命名的渐变_2520" x1="52.53" y1="147.36" x2="17.59" y2="112.42" gradientUnits="userSpaceOnUse">
            <stop offset="0" stop-color="#2a6aaf" stop-opacity="0" />
            <stop offset="1" stop-color="#5ac8f7" stop-opacity="0.6" />
        </linearGradient>
        <linearGradient id="未命名的渐变_2520-2" x1="17.76" y1="47.91" x2="52.7" y2="12.97" xlink:href="#未命名的渐变_2520" />
        <linearGradient id="未命名的渐变_2520-3" x1="14" y1="128.95" x2="91.34" y2="51.61" xlink:href="#未命名的渐变_2520" />
        <linearGradient id="未命名的渐变_2520-4" x1="-10.88" y1="118.89" x2="46.34" y2="61.67" xlink:href="#未命名的渐变_2520" />
        <linearGradient id="未命名的渐变_2520-5" x1="-21.05" y1="108.72" x2="56.3" y2="31.38" xlink:href="#未命名的渐变_2520" />
        <linearGradient id="未命名的渐变_2520-6" x1="23.95" y1="98.65" x2="81.17" y2="41.44" xlink:href="#未命名的渐变_2520" />
        <clipPath id="clip-path">
            <polygon class="cls-1" points="69.99 129.89 35.17 150.13 0.13 129.89 34.95 109.65 69.99 129.89" />
        </clipPath>
        <clipPath id="clip-path-2">
            <polygon class="cls-2" points="70.17 30.43 35.34 50.67 0.3 30.44 35.12 10.2 70.17 30.43" />
        </clipPath>
        <clipPath id="clip-path-3">
            <polygon class="cls-3" points="70.17 30.43 69.99 129.89 35.17 150.13 35.34 50.67 70.17 30.43" />
        </clipPath>
        <clipPath id="clip-path-4">
            <polygon class="cls-4" points="35.34 50.67 35.17 150.13 0.13 129.89 0.3 30.44 35.34 50.67" />
        </clipPath>
        <clipPath id="clip-path-5">
            <polygon class="cls-5" points="0.3 30.44 35.12 10.2 34.95 109.65 0.13 129.89 0.3 30.44" />
        </clipPath>
        <clipPath id="clip-path-6">
            <polygon class="cls-6" points="35.12 10.2 70.17 30.43 69.99 129.89 34.95 109.65 35.12 10.2" />
        </clipPath>
        <linearGradient id="未命名的渐变_2520-19" x1="35.15" y1="15.29" x2="70.17" y2="15.29" xlink:href="#未命名的渐变_2520" />
        <linearGradient id="未命名的渐变_2520-20" x1="0.13" y1="21.95" x2="35.15" y2="21.95"
            gradientTransform="matrix(1, -0.58, 0, 1, 0, 3.52)" xlink:href="#未命名的渐变_2520" />
        <linearGradient id="未命名的渐变_2520-21" x1="0.24" y1="30.45" x2="70.05" y2="30.45" xlink:href="#未命名的渐变_2520" />
        <linearGradient id="未命名的渐变_2520-22" x1="0.13" y1="25.4" x2="35.15" y2="25.4" xlink:href="#未命名的渐变_2520" />
        <linearGradient id="未命名的渐变_2520-23" x1="35.15" y1="42.17" x2="70.17" y2="42.17"
            gradientTransform="matrix(1, -0.58, 0, 1, 0, 3.52)" xlink:href="#未命名的渐变_2520" />
    </defs>
    <title>Large building 2（大厦2）</title>
    <g id="图层_2" data-name="图层 2">
        <g id="图层_55" data-name="图层 55">
            <g id="Large_building_2_大厦2_" data-name="Large building 2（大厦2）">
                <g class="cls-7">
                    <polygon class="cls-8" points="69.99 129.89 35.17 150.13 0.13 129.89 34.95 109.65 69.99 129.89" />
                    <g class="cls-9">
                        <polygon class="cls-1"
                            points="69.99 129.89 35.17 150.13 0.13 129.89 34.95 109.65 69.99 129.89" />
                    </g>
                    <polygon class="cls-10" points="69.99 129.89 35.17 150.13 0.13 129.89 34.95 109.65 69.99 129.89" />
                </g>
                <polygon class="cls-11" points="70.17 30.43 35.34 50.67 0.3 30.44 35.12 10.2 70.17 30.43" />
                <g class="cls-12">
                    <polygon class="cls-13" points="70.17 30.43 35.34 50.67 0.3 30.44 35.12 10.2 70.17 30.43" />
                </g>
                <polygon class="cls-10" points="70.17 30.43 35.34 50.67 0.3 30.44 35.12 10.2 70.17 30.43" />
                <polygon class="cls-14" points="70.17 30.43 69.99 129.89 35.17 150.13 35.34 50.67 70.17 30.43" />
                <g class="cls-15">
                    <polygon class="cls-3" points="70.17 30.43 69.99 129.89 35.17 150.13 35.34 50.67 70.17 30.43" />
                </g>
                <polygon class="cls-10" points="70.17 30.43 69.99 129.89 35.17 150.13 35.34 50.67 70.17 30.43" />
                <polygon class="cls-16" points="35.34 50.67 35.17 150.13 0.13 129.89 0.3 30.44 35.34 50.67" />
                <g class="cls-17">
                    <polygon class="cls-4" points="35.34 50.67 35.17 150.13 0.13 129.89 0.3 30.44 35.34 50.67" />
                </g>
                <polygon class="cls-10" points="35.34 50.67 35.17 150.13 0.13 129.89 0.3 30.44 35.34 50.67" />
                <g class="cls-7">
                    <polygon class="cls-18" points="0.3 30.44 35.12 10.2 34.95 109.65 0.13 129.89 0.3 30.44" />
                    <g class="cls-19">
                        <polygon class="cls-5" points="0.3 30.44 35.12 10.2 34.95 109.65 0.13 129.89 0.3 30.44" />
                    </g>
                    <polygon class="cls-10" points="0.3 30.44 35.12 10.2 34.95 109.65 0.13 129.89 0.3 30.44" />
                </g>
                <g class="cls-7">
                    <polygon class="cls-20" points="35.12 10.2 70.17 30.43 69.99 129.89 34.95 109.65 35.12 10.2" />
                    <g class="cls-21">
                        <polygon class="cls-6" points="35.12 10.2 70.17 30.43 69.99 129.89 34.95 109.65 35.12 10.2" />
                    </g>
                    <polygon class="cls-10" points="35.12 10.2 70.17 30.43 69.99 129.89 34.95 109.65 35.12 10.2" />
                </g>
                <polygon class="cls-22" points="35.15 0.13 35.15 10.23 70.17 30.45 35.15 0.13" />
                <polygon class="cls-23" points="35.15 0.13 0.13 30.45 35.15 10.23 35.15 0.13" />
                <g class="cls-7">
                    <polygon class="cls-24" points="70.05 30.45 35.26 50.67 0.24 30.45 35.03 10.23 70.05 30.45" />
                </g>
                <polygon class="cls-25" points="35.15 0.13 0.13 30.45 35.15 50.67 35.15 0.13" />
                <polygon class="cls-26" points="35.15 0.13 35.15 50.67 70.17 30.45 35.15 0.13" />
                
            </g>
        </g>
    </g>
</svg>