<svg xmlns="http://www.w3.org/2000/svg" xmlns:xlink="http://www.w3.org/1999/xlink" viewBox="0 0 125.58 150.25">
    <defs>
        <style>
            .cls-1,
            .cls-10,
            .cls-2,
            .cls-21,
            .cls-3,
            .cls-4,
            .cls-5,
            .cls-6 {
                stroke: #5ac8f7;
                stroke-linejoin: round;
                stroke-width: 0.25px;
            }

            .cls-1,
            .cls-8 {
                fill: url(#未命名的渐变_2520);
            }

            .cls-11,
            .cls-2 {
                fill: url(#未命名的渐变_2520-2);
            }

            .cls-13,
            .cls-3 {
                fill: url(#未命名的渐变_2520-3);
            }

            .cls-15,
            .cls-4 {
                fill: url(#未命名的渐变_2520-4);
            }

            .cls-17,
            .cls-5 {
                fill: url(#未命名的渐变_2520-5);
            }

            .cls-19,
            .cls-6 {
                fill: url(#未命名的渐变_2520-6);
            }

            .cls-7 {
                opacity: 0.2;
            }

            .cls-9 {
                clip-path: url(#clip-path);
            }

            .cls-10 {
                fill: none;
            }

            .cls-12 {
                clip-path: url(#clip-path-2);
            }

            .cls-14 {
                clip-path: url(#clip-path-3);
            }

            .cls-16 {
                clip-path: url(#clip-path-4);
            }

            .cls-18 {
                clip-path: url(#clip-path-5);
            }

            .cls-20 {
                clip-path: url(#clip-path-6);
            }

            .cls-21 {
                fill: url(#未命名的渐变_2520-18);
            }
        </style>
        <linearGradient id="未命名的渐变_2520" x1="-15.79" y1="79.29" x2="47.24" y2="16.26" gradientUnits="userSpaceOnUse">
            <stop offset="0" stop-color="#2a6aaf" stop-opacity="0" />
            <stop offset="1" stop-color="#5ac8f7" stop-opacity="0.6" />
        </linearGradient>
        <linearGradient id="未命名的渐变_2520-2" x1="78.34" y1="133.99" x2="141.37" y2="70.96" xlink:href="#未命名的渐变_2520" />
        <linearGradient id="未命名的渐变_2520-3" x1="49.13" y1="95.34" x2="107.44" y2="37.03" xlink:href="#未命名的渐变_2520" />
        <linearGradient id="未命名的渐变_2520-4" x1="40.83" y1="135.9" x2="84.98" y2="91.76" xlink:href="#未命名的渐变_2520" />
        <linearGradient id="未命名的渐变_2520-5" x1="18.15" y1="113.22" x2="76.46" y2="54.91" xlink:href="#未命名的渐变_2520" />
        <linearGradient id="未命名的渐变_2520-6" x1="40.61" y1="58.49" x2="84.76" y2="14.35" xlink:href="#未命名的渐变_2520" />
        <clipPath id="clip-path">
            <polygon class="cls-1" points="31.11 0.13 31.32 77.53 0.34 95.42 0.13 18.01 31.11 0.13" />
        </clipPath>
        <clipPath id="clip-path-2">
            <polygon class="cls-2" points="125.24 54.83 125.46 132.24 94.48 150.13 94.26 72.72 125.24 54.83" />
        </clipPath>
        <clipPath id="clip-path-3">
            <polygon class="cls-3" points="125.24 54.83 125.46 132.24 31.32 77.53 31.11 0.13 125.24 54.83" />
        </clipPath>
        <clipPath id="clip-path-4">
            <polygon class="cls-4" points="125.46 132.24 94.48 150.13 0.34 95.42 31.32 77.53 125.46 132.24" />
        </clipPath>
        <clipPath id="clip-path-5">
            <polygon class="cls-5" points="94.48 150.13 0.34 95.42 0.13 18.01 94.26 72.72 94.48 150.13" />
        </clipPath>
        <clipPath id="clip-path-6">
            <polygon class="cls-6" points="94.26 72.72 0.13 18.01 31.11 0.13 125.24 54.83 94.26 72.72" />
        </clipPath>
        <linearGradient id="未命名的渐变_2520-18" x1="103.16" y1="76.9" x2="22.2" y2="-4.06" xlink:href="#未命名的渐变_2520" />
    </defs>
    <title>Residential building 1（住宅楼1）</title>
    <g id="图层_2" data-name="图层 2">
        <g id="图层_55" data-name="图层 55">
            <g id="Residential_building_1_住宅楼1_" data-name="Residential building 1（住宅楼1）">
                <g class="cls-7">
                    <polygon class="cls-8" points="31.11 0.13 31.32 77.53 0.34 95.42 0.13 18.01 31.11 0.13" />
                    <g class="cls-9">
                        <polygon class="cls-1" points="31.11 0.13 31.32 77.53 0.34 95.42 0.13 18.01 31.11 0.13" />
                    </g>
                    <polygon class="cls-10" points="31.11 0.13 31.32 77.53 0.34 95.42 0.13 18.01 31.11 0.13" />
                </g>
                <polygon class="cls-11" points="125.24 54.83 125.46 132.24 94.48 150.13 94.26 72.72 125.24 54.83" />
                <g class="cls-12">
                    <polygon class="cls-2" points="125.24 54.83 125.46 132.24 94.48 150.13 94.26 72.72 125.24 54.83" />
                </g>
                <polygon class="cls-10" points="125.24 54.83 125.46 132.24 94.48 150.13 94.26 72.72 125.24 54.83" />
                <g class="cls-7">
                    <polygon class="cls-13" points="125.24 54.83 125.46 132.24 31.32 77.53 31.11 0.13 125.24 54.83" />
                    <g class="cls-14">
                        <polygon class="cls-3"
                            points="125.24 54.83 125.46 132.24 31.32 77.53 31.11 0.13 125.24 54.83" />
                    </g>
                    <polygon class="cls-10" points="125.24 54.83 125.46 132.24 31.32 77.53 31.11 0.13 125.24 54.83" />
                </g>
                <g class="cls-7">
                    <polygon class="cls-15" points="125.46 132.24 94.48 150.13 0.34 95.42 31.32 77.53 125.46 132.24" />
                    <g class="cls-16">
                        <polygon class="cls-4"
                            points="125.46 132.24 94.48 150.13 0.34 95.42 31.32 77.53 125.46 132.24" />
                    </g>
                    <polygon class="cls-10" points="125.46 132.24 94.48 150.13 0.34 95.42 31.32 77.53 125.46 132.24" />
                </g>
                <polygon class="cls-17" points="94.48 150.13 0.34 95.42 0.13 18.01 94.26 72.72 94.48 150.13" />
                <g class="cls-18">
                    <polygon class="cls-5" points="94.48 150.13 0.34 95.42 0.13 18.01 94.26 72.72 94.48 150.13" />
                </g>
                <polygon class="cls-10" points="94.48 150.13 0.34 95.42 0.13 18.01 94.26 72.72 94.48 150.13" />
                <polygon class="cls-19" points="94.26 72.72 0.13 18.01 31.11 0.13 125.24 54.83 94.26 72.72" />
                <g class="cls-20">
                    <polygon class="cls-21" points="94.26 72.72 0.13 18.01 31.11 0.13 125.24 54.83 94.26 72.72" />
                </g>
                <polygon class="cls-10" points="94.26 72.72 0.13 18.01 31.11 0.13 125.24 54.83 94.26 72.72" />
                
            </g>
        </g>
    </g>
</svg>