<svg xmlns="http://www.w3.org/2000/svg" xmlns:xlink="http://www.w3.org/1999/xlink" viewBox="0 0 100.18 150.2">
    <defs>
        <style>
            .cls-1 {
                isolation: isolate;
            }

            .cls-10,
            .cls-12,
            .cls-16,
            .cls-17,
            .cls-18,
            .cls-19,
            .cls-2,
            .cls-20,
            .cls-21,
            .cls-22,
            .cls-23,
            .cls-24,
            .cls-25,
            .cls-26,
            .cls-27,
            .cls-28,
            .cls-29,
            .cls-30,
            .cls-31,
            .cls-32,
            .cls-33,
            .cls-34,
            .cls-35,
            .cls-4,
            .cls-5,
            .cls-8,
            .cls-9 {
                stroke: #5ac8f7;
                stroke-linejoin: round;
            }

            .cls-10,
            .cls-12,
            .cls-16,
            .cls-17,
            .cls-18,
            .cls-19,
            .cls-2,
            .cls-20,
            .cls-21,
            .cls-22,
            .cls-23,
            .cls-24,
            .cls-25,
            .cls-26,
            .cls-27,
            .cls-28,
            .cls-29,
            .cls-30,
            .cls-31,
            .cls-32,
            .cls-33,
            .cls-34,
            .cls-35,
            .cls-4,
            .cls-5 {
                stroke-width: 0.2px;
            }

            .cls-2 {
                fill: url(#未命名的渐变_2519);
            }

            .cls-3 {
                fill: url(#未命名的渐变_2521);
            }

            .cls-4 {
                fill: none;
            }

            .cls-5 {
                fill: url(#未命名的渐变_2519-2);
            }

            .cls-6 {
                fill: url(#未命名的渐变_2521-2);
            }

            .cls-7 {
                opacity: 0.5;
            }

            .cls-8,
            .cls-9 {
                stroke-width: 0.25px;
            }

            .cls-8 {
                fill: url(#未命名的渐变_2521-3);
            }

            .cls-9 {
                fill: url(#未命名的渐变_2519-3);
            }

            .cls-10 {
                fill: url(#未命名的渐变_2519-4);
            }

            .cls-11 {
                fill: url(#未命名的渐变_2521-4);
            }

            .cls-12 {
                fill: url(#未命名的渐变_2519-5);
            }

            .cls-13 {
                fill: url(#未命名的渐变_2521-5);
            }

            .cls-14 {
                fill: url(#未命名的渐变_2519-6);
            }

            .cls-15 {
                fill: #5ac8f7;
            }

            .cls-16 {
                fill: url(#未命名的渐变_2519-7);
            }

            .cls-17 {
                fill: url(#未命名的渐变_2519-8);
            }

            .cls-18 {
                fill: url(#未命名的渐变_2519-9);
            }

            .cls-19 {
                fill: url(#未命名的渐变_2519-10);
            }

            .cls-20 {
                fill: url(#未命名的渐变_2519-11);
            }

            .cls-21 {
                fill: url(#未命名的渐变_2519-12);
            }

            .cls-22 {
                fill: url(#未命名的渐变_2519-13);
            }

            .cls-23 {
                fill: url(#未命名的渐变_2519-14);
            }

            .cls-24 {
                fill: url(#未命名的渐变_2519-15);
            }

            .cls-25 {
                fill: url(#未命名的渐变_2519-16);
            }

            .cls-26 {
                fill: url(#未命名的渐变_2519-17);
            }

            .cls-27 {
                fill: url(#未命名的渐变_2519-18);
            }

            .cls-28 {
                fill: url(#未命名的渐变_2519-19);
            }

            .cls-29 {
                fill: url(#未命名的渐变_2519-20);
            }

            .cls-30 {
                fill: url(#未命名的渐变_2519-21);
            }

            .cls-31 {
                fill: url(#未命名的渐变_2519-22);
            }

            .cls-32 {
                fill: url(#未命名的渐变_2519-23);
            }

            .cls-33 {
                fill: url(#未命名的渐变_2519-24);
            }

            .cls-34 {
                fill: url(#未命名的渐变_2519-25);
            }

            .cls-35 {
                fill: url(#未命名的渐变_2519-26);
            }

            .cls-36 {
                opacity: 0.2;
            }
        </style>
        <linearGradient id="未命名的渐变_2519" x1="79.02" y1="146.81" x2="21.17" y2="88.96" gradientUnits="userSpaceOnUse">
            <stop offset="0" stop-color="#5ac8f7" stop-opacity="0.6" />
            <stop offset="1" stop-color="#2a6aaf" stop-opacity="0" />
        </linearGradient>
        <linearGradient id="未命名的渐变_2521" x1="22.4" y1="151.14" x2="77.87" y2="95.67" gradientUnits="userSpaceOnUse">
            <stop offset="0" stop-color="#2a6aaf" stop-opacity="0" />
            <stop offset="1" stop-color="#5ac8f7" stop-opacity="0.6" />
        </linearGradient>
        <linearGradient id="未命名的渐变_2519-2" x1="75.97" y1="140.9" x2="24.22" y2="89.15" xlink:href="#未命名的渐变_2519" />
        <linearGradient id="未命名的渐变_2521-2" x1="25.32" y1="144.77" x2="74.94" y2="95.16" xlink:href="#未命名的渐变_2521" />
        <linearGradient id="未命名的渐变_2521-3" x1="6.16" y1="117.02" x2="93.97" y2="29.21" xlink:href="#未命名的渐变_2521" />
        <linearGradient id="未命名的渐变_2519-3" x1="73.99" y1="50.32" x2="26.3" y2="2.63" xlink:href="#未命名的渐变_2519" />
        <linearGradient id="未命名的渐变_2519-4" x1="75.97" y1="51.87" x2="24.22" y2="0.12" xlink:href="#未命名的渐变_2519" />
        <linearGradient id="未命名的渐变_2521-4" x1="25.32" y1="55.74" x2="74.94" y2="6.13" xlink:href="#未命名的渐变_2521" />
        <linearGradient id="未命名的渐变_2519-5" x1="68.82" y1="43.63" x2="31.37" y2="6.18" xlink:href="#未命名的渐变_2519" />
        <linearGradient id="未命名的渐变_2521-5" x1="32.16" y1="46.43" x2="68.07" y2="10.52" xlink:href="#未命名的渐变_2521" />
        <linearGradient id="未命名的渐变_2519-6" x1="51.89" y1="17.13" x2="48.4" y2="13.65" xlink:href="#未命名的渐变_2519" />
        <linearGradient id="未命名的渐变_2519-7" x1="56.74" y1="37" x2="43.45" y2="23.71" xlink:href="#未命名的渐变_2519" />
        <linearGradient id="未命名的渐变_2519-8" x1="68.59" y1="38.91" x2="48.96" y2="19.29" xlink:href="#未命名的渐变_2519" />
        <linearGradient id="未命名的渐变_2519-9" x1="76.07" y1="36.38" x2="54.3" y2="14.61" xlink:href="#未命名的渐变_2519" />
        <linearGradient id="未命名的渐变_2519-10" x1="77.37" y1="29.99" x2="58.12" y2="10.74" xlink:href="#未命名的渐变_2519" />
        <linearGradient id="未命名的渐变_2519-11" x1="71.97" y1="21.63" x2="59.13" y2="8.79" xlink:href="#未命名的渐变_2519" />
        <linearGradient id="未命名的渐变_2519-12" x1="61.35" y1="13.51" x2="57.2" y2="9.37" xlink:href="#未命名的渐变_2519" />
        <linearGradient id="未命名的渐变_2519-13" x1="51.88" y1="11.83" x2="48.1" y2="8.05" xlink:href="#未命名的渐变_2519" />
        <linearGradient id="未命名的渐变_2519-14" x1="45.8" y1="16.35" x2="35.97" y2="6.52" xlink:href="#未命名的渐变_2519" />
        <linearGradient id="未命名的渐变_2519-15" x1="40.82" y1="21.45" x2="28.46" y2="9.09" xlink:href="#未命名的渐变_2519" />
        <linearGradient id="未命名的渐变_2519-16" x1="37.62" y1="25.52" x2="27.37" y2="15.27" xlink:href="#未命名的渐变_2519" />
        <linearGradient id="未命名的渐变_2519-17" x1="37.23" y1="27.6" x2="33.01" y2="23.39" xlink:href="#未命名的渐变_2519" />
        <linearGradient id="未命名的渐变_2519-18" x1="43.75" y1="31.39" x2="39.17" y2="26.81" xlink:href="#未命名的渐变_2519" />
        <linearGradient id="未命名的渐变_2519-19" x1="44.97" y1="12.53" x2="48.58" y2="12.53" xlink:href="#未命名的渐变_2519" />
        <linearGradient id="未命名的渐变_2519-20" x1="46.78" y1="9.38" x2="46.78" y2="7.29"
            gradientTransform="translate(54.98 -38.46) rotate(89.84)" xlink:href="#未命名的渐变_2519" />
        <linearGradient id="未命名的渐变_2519-21" x1="44.25" y1="8.55" x2="49.3" y2="8.55" xlink:href="#未命名的渐变_2519" />
        <linearGradient id="未命名的渐变_2519-22" x1="46.78" y1="8.75" x2="46.78" y2="5.83"
            gradientTransform="translate(53.93 -39.51) rotate(89.84)" xlink:href="#未命名的渐变_2519" />
        <linearGradient id="未命名的渐变_2519-23" x1="51.81" y1="13.49" x2="54.6" y2="13.49" xlink:href="#未命名的渐变_2519" />
        <linearGradient id="未命名的渐变_2519-24" x1="53.21" y1="11.06" x2="53.21" y2="9.45"
            gradientTransform="translate(63.31 -42.98) rotate(89.84)" xlink:href="#未命名的渐变_2519" />
        <linearGradient id="未命名的渐变_2519-25" x1="51.26" y1="10.42" x2="55.15" y2="10.42" xlink:href="#未命名的渐变_2519" />
        <linearGradient id="未命名的渐变_2519-26" x1="53.21" y1="10.58" x2="53.21" y2="8.32"
            gradientTransform="translate(62.51 -43.78) rotate(89.84)" xlink:href="#未命名的渐变_2519" />
    </defs>
    <title>Storage tank 1（储油罐1）</title>
    <g id="图层_2" data-name="图层 2">
        <g id="图层_55" data-name="图层 55">
            <g id="Storage_tank_1_储油罐1_" data-name="Storage tank 1（储油罐1）">
                <g class="cls-1">
                    <polygon class="cls-2"
                        points="93.3 103.41 100.08 117.89 93.47 132.36 75.23 142.96 50.26 146.84 25.24 142.96 6.89 132.36 0.11 117.88 6.72 103.41 24.96 92.81 49.93 88.93 74.95 92.81 93.3 103.41" />
                    <polygon class="cls-3"
                        points="93.47 132.36 75.23 142.96 50.26 146.84 25.24 142.96 6.89 132.36 0.11 117.88 0.1 121.14 6.88 135.62 25.23 146.22 50.25 150.1 75.22 146.22 93.46 135.62 100.08 121.15 100.08 117.89 93.47 132.36" />
                    <polygon class="cls-4"
                        points="100.08 117.89 100.08 121.15 93.46 135.62 93.47 132.36 100.08 117.89" />
                    <polygon class="cls-4" points="6.89 132.36 6.88 135.62 0.1 121.14 0.11 117.88 6.89 132.36" />
                    <polygon class="cls-4" points="93.47 132.36 93.46 135.62 75.22 146.22 75.23 142.96 93.47 132.36" />
                    <polygon class="cls-4" points="25.24 142.96 25.23 146.22 6.88 135.62 6.89 132.36 25.24 142.96" />
                    <polygon class="cls-4" points="75.23 142.96 75.22 146.22 50.25 150.1 50.26 146.84 75.23 142.96" />
                    <polygon class="cls-4" points="50.26 146.84 50.25 150.1 25.23 146.22 25.24 142.96 50.26 146.84" />
                </g>
                <g class="cls-1">
                    <polygon class="cls-5"
                        points="88.74 102.08 94.81 115.03 88.89 127.98 72.58 137.46 50.24 140.93 27.87 137.45 11.45 127.98 5.38 115.03 11.3 102.08 27.61 92.6 49.95 89.13 72.33 92.6 88.74 102.08" />
                    <polygon class="cls-6"
                        points="88.89 127.98 72.58 137.46 50.24 140.93 27.87 137.46 11.45 127.98 5.38 115.03 5.38 117.94 11.44 130.89 27.86 140.37 50.24 143.84 72.57 140.37 88.89 130.89 94.8 117.94 94.81 115.03 88.89 127.98" />
                    <polygon class="cls-4" points="94.81 115.03 94.8 117.94 88.89 130.89 88.89 127.98 94.81 115.03" />
                    <polygon class="cls-4" points="11.45 127.98 11.44 130.89 5.38 117.94 5.38 115.03 11.45 127.98" />
                    <polygon class="cls-4" points="88.89 127.98 88.89 130.89 72.57 140.37 72.58 137.46 88.89 127.98" />
                    <polygon class="cls-4" points="27.87 137.46 27.86 140.37 11.44 130.89 11.45 127.98 27.87 137.46" />
                    <polygon class="cls-4" points="72.58 137.46 72.57 140.37 50.24 143.84 50.24 140.93 72.58 137.46" />
                    <polygon class="cls-4" points="50.24 140.93 50.24 143.84 27.86 140.37 27.87 137.46 50.24 140.93" />
                </g>
                <g class="cls-7">
                    <path class="cls-8"
                        d="M91.35,26.59l-.11,86.86c0,6.07-4,12.13-12,16.76-16,9.32-42.12,9.33-58.26,0-8.12-4.69-12.18-10.85-12.16-17L9,26.36c0,6.14,4,12.3,12.16,17,16.14,9.32,42.23,9.31,58.26,0C87.34,38.71,91.33,32.66,91.35,26.59Z" />
                    <path class="cls-9"
                        d="M79.19,9.6c16.14,9.32,16.22,24.42.18,33.75s-42.12,9.32-58.26,0S4.89,18.92,20.92,9.6,63,.28,79.19,9.6Z" />
                </g>
                <g class="cls-1">
                    <polygon class="cls-10"
                        points="88.74 13.05 94.81 26 88.89 38.95 72.58 48.43 50.24 51.9 27.87 48.42 11.45 38.95 5.38 26 11.3 13.05 27.61 3.57 49.95 0.1 72.33 3.57 88.74 13.05" />
                    <polygon class="cls-11"
                        points="88.89 38.95 72.58 48.43 50.24 51.9 27.87 48.43 11.45 38.95 5.38 26 5.38 28.91 11.44 41.87 27.86 51.34 50.24 54.81 72.57 51.35 88.89 41.87 94.8 28.92 94.81 26 88.89 38.95" />
                    <polygon class="cls-4" points="94.81 26 94.8 28.92 88.89 41.87 88.89 38.95 94.81 26" />
                    <polygon class="cls-4" points="11.45 38.95 11.44 41.87 5.38 28.91 5.38 26 11.45 38.95" />
                    <polygon class="cls-4" points="88.89 38.95 88.89 41.87 72.57 51.35 72.58 48.43 88.89 38.95" />
                    <polygon class="cls-4" points="27.87 48.43 27.86 51.34 11.44 41.87 11.45 38.95 27.87 48.43" />
                    <polygon class="cls-4" points="72.58 48.43 72.57 51.35 50.24 54.81 50.24 51.9 72.58 48.43" />
                    <polygon class="cls-4" points="50.24 51.9 50.24 54.81 27.86 51.34 27.87 48.43 50.24 51.9" />
                </g>
                <g class="cls-1">
                    <polygon class="cls-12"
                        points="78.07 15.53 82.46 24.9 78.17 34.28 66.37 41.14 50.2 43.65 34.01 41.13 22.12 34.28 17.73 24.9 22.02 15.53 33.82 8.67 49.99 6.16 66.19 8.67 78.07 15.53" />
                    <polygon class="cls-13"
                        points="78.17 34.28 66.37 41.14 50.2 43.65 34.01 41.14 22.12 34.28 17.73 24.9 17.73 27.01 22.12 36.39 34 43.25 50.2 45.76 66.36 43.25 78.17 36.39 82.45 27.02 82.46 24.91 78.17 34.28" />
                    <polygon class="cls-4" points="82.46 24.91 82.45 27.02 78.17 36.39 78.17 34.28 82.46 24.91" />
                    <polygon class="cls-4" points="22.12 34.28 22.12 36.39 17.73 27.01 17.73 24.9 22.12 34.28" />
                    <polygon class="cls-4" points="78.17 34.28 78.17 36.39 66.36 43.25 66.37 41.14 78.17 34.28" />
                    <polygon class="cls-4" points="34.01 41.14 34 43.25 22.12 36.39 22.12 34.28 34.01 41.14" />
                    <polygon class="cls-4" points="66.37 41.14 66.36 43.25 50.2 45.76 50.2 43.65 66.37 41.14" />
                    <polygon class="cls-4" points="50.2 43.65 50.2 45.76 34 43.25 34.01 41.14 50.2 43.65" />
                    <path class="cls-14"
                        d="M50.16,17.16a4.32,4.32,0,0,1-2.1-.5,1.55,1.55,0,0,1-.9-1.28,1.51,1.51,0,0,1,.89-1.26,4.62,4.62,0,0,1,4.18,0,1.53,1.53,0,0,1,.91,1.27,1.54,1.54,0,0,1-.89,1.27A4.31,4.31,0,0,1,50.16,17.16Z" />
                    <path class="cls-15"
                        d="M50.14,13.72a4.11,4.11,0,0,1,2,.49,1.25,1.25,0,0,1,0,2.36,4.51,4.51,0,0,1-4.09,0,1.25,1.25,0,0,1,0-2.36,4.11,4.11,0,0,1,2-.49m0-.2A4.34,4.34,0,0,0,48,14a1.62,1.62,0,0,0-.94,1.35A1.65,1.65,0,0,0,48,16.75a4.41,4.41,0,0,0,2.15.51,4.29,4.29,0,0,0,2.14-.52,1.63,1.63,0,0,0,.94-1.35,1.64,1.64,0,0,0-1-1.36,4.37,4.37,0,0,0-2.14-.51Z" />
                    <g class="cls-7">
                        <line class="cls-16" x1="50.09" y1="17.06" x2="50.09" y2="43.65" />
                        <line class="cls-17" x1="51.19" y1="17.06" x2="66.37" y2="41.14" />
                        <line class="cls-18" x1="52.2" y1="16.72" x2="78.18" y2="34.28" />
                        <line class="cls-19" x1="53.04" y1="15.83" x2="82.46" y2="24.9" />
                        <line class="cls-20" x1="53.04" y1="14.88" x2="78.07" y2="15.53" />
                        <line class="cls-21" x1="52.37" y1="14.21" x2="66.18" y2="8.67" />
                        <line class="cls-22" x1="49.99" y1="13.72" x2="49.99" y2="6.16" />
                        <line class="cls-23" x1="47.94" y1="14.21" x2="33.82" y2="8.67" />
                        <line class="cls-24" x1="47.26" y1="15.01" x2="22.01" y2="15.53" />
                        <line class="cls-25" x1="47.26" y1="15.88" x2="17.73" y2="24.9" />
                        <line class="cls-26" x1="48.11" y1="16.72" x2="22.12" y2="34.28" />
                        <line class="cls-27" x1="48.92" y1="17.06" x2="34.01" y2="41.14" />
                    </g>
                </g>
                <g class="cls-7">
                    <path class="cls-28"
                        d="M48.58,8.34v7.34a.9.9,0,0,1-.53.73,2.8,2.8,0,0,1-2.55,0,.88.88,0,0,1-.53-.74V8.33a.93.93,0,0,0,.53.75,2.82,2.82,0,0,0,2.56,0A.9.9,0,0,0,48.58,8.34Z" />
                    <ellipse class="cls-29" cx="46.78" cy="8.34" rx="1.05" ry="1.81"
                        transform="translate(38.31 55.09) rotate(-89.84)" />
                </g>
                <path class="cls-30"
                    d="M49.3,7.3V8.36a1.25,1.25,0,0,1-.74,1,3.94,3.94,0,0,1-3.57,0,1.27,1.27,0,0,1-.74-1V7.28a1.25,1.25,0,0,0,.75,1,3.88,3.88,0,0,0,3.57,0A1.25,1.25,0,0,0,49.3,7.3Z" />
                <ellipse class="cls-31" cx="46.78" cy="7.29" rx="1.46" ry="2.52"
                    transform="translate(39.35 54.05) rotate(-89.84)" />
                <g class="cls-7">
                    <path class="cls-32"
                        d="M54.6,10.26v5.66a.69.69,0,0,1-.41.56,2.14,2.14,0,0,1-2,0,.7.7,0,0,1-.41-.57V10.25a.67.67,0,0,0,.41.58,2.18,2.18,0,0,0,2,0A.7.7,0,0,0,54.6,10.26Z" />
                    <ellipse class="cls-33" cx="53.21" cy="10.26" rx="0.81" ry="1.39"
                        transform="translate(42.8 63.44) rotate(-89.84)" />
                </g>
                <path class="cls-34"
                    d="M55.15,9.46v.81a1,1,0,0,1-.56.79,3.05,3.05,0,0,1-2.76,0,1,1,0,0,1-.57-.8V9.45a1,1,0,0,0,.58.8,3,3,0,0,0,2.75,0A1,1,0,0,0,55.15,9.46Z" />
                <ellipse class="cls-35" cx="53.21" cy="9.45" rx="1.13" ry="1.94"
                    transform="translate(43.61 62.63) rotate(-89.84)" />

            </g>
        </g>
    </g>
</svg>