<svg xmlns="http://www.w3.org/2000/svg" xmlns:xlink="http://www.w3.org/1999/xlink" viewBox="0 0 125.18 150.2">
    <defs>
        <style>
            .cls-1 {
                isolation: isolate;
            }

            .cls-10,
            .cls-12,
            .cls-16,
            .cls-17,
            .cls-18,
            .cls-19,
            .cls-2,
            .cls-20,
            .cls-21,
            .cls-22,
            .cls-23,
            .cls-24,
            .cls-25,
            .cls-26,
            .cls-27,
            .cls-28,
            .cls-29,
            .cls-30,
            .cls-31,
            .cls-32,
            .cls-33,
            .cls-34,
            .cls-35,
            .cls-4,
            .cls-5,
            .cls-8,
            .cls-9 {
                stroke: #5ac8f7;
                stroke-linejoin: round;
            }

            .cls-10,
            .cls-12,
            .cls-16,
            .cls-17,
            .cls-18,
            .cls-19,
            .cls-2,
            .cls-20,
            .cls-21,
            .cls-22,
            .cls-23,
            .cls-24,
            .cls-25,
            .cls-26,
            .cls-27,
            .cls-28,
            .cls-29,
            .cls-30,
            .cls-31,
            .cls-32,
            .cls-33,
            .cls-34,
            .cls-35,
            .cls-4,
            .cls-5 {
                stroke-width: 0.2px;
            }

            .cls-2 {
                fill: url(#未命名的渐变_2519);
            }

            .cls-3 {
                fill: url(#未命名的渐变_2521);
            }

            .cls-4 {
                fill: none;
            }

            .cls-5 {
                fill: url(#未命名的渐变_2519-2);
            }

            .cls-6 {
                fill: url(#未命名的渐变_2521-2);
            }

            .cls-7 {
                opacity: 0.5;
            }

            .cls-8,
            .cls-9 {
                stroke-width: 0.25px;
            }

            .cls-8 {
                fill: url(#未命名的渐变_2521-3);
            }

            .cls-9 {
                fill: url(#未命名的渐变_2519-3);
            }

            .cls-10 {
                fill: url(#未命名的渐变_2519-4);
            }

            .cls-11 {
                fill: url(#未命名的渐变_2521-4);
            }

            .cls-12 {
                fill: url(#未命名的渐变_2519-5);
            }

            .cls-13 {
                fill: url(#未命名的渐变_2521-5);
            }

            .cls-14 {
                fill: url(#未命名的渐变_2519-6);
            }

            .cls-15 {
                fill: #5ac8f7;
            }

            .cls-16 {
                fill: url(#未命名的渐变_2519-7);
            }

            .cls-17 {
                fill: url(#未命名的渐变_2519-8);
            }

            .cls-18 {
                fill: url(#未命名的渐变_2519-9);
            }

            .cls-19 {
                fill: url(#未命名的渐变_2519-10);
            }

            .cls-20 {
                fill: url(#未命名的渐变_2519-11);
            }

            .cls-21 {
                fill: url(#未命名的渐变_2519-12);
            }

            .cls-22 {
                fill: url(#未命名的渐变_2519-13);
            }

            .cls-23 {
                fill: url(#未命名的渐变_2519-14);
            }

            .cls-24 {
                fill: url(#未命名的渐变_2519-15);
            }

            .cls-25 {
                fill: url(#未命名的渐变_2519-16);
            }

            .cls-26 {
                fill: url(#未命名的渐变_2519-17);
            }

            .cls-27 {
                fill: url(#未命名的渐变_2519-18);
            }

            .cls-28 {
                fill: url(#未命名的渐变_2519-19);
            }

            .cls-29 {
                fill: url(#未命名的渐变_2519-20);
            }

            .cls-30 {
                fill: url(#未命名的渐变_2519-21);
            }

            .cls-31 {
                fill: url(#未命名的渐变_2519-22);
            }

            .cls-32 {
                fill: url(#未命名的渐变_2519-23);
            }

            .cls-33 {
                fill: url(#未命名的渐变_2519-24);
            }

            .cls-34 {
                fill: url(#未命名的渐变_2519-25);
            }

            .cls-35 {
                fill: url(#未命名的渐变_2519-26);
            }

            .cls-36 {
                opacity: 0.2;
            }
        </style>
        <linearGradient id="未命名的渐变_2519" x1="98.75" y1="145.99" x2="26.44" y2="73.67" gradientUnits="userSpaceOnUse">
            <stop offset="0" stop-color="#5ac8f7" stop-opacity="0.6" />
            <stop offset="1" stop-color="#2a6aaf" stop-opacity="0" />
        </linearGradient>
        <linearGradient id="未命名的渐变_2521" x1="27.97" y1="151.4" x2="97.31" y2="82.06" gradientUnits="userSpaceOnUse">
            <stop offset="0" stop-color="#2a6aaf" stop-opacity="0" />
            <stop offset="1" stop-color="#5ac8f7" stop-opacity="0.6" />
        </linearGradient>
        <linearGradient id="未命名的渐变_2519-2" x1="94.94" y1="138.6" x2="30.25" y2="73.92" xlink:href="#未命名的渐变_2519" />
        <linearGradient id="未命名的渐变_2521-2" x1="31.63" y1="143.44" x2="93.65" y2="81.42" xlink:href="#未命名的渐变_2521" />
        <linearGradient id="未命名的渐变_2521-3" x1="17.05" y1="118.13" x2="108.07" y2="27.12" xlink:href="#未命名的渐变_2521" />
        <linearGradient id="未命名的渐变_2519-3" x1="92.46" y1="62.87" x2="32.85" y2="3.26" xlink:href="#未命名的渐变_2519" />
        <linearGradient id="未命名的渐变_2519-4" x1="94.94" y1="64.81" x2="30.25" y2="0.13" xlink:href="#未命名的渐变_2519" />
        <linearGradient id="未命名的渐变_2521-4" x1="31.63" y1="69.66" x2="93.65" y2="7.64" xlink:href="#未命名的渐变_2521" />
        <linearGradient id="未命名的渐变_2519-5" x1="86" y1="54.51" x2="39.19" y2="7.7" xlink:href="#未命名的渐变_2519" />
        <linearGradient id="未命名的渐变_2521-5" x1="40.18" y1="58.02" x2="85.07" y2="13.13" xlink:href="#未命名的渐变_2521" />
        <linearGradient id="未命名的渐变_2519-6" x1="64.82" y1="21.37" x2="60.5" y2="17.05" xlink:href="#未命名的渐变_2519" />
        <linearGradient id="未命名的渐变_2519-7" x1="70.9" y1="46.23" x2="54.28" y2="29.61" xlink:href="#未命名的渐变_2519" />
        <linearGradient id="未命名的渐变_2519-8" x1="85.71" y1="48.62" x2="61.18" y2="24.08" xlink:href="#未命名的渐变_2519" />
        <linearGradient id="未命名的渐变_2519-9" x1="95.06" y1="45.45" x2="67.85" y2="18.24" xlink:href="#未命名的渐变_2519" />
        <linearGradient id="未命名的渐变_2519-10" x1="96.69" y1="37.46" x2="72.63" y2="13.4" xlink:href="#未命名的渐变_2519" />
        <linearGradient id="未命名的渐变_2519-11" x1="89.94" y1="27.01" x2="73.89" y2="10.96" xlink:href="#未命名的渐变_2519" />
        <linearGradient id="未命名的渐变_2519-12" x1="76.66" y1="16.86" x2="71.48" y2="11.68" xlink:href="#未命名的渐变_2519" />
        <linearGradient id="未命名的渐变_2519-13" x1="64.82" y1="14.76" x2="60.1" y2="10.03" xlink:href="#未命名的渐变_2519" />
        <linearGradient id="未命名的渐变_2519-14" x1="57.22" y1="20.41" x2="44.93" y2="8.13" xlink:href="#未命名的渐变_2519" />
        <linearGradient id="未命名的渐变_2519-15" x1="51" y1="26.79" x2="35.54" y2="11.34" xlink:href="#未命名的渐变_2519" />
        <linearGradient id="未命名的渐变_2519-16" x1="47" y1="31.87" x2="34.19" y2="19.06" xlink:href="#未命名的渐变_2519" />
        <linearGradient id="未命名的渐变_2519-17" x1="46.51" y1="34.48" x2="41.24" y2="29.21" xlink:href="#未命名的渐变_2519" />
        <linearGradient id="未命名的渐变_2519-18" x1="54.66" y1="39.21" x2="48.94" y2="33.49" xlink:href="#未命名的渐变_2519" />
        <linearGradient id="未命名的渐变_2519-19" x1="56.18" y1="15.63" x2="60.7" y2="15.63" xlink:href="#未命名的渐变_2519" />
        <linearGradient id="未命名的渐变_2519-20" x1="58.44" y1="11.7" x2="58.44" y2="9.09"
            gradientTransform="translate(68.68 -48.08) rotate(89.84)" xlink:href="#未命名的渐变_2519" />
        <linearGradient id="未命名的渐变_2519-21" x1="55.29" y1="10.66" x2="61.6" y2="10.66" xlink:href="#未命名的渐变_2519" />
        <linearGradient id="未命名的渐变_2519-22" x1="58.45" y1="10.92" x2="58.45" y2="7.26"
            gradientTransform="translate(67.37 -49.38) rotate(89.84)" xlink:href="#未命名的渐变_2519" />
        <linearGradient id="未命名的渐变_2519-23" x1="64.74" y1="16.83" x2="68.22" y2="16.83" xlink:href="#未命名的渐变_2519" />
        <linearGradient id="未命名的渐变_2519-24" x1="66.48" y1="13.81" x2="66.48" y2="11.79"
            gradientTransform="translate(79.09 -53.72) rotate(89.84)" xlink:href="#未命名的渐变_2519" />
        <linearGradient id="未命名的渐变_2519-25" x1="64.05" y1="13" x2="68.92" y2="13" xlink:href="#未命名的渐变_2519" />
        <linearGradient id="未命名的渐变_2519-26" x1="66.48" y1="13.2" x2="66.48" y2="10.38"
            gradientTransform="matrix(0, 1, -1, 0, 78.09, -54.73)" xlink:href="#未命名的渐变_2519" />
    </defs>
    <title>Storage tank 2（储油罐2）</title>
    <g id="图层_2" data-name="图层 2">
        <g id="图层_55" data-name="图层 55">
            <g id="Storage_tank_2_储油罐2_" data-name="Storage tank 2（储油罐2）">
                <g id="_编组_" data-name="&lt;编组&gt;">
                    <g class="cls-1">
                        <polygon class="cls-2"
                            points="116.6 91.73 125.08 109.83 116.81 127.93 94.02 141.18 62.8 146.02 31.53 141.17 8.59 127.93 0.11 109.83 8.38 91.73 31.18 78.48 62.39 73.64 93.66 78.49 116.6 91.73" />
                        <polygon class="cls-3"
                            points="116.81 127.93 94.02 141.18 62.8 146.03 31.53 141.17 8.59 127.93 0.11 109.83 0.1 113.91 8.58 132 31.52 145.25 62.79 150.1 94 145.25 116.8 132 125.07 113.91 125.08 109.83 116.81 127.93" />
                        <polygon class="cls-4"
                            points="125.08 109.83 125.07 113.91 116.8 132 116.81 127.93 125.08 109.83" />
                        <polygon class="cls-4" points="8.59 127.93 8.58 132 0.1 113.91 0.11 109.83 8.59 127.93" />
                        <polygon class="cls-4" points="116.81 127.93 116.8 132 94 145.25 94.02 141.18 116.81 127.93" />
                        <polygon class="cls-4" points="31.53 141.17 31.52 145.25 8.58 132 8.59 127.93 31.53 141.17" />
                        <polygon class="cls-4" points="94.02 141.18 94 145.25 62.79 150.1 62.8 146.03 94.02 141.18" />
                        <polygon class="cls-4" points="62.8 146.03 62.79 150.1 31.52 145.25 31.53 141.17 62.8 146.03" />
                    </g>
                    <g class="cls-1">
                        <polygon class="cls-5"
                            points="110.9 90.07 118.48 106.26 111.09 122.45 90.7 134.3 62.78 138.63 34.81 134.29 14.29 122.45 6.71 106.26 14.1 90.07 34.49 78.22 62.41 73.89 90.38 78.22 110.9 90.07" />
                        <polygon class="cls-6"
                            points="111.09 122.45 90.7 134.3 62.78 138.63 34.81 134.29 14.29 122.45 6.71 106.26 6.7 109.9 14.28 126.09 34.8 137.94 62.77 142.28 90.69 137.94 111.08 126.09 118.47 109.91 118.48 106.26 111.09 122.45" />
                        <polygon class="cls-4"
                            points="118.48 106.26 118.47 109.91 111.08 126.09 111.09 122.45 118.48 106.26" />
                        <polygon class="cls-4" points="14.29 122.45 14.28 126.09 6.7 109.9 6.71 106.26 14.29 122.45" />
                        <polygon class="cls-4"
                            points="111.09 122.45 111.08 126.09 90.69 137.94 90.7 134.3 111.09 122.45" />
                        <polygon class="cls-4"
                            points="34.81 134.29 34.8 137.94 14.28 126.09 14.29 122.45 34.81 134.29" />
                        <polygon class="cls-4" points="90.7 134.3 90.69 137.94 62.77 142.28 62.78 138.63 90.7 134.3" />
                        <polygon class="cls-4"
                            points="62.78 138.63 62.77 142.28 34.8 137.94 34.81 134.29 62.78 138.63" />
                    </g>
                    <g class="cls-7">
                        <path class="cls-8"
                            d="M114.16,33.21,114,104.29c0,7.59-5,15.16-15,20.95-20,11.65-52.65,11.65-72.83,0C16.07,119.38,11,111.69,11,104l.14-71.09c0,7.68,5.05,15.38,15.2,21.24,20.18,11.65,52.79,11.65,72.83,0C109.15,48.37,114.14,40.79,114.16,33.21Z" />
                        <path class="cls-9"
                            d="M99,12c20.17,11.65,20.28,30.54.23,42.19s-52.65,11.65-72.83,0S6.08,23.62,26.13,12,78.78.32,99,12Z" />
                    </g>
                    <g class="cls-1">
                        <polygon class="cls-10"
                            points="110.9 16.29 118.48 32.48 111.09 48.66 90.7 60.51 62.78 64.84 34.81 60.51 14.29 48.66 6.71 32.47 14.1 16.29 34.49 4.43 62.41 0.1 90.38 4.44 110.9 16.29" />
                        <polygon class="cls-11"
                            points="111.09 48.66 90.7 60.51 62.78 64.85 34.81 60.51 14.29 48.66 6.71 32.47 6.7 36.12 14.28 52.31 34.8 64.15 62.77 68.49 90.69 64.16 111.08 52.31 118.47 36.12 118.48 32.48 111.09 48.66" />
                        <polygon class="cls-4"
                            points="118.48 32.48 118.47 36.12 111.08 52.31 111.09 48.66 118.48 32.48" />
                        <polygon class="cls-4" points="14.29 48.66 14.28 52.31 6.7 36.12 6.71 32.47 14.29 48.66" />
                        <polygon class="cls-4" points="111.09 48.66 111.08 52.31 90.69 64.16 90.7 60.51 111.09 48.66" />
                        <polygon class="cls-4" points="34.81 60.51 34.8 64.15 14.28 52.31 14.29 48.66 34.81 60.51" />
                        <polygon class="cls-4" points="90.7 60.51 90.69 64.16 62.77 68.49 62.78 64.85 90.7 60.51" />
                        <polygon class="cls-4" points="62.78 64.85 62.77 68.49 34.8 64.15 34.81 60.51 62.78 64.85" />
                    </g>
                    <g class="cls-1">
                        <polygon class="cls-12"
                            points="97.56 19.39 103.04 31.11 97.69 42.82 82.94 51.4 62.73 54.53 42.48 51.39 27.63 42.82 22.14 31.1 27.49 19.39 42.25 10.81 62.46 7.67 82.71 10.81 97.56 19.39" />
                        <polygon class="cls-13"
                            points="97.69 42.82 82.94 51.4 62.73 54.53 42.48 51.4 27.63 42.82 22.14 31.1 22.14 33.74 27.62 45.46 42.47 54.03 62.72 57.17 82.93 54.04 97.69 45.46 103.04 33.74 103.04 31.11 97.69 42.82" />
                        <polygon class="cls-4"
                            points="103.04 31.11 103.04 33.74 97.69 45.46 97.69 42.82 103.04 31.11" />
                        <polygon class="cls-4" points="27.63 42.82 27.62 45.46 22.14 33.74 22.14 31.1 27.63 42.82" />
                        <polygon class="cls-4" points="97.69 42.82 97.69 45.46 82.93 54.04 82.94 51.4 97.69 42.82" />
                        <polygon class="cls-4" points="42.48 51.4 42.47 54.03 27.62 45.46 27.63 42.82 42.48 51.4" />
                        <polygon class="cls-4" points="82.94 51.4 82.93 54.04 62.72 57.17 62.73 54.54 82.94 51.4" />
                        <polygon class="cls-4" points="62.73 54.54 62.72 57.17 42.47 54.03 42.48 51.4 62.73 54.54" />
                        <path class="cls-14"
                            d="M62.67,21.4a5.36,5.36,0,0,1-2.61-.62A1.93,1.93,0,0,1,59,19.21a1.9,1.9,0,0,1,1.1-1.57,5.76,5.76,0,0,1,5.2,0,1.92,1.92,0,0,1,1.12,1.58,1.9,1.9,0,0,1-1.1,1.56A5.29,5.29,0,0,1,62.67,21.4Z" />
                        <path class="cls-15"
                            d="M62.65,17.12a5.17,5.17,0,0,1,2.55.61c1.42.82,1.43,2.14,0,3a5.17,5.17,0,0,1-2.55.61,5.24,5.24,0,0,1-2.56-.61c-1.41-.82-1.42-2.14,0-3a5.15,5.15,0,0,1,2.55-.61m0-.2a5.38,5.38,0,0,0-2.65.64,2,2,0,0,0-1.15,1.65A2,2,0,0,0,60,20.86a5.34,5.34,0,0,0,2.66.64,5.28,5.28,0,0,0,2.65-.64,2,2,0,0,0,1.15-1.64,2,2,0,0,0-1.17-1.66,5.38,5.38,0,0,0-2.65-.64Z" />
                        <g class="cls-7">
                            <line class="cls-16" x1="62.59" y1="21.3" x2="62.59" y2="54.54" />
                            <line class="cls-17" x1="63.96" y1="21.3" x2="82.93" y2="51.4" />
                            <line class="cls-18" x1="65.22" y1="20.87" x2="97.69" y2="42.82" />
                            <line class="cls-19" x1="66.27" y1="19.76" x2="103.04" y2="31.1" />
                            <line class="cls-20" x1="66.27" y1="18.58" x2="97.56" y2="19.39" />
                            <line class="cls-21" x1="65.43" y1="17.73" x2="82.71" y2="10.81" />
                            <line class="cls-22" x1="62.46" y1="17.12" x2="62.46" y2="7.67" />
                            <line class="cls-23" x1="59.9" y1="17.73" x2="42.25" y2="10.81" />
                            <line class="cls-24" x1="59.05" y1="18.74" x2="27.49" y2="19.39" />
                            <line class="cls-25" x1="59.05" y1="19.83" x2="22.14" y2="31.1" />
                            <line class="cls-26" x1="60.11" y1="20.87" x2="27.63" y2="42.82" />
                            <line class="cls-27" x1="61.12" y1="21.3" x2="42.48" y2="51.39" />
                        </g>
                    </g>
                    <g class="cls-7">
                        <path class="cls-28"
                            d="M60.7,10.4v9.17a1.12,1.12,0,0,1-.66.92,3.52,3.52,0,0,1-3.19,0,1.15,1.15,0,0,1-.67-.93V10.39a1.13,1.13,0,0,0,.66.93,3.54,3.54,0,0,0,3.2,0A1.11,1.11,0,0,0,60.7,10.4Z" />
                        <ellipse class="cls-29" cx="58.44" cy="10.4" rx="1.31" ry="2.26"
                            transform="translate(47.88 68.81) rotate(-89.84)" />
                    </g>
                    <path class="cls-30"
                        d="M61.6,9.1v1.32a1.59,1.59,0,0,1-.92,1.28,4.87,4.87,0,0,1-4.46,0,1.58,1.58,0,0,1-.93-1.3V9.08a1.58,1.58,0,0,0,.93,1.3,4.94,4.94,0,0,0,4.46,0A1.56,1.56,0,0,0,61.6,9.1Z" />
                    <ellipse class="cls-31" cx="58.45" cy="9.09" rx="1.83" ry="3.15"
                        transform="translate(49.19 67.51) rotate(-89.84)" />
                    <g class="cls-7">
                        <path class="cls-32"
                            d="M68.22,12.8v7.07a.87.87,0,0,1-.5.71,2.73,2.73,0,0,1-2.46,0,.87.87,0,0,1-.52-.72V12.79a.87.87,0,0,0,.52.72,2.73,2.73,0,0,0,2.46,0A.87.87,0,0,0,68.22,12.8Z" />
                        <ellipse class="cls-33" cx="66.48" cy="12.8" rx="1.01" ry="1.74"
                            transform="translate(53.5 79.24) rotate(-89.84)" />
                    </g>
                    <path class="cls-34"
                        d="M68.92,11.8v1a1.19,1.19,0,0,1-.7,1,3.79,3.79,0,0,1-3.44,0,1.21,1.21,0,0,1-.72-1v-1a1.23,1.23,0,0,0,.72,1,3.79,3.79,0,0,0,3.44,0A1.25,1.25,0,0,0,68.92,11.8Z" />
                    <ellipse class="cls-35" cx="66.48" cy="11.79" rx="1.41" ry="2.43"
                        transform="translate(54.51 78.24) rotate(-89.84)" />
                 
                </g>
            </g>
        </g>
    </g>
</svg>