<svg xmlns="http://www.w3.org/2000/svg" xmlns:xlink="http://www.w3.org/1999/xlink" viewBox="0 0 71.5 150.2">
    <defs>
        <style>
            .cls-1 {
                isolation: isolate;
            }

            .cls-10,
            .cls-12,
            .cls-16,
            .cls-17,
            .cls-18,
            .cls-19,
            .cls-2,
            .cls-20,
            .cls-21,
            .cls-22,
            .cls-23,
            .cls-24,
            .cls-25,
            .cls-26,
            .cls-27,
            .cls-28,
            .cls-29,
            .cls-30,
            .cls-31,
            .cls-32,
            .cls-33,
            .cls-34,
            .cls-35,
            .cls-4,
            .cls-5,
            .cls-8,
            .cls-9 {
                stroke: #5ac8f7;
                stroke-linejoin: round;
            }

            .cls-10,
            .cls-12,
            .cls-16,
            .cls-17,
            .cls-18,
            .cls-19,
            .cls-2,
            .cls-20,
            .cls-21,
            .cls-22,
            .cls-23,
            .cls-24,
            .cls-25,
            .cls-26,
            .cls-27,
            .cls-28,
            .cls-29,
            .cls-30,
            .cls-31,
            .cls-32,
            .cls-33,
            .cls-34,
            .cls-35,
            .cls-4,
            .cls-5 {
                stroke-width: 0.2px;
            }

            .cls-2 {
                fill: url(#未命名的渐变_2519);
            }

            .cls-3 {
                fill: url(#未命名的渐变_2521);
            }

            .cls-4 {
                fill: none;
            }

            .cls-5 {
                fill: url(#未命名的渐变_2519-2);
            }

            .cls-6 {
                fill: url(#未命名的渐变_2521-2);
            }

            .cls-7 {
                opacity: 0.5;
            }

            .cls-8,
            .cls-9 {
                stroke-width: 0.25px;
            }

            .cls-8 {
                fill: url(#未命名的渐变_2521-3);
            }

            .cls-9 {
                fill: url(#未命名的渐变_2519-3);
            }

            .cls-10 {
                fill: url(#未命名的渐变_2519-4);
            }

            .cls-11 {
                fill: url(#未命名的渐变_2521-4);
            }

            .cls-12 {
                fill: url(#未命名的渐变_2519-5);
            }

            .cls-13 {
                fill: url(#未命名的渐变_2521-5);
            }

            .cls-14 {
                fill: url(#未命名的渐变_2519-6);
            }

            .cls-15 {
                fill: #5ac8f7;
            }

            .cls-16 {
                fill: url(#未命名的渐变_2519-7);
            }

            .cls-17 {
                fill: url(#未命名的渐变_2519-8);
            }

            .cls-18 {
                fill: url(#未命名的渐变_2519-9);
            }

            .cls-19 {
                fill: url(#未命名的渐变_2519-10);
            }

            .cls-20 {
                fill: url(#未命名的渐变_2519-11);
            }

            .cls-21 {
                fill: url(#未命名的渐变_2519-12);
            }

            .cls-22 {
                fill: url(#未命名的渐变_2519-13);
            }

            .cls-23 {
                fill: url(#未命名的渐变_2519-14);
            }

            .cls-24 {
                fill: url(#未命名的渐变_2519-15);
            }

            .cls-25 {
                fill: url(#未命名的渐变_2519-16);
            }

            .cls-26 {
                fill: url(#未命名的渐变_2519-17);
            }

            .cls-27 {
                fill: url(#未命名的渐变_2519-18);
            }

            .cls-28 {
                fill: url(#未命名的渐变_2519-19);
            }

            .cls-29 {
                fill: url(#未命名的渐变_2519-20);
            }

            .cls-30 {
                fill: url(#未命名的渐变_2519-21);
            }

            .cls-31 {
                fill: url(#未命名的渐变_2519-22);
            }

            .cls-32 {
                fill: url(#未命名的渐变_2519-23);
            }

            .cls-33 {
                fill: url(#未命名的渐变_2519-24);
            }

            .cls-34 {
                fill: url(#未命名的渐变_2519-25);
            }

            .cls-35 {
                fill: url(#未命名的渐变_2519-26);
            }

            .cls-36 {
                opacity: 0.2;
            }
        </style>
        <linearGradient id="未命名的渐变_2519" x1="56.38" y1="147.75" x2="15.12" y2="106.5" gradientUnits="userSpaceOnUse">
            <stop offset="0" stop-color="#5ac8f7" stop-opacity="0.6" />
            <stop offset="1" stop-color="#2a6aaf" stop-opacity="0" />
        </linearGradient>
        <linearGradient id="未命名的渐变_2521" x1="16" y1="150.84" x2="55.56" y2="111.29" gradientUnits="userSpaceOnUse">
            <stop offset="0" stop-color="#2a6aaf" stop-opacity="0" />
            <stop offset="1" stop-color="#5ac8f7" stop-opacity="0.6" />
        </linearGradient>
        <linearGradient id="未命名的渐变_2519-2" x1="54.2" y1="143.54" x2="17.3" y2="106.64" xlink:href="#未命名的渐变_2519" />
        <linearGradient id="未命名的渐变_2521-2" x1="18.09" y1="146.3" x2="53.47" y2="110.92" xlink:href="#未命名的渐变_2521" />
        <linearGradient id="未命名的渐变_2521-3" x1="-6.34" y1="115.75" x2="77.8" y2="31.62" xlink:href="#未命名的渐变_2521" />
        <linearGradient id="未命名的渐变_2519-3" x1="52.79" y1="35.91" x2="18.78" y2="1.9" xlink:href="#未命名的渐变_2519" />
        <linearGradient id="未命名的渐变_2519-4" x1="54.2" y1="37.02" x2="17.3" y2="0.12" xlink:href="#未命名的渐变_2519" />
        <linearGradient id="未命名的渐变_2521-4" x1="18.09" y1="39.78" x2="53.47" y2="4.4" xlink:href="#未命名的渐变_2521" />
        <linearGradient id="未命名的渐变_2519-5" x1="49.11" y1="31.14" x2="22.4" y2="4.43" xlink:href="#未命名的渐变_2519" />
        <linearGradient id="未命名的渐变_2521-5" x1="22.96" y1="33.14" x2="48.57" y2="7.53" xlink:href="#未命名的渐变_2521" />
        <linearGradient id="未命名的渐变_2519-6" x1="37.05" y1="12.27" x2="34.53" y2="9.74" xlink:href="#未命名的渐变_2519" />
        <linearGradient id="未命名的渐变_2519-7" x1="40.49" y1="26.41" x2="31.01" y2="16.94" xlink:href="#未命名的渐变_2519" />
        <linearGradient id="未命名的渐变_2519-8" x1="48.94" y1="27.78" x2="34.94" y2="13.78" xlink:href="#未命名的渐变_2519" />
        <linearGradient id="未命名的渐变_2519-9" x1="54.27" y1="25.97" x2="38.75" y2="10.45" xlink:href="#未命名的渐变_2519" />
        <linearGradient id="未命名的渐变_2519-10" x1="55.2" y1="21.41" x2="41.48" y2="7.69" xlink:href="#未命名的渐变_2519" />
        <linearGradient id="未命名的渐变_2519-11" x1="51.35" y1="15.45" x2="42.2" y2="6.3" xlink:href="#未命名的渐变_2519" />
        <linearGradient id="未命名的渐变_2519-12" x1="43.77" y1="9.66" x2="40.82" y2="6.71" xlink:href="#未命名的渐变_2519" />
        <linearGradient id="未命名的渐变_2519-13" x1="37.02" y1="8.46" x2="34.33" y2="5.77" xlink:href="#未命名的渐变_2519" />
        <linearGradient id="未命名的渐变_2519-14" x1="32.69" y1="11.69" x2="25.68" y2="4.68" xlink:href="#未命名的渐变_2519" />
        <linearGradient id="未命名的渐变_2519-15" x1="29.14" y1="15.33" x2="20.32" y2="6.51" xlink:href="#未命名的渐变_2519" />
        <linearGradient id="未命名的渐变_2519-16" x1="26.86" y1="18.23" x2="19.55" y2="10.91" xlink:href="#未命名的渐变_2519" />
        <linearGradient id="未命名的渐变_2519-17" x1="26.57" y1="19.71" x2="23.57" y2="16.71" xlink:href="#未命名的渐变_2519" />
        <linearGradient id="未命名的渐变_2519-18" x1="31.23" y1="22.41" x2="27.96" y2="19.15" xlink:href="#未命名的渐变_2519" />
        <linearGradient id="未命名的渐变_2519-19" x1="32.1" y1="8.96" x2="34.67" y2="8.96" xlink:href="#未命名的渐变_2519" />
        <linearGradient id="未命名的渐变_2519-20" x1="33.38" y1="6.72" x2="33.38" y2="5.23"
            gradientTransform="translate(39.26 -27.43) rotate(89.84)" xlink:href="#未命名的渐变_2519" />
        <linearGradient id="未命名的渐变_2519-21" x1="31.58" y1="6.12" x2="35.18" y2="6.12" xlink:href="#未命名的渐变_2519" />
        <linearGradient id="未命名的渐变_2519-22" x1="33.38" y1="6.27" x2="33.38" y2="4.19"
            gradientTransform="translate(38.52 -28.17) rotate(89.84)" xlink:href="#未命名的渐变_2519" />
        <linearGradient id="未命名的渐变_2519-23" x1="36.98" y1="9.65" x2="38.96" y2="9.65" xlink:href="#未命名的渐变_2519" />
        <linearGradient id="未命名的渐变_2519-24" x1="37.97" y1="7.92" x2="37.97" y2="6.77"
            gradientTransform="translate(45.21 -30.65) rotate(89.84)" xlink:href="#未命名的渐变_2519" />
        <linearGradient id="未命名的渐变_2519-25" x1="36.58" y1="7.46" x2="39.36" y2="7.46" xlink:href="#未命名的渐变_2519" />
        <linearGradient id="未命名的渐变_2519-26" x1="37.97" y1="7.57" x2="37.97" y2="5.97"
            gradientTransform="translate(44.63 -31.22) rotate(89.84)" xlink:href="#未命名的渐变_2519" />
    </defs>
    <title>Storage tank 3（储油罐3）</title>
    <g id="图层_2" data-name="图层 2">
        <g id="图层_55" data-name="图层 55">
            <g id="Storage_tank_3_储油罐3_" data-name="Storage tank 3（储油罐3）">
                <g class="cls-1">
                    <polygon class="cls-2"
                        points="66.56 116.8 71.4 127.13 66.68 137.45 53.68 145.01 35.87 147.77 18.03 145.01 4.94 137.45 0.11 127.13 4.82 116.8 17.83 109.24 35.63 106.48 53.48 109.25 66.56 116.8" />
                    <polygon class="cls-3"
                        points="66.68 137.45 53.68 145.01 35.87 147.78 18.03 145.01 4.94 137.45 0.11 127.13 0.1 129.45 4.94 139.78 18.02 147.33 35.86 150.1 53.67 147.34 66.68 139.78 71.39 129.45 71.4 127.13 66.68 137.45" />
                    <polygon class="cls-4" points="71.4 127.13 71.39 129.45 66.68 139.78 66.68 137.45 71.4 127.13" />
                    <polygon class="cls-4" points="4.94 137.45 4.94 139.78 0.1 129.45 0.11 127.13 4.94 137.45" />
                    <polygon class="cls-4" points="66.68 137.45 66.68 139.78 53.67 147.34 53.68 145.01 66.68 137.45" />
                    <polygon class="cls-4" points="18.03 145.01 18.02 147.33 4.94 139.78 4.94 137.45 18.03 145.01" />
                    <polygon class="cls-4" points="53.68 145.01 53.67 147.34 35.86 150.1 35.87 147.78 53.68 145.01" />
                    <polygon class="cls-4" points="35.87 147.78 35.86 150.1 18.02 147.33 18.03 145.01 35.87 147.78" />
                </g>
                <g class="cls-1">
                    <polygon class="cls-5"
                        points="63.31 115.86 67.64 125.09 63.42 134.32 51.78 141.08 35.86 143.56 19.9 141.08 8.19 134.32 3.87 125.09 8.09 115.86 19.72 109.09 35.65 106.62 51.6 109.1 63.31 115.86" />
                    <polygon class="cls-6"
                        points="63.42 134.32 51.78 141.09 35.86 143.56 19.9 141.08 8.19 134.32 3.87 125.09 3.86 127.17 8.19 136.4 19.89 143.16 35.85 145.64 51.78 143.16 63.41 136.4 67.63 127.17 67.64 125.09 63.42 134.32" />
                    <polygon class="cls-4" points="67.64 125.09 67.63 127.17 63.41 136.4 63.42 134.32 67.64 125.09" />
                    <polygon class="cls-4" points="8.19 134.32 8.19 136.4 3.86 127.17 3.87 125.09 8.19 134.32" />
                    <polygon class="cls-4" points="63.42 134.32 63.41 136.4 51.78 143.16 51.78 141.09 63.42 134.32" />
                    <polygon class="cls-4" points="19.9 141.08 19.89 143.16 8.19 136.4 8.19 134.32 19.9 141.08" />
                    <polygon class="cls-4" points="51.78 141.09 51.78 143.16 35.85 145.64 35.86 143.56 51.78 141.09" />
                    <polygon class="cls-4" points="35.86 143.56 35.85 145.64 19.89 143.16 19.9 141.08 35.86 143.56" />
                </g>
                <g class="cls-7">
                    <path class="cls-8"
                        d="M65.17,19l-.08,105c0,4.33-2.86,8.65-8.54,11.95-11.43,6.64-30,6.65-41.55,0-5.79-3.34-8.68-7.73-8.67-12.12l.08-105c0,4.39,2.88,8.78,8.67,12.12,11.51,6.65,30.11,6.64,41.55,0C62.31,27.64,65.16,23.32,65.17,19Z" />
                    <path class="cls-9"
                        d="M56.5,6.87c11.51,6.65,11.57,17.42.13,24.07s-30,6.65-41.55,0S3.51,13.52,15,6.87,45,.23,56.5,6.87Z" />
                </g>
                <g class="cls-1">
                    <polygon class="cls-10"
                        points="63.31 9.33 67.64 18.57 63.42 27.8 51.78 34.56 35.86 37.04 19.9 34.56 8.19 27.8 3.87 18.57 8.09 9.33 19.72 2.57 35.65 0.1 51.6 2.58 63.31 9.33" />
                    <polygon class="cls-11"
                        points="63.42 27.8 51.78 34.56 35.86 37.04 19.9 34.56 8.19 27.8 3.87 18.57 3.86 20.65 8.19 29.88 19.89 36.64 35.85 39.12 51.78 36.64 63.41 29.88 67.63 20.65 67.64 18.57 63.42 27.8" />
                    <polygon class="cls-4" points="67.64 18.57 67.63 20.65 63.41 29.88 63.42 27.8 67.64 18.57" />
                    <polygon class="cls-4" points="8.19 27.8 8.19 29.88 3.86 20.65 3.87 18.57 8.19 27.8" />
                    <polygon class="cls-4" points="63.42 27.8 63.41 29.88 51.78 36.64 51.78 34.56 63.42 27.8" />
                    <polygon class="cls-4" points="19.9 34.56 19.89 36.64 8.19 29.88 8.19 27.8 19.9 34.56" />
                    <polygon class="cls-4" points="51.78 34.56 51.78 36.64 35.85 39.12 35.86 37.04 51.78 34.56" />
                    <polygon class="cls-4" points="35.86 37.04 35.85 39.12 19.89 36.64 19.9 34.56 35.86 37.04" />
                </g>
                <g class="cls-1">
                    <polygon class="cls-12"
                        points="55.7 11.1 58.83 17.79 55.77 24.47 47.35 29.36 35.83 31.15 24.28 29.36 15.81 24.47 12.68 17.79 15.73 11.1 24.15 6.21 35.67 4.42 47.23 6.21 55.7 11.1" />
                    <polygon class="cls-13"
                        points="55.77 24.47 47.35 29.36 35.83 31.15 24.28 29.36 15.81 24.47 12.68 17.79 12.67 19.29 15.8 25.98 24.27 30.87 35.82 32.66 47.35 30.87 55.77 25.98 58.82 19.29 58.83 17.79 55.77 24.47" />
                    <polygon class="cls-4" points="58.83 17.79 58.82 19.29 55.77 25.98 55.77 24.47 58.83 17.79" />
                    <polygon class="cls-4" points="15.81 24.47 15.8 25.98 12.67 19.29 12.68 17.79 15.81 24.47" />
                    <polygon class="cls-4" points="55.77 24.47 55.77 25.98 47.35 30.87 47.35 29.36 55.77 24.47" />
                    <polygon class="cls-4" points="24.28 29.36 24.27 30.87 15.8 25.98 15.81 24.47 24.28 29.36" />
                    <polygon class="cls-4" points="47.35 29.36 47.35 30.87 35.82 32.66 35.83 31.15 47.35 29.36" />
                    <polygon class="cls-4" points="35.83 31.15 35.82 32.66 24.27 30.87 24.28 29.36 35.83 31.15" />
                    <path class="cls-14"
                        d="M35.8,12.3a3,3,0,0,1-1.51-.37,1.1,1.1,0,0,1-.66-.93,1.12,1.12,0,0,1,.65-.93,3.05,3.05,0,0,1,1.5-.36,3.09,3.09,0,0,1,1.51.36A1.15,1.15,0,0,1,38,11a1.11,1.11,0,0,1-.65.92A3,3,0,0,1,35.8,12.3Z" />
                    <path class="cls-15"
                        d="M35.78,9.81a3,3,0,0,1,1.46.35.89.89,0,0,1,0,1.69,3.2,3.2,0,0,1-2.91,0,.89.89,0,0,1,0-1.69,3,3,0,0,1,1.45-.35m0-.2a3,3,0,0,0-1.55.38,1.21,1.21,0,0,0-.7,1,1.22,1.22,0,0,0,.71,1,3.37,3.37,0,0,0,3.11,0,1.21,1.21,0,0,0,.7-1,1.2,1.2,0,0,0-.71-1,3.08,3.08,0,0,0-1.56-.38Z" />
                    <g class="cls-7">
                        <line class="cls-16" x1="35.75" y1="12.2" x2="35.75" y2="31.15" />
                        <line class="cls-17" x1="36.53" y1="12.2" x2="47.36" y2="29.36" />
                        <line class="cls-18" x1="37.25" y1="11.95" x2="55.78" y2="24.47" />
                        <line class="cls-19" x1="37.85" y1="11.32" x2="58.83" y2="17.79" />
                        <line class="cls-20" x1="37.85" y1="10.64" x2="55.7" y2="11.1" />
                        <line class="cls-21" x1="37.37" y1="10.16" x2="47.22" y2="6.21" />
                        <line class="cls-22" x1="35.67" y1="9.81" x2="35.67" y2="4.42" />
                        <line class="cls-23" x1="34.22" y1="10.16" x2="24.15" y2="6.21" />
                        <line class="cls-24" x1="33.73" y1="10.73" x2="15.73" y2="11.1" />
                        <line class="cls-25" x1="33.73" y1="11.35" x2="12.68" y2="17.79" />
                        <line class="cls-26" x1="34.34" y1="11.95" x2="15.81" y2="24.47" />
                        <line class="cls-27" x1="34.91" y1="12.2" x2="24.28" y2="29.36" />
                    </g>
                </g>
                <g class="cls-7">
                    <path class="cls-28"
                        d="M34.67,6v5.23a.62.62,0,0,1-.37.52,2,2,0,0,1-1.82,0,.61.61,0,0,1-.38-.53V6a.64.64,0,0,0,.38.53,2,2,0,0,0,1.82,0A.62.62,0,0,0,34.67,6Z" />
                    <ellipse class="cls-29" cx="33.38" cy="5.97" rx="0.75" ry="1.29"
                        transform="translate(27.32 39.34) rotate(-89.84)" />
                </g>
                <path class="cls-30"
                    d="M35.18,5.23V6a.89.89,0,0,1-.52.73,2.8,2.8,0,0,1-2.55,0A.91.91,0,0,1,31.58,6V5.22a.88.88,0,0,0,.53.75,2.84,2.84,0,0,0,2.54,0A.9.9,0,0,0,35.18,5.23Z" />
                <ellipse class="cls-31" cx="33.38" cy="5.23" rx="1.04" ry="1.8"
                    transform="matrix(0, -1, 1, 0, 28.06, 38.6)" />
                <g class="cls-7">
                    <path class="cls-32"
                        d="M39,7.35v4a.48.48,0,0,1-.29.4,1.51,1.51,0,0,1-1.4,0,.48.48,0,0,1-.29-.41v-4a.5.5,0,0,0,.29.41,1.57,1.57,0,0,0,1.4,0A.48.48,0,0,0,39,7.35Z" />
                    <ellipse class="cls-33" cx="37.97" cy="7.34" rx="0.57" ry="0.99"
                        transform="translate(30.52 45.29) rotate(-89.84)" />
                </g>
                <path class="cls-34"
                    d="M39.36,6.77v.58a.7.7,0,0,1-.41.57,2.18,2.18,0,0,1-2,0,.71.71,0,0,1-.41-.57V6.76a.71.71,0,0,0,.41.58,2.18,2.18,0,0,0,2,0A.7.7,0,0,0,39.36,6.77Z" />
                <ellipse class="cls-35" cx="37.97" cy="6.77" rx="0.8" ry="1.39"
                    transform="translate(31.09 44.72) rotate(-89.84)" />
                
            </g>
        </g>
    </g>
</svg>