<svg xmlns="http://www.w3.org/2000/svg" xmlns:xlink="http://www.w3.org/1999/xlink" viewBox="0 0 52.72 150.25">
    <defs>
        <style>
            .cls-1,
            .cls-10,
            .cls-14,
            .cls-2,
            .cls-3,
            .cls-4,
            .cls-5,
            .cls-6,
            .cls-7,
            .cls-8,
            .cls-9 {
                stroke: #5ac8f7;
                stroke-linejoin: round;
                stroke-width: 0.25px;
            }

            .cls-1,
            .cls-12 {
                fill: url(#未命名的渐变_2520);
            }

            .cls-15,
            .cls-2 {
                fill: url(#未命名的渐变_2520-2);
            }

            .cls-17,
            .cls-3 {
                fill: url(#未命名的渐变_2520-3);
            }

            .cls-19,
            .cls-4 {
                fill: url(#未命名的渐变_2520-4);
            }

            .cls-21,
            .cls-5 {
                fill: url(#未命名的渐变_2520-5);
            }

            .cls-23,
            .cls-6 {
                fill: url(#未命名的渐变_2520-6);
            }

            .cls-25,
            .cls-7 {
                fill: url(#未命名的渐变_2520-7);
            }

            .cls-27,
            .cls-8 {
                fill: url(#未命名的渐变_2520-8);
            }

            .cls-29,
            .cls-9 {
                fill: url(#未命名的渐变_2520-9);
            }

            .cls-10,
            .cls-31 {
                fill: url(#未命名的渐变_2520-10);
            }

            .cls-11 {
                opacity: 0.2;
            }

            .cls-13 {
                clip-path: url(#clip-path);
            }

            .cls-14 {
                fill: none;
            }

            .cls-16 {
                clip-path: url(#clip-path-2);
            }

            .cls-18 {
                clip-path: url(#clip-path-3);
            }

            .cls-20 {
                clip-path: url(#clip-path-4);
            }

            .cls-22 {
                clip-path: url(#clip-path-5);
            }

            .cls-24 {
                clip-path: url(#clip-path-6);
            }

            .cls-26 {
                clip-path: url(#clip-path-7);
            }

            .cls-28 {
                clip-path: url(#clip-path-8);
            }

            .cls-30 {
                clip-path: url(#clip-path-9);
            }

            .cls-32 {
                clip-path: url(#clip-path-10);
            }
        </style>
        <linearGradient id="未命名的渐变_2520" x1="42.62" y1="151.21" x2="10.1" y2="118.69" gradientUnits="userSpaceOnUse">
            <stop offset="0" stop-color="#2a6aaf" stop-opacity="0" />
            <stop offset="1" stop-color="#5ac8f7" stop-opacity="0.6" />
        </linearGradient>
        <linearGradient id="未命名的渐变_2520-2" x1="15.82" y1="104.46" x2="78.27" y2="42.01" xlink:href="#未命名的渐变_2520" />
        <linearGradient id="未命名的渐变_2520-3" x1="4.62" y1="117.45" x2="75.58" y2="46.5" xlink:href="#未命名的渐变_2520" />
        <linearGradient id="未命名的渐变_2520-4" x1="-10.95" y1="123.59" x2="63.91" y2="48.72" xlink:href="#未命名的渐变_2520" />
        <linearGradient id="未命名的渐变_2520-5" x1="-23.12" y1="117.92" x2="48.76" y2="46.04" xlink:href="#未命名的渐变_2520" />
        <linearGradient id="未命名的渐变_2520-6" x1="-31.01" y1="110.04" x2="42.6" y2="36.43" xlink:href="#未命名的渐变_2520" />
        <linearGradient id="未命名的渐变_2520-7" x1="-26.31" y1="102.22" x2="47.98" y2="27.93" xlink:href="#未命名的渐变_2520" />
        <linearGradient id="未命名的渐变_2520-8" x1="-7.88" y1="96.48" x2="60.56" y2="28.04" xlink:href="#未命名的渐变_2520" />
        <linearGradient id="未命名的渐变_2520-9" x1="12.16" y1="94.81" x2="71.62" y2="35.36" xlink:href="#未命名的渐变_2520" />
        <linearGradient id="未命名的渐变_2520-10" x1="35.81" y1="18.18" x2="17.13" y2="-0.5" xlink:href="#未命名的渐变_2520" />
        <clipPath id="clip-path">
            <polygon class="cls-1"
                points="52.52 128.66 52.59 141.24 37.3 150.13 15.59 150.13 0.19 141.23 0.13 128.66 15.42 119.78 37.12 119.77 52.52 128.66" />
        </clipPath>
        <clipPath id="clip-path-2">
            <polygon class="cls-2" points="41.5 5.23 41.54 12.46 52.59 141.24 52.52 128.66 41.5 5.23" />
        </clipPath>
        <clipPath id="clip-path-3">
            <polygon class="cls-3" points="41.54 12.46 52.59 141.24 37.3 150.13 32.75 17.56 41.54 12.46" />
        </clipPath>
        <clipPath id="clip-path-4">
            <polygon class="cls-4" points="32.75 17.56 37.3 150.13 15.59 150.13 20.28 17.56 32.75 17.56" />
        </clipPath>
        <clipPath id="clip-path-5">
            <polygon class="cls-5" points="20.28 17.56 15.59 150.13 0.19 141.23 11.44 12.45 20.28 17.56" />
        </clipPath>
        <clipPath id="clip-path-6">
            <polygon class="cls-6" points="11.44 12.45 0.19 141.23 0.13 128.66 11.4 5.23 11.44 12.45" />
        </clipPath>
        <clipPath id="clip-path-7">
            <polygon class="cls-7" points="11.4 5.23 20.18 0.13 15.42 119.78 0.13 128.66 11.4 5.23" />
        </clipPath>
        <clipPath id="clip-path-8">
            <polygon class="cls-8" points="20.18 0.13 32.65 0.13 37.12 119.77 15.42 119.78 20.18 0.13" />
        </clipPath>
        <clipPath id="clip-path-9">
            <polygon class="cls-9" points="32.65 0.13 41.5 5.23 52.52 128.66 37.12 119.77 32.65 0.13" />
        </clipPath>
        <clipPath id="clip-path-10">
            <polygon class="cls-10"
                points="41.5 5.23 41.54 12.46 32.75 17.56 20.28 17.56 11.44 12.45 11.4 5.23 20.18 0.13 32.65 0.13 41.5 5.23" />
        </clipPath>
    </defs>
    <title>Tower（塔楼）</title>
    <g id="图层_2" data-name="图层 2">
        <g id="图层_55" data-name="图层 55">
            <g id="Tower_塔楼_" data-name="Tower（塔楼）">
                <g class="cls-11">
                    <polygon class="cls-12"
                        points="52.52 128.66 52.59 141.24 37.3 150.13 15.59 150.13 0.19 141.23 0.13 128.66 15.42 119.78 37.12 119.77 52.52 128.66" />
                    <g class="cls-13">
                        <polygon class="cls-1"
                            points="52.52 128.66 52.59 141.24 37.3 150.13 15.59 150.13 0.19 141.23 0.13 128.66 15.42 119.78 37.12 119.77 52.52 128.66" />
                    </g>
                    <polygon class="cls-14"
                        points="52.52 128.66 52.59 141.24 37.3 150.13 15.59 150.13 0.19 141.23 0.13 128.66 15.42 119.78 37.12 119.77 52.52 128.66" />
                </g>
                <polygon class="cls-15" points="41.5 5.23 41.54 12.46 52.59 141.24 52.52 128.66 41.5 5.23" />
                <g class="cls-16">
                    <polygon class="cls-2" points="41.5 5.23 41.54 12.46 52.59 141.24 52.52 128.66 41.5 5.23" />
                </g>
                <polygon class="cls-14" points="41.5 5.23 41.54 12.46 52.59 141.24 52.52 128.66 41.5 5.23" />
                <polygon class="cls-17" points="41.54 12.46 52.59 141.24 37.3 150.13 32.75 17.56 41.54 12.46" />
                <g class="cls-18">
                    <polygon class="cls-3" points="41.54 12.46 52.59 141.24 37.3 150.13 32.75 17.56 41.54 12.46" />
                </g>
                <polygon class="cls-14" points="41.54 12.46 52.59 141.24 37.3 150.13 32.75 17.56 41.54 12.46" />
                <polygon class="cls-19" points="32.75 17.56 37.3 150.13 15.59 150.13 20.28 17.56 32.75 17.56" />
                <g class="cls-20">
                    <polygon class="cls-4" points="32.75 17.56 37.3 150.13 15.59 150.13 20.28 17.56 32.75 17.56" />
                </g>
                <polygon class="cls-14" points="32.75 17.56 37.3 150.13 15.59 150.13 20.28 17.56 32.75 17.56" />
                <polygon class="cls-21" points="20.28 17.56 15.59 150.13 0.19 141.23 11.44 12.45 20.28 17.56" />
                <g class="cls-22">
                    <polygon class="cls-5" points="20.28 17.56 15.59 150.13 0.19 141.23 11.44 12.45 20.28 17.56" />
                </g>
                <polygon class="cls-14" points="20.28 17.56 15.59 150.13 0.19 141.23 11.44 12.45 20.28 17.56" />
                <polygon class="cls-23" points="11.44 12.45 0.19 141.23 0.13 128.66 11.4 5.23 11.44 12.45" />
                <g class="cls-24">
                    <polygon class="cls-6" points="11.44 12.45 0.19 141.23 0.13 128.66 11.4 5.23 11.44 12.45" />
                </g>
                <polygon class="cls-14" points="11.44 12.45 0.19 141.23 0.13 128.66 11.4 5.23 11.44 12.45" />
                <g class="cls-11">
                    <polygon class="cls-25" points="11.4 5.23 20.18 0.13 15.42 119.78 0.13 128.66 11.4 5.23" />
                    <g class="cls-26">
                        <polygon class="cls-7" points="11.4 5.23 20.18 0.13 15.42 119.78 0.13 128.66 11.4 5.23" />
                    </g>
                    <polygon class="cls-14" points="11.4 5.23 20.18 0.13 15.42 119.78 0.13 128.66 11.4 5.23" />
                </g>
                <g class="cls-11">
                    <polygon class="cls-27" points="20.18 0.13 32.65 0.13 37.12 119.77 15.42 119.78 20.18 0.13" />
                    <g class="cls-28">
                        <polygon class="cls-8" points="20.18 0.13 32.65 0.13 37.12 119.77 15.42 119.78 20.18 0.13" />
                    </g>
                    <polygon class="cls-14" points="20.18 0.13 32.65 0.13 37.12 119.77 15.42 119.78 20.18 0.13" />
                </g>
                <g class="cls-11">
                    <polygon class="cls-29" points="32.65 0.13 41.5 5.23 52.52 128.66 37.12 119.77 32.65 0.13" />
                    <g class="cls-30">
                        <polygon class="cls-9" points="32.65 0.13 41.5 5.23 52.52 128.66 37.12 119.77 32.65 0.13" />
                    </g>
                    <polygon class="cls-14" points="32.65 0.13 41.5 5.23 52.52 128.66 37.12 119.77 32.65 0.13" />
                </g>
                <polygon class="cls-31"
                    points="41.5 5.23 41.54 12.46 32.75 17.56 20.28 17.56 11.44 12.45 11.4 5.23 20.18 0.13 32.65 0.13 41.5 5.23" />
                <g class="cls-32">
                    <polygon class="cls-10"
                        points="41.5 5.23 41.54 12.46 32.75 17.56 20.28 17.56 11.44 12.45 11.4 5.23 20.18 0.13 32.65 0.13 41.5 5.23" />
                </g>
                <polygon class="cls-14"
                    points="41.5 5.23 41.54 12.46 32.75 17.56 20.28 17.56 11.44 12.45 11.4 5.23 20.18 0.13 32.65 0.13 41.5 5.23" />

            </g>
        </g>
    </g>
</svg>