<svg xmlns="http://www.w3.org/2000/svg" xmlns:xlink="http://www.w3.org/1999/xlink" viewBox="0 0 150.25 99.72">
    <defs>
        <style>
            .cls-1,
            .cls-11,
            .cls-2,
            .cls-3,
            .cls-4,
            .cls-5,
            .cls-6,
            .cls-7 {
                stroke: #5ac8f7;
                stroke-linejoin: round;
                stroke-width: 0.25px;
            }

            .cls-1,
            .cls-9 {
                fill: url(#未命名的渐变_2520);
            }

            .cls-13,
            .cls-2 {
                fill: url(#未命名的渐变_2520-2);
            }

            .cls-15,
            .cls-3 {
                fill: url(#未命名的渐变_2520-3);
            }

            .cls-17,
            .cls-4 {
                fill: url(#未命名的渐变_2520-4);
            }

            .cls-19,
            .cls-5 {
                fill: url(#未命名的渐变_2520-5);
            }

            .cls-21,
            .cls-6 {
                fill: url(#未命名的渐变_2520-6);
            }

            .cls-23,
            .cls-7 {
                fill: url(#未命名的渐变_2520-7);
            }

            .cls-25,
            .cls-8 {
                opacity: 0.2;
            }

            .cls-12,
            .cls-8 {
                isolation: isolate;
            }

            .cls-10 {
                clip-path: url(#clip-path);
            }

            .cls-11 {
                fill: none;
            }

            .cls-14 {
                clip-path: url(#clip-path-2);
            }

            .cls-16 {
                clip-path: url(#clip-path-3);
            }

            .cls-18 {
                clip-path: url(#clip-path-4);
            }

            .cls-20 {
                clip-path: url(#clip-path-5);
            }

            .cls-22 {
                clip-path: url(#clip-path-6);
            }

            .cls-24 {
                clip-path: url(#clip-path-7);
            }
        </style>
        <linearGradient id="未命名的渐变_2520" x1="99.17" y1="40.7" x2="122.3" y2="17.57" gradientUnits="userSpaceOnUse">
            <stop offset="0" stop-color="#2a6aaf" stop-opacity="0" />
            <stop offset="1" stop-color="#5ac8f7" stop-opacity="0.6" />
        </linearGradient>
        <linearGradient id="未命名的渐变_2520-2" x1="28.08" y1="82.01" x2="51.21" y2="58.89" xlink:href="#未命名的渐变_2520" />
        <linearGradient id="未命名的渐变_2520-3" x1="66.72" y1="74.66" x2="123.05" y2="18.33" xlink:href="#未命名的渐变_2520" />
        <linearGradient id="未命名的渐变_2520-4" x1="83.3" y1="103.89" x2="145.83" y2="41.37" xlink:href="#未命名的渐变_2520" />
        <linearGradient id="未命名的渐变_2520-5" x1="38.67" y1="92.6" x2="111.54" y2="19.74" xlink:href="#未命名的渐变_2520" />
        <linearGradient id="未命名的渐变_2520-6" x1="4.42" y1="58.35" x2="66.95" y2="-4.17" xlink:href="#未命名的渐变_2520" />
        <linearGradient id="未命名的渐变_2520-7" x1="18.95" y1="60.22" x2="91.95" y2="-12.77" xlink:href="#未命名的渐变_2520" />
        <clipPath id="clip-path">
            <polygon class="cls-1" points="110.74 6.01 150.13 45.66 150.09 58.28 71.21 12.74 71.25 0.13 110.74 6.01" />
        </clipPath>
        <clipPath id="clip-path-2">
            <polygon class="cls-2" points="39.65 47.33 79.04 86.98 79 99.59 0.13 54.06 0.16 41.44 39.65 47.33" />
        </clipPath>
        <clipPath id="clip-path-3">
            <polygon class="cls-3" points="39.65 47.33 110.74 6.01 150.13 45.66 79.04 86.98 39.65 47.33" />
        </clipPath>
        <clipPath id="clip-path-4">
            <polygon class="cls-4" points="79.04 86.98 150.13 45.66 150.09 58.28 79 99.59 79.04 86.98" />
        </clipPath>
        <clipPath id="clip-path-5">
            <polygon class="cls-5" points="79 99.59 0.13 54.06 71.21 12.74 150.09 58.28 79 99.59" />
        </clipPath>
        <clipPath id="clip-path-6">
            <polygon class="cls-6" points="0.13 54.06 0.16 41.44 71.25 0.13 71.21 12.74 0.13 54.06" />
        </clipPath>
        <clipPath id="clip-path-7">
            <polygon class="cls-7" points="0.16 41.44 71.25 0.13 110.74 6.01 39.65 47.33 0.16 41.44" />
        </clipPath>
    </defs>
    <title>Workshop 1（厂房1）</title>
    <g id="图层_2" data-name="图层 2">
        <g id="图层_55" data-name="图层 55">
            <g id="Workshop_1_厂房1_" data-name="Workshop 1（厂房1）">
                <g class="cls-8">
                    <polygon class="cls-9"
                        points="110.74 6.01 150.13 45.66 150.09 58.28 71.21 12.74 71.25 0.13 110.74 6.01" />
                    <g class="cls-10">
                        <polygon class="cls-1"
                            points="110.74 6.01 150.13 45.66 150.09 58.28 71.21 12.74 71.25 0.13 110.74 6.01" />
                    </g>
                    <polygon class="cls-11"
                        points="110.74 6.01 150.13 45.66 150.09 58.28 71.21 12.74 71.25 0.13 110.74 6.01" />
                </g>
                <g class="cls-12">
                    <polygon class="cls-13"
                        points="39.65 47.33 79.04 86.98 79 99.59 0.13 54.06 0.16 41.44 39.65 47.33" />
                    <g class="cls-14">
                        <polygon class="cls-2"
                            points="39.65 47.33 79.04 86.98 79 99.59 0.13 54.06 0.16 41.44 39.65 47.33" />
                    </g>
                    <polygon class="cls-11"
                        points="39.65 47.33 79.04 86.98 79 99.59 0.13 54.06 0.16 41.44 39.65 47.33" />
                </g>
                <g class="cls-12">
                    <polygon class="cls-15" points="39.65 47.33 110.74 6.01 150.13 45.66 79.04 86.98 39.65 47.33" />
                    <g class="cls-16">
                        <polygon class="cls-3" points="39.65 47.33 110.74 6.01 150.13 45.66 79.04 86.98 39.65 47.33" />
                    </g>
                    <polygon class="cls-11" points="39.65 47.33 110.74 6.01 150.13 45.66 79.04 86.98 39.65 47.33" />
                </g>
                <g class="cls-12">
                    <polygon class="cls-17" points="79.04 86.98 150.13 45.66 150.09 58.28 79 99.59 79.04 86.98" />
                    <g class="cls-18">
                        <polygon class="cls-4" points="79.04 86.98 150.13 45.66 150.09 58.28 79 99.59 79.04 86.98" />
                    </g>
                    <polygon class="cls-11" points="79.04 86.98 150.13 45.66 150.09 58.28 79 99.59 79.04 86.98" />
                </g>
                <g class="cls-8">
                    <polygon class="cls-19" points="79 99.59 0.13 54.06 71.21 12.74 150.09 58.28 79 99.59" />
                    <g class="cls-20">
                        <polygon class="cls-5" points="79 99.59 0.13 54.06 71.21 12.74 150.09 58.28 79 99.59" />
                    </g>
                    <polygon class="cls-11" points="79 99.59 0.13 54.06 71.21 12.74 150.09 58.28 79 99.59" />
                </g>
                <g class="cls-8">
                    <polygon class="cls-21" points="0.13 54.06 0.16 41.44 71.25 0.13 71.21 12.74 0.13 54.06" />
                    <g class="cls-22">
                        <polygon class="cls-6" points="0.13 54.06 0.16 41.44 71.25 0.13 71.21 12.74 0.13 54.06" />
                    </g>
                    <polygon class="cls-11" points="0.13 54.06 0.16 41.44 71.25 0.13 71.21 12.74 0.13 54.06" />
                </g>
                <g class="cls-12">
                    <polygon class="cls-23" points="0.16 41.44 71.25 0.13 110.74 6.01 39.65 47.33 0.16 41.44" />
                    <g class="cls-24">
                        <polygon class="cls-7" points="0.16 41.44 71.25 0.13 110.74 6.01 39.65 47.33 0.16 41.44" />
                    </g>
                    <polygon class="cls-11" points="0.16 41.44 71.25 0.13 110.74 6.01 39.65 47.33 0.16 41.44" />
                </g>
               
            </g>
        </g>
    </g>
</svg>