<svg xmlns="http://www.w3.org/2000/svg" xmlns:xlink="http://www.w3.org/1999/xlink" viewBox="0 0 150.25 103.99">
    <defs>
        <style>
            .cls-1,
            .cls-11,
            .cls-2,
            .cls-3,
            .cls-4,
            .cls-5,
            .cls-6,
            .cls-7 {
                stroke: #5ac8f7;
                stroke-linejoin: round;
                stroke-width: 0.25px;
            }

            .cls-1,
            .cls-9 {
                fill: url(#未命名的渐变_2520);
            }

            .cls-13,
            .cls-2 {
                fill: url(#未命名的渐变_2520-2);
            }

            .cls-15,
            .cls-3 {
                fill: url(#未命名的渐变_2520-3);
            }

            .cls-17,
            .cls-4 {
                fill: url(#未命名的渐变_2520-4);
            }

            .cls-19,
            .cls-5 {
                fill: url(#未命名的渐变_2520-5);
            }

            .cls-21,
            .cls-6 {
                fill: url(#未命名的渐变_2520-6);
            }

            .cls-23,
            .cls-7 {
                fill: url(#未命名的渐变_2520-7);
            }

            .cls-25,
            .cls-8 {
                opacity: 0.2;
            }

            .cls-12,
            .cls-8 {
                isolation: isolate;
            }

            .cls-10 {
                clip-path: url(#clip-path);
            }

            .cls-11 {
                fill: none;
            }

            .cls-14 {
                clip-path: url(#clip-path-2);
            }

            .cls-16 {
                clip-path: url(#clip-path-3);
            }

            .cls-18 {
                clip-path: url(#clip-path-4);
            }

            .cls-20 {
                clip-path: url(#clip-path-5);
            }

            .cls-22 {
                clip-path: url(#clip-path-6);
            }

            .cls-24 {
                clip-path: url(#clip-path-7);
            }
        </style>
        <linearGradient id="未命名的渐变_2520" x1="117.83" y1="32.52" x2="138.23" y2="12.12" gradientUnits="userSpaceOnUse">
            <stop offset="0" stop-color="#2a6aaf" stop-opacity="0" />
            <stop offset="1" stop-color="#5ac8f7" stop-opacity="0.6" />
        </linearGradient>
        <linearGradient id="未命名的渐变_2520-2" x1="15.74" y1="91.84" x2="36.14" y2="71.44" xlink:href="#未命名的渐变_2520" />
        <linearGradient id="未命名的渐变_2520-3" x1="44.93" y1="87.66" x2="129.35" y2="3.24" xlink:href="#未命名的渐变_2520" />
        <linearGradient id="未命名的渐变_2520-4" x1="55.43" y1="111.29" x2="142.7" y2="24.03" xlink:href="#未命名的渐变_2520" />
        <linearGradient id="未命名的渐变_2520-5" x1="29.7" y1="105.79" x2="120.52" y2="14.97" xlink:href="#未命名的渐变_2520" />
        <linearGradient id="未命名的渐变_2520-6" x1="7.55" y1="83.65" x2="94.82" y2="-3.61" xlink:href="#未命名的渐变_2520" />
        <linearGradient id="未命名的渐变_2520-7" x1="15.93" y1="78.9" x2="110.47" y2="-15.64" xlink:href="#未命名的渐变_2520" />
        <clipPath id="clip-path">
            <polygon class="cls-1" points="126.23 0.13 150.13 31.46 150.09 44.54 102.21 16.9 102.24 3.81 126.23 0.13" />
        </clipPath>
        <clipPath id="clip-path-2">
            <polygon class="cls-2" points="24.15 59.45 48.04 90.78 48.01 103.87 0.13 76.22 0.16 63.14 24.15 59.45" />
        </clipPath>
        <clipPath id="clip-path-3">
            <polygon class="cls-3" points="24.15 59.45 126.23 0.13 150.13 31.46 48.04 90.78 24.15 59.45" />
        </clipPath>
        <clipPath id="clip-path-4">
            <polygon class="cls-4" points="48.04 90.78 150.13 31.46 150.09 44.54 48.01 103.87 48.04 90.78" />
        </clipPath>
        <clipPath id="clip-path-5">
            <polygon class="cls-5" points="48.01 103.87 0.13 76.22 102.21 16.9 150.09 44.54 48.01 103.87" />
        </clipPath>
        <clipPath id="clip-path-6">
            <polygon class="cls-6" points="0.13 76.22 0.16 63.14 102.24 3.81 102.21 16.9 0.13 76.22" />
        </clipPath>
        <clipPath id="clip-path-7">
            <polygon class="cls-7" points="0.16 63.14 102.24 3.81 126.23 0.13 24.15 59.45 0.16 63.14" />
        </clipPath>
    </defs>
    <title>Workshop 2（厂房2）</title>
    <g id="图层_2" data-name="图层 2">
        <g id="图层_55" data-name="图层 55">
            <g id="Workshop_2_厂房2_" data-name="Workshop 2（厂房2）">
                <g class="cls-8">
                    <polygon class="cls-9"
                        points="126.23 0.13 150.13 31.46 150.09 44.54 102.21 16.9 102.24 3.81 126.23 0.13" />
                    <g class="cls-10">
                        <polygon class="cls-1"
                            points="126.23 0.13 150.13 31.46 150.09 44.54 102.21 16.9 102.24 3.81 126.23 0.13" />
                    </g>
                    <polygon class="cls-11"
                        points="126.23 0.13 150.13 31.46 150.09 44.54 102.21 16.9 102.24 3.81 126.23 0.13" />
                </g>
                <g class="cls-12">
                    <polygon class="cls-13"
                        points="24.15 59.45 48.04 90.78 48.01 103.87 0.13 76.22 0.16 63.14 24.15 59.45" />
                    <g class="cls-14">
                        <polygon class="cls-2"
                            points="24.15 59.45 48.04 90.78 48.01 103.87 0.13 76.22 0.16 63.14 24.15 59.45" />
                    </g>
                    <polygon class="cls-11"
                        points="24.15 59.45 48.04 90.78 48.01 103.87 0.13 76.22 0.16 63.14 24.15 59.45" />
                </g>
                <g class="cls-12">
                    <polygon class="cls-15" points="24.15 59.45 126.23 0.13 150.13 31.46 48.04 90.78 24.15 59.45" />
                    <g class="cls-16">
                        <polygon class="cls-3" points="24.15 59.45 126.23 0.13 150.13 31.46 48.04 90.78 24.15 59.45" />
                    </g>
                    <polygon class="cls-11" points="24.15 59.45 126.23 0.13 150.13 31.46 48.04 90.78 24.15 59.45" />
                </g>
                <g class="cls-12">
                    <polygon class="cls-17" points="48.04 90.78 150.13 31.46 150.09 44.54 48.01 103.87 48.04 90.78" />
                    <g class="cls-18">
                        <polygon class="cls-4"
                            points="48.04 90.78 150.13 31.46 150.09 44.54 48.01 103.87 48.04 90.78" />
                    </g>
                    <polygon class="cls-11" points="48.04 90.78 150.13 31.46 150.09 44.54 48.01 103.87 48.04 90.78" />
                </g>
                <g class="cls-8">
                    <polygon class="cls-19" points="48.01 103.87 0.13 76.22 102.21 16.9 150.09 44.54 48.01 103.87" />
                    <g class="cls-20">
                        <polygon class="cls-5" points="48.01 103.87 0.13 76.22 102.21 16.9 150.09 44.54 48.01 103.87" />
                    </g>
                    <polygon class="cls-11" points="48.01 103.87 0.13 76.22 102.21 16.9 150.09 44.54 48.01 103.87" />
                </g>
                <g class="cls-8">
                    <polygon class="cls-21" points="0.13 76.22 0.16 63.14 102.24 3.81 102.21 16.9 0.13 76.22" />
                    <g class="cls-22">
                        <polygon class="cls-6" points="0.13 76.22 0.16 63.14 102.24 3.81 102.21 16.9 0.13 76.22" />
                    </g>
                    <polygon class="cls-11" points="0.13 76.22 0.16 63.14 102.24 3.81 102.21 16.9 0.13 76.22" />
                </g>
                <g class="cls-12">
                    <polygon class="cls-23" points="0.16 63.14 102.24 3.81 126.23 0.13 24.15 59.45 0.16 63.14" />
                    <g class="cls-24">
                        <polygon class="cls-7" points="0.16 63.14 102.24 3.81 126.23 0.13 24.15 59.45 0.16 63.14" />
                    </g>
                    <polygon class="cls-11" points="0.16 63.14 102.24 3.81 126.23 0.13 24.15 59.45 0.16 63.14" />
                </g>

            </g>
        </g>
    </g>
</svg>