<svg xmlns="http://www.w3.org/2000/svg" xmlns:xlink="http://www.w3.org/1999/xlink" viewBox="0 0 150 55.44">
    <defs>
        <style>
            .cls-1 {
                fill: url(#未命名的渐变_105);
            }

            .cls-2 {
                fill: url(#未命名的渐变_105-2);
            }

            .cls-3 {
                fill: url(#未命名的渐变_105-3);
            }

            .cls-4 {
                fill: url(#未命名的渐变_74);
            }

            .cls-5 {
                fill: url(#未命名的渐变_105-4);
            }

            .cls-6 {
                fill: url(#未命名的渐变_105-5);
            }

            .cls-7 {
                fill: url(#未命名的渐变_105-6);
            }

            .cls-8 {
                fill: url(#未命名的渐变_105-7);
            }

            .cls-9 {
                fill: url(#未命名的渐变_105-8);
            }

            .cls-10 {
                fill: url(#未命名的渐变_105-9);
            }

            .cls-11 {
                fill: url(#未命名的渐变_105-10);
            }

            .cls-12 {
                fill: url(#未命名的渐变_105-11);
            }

            .cls-13 {
                fill: url(#未命名的渐变_67);
            }

            .cls-14 {
                fill: url(#未命名的渐变_105-12);
            }

            .cls-15 {
                fill: url(#未命名的渐变_74-2);
            }

            .cls-16 {
                fill: url(#未命名的渐变_105-13);
            }

            .cls-17 {
                fill: url(#未命名的渐变_74-3);
            }

            .cls-18 {
                fill: url(#未命名的渐变_74-4);
            }

            .cls-19 {
                fill: url(#未命名的渐变_105-14);
            }

            .cls-20 {
                fill: url(#未命名的渐变_105-15);
            }

            .cls-21 {
                fill: url(#未命名的渐变_105-16);
            }

            .cls-22 {
                fill: url(#未命名的渐变_105-17);
            }

            .cls-23 {
                fill: url(#未命名的渐变_105-18);
            }

            .cls-24 {
                fill: url(#未命名的渐变_105-19);
            }

            .cls-25 {
                opacity: 0.2;
            }
        </style>
        <linearGradient id="未命名的渐变_105" x1="108.97" y1="12.34" x2="108.97" y2="9.27" gradientUnits="userSpaceOnUse">
            <stop offset="0" stop-color="#e2e2e2" />
            <stop offset="0.03" stop-color="#d0d0d0" />
            <stop offset="0.06" stop-color="#bcbcbc" />
            <stop offset="0.09" stop-color="#b5b5b5" />
            <stop offset="0.49" stop-color="#f6f6f6" />
            <stop offset="0.63" stop-color="#f3f3f3" />
            <stop offset="0.73" stop-color="#eaeaea" />
            <stop offset="0.82" stop-color="#dbdbdb" />
            <stop offset="0.9" stop-color="#c6c6c6" />
            <stop offset="0.97" stop-color="#aaa" />
            <stop offset="1" stop-color="#9b9b9b" />
        </linearGradient>
        <linearGradient id="未命名的渐变_105-2" x1="116.72" y1="35.57" x2="116.72" y2="21.53" xlink:href="#未命名的渐变_105" />
        <linearGradient id="未命名的渐变_105-3" x1="140.9" y1="42.59" x2="140.9" y2="17.1" xlink:href="#未命名的渐变_105" />
        <linearGradient id="未命名的渐变_74" x1="13.44" y1="38.25" x2="19.89" y2="38.25" gradientUnits="userSpaceOnUse">
            <stop offset="0" stop-color="#6b6b6b" />
            <stop offset="0.01" stop-color="#767676" />
            <stop offset="0.03" stop-color="#959595" />
            <stop offset="0.04" stop-color="#aaa" />
            <stop offset="0.37" stop-color="#ccc" />
            <stop offset="0.74" stop-color="#eaeaea" />
            <stop offset="0.94" stop-color="#f6f6f6" />
            <stop offset="0.95" stop-color="#ededed" />
            <stop offset="0.96" stop-color="#d4d4d4" />
            <stop offset="0.97" stop-color="#ababab" />
            <stop offset="0.99" stop-color="#737373" />
            <stop offset="0.99" stop-color="#666" />
        </linearGradient>
        <linearGradient id="未命名的渐变_105-4" x1="80.22" y1="68.77" x2="84.01" y2="68.77"
            gradientTransform="translate(42.56 -53.27)" xlink:href="#未命名的渐变_105" />
        <linearGradient id="未命名的渐变_105-5" x1="78.88" y1="65.79" x2="85.35" y2="65.79"
            gradientTransform="translate(39.58 -50.29)" xlink:href="#未命名的渐变_105" />
        <linearGradient id="未命名的渐变_105-6" x1="80.25" y1="85.44" x2="84.05" y2="85.44"
            gradientTransform="matrix(1, 0, 0, -1, 56.14, 100.94)" xlink:href="#未命名的渐变_105" />
        <linearGradient id="未命名的渐变_105-7" x1="78.91" y1="82.46" x2="85.39" y2="82.46"
            gradientTransform="matrix(1, 0, 0, -1, 59.12, 97.95)" xlink:href="#未命名的渐变_105" />
        <linearGradient id="未命名的渐变_105-8" x1="54.66" y1="86.12" x2="58.45" y2="86.12"
            gradientTransform="matrix(1, 0, 0, -1, 81.11, 127.22)" xlink:href="#未命名的渐变_105" />
        <linearGradient id="未命名的渐变_105-9" x1="53.32" y1="83.14" x2="59.79" y2="83.14"
            gradientTransform="matrix(1, 0, 0, -1, 84.09, 124.23)" xlink:href="#未命名的渐变_105" />
        <linearGradient id="未命名的渐变_105-10" x1="54.63" y1="69.14" x2="58.42" y2="69.14"
            gradientTransform="translate(68.47 -28.05)" xlink:href="#未命名的渐变_105" />
        <linearGradient id="未命名的渐变_105-11" x1="53.28" y1="66.16" x2="59.76" y2="66.16"
            gradientTransform="translate(65.49 -25.07)" xlink:href="#未命名的渐变_105" />
        <linearGradient id="未命名的渐变_67" x1="131.4" y1="48.59" x2="131.4" y2="11.44" gradientUnits="userSpaceOnUse">
            <stop offset="0" stop-color="#6b6b6b" />
            <stop offset="0.11" stop-color="#767676" />
            <stop offset="0.3" stop-color="#959595" />
            <stop offset="0.41" stop-color="#aaa" />
            <stop offset="0.56" stop-color="#ccc" />
            <stop offset="0.71" stop-color="#eaeaea" />
            <stop offset="0.8" stop-color="#f6f6f6" />
            <stop offset="0.83" stop-color="#ededed" />
            <stop offset="0.87" stop-color="#d4d4d4" />
            <stop offset="0.92" stop-color="#ababab" />
            <stop offset="0.98" stop-color="#737373" />
            <stop offset="0.99" stop-color="#666" />
        </linearGradient>
        <linearGradient id="未命名的渐变_105-12" x1="131.17" y1="49.4" x2="131.17" y2="11.44" xlink:href="#未命名的渐变_105" />
        <linearGradient id="未命名的渐变_74-2" x1="98.3" y1="38.47" x2="104.76" y2="38.47" xlink:href="#未命名的渐变_74" />
        <linearGradient id="未命名的渐变_105-13" x1="-1423.51" y1="42.59" x2="-1423.51" y2="14.27"
            gradientTransform="matrix(1, 0, 0, -1, 1479.41, 56.86)" xlink:href="#未命名的渐变_105" />
        <linearGradient id="未命名的渐变_74-3" x1="79.13" y1="17.1" x2="104.76" y2="17.1" xlink:href="#未命名的渐变_74" />
        <linearGradient id="未命名的渐变_74-4" x1="73.51" y1="10.17" x2="108.49" y2="10.17" xlink:href="#未命名的渐变_74" />
        <linearGradient id="未命名的渐变_105-14" x1="79.13" y1="5.05" x2="83.38" y2="5.05" xlink:href="#未命名的渐变_105" />
        <linearGradient id="未命名的渐变_105-15" x1="87.13" y1="5.05" x2="96.15" y2="5.05" xlink:href="#未命名的渐变_105" />
        <linearGradient id="未命名的渐变_105-16" x1="89.62" y1="2.02" x2="93.66" y2="2.02" xlink:href="#未命名的渐变_105" />
        <linearGradient id="未命名的渐变_105-17" x1="58.39" y1="10.24" x2="62.43" y2="10.24" xlink:href="#未命名的渐变_105" />
        <linearGradient id="未命名的渐变_105-18" x1="100.4" y1="5.05" x2="106.02" y2="5.05" xlink:href="#未命名的渐变_105" />
        <linearGradient id="未命名的渐变_105-19" x1="56.85" y1="12.86" x2="63.62" y2="12.86" xlink:href="#未命名的渐变_105" />
    </defs>
    <title>IoT-process heating(制程加热)</title>
    <g id="图层_8" data-name="图层 8">
        <rect class="cls-1" x="108.17" y="9.27" width="1.6" height="3.06" />
        <rect class="cls-2" x="108.49" y="21.53" width="16.47" height="14.04" />
        <rect class="cls-3" x="131.81" y="17.1" width="18.19" height="25.49" rx="5.15" />
        <rect class="cls-4" x="13.44" y="21.06" width="6.46" height="34.38" />
        <rect class="cls-5" x="122.78" y="13.19" width="3.79" height="4.61"
            transform="matrix(0, -1, 1, 0, 108.92, 140.14)" />
        <rect class="cls-6" x="118.46" y="14.82" width="6.47" height="1.36"
            transform="translate(105.95 137.15) rotate(-89.88)" />
        <rect class="cls-7" x="136.39" y="13.19" width="3.79" height="4.61"
            transform="matrix(0, -1, 1, 0, 123.07, 153.82)" />
        <rect class="cls-8" x="138.03" y="14.82" width="6.47" height="1.36"
            transform="translate(126.07 156.8) rotate(-90.12)" />
        <rect class="cls-9" x="135.77" y="38.79" width="3.79" height="4.61"
            transform="translate(96.85 178.84) rotate(-90.12)" />
        <rect class="cls-10" x="137.41" y="40.41" width="6.47" height="1.36"
            transform="translate(99.84 181.82) rotate(-90.12)" />
        <rect class="cls-11" x="123.1" y="38.79" width="3.79" height="4.61"
            transform="matrix(0, -1, 1, 0, 83.64, 166.01)" />
        <rect class="cls-12" x="118.77" y="40.41" width="6.47" height="1.36"
            transform="translate(80.67 163.02) rotate(-89.88)" />
        <rect class="cls-13" x="124.96" y="11.44" width="12.89" height="37.15" />
        <rect class="cls-14" x="130.53" y="11.44" width="1.28" height="37.96" />
        <rect class="cls-15" x="98.3" y="21.49" width="6.46" height="33.95" />
        <path class="cls-16"
            d="M0,14.27H98.62a13.19,13.19,0,0,1,13.19,13.19v2A13.19,13.19,0,0,1,98.62,42.59H0a0,0,0,0,1,0,0V14.27A0,0,0,0,1,0,14.27Z"
            transform="translate(111.81 56.86) rotate(180)" />
        <rect class="cls-17" x="79.13" y="14.27" width="25.63" height="5.67" />
        <rect class="cls-18" x="73.51" y="6.06" width="34.98" height="8.22" />
        <rect class="cls-19" x="79.13" y="4.04" width="4.26" height="2.02" />
        <rect class="cls-20" x="87.13" y="4.04" width="9.02" height="2.02" />
        <rect class="cls-21" x="89.62" width="4.04" height="4.04" />
        <rect class="cls-22" x="58.39" y="8.22" width="4.04" height="4.04" />
        <rect class="cls-23" x="100.4" y="4.04" width="5.62" height="2.02" />
        <rect class="cls-24" x="56.85" y="11.44" width="6.77" height="2.84" />
        
    </g>
</svg>