<svg xmlns="http://www.w3.org/2000/svg" xmlns:xlink="http://www.w3.org/1999/xlink" viewBox="0 0 150 34">
    <defs>
        <style>
            .cls-1 {
                fill: url(#未命名的渐变_37);
            }

            .cls-2 {
                fill: url(#未命名的渐变_37-2);
            }

            .cls-3 {
                fill: url(#未命名的渐变_37-3);
            }

            .cls-4 {
                fill: url(#未命名的渐变_141);
            }

            .cls-5 {
                fill: url(#未命名的渐变_3);
            }

            .cls-6 {
                fill: url(#未命名的渐变_37-4);
            }

            .cls-7 {
                fill: url(#未命名的渐变_37-5);
            }

            .cls-8 {
                fill: none;
                stroke: #000;
                stroke-miterlimit: 10;
            }

            .cls-8,
            .cls-9 {
                opacity: 0.3;
            }

            .cls-10 {
                fill: url(#未命名的渐变_37-6);
            }

            .cls-11 {
                fill: url(#未命名的渐变_37-7);
            }

            .cls-12 {
                fill: url(#未命名的渐变_37-8);
            }

            .cls-13 {
                fill: url(#未命名的渐变_37-9);
            }

            .cls-14 {
                fill: url(#未命名的渐变_37-10);
            }

            .cls-15 {
                fill: url(#未命名的渐变_37-11);
            }

            .cls-16 {
                fill: url(#未命名的渐变_37-12);
            }

            .cls-17 {
                fill: url(#未命名的渐变_37-13);
            }

            .cls-18 {
                fill: url(#未命名的渐变_37-14);
            }

            .cls-19 {
                fill: url(#未命名的渐变_37-15);
            }

            .cls-20 {
                fill: url(#未命名的渐变_37-16);
            }

            .cls-21 {
                fill: url(#未命名的渐变_142);
            }

            .cls-22 {
                fill: url(#未命名的渐变_247);
            }

            .cls-23 {
                fill: url(#未命名的渐变_3-2);
            }

            .cls-24 {
                fill: url(#未命名的渐变_3-3);
            }

            .cls-25 {
                fill: url(#未命名的渐变_3-4);
            }

            .cls-26 {
                fill: url(#未命名的渐变_3-5);
            }

            .cls-27 {
                fill: url(#未命名的渐变_3-6);
            }

            .cls-28 {
                fill: url(#未命名的渐变_37-17);
            }

            .cls-29 {
                fill: url(#未命名的渐变_142-2);
            }

            .cls-30 {
                fill: url(#未命名的渐变_142-3);
            }

            .cls-31 {
                fill: url(#未命名的渐变_142-4);
            }

            .cls-32 {
                fill: url(#未命名的渐变_142-5);
            }

            .cls-33 {
                fill: url(#未命名的渐变_142-6);
            }

            .cls-34 {
                fill: url(#未命名的渐变_142-7);
            }

            .cls-35 {
                fill: url(#未命名的渐变_142-8);
            }

            .cls-36 {
                fill: url(#未命名的渐变_142-9);
            }

            .cls-37 {
                fill: url(#未命名的渐变_142-10);
            }

            .cls-38 {
                fill: url(#未命名的渐变_142-11);
            }

            .cls-39 {
                fill: url(#未命名的渐变_142-12);
            }

            .cls-40 {
                opacity: 0.2;
            }
        </style>
        <linearGradient id="未命名的渐变_37" x1="-2400.86" y1="6.18" x2="-2400.86" y2="15.47"
            gradientTransform="translate(2541.16)" gradientUnits="userSpaceOnUse">
            <stop offset="0" stop-color="#767b82" />
            <stop offset="0.07" stop-color="#9ba1ab" />
            <stop offset="0.22" stop-color="#e2eaf2" />
            <stop offset="0.94" stop-color="#767b82" />
            <stop offset="1" stop-color="#a9b1bb" />
        </linearGradient>
        <linearGradient id="未命名的渐变_37-2" x1="-2419.33" y1="8.55" x2="-2419.33" y2="13.09" xlink:href="#未命名的渐变_37" />
        <linearGradient id="未命名的渐变_37-3" x1="-2411.35" y1="6.81" x2="-2411.35" y2="14.84" xlink:href="#未命名的渐变_37" />
        <linearGradient id="未命名的渐变_141" x1="122.94" y1="17.52" x2="127.01" y2="17.52" gradientUnits="userSpaceOnUse">
            <stop offset="0.02" stop-color="#767b82" />
            <stop offset="0.04" stop-color="#d7dce0" />
            <stop offset="0.09" stop-color="#9ba1ab" />
            <stop offset="0.92" stop-color="#9ba1ab" />
            <stop offset="1" stop-color="#767b82" />
        </linearGradient>
        <linearGradient id="未命名的渐变_3" x1="107.09" y1="17.52" x2="111.16" y2="17.52"
            gradientTransform="matrix(-1, 0, 0, 1, 238.17, 0)" gradientUnits="userSpaceOnUse">
            <stop offset="0" stop-color="#767b82" />
            <stop offset="0.08" stop-color="#9ba1ab" />
            <stop offset="0.91" stop-color="#9ba1ab" />
            <stop offset="0.96" stop-color="#d7dce0" />
            <stop offset="0.98" stop-color="#767b82" />
        </linearGradient>
        <linearGradient id="未命名的渐变_37-4" x1="-2414.35" y1="5.48" x2="-2414.35" y2="16.31" xlink:href="#未命名的渐变_37" />
        <linearGradient id="未命名的渐变_37-5" x1="-2410.24" y1="5.48" x2="-2410.24" y2="16.17" xlink:href="#未命名的渐变_37" />
        <linearGradient id="未命名的渐变_37-6" x1="-2401.37" y1="6.54" x2="-2401.37" y2="6.81" xlink:href="#未命名的渐变_37" />
        <linearGradient id="未命名的渐变_37-7" x1="-2401.37" y1="14.4" x2="-2401.37" y2="14.67" xlink:href="#未命名的渐变_37" />
        <linearGradient id="未命名的渐变_37-8" x1="-2401.37" y1="13.53" x2="-2401.37" y2="13.79" xlink:href="#未命名的渐变_37" />
        <linearGradient id="未命名的渐变_37-9" x1="-2401.37" y1="12.65" x2="-2401.37" y2="12.92" xlink:href="#未命名的渐变_37" />
        <linearGradient id="未命名的渐变_37-10" x1="-2401.37" y1="11.78" x2="-2401.37" y2="12.05" xlink:href="#未命名的渐变_37" />
        <linearGradient id="未命名的渐变_37-11" x1="-2401.37" y1="10.91" x2="-2401.37" y2="11.17" xlink:href="#未命名的渐变_37" />
        <linearGradient id="未命名的渐变_37-12" x1="-2401.37" y1="10.03" x2="-2401.37" y2="10.3" xlink:href="#未命名的渐变_37" />
        <linearGradient id="未命名的渐变_37-13" x1="-2401.37" y1="9.16" x2="-2401.37" y2="9.43" xlink:href="#未命名的渐变_37" />
        <linearGradient id="未命名的渐变_37-14" x1="-2401.37" y1="8.29" x2="-2401.37" y2="8.55" xlink:href="#未命名的渐变_37" />
        <linearGradient id="未命名的渐变_37-15" x1="-2401.37" y1="7.41" x2="-2401.37" y2="7.68" xlink:href="#未命名的渐变_37" />
        <linearGradient id="未命名的渐变_37-16" x1="149.65" y1="6.18" x2="149.65" y2="15.47"
            gradientTransform="matrix(1, 0, 0, 1, 0, 0)" xlink:href="#未命名的渐变_37" />
        <linearGradient id="未命名的渐变_142" x1="135.85" y1="4.2" x2="139.79" y2="4.2" gradientUnits="userSpaceOnUse">
            <stop offset="0" stop-color="#a9b1bb" />
            <stop offset="0.06" stop-color="#767b82" />
            <stop offset="0.78" stop-color="#e2eaf2" />
            <stop offset="0.93" stop-color="#9ba1ab" />
            <stop offset="1" stop-color="#767b82" />
        </linearGradient>
        <linearGradient id="未命名的渐变_247" x1="56.17" y1="18.51" x2="56.17" gradientUnits="userSpaceOnUse">
            <stop offset="0" stop-color="#8a9199" />
            <stop offset="0.08" stop-color="#5d6166" />
            <stop offset="0.15" stop-color="#676b71" />
            <stop offset="0.27" stop-color="#81868d" />
            <stop offset="0.42" stop-color="#acb2bc" />
            <stop offset="0.47" stop-color="#bbc2cc" />
            <stop offset="0.54" stop-color="#bbc2cc" />
            <stop offset="1" stop-color="#bbc2cc" />
        </linearGradient>
        <linearGradient id="未命名的渐变_3-2" x1="-584.97" y1="-493.18" x2="-584.97" y2="-495.46"
            gradientTransform="translate(592.18 519.04)" xlink:href="#未命名的渐变_3" />
        <linearGradient id="未命名的渐变_3-3" x1="-584.97" y1="-535.43" x2="-584.97" y2="-537.71"
            gradientTransform="translate(634.43 561.29)" xlink:href="#未命名的渐变_3" />
        <linearGradient id="未命名的渐变_3-4" x1="-584.97" y1="-586.01" x2="-584.97" y2="-588.28"
            gradientTransform="translate(685 611.87)" xlink:href="#未命名的渐变_3" />
        <linearGradient id="未命名的渐变_3-5" x1="-515.72" y1="-589.47" x2="-515.72" y2="-593.8"
            gradientTransform="translate(642.86 613.43)" xlink:href="#未命名的渐变_3" />
        <linearGradient id="未命名的渐变_3-6" x1="-670.82" y1="70.99" x2="-670.82" y2="60.83"
            gradientTransform="translate(51.51 -657.75) rotate(-90)" xlink:href="#未命名的渐变_3" />
        <linearGradient id="未命名的渐变_37-17" x1="56.17" y1="3.81" x2="56.17" y2="11.49"
            gradientTransform="matrix(1, 0, 0, 1, 0, 0)" xlink:href="#未命名的渐变_37" />
        <linearGradient id="未命名的渐变_142-2" x1="8.66" y1="7.68" x2="24.5" y2="7.68" xlink:href="#未命名的渐变_142" />
        <linearGradient id="未命名的渐变_142-3" x1="0" y1="7.68" x2="15.84" y2="7.68" xlink:href="#未命名的渐变_142" />
        <linearGradient id="未命名的渐变_142-4" x1="18.28" y1="7.68" x2="34.12" y2="7.68" xlink:href="#未命名的渐变_142" />
        <linearGradient id="未命名的渐变_142-5" x1="27.89" y1="7.68" x2="43.74" y2="7.68" xlink:href="#未命名的渐变_142" />
        <linearGradient id="未命名的渐变_142-6" x1="37.51" y1="7.68" x2="53.36" y2="7.68" xlink:href="#未命名的渐变_142" />
        <linearGradient id="未命名的渐变_142-7" x1="47.13" y1="7.68" x2="62.98" y2="7.68" xlink:href="#未命名的渐变_142" />
        <linearGradient id="未命名的渐变_142-8" x1="56.75" y1="7.68" x2="72.59" y2="7.68" xlink:href="#未命名的渐变_142" />
        <linearGradient id="未命名的渐变_142-9" x1="66.37" y1="7.68" x2="82.21" y2="7.68" xlink:href="#未命名的渐变_142" />
        <linearGradient id="未命名的渐变_142-10" x1="75.99" y1="7.68" x2="91.83" y2="7.68" xlink:href="#未命名的渐变_142" />
        <linearGradient id="未命名的渐变_142-11" x1="85.6" y1="7.68" x2="101.45" y2="7.68" xlink:href="#未命名的渐变_142" />
        <linearGradient id="未命名的渐变_142-12" x1="95.22" y1="7.68" x2="111.07" y2="7.68" xlink:href="#未命名的渐变_142" />
    </defs>
    <title>Screw conveyor(螺旋传送机)</title>
    <g id="图层_2" data-name="图层 2">
        <g id="图层_6" data-name="图层 6">
            <g id="Screw_conveyor_螺旋传送机_" data-name="Screw conveyor(螺旋传送机)">
                <rect class="cls-1" x="131.32" y="6.18" width="17.97" height="9.29" />
                <rect class="cls-2" x="112.34" y="8.55" width="18.97" height="4.54" />
                <rect class="cls-3" x="128.3" y="6.81" width="3.02" height="8.03" />
                <polygon class="cls-4" points="127.01 20.2 122.94 20.2 125.01 14.84 127.01 14.84 127.01 20.2" />
                <polygon class="cls-5" points="127.01 20.2 131.09 20.2 129.02 14.84 127.01 14.84 127.01 20.2" />
                <rect class="cls-6" x="125.33" y="5.48" width="2.96" height="10.83" />
                <rect class="cls-7" x="130.52" y="5.48" width="0.8" height="10.69" />
                <rect class="cls-8" x="146.33" y="6.18" height="9.29" />
                <path class="cls-9" d="M133.09,6.18h.42v9.29h-.42Z" />
                <rect class="cls-10" x="133.35" y="6.54" width="12.88" height="0.27" />
                <rect class="cls-11" x="133.35" y="14.4" width="12.88" height="0.27" />
                <rect class="cls-12" x="133.35" y="13.53" width="12.88" height="0.27" />
                <rect class="cls-13" x="133.35" y="12.65" width="12.88" height="0.27" />
                <rect class="cls-14" x="133.35" y="11.78" width="12.88" height="0.27" />
                <rect class="cls-15" x="133.35" y="10.91" width="12.88" height="0.27" />
                <rect class="cls-16" x="133.35" y="10.03" width="12.88" height="0.27" />
                <rect class="cls-17" x="133.35" y="9.16" width="12.88" height="0.27" />
                <rect class="cls-18" x="133.35" y="8.29" width="12.88" height="0.27" />
                <rect class="cls-19" x="133.35" y="7.41" width="12.88" height="0.27" />
                <polygon class="cls-20" points="150 14.1 149.29 15.47 149.29 6.17 150 7.55 150 14.1" />
                <rect class="cls-21" x="135.85" y="2.23" width="3.94" height="3.94" />
                <rect class="cls-22" width="112.34" height="18.51" />
                <rect class="cls-23" x="-2.07" y="23.58" width="18.56" height="2.28"
                    transform="translate(31.93 17.52) rotate(90)" />
                <rect class="cls-24" x="40.18" y="23.58" width="18.56" height="2.28"
                    transform="translate(74.18 -24.74) rotate(90)" />
                <rect class="cls-25" x="90.76" y="23.58" width="18.56" height="2.28"
                    transform="translate(124.76 -75.31) rotate(90)" />
                <rect class="cls-26" x="112.34" y="19.63" width="29.59" height="4.33" />
                <polygon class="cls-27" points="122.51 19.57 112.34 19.57 112.34 6.58 122.2 16.92 122.51 19.57" />
                <rect class="cls-28" y="3.81" width="112.34" height="7.69" />
                <path class="cls-29"
                    d="M17.34,3.82c-1,2.19-2.75,7.69-5.89,7.67H8.66c.64,4.86,5.44,3.75,7.16,0,2.9-6.34,4-7.57,5.89-7.67H24.5C23.79-.54,19.25-.32,17.34,3.82Z" />
                <path class="cls-30"
                    d="M8.68,3.82C7.66,6,5.93,11.51,2.8,11.49H0c.65,4.86,5.44,3.75,7.17,0,2.9-6.34,4-7.57,5.88-7.67h2.79C15.13-.54,10.59-.32,8.68,3.82Z" />
                <path class="cls-31"
                    d="M27,3.82c-1,2.19-2.75,7.69-5.88,7.67H18.28c.64,4.86,5.44,3.75,7.16,0,2.9-6.34,4-7.57,5.88-7.67h2.8C33.41-.54,28.87-.32,27,3.82Z" />
                <path class="cls-32"
                    d="M36.57,3.82c-1,2.19-2.75,7.69-5.88,7.67h-2.8c.65,4.86,5.45,3.75,7.17,0,2.9-6.34,4-7.57,5.88-7.67h2.8C43-.54,38.49-.32,36.57,3.82Z" />
                <path class="cls-33"
                    d="M46.19,3.82c-1,2.19-2.75,7.69-5.88,7.67h-2.8c.65,4.86,5.45,3.75,7.17,0,2.9-6.34,4-7.57,5.88-7.67h2.8C52.65-.54,48.1-.32,46.19,3.82Z" />
                <path class="cls-34"
                    d="M55.81,3.82c-1,2.19-2.75,7.69-5.88,7.67h-2.8c.65,4.86,5.44,3.75,7.17,0,2.9-6.34,4-7.57,5.88-7.67H63C62.26-.54,57.72-.32,55.81,3.82Z" />
                <path class="cls-35"
                    d="M65.43,3.82c-1,2.19-2.75,7.69-5.89,7.67H56.75c.64,4.86,5.44,3.75,7.16,0,2.91-6.34,4-7.57,5.89-7.67h2.79C71.88-.54,67.34-.32,65.43,3.82Z" />
                <path class="cls-36"
                    d="M75.05,3.82C74,6,72.3,11.51,69.16,11.49H66.37c.64,4.86,5.44,3.75,7.16,0,2.91-6.34,4-7.57,5.89-7.67h2.79C81.5-.54,77-.32,75.05,3.82Z" />
                <path class="cls-37"
                    d="M84.66,3.82c-1,2.19-2.75,7.69-5.88,7.67H76c.64,4.86,5.44,3.75,7.16,0,2.9-6.34,4-7.57,5.89-7.67h2.79C91.12-.54,86.58-.32,84.66,3.82Z" />
                <path class="cls-38"
                    d="M94.28,3.82c-1,2.19-2.75,7.69-5.88,7.67H85.6c.65,4.86,5.45,3.75,7.17,0,2.9-6.34,4-7.57,5.88-7.67h2.8C100.74-.54,96.2-.32,94.28,3.82Z" />
                <path class="cls-39"
                    d="M103.9,3.82c-1,2.19-2.75,7.69-5.88,7.67h-2.8c.65,4.86,5.45,3.75,7.17,0,2.9-6.34,4-7.57,5.88-7.67h2.8C110.36-.54,105.81-.32,103.9,3.82Z" />
                
            </g>
        </g>
    </g>
</svg>