<svg xmlns="http://www.w3.org/2000/svg" xmlns:xlink="http://www.w3.org/1999/xlink" viewBox="0 0 138.53 150">
    <defs>
        <style>
            .cls-1 {
                fill: url(#未命名的渐变_105);
            }

            .cls-2 {
                fill: url(#未命名的渐变_105-2);
            }

            .cls-3 {
                fill: url(#未命名的渐变_105-3);
            }

            .cls-4 {
                fill: url(#未命名的渐变_105-4);
            }

            .cls-5 {
                fill: url(#未命名的渐变_67);
            }

            .cls-6 {
                fill: url(#未命名的渐变_67-2);
            }

            .cls-7 {
                fill: url(#未命名的渐变_67-3);
            }

            .cls-8 {
                opacity: 0.2;
            }
        </style>
        <linearGradient id="未命名的渐变_105" x1="28.52" y1="26.01" x2="28.52"
            gradientTransform="matrix(1, 0, 0, -1, -12.72, 26.01)" gradientUnits="userSpaceOnUse">
            <stop offset="0" stop-color="#e2e2e2" />
            <stop offset="0.03" stop-color="#d0d0d0" />
            <stop offset="0.06" stop-color="#bcbcbc" />
            <stop offset="0.09" stop-color="#b5b5b5" />
            <stop offset="0.49" stop-color="#f6f6f6" />
            <stop offset="0.63" stop-color="#f3f3f3" />
            <stop offset="0.73" stop-color="#eaeaea" />
            <stop offset="0.82" stop-color="#dbdbdb" />
            <stop offset="0.9" stop-color="#c6c6c6" />
            <stop offset="0.97" stop-color="#aaa" />
            <stop offset="1" stop-color="#9b9b9b" />
        </linearGradient>
        <linearGradient id="未命名的渐变_105-2" x1="122.79" y1="26.01" x2="122.79" y2="0"
            gradientTransform="matrix(1, 0, 0, 1, 0, 0)" xlink:href="#未命名的渐变_105" />
        <linearGradient id="未命名的渐变_105-3" x1="26.11" y1="75" x2="112.44" y2="75"
            gradientTransform="matrix(1, 0, 0, 1, 0, 0)" xlink:href="#未命名的渐变_105" />
        <linearGradient id="未命名的渐变_105-4" x1="17.89" y1="69.65" x2="119.7" y2="69.65"
            gradientTransform="matrix(1, 0, 0, 1, 0, 0)" xlink:href="#未命名的渐变_105" />
        <linearGradient id="未命名的渐变_67" x1="115.27" y1="26.01" x2="115.27" gradientUnits="userSpaceOnUse">
            <stop offset="0" stop-color="#6b6b6b" />
            <stop offset="0.11" stop-color="#767676" />
            <stop offset="0.3" stop-color="#959595" />
            <stop offset="0.41" stop-color="#aaa" />
            <stop offset="0.56" stop-color="#ccc" />
            <stop offset="0.71" stop-color="#eaeaea" />
            <stop offset="0.8" stop-color="#f6f6f6" />
            <stop offset="0.83" stop-color="#ededed" />
            <stop offset="0.87" stop-color="#d4d4d4" />
            <stop offset="0.92" stop-color="#ababab" />
            <stop offset="0.98" stop-color="#737373" />
            <stop offset="0.99" stop-color="#666" />
        </linearGradient>
        <linearGradient id="未命名的渐变_67-2" x1="21" y1="26.01" x2="21" y2="0"
            gradientTransform="matrix(1, 0, 0, -1, 2.32, 26.01)" xlink:href="#未命名的渐变_67" />
        <linearGradient id="未命名的渐变_67-3" x1="38.96" y1="31.91" x2="97.68" y2="31.91" xlink:href="#未命名的渐变_67" />
    </defs>
    <title>IoT-process heating(制程加热)</title>
    <g id="图层_16" data-name="图层 16">
        <path class="cls-1"
            d="M.06,0H24.6a6.94,6.94,0,0,1,6.94,6.94V19.07A6.94,6.94,0,0,1,24.6,26H.06a0,0,0,0,1,0,0V0A0,0,0,0,1,.06,0Z"
            transform="translate(31.6 26.01) rotate(-180)" />
        <path class="cls-2"
            d="M107.05,0H131.6a6.94,6.94,0,0,1,6.94,6.94V19.07A6.94,6.94,0,0,1,131.6,26H107.05a0,0,0,0,1,0,0V0A0,0,0,0,1,107.05,0Z" />
        <path class="cls-3"
            d="M26.11,0h86.33a0,0,0,0,1,0,0V128.66A21.34,21.34,0,0,1,91.1,150H47.45a21.34,21.34,0,0,1-21.34-21.34V0A0,0,0,0,1,26.11,0Z" />
        <rect class="cls-4" x="17.89" y="64.31" width="101.81" height="10.69" />
        <rect class="cls-5" x="112.44" width="5.66" height="26.01" />
        <rect class="cls-6" x="20.48" width="5.66" height="26.01" transform="translate(46.63 26.01) rotate(180)" />
        <rect class="cls-7" x="38.96" y="6.54" width="58.72" height="50.74" />
        
    </g>
</svg>