<svg id="图层_1" data-name="图层 1" xmlns="http://www.w3.org/2000/svg" xmlns:xlink="http://www.w3.org/1999/xlink"
    viewBox="0 0 97.85 150">
    <defs>
        <style>
            .cls-1 {
                fill: url(#未命名的渐变_105);
            }

            .cls-2 {
                fill: url(#未命名的渐变_105-2);
            }

            .cls-3 {
                fill: url(#未命名的渐变_105-3);
            }

            .cls-4 {
                fill: url(#未命名的渐变_105-4);
            }

            .cls-5 {
                fill: url(#未命名的渐变_74);
            }

            .cls-6,
            .cls-9 {
                fill: #565656;
            }

            .cls-6 {
                stroke: #000;
            }

            .cls-10,
            .cls-26,
            .cls-34,
            .cls-6 {
                stroke-miterlimit: 10;
            }

            .cls-7 {
                fill: url(#未命名的渐变_74-2);
            }

            .cls-8 {
                fill: #b9b8bc;
            }

            .cls-10,
            .cls-26,
            .cls-34 {
                fill: none;
            }

            .cls-10 {
                stroke: #b9b8bc;
            }

            .cls-11 {
                fill: url(#未命名的渐变_105-5);
            }

            .cls-12 {
                fill: url(#未命名的渐变_105-6);
            }

            .cls-13 {
                fill: url(#未命名的渐变_105-7);
            }

            .cls-14 {
                fill: url(#未命名的渐变_105-8);
            }

            .cls-15 {
                fill: url(#未命名的渐变_105-9);
            }

            .cls-16 {
                fill: url(#未命名的渐变_105-10);
            }

            .cls-17 {
                fill: url(#未命名的渐变_105-11);
            }

            .cls-18 {
                fill: url(#未命名的渐变_105-12);
            }

            .cls-19 {
                fill: url(#未命名的渐变_105-13);
            }

            .cls-20 {
                fill: url(#未命名的渐变_105-14);
            }

            .cls-21 {
                fill: url(#未命名的渐变_105-15);
            }

            .cls-22 {
                fill: url(#未命名的渐变_33);
            }

            .cls-23 {
                fill: #fff;
            }

            .cls-24 {
                fill: #eaeaea;
            }

            .cls-25 {
                fill: #7f7f7f;
            }

            .cls-26 {
                stroke: #dedede;
                stroke-width: 0.1px;
            }

            .cls-27 {
                fill: #c1c1c1;
                opacity: 0.51;
            }

            .cls-28 {
                fill: url(#未命名的渐变_105-16);
            }

            .cls-29 {
                fill: url(#未命名的渐变_105-17);
            }

            .cls-30 {
                fill: url(#未命名的渐变_105-18);
            }

            .cls-31 {
                fill: url(#未命名的渐变_105-19);
            }

            .cls-32 {
                fill: url(#未命名的渐变_105-20);
            }

            .cls-33 {
                fill: url(#未命名的渐变_105-21);
            }

            .cls-34 {
                stroke: #7f7f7f;
                stroke-width: 0.25px;
            }

            .cls-35 {
                fill: #dedede;
            }

            .cls-36 {
                fill: url(#未命名的渐变_105-22);
            }

            .cls-37 {
                fill: url(#未命名的渐变_105-23);
            }

            .cls-38 {
                fill: url(#未命名的渐变_105-24);
            }

            .cls-39 {
                opacity: 0.2;
            }
        </style>
        <linearGradient id="未命名的渐变_105" x1="71.98" y1="56.1" x2="71.98" y2="49.69" gradientUnits="userSpaceOnUse">
            <stop offset="0" stop-color="#e2e2e2" />
            <stop offset="0.03" stop-color="#d0d0d0" />
            <stop offset="0.06" stop-color="#bcbcbc" />
            <stop offset="0.09" stop-color="#b5b5b5" />
            <stop offset="0.49" stop-color="#f6f6f6" />
            <stop offset="0.63" stop-color="#f3f3f3" />
            <stop offset="0.73" stop-color="#eaeaea" />
            <stop offset="0.82" stop-color="#dbdbdb" />
            <stop offset="0.9" stop-color="#c6c6c6" />
            <stop offset="0.97" stop-color="#aaa" />
            <stop offset="1" stop-color="#9b9b9b" />
        </linearGradient>
        <linearGradient id="未命名的渐变_105-2" x1="73.86" y1="59.36" x2="73.86" y2="45.58" xlink:href="#未命名的渐变_105" />
        <linearGradient id="未命名的渐变_105-3" x1="71.98" y1="122.82" x2="71.98" y2="116.42" xlink:href="#未命名的渐变_105" />
        <linearGradient id="未命名的渐变_105-4" x1="75.73" y1="89.52" x2="75.73" y2="85.38" xlink:href="#未命名的渐变_105" />
        <linearGradient id="未命名的渐变_74" x1="953.88" y1="146.64" x2="855.67" y2="146.64"
            gradientTransform="matrix(1, 0, 0, -1, -856.27, 293.28)" gradientUnits="userSpaceOnUse">
            <stop offset="0" stop-color="#6b6b6b" />
            <stop offset="0.01" stop-color="#767676" />
            <stop offset="0.03" stop-color="#959595" />
            <stop offset="0.04" stop-color="#aaa" />
            <stop offset="0.37" stop-color="#ccc" />
            <stop offset="0.74" stop-color="#eaeaea" />
            <stop offset="0.94" stop-color="#f6f6f6" />
            <stop offset="0.95" stop-color="#ededed" />
            <stop offset="0.96" stop-color="#d4d4d4" />
            <stop offset="0.97" stop-color="#ababab" />
            <stop offset="0.99" stop-color="#737373" />
            <stop offset="0.99" stop-color="#666" />
        </linearGradient>
        <linearGradient id="未命名的渐变_74-2" x1="12.12" y1="79.06" x2="72.76" y2="79.06"
            gradientTransform="matrix(1, 0, 0, 1, 0, 0)" xlink:href="#未命名的渐变_74" />
        <linearGradient id="未命名的渐变_105-5" x1="41.83" y1="81.49" x2="41.83" y2="79.06" xlink:href="#未命名的渐变_105" />
        <linearGradient id="未命名的渐变_105-6" x1="41.83" y1="86.94" x2="41.83" y2="84.52" xlink:href="#未命名的渐变_105" />
        <linearGradient id="未命名的渐变_105-7" x1="41.83" y1="93.01" x2="41.83" y2="90.58" xlink:href="#未命名的渐变_105" />
        <linearGradient id="未命名的渐变_105-8" x1="41.83" y1="99.07" x2="41.83" y2="96.64" xlink:href="#未命名的渐变_105" />
        <linearGradient id="未命名的渐变_105-9" x1="41.83" y1="105.13" x2="41.83" y2="102.71" xlink:href="#未命名的渐变_105" />
        <linearGradient id="未命名的渐变_105-10" x1="41.83" y1="111.2" x2="41.83" y2="108.77" xlink:href="#未命名的渐变_105" />
        <linearGradient id="未命名的渐变_105-11" x1="41.83" y1="117.26" x2="41.83" y2="114.83" xlink:href="#未命名的渐变_105" />
        <linearGradient id="未命名的渐变_105-12" x1="41.83" y1="123.32" x2="41.83" y2="120.9" xlink:href="#未命名的渐变_105" />
        <linearGradient id="未命名的渐变_105-13" x1="58.94" y1="9.94" x2="65" y2="9.94" xlink:href="#未命名的渐变_105" />
        <linearGradient id="未命名的渐变_105-14" x1="55.17" y1="13.36" x2="68.8" y2="13.36" xlink:href="#未命名的渐变_105" />
        <linearGradient id="未命名的渐变_105-15" x1="31.3" y1="1583.97" x2="33.35" y2="1583.97"
            gradientTransform="matrix(1, 0, 0, -1, 0, 1596.84)" xlink:href="#未命名的渐变_105" />
        <linearGradient id="未命名的渐变_33" x1="37.24" y1="1591.05" x2="39.46" y2="1591.05"
            gradientTransform="matrix(1, 0, 0, -1, 0, 1596.84)" gradientUnits="userSpaceOnUse">
            <stop offset="0" stop-color="#b7b7b7" />
            <stop offset="0.03" stop-color="#d6d6d6" />
            <stop offset="0.04" stop-color="#e4e4e4" />
            <stop offset="0.11" stop-color="#ededed" />
            <stop offset="0.23" stop-color="#f4f4f4" />
            <stop offset="0.56" stop-color="#f6f6f6" />
            <stop offset="0.8" stop-color="#f4f4f4" />
            <stop offset="0.89" stop-color="#ededed" />
            <stop offset="0.95" stop-color="#e2e2e2" />
            <stop offset="0.97" stop-color="#dedede" />
            <stop offset="0.98" stop-color="#c8c8c8" />
            <stop offset="1" stop-color="#b3b3b3" />
        </linearGradient>
        <linearGradient id="未命名的渐变_105-16" x1="32.02" y1="14.6" x2="32.63" y2="14.6" xlink:href="#未命名的渐变_105" />
        <linearGradient id="未命名的渐变_105-17" x1="32.32" y1="12.94" x2="32.32" y2="12.8" xlink:href="#未命名的渐变_105" />
        <linearGradient id="未命名的渐变_105-18" x1="32.32" y1="13.27" x2="32.32" y2="13.14" xlink:href="#未命名的渐变_105" />
        <linearGradient id="未命名的渐变_105-19" x1="32.32" y1="13.59" x2="32.32" y2="13.45" xlink:href="#未命名的渐变_105" />
        <linearGradient id="未命名的渐变_105-20" x1="32.32" y1="13.88" x2="32.32" y2="13.75" xlink:href="#未命名的渐变_105" />
        <linearGradient id="未命名的渐变_105-21" x1="32.32" y1="14.16" x2="32.32" y2="14.03" xlink:href="#未命名的渐变_105" />
        <linearGradient id="未命名的渐变_105-22" x1="73.86" y1="126.08" x2="73.86" y2="112.3" xlink:href="#未命名的渐变_105" />
        <linearGradient id="未命名的渐变_105-23" x1="77.56" y1="90.58" x2="77.56" y2="84.32" xlink:href="#未命名的渐变_105" />
        <linearGradient id="未命名的渐变_105-24" x1="74.88" y1="81.39" x2="80.39" y2="81.39" xlink:href="#未命名的渐变_105" />
    </defs>
    <title>IoT-process heating(制程加热)</title>
    <rect class="cls-1" x="64.8" y="49.69" width="14.37" height="6.41" />
    <rect class="cls-2" x="72.76" y="45.58" width="2.2" height="13.78" />
    <rect class="cls-3" x="64.8" y="116.42" width="14.37" height="6.41" />
    <rect class="cls-4" x="66.35" y="85.38" width="18.76" height="4.13" />
    <rect class="cls-5" x="-0.6" y="143.28" width="98.21" height="6.72"
        transform="translate(97.02 293.28) rotate(180)" />
    <rect class="cls-6" x="24.25" y="40.25" width="36.38" height="16.98" />
    <rect class="cls-7" x="12.12" y="14.79" width="60.63" height="128.54" />
    <rect class="cls-8" x="55.17" y="21.46" width="12.13" height="12.13" />
    <circle class="cls-9" cx="61.24" cy="27.52" r="3.64" />
    <rect class="cls-10" x="15.16" y="17.82" width="54.57" height="122.48" />
    <rect class="cls-11" x="34.56" y="79.06" width="14.55" height="2.43" />
    <rect class="cls-12" x="34.56" y="84.52" width="14.55" height="2.43" />
    <rect class="cls-13" x="34.56" y="90.58" width="14.55" height="2.43" />
    <rect class="cls-14" x="34.56" y="96.64" width="14.55" height="2.43" />
    <rect class="cls-15" x="34.56" y="102.71" width="14.55" height="2.43" />
    <rect class="cls-16" x="34.56" y="108.77" width="14.55" height="2.43" />
    <rect class="cls-17" x="34.56" y="114.83" width="14.55" height="2.43" />
    <rect class="cls-18" x="34.56" y="120.9" width="14.55" height="2.43" />
    <rect class="cls-19" x="58.94" y="5.09" width="6.06" height="9.7" />
    <rect class="cls-20" x="55.17" y="11.94" width="13.62" height="2.85" />
    <rect class="cls-21" x="31.3" y="11.34" width="2.04" height="3.06" />
    <rect class="cls-22" x="37.24" y="4.01" width="2.22" height="3.57" />
    <circle class="cls-23" cx="32.32" cy="5.81" r="5.25" />
    <path class="cls-24"
        d="M27.07,5.81a5.22,5.22,0,0,0,2.3,4.33,4.93,4.93,0,0,0,.78.06,5.67,5.67,0,0,0,5.62-5.72A5.76,5.76,0,0,0,34.7,1.13,5.16,5.16,0,0,0,32.32.56,5.25,5.25,0,0,0,27.07,5.81Z" />
    <path class="cls-25"
        d="M32.32.06a5.75,5.75,0,1,0,5.75,5.75A5.74,5.74,0,0,0,32.32.06Zm0,11a5.25,5.25,0,1,1,5.25-5.25A5.26,5.26,0,0,1,32.32,11.06Z" />
    <rect class="cls-25" x="31.25" y="9.18" width="2.16" height="1.06" />
    <rect class="cls-26" x="31.37" y="9.32" width="1.92" height="0.78" />
    <circle class="cls-27" cx="32.32" cy="5.81" r="5.04" />
    <rect class="cls-28" x="32.02" y="14.41" width="0.61" height="0.38" />
    <rect class="cls-29" x="31.29" y="12.8" width="2.07" height="0.13" />
    <rect class="cls-30" x="31.29" y="13.14" width="2.07" height="0.13" />
    <rect class="cls-31" x="31.29" y="13.45" width="2.07" height="0.13" />
    <rect class="cls-32" x="31.29" y="13.75" width="2.07" height="0.13" />
    <rect class="cls-33" x="31.29" y="14.03" width="2.07" height="0.13" />
    <path class="cls-25"
        d="M34.23,4.87l-.57-.57a.23.23,0,0,0-.31,0l0,0h0v0s0,0,0,.05a3.84,3.84,0,0,1-.61.93C32,6.09,28.85,9,28.85,9s3.29-2.62,4.31-3.33a4.86,4.86,0,0,1,1-.41h.07l0,0A.23.23,0,0,0,34.23,4.87Z" />
    <circle class="cls-25" cx="32.5" cy="5.87" r="0.45" />
    <line class="cls-34" x1="34.58" y1="1.64" x2="34.21" y2="2.34" />
    <line class="cls-34" x1="30.22" y1="1.64" x2="30.59" y2="2.34" />
    <line class="cls-34" x1="27.7" y1="5.18" x2="28.49" y2="5.3" />
    <line class="cls-34" x1="37.15" y1="5.16" x2="36.37" y2="5.27" />
    <circle class="cls-35" cx="32.5" cy="5.87" r="0.26" />
    <rect class="cls-36" x="72.76" y="112.3" width="2.2" height="13.78" />
    <rect class="cls-37" x="73.76" y="84.32" width="7.59" height="6.26" />
    <rect class="cls-38" x="74.88" y="78.45" width="5.51" height="5.87" />
    
</svg>