<svg xmlns="http://www.w3.org/2000/svg" xmlns:xlink="http://www.w3.org/1999/xlink" viewBox="0 0 150 118.37">
    <defs>
        <style>
            .cls-1 {
                fill: url(#未命名的渐变_105);
            }

            .cls-2 {
                fill: url(#未命名的渐变_105-2);
            }

            .cls-3 {
                fill: url(#未命名的渐变_105-3);
            }

            .cls-4 {
                fill: url(#未命名的渐变_105-4);
            }

            .cls-5 {
                fill: url(#未命名的渐变_105-5);
            }

            .cls-6 {
                fill: url(#未命名的渐变_105-6);
            }

            .cls-7 {
                fill: url(#未命名的渐变_105-7);
            }

            .cls-8 {
                fill: url(#未命名的渐变_67);
            }

            .cls-9 {
                fill: url(#未命名的渐变_67-2);
            }

            .cls-10 {
                fill: url(#未命名的渐变_67-3);
            }

            .cls-11 {
                fill: url(#未命名的渐变_105-8);
            }

            .cls-12 {
                fill: url(#未命名的渐变_105-9);
            }

            .cls-13 {
                fill: url(#未命名的渐变_105-10);
            }

            .cls-14 {
                opacity: 0.2;
            }
        </style>
        <linearGradient id="未命名的渐变_105" x1="80.08" y1="79.74" x2="126.29" y2="79.74"
            gradientTransform="matrix(1, 0, 0, -1, 0, 196.26)" gradientUnits="userSpaceOnUse">
            <stop offset="0" stop-color="#e2e2e2" />
            <stop offset="0.03" stop-color="#d0d0d0" />
            <stop offset="0.06" stop-color="#bcbcbc" />
            <stop offset="0.09" stop-color="#b5b5b5" />
            <stop offset="0.49" stop-color="#f6f6f6" />
            <stop offset="0.63" stop-color="#f3f3f3" />
            <stop offset="0.73" stop-color="#eaeaea" />
            <stop offset="0.82" stop-color="#dbdbdb" />
            <stop offset="0.9" stop-color="#c6c6c6" />
            <stop offset="0.97" stop-color="#aaa" />
            <stop offset="1" stop-color="#9b9b9b" />
        </linearGradient>
        <linearGradient id="未命名的渐变_105-2" x1="-1093.86" y1="91.35" x2="-1093.86" y2="28.5"
            gradientTransform="matrix(1, 0, 0, -1, 1160.11, 119.85)" xlink:href="#未命名的渐变_105" />
        <linearGradient id="未命名的渐变_105-3" x1="-1094.12" y1="91.17" x2="-1094.12" y2="28.32"
            gradientTransform="matrix(1, 0, 0, -1, 1160.63, 119.49)" xlink:href="#未命名的渐变_105" />
        <linearGradient id="未命名的渐变_105-4" x1="131" y1="71.88" x2="131" y2="44.81"
            gradientTransform="matrix(1, 0, 0, 1, 0, 0)" xlink:href="#未命名的渐变_105" />
        <linearGradient id="未命名的渐变_105-5" x1="6.45" y1="100.54" x2="6.45" y2="13.9"
            gradientTransform="matrix(1, 0, 0, 1, 0, 0)" xlink:href="#未命名的渐变_105" />
        <linearGradient id="未命名的渐变_105-6" x1="125.36" y1="100.54" x2="125.36" y2="13.9"
            gradientTransform="matrix(1, 0, 0, 1, 0, 0)" xlink:href="#未命名的渐变_105" />
        <linearGradient id="未命名的渐变_105-7" x1="146.54" y1="100.54" x2="146.54" y2="13.9"
            gradientTransform="matrix(1, 0, 0, 1, 0, 0)" xlink:href="#未命名的渐变_105" />
        <linearGradient id="未命名的渐变_67" x1="66.51" y1="91.35" x2="66.51" y2="28.32" gradientUnits="userSpaceOnUse">
            <stop offset="0" stop-color="#6b6b6b" />
            <stop offset="0.11" stop-color="#767676" />
            <stop offset="0.3" stop-color="#959595" />
            <stop offset="0.41" stop-color="#aaa" />
            <stop offset="0.56" stop-color="#ccc" />
            <stop offset="0.71" stop-color="#eaeaea" />
            <stop offset="0.8" stop-color="#f6f6f6" />
            <stop offset="0.83" stop-color="#ededed" />
            <stop offset="0.87" stop-color="#d4d4d4" />
            <stop offset="0.92" stop-color="#ababab" />
            <stop offset="0.98" stop-color="#737373" />
            <stop offset="0.99" stop-color="#666" />
        </linearGradient>
        <linearGradient id="未命名的渐变_67-2" x1="14.04" y1="91.44" x2="14.04" y2="28.41" xlink:href="#未命名的渐变_67" />
        <linearGradient id="未命名的渐变_67-3" x1="117.76" y1="91.35" x2="117.76" y2="28.32" xlink:href="#未命名的渐变_67" />
        <linearGradient id="未命名的渐变_105-8" x1="15.4" y1="27.96" x2="45.78" y2="27.96"
            gradientTransform="matrix(1, 0, 0, 1, 0, 0)" xlink:href="#未命名的渐变_105" />
        <linearGradient id="未命名的渐变_105-9" x1="9.13" y1="1.85" x2="55.34" y2="1.85"
            gradientTransform="matrix(1, 0, 0, 1, 0, 0)" xlink:href="#未命名的渐变_105" />
        <linearGradient id="未命名的渐变_105-10" x1="86.35" y1="105.85" x2="116.73" y2="105.85" xlink:href="#未命名的渐变_105" />
    </defs>
    <title>IoT-process heating(制程加热)</title>
    <g id="图层_15" data-name="图层 15">
        <rect class="cls-1" x="80.08" y="114.67" width="46.21" height="3.7" />
        <rect class="cls-2" x="12.89" y="28.5" width="106.72" height="62.85"
            transform="translate(132.5 119.85) rotate(180)" />
        <rect class="cls-3" x="13.15" y="28.32" width="106.72" height="62.85"
            transform="translate(133.02 119.49) rotate(180)" />
        <rect class="cls-4" x="118.91" y="44.81" width="24.17" height="27.06" />
        <rect class="cls-5" y="13.9" width="12.89" height="86.64" />
        <rect class="cls-6" x="118.91" y="13.9" width="12.89" height="86.64" />
        <rect class="cls-7" x="143.09" y="13.9" width="6.91" height="86.64" />
        <rect class="cls-8" x="65.36" y="28.32" width="2.3" height="63.02" />
        <rect class="cls-9" x="12.89" y="28.41" width="2.3" height="63.02" />
        <rect class="cls-10" x="116.61" y="28.32" width="2.3" height="63.02" />
        <path class="cls-11"
            d="M15.4,3.7H45.78a0,0,0,0,1,0,0V37A15.19,15.19,0,0,1,30.59,52.23h0A15.19,15.19,0,0,1,15.4,37V3.7A0,0,0,0,1,15.4,3.7Z" />
        <rect class="cls-12" x="9.13" width="46.21" height="3.7" />
        <path class="cls-13"
            d="M101.54,66.15h0a15.19,15.19,0,0,1,15.19,15.19v33.34a0,0,0,0,1,0,0H86.35a0,0,0,0,1,0,0V81.34A15.19,15.19,0,0,1,101.54,66.15Z" />
        
    </g>
</svg>