<svg xmlns="http://www.w3.org/2000/svg" xmlns:xlink="http://www.w3.org/1999/xlink" viewBox="0 0 95.84 150">
    <defs>
        <style>
            .cls-1 {
                fill: url(#未命名的渐变_74);
            }

            .cls-2 {
                fill: url(#未命名的渐变_105);
            }

            .cls-3,
            .cls-9 {
                fill: #565656;
            }

            .cls-4 {
                fill: url(#未命名的渐变_74-2);
            }

            .cls-5 {
                fill: url(#未命名的渐变_105-2);
            }

            .cls-6 {
                fill: url(#未命名的渐变_105-3);
            }

            .cls-7 {
                fill: url(#未命名的渐变_105-4);
            }

            .cls-8 {
                fill: #b9b8bc;
            }

            .cls-9 {
                stroke: #b9b8bc;
                stroke-miterlimit: 10;
            }

            .cls-10 {
                fill: url(#未命名的渐变_105-5);
            }

            .cls-11 {
                fill: url(#未命名的渐变_105-6);
            }

            .cls-12 {
                fill: url(#未命名的渐变_6);
            }

            .cls-13 {
                opacity: 0.2;
            }
        </style>
        <linearGradient id="未命名的渐变_74" x1="44.15" y1="12.49" x2="60.63" y2="12.49" gradientUnits="userSpaceOnUse">
            <stop offset="0" stop-color="#6b6b6b" />
            <stop offset="0.01" stop-color="#767676" />
            <stop offset="0.03" stop-color="#959595" />
            <stop offset="0.04" stop-color="#aaa" />
            <stop offset="0.37" stop-color="#ccc" />
            <stop offset="0.74" stop-color="#eaeaea" />
            <stop offset="0.94" stop-color="#f6f6f6" />
            <stop offset="0.95" stop-color="#ededed" />
            <stop offset="0.96" stop-color="#d4d4d4" />
            <stop offset="0.97" stop-color="#ababab" />
            <stop offset="0.99" stop-color="#737373" />
            <stop offset="0.99" stop-color="#666" />
        </linearGradient>
        <linearGradient id="未命名的渐变_105" x1="95.84" y1="88.54" x2="12.4" y2="88.54" gradientUnits="userSpaceOnUse">
            <stop offset="0" stop-color="#e2e2e2" />
            <stop offset="0.03" stop-color="#d0d0d0" />
            <stop offset="0.06" stop-color="#bcbcbc" />
            <stop offset="0.09" stop-color="#b5b5b5" />
            <stop offset="0.49" stop-color="#f6f6f6" />
            <stop offset="0.63" stop-color="#f3f3f3" />
            <stop offset="0.73" stop-color="#eaeaea" />
            <stop offset="0.82" stop-color="#dbdbdb" />
            <stop offset="0.9" stop-color="#c6c6c6" />
            <stop offset="0.97" stop-color="#aaa" />
            <stop offset="1" stop-color="#9b9b9b" />
        </linearGradient>
        <linearGradient id="未命名的渐变_74-2" x1="46.41" y1="31.01" x2="58.37" y2="31.01" xlink:href="#未命名的渐变_74" />
        <linearGradient id="未命名的渐变_105-2" x1="44.29" y1="35.99" x2="60.41" y2="35.99" xlink:href="#未命名的渐变_105" />
        <linearGradient id="未命名的渐变_105-3" x1="41.66" y1="26.04" x2="62.94" y2="26.04" xlink:href="#未命名的渐变_105" />
        <linearGradient id="未命名的渐变_105-4" x1="48.1" y1="39.31" x2="56.51" y2="39.31" xlink:href="#未命名的渐变_105" />
        <linearGradient id="未命名的渐变_105-5" x1="9.3" y1="41.14" x2="9.3" y2="34.94" xlink:href="#未命名的渐变_105" />
        <linearGradient id="未命名的渐变_105-6" x1="3.1" y1="45.13" x2="3.1" y2="31.01" xlink:href="#未命名的渐变_105" />
        <linearGradient id="未命名的渐变_6" x1="52.04" y1="138.57" x2="52.04" y2="41.59" gradientUnits="userSpaceOnUse">
            <stop offset="0" stop-color="#c20001" />
            <stop offset="0.16" stop-color="#cc2e18" />
            <stop offset="0.37" stop-color="#d86834" />
            <stop offset="0.57" stop-color="#e2964a" />
            <stop offset="0.75" stop-color="#e9b75b" />
            <stop offset="0.9" stop-color="#edcb64" />
            <stop offset="1" stop-color="#efd268" />
        </linearGradient>
    </defs>
    <title>IoT-process heating(制程加热)</title>
    <g id="图层_11" data-name="图层 11">
        <rect class="cls-1" x="44.15" width="16.47" height="24.99" />
        <rect class="cls-2" x="12.4" y="27.09" width="83.44" height="122.91" />
        <rect class="cls-3" x="24.09" y="27.09" width="58.46" height="122.91" />
        <rect class="cls-4" x="46.41" y="27.09" width="11.96" height="7.86" />
        <rect class="cls-5" x="44.29" y="34.94" width="16.12" height="2.1" />
        <rect class="cls-6" x="41.66" y="24.99" width="21.28" height="2.1" />
        <rect class="cls-7" x="48.1" y="37.04" width="8.41" height="4.55" />
        <circle class="cls-3" cx="52.04" cy="6.46" r="3.61" />
        <circle class="cls-8" cx="52.04" cy="6.46" r="2.1" />
        <rect class="cls-9" x="47.56" y="14.04" width="8.95" height="9.65" />
        <rect class="cls-10" x="6.2" y="34.94" width="6.2" height="6.2" />
        <rect class="cls-11" y="31.01" width="6.2" height="14.11" />
        <path class="cls-12"
            d="M45.91,44.65c-5,7.66-9.31,9-9.31,9l6.46,1.07L31.85,66.87l11.21-7.82s-16.27,42.07-15.19,42,17-36.51,8.87-10.92-3.82,20.15-5,24.74-.77,5.21-.16,4.29,6-9.34,6-9.34L36,124.48s5-23.14,5.51-22.07,5.67,36.16,5.67,36.16a36.93,36.93,0,0,0,1.46-9c.07-4.59,8,2,8,2S53,111.61,53.85,113.75s8.8,18.54,8.8,17.16-10.5-34.5,6.81-16.77l4.68,7.73L73.22,111,66.64,95.51l9.62,10-1.66-2.91-1.76-8.81c4.06,14.1,2.37-.76,2.22-1.53s-2.15-13.25-2.15-13.25L69.23,75.6l4.91-3.22-4.45-6.13-3.21-6,6-2.76L53.85,41.59H50.22Z" />
        
    </g>
</svg>