<svg xmlns="http://www.w3.org/2000/svg" xmlns:xlink="http://www.w3.org/1999/xlink" viewBox="0 0 150 150">
    <defs>
        <style>
            .cls-1,
            .cls-2 {
                fill: none;
            }

            .cls-2 {
                stroke: #fff;
                stroke-miterlimit: 10;
                stroke-width: 0.1px;
            }

            .cls-3,
            .cls-35 {
                fill: #000714;
            }

            .cls-4 {
                isolation: isolate;
            }

            .cls-5 {
                opacity: 0;
            }

            .cls-6 {
                opacity: 0.1;
                fill: url(#新建图案);
            }

            .cls-7 {
                fill: url(#未命名的渐变_140);
            }

            .cls-8 {
                fill: url(#未命名的渐变_61);
            }

            .cls-9 {
                fill: url(#未命名的渐变_171);
            }

            .cls-10 {
                fill: url(#未命名的渐变_171-2);
            }

            .cls-11 {
                fill: url(#未命名的渐变_149);
            }

            .cls-12 {
                fill: url(#未命名的渐变_205);
            }

            .cls-13 {
                fill: url(#未命名的渐变_225);
            }

            .cls-14 {
                fill: url(#未命名的渐变_149-2);
            }

            .cls-15 {
                fill: url(#未命名的渐变_205-2);
            }

            .cls-16 {
                fill: url(#未命名的渐变_225-2);
            }

            .cls-17,
            .cls-39 {
                opacity: 0.2;
            }

            .cls-17 {
                mix-blend-mode: multiply;
            }

            .cls-18 {
                fill: #4cfafe;
            }

            .cls-19 {
                opacity: 0.4;
            }

            .cls-20 {
                fill: url(#新建图案_2);
            }

            .cls-21 {
                fill: #15b8d9;
            }

            .cls-22 {
                fill: url(#未命名的渐变_108);
            }

            .cls-23 {
                fill: url(#未命名的渐变_108-2);
            }

            .cls-24 {
                fill: url(#未命名的渐变_149-3);
            }

            .cls-25 {
                fill: url(#未命名的渐变_205-3);
            }

            .cls-26 {
                fill: url(#未命名的渐变_225-3);
            }

            .cls-27 {
                fill: url(#新建图案_2-3);
            }

            .cls-28 {
                fill: url(#未命名的渐变_108-3);
            }

            .cls-29 {
                fill: url(#未命名的渐变_108-4);
            }

            .cls-30 {
                fill: url(#未命名的渐变_149-4);
            }

            .cls-31 {
                fill: url(#未命名的渐变_205-4);
            }

            .cls-32 {
                fill: url(#未命名的渐变_225-4);
            }

            .cls-33 {
                opacity: 0.65;
            }

            .cls-34 {
                fill: url(#未命名的渐变_65);
            }

            .cls-35 {
                opacity: 0.3;
            }

            .cls-36 {
                fill: url(#未命名的渐变_107);
            }

            .cls-37 {
                fill: url(#未命名的渐变_117);
            }

            .cls-38 {
                fill: #00d9a3;
            }
        </style>
        <pattern id="新建图案" data-name="新建图案" width="18.57" height="32.16" patternTransform="translate(312.52)"
            patternUnits="userSpaceOnUse" viewBox="0 0 18.57 32.16">
            <rect class="cls-1" width="18.57" height="32.16" />
            <polyline class="cls-2" points="18.57 21.44 18.57 32.16 18.57 42.88" />
            <polyline class="cls-2" points="9.29 26.8 18.57 32.16 27.85 37.51 27.85 37.52" />
            <polyline class="cls-2" points="9.29 37.52 9.29 37.51 18.57 32.16 27.85 26.8" />
            <polygon class="cls-2"
                points="27.85 37.52 27.85 26.8 18.57 21.44 9.28 26.8 9.28 37.52 18.57 42.88 27.85 37.52" />
            <polyline class="cls-2" points="0 21.44 0 32.16 0 42.88" />
            <polyline class="cls-2" points="-9.28 26.8 0 32.16 9.28 37.51 9.28 37.52" />
            <polyline class="cls-2" points="-9.28 37.52 -9.28 37.51 0 32.16 9.28 26.8" />
            <polygon class="cls-2" points="9.28 37.52 9.28 26.8 0 21.44 -9.29 26.8 -9.29 37.52 0 42.88 9.28 37.52" />
            <polyline class="cls-2" points="18.57 10.72 27.85 16.08 37.13 21.43 37.13 21.44" />
            <polyline class="cls-2" points="18.57 21.44 18.57 21.43 27.85 16.08 37.13 10.72" />
            <polygon class="cls-2"
                points="37.14 21.44 37.14 10.72 27.85 5.36 18.57 10.72 18.57 21.44 27.85 26.8 37.14 21.44" />
            <polyline class="cls-2" points="9.29 5.36 9.29 16.08 9.29 26.8" />
            <polyline class="cls-2" points="0.01 10.72 9.29 16.08 18.57 21.43 18.57 21.44" />
            <polyline class="cls-2" points="0.01 21.44 0.01 21.43 9.29 16.08 18.57 10.72" />
            <polygon class="cls-2" points="18.57 21.44 18.57 10.72 9.28 5.36 0 10.72 0 21.44 9.28 26.8 18.57 21.44" />
            <polyline class="cls-2" points="-18.56 10.72 -9.28 16.08 0 21.43 0 21.44" />
            <polyline class="cls-2" points="-18.56 21.44 -18.56 21.43 -9.28 16.08 0 10.72" />
            <polygon class="cls-2" points="0 21.44 0 10.72 -9.29 5.36 -18.57 10.72 -18.57 21.44 -9.29 26.8 0 21.44" />
            <polyline class="cls-2" points="18.57 -10.72 18.57 0 18.57 10.72" />
            <polyline class="cls-2" points="9.29 -5.36 18.57 0 27.85 5.35 27.85 5.36" />
            <polyline class="cls-2" points="9.29 5.36 9.29 5.35 18.57 0 27.85 -5.36" />
            <polygon class="cls-2"
                points="27.85 5.36 27.85 -5.36 18.57 -10.72 9.28 -5.36 9.28 5.36 18.57 10.72 27.85 5.36" />
            <polyline class="cls-2" points="0 -10.72 0 0 0 10.72" />
            <polyline class="cls-2" points="-9.28 -5.36 0 0 9.28 5.35 9.28 5.36" />
            <polyline class="cls-2" points="-9.28 5.36 -9.28 5.35 0 0 9.28 -5.36" />
            <polygon class="cls-2" points="9.28 5.36 9.28 -5.36 0 -10.72 -9.29 -5.36 -9.29 5.36 0 10.72 9.28 5.36" />
        </pattern>
        <linearGradient id="未命名的渐变_140" x1="394.86" y1="26.26" x2="485.44" y2="26.26"
            gradientTransform="translate(-365.22)" gradientUnits="userSpaceOnUse">
            <stop offset="0" stop-color="#89abe6" />
            <stop offset="1" stop-color="#547099" />
        </linearGradient>
        <linearGradient id="未命名的渐变_61" x1="74.93" y1="52.51" x2="74.93" gradientUnits="userSpaceOnUse">
            <stop offset="0" stop-color="#99beff" />
            <stop offset="0.02" stop-color="#99beff" stop-opacity="0.93" />
            <stop offset="0.09" stop-color="#99beff" stop-opacity="0.74" />
            <stop offset="0.17" stop-color="#99beff" stop-opacity="0.56" />
            <stop offset="0.25" stop-color="#99beff" stop-opacity="0.41" />
            <stop offset="0.33" stop-color="#99beff" stop-opacity="0.28" />
            <stop offset="0.43" stop-color="#99beff" stop-opacity="0.18" />
            <stop offset="0.53" stop-color="#99beff" stop-opacity="0.1" />
            <stop offset="0.64" stop-color="#99beff" stop-opacity="0.04" />
            <stop offset="0.77" stop-color="#99beff" stop-opacity="0.01" />
            <stop offset="1" stop-color="#99beff" stop-opacity="0" />
        </linearGradient>
        <linearGradient id="未命名的渐变_171" x1="105.02" y1="149.99" x2="105.02" y2="34.88" gradientUnits="userSpaceOnUse">
            <stop offset="0" stop-color="#303a4d" />
            <stop offset="0.22" stop-color="#2a3344" />
            <stop offset="0.57" stop-color="#1b222c" />
            <stop offset="1" stop-color="#020505" />
        </linearGradient>
        <linearGradient id="未命名的渐变_171-2" x1="105.08" y1="141.18" x2="89.69" y2="114.51" xlink:href="#未命名的渐变_171" />
        <linearGradient id="未命名的渐变_149" x1="117.74" y1="127.08" x2="117.74" y2="39.77" gradientUnits="userSpaceOnUse">
            <stop offset="0" stop-color="#506280" />
            <stop offset="0.34" stop-color="#4c5d77" />
            <stop offset="0.89" stop-color="#414f5f" />
            <stop offset="1" stop-color="#3e4c59" />
        </linearGradient>
        <linearGradient id="未命名的渐变_205" x1="117.38" y1="127.08" x2="117.38" y2="39.78" gradientUnits="userSpaceOnUse">
            <stop offset="0" stop-color="#354359" />
            <stop offset="0.34" stop-color="#303d50" />
            <stop offset="0.9" stop-color="#222c38" />
            <stop offset="1" stop-color="#1f2933" />
        </linearGradient>
        <linearGradient id="未命名的渐变_225" x1="117.11" y1="39.77" x2="117.82" y2="39.77" gradientUnits="userSpaceOnUse">
            <stop offset="0" stop-color="#465d80" />
            <stop offset="1" stop-color="#6b85b3" />
        </linearGradient>
        <linearGradient id="未命名的渐变_149-2" x1="88.67" y1="117.36" x2="118.14" y2="117.36" xlink:href="#未命名的渐变_149" />
        <linearGradient id="未命名的渐变_205-2" x1="88.38" y1="129.11" x2="72.06" y2="112.79" xlink:href="#未命名的渐变_205" />
        <linearGradient id="未命名的渐变_225-2" x1="71.76" y1="109.5" x2="118.13" y2="109.5" xlink:href="#未命名的渐变_225" />
        <pattern id="新建图案_2" data-name="新建图案 2" width="7" height="4"
            patternTransform="matrix(0.12, -0.07, 0, 0.12, 158.95, -20.03)" patternUnits="userSpaceOnUse"
            viewBox="0 0 7 4">
            <rect class="cls-1" width="7" height="4" />
            <polygon class="cls-3" points="8 2.27 6 2.27 5 4 6 5.73 8 5.73 9 4 8 2.27" />
            <polygon class="cls-3" points="1 2.27 -1 2.27 -2 4 -1 5.73 1 5.73 2 4 1 2.27" />
            <polygon class="cls-3" points="8 -1.73 6 -1.73 5 0 6 1.73 8 1.73 9 0 8 -1.73" />
            <polygon class="cls-3" points="4.5 0.27 2.5 0.27 1.5 2 2.5 3.73 4.5 3.73 5.5 2 4.5 0.27" />
            <polygon class="cls-3" points="1 -1.73 -1 -1.73 -2 0 -1 1.73 1 1.73 2 0 1 -1.73" />
        </pattern>
        <radialGradient id="未命名的渐变_108" cx="77.89" cy="96.78" r="0.22"
            gradientTransform="matrix(0.99, -0.14, 0.07, 0.83, 22.43, 48.38)" gradientUnits="userSpaceOnUse">
            <stop offset="0" stop-color="#008dff" />
            <stop offset="1" stop-color="#008dff" stop-opacity="0" />
        </radialGradient>
        <radialGradient id="未命名的渐变_108-2" cx="78.56" cy="95.35" r="0.22"
            gradientTransform="matrix(0.99, -0.14, 0.07, 0.83, 22.46, 48.17)" xlink:href="#未命名的渐变_108" />
        <linearGradient id="未命名的渐变_149-3" x1="88.67" y1="109.36" x2="118.14" y2="109.36" xlink:href="#未命名的渐变_149" />
        <linearGradient id="未命名的渐变_205-3" x1="88.38" y1="121.11" x2="72.06" y2="104.79" xlink:href="#未命名的渐变_205" />
        <linearGradient id="未命名的渐变_225-3" x1="71.76" y1="101.5" x2="118.13" y2="101.5" xlink:href="#未命名的渐变_225" />
        <pattern id="新建图案_2-3" data-name="新建图案 2" width="7" height="4"
            patternTransform="matrix(0.12, -0.07, 0, 0.12, 158.95, -18.33)" patternUnits="userSpaceOnUse"
            viewBox="0 0 7 4">
            <rect class="cls-1" width="7" height="4" />
            <polygon class="cls-3" points="8 2.27 6 2.27 5 4 6 5.73 8 5.73 9 4 8 2.27" />
            <polygon class="cls-3" points="1 2.27 -1 2.27 -2 4 -1 5.73 1 5.73 2 4 1 2.27" />
            <polygon class="cls-3" points="8 -1.73 6 -1.73 5 0 6 1.73 8 1.73 9 0 8 -1.73" />
            <polygon class="cls-3" points="4.5 0.27 2.5 0.27 1.5 2 2.5 3.73 4.5 3.73 5.5 2 4.5 0.27" />
            <polygon class="cls-3" points="1 -1.73 -1 -1.73 -2 0 -1 1.73 1 1.73 2 0 1 -1.73" />
        </pattern>
        <radialGradient id="未命名的渐变_108-3" cx="78.77" cy="89.45" r="0.22"
            gradientTransform="matrix(0.99, -0.14, 0.07, 0.83, 22.05, 46.6)" xlink:href="#未命名的渐变_108" />
        <radialGradient id="未命名的渐变_108-4" cx="79.44" cy="88.01" r="0.22"
            gradientTransform="matrix(0.99, -0.14, 0.07, 0.83, 22.07, 46.39)" xlink:href="#未命名的渐变_108" />
        <linearGradient id="未命名的渐变_149-4" x1="88.59" y1="75.81" x2="118.14" y2="75.81" xlink:href="#未命名的渐变_149" />
        <linearGradient id="未命名的渐变_205-4" x1="71.68" y1="79.43" x2="88.61" y2="79.43" xlink:href="#未命名的渐变_205" />
        <linearGradient id="未命名的渐变_225-4" x1="71.68" y1="67.96" x2="118.13" y2="67.96" xlink:href="#未命名的渐变_225" />
        <linearGradient id="未命名的渐变_65" x1="-322.83" y1="131.95" x2="-226.57" y2="35.69"
            gradientTransform="matrix(-1, 0, 0, 1, -214.97, 0)" gradientUnits="userSpaceOnUse">
            <stop offset="0" stop-color="#425266" />
            <stop offset="1" stop-color="#485970" />
        </linearGradient>
        <linearGradient id="未命名的渐变_107" x1="68.63" y1="128.82" x2="141.4" y2="56.05" gradientUnits="userSpaceOnUse">
            <stop offset="0" stop-color="#283140" />
            <stop offset="0.34" stop-color="#232b37" />
            <stop offset="0.9" stop-color="#15191f" />
            <stop offset="1" stop-color="#12161a" />
        </linearGradient>
        <radialGradient id="未命名的渐变_117" cx="75" cy="75" r="61.44" gradientUnits="userSpaceOnUse">
            <stop offset="0" stop-color="#00b5d9" stop-opacity="0" />
            <stop offset="1" stop-color="#00d9a3" stop-opacity="0.3" />
        </radialGradient>
    </defs>
    <title>机柜(柜门开)运行</title>
    <g class="cls-4">
        <g id="图层_2" data-name="图层 2">
            <g id="图元">
                <g id="机柜_柜门开_运行" data-name="机柜(柜门开)运行">
                    <g class="cls-5">
                        <rect class="cls-3" width="150" height="150" />
                        <rect id="网格" class="cls-6" width="150" height="150" />
                    </g>
                    <polygon class="cls-7" points="60.19 0 29.64 17.64 89.68 52.51 120.22 34.88 60.19 0" />
                    <path class="cls-8"
                        d="M60.19.58l59,34.3L89.68,51.94l-59-34.3L60.19.58m0-.58L29.64,17.64l60,34.87,30.54-17.63L60.19,0Z" />
                    <path class="cls-9" d="M89.68,52.52,89.81,150l30.55-17.63-.14-97.48Z" />
                    <path class="cls-10" d="M89.68,114.52,89.81,150l30.55-17.63Z" />
                    <g class="cls-4">
                        <polygon class="cls-11"
                            points="117.82 39.77 117.46 39.98 117.66 127.08 118.02 126.87 117.82 39.77" />
                        <polygon class="cls-12"
                            points="117.46 39.98 117.11 39.77 117.31 126.88 117.66 127.08 117.46 39.98" />
                        <polygon class="cls-13"
                            points="117.47 39.57 117.11 39.77 117.46 39.98 117.82 39.77 117.47 39.57" />
                    </g>
                    <g class="cls-4">
                        <polygon class="cls-14"
                            points="118.14 111.8 88.69 128.81 88.67 122.92 118.12 105.91 118.14 111.8" />
                        <polygon class="cls-15"
                            points="88.67 122.92 71.75 113.09 71.77 118.98 88.69 128.81 88.67 122.92" />
                        <polygon class="cls-16"
                            points="101.21 96.08 71.75 113.09 88.67 122.92 118.13 105.91 101.21 96.08" />
                    </g>
                    <g class="cls-17">
                        <polygon class="cls-3"
                            points="118.14 110.61 118.14 110.72 88.69 127.75 88.69 127.63 118.14 110.61" />
                    </g>
                    <g class="cls-17">
                        <polygon class="cls-3"
                            points="118.14 109.24 118.14 109.35 88.69 126.38 88.69 126.26 118.14 109.24" />
                    </g>
                    <path class="cls-18" d="M99.55,122.33l-.64.37v-.65l.64-.37Z" />
                    <g class="cls-19">
                        <path class="cls-18" d="M100.37,121.85l-.64.37v-.65l.64-.37Z" />
                    </g>
                    <g class="cls-19">
                        <path class="cls-18" d="M98.75,122.79l-.64.38v-.66l.64-.37Z" />
                    </g>
                    <path class="cls-18" d="M109.79,115.08l-.64.37v-.65l.64-.37Z" />
                    <g class="cls-19">
                        <path class="cls-18" d="M110.61,114.6,110,115v-.65l.64-.37Z" />
                    </g>
                    <g class="cls-19">
                        <path class="cls-18" d="M109,115.55l-.64.37v-.65l.64-.37Z" />
                    </g>
                    <polygon class="cls-20"
                        points="117.93 109.12 108.35 114.65 108.35 111.94 117.93 106.41 117.93 109.12" />
                    <polygon class="cls-3"
                        points="106.13 116.69 106.13 117.39 105.69 117.64 105.69 116.94 106.13 116.69" />
                    <path class="cls-21" d="M105.87,117l.16-.09v.4l-.24.14v-.32l.08-.05Zm0,.08v.24l.08,0V117Z" />
                    <polygon class="cls-3"
                        points="106.73 116.35 106.73 117.06 106.29 117.31 106.29 116.6 106.73 116.35" />
                    <path class="cls-21" d="M106.47,116.66l.16-.1v.4l-.24.14v-.32l.08,0Zm0,.08V117l.08,0v-.24Z" />
                    <polygon class="cls-3"
                        points="107.17 117.27 107.17 117.98 106.73 118.23 106.73 117.52 107.17 117.27" />
                    <path class="cls-21" d="M106.91,117.58l.16-.09v.4l-.24.13v-.32l.08,0Zm0,.08v.24l.08-.05v-.24Z" />
                    <polygon class="cls-3"
                        points="107.77 116.94 107.77 117.65 107.33 117.9 107.33 117.19 107.77 116.94" />
                    <path class="cls-21" d="M107.51,117.24l.16-.09v.4l-.24.14v-.32l.08-.05Zm0,.08v.24l.08,0v-.24Z" />
                    <polygon class="cls-3"
                        points="107.77 115.75 107.77 116.46 107.33 116.71 107.33 116 107.77 115.75" />
                    <path class="cls-21" d="M107.6,116l.08-.05v.4l-.08,0v-.08l-.16.09v-.32l.08,0v.24l.08,0Z" />
                    <polygon class="cls-3"
                        points="106.13 117.88 106.13 118.59 105.69 118.84 105.69 118.13 106.13 117.88" />
                    <path class="cls-21" d="M106,118.16l.08,0v.4l-.08,0v-.08l-.16.09v-.32l.08,0v.24l.08,0Z" />
                    <ellipse class="cls-22" cx="106.44" cy="118.26" rx="0.27" ry="0.19"
                        transform="translate(-52.05 132.24) rotate(-53.05)" />
                    <ellipse class="cls-18" cx="106.44" cy="118.26" rx="0.13" ry="0.07"
                        transform="translate(-52.05 132.24) rotate(-53.05)" />
                    <ellipse class="cls-23" cx="107.03" cy="116.76" rx="0.27" ry="0.19"
                        transform="translate(-50.62 132.11) rotate(-53.05)" />
                    <ellipse class="cls-18" cx="107.03" cy="116.76" rx="0.13" ry="0.07"
                        transform="translate(-50.62 132.11) rotate(-53.05)" />
                    <g class="cls-4">
                        <polygon class="cls-24"
                            points="118.14 103.8 88.69 120.81 88.67 114.92 118.12 97.91 118.14 103.8" />
                        <polygon class="cls-25"
                            points="88.67 114.92 71.75 105.09 71.77 110.98 88.69 120.81 88.67 114.92" />
                        <polygon class="cls-26"
                            points="101.21 88.08 71.75 105.09 88.67 114.92 118.13 97.91 101.21 88.08" />
                    </g>
                    <g class="cls-17">
                        <polygon class="cls-3"
                            points="118.14 102.61 118.14 102.72 88.69 119.75 88.69 119.63 118.14 102.61" />
                    </g>
                    <g class="cls-17">
                        <polygon class="cls-3"
                            points="118.14 101.24 118.14 101.35 88.69 118.38 88.69 118.26 118.14 101.24" />
                    </g>
                    <path class="cls-18" d="M99.55,114.33l-.64.37v-.65l.64-.37Z" />
                    <g class="cls-19">
                        <path class="cls-18" d="M100.37,113.85l-.64.37v-.65l.64-.37Z" />
                    </g>
                    <g class="cls-19">
                        <path class="cls-18" d="M98.75,114.79l-.64.38v-.66l.64-.37Z" />
                    </g>
                    <path class="cls-18" d="M109.79,107.08l-.64.37v-.65l.64-.37Z" />
                    <g class="cls-19">
                        <path class="cls-18" d="M110.61,106.6,110,107v-.65l.64-.37Z" />
                    </g>
                    <g class="cls-19">
                        <path class="cls-18" d="M109,107.55l-.64.37v-.65l.64-.37Z" />
                    </g>
                    <polygon class="cls-27"
                        points="117.93 101.12 108.35 106.65 108.35 103.94 117.93 98.41 117.93 101.12" />
                    <polygon class="cls-3"
                        points="106.13 108.69 106.13 109.39 105.69 109.64 105.69 108.94 106.13 108.69" />
                    <path class="cls-21" d="M105.87,109l.16-.09v.4l-.24.14v-.32l.08-.05Zm0,.08v.24l.08,0V109Z" />
                    <polygon class="cls-3"
                        points="106.73 108.35 106.73 109.06 106.29 109.31 106.29 108.6 106.73 108.35" />
                    <path class="cls-21" d="M106.47,108.66l.16-.1v.4l-.24.14v-.32l.08,0Zm0,.08V109l.08,0v-.24Z" />
                    <polygon class="cls-3"
                        points="107.17 109.27 107.17 109.98 106.73 110.23 106.73 109.52 107.17 109.27" />
                    <path class="cls-21" d="M106.91,109.58l.16-.09v.4l-.24.13v-.32l.08,0Zm0,.08v.24l.08-.05v-.24Z" />
                    <polygon class="cls-3"
                        points="107.77 108.94 107.77 109.65 107.33 109.9 107.33 109.19 107.77 108.94" />
                    <path class="cls-21" d="M107.51,109.24l.16-.09v.4l-.24.14v-.32l.08-.05Zm0,.08v.24l.08,0v-.24Z" />
                    <polygon class="cls-3"
                        points="107.77 107.75 107.77 108.46 107.33 108.71 107.33 108 107.77 107.75" />
                    <path class="cls-21" d="M107.6,108l.08-.05v.4l-.08,0v-.08l-.16.09v-.32l.08,0v.24l.08,0Z" />
                    <polygon class="cls-3"
                        points="106.13 109.88 106.13 110.59 105.69 110.84 105.69 110.13 106.13 109.88" />
                    <path class="cls-21" d="M106,110.16l.08,0v.4l-.08,0v-.08l-.16.09v-.32l.08,0v.24l.08,0Z" />
                    <ellipse class="cls-28" cx="106.44" cy="110.26" rx="0.27" ry="0.19"
                        transform="translate(-45.65 129.04) rotate(-53.05)" />
                    <ellipse class="cls-18" cx="106.44" cy="110.26" rx="0.13" ry="0.07"
                        transform="translate(-45.65 129.04) rotate(-53.05)" />
                    <ellipse class="cls-29" cx="107.03" cy="108.76" rx="0.27" ry="0.19"
                        transform="translate(-44.23 128.92) rotate(-53.05)" />
                    <ellipse class="cls-18" cx="107.03" cy="108.76" rx="0.13" ry="0.07"
                        transform="translate(-44.23 128.92) rotate(-53.05)" />
                    <g class="cls-4">
                        <polyline class="cls-30" points="118.12 64.34 118.14 70.23 88.61 87.29 88.59 81.4" />
                        <polygon
                            points="118.14 69.26 118.14 70.23 111.72 73.94 111.71 71.47 118.13 67.76 118.14 69.26" />
                        <polygon class="cls-31" points="88.59 81.4 71.68 71.57 71.69 77.45 88.61 87.28 88.59 81.4" />
                        <polygon class="cls-32"
                            points="101.21 54.51 71.68 71.57 88.59 81.4 118.13 64.34 101.21 54.51" />
                    </g>
                    <polygon points="94.14 79.38 94.61 79.11 94.61 79.66 94.14 79.93 94.14 79.38" />
                    <polygon points="94.71 79.05 95.34 78.69 95.34 79.24 94.71 79.6 94.71 79.05" />
                    <polygon points="96.07 78.26 96.07 78.82 95.44 79.18 95.44 78.63 96.07 78.26" />
                    <polygon points="96.8 77.84 96.8 78.39 96.17 78.76 96.17 78.21 96.8 77.84" />
                    <polygon points="97.53 77.42 97.53 77.97 96.9 78.34 96.9 77.78 97.53 77.42" />
                    <polygon points="98.26 77 98.26 77.55 97.63 77.92 97.63 77.36 98.26 77" />
                    <polygon points="98.99 76.57 98.99 77.13 98.36 77.49 98.36 76.94 98.99 76.57" />
                    <polygon points="99.44 76.87 99.09 77.07 99.09 76.52 99.43 76.32 99.44 76.87" />
                    <polygon points="94.14 80.5 94.61 80.23 94.61 80.78 94.14 81.05 94.14 80.5" />
                    <polygon points="95.34 79.81 95.34 80.36 94.71 80.72 94.71 80.17 95.34 79.81" />
                    <polygon points="95.44 79.75 96.07 79.38 96.07 79.94 95.44 80.3 95.44 79.75" />
                    <polygon points="96.17 79.33 96.8 78.96 96.8 79.52 96.17 79.88 96.17 79.33" />
                    <polygon points="96.9 78.9 97.53 78.54 97.53 79.1 96.9 79.46 96.9 78.9" />
                    <polygon points="98.26 78.12 98.26 78.68 97.63 79.04 97.63 78.48 98.26 78.12" />
                    <polygon points="98.99 77.69 98.99 78.26 98.36 78.62 98.36 78.06 98.99 77.69" />
                    <polygon points="99.44 78 99.09 78.2 99.09 77.64 99.43 77.44 99.44 78" />
                    <polygon points="94.14 81.62 94.61 81.35 94.61 81.91 94.14 82.18 94.14 81.62" />
                    <polygon points="95.34 80.93 95.34 81.49 94.71 81.85 94.71 81.29 95.34 80.93" />
                    <polygon points="96.07 80.51 96.07 81.07 95.44 81.43 95.44 80.87 96.07 80.51" />
                    <polygon points="96.8 80.09 96.8 80.64 96.17 81.01 96.17 80.45 96.8 80.09" />
                    <polygon points="96.9 80.03 97.53 79.67 97.53 80.22 96.9 80.59 96.9 80.03" />
                    <polygon points="97.63 79.61 98.26 79.24 98.26 79.8 97.63 80.17 97.63 79.61" />
                    <polygon points="98.99 78.82 98.99 79.38 98.36 79.74 98.36 79.19 98.99 78.82" />
                    <polygon points="99.44 79.12 99.09 79.32 99.09 78.77 99.43 78.57 99.44 79.12" />
                    <polygon points="89.91 81.83 90.38 81.56 90.38 82.11 89.91 82.38 89.91 81.83" />
                    <polygon points="90.47 81.5 91.11 81.14 91.11 81.69 90.47 82.05 90.47 81.5" />
                    <polygon points="91.83 80.7 91.83 81.27 91.2 81.63 91.2 81.08 91.83 80.7" />
                    <polygon points="92.56 80.28 92.56 80.83 91.94 81.2 91.94 80.66 92.56 80.28" />
                    <polygon points="93.3 79.86 93.3 80.42 92.67 80.78 92.67 80.22 93.3 79.86" />
                    <polygon points="94.03 79.44 94.03 80 93.39 80.36 93.39 79.81 94.03 79.44" />
                    <polygon points="89.91 82.94 90.38 82.67 90.38 83.22 89.91 83.5 89.91 82.94" />
                    <polygon points="91.11 82.25 91.11 82.81 90.47 83.17 90.47 82.61 91.11 82.25" />
                    <polygon points="91.2 82.19 91.83 81.83 91.83 82.39 91.2 82.75 91.2 82.19" />
                    <polygon points="91.94 81.78 92.56 81.41 92.56 81.97 91.94 82.33 91.94 81.78" />
                    <polygon points="92.67 81.34 93.3 80.98 93.3 81.55 92.67 81.91 92.67 81.34" />
                    <polygon points="94.03 80.56 94.03 81.13 93.39 81.48 93.39 80.92 94.03 80.56" />
                    <polygon points="89.91 84.06 90.38 83.8 90.38 84.36 89.91 84.63 89.91 84.06" />
                    <polygon points="91.11 83.38 91.11 83.94 90.47 84.3 90.47 83.73 91.11 83.38" />
                    <polygon points="91.83 82.95 91.83 83.52 91.2 83.88 91.2 83.31 91.83 82.95" />
                    <polygon points="92.56 82.53 92.56 83.08 91.94 83.45 91.94 82.89 92.56 82.53" />
                    <polygon points="92.67 82.47 93.3 82.11 93.3 82.67 92.67 83.03 92.67 82.47" />
                    <polygon points="93.39 82.06 94.03 81.69 94.03 82.25 93.39 82.61 93.39 82.06" />
                    <polygon points="105.92 72.65 106.55 72.29 106.55 72.84 105.92 73.2 105.92 72.65" />
                    <polygon points="107.28 71.86 107.28 72.42 106.65 72.78 106.65 72.23 107.28 71.86" />
                    <polygon points="108.01 71.44 108.01 71.99 107.38 72.36 107.38 71.81 108.01 71.44" />
                    <polygon points="108.74 71.02 108.74 71.57 108.11 71.94 108.11 71.38 108.74 71.02" />
                    <polygon points="109.47 70.6 109.47 71.15 108.84 71.52 108.84 70.96 109.47 70.6" />
                    <polygon points="110.2 70.17 110.2 70.73 109.57 71.09 109.57 70.54 110.2 70.17" />
                    <polygon points="110.65 70.47 110.3 70.67 110.3 70.12 110.64 69.92 110.65 70.47" />
                    <polygon points="106.55 73.41 106.55 73.96 105.92 74.32 105.92 73.77 106.55 73.41" />
                    <polygon points="106.65 73.35 107.28 72.98 107.28 73.54 106.65 73.9 106.65 73.35" />
                    <polygon points="107.38 72.93 108.01 72.56 108.01 73.12 107.38 73.48 107.38 72.93" />
                    <polygon points="108.11 72.5 108.74 72.14 108.74 72.7 108.11 73.06 108.11 72.5" />
                    <polygon points="109.47 71.72 109.47 72.28 108.84 72.64 108.84 72.08 109.47 71.72" />
                    <polygon points="110.2 71.29 110.2 71.86 109.57 72.22 109.57 71.66 110.2 71.29" />
                    <polygon points="110.65 71.6 110.3 71.8 110.3 71.24 110.64 71.04 110.65 71.6" />
                    <polygon points="106.55 74.53 106.55 75.09 105.92 75.45 105.92 74.89 106.55 74.53" />
                    <polygon points="107.28 74.11 107.28 74.67 106.65 75.03 106.65 74.47 107.28 74.11" />
                    <polygon points="108.01 73.69 108.01 74.24 107.38 74.61 107.38 74.05 108.01 73.69" />
                    <polygon points="103.72 73.91 104.35 73.55 104.35 74.1 103.72 74.46 103.72 73.91" />
                    <polygon points="105.08 73.12 105.08 73.68 104.45 74.04 104.45 73.49 105.08 73.12" />
                    <polygon points="105.81 72.7 105.81 73.25 105.18 73.62 105.18 73.07 105.81 72.7" />
                    <polygon points="104.35 74.67 104.35 75.22 103.72 75.58 103.72 75.03 104.35 74.67" />
                    <polygon points="104.45 74.61 105.08 74.24 105.08 74.8 104.45 75.16 104.45 74.61" />
                    <polygon points="105.18 74.19 105.81 73.82 105.81 74.38 105.18 74.74 105.18 74.19" />
                    <polygon points="104.35 75.79 104.35 76.35 103.72 76.71 103.72 76.15 104.35 75.79" />
                    <polygon points="105.08 75.37 105.08 75.93 104.45 76.29 104.45 75.73 105.08 75.37" />
                    <polygon points="105.81 74.95 105.81 75.5 105.18 75.87 105.18 75.31 105.81 74.95" />
                    <polygon points="108.11 73.63 108.74 73.27 108.74 73.82 108.11 74.19 108.11 73.63" />
                    <polygon points="108.84 73.21 109.47 72.84 109.47 73.4 108.84 73.77 108.84 73.21" />
                    <polygon points="110.2 72.42 110.2 72.98 109.57 73.34 109.57 72.79 110.2 72.42" />
                    <polygon points="110.65 72.72 110.3 72.92 110.3 72.37 110.64 72.17 110.65 72.72" />
                    <polygon points="112.25 69 112.72 68.73 112.72 69.28 112.25 69.55 112.25 69" />
                    <polygon points="112.82 68.67 113.45 68.31 113.45 68.86 112.82 69.22 112.82 68.67" />
                    <polygon points="114.18 67.88 114.18 68.44 113.55 68.8 113.55 68.25 114.18 67.88" />
                    <polygon points="114.91 67.46 114.91 68.01 114.28 68.38 114.28 67.83 114.91 67.46" />
                    <polygon points="116.37 66.62 116.37 67.17 115.74 67.54 115.74 66.98 116.37 66.62" />
                    <polygon points="117.1 66.19 117.1 66.75 116.47 67.11 116.47 66.56 117.1 66.19" />
                    <polygon points="117.55 66.49 117.2 66.69 117.2 66.14 117.54 65.94 117.55 66.49" />
                    <polygon points="112.25 70.12 112.72 69.85 112.72 70.4 112.25 70.67 112.25 70.12" />
                    <polygon points="113.45 69.43 113.45 69.98 112.82 70.34 112.82 69.79 113.45 69.43" />
                    <polygon points="113.55 69.37 114.18 69 114.18 69.56 113.55 69.92 113.55 69.37" />
                    <polygon points="114.28 68.95 114.91 68.58 114.91 69.14 114.28 69.5 114.28 68.95" />
                    <polygon points="116.37 67.74 116.37 68.3 115.74 68.66 115.74 68.1 116.37 67.74" />
                    <polygon points="117.1 67.31 117.1 67.88 116.47 68.24 116.47 67.68 117.1 67.31" />
                    <polygon points="117.55 67.62 117.2 67.82 117.2 67.26 117.54 67.06 117.55 67.62" />
                    <g class="cls-17">
                        <polygon class="cls-3"
                            points="100.84 74.33 100.84 79.1 100.74 79.15 100.74 74.39 100.84 74.33" />
                    </g>
                    <g class="cls-17">
                        <polygon class="cls-3"
                            points="103.09 73.03 103.09 77.81 102.99 77.86 102.99 73.09 103.09 73.03" />
                    </g>
                    <g class="cls-17">
                        <polygon class="cls-3"
                            points="111.21 68.33 111.21 73.1 111.11 73.14 111.11 68.39 111.21 68.33" />
                    </g>
                    <g class="cls-17">
                        <polygon class="cls-3"
                            points="111.71 68.04 111.71 72.81 111.61 72.85 111.61 68.1 111.71 68.04" />
                    </g>
                    <g class="cls-17">
                        <polygon class="cls-3"
                            points="118.14 69.11 118.14 69.22 88.61 86.28 88.61 86.16 118.14 69.11" />
                    </g>
                    <path class="cls-18" d="M91.36,85.52l-.65.37v-.65l.65-.38Z" />
                    <g class="cls-33">
                        <path class="cls-18" d="M93,84.57l-.64.37v-.65l.64-.37Z" />
                    </g>
                    <g class="cls-19">
                        <path class="cls-18" d="M92.18,85l-.64.37v-.65l.64-.37Z" />
                    </g>
                    <g class="cls-19">
                        <path class="cls-18" d="M90.55,86l-.64.37V85.7l.64-.37Z" />
                    </g>
                    <path class="cls-18" d="M105.16,77.51l-.64.37v-.66l.64-.37Z" />
                    <g class="cls-33">
                        <path class="cls-18" d="M106.79,76.56l-.65.37v-.65l.65-.37Z" />
                    </g>
                    <g class="cls-19">
                        <path class="cls-18" d="M106,77l-.64.37v-.65l.64-.37Z" />
                    </g>
                    <g class="cls-19">
                        <path class="cls-18" d="M104.36,78l-.64.37v-.65l.64-.37Z" />
                    </g>
                    <path class="cls-18" d="M115.12,71.62l-.94.55v-1l.94-.55Z" />
                    <g class="cls-33">
                        <path class="cls-18" d="M117.51,70.23l-1,.55v-1l1-.55Z" />
                    </g>
                    <g class="cls-19">
                        <path class="cls-18" d="M116.33,70.92l-.94.54v-1l.94-.54Z" />
                    </g>
                    <g class="cls-19">
                        <path class="cls-18" d="M113.94,72.31l-.94.54v-1l.94-.54Z" />
                    </g>
                    <polygon class="cls-34"
                        points="29.65 17.64 29.65 20.15 29.77 115.11 89.81 149.99 89.68 55.03 89.68 52.52 89.67 52.52 29.65 17.64" />
                    <polygon class="cls-35"
                        points="89.67 52.52 89.68 52.52 89.68 55.03 89.68 55.03 89.68 55.02 29.65 20.15 29.65 17.64 89.67 52.52" />
                    <path class="cls-36"
                        d="M120.22,34.88,89.68,52.52,89.81,150l30.55-17.63ZM90.8,148.26l-.12-95.17,28.55-16.48.12,95.17Z" />
                    <polygon class="cls-37"
                        points="30.27 114.83 30.15 17.92 60.19 0.58 119.72 35.17 119.86 132.07 89.81 149.41 30.27 114.83" />
                    <path class="cls-38"
                        d="M60.19,1.16l59,34.29.12,96.33L89.81,148.84l-59-34.3-.12-94.39V18.21l29.54-17m0-1.16L29.64,17.64h0v2.51l.12,95,60,34.88h0l30.55-17.63-.14-97.48h0L60.19,0Z" />

                </g>
            </g>
        </g>
    </g>
</svg>