<svg xmlns="http://www.w3.org/2000/svg" xmlns:xlink="http://www.w3.org/1999/xlink" viewBox="0 0 150 150">
    <defs>
        <style>
            .cls-1,
            .cls-2 {
                fill: none;
            }

            .cls-2 {
                stroke: #fff;
                stroke-miterlimit: 10;
                stroke-width: 0.1px;
            }

            .cls-3 {
                opacity: 0;
            }

            .cls-4 {
                fill: #000714;
            }

            .cls-5 {
                opacity: 0.1;
                fill: url(#新建图案);
            }

            .cls-6 {
                isolation: isolate;
            }

            .cls-7 {
                fill: url(#未命名的渐变_140);
            }

            .cls-8 {
                fill: url(#未命名的渐变_42);
            }

            .cls-9 {
                fill: url(#未命名的渐变_54);
            }

            .cls-10 {
                fill: url(#未命名的渐变_59);
            }

            .cls-11 {
                fill: url(#未命名的渐变_56);
            }

            .cls-12 {
                fill: url(#未命名的渐变_132);
            }

            .cls-13 {
                fill: url(#未命名的渐变_123);
            }

            .cls-14 {
                mix-blend-mode: overlay;
            }

            .cls-15 {
                fill: url(#未命名的渐变_132-2);
            }

            .cls-16 {
                fill: url(#未命名的渐变_123-2);
            }

            .cls-17 {
                fill: url(#未命名的渐变_132-3);
            }

            .cls-18 {
                fill: url(#未命名的渐变_123-3);
            }

            .cls-19 {
                opacity: 0.5;
            }

            .cls-20 {
                opacity: 0.45;
            }

            .cls-21 {
                fill: #99beff;
            }

            .cls-22 {
                fill: #262e39;
            }

            .cls-23 {
                fill: #99bfff;
            }

            .cls-24 {
                fill: url(#未命名的渐变_66);
            }

            .cls-25 {
                fill: url(#未命名的渐变_18);
            }

            .cls-26 {
                fill: #08121b;
            }

            .cls-27 {
                opacity: 0.15;
            }

            .cls-28 {
                fill: #15b8d9;
            }

            .cls-29 {
                fill: #19d9ff;
            }

            .cls-30 {
                opacity: 0.2;
            }
        </style>
        <pattern id="新建图案" data-name="新建图案" width="18.57" height="32.16" patternTransform="translate(1335.47 774.08)"
            patternUnits="userSpaceOnUse" viewBox="0 0 18.57 32.16">
            <rect class="cls-1" width="18.57" height="32.16" />
            <polyline class="cls-2" points="18.57 21.44 18.57 32.16 18.57 42.88" />
            <polyline class="cls-2" points="9.29 26.8 18.57 32.16 27.85 37.51 27.85 37.52" />
            <polyline class="cls-2" points="9.29 37.52 9.29 37.51 18.57 32.16 27.85 26.8" />
            <polygon class="cls-2"
                points="27.85 37.52 27.85 26.8 18.57 21.44 9.28 26.8 9.28 37.52 18.57 42.88 27.85 37.52" />
            <polyline class="cls-2" points="0 21.44 0 32.16 0 42.88" />
            <polyline class="cls-2" points="-9.28 26.8 0 32.16 9.28 37.51 9.28 37.52" />
            <polyline class="cls-2" points="-9.28 37.52 -9.28 37.51 0 32.16 9.28 26.8" />
            <polygon class="cls-2" points="9.28 37.52 9.28 26.8 0 21.44 -9.29 26.8 -9.29 37.52 0 42.88 9.28 37.52" />
            <polyline class="cls-2" points="18.57 10.72 27.85 16.08 37.13 21.43 37.13 21.44" />
            <polyline class="cls-2" points="18.57 21.44 18.57 21.43 27.85 16.08 37.13 10.72" />
            <polygon class="cls-2"
                points="37.14 21.44 37.14 10.72 27.85 5.36 18.57 10.72 18.57 21.44 27.85 26.8 37.14 21.44" />
            <polyline class="cls-2" points="9.29 5.36 9.29 16.08 9.29 26.8" />
            <polyline class="cls-2" points="0.01 10.72 9.29 16.08 18.57 21.43 18.57 21.44" />
            <polyline class="cls-2" points="0.01 21.44 0.01 21.43 9.29 16.08 18.57 10.72" />
            <polygon class="cls-2" points="18.57 21.44 18.57 10.72 9.28 5.36 0 10.72 0 21.44 9.28 26.8 18.57 21.44" />
            <polyline class="cls-2" points="-18.56 10.72 -9.28 16.08 0 21.43 0 21.44" />
            <polyline class="cls-2" points="-18.56 21.44 -18.56 21.43 -9.28 16.08 0 10.72" />
            <polygon class="cls-2" points="0 21.44 0 10.72 -9.29 5.36 -18.57 10.72 -18.57 21.44 -9.29 26.8 0 21.44" />
            <polyline class="cls-2" points="18.57 -10.72 18.57 0 18.57 10.72" />
            <polyline class="cls-2" points="9.29 -5.36 18.57 0 27.85 5.35 27.85 5.36" />
            <polyline class="cls-2" points="9.29 5.36 9.29 5.35 18.57 0 27.85 -5.36" />
            <polygon class="cls-2"
                points="27.85 5.36 27.85 -5.36 18.57 -10.72 9.28 -5.36 9.28 5.36 18.57 10.72 27.85 5.36" />
            <polyline class="cls-2" points="0 -10.72 0 0 0 10.72" />
            <polyline class="cls-2" points="-9.28 -5.36 0 0 9.28 5.35 9.28 5.36" />
            <polyline class="cls-2" points="-9.28 5.36 -9.28 5.35 0 0 9.28 -5.36" />
            <polygon class="cls-2" points="9.28 5.36 9.28 -5.36 0 -10.72 -9.29 -5.36 -9.29 5.36 0 10.72 9.28 5.36" />
        </pattern>
        <linearGradient id="未命名的渐变_140" x1="22.34" y1="30.37" x2="127.41" y2="30.37" gradientUnits="userSpaceOnUse">
            <stop offset="0" stop-color="#89abe6" />
            <stop offset="1" stop-color="#547099" />
        </linearGradient>
        <linearGradient id="未命名的渐变_42" x1="22.34" y1="30.37" x2="127.41" y2="30.37" gradientUnits="userSpaceOnUse">
            <stop offset="0" stop-color="#99beff" />
            <stop offset="0.02" stop-color="#99beff" stop-opacity="0.93" />
            <stop offset="0.09" stop-color="#99beff" stop-opacity="0.74" />
            <stop offset="0.17" stop-color="#99beff" stop-opacity="0.56" />
            <stop offset="0.25" stop-color="#99beff" stop-opacity="0.41" />
            <stop offset="0.33" stop-color="#99beff" stop-opacity="0.28" />
            <stop offset="0.43" stop-color="#99beff" stop-opacity="0.18" />
            <stop offset="0.53" stop-color="#99beff" stop-opacity="0.1" />
            <stop offset="0.64" stop-color="#99beff" stop-opacity="0.04" />
            <stop offset="0.77" stop-color="#99beff" stop-opacity="0.01" />
            <stop offset="1" stop-color="#99beff" stop-opacity="0" />
        </linearGradient>
        <linearGradient id="未命名的渐变_54" x1="64.7" y1="130.07" x2="2.41" y2="67.78" gradientUnits="userSpaceOnUse">
            <stop offset="0" stop-color="#425266" />
            <stop offset="1" stop-color="#596b8c" />
        </linearGradient>
        <linearGradient id="未命名的渐变_59" x1="32.27" y1="137.5" x2="142.14" y2="27.62" gradientUnits="userSpaceOnUse">
            <stop offset="0" stop-color="#283140" />
            <stop offset="0.34" stop-color="#232b37" />
            <stop offset="0.9" stop-color="#15191f" />
            <stop offset="1" stop-color="#12161a" />
        </linearGradient>
        <linearGradient id="未命名的渐变_56" x1="38.13" y1="132.91" x2="132.1" y2="38.94" gradientUnits="userSpaceOnUse">
            <stop offset="0" stop-color="#414d66" />
            <stop offset="1" stop-color="#1d242d" />
        </linearGradient>
        <linearGradient id="未命名的渐变_132" x1="-629.89" y1="82.12" x2="-628.07" y2="82.12"
            gradientTransform="translate(742.99)" gradientUnits="userSpaceOnUse">
            <stop offset="0" stop-color="#00a874" />
            <stop offset="1" stop-color="#00a874" />
        </linearGradient>
        <linearGradient id="未命名的渐变_123" x1="114.46" y1="82.9" x2="113.55" y2="81.33" gradientUnits="userSpaceOnUse">
            <stop offset="0" stop-color="#00a874" />
            <stop offset="0.12" stop-color="#08b680" />
            <stop offset="0.51" stop-color="#1fdea0" />
            <stop offset="0.81" stop-color="#2ef6b4" />
            <stop offset="1" stop-color="#3fb" />
        </linearGradient>
        <linearGradient id="未命名的渐变_132-2" x1="-629.89" y1="86.34" x2="-628.07" y2="86.34" xlink:href="#未命名的渐变_132" />
        <linearGradient id="未命名的渐变_123-2" x1="114.46" y1="87.13" x2="113.55" y2="85.55" xlink:href="#未命名的渐变_123" />
        <linearGradient id="未命名的渐变_132-3" x1="-629.89" y1="90.56" x2="-628.07" y2="90.56" xlink:href="#未命名的渐变_132" />
        <linearGradient id="未命名的渐变_123-3" x1="114.46" y1="91.35" x2="113.55" y2="89.78" xlink:href="#未命名的渐变_123" />
        <linearGradient id="未命名的渐变_66" x1="83.38" y1="67.26" x2="114.01" y2="67.26" gradientUnits="userSpaceOnUse">
            <stop offset="0" stop-color="#435368" />
            <stop offset="0.31" stop-color="#3e4c5f" />
            <stop offset="0.81" stop-color="#2f3947" />
            <stop offset="1" stop-color="#28313c" />
        </linearGradient>
        <linearGradient id="未命名的渐变_18" x1="107.12" y1="75.7" x2="90.26" y2="58.83" gradientUnits="userSpaceOnUse">
            <stop offset="0" stop-color="#fff" />
            <stop offset="0.02" stop-color="#fff" stop-opacity="0.93" />
            <stop offset="0.09" stop-color="#fff" stop-opacity="0.74" />
            <stop offset="0.17" stop-color="#fff" stop-opacity="0.56" />
            <stop offset="0.25" stop-color="#fff" stop-opacity="0.41" />
            <stop offset="0.33" stop-color="#fff" stop-opacity="0.28" />
            <stop offset="0.43" stop-color="#fff" stop-opacity="0.18" />
            <stop offset="0.53" stop-color="#fff" stop-opacity="0.1" />
            <stop offset="0.64" stop-color="#fff" stop-opacity="0.04" />
            <stop offset="0.77" stop-color="#fff" stop-opacity="0.01" />
            <stop offset="1" stop-color="#fff" stop-opacity="0" />
        </linearGradient>
    </defs>
    <title>水浸</title>
    <g id="图层_2" data-name="图层 2">
        <g id="图元">
            <g id="水浸">
                <g class="cls-3">
                    <rect class="cls-4" width="150" height="150" />
                    <rect id="网格" class="cls-5" width="150" height="150" />
                </g>
                <g class="cls-6">
                    <path class="cls-7"
                        d="M105.23,0l22.18,12.89c0,.57-.27,11.33-31.8,29.53S45.5,60.74,44.52,60.74L22.34,47.85Z" />
                    <path class="cls-8"
                        d="M105.22.87l21.4,12.43c-.15,1-.84,3.45-3.88,7.28-3.57,4.48-11.24,11.8-27.5,21.19C65.61,58.88,47.52,59.94,44.72,60L23.84,47.86l81.38-47m0-.87L22.34,47.85,44.52,60.74c1,0,19.57-.12,51.09-18.32s31.78-29,31.8-29.53L105.23,0Z" />
                    <polygon class="cls-9"
                        points="44.78 150 42.72 148.8 42.52 148.69 42.47 148.66 42.28 148.55 25.07 138.55 24.82 138.41 24.58 138.27 22.59 137.11 22.34 47.85 26.2 50.09 26.45 50.24 26.69 50.38 44.52 60.74 44.78 150" />
                    <path class="cls-10"
                        d="M95.61,42.42c31.53-18.2,31.78-29,31.8-29.53l.25,89.26c0,.56-.27,11.33-31.79,29.53S45.75,150,44.77,150l-.25-89.26C45.5,60.74,64.09,60.62,95.61,42.42Z" />
                    <path class="cls-11"
                        d="M49.51,65.34c8.09-1,24.79-4.86,48.59-18.61,11.56-6.67,19.26-12.5,24.38-17.41l.2,72.64c-.16.78-2.59,10-29.3,25.41-21.19,12.23-36.31,16-43.65,17.14Z" />
                    <path class="cls-12"
                        d="M114,81.07a2,2,0,0,0-.9,1.57c0,.58.41.82.91.53a2,2,0,0,0,.91-1.58C114.92,81,114.51,80.78,114,81.07Z" />
                    <path class="cls-13"
                        d="M114.41,81c.26,0,.41.21.41.55a1.89,1.89,0,0,1-.86,1.49.78.78,0,0,1-.36.11c-.25,0-.4-.2-.4-.55a1.87,1.87,0,0,1,.85-1.48.7.7,0,0,1,.36-.12m0-.1a.81.81,0,0,0-.41.13,2,2,0,0,0-.9,1.57c0,.41.2.65.5.65a.86.86,0,0,0,.41-.12,2,2,0,0,0,.91-1.58c0-.41-.21-.65-.51-.65Z" />
                    <g class="cls-14">
                        <path class="cls-15"
                            d="M114,85.29a2,2,0,0,0-.9,1.58c0,.57.41.81.91.52a2,2,0,0,0,.91-1.58C114.92,85.24,114.51,85,114,85.29Z" />
                        <path class="cls-16"
                            d="M114.41,85.27c.26,0,.41.2.41.54A1.88,1.88,0,0,1,114,87.3a.78.78,0,0,1-.36.11c-.25,0-.4-.2-.4-.54a1.87,1.87,0,0,1,.85-1.49.78.78,0,0,1,.36-.11m0-.1a.9.9,0,0,0-.41.12,2,2,0,0,0-.9,1.58c0,.41.2.64.5.64a.86.86,0,0,0,.41-.12,2,2,0,0,0,.91-1.58c0-.41-.21-.64-.51-.64Z" />
                    </g>
                    <g class="cls-14">
                        <path class="cls-17"
                            d="M114,89.52a2,2,0,0,0-.9,1.57c0,.58.41.81.91.52a2,2,0,0,0,.91-1.57C114.92,89.46,114.51,89.23,114,89.52Z" />
                        <path class="cls-18"
                            d="M114.41,89.49c.26,0,.41.2.41.55a1.88,1.88,0,0,1-.86,1.48.7.7,0,0,1-.36.12c-.25,0-.4-.21-.4-.55a1.88,1.88,0,0,1,.85-1.49.78.78,0,0,1,.36-.11m0-.1a.81.81,0,0,0-.41.13,2,2,0,0,0-.9,1.57c0,.41.2.65.5.65a.78.78,0,0,0,.41-.13,2,2,0,0,0,.91-1.57c0-.41-.21-.65-.51-.65Z" />
                    </g>
                    <g class="cls-19">
                        <g class="cls-20">
                            <polygon class="cls-21"
                                points="26.69 50.33 26.69 66.88 25.07 67.84 25.07 138.55 24.82 138.41 24.82 67.7 26.45 66.74 26.45 50.18 26.69 50.33" />
                        </g>
                        <polygon class="cls-22"
                            points="26.45 50.18 26.45 66.88 24.82 67.84 24.82 138.41 24.58 138.27 24.58 67.7 26.2 66.74 26.2 50.05 26.45 50.18" />
                    </g>
                    <g class="cls-19">
                        <g class="cls-20">
                            <polygon class="cls-23"
                                points="42.52 76.55 42.52 148.69 42.47 148.66 42.28 148.55 42.28 76.69 40.65 75.73 40.65 58.59 40.67 58.59 40.85 58.69 40.9 58.72 40.9 75.59 42.52 76.55" />
                        </g>
                        <polygon class="cls-22"
                            points="42.72 76.55 42.72 148.8 42.52 148.69 42.47 148.66 42.47 76.69 40.85 75.73 40.85 58.69 40.9 58.72 41.09 58.84 41.09 75.59 42.72 76.55" />
                    </g>
                    <path class="cls-24"
                        d="M114,67.68A3.18,3.18,0,0,1,112.8,70,158,158,0,0,1,98.73,79.1a131.16,131.16,0,0,1-14.08,7.14.89.89,0,0,1-.81,0,1,1,0,0,1-.41-.92V83.18l0-16.32a3.07,3.07,0,0,1,1.4-2.44,1.51,1.51,0,0,1,.18-.09,132.56,132.56,0,0,0,13.7-7c4.38-2.53,8.3-5,11.78-7.48l1.5-1,.42-.31.19-.12a1,1,0,0,1,1-.1,1,1,0,0,1,.41.91Z" />
                    <g class="cls-14">
                        <path class="cls-25"
                            d="M113.17,48.29a.73.73,0,0,1,.33.08.93.93,0,0,1,.36.83l0,18.48a3.09,3.09,0,0,1-1.17,2.23A159.43,159.43,0,0,1,98.68,79a133.69,133.69,0,0,1-14.07,7.14,1.09,1.09,0,0,1-.41.09.65.65,0,0,1-.31-.08.93.93,0,0,1-.36-.83V83.18l0-16.32a2.94,2.94,0,0,1,1.34-2.35l.07,0a.28.28,0,0,1,.11,0,132.4,132.4,0,0,0,13.71-7C102.9,55,106.86,52.5,110.49,50c.68-.46,1.32-.92,1.93-1.36l.18-.12a1.11,1.11,0,0,1,.57-.18m0-.1a1.16,1.16,0,0,0-.62.2l-.19.12c-.62.45-1.26.91-1.92,1.36-3.48,2.44-7.4,5-11.78,7.48a132.56,132.56,0,0,1-13.7,7,1.51,1.51,0,0,0-.18.09,3.07,3.07,0,0,0-1.4,2.44l0,16.32v2.15a1,1,0,0,0,.41.92.74.74,0,0,0,.36.09,1.12,1.12,0,0,0,.45-.1A131.16,131.16,0,0,0,98.73,79.1,158,158,0,0,0,112.8,70,3.18,3.18,0,0,0,114,67.68L114,49.2a1,1,0,0,0-.41-.91.7.7,0,0,0-.38-.1Z" />
                    </g>
                    <path class="cls-26"
                        d="M112,65.63a4.71,4.71,0,0,1-1.82,3.53A162,162,0,0,1,96,78.35c-4.15,2.4-8.15,4.48-11.91,6.2l-.61.28V83.18l0-16.32a3.07,3.07,0,0,1,1.4-2.44,1.51,1.51,0,0,1,.18-.09,132.56,132.56,0,0,0,13.7-7c4.38-2.53,8.3-5,11.78-7.48l1.5-1Z" />
                    <g class="cls-27">
                        <polygon class="cls-28"
                            points="101.41 63.24 101.41 64.11 102.19 63.67 102.19 66.33 101.42 66.78 101.41 64.11 100.65 64.56 100.66 68.11 102.96 66.78 102.95 62.35 101.41 63.24" />
                        <polygon class="cls-28"
                            points="104.5 61.45 104.51 62.33 105.27 61.89 105.28 64.55 104.51 64.99 104.51 62.33 103.73 62.78 103.74 66.33 106.06 65 106.05 60.56 104.5 61.45" />
                        <polygon class="cls-28"
                            points="109.13 58.78 106.82 60.11 106.83 60.99 108.37 60.1 108.37 60.99 109.13 60.55 109.13 58.78" />
                        <polygon class="cls-28"
                            points="107.59 61.44 107.6 64.11 108.38 63.66 108.37 60.99 107.59 61.44" />
                    </g>
                    <g class="cls-27">
                        <polygon class="cls-28"
                            points="90.42 69.76 90.42 70.64 91.2 70.19 91.2 72.86 90.43 73.3 90.42 70.64 89.65 71.08 89.67 74.64 91.97 73.31 91.96 68.87 90.42 69.76" />
                        <polygon class="cls-28"
                            points="93.51 67.97 93.52 68.85 94.28 68.41 94.29 71.08 93.52 71.52 93.52 68.85 92.74 69.3 92.75 72.86 95.07 71.52 95.05 67.08 93.51 67.97" />
                        <polygon class="cls-28"
                            points="98.14 65.3 95.83 66.64 95.83 67.51 97.38 66.62 97.38 67.52 98.14 67.08 98.14 65.3" />
                        <polygon class="cls-28" points="96.6 67.97 96.61 70.63 97.39 70.18 97.38 67.52 96.6 67.97" />
                    </g>
                    <polygon class="cls-28"
                        points="90.74 69.03 90.74 69.91 91.52 69.46 91.53 72.13 90.75 72.58 90.74 69.91 89.98 70.35 89.99 73.91 92.29 72.58 92.28 68.14 90.74 69.03" />
                    <polygon class="cls-28"
                        points="93.83 67.25 93.84 68.12 94.6 67.68 94.61 70.35 93.84 70.79 93.84 68.12 93.06 68.57 93.07 72.13 95.39 70.79 95.38 66.36 93.83 67.25" />
                    <polygon class="cls-28"
                        points="98.46 64.58 96.15 65.91 96.16 66.78 97.7 65.89 97.7 66.79 98.46 66.35 98.46 64.58" />
                    <polygon class="cls-28" points="96.92 67.24 96.93 69.9 97.71 69.45 97.7 66.79 96.92 67.24" />
                    <ellipse class="cls-29" cx="86.03" cy="74.2" rx="0.91" ry="0.52"
                        transform="translate(-24.98 98.35) rotate(-53.05)" />

                </g>
            </g>
        </g>
    </g>
</svg>