<svg xmlns="http://www.w3.org/2000/svg" xmlns:xlink="http://www.w3.org/1999/xlink" viewBox="0 0 150 150">
    <defs>
        <style>
            .cls-1,
            .cls-2 {
                fill: none;
            }

            .cls-2 {
                stroke: #fff;
                stroke-miterlimit: 10;
                stroke-width: 0.1px;
            }

            .cls-3 {
                opacity: 0;
            }

            .cls-4 {
                fill: #000714;
            }

            .cls-5 {
                opacity: 0.1;
                fill: url(#新建图案);
            }

            .cls-6 {
                fill: url(#未命名的渐变_107);
            }

            .cls-7 {
                fill: url(#未命名的渐变_54);
            }

            .cls-8 {
                fill: url(#未命名的渐变_17006);
            }

            .cls-9 {
                opacity: 0.3;
            }

            .cls-10 {
                fill: url(#未命名的渐变_140);
            }

            .cls-11 {
                fill: url(#未命名的渐变_42);
            }

            .cls-12 {
                fill: url(#未命名的渐变_2133);
            }

            .cls-13 {
                fill: url(#未命名的渐变_17280);
            }

            .cls-14 {
                fill: url(#未命名的渐变_17259);
            }

            .cls-15 {
                fill: url(#未命名的渐变_277);
            }

            .cls-16 {
                fill: #08121b;
            }

            .cls-17 {
                fill: url(#未命名的渐变_2139);
            }

            .cls-18 {
                fill: url(#未命名的渐变_264);
            }

            .cls-19 {
                fill: url(#未命名的渐变_2127);
            }

            .cls-20 {
                opacity: 0.15;
            }

            .cls-21 {
                fill: #15b8d9;
            }

            .cls-22 {
                fill: #19d9ff;
            }

            .cls-23 {
                fill: url(#未命名的渐变_107-2);
            }

            .cls-24 {
                fill: url(#未命名的渐变_107-3);
            }

            .cls-25 {
                fill: url(#未命名的渐变_107-4);
            }

            .cls-26 {
                fill: url(#未命名的渐变_107-5);
            }

            .cls-27 {
                fill: url(#未命名的渐变_107-6);
            }

            .cls-28 {
                fill: url(#未命名的渐变_159);
            }

            .cls-29 {
                fill: url(#未命名的渐变_90);
            }

            .cls-30 {
                fill: url(#未命名的渐变_107-7);
            }

            .cls-31 {
                fill: url(#未命名的渐变_107-8);
            }

            .cls-32 {
                fill: url(#未命名的渐变_107-9);
            }

            .cls-33 {
                fill: url(#未命名的渐变_107-10);
            }

            .cls-34 {
                fill: url(#未命名的渐变_107-11);
            }

            .cls-35 {
                fill: url(#未命名的渐变_159-2);
            }

            .cls-36 {
                fill: url(#未命名的渐变_90-2);
            }

            .cls-37 {
                opacity: 0.2;
            }
        </style>
        <pattern id="新建图案" data-name="新建图案" width="18.57" height="32.16" patternTransform="translate(1234.36 277.16)"
            patternUnits="userSpaceOnUse" viewBox="0 0 18.57 32.16">
            <rect class="cls-1" width="18.57" height="32.16" />
            <polyline class="cls-2" points="18.57 21.44 18.57 32.16 18.57 42.88" />
            <polyline class="cls-2" points="9.29 26.8 18.57 32.16 27.85 37.51 27.85 37.52" />
            <polyline class="cls-2" points="9.29 37.52 9.29 37.51 18.57 32.16 27.85 26.8" />
            <polygon class="cls-2"
                points="27.85 37.52 27.85 26.8 18.57 21.44 9.28 26.8 9.28 37.52 18.57 42.88 27.85 37.52" />
            <polyline class="cls-2" points="0 21.44 0 32.16 0 42.88" />
            <polyline class="cls-2" points="-9.28 26.8 0 32.16 9.28 37.51 9.28 37.52" />
            <polyline class="cls-2" points="-9.28 37.52 -9.28 37.51 0 32.16 9.28 26.8" />
            <polygon class="cls-2" points="9.28 37.52 9.28 26.8 0 21.44 -9.29 26.8 -9.29 37.52 0 42.88 9.28 37.52" />
            <polyline class="cls-2" points="18.57 10.72 27.85 16.08 37.13 21.43 37.13 21.44" />
            <polyline class="cls-2" points="18.57 21.44 18.57 21.43 27.85 16.08 37.13 10.72" />
            <polygon class="cls-2"
                points="37.14 21.44 37.14 10.72 27.85 5.36 18.57 10.72 18.57 21.44 27.85 26.8 37.14 21.44" />
            <polyline class="cls-2" points="9.29 5.36 9.29 16.08 9.29 26.8" />
            <polyline class="cls-2" points="0.01 10.72 9.29 16.08 18.57 21.43 18.57 21.44" />
            <polyline class="cls-2" points="0.01 21.44 0.01 21.43 9.29 16.08 18.57 10.72" />
            <polygon class="cls-2" points="18.57 21.44 18.57 10.72 9.28 5.36 0 10.72 0 21.44 9.28 26.8 18.57 21.44" />
            <polyline class="cls-2" points="-18.56 10.72 -9.28 16.08 0 21.43 0 21.44" />
            <polyline class="cls-2" points="-18.56 21.44 -18.56 21.43 -9.28 16.08 0 10.72" />
            <polygon class="cls-2" points="0 21.44 0 10.72 -9.29 5.36 -18.57 10.72 -18.57 21.44 -9.29 26.8 0 21.44" />
            <polyline class="cls-2" points="18.57 -10.72 18.57 0 18.57 10.72" />
            <polyline class="cls-2" points="9.29 -5.36 18.57 0 27.85 5.35 27.85 5.36" />
            <polyline class="cls-2" points="9.29 5.36 9.29 5.35 18.57 0 27.85 -5.36" />
            <polygon class="cls-2"
                points="27.85 5.36 27.85 -5.36 18.57 -10.72 9.28 -5.36 9.28 5.36 18.57 10.72 27.85 5.36" />
            <polyline class="cls-2" points="0 -10.72 0 0 0 10.72" />
            <polyline class="cls-2" points="-9.28 -5.36 0 0 9.28 5.35 9.28 5.36" />
            <polyline class="cls-2" points="-9.28 5.36 -9.28 5.35 0 0 9.28 -5.36" />
            <polygon class="cls-2" points="9.28 5.36 9.28 -5.36 0 -10.72 -9.29 -5.36 -9.29 5.36 0 10.72 9.28 5.36" />
        </pattern>
        <linearGradient id="未命名的渐变_107" x1="125.77" y1="117.38" x2="63.93" y2="55.54" gradientUnits="userSpaceOnUse">
            <stop offset="0" stop-color="#283140" />
            <stop offset="0.34" stop-color="#232b37" />
            <stop offset="0.9" stop-color="#15191f" />
            <stop offset="1" stop-color="#12161a" />
        </linearGradient>
        <linearGradient id="未命名的渐变_54" x1="31.92" y1="113.9" x2="98.14" y2="47.68" gradientUnits="userSpaceOnUse">
            <stop offset="0" stop-color="#425266" />
            <stop offset="1" stop-color="#596b8c" />
        </linearGradient>
        <linearGradient id="未命名的渐变_17006" x1="45.1" y1="17.26" x2="104.75" y2="17.26"
            gradientTransform="matrix(-1, 0, 0, 1, 150, 0)" gradientUnits="userSpaceOnUse">
            <stop offset="0" stop-color="#7a98cc" />
            <stop offset="1" stop-color="#262e39" />
        </linearGradient>
        <linearGradient id="未命名的渐变_140" x1="104.9" y1="17.26" x2="45.08" y2="17.26"
            gradientTransform="matrix(-1, 0, 0, 1, 150, 0)" gradientUnits="userSpaceOnUse">
            <stop offset="0" stop-color="#89abe6" />
            <stop offset="1" stop-color="#547099" />
        </linearGradient>
        <linearGradient id="未命名的渐变_42" x1="70.61" y1="29.35" x2="79.41" y2="5.17" gradientUnits="userSpaceOnUse">
            <stop offset="0" stop-color="#99beff" />
            <stop offset="0.02" stop-color="#99beff" stop-opacity="0.93" />
            <stop offset="0.09" stop-color="#99beff" stop-opacity="0.74" />
            <stop offset="0.17" stop-color="#99beff" stop-opacity="0.56" />
            <stop offset="0.25" stop-color="#99beff" stop-opacity="0.41" />
            <stop offset="0.33" stop-color="#99beff" stop-opacity="0.28" />
            <stop offset="0.43" stop-color="#99beff" stop-opacity="0.18" />
            <stop offset="0.53" stop-color="#99beff" stop-opacity="0.1" />
            <stop offset="0.64" stop-color="#99beff" stop-opacity="0.04" />
            <stop offset="0.77" stop-color="#99beff" stop-opacity="0.01" />
            <stop offset="1" stop-color="#99beff" stop-opacity="0" />
        </linearGradient>
        <linearGradient id="未命名的渐变_2133" x1="67.97" y1="52.76" x2="67.91" y2="52.66" gradientUnits="userSpaceOnUse">
            <stop offset="0" stop-color="#3f99f3" />
            <stop offset="1" stop-color="#0271e5" />
        </linearGradient>
        <linearGradient id="未命名的渐变_17280" x1="68" y1="52.76" x2="68" y2="46.6" gradientUnits="userSpaceOnUse">
            <stop offset="0" stop-color="#0073e6" />
            <stop offset="1" stop-color="#143ccc" />
        </linearGradient>
        <linearGradient id="未命名的渐变_17259" x1="68.48" y1="52.13" x2="59.55" y2="43.2" gradientUnits="userSpaceOnUse">
            <stop offset="0" stop-color="#096dd9" />
            <stop offset="1" stop-color="#40a9ff" />
        </linearGradient>
        <linearGradient id="未命名的渐变_277" x1="63.04" y1="49.3" x2="64.98" y2="45.94" gradientUnits="userSpaceOnUse">
            <stop offset="0" stop-color="#143ccc" />
            <stop offset="1" stop-color="#0073e6" />
        </linearGradient>
        <linearGradient id="未命名的渐变_2139" x1="60.74" y1="42.31" x2="60.68" y2="42.2" gradientUnits="userSpaceOnUse">
            <stop offset="0" stop-color="#7fd9ff" />
            <stop offset="1" stop-color="#1056dc" />
        </linearGradient>
        <linearGradient id="未命名的渐变_264" x1="67.05" y1="47.04" x2="61.49" y2="41.48" gradientUnits="userSpaceOnUse">
            <stop offset="0" stop-color="#008dff" />
            <stop offset="1" stop-color="#8ce2ff" />
        </linearGradient>
        <linearGradient id="未命名的渐变_2127" x1="68.04" y1="46.73" x2="67.76" y2="46.24" gradientUnits="userSpaceOnUse">
            <stop offset="0" stop-color="#133dcd" />
            <stop offset="1" stop-color="#0a93ff" />
        </linearGradient>
        <linearGradient id="未命名的渐变_107-2" x1="56.85" y1="34.95" x2="57.03" y2="34.63" xlink:href="#未命名的渐变_107" />
        <linearGradient id="未命名的渐变_107-3" x1="56.84" y1="32.92" x2="57.03" y2="32.6" xlink:href="#未命名的渐变_107" />
        <linearGradient id="未命名的渐变_107-4" x1="56.84" y1="30.89" x2="57.03" y2="30.57" xlink:href="#未命名的渐变_107" />
        <linearGradient id="未命名的渐变_107-5" x1="56.84" y1="28.86" x2="57.03" y2="28.54" xlink:href="#未命名的渐变_107" />
        <linearGradient id="未命名的渐变_107-6" x1="56.84" y1="26.83" x2="57.03" y2="26.5" xlink:href="#未命名的渐变_107" />
        <linearGradient id="未命名的渐变_159" x1="54.33" y1="35.14" x2="59.41" y2="26.34" gradientUnits="userSpaceOnUse">
            <stop offset="0" stop-color="#2f77eb" />
            <stop offset="0.12" stop-color="#2c7aee" stop-opacity="0.84" />
            <stop offset="0.36" stop-color="#2581f4" stop-opacity="0.55" />
            <stop offset="0.58" stop-color="#2085f9" stop-opacity="0.31" />
            <stop offset="0.76" stop-color="#1c89fc" stop-opacity="0.14" />
            <stop offset="0.91" stop-color="#1a8bfe" stop-opacity="0.04" />
            <stop offset="1" stop-color="#198cff" stop-opacity="0" />
        </linearGradient>
        <linearGradient id="未命名的渐变_90" x1="54.33" y1="35.14" x2="59.41" y2="26.34" gradientUnits="userSpaceOnUse">
            <stop offset="0" stop-color="#4cfafe" stop-opacity="0.8" />
            <stop offset="0.01" stop-color="#4bf7fe" stop-opacity="0.78" />
            <stop offset="0.05" stop-color="#40e1fe" stop-opacity="0.62" />
            <stop offset="0.1" stop-color="#37ccfe" stop-opacity="0.47" />
            <stop offset="0.16" stop-color="#2fbbff" stop-opacity="0.34" />
            <stop offset="0.22" stop-color="#28acff" stop-opacity="0.23" />
            <stop offset="0.29" stop-color="#22a0ff" stop-opacity="0.15" />
            <stop offset="0.37" stop-color="#1e97ff" stop-opacity="0.08" />
            <stop offset="0.47" stop-color="#1b91ff" stop-opacity="0.03" />
            <stop offset="0.61" stop-color="#198dff" stop-opacity="0.01" />
            <stop offset="1" stop-color="#198cff" stop-opacity="0" />
        </linearGradient>
        <linearGradient id="未命名的渐变_107-7" x1="74.01" y1="44.49" x2="74.2" y2="44.17" xlink:href="#未命名的渐变_107" />
        <linearGradient id="未命名的渐变_107-8" x1="74.01" y1="42.46" x2="74.19" y2="42.14" xlink:href="#未命名的渐变_107" />
        <linearGradient id="未命名的渐变_107-9" x1="74.01" y1="40.43" x2="74.2" y2="40.11" xlink:href="#未命名的渐变_107" />
        <linearGradient id="未命名的渐变_107-10" x1="74.01" y1="38.4" x2="74.2" y2="38.08" xlink:href="#未命名的渐变_107" />
        <linearGradient id="未命名的渐变_107-11" x1="74.01" y1="36.37" x2="74.2" y2="36.04" xlink:href="#未命名的渐变_107" />
        <linearGradient id="未命名的渐变_159-2" x1="71.49" y1="44.68" x2="76.58" y2="35.88" xlink:href="#未命名的渐变_159" />
        <linearGradient id="未命名的渐变_90-2" x1="71.49" y1="44.68" x2="76.58" y2="35.88" xlink:href="#未命名的渐变_90" />
    </defs>
    <title>精密空调</title>
    <g id="图层_2" data-name="图层 2">
        <g id="图元">
            <g id="精密空调">
                <g class="cls-3">
                    <rect class="cls-4" width="150" height="150" />
                    <rect id="网格" class="cls-5" width="150" height="150" />
                </g>
                <polygon class="cls-6" points="104.9 22.92 104.73 138.41 84.79 150 84.96 34.51 104.9 22.92" />
                <polygon class="cls-7"
                    points="84.96 34.51 84.96 36.79 84.79 150 45.08 127.07 45.25 11.59 45.26 11.6 84.96 34.51" />
                <polygon class="cls-8" points="65.2 0 104.9 22.93 84.96 34.52 45.25 11.59 65.2 0" />
                <polygon class="cls-9"
                    points="104.9 22.92 104.9 25.22 84.97 36.8 84.96 36.79 45.26 13.88 45.26 11.6 84.96 34.51 104.9 22.92" />
                <polygon class="cls-10" points="65.21 0 104.92 22.93 84.81 34.52 45.1 11.59 65.21 0" />
                <path class="cls-11"
                    d="M65.21.58l38.71,22.34-19.11,11L46.1,11.59,65.21.58m0-.58L45.1,11.59,84.81,34.52l20.11-11.6L65.21,0Z" />
                <path class="cls-12"
                    d="M67.74,52.76a.21.21,0,0,1,0,.12h0a.1.1,0,0,1,0,.06l.48-.28,0,0,0,0h0v0h0v0h0v0h0v0h0Z" />
                <polygon class="cls-13" points="67.77 46.88 68.25 46.6 68.22 52.48 67.74 52.76 67.77 46.88" />
                <path class="cls-14"
                    d="M67.5,46.4a.63.63,0,0,1,.27.48l0,5.88c0,.18-.13.25-.28.16l-6.93-4a.64.64,0,0,1-.28-.48l0-5.88a.18.18,0,0,1,.28-.17Z" />
                <path class="cls-15"
                    d="M61.36,48.16l0-4a.14.14,0,0,1,.22-.12l4.91,2.83a.29.29,0,0,1,.14.25l0,4a.15.15,0,0,1-.22.13l-4.91-2.83A.32.32,0,0,1,61.36,48.16Z" />
                <path class="cls-16"
                    d="M61.73,48.11l0-3.34a.1.1,0,0,1,.14-.08l4.35,2.51a.09.09,0,0,1,0,.08l0,3.34a.08.08,0,0,1-.13.07l-4.35-2.5A.1.1,0,0,1,61.73,48.11Z" />
                <path class="cls-17" d="M60.57,42.4l.48-.27h-.18l0,0-.48.28a.1.1,0,0,1,.09,0h0Z" />
                <polygon class="cls-18" points="60.57 42.41 61.05 42.13 67.98 46.12 67.5 46.4 60.57 42.41" />
                <path class="cls-19"
                    d="M67.69,46.61h0a.38.38,0,0,1,.06.13h0a.78.78,0,0,1,0,.14l.48-.28h0v0h0v0h0v0h0v0h0v0h0v0h0v0h0v0h0l0,0,0,0h0v0H68l-.48.28a.41.41,0,0,1,.1.09h0A.27.27,0,0,1,67.69,46.61Z" />
                <g class="cls-20">
                    <polygon class="cls-21"
                        points="63.74 47.16 63.74 47.4 63.95 47.52 63.95 47.99 63.53 47.75 63.53 47.99 63.95 48.23 63.95 48.47 63.32 48.11 63.32 47.39 63.74 47.63 63.74 47.4 63.33 47.16 63.33 46.92 63.74 47.16" />
                    <polygon class="cls-21"
                        points="64.57 47.64 64.57 48.83 64.36 48.71 64.36 47.99 64.16 47.87 64.16 47.63 64.36 47.76 64.36 47.52 64.57 47.64" />
                </g>
                <polygon class="cls-21"
                    points="63.65 47.02 63.65 47.26 63.86 47.38 63.85 47.86 63.44 47.62 63.44 47.86 63.85 48.1 63.85 48.34 63.23 47.98 63.23 47.26 63.65 47.5 63.65 47.26 63.23 47.02 63.23 46.78 63.65 47.02" />
                <polygon class="cls-21"
                    points="64.48 47.5 64.48 48.7 64.27 48.58 64.27 47.86 64.06 47.74 64.06 47.5 64.27 47.62 64.27 47.38 64.48 47.5" />
                <ellipse class="cls-22" cx="62.78" cy="47.2" rx="0.1" ry="0.18"
                    transform="translate(-15.76 47.22) rotate(-36.95)" />
                <polygon class="cls-16"
                    points="64.73 29.41 64.73 41.14 48.96 32.04 48.97 30.8 48.98 28.61 48.98 27.67 48.99 26.41 48.99 24.18 49 22.01 49 21.97 49.01 20.33 64.73 29.41" />
                <polygon class="cls-23" points="64.73 39.07 64.73 39.5 48.97 30.39 49.33 30.18 64.73 39.07" />
                <polygon class="cls-24"
                    points="64.73 37.05 64.73 37.47 48.98 28.38 48.96 28.37 48.98 28.36 49.33 28.16 64.73 37.05" />
                <polygon class="cls-25"
                    points="64.73 35.02 64.73 35.44 48.99 26.35 48.96 26.34 48.99 26.32 49.33 26.12 64.73 35.02" />
                <polygon class="cls-26"
                    points="64.73 32.98 64.73 33.41 48.99 24.33 48.96 24.31 48.99 24.29 49.33 24.09 64.73 32.98" />
                <polygon class="cls-27"
                    points="64.73 30.95 64.73 31.38 49 22.29 48.96 22.27 49 22.25 49.33 22.06 64.73 30.95" />
                <polygon class="cls-28"
                    points="64.73 29.41 64.73 41.14 48.96 32.04 48.97 30.8 48.98 28.61 48.98 27.67 48.99 26.41 48.99 24.18 49 22.01 49 21.97 49.01 20.33 64.73 29.41" />
                <polygon class="cls-29"
                    points="64.73 29.41 64.73 41.14 48.96 32.04 48.97 30.8 48.98 28.61 48.98 27.67 48.99 26.41 48.99 24.18 49 22.01 49 21.97 49.01 20.33 64.73 29.41" />
                <path class="cls-16"
                    d="M58.11,115.5l-9.17-5.29c-.28-.16-.5-.1-.5.12a1,1,0,0,0,.5.7l9.16,5.29c.28.16.51.11.51-.11A1,1,0,0,0,58.11,115.5Z" />
                <path class="cls-16"
                    d="M58.11,113.84,49,108.55c-.28-.16-.51-.11-.51.12a1,1,0,0,0,.51.7l9.16,5.29c.27.16.5.11.5-.12A1,1,0,0,0,58.11,113.84Z" />
                <path class="cls-16"
                    d="M58.11,112.18,49,106.89c-.28-.16-.5-.11-.5.11a1,1,0,0,0,.5.71L58.11,113c.28.15.51.1.51-.12A1,1,0,0,0,58.11,112.18Z" />
                <path class="cls-16"
                    d="M58.1,117.17l-9.16-5.29c-.28-.16-.51-.11-.51.11a1,1,0,0,0,.51.7L58.1,118c.27.16.5.11.5-.12A1,1,0,0,0,58.1,117.17Z" />
                <path class="cls-16"
                    d="M58.12,110.52,49,105.23c-.28-.17-.51-.11-.51.12a1,1,0,0,0,.51.7l9.16,5.29c.27.16.5.11.5-.12A1,1,0,0,0,58.12,110.52Z" />
                <path class="cls-16"
                    d="M58.12,108.86,49,103.57c-.28-.16-.5-.11-.5.11a1,1,0,0,0,.5.7l9.16,5.29c.28.16.51.11.51-.12A1,1,0,0,0,58.12,108.86Z" />
                <path class="cls-16"
                    d="M58.13,107.19,49,101.9c-.28-.16-.51-.11-.51.12a1,1,0,0,0,.5.7L58.13,108c.27.16.5.11.5-.12A1,1,0,0,0,58.13,107.19Z" />
                <path class="cls-16"
                    d="M58.13,105.53,49,100.24c-.28-.16-.5-.1-.5.12a1,1,0,0,0,.5.7l9.16,5.29c.28.16.51.11.51-.12A1,1,0,0,0,58.13,105.53Z" />
                <path class="cls-16"
                    d="M58.14,103.87,49,98.58c-.28-.16-.51-.11-.51.12a1,1,0,0,0,.5.69l9.17,5.29c.27.16.5.11.5-.11A1,1,0,0,0,58.14,103.87Z" />
                <path class="cls-16"
                    d="M58.14,102.21,49,96.92c-.28-.16-.5-.11-.5.11a1,1,0,0,0,.5.71L58.14,103c.28.15.51.1.51-.12A1,1,0,0,0,58.14,102.21Z" />
                <path class="cls-16"
                    d="M58.15,100.55,49,95.26c-.29-.17-.51-.11-.51.12a1,1,0,0,0,.5.69l9.17,5.29c.27.16.5.11.5-.11A1,1,0,0,0,58.15,100.55Z" />
                <path class="cls-16"
                    d="M58.15,98.89,49,93.6c-.28-.16-.5-.12-.51.11a1,1,0,0,0,.51.7l9.16,5.29c.27.16.5.11.51-.12A1,1,0,0,0,58.15,98.89Z" />
                <path class="cls-16"
                    d="M58.16,97.22,49,91.93c-.29-.16-.51-.11-.51.12a1,1,0,0,0,.5.7L58.15,98c.28.16.51.1.51-.12A1,1,0,0,0,58.16,97.22Z" />
                <path class="cls-16"
                    d="M58.16,95.56,49,90.27c-.28-.17-.51-.11-.51.12a1,1,0,0,0,.51.7l9.16,5.29c.27.16.5.11.5-.12A.94.94,0,0,0,58.16,95.56Z" />
                <path class="cls-16"
                    d="M58.17,93.9,49,88.61c-.28-.16-.5-.11-.5.11a1,1,0,0,0,.5.7l9.16,5.29c.28.16.51.11.51-.12A1,1,0,0,0,58.17,93.9Z" />
                <path class="cls-16"
                    d="M58.17,92.23,49,86.94c-.28-.16-.51-.1-.51.12a1,1,0,0,0,.51.71l9.16,5.29c.27.15.5.1.5-.12A1,1,0,0,0,58.17,92.23Z" />
                <path class="cls-16"
                    d="M58.18,90.58,49,85.29c-.28-.17-.5-.11-.5.11a1,1,0,0,0,.5.7l9.16,5.29c.28.16.51.11.51-.12A1,1,0,0,0,58.18,90.58Z" />
                <path class="cls-16"
                    d="M58.18,88.91,49,83.62c-.28-.16-.51-.11-.51.12a1,1,0,0,0,.51.69l9.16,5.29c.27.16.5.12.5-.11A1,1,0,0,0,58.18,88.91Z" />
                <path class="cls-16"
                    d="M58.06,130.46l-9.16-5.29c-.28-.16-.5-.1-.5.12a1,1,0,0,0,.5.7l9.16,5.29c.28.16.51.11.51-.12A1,1,0,0,0,58.06,130.46Z" />
                <path class="cls-16"
                    d="M58.07,128.8l-9.16-5.29c-.29-.16-.51-.11-.51.12a1,1,0,0,0,.5.69l9.17,5.29c.27.16.5.12.5-.11A1,1,0,0,0,58.07,128.8Z" />
                <path class="cls-16"
                    d="M58.07,127.14l-9.16-5.29c-.28-.16-.5-.11-.51.11a1,1,0,0,0,.51.7L58.07,128c.27.16.5.11.51-.12A1,1,0,0,0,58.07,127.14Z" />
                <path class="cls-16"
                    d="M58.08,125.47l-9.17-5.28c-.28-.17-.5-.11-.5.11a1,1,0,0,0,.5.7l9.16,5.29c.28.16.51.11.51-.11A1,1,0,0,0,58.08,125.47Z" />
                <path class="cls-16"
                    d="M58.08,123.82l-9.16-5.29c-.28-.17-.51-.11-.51.11a1,1,0,0,0,.51.7l9.16,5.29c.27.16.5.11.5-.12A.94.94,0,0,0,58.08,123.82Z" />
                <path class="cls-16"
                    d="M58.09,122.15l-9.17-5.29c-.28-.16-.5-.11-.5.12a1,1,0,0,0,.5.7L58.08,123c.28.15.51.1.51-.12A1,1,0,0,0,58.09,122.15Z" />
                <path class="cls-16"
                    d="M58.09,120.49l-9.16-5.29c-.28-.16-.51-.1-.51.12a1,1,0,0,0,.51.7l9.16,5.29c.27.16.5.11.5-.12A1,1,0,0,0,58.09,120.49Z" />
                <path class="cls-16"
                    d="M58.1,118.83l-9.17-5.29c-.28-.16-.5-.11-.5.12a1,1,0,0,0,.5.69l9.16,5.29c.28.16.51.11.51-.11A1,1,0,0,0,58.1,118.83Z" />
                <path class="cls-16"
                    d="M69.37,95.37l-9.16-5.29c-.28-.16-.5-.11-.5.12a1,1,0,0,0,.5.7l9.15,5.28c.29.16.52.12.52-.11A1,1,0,0,0,69.37,95.37Z" />
                <path class="cls-16"
                    d="M69.34,103.68l-9.15-5.29c-.28-.16-.51-.1-.51.12a1,1,0,0,0,.51.7l9.15,5.28c.28.17.51.12.51-.1A1,1,0,0,0,69.34,103.68Z" />
                <path class="cls-16"
                    d="M69.34,105.35l-9.16-5.29c-.28-.16-.5-.12-.5.11a1,1,0,0,0,.5.7l9.16,5.29c.28.16.51.11.51-.12A1,1,0,0,0,69.34,105.35Z" />
                <path class="cls-16"
                    d="M69.26,133.6l-9.16-5.29c-.28-.16-.5-.11-.5.11a1,1,0,0,0,.5.71l9.16,5.28c.28.17.51.11.51-.11A1,1,0,0,0,69.26,133.6Z" />
                <path class="cls-16"
                    d="M69.25,135.26,60.1,130c-.28-.16-.51-.11-.51.12a.94.94,0,0,0,.51.69l9.15,5.29c.28.16.51.12.51-.11A1,1,0,0,0,69.25,135.26Z" />
                <path class="cls-16"
                    d="M69.26,131.93l-9.15-5.28c-.28-.17-.51-.11-.51.12a1,1,0,0,0,.5.69l9.16,5.29c.28.16.51.12.51-.11A1,1,0,0,0,69.26,131.93Z" />
                <path class="cls-16"
                    d="M69.25,136.92l-9.16-5.28c-.28-.17-.5-.11-.5.11a1,1,0,0,0,.5.7l9.16,5.29c.28.16.51.11.51-.12A1,1,0,0,0,69.25,136.92Z" />
                <path class="cls-16"
                    d="M69.27,130.28,60.11,125c-.28-.16-.5-.11-.5.11a1,1,0,0,0,.5.7l9.16,5.29c.28.16.51.11.51-.12A1,1,0,0,0,69.27,130.28Z" />
                <path class="cls-16"
                    d="M69.27,128.61l-9.15-5.29c-.28-.16-.51-.1-.51.12a1,1,0,0,0,.5.7l9.16,5.28c.28.17.51.12.51-.1A1,1,0,0,0,69.27,128.61Z" />
                <path class="cls-16"
                    d="M69.28,127l-9.16-5.28c-.28-.17-.5-.11-.5.11a1,1,0,0,0,.5.7l9.15,5.29c.29.16.52.11.52-.12A1,1,0,0,0,69.28,127Z" />
                <path class="cls-16"
                    d="M69.28,125.29,60.13,120c-.28-.16-.51-.11-.51.12a1,1,0,0,0,.5.69l9.16,5.29c.28.16.51.11.51-.11A1,1,0,0,0,69.28,125.29Z" />
                <path class="cls-16"
                    d="M69.29,123.63l-9.16-5.29c-.28-.16-.5-.11-.5.11a1,1,0,0,0,.5.71l9.15,5.28c.29.16.52.11.52-.11A1,1,0,0,0,69.29,123.63Z" />
                <path class="cls-16"
                    d="M69.29,122l-9.15-5.28c-.29-.17-.51-.11-.51.12a1,1,0,0,0,.5.69l9.16,5.29c.28.16.51.11.51-.11A1,1,0,0,0,69.29,122Z" />
                <path class="cls-16"
                    d="M69.3,120.3,60.14,115c-.28-.16-.5-.11-.51.12a1,1,0,0,0,.51.7l9.15,5.29c.28.16.51.11.52-.12A1,1,0,0,0,69.3,120.3Z" />
                <path class="cls-16"
                    d="M69.31,117l-9.16-5.28c-.28-.16-.51-.11-.51.12a1,1,0,0,0,.51.7l9.15,5.29c.28.16.51.11.51-.12A1,1,0,0,0,69.31,117Z" />
                <path class="cls-16"
                    d="M69.31,115.32,60.15,110c-.28-.16-.5-.11-.5.11a1,1,0,0,0,.5.7l9.16,5.29c.28.16.51.11.51-.12A1,1,0,0,0,69.31,115.32Z" />
                <path class="cls-16"
                    d="M69.31,113.65l-9.15-5.29c-.28-.16-.51-.1-.51.12a1,1,0,0,0,.51.7l9.15,5.28c.28.17.51.12.51-.1A1,1,0,0,0,69.31,113.65Z" />
                <path class="cls-16"
                    d="M69.32,112l-9.16-5.28c-.28-.17-.5-.11-.5.11a1,1,0,0,0,.5.7l9.16,5.29c.28.16.51.11.51-.12A1,1,0,0,0,69.32,112Z" />
                <path class="cls-16"
                    d="M69.32,110.33,60.17,105c-.28-.16-.51-.11-.51.12a1,1,0,0,0,.51.7l9.15,5.28c.28.16.51.11.51-.11A1,1,0,0,0,69.32,110.33Z" />
                <path class="cls-16"
                    d="M69.33,108.67l-9.16-5.29c-.28-.16-.5-.1-.5.12a1,1,0,0,0,.5.7l9.16,5.28c.28.17.51.11.51-.11A1,1,0,0,0,69.33,108.67Z" />
                <path class="cls-16"
                    d="M69.33,107l-9.15-5.28c-.28-.16-.51-.11-.51.12a1,1,0,0,0,.51.69l9.15,5.29c.28.16.51.11.51-.11A1,1,0,0,0,69.33,107Z" />
                <path class="cls-16"
                    d="M69.35,102l-9.16-5.29c-.28-.16-.5-.11-.5.12a1,1,0,0,0,.5.7l9.16,5.29c.28.16.51.11.51-.12A1,1,0,0,0,69.35,102Z" />
                <path class="cls-16"
                    d="M69.35,100.36,60.2,95.07c-.28-.16-.51-.11-.51.11a1,1,0,0,0,.5.71l9.16,5.28c.28.16.51.11.51-.11A1,1,0,0,0,69.35,100.36Z" />
                <path class="cls-16"
                    d="M69.36,98.69,60.2,93.41c-.28-.17-.5-.11-.5.12a1,1,0,0,0,.5.7l9.15,5.28c.29.17.52.11.52-.11A1,1,0,0,0,69.36,98.69Z" />
                <path class="cls-16"
                    d="M69.36,97l-9.15-5.28c-.28-.16-.51-.11-.51.11a1,1,0,0,0,.5.7l9.16,5.29c.28.16.51.11.51-.12A1,1,0,0,0,69.36,97Z" />
                <path class="cls-16"
                    d="M69.3,118.64l-9.16-5.29c-.28-.16-.5-.1-.5.12a1,1,0,0,0,.5.7l9.16,5.28c.28.17.51.12.51-.11A1,1,0,0,0,69.3,118.64Z" />
                <path class="cls-16"
                    d="M80.55,103.5,71.4,98.21c-.28-.16-.51-.11-.51.11a1,1,0,0,0,.51.7l9.15,5.29c.28.16.51.11.51-.12A1,1,0,0,0,80.55,103.5Z" />
                <path class="cls-16"
                    d="M80.54,106.82l-9.15-5.29c-.28-.16-.51-.11-.51.11a1,1,0,0,0,.51.71l9.15,5.28c.28.17.51.11.51-.11A1,1,0,0,0,80.54,106.82Z" />
                <path class="cls-16"
                    d="M80.54,110.14l-9.16-5.28c-.28-.17-.51-.12-.51.11a1,1,0,0,0,.51.7L80.53,111c.28.16.51.11.51-.11A1,1,0,0,0,80.54,110.14Z" />
                <path class="cls-16"
                    d="M80.53,111.81l-9.15-5.29c-.29-.16-.52-.12-.52.11a1,1,0,0,0,.51.71l9.16,5.28c.28.16.51.11.51-.11A1,1,0,0,0,80.53,111.81Z" />
                <path class="cls-16"
                    d="M80.5,121.78l-9.15-5.29c-.28-.16-.51-.11-.52.11a1,1,0,0,0,.51.71l9.16,5.28c.28.16.51.11.51-.11A1,1,0,0,0,80.5,121.78Z" />
                <path class="cls-16"
                    d="M80.49,125.1l-9.15-5.28c-.28-.17-.51-.12-.51.1a1,1,0,0,0,.5.71l9.16,5.29c.28.16.51.11.51-.12A1,1,0,0,0,80.49,125.1Z" />
                <path class="cls-16"
                    d="M80.49,126.76l-9.16-5.29c-.28-.16-.51-.11-.51.12a1,1,0,0,0,.51.71l9.16,5.28c.28.16.51.11.51-.11A1,1,0,0,0,80.49,126.76Z" />
                <path class="cls-16"
                    d="M80.5,123.44l-9.16-5.29c-.28-.16-.51-.11-.51.12a1,1,0,0,0,.51.7l9.16,5.29c.28.16.51.11.51-.12A1,1,0,0,0,80.5,123.44Z" />
                <path class="cls-16"
                    d="M80.51,120.11l-9.16-5.28c-.28-.17-.51-.11-.51.11a1,1,0,0,0,.51.7l9.15,5.29c.29.16.52.12.52-.11A1,1,0,0,0,80.51,120.11Z" />
                <path class="cls-16"
                    d="M80.51,118.45l-9.15-5.28c-.28-.16-.52-.11-.52.11a1,1,0,0,0,.51.7l9.16,5.29c.28.16.51.11.51-.12A1,1,0,0,0,80.51,118.45Z" />
                <path class="cls-16"
                    d="M80.52,116.79l-9.16-5.29c-.28-.16-.51-.11-.51.12a1,1,0,0,0,.51.7l9.15,5.28c.29.17.52.11.52-.11A1,1,0,0,0,80.52,116.79Z" />
                <path class="cls-16"
                    d="M80.52,115.13l-9.15-5.28c-.29-.17-.52-.12-.52.1a1,1,0,0,0,.51.71L80.52,116c.28.16.51.11.51-.12A1,1,0,0,0,80.52,115.13Z" />
                <path class="cls-16"
                    d="M80.53,113.47l-9.16-5.29c-.28-.16-.51-.11-.51.12a1,1,0,0,0,.51.69l9.15,5.29c.28.16.51.11.52-.11A1,1,0,0,0,80.53,113.47Z" />
                <path class="cls-16"
                    d="M80.54,108.48l-9.16-5.29c-.28-.16-.51-.11-.51.12a1,1,0,0,0,.51.7l9.16,5.29c.28.16.51.11.51-.12A1,1,0,0,0,80.54,108.48Z" />
                <path class="cls-16"
                    d="M80.55,105.15l-9.16-5.28c-.28-.16-.51-.11-.51.11a1,1,0,0,0,.51.71L80.55,106c.28.16.51.11.51-.12A1,1,0,0,0,80.55,105.15Z" />
                <path class="cls-16"
                    d="M71.4,97.36l9.16,5.28c.28.17.51.12.51-.1a1,1,0,0,0-.51-.71L71.4,96.54c-.28-.16-.51-.11-.51.12A1,1,0,0,0,71.4,97.36Z" />
                <path class="cls-16"
                    d="M80.46,138.39l-9.16-5.28c-.28-.16-.51-.11-.51.11a1,1,0,0,0,.51.7l9.15,5.29c.28.16.51.12.51-.11A1,1,0,0,0,80.46,138.39Z" />
                <path class="cls-16"
                    d="M80.45,140.06l-9.16-5.29c-.28-.16-.51-.11-.51.11a1,1,0,0,0,.51.71l9.16,5.28c.28.17.51.12.51-.11A1,1,0,0,0,80.45,140.06Z" />
                <path class="cls-16"
                    d="M80.45,141.72l-9.16-5.29c-.28-.16-.51-.11-.51.12a1,1,0,0,0,.51.7l9.15,5.28c.28.16.51.12.52-.11A1,1,0,0,0,80.45,141.72Z" />
                <path class="cls-16"
                    d="M80.44,143.38l-9.15-5.28c-.29-.16-.52-.11-.52.11a1,1,0,0,0,.51.7l9.16,5.29c.28.16.51.11.51-.12A1,1,0,0,0,80.44,143.38Z" />
                <path class="cls-16"
                    d="M80.46,136.74l-9.16-5.29c-.28-.16-.51-.11-.51.11a1,1,0,0,0,.51.71l9.16,5.28c.28.16.51.11.51-.11A1,1,0,0,0,80.46,136.74Z" />
                <path class="cls-16"
                    d="M80.46,135.07l-9.15-5.28c-.28-.17-.51-.12-.51.11a1,1,0,0,0,.51.7l9.15,5.29c.28.16.51.11.51-.11A1,1,0,0,0,80.46,135.07Z" />
                <path class="cls-16"
                    d="M80.47,133.41l-9.16-5.28c-.28-.16-.51-.11-.51.11a1,1,0,0,0,.51.7l9.16,5.29c.28.16.51.11.51-.12A1,1,0,0,0,80.47,133.41Z" />
                <path class="cls-16"
                    d="M80.48,130.09l-9.16-5.29c-.28-.16-.51-.11-.51.11a1,1,0,0,0,.51.71l9.16,5.28c.28.17.51.12.51-.11A1,1,0,0,0,80.48,130.09Z" />
                <path class="cls-16"
                    d="M80.48,128.42l-9.15-5.28c-.28-.16-.51-.11-.51.11a1,1,0,0,0,.51.7l9.15,5.29c.28.16.51.11.51-.11A1,1,0,0,0,80.48,128.42Z" />
                <path class="cls-16"
                    d="M80.47,131.75l-9.15-5.29c-.28-.16-.51-.11-.51.12a1,1,0,0,0,.51.7l9.15,5.28c.28.16.51.11.51-.11A1,1,0,0,0,80.47,131.75Z" />
                <polygon class="cls-16"
                    points="81.89 38.95 81.89 50.68 66.13 41.58 66.14 40.34 66.14 38.15 66.14 37.21 66.16 35.95 66.16 33.72 66.17 31.55 66.17 31.51 66.18 29.87 81.89 38.95" />
                <polygon class="cls-30" points="81.89 48.61 81.89 49.04 66.14 39.93 66.5 39.72 81.89 48.61" />
                <polygon class="cls-31"
                    points="81.89 46.59 81.89 47.01 66.14 37.92 66.13 37.91 66.14 37.9 66.5 37.7 81.89 46.59" />
                <polygon class="cls-32"
                    points="81.89 44.56 81.89 44.98 66.16 35.89 66.13 35.88 66.16 35.86 66.5 35.66 81.89 44.56" />
                <polygon class="cls-33"
                    points="81.89 42.52 81.89 42.95 66.16 33.87 66.13 33.85 66.16 33.83 66.5 33.63 81.89 42.52" />
                <polygon class="cls-34"
                    points="81.89 40.49 81.89 40.92 66.17 31.83 66.13 31.81 66.17 31.79 66.5 31.6 81.89 40.49" />
                <polygon class="cls-35"
                    points="81.89 38.95 81.89 50.68 66.13 41.58 66.14 40.34 66.14 38.15 66.14 37.21 66.16 35.95 66.16 33.72 66.17 31.55 66.17 31.51 66.18 29.87 81.89 38.95" />
                <polygon class="cls-36"
                    points="81.89 38.95 81.89 50.68 66.13 41.58 66.14 40.34 66.14 38.15 66.14 37.21 66.16 35.95 66.16 33.72 66.17 31.55 66.17 31.51 66.18 29.87 81.89 38.95" />

            </g>
        </g>
    </g>
</svg>