<svg xmlns="http://www.w3.org/2000/svg" xmlns:xlink="http://www.w3.org/1999/xlink" viewBox="0 0 150.5 75.76">
    <defs>
        <style>
            .cls-1,
            .cls-36 {
                fill: none;
            }

            .cls-2 {
                fill: #7f7f7f;
            }

            .cls-3 {
                fill: #2d2d2d;
            }

            .cls-4 {
                isolation: isolate;
            }

            .cls-5 {
                clip-path: url(#clip-path);
            }

            .cls-6 {
                fill: #606060;
            }

            .cls-7 {
                fill: #646464;
            }

            .cls-8 {
                fill: #676767;
            }

            .cls-9 {
                fill: #6b6b6b;
            }

            .cls-10 {
                fill: #6e6e6e;
            }

            .cls-11 {
                fill: #727272;
            }

            .cls-12 {
                fill: #757575;
            }

            .cls-13 {
                fill: #7b7b7b;
            }

            .cls-14 {
                fill: #9e9e9e;
            }

            .cls-15 {
                clip-path: url(#clip-path-2);
            }

            .cls-16 {
                fill: #797979;
            }

            .cls-17 {
                fill: #7d7d7d;
            }

            .cls-18 {
                fill: gray;
            }

            .cls-19 {
                fill: #848484;
            }

            .cls-20 {
                fill: #878787;
            }

            .cls-21 {
                fill: #8b8b8b;
            }

            .cls-22 {
                fill: #8e8e8e;
            }

            .cls-23 {
                fill: #929292;
            }

            .cls-24 {
                fill: #969696;
            }

            .cls-25 {
                fill: #999;
            }

            .cls-26 {
                fill: #9d9d9d;
            }

            .cls-27 {
                fill: #a0a0a0;
            }

            .cls-28 {
                fill: #a4a4a4;
            }

            .cls-29 {
                fill: #a7a7a7;
            }

            .cls-30 {
                fill: #ababab;
            }

            .cls-31 {
                fill: #aeaeae;
            }

            .cls-32 {
                fill: #b2b2b2;
            }

            .cls-33 {
                fill: #bbb;
            }

            .cls-34 {
                fill: #bfbfbf;
            }

            .cls-35 {
                fill: #636363;
            }

            .cls-36 {
                stroke: #636363;
                stroke-miterlimit: 10;
            }

            .cls-37 {
                opacity: 0.2;
            }
        </style>
        <clipPath id="clip-path">
            <path class="cls-1"
                d="M12.11,20.23,103.71.73a11.41,11.41,0,0,1,5.89.37L18,20.6A11.37,11.37,0,0,0,12.11,20.23Z" />
        </clipPath>
        <clipPath id="clip-path-2">
            <path class="cls-1"
                d="M39.82,27.59l91.61-19.5c10.06,3.22,18.32,18.53,18.45,34.2l-91.6,19.5C58.15,46.12,49.88,30.81,39.82,27.59Z" />
        </clipPath>
    </defs>
    <title>Arch-style building(拱形建筑)</title>
    <g id="图层_2" data-name="图层 2">
        <g id="图层_10" data-name="图层 10">
            <g id="Arch-style_building_拱形建筑_" data-name="Arch-style building(拱形建筑)">
                <polygon class="cls-2" points="8.37 31.19 8.37 57.29 52.03 53.86 48.93 37.61 8.37 31.19" />
                <polygon class="cls-3" points="48.69 49.98 0.12 57.1 58.39 75.76 48.69 49.98" />
                <g class="cls-4">
                    <g class="cls-5">
                        <g class="cls-4">
                            <path class="cls-6"
                                d="M12.11,20.23,103.71.73c.22,0,.44-.09.67-.12L12.77,20.11q-.33,0-.66.12" />
                            <path class="cls-7"
                                d="M12.77,20.11,104.38.61a9.4,9.4,0,0,1,1.2-.1L14,20a9.71,9.71,0,0,0-1.2.1" />
                            <path class="cls-8" d="M14,20,105.58.51a9.39,9.39,0,0,1,1.06,0L15,20A9.6,9.6,0,0,0,14,20" />
                            <path class="cls-9" d="M15,20,106.64.52l.93.1L16,20.13c-.32-.05-.63-.08-.93-.1" />
                            <path class="cls-10" d="M16,20.13,107.57.62l.91.17L16.87,20.29c-.3-.06-.6-.12-.9-.16" />
                            <path class="cls-11"
                                d="M16.87,20.29,108.48.79c.28.07.57.14.86.23L17.73,20.52c-.29-.09-.57-.16-.86-.23" />
                            <path class="cls-12" d="M17.73,20.52,109.34,1l.26.08L18,20.6l-.26-.08" />
                        </g>
                    </g>
                </g>
                <polygon class="cls-13" points="17.99 20.6 109.6 1.1 131.43 8.09 39.82 27.59 17.99 20.6" />
                <polygon class="cls-14" points="58.28 61.79 149.88 42.29 150 56.26 58.39 75.76 58.28 61.79" />
                <g class="cls-4">
                    <g class="cls-15">
                        <g class="cls-4">
                            <path class="cls-12" d="M39.82,27.59l91.61-19.5.56.19L40.38,27.78l-.56-.19" />
                            <path class="cls-16" d="M40.38,27.78,132,8.28l.79.32L41.18,28.1l-.8-.32" />
                            <path class="cls-17"
                                d="M41.18,28.1l91.6-19.5c.26.11.52.23.77.36L41.94,28.46c-.25-.13-.5-.25-.76-.36" />
                            <path class="cls-18"
                                d="M41.94,28.46,133.55,9c.25.12.5.26.75.4L42.69,28.86c-.24-.14-.49-.28-.75-.4" />
                            <path class="cls-19"
                                d="M42.69,28.86,134.3,9.36c.25.14.49.28.73.44L43.43,29.3c-.24-.16-.49-.3-.74-.44" />
                            <path class="cls-20"
                                d="M43.43,29.3,135,9.8c.25.15.49.31.73.48L44.15,29.78q-.36-.26-.72-.48" />
                            <path class="cls-21"
                                d="M44.15,29.78l91.61-19.5.73.53L44.88,30.31c-.24-.18-.48-.36-.73-.53" />
                            <path class="cls-22" d="M44.88,30.31l91.61-19.5c.24.18.48.37.71.57L45.6,30.88l-.72-.57" />
                            <path class="cls-23"
                                d="M45.6,30.88l91.6-19.5c.25.21.5.42.74.64L46.33,31.53c-.24-.23-.49-.44-.73-.65" />
                            <path class="cls-24"
                                d="M46.33,31.53,137.94,12l.73.7L47.06,32.22c-.24-.24-.48-.47-.73-.69" />
                            <path class="cls-25"
                                d="M47.06,32.22l91.61-19.5c.25.25.51.51.76.78L47.82,33c-.25-.27-.5-.53-.76-.78" />
                            <path class="cls-26"
                                d="M47.82,33l91.61-19.5c.26.28.51.56.77.86L48.59,33.86c-.25-.3-.51-.58-.77-.86" />
                            <path class="cls-27"
                                d="M48.59,33.86l91.61-19.5c.26.31.52.62.78,1L49.37,34.81c-.25-.33-.51-.64-.78-1" />
                            <path class="cls-28"
                                d="M49.37,34.81,141,15.31c.28.36.56.72.83,1.1L50.2,35.91c-.27-.38-.54-.74-.83-1.1" />
                            <path class="cls-29"
                                d="M50.2,35.91l91.61-19.5c.29.39.57.8.84,1.22l-91.6,19.5c-.28-.42-.56-.82-.85-1.22" />
                            <path class="cls-30"
                                d="M51.05,37.13l91.6-19.5c.29.44.57.89.85,1.35L51.89,38.48q-.41-.69-.84-1.35" />
                            <path class="cls-31"
                                d="M51.89,38.48,143.5,19c.29.48.57,1,.84,1.48L52.74,40c-.27-.51-.56-1-.85-1.48" />
                            <path class="cls-32"
                                d="M52.74,40l91.6-19.5c.29.53.57,1.07.84,1.63l-91.6,19.5c-.27-.56-.55-1.1-.84-1.63" />
                            <path class="cls-33"
                                d="M53.58,41.59l91.6-19.5c.31.62.6,1.26.88,1.91L54.45,43.5c-.28-.65-.57-1.29-.87-1.91" />
                            <path class="cls-34"
                                d="M54.45,43.5,146.06,24a47.53,47.53,0,0,1,2.41,7.23L56.86,50.73a46.45,46.45,0,0,0-2.41-7.23" />
                            <path class="cls-33"
                                d="M56.86,50.73l91.61-19.5c.14.56.27,1.12.39,1.69L57.25,52.42c-.12-.57-.25-1.13-.39-1.69" />
                            <path class="cls-32"
                                d="M57.25,52.42l91.61-19.5c.09.43.17.87.25,1.3l-91.6,19.5c-.08-.43-.17-.87-.26-1.3" />
                            <path class="cls-31"
                                d="M57.51,53.72l91.6-19.5c.08.43.15.85.22,1.27L57.72,55c-.06-.43-.14-.85-.21-1.28" />
                            <path class="cls-30"
                                d="M57.72,55l91.61-19.51c.06.4.11.79.16,1.18l-91.6,19.5c0-.39-.11-.78-.17-1.17" />
                            <path class="cls-29"
                                d="M57.89,56.17l91.6-19.5c0,.4.1.79.14,1.18L58,57.36c-.05-.4-.09-.79-.14-1.19" />
                            <path class="cls-28"
                                d="M58,57.36l91.6-19.51c0,.4.08.79.11,1.18L58.13,58.53c0-.39-.06-.78-.1-1.17" />
                            <path class="cls-27"
                                d="M58.13,58.53,149.74,39c0,.4.06.79.08,1.19L58.21,59.72c0-.4,0-.79-.08-1.19" />
                            <path class="cls-26"
                                d="M58.21,59.72l91.61-19.5c0,.39,0,.79.05,1.19L58.26,60.91c0-.4,0-.8,0-1.19" />
                            <path class="cls-25"
                                d="M58.26,60.91l91.61-19.5c0,.29,0,.59,0,.88l-91.6,19.5c0-.29,0-.59,0-.88" />
                        </g>
                    </g>
                </g>
                <path class="cls-35"
                    d="M9.78,34.33,48.69,47.1V72.65l9.7,3.11-.11-14c-.13-15.67-8.4-31-18.46-34.2L18,20.6C7.92,17.38-.13,27.47,0,43.13l.12,14,9.66,3.09Z" />
                <path class="cls-36"
                    d="M14.17,19.93a11,11,0,0,1,7.49-.11l21.83,7C53.55,30,61.81,45.34,61.94,61l.12,14" />
                <path class="cls-36"
                    d="M18.16,19.08a11.06,11.06,0,0,1,7.5-.11l21.82,7c10.07,3.22,18.33,18.53,18.46,34.2l.11,14" />
                <path class="cls-36"
                    d="M22.16,18.23a11,11,0,0,1,7.49-.11l21.83,7c10.06,3.22,18.33,18.53,18.46,34.2l.11,14" />
                <path class="cls-36"
                    d="M26.16,17.38a11,11,0,0,1,7.49-.11l21.83,7c10.06,3.22,18.32,18.53,18.45,34.2l.12,14" />
                <path class="cls-36"
                    d="M30.15,16.53a11,11,0,0,1,7.5-.11l21.82,7C69.54,26.63,77.8,41.94,77.93,57.6l.12,14" />
                <path class="cls-36"
                    d="M34.15,15.67a11.06,11.06,0,0,1,7.5-.1l21.82,7c10.06,3.23,18.33,18.54,18.46,34.2l.11,14" />
                <path class="cls-36"
                    d="M38.15,14.82a11,11,0,0,1,7.49-.1l21.83,7C77.53,24.92,85.8,40.24,85.93,55.9l.11,14" />
                <path class="cls-36"
                    d="M42.15,14a11.09,11.09,0,0,1,7.49-.11l21.83,7c10.06,3.22,18.32,18.54,18.45,34.2L90,69" />
                <path class="cls-36"
                    d="M46.14,13.12a11.12,11.12,0,0,1,7.5-.11l21.82,7c10.07,3.22,18.33,18.54,18.46,34.2l.12,14" />
                <path class="cls-36"
                    d="M50.14,12.27a11.06,11.06,0,0,1,7.5-.11l21.82,7c10.06,3.22,18.33,18.53,18.46,34.2l.11,14" />
                <path class="cls-36"
                    d="M54.14,11.42a11,11,0,0,1,7.49-.11l21.83,7c10.06,3.22,18.33,18.53,18.46,34.2l.11,14" />
                <path class="cls-36"
                    d="M58.14,10.57a11,11,0,0,1,7.49-.11l21.83,7c10.06,3.22,18.32,18.53,18.45,34.2l.12,14" />
                <path class="cls-36"
                    d="M62.13,9.72a11.06,11.06,0,0,1,7.5-.11l21.82,7c10.07,3.22,18.33,18.53,18.46,34.2l.12,14" />
                <path class="cls-36"
                    d="M66.13,8.87a11,11,0,0,1,7.49-.11l21.83,7C105.51,19,113.78,34.28,113.91,50l.11,14" />
                <path class="cls-36"
                    d="M70.13,8a11,11,0,0,1,7.49-.11l21.83,7c10.06,3.22,18.33,18.53,18.45,34.19l.12,14" />
                <path class="cls-36"
                    d="M74.13,7.17a11,11,0,0,1,7.49-.11l21.83,7c10.06,3.23,18.32,18.54,18.45,34.2l.12,14" />
                <path class="cls-36"
                    d="M78.12,6.31a11.06,11.06,0,0,1,7.5-.1l21.82,7c10.07,3.23,18.33,18.54,18.46,34.2l.12,14" />
                <path class="cls-36"
                    d="M82.12,5.46a11.09,11.09,0,0,1,7.49-.11l21.83,7c10.06,3.22,18.33,18.54,18.46,34.2l.11,14" />
                <path class="cls-36"
                    d="M86.12,4.61a11.09,11.09,0,0,1,7.49-.11l21.83,7c10.06,3.22,18.32,18.54,18.45,34.2l.12,14" />
                <path class="cls-36"
                    d="M90.12,3.76a11.09,11.09,0,0,1,7.49-.11l21.83,7c10.06,3.22,18.32,18.54,18.45,34.2l.12,14" />
                <path class="cls-36"
                    d="M94.11,2.91a11.06,11.06,0,0,1,7.5-.11l21.82,7C133.5,13,141.76,28.32,141.89,44L142,58" />
                <path class="cls-36"
                    d="M98.11,2.06A11,11,0,0,1,105.6,2l21.83,7c10.06,3.22,18.33,18.53,18.46,34.2l.11,14" />
                <path class="cls-36"
                    d="M102.11,1.21a11,11,0,0,1,7.49-.11l21.83,7c10.06,3.22,18.32,18.53,18.45,34.2l.12,14" />
                <line class="cls-36" x1="11.92" y1="34.94" x2="11.92" y2="55.19" />
                <line class="cls-36" x1="15.37" y1="36.07" x2="15.37" y2="54.69" />
                <line class="cls-36" x1="18.83" y1="37.21" x2="18.83" y2="54.18" />
                <line class="cls-36" x1="22.29" y1="38.34" x2="22.29" y2="53.67" />
                <line class="cls-36" x1="25.74" y1="39.48" x2="25.74" y2="53.17" />
                <line class="cls-36" x1="29.2" y1="40.61" x2="29.2" y2="52.66" />
                <line class="cls-36" x1="32.65" y1="41.74" x2="32.65" y2="52.15" />
                <line class="cls-36" x1="36.11" y1="42.88" x2="36.11" y2="51.65" />
                <line class="cls-36" x1="39.56" y1="44.01" x2="39.56" y2="51.14" />
                <line class="cls-36" x1="43.02" y1="45.15" x2="43.02" y2="50.64" />
                <line class="cls-36" x1="46.47" y1="46.28" x2="46.47" y2="50.13" />
            </g>
        </g>
    </g>
</svg>