<svg xmlns="http://www.w3.org/2000/svg" viewBox="0 0 87.29 150">
    <defs>
        <style>
            .cls-1 {
                fill: #afafaf;
            }

            .cls-2 {
                fill: #ccc;
            }

            .cls-3 {
                fill: #eaeaea;
            }

            .cls-4 {
                fill: #bed7e5;
            }

            .cls-5 {
                fill: #a9afb2;
            }

            .cls-6,
            .cls-7 {
                fill: none;
                stroke-linecap: round;
                stroke-linejoin: round;
                stroke-width: 0.5px;
            }

            .cls-6 {
                stroke: #fff;
            }

            .cls-7 {
                stroke: #ddd;
            }

            .cls-8 {
                fill: #a0b7c1;
            }

            .cls-9 {
                opacity: 0.2;
            }
        </style>
    </defs>
    <title>Commercial building (商业建筑)</title>
    <g id="图层_2" data-name="图层 2">
        <g id="图层_10" data-name="图层 10">
            <g id="Commercial_building_商业建筑_" data-name="Commercial building (商业建筑)">
                <polygon class="cls-1" points="57.17 23.39 87.29 13.76 87.06 140.37 56.93 150 57.17 23.39" />
                <polygon class="cls-2" points="0.23 9.63 30.36 0 87.29 13.76 57.17 23.39 0.23 9.63" />
                <polygon class="cls-3" points="57.17 23.39 56.93 150 0 136.24 0.23 9.63 57.17 23.39" />
                <polygon class="cls-4" points="16.89 19.4 16.88 29.39 5.17 26.59 5.19 16.6 16.89 19.4" />
                <polygon class="cls-5"
                    points="5.93 17.75 16.89 20.37 16.89 19.4 5.19 16.6 5.17 26.59 5.91 26.77 5.93 17.75" />
                <line class="cls-6" x1="11.43" y1="20.46" x2="8.6" y2="22.62" />
                <line class="cls-6" x1="13.66" y1="20.97" x2="7.89" y2="25.12" />
                <line class="cls-7" x1="13.35" y1="23.59" x2="10.02" y2="25.88" />
                <polygon class="cls-4" points="33.54 23.77 33.52 33.76 21.81 30.96 21.83 20.97 33.54 23.77" />
                <polygon class="cls-5"
                    points="22.57 22.11 33.54 24.73 33.54 23.77 21.83 20.97 21.81 30.96 22.56 31.14 22.57 22.11" />
                <line class="cls-6" x1="28.08" y1="24.83" x2="25.24" y2="26.99" />
                <line class="cls-6" x1="30.31" y1="25.33" x2="24.54" y2="29.48" />
                <line class="cls-7" x1="29.99" y1="27.95" x2="26.66" y2="30.25" />
                <polygon class="cls-4" points="51.31 28.13 51.29 38.13 39.58 35.33 39.6 25.33 51.31 28.13" />
                <polygon class="cls-5"
                    points="40.34 26.48 51.31 29.1 51.31 28.13 39.6 25.33 39.58 35.33 40.33 35.5 40.34 26.48" />
                <line class="cls-6" x1="45.85" y1="29.2" x2="43.01" y2="31.36" />
                <line class="cls-6" x1="48.08" y1="29.7" x2="42.31" y2="33.85" />
                <line class="cls-7" x1="47.76" y1="32.32" x2="44.43" y2="34.62" />
                <polygon class="cls-4" points="58.94 28.25 58.95 39.13 65.86 36.88 65.85 26.01 58.94 28.25" />
                <polygon class="cls-8"
                    points="65.85 26.01 64.99 26.29 65 36.55 58.95 38.52 58.95 39.13 65.86 36.88 65.85 26.01" />
                <line class="cls-6" x1="62.26" y1="29.64" x2="60.58" y2="32.18" />
                <line class="cls-6" x1="63.57" y1="30.04" x2="60.17" y2="34.95" />
                <line class="cls-7" x1="63.39" y1="32.91" x2="61.42" y2="35.63" />
                <polygon class="cls-4" points="69.11 24.88 69.12 35.76 76.03 33.51 76.02 22.64 69.11 24.88" />
                <polygon class="cls-8"
                    points="76.02 22.64 75.16 22.92 75.17 33.18 69.12 35.15 69.12 35.76 76.03 33.51 76.02 22.64" />
                <line class="cls-6" x1="72.42" y1="26.27" x2="70.75" y2="28.81" />
                <line class="cls-6" x1="73.74" y1="26.67" x2="70.33" y2="31.58" />
                <line class="cls-7" x1="73.55" y1="29.54" x2="71.59" y2="32.26" />
                <polygon class="cls-4" points="78.29 21.7 78.3 32.57 85.21 30.32 85.2 19.45 78.29 21.7" />
                <polygon class="cls-8"
                    points="85.2 19.45 84.33 19.73 84.34 30 78.3 31.96 78.3 32.57 85.21 30.32 85.2 19.45" />
                <line class="cls-6" x1="81.6" y1="23.08" x2="79.93" y2="25.62" />
                <line class="cls-6" x1="82.92" y1="23.48" x2="79.51" y2="28.39" />
                <line class="cls-7" x1="82.73" y1="26.35" x2="80.77" y2="29.08" />
                <polygon class="cls-4" points="58.98 43.85 58.99 54.72 65.9 52.47 65.89 41.6 58.98 43.85" />
                <polygon class="cls-8"
                    points="65.89 41.6 65.02 41.88 65.03 52.15 58.99 54.11 58.99 54.72 65.9 52.47 65.89 41.6" />
                <line class="cls-6" x1="62.29" y1="45.23" x2="60.62" y2="47.78" />
                <line class="cls-6" x1="63.61" y1="45.63" x2="60.2" y2="50.54" />
                <line class="cls-7" x1="63.42" y1="48.5" x2="61.46" y2="51.23" />
                <polygon class="cls-4" points="69.14 40.48 69.16 51.35 76.07 49.1 76.06 38.23 69.14 40.48" />
                <polygon class="cls-8"
                    points="76.06 38.23 75.19 38.51 75.2 48.78 69.16 50.74 69.16 51.35 76.07 49.1 76.06 38.23" />
                <line class="cls-6" x1="72.46" y1="41.86" x2="70.79" y2="44.4" />
                <line class="cls-6" x1="73.77" y1="42.26" x2="70.37" y2="47.17" />
                <line class="cls-7" x1="73.59" y1="45.13" x2="71.62" y2="47.85" />
                <polygon class="cls-4" points="78.32 37.29 78.33 48.16 85.25 45.91 85.23 35.04 78.32 37.29" />
                <polygon class="cls-8"
                    points="85.23 35.04 84.37 35.32 84.38 45.59 78.33 47.55 78.33 48.16 85.25 45.91 85.23 35.04" />
                <line class="cls-6" x1="81.64" y1="38.67" x2="79.97" y2="41.22" />
                <line class="cls-6" x1="82.95" y1="39.07" x2="79.55" y2="43.98" />
                <line class="cls-7" x1="82.77" y1="41.94" x2="80.8" y2="44.67" />
                <polygon class="cls-4" points="59.01 59.44 59.02 70.31 65.94 68.07 65.92 57.19 59.01 59.44" />
                <polygon class="cls-8"
                    points="65.92 57.19 65.06 57.48 65.07 67.74 59.02 69.7 59.02 70.31 65.94 68.07 65.92 57.19" />
                <line class="cls-6" x1="62.33" y1="60.82" x2="60.66" y2="63.37" />
                <line class="cls-6" x1="63.64" y1="61.22" x2="60.24" y2="66.13" />
                <line class="cls-7" x1="63.46" y1="64.1" x2="61.49" y2="66.82" />
                <polygon class="cls-4" points="69.18 56.07 69.19 66.94 76.1 64.69 76.09 53.82 69.18 56.07" />
                <polygon class="cls-8"
                    points="76.09 53.82 75.22 54.1 75.24 64.37 69.19 66.33 69.19 66.94 76.1 64.69 76.09 53.82" />
                <line class="cls-6" x1="72.5" y1="57.45" x2="70.82" y2="60" />
                <line class="cls-6" x1="73.81" y1="57.85" x2="70.4" y2="62.76" />
                <line class="cls-7" x1="73.62" y1="60.72" x2="71.66" y2="63.45" />
                <polygon class="cls-4" points="78.36 52.88 78.37 63.75 85.28 61.51 85.27 50.63 78.36 52.88" />
                <polygon class="cls-8"
                    points="85.27 50.63 84.4 50.92 84.42 61.18 78.37 63.15 78.37 63.75 85.28 61.51 85.27 50.63" />
                <line class="cls-6" x1="81.67" y1="54.27" x2="80" y2="56.81" />
                <line class="cls-6" x1="82.99" y1="54.66" x2="79.58" y2="59.57" />
                <line class="cls-7" x1="82.8" y1="57.54" x2="80.84" y2="60.26" />
                <polygon class="cls-4" points="59.05 75.03 59.06 85.9 65.97 83.66 65.96 72.79 59.05 75.03" />
                <polygon class="cls-8"
                    points="65.96 72.79 65.09 73.07 65.1 83.33 59.06 85.3 59.06 85.9 65.97 83.66 65.96 72.79" />
                <line class="cls-6" x1="62.36" y1="76.42" x2="60.69" y2="78.96" />
                <line class="cls-6" x1="63.68" y1="76.82" x2="60.27" y2="81.73" />
                <line class="cls-7" x1="63.49" y1="79.69" x2="61.53" y2="82.41" />
                <polygon class="cls-4" points="69.22 71.66 69.23 82.53 76.14 80.29 76.13 69.41 69.22 71.66" />
                <polygon class="cls-8"
                    points="76.13 69.41 75.26 69.7 75.27 79.96 69.23 81.92 69.23 82.53 76.14 80.29 76.13 69.41" />
                <line class="cls-6" x1="72.53" y1="73.04" x2="70.86" y2="75.59" />
                <line class="cls-6" x1="73.84" y1="73.44" x2="70.44" y2="78.35" />
                <line class="cls-7" x1="73.66" y1="76.32" x2="71.69" y2="79.04" />
                <polygon class="cls-4" points="78.39 68.47 78.41 79.35 85.32 77.1 85.31 66.23 78.39 68.47" />
                <polygon class="cls-8"
                    points="85.31 66.23 84.44 66.51 84.45 76.77 78.41 78.74 78.41 79.35 85.32 77.1 85.31 66.23" />
                <line class="cls-6" x1="81.71" y1="69.86" x2="80.04" y2="72.4" />
                <line class="cls-6" x1="83.02" y1="70.26" x2="79.62" y2="75.17" />
                <line class="cls-7" x1="82.84" y1="73.13" x2="80.87" y2="75.85" />
                <polygon class="cls-4" points="59.09 89.57 59.1 100.44 66.01 98.19 66 87.32 59.09 89.57" />
                <polygon class="cls-8"
                    points="66 87.32 65.13 87.6 65.14 97.87 59.09 99.83 59.1 100.44 66.01 98.19 66 87.32" />
                <line class="cls-6" x1="62.4" y1="90.95" x2="60.73" y2="93.5" />
                <line class="cls-6" x1="63.71" y1="91.35" x2="60.31" y2="96.26" />
                <line class="cls-7" x1="63.53" y1="94.22" x2="61.56" y2="96.95" />
                <polygon class="cls-4" points="69.25 86.19 69.26 97.07 76.17 94.82 76.16 83.95 69.25 86.19" />
                <polygon class="cls-8"
                    points="76.16 83.95 75.3 84.23 75.31 94.5 69.26 96.46 69.26 97.07 76.17 94.82 76.16 83.95" />
                <line class="cls-6" x1="72.57" y1="87.58" x2="70.89" y2="90.12" />
                <line class="cls-6" x1="73.88" y1="87.98" x2="70.48" y2="92.89" />
                <line class="cls-7" x1="73.69" y1="90.85" x2="71.73" y2="93.57" />
                <polygon class="cls-4" points="78.43 83.01 78.44 93.88 85.35 91.64 85.34 80.76 78.43 83.01" />
                <polygon class="cls-8"
                    points="85.34 80.76 84.47 81.05 84.48 91.31 78.44 93.27 78.44 93.88 85.35 91.64 85.34 80.76" />
                <line class="cls-6" x1="81.74" y1="84.39" x2="80.07" y2="86.94" />
                <line class="cls-6" x1="83.06" y1="84.79" x2="79.65" y2="89.7" />
                <line class="cls-7" x1="82.87" y1="87.66" x2="80.91" y2="90.39" />
                <polygon class="cls-4" points="59.12 105.16 59.13 116.03 66.04 113.79 66.03 102.92 59.12 105.16" />
                <polygon class="cls-8"
                    points="66.03 102.92 65.17 103.2 65.17 113.46 59.13 115.42 59.13 116.03 66.04 113.79 66.03 102.92" />
                <line class="cls-6" x1="62.43" y1="106.54" x2="60.76" y2="109.09" />
                <line class="cls-6" x1="63.75" y1="106.94" x2="60.34" y2="111.85" />
                <line class="cls-7" x1="63.56" y1="109.82" x2="61.6" y2="112.54" />
                <polygon class="cls-4" points="69.29 101.79 69.3 112.66 76.21 110.42 76.2 99.54 69.29 101.79" />
                <polygon class="cls-8"
                    points="76.2 99.54 75.33 99.82 75.34 110.09 69.3 112.05 69.3 112.66 76.21 110.42 76.2 99.54" />
                <line class="cls-6" x1="72.6" y1="103.17" x2="70.93" y2="105.72" />
                <line class="cls-6" x1="73.92" y1="103.57" x2="70.51" y2="108.48" />
                <line class="cls-7" x1="73.73" y1="106.44" x2="71.77" y2="109.17" />
                <polygon class="cls-4" points="78.47 98.6 78.48 109.47 85.39 107.23 85.38 96.36 78.47 98.6" />
                <polygon class="cls-8"
                    points="85.38 96.36 84.51 96.64 84.52 106.9 78.48 108.87 78.48 109.47 85.39 107.23 85.38 96.36" />
                <line class="cls-6" x1="81.78" y1="99.99" x2="80.11" y2="102.53" />
                <line class="cls-6" x1="83.09" y1="100.38" x2="79.69" y2="105.29" />
                <line class="cls-7" x1="82.91" y1="103.26" x2="80.94" y2="105.98" />
                <polygon class="cls-4" points="59.16 120.75 59.17 131.63 66.08 129.38 66.07 118.51 59.16 120.75" />
                <polygon class="cls-8"
                    points="66.07 118.51 65.2 118.79 65.21 129.05 59.17 131.02 59.17 131.63 66.08 129.38 66.07 118.51" />
                <line class="cls-6" x1="62.47" y1="122.14" x2="60.8" y2="124.68" />
                <line class="cls-6" x1="63.78" y1="122.54" x2="60.38" y2="127.45" />
                <line class="cls-7" x1="63.6" y1="125.41" x2="61.63" y2="128.13" />
                <polygon class="cls-4" points="69.32 117.38 69.33 128.25 76.24 126.01 76.23 115.14 69.32 117.38" />
                <polygon class="cls-8"
                    points="76.23 115.14 75.37 115.42 75.38 125.68 69.33 127.64 69.33 128.25 76.24 126.01 76.23 115.14" />
                <line class="cls-6" x1="72.64" y1="118.76" x2="70.96" y2="121.31" />
                <line class="cls-6" x1="73.95" y1="119.16" x2="70.55" y2="124.07" />
                <line class="cls-7" x1="73.77" y1="122.04" x2="71.8" y2="124.76" />
                <polygon class="cls-4" points="78.5 114.19 78.51 125.07 85.42 122.82 85.41 111.95 78.5 114.19" />
                <polygon class="cls-8"
                    points="85.41 111.95 84.55 112.23 84.56 122.5 78.51 124.46 78.51 125.07 85.42 122.82 85.41 111.95" />
                <line class="cls-6" x1="81.82" y1="115.58" x2="80.14" y2="118.12" />
                <line class="cls-6" x1="83.13" y1="115.98" x2="79.72" y2="120.89" />
                <line class="cls-7" x1="82.94" y1="118.85" x2="80.98" y2="121.57" />
                <polygon class="cls-4" points="59.19 135.29 59.2 146.16 66.11 143.91 66.1 133.04 59.19 135.29" />
                <polygon class="cls-8"
                    points="66.1 133.04 65.23 133.32 65.25 143.59 59.2 145.55 59.2 146.16 66.11 143.91 66.1 133.04" />
                <line class="cls-6" x1="62.51" y1="136.67" x2="60.83" y2="139.22" />
                <line class="cls-6" x1="63.82" y1="137.07" x2="60.41" y2="141.98" />
                <line class="cls-7" x1="63.63" y1="139.94" x2="61.67" y2="142.67" />
                <polygon class="cls-4" points="69.36 131.91 69.37 142.79 76.28 140.54 76.27 129.67 69.36 131.91" />
                <polygon class="cls-8"
                    points="76.27 129.67 75.4 129.95 75.41 140.22 69.37 142.18 69.37 142.79 76.28 140.54 76.27 129.67" />
                <line class="cls-6" x1="72.67" y1="133.3" x2="71" y2="135.84" />
                <line class="cls-6" x1="73.99" y1="133.7" x2="70.58" y2="138.61" />
                <line class="cls-7" x1="73.8" y1="136.57" x2="71.84" y2="139.3" />
                <polygon class="cls-4" points="78.54 128.73 78.55 139.6 85.46 137.36 85.45 126.48 78.54 128.73" />
                <polygon class="cls-8"
                    points="85.45 126.48 84.58 126.77 84.59 137.03 78.55 138.99 78.55 139.6 85.46 137.36 85.45 126.48" />
                <line class="cls-6" x1="81.85" y1="130.11" x2="80.18" y2="132.66" />
                <line class="cls-6" x1="83.17" y1="130.51" x2="79.76" y2="135.42" />
                <line class="cls-7" x1="82.98" y1="133.38" x2="81.01" y2="136.11" />
                <polygon class="cls-4" points="16.89 34.58 16.88 44.57 5.17 41.77 5.19 31.78 16.89 34.58" />
                <polygon class="cls-5"
                    points="5.93 32.92 16.89 35.55 16.89 34.58 5.19 31.78 5.17 41.77 5.91 41.95 5.93 32.92" />
                <line class="cls-6" x1="11.43" y1="35.64" x2="8.6" y2="37.8" />
                <line class="cls-6" x1="13.66" y1="36.14" x2="7.89" y2="40.3" />
                <line class="cls-7" x1="13.35" y1="38.77" x2="10.02" y2="41.06" />
                <polygon class="cls-4" points="33.54 38.95 33.52 48.94 21.81 46.14 21.83 36.15 33.54 38.95" />
                <polygon class="cls-5"
                    points="22.57 37.29 33.54 39.91 33.54 38.95 21.83 36.15 21.81 46.14 22.56 46.31 22.57 37.29" />
                <line class="cls-6" x1="28.08" y1="40.01" x2="25.24" y2="42.17" />
                <line class="cls-6" x1="30.31" y1="40.51" x2="24.54" y2="44.66" />
                <line class="cls-7" x1="29.99" y1="43.13" x2="26.66" y2="45.43" />
                <polygon class="cls-4" points="51.31 43.31 51.29 53.3 39.58 50.51 39.6 40.51 51.31 43.31" />
                <polygon class="cls-5"
                    points="40.34 41.66 51.31 44.28 51.31 43.31 39.6 40.51 39.58 50.51 40.33 50.68 40.34 41.66" />
                <line class="cls-6" x1="45.85" y1="44.37" x2="43.01" y2="46.53" />
                <line class="cls-6" x1="48.08" y1="44.88" x2="42.31" y2="49.03" />
                <line class="cls-7" x1="47.76" y1="47.5" x2="44.43" y2="49.8" />
                <polygon class="cls-4" points="16.89 49.76 16.88 59.75 5.17 56.95 5.19 46.96 16.89 49.76" />
                <polygon class="cls-5"
                    points="5.93 48.1 16.89 50.73 16.89 49.76 5.19 46.96 5.17 56.95 5.91 57.13 5.93 48.1" />
                <line class="cls-6" x1="11.43" y1="50.82" x2="8.6" y2="52.98" />
                <line class="cls-6" x1="13.66" y1="51.32" x2="7.89" y2="55.47" />
                <line class="cls-7" x1="13.35" y1="53.94" x2="10.02" y2="56.24" />
                <polygon class="cls-4" points="33.54 54.12 33.52 64.12 21.81 61.32 21.83 51.32 33.54 54.12" />
                <polygon class="cls-5"
                    points="22.57 52.47 33.54 55.09 33.54 54.12 21.83 51.32 21.81 61.32 22.56 61.49 22.57 52.47" />
                <line class="cls-6" x1="28.08" y1="55.19" x2="25.24" y2="57.35" />
                <line class="cls-6" x1="30.31" y1="55.69" x2="24.54" y2="59.84" />
                <line class="cls-7" x1="29.99" y1="58.31" x2="26.66" y2="60.61" />
                <polygon class="cls-4" points="51.31 58.49 51.29 68.48 39.58 65.68 39.6 55.69 51.31 58.49" />
                <polygon class="cls-5"
                    points="40.34 56.84 51.31 59.46 51.31 58.49 39.6 55.69 39.58 65.68 40.33 65.86 40.34 56.84" />
                <line class="cls-6" x1="45.85" y1="59.55" x2="43.01" y2="61.71" />
                <line class="cls-6" x1="48.08" y1="60.06" x2="42.31" y2="64.21" />
                <line class="cls-7" x1="47.76" y1="62.68" x2="44.43" y2="64.98" />
                <polygon class="cls-4" points="16.89 64.94 16.88 74.93 5.17 72.13 5.19 62.13 16.89 64.94" />
                <polygon class="cls-5"
                    points="5.93 63.28 16.89 65.91 16.89 64.94 5.19 62.13 5.17 72.13 5.91 72.31 5.93 63.28" />
                <line class="cls-6" x1="11.43" y1="66" x2="8.6" y2="68.16" />
                <line class="cls-6" x1="13.66" y1="66.5" x2="7.89" y2="70.65" />
                <line class="cls-7" x1="13.35" y1="69.12" x2="10.02" y2="71.42" />
                <polygon class="cls-4" points="33.54 69.3 33.52 79.3 21.81 76.5 21.83 66.5 33.54 69.3" />
                <polygon class="cls-5"
                    points="22.57 67.65 33.54 70.27 33.54 69.3 21.83 66.5 21.81 76.5 22.56 76.67 22.57 67.65" />
                <line class="cls-6" x1="28.08" y1="70.37" x2="25.24" y2="72.52" />
                <line class="cls-6" x1="30.31" y1="70.87" x2="24.54" y2="75.02" />
                <line class="cls-7" x1="29.99" y1="73.49" x2="26.66" y2="75.79" />
                <polygon class="cls-4" points="51.31 73.67 51.29 83.66 39.58 80.86 39.6 70.87 51.31 73.67" />
                <polygon class="cls-5"
                    points="40.34 72.02 51.31 74.64 51.31 73.67 39.6 70.87 39.58 80.86 40.33 81.04 40.34 72.02" />
                <line class="cls-6" x1="45.85" y1="74.73" x2="43.01" y2="76.89" />
                <line class="cls-6" x1="48.08" y1="75.24" x2="42.31" y2="79.39" />
                <line class="cls-7" x1="47.76" y1="77.86" x2="44.43" y2="80.15" />
                <polygon class="cls-4" points="16.89 80.11 16.88 90.11 5.17 87.31 5.19 77.31 16.89 80.11" />
                <polygon class="cls-5"
                    points="5.93 78.46 16.89 81.08 16.89 80.11 5.19 77.31 5.17 87.31 5.91 87.48 5.93 78.46" />
                <line class="cls-6" x1="11.43" y1="81.18" x2="8.6" y2="83.34" />
                <line class="cls-6" x1="13.66" y1="81.68" x2="7.89" y2="85.83" />
                <line class="cls-7" x1="13.35" y1="84.3" x2="10.02" y2="86.6" />
                <polygon class="cls-4" points="33.54 84.48 33.52 94.47 21.81 91.67 21.83 81.68 33.54 84.48" />
                <polygon class="cls-5"
                    points="22.57 82.83 33.54 85.45 33.54 84.48 21.83 81.68 21.81 91.67 22.56 91.85 22.57 82.83" />
                <line class="cls-6" x1="28.08" y1="85.54" x2="25.24" y2="87.7" />
                <line class="cls-6" x1="30.31" y1="86.05" x2="24.54" y2="90.2" />
                <line class="cls-7" x1="29.99" y1="88.67" x2="26.66" y2="90.97" />
                <polygon class="cls-4" points="51.31 88.85 51.29 98.84 39.58 96.04 39.6 86.05 51.31 88.85" />
                <polygon class="cls-5"
                    points="40.34 87.2 51.31 89.82 51.31 88.85 39.6 86.05 39.58 96.04 40.33 96.22 40.34 87.2" />
                <line class="cls-6" x1="45.85" y1="89.91" x2="43.01" y2="92.07" />
                <line class="cls-6" x1="48.08" y1="90.42" x2="42.31" y2="94.57" />
                <line class="cls-7" x1="47.76" y1="93.04" x2="44.43" y2="95.33" />
                <polygon class="cls-4" points="16.89 95.29 16.88 105.29 5.17 102.49 5.19 92.49 16.89 95.29" />
                <polygon class="cls-5"
                    points="5.93 93.64 16.89 96.26 16.89 95.29 5.19 92.49 5.17 102.49 5.91 102.66 5.93 93.64" />
                <line class="cls-6" x1="11.43" y1="96.36" x2="8.6" y2="98.52" />
                <line class="cls-6" x1="13.66" y1="96.86" x2="7.89" y2="101.01" />
                <line class="cls-7" x1="13.35" y1="99.48" x2="10.02" y2="101.78" />
                <polygon class="cls-4" points="33.54 99.66 33.52 109.65 21.81 106.85 21.83 96.86 33.54 99.66" />
                <polygon class="cls-5"
                    points="22.57 98.01 33.54 100.63 33.54 99.66 21.83 96.86 21.81 106.85 22.56 107.03 22.57 98.01" />
                <line class="cls-6" x1="28.08" y1="100.72" x2="25.24" y2="102.88" />
                <line class="cls-6" x1="30.31" y1="101.23" x2="24.54" y2="105.38" />
                <line class="cls-7" x1="29.99" y1="103.85" x2="26.66" y2="106.15" />
                <polygon class="cls-4" points="51.31 104.03 51.29 114.02 39.58 111.22 39.6 101.23 51.31 104.03" />
                <polygon class="cls-5"
                    points="40.34 102.38 51.31 105 51.31 104.03 39.6 101.23 39.58 111.22 40.33 111.4 40.34 102.38" />
                <line class="cls-6" x1="45.85" y1="105.09" x2="43.01" y2="107.25" />
                <line class="cls-6" x1="48.08" y1="105.6" x2="42.31" y2="109.75" />
                <line class="cls-7" x1="47.76" y1="108.22" x2="44.43" y2="110.51" />
                <polygon class="cls-4" points="16.89 110.47 16.88 120.47 5.17 117.67 5.19 107.67 16.89 110.47" />
                <polygon class="cls-5"
                    points="5.93 108.82 16.89 111.44 16.89 110.47 5.19 107.67 5.17 117.67 5.91 117.84 5.93 108.82" />
                <line class="cls-6" x1="11.43" y1="111.54" x2="8.6" y2="113.69" />
                <line class="cls-6" x1="13.66" y1="112.04" x2="7.89" y2="116.19" />
                <line class="cls-7" x1="13.35" y1="114.66" x2="10.02" y2="116.96" />
                <polygon class="cls-4" points="33.54 114.84 33.52 124.83 21.81 122.03 21.83 112.04 33.54 114.84" />
                <polygon class="cls-5"
                    points="22.57 113.19 33.54 115.81 33.54 114.84 21.83 112.04 21.81 122.03 22.56 122.21 22.57 113.19" />
                <line class="cls-6" x1="28.08" y1="115.9" x2="25.24" y2="118.06" />
                <line class="cls-6" x1="30.31" y1="116.41" x2="24.54" y2="120.56" />
                <line class="cls-7" x1="29.99" y1="119.03" x2="26.66" y2="121.32" />
                <polygon class="cls-4" points="51.31 119.21 51.29 129.2 39.58 126.4 39.6 116.41 51.31 119.21" />
                <polygon class="cls-5"
                    points="40.34 117.56 51.31 120.18 51.31 119.21 39.6 116.41 39.58 126.4 40.33 126.58 40.34 117.56" />
                <line class="cls-6" x1="45.85" y1="120.27" x2="43.01" y2="122.43" />
                <line class="cls-6" x1="48.08" y1="120.78" x2="42.31" y2="124.93" />
                <line class="cls-7" x1="47.76" y1="123.4" x2="44.43" y2="125.69" />
                <polygon class="cls-4" points="16.89 125.65 16.88 135.65 5.17 132.84 5.19 122.85 16.89 125.65" />
                <polygon class="cls-5"
                    points="5.93 124 16.89 126.62 16.89 125.65 5.19 122.85 5.17 132.84 5.91 133.02 5.93 124" />
                <line class="cls-6" x1="11.43" y1="126.71" x2="8.6" y2="128.87" />
                <line class="cls-6" x1="13.66" y1="127.22" x2="7.89" y2="131.37" />
                <line class="cls-7" x1="13.35" y1="129.84" x2="10.02" y2="132.14" />
                <polygon class="cls-4" points="33.54 130.02 33.52 140.01 21.81 137.21 21.83 127.22 33.54 130.02" />
                <polygon class="cls-5"
                    points="22.57 128.37 33.54 130.99 33.54 130.02 21.83 127.22 21.81 137.21 22.56 137.39 22.57 128.37" />
                <line class="cls-6" x1="28.08" y1="131.08" x2="25.24" y2="133.24" />
                <line class="cls-6" x1="30.31" y1="131.59" x2="24.54" y2="135.74" />
                <line class="cls-7" x1="29.99" y1="134.21" x2="26.66" y2="136.5" />
                <polygon class="cls-4" points="51.31 134.39 51.29 144.38 39.58 141.58 39.6 131.59 51.31 134.39" />
                <polygon class="cls-5"
                    points="40.34 132.74 51.31 135.36 51.31 134.39 39.6 131.59 39.58 141.58 40.33 141.76 40.34 132.74" />
                <line class="cls-6" x1="45.85" y1="135.45" x2="43.01" y2="137.61" />
                <line class="cls-6" x1="48.08" y1="135.96" x2="42.31" y2="140.11" />
                <line class="cls-7" x1="47.76" y1="138.58" x2="44.43" y2="140.87" />
            </g>
        </g>
    </g>
</svg>