<svg xmlns="http://www.w3.org/2000/svg" xmlns:xlink="http://www.w3.org/1999/xlink" viewBox="0 0 150.17 127.63">
    <defs>
        <style>
            .cls-1 {
                fill: #8ebed7;
            }

            .cls-2 {
                fill: #6f979e;
            }

            .cls-3 {
                fill: #bad9e2;
            }

            .cls-4 {
                fill: #d9ecf4;
            }

            .cls-5 {
                fill: url(#未命名的渐变_105);
            }

            .cls-6 {
                fill: url(#未命名的渐变_105-2);
            }

            .cls-7 {
                fill: url(#未命名的渐变_67);
            }

            .cls-8 {
                fill: url(#未命名的渐变_67-2);
            }

            .cls-9 {
                fill: #90c3d1;
            }

            .cls-10 {
                fill: #82a7af;
            }

            .cls-11 {
                fill: none;
                stroke: #5b7b82;
                stroke-miterlimit: 10;
            }

            .cls-12 {
                fill: url(#未命名的渐变_105-4);
            }

            .cls-13 {
                fill: url(#未命名的渐变_105-5);
            }

            .cls-14 {
                fill: url(#未命名的渐变_67-3);
            }

            .cls-15 {
                fill: url(#未命名的渐变_67-4);
            }

            .cls-16 {
                opacity: 0.2;
            }
        </style>
        <linearGradient id="未命名的渐变_105" x1="32.55" y1="41.19" x2="44.18" y2="41.19" gradientUnits="userSpaceOnUse">
            <stop offset="0" stop-color="#e2e2e2" />
            <stop offset="0.03" stop-color="#d0d0d0" />
            <stop offset="0.06" stop-color="#bcbcbc" />
            <stop offset="0.09" stop-color="#b5b5b5" />
            <stop offset="0.49" stop-color="#f6f6f6" />
            <stop offset="0.63" stop-color="#f3f3f3" />
            <stop offset="0.73" stop-color="#eaeaea" />
            <stop offset="0.82" stop-color="#dbdbdb" />
            <stop offset="0.9" stop-color="#c6c6c6" />
            <stop offset="0.97" stop-color="#aaa" />
            <stop offset="1" stop-color="#9b9b9b" />
        </linearGradient>
        <linearGradient id="未命名的渐变_105-2" x1="35.46" y1="12.59" x2="41.27" y2="12.59" xlink:href="#未命名的渐变_105" />
        <linearGradient id="未命名的渐变_67" x1="35.46" y1="4.46" x2="41.27" y2="4.46" gradientUnits="userSpaceOnUse">
            <stop offset="0" stop-color="#6b6b6b" />
            <stop offset="0.11" stop-color="#767676" />
            <stop offset="0.3" stop-color="#959595" />
            <stop offset="0.41" stop-color="#aaa" />
            <stop offset="0.56" stop-color="#ccc" />
            <stop offset="0.71" stop-color="#eaeaea" />
            <stop offset="0.8" stop-color="#f6f6f6" />
            <stop offset="0.83" stop-color="#ededed" />
            <stop offset="0.87" stop-color="#d4d4d4" />
            <stop offset="0.92" stop-color="#ababab" />
            <stop offset="0.98" stop-color="#737373" />
            <stop offset="0.99" stop-color="#666" />
        </linearGradient>
        <linearGradient id="未命名的渐变_67-2" x1="35.46" y1="8.16" x2="41.27" y2="8.16" xlink:href="#未命名的渐变_67" />
        <linearGradient id="未命名的渐变_105-4" x1="56.64" y1="42.7" x2="68.27" y2="42.7" xlink:href="#未命名的渐变_105" />
        <linearGradient id="未命名的渐变_105-5" x1="59.55" y1="14.1" x2="65.36" y2="14.1" xlink:href="#未命名的渐变_105" />
        <linearGradient id="未命名的渐变_67-3" x1="59.55" y1="5.97" x2="65.36" y2="5.97" xlink:href="#未命名的渐变_67" />
        <linearGradient id="未命名的渐变_67-4" x1="59.55" y1="9.68" x2="65.36" y2="9.68" xlink:href="#未命名的渐变_67" />
    </defs>
    <title>factory(工厂)</title>
    <g id="图层_2" data-name="图层 2">
        <g id="图层_10" data-name="图层 10">
            <g id="factory_工厂_" data-name="factory(工厂)">
                <polygon class="cls-1" points="100.66 68.21 149.92 58 150.06 117.42 100.8 127.63 100.66 68.21" />
                <polygon class="cls-2" points="105.97 82.99 114.33 81.41 114.4 92.45 106.03 94.04 105.97 82.99" />
                <polygon class="cls-2" points="116.61 80.74 124.97 79.06 125.03 90.74 116.67 92.42 116.61 80.74" />
                <polygon class="cls-2" points="127.24 78.4 135.61 76.72 135.67 88.39 127.31 90.07 127.24 78.4" />
                <polygon class="cls-2" points="137.88 76.11 146.25 74.38 146.31 86.41 137.95 88.13 137.88 76.11" />
                <polygon class="cls-3" points="0.04 60.44 32.4 54.15 131.54 61.81 100.66 68.21 0.04 60.44" />
                <polygon class="cls-3" points="55.84 64.33 105.1 54.12 149.92 58 100.66 68.21 55.84 64.33" />
                <polygon class="cls-4" points="100.66 68.21 100.8 127.63 0.18 119.86 0.04 60.44 100.66 68.21" />
                <polygon class="cls-5" points="44.17 22.84 44.18 60.44 32.56 59.54 32.55 21.94 44.17 22.84" />
                <polygon class="cls-6" points="41.27 0.45 41.27 25.18 35.46 24.73 35.45 0 41.27 0.45" />
                <polygon class="cls-7" points="41.27 3.79 41.27 5.58 35.46 5.13 35.46 3.34 41.27 3.79" />
                <polygon class="cls-8" points="41.27 7.5 41.27 9.28 35.46 8.83 35.46 7.05 41.27 7.5" />
                <polygon class="cls-9" points="23.79 78.31 23.82 89.57 4.75 88.1 4.72 76.84 23.79 78.31" />
                <polygon class="cls-10"
                    points="5.93 77.67 23.8 79.05 23.79 78.31 4.72 76.84 4.75 88.1 5.95 88.19 5.93 77.67" />
                <polygon class="cls-9" points="47.89 80.08 47.92 91.34 28.85 89.87 28.82 78.61 47.89 80.08" />
                <polygon class="cls-10"
                    points="30.03 79.43 47.89 80.81 47.89 80.08 28.82 78.61 28.85 89.87 30.05 89.96 30.03 79.43" />
                <polygon class="cls-9" points="71.99 81.73 72.02 93 52.95 91.52 52.92 80.26 71.99 81.73" />
                <polygon class="cls-10"
                    points="54.13 81.09 71.99 82.47 71.99 81.73 52.92 80.26 52.95 91.52 54.15 91.61 54.13 81.09" />
                <polygon class="cls-9" points="96.09 83.39 96.12 94.65 77.05 93.18 77.02 81.92 96.09 83.39" />
                <polygon class="cls-10"
                    points="78.22 82.74 96.09 84.12 96.09 83.39 77.02 81.92 77.05 93.18 78.25 93.27 78.22 82.74" />
                <polygon class="cls-9" points="23.79 99.07 23.82 110.33 4.75 108.86 4.72 97.6 23.79 99.07" />
                <polygon class="cls-10"
                    points="5.93 98.42 23.8 99.8 23.79 99.07 4.72 97.6 4.75 108.86 5.95 108.95 5.93 98.42" />
                <polygon class="cls-9" points="47.89 100.72 47.92 111.98 28.85 110.51 28.82 99.25 47.89 100.72" />
                <polygon class="cls-10"
                    points="30.03 100.08 47.89 101.46 47.89 100.72 28.82 99.25 28.85 110.51 30.05 110.6 30.03 100.08" />
                <polygon class="cls-9" points="71.99 102.38 72.02 113.64 52.95 112.17 52.92 100.9 71.99 102.38" />
                <polygon class="cls-10"
                    points="54.13 101.73 71.99 103.11 71.99 102.38 52.92 100.9 52.95 112.17 54.15 112.26 54.13 101.73" />
                <polygon class="cls-9" points="96.09 104.03 96.12 115.29 77.05 113.82 77.02 102.56 96.09 104.03" />
                <polygon class="cls-10"
                    points="78.22 103.39 96.09 104.77 96.09 104.03 77.02 102.56 77.05 113.82 78.25 113.91 78.22 103.39" />
                <line class="cls-11" x1="0.04" y1="76.02" x2="100.8" y2="83.83" />
                <line class="cls-11" x1="150.06" y1="73.27" x2="100.66" y2="83.83" />
                <line class="cls-11" x1="150.06" y1="85.19" x2="100.59" y2="95.55" />
                <polygon class="cls-2" points="105.97 103.51 114.33 101.93 114.4 112.97 106.03 114.56 105.97 103.51" />
                <polygon class="cls-2" points="116.61 101.26 124.97 99.59 125.03 111.26 116.67 112.94 116.61 101.26" />
                <polygon class="cls-2" points="127.24 98.92 135.61 97.24 135.67 108.91 127.31 110.59 127.24 98.92" />
                <polygon class="cls-2" points="137.88 96.63 146.25 94.9 146.31 106.93 137.95 108.65 137.88 96.63" />
                <line class="cls-11" x1="150.06" y1="93.79" x2="100.66" y2="104.35" />
                <line class="cls-11" x1="150.06" y1="105.71" x2="100.59" y2="116.07" />
                <line class="cls-11" x1="0.04" y1="87.71" x2="100.8" y2="95.52" />
                <line class="cls-11" x1="0.06" y1="97" x2="100.82" y2="104.81" />
                <line class="cls-11" x1="0.04" y1="108.35" x2="100.8" y2="116.16" />
                <polygon class="cls-5" points="44.17 22.84 44.18 60.44 32.56 59.54 32.55 21.94 44.17 22.84" />
                <polygon class="cls-12" points="68.26 24.35 68.27 61.95 56.65 61.05 56.64 23.45 68.26 24.35" />
                <polygon class="cls-13" points="65.36 1.96 65.36 26.69 59.55 26.24 59.55 1.51 65.36 1.96" />
                <polygon class="cls-14" points="65.36 5.3 65.36 7.09 59.55 6.64 59.55 4.86 65.36 5.3" />
                <polygon class="cls-15" points="65.36 9.01 65.36 10.79 59.55 10.34 59.55 8.56 65.36 9.01" />
                <polygon class="cls-12" points="68.26 24.35 68.27 61.95 56.65 61.05 56.64 23.45 68.26 24.35" />

            </g>
        </g>
    </g>
</svg>