<svg xmlns="http://www.w3.org/2000/svg" xmlns:xlink="http://www.w3.org/1999/xlink" viewBox="0 0 148.03 149.94">
    <defs>
        <style>
            .cls-1 {
                fill: #8ebed7;
            }

            .cls-2 {
                fill: #bad9e2;
            }

            .cls-3 {
                fill: #d9ecf4;
            }

            .cls-4 {
                fill: #90c3d1;
            }

            .cls-5 {
                fill: url(#未命名的渐变_105);
            }

            .cls-6 {
                fill: #82a7af;
            }

            .cls-7 {
                fill: url(#未命名的渐变_105-2);
            }

            .cls-8 {
                fill: url(#未命名的渐变_105-3);
            }

            .cls-9 {
                fill: url(#未命名的渐变_105-4);
            }

            .cls-10 {
                opacity: 0.2;
            }
        </style>
        <linearGradient id="未命名的渐变_105" x1="50.54" y1="26.57" x2="62.18" y2="26.57" gradientUnits="userSpaceOnUse">
            <stop offset="0" stop-color="#e2e2e2" />
            <stop offset="0.03" stop-color="#d0d0d0" />
            <stop offset="0.06" stop-color="#bcbcbc" />
            <stop offset="0.09" stop-color="#b5b5b5" />
            <stop offset="0.49" stop-color="#f6f6f6" />
            <stop offset="0.63" stop-color="#f3f3f3" />
            <stop offset="0.73" stop-color="#eaeaea" />
            <stop offset="0.82" stop-color="#dbdbdb" />
            <stop offset="0.9" stop-color="#c6c6c6" />
            <stop offset="0.97" stop-color="#aaa" />
            <stop offset="1" stop-color="#9b9b9b" />
        </linearGradient>
        <linearGradient id="未命名的渐变_105-2" x1="45.4" y1="6.02" x2="66.6" y2="6.02" xlink:href="#未命名的渐变_105" />
        <linearGradient id="未命名的渐变_105-3" x1="92.74" y1="36.7" x2="100.01" y2="36.7" xlink:href="#未命名的渐变_105" />
        <linearGradient id="未命名的渐变_105-4" x1="89.53" y1="23.86" x2="102.78" y2="23.86" xlink:href="#未命名的渐变_105" />
    </defs>
    <title>Industrial building (工業建築)</title>
    <g id="图层_2" data-name="图层 2">
        <g id="图层_10" data-name="图层 10">
            <g id="Industrial_building_工業建築_" data-name="Industrial building (工業建築)">
                <polygon class="cls-1" points="111.88 53.7 147.87 43.52 148.03 139.76 112.04 149.94 111.88 53.7" />
                <polygon class="cls-2" points="0 41.12 35.98 30.94 147.87 43.52 111.88 53.7 0 41.12" />
                <polygon class="cls-3" points="111.88 53.7 112.04 149.94 0.16 137.35 0 41.12 111.88 53.7" />
                <polygon class="cls-4" points="26.41 52.77 26.44 71.01 5.24 68.62 5.21 50.38 26.41 52.77" />
                <polygon class="cls-5" points="62.16 11.59 62.18 42.87 50.56 41.56 50.54 10.28 62.16 11.59" />
                <polygon class="cls-6"
                    points="6.55 51.72 26.42 53.96 26.41 52.77 5.21 50.38 5.24 68.62 6.58 68.77 6.55 51.72" />
                <polygon class="cls-4" points="53.21 55.45 53.24 73.69 32.04 71.3 32.01 53.06 53.21 55.45" />
                <polygon class="cls-6"
                    points="33.35 54.4 53.21 56.64 53.21 55.45 32.01 53.06 32.04 71.3 33.37 71.45 33.35 54.4" />
                <polygon class="cls-4" points="80.01 58.13 80.04 76.36 58.83 73.98 58.8 55.74 80.01 58.13" />
                <polygon class="cls-6"
                    points="60.14 57.08 80.01 59.32 80.01 58.13 58.8 55.74 58.83 73.98 60.17 74.13 60.14 57.08" />
                <polygon class="cls-4" points="106.8 60.81 106.83 79.05 85.63 76.66 85.6 58.42 106.8 60.81" />
                <polygon class="cls-6"
                    points="86.94 59.76 106.8 62 106.8 60.81 85.6 58.42 85.63 76.66 86.97 76.81 86.94 59.76" />
                <polygon class="cls-4" points="26.41 78.22 26.44 96.46 5.24 94.08 5.21 75.84 26.41 78.22" />
                <polygon class="cls-6"
                    points="6.55 77.18 26.42 79.41 26.41 78.22 5.21 75.84 5.24 94.08 6.58 94.23 6.55 77.18" />
                <polygon class="cls-4" points="53.21 80.9 53.24 99.14 32.04 96.76 32.01 78.52 53.21 80.9" />
                <polygon class="cls-6"
                    points="33.35 79.86 53.21 82.09 53.21 80.9 32.01 78.52 32.04 96.76 33.37 96.91 33.35 79.86" />
                <polygon class="cls-4" points="80.01 83.58 80.04 101.82 58.83 99.44 58.8 81.2 80.01 83.58" />
                <polygon class="cls-6"
                    points="60.14 82.54 80.01 84.77 80.01 83.58 58.8 81.2 58.83 99.44 60.17 99.59 60.14 82.54" />
                <polygon class="cls-4" points="106.8 86.26 106.83 104.5 85.63 102.12 85.6 83.88 106.8 86.26" />
                <polygon class="cls-6"
                    points="86.94 85.22 106.8 87.45 106.8 86.26 85.6 83.88 85.63 102.12 86.97 102.27 86.94 85.22" />
                <polygon class="cls-4" points="26.41 103.68 26.44 121.92 5.24 119.53 5.21 101.3 26.41 103.68" />
                <polygon class="cls-6"
                    points="6.55 102.64 26.42 104.87 26.41 103.68 5.21 101.3 5.24 119.53 6.58 119.68 6.55 102.64" />
                <polygon class="cls-4" points="53.21 106.36 53.24 124.6 32.04 122.21 32.01 103.97 53.21 106.36" />
                <polygon class="cls-6"
                    points="33.35 105.31 53.21 107.55 53.21 106.36 32.01 103.97 32.04 122.21 33.37 122.36 33.35 105.31" />
                <polygon class="cls-4" points="80.01 109.04 80.04 127.28 58.83 124.89 58.8 106.65 80.01 109.04" />
                <polygon class="cls-6"
                    points="60.14 107.99 80.01 110.23 80.01 109.04 58.8 106.65 58.83 124.89 60.17 125.04 60.14 107.99" />
                <polygon class="cls-4" points="106.8 111.72 106.83 129.96 85.63 127.57 85.6 109.33 106.8 111.72" />
                <polygon class="cls-6"
                    points="86.94 110.67 106.8 112.91 106.8 111.72 85.6 109.33 85.63 127.57 86.97 127.72 86.94 110.67" />
                <polygon class="cls-7" points="66.58 2.04 66.6 12.04 45.42 9.99 45.4 0 66.58 2.04" />
                <polygon class="cls-8" points="100 27.34 100.01 46.89 92.75 46.07 92.74 26.52 100 27.34" />
                <polygon class="cls-9" points="102.77 21.37 102.78 27.62 89.54 26.34 89.53 20.1 102.77 21.37" />
               
            </g>
        </g>
    </g>
</svg>