<svg xmlns="http://www.w3.org/2000/svg" viewBox="0 0 150.06 76.07">
    <defs>
        <style>
            .cls-1 {
                fill: #8e8e8e;
            }

            .cls-2 {
                fill: #c9c9c9;
            }

            .cls-3 {
                fill: #b2b2b2;
            }

            .cls-4 {
                fill: #e5e5e5;
            }

            .cls-5 {
                fill: #acdddb;
            }

            .cls-10,
            .cls-6 {
                fill: #d9d9d9;
            }

            .cls-6 {
                stroke: #aaa;
            }

            .cls-11,
            .cls-6 {
                stroke-miterlimit: 10;
            }

            .cls-7 {
                fill: #99b5b4;
            }

            .cls-11,
            .cls-8,
            .cls-9 {
                fill: none;
            }

            .cls-8 {
                stroke: #fff;
                opacity: 0.65;
            }

            .cls-8,
            .cls-9 {
                stroke-linecap: round;
                stroke-linejoin: round;
            }

            .cls-9 {
                stroke: #a3c1c0;
                opacity: 0.33;
            }

            .cls-11 {
                stroke: #999;
                stroke-width: 0.5px;
            }

            .cls-12 {
                opacity: 0.2;
            }
        </style>
    </defs>
    <title>Industrial building with slanted roof(斜屋顶工业建筑)</title>
    <g id="图层_2" data-name="图层 2">
        <g id="图层_10" data-name="图层 10">
            <g id="Industrial_building_with_slanted_roof_斜屋顶工业建筑_"
                data-name="Industrial building with slanted roof(斜屋顶工业建筑)">
                <polyline class="cls-1" points="135.71 0.07 150.06 23.8 128.53 23.8" />
                <polygon class="cls-2" points="5.42 34.88 17.38 27.48 132.57 28.34 120.61 35.74 5.42 34.88" />
                <polygon class="cls-3"
                    points="119.59 27.41 133.04 7.6 139.72 23.8 139.72 64.67 121.05 76.07 119.59 27.41" />
                <polygon class="cls-4" points="5.86 75.14 5.42 34.81 120.61 35.67 121.05 76 5.86 75.14" />
                <polygon class="cls-5" points="64.81 55.4 64.66 41.63 79.59 41.78 79.74 55.55 64.81 55.4" />
                <polygon class="cls-6" points="24.56 74.97 24.41 38.98 39.33 39.16 39.49 75.35 24.56 74.97" />
                <polygon class="cls-7"
                    points="65.81 42.89 79.6 43.03 79.59 41.78 64.66 41.63 64.81 55.4 65.95 55.41 65.81 42.89" />
                <line class="cls-8" x1="73.96" y1="47.67" x2="68.05" y2="53.58" />
                <line class="cls-9" x1="76.8" y1="49.06" x2="71.97" y2="53.89" />
                <line class="cls-8" x1="72.59" y1="44.5" x2="67.76" y2="49.33" />
                <polygon class="cls-5" points="85.32 55.4 85.17 41.63 100.09 41.78 100.25 55.55 85.32 55.4" />
                <polygon class="cls-7"
                    points="86.32 42.89 100.11 43.03 100.09 41.78 85.17 41.63 85.32 55.4 86.46 55.41 86.32 42.89" />
                <line class="cls-8" x1="94.47" y1="47.67" x2="88.56" y2="53.58" />
                <line class="cls-9" x1="97.31" y1="49.06" x2="92.48" y2="53.89" />
                <line class="cls-8" x1="93.1" y1="44.5" x2="88.27" y2="49.33" />
                <polygon class="cls-5" points="26.08 51.71 25.96 40.78 37.81 40.9 37.93 51.83 26.08 51.71" />
                <polygon class="cls-7"
                    points="26.88 41.78 37.82 41.89 37.81 40.9 25.96 40.78 26.08 51.71 26.99 51.72 26.88 41.78" />
                <line class="cls-8" x1="33.34" y1="45.57" x2="28.66" y2="50.26" />
                <line class="cls-9" x1="35.6" y1="46.68" x2="31.76" y2="50.51" />
                <line class="cls-8" x1="32.26" y1="43.06" x2="28.43" y2="46.89" />
                <polygon class="cls-5" points="104.66 55.4 104.51 41.63 119.44 41.78 119.59 55.55 104.66 55.4" />
                <polygon class="cls-7"
                    points="105.66 42.89 119.45 43.03 119.44 41.78 104.51 41.63 104.66 55.4 105.8 55.41 105.66 42.89" />
                <line class="cls-8" x1="113.81" y1="47.67" x2="107.9" y2="53.58" />
                <line class="cls-9" x1="116.65" y1="49.06" x2="111.82" y2="53.89" />
                <line class="cls-8" x1="112.44" y1="44.5" x2="107.61" y2="49.33" />
                <polygon class="cls-10" points="125.48 34.77 0.18 34.77 10.4 0.07 135.71 0.07 125.48 34.77" />
                <line class="cls-11" x1="10.47" y1="0.07" x2="0.24" y2="34.77" />
                <line class="cls-11" x1="16.43" y1="0.07" x2="6.2" y2="34.77" />
                <line class="cls-11" x1="22.39" y1="0.07" x2="12.16" y2="34.77" />
                <line class="cls-11" x1="28.35" y1="0.07" x2="18.12" y2="34.77" />
                <line class="cls-11" x1="34.31" y1="0.07" x2="24.08" y2="34.77" />
                <line class="cls-11" x1="40.27" y1="0.07" x2="30.04" y2="34.77" />
                <line class="cls-11" x1="46.23" y1="0.07" x2="36" y2="34.77" />
                <line class="cls-11" x1="52.19" y1="0.07" x2="41.97" y2="34.77" />
                <line class="cls-11" x1="58.15" y1="0.07" x2="47.93" y2="34.77" />
                <line class="cls-11" x1="64.11" y1="0.07" x2="53.89" y2="34.77" />
                <line class="cls-11" x1="70.07" y1="0.07" x2="59.85" y2="34.77" />
                <line class="cls-11" x1="76.03" y1="0.07" x2="65.81" y2="34.77" />
                <line class="cls-11" x1="82" y1="0.07" x2="71.77" y2="34.77" />
                <line class="cls-11" x1="87.96" y1="0.07" x2="77.73" y2="34.77" />
                <line class="cls-11" x1="93.92" y1="0.07" x2="83.69" y2="34.77" />
                <line class="cls-11" x1="99.88" y1="0.07" x2="89.65" y2="34.77" />
                <line class="cls-11" x1="105.84" y1="0.07" x2="95.61" y2="34.77" />
                <line class="cls-11" x1="111.8" y1="0.07" x2="101.57" y2="34.77" />
                <line class="cls-11" x1="117.76" y1="0.07" x2="107.53" y2="34.77" />
                <line class="cls-11" x1="123.72" y1="0.07" x2="113.49" y2="34.77" />
                <line class="cls-11" x1="129.68" y1="0.07" x2="119.46" y2="34.77" />
                <line class="cls-11" x1="135.64" y1="0.07" x2="125.42" y2="34.77" />
               
            </g>
        </g>
    </g>
</svg>