<svg xmlns="http://www.w3.org/2000/svg" viewBox="0 0 150 57.13">
    <defs>
        <style>
            .cls-1 {
                fill: #c9c9c9;
            }

            .cls-2 {
                fill: #b2b2b2;
            }

            .cls-3 {
                fill: #e5e5e5;
            }

            .cls-4,
            .cls-7,
            .cls-8 {
                fill: none;
            }

            .cls-4 {
                stroke: #b2b2b2;
                stroke-miterlimit: 10;
            }

            .cls-5 {
                fill: #acdddb;
            }

            .cls-6 {
                fill: #99b5b4;
            }

            .cls-7 {
                stroke: #fff;
                opacity: 0.65;
            }

            .cls-7,
            .cls-8 {
                stroke-linecap: round;
                stroke-linejoin: round;
            }

            .cls-8 {
                stroke: #a3c1c0;
                opacity: 0.33;
            }

            .cls-9 {
                opacity: 0.2;
            }
        </style>
    </defs>
    <title>Modular office (模塊化辦公室)</title>
    <g id="图层_2" data-name="图层 2">
        <g id="图层_10" data-name="图层 10">
            <g id="Modular_office_模塊化辦公室_" data-name="Modular office (模塊化辦公室)">
                <polygon class="cls-1" points="0 8.71 14.07 0 149.48 1.01 135.41 9.72 0 8.71" />
                <polygon class="cls-2" points="135.41 9.72 149.48 1.01 150 48.42 135.93 57.13 135.41 9.72" />
                <polygon class="cls-3" points="0.52 56.03 0 8.62 135.41 9.63 135.93 57.04 0.52 56.03" />
                <line class="cls-4" x1="21.51" y1="8.71" x2="21.51" y2="56.11" />
                <line class="cls-4" x1="44.55" y1="8.99" x2="44.55" y2="56.4" />
                <line class="cls-4" x1="67.59" y1="9.25" x2="67.59" y2="56.66" />
                <line class="cls-4" x1="90.63" y1="9.4" x2="90.63" y2="56.81" />
                <line class="cls-4" x1="113.67" y1="9.72" x2="113.67" y2="57.13" />
                <polygon class="cls-5" points="1.61 32.83 1.43 16.64 18.98 16.81 19.16 33 1.61 32.83" />
                <polygon class="cls-6"
                    points="2.78 18.12 18.99 18.28 18.98 16.81 1.43 16.64 1.61 32.83 2.94 32.84 2.78 18.12" />
                <line class="cls-7" x1="12.36" y1="23.74" x2="5.42" y2="30.68" />
                <line class="cls-8" x1="15.7" y1="25.38" x2="10.02" y2="31.05" />
                <line class="cls-7" x1="10.75" y1="20.02" x2="5.08" y2="25.69" />
                <polygon class="cls-5" points="24.34 32.83 24.17 16.64 41.72 16.81 41.89 33 24.34 32.83" />
                <polygon class="cls-6"
                    points="25.52 18.12 41.73 18.28 41.72 16.81 24.17 16.64 24.34 32.83 25.68 32.84 25.52 18.12" />
                <line class="cls-7" x1="35.1" y1="23.74" x2="28.15" y2="30.68" />
                <line class="cls-8" x1="38.44" y1="25.38" x2="32.76" y2="31.05" />
                <line class="cls-7" x1="33.49" y1="20.02" x2="27.81" y2="25.69" />
                <polygon class="cls-5" points="47.08 32.83 46.91 16.64 64.45 16.81 64.63 33 47.08 32.83" />
                <polygon class="cls-6"
                    points="48.26 18.12 64.47 18.28 64.45 16.81 46.91 16.64 47.08 32.83 48.42 32.84 48.26 18.12" />
                <line class="cls-7" x1="57.84" y1="23.74" x2="50.89" y2="30.68" />
                <line class="cls-8" x1="61.17" y1="25.38" x2="55.5" y2="31.05" />
                <line class="cls-7" x1="56.23" y1="20.02" x2="50.55" y2="25.69" />
                <polygon class="cls-5" points="69.82 32.83 69.64 16.64 87.19 16.81 87.37 33 69.82 32.83" />
                <polygon class="cls-6"
                    points="71 18.12 87.21 18.28 87.19 16.81 69.64 16.64 69.82 32.83 71.16 32.84 71 18.12" />
                <line class="cls-7" x1="80.57" y1="23.74" x2="73.63" y2="30.68" />
                <line class="cls-8" x1="83.91" y1="25.38" x2="78.24" y2="31.05" />
                <line class="cls-7" x1="78.97" y1="20.02" x2="73.29" y2="25.69" />
                <polygon class="cls-5" points="93.93 32.83 93.75 16.64 111.3 16.81 111.48 33 93.93 32.83" />
                <polygon class="cls-6"
                    points="95.1 18.12 111.31 18.28 111.3 16.81 93.75 16.64 93.93 32.83 95.27 32.84 95.1 18.12" />
                <line class="cls-7" x1="104.68" y1="23.74" x2="97.74" y2="30.68" />
                <line class="cls-8" x1="108.02" y1="25.38" x2="102.34" y2="31.05" />
                <line class="cls-7" x1="103.08" y1="20.02" x2="97.4" y2="25.69" />
                <polygon class="cls-5" points="116.67 32.83 116.49 16.64 134.04 16.81 134.22 33 116.67 32.83" />
                <polygon class="cls-6"
                    points="117.84 18.12 134.05 18.28 134.04 16.81 116.49 16.64 116.67 32.83 118 32.84 117.84 18.12" />
                <line class="cls-7" x1="127.42" y1="23.74" x2="120.48" y2="30.68" />
                <line class="cls-8" x1="130.76" y1="25.38" x2="125.08" y2="31.05" />
                <line class="cls-7" x1="125.81" y1="20.02" x2="120.14" y2="25.69" />
               
            </g>
        </g>
    </g>
</svg>