<svg xmlns="http://www.w3.org/2000/svg" viewBox="0 0 116.36 150">
    <defs>
        <style>
            .cls-1 {
                fill: #ccc;
            }

            .cls-2 {
                fill: #8e8e8e;
            }

            .cls-3,
            .cls-7,
            .cls-8 {
                fill: #b2b2b2;
            }

            .cls-4 {
                fill: #e5e5e5;
            }

            .cls-5,
            .cls-6 {
                fill: none;
            }

            .cls-5,
            .cls-9 {
                stroke: #b2b2b2;
            }

            .cls-5,
            .cls-7,
            .cls-8,
            .cls-9 {
                stroke-miterlimit: 10;
            }

            .cls-6,
            .cls-7,
            .cls-8 {
                stroke: #777;
            }

            .cls-6 {
                stroke-linecap: round;
                stroke-linejoin: round;
            }

            .cls-8,
            .cls-9 {
                stroke-width: 0.5px;
            }

            .cls-9 {
                fill: #777;
            }

            .cls-10 {
                opacity: 0.2;
            }
        </style>
    </defs>
    <title>Outdoor enclosure（室外围墙）</title>
    <g id="图层_2" data-name="图层 2">
        <g id="图层_10" data-name="图层 10">
            <g id="Outdoor_enclosure_室外围墙_" data-name="Outdoor enclosure（室外围墙）">
                <polygon class="cls-1" points="69.89 0 47.36 21.97 0.42 45.1 22.95 23.13 69.89 0" />
                <polygon class="cls-2" points="115.8 128.03 93.27 150 93.69 55.78 116.22 33.81 115.8 128.03" />
                <polygon class="cls-3" points="116.22 33.81 93.69 55.78 47.36 21.97 69.89 0 116.22 33.81" />
                <polygon class="cls-4" points="47.36 21.97 93.69 55.78 93.27 150 0 139.32 0.42 45.1 47.36 21.97" />
                <line class="cls-5" x1="0.42" y1="45.1" x2="93.69" y2="55.78" />
                <line class="cls-5" x1="0.21" y1="132.05" x2="93.48" y2="142.73" />
                <line class="cls-6" x1="93.32" y1="142.73" x2="115.86" y2="121.24" />
                <line class="cls-6" x1="96.46" y1="53.52" x2="96.46" y2="140.2" />
                <line class="cls-6" x1="99.42" y1="50.13" x2="99.42" y2="136.81" />
                <line class="cls-6" x1="102.38" y1="47.92" x2="102.38" y2="134.6" />
                <line class="cls-6" x1="105.34" y1="44.54" x2="105.34" y2="131.22" />
                <line class="cls-6" x1="108.3" y1="42.33" x2="108.3" y2="129.01" />
                <line class="cls-6" x1="111.26" y1="38.94" x2="111.26" y2="125.62" />
                <line class="cls-6" x1="114.22" y1="36.73" x2="114.22" y2="123.41" />
                <line class="cls-5" x1="7.71" y1="45.94" x2="7.71" y2="132.82" />
                <line class="cls-5" x1="26.22" y1="135.35" x2="26.22" y2="48.46" />
                <line class="cls-5" x1="44.72" y1="49.81" x2="44.72" y2="136.69" />
                <line class="cls-5" x1="63.23" y1="52.33" x2="63.23" y2="139.22" />
                <line class="cls-5" x1="81.73" y1="54.86" x2="81.73" y2="141.74" />
                <polygon class="cls-7" points="59.32 134.07 30.13 130.69 30.13 54.79 59.32 58.17 59.32 134.07" />
                <polygon class="cls-8" points="55.42 128.1 34.02 125.62 34.02 60.54 55.42 63.02 55.42 128.1" />
                <polygon class="cls-9" points="61.3 73.5 57.75 73.08 57.75 62.54 61.3 62.97 61.3 73.5" />
                <polygon class="cls-9" points="61.3 100.34 57.75 99.92 57.75 89.38 61.3 89.81 61.3 100.34" />
                <polygon class="cls-9" points="35.8 103.78 32.25 103.36 32.25 92.82 35.8 93.25 35.8 103.78" />
                <polygon class="cls-9" points="61.3 127.18 57.75 126.75 57.75 116.22 61.3 116.64 61.3 127.18" />
                
            </g>
        </g>
    </g>
</svg>