<svg xmlns="http://www.w3.org/2000/svg" xmlns:xlink="http://www.w3.org/1999/xlink" viewBox="0 0 150 119.49">
    <defs>
        <style>
            .cls-1 {
                fill: #e5e5e5;
            }

            .cls-2,
            .cls-3,
            .cls-4,
            .cls-6,
            .cls-7,
            .cls-8 {
                fill: none;
                stroke-miterlimit: 10;
            }

            .cls-2 {
                stroke: url(#未命名的渐变_74);
            }

            .cls-3 {
                stroke: url(#未命名的渐变_74-2);
            }

            .cls-4 {
                stroke: url(#未命名的渐变_74-3);
            }

            .cls-5 {
                fill: url(#未命名的渐变_74-4);
            }

            .cls-6 {
                stroke: url(#未命名的渐变_74-5);
            }

            .cls-7 {
                stroke: url(#未命名的渐变_74-6);
            }

            .cls-8 {
                stroke: #7c7c7c;
                stroke-width: 0.5px;
            }

            .cls-9 {
                fill: url(#未命名的渐变_74-7);
            }

            .cls-10 {
                fill: url(#未命名的渐变_74-8);
            }

            .cls-11 {
                fill: url(#未命名的渐变_74-9);
            }

            .cls-12 {
                fill: url(#未命名的渐变_74-10);
            }

            .cls-13 {
                fill: url(#未命名的渐变_74-11);
            }

            .cls-14 {
                fill: url(#未命名的渐变_74-12);
            }

            .cls-15 {
                fill: url(#未命名的渐变_74-13);
            }

            .cls-16 {
                fill: #b2b2b2;
            }

            .cls-17 {
                fill: #c9c9c9;
            }

            .cls-18 {
                opacity: 0.2;
            }
        </style>
        <linearGradient id="未命名的渐变_74" x1="11.42" y1="73.12" x2="24.86" y2="73.12" gradientUnits="userSpaceOnUse">
            <stop offset="0" stop-color="#6b6b6b" />
            <stop offset="0.01" stop-color="#767676" />
            <stop offset="0.03" stop-color="#959595" />
            <stop offset="0.04" stop-color="#aaa" />
            <stop offset="0.37" stop-color="#ccc" />
            <stop offset="0.74" stop-color="#eaeaea" />
            <stop offset="0.94" stop-color="#f6f6f6" />
            <stop offset="0.95" stop-color="#ededed" />
            <stop offset="0.96" stop-color="#d4d4d4" />
            <stop offset="0.97" stop-color="#ababab" />
            <stop offset="0.99" stop-color="#737373" />
            <stop offset="0.99" stop-color="#666" />
        </linearGradient>
        <linearGradient id="未命名的渐变_74-2" x1="28.57" y1="73.12" x2="42" y2="73.12" xlink:href="#未命名的渐变_74" />
        <linearGradient id="未命名的渐变_74-3" x1="107.24" y1="73.12" x2="120.68" y2="73.12" xlink:href="#未命名的渐变_74" />
        <linearGradient id="未命名的渐变_74-4" x1="57.47" y1="79.05" x2="90.59" y2="79.05" xlink:href="#未命名的渐变_74" />
        <linearGradient id="未命名的渐变_74-5" x1="124.39" y1="73.12" x2="137.83" y2="73.12" xlink:href="#未命名的渐变_74" />
        <linearGradient id="未命名的渐变_74-6" x1="51.11" y1="77.68" x2="98.37" y2="77.68" xlink:href="#未命名的渐变_74" />
        <linearGradient id="未命名的渐变_74-7" x1="96.84" y1="57.71" x2="96.84" y2="53.71" xlink:href="#未命名的渐变_74" />
        <linearGradient id="未命名的渐变_74-8" x1="96.84" y1="53.71" x2="96.84" y2="52.06" xlink:href="#未命名的渐变_74" />
        <linearGradient id="未命名的渐变_74-9" x1="96.84" y1="110.66" x2="96.84" y2="106.66" xlink:href="#未命名的渐变_74" />
        <linearGradient id="未命名的渐变_74-10" x1="96.84" y1="106.66" x2="96.84" y2="105.01" xlink:href="#未命名的渐变_74" />
        <linearGradient id="未命名的渐变_74-11" x1="50.03" y1="84.4" x2="57.47" y2="84.4" xlink:href="#未命名的渐变_74" />
        <linearGradient id="未命名的渐变_74-12" x1="51.77" y1="89.93" x2="55.73" y2="89.93" xlink:href="#未命名的渐变_74" />
        <linearGradient id="未命名的渐变_74-13" x1="52.98" y1="94.46" x2="54.53" y2="94.46" xlink:href="#未命名的渐变_74" />
    </defs>
    <title>shelter（庇护所）</title>
    <g id="图层_2" data-name="图层 2">
        <g id="图层_10" data-name="图层 10">
            <g id="shelter_庇护所_" data-name="shelter（庇护所）">
                <polygon class="cls-1" points="142.43 31.28 7.57 31.28 60.96 4.72 88.52 4.72 142.43 31.28" />
                <rect class="cls-1" x="7.57" y="31.28" width="134.87" height="87.81" />
                <rect class="cls-2" x="11.92" y="29.96" width="12.44" height="86.31" />
                <rect class="cls-3" x="29.07" y="29.96" width="12.44" height="86.31" />
                <rect class="cls-4" x="107.74" y="29.96" width="12.44" height="86.31" />
                <rect class="cls-5" x="57.47" y="41.83" width="33.12" height="74.43" />
                <rect class="cls-6" x="124.89" y="29.96" width="12.44" height="86.31" />
                <polyline class="cls-7" points="51.61 119.49 51.61 36.37 97.87 36.37 97.87 119.49" />
                <line class="cls-8" x1="47.65" y1="29.7" x2="47.65" y2="119.1" />
                <line class="cls-8" x1="103.03" y1="29.7" x2="103.03" y2="119.1" />
                <line class="cls-8" x1="10.13" y1="29.7" x2="141.57" y2="29.7" />
                <rect class="cls-9" x="90.59" y="53.71" width="12.48" height="4" />
                <rect class="cls-10" x="90.59" y="52.06" width="12.48" height="1.65" />
                <rect class="cls-11" x="90.59" y="106.66" width="12.48" height="4" />
                <rect class="cls-12" x="90.59" y="105.01" width="12.48" height="1.65" />
                <rect class="cls-13" x="50.03" y="77.93" width="7.44" height="12.95" />
                <rect class="cls-14" x="51.77" y="85.27" width="3.96" height="9.33" />
                <rect class="cls-15" x="52.98" y="90.88" width="1.55" height="7.16" />
                <rect class="cls-16" x="68.5" y="14.89" width="13.57" height="10.74" />
                <polygon class="cls-17" points="75 7.92 0 34.11 0 26.19 75 0 75 7.92" />
                <polygon class="cls-17" points="75 7.92 150 34.11 150 26.19 75 0 75 7.92" />
               
            </g>
        </g>
    </g>
</svg>