<svg xmlns="http://www.w3.org/2000/svg" viewBox="0 0 149.84 85.9">
    <defs>
        <style>
            .cls-1 {
                fill: #878787;
            }

            .cls-2 {
                fill: #c6c6c6;
            }

            .cls-3 {
                fill: none;
                stroke: #b2b2b2;
                stroke-miterlimit: 10;
            }

            .cls-4 {
                fill: #d8d8d8;
            }

            .cls-5 {
                fill: #bababa;
            }

            .cls-6,
            .cls-7 {
                fill: #9e9e9e;
            }

            .cls-6 {
                opacity: 0.98;
            }

            .cls-8 {
                opacity: 0.2;
            }
        </style>
    </defs>
    <title>Utility building (公用工程建筑）</title>
    <g id="图层_2" data-name="图层 2">
        <g id="图层_10" data-name="图层 10">
            <g id="Utility_building_公用工程建筑_" data-name="Utility building (公用工程建筑）">
                <polygon class="cls-1" points="138.71 10.49 149.71 0 149.84 75 138.83 85.49 138.71 10.49" />
                <rect class="cls-2" x="0.5" y="13.83" width="138.2" height="71.76" />
                <line class="cls-3" x1="0.5" y1="85.58" x2="0.5" y2="13.83" />
                <line class="cls-3" x1="3.12" y1="13.83" x2="3.12" y2="85.58" />
                <line class="cls-3" x1="9.54" y1="85.58" x2="9.54" y2="13.83" />
                <line class="cls-3" x1="12.16" y1="13.83" x2="12.16" y2="85.58" />
                <line class="cls-3" x1="18.58" y1="85.58" x2="18.58" y2="13.83" />
                <line class="cls-3" x1="21.2" y1="13.83" x2="21.2" y2="85.58" />
                <line class="cls-3" x1="27.62" y1="85.58" x2="27.62" y2="13.83" />
                <line class="cls-3" x1="30.24" y1="13.83" x2="30.24" y2="85.58" />
                <line class="cls-3" x1="36.66" y1="85.58" x2="36.66" y2="13.83" />
                <line class="cls-3" x1="39.28" y1="13.83" x2="39.28" y2="85.58" />
                <line class="cls-3" x1="45.69" y1="85.58" x2="45.69" y2="13.83" />
                <line class="cls-3" x1="48.32" y1="13.83" x2="48.32" y2="85.58" />
                <line class="cls-3" x1="54.73" y1="85.58" x2="54.73" y2="13.83" />
                <line class="cls-3" x1="57.36" y1="13.83" x2="57.36" y2="85.58" />
                <line class="cls-3" x1="63.77" y1="85.58" x2="63.77" y2="13.83" />
                <line class="cls-3" x1="66.39" y1="13.83" x2="66.39" y2="85.58" />
                <line class="cls-3" x1="72.81" y1="85.58" x2="72.81" y2="13.83" />
                <line class="cls-3" x1="81.85" y1="85.58" x2="81.85" y2="13.83" />
                <line class="cls-3" x1="84.47" y1="13.83" x2="84.47" y2="85.58" />
                <line class="cls-3" x1="93.51" y1="13.83" x2="93.51" y2="85.58" />
                <line class="cls-3" x1="99.93" y1="85.58" x2="99.93" y2="13.83" />
                <line class="cls-3" x1="102.55" y1="13.83" x2="102.55" y2="85.58" />
                <line class="cls-3" x1="108.97" y1="85.58" x2="108.97" y2="13.83" />
                <line class="cls-3" x1="111.59" y1="13.83" x2="111.59" y2="85.58" />
                <line class="cls-3" x1="118" y1="85.58" x2="118" y2="13.83" />
                <line class="cls-3" x1="120.63" y1="13.83" x2="120.63" y2="85.58" />
                <line class="cls-3" x1="127.04" y1="85.58" x2="127.04" y2="13.83" />
                <line class="cls-3" x1="129.67" y1="13.83" x2="129.67" y2="85.58" />
                <line class="cls-3" x1="136.08" y1="85.58" x2="136.08" y2="13.83" />
                <line class="cls-3" x1="138.7" y1="13.83" x2="138.7" y2="85.58" />
                <rect class="cls-4" x="0.02" y="10.61" width="139.16" height="3.22" />
                <polygon class="cls-5" points="138.42 10.61 0.02 10.61 11.31 0 149.71 0 138.42 10.61" />
                <rect class="cls-5" x="36.66" y="32.08" width="22.75" height="53.82" />
                <polygon class="cls-6"
                    points="40.15 34.77 59.41 34.77 59.41 32.08 36.66 32.08 36.66 85.9 40.15 85.9 40.15 34.77" />
                <circle class="cls-7" cx="55.68" cy="62.13" r="1.68" />
                <line class="cls-3" x1="75.43" y1="13.83" x2="75.43" y2="85.58" />
                <line class="cls-3" x1="90.89" y1="85.58" x2="90.89" y2="13.83" />
               
            </g>
        </g>
    </g>
</svg>