<svg xmlns="http://www.w3.org/2000/svg" xmlns:xlink="http://www.w3.org/1999/xlink" viewBox="0 0 150 149.99">
    <defs>
        <style>
            .cls-1 {
                fill: url(#未命名的渐变_143);
            }

            .cls-2 {
                fill: url(#未命名的渐变_143-2);
            }

            .cls-3 {
                fill: url(#未命名的渐变_143-3);
            }

            .cls-4 {
                fill: url(#未命名的渐变_143-4);
            }

            .cls-5 {
                fill: url(#未命名的渐变_143-5);
            }

            .cls-6 {
                fill: url(#未命名的渐变_143-6);
            }

            .cls-7 {
                fill: url(#未命名的渐变_143-7);
            }

            .cls-8 {
                fill: url(#未命名的渐变_143-8);
            }

            .cls-9 {
                fill: url(#未命名的渐变_143-9);
            }

            .cls-10 {
                fill: url(#未命名的渐变_143-10);
            }

            .cls-11 {
                fill: #5b5b5b;
            }

            .cls-12 {
                fill: url(#未命名的渐变_5);
            }

            .cls-13 {
                fill: #b0b0b1;
            }

            .cls-14 {
                fill: url(#未命名的渐变_143-11);
            }

            .cls-15 {
                fill: url(#未命名的渐变_79);
            }

            .cls-16 {
                fill: url(#未命名的渐变_143-12);
            }

            .cls-17 {
                fill: url(#未命名的渐变_79-2);
            }

            .cls-18 {
                fill: url(#未命名的渐变_6);
            }

            .cls-19 {
                fill: url(#未命名的渐变_79-3);
            }

            .cls-20 {
                fill: url(#未命名的渐变_143-13);
            }

            .cls-21 {
                fill: url(#未命名的渐变_79-4);
            }

            .cls-22 {
                fill: url(#未命名的渐变_143-14);
            }

            .cls-23 {
                fill: url(#未命名的渐变_79-5);
            }

            .cls-24 {
                fill: url(#未命名的渐变_143-15);
            }

            .cls-25 {
                fill: url(#未命名的渐变_79-6);
            }

            .cls-26 {
                fill: url(#未命名的渐变_143-16);
            }

            .cls-27 {
                fill: url(#未命名的渐变_79-7);
            }

            .cls-28 {
                fill: url(#未命名的渐变_143-17);
            }

            .cls-29 {
                fill: url(#未命名的渐变_79-8);
            }

            .cls-30 {
                fill: url(#未命名的渐变_143-18);
            }

            .cls-31 {
                fill: url(#未命名的渐变_79-9);
            }

            .cls-32 {
                fill: url(#未命名的渐变_143-19);
            }

            .cls-33 {
                fill: url(#未命名的渐变_79-10);
            }

            .cls-34 {
                fill: url(#未命名的渐变_143-20);
            }

            .cls-35 {
                fill: url(#未命名的渐变_79-11);
            }

            .cls-36 {
                fill: url(#未命名的渐变_143-21);
            }

            .cls-37 {
                fill: url(#未命名的渐变_79-12);
            }

            .cls-38 {
                opacity: 0.2;
            }
        </style>
        <linearGradient id="未命名的渐变_143" x1="106.06" y1="18.49" x2="63.53" y2="18.49" gradientUnits="userSpaceOnUse">
            <stop offset="0" stop-color="#b7b7b7" />
            <stop offset="0.03" stop-color="#9b9d9d" />
            <stop offset="0.07" stop-color="#878b8b" />
            <stop offset="0.09" stop-color="#808484" />
            <stop offset="0.2" stop-color="#a3a6a6" />
            <stop offset="0.49" stop-color="#f6f6f6" />
            <stop offset="0.61" stop-color="#f3f3f3" />
            <stop offset="0.7" stop-color="#eaeaea" />
            <stop offset="0.77" stop-color="#dbdbdb" />
            <stop offset="0.83" stop-color="#c5c5c5" />
            <stop offset="0.9" stop-color="#aaa" />
            <stop offset="0.95" stop-color="#888" />
            <stop offset="1" stop-color="#666" />
        </linearGradient>
        <linearGradient id="未命名的渐变_143-2" x1="92.99" y1="34.19" x2="142" y2="34.19" xlink:href="#未命名的渐变_143" />
        <linearGradient id="未命名的渐变_143-3" x1="113.91" y1="74.76" x2="150" y2="74.76" xlink:href="#未命名的渐变_143" />
        <linearGradient id="未命名的渐变_143-4" x1="101.21" y1="111.08" x2="142.57" y2="111.08" xlink:href="#未命名的渐变_143" />
        <linearGradient id="未命名的渐变_143-5" x1="68.62" y1="130.27" x2="106.36" y2="130.27" xlink:href="#未命名的渐变_143" />
        <linearGradient id="未命名的渐变_143-6" x1="22.49" y1="127.12" x2="71.13" y2="127.12" xlink:href="#未命名的渐变_143" />
        <linearGradient id="未命名的渐变_143-7" x1="0.7" y1="100.28" x2="44.26" y2="100.28" xlink:href="#未命名的渐变_143" />
        <linearGradient id="未命名的渐变_143-8" x1="0" y1="56.19" x2="39.22" y2="56.19" xlink:href="#未命名的渐变_143" />
        <linearGradient id="未命名的渐变_143-9" x1="21.43" y1="27.11" x2="59.98" y2="27.11" xlink:href="#未命名的渐变_143" />
        <linearGradient id="未命名的渐变_143-10" x1="31.76" y1="75.17" x2="117.61" y2="75.17" xlink:href="#未命名的渐变_143" />
        <linearGradient id="未命名的渐变_5" x1="74.69" y1="81.66" x2="74.69" y2="68.68" gradientUnits="userSpaceOnUse">
            <stop offset="0" stop-color="#b7b7b7" />
            <stop offset="0.01" stop-color="#bababa" />
            <stop offset="0.08" stop-color="#dbdbdb" />
            <stop offset="0.13" stop-color="#efefef" />
            <stop offset="0.17" stop-color="#f6f6f6" />
            <stop offset="0.37" stop-color="#f3f3f3" />
            <stop offset="0.51" stop-color="#eaeaea" />
            <stop offset="0.63" stop-color="#dbdbdb" />
            <stop offset="0.73" stop-color="#c5c5c5" />
            <stop offset="0.83" stop-color="#aaa" />
            <stop offset="0.92" stop-color="#888" />
            <stop offset="1" stop-color="#666" />
        </linearGradient>
        <linearGradient id="未命名的渐变_143-11" x1="73.12" y1="37.48" x2="76.25" y2="37.48" xlink:href="#未命名的渐变_143" />
        <linearGradient id="未命名的渐变_79" x1="73.12" y1="42.5" x2="76.25" y2="42.5" gradientUnits="userSpaceOnUse">
            <stop offset="0" stop-color="#ccc" />
            <stop offset="0.03" stop-color="#bbb" />
            <stop offset="0.06" stop-color="#a7a7a7" />
            <stop offset="0.09" stop-color="#a0a0a0" />
            <stop offset="0.1" stop-color="#a3a3a3" />
            <stop offset="0.49" stop-color="#f6f6f6" />
            <stop offset="0.62" stop-color="#f3f3f3" />
            <stop offset="0.72" stop-color="#eaeaea" />
            <stop offset="0.8" stop-color="#dbdbdb" />
            <stop offset="0.87" stop-color="#c5c5c5" />
            <stop offset="0.94" stop-color="#aaa" />
            <stop offset="1" stop-color="#898989" />
        </linearGradient>
        <linearGradient id="未命名的渐变_143-12" x1="91.82" y1="41.76" x2="95.15" y2="43.27"
            gradientTransform="translate(-8.72 52.68) rotate(-30.1)" xlink:href="#未命名的渐变_143" />
        <linearGradient id="未命名的渐变_79-2" x1="92.44" y1="47.69" x2="89.71" y2="46.12"
            gradientTransform="translate(-11.24 52) rotate(-30.1)" xlink:href="#未命名的渐变_79" />
        <linearGradient id="未命名的渐变_6" x1="106.52" y1="54.8" x2="108.74" y2="58.95"
            gradientTransform="translate(5.05 121.6) rotate(-60.21)" gradientUnits="userSpaceOnUse">
            <stop offset="0.09" stop-color="#808484" />
            <stop offset="0.22" stop-color="#a3a6a6" />
            <stop offset="0.54" stop-color="#f6f6f6" />
            <stop offset="0.61" stop-color="#f3f3f3" />
            <stop offset="0.66" stop-color="#eaeaea" />
            <stop offset="0.7" stop-color="#dbdbdb" />
            <stop offset="0.73" stop-color="#c5c5c5" />
            <stop offset="0.76" stop-color="#aaa" />
            <stop offset="0.79" stop-color="#888" />
            <stop offset="0.82" stop-color="#666" />
        </linearGradient>
        <linearGradient id="未命名的渐变_79-3" x1="104.01" y1="60.61" x2="101.95" y2="57.05"
            gradientTransform="translate(0.69 119.07) rotate(-60.21)" xlink:href="#未命名的渐变_79" />
        <linearGradient id="未命名的渐变_143-13" x1="112.38" y1="76.95" x2="112.38" y2="73.8"
            gradientTransform="translate(37.61 188.16) rotate(-90.31)" xlink:href="#未命名的渐变_143" />
        <linearGradient id="未命名的渐变_79-4" x1="107.36" y1="76.93" x2="107.36" y2="73.76"
            gradientTransform="translate(32.59 183.11) rotate(-90.31)" xlink:href="#未命名的渐变_79" />
        <linearGradient id="未命名的渐变_143-14" x1="107.98" y1="92.89" x2="106.41" y2="95.62"
            gradientTransform="translate(80.17 234.41) rotate(-120.41)" xlink:href="#未命名的渐变_143" />
        <linearGradient id="未命名的渐变_79-5" x1="102.07" y1="93.09" x2="103.66" y2="90.33"
            gradientTransform="translate(75.84 226.84) rotate(-120.41)" xlink:href="#未命名的渐变_79" />
        <linearGradient id="未命名的渐变_143-15" x1="94.61" y1="107.19" x2="91.87" y2="108.77"
            gradientTransform="translate(121.25 247.87) rotate(-150.51)" xlink:href="#未命名的渐变_143" />
        <linearGradient id="未命名的渐变_79-6" x1="89.39" y1="104.41" x2="92.15" y2="102.81"
            gradientTransform="translate(118.78 238.48) rotate(-150.51)" xlink:href="#未命名的渐变_79" />
        <linearGradient id="未命名的渐变_143-16" x1="72.7" y1="112.86" x2="75.87" y2="112.86"
            gradientTransform="translate(149.77 224.92) rotate(179.38)" xlink:href="#未命名的渐变_143" />
        <linearGradient id="未命名的渐变_79-7" x1="72.73" y1="107.84" x2="75.94" y2="107.84"
            gradientTransform="translate(149.83 214.87) rotate(179.38)" xlink:href="#未命名的渐变_79" />
        <linearGradient id="未命名的渐变_143-17" x1="56.78" y1="108.92" x2="54.09" y2="106.23"
            gradientTransform="translate(158.04 171.74) rotate(149.28)" xlink:href="#未命名的渐变_143" />
        <linearGradient id="未命名的渐变_79-8" x1="56.61" y1="102.45" x2="59.39" y2="104.06"
            gradientTransform="translate(160.61 162.4) rotate(149.28)" xlink:href="#未命名的渐变_79" />
        <linearGradient id="未命名的渐变_143-18" x1="43.64" y1="94.62" x2="39.92" y2="92.47"
            gradientTransform="translate(143.82 102.68) rotate(119.18)" xlink:href="#未命名的渐变_143" />
        <linearGradient id="未命名的渐变_79-9" x1="45.36" y1="89.7" x2="46.97" y2="92.5"
            gradientTransform="translate(148.21 95.21) rotate(119.18)" xlink:href="#未命名的渐变_79" />
        <linearGradient id="未命名的渐变_143-19" x1="37" y1="76.15" x2="37" y2="72.97"
            gradientTransform="translate(110.96 36.37) rotate(89.08)" xlink:href="#未命名的渐变_143" />
        <linearGradient id="未命名的渐变_79-10" x1="42.02" y1="73.02" x2="42.02" y2="76.27"
            gradientTransform="translate(115.98 31.42) rotate(89.08)" xlink:href="#未命名的渐变_79" />
        <linearGradient id="未命名的渐变_143-20" x1="43.18" y1="54.36" x2="41.59" y2="57.12"
            gradientTransform="translate(68.31 -9.31) rotate(58.97)" xlink:href="#未命名的渐变_143" />
        <linearGradient id="未命名的渐变_79-11" x1="47.51" y1="56.92" x2="45.88" y2="59.74"
            gradientTransform="translate(72.61 -11.75) rotate(58.97)" xlink:href="#未命名的渐变_79" />
        <linearGradient id="未命名的渐变_143-21" x1="57.86" y1="40.79" x2="55.12" y2="43.53"
            gradientTransform="translate(27.38 -22.03) rotate(28.87)" xlink:href="#未命名的渐变_143" />
        <linearGradient id="未命名的渐变_79-12" x1="60.33" y1="45.74" x2="57.5" y2="47.38"
            gradientTransform="translate(29.8 -22.66) rotate(28.87)" xlink:href="#未命名的渐变_79" />
    </defs>
    <title>Impeller（叶轮）</title>
    <g id="图层_2" data-name="图层 2">
        <g id="图层_22" data-name="图层 22">
            <g id="Impeller_叶轮_" data-name="Impeller（叶轮）">
                <path class="cls-1"
                    d="M68.53.47,73.92.1a55,55,0,0,1,27,5.25l5.12,2.44L96.85,19.6A50.87,50.87,0,0,0,88,37h0L63.53,33.33a4.89,4.89,0,0,0,1.82-2.1c1-2.63.33-8.62.76-19.28A42.59,42.59,0,0,1,68.53.47Z" />
                <path class="cls-2"
                    d="M117.91,13.94l4.37,3.17a55.06,55.06,0,0,1,17.36,21.37L142,43.64l-14.65,3.14a50.82,50.82,0,0,0-17.91,7.67h0L93,35.92a4.87,4.87,0,0,0,2.74-.44c2.41-1.41,5.79-6.4,13-14.29A42.68,42.68,0,0,1,117.91,13.94Z" />
                <path class="cls-3"
                    d="M147.13,56l1.32,5.24A54.94,54.94,0,0,1,148,88.72l-1.5,5.47-13.24-7a51,51,0,0,0-18.66-5.62h0l-.73-24.76a4.88,4.88,0,0,0,2.38,1.42c2.76.47,8.55-1.19,19.12-2.64A42.2,42.2,0,0,1,147.13,56Z" />
                <path class="cls-4"
                    d="M142.57,106.93l-2.35,4.87a55,55,0,0,1-18,20.84l-4.66,3.23L111.91,122a50.93,50.93,0,0,0-10.7-16.28h0l15.34-19.45a4.82,4.82,0,0,0,.91,2.61c1.81,2.13,7.32,4.57,16.35,10.24A42.62,42.62,0,0,1,142.57,106.93Z" />
                <path class="cls-5"
                    d="M106.36,143.1l-4.93,2.22a54.93,54.93,0,0,1-27.16,4.44l-5.65-.51L73.16,135a50.73,50.73,0,0,0,2.25-19.35h0l24.25-5.08a4.88,4.88,0,0,0-1,2.59c0,2.8,2.68,8.21,6,18.35A42.61,42.61,0,0,1,106.36,143.1Z" />
                <path class="cls-6"
                    d="M55.38,147.59l-5.21-1.46a55,55,0,0,1-23.68-14l-4-4,12.64-8a50.74,50.74,0,0,0,14.15-13.4h0l21.85,11.67a4.93,4.93,0,0,0-2.42,1.36c-1.77,2.16-3.21,8-7.19,17.9A42.69,42.69,0,0,1,55.38,147.59Z" />
                <path class="cls-7"
                    d="M13.4,118.31l-3.05-4.46a54.92,54.92,0,0,1-9.16-26L.7,82.24l14.84,2A50.8,50.8,0,0,0,35,83h0l9.27,23a4.84,4.84,0,0,0-2.73-.5c-2.75.51-7.6,4.08-17,9.1A42.29,42.29,0,0,1,13.4,118.31Z" />
                <path class="cls-8"
                    d="M0,68.91l.52-5.37a55,55,0,0,1,9.64-25.79l3.25-4.65,10.12,11A50.91,50.91,0,0,0,39.22,55.7h0L31.58,79.27a4.87,4.87,0,0,0-1.77-2.14c-2.44-1.37-8.45-1.75-18.89-3.93A42.78,42.78,0,0,1,0,68.91Z" />
                <path class="cls-9"
                    d="M21.43,22.44l3.85-3.79A55,55,0,0,1,49.22,5.06L54.7,3.58l.68,15A50.82,50.82,0,0,0,60,37.47h0L39,50.64a4.85,4.85,0,0,0,0-2.77c-1-2.61-5.36-6.76-12-15.14A42.43,42.43,0,0,1,21.43,22.44Z" />
                <circle class="cls-10" cx="74.69" cy="75.17" r="42.93" />
                <circle class="cls-11" cx="74.69" cy="75.17" r="39.26" />
                <circle class="cls-12" cx="74.69" cy="75.17" r="6.49" />
                <circle class="cls-13" cx="74.69" cy="75.17" r="2.36" />
                <rect class="cls-14" x="73.12" y="35.91" width="3.13" height="3.13" />
                <rect class="cls-15" x="73.12" y="39.04" width="3.13" height="6.91" />
                <rect class="cls-16" x="92.03" y="41" width="3.13" height="3.13"
                    transform="translate(33.97 -41.2) rotate(30.1)" />
                <rect class="cls-17" x="89.51" y="43.45" width="3.13" height="6.91"
                    transform="matrix(0.87, 0.5, -0.5, 0.87, 35.81, -39.35)" />
                <rect class="cls-18" x="105.83" y="54.88" width="3.13" height="3.13"
                    transform="translate(103.01 -64.81) rotate(60.21)" />
                <rect class="cls-19" x="101.47" y="55.48" width="3.13" height="6.91"
                    transform="translate(102.99 -59.77) rotate(60.21)" />
                <rect class="cls-20" x="110.81" y="73.81" width="3.13" height="3.13"
                    transform="translate(188.36 -36.6) rotate(90.31)" />
                <rect class="cls-21" x="105.79" y="71.89" width="3.13" height="6.91"
                    transform="matrix(-0.01, 1, -1, -0.01, 183.28, -31.6)" />
                <rect class="cls-22" x="105.63" y="92.68" width="3.13" height="3.13"
                    transform="matrix(-0.51, 0.86, -0.86, -0.51, 242.74, 49.51)" />
                <rect class="cls-23" x="101.3" y="88.25" width="3.13" height="6.91"
                    transform="translate(234.02 49.42) rotate(120.41)" />
                <rect class="cls-24" x="91.68" y="106.42" width="3.13" height="3.13"
                    transform="translate(227.56 156.08) rotate(150.51)" />
                <rect class="cls-25" x="89.2" y="100.15" width="3.13" height="6.91"
                    transform="translate(220.78 149.12) rotate(150.51)" />
                <rect class="cls-26" x="72.72" y="111.3" width="3.13" height="3.13"
                    transform="translate(147.35 226.52) rotate(-179.38)" />
                <rect class="cls-27" x="72.77" y="104.38" width="3.13" height="6.91"
                    transform="translate(147.51 216.47) rotate(-179.38)" />
                <rect class="cls-28" x="53.87" y="106.01" width="3.13" height="3.13"
                    transform="translate(48.14 228.37) rotate(-149.28)" />
                <rect class="cls-29" x="56.43" y="99.8" width="3.13" height="6.91"
                    transform="translate(55.11 221.65) rotate(-149.28)" />
                <rect class="cls-30" x="40.21" y="91.98" width="3.13" height="3.13"
                    transform="translate(-19.53 175.63) rotate(-119.18)" />
                <rect class="cls-31" x="44.6" y="87.64" width="3.13" height="6.91"
                    transform="translate(-10.87 175.82) rotate(-119.18)" />
                <rect class="cls-32" x="35.43" y="73" width="3.13" height="3.13"
                    transform="translate(-38.15 110.36) rotate(-89.08)" />
                <rect class="cls-33" x="40.46" y="71.19" width="3.13" height="6.91"
                    transform="translate(-33.29 115.46) rotate(-89.08)" />
                <rect class="cls-34" x="40.82" y="54.18" width="3.13" height="3.13"
                    transform="translate(-27.23 63.33) rotate(-58.97)" />
                <rect class="cls-35" x="45.13" y="54.87" width="3.13" height="6.91"
                    transform="translate(-27.36 68.28) rotate(-58.97)" />
                <rect class="cls-36" x="54.92" y="40.6" width="3.13" height="3.13"
                    transform="translate(-13.34 32.51) rotate(-28.87)" />
                <rect class="cls-37" x="57.35" y="43.1" width="3.13" height="6.91"
                    transform="translate(-15.16 34.23) rotate(-28.87)" />
                
            </g>
        </g>
    </g>
</svg>