<svg xmlns="http://www.w3.org/2000/svg" xmlns:xlink="http://www.w3.org/1999/xlink" viewBox="0 0 47.6 150">
    <defs>
        <style>
            .cls-1 {
                fill: url(#未命名的渐变_143);
            }

            .cls-2 {
                fill: url(#未命名的渐变_143-2);
            }

            .cls-3 {
                fill: url(#未命名的渐变_143-3);
            }

            .cls-4 {
                fill: url(#未命名的渐变_143-4);
            }

            .cls-5 {
                fill: url(#未命名的渐变_143-5);
            }

            .cls-6 {
                fill: url(#未命名的渐变_143-6);
            }

            .cls-7 {
                fill: url(#未命名的渐变_143-7);
            }

            .cls-8 {
                fill: url(#未命名的渐变_143-8);
            }

            .cls-9 {
                fill: url(#未命名的渐变_143-9);
            }

            .cls-10 {
                fill: url(#未命名的渐变_143-10);
            }

            .cls-11 {
                fill: url(#未命名的渐变_143-11);
            }

            .cls-12 {
                fill: url(#未命名的渐变_143-12);
            }

            .cls-13 {
                fill: #e5e5e5;
            }

            .cls-14 {
                fill: #a2a7a9;
            }

            .cls-15 {
                fill: url(#未命名的渐变_143-13);
            }

            .cls-16 {
                fill: url(#未命名的渐变_143-14);
            }

            .cls-17 {
                fill: url(#未命名的渐变_143-15);
            }

            .cls-18 {
                fill: url(#未命名的渐变_143-16);
            }

            .cls-19 {
                fill: url(#未命名的渐变_143-17);
            }

            .cls-20 {
                fill: url(#未命名的渐变_143-18);
            }

            .cls-21 {
                fill: url(#未命名的渐变_143-19);
            }

            .cls-22 {
                fill: url(#未命名的渐变_143-20);
            }

            .cls-23 {
                fill: url(#未命名的渐变_143-21);
            }

            .cls-24 {
                fill: url(#未命名的渐变_143-22);
            }

            .cls-25 {
                fill: url(#未命名的渐变_143-23);
            }

            .cls-26 {
                fill: url(#未命名的渐变_143-24);
            }

            .cls-27 {
                fill: url(#未命名的渐变_143-25);
            }

            .cls-28 {
                opacity: 0.2;
            }
        </style>
        <linearGradient id="未命名的渐变_143" x1="9.23" y1="143.41" x2="21.67" y2="143.41" gradientUnits="userSpaceOnUse">
            <stop offset="0" stop-color="#b7b7b7" />
            <stop offset="0.03" stop-color="#9b9d9d" />
            <stop offset="0.07" stop-color="#878b8b" />
            <stop offset="0.09" stop-color="#808484" />
            <stop offset="0.2" stop-color="#a3a6a6" />
            <stop offset="0.49" stop-color="#f6f6f6" />
            <stop offset="0.61" stop-color="#f3f3f3" />
            <stop offset="0.7" stop-color="#eaeaea" />
            <stop offset="0.77" stop-color="#dbdbdb" />
            <stop offset="0.83" stop-color="#c5c5c5" />
            <stop offset="0.9" stop-color="#aaa" />
            <stop offset="0.95" stop-color="#888" />
            <stop offset="1" stop-color="#666" />
        </linearGradient>
        <linearGradient id="未命名的渐变_143-2" x1="12.24" y1="16.61" x2="32.28" y2="16.61" xlink:href="#未命名的渐变_143" />
        <linearGradient id="未命名的渐变_143-3" x1="7.15" y1="35.76" x2="37.44" y2="35.76" xlink:href="#未命名的渐变_143" />
        <linearGradient id="未命名的渐变_143-4" x1="11.08" y1="50.91" x2="33.51" y2="50.91" xlink:href="#未命名的渐变_143" />
        <linearGradient id="未命名的渐变_143-5" x1="5.57" y1="63.42" x2="39.02" y2="63.42" xlink:href="#未命名的渐变_143" />
        <linearGradient id="未命名的渐变_143-6" x1="18.28" y1="70.09" x2="26.31" y2="70.09" xlink:href="#未命名的渐变_143" />
        <linearGradient id="未命名的渐变_143-7" x1="16.5" y1="69.41" x2="16.5" y2="67.77" xlink:href="#未命名的渐变_143" />
        <linearGradient id="未命名的渐变_143-8" x1="16.5" y1="72.61" x2="16.5" y2="70.97" xlink:href="#未命名的渐变_143" />
        <linearGradient id="未命名的渐变_143-9" x1="18.28" y1="143.26" x2="26.31" y2="143.26" xlink:href="#未命名的渐变_143" />
        <linearGradient id="未命名的渐变_143-10" x1="19.27" y1="106.99" x2="25.32" y2="106.99" xlink:href="#未命名的渐变_143" />
        <linearGradient id="未命名的渐变_143-11" x1="25.08" y1="145.43" x2="38.84" y2="145.43" xlink:href="#未命名的渐变_143" />
        <linearGradient id="未命名的渐变_143-12" x1="9.23" y1="146.78" x2="23.8" y2="146.78" xlink:href="#未命名的渐变_143" />
        <linearGradient id="未命名的渐变_143-13" x1="13.71" y1="17.34" x2="14.04" y2="17.34"
            gradientTransform="translate(-3.46 31.22) rotate(-90)" xlink:href="#未命名的渐变_143" />
        <linearGradient id="未命名的渐变_143-14" x1="15.1" y1="17.34" x2="15.43" y2="17.34"
            gradientTransform="translate(-2.08 32.6) rotate(-90)" xlink:href="#未命名的渐变_143" />
        <linearGradient id="未命名的渐变_143-15" x1="16.48" y1="17.34" x2="16.81" y2="17.34"
            gradientTransform="translate(-0.69 33.99) rotate(-90)" xlink:href="#未命名的渐变_143" />
        <linearGradient id="未命名的渐变_143-16" x1="17.86" y1="17.34" x2="18.2" y2="17.34"
            gradientTransform="translate(0.69 35.37) rotate(-90)" xlink:href="#未命名的渐变_143" />
        <linearGradient id="未命名的渐变_143-17" x1="19.25" y1="17.34" x2="19.58" y2="17.34"
            gradientTransform="translate(2.07 36.76) rotate(-90)" xlink:href="#未命名的渐变_143" />
        <linearGradient id="未命名的渐变_143-18" x1="20.63" y1="17.34" x2="20.97" y2="17.34"
            gradientTransform="translate(3.46 38.14) rotate(-90)" xlink:href="#未命名的渐变_143" />
        <linearGradient id="未命名的渐变_143-19" x1="22.02" y1="17.34" x2="22.35" y2="17.34"
            gradientTransform="translate(4.84 39.52) rotate(-90)" xlink:href="#未命名的渐变_143" />
        <linearGradient id="未命名的渐变_143-20" x1="23.57" y1="17.34" x2="23.9" y2="17.34"
            gradientTransform="translate(6.39 41.08) rotate(-90)" xlink:href="#未命名的渐变_143" />
        <linearGradient id="未命名的渐变_143-21" x1="24.9" y1="17.34" x2="25.24" y2="17.34"
            gradientTransform="translate(7.73 42.41) rotate(-90)" xlink:href="#未命名的渐变_143" />
        <linearGradient id="未命名的渐变_143-22" x1="26.21" y1="17.34" x2="26.55" y2="17.34"
            gradientTransform="translate(9.04 43.72) rotate(-90)" xlink:href="#未命名的渐变_143" />
        <linearGradient id="未命名的渐变_143-23" x1="27.57" y1="17.34" x2="27.91" y2="17.34"
            gradientTransform="translate(10.4 45.08) rotate(-90)" xlink:href="#未命名的渐变_143" />
        <linearGradient id="未命名的渐变_143-24" x1="29.23" y1="17.47" x2="29.56" y2="17.47"
            gradientTransform="translate(11.92 46.87) rotate(-90)" xlink:href="#未命名的渐变_143" />
        <linearGradient id="未命名的渐变_143-25" x1="30.56" y1="17.34" x2="30.89" y2="17.34"
            gradientTransform="translate(13.38 48.06) rotate(-90)" xlink:href="#未命名的渐变_143" />
    </defs>
    <title>ISA Agitator（isa搅拌器）</title>
    <g id="图层_2" data-name="图层 2">
        <g id="图层_22" data-name="图层 22">
            <g id="ISA_Agitator_isa搅拌器_" data-name="ISA Agitator（isa搅拌器）">
                <path class="cls-1"
                    d="M18.56,142.6l3.11,1.56s-5.59,3.19-9.57,1.21c-3.53-1.77-3.16-3.57-2.24-4.32s3.37.46,4.89.91A15,15,0,0,0,18.56,142.6Z" />
                <path class="cls-2"
                    d="M32.28,28.08l-1.77,1.76a11.73,11.73,0,0,1-16.5,0l-1.77-1.76V1.88h0a27.61,27.61,0,0,1,20,0h0Z" />
                <rect class="cls-3" x="7.15" y="30.82" width="30.29" height="9.89" />
                <polygon class="cls-4" points="33.51 61.11 11.08 61.11 15.03 40.7 29.56 40.7 33.51 61.11" />
                <rect class="cls-5" x="5.57" y="61.11" width="33.46" height="4.63" />
                <rect class="cls-6" x="18.28" y="65.74" width="8.02" height="8.7" />
                <rect class="cls-7" x="14.72" y="67.77" width="3.56" height="1.64" />
                <rect class="cls-8" x="14.72" y="70.97" width="3.56" height="1.64" />
                <rect class="cls-9" x="18.28" y="139.49" width="8.02" height="7.53" />
                <rect class="cls-10" x="19.27" y="74.49" width="6.05" height="64.99" />
                <path class="cls-11"
                    d="M25.08,143.07v3.84h0c3.41,1.88,8.15,2.26,10.75,1.42,1.47-.47,3.34-2,3-3.87a3,3,0,0,0-2.65-2.32,16.75,16.75,0,0,0-3.53.26,22.62,22.62,0,0,1-7.54.67Z" />
                <path class="cls-12"
                    d="M19.62,143.56H23.8S19.51,150,14.16,150c-4.76,0-5.32-2.14-4.74-3.44s3.87-1.31,5.75-1.65A18,18,0,0,0,19.62,143.56Z" />
                <rect class="cls-13" x="11.6" y="28.07" width="21.44" height="0.91" />
                <rect class="cls-14" x="11.82" y="27.42" width="20.79" height="0.65" />
                <rect class="cls-15" x="4.87" y="17.17" width="18.01" height="0.33"
                    transform="translate(31.22 3.46) rotate(90)" />
                <rect class="cls-16" x="6.26" y="17.17" width="18.01" height="0.33"
                    transform="translate(32.6 2.08) rotate(90)" />
                <rect class="cls-17" x="7.64" y="17.17" width="18.01" height="0.33"
                    transform="translate(33.99 0.69) rotate(90)" />
                <rect class="cls-18" x="9.03" y="17.17" width="18.01" height="0.33"
                    transform="translate(35.37 -0.69) rotate(90)" />
                <rect class="cls-19" x="10.41" y="17.17" width="18.01" height="0.33"
                    transform="translate(36.76 -2.07) rotate(90)" />
                <rect class="cls-20" x="11.79" y="17.17" width="18.01" height="0.33"
                    transform="translate(38.14 -3.46) rotate(90)" />
                <rect class="cls-21" x="13.18" y="17.17" width="18.01" height="0.33"
                    transform="translate(39.52 -4.84) rotate(90)" />
                <rect class="cls-22" x="14.73" y="17.17" width="18.01" height="0.33"
                    transform="translate(41.08 -6.39) rotate(90)" />
                <rect class="cls-23" x="16.07" y="17.17" width="18.01" height="0.33"
                    transform="translate(42.41 -7.73) rotate(90)" />
                <rect class="cls-24" x="17.37" y="17.17" width="18.01" height="0.33"
                    transform="translate(43.72 -9.04) rotate(90)" />
                <rect class="cls-25" x="18.74" y="17.17" width="18.01" height="0.33"
                    transform="translate(45.08 -10.4) rotate(90)" />
                <rect class="cls-26" x="20.39" y="17.31" width="18.01" height="0.33"
                    transform="translate(46.87 -11.92) rotate(90)" />
                <rect class="cls-27" x="21.72" y="17.17" width="18.01" height="0.33"
                    transform="translate(48.06 -13.38) rotate(90)" />
                <rect class="cls-14" x="12.15" y="7.82" width="20.19" height="0.65" />
                
            </g>
        </g>
    </g>
</svg>