<svg xmlns="http://www.w3.org/2000/svg" xmlns:xlink="http://www.w3.org/1999/xlink" viewBox="0 0 47.6 150">
    <defs>
        <style>
            .cls-1 {
                fill: url(#未命名的渐变_143);
            }

            .cls-2 {
                fill: url(#未命名的渐变_143-2);
            }

            .cls-3 {
                fill: url(#未命名的渐变_143-3);
            }

            .cls-4 {
                fill: url(#未命名的渐变_143-4);
            }

            .cls-5 {
                fill: url(#未命名的渐变_143-5);
            }

            .cls-6 {
                fill: url(#未命名的渐变_143-6);
            }

            .cls-7 {
                fill: url(#未命名的渐变_79);
            }

            .cls-8 {
                fill: url(#未命名的渐变_143-7);
            }

            .cls-9 {
                fill: url(#未命名的渐变_143-8);
            }

            .cls-10 {
                fill: url(#未命名的渐变_143-9);
            }

            .cls-11 {
                fill: url(#未命名的渐变_143-10);
            }

            .cls-12 {
                fill: url(#未命名的渐变_143-11);
            }

            .cls-13 {
                fill: url(#未命名的渐变_143-12);
            }

            .cls-14 {
                fill: url(#未命名的渐变_143-13);
            }

            .cls-15 {
                fill: url(#未命名的渐变_143-14);
            }

            .cls-16 {
                fill: url(#未命名的渐变_143-15);
            }

            .cls-17 {
                fill: url(#未命名的渐变_143-16);
            }

            .cls-18 {
                opacity: 0.2;
            }
        </style>
        <linearGradient id="未命名的渐变_143" x1="12.51" y1="1.68" x2="35.49" y2="1.68" gradientUnits="userSpaceOnUse">
            <stop offset="0" stop-color="#b7b7b7" />
            <stop offset="0.03" stop-color="#9b9d9d" />
            <stop offset="0.07" stop-color="#878b8b" />
            <stop offset="0.09" stop-color="#808484" />
            <stop offset="0.2" stop-color="#a3a6a6" />
            <stop offset="0.49" stop-color="#f6f6f6" />
            <stop offset="0.61" stop-color="#f3f3f3" />
            <stop offset="0.7" stop-color="#eaeaea" />
            <stop offset="0.77" stop-color="#dbdbdb" />
            <stop offset="0.83" stop-color="#c5c5c5" />
            <stop offset="0.9" stop-color="#aaa" />
            <stop offset="0.95" stop-color="#888" />
            <stop offset="1" stop-color="#666" />
        </linearGradient>
        <linearGradient id="未命名的渐变_143-2" x1="7.51" y1="21.49" x2="40.1" y2="21.49" xlink:href="#未命名的渐变_143" />
        <linearGradient id="未命名的渐变_143-3" x1="18.55" y1="57.66" x2="29.38" y2="57.66" xlink:href="#未命名的渐变_143" />
        <linearGradient id="未命名的渐变_143-4" x1="17.96" y1="144.81" x2="27.35" y2="144.81" xlink:href="#未命名的渐变_143" />
        <linearGradient id="未命名的渐变_143-5" x1="20.13" y1="108.34" x2="27.94" y2="108.34" xlink:href="#未命名的渐变_143" />
        <linearGradient id="未命名的渐变_143-6" x1="4.8" y1="45.91" x2="42.8" y2="45.91" xlink:href="#未命名的渐变_143" />
        <linearGradient id="未命名的渐变_79" x1="7.62" y1="41.29" x2="40.34" y2="41.29" gradientUnits="userSpaceOnUse">
            <stop offset="0" stop-color="#ccc" />
            <stop offset="0.03" stop-color="#bbb" />
            <stop offset="0.06" stop-color="#a7a7a7" />
            <stop offset="0.09" stop-color="#a0a0a0" />
            <stop offset="0.1" stop-color="#a3a3a3" />
            <stop offset="0.49" stop-color="#f6f6f6" />
            <stop offset="0.62" stop-color="#f3f3f3" />
            <stop offset="0.72" stop-color="#eaeaea" />
            <stop offset="0.8" stop-color="#dbdbdb" />
            <stop offset="0.87" stop-color="#c5c5c5" />
            <stop offset="0.94" stop-color="#aaa" />
            <stop offset="1" stop-color="#898989" />
        </linearGradient>
        <linearGradient id="未命名的渐变_143-7" x1="-791.57" y1="144.59" x2="-773.37" y2="144.59"
            gradientTransform="matrix(-1, 0, 0, 1, -770.82, 0)" xlink:href="#未命名的渐变_143" />
        <linearGradient id="未命名的渐变_143-8" x1="26.3" y1="144.81" x2="45.62" y2="144.81" xlink:href="#未命名的渐变_143" />
        <linearGradient id="未命名的渐变_143-9" x1="10.23" y1="22.99" x2="11.09" y2="22.99"
            gradientTransform="translate(-12.33 33.65) rotate(-90)" xlink:href="#未命名的渐变_143" />
        <linearGradient id="未命名的渐变_143-10" x1="14.16" y1="22.99" x2="15.02" y2="22.99"
            gradientTransform="translate(-8.41 37.58) rotate(-90)" xlink:href="#未命名的渐变_143" />
        <linearGradient id="未命名的渐变_143-11" x1="18.08" y1="22.99" x2="18.94" y2="22.99"
            gradientTransform="translate(-4.48 41.51) rotate(-90)" xlink:href="#未命名的渐变_143" />
        <linearGradient id="未命名的渐变_143-12" x1="21.37" y1="22.99" x2="22.23" y2="22.99"
            gradientTransform="translate(-1.19 44.79) rotate(-90)" xlink:href="#未命名的渐变_143" />
        <linearGradient id="未命名的渐变_143-13" x1="25.06" y1="22.99" x2="25.92" y2="22.99"
            gradientTransform="translate(2.5 48.48) rotate(-90)" xlink:href="#未命名的渐变_143" />
        <linearGradient id="未命名的渐变_143-14" x1="29.18" y1="22.99" x2="30.04" y2="22.99"
            gradientTransform="translate(6.62 52.6) rotate(-90)" xlink:href="#未命名的渐变_143" />
        <linearGradient id="未命名的渐变_143-15" x1="32.92" y1="22.99" x2="33.78" y2="22.99"
            gradientTransform="translate(10.36 56.34) rotate(-90)" xlink:href="#未命名的渐变_143" />
        <linearGradient id="未命名的渐变_143-16" x1="36.52" y1="22.99" x2="37.38" y2="22.99"
            gradientTransform="translate(13.95 59.94) rotate(-90)" xlink:href="#未命名的渐变_143" />
    </defs>
    <title>ISA Agitator（isa搅拌器） (2)</title>
    <g id="图层_2" data-name="图层 2">
        <g id="图层_22" data-name="图层 22">
            <g id="ISA_Agitator_isa搅拌器_" data-name="ISA Agitator（isa搅拌器）">
                <rect class="cls-1" x="12.51" width="22.97" height="3.36" />
                <rect class="cls-2" x="7.51" y="3.36" width="32.59" height="36.27" />
                <rect class="cls-3" x="18.55" y="48.64" width="10.83" height="18.04" />
                <rect class="cls-4" x="17.96" y="139.66" width="9.38" height="10.3" />
                <rect class="cls-5" x="20.13" y="66.68" width="7.81" height="83.32" />
                <rect class="cls-6" x="4.8" y="43.18" width="37.99" height="5.47" rx="0.51" />
                <rect class="cls-7" x="7.62" y="39.41" width="32.71" height="3.77" />
                <path class="cls-8"
                    d="M20.75,141.46v5.08h0c-4.51,2.49-10.78,3-14.21,1.88-1.94-.62-4.42-2.62-3.93-5.12a3.94,3.94,0,0,1,3.51-3.07,22.81,22.81,0,0,1,4.66.34c2.46.46,5.85,1.41,10,.89Z" />
                <path class="cls-9"
                    d="M26.3,141.49v5.4h0c4.79,2.63,11.45,3.16,15.09,2,2.06-.66,4.69-2.78,4.17-5.43a4.19,4.19,0,0,0-3.73-3.26,24.22,24.22,0,0,0-4.95.36c-2.61.48-6.2,1.5-10.58.94Z" />
                <rect class="cls-10" x="-5.76" y="22.56" width="32.83" height="0.86"
                    transform="translate(33.65 12.33) rotate(90)" />
                <rect class="cls-11" x="-1.83" y="22.56" width="32.83" height="0.86"
                    transform="translate(37.58 8.41) rotate(90)" />
                <rect class="cls-12" x="2.1" y="22.56" width="32.83" height="0.86"
                    transform="translate(41.51 4.48) rotate(90)" />
                <rect class="cls-13" x="5.39" y="22.56" width="32.83" height="0.86"
                    transform="translate(44.79 1.19) rotate(90)" />
                <rect class="cls-14" x="9.08" y="22.56" width="32.83" height="0.86"
                    transform="translate(48.48 -2.5) rotate(90)" />
                <rect class="cls-15" x="13.2" y="22.56" width="32.83" height="0.86"
                    transform="translate(52.6 -6.62) rotate(90)" />
                <rect class="cls-16" x="16.93" y="22.56" width="32.83" height="0.86"
                    transform="translate(56.34 -10.36) rotate(90)" />
                <rect class="cls-17" x="20.53" y="22.56" width="32.83" height="0.86"
                    transform="translate(59.94 -13.95) rotate(90)" />
                
            </g>
        </g>
    </g>
</svg>