<svg xmlns="http://www.w3.org/2000/svg" xmlns:xlink="http://www.w3.org/1999/xlink" viewBox="0 0 150 116.53">
    <defs>
        <style>
            .cls-1 {
                fill: url(#未命名的渐变_4);
            }

            .cls-2 {
                fill: url(#未命名的渐变_143);
            }

            .cls-3 {
                fill: url(#未命名的渐变_143-2);
            }

            .cls-4 {
                fill: #a2a7a9;
            }

            .cls-5 {
                fill: url(#未命名的渐变_143-3);
            }

            .cls-6 {
                fill: url(#未命名的渐变_143-4);
            }

            .cls-7 {
                fill: #e5e5e5;
            }

            .cls-8 {
                fill: url(#未命名的渐变_143-5);
            }

            .cls-9 {
                fill: url(#未命名的渐变_143-6);
            }

            .cls-10 {
                fill: url(#未命名的渐变_79);
            }

            .cls-11 {
                fill: url(#未命名的渐变_143-7);
            }

            .cls-12 {
                fill: url(#未命名的渐变_143-8);
            }

            .cls-13 {
                fill: url(#未命名的渐变_143-9);
            }

            .cls-14 {
                fill: url(#未命名的渐变_143-10);
            }

            .cls-15 {
                fill: url(#未命名的渐变_143-11);
            }

            .cls-16 {
                fill: url(#未命名的渐变_143-12);
            }

            .cls-17 {
                fill: url(#未命名的渐变_143-13);
            }

            .cls-18 {
                fill: url(#未命名的渐变_143-14);
            }

            .cls-19 {
                fill: url(#未命名的渐变_143-15);
            }

            .cls-20 {
                fill: url(#未命名的渐变_143-16);
            }

            .cls-21 {
                fill: url(#未命名的渐变_143-17);
            }

            .cls-22 {
                fill: url(#未命名的渐变_143-18);
            }

            .cls-23 {
                fill: url(#未命名的渐变_143-19);
            }

            .cls-24 {
                fill: url(#未命名的渐变_143-20);
            }

            .cls-25 {
                opacity: 0.2;
            }
        </style>
        <linearGradient id="未命名的渐变_4" y1="92.67" x2="47.6" y2="92.67" gradientUnits="userSpaceOnUse">
            <stop offset="0" stop-color="#ccc" />
            <stop offset="0.01" stop-color="#bbb" />
            <stop offset="0.02" stop-color="#a7a7a7" />
            <stop offset="0.03" stop-color="#a0a0a0" />
            <stop offset="0.05" stop-color="#a3a3a3" />
            <stop offset="0.49" stop-color="#f6f6f6" />
            <stop offset="0.71" stop-color="#f4f4f4" />
            <stop offset="0.79" stop-color="#ededed" />
            <stop offset="0.85" stop-color="#e2e2e2" />
            <stop offset="0.9" stop-color="#d1d1d1" />
            <stop offset="0.94" stop-color="#bbb" />
            <stop offset="0.98" stop-color="#a0a0a0" />
            <stop offset="1" stop-color="#898989" />
        </linearGradient>
        <linearGradient id="未命名的渐变_143" x1="106.39" y1="191.67" x2="142.56" y2="191.67"
            gradientTransform="translate(279.85 -31.61) rotate(90)" gradientUnits="userSpaceOnUse">
            <stop offset="0" stop-color="#b7b7b7" />
            <stop offset="0.03" stop-color="#9b9d9d" />
            <stop offset="0.07" stop-color="#878b8b" />
            <stop offset="0.09" stop-color="#808484" />
            <stop offset="0.2" stop-color="#a3a6a6" />
            <stop offset="0.49" stop-color="#f6f6f6" />
            <stop offset="0.61" stop-color="#f3f3f3" />
            <stop offset="0.7" stop-color="#eaeaea" />
            <stop offset="0.77" stop-color="#dbdbdb" />
            <stop offset="0.83" stop-color="#c5c5c5" />
            <stop offset="0.9" stop-color="#aaa" />
            <stop offset="0.95" stop-color="#888" />
            <stop offset="1" stop-color="#666" />
        </linearGradient>
        <linearGradient id="未命名的渐变_143-2" x1="60.59" y1="110.96" x2="60.59" y2="74.08"
            gradientTransform="matrix(1, 0, 0, 1, 0, 0)" xlink:href="#未命名的渐变_143" />
        <linearGradient id="未命名的渐变_143-3" x1="10.67" y1="48.47" x2="39.34" y2="48.47"
            gradientTransform="matrix(1, 0, 0, 1, 0, 0)" xlink:href="#未命名的渐变_143" />
        <linearGradient id="未命名的渐变_143-4" x1="12.62" y1="61.93" x2="37.45" y2="61.93"
            gradientTransform="matrix(1, 0, 0, 1, 0, 0)" xlink:href="#未命名的渐变_143" />
        <linearGradient id="未命名的渐变_143-5" x1="10.23" y1="22.63" x2="39.78" y2="22.63"
            gradientTransform="matrix(1, 0, 0, 1, 0, 0)" xlink:href="#未命名的渐变_143" />
        <linearGradient id="未命名的渐变_143-6" x1="151.03" y1="51.92" x2="199.49" y2="51.92"
            gradientTransform="translate(-98.14 40.37)" xlink:href="#未命名的渐变_143" />
        <linearGradient id="未命名的渐变_79" x1="8.07" y1="51.78" x2="41.95" y2="51.78" gradientUnits="userSpaceOnUse">
            <stop offset="0" stop-color="#ccc" />
            <stop offset="0.03" stop-color="#bbb" />
            <stop offset="0.06" stop-color="#a7a7a7" />
            <stop offset="0.09" stop-color="#a0a0a0" />
            <stop offset="0.1" stop-color="#a3a3a3" />
            <stop offset="0.49" stop-color="#f6f6f6" />
            <stop offset="0.62" stop-color="#f3f3f3" />
            <stop offset="0.72" stop-color="#eaeaea" />
            <stop offset="0.8" stop-color="#dbdbdb" />
            <stop offset="0.87" stop-color="#c5c5c5" />
            <stop offset="0.94" stop-color="#aaa" />
            <stop offset="1" stop-color="#898989" />
        </linearGradient>
        <linearGradient id="未命名的渐变_143-7" x1="142.6" y1="43.53" x2="161.91" y2="43.53"
            gradientTransform="translate(96.75 253.87) rotate(-90)" xlink:href="#未命名的渐变_143" />
        <linearGradient id="未命名的渐变_143-8" x1="155.97" y1="3.27" x2="166.23" y2="3.27"
            gradientTransform="translate(-61.08 89.5)" xlink:href="#未命名的渐变_143" />
        <linearGradient id="未命名的渐变_143-9" x1="157.17" y1="44.55" x2="165.03" y2="44.55"
            gradientTransform="translate(-19.8 48.22)" xlink:href="#未命名的渐变_143" />
        <linearGradient id="未命名的渐变_143-10" x1="157.49" y1="23.24" x2="164.53" y2="23.24"
            gradientTransform="translate(-41.02 69.63)" xlink:href="#未命名的渐变_143" />
        <linearGradient id="未命名的渐变_143-11" x1="163.7" y1="46.34" x2="184.05" y2="46.34"
            gradientTransform="translate(96.75 253.87) rotate(-90)" xlink:href="#未命名的渐变_143" />
        <linearGradient id="未命名的渐变_143-12" x1="141.77" y1="48.61" x2="162.74" y2="48.61"
            gradientTransform="translate(96.75 253.87) rotate(-90)" xlink:href="#未命名的渐变_143" />
        <linearGradient id="未命名的渐变_143-13" x1="9.25" y1="29.06" x2="10.59" y2="29.06"
            gradientTransform="translate(-19.14 38.98) rotate(-90)" xlink:href="#未命名的渐变_143" />
        <linearGradient id="未命名的渐变_143-14" x1="17.77" y1="28.95" x2="18.58" y2="28.95"
            gradientTransform="translate(-10.78 47.12) rotate(-90)" xlink:href="#未命名的渐变_143" />
        <linearGradient id="未命名的渐变_143-15" x1="20.65" y1="28.95" x2="21.46" y2="28.95"
            gradientTransform="translate(-7.9 50) rotate(-90)" xlink:href="#未命名的渐变_143" />
        <linearGradient id="未命名的渐变_143-16" x1="23.52" y1="28.95" x2="24.33" y2="28.95"
            gradientTransform="translate(-5.02 52.88) rotate(-90)" xlink:href="#未命名的渐变_143" />
        <linearGradient id="未命名的渐变_143-17" x1="26.4" y1="28.95" x2="27.21" y2="28.95"
            gradientTransform="translate(-2.14 55.76) rotate(-90)" xlink:href="#未命名的渐变_143" />
        <linearGradient id="未命名的渐变_143-18" x1="29.28" y1="28.95" x2="30.09" y2="28.95"
            gradientTransform="translate(0.73 58.63) rotate(-90)" xlink:href="#未命名的渐变_143" />
        <linearGradient id="未命名的渐变_143-19" x1="32.47" y1="28.95" x2="33.28" y2="28.95"
            gradientTransform="translate(3.92 61.82) rotate(-90)" xlink:href="#未命名的渐变_143" />
        <linearGradient id="未命名的渐变_143-20" x1="44.92" y1="37.23" x2="45.73" y2="37.23"
            gradientTransform="translate(8.09 82.55) rotate(-90)" xlink:href="#未命名的渐变_143" />
    </defs>
    <title>Mixer （搅拌机）</title>
    <g id="图层_2" data-name="图层 2">
        <g id="图层_22" data-name="图层 22">
            <g id="Mixer_搅拌机_" data-name="Mixer （搅拌机）">
                <rect class="cls-1" y="70.87" width="47.6" height="43.59" />
                <polygon class="cls-2" points="79.18 110.96 79.18 74.78 97.18 86.94 97.18 98.93 79.18 110.96" />
                <rect class="cls-3" x="47.64" y="74.08" width="25.89" height="36.88" />
                <rect class="cls-4" x="9.29" y="45.25" width="31.18" height="0.7" />
                <rect class="cls-4" x="10.16" y="13.97" width="29.75" height="0.7" />
                <rect class="cls-4" x="10.68" y="49.91" width="28.67" height="0.65" />
                <rect class="cls-5" x="10.67" y="47.02" width="28.67" height="2.89" />
                <rect class="cls-6" x="12.62" y="52.99" width="24.84" height="17.88" />
                <rect class="cls-4" x="55.43" y="91.8" width="37.63" height="1.42"
                    transform="translate(-18.27 166.76) rotate(-90)" />
                <rect class="cls-7" x="9.29" y="45.95" width="31.18" height="1.07" />
                <path class="cls-8" d="M39.78,45.25H10.23V3.33h0a34.41,34.41,0,0,1,29.09-.21l.46.21Z" />
                <rect class="cls-9" x="52.9" y="90.25" width="48.46" height="4.1" rx="0.51"
                    transform="translate(-15.17 169.43) rotate(-90)" />
                <rect class="cls-10" x="8.07" y="50.56" width="33.89" height="2.43" rx="0.35" />
                <path class="cls-11"
                    d="M139,96.79,141.44,92s5,8.67,1.88,14.85c-2.74,5.49-5.54,4.92-6.7,3.49s.72-5.23,1.41-7.6A23.11,23.11,0,0,0,139,96.79Z" />
                <rect class="cls-12" x="94.89" y="89.93" width="10.26" height="5.68"
                    transform="translate(7.25 192.79) rotate(-90)" />
                <rect class="cls-7" x="1.58" y="26.43" width="23.43" height="5.26"
                    transform="translate(-15.76 42.35) rotate(-90)" />
                <polygon class="cls-7" points="44.92 29.57 44.92 44.96 39.94 43.07 39.94 31.83 44.92 29.57" />
                <rect class="cls-13" x="137.37" y="88.21" width="7.86" height="9.12"
                    transform="translate(48.53 234.07) rotate(-90)" />
                <rect class="cls-14" x="116.47" y="75.73" width="7.05" height="34.25"
                    transform="translate(27.13 212.85) rotate(-90)" />
                <path class="cls-15"
                    d="M139.59,90.17h5.69c2.77-5,3.33-12,2.1-15.89-.7-2.17-2.93-4.94-5.72-4.39a4.41,4.41,0,0,0-3.44,3.92,24.77,24.77,0,0,0,.39,5.22c.5,2.74,1.57,6.53,1,11.14Z" />
                <path class="cls-16"
                    d="M140.72,97.15v-6S150,97.31,150,105c0,6.85-3.08,7.66-4.95,6.82s-1.89-5.57-2.37-8.28A25.46,25.46,0,0,0,140.72,97.15Z" />
                <rect class="cls-17" x="-1.79" y="28.38" width="23.43" height="1.35"
                    transform="translate(38.98 19.14) rotate(90)" />
                <rect class="cls-18" x="5.13" y="28.54" width="26.09" height="0.81"
                    transform="translate(47.12 10.78) rotate(90)" />
                <rect class="cls-19" x="8" y="28.54" width="26.09" height="0.81"
                    transform="translate(50 7.9) rotate(90)" />
                <rect class="cls-20" x="10.88" y="28.54" width="26.09" height="0.81"
                    transform="translate(52.88 5.02) rotate(90)" />
                <rect class="cls-21" x="13.76" y="28.54" width="26.09" height="0.81"
                    transform="translate(55.76 2.14) rotate(90)" />
                <rect class="cls-22" x="16.64" y="28.54" width="26.09" height="0.81"
                    transform="translate(58.63 -0.73) rotate(90)" />
                <rect class="cls-23" x="19.83" y="28.54" width="26.09" height="0.81"
                    transform="translate(61.82 -3.92) rotate(90)" />
                <rect class="cls-24" x="37.44" y="36.82" width="15.76" height="0.81"
                    transform="translate(82.55 -8.09) rotate(90)" />
                
            </g>
        </g>
    </g>
</svg>