<svg xmlns="http://www.w3.org/2000/svg" xmlns:xlink="http://www.w3.org/1999/xlink" viewBox="0 0 65.31 149.5">
    <defs>
        <style>
            .cls-1 {
                fill: url(#未命名的渐变_143);
            }

            .cls-2 {
                fill: url(#未命名的渐变_143-2);
            }

            .cls-3 {
                fill: url(#未命名的渐变_143-3);
            }

            .cls-4 {
                fill: url(#未命名的渐变_79);
            }

            .cls-5 {
                fill: url(#未命名的渐变_143-4);
            }

            .cls-6 {
                fill: url(#未命名的渐变_143-5);
            }

            .cls-7 {
                fill: url(#未命名的渐变_143-6);
            }

            .cls-8 {
                fill: url(#未命名的渐变_143-7);
            }

            .cls-9 {
                fill: url(#未命名的渐变_143-8);
            }

            .cls-10 {
                opacity: 0.2;
            }
        </style>
        <linearGradient id="未命名的渐变_143" x1="29.14" y1="97.94" x2="35.63" y2="97.94" gradientUnits="userSpaceOnUse">
            <stop offset="0" stop-color="#b7b7b7" />
            <stop offset="0.03" stop-color="#9b9d9d" />
            <stop offset="0.07" stop-color="#878b8b" />
            <stop offset="0.09" stop-color="#808484" />
            <stop offset="0.2" stop-color="#a3a6a6" />
            <stop offset="0.49" stop-color="#f6f6f6" />
            <stop offset="0.61" stop-color="#f3f3f3" />
            <stop offset="0.7" stop-color="#eaeaea" />
            <stop offset="0.77" stop-color="#dbdbdb" />
            <stop offset="0.83" stop-color="#c5c5c5" />
            <stop offset="0.9" stop-color="#aaa" />
            <stop offset="0.95" stop-color="#888" />
            <stop offset="1" stop-color="#666" />
        </linearGradient>
        <linearGradient id="未命名的渐变_143-2" x1="21.98" y1="34.32" x2="43.43" y2="34.32" xlink:href="#未命名的渐变_143" />
        <linearGradient id="未命名的渐变_143-3" x1="23.42" y1="16.03" x2="41.91" y2="16.03" xlink:href="#未命名的渐变_143" />
        <linearGradient id="未命名的渐变_79" x1="23.42" y1="30.76" x2="41.91" y2="30.76" gradientUnits="userSpaceOnUse">
            <stop offset="0" stop-color="#ccc" />
            <stop offset="0.03" stop-color="#bbb" />
            <stop offset="0.06" stop-color="#a7a7a7" />
            <stop offset="0.09" stop-color="#a0a0a0" />
            <stop offset="0.1" stop-color="#a3a3a3" />
            <stop offset="0.49" stop-color="#f6f6f6" />
            <stop offset="0.62" stop-color="#f3f3f3" />
            <stop offset="0.72" stop-color="#eaeaea" />
            <stop offset="0.8" stop-color="#dbdbdb" />
            <stop offset="0.87" stop-color="#c5c5c5" />
            <stop offset="0.94" stop-color="#aaa" />
            <stop offset="1" stop-color="#898989" />
        </linearGradient>
        <linearGradient id="未命名的渐变_143-4" x1="28.58" y1="142.78" x2="36.36" y2="142.78" xlink:href="#未命名的渐变_143" />
        <linearGradient id="未命名的渐变_143-5" x1="26.06" y1="1.25" x2="39.18" y2="1.25" xlink:href="#未命名的渐变_143" />
        <linearGradient id="未命名的渐变_143-6" x1="28.02" y1="46.86" x2="37.26" y2="46.86" xlink:href="#未命名的渐变_143" />
        <linearGradient id="未命名的渐变_143-7" x1="36.33" y1="143.15" x2="65.31" y2="143.15" xlink:href="#未命名的渐变_143" />
        <linearGradient id="未命名的渐变_143-8" x1="-89.1" y1="143.15" x2="-60.11" y2="143.15"
            gradientTransform="matrix(-1, 0, 0, 1, -60.11, 0)" xlink:href="#未命名的渐变_143" />
    </defs>
    <title>Mixer blade（搅拌机叶片）</title>
    <g id="图层_2" data-name="图层 2">
        <g id="图层_22" data-name="图层 22">
            <g id="Mixer_blade_搅拌机叶片_" data-name="Mixer blade（搅拌机叶片）">
                <rect class="cls-1" x="29.14" y="56.01" width="6.48" height="83.85" />
                <rect class="cls-2" x="21.98" y="31.96" width="21.44" height="4.72" rx="0.47" />
                <rect class="cls-3" x="23.42" y="2.5" width="18.49" height="27.05" />
                <rect class="cls-4" x="23.42" y="29.56" width="18.49" height="2.41" />
                <rect class="cls-5" x="28.58" y="139.63" width="7.78" height="6.31" />
                <rect class="cls-6" x="26.06" width="13.12" height="2.5" />
                <rect class="cls-7" x="28.02" y="36.68" width="9.24" height="20.36" />
                <path class="cls-8"
                    d="M36.36,141.49c2.06-2.43,18.07-5.08,24.21-4.63a4,4,0,0,1,1.73.51c3.75,2.47,4.08,9,.53,11.44a4.71,4.71,0,0,1-2.3.68c-5.3-.24-20.72-1.13-24.17-3.55C36.29,145.88,36.36,141.49,36.36,141.49Z" />
                <path class="cls-9"
                    d="M29,141.49c-2.05-2.43-18.06-5.08-24.21-4.63a3.87,3.87,0,0,0-1.72.51c-3.76,2.47-4.09,9-.54,11.44a4.76,4.76,0,0,0,2.3.68c5.3-.24,20.72-1.13,24.17-3.55C29,145.88,29,141.49,29,141.49Z" />
                
            </g>
        </g>
    </g>
</svg>