<svg xmlns="http://www.w3.org/2000/svg" xmlns:xlink="http://www.w3.org/1999/xlink" viewBox="0 0 59.25 150">
    <defs>
        <style>
            .cls-1 {
                fill: url(#未命名的渐变_143);
            }

            .cls-2 {
                fill: url(#未命名的渐变_143-2);
            }

            .cls-3 {
                fill: url(#未命名的渐变_143-3);
            }

            .cls-4 {
                fill: url(#未命名的渐变_143-4);
            }

            .cls-5 {
                fill: url(#未命名的渐变_143-5);
            }

            .cls-6 {
                fill: url(#未命名的渐变_79);
            }

            .cls-7 {
                fill: #e5e5e5;
            }

            .cls-8 {
                fill: #a2a7a9;
            }

            .cls-9 {
                fill: url(#未命名的渐变_143-6);
            }

            .cls-10 {
                fill: url(#未命名的渐变_143-7);
            }

            .cls-11 {
                fill: url(#未命名的渐变_143-8);
            }

            .cls-12 {
                fill: url(#未命名的渐变_143-9);
            }

            .cls-13 {
                fill: url(#未命名的渐变_143-10);
            }

            .cls-14 {
                fill: url(#未命名的渐变_143-11);
            }

            .cls-15 {
                fill: url(#未命名的渐变_143-12);
            }

            .cls-16 {
                fill: url(#未命名的渐变_143-13);
            }

            .cls-17 {
                fill: url(#未命名的渐变_143-14);
            }

            .cls-18 {
                fill: url(#未命名的渐变_143-15);
            }

            .cls-19 {
                fill: url(#未命名的渐变_143-16);
            }

            .cls-20 {
                fill: url(#未命名的渐变_143-17);
            }

            .cls-21 {
                fill: url(#未命名的渐变_143-18);
            }

            .cls-22 {
                fill: url(#未命名的渐变_143-19);
            }

            .cls-23 {
                fill: url(#未命名的渐变_143-20);
            }

            .cls-24 {
                fill: url(#未命名的渐变_143-21);
            }

            .cls-25 {
                fill: url(#未命名的渐变_143-22);
            }

            .cls-26 {
                fill: url(#未命名的渐变_143-23);
            }

            .cls-27 {
                fill: url(#未命名的渐变_143-24);
            }

            .cls-28 {
                fill: url(#未命名的渐变_143-25);
            }

            .cls-29 {
                opacity: 0.2;
            }
        </style>
        <linearGradient id="未命名的渐变_143" y1="112.49" x2="27.78" y2="112.49" gradientUnits="userSpaceOnUse">
            <stop offset="0" stop-color="#b7b7b7" />
            <stop offset="0.03" stop-color="#9b9d9d" />
            <stop offset="0.07" stop-color="#878b8b" />
            <stop offset="0.09" stop-color="#808484" />
            <stop offset="0.2" stop-color="#a3a6a6" />
            <stop offset="0.49" stop-color="#f6f6f6" />
            <stop offset="0.61" stop-color="#f3f3f3" />
            <stop offset="0.7" stop-color="#eaeaea" />
            <stop offset="0.77" stop-color="#dbdbdb" />
            <stop offset="0.83" stop-color="#c5c5c5" />
            <stop offset="0.9" stop-color="#aaa" />
            <stop offset="0.95" stop-color="#888" />
            <stop offset="1" stop-color="#666" />
        </linearGradient>
        <linearGradient id="未命名的渐变_143-2" x1="648.04" y1="112.49" x2="675.82" y2="112.49"
            gradientTransform="matrix(-1, 0, 0, 1, 707.29, 0)" xlink:href="#未命名的渐变_143" />
        <linearGradient id="未命名的渐变_143-3" x1="17.77" y1="49.93" x2="41.58" y2="49.93" xlink:href="#未命名的渐变_143" />
        <linearGradient id="未命名的渐变_143-4" x1="16.35" y1="62.17" x2="43" y2="62.17" xlink:href="#未命名的渐变_143" />
        <linearGradient id="未命名的渐变_143-5" x1="20.16" y1="16.08" x2="39.19" y2="16.08" xlink:href="#未命名的渐变_143" />
        <linearGradient id="未命名的渐变_79" x1="16.34" y1="34.92" x2="43.01" y2="34.92" gradientUnits="userSpaceOnUse">
            <stop offset="0" stop-color="#ccc" />
            <stop offset="0.03" stop-color="#bbb" />
            <stop offset="0.06" stop-color="#a7a7a7" />
            <stop offset="0.09" stop-color="#a0a0a0" />
            <stop offset="0.1" stop-color="#a3a3a3" />
            <stop offset="0.49" stop-color="#f6f6f6" />
            <stop offset="0.62" stop-color="#f3f3f3" />
            <stop offset="0.72" stop-color="#eaeaea" />
            <stop offset="0.8" stop-color="#dbdbdb" />
            <stop offset="0.87" stop-color="#c5c5c5" />
            <stop offset="0.94" stop-color="#aaa" />
            <stop offset="1" stop-color="#898989" />
        </linearGradient>
        <linearGradient id="未命名的渐变_143-6" x1="21.57" y1="16.79" x2="21.89" y2="16.79"
            gradientTransform="translate(4.94 38.51) rotate(-90)" xlink:href="#未命名的渐变_143" />
        <linearGradient id="未命名的渐变_143-7" x1="22.88" y1="16.79" x2="23.2" y2="16.79"
            gradientTransform="translate(6.25 39.83) rotate(-90)" xlink:href="#未命名的渐变_143" />
        <linearGradient id="未命名的渐变_143-8" x1="24.2" y1="16.79" x2="24.51" y2="16.79"
            gradientTransform="translate(7.57 41.14) rotate(-90)" xlink:href="#未命名的渐变_143" />
        <linearGradient id="未命名的渐变_143-9" x1="25.51" y1="16.79" x2="25.83" y2="16.79"
            gradientTransform="translate(8.88 42.46) rotate(-90)" xlink:href="#未命名的渐变_143" />
        <linearGradient id="未命名的渐变_143-10" x1="26.82" y1="16.79" x2="27.14" y2="16.79"
            gradientTransform="translate(10.19 43.77) rotate(-90)" xlink:href="#未命名的渐变_143" />
        <linearGradient id="未命名的渐变_143-11" x1="28.14" y1="16.79" x2="28.46" y2="16.79"
            gradientTransform="translate(11.51 45.09) rotate(-90)" xlink:href="#未命名的渐变_143" />
        <linearGradient id="未命名的渐变_143-12" x1="29.45" y1="16.79" x2="29.77" y2="16.79"
            gradientTransform="translate(12.82 46.4) rotate(-90)" xlink:href="#未命名的渐变_143" />
        <linearGradient id="未命名的渐变_143-13" x1="30.93" y1="16.79" x2="31.24" y2="16.79"
            gradientTransform="translate(14.3 47.87) rotate(-90)" xlink:href="#未命名的渐变_143" />
        <linearGradient id="未命名的渐变_143-14" x1="32.19" y1="16.79" x2="32.51" y2="16.79"
            gradientTransform="translate(15.56 49.14) rotate(-90)" xlink:href="#未命名的渐变_143" />
        <linearGradient id="未命名的渐变_143-15" x1="33.44" y1="16.79" x2="33.75" y2="16.79"
            gradientTransform="translate(16.81 50.38) rotate(-90)" xlink:href="#未命名的渐变_143" />
        <linearGradient id="未命名的渐变_143-16" x1="34.73" y1="16.79" x2="35.04" y2="16.79"
            gradientTransform="translate(18.1 51.67) rotate(-90)" xlink:href="#未命名的渐变_143" />
        <linearGradient id="未命名的渐变_143-17" x1="36.3" y1="16.92" x2="36.62" y2="16.92"
            gradientTransform="translate(19.54 53.38) rotate(-90)" xlink:href="#未命名的渐变_143" />
        <linearGradient id="未命名的渐变_143-18" x1="37.56" y1="16.79" x2="37.88" y2="16.79"
            gradientTransform="translate(20.93 54.51) rotate(-90)" xlink:href="#未命名的渐变_143" />
        <linearGradient id="未命名的渐变_143-19" x1="26.82" y1="103.15" x2="32.53" y2="103.15" xlink:href="#未命名的渐变_143" />
        <linearGradient id="未命名的渐变_143-20" x1="9.58" y1="145.64" x2="50" y2="145.64" xlink:href="#未命名的渐变_143" />
        <linearGradient id="未命名的渐变_143-21" x1="25.76" y1="144.86" x2="33.59" y2="144.86" xlink:href="#未命名的渐变_143" />
        <linearGradient id="未命名的渐变_143-22" x1="25.76" y1="65.96" x2="33.59" y2="65.96" xlink:href="#未命名的渐变_143" />
        <linearGradient id="未命名的渐变_143-23" x1="25.76" y1="78.05" x2="33.59" y2="78.05" xlink:href="#未命名的渐变_143" />
        <linearGradient id="未命名的渐变_143-24" x1="25.76" y1="108.31" x2="33.59" y2="108.31" xlink:href="#未命名的渐变_143" />
        <linearGradient id="未命名的渐变_143-25" x1="25.76" y1="109.86" x2="33.59" y2="109.86" xlink:href="#未命名的渐变_143" />
    </defs>
    <title>Mixer （搅拌机） (2)</title>
    <g id="图层_2" data-name="图层 2">
        <g id="图层_22" data-name="图层 22">
            <g id="Mixer_搅拌机_" data-name="Mixer （搅拌机）">
                <polygon class="cls-1"
                    points="23.68 109.86 20.58 116.67 0 113 0 108.98 27.78 108.31 27.45 109.25 23.68 109.86" />
                <polygon class="cls-2"
                    points="35.56 109.86 38.67 116.67 59.24 113 59.24 108.98 31.47 108.31 31.8 109.25 35.56 109.86" />
                <rect class="cls-3" x="17.77" y="39.79" width="23.82" height="20.28" />
                <rect class="cls-4" x="16.35" y="60.07" width="26.64" height="4.2" />
                <path class="cls-5"
                    d="M39.19,27.19l-1.68,1.7a11,11,0,0,1-15.67,0l-1.68-1.7V1.82h0a25.75,25.75,0,0,1,19,0h0Z" />
                <rect class="cls-6" x="16.34" y="30.05" width="26.67" height="9.73" />
                <rect class="cls-7" x="19.5" y="27.62" width="20.35" height="0.44" />
                <rect class="cls-8" x="19.64" y="27.18" width="20.07" height="0.44" />
                <rect class="cls-9" x="13.01" y="16.63" width="17.44" height="0.32"
                    transform="translate(38.51 -4.94) rotate(90)" />
                <rect class="cls-10" x="14.32" y="16.63" width="17.44" height="0.32"
                    transform="translate(39.83 -6.25) rotate(90)" />
                <rect class="cls-11" x="15.64" y="16.63" width="17.44" height="0.32"
                    transform="translate(41.14 -7.57) rotate(90)" />
                <rect class="cls-12" x="16.95" y="16.63" width="17.44" height="0.32"
                    transform="translate(42.46 -8.88) rotate(90)" />
                <rect class="cls-13" x="18.27" y="16.63" width="17.44" height="0.32"
                    transform="translate(43.77 -10.19) rotate(90)" />
                <rect class="cls-14" x="19.58" y="16.63" width="17.44" height="0.32"
                    transform="translate(45.09 -11.51) rotate(90)" />
                <rect class="cls-15" x="20.89" y="16.63" width="17.44" height="0.32"
                    transform="translate(46.4 -12.82) rotate(90)" />
                <rect class="cls-16" x="22.37" y="16.63" width="17.44" height="0.32"
                    transform="translate(47.87 -14.3) rotate(90)" />
                <rect class="cls-17" x="23.63" y="16.63" width="17.44" height="0.32"
                    transform="translate(49.14 -15.56) rotate(90)" />
                <rect class="cls-18" x="24.88" y="16.63" width="17.44" height="0.32"
                    transform="translate(50.38 -16.81) rotate(90)" />
                <rect class="cls-19" x="26.17" y="16.63" width="17.44" height="0.32"
                    transform="translate(51.67 -18.1) rotate(90)" />
                <rect class="cls-20" x="27.74" y="16.76" width="17.44" height="0.32"
                    transform="translate(53.38 -19.54) rotate(90)" />
                <rect class="cls-21" x="29" y="16.63" width="17.44" height="0.32"
                    transform="translate(54.51 -20.93) rotate(90)" />
                <rect class="cls-8" x="20.09" y="7.57" width="19.16" height="0.63" />
                <rect class="cls-22" x="26.82" y="64.28" width="5.7" height="77.76" />
                <polygon class="cls-23" points="50 144.34 29.94 150 9.58 144.5 9.58 141.29 50 141.29 50 144.34" />
                <rect class="cls-24" x="25.76" y="141.29" width="7.83" height="7.14" />
                <rect class="cls-25" x="25.76" y="64.28" width="7.83" height="3.36" />
                <rect class="cls-26" x="25.76" y="77.07" width="7.83" height="1.97" />
                <rect class="cls-27" x="25.76" y="107.94" width="7.83" height="0.74" />
                <rect class="cls-28" x="25.76" y="109.49" width="7.83" height="0.74" />
                
            </g>
        </g>
    </g>
</svg>