<svg xmlns="http://www.w3.org/2000/svg" xmlns:xlink="http://www.w3.org/1999/xlink" viewBox="0 0 150 44.4">
    <defs>
        <style>
            .cls-1 {
                fill: url(#未命名的渐变_143);
            }

            .cls-2 {
                fill: url(#未命名的渐变_143-2);
            }

            .cls-3 {
                fill: url(#未命名的渐变_143-3);
            }

            .cls-4 {
                fill: url(#未命名的渐变_143-4);
            }

            .cls-5 {
                fill: url(#未命名的渐变_143-5);
            }

            .cls-6 {
                fill: url(#未命名的渐变_143-6);
            }

            .cls-7 {
                fill: url(#未命名的渐变_143-7);
            }

            .cls-8 {
                fill: url(#未命名的渐变_143-8);
            }

            .cls-9 {
                fill: #a2a7a9;
            }

            .cls-10 {
                fill: url(#未命名的渐变_143-9);
            }

            .cls-11 {
                fill: url(#未命名的渐变_143-10);
            }

            .cls-12 {
                fill: url(#未命名的渐变_143-11);
            }

            .cls-13 {
                fill: url(#未命名的渐变_143-12);
            }

            .cls-14 {
                fill: url(#未命名的渐变_143-13);
            }

            .cls-15 {
                fill: url(#未命名的渐变_143-14);
            }

            .cls-16 {
                fill: url(#未命名的渐变_143-15);
            }

            .cls-17 {
                fill: url(#未命名的渐变_143-16);
            }

            .cls-18 {
                fill: url(#未命名的渐变_143-17);
            }

            .cls-19 {
                fill: url(#未命名的渐变_143-18);
            }

            .cls-20 {
                fill: url(#未命名的渐变_143-19);
            }

            .cls-21 {
                fill: url(#未命名的渐变_143-20);
            }

            .cls-22 {
                fill: url(#未命名的渐变_143-21);
            }

            .cls-23 {
                fill: url(#未命名的渐变_143-22);
            }

            .cls-24 {
                opacity: 0.2;
            }
        </style>
        <linearGradient id="未命名的渐变_143" x1="-251.19" y1="-304.96" x2="-228.35" y2="-304.96"
            gradientTransform="translate(326.83 -211.48) rotate(-90)" gradientUnits="userSpaceOnUse">
            <stop offset="0" stop-color="#b7b7b7" />
            <stop offset="0.03" stop-color="#9b9d9d" />
            <stop offset="0.07" stop-color="#878b8b" />
            <stop offset="0.09" stop-color="#808484" />
            <stop offset="0.2" stop-color="#a3a6a6" />
            <stop offset="0.49" stop-color="#f6f6f6" />
            <stop offset="0.61" stop-color="#f3f3f3" />
            <stop offset="0.7" stop-color="#eaeaea" />
            <stop offset="0.77" stop-color="#dbdbdb" />
            <stop offset="0.83" stop-color="#c5c5c5" />
            <stop offset="0.9" stop-color="#aaa" />
            <stop offset="0.95" stop-color="#888" />
            <stop offset="1" stop-color="#666" />
        </linearGradient>
        <linearGradient id="未命名的渐变_143-2" x1="37.57" y1="40.44" x2="37.57" y2="16.01"
            gradientTransform="translate(65.79 -9.35) rotate(90)" xlink:href="#未命名的渐变_143" />
        <linearGradient id="未命名的渐变_143-3" x1="46.97" y1="40.84" x2="46.97" y2="3.98"
            gradientTransform="translate(69.37 -24.56) rotate(90)" xlink:href="#未命名的渐变_143" />
        <linearGradient id="未命名的渐变_143-4" x1="56.06" y1="31.71" x2="56.06" y2="12.91"
            gradientTransform="translate(78.37 -33.75) rotate(90)" xlink:href="#未命名的渐变_143" />
        <linearGradient id="未命名的渐变_143-5" x1="106.01" y1="42.86" x2="106.01" y2="1.53"
            gradientTransform="translate(128.2 -83.81) rotate(90)" xlink:href="#未命名的渐变_143" />
        <linearGradient id="未命名的渐变_143-6" x1="40.82" y1="36.24" x2="40.82" y2="19.96"
            gradientTransform="translate(68.92 -12.73) rotate(90)" xlink:href="#未命名的渐变_143" />
        <linearGradient id="未命名的渐变_143-7" x1="60.9" y1="33.69" x2="60.9" y2="10.69"
            gradientTransform="translate(83.08 -38.71) rotate(90)" xlink:href="#未命名的渐变_143" />
        <linearGradient id="未命名的渐变_143-8" x1="65.92" y1="44.4" x2="65.92" y2="0.02"
            gradientTransform="translate(88.13 -43.72) rotate(90)" xlink:href="#未命名的渐变_143" />
        <linearGradient id="未命名的渐变_143-9" x1="146.19" y1="44.38" x2="146.19" y2="0"
            gradientTransform="translate(168.38 -124) rotate(90)" xlink:href="#未命名的渐变_143" />
        <linearGradient id="未命名的渐变_143-10" x1="-249.51" y1="-304" x2="-249.13" y2="-304" xlink:href="#未命名的渐变_143" />
        <linearGradient id="未命名的渐变_143-11" x1="-247.93" y1="-304" x2="-247.55" y2="-304" xlink:href="#未命名的渐变_143" />
        <linearGradient id="未命名的渐变_143-12" x1="-246.35" y1="-304" x2="-245.97" y2="-304" xlink:href="#未命名的渐变_143" />
        <linearGradient id="未命名的渐变_143-13" x1="-244.78" y1="-304" x2="-244.39" y2="-304" xlink:href="#未命名的渐变_143" />
        <linearGradient id="未命名的渐变_143-14" x1="-243.2" y1="-304" x2="-242.82" y2="-304" xlink:href="#未命名的渐变_143" />
        <linearGradient id="未命名的渐变_143-15" x1="-241.62" y1="-304" x2="-241.24" y2="-304" xlink:href="#未命名的渐变_143" />
        <linearGradient id="未命名的渐变_143-16" x1="-240.04" y1="-304" x2="-239.66" y2="-304" xlink:href="#未命名的渐变_143" />
        <linearGradient id="未命名的渐变_143-17" x1="-238.27" y1="-304" x2="-237.89" y2="-304" xlink:href="#未命名的渐变_143" />
        <linearGradient id="未命名的渐变_143-18" x1="-236.75" y1="-304" x2="-236.37" y2="-304" xlink:href="#未命名的渐变_143" />
        <linearGradient id="未命名的渐变_143-19" x1="-235.26" y1="-304" x2="-234.88" y2="-304" xlink:href="#未命名的渐变_143" />
        <linearGradient id="未命名的渐变_143-20" x1="-233.71" y1="-304" x2="-233.33" y2="-304" xlink:href="#未命名的渐变_143" />
        <linearGradient id="未命名的渐变_143-21" x1="-231.82" y1="-303.82" x2="-231.44" y2="-303.82"
            xlink:href="#未命名的渐变_143" />
        <linearGradient id="未命名的渐变_143-22" x1="-230.31" y1="-304" x2="-229.93" y2="-304" xlink:href="#未命名的渐变_143" />
    </defs>
    <title>Mixer（搅拌机）</title>
    <g id="图层_2" data-name="图层 2">
        <g id="图层_22" data-name="图层 22">
            <g id="Mixer_搅拌机_" data-name="Mixer（搅拌机）">
                <path class="cls-1"
                    d="M37,16.86l2.31,2a12.14,12.14,0,0,1,0,18.81l-2.31,2H2.48a27.53,27.53,0,0,1,0-22.85H37Z" />
                <rect class="cls-2" x="25.36" y="27.62" width="24.43" height="1.2"
                    transform="translate(9.35 65.79) rotate(-90)" />
                <rect class="cls-3" x="28.54" y="17.03" width="36.86" height="10.75"
                    transform="translate(24.56 69.37) rotate(-90)" />
                <rect class="cls-4" x="46.65" y="18.59" width="18.81" height="7.43"
                    transform="translate(33.75 78.37) rotate(-90)" />
                <rect class="cls-5" x="85.34" y="-21.8" width="41.33" height="87.99"
                    transform="translate(83.81 128.2) rotate(-90)" />
                <rect class="cls-6" x="32.69" y="27.33" width="16.28" height="1.54"
                    transform="translate(12.73 68.92) rotate(-90)" />
                <rect class="cls-7" x="49.39" y="21.07" width="23" height="2.24"
                    transform="translate(38.71 83.08) rotate(-90)" />
                <rect class="cls-8" x="43.74" y="20.75" width="44.38" height="2.91" rx="0.32"
                    transform="translate(43.72 88.13) rotate(-90)" />
                <rect class="cls-9" x="47.1" y="21.84" width="41.4" height="0.84"
                    transform="translate(45.54 90.06) rotate(-90)" />
                <rect class="cls-9" x="43.34" y="21.77" width="41.4" height="0.84"
                    transform="translate(41.86 86.23) rotate(-90)" />
                <rect class="cls-10" x="124" y="20.73" width="44.38" height="2.91" rx="0.32"
                    transform="translate(124 168.38) rotate(-90)" />
                <rect class="cls-9" x="127.36" y="21.82" width="41.4" height="0.84"
                    transform="translate(125.82 170.3) rotate(-90)" />
                <rect class="cls-9" x="123.61" y="21.75" width="41.4" height="0.84"
                    transform="translate(122.14 166.48) rotate(-90)" />
                <rect class="cls-9" x="24.69" y="27.9" width="23.7" height="0.86"
                    transform="translate(8.21 64.87) rotate(-90)" />
                <rect class="cls-11" x="10.98" y="37.64" width="23.71" height="0.38" />
                <rect class="cls-12" x="10.98" y="36.07" width="23.71" height="0.38" />
                <rect class="cls-13" x="10.98" y="34.49" width="23.71" height="0.38" />
                <rect class="cls-14" x="10.98" y="32.91" width="23.71" height="0.38" />
                <rect class="cls-15" x="10.98" y="31.33" width="23.71" height="0.38" />
                <rect class="cls-16" x="10.98" y="29.76" width="23.71" height="0.38" />
                <rect class="cls-17" x="10.98" y="28.18" width="23.71" height="0.38" />
                <rect class="cls-18" x="10.98" y="26.41" width="23.71" height="0.38" />
                <rect class="cls-19" x="10.98" y="24.89" width="23.71" height="0.38" />
                <rect class="cls-20" x="10.98" y="23.4" width="23.71" height="0.38" />
                <rect class="cls-21" x="10.98" y="21.85" width="23.71" height="0.38" />
                <rect class="cls-22" x="11.15" y="19.96" width="23.71" height="0.38" />
                <rect class="cls-23" x="10.98" y="18.45" width="23.71" height="0.38" />
                <rect class="cls-9" x="-0.78" y="27.87" width="23.01" height="0.86"
                    transform="translate(-17.57 39.02) rotate(-90)" />
                
            </g>
        </g>
    </g>
</svg>