<svg xmlns="http://www.w3.org/2000/svg" xmlns:xlink="http://www.w3.org/1999/xlink" viewBox="0 0 90.68 149.92">
    <defs>
        <style>
            .cls-1 {
                fill: url(#未命名的渐变_143);
            }

            .cls-2 {
                fill: url(#未命名的渐变_143-2);
            }

            .cls-3 {
                fill: url(#未命名的渐变_143-3);
            }

            .cls-4 {
                fill: url(#未命名的渐变_143-4);
            }

            .cls-5 {
                fill: url(#未命名的渐变_143-5);
            }

            .cls-6 {
                fill: url(#未命名的渐变_143-6);
            }

            .cls-7 {
                fill: url(#未命名的渐变_143-7);
            }

            .cls-8 {
                fill: url(#未命名的渐变_143-8);
            }

            .cls-9 {
                fill: url(#未命名的渐变_143-9);
            }

            .cls-10 {
                fill: url(#未命名的渐变_143-10);
            }

            .cls-11 {
                fill: url(#未命名的渐变_143-11);
            }

            .cls-12 {
                fill: url(#未命名的渐变_143-12);
            }

            .cls-13 {
                fill: url(#未命名的渐变_143-13);
            }

            .cls-14 {
                fill: url(#未命名的渐变_143-14);
            }

            .cls-15 {
                fill: url(#未命名的渐变_143-15);
            }

            .cls-16 {
                fill: url(#未命名的渐变_143-16);
            }

            .cls-17 {
                fill: url(#未命名的渐变_143-17);
            }

            .cls-18 {
                fill: url(#未命名的渐变_143-18);
            }

            .cls-19 {
                fill: url(#未命名的渐变_143-19);
            }

            .cls-20 {
                fill: url(#未命名的渐变_143-20);
            }

            .cls-21 {
                fill: url(#未命名的渐变_143-21);
            }

            .cls-22 {
                fill: url(#未命名的渐变_143-22);
            }

            .cls-23 {
                fill: url(#未命名的渐变_143-23);
            }

            .cls-24 {
                fill: url(#未命名的渐变_143-24);
            }

            .cls-25 {
                fill: url(#未命名的渐变_143-25);
            }

            .cls-26 {
                fill: url(#未命名的渐变_143-26);
            }

            .cls-27 {
                fill: url(#未命名的渐变_143-27);
            }

            .cls-28 {
                fill: url(#未命名的渐变_143-28);
            }

            .cls-29 {
                fill: url(#未命名的渐变_143-29);
            }

            .cls-30 {
                fill: url(#未命名的渐变_143-30);
            }

            .cls-31 {
                fill: url(#未命名的渐变_143-31);
            }

            .cls-32 {
                fill: url(#未命名的渐变_143-32);
            }

            .cls-33 {
                fill: url(#未命名的渐变_143-33);
            }

            .cls-34 {
                fill: url(#未命名的渐变_143-34);
            }

            .cls-35 {
                fill: url(#未命名的渐变_143-35);
            }

            .cls-36 {
                fill: url(#未命名的渐变_143-36);
            }

            .cls-37 {
                fill: url(#未命名的渐变_143-37);
            }

            .cls-38 {
                fill: url(#未命名的渐变_143-38);
            }

            .cls-39 {
                fill: url(#未命名的渐变_143-39);
            }

            .cls-40 {
                fill: url(#未命名的渐变_143-40);
            }

            .cls-41 {
                fill: url(#未命名的渐变_143-41);
            }

            .cls-42 {
                fill: url(#未命名的渐变_143-42);
            }

            .cls-43 {
                fill: url(#未命名的渐变_143-43);
            }

            .cls-44 {
                fill: url(#未命名的渐变_143-44);
            }

            .cls-45 {
                fill: url(#未命名的渐变_143-45);
            }

            .cls-46 {
                fill: url(#未命名的渐变_143-46);
            }

            .cls-47 {
                fill: url(#未命名的渐变_143-47);
            }

            .cls-48 {
                fill: url(#未命名的渐变_143-48);
            }

            .cls-49 {
                fill: url(#未命名的渐变_143-49);
            }

            .cls-50 {
                fill: url(#未命名的渐变_143-50);
            }

            .cls-51 {
                fill: url(#未命名的渐变_143-51);
            }

            .cls-52 {
                fill: url(#未命名的渐变_143-52);
            }

            .cls-53 {
                fill: url(#未命名的渐变_143-53);
            }

            .cls-54 {
                fill: url(#未命名的渐变_143-54);
            }

            .cls-55 {
                fill: url(#未命名的渐变_143-55);
            }

            .cls-56 {
                fill: url(#未命名的渐变_143-56);
            }

            .cls-57 {
                fill: url(#未命名的渐变_143-57);
            }

            .cls-58 {
                fill: url(#未命名的渐变_143-58);
            }

            .cls-59 {
                fill: url(#未命名的渐变_143-59);
            }

            .cls-60 {
                fill: url(#未命名的渐变_143-60);
            }

            .cls-61 {
                fill: url(#未命名的渐变_143-61);
            }

            .cls-62 {
                fill: url(#未命名的渐变_143-62);
            }

            .cls-63 {
                fill: url(#未命名的渐变_143-63);
            }

            .cls-64 {
                fill: url(#未命名的渐变_143-64);
            }

            .cls-65 {
                fill: url(#未命名的渐变_79);
            }

            .cls-66 {
                fill: #b0b0b1;
            }

            .cls-67 {
                fill: url(#未命名的渐变_143-65);
            }

            .cls-68 {
                fill: url(#未命名的渐变_143-66);
            }

            .cls-69 {
                fill: url(#未命名的渐变_143-67);
            }

            .cls-70 {
                fill: url(#未命名的渐变_143-68);
            }

            .cls-71 {
                opacity: 0.2;
            }
        </style>
        <linearGradient id="未命名的渐变_143" x1="38.71" y1="12.38" x2="51.85" y2="12.38" gradientUnits="userSpaceOnUse">
            <stop offset="0" stop-color="#b7b7b7" />
            <stop offset="0.03" stop-color="#9b9d9d" />
            <stop offset="0.07" stop-color="#878b8b" />
            <stop offset="0.09" stop-color="#808484" />
            <stop offset="0.2" stop-color="#a3a6a6" />
            <stop offset="0.49" stop-color="#f6f6f6" />
            <stop offset="0.61" stop-color="#f3f3f3" />
            <stop offset="0.7" stop-color="#eaeaea" />
            <stop offset="0.77" stop-color="#dbdbdb" />
            <stop offset="0.83" stop-color="#c5c5c5" />
            <stop offset="0.9" stop-color="#aaa" />
            <stop offset="0.95" stop-color="#888" />
            <stop offset="1" stop-color="#666" />
        </linearGradient>
        <linearGradient id="未命名的渐变_143-2" x1="41.78" y1="31.36" x2="48.78" y2="31.36" xlink:href="#未命名的渐变_143" />
        <linearGradient id="未命名的渐变_143-3" x1="4.97" y1="79.5" x2="4.97" y2="69.43" xlink:href="#未命名的渐变_143" />
        <linearGradient id="未命名的渐变_143-4" x1="2.08" y1="81.1" x2="2.08" y2="68.02" xlink:href="#未命名的渐变_143" />
        <linearGradient id="未命名的渐变_143-5" x1="-728.67" y1="358.24" x2="-728.27" y2="358.24"
            gradientTransform="translate(-356.16 -647.57) rotate(-90)" xlink:href="#未命名的渐变_143" />
        <linearGradient id="未命名的渐变_143-6" x1="-727" y1="358.24" x2="-726.6" y2="358.24"
            gradientTransform="translate(-356.16 -647.57) rotate(-90)" xlink:href="#未命名的渐变_143" />
        <linearGradient id="未命名的渐变_143-7" x1="-725.74" y1="358.24" x2="-725.34" y2="358.24"
            gradientTransform="translate(-356.16 -647.57) rotate(-90)" xlink:href="#未命名的渐变_143" />
        <linearGradient id="未命名的渐变_143-8" x1="-724.25" y1="358.24" x2="-723.85" y2="358.24"
            gradientTransform="translate(-356.16 -647.57) rotate(-90)" xlink:href="#未命名的渐变_143" />
        <linearGradient id="未命名的渐变_143-9" x1="-722.89" y1="358.24" x2="-722.49" y2="358.24"
            gradientTransform="translate(-356.16 -647.57) rotate(-90)" xlink:href="#未命名的渐变_143" />
        <linearGradient id="未命名的渐变_143-10" x1="-721.65" y1="358.24" x2="-721.25" y2="358.24"
            gradientTransform="translate(-356.16 -647.57) rotate(-90)" xlink:href="#未命名的渐变_143" />
        <linearGradient id="未命名的渐变_143-11" x1="-720.16" y1="358.24" x2="-719.76" y2="358.24"
            gradientTransform="translate(-356.16 -647.57) rotate(-90)" xlink:href="#未命名的渐变_143" />
        <linearGradient id="未命名的渐变_143-12" x1="-718.78" y1="358.24" x2="-718.38" y2="358.24"
            gradientTransform="translate(-356.16 -647.57) rotate(-90)" xlink:href="#未命名的渐变_143" />
        <linearGradient id="未命名的渐变_143-13" x1="-717.27" y1="358.24" x2="-716.87" y2="358.24"
            gradientTransform="translate(-356.16 -647.57) rotate(-90)" xlink:href="#未命名的渐变_143" />
        <linearGradient id="未命名的渐变_143-14" x1="-716" y1="358.24" x2="-715.59" y2="358.24"
            gradientTransform="translate(-356.16 -647.57) rotate(-90)" xlink:href="#未命名的渐变_143" />
        <linearGradient id="未命名的渐变_143-15" x1="-243.15" y1="-324.41" x2="-243.15" y2="-339.08"
            gradientTransform="translate(288.43 376.89)" xlink:href="#未命名的渐变_143" />
        <linearGradient id="未命名的渐变_143-16" x1="-263.81" y1="-323.77" x2="-263.81" y2="-339.73"
            gradientTransform="translate(309.09 356.24)" xlink:href="#未命名的渐变_143" />
        <linearGradient id="未命名的渐变_143-17" x1="-287.38" y1="-326.8" x2="-287.38" y2="-336.69"
            gradientTransform="translate(332.65 332.67)" xlink:href="#未命名的渐变_143" />
        <linearGradient id="未命名的渐变_143-18" x1="-247.49" y1="-322.53" x2="-247.49" y2="-340.96"
            gradientTransform="translate(292.77 372.55)" xlink:href="#未命名的渐变_143" />
        <linearGradient id="未命名的渐变_143-19" x1="-325.04" y1="108.66" x2="-324.48" y2="108.66"
            gradientTransform="translate(-72.32 -283.96) rotate(-90)" xlink:href="#未命名的渐变_143" />
        <linearGradient id="未命名的渐变_143-20" x1="-322.69" y1="108.66" x2="-322.13" y2="108.66"
            gradientTransform="translate(-69.97 -281.61) rotate(-90)" xlink:href="#未命名的渐变_143" />
        <linearGradient id="未命名的渐变_143-21" x1="-320.91" y1="108.66" x2="-320.34" y2="108.66"
            gradientTransform="translate(-68.19 -279.82) rotate(-90)" xlink:href="#未命名的渐变_143" />
        <linearGradient id="未命名的渐变_143-22" x1="-318.82" y1="108.66" x2="-318.25" y2="108.66"
            gradientTransform="translate(-66.09 -277.73) rotate(-90)" xlink:href="#未命名的渐变_143" />
        <linearGradient id="未命名的渐变_143-23" x1="-316.89" y1="108.66" x2="-316.32" y2="108.66"
            gradientTransform="translate(-64.17 -275.8) rotate(-90)" xlink:href="#未命名的渐变_143" />
        <linearGradient id="未命名的渐变_143-24" x1="-315.15" y1="108.66" x2="-314.58" y2="108.66"
            gradientTransform="translate(-62.42 -274.06) rotate(-90)" xlink:href="#未命名的渐变_143" />
        <linearGradient id="未命名的渐变_143-25" x1="-313.05" y1="108.66" x2="-312.48" y2="108.66"
            gradientTransform="translate(-60.32 -271.96) rotate(-90)" xlink:href="#未命名的渐变_143" />
        <linearGradient id="未命名的渐变_143-26" x1="-311.1" y1="108.66" x2="-310.54" y2="108.66"
            gradientTransform="translate(-58.38 -270.02) rotate(-90)" xlink:href="#未命名的渐变_143" />
        <linearGradient id="未命名的渐变_143-27" x1="-308.97" y1="108.66" x2="-308.4" y2="108.66"
            gradientTransform="translate(-56.25 -267.88) rotate(-90)" xlink:href="#未命名的渐变_143" />
        <linearGradient id="未命名的渐变_143-28" x1="-307.18" y1="108.66" x2="-306.61" y2="108.66"
            gradientTransform="translate(-54.45 -266.09) rotate(-90)" xlink:href="#未命名的渐变_143" />
        <linearGradient id="未命名的渐变_143-29" x1="-625.72" y1="79.23" x2="-625.72" y2="69.35"
            gradientTransform="matrix(1, 0, 0, -1, 711.2, 148.58)" xlink:href="#未命名的渐变_143" />
        <linearGradient id="未命名的渐变_143-30" x1="-628.75" y1="81.28" x2="-628.75" y2="68.12"
            gradientTransform="matrix(1, 0, 0, -1, 717.25, 149.39)" xlink:href="#未命名的渐变_143" />
        <linearGradient id="未命名的渐变_143-31" x1="-728.85" y1="-272.59" x2="-728.45" y2="-272.59"
            gradientTransform="matrix(0, 1, 1, 0, 361.09, 809.72)" xlink:href="#未命名的渐变_143" />
        <linearGradient id="未命名的渐变_143-32" x1="-727.17" y1="-272.59" x2="-726.77" y2="-272.59"
            gradientTransform="matrix(0, 1, 1, 0, 361.09, 806.37)" xlink:href="#未命名的渐变_143" />
        <linearGradient id="未命名的渐变_143-33" x1="-725.9" y1="-272.59" x2="-725.5" y2="-272.59"
            gradientTransform="matrix(0, 1, 1, 0, 361.09, 803.82)" xlink:href="#未命名的渐变_143" />
        <linearGradient id="未命名的渐变_143-34" x1="-724.4" y1="-272.59" x2="-724" y2="-272.59"
            gradientTransform="matrix(0, 1, 1, 0, 361.09, 800.83)" xlink:href="#未命名的渐变_143" />
        <linearGradient id="未命名的渐变_143-35" x1="-723.03" y1="-272.59" x2="-722.63" y2="-272.59"
            gradientTransform="matrix(0, 1, 1, 0, 361.09, 798.08)" xlink:href="#未命名的渐变_143" />
        <linearGradient id="未命名的渐变_143-36" x1="-721.79" y1="-272.59" x2="-721.38" y2="-272.59"
            gradientTransform="matrix(0, 1, 1, 0, 361.09, 795.59)" xlink:href="#未命名的渐变_143" />
        <linearGradient id="未命名的渐变_143-37" x1="-720.29" y1="-272.59" x2="-719.88" y2="-272.59"
            gradientTransform="matrix(0, 1, 1, 0, 361.09, 792.59)" xlink:href="#未命名的渐变_143" />
        <linearGradient id="未命名的渐变_143-38" x1="-718.9" y1="-272.59" x2="-718.49" y2="-272.59"
            gradientTransform="matrix(0, 1, 1, 0, 361.09, 789.82)" xlink:href="#未命名的渐变_143" />
        <linearGradient id="未命名的渐变_143-39" x1="-717.37" y1="-272.59" x2="-716.97" y2="-272.59"
            gradientTransform="matrix(0, 1, 1, 0, 361.09, 786.77)" xlink:href="#未命名的渐变_143" />
        <linearGradient id="未命名的渐变_143-40" x1="-716.09" y1="-272.59" x2="-715.69" y2="-272.59"
            gradientTransform="matrix(0, 1, 1, 0, 361.09, 784.21)" xlink:href="#未命名的渐变_143" />
        <linearGradient id="未命名的渐变_143-41" x1="-624.85" y1="105.38" x2="-624.85" y2="95.5"
            gradientTransform="matrix(1, 0, 0, -1, 709.45, 200.88)" xlink:href="#未命名的渐变_143" />
        <linearGradient id="未命名的渐变_143-42" x1="-626.99" y1="107.43" x2="-626.99" y2="94.27"
            gradientTransform="matrix(1, 0, 0, -1, 713.74, 201.69)" xlink:href="#未命名的渐变_143" />
        <linearGradient id="未命名的渐变_143-43" x1="-755" y1="-270.83" x2="-754.6" y2="-270.83"
            gradientTransform="matrix(0, 1, 1, 0, 357.58, 862.03)" xlink:href="#未命名的渐变_143" />
        <linearGradient id="未命名的渐变_143-44" x1="-753.32" y1="-270.83" x2="-752.92" y2="-270.83"
            gradientTransform="matrix(0, 1, 1, 0, 357.58, 858.67)" xlink:href="#未命名的渐变_143" />
        <linearGradient id="未命名的渐变_143-45" x1="-752.05" y1="-270.83" x2="-751.65" y2="-270.83"
            gradientTransform="matrix(0, 1, 1, 0, 357.58, 856.12)" xlink:href="#未命名的渐变_143" />
        <linearGradient id="未命名的渐变_143-46" x1="-750.56" y1="-270.83" x2="-750.15" y2="-270.83"
            gradientTransform="matrix(0, 1, 1, 0, 357.58, 853.13)" xlink:href="#未命名的渐变_143" />
        <linearGradient id="未命名的渐变_143-47" x1="-749.18" y1="-270.83" x2="-748.78" y2="-270.83"
            gradientTransform="matrix(0, 1, 1, 0, 357.58, 850.38)" xlink:href="#未命名的渐变_143" />
        <linearGradient id="未命名的渐变_143-48" x1="-747.94" y1="-270.83" x2="-747.53" y2="-270.83"
            gradientTransform="matrix(0, 1, 1, 0, 357.58, 847.89)" xlink:href="#未命名的渐变_143" />
        <linearGradient id="未命名的渐变_143-49" x1="-746.44" y1="-270.83" x2="-746.03" y2="-270.83"
            gradientTransform="matrix(0, 1, 1, 0, 357.58, 844.89)" xlink:href="#未命名的渐变_143" />
        <linearGradient id="未命名的渐变_143-50" x1="-745.05" y1="-270.83" x2="-744.64" y2="-270.83"
            gradientTransform="matrix(0, 1, 1, 0, 357.58, 842.12)" xlink:href="#未命名的渐变_143" />
        <linearGradient id="未命名的渐变_143-51" x1="-743.53" y1="-270.83" x2="-743.12" y2="-270.83"
            gradientTransform="matrix(0, 1, 1, 0, 357.58, 839.07)" xlink:href="#未命名的渐变_143" />
        <linearGradient id="未命名的渐变_143-52" x1="-742.24" y1="-270.83" x2="-741.84" y2="-270.83"
            gradientTransform="matrix(0, 1, 1, 0, 357.58, 836.51)" xlink:href="#未命名的渐变_143" />
        <linearGradient id="未命名的渐变_143-53" x1="5.19" y1="118.09" x2="5.19" y2="108.02" xlink:href="#未命名的渐变_143" />
        <linearGradient id="未命名的渐变_143-54" x1="2.3" y1="119.69" x2="2.3" y2="106.61" xlink:href="#未命名的渐变_143" />
        <linearGradient id="未命名的渐变_143-55" x1="-767.26" y1="358.46" x2="-766.86" y2="358.46"
            gradientTransform="translate(-356.16 -647.57) rotate(-90)" xlink:href="#未命名的渐变_143" />
        <linearGradient id="未命名的渐变_143-56" x1="-765.59" y1="358.46" x2="-765.19" y2="358.46"
            gradientTransform="translate(-356.16 -647.57) rotate(-90)" xlink:href="#未命名的渐变_143" />
        <linearGradient id="未命名的渐变_143-57" x1="-764.33" y1="358.46" x2="-763.93" y2="358.46"
            gradientTransform="translate(-356.16 -647.57) rotate(-90)" xlink:href="#未命名的渐变_143" />
        <linearGradient id="未命名的渐变_143-58" x1="-762.84" y1="358.46" x2="-762.44" y2="358.46"
            gradientTransform="translate(-356.16 -647.57) rotate(-90)" xlink:href="#未命名的渐变_143" />
        <linearGradient id="未命名的渐变_143-59" x1="-761.48" y1="358.46" x2="-761.08" y2="358.46"
            gradientTransform="translate(-356.16 -647.57) rotate(-90)" xlink:href="#未命名的渐变_143" />
        <linearGradient id="未命名的渐变_143-60" x1="-760.24" y1="358.46" x2="-759.84" y2="358.46"
            gradientTransform="translate(-356.16 -647.57) rotate(-90)" xlink:href="#未命名的渐变_143" />
        <linearGradient id="未命名的渐变_143-61" x1="-758.75" y1="358.46" x2="-758.35" y2="358.46"
            gradientTransform="translate(-356.16 -647.57) rotate(-90)" xlink:href="#未命名的渐变_143" />
        <linearGradient id="未命名的渐变_143-62" x1="-757.37" y1="358.46" x2="-756.97" y2="358.46"
            gradientTransform="translate(-356.16 -647.57) rotate(-90)" xlink:href="#未命名的渐变_143" />
        <linearGradient id="未命名的渐变_143-63" x1="-755.86" y1="358.46" x2="-755.46" y2="358.46"
            gradientTransform="translate(-356.16 -647.57) rotate(-90)" xlink:href="#未命名的渐变_143" />
        <linearGradient id="未命名的渐变_143-64" x1="-754.59" y1="358.46" x2="-754.18" y2="358.46"
            gradientTransform="translate(-356.16 -647.57) rotate(-90)" xlink:href="#未命名的渐变_143" />
        <linearGradient id="未命名的渐变_79" x1="8.96" y1="99.8" x2="81.6" y2="99.8" gradientUnits="userSpaceOnUse">
            <stop offset="0" stop-color="#ccc" />
            <stop offset="0.03" stop-color="#bbb" />
            <stop offset="0.06" stop-color="#a7a7a7" />
            <stop offset="0.09" stop-color="#a0a0a0" />
            <stop offset="0.1" stop-color="#a3a3a3" />
            <stop offset="0.49" stop-color="#f6f6f6" />
            <stop offset="0.62" stop-color="#f3f3f3" />
            <stop offset="0.72" stop-color="#eaeaea" />
            <stop offset="0.8" stop-color="#dbdbdb" />
            <stop offset="0.87" stop-color="#c5c5c5" />
            <stop offset="0.94" stop-color="#aaa" />
            <stop offset="1" stop-color="#898989" />
        </linearGradient>
        <linearGradient id="未命名的渐变_143-65" x1="42.77" y1="81.47" x2="47.78" y2="81.47" xlink:href="#未命名的渐变_143" />
        <linearGradient id="未命名的渐变_143-66" x1="42.32" y1="100.39" x2="48.24" y2="100.39" xlink:href="#未命名的渐变_143" />
        <linearGradient id="未命名的渐变_143-67" x1="-877.88" y1="100.72" x2="-856.77" y2="100.72"
            gradientTransform="matrix(-1, 0, 0, 1, -835.16, 0)" xlink:href="#未命名的渐变_143" />
        <linearGradient id="未命名的渐变_143-68" x1="-221.53" y1="100.72" x2="-200.42" y2="100.72"
            gradientTransform="translate(268.55)" xlink:href="#未命名的渐变_143" />
    </defs>
    <title>Mixer（搅拌机） (2)</title>
    <g id="图层_2" data-name="图层 2">
        <g id="图层_22" data-name="图层 22">
            <g id="Mixer_搅拌机_" data-name="Mixer（搅拌机）">
                <rect class="cls-1" x="38.71" y="1.85" width="13.14" height="21.08" />
                <rect class="cls-2" x="41.78" y="26.07" width="7" height="10.58" />
                <rect class="cls-3" x="0.44" y="69.43" width="9.07" height="10.07" />
                <rect class="cls-4" y="68.02" width="4.16" height="13.08" />
                <rect class="cls-5" y="80.69" width="4.16" height="0.4" />
                <rect class="cls-6" y="79.03" width="4.16" height="0.4" />
                <rect class="cls-7" y="77.76" width="4.16" height="0.4" />
                <rect class="cls-8" y="76.28" width="4.16" height="0.4" />
                <rect class="cls-9" y="74.91" width="4.16" height="0.4" />
                <rect class="cls-10" y="73.67" width="4.16" height="0.4" />
                <rect class="cls-11" y="72.18" width="4.16" height="0.4" />
                <rect class="cls-12" y="70.81" width="4.16" height="0.4" />
                <rect class="cls-13" y="69.29" width="4.16" height="0.4" />
                <rect class="cls-14" y="68.02" width="4.16" height="0.4" />
                <rect class="cls-15" x="40.74" y="37.81" width="9.07" height="14.67"
                    transform="translate(90.42 -0.13) rotate(90)" />
                <rect class="cls-16" x="43.7" y="16.51" width="3.17" height="15.96"
                    transform="translate(69.77 -20.79) rotate(90)" />
                <rect class="cls-17" x="44.36" y="-4.02" width="1.85" height="9.89"
                    transform="translate(46.2 -44.36) rotate(90)" />
                <rect class="cls-18" x="41.12" y="31.59" width="8.31" height="18.43"
                    transform="translate(86.08 -4.48) rotate(90)" />
                <rect class="cls-19" x="32.19" y="40.52" width="8.31" height="0.57"
                    transform="translate(77.15 4.46) rotate(90)" />
                <rect class="cls-20" x="34.54" y="40.52" width="8.31" height="0.57"
                    transform="translate(79.5 2.11) rotate(90)" />
                <rect class="cls-21" x="36.32" y="40.52" width="8.31" height="0.57"
                    transform="translate(81.28 0.33) rotate(90)" />
                <rect class="cls-22" x="38.42" y="40.52" width="8.31" height="0.57"
                    transform="translate(83.38 -1.77) rotate(90)" />
                <rect class="cls-23" x="40.34" y="40.52" width="8.31" height="0.57"
                    transform="translate(85.3 -3.69) rotate(90)" />
                <rect class="cls-24" x="42.09" y="40.52" width="8.31" height="0.57"
                    transform="translate(87.05 -5.44) rotate(90)" />
                <rect class="cls-25" x="44.19" y="40.52" width="8.31" height="0.57"
                    transform="translate(89.15 -7.54) rotate(90)" />
                <rect class="cls-26" x="46.13" y="40.52" width="8.31" height="0.57"
                    transform="translate(91.09 -9.48) rotate(90)" />
                <rect class="cls-27" x="48.26" y="40.52" width="8.31" height="0.57"
                    transform="translate(93.22 -11.61) rotate(90)" />
                <rect class="cls-28" x="50.06" y="40.52" width="8.31" height="0.57"
                    transform="translate(95.02 -13.41) rotate(90)" />
                <rect class="cls-29" x="80.74" y="69.35" width="9.49" height="9.88"
                    transform="translate(170.96 148.58) rotate(180)" />
                <rect class="cls-30" x="86.33" y="68.12" width="4.35" height="13.16"
                    transform="translate(177.01 149.39) rotate(180)" />
                <rect class="cls-31" x="86.33" y="80.87" width="4.35" height="0.4"
                    transform="translate(177.01 162.15) rotate(180)" />
                <rect class="cls-32" x="86.33" y="79.2" width="4.35" height="0.4"
                    transform="translate(177.01 158.8) rotate(180)" />
                <rect class="cls-33" x="86.33" y="77.92" width="4.35" height="0.4"
                    transform="translate(177.01 156.25) rotate(180)" />
                <rect class="cls-34" x="86.33" y="76.43" width="4.35" height="0.4"
                    transform="translate(177.01 153.26) rotate(180)" />
                <rect class="cls-35" x="86.33" y="75.05" width="4.35" height="0.4"
                    transform="translate(177.01 150.51) rotate(180)" />
                <rect class="cls-36" x="86.33" y="73.81" width="4.35" height="0.4"
                    transform="translate(177.01 148.02) rotate(180)" />
                <rect class="cls-37" x="86.33" y="72.31" width="4.35" height="0.4"
                    transform="translate(177.01 145.02) rotate(180)" />
                <rect class="cls-38" x="86.33" y="70.92" width="4.35" height="0.4"
                    transform="translate(177.01 142.24) rotate(180)" />
                <rect class="cls-39" x="86.33" y="69.4" width="4.35" height="0.4"
                    transform="translate(177.01 139.2) rotate(180)" />
                <rect class="cls-40" x="86.33" y="68.12" width="4.35" height="0.4"
                    transform="translate(177.01 136.64) rotate(180)" />
                <rect class="cls-41" x="80.74" y="95.5" width="7.73" height="9.88"
                    transform="translate(169.2 200.88) rotate(180)" />
                <rect class="cls-42" x="84.57" y="94.27" width="4.35" height="13.16"
                    transform="translate(173.5 201.69) rotate(180)" />
                <rect class="cls-43" x="84.57" y="107.02" width="4.35" height="0.4"
                    transform="translate(173.5 214.45) rotate(180)" />
                <rect class="cls-44" x="84.57" y="105.35" width="4.35" height="0.4"
                    transform="translate(173.5 211.1) rotate(180)" />
                <rect class="cls-45" x="84.57" y="104.07" width="4.35" height="0.4"
                    transform="translate(173.5 208.55) rotate(180)" />
                <rect class="cls-46" x="84.57" y="102.58" width="4.35" height="0.4"
                    transform="translate(173.5 205.56) rotate(180)" />
                <rect class="cls-47" x="84.57" y="101.2" width="4.35" height="0.4"
                    transform="translate(173.5 202.81) rotate(180)" />
                <rect class="cls-48" x="84.57" y="99.96" width="4.35" height="0.4"
                    transform="translate(173.5 200.32) rotate(180)" />
                <rect class="cls-49" x="84.57" y="98.46" width="4.35" height="0.4"
                    transform="translate(173.5 197.32) rotate(180)" />
                <rect class="cls-50" x="84.57" y="97.07" width="4.35" height="0.4"
                    transform="translate(173.5 194.54) rotate(180)" />
                <rect class="cls-51" x="84.57" y="95.55" width="4.35" height="0.4"
                    transform="translate(173.5 191.5) rotate(180)" />
                <rect class="cls-52" x="84.57" y="94.27" width="4.35" height="0.4"
                    transform="translate(173.5 188.94) rotate(180)" />
                <rect class="cls-53" x="0.65" y="108.02" width="9.07" height="10.07" />
                <rect class="cls-54" x="0.22" y="106.61" width="4.16" height="13.08" />
                <rect class="cls-55" x="0.22" y="119.28" width="4.16" height="0.4" />
                <rect class="cls-56" x="0.22" y="117.62" width="4.16" height="0.4" />
                <rect class="cls-57" x="0.22" y="116.35" width="4.16" height="0.4" />
                <rect class="cls-58" x="0.22" y="114.87" width="4.16" height="0.4" />
                <rect class="cls-59" x="0.22" y="113.5" width="4.16" height="0.4" />
                <rect class="cls-60" x="0.22" y="112.26" width="4.16" height="0.4" />
                <rect class="cls-61" x="0.22" y="110.77" width="4.16" height="0.4" />
                <rect class="cls-62" x="0.22" y="109.4" width="4.16" height="0.4" />
                <rect class="cls-63" x="0.22" y="107.88" width="4.16" height="0.4" />
                <rect class="cls-64" x="0.22" y="106.61" width="4.16" height="0.4" />
                <path class="cls-65"
                    d="M12.17,49.68H78.39a3.21,3.21,0,0,1,3.21,3.21v92.76a4.28,4.28,0,0,1-4.28,4.28H13.24A4.28,4.28,0,0,1,9,145.65V52.89A3.21,3.21,0,0,1,12.17,49.68Z" />
                <rect class="cls-66" x="9.66" y="63.66" width="71.23" height="1.37" />
                <rect class="cls-66" x="9.94" y="131.43" width="70.68" height="1.37" />
                <rect class="cls-66" x="12.08" y="70.5" width="66.4" height="55.45"
                    transform="translate(143.5 52.95) rotate(90)" />
                <rect class="cls-67" x="42.77" y="65.02" width="5.01" height="32.9" />
                <rect class="cls-68" x="42.32" y="97.86" width="5.91" height="5.07" />
                <path class="cls-69"
                    d="M42.69,99.51c-1.49-1.77-13.15-3.7-17.63-3.37a2.69,2.69,0,0,0-1.25.37c-2.74,1.8-3,6.54-.39,8.33a3.47,3.47,0,0,0,1.67.5c3.86-.18,15.09-.83,17.6-2.59C42.75,102.71,42.69,99.51,42.69,99.51Z" />
                <path class="cls-70"
                    d="M47.05,99.51c1.49-1.77,13.16-3.7,17.63-3.37a2.76,2.76,0,0,1,1.26.37c2.73,1.8,3,6.54.39,8.33a3.53,3.53,0,0,1-1.68.5c-3.86-.18-15.09-.83-17.6-2.59C47,102.71,47.05,99.51,47.05,99.51Z" />
                
            </g>
        </g>
    </g>
</svg>