<svg xmlns="http://www.w3.org/2000/svg" xmlns:xlink="http://www.w3.org/1999/xlink" viewBox="0 0 51.63 150">
    <defs>
        <style>
            .cls-1 {
                fill: url(#未命名的渐变_143);
            }

            .cls-2 {
                fill: url(#未命名的渐变_143-2);
            }

            .cls-3 {
                fill: url(#未命名的渐变_143-3);
            }

            .cls-4 {
                fill: url(#未命名的渐变_143-4);
            }

            .cls-5 {
                fill: url(#未命名的渐变_143-5);
            }

            .cls-6 {
                fill: url(#未命名的渐变_143-6);
            }

            .cls-7 {
                fill: url(#未命名的渐变_143-7);
            }

            .cls-8 {
                fill: url(#未命名的渐变_143-8);
            }

            .cls-9 {
                fill: url(#未命名的渐变_143-9);
            }

            .cls-10 {
                fill: url(#未命名的渐变_143-10);
            }

            .cls-11 {
                fill: url(#未命名的渐变_143-11);
            }

            .cls-12 {
                fill: url(#未命名的渐变_143-12);
            }

            .cls-13 {
                fill: url(#未命名的渐变_143-13);
            }

            .cls-14 {
                fill: url(#未命名的渐变_143-14);
            }

            .cls-15 {
                fill: url(#未命名的渐变_143-15);
            }

            .cls-16 {
                fill: url(#未命名的渐变_143-16);
            }

            .cls-17 {
                fill: url(#未命名的渐变_143-17);
            }

            .cls-18 {
                opacity: 0.2;
            }
        </style>
        <linearGradient id="未命名的渐变_143" x1="34.77" y1="21.09" x2="10.73" y2="21.09" gradientUnits="userSpaceOnUse">
            <stop offset="0" stop-color="#b7b7b7" />
            <stop offset="0.03" stop-color="#9b9d9d" />
            <stop offset="0.07" stop-color="#878b8b" />
            <stop offset="0.09" stop-color="#808484" />
            <stop offset="0.2" stop-color="#a3a6a6" />
            <stop offset="0.49" stop-color="#f6f6f6" />
            <stop offset="0.61" stop-color="#f3f3f3" />
            <stop offset="0.7" stop-color="#eaeaea" />
            <stop offset="0.77" stop-color="#dbdbdb" />
            <stop offset="0.83" stop-color="#c5c5c5" />
            <stop offset="0.9" stop-color="#aaa" />
            <stop offset="0.95" stop-color="#888" />
            <stop offset="1" stop-color="#666" />
        </linearGradient>
        <linearGradient id="未命名的渐变_143-2" x1="30.8" y1="21.09" x2="14.7" y2="21.09" xlink:href="#未命名的渐变_143" />
        <linearGradient id="未命名的渐变_143-3" x1="31.03" y1="38.91" x2="14.47" y2="38.91" xlink:href="#未命名的渐变_143" />
        <linearGradient id="未命名的渐变_143-4" x1="30.22" y1="33.15" x2="15.28" y2="33.15" xlink:href="#未命名的渐变_143" />
        <linearGradient id="未命名的渐变_143-5" x1="24.23" y1="96.15" x2="21.27" y2="96.15" xlink:href="#未命名的渐变_143" />
        <linearGradient id="未命名的渐变_143-6" x1="25.61" y1="45.91" x2="19.88" y2="45.91" xlink:href="#未命名的渐变_143" />
        <linearGradient id="未命名的渐变_143-7" x1="12.72" y1="144.42" x2="23.8" y2="144.42" xlink:href="#未命名的渐变_143" />
        <linearGradient id="未命名的渐变_143-8" x1="25.03" y1="144.42" x2="20.46" y2="144.42" xlink:href="#未命名的渐变_143" />
        <linearGradient id="未命名的渐变_143-9" x1="25.61" y1="53.49" x2="19.88" y2="53.49" xlink:href="#未命名的渐变_143" />
        <linearGradient id="未命名的渐变_143-10" x1="48.03" y1="6.2" x2="48.03" y2="0" xlink:href="#未命名的渐变_143" />
        <linearGradient id="未命名的渐变_143-11" x1="36.39" y1="5.26" x2="36.39" y2="0.96" xlink:href="#未命名的渐变_143" />
        <linearGradient id="未命名的渐变_143-12" x1="-60.52" y1="313.51" x2="-60.52" y2="310.2"
            gradientTransform="translate(83.24 -305.65)" xlink:href="#未命名的渐变_143" />
        <linearGradient id="未命名的渐变_143-13" x1="11.59" y1="35.41" x2="11.59" y2="30.53" xlink:href="#未命名的渐变_143" />
        <linearGradient id="未命名的渐变_143-14" x1="24.49" y1="146.11" x2="36.04" y2="146.11" xlink:href="#未命名的渐变_143" />
        <linearGradient id="未命名的渐变_143-15" x1="12.11" y1="147.41" x2="23.8" y2="147.41" xlink:href="#未命名的渐变_143" />
        <linearGradient id="未命名的渐变_143-16" x1="24.76" y1="4.65" x2="24.76" y2="1.34" xlink:href="#未命名的渐变_143" />
        <linearGradient id="未命名的渐变_143-17" x1="30.83" y1="11.34" x2="14.67" y2="11.34" xlink:href="#未命名的渐变_143" />
    </defs>
    <title>Pneumatic mixer（气汽动混合器）</title>
    <g id="图层_2" data-name="图层 2">
        <g id="图层_22" data-name="图层 22">
            <g id="Pneumatic_mixer_气汽动混合器_" data-name="Pneumatic mixer（气汽动混合器）">
                <rect class="cls-1" x="10.73" y="13.01" width="24.04" height="16.16" />
                <rect class="cls-2" x="14.7" y="15.68" width="16.09" height="10.82" />
                <rect class="cls-3" x="14.47" y="37.13" width="16.56" height="3.55" />
                <rect class="cls-4" x="15.28" y="29.17" width="14.94" height="7.96" />
                <rect class="cls-5" x="21.27" y="51.14" width="2.96" height="90.03" />
                <rect class="cls-6" x="19.88" y="40.69" width="5.73" height="10.45" />
                <path class="cls-7"
                    d="M21,143.7l2.77,1.38s-5,2.85-8.52,1.08c-3.16-1.57-2.82-3.18-2-3.84s3,.41,4.35.81A13.41,13.41,0,0,0,21,143.7Z" />
                <rect class="cls-8" x="20.46" y="141.17" width="4.57" height="6.5" />
                <rect class="cls-9" x="19.88" y="52.34" width="5.73" height="2.3" />
                <rect class="cls-10" x="44.43" width="7.19" height="6.2" />
                <rect class="cls-11" x="28.34" y="0.96" width="16.09" height="4.3" />
                <rect class="cls-12" x="19.14" y="4.55" width="7.16" height="3.31"
                    transform="translate(16.51 28.92) rotate(-90)" />
                <rect class="cls-13" x="7.71" y="30.53" width="7.76" height="4.88" />
                <path class="cls-14"
                    d="M24.49,144.12v3.22h0a13,13,0,0,0,9,1.2c1.24-.4,2.81-1.66,2.5-3.25a2.51,2.51,0,0,0-2.23-1.95,14,14,0,0,0-3,.22,18.77,18.77,0,0,1-6.32.56Z" />
                <path class="cls-15"
                    d="M20.44,144.83H23.8S20.35,150,16.06,150c-3.82,0-4.27-1.72-3.8-2.76s3.11-1.05,4.62-1.32A14.45,14.45,0,0,0,20.44,144.83Z" />
                <rect class="cls-16" x="21.18" y="1.34" width="7.16" height="3.31" />
                <rect class="cls-17" x="14.67" y="9.67" width="16.16" height="3.34" />
                
            </g>
        </g>
    </g>
</svg>