<svg xmlns="http://www.w3.org/2000/svg" xmlns:xlink="http://www.w3.org/1999/xlink" viewBox="0 0 47.6 150">
    <defs>
        <style>
            .cls-1 {
                fill: url(#未命名的渐变_143);
            }

            .cls-2 {
                fill: url(#未命名的渐变_143-2);
            }

            .cls-3 {
                fill: url(#未命名的渐变_143-3);
            }

            .cls-4 {
                fill: url(#未命名的渐变_143-4);
            }

            .cls-5 {
                fill: url(#未命名的渐变_143-5);
            }

            .cls-6 {
                fill: url(#未命名的渐变_143-6);
            }

            .cls-7 {
                fill: url(#未命名的渐变_143-7);
            }

            .cls-8 {
                fill: url(#未命名的渐变_143-8);
            }

            .cls-9 {
                fill: url(#未命名的渐变_143-9);
            }

            .cls-10 {
                opacity: 0.2;
            }
        </style>
        <linearGradient id="未命名的渐变_143" x1="21.67" y1="146.97" x2="41.61" y2="146.97" gradientUnits="userSpaceOnUse">
            <stop offset="0" stop-color="#b7b7b7" />
            <stop offset="0.03" stop-color="#9b9d9d" />
            <stop offset="0.07" stop-color="#878b8b" />
            <stop offset="0.09" stop-color="#808484" />
            <stop offset="0.2" stop-color="#a3a6a6" />
            <stop offset="0.49" stop-color="#f6f6f6" />
            <stop offset="0.61" stop-color="#f3f3f3" />
            <stop offset="0.7" stop-color="#eaeaea" />
            <stop offset="0.77" stop-color="#dbdbdb" />
            <stop offset="0.83" stop-color="#c5c5c5" />
            <stop offset="0.9" stop-color="#aaa" />
            <stop offset="0.95" stop-color="#888" />
            <stop offset="1" stop-color="#666" />
        </linearGradient>
        <linearGradient id="未命名的渐变_143-2" x1="9.78" y1="146.97" x2="26.87" y2="146.97" xlink:href="#未命名的渐变_143" />
        <linearGradient id="未命名的渐变_143-3" x1="24.57" y1="99.93" x2="27.43" y2="99.93" xlink:href="#未命名的渐变_143" />
        <linearGradient id="未命名的渐变_143-4" x1="24.07" y1="146.8" x2="27.64" y2="146.8" xlink:href="#未命名的渐变_143" />
        <linearGradient id="未命名的渐变_143-5" x1="13.45" y1="20.28" x2="38.2" y2="20.28" xlink:href="#未命名的渐变_143" />
        <linearGradient id="未命名的渐变_143-6" x1="16.22" y1="2.4" x2="35.59" y2="2.4" xlink:href="#未命名的渐变_143" />
        <linearGradient id="未命名的渐变_143-7" x1="18.38" y1="37.84" x2="33.54" y2="37.84" xlink:href="#未命名的渐变_143" />
        <linearGradient id="未命名的渐变_143-8" x1="17.66" y1="42.17" x2="34.2" y2="42.17" xlink:href="#未命名的渐变_143" />
        <linearGradient id="未命名的渐变_143-9" x1="23.8" y1="53.39" x2="28.62" y2="53.39" xlink:href="#未命名的渐变_143" />
    </defs>
    <title>Portable mixer（便携式搅拌机）</title>
    <g id="图层_2" data-name="图层 2">
        <g id="图层_22" data-name="图层 22">
            <g id="Portable_mixer_便携式搅拌机_" data-name="Portable mixer（便携式搅拌机）">
                <polygon class="cls-1" points="39.68 149.08 21.67 149.08 23.59 144.85 41.61 144.85 39.68 149.08" />
                <polygon class="cls-2" points="25.22 149.08 9.78 149.08 11.43 144.85 26.87 144.85 25.22 149.08" />
                <rect class="cls-3" x="24.57" y="55.68" width="2.86" height="88.49" />
                <rect class="cls-4" x="24.07" y="143.6" width="3.57" height="6.4" />
                <path class="cls-5"
                    d="M33.57,35.76,18.45,35.7,13.47,7a1.9,1.9,0,0,1,1.87-2.22h21A1.9,1.9,0,0,1,38.18,7Z" />
                <rect class="cls-6" x="16.22" width="19.37" height="4.81" rx="0.23" />
                <rect class="cls-7" x="18.38" y="35.44" width="15.16" height="4.81" />
                <rect class="cls-8" x="17.66" y="40.24" width="16.54" height="3.86" />
                <rect class="cls-9" x="23.8" y="44.1" width="4.82" height="18.58" />
                
            </g>
        </g>
    </g>
</svg>