<svg xmlns="http://www.w3.org/2000/svg" xmlns:xlink="http://www.w3.org/1999/xlink" viewBox="0 0 150 56.91">
    <defs>
        <style>
            .cls-1 {
                fill: url(#未命名的渐变_143);
            }

            .cls-2 {
                fill: url(#未命名的渐变_143-2);
            }

            .cls-3 {
                fill: url(#未命名的渐变_143-3);
            }

            .cls-4 {
                fill: url(#未命名的渐变_143-4);
            }

            .cls-5 {
                fill: url(#未命名的渐变_143-5);
            }

            .cls-6 {
                fill: url(#未命名的渐变_143-6);
            }

            .cls-7 {
                fill: #a2a7a9;
            }

            .cls-8 {
                fill: url(#未命名的渐变_143-7);
            }

            .cls-9 {
                fill: url(#未命名的渐变_143-8);
            }

            .cls-10 {
                fill: url(#未命名的渐变_143-9);
            }

            .cls-11 {
                fill: url(#未命名的渐变_143-10);
            }

            .cls-12 {
                fill: url(#未命名的渐变_143-11);
            }

            .cls-13 {
                fill: url(#未命名的渐变_143-12);
            }

            .cls-14 {
                fill: url(#未命名的渐变_143-13);
            }

            .cls-15 {
                fill: url(#未命名的渐变_143-14);
            }

            .cls-16 {
                fill: url(#未命名的渐变_143-15);
            }

            .cls-17 {
                fill: url(#未命名的渐变_143-16);
            }

            .cls-18 {
                fill: url(#未命名的渐变_143-17);
            }

            .cls-19 {
                fill: url(#未命名的渐变_143-18);
            }

            .cls-20 {
                fill: url(#未命名的渐变_143-19);
            }

            .cls-21 {
                fill: url(#未命名的渐变_143-20);
            }

            .cls-22 {
                fill: url(#未命名的渐变_143-21);
            }

            .cls-23 {
                fill: url(#未命名的渐变_143-22);
            }

            .cls-24 {
                fill: url(#未命名的渐变_143-23);
            }

            .cls-25 {
                fill: url(#未命名的渐变_143-24);
            }

            .cls-26 {
                fill: url(#未命名的渐变_143-25);
            }

            .cls-27 {
                fill: url(#未命名的渐变_143-26);
            }

            .cls-28 {
                fill: url(#未命名的渐变_143-27);
            }

            .cls-29 {
                fill: url(#未命名的渐变_143-28);
            }

            .cls-30 {
                fill: url(#未命名的渐变_143-29);
            }

            .cls-31 {
                fill: url(#未命名的渐变_143-30);
            }

            .cls-32 {
                fill: url(#未命名的渐变_143-31);
            }

            .cls-33 {
                fill: url(#未命名的渐变_143-32);
            }

            .cls-34 {
                fill: url(#未命名的渐变_143-33);
            }

            .cls-35 {
                fill: url(#未命名的渐变_143-34);
            }

            .cls-36 {
                fill: url(#未命名的渐变_143-35);
            }

            .cls-37 {
                opacity: 0.2;
            }
        </style>
        <linearGradient id="未命名的渐变_143" x1="102.15" y1="55.3" x2="102.15" y2="1.65"
            gradientTransform="translate(130.62 -73.68) rotate(90)" gradientUnits="userSpaceOnUse">
            <stop offset="0" stop-color="#b7b7b7" />
            <stop offset="0.03" stop-color="#9b9d9d" />
            <stop offset="0.07" stop-color="#878b8b" />
            <stop offset="0.09" stop-color="#808484" />
            <stop offset="0.2" stop-color="#a3a6a6" />
            <stop offset="0.49" stop-color="#f6f6f6" />
            <stop offset="0.61" stop-color="#f3f3f3" />
            <stop offset="0.7" stop-color="#eaeaea" />
            <stop offset="0.77" stop-color="#dbdbdb" />
            <stop offset="0.83" stop-color="#c5c5c5" />
            <stop offset="0.9" stop-color="#aaa" />
            <stop offset="0.95" stop-color="#888" />
            <stop offset="1" stop-color="#666" />
        </linearGradient>
        <linearGradient id="未命名的渐变_143-2" x1="101.92" y1="49.65" x2="101.92" y2="7.31"
            gradientTransform="translate(130.4 -73.43) rotate(90)" xlink:href="#未命名的渐变_143" />
        <linearGradient id="未命名的渐变_143-3" x1="152.22" y1="-292.11" x2="181.72" y2="-292.11"
            gradientTransform="translate(319.53 195.82) rotate(-90)" xlink:href="#未命名的渐变_143" />
        <linearGradient id="未命名的渐变_143-4" x1="47.09" y1="44.54" x2="47.09" y2="13"
            gradientTransform="translate(75.86 -18.32) rotate(90)" xlink:href="#未命名的渐变_143" />
        <linearGradient id="未命名的渐变_143-5" x1="53.03" y1="43.4" x2="53.03" y2="13.19"
            gradientTransform="translate(81.33 -24.74) rotate(90)" xlink:href="#未命名的渐变_143" />
        <linearGradient id="未命名的渐变_143-6" x1="50.94" y1="38.76" x2="50.94" y2="18.35"
            gradientTransform="translate(79.5 -22.39) rotate(90)" xlink:href="#未命名的渐变_143" />
        <linearGradient id="未命名的渐变_143-7" x1="65.31" y1="36.86" x2="65.31" y2="20.54"
            gradientTransform="translate(94.01 -36.61) rotate(90)" xlink:href="#未命名的渐变_143" />
        <linearGradient id="未命名的渐变_143-8" x1="138.48" y1="36.86" x2="138.48" y2="20.54"
            gradientTransform="translate(167.18 -109.77) rotate(90)" xlink:href="#未命名的渐变_143" />
        <linearGradient id="未命名的渐变_143-9" x1="59.68" y1="56.91" x2="59.68" y2="0"
            gradientTransform="translate(88.13 -31.22) rotate(90)" xlink:href="#未命名的渐变_143" />
        <linearGradient id="未命名的渐变_143-10" x1="144.67" y1="56.91" x2="144.67" y2="0"
            gradientTransform="translate(173.12 -116.21) rotate(90)" xlink:href="#未命名的渐变_143" />
        <linearGradient id="未命名的渐变_143-11" x1="154.39" y1="-290.91" x2="154.88" y2="-290.91"
            gradientTransform="translate(319.53 195.82) rotate(-90)" xlink:href="#未命名的渐变_143" />
        <linearGradient id="未命名的渐变_143-12" x1="156.43" y1="-290.91" x2="156.92" y2="-290.91"
            gradientTransform="translate(319.53 195.82) rotate(-90)" xlink:href="#未命名的渐变_143" />
        <linearGradient id="未命名的渐变_143-13" x1="158.46" y1="-290.91" x2="158.96" y2="-290.91"
            gradientTransform="translate(319.53 195.82) rotate(-90)" xlink:href="#未命名的渐变_143" />
        <linearGradient id="未命名的渐变_143-14" x1="160.5" y1="-290.91" x2="160.99" y2="-290.91"
            gradientTransform="translate(319.53 195.82) rotate(-90)" xlink:href="#未命名的渐变_143" />
        <linearGradient id="未命名的渐变_143-15" x1="162.54" y1="-290.91" x2="163.03" y2="-290.91"
            gradientTransform="translate(319.53 195.82) rotate(-90)" xlink:href="#未命名的渐变_143" />
        <linearGradient id="未命名的渐变_143-16" x1="164.58" y1="-290.91" x2="165.07" y2="-290.91"
            gradientTransform="translate(319.53 195.82) rotate(-90)" xlink:href="#未命名的渐变_143" />
        <linearGradient id="未命名的渐变_143-17" x1="166.61" y1="-290.91" x2="167.1" y2="-290.91"
            gradientTransform="translate(319.53 195.82) rotate(-90)" xlink:href="#未命名的渐变_143" />
        <linearGradient id="未命名的渐变_143-18" x1="168.9" y1="-290.91" x2="169.39" y2="-290.91"
            gradientTransform="translate(319.53 195.82) rotate(-90)" xlink:href="#未命名的渐变_143" />
        <linearGradient id="未命名的渐变_143-19" x1="170.86" y1="-290.91" x2="171.35" y2="-290.91"
            gradientTransform="translate(319.53 195.82) rotate(-90)" xlink:href="#未命名的渐变_143" />
        <linearGradient id="未命名的渐变_143-20" x1="172.79" y1="-290.91" x2="173.28" y2="-290.91"
            gradientTransform="translate(319.53 195.82) rotate(-90)" xlink:href="#未命名的渐变_143" />
        <linearGradient id="未命名的渐变_143-21" x1="174.79" y1="-290.91" x2="175.28" y2="-290.91"
            gradientTransform="translate(319.53 195.82) rotate(-90)" xlink:href="#未命名的渐变_143" />
        <linearGradient id="未命名的渐变_143-22" x1="177.23" y1="-290.69" x2="177.72" y2="-290.69"
            gradientTransform="translate(319.53 195.82) rotate(-90)" xlink:href="#未命名的渐变_143" />
        <linearGradient id="未命名的渐变_143-23" x1="179.18" y1="-290.91" x2="179.67" y2="-290.91"
            gradientTransform="translate(319.53 195.82) rotate(-90)" xlink:href="#未命名的渐变_143" />
        <linearGradient id="未命名的渐变_143-24" x1="101.87" y1="32.45" x2="101.87" y2="24.92"
            gradientTransform="matrix(1, 0, 0, 1, 0, 0)" xlink:href="#未命名的渐变_143" />
        <linearGradient id="未命名的渐变_143-25" x1="71.1" y1="24.92" x2="71.1" y2="18.89"
            gradientTransform="matrix(1, 0, 0, 1, 0, 0)" xlink:href="#未命名的渐变_143" />
        <linearGradient id="未命名的渐变_143-26" x1="76.79" y1="-137.52" x2="76.79" y2="-143.55"
            gradientTransform="matrix(1, 0, 0, -1, 0, -105.07)" xlink:href="#未命名的渐变_143" />
        <linearGradient id="未命名的渐变_143-27" x1="88.77" y1="-137.52" x2="88.77" y2="-143.55"
            gradientTransform="matrix(1, 0, 0, -1, 0, -105.07)" xlink:href="#未命名的渐变_143" />
        <linearGradient id="未命名的渐变_143-28" x1="101.92" y1="-137.52" x2="101.92" y2="-143.55"
            gradientTransform="matrix(1, 0, 0, -1, 0, -105.07)" xlink:href="#未命名的渐变_143" />
        <linearGradient id="未命名的渐变_143-29" x1="114.84" y1="-137.52" x2="114.84" y2="-143.55"
            gradientTransform="matrix(1, 0, 0, -1, 0, -105.07)" xlink:href="#未命名的渐变_143" />
        <linearGradient id="未命名的渐变_143-30" x1="127.48" y1="-137.52" x2="127.48" y2="-143.55"
            gradientTransform="matrix(1, 0, 0, -1, 0, -105.07)" xlink:href="#未命名的渐变_143" />
        <linearGradient id="未命名的渐变_143-31" x1="132.66" y1="24.92" x2="132.66" y2="18.89"
            gradientTransform="matrix(1, 0, 0, 1, 0, 0)" xlink:href="#未命名的渐变_143" />
        <linearGradient id="未命名的渐变_143-32" x1="121.71" y1="24.92" x2="121.71" y2="18.89"
            gradientTransform="matrix(1, 0, 0, 1, 0, 0)" xlink:href="#未命名的渐变_143" />
        <linearGradient id="未命名的渐变_143-33" x1="108.67" y1="24.92" x2="108.67" y2="18.89"
            gradientTransform="matrix(1, 0, 0, 1, 0, 0)" xlink:href="#未命名的渐变_143" />
        <linearGradient id="未命名的渐变_143-34" x1="95.63" y1="24.92" x2="95.63" y2="18.89"
            gradientTransform="matrix(1, 0, 0, 1, 0, 0)" xlink:href="#未命名的渐变_143" />
        <linearGradient id="未命名的渐变_143-35" x1="82.59" y1="24.92" x2="82.59" y2="18.89"
            gradientTransform="matrix(1, 0, 0, 1, 0, 0)" xlink:href="#未命名的渐变_143" />
    </defs>
    <title>Screw-type mixer（螺旋式搅拌机）</title>
    <g id="图层_2" data-name="图层 2">
        <g id="图层_22" data-name="图层 22">
            <g id="Screw-type_mixer_螺旋式搅拌机_" data-name="Screw-type mixer（螺旋式搅拌机）">
                <rect class="cls-1" x="75.33" y="-19.38" width="53.65" height="95.7" rx="0.8"
                    transform="translate(73.68 130.62) rotate(-90)" />
                <rect class="cls-2" x="80.75" y="-9.52" width="42.34" height="76.01"
                    transform="translate(73.43 130.4) rotate(-90)" />
                <path class="cls-3"
                    d="M46.35,14.11l2.89,2.6a16,16,0,0,1,0,24.28L46.35,43.6H3.1a36.64,36.64,0,0,1,0-29.49H46.35Z" />
                <rect class="cls-4" x="31.32" y="28.02" width="31.55" height="1.51"
                    transform="translate(18.32 75.86) rotate(-90)" />
                <rect class="cls-5" x="37.93" y="26.94" width="30.21" height="2.71"
                    transform="translate(24.74 81.33) rotate(-90)" />
                <rect class="cls-6" x="40.73" y="27.82" width="20.42" height="1.48" rx="0.18"
                    transform="translate(22.39 79.5) rotate(-90)" />
                <rect class="cls-7" x="30.5" y="28.37" width="30.6" height="1.07"
                    transform="translate(16.89 74.71) rotate(-90)" />
                <rect class="cls-8" x="57.15" y="27.3" width="16.32" height="2.8"
                    transform="translate(36.61 94.01) rotate(-90)" />
                <rect class="cls-9" x="130.31" y="27.26" width="16.32" height="2.89"
                    transform="translate(109.77 167.18) rotate(-90)" />
                <rect class="cls-7" x="30.79" y="28.28" width="53.23" height="0.7"
                    transform="translate(28.77 86.03) rotate(-90)" />
                <rect class="cls-7" x="35.34" y="28.28" width="53.23" height="0.7"
                    transform="translate(33.33 90.59) rotate(-90)" />
                <rect class="cls-10" x="31.22" y="26.53" width="56.91" height="3.85" rx="0.46"
                    transform="translate(31.22 88.13) rotate(-90)" />
                <rect class="cls-7" x="115.77" y="28.28" width="53.23" height="0.7"
                    transform="translate(113.76 171.02) rotate(-90)" />
                <rect class="cls-7" x="120.33" y="28.28" width="53.23" height="0.7"
                    transform="translate(118.32 175.57) rotate(-90)" />
                <rect class="cls-11" x="116.21" y="26.53" width="56.91" height="3.85" rx="0.46"
                    transform="translate(116.21 173.12) rotate(-90)" />
                <rect class="cls-12" x="13.76" y="40.94" width="29.72" height="0.49" />
                <rect class="cls-13" x="13.76" y="38.9" width="29.72" height="0.49" />
                <rect class="cls-14" x="13.76" y="36.86" width="29.72" height="0.49" />
                <rect class="cls-15" x="13.76" y="34.83" width="29.72" height="0.49" />
                <rect class="cls-16" x="13.76" y="32.79" width="29.72" height="0.49" />
                <rect class="cls-17" x="13.76" y="30.75" width="29.72" height="0.49" />
                <rect class="cls-18" x="13.76" y="28.72" width="29.72" height="0.49" />
                <rect class="cls-19" x="13.76" y="26.43" width="29.72" height="0.49" />
                <rect class="cls-20" x="13.76" y="24.47" width="29.72" height="0.49" />
                <rect class="cls-21" x="13.76" y="22.54" width="29.72" height="0.49" />
                <rect class="cls-22" x="13.76" y="20.54" width="29.72" height="0.49" />
                <rect class="cls-23" x="13.98" y="18.1" width="29.72" height="0.49" />
                <rect class="cls-24" x="13.76" y="16.15" width="29.72" height="0.49" />
                <rect class="cls-7" x="-1.41" y="28.34" width="29.71" height="1.07"
                    transform="translate(-15.43 42.31) rotate(-90)" />
                <rect class="cls-25" x="66.71" y="24.92" width="70.32" height="7.53" />
                <path class="cls-26" d="M68,24.92h6.18s-.18-6-3.09-6c-2.67,0-3.09,6-3.09,6" />
                <path class="cls-27" d="M73.71,32.45h6.17s-.18,6-3.09,6c-2.66,0-3.08-6-3.08-6" />
                <path class="cls-28" d="M85.68,32.45h6.18s-.18,6-3.09,6c-2.66,0-3.09-6-3.09-6" />
                <path class="cls-29" d="M98.83,32.45H105s-.18,6-3.08,6c-2.67,0-3.09-6-3.09-6" />
                <path class="cls-30" d="M111.76,32.45h6.17s-.18,6-3.09,6c-2.66,0-3.08-6-3.08-6" />
                <path class="cls-31" d="M124.39,32.45h6.18s-.18,6-3.09,6c-2.66,0-3.09-6-3.09-6" />
                <path class="cls-32" d="M129.57,24.92h6.17s-.18-6-3.08-6c-2.67,0-3.09,6-3.09,6" />
                <path class="cls-33" d="M118.62,24.92h6.17s-.18-6-3.08-6c-2.67,0-3.09,6-3.09,6" />
                <path class="cls-34" d="M105.58,24.92h6.18s-.18-6-3.09-6c-2.66,0-3.09,6-3.09,6" />
                <path class="cls-35" d="M92.54,24.92h6.18s-.18-6-3.09-6c-2.66,0-3.09,6-3.09,6" />
                <path class="cls-36" d="M79.51,24.92h6.17s-.18-6-3.09-6c-2.66,0-3.08,6-3.08,6" />
                
            </g>
        </g>
    </g>
</svg>