<svg xmlns="http://www.w3.org/2000/svg" xmlns:xlink="http://www.w3.org/1999/xlink" viewBox="0 0 73.67 150">
    <defs>
        <style>
            .cls-1 {
                fill: url(#未命名的渐变_143);
            }

            .cls-2 {
                fill: url(#未命名的渐变_143-2);
            }

            .cls-3 {
                fill: url(#未命名的渐变_143-3);
            }

            .cls-4 {
                fill: url(#未命名的渐变_143-4);
            }

            .cls-5 {
                fill: url(#未命名的渐变_143-5);
            }

            .cls-6 {
                fill: #a2a7a9;
            }

            .cls-7 {
                fill: url(#未命名的渐变_143-6);
            }

            .cls-8 {
                fill: url(#未命名的渐变_143-7);
            }

            .cls-9 {
                fill: url(#未命名的渐变_143-8);
            }

            .cls-10 {
                fill: url(#未命名的渐变_143-9);
            }

            .cls-11 {
                fill: url(#未命名的渐变_143-10);
            }

            .cls-12 {
                fill: url(#未命名的渐变_143-11);
            }

            .cls-13 {
                fill: url(#未命名的渐变_143-12);
            }

            .cls-14 {
                fill: url(#未命名的渐变_143-13);
            }

            .cls-15 {
                fill: url(#未命名的渐变_143-14);
            }

            .cls-16 {
                fill: url(#未命名的渐变_143-15);
            }

            .cls-17 {
                fill: url(#未命名的渐变_143-16);
            }

            .cls-18 {
                fill: url(#未命名的渐变_143-17);
            }

            .cls-19 {
                fill: url(#未命名的渐变_143-18);
            }

            .cls-20 {
                fill: url(#未命名的渐变_143-19);
            }

            .cls-21 {
                fill: url(#未命名的渐变_143-20);
            }

            .cls-22 {
                fill: url(#未命名的渐变_143-21);
            }

            .cls-23 {
                fill: url(#未命名的渐变_143-22);
            }

            .cls-24 {
                fill: url(#未命名的渐变_143-23);
            }

            .cls-25 {
                fill: url(#未命名的渐变_143-24);
            }

            .cls-26 {
                fill: url(#未命名的渐变_143-25);
            }

            .cls-27 {
                fill: url(#未命名的渐变_143-26);
            }

            .cls-28 {
                fill: url(#未命名的渐变_143-27);
            }

            .cls-29 {
                fill: url(#未命名的渐变_143-28);
            }

            .cls-30 {
                fill: url(#未命名的渐变_143-29);
            }

            .cls-31 {
                fill: url(#未命名的渐变_143-30);
            }

            .cls-32 {
                fill: url(#未命名的渐变_143-31);
            }

            .cls-33 {
                fill: url(#未命名的渐变_143-32);
            }

            .cls-34 {
                fill: url(#未命名的渐变_143-33);
            }

            .cls-35 {
                fill: url(#未命名的渐变_143-34);
            }

            .cls-36 {
                fill: url(#未命名的渐变_143-35);
            }

            .cls-37 {
                opacity: 0.2;
            }
        </style>
        <linearGradient id="未命名的渐变_143" x1="58.72" y1="140.22" x2="67.19" y2="140.22" gradientUnits="userSpaceOnUse">
            <stop offset="0" stop-color="#b7b7b7" />
            <stop offset="0.03" stop-color="#9b9d9d" />
            <stop offset="0.07" stop-color="#878b8b" />
            <stop offset="0.09" stop-color="#808484" />
            <stop offset="0.2" stop-color="#a3a6a6" />
            <stop offset="0.49" stop-color="#f6f6f6" />
            <stop offset="0.61" stop-color="#f3f3f3" />
            <stop offset="0.7" stop-color="#eaeaea" />
            <stop offset="0.77" stop-color="#dbdbdb" />
            <stop offset="0.83" stop-color="#c5c5c5" />
            <stop offset="0.9" stop-color="#aaa" />
            <stop offset="0.95" stop-color="#888" />
            <stop offset="1" stop-color="#666" />
        </linearGradient>
        <linearGradient id="未命名的渐变_143-2" x1="6.86" y1="140.22" x2="15.33" y2="140.22" xlink:href="#未命名的渐变_143" />
        <linearGradient id="未命名的渐变_143-3" x1="27.81" y1="29.1" x2="46.38" y2="29.1" xlink:href="#未命名的渐变_143" />
        <linearGradient id="未命名的渐变_143-4" x1="27.81" y1="22.51" x2="46.38" y2="22.51" xlink:href="#未命名的渐变_143" />
        <linearGradient id="未命名的渐变_143-5" x1="31.24" y1="0.75" x2="42.94" y2="0.75" xlink:href="#未命名的渐变_143" />
        <linearGradient id="未命名的渐变_143-6" x1="31.14" y1="25.8" x2="43.05" y2="25.8" xlink:href="#未命名的渐变_143" />
        <linearGradient id="未命名的渐变_143-7" x1="1.51" y1="106.78" x2="72.67" y2="106.78" xlink:href="#未命名的渐变_143" />
        <linearGradient id="未命名的渐变_143-8" x1="29.37" y1="37.05" x2="44.81" y2="37.05" xlink:href="#未命名的渐变_143" />
        <linearGradient id="未命名的渐变_143-9" x1="3.6" y1="53.67" x2="70.59" y2="53.67" xlink:href="#未命名的渐变_143" />
        <linearGradient id="未命名的渐变_143-10" x1="29.23" y1="10.62" x2="44.96" y2="10.62" xlink:href="#未命名的渐变_143" />
        <linearGradient id="未命名的渐变_143-11" x1="30.54" y1="11.38" x2="30.96" y2="11.38"
            gradientTransform="translate(19.37 42.12) rotate(-90)" xlink:href="#未命名的渐变_143" />
        <linearGradient id="未命名的渐变_143-12" x1="32.44" y1="11.38" x2="32.85" y2="11.38"
            gradientTransform="translate(21.27 44.02) rotate(-90)" xlink:href="#未命名的渐变_143" />
        <linearGradient id="未命名的渐变_143-13" x1="34.33" y1="11.38" x2="34.75" y2="11.38"
            gradientTransform="translate(23.16 45.92) rotate(-90)" xlink:href="#未命名的渐变_143" />
        <linearGradient id="未命名的渐变_143-14" x1="35.92" y1="11.38" x2="36.33" y2="11.38"
            gradientTransform="translate(24.75 47.5) rotate(-90)" xlink:href="#未命名的渐变_143" />
        <linearGradient id="未命名的渐变_143-15" x1="37.7" y1="11.38" x2="38.12" y2="11.38"
            gradientTransform="translate(26.53 49.28) rotate(-90)" xlink:href="#未命名的渐变_143" />
        <linearGradient id="未命名的渐变_143-16" x1="39.69" y1="11.38" x2="40.1" y2="11.38"
            gradientTransform="translate(28.52 51.27) rotate(-90)" xlink:href="#未命名的渐变_143" />
        <linearGradient id="未命名的渐变_143-17" x1="41.49" y1="11.38" x2="41.91" y2="11.38"
            gradientTransform="translate(30.32 53.08) rotate(-90)" xlink:href="#未命名的渐变_143" />
        <linearGradient id="未命名的渐变_143-18" x1="43.23" y1="11.38" x2="43.64" y2="11.38"
            gradientTransform="translate(32.06 54.81) rotate(-90)" xlink:href="#未命名的渐变_143" />
        <linearGradient id="未命名的渐变_143-19" x1="6.12" y1="64.32" x2="9.24" y2="64.32" xlink:href="#未命名的渐变_143" />
        <linearGradient id="未命名的渐变_143-20" x1="14.56" y1="64.32" x2="17.69" y2="64.32" xlink:href="#未命名的渐变_143" />
        <linearGradient id="未命名的渐变_143-21" x1="32.56" y1="144.17" x2="41.03" y2="144.17" xlink:href="#未命名的渐变_143" />
        <linearGradient id="未命名的渐变_143-22" x1="23.01" y1="64.32" x2="26.13" y2="64.32" xlink:href="#未命名的渐变_143" />
        <linearGradient id="未命名的渐变_143-23" x1="31.45" y1="64.32" x2="34.58" y2="64.32" xlink:href="#未命名的渐变_143" />
        <linearGradient id="未命名的渐变_143-24" x1="34.19" y1="76.51" x2="39.99" y2="76.51" xlink:href="#未命名的渐变_143" />
        <linearGradient id="未命名的渐变_143-25" x1="21.98" y1="117.62" x2="52.2" y2="117.62" xlink:href="#未命名的渐变_143" />
        <linearGradient id="未命名的渐变_143-26" x1="34.92" y1="97.67" x2="39.27" y2="97.67" xlink:href="#未命名的渐变_143" />
        <linearGradient id="未命名的渐变_143-27" x1="39.9" y1="64.32" x2="43.03" y2="64.32" xlink:href="#未命名的渐变_143" />
        <linearGradient id="未命名的渐变_143-28" x1="48.35" y1="64.32" x2="51.47" y2="64.32" xlink:href="#未命名的渐变_143" />
        <linearGradient id="未命名的渐变_143-29" x1="56.79" y1="64.32" x2="59.92" y2="64.32" xlink:href="#未命名的渐变_143" />
        <linearGradient id="未命名的渐变_143-30" x1="65.24" y1="64.32" x2="68.37" y2="64.32" xlink:href="#未命名的渐变_143" />
        <linearGradient id="未命名的渐变_143-31" x1="0" y1="64.39" x2="73.58" y2="64.39" xlink:href="#未命名的渐变_143" />
        <linearGradient id="未命名的渐变_143-32" x1="25.89" y1="45.48" x2="48.3" y2="45.48" xlink:href="#未命名的渐变_143" />
        <linearGradient id="未命名的渐变_143-33" x1="34.19" y1="83.85" x2="39.99" y2="83.85" xlink:href="#未命名的渐变_143" />
        <linearGradient id="未命名的渐变_143-34" x1="34.19" y1="116.76" x2="39.99" y2="116.76" xlink:href="#未命名的渐变_143" />
        <linearGradient id="未命名的渐变_143-35" x1="35.59" y1="117.62" x2="38.6" y2="117.62" xlink:href="#未命名的渐变_143" />
    </defs>
    <title>Slurrification（浆化器）</title>
    <g id="图层_2" data-name="图层 2">
        <g id="图层_22" data-name="图层 22">
            <g id="Slurrification_浆化器_" data-name="Slurrification（浆化器）">
                <rect class="cls-1" x="58.72" y="134.4" width="8.47" height="11.65" />
                <rect class="cls-2" x="6.86" y="134.4" width="8.47" height="11.65" />
                <rect class="cls-3" x="27.81" y="27.31" width="18.57" height="3.57" rx="0.23" />
                <rect class="cls-4" x="27.81" y="20.73" width="18.57" height="3.57" rx="0.23" />
                <rect class="cls-5" x="31.24" width="11.7" height="1.5" />
                <rect class="cls-6" x="29.23" y="19.23" width="15.73" height="1.5" />
                <rect class="cls-7" x="31.14" y="24.3" width="11.91" height="3.02" />
                <rect class="cls-6" x="3.68" y="60.41" width="66.83" height="11.44" />
                <path class="cls-8"
                    d="M72.67,126.31s-2.79,15.41-35.58,15.41c-35,0-35.58-15.41-35.58-15.41V71.85H72.67Z" />
                <rect class="cls-9" x="29.37" y="30.88" width="15.44" height="12.34" />
                <path class="cls-10" d="M70.59,60.82H3.6S6.31,46.5,37.09,46.51C63.46,46.52,70.59,60.82,70.59,60.82Z" />
                <rect class="cls-11" x="29.23" y="1.5" width="15.73" height="18.25" />
                <rect class="cls-12" x="22.49" y="11.17" width="16.52" height="0.42"
                    transform="translate(42.12 -19.37) rotate(90)" />
                <rect class="cls-13" x="24.39" y="11.17" width="16.52" height="0.42"
                    transform="translate(44.02 -21.27) rotate(90)" />
                <rect class="cls-14" x="26.28" y="11.17" width="16.52" height="0.42"
                    transform="translate(45.92 -23.16) rotate(90)" />
                <rect class="cls-15" x="27.87" y="11.17" width="16.52" height="0.42"
                    transform="translate(47.5 -24.75) rotate(90)" />
                <rect class="cls-16" x="29.65" y="11.17" width="16.52" height="0.42"
                    transform="translate(49.28 -26.53) rotate(90)" />
                <rect class="cls-17" x="31.64" y="11.17" width="16.52" height="0.42"
                    transform="translate(51.27 -28.52) rotate(90)" />
                <rect class="cls-18" x="33.44" y="11.17" width="16.52" height="0.42"
                    transform="translate(53.08 -30.32) rotate(90)" />
                <rect class="cls-19" x="35.18" y="11.17" width="16.52" height="0.42"
                    transform="translate(54.81 -32.06) rotate(90)" />
                <rect class="cls-20" x="6.12" y="60" width="3.13" height="8.64" />
                <rect class="cls-21" x="14.56" y="60" width="3.13" height="8.64" />
                <rect class="cls-22" x="32.56" y="138.35" width="8.47" height="11.65" />
                <rect class="cls-23" x="23.01" y="60" width="3.13" height="8.64" />
                <rect class="cls-24" x="31.45" y="60" width="3.13" height="8.64" />
                <rect class="cls-25" x="34.19" y="71.85" width="5.8" height="9.33" />
                <polygon class="cls-26"
                    points="52.2 116.58 37.21 121.08 21.98 116.72 21.98 114.17 52.2 114.17 52.2 116.58" />
                <rect class="cls-27" x="34.92" y="81.18" width="4.35" height="32.99" />
                <rect class="cls-28" x="39.9" y="60" width="3.13" height="8.64" />
                <rect class="cls-29" x="48.35" y="60" width="3.13" height="8.64" />
                <rect class="cls-30" x="56.79" y="60" width="3.13" height="8.64" />
                <rect class="cls-31" x="65.24" y="60" width="3.13" height="8.64" />
                <rect class="cls-32" y="62.19" width="73.58" height="4.39" rx="0.4" />
                <rect class="cls-6" x="0.51" y="63.51" width="73.16" height="1.5" />
                <rect class="cls-6" x="1.08" y="125.9" width="71.42" height="0.75" />
                <rect class="cls-33" x="25.89" y="43.22" width="22.41" height="4.52" />
                <rect class="cls-34" x="34.19" y="82.98" width="5.8" height="1.74" />
                <rect class="cls-35" x="34.19" y="114.17" width="5.8" height="5.18" />
                <rect class="cls-36" x="35.59" y="114.17" width="3.01" height="6.91" />
                
            </g>
        </g>
    </g>
</svg>