<svg xmlns="http://www.w3.org/2000/svg" xmlns:xlink="http://www.w3.org/1999/xlink" viewBox="0 0 150.03 76.31">
    <defs>
        <style>
            .cls-1 {
                fill: url(#未命名的渐变_143);
            }

            .cls-2 {
                fill: url(#未命名的渐变_143-2);
            }

            .cls-3 {
                fill: url(#未命名的渐变_143-3);
            }

            .cls-4 {
                fill: url(#未命名的渐变_143-4);
            }

            .cls-5 {
                fill: url(#未命名的渐变_79);
            }

            .cls-6 {
                fill: url(#未命名的渐变_79-2);
            }

            .cls-7 {
                fill: url(#未命名的渐变_143-5);
            }

            .cls-8 {
                fill: url(#未命名的渐变_79-3);
            }

            .cls-9 {
                fill: url(#未命名的渐变_79-4);
            }

            .cls-10 {
                fill: url(#未命名的渐变_79-5);
            }

            .cls-11 {
                fill: url(#未命名的渐变_143-6);
            }

            .cls-12 {
                fill: url(#未命名的渐变_79-6);
            }

            .cls-13 {
                fill: url(#未命名的渐变_79-7);
            }

            .cls-14 {
                opacity: 0.2;
            }
        </style>
        <linearGradient id="未命名的渐变_143" x1="-76.49" y1="91.72" x2="-40.96" y2="91.72"
            gradientTransform="translate(49.77 -40.96) rotate(-90)" gradientUnits="userSpaceOnUse">
            <stop offset="0" stop-color="#b7b7b7" />
            <stop offset="0.03" stop-color="#9b9d9d" />
            <stop offset="0.07" stop-color="#878b8b" />
            <stop offset="0.09" stop-color="#808484" />
            <stop offset="0.2" stop-color="#a3a6a6" />
            <stop offset="0.49" stop-color="#f6f6f6" />
            <stop offset="0.61" stop-color="#f3f3f3" />
            <stop offset="0.7" stop-color="#eaeaea" />
            <stop offset="0.77" stop-color="#dbdbdb" />
            <stop offset="0.83" stop-color="#c5c5c5" />
            <stop offset="0.9" stop-color="#aaa" />
            <stop offset="0.95" stop-color="#888" />
            <stop offset="1" stop-color="#666" />
        </linearGradient>
        <linearGradient id="未命名的渐变_143-2" x1="61.34" y1="-130.76" x2="96.87" y2="-130.76"
            gradientTransform="translate(7.76 -20.56) rotate(90)" xlink:href="#未命名的渐变_143" />
        <linearGradient id="未命名的渐变_143-3" x1="-110.77" y1="17.63" x2="-45.16" y2="17.63"
            gradientTransform="translate(139.81 20.17)" xlink:href="#未命名的渐变_143" />
        <linearGradient id="未命名的渐变_143-4" x1="-113.39" y1="-38.68" x2="-42.93" y2="-38.68"
            gradientTransform="translate(83.7 76.67)" xlink:href="#未命名的渐变_143" />
        <linearGradient id="未命名的渐变_79" x1="-96.43" y1="-42.48" x2="-59.39" y2="-42.48"
            gradientTransform="translate(79.64 80.22)" gradientUnits="userSpaceOnUse">
            <stop offset="0" stop-color="#ccc" />
            <stop offset="0.03" stop-color="#bbb" />
            <stop offset="0.06" stop-color="#a7a7a7" />
            <stop offset="0.09" stop-color="#a0a0a0" />
            <stop offset="0.1" stop-color="#a3a3a3" />
            <stop offset="0.49" stop-color="#f6f6f6" />
            <stop offset="0.62" stop-color="#f3f3f3" />
            <stop offset="0.72" stop-color="#eaeaea" />
            <stop offset="0.8" stop-color="#dbdbdb" />
            <stop offset="0.87" stop-color="#c5c5c5" />
            <stop offset="0.94" stop-color="#aaa" />
            <stop offset="1" stop-color="#898989" />
        </linearGradient>
        <linearGradient id="未命名的渐变_79-2" x1="-86.89" y1="79.22" x2="-69.57" y2="79.22"
            gradientTransform="translate(201.66 -41.16)" xlink:href="#未命名的渐变_79" />
        <linearGradient id="未命名的渐变_143-5" x1="-82.87" y1="85.77" x2="-72.75" y2="85.77"
            gradientTransform="translate(207.79 -48.12)" xlink:href="#未命名的渐变_143" />
        <linearGradient id="未命名的渐变_79-3" x1="-82.87" y1="95.68" x2="-72.75" y2="95.68"
            gradientTransform="translate(217.7 -58.04)" xlink:href="#未命名的渐变_79" />
        <linearGradient id="未命名的渐变_79-4" x1="-96.92" y1="74.54" x2="-59.87" y2="74.54"
            gradientTransform="translate(197.15 -36.31)" xlink:href="#未命名的渐变_79" />
        <linearGradient id="未命名的渐变_79-5" x1="-111.32" y1="-36.14" x2="-45.17" y2="-36.14"
            gradientTransform="translate(86.32 74.22)" xlink:href="#未命名的渐变_79" />
        <linearGradient id="未命名的渐变_143-6" x1="-113.63" y1="66.02" x2="-43.16" y2="66.02"
            gradientTransform="translate(188.63 -27.8)" xlink:href="#未命名的渐变_143" />
        <linearGradient id="未命名的渐变_79-6" x1="-111.47" y1="68.56" x2="-45.32" y2="68.56"
            gradientTransform="translate(191.17 -30.33)" xlink:href="#未命名的渐变_79" />
        <linearGradient id="未命名的渐变_79-7" x1="-111.47" y1="63.49" x2="-45.32" y2="63.49"
            gradientTransform="translate(186.1 -25.26)" xlink:href="#未命名的渐变_79" />
    </defs>
    <title>Submersible mixer（潜水搅拌机）</title>
    <g id="图层_2" data-name="图层 2">
        <g id="图层_22" data-name="图层 22">
            <g id="Submersible_mixer_潜水搅拌机_" data-name="Submersible mixer（潜水搅拌机）">
                <path class="cls-1"
                    d="M135.39,35.53h9.89c4.84-8.81,5.81-21,3.67-27.74C147.73,4,143.84-.83,139,.12A7.69,7.69,0,0,0,133,7a43.5,43.5,0,0,0,.67,9.11c.88,4.8,2.74,11.41,1.72,19.46Z" />
                <path class="cls-2"
                    d="M144.62,40.78h-9.9c-4.84,8.8-5.81,21-3.66,27.74,1.21,3.79,5.1,8.62,10,7.66a7.67,7.67,0,0,0,6-6.84,44.14,44.14,0,0,0-.67-9.1c-.89-4.81-2.74-11.42-1.72-19.46Z" />
                <rect class="cls-3" x="29.04" y="-16.59" width="65.62" height="108.77" rx="0.38"
                    transform="translate(24.05 99.64) rotate(-90)" />
                <rect class="cls-4" x="-29.7" y="35.92" width="70.47" height="4.14" rx="0.35"
                    transform="translate(-32.45 43.53) rotate(-90)" />
                <rect class="cls-5" x="-16.79" y="36.01" width="37.05" height="3.47"
                    transform="translate(-36.01 39.47) rotate(-90)" />
                <rect class="cls-6" x="114.77" y="35.91" width="17.32" height="4.3"
                    transform="translate(85.37 161.49) rotate(-90)" />
                <rect class="cls-7" x="124.92" y="33.24" width="10.12" height="8.79"
                    transform="translate(92.34 167.62) rotate(-90)" />
                <rect class="cls-8" x="134.83" y="32.12" width="10.12" height="11.04"
                    transform="translate(102.25 177.53) rotate(-90)" />
                <rect class="cls-9" x="100.23" y="35.7" width="37.05" height="5.05"
                    transform="translate(80.53 156.98) rotate(-90)" />
                <rect class="cls-10" x="-25" y="37.61" width="66.15" height="0.94"
                    transform="translate(-30 46.15) rotate(-90)" />
                <rect class="cls-11" x="75" y="36.16" width="70.47" height="4.14" rx="0.35"
                    transform="translate(72.01 148.46) rotate(-90)" />
                <rect class="cls-12" x="79.7" y="37.76" width="66.15" height="0.94"
                    transform="translate(74.55 151) rotate(-90)" />
                <rect class="cls-13" x="74.62" y="37.76" width="66.15" height="0.94"
                    transform="translate(69.47 145.93) rotate(-90)" />
                
            </g>
        </g>
    </g>
</svg>