<svg xmlns="http://www.w3.org/2000/svg" xmlns:xlink="http://www.w3.org/1999/xlink" viewBox="0 0 74.18 151.23">
    <defs>
        <style>
            .cls-1 {
                fill: url(#未命名的渐变_143);
            }

            .cls-2 {
                fill: url(#未命名的渐变_143-2);
            }

            .cls-3 {
                fill: url(#未命名的渐变_143-3);
            }

            .cls-4 {
                fill: url(#未命名的渐变_143-4);
            }

            .cls-5 {
                fill: url(#未命名的渐变_143-5);
            }

            .cls-6 {
                fill: #a2a7a9;
            }

            .cls-7 {
                fill: url(#未命名的渐变_143-6);
            }

            .cls-8 {
                fill: url(#未命名的渐变_143-7);
            }

            .cls-9 {
                fill: url(#未命名的渐变_143-8);
            }

            .cls-10 {
                fill: url(#未命名的渐变_143-9);
            }

            .cls-11 {
                fill: url(#未命名的渐变_143-10);
            }

            .cls-12 {
                fill: url(#未命名的渐变_143-11);
            }

            .cls-13 {
                fill: url(#未命名的渐变_143-12);
            }

            .cls-14 {
                fill: url(#未命名的渐变_143-13);
            }

            .cls-15 {
                fill: url(#未命名的渐变_143-14);
            }

            .cls-16 {
                fill: url(#未命名的渐变_143-15);
            }

            .cls-17 {
                fill: url(#未命名的渐变_143-16);
            }

            .cls-18 {
                fill: url(#未命名的渐变_143-17);
            }

            .cls-19 {
                fill: url(#未命名的渐变_143-18);
            }

            .cls-20 {
                fill: url(#未命名的渐变_143-19);
            }

            .cls-21 {
                fill: url(#未命名的渐变_143-20);
            }

            .cls-22 {
                fill: url(#未命名的渐变_143-21);
            }

            .cls-23 {
                fill: url(#未命名的渐变_143-22);
            }

            .cls-24 {
                fill: url(#未命名的渐变_143-23);
            }

            .cls-25 {
                fill: url(#未命名的渐变_143-24);
            }

            .cls-26 {
                fill: url(#未命名的渐变_143-25);
            }

            .cls-27 {
                fill: url(#未命名的渐变_143-26);
            }

            .cls-28 {
                fill: url(#未命名的渐变_143-27);
            }

            .cls-29 {
                fill: url(#未命名的渐变_143-28);
            }

            .cls-30 {
                fill: url(#未命名的渐变_143-29);
            }

            .cls-31 {
                opacity: 0.2;
            }
        </style>
        <linearGradient id="未命名的渐变_143" x1="59.2" y1="141.38" x2="67.74" y2="141.38" gradientUnits="userSpaceOnUse">
            <stop offset="0" stop-color="#b7b7b7" />
            <stop offset="0.03" stop-color="#9b9d9d" />
            <stop offset="0.07" stop-color="#878b8b" />
            <stop offset="0.09" stop-color="#808484" />
            <stop offset="0.2" stop-color="#a3a6a6" />
            <stop offset="0.49" stop-color="#f6f6f6" />
            <stop offset="0.61" stop-color="#f3f3f3" />
            <stop offset="0.7" stop-color="#eaeaea" />
            <stop offset="0.77" stop-color="#dbdbdb" />
            <stop offset="0.83" stop-color="#c5c5c5" />
            <stop offset="0.9" stop-color="#aaa" />
            <stop offset="0.95" stop-color="#888" />
            <stop offset="1" stop-color="#666" />
        </linearGradient>
        <linearGradient id="未命名的渐变_143-2" x1="6.91" y1="141.38" x2="15.46" y2="141.38" xlink:href="#未命名的渐变_143" />
        <linearGradient id="未命名的渐变_143-3" x1="27.79" y1="29.33" x2="46.51" y2="29.33" xlink:href="#未命名的渐变_143" />
        <linearGradient id="未命名的渐变_143-4" x1="27.79" y1="22.7" x2="46.51" y2="22.7" xlink:href="#未命名的渐变_143" />
        <linearGradient id="未命名的渐变_143-5" x1="31.41" y1="0.76" x2="43.2" y2="0.76" xlink:href="#未命名的渐变_143" />
        <linearGradient id="未命名的渐变_143-6" x1="31.2" y1="26.02" x2="43.2" y2="26.02" xlink:href="#未命名的渐变_143" />
        <linearGradient id="未命名的渐变_143-7" x1="1.19" y1="107.66" x2="72.94" y2="107.66" xlink:href="#未命名的渐变_143" />
        <linearGradient id="未命名的渐变_143-8" x1="29.45" y1="37.35" x2="45.01" y2="37.35" xlink:href="#未命名的渐变_143" />
        <linearGradient id="未命名的渐变_143-9" x1="3.63" y1="54.11" x2="71.17" y2="54.11" xlink:href="#未命名的渐变_143" />
        <linearGradient id="未命名的渐变_143-10" x1="28.87" y1="10.71" x2="44.74" y2="10.71" xlink:href="#未命名的渐变_143" />
        <linearGradient id="未命名的渐变_143-11" x1="30.2" y1="11.47" x2="30.62" y2="11.47"
            gradientTransform="translate(18.94 41.88) rotate(-90)" xlink:href="#未命名的渐变_143" />
        <linearGradient id="未命名的渐变_143-12" x1="32.11" y1="11.47" x2="32.53" y2="11.47"
            gradientTransform="translate(20.85 43.79) rotate(-90)" xlink:href="#未命名的渐变_143" />
        <linearGradient id="未命名的渐变_143-13" x1="34.02" y1="11.47" x2="34.44" y2="11.47"
            gradientTransform="translate(22.76 45.7) rotate(-90)" xlink:href="#未命名的渐变_143" />
        <linearGradient id="未命名的渐变_143-14" x1="35.62" y1="11.47" x2="36.04" y2="11.47"
            gradientTransform="translate(24.36 47.3) rotate(-90)" xlink:href="#未命名的渐变_143" />
        <linearGradient id="未命名的渐变_143-15" x1="37.42" y1="11.47" x2="37.84" y2="11.47"
            gradientTransform="translate(26.16 49.1) rotate(-90)" xlink:href="#未命名的渐变_143" />
        <linearGradient id="未命名的渐变_143-16" x1="39.42" y1="11.47" x2="39.84" y2="11.47"
            gradientTransform="translate(28.16 51.1) rotate(-90)" xlink:href="#未命名的渐变_143" />
        <linearGradient id="未命名的渐变_143-17" x1="41.24" y1="11.47" x2="41.66" y2="11.47"
            gradientTransform="translate(29.98 52.92) rotate(-90)" xlink:href="#未命名的渐变_143" />
        <linearGradient id="未命名的渐变_143-18" x1="42.99" y1="11.47" x2="43.41" y2="11.47"
            gradientTransform="translate(31.73 54.67) rotate(-90)" xlink:href="#未命名的渐变_143" />
        <linearGradient id="未命名的渐变_143-19" x1="6.17" y1="64.85" x2="9.32" y2="64.85" xlink:href="#未命名的渐变_143" />
        <linearGradient id="未命名的渐变_143-20" x1="14.68" y1="64.85" x2="17.83" y2="64.85" xlink:href="#未命名的渐变_143" />
        <linearGradient id="未命名的渐变_143-21" x1="32.82" y1="145.36" x2="41.37" y2="145.36" xlink:href="#未命名的渐变_143" />
        <linearGradient id="未命名的渐变_143-22" x1="23.2" y1="64.85" x2="26.35" y2="64.85" xlink:href="#未命名的渐变_143" />
        <linearGradient id="未命名的渐变_143-23" x1="31.71" y1="64.85" x2="34.87" y2="64.85" xlink:href="#未命名的渐变_143" />
        <linearGradient id="未命名的渐变_143-24" x1="40.23" y1="64.85" x2="43.38" y2="64.85" xlink:href="#未命名的渐变_143" />
        <linearGradient id="未命名的渐变_143-25" x1="48.74" y1="64.85" x2="51.9" y2="64.85" xlink:href="#未命名的渐变_143" />
        <linearGradient id="未命名的渐变_143-26" x1="57.26" y1="64.85" x2="60.41" y2="64.85" xlink:href="#未命名的渐变_143" />
        <linearGradient id="未命名的渐变_143-27" x1="65.78" y1="64.85" x2="68.93" y2="64.85" xlink:href="#未命名的渐变_143" />
        <linearGradient id="未命名的渐变_143-28" x1="0" y1="64.92" x2="74.18" y2="64.92" xlink:href="#未命名的渐变_143" />
        <linearGradient id="未命名的渐变_143-29" x1="25.62" y1="45.85" x2="48.22" y2="45.85" xlink:href="#未命名的渐变_143" />
    </defs>
    <title>Tank with agitator（带搅拌机的罐）</title>
    <g id="图层_2" data-name="图层 2">
        <g id="图层_22" data-name="图层 22">
            <g id="Tank_with_agitator_带搅拌机的罐_" data-name="Tank with agitator（带搅拌机的罐）">
                <rect class="cls-1" x="59.2" y="135.5" width="8.54" height="11.75" />
                <rect class="cls-2" x="6.91" y="135.5" width="8.54" height="11.75" />
                <rect class="cls-3" x="27.79" y="27.54" width="18.72" height="3.6" rx="0.23" />
                <rect class="cls-4" x="27.79" y="20.9" width="18.72" height="3.6" rx="0.23" />
                <rect class="cls-5" x="31.41" width="11.79" height="1.51" />
                <rect class="cls-6" x="28.87" y="19.39" width="15.86" height="1.51" />
                <rect class="cls-7" x="31.2" y="24.5" width="12" height="3.04" />
                <rect class="cls-6" x="3.79" y="60.91" width="67.38" height="11.53" />
                <path class="cls-8"
                    d="M72.94,127.35s-2.82,15.54-35.88,15.53c-35.31,0-35.87-15.53-35.87-15.53V72.44H72.94Z" />
                <rect class="cls-9" x="29.45" y="31.13" width="15.57" height="12.44" />
                <path class="cls-10" d="M71.17,61.32H3.63S6.36,46.88,37.4,46.89C64,46.9,71.17,61.32,71.17,61.32Z" />
                <rect class="cls-11" x="28.87" y="1.51" width="15.86" height="18.4" />
                <rect class="cls-12" x="22.08" y="11.26" width="16.65" height="0.42"
                    transform="translate(41.88 -18.94) rotate(90)" />
                <rect class="cls-13" x="24" y="11.26" width="16.65" height="0.42"
                    transform="translate(43.79 -20.85) rotate(90)" />
                <rect class="cls-14" x="25.91" y="11.26" width="16.65" height="0.42"
                    transform="translate(45.7 -22.76) rotate(90)" />
                <rect class="cls-15" x="27.51" y="11.26" width="16.65" height="0.42"
                    transform="translate(47.3 -24.36) rotate(90)" />
                <rect class="cls-16" x="29.3" y="11.26" width="16.65" height="0.42"
                    transform="translate(49.1 -26.16) rotate(90)" />
                <rect class="cls-17" x="31.31" y="11.26" width="16.65" height="0.42"
                    transform="translate(51.1 -28.16) rotate(90)" />
                <rect class="cls-18" x="33.13" y="11.26" width="16.65" height="0.42"
                    transform="translate(52.92 -29.98) rotate(90)" />
                <rect class="cls-19" x="34.88" y="11.26" width="16.65" height="0.42"
                    transform="translate(54.67 -31.73) rotate(90)" />
                <rect class="cls-20" x="6.17" y="60.49" width="3.15" height="8.71" />
                <rect class="cls-21" x="14.68" y="60.49" width="3.15" height="8.71" />
                <rect class="cls-22" x="32.82" y="139.48" width="8.54" height="11.75" />
                <rect class="cls-23" x="23.2" y="60.49" width="3.15" height="8.71" />
                <rect class="cls-24" x="31.71" y="60.49" width="3.15" height="8.71" />
                <rect class="cls-25" x="40.23" y="60.49" width="3.15" height="8.71" />
                <rect class="cls-26" x="48.74" y="60.49" width="3.15" height="8.71" />
                <rect class="cls-27" x="57.26" y="60.49" width="3.15" height="8.71" />
                <rect class="cls-28" x="65.78" y="60.49" width="3.15" height="8.71" />
                <rect class="cls-29" y="62.71" width="74.18" height="4.42" rx="0.4" />
                <rect class="cls-6" x="0.22" y="64.04" width="73.76" height="1.51" />
                <rect class="cls-6" x="1.09" y="126.94" width="72.01" height="0.76" />
                <rect class="cls-30" x="25.62" y="43.57" width="22.6" height="4.56" />
                
            </g>
        </g>
    </g>
</svg>