<svg xmlns="http://www.w3.org/2000/svg" xmlns:xlink="http://www.w3.org/1999/xlink" viewBox="0 0 47.6 150">
    <defs>
        <style>
            .cls-1 {
                fill: url(#未命名的渐变_143);
            }

            .cls-2 {
                fill: url(#未命名的渐变_79);
            }

            .cls-3 {
                fill: url(#未命名的渐变_143-2);
            }

            .cls-4 {
                fill: url(#未命名的渐变_79-2);
            }

            .cls-5 {
                fill: url(#未命名的渐变_79-3);
            }

            .cls-6 {
                fill: url(#未命名的渐变_79-4);
            }

            .cls-7 {
                fill: url(#未命名的渐变_79-5);
            }

            .cls-8 {
                fill: url(#未命名的渐变_143-3);
            }

            .cls-9 {
                fill: url(#未命名的渐变_79-6);
            }

            .cls-10 {
                fill: url(#未命名的渐变_143-4);
            }

            .cls-11 {
                fill: url(#未命名的渐变_79-7);
            }

            .cls-12 {
                fill: url(#未命名的渐变_79-8);
            }

            .cls-13 {
                fill: #b0b0b1;
            }

            .cls-14 {
                fill: #ddd;
            }

            .cls-15 {
                fill: #878787;
            }

            .cls-16 {
                fill: url(#未命名的渐变_143-5);
            }

            .cls-17 {
                fill: url(#未命名的渐变_143-6);
            }

            .cls-18 {
                fill: url(#未命名的渐变_143-7);
            }

            .cls-19 {
                fill: url(#未命名的渐变_79-9);
            }

            .cls-20 {
                fill: url(#未命名的渐变_79-10);
            }

            .cls-21 {
                fill: url(#未命名的渐变_143-8);
            }

            .cls-22 {
                fill: url(#未命名的渐变_143-9);
            }

            .cls-23 {
                fill: url(#未命名的渐变_143-10);
            }

            .cls-24 {
                opacity: 0.2;
            }
        </style>
        <linearGradient id="未命名的渐变_143" x1="8.89" y1="15.24" x2="24.63" y2="15.24" gradientUnits="userSpaceOnUse">
            <stop offset="0" stop-color="#b7b7b7" />
            <stop offset="0.03" stop-color="#9b9d9d" />
            <stop offset="0.07" stop-color="#878b8b" />
            <stop offset="0.09" stop-color="#808484" />
            <stop offset="0.2" stop-color="#a3a6a6" />
            <stop offset="0.49" stop-color="#f6f6f6" />
            <stop offset="0.61" stop-color="#f3f3f3" />
            <stop offset="0.7" stop-color="#eaeaea" />
            <stop offset="0.77" stop-color="#dbdbdb" />
            <stop offset="0.83" stop-color="#c5c5c5" />
            <stop offset="0.9" stop-color="#aaa" />
            <stop offset="0.95" stop-color="#888" />
            <stop offset="1" stop-color="#666" />
        </linearGradient>
        <linearGradient id="未命名的渐变_79" x1="41.62" y1="95.84" x2="23.59" y2="98.17" gradientUnits="userSpaceOnUse">
            <stop offset="0" stop-color="#ccc" />
            <stop offset="0.03" stop-color="#bbb" />
            <stop offset="0.06" stop-color="#a7a7a7" />
            <stop offset="0.09" stop-color="#a0a0a0" />
            <stop offset="0.1" stop-color="#a3a3a3" />
            <stop offset="0.49" stop-color="#f6f6f6" />
            <stop offset="0.62" stop-color="#f3f3f3" />
            <stop offset="0.72" stop-color="#eaeaea" />
            <stop offset="0.8" stop-color="#dbdbdb" />
            <stop offset="0.87" stop-color="#c5c5c5" />
            <stop offset="0.94" stop-color="#aaa" />
            <stop offset="1" stop-color="#898989" />
        </linearGradient>
        <linearGradient id="未命名的渐变_143-2" x1="24.34" y1="146.46" x2="34.64" y2="146.46" xlink:href="#未命名的渐变_143" />
        <linearGradient id="未命名的渐变_79-2" x1="22.91" y1="100.53" x2="33.46" y2="100.53" xlink:href="#未命名的渐变_79" />
        <linearGradient id="未命名的渐变_79-3" x1="24.7" y1="140.92" x2="40.24" y2="140.92" xlink:href="#未命名的渐变_79" />
        <linearGradient id="未命名的渐变_79-4" x1="14.45" y1="139.94" x2="24.16" y2="139.94" xlink:href="#未命名的渐变_79" />
        <linearGradient id="未命名的渐变_79-5" x1="15.9" y1="97.44" x2="23.19" y2="97.44" xlink:href="#未命名的渐变_79" />
        <linearGradient id="未命名的渐变_143-3" x1="23.12" y1="97.75" x2="25.19" y2="97.75" xlink:href="#未命名的渐变_143" />
        <linearGradient id="未命名的渐变_79-6" x1="7.35" y1="33.79" x2="34.37" y2="33.79" xlink:href="#未命名的渐变_79" />
        <linearGradient id="未命名的渐变_143-4" x1="14.35" y1="38.77" x2="33.97" y2="38.77" xlink:href="#未命名的渐变_143" />
        <linearGradient id="未命名的渐变_79-7" x1="14.35" y1="40.68" x2="33.97" y2="40.68" xlink:href="#未命名的渐变_79" />
        <linearGradient id="未命名的渐变_79-8" x1="8.82" y1="4.93" x2="24.69" y2="4.93" xlink:href="#未命名的渐变_79" />
        <linearGradient id="未命名的渐变_143-5" x1="19.7" y1="53.05" x2="28.62" y2="53.05" xlink:href="#未命名的渐变_143" />
        <linearGradient id="未命名的渐变_143-6" x1="22.74" y1="143.56" x2="25.57" y2="143.56" xlink:href="#未命名的渐变_143" />
        <linearGradient id="未命名的渐变_143-7" x1="14.35" y1="45.73" x2="33.97" y2="45.73" xlink:href="#未命名的渐变_143" />
        <linearGradient id="未命名的渐变_79-9" x1="7.37" y1="144.81" x2="25.56" y2="144.81" xlink:href="#未命名的渐变_79" />
        <linearGradient id="未命名的渐变_79-10" x1="5.97" y1="99.77" x2="23.19" y2="99.77" xlink:href="#未命名的渐变_79" />
        <linearGradient id="未命名的渐变_143-8" x1="7.97" y1="27.85" x2="9.81" y2="27.85" xlink:href="#未命名的渐变_143" />
        <linearGradient id="未命名的渐变_143-9" x1="23.7" y1="27.85" x2="25.55" y2="27.85" xlink:href="#未命名的渐变_143" />
        <linearGradient id="未命名的渐变_143-10" x1="15.83" y1="27.85" x2="17.68" y2="27.85" xlink:href="#未命名的渐变_143" />
    </defs>
    <title>Turbine agitator（涡轮搅拌器）</title>
    <g id="图层_2" data-name="图层 2">
        <g id="图层_22" data-name="图层 22">
            <g id="Turbine_agitator_涡轮搅拌器_" data-name="Turbine agitator（涡轮搅拌器）">
                <path class="cls-1" d="M24.63,30.48H8.89V1.66h0a19.36,19.36,0,0,1,14.89-.33l.85.33Z" />
                <polygon class="cls-2" points="41.62 95.87 41.62 96.7 25.19 99.11 23.44 97.03 41.62 95.87" />
                <path class="cls-3"
                    d="M25,144.94,30.91,150c1.09-1.56,2.89-.25,3-.33l.76-.81s-6.74-5.78-9.08-5.93S25,144.94,25,144.94Z" />
                <path class="cls-4"
                    d="M24,98.41l5.57,4.47c1.13-1.47,3.15.67,3.24.6l.68-.76s-7-5-9.45-5.12S24,98.41,24,98.41Z" />
                <path class="cls-5"
                    d="M25.19,140.58s.42,1,.84,1c2.16.18,9.8-3.58,12.89-3.22.63.07,1.36.47,1.32.9-.1,1.26-8.48,4.18-12.55,4.2a3.53,3.53,0,0,1-3-1.31Z" />
                <polygon class="cls-6"
                    points="17.33 135.04 14.46 137.06 19.94 144.84 24.16 143.98 22.89 139.43 17.33 135.04" />
                <polygon class="cls-7"
                    points="19.46 93.56 15.9 94.35 20.45 101.31 23.19 101.17 23.12 95.34 21.78 95.21 19.46 93.56" />
                <rect class="cls-8" x="23.12" y="55.57" width="2.07" height="84.36" />
                <rect class="cls-9" x="7.35" y="30.48" width="27.02" height="6.64" />
                <rect class="cls-10" x="14.35" y="37.11" width="19.62" height="3.32" />
                <rect class="cls-11" x="14.35" y="40.43" width="19.62" height="0.5" />
                <rect class="cls-12" x="8.82" y="4.4" width="15.87" height="1.06" />
                <rect class="cls-13" x="24.69" y="8.38" width="3.18" height="10.21" />
                <rect class="cls-14" x="23.12" y="8.38" width="1.57" height="10.21" />
                <rect class="cls-15" x="22.66" y="8.38" width="0.46" height="10.21" />
                <rect class="cls-16" x="19.7" y="50.53" width="8.92" height="5.04" />
                <rect class="cls-17" x="22.74" y="139.94" width="2.83" height="7.26" />
                <polygon class="cls-18" points="28.62 50.53 19.7 50.53 14.35 40.93 33.97 40.93 28.62 50.53" />
                <path class="cls-19" d="M7.37,144.78,9,147.44l14.49-.26,2-3.57-.33-.16a12.58,12.58,0,0,0-8.49-.93Z" />
                <polygon class="cls-20" points="5.97 98.77 7.37 101.07 23.12 102.05 23.19 97.49 5.97 98.77" />
                <rect class="cls-21" x="7.97" y="25.22" width="1.85" height="5.25" />
                <rect class="cls-22" x="23.7" y="25.22" width="1.85" height="5.25" />
                <rect class="cls-23" x="15.83" y="25.22" width="1.85" height="5.25" />
                
            </g>
        </g>
    </g>
</svg>