<svg xmlns="http://www.w3.org/2000/svg" xmlns:xlink="http://www.w3.org/1999/xlink" viewBox="0 0 119.94 150">
    <defs>
        <style>
            .cls-1 {
                fill: none;
            }

            .cls-2 {
                fill: url(#未命名的渐变_64);
            }

            .cls-3 {
                fill: url(#未命名的渐变_64-2);
            }

            .cls-4 {
                fill: url(#未命名的渐变_64-3);
            }

            .cls-5 {
                fill: url(#未命名的渐变_121);
            }

            .cls-6 {
                fill: url(#未命名的渐变_121-2);
            }

            .cls-12,
            .cls-7,
            .cls-8 {
                fill: #252628;
            }

            .cls-7,
            .cls-8 {
                stroke-miterlimit: 10;
            }

            .cls-7 {
                stroke: url(#未命名的渐变_26);
            }

            .cls-8 {
                stroke: url(#未命名的渐变_26-2);
            }

            .cls-13,
            .cls-9 {
                opacity: 0.2;
            }

            .cls-9 {
                fill: url(#未命名的渐变_60);
            }

            .cls-10 {
                fill: url(#未命名的渐变_79);
            }

            .cls-11 {
                clip-path: url(#clip-path);
            }
        </style>
        <linearGradient id="未命名的渐变_64" x1="17.85" y1="50.9" x2="104.24" y2="66.13" gradientUnits="userSpaceOnUse">
            <stop offset="0" stop-color="#a9b1bb" />
            <stop offset="0.09" stop-color="#61666b" />
            <stop offset="0.2" stop-color="#696e73" />
            <stop offset="0.36" stop-color="#7e8489" />
            <stop offset="0.56" stop-color="#a1a7ae" />
            <stop offset="0.78" stop-color="#d1d8e0" />
            <stop offset="0.86" stop-color="#e2eaf2" />
            <stop offset="0.93" stop-color="#9ba1ab" />
            <stop offset="1" stop-color="#767b82" />
        </linearGradient>
        <linearGradient id="未命名的渐变_64-2" x1="21.89" y1="1.27" x2="119.94" y2="1.27" xlink:href="#未命名的渐变_64" />
        <linearGradient id="未命名的渐变_64-3" x1="43.29" y1="83.31" x2="97.27" y2="52.14" xlink:href="#未命名的渐变_64" />
        <linearGradient id="未命名的渐变_121" x1="52.26" y1="135.98" x2="89.57" y2="135.98" gradientUnits="userSpaceOnUse">
            <stop offset="0" stop-color="#a9b1bb" />
            <stop offset="0.09" stop-color="#61666b" />
            <stop offset="0.18" stop-color="#696e73" />
            <stop offset="0.32" stop-color="#7e8489" />
            <stop offset="0.49" stop-color="#a1a7ae" />
            <stop offset="0.69" stop-color="#d1d8e0" />
            <stop offset="0.75" stop-color="#e2eaf2" />
            <stop offset="0.93" stop-color="#9ba1ab" />
            <stop offset="1" stop-color="#767b82" />
        </linearGradient>
        <linearGradient id="未命名的渐变_121-2" x1="45.48" y1="132.98" x2="96.34" y2="132.98" xlink:href="#未命名的渐变_121" />
        <linearGradient id="未命名的渐变_26" x1="52.69" y1="60.12" x2="52.69" y2="48.3" gradientUnits="userSpaceOnUse">
            <stop offset="0" stop-color="#dce1e6" />
            <stop offset="1" stop-color="#5c6066" />
        </linearGradient>
        <linearGradient id="未命名的渐变_26-2" x1="52.69" y1="90.18" x2="52.69" y2="78.36" xlink:href="#未命名的渐变_26" />
        <linearGradient id="未命名的渐变_60" x1="70.91" y1="74.52" x2="70.91" y2="69.6" gradientUnits="userSpaceOnUse">
            <stop offset="0" stop-color="#9ba1ab" stop-opacity="0" />
            <stop offset="1" stop-color="#2e3033" />
        </linearGradient>
        <linearGradient id="未命名的渐变_79" x1="539.19" y1="616.55" x2="554.93" y2="616.55"
            gradientTransform="translate(647.26 -444.02) rotate(90)" gradientUnits="userSpaceOnUse">
            <stop offset="0" stop-color="#767b82" />
            <stop offset="0.07" stop-color="#9ba1ab" />
            <stop offset="0.25" stop-color="#e2eaf2" />
            <stop offset="0.31" stop-color="#d1d8e0" />
            <stop offset="0.51" stop-color="#a1a7ae" />
            <stop offset="0.68" stop-color="#7e8489" />
            <stop offset="0.82" stop-color="#696e73" />
            <stop offset="0.91" stop-color="#61666b" />
            <stop offset="1" stop-color="#a9b1bb" />
        </linearGradient>
        <clipPath id="clip-path">
            <path class="cls-1" d="M0,110.91V95.17H57.84s3.58,2.22,3.58,7.87-3.58,7.87-3.58,7.87Z" />
        </clipPath>
    </defs>
    <title>Batch fluid bed processor(批量流化床处理机)</title>
    <g id="图层_2" data-name="图层 2">
        <g id="图层_6" data-name="图层 6">
            <g id="Batch_fluid_bed_processor_批量流化床处理机_" data-name="Batch fluid bed processor(批量流化床处理机)">
                <polygon class="cls-2"
                    points="115.45 2.53 102.79 69.6 101.87 74.52 92.91 121.96 48.92 121.96 39.95 74.52 39.04 69.6 26.38 2.53 115.45 2.53" />
                <rect class="cls-3" x="21.89" width="98.05" height="2.54" />
                <polygon class="cls-4" points="106.46 69.59 35.37 69.59 37.91 63.66 103.92 63.66 106.46 69.59" />
                <rect class="cls-5" x="52.26" y="121.96" width="37.3" height="28.04" />
                <rect class="cls-6" x="45.48" y="129.51" width="50.86" height="6.94" />
                <path class="cls-7"
                    d="M48.43,55.6c-.7-3.25,1.1-6.8,4.26-6.8s5,3.55,4.26,6.8a4.7,4.7,0,0,1-4.26,4A4.71,4.71,0,0,1,48.43,55.6Z" />
                <path class="cls-8"
                    d="M48.43,85.66c-.7-3.25,1.1-6.8,4.26-6.8s5,3.55,4.26,6.8a4.71,4.71,0,0,1-4.26,4A4.72,4.72,0,0,1,48.43,85.66Z" />
                <polygon class="cls-9" points="102.79 69.6 101.87 74.52 39.95 74.52 39.04 69.6 102.79 69.6" />
                <path class="cls-10" d="M0,110.91V95.17H57.84s3.58,2.22,3.58,7.87-3.58,7.87-3.58,7.87Z" />
                <g class="cls-11">
                    <rect class="cls-12" x="36.93" y="73.77" width="1.6" height="49.93"
                        transform="translate(136.47 61.01) rotate(90)" />
                    <rect class="cls-12" x="36.93" y="71.62" width="1.6" height="49.93"
                        transform="translate(134.32 58.86) rotate(90)" />
                    <rect class="cls-12" x="36.93" y="75.92" width="1.6" height="49.93"
                        transform="translate(138.62 63.16) rotate(90)" />
                    <rect class="cls-12" x="36.93" y="78.07" width="1.6" height="49.93"
                        transform="translate(140.77 65.31) rotate(90)" />
                    <rect class="cls-12" x="36.93" y="80.22" width="1.6" height="49.93"
                        transform="translate(142.92 67.46) rotate(90)" />
                    <rect class="cls-12" x="36.93" y="82.37" width="1.6" height="49.93"
                        transform="translate(145.06 69.61) rotate(90)" />
                    <rect class="cls-12" x="36.93" y="84.52" width="1.6" height="49.93"
                        transform="translate(147.21 71.75) rotate(90)" />
                </g>
               
            </g>
        </g>
    </g>
</svg>