<svg xmlns="http://www.w3.org/2000/svg" xmlns:xlink="http://www.w3.org/1999/xlink" viewBox="0 0 139.45 150">
    <defs>
        <style>
            .cls-1,
            .cls-20 {
                fill: #515359;
            }

            .cls-1,
            .cls-14,
            .cls-2,
            .cls-20,
            .cls-21 {
                stroke-miterlimit: 10;
                stroke-width: 0.1px;
            }

            .cls-1 {
                stroke: url(#未命名的渐变_12);
            }

            .cls-14,
            .cls-19,
            .cls-2 {
                fill: #252629;
            }

            .cls-2 {
                stroke: url(#未命名的渐变_12-2);
            }

            .cls-3 {
                fill: url(#未命名的渐变_113);
            }

            .cls-4 {
                fill: url(#未命名的渐变_11);
            }

            .cls-5 {
                fill: url(#未命名的渐变_11-2);
            }

            .cls-6 {
                fill: url(#未命名的渐变_111);
            }

            .cls-7 {
                fill: url(#未命名的渐变_111-2);
            }

            .cls-8 {
                fill: url(#未命名的渐变_32);
            }

            .cls-9 {
                fill: url(#未命名的渐变_121);
            }

            .cls-10 {
                fill: url(#未命名的渐变_121-2);
            }

            .cls-11 {
                fill: url(#未命名的渐变_113-2);
            }

            .cls-12 {
                fill: url(#未命名的渐变_121-3);
            }

            .cls-13 {
                fill: #252628;
                opacity: 0.6;
            }

            .cls-14 {
                stroke: url(#未命名的渐变_12-3);
            }

            .cls-15 {
                fill: url(#未命名的渐变_111-3);
            }

            .cls-16 {
                fill: #45474d;
            }

            .cls-17 {
                fill: url(#未命名的渐变_201);
            }

            .cls-18 {
                fill: url(#未命名的渐变_11-3);
            }

            .cls-20 {
                stroke: url(#未命名的渐变_12-4);
            }

            .cls-21 {
                fill: none;
                stroke: url(#未命名的渐变_12-5);
            }

            .cls-22 {
                fill: #7c8084;
            }

            .cls-23 {
                fill: #cc543d;
            }

            .cls-24 {
                opacity: 0.2;
            }
        </style>
        <linearGradient id="未命名的渐变_12" x1="127.08" y1="44.22" x2="139.45" y2="44.22" gradientUnits="userSpaceOnUse">
            <stop offset="0" stop-color="#f1f5ff" />
            <stop offset="1" stop-color="#5a5e66" />
        </linearGradient>
        <linearGradient id="未命名的渐变_12-2" x1="127.08" y1="44.22" x2="133.23" y2="44.22" xlink:href="#未命名的渐变_12" />
        <linearGradient id="未命名的渐变_113" x1="101.95" y1="46.56" x2="101.95" y2="41.88" gradientUnits="userSpaceOnUse">
            <stop offset="0" stop-color="#a9b1bb" />
            <stop offset="0.09" stop-color="#61666b" />
            <stop offset="0.16" stop-color="#696e73" />
            <stop offset="0.27" stop-color="#7e8489" />
            <stop offset="0.39" stop-color="#a1a7ae" />
            <stop offset="0.54" stop-color="#d1d8e0" />
            <stop offset="0.59" stop-color="#e2eaf2" />
            <stop offset="0.93" stop-color="#9ba1ab" />
            <stop offset="1" stop-color="#767b82" />
        </linearGradient>
        <linearGradient id="未命名的渐变_11" x1="85.75" y1="17.41" x2="24.76" y2="78.4" gradientUnits="userSpaceOnUse">
            <stop offset="0" stop-color="#d7dce0" />
            <stop offset="1" stop-color="#8a9099" />
        </linearGradient>
        <linearGradient id="未命名的渐变_11-2" x1="94.17" y1="67.35" x2="16.34" y2="145.17" xlink:href="#未命名的渐变_11" />
        <linearGradient id="未命名的渐变_111" x1="80.02" y1="5.38" x2="30.49" y2="54.92" gradientUnits="userSpaceOnUse">
            <stop offset="0" stop-color="#ebf0f5" />
            <stop offset="1" stop-color="#b8c0cc" />
        </linearGradient>
        <linearGradient id="未命名的渐变_111-2" x1="85.96" y1="46.83" x2="24.55" y2="108.24" xlink:href="#未命名的渐变_111" />
        <linearGradient id="未命名的渐变_32" x1="85.96" y1="114.57" x2="24.55" y2="53.16"
            gradientTransform="matrix(1, 0, 0, -1, 0, 218.85)" gradientUnits="userSpaceOnUse">
            <stop offset="0" stop-color="#abafb3" />
            <stop offset="1" stop-color="#45484d" />
        </linearGradient>
        <linearGradient id="未命名的渐变_121" x1="83.53" y1="7.14" x2="119.32" y2="7.14" gradientUnits="userSpaceOnUse">
            <stop offset="0" stop-color="#a9b1bb" />
            <stop offset="0.09" stop-color="#61666b" />
            <stop offset="0.18" stop-color="#696e73" />
            <stop offset="0.32" stop-color="#7e8489" />
            <stop offset="0.49" stop-color="#a1a7ae" />
            <stop offset="0.69" stop-color="#d1d8e0" />
            <stop offset="0.75" stop-color="#e2eaf2" />
            <stop offset="0.93" stop-color="#9ba1ab" />
            <stop offset="1" stop-color="#767b82" />
        </linearGradient>
        <linearGradient id="未命名的渐变_121-2" x1="82.34" y1="15.12" x2="120.51" y2="15.12"
            gradientTransform="matrix(1, 0, 0, -1.24, 0, 19.12)" xlink:href="#未命名的渐变_121" />
        <linearGradient id="未命名的渐变_113-2" x1="98.6" y1="32.43" x2="104.25" y2="32.43" xlink:href="#未命名的渐变_113" />
        <linearGradient id="未命名的渐变_121-3" x1="86.63" y1="8.18" x2="113.47" y2="23.68" xlink:href="#未命名的渐变_121" />
        <linearGradient id="未命名的渐变_12-3" x1="29.92" y1="50.39" x2="29.92" y2="38.16"
            gradientTransform="translate(-14.35 74.19) rotate(-90)" xlink:href="#未命名的渐变_12" />
        <linearGradient id="未命名的渐变_111-3" x1="36.26" y1="37.94" x2="23.58" y2="50.61"
            gradientTransform="translate(-14.35 74.19) rotate(-90)" xlink:href="#未命名的渐变_111" />
        <linearGradient id="未命名的渐变_201" x1="25.87" y1="39.89" x2="32.03" y2="46.06" gradientUnits="userSpaceOnUse">
            <stop offset="0" stop-color="#e6f1ff" stop-opacity="0" />
            <stop offset="0.16" stop-color="#e6f1ff" stop-opacity="0.01" />
            <stop offset="0.29" stop-color="#e6f1ff" stop-opacity="0.05" />
            <stop offset="0.41" stop-color="#e7f1ff" stop-opacity="0.12" />
            <stop offset="0.53" stop-color="#e8f2ff" stop-opacity="0.21" />
            <stop offset="0.63" stop-color="#e9f2ff" stop-opacity="0.33" />
            <stop offset="0.74" stop-color="#eaf2ff" stop-opacity="0.48" />
            <stop offset="0.84" stop-color="#ebf3ff" stop-opacity="0.66" />
            <stop offset="0.94" stop-color="#edf4ff" stop-opacity="0.85" />
            <stop offset="1" stop-color="#eef4ff" />
        </linearGradient>
        <linearGradient id="未命名的渐变_11-3" x1="111.61" y1="27.1" x2="74.05" y2="64.66" xlink:href="#未命名的渐变_11" />
        <linearGradient id="未命名的渐变_12-4" x1="98.96" y1="44.22" x2="114.69" y2="44.22" xlink:href="#未命名的渐变_12" />
        <linearGradient id="未命名的渐变_12-5" x1="102.2" y1="44.22" x2="111.45" y2="44.22" xlink:href="#未命名的渐变_12" />
    </defs>
    <title>Benchtop homogenizer(台式均质机)</title>
    <g id="图层_2" data-name="图层 2">
        <g id="图层_6" data-name="图层 6">
            <g id="Benchtop_homogenizer_台式均质机_" data-name="Benchtop homogenizer(台式均质机)">
                <path class="cls-1"
                    d="M132.06,35h-1.72v.28a6,6,0,0,0-1.51.67c-1,1.5-1.7,4.64-1.7,8.26s.69,6.77,1.7,8.28a6.38,6.38,0,0,0,1.51.67v.28h1.72c4.06,0,7.34-4.12,7.34-9.22S136.12,35,132.06,35Z" />
                <path class="cls-2"
                    d="M133.18,44.21c0,4.52-1.07,8.28-2.46,9.07a1.18,1.18,0,0,1-.56.15,1.74,1.74,0,0,1-1.33-.94c-1-1.51-1.7-4.64-1.7-8.28s.69-6.76,1.7-8.26a1.73,1.73,0,0,1,1.33-1,1.09,1.09,0,0,1,.56.16C132.11,36,133.18,39.71,133.18,44.21Z" />
                <rect class="cls-3" x="73.74" y="41.88" width="56.41" height="4.68" />
                <rect class="cls-4" x="8.87" y="33.3" width="92.77" height="29.22" />
                <rect class="cls-5" y="83.69" width="110.51" height="45.14" />
                <polygon class="cls-6" points="101.64 33.3 8.87 33.3 15.18 20.69 95.33 20.69 101.64 33.3" />
                <polygon class="cls-7" points="110.51 83.69 0 83.69 8.87 62.52 101.64 62.52 110.51 83.69" />
                <polygon class="cls-8" points="110.51 128.83 0 128.83 8.87 150 101.64 150 110.51 128.83" />
                <rect class="cls-9" x="83.53" y="0.73" width="35.79" height="12.83" />
                <rect class="cls-10" x="82.34" width="38.17" height="0.73" />
                <rect class="cls-11" x="98.6" y="28.79" width="5.65" height="7.28" />
                <polygon class="cls-12" points="103.9 28.79 98.95 28.79 83.53 13.55 119.32 13.55 103.9 28.79" />
                <polygon class="cls-13"
                    points="65.42 36.07 63.53 37.96 63.53 57.25 101.64 57.25 101.64 36.07 65.42 36.07" />
                <rect class="cls-14" x="23.86" y="33.43" width="12.12" height="21.69"
                    transform="translate(74.19 14.35) rotate(90)" />
                <rect class="cls-15" x="25.97" y="35.54" width="7.89" height="17.46"
                    transform="translate(74.19 14.35) rotate(90)" />
                <rect class="cls-16" x="23.75" y="42.01" width="12.33" height="3.87" />
                <polygon class="cls-17" points="23.75 45.88 23.75 42.01 36.09 42.01 23.75 45.88" />
                <rect class="cls-18" x="65.14" y="36" width="55.37" height="19.76" />
                <circle class="cls-19" cx="104.19" cy="44.22" r="9.22" />
                <ellipse class="cls-20" cx="106.82" cy="44.22" rx="7.81" ry="9.22" />
                <ellipse class="cls-21" cx="106.82" cy="44.22" rx="4.58" ry="5.4" />
                <rect class="cls-22" x="7.37" y="94.87" width="10.65" height="18.19" />
                <rect class="cls-22" x="68.75" y="95.68" width="24.08" height="1.49" />
                <rect class="cls-22" x="68.75" y="99.99" width="24.08" height="6.27" />
                <rect class="cls-23" x="7.37" y="107.91" width="10.65" height="5.15" />
               
            </g>
        </g>
    </g>
</svg>