<svg xmlns="http://www.w3.org/2000/svg" xmlns:xlink="http://www.w3.org/1999/xlink" viewBox="0 0 72.8 150">
    <defs>
        <style>
            .cls-1 {
                fill: url(#未命名的渐变_121);
            }

            .cls-2 {
                fill: url(#未命名的渐变_121-2);
            }

            .cls-3 {
                fill: url(#未命名的渐变_121-3);
            }

            .cls-4,
            .cls-7 {
                fill: #252628;
            }

            .cls-10,
            .cls-4,
            .cls-5 {
                opacity: 0.6;
            }

            .cls-12,
            .cls-5 {
                fill: #fff;
            }

            .cls-6 {
                fill: url(#未命名的渐变_32);
            }

            .cls-8 {
                fill: url(#未命名的渐变_121-4);
            }

            .cls-9 {
                fill: #767780;
            }

            .cls-10 {
                fill: none;
                stroke: #252628;
                stroke-miterlimit: 10;
                stroke-width: 0.25px;
            }

            .cls-11 {
                fill: url(#未命名的渐变_121-5);
            }

            .cls-12,
            .cls-13 {
                opacity: 0.2;
            }
        </style>
        <linearGradient id="未命名的渐变_121" x1="2.87" y1="27.37" x2="69.93" y2="27.37" gradientUnits="userSpaceOnUse">
            <stop offset="0" stop-color="#a9b1bb" />
            <stop offset="0.09" stop-color="#61666b" />
            <stop offset="0.18" stop-color="#696e73" />
            <stop offset="0.32" stop-color="#7e8489" />
            <stop offset="0.49" stop-color="#a1a7ae" />
            <stop offset="0.69" stop-color="#d1d8e0" />
            <stop offset="0.75" stop-color="#e2eaf2" />
            <stop offset="0.93" stop-color="#9ba1ab" />
            <stop offset="1" stop-color="#767b82" />
        </linearGradient>
        <linearGradient id="未命名的渐变_121-2" x1="22.02" y1="127.38" x2="50.78" y2="127.38" xlink:href="#未命名的渐变_121" />
        <linearGradient id="未命名的渐变_121-3" x1="10.24" y1="120.7" x2="62.56" y2="120.7" xlink:href="#未命名的渐变_121" />
        <linearGradient id="未命名的渐变_32" x1="57.55" y1="63.3" x2="15.25" y2="105.6" gradientUnits="userSpaceOnUse">
            <stop offset="0" stop-color="#abafb3" />
            <stop offset="1" stop-color="#45484d" />
        </linearGradient>
        <linearGradient id="未命名的渐变_121-4" x1="30.67" y1="84.45" x2="42.13" y2="84.45" xlink:href="#未命名的渐变_121" />
        <linearGradient id="未命名的渐变_121-5" x1="0" y1="25.05" x2="72.8" y2="25.05" xlink:href="#未命名的渐变_121" />
    </defs>
    <title>Closer(密封器)</title>
    <g id="图层_2" data-name="图层 2">
        <g id="图层_6" data-name="图层 6">
            <g id="Closer_密封器_" data-name="Closer(密封器)">
                <rect class="cls-1" x="2.87" width="67.06" height="54.74" />
                <rect class="cls-2" x="22.02" y="104.75" width="28.76" height="45.25" />
                <rect class="cls-3" x="10.24" y="104.75" width="52.32" height="31.89" />
                <rect class="cls-4" x="10.24" y="104.75" width="52.32" height="9.52" />
                <rect class="cls-5" x="17.47" y="104.75" width="4.55" height="9.52" />
                <rect class="cls-5" x="35.03" y="104.75" width="6.94" height="9.52" />
                <rect class="cls-5" x="45.05" y="104.75" width="6.94" height="9.52" />
                <rect class="cls-6" x="14.41" y="64.14" width="43.98" height="40.61" />
                <rect class="cls-7" x="22.02" y="64.14" width="28.76" height="40.61" />
                <rect class="cls-8" x="30.67" y="64.14" width="11.46" height="40.61" />
                <polygon class="cls-9"
                    points="2.87 54.74 5.11 57.44 5.11 64.14 67.69 64.14 67.69 57.44 69.93 54.74 2.87 54.74" />
                <rect class="cls-7" x="7.75" y="57.44" width="2.79" height="8.94" />
                <rect class="cls-7" x="12.34" y="57.44" width="2.79" height="8.94" />
                <rect class="cls-7" x="16.92" y="57.44" width="2.79" height="8.94" />
                <rect class="cls-7" x="21.5" y="57.44" width="2.79" height="8.94" />
                <rect class="cls-7" x="26.09" y="57.44" width="2.79" height="8.94" />
                <rect class="cls-7" x="30.67" y="57.44" width="2.79" height="8.94" />
                <rect class="cls-7" x="35.25" y="57.44" width="2.79" height="8.94" />
                <rect class="cls-7" x="39.84" y="57.44" width="2.79" height="8.94" />
                <rect class="cls-7" x="44.42" y="57.44" width="2.79" height="8.94" />
                <rect class="cls-7" x="49" y="57.44" width="2.79" height="8.94" />
                <rect class="cls-7" x="53.59" y="57.44" width="2.79" height="8.94" />
                <rect class="cls-7" x="58.17" y="57.44" width="2.79" height="8.94" />
                <rect class="cls-7" x="62.75" y="57.44" width="2.79" height="8.94" />
                <line class="cls-10" x1="2.87" y1="4.12" x2="69.93" y2="4.12" />
                <rect class="cls-11" y="9.03" width="72.8" height="32.05" />
                <rect class="cls-12" y="9.03" width="72.8" height="32.05" />
               
            </g>
        </g>
    </g>
</svg>