<svg xmlns="http://www.w3.org/2000/svg" xmlns:xlink="http://www.w3.org/1999/xlink" viewBox="0 0 150 149.98">
    <defs>
        <style>
            .cls-1 {
                fill: url(#未命名的渐变_32);
            }

            .cls-2 {
                fill: url(#未命名的渐变_32-2);
            }

            .cls-3 {
                fill: url(#未命名的渐变_5);
            }

            .cls-4 {
                fill: url(#未命名的渐变_32-3);
            }

            .cls-5 {
                fill: url(#未命名的渐变_5-2);
            }

            .cls-6 {
                fill: url(#未命名的渐变_9);
            }

            .cls-11,
            .cls-13,
            .cls-14,
            .cls-15,
            .cls-16,
            .cls-17,
            .cls-18,
            .cls-19,
            .cls-20,
            .cls-21,
            .cls-22,
            .cls-23,
            .cls-24,
            .cls-25,
            .cls-26,
            .cls-27,
            .cls-28,
            .cls-7 {
                stroke: #505458;
                stroke-miterlimit: 10;
                stroke-width: 0.08px;
            }

            .cls-7 {
                fill: url(#未命名的渐变_303);
            }

            .cls-8 {
                fill: url(#未命名的渐变_5-3);
            }

            .cls-9 {
                fill: url(#未命名的渐变_5-4);
            }

            .cls-10 {
                fill: url(#未命名的渐变_9-2);
            }

            .cls-11 {
                fill: url(#未命名的渐变_303-2);
            }

            .cls-12 {
                fill: url(#未命名的渐变_32-4);
            }

            .cls-13 {
                fill: url(#未命名的渐变_303-3);
            }

            .cls-14 {
                fill: url(#未命名的渐变_303-4);
            }

            .cls-15 {
                fill: url(#未命名的渐变_303-5);
            }

            .cls-16 {
                fill: url(#未命名的渐变_303-6);
            }

            .cls-17 {
                fill: url(#未命名的渐变_303-7);
            }

            .cls-18 {
                fill: url(#未命名的渐变_303-8);
            }

            .cls-19 {
                fill: url(#未命名的渐变_303-9);
            }

            .cls-20 {
                fill: url(#未命名的渐变_303-10);
            }

            .cls-21 {
                fill: url(#未命名的渐变_303-11);
            }

            .cls-22 {
                fill: url(#未命名的渐变_303-12);
            }

            .cls-23 {
                fill: url(#未命名的渐变_303-13);
            }

            .cls-24 {
                fill: url(#未命名的渐变_303-14);
            }

            .cls-25 {
                fill: url(#未命名的渐变_303-15);
            }

            .cls-26 {
                fill: url(#未命名的渐变_303-16);
            }

            .cls-27 {
                fill: url(#未命名的渐变_303-17);
            }

            .cls-28 {
                fill: url(#未命名的渐变_303-18);
            }

            .cls-29 {
                fill: url(#未命名的渐变_3);
            }

            .cls-30 {
                fill: url(#未命名的渐变_3-2);
            }

            .cls-31 {
                fill: url(#未命名的渐变_111);
            }

            .cls-32 {
                fill: url(#未命名的渐变_111-2);
            }

            .cls-33 {
                fill: url(#未命名的渐变_111-3);
            }

            .cls-34 {
                fill: url(#未命名的渐变_137);
            }

            .cls-35 {
                fill: url(#未命名的渐变_111-4);
            }

            .cls-36 {
                opacity: 0.2;
            }
        </style>
        <linearGradient id="未命名的渐变_32" x1="107.74" y1="57.05" x2="20.63" y2="144.16" gradientUnits="userSpaceOnUse">
            <stop offset="0" stop-color="#abafb3" />
            <stop offset="1" stop-color="#45484d" />
        </linearGradient>
        <linearGradient id="未命名的渐变_32-2" x1="102.44" y1="5.5" x2="102.44" y2="35.94" xlink:href="#未命名的渐变_32" />
        <linearGradient id="未命名的渐变_5" x1="145.83" y1="7.51" x2="119.41" y2="33.93" gradientUnits="userSpaceOnUse">
            <stop offset="0" stop-color="#d7dce0" />
            <stop offset="1" stop-color="#8a9099" />
        </linearGradient>
        <linearGradient id="未命名的渐变_32-3" x1="120.41" y1="2.68" x2="120.41" y2="38.76" xlink:href="#未命名的渐变_32" />
        <linearGradient id="未命名的渐变_5-2" x1="131.97" y1="11.19" x2="112.92" y2="30.25" xlink:href="#未命名的渐变_5" />
        <linearGradient id="未命名的渐变_9" x1="146.81" x2="146.81" y2="41.44" gradientUnits="userSpaceOnUse">
            <stop offset="0" stop-color="#767b82" />
            <stop offset="0.07" stop-color="#9ba1ab" />
            <stop offset="0.22" stop-color="#e2eaf2" />
            <stop offset="0.94" stop-color="#5d6166" />
            <stop offset="1" stop-color="#a9b1bb" />
        </linearGradient>
        <linearGradient id="未命名的渐变_303" x1="109.51" y1="12.45" x2="116.48" y2="12.45" gradientUnits="userSpaceOnUse">
            <stop offset="0" stop-color="#9ba1ab" />
            <stop offset="0" stop-color="#abb1ba" />
            <stop offset="0.09" stop-color="#abb1ba" />
            <stop offset="0.46" stop-color="#f5faff" />
            <stop offset="1" stop-color="#a9b1bb" />
        </linearGradient>
        <linearGradient id="未命名的渐变_5-3" x1="145.83" y1="89.09" x2="119.41" y2="115.51" xlink:href="#未命名的渐变_5" />
        <linearGradient id="未命名的渐变_5-4" x1="131.97" y1="92.77" x2="112.92" y2="111.82" xlink:href="#未命名的渐变_5" />
        <linearGradient id="未命名的渐变_9-2" x1="146.81" y1="81.57" x2="146.81" y2="123.02" xlink:href="#未命名的渐变_9" />
        <linearGradient id="未命名的渐变_303-2" x1="112.28" y1="109.96" x2="119.25" y2="109.96" xlink:href="#未命名的渐变_303" />
        <linearGradient id="未命名的渐变_32-4" x1="105.74" y1="18.15" x2="18.14" y2="105.75" xlink:href="#未命名的渐变_32" />
        <linearGradient id="未命名的渐变_303-3" x1="104.8" y1="-282.28" x2="107.76" y2="-279.32"
            gradientTransform="translate(185.91 389.92) rotate(-45)" xlink:href="#未命名的渐变_303" />
        <linearGradient id="未命名的渐变_303-4" x1="182.09" y1="-359.57" x2="185.05" y2="-356.61"
            gradientTransform="translate(185.91 389.92) rotate(-45)" xlink:href="#未命名的渐变_303" />
        <linearGradient id="未命名的渐变_303-5" x1="57.84" y1="-272.07" x2="54.88" y2="-269.11"
            gradientTransform="translate(348.34 -89.93) rotate(-135)" xlink:href="#未命名的渐变_303" />
        <linearGradient id="未命名的渐变_303-6" x1="135.13" y1="-349.36" x2="132.17" y2="-346.4"
            gradientTransform="translate(348.34 -89.93) rotate(-135)" xlink:href="#未命名的渐变_303" />
        <linearGradient id="未命名的渐变_303-7" x1="83.43" y1="-267.45" x2="83.43" y2="-263.26"
            gradientTransform="translate(366.5 183.64) rotate(-90)" xlink:href="#未命名的渐变_303" />
        <linearGradient id="未命名的渐变_303-8" x1="160.72" y1="-344.74" x2="160.72" y2="-340.55"
            gradientTransform="translate(366.5 183.64) rotate(-90)" xlink:href="#未命名的渐变_303" />
        <linearGradient id="未命名的渐变_303-9" x1="43" y1="-293.43" x2="38.82" y2="-293.43"
            gradientTransform="translate(142.05 -270.52) rotate(180)" xlink:href="#未命名的渐变_303" />
        <linearGradient id="未命名的渐变_303-10" x1="120.29" y1="-370.72" x2="116.11" y2="-370.72"
            gradientTransform="translate(142.05 -270.52) rotate(180)" xlink:href="#未命名的渐变_303" />
        <linearGradient id="未命名的渐变_303-11" x1="95.59" y1="-272.74" x2="97.19" y2="-268.87"
            gradientTransform="translate(296.72 304.74) rotate(-67.5)" xlink:href="#未命名的渐变_303" />
        <linearGradient id="未命名的渐变_303-12" x1="172.88" y1="-350.03" x2="174.48" y2="-346.16"
            gradientTransform="translate(296.72 304.74) rotate(-67.5)" xlink:href="#未命名的渐变_303" />
        <linearGradient id="未命名的渐变_303-13" x1="48.3" y1="-281.27" x2="44.43" y2="-279.67"
            gradientTransform="matrix(-0.92, -0.38, 0.38, -0.92, 263.16, -200.74)" xlink:href="#未命名的渐变_303" />
        <linearGradient id="未命名的渐变_303-14" x1="125.59" y1="-358.57" x2="121.72" y2="-356.96"
            gradientTransform="matrix(-0.92, -0.38, 0.38, -0.92, 263.16, -200.74)" xlink:href="#未命名的渐变_303" />
        <linearGradient id="未命名的渐变_303-15" x1="70.18" y1="-267.21" x2="68.57" y2="-263.34"
            gradientTransform="translate(384.63 45.05) rotate(-112.5)" xlink:href="#未命名的渐变_303" />
        <linearGradient id="未命名的渐变_303-16" x1="147.47" y1="-344.5" x2="145.86" y2="-340.63"
            gradientTransform="translate(384.63 45.05) rotate(-112.5)" xlink:href="#未命名的渐变_303" />
        <linearGradient id="未命名的渐变_303-17" x1="42.77" y1="-306.69" x2="38.9" y2="-308.29"
            gradientTransform="translate(3.47 -288.65) rotate(157.5)" xlink:href="#未命名的渐变_303" />
        <linearGradient id="未命名的渐变_303-18" x1="120.06" y1="-383.98" x2="116.19" y2="-385.58"
            gradientTransform="translate(3.47 -288.65) rotate(157.5)" xlink:href="#未命名的渐变_303" />
        <linearGradient id="未命名的渐变_3" x1="4.88" y1="134.61" x2="19.07" y2="134.61" gradientUnits="userSpaceOnUse">
            <stop offset="0" stop-color="#767b82" />
            <stop offset="0.08" stop-color="#9ba1ab" />
            <stop offset="0.91" stop-color="#9ba1ab" />
            <stop offset="0.96" stop-color="#d7dce0" />
            <stop offset="0.98" stop-color="#767b82" />
        </linearGradient>
        <linearGradient id="未命名的渐变_3-2" x1="32.14" y1="135.11" x2="46.33" y2="135.11"
            gradientTransform="matrix(-1, 0, 0, 1, 148.69, 0)" xlink:href="#未命名的渐变_3" />
        <linearGradient id="未命名的渐变_111" x1="41.74" y1="52.61" x2="28.1" y2="66.24" gradientUnits="userSpaceOnUse">
            <stop offset="0" stop-color="#ebf0f5" />
            <stop offset="1" stop-color="#b8c0cc" />
        </linearGradient>
        <linearGradient id="未命名的渐变_111-2" x1="54.34" y1="52.61" x2="40.71" y2="66.24" xlink:href="#未命名的渐变_111" />
        <linearGradient id="未命名的渐变_111-3" x1="92.24" y1="44.58" x2="62.54" y2="74.28" xlink:href="#未命名的渐变_111" />
        <linearGradient id="未命名的渐变_137" x1="89.09" y1="47.73" x2="65.69" y2="71.13" gradientUnits="userSpaceOnUse">
            <stop offset="0" stop-color="#494b4d" />
            <stop offset="1" stop-color="#2e3033" />
        </linearGradient>
        <linearGradient id="未命名的渐变_111-4" x1="81.29" y1="51.57" x2="72.55" y2="60.32" xlink:href="#未命名的渐变_111" />
    </defs>
    <title>Contamination-free positive displacement pump(无污染容积泵)</title>
    <g id="图层_2" data-name="图层 2">
        <g id="图层_6" data-name="图层 6">
            <g id="Contamination-free_positive_displacement_pump_无污染容积泵_"
                data-name="Contamination-free positive displacement pump(无污染容积泵)">
                <polygon class="cls-1"
                    points="121.42 133.61 61.95 120.33 9 132.53 2.04 72.5 121.42 70.73 121.42 133.61" />
                <polygon class="cls-2"
                    points="119.96 5.5 116.47 5.5 81.42 5.5 81.42 35.95 116.47 35.95 119.96 35.95 123.46 35.95 123.46 5.5 119.96 5.5" />
                <polygon class="cls-3"
                    points="141.95 5.5 140.09 5.5 121.42 5.5 121.42 35.95 140.09 35.95 141.95 35.95 143.81 35.95 143.81 5.5 141.95 5.5" />
                <polygon class="cls-4"
                    points="121.25 2.69 121.08 2.69 119.39 2.69 119.39 38.76 121.08 38.76 121.25 38.76 121.42 38.76 121.42 2.69 121.25 2.69" />
                <polygon class="cls-5"
                    points="123.29 2.69 123.13 2.69 121.42 2.69 121.42 38.76 123.13 38.76 123.29 38.76 123.46 38.76 123.46 2.69 123.29 2.69" />
                <polygon class="cls-6"
                    points="149.47 0 148.94 0 143.61 0 143.61 41.44 148.94 41.44 149.47 41.44 150 41.44 150 0 149.47 0" />
                <polygon class="cls-7"
                    points="114.44 8.97 111.55 8.97 109.51 11.01 109.51 13.9 111.55 15.94 114.44 15.94 116.47 13.9 116.47 11.01 114.44 8.97" />
                <polygon class="cls-8"
                    points="141.95 87.07 140.09 87.07 121.42 87.07 121.42 117.52 140.09 117.52 141.95 117.52 143.81 117.52 143.81 87.07 141.95 87.07" />
                <polygon class="cls-9"
                    points="123.29 84.26 123.13 84.26 121.42 84.26 121.42 120.33 123.13 120.33 123.29 120.33 123.46 120.33 123.46 84.26 123.29 84.26" />
                <polygon class="cls-10"
                    points="149.47 81.57 148.94 81.57 143.61 81.57 143.61 123.02 148.94 123.02 149.47 123.02 150 123.02 150 81.57 149.47 81.57" />
                <polygon class="cls-11"
                    points="117.21 106.47 114.32 106.47 112.28 108.51 112.28 111.4 114.32 113.44 117.21 113.44 119.25 111.4 119.25 108.51 117.21 106.47" />
                <path class="cls-12"
                    d="M123.7,57.17a1.27,1.27,0,0,1,0-.2h0A62,62,0,0,0,67.48.26C65.67.08,63.81,0,61.93,0c-1.49,0-3,.06-4.41.16A62,62,0,0,0,.2,57h0C.06,58.61,0,60.28,0,62s.06,3.33.2,5a61.92,61.92,0,0,0,57.32,56.81c1.45.1,2.92.16,4.41.16,1.88,0,3.74-.08,5.55-.24a62,62,0,0,0,56.21-56.73c.14-1.63.2-3.29.2-5S123.83,58.74,123.7,57.17Z" />
                <circle class="cls-13" cx="62.5" cy="116.21" r="2.09" />
                <circle class="cls-14" cx="62.5" cy="6.9" r="2.09" />
                <circle class="cls-15" cx="117.15" cy="61.56" r="2.09" />
                <circle class="cls-16" cx="7.85" cy="61.56" r="2.09" />
                <circle class="cls-17" cx="101.15" cy="100.2" r="2.09" />
                <circle class="cls-18" cx="23.85" cy="22.91" r="2.09" />
                <circle class="cls-19" cx="101.15" cy="22.91" r="2.09" />
                <circle class="cls-20" cx="23.85" cy="100.2" r="2.09" />
                <circle class="cls-21" cx="83.41" cy="112.05" r="2.09" />
                <circle class="cls-22" cx="41.58" cy="11.07" r="2.09" />
                <circle class="cls-23" cx="112.99" cy="40.64" r="2.09" />
                <circle class="cls-24" cx="12.01" cy="82.47" r="2.09" />
                <circle class="cls-25" cx="112.99" cy="82.47" r="2.09" />
                <circle class="cls-26" cx="12.01" cy="40.64" r="2.09" />
                <circle class="cls-27" cx="83.41" cy="11.07" r="2.09" />
                <circle class="cls-28" cx="41.58" cy="112.05" r="2.09" />
                <path class="cls-29"
                    d="M19.07,119.25v28.47A2.26,2.26,0,0,1,16.81,150H4.88v-4.54h7.41a2.26,2.26,0,0,0,2.26-2.26V119.25Z" />
                <path class="cls-30"
                    d="M102.35,120.25v27.47a2.26,2.26,0,0,0,2.26,2.26h11.93v-4.54h-7.41a2.26,2.26,0,0,1-2.26-2.26V120.25Z" />
                <rect class="cls-31" x="29.09" y="51.62" width="11.65" height="15.61" />
                <rect class="cls-32" x="41.7" y="51.62" width="11.65" height="15.61" />
                <polygon class="cls-33"
                    points="68.14 79.88 59.92 59.43 68.14 38.98 86.64 38.98 94.86 59.43 86.64 79.88 68.14 79.88" />
                <polygon class="cls-34"
                    points="84.1 42.74 70.68 42.74 63.97 59.43 70.68 76.12 84.1 76.12 90.81 59.43 84.1 42.74" />
                <polygon class="cls-35" points="83.21 57.45 71.56 59.34 71.56 53.5 83.21 53.5 83.21 57.45" />
                
            </g>
        </g>
    </g>
</svg>