<svg xmlns="http://www.w3.org/2000/svg" xmlns:xlink="http://www.w3.org/1999/xlink" viewBox="0 0 150 64.84">
    <defs>
        <style>
            .cls-1,
            .cls-10,
            .cls-18,
            .cls-23,
            .cls-4 {
                fill: #252628;
            }

            .cls-2 {
                fill: url(#未命名的渐变_27);
            }

            .cls-3 {
                fill: url(#未命名的渐变_26);
            }

            .cls-10,
            .cls-18,
            .cls-23,
            .cls-33,
            .cls-34,
            .cls-35,
            .cls-36,
            .cls-37,
            .cls-38,
            .cls-39,
            .cls-4,
            .cls-40 {
                stroke-miterlimit: 10;
                stroke-width: 0.25px;
            }

            .cls-4 {
                stroke: url(#未命名的渐变_26-2);
            }

            .cls-5 {
                fill: url(#未命名的渐变_26-3);
            }

            .cls-6 {
                fill: url(#未命名的渐变_21);
            }

            .cls-7 {
                fill: url(#未命名的渐变_89);
            }

            .cls-8 {
                fill: url(#未命名的渐变_27-2);
            }

            .cls-9 {
                fill: url(#未命名的渐变_26-4);
            }

            .cls-10 {
                stroke: url(#未命名的渐变_26-5);
            }

            .cls-11 {
                fill: url(#未命名的渐变_26-6);
            }

            .cls-12 {
                fill: url(#未命名的渐变_21-2);
            }

            .cls-13 {
                fill: url(#未命名的渐变_89-2);
            }

            .cls-14 {
                fill: #5c6066;
            }

            .cls-15 {
                fill: url(#未命名的渐变_27-3);
            }

            .cls-16 {
                fill: url(#未命名的渐变_26-7);
            }

            .cls-17 {
                fill: url(#未命名的渐变_35);
            }

            .cls-18 {
                stroke: url(#未命名的渐变_26-8);
            }

            .cls-19 {
                fill: url(#未命名的渐变_26-9);
            }

            .cls-20 {
                fill: url(#未命名的渐变_27-4);
            }

            .cls-21 {
                fill: url(#未命名的渐变_26-10);
            }

            .cls-22 {
                fill: url(#未命名的渐变_35-2);
            }

            .cls-23 {
                stroke: url(#未命名的渐变_26-11);
            }

            .cls-24 {
                fill: url(#未命名的渐变_26-12);
            }

            .cls-25 {
                fill: url(#未命名的渐变_205);
            }

            .cls-26,
            .cls-30,
            .cls-42 {
                opacity: 0.2;
            }

            .cls-26 {
                fill: url(#未命名的渐变_20);
            }

            .cls-27 {
                fill: url(#未命名的渐变_205-2);
            }

            .cls-28 {
                fill: url(#未命名的渐变_205-3);
            }

            .cls-29 {
                fill: url(#未命名的渐变_21-3);
            }

            .cls-30 {
                fill: url(#未命名的渐变_20-2);
            }

            .cls-31 {
                fill: url(#未命名的渐变_205-4);
            }

            .cls-32 {
                fill: url(#未命名的渐变_205-5);
            }

            .cls-33,
            .cls-34,
            .cls-35,
            .cls-36,
            .cls-37,
            .cls-38,
            .cls-39,
            .cls-40 {
                stroke: #505458;
            }

            .cls-33 {
                fill: url(#未命名的渐变_204);
            }

            .cls-34 {
                fill: url(#未命名的渐变_204-2);
            }

            .cls-35 {
                fill: url(#未命名的渐变_204-3);
            }

            .cls-36 {
                fill: url(#未命名的渐变_204-4);
            }

            .cls-37 {
                fill: url(#未命名的渐变_204-5);
            }

            .cls-38 {
                fill: url(#未命名的渐变_204-6);
            }

            .cls-39 {
                fill: url(#未命名的渐变_204-7);
            }

            .cls-40 {
                fill: url(#未命名的渐变_204-8);
            }

            .cls-41 {
                fill: url(#未命名的渐变_21-4);
            }
        </style>
        <linearGradient id="未命名的渐变_27" x1="46.27" y1="28.94" x2="46.27" y2="36.67"
            gradientTransform="matrix(1, 0, 0, -1, 0, 54.01)" gradientUnits="userSpaceOnUse">
            <stop offset="0" stop-color="#5c6066" />
            <stop offset="1" stop-color="#dce1e6" />
        </linearGradient>
        <linearGradient id="未命名的渐变_26" x1="42.41" y1="21.2" x2="50.13" y2="21.2" gradientUnits="userSpaceOnUse">
            <stop offset="0" stop-color="#dce1e6" />
            <stop offset="1" stop-color="#5c6066" />
        </linearGradient>
        <linearGradient id="未命名的渐变_26-2" x1="43.8" y1="21.2" x2="48.74" y2="21.2" xlink:href="#未命名的渐变_26" />
        <linearGradient id="未命名的渐变_26-3" x1="44.51" y1="21.2" x2="48.04" y2="21.2" xlink:href="#未命名的渐变_26" />
        <linearGradient id="未命名的渐变_21" x1="-0.42" y1="47.11" x2="6.71" y2="47.11"
            gradientTransform="translate(43.13 -22.34)" gradientUnits="userSpaceOnUse">
            <stop offset="0" stop-color="#767b82" />
            <stop offset="0.01" stop-color="#d7dce0" />
            <stop offset="0.02" stop-color="#9ba1ab" />
            <stop offset="0.98" stop-color="#9ba1ab" />
            <stop offset="1" stop-color="#767b82" />
        </linearGradient>
        <linearGradient id="未命名的渐变_89" x1="45.36" y1="21.2" x2="47.19" y2="21.2" gradientUnits="userSpaceOnUse">
            <stop offset="0" stop-color="#61666b" />
            <stop offset="0.07" stop-color="#696e73" />
            <stop offset="0.18" stop-color="#7e8489" />
            <stop offset="0.32" stop-color="#a1a7ae" />
            <stop offset="0.48" stop-color="#d1d8e0" />
            <stop offset="0.53" stop-color="#e2eaf2" />
            <stop offset="1" stop-color="#767b82" />
        </linearGradient>
        <linearGradient id="未命名的渐变_27-2" x1="102.35" y1="28.94" x2="102.35" y2="36.67" xlink:href="#未命名的渐变_27" />
        <linearGradient id="未命名的渐变_26-4" x1="98.49" y1="21.2" x2="106.21" y2="21.2" xlink:href="#未命名的渐变_26" />
        <linearGradient id="未命名的渐变_26-5" x1="99.88" y1="21.2" x2="104.82" y2="21.2" xlink:href="#未命名的渐变_26" />
        <linearGradient id="未命名的渐变_26-6" x1="100.58" y1="21.2" x2="104.11" y2="21.2" xlink:href="#未命名的渐变_26" />
        <linearGradient id="未命名的渐变_21-2" x1="-0.42" y1="103.19" x2="6.71" y2="103.19"
            gradientTransform="translate(99.21 -78.42)" xlink:href="#未命名的渐变_21" />
        <linearGradient id="未命名的渐变_89-2" x1="101.43" y1="21.2" x2="103.26" y2="21.2" xlink:href="#未命名的渐变_89" />
        <linearGradient id="未命名的渐变_27-3" x1="29.82" y1="60.6" x2="29.82" y2="36.93"
            gradientTransform="matrix(1, 0, 0, 1, 0, 0)" xlink:href="#未命名的渐变_27" />
        <linearGradient id="未命名的渐变_26-7" x1="29.82" y1="60.6" x2="29.82" y2="36.93" xlink:href="#未命名的渐变_26" />
        <linearGradient id="未命名的渐变_35" x1="29.82" y1="59.64" x2="29.82" y2="37.88" gradientUnits="userSpaceOnUse">
            <stop offset="0" stop-color="#929699" />
            <stop offset="1" stop-color="#2e3033" />
        </linearGradient>
        <linearGradient id="未命名的渐变_26-8" x1="29.82" y1="54.46" x2="29.82" y2="43.07" xlink:href="#未命名的渐变_26" />
        <linearGradient id="未命名的渐变_26-9" x1="29.82" y1="52.37" x2="29.82" y2="45.15" xlink:href="#未命名的渐变_26" />
        <linearGradient id="未命名的渐变_27-4" x1="120.18" y1="60.6" x2="120.18" y2="36.93"
            gradientTransform="matrix(1, 0, 0, 1, 0, 0)" xlink:href="#未命名的渐变_27" />
        <linearGradient id="未命名的渐变_26-10" x1="120.18" y1="60.6" x2="120.18" y2="36.93" xlink:href="#未命名的渐变_26" />
        <linearGradient id="未命名的渐变_35-2" x1="120.18" y1="59.64" x2="120.18" y2="37.88" xlink:href="#未命名的渐变_35" />
        <linearGradient id="未命名的渐变_26-11" x1="120.18" y1="54.46" x2="120.18" y2="43.07" xlink:href="#未命名的渐变_26" />
        <linearGradient id="未命名的渐变_26-12" x1="120.18" y1="52.37" x2="120.18" y2="45.15" xlink:href="#未命名的渐变_26" />
        <linearGradient id="未命名的渐变_205" x1="-14.71" y1="75.84" x2="-2.65" y2="75.84"
            gradientTransform="translate(83.68 -39.25)" gradientUnits="userSpaceOnUse">
            <stop offset="0" stop-color="#767b82" />
            <stop offset="0.02" stop-color="#9ba1ab" />
            <stop offset="0.98" stop-color="#9ba1ab" />
            <stop offset="0.99" stop-color="#d7dce0" />
            <stop offset="1" stop-color="#767b82" />
        </linearGradient>
        <linearGradient id="未命名的渐变_20" x1="-14.71" y1="75.84" x2="-2.65" y2="75.84"
            gradientTransform="translate(83.68 -39.25)" gradientUnits="userSpaceOnUse">
            <stop offset="0" stop-color="#9ba1ab" stop-opacity="0" />
            <stop offset="1" stop-color="#2e3033" />
        </linearGradient>
        <linearGradient id="未命名的渐变_205-2" x1="-2.65" y1="75.84" x2="-0.42" y2="75.84"
            gradientTransform="translate(76.54 -46.39)" xlink:href="#未命名的渐变_205" />
        <linearGradient id="未命名的渐变_205-3" x1="-16.93" y1="75.84" x2="-14.71" y2="75.84"
            gradientTransform="translate(90.82 -32.1)" xlink:href="#未命名的渐变_205" />
        <linearGradient id="未命名的渐变_21-3" x1="-32.92" y1="75.84" x2="-16.93" y2="75.84"
            gradientTransform="translate(99.93 -23)" xlink:href="#未命名的渐变_21" />
        <linearGradient id="未命名的渐变_20-2" x1="-24.93" y1="75.84" x2="-16.93" y2="75.84"
            gradientTransform="translate(95.93 -27)" xlink:href="#未命名的渐变_20" />
        <linearGradient id="未命名的渐变_205-4" x1="37.63" y1="36.59" x2="39.9" y2="36.59"
            gradientTransform="matrix(1, 0, 0, 1, 0, 0)" xlink:href="#未命名的渐变_205" />
        <linearGradient id="未命名的渐变_205-5" x1="107.63" y1="36.59" x2="109.9" y2="36.59"
            gradientTransform="matrix(1, 0, 0, 1, 0, 0)" xlink:href="#未命名的渐变_205" />
        <linearGradient id="未命名的渐变_204" x1="3.67" y1="19" x2="3.67" y2="21.53"
            gradientTransform="matrix(1, 0, 0, -1, 0, 54.01)" gradientUnits="userSpaceOnUse">
            <stop offset="0" stop-color="#9ba1ab" />
            <stop offset="0" stop-color="#abb1ba" />
            <stop offset="0.09" stop-color="#abb1ba" />
            <stop offset="0.46" stop-color="#d7dce0" />
            <stop offset="1" stop-color="#a9b1bb" />
        </linearGradient>
        <linearGradient id="未命名的渐变_204-2" x1="3.67" y1="13" x2="3.67" y2="15.53" xlink:href="#未命名的渐变_204" />
        <linearGradient id="未命名的渐变_204-3" x1="43.67" y1="19" x2="43.67" y2="21.53" xlink:href="#未命名的渐变_204" />
        <linearGradient id="未命名的渐变_204-4" x1="43.67" y1="13" x2="43.67" y2="15.53" xlink:href="#未命名的渐变_204" />
        <linearGradient id="未命名的渐变_204-5" x1="104.67" y1="19" x2="104.67" y2="21.53" xlink:href="#未命名的渐变_204" />
        <linearGradient id="未命名的渐变_204-6" x1="104.67" y1="13" x2="104.67" y2="15.53" xlink:href="#未命名的渐变_204" />
        <linearGradient id="未命名的渐变_204-7" x1="145.67" y1="19" x2="145.67" y2="21.53" xlink:href="#未命名的渐变_204" />
        <linearGradient id="未命名的渐变_204-8" x1="145.67" y1="13" x2="145.67" y2="15.53" xlink:href="#未命名的渐变_204" />
        <linearGradient id="未命名的渐变_21-4" x1="110.53" y1="21.24" x2="129.29" y2="21.24"
            gradientTransform="translate(9.5 7.47)" xlink:href="#未命名的渐变_21" />
    </defs>
    <title>Cross belt separator(传送带分离器)</title>
    <g id="图层_2" data-name="图层 2">
        <g id="图层_6" data-name="图层 6">
            <g id="Cross_belt_separator_传送带分离器_" data-name="Cross belt separator(传送带分离器)">
                <path class="cls-1"
                    d="M148.89,9.61a9.56,9.56,0,1,0-15.68,7.33v11.4h13.68V15.44A9.52,9.52,0,0,0,148.89,9.61Z" />
                <circle class="cls-2" cx="46.27" cy="21.2" r="3.86" />
                <path class="cls-3"
                    d="M46.27,17.59a3.61,3.61,0,1,1-3.61,3.61,3.61,3.61,0,0,1,3.61-3.61m0-.25a3.86,3.86,0,1,0,3.86,3.86,3.86,3.86,0,0,0-3.86-3.86Z" />
                <circle class="cls-4" cx="46.27" cy="21.2" r="2.35" />
                <circle class="cls-5" cx="46.27" cy="21.2" r="1.77" />
                <rect class="cls-6" x="42.7" y="19.61" width="7.14" height="10.32"
                    transform="translate(21.5 71.04) rotate(-90)" />
                <circle class="cls-7" cx="46.27" cy="21.2" r="0.92" />
                <circle class="cls-8" cx="102.35" cy="21.2" r="3.86" />
                <path class="cls-9"
                    d="M102.35,17.59a3.61,3.61,0,1,1-3.61,3.61,3.61,3.61,0,0,1,3.61-3.61m0-.25a3.86,3.86,0,1,0,3.86,3.86,3.86,3.86,0,0,0-3.86-3.86Z" />
                <circle class="cls-10" cx="102.35" cy="21.2" r="2.35" />
                <circle class="cls-11" cx="102.35" cy="21.2" r="1.77" />
                <rect class="cls-12" x="98.78" y="19.61" width="7.14" height="10.32"
                    transform="translate(77.58 127.12) rotate(-90)" />
                <circle class="cls-13" cx="102.35" cy="21.2" r="0.92" />
                <path class="cls-14"
                    d="M100.77,12.7h-2v4h2v-4Zm-32,0h-2v4h2v-4ZM35.46,18.27l-1.55,1.27,2.54,3.09,1.12-.92h0l.41-.33-2.54-3.09ZM14,44.79c0,.14,0,.28,0,.42v1.66h4V45.21h0v0h0v0h0v0h0v-.2h0l-4-.08ZM41.18,60.84h-2v4h2v-4Zm32,0h-2v4h2v-4Zm32,0h-2v4h2v-4Zm26.39-11.9q-.19.77-.45,1.5h0l0,0h0v0h0v0h0v0h0l-.08.21,3.73,1.44a20.21,20.21,0,0,0,.75-2.4l-3.88-1ZM117.88,21l-2.53,3.09,1.54,1.27,2.54-3.09L117.88,21Z" />
                <path class="cls-14"
                    d="M100.77,17.7A14.54,14.54,0,0,1,110,21l15.67,12.87A14.65,14.65,0,0,1,131,45.21c0,9.48-2.33,14.63-14.58,14.63H30A11,11,0,0,1,19,48.79V45.21a14.6,14.6,0,0,1,5.35-11.33L40,21a14.54,14.54,0,0,1,9.22-3.3h51.54m0-1H49.23a15.54,15.54,0,0,0-9.86,3.53L23.69,33.11A15.67,15.67,0,0,0,18,45.21v3.58A12,12,0,0,0,30,60.84h86.46c13,0,15.58-5.91,15.58-15.63a15.66,15.66,0,0,0-5.73-12.11L110.63,20.23a15.54,15.54,0,0,0-9.86-3.53Z" />
                <circle class="cls-15" cx="29.82" cy="48.76" r="11.84" />
                <path class="cls-16"
                    d="M29.82,37.68A11.09,11.09,0,1,1,18.73,48.76,11.1,11.1,0,0,1,29.82,37.68m0-.75A11.84,11.84,0,1,0,41.66,48.76,11.84,11.84,0,0,0,29.82,36.93Z" />
                <circle class="cls-17" cx="29.82" cy="48.76" r="10.88" />
                <circle class="cls-18" cx="29.82" cy="48.76" r="5.57" />
                <circle class="cls-19" cx="29.82" cy="48.76" r="3.61" />
                <circle class="cls-20" cx="120.18" cy="48.76" r="11.84" />
                <path class="cls-21"
                    d="M120.18,37.68a11.09,11.09,0,1,1-11.09,11.08,11.1,11.1,0,0,1,11.09-11.08m0-.75A11.84,11.84,0,1,0,132,48.76a11.84,11.84,0,0,0-11.84-11.83Z" />
                <circle class="cls-22" cx="120.18" cy="48.76" r="10.88" />
                <circle class="cls-23" cx="120.18" cy="48.76" r="5.57" />
                <circle class="cls-24" cx="120.18" cy="48.76" r="3.61" />
                <rect class="cls-25" x="68.97" y="-38.41" width="12.07" height="150"
                    transform="translate(38.41 111.59) rotate(-90)" />
                <rect class="cls-26" x="68.97" y="-38.41" width="12.07" height="150"
                    transform="translate(38.41 111.59) rotate(-90)" />
                <rect class="cls-27" x="73.89" y="-45.55" width="2.22" height="150"
                    transform="translate(45.55 104.45) rotate(-90)" />
                <rect class="cls-28" x="73.89" y="-31.27" width="2.22" height="150"
                    transform="translate(31.27 118.73) rotate(-90)" />
                <rect class="cls-29" x="67" y="21.51" width="15.99" height="62.66"
                    transform="translate(22.16 127.84) rotate(-90)" />
                <rect class="cls-30" x="71" y="17.51" width="8" height="62.66"
                    transform="translate(26.16 123.84) rotate(-90)" />
                <rect class="cls-31" x="37.63" y="30.56" width="2.27" height="12.07" />
                <rect class="cls-32" x="107.63" y="30.56" width="2.27" height="12.07" />
                <circle class="cls-33" cx="3.67" cy="33.74" r="1.26" />
                <circle class="cls-34" cx="3.67" cy="39.74" r="1.26" />
                <circle class="cls-35" cx="43.67" cy="33.74" r="1.26" />
                <circle class="cls-36" cx="43.67" cy="39.74" r="1.26" />
                <circle class="cls-37" cx="104.67" cy="33.74" r="1.26" />
                <circle class="cls-38" cx="104.67" cy="39.74" r="1.26" />
                <circle class="cls-39" cx="145.67" cy="33.74" r="1.26" />
                <circle class="cls-40" cx="145.67" cy="39.74" r="1.26" />
                <rect class="cls-41" x="120.03" y="-1.99" width="18.76" height="61.39" rx="9.38"
                    transform="translate(24.13 -51.83) rotate(24.91)" />
               
            </g>
        </g>
    </g>
</svg>