<svg xmlns="http://www.w3.org/2000/svg" xmlns:xlink="http://www.w3.org/1999/xlink" viewBox="0 0 150 70.58">
    <defs>
        <style>
            .cls-1 {
                fill: #47484d;
            }

            .cls-2 {
                fill: url(#未命名的渐变_5);
            }

            .cls-3,
            .cls-4 {
                fill: none;
                stroke-miterlimit: 10;
                stroke-width: 0.1px;
            }

            .cls-3 {
                stroke: #d2dae6;
            }

            .cls-4 {
                stroke: #5e6266;
            }

            .cls-5 {
                fill: #babfc5;
            }

            .cls-6 {
                fill: #fff;
            }

            .cls-7 {
                fill: #cc543d;
            }

            .cls-8 {
                fill: #cfd5db;
            }

            .cls-9 {
                opacity: 0.6;
                fill: url(#未命名的渐变_4);
            }

            .cls-10 {
                fill: url(#未命名的渐变_5-2);
            }

            .cls-11 {
                fill: #5e6266;
            }

            .cls-12 {
                fill: #222a34;
            }

            .cls-13 {
                fill: #5a5e66;
            }

            .cls-14 {
                fill: url(#未命名的渐变_201);
            }

            .cls-15 {
                fill: #747980;
            }

            .cls-16 {
                opacity: 0.2;
            }
        </style>
        <linearGradient id="未命名的渐变_5" x1="127.19" y1="-17.89" x2="34.88" y2="74.43" gradientUnits="userSpaceOnUse">
            <stop offset="0" stop-color="#d7dce0" />
            <stop offset="1" stop-color="#8a9099" />
        </linearGradient>
        <linearGradient id="未命名的渐变_4" x1="73.99" y1="45.64" x2="73.99" y2="42.41" gradientUnits="userSpaceOnUse">
            <stop offset="0" stop-color="#9ba1ab" stop-opacity="0" />
            <stop offset="1" stop-color="#2e3033" />
        </linearGradient>
        <linearGradient id="未命名的渐变_5-2" x1="84.61" y1="23.66" x2="63.34" y2="44.92" xlink:href="#未命名的渐变_5" />
        <linearGradient id="未命名的渐变_201" x1="70.38" y1="36.75" x2="68.28" y2="34.65" gradientUnits="userSpaceOnUse">
            <stop offset="0" stop-color="#e6f1ff" stop-opacity="0" />
            <stop offset="0.16" stop-color="#e6f1ff" stop-opacity="0.01" />
            <stop offset="0.29" stop-color="#e6f1ff" stop-opacity="0.05" />
            <stop offset="0.41" stop-color="#e7f1ff" stop-opacity="0.12" />
            <stop offset="0.53" stop-color="#e8f2ff" stop-opacity="0.21" />
            <stop offset="0.63" stop-color="#e9f2ff" stop-opacity="0.33" />
            <stop offset="0.74" stop-color="#eaf2ff" stop-opacity="0.48" />
            <stop offset="0.84" stop-color="#ebf3ff" stop-opacity="0.66" />
            <stop offset="0.94" stop-color="#edf4ff" stop-opacity="0.85" />
            <stop offset="1" stop-color="#eef4ff" />
        </linearGradient>
    </defs>
    <title>Dehydrator(脱水机)</title>
    <g id="图层_2" data-name="图层 2">
        <g id="图层_6" data-name="图层 6">
            <g id="Dehydrator_脱水机_" data-name="Dehydrator(脱水机)">
                <polygon class="cls-1" points="32.86 2.21 32.86 38.19 4.68 38.19 0 41.76 0 2.21 32.86 2.21" />
                <polygon class="cls-2"
                    points="150 14.96 150 68.6 32.86 68.6 32.86 35.98 4.68 35.98 0 39.55 0 0 145.07 0 145.07 14.96 150 14.96" />
                <line class="cls-3" x1="16.86" x2="16.86" y2="35.98" />
                <line class="cls-4" x1="16.14" y1="35.98" x2="16.14" />
                <line class="cls-3" x1="32.86" x2="32.86" y2="35.98" />
                <line class="cls-4" x1="32.13" y1="35.98" x2="32.13" />
                <line class="cls-3" x1="32.86" y1="35.99" x2="150" y2="35.99" />
                <line class="cls-4" x1="150" y1="36.71" x2="32.86" y2="36.71" />
                <rect class="cls-1" x="35.54" y="68.6" width="111.77" height="1.98" />
                <rect class="cls-5" x="37.89" y="4.74" width="12.07" height="12.39"
                    transform="translate(87.86 21.87) rotate(180)" />
                <line class="cls-3" x1="49.96" y1="17.13" x2="49.96" y2="4.74" />
                <line class="cls-4" x1="37.89" y1="4.74" x2="37.89" y2="17.13" />
                <line class="cls-3" x1="37.89" y1="4.74" x2="49.96" y2="4.74" />
                <line class="cls-4" x1="49.96" y1="17.13" x2="37.89" y2="17.13" />
                <rect class="cls-6" x="39.2" y="6.19" width="9.45" height="4.32" />
                <rect class="cls-7" x="39.2" y="6.19" width="9.45" height="1.03" />
                <rect class="cls-8" x="121.2" y="4.74" width="12.07" height="12.39"
                    transform="translate(254.48 21.87) rotate(180)" />
                <line class="cls-3" x1="133.28" y1="17.13" x2="133.28" y2="4.74" />
                <line class="cls-4" x1="121.2" y1="4.74" x2="121.2" y2="17.13" />
                <line class="cls-3" x1="121.2" y1="4.74" x2="133.28" y2="4.74" />
                <line class="cls-4" x1="133.28" y1="17.13" x2="121.2" y2="17.13" />
                <rect class="cls-6" x="122.52" y="6.19" width="9.45" height="4.32" />
                <rect class="cls-7" x="122.52" y="6.19" width="9.45" height="1.03" />
                <rect class="cls-5" x="134.92" y="28.48" width="6.04" height="6.19"
                    transform="translate(275.88 63.16) rotate(180)" />
                <line class="cls-3" x1="140.96" y1="34.68" x2="140.96" y2="28.48" />
                <line class="cls-4" x1="134.92" y1="28.48" x2="134.92" y2="34.68" />
                <line class="cls-3" x1="134.92" y1="28.48" x2="140.96" y2="28.48" />
                <line class="cls-4" x1="140.96" y1="34.68" x2="134.92" y2="34.68" />
                <rect class="cls-5" x="142.06" y="28.48" width="6.04" height="6.19"
                    transform="translate(290.15 63.16) rotate(180)" />
                <line class="cls-3" x1="148.09" y1="34.68" x2="148.09" y2="28.48" />
                <line class="cls-4" x1="142.06" y1="28.48" x2="142.06" y2="34.68" />
                <line class="cls-3" x1="142.06" y1="28.48" x2="148.09" y2="28.48" />
                <line class="cls-4" x1="148.09" y1="34.68" x2="142.06" y2="34.68" />
                <polyline class="cls-4" points="108.06 0 108.06 32.69 87.19 32.69" />
                <polyline class="cls-3" points="87.19 31.5 106.87 31.5 106.87 0" />
                <polyline class="cls-4" points="135.24 53.76 73.99 53.76 73.99 42.41" />
                <polyline class="cls-3" points="75.18 42.41 75.18 52.56 135.24 52.56" />
                <rect class="cls-9" x="60.78" y="42.41" width="26.42" height="3.23" />
                <polygon class="cls-10" points="60.78 42.36 60.83 26.2 87.19 26.25 87.15 42.36 60.78 42.36" />
                <path class="cls-11" d="M87.09,26.29v16H60.88v-16H87.09m.1-.1H60.78V42.41H87.19V26.19Z" />
                <rect class="cls-6" x="62.06" y="27.29" width="6.85" height="3.65" />
                <rect class="cls-6" x="80.5" y="30.47" width="3.05" height="8.54" />
                <rect class="cls-5" x="134.92" y="48.91" width="6.04" height="6.19"
                    transform="translate(275.88 104.02) rotate(180)" />
                <line class="cls-3" x1="140.96" y1="55.11" x2="140.96" y2="48.91" />
                <line class="cls-4" x1="134.92" y1="48.91" x2="134.92" y2="55.11" />
                <line class="cls-3" x1="134.92" y1="48.91" x2="140.96" y2="48.91" />
                <line class="cls-4" x1="140.96" y1="55.11" x2="134.92" y2="55.11" />
                <polygon class="cls-12" points="68.32 38.85 68.27 34.62 72.36 34.57 72.41 38.85 68.32 38.85" />
                <path class="cls-13" d="M72.36,34.62v4.19h-4V34.62h4m.1-.1H68.22v4.39h4.24V34.52Z" />
                <polygon class="cls-14" points="72.36 34.62 68.32 34.62 68.32 38.8 72.36 34.62" />
                <polygon class="cls-15" points="16.8 20.55 16.8 35.98 4.68 35.98 0 39.55 0 20.55 16.8 20.55" />
                
            </g>
        </g>
    </g>
</svg>