<svg xmlns="http://www.w3.org/2000/svg" xmlns:xlink="http://www.w3.org/1999/xlink" viewBox="0 0 150 72.82">
    <defs>
        <style>
            .cls-1 {
                fill: url(#未命名的渐变_121);
            }

            .cls-2 {
                fill: #fff;
                opacity: 0.3;
            }

            .cls-3 {
                fill: url(#未命名的渐变_32);
            }

            .cls-4 {
                fill: url(#未命名的渐变_11);
            }

            .cls-5 {
                fill: url(#未命名的渐变_121-2);
            }

            .cls-6 {
                fill: url(#未命名的渐变_121-3);
            }

            .cls-7 {
                fill: url(#未命名的渐变_121-4);
            }

            .cls-8 {
                fill: url(#未命名的渐变_121-5);
            }

            .cls-11,
            .cls-12,
            .cls-13,
            .cls-9 {
                stroke: #505458;
                stroke-miterlimit: 10;
                stroke-width: 0.1px;
            }

            .cls-9 {
                fill: url(#未命名的渐变_303);
            }

            .cls-10 {
                fill: #505458;
            }

            .cls-11 {
                fill: url(#未命名的渐变_303-2);
            }

            .cls-12 {
                fill: url(#未命名的渐变_303-3);
            }

            .cls-13 {
                fill: url(#未命名的渐变_303-4);
            }

            .cls-14 {
                opacity: 0.2;
            }
        </style>
        <linearGradient id="未命名的渐变_121" x1="51.17" y1="63.55" x2="51.17" y2="9.27" gradientUnits="userSpaceOnUse">
            <stop offset="0" stop-color="#a9b1bb" />
            <stop offset="0.09" stop-color="#61666b" />
            <stop offset="0.18" stop-color="#696e73" />
            <stop offset="0.32" stop-color="#7e8489" />
            <stop offset="0.49" stop-color="#a1a7ae" />
            <stop offset="0.69" stop-color="#d1d8e0" />
            <stop offset="0.75" stop-color="#e2eaf2" />
            <stop offset="0.93" stop-color="#9ba1ab" />
            <stop offset="1" stop-color="#767b82" />
        </linearGradient>
        <linearGradient id="未命名的渐变_32" x1="74.35" y1="3.43" x2="28" y2="49.78" gradientUnits="userSpaceOnUse">
            <stop offset="0" stop-color="#abafb3" />
            <stop offset="1" stop-color="#45484d" />
        </linearGradient>
        <linearGradient id="未命名的渐变_11" x1="73.73" y1="1.94" x2="28.62" y2="47.05" gradientUnits="userSpaceOnUse">
            <stop offset="0" stop-color="#d7dce0" />
            <stop offset="1" stop-color="#8a9099" />
        </linearGradient>
        <linearGradient id="未命名的渐变_121-2" x1="3.25" y1="72.82" x2="3.25" y2="0" xlink:href="#未命名的渐变_121" />
        <linearGradient id="未命名的渐变_121-3" x1="99.1" y1="72.82" x2="99.1" y2="0" xlink:href="#未命名的渐变_121" />
        <linearGradient id="未命名的渐变_121-4" x1="126.17" y1="40.52" x2="126.17" y2="32.3" xlink:href="#未命名的渐变_121" />
        <linearGradient id="未命名的渐变_121-5" x1="104.59" y1="58.91" x2="104.59" y2="13.91" xlink:href="#未命名的渐变_121" />
        <linearGradient id="未命名的渐变_303" x1="647.28" y1="-54.65" x2="647.28" y2="-53.34"
            gradientTransform="translate(-486.67 -396.84) rotate(45)" gradientUnits="userSpaceOnUse">
            <stop offset="0" stop-color="#9ba1ab" />
            <stop offset="0" stop-color="#abb1ba" />
            <stop offset="0.09" stop-color="#abb1ba" />
            <stop offset="0.46" stop-color="#f5faff" />
            <stop offset="1" stop-color="#a9b1bb" />
        </linearGradient>
        <linearGradient id="未命名的渐变_303-2" x1="652.1" y1="-49.84" x2="652.1" y2="-48.52" xlink:href="#未命名的渐变_303" />
        <linearGradient id="未命名的渐变_303-3" x1="707.36" y1="-114.73" x2="707.36" y2="-113.41" xlink:href="#未命名的渐变_303" />
        <linearGradient id="未命名的渐变_303-4" x1="712.18" y1="-109.92" x2="712.18" y2="-108.6" xlink:href="#未命名的渐变_303" />
    </defs>
    <title>Drum magnet(鼓式磁铁)</title>
    <g id="图层_2" data-name="图层 2">
        <g id="图层_6" data-name="图层 6">
            <g id="Drum_magnet_鼓式磁铁_" data-name="Drum magnet(鼓式磁铁)">
                <rect class="cls-1" x="6.5" y="9.27" width="89.35" height="54.27" />
                <rect class="cls-2" x="6.5" y="21.45" width="89.35" height="8.96" />
                <rect class="cls-3" x="6.5" y="24.93" width="89.35" height="3.36" />
                <rect class="cls-4" x="6.5" y="24.06" width="89.35" height="0.87" />
                <rect class="cls-5" width="6.5" height="72.82" />
                <rect class="cls-6" x="95.85" width="6.5" height="72.82" />
                <rect class="cls-7" x="102.35" y="32.3" width="47.65" height="8.21" />
                <rect class="cls-8" x="102.35" y="13.91" width="4.47" height="44.99" />
                <circle class="cls-9" cx="9.21" cy="22.68" r="0.66" />
                <path class="cls-10"
                    d="M9,22.36l.26.26.25-.26.06.05-.26.26.26.26,0,0-.26-.25L8.94,23l0-.06.28-.28-.26-.25Z" />
                <circle class="cls-11" cx="9.21" cy="29.49" r="0.66" />
                <path class="cls-10"
                    d="M9,29.17l.26.26.25-.26.06.06-.26.25.26.26,0,0-.26-.25-.28.28,0,0,.28-.29-.26-.25Z" />
                <circle class="cls-12" cx="94.17" cy="22.68" r="0.66" />
                <path class="cls-10"
                    d="M93.92,22.36l.26.26.26-.26,0,.05-.26.26.26.26,0,0-.25-.25-.28.28-.06-.06.28-.28-.25-.25Z" />
                <circle class="cls-13" cx="94.17" cy="29.49" r="0.66" />
                <path class="cls-10"
                    d="M93.92,29.17l.26.26.26-.26,0,.06-.26.25.26.26,0,0-.25-.25-.28.28-.06,0,.28-.29-.25-.25Z" />
               
            </g>
        </g>
    </g>
</svg>