<svg xmlns="http://www.w3.org/2000/svg" xmlns:xlink="http://www.w3.org/1999/xlink" viewBox="0 0 150 86.78">
    <defs>
        <style>
            .cls-1 {
                fill: #2f3033;
            }

            .cls-2 {
                fill: #47484d;
            }

            .cls-3 {
                fill: url(#未命名的渐变_135);
            }

            .cls-4 {
                fill: url(#未命名的渐变_32);
            }

            .cls-5 {
                fill: url(#未命名的渐变_135-2);
            }

            .cls-6 {
                fill: url(#未命名的渐变_135-3);
            }

            .cls-7 {
                fill: #494d53;
            }

            .cls-8 {
                fill: #dde4ec;
            }

            .cls-9 {
                fill: url(#未命名的渐变_10);
            }

            .cls-10 {
                fill: url(#未命名的渐变_10-2);
            }

            .cls-11 {
                fill: url(#未命名的渐变_135-4);
            }

            .cls-12 {
                fill: #5f6266;
            }

            .cls-13 {
                fill: #303133;
            }

            .cls-14 {
                fill: url(#未命名的渐变_135-5);
            }

            .cls-15 {
                fill: url(#未命名的渐变_10-3);
            }

            .cls-16 {
                fill: url(#未命名的渐变_173);
            }

            .cls-17 {
                fill: url(#未命名的渐变_173-2);
            }

            .cls-18 {
                fill: url(#未命名的渐变_173-3);
            }

            .cls-19 {
                fill: url(#未命名的渐变_173-4);
            }

            .cls-20 {
                fill: url(#未命名的渐变_173-5);
            }

            .cls-21 {
                fill: url(#未命名的渐变_173-6);
            }

            .cls-22 {
                fill: url(#未命名的渐变_135-6);
            }

            .cls-23 {
                fill: #8e9299;
            }

            .cls-24 {
                fill: url(#未命名的渐变_135-7);
            }

            .cls-25 {
                fill: #777a80;
            }

            .cls-26 {
                fill: #fff;
                opacity: 0.3;
            }

            .cls-27 {
                fill: #a9aeb3;
            }

            .cls-28 {
                opacity: 0.5;
            }

            .cls-29 {
                fill: none;
                stroke: #fff;
                stroke-miterlimit: 10;
                stroke-width: 0.25px;
            }

            .cls-30 {
                fill: url(#未命名的渐变_135-8);
            }

            .cls-31 {
                fill: #5d5f62;
            }

            .cls-32 {
                opacity: 0.2;
            }
        </style>
        <linearGradient id="未命名的渐变_135" x1="44.56" y1="55.55" x2="18.78" y2="81.33" gradientUnits="userSpaceOnUse">
            <stop offset="0" stop-color="#c4c8cc" />
            <stop offset="1" stop-color="#8a9099" />
        </linearGradient>
        <linearGradient id="未命名的渐变_32" x1="22.54" y1="59.3" x2="5.84" y2="76" gradientUnits="userSpaceOnUse">
            <stop offset="0" stop-color="#abafb3" />
            <stop offset="1" stop-color="#45484d" />
        </linearGradient>
        <linearGradient id="未命名的渐变_135-2" x1="151.75" y1="57.3" x2="129.48" y2="79.58" xlink:href="#未命名的渐变_135" />
        <linearGradient id="未命名的渐变_135-3" x1="83.26" y1="51.8" x2="49.98" y2="85.08" xlink:href="#未命名的渐变_135" />
        <linearGradient id="未命名的渐变_10" x1="52.14" y1="-426.71" x2="38.65" y2="-440.2"
            gradientTransform="matrix(1, 0, 0, -1, 0, -364.98)" gradientUnits="userSpaceOnUse">
            <stop offset="0" stop-color="#dce1e6" />
            <stop offset="1" stop-color="#8a9099" />
        </linearGradient>
        <linearGradient id="未命名的渐变_10-2" x1="94.59" y1="-426.71" x2="81.1" y2="-440.2" xlink:href="#未命名的渐变_10" />
        <linearGradient id="未命名的渐变_135-4" x1="22.65" y1="35.59" x2="1.35" y2="56.9" xlink:href="#未命名的渐变_135" />
        <linearGradient id="未命名的渐变_135-5" x1="125.71" y1="51.8" x2="92.43" y2="85.08" xlink:href="#未命名的渐变_135" />
        <linearGradient id="未命名的渐变_10-3" x1="137.14" y1="-426.71" x2="123.65" y2="-440.2" xlink:href="#未命名的渐变_10" />
        <linearGradient id="未命名的渐变_173" x1="33.55" y1="84.05" x2="35.6" y2="84.05" gradientUnits="userSpaceOnUse">
            <stop offset="0" stop-color="#767b82" />
            <stop offset="0.01" stop-color="#5c6066" />
            <stop offset="0.88" stop-color="#7a7d80" />
            <stop offset="0.94" stop-color="#767b82" />
            <stop offset="1" stop-color="#b9c0cc" />
        </linearGradient>
        <linearGradient id="未命名的渐变_173-2" x1="11.6" y1="83.26" x2="13.65" y2="83.26" xlink:href="#未命名的渐变_173" />
        <linearGradient id="未命名的渐变_173-3" x1="60.93" y1="84.05" x2="62.99" y2="84.05" xlink:href="#未命名的渐变_173" />
        <linearGradient id="未命名的渐变_173-4" x1="91.81" y1="84.05" x2="93.86" y2="84.05" xlink:href="#未命名的渐变_173" />
        <linearGradient id="未命名的渐变_173-5" x1="121.51" y1="84.05" x2="123.56" y2="84.05" xlink:href="#未命名的渐变_173" />
        <linearGradient id="未命名的渐变_173-6" x1="145.33" y1="84.05" x2="147.38" y2="84.05" xlink:href="#未命名的渐变_173" />
        <linearGradient id="未命名的渐变_135-6" x1="53.47" y1="8.72" x2="15.28" y2="46.91" xlink:href="#未命名的渐变_135" />
        <linearGradient id="未命名的渐变_135-7" x1="122.19" y1="-7.27" x2="52.02" y2="62.9" xlink:href="#未命名的渐变_135" />
        <linearGradient id="未命名的渐变_135-8" x1="148.79" y1="38.73" x2="130.77" y2="56.76" xlink:href="#未命名的渐变_135" />
    </defs>
    <title>Filling system(充填系统)</title>
    <g id="图层_2" data-name="图层 2">
        <g id="图层_6" data-name="图层 6">
            <g id="Filling_system_充填系统_" data-name="Filling system(充填系统)">
                <rect class="cls-1" x="9.6" y="79.75" width="9.19" height="0.7" />
                <rect class="cls-2" x="18.78" y="81.33" width="131.22" height="0.68" />
                <rect class="cls-3" x="18.78" y="55.55" width="25.78" height="25.78" />
                <rect class="cls-4" x="9.6" y="55.55" width="9.19" height="24.2" />
                <rect class="cls-5" x="131.23" y="55.55" width="18.77" height="25.78" />
                <rect class="cls-6" x="46.23" y="55.55" width="40.78" height="25.78" />
                <rect class="cls-7" x="44.56" y="55.63" width="1.67" height="25.7" />
                <rect class="cls-8" x="44.75" y="55.63" width="1.47" height="25.7" />
                <rect class="cls-9" x="44.75" y="55.63" width="1.28" height="25.7" />
                <rect class="cls-7" x="87.01" y="55.63" width="1.67" height="25.7" />
                <rect class="cls-8" x="87.21" y="55.63" width="1.47" height="25.7" />
                <rect class="cls-10" x="87.21" y="55.63" width="1.28" height="25.7" />
                <rect class="cls-11" y="36.94" width="24" height="18.61" />
                <rect class="cls-12" x="5.99" y="38.3" width="16.97" height="12.42" />
                <rect class="cls-13" x="5.99" y="51.77" width="16.93" height="2.69" />
                <rect class="cls-14" x="88.68" y="55.55" width="40.78" height="25.78" />
                <rect class="cls-7" x="129.56" y="55.63" width="1.67" height="25.7" />
                <rect class="cls-8" x="129.75" y="55.63" width="1.47" height="25.7" />
                <rect class="cls-15" x="129.75" y="55.63" width="1.28" height="25.7" />
                <rect class="cls-16" x="33.55" y="81.33" width="2.05" height="5.45" />
                <rect class="cls-17" x="11.6" y="79.75" width="2.05" height="7.03" />
                <rect class="cls-18" x="60.93" y="81.33" width="2.05" height="5.45" />
                <rect class="cls-19" x="91.81" y="81.33" width="2.05" height="5.45" />
                <rect class="cls-20" x="121.51" y="81.33" width="2.05" height="5.45" />
                <rect class="cls-21" x="145.33" y="81.33" width="2.05" height="5.45" />
                <rect class="cls-22" x="24" width="20.76" height="55.63" />
                <polygon class="cls-23"
                    points="33.15 48.93 33.15 1.46 24.93 1.46 24.93 54.25 43.76 54.25 43.76 48.93 33.15 48.93" />
                <polygon class="cls-12"
                    points="35.06 26.35 24.93 26.35 24.93 34.89 35.06 34.89 35.06 54.25 36.63 54.25 36.63 34.89 36.63 26.35 35.06 26.35" />
                <rect class="cls-24" x="44.75" width="84.71" height="55.63" />
                <rect class="cls-13" x="45.69" y="51.77" width="82.85" height="2.69" />
                <rect class="cls-23" x="59.5" y="1.46" width="47.89" height="47.89" />
                <polygon class="cls-25"
                    points="106.18 42.82 106.18 24.41 97.99 24.41 97.99 10.81 60.94 10.81 60.94 52.61 95.55 52.61 97.99 52.61 103.59 52.61 106.18 52.61 128.53 52.61 128.53 42.82 106.18 42.82" />
                <rect class="cls-25" x="108.84" y="24" width="11.24" height="28.61" />
                <rect class="cls-12" x="54.13" y="41.21" width="22.46" height="11.4" />
                <rect class="cls-12" x="91.81" y="47.24" width="31.14" height="5.37" />
                <rect class="cls-12" x="110.27" y="38.35" width="12.69" height="8.93" />
                <rect class="cls-26" x="45.69" y="1.46" width="82.85" height="53" />
                <rect class="cls-27" x="87.54" y="1.46" width="1.62" height="53" />
                <rect class="cls-27" x="108.04" y="1.46" width="1.62" height="39.38"
                    transform="translate(129.99 -87.7) rotate(90)" />
                <rect class="cls-27" x="108.04" y="15.9" width="1.62" height="39.38"
                    transform="translate(144.43 -73.26) rotate(90)" />
                <rect class="cls-26" x="24.93" y="1.46" width="18.82" height="52.79" />
                <rect class="cls-26" x="1.11" y="38.3" width="21.82" height="16.16" />
                <g class="cls-28">
                    <line class="cls-29" x1="68.8" y1="18.03" x2="60.06" y2="26.78" />
                    <line class="cls-29" x1="75.24" y1="15.67" x2="61.08" y2="29.83" />
                </g>
                <g class="cls-28">
                    <line class="cls-29" x1="108.82" y1="18.03" x2="100.08" y2="26.78" />
                    <line class="cls-29" x1="115.26" y1="15.67" x2="101.1" y2="29.83" />
                </g>
                <g class="cls-28">
                    <line class="cls-29" x1="34.71" y1="18.03" x2="25.96" y2="26.78" />
                    <line class="cls-29" x1="41.14" y1="15.67" x2="26.98" y2="29.83" />
                </g>
                <g class="cls-28">
                    <line class="cls-29" x1="13.43" y1="44.85" x2="7.3" y2="50.98" />
                    <line class="cls-29" x1="17.94" y1="43.2" x2="8.02" y2="53.13" />
                </g>
                <rect class="cls-30" x="129.56" y="39.94" width="20.44" height="15.61" />
                <rect class="cls-12" x="135.55" y="41.3" width="13.41" height="9.42" />
                <rect class="cls-13" x="135.55" y="51.77" width="13.37" height="2.69" />
                <rect class="cls-26" x="130.67" y="41.3" width="18.26" height="13.16" />
                <g class="cls-28">
                    <line class="cls-29" x1="142.99" y1="44.85" x2="136.86" y2="50.98" />
                    <line class="cls-29" x1="147.5" y1="43.2" x2="137.58" y2="53.13" />
                </g>
                <rect class="cls-31" x="21.4" y="66.63" width="1.09" height="3.61" />
                <rect class="cls-31" x="41.09" y="66.63" width="1.09" height="3.61" />
                <rect class="cls-31" x="133.84" y="66.63" width="1.09" height="3.61" />
                <rect class="cls-31" x="146.53" y="66.63" width="1.09" height="3.61" />
                <rect class="cls-31" x="48.84" y="66.63" width="1.09" height="3.61" />
                <rect class="cls-31" x="83.54" y="66.63" width="1.09" height="3.61" />
                <rect class="cls-31" x="91.29" y="66.63" width="1.09" height="3.61" />
                <rect class="cls-31" x="125.99" y="66.63" width="1.09" height="3.61" />
              
            </g>
        </g>
    </g>
</svg>