<svg xmlns="http://www.w3.org/2000/svg" xmlns:xlink="http://www.w3.org/1999/xlink" viewBox="0 0 47.6 150">
    <defs>
        <style>
            .cls-1 {
                fill: url(#未命名的渐变_273);
            }

            .cls-2 {
                opacity: 0.7;
                fill: url(#未命名的渐变_276);
            }

            .cls-3 {
                fill: url(#未命名的渐变_250);
            }

            .cls-4 {
                fill: url(#未命名的渐变_121);
            }

            .cls-5 {
                fill: url(#未命名的渐变_121-2);
            }

            .cls-6 {
                fill: url(#未命名的渐变_121-3);
            }

            .cls-7 {
                opacity: 0.8;
            }

            .cls-8 {
                fill: url(#未命名的渐变_292);
            }

            .cls-9 {
                fill: url(#未命名的渐变_292-2);
            }

            .cls-10 {
                fill: url(#未命名的渐变_292-3);
            }

            .cls-11 {
                fill: url(#未命名的渐变_292-4);
            }

            .cls-12 {
                fill: url(#未命名的渐变_292-5);
            }

            .cls-13 {
                fill: url(#未命名的渐变_292-6);
            }

            .cls-14 {
                fill: url(#未命名的渐变_292-7);
            }

            .cls-15 {
                fill: url(#未命名的渐变_292-8);
            }

            .cls-16 {
                fill: url(#未命名的渐变_292-9);
            }

            .cls-17 {
                fill: url(#未命名的渐变_292-10);
            }

            .cls-18 {
                fill: url(#未命名的渐变_292-11);
            }

            .cls-19 {
                fill: url(#未命名的渐变_292-12);
            }

            .cls-20 {
                fill: url(#未命名的渐变_292-13);
            }

            .cls-21 {
                fill: url(#未命名的渐变_292-14);
            }

            .cls-22 {
                fill: url(#未命名的渐变_292-15);
            }

            .cls-23 {
                fill: url(#未命名的渐变_292-16);
            }

            .cls-24 {
                opacity: 0.2;
            }
        </style>
        <linearGradient id="未命名的渐变_273" x1="3.54" y1="80.53" x2="44.07" y2="80.53" gradientUnits="userSpaceOnUse">
            <stop offset="0" stop-color="#a9b1bb" />
            <stop offset="0.09" stop-color="#61666b" />
            <stop offset="0.29" stop-color="#686d73" />
            <stop offset="0.59" stop-color="#7d8289" />
            <stop offset="0.93" stop-color="#9ba1ab" />
            <stop offset="1" stop-color="#767b82" />
        </linearGradient>
        <linearGradient id="未命名的渐变_276" x1="5.69" y1="78.5" x2="41.92" y2="78.5" gradientUnits="userSpaceOnUse">
            <stop offset="0" stop-color="#61666b" />
            <stop offset="0.09" stop-color="#696e73" />
            <stop offset="0.22" stop-color="#7e8489" />
            <stop offset="0.38" stop-color="#a1a7ae" />
            <stop offset="0.5" stop-color="#bec5cc" />
            <stop offset="0.93" stop-color="#9ba1ab" />
            <stop offset="1" stop-color="#767b82" />
        </linearGradient>
        <linearGradient id="未命名的渐变_250" x1="31.23" y1="59.56" x2="38.11" y2="59.56" gradientUnits="userSpaceOnUse">
            <stop offset="0" stop-color="#fff" />
            <stop offset="1" stop-color="#e2eaf2" stop-opacity="0.2" />
        </linearGradient>
        <linearGradient id="未命名的渐变_121" x1="14.24" y1="9.58" x2="33.12" y2="9.58" gradientUnits="userSpaceOnUse">
            <stop offset="0" stop-color="#a9b1bb" />
            <stop offset="0.09" stop-color="#61666b" />
            <stop offset="0.18" stop-color="#696e73" />
            <stop offset="0.32" stop-color="#7e8489" />
            <stop offset="0.49" stop-color="#a1a7ae" />
            <stop offset="0.69" stop-color="#d1d8e0" />
            <stop offset="0.75" stop-color="#e2eaf2" />
            <stop offset="0.93" stop-color="#9ba1ab" />
            <stop offset="1" stop-color="#767b82" />
        </linearGradient>
        <linearGradient id="未命名的渐变_121-2" x1="14.24" y1="2.56" x2="33.12" y2="2.56" xlink:href="#未命名的渐变_121" />
        <linearGradient id="未命名的渐变_121-3" x1="15.08" y1="6.61" x2="32.28" y2="6.61" xlink:href="#未命名的渐变_121" />
        <linearGradient id="未命名的渐变_292" x1="15.08" y1="2.73" x2="15.9" y2="2.73" gradientUnits="userSpaceOnUse">
            <stop offset="0" stop-color="#a9b1bb" stop-opacity="0" />
            <stop offset="0.01" stop-color="#9da4ae" stop-opacity="0.16" />
            <stop offset="0.04" stop-color="#899097" stop-opacity="0.42" />
            <stop offset="0.07" stop-color="#787e85" stop-opacity="0.63" />
            <stop offset="0.11" stop-color="#6b7177" stop-opacity="0.8" />
            <stop offset="0.16" stop-color="#63686d" stop-opacity="0.92" />
            <stop offset="0.22" stop-color="#5d6268" stop-opacity="0.98" />
            <stop offset="0.4" stop-color="#5c6166" />
            <stop offset="0.45" stop-color="#64696e" />
            <stop offset="0.53" stop-color="#797f84" />
            <stop offset="0.63" stop-color="#9ca3a9" />
            <stop offset="0.75" stop-color="#ccd4db" />
            <stop offset="0.8" stop-color="#c8d0d7" />
            <stop offset="0.86" stop-color="#bdc5cc" />
            <stop offset="0.91" stop-color="#abb1b8" />
            <stop offset="0.96" stop-color="#91979e" />
            <stop offset="1" stop-color="#767b82" />
        </linearGradient>
        <linearGradient id="未命名的渐变_292-2" x1="16.16" y1="2.73" x2="16.98" y2="2.73" xlink:href="#未命名的渐变_292" />
        <linearGradient id="未命名的渐变_292-3" x1="17.23" y1="2.73" x2="18.05" y2="2.73" xlink:href="#未命名的渐变_292" />
        <linearGradient id="未命名的渐变_292-4" x1="18.31" y1="2.73" x2="19.13" y2="2.73" xlink:href="#未命名的渐变_292" />
        <linearGradient id="未命名的渐变_292-5" x1="19.38" y1="2.73" x2="20.2" y2="2.73" xlink:href="#未命名的渐变_292" />
        <linearGradient id="未命名的渐变_292-6" x1="20.46" y1="2.73" x2="21.28" y2="2.73" xlink:href="#未命名的渐变_292" />
        <linearGradient id="未命名的渐变_292-7" x1="21.53" y1="2.73" x2="22.35" y2="2.73" xlink:href="#未命名的渐变_292" />
        <linearGradient id="未命名的渐变_292-8" x1="22.61" y1="2.73" x2="23.43" y2="2.73" xlink:href="#未命名的渐变_292" />
        <linearGradient id="未命名的渐变_292-9" x1="23.69" y1="2.73" x2="24.51" y2="2.73" xlink:href="#未命名的渐变_292" />
        <linearGradient id="未命名的渐变_292-10" x1="24.76" y1="2.73" x2="25.58" y2="2.73" xlink:href="#未命名的渐变_292" />
        <linearGradient id="未命名的渐变_292-11" x1="25.84" y1="2.73" x2="26.66" y2="2.73" xlink:href="#未命名的渐变_292" />
        <linearGradient id="未命名的渐变_292-12" x1="26.91" y1="2.73" x2="27.73" y2="2.73" xlink:href="#未命名的渐变_292" />
        <linearGradient id="未命名的渐变_292-13" x1="27.99" y1="2.73" x2="28.81" y2="2.73" xlink:href="#未命名的渐变_292" />
        <linearGradient id="未命名的渐变_292-14" x1="29.06" y1="2.73" x2="29.88" y2="2.73" xlink:href="#未命名的渐变_292" />
        <linearGradient id="未命名的渐变_292-15" x1="30.14" y1="2.73" x2="30.96" y2="2.73" xlink:href="#未命名的渐变_292" />
        <linearGradient id="未命名的渐变_292-16" x1="31.21" y1="2.73" x2="32.03" y2="2.73" xlink:href="#未命名的渐变_292" />
    </defs>
    <title>Glass bottle with cap(带盖玻璃瓶)</title>
    <g id="图层_2" data-name="图层 2">
        <g id="图层_6" data-name="图层 6">
            <g id="Glass_bottle_with_cap_带盖玻璃瓶_" data-name="Glass bottle with cap(带盖玻璃瓶)">
                <path class="cls-1"
                    d="M44.07,59.65v86.28A4.07,4.07,0,0,1,40,150H7.6a4.07,4.07,0,0,1-4.06-4.07V59.65C3.54,52,9.7,43.44,9.7,43.44l4.62-10.7,1.56-21.68h1.46L15.89,32.69,11.38,43.58c-.05.07-5.69,7.17-5.69,14V144A1.93,1.93,0,0,0,7.6,146H40A1.93,1.93,0,0,0,41.91,144V57.58c0-6.81-5.63-13.93-5.69-14l-4.5-10.89L30.27,11.06h1.46l1.55,21.68,4.62,10.7S44.07,52,44.07,59.65Z" />
                <path class="cls-2"
                    d="M7.61,146A1.93,1.93,0,0,1,5.69,144V57.58c0-6.84,5.63-13.93,5.69-14l4.5-10.89,1.46-21.63H30.26l1.46,21.63,4.51,10.89c.05.07,5.69,7.2,5.69,14V144A1.93,1.93,0,0,1,40,146Z" />
                <polygon class="cls-3" points="31.23 50.47 38.11 56.63 37.82 68.64 35.47 58.09 31.23 50.47" />
                <polygon class="cls-4"
                    points="32.28 8.1 15.08 8.1 14.24 8.96 14.24 10.19 15.08 11.06 32.28 11.06 33.12 10.19 33.12 8.96 32.28 8.1" />
                <path class="cls-5" d="M14.24.81V4.26l.84.87h17.2l.84-.87V.81S32.52,0,23.8,0,14.24.81,14.24.81Z" />
                <polygon class="cls-6"
                    points="32.28 5.13 15.08 5.13 15.62 6 15.62 7.23 15.08 8.1 32.28 8.1 31.74 7.23 31.74 6 32.28 5.13" />
                <g class="cls-7">
                    <rect class="cls-8" x="15.08" y="1.54" width="0.82" height="2.39" />
                    <rect class="cls-9" x="16.16" y="1.54" width="0.82" height="2.39" />
                    <rect class="cls-10" x="17.23" y="1.54" width="0.82" height="2.39" />
                    <rect class="cls-11" x="18.31" y="1.54" width="0.82" height="2.39" />
                    <rect class="cls-12" x="19.38" y="1.54" width="0.82" height="2.39" />
                    <rect class="cls-13" x="20.46" y="1.54" width="0.82" height="2.39" />
                    <rect class="cls-14" x="21.53" y="1.54" width="0.82" height="2.39" />
                    <rect class="cls-15" x="22.61" y="1.54" width="0.82" height="2.39" />
                    <rect class="cls-16" x="23.69" y="1.54" width="0.82" height="2.39" />
                    <rect class="cls-17" x="24.76" y="1.54" width="0.82" height="2.39" />
                    <rect class="cls-18" x="25.84" y="1.54" width="0.82" height="2.39" />
                    <rect class="cls-19" x="26.91" y="1.54" width="0.82" height="2.39" />
                    <rect class="cls-20" x="27.99" y="1.54" width="0.82" height="2.39" />
                    <rect class="cls-21" x="29.06" y="1.54" width="0.82" height="2.39" />
                    <rect class="cls-22" x="30.14" y="1.54" width="0.82" height="2.39" />
                    <rect class="cls-23" x="31.21" y="1.54" width="0.82" height="2.39" />
                </g>
              
            </g>
        </g>
    </g>
</svg>