<svg xmlns="http://www.w3.org/2000/svg" xmlns:xlink="http://www.w3.org/1999/xlink" viewBox="0 0 80.71 150">
    <defs>
        <style>
            .cls-1 {
                fill: url(#未命名的渐变_32);
            }

            .cls-2 {
                fill: url(#未命名的渐变_32-2);
            }

            .cls-3 {
                fill: url(#未命名的渐变_111);
            }

            .cls-4 {
                fill: url(#未命名的渐变_5);
            }

            .cls-5 {
                fill: url(#未命名的渐变_111-2);
            }

            .cls-6 {
                fill: url(#未命名的渐变_111-3);
            }

            .cls-7 {
                opacity: 0.2;
            }
        </style>
        <linearGradient id="未命名的渐变_32" x1="31.15" y1="31.28" x2="61.85" y2="0.57" gradientUnits="userSpaceOnUse">
            <stop offset="0" stop-color="#abafb3" />
            <stop offset="1" stop-color="#45484d" />
        </linearGradient>
        <linearGradient id="未命名的渐变_32-2" x1="62.93" y1="50.58" x2="32.23" y2="81.28"
            gradientTransform="matrix(1, 0, 0, -1, 0, 92.53)" xlink:href="#未命名的渐变_32" />
        <linearGradient id="未命名的渐变_111" x1="57.45" y1="-11.71" x2="26.16" y2="19.58" gradientUnits="userSpaceOnUse">
            <stop offset="0" stop-color="#ebf0f5" />
            <stop offset="1" stop-color="#b8c0cc" />
        </linearGradient>
        <linearGradient id="未命名的渐变_5" x1="57.75" y1="-3.53" x2="11.41" y2="42.81" gradientUnits="userSpaceOnUse">
            <stop offset="0" stop-color="#d7dce0" />
            <stop offset="1" stop-color="#8a9099" />
        </linearGradient>
        <linearGradient id="未命名的渐变_111-2" x1="70.68" y1="47.38" x2="-15.97" y2="134.03" xlink:href="#未命名的渐变_111" />
        <linearGradient id="未命名的渐变_111-3" x1="106.26" y1="47.35" x2="29.16" y2="124.45" xlink:href="#未命名的渐变_111" />
    </defs>
    <title>Milk carton(牛奶纸盒)</title>
    <g id="图层_2" data-name="图层 2">
        <g id="图层_6" data-name="图层 6">
            <g id="Milk_carton_牛奶纸盒_" data-name="Milk carton(牛奶纸盒)">
                <polygon class="cls-1" points="80.71 21.81 21.68 21.81 14.45 7.88 69.16 7.88 80.71 21.81" />
                <polygon class="cls-2" points="80.71 21.81 21.68 21.81 14.45 31.4 73.49 31.4 80.71 21.81" />
                <rect class="cls-3" x="14.45" width="54.71" height="7.87" />
                <polygon class="cls-4" points="54.71 31.41 0 31.41 14.45 7.87 69.16 7.87 54.71 31.41" />
                <rect class="cls-5" y="31.41" width="54.71" height="118.59" />
                <polygon class="cls-6" points="80.71 140.4 54.71 150 54.71 31.41 80.71 21.81 80.71 140.4" />
               
            </g>
        </g>
    </g>
</svg>