<svg xmlns="http://www.w3.org/2000/svg" xmlns:xlink="http://www.w3.org/1999/xlink" viewBox="0 0 112.76 150.13">
    <defs>
        <style>
            .cls-1 {
                fill: url(#未命名的渐变_32);
            }

            .cls-14,
            .cls-15,
            .cls-16,
            .cls-17,
            .cls-18,
            .cls-19,
            .cls-2,
            .cls-20,
            .cls-21,
            .cls-22,
            .cls-23,
            .cls-24,
            .cls-3,
            .cls-32,
            .cls-33,
            .cls-34,
            .cls-35,
            .cls-36,
            .cls-4,
            .cls-5,
            .cls-57,
            .cls-6,
            .cls-61,
            .cls-62 {
                fill: none;
            }

            .cls-14,
            .cls-15,
            .cls-16,
            .cls-17,
            .cls-18,
            .cls-19,
            .cls-2,
            .cls-20,
            .cls-21,
            .cls-22,
            .cls-23,
            .cls-24,
            .cls-3,
            .cls-32,
            .cls-33,
            .cls-34,
            .cls-35,
            .cls-36,
            .cls-4,
            .cls-5,
            .cls-53,
            .cls-54,
            .cls-55,
            .cls-56,
            .cls-57,
            .cls-6,
            .cls-61,
            .cls-62 {
                stroke-miterlimit: 10;
            }

            .cls-15,
            .cls-16,
            .cls-17,
            .cls-18,
            .cls-19,
            .cls-2,
            .cls-20,
            .cls-21,
            .cls-22,
            .cls-23,
            .cls-24,
            .cls-3,
            .cls-32,
            .cls-33,
            .cls-34,
            .cls-35,
            .cls-36,
            .cls-4,
            .cls-5,
            .cls-57,
            .cls-6 {
                stroke-width: 2px;
            }

            .cls-2 {
                stroke: url(#未命名的渐变_68);
            }

            .cls-16,
            .cls-21,
            .cls-3,
            .cls-33 {
                stroke-linecap: round;
            }

            .cls-3 {
                stroke: url(#未命名的渐变_45);
            }

            .cls-4 {
                stroke: url(#未命名的渐变_45-2);
            }

            .cls-5 {
                stroke: url(#未命名的渐变_45-3);
            }

            .cls-6 {
                stroke: url(#未命名的渐变_45-4);
            }

            .cls-7 {
                fill: url(#未命名的渐变_45-5);
            }

            .cls-8 {
                fill: url(#未命名的渐变_297);
            }

            .cls-9 {
                fill: url(#未命名的渐变_45-6);
            }

            .cls-10 {
                fill: url(#未命名的渐变_217);
            }

            .cls-11 {
                fill: url(#未命名的渐变_217-2);
            }

            .cls-12 {
                fill: url(#未命名的渐变_38);
            }

            .cls-13 {
                fill: url(#未命名的渐变_100);
            }

            .cls-14,
            .cls-53,
            .cls-54,
            .cls-55,
            .cls-56 {
                stroke: #252628;
            }

            .cls-14,
            .cls-54,
            .cls-56,
            .cls-61,
            .cls-62 {
                stroke-width: 0.1px;
            }

            .cls-14 {
                opacity: 0.6;
            }

            .cls-15 {
                stroke: url(#未命名的渐变_68-2);
            }

            .cls-16 {
                stroke: url(#未命名的渐变_45-7);
            }

            .cls-17 {
                stroke: url(#未命名的渐变_45-8);
            }

            .cls-18 {
                stroke: url(#未命名的渐变_45-9);
            }

            .cls-19 {
                stroke: url(#未命名的渐变_45-10);
            }

            .cls-20 {
                stroke: url(#未命名的渐变_68-3);
            }

            .cls-21 {
                stroke: url(#未命名的渐变_45-11);
            }

            .cls-22 {
                stroke: url(#未命名的渐变_45-12);
            }

            .cls-23 {
                stroke: url(#未命名的渐变_45-13);
            }

            .cls-24 {
                stroke: url(#未命名的渐变_45-14);
            }

            .cls-25 {
                fill: url(#未命名的渐变_68-4);
            }

            .cls-26 {
                fill: url(#未命名的渐变_297-2);
            }

            .cls-27 {
                fill: url(#未命名的渐变_68-5);
            }

            .cls-28 {
                fill: url(#未命名的渐变_217-3);
            }

            .cls-29 {
                fill: url(#未命名的渐变_217-4);
            }

            .cls-30 {
                fill: url(#未命名的渐变_38-2);
            }

            .cls-31 {
                fill: url(#未命名的渐变_100-2);
            }

            .cls-32 {
                stroke: url(#未命名的渐变_68-6);
            }

            .cls-33 {
                stroke: url(#未命名的渐变_45-15);
            }

            .cls-34 {
                stroke: url(#未命名的渐变_45-16);
            }

            .cls-35 {
                stroke: url(#未命名的渐变_45-17);
            }

            .cls-36 {
                stroke: url(#未命名的渐变_45-18);
            }

            .cls-37 {
                fill: url(#未命名的渐变_111);
            }

            .cls-38 {
                fill: url(#未命名的渐变_8);
            }

            .cls-39 {
                fill: url(#未命名的渐变_8-2);
            }

            .cls-40 {
                fill: url(#未命名的渐变_8-3);
            }

            .cls-41 {
                fill: url(#未命名的渐变_8-4);
            }

            .cls-42 {
                fill: url(#未命名的渐变_45-19);
            }

            .cls-43 {
                fill: url(#未命名的渐变_45-20);
            }

            .cls-44 {
                fill: url(#未命名的渐变_45-21);
            }

            .cls-45 {
                fill: url(#未命名的渐变_297-3);
            }

            .cls-46 {
                fill: url(#未命名的渐变_45-22);
            }

            .cls-47 {
                fill: url(#未命名的渐变_45-23);
            }

            .cls-48 {
                fill: url(#未命名的渐变_297-4);
            }

            .cls-49 {
                fill: url(#未命名的渐变_11);
            }

            .cls-50 {
                fill: url(#未命名的渐变_68-7);
            }

            .cls-51 {
                fill: url(#未命名的渐变_68-8);
            }

            .cls-52 {
                fill: url(#未命名的渐变_11-2);
            }

            .cls-53,
            .cls-55 {
                stroke-width: 0.25px;
            }

            .cls-53 {
                fill: url(#未命名的渐变_89);
            }

            .cls-54 {
                fill: url(#未命名的渐变_89-2);
            }

            .cls-55 {
                fill: url(#未命名的渐变_89-3);
            }

            .cls-56 {
                fill: url(#未命名的渐变_89-4);
            }

            .cls-57 {
                stroke: url(#未命名的渐变_45-24);
            }

            .cls-58 {
                fill: #d9dfe6;
            }

            .cls-59 {
                fill: #4b5056;
            }

            .cls-60 {
                fill: url(#未命名的渐变_65);
            }

            .cls-61 {
                stroke: #e9f2ff;
            }

            .cls-62 {
                stroke: #5e6266;
            }

            .cls-63 {
                fill: url(#未命名的渐变_45-25);
            }

            .cls-64 {
                fill: url(#未命名的渐变_100-3);
            }

            .cls-65 {
                fill: url(#未命名的渐变_100-4);
            }

            .cls-66 {
                fill: url(#未命名的渐变_100-5);
            }

            .cls-67 {
                fill: url(#未命名的渐变_45-26);
            }

            .cls-68 {
                fill: url(#未命名的渐变_100-6);
            }

            .cls-69 {
                fill: url(#未命名的渐变_100-7);
            }

            .cls-70 {
                fill: url(#未命名的渐变_100-8);
            }

            .cls-71 {
                fill: url(#未命名的渐变_68-9);
            }

            .cls-72 {
                fill: url(#未命名的渐变_54);
            }

            .cls-73 {
                fill: url(#未命名的渐变_54-2);
            }

            .cls-74 {
                fill: url(#未命名的渐变_100-9);
            }

            .cls-75 {
                fill: url(#未命名的渐变_45-27);
            }

            .cls-76 {
                fill: url(#未命名的渐变_100-10);
            }

            .cls-77 {
                fill: url(#未命名的渐变_100-11);
            }

            .cls-78 {
                fill: url(#未命名的渐变_100-12);
            }

            .cls-79 {
                fill: url(#未命名的渐变_72);
            }

            .cls-80 {
                fill: url(#未命名的渐变_124);
            }

            .cls-81 {
                fill: #fff;
            }

            .cls-82 {
                fill: #a63c27;
            }

            .cls-83 {
                fill: #a8afb5;
            }

            .cls-84 {
                fill: url(#未命名的渐变_72-2);
            }

            .cls-85 {
                fill: url(#未命名的渐变_124-2);
            }

            .cls-86 {
                fill: url(#未命名的渐变_100-13);
            }

            .cls-87 {
                fill: url(#未命名的渐变_100-14);
            }

            .cls-88 {
                fill: url(#未命名的渐变_100-15);
            }

            .cls-89 {
                fill: url(#未命名的渐变_72-3);
            }

            .cls-90 {
                fill: url(#未命名的渐变_124-3);
            }

            .cls-91 {
                opacity: 0.2;
            }
        </style>
        <linearGradient id="未命名的渐变_32" x1="87.74" y1="27.72" x2="25.03" y2="90.43" gradientUnits="userSpaceOnUse">
            <stop offset="0" stop-color="#abafb3" />
            <stop offset="1" stop-color="#45484d" />
        </linearGradient>
        <linearGradient id="未命名的渐变_68" x1="45.91" y1="3.02" x2="45.91" y2="1.02" gradientUnits="userSpaceOnUse">
            <stop offset="0" stop-color="#767b82" />
            <stop offset="0.07" stop-color="#9ba1ab" />
            <stop offset="0.25" stop-color="#e2eaf2" />
            <stop offset="0.31" stop-color="#d1d8e0" />
            <stop offset="0.51" stop-color="#a1a7ae" />
            <stop offset="0.68" stop-color="#7e8489" />
            <stop offset="0.82" stop-color="#696e73" />
            <stop offset="0.91" stop-color="#61666b" />
            <stop offset="1" stop-color="#a9b1bb" />
        </linearGradient>
        <linearGradient id="未命名的渐变_45" x1="29.23" y1="23.13" x2="31.23" y2="23.13" gradientUnits="userSpaceOnUse">
            <stop offset="0" stop-color="#a9b1bb" />
            <stop offset="0.09" stop-color="#61666b" />
            <stop offset="0.18" stop-color="#696e73" />
            <stop offset="0.32" stop-color="#7e8489" />
            <stop offset="0.49" stop-color="#a1a7ae" />
            <stop offset="0.69" stop-color="#d1d8e0" />
            <stop offset="0.75" stop-color="#e2eaf2" />
            <stop offset="0.93" stop-color="#9ba1ab" />
            <stop offset="1" stop-color="#767b82" />
        </linearGradient>
        <linearGradient id="未命名的渐变_45-2" x1="36.2" y1="1.39" x2="36.74" y2="3.55" xlink:href="#未命名的渐变_45" />
        <linearGradient id="未命名的渐变_45-3" x1="31.97" y1="3.77" x2="33.57" y2="5.36" xlink:href="#未命名的渐变_45" />
        <linearGradient id="未命名的渐变_45-4" x1="29.53" y1="7.99" x2="31.84" y2="8.48" xlink:href="#未命名的渐变_45" />
        <linearGradient id="未命名的渐变_45-5" x1="27.17" y1="70.65" x2="33.29" y2="70.65" xlink:href="#未命名的渐变_45" />
        <linearGradient id="未命名的渐变_297" x1="28.11" y1="123.63" x2="32.35" y2="123.63" gradientUnits="userSpaceOnUse">
            <stop offset="0" stop-color="#676b70" />
            <stop offset="0.02" stop-color="#484b4d" />
            <stop offset="0.19" stop-color="#747980" />
            <stop offset="0.2" stop-color="#d1d5db" />
            <stop offset="0.79" stop-color="#c7cfdb" />
            <stop offset="0.8" stop-color="#edf5ff" />
            <stop offset="0.81" stop-color="#c3c7cc" />
            <stop offset="1" stop-color="#929599" />
        </linearGradient>
        <linearGradient id="未命名的渐变_45-6" x1="15.6" y1="70.57" x2="44.85" y2="70.57" xlink:href="#未命名的渐变_45" />
        <linearGradient id="未命名的渐变_217" x1="15.6" y1="32.27" x2="44.85" y2="32.27" gradientUnits="userSpaceOnUse">
            <stop offset="0" stop-color="#5b6166" />
            <stop offset="0.13" stop-color="#5f656a" />
            <stop offset="0.26" stop-color="#697076" />
            <stop offset="0.39" stop-color="#7b8289" />
            <stop offset="0.51" stop-color="#959ca5" />
            <stop offset="0.64" stop-color="#b5bdc8" />
            <stop offset="0.76" stop-color="#dce5f3" />
            <stop offset="0.79" stop-color="#e7f0ff" />
            <stop offset="1" stop-color="#b9c0cc" />
        </linearGradient>
        <linearGradient id="未命名的渐变_217-2" x1="15.6" y1="108.25" x2="44.85" y2="108.25" xlink:href="#未命名的渐变_217" />
        <linearGradient id="未命名的渐变_38" x1="26.57" y1="34.27" x2="34.08" y2="21.27" gradientUnits="userSpaceOnUse">
            <stop offset="0" stop-color="#a9b1bb" />
            <stop offset="0.09" stop-color="#61666b" />
            <stop offset="0.18" stop-color="#696e73" />
            <stop offset="0.31" stop-color="#7e8489" />
            <stop offset="0.48" stop-color="#a1a7ae" />
            <stop offset="0.66" stop-color="#d1d8e0" />
            <stop offset="0.73" stop-color="#e2eaf2" />
            <stop offset="0.93" stop-color="#9ba1ab" />
            <stop offset="1" stop-color="#767b82" />
        </linearGradient>
        <linearGradient id="未命名的渐变_100" x1="26.57" y1="68.47" x2="34.08" y2="55.47"
            gradientTransform="matrix(1, 0, 0, -1, 0, 175.34)" gradientUnits="userSpaceOnUse">
            <stop offset="0" stop-color="#7a8088" />
            <stop offset="0.09" stop-color="#2d2f33" />
            <stop offset="0.18" stop-color="#35373b" />
            <stop offset="0.32" stop-color="#4a4d51" />
            <stop offset="0.49" stop-color="#6d7176" />
            <stop offset="0.69" stop-color="#9da3a8" />
            <stop offset="0.76" stop-color="#b0b7bc" />
            <stop offset="0.93" stop-color="#6d7177" />
            <stop offset="1" stop-color="#5c6067" />
        </linearGradient>
        <linearGradient id="未命名的渐变_68-2" x1="45.91" y1="106.41" x2="45.91" y2="104.41" xlink:href="#未命名的渐变_68" />
        <linearGradient id="未命名的渐变_45-7" x1="29.23" y1="126.52" x2="31.23" y2="126.52" xlink:href="#未命名的渐变_45" />
        <linearGradient id="未命名的渐变_45-8" x1="36.2" y1="104.78" x2="36.74" y2="106.95" xlink:href="#未命名的渐变_45" />
        <linearGradient id="未命名的渐变_45-9" x1="31.97" y1="107.16" x2="33.57" y2="108.75" xlink:href="#未命名的渐变_45" />
        <linearGradient id="未命名的渐变_45-10" x1="29.53" y1="111.38" x2="31.84" y2="111.87" xlink:href="#未命名的渐变_45" />
        <linearGradient id="未命名的渐变_68-3" x1="82.75" y1="3.02" x2="82.75" y2="1.02"
            gradientTransform="matrix(-1, 0, 0, 1, 149.6, 0)" xlink:href="#未命名的渐变_68" />
        <linearGradient id="未命名的渐变_45-11" x1="66.07" y1="23.13" x2="68.07" y2="23.13"
            gradientTransform="matrix(-1, 0, 0, 1, 149.6, 0)" xlink:href="#未命名的渐变_45" />
        <linearGradient id="未命名的渐变_45-12" x1="73.04" y1="1.39" x2="73.58" y2="3.55"
            gradientTransform="matrix(-1, 0, 0, 1, 149.6, 0)" xlink:href="#未命名的渐变_45" />
        <linearGradient id="未命名的渐变_45-13" x1="68.81" y1="3.77" x2="70.4" y2="5.36"
            gradientTransform="matrix(-1, 0, 0, 1, 149.6, 0)" xlink:href="#未命名的渐变_45" />
        <linearGradient id="未命名的渐变_45-14" x1="66.37" y1="7.99" x2="68.68" y2="8.48"
            gradientTransform="matrix(-1, 0, 0, 1, 149.6, 0)" xlink:href="#未命名的渐变_45" />
        <linearGradient id="未命名的渐变_68-4" x1="64" y1="70.65" x2="70.13" y2="70.65"
            gradientTransform="matrix(1, 0, 0, -1, 15.47, 141.3)" xlink:href="#未命名的渐变_68" />
        <linearGradient id="未命名的渐变_297-2" x1="64.95" y1="123.63" x2="69.18" y2="123.63"
            gradientTransform="matrix(1, 0, 0, -1, 15.47, 247.25)" xlink:href="#未命名的渐变_297" />
        <linearGradient id="未命名的渐变_68-5" x1="52.44" y1="70.57" x2="81.69" y2="70.57"
            gradientTransform="matrix(1, 0, 0, -1, 15.47, 141.14)" xlink:href="#未命名的渐变_68" />
        <linearGradient id="未命名的渐变_217-3" x1="52.44" y1="32.27" x2="81.69" y2="32.27"
            gradientTransform="matrix(1, 0, 0, -1, 15.47, 64.54)" xlink:href="#未命名的渐变_217" />
        <linearGradient id="未命名的渐变_217-4" x1="52.44" y1="108.25" x2="81.69" y2="108.25"
            gradientTransform="matrix(1, 0, 0, -1, 15.47, 216.51)" xlink:href="#未命名的渐变_217" />
        <linearGradient id="未命名的渐变_38-2" x1="70.72" y1="34.27" x2="63.22" y2="21.27"
            gradientTransform="matrix(-1, 0, 0, 1, 149.6, 0)" xlink:href="#未命名的渐变_38" />
        <linearGradient id="未命名的渐变_100-2" x1="70.72" y1="68.47" x2="63.22" y2="55.47"
            gradientTransform="translate(149.6 175.34) rotate(180)" xlink:href="#未命名的渐变_100" />
        <linearGradient id="未命名的渐变_68-6" x1="82.75" y1="106.41" x2="82.75" y2="104.41"
            gradientTransform="matrix(-1, 0, 0, 1, 149.6, 0)" xlink:href="#未命名的渐变_68" />
        <linearGradient id="未命名的渐变_45-15" x1="66.07" y1="126.52" x2="68.07" y2="126.52"
            gradientTransform="matrix(-1, 0, 0, 1, 149.6, 0)" xlink:href="#未命名的渐变_45" />
        <linearGradient id="未命名的渐变_45-16" x1="73.04" y1="104.78" x2="73.58" y2="106.95"
            gradientTransform="matrix(-1, 0, 0, 1, 149.6, 0)" xlink:href="#未命名的渐变_45" />
        <linearGradient id="未命名的渐变_45-17" x1="68.81" y1="107.16" x2="70.4" y2="108.75"
            gradientTransform="matrix(-1, 0, 0, 1, 149.6, 0)" xlink:href="#未命名的渐变_45" />
        <linearGradient id="未命名的渐变_45-18" x1="66.37" y1="111.38" x2="68.68" y2="111.87"
            gradientTransform="matrix(-1, 0, 0, 1, 149.6, 0)" xlink:href="#未命名的渐变_45" />
        <linearGradient id="未命名的渐变_111" x1="75.37" y1="11.86" x2="37.4" y2="49.83" gradientUnits="userSpaceOnUse">
            <stop offset="0" stop-color="#ebf0f5" />
            <stop offset="1" stop-color="#b8c0cc" />
        </linearGradient>
        <linearGradient id="未命名的渐变_8" x1="56.38" y1="150.13" x2="56.38" y2="146.86" gradientUnits="userSpaceOnUse">
            <stop offset="0" stop-color="#767b82" />
            <stop offset="0.08" stop-color="#9ba1ab" />
            <stop offset="0.91" stop-color="#9ba1ab" />
            <stop offset="0.96" stop-color="#d7dce0" />
            <stop offset="0.98" stop-color="#767b82" />
        </linearGradient>
        <linearGradient id="未命名的渐变_8-2" x1="52.1" y1="118.73" x2="60.66" y2="118.73" xlink:href="#未命名的渐变_8" />
        <linearGradient id="未命名的渐变_8-3" x1="50.69" y1="90.24" x2="62.08" y2="90.24" xlink:href="#未命名的渐变_8" />
        <linearGradient id="未命名的渐变_8-4" x1="53.78" y1="69.41" x2="58.98" y2="69.41" xlink:href="#未命名的渐变_8" />
        <linearGradient id="未命名的渐变_45-19" x1="50.98" y1="72.75" x2="53.25" y2="72.75"
            gradientTransform="translate(4.27 4.27)" xlink:href="#未命名的渐变_45" />
        <linearGradient id="未命名的渐变_45-20" x1="55.25" y1="73.94" x2="57.52" y2="73.94" xlink:href="#未命名的渐变_45" />
        <linearGradient id="未命名的渐变_45-21" x1="55.25" y1="61.71" x2="57.52" y2="61.71"
            gradientTransform="matrix(1, 0, 0, -1, 0, 145.35)" xlink:href="#未命名的渐变_45" />
        <linearGradient id="未命名的渐变_297-3" x1="54.79" y1="89.22" x2="57.98" y2="89.22" xlink:href="#未命名的渐变_297" />
        <linearGradient id="未命名的渐变_45-22" x1="54.79" y1="86.82" x2="57.98" y2="86.82" xlink:href="#未命名的渐变_45" />
        <linearGradient id="未命名的渐变_45-23" x1="54.79" y1="81.5" x2="57.98" y2="81.5" xlink:href="#未命名的渐变_45" />
        <linearGradient id="未命名的渐变_297-4" x1="54.79" y1="80.1" x2="57.98" y2="80.1" xlink:href="#未命名的渐变_297" />
        <linearGradient id="未命名的渐变_11" x1="63.49" y1="98.3" x2="49.27" y2="112.53" gradientUnits="userSpaceOnUse">
            <stop offset="0" stop-color="#d7dce0" />
            <stop offset="1" stop-color="#8a9099" />
        </linearGradient>
        <linearGradient id="未命名的渐变_68-7" x1="48.55" y1="107.02" x2="48.55" y2="103.8" xlink:href="#未命名的渐变_68" />
        <linearGradient id="未命名的渐变_68-8" x1="64.21" y1="107.02" x2="64.21" y2="103.8" xlink:href="#未命名的渐变_68" />
        <linearGradient id="未命名的渐变_11-2" x1="60.85" y1="-2.18" x2="51.92" y2="6.75" xlink:href="#未命名的渐变_11" />
        <linearGradient id="未命名的渐变_89" x1="51.45" y1="0.76" x2="54.51" y2="3.81" gradientUnits="userSpaceOnUse">
            <stop offset="0" stop-color="#61666b" />
            <stop offset="0.07" stop-color="#696e73" />
            <stop offset="0.18" stop-color="#7e8489" />
            <stop offset="0.32" stop-color="#a1a7ae" />
            <stop offset="0.48" stop-color="#d1d8e0" />
            <stop offset="0.53" stop-color="#e2eaf2" />
            <stop offset="1" stop-color="#767b82" />
        </linearGradient>
        <linearGradient id="未命名的渐变_89-2" x1="52.08" y1="1.39" x2="53.87" y2="3.18" xlink:href="#未命名的渐变_89" />
        <linearGradient id="未命名的渐变_89-3" x1="58.26" y1="0.76" x2="61.31" y2="3.81" xlink:href="#未命名的渐变_89" />
        <linearGradient id="未命名的渐变_89-4" x1="58.89" y1="1.39" x2="60.68" y2="3.18" xlink:href="#未命名的渐变_89" />
        <linearGradient id="未命名的渐变_45-24" x1="55.38" y1="8.49" x2="57.38" y2="8.49" xlink:href="#未命名的渐变_45" />
        <linearGradient id="未命名的渐变_65" x1="59.57" y1="21.25" x2="53.2" y2="27.62"
            gradientTransform="translate(112.76 48.86) rotate(-180)" gradientUnits="userSpaceOnUse">
            <stop offset="0" stop-color="#939699" />
            <stop offset="1" stop-color="#8a9099" />
        </linearGradient>
        <linearGradient id="未命名的渐变_45-25" x1="46.37" y1="100.48" x2="46.37" y2="99.39" xlink:href="#未命名的渐变_45" />
        <linearGradient id="未命名的渐变_100-3" x1="44.69" y1="101.28" x2="44.69" y2="98.59"
            gradientTransform="matrix(1, 0, 0, 1, 0, 0)" xlink:href="#未命名的渐变_100" />
        <linearGradient id="未命名的渐变_100-4" x1="43.94" y1="102.63" x2="43.94" y2="97.24"
            gradientTransform="matrix(1, 0, 0, 1, 0, 0)" xlink:href="#未命名的渐变_100" />
        <linearGradient id="未命名的渐变_100-5" x1="42.35" y1="100.61" x2="39.95" y2="99.22"
            gradientTransform="matrix(1, 0, 0, 1, 0, 0)" xlink:href="#未命名的渐变_100" />
        <linearGradient id="未命名的渐变_45-26" x1="51.36" y1="100.48" x2="51.36" y2="99.39"
            gradientTransform="matrix(1, 0, 0, -1, 15.02, 199.87)" xlink:href="#未命名的渐变_45" />
        <linearGradient id="未命名的渐变_100-6" x1="49.67" y1="101.28" x2="49.67" y2="98.59"
            gradientTransform="matrix(1, 0, 0, -1, 18.39, 199.87)" xlink:href="#未命名的渐变_100" />
        <linearGradient id="未命名的渐变_100-7" x1="48.92" y1="102.63" x2="48.92" y2="97.24"
            gradientTransform="matrix(-1, 0, 0, 1, 117.73, 0)" xlink:href="#未命名的渐变_100" />
        <linearGradient id="未命名的渐变_100-8" x1="47.34" y1="100.61" x2="44.94" y2="99.22"
            gradientTransform="matrix(-1, 0, 0, 1, 117.73, 0)" xlink:href="#未命名的渐变_100" />
        <linearGradient id="未命名的渐变_68-9" x1="48.88" y1="125.47" x2="48.88" y2="124.37"
            gradientTransform="translate(2.86 -8.04)" xlink:href="#未命名的渐变_68" />
        <linearGradient id="未命名的渐变_54" x1="46.02" y1="126.27" x2="46.02" y2="123.57"
            gradientTransform="translate(5.72 -5.18)" gradientUnits="userSpaceOnUse">
            <stop offset="0" stop-color="#5c6067" />
            <stop offset="0.07" stop-color="#6d7177" />
            <stop offset="0.24" stop-color="#b0b7bc" />
            <stop offset="0.31" stop-color="#9da3a8" />
            <stop offset="0.51" stop-color="#6d7176" />
            <stop offset="0.68" stop-color="#4a4d51" />
            <stop offset="0.82" stop-color="#35373b" />
            <stop offset="0.91" stop-color="#2d2f33" />
            <stop offset="1" stop-color="#7a8088" />
        </linearGradient>
        <linearGradient id="未命名的渐变_54-2" x1="45.27" y1="127.62" x2="45.27" y2="122.22"
            gradientTransform="translate(-73.18 165.76) rotate(-90)" xlink:href="#未命名的渐变_54" />
        <linearGradient id="未命名的渐变_100-9" x1="43.68" y1="124.25" x2="41.28" y2="125.63"
            gradientTransform="translate(-73.18 165.76) rotate(-90)" xlink:href="#未命名的渐变_100" />
        <linearGradient id="未命名的渐变_45-27" x1="53.86" y1="125.47" x2="53.86" y2="124.38"
            gradientTransform="matrix(1, 0, 0, -1, 7.14, 241.8)" xlink:href="#未命名的渐变_45" />
        <linearGradient id="未命名的渐变_100-10" x1="51" y1="126.27" x2="51" y2="123.58"
            gradientTransform="matrix(1, 0, 0, -1, 10.01, 244.66)" xlink:href="#未命名的渐变_100" />
        <linearGradient id="未命名的渐变_100-11" x1="50.25" y1="127.62" x2="50.25" y2="122.23"
            gradientTransform="matrix(0, -1, -1, 0, 185.93, 170.74)" xlink:href="#未命名的渐变_100" />
        <linearGradient id="未命名的渐变_100-12" x1="48.67" y1="125.6" x2="46.27" y2="124.21"
            gradientTransform="matrix(0, -1, -1, 0, 185.93, 170.74)" xlink:href="#未命名的渐变_100" />
        <linearGradient id="未命名的渐变_72" x1="51.97" y1="98.57" x2="51.97" y2="94.98" gradientUnits="userSpaceOnUse">
            <stop offset="0" stop-color="#f5faff" />
            <stop offset="1" stop-color="#737880" />
        </linearGradient>
        <linearGradient id="未命名的渐变_124" x1="51.97" y1="98.57" x2="51.97" y2="94.98" gradientUnits="userSpaceOnUse">
            <stop offset="0" stop-color="#5c6066" />
            <stop offset="1" stop-color="#f5faff" />
        </linearGradient>
        <linearGradient id="未命名的渐变_72-2" x1="60.79" y1="98.57" x2="60.79" y2="94.98" xlink:href="#未命名的渐变_72" />
        <linearGradient id="未命名的渐变_124-2" x1="60.79" y1="98.57" x2="60.79" y2="94.98" xlink:href="#未命名的渐变_124" />
        <linearGradient id="未命名的渐变_100-13" x1="47.99" y1="73.31" x2="50.26" y2="73.31"
            gradientTransform="matrix(1, 0, 0, 1, 0, 0)" xlink:href="#未命名的渐变_100" />
        <linearGradient id="未命名的渐变_100-14" x1="47.57" y1="76.79" x2="50.68" y2="76.79"
            gradientTransform="matrix(1, 0, 0, 1, 0, 0)" xlink:href="#未命名的渐变_100" />
        <linearGradient id="未命名的渐变_100-15" x1="46.31" y1="76.86" x2="51.94" y2="76.86"
            gradientTransform="matrix(1, 0, 0, 1, 0, 0)" xlink:href="#未命名的渐变_100" />
        <linearGradient id="未命名的渐变_72-3" x1="49.12" y1="78.99" x2="49.12" y2="75.4" xlink:href="#未命名的渐变_72" />
        <linearGradient id="未命名的渐变_124-3" x1="49.12" y1="78.99" x2="49.12" y2="75.4" xlink:href="#未命名的渐变_124" />
    </defs>
    <title>Nitrogen generator(氮气发生器)</title>
    <g id="图层_2" data-name="图层 2">
        <g id="图层_6" data-name="图层 6">
            <g id="Nitrogen_generator_氮气发生器_" data-name="Nitrogen generator(氮气发生器)">
                <rect class="cls-1" x="40.01" y="12.74" width="32.75" height="92.67" />
                <line class="cls-2" x1="38.6" y1="2.02" x2="53.23" y2="2.02" />
                <line class="cls-3" x1="30.23" y1="35.87" x2="30.23" y2="10.4" />
                <path class="cls-4" d="M34.42,3.14A10.29,10.29,0,0,1,38.61,2" />
                <path class="cls-5" d="M34.42,3.14a8.37,8.37,0,0,0-3.07,3.07" />
                <path class="cls-6" d="M31.35,6.21a8.36,8.36,0,0,0-1.12,4.19" />
                <rect class="cls-7" x="27.17" y="18.83" width="6.13" height="103.64" />
                <rect class="cls-8" x="28.11" y="122.47" width="4.23" height="2.3" />
                <rect class="cls-9" x="15.6" y="27.94" width="29.25" height="85.27" />
                <rect class="cls-10" x="15.6" y="31.81" width="29.25" height="0.92" />
                <rect class="cls-11" x="15.6" y="107.8" width="29.25" height="0.92" />
                <path class="cls-12" d="M44.85,27.94H15.6s3.19-4.31,14.63-4.31S44.85,27.94,44.85,27.94Z" />
                <path class="cls-13" d="M44.85,113.21H15.6s3.19,4.3,14.63,4.3S44.85,113.21,44.85,113.21Z" />
                <line class="cls-14" x1="28.11" y1="123.33" x2="32.35" y2="123.33" />
                <line class="cls-15" x1="38.6" y1="105.41" x2="53.23" y2="105.41" />
                <line class="cls-16" x1="30.23" y1="139.26" x2="30.23" y2="113.79" />
                <path class="cls-17" d="M34.42,106.53a10.29,10.29,0,0,1,4.19-1.12" />
                <path class="cls-18" d="M34.42,106.53a8.37,8.37,0,0,0-3.07,3.07" />
                <path class="cls-19" d="M31.35,109.6a8.39,8.39,0,0,0-1.12,4.19" />
                <line class="cls-20" x1="74.16" y1="2.02" x2="59.54" y2="2.02" />
                <line class="cls-21" x1="82.53" y1="35.87" x2="82.53" y2="10.4" />
                <path class="cls-22" d="M78.35,3.14A10.38,10.38,0,0,0,74.16,2" />
                <path class="cls-23" d="M78.35,3.14a8.42,8.42,0,0,1,3.06,3.07" />
                <path class="cls-24" d="M81.41,6.21a8.36,8.36,0,0,1,1.12,4.19" />
                <rect class="cls-25" x="79.47" y="18.83" width="6.13" height="103.64"
                    transform="translate(165.07 141.3) rotate(-180)" />
                <rect class="cls-26" x="80.42" y="122.47" width="4.23" height="2.3"
                    transform="translate(165.07 247.25) rotate(-180)" />
                <rect class="cls-27" x="67.91" y="27.94" width="29.25" height="85.27"
                    transform="translate(165.07 141.14) rotate(-180)" />
                <rect class="cls-28" x="67.91" y="31.81" width="29.25" height="0.92"
                    transform="translate(165.07 64.54) rotate(-180)" />
                <rect class="cls-29" x="67.91" y="107.8" width="29.25" height="0.92"
                    transform="translate(165.07 216.51) rotate(-180)" />
                <path class="cls-30" d="M67.91,27.94H97.16S94,23.63,82.53,23.63,67.91,27.94,67.91,27.94Z" />
                <path class="cls-31" d="M67.91,113.21H97.16s-3.18,4.3-14.63,4.3S67.91,113.21,67.91,113.21Z" />
                <line class="cls-14" x1="84.65" y1="123.33" x2="80.42" y2="123.33" />
                <line class="cls-32" x1="74.16" y1="105.41" x2="59.54" y2="105.41" />
                <line class="cls-33" x1="82.53" y1="139.26" x2="82.53" y2="113.79" />
                <path class="cls-34" d="M78.35,106.53a10.38,10.38,0,0,0-4.19-1.12" />
                <path class="cls-35" d="M78.35,106.53a8.42,8.42,0,0,1,3.06,3.07" />
                <path class="cls-36" d="M81.41,109.6a8.39,8.39,0,0,1,1.12,4.19" />
                <rect class="cls-37" x="36.51" y="12.74" width="39.74" height="36.2" />
                <rect class="cls-38" y="146.86" width="112.76" height="3.27" />
                <rect class="cls-39" x="52.1" y="90.6" width="8.57" height="56.26" />
                <rect class="cls-40" x="50.69" y="89.88" width="11.39" height="0.72" />
                <rect class="cls-41" x="53.78" y="48.94" width="5.2" height="40.93" />
                <rect class="cls-42" x="55.25" y="72.58" width="2.27" height="8.87"
                    transform="translate(-20.63 133.4) rotate(-90)" />
                <polygon class="cls-43" points="57.52 75.9 56.38 76.65 55.25 75.9 55.25 71.23 57.52 71.23 57.52 75.9" />
                <polygon class="cls-44"
                    points="57.52 78.17 56.38 77.42 55.25 78.17 55.25 89.88 57.52 89.88 57.52 78.17" />
                <rect class="cls-45" x="54.79" y="88.56" width="3.19" height="1.31" />
                <rect class="cls-46" x="54.79" y="86.6" width="3.19" height="0.45" />
                <rect class="cls-47" x="54.79" y="81.28" width="3.19" height="0.45" />
                <rect class="cls-48" x="54.79" y="79.6" width="3.19" height="0.99" />
                <rect class="cls-49" x="49.4" y="98.16" width="13.95" height="14.5" />
                <rect class="cls-50" x="47.7" y="103.8" width="1.71" height="3.22" />
                <rect class="cls-51" x="63.36" y="103.8" width="1.71" height="3.22" />
                <rect class="cls-52" x="49.4" y="0.33" width="13.95" height="3.9" />
                <circle class="cls-53" cx="52.98" cy="2.28" r="2.16" />
                <circle class="cls-54" cx="52.98" cy="2.28" r="1.27" />
                <circle class="cls-55" cx="59.78" cy="2.28" r="2.16" />
                <circle class="cls-56" cx="59.78" cy="2.28" r="1.27" />
                <line class="cls-57" x1="56.38" y1="4.24" x2="56.38" y2="12.74" />
                <rect class="cls-58" x="50.71" y="19.1" width="11.34" height="10.67"
                    transform="translate(112.76 48.86) rotate(180)" />
                <polygon class="cls-59"
                    points="51.17 19.61 61.59 19.61 61.13 24.43 61.59 29.26 51.17 29.26 51.57 24.43 51.17 19.61" />
                <rect class="cls-60" x="52.51" y="21.93" width="7.73" height="5.01"
                    transform="translate(112.76 48.86) rotate(180)" />
                <line class="cls-61" x1="62.05" y1="29.77" x2="62.05" y2="19.1" />
                <line class="cls-62" x1="50.71" y1="19.1" x2="50.71" y2="29.77" />
                <line class="cls-61" x1="50.71" y1="19.1" x2="62.05" y2="19.1" />
                <line class="cls-62" x1="62.05" y1="29.77" x2="50.71" y2="29.77" />
                <rect class="cls-63" x="43.34" y="99.39" width="6.07" height="1.09" />
                <rect class="cls-64" x="41.68" y="98.59" width="6.02" height="2.69" />
                <rect class="cls-65" x="41.19" y="97.24" width="5.5" height="5.39" />
                <path class="cls-66" d="M41.19,102.63s-.72-.41-.72-2.7.72-2.69.72-2.69Z" />
                <rect class="cls-67" x="63.34" y="99.39" width="6.07" height="1.09"
                    transform="translate(132.75 199.87) rotate(-180)" />
                <rect class="cls-68" x="65.05" y="98.59" width="6.02" height="2.69"
                    transform="translate(136.12 199.87) rotate(-180)" />
                <rect class="cls-69" x="66.06" y="97.24" width="5.5" height="5.39" />
                <path class="cls-70" d="M71.56,102.63s.72-.41.72-2.7-.72-2.69-.72-2.69Z" />
                <rect class="cls-71" x="47.53" y="116.33" width="8.43" height="1.09"
                    transform="translate(-65.14 168.61) rotate(-90)" />
                <rect class="cls-72" x="48.73" y="118.39" width="6.02" height="2.69"
                    transform="translate(-68 171.48) rotate(-90)" />
                <rect class="cls-73" x="49.04" y="117.74" width="5.39" height="5.5" />
                <path class="cls-74" d="M54.44,123.24s-.42.72-2.7.72-2.7-.72-2.7-.72Z" />
                <rect class="cls-75" x="56.79" y="116.33" width="8.43" height="1.09"
                    transform="translate(-55.87 177.88) rotate(-90)" />
                <rect class="cls-76" x="58" y="118.39" width="6.02" height="2.69"
                    transform="translate(-58.73 180.75) rotate(-90)" />
                <rect class="cls-77" x="58.31" y="117.74" width="5.39" height="5.5" />
                <path class="cls-78" d="M58.31,123.24s.41.72,2.7.72,2.69-.72,2.69-.72Z" />
                <circle class="cls-79" cx="51.97" cy="96.77" r="1.8" />
                <path class="cls-80"
                    d="M52,95.19a1.59,1.59,0,1,1-1.58,1.58A1.58,1.58,0,0,1,52,95.19M52,95a1.8,1.8,0,1,0,1.79,1.79A1.8,1.8,0,0,0,52,95Z" />
                <circle class="cls-81" cx="51.97" cy="96.77" r="1.5" />
                <polygon class="cls-82" points="52.75 95.99 51.21 97.33 51.41 97.53 52.75 95.99" />
                <circle class="cls-83" cx="51.95" cy="96.77" r="0.22" />
                <circle class="cls-84" cx="60.79" cy="96.77" r="1.8" />
                <path class="cls-85"
                    d="M60.79,95.19a1.59,1.59,0,1,1-1.58,1.58,1.58,1.58,0,0,1,1.58-1.58m0-.21a1.8,1.8,0,1,0,1.8,1.79A1.79,1.79,0,0,0,60.79,95Z" />
                <circle class="cls-81" cx="60.79" cy="96.77" r="1.5" />
                <polygon class="cls-82" points="61.58 95.99 60.04 97.33 60.24 97.53 61.58 95.99" />
                <circle class="cls-83" cx="60.78" cy="96.77" r="0.22" />
                <rect class="cls-86" x="47.99" y="68.27" width="2.26" height="10.07" />
                <rect class="cls-87" x="47.57" y="72.67" width="3.1" height="8.26" />
                <rect class="cls-88" x="46.31" y="74.04" width="5.64" height="5.64" />
                <circle class="cls-89" cx="49.12" cy="77.2" r="1.8" />
                <path class="cls-90"
                    d="M49.12,75.62a1.58,1.58,0,1,1-1.58,1.58,1.59,1.59,0,0,1,1.58-1.58m0-.22a1.8,1.8,0,1,0,1.8,1.8,1.8,1.8,0,0,0-1.8-1.8Z" />
                <circle class="cls-81" cx="49.12" cy="77.2" r="1.5" />
                <polygon class="cls-82" points="49.91 76.41 48.37 77.75 48.57 77.95 49.91 76.41" />
                <circle class="cls-83" cx="49.11" cy="77.2" r="0.22" />
                
            </g>
        </g>
    </g>
</svg>