<svg xmlns="http://www.w3.org/2000/svg" xmlns:xlink="http://www.w3.org/1999/xlink" viewBox="0 0 150 70.94">
    <defs>
        <style>
            .cls-1 {
                fill: url(#未命名的渐变_5);
            }

            .cls-2 {
                fill: url(#未命名的渐变_5-2);
            }

            .cls-3 {
                fill: url(#未命名的渐变_5-3);
            }

            .cls-4 {
                fill: url(#未命名的渐变_5-4);
            }

            .cls-5 {
                fill: url(#未命名的渐变_5-5);
            }

            .cls-6 {
                fill: url(#未命名的渐变_5-6);
            }

            .cls-7 {
                fill: url(#未命名的渐变_5-7);
            }

            .cls-8 {
                fill: #767780;
            }

            .cls-9 {
                fill: #47484d;
            }

            .cls-10 {
                fill: #babfc5;
            }

            .cls-11,
            .cls-12 {
                fill: none;
                stroke-miterlimit: 10;
                stroke-width: 0.1px;
            }

            .cls-11 {
                stroke: #d2dae6;
            }

            .cls-12 {
                stroke: #5e6266;
            }

            .cls-13 {
                fill: #e6e6e6;
            }

            .cls-14 {
                fill: #cc543d;
            }

            .cls-15 {
                fill: url(#未命名的渐变_8);
            }

            .cls-16 {
                fill: url(#未命名的渐变_8-2);
            }

            .cls-17 {
                fill: url(#未命名的渐变_8-3);
            }

            .cls-18 {
                fill: url(#未命名的渐变_8-4);
            }

            .cls-19 {
                fill: url(#未命名的渐变_8-5);
            }

            .cls-20 {
                fill: url(#未命名的渐变_5-8);
            }

            .cls-21 {
                fill: #5e5f66;
            }

            .cls-22 {
                fill: url(#未命名的渐变_32);
            }

            .cls-23 {
                fill: url(#未命名的渐变_8-6);
            }

            .cls-24 {
                fill: url(#未命名的渐变_8-7);
            }

            .cls-25 {
                opacity: 0.2;
            }
        </style>
        <linearGradient id="未命名的渐变_5" x1="84.84" y1="-4.51" x2="46" y2="34.33" gradientUnits="userSpaceOnUse">
            <stop offset="0" stop-color="#d7dce0" />
            <stop offset="1" stop-color="#8a9099" />
        </linearGradient>
        <linearGradient id="未命名的渐变_5-2" x1="46.28" y1="4.79" x2="14.46" y2="36.61" xlink:href="#未命名的渐变_5" />
        <linearGradient id="未命名的渐变_5-3" x1="132.71" y1="-4.51" x2="93.87" y2="34.33" xlink:href="#未命名的渐变_5" />
        <linearGradient id="未命名的渐变_5-4" x1="69.29" y1="33.08" x2="40.81" y2="61.55" xlink:href="#未命名的渐变_5" />
        <linearGradient id="未命名的渐变_5-5" x1="96.41" y1="33.08" x2="67.94" y2="61.55" xlink:href="#未命名的渐变_5" />
        <linearGradient id="未命名的渐变_5-6" x1="123.54" y1="33.08" x2="95.07" y2="61.55" xlink:href="#未命名的渐变_5" />
        <linearGradient id="未命名的渐变_5-7" x1="150.67" y1="33.08" x2="122.2" y2="61.55" xlink:href="#未命名的渐变_5" />
        <linearGradient id="未命名的渐变_8" x1="55.05" y1="66.59" x2="57.76" y2="66.59" gradientUnits="userSpaceOnUse">
            <stop offset="0" stop-color="#767b82" />
            <stop offset="0.08" stop-color="#9ba1ab" />
            <stop offset="0.91" stop-color="#9ba1ab" />
            <stop offset="0.96" stop-color="#d7dce0" />
            <stop offset="0.98" stop-color="#767b82" />
        </linearGradient>
        <linearGradient id="未命名的渐变_8-2" x1="100.99" y1="66.59" x2="103.7" y2="66.59" xlink:href="#未命名的渐变_8" />
        <linearGradient id="未命名的渐变_8-3" x1="144.7" y1="66.59" x2="147.41" y2="66.59" xlink:href="#未命名的渐变_8" />
        <linearGradient id="未命名的渐变_8-4" x1="68.61" y1="17.52" x2="72.63" y2="17.52" xlink:href="#未命名的渐变_8" />
        <linearGradient id="未命名的渐变_8-5" x1="110.19" y1="17.52" x2="114.2" y2="17.52" xlink:href="#未命名的渐变_8" />
        <linearGradient id="未命名的渐变_5-8" x1="42.47" y1="30.8" x2="12.02" y2="61.25" xlink:href="#未命名的渐变_5" />
        <linearGradient id="未命名的渐变_32" x1="14.37" y1="31.19" x2="5.12" y2="40.44" gradientUnits="userSpaceOnUse">
            <stop offset="0" stop-color="#abafb3" />
            <stop offset="1" stop-color="#45484d" />
        </linearGradient>
        <linearGradient id="未命名的渐变_8-6" x1="13" y1="53.43" x2="15.05" y2="53.43" xlink:href="#未命名的渐变_8" />
        <linearGradient id="未命名的渐变_8-7" x1="32.27" y1="53.43" x2="34.33" y2="53.43" xlink:href="#未命名的渐变_8" />
    </defs>
    <title>Oven system(烘箱系统)</title>
    <g id="图层_2" data-name="图层 2">
        <g id="图层_6" data-name="图层 6">
            <g id="Oven_system_烘箱系统_" data-name="Oven system(烘箱系统)">
                <rect class="cls-1" x="41.49" width="47.87" height="29.81" />
                <polygon class="cls-2" points="41.49 0 41.49 29.82 7.66 29.82 7.66 23.17 35.13 23.17 35.13 0 41.49 0" />
                <rect class="cls-3" x="89.36" width="47.87" height="29.81" />
                <rect class="cls-4" x="41.49" y="32.41" width="27.13" height="29.81" />
                <rect class="cls-5" x="68.61" y="32.41" width="27.13" height="29.81" />
                <rect class="cls-6" x="95.74" y="32.41" width="27.13" height="29.81" />
                <rect class="cls-7" x="122.87" y="32.41" width="27.13" height="29.81" />
                <rect class="cls-8" x="41.49" y="29.82" width="108.51" height="2.59" />
                <rect class="cls-9" x="13" y="62.23" width="137" height="2.59" />
                <rect class="cls-10" x="127.22" y="13.97" width="20.01" height="7.75"
                    transform="translate(274.46 35.7) rotate(180)" />
                <line class="cls-11" x1="147.23" y1="21.73" x2="147.23" y2="13.97" />
                <line class="cls-12" x1="127.22" y1="13.97" x2="127.22" y2="21.73" />
                <line class="cls-11" x1="127.22" y1="13.97" x2="147.23" y2="13.97" />
                <line class="cls-12" x1="147.23" y1="21.73" x2="127.22" y2="21.73" />
                <rect class="cls-13" x="90.7" y="45.01" width="10.09" height="4.61" />
                <rect class="cls-14" x="91.53" y="46.89" width="8.43" height="0.27" />
                <rect class="cls-15" x="55.05" y="62.23" width="2.71" height="8.72" />
                <rect class="cls-16" x="100.99" y="62.23" width="2.71" height="8.72" />
                <rect class="cls-17" x="144.7" y="62.23" width="2.71" height="8.72" />
                <line class="cls-11" x1="59.32" y1="17.85" x2="120.95" y2="17.85" />
                <line class="cls-12" x1="120.95" y1="17.2" x2="59.32" y2="17.2" />
                <line class="cls-11" x1="69.27" y1="62.23" x2="69.27" y2="32.41" />
                <line class="cls-12" x1="68.61" y1="32.41" x2="68.61" y2="62.23" />
                <line class="cls-11" x1="123.52" y1="62.23" x2="123.52" y2="32.41" />
                <line class="cls-12" x1="122.87" y1="32.41" x2="122.87" y2="62.23" />
                <rect class="cls-18" x="68.61" y="3.93" width="4.01" height="27.18" />
                <rect class="cls-19" x="110.19" y="3.93" width="4.01" height="27.18" />
                <rect class="cls-20" x="13" y="29.82" width="28.49" height="32.41" />
                <rect class="cls-21" x="15.05" y="35.92" width="24.02" height="23.56" />
                <polygon class="cls-22" points="13 48.32 6.86 35.44 0 33.92 0 29.82 13 29.82 13 48.32" />
                <rect class="cls-23" x="13" y="35.92" width="2.05" height="35.03" />
                <rect class="cls-24" x="32.27" y="35.92" width="2.05" height="35.03" />
                
            </g>
        </g>
    </g>
</svg>