<svg xmlns="http://www.w3.org/2000/svg" xmlns:xlink="http://www.w3.org/1999/xlink" viewBox="0 0 49.75 150">
    <defs>
        <style>
            .cls-1 {
                fill: #858a8f;
            }

            .cls-2 {
                opacity: 0.5;
                fill: url(#未命名的渐变_311);
            }

            .cls-3 {
                fill: #b6bdc4;
            }

            .cls-4 {
                fill: url(#未命名的渐变_321);
            }

            .cls-5 {
                fill: url(#未命名的渐变_321-2);
            }

            .cls-6 {
                fill: url(#未命名的渐变_321-3);
            }

            .cls-7 {
                fill: url(#未命名的渐变_321-4);
            }

            .cls-8 {
                fill: url(#未命名的渐变_321-5);
            }

            .cls-9 {
                opacity: 0.2;
            }
        </style>
        <linearGradient id="未命名的渐变_311" x1="1.19" y1="81.06" x2="48.56" y2="81.06" gradientUnits="userSpaceOnUse">
            <stop offset="0" stop-color="#61666b" />
            <stop offset="0.09" stop-color="#7f848a" />
            <stop offset="0.19" stop-color="#9aa0a7" />
            <stop offset="0.3" stop-color="#aeb5bb" />
            <stop offset="0.4" stop-color="#bac1c8" />
            <stop offset="0.5" stop-color="#bec5cc" />
            <stop offset="0.93" stop-color="#9ba1ab" />
            <stop offset="1" stop-color="#767b82" />
        </linearGradient>
        <linearGradient id="未命名的渐变_321" x1="1.2" y1="93.06" x2="48.56" y2="93.06" gradientUnits="userSpaceOnUse">
            <stop offset="0" stop-color="#fff" stop-opacity="0" />
            <stop offset="0.11" stop-color="#fff" stop-opacity="0.2" />
            <stop offset="0.24" stop-color="#fff" stop-opacity="0.41" />
            <stop offset="0.37" stop-color="#fff" stop-opacity="0.59" />
            <stop offset="0.5" stop-color="#fff" stop-opacity="0.74" />
            <stop offset="0.63" stop-color="#fff" stop-opacity="0.85" />
            <stop offset="0.75" stop-color="#fff" stop-opacity="0.93" />
            <stop offset="0.88" stop-color="#fff" stop-opacity="0.98" />
            <stop offset="1" stop-color="#fff" />
        </linearGradient>
        <linearGradient id="未命名的渐变_321-2" x1="1.2" y1="100.11" x2="48.56" y2="100.11" xlink:href="#未命名的渐变_321" />
        <linearGradient id="未命名的渐变_321-3" x1="1.2" y1="107.16" x2="48.56" y2="107.16" xlink:href="#未命名的渐变_321" />
        <linearGradient id="未命名的渐变_321-4" x1="1.2" y1="114.21" x2="48.56" y2="114.21" xlink:href="#未命名的渐变_321" />
        <linearGradient id="未命名的渐变_321-5" x1="1.2" y1="120.7" x2="48.56" y2="120.7" xlink:href="#未命名的渐变_321" />
    </defs>
    <title>Plastic bottle(塑料瓶)</title>
    <g id="图层_2" data-name="图层 2">
        <g id="图层_6" data-name="图层 6">
            <g id="Plastic_bottle_塑料瓶_" data-name="Plastic bottle(塑料瓶)">
                <path class="cls-1"
                    d="M49.75,92.8V51.3c0-14.63-15.16-29.25-15.16-29.25h0V12.12H15.2v9.93h0S0,36.67,0,51.3V92.8l.86,1.39v2.26L0,97.84v1.92l.86,1.38v2.27L0,104.79v1.92l.86,1.39v2.26L0,111.75v1.92l.86,1.38v2.28L0,118.7v1.92L.86,122v2.27L0,125.67v14.72A9.61,9.61,0,0,0,9.61,150H40.14a9.61,9.61,0,0,0,9.61-9.61V125.67l-.86-1.39V122l.86-1.39V118.7l-.86-1.37v-2.28l.86-1.38v-1.92l-.86-1.39V108.1l.86-1.39v-1.92l-.86-1.38v-2.27l.86-1.38V97.84l-.86-1.39V94.19Zm-1.19-.62-.9,1.39v3.5l.9,1.39v.68l-.9,1.39V104l.9,1.39v.69l-.9,1.39V111l.9,1.39v.69l-.9,1.39v3.48l.9,1.39V120l-.9,1.39v3.49l.9,1.39v14.11a7.64,7.64,0,0,1-7.79,7.48H9a7.63,7.63,0,0,1-7.78-7.48V126.28l.89-1.39V121.4L1.2,120v-.69l.89-1.39v-3.48l-.89-1.39v-.69L2.09,111v-3.49L1.2,106.1v-.69L2.09,104v-3.49L1.2,99.14v-.68l.89-1.39v-3.5L1.2,92.18V51.3C1.2,39.33,17,22.05,17,22.05v-7.8H32.74v7.91S48.56,39.35,48.56,51.3Z" />
                <path class="cls-2"
                    d="M9,147.87a7.64,7.64,0,0,1-7.79-7.48V126.28l.91-1.39V121.4L1.19,120v-.69l.91-1.39v-3.49l-.91-1.38v-.7L2.1,111v-3.49l-.91-1.39v-.69L2.1,104v-3.49l-.91-1.39v-.69l.91-1.38V93.58l-.91-1.39V51.3C1.19,39.33,17,22.05,17,22.05v-7.8H32.73v7.91S48.56,39.35,48.56,51.3V92.19l-.9,1.39v3.49l.9,1.38v.69l-.9,1.39V104l.9,1.39v.69l-.9,1.39V111l.9,1.38v.7l-.9,1.38v3.49l.9,1.39V120l-.9,1.39v3.49l.9,1.39v14.11a7.64,7.64,0,0,1-7.79,7.48Z" />
                <rect class="cls-3" x="14.43" y="13.26" width="20.89" height="2.91" />
                <path class="cls-3" d="M35.32,12.12H14.43V1.82S16.88,0,24.88,0,35.32,1.82,35.32,1.82Z" />
                <rect class="cls-3" y="51.3" width="49.75" height="35.59" />
                <polygon class="cls-4" points="48.56 92.18 1.2 92.18 2.1 93.94 47.66 93.94 48.56 92.18" />
                <polygon class="cls-5" points="48.56 99.22 1.2 99.22 2.1 100.99 47.66 100.99 48.56 99.22" />
                <polygon class="cls-6" points="48.56 106.28 1.2 106.28 2.1 108.04 47.66 108.04 48.56 106.28" />
                <polygon class="cls-7" points="48.56 113.32 1.2 113.32 2.1 115.09 47.66 115.09 48.56 113.32" />
                <polygon class="cls-8" points="48.56 119.81 1.2 119.81 2.1 121.58 47.66 121.58 48.56 119.81" />
               
            </g>
        </g>
    </g>
</svg>