<svg xmlns="http://www.w3.org/2000/svg" xmlns:xlink="http://www.w3.org/1999/xlink" viewBox="0 0 150 150">
    <defs>
        <style>
            .cls-1 {
                fill: url(#未命名的渐变_3);
            }

            .cls-2 {
                fill: url(#未命名的渐变_3-2);
            }

            .cls-3 {
                fill: url(#未命名的渐变_197);
            }

            .cls-4 {
                fill: url(#未命名的渐变_197-2);
            }

            .cls-5 {
                fill: url(#未命名的渐变_197-3);
            }

            .cls-6 {
                fill: url(#未命名的渐变_210);
            }

            .cls-7 {
                opacity: 0.6;
                fill: url(#未命名的渐变_34);
            }

            .cls-8 {
                fill: url(#未命名的渐变_197-4);
            }

            .cls-10,
            .cls-9 {
                opacity: 0.3;
            }

            .cls-9 {
                fill: url(#未命名的渐变_34-2);
            }

            .cls-10 {
                fill: url(#未命名的渐变_211);
            }

            .cls-11 {
                fill: url(#未命名的渐变_197-5);
            }

            .cls-12 {
                fill: url(#未命名的渐变_197-6);
            }

            .cls-13 {
                fill: url(#未命名的渐变_195);
            }

            .cls-14 {
                fill: url(#未命名的渐变_3-3);
            }

            .cls-15 {
                fill: url(#未命名的渐变_3-4);
            }

            .cls-16 {
                fill: url(#未命名的渐变_3-5);
            }

            .cls-17,
            .cls-18 {
                fill: none;
                stroke-miterlimit: 10;
                stroke-width: 0.25px;
            }

            .cls-17 {
                stroke: #898f99;
            }

            .cls-18 {
                stroke: #a0a7b3;
            }

            .cls-19 {
                opacity: 0.2;
            }
        </style>
        <linearGradient id="未命名的渐变_3" x1="-154.88" y1="-82.16" x2="-154.88" y2="-91.64"
            gradientTransform="translate(208.25 204.13)" gradientUnits="userSpaceOnUse">
            <stop offset="0" stop-color="#767b82" />
            <stop offset="0.08" stop-color="#9ba1ab" />
            <stop offset="0.91" stop-color="#9ba1ab" />
            <stop offset="0.96" stop-color="#d7dce0" />
            <stop offset="0.98" stop-color="#767b82" />
        </linearGradient>
        <linearGradient id="未命名的渐变_3-2" x1="-154.88" y1="-159.06" x2="-154.88" y2="-168.54"
            gradientTransform="translate(285.15 281.03)" xlink:href="#未命名的渐变_3" />
        <linearGradient id="未命名的渐变_197" x1="-213.85" y1="227.76" x2="-193.68" y2="227.76"
            gradientTransform="translate(213.85 -208.64)" gradientUnits="userSpaceOnUse">
            <stop offset="0" stop-color="#a9b1bb" />
            <stop offset="0.09" stop-color="#61666b" />
            <stop offset="0.18" stop-color="#696e73" />
            <stop offset="0.32" stop-color="#7e8489" />
            <stop offset="0.49" stop-color="#a1a7ae" />
            <stop offset="0.69" stop-color="#d1d8e0" />
            <stop offset="0.75" stop-color="#e2eaf2" />
            <stop offset="0.93" stop-color="#9ba1ab" />
            <stop offset="1" stop-color="#767b82" />
        </linearGradient>
        <linearGradient id="未命名的渐变_197-2" x1="36.03" y1="15.7" x2="147.6" y2="15.7"
            gradientTransform="matrix(1, 0, 0, 1, 0, 0)" xlink:href="#未命名的渐变_197" />
        <linearGradient id="未命名的渐变_197-3" x1="33.63" y1="30.07" x2="150" y2="30.07"
            gradientTransform="matrix(1, 0, 0, 1, 0, 0)" xlink:href="#未命名的渐变_197" />
        <linearGradient id="未命名的渐变_210" x1="63.92" y1="3.52" x2="119.71" y2="59.3" gradientUnits="userSpaceOnUse">
            <stop offset="0" stop-color="#63686e" />
            <stop offset="0.09" stop-color="#17181a" />
            <stop offset="0.18" stop-color="#1f2022" />
            <stop offset="0.32" stop-color="#343638" />
            <stop offset="0.49" stop-color="#56595d" />
            <stop offset="0.69" stop-color="#858a8f" />
            <stop offset="0.76" stop-color="#989ea3" />
            <stop offset="0.93" stop-color="#56595e" />
            <stop offset="1" stop-color="#45484d" />
        </linearGradient>
        <linearGradient id="未命名的渐变_34" x1="91.82" y1="38.64" x2="91.82" y2="31.41" gradientUnits="userSpaceOnUse">
            <stop offset="0" stop-color="#9ba1ab" stop-opacity="0" />
            <stop offset="1" stop-color="#2e3033" />
        </linearGradient>
        <linearGradient id="未命名的渐变_197-4" x1="52.64" y1="65.01" x2="130.99" y2="65.01"
            gradientTransform="matrix(1, 0, 0, 1, 0, 0)" xlink:href="#未命名的渐变_197" />
        <linearGradient id="未命名的渐变_34-2" x1="91.82" y1="58.36" x2="91.82" y2="48.41" xlink:href="#未命名的渐变_34" />
        <linearGradient id="未命名的渐变_211" x1="91.82" y1="83.04" x2="91.82" y2="73.33" gradientUnits="userSpaceOnUse">
            <stop offset="0" stop-color="#2e3033" />
            <stop offset="1" stop-color="#9ba1ab" stop-opacity="0" />
        </linearGradient>
        <linearGradient id="未命名的渐变_197-5" x1="48.63" y1="46.98" x2="135.01" y2="46.98"
            gradientTransform="matrix(1, 0, 0, 1, 0, 0)" xlink:href="#未命名的渐变_197" />
        <linearGradient id="未命名的渐变_197-6" x1="48.63" y1="84.47" x2="135.01" y2="84.47"
            gradientTransform="matrix(1, 0, 0, 1, 0, 0)" xlink:href="#未命名的渐变_197" />
        <linearGradient id="未命名的渐变_195" x1="-251.79" y1="232.2" x2="-193.68" y2="232.2"
            gradientTransform="translate(251.79 -217.51)" gradientUnits="userSpaceOnUse">
            <stop offset="0" stop-color="#a9b1bb" />
            <stop offset="0.09" stop-color="#a2aab3" />
            <stop offset="0.66" stop-color="#a2a8b3" />
            <stop offset="0.9" stop-color="#e2eaf2" />
            <stop offset="1" stop-color="#767b82" />
        </linearGradient>
        <linearGradient id="未命名的渐变_3-3" x1="91.82" y1="92.49" x2="91.82" y2="85.89"
            gradientTransform="matrix(1, 0, 0, 1, 0, 0)" xlink:href="#未命名的渐变_3" />
        <linearGradient id="未命名的渐变_3-4" x1="67.3" y1="106.87" x2="67.3" y2="92.49"
            gradientTransform="matrix(1, 0, 0, 1, 0, 0)" xlink:href="#未命名的渐变_3" />
        <linearGradient id="未命名的渐变_3-5" x1="60.73" y1="106.87" x2="60.73" y2="92.49"
            gradientTransform="matrix(-1, 0, 0, 1, 177.06, 0)" xlink:href="#未命名的渐变_3" />
    </defs>
    <title>Screen separator(筛网分离器)</title>
    <g id="图层_2" data-name="图层 2">
        <g id="图层_6" data-name="图层 6">
            <g id="Screen_separator_筛网分离器_" data-name="Screen separator(筛网分离器)">
                <rect class="cls-1" x="20.6" y="112.49" width="65.53" height="9.48"
                    transform="translate(170.6 63.87) rotate(90)" />
                <rect class="cls-2" x="97.5" y="112.49" width="65.53" height="9.48"
                    transform="translate(247.5 -13.03) rotate(90)" />
                <rect class="cls-3" y="6.84" width="20.17" height="24.57"
                    transform="translate(20.17 38.24) rotate(180)" />
                <rect class="cls-4" x="36.03" width="111.57" height="31.41" />
                <rect class="cls-5" x="33.63" y="28.74" width="116.37" height="2.67" />
                <polygon class="cls-6" points="108.83 59.16 74.8 59.16 36.03 31.41 147.6 31.41 108.83 59.16" />
                <polygon class="cls-7" points="147.61 31.41 137.5 38.64 46.14 38.64 36.03 31.41 147.61 31.41" />
                <rect class="cls-8" x="52.64" y="45.55" width="78.35" height="38.91" />
                <rect class="cls-9" x="52.64" y="48.41" width="78.35" height="9.95" />
                <rect class="cls-10" x="52.64" y="73.33" width="78.35" height="9.71" />
                <rect class="cls-11" x="48.63" y="45.55" width="86.38" height="2.85" />
                <rect class="cls-12" x="48.63" y="83.04" width="86.38" height="2.85" />
                <rect class="cls-13" y="4.65" width="58.11" height="20.07"
                    transform="translate(58.11 29.37) rotate(180)" />
                <rect class="cls-14" x="58.11" y="85.89" width="67.42" height="6.6" />
                <polygon class="cls-15" points="58.11 106.87 58.11 92.49 76.5 92.49 58.11 106.87" />
                <polygon class="cls-16" points="125.53 106.87 125.53 92.49 107.14 92.49 125.53 106.87" />
                <path class="cls-17"
                    d="M58.48,31.41c0,.54-4,.54-4,1.08s4,.54,4,1.08-4,.55-4,1.09,4,.54,4,1.09-4,.54-4,1.08,4,.55,4,1.09-4,.55-4,1.09,4,.54,4,1.09-4,.54-4,1.08,4,.55,4,1.09-4,.55-4,1.1,4,.54,4,1.09-4,.55-4,1.09" />
                <path class="cls-17"
                    d="M81.9,31.41c0,.54-4,.54-4,1.08s4,.54,4,1.08-4,.55-4,1.09,4,.54,4,1.09-4,.54-4,1.08,4,.55,4,1.09-4,.55-4,1.09,4,.54,4,1.09-4,.54-4,1.08,4,.55,4,1.09-4,.55-4,1.1,4,.54,4,1.09-4,.55-4,1.09" />
                <path class="cls-18"
                    d="M105.31,31.41c0,.54-4,.54-4,1.08s4,.54,4,1.08-4,.55-4,1.09,4,.54,4,1.09-4,.54-4,1.08,4,.55,4,1.09-4,.55-4,1.09,4,.54,4,1.09-4,.54-4,1.08,4,.55,4,1.09-4,.55-4,1.1,4,.54,4,1.09-4,.55-4,1.09" />
                <path class="cls-18"
                    d="M128.73,31.41c0,.54-4,.54-4,1.08s4,.54,4,1.08-4,.55-4,1.09,4,.54,4,1.09-4,.54-4,1.08,4,.55,4,1.09-4,.55-4,1.09,4,.54,4,1.09-4,.54-4,1.08,4,.55,4,1.09-4,.55-4,1.1,4,.54,4,1.09-4,.55-4,1.09" />
              
            </g>
        </g>
    </g>
</svg>