<svg xmlns="http://www.w3.org/2000/svg" xmlns:xlink="http://www.w3.org/1999/xlink" viewBox="0 0 117.1 150">
    <defs>
        <style>
            .cls-1 {
                fill: url(#未命名的渐变_173);
            }

            .cls-2 {
                fill: none;
                stroke: #fff;
                stroke-miterlimit: 10;
                stroke-width: 0.25px;
            }

            .cls-2,
            .cls-9 {
                opacity: 0.5;
            }

            .cls-3 {
                fill: url(#未命名的渐变_173-2);
            }

            .cls-4 {
                fill: url(#未命名的渐变_121);
            }

            .cls-5 {
                fill: #252628;
            }

            .cls-6 {
                fill: url(#未命名的渐变_121-2);
            }

            .cls-7 {
                fill: url(#未命名的渐变_121-3);
            }

            .cls-8 {
                fill: url(#未命名的渐变_121-4);
            }

            .cls-9 {
                fill: #fff;
            }

            .cls-10 {
                fill: url(#未命名的渐变_13);
            }

            .cls-11 {
                fill: url(#未命名的渐变_121-5);
            }

            .cls-12,
            .cls-15 {
                opacity: 0.6;
            }

            .cls-12 {
                fill: url(#未命名的渐变_209);
            }

            .cls-13 {
                fill: url(#未命名的渐变_121-6);
            }

            .cls-14 {
                fill: url(#未命名的渐变_33);
            }

            .cls-16 {
                fill: url(#未命名的渐变_3);
            }

            .cls-17 {
                fill: url(#未命名的渐变_3-2);
            }

            .cls-18 {
                fill: url(#未命名的渐变_47);
            }

            .cls-19 {
                fill: url(#未命名的渐变_3-3);
            }

            .cls-20 {
                fill: url(#未命名的渐变_3-4);
            }

            .cls-21 {
                fill: url(#未命名的渐变_13-2);
            }

            .cls-22 {
                fill: url(#未命名的渐变_39);
            }

            .cls-23 {
                fill: #bac2c9;
            }

            .cls-24 {
                fill: url(#未命名的渐变_114);
            }

            .cls-25 {
                fill: url(#未命名的渐变_85);
            }

            .cls-26 {
                fill: url(#未命名的渐变_271);
            }

            .cls-27 {
                fill: url(#未命名的渐变_270);
            }

            .cls-28 {
                fill: url(#未命名的渐变_269);
            }

            .cls-29 {
                fill: url(#未命名的渐变_268);
            }

            .cls-30 {
                fill: url(#未命名的渐变_267);
            }

            .cls-31 {
                fill: url(#未命名的渐变_266);
            }

            .cls-32 {
                fill: url(#未命名的渐变_265);
            }

            .cls-33 {
                fill: url(#未命名的渐变_264);
            }

            .cls-34 {
                fill: url(#未命名的渐变_263);
            }

            .cls-35 {
                fill: url(#未命名的渐变_262);
            }

            .cls-36 {
                fill: url(#未命名的渐变_261);
            }

            .cls-37 {
                fill: url(#未命名的渐变_260);
            }

            .cls-38 {
                fill: url(#未命名的渐变_259);
            }

            .cls-39 {
                fill: url(#未命名的渐变_258);
            }

            .cls-40 {
                fill: url(#未命名的渐变_257);
            }

            .cls-41 {
                fill: url(#未命名的渐变_256);
            }

            .cls-42 {
                fill: url(#未命名的渐变_255);
            }

            .cls-43 {
                fill: url(#未命名的渐变_254);
            }

            .cls-44 {
                fill: url(#未命名的渐变_253);
            }

            .cls-45 {
                fill: url(#未命名的渐变_252);
            }

            .cls-46 {
                fill: #5d6166;
            }

            .cls-47 {
                opacity: 0.2;
            }
        </style>
        <linearGradient id="未命名的渐变_173" y1="118.22" x2="13.63" y2="118.22" gradientUnits="userSpaceOnUse">
            <stop offset="0" stop-color="#767b82" />
            <stop offset="0.01" stop-color="#5c6066" />
            <stop offset="0.88" stop-color="#7a7d80" />
            <stop offset="0.94" stop-color="#767b82" />
            <stop offset="1" stop-color="#b9c0cc" />
        </linearGradient>
        <linearGradient id="未命名的渐变_173-2" x1="31.76" y1="137.63" x2="31.76" y2="126.66" xlink:href="#未命名的渐变_173" />
        <linearGradient id="未命名的渐变_121" x1="-696.8" y1="-153.11" x2="-668.69" y2="-153.11"
            gradientTransform="translate(710.43 250.62)" gradientUnits="userSpaceOnUse">
            <stop offset="0" stop-color="#a9b1bb" />
            <stop offset="0.09" stop-color="#61666b" />
            <stop offset="0.18" stop-color="#696e73" />
            <stop offset="0.32" stop-color="#7e8489" />
            <stop offset="0.49" stop-color="#a1a7ae" />
            <stop offset="0.69" stop-color="#d1d8e0" />
            <stop offset="0.75" stop-color="#e2eaf2" />
            <stop offset="0.93" stop-color="#9ba1ab" />
            <stop offset="1" stop-color="#767b82" />
        </linearGradient>
        <linearGradient id="未命名的渐变_121-2" x1="24.17" y1="78.83" x2="31.2" y2="66.65"
            gradientTransform="matrix(1, 0, 0, 1, 0, 0)" xlink:href="#未命名的渐变_121" />
        <linearGradient id="未命名的渐变_121-3" x1="21.92" y1="67.77" x2="33.52" y2="67.77"
            gradientTransform="matrix(1, 0, 0, 1, 0, 0)" xlink:href="#未命名的渐变_121" />
        <linearGradient id="未命名的渐变_121-4" x1="54.57" y1="55.58" x2="117.1" y2="55.58"
            gradientTransform="matrix(1, 0, 0, 1, 0, 0)" xlink:href="#未命名的渐变_121" />
        <linearGradient id="未命名的渐变_13" x1="75.45" y1="46.71" x2="97.12" y2="15.76" gradientUnits="userSpaceOnUse">
            <stop offset="0" stop-color="#a9b1bb" />
            <stop offset="0.09" stop-color="#61666b" />
            <stop offset="0.18" stop-color="#696e73" />
            <stop offset="0.31" stop-color="#7e8489" />
            <stop offset="0.46" stop-color="#a1a7ae" />
            <stop offset="0.65" stop-color="#d1d8e0" />
            <stop offset="0.7" stop-color="#e2eaf2" />
            <stop offset="0.93" stop-color="#9ba1ab" />
            <stop offset="1" stop-color="#767b82" />
        </linearGradient>
        <linearGradient id="未命名的渐变_121-5" x1="63.39" y1="66.49" x2="105.34" y2="95.86"
            gradientTransform="matrix(1, 0, 0, 1, 0, 0)" xlink:href="#未命名的渐变_121" />
        <linearGradient id="未命名的渐变_209" x1="85.83" y1="97.22" x2="85.83" y2="79.08" gradientUnits="userSpaceOnUse">
            <stop offset="0" stop-color="#2e3033" />
            <stop offset="1" stop-color="#9ba1ab" stop-opacity="0" />
        </linearGradient>
        <linearGradient id="未命名的渐变_121-6" x1="71.55" y1="120.65" x2="100.12" y2="120.65"
            gradientTransform="matrix(1, 0, 0, 1, 0, 0)" xlink:href="#未命名的渐变_121" />
        <linearGradient id="未命名的渐变_33" x1="71.55" y1="140.26" x2="100.12" y2="140.26" gradientUnits="userSpaceOnUse">
            <stop offset="0" stop-color="#7a8088" />
            <stop offset="0.09" stop-color="#2d2f33" />
            <stop offset="0.16" stop-color="#35373b" />
            <stop offset="0.26" stop-color="#4a4d51" />
            <stop offset="0.39" stop-color="#6d7176" />
            <stop offset="0.53" stop-color="#9da3a8" />
            <stop offset="0.59" stop-color="#b0b7bc" />
            <stop offset="0.93" stop-color="#6d7177" />
            <stop offset="1" stop-color="#5c6067" />
        </linearGradient>
        <linearGradient id="未命名的渐变_3" x1="85.83" y1="103.22" x2="85.83" y2="97.28" gradientUnits="userSpaceOnUse">
            <stop offset="0" stop-color="#767b82" />
            <stop offset="0.08" stop-color="#9ba1ab" />
            <stop offset="0.91" stop-color="#9ba1ab" />
            <stop offset="0.96" stop-color="#d7dce0" />
            <stop offset="0.98" stop-color="#767b82" />
        </linearGradient>
        <linearGradient id="未命名的渐变_3-2" x1="52.68" y1="136.45" x2="52.68" y2="130.51" xlink:href="#未命名的渐变_3" />
        <linearGradient id="未命名的渐变_47" y1="123.71" x2="64.68" y2="123.71" gradientUnits="userSpaceOnUse">
            <stop offset="0" stop-color="#767b82" />
            <stop offset="0.02" stop-color="#9ba1ab" />
            <stop offset="1" stop-color="#767b82" />
        </linearGradient>
        <linearGradient id="未命名的渐变_3-3" x1="65.5" y1="129.99" x2="65.5" y2="124.04"
            gradientTransform="translate(-1.73 -12.48)" xlink:href="#未命名的渐变_3" />
        <linearGradient id="未命名的渐变_3-4" x1="65.5" y1="85.84" x2="65.5" y2="79.9"
            gradientTransform="translate(42.41 31.67)" xlink:href="#未命名的渐变_3" />
        <linearGradient id="未命名的渐变_13-2" x1="86.46" y1="22.62" x2="107.65" y2="22.62"
            gradientTransform="matrix(0.99, 0.16, -0.13, 0.81, 3.98, -6.1)" xlink:href="#未命名的渐变_13" />
        <linearGradient id="未命名的渐变_39" x1="86.79" y1="23.76" x2="107.72" y2="27.06" gradientUnits="userSpaceOnUse">
            <stop offset="0" stop-color="#dce1e6" />
            <stop offset="1" stop-color="#5c6066" />
        </linearGradient>
        <linearGradient id="未命名的渐变_114" x1="99.06" y1="2" x2="111" y2="13.94"
            gradientTransform="translate(116.58 -92.99) rotate(90)" gradientUnits="userSpaceOnUse">
            <stop offset="0" stop-color="#b8c0cc" />
            <stop offset="1" stop-color="#dce1e6" />
        </linearGradient>
        <linearGradient id="未命名的渐变_85" x1="99.41" y1="2.31" x2="110.22" y2="13.12"
            gradientTransform="translate(116.18 -93.08) rotate(90)" gradientUnits="userSpaceOnUse">
            <stop offset="0" stop-color="#8a9099" />
            <stop offset="1" stop-color="#dce1e6" />
        </linearGradient>
        <linearGradient id="未命名的渐变_271" x1="99.9" y1="2.62" x2="110.37" y2="13.09"
            gradientTransform="translate(115.11 -93.3) rotate(89.29)" gradientUnits="userSpaceOnUse">
            <stop offset="0" stop-color="#888e97" />
            <stop offset="1" stop-color="#d6dbe0" />
        </linearGradient>
        <linearGradient id="未命名的渐变_270" x1="100.38" y1="2.94" x2="110.51" y2="13.08"
            gradientTransform="matrix(0.02, 1, -1, 0.02, 114.04, -93.51)" gradientUnits="userSpaceOnUse">
            <stop offset="0" stop-color="#868c94" />
            <stop offset="1" stop-color="#d0d5da" />
        </linearGradient>
        <linearGradient id="未命名的渐变_269" x1="100.85" y1="3.27" x2="110.65" y2="13.07"
            gradientTransform="matrix(0.04, 1, -1, 0.04, 112.97, -93.73)" gradientUnits="userSpaceOnUse">
            <stop offset="0" stop-color="#848992" />
            <stop offset="1" stop-color="#cacfd4" />
        </linearGradient>
        <linearGradient id="未命名的渐变_268" x1="101.32" y1="3.61" x2="110.79" y2="13.07"
            gradientTransform="translate(111.9 -93.94) rotate(87.16) scale(0.99)" gradientUnits="userSpaceOnUse">
            <stop offset="0" stop-color="#81878f" />
            <stop offset="1" stop-color="#c4c9ce" />
        </linearGradient>
        <linearGradient id="未命名的渐变_267" x1="101.79" y1="3.95" x2="110.93" y2="13.08"
            gradientTransform="matrix(0.06, 0.99, -0.99, 0.06, 110.83, -94.16)" gradientUnits="userSpaceOnUse">
            <stop offset="0" stop-color="#7f858d" />
            <stop offset="1" stop-color="#bec3c8" />
        </linearGradient>
        <linearGradient id="未命名的渐变_266" x1="102.25" y1="4.29" x2="111.06" y2="13.11"
            gradientTransform="matrix(0.07, 0.99, -0.99, 0.07, 109.76, -94.37)" gradientUnits="userSpaceOnUse">
            <stop offset="0" stop-color="#7d838a" />
            <stop offset="1" stop-color="#b8bcc1" />
        </linearGradient>
        <linearGradient id="未命名的渐变_265" x1="102.71" y1="4.65" x2="111.19" y2="13.14"
            gradientTransform="matrix(0.09, 0.99, -0.99, 0.09, 108.7, -94.59)" gradientUnits="userSpaceOnUse">
            <stop offset="0" stop-color="#7b8088" />
            <stop offset="1" stop-color="#b2b6bb" />
        </linearGradient>
        <linearGradient id="未命名的渐变_264" x1="103.15" y1="5.01" x2="111.32" y2="13.18"
            gradientTransform="matrix(0.1, 0.99, -0.99, 0.1, 107.63, -94.8)" gradientUnits="userSpaceOnUse">
            <stop offset="0" stop-color="#797e86" />
            <stop offset="1" stop-color="#acb0b5" />
        </linearGradient>
        <linearGradient id="未命名的渐变_263" x1="103.59" y1="5.37" x2="111.45" y2="13.23"
            gradientTransform="translate(106.56 -95.02) rotate(83.58) scale(0.99)" gradientUnits="userSpaceOnUse">
            <stop offset="0" stop-color="#777c83" />
            <stop offset="1" stop-color="#a6aaaf" />
        </linearGradient>
        <linearGradient id="未命名的渐变_262" x1="104.03" y1="5.74" x2="111.57" y2="13.28"
            gradientTransform="translate(105.49 -95.24) rotate(82.86) scale(0.99)" gradientUnits="userSpaceOnUse">
            <stop offset="0" stop-color="#757a81" />
            <stop offset="1" stop-color="#a0a4a9" />
        </linearGradient>
        <linearGradient id="未命名的渐变_261" x1="104.46" y1="6.11" x2="111.7" y2="13.35"
            gradientTransform="translate(104.42 -95.45) rotate(82.14) scale(0.99)" gradientUnits="userSpaceOnUse">
            <stop offset="0" stop-color="#72777e" />
            <stop offset="1" stop-color="#999ea3" />
        </linearGradient>
        <linearGradient id="未命名的渐变_260" x1="104.87" y1="6.49" x2="111.81" y2="13.43"
            gradientTransform="translate(103.35 -95.67) rotate(81.42) scale(0.99)" gradientUnits="userSpaceOnUse">
            <stop offset="0" stop-color="#70757c" />
            <stop offset="1" stop-color="#93989d" />
        </linearGradient>
        <linearGradient id="未命名的渐变_259" x1="105.28" y1="6.87" x2="111.93" y2="13.52"
            gradientTransform="translate(102.28 -95.88) rotate(80.7) scale(0.99)" gradientUnits="userSpaceOnUse">
            <stop offset="0" stop-color="#6e7379" />
            <stop offset="1" stop-color="#8d9297" />
        </linearGradient>
        <linearGradient id="未命名的渐变_258" x1="105.68" y1="7.26" x2="112.04" y2="13.61"
            gradientTransform="translate(101.21 -96.1) rotate(79.99) scale(0.99)" gradientUnits="userSpaceOnUse">
            <stop offset="0" stop-color="#6c7177" />
            <stop offset="1" stop-color="#878c91" />
        </linearGradient>
        <linearGradient id="未命名的渐变_257" x1="106.08" y1="7.64" x2="112.15" y2="13.71"
            gradientTransform="matrix(0.18, 0.98, -0.98, 0.18, 100.14, -96.31)" gradientUnits="userSpaceOnUse">
            <stop offset="0" stop-color="#6a6e75" />
            <stop offset="1" stop-color="#81868b" />
        </linearGradient>
        <linearGradient id="未命名的渐变_256" x1="106.46" y1="8.04" x2="112.25" y2="13.83"
            gradientTransform="translate(99.07 -96.53) rotate(78.56) scale(0.99)" gradientUnits="userSpaceOnUse">
            <stop offset="0" stop-color="#686c72" />
            <stop offset="1" stop-color="#7b7f84" />
        </linearGradient>
        <linearGradient id="未命名的渐变_255" x1="106.83" y1="8.43" x2="112.35" y2="13.95"
            gradientTransform="translate(98 -96.74) rotate(77.84) scale(0.99)" gradientUnits="userSpaceOnUse">
            <stop offset="0" stop-color="#666a70" />
            <stop offset="1" stop-color="#75797e" />
        </linearGradient>
        <linearGradient id="未命名的渐变_254" x1="107.19" y1="8.83" x2="112.44" y2="14.08"
            gradientTransform="matrix(0.22, 0.97, -0.97, 0.22, 96.93, -96.96)" gradientUnits="userSpaceOnUse">
            <stop offset="0" stop-color="#63686d" />
            <stop offset="1" stop-color="#6f7378" />
        </linearGradient>
        <linearGradient id="未命名的渐变_253" x1="107.54" y1="9.22" x2="112.54" y2="14.22"
            gradientTransform="translate(95.86 -97.17) rotate(76.42)" gradientUnits="userSpaceOnUse">
            <stop offset="0" stop-color="#61656b" />
            <stop offset="1" stop-color="#696d72" />
        </linearGradient>
        <linearGradient id="未命名的渐变_252" x1="107.89" y1="9.62" x2="112.62" y2="14.36"
            gradientTransform="translate(94.79 -97.39) rotate(75.71)" gradientUnits="userSpaceOnUse">
            <stop offset="0" stop-color="#5f6368" />
            <stop offset="1" stop-color="#63676c" />
        </linearGradient>
    </defs>
    <title>Stainless steel blender 2_open(不锈钢搅拌机2_开)</title>
    <g id="图层_2" data-name="图层 2">
        <g id="图层_6" data-name="图层 6">
            <g id="Stainless_steel_blender_2_open_不锈钢搅拌机2_开_" data-name="Stainless steel blender 2_open(不锈钢搅拌机2_开)">
                <polygon class="cls-1" points="3.99 130.51 0 130.51 0 105.93 13.63 105.93 3.99 130.51" />
                <line class="cls-2" x1="11.7" y1="105.93" x2="2.07" y2="130.51" />
                <rect class="cls-3" x="2.72" y="126.66" width="58.07" height="10.97" />
                <rect class="cls-4" x="13.63" y="72.74" width="28.11" height="49.55" />
                <rect class="cls-5" x="18.57" y="88.44" width="2.86" height="33.85" />
                <rect class="cls-5" x="14.74" y="88.44" width="2.86" height="33.85" />
                <rect class="cls-5" x="22.41" y="88.44" width="2.86" height="33.85" />
                <rect class="cls-5" x="26.25" y="88.44" width="2.86" height="33.85" />
                <rect class="cls-5" x="30.09" y="88.44" width="2.86" height="33.85" />
                <rect class="cls-5" x="33.93" y="88.44" width="2.86" height="33.85" />
                <rect class="cls-5" x="37.77" y="88.44" width="2.86" height="33.85" />
                <rect class="cls-5" x="13.63" y="122.29" width="28.11" height="4.37" />
                <polygon class="cls-6" points="41.74 72.74 13.63 72.74 21.91 70.05 33.45 70.05 41.74 72.74" />
                <rect class="cls-7" x="21.92" y="65.5" width="11.6" height="4.55" />
                <rect class="cls-8" x="54.57" y="32.09" width="62.53" height="46.99" />
                <rect class="cls-9" x="54.57" y="71.81" width="62.53" height="0.3" />
                <rect class="cls-9" x="54.57" y="37.82" width="62.53" height="0.3" />
                <path class="cls-10" d="M117.1,32.09H54.57s4-12.26,31.26-12.26S117.1,32.09,117.1,32.09Z" />
                <polygon class="cls-11" points="100.12 97.22 71.55 97.22 54.57 79.08 117.1 79.08 100.12 97.22" />
                <polygon class="cls-12" points="100.12 97.22 71.55 97.22 54.57 79.08 117.1 79.08 100.12 97.22" />
                <rect class="cls-13" x="71.55" y="97.22" width="28.58" height="46.86" />
                <rect class="cls-14" x="71.55" y="136.45" width="28.58" height="7.63" />
                <g class="cls-15">
                    <rect class="cls-5" x="71.55" y="139.82" width="28.58" height="0.3" />
                </g>
                <rect class="cls-16" x="66.79" y="97.28" width="38.08" height="5.94" />
                <rect class="cls-17" x="0.49" y="130.51" width="104.39" height="5.94" />
                <path class="cls-18"
                    d="M5.48,150H0V132.23c0-7.55,4.45-14.2,11.08-16.53L63,97.42l1.69,5.65L12.77,121.35a11.37,11.37,0,0,0-7.29,10.88Z" />
                <rect class="cls-19" x="28.3" y="111.57" width="70.92" height="5.94"
                    transform="translate(178.3 50.77) rotate(90)" />
                <rect class="cls-20" x="72.44" y="111.57" width="70.92" height="5.94"
                    transform="translate(222.44 6.63) rotate(90)" />
                <path class="cls-21" d="M86.79,23.76l-.11.75c-.3,1.85,4.15,4.09,9.93,5s10.7.15,11-1.71l.12-.75Z" />
                <ellipse class="cls-5" cx="97.26" cy="25.41" rx="3.4" ry="10.59"
                    transform="translate(56.99 117.51) rotate(-81.02)" />
                <path class="cls-22"
                    d="M93.12,21.92h0a30.39,30.39,0,0,1,4.63.38,25.48,25.48,0,0,1,7.17,2.13c1.75.88,2.68,1.83,2.56,2.59-.18,1.13-2.62,1.88-6.08,1.88a30.29,30.29,0,0,1-4.63-.38c-6.11-1-10-3.22-9.73-4.72.18-1.13,2.62-1.88,6.08-1.88m0-.25c-3.55,0-6.12.77-6.33,2.09-.29,1.85,4.16,4.09,9.94,5a30.42,30.42,0,0,0,4.67.38c3.55,0,6.11-.77,6.32-2.09.3-1.85-4.15-4.09-9.93-5a30.52,30.52,0,0,0-4.67-.38Z" />
                <polygon class="cls-23" points="111.98 2.93 110.89 2.93 112.4 0 113.19 0 111.98 2.93" />
                <polygon class="cls-23" points="107.95 24.63 106.12 24.63 106.12 20.74 109.14 20.74 107.95 24.63" />
                <ellipse class="cls-24" cx="108.61" cy="12.04" rx="10.65" ry="5.4"
                    transform="translate(68.87 113.83) rotate(-75)" />
                <ellipse class="cls-25" cx="108.47" cy="11.73" rx="9.67" ry="4.82"
                    transform="translate(69.06 113.47) rotate(-75)" />
                <ellipse class="cls-26" cx="108.56" cy="11.76" rx="9.41" ry="4.72"
                    transform="translate(69.1 113.58) rotate(-75)" />
                <ellipse class="cls-27" cx="108.66" cy="11.79" rx="9.15" ry="4.62"
                    transform="translate(69.15 113.69) rotate(-75)" />
                <ellipse class="cls-28" cx="108.75" cy="11.81" rx="8.89" ry="4.53"
                    transform="translate(69.2 113.8) rotate(-75)" />
                <ellipse class="cls-29" cx="108.85" cy="11.84" rx="8.63" ry="4.43"
                    transform="translate(69.24 113.91) rotate(-75)" />
                <ellipse class="cls-30" cx="108.94" cy="11.86" rx="8.37" ry="4.33"
                    transform="translate(69.29 114.02) rotate(-75)" />
                <ellipse class="cls-31" cx="109.04" cy="11.89" rx="8.11" ry="4.23"
                    transform="translate(69.33 114.13) rotate(-75)" />
                <ellipse class="cls-32" cx="109.13" cy="11.91" rx="7.85" ry="4.13"
                    transform="translate(69.38 114.24) rotate(-75)" />
                <ellipse class="cls-33" cx="109.23" cy="11.94" rx="7.59" ry="4.03"
                    transform="translate(69.43 114.35) rotate(-75)" />
                <ellipse class="cls-34" cx="109.32" cy="11.96" rx="7.33" ry="3.94"
                    transform="translate(69.47 114.46) rotate(-75)" />
                <ellipse class="cls-35" cx="109.42" cy="11.99" rx="7.06" ry="3.84"
                    transform="translate(69.52 114.57) rotate(-75)" />
                <ellipse class="cls-36" cx="109.51" cy="12.01" rx="6.8" ry="3.74"
                    transform="translate(69.56 114.69) rotate(-75)" />
                <ellipse class="cls-37" cx="109.61" cy="12.04" rx="6.54" ry="3.64"
                    transform="translate(69.61 114.8) rotate(-75)" />
                <ellipse class="cls-38" cx="109.7" cy="12.07" rx="6.28" ry="3.54"
                    transform="translate(69.65 114.91) rotate(-75)" />
                <ellipse class="cls-39" cx="109.8" cy="12.09" rx="6.02" ry="3.44"
                    transform="translate(69.7 115.02) rotate(-75)" />
                <ellipse class="cls-40" cx="109.89" cy="12.12" rx="5.76" ry="3.35"
                    transform="translate(69.75 115.13) rotate(-75)" />
                <ellipse class="cls-41" cx="109.99" cy="12.14" rx="5.5" ry="3.25"
                    transform="translate(69.79 115.24) rotate(-75)" />
                <ellipse class="cls-42" cx="110.08" cy="12.17" rx="5.24" ry="3.15"
                    transform="translate(69.84 115.35) rotate(-75)" />
                <ellipse class="cls-43" cx="110.18" cy="12.19" rx="4.98" ry="3.05"
                    transform="translate(69.88 115.46) rotate(-75)" />
                <ellipse class="cls-44" cx="110.27" cy="12.22" rx="4.72" ry="2.95"
                    transform="translate(69.93 115.57) rotate(-75)" />
                <ellipse class="cls-45" cx="110.37" cy="12.24" rx="4.46" ry="2.85"
                    transform="translate(69.98 115.68) rotate(-75)" />
                <ellipse class="cls-46" cx="110.46" cy="12.27" rx="4.2" ry="2.75"
                    transform="translate(70.02 115.79) rotate(-75)" />
              
            </g>
        </g>
    </g>
</svg>