<svg xmlns="http://www.w3.org/2000/svg" xmlns:xlink="http://www.w3.org/1999/xlink" viewBox="0 0 62.19 150">
    <defs>
        <style>
            .cls-1 {
                fill: #5e6266;
            }

            .cls-2 {
                fill: #cad0d6;
            }

            .cls-3 {
                fill: #8d9399;
            }

            .cls-4 {
                fill: #a6acb3;
            }

            .cls-5 {
                fill: url(#未命名的渐变_3);
            }

            .cls-6 {
                fill: url(#未命名的渐变_3-2);
            }

            .cls-7 {
                fill: url(#未命名的渐变_3-3);
            }

            .cls-8 {
                fill: url(#未命名的渐变_121);
            }

            .cls-9 {
                fill: url(#未命名的渐变_7);
            }

            .cls-10 {
                fill: url(#未命名的渐变_121-2);
            }

            .cls-11 {
                fill: url(#未命名的渐变_121-3);
            }

            .cls-12 {
                fill: url(#未命名的渐变_121-4);
            }

            .cls-13 {
                fill: #252628;
            }

            .cls-14 {
                fill: url(#未命名的渐变_121-5);
            }

            .cls-15 {
                fill: url(#未命名的渐变_32);
            }

            .cls-16 {
                fill: url(#未命名的渐变_121-6);
            }

            .cls-17 {
                opacity: 0.2;
            }
        </style>
        <linearGradient id="未命名的渐变_3" y1="116.65" x2="3.76" y2="116.65" gradientUnits="userSpaceOnUse">
            <stop offset="0" stop-color="#767b82" />
            <stop offset="0.08" stop-color="#9ba1ab" />
            <stop offset="0.91" stop-color="#9ba1ab" />
            <stop offset="0.96" stop-color="#d7dce0" />
            <stop offset="0.98" stop-color="#767b82" />
        </linearGradient>
        <linearGradient id="未命名的渐变_3-2" x1="22.17" y1="123.82" x2="25.93" y2="123.82"
            gradientTransform="translate(7.04 -15.77)" xlink:href="#未命名的渐变_3" />
        <linearGradient id="未命名的渐变_3-3" x1="58.43" y1="116.65" x2="62.19" y2="116.65" xlink:href="#未命名的渐变_3" />
        <linearGradient id="未命名的渐变_121" x1="41.07" y1="118.54" x2="41.07" y2="129.1"
            gradientTransform="translate(-9.98 -32.79)" gradientUnits="userSpaceOnUse">
            <stop offset="0" stop-color="#a9b1bb" />
            <stop offset="0.09" stop-color="#61666b" />
            <stop offset="0.18" stop-color="#696e73" />
            <stop offset="0.32" stop-color="#7e8489" />
            <stop offset="0.49" stop-color="#a1a7ae" />
            <stop offset="0.69" stop-color="#d1d8e0" />
            <stop offset="0.75" stop-color="#e2eaf2" />
            <stop offset="0.93" stop-color="#9ba1ab" />
            <stop offset="1" stop-color="#767b82" />
        </linearGradient>
        <linearGradient id="未命名的渐变_7" x1="92.93" y1="94.61" x2="92.93" y2="153.03"
            gradientTransform="translate(-61.83 -84.64)" gradientUnits="userSpaceOnUse">
            <stop offset="0" stop-color="#767b82" />
            <stop offset="0.02" stop-color="#9ba1ab" />
            <stop offset="0.98" stop-color="#9ba1ab" />
            <stop offset="0.99" stop-color="#d7dce0" />
            <stop offset="1" stop-color="#767b82" />
        </linearGradient>
        <linearGradient id="未命名的渐变_121-2" x1="94.88" y1="105.65" x2="94.88" y2="141.99"
            gradientTransform="translate(-63.79 -86.6)" xlink:href="#未命名的渐变_121" />
        <linearGradient id="未命名的渐变_121-3" x1="31.84" y1="121.74" x2="31.84" y2="125.89"
            gradientTransform="translate(-0.75 -23.56)" xlink:href="#未命名的渐变_121" />
        <linearGradient id="未命名的渐变_121-4" x1="-688.98" y1="-133.08" x2="-669.69" y2="-133.08"
            gradientTransform="translate(710.43 250.62)" xlink:href="#未命名的渐变_121" />
        <linearGradient id="未命名的渐变_121-5" x1="-691.2" y1="-123.07" x2="-667.47" y2="-123.07"
            gradientTransform="translate(710.43 250.62)" xlink:href="#未命名的渐变_121" />
        <linearGradient id="未命名的渐变_32" x1="2.29" y1="28.26" x2="12.92" y2="28.26" gradientUnits="userSpaceOnUse">
            <stop offset="0" stop-color="#abafb3" />
            <stop offset="1" stop-color="#45484d" />
        </linearGradient>
        <linearGradient id="未命名的渐变_121-6" x1="120.15" y1="175.9" x2="135.97" y2="185.04"
            gradientTransform="translate(176.85 198.62) rotate(180) scale(1.3 1)" xlink:href="#未命名的渐变_121" />
    </defs>
    <title>Stainless steel blender 1_open(不锈钢搅拌机1_开)</title>
    <g id="图层_2" data-name="图层 2">
        <g id="图层_6" data-name="图层 6">
            <g id="Stainless_steel_blender_1_open_不锈钢搅拌机1_开_" data-name="Stainless steel blender 1_open(不锈钢搅拌机1_开)">
                <polygon class="cls-1" points="31.09 88.8 0 83.31 62.19 83.31 31.09 88.8" />
                <polygon class="cls-2" points="31.09 61.66 0 40.01 62.19 40.01 31.09 61.66" />
                <polygon class="cls-3" points="31.09 61.66 0 83.31 62.19 83.31 31.09 61.66" />
                <polygon class="cls-4" points="31.09 61.66 0 83.31 0 40.01 31.09 61.66" />
                <polygon class="cls-4" points="31.09 61.66 62.19 83.31 62.19 40.01 31.09 61.66" />
                <rect class="cls-5" y="83.31" width="3.76" height="66.69" />
                <rect class="cls-6" x="29.21" y="80.72" width="3.76" height="54.67"
                    transform="translate(-76.96 139.15) rotate(-90)" />
                <rect class="cls-7" x="58.43" y="83.31" width="3.76" height="66.69" />
                <rect class="cls-8" x="27.77" y="85.75" width="6.64" height="10.56"
                    transform="translate(-59.94 122.12) rotate(-90)" />
                <rect class="cls-9" x="30.26" y="9.96" width="1.66" height="58.43"
                    transform="translate(-8.08 70.27) rotate(-90)" />
                <rect class="cls-10" x="29.96" y="19.04" width="2.26" height="36.35"
                    transform="translate(-6.13 68.31) rotate(-90)" />
                <rect class="cls-11" x="25.18" y="98.19" width="11.82" height="4.15"
                    transform="translate(-69.17 131.36) rotate(-90)" />
                <rect class="cls-12" x="21.45" y="109.93" width="19.29" height="15.22" />
                <rect class="cls-13" x="24.84" y="109.93" width="1.96" height="15.22" />
                <rect class="cls-13" x="22.21" y="109.93" width="1.96" height="15.22" />
                <rect class="cls-13" x="27.48" y="109.93" width="1.96" height="15.22" />
                <rect class="cls-13" x="30.11" y="109.93" width="1.96" height="15.22" />
                <rect class="cls-13" x="32.75" y="109.93" width="1.96" height="15.22" />
                <rect class="cls-13" x="35.38" y="109.93" width="1.96" height="15.22" />
                <rect class="cls-13" x="38.01" y="109.93" width="1.96" height="15.22" />
                <rect class="cls-14" x="19.23" y="125.15" width="23.72" height="4.79" />
                <polygon class="cls-15"
                    points="2.29 19.98 3.64 18.17 10.54 18.17 10.54 34.32 12.92 35.64 12.92 38.35 7.3 35.76 2.29 19.98" />
                <path class="cls-16" d="M10.54,0V36.35A27.39,27.39,0,0,1,10.54,0Z" />
               
            </g>
        </g>
    </g>
</svg>