<svg xmlns="http://www.w3.org/2000/svg" xmlns:xlink="http://www.w3.org/1999/xlink" viewBox="0 0 76.28 150">
    <defs>
        <style>
            .cls-1 {
                fill: #5e6266;
            }

            .cls-2 {
                fill: #cad0d6;
            }

            .cls-3 {
                fill: #8d9399;
            }

            .cls-4 {
                fill: #a6acb3;
            }

            .cls-5 {
                fill: url(#未命名的渐变_3);
            }

            .cls-6 {
                fill: url(#未命名的渐变_3-2);
            }

            .cls-7 {
                fill: url(#未命名的渐变_3-3);
            }

            .cls-8 {
                fill: url(#未命名的渐变_121);
            }

            .cls-9 {
                fill: url(#未命名的渐变_7);
            }

            .cls-10 {
                fill: url(#未命名的渐变_121-2);
            }

            .cls-11 {
                fill: url(#未命名的渐变_121-3);
            }

            .cls-12 {
                fill: #252628;
            }

            .cls-13 {
                fill: url(#未命名的渐变_121-4);
            }

            .cls-14 {
                fill: url(#未命名的渐变_279);
            }

            .cls-15 {
                fill: url(#未命名的渐变_121-5);
            }

            .cls-16 {
                fill: url(#未命名的渐变_121-6);
            }

            .cls-17 {
                opacity: 0.2;
            }
        </style>
        <linearGradient id="未命名的渐变_3" y1="109.09" x2="4.61" y2="109.09" gradientUnits="userSpaceOnUse">
            <stop offset="0" stop-color="#767b82" />
            <stop offset="0.08" stop-color="#9ba1ab" />
            <stop offset="0.91" stop-color="#9ba1ab" />
            <stop offset="0.96" stop-color="#d7dce0" />
            <stop offset="0.98" stop-color="#767b82" />
        </linearGradient>
        <linearGradient id="未命名的渐变_3-2" x1="-161.69" y1="323.82" x2="-157.08" y2="323.82"
            gradientTransform="translate(197.53 -225.28)" xlink:href="#未命名的渐变_3" />
        <linearGradient id="未命名的渐变_3-3" x1="71.67" y1="109.09" x2="76.28" y2="109.09" xlink:href="#未命名的渐变_3" />
        <linearGradient id="未命名的渐变_121" x1="-138.51" y1="317.34" x2="-138.51" y2="330.29"
            gradientTransform="translate(176.65 -246.16)" gradientUnits="userSpaceOnUse">
            <stop offset="0" stop-color="#a9b1bb" />
            <stop offset="0.09" stop-color="#61666b" />
            <stop offset="0.18" stop-color="#696e73" />
            <stop offset="0.32" stop-color="#7e8489" />
            <stop offset="0.49" stop-color="#a1a7ae" />
            <stop offset="0.69" stop-color="#d1d8e0" />
            <stop offset="0.75" stop-color="#e2eaf2" />
            <stop offset="0.93" stop-color="#9ba1ab" />
            <stop offset="1" stop-color="#767b82" />
        </linearGradient>
        <linearGradient id="未命名的渐变_7" x1="-74.9" y1="287.98" x2="-74.9" y2="359.66"
            gradientTransform="translate(113.04 -309.77)" gradientUnits="userSpaceOnUse">
            <stop offset="0" stop-color="#767b82" />
            <stop offset="0.02" stop-color="#9ba1ab" />
            <stop offset="0.98" stop-color="#9ba1ab" />
            <stop offset="0.99" stop-color="#d7dce0" />
            <stop offset="1" stop-color="#767b82" />
        </linearGradient>
        <linearGradient id="未命名的渐变_121-2" x1="-149.83" y1="321.27" x2="-149.83" y2="326.36"
            gradientTransform="translate(187.97 -234.83)" xlink:href="#未命名的渐变_121" />
        <linearGradient id="未命名的渐变_121-3" x1="-684.11" y1="-140.44" x2="-660.46" y2="-140.44"
            gradientTransform="translate(710.43 250.62)" xlink:href="#未命名的渐变_121" />
        <linearGradient id="未命名的渐变_121-4" x1="-686.84" y1="-128.16" x2="-657.73" y2="-128.16"
            gradientTransform="translate(710.43 250.62)" xlink:href="#未命名的渐变_121" />
        <linearGradient id="未命名的渐变_279" x1="13.4" y1="6.52" x2="38.14" y2="6.52" gradientUnits="userSpaceOnUse">
            <stop offset="0" stop-color="#45484d" />
            <stop offset="1" stop-color="#abafb3" />
        </linearGradient>
        <linearGradient id="未命名的渐变_121-5" x1="-53.1" y1="374.6" x2="-33.68" y2="385.81"
            gradientTransform="translate(-342.03 -46.18) rotate(-90) scale(1.3 1)" xlink:href="#未命名的渐变_121" />
        <linearGradient id="未命名的渐变_121-6" x1="-72.5" y1="301.52" x2="-72.5" y2="346.11"
            gradientTransform="translate(110.64 -312.17)" xlink:href="#未命名的渐变_121" />
    </defs>
    <title>Stainless steel blender 1_closed(不锈钢搅拌机1_关)</title>
    <g id="图层_2" data-name="图层 2">
        <g id="图层_6" data-name="图层 6">
            <g id="Stainless_steel_blender_1_closed_不锈钢搅拌机1_关_" data-name="Stainless steel blender 1_closed(不锈钢搅拌机1_关)">
                <polygon class="cls-1" points="38.14 74.92 0 68.19 76.28 68.19 38.14 74.92" />
                <polygon class="cls-2" points="38.14 41.63 0 15.07 76.28 15.07 38.14 41.63" />
                <polygon class="cls-3" points="38.14 41.63 0 68.19 76.28 68.19 38.14 41.63" />
                <polygon class="cls-4" points="38.14 41.63 0 68.19 0 15.07 38.14 41.63" />
                <polygon class="cls-4" points="38.14 41.63 76.28 68.19 76.28 15.07 38.14 41.63" />
                <rect class="cls-5" y="68.19" width="4.61" height="81.81" />
                <rect class="cls-6" x="35.84" y="65.01" width="4.61" height="67.07"
                    transform="translate(-60.4 136.68) rotate(-90)" />
                <rect class="cls-7" x="71.67" y="68.19" width="4.61" height="81.81" />
                <rect class="cls-8" x="34.07" y="71.19" width="8.15" height="12.95"
                    transform="translate(-39.52 115.8) rotate(-90)" />
                <rect class="cls-9" x="37.12" y="-21.79" width="2.04" height="71.67"
                    transform="translate(24.09 52.19) rotate(-90)" />
                <rect class="cls-10" x="30.89" y="86.44" width="14.5" height="5.09"
                    transform="translate(-50.84 127.13) rotate(-90)" />
                <rect class="cls-11" x="26.31" y="100.85" width="23.66" height="18.67" />
                <rect class="cls-12" x="30.48" y="100.85" width="2.41" height="18.67" />
                <rect class="cls-12" x="27.25" y="100.85" width="2.41" height="18.67" />
                <rect class="cls-12" x="33.71" y="100.85" width="2.41" height="18.67" />
                <rect class="cls-12" x="36.94" y="100.85" width="2.41" height="18.67" />
                <rect class="cls-12" x="40.17" y="100.85" width="2.41" height="18.67" />
                <rect class="cls-12" x="43.4" y="100.85" width="2.41" height="18.67" />
                <rect class="cls-12" x="46.63" y="100.85" width="2.41" height="18.67" />
                <rect class="cls-13" x="23.59" y="119.52" width="29.1" height="5.88" />
                <polygon class="cls-14"
                    points="35.93 0 38.14 1.65 38.14 10.27 18.34 10.27 16.72 13.03 13.39 13.03 16.57 6.14 35.93 0" />
                <path class="cls-15" d="M60.44,10.26H15.85a33.16,33.16,0,0,1,44.59,0Z" />
                <rect class="cls-16" x="36.76" y="-10.65" width="2.77" height="44.59"
                    transform="translate(26.49 49.79) rotate(-90)" />
            </g>
        </g>
    </g>
</svg>