<svg xmlns="http://www.w3.org/2000/svg" xmlns:xlink="http://www.w3.org/1999/xlink" viewBox="0 0 150 99.62">
    <defs>
        <style>
            .cls-1 {
                fill: url(#未命名的渐变_11);
            }

            .cls-2,
            .cls-54,
            .cls-57 {
                fill: none;
            }

            .cls-2 {
                stroke: #5e6266;
            }

            .cls-2,
            .cls-28,
            .cls-29,
            .cls-30,
            .cls-33,
            .cls-37,
            .cls-39,
            .cls-40,
            .cls-53,
            .cls-54,
            .cls-55,
            .cls-56,
            .cls-57,
            .cls-59,
            .cls-60 {
                stroke-miterlimit: 10;
            }

            .cls-2,
            .cls-33,
            .cls-37,
            .cls-39,
            .cls-40,
            .cls-54 {
                stroke-width: 0.1px;
            }

            .cls-3 {
                fill: url(#未命名的渐变_11-2);
            }

            .cls-4 {
                fill: url(#未命名的渐变_48);
            }

            .cls-5 {
                fill: #949aa2;
            }

            .cls-6,
            .cls-7 {
                fill: #252628;
            }

            .cls-6 {
                opacity: 0.6;
            }

            .cls-19,
            .cls-39,
            .cls-8 {
                fill: #fff;
            }

            .cls-8 {
                opacity: 0.9;
            }

            .cls-9 {
                fill: url(#未命名的渐变_5);
            }

            .cls-10 {
                fill: url(#未命名的渐变_11-3);
            }

            .cls-11 {
                fill: url(#未命名的渐变_30);
            }

            .cls-12 {
                fill: url(#未命名的渐变_28);
            }

            .cls-13 {
                fill: url(#未命名的渐变_28-2);
            }

            .cls-14 {
                fill: url(#未命名的渐变_5-2);
            }

            .cls-15 {
                fill: #5e6266;
            }

            .cls-16 {
                fill: url(#未命名的渐变_5-3);
            }

            .cls-17 {
                fill: url(#未命名的渐变_11-4);
            }

            .cls-18 {
                fill: url(#未命名的渐变_5-4);
            }

            .cls-20 {
                fill: url(#未命名的渐变_5-5);
            }

            .cls-21 {
                fill: url(#未命名的渐变_5-6);
            }

            .cls-22 {
                fill: url(#未命名的渐变_11-5);
            }

            .cls-23 {
                fill: url(#未命名的渐变_281);
            }

            .cls-24 {
                fill: url(#未命名的渐变_281-2);
            }

            .cls-25 {
                fill: url(#未命名的渐变_11-6);
            }

            .cls-26 {
                fill: url(#未命名的渐变_281-3);
            }

            .cls-27 {
                fill: url(#未命名的渐变_281-4);
            }

            .cls-28,
            .cls-29,
            .cls-30,
            .cls-56 {
                stroke: #505458;
            }

            .cls-28,
            .cls-29,
            .cls-30,
            .cls-53,
            .cls-55,
            .cls-56,
            .cls-57,
            .cls-59,
            .cls-60 {
                stroke-width: 0.25px;
            }

            .cls-28 {
                fill: url(#未命名的渐变_204);
            }

            .cls-29 {
                fill: url(#未命名的渐变_204-2);
            }

            .cls-30 {
                fill: url(#未命名的渐变_204-3);
            }

            .cls-31 {
                fill: #5e6066;
            }

            .cls-32,
            .cls-33 {
                fill: #2f3033;
            }

            .cls-33,
            .cls-37,
            .cls-39,
            .cls-40 {
                stroke-linecap: round;
            }

            .cls-33 {
                stroke: url(#未命名的渐变_9);
            }

            .cls-34 {
                opacity: 0.4;
            }

            .cls-35 {
                fill: url(#未命名的渐变_328);
            }

            .cls-36 {
                fill: #d3be1e;
            }

            .cls-37 {
                fill: #d3441e;
                stroke: url(#未命名的渐变_9-2);
            }

            .cls-38 {
                fill: url(#未命名的渐变_328-2);
            }

            .cls-39 {
                stroke: url(#未命名的渐变_9-3);
            }

            .cls-40 {
                fill: #2068d1;
                stroke: url(#未命名的渐变_9-4);
            }

            .cls-41 {
                fill: url(#未命名的渐变_328-3);
            }

            .cls-42 {
                fill: url(#未命名的渐变_56);
            }

            .cls-43 {
                fill: url(#未命名的渐变_52);
            }

            .cls-44 {
                fill: url(#未命名的渐变_56-2);
            }

            .cls-45 {
                fill: url(#未命名的渐变_52-2);
            }

            .cls-46 {
                fill: url(#未命名的渐变_56-3);
            }

            .cls-47 {
                fill: url(#未命名的渐变_52-3);
            }

            .cls-48 {
                fill: url(#未命名的渐变_65);
            }

            .cls-49 {
                fill: url(#未命名的渐变_70);
            }

            .cls-50 {
                fill: url(#未命名的渐变_5-7);
            }

            .cls-51,
            .cls-53 {
                fill: #d9dfe6;
            }

            .cls-52 {
                fill: url(#未命名的渐变_65-2);
            }

            .cls-53 {
                stroke: #4e4f51;
            }

            .cls-54 {
                stroke: #d2dae6;
            }

            .cls-55 {
                fill: #c0c6cc;
            }

            .cls-55,
            .cls-59,
            .cls-60 {
                stroke: #fff;
            }

            .cls-56 {
                fill: url(#未命名的渐变_204-4);
            }

            .cls-57 {
                stroke: #989ea6;
            }

            .cls-58 {
                fill: url(#未命名的渐变_11-7);
            }

            .cls-59 {
                fill: url(#未命名的渐变_204-5);
            }

            .cls-60 {
                fill: url(#未命名的渐变_204-6);
            }

            .cls-61 {
                opacity: 0.2;
            }
        </style>
        <linearGradient id="未命名的渐变_11" x1="85.51" y1="27.17" x2="71.85" y2="40.83" gradientUnits="userSpaceOnUse">
            <stop offset="0" stop-color="#d7dce0" />
            <stop offset="1" stop-color="#8a9099" />
        </linearGradient>
        <linearGradient id="未命名的渐变_11-2" x1="123.18" y1="24.26" x2="101.99" y2="45.45"
            gradientTransform="matrix(-1, 0, 0, 1, 240.98, 0)" xlink:href="#未命名的渐变_11" />
        <linearGradient id="未命名的渐变_48" x1="109.41" y1="0.03" x2="91.31" y2="18.12" gradientUnits="userSpaceOnUse">
            <stop offset="0" stop-color="#dce1e6" />
            <stop offset="1" stop-color="#b7bfcc" />
        </linearGradient>
        <linearGradient id="未命名的渐变_5" x1="70.75" y1="24.21" x2="23.18" y2="71.78" xlink:href="#未命名的渐变_11" />
        <linearGradient id="未命名的渐变_11-3" x1="499.46" y1="34.51" x2="528.15" y2="63.2"
            gradientTransform="matrix(-1, 0, 0, 1, 643.05, 0)" xlink:href="#未命名的渐变_11" />
        <linearGradient id="未命名的渐变_30" x1="100.36" y1="61.56" x2="100.36" y2="14.27" gradientUnits="userSpaceOnUse">
            <stop offset="0" stop-color="#61666b" />
            <stop offset="0.11" stop-color="#696e73" />
            <stop offset="0.28" stop-color="#7e8489" />
            <stop offset="0.5" stop-color="#a1a7ae" />
            <stop offset="0.74" stop-color="#d1d8e0" />
            <stop offset="0.82" stop-color="#e2eaf2" />
            <stop offset="0.93" stop-color="#9ba1ab" />
        </linearGradient>
        <linearGradient id="未命名的渐变_28" x1="55.47" y1="62.7" x2="136.03" y2="62.7" xlink:href="#未命名的渐变_30" />
        <linearGradient id="未命名的渐变_28-2" x1="55.47" y1="89.86" x2="136.03" y2="89.86" xlink:href="#未命名的渐变_30" />
        <linearGradient id="未命名的渐变_5-2" x1="85.69" y1="64.35" x2="61.87" y2="88.18" xlink:href="#未命名的渐变_11" />
        <linearGradient id="未命名的渐变_5-3" x1="125.45" y1="60.19" x2="93.3" y2="92.34" xlink:href="#未命名的渐变_11" />
        <linearGradient id="未命名的渐变_11-4" x1="95.32" y1="69.53" x2="79.54" y2="85.31" xlink:href="#未命名的渐变_11" />
        <linearGradient id="未命名的渐变_5-4" x1="117.53" y1="20.73" x2="83.19" y2="55.07" xlink:href="#未命名的渐变_11" />
        <linearGradient id="未命名的渐变_5-5" x1="67.2" y1="17.44" x2="21.86" y2="62.77" xlink:href="#未命名的渐变_11" />
        <linearGradient id="未命名的渐变_5-6" x1="586.06" y1="30.12" x2="566.08" y2="50.1"
            gradientTransform="matrix(-1, 0, 0, 1, 706.9, 0)" xlink:href="#未命名的渐变_11" />
        <linearGradient id="未命名的渐变_11-5" x1="68.44" y1="69.93" x2="48.68" y2="89.69" xlink:href="#未命名的渐变_11" />
        <linearGradient id="未命名的渐变_281" x1="-324.09" y1="98.05" x2="-322.26" y2="98.05"
            gradientTransform="matrix(1, 0, 0, -1, 381.18, 196.1)" gradientUnits="userSpaceOnUse">
            <stop offset="0" stop-color="#7a8088" />
            <stop offset="0.09" stop-color="#2d2f33" />
            <stop offset="0.16" stop-color="#35373b" />
            <stop offset="0.26" stop-color="#4a4d51" />
            <stop offset="0.39" stop-color="#6d7176" />
            <stop offset="0.53" stop-color="#9da3a8" />
            <stop offset="0.59" stop-color="#b0b7bc" />
            <stop offset="0.93" stop-color="#6d7177" />
            <stop offset="1" stop-color="#5c6067" />
        </linearGradient>
        <linearGradient id="未命名的渐变_281-2" x1="56.23" y1="99.15" x2="59.77" y2="99.15"
            gradientTransform="matrix(1, 0, 0, 1, 0, 0)" xlink:href="#未命名的渐变_281" />
        <linearGradient id="未命名的渐变_11-6" x1="480.27" y1="70.28" x2="499.33" y2="89.34"
            gradientTransform="matrix(-1, 0, 0, 1, 622.74, 0)" xlink:href="#未命名的渐变_11" />
        <linearGradient id="未命名的渐变_281-3" x1="-755.32" y1="98.05" x2="-753.5" y2="98.05"
            gradientTransform="translate(887.91)" xlink:href="#未命名的渐变_281" />
        <linearGradient id="未命名的渐变_281-4" x1="487.47" y1="99.15" x2="491.01" y2="99.15"
            gradientTransform="matrix(1, 0, 0, -1, -355.74, 198.3)" xlink:href="#未命名的渐变_281" />
        <linearGradient id="未命名的渐变_204" x1="125.75" y1="-1180.12" x2="125.75" y2="-1178.86"
            gradientTransform="matrix(1, 0, 0, -1, 0, -1104.91)" gradientUnits="userSpaceOnUse">
            <stop offset="0" stop-color="#9ba1ab" />
            <stop offset="0" stop-color="#abb1ba" />
            <stop offset="0.09" stop-color="#abb1ba" />
            <stop offset="0.46" stop-color="#d7dce0" />
            <stop offset="1" stop-color="#a9b1bb" />
        </linearGradient>
        <linearGradient id="未命名的渐变_204-2" x1="65.75" y1="-1186.12" x2="65.75" y2="-1184.86" xlink:href="#未命名的渐变_204" />
        <linearGradient id="未命名的渐变_204-3" x1="82.75" y1="-1186.12" x2="82.75" y2="-1184.86" xlink:href="#未命名的渐变_204" />
        <linearGradient id="未命名的渐变_9" x1="109.05" y1="7.23" x2="109.05" y2="5.98" gradientUnits="userSpaceOnUse">
            <stop offset="0" stop-color="#767b82" />
            <stop offset="0.07" stop-color="#9ba1ab" />
            <stop offset="0.22" stop-color="#e2eaf2" />
            <stop offset="0.94" stop-color="#5d6166" />
            <stop offset="1" stop-color="#a9b1bb" />
        </linearGradient>
        <linearGradient id="未命名的渐变_328" x1="109.05" y1="7.1" x2="109.05" y2="6.11" gradientUnits="userSpaceOnUse">
            <stop offset="0" stop-color="#fff" stop-opacity="0" />
            <stop offset="0.09" stop-color="#fff" stop-opacity="0.04" />
            <stop offset="0.24" stop-color="#fff" stop-opacity="0.16" />
            <stop offset="0.44" stop-color="#fff" stop-opacity="0.36" />
            <stop offset="0.69" stop-color="#fff" stop-opacity="0.62" />
            <stop offset="0.97" stop-color="#fff" stop-opacity="0.96" />
            <stop offset="1" stop-color="#fff" />
        </linearGradient>
        <linearGradient id="未命名的渐变_9-2" x1="92.05" y1="12.23" x2="92.05" y2="10.98" xlink:href="#未命名的渐变_9" />
        <linearGradient id="未命名的渐变_328-2" x1="92.05" y1="12.1" x2="92.05" y2="11.11" xlink:href="#未命名的渐变_328" />
        <linearGradient id="未命名的渐变_9-3" x1="92.05" y1="7.23" x2="92.05" y2="5.98" xlink:href="#未命名的渐变_9" />
        <linearGradient id="未命名的渐变_9-4" x1="109.05" y1="12.23" x2="109.05" y2="10.98" xlink:href="#未命名的渐变_9" />
        <linearGradient id="未命名的渐变_328-3" x1="109.05" y1="12.1" x2="109.05" y2="11.11" xlink:href="#未命名的渐变_328" />
        <linearGradient id="未命名的渐变_56" x1="58.28" y1="37.7" x2="58.28" y2="34.68" gradientUnits="userSpaceOnUse">
            <stop offset="0" stop-color="#d7dce0" />
            <stop offset="1" stop-color="#a1a8b3" />
        </linearGradient>
        <linearGradient id="未命名的渐变_52" x1="61.9" y1="30.74" x2="54.6" y2="38.04" gradientUnits="userSpaceOnUse">
            <stop offset="0" stop-color="#d7dce0" />
            <stop offset="1" stop-color="#b8c0cc" />
        </linearGradient>
        <linearGradient id="未命名的渐变_56-2" x1="40.28" y1="37.7" x2="40.28" y2="34.68" xlink:href="#未命名的渐变_56" />
        <linearGradient id="未命名的渐变_52-2" x1="43.9" y1="30.74" x2="36.6" y2="38.04" xlink:href="#未命名的渐变_52" />
        <linearGradient id="未命名的渐变_56-3" x1="22.28" y1="37.7" x2="22.28" y2="34.68" xlink:href="#未命名的渐变_56" />
        <linearGradient id="未命名的渐变_52-3" x1="25.9" y1="30.74" x2="18.6" y2="38.04" xlink:href="#未命名的渐变_52" />
        <linearGradient id="未命名的渐变_65" x1="81.18" y1="9.48" x2="71.53" y2="19.12" gradientUnits="userSpaceOnUse">
            <stop offset="0" stop-color="#939699" />
            <stop offset="1" stop-color="#8a9099" />
        </linearGradient>
        <linearGradient id="未命名的渐变_70" x1="86.03" y1="1.52" x2="79.01" y2="8.53" gradientUnits="userSpaceOnUse">
            <stop offset="0" stop-color="#4a4b4d" />
            <stop offset="1" stop-color="#8a9099" />
        </linearGradient>
        <linearGradient id="未命名的渐变_5-7" x1="86.94" y1="4.67" x2="74.61" y2="17" xlink:href="#未命名的渐变_11" />
        <linearGradient id="未命名的渐变_65-2" x1="71.31" y1="5.02" x2="78.58" y2="5.02"
            gradientTransform="translate(149.89 10.05) rotate(-180)" xlink:href="#未命名的渐变_65" />
        <linearGradient id="未命名的渐变_204-4" x1="71.12" y1="17.84" x2="75.81" y2="17.84"
            gradientTransform="matrix(1, 0, 0, 1, 0, 0)" xlink:href="#未命名的渐变_204" />
        <linearGradient id="未命名的渐变_11-7" x1="124.73" y1="12.29" x2="115.24" y2="21.78" xlink:href="#未命名的渐变_11" />
        <linearGradient id="未命名的渐变_204-5" x1="125.35" y1="15.38" x2="122.04" y2="18.69"
            gradientTransform="matrix(1, 0, 0, 1, 0, 0)" xlink:href="#未命名的渐变_204" />
        <linearGradient id="未命名的渐变_204-6" x1="121.26" y1="12.95" x2="115.09" y2="19.11"
            gradientTransform="matrix(1, 0, 0, 1, 0, 0)" xlink:href="#未命名的渐变_204" />
    </defs>
    <title>Tray sealer(托盘封口机)</title>
    <g id="图层_2" data-name="图层 2">
        <g id="图层_6" data-name="图层 6">
            <g id="Tray_sealer_托盘封口机_" data-name="Tray sealer(托盘封口机)">
                <polygon class="cls-1" points="87.45 37.7 68.72 37.7 68.72 31.49 84.2 29.12 87.45 29.12 87.45 37.7" />
                <polygon class="cls-2" points="87.7 37.89 69.58 37.89 69.58 32.15 84.55 29.95 87.7 29.95 87.7 37.89" />
                <polygon class="cls-3"
                    points="112.95 37.89 146.55 37.89 146.55 34.52 140.07 30.98 118.79 29.12 112.95 29.12 112.95 37.89" />
                <polygon class="cls-2"
                    points="113.27 38.35 145.52 38.35 145.52 35.13 139.31 31.76 118.87 29.99 113.27 29.99 113.27 38.35" />
                <rect class="cls-4" x="87.45" y="3.89" width="25.81" height="10.37" />
                <rect class="cls-5" x="89.6" y="5.01" width="21.53" height="8.13" />
                <rect class="cls-6" x="95.32" y="6.18" width="10.09" height="5.79" />
                <rect class="cls-7" x="95.32" y="11.97" width="10.09" height="0.34" />
                <rect class="cls-8" x="96.73" y="7.31" width="7.26" height="3.54" />
                <polygon class="cls-9" points="87.45 61.56 56.66 61.56 0 48.6 0 40.91 87.45 40.91 87.45 61.56" />
                <polygon class="cls-10"
                    points="113.26 61.56 135.67 61.56 150 52.04 150 40.91 113.26 40.91 113.26 61.56" />
                <rect class="cls-11" x="87.45" y="14.27" width="25.81" height="47.29" />
                <rect class="cls-12" x="55.47" y="61.56" width="80.56" height="2.28" />
                <rect class="cls-13" x="55.47" y="88.71" width="80.56" height="2.28" />
                <polygon class="cls-14" points="62.35 88.66 62.41 63.84 85.23 63.89 85.18 88.66 62.35 88.66" />
                <path class="cls-15" d="M85.13,63.94V88.61H62.46V63.94H85.13m.1-.1H62.36V88.71H85.23V63.84Z" />
                <polygon class="cls-16" points="89.63 88.66 89.68 63.84 129.15 63.89 129.1 88.66 89.63 88.66" />
                <path class="cls-15" d="M129.05,63.94V88.61H89.73V63.94h39.32m.1-.1H89.63V88.71h39.52V63.84Z" />
                <rect class="cls-17" x="85.23" y="63.84" width="4.4" height="27.16" />
                <polygon class="cls-18" points="89.63 61.51 89.68 14.27 111.12 14.31 111.07 61.51 89.63 61.51" />
                <path class="cls-15" d="M111,14.37V61.46H89.73V14.37H111m.1-.1H89.63V61.56h21.49V14.27Z" />
                <rect class="cls-19" x="92.7" y="45.26" width="15.34" height="5.32" />
                <polygon class="cls-20" points="87.45 40.91 0 40.91 3.34 37.7 87.45 37.7 87.45 40.91" />
                <polygon class="cls-21" points="113.26 40.91 150 40.91 146.66 37.7 113.26 37.7 113.26 40.91" />
                <rect class="cls-6" y="40.91" width="150" height="2.02" />
                <path class="cls-7"
                    d="M94.46,21.3a.26.26,0,0,1-.25-.27V18.6a.26.26,0,1,1,.51,0V21A.26.26,0,0,1,94.46,21.3Z" />
                <path class="cls-7"
                    d="M95.58,21.3a.26.26,0,0,1-.25-.27V18.6a.26.26,0,0,1,.25-.28.27.27,0,0,1,.26.28V21A.27.27,0,0,1,95.58,21.3Z" />
                <path class="cls-7"
                    d="M96.7,21.3a.26.26,0,0,1-.25-.27V18.6a.26.26,0,0,1,.25-.28.27.27,0,0,1,.26.28V21A.27.27,0,0,1,96.7,21.3Z" />
                <path class="cls-7"
                    d="M97.82,21.3a.26.26,0,0,1-.25-.27V18.6a.26.26,0,0,1,.25-.28.27.27,0,0,1,.26.28V21A.27.27,0,0,1,97.82,21.3Z" />
                <path class="cls-7"
                    d="M98.94,21.3a.26.26,0,0,1-.25-.27V18.6a.26.26,0,0,1,.25-.28.27.27,0,0,1,.26.28V21A.27.27,0,0,1,98.94,21.3Z" />
                <path class="cls-7"
                    d="M100.06,21.3a.26.26,0,0,1-.25-.27V18.6a.26.26,0,0,1,.25-.28.27.27,0,0,1,.26.28V21A.27.27,0,0,1,100.06,21.3Z" />
                <path class="cls-7"
                    d="M101.18,21.3a.26.26,0,0,1-.25-.27V18.6a.25.25,0,1,1,.5,0V21A.26.26,0,0,1,101.18,21.3Z" />
                <path class="cls-7"
                    d="M102.3,21.3a.26.26,0,0,1-.25-.27V18.6a.25.25,0,1,1,.5,0V21A.26.26,0,0,1,102.3,21.3Z" />
                <path class="cls-7"
                    d="M103.42,21.3a.27.27,0,0,1-.26-.27V18.6a.27.27,0,0,1,.26-.28.26.26,0,0,1,.25.28V21A.26.26,0,0,1,103.42,21.3Z" />
                <path class="cls-7"
                    d="M104.54,21.3a.27.27,0,0,1-.26-.27V18.6a.27.27,0,0,1,.26-.28.26.26,0,0,1,.25.28V21A.26.26,0,0,1,104.54,21.3Z" />
                <path class="cls-7"
                    d="M105.66,21.3a.27.27,0,0,1-.26-.27V18.6a.27.27,0,0,1,.26-.28.26.26,0,0,1,.25.28V21A.26.26,0,0,1,105.66,21.3Z" />
                <path class="cls-7"
                    d="M94.46,26.88a.27.27,0,0,1-.25-.28V24.17a.26.26,0,1,1,.51,0V26.6A.27.27,0,0,1,94.46,26.88Z" />
                <path class="cls-7"
                    d="M95.58,26.88a.27.27,0,0,1-.25-.28V24.17a.27.27,0,0,1,.25-.28.28.28,0,0,1,.26.28V26.6A.28.28,0,0,1,95.58,26.88Z" />
                <path class="cls-7"
                    d="M96.7,26.88a.27.27,0,0,1-.25-.28V24.17a.27.27,0,0,1,.25-.28.28.28,0,0,1,.26.28V26.6A.28.28,0,0,1,96.7,26.88Z" />
                <path class="cls-7"
                    d="M97.82,26.88a.27.27,0,0,1-.25-.28V24.17a.27.27,0,0,1,.25-.28.28.28,0,0,1,.26.28V26.6A.28.28,0,0,1,97.82,26.88Z" />
                <path class="cls-7"
                    d="M98.94,26.88a.27.27,0,0,1-.25-.28V24.17a.27.27,0,0,1,.25-.28.28.28,0,0,1,.26.28V26.6A.28.28,0,0,1,98.94,26.88Z" />
                <path class="cls-7"
                    d="M100.06,26.88a.27.27,0,0,1-.25-.28V24.17a.27.27,0,0,1,.25-.28.28.28,0,0,1,.26.28V26.6A.28.28,0,0,1,100.06,26.88Z" />
                <path class="cls-7"
                    d="M101.18,26.88a.27.27,0,0,1-.25-.28V24.17a.25.25,0,1,1,.5,0V26.6A.27.27,0,0,1,101.18,26.88Z" />
                <path class="cls-7"
                    d="M102.3,26.88a.27.27,0,0,1-.25-.28V24.17a.25.25,0,1,1,.5,0V26.6A.27.27,0,0,1,102.3,26.88Z" />
                <path class="cls-7"
                    d="M103.42,26.88a.28.28,0,0,1-.26-.28V24.17a.28.28,0,0,1,.26-.28.27.27,0,0,1,.25.28V26.6A.27.27,0,0,1,103.42,26.88Z" />
                <path class="cls-7"
                    d="M104.54,26.88a.28.28,0,0,1-.26-.28V24.17a.28.28,0,0,1,.26-.28.27.27,0,0,1,.25.28V26.6A.27.27,0,0,1,104.54,26.88Z" />
                <path class="cls-7"
                    d="M105.66,26.88a.28.28,0,0,1-.26-.28V24.17a.28.28,0,0,1,.26-.28.27.27,0,0,1,.25.28V26.6A.27.27,0,0,1,105.66,26.88Z" />
                <path class="cls-7"
                    d="M94.46,32.45a.27.27,0,0,1-.25-.28V29.74a.26.26,0,1,1,.51,0v2.43A.27.27,0,0,1,94.46,32.45Z" />
                <path class="cls-7"
                    d="M95.58,32.45a.27.27,0,0,1-.25-.28V29.74a.27.27,0,0,1,.25-.28.28.28,0,0,1,.26.28v2.43A.28.28,0,0,1,95.58,32.45Z" />
                <path class="cls-7"
                    d="M96.7,32.45a.27.27,0,0,1-.25-.28V29.74a.27.27,0,0,1,.25-.28.28.28,0,0,1,.26.28v2.43A.28.28,0,0,1,96.7,32.45Z" />
                <path class="cls-7"
                    d="M97.82,32.45a.27.27,0,0,1-.25-.28V29.74a.27.27,0,0,1,.25-.28.28.28,0,0,1,.26.28v2.43A.28.28,0,0,1,97.82,32.45Z" />
                <path class="cls-7"
                    d="M98.94,32.45a.27.27,0,0,1-.25-.28V29.74a.27.27,0,0,1,.25-.28.28.28,0,0,1,.26.28v2.43A.28.28,0,0,1,98.94,32.45Z" />
                <path class="cls-7"
                    d="M100.06,32.45a.27.27,0,0,1-.25-.28V29.74a.27.27,0,0,1,.25-.28.28.28,0,0,1,.26.28v2.43A.28.28,0,0,1,100.06,32.45Z" />
                <path class="cls-7"
                    d="M101.18,32.45a.27.27,0,0,1-.25-.28V29.74a.25.25,0,1,1,.5,0v2.43A.27.27,0,0,1,101.18,32.45Z" />
                <path class="cls-7"
                    d="M102.3,32.45a.27.27,0,0,1-.25-.28V29.74a.25.25,0,1,1,.5,0v2.43A.27.27,0,0,1,102.3,32.45Z" />
                <path class="cls-7"
                    d="M103.42,32.45a.28.28,0,0,1-.26-.28V29.74a.28.28,0,0,1,.26-.28.27.27,0,0,1,.25.28v2.43A.27.27,0,0,1,103.42,32.45Z" />
                <path class="cls-7"
                    d="M104.54,32.45a.28.28,0,0,1-.26-.28V29.74a.28.28,0,0,1,.26-.28.27.27,0,0,1,.25.28v2.43A.27.27,0,0,1,104.54,32.45Z" />
                <path class="cls-7"
                    d="M105.66,32.45a.28.28,0,0,1-.26-.28V29.74a.28.28,0,0,1,.26-.28.27.27,0,0,1,.25.28v2.43A.27.27,0,0,1,105.66,32.45Z" />
                <path class="cls-7"
                    d="M94.46,38a.26.26,0,0,1-.25-.28V35.31a.26.26,0,1,1,.51,0v2.43A.26.26,0,0,1,94.46,38Z" />
                <path class="cls-7"
                    d="M95.58,38a.26.26,0,0,1-.25-.28V35.31a.26.26,0,0,1,.25-.27.27.27,0,0,1,.26.27v2.43A.27.27,0,0,1,95.58,38Z" />
                <path class="cls-7"
                    d="M96.7,38a.26.26,0,0,1-.25-.28V35.31A.26.26,0,0,1,96.7,35a.27.27,0,0,1,.26.27v2.43A.27.27,0,0,1,96.7,38Z" />
                <path class="cls-7"
                    d="M97.82,38a.26.26,0,0,1-.25-.28V35.31a.26.26,0,0,1,.25-.27.27.27,0,0,1,.26.27v2.43A.27.27,0,0,1,97.82,38Z" />
                <path class="cls-7"
                    d="M98.94,38a.26.26,0,0,1-.25-.28V35.31a.26.26,0,0,1,.25-.27.27.27,0,0,1,.26.27v2.43A.27.27,0,0,1,98.94,38Z" />
                <path class="cls-7"
                    d="M100.06,38a.26.26,0,0,1-.25-.28V35.31a.26.26,0,0,1,.25-.27.27.27,0,0,1,.26.27v2.43A.27.27,0,0,1,100.06,38Z" />
                <path class="cls-7"
                    d="M101.18,38a.26.26,0,0,1-.25-.28V35.31a.25.25,0,1,1,.5,0v2.43A.26.26,0,0,1,101.18,38Z" />
                <path class="cls-7"
                    d="M102.3,38a.26.26,0,0,1-.25-.28V35.31a.25.25,0,1,1,.5,0v2.43A.26.26,0,0,1,102.3,38Z" />
                <path class="cls-7"
                    d="M103.42,38a.27.27,0,0,1-.26-.28V35.31a.27.27,0,0,1,.26-.27.26.26,0,0,1,.25.27v2.43A.26.26,0,0,1,103.42,38Z" />
                <path class="cls-7"
                    d="M104.54,38a.27.27,0,0,1-.26-.28V35.31a.27.27,0,0,1,.26-.27.26.26,0,0,1,.25.27v2.43A.26.26,0,0,1,104.54,38Z" />
                <path class="cls-7"
                    d="M105.66,38a.27.27,0,0,1-.26-.28V35.31a.27.27,0,0,1,.26-.27.26.26,0,0,1,.25.27v2.43A.26.26,0,0,1,105.66,38Z" />
                <path class="cls-7"
                    d="M72.39,35.89a.27.27,0,0,1-.25-.28V33.18a.26.26,0,1,1,.51,0v2.43A.27.27,0,0,1,72.39,35.89Z" />
                <path class="cls-7"
                    d="M73.51,35.89a.27.27,0,0,1-.25-.28V33.18a.27.27,0,0,1,.25-.28.28.28,0,0,1,.26.28v2.43A.28.28,0,0,1,73.51,35.89Z" />
                <path class="cls-7"
                    d="M74.63,35.89a.27.27,0,0,1-.25-.28V33.18a.27.27,0,0,1,.25-.28.28.28,0,0,1,.26.28v2.43A.28.28,0,0,1,74.63,35.89Z" />
                <path class="cls-7"
                    d="M76.75,35.89a.27.27,0,0,1-.25-.28V33.18a.27.27,0,0,1,.25-.28.28.28,0,0,1,.26.28v2.43A.28.28,0,0,1,76.75,35.89Z" />
                <path class="cls-7"
                    d="M77.87,35.89a.27.27,0,0,1-.25-.28V33.18a.27.27,0,0,1,.25-.28.28.28,0,0,1,.26.28v2.43A.28.28,0,0,1,77.87,35.89Z" />
                <path class="cls-7"
                    d="M79,35.89a.27.27,0,0,1-.25-.28V33.18A.27.27,0,0,1,79,32.9a.28.28,0,0,1,.26.28v2.43A.28.28,0,0,1,79,35.89Z" />
                <path class="cls-7"
                    d="M81.11,35.89a.27.27,0,0,1-.25-.28V33.18a.27.27,0,0,1,.25-.28.28.28,0,0,1,.26.28v2.43A.28.28,0,0,1,81.11,35.89Z" />
                <path class="cls-7"
                    d="M82.23,35.89a.27.27,0,0,1-.25-.28V33.18a.25.25,0,1,1,.5,0v2.43A.27.27,0,0,1,82.23,35.89Z" />
                <path class="cls-7"
                    d="M83.35,35.89a.28.28,0,0,1-.26-.28V33.18a.28.28,0,0,1,.26-.28.27.27,0,0,1,.25.28v2.43A.27.27,0,0,1,83.35,35.89Z" />
                <path class="cls-7"
                    d="M137.38,35.89a.28.28,0,0,0,.26-.28V33.18a.28.28,0,0,0-.26-.28.27.27,0,0,0-.25.28v2.43A.27.27,0,0,0,137.38,35.89Z" />
                <path class="cls-7"
                    d="M136.26,35.89a.28.28,0,0,0,.26-.28V33.18a.28.28,0,0,0-.26-.28.27.27,0,0,0-.25.28v2.43A.27.27,0,0,0,136.26,35.89Z" />
                <path class="cls-7"
                    d="M135.14,35.89a.28.28,0,0,0,.26-.28V33.18a.28.28,0,0,0-.26-.28.27.27,0,0,0-.25.28v2.43A.27.27,0,0,0,135.14,35.89Z" />
                <path class="cls-7"
                    d="M133,35.89a.27.27,0,0,0,.26-.28V33.18a.26.26,0,1,0-.51,0v2.43A.27.27,0,0,0,133,35.89Z" />
                <path class="cls-7"
                    d="M131.91,35.89a.27.27,0,0,0,.25-.28V33.18a.26.26,0,1,0-.51,0v2.43A.27.27,0,0,0,131.91,35.89Z" />
                <path class="cls-7"
                    d="M130.79,35.89a.27.27,0,0,0,.25-.28V33.18a.27.27,0,0,0-.25-.28.28.28,0,0,0-.26.28v2.43A.28.28,0,0,0,130.79,35.89Z" />
                <path class="cls-7"
                    d="M128.67,35.89a.27.27,0,0,0,.25-.28V33.18a.27.27,0,0,0-.25-.28.28.28,0,0,0-.26.28v2.43A.28.28,0,0,0,128.67,35.89Z" />
                <path class="cls-7"
                    d="M127.55,35.89a.27.27,0,0,0,.25-.28V33.18a.27.27,0,0,0-.25-.28.28.28,0,0,0-.26.28v2.43A.28.28,0,0,0,127.55,35.89Z" />
                <path class="cls-7"
                    d="M126.43,35.89a.27.27,0,0,0,.25-.28V33.18a.27.27,0,0,0-.25-.28.28.28,0,0,0-.26.28v2.43A.28.28,0,0,0,126.43,35.89Z" />
                <path class="cls-7"
                    d="M123.67,35.89a.27.27,0,0,0,.25-.28V33.18a.27.27,0,0,0-.25-.28.28.28,0,0,0-.26.28v2.43A.28.28,0,0,0,123.67,35.89Z" />
                <path class="cls-7"
                    d="M122.55,36.89a.27.27,0,0,0,.25-.28V32.18a.27.27,0,0,0-.25-.28.28.28,0,0,0-.26.28v4.43A.28.28,0,0,0,122.55,36.89Z" />
                <path class="cls-7"
                    d="M121.43,35.89a.27.27,0,0,0,.25-.28V33.18a.27.27,0,0,0-.25-.28.28.28,0,0,0-.26.28v2.43A.28.28,0,0,0,121.43,35.89Z" />
                <path class="cls-7"
                    d="M118.67,35.89a.27.27,0,0,0,.25-.28V33.18a.27.27,0,0,0-.25-.28.28.28,0,0,0-.26.28v2.43A.28.28,0,0,0,118.67,35.89Z" />
                <path class="cls-7"
                    d="M117.55,36.89a.27.27,0,0,0,.25-.28V32.18a.27.27,0,0,0-.25-.28.28.28,0,0,0-.26.28v4.43A.28.28,0,0,0,117.55,36.89Z" />
                <path class="cls-7"
                    d="M116.43,35.89a.27.27,0,0,0,.25-.28V33.18a.27.27,0,0,0-.25-.28.28.28,0,0,0-.26.28v2.43A.28.28,0,0,0,116.43,35.89Z" />
                <polygon class="cls-22"
                    points="60.96 96.48 55.47 96.48 55.47 63.84 62.35 63.84 62.35 88.71 62.35 91 60.96 96.48" />
                <rect class="cls-23" x="57.09" y="96.48" width="1.82" height="3.15"
                    transform="translate(116 196.1) rotate(-180)" />
                <rect class="cls-24" x="56.23" y="98.68" width="3.54" height="0.95" />
                <polygon class="cls-25"
                    points="130.54 96.48 136.03 96.48 136.03 63.84 129.15 63.84 129.15 88.71 129.15 91 130.54 96.48" />
                <rect class="cls-26" x="132.59" y="96.48" width="1.82" height="3.15" />
                <rect class="cls-27" x="131.73" y="98.68" width="3.54" height="0.95"
                    transform="translate(267 198.3) rotate(-180)" />
                <rect class="cls-7" x="88.64" y="68.41" width="2.35" height="2.96" />
                <rect class="cls-7" x="88.64" y="46.33" width="2.35" height="2.96" />
                <rect class="cls-7" x="88.64" y="29.1" width="2.35" height="2.96" />
                <rect class="cls-7" x="88.64" y="56.07" width="2.35" height="2.96" />
                <rect class="cls-7" x="88.64" y="81.82" width="2.35" height="2.96" />
                <circle class="cls-28" cx="125.75" cy="74.58" r="0.63" />
                <circle class="cls-29" cx="65.75" cy="80.58" r="0.63" />
                <circle class="cls-30" cx="82.75" cy="80.58" r="0.63" />
                <rect class="cls-31" x="108.05" y="5.6" width="2.01" height="2.01" />
                <circle class="cls-32" cx="109.05" cy="6.72" r="0.64" />
                <circle class="cls-33" cx="109.05" cy="6.6" r="0.58" />
                <g class="cls-34">
                    <circle class="cls-35" cx="109.05" cy="6.6" r="0.49" />
                </g>
                <rect class="cls-36" x="90.79" y="10.34" width="2.52" height="2.52" rx="1.26" />
                <path class="cls-32" d="M91.44,11.6l.11.64a.54.54,0,0,0,.5.3.53.53,0,0,0,.5-.3l.12-.64Z" />
                <circle class="cls-37" cx="92.05" cy="11.6" r="0.58" />
                <g class="cls-34">
                    <circle class="cls-38" cx="92.05" cy="11.6" r="0.49" />
                </g>
                <rect class="cls-31" x="91.05" y="5.6" width="2.01" height="2.01" />
                <circle class="cls-32" cx="92.05" cy="6.72" r="0.64" />
                <circle class="cls-39" cx="92.05" cy="6.6" r="0.58" />
                <rect class="cls-31" x="108.05" y="10.6" width="2.01" height="2.01" />
                <circle class="cls-32" cx="109.05" cy="11.72" r="0.64" />
                <circle class="cls-40" cx="109.05" cy="11.6" r="0.58" />
                <g class="cls-34">
                    <circle class="cls-41" cx="109.05" cy="11.6" r="0.49" />
                </g>
                <polygon class="cls-42" points="63.73 37.7 52.83 37.7 51.62 34.68 64.94 34.68 63.73 37.7" />
                <rect class="cls-43" x="51.24" y="34.11" width="14.03" height="0.57" />
                <polygon class="cls-44" points="45.73 37.7 34.83 37.7 33.62 34.68 46.94 34.68 45.73 37.7" />
                <rect class="cls-45" x="33.24" y="34.11" width="14.03" height="0.57" />
                <polygon class="cls-46" points="27.73 37.7 16.83 37.7 15.62 34.68 28.94 34.68 27.73 37.7" />
                <rect class="cls-47" x="15.24" y="34.11" width="14.03" height="0.57" />
                <rect class="cls-48" x="70.47" y="10.53" width="11.75" height="7.54" />
                <rect class="cls-49" x="79.01" y="1.52" width="7.02" height="7.02" />
                <path class="cls-50"
                    d="M81,3.26V1a1,1,0,0,0-1-1H71.47a1,1,0,0,0-1,1v9.53h9.76a2,2,0,0,1,2,2V24.2a1,1,0,0,0,1,1h3.31a1,1,0,0,0,1-1V5.26H83A2,2,0,0,1,81,3.26Z" />
                <rect class="cls-51" x="69.84" y="1.15" width="10.21" height="7.75"
                    transform="translate(149.89 10.05) rotate(180)" />
                <rect class="cls-52" x="71.31" y="1.15" width="7.28" height="7.75"
                    transform="translate(149.89 10.05) rotate(180)" />
                <rect class="cls-53" x="72.06" y="3.1" width="5.77" height="3.85" rx="0.8"
                    transform="translate(149.89 10.05) rotate(180)" />
                <line class="cls-54" x1="80.05" y1="8.9" x2="80.05" y2="1.15" />
                <line class="cls-2" x1="69.84" y1="1.15" x2="69.84" y2="8.9" />
                <line class="cls-54" x1="69.84" y1="1.15" x2="80.05" y2="1.15" />
                <line class="cls-2" x1="80.05" y1="8.9" x2="69.84" y2="8.9" />
                <circle class="cls-55" cx="73.47" cy="17.84" r="5.27" />
                <circle class="cls-56" cx="73.47" cy="17.84" r="2.34" />
                <path class="cls-57" d="M82.4,21.82v2.1A3.67,3.67,0,0,0,84,26.81l3.42,2.65" />
                <rect class="cls-58" x="113.26" y="14.27" width="13.44" height="5.55" />
                <polygon class="cls-59"
                    points="124.3 14.78 123.08 14.78 122.03 15.38 121.43 16.43 121.43 17.64 122.03 18.69 123.08 19.3 124.3 19.3 125.35 18.69 125.95 17.64 125.95 16.43 125.35 15.38 124.3 14.78" />
                <line class="cls-60" x1="113.26" y1="17.28" x2="123.08" y2="14.78" />
   
            </g>
        </g>
    </g>
</svg>