<svg xmlns="http://www.w3.org/2000/svg" xmlns:xlink="http://www.w3.org/1999/xlink" viewBox="0 0 92.37 150">
    <defs>
        <style>
            .cls-1 {
                fill: url(#未命名的渐变_121);
            }

            .cls-2 {
                fill: url(#未命名的渐变_173);
            }

            .cls-3 {
                fill: url(#未命名的渐变_3);
            }

            .cls-4 {
                fill: url(#未命名的渐变_173-2);
            }

            .cls-5 {
                fill: url(#未命名的渐变_121-2);
            }

            .cls-6 {
                fill: url(#未命名的渐变_6);
            }

            .cls-7 {
                fill: url(#未命名的渐变_3-2);
            }

            .cls-8 {
                fill: url(#未命名的渐变_3-3);
            }

            .cls-9 {
                opacity: 0.3;
            }

            .cls-10 {
                fill: url(#未命名的渐变_3-4);
            }

            .cls-11 {
                fill: url(#未命名的渐变_3-5);
            }

            .cls-12 {
                fill: url(#未命名的渐变_121-3);
            }

            .cls-13 {
                fill: url(#未命名的渐变_121-4);
            }

            .cls-14 {
                fill: url(#未命名的渐变_121-5);
            }

            .cls-15 {
                fill: url(#未命名的渐变_121-6);
            }

            .cls-16 {
                fill: #252628;
            }

            .cls-17 {
                fill: url(#未命名的渐变_121-7);
            }

            .cls-18 {
                fill: url(#未命名的渐变_121-8);
            }

            .cls-19 {
                fill: url(#未命名的渐变_121-9);
            }

            .cls-20 {
                fill: url(#未命名的渐变_15);
            }

            .cls-21 {
                fill: url(#未命名的渐变_121-10);
            }

            .cls-22 {
                fill: url(#未命名的渐变_121-11);
            }

            .cls-23 {
                fill: url(#未命名的渐变_121-12);
            }

            .cls-24 {
                fill: url(#未命名的渐变_121-13);
            }

            .cls-25 {
                fill: url(#未命名的渐变_121-14);
            }

            .cls-26 {
                fill: url(#未命名的渐变_121-15);
            }

            .cls-27 {
                fill: url(#未命名的渐变_121-16);
            }

            .cls-28 {
                fill: url(#未命名的渐变_121-17);
            }

            .cls-29 {
                fill: url(#未命名的渐变_121-18);
            }

            .cls-30 {
                fill: url(#未命名的渐变_121-19);
            }

            .cls-31 {
                fill: url(#未命名的渐变_121-20);
            }

            .cls-32 {
                fill: url(#未命名的渐变_121-21);
            }

            .cls-33 {
                fill: url(#未命名的渐变_121-22);
            }

            .cls-34 {
                fill: url(#未命名的渐变_121-23);
            }

            .cls-35 {
                fill: url(#未命名的渐变_121-24);
            }

            .cls-36 {
                fill: url(#未命名的渐变_121-25);
            }

            .cls-37 {
                fill: url(#未命名的渐变_121-26);
            }

            .cls-38 {
                fill: url(#未命名的渐变_121-27);
            }

            .cls-39 {
                fill: url(#未命名的渐变_121-28);
            }

            .cls-40 {
                fill: url(#未命名的渐变_121-29);
            }

            .cls-41 {
                fill: url(#未命名的渐变_121-30);
            }

            .cls-42 {
                fill: url(#未命名的渐变_121-31);
            }

            .cls-43 {
                fill: url(#未命名的渐变_121-32);
            }

            .cls-44 {
                fill: url(#未命名的渐变_121-33);
            }

            .cls-45 {
                fill: url(#未命名的渐变_121-34);
            }

            .cls-46 {
                fill: url(#未命名的渐变_121-35);
            }

            .cls-47 {
                fill: url(#未命名的渐变_121-36);
            }

            .cls-48 {
                fill: url(#未命名的渐变_121-37);
            }

            .cls-49 {
                fill: url(#未命名的渐变_121-38);
            }

            .cls-50 {
                fill: url(#未命名的渐变_121-39);
            }

            .cls-51 {
                fill: url(#未命名的渐变_121-40);
            }

            .cls-52 {
                fill: url(#未命名的渐变_121-41);
            }

            .cls-53 {
                fill: url(#未命名的渐变_121-42);
            }

            .cls-54 {
                fill: url(#未命名的渐变_121-43);
            }

            .cls-55 {
                fill: url(#未命名的渐变_121-44);
            }

            .cls-56 {
                fill: url(#未命名的渐变_6-2);
            }

            .cls-57 {
                opacity: 0.2;
            }
        </style>
        <linearGradient id="未命名的渐变_121" x1="7.53" y1="39.35" x2="13.03" y2="39.35"
            gradientTransform="translate(19.85 -6.7)" gradientUnits="userSpaceOnUse">
            <stop offset="0" stop-color="#a9b1bb" />
            <stop offset="0.09" stop-color="#61666b" />
            <stop offset="0.18" stop-color="#696e73" />
            <stop offset="0.32" stop-color="#7e8489" />
            <stop offset="0.49" stop-color="#a1a7ae" />
            <stop offset="0.69" stop-color="#d1d8e0" />
            <stop offset="0.75" stop-color="#e2eaf2" />
            <stop offset="0.93" stop-color="#9ba1ab" />
            <stop offset="1" stop-color="#767b82" />
        </linearGradient>
        <linearGradient id="未命名的渐变_173" x1="17.56" y1="120.18" x2="24.94" y2="120.18"
            gradientTransform="translate(33.27 6.42)" gradientUnits="userSpaceOnUse">
            <stop offset="0" stop-color="#767b82" />
            <stop offset="0.01" stop-color="#5c6066" />
            <stop offset="0.88" stop-color="#7a7d80" />
            <stop offset="0.94" stop-color="#767b82" />
            <stop offset="1" stop-color="#b9c0cc" />
        </linearGradient>
        <linearGradient id="未命名的渐变_3" x1="101.26" y1="120.18" x2="109.7" y2="120.18"
            gradientTransform="translate(-50.96 -77.81)" gradientUnits="userSpaceOnUse">
            <stop offset="0" stop-color="#767b82" />
            <stop offset="0.08" stop-color="#9ba1ab" />
            <stop offset="0.91" stop-color="#9ba1ab" />
            <stop offset="0.96" stop-color="#d7dce0" />
            <stop offset="0.98" stop-color="#767b82" />
        </linearGradient>
        <linearGradient id="未命名的渐变_173-2" x1="25.3" y1="90.86" x2="83.74" y2="90.86"
            gradientTransform="matrix(1, 0, 0, 1, 0, 0)" xlink:href="#未命名的渐变_173" />
        <linearGradient id="未命名的渐变_121-2" x1="55.54" y1="99.08" x2="55.54" y2="141.29"
            gradientTransform="translate(-65.66 147.85) rotate(-90)" xlink:href="#未命名的渐变_121" />
        <linearGradient id="未命名的渐变_6" x1="58.78" y1="99.39" x2="44.84" y2="137.67"
            gradientTransform="translate(-65.66 154.94) rotate(-90)" gradientUnits="userSpaceOnUse">
            <stop offset="0" stop-color="#a9b1bb" />
            <stop offset="0.09" stop-color="#61666b" />
            <stop offset="0.18" stop-color="#696e73" />
            <stop offset="0.31" stop-color="#7e8489" />
            <stop offset="0.48" stop-color="#a1a7ae" />
            <stop offset="0.66" stop-color="#d1d8e0" />
            <stop offset="0.73" stop-color="#e2eaf2" />
            <stop offset="0.93" stop-color="#9ba1ab" />
            <stop offset="1" stop-color="#767b82" />
        </linearGradient>
        <linearGradient id="未命名的渐变_3-2" x1="18.06" y1="121.96" x2="30.13" y2="121.96"
            gradientTransform="matrix(1, 0, 0, 1, 0, 0)" xlink:href="#未命名的渐变_3" />
        <linearGradient id="未命名的渐变_3-3" x1="16.67" y1="148.88" x2="31.52" y2="148.88"
            gradientTransform="matrix(1, 0, 0, 1, 0, 0)" xlink:href="#未命名的渐变_3" />
        <linearGradient id="未命名的渐变_3-4" x1="78.91" y1="121.96" x2="90.98" y2="121.96"
            gradientTransform="matrix(1, 0, 0, 1, 0, 0)" xlink:href="#未命名的渐变_3" />
        <linearGradient id="未命名的渐变_3-5" x1="77.52" y1="148.88" x2="92.37" y2="148.88"
            gradientTransform="matrix(1, 0, 0, 1, 0, 0)" xlink:href="#未命名的渐变_3" />
        <linearGradient id="未命名的渐变_121-3" x1="33.41" y1="95.12" x2="75.63" y2="95.12"
            gradientTransform="matrix(1, 0, 0, 1, 0, 0)" xlink:href="#未命名的渐变_121" />
        <linearGradient id="未命名的渐变_121-4" x1="21.91" y1="71.38" x2="25.16" y2="71.38"
            gradientTransform="matrix(1, 0, 0, 1, 0, 0)" xlink:href="#未命名的渐变_121" />
        <linearGradient id="未命名的渐变_121-5" x1="83.32" y1="71.38" x2="86.57" y2="71.38"
            gradientTransform="matrix(1, 0, 0, 1, 0, 0)" xlink:href="#未命名的渐变_121" />
        <linearGradient id="未命名的渐变_121-6" x1="49.13" y1="19.08" x2="59.92" y2="19.08"
            gradientTransform="matrix(1, 0, 0, 1, 0, 0)" xlink:href="#未命名的渐变_121" />
        <linearGradient id="未命名的渐变_121-7" x1="4.89" y1="28.3" x2="15.68" y2="28.3"
            gradientTransform="translate(8.79 4.36)" xlink:href="#未命名的渐变_121" />
        <linearGradient id="未命名的渐变_121-8" x1="47.74" y1="27.91" x2="61.3" y2="27.91"
            gradientTransform="matrix(1, 0, 0, 1, 0, 0)" xlink:href="#未命名的渐变_121" />
        <linearGradient id="未命名的渐变_121-9" x1="47.74" y1="18.48" x2="61.3" y2="18.48"
            gradientTransform="matrix(1, 0, 0, 1, 0, 0)" xlink:href="#未命名的渐变_121" />
        <linearGradient id="未命名的渐变_15" x1="36.49" y1="87.66" x2="72.55" y2="87.66" gradientUnits="userSpaceOnUse">
            <stop offset="0" stop-color="#7a8088" />
            <stop offset="0.09" stop-color="#2d2f33" />
            <stop offset="0.19" stop-color="#35373b" />
            <stop offset="0.33" stop-color="#4a4d51" />
            <stop offset="0.51" stop-color="#6d7176" />
            <stop offset="0.71" stop-color="#9da3a8" />
            <stop offset="0.78" stop-color="#b0b7bc" />
            <stop offset="0.93" stop-color="#6d7177" />
            <stop offset="1" stop-color="#5c6067" />
        </linearGradient>
        <linearGradient id="未命名的渐变_121-10" x1="34.54" y1="82.45" x2="74.5" y2="82.45"
            gradientTransform="matrix(1, 0, 0, 1, 0, 0)" xlink:href="#未命名的渐变_121" />
        <linearGradient id="未命名的渐变_121-11" x1="47.18" y1="66.12" x2="53.8" y2="66.12"
            gradientTransform="matrix(1, 0, 0, 1, 0, 0)" xlink:href="#未命名的渐变_121" />
        <linearGradient id="未命名的渐变_121-12" x1="674.01" y1="66.12" x2="680.63" y2="66.12"
            gradientTransform="matrix(-1, 0, 0, 1, 735.31, 0)" xlink:href="#未命名的渐变_121" />
        <linearGradient id="未命名的渐变_121-13" x1="52.63" y1="50.17" x2="55.88" y2="50.17"
            gradientTransform="matrix(1, 0, 0, 1, 0, 0)" xlink:href="#未命名的渐变_121" />
        <linearGradient id="未命名的渐变_121-14" x1="52.43" y1="53.09" x2="56.07" y2="53.09"
            gradientTransform="matrix(1, 0, 0, 1, 0, 0)" xlink:href="#未命名的渐变_121" />
        <linearGradient id="未命名的渐变_121-15" x1="48.67" y1="77.72" x2="59.83" y2="77.72"
            gradientTransform="matrix(1, 0, 0, 1, 0, 0)" xlink:href="#未命名的渐变_121" />
        <linearGradient id="未命名的渐变_121-16" x1="52.43" y1="46.59" x2="56.08" y2="46.59"
            gradientTransform="matrix(1, 0, 0, 1, 0, 0)" xlink:href="#未命名的渐变_121" />
        <linearGradient id="未命名的渐变_121-17" x1="53.57" y1="62.85" x2="54.93" y2="62.85"
            gradientTransform="matrix(1, 0, 0, 1, 0, 0)" xlink:href="#未命名的渐变_121" />
        <linearGradient id="未命名的渐变_121-18" x1="40.77" y1="63.69" x2="42.13" y2="63.69"
            gradientTransform="matrix(1, 0, 0, 1, 0, 0)" xlink:href="#未命名的渐变_121" />
        <linearGradient id="未命名的渐变_121-19" x1="24.6" y1="74.91" x2="25.96" y2="74.91"
            gradientTransform="translate(19.97 1.37)" xlink:href="#未命名的渐变_121" />
        <linearGradient id="未命名的渐变_121-20" x1="53.1" y1="63.69" x2="54.46" y2="63.69"
            gradientTransform="matrix(1, 0, 0, -1, 13.25, 127.38)" xlink:href="#未命名的渐变_121" />
        <linearGradient id="未命名的渐变_121-21" x1="28.82" y1="86.49" x2="30.18" y2="86.49"
            gradientTransform="matrix(1, 0, 0, -1, 33.73, 162.77)" xlink:href="#未命名的渐变_121" />
        <linearGradient id="未命名的渐变_121-22" x1="49.46" y1="72.98" x2="59.1" y2="72.98"
            gradientTransform="matrix(1, 0, 0, 1, 0, 0)" xlink:href="#未命名的渐变_121" />
        <linearGradient id="未命名的渐变_121-23" x1="53.32" y1="72.8" x2="55.19" y2="72.8"
            gradientTransform="matrix(1, 0, 0, 1, 0, 0)" xlink:href="#未命名的渐变_121" />
        <linearGradient id="未命名的渐变_121-24" x1="53.32" y1="53.99" x2="55.19" y2="53.99"
            gradientTransform="matrix(1, 0, 0, 1, 0, 0)" xlink:href="#未命名的渐变_121" />
        <linearGradient id="未命名的渐变_121-25" x1="53.32" y1="56.87" x2="55.19" y2="56.87"
            gradientTransform="matrix(1, 0, 0, 1, 0, 0)" xlink:href="#未命名的渐变_121" />
        <linearGradient id="未命名的渐变_121-26" x1="53.32" y1="65.12" x2="55.19" y2="65.12"
            gradientTransform="matrix(1, 0, 0, 1, 0, 0)" xlink:href="#未命名的渐变_121" />
        <linearGradient id="未命名的渐变_121-27" x1="53.32" y1="65.49" x2="55.19" y2="65.49"
            gradientTransform="matrix(1, 0, 0, 1, 0, 0)" xlink:href="#未命名的渐变_121" />
        <linearGradient id="未命名的渐变_121-28" x1="59.92" y1="62.9" x2="66.54" y2="62.9"
            gradientTransform="matrix(1, 0, 0, 1, 0, 0)" xlink:href="#未命名的渐变_121" />
        <linearGradient id="未命名的渐变_121-29" x1="66.06" y1="61.9" x2="67.92" y2="61.9"
            gradientTransform="matrix(1, 0, 0, 1, 0, 0)" xlink:href="#未命名的渐变_121" />
        <linearGradient id="未命名的渐变_121-30" x1="66.06" y1="62.27" x2="67.92" y2="62.27"
            gradientTransform="matrix(1, 0, 0, 1, 0, 0)" xlink:href="#未命名的渐变_121" />
        <linearGradient id="未命名的渐变_121-31" x1="27.34" y1="62.9" x2="33.96" y2="62.9"
            gradientTransform="matrix(-1, 0, 0, 1, 75.73, 0)" xlink:href="#未命名的渐变_121" />
        <linearGradient id="未命名的渐变_121-32" x1="33.48" y1="61.9" x2="35.35" y2="61.9"
            gradientTransform="matrix(1, 0, 0, -1, 6.9, 123.81)" xlink:href="#未命名的渐变_121" />
        <linearGradient id="未命名的渐变_121-33" x1="33.48" y1="62.27" x2="35.35" y2="62.27"
            gradientTransform="matrix(1, 0, 0, -1, 6.9, 124.54)" xlink:href="#未命名的渐变_121" />
        <linearGradient id="未命名的渐变_121-34" x1="59.92" y1="69.96" x2="66.54" y2="69.96"
            gradientTransform="matrix(1, 0, 0, 1, 0, 0)" xlink:href="#未命名的渐变_121" />
        <linearGradient id="未命名的渐变_121-35" x1="66.06" y1="68.96" x2="67.92" y2="68.96"
            gradientTransform="matrix(1, 0, 0, 1, 0, 0)" xlink:href="#未命名的渐变_121" />
        <linearGradient id="未命名的渐变_121-36" x1="66.06" y1="69.33" x2="67.92" y2="69.33"
            gradientTransform="matrix(1, 0, 0, 1, 0, 0)" xlink:href="#未命名的渐变_121" />
        <linearGradient id="未命名的渐变_121-37" x1="27.34" y1="69.96" x2="33.96" y2="69.96"
            gradientTransform="matrix(-1, 0, 0, 1, 75.73, 0)" xlink:href="#未命名的渐变_121" />
        <linearGradient id="未命名的渐变_121-38" x1="33.48" y1="68.96" x2="35.35" y2="68.96"
            gradientTransform="matrix(1, 0, 0, -1, 6.9, 137.92)" xlink:href="#未命名的渐变_121" />
        <linearGradient id="未命名的渐变_121-39" x1="33.48" y1="69.33" x2="35.35" y2="69.33"
            gradientTransform="matrix(1, 0, 0, -1, 6.9, 138.66)" xlink:href="#未命名的渐变_121" />
        <linearGradient id="未命名的渐变_121-40" x1="47.18" y1="59.72" x2="53.8" y2="59.72"
            gradientTransform="matrix(1, 0, 0, 1, 0, 0)" xlink:href="#未命名的渐变_121" />
        <linearGradient id="未命名的渐变_121-41" x1="674.01" y1="59.72" x2="680.63" y2="59.72"
            gradientTransform="matrix(-1, 0, 0, 1, 735.31, 0)" xlink:href="#未命名的渐变_121" />
        <linearGradient id="未命名的渐变_121-42" x1="53.32" y1="58.72" x2="55.19" y2="58.72"
            gradientTransform="matrix(1, 0, 0, 1, 0, 0)" xlink:href="#未命名的渐变_121" />
        <linearGradient id="未命名的渐变_121-43" x1="53.32" y1="59.09" x2="55.19" y2="59.09"
            gradientTransform="matrix(1, 0, 0, 1, 0, 0)" xlink:href="#未命名的渐变_121" />
        <linearGradient id="未命名的渐变_121-44" x1="34.54" y1="49.69" x2="74.5" y2="49.69"
            gradientTransform="matrix(1, 0, 0, 1, 0, 0)" xlink:href="#未命名的渐变_121" />
        <linearGradient id="未命名的渐变_6-2" x1="44.53" y1="57.55" x2="64.51" y2="37.57"
            gradientTransform="matrix(1, 0, 0, 1, 0, 0)" xlink:href="#未命名的渐变_6" />
    </defs>
    <title>Turbo emulsifier(涡轮乳化剂)</title>
    <g id="图层_2" data-name="图层 2">
        <g id="图层_6" data-name="图层 6">
            <g id="Turbo_emulsifier_涡轮乳化剂_" data-name="Turbo emulsifier(涡轮乳化剂)">
                <rect class="cls-1" x="27.38" y="13.58" width="5.5" height="38.15"
                    transform="translate(-2.52 62.79) rotate(-90)" />
                <rect class="cls-2" x="50.83" y="100.06" width="7.38" height="53.07"
                    transform="translate(-72.08 181.12) rotate(-90)" />
                <rect class="cls-3" x="50.3" y="5.91" width="8.44" height="72.91"
                    transform="translate(12.15 96.89) rotate(-90)" />
                <polygon class="cls-4"
                    points="70.98 85.45 38.06 85.45 25.3 90.33 25.3 96.27 83.74 96.27 83.74 90.33 70.98 85.45" />
                <polygon class="cls-5" points="72.77 91.39 75.63 93.23 33.41 93.23 36.27 91.39 72.77 91.39" />
                <path class="cls-6" d="M75.63,97l-.41,3.85s-2.92,15.62-20.7,15.62-20.7-15.62-20.7-15.62L33.41,97Z" />
                <rect class="cls-7" x="18.06" y="96.17" width="12.07" height="51.59" />
                <rect class="cls-8" x="16.67" y="147.76" width="14.85" height="2.24" />
                <g class="cls-9">
                    <rect x="18.06" y="147.65" width="12.07" height="0.21" />
                </g>
                <rect class="cls-10" x="78.91" y="96.17" width="12.07" height="51.59" />
                <rect class="cls-11" x="77.52" y="147.76" width="14.85" height="2.24" />
                <g class="cls-9">
                    <rect x="78.91" y="147.65" width="12.07" height="0.21" />
                </g>
                <rect class="cls-12" x="33.41" y="93.24" width="42.21" height="3.77" />
                <rect class="cls-13" x="21.91" y="46.59" width="3.25" height="49.58" />
                <rect class="cls-14" x="83.32" y="46.59" width="3.25" height="49.58" />
                <rect class="cls-15" x="49.13" width="10.79" height="38.15" />
                <rect class="cls-16" x="51.18" y="4.86" width="1.05" height="11.66" />
                <rect class="cls-16" x="49.77" y="4.86" width="1.05" height="11.66" />
                <rect class="cls-16" x="52.59" y="4.86" width="1.05" height="11.66" />
                <rect class="cls-16" x="54" y="4.86" width="1.05" height="11.66" />
                <rect class="cls-16" x="55.4" y="4.86" width="1.05" height="11.66" />
                <rect class="cls-16" x="56.81" y="4.86" width="1.05" height="11.66" />
                <rect class="cls-16" x="58.22" y="4.86" width="1.05" height="11.66" />
                <rect class="cls-17" x="13.68" y="13.58" width="10.79" height="38.15"
                    transform="translate(-13.58 51.73) rotate(-90)" />
                <rect class="cls-18" x="47.74" y="27.31" width="13.56" height="1.2" />
                <rect class="cls-19" x="47.74" y="17.88" width="13.56" height="1.2" />
                <rect class="cls-20" x="36.49" y="83.93" width="36.07" height="7.46" />
                <rect class="cls-21" x="34.54" y="80.97" width="39.96" height="2.96" />
                <polygon class="cls-22"
                    points="52.83 65.49 52.08 67.12 47.18 66.24 47.18 65.28 53.8 65.12 53.72 65.35 52.83 65.49" />
                <polygon class="cls-23"
                    points="55.66 65.49 56.4 67.12 61.3 66.24 61.3 65.28 54.68 65.12 54.76 65.35 55.66 65.49" />
                <rect class="cls-24" x="52.63" y="47.75" width="3.26" height="4.84" />
                <rect class="cls-25" x="52.43" y="52.59" width="3.64" height="1" />
                <rect class="cls-26" x="48.67" y="77.22" width="11.16" height="1" />
                <rect class="cls-27" x="52.43" y="45.43" width="3.65" height="2.32" />
                <rect class="cls-28" x="53.57" y="53.59" width="1.36" height="18.53" />
                <path class="cls-29"
                    d="M40.77,51.81h1.36a0,0,0,0,1,0,0V74.88a.68.68,0,0,1-.68.68h0a.68.68,0,0,1-.68-.68V51.81a0,0,0,0,1,0,0Z" />
                <rect class="cls-30" x="44.57" y="71.56" width="1.36" height="9.44" rx="0.68"
                    transform="translate(-41.91 92.71) rotate(-70)" />
                <path class="cls-31"
                    d="M67,51.81h0a.68.68,0,0,1,.68.68V75.56a0,0,0,0,1,0,0H66.35a0,0,0,0,1,0,0V52.49a.68.68,0,0,1,.68-.68Z"
                    transform="translate(134.06 127.38) rotate(180)" />
                <rect class="cls-32" x="62.55" y="71.56" width="1.36" height="9.44" rx="0.68"
                    transform="translate(13.18 161.79) rotate(-110)" />
                <polygon class="cls-33" points="59.1 72.67 54.32 74.02 49.46 72.71 49.46 71.94 59.1 71.94 59.1 72.67" />
                <rect class="cls-34" x="53.32" y="71.94" width="1.87" height="1.7" />
                <rect class="cls-35" x="53.32" y="53.59" width="1.87" height="0.8" />
                <rect class="cls-36" x="53.32" y="56.64" width="1.87" height="0.47" />
                <rect class="cls-37" x="53.32" y="65.04" width="1.87" height="0.18" />
                <rect class="cls-38" x="53.32" y="65.4" width="1.87" height="0.18" />
                <polygon class="cls-39"
                    points="65.56 62.27 64.82 63.9 59.91 63.02 59.91 62.06 66.54 61.9 66.46 62.13 65.56 62.27" />
                <rect class="cls-40" x="66.06" y="61.81" width="1.87" height="0.18" />
                <rect class="cls-41" x="66.06" y="62.18" width="1.87" height="0.18" />
                <polygon class="cls-42"
                    points="42.74 62.27 43.48 63.9 48.39 63.02 48.39 62.06 41.77 61.9 41.84 62.13 42.74 62.27" />
                <rect class="cls-43" x="40.38" y="61.81" width="1.87" height="0.18"
                    transform="translate(82.63 123.81) rotate(-180)" />
                <rect class="cls-44" x="40.38" y="62.18" width="1.87" height="0.18"
                    transform="translate(82.63 124.54) rotate(-180)" />
                <polygon class="cls-45"
                    points="65.56 69.33 64.82 70.95 59.91 70.08 59.91 69.12 66.54 68.96 66.46 69.18 65.56 69.33" />
                <rect class="cls-46" x="66.06" y="68.87" width="1.87" height="0.18" />
                <rect class="cls-47" x="66.06" y="69.24" width="1.87" height="0.18" />
                <polygon class="cls-48"
                    points="42.74 69.33 43.48 70.95 48.39 70.08 48.39 69.12 41.77 68.96 41.84 69.18 42.74 69.33" />
                <rect class="cls-49" x="40.38" y="68.87" width="1.87" height="0.18"
                    transform="translate(82.63 137.92) rotate(-180)" />
                <rect class="cls-50" x="40.38" y="69.24" width="1.87" height="0.18"
                    transform="translate(82.63 138.66) rotate(-180)" />
                <polygon class="cls-51"
                    points="52.83 59.09 52.08 60.72 47.18 59.84 47.18 58.88 53.8 58.72 53.72 58.95 52.83 59.09" />
                <polygon class="cls-52"
                    points="55.66 59.09 56.4 60.72 61.3 59.84 61.3 58.88 54.68 58.72 54.76 58.95 55.66 59.09" />
                <rect class="cls-53" x="53.32" y="58.63" width="1.87" height="0.18" />
                <rect class="cls-54" x="53.32" y="59" width="1.87" height="0.18" />
                <rect class="cls-55" x="34.54" y="47.56" width="39.96" height="4.25" />
                <path class="cls-56" d="M74.5,47.56h-40a33.06,33.06,0,0,1,40,0Z" />
                <rect class="cls-16" x="7.48" y="29.64" width="1.05" height="11.66"
                    transform="translate(-27.46 43.48) rotate(-90)" />
                <rect class="cls-16" x="7.48" y="31.05" width="1.05" height="11.66"
                    transform="translate(-28.87 44.89) rotate(-90)" />
                <rect class="cls-16" x="7.48" y="28.23" width="1.05" height="11.66"
                    transform="translate(-26.05 42.07) rotate(-90)" />
                <rect class="cls-16" x="7.48" y="26.82" width="1.05" height="11.66"
                    transform="translate(-24.65 40.66) rotate(-90)" />
                <rect class="cls-16" x="7.48" y="25.42" width="1.05" height="11.66"
                    transform="translate(-23.24 39.25) rotate(-90)" />
                <rect class="cls-16" x="7.48" y="24.01" width="1.05" height="11.66"
                    transform="translate(-21.83 37.85) rotate(-90)" />
                <rect class="cls-16" x="7.48" y="22.6" width="1.05" height="11.66"
                    transform="translate(-20.42 36.44) rotate(-90)" />
                <rect class="cls-16" x="13.84" y="27.31" width="0.26" height="10.74" />
                <rect class="cls-16" x="54.39" y="-0.38" width="0.26" height="10.74"
                    transform="translate(59.51 -49.53) rotate(90)" />
               
            </g>
        </g>
    </g>
</svg>