<svg xmlns="http://www.w3.org/2000/svg" xmlns:xlink="http://www.w3.org/1999/xlink" viewBox="0 0 150 123.32">
    <defs>
        <style>
            .cls-1 {
                fill: url(#未命名的渐变_295);
            }

            .cls-2 {
                fill: url(#未命名的渐变_295-2);
            }

            .cls-3 {
                fill: url(#未命名的渐变_295-3);
            }

            .cls-4 {
                fill: url(#未命名的渐变_295-4);
            }

            .cls-5 {
                fill: url(#未命名的渐变_32);
            }

            .cls-6 {
                fill: url(#未命名的渐变_3);
            }

            .cls-7 {
                fill: url(#未命名的渐变_3-2);
            }

            .cls-8 {
                fill: url(#未命名的渐变_247);
            }

            .cls-9 {
                fill: url(#未命名的渐变_3-3);
            }

            .cls-10 {
                fill: url(#未命名的渐变_295-5);
            }

            .cls-11 {
                fill: url(#未命名的渐变_295-6);
            }

            .cls-12 {
                fill: url(#未命名的渐变_3-4);
            }

            .cls-13 {
                fill: url(#未命名的渐变_295-7);
            }

            .cls-14,
            .cls-15,
            .cls-16 {
                fill: none;
                stroke-miterlimit: 10;
                stroke-width: 0.25px;
            }

            .cls-14 {
                stroke: #bbc2cc;
            }

            .cls-15 {
                stroke: #5e6266;
            }

            .cls-16 {
                stroke: #d3dbe6;
            }

            .cls-17 {
                fill: url(#未命名的渐变_32-2);
            }

            .cls-18 {
                fill: url(#未命名的渐变_93);
            }

            .cls-19 {
                fill: url(#未命名的渐变_304);
            }

            .cls-20 {
                fill: #252628;
            }

            .cls-21 {
                fill: url(#未命名的渐变_173);
            }

            .cls-22 {
                fill: url(#未命名的渐变_173-2);
            }

            .cls-23 {
                fill: url(#未命名的渐变_173-3);
            }

            .cls-24 {
                fill: url(#未命名的渐变_173-4);
            }

            .cls-25 {
                fill: url(#未命名的渐变_173-5);
            }

            .cls-26 {
                fill: url(#未命名的渐变_195);
            }

            .cls-27 {
                opacity: 0.2;
            }
        </style>
        <linearGradient id="未命名的渐变_295" x1="89" y1="18.61" x2="89" y2="4.32" gradientUnits="userSpaceOnUse">
            <stop offset="0" stop-color="#a9b1bb" />
            <stop offset="0.06" stop-color="#767b82" />
            <stop offset="0.78" stop-color="#e2eaf2" />
            <stop offset="0.93" stop-color="#9ba1ab" />
            <stop offset="1" stop-color="#767b82" />
        </linearGradient>
        <linearGradient id="未命名的渐变_295-2" x1="1205.07" y1="41.59" x2="1205.07" y2="38.24"
            gradientTransform="matrix(0.21, 0, 0, 2.23, -241.5, -43.35)" xlink:href="#未命名的渐变_295" />
        <linearGradient id="未命名的渐变_295-3" x1="5.61" y1="33.88" x2="5.61" y2="30.07" xlink:href="#未命名的渐变_295" />
        <linearGradient id="未命名的渐变_295-4" x1="1525.53" y1="59.71" x2="1525.53" y2="56.36"
            gradientTransform="matrix(0.06, 0, 0, 0.5, -79.97, 35.33)" xlink:href="#未命名的渐变_295" />
        <linearGradient id="未命名的渐变_32" x1="35.88" y1="28.64" x2="15.6" y2="48.92" gradientUnits="userSpaceOnUse">
            <stop offset="0" stop-color="#abafb3" />
            <stop offset="1" stop-color="#45484d" />
        </linearGradient>
        <linearGradient id="未命名的渐变_3" x1="24.92" y1="52.42" x2="17.52" y2="59.82" gradientUnits="userSpaceOnUse">
            <stop offset="0" stop-color="#767b82" />
            <stop offset="0.08" stop-color="#9ba1ab" />
            <stop offset="0.91" stop-color="#9ba1ab" />
            <stop offset="0.96" stop-color="#d7dce0" />
            <stop offset="0.98" stop-color="#767b82" />
        </linearGradient>
        <linearGradient id="未命名的渐变_3-2" x1="22.49" y1="29.61" x2="15.28" y2="36.81" xlink:href="#未命名的渐变_3" />
        <linearGradient id="未命名的渐变_247" x1="88.96" y1="85.62" x2="88.96" y2="21.29" gradientUnits="userSpaceOnUse">
            <stop offset="0" stop-color="#8a9199" />
            <stop offset="0.08" stop-color="#5d6166" />
            <stop offset="0.15" stop-color="#676b71" />
            <stop offset="0.27" stop-color="#81868d" />
            <stop offset="0.42" stop-color="#acb2bc" />
            <stop offset="0.47" stop-color="#bbc2cc" />
            <stop offset="0.54" stop-color="#bbc2cc" />
            <stop offset="1" stop-color="#bbc2cc" />
        </linearGradient>
        <linearGradient id="未命名的渐变_3-3" x1="1316.66" y1="27.28" x2="1316.66" y2="23.1"
            gradientTransform="matrix(0.1, 0, 0, 2.08, -102.37, 28.24)" xlink:href="#未命名的渐变_3" />
        <linearGradient id="未命名的渐变_295-5" x1="1319.93" y1="26.4" x2="1319.93" y2="23.98"
            gradientTransform="matrix(0.35, 0, 0, 2.08, -425.82, 51.52)" xlink:href="#未命名的渐变_295" />
        <linearGradient id="未命名的渐变_295-6" x1="1397.83" y1="23.12" x2="1397.83" y2="20.5"
            gradientTransform="matrix(0.35, 0, 0, 2.08, -399.34, 60.26)" xlink:href="#未命名的渐变_295" />
        <linearGradient id="未命名的渐变_3-4" x1="1316.67" y1="-24.37" x2="1316.67" y2="-28.55"
            gradientTransform="matrix(0.1, 0, 0, 2.08, 5.06, 135.67)" xlink:href="#未命名的渐变_3" />
        <linearGradient id="未命名的渐变_295-7" x1="1319.94" y1="-25.25" x2="1319.94" y2="-27.67"
            gradientTransform="matrix(0.35, 0, 0, 2.08, -318.4, 158.94)" xlink:href="#未命名的渐变_295" />
        <linearGradient id="未命名的渐变_32-2" x1="26.65" y1="66.5" x2="1.35" y2="91.8" xlink:href="#未命名的渐变_32" />
        <linearGradient id="未命名的渐变_93" x1="20.99" y1="60.85" x2="7" y2="74.85" gradientUnits="userSpaceOnUse">
            <stop offset="0" stop-color="#ebf0f5" />
            <stop offset="1" stop-color="#8a9099" />
        </linearGradient>
        <linearGradient id="未命名的渐变_304" x1="20.99" y1="56.59" x2="7" y2="70.58"
            gradientTransform="matrix(1, 0, 0, -1, 0, 154.04)" gradientUnits="userSpaceOnUse">
            <stop offset="0" stop-color="#616466" />
            <stop offset="1" stop-color="#2e3033" />
        </linearGradient>
        <linearGradient id="未命名的渐变_173" x1="89" y1="21.29" x2="89" y2="16.97" gradientUnits="userSpaceOnUse">
            <stop offset="0" stop-color="#767b82" />
            <stop offset="0.01" stop-color="#5c6066" />
            <stop offset="0.88" stop-color="#7a7d80" />
            <stop offset="0.94" stop-color="#767b82" />
            <stop offset="1" stop-color="#b9c0cc" />
        </linearGradient>
        <linearGradient id="未命名的渐变_173-2" x1="47.77" y1="-10.6" x2="47.77" y2="-14.92"
            gradientTransform="matrix(1, 0, 0, 1, -17.62, 21.26)" xlink:href="#未命名的渐变_173" />
        <linearGradient id="未命名的渐变_173-3" x1="47.77" y1="28" x2="47.77" y2="23.68"
            gradientTransform="matrix(1, 0, 0, 1, 20.98, -17.34)" xlink:href="#未命名的渐变_173" />
        <linearGradient id="未命名的渐变_173-4" x1="47.77" y1="65" x2="47.77" y2="60.68"
            gradientTransform="matrix(1, 0, 0, 1, 57.98, -54.34)" xlink:href="#未命名的渐变_173" />
        <linearGradient id="未命名的渐变_173-5" x1="47.77" y1="107.09" x2="47.77" y2="102.77"
            gradientTransform="matrix(1, 0, 0, 1, 100.07, -96.43)" xlink:href="#未命名的渐变_173" />
        <linearGradient id="未命名的渐变_195" x1="19.48" y1="66.14" x2="19.48" y2="57.08" gradientUnits="userSpaceOnUse">
            <stop offset="0" stop-color="#a9b1bb" />
            <stop offset="0.09" stop-color="#a2aab3" />
            <stop offset="0.66" stop-color="#a2a8b3" />
            <stop offset="0.9" stop-color="#e2eaf2" />
            <stop offset="1" stop-color="#767b82" />
        </linearGradient>
    </defs>
    <title>Vacuum mixer blender(真空搅拌机)</title>
    <g id="图层_2" data-name="图层 2">
        <g id="图层_6" data-name="图层 6">
            <g id="Vacuum_mixer_blender_真空搅拌机_" data-name="Vacuum mixer blender(真空搅拌机)">
                <rect class="cls-1" x="27.99" y="4.32" width="122.01" height="14.29" />
                <rect class="cls-2" x="-6.85" y="41.99" width="30.06" height="7.48"
                    transform="translate(50.24 26) rotate(75)" />
                <polygon class="cls-3"
                    points="10.54 31.36 10.5 31.37 1.13 33.88 0.68 32.18 8.54 30.07 10.2 30.07 10.54 31.36" />
                <rect class="cls-4" x="8.78" y="63.69" width="8.86" height="1.69"
                    transform="matrix(0.26, 0.97, -0.97, 0.26, 72.13, 35.06)" />
                <rect class="cls-5" x="22.95" y="21.29" width="5.59" height="34.99" />
                <polygon class="cls-6" points="22.95 50.45 22.95 58.32 16.02 58.32 22.95 50.45" />
                <polygon class="cls-7" points="22.95 30.07 22.95 42.63 10.03 31.37 8.54 30.07 22.95 30.07" />
                <rect class="cls-8" x="27.93" y="21.29" width="122.07" height="64.33" />
                <rect class="cls-9" x="31.68" y="76.29" width="7.75" height="8.69"
                    transform="translate(116.19 45.09) rotate(90)" />
                <rect class="cls-10" x="16.14" y="101.39" width="38.81" height="5.04"
                    transform="translate(139.46 68.37) rotate(90)" />
                <rect class="cls-11" x="38.07" y="102.9" width="102.38" height="5.45" />
                <rect class="cls-12" x="139.1" y="76.29" width="7.75" height="8.69"
                    transform="translate(223.61 -62.33) rotate(90)" />
                <rect class="cls-13" x="123.57" y="101.39" width="38.81" height="5.04"
                    transform="translate(246.89 -39.06) rotate(90)" />
                <line class="cls-14" x1="66" y1="85.62" x2="66" y2="57.9" />
                <line class="cls-15" x1="67.44" y1="57.9" x2="67.44" y2="85.62" />
                <line class="cls-14" x1="115" y1="85.62" x2="115" y2="57.9" />
                <line class="cls-15" x1="116.44" y1="57.9" x2="116.44" y2="85.62" />
                <line class="cls-16" x1="150" y1="21.29" x2="27.99" y2="21.29" />
                <line class="cls-15" x1="27.99" y1="57.9" x2="150" y2="57.9" />
                <rect class="cls-17" y="67.85" width="27.99" height="22.61" />
                <polygon class="cls-18" points="27.99 67.85 0 67.85 2 66.14 26 66.14 27.99 67.85" />
                <polygon class="cls-19" points="27.99 90.46 0 90.46 2 92.17 26 92.17 27.99 90.46" />
                <path class="cls-20"
                    d="M19.71,71.16A26.15,26.15,0,0,1,18.47,74c-.71.67-1.38,1.36-2.07,2l-4.12,4.08L8.16,84.2l-2.06,2c-.94.44-1.86.88-2.87,1.24a30.45,30.45,0,0,1,1.25-2.84l2.06-2,4.12-4.08,4.12-4.08c.68-.69,1.38-1.36,2-2A25.7,25.7,0,0,1,19.71,71.16Z" />
                <path class="cls-20"
                    d="M14.64,71a16.27,16.27,0,0,1-.72,2.14c-.5.47-1,1-1.44,1.43L9.61,77.46,6.75,80.33,5.32,81.76a21.48,21.48,0,0,1-2.14.73,19,19,0,0,1,.74-2.13l1.43-1.43,2.86-2.87,2.87-2.86c.47-.48,1-1,1.42-1.44A16.8,16.8,0,0,1,14.64,71Z" />
                <path class="cls-20"
                    d="M9.17,71.4a8.28,8.28,0,0,1,0,1.41c-.25.22-.47.46-.71.69l-1.4,1.41-1.41,1.4L5,77a9.28,9.28,0,0,1-1.4,0,9.33,9.33,0,0,1,0-1.4l.7-.71,1.41-1.4,1.4-1.41c.23-.23.48-.46.7-.7A7.36,7.36,0,0,1,9.17,71.4Z" />
                <path class="cls-20"
                    d="M19.39,81.62a8.28,8.28,0,0,1,0,1.41c-.25.22-.47.46-.71.69l-1.4,1.41-1.41,1.4-.7.7a9.27,9.27,0,0,1-1.4,0,9.33,9.33,0,0,1,0-1.4l.71-.71,1.4-1.4,1.4-1.4c.24-.24.48-.47.7-.71A7.36,7.36,0,0,1,19.39,81.62Z" />
                <path class="cls-20"
                    d="M19.75,76.15A15.21,15.21,0,0,1,19,78.28c-.49.47-1,1-1.44,1.43l-2.87,2.86-2.86,2.87-1.43,1.43a19.74,19.74,0,0,1-2.13.73A17.19,17.19,0,0,1,9,85.47L10.46,84l2.86-2.87,2.87-2.86c.47-.48,1-1,1.42-1.44A15.35,15.35,0,0,1,19.75,76.15Z" />
                <rect class="cls-21" x="27.99" y="16.97" width="122.01" height="4.32" />
                <rect class="cls-22" x="21.67" y="6.32" width="16.97" height="4.32"
                    transform="translate(21.67 38.64) rotate(-90)" />
                <rect class="cls-23" x="60.27" y="6.32" width="16.97" height="4.32"
                    transform="translate(60.27 77.24) rotate(-90)" />
                <rect class="cls-24" x="97.27" y="6.32" width="16.97" height="4.32"
                    transform="translate(97.27 114.24) rotate(-90)" />
                <rect class="cls-25" x="139.36" y="6.32" width="16.97" height="4.32"
                    transform="translate(139.36 156.32) rotate(-90)" />
                <path class="cls-26" d="M20.72,61.16V58.32a1.24,1.24,0,1,0-2.47,0v2.84H16v5H23v-5Z" />
              
            </g>
        </g>
    </g>
</svg>