<svg xmlns="http://www.w3.org/2000/svg" xmlns:xlink="http://www.w3.org/1999/xlink" viewBox="0 0 150 150">
    <defs>
        <style>
            .cls-1 {
                fill: url(#未命名的渐变_93);
            }

            .cls-2 {
                fill: url(#未命名的渐变_121);
            }

            .cls-3 {
                fill: url(#未命名的渐变_121-2);
            }

            .cls-4 {
                fill: url(#未命名的渐变_93-2);
            }

            .cls-5 {
                fill: url(#未命名的渐变_121-3);
            }

            .cls-6 {
                fill: url(#未命名的渐变_121-4);
            }

            .cls-7 {
                fill: url(#未命名的渐变_93-3);
            }

            .cls-8 {
                fill: url(#未命名的渐变_93-4);
            }

            .cls-9 {
                fill: #8a9099;
            }

            .cls-10 {
                fill: url(#未命名的渐变_121-5);
            }

            .cls-11 {
                fill: url(#未命名的渐变_121-6);
            }

            .cls-12 {
                fill: url(#未命名的渐变_93-5);
            }

            .cls-13 {
                fill: url(#未命名的渐变_93-6);
            }

            .cls-14,
            .cls-36 {
                fill: #fff;
            }

            .cls-14 {
                opacity: 0.6;
            }

            .cls-15 {
                fill: url(#未命名的渐变_340);
            }

            .cls-16 {
                fill: url(#未命名的渐变_335);
            }

            .cls-17 {
                fill: url(#未命名的渐变_93-7);
            }

            .cls-18 {
                fill: #e7ecf0;
            }

            .cls-19 {
                fill: url(#未命名的渐变_32);
            }

            .cls-20 {
                fill: url(#未命名的渐变_121-7);
            }

            .cls-21 {
                fill: url(#未命名的渐变_310);
            }

            .cls-22 {
                fill: url(#未命名的渐变_306);
            }

            .cls-23 {
                fill: url(#未命名的渐变_32-2);
            }

            .cls-24 {
                fill: url(#未命名的渐变_89);
            }

            .cls-25 {
                fill: #252628;
            }

            .cls-26 {
                fill: url(#未命名的渐变_26);
            }

            .cls-27 {
                fill: url(#未命名的渐变_32-3);
            }

            .cls-28 {
                fill: url(#未命名的渐变_336);
            }

            .cls-29 {
                fill: url(#未命名的渐变_26-2);
            }

            .cls-30 {
                fill: url(#未命名的渐变_32-4);
            }

            .cls-31 {
                fill: url(#未命名的渐变_336-2);
            }

            .cls-32 {
                fill: url(#未命名的渐变_93-8);
            }

            .cls-33 {
                fill: url(#未命名的渐变_32-5);
            }

            .cls-34 {
                fill: url(#未命名的渐变_72);
            }

            .cls-35 {
                fill: url(#未命名的渐变_124);
            }

            .cls-37 {
                fill: #a63c27;
            }

            .cls-38 {
                fill: #a8afb5;
            }

            .cls-39 {
                fill: url(#未命名的渐变_72-2);
            }

            .cls-40 {
                fill: url(#未命名的渐变_124-2);
            }

            .cls-41 {
                fill: url(#未命名的渐变_72-3);
            }

            .cls-42 {
                fill: url(#未命名的渐变_124-3);
            }

            .cls-43,
            .cls-46 {
                fill: #ffe549;
            }

            .cls-44 {
                fill: url(#未命名的渐变_72-4);
            }

            .cls-45 {
                fill: url(#未命名的渐变_124-4);
            }

            .cls-46,
            .cls-50 {
                opacity: 0.2;
            }

            .cls-47 {
                fill: url(#未命名的渐变_89-2);
            }

            .cls-48 {
                fill: url(#未命名的渐变_89-3);
            }

            .cls-49 {
                fill: url(#未命名的渐变_89-4);
            }
        </style>
        <linearGradient id="未命名的渐变_93" x1="5.45" y1="18.05" x2="-3.43" y2="26.93"
            gradientTransform="translate(-11.67 63.59) rotate(-90)" gradientUnits="userSpaceOnUse">
            <stop offset="0" stop-color="#ebf0f5" />
            <stop offset="1" stop-color="#8a9099" />
        </linearGradient>
        <linearGradient id="未命名的渐变_121" x1="9.9" y1="49.7" x2="11.34" y2="49.7"
            gradientTransform="matrix(1, 0, 0, 1.71, 1.75, -48.7)" gradientUnits="userSpaceOnUse">
            <stop offset="0" stop-color="#a9b1bb" />
            <stop offset="0.09" stop-color="#61666b" />
            <stop offset="0.18" stop-color="#696e73" />
            <stop offset="0.32" stop-color="#7e8489" />
            <stop offset="0.49" stop-color="#a1a7ae" />
            <stop offset="0.69" stop-color="#d1d8e0" />
            <stop offset="0.75" stop-color="#e2eaf2" />
            <stop offset="0.93" stop-color="#9ba1ab" />
            <stop offset="1" stop-color="#767b82" />
        </linearGradient>
        <linearGradient id="未命名的渐变_121-2" x1="8.79" y1="54.3" x2="12.51" y2="54.3"
            gradientTransform="translate(-1.9 -4.64) rotate(0.02)" xlink:href="#未命名的渐变_121" />
        <linearGradient id="未命名的渐变_93-2" x1="6.59" y1="114.1" x2="-2.29" y2="122.99"
            gradientTransform="matrix(0, -1, -1, 0, 237.95, 63.59)" xlink:href="#未命名的渐变_93" />
        <linearGradient id="未命名的渐变_121-3" x1="102.38" y1="34.51" x2="103.83" y2="34.51"
            gradientTransform="matrix(1, 0, 0, -1.71, 14.82, 94.1)" xlink:href="#未命名的渐变_121" />
        <linearGradient id="未命名的渐变_121-4" x1="101.27" y1="28.34" x2="104.99" y2="28.34"
            gradientTransform="matrix(1, 0, 0, -1, 18.38, 76.9)" xlink:href="#未命名的渐变_121" />
        <linearGradient id="未命名的渐变_93-3" x1="112.99" y1="45.81" x2="16.71" y2="142.09"
            gradientTransform="matrix(1, 0, 0, 1, 0, 0)" xlink:href="#未命名的渐变_93" />
        <linearGradient id="未命名的渐变_93-4" x1="110.22" y1="44.72" x2="19.48" y2="135.45"
            gradientTransform="matrix(1, 0, 0, 1, 0, 0)" xlink:href="#未命名的渐变_93" />
        <linearGradient id="未命名的渐变_121-5" x1="131.54" y1="129.07" x2="131.54" y2="110.39"
            gradientTransform="matrix(1, 0, 0, 1, 0, 0)" xlink:href="#未命名的渐变_121" />
        <linearGradient id="未命名的渐变_121-6" x1="148.53" y1="131.84" x2="148.53" y2="107.62"
            gradientTransform="matrix(1, 0, 0, 1, 0, 0)" xlink:href="#未命名的渐变_121" />
        <linearGradient id="未命名的渐变_93-5" x1="142.87" y1="74.64" x2="105.13" y2="112.38"
            gradientTransform="matrix(1, 0, 0, 1, 0, 0)" xlink:href="#未命名的渐变_93" />
        <linearGradient id="未命名的渐变_93-6" x1="93.89" y1="28.64" x2="35.8" y2="86.73"
            gradientTransform="matrix(1, 0, 0, 1, 0, 0)" xlink:href="#未命名的渐变_93" />
        <linearGradient id="未命名的渐变_340" x1="64.85" y1="71.84" x2="64.85" y2="66.54" gradientUnits="userSpaceOnUse">
            <stop offset="0" stop-color="#5b5f66" />
            <stop offset="1" stop-color="#7b7d80" />
        </linearGradient>
        <linearGradient id="未命名的渐变_335" x1="92.88" y1="50.64" x2="36.82" y2="106.7" gradientUnits="userSpaceOnUse">
            <stop offset="0" stop-color="#ebf0f5" />
            <stop offset="1" stop-color="#b8c0cc" />
        </linearGradient>
        <linearGradient id="未命名的渐变_93-7" x1="102.41" y1="-12.67" x2="27.29" y2="62.45"
            gradientTransform="matrix(1, 0, 0, 1, 0, 0)" xlink:href="#未命名的渐变_93" />
        <linearGradient id="未命名的渐变_32" x1="97.87" y1="-8.13" x2="31.83" y2="57.9" gradientUnits="userSpaceOnUse">
            <stop offset="0" stop-color="#abafb3" />
            <stop offset="1" stop-color="#45484d" />
        </linearGradient>
        <linearGradient id="未命名的渐变_121-7" x1="64.06" y1="24.89" x2="66.38" y2="24.89"
            gradientTransform="matrix(1, 0, 0, 1, 0, 0)" xlink:href="#未命名的渐变_121" />
        <linearGradient id="未命名的渐变_310" x1="25.57" y1="64.48" x2="25.57" y2="53.26" gradientUnits="userSpaceOnUse">
            <stop offset="0" stop-color="#8a9099" />
            <stop offset="1" stop-color="#dce1e6" />
        </linearGradient>
        <linearGradient id="未命名的渐变_306" x1="25.57" y1="64.48" x2="25.57" y2="53.26" gradientUnits="userSpaceOnUse">
            <stop offset="0" stop-color="#5c6066" />
            <stop offset="1" stop-color="#dce1e6" />
        </linearGradient>
        <linearGradient id="未命名的渐变_32-2" x1="25.57" y1="63.97" x2="25.57" y2="53.77" xlink:href="#未命名的渐变_32" />
        <linearGradient id="未命名的渐变_89" x1="25.57" y1="63.75" x2="25.57" y2="53.99" gradientUnits="userSpaceOnUse">
            <stop offset="0" stop-color="#61666b" />
            <stop offset="0.07" stop-color="#696e73" />
            <stop offset="0.18" stop-color="#7e8489" />
            <stop offset="0.32" stop-color="#a1a7ae" />
            <stop offset="0.48" stop-color="#d1d8e0" />
            <stop offset="0.53" stop-color="#e2eaf2" />
            <stop offset="1" stop-color="#767b82" />
        </linearGradient>
        <linearGradient id="未命名的渐变_26" y1="143.37" x2="13.27" y2="143.37" gradientUnits="userSpaceOnUse">
            <stop offset="0" stop-color="#dce1e6" />
            <stop offset="1" stop-color="#5c6066" />
        </linearGradient>
        <linearGradient id="未命名的渐变_32-3" x1="9.73" y1="137.11" x2="3.54" y2="143.29" xlink:href="#未命名的渐变_32" />
        <linearGradient id="未命名的渐变_336" x1="0.24" y1="132.88" x2="13.62" y2="132.88" gradientUnits="userSpaceOnUse">
            <stop offset="0.02" stop-color="#767b82" />
            <stop offset="0.04" stop-color="#d7dce0" />
            <stop offset="0.09" stop-color="#9ba1ab" />
            <stop offset="0.92" stop-color="#9ba1ab" />
            <stop offset="1" stop-color="#767b82" />
        </linearGradient>
        <linearGradient id="未命名的渐变_26-2" x1="129.64" y1="143.37" x2="116.37" y2="143.37" xlink:href="#未命名的渐变_26" />
        <linearGradient id="未命名的渐变_32-4" x1="77.49" y1="137.11" x2="71.3" y2="143.29"
            gradientTransform="matrix(1, 0, 0, -1, 48.61, 280.4)" xlink:href="#未命名的渐变_32" />
        <linearGradient id="未命名的渐变_336-2" x1="67.76" y1="132.88" x2="81.38" y2="132.88"
            gradientTransform="matrix(-1, 0, 0, 1, 197.4, 0)" xlink:href="#未命名的渐变_336" />
        <linearGradient id="未命名的渐变_93-8" x1="90.96" y1="81.32" x2="71.11" y2="101.18"
            gradientTransform="matrix(1, 0, 0, 1, 0, 0)" xlink:href="#未命名的渐变_93" />
        <linearGradient id="未命名的渐变_32-5" x1="88.84" y1="85.68" x2="73.23" y2="101.28" xlink:href="#未命名的渐变_32" />
        <linearGradient id="未命名的渐变_72" x1="82.89" y1="99.65" x2="82.89" y2="93.75" gradientUnits="userSpaceOnUse">
            <stop offset="0" stop-color="#f5faff" />
            <stop offset="1" stop-color="#737880" />
        </linearGradient>
        <linearGradient id="未命名的渐变_124" x1="82.89" y1="99.65" x2="82.89" y2="93.75" gradientUnits="userSpaceOnUse">
            <stop offset="0" stop-color="#5c6066" />
            <stop offset="1" stop-color="#f5faff" />
        </linearGradient>
        <linearGradient id="未命名的渐变_72-2" x1="79.11" y1="92.4" x2="79.11" y2="87.77" xlink:href="#未命名的渐变_72" />
        <linearGradient id="未命名的渐变_124-2" x1="79.11" y1="92.4" x2="79.11" y2="87.77" xlink:href="#未命名的渐变_124" />
        <linearGradient id="未命名的渐变_72-3" x1="75.77" y1="95.7" x2="75.77" y2="92.51" xlink:href="#未命名的渐变_72" />
        <linearGradient id="未命名的渐变_124-3" x1="75.77" y1="95.7" x2="75.77" y2="92.51" xlink:href="#未命名的渐变_124" />
        <linearGradient id="未命名的渐变_72-4" x1="86.86" y1="93.61" x2="86.86" y2="90.43" xlink:href="#未命名的渐变_72" />
        <linearGradient id="未命名的渐变_124-4" x1="86.86" y1="93.61" x2="86.86" y2="90.43" xlink:href="#未命名的渐变_124" />
        <linearGradient id="未命名的渐变_89-2" x1="74.24" y1="-731.08" x2="73.2" y2="-730.04"
            gradientTransform="matrix(1, 0, 0, -1, 0, -646.96)" xlink:href="#未命名的渐变_89" />
        <linearGradient id="未命名的渐变_89-3" x1="81.2" y1="-731.08" x2="80.17" y2="-730.04"
            gradientTransform="matrix(1, 0, 0, -1, 0, -646.96)" xlink:href="#未命名的渐变_89" />
        <linearGradient id="未命名的渐变_89-4" x1="88.17" y1="-731.08" x2="87.13" y2="-730.04"
            gradientTransform="matrix(1, 0, 0, -1, 0, -646.96)" xlink:href="#未命名的渐变_89" />
    </defs>
    <title>Vacuum stuffer(真空充填机)</title>
    <g id="图层_2" data-name="图层 2">
        <g id="图层_6" data-name="图层 6">
            <g id="Vacuum_stuffer_真空充填机_" data-name="Vacuum stuffer(真空充填机)">
                <path class="cls-1" d="M4.87,65.17l8.81,3.44v-12L4.87,60A2.77,2.77,0,0,0,4.87,65.17Z" />
                <rect class="cls-2" x="11.62" y="10.29" width="1.42" height="51.89"
                    transform="matrix(0.97, 0.26, -0.26, 0.97, 9.78, -1.96)" />
                <rect class="cls-3" x="6.88" y="40.72" width="3.71" height="17.89"
                    transform="translate(13.14 -0.57) rotate(14.98)" />
                <path class="cls-4" d="M125.36,64l-8.81,3.44v-12l8.81,3.43A2.78,2.78,0,0,1,125.36,64Z" />
                <rect class="cls-5" x="117.18" y="9.15" width="1.42" height="51.89"
                    transform="translate(240.85 38.52) rotate(165.02)" />
                <rect class="cls-6" x="119.64" y="39.58" width="3.71" height="17.89"
                    transform="translate(251.41 64) rotate(165.02)" />
                <rect class="cls-7" x="13.68" y="48.84" width="102.34" height="90.23" />
                <rect class="cls-8" x="15.48" y="48.71" width="98.73" height="82.74" />
                <path class="cls-9" d="M114.09,48.84v82.49H15.61V48.84h98.48m.25-.25h-99v83h99v-83Z" />
                <rect class="cls-10" x="116.02" y="110.39" width="31.05" height="18.68" />
                <rect class="cls-11" x="147.07" y="107.62" width="2.93" height="24.22" />
                <rect class="cls-12" x="116.02" y="63.75" width="15.97" height="59.52" />
                <rect class="cls-13" x="15.61" y="48.84" width="98.48" height="17.7" />
                <rect class="cls-14" x="36.39" y="55.17" width="10.22" height="7.39" />
                <rect class="cls-14" x="101.41" y="55.17" width="10.22" height="7.39" />
                <rect class="cls-15" x="15.61" y="66.54" width="98.48" height="5.31" />
                <rect class="cls-16" x="15.61" y="71.84" width="98.48" height="13.65" />
                <rect class="cls-17" x="13.68" y="0.94" width="102.34" height="47.9" />
                <rect class="cls-18" x="13.68" width="102.34" height="0.94" />
                <rect class="cls-19" x="17.94" y="5.77" width="93.82" height="38.24" />
                <rect class="cls-20" x="64.06" y="5.77" width="2.32" height="38.24" />
                <ellipse class="cls-21" cx="25.57" cy="58.87" rx="5.62" ry="5.61" />
                <path class="cls-22"
                    d="M25.57,53.76a5.11,5.11,0,1,1-5.11,5.11,5.11,5.11,0,0,1,5.11-5.11m0-.5a5.61,5.61,0,1,0,5.62,5.61,5.61,5.61,0,0,0-5.62-5.61Z" />
                <ellipse class="cls-23" cx="25.57" cy="58.87" rx="5.1" ry="5.1" />
                <ellipse class="cls-24" cx="25.57" cy="58.87" rx="4.88" ry="4.88" />
                <ellipse class="cls-25" cx="6.63" cy="143.37" rx="6.63" ry="6.63" />
                <path class="cls-26"
                    d="M6.63,137a6.38,6.38,0,1,1-6.38,6.37A6.39,6.39,0,0,1,6.63,137m0-.25a6.63,6.63,0,1,0,6.64,6.62,6.63,6.63,0,0,0-6.64-6.62Z" />
                <rect class="cls-27" x="4.57" y="134.97" width="4.12" height="10.46" rx="1.88" />
                <polygon class="cls-28" points="13.62 136.75 0.24 136.75 13.62 129.01 13.62 136.75" />
                <ellipse class="cls-25" cx="123.01" cy="143.37" rx="6.63" ry="6.63" />
                <path class="cls-29"
                    d="M123,137a6.38,6.38,0,1,1-6.39,6.37A6.38,6.38,0,0,1,123,137m0-.25a6.63,6.63,0,1,0,6.63,6.62,6.63,6.63,0,0,0-6.63-6.62Z" />
                <rect class="cls-30" x="120.95" y="134.97" width="4.12" height="10.46" rx="1.88"
                    transform="translate(246.01 280.4) rotate(-180)" />
                <polygon class="cls-31" points="116.02 136.75 129.64 136.75 116.02 129.01 116.02 136.75" />
                <rect class="cls-32" x="71.1" y="81.33" width="19.87" height="19.84" />
                <rect class="cls-33" x="72.11" y="86.8" width="17.85" height="13.37" />
                <ellipse class="cls-34" cx="82.89" cy="96.7" rx="2.88" ry="2.95" />
                <path class="cls-35"
                    d="M82.89,94.1a2.6,2.6,0,1,1-2.54,2.6,2.58,2.58,0,0,1,2.54-2.6m0-.35a3,3,0,1,0,2.89,3,2.92,2.92,0,0,0-2.89-3Z" />
                <ellipse class="cls-36" cx="82.89" cy="96.7" rx="2.41" ry="2.47" />
                <polygon class="cls-37" points="84.15 95.41 81.68 97.61 82 97.94 84.15 95.41" />
                <ellipse class="cls-38" cx="82.86" cy="96.7" rx="0.35" ry="0.36" />
                <ellipse class="cls-39" cx="79.11" cy="90.08" rx="2.26" ry="2.32" />
                <path class="cls-40"
                    d="M79.11,88.05a2,2,0,1,1-2,2,2,2,0,0,1,2-2m0-.28a2.32,2.32,0,1,0,2.26,2.31,2.3,2.3,0,0,0-2.26-2.31Z" />
                <ellipse class="cls-36" cx="79.11" cy="90.08" rx="1.89" ry="1.94" />
                <polygon class="cls-37" points="80.1 89.07 78.16 90.8 78.41 91.06 80.1 89.07" />
                <ellipse class="cls-38" cx="79.09" cy="90.08" rx="0.28" ry="0.28" />
                <ellipse class="cls-41" cx="75.77" cy="94.1" rx="1.56" ry="1.59" />
                <path class="cls-42"
                    d="M75.77,92.7a1.41,1.41,0,1,1-1.37,1.4,1.39,1.39,0,0,1,1.37-1.4m0-.19a1.6,1.6,0,0,0,0,3.19,1.6,1.6,0,0,0,0-3.19Z" />
                <ellipse class="cls-43" cx="75.77" cy="94.1" rx="1.3" ry="1.33" />
                <polygon class="cls-37" points="76.45 93.41 75.12 94.59 75.29 94.77 76.45 93.41" />
                <ellipse class="cls-38" cx="75.76" cy="94.1" rx="0.19" ry="0.2" />
                <ellipse class="cls-44" cx="86.86" cy="92.02" rx="1.56" ry="1.59" />
                <path class="cls-45"
                    d="M86.86,90.62A1.4,1.4,0,1,1,85.49,92a1.39,1.39,0,0,1,1.37-1.4m0-.19A1.59,1.59,0,1,0,88.42,92a1.58,1.58,0,0,0-1.56-1.59Z" />
                <ellipse class="cls-43" cx="86.86" cy="92.02" rx="1.3" ry="1.33" />
                <polygon class="cls-37" points="87.54 91.33 86.21 92.51 86.38 92.69 87.54 91.33" />
                <ellipse class="cls-38" cx="86.85" cy="92.02" rx="0.19" ry="0.2" />
                <rect class="cls-46" x="72.11" y="86.8" width="17.85" height="6.55" />
                <circle class="cls-47" cx="73.72" cy="83.6" r="0.73" />
                <circle class="cls-48" cx="80.68" cy="83.6" r="0.73" />
                <circle class="cls-49" cx="87.65" cy="83.6" r="0.73" />
            </g>
        </g>
    </g>
</svg>