<svg xmlns="http://www.w3.org/2000/svg" xmlns:xlink="http://www.w3.org/1999/xlink" viewBox="0 0 150 141.44">
    <defs>
        <style>
            .cls-1 {
                fill: #515151;
            }

            .cls-2 {
                fill: #bdbdbd;
            }

            .cls-3,
            .cls-6 {
                fill: #a3a3a3;
            }

            .cls-14,
            .cls-21,
            .cls-3,
            .cls-6 {
                stroke-miterlimit: 10;
            }

            .cls-3 {
                stroke: url(#未命名的渐变_105);
            }

            .cls-4 {
                fill: #666566;
            }

            .cls-5 {
                fill: #9b9b9b;
            }

            .cls-6 {
                stroke: url(#未命名的渐变_105-2);
            }

            .cls-7 {
                fill: url(#未命名的渐变_105-3);
            }

            .cls-8 {
                fill: url(#未命名的渐变_105-4);
            }

            .cls-9 {
                fill: url(#未命名的渐变_105-5);
            }

            .cls-10 {
                fill: url(#未命名的渐变_105-6);
            }

            .cls-11 {
                fill: url(#未命名的渐变_105-7);
            }

            .cls-12 {
                fill: url(#未命名的渐变_105-8);
            }

            .cls-13 {
                fill: #e5e5e5;
            }

            .cls-14 {
                fill: #939393;
                stroke: #42403f;
                stroke-width: 0.5px;
            }

            .cls-15 {
                fill: url(#未命名的渐变_105-9);
            }

            .cls-16 {
                fill: url(#未命名的渐变_105-10);
            }

            .cls-17 {
                fill: url(#未命名的渐变_105-11);
            }

            .cls-18 {
                fill: url(#未命名的渐变_105-12);
            }

            .cls-19 {
                fill: url(#未命名的渐变_105-13);
            }

            .cls-20 {
                fill: url(#未命名的渐变_105-14);
            }

            .cls-21 {
                fill: none;
                stroke: #6d6d6d;
                stroke-width: 0.75px;
            }

            .cls-22 {
                opacity: 0.2;
            }
        </style>
        <linearGradient id="未命名的渐变_105" x1="36.35" y1="101.67" x2="76.11" y2="101.67" gradientUnits="userSpaceOnUse">
            <stop offset="0" stop-color="#e2e2e2" />
            <stop offset="0.03" stop-color="#d0d0d0" />
            <stop offset="0.06" stop-color="#bcbcbc" />
            <stop offset="0.09" stop-color="#b5b5b5" />
            <stop offset="0.49" stop-color="#f6f6f6" />
            <stop offset="0.63" stop-color="#f3f3f3" />
            <stop offset="0.73" stop-color="#eaeaea" />
            <stop offset="0.82" stop-color="#dbdbdb" />
            <stop offset="0.9" stop-color="#c6c6c6" />
            <stop offset="0.97" stop-color="#aaa" />
            <stop offset="1" stop-color="#9b9b9b" />
        </linearGradient>
        <linearGradient id="未命名的渐变_105-2" x1="90.44" y1="108.39" x2="127.77" y2="108.39" xlink:href="#未命名的渐变_105" />
        <linearGradient id="未命名的渐变_105-3" x1="109.01" y1="98.14" x2="109.01" y2="96.01" xlink:href="#未命名的渐变_105" />
        <linearGradient id="未命名的渐变_105-4" x1="109.01" y1="102.74" x2="109.01" y2="100.6" xlink:href="#未命名的渐变_105" />
        <linearGradient id="未命名的渐变_105-5" x1="109.01" y1="107.34" x2="109.01" y2="105.2" xlink:href="#未命名的渐变_105" />
        <linearGradient id="未命名的渐变_105-6" x1="109.01" y1="111.94" x2="109.01" y2="109.8" xlink:href="#未命名的渐变_105" />
        <linearGradient id="未命名的渐变_105-7" x1="109.01" y1="116.54" x2="109.01" y2="114.4" xlink:href="#未命名的渐变_105" />
        <linearGradient id="未命名的渐变_105-8" x1="109.01" y1="121.14" x2="109.01" y2="119" xlink:href="#未命名的渐变_105" />
        <linearGradient id="未命名的渐变_105-9" x1="49.79" y1="48.78" x2="59.22" y2="48.78" xlink:href="#未命名的渐变_105" />
        <linearGradient id="未命名的渐变_105-10" x1="123.59" y1="39.63" x2="123.59" y2="23.75" xlink:href="#未命名的渐变_105" />
        <linearGradient id="未命名的渐变_105-11" x1="124.16" y1="43.23" x2="124.16" y2="20.73" xlink:href="#未命名的渐变_105" />
        <linearGradient id="未命名的渐变_105-12" x1="139.24" y1="43.23" x2="139.24" y2="20.73" xlink:href="#未命名的渐变_105" />
        <linearGradient id="未命名的渐变_105-13" x1="2.34" y1="41.85" x2="4.83" y2="41.85" xlink:href="#未命名的渐变_105" />
        <linearGradient id="未命名的渐变_105-14" x1="2.34" y1="65.1" x2="15.14" y2="65.1" xlink:href="#未命名的渐变_105" />
    </defs>
    <title>Automatic screw machine(自动螺丝机)</title>
    <g id="图层_2" data-name="图层 2">
        <g id="图层_61" data-name="图层 61">
            <g id="Automatic_screw_machine_自动螺丝机_" data-name="Automatic screw machine(自动螺丝机)">
                <rect class="cls-1" x="20.13" y="28.49" width="107.15" height="96.29" />
                <rect class="cls-2" x="25.11" y="67.47" width="124.89" height="8.05" />
                <rect class="cls-2" x="30.44" y="75.52" width="114.22" height="54.39" />
                <rect class="cls-2" x="30.44" y="129.91" width="5.96" height="11.53" />
                <rect class="cls-2" x="138.7" y="129.91" width="5.96" height="11.53" />
                <path class="cls-3"
                    d="M75.54,98.44h0c0-.19,0-.37,0-.56a19.32,19.32,0,0,0-38.63,0c0,.19,0,.37,0,.56h0l.05.38a18.88,18.88,0,0,0,.39,3.12l2.83,22.84h32.1l2.83-22.84a18.88,18.88,0,0,0,.39-3.12Z" />
                <circle class="cls-4" cx="56.23" cy="98.51" r="16.15" />
                <circle class="cls-5" cx="56.23" cy="98.51" r="11.64" />
                <rect class="cls-6" x="90.94" y="92.89" width="36.33" height="31.01" rx="6.16" />
                <rect class="cls-7" x="96.16" y="96.01" width="25.71" height="2.13" />
                <rect class="cls-8" x="96.16" y="100.6" width="25.71" height="2.13" />
                <rect class="cls-9" x="96.16" y="105.2" width="25.71" height="2.13" />
                <rect class="cls-10" x="96.16" y="109.8" width="25.71" height="2.13" />
                <rect class="cls-11" x="96.16" y="114.4" width="25.71" height="2.13" />
                <rect class="cls-12" x="96.16" y="119" width="25.71" height="2.13" />
                <rect class="cls-5" x="49.79" y="61.8" width="100.21" height="5.68" />
                <rect class="cls-2" x="71.1" y="58.71" width="38.03" height="5.92" />
                <rect class="cls-5" x="71.1" y="9.47" width="38.03" height="38.03" />
                <rect class="cls-4" x="72.31" y="47.5" width="35.61" height="11.21" />
                <rect class="cls-13" x="71.1" y="9.47" width="38.03" height="10.9" />
                <rect class="cls-14" x="94.14" y="23.75" width="10.32" height="13.88" />
                <rect class="cls-15" x="49.79" y="35.76" width="9.44" height="26.04" />
                <rect class="cls-16" x="109.11" y="23.75" width="28.97" height="15.87" />
                <rect class="cls-17" x="112.37" y="20.73" width="23.57" height="22.51" />
                <rect class="cls-18" x="138.08" y="20.73" width="2.31" height="22.51" />
                <rect class="cls-5" x="109.13" y="33.63" width="26.81" height="13.88" />
                <rect class="cls-2" width="34.71" height="67.47" />
                <rect class="cls-4" x="4.83" y="18.81" width="13.43" height="45.83" />
                <rect class="cls-2" x="25.11" y="15.75" width="45.99" height="14.94" />
                <rect class="cls-2" x="15.14" y="37.63" width="22.92" height="29.84" />
                <rect class="cls-4" x="26.61" y="37.63" width="6.33" height="29.84" />
                <circle class="cls-5" cx="29.77" cy="43.03" r="2.74" />
                <circle class="cls-5" cx="10.82" cy="25.96" r="3.62" />
                <circle class="cls-5" cx="29.77" cy="49.59" r="2.74" />
                <circle class="cls-5" cx="29.77" cy="56.16" r="2.74" />
                <circle class="cls-5" cx="29.77" cy="62.72" r="2.74" />
                <rect class="cls-19" x="2.34" y="10.73" width="2.49" height="62.24" />
                <rect class="cls-20" x="2.34" y="62.72" width="12.81" height="4.76" />
                <polyline class="cls-21" points="34.72 15.75 25.11 15.75 25.11 31.22 34.72 31.22" />
               
            </g>
        </g>
    </g>
</svg>