<svg xmlns="http://www.w3.org/2000/svg" xmlns:xlink="http://www.w3.org/1999/xlink" viewBox="0 0 150.09 143.79">
    <defs>
        <style>
            .cls-1 {
                fill: #6d6d6d;
            }

            .cls-2 {
                fill: #bdbdbd;
            }

            .cls-3 {
                fill: none;
                stroke: #5e5e5e;
            }

            .cls-3,
            .cls-4 {
                stroke-miterlimit: 10;
            }

            .cls-4 {
                fill: #686868;
                stroke: #42403f;
            }

            .cls-5 {
                fill: #848484;
            }

            .cls-6 {
                fill: url(#未命名的渐变_105);
            }

            .cls-7 {
                fill: url(#未命名的渐变_105-2);
            }

            .cls-8 {
                fill: url(#未命名的渐变_105-3);
            }

            .cls-9 {
                fill: url(#未命名的渐变_105-4);
            }

            .cls-10 {
                opacity: 0.2;
            }
        </style>
        <linearGradient id="未命名的渐变_105" x1="83.14" y1="53.33" x2="86.29" y2="53.33" gradientUnits="userSpaceOnUse">
            <stop offset="0" stop-color="#e2e2e2" />
            <stop offset="0.03" stop-color="#d0d0d0" />
            <stop offset="0.06" stop-color="#bcbcbc" />
            <stop offset="0.09" stop-color="#b5b5b5" />
            <stop offset="0.49" stop-color="#f6f6f6" />
            <stop offset="0.63" stop-color="#f3f3f3" />
            <stop offset="0.73" stop-color="#eaeaea" />
            <stop offset="0.82" stop-color="#dbdbdb" />
            <stop offset="0.9" stop-color="#c6c6c6" />
            <stop offset="0.97" stop-color="#aaa" />
            <stop offset="1" stop-color="#9b9b9b" />
        </linearGradient>
        <linearGradient id="未命名的渐变_105-2" x1="92.97" y1="53.33" x2="96.12" y2="53.33" xlink:href="#未命名的渐变_105" />
        <linearGradient id="未命名的渐变_105-3" x1="89.29" y1="45.14" x2="89.29" y2="16.4" xlink:href="#未命名的渐变_105" />
        <linearGradient id="未命名的渐变_105-4" x1="102.34" y1="27.02" x2="102.34" y2="16.4" xlink:href="#未命名的渐变_105" />
    </defs>
    <title>Automatic chucker (自动卡盘)</title>
    <g id="图层_2" data-name="图层 2">
        <g id="图层_61" data-name="图层 61">
            <g id="Automatic_chucker_自动卡盘_" data-name="Automatic chucker (自动卡盘)">
                <rect class="cls-1" x="82.46" y="5.25" width="6.83" height="56.28" />
                <rect class="cls-1" x="89.29" y="9.84" width="10.29" height="56.28" />
                <rect class="cls-1" y="123.05" width="150.09" height="10.33" />
                <rect class="cls-2" x="15.54" width="38.95" height="51.81" />
                <polyline class="cls-2" points="82.47 0 82.47 61.52 82.47 123.05 54.98 123.05 54.98 51.81 54.98 0" />
                <rect class="cls-2" y="51.81" width="54.98" height="71.24" />
                <rect class="cls-2" x="82.46" y="61.52" width="67.63" height="61.52" />
                <polyline class="cls-3" points="82.47 0 82.47 61.52 82.47 123.05 54.98 123.05 54.98 51.81 54.98 0" />
                <line class="cls-3" x1="54.98" y1="51.81" x2="15.54" y2="51.81" />
                <rect class="cls-1" y="127.26" width="5.63" height="16.52" />
                <rect class="cls-1" x="144.46" y="127.26" width="5.63" height="16.52" />
                <rect class="cls-1" x="40.91" y="131.36" width="5.21" height="12.43" />
                <rect class="cls-1" x="105.9" y="131.36" width="5.21" height="12.43" />
                <rect class="cls-4" x="59.19" y="5.25" width="19.3" height="27.49" />
                <rect class="cls-4" x="59.19" y="45.14" width="4.2" height="26.1" />
                <rect class="cls-5" x="4.21" y="55.88" width="11.33" height="26.8" />
                <rect class="cls-5" x="21.82" y="55.88" width="11.33" height="26.8" />
                <rect class="cls-5" x="39.43" y="55.88" width="11.33" height="26.8" />
                <rect class="cls-5" x="19.5" y="3" width="11.33" height="26.8" />
                <rect class="cls-5" x="37.24" y="3" width="11.33" height="26.8" />
                <rect class="cls-6" x="83.14" y="45.14" width="3.15" height="16.38" />
                <rect class="cls-7" x="92.97" y="45.14" width="3.15" height="16.38" />
                <rect class="cls-1" x="89.29" y="9.84" width="14.36" height="14.36" />
                <rect class="cls-8" x="82.46" y="16.4" width="13.66" height="28.74" />
                <rect class="cls-9" x="96.12" y="16.4" width="12.43" height="10.62" />
               
            </g>
        </g>
    </g>
</svg>