<svg xmlns="http://www.w3.org/2000/svg" xmlns:xlink="http://www.w3.org/1999/xlink" viewBox="0 0 100.45 150.21">
    <defs>
        <style>
            .cls-1 {
                fill: #bdbdbd;
            }

            .cls-2 {
                fill: #999;
            }

            .cls-3,
            .cls-5 {
                fill: none;
                stroke-miterlimit: 10;
            }

            .cls-3 {
                stroke: #3d3d3d;
            }

            .cls-4 {
                fill: #e5e5e5;
            }

            .cls-5 {
                stroke: #999;
            }

            .cls-6 {
                fill: url(#未命名的渐变_105);
            }

            .cls-7 {
                fill: url(#未命名的渐变_105-2);
            }

            .cls-8 {
                opacity: 0.2;
            }
        </style>
        <linearGradient id="未命名的渐变_105" x1="41.34" y1="45.12" x2="41.34" y2="28.53" gradientUnits="userSpaceOnUse">
            <stop offset="0" stop-color="#e2e2e2" />
            <stop offset="0.03" stop-color="#d0d0d0" />
            <stop offset="0.06" stop-color="#bcbcbc" />
            <stop offset="0.09" stop-color="#b5b5b5" />
            <stop offset="0.49" stop-color="#f6f6f6" />
            <stop offset="0.63" stop-color="#f3f3f3" />
            <stop offset="0.73" stop-color="#eaeaea" />
            <stop offset="0.82" stop-color="#dbdbdb" />
            <stop offset="0.9" stop-color="#c6c6c6" />
            <stop offset="0.97" stop-color="#aaa" />
            <stop offset="1" stop-color="#9b9b9b" />
        </linearGradient>
        <linearGradient id="未命名的渐变_105-2" x1="35.75" y1="14.28" x2="46.76" y2="14.28" xlink:href="#未命名的渐变_105" />
    </defs>
    <title>CMM (坐标测量机)</title>
    <g id="图层_2" data-name="图层 2">
        <g id="图层_61" data-name="图层 61">
            <g id="CMM_坐标测量机_" data-name="CMM (坐标测量机)">
                <polygon class="cls-1" points="73.1 77.92 89.81 77.92 82.55 30.9 73.1 30.9 73.1 77.92" />
                <rect class="cls-2" x="4" y="101.13" width="78.55" height="49.08" />
                <line class="cls-3" x1="4" y1="101.13" x2="82.55" y2="101.13" />
                <polygon class="cls-2"
                    points="94.03 75.9 73.1 75.9 73.1 88.52 0 88.52 0 101.13 73.1 101.13 94.03 101.13 100.45 88.52 94.03 75.9" />
                <polygon class="cls-1" points="10.08 88.52 0 88.52 1.93 30.9 10.08 30.9 10.08 88.52" />
                <polygon class="cls-4" points="73.1 42.33 10.08 42.33 1.93 30.9 82.55 30.9 73.1 42.33" />
                <rect class="cls-5" x="10.08" y="42.33" width="63.02" height="48.16" />
                <rect class="cls-6" x="32.45" y="28.53" width="17.77" height="16.59" />
                <rect class="cls-7" x="35.75" width="11.01" height="28.56" />
            </g>
        </g>
    </g>
</svg>