<svg xmlns="http://www.w3.org/2000/svg" xmlns:xlink="http://www.w3.org/1999/xlink" viewBox="0 0 130.36 150">
    <defs>
        <style>
            .cls-1 {
                fill: #bdbdbd;
            }

            .cls-2 {
                fill: #4c4c4c;
            }

            .cls-3 {
                fill: #828282;
            }

            .cls-4 {
                fill: #bf0000;
            }

            .cls-5 {
                fill: none;
                stroke: #42403f;
                stroke-miterlimit: 10;
                stroke-width: 0.5px;
            }

            .cls-6 {
                fill: url(#未命名的渐变_105);
            }

            .cls-7 {
                fill: url(#未命名的渐变_105-2);
            }

            .cls-8 {
                fill: url(#未命名的渐变_105-3);
            }

            .cls-9 {
                fill: url(#未命名的渐变_105-4);
            }

            .cls-10 {
                opacity: 0.2;
            }
        </style>
        <linearGradient id="未命名的渐变_105" x1="108.43" y1="141.45" x2="111.17" y2="141.45" gradientUnits="userSpaceOnUse">
            <stop offset="0" stop-color="#e2e2e2" />
            <stop offset="0.03" stop-color="#d0d0d0" />
            <stop offset="0.06" stop-color="#bcbcbc" />
            <stop offset="0.09" stop-color="#b5b5b5" />
            <stop offset="0.49" stop-color="#f6f6f6" />
            <stop offset="0.63" stop-color="#f3f3f3" />
            <stop offset="0.73" stop-color="#eaeaea" />
            <stop offset="0.82" stop-color="#dbdbdb" />
            <stop offset="0.9" stop-color="#c6c6c6" />
            <stop offset="0.97" stop-color="#aaa" />
            <stop offset="1" stop-color="#9b9b9b" />
        </linearGradient>
        <linearGradient id="未命名的渐变_105-2" x1="122.21" y1="141.45" x2="124.94" y2="141.45" xlink:href="#未命名的渐变_105" />
        <linearGradient id="未命名的渐变_105-3" x1="52.93" y1="70.3" x2="63.05" y2="70.3" xlink:href="#未命名的渐变_105" />
        <linearGradient id="未命名的渐变_105-4" x1="54.6" y1="88.35" x2="61.64" y2="88.35" xlink:href="#未命名的渐变_105" />
    </defs>
    <title>CNC coordinate measuring(数控坐标测量)</title>
    <g id="图层_2" data-name="图层 2">
        <g id="图层_61" data-name="图层 61">
            <g id="CNC_coordinate_measuring_数控坐标测量_" data-name="CNC coordinate measuring(数控坐标测量)">
                <rect class="cls-1" x="100.45" y="42.93" width="6.53" height="56.27" />
                <rect class="cls-2" x="13.77" y="112.88" width="93.78" height="37.12" />
                <rect class="cls-2" x="100.45" y="87.48" width="26.25" height="62.52" />
                <rect class="cls-2" y="99.2" width="20.92" height="50.8" />
                <rect class="cls-1" x="13.77" y="112.88" width="93.78" height="22.67" />
                <rect class="cls-1" x="107.55" y="117.18" width="22.81" height="15.73" />
                <rect class="cls-3" x="107.55" y="128.97" width="22.81" height="3.93" />
                <rect class="cls-4" x="109.41" y="118.74" width="6.01" height="7.08" />
                <line class="cls-5" x1="107.55" y1="117.18" x2="107.55" y2="132.9" />
                <rect class="cls-1" x="9.01" y="42.93" width="6.53" height="56.27" />
                <rect class="cls-1" x="15.54" y="42.93" width="89.28" height="9.77" />
                <line class="cls-5" x1="100.45" y1="52.7" x2="100.45" y2="42.93" />
                <line class="cls-5" x1="15.54" y1="52.7" x2="15.54" y2="42.93" />
                <rect class="cls-6" x="108.43" y="132.9" width="2.74" height="17.1" />
                <rect class="cls-7" x="122.21" y="132.9" width="2.74" height="17.1" />
                <rect class="cls-8" x="52.93" y="55.77" width="10.13" height="29.06" />
                <rect class="cls-3" x="44.46" y="40.93" width="25.54" height="14.83" />
                <polygon class="cls-1" points="70 40.93 44.46 40.93 49.25 0 65.21 0 70 40.93" />
                <polygon class="cls-9" points="58.12 91.87 58.12 91.87 54.6 84.83 61.64 84.83 58.12 91.87" />
                
            </g>
        </g>
    </g>
</svg>