<svg xmlns="http://www.w3.org/2000/svg" xmlns:xlink="http://www.w3.org/1999/xlink" viewBox="0 0 120.52 149.87">
    <defs>
        <style>
            .cls-1 {
                fill: #909191;
            }

            .cls-2 {
                fill: url(#未命名的渐变_105);
            }

            .cls-3 {
                fill: url(#未命名的渐变_74);
            }

            .cls-4 {
                fill: url(#未命名的渐变_74-2);
            }

            .cls-5 {
                fill: url(#未命名的渐变_74-3);
            }

            .cls-6 {
                fill: url(#未命名的渐变_74-4);
            }

            .cls-7 {
                fill: url(#未命名的渐变_74-5);
            }

            .cls-8 {
                fill: url(#未命名的渐变_105-2);
            }

            .cls-9 {
                fill: url(#未命名的渐变_74-6);
            }

            .cls-10 {
                fill: url(#未命名的渐变_74-7);
            }

            .cls-11 {
                fill: url(#未命名的渐变_74-8);
            }

            .cls-12 {
                fill: url(#未命名的渐变_74-9);
            }

            .cls-13 {
                fill: url(#未命名的渐变_105-3);
            }

            .cls-14 {
                fill: url(#未命名的渐变_74-10);
            }

            .cls-15 {
                fill: url(#未命名的渐变_74-11);
            }

            .cls-16 {
                fill: url(#未命名的渐变_74-12);
            }

            .cls-17 {
                fill: none;
                stroke: #595959;
                stroke-miterlimit: 10;
            }

            .cls-18 {
                fill: url(#未命名的渐变_74-13);
            }

            .cls-19 {
                fill: url(#未命名的渐变_74-14);
            }

            .cls-20 {
                opacity: 0.2;
            }
        </style>
        <linearGradient id="未命名的渐变_105" x1="112.33" y1="97.68" x2="112.33" y2="92.02" gradientUnits="userSpaceOnUse">
            <stop offset="0" stop-color="#e2e2e2" />
            <stop offset="0.03" stop-color="#d0d0d0" />
            <stop offset="0.06" stop-color="#bcbcbc" />
            <stop offset="0.09" stop-color="#b5b5b5" />
            <stop offset="0.49" stop-color="#f6f6f6" />
            <stop offset="0.63" stop-color="#f3f3f3" />
            <stop offset="0.73" stop-color="#eaeaea" />
            <stop offset="0.82" stop-color="#dbdbdb" />
            <stop offset="0.9" stop-color="#c6c6c6" />
            <stop offset="0.97" stop-color="#aaa" />
            <stop offset="1" stop-color="#9b9b9b" />
        </linearGradient>
        <linearGradient id="未命名的渐变_74" x1="38.46" y1="149.87" x2="38.46" y2="140" gradientUnits="userSpaceOnUse">
            <stop offset="0" stop-color="#6b6b6b" />
            <stop offset="0.01" stop-color="#767676" />
            <stop offset="0.03" stop-color="#959595" />
            <stop offset="0.04" stop-color="#aaa" />
            <stop offset="0.37" stop-color="#ccc" />
            <stop offset="0.74" stop-color="#eaeaea" />
            <stop offset="0.94" stop-color="#f6f6f6" />
            <stop offset="0.95" stop-color="#ededed" />
            <stop offset="0.96" stop-color="#d4d4d4" />
            <stop offset="0.97" stop-color="#ababab" />
            <stop offset="0.99" stop-color="#737373" />
            <stop offset="0.99" stop-color="#666" />
        </linearGradient>
        <linearGradient id="未命名的渐变_74-2" x1="45.66" y1="140" x2="45.66" y2="115.77" xlink:href="#未命名的渐变_74" />
        <linearGradient id="未命名的渐变_74-3" x1="45.66" y1="89.3" x2="45.66" y2="48.58" xlink:href="#未命名的渐变_74" />
        <linearGradient id="未命名的渐变_74-4" x1="45.88" y1="48.58" x2="45.88" y2="0" xlink:href="#未命名的渐变_74" />
        <linearGradient id="未命名的渐变_74-5" x1="17.58" y1="127.68" x2="17.58" y2="54.35" xlink:href="#未命名的渐变_74" />
        <linearGradient id="未命名的渐变_105-2" x1="17.43" y1="79.43" x2="17.43" y2="77.38" xlink:href="#未命名的渐变_105" />
        <linearGradient id="未命名的渐变_74-6" x1="15.69" y1="83.85" x2="15.69" y2="68.16" xlink:href="#未命名的渐变_74" />
        <linearGradient id="未命名的渐变_74-7" x1="107.1" y1="97.68" x2="107.1" y2="68.16" xlink:href="#未命名的渐变_74" />
        <linearGradient id="未命名的渐变_74-8" x1="61.39" y1="75" x2="61.39" y2="68.16" xlink:href="#未命名的渐变_74" />
        <linearGradient id="未命名的渐变_74-9" x1="45.88" y1="82.43" x2="45.88" y2="75" xlink:href="#未命名的渐变_74" />
        <linearGradient id="未命名的渐变_105-3" x1="2.47" y1="83.85" x2="2.47" y2="70.57" xlink:href="#未命名的渐变_105" />
        <linearGradient id="未命名的渐变_74-10" x1="45.88" y1="37.01" x2="45.88" y2="7.94" xlink:href="#未命名的渐变_74" />
        <linearGradient id="未命名的渐变_74-11" x1="55.1" y1="42.62" x2="66" y2="42.62" xlink:href="#未命名的渐变_74" />
        <linearGradient id="未命名的渐变_74-12" x1="66" y1="36.34" x2="91.24" y2="36.34" xlink:href="#未命名的渐变_74" />
        <linearGradient id="未命名的渐变_74-13" x1="45.66" y1="115.77" x2="45.66" y2="89.3" xlink:href="#未命名的渐变_74" />
        <linearGradient id="未命名的渐变_74-14" x1="29.43" y1="99.74" x2="31.54" y2="99.74" xlink:href="#未命名的渐变_74" />
    </defs>
    <title>CNC vertical mill(数控立磨)</title>
    <g id="图层_2" data-name="图层 2">
        <g id="图层_61" data-name="图层 61">
            <g id="CNC_vertical_mill_数控立磨_" data-name="CNC vertical mill(数控立磨)">
                <rect class="cls-1" x="29.43" y="93.64" width="36.57" height="28.52" />
                <rect class="cls-2" x="104.14" y="92.02" width="16.37" height="5.66" />
                <rect class="cls-3" y="140" width="76.92" height="9.87" />
                <rect class="cls-4" x="38.96" y="115.77" width="13.4" height="24.23" />
                <polygon class="cls-5" points="58.9 89.3 32.43 89.3 36.22 48.58 55.1 48.58 58.9 89.3" />
                <rect class="cls-6" x="36.65" width="18.46" height="48.58" />
                <rect class="cls-7" x="5.74" y="54.35" width="23.69" height="73.33" />
                <rect class="cls-8" x="3.92" y="77.38" width="27.02" height="2.04" />
                <rect class="cls-9" x="12.74" y="68.16" width="5.9" height="15.69" />
                <rect class="cls-10" x="104.14" y="68.16" width="5.9" height="29.52" />
                <rect class="cls-11" x="12.74" y="68.16" width="97.31" height="6.84" />
                <rect class="cls-12" x="30.94" y="75" width="29.87" height="7.43" />
                <rect class="cls-13" x="1.03" y="70.57" width="2.89" height="13.28" />
                <rect class="cls-1" x="12.74" y="69.98" width="97.31" height="1.6" />
                <rect class="cls-14" x="33.45" y="7.94" width="24.85" height="29.07" />
                <rect class="cls-1" x="33.45" y="23.43" width="24.85" height="4.6" />
                <rect class="cls-1" x="33.45" y="30.4" width="24.85" height="2.52" />
                <rect class="cls-15" x="55.1" y="40.34" width="10.89" height="4.56" />
                <rect class="cls-16" x="66" y="22.47" width="25.24" height="27.74" />
                <rect class="cls-1" x="69.28" y="25.72" width="12.77" height="9.79" />
                <path class="cls-17" d="M45.66,113.37s4.89,27.59-9,20.95C20.94,126.82,22,123,22,123" />
                <path class="cls-17" d="M42.38,115.18s2.15,19.95-8.93,19.14a18.58,18.58,0,0,1-14.77-9.47" />
                <rect class="cls-18" x="32.43" y="89.3" width="26.47" height="26.47" />
                <rect class="cls-19" x="29.43" y="93.64" width="2.11" height="12.22" />
               
            </g>
        </g>
    </g>
</svg>