<svg xmlns="http://www.w3.org/2000/svg" xmlns:xlink="http://www.w3.org/1999/xlink" viewBox="0 0 149.89 100.83">
    <defs>
        <style>
            .cls-1,
            .cls-8 {
                fill: #686868;
            }

            .cls-2 {
                fill: #999;
            }

            .cls-3 {
                fill: #cecece;
            }

            .cls-4 {
                fill: #7c7c7c;
            }

            .cls-5 {
                fill: url(#未命名的渐变_74);
            }

            .cls-6 {
                fill: url(#未命名的渐变_74-2);
            }

            .cls-7 {
                fill: none;
                stroke: url(#未命名的渐变_74-3);
            }

            .cls-14,
            .cls-15,
            .cls-7,
            .cls-8 {
                stroke-miterlimit: 10;
            }

            .cls-8 {
                stroke: #42403f;
            }

            .cls-9 {
                fill: url(#未命名的渐变_74-4);
            }

            .cls-10 {
                fill: url(#未命名的渐变_74-5);
            }

            .cls-11 {
                fill: url(#未命名的渐变_74-6);
            }

            .cls-12 {
                fill: url(#未命名的渐变_74-7);
            }

            .cls-13 {
                fill: url(#未命名的渐变_74-8);
            }

            .cls-14 {
                stroke: #aaa;
                fill: url(#未命名的渐变_74-9);
            }

            .cls-15 {
                stroke: #757575;
                fill: url(#未命名的渐变_74-10);
            }

            .cls-16 {
                fill: #f4f4f4;
                opacity: 0.4;
            }

            .cls-17 {
                fill: url(#未命名的渐变_105);
            }

            .cls-18 {
                fill: url(#未命名的渐变_105-2);
            }

            .cls-19 {
                fill: url(#未命名的渐变_74-11);
            }

            .cls-20 {
                fill: url(#未命名的渐变_105-3);
            }

            .cls-21 {
                fill: url(#未命名的渐变_105-4);
            }

            .cls-22 {
                fill: url(#未命名的渐变_74-12);
            }

            .cls-23 {
                fill: url(#未命名的渐变_74-13);
            }

            .cls-24 {
                fill: url(#未命名的渐变_74-14);
            }

            .cls-25 {
                fill: url(#未命名的渐变_74-15);
            }

            .cls-26 {
                fill: url(#未命名的渐变_74-16);
            }

            .cls-27 {
                fill: url(#未命名的渐变_74-17);
            }

            .cls-28 {
                opacity: 0.2;
            }
        </style>
        <linearGradient id="未命名的渐变_74" x1="76.16" y1="45.46" x2="76.16" y2="30.45" gradientUnits="userSpaceOnUse">
            <stop offset="0" stop-color="#6b6b6b" />
            <stop offset="0.01" stop-color="#767676" />
            <stop offset="0.03" stop-color="#959595" />
            <stop offset="0.04" stop-color="#aaa" />
            <stop offset="0.37" stop-color="#ccc" />
            <stop offset="0.74" stop-color="#eaeaea" />
            <stop offset="0.94" stop-color="#f6f6f6" />
            <stop offset="0.95" stop-color="#ededed" />
            <stop offset="0.96" stop-color="#d4d4d4" />
            <stop offset="0.97" stop-color="#ababab" />
            <stop offset="0.99" stop-color="#737373" />
            <stop offset="0.99" stop-color="#666" />
        </linearGradient>
        <linearGradient id="未命名的渐变_74-2" x1="65.22" y1="100.83" x2="65.22" y2="64.98" xlink:href="#未命名的渐变_74" />
        <linearGradient id="未命名的渐变_74-3" x1="22.99" y1="87.88" x2="22.99" y2="65.14" xlink:href="#未命名的渐变_74" />
        <linearGradient id="未命名的渐变_74-4" x1="7.17" y1="61.44" x2="127.51" y2="61.44" xlink:href="#未命名的渐变_74" />
        <linearGradient id="未命名的渐变_74-5" x1="63.76" y1="70.65" x2="63.76" y2="64.98" xlink:href="#未命名的渐变_74" />
        <linearGradient id="未命名的渐变_74-6" x1="36.52" y1="57.9" x2="36.52" y2="3.45" xlink:href="#未命名的渐变_74" />
        <linearGradient id="未命名的渐变_74-7" x1="105.11" y1="57.9" x2="105.11" y2="3.45" xlink:href="#未命名的渐变_74" />
        <linearGradient id="未命名的渐变_74-8" x1="46.43" y1="69.32" x2="46.43" y2="0" xlink:href="#未命名的渐变_74" />
        <linearGradient id="未命名的渐变_74-9" x1="2.92" y1="37.18" x2="67.73" y2="37.18" xlink:href="#未命名的渐变_74" />
        <linearGradient id="未命名的渐变_74-10" x1="22.74" y1="63.26" x2="68.43" y2="63.26" xlink:href="#未命名的渐变_74" />
        <linearGradient id="未命名的渐变_105" x1="24.88" y1="46.75" x2="27.45" y2="46.75" gradientUnits="userSpaceOnUse">
            <stop offset="0" stop-color="#e2e2e2" />
            <stop offset="0.03" stop-color="#d0d0d0" />
            <stop offset="0.06" stop-color="#bcbcbc" />
            <stop offset="0.09" stop-color="#b5b5b5" />
            <stop offset="0.49" stop-color="#f6f6f6" />
            <stop offset="0.63" stop-color="#f3f3f3" />
            <stop offset="0.73" stop-color="#eaeaea" />
            <stop offset="0.82" stop-color="#dbdbdb" />
            <stop offset="0.9" stop-color="#c6c6c6" />
            <stop offset="0.97" stop-color="#aaa" />
            <stop offset="1" stop-color="#9b9b9b" />
        </linearGradient>
        <linearGradient id="未命名的渐变_105-2" x1="24.83" y1="59.85" x2="27.4" y2="59.85" xlink:href="#未命名的渐变_105" />
        <linearGradient id="未命名的渐变_74-11" x1="25.5" y1="53.25" x2="26.74" y2="53.25" xlink:href="#未命名的渐变_74" />
        <linearGradient id="未命名的渐变_105-3" x1="62.49" y1="46.7" x2="65.06" y2="46.7" xlink:href="#未命名的渐变_105" />
        <linearGradient id="未命名的渐变_105-4" x1="62.45" y1="59.8" x2="65.02" y2="59.8" xlink:href="#未命名的渐变_105" />
        <linearGradient id="未命名的渐变_74-12" x1="63.11" y1="53.21" x2="64.35" y2="53.21" xlink:href="#未命名的渐变_74" />
        <linearGradient id="未命名的渐变_74-13" x1="121.98" y1="71.71" x2="121.98" y2="57.9" xlink:href="#未命名的渐变_74" />
        <linearGradient id="未命名的渐变_74-14" x1="118.17" y1="82.9" x2="118.17" y2="51.54" xlink:href="#未命名的渐变_74" />
        <linearGradient id="未命名的渐变_74-15" x1="105.11" y1="37.21" x2="149.89" y2="37.21" xlink:href="#未命名的渐变_74" />
        <linearGradient id="未命名的渐变_74-16" x1="107.17" y1="29.81" x2="118.17" y2="29.81" xlink:href="#未命名的渐变_74" />
        <linearGradient id="未命名的渐变_74-17" x1="107.38" y1="44.74" x2="118.38" y2="44.74" xlink:href="#未命名的渐变_74" />
    </defs>
    <title>Compact CNC turning center(紧凑型数控车削中心)</title>
    <g id="图层_2" data-name="图层 2">
        <g id="图层_61" data-name="图层 61">
            <g id="Compact_CNC_turning_center_紧凑型数控车削中心_" data-name="Compact CNC turning center(紧凑型数控车削中心)">
                <rect class="cls-1" x="60.03" y="3.45" width="54.45" height="54.45" />
                <rect class="cls-2" x="63.78" y="3.45" width="52.56" height="42.01" />
                <rect class="cls-3" x="98.67" y="14.34" width="9.83" height="9.3" />
                <rect class="cls-4" x="98.67" y="23.64" width="9.83" height="14.87" />
                <rect class="cls-5" x="65.06" y="30.45" width="22.19" height="15.01" />
                <rect class="cls-6" x="2.92" y="64.98" width="124.59" height="35.86" />
                <polyline class="cls-7" points="42.56 65.14 42.56 87.38 2.92 87.38" />
                <rect class="cls-8" x="14.96" y="90.86" width="11.29" height="7.41" />
                <rect class="cls-8" x="41.08" y="90.86" width="12" height="7.41" />
                <rect class="cls-8" x="111.46" y="90.86" width="12" height="7.41" />
                <polyline class="cls-8" points="68.92 100.83 68.92 90.86 107.3 90.86 107.3 100.83" />
                <rect class="cls-9" x="7.17" y="57.9" width="120.34" height="7.08" />
                <rect class="cls-10" y="64.98" width="127.51" height="5.67" rx="1.45" />
                <path class="cls-11" d="M7.17,3.45,2.92,37.18v17A3.72,3.72,0,0,0,6.64,57.9H67.73V37.18L70.12,3.45Z" />
                <path class="cls-12" d="M138.9,3.45H69.19V9.7h38.34l1,27.48V57.9h30.67c1,0,1.86-1.66,1.86-3.72v-17Z" />
                <polygon class="cls-2" points="40.55 27.98 9.67 27.98 11.78 16.2 42.65 16.2 40.55 27.98" />
                <path class="cls-13"
                    d="M25.74,0l-3,43V64.59c0,2.61,1.17,4.73,2.62,4.73H65.29a3.13,3.13,0,0,0,3.14-3.14V43L70.12,0Z" />
                <line class="cls-14" x1="2.92" y1="37.18" x2="67.73" y2="37.18" />
                <rect class="cls-2" x="32.67" y="37.18" width="23.37" height="10.09" />
                <line class="cls-15" x1="22.74" y1="63.26" x2="68.43" y2="63.26" />
                <path class="cls-2"
                    d="M58.25,28H33.1a2.85,2.85,0,0,1-2.83-3.15l1.5-14.22A2.86,2.86,0,0,1,34.6,8.06H59.76a2.85,2.85,0,0,1,2.83,3.14L61.08,25.43A2.84,2.84,0,0,1,58.25,28Z" />
                <path class="cls-16"
                    d="M31.77,10.61l-1.5,14.22A2.85,2.85,0,0,0,33.1,28h.54l28.9-16.32.05-.46a2.85,2.85,0,0,0-2.83-3.14H34.6A2.86,2.86,0,0,0,31.77,10.61Z" />
                <circle class="cls-17" cx="26.16" cy="46.75" r="1.28" />
                <circle class="cls-18" cx="26.12" cy="59.85" r="1.28" />
                <rect class="cls-19" x="25.5" y="46.3" width="1.24" height="13.9" />
                <circle class="cls-20" cx="63.78" cy="46.7" r="1.28" />
                <circle class="cls-21" cx="63.73" cy="59.8" r="1.28" />
                <rect class="cls-22" x="63.11" y="46.26" width="1.24" height="13.9" />
                <rect class="cls-23" x="108.5" y="57.9" width="26.95" height="13.81" />
                <rect class="cls-24" x="112.88" y="51.54" width="10.58" height="31.36" />
                <rect class="cls-25" x="105.11" y="22.9" width="44.78" height="28.63" />
                <rect class="cls-26" x="107.17" y="24.04" width="11" height="11.55" />
                <rect class="cls-27" x="107.38" y="38.51" width="11" height="12.45" />
                <rect class="cls-8" x="120.32" y="24.04" width="26.63" height="17.13" />
                <circle class="cls-4" cx="108.87" cy="25.65" r="0.82" />
                <circle class="cls-4" cx="112.15" cy="25.65" r="0.82" />
                <circle class="cls-4" cx="115.43" cy="25.65" r="0.82" />
                <rect class="cls-4" x="119.82" y="42.63" width="2.98" height="2.11" />
                <rect class="cls-4" x="119.82" y="45.46" width="2.98" height="2.11" />
                <rect class="cls-4" x="119.82" y="48.3" width="2.98" height="2.11" />
                <rect class="cls-4" x="108.06" y="28.22" width="2.32" height="1.65" />
                <rect class="cls-4" x="108.06" y="30.43" width="2.32" height="1.65" />
                <rect class="cls-4" x="108.06" y="32.65" width="2.32" height="1.65" />
                <rect class="cls-4" x="111.51" y="28.22" width="2.32" height="1.65" />
                <rect class="cls-4" x="111.51" y="30.43" width="2.32" height="1.65" />
                <rect class="cls-4" x="111.51" y="32.65" width="2.32" height="1.65" />
                <rect class="cls-4" x="114.96" y="28.22" width="2.32" height="1.65" />
                <rect class="cls-4" x="114.96" y="30.43" width="2.32" height="1.65" />
                <rect class="cls-4" x="114.96" y="32.65" width="2.32" height="1.65" />
                <rect class="cls-4" x="123.9" y="42.63" width="2.98" height="2.11" />
                <rect class="cls-4" x="123.9" y="45.46" width="2.98" height="2.11" />
                <rect class="cls-4" x="123.9" y="48.3" width="2.98" height="2.11" />
                <rect class="cls-4" x="127.99" y="42.63" width="2.98" height="2.11" />
                <rect class="cls-4" x="127.99" y="45.46" width="2.98" height="2.11" />
                <rect class="cls-4" x="127.99" y="48.3" width="2.98" height="2.11" />
                <rect class="cls-4" x="132.07" y="42.63" width="2.98" height="2.11" />
                <rect class="cls-4" x="132.07" y="45.46" width="2.98" height="2.11" />
                <rect class="cls-4" x="132.07" y="48.3" width="2.98" height="2.11" />
                <rect class="cls-4" x="136.15" y="42.63" width="2.98" height="2.11" />
                <rect class="cls-4" x="136.15" y="45.46" width="2.98" height="2.11" />
                <rect class="cls-4" x="136.15" y="48.3" width="2.98" height="2.11" />
                <rect class="cls-4" x="140.24" y="42.63" width="2.98" height="2.11" />
                <rect class="cls-4" x="140.24" y="45.46" width="2.98" height="2.11" />
                <rect class="cls-4" x="140.24" y="48.3" width="2.98" height="2.11" />
                <rect class="cls-4" x="144.32" y="42.63" width="2.98" height="2.11" />
                <rect class="cls-4" x="144.32" y="45.46" width="2.98" height="2.11" />
                <rect class="cls-4" x="144.32" y="48.3" width="2.98" height="2.11" />
                <rect class="cls-4" x="108.06" y="39.51" width="9.61" height="2.52" />
                <rect class="cls-4" x="108.06" y="43.68" width="9.61" height="6.72" />
      
            </g>
        </g>
    </g>
</svg>