<svg xmlns="http://www.w3.org/2000/svg" xmlns:xlink="http://www.w3.org/1999/xlink" viewBox="0 0 24.39 150">
    <defs>
        <style>
            .cls-1 {
                fill: url(#未命名的渐变_105);
            }

            .cls-2 {
                opacity: 0.2;
            }

            .cls-3 {
                fill: url(#未命名的渐变_19);
            }

            .cls-4 {
                fill: url(#未命名的渐变_19-2);
            }

            .cls-5 {
                fill: url(#未命名的渐变_105-2);
            }
        </style>
        <linearGradient id="未命名的渐变_105" x1="0.32" y1="72.45" x2="23.73" y2="72.45" gradientUnits="userSpaceOnUse">
            <stop offset="0" stop-color="#e2e2e2" />
            <stop offset="0.03" stop-color="#d0d0d0" />
            <stop offset="0.06" stop-color="#bcbcbc" />
            <stop offset="0.09" stop-color="#b5b5b5" />
            <stop offset="0.49" stop-color="#f6f6f6" />
            <stop offset="0.63" stop-color="#f3f3f3" />
            <stop offset="0.73" stop-color="#eaeaea" />
            <stop offset="0.82" stop-color="#dbdbdb" />
            <stop offset="0.9" stop-color="#c6c6c6" />
            <stop offset="0.97" stop-color="#aaa" />
            <stop offset="1" stop-color="#9b9b9b" />
        </linearGradient>
        <linearGradient id="未命名的渐变_19" x1="23.08" y1="64.68" x2="9.14" y2="73.38" gradientUnits="userSpaceOnUse">
            <stop offset="0" stop-color="#6b6b6b" />
            <stop offset="0" stop-color="#6c6c6c" />
            <stop offset="0.18" stop-color="#989898" />
            <stop offset="0.34" stop-color="#b8b8b8" />
            <stop offset="0.48" stop-color="#ccc" />
            <stop offset="0.57" stop-color="#d3d3d3" />
            <stop offset="0.64" stop-color="#cacaca" />
            <stop offset="0.75" stop-color="#b1b1b1" />
            <stop offset="0.89" stop-color="#888" />
            <stop offset="0.99" stop-color="#666" />
        </linearGradient>
        <linearGradient id="未命名的渐变_19-2" x1="19.21" y1="74.93" x2="3.81" y2="84.54"
            gradientTransform="translate(22.08 196.21) rotate(180)" xlink:href="#未命名的渐变_19" />
        <linearGradient id="未命名的渐变_105-2" x1="5.64" y1="147.45" x2="17.68" y2="147.45" xlink:href="#未命名的渐变_105" />
    </defs>
    <title>Drill bit(钻头)</title>
    <g id="图层_2" data-name="图层 2">
        <g id="图层_61" data-name="图层 61">
            <g id="Drill_bit_钻头_" data-name="Drill bit(钻头)">
                <path class="cls-1"
                    d="M20.35,144.91H.33V108.29L7.07,94.44l-.35-.75c-4.33-6.6-6.39-16-6.39-24.6L.66,0H23.73l-.34,66.92L20.75,91.77l1.05,3A19.57,19.57,0,0,1,23,101v0l.46,21.31Z" />

                <path class="cls-3"
                    d="M23.39,68.69a9.94,9.94,0,0,0-1.59-4.93C15.74,52,11.86,43.61,7.13,46.58,1.4,50.19,7.31,64.36,14.51,81,17.42,87.65,21,94,21,94,24,87.5,24.14,74.54,23.39,68.69Z" />
                <path class="cls-4"
                    d="M1.24,113a55.48,55.48,0,0,0,2.84,8.48c6.37,14.37,13.87,25.29,17.14,23.45,4.09-2.32,3.61-8.42,2-19.8-1-6.61-9.23-17.86-11.73-22.38-4-7.23-8.19-16.79-8.19-16.79C-1.06,94.94-.37,106.61,1.24,113Z" />
                <path class="cls-5"
                    d="M5.64,144.91h12a0,0,0,0,1,0,0v1.35A3.74,3.74,0,0,1,13.93,150H9.39a3.74,3.74,0,0,1-3.74-3.74v-1.35A0,0,0,0,1,5.64,144.91Z" />
            </g>
        </g>
    </g>
</svg>