<svg xmlns="http://www.w3.org/2000/svg" viewBox="0 0 150 150">
    <defs>
        <style>
            .cls-1 {
                fill: #444;
            }

            .cls-2 {
                fill: #848383;
                stroke: #a5a5a5;
                stroke-miterlimit: 10;
            }

            .cls-3 {
                opacity: 0.2;
            }
        </style>
    </defs>
    <title>gear（齿轮）</title>
    <g id="图层_2" data-name="图层 2">
        <g id="图层_61" data-name="图层 61">
            <g id="gear_齿轮_" data-name="gear（齿轮）">
                <path class="cls-1"
                    d="M149.94,77.48c0-.82.06-1.65.06-2.48s0-1.66-.06-2.48c-6.37-4.25-8.94-8.81-2.2-15.81-.27-1.09-.57-2.16-.89-3.24-9.37-2.53-9.43-7.63-5.95-14.31q-1.12-2-2.36-4c-7.48-.24-11.82-2.76-9.35-12Q128,22,126.82,20.81c-9.23,2.47-11.75-1.87-12-9.35q-2-1.23-4-2.36c-6.68,3.48-11.78,3.42-14.31-5.95-1.08-.32-2.15-.62-3.24-.89C86.29,9,81.73,6.43,77.48.06,76.66,0,75.83,0,75,0s-1.66,0-2.48.06C68.27,6.43,63.71,9,56.71,2.26c-1.09.27-2.16.57-3.24.89-2.53,9.37-7.63,9.43-14.31,5.95q-2,1.13-4,2.36c-.24,7.48-2.76,11.82-12,9.35Q22,22,20.81,23.18c2.47,9.23-1.87,11.75-9.35,12-.82,1.3-1.61,2.63-2.35,4,3.47,6.68,3.41,11.78-6,14.31-.32,1.08-.62,2.15-.89,3.24C9,63.71,6.43,68.27.06,72.52,0,73.34,0,74.17,0,75s0,1.66.06,2.48C6.43,81.73,9,86.29,2.26,93.29c.27,1.09.57,2.16.89,3.24,9.37,2.53,9.43,7.63,6,14.31.74,1.36,1.53,2.69,2.35,4,7.48.24,11.82,2.76,9.35,12Q22,128,23.18,129.19c9.23-2.47,11.75,1.87,12,9.35q1.95,1.23,4,2.36c6.68-3.48,11.78-3.42,14.31,5.95,1.08.32,2.15.62,3.24.89,7-6.74,11.56-4.17,15.81,2.2.82,0,1.65.06,2.48.06s1.66,0,2.48-.06c4.25-6.37,8.81-8.94,15.81-2.2,1.09-.27,2.16-.57,3.24-.89,2.53-9.37,7.63-9.43,14.31-5.95q2-1.12,4-2.36c.24-7.48,2.76-11.82,12-9.35q1.22-1.16,2.37-2.37c-2.47-9.23,1.87-11.75,9.35-12q1.23-2,2.36-4c-3.48-6.68-3.42-11.78,5.95-14.31.32-1.08.62-2.15.89-3.24C141,86.29,143.57,81.73,149.94,77.48Z" />
                <circle class="cls-2" cx="75" cy="75" r="64" />
                <circle class="cls-1" cx="75" cy="75" r="57.26" />
                <circle class="cls-2" cx="75" cy="75" r="18.46" />
              
            </g>
        </g>
    </g>
</svg>