<svg xmlns="http://www.w3.org/2000/svg" xmlns:xlink="http://www.w3.org/1999/xlink" viewBox="0 0 149.9 147.99">
    <defs>
        <style>
            .cls-1 {
                fill: url(#未命名的渐变_74);
            }

            .cls-2,
            .cls-3 {
                stroke: #42403f;
                stroke-miterlimit: 10;
            }

            .cls-2 {
                fill: url(#未命名的渐变_74-2);
            }

            .cls-3 {
                fill: url(#未命名的渐变_74-3);
            }

            .cls-4 {
                fill: #42403f;
            }

            .cls-5 {
                fill: url(#未命名的渐变_74-4);
            }

            .cls-6 {
                fill: url(#未命名的渐变_74-5);
            }

            .cls-7 {
                fill: url(#未命名的渐变_74-6);
            }

            .cls-8 {
                fill: url(#未命名的渐变_74-7);
            }

            .cls-9 {
                fill: url(#未命名的渐变_74-8);
            }

            .cls-10 {
                opacity: 0.2;
            }
        </style>
        <linearGradient id="未命名的渐变_74" x1="74.95" y1="115.26" x2="74.95" y2="13.96" gradientUnits="userSpaceOnUse">
            <stop offset="0" stop-color="#6b6b6b" />
            <stop offset="0.01" stop-color="#767676" />
            <stop offset="0.03" stop-color="#959595" />
            <stop offset="0.04" stop-color="#aaa" />
            <stop offset="0.37" stop-color="#ccc" />
            <stop offset="0.74" stop-color="#eaeaea" />
            <stop offset="0.94" stop-color="#f6f6f6" />
            <stop offset="0.95" stop-color="#ededed" />
            <stop offset="0.96" stop-color="#d4d4d4" />
            <stop offset="0.97" stop-color="#ababab" />
            <stop offset="0.99" stop-color="#737373" />
            <stop offset="0.99" stop-color="#666" />
        </linearGradient>
        <linearGradient id="未命名的渐变_74-2" x1="47.21" y1="115.26" x2="47.21" y2="0.5" xlink:href="#未命名的渐变_74" />
        <linearGradient id="未命名的渐变_74-3" x1="99.32" y1="115.26" x2="99.32" y2="0.5" xlink:href="#未命名的渐变_74" />
        <linearGradient id="未命名的渐变_74-4" x1="9.97" y1="129.38" x2="140.88" y2="129.38" xlink:href="#未命名的渐变_74" />
        <linearGradient id="未命名的渐变_74-5" x1="21.61" y1="132.06" x2="36.36" y2="132.06" xlink:href="#未命名的渐变_74" />
        <linearGradient id="未命名的渐变_74-6" x1="115.22" y1="132.06" x2="129.98" y2="132.06" xlink:href="#未命名的渐变_74" />
        <linearGradient id="未命名的渐变_74-7" x1="78.79" y1="50.44" x2="101.77" y2="50.44" xlink:href="#未命名的渐变_74" />
        <linearGradient id="未命名的渐变_74-8" x1="123.7" y1="50.71" x2="146.68" y2="50.71"
            gradientTransform="matrix(-1, 0, 0, 1, 189.32, 0)" xlink:href="#未命名的渐变_74" />
    </defs>
    <title>Grinding machine(磨床)</title>
    <g id="图层_2" data-name="图层 2">
        <g id="图层_61" data-name="图层 61">
            <g id="Grinding_machine_磨床_" data-name="Grinding machine(磨床)">
                <rect class="cls-1" y="13.96" width="149.9" height="101.29" />
                <rect class="cls-2" x="21.15" y="0.5" width="52.12" height="114.76" />
                <rect class="cls-3" x="73.26" y="0.5" width="52.12" height="114.76" />
                <rect class="cls-4" y="100.96" width="149.9" height="15.16" />
                <rect class="cls-5" x="9.97" y="116.13" width="130.91" height="26.5" />
                <rect class="cls-6" x="21.61" y="116.13" width="14.76" height="31.86" />
                <rect class="cls-7" x="115.22" y="116.13" width="14.76" height="31.86" />
                <path class="cls-8"
                    d="M101.77,50.44,83.84,72.85a2.84,2.84,0,0,1-5-1.77V29.8a2.84,2.84,0,0,1,5-1.77l17.93,22.41Z" />
                <path class="cls-9"
                    d="M42.64,50.71,60.58,73.12a2.83,2.83,0,0,0,5-1.77V30.07a2.83,2.83,0,0,0-5-1.77L42.64,50.71Z" />
               
            </g>
        </g>
    </g>
</svg>