<svg xmlns="http://www.w3.org/2000/svg" viewBox="0 0 150 122.27">
    <defs>
        <style>
            .cls-1 {
                fill: #bdbdbd;
            }

            .cls-2,
            .cls-3 {
                fill: #6d6d6d;
            }

            .cls-2 {
                opacity: 0.99;
            }

            .cls-11,
            .cls-4 {
                fill: #42403f;
                stroke: #686868;
            }

            .cls-11,
            .cls-12,
            .cls-4,
            .cls-5,
            .cls-6,
            .cls-9 {
                stroke-miterlimit: 10;
            }

            .cls-5,
            .cls-9 {
                fill: none;
            }

            .cls-5 {
                stroke: #6d6d6d;
                stroke-width: 0.75px;
            }

            .cls-6 {
                fill: #020202;
                stroke: #050101;
            }

            .cls-7 {
                fill: #848484;
            }

            .cls-8 {
                fill: #a5a5a5;
            }

            .cls-9 {
                stroke: #333;
                stroke-width: 0.5px;
            }

            .cls-10 {
                fill: #e5e5e5;
            }

            .cls-11 {
                stroke-width: 0.25px;
            }

            .cls-12 {
                fill: #686868;
                stroke: #42403f;
            }

            .cls-13 {
                opacity: 0.2;
            }
        </style>
    </defs>
    <title>Heavy-duty band sawing machine(重型带锯床)</title>
    <g id="图层_2" data-name="图层 2">
        <g id="图层_61" data-name="图层 61">
            <g id="Heavy-duty_band_sawing_machine_重型带锯床_" data-name="Heavy-duty band sawing machine(重型带锯床)">
                <rect class="cls-1" x="23.68" width="117.29" height="98.8" />
                <rect class="cls-2" x="23.68" y="88.38" width="117.29" height="33.4" />
                <polygon class="cls-3"
                    points="52.55 88.38 23.68 31.04 0 30.63 0 51.97 23.68 52.37 23.68 88.38 52.55 88.38" />
                <rect class="cls-4" x="133.74" y="104.51" width="6.61" height="16.72" />
                <rect class="cls-4" x="19.76" y="109.61" width="7.84" height="12.16" />
                <rect class="cls-1" x="1.78" y="32.25" width="10.81" height="5.85" />
                <line class="cls-5" x1="82.32" x2="82.32" y2="88.38" />
                <rect class="cls-3" x="32.02" y="8.16" width="39.66" height="9.64" />
                <line class="cls-5" x1="26.28" y1="20.7" x2="63.93" y2="20.7" />
                <rect class="cls-3" x="93.88" y="22.62" width="39.66" height="9.64" />
                <line class="cls-5" x1="88.13" y1="35.15" x2="125.79" y2="35.15" />
                <line class="cls-5" x1="23.68" y1="59.5" x2="140.96" y2="59.5" />
                <rect class="cls-6" x="63.93" y="46.79" width="39.25" height="39.25" />
                <rect class="cls-2" x="63.93" y="46.79" width="4.37" height="39.25" />
                <rect class="cls-2" x="98.81" y="46.79" width="4.37" height="39.25" />
                <rect class="cls-2" x="68.3" y="68.91" width="30.52" height="3.42" />
                <rect class="cls-7" x="68.3" y="72.33" width="30.52" height="13.71" />
                <rect class="cls-1" x="68.3" y="65.13" width="30.52" height="3.78" />
                <rect class="cls-8" x="68.3" y="46.79" width="2.84" height="22.12" />
                <rect class="cls-8" x="95.98" y="46.79" width="2.84" height="22.12" />
                <circle class="cls-7" cx="83.56" cy="64.21" r="4.7" />
                <polygon class="cls-8" points="145.14 105.07 123.62 105.03 118.7 79.6 150 79.6 145.14 105.07" />
                <line class="cls-9" x1="52.55" y1="88.38" x2="23.68" y2="88.38" />
                <polygon class="cls-10" points="145.14 60.99 123.62 61.02 118.7 79.6 150 79.6 145.14 60.99" />
                <polygon class="cls-11" points="138.68 66.42 131.84 66.43 130.27 72.34 140.22 72.34 138.68 66.42" />
                <rect class="cls-12" x="129.51" y="92.34" width="8.47" height="5.49" />
                <rect class="cls-11" x="122.01" y="76.57" width="4.84" height="1.98" />
                <rect class="cls-11" x="128.63" y="76.57" width="4.84" height="1.98" />
                <rect class="cls-11" x="135.25" y="76.57" width="4.84" height="1.98" />
                <rect class="cls-11" x="141.87" y="76.57" width="4.84" height="1.98" />
               
            </g>
        </g>
    </g>
</svg>