<svg xmlns="http://www.w3.org/2000/svg" xmlns:xlink="http://www.w3.org/1999/xlink" viewBox="0 0 150.09 137.93">
    <defs>
        <style>
            .cls-1,
            .cls-3 {
                fill: #939393;
            }

            .cls-2 {
                fill: #bdbdbd;
            }

            .cls-3,
            .cls-5 {
                stroke: #42403f;
            }

            .cls-3,
            .cls-4,
            .cls-5,
            .cls-6 {
                stroke-miterlimit: 10;
            }

            .cls-3,
            .cls-5,
            .cls-6 {
                stroke-width: 0.5px;
            }

            .cls-4 {
                fill: #a3a3a3;
                stroke: url(#未命名的渐变_5);
            }

            .cls-5 {
                fill: none;
            }

            .cls-6 {
                fill: #42403f;
                stroke: #939393;
            }

            .cls-7 {
                fill: url(#未命名的渐变_105);
            }

            .cls-8 {
                fill: url(#未命名的渐变_105-2);
            }

            .cls-9 {
                fill: url(#未命名的渐变_105-3);
            }

            .cls-10 {
                fill: url(#未命名的渐变_105-4);
            }

            .cls-11 {
                fill: url(#未命名的渐变_105-5);
            }

            .cls-12 {
                fill: url(#未命名的渐变_105-6);
            }

            .cls-13 {
                fill: url(#未命名的渐变_105-7);
            }

            .cls-14 {
                opacity: 0.2;
            }
        </style>
        <linearGradient id="未命名的渐变_5" x1="58.18" y1="130.27" x2="39.05" y2="97.13" gradientUnits="userSpaceOnUse">
            <stop offset="0" stop-color="#6b6b6b" />
            <stop offset="0.01" stop-color="#767676" />
            <stop offset="0.02" stop-color="#959595" />
            <stop offset="0.03" stop-color="#aaa" />
            <stop offset="0.38" stop-color="#ccc" />
            <stop offset="0.76" stop-color="#eaeaea" />
            <stop offset="0.98" stop-color="#f6f6f6" />
            <stop offset="0.98" stop-color="#ededed" />
            <stop offset="0.98" stop-color="#d4d4d4" />
            <stop offset="0.99" stop-color="#ababab" />
            <stop offset="0.99" stop-color="#737373" />
            <stop offset="0.99" stop-color="#666" />
        </linearGradient>
        <linearGradient id="未命名的渐变_105" x1="54.95" y1="65.28" x2="54.95" y2="40.54" gradientUnits="userSpaceOnUse">
            <stop offset="0" stop-color="#e2e2e2" />
            <stop offset="0.03" stop-color="#d0d0d0" />
            <stop offset="0.06" stop-color="#bcbcbc" />
            <stop offset="0.09" stop-color="#b5b5b5" />
            <stop offset="0.49" stop-color="#f6f6f6" />
            <stop offset="0.63" stop-color="#f3f3f3" />
            <stop offset="0.73" stop-color="#eaeaea" />
            <stop offset="0.82" stop-color="#dbdbdb" />
            <stop offset="0.9" stop-color="#c6c6c6" />
            <stop offset="0.97" stop-color="#aaa" />
            <stop offset="1" stop-color="#9b9b9b" />
        </linearGradient>
        <linearGradient id="未命名的渐变_105-2" x1="69.3" y1="36.8" x2="74.56" y2="36.8" xlink:href="#未命名的渐变_105" />
        <linearGradient id="未命名的渐变_105-3" x1="17.67" y1="65.28" x2="17.67" y2="49.67" xlink:href="#未命名的渐变_105" />
        <linearGradient id="未命名的渐变_105-4" x1="98.11" y1="50.76" x2="98.11" y2="47.06" xlink:href="#未命名的渐变_105" />
        <linearGradient id="未命名的渐变_105-5" x1="90.36" y1="32.14" x2="112.95" y2="32.14" xlink:href="#未命名的渐变_105" />
        <linearGradient id="未命名的渐变_105-6" x1="119.47" y1="58.02" x2="121.65" y2="58.02" xlink:href="#未命名的渐变_105" />
        <linearGradient id="未命名的渐变_105-7" x1="114.37" y1="58.02" x2="116.55" y2="58.02" xlink:href="#未命名的渐变_105" />
    </defs>
    <title>Hob sharpener(滚刀磨刀机)</title>
    <g id="图层_2" data-name="图层 2">
        <g id="图层_61" data-name="图层 61">
            <g id="Hob_sharpener_滚刀磨刀机_" data-name="Hob sharpener(滚刀磨刀机)">
                <rect class="cls-1" x="96.55" y="32.43" width="10.21" height="30.3" />
                <rect class="cls-2" x="8.88" y="65.28" width="140.08" height="6.32" />
                <rect class="cls-2" x="24.48" y="131.62" width="125.61" height="6.32" />
                <rect class="cls-2" x="30.73" y="71.6" width="112.63" height="60.23" />
                <polygon class="cls-3"
                    points="59.54 71.6 45.44 71.6 45.44 96.33 59.54 96.33 59.54 105.04 84.63 105.04 84.63 71.6 59.54 71.6" />
                <rect class="cls-4" x="39.18" y="97.84" width="18.87" height="31.71" />
                <rect class="cls-3" x="90.08" y="73.35" width="22.82" height="11.04" />
                <polyline class="cls-5" points="143.35 91.86 103.96 91.86 103.96 112.22 62.04 112.22 62.04 131.83" />
                <line class="cls-5" x1="143.36" y1="131.83" x2="30.73" y2="131.83" />
                <line class="cls-5" x1="143.36" y1="71.6" x2="30.73" y2="71.6" />
                <rect class="cls-3" x="90.08" y="86.96" width="12.16" height="23.14" />
                <rect class="cls-6" x="125.01" y="73.35" width="17.06" height="17.06" />
                <rect class="cls-7" x="35.34" y="40.54" width="39.22" height="24.74" />
                <rect class="cls-8" x="69.3" y="33.06" width="5.26" height="7.48" />
                <polyline class="cls-5" points="70.84 40.54 70.84 61.83 39.18 61.83 39.18 40.54" />
                <path class="cls-9"
                    d="M7.32,49.67h28a0,0,0,0,1,0,0V65.28a0,0,0,0,1,0,0h-28A7.32,7.32,0,0,1,0,58V57A7.32,7.32,0,0,1,7.32,49.67Z" />
                <polyline class="cls-5" points="30.73 49.67 30.73 61.1 10.6 61.1 10.6 49.67" />
                <rect class="cls-10" x="74.56" y="47.06" width="47.09" height="3.69" />
                <rect class="cls-1" x="93.22" y="62.73" width="16.88" height="2.55" />
                <rect class="cls-2" x="94.55" width="14.21" height="25.72" />
                <rect class="cls-6" x="97.19" y="1.97" width="8.94" height="13.27" />
                <circle class="cls-2" cx="101.66" cy="36.85" r="10.21" />
                <rect class="cls-11" x="90.36" y="25.72" width="22.59" height="12.85" />
                <rect class="cls-12" x="119.47" y="50.76" width="2.18" height="14.52" />
                <rect class="cls-13" x="114.37" y="50.76" width="2.18" height="14.52" />
               
            </g>
        </g>
    </g>
</svg>