<svg xmlns="http://www.w3.org/2000/svg" xmlns:xlink="http://www.w3.org/1999/xlink" viewBox="0 0 125.31 149.8">
    <defs>
        <style>
            .cls-1 {
                fill: #707070;
            }

            .cls-2 {
                fill: url(#未命名的渐变_74);
            }

            .cls-3 {
                fill: url(#未命名的渐变_74-2);
            }

            .cls-4,
            .cls-7,
            .cls-8 {
                fill: none;
                stroke-miterlimit: 10;
            }

            .cls-4 {
                stroke: #050505;
            }

            .cls-5 {
                fill: url(#未命名的渐变_74-3);
            }

            .cls-6 {
                fill: url(#未命名的渐变_74-4);
            }

            .cls-7 {
                stroke: #707070;
                stroke-width: 2px;
            }

            .cls-8 {
                stroke: #919191;
            }

            .cls-9 {
                fill: url(#未命名的渐变_105);
            }

            .cls-10 {
                fill: url(#未命名的渐变_105-2);
            }

            .cls-11 {
                fill: url(#未命名的渐变_74-5);
            }

            .cls-12 {
                fill: url(#未命名的渐变_105-3);
            }

            .cls-13 {
                fill: url(#未命名的渐变_105-4);
            }

            .cls-14 {
                fill: url(#未命名的渐变_105-5);
            }

            .cls-15 {
                fill: url(#未命名的渐变_105-6);
            }

            .cls-16 {
                fill: url(#未命名的渐变_74-6);
            }

            .cls-17 {
                opacity: 0.2;
            }
        </style>
        <linearGradient id="未命名的渐变_74" x1="62.36" y1="73.78" x2="62.36" y2="71.74" gradientUnits="userSpaceOnUse">
            <stop offset="0" stop-color="#6b6b6b" />
            <stop offset="0.01" stop-color="#767676" />
            <stop offset="0.03" stop-color="#959595" />
            <stop offset="0.04" stop-color="#aaa" />
            <stop offset="0.37" stop-color="#ccc" />
            <stop offset="0.74" stop-color="#eaeaea" />
            <stop offset="0.94" stop-color="#f6f6f6" />
            <stop offset="0.95" stop-color="#ededed" />
            <stop offset="0.96" stop-color="#d4d4d4" />
            <stop offset="0.97" stop-color="#ababab" />
            <stop offset="0.99" stop-color="#737373" />
            <stop offset="0.99" stop-color="#666" />
        </linearGradient>
        <linearGradient id="未命名的渐变_74-2" x1="28.27" y1="112.36" x2="94.46" y2="112.36" xlink:href="#未命名的渐变_74" />
        <linearGradient id="未命名的渐变_74-3" x1="25.67" y1="85.43" x2="97.28" y2="85.43" xlink:href="#未命名的渐变_74" />
        <linearGradient id="未命名的渐变_74-4" x1="25.53" y1="141.08" x2="97.14" y2="141.08" xlink:href="#未命名的渐变_74" />
        <linearGradient id="未命名的渐变_105" x1="91.69" y1="72.76" x2="95.83" y2="72.76" gradientUnits="userSpaceOnUse">
            <stop offset="0" stop-color="#e2e2e2" />
            <stop offset="0.03" stop-color="#d0d0d0" />
            <stop offset="0.06" stop-color="#bcbcbc" />
            <stop offset="0.09" stop-color="#b5b5b5" />
            <stop offset="0.49" stop-color="#f6f6f6" />
            <stop offset="0.63" stop-color="#f3f3f3" />
            <stop offset="0.73" stop-color="#eaeaea" />
            <stop offset="0.82" stop-color="#dbdbdb" />
            <stop offset="0.9" stop-color="#c6c6c6" />
            <stop offset="0.97" stop-color="#aaa" />
            <stop offset="1" stop-color="#9b9b9b" />
        </linearGradient>
        <linearGradient id="未命名的渐变_105-2" x1="28.89" y1="72.76" x2="33.03" y2="72.76" xlink:href="#未命名的渐变_105" />
        <linearGradient id="未命名的渐变_74-5" x1="47.6" y1="26.26" x2="74.96" y2="26.26" xlink:href="#未命名的渐变_74" />
        <linearGradient id="未命名的渐变_105-3" x1="67.97" y1="49.18" x2="73.5" y2="49.18" xlink:href="#未命名的渐变_105" />
        <linearGradient id="未命名的渐变_105-4" x1="69.93" y1="28.4" x2="71.67" y2="28.4" xlink:href="#未命名的渐变_105" />
        <linearGradient id="未命名的渐变_105-5" x1="68.73" y1="18.19" x2="73.08" y2="18.19" xlink:href="#未命名的渐变_105" />
        <linearGradient id="未命名的渐变_105-6" x1="68.73" y1="23.78" x2="73.08" y2="23.78" xlink:href="#未命名的渐变_105" />
        <linearGradient id="未命名的渐变_74-6" x1="52.74" y1="37.1" x2="68.86" y2="37.1" xlink:href="#未命名的渐变_74" />
    </defs>
    <title>Horizontal spindle surface grinder(卧式主轴平面磨床)</title>
    <g id="图层_2" data-name="图层 2">
        <g id="图层_61" data-name="图层 61">
            <g id="Horizontal_spindle_surface_grinder_卧式主轴平面磨床_"
                data-name="Horizontal spindle surface grinder(卧式主轴平面磨床)">
                <path class="cls-1"
                    d="M125.31,76.75H0V69l13.42-1.8a45.2,45.2,0,0,1,6-.39h85.21a44.76,44.76,0,0,1,5.44.33L125.31,69Z" />
                <rect class="cls-2" x="30.96" y="71.74" width="62.8" height="2.04" />
                <rect class="cls-1" x="17.05" y="52.53" width="87.53" height="14.28" />
                <polygon class="cls-1" points="24.37 66.81 17.05 66.81 17.05 48.85 24.37 41.59 24.37 66.81" />
                <polygon class="cls-1" points="97.27 66.81 104.58 66.81 104.58 52.49 97.27 46.7 97.27 66.81" />
                <rect class="cls-3" x="28.27" y="76.75" width="66.18" height="71.21" />
                <line class="cls-4" x1="104.59" y1="66.81" x2="17.05" y2="66.81" />
                <rect class="cls-5" x="25.67" y="76.83" width="71.61" height="17.21" />
                <rect class="cls-6" x="25.53" y="132.48" width="71.61" height="17.21" />
                <rect class="cls-1" x="50.39" y="104.71" width="21.75" height="13.5" />
                <circle class="cls-7" cx="35.7" cy="87.25" r="9.97" />
                <circle class="cls-1" cx="35.7" cy="87.25" r="3.09" />
                <line class="cls-7" x1="35.7" y1="77.28" x2="35.7" y2="87.25" />
                <line class="cls-7" x1="27.06" y1="92.24" x2="35.7" y2="87.25" />
                <line class="cls-7" x1="44.33" y1="92.24" x2="35.7" y2="87.25" />
                <circle class="cls-7" cx="61.26" cy="85.06" r="6.21" />
                <circle class="cls-1" cx="61.26" cy="85.06" r="1.93" />
                <line class="cls-7" x1="61.26" y1="78.84" x2="61.26" y2="85.06" />
                <line class="cls-7" x1="55.88" y1="88.16" x2="61.26" y2="85.06" />
                <line class="cls-7" x1="66.64" y1="88.16" x2="61.26" y2="85.06" />
                <line class="cls-8" x1="45.63" y1="76.72" x2="47.43" y2="94" />
                <line class="cls-8" x1="48.74" y1="94.07" x2="50.39" y2="132.48" />
                <line class="cls-8" x1="51.58" y1="132.48" x2="52.96" y2="149.69" />
                <line class="cls-8" x1="79.02" y1="76.79" x2="77.23" y2="94.08" />
                <line class="cls-8" x1="75.92" y1="94.15" x2="74.27" y2="132.55" />
                <line class="cls-8" x1="73.08" y1="132.55" x2="71.7" y2="149.76" />
                <polyline class="cls-4" points="97.27 52.53 97.27 64.79 24.37 64.79 24.37 52.53" />
                <circle class="cls-9" cx="93.76" cy="72.76" r="2.07" />
                <circle class="cls-10" cx="30.96" cy="72.76" r="2.07" />
                <path class="cls-11"
                    d="M75,52.53H47.6V6.46a5,5,0,0,1,3.67-4.84l1.61-.46a30.93,30.93,0,0,1,16.8,0l1.62.46A5,5,0,0,1,75,6.46Z" />
                <rect class="cls-1" x="52.74" y="5.81" width="16.12" height="46.72" />
                <rect class="cls-12" x="67.97" y="45.83" width="5.53" height="6.7" />
                <rect class="cls-13" x="69.93" y="10.96" width="1.74" height="34.87" />
                <rect class="cls-14" x="68.73" y="16.71" width="4.35" height="2.94" />
                <rect class="cls-15" x="68.73" y="22.31" width="4.35" height="2.94" />
                <path class="cls-16" d="M68.86,44.1H52.74v-12h0a17.18,17.18,0,0,1,15.53-.28l.59.28Z" />
                <rect class="cls-1" x="57.36" y="34.91" width="6.55" height="5.22" />
              
            </g>
        </g>
    </g>
</svg>