<svg xmlns="http://www.w3.org/2000/svg" xmlns:xlink="http://www.w3.org/1999/xlink" viewBox="0 0 149.81 109.55">
    <defs>
        <style>
            .cls-1 {
                fill: url(#未命名的渐变_105);
            }

            .cls-2 {
                fill: url(#未命名的渐变_105-2);
            }

            .cls-3 {
                fill: url(#未命名的渐变_105-3);
            }

            .cls-4 {
                fill: url(#未命名的渐变_74);
            }

            .cls-5 {
                fill: url(#未命名的渐变_105-4);
            }

            .cls-6 {
                fill: url(#未命名的渐变_105-5);
            }

            .cls-7 {
                fill: url(#未命名的渐变_105-6);
            }

            .cls-8 {
                fill: url(#未命名的渐变_74-2);
            }

            .cls-9 {
                fill: url(#未命名的渐变_74-3);
            }

            .cls-10 {
                fill: url(#未命名的渐变_74-4);
            }

            .cls-11 {
                fill: url(#未命名的渐变_74-5);
            }

            .cls-12,
            .cls-14,
            .cls-48 {
                fill: #565656;
            }

            .cls-12 {
                stroke: #898989;
            }

            .cls-12,
            .cls-13,
            .cls-14,
            .cls-48 {
                stroke-miterlimit: 10;
            }

            .cls-12,
            .cls-13,
            .cls-14 {
                stroke-width: 0.25px;
            }

            .cls-13 {
                fill: #b9b8bc;
                stroke: #565656;
            }

            .cls-14,
            .cls-48 {
                stroke: #b9b8bc;
            }

            .cls-15 {
                fill: url(#未命名的渐变_74-6);
            }

            .cls-16 {
                fill: url(#未命名的渐变_105-7);
            }

            .cls-17 {
                fill: url(#未命名的渐变_105-8);
            }

            .cls-18 {
                fill: url(#未命名的渐变_74-7);
            }

            .cls-19 {
                fill: url(#未命名的渐变_74-8);
            }

            .cls-20 {
                fill: url(#未命名的渐变_74-9);
            }

            .cls-21 {
                fill: url(#未命名的渐变_105-9);
            }

            .cls-22 {
                fill: url(#未命名的渐变_74-10);
            }

            .cls-23 {
                fill: url(#未命名的渐变_105-10);
            }

            .cls-24 {
                fill: url(#未命名的渐变_105-11);
            }

            .cls-25 {
                fill: url(#未命名的渐变_105-12);
            }

            .cls-26 {
                fill: url(#未命名的渐变_105-13);
            }

            .cls-27 {
                fill: url(#未命名的渐变_105-14);
            }

            .cls-28 {
                fill: url(#未命名的渐变_105-15);
            }

            .cls-29 {
                fill: url(#未命名的渐变_105-16);
            }

            .cls-30 {
                fill: url(#未命名的渐变_105-17);
            }

            .cls-31 {
                fill: url(#未命名的渐变_105-18);
            }

            .cls-32 {
                fill: url(#未命名的渐变_105-19);
            }

            .cls-33 {
                fill: url(#未命名的渐变_105-20);
            }

            .cls-34 {
                fill: url(#未命名的渐变_105-21);
            }

            .cls-35 {
                fill: url(#未命名的渐变_105-22);
            }

            .cls-36 {
                fill: url(#未命名的渐变_105-23);
            }

            .cls-37 {
                fill: url(#未命名的渐变_105-24);
            }

            .cls-38 {
                fill: url(#未命名的渐变_105-25);
            }

            .cls-39 {
                fill: url(#未命名的渐变_105-26);
            }

            .cls-40 {
                fill: url(#未命名的渐变_105-27);
            }

            .cls-41 {
                fill: url(#未命名的渐变_105-28);
            }

            .cls-42 {
                fill: url(#未命名的渐变_105-29);
            }

            .cls-43 {
                fill: url(#未命名的渐变_105-30);
            }

            .cls-44 {
                fill: url(#未命名的渐变_105-31);
            }

            .cls-45 {
                fill: url(#未命名的渐变_105-32);
            }

            .cls-46 {
                fill: url(#未命名的渐变_105-33);
            }

            .cls-47 {
                fill: url(#未命名的渐变_74-11);
            }

            .cls-48 {
                stroke-width: 0.75px;
            }

            .cls-49 {
                opacity: 0.2;
            }
        </style>
        <linearGradient id="未命名的渐变_105" x1="4.31" y1="7.16" x2="8.86" y2="7.16" gradientUnits="userSpaceOnUse">
            <stop offset="0" stop-color="#e2e2e2" />
            <stop offset="0.03" stop-color="#d0d0d0" />
            <stop offset="0.06" stop-color="#bcbcbc" />
            <stop offset="0.09" stop-color="#b5b5b5" />
            <stop offset="0.49" stop-color="#f6f6f6" />
            <stop offset="0.63" stop-color="#f3f3f3" />
            <stop offset="0.73" stop-color="#eaeaea" />
            <stop offset="0.82" stop-color="#dbdbdb" />
            <stop offset="0.9" stop-color="#c6c6c6" />
            <stop offset="0.97" stop-color="#aaa" />
            <stop offset="1" stop-color="#9b9b9b" />
        </linearGradient>
        <linearGradient id="未命名的渐变_105-2" x1="2.37" y1="14.19" x2="10.72" y2="14.19" xlink:href="#未命名的渐变_105" />
        <linearGradient id="未命名的渐变_105-3" x1="4.31" y1="41.09" x2="8.86" y2="41.09" xlink:href="#未命名的渐变_105" />
        <linearGradient id="未命名的渐变_74" y1="26" x2="12.78" y2="26" gradientUnits="userSpaceOnUse">
            <stop offset="0" stop-color="#6b6b6b" />
            <stop offset="0.01" stop-color="#767676" />
            <stop offset="0.03" stop-color="#959595" />
            <stop offset="0.04" stop-color="#aaa" />
            <stop offset="0.37" stop-color="#ccc" />
            <stop offset="0.74" stop-color="#eaeaea" />
            <stop offset="0.94" stop-color="#f6f6f6" />
            <stop offset="0.95" stop-color="#ededed" />
            <stop offset="0.96" stop-color="#d4d4d4" />
            <stop offset="0.97" stop-color="#ababab" />
            <stop offset="0.99" stop-color="#737373" />
            <stop offset="0.99" stop-color="#666" />
        </linearGradient>
        <linearGradient id="未命名的渐变_105-4" x1="141.33" y1="6.19" x2="145.88" y2="6.19" xlink:href="#未命名的渐变_105" />
        <linearGradient id="未命名的渐变_105-5" x1="139.4" y1="13.22" x2="147.75" y2="13.22" xlink:href="#未命名的渐变_105" />
        <linearGradient id="未命名的渐变_105-6" x1="141.33" y1="40.12" x2="145.88" y2="40.12" xlink:href="#未命名的渐变_105" />
        <linearGradient id="未命名的渐变_74-2" x1="137.03" y1="25.03" x2="149.81" y2="25.03" xlink:href="#未命名的渐变_74" />
        <linearGradient id="未命名的渐变_74-3" x1="75.79" y1="46.51" x2="75.79" y2="2.59" xlink:href="#未命名的渐变_74" />
        <linearGradient id="未命名的渐变_74-4" x1="75.79" y1="109.55" x2="75.79" y2="75.31" xlink:href="#未命名的渐变_74" />
        <linearGradient id="未命名的渐变_74-5" x1="75.79" y1="75.31" x2="75.79" y2="46.51" xlink:href="#未命名的渐变_74" />
        <linearGradient id="未命名的渐变_74-6" x1="75.79" y1="58.58" x2="75.79" y2="51.8" xlink:href="#未命名的渐变_74" />
        <linearGradient id="未命名的渐变_105-7" x1="134.2" y1="100.51" x2="135.73" y2="100.51" xlink:href="#未命名的渐变_105" />
        <linearGradient id="未命名的渐变_105-8" x1="75.8" y1="86.54" x2="75.8" y2="83.67" xlink:href="#未命名的渐变_105" />
        <linearGradient id="未命名的渐变_74-7" x1="75.75" y1="106.54" x2="75.75" y2="103.67" xlink:href="#未命名的渐变_74" />
        <linearGradient id="未命名的渐变_74-8" x1="143.56" y1="88.53" x2="143.56" y2="83.67" xlink:href="#未命名的渐变_74" />
        <linearGradient id="未命名的渐变_74-9" x1="7.89" y1="88.53" x2="7.89" y2="83.67" xlink:href="#未命名的渐变_74" />
        <linearGradient id="未命名的渐变_105-9" x1="79.69" y1="90.23" x2="81.26" y2="90.23" xlink:href="#未命名的渐变_105" />
        <linearGradient id="未命名的渐变_74-10" x1="80.47" y1="88.53" x2="80.47" y2="83.11" xlink:href="#未命名的渐变_74" />
        <linearGradient id="未命名的渐变_105-10" x1="79.29" y1="90.39" x2="81.66" y2="90.39" xlink:href="#未命名的渐变_105" />
        <linearGradient id="未命名的渐变_105-11" x1="133.07" y1="95.08" x2="137.03" y2="95.08" xlink:href="#未命名的渐变_105" />
        <linearGradient id="未命名的渐变_105-12" x1="14.48" y1="94.8" x2="18.43" y2="94.8" xlink:href="#未命名的渐变_105" />
        <linearGradient id="未命名的渐变_105-13" x1="15.61" y1="100.23" x2="17.14" y2="100.23" xlink:href="#未命名的渐变_105" />
        <linearGradient id="未命名的渐变_105-14" x1="130.77" y1="79.35" x2="132.9" y2="79.35" xlink:href="#未命名的渐变_105" />
        <linearGradient id="未命名的渐变_105-15" x1="124.81" y1="79.35" x2="126.93" y2="79.35" xlink:href="#未命名的渐变_105" />
        <linearGradient id="未命名的渐变_105-16" x1="118.84" y1="79.35" x2="120.97" y2="79.35" xlink:href="#未命名的渐变_105" />
        <linearGradient id="未命名的渐变_105-17" x1="112.88" y1="79.35" x2="115" y2="79.35" xlink:href="#未命名的渐变_105" />
        <linearGradient id="未命名的渐变_105-18" x1="106.91" y1="79.35" x2="109.04" y2="79.35" xlink:href="#未命名的渐变_105" />
        <linearGradient id="未命名的渐变_105-19" x1="100.95" y1="79.35" x2="103.07" y2="79.35" xlink:href="#未命名的渐变_105" />
        <linearGradient id="未命名的渐变_105-20" x1="94.98" y1="79.35" x2="97.11" y2="79.35" xlink:href="#未命名的渐变_105" />
        <linearGradient id="未命名的渐变_105-21" x1="89.02" y1="79.35" x2="91.14" y2="79.35" xlink:href="#未命名的渐变_105" />
        <linearGradient id="未命名的渐变_105-22" x1="83.05" y1="79.35" x2="85.18" y2="79.35" xlink:href="#未命名的渐变_105" />
        <linearGradient id="未命名的渐变_105-23" x1="77.09" y1="79.35" x2="79.21" y2="79.35" xlink:href="#未命名的渐变_105" />
        <linearGradient id="未命名的渐变_105-24" x1="71.12" y1="79.35" x2="73.25" y2="79.35" xlink:href="#未命名的渐变_105" />
        <linearGradient id="未命名的渐变_105-25" x1="65.16" y1="79.35" x2="67.28" y2="79.35" xlink:href="#未命名的渐变_105" />
        <linearGradient id="未命名的渐变_105-26" x1="59.19" y1="79.35" x2="61.32" y2="79.35" xlink:href="#未命名的渐变_105" />
        <linearGradient id="未命名的渐变_105-27" x1="53.23" y1="79.35" x2="55.35" y2="79.35" xlink:href="#未命名的渐变_105" />
        <linearGradient id="未命名的渐变_105-28" x1="47.26" y1="79.35" x2="49.39" y2="79.35" xlink:href="#未命名的渐变_105" />
        <linearGradient id="未命名的渐变_105-29" x1="41.3" y1="79.35" x2="43.42" y2="79.35" xlink:href="#未命名的渐变_105" />
        <linearGradient id="未命名的渐变_105-30" x1="35.33" y1="79.35" x2="37.46" y2="79.35" xlink:href="#未命名的渐变_105" />
        <linearGradient id="未命名的渐变_105-31" x1="29.37" y1="79.35" x2="31.49" y2="79.35" xlink:href="#未命名的渐变_105" />
        <linearGradient id="未命名的渐变_105-32" x1="23.4" y1="79.35" x2="25.53" y2="79.35" xlink:href="#未命名的渐变_105" />
        <linearGradient id="未命名的渐变_105-33" x1="17.44" y1="79.35" x2="19.57" y2="79.35" xlink:href="#未命名的渐变_105" />
        <linearGradient id="未命名的渐变_74-11" x1="75.33" y1="81.41" x2="75.33" y2="77.51" xlink:href="#未命名的渐变_74" />
    </defs>
    <title>Hydraulic press brake (液压制动器)</title>
    <g id="图层_2" data-name="图层 2">
        <g id="图层_61" data-name="图层 61">
            <g id="Hydraulic_press_brake_液压制动器_" data-name="Hydraulic press brake (液压制动器)">
                <rect class="cls-1" x="4.31" y="0.97" width="4.55" height="12.37" />
                <rect class="cls-2" x="2.37" y="13.35" width="8.35" height="1.7" />
                <rect class="cls-3" x="4.31" y="36.97" width="4.55" height="8.25" />
                <rect class="cls-4" y="15.04" width="12.78" height="21.92" />
                <rect class="cls-5" x="141.33" width="4.55" height="12.37" />
                <rect class="cls-6" x="139.4" y="12.37" width="8.35" height="1.7" />
                <rect class="cls-7" x="141.33" y="35.99" width="4.55" height="8.25" />
                <rect class="cls-8" x="137.03" y="14.07" width="12.78" height="21.92" />
                <polygon class="cls-9"
                    points="137.03 37 137.03 18.06 119.91 2.59 34.9 2.59 12.83 18.06 12.83 37 2.9 46.51 148.68 46.51 137.03 37" />
                <polygon class="cls-10" points="135.61 109.55 15.88 109.55 2.9 75.31 148.68 75.31 135.61 109.55" />
                <rect class="cls-11" x="2.9" y="46.51" width="145.78" height="28.79" />
                <line class="cls-12" x1="2.9" y1="69.63" x2="148.68" y2="69.63" />
                <line class="cls-13" x1="2.9" y1="66.32" x2="148.68" y2="66.32" />
                <circle class="cls-14" cx="101.55" cy="15.64" r="2.63" />
                <circle class="cls-14" cx="50.24" cy="15.64" r="2.63" />
                <rect class="cls-15" x="2.9" y="51.8" width="145.78" height="6.78" />
                <circle class="cls-14" cx="145.48" cy="55.58" r="1.21" />
                <circle class="cls-14" cx="139.66" cy="55.58" r="1.21" />
                <circle class="cls-14" cx="133.84" cy="55.58" r="1.21" />
                <circle class="cls-14" cx="128.02" cy="55.58" r="1.21" />
                <circle class="cls-14" cx="122.2" cy="55.58" r="1.21" />
                <circle class="cls-14" cx="116.38" cy="55.58" r="1.21" />
                <circle class="cls-14" cx="110.56" cy="55.58" r="1.21" />
                <circle class="cls-14" cx="104.74" cy="55.58" r="1.21" />
                <circle class="cls-14" cx="98.92" cy="55.58" r="1.21" />
                <circle class="cls-14" cx="93.1" cy="55.58" r="1.21" />
                <circle class="cls-14" cx="87.28" cy="55.58" r="1.21" />
                <circle class="cls-14" cx="81.46" cy="55.58" r="1.21" />
                <circle class="cls-14" cx="75.64" cy="55.58" r="1.21" />
                <circle class="cls-14" cx="69.82" cy="55.58" r="1.21" />
                <circle class="cls-14" cx="64" cy="55.58" r="1.21" />
                <circle class="cls-14" cx="58.18" cy="55.58" r="1.21" />
                <circle class="cls-14" cx="52.36" cy="55.58" r="1.21" />
                <circle class="cls-14" cx="46.54" cy="55.58" r="1.21" />
                <circle class="cls-14" cx="40.72" cy="55.58" r="1.21" />
                <circle class="cls-14" cx="34.9" cy="55.58" r="1.21" />
                <circle class="cls-14" cx="29.08" cy="55.58" r="1.21" />
                <circle class="cls-14" cx="23.26" cy="55.58" r="1.21" />
                <circle class="cls-14" cx="17.44" cy="55.58" r="1.21" />
                <circle class="cls-14" cx="11.62" cy="55.58" r="1.21" />
                <circle class="cls-14" cx="5.8" cy="55.58" r="1.21" />
                <rect class="cls-16" x="134.2" y="97.06" width="1.53" height="6.89" />
                <rect class="cls-17" x="6.2" y="83.67" width="139.2" height="2.87" />
                <polygon class="cls-18" points="136.76 106.54 14.74 106.54 13.63 103.67 137.86 103.67 136.76 106.54" />
                <rect class="cls-19" x="141.71" y="83.67" width="3.69" height="4.86" />
                <rect class="cls-20" x="6.04" y="83.67" width="3.69" height="4.86" />
                <rect class="cls-21" x="79.69" y="87.34" width="1.56" height="5.76" />
                <circle class="cls-22" cx="80.47" cy="85.82" r="2.71" />
                <rect class="cls-23" x="79.29" y="89.8" width="2.37" height="1.19" />
                <circle class="cls-24" cx="135.05" cy="95.08" r="1.98" />
                <circle class="cls-25" cx="16.46" cy="94.8" r="1.98" />
                <rect class="cls-26" x="15.61" y="96.78" width="1.53" height="6.89" />
                <rect class="cls-27" x="130.77" y="76.04" width="2.13" height="6.61" />
                <rect class="cls-28" x="124.81" y="76.04" width="2.13" height="6.61" />
                <rect class="cls-29" x="118.84" y="76.04" width="2.13" height="6.61" />
                <rect class="cls-30" x="112.88" y="76.04" width="2.13" height="6.61" />
                <rect class="cls-31" x="106.91" y="76.04" width="2.13" height="6.61" />
                <rect class="cls-32" x="100.95" y="76.04" width="2.13" height="6.61" />
                <rect class="cls-33" x="94.98" y="76.04" width="2.13" height="6.61" />
                <rect class="cls-34" x="89.02" y="76.04" width="2.13" height="6.61" />
                <rect class="cls-35" x="83.05" y="76.04" width="2.13" height="6.61" />
                <rect class="cls-36" x="77.09" y="76.04" width="2.13" height="6.61" />
                <rect class="cls-37" x="71.12" y="76.04" width="2.13" height="6.61" />
                <rect class="cls-38" x="65.16" y="76.04" width="2.13" height="6.61" />
                <rect class="cls-39" x="59.19" y="76.04" width="2.13" height="6.61" />
                <rect class="cls-40" x="53.23" y="76.04" width="2.13" height="6.61" />
                <rect class="cls-41" x="47.26" y="76.04" width="2.13" height="6.61" />
                <rect class="cls-42" x="41.3" y="76.04" width="2.13" height="6.61" />
                <rect class="cls-43" x="35.33" y="76.04" width="2.13" height="6.61" />
                <rect class="cls-44" x="29.37" y="76.04" width="2.13" height="6.61" />
                <rect class="cls-45" x="23.4" y="76.04" width="2.13" height="6.61" />
                <rect class="cls-46" x="17.44" y="76.04" width="2.13" height="6.61" />
                <rect class="cls-47" x="15.61" y="77.51" width="119.44" height="3.9" />
                <rect class="cls-48" x="23.26" y="18.27" width="12.85" height="17.22" />
                <rect class="cls-48" x="62.79" y="12.27" width="24.49" height="8.01" />
               
            </g>
        </g>
    </g>
</svg>