<svg xmlns="http://www.w3.org/2000/svg" xmlns:xlink="http://www.w3.org/1999/xlink" viewBox="0 0 150 143.95">
    <defs>
        <style>
            .cls-1 {
                fill: url(#未命名的渐变_74);
            }

            .cls-2 {
                fill: url(#未命名的渐变_74-2);
            }

            .cls-3 {
                fill: url(#未命名的渐变_74-3);
            }

            .cls-4 {
                fill: url(#未命名的渐变_74-4);
            }

            .cls-5 {
                fill: url(#未命名的渐变_74-5);
            }

            .cls-6 {
                fill: #909191;
            }

            .cls-7 {
                fill: url(#未命名的渐变_74-6);
            }

            .cls-8 {
                fill: #a5a5a5;
            }

            .cls-9 {
                fill: none;
                stroke: #333;
                stroke-miterlimit: 10;
            }

            .cls-10 {
                fill: url(#未命名的渐变_74-7);
            }

            .cls-11 {
                fill: url(#未命名的渐变_74-8);
            }

            .cls-12 {
                fill: url(#未命名的渐变_74-9);
            }

            .cls-13 {
                fill: url(#未命名的渐变_74-10);
            }

            .cls-14 {
                fill: url(#未命名的渐变_105);
            }

            .cls-15 {
                fill: url(#未命名的渐变_105-2);
            }

            .cls-16 {
                fill: url(#未命名的渐变_105-3);
            }

            .cls-17 {
                fill: url(#未命名的渐变_74-11);
            }

            .cls-18 {
                fill: url(#未命名的渐变_74-12);
            }

            .cls-19 {
                fill: url(#未命名的渐变_74-13);
            }

            .cls-20 {
                fill: url(#未命名的渐变_74-14);
            }

            .cls-21 {
                opacity: 0.2;
            }
        </style>
        <linearGradient id="未命名的渐变_74" x1="83.5" y1="17.63" x2="91.95" y2="17.63" gradientUnits="userSpaceOnUse">
            <stop offset="0" stop-color="#6b6b6b" />
            <stop offset="0.01" stop-color="#767676" />
            <stop offset="0.03" stop-color="#959595" />
            <stop offset="0.04" stop-color="#aaa" />
            <stop offset="0.37" stop-color="#ccc" />
            <stop offset="0.74" stop-color="#eaeaea" />
            <stop offset="0.94" stop-color="#f6f6f6" />
            <stop offset="0.95" stop-color="#ededed" />
            <stop offset="0.96" stop-color="#d4d4d4" />
            <stop offset="0.97" stop-color="#ababab" />
            <stop offset="0.99" stop-color="#737373" />
            <stop offset="0.99" stop-color="#666" />
        </linearGradient>
        <linearGradient id="未命名的渐变_74-2" x1="63.94" y1="13.32" x2="97.44" y2="13.32" xlink:href="#未命名的渐变_74" />
        <linearGradient id="未命名的渐变_74-3" x1="12.7" y1="90.58" x2="139.17" y2="90.58" xlink:href="#未命名的渐变_74" />
        <linearGradient id="未命名的渐变_74-4" x1="75" y1="100.75" x2="75" y2="88.9" xlink:href="#未命名的渐变_74" />
        <linearGradient id="未命名的渐变_74-5" x1="17.97" y1="88.9" x2="17.97" y2="68.8" xlink:href="#未命名的渐变_74" />
        <linearGradient id="未命名的渐变_74-6" x1="118.97" y1="88.9" x2="118.97" y2="68.8"
            gradientTransform="matrix(1, 0, 0, -1, 13.05, 157.7)" xlink:href="#未命名的渐变_74" />
        <linearGradient id="未命名的渐变_74-7" x1="125.03" y1="51.19" x2="139.17" y2="51.19" xlink:href="#未命名的渐变_74" />
        <linearGradient id="未命名的渐变_74-8" x1="128.98" y1="47.82" x2="135.58" y2="47.82" xlink:href="#未命名的渐变_74" />
        <linearGradient id="未命名的渐变_74-9" x1="121.76" y1="36.38" x2="150" y2="36.38" xlink:href="#未命名的渐变_74" />
        <linearGradient id="未命名的渐变_74-10" x1="64.19" y1="39.71" x2="87.6" y2="39.71" xlink:href="#未命名的渐变_74" />
        <linearGradient id="未命名的渐变_105" x1="72.71" y1="55.91" x2="78.65" y2="55.91" gradientUnits="userSpaceOnUse">
            <stop offset="0" stop-color="#e2e2e2" />
            <stop offset="0.03" stop-color="#d0d0d0" />
            <stop offset="0.06" stop-color="#bcbcbc" />
            <stop offset="0.09" stop-color="#b5b5b5" />
            <stop offset="0.49" stop-color="#f6f6f6" />
            <stop offset="0.63" stop-color="#f3f3f3" />
            <stop offset="0.73" stop-color="#eaeaea" />
            <stop offset="0.82" stop-color="#dbdbdb" />
            <stop offset="0.9" stop-color="#c6c6c6" />
            <stop offset="0.97" stop-color="#aaa" />
            <stop offset="1" stop-color="#9b9b9b" />
        </linearGradient>
        <linearGradient id="未命名的渐变_105-2" x1="73.97" y1="64.57" x2="77.58" y2="64.57" xlink:href="#未命名的渐变_105" />
        <linearGradient id="未命名的渐变_105-3" x1="75.24" y1="71.78" x2="76.15" y2="71.78" xlink:href="#未命名的渐变_105" />
        <linearGradient id="未命名的渐变_74-11" x1="70.91" y1="137.78" x2="75.68" y2="137.78" xlink:href="#未命名的渐变_74" />
        <linearGradient id="未命名的渐变_74-12" x1="139.17" y1="137.78" x2="146.72" y2="137.78" xlink:href="#未命名的渐变_74" />
        <linearGradient id="未命名的渐变_74-13" x1="20.53" y1="137.78" x2="28.08" y2="137.78"
            gradientTransform="matrix(-1, 0, 0, 1, 33.51, 0)" xlink:href="#未命名的渐变_74" />
        <linearGradient id="未命名的渐变_74-14" x1="75.9" y1="31.59" x2="75.9" y2="6.26" xlink:href="#未命名的渐变_74" />
    </defs>
    <title>Knee machining center(加工中心)</title>
    <g id="图层_2" data-name="图层 2">
        <g id="图层_61" data-name="图层 61">
            <g id="Knee_machining_center_加工中心_" data-name="Knee machining center(加工中心)">
                <rect class="cls-1" x="83.5" y="6.26" width="8.44" height="22.74" />
                <polygon class="cls-2"
                    points="97.44 0 87.61 0 85.64 0 63.95 0 63.95 26.64 87.61 26.64 87.61 6.26 97.44 6.26 97.44 0" />
                <rect class="cls-3" x="12.7" y="52.82" width="126.46" height="75.52" />
                <rect class="cls-4" y="88.9" width="150" height="11.84" />
                <rect class="cls-5" y="68.8" width="35.95" height="20.1" />
                <rect class="cls-6" x="35.95" y="68.8" width="9.21" height="20.1" />
                <rect class="cls-7" x="114.05" y="68.8" width="35.95" height="20.1"
                    transform="translate(264.05 157.7) rotate(180)" />
                <rect class="cls-6" x="104.84" y="68.8" width="9.21" height="20.1"
                    transform="translate(218.9 157.7) rotate(180)" />
                <rect class="cls-6" x="56" y="46.65" width="39.36" height="39.36" />
                <rect class="cls-8" x="45.16" y="76.24" width="59.69" height="6.9" />
                <line class="cls-9" x1="45.16" y1="79.69" x2="104.84" y2="79.69" />
                <rect class="cls-10" x="125.03" y="49.56" width="14.14" height="3.27" />
                <rect class="cls-11" x="128.98" y="46.09" width="6.6" height="3.47" />
                <rect class="cls-12" x="121.76" y="26.68" width="28.24" height="19.4" />
                <rect class="cls-6" x="128.89" y="29.41" width="15.52" height="11.44" />
                <rect class="cls-13" x="64.19" y="29.41" width="23.42" height="20.6" />
                <rect class="cls-14" x="72.71" y="50.01" width="5.95" height="11.8" />
                <rect class="cls-15" x="73.97" y="61.81" width="3.61" height="5.51" />
                <rect class="cls-16" x="75.24" y="67.32" width="0.91" height="8.92" />
                <rect class="cls-6" x="69.3" y="35.13" width="13.25" height="9.53" />
                <rect class="cls-6" y="128.34" width="150" height="3.27" />
                <rect class="cls-17" x="70.91" y="131.61" width="4.77" height="12.34" />
                <polygon class="cls-18"
                    points="143.94 143.95 139.17 143.95 139.17 131.61 146.72 131.61 143.94 143.95" />
                <polygon class="cls-19" points="8.21 143.95 12.98 143.95 12.98 131.61 5.42 131.61 8.21 143.95" />
                <polygon class="cls-20"
                    points="87.61 26.68 85.52 6.26 66.28 6.26 64.19 26.68 56.97 31.59 94.82 31.59 87.61 26.68" />
                
            </g>
        </g>
    </g>
</svg>