<svg xmlns="http://www.w3.org/2000/svg" xmlns:xlink="http://www.w3.org/1999/xlink" viewBox="0 0 86.48 150.66">
    <defs>
        <style>
            .cls-1 {
                fill: url(#未命名的渐变_105);
            }

            .cls-2 {
                fill: url(#未命名的渐变_105-2);
            }

            .cls-3 {
                fill: #a5a5a5;
                stroke: #42403f;
                stroke-miterlimit: 10;
            }

            .cls-4 {
                fill: url(#未命名的渐变_105-3);
            }

            .cls-5 {
                opacity: 0.2;
            }
        </style>
        <linearGradient id="未命名的渐变_105" x1="52" y1="12.06" x2="56.39" y2="12.06" gradientUnits="userSpaceOnUse">
            <stop offset="0" stop-color="#e2e2e2" />
            <stop offset="0.03" stop-color="#d0d0d0" />
            <stop offset="0.06" stop-color="#bcbcbc" />
            <stop offset="0.09" stop-color="#b5b5b5" />
            <stop offset="0.49" stop-color="#f6f6f6" />
            <stop offset="0.63" stop-color="#f3f3f3" />
            <stop offset="0.73" stop-color="#eaeaea" />
            <stop offset="0.82" stop-color="#dbdbdb" />
            <stop offset="0.9" stop-color="#c6c6c6" />
            <stop offset="0.97" stop-color="#aaa" />
            <stop offset="1" stop-color="#9b9b9b" />
        </linearGradient>
        <linearGradient id="未命名的渐变_105-2" x1="21.98" y1="38.54" x2="63.81" y2="38.54" xlink:href="#未命名的渐变_105" />
        <linearGradient id="未命名的渐变_105-3" x1="34.3" y1="17.18" x2="52.79" y2="17.18" xlink:href="#未命名的渐变_105" />
    </defs>
    <title>Mist collector（集雾器）</title>
    <g id="图层_2" data-name="图层 2">
        <g id="图层_61" data-name="图层 61">
            <g id="Mist_collector_集雾器_" data-name="Mist collector（集雾器）">
                <rect class="cls-1" x="52" y="8.21" width="4.38" height="7.7" />
                <rect class="cls-2" x="21.98" y="34.37" width="41.82" height="8.34" />
                <rect class="cls-3" x="0.5" y="42.7" width="85.48" height="4.47" />
                <rect class="cls-3" x="13.08" y="47.18" width="60.32" height="79.27" />
                <rect class="cls-3" x="16.62" y="59.61" width="53.24" height="37.81" />
                <rect class="cls-3" x="16.62" y="102.54" width="53.24" height="17.97" />
                <rect class="cls-3" x="8.98" y="63.38" width="11.12" height="4.79" rx="1.01" />
                <rect class="cls-3" x="8.98" y="88.35" width="11.12" height="4.79" rx="1.01" />
                <rect class="cls-3" x="8.98" y="104.6" width="11.12" height="4.79" rx="1.01" />
                <rect class="cls-3" x="67.84" y="63.38" width="11.12" height="4.79" rx="1.01" />
                <rect class="cls-3" x="67.84" y="88.35" width="11.12" height="4.79" rx="1.01" />
                <rect class="cls-3" x="67.84" y="104.6" width="11.12" height="4.79" rx="1.01" />
                <rect class="cls-4" x="34.3" width="18.49" height="34.37" />
                <polygon class="cls-3" points="20.1 150 13.08 150 13.08 126.44 27.11 126.44 20.1 150" />
                <polygon class="cls-3" points="66.37 150.16 73.4 150.16 73.4 126.6 59.36 126.6 66.37 150.16" />
                
            </g>
        </g>
    </g>
</svg>