<svg xmlns="http://www.w3.org/2000/svg" xmlns:xlink="http://www.w3.org/1999/xlink" viewBox="0 0 150 120.84">
    <defs>
        <style>
            .cls-1 {
                fill: url(#未命名的渐变_105);
            }

            .cls-2 {
                fill: #bdbdbd;
            }

            .cls-3 {
                fill: #6d6d6d;
            }

            .cls-4,
            .cls-8 {
                fill: none;
                stroke-miterlimit: 10;
            }

            .cls-4 {
                stroke: #111;
                stroke-width: 0.5px;
            }

            .cls-5 {
                fill: #e5e5e5;
            }

            .cls-6 {
                fill: url(#未命名的渐变_105-2);
            }

            .cls-7 {
                fill: #909191;
            }

            .cls-8 {
                stroke: #6d6d6d;
                stroke-width: 0.75px;
            }

            .cls-9 {
                fill: #020202;
            }

            .cls-10 {
                fill: #a5a5a5;
            }

            .cls-11 {
                opacity: 0.2;
            }
        </style>
        <linearGradient id="未命名的渐变_105" x1="124.78" y1="76.06" x2="130.65" y2="76.06" gradientUnits="userSpaceOnUse">
            <stop offset="0" stop-color="#e2e2e2" />
            <stop offset="0.03" stop-color="#d0d0d0" />
            <stop offset="0.06" stop-color="#bcbcbc" />
            <stop offset="0.09" stop-color="#b5b5b5" />
            <stop offset="0.49" stop-color="#f6f6f6" />
            <stop offset="0.63" stop-color="#f3f3f3" />
            <stop offset="0.73" stop-color="#eaeaea" />
            <stop offset="0.82" stop-color="#dbdbdb" />
            <stop offset="0.9" stop-color="#c6c6c6" />
            <stop offset="0.97" stop-color="#aaa" />
            <stop offset="1" stop-color="#9b9b9b" />
        </linearGradient>
        <linearGradient id="未命名的渐变_105-2" x1="46.63" y1="55.41" x2="101.33" y2="55.41" xlink:href="#未命名的渐变_105" />
    </defs>
    <title>Production band saw(生产带锯)</title>
    <g id="图层_2" data-name="图层 2">
        <g id="图层_61" data-name="图层 61">
            <g id="Production_band_saw_生产带锯_" data-name="Production band saw(生产带锯)">
                <rect class="cls-1" x="124.78" y="58.48" width="5.87" height="35.17" />
                <rect class="cls-2" x="109.98" y="59.02" width="10.37" height="35.17" />
                <rect class="cls-3" x="46.63" y="37.82" width="54.7" height="7.79" />
                <line class="cls-4" x1="46.63" y1="41.72" x2="101.33" y2="41.72" />
                <rect class="cls-3" x="25.35" y="54.74" width="9.01" height="28.66" />
                <rect class="cls-5" x="28.88" y="52.53" width="3.72" height="29.31" />
                <circle class="cls-2" cx="30.74" cy="54.2" r="0.68" />
                <circle class="cls-2" cx="30.74" cy="56.4" r="0.68" />
                <circle class="cls-2" cx="30.74" cy="58.6" r="0.68" />
                <circle class="cls-2" cx="30.74" cy="60.8" r="0.68" />
                <circle class="cls-2" cx="30.74" cy="63" r="0.68" />
                <circle class="cls-2" cx="30.74" cy="65.21" r="0.68" />
                <circle class="cls-2" cx="30.74" cy="67.41" r="0.68" />
                <circle class="cls-2" cx="30.74" cy="69.61" r="0.68" />
                <circle class="cls-2" cx="30.74" cy="71.81" r="0.68" />
                <circle class="cls-2" cx="30.74" cy="74.01" r="0.68" />
                <circle class="cls-2" cx="30.74" cy="76.21" r="0.68" />
                <circle class="cls-2" cx="30.74" cy="78.42" r="0.68" />
                <circle class="cls-2" cx="30.74" cy="80.62" r="0.68" />
                <polygon class="cls-5" points="139.74 18.21 8.22 18.21 26.55 0 121.41 0 139.74 18.21" />
                <polygon class="cls-2"
                    points="8.22 18.21 8.22 59.02 46.63 59.02 46.63 21.63 101.33 21.63 101.33 59.02 139.74 59.02 139.74 18.21 8.22 18.21" />
                <rect class="cls-6" x="46.63" y="54.02" width="54.7" height="2.79" />
                <polygon class="cls-7"
                    points="65.55 54.02 58.41 54.02 54.78 38.16 54.78 21.63 65.55 21.63 65.55 54.02" />
                <circle class="cls-5" cx="58.81" cy="21.63" r="0.99" />
                <rect class="cls-5" x="57.82" y="21.63" width="1.98" height="2.74" />
                <rect class="cls-7" x="33.64" y="59.02" width="9.01" height="28.66" />
                <rect class="cls-5" x="37.17" y="56.81" width="3.72" height="29.31" />
                <circle class="cls-2" cx="39.03" cy="58.48" r="0.68" />
                <circle class="cls-2" cx="39.03" cy="60.68" r="0.68" />
                <circle class="cls-2" cx="39.03" cy="62.88" r="0.68" />
                <circle class="cls-2" cx="39.03" cy="65.08" r="0.68" />
                <circle class="cls-2" cx="39.03" cy="67.28" r="0.68" />
                <circle class="cls-2" cx="39.03" cy="69.49" r="0.68" />
                <circle class="cls-2" cx="39.03" cy="71.69" r="0.68" />
                <circle class="cls-2" cx="39.03" cy="73.89" r="0.68" />
                <circle class="cls-2" cx="39.03" cy="76.09" r="0.68" />
                <circle class="cls-2" cx="39.03" cy="78.29" r="0.68" />
                <circle class="cls-2" cx="39.03" cy="80.49" r="0.68" />
                <circle class="cls-2" cx="39.03" cy="82.7" r="0.68" />
                <circle class="cls-2" cx="39.03" cy="84.9" r="0.68" />
                <circle class="cls-2" cx="115.14" cy="51.56" r="0.68" />
                <circle class="cls-2" cx="115.14" cy="53.76" r="0.68" />
                <circle class="cls-2" cx="115.14" cy="55.96" r="0.68" />
                <circle class="cls-2" cx="115.15" cy="58.16" r="0.68" />
                <circle class="cls-2" cx="106.85" cy="55.85" r="0.68" />
                <circle class="cls-2" cx="106.86" cy="58.05" r="0.68" />
                <polygon class="cls-2"
                    points="51.95 74.01 44.53 83.38 17.61 83.38 17.61 93.65 36.39 93.65 62.52 93.65 62.52 83.38 62.52 74.01 51.95 74.01" />
                <rect class="cls-3" x="21.77" y="93.65" width="110.03" height="9.69" />
                <rect class="cls-2" x="62.52" y="70.16" width="3.03" height="25.35" />
                <rect class="cls-2" x="102.73" y="58.48" width="7.24" height="35.17" />
                <line class="cls-8" x1="111.15" y1="58.48" x2="111.15" y2="93.65" />
                <rect class="cls-7" x="101.33" y="79.82" width="21.76" height="13.83" />
                <rect class="cls-3" x="17.61" y="88.73" width="47.94" height="2.64" />
                <rect class="cls-2" x="44.02" y="85.82" width="0.34" height="2.64" />
                <rect class="cls-2" x="71.91" y="91.37" width="28.48" height="2.28" />
                <rect class="cls-2" y="100.4" width="150" height="16.05" />
                <rect class="cls-3" x="14.01" y="21.7" width="22.68" height="6.71" />
                <rect class="cls-3" x="107.53" y="30.34" width="19.47" height="11.64" />
                <rect class="cls-9" x="51.95" y="97.47" width="14.97" height="2.94" />
                <rect class="cls-3" x="46.63" y="13.6" width="36.22" height="4.61" />
                <rect class="cls-10" x="105.77" y="58.48" width="2.25" height="18.13" />
                <rect class="cls-10" x="114.7" y="58.48" width="2.25" height="21.34" />
                <rect class="cls-10" x="18.49" y="116.45" width="11.57" height="4.39" />
                <rect class="cls-10" x="49" y="116.45" width="11.57" height="4.39" />
                <rect class="cls-10" x="79.51" y="116.45" width="11.57" height="4.39" />
                <rect class="cls-10" x="110.02" y="116.45" width="11.57" height="4.39" />
                <rect class="cls-3" x="33.74" y="100.4" width="8.29" height="16.05" />
                <rect class="cls-3" x="96.94" y="100.4" width="8.29" height="16.05" />
                <rect class="cls-3" x="96.94" y="21.63" width="4.39" height="29.25" />
               
            </g>
        </g>
    </g>
</svg>