<svg xmlns="http://www.w3.org/2000/svg" viewBox="0 0 150 150">
    <defs>
        <style>
            .cls-1 {
                fill: #a5a5a5;
            }

            .cls-2 {
                fill: #848383;
                stroke: #a5a5a5;
                stroke-miterlimit: 10;
            }

            .cls-3 {
                fill: #444;
            }

            .cls-4 {
                opacity: 0.2;
            }
        </style>
    </defs>
    <title>Saw blade（锯片）</title>
    <g id="图层_2" data-name="图层 2">
        <g id="图层_61" data-name="图层 61">
            <g id="Saw_blade_锯片_" data-name="Saw blade（锯片）">
                <path class="cls-1" d="M20,24,31.39,17l14.86,4.25L31.39,33.13S29.59,23.52,20,24Z" />
                <path class="cls-1" d="M8.63,40l9.24-9.66,15.46.26L22,45.85S17.81,37,8.63,40Z" />
                <path class="cls-1" d="M1.82,58.32,8.25,46.6l15-3.75L16.3,60.55S9.93,53.12,1.82,58.32Z" />
                <path class="cls-1" d="M0,77.83l3.17-13,13.52-7.51-2.13,18.9S6.49,70.71,0,77.83Z" />
                <path class="cls-1" d="M3.29,97.14,3,83.79,14.11,73l2.83,18.8S7.71,88.59,3.29,97.14Z" />
                <path class="cls-1" d="M11.46,115,7.72,102.12l8-13.26,7.6,17.43S13.52,105.54,11.46,115Z" />
                <path class="cls-1" d="M24,130,17,118.61l4.25-14.86,11.85,14.86S23.52,120.41,24,130Z" />
                <path class="cls-1" d="M40,141.37l-9.66-9.24.26-15.46L45.85,128S37,132.19,40,141.37Z" />
                <path class="cls-1" d="M58.32,148.18,46.6,141.75l-3.75-15,17.7,6.94S53.12,140.07,58.32,148.18Z" />
                <path class="cls-1" d="M77.83,150l-13-3.17-7.51-13.52,18.9,2.13S70.71,143.51,77.83,150Z" />
                <path class="cls-1" d="M97.14,146.71l-13.35.3L73,135.89l18.8-2.83S88.59,142.29,97.14,146.71Z" />
                <path class="cls-1" d="M115,138.54l-12.83,3.74-13.26-7.95,17.43-7.6S105.54,136.48,115,138.54Z" />
                <path class="cls-1" d="M130,126,118.61,133l-14.86-4.25,14.86-11.85S120.41,126.48,130,126Z" />
                <path class="cls-1" d="M141.37,110.05l-9.24,9.66-15.46-.26L128,104.15S132.19,113,141.37,110.05Z" />
                <path class="cls-1" d="M148.18,91.68l-6.43,11.72-15,3.75,6.94-17.7S140.07,96.88,148.18,91.68Z" />
                <path class="cls-1" d="M150,72.17l-3.17,13-13.52,7.51,2.13-18.9S143.51,79.29,150,72.17Z" />
                <path class="cls-1" d="M146.71,52.86l.3,13.35L135.89,77l-2.83-18.8S142.29,61.41,146.71,52.86Z" />
                <path class="cls-1" d="M138.54,35.05l3.74,12.83-7.95,13.26-7.6-17.43S136.48,44.46,138.54,35.05Z" />
                <path class="cls-1" d="M126,20,133,31.39l-4.25,14.86L116.87,31.39S126.48,29.59,126,20Z" />
                <path class="cls-1" d="M110.05,8.63l9.66,9.24-.26,15.46L104.15,22S113,17.81,110.05,8.63Z" />
                <path class="cls-1" d="M91.68,1.82,103.4,8.25l3.75,15L89.45,16.3S96.88,9.93,91.68,1.82Z" />
                <path class="cls-1" d="M72.17,0l13,3.17,7.51,13.52-18.9-2.13S79.29,6.49,72.17,0Z" />
                <path class="cls-1" d="M52.86,3.29,66.21,3,77,14.11l-18.8,2.83S61.41,7.71,52.86,3.29Z" />
                <path class="cls-1" d="M35.05,11.46,47.88,7.72l13.26,8-17.43,7.6S44.46,13.52,35.05,11.46Z" />
                <circle class="cls-2" cx="75" cy="75" r="60.95" />
                <circle class="cls-2" cx="75" cy="75" r="55.03" />
                <circle class="cls-3" cx="75" cy="75" r="10.09" />
                
            </g>
        </g>
    </g>
</svg>