<svg xmlns="http://www.w3.org/2000/svg" xmlns:xlink="http://www.w3.org/1999/xlink" viewBox="0 0 101.62 150">
    <defs>
        <style>
            .cls-1 {
                fill: #707070;
            }

            .cls-2 {
                fill: url(#未命名的渐变_74);
            }

            .cls-3 {
                fill: url(#未命名的渐变_74-2);
            }

            .cls-4 {
                fill: url(#未命名的渐变_74-3);
            }

            .cls-5 {
                fill: url(#未命名的渐变_74-4);
            }

            .cls-6 {
                fill: url(#未命名的渐变_105);
            }

            .cls-7 {
                fill: url(#未命名的渐变_105-2);
            }

            .cls-8 {
                fill: url(#未命名的渐变_74-5);
            }

            .cls-9 {
                fill: url(#未命名的渐变_74-6);
            }

            .cls-10 {
                fill: url(#未命名的渐变_74-7);
            }

            .cls-11 {
                fill: url(#未命名的渐变_74-8);
            }

            .cls-12 {
                fill: url(#未命名的渐变_74-9);
            }

            .cls-13 {
                fill: url(#未命名的渐变_74-10);
            }

            .cls-14 {
                fill: url(#未命名的渐变_74-11);
            }

            .cls-15 {
                fill: url(#未命名的渐变_74-12);
            }

            .cls-16 {
                fill: url(#未命名的渐变_74-13);
            }

            .cls-17 {
                fill: url(#未命名的渐变_105-3);
            }

            .cls-18 {
                fill: url(#未命名的渐变_74-14);
            }

            .cls-19 {
                fill: url(#未命名的渐变_74-15);
            }

            .cls-20 {
                opacity: 0.2;
            }
        </style>
        <linearGradient id="未命名的渐变_74" x1="56.68" y1="81.06" x2="56.68" y2="68.61" gradientUnits="userSpaceOnUse">
            <stop offset="0" stop-color="#6b6b6b" />
            <stop offset="0.01" stop-color="#767676" />
            <stop offset="0.03" stop-color="#959595" />
            <stop offset="0.04" stop-color="#aaa" />
            <stop offset="0.37" stop-color="#ccc" />
            <stop offset="0.74" stop-color="#eaeaea" />
            <stop offset="0.94" stop-color="#f6f6f6" />
            <stop offset="0.95" stop-color="#ededed" />
            <stop offset="0.96" stop-color="#d4d4d4" />
            <stop offset="0.97" stop-color="#ababab" />
            <stop offset="0.99" stop-color="#737373" />
            <stop offset="0.99" stop-color="#666" />
        </linearGradient>
        <linearGradient id="未命名的渐变_74-2" x1="56.68" y1="58.64" x2="56.68" y2="37.44" xlink:href="#未命名的渐变_74" />
        <linearGradient id="未命名的渐变_74-3" x1="23.49" y1="93.72" x2="27.49" y2="93.72" xlink:href="#未命名的渐变_74" />
        <linearGradient id="未命名的渐变_74-4" x1="85.87" y1="93.72" x2="89.87" y2="93.72" xlink:href="#未命名的渐变_74" />
        <linearGradient id="未命名的渐变_105" x1="11.74" y1="71.53" x2="11.74" y2="6.99" gradientUnits="userSpaceOnUse">
            <stop offset="0" stop-color="#e2e2e2" />
            <stop offset="0.03" stop-color="#d0d0d0" />
            <stop offset="0.06" stop-color="#bcbcbc" />
            <stop offset="0.09" stop-color="#b5b5b5" />
            <stop offset="0.49" stop-color="#f6f6f6" />
            <stop offset="0.63" stop-color="#f3f3f3" />
            <stop offset="0.73" stop-color="#eaeaea" />
            <stop offset="0.82" stop-color="#dbdbdb" />
            <stop offset="0.9" stop-color="#c6c6c6" />
            <stop offset="0.97" stop-color="#aaa" />
            <stop offset="1" stop-color="#9b9b9b" />
        </linearGradient>
        <linearGradient id="未命名的渐变_105-2" x1="95.74" y1="72.21" x2="95.74" y2="7.67" xlink:href="#未命名的渐变_105" />
        <linearGradient id="未命名的渐变_74-5" x1="34.38" y1="22.21" x2="40.85" y2="22.21" xlink:href="#未命名的渐变_74" />
        <linearGradient id="未命名的渐变_74-6" x1="36.43" y1="19.02" x2="38.81" y2="19.02" xlink:href="#未命名的渐变_74" />
        <linearGradient id="未命名的渐变_74-7" x1="34.94" y1="0.3" x2="40.3" y2="0.3" xlink:href="#未命名的渐变_74" />
        <linearGradient id="未命名的渐变_74-8" x1="73.87" y1="22.51" x2="80.34" y2="22.51" xlink:href="#未命名的渐变_74" />
        <linearGradient id="未命名的渐变_74-9" x1="75.91" y1="19.32" x2="78.3" y2="19.32" xlink:href="#未命名的渐变_74" />
        <linearGradient id="未命名的渐变_74-10" x1="74.43" y1="0.6" x2="79.79" y2="0.6" xlink:href="#未命名的渐变_74" />
        <linearGradient id="未命名的渐变_74-11" x1="27.49" y1="86.58" x2="85.87" y2="86.58" xlink:href="#未命名的渐变_74" />
        <linearGradient id="未命名的渐变_74-12" x1="56.68" y1="79.28" x2="56.68" y2="76.34" xlink:href="#未命名的渐变_74" />
        <linearGradient id="未命名的渐变_74-13" x1="56.68" y1="117.45" x2="56.68" y2="114.51" xlink:href="#未命名的渐变_74" />
        <linearGradient id="未命名的渐变_105-3" x1="56.68" y1="114.64" x2="56.68" y2="110.81" xlink:href="#未命名的渐变_105" />
        <linearGradient id="未命名的渐变_74-14" x1="56.68" y1="139.96" x2="56.68" y2="117.45" xlink:href="#未命名的渐变_74" />
        <linearGradient id="未命名的渐变_74-15" x1="10.38" y1="102.27" x2="23.49" y2="102.27" xlink:href="#未命名的渐变_74" />
    </defs>
    <title>Straight side press(直边压力机)</title>
    <g id="图层_2" data-name="图层 2">
        <g id="图层_61" data-name="图层 61">
            <g id="Straight_side_press_直边压力机_" data-name="Straight side press(直边压力机)">
                <path class="cls-1" d="M27.49,58.64V76.72H42V58.64ZM36.42,74H34V67h2.39Zm4.06-.76H38.1V63.62h2.38Z" />
                <path class="cls-1"
                    d="M85.87,58.64V76.72H71.4V58.64ZM76.94,74h2.39V67H76.94Zm-4.06-.76h2.39V63.62H72.88Z" />
                <polygon class="cls-2"
                    points="85.87 74.03 78.3 74.03 69.28 68.61 45.45 68.61 36.43 74.03 27.49 74.03 27.49 79.28 36.43 79.28 36.43 81.06 78.3 81.06 78.3 79.28 85.87 79.28 85.87 74.03" />
                <rect class="cls-3" x="23.49" y="37.44" width="66.38" height="21.2" />
                <rect class="cls-4" x="23.49" y="37.44" width="4" height="112.56" />
                <rect class="cls-5" x="85.87" y="37.44" width="4" height="112.56" />
                <rect class="cls-6" y="6.99" width="23.49" height="64.54" />
                <rect class="cls-7" x="89.87" y="7.67" width="11.74" height="64.54" />
                <rect class="cls-8" x="34.38" y="6.99" width="6.47" height="30.45" />
                <rect class="cls-9" x="36.43" y="0.6" width="2.38" height="36.84" />
                <rect class="cls-10" x="34.94" width="5.36" height="0.6" />
                <rect class="cls-11" x="73.87" y="7.29" width="6.47" height="30.45" />
                <rect class="cls-12" x="75.91" y="0.89" width="2.38" height="36.84" />
                <rect class="cls-13" x="74.43" y="0.3" width="5.36" height="0.6" />
                <rect class="cls-14" x="27.49" y="79.28" width="58.38" height="14.6" />
                <rect class="cls-15" x="27.49" y="76.34" width="58.38" height="2.94" />
                <rect class="cls-16" x="27.49" y="114.51" width="58.38" height="2.94" />
                <rect class="cls-17" x="27.49" y="110.81" width="58.38" height="3.83" />
                <polygon class="cls-18"
                    points="27.49 117.45 27.49 132.77 36.43 132.77 40.9 139.96 75.31 139.96 79.79 132.77 85.87 132.77 85.87 117.45 27.49 117.45" />
                <rect class="cls-19" x="10.38" y="87.09" width="13.11" height="30.36" />
                <rect class="cls-1" x="89.87" y="139.96" width="1.45" height="10.04" />
                <rect class="cls-1" x="91.32" y="148.49" width="4.02" height="1.51" />
                <rect class="cls-1" x="22.04" y="139.96" width="1.45" height="10.04"
                    transform="translate(45.53 289.96) rotate(180)" />
                <rect class="cls-1" x="18.02" y="148.49" width="4.02" height="1.51"
                    transform="translate(40.06 298.49) rotate(180)" />
                
            </g>
        </g>
    </g>
</svg>