<svg xmlns="http://www.w3.org/2000/svg" xmlns:xlink="http://www.w3.org/1999/xlink" viewBox="0 0 96.96 150">
    <defs>
        <style>
            .cls-1 {
                fill: #bdbdbd;
            }

            .cls-2 {
                fill: none;
                stroke: #6d6d6d;
                stroke-width: 0.75px;
            }

            .cls-2,
            .cls-4,
            .cls-5 {
                stroke-miterlimit: 10;
            }

            .cls-3,
            .cls-6 {
                fill: #6d6d6d;
            }

            .cls-4 {
                fill: #686868;
            }

            .cls-4,
            .cls-5 {
                stroke: #42403f;
            }

            .cls-5 {
                fill: #bfbfbf;
            }

            .cls-6 {
                opacity: 0.99;
            }

            .cls-7 {
                fill: #848484;
            }

            .cls-8 {
                fill: url(#未命名的渐变_105);
            }

            .cls-9 {
                fill: url(#未命名的渐变_105-2);
            }

            .cls-10 {
                fill: url(#未命名的渐变_105-3);
            }

            .cls-11 {
                opacity: 0.2;
            }
        </style>
        <linearGradient id="未命名的渐变_105" x1="59.89" y1="35.73" x2="61.49" y2="35.73" gradientUnits="userSpaceOnUse">
            <stop offset="0" stop-color="#e2e2e2" />
            <stop offset="0.03" stop-color="#d0d0d0" />
            <stop offset="0.06" stop-color="#bcbcbc" />
            <stop offset="0.09" stop-color="#b5b5b5" />
            <stop offset="0.49" stop-color="#f6f6f6" />
            <stop offset="0.63" stop-color="#f3f3f3" />
            <stop offset="0.73" stop-color="#eaeaea" />
            <stop offset="0.82" stop-color="#dbdbdb" />
            <stop offset="0.9" stop-color="#c6c6c6" />
            <stop offset="0.97" stop-color="#aaa" />
            <stop offset="1" stop-color="#9b9b9b" />
        </linearGradient>
        <linearGradient id="未命名的渐变_105-2" x1="58.32" y1="38.42" x2="63.24" y2="38.42" xlink:href="#未命名的渐变_105" />
        <linearGradient id="未命名的渐变_105-3" x1="72.04" y1="48.67" x2="77.36" y2="48.67" xlink:href="#未命名的渐变_105" />
    </defs>
    <title>Vertical band saw(立式带锯床)</title>
    <g id="图层_2" data-name="图层 2">
        <g id="图层_61" data-name="图层 61">
            <g id="Vertical_band_saw_立式带锯床_" data-name="Vertical band saw(立式带锯床)">
                <polygon class="cls-1"
                    points="80.09 84.81 33.66 84.81 33.66 33.69 80.09 33.69 80.09 0 0 0 0 84.83 0 149.67 0 150 90.46 150 90.46 84.83 80.09 84.83 80.09 84.81" />
                <polygon class="cls-2"
                    points="82.03 143.3 32.65 143.3 28.41 139.27 28.41 94.11 82.03 94.11 82.03 143.3" />
                <line class="cls-2" x1="28.41" x2="28.41" y2="94.1" />
                <rect class="cls-3" x="36.92" y="9.22" width="38.31" height="13.11" />
                <rect class="cls-3" x="4.64" y="6.28" width="16.5" height="7.72" />
                <circle class="cls-4" cx="12.85" cy="79.73" r="2.96" />
                <circle class="cls-5" cx="12.88" cy="105.09" r="2.96" />
                <rect class="cls-6" x="6.94" y="112.88" width="15.43" height="1.24" />
                <rect class="cls-6" x="6.94" y="116.08" width="15.43" height="1.24" />
                <rect class="cls-6" x="6.94" y="119.27" width="15.43" height="1.24" />
                <rect class="cls-6" x="6.94" y="122.46" width="15.43" height="1.24" />
                <rect class="cls-6" x="6.94" y="125.65" width="15.43" height="1.24" />
                <rect class="cls-6" x="6.94" y="128.85" width="15.43" height="1.24" />
                <rect class="cls-6" x="6.94" y="132.04" width="15.43" height="1.24" />
                <rect class="cls-6" x="6.94" y="135.23" width="15.43" height="1.24" />
                <rect class="cls-6" x="6.94" y="138.43" width="15.43" height="1.24" />
                <rect class="cls-6" x="6.94" y="141.62" width="15.43" height="1.24" />
                <rect class="cls-6" x="6.94" y="144.81" width="15.43" height="1.24" />
                <rect class="cls-7" x="33.66" y="79.73" width="48.37" height="5.1" />
                <rect class="cls-3" x="33.66" y="69.07" width="63.3" height="10.66" />
                <rect class="cls-8" x="59.89" y="33.69" width="1.6" height="4.07" />
                <rect class="cls-9" x="58.32" y="37.76" width="4.92" height="1.31" />
                <rect class="cls-10" x="72.04" y="33.69" width="5.32" height="29.97" />

            </g>
        </g>
    </g>
</svg>