<svg xmlns="http://www.w3.org/2000/svg" xmlns:xlink="http://www.w3.org/1999/xlink" viewBox="0 0 150 143.51">
    <defs>
        <style>
            .cls-1 {
                fill: url(#未命名的渐变_74);
            }

            .cls-2 {
                fill: url(#未命名的渐变_74-2);
            }

            .cls-10,
            .cls-16,
            .cls-3,
            .cls-4 {
                fill: none;
                stroke-miterlimit: 10;
            }

            .cls-3 {
                stroke: url(#未命名的渐变_74-3);
            }

            .cls-4 {
                stroke: url(#未命名的渐变_74-4);
            }

            .cls-5 {
                fill: #999;
            }

            .cls-6 {
                fill: url(#未命名的渐变_74-5);
            }

            .cls-7 {
                fill: url(#未命名的渐变_74-6);
            }

            .cls-8 {
                fill: url(#未命名的渐变_74-7);
            }

            .cls-9 {
                fill: url(#未命名的渐变_74-8);
            }

            .cls-10 {
                stroke: #919191;
            }

            .cls-11 {
                fill: url(#未命名的渐变_74-9);
            }

            .cls-12 {
                fill: url(#未命名的渐变_74-10);
            }

            .cls-13 {
                fill: url(#未命名的渐变_74-11);
            }

            .cls-14 {
                fill: url(#未命名的渐变_74-12);
            }

            .cls-15 {
                fill: url(#未命名的渐变_74-13);
            }

            .cls-16 {
                stroke: url(#未命名的渐变_74-14);
            }

            .cls-17 {
                fill: #4c4c4c;
            }

            .cls-18 {
                fill: #d3d3d3;
            }

            .cls-19 {
                opacity: 0.2;
            }
        </style>
        <linearGradient id="未命名的渐变_74" x1="44.06" y1="44.25" x2="44.06" y2="25.08" gradientUnits="userSpaceOnUse">
            <stop offset="0" stop-color="#6b6b6b" />
            <stop offset="0.01" stop-color="#767676" />
            <stop offset="0.03" stop-color="#959595" />
            <stop offset="0.04" stop-color="#aaa" />
            <stop offset="0.37" stop-color="#ccc" />
            <stop offset="0.74" stop-color="#eaeaea" />
            <stop offset="0.94" stop-color="#f6f6f6" />
            <stop offset="0.95" stop-color="#ededed" />
            <stop offset="0.96" stop-color="#d4d4d4" />
            <stop offset="0.97" stop-color="#ababab" />
            <stop offset="0.99" stop-color="#737373" />
            <stop offset="0.99" stop-color="#666" />
        </linearGradient>
        <linearGradient id="未命名的渐变_74-2" x1="0" y1="93.29" x2="38.33" y2="93.29" xlink:href="#未命名的渐变_74" />
        <linearGradient id="未命名的渐变_74-3" x1="19.16" y1="59.06" x2="19.16" y2="58.06" xlink:href="#未命名的渐变_74" />
        <linearGradient id="未命名的渐变_74-4" x1="19.16" y1="127.68" x2="19.16" y2="126.68" xlink:href="#未命名的渐变_74" />
        <linearGradient id="未命名的渐变_74-5" x1="18.56" y1="80.5" x2="18.56" y2="77.92" xlink:href="#未命名的渐变_74" />
        <linearGradient id="未命名的渐变_74-6" x1="18.56" y1="92.78" x2="18.56" y2="90.21" xlink:href="#未命名的渐变_74" />
        <linearGradient id="未命名的渐变_74-7" x1="18.56" y1="105.07" x2="18.56" y2="102.49" xlink:href="#未命名的渐变_74" />
        <linearGradient id="未命名的渐变_74-8" x1="94.16" y1="143.51" x2="94.16" y2="43.07" xlink:href="#未命名的渐变_74" />
        <linearGradient id="未命名的渐变_74-9" x1="75.49" y1="80.55" x2="77.74" y2="80.55" xlink:href="#未命名的渐变_74" />
        <linearGradient id="未命名的渐变_74-10" x1="72.43" y1="80.55" x2="74.63" y2="80.55" xlink:href="#未命名的渐变_74" />
        <linearGradient id="未命名的渐变_74-11" x1="75.21" y1="143.51" x2="75.21" y2="105.07" xlink:href="#未命名的渐变_74" />
        <linearGradient id="未命名的渐变_74-12" x1="43.59" y1="30.8" x2="43.59" y2="25.08" xlink:href="#未命名的渐变_74" />
        <linearGradient id="未命名的渐变_74-13" x1="66.84" y1="21.5" x2="94.16" y2="21.5" xlink:href="#未命名的渐变_74" />
        <linearGradient id="未命名的渐变_74-14" x1="112.09" y1="85.27" x2="146.45" y2="85.27" xlink:href="#未命名的渐变_74" />
    </defs>
    <title>Vertical machining center （立式加工中心）</title>
    <g id="图层_2" data-name="图层 2">
        <g id="图层_61" data-name="图层 61">
            <g id="Vertical_machining_center_立式加工中心_" data-name="Vertical machining center （立式加工中心）">
                <rect class="cls-1" x="21.29" y="25.08" width="45.55" height="19.17" />
                <rect class="cls-2" y="43.07" width="38.33" height="100.45" />
                <line class="cls-3" y1="58.56" x2="38.33" y2="58.56" />
                <line class="cls-4" x1="38.33" y1="127.18" y2="127.18" />
                <rect class="cls-5" x="4.67" y="67.71" width="27.77" height="51.3" rx="4.45" />
                <rect class="cls-6" x="4.67" y="77.92" width="27.77" height="2.57" />
                <rect class="cls-7" x="4.67" y="90.21" width="27.77" height="2.57" />
                <rect class="cls-8" x="4.67" y="102.49" width="27.77" height="2.57" />
                <polygon class="cls-9"
                    points="111.67 43.07 38.33 43.07 38.33 105.07 111.67 105.07 111.67 143.51 150 143.51 150 43.07 111.67 43.07" />
                <line class="cls-10" x1="75.08" y1="43.07" x2="75.08" y2="105.07" />
                <rect class="cls-5" x="79.59" y="54.38" width="27.77" height="44.3" rx="4.45" />
                <rect class="cls-5" x="42.78" y="54.38" width="27.77" height="44.3" rx="4.45" />
                <rect class="cls-11" x="75.49" y="71.23" width="2.25" height="18.63" />
                <rect class="cls-12" x="72.43" y="71.23" width="2.21" height="18.63" />
                <line class="cls-10" x1="111.67" y1="105.07" x2="111.67" y2="43.07" />
                <rect class="cls-13" x="38.33" y="105.07" width="73.76" height="38.45" />
                <rect class="cls-14" x="36.73" y="25.08" width="13.72" height="5.72" />
                <rect class="cls-15" x="66.84" width="27.33" height="43" />
                <rect class="cls-5" x="68.47" y="13.89" width="23.77" height="7.61" />
                <polyline class="cls-16" points="112.09 54.38 145.95 54.38 145.95 116.15 112.09 116.15" />
                <rect class="cls-17" x="114.93" y="58.56" width="27.39" height="14.11" />
                <rect class="cls-18" x="117.36" y="60.45" width="12.74" height="10.71" />
                <rect class="cls-18" x="132.13" y="60.45" width="1.52" height="1.52" />
                <rect class="cls-18" x="134.54" y="60.45" width="1.52" height="1.52" />
                <rect class="cls-18" x="136.95" y="60.45" width="1.52" height="1.52" />
                <rect class="cls-18" x="139.36" y="60.45" width="1.52" height="1.52" />
                <rect class="cls-18" x="132.13" y="62.75" width="1.52" height="1.52" />
                <rect class="cls-18" x="134.54" y="62.75" width="1.52" height="1.52" />
                <rect class="cls-18" x="136.95" y="62.75" width="1.52" height="1.52" />
                <rect class="cls-18" x="139.36" y="62.75" width="1.52" height="1.52" />
                <rect class="cls-18" x="132.13" y="65.05" width="1.52" height="1.52" />
                <rect class="cls-18" x="134.54" y="65.05" width="1.52" height="1.52" />
                <rect class="cls-18" x="136.95" y="65.05" width="1.52" height="1.52" />
                <rect class="cls-18" x="139.36" y="65.05" width="1.52" height="1.52" />
                <rect class="cls-18" x="132.13" y="67.34" width="1.52" height="1.52" />
                <rect class="cls-18" x="134.54" y="67.34" width="1.52" height="1.52" />
                <rect class="cls-18" x="136.95" y="67.34" width="1.52" height="1.52" />
                <rect class="cls-18" x="139.36" y="67.34" width="1.52" height="1.52" />
                <rect class="cls-18" x="132.13" y="69.64" width="1.52" height="1.52" />
                <rect class="cls-18" x="134.54" y="69.64" width="1.52" height="1.52" />
                <rect class="cls-18" x="136.95" y="69.64" width="1.52" height="1.52" />
                <rect class="cls-18" x="139.36" y="69.64" width="1.52" height="1.52" />
                <circle class="cls-17" cx="41.1" cy="109.42" r="1.43" />
                <circle class="cls-17" cx="51.18" cy="109.42" r="1.43" />
                <circle class="cls-17" cx="61.27" cy="109.42" r="1.43" />
                <circle class="cls-17" cx="71.35" cy="109.42" r="1.43" />
                <circle class="cls-17" cx="81.44" cy="109.42" r="1.43" />
                <circle class="cls-17" cx="91.53" cy="109.42" r="1.43" />
                <circle class="cls-17" cx="101.61" cy="109.42" r="1.43" />
                <circle class="cls-17" cx="41.1" cy="117.58" r="1.43" />
                <circle class="cls-17" cx="41.1" cy="125.74" r="1.43" />
                <circle class="cls-17" cx="41.1" cy="133.9" r="1.43" />
                <circle class="cls-17" cx="108.79" cy="109.42" r="1.43" />
                <circle class="cls-17" cx="108.79" cy="117.58" r="1.43" />
                <circle class="cls-17" cx="108.79" cy="125.74" r="1.43" />
                <circle class="cls-17" cx="108.79" cy="133.9" r="1.43" />
                <rect class="cls-5" x="112.09" y="129.32" width="37.91" height="8.17" />
                <rect class="cls-5" x="114.93" y="75.57" width="27.39" height="27.39" />
                <rect class="cls-17" x="115.89" y="76.53" width="10.63" height="6.05" />
                <rect class="cls-17" x="128.34" y="76.53" width="13.08" height="25.7" />
                <circle class="cls-18" cx="121.2" cy="79.56" r="2.35" />
                <rect class="cls-17" x="115.89" y="83.73" width="4.23" height="4.23" />
                <rect class="cls-17" x="122.29" y="83.73" width="4.23" height="4.23" />
                <circle class="cls-18" cx="117.93" cy="85.85" r="1.62" />
                <circle class="cls-18" cx="124.4" cy="85.85" r="1.62" />
                <rect class="cls-18" x="115.89" y="88.84" width="10.63" height="13.4" />
                <rect class="cls-17" x="116.83" y="90.33" width="1.52" height="1.52" />
                <rect class="cls-17" x="119.24" y="90.33" width="1.52" height="1.52" />
                <rect class="cls-17" x="121.64" y="90.33" width="1.52" height="1.52" />
                <rect class="cls-17" x="124.05" y="90.33" width="1.52" height="1.52" />
                <rect class="cls-17" x="116.83" y="92.63" width="1.52" height="1.52" />
                <rect class="cls-17" x="119.24" y="92.63" width="1.52" height="1.52" />
                <rect class="cls-17" x="121.64" y="92.63" width="1.52" height="1.52" />
                <rect class="cls-17" x="124.05" y="92.63" width="1.52" height="1.52" />
                <rect class="cls-17" x="116.83" y="94.93" width="1.52" height="1.52" />
                <rect class="cls-17" x="119.24" y="94.93" width="1.52" height="1.52" />
                <rect class="cls-17" x="121.64" y="94.93" width="1.52" height="1.52" />
                <rect class="cls-17" x="124.05" y="94.93" width="1.52" height="1.52" />
                <rect class="cls-17" x="116.83" y="97.23" width="1.52" height="1.52" />
                <rect class="cls-17" x="119.24" y="97.23" width="1.52" height="1.52" />
                <rect class="cls-17" x="121.64" y="97.23" width="1.52" height="1.52" />
                <rect class="cls-17" x="124.05" y="97.23" width="1.52" height="1.52" />
                <rect class="cls-17" x="116.83" y="99.52" width="1.52" height="1.52" />
                <rect class="cls-17" x="119.24" y="99.52" width="1.52" height="1.52" />
                <rect class="cls-17" x="121.64" y="99.52" width="1.52" height="1.52" />
                <rect class="cls-17" x="124.05" y="99.52" width="1.52" height="1.52" />
                <rect class="cls-18" x="129.28" y="78.19" width="1.52" height="1.52" />
                <rect class="cls-18" x="131.69" y="78.19" width="1.52" height="1.52" />
                <rect class="cls-18" x="134.1" y="78.19" width="1.52" height="1.52" />
                <rect class="cls-18" x="136.51" y="78.19" width="1.52" height="1.52" />
                <rect class="cls-18" x="139.03" y="78.19" width="1.52" height="1.52" />
                <rect class="cls-18" x="139.03" y="80.48" width="1.52" height="1.52" />
                <rect class="cls-18" x="139.03" y="82.78" width="1.52" height="1.52" />
                <rect class="cls-18" x="139.03" y="85.08" width="1.52" height="1.52" />
                <rect class="cls-18" x="139.03" y="87.38" width="1.52" height="1.52" />
                <rect class="cls-18" x="139.03" y="89.67" width="1.52" height="1.52" />
                <rect class="cls-18" x="139.03" y="91.97" width="1.52" height="1.52" />
                <rect class="cls-18" x="139.03" y="94.27" width="1.52" height="1.52" />
                <rect class="cls-18" x="139.03" y="96.57" width="1.52" height="1.52" />
                <rect class="cls-18" x="139.03" y="98.86" width="1.52" height="1.52" />
                <rect class="cls-18" x="129.28" y="80.48" width="1.52" height="1.52" />
                <rect class="cls-18" x="131.69" y="80.48" width="1.52" height="1.52" />
                <rect class="cls-18" x="134.1" y="80.48" width="1.52" height="1.52" />
                <rect class="cls-18" x="136.51" y="80.48" width="1.52" height="1.52" />
                <rect class="cls-18" x="129.28" y="82.78" width="1.52" height="1.52" />
                <rect class="cls-18" x="131.69" y="82.78" width="1.52" height="1.52" />
                <rect class="cls-18" x="134.1" y="82.78" width="1.52" height="1.52" />
                <rect class="cls-18" x="136.51" y="82.78" width="1.52" height="1.52" />
                <rect class="cls-18" x="129.28" y="85.08" width="1.52" height="1.52" />
                <rect class="cls-18" x="131.69" y="85.08" width="1.52" height="1.52" />
                <rect class="cls-18" x="134.1" y="85.08" width="1.52" height="1.52" />
                <rect class="cls-18" x="136.51" y="85.08" width="1.52" height="1.52" />
                <rect class="cls-18" x="129.28" y="87.38" width="1.52" height="1.52" />
                <rect class="cls-18" x="131.69" y="87.38" width="1.52" height="1.52" />
                <rect class="cls-18" x="134.1" y="87.38" width="1.52" height="1.52" />
                <rect class="cls-18" x="136.51" y="87.38" width="1.52" height="1.52" />
                <rect class="cls-18" x="129.28" y="89.67" width="1.52" height="1.52" />
                <rect class="cls-18" x="131.69" y="89.67" width="1.52" height="1.52" />
                <rect class="cls-18" x="134.1" y="89.67" width="1.52" height="1.52" />
                <rect class="cls-18" x="136.51" y="89.67" width="1.52" height="1.52" />
                <rect class="cls-18" x="129.28" y="91.97" width="1.52" height="1.52" />
                <rect class="cls-18" x="131.69" y="91.97" width="1.52" height="1.52" />
                <rect class="cls-18" x="134.1" y="91.97" width="1.52" height="1.52" />
                <rect class="cls-18" x="136.51" y="91.97" width="1.52" height="1.52" />
                <rect class="cls-18" x="129.28" y="94.27" width="1.52" height="1.52" />
                <rect class="cls-18" x="131.69" y="94.27" width="1.52" height="1.52" />
                <rect class="cls-18" x="134.1" y="94.27" width="1.52" height="1.52" />
                <rect class="cls-18" x="136.51" y="94.27" width="1.52" height="1.52" />
                <rect class="cls-18" x="129.28" y="96.57" width="1.52" height="1.52" />
                <rect class="cls-18" x="131.69" y="96.57" width="1.52" height="1.52" />
                <rect class="cls-18" x="134.1" y="96.57" width="1.52" height="1.52" />
                <rect class="cls-18" x="136.51" y="96.57" width="1.52" height="1.52" />
                <rect class="cls-18" x="129.28" y="98.86" width="1.52" height="1.52" />
                <rect class="cls-18" x="131.69" y="98.86" width="1.52" height="1.52" />
                <rect class="cls-18" x="134.1" y="98.86" width="1.52" height="1.52" />
                <rect class="cls-18" x="136.51" y="98.86" width="1.52" height="1.52" />
            </g>
        </g>
    </g>
</svg>