<svg xmlns="http://www.w3.org/2000/svg" xmlns:xlink="http://www.w3.org/1999/xlink" viewBox="0 0 150 117.97">
    <defs>
        <style>
            .cls-1 {
                fill: url(#未命名的渐变_74);
            }

            .cls-2 {
                fill: url(#未命名的渐变_74-2);
            }

            .cls-3 {
                fill: #909191;
            }

            .cls-4 {
                fill: #5b5b5b;
            }

            .cls-27,
            .cls-5,
            .cls-9 {
                fill: none;
                stroke-miterlimit: 10;
                stroke-width: 0.25px;
            }

            .cls-5 {
                stroke: #424242;
            }

            .cls-6 {
                fill: url(#未命名的渐变_105);
            }

            .cls-7 {
                fill: url(#未命名的渐变_105-2);
            }

            .cls-8 {
                fill: url(#未命名的渐变_74-3);
            }

            .cls-9 {
                stroke: #5b5b5b;
            }

            .cls-10 {
                fill: url(#未命名的渐变_74-4);
            }

            .cls-11 {
                fill: url(#未命名的渐变_74-5);
            }

            .cls-12 {
                fill: url(#未命名的渐变_74-6);
            }

            .cls-13 {
                fill: url(#未命名的渐变_74-7);
            }

            .cls-14 {
                fill: url(#未命名的渐变_74-8);
            }

            .cls-15 {
                fill: #fff;
            }

            .cls-16 {
                fill: #f2f2f2;
            }

            .cls-17 {
                fill: url(#未命名的渐变_74-9);
            }

            .cls-18 {
                fill: url(#未命名的渐变_74-10);
            }

            .cls-19 {
                fill: url(#未命名的渐变_74-11);
            }

            .cls-20 {
                fill: url(#未命名的渐变_74-12);
            }

            .cls-21 {
                fill: url(#未命名的渐变_74-13);
            }

            .cls-22 {
                fill: url(#未命名的渐变_74-14);
            }

            .cls-23 {
                fill: url(#未命名的渐变_74-15);
            }

            .cls-24 {
                fill: url(#未命名的渐变_74-16);
            }

            .cls-25 {
                fill: url(#未命名的渐变_74-17);
            }

            .cls-26 {
                fill: url(#未命名的渐变_74-18);
            }

            .cls-27 {
                stroke: #686868;
            }

            .cls-28 {
                opacity: 0.2;
            }
        </style>
        <linearGradient id="未命名的渐变_74" x1="75" y1="117.97" x2="75" y2="97.67" gradientUnits="userSpaceOnUse">
            <stop offset="0" stop-color="#6b6b6b" />
            <stop offset="0.01" stop-color="#767676" />
            <stop offset="0.03" stop-color="#959595" />
            <stop offset="0.04" stop-color="#aaa" />
            <stop offset="0.37" stop-color="#ccc" />
            <stop offset="0.74" stop-color="#eaeaea" />
            <stop offset="0.94" stop-color="#f6f6f6" />
            <stop offset="0.95" stop-color="#ededed" />
            <stop offset="0.96" stop-color="#d4d4d4" />
            <stop offset="0.97" stop-color="#ababab" />
            <stop offset="0.99" stop-color="#737373" />
            <stop offset="0.99" stop-color="#666" />
        </linearGradient>
        <linearGradient id="未命名的渐变_74-2" x1="3.38" y1="72.72" x2="50.54" y2="72.72" xlink:href="#未命名的渐变_74" />
        <linearGradient id="未命名的渐变_105" x1="50.54" y1="94.5" x2="96.41" y2="94.5" gradientUnits="userSpaceOnUse">
            <stop offset="0" stop-color="#e2e2e2" />
            <stop offset="0.03" stop-color="#d0d0d0" />
            <stop offset="0.06" stop-color="#bcbcbc" />
            <stop offset="0.09" stop-color="#b5b5b5" />
            <stop offset="0.49" stop-color="#f6f6f6" />
            <stop offset="0.63" stop-color="#f3f3f3" />
            <stop offset="0.73" stop-color="#eaeaea" />
            <stop offset="0.82" stop-color="#dbdbdb" />
            <stop offset="0.9" stop-color="#c6c6c6" />
            <stop offset="0.97" stop-color="#aaa" />
            <stop offset="1" stop-color="#9b9b9b" />
        </linearGradient>
        <linearGradient id="未命名的渐变_105-2" x1="50.37" y1="88.6" x2="81.87" y2="88.6" xlink:href="#未命名的渐变_105" />
        <linearGradient id="未命名的渐变_74-3" x1="72.62" y1="49.37" x2="80.55" y2="49.37" xlink:href="#未命名的渐变_74" />
        <linearGradient id="未命名的渐变_74-4" x1="74.21" y1="56.49" x2="78.41" y2="56.49" xlink:href="#未命名的渐变_74" />
        <linearGradient id="未命名的渐变_74-5" x1="93.09" y1="72.6" x2="122.69" y2="72.6" xlink:href="#未命名的渐变_74" />
        <linearGradient id="未命名的渐变_74-6" x1="72.62" y1="72.47" x2="80.55" y2="72.47" xlink:href="#未命名的渐变_74" />
        <linearGradient id="未命名的渐变_74-7" x1="80.97" y1="58.04" x2="93.13" y2="58.04" xlink:href="#未命名的渐变_74" />
        <linearGradient id="未命名的渐变_74-8" x1="95.77" y1="98.15" x2="98.78" y2="98.15" xlink:href="#未命名的渐变_74" />
        <linearGradient id="未命名的渐变_74-9" x1="96.41" y1="88.4" x2="98.15" y2="88.4" xlink:href="#未命名的渐变_74" />
        <linearGradient id="未命名的渐变_74-10" x1="95.77" y1="78.65" x2="98.78" y2="78.65" xlink:href="#未命名的渐变_74" />
        <linearGradient id="未命名的渐变_74-11" x1="45.7" y1="96.45" x2="48.71" y2="96.45" xlink:href="#未命名的渐变_74" />
        <linearGradient id="未命名的渐变_74-12" x1="46.33" y1="86.7" x2="48.08" y2="86.7" xlink:href="#未命名的渐变_74" />
        <linearGradient id="未命名的渐变_74-13" x1="45.7" y1="76.95" x2="48.71" y2="76.95" xlink:href="#未命名的渐变_74" />
        <linearGradient id="未命名的渐变_74-14" x1="84.72" y1="71.25" x2="84.72" y2="59.06" xlink:href="#未命名的渐变_74" />
        <linearGradient id="未命名的渐变_74-15" x1="68.5" y1="35.15" x2="84.05" y2="35.15" xlink:href="#未命名的渐变_74" />
        <linearGradient id="未命名的渐变_74-16" x1="80.18" y1="34.21" x2="84.05" y2="34.21" xlink:href="#未命名的渐变_74" />
        <linearGradient id="未命名的渐变_74-17" x1="66.12" y1="12.74" x2="85.62" y2="12.74" xlink:href="#未命名的渐变_74" />
        <linearGradient id="未命名的渐变_74-18" x1="122.69" y1="67.93" x2="150" y2="67.93" xlink:href="#未命名的渐变_74" />
    </defs>
    <title>Vertical lathe(立式车床)</title>
    <g id="图层_2" data-name="图层 2">
        <g id="图层_61" data-name="图层 61">
            <g id="Vertical_lathe_立式车床_" data-name="Vertical lathe(立式车床)">
                <rect class="cls-1" y="97.67" width="150" height="20.3" />
                <rect class="cls-2" x="3.38" y="33.81" width="47.16" height="77.81" />
                <rect class="cls-3" x="3.38" y="87.53" width="47.16" height="3.79" />
                <rect class="cls-3" x="3.38" y="41.04" width="47.16" height="3.79" />
                <rect class="cls-4" x="19.98" y="54.57" width="1.9" height="31.31" />
                <rect class="cls-4" x="22.73" y="54.57" width="1.9" height="31.31" />
                <rect class="cls-4" x="25.48" y="54.57" width="1.9" height="31.31" />
                <rect class="cls-4" x="28.22" y="54.57" width="1.9" height="31.31" />
                <rect class="cls-4" x="30.97" y="54.57" width="1.9" height="31.31" />
                <rect class="cls-4" x="33.72" y="54.57" width="1.9" height="31.31" />
                <rect class="cls-4" x="36.47" y="54.57" width="1.9" height="31.31" />
                <rect class="cls-4" x="39.22" y="54.57" width="1.9" height="31.31" />
                <rect class="cls-4" x="41.97" y="54.57" width="1.9" height="31.31" />
                <rect class="cls-4" x="44.71" y="54.57" width="1.9" height="31.31" />
                <line class="cls-5" x1="3.38" y1="50.95" x2="50.54" y2="50.95" />
                <rect class="cls-3" x="50.54" y="44.83" width="67" height="52.84" />
                <rect class="cls-6" x="50.54" y="91.32" width="45.86" height="6.36" />
                <rect class="cls-7" x="50.37" y="85.88" width="31.5" height="5.44" />
                <rect class="cls-8" x="72.62" y="44.83" width="7.93" height="9.08" />
                <line class="cls-9" x1="48.07" y1="106.98" x2="150" y2="106.98" />
                <rect class="cls-10" x="74.21" y="53.91" width="4.2" height="5.15" />
                <rect class="cls-4" x="48.07" y="99.66" width="101.93" height="1.39" />
                <rect class="cls-11" x="93.09" y="33.7" width="29.6" height="77.81" />
                <rect class="cls-12" x="72.62" y="59.06" width="7.93" height="26.82" />
                <rect class="cls-13" x="80.97" y="44.83" width="12.16" height="26.42" />
                <rect class="cls-3" x="93.13" y="41.04" width="29.6" height="3.79" />
                <rect class="cls-3" x="93.13" y="86.7" width="29.6" height="3.79" />
                <circle class="cls-14" cx="97.28" cy="98.15" r="1.51" />
                <rect class="cls-4" x="97.32" y="54.57" width="1.9" height="31.31" />
                <rect class="cls-4" x="100.07" y="54.57" width="1.9" height="31.31" />
                <rect class="cls-4" x="102.81" y="54.57" width="1.9" height="31.31" />
                <rect class="cls-4" x="105.56" y="54.57" width="1.9" height="31.31" />
                <rect class="cls-4" x="108.31" y="54.57" width="1.9" height="31.31" />
                <rect class="cls-4" x="111.06" y="54.57" width="1.9" height="31.31" />
                <rect class="cls-4" x="113.81" y="54.57" width="1.9" height="31.31" />
                <rect class="cls-4" x="116.56" y="54.57" width="1.9" height="31.31" />
                <rect class="cls-15" x="102.81" y="53.12" width="15.64" height="24.03" />
                <rect class="cls-4" x="103.77" y="54.15" width="13.74" height="21.86" />
                <rect class="cls-16" x="103.77" y="77.14" width="3.7" height="1.66" />
                <rect class="cls-16" x="113.86" y="77.14" width="3.7" height="1.66" />
                <rect class="cls-16" x="108.85" y="52.01" width="5.31" height="1.11" />
                <rect class="cls-16" x="109.71" y="33.7" width="3.25" height="18.31" />
                <rect class="cls-17" x="96.41" y="78.65" width="1.74" height="19.5" />
                <circle class="cls-18" cx="97.28" cy="78.65" r="1.51" />
                <circle class="cls-19" cx="47.21" cy="96.45" r="1.51" />
                <rect class="cls-20" x="46.33" y="76.95" width="1.74" height="19.5" />
                <circle class="cls-21" cx="47.21" cy="76.95" r="1.51" />
                <rect class="cls-3" x="104.81" y="55.42" width="6.7" height="5.21" />
                <rect class="cls-3" x="112.53" y="55.42" width="4.28" height="7" />
                <rect class="cls-3" x="104.81" y="61.48" width="6.7" height="0.94" />
                <rect class="cls-3" x="104.81" y="63.69" width="1.7" height="11.31" />
                <rect class="cls-3" x="107.46" y="63.69" width="1.7" height="11.31" />
                <rect class="cls-3" x="110.11" y="63.69" width="1.7" height="11.31" />
                <rect class="cls-3" x="112.76" y="63.69" width="1.7" height="11.31" />
                <rect class="cls-3" x="114.96" y="63.69" width="1.85" height="3.78" />
                <rect class="cls-3" x="114.96" y="68.87" width="1.85" height="3.78" />
                <polygon class="cls-22" points="93.13 71.25 76.31 71.25 76.31 61.95 93.13 59.06 93.13 71.25" />
                <rect class="cls-23" x="68.5" y="25.48" width="15.55" height="19.35" />
                <rect class="cls-24" x="80.18" y="27.38" width="3.87" height="13.66" />
                <rect class="cls-25" x="66.12" width="19.5" height="25.48" />
                <rect class="cls-3" x="66.12" y="18.23" width="19.5" height="1.11" />
                <rect class="cls-26" x="122.69" y="37.89" width="27.31" height="60.07" />
                <rect class="cls-3" x="122.69" y="44.45" width="27.31" height="3.79" />
                <rect class="cls-3" x="122.69" y="91.32" width="27.31" height="6.64" />
                <line class="cls-27" x1="64.3" y1="44.83" x2="64.3" y2="85.88" />
                <line class="cls-27" x1="50.37" y1="75.45" x2="72.62" y2="75.45" />
                <line class="cls-27" x1="50.54" y1="58.02" x2="64.3" y2="58.02" />
     
            </g>
        </g>
    </g>
</svg>