<?xml version="1.0" encoding="utf-8"?>
<!-- Generator: Adobe Illustrator 19.0.0, SVG Export Plug-In . SVG Version: 6.00 Build 0)  -->
<svg version="1.1" id="图层_1" xmlns="http://www.w3.org/2000/svg" xmlns:xlink="http://www.w3.org/1999/xlink" x="0px" y="0px"
	 viewBox="18 15.6 144.7 77.1" style="enable-background:new 18 15.6 144.7 77.1;" xml:space="preserve">
<style type="text/css">
	.st0{fill:#64B264;stroke:#000000;stroke-width:0.25;}
	.st1{fill:#CAE4CA;stroke:#000000;stroke-width:0.25;}
	.st2{fill:none;stroke:#000000;stroke-width:0.25;}
</style>
<path class="st0" d="M155.6,73v14.2H24.8V73H155.6z"/>
<path class="st0" d="M135.8,70.1l-1.4-50.4h-2.8l-1.4,50.4H135.8z"/>
<path class="st0" d="M128,70.1l-1.4-50.4h-2.8l-1.4,50.4H128z"/>
<path class="st1" d="M158.5,70.1V73H22.1v-2.9H158.5z"/>
<path class="st1" d="M132.9,88.7V54.5h2.9v-2.8h-91v2.8h2.8v34.2H132.9z"/>
<path class="st0" d="M76.1,47.4v4.3H69v-4.3H76.1z"/>
<path class="st0" d="M95.2,45.9v5.8h-9.9v-5.8H95.2z"/>
<path class="st0" d="M71.6,57.4h-9.4v11.3h9.4V57.4z"/>
<path class="st0" d="M83.3,57.4h-9.4v11.3h9.4V57.4z"/>
<path class="st0" d="M94.9,57.4h-9.3v11.3h9.3V57.4z"/>
<path class="st0" d="M106.7,57.4h-9.4v11.3h9.4V57.4z"/>
<path class="st0" d="M118.4,57.4H109v11.3h9.4V57.4z"/>
<path class="st0" d="M130.1,57.4h-9.4v11.3h9.4V57.4z"/>
<path class="st0" d="M71.6,74.5h-9.4v11.3h9.4V74.5z"/>
<path class="st0" d="M83.3,74.5h-9.4v11.3h9.4V74.5z"/>
<path class="st0" d="M106.7,74.5h-9.4v11.3h9.4V74.5z"/>
<path class="st0" d="M118.4,74.5H109v11.3h9.4V74.5z"/>
<path class="st0" d="M130.1,74.5h-9.4v11.3h9.4V74.5z"/>
<path class="st0" d="M59.9,57.4h-9.4v11.3h9.4V57.4z"/>
<path class="st0" d="M59.9,74.5h-9.4v11.3h9.4V74.5z"/>
<path class="st0" d="M95.2,73v15.6h-9.9V73H95.2z"/>
<path class="st0" d="M47.6,65.9h-7.1v4.2h7.1V65.9z"/>
<path class="st0" d="M144.3,57.4H138v12.8h6.4V57.4z"/>
<path class="st0" d="M143.6,55.2h-4.9v2.2h4.9V55.2z"/>
<path class="st2" d="M132.9,71.6H47.6"/>
<path class="st2" d="M132.9,54.5H47.6"/>
<path class="st2" d="M130.1,63h-9.4"/>
<path class="st2" d="M118.4,63H109"/>
<path class="st2" d="M106.7,63h-9.4"/>
<path class="st2" d="M94.9,63h-9.3"/>
<path class="st2" d="M83.3,63h-9.4"/>
<path class="st2" d="M71.6,63h-9.4"/>
<path class="st2" d="M66.8,57.4v11.3"/>
<path class="st2" d="M78.6,57.4v11.3"/>
<path class="st2" d="M90.3,57.4v11.3"/>
<path class="st2" d="M102,57.4v11.3"/>
<path class="st2" d="M113.6,57.4v11.3"/>
<path class="st2" d="M125.5,57.4v11.3"/>
<path class="st2" d="M130.1,80.1h-9.4"/>
<path class="st2" d="M118.4,80.1H109"/>
<path class="st2" d="M106.7,80.1h-9.4"/>
<path class="st2" d="M83.3,80.1h-9.4"/>
<path class="st2" d="M71.6,80.1h-9.4"/>
<path class="st2" d="M66.8,74.5v11.3"/>
<path class="st2" d="M78.6,74.5v11.3"/>
<path class="st2" d="M102,74.5v11.3"/>
<path class="st2" d="M113.6,74.5v11.3"/>
<path class="st2" d="M125.5,74.5v11.3"/>
<path class="st2" d="M55.1,85.8V74.5"/>
<path class="st2" d="M55.1,68.7V57.4"/>
<path class="st2" d="M59.9,63h-9.4"/>
<path class="st2" d="M59.9,80.1h-9.4"/>
<path class="st2" d="M94.6,73.7v14.2H86V73.7H94.6"/>
<path d="M93.9,80.8v1.4h-1.6v-1.4H93.9z"/>
<path class="st1" d="M152.9,75.9h-4.3v8.4h4.3V75.9z"/>
<path class="st1" d="M146.5,75.9h-4.3v8.4h4.3V75.9z"/>
<path class="st1" d="M140.1,75.9h-4.3v8.4h4.3V75.9z"/>
<path class="st1" d="M44.8,75.9h-4.3v8.4h4.3V75.9z"/>
<path class="st1" d="M38.4,75.9h-4.3v8.4h4.3V75.9z"/>
<path class="st1" d="M32.1,75.9h-4.3v8.4h4.3V75.9z"/>
</svg>
