<?xml version="1.0" encoding="utf-8"?>
<!-- Generator: Adobe Illustrator 19.0.0, SVG Export Plug-In . SVG Version: 6.00 Build 0)  -->
<svg version="1.1" id="图层_1" xmlns="http://www.w3.org/2000/svg" xmlns:xlink="http://www.w3.org/1999/xlink" x="0px" y="0px"
	 viewBox="14 1.2 135.7 106.5" style="enable-background:new 14 1.2 135.7 106.5;" xml:space="preserve">
<style type="text/css">
	.st0{fill:#006600;stroke:#000000;stroke-width:0.25;}
	.st1{fill:#108810;stroke:#000000;stroke-width:0.25;}
	.st2{fill:#329932;stroke:#000000;stroke-width:0.25;}
	.st3{fill:#CAE4CA;stroke:#000000;stroke-width:0.25;}
	.st4{fill:#98CB98;}
	.st5{fill:#FFFFFF;}
	.st6{fill:#004C00;}
	.st7{fill:none;stroke:#7F7F7F;stroke-width:0.25;}
</style>
<path class="st0" d="M145.8,29.1L60.6,5l-42.8,24l85.2,74.7L145.8,29.1z"/>
<path class="st1" d="M145.8,29.1L103,61.1v42.7l42.8-32.2V29.1z"/>
<path class="st2" d="M103,103.8L17.8,69V29.1L103,61.1V103.8z"/>
<path class="st3" d="M95.1,79.7L49.7,62.6v13.3L95.1,93V79.7z"/>
<path class="st4" d="M94.3,86.1v6.2l-18.6-7.2L94.3,86.1z"/>
<path class="st5" d="M94.3,84.9l-21.2-0.8l-2-0.7l23.2,0.1V84.9z"/>
<path class="st6" d="M95.1,93v-0.4l-44.6-17V62.9l-0.8-0.3v13.3L95.1,93z"/>
<path class="st3" d="M44.4,61.1l-15.9-6.5v18.7l15.9,6.4V61.1z"/>
<path class="st5" d="M43.6,73.6l-14.5-1.2v-0.8l14.5,1.2V73.6z"/>
<path class="st4" d="M51.1,69.8v-6l18.6,6.9L51.1,69.8z"/>
<path class="st4" d="M29.1,60v-4.3l14,5.6L29.1,60z"/>
<path class="st4" d="M43.6,74.4v4.6l-13.9-6L43.6,74.4z"/>
<path class="st7" d="M36.4,58v18.5"/>
<path class="st7" d="M44.4,70.5l-15.9-6.7"/>
</svg>
