<?xml version="1.0" encoding="utf-8"?>
<!-- Generator: Adobe Illustrator 19.0.0, SVG Export Plug-In . SVG Version: 6.00 Build 0)  -->
<svg version="1.1" id="图层_1" xmlns="http://www.w3.org/2000/svg" xmlns:xlink="http://www.w3.org/1999/xlink" x="0px" y="0px"
	 viewBox="7 1.2 122.9 106.5" style="enable-background:new 7 1.2 122.9 106.5;" xml:space="preserve">
<style type="text/css">
	.st0{fill:#65B265;stroke:#000000;stroke-width:0.25;}
	.st1{fill:#007F00;stroke:#000000;stroke-width:0.25;}
	.st2{fill:#CBE5CB;stroke:#000000;stroke-width:0.25;}
	.st3{fill:#3D9E3D;stroke:#000000;stroke-width:0.25;}
	.st4{fill:#006B00;stroke:#000000;stroke-width:0.25;}
	.st5{fill:#004C00;stroke:#000000;stroke-width:0.25;}
	.st6{fill:#005D00;}
	.st7{fill:#002A00;}
</style>
<path class="st0" d="M126.3,104.3V55.9H29.8v48.3H126.3z"/>
<path class="st1" d="M10.4,94.6V46.2l19.3,9.7v48.3L10.4,94.6z"/>
<path class="st2" d="M126.3,55.9l-12.1-6H61.1l-7.3-3.7H10.4l19.3,9.7H126.3z"/>
<path class="st3" d="M126.3,93.3v-9.6H29.8v9.6H126.3z"/>
<path class="st3" d="M126.3,74v-9.6H29.8V74H126.3z"/>
<path class="st1" d="M53.9,74v-9.6H37V74H53.9z"/>
<path class="st1" d="M75.6,74v-9.6h-17V74H75.6z"/>
<path class="st1" d="M97.3,74v-9.6H80.4V74H97.3z"/>
<path class="st1" d="M119,74v-9.6h-16.8V74H119z"/>
<path class="st1" d="M119,93.3v-9.6h-16.8v9.6H119z"/>
<path class="st1" d="M97.3,93.3v-9.6H80.4v9.6H97.3z"/>
<path class="st1" d="M75.6,93.3v-9.6h-17v9.6H75.6z"/>
<path class="st1" d="M53.9,93.3v-9.6H37v9.6H53.9z"/>
<path class="st4" d="M10.4,63.8v-9.6l19.3,10.2V74L10.4,63.8z"/>
<path class="st4" d="M10.4,83.1v-9.6l19.3,10.2v9.6L10.4,83.1z"/>
<path class="st5" d="M25,90.9v-9.7l3.3,1.8v9.6L25,90.9z"/>
<path class="st5" d="M20.5,88.5v-9.7l3.4,1.8v9.7L20.5,88.5z"/>
<path class="st5" d="M16.2,86.2v-9.6l3.4,1.7V88L16.2,86.2z"/>
<path class="st5" d="M11.9,83.9v-9.6l3.3,1.8v9.6L11.9,83.9z"/>
<path class="st5" d="M11.9,64.6V55l3.3,1.8v9.6L11.9,64.6z"/>
<path class="st5" d="M16.2,66.9v-9.6l3.4,1.7v9.7L16.2,66.9z"/>
<path class="st5" d="M20.5,69.2v-9.7l3.4,1.8v9.6L20.5,69.2z"/>
<path class="st5" d="M25,71.6v-9.7l3.3,1.7v9.7L25,71.6z"/>
<path class="st5" d="M99.7,5.2l-1.2-0.5h4.9l1.1,0.5H99.7z"/>
<path class="st5" d="M77.5,5.2l-1.2-0.5H81l1.2,0.5H77.5z"/>
<path class="st0" d="M82.9,53.5L82.3,5.2h-4.8l-0.6,48.3H82.9z"/>
<path class="st0" d="M105.1,53.5l-0.6-48.3h-4.8l-0.6,48.3H105.1z"/>
<path class="st1" d="M76.9,53.5l0.6-48.3l-1.2-0.5L75,52.3L76.9,53.5z"/>
<path class="st1" d="M99.1,53.5l0.6-48.3l-1.2-0.5l-1.1,47.6L99.1,53.5z"/>
<path class="st6" d="M77.3,12.5v-1.8h4.9v1.8H77.3z"/>
<path class="st6" d="M77.3,16.7v-1.8h4.9v1.8H77.3z"/>
<path class="st6" d="M99.7,12.5v-1.8h4.8v1.8H99.7z"/>
<path class="st6" d="M99.6,16.7v-1.8h4.9v1.8H99.6z"/>
<path class="st7" d="M76.1,11.9v-1.7l1.4,0.5v1.8L76.1,11.9z"/>
<path class="st7" d="M76,16.2v-1.8l1.4,0.5v1.8L76,16.2z"/>
<path class="st7" d="M98.4,11.9v-1.7l1.4,0.5v1.8L98.4,11.9z"/>
<path class="st7" d="M98.2,16.2v-1.8l1.4,0.5v1.8L98.2,16.2z"/>
</svg>
