<?xml version="1.0" encoding="utf-8"?>
<!-- Generator: Adobe Illustrator 19.0.0, SVG Export Plug-In . SVG Version: 6.00 Build 0)  -->
<svg version="1.1" id="图层_1" xmlns="http://www.w3.org/2000/svg" xmlns:xlink="http://www.w3.org/1999/xlink" x="0px" y="0px"
	 viewBox="18 32.4 144.7 42.3" style="enable-background:new 18 32.4 144.7 42.3;" xml:space="preserve">
<style type="text/css">
	.st0{fill:#98CB98;stroke:#000000;stroke-width:0.25;}
	.st1{fill:#CAE4CA;stroke:#000000;stroke-width:0.25;}
	.st2{fill:#329932;stroke:#000000;stroke-width:0.25;}
</style>
<path class="st0" d="M158.5,70.5V47.8H39.2v22.7H158.5z"/>
<path class="st1" d="M39.2,47.8l-8.5-11.3h113.7l14.2,11.3H39.2z"/>
<path class="st2" d="M73.2,70.5V56.3H56.1v14.2H73.2z"/>
<path class="st2" d="M107.4,70.5V56.3H90.3v14.2H107.4z"/>
<path class="st2" d="M141.4,70.5V56.3h-17v14.2H141.4z"/>
<path d="M70.3,70.5V56.3H56.1v14.2H70.3z"/>
<path d="M104.5,70.5V56.3H90.3v14.2H104.5z"/>
<path d="M138.7,70.5V56.3h-14.2v14.2H138.7z"/>
<path class="st2" d="M39.2,70.5V47.8l-8.5-11.3l-8.5,2.8V62L39.2,70.5z"/>
</svg>
