<?xml version="1.0" encoding="utf-8"?>
<!-- Generator: Adobe Illustrator 19.0.0, SVG Export Plug-In . SVG Version: 6.00 Build 0)  -->
<svg version="1.1" id="图层_1" xmlns="http://www.w3.org/2000/svg" xmlns:xlink="http://www.w3.org/1999/xlink" x="0px" y="0px"
	 viewBox="18 15 144.7 78.7" style="enable-background:new 18 15 144.7 78.7;" xml:space="preserve">
<style type="text/css">
	.st0{fill:#004C00;stroke:#000000;stroke-width:0.25;}
	.st1{fill:#98CB98;stroke:#000000;stroke-width:0.25;}
	.st2{fill:#007F00;stroke:#000000;stroke-width:0.25;}
	.st3{fill:none;stroke:#000000;stroke-width:0.25;}
	.st4{fill:#E0EFE0;stroke:#000000;stroke-width:0.25;}
	.st5{fill:#C0DFC0;}
	.st6{fill:none;stroke:#4C4C4C;stroke-width:0.25;}
</style>
<path class="st0" d="M105.8,89.5l52.7-13.9L74.8,50L22.1,63.9L105.8,89.5z"/>
<path class="st1" d="M158.5,75.5l-10.7,3.2V52.3l-30.3,9.1V74v12.6l-11.7,3v-9.9V70l3.3-12.9l8-8.3l8.7-4.6l5.5-2l10.4-2.5l8.5,0.3
	l6.1,4.6l2.2,9.4v10.7V75.5z"/>
<path class="st2" d="M147.8,72.4V52.3l-30.3,9.1v3L147.8,72.4z"/>
<path class="st3" d="M108.1,61.4v27.7V61.4"/>
<path class="st3" d="M156.5,45.3V76V45.3"/>
<path class="st3" d="M154.1,42.9v33.9V42.9"/>
<path class="st3" d="M151.6,41v36.5V41"/>
<path class="st3" d="M149.3,40v38.1V40"/>
<path class="st3" d="M146.8,39.8v12.5V39.8"/>
<path class="st3" d="M144.3,39.8v13.5V39.8"/>
<path class="st3" d="M142,39.7V54V39.7"/>
<path class="st3" d="M139.7,40.1v14.6V40.1"/>
<path class="st3" d="M137.2,40.7v14.8V40.7"/>
<path class="st3" d="M134.9,41.3v14.9V41.3"/>
<path class="st3" d="M132.6,41.8v15.1V41.8"/>
<path class="st3" d="M130.3,42.4v15.2V42.4"/>
<path class="st3" d="M128.1,43.3v14.9V43.3"/>
<path class="st3" d="M125.8,44v14.9V44"/>
<path class="st3" d="M123.5,45.2v14.5V45.2"/>
<path class="st3" d="M121.2,46.5v13.9V46.5"/>
<path class="st3" d="M119,47.6V61V47.6"/>
<path class="st3" d="M116.8,48.9v37.7V48.9"/>
<path class="st3" d="M114.6,51.4v35.8V51.4"/>
<path class="st3" d="M112.5,53.7v34V53.7"/>
<path class="st3" d="M110.3,56v32.3V56"/>
<path class="st4" d="M105.8,89.7v-9.9V70l3.3-12.9l8-8.3l8.7-4.6l5.5-2l10.4-2.5l6.7,0.3L98.7,29l-43.2-9.6L49,19.1l-7.7,2.5
	L37,23.3l-6.7,4.3l-5.8,7.7l-2.5,11v9v8.5l39.3,12L105.8,89.7z"/>
<path class="st5" d="M105.2,89.1l0.3-19.1v-0.3L22.3,45.8l-0.3,0.6v9v8.5l39,12L105.2,89.1z"/>
<path class="st6" d="M109.6,88.8"/>
<path class="st6" d="M111.7,88.2"/>
<path class="st6" d="M114.1,87.5v0.1V87.5"/>
<path class="st6" d="M116.4,86.9L116.4,86.9L116.4,86.9"/>
<path class="st6" d="M118.7,47.9L118.7,47.9L118.7,47.9"/>
<path class="st6" d="M120.9,60.4"/>
<path class="st6" d="M130.3,57.5"/>
<path class="st6" d="M130.3,42.4L130.3,42.4L130.3,42.4"/>
<path class="st6" d="M132.8,41.7"/>
<path class="st6" d="M135.1,41.1L135.1,41.1L135.1,41.1"/>
<path class="st6" d="M137.5,55.3"/>
<path class="st6" d="M137.5,40.5"/>
<path class="st6" d="M140,40L140,40L140,40"/>
<path class="st6" d="M142.5,39.7L142.5,39.7L142.5,39.7"/>
<path class="st6" d="M147.4,78.5"/>
<path class="st6" d="M149.9,77.9"/>
<path class="st6" d="M152.5,77.2"/>
<path class="st6" d="M154.9,76.6"/>
<path class="st6" d="M22.1,46.5v17.2V46.5"/>
<path class="st6" d="M24.4,64.3V47.2l2.5-11.4l5.9-7.4l11-6.2l7.8-2.5l5.2,0.1l-5.2-0.1l-7.8,2.5l-11,6.2l-5.9,7.4l-2.5,11.4V64.3"
	/>
<path class="st6" d="M54.2,20.3l-8,2.5l-11,6.2l-6.1,7.4l-2.5,11.4V65V47.8l2.5-11.4l6.1-7.4l11-6.2L54.2,20.3l5.4,0.1"/>
<path class="st6" d="M56.7,20.8l-8,2.5l-11.2,6.2l-5.9,7.5L29,48.5v17.2V48.5l2.6-11.4l5.9-7.5l11.2-6.2L56.7,20.8l5.5,0.1"/>
<path class="st6" d="M59.3,21.4l-8.1,2.5L40,30.1l-6.1,7.5l-2.6,11.4v17.4V49.1l2.6-11.4l6.1-7.5l11.2-6.2L59.3,21.4l5.5,0.1"/>
<path class="st6" d="M61.9,22l-8.1,2.5l-11.3,6.2l-6.1,7.5l-2.6,11.6v17.4V49.8l2.6-11.6l6.1-7.5l11.3-6.2L61.9,22l5.7,0.1"/>
<path class="st6" d="M36.1,67.9V50.4l2.6-11.6l6.2-7.5L56.4,25l8.1-2.5l5.4,0.1"/>
<path class="st6" d="M38.6,68.7V51.1l2.6-11.6l6.4-7.7l11.3-6.2l8.3-2.5l5.4,0.1"/>
<path class="st6" d="M41,69.5V51.8l2.6-11.7l6.4-7.7l11.4-6.2l8.4-2.5l5.4,0.1"/>
<path class="st6" d="M43.5,70.2V52.6l2.6-11.7l6.4-7.7l11.6-6.4l8.5-2.5l5.4,0.3"/>
<path class="st6" d="M46,71V53.2l2.8-11.7l6.4-7.7l11.7-6.4l8.5-2.5l5.5,0.3"/>
<path class="st6" d="M48.4,71.7V53.9l2.8-11.7l6.5-7.8l11.7-6.4l8.5-2.3l5.7,0.1"/>
<path class="st6" d="M50.9,72.6v-18l2.8-11.9l6.5-7.7l12-6.4l8.5-2.5l5.7,0.1"/>
<path class="st6" d="M53.5,73.3v-18l2.8-11.9l6.5-7.8l12.2-6.4l8.7-2.5l5.7,0.3"/>
<path class="st6" d="M56,74.2V56l2.9-12l6.5-7.7l12.3-6.5l8.7-2.5l5.8,0.3"/>
<path class="st6" d="M58.6,74.9V56.8l2.9-12l6.7-7.8l12.3-6.4l8.8-2.5l5.8,0.3"/>
<path class="st6" d="M61.2,75.8V57.5l2.9-12l6.7-8l12.5-6.4l9-2.5L98,29"/>
<path class="st6" d="M63.8,76.6V58.2l2.9-12l6.8-8L86,31.7l9.1-2.5l5.9,0.4"/>
<path class="st6" d="M66.5,77.3V58.9l2.9-12.2l6.8-7.8l12.6-6.5L98,30l5.9,0.3"/>
<path class="st6" d="M69.1,78.2V59.7L72,47.5l7-7.8L91.8,33l9.1-2.3l6.7,0.3"/>
<path class="st6" d="M119,61V65V61"/>
<path class="st6" d="M71.8,79.1V60.5l3-12.3l7-8l12.9-6.5l9.3-2.5l6.7,0.3"/>
<path class="st6" d="M122.2,60.1v5.8V60.1"/>
<path class="st6" d="M74.5,79.8V61.3l3-12.3l7-8l13-6.5L107,32l6.7,0.3"/>
<path class="st6" d="M125.4,59.1v7.7V59.1"/>
<path class="st6" d="M77.3,80.7V62l3-12.3l7.1-8l13-6.7l9.4-2.5l6.8,0.4"/>
<path class="st6" d="M128.6,58.1v9.6V58.1"/>
<path class="st6" d="M80,81.5V62.7l3-12.3l7.2-8.1l13-6.5l9.6-2.5l7,0.3"/>
<path class="st6" d="M131.7,57.1v11.4V57.1"/>
<path class="st6" d="M82.8,82.6v-19L86,51.1l7.1-8.1l13.3-6.5l9.7-2.5l7,0.3"/>
<path class="st6" d="M135.1,56v13.3V56"/>
<path class="st6" d="M85.7,83.3v-19l3-12.5l7.2-8.1l13.5-6.7l9.7-2.5l7.1,0.4"/>
<path class="st6" d="M138.4,55v15.2V55"/>
<path class="st6" d="M88.4,84.3V65.2l3.2-12.6l7.4-8.1l13.5-6.7l9.9-2.5l7.1,0.4"/>
<path class="st6" d="M141.7,54v17.1V54"/>
<path class="st6" d="M91.3,85.2V65.9l3.2-12.6l7.4-8.1l13.8-6.7l9.9-2.5l7.1,0.4"/>
<path class="st6" d="M145.1,53v19V53"/>
<path class="st6" d="M94.2,86V66.8l3.2-12.6l7.5-8.3l13.8-6.7l10-2.5l7.2,0.4"/>
<path class="st6" d="M97.1,86.9V67.6l3.3-12.8l7.5-8.3l13.8-6.7l10.1-2.5l7.4,0.4"/>
<path class="st6" d="M100.2,87.8V68.4l3.2-12.8l7.7-8.3l13.9-6.7l10.3-2.5l7.4,0.4"/>
<path class="st6" d="M103.1,88.8V69.2l3.3-12.8l7.7-8.4l14.2-6.7l10.3-2.5l7.4,0.4"/>
</svg>
