<?xml version="1.0" encoding="utf-8"?>
<!-- Generator: Adobe Illustrator 19.0.0, SVG Export Plug-In . SVG Version: 6.00 Build 0)  -->
<svg version="1.1" id="图层_1" xmlns="http://www.w3.org/2000/svg" xmlns:xlink="http://www.w3.org/1999/xlink" x="0px" y="0px"
	 viewBox="18 1.9 144.7 103.8" style="enable-background:new 18 1.9 144.7 103.8;" xml:space="preserve">
<style type="text/css">
	.st0{fill:#329932;stroke:#000000;stroke-width:0.25;}
	.st1{fill:#64B264;}
	.st2{fill:#98CB98;}
	.st3{fill:#006600;stroke:#000000;stroke-width:0.25;}
	.st4{fill:#003300;stroke:#000000;stroke-width:0.25;}
	.st5{fill:#64B264;stroke:#000000;stroke-width:0.25;}
	.st6{stroke:#000000;stroke-width:0.25;}
	.st7{fill:#98CB98;stroke:#000000;stroke-width:0.25;}
	.st8{fill:#CAE4CA;stroke:#7F7F7F;stroke-width:0.25;}
</style>
<path class="st0" d="M114.7,77.3l-2.5-43.9h-4.8L105,77.3H114.7z"/>
<path class="st0" d="M126.9,77.3l-2.5-43.9h-4.8l-2.5,43.9H126.9z"/>
<path class="st0" d="M139.3,77.3l-2.5-43.9h-4.9l-2.5,43.9H139.3z"/>
<path class="st1" d="M113.6,77.3l-1.9-43.4h-3.6l-1.9,43.4H113.6z"/>
<path class="st1" d="M125.8,77.3l-1.9-43.4h-3.6l-1.9,43.4H125.8z"/>
<path class="st1" d="M137.9,77.3l-1.7-43.4h-3.8l-1.7,43.4H137.9z"/>
<path class="st2" d="M111.1,77.3l-0.6-43.4h-1.3l-0.6,43.4H111.1z"/>
<path class="st2" d="M123.3,77.3l-0.6-43.4h-1.2l-0.7,43.4H123.3z"/>
<path class="st2" d="M135.6,77.3l-0.7-43.4h-1.2l-0.6,43.4H135.6z"/>
<path class="st3" d="M125.2,33.3V32h-6.1v1.3H125.2z"/>
<path class="st3" d="M113,33.3V32h-6.1v1.3H113z"/>
<path class="st3" d="M137.4,33.3V32h-6.1v1.3H137.4z"/>
<path class="st3" d="M149,99.2H22.1V67.4H149V99.2z"/>
<path class="st0" d="M158.7,77.3H70.8v24.4h87.9V77.3z"/>
<path class="st4" d="M95.3,91.9h-4.9v9.7h4.9V91.9z"/>
<path class="st5" d="M70.8,93.1H25.1v-3h45.7V93.1z"/>
<path class="st6" d="M70.8,88.2H25.1v1.9h45.7V88.2z"/>
<path class="st6" d="M156.9,79.6H72.7v1.9h84.3V79.6z"/>
<path class="st7" d="M156.9,81.5h-9.4v3h9.4V81.5z"/>
<path class="st7" d="M147.5,81.5h-9.3v3h9.3V81.5z"/>
<path class="st7" d="M138.2,81.5h-9.4v3h9.4V81.5z"/>
<path class="st7" d="M128.8,81.5h-9.3v3h9.3V81.5z"/>
<path class="st7" d="M119.5,81.5h-9.4v3h9.4V81.5z"/>
<path class="st7" d="M110.1,81.5h-9.4v3h9.4V81.5z"/>
<path class="st7" d="M100.7,81.5h-9.3v3h9.3V81.5z"/>
<path class="st7" d="M91.4,81.5H82v3h9.4V81.5z"/>
<path class="st7" d="M82,81.5h-9.3v3H82V81.5z"/>
<path class="st8" d="M108.1,30.2l-1.7-4.1l-1.3-3.2l-4.2-1l-4.1-1.2l-2.2-0.9l-4.1,0.3h-4.4l-3.8-0.9l-3.8-1l-2.8-2.5l-0.7-1.5
	l-4.4-0.3L68,12.9l-0.4-0.6V12l0.1-0.4l4.5-1l4.2-0.1l4.1-0.3l0.6-0.7l0.3-2l0.1-0.1h0.3l0.3,0.1L86.2,7l3.9,0.4l4.1,0.3l4.6-0.3
	l4.2,0.1l3.6,1l3.5,1.2l3.8-1l3.3-2.2l3.9-0.4l1-0.1h0.9h0.9l3.9,1.9l2.6,3.8l2,2.2h0.3l1-0.1l0.6,0.3l2,3.6l-0.4,4.2l0.6,2.5
	l0.1,0.4v0.6l-1.2,4.6v0.3l-0.1,0.1l-0.3,0.1h-0.3h-0.1l-1.2-0.1l-1.3-3.6l-1.2-2.6l0.3-1l-1.7-3.3l-1-0.6h-0.3l-3.5,3.3l-1.3,3.2
	l0.4,4.6l-3.6-0.3l-0.9-3.8l-2.9-3.3l-1.3-2.5l-0.4-0.1l-0.4-0.1l-2.6,1.9l0.1,4.4l-0.7,3.8H108.1z"/>
<path class="st1" d="M108.6,29.6l-1.6-4.1l-1.5-3.2l-0.7,0.3l-3.5-2.5l-0.6-0.9l-4.4-0.1l-4.1,0.1l-4.2-0.6l-4.6-1.2l-2-1l-0.4-1.6
	l-0.4-0.6l-4.1-0.1L74,13.3l-0.3-0.4v-0.4l0.1-0.3L74,12l4.6-0.6l4.4,0.7l2.9,0.3l0.1-0.1l0.4-0.7l4.2-2l3.8-0.7l3.8,1.2l4.2,0.1
	l4.1-0.4l4.4,0.9l3.9,0.9l0.7-0.1l1.6,0.1l2.2-3l0.6-0.1l0.9,0.1l2.3,0.9l3.8,0.4l3.3,2.8l2.2,2h1l0.4,0.1l1.9,3l-0.3,3.9l0.4,1.7
	v0.4v0.4l-0.9,3.8l-0.1,0.3v0.1l-0.1,0.1l-1.5-0.1l-1.2-3.6l-0.1-2.3l-2.2-3.3l-3-2.5l-0.7,0.3l-0.1,0.3v0.1l0.7,1.2l0.1,0.9l-3,3.3
	l-0.6,1l-0.3,0.9l0.4,3.9l-2.3,0.4l-0.1-0.1l-0.9-3.9l-0.1-0.9l-2.5-3.5l-0.6-1.3l-3.6,0.1l-0.6,0.1l-1.3,1.9v4.6l-0.6,3l-1.6,0.4
	H108.6z"/>
</svg>
