<?xml version="1.0" encoding="utf-8"?>
<!-- Generator: Adobe Illustrator 19.0.0, SVG Export Plug-In . SVG Version: 6.00 Build 0)  -->
<svg version="1.1" id="图层_1" xmlns="http://www.w3.org/2000/svg" xmlns:xlink="http://www.w3.org/1999/xlink" x="0px" y="0px"
	 viewBox="18 9.3 144.7 89.4" style="enable-background:new 18 9.3 144.7 89.4;" xml:space="preserve">
<style type="text/css">
	.st0{fill:#004C00;stroke:#000000;stroke-width:0.25;}
	.st1{fill:#D9ECD9;stroke:#000000;stroke-width:0.25;}
	.st2{fill:#4AA54A;stroke:#000000;stroke-width:0.25;}
	.st3{fill:none;stroke:#000000;stroke-width:0.25;}
	.st4{fill:#65B265;stroke:#000000;stroke-width:0.25;}
	.st5{fill:#007F00;}
	.st6{fill:#007F00;stroke:#000000;stroke-width:0.25;}
	.st7{fill:#CAE4CA;}
	.st8{fill:#B2D8B2;stroke:#7F7F7F;stroke-width:0.25;}
	.st9{fill:#B9DCB9;}
	.st10{fill:#99CC99;}
	.st11{fill:#FFFFFF;}
	.st12{fill:none;stroke:#FFFFFF;stroke-width:0.25;}
	.st13{fill:#003300;}
</style>
<path class="st0" d="M36,24L23.1,46.7h110.6l11.5-20.1c0.7-1.2-0.2-2.6-1.5-2.6C143.7,24,36,24,36,24z"/>
<path class="st1" d="M153.2,50.1v45.5H49V50.1H153.2z"/>
<path class="st2" d="M48.3,95.2l-18.9-9.5V40.2l8.7-14.3c0.5-0.8,1.6-0.7,1.9,0.2l8.9,24v44.7C49,95.1,48.6,95.4,48.3,95.2z"/>
<path class="st3" d="M49,50.1l-19.6-9.9"/>
<path class="st4" d="M159.5,59.8L146.6,24H36l13,35.8H159.5z"/>
<path class="st3" d="M153.2,56.6h-22.9"/>
<path class="st3" d="M146.7,53.3h-26.1"/>
<path class="st3" d="M89.7,51.7H75.1"/>
<path class="st3" d="M78.3,53.3h-13"/>
<path class="st3" d="M68.6,33.7H52.2"/>
<path class="st3" d="M65.2,32.1h13"/>
<path class="st3" d="M70.1,28.9H58.7"/>
<path class="st3" d="M94.5,30.5h29.3"/>
<path class="st3" d="M122.2,33.7h14.6"/>
<path class="st3" d="M110.9,35.4H99.4"/>
<path class="st3" d="M101,37h-8.1"/>
<path class="st3" d="M112.5,48.5h-8.1"/>
<path class="st3" d="M58.7,48.5h-6.5"/>
<path class="st3" d="M91.3,56.6h8.1"/>
<path class="st3" d="M145.1,38.6h4.8"/>
<path class="st3" d="M143.3,27.2h-9.7"/>
<path class="st5" d="M134,45.7l-2-5.5h-4.9v1l2,5.5h4.9V45.7z"/>
<path class="st5" d="M108,45.7l-1.9-5.5H101v1l2,5.5h4.9L108,45.7L108,45.7z"/>
<path class="st5" d="M82,45.7l-2-5.5h-4.9v1l1.9,5.5h5V45.7z"/>
<path class="st3" d="M134,45.7h-4.9l-2-5.5"/>
<path class="st3" d="M108,45.7h-5l-2-5.5"/>
<path class="st3" d="M82,45.7h-5l-1.9-5.5"/>
<path class="st6" d="M120.6,14.3h-3.3v30.9h3.3V14.3z"/>
<path class="st7" d="M119.4,14.3h-1v30.9h1V14.3z"/>
<path class="st8" d="M139.8,64.7h-15.4V95h15.4V64.7z"/>
<path class="st9" d="M77.1,64.7H62v15.1h15.1V64.7z"/>
<path class="st9" d="M95.4,64.7H80.1v15.1h15.2V64.7H95.4z"/>
<path class="st9" d="M113.6,64.7H98.4v15.1h15.2V64.7z"/>
<path class="st9" d="M138.1,66.1h-12.2v12.2h12.2V66.1z"/>
<path class="st9" d="M44.6,60.8l-5.1-2.6v15.2l5.1,2.6V60.8z"/>
<path class="st9" d="M38.6,57.7l-5.1-2.5v15.1l5.1,2.5V57.7z"/>
<path class="st10" d="M35.7,65.6l1.2,4.5l-1.4-4.5l-1-4.5L35.7,65.6z"/>
<path class="st10" d="M38.6,57.9v4.6l-5.1-6.6v-0.4L38.6,57.9z"/>
<path class="st10" d="M44.5,60.9v4.6l-4.9-6.6v-0.4L44.5,60.9z"/>
<path class="st10" d="M41.7,68.8l1.2,4.5l-1.4-4.6l-1-4.5L41.7,68.8z"/>
<path class="st10" d="M77.1,64.8v4.6l-14.9-4.2v-0.4H77.1z"/>
<path class="st10" d="M95.2,64.8v4.6l-14.9-4.2v-0.4H95.2z"/>
<path class="st10" d="M113.5,64.8v4.6l-14.9-4.2v-0.4H113.5z"/>
<path class="st10" d="M138,66.3v3.6l-11.7-3.2v-0.4H138z"/>
<path class="st10" d="M68.4,74l3.6,3.9l-4.5-3.8L64.3,70L68.4,74z"/>
<path class="st10" d="M86.7,74l3.5,3.9l-4.5-3.8l-3-4.1L86.7,74z"/>
<path class="st10" d="M104.9,74l3.5,3.9l-4.5-3.8l-3-4.1L104.9,74z"/>
<path class="st10" d="M131.1,73.7l2.9,3l-3.6-3l-2.5-3.2L131.1,73.7z"/>
<path class="st11" d="M66.7,78.2l-1.9-1.6l-1.3-1.9l1.9,2L66.7,78.2z"/>
<path class="st11" d="M74.6,78.2L69,73.7l-3.5-5.5l5.4,5.8L74.6,78.2z"/>
<path class="st11" d="M66.5,65.7l3.9,3.3l2.6,3.9l-3.8-4.2L66.5,65.7z"/>
<path class="st11" d="M84.8,65.7l3.9,3.3l2.6,3.9l-3.9-4.2L84.8,65.7z"/>
<path class="st11" d="M92.9,78.2l-5.7-4.5l-3.5-5.5l5.4,5.8L92.9,78.2z"/>
<path class="st11" d="M84.9,78.2l-2-1.6l-1.3-1.9l1.9,2L84.9,78.2z"/>
<path class="st11" d="M103,78.2l-1.9-1.6l-1.3-1.9l1.9,2L103,78.2z"/>
<path class="st11" d="M111,78.2l-5.5-4.5l-3.5-5.5l5.2,5.8L111,78.2z"/>
<path class="st11" d="M103,65.7l3.9,3.3l2.6,3.9l-3.9-4.2L103,65.7z"/>
<path class="st11" d="M129.8,77l-1.6-1.3l-1-1.6l1.4,1.7L129.8,77z"/>
<path class="st11" d="M136.1,77l-4.3-3.6l-2.9-4.5l4.3,4.8L136.1,77z"/>
<path class="st11" d="M129.7,67l3.2,2.6l1.9,3.2l-3-3.3L129.7,67z"/>
<path class="st11" d="M35.1,57l1.3,3.9l0.7,4.5L36,60.6L35.1,57z"/>
<path class="st11" d="M37.7,70.8l-1.9-5.4l-1.2-6.1l1.9,6.7L37.7,70.8z"/>
<path class="st11" d="M35.1,69.5l-0.7-1.9l-0.3-2.2l0.6,2.3L35.1,69.5z"/>
<path class="st11" d="M41.2,72.5l-0.7-1.9l-0.3-2.2l0.6,2.3L41.2,72.5z"/>
<path class="st11" d="M43.8,73.8l-1.9-5.4l-1.2-6.2l1.9,6.8L43.8,73.8z"/>
<path class="st11" d="M41.2,60.1l1.3,4.1l0.7,4.3l-1.2-5L41.2,60.1z"/>
<path class="st12" d="M37.5,61.7l-1-3"/>
<path class="st12" d="M38,64.1l-0.9-2.8"/>
<path class="st12" d="M44.1,67l-0.9-2.6"/>
<path class="st12" d="M43.6,64.7l-1-3"/>
<path class="st12" d="M136.9,71.4l-2.3-1.7"/>
<path class="st12" d="M135.8,69.6l-2.6-2"/>
<path class="st12" d="M112,71.2l-2.9-2.2"/>
<path class="st12" d="M110.6,69l-3.2-2.5"/>
<path class="st12" d="M93.8,71.2L91,69"/>
<path class="st12" d="M92.3,69l-3-2.5"/>
<path class="st12" d="M75.7,71.2L72.8,69"/>
<path class="st12" d="M74.2,69L71,66.6"/>
<circle class="st13" cx="138.1" cy="80.5" r="0.7"/>
<path class="st11" d="M138.8,80.2l-0.4-0.3l-0.1,0.3v0.1h0.1L138.8,80.2L138.8,80.2z"/>
<path class="st12" d="M39.6,58.2v15.2l5.1,2.6"/>
<path class="st12" d="M33.5,55.3v15.1l5.1,2.5"/>
<path class="st12" d="M62,64.7v15.1h15.1"/>
<path class="st12" d="M80.1,64.7v15.1h15.2"/>
<path class="st12" d="M98.4,64.7v15.1h15.2"/>
<path class="st12" d="M125.9,66.1v12.2h12.2"/>
<path class="st3" d="M38.6,73V57.7l-5.1-2.5"/>
<path class="st3" d="M44.6,76V60.8l-5.1-2.5"/>
<path class="st3" d="M77.1,79.8V64.6H62"/>
<path class="st3" d="M95.4,79.8V64.6H80.3"/>
<path class="st3" d="M113.6,79.8V64.6H98.4"/>
<path class="st3" d="M138.1,78.3V66.1h-12.2"/>
</svg>
