<?xml version="1.0" encoding="utf-8"?>
<!-- Generator: Adobe Illustrator 16.0.0, SVG Export Plug-In . SVG Version: 6.00 Build 0)  -->
<!DOCTYPE svg PUBLIC "-//W3C//DTD SVG 1.1//EN" "http://www.w3.org/Graphics/SVG/1.1/DTD/svg11.dtd">
<svg version="1.1" id="图层_1" xmlns="http://www.w3.org/2000/svg" xmlns:xlink="http://www.w3.org/1999/xlink" x="0px" y="0px"
	 width="100px" height="100px" viewBox="0 0 100 100" enable-background="new 0 0 100 100" xml:space="preserve">
<g>
	<polygon fill="#AD8D76" points="98.242,72.141 58.773,92.934 58.773,72.099 98.242,56.012 	"/>
	<polygon fill="#AD8D76" points="65.334,45.705 29.414,55.969 29.46,37.078 65.334,26.701 	"/>
	<g>
		<g>
			<g>
				<polygon fill="#3C1908" points="29.008,53.563 21.452,50.259 21.452,25.103 29.008,27.314 				"/>
			</g>
		</g>
	</g>
	<g>
		<g>
			<g>
				<polygon fill="#BF9C82" points="14.515,69.847 3.776,64.258 3.772,33.041 8.698,27.469 14.515,37.078 				"/>
			</g>
		</g>
	</g>
	<g>
		<g>
			<g>
				<polygon fill="#BF9C82" points="29.384,77.583 10.356,67.682 10.38,30.236 19.043,21.809 29.414,36.17 				"/>
			</g>
		</g>
	</g>
	<g>
		<g>
			<g>
				<g>
					<g>
						<g>
							<polygon fill="#E0B799" points="6.125,43.727 6.125,35.529 11.406,37.375 11.406,45.819 							"/>
						</g>
					</g>
				</g>
			</g>
		</g>
		<g>
			<g>
				<g>
					<g>
						<g>
							<polygon fill="#81B8A3" points="6.68,42.915 6.68,36.756 10.822,38.227 10.822,44.532 							"/>
						</g>
					</g>
				</g>
				<g>
					<g>
						<g>
							<path fill="#FFFFFF" d="M11.016,44.959l-4.521-1.773v-6.839l4.521,1.598V44.959z M6.865,42.643l3.762,1.461V38.51
								l-3.762-1.344V42.643z"/>
						</g>
					</g>
				</g>
			</g>
			<g>
				<g>
					<g>
						<g>
							<polygon fill="#FFFFFF" points="8.787,37.198 8.547,37.114 8.547,43.644 8.787,43.738 							"/>
						</g>
					</g>
				</g>
			</g>
		</g>
	</g>
	<g>
		<g>
			<g>
				<g>
					<g>
						<g>
							<polygon fill="#E0B799" points="17.877,48.383 17.877,39.636 23.902,41.743 23.902,50.77 							"/>
						</g>
					</g>
				</g>
			</g>
		</g>
		<g>
			<g>
				<g>
					<g>
						<g>
							<polygon fill="#81B8A3" points="18.509,47.532 18.509,40.959 23.233,42.638 23.233,49.378 							"/>
						</g>
					</g>
				</g>
				<g>
					<g>
						<g>
							<path fill="#FFFFFF" d="M23.456,49.841l-5.159-2.024v-7.298l5.159,1.822V49.841z M18.72,47.247l4.292,1.668v-5.98
								l-4.292-1.533V47.247z"/>
						</g>
					</g>
				</g>
			</g>
			<g>
				<g>
					<g>
						<g>
							<polygon fill="#FFFFFF" points="20.91,41.487 20.637,41.39 20.637,48.362 20.91,48.471 							"/>
						</g>
					</g>
				</g>
			</g>
		</g>
	</g>
	<g>
		<g>
			<g>
				<g>
					<g>
						<g>
							<polygon fill="#E0B799" points="23.005,69.772 23.005,61.612 26.896,63.382 26.896,71.706 							"/>
						</g>
					</g>
				</g>
			</g>
		</g>
		<g>
			<g>
				<g>
					<g>
						<g>
							<polygon fill="#81B8A3" points="23.671,68.972 23.671,63.047 26.208,64.216 26.208,70.219 							"/>
						</g>
					</g>
				</g>
				<g>
					<g>
						<g>
							<path fill="#FFFFFF" d="M26.437,70.713l-2.988-1.474v-6.671l2.988,1.369V70.713z M23.895,68.704l2.084,1.021v-5.232
								l-2.084-0.964V68.704z"/>
						</g>
					</g>
				</g>
			</g>
			<g>
				<g>
					<g>
						<g>
							<polygon fill="#FFFFFF" points="24.968,63.352 24.821,63.285 24.821,69.537 24.968,69.61 							"/>
						</g>
					</g>
				</g>
			</g>
			<g>
				<g>
					<g>
						<g>
							<polygon fill="#FFFFFF" points="26.208,66.47 26.208,66.219 23.671,65.025 23.671,65.271 							"/>
						</g>
					</g>
				</g>
			</g>
			<g>
				<g>
					<g>
						<g>
							<polygon fill="#FFFFFF" points="26.208,68.386 26.208,68.137 23.671,66.917 23.671,67.164 							"/>
						</g>
					</g>
				</g>
			</g>
		</g>
	</g>
	<g>
		<g>
			<g>
				<g>
					<g>
						<g>
							<g>
								<polygon fill="#E0B799" points="14.901,69.816 14.901,57.777 20.046,60.111 20.046,72.486 								"/>
							</g>
						</g>
					</g>
				</g>
			</g>
		</g>
		<g>
			<g>
				<g>
					<g>
						<polygon fill="#81B8A3" points="15.512,69.049 15.512,59.139 19.405,60.926 19.405,71.048 						"/>
					</g>
				</g>
				<g>
					<g>
						<path fill="#FFFFFF" d="M19.618,71.526l-4.311-2.222v-10.62l4.311,1.971V71.526z M15.717,68.794l3.475,1.776v-9.372
							l-3.475-1.604V68.794z"/>
					</g>
				</g>
			</g>
			<g>
				<g>
					<g>
						<polygon fill="#FFFFFF" points="17.582,59.963 17.295,59.831 17.295,69.964 17.582,70.112 						"/>
					</g>
				</g>
			</g>
			<g>
				<g>
					<g>
						<polygon fill="#FFFFFF" points="19.405,71.048 15.512,69.049 15.512,64.094 19.405,65.987 						"/>
					</g>
				</g>
			</g>
		</g>
	</g>
	<g>
		<g>
			<g>
				<g>
					<g>
						<g>
							<polygon fill="#E0B799" points="6.125,61.97 6.125,53.773 11.406,56.168 11.406,64.611 							"/>
						</g>
					</g>
				</g>
			</g>
		</g>
		<g>
			<g>
				<g>
					<g>
						<g>
							<polygon fill="#81B8A3" points="6.68,61.216 6.68,55.056 10.822,56.959 10.822,63.263 							"/>
						</g>
					</g>
				</g>
				<g>
					<g>
						<g>
							<path fill="#FFFFFF" d="M11.016,63.712l-4.521-2.245v-6.84l4.521,2.068V63.712z M6.865,60.962l3.762,1.854v-5.595
								l-3.762-1.734V60.962z"/>
						</g>
					</g>
				</g>
			</g>
			<g>
				<g>
					<g>
						<g>
							<polygon fill="#FFFFFF" points="8.787,55.718 8.547,55.608 8.547,62.139 8.787,62.257 							"/>
						</g>
					</g>
				</g>
			</g>
		</g>
	</g>
	<g>
		<g>
			<g>
				<polygon fill="#B2B2B2" points="7.118,30.409 11.453,37.549 11.453,40.051 13.67,40.959 14.715,38.024 8.547,28.297 				"/>
			</g>
		</g>
	</g>
	<g>
		<g>
			<g>
				<polygon fill="#B2B2B2" points="17.422,24.028 26.208,37.185 26.208,39.891 28.517,40.675 30.031,37.691 19.025,21.737 				"/>
			</g>
		</g>
	</g>
	<g>
		<g>
			<g>
				<polygon fill="#A53C24" points="14.515,69.847 13.719,69.432 13.719,37.111 14.515,37.384 				"/>
			</g>
		</g>
	</g>
	<g>
		<g>
			<g>
				<polygon fill="#A53C24" points="29.446,77.615 28.517,77.131 28.517,36.623 29.446,36.916 				"/>
			</g>
		</g>
	</g>
	<g>
		<g>
			<g>
				<polygon fill="#A53C24" points="14.515,39.045 14.516,37.696 8.913,28.042 8.485,28.523 				"/>
			</g>
		</g>
	</g>
	<g>
		<g>
			<g>
				<polygon fill="#A53C24" points="11.116,32.039 10.181,31.058 19.214,21.852 19.596,22.949 				"/>
			</g>
		</g>
	</g>
	<g>
		<g>
			<g>
				<polygon fill="#A53C24" points="4.487,64.628 3.776,64.258 3.776,33.694 4.487,33.938 				"/>
			</g>
		</g>
	</g>
	<g>
		<g>
			<g>
				<polygon fill="#A53C24" points="29.412,38.676 29.415,37.218 19.184,21.776 18.899,22.78 				"/>
			</g>
		</g>
	</g>
	<g>
		<g>
			<g>
				<polygon fill="#A53C24" points="14.034,52.796 4.193,48.577 4.193,47.23 14.034,51.372 				"/>
			</g>
		</g>
	</g>
	<polygon fill="#2C1308" points="17.941,23.356 9.773,31.576 8.962,29.325 16.743,21.737 	"/>
	<g>
		<g>
			<g>
				<polygon fill="#732C1B" points="8.485,30.391 7.773,30.227 16.743,20.809 16.743,21.921 				"/>
			</g>
		</g>
	</g>
	<g>
		<g>
			<g>
				<polygon fill="#B2B2B2" points="28.517,66.972 11.618,59.048 12.623,49.88 28.517,63.399 				"/>
			</g>
		</g>
	</g>
	<g>
		<g>
			<g>
				<polygon fill="#732C1B" points="27.009,37.403 27.339,36.483 16.746,20.809 16.392,21.393 				"/>
			</g>
		</g>
	</g>
	<g>
		<g>
			<g>
				<polygon fill="#732C1B" points="26.488,39.416 28.779,40.168 28.775,38.595 26.5,35.246 				"/>
			</g>
		</g>
	</g>
	<g>
		<g>
			<g>
				<polygon fill="#3C1908" points="31.184,63.27 12.623,55.024 12.623,49.88 31.184,57.599 				"/>
			</g>
		</g>
	</g>
	<g>
		<g>
			<g>
				<polygon fill="#3C1908" points="31.184,64.094 9.988,54.934 12.586,49.88 31.146,57.599 				"/>
			</g>
		</g>
	</g>
	<g>
		<g>
			<g>
				<polygon fill="#A53C24" points="30.618,63.834 9.988,54.934 9.984,56.574 30.618,65.166 				"/>
			</g>
		</g>
	</g>
	<g>
		<g>
			<g>
				<polygon fill="#BF9C82" points="57.771,92.438 28.611,77.256 28.611,58.377 42.378,46.428 57.771,70.114 				"/>
			</g>
		</g>
	</g>
	<g>
		<g>
			<g>
				<polygon fill="#A53C24" points="58.183,72.236 28.611,59.493 28.611,58.377 58.183,70.952 				"/>
			</g>
		</g>
	</g>
	<g>
		<g>
			<g>
				<polygon fill="#A53C24" points="28.911,77.387 28.151,76.991 28.151,57.604 28.911,57.925 				"/>
			</g>
		</g>
	</g>
	<g>
		<g>
			<g>
				<polygon fill="#A53C24" points="58.773,92.934 57.771,92.411 57.771,70.114 58.773,70.538 				"/>
			</g>
		</g>
	</g>
	<g>
		<g>
			<g>
				<polygon fill="#732C1B" points="26.126,60.062 23.802,59.054 23.802,57.811 26.126,55.807 				"/>
			</g>
		</g>
	</g>
	<g>
		<g>
			<g>
				<polygon fill="#B74421" points="53.354,77.188 32.165,67.389 32.165,65.734 53.354,75.36 				"/>
			</g>
		</g>
		<g>
			<g>
				<path fill="#75221B" d="M53.502,77.477L32.044,67.53v-2.048l21.458,9.728V77.477z M32.287,67.248l20.918,9.654V75.51
					l-20.918-9.522V67.248z"/>
			</g>
		</g>
	</g>
	<g>
		<g>
			<g>
				<polygon fill="#B74421" points="53.354,78.967 32.165,68.997 32.165,67.342 53.354,77.137 				"/>
			</g>
		</g>
		<g>
			<g>
				<path fill="#75221B" d="M53.502,79.253L32.044,69.137v-2.048l21.458,9.899V79.253z M32.287,68.856l20.918,9.821v-1.393
					l-20.918-9.689V68.856z"/>
			</g>
		</g>
	</g>
	<g>
		<g>
			<g>
				<polygon fill="#B74421" points="53.354,80.795 32.165,70.652 32.165,68.997 53.354,78.967 				"/>
			</g>
		</g>
		<g>
			<g>
				<path fill="#75221B" d="M53.502,81.085L32.044,70.791v-2.048l21.458,10.075V81.085z M32.287,70.513l20.918,9.993v-1.392
					l-20.918-9.862V70.513z"/>
			</g>
		</g>
	</g>
	<g>
		<g>
			<g>
				<polygon fill="#B74421" points="53.354,82.625 32.165,72.309 32.165,70.652 53.354,80.795 				"/>
			</g>
		</g>
		<g>
			<g>
				<path fill="#75221B" d="M53.502,82.915L32.044,72.444v-2.048l21.458,10.252V82.915z M32.287,72.169l20.918,10.166v-1.393
					L32.287,70.907V72.169z"/>
			</g>
		</g>
	</g>
	<g>
		<g>
			<g>
				<polygon fill="#B74421" points="53.354,84.454 32.165,73.963 32.165,72.309 53.354,82.625 				"/>
			</g>
		</g>
		<g>
			<g>
				<path fill="#75221B" d="M53.502,84.745L32.044,74.1v-2.048l21.458,10.427V84.745z M32.287,73.825l20.918,10.338V82.77
					L32.287,72.563V73.825z"/>
			</g>
		</g>
	</g>
	<g>
		<g>
			<g>
				<polygon fill="#B74421" points="53.354,86.284 32.165,75.618 32.165,73.963 53.354,84.454 				"/>
			</g>
		</g>
		<g>
			<g>
				<path fill="#75221B" d="M53.502,86.576L32.044,75.754v-2.049L53.502,84.31V86.576z M32.287,75.482l20.918,10.509v-1.394
					L32.287,74.22V75.482z"/>
			</g>
		</g>
	</g>
	<g>
		<g>
			<g>
				<polygon fill="#B74421" points="53.354,88.061 32.165,77.226 32.165,75.571 53.354,86.23 				"/>
			</g>
		</g>
		<g>
			<g>
				<path fill="#75221B" d="M53.502,88.354L32.044,77.362v-2.049l21.458,10.775V88.354z M32.287,77.092l20.918,10.677v-1.394
					L32.287,75.829V77.092z"/>
			</g>
		</g>
	</g>
	<g>
		<g>
			<g>
				<polygon fill="#B74421" points="53.354,89.891 32.165,78.881 32.165,77.226 53.354,88.061 				"/>
			</g>
		</g>
		<g>
			<g>
				<path fill="#75221B" d="M53.502,90.185L32.044,79.016v-2.048L53.502,87.92V90.185z M32.287,78.748l20.918,10.848v-1.393
					L32.287,77.485V78.748z"/>
			</g>
		</g>
	</g>
	<g>
		<g>
			<g>
				<polygon fill="#8C3422" points="53.782,75.662 31.815,65.672 31.815,64.534 53.782,74.401 				"/>
			</g>
		</g>
	</g>
	<g>
		<g>
			<g>
				<polygon fill="#8C3422" points="31.815,78.951 31.815,64.534 32.517,64.851 32.517,79.317 				"/>
			</g>
		</g>
	</g>
	<g>
		<g>
			<g>
				<polygon fill="#8C3422" points="52.926,89.945 52.926,74.017 53.782,74.401 53.782,90.393 				"/>
			</g>
		</g>
	</g>
	<g>
		<g>
			<g>
				<polygon fill="#A53C24" points="28.616,58.75 28.151,57.563 42.371,45.32 42.852,46.606 				"/>
			</g>
		</g>
	</g>
	<g>
		<g>
			<g>
				<polygon fill="#A53C24" points="58.183,71.378 58.799,70.502 42.371,45.32 41.768,45.84 				"/>
			</g>
		</g>
	</g>
	<polygon fill="#B2B2B2" points="42.378,45.684 41.105,47.194 40.573,46.428 28.151,57.604 28.13,60.031 40.792,49.295 
		54.146,70.845 54.146,74.914 58.773,76.638 59.048,71.748 	"/>
	<g>
		<g>
			<g>
				<polygon fill="#732C1B" points="57.457,72.319 58.272,71.634 39.958,43.788 39.483,44.756 				"/>
			</g>
		</g>
	</g>
	<g>
		<g>
			<g>
				<polygon fill="#732C1B" points="11.629,39.513 13.67,40.24 13.67,38.967 11.629,35.571 				"/>
			</g>
		</g>
	</g>
	<g>
		<g>
			<g>
				<polygon fill="#732C1B" points="1.79,35.67 0,35.036 0,33.944 1.79,31.939 				"/>
			</g>
		</g>
	</g>
	<g>
		<g>
			<g>
				<polygon fill="#732C1B" points="1.149,34.058 0.794,33.072 6.408,26.725 6.75,27.771 				"/>
			</g>
		</g>
	</g>
	<g>
		<g>
			<g>
				<polygon fill="#732C1B" points="12.528,38.581 13.118,37.708 6.417,26.727 5.99,27.209 				"/>
			</g>
		</g>
	</g>
	<g>
		<g>
			<g>
				<g>
					<g>
						<g>
							<polygon fill="#E0B799" points="63.791,84.059 63.791,73.637 71.781,70.037 71.781,80.085 							"/>
						</g>
					</g>
				</g>
			</g>
		</g>
		<g>
			<g>
				<g>
					<g>
						<g>
							<polygon fill="#81B8A3" points="64.682,82.313 64.682,74.539 70.947,71.678 70.947,79.234 							"/>
						</g>
					</g>
				</g>
				<g>
					<g>
						<g>
							<path fill="#FFFFFF" d="M71.225,79.52l-6.84,3.375v-8.656l6.84-3.107V79.52z M64.976,81.734l5.691-2.786v-6.72l-5.691,2.609
								V81.734z"/>
						</g>
					</g>
				</g>
			</g>
			<g>
				<g>
					<g>
						<g>
							<polygon fill="#FFFFFF" points="67.95,72.67 67.587,72.836 67.587,80.885 67.95,80.706 							"/>
						</g>
					</g>
				</g>
			</g>
		</g>
	</g>
	<g>
		<g>
			<g>
				<g>
					<g>
						<g>
							<polygon fill="#E0B799" points="87.922,72.06 87.922,62.766 94.3,59.893 94.3,68.888 							"/>
						</g>
					</g>
				</g>
			</g>
		</g>
		<g>
			<g>
				<g>
					<g>
						<g>
							<polygon fill="#81B8A3" points="88.629,70.546 88.629,63.608 93.632,61.325 93.632,68.087 							"/>
						</g>
					</g>
				</g>
				<g>
					<g>
						<g>
							<path fill="#FFFFFF" d="M93.855,68.354l-5.462,2.694v-7.721l5.462-2.481V68.354z M88.863,70.042l4.545-2.225v-6.013
								l-4.545,2.084V70.042z"/>
						</g>
					</g>
				</g>
			</g>
			<g>
				<g>
					<g>
						<g>
							<polygon fill="#FFFFFF" points="91.235,62.084 90.945,62.215 90.945,69.407 91.235,69.265 							"/>
						</g>
					</g>
				</g>
			</g>
		</g>
	</g>
	<polygon fill="#B8B7B8" points="98.242,59.291 58.799,76.777 58.799,72.67 98.242,56.012 	"/>
	<polygon fill="#3C1908" points="7.323,29.527 3.776,33.277 3.776,35.002 1.79,35.67 1.79,33.339 6.484,28.068 	"/>
	<polygon fill="#3C1908" points="7.323,29.527 3.776,33.277 3.776,35.002 1.79,35.67 1.79,33.339 6.484,28.068 	"/>
	<g>
		<g>
			<g>
				<polygon fill="#732C1B" points="56.06,73.284 59.219,74.657 59.219,73.073 56.06,68.386 				"/>
			</g>
		</g>
	</g>
	<polygon fill="#1B0F07" points="40.89,46.685 28.151,57.604 28.13,59.069 26.126,60.062 26.126,57.119 39.961,45.489 	"/>
	<g>
		<g>
			<g>
				<polygon fill="#732C1B" points="24.951,58.403 24.491,57.226 39.966,43.789 40.442,45.076 				"/>
			</g>
		</g>
	</g>
	<polygon fill="#3C1908" points="15.112,39.636 13.67,40.24 13.67,38.967 15.112,38.248 	"/>
	<polygon fill="#7D2F1E" points="67.07,28.297 28.779,40.168 28.775,38.595 67.07,26.907 	"/>
	<polygon fill="#3C1908" points="15.112,38.248 13.67,38.967 6.408,26.725 8.188,26.406 11.985,25.804 9.416,28.505 	"/>
	<polygon fill="#3C1908" points="67.07,26.945 28.775,38.595 16.743,20.809 48.878,10.809 	"/>
	<polygon fill="#3C1908" points="99.172,56.012 59.219,73.073 39.958,43.788 78.714,31.576 	"/>
	<polygon fill="#7D2F1E" points="99.172,57.596 59.219,74.657 59.219,73.073 99.172,56.012 	"/>
	<g>
		<g>
			<polygon fill="#D8C5AB" points="40.997,25.103 37.708,21.316 37.708,10.87 40.997,12.176 			"/>
		</g>
		<polygon fill="#D1C1A7" points="44.072,23.789 40.997,25.103 40.997,12.176 44.072,10.928 		"/>
		<polygon fill="#C9B79E" points="44.072,10.928 40.997,12.176 37.708,10.87 40.85,9.83 		"/>
		<polygon fill="#220908" points="42.796,11.003 40.889,11.587 38.866,10.877 40.696,10.28 		"/>
	</g>
</g>
</svg>
