<svg xmlns="http://www.w3.org/2000/svg" xmlns:xlink="http://www.w3.org/1999/xlink" viewBox="0 0 47.6 150">
    <defs>
        <style>
            .cls-1 {
                opacity: 0.5;
            }

            .cls-2,
            .cls-3,
            .cls-4,
            .cls-48,
            .cls-49,
            .cls-5,
            .cls-50,
            .cls-51,
            .cls-52,
            .cls-53,
            .cls-54,
            .cls-55,
            .cls-6,
            .cls-7,
            .cls-8,
            .cls-9 {
                fill: none;
                stroke-linecap: round;
                stroke-miterlimit: 10;
                stroke-width: 0.25px;
            }

            .cls-2 {
                stroke: url(#未命名的渐变_397);
            }

            .cls-3 {
                stroke: url(#未命名的渐变_397-2);
            }

            .cls-4 {
                stroke: url(#未命名的渐变_397-3);
            }

            .cls-5 {
                stroke: url(#未命名的渐变_397-4);
            }

            .cls-6 {
                stroke: url(#未命名的渐变_397-5);
            }

            .cls-7 {
                stroke: url(#未命名的渐变_397-6);
            }

            .cls-8 {
                stroke: url(#未命名的渐变_397-7);
            }

            .cls-9 {
                stroke: url(#未命名的渐变_397-8);
            }

            .cls-10 {
                fill: url(#未命名的渐变_397-9);
            }

            .cls-11 {
                fill: url(#未命名的渐变_397-10);
            }

            .cls-12,
            .cls-41,
            .cls-42,
            .cls-43,
            .cls-44 {
                opacity: 0.4;
            }

            .cls-12 {
                fill: url(#未命名的渐变_376);
            }

            .cls-13 {
                fill: url(#未命名的渐变_62);
            }

            .cls-14 {
                fill: url(#未命名的渐变_62-2);
            }

            .cls-15 {
                fill: url(#未命名的渐变_62-3);
            }

            .cls-16 {
                fill: url(#未命名的渐变_62-4);
            }

            .cls-17 {
                fill: url(#未命名的渐变_62-5);
            }

            .cls-18 {
                fill: url(#未命名的渐变_62-6);
            }

            .cls-19 {
                fill: url(#未命名的渐变_306);
            }

            .cls-20 {
                fill: url(#未命名的渐变_62-7);
            }

            .cls-21 {
                fill: url(#未命名的渐变_62-8);
            }

            .cls-22 {
                fill: url(#未命名的渐变_62-9);
            }

            .cls-23 {
                fill: url(#未命名的渐变_62-10);
            }

            .cls-24 {
                fill: url(#未命名的渐变_62-11);
            }

            .cls-25 {
                fill: url(#未命名的渐变_62-12);
            }

            .cls-26 {
                fill: url(#未命名的渐变_306-2);
            }

            .cls-27 {
                fill: url(#未命名的渐变_62-13);
            }

            .cls-28 {
                fill: url(#未命名的渐变_62-14);
            }

            .cls-29 {
                fill: url(#未命名的渐变_62-15);
            }

            .cls-30 {
                fill: url(#未命名的渐变_62-16);
            }

            .cls-31 {
                fill: url(#未命名的渐变_62-17);
            }

            .cls-32 {
                fill: url(#未命名的渐变_62-18);
            }

            .cls-33 {
                fill: url(#未命名的渐变_306-3);
            }

            .cls-34 {
                fill: url(#未命名的渐变_62-19);
            }

            .cls-35 {
                fill: url(#未命名的渐变_62-20);
            }

            .cls-36 {
                fill: url(#未命名的渐变_62-21);
            }

            .cls-37 {
                fill: url(#未命名的渐变_62-22);
            }

            .cls-38 {
                fill: url(#未命名的渐变_62-23);
            }

            .cls-39 {
                fill: url(#未命名的渐变_62-24);
            }

            .cls-40 {
                fill: url(#未命名的渐变_306-4);
            }

            .cls-41 {
                fill: url(#未命名的渐变_376-2);
            }

            .cls-42 {
                fill: url(#未命名的渐变_376-3);
            }

            .cls-43 {
                fill: url(#未命名的渐变_376-4);
            }

            .cls-44 {
                fill: url(#未命名的渐变_376-5);
            }

            .cls-45 {
                fill: url(#未命名的渐变_306-5);
            }

            .cls-46 {
                fill: url(#未命名的渐变_6);
            }

            .cls-47 {
                fill: url(#未命名的渐变_306-6);
            }

            .cls-48 {
                stroke: url(#未命名的渐变_397-11);
            }

            .cls-49 {
                stroke: url(#未命名的渐变_397-12);
            }

            .cls-50 {
                stroke: url(#未命名的渐变_397-13);
            }

            .cls-51 {
                stroke: url(#未命名的渐变_397-14);
            }

            .cls-52 {
                stroke: url(#未命名的渐变_397-15);
            }

            .cls-53 {
                stroke: url(#未命名的渐变_397-16);
            }

            .cls-54 {
                stroke: url(#未命名的渐变_397-17);
            }

            .cls-55 {
                stroke: url(#未命名的渐变_397-18);
            }

            .cls-56 {
                fill: url(#未命名的渐变_62-25);
            }

            .cls-57 {
                fill: url(#未命名的渐变_62-26);
            }

            .cls-58 {
                fill: url(#未命名的渐变_62-27);
            }

            .cls-59 {
                fill: url(#未命名的渐变_62-28);
            }

            .cls-60 {
                fill: url(#未命名的渐变_62-29);
            }

            .cls-61 {
                fill: url(#未命名的渐变_62-30);
            }

            .cls-62 {
                fill: url(#未命名的渐变_306-7);
            }

            .cls-63 {
                fill: url(#未命名的渐变_306-8);
            }

            .cls-64 {
                opacity: 0.2;
            }
        </style>
        <linearGradient id="未命名的渐变_397" x1="15.9" y1="117.85" x2="35.71" y2="117.85" gradientUnits="userSpaceOnUse">
            <stop offset="0" stop-color="#767b82" />
            <stop offset="0.07" stop-color="#9ba1ab" />
            <stop offset="0.22" stop-color="#e2eaf2" />
            <stop offset="0.28" stop-color="#d1d8e0" />
            <stop offset="0.49" stop-color="#a1a7ae" />
            <stop offset="0.67" stop-color="#7e8489" />
            <stop offset="0.81" stop-color="#696e73" />
            <stop offset="0.91" stop-color="#61666b" />
            <stop offset="1" stop-color="#a9b1bb" />
        </linearGradient>
        <linearGradient id="未命名的渐变_397-2" x1="8.5" y1="117.85" x2="28.31" y2="117.85"
            gradientTransform="matrix(-1, 0, 0, 1, 44.21, 0)" xlink:href="#未命名的渐变_397" />
        <linearGradient id="未命名的渐变_397-3" x1="15.9" y1="88.68" x2="35.71" y2="88.68" xlink:href="#未命名的渐变_397" />
        <linearGradient id="未命名的渐变_397-4" x1="8.5" y1="88.68" x2="28.31" y2="88.68"
            gradientTransform="matrix(-1, 0, 0, 1, 44.21, 0)" xlink:href="#未命名的渐变_397" />
        <linearGradient id="未命名的渐变_397-5" x1="15.9" y1="59.51" x2="35.71" y2="59.51" xlink:href="#未命名的渐变_397" />
        <linearGradient id="未命名的渐变_397-6" x1="8.5" y1="59.51" x2="28.31" y2="59.51"
            gradientTransform="matrix(-1, 0, 0, 1, 44.21, 0)" xlink:href="#未命名的渐变_397" />
        <linearGradient id="未命名的渐变_397-7" x1="15.9" y1="23.01" x2="35.71" y2="23.01" xlink:href="#未命名的渐变_397" />
        <linearGradient id="未命名的渐变_397-8" x1="8.5" y1="23.01" x2="28.31" y2="23.01"
            gradientTransform="matrix(-1, 0, 0, 1, 44.21, 0)" xlink:href="#未命名的渐变_397" />
        <linearGradient id="未命名的渐变_397-9" x1="106.7" y1="164.73" x2="92.94" y2="164.73"
            gradientTransform="translate(-74 -76)" xlink:href="#未命名的渐变_397" />
        <linearGradient id="未命名的渐变_397-10" x1="102.35" y1="89.8" x2="97.29" y2="89.8"
            gradientTransform="translate(-74 -76)" xlink:href="#未命名的渐变_397" />
        <linearGradient id="未命名的渐变_376" x1="25.82" y1="27.51" x2="25.82" y2="37.17" gradientUnits="userSpaceOnUse">
            <stop offset="0" stop-color="#2e3033" />
            <stop offset="1" stop-color="#9ba1ab" stop-opacity="0" />
        </linearGradient>
        <linearGradient id="未命名的渐变_62" x1="928.08" y1="-361.25" x2="929.04" y2="-361.25"
            gradientTransform="matrix(0.63, 0, 0, 0.51, -543.61, 223.79)" gradientUnits="userSpaceOnUse">
            <stop offset="0" stop-color="#a9b1bb" />
            <stop offset="0.06" stop-color="#5d6166" />
            <stop offset="0.78" stop-color="#eef7ff" />
            <stop offset="0.93" stop-color="#9ba1ab" />
            <stop offset="1" stop-color="#767b82" />
        </linearGradient>
        <linearGradient id="未命名的渐变_62-2" x1="886.2" y1="-361.25" x2="887.17" y2="-361.25" xlink:href="#未命名的渐变_62" />
        <linearGradient id="未命名的渐变_62-3" x1="892.77" y1="-361.25" x2="893.74" y2="-361.25" xlink:href="#未命名的渐变_62" />
        <linearGradient id="未命名的渐变_62-4" x1="922.2" y1="-361.25" x2="923.17" y2="-361.25" xlink:href="#未命名的渐变_62" />
        <linearGradient id="未命名的渐变_62-5" x1="601.34" y1="-130.52" x2="602.31" y2="-130.52"
            gradientTransform="matrix(0.63, 0, 0, 0.93, -351.71, 162.26)" xlink:href="#未命名的渐变_62" />
        <linearGradient id="未命名的渐变_62-6" x1="603.39" y1="-130.4" x2="604.36" y2="-130.4"
            gradientTransform="matrix(0.63, 0, 0, 0.93, -353.02, 158.69)" xlink:href="#未命名的渐变_62" />
        <linearGradient id="未命名的渐变_306" x1="25.83" y1="43.83" x2="25.83" y2="46.01" gradientUnits="userSpaceOnUse">
            <stop offset="0.02" stop-color="#767b82" />
            <stop offset="0.04" stop-color="#d7dce0" />
            <stop offset="0.09" stop-color="#9ba1ab" />
            <stop offset="0.92" stop-color="#9ba1ab" />
            <stop offset="1" stop-color="#767b82" />
        </linearGradient>
        <linearGradient id="未命名的渐变_62-7" x1="928.08" y1="-303.55" x2="929.04" y2="-303.55" xlink:href="#未命名的渐变_62" />
        <linearGradient id="未命名的渐变_62-8" x1="886.2" y1="-303.55" x2="887.17" y2="-303.55" xlink:href="#未命名的渐变_62" />
        <linearGradient id="未命名的渐变_62-9" x1="892.77" y1="-303.55" x2="893.74" y2="-303.55" xlink:href="#未命名的渐变_62" />
        <linearGradient id="未命名的渐变_62-10" x1="922.2" y1="-303.55" x2="923.17" y2="-303.55" xlink:href="#未命名的渐变_62" />
        <linearGradient id="未命名的渐变_62-11" x1="554.83" y1="-130.52" x2="555.8" y2="-130.52"
            gradientTransform="matrix(0.63, 0, 0, 0.93, -322.54, 191.43)" xlink:href="#未命名的渐变_62" />
        <linearGradient id="未命名的渐变_62-12" x1="556.9" y1="-130.4" x2="557.86" y2="-130.4"
            gradientTransform="matrix(0.63, 0, 0, 0.93, -323.85, 187.86)" xlink:href="#未命名的渐变_62" />
        <linearGradient id="未命名的渐变_306-2" x1="25.83" y1="73" x2="25.83" y2="75.18" xlink:href="#未命名的渐变_306" />
        <linearGradient id="未命名的渐变_62-13" x1="928.08" y1="-245.85" x2="929.04" y2="-245.85" xlink:href="#未命名的渐变_62" />
        <linearGradient id="未命名的渐变_62-14" x1="886.2" y1="-245.85" x2="887.17" y2="-245.85" xlink:href="#未命名的渐变_62" />
        <linearGradient id="未命名的渐变_62-15" x1="892.77" y1="-245.85" x2="893.74" y2="-245.85" xlink:href="#未命名的渐变_62" />
        <linearGradient id="未命名的渐变_62-16" x1="922.2" y1="-245.85" x2="923.17" y2="-245.85" xlink:href="#未命名的渐变_62" />
        <linearGradient id="未命名的渐变_62-17" x1="508.32" y1="-130.52" x2="509.29" y2="-130.52"
            gradientTransform="matrix(0.63, 0, 0, 0.93, -293.38, 220.6)" xlink:href="#未命名的渐变_62" />
        <linearGradient id="未命名的渐变_62-18" x1="510.41" y1="-130.4" x2="511.37" y2="-130.4"
            gradientTransform="matrix(0.63, 0, 0, 0.93, -294.68, 217.03)" xlink:href="#未命名的渐变_62" />
        <linearGradient id="未命名的渐变_306-3" x1="25.83" y1="102.17" x2="25.83" y2="104.35" xlink:href="#未命名的渐变_306" />
        <linearGradient id="未命名的渐变_62-19" x1="928.08" y1="-188.15" x2="929.04" y2="-188.15" xlink:href="#未命名的渐变_62" />
        <linearGradient id="未命名的渐变_62-20" x1="878.89" y1="-188.15" x2="879.85" y2="-188.15" xlink:href="#未命名的渐变_62" />
        <linearGradient id="未命名的渐变_62-21" x1="892.77" y1="-188.15" x2="893.74" y2="-188.15" xlink:href="#未命名的渐变_62" />
        <linearGradient id="未命名的渐变_62-22" x1="922.2" y1="-188.15" x2="923.17" y2="-188.15" xlink:href="#未命名的渐变_62" />
        <linearGradient id="未命名的渐变_62-23" x1="461.82" y1="-132.99" x2="462.78" y2="-132.99"
            gradientTransform="matrix(0.63, 0, 0, 0.93, -266.51, 252.07)" xlink:href="#未命名的渐变_62" />
        <linearGradient id="未命名的渐变_62-24" x1="463.91" y1="-132.86" x2="464.88" y2="-132.86"
            gradientTransform="matrix(0.63, 0, 0, 0.93, -267.8, 248.48)" xlink:href="#未命名的渐变_62" />
        <linearGradient id="未命名的渐变_306-4" x1="23.54" y1="131.34" x2="23.54" y2="133.52" xlink:href="#未命名的渐变_306" />
        <linearGradient id="未命名的渐变_376-2" x1="25.81" y1="133.52" x2="25.81" y2="136.74" xlink:href="#未命名的渐变_376" />
        <linearGradient id="未命名的渐变_376-3" x1="25.81" y1="104.35" x2="25.81" y2="107.57" xlink:href="#未命名的渐变_376" />
        <linearGradient id="未命名的渐变_376-4" x1="25.81" y1="75.18" x2="25.81" y2="78.4" xlink:href="#未命名的渐变_376" />
        <linearGradient id="未命名的渐变_376-5" x1="25.81" y1="46.01" x2="25.81" y2="49.23" xlink:href="#未命名的渐变_376" />
        <linearGradient id="未命名的渐变_306-5" x1="11.8" y1="75.04" x2="14.08" y2="75.04" xlink:href="#未命名的渐变_306" />
        <linearGradient id="未命名的渐变_6" x1="37.53" y1="75.04" x2="39.8" y2="75.04" gradientUnits="userSpaceOnUse">
            <stop offset="0" stop-color="#767b82" />
            <stop offset="0.08" stop-color="#9ba1ab" />
            <stop offset="0.91" stop-color="#9ba1ab" />
            <stop offset="0.96" stop-color="#d7dce0" />
            <stop offset="0.98" stop-color="#767b82" />
        </linearGradient>
        <linearGradient id="未命名的渐变_306-6" x1="25.83" y1="0" x2="25.83" y2="2.18" xlink:href="#未命名的渐变_306" />
        <linearGradient id="未命名的渐变_397-11" x1="13.95" y1="23.01" x2="37.66" y2="23.01" xlink:href="#未命名的渐变_397" />
        <linearGradient id="未命名的渐变_397-12" x1="6.55" y1="23.01" x2="30.26" y2="23.01"
            gradientTransform="matrix(-1, 0, 0, 1, 44.21, 0)" xlink:href="#未命名的渐变_397" />
        <linearGradient id="未命名的渐变_397-13" x1="13.95" y1="59.51" x2="37.66" y2="59.51" xlink:href="#未命名的渐变_397" />
        <linearGradient id="未命名的渐变_397-14" x1="6.55" y1="59.51" x2="30.26" y2="59.51"
            gradientTransform="matrix(-1, 0, 0, 1, 44.21, 0)" xlink:href="#未命名的渐变_397" />
        <linearGradient id="未命名的渐变_397-15" x1="13.95" y1="88.68" x2="37.66" y2="88.68" xlink:href="#未命名的渐变_397" />
        <linearGradient id="未命名的渐变_397-16" x1="6.55" y1="88.68" x2="30.26" y2="88.68"
            gradientTransform="matrix(-1, 0, 0, 1, 44.21, 0)" xlink:href="#未命名的渐变_397" />
        <linearGradient id="未命名的渐变_397-17" x1="13.95" y1="117.85" x2="37.66" y2="117.85" xlink:href="#未命名的渐变_397" />
        <linearGradient id="未命名的渐变_397-18" x1="6.55" y1="117.85" x2="30.26" y2="117.85"
            gradientTransform="matrix(-1, 0, 0, 1, 44.21, 0)" xlink:href="#未命名的渐变_397" />
        <linearGradient id="未命名的渐变_62-25" x1="917.8" y1="-191.46" x2="918.56" y2="-191.46"
            gradientTransform="matrix(0.63, 0.41, 0, 0.51, -543.61, -138.77)" xlink:href="#未命名的渐变_62" />
        <linearGradient id="未命名的渐变_62-26" x1="878.94" y1="-191.54" x2="879.79" y2="-191.54"
            gradientTransform="matrix(0.63, 0.41, 0, 0.51, -543.61, -138.77)" xlink:href="#未命名的渐变_62" />
        <linearGradient id="未命名的渐变_62-27" x1="889.87" y1="-191.46" x2="890.63" y2="-191.46"
            gradientTransform="matrix(0.63, 0.41, 0, 0.51, -543.61, -138.77)" xlink:href="#未命名的渐变_62" />
        <linearGradient id="未命名的渐变_62-28" x1="913.15" y1="-191.46" x2="913.91" y2="-191.46"
            gradientTransform="matrix(0.63, 0.41, 0, 0.51, -543.61, -138.77)" xlink:href="#未命名的渐变_62" />
        <linearGradient id="未命名的渐变_62-29" x1="464.49" y1="-136.49" x2="465.45" y2="-136.49"
            gradientTransform="matrix(0, -0.63, 0.93, 0.62, 147.55, 511.9)" xlink:href="#未命名的渐变_62" />
        <linearGradient id="未命名的渐变_62-30" x1="466.58" y1="-136.39" x2="467.55" y2="-136.39"
            gradientTransform="matrix(0, -0.63, 0.93, 0.62, 147.55, 509.85)" xlink:href="#未命名的渐变_62" />
        <linearGradient id="未命名的渐变_306-7" x1="20.25" y1="132.73" x2="20.25" y2="150" xlink:href="#未命名的渐变_306" />
        <linearGradient id="未命名的渐变_306-8" x1="9.85" y1="132.73" x2="9.85" y2="134.92" xlink:href="#未命名的渐变_306" />
    </defs>
    <title>Distillation column 2(蒸馏塔2)</title>
    <g id="图层_2" data-name="图层 2">
        <g id="图层_16" data-name="图层 16">
            <g id="Distillation_column_2_蒸馏塔2_" data-name="Distillation column 2(蒸馏塔2)">
                <g class="cls-1">
                    <line class="cls-2" x1="16.02" y1="104.35" x2="35.59" y2="131.34" />
                    <line class="cls-3" x1="35.59" y1="104.35" x2="16.02" y2="131.34" />
                </g>
                <g class="cls-1">
                    <line class="cls-4" x1="16.02" y1="75.18" x2="35.59" y2="102.17" />
                    <line class="cls-5" x1="35.59" y1="75.18" x2="16.02" y2="102.17" />
                </g>
                <g class="cls-1">
                    <line class="cls-6" x1="16.02" y1="46.01" x2="35.59" y2="73" />
                    <line class="cls-7" x1="35.59" y1="46.01" x2="16.02" y2="73" />
                </g>
                <g class="cls-1">
                    <line class="cls-8" x1="16.02" y1="2.18" x2="35.59" y2="43.83" />
                    <line class="cls-9" x1="35.59" y1="2.18" x2="16.02" y2="43.83" />
                </g>
                <polyline class="cls-10" points="32.7 27.46 32.7 150 18.94 150 18.94 27.46" />
                <polyline class="cls-11" points="28.35 0.08 28.35 27.51 23.29 27.51 23.29 0.08" />
                <rect class="cls-12" x="18.92" y="27.51" width="13.8" height="9.65" />
                <rect class="cls-13" x="38.67" y="36.69" width="0.61" height="8.93" rx="0.24" />
                <rect class="cls-14" x="12.39" y="36.69" width="0.61" height="8.93" rx="0.24" />
                <rect class="cls-15" x="16.52" y="36.69" width="0.61" height="8.93" rx="0.24" />
                <rect class="cls-16" x="34.98" y="36.69" width="0.61" height="8.93" rx="0.24" />
                <rect class="cls-17" x="25.44" y="27.11" width="0.61" height="26.7" rx="0.3"
                    transform="translate(-14.72 66.21) rotate(-90)" />
                <rect class="cls-18" x="25.55" y="23.58" width="0.61" height="26.83" rx="0.3"
                    transform="translate(-11.15 62.85) rotate(-90)" />
                <rect class="cls-19" x="12.39" y="43.83" width="26.88" height="2.18" />
                <rect class="cls-20" x="38.67" y="65.86" width="0.61" height="8.93" rx="0.24" />
                <rect class="cls-21" x="12.39" y="65.86" width="0.61" height="8.93" rx="0.24" />
                <rect class="cls-22" x="16.52" y="65.86" width="0.61" height="8.93" rx="0.24" />
                <rect class="cls-23" x="34.98" y="65.86" width="0.61" height="8.93" rx="0.24" />
                <rect class="cls-24" x="25.44" y="56.28" width="0.61" height="26.7" rx="0.3"
                    transform="translate(-43.89 95.38) rotate(-90)" />
                <rect class="cls-25" x="25.55" y="52.75" width="0.61" height="26.83" rx="0.3"
                    transform="translate(-40.32 92.02) rotate(-90)" />
                <rect class="cls-26" x="12.39" y="73" width="26.88" height="2.18" />
                <rect class="cls-27" x="38.67" y="95.03" width="0.61" height="8.93" rx="0.24" />
                <rect class="cls-28" x="12.39" y="95.03" width="0.61" height="8.93" rx="0.24" />
                <rect class="cls-29" x="16.52" y="95.03" width="0.61" height="8.93" rx="0.24" />
                <rect class="cls-30" x="34.98" y="95.03" width="0.61" height="8.93" rx="0.24" />
                <rect class="cls-31" x="25.44" y="85.45" width="0.61" height="26.7" rx="0.3"
                    transform="translate(-73.06 124.55) rotate(-90)" />
                <rect class="cls-32" x="25.55" y="81.92" width="0.61" height="26.83" rx="0.3"
                    transform="translate(-69.48 121.19) rotate(-90)" />
                <rect class="cls-33" x="12.39" y="102.17" width="26.88" height="2.18" />
                <rect class="cls-34" x="38.67" y="124.2" width="0.61" height="8.93" rx="0.24" />
                <rect class="cls-35" x="7.8" y="124.2" width="0.61" height="8.93" rx="0.24" />
                <rect class="cls-36" x="16.52" y="124.2" width="0.61" height="8.93" rx="0.24" />
                <rect class="cls-37" x="34.98" y="124.2" width="0.61" height="8.93" rx="0.24" />
                <rect class="cls-38" x="23.13" y="112.34" width="0.61" height="31.26" rx="0.3"
                    transform="translate(-104.53 151.41) rotate(-90)" />
                <rect class="cls-39" x="23.26" y="108.8" width="0.61" height="31.41" rx="0.3"
                    transform="translate(-100.94 148.07) rotate(-90)" />
                <rect class="cls-40" x="7.8" y="131.34" width="31.47" height="2.18" />
                <rect class="cls-41" x="18.94" y="133.52" width="13.75" height="3.22" />
                <rect class="cls-42" x="18.94" y="104.35" width="13.75" height="3.22" />
                <rect class="cls-43" x="18.94" y="75.18" width="13.75" height="3.22" />
                <rect class="cls-44" x="18.94" y="46.01" width="13.75" height="3.22" />
                <rect class="cls-45" x="11.8" y="0.08" width="2.27" height="149.92" />
                <rect class="cls-46" x="37.53" y="0.08" width="2.27" height="149.92" />
                <rect class="cls-47" x="12.39" width="26.88" height="2.18" />
                <line class="cls-48" x1="14.08" y1="2.18" x2="37.53" y2="43.83" />
                <line class="cls-49" x1="37.53" y1="2.18" x2="14.08" y2="43.83" />
                <line class="cls-50" x1="14.08" y1="46.01" x2="37.53" y2="73" />
                <line class="cls-51" x1="37.53" y1="46.01" x2="14.08" y2="73" />
                <line class="cls-52" x1="14.08" y1="75.18" x2="37.53" y2="102.17" />
                <line class="cls-53" x1="37.53" y1="75.18" x2="14.08" y2="102.17" />
                <line class="cls-54" x1="14.08" y1="104.35" x2="37.53" y2="131.34" />
                <line class="cls-55" x1="37.53" y1="104.35" x2="14.08" y2="131.34" />
                <path class="cls-56"
                    d="M32.49,149.44l-.06,0a.47.47,0,0,1-.21-.35v-8.51c0-.12.09-.15.21-.07l.06,0a.48.48,0,0,1,.21.35v8.51C32.7,149.48,32.6,149.52,32.49,149.44Z" />
                <path class="cls-57"
                    d="M8.14,133.31l-.07,0a.45.45,0,0,1-.23-.35v-8.51c0-.11.1-.14.23-.07l.07,0a.47.47,0,0,1,.23.35v8.51C8.37,133.36,8.27,133.39,8.14,133.31Z" />
                <path class="cls-58"
                    d="M15,137.86l-.05,0a.49.49,0,0,1-.21-.35V129c0-.12.09-.15.21-.07l.05,0a.5.5,0,0,1,.22.35v8.51C15.18,137.91,15.08,137.94,15,137.86Z" />
                <path class="cls-59"
                    d="M29.57,147.51l-.06,0a.48.48,0,0,1-.21-.35v-8.51c0-.11.1-.14.21-.07l.06,0a.5.5,0,0,1,.21.35v8.51C29.78,147.56,29.68,147.59,29.57,147.51Z" />
                <path class="cls-60"
                    d="M32.53,144.27v.07c0,.15-.12.19-.26.09l-24.2-16A.66.66,0,0,1,7.8,128v-.06c0-.15.13-.19.27-.09l24.2,16A.6.6,0,0,1,32.53,144.27Z" />
                <path class="cls-61"
                    d="M32.69,140.91V141c0,.15-.12.19-.27.09L8.12,125a.59.59,0,0,1-.27-.44v-.07c0-.15.12-.19.27-.09l24.3,16.05A.62.62,0,0,1,32.69,140.91Z" />
                <polygon class="cls-62"
                    points="32.7 148.58 32.7 150 31.57 150 8.72 134.92 7.8 134.31 7.8 132.74 8.72 132.74 11.89 134.83 32.7 148.58" />
                <rect class="cls-63" x="7.8" y="132.73" width="4.09" height="2.18" />
               
            </g>
        </g>
    </g>
</svg>