<svg xmlns="http://www.w3.org/2000/svg" xmlns:xlink="http://www.w3.org/1999/xlink" viewBox="0 0 150.77 82.77">
    <defs>
        <style>
            .cls-1 {
                fill: #a0a7b3;
            }

            .cls-2 {
                fill: #45484d;
            }

            .cls-3 {
                fill: url(#未命名的渐变_59);
            }

            .cls-4 {
                opacity: 0.3;
            }

            .cls-5 {
                fill: url(#未命名的渐变_91);
            }

            .cls-6 {
                fill: url(#未命名的渐变_91-2);
            }

            .cls-7 {
                fill: url(#未命名的渐变_66);
            }

            .cls-15,
            .cls-16,
            .cls-8 {
                fill: none;
                stroke-miterlimit: 10;
            }

            .cls-8 {
                stroke: #333;
                stroke-width: 0.16px;
            }

            .cls-9 {
                fill: url(#未命名的渐变_91-3);
            }

            .cls-10 {
                fill: url(#未命名的渐变_66-2);
            }

            .cls-11 {
                fill: #bfc4cc;
            }

            .cls-12 {
                fill: #606266;
            }

            .cls-13 {
                fill: #d7dde6;
            }

            .cls-14 {
                fill: #dce1e6;
            }

            .cls-15,
            .cls-16 {
                stroke: #727780;
                stroke-width: 0.3px;
            }

            .cls-16 {
                stroke-dasharray: 0.61 0.61;
            }

            .cls-17 {
                fill: url(#未命名的渐变_152);
            }

            .cls-18 {
                fill: url(#未命名的渐变_106);
            }

            .cls-19 {
                fill: url(#未命名的渐变_106-2);
            }

            .cls-20 {
                fill: url(#未命名的渐变_106-3);
            }

            .cls-21 {
                opacity: 0.2;
            }
        </style>
        <linearGradient id="未命名的渐变_59" x1="130.09" y1="4.49" x2="65.92" y2="68.66" gradientUnits="userSpaceOnUse">
            <stop offset="0" stop-color="#d7dce0" />
            <stop offset="1" stop-color="#8a9099" />
        </linearGradient>
        <linearGradient id="未命名的渐变_91" x1="121.72" y1="32.48" x2="74.34" y2="79.86" gradientUnits="userSpaceOnUse">
            <stop offset="0" stop-color="#7a7d80" />
            <stop offset="1" stop-color="#45484d" />
        </linearGradient>
        <linearGradient id="未命名的渐变_91-2" x1="53.9" y1="57.58" x2="53.9" y2="80.93" xlink:href="#未命名的渐变_91" />
        <linearGradient id="未命名的渐变_66" x1="53.9" y1="79.09" x2="53.9" y2="82.77" gradientUnits="userSpaceOnUse">
            <stop offset="0" stop-color="#a6aaad" />
            <stop offset="1" stop-color="#5c6066" />
        </linearGradient>
        <linearGradient id="未命名的渐变_91-3" x1="142.16" y1="57.58" x2="142.16" y2="80.93" xlink:href="#未命名的渐变_91" />
        <linearGradient id="未命名的渐变_66-2" x1="142.16" y1="79.09" x2="142.16" y2="82.77" xlink:href="#未命名的渐变_66" />
        <linearGradient id="未命名的渐变_152" x1="78.14" y1="-2.97" x2="82.09" y2="-2.97"
            gradientTransform="translate(2.49 12)" gradientUnits="userSpaceOnUse">
            <stop offset="0" stop-color="#a9b1bb" />
            <stop offset="0.09" stop-color="#61666b" />
            <stop offset="0.19" stop-color="#696e73" />
            <stop offset="0.34" stop-color="#7e8489" />
            <stop offset="0.53" stop-color="#a1a7ae" />
            <stop offset="0.75" stop-color="#d1d8e0" />
            <stop offset="0.82" stop-color="#e2eaf2" />
            <stop offset="0.93" stop-color="#9ba1ab" />
            <stop offset="1" stop-color="#767b82" />
        </linearGradient>
        <linearGradient id="未命名的渐变_106" x1="93.36" y1="4.36" x2="84.03" y2="13.69" gradientUnits="userSpaceOnUse">
            <stop offset="0" stop-color="#939699" />
            <stop offset="1" stop-color="#45484d" />
        </linearGradient>
        <linearGradient id="未命名的渐变_106-2" x1="89.14" y1="-0.6" x2="85.97" y2="2.57" xlink:href="#未命名的渐变_106" />
        <linearGradient id="未命名的渐变_106-3" x1="88.66" y1="1.87" x2="86.45" y2="4.08" xlink:href="#未命名的渐变_106" />
    </defs>
    <title>Dryer unit(干燥装置)</title>
    <g id="图层_2" data-name="图层 2">
        <g id="图层_16" data-name="图层 16">
            <g id="Dryer_unit_干燥装置_" data-name="Dryer unit(干燥装置)">
                <path class="cls-1" d="M3.23,39.52a2.84,2.84,0,1,1,0-5.68H70a2.84,2.84,0,0,1,0,5.68Z" />
                <path class="cls-2"
                    d="M70,34.22a2.46,2.46,0,0,1,0,4.91H3.23a2.46,2.46,0,1,1,0-4.91H70m0-.77H3.23a3.23,3.23,0,0,0,0,6.46H70a3.23,3.23,0,0,0,0-6.46Z" />
                <polygon class="cls-3"
                    points="150.77 40.43 144 40.43 144 54.76 52.01 54.76 52.01 40.43 45.24 40.43 45.25 40.4 46.85 36.68 46.86 36.64 47 36.32 56.72 13.69 139.28 13.69 149.16 36.68 150.76 40.4 150.77 40.43" />
                <polygon class="cls-1"
                    points="150.76 40.4 149.16 36.68 140.34 36.68 140.32 51.03 55.77 51.03 55.77 39.69 55.75 39.69 55.75 36.68 46.85 36.68 45.25 40.4 52.04 40.4 52.04 51.03 52.04 54.76 55.77 54.76 140.32 54.76 144 54.76 144.05 54.76 144.05 40.4 150.76 40.4" />
                <rect class="cls-4" x="99.57" y="13.69" width="0.29" height="37.06" />
                <rect class="cls-5" x="52.07" y="54.76" width="91.93" height="2.82" />
                <polygon class="cls-6" points="55.2 80.93 52.6 80.93 52.06 57.58 55.74 57.58 55.2 80.93" />
                <circle class="cls-7" cx="53.9" cy="80.93" r="1.84" />
                <circle class="cls-8" cx="53.9" cy="80.93" r="1.57" />
                <polygon class="cls-9" points="143.46 80.93 140.86 80.93 140.32 57.58 144 57.58 143.46 80.93" />
                <circle class="cls-10" cx="142.16" cy="80.93" r="1.84" />
                <circle class="cls-8" cx="142.16" cy="80.93" r="1.57" />
                <polygon class="cls-11" points="55.75 36.32 55.75 36.64 46.86 36.64 47 36.32 55.75 36.32" />
                <polygon class="cls-11" points="140.32 36.32 140.32 36.64 149.2 36.64 149.06 36.32 140.32 36.32" />
                <rect class="cls-12" x="48.53" y="43.53" width="14.71" height="0.29"
                    transform="translate(99.57 -12.21) rotate(90)" />
                <rect class="cls-13" x="55.75" y="50.74" width="84.57" height="0.29" />
                <rect class="cls-12" x="132.82" y="43.53" width="14.71" height="0.29"
                    transform="translate(183.85 -96.5) rotate(90)" />
                <rect class="cls-2" x="71.34" y="34.88" width="7.59" height="4.55" />
                <rect class="cls-14" x="84.38" y="34.22" width="42.34" height="5.86" />
                <rect class="cls-2" x="87.26" y="35.54" width="33.79" height="3.22" />
                <line class="cls-15" x1="57.35" y1="48.88" x2="57.65" y2="48.88" />
                <line class="cls-16" x1="58.26" y1="48.88" x2="139.57" y2="48.88" />
                <line class="cls-15" x1="139.87" y1="48.88" x2="140.18" y2="48.88" />
                <rect class="cls-17" x="80.63" y="7.6" width="3.95" height="2.85"
                    transform="translate(73.58 91.63) rotate(-90)" />
                <rect class="cls-18" x="84.03" y="4.36" width="9.33" height="9.33" />
                <rect class="cls-19" x="85.36" width="4.38" height="1.97" />
                <rect class="cls-20" x="86.35" y="1.97" width="2.41" height="2.01" />
               
            </g>
        </g>
    </g>
</svg>