<svg xmlns="http://www.w3.org/2000/svg" xmlns:xlink="http://www.w3.org/1999/xlink" viewBox="0 0 99.25 150">
    <defs>
        <style>
            .cls-1 {
                fill: url(#未命名的渐变_61);
            }

            .cls-2 {
                opacity: 0.3;
            }

            .cls-3 {
                fill: url(#未命名的渐变_61-2);
            }

            .cls-4 {
                fill: url(#未命名的渐变_61-3);
            }

            .cls-5 {
                fill: url(#未命名的渐变_61-4);
            }

            .cls-6 {
                fill: url(#未命名的渐变_61-5);
            }

            .cls-7 {
                fill: url(#未命名的渐变_61-6);
            }

            .cls-8 {
                fill: url(#未命名的渐变_61-7);
            }

            .cls-9 {
                fill: url(#未命名的渐变_61-8);
            }

            .cls-10 {
                fill: url(#未命名的渐变_61-9);
            }

            .cls-11 {
                fill: url(#未命名的渐变_61-10);
            }

            .cls-12 {
                fill: url(#未命名的渐变_61-11);
            }

            .cls-13 {
                fill: url(#未命名的渐变_306);
            }

            .cls-14 {
                fill: url(#未命名的渐变_306-2);
            }

            .cls-15 {
                fill: url(#未命名的渐变_62);
            }

            .cls-16 {
                fill: url(#未命名的渐变_62-2);
            }

            .cls-17 {
                fill: url(#未命名的渐变_61-12);
            }

            .cls-18 {
                fill: url(#未命名的渐变_61-13);
            }

            .cls-19 {
                fill: url(#未命名的渐变_61-14);
            }

            .cls-20 {
                fill: url(#未命名的渐变_61-15);
            }

            .cls-21 {
                fill: url(#未命名的渐变_61-16);
            }

            .cls-22 {
                fill: url(#未命名的渐变_61-17);
            }

            .cls-23 {
                fill: url(#未命名的渐变_61-18);
            }

            .cls-24 {
                fill: url(#未命名的渐变_306-3);
            }

            .cls-25 {
                fill: url(#未命名的渐变_62-3);
            }

            .cls-26 {
                fill: url(#未命名的渐变_62-4);
            }

            .cls-27 {
                fill: url(#未命名的渐变_61-19);
            }

            .cls-28 {
                fill: url(#未命名的渐变_61-20);
            }

            .cls-29 {
                fill: url(#未命名的渐变_61-21);
            }

            .cls-30 {
                fill: url(#未命名的渐变_61-22);
            }

            .cls-31 {
                fill: url(#未命名的渐变_61-23);
            }

            .cls-32 {
                fill: url(#未命名的渐变_61-24);
            }

            .cls-33 {
                fill: url(#未命名的渐变_61-25);
            }

            .cls-34 {
                fill: url(#未命名的渐变_61-26);
            }

            .cls-35 {
                fill: url(#未命名的渐变_61-27);
            }

            .cls-36 {
                fill: url(#未命名的渐变_61-28);
            }

            .cls-37 {
                fill: url(#未命名的渐变_61-29);
            }

            .cls-38 {
                fill: url(#未命名的渐变_306-4);
            }

            .cls-39 {
                fill: url(#未命名的渐变_62-5);
            }

            .cls-40 {
                fill: url(#未命名的渐变_61-30);
            }

            .cls-41 {
                fill: url(#未命名的渐变_61-31);
            }

            .cls-42 {
                fill: url(#未命名的渐变_61-32);
            }

            .cls-43 {
                fill: url(#未命名的渐变_61-33);
            }

            .cls-44 {
                fill: url(#未命名的渐变_61-34);
            }

            .cls-45 {
                fill: url(#未命名的渐变_61-35);
            }

            .cls-46 {
                fill: url(#未命名的渐变_61-36);
            }

            .cls-47 {
                fill: url(#未命名的渐变_61-37);
            }

            .cls-48 {
                fill: url(#未命名的渐变_306-5);
            }

            .cls-49 {
                fill: url(#未命名的渐变_62-6);
            }

            .cls-50 {
                fill: url(#未命名的渐变_62-7);
            }

            .cls-51 {
                fill: url(#未命名的渐变_397);
            }

            .cls-52 {
                fill: url(#未命名的渐变_397-2);
            }

            .cls-53 {
                fill: url(#未命名的渐变_4);
            }

            .cls-54 {
                fill: url(#未命名的渐变_3);
            }

            .cls-55 {
                opacity: 0.5;
            }

            .cls-56 {
                fill: url(#未命名的渐变_3-2);
            }

            .cls-57 {
                fill: url(#未命名的渐变_5);
            }

            .cls-58 {
                fill: url(#未命名的渐变_4-2);
            }

            .cls-59 {
                fill: url(#未命名的渐变_3-3);
            }

            .cls-100,
            .cls-60,
            .cls-64,
            .cls-67,
            .cls-70 {
                opacity: 0.2;
            }

            .cls-60 {
                fill: url(#未命名的渐变_297);
            }

            .cls-61 {
                fill: none;
            }

            .cls-62 {
                fill: url(#未命名的渐变_397-3);
            }

            .cls-63 {
                fill: url(#未命名的渐变_397-4);
            }

            .cls-64 {
                fill: url(#未命名的渐变_376);
            }

            .cls-65 {
                fill: url(#未命名的渐变_397-5);
            }

            .cls-66 {
                fill: url(#未命名的渐变_397-6);
            }

            .cls-67 {
                fill: url(#未命名的渐变_376-2);
            }

            .cls-68 {
                fill: url(#未命名的渐变_397-7);
            }

            .cls-69 {
                fill: url(#未命名的渐变_397-8);
            }

            .cls-70 {
                fill: url(#未命名的渐变_376-3);
            }

            .cls-71 {
                fill: url(#未命名的渐变_61-38);
            }

            .cls-72 {
                fill: url(#未命名的渐变_62-8);
            }

            .cls-73 {
                fill: url(#未命名的渐变_62-9);
            }

            .cls-74 {
                fill: url(#未命名的渐变_61-39);
            }

            .cls-75 {
                fill: url(#未命名的渐变_61-40);
            }

            .cls-76 {
                fill: url(#未命名的渐变_62-10);
            }

            .cls-77 {
                fill: url(#未命名的渐变_61-41);
            }

            .cls-78 {
                fill: url(#未命名的渐变_62-11);
            }

            .cls-79 {
                fill: url(#未命名的渐变_62-12);
            }

            .cls-80 {
                fill: url(#未命名的渐变_61-42);
            }

            .cls-81 {
                fill: url(#未命名的渐变_61-43);
            }

            .cls-82 {
                fill: url(#未命名的渐变_62-13);
            }

            .cls-83 {
                fill: url(#未命名的渐变_61-44);
            }

            .cls-84 {
                fill: url(#未命名的渐变_62-14);
            }

            .cls-85 {
                fill: url(#未命名的渐变_62-15);
            }

            .cls-86 {
                fill: url(#未命名的渐变_61-45);
            }

            .cls-87 {
                fill: url(#未命名的渐变_61-46);
            }

            .cls-88 {
                fill: url(#未命名的渐变_62-16);
            }

            .cls-89 {
                fill: url(#未命名的渐变_61-47);
            }

            .cls-90 {
                fill: url(#未命名的渐变_306-6);
            }

            .cls-91 {
                fill: url(#未命名的渐变_306-7);
            }

            .cls-92 {
                fill: url(#未命名的渐变_306-8);
            }

            .cls-93 {
                fill: url(#未命名的渐变_306-9);
            }

            .cls-94 {
                fill: url(#未命名的渐变_62-17);
            }

            .cls-95 {
                fill: url(#未命名的渐变_59);
            }

            .cls-96 {
                fill: url(#未命名的渐变_59-2);
            }

            .cls-97 {
                fill: url(#未命名的渐变_5-2);
            }

            .cls-98 {
                fill: #5c6066;
                stroke-miterlimit: 10;
                stroke-width: 0.25px;
                stroke: url(#未命名的渐变_39);
            }

            .cls-99 {
                fill: url(#未命名的渐变_61-48);
            }
        </style>
        <linearGradient id="未命名的渐变_61" x1="-4056.33" y1="-30.37" x2="-4056.33" y2="-28.85"
            gradientTransform="matrix(0, 0.18, -0.33, 0, 72.74, 826.83)" gradientUnits="userSpaceOnUse">
            <stop offset="0" stop-color="#767b82" />
            <stop offset="0.07" stop-color="#9ba1ab" />
            <stop offset="0.22" stop-color="#eef7ff" />
            <stop offset="0.94" stop-color="#5d6166" />
            <stop offset="1" stop-color="#a9b1bb" />
        </linearGradient>
        <linearGradient id="未命名的渐变_61-2" x1="-4205.47" y1="-25.04" x2="-4205.47" y2="-23.52"
            gradientTransform="matrix(0, 0.15, -0.33, 0, 73.3, 688.86)" xlink:href="#未命名的渐变_61" />
        <linearGradient id="未命名的渐变_61-3" x1="-4220.84" y1="49.23" x2="-4220.84" y2="50.74"
            gradientTransform="matrix(-0.13, 0, 0, -0.33, -478, 68.67)" xlink:href="#未命名的渐变_61" />
        <linearGradient id="未命名的渐变_61-4" x1="-4221.01" y1="32.57" x2="-4221.01" y2="34.09"
            gradientTransform="matrix(-0.13, 0, 0, -0.33, -478, 68.67)" xlink:href="#未命名的渐变_61" />
        <linearGradient id="未命名的渐变_61-5" x1="-4220.93" y1="40.9" x2="-4220.93" y2="42.41"
            gradientTransform="matrix(-0.13, 0, 0, -0.33, -478, 68.67)" xlink:href="#未命名的渐变_61" />
        <linearGradient id="未命名的渐变_61-6" x1="-4221.1" y1="24.25" x2="-4221.1" y2="25.76"
            gradientTransform="matrix(-0.13, 0, 0, -0.33, -478, 68.67)" xlink:href="#未命名的渐变_61" />
        <linearGradient id="未命名的渐变_61-7" x1="-4221.19" y1="15.92" x2="-4221.19" y2="17.43"
            gradientTransform="matrix(-0.13, 0, 0, -0.33, -478, 68.67)" xlink:href="#未命名的渐变_61" />
        <linearGradient id="未命名的渐变_61-8" x1="-4221.27" y1="7.59" x2="-4221.27" y2="9.11"
            gradientTransform="matrix(-0.13, 0, 0, -0.33, -478, 68.67)" xlink:href="#未命名的渐变_61" />
        <linearGradient id="未命名的渐变_61-9" x1="-4221.36" y1="-0.73" x2="-4221.36" y2="0.78"
            gradientTransform="matrix(-0.13, 0, 0, -0.33, -478, 68.67)" xlink:href="#未命名的渐变_61" />
        <linearGradient id="未命名的渐变_61-10" x1="-4205.51" y1="-30.09" x2="-4205.51" y2="-28.58"
            gradientTransform="matrix(0, 0.15, -0.33, 0, 73.3, 688.86)" xlink:href="#未命名的渐变_61" />
        <linearGradient id="未命名的渐变_61-11" x1="-4172.78" y1="-24.01" x2="-4172.78" y2="-22.55"
            gradientTransform="matrix(0, 0.27, -0.97, 0, 71.22, 1212.9)" xlink:href="#未命名的渐变_61" />
        <linearGradient id="未命名的渐变_306" x1="83.96" y1="73.48" x2="83.96" y2="76.45" gradientUnits="userSpaceOnUse">
            <stop offset="0.02" stop-color="#767b82" />
            <stop offset="0.04" stop-color="#d7dce0" />
            <stop offset="0.09" stop-color="#9ba1ab" />
            <stop offset="0.92" stop-color="#9ba1ab" />
            <stop offset="1" stop-color="#767b82" />
        </linearGradient>
        <linearGradient id="未命名的渐变_306-2" x1="76.37" y1="49.76" x2="76.37" y2="52.73" xlink:href="#未命名的渐变_306" />
        <linearGradient id="未命名的渐变_62" x1="994.84" y1="-525.71" x2="996.16" y2="-525.71"
            gradientTransform="matrix(1, 0, 0, 0.93, -912.72, 556.73)" gradientUnits="userSpaceOnUse">
            <stop offset="0" stop-color="#a9b1bb" />
            <stop offset="0.06" stop-color="#5d6166" />
            <stop offset="0.78" stop-color="#eef7ff" />
            <stop offset="0.93" stop-color="#9ba1ab" />
            <stop offset="1" stop-color="#767b82" />
        </linearGradient>
        <linearGradient id="未命名的渐变_62-2" x1="1004.47" y1="-525.49" x2="1005.79" y2="-525.49"
            gradientTransform="matrix(1, 0, 0, 0.93, -922.15, 546.9)" xlink:href="#未命名的渐变_62" />
        <linearGradient id="未命名的渐变_61-12" x1="-4363.63" y1="-33.17" x2="-4363.63" y2="-31.66"
            gradientTransform="matrix(-0.11, 0, 0, -0.33, -388.18, 69.03)" xlink:href="#未命名的渐变_61" />
        <linearGradient id="未命名的渐变_61-13" x1="-4363.55" y1="-25.09" x2="-4363.55" y2="-23.57"
            gradientTransform="matrix(-0.11, 0, 0, -0.33, -388.18, 69.03)" xlink:href="#未命名的渐变_61" />
        <linearGradient id="未命名的渐变_61-14" x1="-4363.72" y1="-41.25" x2="-4363.72" y2="-39.74"
            gradientTransform="matrix(-0.11, 0, 0, -0.33, -388.18, 69.03)" xlink:href="#未命名的渐变_61" />
        <linearGradient id="未命名的渐变_61-15" x1="-4363.8" y1="-49.34" x2="-4363.8" y2="-47.83"
            gradientTransform="matrix(-0.11, 0, 0, -0.33, -388.18, 69.03)" xlink:href="#未命名的渐变_61" />
        <linearGradient id="未命名的渐变_61-16" x1="-4363.9" y1="-57.42" x2="-4363.9" y2="-55.91"
            gradientTransform="matrix(-0.11, 0, 0, -0.33, -388.18, 69.03)" xlink:href="#未命名的渐变_61" />
        <linearGradient id="未命名的渐变_61-17" x1="-4364.01" y1="-65.51" x2="-4364.01" y2="-63.99"
            gradientTransform="matrix(-0.11, 0, 0, -0.33, -388.18, 69.03)" xlink:href="#未命名的渐变_61" />
        <linearGradient id="未命名的渐变_61-18" x1="-4091.23" y1="-24.11" x2="-4091.23" y2="-22.65"
            gradientTransform="matrix(0, 0.27, -0.97, 0, 71.22, 1212.9)" xlink:href="#未命名的渐变_61" />
        <linearGradient id="未命名的渐变_306-3" x1="83.96" y1="95.89" x2="83.96" y2="98.86" xlink:href="#未命名的渐变_306" />
        <linearGradient id="未命名的渐变_62-3" x1="972.43" y1="-525.71" x2="973.74" y2="-525.71"
            gradientTransform="matrix(1, 0, 0, 0.93, -890.3, 579.15)" xlink:href="#未命名的渐变_62" />
        <linearGradient id="未命名的渐变_62-4" x1="982.06" y1="-525.49" x2="983.38" y2="-525.49"
            gradientTransform="matrix(1, 0, 0, 0.93, -899.73, 569.31)" xlink:href="#未命名的渐变_62" />
        <linearGradient id="未命名的渐变_61-19" x1="-3776.48" y1="-31" x2="-3776.48" y2="-29.48" xlink:href="#未命名的渐变_61" />
        <linearGradient id="未命名的渐变_61-20" x1="-3860.6" y1="-25.66" x2="-3860.6" y2="-24.15"
            gradientTransform="matrix(0, 0.15, -0.33, 0, 73.3, 688.86)" xlink:href="#未命名的渐变_61" />
        <linearGradient id="未命名的渐变_61-21" x1="-4222.44" y1="-104.3" x2="-4222.44" y2="-102.79"
            gradientTransform="matrix(-0.13, 0, 0, -0.33, -478, 68.67)" xlink:href="#未命名的渐变_61" />
        <linearGradient id="未命名的渐变_61-22" x1="-4222.61" y1="-120.96" x2="-4222.61" y2="-119.44"
            gradientTransform="matrix(-0.13, 0, 0, -0.33, -478, 68.67)" xlink:href="#未命名的渐变_61" />
        <linearGradient id="未命名的渐变_61-23" x1="-4222.53" y1="-112.63" x2="-4222.53" y2="-111.12"
            gradientTransform="matrix(-0.13, 0, 0, -0.33, -478, 68.67)" xlink:href="#未命名的渐变_61" />
        <linearGradient id="未命名的渐变_61-24" x1="-4222.7" y1="-129.28" x2="-4222.7" y2="-127.77"
            gradientTransform="matrix(-0.13, 0, 0, -0.33, -478, 68.67)" xlink:href="#未命名的渐变_61" />
        <linearGradient id="未命名的渐变_61-25" x1="-4222.79" y1="-137.61" x2="-4222.79" y2="-136.1"
            gradientTransform="matrix(-0.13, 0, 0, -0.33, -478, 68.67)" xlink:href="#未命名的渐变_61" />
        <linearGradient id="未命名的渐变_61-26" x1="-4222.87" y1="-145.94" x2="-4222.87" y2="-144.42"
            gradientTransform="matrix(-0.13, 0, 0, -0.33, -478, 68.67)" xlink:href="#未命名的渐变_61" />
        <linearGradient id="未命名的渐变_61-27" x1="-4222.96" y1="-154.26" x2="-4222.96" y2="-152.75"
            gradientTransform="matrix(-0.13, 0, 0, -0.33, -478, 68.67)" xlink:href="#未命名的渐变_61" />
        <linearGradient id="未命名的渐变_61-28" x1="-3860.65" y1="-30.72" x2="-3860.65" y2="-29.21"
            gradientTransform="matrix(0, 0.15, -0.33, 0, 73.3, 688.86)" xlink:href="#未命名的渐变_61" />
        <linearGradient id="未命名的渐变_61-29" x1="-3986.78" y1="-24.23" x2="-3986.78" y2="-22.77"
            gradientTransform="matrix(0, 0.27, -0.97, 0, 71.22, 1212.9)" xlink:href="#未命名的渐变_61" />
        <linearGradient id="未命名的渐变_306-4" x1="83.96" y1="124.6" x2="83.96" y2="127.57" xlink:href="#未命名的渐变_306" />
        <linearGradient id="未命名的渐变_62-5" x1="943.72" y1="-525.71" x2="945.03" y2="-525.71"
            gradientTransform="matrix(1, 0, 0, 0.93, -861.6, 607.86)" xlink:href="#未命名的渐变_62" />
        <linearGradient id="未命名的渐变_61-30" x1="-4365.54" y1="-186.7" x2="-4365.54" y2="-185.19"
            gradientTransform="matrix(-0.11, 0, 0, -0.33, -388.18, 69.03)" xlink:href="#未命名的渐变_61" />
        <linearGradient id="未命名的渐变_61-31" x1="-4365.46" y1="-178.62" x2="-4365.46" y2="-177.1"
            gradientTransform="matrix(-0.11, 0, 0, -0.33, -388.18, 69.03)" xlink:href="#未命名的渐变_61" />
        <linearGradient id="未命名的渐变_61-32" x1="-4365.63" y1="-194.78" x2="-4365.63" y2="-193.27"
            gradientTransform="matrix(-0.11, 0, 0, -0.33, -388.18, 69.03)" xlink:href="#未命名的渐变_61" />
        <linearGradient id="未命名的渐变_61-33" x1="-4365.71" y1="-202.87" x2="-4365.71" y2="-201.36"
            gradientTransform="matrix(-0.11, 0, 0, -0.33, -388.18, 69.03)" xlink:href="#未命名的渐变_61" />
        <linearGradient id="未命名的渐变_61-34" x1="-4365.81" y1="-210.95" x2="-4365.81" y2="-209.44"
            gradientTransform="matrix(-0.11, 0, 0, -0.33, -388.18, 69.03)" xlink:href="#未命名的渐变_61" />
        <linearGradient id="未命名的渐变_61-35" x1="-4365.91" y1="-219.04" x2="-4365.91" y2="-217.52"
            gradientTransform="matrix(-0.11, 0, 0, -0.33, -388.18, 69.03)" xlink:href="#未命名的渐变_61" />
        <linearGradient id="未命名的渐变_61-36" x1="-3905.23" y1="-24.32" x2="-3905.23" y2="-22.86"
            gradientTransform="matrix(0, 0.27, -0.97, 0, 71.22, 1212.9)" xlink:href="#未命名的渐变_61" />
        <linearGradient id="未命名的渐变_61-37" x1="-3905.01" y1="-9.58" x2="-3905.01" y2="-8.12"
            gradientTransform="matrix(0, 0.27, -0.97, 0, 71.22, 1212.9)" xlink:href="#未命名的渐变_61" />
        <linearGradient id="未命名的渐变_306-5" x1="83.96" y1="147.02" x2="83.96" y2="149.99" xlink:href="#未命名的渐变_306" />
        <linearGradient id="未命名的渐变_62-6" x1="921.31" y1="-525.71" x2="922.62" y2="-525.71"
            gradientTransform="matrix(1, 0, 0, 0.93, -839.18, 630.27)" xlink:href="#未命名的渐变_62" />
        <linearGradient id="未命名的渐变_62-7" x1="930.94" y1="-525.49" x2="932.26" y2="-525.49"
            gradientTransform="matrix(1, 0, 0, 0.93, -848.61, 620.43)" xlink:href="#未命名的渐变_62" />
        <linearGradient id="未命名的渐变_397" x1="112.94" y1="101.79" x2="111.23" y2="101.79"
            gradientTransform="translate(-74 -76)" gradientUnits="userSpaceOnUse">
            <stop offset="0" stop-color="#767b82" />
            <stop offset="0.07" stop-color="#9ba1ab" />
            <stop offset="0.22" stop-color="#e2eaf2" />
            <stop offset="0.28" stop-color="#d1d8e0" />
            <stop offset="0.49" stop-color="#a1a7ae" />
            <stop offset="0.67" stop-color="#7e8489" />
            <stop offset="0.81" stop-color="#696e73" />
            <stop offset="0.91" stop-color="#61666b" />
            <stop offset="1" stop-color="#a9b1bb" />
        </linearGradient>
        <linearGradient id="未命名的渐变_397-2" x1="115.9" y1="106.64" x2="114.19" y2="106.64" xlink:href="#未命名的渐变_397" />
        <linearGradient id="未命名的渐变_4" x1="444.06" y1="59.6" x2="428.49" y2="50.61"
            gradientTransform="translate(486.17 146.87) rotate(180)" gradientUnits="userSpaceOnUse">
            <stop offset="0" stop-color="#a9b1bb" />
            <stop offset="0.09" stop-color="#61666b" />
            <stop offset="0.21" stop-color="#696e73" />
            <stop offset="0.38" stop-color="#7e8489" />
            <stop offset="0.59" stop-color="#a1a7ae" />
            <stop offset="0.84" stop-color="#d1d8e0" />
            <stop offset="0.87" stop-color="#d7dee6" />
            <stop offset="0.95" stop-color="#9ba1ab" />
            <stop offset="1" stop-color="#767b82" />
        </linearGradient>
        <linearGradient id="未命名的渐变_3" x1="446.45" y1="63.56" x2="425.69" y2="63.56"
            gradientTransform="translate(486.17 146.87) rotate(180)" gradientUnits="userSpaceOnUse">
            <stop offset="0" stop-color="#a9b1bb" />
            <stop offset="0.09" stop-color="#61666b" />
            <stop offset="0.2" stop-color="#696e73" />
            <stop offset="0.36" stop-color="#7e8489" />
            <stop offset="0.56" stop-color="#a1a7ae" />
            <stop offset="0.79" stop-color="#d1d8e0" />
            <stop offset="0.86" stop-color="#e2eaf2" />
            <stop offset="0.93" stop-color="#9ba1ab" />
            <stop offset="1" stop-color="#767b82" />
        </linearGradient>
        <linearGradient id="未命名的渐变_3-2" x1="445.13" y1="46.99" x2="433.52" y2="46.99" xlink:href="#未命名的渐变_3" />
        <linearGradient id="未命名的渐变_5" x1="471.64" y1="54.18" x2="467.28" y2="54.18"
            gradientTransform="translate(-452.75 38.5)" gradientUnits="userSpaceOnUse">
            <stop offset="0" stop-color="#a9b1bb" />
            <stop offset="0.09" stop-color="#61666b" />
            <stop offset="0.19" stop-color="#696e73" />
            <stop offset="0.33" stop-color="#7e8489" />
            <stop offset="0.51" stop-color="#a1a7ae" />
            <stop offset="0.72" stop-color="#d1d8e0" />
            <stop offset="0.78" stop-color="#e2eaf2" />
            <stop offset="0.93" stop-color="#9ba1ab" />
            <stop offset="1" stop-color="#767b82" />
        </linearGradient>
        <linearGradient id="未命名的渐变_4-2" x1="475.27" y1="66.15" x2="465.5" y2="60.51" xlink:href="#未命名的渐变_4" />
        <linearGradient id="未命名的渐变_3-3" x1="475.97" y1="76.03" x2="462.95" y2="76.03" xlink:href="#未命名的渐变_3" />
        <linearGradient id="未命名的渐变_297" x1="469.46" y1="69.67" x2="469.46" y2="64.92"
            gradientTransform="translate(-452.75 12.28)" gradientUnits="userSpaceOnUse">
            <stop offset="0.01" stop-color="#61666b" stop-opacity="0" />
            <stop offset="1" stop-color="#eef7ff" />
        </linearGradient>
        <linearGradient id="未命名的渐变_397-3" x1="104.27" y1="105.27" x2="81.04" y2="105.27" xlink:href="#未命名的渐变_397" />
        <linearGradient id="未命名的渐变_397-4" x1="24.54" y1="2.86" x2="12.81" y2="14.59"
            gradientTransform="matrix(1, 0, 0, 1, 0, 0)" xlink:href="#未命名的渐变_397" />
        <linearGradient id="未命名的渐变_376" x1="18.66" y1="8.82" x2="18.66" y2="35.08" gradientUnits="userSpaceOnUse">
            <stop offset="0" stop-color="#2e3033" />
            <stop offset="1" stop-color="#9ba1ab" stop-opacity="0" />
        </linearGradient>
        <linearGradient id="未命名的渐变_397-5" x1="103.12" y1="205.69" x2="83.36" y2="205.69" xlink:href="#未命名的渐变_397" />
        <linearGradient id="未命名的渐变_397-6" x1="24.27" y1="106.37" x2="14.2" y2="116.44"
            gradientTransform="matrix(1, 0, 0, 1, 0, 0)" xlink:href="#未命名的渐变_397" />
        <linearGradient id="未命名的渐变_376-2" x1="19.24" y1="111.55" x2="19.24" y2="133.19" xlink:href="#未命名的渐变_376" />
        <linearGradient id="未命名的渐变_397-7" x1="93.79" y1="101.79" x2="87.64" y2="101.79" xlink:href="#未命名的渐变_397" />
        <linearGradient id="未命名的渐变_397-8" x1="18.35" y1="0.03" x2="15.07" y2="3.31"
            gradientTransform="matrix(1, 0, 0, 1, 0, 0)" xlink:href="#未命名的渐变_397" />
        <linearGradient id="未命名的渐变_376-3" x1="16.71" y1="1.87" x2="16.71" y2="10.86" xlink:href="#未命名的渐变_376" />
        <linearGradient id="未命名的渐变_61-38" x1="-3908.17" y1="40.67" x2="-3908.17" y2="42.14"
            gradientTransform="matrix(0, 0.27, -0.97, 0, 71.22, 1212.9)" xlink:href="#未命名的渐变_61" />
        <linearGradient id="未命名的渐变_62-8" x1="922.39" y1="-592.3" x2="923.71" y2="-592.3"
            gradientTransform="matrix(1, 0, 0, 1, -905.24, 730.9)" xlink:href="#未命名的渐变_62" />
        <linearGradient id="未命名的渐变_62-9" x1="922.39" y1="-557.48" x2="923.71" y2="-557.48"
            gradientTransform="matrix(1, 0, 0, 1, -870.42, 696.08)" xlink:href="#未命名的渐变_62" />
        <linearGradient id="未命名的渐变_61-39" x1="-3907.65" y1="76.36" x2="-3907.65" y2="77.83"
            gradientTransform="matrix(0, 0.27, -0.97, 0, 71.22, 1212.9)" xlink:href="#未命名的渐变_61" />
        <linearGradient id="未命名的渐变_61-40" x1="-3908.67" y1="5.67" x2="-3908.67" y2="7.13"
            gradientTransform="matrix(0, 0.27, -0.97, 0, 71.22, 1212.9)" xlink:href="#未命名的渐变_61" />
        <linearGradient id="未命名的渐变_62-10" x1="933.29" y1="-574.97" x2="934.61" y2="-574.97"
            gradientTransform="translate(-898.86 703.2)" xlink:href="#未命名的渐变_62" />
        <linearGradient id="未命名的渐变_61-41" x1="-4089.33" y1="40.88" x2="-4089.33" y2="42.35"
            gradientTransform="matrix(0, 0.27, -0.97, 0, 71.22, 1212.9)" xlink:href="#未命名的渐变_61" />
        <linearGradient id="未命名的渐变_62-11" x1="972.19" y1="-592.3" x2="973.5" y2="-592.3"
            gradientTransform="matrix(1, 0, 0, 1, -955.03, 681.11)" xlink:href="#未命名的渐变_62" />
        <linearGradient id="未命名的渐变_62-12" x1="972.19" y1="-557.48" x2="973.5" y2="-557.48"
            gradientTransform="matrix(1, 0, 0, 1, -920.21, 646.29)" xlink:href="#未命名的渐变_62" />
        <linearGradient id="未命名的渐变_61-42" x1="-4088.82" y1="76.57" x2="-4088.82" y2="78.04"
            gradientTransform="matrix(0, 0.27, -0.97, 0, 71.22, 1212.9)" xlink:href="#未命名的渐变_61" />
        <linearGradient id="未命名的渐变_61-43" x1="-4089.84" y1="5.88" x2="-4089.84" y2="7.34"
            gradientTransform="matrix(0, 0.27, -0.97, 0, 71.22, 1212.9)" xlink:href="#未命名的渐变_61" />
        <linearGradient id="未命名的渐变_62-13" x1="983.08" y1="-574.97" x2="984.4" y2="-574.97"
            gradientTransform="translate(-948.65 653.4)" xlink:href="#未命名的渐变_62" />
        <linearGradient id="未命名的渐变_61-44" x1="-4262.08" y1="41.08" x2="-4262.08" y2="42.55"
            gradientTransform="matrix(0, 0.27, -0.97, 0, 71.22, 1212.9)" xlink:href="#未命名的渐变_61" />
        <linearGradient id="未命名的渐变_62-14" x1="1019.66" y1="-592.3" x2="1020.98" y2="-592.3"
            gradientTransform="matrix(1, 0, 0, 1, -1002.51, 633.63)" xlink:href="#未命名的渐变_62" />
        <linearGradient id="未命名的渐变_62-15" x1="1019.66" y1="-557.48" x2="1020.98" y2="-557.48"
            gradientTransform="matrix(1, 0, 0, 1, -967.69, 598.81)" xlink:href="#未命名的渐变_62" />
        <linearGradient id="未命名的渐变_61-45" x1="-4261.56" y1="76.77" x2="-4261.56" y2="78.24"
            gradientTransform="matrix(0, 0.27, -0.97, 0, 71.22, 1212.9)" xlink:href="#未命名的渐变_61" />
        <linearGradient id="未命名的渐变_61-46" x1="-4262.58" y1="6.07" x2="-4262.58" y2="7.54"
            gradientTransform="matrix(0, 0.27, -0.97, 0, 71.22, 1212.9)" xlink:href="#未命名的渐变_61" />
        <linearGradient id="未命名的渐变_62-16" x1="1030.56" y1="-574.97" x2="1031.88" y2="-574.97"
            gradientTransform="translate(-996.13 605.93)" xlink:href="#未命名的渐变_62" />
        <linearGradient id="未命名的渐变_61-47" x1="-4090" y1="-9.36" x2="-4090" y2="-7.9"
            gradientTransform="matrix(0, 0.4, -0.97, 0, 69.16, 1713.62)" xlink:href="#未命名的渐变_61" />
        <linearGradient id="未命名的渐变_306-6" x1="36.79" y1="82.67" x2="36.79" y2="84.27"
            gradientTransform="matrix(1, 0, 0, 1, -1.97, -7.87)" xlink:href="#未命名的渐变_306" />
        <linearGradient id="未命名的渐变_306-7" x1="59.11" y1="67.38" x2="59.11" y2="68.98"
            gradientTransform="matrix(1, 0, 0, -1, -24.2, 143.78)" xlink:href="#未命名的渐变_306" />
        <linearGradient id="未命名的渐变_306-8" x1="64.87" y1="123.33" x2="64.87" y2="124.92"
            gradientTransform="matrix(1, 0, 0, 1, -29.93, 0.82)" xlink:href="#未命名的渐变_306" />
        <linearGradient id="未命名的渐变_306-9" x1="87.19" y1="108.03" x2="87.19" y2="109.63"
            gradientTransform="matrix(1, 0, 0, -1, -52.16, 233.77)" xlink:href="#未命名的渐变_306" />
        <linearGradient id="未命名的渐变_62-17" x1="953.35" y1="-525.49" x2="954.67" y2="-525.49"
            gradientTransform="matrix(1, 0, 0, 0.93, -871.03, 598.02)" xlink:href="#未命名的渐变_62" />
        <linearGradient id="未命名的渐变_59" x1="65.08" y1="44.77" x2="4.99" y2="104.86" gradientUnits="userSpaceOnUse">
            <stop offset="0" stop-color="#d7dce0" />
            <stop offset="1" stop-color="#8a9099" />
        </linearGradient>
        <linearGradient id="未命名的渐变_59-2" x1="65.08" y1="94.89" x2="4.99" y2="154.99" xlink:href="#未命名的渐变_59" />
        <linearGradient id="未命名的渐变_5-2" x1="13.09" y1="56.52" x2="20.34" y2="56.52"
            gradientTransform="matrix(1, 0, 0, 1, 0, 0)" xlink:href="#未命名的渐变_5" />
        <linearGradient id="未命名的渐变_39" x1="46.93" y1="75.72" x2="46.93" y2="71.86" gradientUnits="userSpaceOnUse">
            <stop offset="0" stop-color="#dce1e6" />
            <stop offset="1" stop-color="#5c6066" />
        </linearGradient>
        <linearGradient id="未命名的渐变_61-48" x1="-4256.51" y1="-9.05" x2="-4256.51" y2="-7.56"
            gradientTransform="matrix(0, 0.27, -0.97, 0, 71.22, 1212.9)" xlink:href="#未命名的渐变_61" />
    </defs>
    <title>Evaporation process(蒸发过程)</title>
    <g id="图层_2" data-name="图层 2">
        <g id="图层_16" data-name="图层 16">
            <g id="Evaporation_process_蒸发过程_" data-name="Evaporation process(蒸发过程)">
                <path class="cls-1" d="M85.36,96.57l.06-20.95c0-.23.11-.41.25-.41h0c.13,0,.23.19.23.42l-.06,21Z" />
                <path class="cls-2" d="M85.36,96.57l.06-20.95c0-.23.11-.41.25-.41h0c.13,0,.23.19.23.42l-.06,21Z" />
                <path class="cls-3" d="M83.68,74.16l0-17c0-.19.11-.34.24-.34h0c.14,0,.24.16.24.34l0,17Z" />
                <path class="cls-2" d="M83.68,74.16l0-17c0-.19.11-.34.24-.34h0c.14,0,.24.16.24.34l0,17Z" />
                <path class="cls-4" d="M68.6,54l15.06,0a.27.27,0,0,1,.3.24h0a.28.28,0,0,1-.3.24l-15.06,0Z" />
                <path class="cls-2" d="M68.6,54l15.06,0a.27.27,0,0,1,.3.24h0a.28.28,0,0,1-.3.24l-15.06,0Z" />
                <path class="cls-5" d="M68.6,59.58l15.06,0a.27.27,0,0,1,.3.24h0a.27.27,0,0,1-.3.24l-15.06,0Z" />
                <path class="cls-2" d="M68.6,59.58l15.06,0a.27.27,0,0,1,.3.24h0a.27.27,0,0,1-.3.24l-15.06,0Z" />
                <path class="cls-6" d="M68.6,56.8l15.06,0a.27.27,0,0,1,.3.24h0a.28.28,0,0,1-.3.24l-15.06,0Z" />
                <path class="cls-2" d="M68.6,56.8l15.06,0a.27.27,0,0,1,.3.24h0a.28.28,0,0,1-.3.24l-15.06,0Z" />
                <path class="cls-7" d="M68.6,62.35l15.06,0a.27.27,0,0,1,.3.24h0a.28.28,0,0,1-.3.24l-15.06,0Z" />
                <path class="cls-2" d="M68.6,62.35l15.06,0a.27.27,0,0,1,.3.24h0a.28.28,0,0,1-.3.24l-15.06,0Z" />
                <path class="cls-8" d="M68.6,65.12l15.06,0a.27.27,0,0,1,.3.24h0a.28.28,0,0,1-.3.24l-15.06,0Z" />
                <path class="cls-2" d="M68.6,65.12l15.06,0a.27.27,0,0,1,.3.24h0a.28.28,0,0,1-.3.24l-15.06,0Z" />
                <path class="cls-9" d="M68.6,67.89l15.06,0a.27.27,0,0,1,.3.24h0a.28.28,0,0,1-.3.24l-15.06,0Z" />
                <path class="cls-2" d="M68.6,67.89l15.06,0a.27.27,0,0,1,.3.24h0a.28.28,0,0,1-.3.24l-15.06,0Z" />
                <path class="cls-10" d="M68.6,70.67l15.06,0A.27.27,0,0,1,84,71h0c0,.13-.14.23-.3.23l-15.06,0Z" />
                <path class="cls-2" d="M68.6,70.67l15.06,0A.27.27,0,0,1,84,71h0c0,.13-.14.23-.3.23l-15.06,0Z" />
                <path class="cls-11" d="M85.36,74.16l0-17c0-.19.11-.34.24-.34h0c.13,0,.24.16.24.34l0,17Z" />
                <path class="cls-2" d="M85.36,74.16l0-17c0-.19.11-.34.24-.34h0c.13,0,.24.16.24.34l0,17Z" />
                <path class="cls-12" d="M97.79,76.44l.06-20a.68.68,0,0,1,.71-.62h0a.66.66,0,0,1,.69.63l-.06,20Z" />
                <rect class="cls-13" x="68.67" y="73.48" width="30.59" height="2.97" />
                <rect class="cls-14" x="68.67" y="49.76" width="15.4" height="2.97" />
                <rect class="cls-2" x="68.67" y="49.76" width="15.4" height="2.97" />
                <rect class="cls-15" x="82.12" y="49.9" width="1.32" height="32.5" rx="0.62"
                    transform="translate(16.63 148.93) rotate(-90)" />
                <rect class="cls-16" x="82.33" y="40.27" width="1.32" height="32.5" rx="0.62"
                    transform="translate(26.47 139.5) rotate(-90)" />
                <path class="cls-17" d="M85.63,81.54l12.63,0a.25.25,0,0,1,.24.25h0a.24.24,0,0,1-.25.23L85.63,82Z" />
                <path class="cls-2" d="M85.63,81.54l12.63,0a.25.25,0,0,1,.24.25h0a.24.24,0,0,1-.25.23L85.63,82Z" />
                <path class="cls-18" d="M85.63,78.85l12.63,0a.25.25,0,0,1,.25.24h0a.25.25,0,0,1-.26.24l-12.62,0Z" />
                <path class="cls-2" d="M85.63,78.85l12.63,0a.25.25,0,0,1,.25.24h0a.25.25,0,0,1-.26.24l-12.62,0Z" />
                <path class="cls-19" d="M85.63,84.23l12.62,0a.24.24,0,0,1,.25.24h0a.25.25,0,0,1-.25.24l-12.62,0Z" />
                <path class="cls-2" d="M85.63,84.23l12.62,0a.24.24,0,0,1,.25.24h0a.25.25,0,0,1-.25.24l-12.62,0Z" />
                <path class="cls-20" d="M85.63,86.92l12.62,0a.25.25,0,0,1,.25.24h0a.25.25,0,0,1-.25.24l-12.62,0Z" />
                <path class="cls-2" d="M85.63,86.92l12.62,0a.25.25,0,0,1,.25.24h0a.25.25,0,0,1-.25.24l-12.62,0Z" />
                <path class="cls-21" d="M85.63,89.61l12.62,0a.25.25,0,0,1,.25.24h0a.25.25,0,0,1-.25.24l-12.62,0Z" />
                <path class="cls-2" d="M85.63,89.61l12.62,0a.25.25,0,0,1,.25.24h0a.25.25,0,0,1-.25.24l-12.62,0Z" />
                <path class="cls-22" d="M85.63,92.3l12.62,0a.25.25,0,0,1,.25.24h0a.25.25,0,0,1-.25.24l-12.62,0Z" />
                <path class="cls-2" d="M85.63,92.3l12.62,0a.25.25,0,0,1,.25.24h0a.25.25,0,0,1-.25.24l-12.62,0Z" />
                <path class="cls-23" d="M97.79,98.85l.06-19.95a.68.68,0,0,1,.71-.63h0a.67.67,0,0,1,.69.63l-.06,20Z" />
                <path class="cls-2" d="M97.79,98.85l.06-19.95a.68.68,0,0,1,.71-.63h0a.67.67,0,0,1,.69.63l-.06,20Z" />
                <rect class="cls-24" x="68.67" y="95.89" width="30.59" height="2.97" />
                <rect class="cls-2" x="68.67" y="95.89" width="30.59" height="2.97" />
                <rect class="cls-25" x="82.12" y="72.31" width="1.32" height="32.5" rx="0.62"
                    transform="translate(-5.78 171.35) rotate(-90)" />
                <rect class="cls-2" x="82.12" y="72.31" width="1.32" height="32.5" rx="0.62"
                    transform="translate(-5.78 171.35) rotate(-90)" />
                <rect class="cls-26" x="82.33" y="62.68" width="1.32" height="32.5" rx="0.62"
                    transform="translate(4.06 161.92) rotate(-90)" />
                <rect class="cls-2" x="82.33" y="62.68" width="1.32" height="32.5" rx="0.62"
                    transform="translate(4.06 161.92) rotate(-90)" />
                <path class="cls-27" d="M85.36,147.7l.06-20.95c0-.23.11-.42.25-.42h0c.13,0,.23.19.23.42l-.06,20.95Z" />
                <path class="cls-2" d="M85.36,147.7l.06-20.95c0-.23.11-.42.25-.42h0c.13,0,.23.19.23.42l-.06,20.95Z" />
                <path class="cls-28" d="M83.68,125.28l0-17c0-.18.11-.34.24-.33h0c.14,0,.24.15.24.33l0,17Z" />
                <path class="cls-2" d="M83.68,125.28l0-17c0-.18.11-.34.24-.33h0c.14,0,.24.15.24.33l0,17Z" />
                <path class="cls-29" d="M68.6,105.15l15.06,0a.27.27,0,0,1,.3.24h0a.28.28,0,0,1-.3.24l-15.06,0Z" />
                <path class="cls-2" d="M68.6,105.15l15.06,0a.27.27,0,0,1,.3.24h0a.28.28,0,0,1-.3.24l-15.06,0Z" />
                <path class="cls-30" d="M68.6,110.7l15.06,0c.17,0,.3.1.3.24h0a.27.27,0,0,1-.3.23l-15.06,0Z" />
                <path class="cls-2" d="M68.6,110.7l15.06,0c.17,0,.3.1.3.24h0a.27.27,0,0,1-.3.23l-15.06,0Z" />
                <path class="cls-31" d="M68.6,107.93l15.06,0a.27.27,0,0,1,.3.24h0a.27.27,0,0,1-.3.24l-15.06,0Z" />
                <path class="cls-2" d="M68.6,107.93l15.06,0a.27.27,0,0,1,.3.24h0a.27.27,0,0,1-.3.24l-15.06,0Z" />
                <path class="cls-32" d="M68.6,113.47l15.06,0a.27.27,0,0,1,.3.24h0a.28.28,0,0,1-.3.24L68.6,114Z" />
                <path class="cls-2" d="M68.6,113.47l15.06,0a.27.27,0,0,1,.3.24h0a.28.28,0,0,1-.3.24L68.6,114Z" />
                <path class="cls-33" d="M68.6,116.24l15.06,0a.27.27,0,0,1,.3.24h0a.28.28,0,0,1-.3.24l-15.06,0Z" />
                <path class="cls-2" d="M68.6,116.24l15.06,0a.27.27,0,0,1,.3.24h0a.28.28,0,0,1-.3.24l-15.06,0Z" />
                <path class="cls-34" d="M68.6,119l15.06,0a.27.27,0,0,1,.3.24h0a.27.27,0,0,1-.3.24l-15.06,0Z" />
                <path class="cls-2" d="M68.6,119l15.06,0a.27.27,0,0,1,.3.24h0a.27.27,0,0,1-.3.24l-15.06,0Z" />
                <path class="cls-35" d="M68.6,121.79l15.06,0c.17,0,.3.1.3.24h0a.28.28,0,0,1-.3.24l-15.06,0Z" />
                <path class="cls-2" d="M68.6,121.79l15.06,0c.17,0,.3.1.3.24h0a.28.28,0,0,1-.3.24l-15.06,0Z" />
                <path class="cls-36" d="M85.36,125.28l0-17c0-.18.11-.34.24-.33h0c.13,0,.24.15.24.33l0,17Z" />
                <path class="cls-2" d="M85.36,125.28l0-17c0-.18.11-.34.24-.33h0c.13,0,.24.15.24.33l0,17Z" />
                <path class="cls-37" d="M97.79,127.56l.06-20a.68.68,0,0,1,.71-.62h0a.66.66,0,0,1,.69.63l-.06,20Z" />
                <rect class="cls-38" x="68.67" y="124.6" width="30.59" height="2.97" />
                <rect class="cls-39" x="82.12" y="101.02" width="1.32" height="32.5" rx="0.62"
                    transform="translate(-34.49 200.06) rotate(-90)" />
                <path class="cls-40" d="M85.63,132.66l12.63,0a.23.23,0,0,1,.24.24h0a.25.25,0,0,1-.25.24l-12.62,0Z" />
                <path class="cls-2" d="M85.63,132.66l12.63,0a.23.23,0,0,1,.24.24h0a.25.25,0,0,1-.25.24l-12.62,0Z" />
                <path class="cls-41" d="M85.63,130l12.63,0a.25.25,0,0,1,.25.24h0a.25.25,0,0,1-.26.24l-12.62,0Z" />
                <path class="cls-2" d="M85.63,130l12.63,0a.25.25,0,0,1,.25.24h0a.25.25,0,0,1-.26.24l-12.62,0Z" />
                <path class="cls-42" d="M85.63,135.35l12.62,0a.25.25,0,0,1,.25.24h0a.25.25,0,0,1-.25.24l-12.62,0Z" />
                <path class="cls-2" d="M85.63,135.35l12.62,0a.25.25,0,0,1,.25.24h0a.25.25,0,0,1-.25.24l-12.62,0Z" />
                <path class="cls-43" d="M85.63,138l12.62,0a.25.25,0,0,1,.25.24h0a.25.25,0,0,1-.25.24l-12.62,0Z" />
                <path class="cls-2" d="M85.63,138l12.62,0a.25.25,0,0,1,.25.24h0a.25.25,0,0,1-.25.24l-12.62,0Z" />
                <path class="cls-44" d="M85.63,140.73l12.62,0a.25.25,0,0,1,.25.24h0a.25.25,0,0,1-.25.24l-12.62,0Z" />
                <path class="cls-2" d="M85.63,140.73l12.62,0a.25.25,0,0,1,.25.24h0a.25.25,0,0,1-.25.24l-12.62,0Z" />
                <path class="cls-45" d="M85.63,143.43l12.62,0a.25.25,0,0,1,.25.24h0a.24.24,0,0,1-.25.24l-12.62,0Z" />
                <path class="cls-2" d="M85.63,143.43l12.62,0a.25.25,0,0,1,.25.24h0a.24.24,0,0,1-.25.24l-12.62,0Z" />
                <path class="cls-46" d="M97.79,150,97.85,130a.68.68,0,0,1,.71-.63h0a.67.67,0,0,1,.69.63l-.06,20Z" />
                <path class="cls-2" d="M97.79,150,97.85,130a.68.68,0,0,1,.71-.63h0a.67.67,0,0,1,.69.63l-.06,20Z" />
                <path class="cls-47" d="M83.47,150,83.53,130a.68.68,0,0,1,.71-.63h0a.67.67,0,0,1,.69.63l-.06,20Z" />
                <rect class="cls-48" x="68.67" y="147.02" width="30.59" height="2.97" />
                <rect class="cls-2" x="68.67" y="147.02" width="30.59" height="2.97" />
                <rect class="cls-49" x="82.12" y="123.44" width="1.32" height="32.5" rx="0.62"
                    transform="translate(-56.9 222.47) rotate(-90)" />
                <rect class="cls-2" x="82.12" y="123.44" width="1.32" height="32.5" rx="0.62"
                    transform="translate(-56.9 222.47) rotate(-90)" />
                <rect class="cls-50" x="82.33" y="113.8" width="1.32" height="32.5" rx="0.62"
                    transform="translate(-47.07 213.04) rotate(-90)" />
                <rect class="cls-2" x="82.33" y="113.8" width="1.32" height="32.5" rx="0.62"
                    transform="translate(-47.07 213.04) rotate(-90)" />
                <polyline class="cls-51" points="38.94 1.83 38.94 49.76 37.23 49.76 37.23 1.83" />
                <polyline class="cls-2" points="38.94 1.83 38.94 49.76 37.23 49.76 37.23 1.83" />
                <polyline class="cls-52" points="41.9 11.53 41.9 49.76 40.19 49.76 40.19 11.53" />
                <polyline class="cls-2" points="41.9 11.53 41.9 49.76 40.19 49.76 40.19 11.53" />
                <polygon class="cls-53" points="39.72 91.41 60.49 91.41 53.58 96.35 46.63 96.35 39.72 91.41" />
                <rect class="cls-54" x="39.72" y="75.21" width="20.77" height="16.2" />
                <polygon class="cls-55" points="39.72 91.41 60.49 91.41 53.58 96.35 46.63 96.35 39.72 91.41" />
                <rect class="cls-55" x="39.72" y="75.21" width="20.77" height="16.2" />
                <rect class="cls-56" x="41.05" y="53.29" width="11.61" height="93.18" />
                <g id="IoT-Boliers_锅炉_-Boiler_5_锅炉5_" data-name="IoT-Boliers(锅炉)-Boiler 5(锅炉5)">
                    <rect class="cls-57" x="14.54" y="88.71" width="4.35" height="7.96"
                        transform="translate(33.43 185.38) rotate(180)" />
                    <polygon class="cls-58" points="10.2 81.95 23.22 81.95 18.89 88.71 14.54 88.71 10.2 81.95" />
                    <rect class="cls-59" x="10.2" y="59.74" width="13.02" height="22.2" />
                    <rect class="cls-60" x="10.2" y="77.2" width="13.02" height="4.75"
                        transform="translate(33.43 159.15) rotate(180)" />
                    <rect class="cls-61" x="10.86" y="68.2" width="11.7" height="12.51" />
                </g>
                <polyline class="cls-62" points="30.27 8.78 30.27 49.76 7.04 49.76 7.04 8.78" />
                <rect class="cls-2" x="7.04" y="46.14" width="23.24" height="3.62" />
                <path class="cls-63" d="M30.31,8.82S28.69,5.08,18.67,5.08,7,8.82,7,8.82Z" />
                <rect class="cls-64" x="7.01" y="8.82" width="23.3" height="26.26" />
                <polyline class="cls-65" points="29.12 111.51 29.12 147.86 9.36 147.86 9.36 111.51" />
                <rect class="cls-2" x="9.36" y="144.24" width="19.76" height="3.62" />
                <path class="cls-66" d="M29.15,111.55s-1.38-3.73-9.92-3.73-9.91,3.73-9.91,3.73Z" />
                <rect class="cls-67" x="9.32" y="111.55" width="19.83" height="21.63" />
                <polyline class="cls-68" points="19.79 1.83 19.79 49.76 13.64 49.76 13.64 1.83" />
                <path class="cls-69" d="M19.8,1.87S19.37,0,16.71,0s-3.08,1.87-3.08,1.87Z" />
                <rect class="cls-70" x="13.63" y="1.87" width="6.17" height="8.99" />
                <path class="cls-71" d="M34.67,149.67l.06-21.48a.66.66,0,0,1,.7-.62h0a.66.66,0,0,1,.7.63l-.06,21.47Z" />
                <rect class="cls-72" x="17.1" y="121.25" width="1.32" height="34.71" rx="0.65"
                    transform="translate(-120.84 156.35) rotate(-90)" />
                <rect class="cls-73" x="51.92" y="121.73" width="1.32" height="33.73" rx="0.64"
                    transform="translate(-86.02 191.17) rotate(-90)" />
                <path class="cls-74" d="M0,149.67l.06-21.48a.67.67,0,0,1,.7-.62h0a.66.66,0,0,1,.7.63L1.4,149.67Z" />
                <path class="cls-75"
                    d="M68.67,149.67l.06-21.48a.66.66,0,0,1,.7-.62h0a.66.66,0,0,1,.69.63l-.06,21.47Z" />
                <rect class="cls-76" x="34.44" y="93.2" width="1.32" height="70.06" rx="0.66"
                    transform="translate(-93.13 163.32) rotate(-90)" />
                <path class="cls-77" d="M34.67,99.87l.06-21.47a.66.66,0,0,1,.7-.62h0a.66.66,0,0,1,.7.63l-.06,21.47Z" />
                <rect class="cls-78" x="17.1" y="71.45" width="1.32" height="34.71" rx="0.65"
                    transform="translate(-71.05 106.56) rotate(-90)" />
                <rect class="cls-79" x="51.92" y="71.94" width="1.32" height="33.73" rx="0.64"
                    transform="translate(-36.23 141.38) rotate(-90)" />
                <path class="cls-80" d="M0,99.87.06,78.4a.66.66,0,0,1,.7-.62h0a.66.66,0,0,1,.7.63L1.4,99.88Z" />
                <path class="cls-81" d="M68.67,99.87l.06-21.47a.66.66,0,0,1,.7-.62h0a.66.66,0,0,1,.69.63l-.06,21.47Z" />
                <rect class="cls-82" x="34.44" y="43.4" width="1.32" height="70.06" rx="0.66"
                    transform="translate(-43.34 113.53) rotate(-90)" />
                <path class="cls-83" d="M34.67,52.4l.06-21.48a.66.66,0,0,1,.7-.62h0a.66.66,0,0,1,.7.63L36.07,52.4Z" />
                <rect class="cls-84" x="17.1" y="23.98" width="1.32" height="34.71" rx="0.65"
                    transform="translate(-23.57 59.09) rotate(-90)" />
                <rect class="cls-85" x="51.92" y="24.46" width="1.32" height="33.73" rx="0.64"
                    transform="translate(11.25 93.91) rotate(-90)" />
                <path class="cls-86" d="M0,52.4.06,30.92a.67.67,0,0,1,.7-.62h0a.66.66,0,0,1,.7.63L1.4,52.4Z" />
                <path class="cls-87" d="M68.67,52.4l.06-21.48a.66.66,0,0,1,.7-.62h0a.66.66,0,0,1,.69.63L70.06,52.4Z" />
                <rect class="cls-88" x="34.44" y="-4.07" width="1.32" height="70.06" rx="0.66"
                    transform="translate(4.14 66.05) rotate(-90)" />
                <path class="cls-89" d="M83.44,107.94l.09-28.77a.82.82,0,0,1,.7-.9h0a.83.83,0,0,1,.7.91L84.83,108Z" />
                <rect class="cls-90" x="-1.78" y="74.8" width="72.89" height="1.6"
                    transform="translate(48.95 -6.33) rotate(34.52)" />
                <rect class="cls-91" x="-1.78" y="74.8" width="72.89" height="1.6"
                    transform="translate(106.07 118.23) rotate(145.48)" />
                <rect class="cls-92" x="-1.78" y="124.14" width="72.89" height="1.6"
                    transform="translate(76.92 2.36) rotate(34.52)" />
                <rect class="cls-93" x="-1.78" y="124.14" width="72.89" height="1.6"
                    transform="translate(134.04 208.23) rotate(145.48)" />
                <rect class="cls-94" x="82.33" y="91.39" width="1.32" height="32.5" rx="0.62"
                    transform="translate(-24.65 190.63) rotate(-90)" />
                <path class="cls-95"
                    d="M0,49.76V99.88H70.06V49.76ZM66.53,90.61,60.8,96.35H9.26L3.53,90.61V59l5.73-5.73H60.8L66.53,59Z" />
                <path class="cls-96"
                    d="M0,99.88V150H70.06V99.88Zm66.53,40.85-5.73,5.74H9.26l-5.73-5.74V109.15l5.73-5.74H60.8l5.73,5.74Z" />
                <rect class="cls-97" x="13.09" y="53.29" width="7.25" height="6.45" />
                <rect class="cls-2" x="13.09" y="53.29" width="7.25" height="6.45" />
                <circle class="cls-98" cx="46.93" cy="73.79" r="1.81" />
                <path class="cls-99" d="M83.34,55.86l.06-24.94a.67.67,0,0,1,.7-.62h0a.66.66,0,0,1,.7.63l-.06,24.93Z" />
                
            </g>
        </g>
    </g>
</svg>