<svg xmlns="http://www.w3.org/2000/svg" xmlns:xlink="http://www.w3.org/1999/xlink" viewBox="0 0 107.02 150">
    <defs>
        <style>
            .cls-1 {
                fill: url(#未命名的渐变_31);
            }

            .cls-2 {
                fill: url(#未命名的渐变_232);
            }

            .cls-3 {
                fill: url(#未命名的渐变_232-2);
            }

            .cls-4 {
                opacity: 0.6;
            }

            .cls-5 {
                fill: url(#未命名的渐变_19);
            }

            .cls-6 {
                fill: none;
                stroke: #000;
                stroke-width: 0.26px;
            }

            .cls-10,
            .cls-11,
            .cls-12,
            .cls-13,
            .cls-14,
            .cls-15,
            .cls-27,
            .cls-28,
            .cls-57,
            .cls-58,
            .cls-59,
            .cls-6,
            .cls-60,
            .cls-61,
            .cls-62,
            .cls-63,
            .cls-64,
            .cls-65,
            .cls-7,
            .cls-8,
            .cls-9 {
                stroke-miterlimit: 10;
            }

            .cls-43,
            .cls-49,
            .cls-50,
            .cls-53,
            .cls-56,
            .cls-6 {
                opacity: 0.3;
            }

            .cls-57,
            .cls-7 {
                stroke-width: 0.65px;
            }

            .cls-7 {
                fill: url(#未命名的渐变_81);
                stroke: url(#未命名的渐变_518);
            }

            .cls-10,
            .cls-11,
            .cls-12,
            .cls-13,
            .cls-14,
            .cls-15,
            .cls-58,
            .cls-59,
            .cls-60,
            .cls-61,
            .cls-62,
            .cls-63,
            .cls-64,
            .cls-65,
            .cls-8,
            .cls-9 {
                stroke: #505458;
                stroke-width: 0.28px;
            }

            .cls-8 {
                fill: url(#未命名的渐变_204);
            }

            .cls-9 {
                fill: url(#未命名的渐变_204-2);
            }

            .cls-10 {
                fill: url(#未命名的渐变_204-3);
            }

            .cls-11 {
                fill: url(#未命名的渐变_204-4);
            }

            .cls-12 {
                fill: url(#未命名的渐变_204-5);
            }

            .cls-13 {
                fill: url(#未命名的渐变_204-6);
            }

            .cls-14 {
                fill: url(#未命名的渐变_204-7);
            }

            .cls-15 {
                fill: url(#未命名的渐变_204-8);
            }

            .cls-16 {
                fill: url(#未命名的渐变_19-2);
            }

            .cls-17 {
                fill: url(#未命名的渐变_19-3);
            }

            .cls-18,
            .cls-23,
            .cls-91,
            .cls-94 {
                opacity: 0.2;
            }

            .cls-18 {
                fill: url(#未命名的渐变_376);
            }

            .cls-19 {
                fill: url(#未命名的渐变_30);
            }

            .cls-20 {
                fill: url(#未命名的渐变_30-2);
            }

            .cls-21,
            .cls-26 {
                opacity: 0.8;
            }

            .cls-21 {
                fill: url(#未命名的渐变_251);
            }

            .cls-22 {
                fill: url(#未命名的渐变_19-4);
            }

            .cls-23 {
                fill: url(#未命名的渐变_376-2);
            }

            .cls-24 {
                fill: url(#未命名的渐变_30-3);
            }

            .cls-25 {
                fill: url(#未命名的渐变_30-4);
            }

            .cls-26 {
                fill: url(#未命名的渐变_251-2);
            }

            .cls-27,
            .cls-28 {
                stroke-width: 0.18px;
            }

            .cls-27 {
                fill: url(#未命名的渐变_81-2);
                stroke: url(#未命名的渐变_230);
            }

            .cls-28 {
                fill: url(#未命名的渐变_81-3);
                stroke: url(#未命名的渐变_230-2);
            }

            .cls-29 {
                fill: url(#未命名的渐变_306);
            }

            .cls-30 {
                fill: url(#未命名的渐变_59);
            }

            .cls-31 {
                fill: url(#未命名的渐变_290);
            }

            .cls-32 {
                fill: url(#未命名的渐变_59-2);
            }

            .cls-33 {
                fill: url(#未命名的渐变_290-2);
            }

            .cls-34 {
                fill: url(#未命名的渐变_59-3);
            }

            .cls-35 {
                fill: url(#未命名的渐变_290-3);
            }

            .cls-36 {
                fill: #17181a;
            }

            .cls-37 {
                fill: #d1d6d8;
            }

            .cls-38 {
                fill: url(#未命名的渐变_8);
            }

            .cls-39 {
                fill: url(#未命名的渐变_306-2);
            }

            .cls-40 {
                fill: url(#未命名的渐变_306-3);
            }

            .cls-41 {
                fill: url(#未命名的渐变_232-3);
            }

            .cls-42 {
                fill: url(#未命名的渐变_232-4);
            }

            .cls-43 {
                fill: url(#未命名的渐变_376-3);
            }

            .cls-44 {
                fill: url(#未命名的渐变_232-5);
            }

            .cls-45 {
                fill: url(#未命名的渐变_232-6);
            }

            .cls-46 {
                fill: url(#未命名的渐变_232-7);
            }

            .cls-47 {
                fill: url(#未命名的渐变_242);
            }

            .cls-48,
            .cls-76,
            .cls-84 {
                opacity: 0.4;
            }

            .cls-49 {
                fill: url(#未命名的渐变_240);
            }

            .cls-50 {
                fill: url(#未命名的渐变_240-2);
            }

            .cls-51 {
                fill: url(#未命名的渐变_232-8);
            }

            .cls-52 {
                fill: url(#未命名的渐变_239);
            }

            .cls-53 {
                fill: url(#未命名的渐变_240-3);
            }

            .cls-54 {
                fill: url(#未命名的渐变_232-9);
            }

            .cls-55 {
                fill: url(#未命名的渐变_239-2);
            }

            .cls-56 {
                fill: url(#未命名的渐变_240-4);
            }

            .cls-57 {
                fill: url(#未命名的渐变_81-4);
                stroke: url(#未命名的渐变_518-2);
            }

            .cls-58 {
                fill: url(#未命名的渐变_204-9);
            }

            .cls-59 {
                fill: url(#未命名的渐变_204-10);
            }

            .cls-60 {
                fill: url(#未命名的渐变_204-11);
            }

            .cls-61 {
                fill: url(#未命名的渐变_204-12);
            }

            .cls-62 {
                fill: url(#未命名的渐变_204-13);
            }

            .cls-63 {
                fill: url(#未命名的渐变_204-14);
            }

            .cls-64 {
                fill: url(#未命名的渐变_204-15);
            }

            .cls-65 {
                fill: url(#未命名的渐变_204-16);
            }

            .cls-66 {
                fill: url(#未命名的渐变_232-10);
            }

            .cls-67 {
                fill: url(#未命名的渐变_22);
            }

            .cls-68 {
                fill: url(#未命名的渐变_232-11);
            }

            .cls-69 {
                fill: url(#未命名的渐变_306-4);
            }

            .cls-70 {
                fill: url(#未命名的渐变_306-5);
            }

            .cls-71 {
                fill: url(#未命名的渐变_306-6);
            }

            .cls-72 {
                fill: url(#未命名的渐变_232-12);
            }

            .cls-73 {
                fill: url(#未命名的渐变_306-7);
            }

            .cls-74 {
                fill: url(#未命名的渐变_306-8);
            }

            .cls-75 {
                fill: url(#未命名的渐变_19-5);
            }

            .cls-76 {
                fill: url(#未命名的渐变_376-4);
            }

            .cls-77 {
                fill: url(#未命名的渐变_19-6);
            }

            .cls-78 {
                fill: url(#未命名的渐变_137);
            }

            .cls-79 {
                fill: url(#未命名的渐变_137-2);
            }

            .cls-80 {
                fill: url(#未命名的渐变_137-3);
            }

            .cls-81 {
                fill: url(#未命名的渐变_137-4);
            }

            .cls-82 {
                fill: url(#未命名的渐变_137-5);
            }

            .cls-83 {
                fill: url(#未命名的渐变_19-7);
            }

            .cls-84 {
                fill: url(#未命名的渐变_376-5);
            }

            .cls-85 {
                fill: url(#未命名的渐变_19-8);
            }

            .cls-86 {
                fill: url(#未命名的渐变_137-6);
            }

            .cls-87 {
                fill: url(#未命名的渐变_137-7);
            }

            .cls-88 {
                fill: url(#未命名的渐变_137-8);
            }

            .cls-89 {
                fill: url(#未命名的渐变_137-9);
            }

            .cls-90 {
                fill: url(#未命名的渐变_137-10);
            }

            .cls-91 {
                fill: url(#未命名的渐变_376-6);
            }

            .cls-92 {
                fill: url(#未命名的渐变_27);
            }

            .cls-93 {
                fill: url(#未命名的渐变_232-13);
            }
        </style>
        <linearGradient id="未命名的渐变_31" x1="19.36" y1="13.03" x2="24.59" y2="13.03" gradientUnits="userSpaceOnUse">
            <stop offset="0" stop-color="#a9b1bb" />
            <stop offset="0.09" stop-color="#61666b" />
            <stop offset="0.17" stop-color="#696e73" />
            <stop offset="0.29" stop-color="#7e8489" />
            <stop offset="0.44" stop-color="#a1a7ae" />
            <stop offset="0.61" stop-color="#d1d8e0" />
            <stop offset="0.66" stop-color="#e2eaf2" />
            <stop offset="0.93" stop-color="#9ba1ab" />
            <stop offset="1" stop-color="#767b82" />
        </linearGradient>
        <linearGradient id="未命名的渐变_232" x1="22.12" y1="5.2" x2="25.01" y2="10.2" gradientUnits="userSpaceOnUse">
            <stop offset="0" stop-color="#a9b1bb" />
            <stop offset="0.09" stop-color="#61666b" />
            <stop offset="0.18" stop-color="#696e73" />
            <stop offset="0.32" stop-color="#7e8489" />
            <stop offset="0.49" stop-color="#a1a7ae" />
            <stop offset="0.69" stop-color="#d1d8e0" />
            <stop offset="0.75" stop-color="#e2eaf2" />
            <stop offset="0.93" stop-color="#9ba1ab" />
            <stop offset="1" stop-color="#767b82" />
        </linearGradient>
        <linearGradient id="未命名的渐变_232-2" x1="80.76" y1="11.68" x2="88.66" y2="11.68" xlink:href="#未命名的渐变_232" />
        <linearGradient id="未命名的渐变_19" x1="209.45" y1="-23.89" x2="209.45" y2="-36.76"
            gradientTransform="translate(-124.39 161.61)" gradientUnits="userSpaceOnUse">
            <stop offset="0" stop-color="#767b82" />
            <stop offset="0.07" stop-color="#9ba1ab" />
            <stop offset="0.25" stop-color="#e2eaf2" />
            <stop offset="0.31" stop-color="#d1d8e0" />
            <stop offset="0.51" stop-color="#a1a7ae" />
            <stop offset="0.68" stop-color="#7e8489" />
            <stop offset="0.82" stop-color="#696e73" />
            <stop offset="0.91" stop-color="#61666b" />
            <stop offset="1" stop-color="#a9b1bb" />
        </linearGradient>
        <linearGradient id="未命名的渐变_81" x1="89.61" y1="131.78" x2="80.51" y2="140.88" gradientUnits="userSpaceOnUse">
            <stop offset="0" stop-color="#d7dce0" />
            <stop offset="1" stop-color="#737880" />
        </linearGradient>
        <linearGradient id="未命名的渐变_518" x1="89.84" y1="131.55" x2="80.28" y2="141.12" gradientUnits="userSpaceOnUse">
            <stop offset="0" stop-color="#f5faff" />
            <stop offset="1" stop-color="#5c6066" />
        </linearGradient>
        <linearGradient id="未命名的渐变_204" x1="85.06" y1="-780.21" x2="85.06" y2="-778.48"
            gradientTransform="matrix(1, 0, 0, -1, 0, -647.51)" gradientUnits="userSpaceOnUse">
            <stop offset="0" stop-color="#9ba1ab" />
            <stop offset="0" stop-color="#abb1ba" />
            <stop offset="0.09" stop-color="#abb1ba" />
            <stop offset="0.46" stop-color="#d7dce0" />
            <stop offset="1" stop-color="#a9b1bb" />
        </linearGradient>
        <linearGradient id="未命名的渐变_204-2" x1="85.06" y1="-789.2" x2="85.06" y2="-787.47" xlink:href="#未命名的渐变_204" />
        <linearGradient id="未命名的渐变_204-3" x1="256.04" y1="-653.25" x2="256.04" y2="-651.52"
            gradientTransform="matrix(0, -1, -1, 0, -571.82, 392.37)" xlink:href="#未命名的渐变_204" />
        <linearGradient id="未命名的渐变_204-4" x1="256.04" y1="-662.24" x2="256.04" y2="-660.51"
            gradientTransform="matrix(0, -1, -1, 0, -571.82, 392.37)" xlink:href="#未命名的渐变_204" />
        <linearGradient id="未命名的渐变_204-5" x1="144.25" y1="-681.32" x2="144.25" y2="-679.59"
            gradientTransform="matrix(0.71, -0.71, -0.71, -0.71, -501.28, -246)" xlink:href="#未命名的渐变_204" />
        <linearGradient id="未命名的渐变_204-6" x1="144.25" y1="-690.31" x2="144.25" y2="-688.58"
            gradientTransform="matrix(0.71, -0.71, -0.71, -0.71, -501.28, -246)" xlink:href="#未命名的渐变_204" />
        <linearGradient id="未命名的渐变_204-7" x1="354.93" y1="-712.44" x2="354.93" y2="-710.72"
            gradientTransform="matrix(-0.71, -0.71, -0.71, 0.71, -170.31, 893.65)" xlink:href="#未命名的渐变_204" />
        <linearGradient id="未命名的渐变_204-8" x1="354.93" y1="-721.43" x2="354.93" y2="-719.71"
            gradientTransform="matrix(-0.71, -0.71, -0.71, 0.71, -170.31, 893.65)" xlink:href="#未命名的渐变_204" />
        <linearGradient id="未命名的渐变_19-2" x1="209.45" y1="-86.99" x2="209.45" y2="-99.86"
            gradientTransform="translate(-187.49 224.71)" xlink:href="#未命名的渐变_19" />
        <linearGradient id="未命名的渐变_19-3" x1="114.29" y1="-1045.8" x2="77.64" y2="-1045.8"
            gradientTransform="matrix(1, 0, 0, -1, -74, -973.05)" xlink:href="#未命名的渐变_19" />
        <linearGradient id="未命名的渐变_376" x1="21.97" y1="25.08" x2="21.97" y2="33.53" gradientUnits="userSpaceOnUse">
            <stop offset="0" stop-color="#2e3033" />
            <stop offset="1" stop-color="#9ba1ab" stop-opacity="0" />
        </linearGradient>
        <linearGradient id="未命名的渐变_30" x1="31.34" y1="15.28" x2="12.59" y2="34.03" gradientUnits="userSpaceOnUse">
            <stop offset="0" stop-color="#767b82" />
            <stop offset="0.07" stop-color="#9ba1ab" />
            <stop offset="0.26" stop-color="#e2eaf2" />
            <stop offset="0.32" stop-color="#d1d8e0" />
            <stop offset="0.51" stop-color="#a1a7ae" />
            <stop offset="0.68" stop-color="#7e8489" />
            <stop offset="0.82" stop-color="#696e73" />
            <stop offset="0.91" stop-color="#61666b" />
            <stop offset="1" stop-color="#a9b1bb" />
        </linearGradient>
        <linearGradient id="未命名的渐变_30-2" x1="31.34" y1="72.35" x2="12.59" y2="91.1"
            gradientTransform="matrix(1, 0, 0, -1, 0, 202.56)" xlink:href="#未命名的渐变_30" />
        <linearGradient id="未命名的渐变_251" x1="21.97" y1="74.33" x2="21.97" y2="82.15"
            gradientTransform="matrix(1, 0, 0, -1, 0, 202.56)" gradientUnits="userSpaceOnUse">
            <stop offset="0" stop-color="#2e3033" />
            <stop offset="0.28" stop-color="#414448" stop-opacity="0.82" />
            <stop offset="0.73" stop-color="#757981" stop-opacity="0.35" />
            <stop offset="1" stop-color="#9ba1ab" stop-opacity="0" />
        </linearGradient>
        <linearGradient id="未命名的渐变_19-4" x1="177.38" y1="-1045.8" x2="140.73" y2="-1045.8"
            gradientTransform="matrix(1, 0, 0, -1, -74, -973.05)" xlink:href="#未命名的渐变_19" />
        <linearGradient id="未命名的渐变_376-2" x1="85.06" y1="25.08" x2="85.06" y2="33.53" xlink:href="#未命名的渐变_376" />
        <linearGradient id="未命名的渐变_30-3" x1="94.43" y1="15.28" x2="75.68" y2="34.03" xlink:href="#未命名的渐变_30" />
        <linearGradient id="未命名的渐变_30-4" x1="94.43" y1="72.35" x2="75.68" y2="91.1"
            gradientTransform="matrix(1, 0, 0, -1, 0, 202.56)" xlink:href="#未命名的渐变_30" />
        <linearGradient id="未命名的渐变_251-2" x1="85.06" y1="74.33" x2="85.06" y2="82.15" xlink:href="#未命名的渐变_251" />
        <linearGradient id="未命名的渐变_81-2" x1="38.94" y1="49.94" x2="32.81" y2="56.06" xlink:href="#未命名的渐变_81" />
        <linearGradient id="未命名的渐变_230" x1="35.87" y1="57" x2="35.87" y2="49" gradientUnits="userSpaceOnUse">
            <stop offset="0" stop-color="#5c6066" />
            <stop offset="1" stop-color="#f5faff" />
        </linearGradient>
        <linearGradient id="未命名的渐变_81-3" x1="74.51" y1="49.94" x2="68.39" y2="56.06" xlink:href="#未命名的渐变_81" />
        <linearGradient id="未命名的渐变_230-2" x1="71.45" y1="57" x2="71.45" y2="49" xlink:href="#未命名的渐变_230" />
        <linearGradient id="未命名的渐变_306" x1="53.59" y1="50.81" x2="53.59" y2="55.96" gradientUnits="userSpaceOnUse">
            <stop offset="0.02" stop-color="#767b82" />
            <stop offset="0.04" stop-color="#d7dce0" />
            <stop offset="0.09" stop-color="#9ba1ab" />
            <stop offset="0.92" stop-color="#9ba1ab" />
            <stop offset="1" stop-color="#767b82" />
        </linearGradient>
        <linearGradient id="未命名的渐变_59" x1="53.51" y1="44.22" x2="53.51" y2="69.6" gradientUnits="userSpaceOnUse">
            <stop offset="0" stop-color="#d7dce0" />
            <stop offset="1" stop-color="#8a9099" />
        </linearGradient>
        <linearGradient id="未命名的渐变_290" x1="53.51" y1="44.22" x2="53.51" y2="69.6" xlink:href="#未命名的渐变_518" />
        <linearGradient id="未命名的渐变_59-2" x1="45.58" y1="28.54" x2="45.58" y2="44.22" xlink:href="#未命名的渐变_59" />
        <linearGradient id="未命名的渐变_290-2" x1="45.58" y1="28.54" x2="45.58" y2="44.22" xlink:href="#未命名的渐变_518" />
        <linearGradient id="未命名的渐变_59-3" x1="61.45" y1="28.54" x2="61.45" y2="44.22" xlink:href="#未命名的渐变_59" />
        <linearGradient id="未命名的渐变_290-3" x1="61.45" y1="28.54" x2="61.45" y2="44.22" xlink:href="#未命名的渐变_518" />
        <linearGradient id="未命名的渐变_8" x1="53.69" y1="53.48" x2="47.23" y2="47.02" gradientUnits="userSpaceOnUse">
            <stop offset="0" stop-color="#e6f1ff" stop-opacity="0" />
            <stop offset="1" stop-color="#eef4ff" />
        </linearGradient>
        <linearGradient id="未命名的渐变_306-2" x1="0" y1="121.35" x2="3.64" y2="121.35" xlink:href="#未命名的渐变_306" />
        <linearGradient id="未命名的渐变_306-3" x1="103.38" y1="121.35" x2="107.02" y2="121.35" xlink:href="#未命名的渐变_306" />
        <linearGradient id="未命名的渐变_232-3" x1="270.29" y1="304.24" x2="270.29" y2="299"
            gradientTransform="translate(-216.7 -176.5)" xlink:href="#未命名的渐变_232" />
        <linearGradient id="未命名的渐变_232-4" x1="261.28" y1="307.89" x2="261.28" y2="295.35"
            gradientTransform="translate(-207.68 -185.52)" xlink:href="#未命名的渐变_232" />
        <linearGradient id="未命名的渐变_376-3" x1="263.62" y1="301.62" x2="261.28" y2="301.62"
            gradientTransform="translate(-208.85 -184.35)" xlink:href="#未命名的渐变_376" />
        <linearGradient id="未命名的渐变_232-5" x1="267.13" y1="304.74" x2="267.13" y2="298.5"
            gradientTransform="translate(-213.54 -179.67)" xlink:href="#未命名的渐变_232" />
        <linearGradient id="未命名的渐变_232-6" x1="269.74" y1="305.47" x2="269.74" y2="297.77"
            gradientTransform="translate(-216.15 -177.05)" xlink:href="#未命名的渐变_232" />
        <linearGradient id="未命名的渐变_232-7" x1="272.27" y1="306" x2="272.27" y2="297.24"
            gradientTransform="translate(-218.68 -174.52)" xlink:href="#未命名的渐变_232" />
        <linearGradient id="未命名的渐变_242" x1="260.48" y1="304.76" x2="266.75" y2="298.49"
            gradientTransform="translate(355.21 -145.18) rotate(90)" gradientUnits="userSpaceOnUse">
            <stop offset="0" stop-color="#a9b1bb" />
            <stop offset="0.09" stop-color="#61666b" />
            <stop offset="0.19" stop-color="#696e73" />
            <stop offset="0.33" stop-color="#7e8489" />
            <stop offset="0.51" stop-color="#a1a7ae" />
            <stop offset="0.71" stop-color="#d1d8e0" />
            <stop offset="0.77" stop-color="#e2eaf2" />
            <stop offset="0.93" stop-color="#9ba1ab" />
            <stop offset="1" stop-color="#767b82" />
        </linearGradient>
        <linearGradient id="未命名的渐变_240" x1="269.74" y1="301.62" x2="268.52" y2="301.62"
            gradientTransform="translate(-215.54 -177.67)" gradientUnits="userSpaceOnUse">
            <stop offset="0" stop-color="#9ba1ab" stop-opacity="0" />
            <stop offset="1" stop-color="#2e3033" />
        </linearGradient>
        <linearGradient id="未命名的渐变_240-2" x1="275.32" y1="301.62" x2="273.58" y2="301.62"
            gradientTransform="translate(-220.86 -172.34)" xlink:href="#未命名的渐变_240" />
        <linearGradient id="未命名的渐变_232-8" x1="246.14" y1="306.53" x2="246.14" y2="301.97"
            gradientTransform="translate(-195.18 -203.29)" xlink:href="#未命名的渐变_232" />
        <linearGradient id="未命名的渐变_239" x1="49.65" y1="89.39" x2="52.27" y2="86.77" gradientUnits="userSpaceOnUse">
            <stop offset="0" stop-color="#a9b1bb" />
            <stop offset="0.09" stop-color="#61666b" />
            <stop offset="0.18" stop-color="#696e73" />
            <stop offset="0.3" stop-color="#7e8489" />
            <stop offset="0.46" stop-color="#a1a7ae" />
            <stop offset="0.64" stop-color="#d1d8e0" />
            <stop offset="0.7" stop-color="#e2eaf2" />
            <stop offset="0.93" stop-color="#9ba1ab" />
            <stop offset="1" stop-color="#767b82" />
        </linearGradient>
        <linearGradient id="未命名的渐变_240-3" x1="236.3" y1="304.25" x2="233.59" y2="304.25"
            gradientTransform="translate(-183.99 -214.48)" xlink:href="#未命名的渐变_240" />
        <linearGradient id="未命名的渐变_232-9" x1="246.14" y1="301.3" x2="246.14" y2="296.74"
            gradientTransform="translate(-189.95 -198.06)" xlink:href="#未命名的渐变_232" />
        <linearGradient id="未命名的渐变_239-2" x1="54.88" y1="89.39" x2="57.5" y2="86.77" xlink:href="#未命名的渐变_239" />
        <linearGradient id="未命名的渐变_240-4" x1="236.3" y1="299.02" x2="233.59" y2="299.02"
            gradientTransform="translate(-178.75 -209.25)" xlink:href="#未命名的渐变_240" />
        <linearGradient id="未命名的渐变_81-4" x1="26.52" y1="131.78" x2="17.41" y2="140.88" xlink:href="#未命名的渐变_81" />
        <linearGradient id="未命名的渐变_518-2" x1="26.75" y1="131.55" x2="17.18" y2="141.12" xlink:href="#未命名的渐变_518" />
        <linearGradient id="未命名的渐变_204-9" x1="21.97" y1="-780.21" x2="21.97" y2="-778.48" xlink:href="#未命名的渐变_204" />
        <linearGradient id="未命名的渐变_204-10" x1="21.97" y1="-789.2" x2="21.97" y2="-787.47" xlink:href="#未命名的渐变_204" />
        <linearGradient id="未命名的渐变_204-11" x1="256.04" y1="-590.15" x2="256.04" y2="-588.43"
            gradientTransform="matrix(0, -1, -1, 0, -571.82, 392.37)" xlink:href="#未命名的渐变_204" />
        <linearGradient id="未命名的渐变_204-12" x1="256.04" y1="-599.14" x2="256.04" y2="-597.42"
            gradientTransform="matrix(0, -1, -1, 0, -571.82, 392.37)" xlink:href="#未命名的渐变_204" />
        <linearGradient id="未命名的渐变_204-13" x1="99.64" y1="-636.7" x2="99.64" y2="-634.98"
            gradientTransform="matrix(0.71, -0.71, -0.71, -0.71, -501.28, -246)" xlink:href="#未命名的渐变_204" />
        <linearGradient id="未命名的渐变_204-14" x1="99.64" y1="-645.69" x2="99.64" y2="-643.97"
            gradientTransform="matrix(0.71, -0.71, -0.71, -0.71, -501.28, -246)" xlink:href="#未命名的渐变_204" />
        <linearGradient id="未命名的渐变_204-15" x1="399.54" y1="-667.83" x2="399.54" y2="-666.1"
            gradientTransform="matrix(-0.71, -0.71, -0.71, 0.71, -170.31, 893.65)" xlink:href="#未命名的渐变_204" />
        <linearGradient id="未命名的渐变_204-16" x1="399.54" y1="-676.82" x2="399.54" y2="-675.09"
            gradientTransform="matrix(-0.71, -0.71, -0.71, 0.71, -170.31, 893.65)" xlink:href="#未命名的渐变_204" />
        <linearGradient id="未命名的渐变_232-10" x1="50.03" y1="138.95" x2="50.03" y2="133.72" xlink:href="#未命名的渐变_232" />
        <linearGradient id="未命名的渐变_22" x1="60.55" y1="8.96" x2="60.55" y2="3.73"
            gradientTransform="matrix(1, 0, 0, 1, 0, 0)" xlink:href="#未命名的渐变_19" />
        <linearGradient id="未命名的渐变_232-11" x1="13.26" y1="142.77" x2="13.26" y2="130.08" xlink:href="#未命名的渐变_232" />
        <linearGradient id="未命名的渐变_306-4" x1="53.71" y1="141.07" x2="53.71" y2="144.86" xlink:href="#未命名的渐变_306" />
        <linearGradient id="未命名的渐变_306-5" x1="5.42" y1="144.86" x2="5.42" y2="150" xlink:href="#未命名的渐变_306" />
        <linearGradient id="未命名的渐变_306-6" x1="101.61" y1="144.86" x2="101.61" y2="150" xlink:href="#未命名的渐变_306" />
        <linearGradient id="未命名的渐变_232-12" x1="92.82" y1="12.69" x2="92.82" y2="0" xlink:href="#未命名的渐变_232" />
        <linearGradient id="未命名的渐变_306-7" x1="3.64" y1="139.62" x2="11.97" y2="139.62" xlink:href="#未命名的渐变_306" />
        <linearGradient id="未命名的渐变_306-8" x1="459.58" y1="139.62" x2="467.91" y2="139.62"
            gradientTransform="matrix(-1, 0, 0, 1, 562.96, 0)" xlink:href="#未命名的渐变_306" />
        <linearGradient id="未命名的渐变_19-5" x1="27.18" y1="15.81" x2="16.77" y2="15.81"
            gradientTransform="matrix(1, 0, 0, 1, 0, 0)" xlink:href="#未命名的渐变_19" />
        <linearGradient id="未命名的渐变_376-4" x1="21.98" y1="17.22" x2="21.98" y2="16.43" xlink:href="#未命名的渐变_376" />
        <linearGradient id="未命名的渐变_19-6" x1="27.81" y1="17.48" x2="16.26" y2="17.48"
            gradientTransform="matrix(1, 0, 0, 1, 0, 0)" xlink:href="#未命名的渐变_19" />
        <linearGradient id="未命名的渐变_137" x1="16.77" y1="-247.21" x2="17.97" y2="-247.21"
            gradientTransform="matrix(1, 0, 0, -1, 0, -232.1)" gradientUnits="userSpaceOnUse">
            <stop offset="0" stop-color="#a9b1bb" />
            <stop offset="0.09" stop-color="#61666b" />
            <stop offset="0.19" stop-color="#696e73" />
            <stop offset="0.33" stop-color="#7e8489" />
            <stop offset="0.51" stop-color="#a1a7ae" />
            <stop offset="0.72" stop-color="#d1d8e0" />
            <stop offset="0.78" stop-color="#e2eaf2" />
            <stop offset="0.93" stop-color="#9ba1ab" />
            <stop offset="1" stop-color="#767b82" />
        </linearGradient>
        <linearGradient id="未命名的渐变_137-2" x1="19.84" y1="-247.21" x2="21.04" y2="-247.21" xlink:href="#未命名的渐变_137" />
        <linearGradient id="未命名的渐变_137-3" x1="22.91" y1="-247.21" x2="24.11" y2="-247.21" xlink:href="#未命名的渐变_137" />
        <linearGradient id="未命名的渐变_137-4" x1="25.98" y1="-247.21" x2="27.18" y2="-247.21" xlink:href="#未命名的渐变_137" />
        <linearGradient id="未命名的渐变_137-5" x1="15.85" y1="-247.1" x2="28.1" y2="-247.1" xlink:href="#未命名的渐变_137" />
        <linearGradient id="未命名的渐变_19-7" x1="89.96" y1="15.81" x2="79.55" y2="15.81"
            gradientTransform="matrix(1, 0, 0, 1, 0, 0)" xlink:href="#未命名的渐变_19" />
        <linearGradient id="未命名的渐变_376-5" x1="84.76" y1="17.22" x2="84.76" y2="16.43" xlink:href="#未命名的渐变_376" />
        <linearGradient id="未命名的渐变_19-8" x1="90.59" y1="17.48" x2="79.04" y2="17.48"
            gradientTransform="matrix(1, 0, 0, 1, 0, 0)" xlink:href="#未命名的渐变_19" />
        <linearGradient id="未命名的渐变_137-6" x1="79.55" y1="-247.21" x2="80.75" y2="-247.21" xlink:href="#未命名的渐变_137" />
        <linearGradient id="未命名的渐变_137-7" x1="82.62" y1="-247.21" x2="83.82" y2="-247.21" xlink:href="#未命名的渐变_137" />
        <linearGradient id="未命名的渐变_137-8" x1="85.69" y1="-247.21" x2="86.89" y2="-247.21" xlink:href="#未命名的渐变_137" />
        <linearGradient id="未命名的渐变_137-9" x1="88.76" y1="-247.21" x2="89.96" y2="-247.21" xlink:href="#未命名的渐变_137" />
        <linearGradient id="未命名的渐变_137-10" x1="78.63" y1="-247.1" x2="90.88" y2="-247.1" xlink:href="#未命名的渐变_137" />
        <linearGradient id="未命名的渐变_376-6" x1="22.36" y1="16.54" x2="22.36" y2="15.76" xlink:href="#未命名的渐变_376" />
        <linearGradient id="未命名的渐变_27" x1="19.7" y1="9.05" x2="25.1" y2="11.01" gradientUnits="userSpaceOnUse">
            <stop offset="0" stop-color="#a9b1bb" />
            <stop offset="0.09" stop-color="#61666b" />
            <stop offset="0.17" stop-color="#696e73" />
            <stop offset="0.29" stop-color="#7e8489" />
            <stop offset="0.44" stop-color="#a1a7ae" />
            <stop offset="0.61" stop-color="#d1d8e0" />
            <stop offset="0.67" stop-color="#e2eaf2" />
            <stop offset="0.93" stop-color="#9ba1ab" />
            <stop offset="1" stop-color="#767b82" />
        </linearGradient>
        <linearGradient id="未命名的渐变_232-13" x1="26.31" y1="3.9" x2="27.26" y2="9.3" xlink:href="#未命名的渐变_232" />
    </defs>
    <title>Heatled desiccant dryer(加热除湿干燥机)</title>
    <g id="图层_2" data-name="图层 2">
        <g id="图层_16" data-name="图层 16">
            <g id="Heatled_desiccant_dryer_加热除湿干燥机_" data-name="Heatled desiccant dryer(加热除湿干燥机)">
                <polygon class="cls-1" points="24.59 14.84 19.36 14.84 19.36 11.22 24.59 12.41 24.59 14.84" />
                <polygon class="cls-2" points="24.86 10.28 20.44 7.02 23.51 4.39 27.03 8.96 24.86 10.28" />
                <path class="cls-3"
                    d="M87.66,14.4h-5.9V10.7a2,2,0,0,0-.85-1.63L80.76,9h7.9l-.15.11a2,2,0,0,0-.85,1.63Z" />
                <rect class="cls-4" x="83.53" y="9.67" width="2.37" height="2.56" />
                <rect class="cls-5" x="80.87" y="124.85" width="8.38" height="12.87"
                    transform="translate(-46.22 216.34) rotate(-90)" />
                <line class="cls-6" x1="78.62" y1="130.98" x2="91.49" y2="130.98" />
                <circle class="cls-7" cx="85.06" cy="136.33" r="6.44" />
                <circle class="cls-8" cx="85.06" cy="131.84" r="0.86" />
                <circle class="cls-9" cx="85.06" cy="140.83" r="0.86" />
                <circle class="cls-10" cx="80.56" cy="136.33" r="0.86" />
                <circle class="cls-11" cx="89.55" cy="136.33" r="0.86" />
                <circle class="cls-12" cx="81.88" cy="133.16" r="0.86" />
                <circle class="cls-13" cx="88.24" cy="139.51" r="0.86" />
                <circle class="cls-14" cx="81.88" cy="139.51" r="0.86" />
                <circle class="cls-15" cx="88.24" cy="133.16" r="0.86" />
                <rect class="cls-16" x="17.78" y="124.85" width="8.38" height="12.87"
                    transform="translate(-109.32 153.25) rotate(-90)" />
                <polyline class="cls-17" points="40.29 120.41 40.29 25.08 3.64 25.08 3.64 120.41" />
                <rect class="cls-18" x="3.64" y="25.08" width="36.65" height="8.45" />
                <path class="cls-19" d="M40.29,25.08S37.74,17.25,22,17.25,3.64,25.08,3.64,25.08Z" />
                <path class="cls-20" d="M40.29,120.41s-2.55,7.82-18.33,7.82-18.32-7.82-18.32-7.82Z" />
                <path class="cls-21" d="M40.29,120.41s-2.55,7.82-18.33,7.82-18.32-7.82-18.32-7.82Z" />
                <polyline class="cls-22" points="103.38 120.41 103.38 25.08 66.73 25.08 66.73 120.41" />
                <rect class="cls-23" x="66.73" y="25.08" width="36.65" height="8.45" />
                <path class="cls-24" d="M103.38,25.08s-2.55-7.83-18.33-7.83-18.32,7.83-18.32,7.83Z" />
                <path class="cls-25" d="M103.38,120.41s-2.55,7.82-18.33,7.82-18.32-7.82-18.32-7.82Z" />
                <path class="cls-26" d="M103.38,120.41s-2.55,7.82-18.33,7.82-18.32-7.82-18.32-7.82Z" />
                <rect class="cls-27" x="33.66" y="49.09" width="4.42" height="7.82" />
                <rect class="cls-28" x="69.24" y="49.09" width="4.42" height="7.82" />
                <rect class="cls-29" x="34.4" y="50.81" width="38.39" height="5.14" />
                <rect class="cls-30" x="43.83" y="44.22" width="19.37" height="25.38" />
                <path class="cls-31" d="M63,44.44V69.38H44.05V44.44H63m.22-.22H43.83V69.6H63.2V44.22Z" />
                <path class="cls-32"
                    d="M43.83,28.54V44.22h3.5V28.54Zm1.75,1.68a.53.53,0,0,1-.53-.53.53.53,0,1,1,1.05,0A.53.53,0,0,1,45.58,30.22Z" />
                <path class="cls-33"
                    d="M47.25,28.62V44.14H43.91V28.62h3.34m-1.67,1.67a.6.6,0,0,0,.6-.6.61.61,0,1,0-.6.6m1.75-1.75h-3.5V44.22h3.5V28.54Zm-1.75,1.68a.53.53,0,0,1-.53-.53.53.53,0,1,1,1.05,0,.53.53,0,0,1-.52.53Z" />
                <path class="cls-34"
                    d="M59.7,28.54V44.22h3.5V28.54Zm1.75,1.68a.54.54,0,0,1-.54-.53.54.54,0,0,1,.54-.53.53.53,0,0,1,.52.53A.53.53,0,0,1,61.45,30.22Z" />
                <path class="cls-35"
                    d="M63.12,28.62V44.14H59.77V28.62h3.35m-1.67,1.67a.59.59,0,0,0,.59-.6.6.6,0,1,0-.59.6m1.75-1.75H59.7V44.22h3.5V28.54Zm-1.75,1.68a.54.54,0,0,1-.54-.53.54.54,0,0,1,.54-.53.53.53,0,0,1,.52.53.53.53,0,0,1-.52.53Z" />
                <rect class="cls-36" x="47.19" y="46.79" width="12.8" height="13.18" />
                <path class="cls-37" d="M59.86,46.92V59.85H47.32V46.92H59.86m.26-.26H47.06V60.11H60.12V46.66Z" />
                <polygon class="cls-38" points="59.86 46.92 47.32 46.92 47.32 59.85 59.86 46.92" />
                <rect class="cls-39" y="97.85" width="3.64" height="47" />
                <rect class="cls-40" x="103.38" y="97.85" width="3.64" height="47" />
                <rect class="cls-41" x="43.67" y="122.5" width="19.85" height="5.23"
                    transform="translate(178.71 71.53) rotate(90)" />
                <rect class="cls-42" x="51.25" y="109.83" width="4.68" height="12.54"
                    transform="translate(169.69 62.51) rotate(90)" />
                <rect class="cls-43" x="52.42" y="111" width="2.34" height="12.54"
                    transform="translate(170.86 63.68) rotate(90)" />
                <rect class="cls-44" x="52.2" y="118.83" width="2.78" height="6.25"
                    transform="translate(175.55 68.36) rotate(90)" />
                <rect class="cls-45" x="52.37" y="120.72" width="2.44" height="7.69"
                    transform="translate(178.16 70.97) rotate(90)" />
                <rect class="cls-46" x="52.28" y="122.72" width="2.62" height="8.75"
                    transform="translate(180.69 73.5) rotate(90)" />
                <polygon class="cls-47" points="50.46 120.56 47.32 118.44 59.86 118.44 56.72 120.56 50.46 120.56" />
                <polygon class="cls-48" points="50.46 120.56 47.32 118.44 59.86 118.44 56.72 120.56 50.46 120.56" />
                <rect class="cls-49" x="52.98" y="120.11" width="1.22" height="7.69"
                    transform="translate(177.55 70.36) rotate(90)" />
                <rect class="cls-50" x="52.72" y="126.66" width="1.74" height="5.23"
                    transform="translate(182.87 75.69) rotate(90)" />
                <rect class="cls-51" x="38.17" y="98.68" width="25.59" height="4.57"
                    transform="translate(151.92 50) rotate(90)" />
                <path class="cls-52" d="M53.24,88.42v-.5c0-.5-1-.91-2.28-.91h0c-1.25,0-2.28.41-2.28.91v.5Z" />
                <rect class="cls-53" x="49.61" y="87.49" width="2.71" height="4.57"
                    transform="translate(140.73 38.81) rotate(90)" />
                <rect class="cls-54" x="43.4" y="98.68" width="25.59" height="4.57"
                    transform="translate(157.16 44.77) rotate(90)" />
                <path class="cls-55" d="M58.48,88.42v-.5c0-.5-1-.91-2.29-.91h0c-1.25,0-2.28.41-2.28.91v.5Z" />
                <rect class="cls-56" x="54.84" y="87.49" width="2.71" height="4.57"
                    transform="translate(145.97 33.58) rotate(90)" />
                <line class="cls-6" x1="15.53" y1="130.98" x2="28.4" y2="130.98" />
                <circle class="cls-57" cx="21.97" cy="136.33" r="6.44" />
                <circle class="cls-58" cx="21.97" cy="131.84" r="0.86" />
                <circle class="cls-59" cx="21.97" cy="140.83" r="0.86" />
                <circle class="cls-60" cx="17.47" cy="136.33" r="0.86" />
                <circle class="cls-61" cx="26.46" cy="136.33" r="0.86" />
                <circle class="cls-62" cx="18.79" cy="133.16" r="0.86" />
                <circle class="cls-63" cx="25.14" cy="139.51" r="0.86" />
                <circle class="cls-64" cx="18.79" cy="139.51" r="0.86" />
                <circle class="cls-65" cx="25.14" cy="133.16" r="0.86" />
                <path class="cls-66"
                    d="M14.14,133.72H83.35a2.57,2.57,0,0,1,2.57,2.57v.1a2.57,2.57,0,0,1-2.57,2.57H14.14a0,0,0,0,1,0,0v-5.23A0,0,0,0,1,14.14,133.72Z" />
                <rect class="cls-67" x="29.16" y="3.73" width="62.77" height="5.23" />
                <rect class="cls-68" x="12.38" y="130.08" width="1.77" height="12.69" />
                <rect class="cls-69" x="6.96" y="141.07" width="93.51" height="3.79" />
                <path class="cls-70" d="M9.79,145.9v3H1.05v-3H9.79m1-1H0V150H10.83v-5.14Z" />
                <path class="cls-71" d="M106,145.9v3H97.24v-3H106m1-1H96.19V150H107v-5.14Z" />
                <rect class="cls-72" x="91.93" width="1.77" height="12.69" />
                <polygon class="cls-73" points="11.97 144.85 3.64 144.85 3.64 134.39 11.97 144.85" />
                <polygon class="cls-74" points="95.05 144.85 103.38 144.85 103.38 134.39 95.05 144.85" />
                <rect class="cls-75" x="16.77" y="14.4" width="10.41" height="2.82" />
                <rect class="cls-76" x="16.77" y="16.43" width="10.41" height="0.78" />
                <rect class="cls-4" x="16.89" y="15" width="10.3" height="1.15" />
                <rect class="cls-77" x="16.26" y="17.22" width="11.54" height="0.52" />
                <rect class="cls-78" x="16.77" y="14.07" width="1.2" height="2.09" />
                <rect class="cls-79" x="19.84" y="14.07" width="1.2" height="2.09" />
                <rect class="cls-80" x="22.91" y="14.07" width="1.2" height="2.09" />
                <rect class="cls-81" x="25.98" y="14.07" width="1.2" height="2.09" />
                <rect class="cls-82" x="15.85" y="14.4" width="12.25" height="1.21" />
                <rect class="cls-83" x="79.55" y="14.4" width="10.41" height="2.82" />
                <rect class="cls-84" x="79.55" y="16.43" width="10.41" height="0.78" />
                <rect class="cls-4" x="79.67" y="15" width="10.3" height="1.15" />
                <rect class="cls-85" x="79.04" y="17.22" width="11.54" height="0.52" />
                <rect class="cls-86" x="79.55" y="14.07" width="1.2" height="2.09" />
                <rect class="cls-87" x="82.62" y="14.07" width="1.2" height="2.09" />
                <rect class="cls-88" x="85.69" y="14.07" width="1.2" height="2.09" />
                <rect class="cls-89" x="88.76" y="14.07" width="1.2" height="2.09" />
                <rect class="cls-90" x="78.63" y="14.4" width="12.25" height="1.21" />
                <rect class="cls-91" x="17.87" y="15.76" width="8.98" height="0.78" />
                <polygon class="cls-92" points="20.44 7.02 24.86 10.28 24.59 12.41 19.36 11.22 20.44 7.02" />
                <polygon class="cls-93" points="29.16 8.96 29.16 3.73 23.51 4.39 27.03 8.96 29.16 8.96" />
                
            </g>
        </g>
    </g>
</svg>