<svg xmlns="http://www.w3.org/2000/svg" xmlns:xlink="http://www.w3.org/1999/xlink" viewBox="0 0 47.6 150">
    <defs>
        <style>
            .cls-1 {
                fill: url(#未命名的渐变_79);
            }

            .cls-2 {
                fill: url(#未命名的渐变_397);
            }

            .cls-3 {
                fill: url(#未命名的渐变_397-2);
            }

            .cls-4 {
                fill: url(#未命名的渐变_397-3);
            }

            .cls-5 {
                fill: url(#未命名的渐变_306);
            }

            .cls-6 {
                opacity: 0.6;
            }

            .cls-7 {
                fill: url(#未命名的渐变_306-2);
            }

            .cls-8 {
                fill: url(#未命名的渐变_306-3);
            }

            .cls-9 {
                fill: url(#未命名的渐变_306-4);
            }

            .cls-10 {
                fill: url(#未命名的渐变_397-4);
            }

            .cls-11,
            .cls-12,
            .cls-58,
            .cls-59 {
                opacity: 0.4;
            }

            .cls-11 {
                fill: url(#未命名的渐变_376);
            }

            .cls-12 {
                fill: url(#未命名的渐变_376-2);
            }

            .cls-13,
            .cls-14 {
                fill: #5c6066;
                stroke-miterlimit: 10;
                stroke-width: 0.58px;
            }

            .cls-13 {
                stroke: url(#未命名的渐变_39);
            }

            .cls-14 {
                stroke: url(#未命名的渐变_39-2);
            }

            .cls-15 {
                fill: url(#未命名的渐变_62);
            }

            .cls-16 {
                fill: url(#未命名的渐变_62-2);
            }

            .cls-17 {
                fill: url(#未命名的渐变_62-3);
            }

            .cls-18 {
                fill: url(#未命名的渐变_62-4);
            }

            .cls-19 {
                fill: url(#未命名的渐变_62-5);
            }

            .cls-20 {
                fill: url(#未命名的渐变_62-6);
            }

            .cls-21 {
                fill: url(#未命名的渐变_62-7);
            }

            .cls-22 {
                fill: url(#未命名的渐变_62-8);
            }

            .cls-23 {
                fill: url(#未命名的渐变_62-9);
            }

            .cls-24 {
                fill: url(#未命名的渐变_62-10);
            }

            .cls-25 {
                fill: url(#未命名的渐变_62-11);
            }

            .cls-26 {
                fill: url(#未命名的渐变_62-12);
            }

            .cls-27 {
                fill: url(#未命名的渐变_62-13);
            }

            .cls-28 {
                fill: url(#未命名的渐变_62-14);
            }

            .cls-29 {
                fill: url(#未命名的渐变_62-15);
            }

            .cls-30 {
                fill: url(#未命名的渐变_62-16);
            }

            .cls-31 {
                fill: url(#未命名的渐变_62-17);
            }

            .cls-32 {
                fill: url(#未命名的渐变_62-18);
            }

            .cls-33 {
                fill: url(#未命名的渐变_62-19);
            }

            .cls-34 {
                fill: url(#未命名的渐变_62-20);
            }

            .cls-35 {
                fill: url(#未命名的渐变_62-21);
            }

            .cls-36 {
                fill: url(#未命名的渐变_62-22);
            }

            .cls-37 {
                fill: url(#未命名的渐变_62-23);
            }

            .cls-38 {
                fill: url(#未命名的渐变_62-24);
            }

            .cls-39 {
                fill: url(#未命名的渐变_62-25);
            }

            .cls-40 {
                fill: url(#未命名的渐变_62-26);
            }

            .cls-41 {
                fill: url(#未命名的渐变_62-27);
            }

            .cls-42 {
                fill: url(#未命名的渐变_62-28);
            }

            .cls-43 {
                fill: url(#未命名的渐变_62-29);
            }

            .cls-44 {
                fill: url(#未命名的渐变_62-30);
            }

            .cls-45 {
                fill: url(#未命名的渐变_62-31);
            }

            .cls-46 {
                fill: url(#未命名的渐变_62-32);
            }

            .cls-47 {
                fill: url(#未命名的渐变_62-33);
            }

            .cls-48 {
                fill: url(#未命名的渐变_62-34);
            }

            .cls-49 {
                fill: url(#未命名的渐变_62-35);
            }

            .cls-50 {
                fill: url(#未命名的渐变_62-36);
            }

            .cls-51 {
                fill: url(#未命名的渐变_306-5);
            }

            .cls-52 {
                fill: url(#未命名的渐变_306-6);
            }

            .cls-53 {
                fill: url(#未命名的渐变_306-7);
            }

            .cls-54 {
                fill: url(#未命名的渐变_306-8);
            }

            .cls-55 {
                fill: url(#未命名的渐变_306-9);
            }

            .cls-56 {
                fill: url(#未命名的渐变_306-10);
            }

            .cls-57 {
                fill: url(#未命名的渐变_306-11);
            }

            .cls-59 {
                fill: url(#未命名的渐变_376-3);
            }

            .cls-60 {
                fill: url(#未命名的渐变_306-12);
            }

            .cls-61 {
                fill: url(#未命名的渐变_306-13);
            }

            .cls-62 {
                fill: url(#未命名的渐变_306-14);
            }

            .cls-63 {
                fill: url(#未命名的渐变_306-15);
            }

            .cls-64 {
                fill: url(#未命名的渐变_306-16);
            }

            .cls-65 {
                fill: url(#未命名的渐变_306-17);
            }

            .cls-66 {
                fill: url(#未命名的渐变_306-18);
            }

            .cls-67 {
                fill: url(#未命名的渐变_59);
            }

            .cls-68 {
                fill: url(#未命名的渐变_397-5);
            }

            .cls-69 {
                fill: url(#未命名的渐变_397-6);
            }

            .cls-70 {
                fill: url(#未命名的渐变_397-7);
            }

            .cls-71 {
                opacity: 0.2;
            }
        </style>
        <linearGradient id="未命名的渐变_79" x1="32.63" y1="6.25" x2="19.6" y2="6.25" gradientUnits="userSpaceOnUse">
            <stop offset="0" stop-color="#939699" />
            <stop offset="1" stop-color="#5c6166" />
            <stop offset="1" stop-color="#8a9099" />
        </linearGradient>
        <linearGradient id="未命名的渐变_397" x1="56.19" y1="-22.15" x2="54" y2="-22.15"
            gradientTransform="translate(-37.18 31.55)" gradientUnits="userSpaceOnUse">
            <stop offset="0" stop-color="#767b82" />
            <stop offset="0.07" stop-color="#9ba1ab" />
            <stop offset="0.22" stop-color="#e2eaf2" />
            <stop offset="0.28" stop-color="#d1d8e0" />
            <stop offset="0.49" stop-color="#a1a7ae" />
            <stop offset="0.67" stop-color="#7e8489" />
            <stop offset="0.81" stop-color="#696e73" />
            <stop offset="0.91" stop-color="#61666b" />
            <stop offset="1" stop-color="#a9b1bb" />
        </linearGradient>
        <linearGradient id="未命名的渐变_397-2" x1="48.27" y1="-19.35" x2="46.08" y2="-19.35"
            gradientTransform="translate(-17.89 26.45)" xlink:href="#未命名的渐变_397" />
        <linearGradient id="未命名的渐变_397-3" x1="41.61" y1="78" x2="39.42" y2="78"
            gradientTransform="matrix(1, 0, 0, 1, 0, 0)" xlink:href="#未命名的渐变_397" />
        <linearGradient id="未命名的渐变_306" x1="-531.11" y1="606.46" x2="-531.11" y2="612.86"
            gradientTransform="matrix(0.58, 1, 1, 0, -286.99, 628.04)" gradientUnits="userSpaceOnUse">
            <stop offset="0.02" stop-color="#767b82" />
            <stop offset="0.04" stop-color="#d7dce0" />
            <stop offset="0.09" stop-color="#9ba1ab" />
            <stop offset="0.92" stop-color="#9ba1ab" />
            <stop offset="1" stop-color="#767b82" />
        </linearGradient>
        <linearGradient id="未命名的渐变_306-2" x1="-531.11" y1="225.44" x2="-531.11" y2="231.84"
            gradientTransform="matrix(-0.58, 1, -1, 0, -46.42, 628.04)" xlink:href="#未命名的渐变_306" />
        <linearGradient id="未命名的渐变_306-3" x1="-578.66" y1="634.28" x2="-578.66" y2="640.68" xlink:href="#未命名的渐变_306" />
        <linearGradient id="未命名的渐变_306-4" x1="-578.66" y1="253.26" x2="-578.66" y2="259.66"
            gradientTransform="matrix(-0.58, 1, -1, 0, -46.42, 628.04)" xlink:href="#未命名的渐变_306" />
        <linearGradient id="未命名的渐变_397-4" x1="109.63" y1="157.84" x2="85.94" y2="157.84"
            gradientTransform="translate(-74 -76)" xlink:href="#未命名的渐变_397" />
        <linearGradient id="未命名的渐变_376" x1="23.8" y1="41.08" x2="23.8" y2="49.35" gradientUnits="userSpaceOnUse">
            <stop offset="0" stop-color="#2e3033" />
            <stop offset="1" stop-color="#9ba1ab" stop-opacity="0" />
        </linearGradient>
        <linearGradient id="未命名的渐变_376-2" x1="23.8" y1="13.67" x2="23.8" y2="21.83" xlink:href="#未命名的渐变_376" />
        <linearGradient id="未命名的渐变_39" x1="23.8" y1="36.1" x2="23.8" y2="27.11" gradientUnits="userSpaceOnUse">
            <stop offset="0" stop-color="#dce1e6" />
            <stop offset="1" stop-color="#5c6066" />
        </linearGradient>
        <linearGradient id="未命名的渐变_39-2" x1="23.8" y1="77.21" x2="23.8" y2="68.22" xlink:href="#未命名的渐变_39" />
        <linearGradient id="未命名的渐变_62" x1="1116.54" y1="-87.19" x2="1117.5" y2="-87.19"
            gradientTransform="matrix(0.63, 0, 0, 0.51, -692.65, 124.89)" gradientUnits="userSpaceOnUse">
            <stop offset="0" stop-color="#a9b1bb" />
            <stop offset="0.06" stop-color="#5d6166" />
            <stop offset="0.78" stop-color="#eef7ff" />
            <stop offset="0.93" stop-color="#9ba1ab" />
            <stop offset="1" stop-color="#767b82" />
        </linearGradient>
        <linearGradient id="未命名的渐变_62-2" x1="1125.28" y1="-87.19" x2="1126.24" y2="-87.19" xlink:href="#未命名的渐变_62" />
        <linearGradient id="未命名的渐变_62-3" x1="-82.71" y1="82.2" x2="-81.74" y2="82.2"
            gradientTransform="matrix(0.63, 0, 0, 0.93, 62.46, -58.1)" xlink:href="#未命名的渐变_62" />
        <linearGradient id="未命名的渐变_62-4" x1="-88.87" y1="82.2" x2="-87.9" y2="82.2"
            gradientTransform="matrix(0.63, 0, 0, 0.93, 66.32, -54.23)" xlink:href="#未命名的渐变_62" />
        <linearGradient id="未命名的渐变_62-5" x1="-95.03" y1="82.2" x2="-94.07" y2="82.2"
            gradientTransform="matrix(0.63, 0, 0, 0.93, 70.19, -50.37)" xlink:href="#未命名的渐变_62" />
        <linearGradient id="未命名的渐变_62-6" x1="-101.19" y1="82.2" x2="-100.23" y2="82.2"
            gradientTransform="matrix(0.63, 0, 0, 0.93, 74.05, -46.5)" xlink:href="#未命名的渐变_62" />
        <linearGradient id="未命名的渐变_62-7" x1="-107.35" y1="82.2" x2="-106.39" y2="82.2"
            gradientTransform="matrix(0.63, 0, 0, 0.93, 77.92, -42.64)" xlink:href="#未命名的渐变_62" />
        <linearGradient id="未命名的渐变_62-8" x1="-113.51" y1="82.2" x2="-112.55" y2="82.2"
            gradientTransform="matrix(0.63, 0, 0, 0.93, 81.78, -38.78)" xlink:href="#未命名的渐变_62" />
        <linearGradient id="未命名的渐变_62-9" x1="-119.68" y1="82.2" x2="-118.71" y2="82.2"
            gradientTransform="matrix(0.63, 0, 0, 0.93, 85.65, -34.91)" xlink:href="#未命名的渐变_62" />
        <linearGradient id="未命名的渐变_62-10" x1="-125.84" y1="82.2" x2="-124.87" y2="82.2"
            gradientTransform="matrix(0.63, 0, 0, 0.93, 89.51, -31.05)" xlink:href="#未命名的渐变_62" />
        <linearGradient id="未命名的渐变_62-11" x1="-132" y1="82.2" x2="-131.03" y2="82.2"
            gradientTransform="matrix(0.63, 0, 0, 0.93, 93.38, -27.18)" xlink:href="#未命名的渐变_62" />
        <linearGradient id="未命名的渐变_62-12" x1="-138.16" y1="82.2" x2="-137.2" y2="82.2"
            gradientTransform="matrix(0.63, 0, 0, 0.93, 97.24, -23.32)" xlink:href="#未命名的渐变_62" />
        <linearGradient id="未命名的渐变_62-13" x1="-144.32" y1="82.2" x2="-143.36" y2="82.2"
            gradientTransform="matrix(0.63, 0, 0, 0.93, 101.1, -19.45)" xlink:href="#未命名的渐变_62" />
        <linearGradient id="未命名的渐变_62-14" x1="-150.48" y1="82.2" x2="-149.52" y2="82.2"
            gradientTransform="matrix(0.63, 0, 0, 0.93, 104.97, -15.59)" xlink:href="#未命名的渐变_62" />
        <linearGradient id="未命名的渐变_62-15" x1="-156.64" y1="82.2" x2="-155.68" y2="82.2"
            gradientTransform="matrix(0.63, 0, 0, 0.93, 108.83, -11.73)" xlink:href="#未命名的渐变_62" />
        <linearGradient id="未命名的渐变_62-16" x1="-162.8" y1="82.2" x2="-161.84" y2="82.2"
            gradientTransform="matrix(0.63, 0, 0, 0.93, 112.7, -7.86)" xlink:href="#未命名的渐变_62" />
        <linearGradient id="未命名的渐变_62-17" x1="-168.97" y1="82.2" x2="-168" y2="82.2"
            gradientTransform="matrix(0.63, 0, 0, 0.93, 116.56, -4)" xlink:href="#未命名的渐变_62" />
        <linearGradient id="未命名的渐变_62-18" x1="-175.13" y1="82.2" x2="-174.16" y2="82.2"
            gradientTransform="matrix(0.63, 0, 0, 0.93, 120.43, -0.13)" xlink:href="#未命名的渐变_62" />
        <linearGradient id="未命名的渐变_62-19" x1="-181.29" y1="82.2" x2="-180.32" y2="82.2"
            gradientTransform="matrix(0.63, 0, 0, 0.93, 124.29, 3.73)" xlink:href="#未命名的渐变_62" />
        <linearGradient id="未命名的渐变_62-20" x1="-187.45" y1="82.2" x2="-186.49" y2="82.2"
            gradientTransform="matrix(0.63, 0, 0, 0.93, 128.15, 7.6)" xlink:href="#未命名的渐变_62" />
        <linearGradient id="未命名的渐变_62-21" x1="-193.61" y1="82.2" x2="-192.65" y2="82.2"
            gradientTransform="matrix(0.63, 0, 0, 0.93, 132.02, 11.46)" xlink:href="#未命名的渐变_62" />
        <linearGradient id="未命名的渐变_62-22" x1="-199.77" y1="82.2" x2="-198.81" y2="82.2"
            gradientTransform="matrix(0.63, 0, 0, 0.93, 135.88, 15.33)" xlink:href="#未命名的渐变_62" />
        <linearGradient id="未命名的渐变_62-23" x1="-205.93" y1="82.2" x2="-204.97" y2="82.2"
            gradientTransform="matrix(0.63, 0, 0, 0.93, 139.75, 19.19)" xlink:href="#未命名的渐变_62" />
        <linearGradient id="未命名的渐变_62-24" x1="-212.09" y1="82.2" x2="-211.13" y2="82.2"
            gradientTransform="matrix(0.63, 0, 0, 0.93, 143.61, 23.05)" xlink:href="#未命名的渐变_62" />
        <linearGradient id="未命名的渐变_62-25" x1="-218.26" y1="82.2" x2="-217.29" y2="82.2"
            gradientTransform="matrix(0.63, 0, 0, 0.93, 147.48, 26.92)" xlink:href="#未命名的渐变_62" />
        <linearGradient id="未命名的渐变_62-26" x1="-224.42" y1="82.2" x2="-223.45" y2="82.2"
            gradientTransform="matrix(0.63, 0, 0, 0.93, 151.34, 30.78)" xlink:href="#未命名的渐变_62" />
        <linearGradient id="未命名的渐变_62-27" x1="-230.58" y1="82.2" x2="-229.61" y2="82.2"
            gradientTransform="matrix(0.63, 0, 0, 0.93, 155.2, 34.65)" xlink:href="#未命名的渐变_62" />
        <linearGradient id="未命名的渐变_62-28" x1="-236.74" y1="82.2" x2="-235.78" y2="82.2"
            gradientTransform="matrix(0.63, 0, 0, 0.93, 159.07, 38.51)" xlink:href="#未命名的渐变_62" />
        <linearGradient id="未命名的渐变_62-29" x1="-242.9" y1="82.2" x2="-241.94" y2="82.2"
            gradientTransform="matrix(0.63, 0, 0, 0.93, 162.93, 42.38)" xlink:href="#未命名的渐变_62" />
        <linearGradient id="未命名的渐变_62-30" x1="-249.06" y1="82.2" x2="-248.1" y2="82.2"
            gradientTransform="matrix(0.63, 0, 0, 0.93, 166.8, 46.24)" xlink:href="#未命名的渐变_62" />
        <linearGradient id="未命名的渐变_62-31" x1="-255.22" y1="82.2" x2="-254.26" y2="82.2"
            gradientTransform="matrix(0.63, 0, 0, 0.93, 170.66, 50.1)" xlink:href="#未命名的渐变_62" />
        <linearGradient id="未命名的渐变_62-32" x1="-261.38" y1="82.2" x2="-260.42" y2="82.2"
            gradientTransform="matrix(0.63, 0, 0, 0.93, 174.53, 53.97)" xlink:href="#未命名的渐变_62" />
        <linearGradient id="未命名的渐变_62-33" x1="-267.55" y1="82.2" x2="-266.58" y2="82.2"
            gradientTransform="matrix(0.63, 0, 0, 0.93, 178.39, 57.83)" xlink:href="#未命名的渐变_62" />
        <linearGradient id="未命名的渐变_62-34" x1="-273.71" y1="82.2" x2="-272.74" y2="82.2"
            gradientTransform="matrix(0.63, 0, 0, 0.93, 182.25, 61.7)" xlink:href="#未命名的渐变_62" />
        <linearGradient id="未命名的渐变_62-35" x1="-279.87" y1="82.2" x2="-278.91" y2="82.2"
            gradientTransform="matrix(0.63, 0, 0, 0.93, 186.12, 65.56)" xlink:href="#未命名的渐变_62" />
        <linearGradient id="未命名的渐变_62-36" x1="-80.57" y1="82.23" x2="-79.61" y2="82.23"
            gradientTransform="matrix(0.63, 0, 0, 0.93, 61.16, -61.58)" xlink:href="#未命名的渐变_62" />
        <linearGradient id="未命名的渐变_306-5" x1="-101.88" y1="-7" x2="-100.86" y2="-7"
            gradientTransform="matrix(1.79, 0, 0, 1.11, 205.01, 39.94)" xlink:href="#未命名的渐变_306" />
        <linearGradient id="未命名的渐变_306-6" x1="-98.68" y1="-7" x2="-97.65" y2="-7"
            gradientTransform="matrix(1.79, 0, 0, 1.11, 199.27, 34.2)" xlink:href="#未命名的渐变_306" />
        <linearGradient id="未命名的渐变_306-7" x1="14.53" y1="-213.74" x2="15.56" y2="-213.74"
            gradientTransform="matrix(1.79, 0, 0, 0.47, -23.89, 132.67)" xlink:href="#未命名的渐变_306" />
        <linearGradient id="未命名的渐变_306-8" x1="18.59" y1="-213.74" x2="19.61" y2="-213.74"
            gradientTransform="matrix(1.79, 0, 0, 0.47, -23.89, 132.67)" xlink:href="#未命名的渐变_306" />
        <linearGradient id="未命名的渐变_306-9" x1="33.73" y1="-213.74" x2="34.76" y2="-213.74"
            gradientTransform="matrix(1.79, 0, 0, 0.47, -23.89, 132.67)" xlink:href="#未命名的渐变_306" />
        <linearGradient id="未命名的渐变_306-10" x1="37.8" y1="-213.74" x2="38.83" y2="-213.74"
            gradientTransform="matrix(1.79, 0, 0, 0.47, -23.89, 132.67)" xlink:href="#未命名的渐变_306" />
        <linearGradient id="未命名的渐变_306-11" x1="23.8" y1="37.67" x2="23.8" y2="41.08"
            gradientTransform="matrix(1, 0, 0, 1, 0, 0)" xlink:href="#未命名的渐变_306" />
        <linearGradient id="未命名的渐变_376-3" x1="23.8" y1="88.64" x2="23.8" y2="96.9" xlink:href="#未命名的渐变_376" />
        <linearGradient id="未命名的渐变_306-12" x1="-128.49" y1="-7" x2="-127.46" y2="-7"
            gradientTransform="matrix(1.79, 0, 0, 1.11, 252.56, 87.49)" xlink:href="#未命名的渐变_306" />
        <linearGradient id="未命名的渐变_306-13" x1="-125.28" y1="-7" x2="-124.25" y2="-7"
            gradientTransform="matrix(1.79, 0, 0, 1.11, 246.82, 81.76)" xlink:href="#未命名的渐变_306" />
        <linearGradient id="未命名的渐变_306-14" x1="14.53" y1="-113.17" x2="15.56" y2="-113.17"
            gradientTransform="matrix(1.79, 0, 0, 0.47, -23.89, 132.67)" xlink:href="#未命名的渐变_306" />
        <linearGradient id="未命名的渐变_306-15" x1="18.59" y1="-113.17" x2="19.62" y2="-113.17"
            gradientTransform="matrix(1.79, 0, 0, 0.47, -23.89, 132.67)" xlink:href="#未命名的渐变_306" />
        <linearGradient id="未命名的渐变_306-16" x1="33.73" y1="-113.17" x2="34.76" y2="-113.17"
            gradientTransform="matrix(1.79, 0, 0, 0.47, -23.89, 132.67)" xlink:href="#未命名的渐变_306" />
        <linearGradient id="未命名的渐变_306-17" x1="37.8" y1="-113.17" x2="38.83" y2="-113.17"
            gradientTransform="matrix(1.79, 0, 0, 0.47, -23.89, 132.67)" xlink:href="#未命名的渐变_306" />
        <linearGradient id="未命名的渐变_306-18" x1="23.8" y1="85.23" x2="23.8" y2="88.64"
            gradientTransform="matrix(1, 0, 0, 1, 0, 0)" xlink:href="#未命名的渐变_306" />
        <linearGradient id="未命名的渐变_59" x1="36.9" y1="11.74" x2="10.71" y2="11.74" gradientUnits="userSpaceOnUse">
            <stop offset="0" stop-color="#d7dce0" />
            <stop offset="1" stop-color="#8a9099" />
        </linearGradient>
        <linearGradient id="未命名的渐变_397-5" x1="6.12" y1="77.45" x2="3.93" y2="77.45"
            gradientTransform="matrix(1, 0, 0, 1, 0, 0)" xlink:href="#未命名的渐变_397" />
        <linearGradient id="未命名的渐变_397-6" x1="49.37" y1="-33.63" x2="47.18" y2="-33.63"
            gradientTransform="translate(-33.26 39.63)" xlink:href="#未命名的渐变_397" />
        <linearGradient id="未命名的渐变_397-7" x1="63.3" y1="-28" x2="61.1" y2="-28" xlink:href="#未命名的渐变_397" />
    </defs>
    <title>Process column 4(工艺塔4)</title>
    <g id="图层_2" data-name="图层 2">
        <g id="图层_16" data-name="图层 16">
            <g id="Process_column_4_工艺塔4_" data-name="Process column 4(工艺塔4)">
                <rect class="cls-1" x="19.6" y="2.7" width="13.03" height="7.1" />
                <rect class="cls-2" x="16.82" y="5.85" width="2.19" height="7.1" rx="1.1" />
                <rect class="cls-3" x="28.19" y="-5.23" width="2.19" height="24.65" rx="1.1"
                    transform="translate(22.19 36.38) rotate(-90)" />
                <rect class="cls-4" x="39.42" y="6" width="2.19" height="144" rx="1.09" />
                <polygon class="cls-5" points="20.02 105.22 7.49 88.64 3.93 88.64 16.46 105.22 20.02 105.22" />
                <polygon class="cls-6" points="20.02 105.22 7.49 88.64 3.93 88.64 16.46 105.22 20.02 105.22" />
                <polygon class="cls-7" points="27.58 105.22 40.12 88.64 43.68 88.64 31.14 105.22 27.58 105.22" />
                <polygon class="cls-6" points="27.58 105.22 40.12 88.64 43.68 88.64 31.14 105.22 27.58 105.22" />
                <polygon class="cls-8" points="20.02 57.66 7.49 41.08 3.93 41.08 16.46 57.66 20.02 57.66" />
                <polygon class="cls-6" points="20.02 57.66 7.49 41.08 3.93 41.08 16.46 57.66 20.02 57.66" />
                <polygon class="cls-9" points="27.58 57.66 40.12 41.08 43.68 41.08 31.14 57.66 27.58 57.66" />
                <polygon class="cls-6" points="27.58 57.66 40.12 41.08 43.68 41.08 31.14 57.66 27.58 57.66" />
                <polyline class="cls-10" points="35.63 13.67 35.63 150 11.94 150 11.94 13.67" />
                <rect class="cls-11" x="11.98" y="41.08" width="23.65" height="8.27" />
                <rect class="cls-12" x="11.98" y="13.67" width="23.65" height="8.15" />
                <circle class="cls-13" cx="23.8" cy="31.61" r="4.2" />
                <circle class="cls-14" cx="23.8" cy="72.71" r="4.2" />
                <rect class="cls-15" x="7.86" y="14.85" width="0.6" height="131.91" rx="0.28" />
                <rect class="cls-16" x="13.35" y="14.85" width="0.6" height="131.91" rx="0.28" />
                <rect class="cls-17" x="10.59" y="15.59" width="0.6" height="6.05" rx="0.3"
                    transform="translate(-7.72 29.5) rotate(-90)" />
                <rect class="cls-18" x="10.59" y="19.45" width="0.6" height="6.05" rx="0.3"
                    transform="translate(-11.59 33.37) rotate(-90)" />
                <rect class="cls-19" x="10.59" y="23.32" width="0.6" height="6.05" rx="0.3"
                    transform="translate(-15.45 37.23) rotate(-90)" />
                <rect class="cls-20" x="10.59" y="27.18" width="0.6" height="6.05" rx="0.3"
                    transform="translate(-19.32 41.1) rotate(-90)" />
                <rect class="cls-21" x="10.59" y="31.04" width="0.6" height="6.05" rx="0.3"
                    transform="translate(-23.18 44.96) rotate(-90)" />
                <rect class="cls-22" x="10.59" y="34.91" width="0.6" height="6.05" rx="0.3"
                    transform="translate(-27.05 48.82) rotate(-90)" />
                <rect class="cls-23" x="10.59" y="38.77" width="0.6" height="6.05" rx="0.3"
                    transform="matrix(0, -1, 1, 0, -30.91, 52.69)" />
                <rect class="cls-24" x="10.59" y="42.64" width="0.6" height="6.05" rx="0.3"
                    transform="translate(-34.77 56.55) rotate(-90)" />
                <rect class="cls-25" x="10.59" y="46.5" width="0.6" height="6.05" rx="0.3"
                    transform="matrix(0, -1, 1, 0, -38.64, 60.42)" />
                <rect class="cls-26" x="10.59" y="50.37" width="0.6" height="6.05" rx="0.3"
                    transform="matrix(0, -1, 1, 0, -42.5, 64.28)" />
                <rect class="cls-27" x="10.59" y="54.23" width="0.6" height="6.05" rx="0.3"
                    transform="matrix(0, -1, 1, 0, -46.37, 68.15)" />
                <rect class="cls-28" x="10.59" y="58.09" width="0.6" height="6.05" rx="0.3"
                    transform="translate(-50.23 72.01) rotate(-90)" />
                <rect class="cls-29" x="10.59" y="61.96" width="0.6" height="6.05" rx="0.3"
                    transform="translate(-54.1 75.87) rotate(-90)" />
                <rect class="cls-30" x="10.59" y="65.82" width="0.6" height="6.05" rx="0.3"
                    transform="translate(-57.96 79.74) rotate(-90)" />
                <rect class="cls-31" x="10.59" y="69.69" width="0.6" height="6.05" rx="0.3"
                    transform="translate(-61.82 83.6) rotate(-90)" />
                <rect class="cls-32" x="10.59" y="73.55" width="0.6" height="6.05" rx="0.3"
                    transform="matrix(0, -1, 1, 0, -65.69, 87.47)" />
                <rect class="cls-33" x="10.59" y="77.42" width="0.6" height="6.05" rx="0.3"
                    transform="translate(-69.55 91.33) rotate(-90)" />
                <rect class="cls-34" x="10.59" y="81.28" width="0.6" height="6.05" rx="0.3"
                    transform="matrix(0, -1, 1, 0, -73.42, 95.2)" />
                <rect class="cls-35" x="10.59" y="85.14" width="0.6" height="6.05" rx="0.3"
                    transform="translate(-77.28 99.06) rotate(-90)" />
                <rect class="cls-36" x="10.59" y="89.01" width="0.6" height="6.05" rx="0.3"
                    transform="translate(-81.15 102.93) rotate(-90)" />
                <rect class="cls-37" x="10.59" y="92.87" width="0.6" height="6.05" rx="0.3"
                    transform="translate(-85.01 106.79) rotate(-90)" />
                <rect class="cls-38" x="10.59" y="96.74" width="0.6" height="6.05" rx="0.3"
                    transform="translate(-88.87 110.65) rotate(-90)" />
                <rect class="cls-39" x="10.59" y="100.6" width="0.6" height="6.05" rx="0.3"
                    transform="translate(-92.74 114.52) rotate(-90)" />
                <rect class="cls-40" x="10.59" y="104.47" width="0.6" height="6.05" rx="0.3"
                    transform="translate(-96.6 118.38) rotate(-90)" />
                <rect class="cls-41" x="10.59" y="108.33" width="0.6" height="6.05" rx="0.3"
                    transform="translate(-100.47 122.25) rotate(-90)" />
                <rect class="cls-42" x="10.59" y="112.19" width="0.6" height="6.05" rx="0.3"
                    transform="translate(-104.33 126.11) rotate(-90)" />
                <rect class="cls-43" x="10.59" y="116.06" width="0.6" height="6.05" rx="0.3"
                    transform="matrix(0, -1, 1, 0, -108.2, 129.98)" />
                <rect class="cls-44" x="10.59" y="119.92" width="0.6" height="6.05" rx="0.3"
                    transform="translate(-112.06 133.84) rotate(-90)" />
                <rect class="cls-45" x="10.59" y="123.79" width="0.6" height="6.05" rx="0.3"
                    transform="matrix(0, -1, 1, 0, -115.92, 137.7)" />
                <rect class="cls-46" x="10.59" y="127.65" width="0.6" height="6.05" rx="0.3"
                    transform="translate(-119.79 141.57) rotate(-90)" />
                <rect class="cls-47" x="10.59" y="131.52" width="0.6" height="6.05" rx="0.3"
                    transform="matrix(0, -1, 1, 0, -123.65, 145.43)" />
                <rect class="cls-48" x="10.59" y="135.38" width="0.6" height="6.05" rx="0.3"
                    transform="translate(-127.52 149.3) rotate(-90)" />
                <rect class="cls-49" x="10.59" y="139.24" width="0.6" height="6.05" rx="0.3"
                    transform="translate(-131.38 153.16) rotate(-90)" />
                <rect class="cls-50" x="10.61" y="12.11" width="0.6" height="6.08" rx="0.3"
                    transform="translate(-4.24 26.07) rotate(-90)" />
                <rect class="cls-51" x="22.88" y="10.49" width="1.84" height="43.43"
                    transform="translate(-8.4 56.01) rotate(-90)" />
                <rect class="cls-52" x="22.88" y="4.75" width="1.84" height="43.43"
                    transform="translate(-2.66 50.27) rotate(-90)" />
                <rect class="cls-53" x="2.09" y="25.55" width="1.84" height="12.13" />
                <rect class="cls-54" x="9.33" y="25.55" width="1.84" height="12.13" />
                <rect class="cls-55" x="36.4" y="25.55" width="1.84" height="12.13" />
                <rect class="cls-56" x="43.68" y="25.55" width="1.84" height="12.13" />
                <rect class="cls-57" x="2.09" y="37.67" width="43.43" height="3.41" />
                <rect class="cls-58" x="22.17" y="41.08" width="3.26" height="11.12" />
                <rect class="cls-59" x="11.98" y="88.64" width="23.65" height="8.27" />
                <rect class="cls-60" x="22.88" y="58.04" width="1.84" height="43.43"
                    transform="translate(-55.96 103.56) rotate(-90)" />
                <rect class="cls-61" x="22.88" y="52.3" width="1.84" height="43.43"
                    transform="translate(-50.22 97.82) rotate(-90)" />
                <rect class="cls-62" x="2.09" y="73.1" width="1.84" height="12.13" />
                <rect class="cls-63" x="9.33" y="73.1" width="1.84" height="12.13" />
                <rect class="cls-64" x="36.4" y="73.1" width="1.84" height="12.13" />
                <rect class="cls-65" x="43.68" y="73.1" width="1.84" height="12.13" />
                <rect class="cls-66" x="2.09" y="85.23" width="43.43" height="3.41" />
                <rect class="cls-58" x="22.17" y="88.64" width="3.26" height="11.12" />
                <rect class="cls-67" x="10.71" y="9.8" width="26.19" height="3.87" />
                <rect class="cls-68" x="3.93" y="4.9" width="2.19" height="145.1" rx="1.1" />
                <rect class="cls-69" x="13.91" y="-5.09" width="2.19" height="22.17" rx="1.1"
                    transform="translate(9.01 21.01) rotate(-90)" />
                <rect class="cls-70" x="23.92" width="2.19" height="7.1" rx="1.1" />
               
            </g>
        </g>
    </g>
</svg>