<svg xmlns="http://www.w3.org/2000/svg" xmlns:xlink="http://www.w3.org/1999/xlink" viewBox="0 0 47.6 150">
    <defs>
        <style>
            .cls-1 {
                fill: url(#未命名的渐变_306);
            }

            .cls-2 {
                opacity: 0.6;
            }

            .cls-3 {
                fill: url(#未命名的渐变_306-2);
            }

            .cls-4 {
                fill: url(#未命名的渐变_306-3);
            }

            .cls-5 {
                fill: url(#未命名的渐变_306-4);
            }

            .cls-6 {
                fill: url(#未命名的渐变_306-5);
            }

            .cls-7 {
                fill: url(#未命名的渐变_306-6);
            }

            .cls-8 {
                fill: url(#未命名的渐变_397);
            }

            .cls-10,
            .cls-54,
            .cls-55,
            .cls-63,
            .cls-9 {
                opacity: 0.4;
            }

            .cls-9 {
                fill: url(#未命名的渐变_376);
            }

            .cls-10 {
                fill: url(#未命名的渐变_376-2);
            }

            .cls-11 {
                fill: url(#未命名的渐变_62);
            }

            .cls-12 {
                fill: url(#未命名的渐变_62-2);
            }

            .cls-13 {
                fill: url(#未命名的渐变_62-3);
            }

            .cls-14 {
                fill: url(#未命名的渐变_62-4);
            }

            .cls-15 {
                fill: url(#未命名的渐变_62-5);
            }

            .cls-16 {
                fill: url(#未命名的渐变_62-6);
            }

            .cls-17 {
                fill: url(#未命名的渐变_62-7);
            }

            .cls-18 {
                fill: url(#未命名的渐变_62-8);
            }

            .cls-19 {
                fill: url(#未命名的渐变_62-9);
            }

            .cls-20 {
                fill: url(#未命名的渐变_62-10);
            }

            .cls-21 {
                fill: url(#未命名的渐变_62-11);
            }

            .cls-22 {
                fill: url(#未命名的渐变_62-12);
            }

            .cls-23 {
                fill: url(#未命名的渐变_62-13);
            }

            .cls-24 {
                fill: url(#未命名的渐变_62-14);
            }

            .cls-25 {
                fill: url(#未命名的渐变_62-15);
            }

            .cls-26 {
                fill: url(#未命名的渐变_62-16);
            }

            .cls-27 {
                fill: url(#未命名的渐变_62-17);
            }

            .cls-28 {
                fill: url(#未命名的渐变_62-18);
            }

            .cls-29 {
                fill: url(#未命名的渐变_62-19);
            }

            .cls-30 {
                fill: url(#未命名的渐变_62-20);
            }

            .cls-31 {
                fill: url(#未命名的渐变_62-21);
            }

            .cls-32 {
                fill: url(#未命名的渐变_62-22);
            }

            .cls-33 {
                fill: url(#未命名的渐变_62-23);
            }

            .cls-34 {
                fill: url(#未命名的渐变_62-24);
            }

            .cls-35 {
                fill: url(#未命名的渐变_62-25);
            }

            .cls-36 {
                fill: url(#未命名的渐变_62-26);
            }

            .cls-37 {
                fill: url(#未命名的渐变_62-27);
            }

            .cls-38 {
                fill: url(#未命名的渐变_62-28);
            }

            .cls-39 {
                fill: url(#未命名的渐变_62-29);
            }

            .cls-40 {
                fill: url(#未命名的渐变_62-30);
            }

            .cls-41 {
                fill: url(#未命名的渐变_62-31);
            }

            .cls-42 {
                fill: url(#未命名的渐变_62-32);
            }

            .cls-43 {
                fill: url(#未命名的渐变_62-33);
            }

            .cls-44 {
                fill: url(#未命名的渐变_62-34);
            }

            .cls-45 {
                fill: url(#未命名的渐变_62-35);
            }

            .cls-46 {
                fill: url(#未命名的渐变_62-36);
            }

            .cls-47 {
                fill: url(#未命名的渐变_306-7);
            }

            .cls-48 {
                fill: url(#未命名的渐变_306-8);
            }

            .cls-49 {
                fill: url(#未命名的渐变_306-9);
            }

            .cls-50 {
                fill: url(#未命名的渐变_306-10);
            }

            .cls-51 {
                fill: url(#未命名的渐变_306-11);
            }

            .cls-52 {
                fill: url(#未命名的渐变_306-12);
            }

            .cls-53 {
                fill: url(#未命名的渐变_306-13);
            }

            .cls-55 {
                fill: url(#未命名的渐变_376-3);
            }

            .cls-56 {
                fill: url(#未命名的渐变_306-14);
            }

            .cls-57 {
                fill: url(#未命名的渐变_306-15);
            }

            .cls-58 {
                fill: url(#未命名的渐变_306-16);
            }

            .cls-59 {
                fill: url(#未命名的渐变_306-17);
            }

            .cls-60 {
                fill: url(#未命名的渐变_306-18);
            }

            .cls-61 {
                fill: url(#未命名的渐变_306-19);
            }

            .cls-62 {
                fill: url(#未命名的渐变_306-20);
            }

            .cls-63 {
                fill: url(#未命名的渐变_376-4);
            }

            .cls-64 {
                fill: url(#未命名的渐变_306-21);
            }

            .cls-65 {
                fill: url(#未命名的渐变_306-22);
            }

            .cls-66 {
                fill: url(#未命名的渐变_306-23);
            }

            .cls-67 {
                fill: url(#未命名的渐变_306-24);
            }

            .cls-68 {
                fill: url(#未命名的渐变_306-25);
            }

            .cls-69 {
                fill: url(#未命名的渐变_306-26);
            }

            .cls-70 {
                fill: url(#未命名的渐变_306-27);
            }

            .cls-71 {
                fill: url(#未命名的渐变_74);
            }

            .cls-72 {
                opacity: 0.2;
            }
        </style>
        <linearGradient id="未命名的渐变_306" x1="-303.17" y1="391.06" x2="-303.17" y2="397.06"
            gradientTransform="matrix(0.58, 1, 1, 0, -203.99, 428.04)" gradientUnits="userSpaceOnUse">
            <stop offset="0.02" stop-color="#767b82" />
            <stop offset="0.04" stop-color="#d7dce0" />
            <stop offset="0.09" stop-color="#9ba1ab" />
            <stop offset="0.92" stop-color="#9ba1ab" />
            <stop offset="1" stop-color="#767b82" />
        </linearGradient>
        <linearGradient id="未命名的渐变_306-2" x1="-303.17" y1="410.04" x2="-303.17" y2="416.04"
            gradientTransform="matrix(-0.58, 1, -1, 0, 270.57, 428.04)" xlink:href="#未命名的渐变_306" />
        <linearGradient id="未命名的渐变_306-3" x1="-348.88" y1="417.8" x2="-348.88" y2="423.8" xlink:href="#未命名的渐变_306" />
        <linearGradient id="未命名的渐变_306-4" x1="-348.88" y1="436.78" x2="-348.88" y2="442.78"
            gradientTransform="matrix(-0.58, 1, -1, 0, 270.57, 428.04)" xlink:href="#未命名的渐变_306" />
        <linearGradient id="未命名的渐变_306-5" x1="-389.26" y1="441.42" x2="-389.26" y2="447.42" xlink:href="#未命名的渐变_306" />
        <linearGradient id="未命名的渐变_306-6" x1="-389.26" y1="460.4" x2="-389.26" y2="466.4"
            gradientTransform="matrix(-0.58, 1, -1, 0, 270.57, 428.04)" xlink:href="#未命名的渐变_306" />
        <linearGradient id="未命名的渐变_397" x1="108.89" y1="154.16" x2="86.69" y2="154.16"
            gradientTransform="translate(-74 -76)" gradientUnits="userSpaceOnUse">
            <stop offset="0" stop-color="#767b82" />
            <stop offset="0.07" stop-color="#9ba1ab" />
            <stop offset="0.22" stop-color="#e2eaf2" />
            <stop offset="0.28" stop-color="#d1d8e0" />
            <stop offset="0.49" stop-color="#a1a7ae" />
            <stop offset="0.67" stop-color="#7e8489" />
            <stop offset="0.81" stop-color="#696e73" />
            <stop offset="0.91" stop-color="#61666b" />
            <stop offset="1" stop-color="#a9b1bb" />
        </linearGradient>
        <linearGradient id="未命名的渐变_376" x1="23.8" y1="31.01" x2="23.8" y2="38.76" gradientUnits="userSpaceOnUse">
            <stop offset="0" stop-color="#2e3033" />
            <stop offset="1" stop-color="#9ba1ab" stop-opacity="0" />
        </linearGradient>
        <linearGradient id="未命名的渐变_376-2" x1="23.8" y1="6.32" x2="23.8" y2="13.96" xlink:href="#未命名的渐变_376" />
        <linearGradient id="未命名的渐变_62" x1="1027.19" y1="-167.04" x2="1028.09" y2="-167.04"
            gradientTransform="matrix(0.63, 0, 0, 0.51, -618.13, 124.9)" gradientUnits="userSpaceOnUse">
            <stop offset="0" stop-color="#a9b1bb" />
            <stop offset="0.06" stop-color="#5d6166" />
            <stop offset="0.78" stop-color="#eef7ff" />
            <stop offset="0.93" stop-color="#9ba1ab" />
            <stop offset="1" stop-color="#767b82" />
        </linearGradient>
        <linearGradient id="未命名的渐变_62-2" x1="1035.39" y1="-167.04" x2="1036.29" y2="-167.04" xlink:href="#未命名的渐变_62" />
        <linearGradient id="未命名的渐变_62-3" x1="124.41" y1="-112.53" x2="125.31" y2="-112.53"
            gradientTransform="matrix(0.63, 0, 0, 0.93, -49.15, 119.18)" xlink:href="#未命名的渐变_62" />
        <linearGradient id="未命名的渐变_62-4" x1="118.49" y1="-112.53" x2="119.39" y2="-112.53"
            gradientTransform="matrix(0.63, 0, 0, 0.93, -45.43, 122.9)" xlink:href="#未命名的渐变_62" />
        <linearGradient id="未命名的渐变_62-5" x1="112.57" y1="-112.53" x2="113.47" y2="-112.53"
            gradientTransform="matrix(0.63, 0, 0, 0.93, -41.72, 126.61)" xlink:href="#未命名的渐变_62" />
        <linearGradient id="未命名的渐变_62-6" x1="106.64" y1="-112.53" x2="107.55" y2="-112.53"
            gradientTransform="matrix(0.63, 0, 0, 0.93, -38, 130.33)" xlink:href="#未命名的渐变_62" />
        <linearGradient id="未命名的渐变_62-7" x1="100.72" y1="-112.53" x2="101.63" y2="-112.53"
            gradientTransform="matrix(0.63, 0, 0, 0.93, -34.29, 134.04)" xlink:href="#未命名的渐变_62" />
        <linearGradient id="未命名的渐变_62-8" x1="94.8" y1="-112.53" x2="95.7" y2="-112.53"
            gradientTransform="matrix(0.63, 0, 0, 0.93, -30.58, 137.75)" xlink:href="#未命名的渐变_62" />
        <linearGradient id="未命名的渐变_62-9" x1="88.88" y1="-112.53" x2="89.78" y2="-112.53"
            gradientTransform="matrix(0.63, 0, 0, 0.93, -26.86, 141.47)" xlink:href="#未命名的渐变_62" />
        <linearGradient id="未命名的渐变_62-10" x1="82.96" y1="-112.53" x2="83.86" y2="-112.53"
            gradientTransform="matrix(0.63, 0, 0, 0.93, -23.15, 145.18)" xlink:href="#未命名的渐变_62" />
        <linearGradient id="未命名的渐变_62-11" x1="77.03" y1="-112.53" x2="77.94" y2="-112.53"
            gradientTransform="matrix(0.63, 0, 0, 0.93, -19.43, 148.9)" xlink:href="#未命名的渐变_62" />
        <linearGradient id="未命名的渐变_62-12" x1="71.11" y1="-112.53" x2="72.02" y2="-112.53"
            gradientTransform="matrix(0.63, 0, 0, 0.93, -15.72, 152.61)" xlink:href="#未命名的渐变_62" />
        <linearGradient id="未命名的渐变_62-13" x1="65.19" y1="-112.53" x2="66.09" y2="-112.53"
            gradientTransform="matrix(0.63, 0, 0, 0.93, -12, 156.33)" xlink:href="#未命名的渐变_62" />
        <linearGradient id="未命名的渐变_62-14" x1="59.27" y1="-112.53" x2="60.17" y2="-112.53"
            gradientTransform="matrix(0.63, 0, 0, 0.93, -8.29, 160.04)" xlink:href="#未命名的渐变_62" />
        <linearGradient id="未命名的渐变_62-15" x1="53.35" y1="-112.53" x2="54.25" y2="-112.53"
            gradientTransform="matrix(0.63, 0, 0, 0.93, -4.58, 163.75)" xlink:href="#未命名的渐变_62" />
        <linearGradient id="未命名的渐变_62-16" x1="47.42" y1="-112.53" x2="48.33" y2="-112.53"
            gradientTransform="matrix(0.63, 0, 0, 0.93, -0.86, 167.47)" xlink:href="#未命名的渐变_62" />
        <linearGradient id="未命名的渐变_62-17" x1="41.5" y1="-112.53" x2="42.41" y2="-112.53"
            gradientTransform="matrix(0.63, 0, 0, 0.93, 2.85, 171.18)" xlink:href="#未命名的渐变_62" />
        <linearGradient id="未命名的渐变_62-18" x1="126.2" y1="-112.51" x2="127.1" y2="-112.51"
            gradientTransform="matrix(0.63, 0, 0, 0.93, -50.27, 115.92)" xlink:href="#未命名的渐变_62" />
        <linearGradient id="未命名的渐变_62-19" x1="1027.19" y1="-11.25" x2="1028.09" y2="-11.25" xlink:href="#未命名的渐变_62" />
        <linearGradient id="未命名的渐变_62-20" x1="1035.39" y1="-11.25" x2="1036.29" y2="-11.25" xlink:href="#未命名的渐变_62" />
        <linearGradient id="未命名的渐变_62-21" x1="-1.16" y1="-112.53" x2="-0.26" y2="-112.53"
            gradientTransform="matrix(0.63, 0, 0, 0.93, 29.61, 197.94)" xlink:href="#未命名的渐变_62" />
        <linearGradient id="未命名的渐变_62-22" x1="-7.09" y1="-112.53" x2="-6.18" y2="-112.53"
            gradientTransform="matrix(0.63, 0, 0, 0.93, 33.33, 201.66)" xlink:href="#未命名的渐变_62" />
        <linearGradient id="未命名的渐变_62-23" x1="-13.01" y1="-112.53" x2="-12.1" y2="-112.53"
            gradientTransform="matrix(0.63, 0, 0, 0.93, 37.04, 205.37)" xlink:href="#未命名的渐变_62" />
        <linearGradient id="未命名的渐变_62-24" x1="-18.93" y1="-112.53" x2="-18.03" y2="-112.53"
            gradientTransform="matrix(0.63, 0, 0, 0.93, 40.76, 209.09)" xlink:href="#未命名的渐变_62" />
        <linearGradient id="未命名的渐变_62-25" x1="-24.85" y1="-112.53" x2="-23.95" y2="-112.53"
            gradientTransform="matrix(0.63, 0, 0, 0.93, 44.47, 212.8)" xlink:href="#未命名的渐变_62" />
        <linearGradient id="未命名的渐变_62-26" x1="-30.77" y1="-112.53" x2="-29.87" y2="-112.53"
            gradientTransform="matrix(0.63, 0, 0, 0.93, 48.18, 216.51)" xlink:href="#未命名的渐变_62" />
        <linearGradient id="未命名的渐变_62-27" x1="-36.7" y1="-112.53" x2="-35.79" y2="-112.53"
            gradientTransform="matrix(0.63, 0, 0, 0.93, 51.9, 220.23)" xlink:href="#未命名的渐变_62" />
        <linearGradient id="未命名的渐变_62-28" x1="-42.62" y1="-112.53" x2="-41.71" y2="-112.53"
            gradientTransform="matrix(0.63, 0, 0, 0.93, 55.61, 223.94)" xlink:href="#未命名的渐变_62" />
        <linearGradient id="未命名的渐变_62-29" x1="-48.54" y1="-112.53" x2="-47.64" y2="-112.53"
            gradientTransform="matrix(0.63, 0, 0, 0.93, 59.33, 227.66)" xlink:href="#未命名的渐变_62" />
        <linearGradient id="未命名的渐变_62-30" x1="-54.46" y1="-112.53" x2="-53.56" y2="-112.53"
            gradientTransform="matrix(0.63, 0, 0, 0.93, 63.04, 231.37)" xlink:href="#未命名的渐变_62" />
        <linearGradient id="未命名的渐变_62-31" x1="-60.38" y1="-112.53" x2="-59.48" y2="-112.53"
            gradientTransform="matrix(0.63, 0, 0, 0.93, 66.76, 235.09)" xlink:href="#未命名的渐变_62" />
        <linearGradient id="未命名的渐变_62-32" x1="-66.31" y1="-112.53" x2="-65.4" y2="-112.53"
            gradientTransform="matrix(0.63, 0, 0, 0.93, 70.47, 238.8)" xlink:href="#未命名的渐变_62" />
        <linearGradient id="未命名的渐变_62-33" x1="-72.23" y1="-112.53" x2="-71.32" y2="-112.53"
            gradientTransform="matrix(0.63, 0, 0, 0.93, 74.18, 242.51)" xlink:href="#未命名的渐变_62" />
        <linearGradient id="未命名的渐变_62-34" x1="-78.15" y1="-112.53" x2="-77.25" y2="-112.53"
            gradientTransform="matrix(0.63, 0, 0, 0.93, 77.9, 246.23)" xlink:href="#未命名的渐变_62" />
        <linearGradient id="未命名的渐变_62-35" x1="-84.07" y1="-112.53" x2="-83.17" y2="-112.53"
            gradientTransform="matrix(0.63, 0, 0, 0.93, 81.61, 249.94)" xlink:href="#未命名的渐变_62" />
        <linearGradient id="未命名的渐变_62-36" x1="0.66" y1="-112.51" x2="1.56" y2="-112.51"
            gradientTransform="matrix(0.63, 0, 0, 0.93, 28.49, 194.68)" xlink:href="#未命名的渐变_62" />
        <linearGradient id="未命名的渐变_306-7" x1="103.47" y1="-187.94" x2="104.43" y2="-187.94"
            gradientTransform="matrix(1.79, 0, 0, 1.11, -162.03, 230.42)" xlink:href="#未命名的渐变_306" />
        <linearGradient id="未命名的渐变_306-8" x1="106.48" y1="-187.94" x2="107.44" y2="-187.94"
            gradientTransform="matrix(1.79, 0, 0, 1.11, -167.4, 225.04)" xlink:href="#未命名的渐变_306" />
        <linearGradient id="未命名的渐变_306-9" x1="103.41" y1="-233.78" x2="104.38" y2="-233.78"
            gradientTransform="matrix(1.79, 0, 0, 0.47, -181.41, 132.67)" xlink:href="#未命名的渐变_306" />
        <linearGradient id="未命名的渐变_306-10" x1="107.21" y1="-233.78" x2="108.18" y2="-233.78"
            gradientTransform="matrix(1.79, 0, 0, 0.47, -181.41, 132.67)" xlink:href="#未命名的渐变_306" />
        <linearGradient id="未命名的渐变_306-11" x1="121.4" y1="-233.78" x2="122.37" y2="-233.78"
            gradientTransform="matrix(1.79, 0, 0, 0.47, -181.41, 132.67)" xlink:href="#未命名的渐变_306" />
        <linearGradient id="未命名的渐变_306-12" x1="125.22" y1="-233.78" x2="126.18" y2="-233.78"
            gradientTransform="matrix(1.79, 0, 0, 0.47, -181.41, 132.67)" xlink:href="#未命名的渐变_306" />
        <linearGradient id="未命名的渐变_306-13" x1="23.8" y1="27.81" x2="23.8" y2="31.01"
            gradientTransform="matrix(1, 0, 0, 1, 0, 0)" xlink:href="#未命名的渐变_306" />
        <linearGradient id="未命名的渐变_376-3" x1="23.8" y1="71.39" x2="23.8" y2="79.13" xlink:href="#未命名的渐变_376" />
        <linearGradient id="未命名的渐变_306-14" x1="80.88" y1="-187.94" x2="81.85" y2="-187.94"
            gradientTransform="matrix(1.79, 0, 0, 1.11, -121.65, 270.8)" xlink:href="#未命名的渐变_306" />
        <linearGradient id="未命名的渐变_306-15" x1="83.89" y1="-187.94" x2="84.85" y2="-187.94"
            gradientTransform="matrix(1.79, 0, 0, 1.11, -127.03, 265.42)" xlink:href="#未命名的渐变_306" />
        <linearGradient id="未命名的渐变_306-16" x1="103.41" y1="-148.39" x2="104.38" y2="-148.39"
            gradientTransform="matrix(1.79, 0, 0, 0.47, -181.41, 132.67)" xlink:href="#未命名的渐变_306" />
        <linearGradient id="未命名的渐变_306-17" x1="107.21" y1="-148.39" x2="108.18" y2="-148.39"
            gradientTransform="matrix(1.79, 0, 0, 0.47, -181.41, 132.67)" xlink:href="#未命名的渐变_306" />
        <linearGradient id="未命名的渐变_306-18" x1="121.4" y1="-148.39" x2="122.37" y2="-148.39"
            gradientTransform="matrix(1.79, 0, 0, 0.47, -181.41, 132.67)" xlink:href="#未命名的渐变_306" />
        <linearGradient id="未命名的渐变_306-19" x1="125.22" y1="-148.39" x2="126.18" y2="-148.39"
            gradientTransform="matrix(1.79, 0, 0, 0.47, -181.41, 132.67)" xlink:href="#未命名的渐变_306" />
        <linearGradient id="未命名的渐变_306-20" x1="23.8" y1="68.19" x2="23.8" y2="71.39"
            gradientTransform="matrix(1, 0, 0, 1, 0, 0)" xlink:href="#未命名的渐变_306" />
        <linearGradient id="未命名的渐变_376-4" x1="23.8" y1="117.1" x2="23.8" y2="124.85" xlink:href="#未命名的渐变_376" />
        <linearGradient id="未命名的渐变_306-21" x1="55.31" y1="-187.94" x2="56.27" y2="-187.94"
            gradientTransform="matrix(1.79, 0, 0, 1.11, -75.94, 316.51)" xlink:href="#未命名的渐变_306" />
        <linearGradient id="未命名的渐变_306-22" x1="58.32" y1="-187.94" x2="59.28" y2="-187.94"
            gradientTransform="matrix(1.79, 0, 0, 1.11, -81.31, 311.14)" xlink:href="#未命名的渐变_306" />
        <linearGradient id="未命名的渐变_306-23" x1="103.41" y1="-51.71" x2="104.38" y2="-51.71"
            gradientTransform="matrix(1.79, 0, 0, 0.47, -181.41, 132.67)" xlink:href="#未命名的渐变_306" />
        <linearGradient id="未命名的渐变_306-24" x1="107.21" y1="-51.71" x2="108.18" y2="-51.71"
            gradientTransform="matrix(1.79, 0, 0, 0.47, -181.41, 132.67)" xlink:href="#未命名的渐变_306" />
        <linearGradient id="未命名的渐变_306-25" x1="121.4" y1="-51.71" x2="122.37" y2="-51.71"
            gradientTransform="matrix(1.79, 0, 0, 0.47, -181.41, 132.67)" xlink:href="#未命名的渐变_306" />
        <linearGradient id="未命名的渐变_306-26" x1="125.22" y1="-51.71" x2="126.18" y2="-51.71"
            gradientTransform="matrix(1.79, 0, 0, 0.47, -181.41, 132.67)" xlink:href="#未命名的渐变_306" />
        <linearGradient id="未命名的渐变_306-27" x1="23.8" y1="113.9" x2="23.8" y2="117.1"
            gradientTransform="matrix(1, 0, 0, 1, 0, 0)" xlink:href="#未命名的渐变_306" />
        <linearGradient id="未命名的渐变_74" x1="-377.4" y1="11.57" x2="-389.1" y2="-0.12"
            gradientTransform="matrix(-1, 0, 0, 1, -359.46, 0)" gradientUnits="userSpaceOnUse">
            <stop offset="0" stop-color="#a9b1bb" />
            <stop offset="0.09" stop-color="#61666b" />
            <stop offset="0.18" stop-color="#696e73" />
            <stop offset="0.32" stop-color="#7e8489" />
            <stop offset="0.49" stop-color="#a1a7ae" />
            <stop offset="0.69" stop-color="#d1d8e0" />
            <stop offset="0.75" stop-color="#e2eaf2" />
            <stop offset="0.93" stop-color="#9ba1ab" />
            <stop offset="1" stop-color="#767b82" />
        </linearGradient>
    </defs>
    <title>Process column 3(工艺塔3)</title>
    <g id="图层_2" data-name="图层 2">
        <g id="图层_16" data-name="图层 16">
            <g id="Process_column_3_工艺塔3_" data-name="Process column 3(工艺塔3)">
                <polygon class="cls-1" points="20.26 132.64 8.51 117.1 5.17 117.1 16.93 132.64 20.26 132.64" />
                <polygon class="cls-2" points="20.26 132.64 8.51 117.1 5.17 117.1 16.93 132.64 20.26 132.64" />
                <polygon class="cls-3" points="27.34 132.64 39.09 117.1 42.43 117.1 30.68 132.64 27.34 132.64" />
                <polygon class="cls-2" points="27.34 132.64 39.09 117.1 42.43 117.1 30.68 132.64 27.34 132.64" />
                <polygon class="cls-4" points="20.26 86.92 8.51 71.39 5.17 71.39 16.93 86.92 20.26 86.92" />
                <polygon class="cls-2" points="20.26 86.92 8.51 71.39 5.17 71.39 16.93 86.92 20.26 86.92" />
                <polygon class="cls-5" points="27.34 86.92 39.09 71.39 42.43 71.39 30.68 86.92 27.34 86.92" />
                <polygon class="cls-2" points="27.34 86.92 39.09 71.39 42.43 71.39 30.68 86.92 27.34 86.92" />
                <polygon class="cls-6" points="20.26 46.55 8.51 31.01 5.17 31.01 16.93 46.55 20.26 46.55" />
                <polygon class="cls-2" points="20.26 46.55 8.51 31.01 5.17 31.01 16.93 46.55 20.26 46.55" />
                <polygon class="cls-7" points="27.34 46.55 39.09 31.01 42.43 31.01 30.68 46.55 27.34 46.55" />
                <polygon class="cls-2" points="27.34 46.55 39.09 31.01 42.43 31.01 30.68 46.55 27.34 46.55" />
                <polyline class="cls-8" points="34.88 6.32 34.88 150 12.69 150 12.69 6.32" />
                <rect class="cls-9" x="12.72" y="31.01" width="22.17" height="7.75" />
                <rect class="cls-10" x="12.72" y="6.32" width="22.17" height="7.64" />
                <rect class="cls-11" x="26.33" y="10.64" width="0.57" height="59.59" rx="0.28" />
                <rect class="cls-12" x="31.47" y="10.64" width="0.57" height="59.59" rx="0.28" />
                <rect class="cls-13" x="28.88" y="11.33" width="0.57" height="5.67" rx="0.28"
                    transform="matrix(0, -1, 1, 0, 15, 43.33)" />
                <rect class="cls-14" x="28.88" y="15.05" width="0.57" height="5.67" rx="0.28"
                    transform="matrix(0, -1, 1, 0, 11.28, 47.05)" />
                <rect class="cls-15" x="28.88" y="18.76" width="0.57" height="5.67" rx="0.28"
                    transform="matrix(0, -1, 1, 0, 7.57, 50.76)" />
                <rect class="cls-16" x="28.88" y="22.48" width="0.57" height="5.67" rx="0.28"
                    transform="matrix(0, -1, 1, 0, 3.85, 54.48)" />
                <rect class="cls-17" x="28.88" y="26.19" width="0.57" height="5.67" rx="0.28"
                    transform="matrix(0, -1, 1, 0, 0.14, 58.19)" />
                <rect class="cls-18" x="28.88" y="29.9" width="0.57" height="5.67" rx="0.28"
                    transform="matrix(0, -1, 1, 0, -3.57, 61.91)" />
                <rect class="cls-19" x="28.88" y="33.62" width="0.57" height="5.67" rx="0.28"
                    transform="matrix(0, -1, 1, 0, -7.29, 65.62)" />
                <rect class="cls-20" x="28.88" y="37.33" width="0.57" height="5.67" rx="0.28"
                    transform="matrix(0, -1, 1, 0, -11, 69.33)" />
                <rect class="cls-21" x="28.88" y="41.05" width="0.57" height="5.67" rx="0.28"
                    transform="matrix(0, -1, 1, 0, -14.72, 73.05)" />
                <rect class="cls-22" x="28.88" y="44.76" width="0.57" height="5.67" rx="0.28"
                    transform="matrix(0, -1, 1, 0, -18.43, 76.76)" />
                <rect class="cls-23" x="28.88" y="48.48" width="0.57" height="5.67" rx="0.28"
                    transform="translate(-22.15 80.48) rotate(-90)" />
                <rect class="cls-24" x="28.88" y="52.19" width="0.57" height="5.67" rx="0.28"
                    transform="matrix(0, -1, 1, 0, -25.86, 84.19)" />
                <rect class="cls-25" x="28.88" y="55.9" width="0.57" height="5.67" rx="0.28"
                    transform="matrix(0, -1, 1, 0, -29.57, 87.91)" />
                <rect class="cls-26" x="28.88" y="59.62" width="0.57" height="5.67" rx="0.28"
                    transform="matrix(0, -1, 1, 0, -33.29, 91.62)" />
                <rect class="cls-27" x="28.88" y="63.33" width="0.57" height="5.67" rx="0.28"
                    transform="matrix(0, -1, 1, 0, -37, 95.33)" />
                <rect class="cls-28" x="28.91" y="8.08" width="0.57" height="5.7" rx="0.28"
                    transform="translate(18.26 40.12) rotate(-90)" />
                <rect class="cls-29" x="26.33" y="89.4" width="0.57" height="59.59" rx="0.28" />
                <rect class="cls-30" x="31.47" y="89.4" width="0.57" height="59.59" rx="0.28" />
                <rect class="cls-31" x="28.88" y="90.09" width="0.57" height="5.67" rx="0.28"
                    transform="matrix(0, -1, 1, 0, -63.76, 122.09)" />
                <rect class="cls-32" x="28.88" y="93.81" width="0.57" height="5.67" rx="0.28"
                    transform="translate(-67.48 125.81) rotate(-90)" />
                <rect class="cls-33" x="28.88" y="97.52" width="0.57" height="5.67" rx="0.28"
                    transform="matrix(0, -1, 1, 0, -71.19, 129.52)" />
                <rect class="cls-34" x="28.88" y="101.23" width="0.57" height="5.67" rx="0.28"
                    transform="matrix(0, -1, 1, 0, -74.9, 133.24)" />
                <rect class="cls-35" x="28.88" y="104.95" width="0.57" height="5.67" rx="0.28"
                    transform="matrix(0, -1, 1, 0, -78.62, 136.95)" />
                <rect class="cls-36" x="28.88" y="108.66" width="0.57" height="5.67" rx="0.28"
                    transform="translate(-82.33 140.67) rotate(-90)" />
                <rect class="cls-37" x="28.88" y="112.38" width="0.57" height="5.67" rx="0.28"
                    transform="matrix(0, -1, 1, 0, -86.05, 144.38)" />
                <rect class="cls-38" x="28.88" y="116.09" width="0.57" height="5.67" rx="0.28"
                    transform="matrix(0, -1, 1, 0, -89.76, 148.09)" />
                <rect class="cls-39" x="28.88" y="119.81" width="0.57" height="5.67" rx="0.28"
                    transform="matrix(0, -1, 1, 0, -93.48, 151.81)" />
                <rect class="cls-40" x="28.88" y="123.52" width="0.57" height="5.67" rx="0.28"
                    transform="matrix(0, -1, 1, 0, -97.19, 155.52)" />
                <rect class="cls-41" x="28.88" y="127.23" width="0.57" height="5.67" rx="0.28"
                    transform="matrix(0, -1, 1, 0, -100.9, 159.24)" />
                <rect class="cls-42" x="28.88" y="130.95" width="0.57" height="5.67" rx="0.28"
                    transform="matrix(0, -1, 1, 0, -104.62, 162.95)" />
                <rect class="cls-43" x="28.88" y="134.66" width="0.57" height="5.67" rx="0.28"
                    transform="matrix(0, -1, 1, 0, -108.33, 166.67)" />
                <rect class="cls-44" x="28.88" y="138.38" width="0.57" height="5.67" rx="0.28"
                    transform="matrix(0, -1, 1, 0, -112.05, 170.38)" />
                <rect class="cls-45" x="28.88" y="142.09" width="0.57" height="5.67" rx="0.28"
                    transform="matrix(0, -1, 1, 0, -115.76, 174.09)" />
                <rect class="cls-46" x="28.91" y="86.84" width="0.57" height="5.7" rx="0.28"
                    transform="translate(-60.5 118.88) rotate(-90)" />
                <rect class="cls-47" x="22.94" y="2.34" width="1.73" height="40.71"
                    transform="translate(1.11 46.49) rotate(-90)" />
                <rect class="cls-48" x="22.94" y="-3.04" width="1.73" height="40.71"
                    transform="translate(6.49 41.11) rotate(-90)" />
                <rect class="cls-49" x="3.45" y="16.45" width="1.73" height="11.37" />
                <rect class="cls-50" x="10.24" y="16.45" width="1.73" height="11.37" />
                <rect class="cls-51" x="35.61" y="16.45" width="1.73" height="11.37" />
                <rect class="cls-52" x="42.43" y="16.45" width="1.73" height="11.37" />
                <rect class="cls-53" x="3.45" y="27.81" width="40.71" height="3.2" />
                <rect class="cls-54" x="22.27" y="31.01" width="3.05" height="10.43" />
                <rect class="cls-55" x="12.72" y="71.39" width="22.17" height="7.75" />
                <rect class="cls-56" x="22.94" y="42.71" width="1.73" height="40.71"
                    transform="translate(-39.26 86.87) rotate(-90)" />
                <rect class="cls-57" x="22.94" y="37.34" width="1.73" height="40.71"
                    transform="translate(-33.89 81.49) rotate(-90)" />
                <rect class="cls-58" x="3.45" y="56.82" width="1.73" height="11.37" />
                <rect class="cls-59" x="10.24" y="56.82" width="1.73" height="11.37" />
                <rect class="cls-60" x="35.61" y="56.82" width="1.73" height="11.37" />
                <rect class="cls-61" x="42.43" y="56.82" width="1.73" height="11.37" />
                <rect class="cls-62" x="3.45" y="68.19" width="40.71" height="3.2" />
                <rect class="cls-54" x="22.27" y="71.39" width="3.05" height="10.43" />
                <rect class="cls-63" x="12.72" y="117.1" width="22.17" height="7.75" />
                <rect class="cls-64" x="22.94" y="88.43" width="1.73" height="40.71"
                    transform="translate(-84.98 132.58) rotate(-90)" />
                <rect class="cls-65" x="22.94" y="83.05" width="1.73" height="40.71"
                    transform="translate(-79.6 127.21) rotate(-90)" />
                <rect class="cls-66" x="3.45" y="102.54" width="1.73" height="11.37" />
                <rect class="cls-67" x="10.24" y="102.54" width="1.73" height="11.37" />
                <rect class="cls-68" x="35.61" y="102.54" width="1.73" height="11.37" />
                <rect class="cls-69" x="42.43" y="102.54" width="1.73" height="11.37" />
                <rect class="cls-70" x="3.45" y="113.9" width="40.71" height="3.2" />
                <rect class="cls-54" x="22.27" y="117.1" width="3.05" height="10.43" />
                <path class="cls-71" d="M12.69,6.32S14.23,0,23.79,0s11.1,6.32,11.1,6.32Z" />
               
            </g>
        </g>
    </g>
</svg>