<svg xmlns="http://www.w3.org/2000/svg" xmlns:xlink="http://www.w3.org/1999/xlink" viewBox="0 0 47.6 150">
    <defs>
        <style>
            .cls-1 {
                fill: url(#未命名的渐变_60);
            }

            .cls-2 {
                fill: url(#未命名的渐变_40);
            }

            .cls-3 {
                fill: #45484d;
            }

            .cls-4 {
                fill: url(#未命名的渐变_34);
            }

            .cls-5 {
                fill: url(#未命名的渐变_34-2);
            }

            .cls-6 {
                opacity: 0.4;
                fill: url(#未命名的渐变_376);
            }

            .cls-7 {
                fill: url(#未命名的渐变_60-2);
            }

            .cls-8 {
                fill: url(#未命名的渐变_60-3);
            }

            .cls-9 {
                fill: url(#未命名的渐变_60-4);
            }

            .cls-10 {
                fill: url(#未命名的渐变_60-5);
            }

            .cls-11 {
                fill: url(#未命名的渐变_60-6);
            }

            .cls-12 {
                fill: url(#未命名的渐变_60-7);
            }

            .cls-13 {
                fill: url(#未命名的渐变_60-8);
            }

            .cls-14 {
                fill: url(#未命名的渐变_60-9);
            }

            .cls-15 {
                fill: url(#未命名的渐变_60-10);
            }

            .cls-16 {
                fill: url(#未命名的渐变_60-11);
            }

            .cls-17 {
                fill: url(#未命名的渐变_60-12);
            }

            .cls-18 {
                fill: url(#未命名的渐变_60-13);
            }

            .cls-19 {
                fill: url(#未命名的渐变_60-14);
            }

            .cls-20 {
                fill: url(#未命名的渐变_60-15);
            }

            .cls-21 {
                fill: url(#未命名的渐变_60-16);
            }

            .cls-22 {
                fill: url(#未命名的渐变_60-17);
            }

            .cls-23 {
                fill: url(#未命名的渐变_60-18);
            }

            .cls-24 {
                fill: url(#未命名的渐变_60-19);
            }

            .cls-25 {
                fill: url(#未命名的渐变_60-20);
            }

            .cls-26 {
                fill: url(#未命名的渐变_60-21);
            }

            .cls-27 {
                fill: url(#未命名的渐变_60-22);
            }

            .cls-28 {
                fill: url(#未命名的渐变_60-23);
            }

            .cls-29 {
                fill: url(#未命名的渐变_60-24);
            }

            .cls-30 {
                fill: url(#未命名的渐变_60-25);
            }

            .cls-31 {
                fill: url(#未命名的渐变_58);
            }

            .cls-32 {
                fill: url(#未命名的渐变_58-2);
            }

            .cls-33 {
                fill: url(#未命名的渐变_58-3);
            }

            .cls-34 {
                fill: url(#未命名的渐变_58-4);
            }

            .cls-35 {
                fill: url(#未命名的渐变_58-5);
            }

            .cls-36 {
                fill: url(#未命名的渐变_58-6);
            }

            .cls-37 {
                fill: url(#未命名的渐变_306);
            }

            .cls-38 {
                fill: #fff;
                opacity: 0.5;
            }

            .cls-39 {
                fill: url(#未命名的渐变_306-2);
            }

            .cls-40 {
                fill: url(#未命名的渐变_60-26);
            }

            .cls-41 {
                fill: url(#未命名的渐变_72);
            }

            .cls-42 {
                fill: url(#未命名的渐变_72-2);
            }

            .cls-43 {
                fill: url(#未命名的渐变_72-3);
            }

            .cls-44 {
                opacity: 0.2;
            }
        </style>
        <linearGradient id="未命名的渐变_60" x1="23.01" y1="8.23" x2="28.12" y2="8.23" gradientUnits="userSpaceOnUse">
            <stop offset="0" stop-color="#a9b1bb" />
            <stop offset="0.06" stop-color="#5d6166" />
            <stop offset="0.78" stop-color="#eef7ff" />
            <stop offset="0.93" stop-color="#9ba1ab" />
            <stop offset="1" stop-color="#767b82" />
        </linearGradient>
        <linearGradient id="未命名的渐变_40" x1="9.88" y1="75" x2="14.99" y2="75" gradientUnits="userSpaceOnUse">
            <stop offset="0" stop-color="#767b82" />
            <stop offset="0.07" stop-color="#9ba1ab" />
            <stop offset="0.22" stop-color="#eef7ff" />
            <stop offset="0.94" stop-color="#5d6166" />
            <stop offset="1" stop-color="#a9b1bb" />
        </linearGradient>
        <linearGradient id="未命名的渐变_34" x1="99.55" y1="160.99" x2="78.37" y2="160.99"
            gradientTransform="matrix(-1, 0, 0, 1, 114.54, -76)" gradientUnits="userSpaceOnUse">
            <stop offset="0" stop-color="#a9b1bb" />
            <stop offset="0.09" stop-color="#61666b" />
            <stop offset="0.19" stop-color="#696e73" />
            <stop offset="0.33" stop-color="#7e8489" />
            <stop offset="0.51" stop-color="#a1a7ae" />
            <stop offset="0.72" stop-color="#d1d8e0" />
            <stop offset="0.78" stop-color="#e2eaf2" />
            <stop offset="0.93" stop-color="#9ba1ab" />
            <stop offset="1" stop-color="#767b82" />
        </linearGradient>
        <linearGradient id="未命名的渐变_34-2" x1="20.36" y1="25.24" x2="9.59" y2="14.47"
            gradientTransform="matrix(-1, 0, 0, 1, 40.54, 0)" xlink:href="#未命名的渐变_34" />
        <linearGradient id="未命名的渐变_376" x1="14.96" y1="20.02" x2="14.96" y2="28.66"
            gradientTransform="matrix(-1, 0, 0, 1, 40.54, 0)" gradientUnits="userSpaceOnUse">
            <stop offset="0" stop-color="#2e3033" />
            <stop offset="1" stop-color="#9ba1ab" stop-opacity="0" />
        </linearGradient>
        <linearGradient id="未命名的渐变_60-2" x1="867.99" y1="-289.74" x2="868.91" y2="-289.74"
            gradientTransform="matrix(0.63, 0, 0, -0.93, -506.57, -179.15)" xlink:href="#未命名的渐变_60" />
        <linearGradient id="未命名的渐变_60-3" x1="861.74" y1="-12011.39" x2="862.66" y2="-12011.39"
            gradientTransform="matrix(0.63, 0, 0, -0.02, -503.57, -160.11)" xlink:href="#未命名的渐变_60" />
        <linearGradient id="未命名的渐变_60-4" x1="869.28" y1="-12011.43" x2="870.21" y2="-12011.43"
            gradientTransform="matrix(0.63, 0, 0, -0.02, -508.3, -155.38)" xlink:href="#未命名的渐变_60" />
        <linearGradient id="未命名的渐变_60-5" x1="877.2" y1="-12011.46" x2="878.12" y2="-12011.46"
            gradientTransform="matrix(0.63, 0, 0, -0.02, -513.26, -150.41)" xlink:href="#未命名的渐变_60" />
        <linearGradient id="未命名的渐变_60-6" x1="885.11" y1="-12011.5" x2="886.04" y2="-12011.5"
            gradientTransform="matrix(0.63, 0, 0, -0.02, -518.23, -145.45)" xlink:href="#未命名的渐变_60" />
        <linearGradient id="未命名的渐变_60-7" x1="893.03" y1="-12011.53" x2="893.96" y2="-12011.53"
            gradientTransform="matrix(0.63, 0, 0, -0.02, -523.19, -140.48)" xlink:href="#未命名的渐变_60" />
        <linearGradient id="未命名的渐变_60-8" x1="900.95" y1="-12011.57" x2="901.87" y2="-12011.57"
            gradientTransform="matrix(0.63, 0, 0, -0.02, -528.16, -135.52)" xlink:href="#未命名的渐变_60" />
        <linearGradient id="未命名的渐变_60-9" x1="908.86" y1="-12011.61" x2="909.79" y2="-12011.61"
            gradientTransform="matrix(0.63, 0, 0, -0.02, -533.12, -130.55)" xlink:href="#未命名的渐变_60" />
        <linearGradient id="未命名的渐变_60-10" x1="916.78" y1="-12011.64" x2="917.7" y2="-12011.64"
            gradientTransform="matrix(0.63, 0, 0, -0.02, -538.09, -125.59)" xlink:href="#未命名的渐变_60" />
        <linearGradient id="未命名的渐变_60-11" x1="924.7" y1="-12011.68" x2="925.62" y2="-12011.68"
            gradientTransform="matrix(0.63, 0, 0, -0.02, -543.05, -120.62)" xlink:href="#未命名的渐变_60" />
        <linearGradient id="未命名的渐变_60-12" x1="932.61" y1="-12011.71" x2="933.54" y2="-12011.71"
            gradientTransform="matrix(0.63, 0, 0, -0.02, -548.02, -115.66)" xlink:href="#未命名的渐变_60" />
        <linearGradient id="未命名的渐变_60-13" x1="940.53" y1="-12011.75" x2="941.45" y2="-12011.75"
            gradientTransform="matrix(0.63, 0, 0, -0.02, -552.98, -110.69)" xlink:href="#未命名的渐变_60" />
        <linearGradient id="未命名的渐变_60-14" x1="948.45" y1="-12011.79" x2="949.37" y2="-12011.79"
            gradientTransform="matrix(0.63, 0, 0, -0.02, -557.95, -105.73)" xlink:href="#未命名的渐变_60" />
        <linearGradient id="未命名的渐变_60-15" x1="956.36" y1="-12011.82" x2="957.29" y2="-12011.82"
            gradientTransform="matrix(0.63, 0, 0, -0.02, -562.91, -100.77)" xlink:href="#未命名的渐变_60" />
        <linearGradient id="未命名的渐变_60-16" x1="964.28" y1="-12011.86" x2="965.2" y2="-12011.86"
            gradientTransform="matrix(0.63, 0, 0, -0.02, -567.88, -95.8)" xlink:href="#未命名的渐变_60" />
        <linearGradient id="未命名的渐变_60-17" x1="972.2" y1="-12011.89" x2="973.12" y2="-12011.89"
            gradientTransform="matrix(0.63, 0, 0, -0.02, -572.84, -90.84)" xlink:href="#未命名的渐变_60" />
        <linearGradient id="未命名的渐变_60-18" x1="980.11" y1="-12011.93" x2="981.04" y2="-12011.93"
            gradientTransform="matrix(0.63, 0, 0, -0.02, -577.81, -85.87)" xlink:href="#未命名的渐变_60" />
        <linearGradient id="未命名的渐变_60-19" x1="988.03" y1="-12011.96" x2="988.95" y2="-12011.96"
            gradientTransform="matrix(0.63, 0, 0, -0.02, -582.77, -80.91)" xlink:href="#未命名的渐变_60" />
        <linearGradient id="未命名的渐变_60-20" x1="995.94" y1="-12012" x2="996.87" y2="-12012"
            gradientTransform="matrix(0.63, 0, 0, -0.02, -587.74, -75.94)" xlink:href="#未命名的渐变_60" />
        <linearGradient id="未命名的渐变_60-21" x1="1003.86" y1="-12012.04" x2="1004.78" y2="-12012.04"
            gradientTransform="matrix(0.63, 0, 0, -0.02, -592.7, -70.98)" xlink:href="#未命名的渐变_60" />
        <linearGradient id="未命名的渐变_60-22" x1="1011.78" y1="-12012.07" x2="1012.7" y2="-12012.07"
            gradientTransform="matrix(0.63, 0, 0, -0.02, -597.67, -66.01)" xlink:href="#未命名的渐变_60" />
        <linearGradient id="未命名的渐变_60-23" x1="1019.69" y1="-12012.11" x2="1020.62" y2="-12012.11"
            gradientTransform="matrix(0.63, 0, 0, -0.02, -602.63, -61.05)" xlink:href="#未命名的渐变_60" />
        <linearGradient id="未命名的渐变_60-24" x1="1027.61" y1="-12012.14" x2="1028.53" y2="-12012.14"
            gradientTransform="matrix(0.63, 0, 0, -0.02, -607.6, -56.09)" xlink:href="#未命名的渐变_60" />
        <linearGradient id="未命名的渐变_60-25" x1="1035.53" y1="-12012.18" x2="1036.45" y2="-12012.18"
            gradientTransform="matrix(0.63, 0, 0, -0.02, -612.56, -51.12)" xlink:href="#未命名的渐变_60" />
        <linearGradient id="未命名的渐变_58" x1="14.65" y1="13.54" x2="14.65" y2="15.42" gradientTransform="translate(10.91)"
            gradientUnits="userSpaceOnUse">
            <stop offset="0" stop-color="#45484d" />
            <stop offset="0.04" stop-color="#abafb3" />
            <stop offset="0.09" stop-color="#747880" />
            <stop offset="0.92" stop-color="#747880" />
            <stop offset="1" stop-color="#45484d" />
        </linearGradient>
        <linearGradient id="未命名的渐变_58-2" x1="14.65" y1="10.12" x2="14.65" y2="11.15" xlink:href="#未命名的渐变_58" />
        <linearGradient id="未命名的渐变_58-3" x1="16.02" y1="17.23" x2="16.02" y2="18.68"
            gradientTransform="translate(0.96 -7.53)" xlink:href="#未命名的渐变_58" />
        <linearGradient id="未命名的渐变_58-4" x1="16.02" y1="8.66" x2="16.02" y2="10.1"
            gradientTransform="translate(9.54 1.05)" xlink:href="#未命名的渐变_58" />
        <linearGradient id="未命名的渐变_58-5" x1="16.02" y1="0.08" x2="16.02" y2="1.53"
            gradientTransform="translate(18.11 9.63)" xlink:href="#未命名的渐变_58" />
        <linearGradient id="未命名的渐变_58-6" x1="14.65" y1="7.32" x2="14.65" y2="8.34" xlink:href="#未命名的渐变_58" />
        <linearGradient id="未命名的渐变_306" x1="23.31" y1="14.51" x2="23.31" y2="16.6"
            gradientTransform="translate(-3.93 2.16)" gradientUnits="userSpaceOnUse">
            <stop offset="0.02" stop-color="#767b82" />
            <stop offset="0.04" stop-color="#d7dce0" />
            <stop offset="0.09" stop-color="#9ba1ab" />
            <stop offset="0.92" stop-color="#9ba1ab" />
            <stop offset="1" stop-color="#767b82" />
        </linearGradient>
        <linearGradient id="未命名的渐变_306-2" x1="23.31" y1="2.12" x2="23.31" y2="4.21"
            gradientTransform="translate(8.46 14.55)" xlink:href="#未命名的渐变_306" />
        <linearGradient id="未命名的渐变_60-26" x1="19" y1="5.11" x2="19" y2="0" xlink:href="#未命名的渐变_60" />
        <linearGradient id="未命名的渐变_72" x1="15.87" y1="25.89" x2="9.19" y2="25.89" gradientUnits="userSpaceOnUse">
            <stop offset="0" stop-color="#454a4d" />
            <stop offset="0.09" stop-color="#46494d" />
            <stop offset="0.17" stop-color="#505357" />
            <stop offset="0.31" stop-color="#6a6e73" />
            <stop offset="0.5" stop-color="#959aa0" />
            <stop offset="0.72" stop-color="#cfd6de" />
            <stop offset="0.78" stop-color="#e2eaf2" />
            <stop offset="0.93" stop-color="#9ba1ab" />
            <stop offset="1" stop-color="#767b82" />
        </linearGradient>
        <linearGradient id="未命名的渐变_72-2" x1="15.87" y1="63.92" x2="9.19" y2="63.92" xlink:href="#未命名的渐变_72" />
        <linearGradient id="未命名的渐变_72-3" x1="15.87" y1="125.26" x2="9.19" y2="125.26" xlink:href="#未命名的渐变_72" />
    </defs>
    <title>Process column 2(工艺塔2)</title>
    <g id="图层_2" data-name="图层 2">
        <g id="图层_16" data-name="图层 16">
            <g id="Process_column_2_工艺塔2_" data-name="Process column 2(工艺塔2)">
                <rect class="cls-1" x="23.01" width="5.11" height="16.46" rx="2.56" />
                <path class="cls-2"
                    d="M12.43,0h0A2.56,2.56,0,0,1,15,2.56V150a0,0,0,0,1,0,0H9.88a0,0,0,0,1,0,0V2.56A2.56,2.56,0,0,1,12.43,0Z" />
                <polygon class="cls-3" points="29.63 18.01 21.49 18.01 18.3 15.42 32.82 15.42 29.63 18.01" />
                <polyline class="cls-4" points="14.99 19.97 14.99 150 36.16 150 36.16 19.97" />
                <path class="cls-5" d="M15,20s1.47-4,10.6-4,10.6,4,10.6,4Z" />
                <rect class="cls-6" x="14.96" y="20.02" width="21.23" height="8.64" />
                <rect class="cls-7" x="37.83" y="33.78" width="0.58" height="114.9" rx="0.29"
                    transform="translate(76.25 182.46) rotate(-180)" />
                <rect class="cls-8" x="36.86" y="32.81" width="0.58" height="2.53" rx="0.29"
                    transform="translate(71.22 -3.09) rotate(89.99)" />
                <rect class="cls-9" x="36.86" y="37.54" width="0.58" height="2.53" rx="0.29"
                    transform="translate(75.95 1.65) rotate(89.99)" />
                <rect class="cls-10" x="36.86" y="42.5" width="0.58" height="2.53" rx="0.29"
                    transform="translate(80.92 6.61) rotate(89.99)" />
                <rect class="cls-11" x="36.86" y="47.47" width="0.58" height="2.53" rx="0.29"
                    transform="translate(85.88 11.57) rotate(89.99)" />
                <rect class="cls-12" x="36.86" y="52.43" width="0.58" height="2.53" rx="0.29"
                    transform="translate(90.85 16.54) rotate(89.99)" />
                <rect class="cls-13" x="36.86" y="57.4" width="0.58" height="2.53" rx="0.29"
                    transform="translate(95.81 21.5) rotate(89.99)" />
                <rect class="cls-14" x="36.86" y="62.36" width="0.58" height="2.53" rx="0.29"
                    transform="translate(100.78 26.47) rotate(89.99)" />
                <rect class="cls-15" x="36.86" y="67.33" width="0.58" height="2.53" rx="0.29"
                    transform="translate(105.74 31.43) rotate(89.99)" />
                <rect class="cls-16" x="36.86" y="72.29" width="0.58" height="2.53" rx="0.29"
                    transform="translate(110.71 36.4) rotate(89.99)" />
                <rect class="cls-17" x="36.86" y="77.26" width="0.58" height="2.53" rx="0.29"
                    transform="translate(115.67 41.36) rotate(89.99)" />
                <rect class="cls-18" x="36.86" y="82.22" width="0.58" height="2.53" rx="0.29"
                    transform="translate(120.64 46.33) rotate(89.99)" />
                <rect class="cls-19" x="36.86" y="87.19" width="0.58" height="2.53" rx="0.29"
                    transform="translate(125.6 51.29) rotate(89.99)" />
                <rect class="cls-20" x="36.86" y="92.15" width="0.58" height="2.53" rx="0.29"
                    transform="translate(130.57 56.26) rotate(89.99)" />
                <rect class="cls-21" x="36.86" y="97.12" width="0.58" height="2.53" rx="0.29"
                    transform="translate(135.53 61.22) rotate(89.99)" />
                <rect class="cls-22" x="36.86" y="102.08" width="0.58" height="2.53" rx="0.29"
                    transform="translate(140.5 66.18) rotate(89.99)" />
                <rect class="cls-23" x="36.86" y="107.05" width="0.58" height="2.53" rx="0.29"
                    transform="translate(145.46 71.15) rotate(89.99)" />
                <rect class="cls-24" x="36.86" y="112.02" width="0.58" height="2.53" rx="0.29"
                    transform="translate(150.43 76.11) rotate(89.99)" />
                <rect class="cls-25" x="36.86" y="116.98" width="0.58" height="2.53" rx="0.29"
                    transform="translate(155.39 81.08) rotate(89.99)" />
                <rect class="cls-26" x="36.86" y="121.95" width="0.58" height="2.53" rx="0.29"
                    transform="translate(160.36 86.04) rotate(89.99)" />
                <rect class="cls-27" x="36.86" y="126.91" width="0.58" height="2.53" rx="0.29"
                    transform="translate(165.32 91.01) rotate(89.99)" />
                <rect class="cls-28" x="36.86" y="131.88" width="0.58" height="2.53" rx="0.29"
                    transform="translate(170.29 95.97) rotate(89.99)" />
                <rect class="cls-29" x="36.86" y="136.84" width="0.58" height="2.53" rx="0.29"
                    transform="translate(175.25 100.94) rotate(89.99)" />
                <rect class="cls-30" x="36.86" y="141.81" width="0.58" height="2.53" rx="0.29"
                    transform="translate(180.22 105.9) rotate(89.99)" />
                <rect class="cls-31" x="16.26" y="13.54" width="18.6" height="1.87" />
                <rect class="cls-32" x="16.26" y="10.12" width="18.6" height="1.02" />
                <rect class="cls-33" x="13.87" y="9.7" width="6.23" height="1.45"
                    transform="translate(27.41 -6.55) rotate(90)" />
                <rect class="cls-34" x="22.45" y="9.7" width="6.23" height="1.45"
                    transform="translate(35.99 -15.13) rotate(90)" />
                <rect class="cls-35" x="31.02" y="9.7" width="6.23" height="1.45"
                    transform="translate(44.57 -23.71) rotate(90)" />
                <rect class="cls-36" x="16.26" y="7.32" width="18.6" height="1.02" />
                <rect class="cls-37" x="17.08" y="16.68" width="4.6" height="2.08"
                    transform="translate(37.1 -1.67) rotate(90)" />
                <rect class="cls-38" x="17.08" y="16.68" width="4.6" height="2.08"
                    transform="translate(37.1 -1.67) rotate(90)" />
                <rect class="cls-39" x="29.47" y="16.68" width="4.6" height="2.08"
                    transform="translate(49.5 -14.06) rotate(90)" />
                <rect class="cls-38" x="29.47" y="16.68" width="4.6" height="2.08"
                    transform="translate(49.5 -14.06) rotate(90)" />
                <rect class="cls-40" x="9.88" width="18.24" height="5.11" rx="2.56" />
                <rect class="cls-41" x="9.19" y="24.34" width="6.68" height="3.09" />
                <rect class="cls-42" x="9.19" y="62.38" width="6.68" height="3.09" />
                <rect class="cls-43" x="9.19" y="123.71" width="6.68" height="3.09" />
              
            </g>
        </g>
    </g>
</svg>