<svg xmlns="http://www.w3.org/2000/svg" xmlns:xlink="http://www.w3.org/1999/xlink" viewBox="0 0 150 78.73">
    <defs>
        <style>
            .cls-1 {
                fill: url(#未命名的渐变_59);
            }

            .cls-2 {
                fill: url(#未命名的渐变_286);
            }

            .cls-3 {
                fill: url(#未命名的渐变_26);
            }

            .cls-4 {
                fill: url(#未命名的渐变_26-2);
            }

            .cls-5 {
                fill: url(#未命名的渐变_181);
            }

            .cls-6 {
                fill: url(#未命名的渐变_181-2);
            }

            .cls-7 {
                fill: url(#未命名的渐变_26-3);
            }

            .cls-8 {
                fill: url(#未命名的渐变_26-4);
            }

            .cls-35,
            .cls-42,
            .cls-9 {
                opacity: 0.6;
            }

            .cls-9 {
                fill: url(#未命名的渐变_320);
            }

            .cls-10 {
                fill: url(#未命名的渐变_26-5);
            }

            .cls-11 {
                fill: url(#未命名的渐变_26-6);
            }

            .cls-12 {
                fill: #fff;
                opacity: 0.4;
            }

            .cls-13 {
                fill: url(#未命名的渐变_26-7);
            }

            .cls-14 {
                fill: url(#未命名的渐变_26-8);
            }

            .cls-15 {
                fill: url(#未命名的渐变_26-9);
            }

            .cls-16 {
                fill: url(#未命名的渐变_26-10);
            }

            .cls-17 {
                fill: url(#未命名的渐变_26-11);
            }

            .cls-18 {
                fill: url(#未命名的渐变_26-12);
            }

            .cls-19 {
                fill: url(#未命名的渐变_247);
            }

            .cls-20,
            .cls-30 {
                stroke-miterlimit: 10;
            }

            .cls-20 {
                stroke-width: 0.55px;
                fill: url(#未命名的渐变_250);
                stroke: url(#未命名的渐变_261);
            }

            .cls-21 {
                fill: #cad2db;
            }

            .cls-22 {
                fill: url(#未命名的渐变_267);
            }

            .cls-23 {
                fill: #747880;
            }

            .cls-24 {
                fill: url(#未命名的渐变_267-2);
            }

            .cls-25 {
                fill: url(#未命名的渐变_267-3);
            }

            .cls-26 {
                fill: url(#未命名的渐变_267-4);
            }

            .cls-27 {
                fill: url(#未命名的渐变_267-5);
            }

            .cls-28 {
                fill: url(#未命名的渐变_267-6);
            }

            .cls-29 {
                fill: url(#未命名的渐变_59-2);
            }

            .cls-30 {
                stroke-width: 0.67px;
                fill: url(#未命名的渐变_287);
                stroke: url(#未命名的渐变_124);
            }

            .cls-31 {
                fill: url(#未命名的渐变_397);
            }

            .cls-32 {
                fill: url(#未命名的渐变_397-2);
            }

            .cls-33 {
                fill: url(#未命名的渐变_397-3);
            }

            .cls-34 {
                fill: url(#未命名的渐变_397-4);
            }

            .cls-35 {
                fill: url(#未命名的渐变_288);
            }

            .cls-36 {
                fill: url(#未命名的渐变_315);
            }

            .cls-37 {
                fill: url(#未命名的渐变_59-3);
            }

            .cls-38 {
                opacity: 0.3;
                fill: url(#未命名的渐变_320-2);
            }

            .cls-39 {
                fill: url(#未命名的渐变_59-4);
            }

            .cls-40 {
                fill: url(#未命名的渐变_317);
            }

            .cls-41 {
                fill: url(#未命名的渐变_181-3);
            }

            .cls-42 {
                fill: url(#未命名的渐变_320-3);
            }

            .cls-43 {
                opacity: 0.2;
            }
        </style>
        <linearGradient id="未命名的渐变_59" x1="-36.27" y1="-38.35" x2="-36.27" y2="2.34"
            gradientTransform="translate(111.65 88.82) rotate(90)" gradientUnits="userSpaceOnUse">
            <stop offset="0" stop-color="#d7dce0" />
            <stop offset="1" stop-color="#8a9099" />
        </linearGradient>
        <linearGradient id="未命名的渐变_286" x1="129.65" y1="55.6" x2="129.65" y2="49.5" gradientUnits="userSpaceOnUse">
            <stop offset="0" stop-color="#5c6066" />
            <stop offset="1" stop-color="#f5faff" />
        </linearGradient>
        <linearGradient id="未命名的渐变_26" x1="1491.61" y1="-208.37" x2="1512.1" y2="-208.37"
            gradientTransform="translate(-1446.65 265.94)" gradientUnits="userSpaceOnUse">
            <stop offset="0" stop-color="#767b82" />
            <stop offset="0.07" stop-color="#9ba1ab" />
            <stop offset="0.22" stop-color="#e2eaf2" />
            <stop offset="0.94" stop-color="#767b82" />
            <stop offset="1" stop-color="#a9b1bb" />
        </linearGradient>
        <linearGradient id="未命名的渐变_26-2" x1="1489.49" y1="-212.75" x2="1514.21" y2="-212.75"
            gradientTransform="translate(-1446.65 274.71)" xlink:href="#未命名的渐变_26" />
        <linearGradient id="未命名的渐变_181" x1="1466.69" y1="-172.86" x2="1466.69" y2="-176.78"
            gradientTransform="translate(-1464.74 213.22)" gradientUnits="userSpaceOnUse">
            <stop offset="0" stop-color="#767b82" />
            <stop offset="0.08" stop-color="#9ba1ab" />
            <stop offset="0.91" stop-color="#9ba1ab" />
            <stop offset="0.96" stop-color="#d7dce0" />
            <stop offset="0.98" stop-color="#767b82" />
        </linearGradient>
        <linearGradient id="未命名的渐变_181-2" x1="1466.69" y1="-279.36" x2="1466.69" y2="-283.27"
            gradientTransform="translate(-1358.24 319.71)" xlink:href="#未命名的渐变_181" />
        <linearGradient id="未命名的渐变_26-3" x1="1428.46" y1="-283.91" x2="1434.56" y2="-283.91"
            gradientTransform="translate(-3423.18 319.15) scale(2.47 1)" xlink:href="#未命名的渐变_26" />
        <linearGradient id="未命名的渐变_26-4" x1="1429.48" y1="-284.34" x2="1433.53" y2="-284.34"
            gradientTransform="matrix(2.47, 0, 0, 16.43, -3417.63, 4706.73)" xlink:href="#未命名的渐变_26" />
        <linearGradient id="未命名的渐变_320" x1="1431.51" y1="-284.69" x2="1431.51" y2="-285.02"
            gradientTransform="matrix(2.47, 0, 0, 7.22, -3419.32, 2090.91)" gradientUnits="userSpaceOnUse">
            <stop offset="0" stop-color="#2e3033" />
            <stop offset="1" stop-color="#9ba1ab" stop-opacity="0" />
        </linearGradient>
        <linearGradient id="未命名的渐变_26-5" x1="1429.77" y1="-285.11" x2="1433.25" y2="-285.11"
            gradientTransform="matrix(2.47, 0, 0, 8.52, -3411.93, 2464.55)" xlink:href="#未命名的渐变_26" />
        <linearGradient id="未命名的渐变_26-6" x1="1429.99" y1="-285.21" x2="1433.02" y2="-285.21"
            gradientTransform="matrix(2.47, 0, 0, 6.07, -3414.22, 1765.12)" xlink:href="#未命名的渐变_26" />
        <linearGradient id="未命名的渐变_26-7" x1="1430.4" y1="-285.16" x2="1432.61" y2="-285.16"
            gradientTransform="matrix(2.47, 0, 0, 29.1, -3403.12, 8332.61)" xlink:href="#未命名的渐变_26" />
        <linearGradient id="未命名的渐变_26-8" x1="1428.11" y1="-285.56" x2="1434.9" y2="-285.56"
            gradientTransform="translate(-3421.53 320.8) scale(2.47 1)" xlink:href="#未命名的渐变_26" />
        <linearGradient id="未命名的渐变_26-9" x1="1428.83" y1="-287.04" x2="1429.48" y2="-287.04"
            gradientTransform="matrix(2.47, 0, 0, 1, -3414.24, 316.49)" xlink:href="#未命名的渐变_26" />
        <linearGradient id="未命名的渐变_26-10" x1="1430.4" y1="-287.04" x2="1431.05" y2="-287.04"
            gradientTransform="matrix(2.47, 0, 0, 1, -3418.11, 320.36)" xlink:href="#未命名的渐变_26" />
        <linearGradient id="未命名的渐变_26-11" x1="1431.96" y1="-287.04" x2="1432.61" y2="-287.04"
            gradientTransform="matrix(2.47, 0, 0, 1, -3421.98, 324.22)" xlink:href="#未命名的渐变_26" />
        <linearGradient id="未命名的渐变_26-12" x1="1433.53" y1="-287.04" x2="1434.18" y2="-287.04"
            gradientTransform="matrix(2.47, 0, 0, 1, -3425.85, 328.09)" xlink:href="#未命名的渐变_26" />
        <linearGradient id="未命名的渐变_247" x1="55.21" y1="54.05" x2="55.21" gradientUnits="userSpaceOnUse">
            <stop offset="0" stop-color="#8a9199" />
            <stop offset="0.08" stop-color="#5d6166" />
            <stop offset="0.15" stop-color="#676b71" />
            <stop offset="0.27" stop-color="#81868d" />
            <stop offset="0.42" stop-color="#acb2bc" />
            <stop offset="0.47" stop-color="#bbc2cc" />
            <stop offset="0.54" stop-color="#bbc2cc" />
            <stop offset="1" stop-color="#bbc2cc" />
        </linearGradient>
        <linearGradient id="未命名的渐变_250" x1="55.21" y1="54.05" x2="55.21" y2="7.48" gradientUnits="userSpaceOnUse">
            <stop offset="0" stop-color="#8a9199" />
            <stop offset="0.08" stop-color="#5d6166" />
            <stop offset="0.16" stop-color="#676b71" />
            <stop offset="0.29" stop-color="#81868d" />
            <stop offset="0.47" stop-color="#acb2bc" />
            <stop offset="0.52" stop-color="#bbc2cc" />
            <stop offset="0.59" stop-color="#bbc2cc" />
            <stop offset="1" stop-color="#bbc2cc" />
        </linearGradient>
        <linearGradient id="未命名的渐变_261" x1="55.21" y1="54.33" x2="55.21" y2="7.2" gradientUnits="userSpaceOnUse">
            <stop offset="0" stop-color="#5c6066" stop-opacity="0" />
            <stop offset="1" stop-color="#dde0e6" />
        </linearGradient>
        <linearGradient id="未命名的渐变_267" x1="10.35" y1="2.04" x2="10.35" y2="6.05" gradientUnits="userSpaceOnUse">
            <stop offset="0" stop-color="#f5faff" />
            <stop offset="1" stop-color="#8a9099" />
        </linearGradient>
        <linearGradient id="未命名的渐变_267-2" x1="99.78" y1="2.04" x2="99.78" y2="6.05" xlink:href="#未命名的渐变_267" />
        <linearGradient id="未命名的渐变_267-3" x1="30.23" y1="2.04" x2="30.23" y2="6.05" xlink:href="#未命名的渐变_267" />
        <linearGradient id="未命名的渐变_267-4" x1="41.27" y1="2.04" x2="41.27" y2="6.05" xlink:href="#未命名的渐变_267" />
        <linearGradient id="未命名的渐变_267-5" x1="65.56" y1="2.04" x2="65.56" y2="6.05" xlink:href="#未命名的渐变_267" />
        <linearGradient id="未命名的渐变_267-6" x1="76.6" y1="2.04" x2="76.6" y2="6.05" xlink:href="#未命名的渐变_267" />
        <linearGradient id="未命名的渐变_59-2" x1="126.65" y1="55.6" x2="126.65" y2="77.17"
            gradientTransform="matrix(1, 0, 0, 1, 0, 0)" xlink:href="#未命名的渐变_59" />
        <linearGradient id="未命名的渐变_287" x1="90.72" y1="16.91" x2="90.72" y2="13.01" gradientUnits="userSpaceOnUse">
            <stop offset="0" stop-color="#737880" />
            <stop offset="1" stop-color="#d7dce0" />
        </linearGradient>
        <linearGradient id="未命名的渐变_124" x1="90.72" y1="17.25" x2="90.72" y2="12.67" xlink:href="#未命名的渐变_286" />
        <linearGradient id="未命名的渐变_397" x1="89.41" y1="17.29" x2="92.04" y2="17.29" gradientUnits="userSpaceOnUse">
            <stop offset="0" stop-color="#767b82" />
            <stop offset="0.07" stop-color="#9ba1ab" />
            <stop offset="0.22" stop-color="#e2eaf2" />
            <stop offset="0.28" stop-color="#d1d8e0" />
            <stop offset="0.49" stop-color="#a1a7ae" />
            <stop offset="0.67" stop-color="#7e8489" />
            <stop offset="0.81" stop-color="#696e73" />
            <stop offset="0.91" stop-color="#61666b" />
            <stop offset="1" stop-color="#a9b1bb" />
        </linearGradient>
        <linearGradient id="未命名的渐变_397-2" x1="89.62" y1="20.69" x2="91.82" y2="20.69" xlink:href="#未命名的渐变_397" />
        <linearGradient id="未命名的渐变_397-3" x1="89.27" y1="19.27" x2="92.18" y2="19.27" xlink:href="#未命名的渐变_397" />
        <linearGradient id="未命名的渐变_397-4" x1="89.41" y1="20.69" x2="92.04" y2="20.69" xlink:href="#未命名的渐变_397" />
        <linearGradient id="未命名的渐变_288" x1="90.72" y1="20.33" x2="90.72" y2="19.63" gradientUnits="userSpaceOnUse">
            <stop offset="0" stop-color="#9ba1ab" stop-opacity="0" />
            <stop offset="1" stop-color="#2e3033" />
        </linearGradient>
        <linearGradient id="未命名的渐变_315" x1="137.59" y1="43.62" x2="137.59" y2="26.86" gradientUnits="userSpaceOnUse">
            <stop offset="0" stop-color="#8a9199" />
            <stop offset="0.08" stop-color="#5d6166" />
            <stop offset="0.15" stop-color="#676b71" />
            <stop offset="0.26" stop-color="#81868d" />
            <stop offset="0.41" stop-color="#acb2bc" />
            <stop offset="0.46" stop-color="#bbc2cc" />
            <stop offset="0.48" stop-color="#bbc2cc" />
            <stop offset="0.78" stop-color="#bbc2cc" />
            <stop offset="0.78" stop-color="#c0c7d2" />
            <stop offset="0.8" stop-color="#cad2dd" />
            <stop offset="0.83" stop-color="#d0d8e4" />
            <stop offset="0.91" stop-color="#d2dae6" />
            <stop offset="0.91" stop-color="#cdd5e1" />
            <stop offset="0.93" stop-color="#bbc2cd" />
            <stop offset="0.94" stop-color="#aeb4be" />
            <stop offset="0.97" stop-color="#a6acb6" />
            <stop offset="1" stop-color="#a4aab3" />
        </linearGradient>
        <linearGradient id="未命名的渐变_59-3" x1="141.18" y1="41.14" x2="133.88" y2="48.44"
            gradientTransform="matrix(1, 0, 0, 1, 0, 0)" xlink:href="#未命名的渐变_59" />
        <linearGradient id="未命名的渐变_320-2" x1="137.53" y1="45.96" x2="137.53" y2="43.62"
            gradientTransform="matrix(1, 0, 0, 1, 0, 0)" xlink:href="#未命名的渐变_320" />
        <linearGradient id="未命名的渐变_59-4" x1="142.01" y1="43.49" x2="133.06" y2="52.44"
            gradientTransform="matrix(1, 0, 0, 1, 0, 0)" xlink:href="#未命名的渐变_59" />
        <linearGradient id="未命名的渐变_317" x1="137.53" y1="49.96" x2="137.53" y2="45.96" gradientUnits="userSpaceOnUse">
            <stop offset="0" stop-color="#5c6066" stop-opacity="0" />
            <stop offset="1" stop-color="#f5faff" />
        </linearGradient>
        <linearGradient id="未命名的渐变_181-3" x1="1531.22" y1="-257.06" x2="1531.22" y2="-259.93"
            gradientTransform="matrix(1, 0, 0, 0.67, -1417.04, 251.03)" xlink:href="#未命名的渐变_181" />
        <linearGradient id="未命名的渐变_320-3" x1="1431.51" y1="-286.06" x2="1431.51" y2="-286.39"
            gradientTransform="matrix(2.47, 0, 0, 7.22, -3409.38, 2100.85)" xlink:href="#未命名的渐变_320" />
    </defs>
    <title>Ribbon blender(带式搅拌机)</title>
    <g id="图层_2" data-name="图层 2">
        <g id="图层_16" data-name="图层 16">
            <g id="Ribbon_blender_带式搅拌机_" data-name="Ribbon blender(带式搅拌机)">
                <rect class="cls-1" x="109.31" y="49.5" width="40.69" height="6.1" rx="1.03" />
                <path class="cls-2"
                    d="M149,49.74a.8.8,0,0,1,.79.8v4a.8.8,0,0,1-.79.8H110.34a.79.79,0,0,1-.79-.8v-4a.79.79,0,0,1,.79-.8H149m0-.24H110.34a1,1,0,0,0-1,1v4a1,1,0,0,0,1,1H149a1,1,0,0,0,1-1v-4a1,1,0,0,0-1-1Z" />
                <rect class="cls-3" x="44.96" y="54.05" width="20.49" height="7.04"
                    transform="translate(110.41 115.15) rotate(-180)" />
                <rect class="cls-4" x="42.84" y="61.1" width="24.72" height="1.72"
                    transform="translate(110.41 123.92) rotate(-180)" />
                <rect class="cls-5" x="-36.45" y="36.45" width="76.81" height="3.92"
                    transform="translate(40.36 36.45) rotate(90)" />
                <rect class="cls-6" x="70.05" y="36.45" width="76.81" height="3.92"
                    transform="translate(146.86 -70.05) rotate(90)" />
                <rect class="cls-7" x="103.52" y="34.6" width="15.06" height="1.28"
                    transform="translate(146.29 -75.81) rotate(90)" />
                <rect class="cls-8" x="111.43" y="32.52" width="9.99" height="5.44"
                    transform="translate(151.67 -81.18) rotate(90)" />
                <rect class="cls-9" x="109.91" y="34.05" width="9.99" height="2.39"
                    transform="translate(150.15 -79.66) rotate(90)" />
                <rect class="cls-10" x="117.91" y="33.85" width="8.6" height="2.79"
                    transform="translate(157.46 -86.97) rotate(90)" />
                <rect class="cls-11" x="116.24" y="34.41" width="7.48" height="1.67"
                    transform="translate(155.23 -84.74) rotate(90)" />
                <rect class="cls-12" x="116.24" y="34.41" width="7.48" height="1.67"
                    transform="translate(155.23 -84.74) rotate(90)" />
                <rect class="cls-13" x="127.18" y="28.94" width="5.46" height="12.6"
                    transform="translate(165.17 -94.66) rotate(90.01)" />
                <rect class="cls-14" x="104.32" y="34.23" width="16.75" height="2.02"
                    transform="translate(147.94 -77.45) rotate(90)" />
                <rect class="cls-15" x="113.37" y="28.97" width="1.61" height="0.93"
                    transform="translate(143.6 -84.74) rotate(90)" />
                <rect class="cls-16" x="113.37" y="32.84" width="1.61" height="0.93"
                    transform="translate(147.47 -80.87) rotate(90)" />
                <rect class="cls-17" x="113.37" y="36.71" width="1.61" height="0.93"
                    transform="translate(151.34 -77) rotate(90)" />
                <rect class="cls-18" x="113.37" y="40.58" width="1.61" height="0.93"
                    transform="translate(155.21 -73.13) rotate(90)" />
                <rect class="cls-19" x="3.92" width="102.58" height="54.05" />
                <rect class="cls-20" x="6.46" y="7.48" width="97.5" height="46.57" />
                <rect class="cls-21" x="8.35" y="2.04" width="4.02" height="4.02" />
                <path class="cls-22" d="M12.25,2.15V5.94H8.46V2.15h3.79M12.36,2h-4v4h4V2Z" />
                <rect class="cls-23" x="8.82" y="2.51" width="0.43" height="0.86" />
                <rect class="cls-23" x="8.82" y="4.72" width="0.43" height="0.86" />
                <rect class="cls-23" x="11.57" y="2.51" width="0.43" height="0.86" />
                <rect class="cls-23" x="11.57" y="4.72" width="0.43" height="0.86" />
                <rect class="cls-21" x="97.77" y="2.04" width="4.02" height="4.02" />
                <path class="cls-24" d="M101.68,2.15V5.94h-3.8V2.15h3.8m.11-.11h-4v4h4V2Z" />
                <rect class="cls-23" x="98.25" y="2.51" width="0.43" height="0.86" />
                <rect class="cls-23" x="98.25" y="4.72" width="0.43" height="0.86" />
                <rect class="cls-23" x="101" y="2.51" width="0.43" height="0.86" />
                <rect class="cls-23" x="101" y="4.72" width="0.43" height="0.86" />
                <rect class="cls-21" x="28.22" y="2.04" width="4.02" height="4.02" />
                <path class="cls-25" d="M32.13,2.15V5.94h-3.8V2.15h3.8M32.24,2h-4v4h4V2Z" />
                <rect class="cls-23" x="28.69" y="2.51" width="0.43" height="0.86" />
                <rect class="cls-23" x="28.69" y="4.72" width="0.43" height="0.86" />
                <rect class="cls-23" x="31.44" y="2.51" width="0.43" height="0.86" />
                <rect class="cls-23" x="31.44" y="4.72" width="0.43" height="0.86" />
                <rect class="cls-21" x="39.26" y="2.04" width="4.02" height="4.02" />
                <path class="cls-26" d="M43.17,2.15V5.94h-3.8V2.15h3.8M43.28,2h-4v4h4V2Z" />
                <rect class="cls-23" x="39.73" y="2.51" width="0.43" height="0.86" />
                <rect class="cls-23" x="39.73" y="4.72" width="0.43" height="0.86" />
                <rect class="cls-23" x="42.48" y="2.51" width="0.43" height="0.86" />
                <rect class="cls-23" x="42.48" y="4.72" width="0.43" height="0.86" />
                <rect class="cls-21" x="63.55" y="2.04" width="4.02" height="4.02" />
                <path class="cls-27" d="M67.46,2.15V5.94h-3.8V2.15h3.8M67.57,2h-4v4h4V2Z" />
                <rect class="cls-23" x="64.02" y="2.51" width="0.43" height="0.86" />
                <rect class="cls-23" x="64.02" y="4.72" width="0.43" height="0.86" />
                <rect class="cls-23" x="66.77" y="2.51" width="0.43" height="0.86" />
                <rect class="cls-23" x="66.77" y="4.72" width="0.43" height="0.86" />
                <rect class="cls-21" x="74.59" y="2.04" width="4.02" height="4.02" />
                <path class="cls-28" d="M78.5,2.15V5.94H74.7V2.15h3.8M78.61,2h-4v4h4V2Z" />
                <rect class="cls-23" x="75.06" y="2.51" width="0.43" height="0.86" />
                <rect class="cls-23" x="75.06" y="4.72" width="0.43" height="0.86" />
                <rect class="cls-23" x="77.81" y="2.51" width="0.43" height="0.86" />
                <rect class="cls-23" x="77.81" y="4.72" width="0.43" height="0.86" />
                <polygon class="cls-29" points="110.41 77.17 120.04 77.17 142.9 55.6 110.53 55.6 110.41 77.17" />
                <circle class="cls-30" cx="90.72" cy="14.96" r="1.95" />
                <path class="cls-31"
                    d="M90.63,15h.18A1.23,1.23,0,0,1,92,16.19v3.44a0,0,0,0,1,0,0H89.41a0,0,0,0,1,0,0V16.19A1.23,1.23,0,0,1,90.63,15Z" />
                <rect class="cls-32" x="89.62" y="19.63" width="2.2" height="2.12" />
                <rect class="cls-33" x="89.27" y="18.92" width="2.91" height="0.71" />
                <rect class="cls-34" x="89.41" y="20.33" width="2.63" height="0.71" />
                <rect class="cls-35" x="89.62" y="19.63" width="2.2" height="0.71" />
                <rect class="cls-36" x="130.69" y="26.86" width="13.79" height="16.75" />
                <rect class="cls-37" x="131.4" y="43.62" width="12.26" height="2.35" />
                <rect class="cls-38" x="131.4" y="43.62" width="12.26" height="2.35" />
                <rect class="cls-39" x="130.59" y="45.96" width="13.89" height="4" />
                <path class="cls-40" d="M144.26,46.18v3.56H130.81V46.18h13.45m.22-.22H130.59v4h13.89V46Z" />
                <rect class="cls-41" x="106.32" y="76.81" width="15.7" height="1.92" />
                <rect class="cls-42" x="122.1" y="34.05" width="5.46" height="2.39"
                    transform="translate(160.08 -89.59) rotate(90)" />
                
            </g>
        </g>
    </g>
</svg>