<?xml version="1.0" encoding="utf-8"?>
<!-- Generator: Adobe Illustrator 19.0.0, SVG Export Plug-In . SVG Version: 6.00 Build 0)  -->
<svg version="1.1" id="图层_1" xmlns="http://www.w3.org/2000/svg" xmlns:xlink="http://www.w3.org/1999/xlink" x="0px" y="0px"
	 viewBox="-68 -69 45 182" style="enable-background:new -68 -69 45 182;" xml:space="preserve">
<style type="text/css">
	.st0{fill:url(#XMLID_4_);}
	.st1{fill:url(#XMLID_6_);}
	.st2{fill:url(#XMLID_7_);}
</style>
<linearGradient id="XMLID_4_" gradientUnits="userSpaceOnUse" x1="-63" y1="108.1667" x2="-63" y2="85.8333" gradientTransform="matrix(1 0 0 -1 0 43)">
	<stop  offset="0" style="stop-color:#8C8C8C"/>
	<stop  offset="0.5" style="stop-color:#D3D3D3"/>
	<stop  offset="1" style="stop-color:#8C8C8C"/>
</linearGradient>
<path id="XMLID_1_" class="st0" d="M-65-42.8h7v-22.4h-7c-1.7,0-3,1.3-3,3v16.3C-68-44.2-66.7-42.8-65-42.8z"/>
<linearGradient id="XMLID_6_" gradientUnits="userSpaceOnUse" x1="-63" y1="-43.6" x2="-63" y2="-65.9334" gradientTransform="matrix(1 0 0 -1 0 43)">
	<stop  offset="0" style="stop-color:#8C8C8C"/>
	<stop  offset="0.5" style="stop-color:#D3D3D3"/>
	<stop  offset="1" style="stop-color:#8C8C8C"/>
</linearGradient>
<path id="XMLID_5_" class="st1" d="M-65,108.9h7V86.6h-7c-1.7,0-3,1.3-3,3v16.3C-68,107.6-66.7,108.9-65,108.9z"/>
<linearGradient id="XMLID_7_" gradientUnits="userSpaceOnUse" x1="-188.5" y1="-360" x2="-188.5" y2="-178" gradientTransform="matrix(-1 0 0 -1 -229 -247)">
	<stop  offset="0" style="stop-color:#2758BB"/>
	<stop  offset="4.672226e-002" style="stop-color:#3162C3"/>
	<stop  offset="0.2451" style="stop-color:#5986E4"/>
	<stop  offset="0.4031" style="stop-color:#719DF8"/>
	<stop  offset="0.5" style="stop-color:#7AA5FF"/>
	<stop  offset="0.5944" style="stop-color:#719DF8"/>
	<stop  offset="0.7483" style="stop-color:#5986E4"/>
	<stop  offset="0.9416" style="stop-color:#3161C4"/>
	<stop  offset="1" style="stop-color:#2455B9"/>
</linearGradient>
<path id="XMLID_2_" class="st2" d="M-23-66v176c0,1.7-1.3,3-3,3h-29c-1.7,0-3-1.3-3-3V-66c0-1.7,1.3-3,3-3h29
	C-24.3-69-23-67.7-23-66z"/>
</svg>
