<?xml version="1.0" encoding="utf-8"?>
<!-- Generator: Adobe Illustrator 19.0.0, SVG Export Plug-In . SVG Version: 6.00 Build 0)  -->
<svg version="1.1" id="图层_1" xmlns="http://www.w3.org/2000/svg" xmlns:xlink="http://www.w3.org/1999/xlink" x="0px" y="0px"
	 viewBox="0 0 182 45" style="enable-background:new 0 0 182 45;" xml:space="preserve">
<style type="text/css">
	.st0{fill:url(#XMLID_4_);}
	.st1{fill:url(#XMLID_6_);}
	.st2{fill:url(#XMLID_7_);}
</style>
<linearGradient id="XMLID_4_" gradientUnits="userSpaceOnUse" x1="96.5" y1="118" x2="96.5" y2="-64" gradientTransform="matrix(-4.489659e-011 -1 -1 4.489659e-011 118.5 114.5)">
	<stop  offset="0" style="stop-color:#AB301C"/>
	<stop  offset="0.1638" style="stop-color:#CE5C50"/>
	<stop  offset="0.3114" style="stop-color:#E97D78"/>
	<stop  offset="0.4283" style="stop-color:#F99190"/>
	<stop  offset="0.5" style="stop-color:#FF9999"/>
	<stop  offset="0.5705" style="stop-color:#F99190"/>
	<stop  offset="0.6854" style="stop-color:#E97D78"/>
	<stop  offset="0.8304" style="stop-color:#CF5B50"/>
	<stop  offset="0.9986" style="stop-color:#AA2D19"/>
	<stop  offset="1" style="stop-color:#AA2D19"/>
</linearGradient>
<path id="XMLID_3_" class="st0" d="M0.5,32.5v-29c0-1.7,1.3-3,3-3h176c1.7,0,3,1.3,3,3v29c0,1.7-1.3,3-3,3H3.5
	C1.8,35.5,0.5,34.2,0.5,32.5z"/>
<linearGradient id="XMLID_6_" gradientUnits="userSpaceOnUse" x1="74" y1="-66.1667" x2="74" y2="-43.8333" gradientTransform="matrix(-4.489659e-011 -1 1 -4.489659e-011 70.5 114.5)">
	<stop  offset="0" style="stop-color:#8C8C8C"/>
	<stop  offset="0.5" style="stop-color:#D3D3D3"/>
	<stop  offset="1" style="stop-color:#8C8C8C"/>
</linearGradient>
<path id="XMLID_1_" class="st1" d="M26.7,42.5v-7H4.3v7c0,1.7,1.3,3,3,3h16.3C25.3,45.5,26.7,44.2,26.7,42.5z"/>
<linearGradient id="XMLID_7_" gradientUnits="userSpaceOnUse" x1="74" y1="85.5833" x2="74" y2="107.9167" gradientTransform="matrix(-4.489659e-011 -1 1 -4.489659e-011 70.5 114.5)">
	<stop  offset="0" style="stop-color:#8C8C8C"/>
	<stop  offset="0.5" style="stop-color:#D3D3D3"/>
	<stop  offset="1" style="stop-color:#8C8C8C"/>
</linearGradient>
<path id="XMLID_5_" class="st2" d="M178.4,42.5v-7h-22.3v7c0,1.7,1.3,3,3,3h16.3C177.1,45.5,178.4,44.2,178.4,42.5z"/>
</svg>
