<?xml version="1.0" encoding="utf-8"?>
<!-- Generator: Adobe Illustrator 19.0.0, SVG Export Plug-In . SVG Version: 6.00 Build 0)  -->
<svg version="1.1" id="图层_1" xmlns="http://www.w3.org/2000/svg" xmlns:xlink="http://www.w3.org/1999/xlink" x="0px" y="0px"
	 viewBox="-87 20 45 182" style="enable-background:new -87 20 45 182;" xml:space="preserve">
<style type="text/css">
	.st0{fill:url(#XMLID_4_);}
	.st1{fill:url(#XMLID_6_);}
	.st2{fill:url(#XMLID_7_);}
</style>
<linearGradient id="XMLID_4_" gradientUnits="userSpaceOnUse" x1="-528" y1="162.8333" x2="-528" y2="185.1667" gradientTransform="matrix(-1 0 0 -1 -575 361)">
	<stop  offset="0" style="stop-color:#8C8C8C"/>
	<stop  offset="0.5" style="stop-color:#D3D3D3"/>
	<stop  offset="1" style="stop-color:#8C8C8C"/>
</linearGradient>
<path id="XMLID_1_" class="st0" d="M-45,175.8h-7v22.3h7c1.7,0,3-1.3,3-3v-16.3C-42,177.2-43.3,175.8-45,175.8z"/>
<linearGradient id="XMLID_6_" gradientUnits="userSpaceOnUse" x1="-528" y1="314.6" x2="-528" y2="336.9334" gradientTransform="matrix(-1 0 0 -1 -575 361)">
	<stop  offset="0" style="stop-color:#8C8C8C"/>
	<stop  offset="0.5" style="stop-color:#D3D3D3"/>
	<stop  offset="1" style="stop-color:#8C8C8C"/>
</linearGradient>
<path id="XMLID_5_" class="st1" d="M-45,24.1h-7v22.3h7c1.7,0,3-1.3,3-3V27.1C-42,25.4-43.3,24.1-45,24.1z"/>
<linearGradient id="XMLID_7_" gradientUnits="userSpaceOnUse" x1="-507.5" y1="669" x2="-507.5" y2="487" gradientTransform="matrix(-1 0 0 1 -577 -467)">
	<stop  offset="0" style="stop-color:#2758BB"/>
	<stop  offset="4.672226e-002" style="stop-color:#3162C3"/>
	<stop  offset="0.2451" style="stop-color:#5986E4"/>
	<stop  offset="0.4031" style="stop-color:#719DF8"/>
	<stop  offset="0.5" style="stop-color:#7AA5FF"/>
	<stop  offset="0.5944" style="stop-color:#719DF8"/>
	<stop  offset="0.7483" style="stop-color:#5986E4"/>
	<stop  offset="0.9416" style="stop-color:#3161C4"/>
	<stop  offset="1" style="stop-color:#2455B9"/>
</linearGradient>
<path id="XMLID_2_" class="st2" d="M-52,23v176c0,1.7-1.3,3-3,3h-29c-1.7,0-3-1.3-3-3V23c0-1.7,1.3-3,3-3h29C-53.3,20-52,21.3-52,23
	z"/>
</svg>
