<?xml version="1.0" encoding="utf-8"?>
<!-- Generator: Adobe Illustrator 19.0.0, SVG Export Plug-In . SVG Version: 6.00 Build 0)  -->
<svg version="1.1" id="图层_1" xmlns="http://www.w3.org/2000/svg" xmlns:xlink="http://www.w3.org/1999/xlink" x="0px" y="0px"
	 viewBox="0 0 182 45" style="enable-background:new 0 0 182 45;" xml:space="preserve">
<style type="text/css">
	.st0{fill:url(#XMLID_4_);}
	.st1{fill:url(#XMLID_6_);}
	.st2{fill:url(#XMLID_7_);}
</style>
<linearGradient id="XMLID_4_" gradientUnits="userSpaceOnUse" x1="73.5" y1="110.6667" x2="73.5" y2="88.3333" gradientTransform="matrix(4.489659e-011 1 1 -4.489659e-011 67.5 -68.5)">
	<stop  offset="0" style="stop-color:#8C8C8C"/>
	<stop  offset="0.5" style="stop-color:#D3D3D3"/>
	<stop  offset="1" style="stop-color:#8C8C8C"/>
</linearGradient>
<path id="XMLID_1_" class="st0" d="M155.8,3v7h22.3V3c0-1.7-1.3-3-3-3h-16.3C157.2,0,155.8,1.3,155.8,3z"/>
<linearGradient id="XMLID_6_" gradientUnits="userSpaceOnUse" x1="73.5" y1="-41.1" x2="73.5" y2="-63.4334" gradientTransform="matrix(4.489659e-011 1 1 -4.489659e-011 67.5 -68.5)">
	<stop  offset="0" style="stop-color:#8C8C8C"/>
	<stop  offset="0.5" style="stop-color:#D3D3D3"/>
	<stop  offset="1" style="stop-color:#8C8C8C"/>
</linearGradient>
<path id="XMLID_5_" class="st1" d="M4.1,3v7h22.3V3c0-1.7-1.3-3-3-3H7.1C5.4,0,4.1,1.3,4.1,3z"/>
<linearGradient id="XMLID_7_" gradientUnits="userSpaceOnUse" x1="-74" y1="-59.5" x2="-74" y2="-241.5" gradientTransform="matrix(4.489659e-011 1 -1 4.489659e-011 -59.5 101.5)">
	<stop  offset="0" style="stop-color:#2758BB"/>
	<stop  offset="4.672226e-002" style="stop-color:#3162C3"/>
	<stop  offset="0.2451" style="stop-color:#5986E4"/>
	<stop  offset="0.4031" style="stop-color:#719DF8"/>
	<stop  offset="0.5" style="stop-color:#7AA5FF"/>
	<stop  offset="0.5944" style="stop-color:#719DF8"/>
	<stop  offset="0.7483" style="stop-color:#5986E4"/>
	<stop  offset="0.9416" style="stop-color:#3161C4"/>
	<stop  offset="1" style="stop-color:#2455B9"/>
</linearGradient>
<path id="XMLID_2_" class="st2" d="M3,10h176c1.7,0,3,1.3,3,3v29c0,1.7-1.3,3-3,3H3c-1.7,0-3-1.3-3-3V13C0,11.3,1.3,10,3,10z"/>
</svg>
