<?xml version="1.0" encoding="utf-8"?>
<!-- Generator: Adobe Illustrator 23.0.0, SVG Export Plug-In . SVG Version: 6.00 Build 0)  -->
<svg version="1.1" id="图层_1" xmlns="http://www.w3.org/2000/svg" xmlns:xlink="http://www.w3.org/1999/xlink" x="0px" y="0px"
	 viewBox="0 0 131.4 106.5" style="enable-background:new 0 0 131.4 106.5;" xml:space="preserve">
<style type="text/css">
	.st0{fill:#00CDCC;stroke:#000000;stroke-width:0.25;}
	.st1{fill:#05E2E7;}
	.st2{fill:#FFFFFF;}
	.st3{fill:#B4B4B4;}
	.st4{fill:#A0A0A0;}
	.st5{fill:#919191;}
	.st6{fill:#7D7D7D;}
	.st7{fill:#717171;}
	.st8{fill:#5F5F5F;}
	.st9{fill:#494949;}
	.st10{fill:none;stroke:#000000;stroke-width:0.25;}
	.st11{fill:#CBCBCB;}
	.st12{fill:none;stroke:#FFFFFF;stroke-width:0.25;}
</style>
<path class="st0" d="M22,92.9l-9.2-9.2L6.1,72.3L2.9,59.9l0-13.2L6.3,34l6.5-11.2l9.2-9.2l11.2-6.7l12.8-3.2h81v44H102v12.2
	l-3.2,12.4l-6.7,11.5l-9.2,9.2l-11.2,6.5l-12.6,3.4H45.9l-12.5-3.4L22,92.9z"/>
<path class="st1" d="M23.7,90.7L15,82L8.8,71.4l-3.2-12V46.9l3.2-11.7L15,24.5l8.7-8.7l10.7-6.2l12-3.2h12.2l12,3.2l10.7,6.2
	l8.7,8.7L96.1,35l3.3,11.8v12.5l-3.3,12L89.9,82l-8.7,8.7l-10.7,6.2l-12,3.3H46.3l-12-3.3L23.7,90.7z"/>
<path d="M28.7,22.2l9-5.1l9.7-2.5h10.3l9.9,2.6l8.7,5l7.2,7.2l4.9,8.7l2.8,10v10.3l-2.8,9.6l-4.9,9l-7.2,7.2L28.7,22.2z"/>
<path class="st2" d="M28.7,84.3L21.5,77l-5-9l-2.6-9.6V48.2l2.6-10l5-8.7l7.2-7.2l47.5,62l-9,4.9l-9.6,2.8H47.4l-9.7-2.8L28.7,84.3z
	"/>
<path class="st3" d="M30.4,82l-6.7-6.7L19.1,67l-2.6-9.1v-9.5l2.6-9l4.6-8.3l6.7-6.7l8.3-4.6l9.2-2.6h9.3l9,2.6l8.3,4.6l6.7,6.7
	l4.7,8.3l2.4,9v9.5L86,67l-4.7,8.3L74.5,82l-8.3,4.7l-9.1,2.4h-9.2l-9.2-2.4L30.4,82z"/>
<path class="st4" d="M33.2,78.2l-5.7-5.7l-4.2-7.2l-2.4-7.9v-8.3l2.4-8.2l4.2-7l5.7-5.9l7.2-3.9l7.9-2.4h8.3l7.9,2.4l7.2,3.9
	l5.7,5.9l4.3,7l2,8.2v8.3l-2,7.9l-4.3,7.2l-5.9,5.7l-7,4.1l-7.9,2.2h-8.3l-7.9-2.2L33.2,78.2z"/>
<path class="st5" d="M35.9,74.5l-5-5l-3.4-6.2l-1.7-6.7v-7l1.7-6.7l3.7-6.2l4.7-5l6.2-3.4l6.7-1.7h7.2l6.7,1.7l5.9,3.4l5,5l3.6,6.2
	l2,6.7v7l-2,6.7l-3.6,6.2l-5,5l-5.9,3.6l-6.7,2h-7.2l-6.7-2L35.9,74.5z"/>
<path class="st6" d="M39,70.8l-4.2-3.9L32,61.6l-1.6-5.5v-5.9l1.6-5.5l2.8-4.9l4.2-4.2l4.9-3l5.8-1.4h5.7l5.8,1.4l5,3l3.9,4.2
	l2.9,4.9l1.6,5.5v5.9l-1.6,5.5l-2.6,5.3l-4.2,3.9l-5,2.9l-5.8,1.6h-5.7l-5.8-1.6L39,70.8z"/>
<path class="st7" d="M41.6,67l-3.2-3.2l-2.2-3.9l-1.3-4.6v-4.5l1.3-4.3l2.2-4.1l3.2-3.2l4.1-2.2l4.3-1.3h4.9l4.3,1.3l3.8,2.2
	l3.4,3.2l2.2,4.1l1.3,4.3v4.5l-1.3,4.6l-2.2,3.9L63.1,67l-3.8,2.2l-4.3,1.3H50l-4.3-1.1L41.6,67z"/>
<circle class="st8" cx="52.5" cy="53.1" r="12.8"/>
<circle class="st9" cx="52.5" cy="53.2" r="8.3"/>
<path class="st10" d="M38.7,86.8L30.4,82l-6.7-6.7L19.1,67l-2.6-9.1v-9.5l2.6-9l4.6-8.3l6.7-6.7l8.3-4.6l9.2-2.6h9.3l9,2.6l8.3,4.6
	l6.7,6.7l4.7,8.3l2.4,9v9.5L86,67l-4.7,8.3L74.5,82l-8.3,4.7l-9.1,2.4h-9.2L38.7,86.8"/>
<path class="st11" d="M51.3,55.8l-1.7-1.4v-2.5l1.7-1.4h2.2l1.7,1.4v2.5l-1.7,1.4H51.3z"/>
<path class="st12" d="M51.3,50.4h2.2l1.7,1.4v2.5"/>
</svg>
