<?xml version="1.0" encoding="utf-8"?>
<!-- Generator: Adobe Illustrator 23.0.0, SVG Export Plug-In . SVG Version: 6.00 Build 0)  -->
<svg version="1.1" id="图层_1" xmlns="http://www.w3.org/2000/svg" xmlns:xlink="http://www.w3.org/1999/xlink" x="0px" y="0px"
	 viewBox="0 0 144.7 87.9" style="enable-background:new 0 0 144.7 87.9;" xml:space="preserve">
<style type="text/css">
	.st0{fill:#2F679A;}
	.st1{fill:#31669A;}
	.st2{fill:#285F95;}
	.st3{fill:#215A92;}
	.st4{fill:none;stroke:#000000;stroke-width:0.25;}
	.st5{fill:#676767;}
	.st6{fill:#C6C6C6;}
	.st7{fill:#949494;}
	.st8{fill:#0E2565;}
	.st9{fill:#002100;}
	.st10{fill:#6667E0;}
	.st11{fill:#9BB6DA;}
	.st12{fill:none;stroke:#B2B2B2;stroke-width:0.25;}
	.st13{fill:#FFFFFF;}
	.st14{fill:none;stroke:#003366;stroke-width:0.25;}
	.st15{fill:#022359;}
	.st16{fill:#000435;}
	.st17{fill:#001100;}
	.st18{fill:none;stroke:#99CCFF;stroke-width:0.25;}
	.st19{fill:#2F679A;stroke:#000000;stroke-width:0.25;}
	.st20{fill:#6667E0;stroke:#000000;stroke-width:0.25;}
	.st21{fill:#314C78;}
</style>
<path class="st0" d="M13.6,84.1h125.3V4.1H13.6V84.1z"/>
<path class="st1" d="M13.6,84.1h125.3V27.5L13.6,60.8V84.1z"/>
<path class="st2" d="M13.6,84.1h125.3V31L13.6,64.3V84.1z"/>
<path class="st3" d="M13.6,84.1h125.3V35.9L13.6,69.3V84.1z"/>
<path class="st4" d="M13.6,4.1v79.9h125.3V4.1H13.6"/>
<path class="st5" d="M60.6,23.6l-5.9-3.2l-6.4-1.7h-6.8L35,20.4l-5.8,3.2l-4.9,4.9L21,34.3l-1.7,6.5v6.5L21,54l3.2,5.9L60.6,23.6z"
	/>
<path class="st6" d="M60.6,64.6l4.6-4.6l3.6-5.9l1.6-6.7v-6.5l-1.6-6.5l-3.6-5.8L29.2,64.6L35,68l6.5,1.9h6.8l6.4-1.9L60.6,64.6z"/>
<path class="st7" d="M65.3,28.5l-4.6-4.9L24.2,60l4.9,4.6L65.3,28.5z"/>
<path class="st4" d="M54.7,68l5.9-3.3l4.6-4.6l3.6-5.9l1.6-6.7v-6.5l-1.6-6.5l-3.6-5.8l-4.6-4.9l-5.9-3.2l-6.4-1.7h-6.8L35,20.4
	l-5.8,3.2l-4.9,4.9L21,34.3l-1.7,6.5v6.5L21,54l3.2,5.9l4.9,4.6L35,68l6.5,1.9h6.8L54.7,68"/>
<path class="st8" d="M58.7,62.4l4.4-4.4l3-5.2l1.6-5.8v-5.9l-1.6-5.8l-3-5.1L59,26.2l-5.5-3l-5.7-1.7h-6.1L36,23.1l-5.1,3l-4.2,4.1
	l-2.9,5.1L22,41.1v5.9l1.7,5.8l2.9,5.2l4.2,4.4l5.1,3l5.8,1.3h6.1l5.7-1.3L58.7,62.4z"/>
<path class="st9" d="M64.4,55.6l1.7-2.8H23.8l1.3,2.8H64.4z"/>
<path class="st10" d="M46.1,45v-1.5H22V45H46.1z"/>
<path class="st11" d="M61.8,54.5l0.4-0.7l-14.4-9l-0.6-2.5l8.1-15.1l-1-0.6l-9.1,14.5l-2.2,0.6l-15.2-8l-0.6,1.2l14.5,9l0.6,2.2
	l-8,15.1l1.2,0.6l9-14.6l2.2-0.4L61.8,54.5z"/>
<path class="st12" d="M62.2,53.7l-14.4-9l-0.6-2.5l8.1-15.1l-1-0.6l-9.1,14.5l-2.2,0.6l-15.2-8l-0.6,1.2l14.5,9l0.6,2.2l-8,15.1"/>
<path class="st13" d="M27.3,34.9l0.6-1.5l-0.6-0.3l-0.6,1.5L27.3,34.9z"/>
<path class="st13" d="M62.2,55l0.9-1l-0.6-0.6l-0.7,1.3L62.2,55z"/>
<path class="st13" d="M35.5,62l-1.2-0.9l-0.6,0.6l1.5,0.7L35.5,62z"/>
<path class="st13" d="M55.7,26.6l-1-0.7l-0.3,0.7l1,0.6L55.7,26.6z"/>
<path class="st14" d="M76.3,83.2v-79"/>
<path class="st15" d="M96.2,78.4h37V9.9h-37V78.4z"/>
<path class="st16" d="M133.1,9.9h-37v2.8h31.2L133.1,9.9z"/>
<path class="st17" d="M23.5,82.7h2.2v-1.6h-2.2V82.7z"/>
<path class="st17" d="M40.6,82.7h2.3v-1.6h-2.3V82.7z"/>
<path class="st17" d="M57.9,82.7H60v-1.6h-2.2V82.7z"/>
<path class="st17" d="M75.1,82.7h2.2v-1.6h-2.2V82.7z"/>
<path class="st17" d="M92.4,82.7h2.2v-1.6h-2.2V82.7z"/>
<path class="st17" d="M109.4,82.7h2.5v-1.6h-2.5V82.7z"/>
<path class="st17" d="M126.6,82.7h2.2v-1.6h-2.2V82.7z"/>
<path class="st17" d="M23.5,7.2h2.2V5.9h-2.2V7.2z"/>
<path class="st17" d="M40.6,7.2h2.3V5.9h-2.3V7.2z"/>
<path class="st17" d="M57.9,7.2H60V5.9h-2.2V7.2z"/>
<path class="st17" d="M75.1,7.2h2.2V5.9h-2.2V7.2z"/>
<path class="st17" d="M92.4,7.2h2.2V5.9h-2.2V7.2z"/>
<path class="st17" d="M109.4,7.2h2.5V5.9h-2.5V7.2z"/>
<path class="st17" d="M126.6,7.2h2.2V5.9h-2.2V7.2z"/>
<path class="st18" d="M25.7,5.9h-2.2"/>
<path class="st18" d="M42.9,5.9h-2.3"/>
<path class="st18" d="M60,5.9h-2.2"/>
<path class="st18" d="M77.3,5.9h-2.2"/>
<path class="st18" d="M94.6,5.9h-2.2"/>
<path class="st18" d="M111.5,5.9h-1.9"/>
<path class="st18" d="M128.8,5.9h-1.9"/>
<path class="st18" d="M25.7,81.2h-2.2"/>
<path class="st18" d="M42.9,81.2h-2.3"/>
<path class="st18" d="M60,81.2h-2.2"/>
<path class="st18" d="M77.3,81.2h-2.2"/>
<path class="st18" d="M94.6,81.2h-2.2"/>
<path class="st18" d="M111.5,81.2h-1.9"/>
<path class="st18" d="M128.8,81.2h-1.9"/>
<path class="st15" d="M14.9,61.4h-1.3V27.2h1.3V61.4z"/>
<path class="st19" d="M2,61.4h11.6V27.2H2V61.4z"/>
<path class="st4" d="M4.2,38.4V50"/>
<path class="st4" d="M5.7,50V38.4"/>
<path class="st4" d="M7.1,38.4V50"/>
<path class="st4" d="M8.4,50V38.4"/>
<path class="st4" d="M10,38.4V50"/>
<path class="st4" d="M11.5,50V38.4"/>
<path class="st20" d="M13.6,57.8l1.3-0.7V43.3H19V45h-2.8v13.3l-2.6,1.3V57.8z"/>
<path class="st21" d="M133.1,78.4V9.9l-5.8,2.8v65.7H133.1z"/>
<path class="st4" d="M96.2,9.9v68.5h37V9.9H96.2"/>
<path class="st4" d="M8.7,32.7h1l0.9-0.9v-1.2L9.7,30h-1l-0.9,0.7v1.2L8.7,32.7"/>
</svg>
