<?xml version="1.0" encoding="utf-8"?>
<!-- Generator: Adobe Illustrator 23.0.0, SVG Export Plug-In . SVG Version: 6.00 Build 0)  -->
<svg version="1.1" id="图层_1" xmlns="http://www.w3.org/2000/svg" xmlns:xlink="http://www.w3.org/1999/xlink" x="0px" y="0px"
	 viewBox="0 0 115.6 106.5" style="enable-background:new 0 0 115.6 106.5;" xml:space="preserve">
<style type="text/css">
	.st0{fill:#003300;}
	.st1{fill:url(#SVGID_1_);stroke:#000000;stroke-width:0.5;}
	.st2{fill:url(#SVGID_2_);stroke:#000000;stroke-width:0.5;}
	.st3{fill:#E3D5A7;stroke:#000000;stroke-width:0.5;}
	.st4{fill:none;stroke:#000000;stroke-width:0.5;}
	.st5{fill:url(#SVGID_3_);stroke:#000000;stroke-width:0.5;}
	.st6{fill:#F2E6CA;}
	.st7{fill:#E3D4A3;}
	.st8{fill:url(#SVGID_4_);stroke:#000000;stroke-width:0.5;}
	.st9{fill:url(#SVGID_5_);stroke:#000000;stroke-width:0.5;}
	.st10{fill:#E3D4A3;stroke:#000000;stroke-width:0.5;}
	.st11{fill:#F2E6CA;stroke:#000000;stroke-width:0.5;}
	.st12{fill:url(#SVGID_6_);}
	.st13{fill:url(#SVGID_7_);}
</style>
<path class="st0" d="M28.3,22.8h27.3v-0.7H28.3V22.8z"/>
<linearGradient id="SVGID_1_" gradientUnits="userSpaceOnUse" x1="111.4853" y1="103.2605" x2="111.4853" y2="40.7489">
	<stop  offset="0" style="stop-color:#E3CC98"/>
	<stop  offset="9.509934e-02" style="stop-color:#E7D3A7"/>
	<stop  offset="0.2766" style="stop-color:#F1E6CD"/>
	<stop  offset="0.4819" style="stop-color:#FFFFFF"/>
	<stop  offset="0.6655" style="stop-color:#F6F1E2"/>
	<stop  offset="1" style="stop-color:#E2D3A3"/>
</linearGradient>
<path class="st1" d="M110.2,103.3h2.5V40.7h-2.5V103.3z"/>
<linearGradient id="SVGID_2_" gradientUnits="userSpaceOnUse" x1="58.2347" y1="100.5979" x2="58.2347" y2="43.4114">
	<stop  offset="0" style="stop-color:#E3CC98"/>
	<stop  offset="9.509934e-02" style="stop-color:#E7D3A7"/>
	<stop  offset="0.2766" style="stop-color:#F1E6CD"/>
	<stop  offset="0.4819" style="stop-color:#FFFFFF"/>
	<stop  offset="0.6655" style="stop-color:#F6F1E2"/>
	<stop  offset="1" style="stop-color:#E2D3A3"/>
</linearGradient>
<path class="st2" d="M6.3,100.6h104V43.4H6.3V100.6z"/>
<path class="st3" d="M3.7,103.3h2.5V40.7H3.7V103.3z"/>
<path class="st4" d="M89.3,40.7"/>
<linearGradient id="SVGID_3_" gradientUnits="userSpaceOnUse" x1="90.5902" y1="103.2605" x2="90.5902" y2="40.7489">
	<stop  offset="0" style="stop-color:#E3CC98"/>
	<stop  offset="9.509934e-02" style="stop-color:#E7D3A7"/>
	<stop  offset="0.2766" style="stop-color:#F1E6CD"/>
	<stop  offset="0.4819" style="stop-color:#FFFFFF"/>
	<stop  offset="0.6655" style="stop-color:#F6F1E2"/>
	<stop  offset="1" style="stop-color:#E2D3A3"/>
</linearGradient>
<path class="st5" d="M89.3,40.7v62.5h2.7V40.7H89.3z"/>
<path class="st6" d="M27,59h36.5V38.2H27V59z"/>
<path class="st7" d="M27,59h36.5V46L27,53.6V59z"/>
<path class="st4" d="M63.4,59V38.2H27V59"/>
<linearGradient id="SVGID_4_" gradientUnits="userSpaceOnUse" x1="59.5081" y1="22.5742" x2="59.5081" y2="3.2419">
	<stop  offset="0" style="stop-color:#E3CC98"/>
	<stop  offset="9.509934e-02" style="stop-color:#E7D3A7"/>
	<stop  offset="0.2766" style="stop-color:#F1E6CD"/>
	<stop  offset="0.4819" style="stop-color:#FFFFFF"/>
	<stop  offset="0.6655" style="stop-color:#F6F1E2"/>
	<stop  offset="1" style="stop-color:#E2D3A3"/>
</linearGradient>
<path class="st8" d="M55.6,3.2v19.3h7.9V3.2H55.6"/>
<linearGradient id="SVGID_5_" gradientUnits="userSpaceOnUse" x1="41.2755" y1="22.1112" x2="41.2755" y2="3.8208">
	<stop  offset="0" style="stop-color:#E3CC98"/>
	<stop  offset="9.509934e-02" style="stop-color:#E7D3A7"/>
	<stop  offset="0.2766" style="stop-color:#F1E6CD"/>
	<stop  offset="0.4819" style="stop-color:#FFFFFF"/>
	<stop  offset="0.6655" style="stop-color:#F6F1E2"/>
	<stop  offset="1" style="stop-color:#E2D3A3"/>
</linearGradient>
<path class="st9" d="M27,3.8v18.3h28.6V3.8H27"/>
<path class="st10" d="M62.2,38.2v-1.3h-0.7V25.5h0.7v-3.9h-2.7v3.9h0.7v11.5h-0.7v1.3H62.2z"/>
<path class="st10" d="M30.8,38.2v-1.3h-0.6V25.5h0.6v-3.9h-2.5v3.9h0.7v11.5h-0.7v1.3H30.8z"/>
<path class="st11" d="M27,24.1h36.5v-1.3H27V24.1z"/>
<path class="st10" d="M25.8,47.3H27V16.2h-1.2V47.3z"/>
<linearGradient id="SVGID_6_" gradientUnits="userSpaceOnUse" x1="5.2998" y1="100.3333" x2="5.2998" y2="43.6667">
	<stop  offset="0" style="stop-color:#E3CC98"/>
	<stop  offset="9.509934e-02" style="stop-color:#E7D3A7"/>
	<stop  offset="0.2766" style="stop-color:#F1E6CD"/>
	<stop  offset="0.4819" style="stop-color:#FFFFFF"/>
	<stop  offset="0.6655" style="stop-color:#F6F1E2"/>
	<stop  offset="1" style="stop-color:#E2D3A3"/>
</linearGradient>
<rect x="4" y="43.7" class="st12" width="2.6" height="56.7"/>
<linearGradient id="SVGID_7_" gradientUnits="userSpaceOnUse" x1="111.1563" y1="100.3333" x2="111.1563" y2="43.6667">
	<stop  offset="0" style="stop-color:#E3CC98"/>
	<stop  offset="9.509934e-02" style="stop-color:#E7D3A7"/>
	<stop  offset="0.2766" style="stop-color:#F1E6CD"/>
	<stop  offset="0.4819" style="stop-color:#FFFFFF"/>
	<stop  offset="0.6655" style="stop-color:#F6F1E2"/>
	<stop  offset="1" style="stop-color:#E2D3A3"/>
</linearGradient>
<rect x="109.8" y="43.7" class="st13" width="2.6" height="56.7"/>
</svg>
