<?xml version="1.0" encoding="utf-8"?>
<!-- Generator: Adobe Illustrator 23.0.0, SVG Export Plug-In . SVG Version: 6.00 Build 0)  -->
<svg version="1.1" id="图层_1" xmlns="http://www.w3.org/2000/svg" xmlns:xlink="http://www.w3.org/1999/xlink" x="0px" y="0px"
	 viewBox="0 0 144.7 77.7" style="enable-background:new 0 0 144.7 77.7;" xml:space="preserve">
<style type="text/css">
	.st0{fill:#002200;stroke:#000000;stroke-width:0.25;}
	.st1{fill:#003B00;stroke:#000000;stroke-width:0.25;}
	.st2{fill:#003B00;}
	.st3{fill:#005500;}
	.st4{fill:#006E00;}
	.st5{fill:#108810;}
	.st6{fill:#42A142;}
	.st7{fill:none;stroke:#000000;stroke-width:0.25;}
	.st8{fill:#108810;stroke:#000000;stroke-width:0.25;}
	.st9{fill:#006600;}
	.st10{fill:#007F00;}
	.st11{fill:#329932;}
	.st12{fill:#64B264;}
	.st13{fill:#CAE4CA;}
</style>
<path class="st0" d="M37.9,48.2h17.7V15.8H37.9V48.2z"/>
<path class="st1" d="M83.8,12.8l-0.6-0.6l-0.7-1.5L82.4,9l0.1-1.5l0.7-1.6l1-0.6L85,5.7L85.7,7L86,8.3v1.5l-0.3,1.5L85,12.6
	l-0.7,0.1v1.5h0.3l0.3-0.1l1.2-0.7l0.6-1l0.6-1.3l0.1-1.6V9V8.4L87.2,7l-0.6-1.2l-0.9-1.2l-1.2-0.6h-0.3H84l-0.7,0.1l-1.2,0.9
	l-0.6,1.2l-0.4,1.3L80.9,9v0.4l0.1,0.4v0.4l0.4,1.6l0.7,1.2l1.3,0.9L83.8,12.8z"/>
<path class="st2" d="M26.6,9v1.3l0.1,1.3l0.1,1.3l0.1,1.2l0.3,1.3l0.3,1.2l0.3,1.2l0.7,2.3l0.4,1.2l0.4,1l1.2,2l1.3,1.9l1.3,1.7
	l1.5,1.5l1.6,1.5l1.7,1.2l1.9,1l1.9,0.7l1.9,0.4l2,0.3h1h1.2l1-0.1l2-0.3l1.9-0.7l1.9-0.9l1.9-1l1.6-1.3l1.6-1.5l1.5-1.6l1.3-1.7
	l1.2-2l1-2l0.4-1.2l0.9-2.3l0.3-1.2l0.3-1.2l0.1-1.3l0.3-1.2v-1.3l0.1-1.3V9H46.7H26.6z"/>
<path class="st3" d="M29,9l0.1,1.3v1.3l0.1,1.3l0.3,2.5l0.3,1.2l0.3,1.2l0.7,2.3l0.7,2.2l1,2l1,1.9l1.3,1.7l1.3,1.5l1.3,1.5l1.6,1.2
	l1.6,1l1.6,0.7l1.7,0.4l1.7,0.3h0.9h1l1.7-0.3l1.7-0.4l1.7-0.7l1.6-1l1.5-1.2l1.5-1.5l1.5-1.5l1.2-1.7l1.2-1.9l0.9-2L63,20l0.7-2.3
	l0.3-1.2l0.1-1.2l0.4-2.5v-1.3l0.1-1.3V9h-18H29z"/>
<path class="st4" d="M32.9,9v1.3l0.1,1.3v1.3l0.3,2.5l0.4,2.3l0.6,2.3l0.6,2.2l0.7,2l0.9,1.9l1,1.7l1,1.5l1,1.5l1.3,1.2l1.2,1
	l1.3,0.7l1.3,0.4l1.3,0.3h0.7h0.7l1.5-0.3l1.3-0.4l1.3-0.7l1.3-1l1.3-1.2l1-1.5l1-1.5l1-1.7l0.9-1.9l0.7-2l0.7-2.2l0.6-2.3l0.3-2.3
	l0.3-2.5l0.1-1.3v-1.3V9H46.7H32.9z"/>
<path class="st5" d="M39.3,9v1.3v1.3l0.1,2.5l0.1,2.5l0.3,2.3l0.3,2.3l0.4,2l0.3,2l0.6,1.7l0.4,1.6l0.6,1.5l0.7,1.3l0.9,1.6l1.2,1
	l1.2,0.4h0.3h0.4l0.4-0.1l1-0.6l1.2-1.3l0.6-1l0.7-1.3l0.6-1.5l0.6-1.6l0.4-1.7l0.4-2l0.4-2l0.3-2.3l0.3-2.3l0.1-2.5l0.1-2.5
	l0.1-1.3V9h-7.8H39.3z"/>
<path class="st6" d="M44.3,9v1.3v1.3v1.3l0.1,1.2v2.5v2.3l0.1,2.3l0.1,2l0.1,2L45,27l0.1,1.6l0.3,1.5l0.3,1.9l0.3,1.3l0.6,1.2h0.1
	h0.1l0.3-0.3l0.4-1.2l0.4-1.6l0.3-1.3l0.1-1.5l0.1-1.6l0.3-1.7l0.1-2l0.1-2l0.1-2.3v-2.3l0.1-2.5v-2.5v-1.3V9h-2.8H44.3z"/>
<path class="st7" d="M46.7,9H26.6v1.3l0.1,1.3l0.1,1.3l0.1,1.2l0.3,1.3l0.3,1.2l0.3,1.2l0.7,2.3l0.4,1.2l0.4,1l1.2,2l1.3,1.9
	l1.3,1.7l1.5,1.5l1.6,1.5l1.7,1.2l1.9,1l1.9,0.7l1.9,0.4l2,0.3h1h1.2l1-0.1l2-0.3l1.9-0.7l1.9-0.9l1.9-1l1.6-1.3l1.6-1.5l1.5-1.6
	l1.3-1.7l1.2-2l1-2l0.4-1.2l0.9-2.3l0.3-1.2l0.3-1.2l0.1-1.3l0.3-1.2v-1.3l0.1-1.3V9H46.7"/>
<path class="st2" d="M40.3,40.8H29v2.5h-8.8v1.3H10l-4.9,1.2v15.2l4.9,1.3h10.2v1.2H29v2.8h11.3V40.8z"/>
<path class="st3" d="M40.3,43.2H29v1.9h-8.8v1.2H10l-4.9,1.2v12l4.9,0.9h10.2v1.2H29v1.9h11.3V43.2z"/>
<path class="st4" d="M40.3,45.7H29v1.7h-8.8v0.4H10l-4.9,0.9v9.1l4.9,0.9h10.2v0.7H29v1.5h11.3V45.7z"/>
<path class="st5" d="M40.3,48.2H29v1.2h-8.8v0.6H10l-4.9,0.6v6.1l4.9,0.1h10.2v0.6H29v1.2h11.3V48.2z"/>
<path class="st6" d="M40.3,50.9H29v0.3h-8.8v0.3H10l-4.9,0.3v3l4.9,0.3h10.2v0.3H29V56h11.3V50.9z"/>
<path class="st7" d="M40.3,66.1V40.8H29v2.5h-8.8v1.3H10l-4.9,1.2v15.2l4.9,1.3h10.2v1.2H29v2.8H40.3"/>
<path class="st7" d="M20.2,44.5v17.7"/>
<path class="st7" d="M29,43.2v20.2"/>
<path class="st7" d="M10,44.5v17.7"/>
<path class="st2" d="M45.7,71.1h75.9V15.4H60.8L40.3,35.8v30.3L45.7,71.1z"/>
<path class="st3" d="M45.7,67.3h75.9V19.1H60.8L40.3,36.5v26.3L45.7,67.3z"/>
<path class="st4" d="M45.7,62.2h75.9v-38H60.8L40.3,38v20.7L45.7,62.2z"/>
<path class="st5" d="M45.7,57h75.9V29.4H60.8l-20.4,9.9v15.2L45.7,57z"/>
<path class="st6" d="M45.7,49.6h75.9V36.8H60.8l-20.4,4.8v6.8L45.7,49.6z"/>
<path class="st7" d="M40.3,66.1l5.4,4.9h75.9V15.4H60.8L40.3,35.8V66.1"/>
<path class="st2" d="M113.9,73.7h7.7V12.8h-7.7V73.7z"/>
<path class="st3" d="M113.9,69.5h7.7V17h-7.7V69.5z"/>
<path class="st4" d="M113.9,64h7.7V22.5h-7.7V64z"/>
<path class="st5" d="M113.9,58.4h7.7V28h-7.7V58.4z"/>
<path class="st6" d="M113.9,50.2h7.7V36.3h-7.7V50.2z"/>
<path class="st7" d="M113.9,12.8v60.9h7.7V12.8H113.9"/>
<path class="st0" d="M67.2,68.6h35.4V17.8H67.2V68.6z"/>
<path class="st2" d="M67.2,62.2h35.4v-38H67.2V62.2z"/>
<path class="st2" d="M60.8,73.7h7.5V12.8h-7.5V73.7z"/>
<path class="st3" d="M60.8,69.5h7.5V17h-7.5V69.5z"/>
<path class="st4" d="M60.8,64h7.5V22.5h-7.5V64z"/>
<path class="st5" d="M60.8,58.4h7.5V28h-7.5V58.4z"/>
<path class="st6" d="M60.8,50.2h7.5V36.3h-7.5V50.2z"/>
<path class="st7" d="M60.8,12.8v60.9h7.5V12.8H60.8"/>
<path class="st2" d="M101.2,73.7h3.8V12.8h-3.8V73.7z"/>
<path class="st3" d="M101.2,69.5h3.8V17h-3.8V69.5z"/>
<path class="st4" d="M101.2,64h3.8V22.5h-3.8V64z"/>
<path class="st5" d="M101.2,58.4h3.8V28h-3.8V58.4z"/>
<path class="st6" d="M101.2,50.2h3.8V36.3h-3.8V50.2z"/>
<path class="st7" d="M101.2,12.8v60.9h3.8V12.8H101.2"/>
<path class="st8" d="M68.3,45.7h32.9v-4.9H68.3V45.7z"/>
<path class="st2" d="M82.4,73.7H86V12.8h-3.6V73.7z"/>
<path class="st3" d="M82.4,69.5H86V17h-3.6V69.5z"/>
<path class="st4" d="M82.4,64H86V22.5h-3.6V64z"/>
<path class="st5" d="M82.4,58.4H86V28h-3.6V58.4z"/>
<path class="st6" d="M82.4,50.2H86V36.3h-3.6V50.2z"/>
<path class="st7" d="M82.4,12.8v60.9H86V12.8H82.4"/>
<path class="st2" d="M121.6,41.9h5.1V12.8h-5.1V41.9z"/>
<path class="st3" d="M121.6,39.9h5.1V14.8h-5.1V39.9z"/>
<path class="st4" d="M121.6,37.4h5.1V17.5h-5.1V37.4z"/>
<path class="st5" d="M121.6,34.7h5.1V20h-5.1V34.7z"/>
<path class="st6" d="M121.6,30.7h5.1v-6.5h-5.1V30.7z"/>
<path class="st7" d="M121.6,12.8v29.2h5.1V12.8H121.6"/>
<path class="st2" d="M126.6,35.5h4.9V19.1h-4.9V35.5z"/>
<path class="st3" d="M126.6,34.4h4.9V20.3h-4.9V34.4z"/>
<path class="st4" d="M126.6,33.1h4.9V21.8h-4.9V33.1z"/>
<path class="st5" d="M126.6,31.6h4.9v-8.3h-4.9V31.6z"/>
<path class="st6" d="M126.6,29.2h4.9v-3.6h-4.9V29.2z"/>
<path class="st7" d="M126.6,19.1v16.4h4.9V19.1H126.6"/>
<path class="st2" d="M136.8,35.5h4.9V19.1h-4.9V35.5z"/>
<path class="st3" d="M136.8,34.4h4.9V20.3h-4.9V34.4z"/>
<path class="st4" d="M136.8,33.1h4.9V21.8h-4.9V33.1z"/>
<path class="st5" d="M136.8,31.6h4.9v-8.3h-4.9V31.6z"/>
<path class="st6" d="M136.8,29.2h4.9v-3.6h-4.9V29.2z"/>
<path class="st7" d="M136.8,19.1v16.4h4.9V19.1H136.8"/>
<path class="st9" d="M131.6,33.1h5.2V21.8h-5.2V33.1z"/>
<path class="st10" d="M131.6,32.2h5.2v-9.7h-5.2V32.2z"/>
<path class="st11" d="M131.6,31.3h5.2v-7.7h-5.2V31.3z"/>
<path class="st12" d="M131.6,30.2h5.2v-5.7h-5.2V30.2z"/>
<path class="st13" d="M131.6,28.6h5.2v-2.5h-5.2V28.6z"/>
<path class="st7" d="M131.6,21.8v11.3h5.2V21.8H131.6"/>
<path class="st2" d="M24.7,5.4V9h44.5V5.4H24.7z"/>
<path class="st3" d="M27.7,5.4V9h38.4V5.4H27.7z"/>
<path class="st4" d="M31.8,5.4V9h30.2V5.4H31.8z"/>
<path class="st5" d="M35.7,5.4V9h22V5.4H35.7z"/>
<path class="st6" d="M41.8,5.4V9h10.2V5.4H41.8z"/>
<path class="st7" d="M69.2,5.4H24.7V9h44.5V5.4"/>
</svg>
