<?xml version="1.0" encoding="utf-8"?>
<!-- Generator: Adobe Illustrator 23.0.0, SVG Export Plug-In . SVG Version: 6.00 Build 0)  -->
<svg version="1.1" id="图层_1" xmlns="http://www.w3.org/2000/svg" xmlns:xlink="http://www.w3.org/1999/xlink" x="0px" y="0px"
	 viewBox="0 0 70.3 106.5" style="enable-background:new 0 0 70.3 106.5;" xml:space="preserve">
<style type="text/css">
	.st0{fill:#FFCA07;}
	.st1{fill:#FFCD16;}
	.st2{fill:#FFC900;}
	.st3{fill:#FFBE22;}
	.st4{fill:#353535;}
	.st5{fill:#828282;}
	.st6{fill:#FFFFFF;}
	.st7{fill:#C63F00;}
	.st8{fill:none;stroke:#CC9900;stroke-width:0.25;}
	.st9{fill:none;stroke:#FFFF00;stroke-width:0.25;}
	.st10{fill:#323331;}
	.st11{fill:#003300;}
	.st12{fill:none;stroke:#FFCC00;stroke-width:0.25;}
	.st13{fill:none;stroke:#000000;stroke-width:0.25;}
	.st14{fill:none;stroke:#B27F00;stroke-width:0.25;}
</style>
<path class="st0" d="M4.3,99.5h64.3V3H4.3V99.5z"/>
<path class="st1" d="M4.3,99.5h64.3V19.3l-64.3,28V99.5z"/>
<path class="st2" d="M4.3,99.5h64.3V23L4.3,51.2V99.5z"/>
<path class="st3" d="M4.3,99.5h64.3V29.3L4.3,57.5V99.5z"/>
<path class="st4" d="M8.3,19h20V4.9h-20V19z"/>
<path class="st5" d="M10.4,17.1h3.9V11h-3.9V17.1z"/>
<path class="st6" d="M10.4,6.7h3.9V4.9h-3.9V6.7z"/>
<path class="st7" d="M16.3,13h4.1V9h-4.1V13z"/>
<path class="st8" d="M48.5,55.2H8.3v26.1"/>
<path class="st9" d="M8.3,81.3h40.2V55.2"/>
<path class="st10" d="M4.3,83.4h48.3v8H4.3V83.4z"/>
<path class="st10" d="M60.6,83.4h8v8h-8V83.4z"/>
<path class="st10" d="M52.6,83.4h8V3h-8V83.4z"/>
<path class="st11" d="M53.1,83.4h0.4v8h-0.4V83.4z"/>
<path class="st11" d="M54.2,83.4h0.4v8h-0.4V83.4z"/>
<path class="st11" d="M54.9,83.4h0.4v8h-0.4V83.4z"/>
<path class="st11" d="M56,83.4h0.4v8H56V83.4z"/>
<path class="st11" d="M56.7,83.4h0.6v8h-0.6V83.4z"/>
<path class="st11" d="M57.8,83.4h0.4v8h-0.4V83.4z"/>
<path class="st11" d="M58.8,83.4h0.4v8h-0.4V83.4z"/>
<path class="st11" d="M59.6,83.4h0.5v8h-0.5V83.4z"/>
<path class="st10" d="M52.6,91.4h8v8.1h-8V91.4z"/>
<path class="st10" d="M8.3,23h20v4.1h-20V23z"/>
<path class="st12" d="M28.4,25.1h-20"/>
<path class="st13" d="M4.3,3v96.5h64.3V3H4.3"/>
<path class="st14" d="M12.4,77.3h8v-0.4h-8v-0.5h8v-0.4h-8v-0.6h8v-0.4h-8v-0.5h8v-0.4h-8v-0.5h8v-0.4h-8v-0.6h8v-0.4h-8v-0.5h8
	v-0.4h-8v-0.6h8v-0.3h-8v-0.6h8v-0.4h-8v-0.6h8v-0.4h-8v-0.5h8v-0.4h-8v-0.5h8v-0.4h-8v-0.6h8v-0.4h-8v-0.5h8v-0.4h-8v-0.6h8v-0.3
	h-8v-0.6h8v-0.4h-8v-0.6h8v-0.4h-8v-0.5h8v-0.4h-8v-0.5h8"/>
<path class="st14" d="M24.4,77.3h8v-0.4h-8v-0.5h8v-0.4h-8v-0.6h8v-0.4h-8v-0.5h8v-0.4h-8v-0.5h8v-0.4h-8v-0.6h8v-0.4h-8v-0.5h8
	v-0.4h-8v-0.6h8v-0.3h-8v-0.6h8v-0.4h-8v-0.6h8v-0.4h-8v-0.5h8v-0.4h-8v-0.5h8v-0.4h-8v-0.6h8v-0.4h-8v-0.5h8v-0.4h-8v-0.6h8v-0.3
	h-8v-0.6h8v-0.4h-8v-0.6h8v-0.4h-8v-0.5h8v-0.4h-8v-0.5h8"/>
<path class="st14" d="M36.5,77.3h8v-0.4h-8v-0.5h8v-0.4h-8v-0.6h8v-0.4h-8v-0.5h8v-0.4h-8v-0.5h8v-0.4h-8v-0.6h8v-0.4h-8v-0.5h8
	v-0.4h-8v-0.6h8v-0.3h-8v-0.6h8v-0.4h-8v-0.6h8v-0.4h-8v-0.5h8v-0.4h-8v-0.5h8v-0.4h-8v-0.6h8v-0.4h-8v-0.5h8v-0.4h-8v-0.6h8v-0.3
	h-8v-0.6h8v-0.4h-8v-0.6h8v-0.4h-8v-0.5h8v-0.4h-8v-0.5h8"/>
<path d="M65.6,103.4h2v-3.9h-2V103.4z"/>
<path d="M5.4,103.4h1.9v-3.9H5.4V103.4z"/>
</svg>
