<?xml version="1.0" encoding="utf-8"?>
<!-- Generator: Adobe Illustrator 23.0.0, SVG Export Plug-In . SVG Version: 6.00 Build 0)  -->
<svg version="1.1" id="图层_1" xmlns="http://www.w3.org/2000/svg" xmlns:xlink="http://www.w3.org/1999/xlink" x="0px" y="0px"
	 viewBox="0 0 144.7 78.8" style="enable-background:new 0 0 144.7 78.8;" xml:space="preserve">
<style type="text/css">
	.st0{fill:#808080;stroke:#000000;stroke-width:0.25;}
	.st1{fill:#007F00;}
	.st2{fill-rule:evenodd;clip-rule:evenodd;fill:#B4B4B4;}
	.st3{fill:none;stroke:#000000;stroke-width:0.25;}
	.st4{fill-rule:evenodd;clip-rule:evenodd;fill:#828282;}
	.st5{fill:#E0EFE0;}
	.st6{fill:#E6E6E6;stroke:#000000;stroke-width:0.25;}
	.st7{fill:#C8C8C8;stroke:#000000;stroke-width:0.25;}
	.st8{fill:#B4B4B4;stroke:#000000;stroke-width:0.25;}
	.st9{fill:#828282;stroke:#000000;stroke-width:0.25;}
	.st10{fill:#828282;}
	.st11{fill:#B4B4B4;}
	.st12{fill:#64B264;stroke:#000000;stroke-width:0.25;}
	.st13{fill:#DCDCDC;}
	.st14{fill:#C0DFC0;}
	.st15{fill:#E6E6E6;}
	.st16{fill:#EBEBEB;}
	.st17{fill:#CBCBCB;}
</style>
<path class="st0" d="M63.6,50.4v-9.6h-2.2v9.6H63.6z"/>
<path class="st1" d="M82.4,55.4v-3.5h-3.3v3.5H82.4z"/>
<path class="st2" d="M35.5,25.4l-0.9-1.9l1-2.2l2-0.9l2.2,0.9l0.7,2.2l-0.4,1.9l-2,1v2v1.9h-1v-3.9L35.5,25.4z M39,22l0.6,1.4
	l-0.6,1l-1,0.6l-1.4-0.6l-0.6-1l0.6-1.4l1.4-0.6L39,22z"/>
<path class="st3" d="M37.1,26.4l-1.6-1l-0.9-1.9l1-2.2l2-0.9l2.2,0.9l0.7,2.2l-0.4,1.9l-2,1v2v1.9h-1V26.4"/>
<path class="st3" d="M38,21.4l1,0.6l0.6,1.4l-0.6,1l-1,0.6l-1.4-0.6l-0.6-1l0.6-1.4L38,21.4"/>
<path class="st4" d="M36.8,62.7v3H18.5v1.9v0.9v6.2l0,0h4.6h31.3h4.9H84h4.6h6.5v-1.3h-6.5v-7H84v7H59.4v-4.9h0.9v-2.8h-20v-3h19
	l1.6-0.6l0.6-1V30.6l-0.6-1.4l-1.6-0.6h-40l-1,17l1,17.2H36.8z M54.5,68.5H23.2v4.9h31.3V68.5z"/>
<path class="st3" d="M19.3,62.7h17.5v3H18.5v9h76.6v-1.3h-6.5v-7H84v7H59.4v-4.9h0.9v-2.8h-20v-3h19l1.6-0.6l0.6-1V30.6l-0.6-1.4
	l-1.6-0.6h-40l-1,17L19.3,62.7"/>
<path class="st3" d="M54.5,73.5v-4.9H23.2v4.9H54.5"/>
<path class="st5" d="M82.4,37.7v-1.2h-3.3v1.2H82.4z"/>
<path class="st6" d="M57.8,27.5l0.9,0.3l1.6,2.2l-1,0.7h-40v-3.2H57.8z"/>
<path class="st6" d="M57.5,30.7l1.7,0.9l1,1.6L60,33.8H19l0.3-3H57.5z"/>
<path class="st7" d="M57.8,34.6l2.5,1.9L60,36.8H18.8l0.1-2.2H57.8z"/>
<path class="st7" d="M57.5,38l2.8,1.9L60,40.3H18.5l0.3-2.3H57.5z"/>
<path class="st7" d="M57.5,41.4l2.8,1.3l-0.6,0.6H18.5v-1.9H57.5z"/>
<path class="st8" d="M59.7,46.4h0.9l-2.8-1.3H18.2v0.4v0.9H59.7z"/>
<path class="st8" d="M57.5,48l2.8,1.7L60,49.8H18.5V48H57.5z"/>
<path class="st8" d="M57.5,51l2.5,2.2l-0.3,0.3H18.8V51H57.5z"/>
<path class="st8" d="M57.5,54.5l2.8,2.3l-0.6,0.1H19l-0.1-2.5H57.5z"/>
<path class="st8" d="M57.5,57.5l2.8,2.5l-0.6,0.6H19.3l-0.3-3H57.5z"/>
<path class="st3" d="M79.1,55.4h3.3V35.9h-3.3V55.4"/>
<path class="st9" d="M63.6,73.5h15.5V31.6H63.6V73.5z"/>
<path class="st10" d="M82.4,67.1v-7.8h13.3v7.8H92v4.6h-1.9v-4.6H82.4z"/>
<path class="st11" d="M138.7,4.1H91.7v8.4h46.9V4.1z"/>
<path class="st12" d="M140.5,13.9H89.8v-1.4h50.7V13.9z"/>
<path class="st10" d="M140.5,13.9H89.8v-1.4h50.7V13.9z"/>
<path class="st13" d="M139.5,13.9h-3.6v-1.4h3.6V13.9z"/>
<path class="st14" d="M121.1,30.7l-1,7l-1.9,3.8l-3,3.8l2.2-4.1l1.3-3.8l0.9-6.7V13.9h1.6V30.7z"/>
<path class="st13" d="M137.5,4.1h-3.2v8.4h3.2V4.1z"/>
<path class="st13" d="M92,22h-1.9v-2.2H92V22z"/>
<path class="st13" d="M95.8,26.1H82.4v-1.6h13.3V26.1z"/>
<path class="st13" d="M63.9,34.3h14.9v-2.5H63.9V34.3z"/>
<path class="st11" d="M82.4,55.4V35.9h-3.3v19.4H82.4z"/>
<path class="st11" d="M92,61.9h-1.9v-2.6h-7.7V25.9h7.7V22H92v3.9h3.8v33.3H92V61.9z"/>
<path class="st3" d="M95.8,24.2v42.9H82.4V24.2H95.8"/>
<path class="st9" d="M101.6,39.3l2.9-0.6l2.5-1.9l2-2.5l0.4-3V13.9h12v17.4l-0.3,3.9l-1,3.8l-1.9,3.6l-2.5,2.9l-3,2.5l-3.6,1.7
	l-3.8,1.3l-3.8,0.3h-5.8v-12H101.6z"/>
<path class="st9" d="M104.5,13.9H89.8v-1.4h14.6V13.9z"/>
<path class="st9" d="M105.3,4.1H91.7v8.4h13.6V4.1z"/>
<path class="st3" d="M138.7,12.5V4.1H91.7v8.4H138.7"/>
<path class="st10" d="M19.3,29.7H6.8l0.4-0.6l3.6-1.9l3.5-0.9h5.2L19.3,29.7z"/>
<path class="st10" d="M19,59.3l0.6,5.1h-5.2l-3.5-0.4l-3.3-2l-2.5-2.6H19z"/>
<path class="st11" d="M19.3,29.7L19,33H4.6l0.1-1.2l2-2.2H19.3z"/>
<path class="st11" d="M18.8,53.2l0.1,6.1H5.1H4.8L4,55.6v-2.5H18.8z"/>
<path class="st15" d="M19,33l-0.1,3.5H4v-1.3L4.6,33H19z"/>
<path class="st15" d="M18.2,45.2l0.3-4.1H4v4.1H18.2z"/>
<path class="st16" d="M18.5,41.2l0.3-4.6H4v4.6H18.5z"/>
<path class="st13" d="M18.2,45.2v0.3l0.3,3.9H4v-3.9v-0.3H18.2z"/>
<path class="st17" d="M18.8,53.2l-0.3-3.8H4v3.8H18.8z"/>
<path class="st3" d="M19.5,26.4l-1.3,19.1l1.3,19.1h-5.2l-3.5-0.7l-3.3-2l-2.5-2.6l-1-3.3V45.5V35.2l1-3.3l2.2-2.8l3.6-1.9l3.5-0.9
	H19.5"/>
<path class="st3" d="M92,19.9v51.9h-1.9V19.9H92"/>
</svg>
