<?xml version="1.0" encoding="utf-8"?>
<!-- Generator: Adobe Illustrator 23.0.0, SVG Export Plug-In . SVG Version: 6.00 Build 0)  -->
<svg version="1.1" id="图层_1" xmlns="http://www.w3.org/2000/svg" xmlns:xlink="http://www.w3.org/1999/xlink" x="0px" y="0px"
	 viewBox="0 0 117 106.5" style="enable-background:new 0 0 117 106.5;" xml:space="preserve">
<style type="text/css">
	.st0{fill:#323232;}
	.st1{fill:#646464;}
	.st2{fill:#989798;}
	.st3{fill:#CAC9CA;}
	.st4{fill:#969696;stroke:#000000;stroke-width:0.25;}
	.st5{fill:none;stroke:#000000;stroke-width:0.25;}
	.st6{fill:#787878;stroke:#000000;stroke-width:0.25;}
	.st7{fill:#AAAAAA;stroke:#000000;stroke-width:0.25;}
	.st8{fill:none;stroke:#FFFFFF;stroke-width:0.25;}
	.st9{fill:#7E7E7E;stroke:#000000;stroke-width:0.25;}
	.st10{fill:#4C4C4C;stroke:#000000;stroke-width:0.25;}
	.st11{stroke:#000000;stroke-width:0.25;}
	.st12{fill:none;stroke:#7F7F7F;stroke-width:0.25;}
	.st13{fill:#7E7E7E;}
	.st14{fill:#898A89;stroke:#000000;stroke-width:0.25;}
	.st15{fill:#646464;stroke:#000000;stroke-width:0.25;}
</style>
<path class="st0" d="M14.8,82.4L44,90.8h41.6l29.2-8.4V15.7L85.5,7.4H44l-29.2,8.3V82.4z"/>
<path class="st1" d="M14.8,75.8L44,82.4h41.6l29.2-6.6V22.4l-29.2-6.7H44l-29.2,6.7V75.8z"/>
<path class="st2" d="M14.8,65.7L44,69.9h41.6l29.2-4.2V32.5l-29.2-4.2H44l-29.2,4.2V65.7z"/>
<path class="st3" d="M14.8,56.6L44,58.5h41.6l29.2-1.9v-15l-29.2-1.9H44l-29.2,1.9V56.6z"/>
<path class="st4" d="M109.6,82.4v7.4H94.9v2h16.8v-9.4H109.6z"/>
<path class="st5" d="M14.8,15.7v66.7L44,90.8h41.6l29.2-8.4V15.7L85.5,7.4H44L14.8,15.7"/>
<path class="st4" d="M100.2,88.7h4.2V9.5h-4.2V88.7z"/>
<path class="st4" d="M85.5,100.2h4.2V3.3h-4.2V100.2z"/>
<path class="st4" d="M74.1,24.1h4.2V3.3h-4.2V24.1z"/>
<path class="st4" d="M62.7,24.1h4.1V3.3h-4.1V24.1z"/>
<path class="st4" d="M51.2,24.1h4.1V3.3h-4.1V24.1z"/>
<path class="st4" d="M39.7,100.2H44V3.3h-4.2V100.2z"/>
<path class="st4" d="M25.2,88.7h4.1V9.5h-4.1V88.7z"/>
<path class="st6" d="M44,103.2v-3H33.5v3H44z"/>
<path class="st7" d="M34.6,100.2h5.2V86.6h-5.2V100.2z"/>
<path class="st6" d="M85.5,103.2v-3H96v3H85.5z"/>
<path class="st7" d="M94.9,100.2h-5.2V86.6h5.2V100.2z"/>
<path class="st5" d="M41.8,3.3v83.3"/>
<path class="st5" d="M87.7,86.6V3.3"/>
<path class="st7" d="M44,92.8h41.6V24.1H44V92.8z"/>
<path class="st8" d="M81.4,28.2H48.1"/>
<circle class="st9" cx="64.8" cy="57.4" r="25"/>
<circle class="st10" cx="64.8" cy="57.4" r="14.5"/>
<path class="st11" d="M74.8,38l-1.1,1.9l1.9,0.9l1.1-1.8L74.8,38z"/>
<path class="st11" d="M58.1,36.6l0.5,2l2.1-0.5L60.1,36L58.1,36.6z"/>
<path class="st11" d="M45.2,47.3l1.9,1.1l1.1-1.8l-1.9-1.1L45.2,47.3z"/>
<path class="st11" d="M43.8,64.1l2.1-0.6l-0.6-2l-2,0.6L43.8,64.1z"/>
<path class="st11" d="M85.7,50.7l-2.1,0.6l0.6,2l2-0.6L85.7,50.7z"/>
<path class="st11" d="M84.3,67.5l-1.9-1.1l-1.1,1.8l1.9,1.1L84.3,67.5z"/>
<path class="st11" d="M71.4,78.3l-0.5-2l-2,0.5l0.5,2.1L71.4,78.3z"/>
<path class="st11" d="M54.7,76.9l1.1-1.8l-1.9-1.2l-1.1,1.9L54.7,76.9z"/>
<path class="st12" d="M81.4,88.7H48.1"/>
<path class="st13" d="M106.4,27.2h6.3V22h-6.3V27.2z"/>
<path class="st13" d="M106.4,43.9h6.3v-5.3h-6.3V43.9z"/>
<path class="st13" d="M106.4,60.6h6.3v-5.3h-6.3V60.6z"/>
<path class="st13" d="M106.4,77.2h6.3v-5.3h-6.3V77.2z"/>
<path class="st13" d="M16.9,77.2h6.2v-5.3h-6.2V77.2z"/>
<path class="st13" d="M16.9,60.6h6.2v-5.3h-6.2V60.6z"/>
<path class="st13" d="M16.9,43.9h6.2v-5.3h-6.2V43.9z"/>
<path class="st13" d="M16.9,27.2h6.2V22h-6.2V27.2z"/>
<path class="st5" d="M16.9,27.2V22h6.2"/>
<path class="st5" d="M16.9,43.8v-5.2h6.2"/>
<path class="st5" d="M16.9,60.5v-5.2h6.2"/>
<path class="st5" d="M16.9,77.2v-5.3h6.2"/>
<path class="st5" d="M106.4,27.2V22h6.3"/>
<path class="st5" d="M106.4,43.8v-5.2h6.3"/>
<path class="st5" d="M106.4,60.5v-5.2h6.3"/>
<path class="st5" d="M106.4,77.2v-5.3h6.3"/>
<path class="st4" d="M93.5,84.1l2.5-1.5v-2.9l-2.5-1.4l-2.6,1.4v2.9L93.5,84.1z"/>
<path class="st4" d="M36.2,84.1l2.5-1.5v-2.9l-2.5-1.4l-2.6,1.4v2.9L36.2,84.1z"/>
<path class="st14" d="M10.6,103.2h23V81.4h-23V103.2z"/>
<path class="st15" d="M10.6,90.8H4.4v-73h10.4V22H8.5v64.6h2.1V90.8z"/>
<path class="st8" d="M30.4,84.5H13.7v15.7"/>
</svg>
