<?xml version="1.0" encoding="utf-8"?>
<!-- Generator: Adobe Illustrator 23.0.0, SVG Export Plug-In . SVG Version: 6.00 Build 0)  -->
<svg version="1.1" id="图层_1" xmlns="http://www.w3.org/2000/svg" xmlns:xlink="http://www.w3.org/1999/xlink" x="0px" y="0px"
	 viewBox="0 0 144.7 104.9" style="enable-background:new 0 0 144.7 104.9;" xml:space="preserve">
<style type="text/css">
	.st0{fill:#787878;stroke:#000000;stroke-width:0.25;}
	.st1{fill:#B9B9B9;stroke:#000000;stroke-width:0.25;}
	.st2{fill:#555555;stroke:#000000;stroke-width:0.25;}
	.st3{fill:none;stroke:#000000;stroke-width:0.25;}
	.st4{fill:#787878;}
	.st5{fill:#555555;}
</style>
<path class="st0" d="M4.6,100.7h113.7V15.4H4.6V100.7z"/>
<path class="st1" d="M118.4,15.4l22.7-11.3H27.4L4.6,15.4H118.4z"/>
<path class="st2" d="M118.4,15.4l22.7-11.3v85.3l-22.7,11.3C118.4,100.7,118.4,15.4,118.4,15.4z"/>
<path class="st3" d="M107.1,95.1H15.9"/>
<path class="st3" d="M107.1,97.9H15.9"/>
<path class="st3" d="M107.1,92.2H15.9"/>
<path class="st3" d="M107.1,86.5H15.9"/>
<path class="st3" d="M107.1,89.3H15.9"/>
<path class="st3" d="M107.1,83.7H15.9"/>
<path class="st3" d="M107.1,80.7H15.9"/>
<path class="st3" d="M107.1,75.1H15.9"/>
<path class="st3" d="M107.1,78H15.9"/>
<path class="st3" d="M107.1,72.3H15.9"/>
<path class="st3" d="M107.1,69.4H15.9"/>
<path class="st3" d="M107.1,63.8H15.9"/>
<path class="st3" d="M107.1,66.5H15.9"/>
<path class="st3" d="M107.1,60.9H15.9"/>
<path class="st3" d="M107.1,58H15.9"/>
<path class="st3" d="M107.1,52.3H15.9"/>
<path class="st3" d="M107.1,55.2H15.9"/>
<path class="st3" d="M107.1,49.6H15.9"/>
<path class="st3" d="M107.1,46.7H15.9"/>
<path class="st3" d="M107.1,41H15.9"/>
<path class="st3" d="M107.1,43.8H15.9"/>
<path class="st3" d="M107.1,38.1H15.9"/>
<path class="st3" d="M107.1,35.2H15.9"/>
<path class="st3" d="M107.1,29.6H15.9"/>
<path class="st3" d="M107.1,32.5H16"/>
<path class="st3" d="M107.1,26.8H15.9"/>
<path class="st3" d="M121.3,95.1l17.1-8.5"/>
<path class="st3" d="M121.3,97.9l17.1-8.7"/>
<path class="st3" d="M121.3,92.2l17.1-8.5"/>
<path class="st3" d="M121.3,86.5l17.1-8.5"/>
<path class="st3" d="M121.3,89.3l17.1-8.5"/>
<path class="st3" d="M121.3,83.7l17.1-8.7"/>
<path class="st3" d="M121.3,80.7l17.1-8.5"/>
<path class="st3" d="M121.3,75.1l17.1-8.5"/>
<path class="st3" d="M121.3,78l17.1-8.5"/>
<path class="st3" d="M121.3,72.3l17.1-8.5"/>
<path class="st3" d="M121.3,69.4l17.1-8.5"/>
<path class="st3" d="M121.3,63.8l17.1-8.5"/>
<path class="st3" d="M121.3,66.5l17.1-8.5"/>
<path class="st3" d="M121.3,60.9l17.1-8.5"/>
<path class="st3" d="M121.3,58l17.1-8.5"/>
<path class="st3" d="M121.3,52.3l17.1-8.5"/>
<path class="st3" d="M121.3,55.2l17.1-8.5"/>
<path class="st3" d="M121.3,49.6l17.1-8.5"/>
<path class="st3" d="M121.3,46.7l17.1-8.7"/>
<path class="st3" d="M121.3,41l17.1-8.7"/>
<path class="st3" d="M121.3,43.8l17.1-8.5"/>
<path class="st3" d="M121.3,38.1l17.1-8.5"/>
<path class="st3" d="M121.3,35.2l17.1-8.5"/>
<path class="st3" d="M121.3,29.6l17.1-8.5"/>
<path class="st3" d="M121.3,32.5l17.1-8.5"/>
<path class="st3" d="M121.3,26.8l17.1-8.5"/>
<path class="st4" d="M81.9,98.9H90V22.2h-8.1V98.9z"/>
<path class="st4" d="M33,98.9h8.1V22.2H33V98.9z"/>
<path class="st4" d="M57.5,98.9h8V22.2h-8V98.9z"/>
<path class="st5" d="M133.9,92.3l1.6-1V14.5l-1.6,1V92.3z"/>
<path class="st5" d="M124,97.9l1.7-1V20.1l-1.7,1V97.9z"/>
<path class="st5" d="M129,95.1l1.6-0.9V17.4l-1.6,0.9V95.1z"/>
<path class="st0" d="M73.5,12.6l23.8-0.9l9.9-2l-9.9-2L73.5,7L49,7.7l-9.7,2l9.7,2L73.5,12.6z"/>
</svg>
