<?xml version="1.0" encoding="utf-8"?>
<!-- Generator: Adobe Illustrator 23.0.0, SVG Export Plug-In . SVG Version: 6.00 Build 0)  -->
<svg version="1.1" id="图层_1" xmlns="http://www.w3.org/2000/svg" xmlns:xlink="http://www.w3.org/1999/xlink" x="0px" y="0px"
	 viewBox="0 0 135.7 106.5" style="enable-background:new 0 0 135.7 106.5;" xml:space="preserve">
<style type="text/css">
	.st0{fill:#808080;stroke:#000000;stroke-width:0.25;}
	.st1{fill:#B7B7B7;stroke:#000000;stroke-width:0.25;}
	.st2{fill:none;stroke:#000000;stroke-width:0.25;}
</style>
<path class="st0" d="M100.7,38.4l0.8,3.8l0.3,3.8l0.3,3.6l-0.3,4.6l-0.8,4.9l-1.3,4.6l-1.8,4.6L95.6,73L93,77.1l-2.8,4.1L86.8,85
	l-3.6,3.6l-3.8,3.3l-3.8,2.8L71.2,97l-4.4,2l-4.4,1.3l-4.6,1l-4.6,0.3l-4.6-0.3l-4.6-0.8l-4.4-1.3l-4.4-1.8l-4.4-2l-3.8-2.6
	l-3.8-2.8L20,86.8l-3.3-3.3l-2.8-3.8l-2.6-3.8l-2-4.4l-1.8-4.4l-1.3-4.4l-0.8-4.6l-0.3-4.6l0.3-4.6l1-4.6l1.3-4.4l2-4.4l2.3-4.4
	l2.8-3.8l3.3-3.8l3.6-3.6l3.8-3.3l3.8-2.8l4.4-2.6L38.5,9l4.4-1.8l4.6-1.3l4.9-0.8l4.6-0.3h75.3v30l-7.4,7.7l-25.1-7.7L100.7,38.4z"
	/>
<path class="st1" d="M93,46.1l0.8,3.8l0.5,3.6l0.3,3.8L94.3,62l-0.8,4.4l-1,4.4L90.9,75l-2,3.8l-2,3.8L84,86l-2.8,3.3l-3.3,2.8
	L74.6,95l-3.8,2l-3.8,2l-4.4,1.5l-4.4,1l-4.4,0.8l-4.6,0.3l-4.6-0.3l-4.4-0.8l-4.4-1l-4.1-1.5l-4.1-2l-3.6-2l-3.6-2.8l-3.1-2.8
	L14.4,86l-2.6-3.3l-2.3-3.8L7.7,75l-1.5-4.4l-1-4.4L4.4,62l-0.3-4.6l0.3-4.6l0.8-4.4l1-4.4l1.5-4.1l1.8-4.1l2.3-3.6l2.6-3.6l3.1-3.1
	l3.1-3.1l3.6-2.6l3.6-2.3l4.1-1.8l4.1-1.5l4.4-1l4.4-0.8l4.6-0.3h75.5v30.2H92L93,46.1z"/>
<path class="st2" d="M132.2,3.8l-7.4,8.4"/>
</svg>
