<?xml version="1.0" encoding="utf-8"?>
<!-- Generator: Adobe Illustrator 23.0.0, SVG Export Plug-In . SVG Version: 6.00 Build 0)  -->
<svg version="1.1" id="图层_1" xmlns="http://www.w3.org/2000/svg" xmlns:xlink="http://www.w3.org/1999/xlink" x="0px" y="0px"
	 viewBox="0 0 108.2 106.5" style="enable-background:new 0 0 108.2 106.5;" xml:space="preserve">
<style type="text/css">
	.st0{fill:#9CCCCE;}
	.st1{fill:#81B2B0;}
	.st2{fill:#AEE8E7;}
	.st3{fill:#FFFFFF;stroke:#000000;stroke-width:0.5;}
	.st4{fill:#787878;}
	.st5{fill:#4C4C4C;}
	.st6{fill:#A4A4A4;stroke:#000000;stroke-width:0.5;}
	.st7{fill:#323232;}
	.st8{fill:#646464;stroke:#000000;stroke-width:0.5;}
	.st9{fill:none;stroke:#000000;stroke-width:0.5;}
	.st10{fill:#464646;stroke:#000000;stroke-width:0.5;}
</style>
<path class="st0" d="M60.3,99.9l9.1-2.4l8.5-4.1l7.4-5.5l6.2-6.8l4.4-7.6l2.8-8.5l0.9-8.6l2.8-49.6h1.6V3H75.7v3.8h2.2l1.1,13.3
	l-9.5-4.9l-9.2-2.6l-9.5-0.8l-9.5,0.8l-9.1,2.6l-8.6,4L16,24.8l-6.1,6.8l-4.6,7.7l-2.8,8.4l-0.8,8.6l0.9,8.8l2.8,8.2L9.9,81l6.1,6.7
	l7.5,5.6l8.5,4.1l9.2,2.5l9.4,0.8L60.3,99.9z"/>
<path class="st1" d="M97.5,39.6L97,42.8L96.5,46L96,49l-0.5,2.8l-1.2,5.3l-1.2,4.7l-1.3,4.3L90.4,70l-1.6,3.5l-1.6,3l-1.8,2.8
	l-2,2.5l-2.1,2.3L79,86.1l-2.5,2L74,89.8l-2.8,1.7L68,93.4l-3.7,1.7l-3.8,1.2l-4,0.9l-4,0.5h-4l-4.1-0.2l-4.1-0.8l-4.1-1.2l-4-1.5
	l-4.1-2L24,89.8L20,87l-3.8-3.1l-3.7-3.6l-3.5-4l-1.7-2.2l1.1,2.5l1.1,2.3l2.8,4.3l3.3,3.9l3.6,3.5l4,2.9l4.3,2.6l4.4,2.2l4.8,1.6
	l4.8,1.2l4.9,0.9l5,0.2h2.4l2.5-0.1l2.4-0.2l4.7-0.9l4.6-1.3l4.3-1.7l4-2.2l3.6-2.4l3.4-2.7l2.9-2.9l2.7-3.1l2.4-3.4l2.1-3.6L95,74
	l1.5-4l1.2-4.1l0.9-4.2l0.5-4.3l0.2-4.4v-2.4v-2.3l-0.1-2.4L98.6,41l-0.8-4.9L97.5,39.6z"/>
<circle class="st2" cx="49.6" cy="53.1" r="38.2"/>
<path class="st1" d="M101.9,7h-8l0.4,51.2l4.7-0.9L101.9,7z"/>
<path class="st2" d="M93.9,7l-0.1,1.7v3.7l0.1,3.7L94,20l0.1,3.9l0.2,3.8l0.2,3.9l0.1,3.9l0.2,3.8l0.1,3.8v3.7v1.7l-0.1,1.8
	l-0.2,3.4l-0.3,3.3l-0.4,3l-0.7,2.9l-0.4,1.3l0.1-1.1l0.1-2.5V57l-0.2-3.7l-0.3-3.6L92,46.3l-0.7-3.4l-0.9-3l-1-2.8L88,33.9
	l-1.7-2.3L86,28.3l-0.3-3.1l-0.3-2.9l-0.2-2.9l-0.3-2.8l-0.3-3l-0.3-3.1L83.8,7H93.9z"/>
<circle class="st3" cx="49.6" cy="52.6" r="32.2"/>
<path class="st4" d="M31.6,26.2l32.1,55.6l3.6-2L35.1,24.2L31.6,26.2z"/>
<path class="st4" d="M20.6,38.7l55.7,32.2l2-3.6L22.6,35.2L20.6,38.7z"/>
<path class="st4" d="M17.3,55.1h64.3v-4H17.3V55.1z"/>
<path class="st4" d="M76.3,35.2L20.6,67.4l2.1,3.5l55.6-32.1L76.3,35.2z"/>
<path class="st4" d="M63.7,24.2L31.6,79.9l3.5,2l32.2-55.6L63.7,24.2z"/>
<path class="st4" d="M47.5,20.9v64.2h4V20.9H47.5z"/>
<circle class="st5" cx="49.6" cy="52.6" r="29.9"/>
<circle class="st6" cx="49.6" cy="52.7" r="23.3"/>
<path class="st7" d="M58.8,73.2l3.5-2L40.2,32.9l-3.5,2.1L58.8,73.2z"/>
<path class="st7" d="M70.3,60.7l1.1-3.9L28.7,45.4l-1.1,3.8L70.3,60.7z"/>
<path class="st7" d="M69.7,43.7l-2.1-3.5L29.3,62.4l2.1,3.5L69.7,43.7z"/>
<path class="st7" d="M41.8,73.9l3.9,1.1l11.4-42.7l-3.8-1L41.8,73.9z"/>
<circle class="st8" cx="49.6" cy="52.6" r="10"/>
<path class="st9" d="M58.2,58.1L40.7,48"/>
<path class="st9" d="M59.2,50.4l-19.4,5.2"/>
<path class="st9" d="M54.5,44.4L44.4,61.7"/>
<path class="st9" d="M52,62.8l-5.1-19.4"/>
<path class="st1" d="M75.8,7h28.1V3H75.8V7z"/>
<path class="st0" d="M79.8,7h20.1V3H79.8V7z"/>
<path class="st2" d="M85.9,7h8V3h-8V7z"/>
<path class="st9" d="M50.6,100.8l9.7-0.9l9.1-2.4l8.5-4.1l7.4-5.5l6.2-6.8l4.4-7.6l2.8-8.5l0.9-8.6l2.8-49.6l1.6,0.1V3H75.7v3.9h2.2
	l1.1,13.2l-9.5-4.9l-9.2-2.6l-9.5-0.8l-9.5,0.8l-9.1,2.6l-8.6,4L16,24.8l-6.1,6.8l-4.6,7.7l-2.8,8.4l-0.8,8.6l0.9,8.8l2.8,8.2
	L9.9,81l6.1,6.7l7.5,5.6l8.5,4.1l9.2,2.5L50.6,100.8"/>
<path class="st9" d="M102.3,6.8H77.8"/>
<path class="st10" d="M27.5,103.5h48.3v-6.1H27.5V103.5z"/>
</svg>
