<?xml version="1.0" encoding="utf-8"?>
<!-- Generator: Adobe Illustrator 23.0.0, SVG Export Plug-In . SVG Version: 6.00 Build 0)  -->
<svg version="1.1" id="图层_1" xmlns="http://www.w3.org/2000/svg" xmlns:xlink="http://www.w3.org/1999/xlink" x="0px" y="0px"
	 viewBox="0 0 89.3 106.5" style="enable-background:new 0 0 89.3 106.5;" xml:space="preserve">
<style type="text/css">
	.st0{fill:#324D7C;stroke:#000000;stroke-width:0.5;}
	.st1{fill:#98B3DF;stroke:#000000;stroke-width:0.5;}
	.st2{fill:#7F96C9;}
	.st3{fill:#BED4F5;}
	.st4{fill:#7F96C9;stroke:#4C6699;stroke-width:0.5;}
	.st5{fill:#BED4F5;stroke:#000000;stroke-width:0.5;}
	.st6{fill:#2F4D83;}
</style>
<path class="st0" d="M13.1,102.2v1.2h7.2l2.6-4.8h56.3l2.5,4.8H89v-1.2h-2.3L73.2,69.1H28.9l-13.4,33.2H13.1z"/>
<path class="st1" d="M9.3,5.3h29.5l-0.2,6.8l2.3-0.7l3.2-0.6l3.2-0.3h3.3l3.9,0.4l3.8,0.7l3.6,1.2l3.5,1.5l3.4,1.8l3.1,2.1l2.9,2.3
	l2.7,2.7l2.5,3l2.1,3.1l1.8,3.3l1.5,3.5l1.1,3.7l0.9,3.7l0.4,3.9v2v2l-0.4,3.9l-0.9,3.7L85.5,63L84,66.5l-1.8,3.3l-2.1,3.1l-2.5,3
	l-2.7,2.7L72.1,81L69,83l-3.4,1.8L62,86.5l-3.6,1.1l-3.8,0.9l-3.9,0.4h-1.9h-2.1l-1.9-0.2l-3.9-0.5L37,87l-3.6-1.3L29.8,84l-3.2-1.9
	l-3.1-2.2l-2.8-2.7l-2.5-2.8l-2.3-3l-2-3.2l-1.6-3.5L11,61.2l-1-3.7l-0.5-3.9l-0.2-3.9V5.3z"/>
<path class="st2" d="M11.8,8h24.5v7.2l1.3-0.5l3-0.9l3.5-0.7l3.2-0.4l3.2-0.1l3.7,0.4l3.5,0.7l3.4,1.1l3.3,1.4l3.1,1.7l3,2l2.8,2.2
	l2.5,2.5l2.2,2.8l2,2.9l1.7,3.2l1.4,3.2l1.1,3.5l0.9,3.6l0.3,3.6v1.9v1.9L85.1,55l-0.9,3.5L83.2,62l-1.4,3.3l-1.7,3.1l-2,3l-2.2,2.7
	l-2.5,2.5l-2.8,2.3l-3,1.9l-3.1,1.7l-3.3,1.4L57.8,85l-3.5,0.7l-3.7,0.4h-1.8h-1.9l-1.9-0.2l-3.6-0.5l-3.5-0.9l-3.4-1.3l-3.2-1.6
	L28,79.8l-2.8-2.1l-2.7-2.3l-2.3-2.6l-2.1-2.9l-1.8-3l-1.5-3.2l-1.3-3.4l-1-3.5L12,53.1l-0.2-3.7V8z"/>
<path class="st3" d="M52.2,11.6h-2.3v76h2.3V11.6z"/>
<path class="st3" d="M11.8,8.1l-1.2,2.2L83,64.3l1.2-2.2L11.8,8.1z"/>
<path class="st3" d="M14.3,63.2l1.2,2.2l62.8-38l-1.5-2.2L14.3,63.2z"/>
<ellipse class="st4" cx="51.1" cy="42.2" rx="22.2" ry="22"/>
<path class="st5" d="M63.1,57.8l3.6-3.5l2.7-4.5l1.2-5v-5.2l-1.2-4.8l-2.7-4.7l-3.6-3.6l-4.4-2.6l-5-1.3h-5.3l-5,1.3L39,26.4
	l-3.6,3.6l-2.7,4.5l-1.4,5v5.2l1.4,5l2.7,4.5l3.6,3.5l4.4,2.7l5,1.4h5.3l4.8-1.4L63.1,57.8z"/>
<path class="st6" d="M61.5,56l3.2-3.2l2.5-3.9l1-4.5V40l-1.2-4.5l-2.2-3.8l-3.2-3.2L57.7,26l-4.4-1h-4.5l-4.4,1.2l-4.1,2.2l-3,3.2
	L35,35.5L34,40l-0.2,4.4l1.2,4.5l2.5,3.9l3.2,3l3.8,2.5l4.4,1.2h4.5l4.4-1.2L61.5,56z"/>
<path class="st5" d="M5.6,5.3h36.8V3H5.6V5.3z"/>
</svg>
