<?xml version="1.0" encoding="utf-8"?>
<!-- Generator: Adobe Illustrator 23.0.0, SVG Export Plug-In . SVG Version: 6.00 Build 0)  -->
<svg version="1.1" id="图层_1" xmlns="http://www.w3.org/2000/svg" xmlns:xlink="http://www.w3.org/1999/xlink" x="0px" y="0px"
	 viewBox="0 0 81.3 106.5" style="enable-background:new 0 0 81.3 106.5;" xml:space="preserve">
<style type="text/css">
	.st0{fill:#64B264;stroke:#000000;stroke-width:0.5;}
	.st1{fill:#98CB98;stroke:#000000;stroke-width:0.5;}
	.st2{fill:#64B264;}
	.st3{fill:#329932;stroke:#000000;stroke-width:0.5;}
	.st4{fill:#98CB98;}
	.st5{fill:#CAE4CA;}
	.st6{fill:#FFFFFF;}
	.st7{fill:none;stroke:#000000;stroke-width:0.5;}
	.st8{fill:none;stroke:#7F7F7F;stroke-width:0.5;}
	.st9{fill:#4CA64C;stroke:#000000;stroke-width:0.5;}
	.st10{fill:#006600;stroke:#000000;stroke-width:0.5;}
	.st11{fill:#329932;}
	.st12{fill:none;stroke:#FFFFFF;stroke-width:0.5;}
	.st13{fill:#004C00;}
</style>
<path class="st0" d="M14,101.4H60V55.2H14V101.4z"/>
<path class="st1" d="M60,103.4h1V53.2h-1V103.4z"/>
<path class="st1" d="M13,103.4h1V53.2h-1V103.4z"/>
<path class="st1" d="M39.5,78.5V95h-3.6V78.5H39.5z"/>
<path class="st1" d="M35.2,16.7l-3.4,0.4L28.5,18l-3.2,1.1l-3,1.4l-2.9,1.6L16.7,24l-2.6,2.1l-2.2,2.3l-2,2.7l-1.8,2.8l-1.5,3
	L5.3,40l-0.9,3.3l-0.6,3.3l-0.3,3.5V51l0.1,1.8l0.3,3.4l0.6,3.3l1.1,3.3l1.3,3l1.6,2.9l1.8,2.8l2.1,2.6l2.3,2.2l2.6,2.1l2.7,1.8
	l3,1.6l3,1.3l3.2,1.1l3.3,0.6l3.4,0.3l1.8,0.1l1.7-0.1l1.7-0.1l3.5-0.5l3.2-0.9l3.2-1.1l3-1.5l2.9-1.7l2.7-1.9l2.5-2.2l2.1-2.5
	l2-2.6l1.7-2.9l1.5-3l1.2-3.1l0.9-3.3l0.5-3.4l0.1-3.5V16.6l2-10.2H36.6l1.2,10.2L35.2,16.7z"/>
<path class="st2" d="M78.9,3h-48v3.4h48V3z"/>
<path class="st3" d="M9.8,103.4h54.5v-2H9.8V103.4z"/>
<path class="st4" d="M72.9,3H37.1v3.4h35.8V3z"/>
<path class="st5" d="M66.4,3h-23v3.4h23V3z"/>
<path class="st6" d="M58,3h-6.2v3.4H58V3z"/>
<path class="st7" d="M78.9,6.4V3h-48v3.4H78.9"/>
<path class="st5" d="M67.1,54.1l-0.4,2.9l-0.7,2.8l-1,2.8L63.6,65l-1.5,2.5l-1.7,2.2l-2.9,3l-2.2,1.8L53,76.1l-2.5,1.3l-2.7,1.2
	l-2.8,0.9L42.2,80l-3,0.3h-1.5h-1.5l-3-0.3l-2.9-0.5l-2.7-0.9l-2.7-1.2l-2.5-1.3l-2.3-1.6L18,72.7l-1.9-1.9l-1.8-2.2l-1.6-2.3
	l-1.4-2.5l-1.1-2.7l-1-2.8l-0.5-2.9l-0.3-3V51v-1.5l0.3-3l0.5-2.9l1-2.8l1.1-2.7l1.4-2.5l1.6-2.3l1.8-2.2l1.9-2l2.2-1.8l2.3-1.6
	l2.5-1.3l2.7-1.2l2.7-0.9l2.9-0.6l3-0.3l4.1,0.1l3.1,0.3V7.8h24.1L67.3,51L67.1,54.1z"/>
<path class="st8" d="M17.1,71.9l1,1l2.2,1.8l2.5,1.6l2.6,1.3l2.6,1.1l2.8,0.9l2.9,0.5l2.8,0.3h1.5h1.5l1.5-0.1l2.9-0.4l2.9-0.7
	l2.8-1l2.6-1.3l2.5-1.4l2.2-1.7l3.1-2.9l1.8-2.2l1.6-2.3l1.4-2.5l1.1-2.7l0.9-2.8l0.6-2.9l0.3-3V51v-1.5l-0.1-1.4l-0.5-2.9L66,42.3
	l-1-2.7L63.7,37l-1.5-2.5l-1.7-2.3l-1.9-2.1"/>
<path class="st1" d="M39.5,78.5V23.2h-3.6v55.2H39.5z"/>
<path class="st1" d="M10,52.8h55.2v-3.8H10V52.8z"/>
<circle class="st9" cx="37.8" cy="50.9" r="20.6"/>
<circle class="st10" cx="37.8" cy="50.9" r="13.1"/>
<path class="st11" d="M35.9,63l6.2-23.2l-1.8-0.6l-6.2,23.3L35.9,63z"/>
<path class="st11" d="M28.9,43.2l17.1,17.1l1.2-1.2L30.1,41.9L28.9,43.2z"/>
<path class="st11" d="M26.7,55.2L50,48.9l-0.4-1.8L26,53.4L26.7,55.2z"/>
<circle class="st10" cx="37.8" cy="50.9" r="3.1"/>
<path class="st8" d="M10,34.1L9,35.7l1.6,1l1.1-1.6L10,34.1"/>
<path class="st8" d="M22.1,22.6l-1.6,0.9l1,1.8l1.6-1L22.1,22.6"/>
<path class="st8" d="M38.3,18.7h-1.7v2h1.7V18.7"/>
<path class="st8" d="M38.7,10.4h2V8.2h-2V10.4"/>
<path class="st8" d="M20.7,78.7l1.6,1.1l1-1.6l-1.6-1.1L20.7,78.7"/>
<path class="st8" d="M9,66.6l1.1,1.6l1.6-1l-0.9-1.6L9,66.6"/>
<path class="st8" d="M5.1,50.2l0,2h1.8v-2H5.1"/>
<path class="st8" d="M36.7,83.6h1.8v-1.8h-1.8V83.6"/>
<path class="st8" d="M53,79.5l1.6-0.9l-0.7-1.6l-1.6,0.9L53,79.5"/>
<path class="st8" d="M65.2,68l1-1.6l-1.7-1l-0.9,1.6L65.2,68"/>
<path class="st8" d="M70,52v-2h-2v2H70"/>
<path class="st8" d="M69.5,8.2v2h1.9v-2H69.5"/>
<path class="st8" d="M68.4,20.9v1.9h2v-1.9H68.4"/>
<path class="st8" d="M68.4,34.3v2.2h2v-2.2H68.4"/>
<path class="st12" d="M58.6,30.1l-1.1-1l-2.2-1.8L53,25.7l-2.6-1.4l-2.7-1.1L45,22.4l-2.9-0.6l-2.9-0.3h-1.5h-1.5l-3,0.3l-2.9,0.6
	l-2.7,0.9l-2.7,1.2l-2.5,1.3l-2.3,1.6L18,29.1l-1.9,2l-1.8,2.2l-1.6,2.3l-1.4,2.5l-1.1,2.7l-1,2.8l-0.5,2.9l-0.3,3V51v1.5l0.1,1.4
	L9,56.7l0.7,2.8l1,2.7l1.3,2.6l1.4,2.6l1.7,2.2l2,2.1"/>
<path class="st13" d="M53.5,86.4l0.3-0.7L53.5,85l-0.7-0.3L52,85l-0.3,0.6l0.3,0.7l0.7,0.3L53.5,86.4z"/>
<path class="st13" d="M53.5,94.8l0.3-0.7l-0.3-0.7L52.8,93L52,93.3L51.7,94l0.3,0.7l0.7,0.3L53.5,94.8z"/>
</svg>
