<?xml version="1.0" encoding="utf-8"?>
<!-- Generator: Adobe Illustrator 23.0.0, SVG Export Plug-In . SVG Version: 6.00 Build 0)  -->
<svg version="1.1" id="图层_1" xmlns="http://www.w3.org/2000/svg" xmlns:xlink="http://www.w3.org/1999/xlink" x="0px" y="0px"
	 viewBox="0 0 106.5 106.5" style="enable-background:new 0 0 106.5 106.5;" xml:space="preserve">
<style type="text/css">
	.st0{fill:#A0A0A0;stroke:#000000;stroke-width:0.25;}
	.st1{fill:#BEBEBE;stroke:#000000;stroke-width:0.25;}
	.st2{fill:#DCDCDC;stroke:#000000;stroke-width:0.25;}
	.st3{fill:#C8C8C8;stroke:#000000;stroke-width:0.25;}
	.st4{fill:#B4B4B4;stroke:#7F7F7F;stroke-width:0.25;}
	.st5{fill:#A5A5A5;}
	.st6{fill:#969696;}
	.st7{fill:#8C8C8C;}
	.st8{fill:#787878;}
	.st9{fill:none;stroke:#000000;stroke-width:0.25;}
	.st10{fill:#A0A0A0;}
	.st11{fill:#505050;}
</style>
<path class="st0" d="M9.2,95H95V48.9H9.2V95z"/>
<path class="st1" d="M11.6,38.4L40.7,55l16.7-29.1L28.3,9.2L11.6,38.4z"/>
<path class="st2" d="M50,11.5l-3.1,0.3l-3.1,0.6l-3,0.9l-2.9,1l-2.8,1.2L32.5,17l-2.7,1.6l-2.5,1.8l-2.2,1.9l-2.2,2.1l-2,2.2
	L19.1,29l-1.7,2.5L16,34.1l-1.3,2.8l-1.2,2.9l-0.9,3L12,45.8l-0.4,3.1l-0.2,3.2v1.1l0.1,2.1l0.3,4.3l0.9,4.1l1.3,3.9l1.6,3.7
	l1.9,3.5l2.2,3.4l2.6,3.1l2.8,2.8l3.1,2.6l3.4,2.2l3.5,1.9l3.7,1.6l3.9,1.3l4.1,0.9l4.3,0.3l2.1,0.1l2.1-0.1l2.1-0.1l4.2-0.6
	l4.1-1.1l3.8-1.4l3.6-1.7l3.4-2.1l3.2-2.3l3-2.8l2.8-3l2.3-3.2l2.1-3.4l1.7-3.6l1.4-3.8l1.1-4.1l0.6-4.2l0.2-4.3V28V3H53.2v8.4
	L50,11.5z"/>
<path class="st0" d="M5,101.4h96.4v-4.2H5V101.4z"/>
<path class="st3" d="M21.9,76.3h62.7v-2.2H21.9V76.3z"/>
<path class="st1" d="M15.5,95h75.5v-4.1H15.5V95z"/>
<circle class="st4" cx="53.5" cy="44.6" r="29.5"/>
<circle class="st5" cx="53.5" cy="44.6" r="26.3"/>
<circle class="st6" cx="53.5" cy="44.5" r="23.2"/>
<circle class="st7" cx="53.5" cy="44.6" r="20.1"/>
<circle class="st8" cx="53.5" cy="44.6" r="17"/>
<circle class="st1" cx="53.2" cy="44.7" r="14.7"/>
<path class="st9" d="M63.2,55.2H43.4"/>
<path class="st9" d="M67.3,41.4H39.1"/>
<path class="st9" d="M67.3,48.4H39.1"/>
<path class="st9" d="M63.2,34.5H43.4"/>
<path class="st10" d="M21.6,78.4h63.1v-2.2H21.6V78.4z"/>
<path class="st10" d="M53.4,15.7h29.1v-2.2H53.4V15.7z"/>
<path class="st3" d="M53.4,13.4h29.1v-2.2H53.4V13.4z"/>
<path class="st3" d="M51.2,5.2h46.1V3H51.2V5.2z"/>
<path class="st3" d="M3,103.4h100.4v-2.2H3V103.4z"/>
<path class="st3" d="M3,97h100.4v-1.8H3V97z"/>
<path class="st3" d="M17.6,95.2L28,23.9h-4.2L11.2,95.2H17.6z"/>
<path class="st3" d="M88.8,95.2L78.4,13.4h4.2l12.7,81.8H88.8z"/>
<path class="st11" d="M25.7,29.9l0.4-0.7l-0.4-0.9L24.8,28l-0.5,0.2l-0.4,0.9l0.4,0.7l0.5,0.2L25.7,29.9z"/>
<path class="st11" d="M24.6,36.7l0.2-0.7l-0.2-0.9l-0.7-0.2L23,35.1l-0.2,0.9l0.2,0.7l0.9,0.2L24.6,36.7z"/>
<path class="st11" d="M23,45l0.2-0.6L23,43.6l-0.7-0.2l-0.6,0.2l-0.4,0.7l0.4,0.6l0.6,0.3L23,45z"/>
<path class="st11" d="M22.1,53.4l0.2-0.9L22.1,52l-0.9-0.4L20.5,52l-0.2,0.5l0.2,0.9l0.7,0.4L22.1,53.4z"/>
<path class="st11" d="M20.5,61.2l0.2-0.5l-0.2-0.9l-0.9-0.4l-0.5,0.4l-0.4,0.9l0.4,0.5l0.5,0.4L20.5,61.2z"/>
<path class="st11" d="M18.9,69.7l0.3-0.9l-0.3-0.6L18,67.9l-0.6,0.3l-0.3,0.6l0.3,0.9l0.6,0.1L18.9,69.7z"/>
<path class="st11" d="M17.3,78.1l0.3-0.9l-0.3-0.7l-0.6-0.2l-0.9,0.2l-0.3,0.7l0.3,0.9l0.9,0.2L17.3,78.1z"/>
<path class="st11" d="M28.9,77.9l0.2-0.6l-0.2-0.7L28,76.3l-0.7,0.2l-0.2,0.7l0.2,0.6l0.7,0.4L28.9,77.9z"/>
<path class="st11" d="M37.1,78.1l0.4-0.9l-0.4-0.7l-0.5-0.2l-0.9,0.2l-0.4,0.7l0.4,0.9l0.9,0.2L37.1,78.1z"/>
<path class="st11" d="M45.5,77.9l0.2-0.6l-0.2-0.7l-0.7-0.2l-0.6,0.2l-0.4,0.7l0.4,0.6l0.6,0.4L45.5,77.9z"/>
<path class="st11" d="M54.1,77.9l0.1-0.6l-0.1-0.7l-0.9-0.2l-0.9,0.2l-0.1,0.7l0.1,0.6l0.9,0.4L54.1,77.9z"/>
<path class="st11" d="M62.3,77.9l0.4-0.6l-0.4-0.7l-0.6-0.2l-0.7,0.2l-0.2,0.7l0.2,0.6l0.7,0.4L62.3,77.9z"/>
<path class="st11" d="M79.1,77.9l0.2-0.6l-0.2-0.7l-0.7-0.2l-0.9,0.2l-0.2,0.7l0.2,0.6l0.9,0.4L79.1,77.9z"/>
<path class="st11" d="M70.7,77.9l0.4-0.6l-0.4-0.7l-0.9-0.2l-0.5,0.2l-0.4,0.7l0.4,0.6l0.5,0.4L70.7,77.9z"/>
<path class="st11" d="M28.9,94.2l0.2-0.6l-0.2-0.9L28,92.4l-0.7,0.3l-0.2,0.9l0.2,0.6l0.7,0.3L28.9,94.2z"/>
<path class="st11" d="M54.1,94.2l0.1-0.6l-0.1-0.9l-0.9-0.3l-0.9,0.3l-0.1,0.9l0.1,0.6l0.9,0.3L54.1,94.2z"/>
<path class="st11" d="M79.1,94.2l0.2-0.6l-0.2-0.9l-0.7-0.3l-0.9,0.3l-0.2,0.9l0.2,0.6l0.9,0.3L79.1,94.2z"/>
</svg>
