<?xml version="1.0" encoding="utf-8"?>
<!-- Generator: Adobe Illustrator 23.0.0, SVG Export Plug-In . SVG Version: 6.00 Build 0)  -->
<svg version="1.1" id="图层_1" xmlns="http://www.w3.org/2000/svg" xmlns:xlink="http://www.w3.org/1999/xlink" x="0px" y="0px"
	 viewBox="0 0 106.5 106.5" style="enable-background:new 0 0 106.5 106.5;" xml:space="preserve">
<style type="text/css">
	.st0{fill:#98CB98;}
	.st1{fill:#8EC78E;}
	.st2{fill:#84C284;}
	.st3{fill:#7ABD7A;}
	.st4{fill:none;stroke:#000000;stroke-width:0.25;}
	.st5{fill:#64B264;}
	.st6{fill:#70B870;}
	.st7{fill:#88C488;}
	.st8{fill:#92C992;}
	.st9{fill:#9ECE9E;}
	.st10{fill:#A8D3A8;}
	.st11{fill:#B2D8B2;}
	.st12{fill:#BCDDBC;}
	.st13{fill:#C6E2C6;}
	.st14{fill:#D0E7D0;}
	.st15{fill:#D6EAD6;}
	.st16{fill:#E0EFE0;}
	.st17{fill:#EAF4EA;}
	.st18{fill:#F4F9F4;}
	.st19{fill:#FFFFFF;}
	.st20{fill:none;stroke:#7F7F7F;stroke-width:0.25;}
	.st21{fill:#98CB98;stroke:#000000;stroke-width:0.25;}
	.st22{fill:#64B264;stroke:#000000;stroke-width:0.25;}
	.st23{fill:#54AA54;stroke:#000000;stroke-width:0.25;}
	.st24{fill:#003200;}
	.st25{fill:#005D00;}
	.st26{fill:#006A00;}
	.st27{fill:#007700;}
	.st28{fill:#088408;}
	.st29{fill:#209020;}
	.st30{fill:#3A9D3A;}
	.st31{fill:#54AA54;}
	.st32{fill:#005D00;stroke:#000000;stroke-width:0.25;}
	.st33{fill:none;stroke:#B2CCFF;stroke-width:0.25;}
	.st34{fill:none;stroke:#003399;stroke-width:0.25;}
</style>
<path class="st0" d="M78.7,34.3h9.3V9.2h-9.3V34.3z"/>
<path class="st1" d="M78.7,34.3h9.3V18.2l-9.3,2V34.3z"/>
<path class="st2" d="M78.7,34.3h9.3V19.4l-9.3,2.2V34.3z"/>
<path class="st3" d="M78.7,34.3h9.3V20.8l-9.3,2V34.3z"/>
<path class="st4" d="M78.7,9.2v25.2h9.3V9.2H78.7"/>
<path class="st5" d="M4.4,99.3h2v4.2h2.1v-4.2h92.1v4.2h2v-4.2h2.1V34.3h-2.1v-4.3h-2v4.3H8.5v-4.3H6.4v4.3h-2V99.3z"/>
<path class="st6" d="M4.4,97.2h2v4.1h2.1v-4.1h92.1v4.1h2.1v-4.1h2V36.4h-2v-4.1h-2.1v4.1H8.5v-4.1H6.4v4.1h-2V97.2z"/>
<path class="st3" d="M4.4,95.2h2V99h2.1v-3.8h92.1V99h2.1v-3.8h2v-57h-2v-3.6h-2.1v3.6H8.5v-3.6H6.4v3.6h-2V95.2z"/>
<path class="st2" d="M4.4,93.4h2v3.4h2.1v-3.4h92.1v3.4h2.1v-3.4h2V40.2h-2v-3.5h-2.1v3.5H8.5v-3.5H6.4v3.5h-2V93.4z"/>
<path class="st7" d="M4.4,91.4h2v3.2h2.1v-3.2h92.1v3.2h2.1v-3.2h2V42.1h-2v-3.2h-2.1v3.2H8.5v-3.2H6.4v3.2h-2V91.4z"/>
<path class="st8" d="M4.4,89.6h2v2.9h2.1v-2.9h92.1v2.9h2.1v-2.9h2V43.9h-2v-2.8h-2.1v2.8H8.5v-2.8H6.4v2.8h-2V89.6z"/>
<path class="st9" d="M4.4,87.5h2v2.7h2.1v-2.7h92.1v2.7h2.1v-2.7h2V45.9h-2v-2.6h-2.1v2.6H8.5v-2.6H6.4v2.6h-2V87.5z"/>
<path class="st10" d="M4.4,85.6h2V88h2.1v-2.3h92.1V88h2.1v-2.3h2V48h-2v-2.6h-2.1V48H8.5v-2.6H6.4V48h-2V85.6z"/>
<path class="st11" d="M4.4,83.7h2v2.2h2.1v-2.2h92.1v2.2h2.1v-2.2h2V49.8h-2v-2.2h-2.1v2.2H8.5v-2.2H6.4v2.2h-2V83.7z"/>
<path class="st12" d="M4.4,81.8h2v1.9h2.1v-1.9h92.1v1.9h2.1v-1.9h2v-30h-2v-2h-2.1v2H8.5v-2H6.4v2h-2V81.8z"/>
<path class="st13" d="M4.4,79.7h2v1.8h2.1v-1.8h92.1v1.8h2.1v-1.8h2v-26h-2V52h-2.1v1.7H8.5V52H6.4v1.7h-2V79.7z"/>
<path class="st14" d="M4.4,77.9h2v1.4h2.1v-1.4h92.1v1.4h2.1v-1.4h2V55.6h-2v-1.4h-2.1v1.4H8.5v-1.4H6.4v1.4h-2V77.9z"/>
<path class="st15" d="M4.4,75.9h2v1.2h2.1v-1.2h92.1v1.2h2.1v-1.2h2V57.7h-2v-1.3h-2.1v1.3H8.5v-1.3H6.4v1.3h-2V75.9z"/>
<path class="st16" d="M4.4,73.9h2v1.1h2.1v-1.1h92.1v1.1h2.1v-1.1h2V59.6h-2v-1h-2.1v1H8.5v-1H6.4v1h-2V73.9z"/>
<path class="st17" d="M4.4,72.1h2v0.6h2.1v-0.6h92.1v0.6h2.1v-0.6h2V61.4h-2v-0.5h-2.1v0.5H8.5v-0.5H6.4v0.5h-2V72.1z"/>
<path class="st18" d="M4.4,70h2v0.4h2.1V70h92.1v0.4h2.1V70h2v-6.6h-2V63h-2.1v0.4H8.5V63H6.4v0.4h-2V70z"/>
<path class="st19" d="M4.4,68.2h2h2.1h92.1h2h2.1v-2.8h-2.1v-0.2h-2v0.2H8.5v-0.2H6.4v0.2h-2V68.2z"/>
<path class="st4" d="M4.4,34.3v64.9h2v4.2h2.1v-4.2h92.1v4.2h2v-4.2h2.1V34.3h-2.1v-4.3h-2v4.3H8.5v-4.3H6.4v4.3H4.4"/>
<path class="st20" d="M6.4,34.3v64.9"/>
<path class="st20" d="M8.5,34.3v64.9"/>
<path class="st20" d="M100.6,34.3v64.9"/>
<path class="st20" d="M102.7,34.3v64.9"/>
<path class="st21" d="M12.6,84.1h3.8v4.1h-3.8V84.1z"/>
<path class="st21" d="M96.4,84.1h-3.6v4.1h3.6V84.1z"/>
<path class="st21" d="M96.4,48h-3.6v-4.3h3.6V48z"/>
<path class="st21" d="M12.6,48h3.8v-4.3h-3.8V48z"/>
<path class="st22" d="M13.2,91.4h2v-3.2h-2.7L13.2,91.4z"/>
<path class="st22" d="M95.8,91.4h-2v-3.2h2.6L95.8,91.4z"/>
<path class="st22" d="M95.8,40.5h-2v3.2h2.6L95.8,40.5z"/>
<path class="st22" d="M13.2,40.5h2v3.2h-2.7L13.2,40.5z"/>
<path class="st0" d="M46.2,39.1h33.6v-7.8H46.2V39.1z"/>
<path class="st1" d="M46.2,39.1h33.6v-6.8l-33.6,3.2V39.1z"/>
<path class="st2" d="M46.2,39.1h33.6v-5.2l-33.6,3.2V39.1z"/>
<path class="st3" d="M46.2,39.1h33.6v-4.3l-33.6,3.3V39.1z"/>
<path class="st4" d="M46.2,31.3v7.8h33.6v-7.8H46.2"/>
<path class="st21" d="M47.1,31.3h2.2v-8.1h-2.2V31.3z"/>
<path class="st21" d="M76.4,31.3h2.2v-8.1h-2.2V31.3z"/>
<path class="st21" d="M49.4,28h27.1v-1H49.4V28z"/>
<path class="st21" d="M49.4,24.8h27.1v-0.4H49.4V24.8z"/>
<path class="st23" d="M49.4,24.4h27.1v-1.6H49.4V24.4z"/>
<path class="st24" d="M49.4,22.8h27.1v-1.6H49.4V22.8z"/>
<path class="st25" d="M48.7,21.2h28.4V5.5H48.7V21.2z"/>
<path class="st4" d="M67.5,5.5h1l0.9-0.9v-1L68.4,3h-1l-0.9,0.7v1L67.5,5.5"/>
<path class="st26" d="M48.7,20h28.4V6.6H48.7V20z"/>
<path class="st27" d="M48.7,19.1h28.4V7.8H48.7V19.1z"/>
<path class="st28" d="M48.7,17.8h28.4V9H48.7V17.8z"/>
<path class="st29" d="M48.7,16.6h28.4V10H48.7V16.6z"/>
<path class="st30" d="M48.7,15.6h28.4v-4.4H48.7V15.6z"/>
<path class="st31" d="M48.7,14.4h28.4v-2H48.7V14.4z"/>
<path class="st32" d="M58.7,16.6h16.7V5.5H58.7V16.6z"/>
<path class="st4" d="M48.7,5.5v15.7h28.4V5.5H48.7"/>
<path class="st4" d="M75.5,6.6H58.7"/>
<path class="st4" d="M58.7,8.3h16.7"/>
<path class="st4" d="M75.5,10H58.7"/>
<path class="st4" d="M58.7,11.6h16.7"/>
<path class="st4" d="M75.5,13.2H58.7"/>
<path class="st4" d="M58.7,15h16.7"/>
<path class="st31" d="M62.8,19.6h8.4v-8.2h-8.4V19.6z"/>
<path class="st33" d="M71.2,11.4h-8.4v8.2"/>
<path class="st34" d="M71.2,11.4v8.2h-8.4"/>
</svg>
