<?xml version="1.0" encoding="utf-8"?>
<!-- Generator: Adobe Illustrator 23.0.0, SVG Export Plug-In . SVG Version: 6.00 Build 0)  -->
<svg version="1.1" id="图层_1" xmlns="http://www.w3.org/2000/svg" xmlns:xlink="http://www.w3.org/1999/xlink" x="0px" y="0px"
	 viewBox="0 0 138.9 106.5" style="enable-background:new 0 0 138.9 106.5;" xml:space="preserve">
<style type="text/css">
	.st0{fill:#C8C8C8;}
	.st1{fill:#BEBEBE;}
	.st2{fill:#B4B4B4;}
	.st3{fill:#CBCBCB;}
	.st4{fill:none;stroke:#000000;stroke-width:0.25;}
	.st5{fill:none;stroke:#7F7F7F;stroke-width:0.25;}
	.st6{fill:#999999;}
	.st7{fill:#4E4E4E;}
	.st8{fill:#FFFFFF;}
	.st9{fill:#323232;stroke:#000000;stroke-width:0.25;}
	.st10{fill:#676767;}
	.st11{fill:#828282;}
	.st12{fill:#494949;}
	.st13{fill:none;stroke:#FFFFFF;stroke-width:0.25;}
</style>
<path class="st0" d="M3.9,102.6H135V3.9H3.9V102.6z"/>
<path class="st0" d="M3.9,102.6H135V32.7L3.9,73.9V102.6z"/>
<path class="st1" d="M3.9,102.6H135V36.9L3.9,77.8V102.6z"/>
<path class="st2" d="M3.9,102.6H135V43L3.9,84.1V102.6z"/>
<path class="st3" d="M6.5,94.1h125.9V6.7H6.5V94.1z"/>
<path class="st0" d="M69.5,94.1h62.9v-62L69.5,68.6V94.1z"/>
<path class="st0" d="M6.5,94.1h62.9v-62L6.5,68.9V94.1z"/>
<path class="st1" d="M69.5,94.1h62.9V35.9L69.5,72.7V94.1z"/>
<path class="st1" d="M6.5,94.1h62.9V35.9L6.5,72.7V94.1z"/>
<path class="st2" d="M69.5,94.1h62.9V41.3L69.5,77.8V94.1z"/>
<path class="st2" d="M6.5,94.1h62.9V41.3L6.5,77.8V94.1z"/>
<path class="st4" d="M3.9,3.9v98.7H135V3.9H3.9"/>
<path class="st5" d="M69.5,6.7v87.4h62.9V6.7H69.5"/>
<path class="st6" d="M91.3,100.9h22v-5.2h-22V100.9z"/>
<path class="st7" d="M8.9,93.4l0.4-0.8l-0.4-0.8H7.8l-0.6,0.8l0.6,0.8H8.9z"/>
<path class="st7" d="M8.9,33.8L9.3,33l-0.4-1.1H7.8L7.2,33l0.6,0.8H8.9z"/>
<path class="st5" d="M6.5,6.7v87.4h62.9V6.7H6.5"/>
<path class="st8" d="M77.5,21.7h7.7V8.9h-7.7V21.7z"/>
<path d="M72.4,14.9h1.8v-6h-1.8V14.9z"/>
<path d="M128.2,14.9h2.1v-6h-2.1V14.9z"/>
<path class="st9" d="M6.5,31.5h62.9V6.7H6.5V31.5z"/>
<path d="M26.5,26.5h7.7V23h-7.7V26.5z"/>
<path class="st2" d="M45.8,25.9l1.8-1.5V22l-1.8-1.5h-2.1L42.2,22v2.4l1.5,1.5H45.8z"/>
<path class="st2" d="M54.9,25.9l1.5-1.5V22l-1.5-1.5h-2.2L51.1,22v2.4l1.5,1.5H54.9z"/>
<path class="st10" d="M15.5,26.5H23V23h-7.5V26.5z"/>
<path class="st4" d="M16.1,20.5h2.6v-7"/>
<path class="st4" d="M20.9,20.5h2.6v-7"/>
<path class="st4" d="M25.6,20.5h2.9v-7"/>
<path class="st4" d="M30.3,20.5h2.9v-7"/>
<path class="st5" d="M33.3,13.5h-2.9v7"/>
<path class="st5" d="M28.5,13.5h-2.9v7"/>
<path class="st5" d="M23.5,13.5h-2.6v7"/>
<path class="st5" d="M18.8,13.5h-2.6v7"/>
<path class="st11" d="M48.2,31.9l21.3,40.5v14.5l-28.7-55H48.2z"/>
<path class="st10" d="M55.8,31.9l13.6,26v14.5L48.2,31.9H55.8z"/>
<path class="st12" d="M63.5,31.9l6,11.6v14.5l-13.6-26H63.5z"/>
<path class="st13" d="M131.7,7.2H70.3"/>
</svg>
