<?xml version="1.0" encoding="utf-8"?>
<!-- Generator: Adobe Illustrator 23.0.0, SVG Export Plug-In . SVG Version: 6.00 Build 0)  -->
<svg version="1.1" id="图层_1" xmlns="http://www.w3.org/2000/svg" xmlns:xlink="http://www.w3.org/1999/xlink" x="0px" y="0px"
	 viewBox="0 0 91.8 106.5" style="enable-background:new 0 0 91.8 106.5;" xml:space="preserve">
<style type="text/css">
	.st0{fill:#98CB98;}
	.st1{fill:#88C488;}
	.st2{fill:#74BA74;}
	.st3{fill:#64B264;}
	.st4{fill:none;stroke:#000000;stroke-width:0.25;stroke-linecap:round;stroke-linejoin:round;}
	.st5{fill:#98CB98;stroke:#000000;stroke-width:0.25;stroke-linecap:round;stroke-linejoin:round;}
	.st6{fill:#A8D3A8;}
	.st7{fill:#BCDDBC;}
	.st8{fill:#CAE4CA;}
	.st9{fill:#E4F1E4;stroke:#000000;stroke-width:0.25;stroke-linecap:round;stroke-linejoin:round;}
</style>
<path class="st0" d="M12.5,65.7v33.6h73.1l-2-50.3L12.5,65.7z"/>
<path class="st1" d="M20.1,65.7v33.6h58L76.4,49L20.1,65.7z"/>
<path class="st2" d="M27.8,65.7v33.6h42.5L69.1,49L27.8,65.7z"/>
<path class="st3" d="M35.4,65.7v33.6h27.4L61.9,49L35.4,65.7z"/>
<path class="st4" d="M83.6,49L12.5,65.7v33.6h73.1L83.6,49"/>
<path class="st5" d="M29.2,7.2H8.3V49v2l0.4,3.7l0.7,3.6l1.1,3.6l1.5,3.3l1.7,3.3l2,3l2.3,2.8l2.6,2.6l2.8,2.3l3,2l3.2,1.8l3.3,1.4
	l3.5,1.1l3.7,0.9l3.7,0.3l1.9,0.1l2-0.1l3.7-0.3l3.7-0.9l3.5-1.1l3.4-1.4l3.2-1.8l3-2l2.9-2.3l2.6-2.6l2.2-2.8l2.1-3l1.7-3.3
	l1.4-3.3l1.2-3.6l0.7-3.6l0.3-3.7l0.1-2l-0.1-1.9l-0.3-3.7l-0.7-3.7l-1.2-3.5l-1.4-3.3l-1.7-3.2l-2.1-3l-2.2-2.8l-2.6-2.6l-2.9-2.3
	l-3-2l-3.2-1.7l-3.4-1.5l-3.5-1.1l-3.7-0.7l-3.7-0.4h-3l-3.1,0.2l-3.2,0.5L35.5,13L32.4,14l-3,1.3L29.2,7.2z"/>
<circle class="st6" cx="46" cy="49" r="28.6"/>
<circle class="st7" cx="46.1" cy="49" r="23.7"/>
<circle class="st8" cx="46" cy="49" r="18.8"/>
<path class="st9" d="M29.2,7.2L33.4,3H4l4.3,4.2H29.2z"/>
<path class="st9" d="M12.5,99.3l-4.3,4.2h81.6l-4.2-4.2H12.5z"/>
</svg>
