<?xml version="1.0" encoding="utf-8"?>
<!-- Generator: Adobe Illustrator 23.0.0, SVG Export Plug-In . SVG Version: 6.00 Build 0)  -->
<svg version="1.1" id="图层_1" xmlns="http://www.w3.org/2000/svg" xmlns:xlink="http://www.w3.org/1999/xlink" x="0px" y="0px"
	 viewBox="0 0 55 106.5" style="enable-background:new 0 0 55 106.5;" xml:space="preserve">
<style type="text/css">
	.st0{fill:#CDCDCD;}
	.st1{stroke:#000000;stroke-width:0.25;}
	.st2{fill:#9A9A9A;}
	.st3{fill:none;stroke:#747474;stroke-width:0.25;}
	.st4{fill:none;stroke:#000000;stroke-width:0.25;}
	.st5{fill:#EAEAEA;}
	.st6{fill:#969696;}
	.st7{fill:#A9AB69;}
	.st8{fill:#CCCB51;}
	.st9{fill:#191919;}
	.st10{fill:#333333;}
	.st11{fill:#CB9C39;}
	.st12{fill:none;stroke:#999999;stroke-width:0.25;}
	.st13{fill:#B2801C;}
	.st14{fill:#FFFFFF;}
</style>
<path class="st0" d="M40.5,85.2l2.5-2.5l1.8-3.2l1-3.4V52l4.5-4.5H5.5L10,52v24.1l0.7,3.4l1.8,3.2l2.7,2.5l3,1.8l3.4,0.7h12.5
	l3.4-0.7L40.5,85.2z"/>
<path class="st1" d="M32.5,102.4l1-1l0.6-1.3l0.4-1.4V87.7H21v11.1l0.4,1.4l0.6,1.3l1,1l1.3,0.6l1.2,0.3h4.6l1.4-0.3L32.5,102.4z"/>
<path class="st2" d="M5.5,47.5h44.7V31.9H5.5V47.5z"/>
<path class="st3" d="M50.2,31.9L5.5,34.3v2.1l44.7-2.1v2.1L5.5,38.7v2.2l44.7-2.2v2.2L5.5,43.2v2.2l44.7-2.2v2.2L5.5,47.5"/>
<path class="st4" d="M5.5,31.9v15.7h44.7V31.9H5.5"/>
<path class="st4" d="M37.5,87l3-1.8l2.5-2.5l1.8-3.2l1-3.4V52l4.5-4.5H5.5L10,52v24.1l0.7,3.4l1.8,3.2l2.7,2.5l3,1.8l3.4,0.7h12.5
	L37.5,87"/>
<path class="st5" d="M38,83.2l2-2.2l1.4-2.6l0.7-3V53.8l3.6-4.1H10l3.4,4.1v21.5l0.7,3l1.4,2.6l2,2.2l2.5,1.6l2.8,0.9h10.1l2.6-0.9
	L38,83.2z"/>
<path class="st6" d="M34.5,84.5v-5.7h4.4v-2.1H16.6v2.1H21v5.7H34.5z"/>
<path class="st7" d="M38.9,76.8l-2.1-2.2V54.4l-1.1-4.6H20l-1.2,4.6v20.1l-2.2,2.2H38.9z"/>
<path class="st8" d="M35.7,76.8l-1.6-2.2V55.2L33.3,51H22.4l-0.7,4.3v19.3L20,76.8H35.7z"/>
<path d="M3.3,7.4l1.1-2.2L7.8,3H48l3.2,2.1l1.2,2.2v24.5h-49V7.4z"/>
<path class="st9" d="M6.6,7.4l1-2.2L10.5,3h34.8l3,2.1L49,7.4v24.5H6.6V7.4z"/>
<path class="st10" d="M12.2,7.4l0.6-2.2L15,3h25.5l2.2,2.1l0.9,2.2v24.5H12.2V7.4z"/>
<path class="st9" d="M3.3,7.4l1.1-2.2L7.8,3h11.1l3.4,2.1l1,2.2L21,31.9H3.3V7.4z"/>
<path d="M3.3,7.4l0.9-2.2L6.9,3h3.6l2.9,2.1l1,2.2v24.5H3.3V7.4z"/>
<path class="st4" d="M3.3,31.9V7.4l1.1-2.2L7.8,3H48l3.2,2.1l1.2,2.2v24.5H3.3"/>
<ellipse class="st11" cx="8.3" cy="15.2" rx="2.7" ry="8.8"/>
<path class="st12" d="M10.6,3l2.9,2.1l1,2.2v24.5"/>
<ellipse class="st13" cx="9.4" cy="15.2" rx="1.6" ry="5.4"/>
<path class="st14" d="M23.5,81.1l-1.2-8.8l-1.3-10v7.7l1.3,11.2l4.4,5.7L23.5,81.1z"/>
</svg>
