<?xml version="1.0" encoding="utf-8"?>
<!-- Generator: Adobe Illustrator 23.0.0, SVG Export Plug-In . SVG Version: 6.00 Build 0)  -->
<svg version="1.1" id="图层_1" xmlns="http://www.w3.org/2000/svg" xmlns:xlink="http://www.w3.org/1999/xlink" x="0px" y="0px"
	 viewBox="0 0 139.5 106.5" style="enable-background:new 0 0 139.5 106.5;" xml:space="preserve">
<style type="text/css">
	.st0{fill:#808080;stroke:#000000;stroke-width:0.5;}
</style>
<path class="st0" d="M135.7,36.8v-33H53.2L48.2,4l-4.9,0.8l-4.6,1.3L34,7.6l-4.2,2.1l-4.2,2.5L21.8,15l-3.4,3.2l-3.2,3.6l-3,3.8
	l-2.5,4L7.6,34l-1.5,4.4l-1.3,4.6L4,48L3.8,53L4,58.1L4.9,63l1.3,4.9l1.5,4.4l2.1,4.4l2.5,4l3,3.8l3.2,3.6l3.4,3.2l3.8,3l4.2,2.3
	l4.2,2.1l4.6,1.7l4.6,1.3l4.9,0.8l5.1,0.2l5.1-0.2l4.9-0.8l4.6-1.3l4.6-1.7l4.2-2.1l4-2.3l3.8-3l3.6-3.2l3.2-3.6l3-3.8l2.5-4
	l1.9-4.4l1.7-4.4l1.3-4.9l0.8-4.9l0.2-5.1l-0.2-4l-0.6-4.2l-0.8-4l-1.3-4H135.7z"/>
</svg>
