<?xml version="1.0" encoding="utf-8"?>
<!-- Generator: Adobe Illustrator 23.0.0, SVG Export Plug-In . SVG Version: 6.00 Build 0)  -->
<svg version="1.1" id="图层_1" xmlns="http://www.w3.org/2000/svg" xmlns:xlink="http://www.w3.org/1999/xlink" x="0px" y="0px"
	 viewBox="0 0 88.2 106.5" style="enable-background:new 0 0 88.2 106.5;" xml:space="preserve">
<style type="text/css">
	.st0{fill:#B3B3B3;stroke:#000000;stroke-width:0.5;}
	.st1{fill:#D8D8D8;stroke:#000000;stroke-width:0.5;}
	.st2{fill:#B3B3B3;}
	.st3{fill:#999999;}
	.st4{fill:#D8D8D8;}
	.st5{fill:none;stroke:#000000;stroke-width:0.5;}
	.st6{fill:#999999;stroke:#000000;stroke-width:0.5;}
	.st7{fill:#B4B4B4;}
	.st8{fill:#A0A0A0;}
	.st9{fill:#969696;}
	.st10{fill:#8C8C8C;}
	.st11{fill:#787878;}
	.st12{fill:#646464;stroke:#000000;stroke-width:0.5;}
	.st13{fill:#404040;}
</style>
<path class="st0" d="M67.9,103.5H17.7V53.3h50.2V103.5z"/>
<path class="st0" d="M65.9,99.3H19.9v-44h45.9V99.3z"/>
<path class="st1" d="M71.4,46.7L71,50.2l-0.7,3.3l-1.1,3.2l-1.4,3l-1.7,2.9l-1.8,2.7L62,67.7L59.7,70l-2.6,2l-2.8,1.8l-3,1.5
	l-3.1,1.3l-3.2,0.9l-3.4,0.6l-3.4,0.3h-0.9l-1.8-0.1L32.2,78l-3.4-0.6l-3.2-1.1L22.5,75l-2.9-1.6l-2.8-1.8l-2.6-2.1l-2.3-2.3l-2-2.6
	L8,61.9l-1.6-3l-1.3-3l-1.1-3.2l-0.6-3.3L3.1,46L3,44.2l0.1-1.7l0.1-1.7l0.5-3.5l0.9-3.2l1.2-3.2l1.4-3L9,25l1.9-2.7l2.2-2.5
	l2.5-2.1l2.7-2L21,14l3.1-1.5l3.1-1.2l3.3-0.9l3.4-0.5l3.5-0.1h20.5h23.9v34.3H71.5L71.4,46.7z"/>
<path class="st2" d="M71.5,42.5l-0.2-1.7l-0.1-1.6l-0.3-1.7l-0.4-1.6L70,34.2l-0.5-1.6L69,31l-0.7-1.5L67.5,28l-0.7-1.5l-1-1.4
	l-1-1.3l-1.1-1.3l-1.1-1.3l-1.2-1.2l20.3,3.4v20.7H71.5V42.5z"/>
<path class="st2" d="M81.8,51V3h3.4v48H81.8z"/>
<path class="st3" d="M81.8,51V35.6h3.4V51H81.8z"/>
<path class="st4" d="M81.8,13.3V3h3.4v10.2H81.8z"/>
<path class="st5" d="M85.2,51h-3.4V3h3.4V51"/>
<path class="st6" d="M70.1,103.5H15.7v-4.2h54.5V103.5z"/>
<circle class="st6" cx="37.3" cy="44.1" r="27.5"/>
<circle class="st7" cx="37.3" cy="44.1" r="20"/>
<circle class="st8" cx="37.2" cy="44.1" r="18"/>
<circle class="st9" cx="37.1" cy="44" r="15.9"/>
<circle class="st10" cx="36.9" cy="44.1" r="13.9"/>
<circle class="st11" cx="36.8" cy="44.1" r="11.7"/>
<circle class="st12" cx="37.4" cy="44.1" r="10.2"/>
<path class="st13" d="M35.3,42.1l1-0.6l1.2-0.2v-6.1l-1.3,0.1l-1.1,0.3l-1.2,0.3l-1.1,0.5l-1,0.6L31,37.9l-0.9,0.9l-0.6,1.1l5.2,2.8
	L35.3,42.1z"/>
<path class="st13" d="M39.4,42l0.7,1l0.2,1.3h5.9L46.2,43l-0.3-1.2l-0.3-1.1L45,39.7l-0.6-1l-0.7-1L42.7,37l-1-0.6l-3,5L39.4,42z"/>
<path class="st13" d="M39.4,46.2l-1,0.6l-1.1,0.3V53l1.1-0.1l1.2-0.2l1.1-0.4l1-0.5l1-0.6l1-0.7l0.7-1l0.6-1l-5-2.9L39.4,46.2z"/>
<path class="st13" d="M35.2,46.3l-0.5-1.1L34.3,44h-5.8v0.6v0.6l0.2,1.1l0.3,1.2l0.5,1.1l0.6,1l0.7,0.9l1,0.9l1,0.6l2.9-5L35.2,46.3
	z"/>
<path class="st13" d="M36.4,68.9v-1.6h1.8v1.6H36.4z"/>
<path class="st13" d="M15,45.8h-1.8v-1.6H15V45.8z"/>
<path class="st13" d="M36.4,22.7v-1.7h1.8v1.7H36.4z"/>
<path class="st13" d="M61.5,45.8h-1.8v-1.6h1.8V45.8z"/>
<path class="st13" d="M27,86.4l-0.2-0.9L27,85l0.7-0.4l0.9,0.4l0.2,0.5l-0.2,0.9l-0.9,0.4L27,86.4z"/>
<path class="st13" d="M27,94.8l-0.2-0.7l0.2-0.9l0.7-0.2l0.9,0.2l0.2,0.9l-0.2,0.7L27.7,95L27,94.8z"/>
</svg>
