<?xml version="1.0" encoding="utf-8"?>
<!-- Generator: Adobe Illustrator 23.0.0, SVG Export Plug-In . SVG Version: 6.00 Build 0)  -->
<svg version="1.1" id="图层_1" xmlns="http://www.w3.org/2000/svg" xmlns:xlink="http://www.w3.org/1999/xlink" x="0px" y="0px"
	 viewBox="0 0 83.2 106.5" style="enable-background:new 0 0 83.2 106.5;" xml:space="preserve">
<style type="text/css">
	.st0{fill:#08FDF8;stroke:#000000;stroke-width:0.5;}
	.st1{stroke:#000000;stroke-width:0.5;}
	.st2{fill:none;stroke:#000000;stroke-width:0.5;}
</style>
<path class="st0" d="M17.6,99.9v3.5h64.6v-3.5h-3.5V58.5L67.9,46.1V13.8h1.8V8.3h-1.8V3h-7.2v3.5H46.4l-1.8-1.8l-3.6,3.6h-5.3
	l-9-1.8h-1.8l-5.4,3.6l5.4,3.6h1.8l9-1.8h7.1v7.1H32v27L21.2,58.5V47.8h-5.3v-1.7h-5.4v1.7H5.1V55h3.5v14.3l-1.8,1.8l3.6,3.6v5.3
	l-1.8,9.1v1.7l3.6,5.4l3.6-5.4v-1.7l-1.8-9.1v-7.1h7.1v27H17.6z"/>
<path class="st1" d="M28.4,33.5h43.1v-1.8H28.4V33.5z"/>
<path class="st1" d="M28.4,29.9h43.1V28H28.4V29.9z"/>
<path class="st1" d="M28.4,26.2h43.1v-1.7H28.4V26.2z"/>
<path class="st1" d="M28.4,37h43.1v-1.7H28.4V37z"/>
<path class="st2" d="M24.8,92.6V71.1v-1.3l0.5-3.7l1-3.5l1.5-3.4l2-3.1l2.3-2.7l2.7-2.3l3.1-2l3.4-1.5l3.5-1l3.7-0.5h1.3h1.3
	l1.3,0.1l3.7,0.6l3.5,1.2l3.2,1.7l3,2.1l2.7,2.5l2.2,2.9l1.8,3.1l1.3,3.4l0.9,3.6l0.3,3.8v21.5"/>
<path class="st2" d="M78.7,92.6H21.2"/>
<path class="st2" d="M78.7,99.9H21.2"/>
<circle class="st2" cx="50" cy="71.1" r="17.9"/>
<circle class="st2" cx="50" cy="71.1" r="14.3"/>
<path class="st2" d="M35.6,47.8L32,46.1"/>
<path class="st2" d="M67.9,46.1l-3.6,1.7"/>
<path class="st2" d="M67.9,19.1H42.7"/>
<path class="st2" d="M24.8,6.5v7.2"/>
<path class="st2" d="M26.6,13.8V6.5"/>
<path class="st2" d="M35.6,8.3v3.6"/>
<path class="st2" d="M46.4,6.5l-5.4,1.8l1.8,3.6"/>
<path class="st2" d="M60.7,6.5v7.2H42.7"/>
<path class="st2" d="M66.1,3v16.1"/>
<path class="st2" d="M67.9,8.3v5.4"/>
<path class="st2" d="M8.6,90.8h7.2"/>
<path class="st2" d="M8.6,89.1h7.2"/>
<path class="st2" d="M10.4,80.1h3.6"/>
<path class="st2" d="M8.6,69.3l1.8,5.4l3.6-1.8"/>
<path class="st2" d="M15.9,72.9V55H8.6"/>
<path class="st2" d="M10.4,47.8h5.4"/>
<path class="st2" d="M21.2,49.6H5.1"/>
<path class="st2" d="M21.2,58.5v14.4"/>
</svg>
