<?xml version="1.0" encoding="utf-8"?>
<!-- Generator: Adobe Illustrator 23.0.0, SVG Export Plug-In . SVG Version: 6.00 Build 0)  -->
<svg version="1.1" id="图层_1" xmlns="http://www.w3.org/2000/svg" xmlns:xlink="http://www.w3.org/1999/xlink" x="0px" y="0px"
	 viewBox="0 0 144.7 81.7" style="enable-background:new 0 0 144.7 81.7;" xml:space="preserve">
<style type="text/css">
	.st0{fill:#323232;}
	.st1{fill:#8A8A8A;stroke:#000000;stroke-width:0.5;}
	.st2{fill:url(#SVGID_1_);}
	.st3{fill:none;stroke:#000000;stroke-width:0.5;}
	.st4{fill:#323232;stroke:#000000;stroke-width:0.5;}
	.st5{fill:#7B7B7B;}
	.st6{fill:#CBCBCB;stroke:#000000;stroke-width:0.5;}
	.st7{fill:#B1B1B1;stroke:#000000;stroke-width:0.5;}
	.st8{fill:#E1E1E1;stroke:#000000;stroke-width:0.5;}
	.st9{fill:url(#SVGID_2_);}
	.st10{fill:#FFFFFF;}
	.st11{fill:#FFFFFF;stroke:#000000;stroke-width:0.5;}
	.st12{fill:none;stroke:#FFFFFF;stroke-width:0.5;}
	.st13{fill:none;stroke:#999999;stroke-width:0.5;}
	.st14{fill:url(#SVGID_3_);}
	.st15{fill:#919191;stroke:#000000;stroke-width:0.5;}
</style>
<path class="st0" d="M134,19.6h1.3V52H134V19.6z"/>
<path class="st1" d="M44.7,48.7l-0.7-2H21l-0.6,2H44.7z"/>
<linearGradient id="SVGID_1_" gradientUnits="userSpaceOnUse" x1="31.15" y1="46.7" x2="31.15" y2="16.8">
	<stop  offset="0" style="stop-color:#323232"/>
	<stop  offset="0.5168" style="stop-color:#FFFFFF"/>
	<stop  offset="1" style="stop-color:#323232"/>
</linearGradient>
<path class="st2" d="M9.5,46.7l-5.4-1.2V19l5.4-2.2h37.8L58.2,19v25.5l-10.9,2.2H9.5z"/>
<path class="st3" d="M47.3,46.7H9.5l-5.4-1.2V19l5.4-2.2h37.8L58.2,19v25.5L47.3,46.7"/>
<path class="st4" d="M18.9,46.7H46V23.2H18.9V46.7z"/>
<path class="st5" d="M18.3,34.9h28.4v-1.2H18.3V34.9z"/>
<path class="st5" d="M18.3,38.1h28.4v-1H18.3V38.1z"/>
<path class="st5" d="M18.3,25.4h28.4v-1H18.3V25.4z"/>
<path class="st5" d="M18.3,28.5h28.4v-1H18.3V28.5z"/>
<path class="st5" d="M18.3,40.7h28.4v-1H18.3V40.7z"/>
<path class="st5" d="M18.3,42.9h28.4v-1.2H18.3V42.9z"/>
<path class="st5" d="M18.3,44.9h28.4v-1H18.3V44.9z"/>
<path class="st5" d="M18.3,31.7h28.4v-1H18.3V31.7z"/>
<path class="st3" d="M9.5,16.8v29.8"/>
<path class="st3" d="M17.6,46.7V16.8"/>
<path class="st3" d="M47.3,46.7V16.8"/>
<path class="st6" d="M47.3,50.7v-2h-8.1v-4.8H25.7v4.8h-8.1v2H47.3z"/>
<path class="st7" d="M5.4,76.4h121.7v-8.1H5.4V76.4z"/>
<path class="st8" d="M117.7,66.9V42.5H88v4.2H55.4v4.6H9.5L6.7,66.9H117.7z"/>
<path class="st1" d="M117.7,64.2H134V12.8h-16.2v51.4H117.7z"/>
<linearGradient id="SVGID_2_" gradientUnits="userSpaceOnUse" x1="125.75" y1="57.4" x2="125.75" y2="5.4">
	<stop  offset="0" style="stop-color:#323232"/>
	<stop  offset="0.5168" style="stop-color:#FFFFFF"/>
	<stop  offset="1" style="stop-color:#323232"/>
</linearGradient>
<path class="st9" d="M120.3,57.4h10.9v-52h-10.9C120.3,5.4,120.3,57.4,120.3,57.4z"/>
<circle class="st0" cx="24.4" cy="59.4" r="4.1"/>
<path class="st1" d="M58.2,26.2H61v10.9h-2.8V26.2z"/>
<circle class="st0" cx="62.2" cy="54" r="4.1"/>
<circle class="st0" cx="104.3" cy="50" r="4.1"/>
<path class="st10" d="M90.6,54.8h6.8V52h-6.8V54.8z"/>
<path class="st10" d="M90.6,50.7h6.8v-5.5h-6.8V50.7z"/>
<path class="st0" d="M92.1,54H96v-1.3h-3.9V54z"/>
<path class="st6" d="M88,45.2v-4.1h25.6l4.1-8.1v-9.4H82.5V27h-8.1v-4.6H60.9v22.9L88,45.2L88,45.2z"/>
<path class="st3" d="M131.2,61.4v-56h-10.7v56.1"/>
<path class="st1" d="M52.1,18.3l0.7-2.8H35.1l0.7,2.8H52.1z"/>
<path class="st6" d="M52.8,14.8l-1.4-4.1H36.6l-1.4,4.1C35.2,14.8,52.8,14.8,52.8,14.8z"/>
<path class="st11" d="M33.8,15.5h20.3v-0.7H33.8V15.5z"/>
<path class="st12" d="M70.3,37.1h-6.8v5.4"/>
<path class="st3" d="M63.7,42.5h6.7v-5.4"/>
<path class="st12" d="M113.5,35.8h-5.4v2.8"/>
<path class="st3" d="M108.3,38.5h5.4v-2.8"/>
<path class="st13" d="M97.4,45.2h-6.8v5.5"/>
<path class="st13" d="M97.4,52h-6.8v2.8"/>
<path class="st11" d="M117.7,42.6v-1.4H87.3v1.4H117.7z"/>
<path class="st11" d="M88,46.7v-1.4H54.8v1.4H88z"/>
<path class="st11" d="M55.4,51.3V50H8.8v1.3H55.4z"/>
<path class="st8" d="M4.1,77.7h124.3v-1.3H4.1V77.7z"/>
<path class="st8" d="M4.1,68.2h124.3v-1.3H4.1V68.2z"/>
<path class="st11" d="M119,5.4h13.6V4.1H119V5.4z"/>
<path class="st11" d="M119,22.2h13.6v-1.3H119V22.2z"/>
<path class="st11" d="M119,38.5h13.6v-1.4H119V38.5z"/>
<path class="st11" d="M119,54h13.6v-1.3H119V54z"/>
<linearGradient id="SVGID_3_" gradientUnits="userSpaceOnUse" x1="137.35" y1="17.1" x2="137.35" y2="79.4" gradientTransform="matrix(1 0 0 -1 0 84)">
	<stop  offset="0" style="stop-color:#323232"/>
	<stop  offset="0.5168" style="stop-color:#FFFFFF"/>
	<stop  offset="1" style="stop-color:#323232"/>
</linearGradient>
<path class="st14" d="M135.3,4.6h4.1v62.3h-4.1V4.6z"/>
<path class="st3" d="M135.3,66.9V4.6h4.1v62.3H135.3"/>
<path class="st15" d="M139.4,11.3h1.3V7.4h-1.3V11.3z"/>
<path class="st15" d="M139.4,21.9h1.3V18h-1.3V21.9z"/>
<path class="st15" d="M139.4,32.5h1.3v-3.9h-1.3V32.5z"/>
<path class="st15" d="M139.4,43h1.3v-3.9h-1.3V43z"/>
<path class="st15" d="M139.4,53.6h1.3v-4.1h-1.3V53.6z"/>
<path class="st15" d="M139.4,64.2h1.3v-4.1h-1.3V64.2z"/>
</svg>
