<?xml version="1.0" encoding="utf-8"?>
<!-- Generator: Adobe Illustrator 23.0.0, SVG Export Plug-In . SVG Version: 6.00 Build 0)  -->
<svg version="1.1" id="图层_1" xmlns="http://www.w3.org/2000/svg" xmlns:xlink="http://www.w3.org/1999/xlink" x="0px" y="0px"
	 viewBox="0 0 106.5 106.5" style="enable-background:new 0 0 106.5 106.5;" xml:space="preserve">
<style type="text/css">
	.st0{fill:#A5A5A5;}
	.st1{fill:#C8C8C8;}
	.st2{fill:#BFBFBF;}
	.st3{fill:#B4B4B4;}
	.st4{fill:none;stroke:#000000;stroke-width:0.25;}
	.st5{fill:#828282;stroke:#000000;stroke-width:0.25;}
	.st6{fill:#001900;}
	.st7{fill:#696969;stroke:#000000;stroke-width:0.25;}
	.st8{fill:#CBCBCB;}
	.st9{fill:#808080;}
</style>
<path class="st0" d="M103.4,3H3v100.4h100.4V3z"/>
<path class="st1" d="M103.4,74.3L3,32.3v71.1h100.4V74.3z"/>
<path class="st2" d="M103.4,78.6L3,36.6v66.8h100.4V78.6z"/>
<path class="st3" d="M103.4,84.8L3,42.8v60.7h100.4V84.8z"/>
<path class="st4" d="M103.4,3H3v100.4h100.4V3"/>
<path class="st5" d="M35.5,96.1l11.6,3.2h12.2l11.6-3.2L81.3,90l8.6-8.4l6.2-10.7l3.1-11.6V47.1l-3.2-11.8L90,24.8l-8.4-8.4
	l-10.7-6.2L59.3,7.1H47.1l-11.8,3.1l-10.4,6.2l-8.4,8.4l-6.2,10.4L7.1,47.1v12.2l3.1,11.6l6.2,10.7l8.4,8.4L35.5,96.1z"/>
<path class="st6" d="M36.2,94.2l11.1,3h11.7l11.1-3l10-5.9l8.2-8.2l5.9-10l3-11.1L97,47.3l-2.8-11.2l-5.9-9.9L80.2,18l-10-5.9
	l-11.1-3H47.3l-11.1,3l-10,5.9L18,26.2l-5.9,10l-3,11.1v11.7l3,11.1l5.9,10l8.2,8.2L36.2,94.2z"/>
<path class="st3" d="M46.2,95V60.2h14.1V95H46.2z"/>
<path class="st1" d="M46.2,95l1.8-3l1.4-3.2l1.1-3.3l0.6-3.3l0.3-3.4v-3.4L51,72l-0.9-3.3l-1.2-3.3l-1.6-3.1l-0.5-1.1l-0.6-1H47
	h13.2l1.8,3.1l1.3,3.1l1.1,3.3l0.6,3.4l0.2,2.2l0.1,1.1v1.2L65.1,81l-0.5,3.4l-0.9,3.3l-1.3,3.2L60.9,94l-0.6,1h-0.9H46.2z"/>
<path class="st4" d="M46.2,95V60.2h14.1l1.8,3.1l1.3,3.1l1.1,3.3l0.6,3.4l0.3,3.3l-0.1,3.4l-0.4,3.4l-0.7,3.4l-1.2,3.2L61.4,93
	l-1.2,2H46.2"/>
<path class="st3" d="M13.4,68.1l30.4-17.6l6.7,12L20.5,80.2L13.4,68.1z"/>
<path class="st1" d="M13.4,68.1H17l3.5-0.4l3.3-0.7l3.3-1.1l3.1-1.5l3-1.8l2.8-2l2.5-2.3l2.2-2.7l2-2.9l0.5-1.1l0.6-1.1l0.3,0.7
	l1.7,3.1l1.7,3l1.8,3l0.9,1.5l0.3,0.7l-0.4,1.1l-1.8,3.1l-2.2,2.7L43.7,72L41,74.1L38.2,76l-3.1,1.5l-3.2,1.3l-3.4,0.9l-3.4,0.4
	L24,80.2h-1.3h-1.1h-1.2l-1.8-3.1l-1.7-3l-1.8-3l-1.3-2.2L13.4,68.1z"/>
<path class="st4" d="M13.4,68.1l30.4-17.6l6.7,12l-1.7,3.2l-2,2.8l-2.2,2.6L42,73.5l-2.9,1.9l-3,1.7l-3.2,1.3l-3.3,1.1L26.2,80
	l-3.5,0.2h-2.2L13.4,68.1"/>
<path class="st3" d="M20.5,26.2l30.1,17.6l-6.7,12L13.4,38.3L20.5,26.2z"/>
<path class="st1" d="M20.5,26.2l1.7,3.1l2.1,2.8l2.2,2.6l2.6,2.3l2.9,1.9l3,1.7l3.1,1.4l3.3,1l3.4,0.6l3.5,0.2h1.1h1.2l-0.3,0.7
	l-1.7,3l-1.7,3l-1.7,3l-1.3,2.3h-1.3h-1.2l-3.5-0.2L34.4,55l-3.3-1l-3.2-1.4l-3-1.7L22.2,49l-2.7-2.3l-2.2-2.6l-2.1-2.8l-1.2-2
	l-0.5-1.1l0.4-0.7l1.7-3l1.8-3l1.7-3.1l1-1.5L20.5,26.2z"/>
<path class="st4" d="M20.5,26.2l30.1,17.6l-6.7,12h-1.3L39,55.8l-3.4-0.5l-3.4-0.9L29,53.1l-3.1-1.5L23,49.7l-2.7-2.1L18,45.1
	l-2.2-2.8l-1.8-3l-0.5-1.1L20.5,26.2"/>
<path class="st3" d="M60.2,11.4v34.8H46.2V11.4H60.2z"/>
<path class="st1" d="M60.2,11.4l-1.8,3L57,17.6L56,20.9l-0.6,3.3L55,27.6l0.1,3.4l0.4,3.4l0.7,3.3l1.2,3.3l1.6,3.1l0.5,1.1l0.6,1
	h-0.9H46.2l-1.8-3.1L43.1,40L42,36.7l-0.6-3.4L41.2,31L41,30v-1.2l0.2-3.4l0.5-3.4l0.9-3.3l1.3-3.2l1.6-3.1l0.6-1H47H60.2z"/>
<path class="st4" d="M60.2,11.4v34.8H46.2l-1.8-3.1L43.1,40L42,36.7l-0.6-3.4L41,30l0.1-3.4l0.4-3.4l0.7-3.4l1.2-3.2l1.5-3.1l1.2-2
	H60.2"/>
<path class="st3" d="M93,38.3L62.6,55.9l-6.7-12l30.1-17.6L93,38.3z"/>
<path class="st1" d="M93,38.3h-3.5l-3.5,0.4l-3.3,0.7l-3.3,1.1L76.2,42l-3,1.8l-2.8,2L68,48.2l-2.2,2.7l-2,2.9l-0.5,1.1l-0.6,1.1
	l-0.3-0.7L60.6,52l-1.7-3l-1.8-3l-0.9-1.5l-0.3-0.7l0.4-1.1l1.8-3.1l2.2-2.7l2.3-2.6l2.7-2.1l2.9-1.9l3.1-1.5l3.2-1.3l3.4-0.9
	l3.4-0.4l1.1-0.1h1.3h1.1h1.2l1.8,3.1l1.7,3l1.8,3l1.3,2.2L93,38.3z"/>
<path class="st4" d="M93,38.3L62.6,55.9l-6.7-12l1.7-3.2l2-2.8l2.2-2.6l2.6-2.3l2.9-1.9l3-1.7l3.2-1.3l3.3-1.1l3.4-0.5l3.5-0.2h2.2
	L93,38.3"/>
<path class="st3" d="M85.9,80.2L55.9,62.6l6.7-12L93,68.1L85.9,80.2z"/>
<path class="st1" d="M85.9,80.2l-1.7-3.1l-2.1-2.8l-2.2-2.6l-2.6-2.3l-2.9-1.9l-3-1.7l-3.1-1.4l-3.3-1l-3.4-0.6l-3.5-0.2H57h-1.2
	l0.3-0.7l1.7-3l1.7-3l1.7-3l1.3-2.3h1.3H65l3.5,0.2l3.4,0.6l3.3,1l3.2,1.4l3,1.7l2.8,1.9l2.7,2.3l2.2,2.6l2.1,2.8l1.2,2l0.5,1.1
	l-0.4,0.7l-1.7,3l-1.8,3l-1.7,3.1l-1,1.5L85.9,80.2z"/>
<path class="st4" d="M85.9,80.2L55.9,62.6l6.7-12h1.3l3.5,0.1l3.4,0.5l3.4,0.9l3.2,1.3l3.1,1.5l2.9,1.9l2.7,2.1l2.3,2.5l2.2,2.8
	l1.8,3l0.5,1.1L85.9,80.2"/>
<circle class="st7" cx="53.2" cy="53.2" r="12.3"/>
<circle class="st8" cx="53.2" cy="53.2" r="10.4"/>
<circle class="st9" cx="53.2" cy="53.2" r="3.4"/>
<path d="M97.2,100.9h-6.3v2h6.3V100.9z"/>
<path d="M88.8,100.9h-6.3v2h6.3V100.9z"/>
<path d="M74.1,100.9h-6.2v2h6.2V100.9z"/>
<path d="M9.2,102.9h6.3v-2H9.2V102.9z"/>
<path d="M17.6,102.9h6.3v-2h-6.3V102.9z"/>
<path d="M32.3,102.9h6.2v-2h-6.2V102.9z"/>
</svg>
