<?xml version="1.0" encoding="utf-8"?>
<!-- Generator: Adobe Illustrator 23.0.0, SVG Export Plug-In . SVG Version: 6.00 Build 0)  -->
<svg version="1.1" id="图层_1" xmlns="http://www.w3.org/2000/svg" xmlns:xlink="http://www.w3.org/1999/xlink" x="0px" y="0px"
	 viewBox="0 0 106.5 106.5" style="enable-background:new 0 0 106.5 106.5;" xml:space="preserve">
<style type="text/css">
	.st0{fill:#98CB98;}
	.st1{fill:#8EC78E;}
	.st2{fill:#84C284;}
	.st3{fill:#7ABD7A;}
	.st4{fill:none;stroke:#000000;stroke-width:0.25;}
	.st5{fill:#007F00;stroke:#000000;stroke-width:0.25;}
	.st6{fill:#001900;}
	.st7{fill:#64B264;}
	.st8{fill:#006600;stroke:#000000;stroke-width:0.25;}
	.st9{fill:#CAE4CA;}
	.st10{fill:#007F00;}
</style>
<path class="st0" d="M103.4,3H3v100.4h100.4V3z"/>
<path class="st1" d="M103.4,74.3L3,32.3v71.1h100.4V74.3z"/>
<path class="st2" d="M103.4,78.5L3,36.5v67h100.4V78.5z"/>
<path class="st3" d="M103.4,84.8L3,42.8v60.7h100.4V84.8z"/>
<path class="st4" d="M103.4,3H3v100.4h100.4V3"/>
<path class="st5" d="M35.5,96.1l11.6,3.2h12.2l11.6-3.2L81.3,90l8.6-8.4l6.3-10.7l3-11.6V47.1l-3.2-11.8L90,24.8l-8.4-8.4l-10.7-6.3
	l-11.6-3H47.1l-11.8,3l-10.4,6.3l-8.4,8.4l-6.3,10.4l-3,11.8v12.2l3,11.6l6.3,10.7l8.4,8.4L35.5,96.1z"/>
<path class="st6" d="M36.2,94.2l11.1,3h11.7l11.1-3l10-5.9l8.2-8.2l5.9-10l3-11.1L97,47.3l-2.8-11.2l-5.9-9.9L80.2,18l-10-5.9
	l-11.1-3H47.3l-11.1,3l-10,5.9L18,26.2l-5.9,10l-3,11.1v11.7l3,11.1l5.9,10l8.2,8.2L36.2,94.2z"/>
<path class="st7" d="M26.2,85.8l17.4-30.1l12.2,7L38.4,92.9L26.2,85.8z"/>
<path class="st0" d="M26.2,85.8l3-1.7l2.9-2l2.6-2.3l2.2-2.6l2-2.8l1.6-3l1.4-3.2l1-3.2l0.5-3.4l0.2-3.5v-1.2v-1.2l0.7,0.4l3,1.8
	l3.1,1.7l3.1,1.8l2.2,1.3l0.1,1.2v1.2l-0.3,3.4L54.9,72l-1,3.3l-1.4,3.1l-1.6,3l-2,2.8l-2.2,2.7l-2.5,2.3l-2.9,2l-1.9,1.2l-1.1,0.5
	l-0.7-0.4l-3-1.7l-3.1-1.8l-3.1-1.7L27,86.4L26.2,85.8z"/>
<path class="st4" d="M26.2,85.8l17.4-30.1l12.2,7l0.1,1.2l-0.2,3.4l-0.5,3.4l-0.9,3.4l-1.2,3.2l-1.6,3l-1.8,2.9l-2.1,2.7l-2.5,2.5
	l-2.8,2.1l-2.9,1.8l-1.1,0.5L26.2,85.8"/>
<path class="st7" d="M11.3,46.2h35.1L46.2,60l-34.8,0.1L11.3,46.2z"/>
<path class="st0" d="M11.3,46.2l3.1,1.8l3.2,1.4l3.3,1.1l3.3,0.6l3.5,0.3l3.4-0.1l3.4-0.3l3.4-0.9l3.2-1.2l3.2-1.5l1-0.6l1.1-0.6v1
	l-0.1,3.4v3.5v4.3L46.2,60l-3,1.8L40,63.3l-3.3,1.1l-3.3,0.7L31,65.4H30h-1.2l-3.4-0.1L22,64.6l-3.3-0.9l-3.2-1.3l-3.1-1.7l-1-0.6
	l-0.1-3.5V48v-1V46.2z"/>
<path class="st4" d="M11.3,46.2h35.1L46.2,60l-3,1.8L40,63.3l-3.3,1.1l-3.3,0.7L30,65.4h-3.5L23,64.9l-3.3-0.9l-3.2-1.2l-3.2-1.5
	l-1.9-1.3L11.3,46.2"/>
<path class="st7" d="M38.3,13.4l17.4,30.3l-11.9,7L26.1,20.4L38.3,13.4z"/>
<path class="st0" d="M38.3,13.4V17l0.4,3.5l0.7,3.4l1.1,3.2l1.5,3.2l1.7,2.9l2,2.8l2.3,2.5l2.7,2.3l2.9,1.9l1,0.5l1.1,0.5l-0.7,0.4
	l-3,1.8l-3,1.7l-3,1.8l-1.5,0.9l-0.7,0.4l-1.1-0.5l-3-1.8l-2.8-2.2l-2.5-2.5L32.3,41l-1.9-2.9l-1.6-3.1l-1.2-3.2l-0.9-3.3l-0.5-3.4
	l-0.1-1.3v-1.1v-1.2v-1.3l3.1-1.7l3-1.7l3-1.7l2.3-1.4L38.3,13.4z"/>
<path class="st4" d="M38.3,13.4l17.4,30.3l-11.9,7l-3.1-1.8l-2.8-2l-2.7-2.3L32.9,42L31,39.1l-1.7-3l-1.4-3.2l-1-3.3l-0.6-3.4
	l-0.2-3.4v-2.5L38.3,13.4"/>
<path class="st7" d="M80.2,20.6L62.8,50.6l-12.2-7L68,13.4L80.2,20.6z"/>
<path class="st0" d="M80.2,20.6l-3.1,1.7l-2.8,2l-2.6,2.3l-2.2,2.6l-2,2.8l-1.6,3l-1.4,3.2l-1,3.2L63,44.8l-0.3,3.5l0.1,1.2v1.2
	L62,50.2L59,48.4l-2.2-1.3l-3.1-1.8l-3-1.7l-0.1-1.2v-1.2l0.3-3.5l0.6-3.3l1-3.3l1.4-3.2l1.6-3l2-2.8l2.2-2.6l2.5-2.3l2.9-2L67,14
	l1.1-0.5l0.7,0.5l3,1.7l3.1,1.8l2.3,1.3l2.2,1.3L80.2,20.6z"/>
<path class="st4" d="M80.2,20.6L62.8,50.6l-12.2-7l-0.1-1.2l0.2-3.5l0.5-3.4l0.9-3.3l1.2-3.2l1.6-3.1l1.8-2.8l2.1-2.7l2.5-2.5
	l2.8-2.1L67,14l1.1-0.5L80.2,20.6"/>
<path class="st7" d="M95.1,60.2L60,60.1l0.2-13.8L95,46.3L95.1,60.2z"/>
<path class="st0" d="M95.1,60.2L92,58.4l-3.2-1.5l-3.3-1l-3.3-0.6L78.7,55h-3.4l-3.4,0.4l-3.4,0.9l-3.3,1.2L62,59L61,59.5l-1,0.6
	v-0.9l0.1-3.4v-4.4v-3.4l0.1-1.7l3-1.8l3.2-1.5l3.3-1.1l3.3-0.7l3.4-0.2l1.2-0.1l1.2,0.1l3.4,0.3l3.3,0.6l3.3,1.1l3.2,1.4l3,1.8
	l0.1,3.5v8.6v0.9V60.2z"/>
<path class="st4" d="M95.1,60.2L60,60.1l0.2-13.8l3-1.8l3.2-1.5l3.3-1.1l3.3-0.7l3.4-0.2l1.2-0.1l3.4,0.2l3.4,0.6l3.3,0.9l3.2,1.3
	l3.1,1.7l1,0.6L95.1,60.2"/>
<path class="st7" d="M68.1,92.9L50.7,62.7l11.9-7L80.2,86L68.1,92.9z"/>
<path class="st0" d="M68.1,92.9v-3.5l-0.4-3.4L67,82.5l-1.1-3.3l-1.5-3.1l-1.7-2.9l-2-2.8l-2.3-2.6l-2.7-2.2l-2.9-1.9l-1-0.5
	l-1.1-0.5l0.7-0.4l3-1.8l3-1.7l3-1.8l1.5-0.9l0.7-0.4l1.1,0.5l3,1.8l2.7,2.2l2.6,2.3l2.1,2.8l1.8,2.9l1.6,3.1l1.3,3.2l0.9,3.3
	l0.5,3.4v1.3l0.1,1.1v1.2L80.2,86l-3,1.6l-3.1,1.8l-3,1.7l-2.2,1.3L68.1,92.9z"/>
<path class="st4" d="M68.1,92.9L50.7,62.7l11.9-7l3,1.7l2.9,2.1l2.6,2.3l2.2,2.6l2,2.8l1.7,3.1l1.3,3.1l1.1,3.4l0.5,3.4l0.3,3.4
	L80.2,86L68.1,92.9"/>
<circle class="st8" cx="53.2" cy="53.2" r="12.3"/>
<circle class="st9" cx="53.2" cy="53.2" r="10.6"/>
<circle class="st10" cx="53.2" cy="53.2" r="3.6"/>
<path d="M97.2,100.9h-6.3v1.9h6.3V100.9z"/>
<path d="M88.7,100.9h-6.2v1.9h6.2V100.9z"/>
<path d="M74.1,100.9h-6.2v1.9h6.2V100.9z"/>
<path d="M9.2,102.8h6.3v-1.9H9.2V102.8z"/>
<path d="M17.7,102.8h6.2v-1.9h-6.2V102.8z"/>
<path d="M32.3,102.8h6.2v-1.9h-6.2V102.8z"/>
</svg>
