<?xml version="1.0" encoding="utf-8"?>
<!-- Generator: Adobe Illustrator 23.0.0, SVG Export Plug-In . SVG Version: 6.00 Build 0)  -->
<svg version="1.1" id="图层_1" xmlns="http://www.w3.org/2000/svg" xmlns:xlink="http://www.w3.org/1999/xlink" x="0px" y="0px"
	 viewBox="0 0 106.5 106.5" style="enable-background:new 0 0 106.5 106.5;" xml:space="preserve">
<style type="text/css">
	.st0{fill:#007F00;}
	.st1{fill:#003300;}
	.st2{stroke:#000000;stroke-width:0.25;}
	.st3{fill:#000500;}
	.st4{fill:#000A00;}
	.st5{fill:#000F00;}
	.st6{fill:#001400;}
	.st7{fill:#001900;}
	.st8{fill:#001F00;}
	.st9{fill:#98CB98;}
	.st10{fill:#002400;}
	.st11{fill:#002900;}
	.st12{fill:#002E00;}
	.st13{fill:#75BA75;}
	.st14{fill:none;stroke:#FFFFFF;stroke-width:0.25;}
	.st15{fill:none;stroke:#000000;stroke-width:0.25;}
	.st16{fill:#64B264;}
	.st17{fill:#FFFFFF;}
	.st18{fill:#004300;}
	.st19{fill:#004F00;}
	.st20{fill:#006200;}
	.st21{fill:#007400;}
	.st22{fill:#108810;}
	.st23{fill:#004C00;stroke:#000000;stroke-width:0.25;}
	.st24{fill:#8EC78E;}
	.st25{fill:#84C284;}
	.st26{fill:#7ABD7A;}
	.st27{fill:#000800;}
	.st28{fill:#001200;}
	.st29{fill:#002100;}
	.st30{fill:#002B00;}
	.st31{fill:#006E00;}
	.st32{fill:#76BB76;}
</style>
<path class="st0" d="M104.6,94.1l-0.6-1H92.4l-0.4,1H104.6z"/>
<path class="st0" d="M16.5,94.1l-0.4-1H4.6l-0.6,1H16.5z"/>
<path class="st1" d="M104.6,94.1H92v8.8l0.4,0.6h11.5l0.6-0.6V94.1z"/>
<path class="st1" d="M16.5,94.1H3.9v8.8l0.6,0.6h11.5l0.4-0.6V94.1z"/>
<path class="st2" d="M84.2,11.5l-0.6-4.9l-1-2.6L82,3.6L81.6,4l-1.2,2.6l-1,4.9V7.2l1-3.2l1.2-1.1h1.1l1,1.1l1.1,3.2v4.3H84.2z"/>
<path d="M74.7,98.7l6.3-2.6l4.4-3.2l2.5-3.7V15.1l-2.5-3.5L81,8.4l-6.3-2.6L67.2,4l-8.5-1.1h-8.7L41.4,4l-7.6,1.8l-6.3,2.6l-4.4,3.2
	l-2.2,3.5v74.1l2.2,3.7l4.4,3.2l6.3,2.6l7.6,1.8l8.5,0.9h8.7l8.5-0.9L74.7,98.7z"/>
<path class="st3" d="M72.9,98.7l5.7-2.6l4.1-3.2l2.2-3.7V15.1l-2.2-3.6l-4.1-3.1l-5.7-2.6L66.1,4l-7.8-1.1h-8.1L42.5,4l-6.9,1.8
	L30,8.4l-4.1,3.1l-2,3.6v74.1l2,3.7l4.1,3.2l5.8,2.6l6.8,1.8l7.7,0.9h8.1l7.8-0.9L72.9,98.7z"/>
<path class="st4" d="M71,98.7l5.2-2.6l3.6-3.2l1.7-3.7V15.1l-1.7-3.6l-3.6-3.1l-5-2.6L64.9,4l-7-1.1h-7.2L43.8,4l-6.3,1.8l-5,2.6
	l-3.6,3.1L27,15.1v74.1l1.9,3.7l3.6,3.2l5,2.6l6.3,1.8l6.8,0.9h7.2l7-0.9L71,98.7z"/>
<path class="st5" d="M69.2,98.7l4.6-2.6l3.2-3.2l1.6-3.7V15.1l-1.8-3.6l-3-3.1l-4.6-2.6L63.8,4l-6.3-1.1h-6.4L45,4l-5.7,1.8L35,8.4
	l-3.2,3.1l-1.6,3.6v74.1l1.6,3.7l3.2,3.2l4.4,2.6l5.7,1.8l6.1,0.9h6.4l6.3-0.9L69.2,98.7z"/>
<path class="st6" d="M67.3,98.7l3.9-2.6l2.8-3.2l1.4-3.7V15.1L74,11.5l-2.8-3.1l-3.9-2.6L62.6,4L57,2.9h-5.5L46.3,4l-4.9,1.8
	l-4.1,2.6l-2.8,3.1l-1.4,3.6v74.1l1.4,3.7l2.8,3.2l4.1,2.6l4.9,1.8l5.2,0.9H57l5.5-0.9L67.3,98.7z"/>
<path class="st7" d="M65.4,98.7l3.4-2.6l2.5-3.2l1.2-3.7V15.1l-1.2-3.6l-2.5-3.1l-3.4-2.6L61.3,4l-4.6-1.1h-4.9L47.4,4l-4.3,1.8
	l-3.4,2.6l-2.5,3.1l-1.2,3.6v74.1l1.2,3.7l2.5,3.2l3.4,2.6l4.3,1.8l4.4,0.9h4.9l4.6-0.9L65.4,98.7z"/>
<path class="st8" d="M63.5,98.7l2.8-2.6l2-3.2l1.1-3.7V15.1l-1.1-3.6l-2-3.1l-2.8-2.6L60.1,4l-3.8-1.1h-4.1L48.6,4l-3.4,1.8
	l-2.8,2.6l-2,3.1l-1.1,3.6v74.1l1.1,3.7l2,3.2l2.8,2.3l3.4,2l3.6,0.9h4.1l3.8-0.9L63.5,98.7z"/>
<ellipse class="st1" cx="54.3" cy="52.1" rx="2.6" ry="49.1"/>
<path class="st9" d="M62.9,79.4l2.6-2l2.1-2.3l0.7-2.9V13.4l-1.1-2.6l-1.8-2.7l-2.6-1.9l-3.2-1.5L56.1,4h-3.8v77.6h3.8l3.6-0.9
	L62.9,79.4z"/>
<path class="st10" d="M61.5,98.7l2.2-2.6l1.6-3.2l0.7-3.7V15.1l-0.7-3.6l-1.6-3.1l-2-2.6L58.8,4l-3-1.1h-3.2l-3,1.1L47,5.8l-2.2,2.6
	l-1.6,3.1l-0.7,3.6v74.1l0.7,3.7l1.6,3.2l2.2,2.3l2.7,2l3,0.9h3.2l3-0.9L61.5,98.7z"/>
<path class="st11" d="M59.7,98.7l1.6-2.6l1.3-3.2l0.5-3.7V15.1l-0.5-3.6l-1.3-3.1l-1.6-2.6l-2-1.8l-2.2-1.1h-2.1L50.9,4l-2,1.8
	l-1.6,2.6l-1.3,3.1l-0.3,3.6v74.1l0.3,3.7l1.3,3.2l1.6,2.3l2,2l2.5,0.9h2.1l2.2-0.9L59.7,98.7z"/>
<path class="st12" d="M57.9,98.7l1-2.6l0.9-3.2l0.4-3.7V15.1l-0.4-3.6l-0.9-3.1l-1-2.6L56.5,4l-1.4-1.1h-1.5L52,4l-1.2,1.8l-1,2.6
	L49,11.5l-0.4,3.6v74.1l0.4,3.7l0.9,3.2l1,2.3l1.2,2l1.6,0.9h1.5l1.4-0.9L57.9,98.7z"/>
<path class="st9" d="M35.4,85.2h25.1V68.5H35.4V85.2z"/>
<path class="st13" d="M35.4,65.9h25.1v2.6H35.4V65.9z"/>
<path class="st14" d="M60.4,65.9H35.4v19.3"/>
<path class="st15" d="M35.4,85.2h25.1V65.9"/>
<path d="M41.8,66.6h12.5v1.2H41.8V66.6z"/>
<path class="st16" d="M37.5,80.4h21V70.2h-21V80.4z"/>
<path class="st9" d="M36.6,55.8h22.9v-7.6H36.6V55.8z"/>
<path class="st17" d="M37.5,54.9h21v-5.4h-21V54.9z"/>
<path class="st18" d="M44.7,26l1.6-1.7l0.7-1.8v-2.1l-0.7-1.8l-1.6-1.7L42.9,16h-7.5v10.7h7.5L44.7,26z"/>
<path class="st19" d="M44.7,24.9l1.6-1.2l0.7-1.6v-1.6l-0.7-1.6l-1.6-1.1l-1.8-0.7h-7.2v8.4h7.2L44.7,24.9z"/>
<path class="st20" d="M44.7,23.9l1.6-0.9l0.7-1.2v-1.2l-0.7-1.3l-1.6-0.7l-1.8-0.4h-7.2v6.2h7.2L44.7,23.9z"/>
<path class="st21" d="M44.7,23.1l1.6-0.6l0.7-0.7v-0.9l-0.7-0.7l-1.6-0.4l-1.8-0.4h-7.2v4.3h7.2L44.7,23.1z"/>
<path class="st22" d="M44.7,22.3l1.6-0.4l0.7-0.4v-0.4l-0.7-0.2l-1.6-0.3l-1.8-0.2h-7.5v2h7.5H44.7z"/>
<path class="st15" d="M42.9,26.7l1.8-0.7l1.6-1.7l0.7-1.8v-2.1l-0.7-1.8l-1.6-1.7L42.9,16h-7.5v10.7H42.9"/>
<circle class="st23" cx="36.6" cy="21.4" r="5.2"/>
<circle cx="36.6" cy="21.3" r="1"/>
<path d="M16.6,101.5H92V95H16.6V101.5z"/>
<path class="st9" d="M18.1,101.5h72.3V95H18.1V101.5z"/>
<path class="st24" d="M18.1,101.5h72.3V95l-72.3,3.8V101.5z"/>
<path class="st25" d="M18.1,101.5h72.3v-6.1l-72.3,3.8V101.5z"/>
<path class="st26" d="M18.1,101.5h72.3v-5.4l-72.3,3.6V101.5z"/>
<path d="M8.8,70h11.8V44.8H8.8V70z"/>
<path class="st27" d="M8.8,68.4h12V46.6h-12V68.4z"/>
<path class="st28" d="M8.8,66.6h12V48.5h-12V66.6z"/>
<path class="st7" d="M8.8,64.7h12V50.1h-12V64.7z"/>
<path class="st29" d="M8.8,62.8h12v-11h-12V62.8z"/>
<path class="st30" d="M8.8,61.2h12v-7.6h-12V61.2z"/>
<path class="st1" d="M8.8,59.4h11.8v-3.9H8.8V59.4z"/>
<path class="st31" d="M15,87.3h5.7v-2H15V87.3z"/>
<path class="st32" d="M15,86.6h5.7v-0.9H15V86.6z"/>
<path class="st15" d="M60.4,82H35.4"/>
<path class="st15" d="M104.6,102.9v-8.8l-0.6-1H92.4l-0.4,1v8.8l0.4,0.6h11.5L104.6,102.9"/>
<path class="st15" d="M18.3,95.3v6.3h72.1v-6.3H18.3"/>
<path class="st15" d="M16.5,102.9v-8.8l-0.4-1H4.6l-0.6,1v8.8l0.6,0.6h11.5L16.5,102.9"/>
<path class="st15" d="M15,85.2v2h5.7v-2H15"/>
<path class="st15" d="M8.8,44.8V70h11.8V44.8H8.8"/>
</svg>
