<?xml version="1.0" encoding="utf-8"?>
<!-- Generator: Adobe Illustrator 23.0.0, SVG Export Plug-In . SVG Version: 6.00 Build 0)  -->
<svg version="1.1" id="图层_1" xmlns="http://www.w3.org/2000/svg" xmlns:xlink="http://www.w3.org/1999/xlink" x="0px" y="0px"
	 viewBox="0 0 106.5 106.5" style="enable-background:new 0 0 106.5 106.5;" xml:space="preserve">
<style type="text/css">
	.st0{fill:#01FEFF;stroke:#000000;stroke-width:0.5;}
	.st1{fill:none;stroke:#000000;stroke-width:0.5;}
</style>
<path class="st0" d="M82.6,103.4H7.2l12.6-25.1l-1-0.7l-2.7-2.3l-2.6-2.7l-2.3-2.8l-1.9-3l-1.8-3.2L6,60.3l-1.2-3.5l-1-3.5l-0.5-3.6
	L3,46.1v-1.3v-2.1l0.2-2l0.6-4.2l1-4.1l1.5-3.8L8,24.9l2.1-3.5l2.5-3.2l2.7-3l3-2.7l3.2-2.5L25,8l3.6-1.7l3.8-1.5l4.1-1l4.2-0.6
	L44.8,3h58.6v41.8H86.7v2.5L86.3,51l-0.7,3.5l-1,3.5l-1.3,3.4l-1.6,3.2l-1.8,3.2l-2,2.9l-2.5,2.8L72.9,76L70,78.4L82.6,103.4z"/>
<path class="st1" d="M19.9,78.4l0.6,0.4l2.1,1.4l2.9,1.7l3,1.4l3.2,1.2l3.2,1l3.3,0.7l3.3,0.4l3.3,0.1h0.9h0.9l1.7-0.1l3.4-0.4
	l3.2-0.6l3.3-1l3.2-1.2l3-1.4l3-1.7l2.8-1.9"/>
<circle class="st1" cx="44.9" cy="44.8" r="20.9"/>
</svg>
