<?xml version="1.0" encoding="utf-8"?>
<!-- Generator: Adobe Illustrator 23.0.0, SVG Export Plug-In . SVG Version: 6.00 Build 0)  -->
<svg version="1.1" id="图层_1" xmlns="http://www.w3.org/2000/svg" xmlns:xlink="http://www.w3.org/1999/xlink" x="0px" y="0px"
	 viewBox="0 0 144.7 99.2" style="enable-background:new 0 0 144.7 99.2;" xml:space="preserve">
<style type="text/css">
	.st0{fill:#005500;}
	.st1{fill:#108810;}
	.st2{fill:#76BB76;}
	.st3{fill:#002200;stroke:#000000;stroke-width:0.25;}
	.st4{fill:#001000;}
	.st5{fill:none;stroke:#000000;stroke-width:0.25;}
	.st6{fill:#002F00;}
	.st7{fill:#969696;}
	.st8{fill:#003B00;}
	.st9{fill:#004800;}
	.st10{fill:#005D00;}
	.st11{fill:#006400;}
	.st12{fill:#006C00;}
	.st13{fill:#007100;}
	.st14{fill:#007900;}
	.st15{fill:#008000;}
	.st16{fill:#005500;stroke:#000000;stroke-width:0.25;}
	.st17{fill:#919191;}
	.st18{fill:#8C8C8C;}
	.st19{fill:#828282;}
	.st20{fill:none;stroke:#003333;stroke-width:0.25;}
	.st21{fill:#002200;}
	.st22{fill:none;stroke:#99CCCC;stroke-width:0.25;}
	.st23{fill:#C8C8C8;}
	.st24{fill:#323232;}
	.st25{fill:#FFFFFF;}
	.st26{fill:#4B4B4B;}
	.st27{fill:#282828;}
</style>
<path class="st0" d="M123.6,66.6h8.7V43.7h-8.7V66.6z"/>
<path class="st0" d="M118.1,29.4h5.5V4.1h-5.5V29.4z"/>
<path class="st1" d="M124.6,66.6h6.7V43.7h-6.7V66.6z"/>
<path class="st1" d="M118.6,29.4h4.4V4.1h-4.4V29.4z"/>
<path class="st2" d="M126,66.6h4.1V43.7H126V66.6z"/>
<path class="st2" d="M119.5,29.4h2.6V4.1h-2.6V29.4z"/>
<path class="st3" d="M100.8,95.1H26.7V32.5h74.1V95.1z"/>
<path class="st4" d="M56,80.8h25.7V63.7h13.5V48.9H56V80.8z"/>
<path class="st5" d="M123.6,43.7v22.9h8.7V43.7H123.6"/>
<path class="st5" d="M118.1,4.1v25.4h5.5V4.1H118.1"/>
<path class="st6" d="M92.4,95.1h48.3V66.6H92.4V95.1z"/>
<path class="st7" d="M38.1,55.1h34.2V9.4H38.1V55.1z"/>
<path class="st8" d="M92.4,94.3h48.3V67.2H92.4V94.3z"/>
<path class="st9" d="M92.4,93.7h48.3V68H92.4V93.7z"/>
<path class="st0" d="M92.4,92.8h48.3V68.7H92.4V92.8z"/>
<path class="st5" d="M92.4,66.6v28.6h48.3V66.6H92.4"/>
<path class="st6" d="M137.2,94.3h0.9V67.2h-0.9V94.3z"/>
<path class="st6" d="M118.1,94.3h0.6V67.2h-0.6V94.3z"/>
<path class="st6" d="M100.1,94.3h0.7V67.2h-0.7V94.3z"/>
<path class="st0" d="M100.8,94.3h17.3V60.9h-17.3V94.3z"/>
<path class="st6" d="M100.8,64.4h17.3v-3.5h-17.3V64.4z"/>
<path class="st8" d="M100.8,65h17.3v-2.8h-17.3V65z"/>
<path class="st9" d="M100.8,65h17.3v-1.3h-17.3V65z"/>
<path class="st5" d="M100.8,60.9v33.4h17.3V60.9H100.8"/>
<path class="st0" d="M114.6,95.1l-1.7-3h-7.1l-1.3,3H114.6z"/>
<path class="st2" d="M113.4,92.8l-0.6-0.7h-7.1l-0.3,0.7H113.4z"/>
<path class="st5" d="M104.4,95.1h10.2l-1.7-3h-7.1L104.4,95.1"/>
<path class="st0" d="M100.8,15.2h17.3v14.2h8.6v3h5.7v11.2h-5.7v3h-8.6v14.2h-17.3V15.2z"/>
<path class="st10" d="M100.8,17.7h17.3v12.6h8.6v2.6h5.7v10.2h-5.7v2.5h-8.6v12.9h-17.3V17.7z"/>
<path class="st11" d="M100.8,20.2h17.3v11.2h8.6v2.2h5.7v9h-5.7v2.2h-8.6V56h-17.3V20.2z"/>
<path class="st12" d="M100.8,22.6h17.3v9.6h8.6v1.9h5.7v8h-5.7v1.9h-8.6v9.6h-17.3V22.6z"/>
<path class="st13" d="M100.8,25.1h17.3v8.1h8.6V35h5.7v6.2h-5.7v1.6h-8.6v8.3h-17.3V25.1z"/>
<path class="st14" d="M100.8,27.6h17.3v6.5h8.6v1.5h5.7v5.1h-5.7v1.5h-8.6v6.5h-17.3V27.6z"/>
<path class="st15" d="M100.8,30h17.3V35h8.6v1h5.7v4.2h-5.7v1h-8.6v4.9h-17.3V30z"/>
<path class="st1" d="M100.8,32.5h17.3V36h8.6v0.6h5.7v3h-5.7v0.6h-8.6v3.5h-17.3V32.5z"/>
<path class="st5" d="M100.8,60.9V15.2h17.3v14.2h8.6v3h5.7v11.2h-5.7v3h-8.6v14.2H100.8"/>
<path class="st5" d="M118.1,29.4v17.3"/>
<path class="st5" d="M126.6,43.7V32.5"/>
<path class="st16" d="M23.9,55.1h11.6V29.4H23.9V55.1z"/>
<path class="st16" d="M4.1,95.1h45.5V66.6H4.1V95.1z"/>
<path class="st16" d="M60.9,95.1h31.5V77.9H60.9V95.1z"/>
<path class="st16" d="M66.6,77.9h11.6v-17H66.6V77.9z"/>
<path class="st17" d="M38.1,55.1h34.2V16.2L38.1,41.8V55.1z"/>
<path class="st18" d="M38.1,55.1h34.2V19.9L38.1,45.5V55.1z"/>
<path class="st19" d="M38.1,55.1h34.2V23.9L38.1,49.5V55.1z"/>
<path class="st5" d="M38.1,9.4v45.7h34.2V9.4H38.1"/>
<path class="st20" d="M115,60.9V15.2"/>
<path class="st21" d="M68,76.4h1.6v-1.3H68V76.4z"/>
<path class="st21" d="M75.1,76.4h1.6v-1.3h-1.6V76.4z"/>
<path class="st21" d="M75.1,63.7h1.6v-1.5h-1.6V63.7z"/>
<path class="st21" d="M68,63.7h1.3v-1.5H68V63.7z"/>
<path class="st21" d="M68,70.2h1.3v-1.6H68V70.2z"/>
<path class="st21" d="M75.1,70.2h1.6v-1.6h-1.6V70.2z"/>
<path class="st21" d="M25.4,53.8h1.3v-1.5h-1.3V53.8z"/>
<path class="st21" d="M32.5,53.8h1.3v-1.5h-1.3V53.8z"/>
<path class="st21" d="M25.4,46.7h1.3v-1.5h-1.3V46.7z"/>
<path class="st21" d="M32.5,46.7h1.3v-1.5h-1.3V46.7z"/>
<path class="st21" d="M25.4,39.6h1.3v-1.7h-1.3V39.6z"/>
<path class="st21" d="M32.5,39.6h1.3v-1.7h-1.3V39.6z"/>
<path class="st21" d="M25.4,32.5h1.3V31h-1.3V32.5z"/>
<path class="st21" d="M32.5,32.5h1.3V31h-1.3V32.5z"/>
<path class="st0" d="M10.3,86.6v8.6h50.6v-8.6H10.3z"/>
<path class="st1" d="M10.3,87.5v6.8h50.6v-6.8H10.3z"/>
<path class="st2" d="M10.3,88.8v4.1h50.6v-4.1H10.3z"/>
<path class="st5" d="M60.9,86.6H10.3v8.6h50.6V86.6"/>
<path class="st1" d="M4.8,72.4h44.1v-0.7H4.8V72.4z"/>
<path class="st21" d="M4.8,73h44.1v-0.6H4.8V73z"/>
<path class="st8" d="M6.7,77.9h20V73h-20V77.9z"/>
<path class="st4" d="M26.7,83.5h11.5v-8.4h10.7V73H26.7V83.5z"/>
<path class="st22" d="M26.7,77.9h-20"/>
<path class="st23" d="M46.7,29.4H64v-8.6H46.7V29.4z"/>
<path class="st24" d="M48,23.6h7.1v-1.3H48V23.6z"/>
<path class="st25" d="M48,28.9h3.6v-4.4H48V28.9z"/>
<path class="st26" d="M48.9,28.1h2.2v-2.8h-2.2V28.1z"/>
<path class="st26" d="M57.3,28.9h3v-4.4h-3V28.9z"/>
<path class="st7" d="M60.9,28.9h1.3v-4.4h-1.3V28.9z"/>
<path class="st27" d="M60.9,28.1h1.3v-0.6h-1.3V28.1z"/>
<path class="st25" d="M48,16.5h14.2v-2.8H48V16.5z"/>
<path class="st8" d="M64,83.5h25.4v-2.8H64V83.5z"/>
</svg>
