<?xml version="1.0" encoding="utf-8"?>
<!-- Generator: Adobe Illustrator 23.0.0, SVG Export Plug-In . SVG Version: 6.00 Build 0)  -->
<svg version="1.1" id="图层_1" xmlns="http://www.w3.org/2000/svg" xmlns:xlink="http://www.w3.org/1999/xlink" x="0px" y="0px"
	 viewBox="0 0 106.5 106.5" style="enable-background:new 0 0 106.5 106.5;" xml:space="preserve">
<style type="text/css">
	.st0{fill:#343542;stroke:#000000;stroke-width:0.25;}
	.st1{fill:#676E82;stroke:#000000;stroke-width:0.25;}
	.st2{fill:#132337;stroke:#000000;stroke-width:0.25;}
	.st3{fill:#E3E5D8;stroke:#000000;stroke-width:0.25;}
	.st4{fill:#CCCCBF;}
	.st5{fill:#353230;stroke:#000000;stroke-width:0.25;}
	.st6{fill:#CCCCBF;stroke:#000000;stroke-width:0.25;}
	.st7{fill:#323115;}
	.st8{fill:#4A4B10;}
	.st9{fill:#2E2F00;}
	.st10{fill:#000100;}
</style>
<path class="st0" d="M95.5,76.2v-23H47.5v25.2h42.3L95.5,76.2z"/>
<path class="st1" d="M96.6,75.1l2.9-1.7l1.8-2.9l0.5-3.1l-0.5-3.2l-1.8-2.9L64.6,32.7l-8-5.1L48,26l-8.6,1.6l-7.8,4.9l-5,7.9L25,49
	l1.6,8.6l5,7.8l7.8,4.9l8.6,1.7l45.2,3.6L96.6,75.1z"/>
<circle class="st2" cx="93.5" cy="67.3" r="6.7"/>
<path class="st3" d="M89.3,54.3v1.1l-0.1,1.1l-0.3,3.2l-0.6,3.1l-0.7,3l-1.1,2.9l-1.3,2.8L83.7,74l-1.6,2.6L80.3,79l-1.9,2.3l-2,1.9
	v0.2l6.7,5.3l2,12.5H9.7l2.1-12.5l6.7-5.3l-1.4-1.4l-2-2.3l-1.8-2.3l-1.7-2.6l-1.5-2.7l-1.3-2.7l-1.1-2.9l-0.9-3l-0.7-3.1l-0.4-3.1
	l-0.2-3.2v-1.1l0.1-2.1l0.1-2.1l0.6-4.2l1.1-4.1l1.4-3.8l1.7-3.6l2.1-3.4l2.5-3.3l2.7-2.9l3-2.8l3.2-2.3l3.5-2.1l3.6-1.8l3.8-1.4
	l4.1-1.1l4.2-0.6l4.3-0.2V5h41.8v48.2V54.3z"/>
<path class="st4" d="M88.7,5H48l0.1,6.3l3.7,0.3l3.6,0.5L59,13l3.5,1.1l3.3,1.5l3.1,1.7l3,1.9l2.8,2.2l2.7,2.5l2.3,2.6l2.2,2.9
	l1.9,3l1.6,3.2l1.4,3.3l1.2,3.5l0.7,3.6V5z"/>
<path class="st3" d="M39,5h58.6V3H39V5z"/>
<path class="st3" d="M5.6,103.4h83.7v-2H5.6V103.4z"/>
<path class="st3" d="M1.4,50h92.1v-3.1H1.4V50z"/>
<path class="st5" d="M1.4,50h92.1v1.1H1.4V50z"/>
<circle class="st6" cx="47.5" cy="48.9" r="35.5"/>
<path class="st7" d="M20.4,67.1l56.3-32.4l-2.1-3.8L18.3,63.4L20.4,67.1z"/>
<path class="st7" d="M33.1,78.3L65.6,22l-3.7-2.2L29.3,76L33.1,78.3z"/>
<path class="st7" d="M49.6,81.4v-65h-4.3v65H49.6z"/>
<path class="st7" d="M65.6,76L33.1,19.7L29.3,22l32.5,56.2L65.6,76z"/>
<path class="st7" d="M76.7,63.3L20.4,30.8l-2.1,3.7l56.2,32.5L76.7,63.3z"/>
<path class="st7" d="M15,51.2h65v-4.4H15V51.2z"/>
<circle class="st8" cx="47.5" cy="49" r="29.9"/>
<circle class="st9" cx="47.5" cy="49" r="22"/>
<path class="st10" d="M34.4,54.4l3,4.8l4.8,3l5.3,1l5.3-1l4.8-3l3-4.8l1-5.3l-1-5.3l-3-4.8l-4.8-3l-5.3-1.1l-5.3,1.1l-4.8,3l-3,4.8
	L33.3,49L34.4,54.4z"/>
<path class="st4" d="M75.5,84.2l-2.3,1.9l-2.3,1.7l-2.6,1.6l-2.6,1.4L62.9,92l-2.8,1.1l-2.9,0.7l-2.9,0.6l-3,0.4l-3,0.2l-3-0.1
	l-3-0.2l-2.9-0.5l-2.9-0.6l-2.9-0.9L31,91.7l-2.7-1.3l-2.7-1.5l-2.5-1.6l-2.3-1.8l-2.2-1.9l-2.6,2l0.7,0.7l0.9,0.6l2.5,2l2.7,1.8
	l2.9,1.7l2.9,1.5l3,1.2l3,1.1l3.2,0.9l3.2,0.6l3.2,0.3l3.3,0.1h1.1h1.1l3.3-0.3l3.1-0.5l3.2-0.7l3.1-1l3.1-1.2l2.9-1.4l2.9-1.6
	l2.7-1.8l2.6-1.9l2.5-2.1l-2.6-2L75.5,84.2z"/>
</svg>
