<?xml version="1.0" encoding="utf-8"?>
<!-- Generator: Adobe Illustrator 23.0.0, SVG Export Plug-In . SVG Version: 6.00 Build 0)  -->
<svg version="1.1" id="图层_1" xmlns="http://www.w3.org/2000/svg" xmlns:xlink="http://www.w3.org/1999/xlink" x="0px" y="0px"
	 viewBox="0 0 128.6 106.5" style="enable-background:new 0 0 128.6 106.5;" xml:space="preserve">
<style type="text/css">
	.st0{fill:#8BA3BE;stroke:#000000;stroke-width:0.5;}
	.st1{fill:none;stroke:#000000;stroke-width:0.5;}
</style>
<path class="st0" d="M124.4,53.2V3.6l-71.7,0h-2.6l-4.9,0.5l-4.9,1l-4.6,1.4l-4.5,1.9l-4.2,2.2L23,13.4l-3.7,3.1L16,19.8l-3.1,3.7
	l-2.7,4L8,31.7L6,36.2l-1.4,4.6l-1,4.9l-0.5,4.9v2.6v2.6l0.5,5l1,4.9L6,70.3L8,74.7l2.2,4.2l2.7,4l3.1,3.6l3.3,3.5l3.7,3l3.9,2.7
	l4.2,2.3l4.5,1.9l4.6,1.4l4.9,1l4.9,0.5h2.6h2.6l2.6-0.3l4.9-0.8l4.8-1.3l4.5-1.7l4.4-2.1l4.1-2.4l3.7-2.8l3.6-3.2l3.2-3.6l2.8-3.7
	l2.4-4.1l2.1-4.4l1.7-4.5l1.3-4.8l0.8-4.9l0.3-5.2H124.4z"/>
<circle class="st1" cx="52.8" cy="53.2" r="27.6"/>
</svg>
