<?xml version="1.0" encoding="utf-8"?>
<!-- Generator: Adobe Illustrator 23.0.0, SVG Export Plug-In . SVG Version: 6.00 Build 0)  -->
<svg version="1.1" id="图层_1" xmlns="http://www.w3.org/2000/svg" xmlns:xlink="http://www.w3.org/1999/xlink" x="0px" y="0px"
	 viewBox="0 0 115.6 106.5" style="enable-background:new 0 0 115.6 106.5;" xml:space="preserve">
<style type="text/css">
	.st0{fill:#ABABAB;stroke:#000000;stroke-width:0.25;}
	.st1{fill:none;stroke:#000000;stroke-width:0.25;}
	.st2{fill:none;stroke:#FFFFFF;stroke-width:0.25;}
	.st3{fill:#858585;stroke:#000000;stroke-width:0.25;}
	.st4{fill:#CBCBCB;stroke:#000000;stroke-width:0.25;}
	.st5{fill:#8C8C8C;stroke:#000000;stroke-width:0.25;}
	.st6{fill:#505050;}
	.st7{fill:#B4B4B4;stroke:#000000;stroke-width:0.25;}
	.st8{fill:#808080;}
	.st9{fill:none;stroke:#7F7F7F;stroke-width:0.25;}
	.st10{fill:#E6E6E6;}
</style>
<path class="st0" d="M3.7,103.3h90.9v-91H3.7V103.3z"/>
<path class="st1" d="M90.1,16.9H8.2v81.7"/>
<path class="st2" d="M8.2,98.6h81.8V16.9"/>
<path class="st1" d="M10.5,96.4h77.2V19.1"/>
<path class="st2" d="M87.8,19.1H10.5v77.3"/>
<path class="st3" d="M94.6,103.3l18.2-9.1V3.2l-18.2,9V103.3z"/>
<path class="st4" d="M3.7,12.3l18.2-9h90.9l-18.2,9H3.7z"/>
<circle class="st5" cx="49.2" cy="57.8" r="27.2"/>
<circle class="st6" cx="49.2" cy="57.8" r="15.9"/>
<path class="st7" d="M49.2,64.6l4.9-2.1l2-4.7l-2-4.9l-4.9-2l-4.9,2l-2,4.9l2,4.7L49.2,64.6z"/>
<path class="st8" d="M49.2,62.3l3.2-1.3l1.3-3.2l-1.3-3.2l-3.2-1.4L46,54.5l-1.4,3.2L46,61L49.2,62.3z"/>
<path class="st2" d="M72.5,34.5l-1.3-1.2l-2.4-2l-2.7-1.9L63.2,28l-3-1.3l-3-0.9L54,25.2l-3.2-0.3l-1.6-0.1l-1.6,0.1l-3.4,0.3
	l-3.2,0.6l-3,1l-3,1.3l-2.8,1.5l-2.5,1.7L27,33.5l-2.2,2.2l-2.1,2.4L21,40.7l-1.5,2.8l-1.3,2.9l-0.9,3.1l-0.7,3.2L16.2,56v1.7v1.6
	l0.1,1.6l0.5,3.2l0.8,3.1l1.2,3l1.4,2.9l1.6,2.8l2,2.7l2.1,2.3"/>
<path class="st9" d="M25.8,81l1.2,1.2l2.5,2l2.7,1.9l2.9,1.5l3,1.3l3,0.9l3.2,0.6l3.2,0.3l1.5,0.1l1.7-0.1l3.4-0.3l3.1-0.6l3.1-1
	l3-1.3l2.8-1.5l2.5-1.7l2.5-2.1l2.2-2.2l2.1-2.4l1.7-2.7l1.5-2.8l1.3-2.9L81,66l0.7-3.2l0.3-3.2v-1.7v-1.6L82,54.5l-0.6-3.2
	l-0.7-3.1l-1.2-3l-1.4-2.9l-1.6-2.8l-2-2.7l-2.1-2.3"/>
<path class="st1" d="M8.2,98.6l-4.5,4.6"/>
<path class="st1" d="M94.6,103.3l-4.5-4.6"/>
<path class="st1" d="M94.6,12.3l-4.5,4.6"/>
<path class="st1" d="M3.7,12.3l4.5,4.6"/>
<path class="st10" d="M20.7,57.9l-0.5-1.3L18.9,56l-1.3,0.6L17,57.9l0.6,1.4l1.3,0.5l1.4-0.5L20.7,57.9z"/>
<path class="st10" d="M28.9,37.7l0.6-1.3l-0.6-1.3l-1.3-0.6l-1.4,0.6l-0.5,1.3l0.5,1.4l1.4,0.5L28.9,37.7z"/>
<path class="st10" d="M49.1,29.4l1.3-0.6l0.5-1.3l-0.5-1.4l-1.3-0.5l-1.4,0.5l-0.6,1.4l0.6,1.3L49.1,29.4z"/>
<path class="st10" d="M69.1,37.6l1.3,0.5l1.4-0.5l0.5-1.4L71.8,35l-1.4-0.6L69.1,35l-0.5,1.3L69.1,37.6z"/>
<path class="st10" d="M77.6,57.7l0.5,1.3l1.4,0.6l1.3-0.6l0.6-1.3l-0.6-1.4l-1.3-0.5L78,56.3L77.6,57.7z"/>
<path class="st10" d="M69.3,77.8l-0.6,1.3l0.6,1.3l1.3,0.6l1.3-0.6l0.6-1.3l-0.6-1.4l-1.3-0.5L69.3,77.8z"/>
<path class="st10" d="M49.3,86.1l-1.4,0.6L47.5,88l0.5,1.4l1.4,0.5l1.3-0.5l0.6-1.4l-0.6-1.3L49.3,86.1z"/>
<path class="st10" d="M29.2,77.9l-1.3-0.5l-1.4,0.5l-0.6,1.4l0.6,1.3l1.4,0.6l1.3-0.6l0.6-1.3L29.2,77.9z"/>
</svg>
