<?xml version="1.0" encoding="utf-8"?>
<!-- Generator: Adobe Illustrator 23.0.0, SVG Export Plug-In . SVG Version: 6.00 Build 0)  -->
<svg version="1.1" id="图层_1" xmlns="http://www.w3.org/2000/svg" xmlns:xlink="http://www.w3.org/1999/xlink" x="0px" y="0px"
	 viewBox="0 0 144.7 89.6" style="enable-background:new 0 0 144.7 89.6;" xml:space="preserve">
<style type="text/css">
	.st0{fill:#E4B34E;stroke:#000000;stroke-width:0.5;}
	.st1{fill:none;stroke:#000000;stroke-width:0.5;}
</style>
<path class="st0" d="M13.6,75.1l2.8,2.5h8v8h13.1v-8h42.2l2.5-5.2h39.6v10.4h8V72.4h7.5l2.8-2.8V17.1l-2.8-2.8H82.1l-2.5-5.1h-5.2
	V4.1H21.6v5.2h-5.2l-2.8,2.6v21l-2.9,0.9l-4.9,4.6L4,41.8l-0.7,3.8v3.9L4,52.9l1.7,3.3l4.9,4.6l2.9,0.7V75.1z"/>
<path class="st1" d="M13.6,61.6V32.9"/>
<path class="st1" d="M74.4,9.3v26.1H21.6V9.3"/>
</svg>
