<?xml version="1.0" encoding="utf-8"?>
<!-- Generator: Adobe Illustrator 23.0.0, SVG Export Plug-In . SVG Version: 6.00 Build 0)  -->
<svg version="1.1" id="图层_1" xmlns="http://www.w3.org/2000/svg" xmlns:xlink="http://www.w3.org/1999/xlink" x="0px" y="0px"
	 viewBox="0 0 98.5 106.5" style="enable-background:new 0 0 98.5 106.5;" xml:space="preserve">
<style type="text/css">
	.st0{fill:#4B5D5A;stroke:#000000;stroke-width:0.25;}
	.st1{fill:#CFFEFF;stroke:#000000;stroke-width:0.25;}
	.st2{fill:#679E99;stroke:#000000;stroke-width:0.25;}
	.st3{fill:#ACC4C8;stroke:#000000;stroke-width:0.25;}
	.st4{fill:none;stroke:#000000;stroke-width:0.25;}
</style>
<path class="st0" d="M26.1,96.7H77V75.8H26.1V96.7z"/>
<path class="st1" d="M75.7,79.4l7.3-7.3l5.2-9.1l2.7-9.8l0.1-48.1H56.8v3.6H46.4l-10,2.7l-9.1,5.2l-7.3,7.3L14.9,33l-2.7,9.8v10.5
	l2.7,9.8l5.1,9.1l7.5,7.3l8.9,5.2l10,2.7h10.4l9.8-2.7L75.7,79.4z"/>
<path class="st2" d="M67.8,96.6V54.9l2.2-2.2v44H67.8z"/>
<path class="st2" d="M35.4,96.6V54.9L33,52.6v44H35.4z"/>
<path class="st2" d="M35.4,54.9h32.3l2.2-2.2H33L35.4,54.9z"/>
<path class="st2" d="M60.8,96.6l-6.9-14h-4.6l-7,14H60.8z"/>
<path class="st3" d="M58.5,57.3l2.3-2.2l1.5-2.6l0.9-2.9v-3l-0.9-3.1L60.8,41l-2.3-2.2l-2.6-1.4l-2.8-0.7H50l-3,0.7l-2.6,1.4
	L42.3,41l-1.4,2.6L40,46.6v3l0.9,2.9l1.4,2.6l2.2,2.2l2.6,1.6l3,0.5h3.1l2.8-0.5L58.5,57.3z"/>
<circle class="st3" cx="51.5" cy="82.7" r="9.3"/>
<path class="st3" d="M55.5,5.1h36.1V3H55.5V5.1z"/>
<path class="st3" d="M5.2,103.5h92.5v-6.9H5.2V103.5z"/>
<circle class="st4" cx="51.5" cy="48" r="0.5"/>
<circle class="st4" cx="51.6" cy="82.7" r="2.2"/>
</svg>
