<?xml version="1.0" encoding="utf-8"?>
<!-- Generator: Adobe Illustrator 23.0.0, SVG Export Plug-In . SVG Version: 6.00 Build 0)  -->
<svg version="1.1" id="图层_1" xmlns="http://www.w3.org/2000/svg" xmlns:xlink="http://www.w3.org/1999/xlink" x="0px" y="0px"
	 viewBox="0 0 117.2 106.5" style="enable-background:new 0 0 117.2 106.5;" xml:space="preserve">
<style type="text/css">
	.st0{fill:#323232;}
	.st1{fill:url(#SVGID_1_);stroke:#000000;stroke-width:0.5;}
	.st2{fill:url(#SVGID_2_);}
	.st3{fill:url(#SVGID_3_);}
	.st4{fill:none;stroke:#000000;stroke-width:0.5;}
	.st5{fill:#9ECE9E;}
	.st6{fill:url(#SVGID_4_);stroke:#000000;stroke-width:0.5;}
	.st7{fill:#646464;stroke:#000000;stroke-width:0.5;}
	.st8{fill:none;stroke:#666666;stroke-width:0.5;}
	.st9{fill:#4C4C4C;}
	.st10{fill:#7D7D7D;stroke:#000000;stroke-width:0.5;}
	.st11{fill:url(#SVGID_5_);stroke:#000000;stroke-width:0.5;}
</style>
<path class="st0" d="M95.4,79.5v23.7H13.2V79.5H95.4z"/>
<linearGradient id="SVGID_1_" gradientUnits="userSpaceOnUse" x1="13.8" y1="97.9" x2="13.8" y2="11.1">
	<stop  offset="0" style="stop-color:#000000"/>
	<stop  offset="4.067921e-02" style="stop-color:#1A1A1A"/>
	<stop  offset="0.1759" style="stop-color:#6A6A6A"/>
	<stop  offset="0.296" style="stop-color:#AAAAAA"/>
	<stop  offset="0.3965" style="stop-color:#D8D8D8"/>
	<stop  offset="0.4736" style="stop-color:#F4F4F4"/>
	<stop  offset="0.518" style="stop-color:#FFFFFF"/>
	<stop  offset="0.56" style="stop-color:#F8F8F8"/>
	<stop  offset="0.6225" style="stop-color:#E3E3E3"/>
	<stop  offset="0.6979" style="stop-color:#C2C2C2"/>
	<stop  offset="0.7832" style="stop-color:#949494"/>
	<stop  offset="0.877" style="stop-color:#595959"/>
	<stop  offset="0.9764" style="stop-color:#121212"/>
	<stop  offset="1" style="stop-color:#000000"/>
</linearGradient>
<path class="st1" d="M24.3,11.1v86.8h-21V11.1H24.3z"/>
<linearGradient id="SVGID_2_" gradientUnits="userSpaceOnUse" x1="69.05" y1="82.2" x2="69.05" y2="26.9">
	<stop  offset="0" style="stop-color:#000000"/>
	<stop  offset="4.067921e-02" style="stop-color:#1A1A1A"/>
	<stop  offset="0.1759" style="stop-color:#6A6A6A"/>
	<stop  offset="0.296" style="stop-color:#AAAAAA"/>
	<stop  offset="0.3965" style="stop-color:#D8D8D8"/>
	<stop  offset="0.4736" style="stop-color:#F4F4F4"/>
	<stop  offset="0.518" style="stop-color:#FFFFFF"/>
	<stop  offset="0.56" style="stop-color:#F8F8F8"/>
	<stop  offset="0.6225" style="stop-color:#E3E3E3"/>
	<stop  offset="0.6979" style="stop-color:#C2C2C2"/>
	<stop  offset="0.7832" style="stop-color:#949494"/>
	<stop  offset="0.877" style="stop-color:#595959"/>
	<stop  offset="0.9764" style="stop-color:#121212"/>
	<stop  offset="1" style="stop-color:#000000"/>
</linearGradient>
<path class="st2" d="M24.3,79.5h68.5v2.7h21V26.9h-21v2.7H24.3V79.5z"/>
<linearGradient id="SVGID_3_" gradientUnits="userSpaceOnUse" x1="98.05" y1="100.6" x2="98.05" y2="87.5">
	<stop  offset="0" style="stop-color:#000000"/>
	<stop  offset="0.518" style="stop-color:#FFFFFF"/>
	<stop  offset="1" style="stop-color:#000000"/>
</linearGradient>
<path class="st3" d="M100.7,87.5v13.1h-5.3V87.5H100.7z"/>
<path class="st4" d="M95.4,87.5h5.3v13.1h-5.3V87.5"/>
<path class="st5" d="M63.9,95.4v7.9H29.6v-7.9H63.9z"/>
<linearGradient id="SVGID_4_" gradientUnits="userSpaceOnUse" x1="62.5" y1="103.2" x2="62.5" y2="84.8">
	<stop  offset="0" style="stop-color:#000000"/>
	<stop  offset="1.447406e-02" style="stop-color:#0C0C0C"/>
	<stop  offset="9.681626e-02" style="stop-color:#4B4B4B"/>
	<stop  offset="0.1782" style="stop-color:#828282"/>
	<stop  offset="0.2565" style="stop-color:#AFAFAF"/>
	<stop  offset="0.3313" style="stop-color:#D2D2D2"/>
	<stop  offset="0.4017" style="stop-color:#EBEBEB"/>
	<stop  offset="0.4658" style="stop-color:#FAFAFA"/>
	<stop  offset="0.518" style="stop-color:#FFFFFF"/>
	<stop  offset="0.5728" style="stop-color:#FBFBFB"/>
	<stop  offset="0.6327" style="stop-color:#EDEDED"/>
	<stop  offset="0.6949" style="stop-color:#D8D8D8"/>
	<stop  offset="0.7589" style="stop-color:#B9B9B9"/>
	<stop  offset="0.8241" style="stop-color:#929292"/>
	<stop  offset="0.8903" style="stop-color:#616161"/>
	<stop  offset="0.9562" style="stop-color:#292929"/>
	<stop  offset="1" style="stop-color:#000000"/>
</linearGradient>
<path class="st6" d="M29.6,84.8h65.8v18.4H29.6V84.8"/>
<path class="st7" d="M65.2,100.6v2.6H28.3v-2.6H65.2z"/>
<path class="st8" d="M34.9,38.8v25"/>
<path class="st9" d="M24.3,52.5v4h-21v-4H24.3z"/>
<path class="st9" d="M24.3,42.1V46h-21v-3.9H24.3z"/>
<path class="st9" d="M24.3,63.1v4h-21v-4H24.3z"/>
<path class="st9" d="M24.3,21v4h-21v-4H24.3z"/>
<path class="st9" d="M24.3,84.2v3.9h-21v-3.9H24.3z"/>
<path class="st9" d="M24.3,31.6v4h-21v-4C3.3,31.6,24.3,31.6,24.3,31.6z"/>
<path class="st9" d="M24.3,73.7v4h-21v-4H24.3z"/>
<path class="st10" d="M24.3,3.3h2V17h-2V3.3z"/>
<path class="st10" d="M26.3,12.4h2v4h-2V12.4z"/>
<path class="st4" d="M34.9,63.8v15.7"/>
<path class="st4" d="M92.8,29.6v50"/>
<path class="st4" d="M24.3,29.6v50h68.5v2.7h21V26.9h-21v2.7H24.3"/>
<path class="st4" d="M3.3,11.1h21v86.8h-21L3.3,11.1"/>
<linearGradient id="SVGID_5_" gradientUnits="userSpaceOnUse" x1="13.8" y1="100.6" x2="13.8" y2="8.4">
	<stop  offset="0" style="stop-color:#000000"/>
	<stop  offset="4.067921e-02" style="stop-color:#1A1A1A"/>
	<stop  offset="0.1759" style="stop-color:#6A6A6A"/>
	<stop  offset="0.296" style="stop-color:#AAAAAA"/>
	<stop  offset="0.3965" style="stop-color:#D8D8D8"/>
	<stop  offset="0.4736" style="stop-color:#F4F4F4"/>
	<stop  offset="0.518" style="stop-color:#FFFFFF"/>
	<stop  offset="0.56" style="stop-color:#F8F8F8"/>
	<stop  offset="0.6225" style="stop-color:#E3E3E3"/>
	<stop  offset="0.6979" style="stop-color:#C2C2C2"/>
	<stop  offset="0.7832" style="stop-color:#949494"/>
	<stop  offset="0.877" style="stop-color:#595959"/>
	<stop  offset="0.9764" style="stop-color:#121212"/>
	<stop  offset="1" style="stop-color:#000000"/>
</linearGradient>
<path class="st11" d="M11.8,8.4h4v92.2h-4V8.4"/>
</svg>
