<?xml version="1.0" encoding="utf-8"?>
<!-- Generator: Adobe Illustrator 23.0.0, SVG Export Plug-In . SVG Version: 6.00 Build 0)  -->
<svg version="1.1" id="图层_1" xmlns="http://www.w3.org/2000/svg" xmlns:xlink="http://www.w3.org/1999/xlink" x="0px" y="0px"
	 viewBox="0 0 144.7 79.4" style="enable-background:new 0 0 144.7 79.4;" xml:space="preserve">
<style type="text/css">
	.st0{fill:url(#SVGID_1_);}
	.st1{fill:none;stroke:#000000;stroke-width:0.25;}
	.st2{fill:#8C8C8C;stroke:#000000;stroke-width:0.25;}
	.st3{fill:#C8C8C8;stroke:#000000;stroke-width:0.25;}
	.st4{fill:#373737;}
	.st5{fill:#AAAAAA;stroke:#000000;stroke-width:0.25;}
	.st6{fill:none;stroke:#FFFFFF;stroke-width:0.25;}
	.st7{fill:#787878;stroke:#000000;stroke-width:0.25;}
	.st8{fill:#787878;}
	.st9{fill:#464646;}
</style>
<linearGradient id="SVGID_1_" gradientUnits="userSpaceOnUse" x1="72.302" y1="63.0286" x2="72.302" y2="7.0998">
	<stop  offset="1.243208e-02" style="stop-color:#000000"/>
	<stop  offset="0.1072" style="stop-color:#333333"/>
	<stop  offset="0.3842" style="stop-color:#C5C5C5"/>
	<stop  offset="0.5051" style="stop-color:#FFFFFF"/>
	<stop  offset="0.5546" style="stop-color:#EEEEEE"/>
	<stop  offset="0.6529" style="stop-color:#C1C1C1"/>
	<stop  offset="0.7907" style="stop-color:#797979"/>
	<stop  offset="0.9613" style="stop-color:#171717"/>
	<stop  offset="1" style="stop-color:#000000"/>
</linearGradient>
<path class="st0" d="M109.5,63h18.7V50.6h12.3v-31h-12.3V7.1h-18.7v12.5H35.1V7.1H16.4v12.5H4.1v31h12.3V63h18.7V50.6h74.5V63z"/>
<path class="st1" d="M109.5,63h18.7V50.6h12.3v-31h-12.3V7.1h-18.7v12.5H35.1V7.1H16.4v12.5H4.1v31h12.3V63h18.7V50.6h74.5V63"/>
<path class="st1" d="M128.2,50.6v-31"/>
<path class="st1" d="M16.4,50.6v-31"/>
<path class="st2" d="M109.5,13.2H35.1v43.6h74.5V13.2z"/>
<path class="st3" d="M109.5,16.4H35.1v37.2h74.5V16.4z"/>
<path class="st4" d="M103.3,56.8L91,66.1H53.6l-12.3-9.3H103.3z"/>
<path class="st5" d="M41.3,13.3l12.3-9.3H91l12.3,9.3H41.3z"/>
<path class="st6" d="M94,13.3l-6.2-6.2h-31"/>
<path class="st7" d="M56.8,75.3v-3h-3.2V56.8h-6.1v15.5h-3.2v3H56.8z"/>
<path class="st7" d="M100.3,75.3v-3h-3.2V56.8H91v15.5h-3.2v3H100.3z"/>
<path class="st8" d="M109.5,16.4H35.1v3.2h74.5V16.4z"/>
<path class="st9" d="M103.3,16.4h-6.2v37.2h6.2V16.4z"/>
<path class="st9" d="M94,16.4h-6.2v37.2H94V16.4z"/>
<path class="st9" d="M84.8,16.4h-6.2v37.2h6.2V16.4z"/>
<path class="st9" d="M75.3,16.4h-6.2v37.2h6.2V16.4z"/>
<path class="st9" d="M66.1,16.4h-6.2v37.2h6.2V16.4z"/>
<path class="st9" d="M56.8,16.4h-6.2v37.2h6.2V16.4z"/>
<path class="st9" d="M47.5,16.4h-6.2v37.2h6.2V16.4z"/>
</svg>
