<svg xmlns="http://www.w3.org/2000/svg" xmlns:xlink="http://www.w3.org/1999/xlink" viewBox="0 0 150 92.08">
    <defs>
        <style>
            .cls-1 {
                fill: url(#未命名的渐变_33);
            }

            .cls-2 {
                fill: #dcdcdd;
            }

            .cls-3 {
                fill: #b9b9b9;
            }

            .cls-4 {
                fill: #7f7f7f;
            }

            .cls-5 {
                fill: url(#未命名的渐变_33-2);
            }

            .cls-6 {
                fill: url(#未命名的渐变_3);
            }

            .cls-7 {
                fill: url(#未命名的渐变_105);
            }

            .cls-8 {
                fill: url(#未命名的渐变_3-2);
            }

            .cls-9 {
                fill: url(#未命名的渐变_3-3);
            }

            .cls-10 {
                fill: url(#未命名的渐变_3-4);
            }

            .cls-11 {
                fill: url(#未命名的渐变_3-5);
            }

            .cls-12 {
                fill: url(#未命名的渐变_48);
            }

            .cls-13 {
                opacity: 0.2;
            }
        </style>
        <linearGradient id="未命名的渐变_33" y1="46.04" x2="150" y2="46.04" gradientUnits="userSpaceOnUse">
            <stop offset="0" stop-color="#b7b7b7" />
            <stop offset="0.03" stop-color="#d6d6d6" />
            <stop offset="0.04" stop-color="#e4e4e4" />
            <stop offset="0.11" stop-color="#ededed" />
            <stop offset="0.23" stop-color="#f4f4f4" />
            <stop offset="0.56" stop-color="#f6f6f6" />
            <stop offset="0.8" stop-color="#f4f4f4" />
            <stop offset="0.89" stop-color="#ededed" />
            <stop offset="0.95" stop-color="#e2e2e2" />
            <stop offset="0.97" stop-color="#dedede" />
            <stop offset="0.98" stop-color="#c8c8c8" />
            <stop offset="1" stop-color="#b3b3b3" />
        </linearGradient>
        <linearGradient id="未命名的渐变_33-2" x1="8.12" y1="74.1" x2="141.45" y2="74.1" xlink:href="#未命名的渐变_33" />
        <linearGradient id="未命名的渐变_3" x1="118.11" y1="16.03" x2="138.55" y2="16.03" gradientUnits="userSpaceOnUse">
            <stop offset="0.1" stop-color="#808484" />
            <stop offset="0.17" stop-color="#8c9090" />
            <stop offset="0.29" stop-color="#adafaf" />
            <stop offset="0.46" stop-color="#e1e2e2" />
            <stop offset="0.52" stop-color="#f6f6f6" />
            <stop offset="0.6" stop-color="#cecece" />
            <stop offset="0.72" stop-color="#969696" />
            <stop offset="0.81" stop-color="#737373" />
            <stop offset="0.86" stop-color="#666" />
        </linearGradient>
        <linearGradient id="未命名的渐变_105" x1="119.86" y1="16.03" x2="136.8" y2="16.03" gradientUnits="userSpaceOnUse">
            <stop offset="0" stop-color="#e2e2e2" />
            <stop offset="0.03" stop-color="#d0d0d0" />
            <stop offset="0.06" stop-color="#bcbcbc" />
            <stop offset="0.09" stop-color="#b5b5b5" />
            <stop offset="0.49" stop-color="#f6f6f6" />
            <stop offset="0.63" stop-color="#f3f3f3" />
            <stop offset="0.73" stop-color="#eaeaea" />
            <stop offset="0.82" stop-color="#dbdbdb" />
            <stop offset="0.9" stop-color="#c6c6c6" />
            <stop offset="0.97" stop-color="#aaa" />
            <stop offset="1" stop-color="#9b9b9b" />
        </linearGradient>
        <linearGradient id="未命名的渐变_3-2" x1="95.24" y1="74.72" x2="110.53" y2="74.72" xlink:href="#未命名的渐变_3" />
        <linearGradient id="未命名的渐变_3-3" x1="14.65" y1="79.8" x2="22.23" y2="79.8" xlink:href="#未命名的渐变_3" />
        <linearGradient id="未命名的渐变_3-4" x1="29.64" y1="79.56" x2="37.22" y2="79.56" xlink:href="#未命名的渐变_3" />
        <linearGradient id="未命名的渐变_3-5" x1="116.8" y1="74.72" x2="132.09" y2="74.72" xlink:href="#未命名的渐变_3" />
        <linearGradient id="未命名的渐变_48" x1="112.84" y1="50.04" x2="119.64" y2="50.04"
            gradientTransform="translate(66.2 166.28) rotate(-90)" gradientUnits="userSpaceOnUse">
            <stop offset="0" stop-color="#afafaf" />
            <stop offset="0" stop-color="#bababa" />
            <stop offset="0" stop-color="#dbdbdb" />
            <stop offset="0" stop-color="#efefef" />
            <stop offset="0" stop-color="#f6f6f6" />
            <stop offset="0.07" stop-color="#e8e8e8" />
            <stop offset="0.14" stop-color="#e2e2e2" />
            <stop offset="0.37" stop-color="#b5b5b5" />
            <stop offset="0.46" stop-color="#9e9e9e" />
            <stop offset="0.61" stop-color="#7c7c7c" />
            <stop offset="0.75" stop-color="#646464" />
            <stop offset="0.89" stop-color="#565656" />
            <stop offset="1" stop-color="#515151" />
        </linearGradient>
    </defs>
    <title>Meter 4(仪表4)</title>
    <g id="图层_2" data-name="图层 2">
        <g id="图层_13" data-name="图层 13">
            <g id="Meter_4_仪表4_" data-name="Meter 4(仪表4)">
                <rect class="cls-1" width="150" height="92.08" rx="0.29" />
                <rect class="cls-2" x="3.12" y="28.38" width="141.88" height="59.88" />
                <polygon class="cls-3" points="20 4.33 3.59 4.33 3.59 28.38 115.71 28.38 20 4.33" />
                <polygon class="cls-4" points="144.99 4.33 19.74 4.33 115.71 28.38 144.99 28.38 144.99 4.33" />
                <rect class="cls-5" x="8.12" y="63.29" width="133.32" height="21.63" />
                <rect class="cls-3" x="8.12" y="63.29" width="133.32" height="21.63" />
                <circle class="cls-6" cx="128.33" cy="16.03" r="10.22" />
                <circle class="cls-7" cx="128.33" cy="16.03" r="8.47" />
                <circle class="cls-8" cx="102.89" cy="74.72" r="7.65" />
                <circle class="cls-4" cx="102.89" cy="74.72" r="3.62" />
                <circle class="cls-9" cx="18.44" cy="79.8" r="3.79" />
                <circle class="cls-10" cx="33.43" cy="79.56" r="3.79" />
                <circle class="cls-11" cx="124.45" cy="74.72" r="7.65" />
                <circle class="cls-4" cx="124.45" cy="74.72" r="3.62" />
                <circle class="cls-3" cx="18.44" cy="79.8" r="1.8" />
                <circle class="cls-3" cx="33.43" cy="79.56" r="1.8" />
                <rect class="cls-3" x="15.38" y="34.43" width="10.12" height="5.69" rx="0.5" />
                <rect class="cls-3" x="15.38" y="43.45" width="10.12" height="5.69" rx="0.5" />
                <rect class="cls-3" x="15.38" y="51.79" width="10.12" height="5.69" rx="0.5" />
                <rect class="cls-3" x="29.51" y="34.76" width="10.12" height="5.69" rx="0.5" />
                <rect class="cls-3" x="29.51" y="43.79" width="10.12" height="5.69" rx="0.5" />
                <rect class="cls-3" x="29.51" y="52.13" width="10.12" height="5.69" rx="0.5" />
                <rect class="cls-3" x="43.65" y="34.43" width="10.12" height="5.69" rx="0.5" />
                <rect class="cls-3" x="43.65" y="43.45" width="10.12" height="5.69" rx="0.5" />
                <rect class="cls-3" x="43.65" y="51.79" width="10.12" height="5.69" rx="0.5" />
                <rect class="cls-3" x="60.88" y="35.49" width="6.89" height="4.36" rx="0.5" />
                <rect class="cls-3" x="60.88" y="44.11" width="6.89" height="4.36" rx="0.5" />
                <rect class="cls-3" x="60.88" y="52.73" width="6.89" height="4.36" rx="0.5" />
                <rect class="cls-3" x="72.63" y="35.49" width="6.89" height="4.36" rx="0.5" />
                <rect class="cls-3" x="72.63" y="44.11" width="6.89" height="4.36" rx="0.5" />
                <rect class="cls-3" x="72.63" y="52.73" width="6.89" height="4.36" rx="0.5" />
                <rect class="cls-3" x="84.38" y="35.49" width="6.89" height="4.36" rx="0.5" />
                <rect class="cls-3" x="84.38" y="44.11" width="6.89" height="4.36" rx="0.5" />
                <rect class="cls-3" x="84.38" y="52.73" width="6.89" height="4.36" rx="0.5" />
                <rect class="cls-3" x="96.14" y="35.49" width="6.89" height="4.36" rx="0.5" />
                <rect class="cls-4" x="109" y="45.33" width="14.48" height="9.51"
                    transform="translate(166.33 -66.16) rotate(90)" />
                <rect class="cls-12" x="110.32" y="46.64" width="11.85" height="6.8"
                    transform="translate(166.28 -66.2) rotate(90)" />
                <rect class="cls-3" x="96.14" y="44.11" width="6.89" height="4.36" rx="0.5" />
                <rect class="cls-3" x="96.14" y="52.73" width="6.89" height="4.36" rx="0.5" />
                
            </g>
        </g>
    </g>
</svg>