<svg xmlns="http://www.w3.org/2000/svg" xmlns:xlink="http://www.w3.org/1999/xlink" viewBox="0 0 125.14 149.98">
    <defs>
        <style>
            .cls-1 {
                fill: url(#未命名的渐变_67);
            }

            .cls-2 {
                fill: url(#未命名的渐变_67-2);
            }

            .cls-3 {
                fill: url(#未命名的渐变_67-3);
            }

            .cls-4 {
                fill: url(#未命名的渐变_67-4);
            }

            .cls-5 {
                fill: url(#未命名的渐变_67-5);
            }

            .cls-6 {
                fill: url(#未命名的渐变_67-6);
            }

            .cls-7 {
                fill: url(#未命名的渐变_74);
            }

            .cls-8 {
                fill: url(#未命名的渐变_85);
            }

            .cls-9 {
                fill: #c1c1c1;
                opacity: 0.51;
            }

            .cls-10 {
                fill: #dcdcdd;
            }

            .cls-11,
            .cls-24 {
                fill: none;
                stroke-miterlimit: 10;
            }

            .cls-11 {
                stroke: #fff;
                stroke-width: 0.25px;
            }

            .cls-12 {
                fill: url(#未命名的渐变_67-7);
            }

            .cls-13 {
                fill: url(#未命名的渐变_67-8);
            }

            .cls-14 {
                fill: url(#未命名的渐变_67-9);
            }

            .cls-15 {
                fill: url(#未命名的渐变_67-10);
            }

            .cls-16 {
                fill: url(#未命名的渐变_67-11);
            }

            .cls-17 {
                fill: url(#未命名的渐变_67-12);
            }

            .cls-18 {
                fill: url(#未命名的渐变_67-13);
            }

            .cls-19 {
                fill: url(#未命名的渐变_67-14);
            }

            .cls-20 {
                fill: url(#未命名的渐变_67-15);
            }

            .cls-21 {
                fill: url(#未命名的渐变_67-16);
            }

            .cls-22 {
                fill: url(#未命名的渐变_67-17);
            }

            .cls-23 {
                fill: url(#未命名的渐变_67-18);
            }

            .cls-24 {
                stroke: #7f7f7f;
                stroke-width: 0.5px;
            }

            .cls-25 {
                opacity: 0.2;
            }
        </style>
        <linearGradient id="未命名的渐变_67" x1="27.56" y1="14.25" x2="37.61" y2="14.25" gradientUnits="userSpaceOnUse">
            <stop offset="0" stop-color="#6b6b6b" />
            <stop offset="0.11" stop-color="#767676" />
            <stop offset="0.3" stop-color="#959595" />
            <stop offset="0.41" stop-color="#aaa" />
            <stop offset="0.56" stop-color="#ccc" />
            <stop offset="0.71" stop-color="#eaeaea" />
            <stop offset="0.8" stop-color="#f6f6f6" />
            <stop offset="0.83" stop-color="#ededed" />
            <stop offset="0.87" stop-color="#d4d4d4" />
            <stop offset="0.92" stop-color="#ababab" />
            <stop offset="0.98" stop-color="#737373" />
            <stop offset="0.99" stop-color="#666" />
        </linearGradient>
        <linearGradient id="未命名的渐变_67-2" x1="48.69" y1="3.7" x2="55.39" y2="3.7" xlink:href="#未命名的渐变_67" />
        <linearGradient id="未命名的渐变_67-3" x1="47.44" y1="13.56" x2="56.65" y2="13.56" xlink:href="#未命名的渐变_67" />
        <linearGradient id="未命名的渐变_67-4" x1="69.11" y1="3.7" x2="75.81" y2="3.7" xlink:href="#未命名的渐变_67" />
        <linearGradient id="未命名的渐变_67-5" x1="67.85" y1="13.56" x2="77.07" y2="13.56" xlink:href="#未命名的渐变_67" />
        <linearGradient id="未命名的渐变_67-6" x1="85.92" y1="14.14" x2="95.97" y2="14.14" xlink:href="#未命名的渐变_67" />
        <linearGradient id="未命名的渐变_74" y1="84.8" x2="125.14" y2="84.8" gradientUnits="userSpaceOnUse">
            <stop offset="0" stop-color="#6b6b6b" />
            <stop offset="0.01" stop-color="#767676" />
            <stop offset="0.03" stop-color="#959595" />
            <stop offset="0.04" stop-color="#aaa" />
            <stop offset="0.37" stop-color="#ccc" />
            <stop offset="0.74" stop-color="#eaeaea" />
            <stop offset="0.94" stop-color="#f6f6f6" />
            <stop offset="0.95" stop-color="#ededed" />
            <stop offset="0.96" stop-color="#d4d4d4" />
            <stop offset="0.97" stop-color="#ababab" />
            <stop offset="0.99" stop-color="#737373" />
            <stop offset="0.99" stop-color="#666" />
        </linearGradient>
        <linearGradient id="未命名的渐变_85" x1="17.38" y1="41.98" x2="108.58" y2="41.98" gradientUnits="userSpaceOnUse">
            <stop offset="0" stop-color="#6b6b6b" />
            <stop offset="0.11" stop-color="#767676" />
            <stop offset="0.3" stop-color="#959595" />
            <stop offset="0.41" stop-color="#aaa" />
            <stop offset="0.68" stop-color="#acacac" />
            <stop offset="0.78" stop-color="#b3b3b3" />
            <stop offset="0.85" stop-color="#bebebe" />
            <stop offset="0.91" stop-color="#cfcfcf" />
            <stop offset="0.95" stop-color="#e5e5e5" />
            <stop offset="0.99" stop-color="#f6f6f6" />
            <stop offset="0.99" stop-color="#ededed" />
            <stop offset="0.99" stop-color="#d4d4d4" />
            <stop offset="0.99" stop-color="#adadad" />
        </linearGradient>
        <linearGradient id="未命名的渐变_67-7" x1="41.46" y1="81.88" x2="33.19" y2="90.14" xlink:href="#未命名的渐变_67" />
        <linearGradient id="未命名的渐变_67-8" x1="58.37" y1="81.88" x2="50.11" y2="90.14" xlink:href="#未命名的渐变_67" />
        <linearGradient id="未命名的渐变_67-9" x1="75.29" y1="81.88" x2="67.03" y2="90.14" xlink:href="#未命名的渐变_67" />
        <linearGradient id="未命名的渐变_67-10" x1="92.21" y1="81.88" x2="83.95" y2="90.14" xlink:href="#未命名的渐变_67" />
        <linearGradient id="未命名的渐变_67-11" x1="41.44" y1="94.15" x2="33.17" y2="102.41" xlink:href="#未命名的渐变_67" />
        <linearGradient id="未命名的渐变_67-12" x1="58.36" y1="94.15" x2="50.09" y2="102.41" xlink:href="#未命名的渐变_67" />
        <linearGradient id="未命名的渐变_67-13" x1="75.27" y1="94.15" x2="67.01" y2="102.41" xlink:href="#未命名的渐变_67" />
        <linearGradient id="未命名的渐变_67-14" x1="92.19" y1="94.15" x2="83.93" y2="102.41" xlink:href="#未命名的渐变_67" />
        <linearGradient id="未命名的渐变_67-15" x1="41.42" y1="106.42" x2="33.15" y2="114.69" xlink:href="#未命名的渐变_67" />
        <linearGradient id="未命名的渐变_67-16" x1="58.34" y1="106.42" x2="50.07" y2="114.69" xlink:href="#未命名的渐变_67" />
        <linearGradient id="未命名的渐变_67-17" x1="75.26" y1="106.42" x2="66.99" y2="114.69" xlink:href="#未命名的渐变_67" />
        <linearGradient id="未命名的渐变_67-18" x1="92.17" y1="106.42" x2="83.91" y2="114.69" xlink:href="#未命名的渐变_67" />
    </defs>
    <title>Meter 8(仪表8)</title>
    <g id="图层_2" data-name="图层 2">
        <g id="图层_13" data-name="图层 13">
            <g id="Meter_8_仪表8_" data-name="Meter 8(仪表8)">
                <path class="cls-1"
                    d="M28.64,8.78h7.9a1.07,1.07,0,0,1,1.07,1.07v9.87a0,0,0,0,1,0,0h-10a0,0,0,0,1,0,0V9.85A1.07,1.07,0,0,1,28.64,8.78Z" />
                <path class="cls-2"
                    d="M49.59,0H54.5a.9.9,0,0,1,.9.9V7.41a0,0,0,0,1,0,0h-6.7a0,0,0,0,1,0,0V.9a.9.9,0,0,1,.9-.9Z" />
                <rect class="cls-3" x="47.44" y="7.41" width="9.22" height="12.31" />
                <path class="cls-4"
                    d="M70,0h4.91a.9.9,0,0,1,.9.9V7.41a0,0,0,0,1,0,0h-6.7a0,0,0,0,1,0,0V.9A.9.9,0,0,1,70,0Z" />
                <rect class="cls-5" x="67.85" y="7.41" width="9.22" height="12.31" />
                <path class="cls-6"
                    d="M87,8.67h7.9A1.07,1.07,0,0,1,96,9.74v9.87a0,0,0,0,1,0,0h-10a0,0,0,0,1,0,0V9.74A1.07,1.07,0,0,1,87,8.67Z" />
                <path class="cls-7"
                    d="M118.78,19.62H6.35A6.36,6.36,0,0,0,0,26V143.62A6.36,6.36,0,0,0,6.35,150H22.07l12.47-16,3.58-.53A168.77,168.77,0,0,1,84.18,133l6.84.86L103.27,150h15.51a6.36,6.36,0,0,0,6.36-6.36V26A6.36,6.36,0,0,0,118.78,19.62Z" />
                <rect class="cls-8" x="17.38" y="22.15" width="91.19" height="39.65" />
                <rect class="cls-9" x="34.82" y="27.12" width="55.76" height="29.56" />
                <path class="cls-10"
                    d="M93.72,119.39H32.08l-18-42.34c-1.29-3-5.44-14.38.31-14.38l47.71,2.1,50.12-2.1c3.73,0,2.16,4.35,1.41,6.22Z" />
                <rect class="cls-9" x="34.82" y="27.12" width="55.76" height="29.56" />
                <path class="cls-9"
                    d="M113.67,68.71C112.94,70,108.55,72,108.55,72c-29.43,10.72-66.7,11-94.37-.47A8.59,8.59,0,0,1,11.63,69a6.51,6.51,0,0,1-.2-2.83c.09-1.6.7-3.57,3.21-3.48l46,2.09c1.38.06,2.77.06,4.16,0l47-2.06c2.09-.13,2.62.77,2.79,1.82A8.35,8.35,0,0,1,113.67,68.71Z" />
                <rect class="cls-11" x="38.04" y="29.51" width="49.29" height="25.14" />
                <ellipse class="cls-12" cx="37.32" cy="86.01" rx="6.79" ry="4.71" />
                <ellipse class="cls-13" cx="54.24" cy="86.01" rx="6.79" ry="4.71" />
                <ellipse class="cls-14" cx="71.16" cy="86.01" rx="6.79" ry="4.71" />
                <ellipse class="cls-15" cx="88.08" cy="86.01" rx="6.79" ry="4.71" />
                <ellipse class="cls-16" cx="37.3" cy="98.28" rx="6.79" ry="4.71" />
                <ellipse class="cls-17" cx="54.22" cy="98.28" rx="6.79" ry="4.71" />
                <ellipse class="cls-18" cx="71.14" cy="98.28" rx="6.79" ry="4.71" />
                <ellipse class="cls-19" cx="88.06" cy="98.28" rx="6.79" ry="4.71" />
                <ellipse class="cls-20" cx="37.28" cy="110.56" rx="6.79" ry="4.71" />
                <ellipse class="cls-21" cx="54.2" cy="110.56" rx="6.79" ry="4.71" />
                <ellipse class="cls-22" cx="71.12" cy="110.56" rx="6.79" ry="4.71" />
                <ellipse class="cls-23" cx="88.04" cy="110.56" rx="6.79" ry="4.71" />
                <path class="cls-24" d="M35.14,63.55s-.62,3.81.38,4.79c.7.67,2.17.74,3.5.78a2,2,0,0,1,1.92,2v7" />
                <path class="cls-24" d="M89.6,63.55s.62,3.81-.38,4.79c-.7.67-2.16.74-3.5.78a2,2,0,0,0-1.92,2v7" />
                <line class="cls-24" x1="54.54" y1="64.18" x2="54.54" y2="79.79" />
                <line class="cls-24" x1="69.55" y1="64.18" x2="69.55" y2="79.79" />
                
            </g>
        </g>
    </g>
</svg>