<svg xmlns="http://www.w3.org/2000/svg" xmlns:xlink="http://www.w3.org/1999/xlink" viewBox="0 0 146.88 149.37">
    <defs>
        <style>
            .cls-1 {
                fill: #7f7f7f;
            }

            .cls-2 {
                fill: #b9b9b9;
            }

            .cls-3 {
                fill: #faf9f9;
            }

            .cls-4 {
                fill: url(#未命名的渐变_105);
            }

            .cls-5 {
                fill: none;
                stroke: #7f7f7f;
                stroke-miterlimit: 10;
                stroke-width: 0.25px;
            }

            .cls-6 {
                fill: url(#未命名的渐变_67);
            }

            .cls-7 {
                fill: url(#未命名的渐变_67-2);
            }

            .cls-8 {
                fill: url(#未命名的渐变_67-3);
            }

            .cls-9 {
                fill: url(#未命名的渐变_105-2);
            }

            .cls-10 {
                fill: url(#未命名的渐变_143);
            }

            .cls-11 {
                fill: url(#未命名的渐变_143-2);
            }

            .cls-12 {
                fill: url(#未命名的渐变_143-3);
            }

            .cls-13 {
                fill: url(#未命名的渐变_105-3);
            }

            .cls-14 {
                fill: url(#未命名的渐变_67-4);
            }

            .cls-15 {
                fill: url(#未命名的渐变_67-5);
            }

            .cls-16 {
                fill: url(#未命名的渐变_67-6);
            }

            .cls-17 {
                fill: url(#未命名的渐变_105-4);
            }

            .cls-18 {
                fill: url(#未命名的渐变_143-4);
            }

            .cls-19 {
                fill: url(#未命名的渐变_143-5);
            }

            .cls-20 {
                fill: url(#未命名的渐变_143-6);
            }

            .cls-21 {
                opacity: 0.2;
            }
        </style>
        <linearGradient id="未命名的渐变_105" x1="17.27" y1="36.77" x2="45.56" y2="36.77" gradientUnits="userSpaceOnUse">
            <stop offset="0" stop-color="#e2e2e2" />
            <stop offset="0.03" stop-color="#d0d0d0" />
            <stop offset="0.06" stop-color="#bcbcbc" />
            <stop offset="0.09" stop-color="#b5b5b5" />
            <stop offset="0.49" stop-color="#f6f6f6" />
            <stop offset="0.63" stop-color="#f3f3f3" />
            <stop offset="0.73" stop-color="#eaeaea" />
            <stop offset="0.82" stop-color="#dbdbdb" />
            <stop offset="0.9" stop-color="#c6c6c6" />
            <stop offset="0.97" stop-color="#aaa" />
            <stop offset="1" stop-color="#9b9b9b" />
        </linearGradient>
        <linearGradient id="未命名的渐变_67" x1="-18.58" y1="120.3" x2="-8.51" y2="120.3"
            gradientTransform="translate(31.72 -11.71) scale(0.56 0.34)" gradientUnits="userSpaceOnUse">
            <stop offset="0" stop-color="#6b6b6b" />
            <stop offset="0.11" stop-color="#767676" />
            <stop offset="0.3" stop-color="#959595" />
            <stop offset="0.41" stop-color="#aaa" />
            <stop offset="0.56" stop-color="#ccc" />
            <stop offset="0.71" stop-color="#eaeaea" />
            <stop offset="0.8" stop-color="#f6f6f6" />
            <stop offset="0.83" stop-color="#ededed" />
            <stop offset="0.87" stop-color="#d4d4d4" />
            <stop offset="0.92" stop-color="#ababab" />
            <stop offset="0.98" stop-color="#737373" />
            <stop offset="0.99" stop-color="#666" />
        </linearGradient>
        <linearGradient id="未命名的渐变_67-2" x1="87.42" y1="-37.17" x2="97.49" y2="-37.17"
            gradientTransform="matrix(0.56, 0, 0, -0.34, -27.92, 32.01)" xlink:href="#未命名的渐变_67" />
        <linearGradient id="未命名的渐变_67-3" x1="-104.6" y1="-36.44" x2="-94.52" y2="-36.44"
            gradientTransform="matrix(0.56, 0, 0, -0.34, 95.35, 17.04)" xlink:href="#未命名的渐变_67" />
        <linearGradient id="未命名的渐变_105-2" x1="24.29" y1="37.16" x2="39.31" y2="37.16" xlink:href="#未命名的渐变_105" />
        <linearGradient id="未命名的渐变_143" x1="31.34" y1="24.75" x2="38.54" y2="24.75"
            gradientTransform="translate(24.46 -5.24) rotate(45)" gradientUnits="userSpaceOnUse">
            <stop offset="0" stop-color="#b7b7b7" />
            <stop offset="0.03" stop-color="#9b9d9d" />
            <stop offset="0.07" stop-color="#878b8b" />
            <stop offset="0.09" stop-color="#808484" />
            <stop offset="0.2" stop-color="#a3a6a6" />
            <stop offset="0.49" stop-color="#f6f6f6" />
            <stop offset="0.61" stop-color="#f3f3f3" />
            <stop offset="0.7" stop-color="#eaeaea" />
            <stop offset="0.77" stop-color="#dbdbdb" />
            <stop offset="0.83" stop-color="#c5c5c5" />
            <stop offset="0.9" stop-color="#aaa" />
            <stop offset="0.95" stop-color="#888" />
            <stop offset="1" stop-color="#666" />
        </linearGradient>
        <linearGradient id="未命名的渐变_143-2" x1="37.96" y1="-9.15" x2="46.53" y2="-9.15" xlink:href="#未命名的渐变_143" />
        <linearGradient id="未命名的渐变_143-3" x1="45" y1="59.35" x2="53.57" y2="59.35" xlink:href="#未命名的渐变_143" />
        <linearGradient id="未命名的渐变_105-3" x1="-128.77" y1="-112.27" x2="-100.48" y2="-112.27"
            gradientTransform="translate(-1.21 0.52) rotate(180)" xlink:href="#未命名的渐变_105" />
        <linearGradient id="未命名的渐变_67-4" x1="4.7" y1="-490.18" x2="14.78" y2="-490.18"
            gradientTransform="translate(115.25 287.44) scale(0.56 0.34)" xlink:href="#未命名的渐变_67" />
        <linearGradient id="未命名的渐变_67-5" x1="-283.62" y1="-63.11" x2="-273.55" y2="-63.11"
            gradientTransform="matrix(0.56, 0, 0, -0.34, 277.33, 83.33)" xlink:href="#未命名的渐变_67" />
        <linearGradient id="未命名的渐变_67-6" x1="266.45" y1="-10.5" x2="276.52" y2="-10.5"
            gradientTransform="matrix(0.56, 0, 0, -0.34, -47.12, 116.49)" xlink:href="#未命名的渐变_67" />
        <linearGradient id="未命名的渐变_105-4" x1="-121.74" y1="-111.87" x2="-106.72" y2="-111.87"
            gradientTransform="translate(-1.21 0.52) rotate(180)" xlink:href="#未命名的渐变_105" />
        <linearGradient id="未命名的渐变_143-4" x1="-177.3" y1="22.63" x2="-170.1" y2="22.63"
            gradientTransform="translate(-25.66 5.76) rotate(-135)" xlink:href="#未命名的渐变_143" />
        <linearGradient id="未命名的渐变_143-5" x1="-170.68" y1="-11.27" x2="-162.12" y2="-11.27"
            gradientTransform="translate(-25.66 5.76) rotate(-135)" xlink:href="#未命名的渐变_143" />
        <linearGradient id="未命名的渐变_143-6" x1="-163.64" y1="57.23" x2="-155.08" y2="57.23"
            gradientTransform="translate(-25.66 5.76) rotate(-135)" xlink:href="#未命名的渐变_143" />
    </defs>
    <title>Meter 10(仪表10)</title>
    <g id="图层_2" data-name="图层 2">
        <g id="图层_13" data-name="图层 13">
            <g id="Meter_10_仪表10_" data-name="Meter 10(仪表10)">
                <rect class="cls-1" width="146.88" height="149.37" rx="0.29" />
                <rect class="cls-2" x="8.39" y="8.85" width="129.7" height="131.56" rx="0.29" />
                <rect class="cls-3" x="10.99" y="11.89" width="124.12" height="125.64" rx="0.29" />
                <polygon class="cls-1" points="65.02 71.57 41.25 43.63 38.64 46.55 65.02 71.57" />
                <circle class="cls-4" cx="31.41" cy="36.77" r="14.14" />
                <line class="cls-5" x1="52.33" y1="78.18" x2="48.56" y2="72.83" />
                <line class="cls-5" x1="31.66" y1="81.45" x2="31.59" y2="74.91" />
                <line class="cls-5" x1="72.55" y1="56.92" x2="66.65" y2="54.08" />
                <line class="cls-5" x1="75.23" y1="38.2" x2="68.69" y2="38.04" />
                <path class="cls-6"
                    d="M21.81,25.85H26.4a.53.53,0,0,1,.53.53V32.8a0,0,0,0,1,0,0H21.28a0,0,0,0,1,0,0V26.38A.53.53,0,0,1,21.81,25.85Z"
                    transform="translate(-13.81 27.62) rotate(-48.01)" />
                <path class="cls-7"
                    d="M21.19,41.22h5.66a0,0,0,0,1,0,0v6.42a.53.53,0,0,1-.53.53H21.73a.53.53,0,0,1-.53-.53V41.22A0,0,0,0,1,21.19,41.22Z"
                    transform="translate(41.17 -3.06) rotate(48.01)" />
                <path class="cls-8"
                    d="M36.58,26h5.66a0,0,0,0,1,0,0v6.42a.53.53,0,0,1-.53.53H37.12a.53.53,0,0,1-.53-.53V26a0,0,0,0,1,0,0Z"
                    transform="translate(43.87 78.49) rotate(-131.99)" />
                <circle class="cls-9" cx="31.8" cy="37.16" r="7.51" />
                <circle class="cls-10" cx="31.66" cy="36.97" r="3.6" />
                <rect class="cls-1" x="31.18" y="34.34" width="1.28" height="5.56" />
                <circle class="cls-11" cx="60.8" cy="18.16" r="4.28" />
                <rect class="cls-1" x="60.23" y="15.04" width="1.52" height="6.62"
                    transform="translate(30.83 -37.75) rotate(45)" />
                <rect class="cls-1" x="60.23" y="15.04" width="1.52" height="6.62"
                    transform="translate(117.08 -11.81) rotate(135)" />
                <circle class="cls-12" cx="17.34" cy="71.57" r="4.28" />
                <rect class="cls-1" x="16.77" y="68.45" width="1.52" height="6.62"
                    transform="translate(55.87 8.62) rotate(45)" />
                <rect class="cls-1" x="16.77" y="68.45" width="1.52" height="6.62"
                    transform="translate(80.66 110.1) rotate(135)" />
                <polygon class="cls-1" points="79.81 77.98 103.58 105.92 106.19 103 79.81 77.98" />
                <circle class="cls-13" cx="113.42" cy="112.78" r="14.14" />
                <line class="cls-5" x1="92.49" y1="71.37" x2="96.27" y2="76.72" />
                <line class="cls-5" x1="113.17" y1="68.1" x2="113.24" y2="74.64" />
                <line class="cls-5" x1="72.28" y1="92.64" x2="78.17" y2="95.47" />
                <line class="cls-5" x1="69.6" y1="111.35" x2="76.14" y2="111.51" />
                <path class="cls-14"
                    d="M118.43,116.75H123a.53.53,0,0,1,.53.53v6.42a0,0,0,0,1,0,0h-5.66a0,0,0,0,1,0,0v-6.42A.53.53,0,0,1,118.43,116.75Z"
                    transform="translate(290.85 110.93) rotate(131.99)" />
                <path class="cls-15"
                    d="M118,101.38h5.66a0,0,0,0,1,0,0v6.42a.53.53,0,0,1-.53.53h-4.59a.53.53,0,0,1-.53-.53v-6.42A0,0,0,0,1,118,101.38Z"
                    transform="translate(123.68 264.8) rotate(-131.99)" />
                <path class="cls-16"
                    d="M102.58,116.6h5.66a0,0,0,0,1,0,0V123a.53.53,0,0,1-.53.53h-4.59a.53.53,0,0,1-.53-.53V116.6A0,0,0,0,1,102.58,116.6Z"
                    transform="translate(124.15 -38.6) rotate(48.01)" />
                <circle class="cls-17" cx="113.03" cy="112.39" r="7.51" />
                <circle class="cls-18" cx="113.17" cy="112.58" r="3.6" />
                <rect class="cls-1" x="112.37" y="109.64" width="1.28" height="5.56"
                    transform="translate(226.02 224.85) rotate(180)" />
                <circle class="cls-19" cx="84.03" cy="131.39" r="4.28" />
                <rect class="cls-1" x="83.08" y="127.9" width="1.52" height="6.62"
                    transform="translate(50.35 283.27) rotate(-135)" />
                <rect class="cls-1" x="83.08" y="127.9" width="1.52" height="6.62"
                    transform="translate(-68.22 97.71) rotate(-45)" />
                <circle class="cls-20" cx="127.49" cy="77.98" r="4.28" />
                <rect class="cls-1" x="126.54" y="74.49" width="1.52" height="6.62"
                    transform="translate(162.31 222.82) rotate(-135)" />
                <rect class="cls-1" x="126.54" y="74.49" width="1.52" height="6.62"
                    transform="translate(-17.72 112.8) rotate(-45)" />
                <path
                    d="M122,40.94h-3.23l-1.88-5.22H111l-1.89,5.22h-3.23l6.73-17h2.69Zm-5.78-7.09-2.16-6h-.27l-2.15,6Z" />
                
            </g>
        </g>
    </g>
</svg>