<svg xmlns="http://www.w3.org/2000/svg" xmlns:xlink="http://www.w3.org/1999/xlink" viewBox="0 0 131.22 150.04">
    <defs>
        <style>
            .cls-1 {
                fill: url(#未命名的渐变_105);
            }

            .cls-2 {
                fill: url(#未命名的渐变_33);
            }

            .cls-3 {
                fill: #fff;
            }

            .cls-4 {
                fill: #eaeaea;
            }

            .cls-5 {
                fill: #7f7f7f;
            }

            .cls-14,
            .cls-6 {
                fill: none;
                stroke-miterlimit: 10;
            }

            .cls-6 {
                stroke: #dedede;
                stroke-width: 0.1px;
            }

            .cls-7 {
                fill: #c1c1c1;
                opacity: 0.51;
            }

            .cls-8 {
                fill: url(#未命名的渐变_105-2);
            }

            .cls-9 {
                fill: url(#未命名的渐变_105-3);
            }

            .cls-10 {
                fill: url(#未命名的渐变_105-4);
            }

            .cls-11 {
                fill: url(#未命名的渐变_105-5);
            }

            .cls-12 {
                fill: url(#未命名的渐变_105-6);
            }

            .cls-13 {
                fill: url(#未命名的渐变_105-7);
            }

            .cls-14 {
                stroke: #7f7f7f;
                stroke-width: 0.25px;
            }

            .cls-15 {
                fill: #dedede;
            }

            .cls-16 {
                opacity: 0.2;
            }
        </style>
        <linearGradient id="未命名的渐变_105" x1="48.12" y1="476.37" x2="68.95" y2="476.37"
            gradientTransform="matrix(1, 0, 0, -1, 0, 606.91)" gradientUnits="userSpaceOnUse">
            <stop offset="0" stop-color="#e2e2e2" />
            <stop offset="0.03" stop-color="#d0d0d0" />
            <stop offset="0.06" stop-color="#bcbcbc" />
            <stop offset="0.09" stop-color="#b5b5b5" />
            <stop offset="0.49" stop-color="#f6f6f6" />
            <stop offset="0.63" stop-color="#f3f3f3" />
            <stop offset="0.73" stop-color="#eaeaea" />
            <stop offset="0.82" stop-color="#dbdbdb" />
            <stop offset="0.9" stop-color="#c6c6c6" />
            <stop offset="0.97" stop-color="#aaa" />
            <stop offset="1" stop-color="#9b9b9b" />
        </linearGradient>
        <linearGradient id="未命名的渐变_33" x1="108.64" y1="548.52" x2="131.22" y2="548.52"
            gradientTransform="matrix(1, 0, 0, -1, 0, 606.91)" gradientUnits="userSpaceOnUse">
            <stop offset="0" stop-color="#b7b7b7" />
            <stop offset="0.03" stop-color="#d6d6d6" />
            <stop offset="0.04" stop-color="#e4e4e4" />
            <stop offset="0.11" stop-color="#ededed" />
            <stop offset="0.23" stop-color="#f4f4f4" />
            <stop offset="0.56" stop-color="#f6f6f6" />
            <stop offset="0.8" stop-color="#f4f4f4" />
            <stop offset="0.89" stop-color="#ededed" />
            <stop offset="0.95" stop-color="#e2e2e2" />
            <stop offset="0.97" stop-color="#dedede" />
            <stop offset="0.98" stop-color="#c8c8c8" />
            <stop offset="1" stop-color="#b3b3b3" />
        </linearGradient>
        <linearGradient id="未命名的渐变_105-2" x1="55.42" y1="148.09" x2="61.65" y2="148.09"
            gradientTransform="matrix(1, 0, 0, 1, 0, 0)" xlink:href="#未命名的渐变_105" />
        <linearGradient id="未命名的渐变_105-3" x1="58.53" y1="131.16" x2="58.53" y2="129.8"
            gradientTransform="matrix(1, 0, 0, 1, 0, 0)" xlink:href="#未命名的渐变_105" />
        <linearGradient id="未命名的渐变_105-4" x1="58.53" y1="134.59" x2="58.53" y2="133.23"
            gradientTransform="matrix(1, 0, 0, 1, 0, 0)" xlink:href="#未命名的渐变_105" />
        <linearGradient id="未命名的渐变_105-5" x1="58.53" y1="137.8" x2="58.53" y2="136.44"
            gradientTransform="matrix(1, 0, 0, 1, 0, 0)" xlink:href="#未命名的渐变_105" />
        <linearGradient id="未命名的渐变_105-6" x1="58.53" y1="140.79" x2="58.53" y2="139.43"
            gradientTransform="matrix(1, 0, 0, 1, 0, 0)" xlink:href="#未命名的渐变_105" />
        <linearGradient id="未命名的渐变_105-7" x1="58.53" y1="143.68" x2="58.53" y2="142.31"
            gradientTransform="matrix(1, 0, 0, 1, 0, 0)" xlink:href="#未命名的渐变_105" />
    </defs>
    <title>Meter 2(仪表2)</title>
    <g id="图层_2" data-name="图层 2">
        <g id="图层_13" data-name="图层 13">
            <g id="Meter_2_仪表2_" data-name="Meter 2(仪表2)">
                <rect class="cls-1" x="48.12" y="114.95" width="20.83" height="31.2" />
                <rect class="cls-2" x="108.64" y="40.22" width="22.58" height="36.35" />
                <circle class="cls-3" cx="58.53" cy="58.53" r="53.47" />
                <path class="cls-4"
                    d="M5.06,58.53a53.41,53.41,0,0,0,23.36,44.18,56.06,56.06,0,0,0,7.93.62c31.65,0,57.31-26.09,57.31-58.28a58.61,58.61,0,0,0-11-34.17A53.41,53.41,0,0,0,5.06,58.53Z" />
                <path class="cls-5"
                    d="M58.53,0a58.53,58.53,0,1,0,58.53,58.53A58.54,58.54,0,0,0,58.53,0Zm0,112A53.47,53.47,0,1,1,112,58.53,53.47,53.47,0,0,1,58.53,112Z" />
                <rect class="cls-5" x="47.54" y="92.92" width="21.99" height="10.8" />
                <rect class="cls-6" x="48.77" y="94.33" width="19.52" height="7.99" />
                <circle class="cls-7" cx="58.53" cy="58.53" r="51.33" />
                <rect class="cls-8" x="55.42" y="146.14" width="6.23" height="3.89" />
                <rect class="cls-9" x="47.97" y="129.8" width="21.13" height="1.36" />
                <rect class="cls-10" x="47.97" y="133.23" width="21.13" height="1.36" />
                <rect class="cls-11" x="47.97" y="136.44" width="21.13" height="1.36" />
                <rect class="cls-12" x="47.97" y="139.43" width="21.13" height="1.36" />
                <rect class="cls-13" x="47.97" y="142.31" width="21.13" height="1.36" />
                <path class="cls-5"
                    d="M77.92,49l-5.76-5.76a2.23,2.23,0,0,0-3.15,0,2.11,2.11,0,0,0-.21.31l0,0-.07.16a1.89,1.89,0,0,0-.23.5,38.92,38.92,0,0,1-6.25,9.54C54.8,61.46,23.12,90.78,23.12,90.78s33.56-26.65,44-34c2.5-1.75,7.8-3.52,9.64-4.11a2.27,2.27,0,0,0,.61-.19l.09,0,0,0a2.16,2.16,0,0,0,.51-.34A2.23,2.23,0,0,0,77.92,49Z" />
                <circle class="cls-5" cx="60.33" cy="59.21" r="4.62" />
                <line class="cls-14" x1="81.52" y1="16.07" x2="77.74" y2="23.19" />
                <line class="cls-14" x1="37.12" y1="16.07" x2="40.9" y2="23.19" />
                <line class="cls-14" x1="11.46" y1="52.2" x2="19.44" y2="53.35" />
                <line class="cls-14" x1="107.68" y1="51.97" x2="99.7" y2="53.11" />
                <circle class="cls-15" cx="60.33" cy="59.21" r="2.64" />
                
            </g>
        </g>
    </g>
</svg>