<svg xmlns="http://www.w3.org/2000/svg" xmlns:xlink="http://www.w3.org/1999/xlink" viewBox="0 0 129.18 149.51">
    <defs>
        <style>
            .cls-1 {
                fill: url(#未命名的渐变_33);
            }

            .cls-2 {
                fill: url(#未命名的渐变_67);
            }

            .cls-3 {
                fill: url(#未命名的渐变_67-2);
            }

            .cls-4 {
                fill: url(#未命名的渐变_33-2);
            }

            .cls-5 {
                fill: #b9b9b9;
            }

            .cls-6 {
                fill: #dcdcdd;
            }

            .cls-7 {
                fill: #7f7f7f;
            }

            .cls-8 {
                fill: url(#未命名的渐变_67-3);
            }

            .cls-9 {
                fill: url(#未命名的渐变_67-4);
            }

            .cls-10 {
                fill: url(#未命名的渐变_3);
            }

            .cls-11 {
                fill: url(#未命名的渐变_67-5);
            }

            .cls-12 {
                fill: url(#未命名的渐变_3-2);
            }

            .cls-13 {
                fill: url(#未命名的渐变_67-6);
            }

            .cls-14 {
                fill: url(#未命名的渐变_3-3);
            }

            .cls-15 {
                fill: url(#未命名的渐变_3-4);
            }

            .cls-16 {
                fill: url(#未命名的渐变_3-5);
            }

            .cls-17 {
                fill: url(#未命名的渐变_3-6);
            }

            .cls-18 {
                fill: url(#未命名的渐变_3-7);
            }

            .cls-19 {
                fill: url(#未命名的渐变_3-8);
            }

            .cls-20 {
                fill: #fff;
            }

            .cls-21 {
                opacity: 0.2;
            }
        </style>
        <linearGradient id="未命名的渐变_33" x1="2.4" y1="83.35" x2="126.23" y2="83.35" gradientUnits="userSpaceOnUse">
            <stop offset="0" stop-color="#b7b7b7" />
            <stop offset="0.03" stop-color="#d6d6d6" />
            <stop offset="0.04" stop-color="#e4e4e4" />
            <stop offset="0.11" stop-color="#ededed" />
            <stop offset="0.23" stop-color="#f4f4f4" />
            <stop offset="0.56" stop-color="#f6f6f6" />
            <stop offset="0.8" stop-color="#f4f4f4" />
            <stop offset="0.89" stop-color="#ededed" />
            <stop offset="0.95" stop-color="#e2e2e2" />
            <stop offset="0.97" stop-color="#dedede" />
            <stop offset="0.98" stop-color="#c8c8c8" />
            <stop offset="1" stop-color="#b3b3b3" />
        </linearGradient>
        <linearGradient id="未命名的渐变_67" x1="12.68" y1="81.81" x2="12.68" y2="75.88"
            gradientTransform="translate(-66.17 91.52) rotate(-90)" gradientUnits="userSpaceOnUse">
            <stop offset="0" stop-color="#6b6b6b" />
            <stop offset="0.11" stop-color="#767676" />
            <stop offset="0.3" stop-color="#959595" />
            <stop offset="0.41" stop-color="#aaa" />
            <stop offset="0.56" stop-color="#ccc" />
            <stop offset="0.71" stop-color="#eaeaea" />
            <stop offset="0.8" stop-color="#f6f6f6" />
            <stop offset="0.83" stop-color="#ededed" />
            <stop offset="0.87" stop-color="#d4d4d4" />
            <stop offset="0.92" stop-color="#ababab" />
            <stop offset="0.98" stop-color="#737373" />
            <stop offset="0.99" stop-color="#666" />
        </linearGradient>
        <linearGradient id="未命名的渐变_67-2" x1="-597.45" y1="81.81" x2="-597.45" y2="75.88"
            gradientTransform="matrix(0, 1, 1, 0, 37.65, 676.29)" xlink:href="#未命名的渐变_67" />
        <linearGradient id="未命名的渐变_33-2" x1="18.71" y1="79.68" x2="110.4" y2="79.68" xlink:href="#未命名的渐变_33" />
        <linearGradient id="未命名的渐变_67-3" x1="18.56" y1="6.07" x2="37.65" y2="6.07"
            gradientTransform="translate(22.04 34.18) rotate(-90)" xlink:href="#未命名的渐变_67" />
        <linearGradient id="未命名的渐变_67-4" x1="15.45" y1="14.76" x2="40.8" y2="14.76"
            gradientTransform="translate(13.37 42.88) rotate(-90)" xlink:href="#未命名的渐变_67" />
        <linearGradient id="未命名的渐变_3" x1="38.59" y1="52.57" x2="38.59" y2="45.62"
            gradientTransform="translate(-10.51 87.68) rotate(-90)" gradientUnits="userSpaceOnUse">
            <stop offset="0.1" stop-color="#808484" />
            <stop offset="0.17" stop-color="#8c9090" />
            <stop offset="0.29" stop-color="#adafaf" />
            <stop offset="0.46" stop-color="#e1e2e2" />
            <stop offset="0.52" stop-color="#f6f6f6" />
            <stop offset="0.6" stop-color="#cecece" />
            <stop offset="0.72" stop-color="#969696" />
            <stop offset="0.81" stop-color="#737373" />
            <stop offset="0.86" stop-color="#666" />
        </linearGradient>
        <linearGradient id="未命名的渐变_67-5" x1="91.66" y1="6.07" x2="110.75" y2="6.07"
            gradientTransform="translate(95.14 107.27) rotate(-90)" xlink:href="#未命名的渐变_67" />
        <linearGradient id="未命名的渐变_3-2" x1="70.31" y1="52.57" x2="70.31" y2="45.62"
            gradientTransform="translate(21.22 119.41) rotate(-90)" xlink:href="#未命名的渐变_3" />
        <linearGradient id="未命名的渐变_67-6" x1="88.55" y1="14.76" x2="113.9" y2="14.76"
            gradientTransform="translate(86.47 115.98) rotate(-90)" xlink:href="#未命名的渐变_67" />
        <linearGradient id="未命名的渐变_3-3" x1="43.75" y1="52.57" x2="43.75" y2="45.62"
            gradientTransform="translate(-5.35 92.84) rotate(-90)" xlink:href="#未命名的渐变_3" />
        <linearGradient id="未命名的渐变_3-4" x1="49.77" y1="52.57" x2="49.77" y2="45.62"
            gradientTransform="translate(0.68 98.87) rotate(-90)" xlink:href="#未命名的渐变_3" />
        <linearGradient id="未命名的渐变_3-5" x1="55.12" y1="52.57" x2="55.12" y2="45.62"
            gradientTransform="translate(6.03 104.21) rotate(-90)" xlink:href="#未命名的渐变_3" />
        <linearGradient id="未命名的渐变_3-6" x1="60.53" y1="52.57" x2="60.53" y2="45.62"
            gradientTransform="translate(11.44 109.62) rotate(-90)" xlink:href="#未命名的渐变_3" />
        <linearGradient id="未命名的渐变_3-7" x1="75.76" y1="52.57" x2="75.76" y2="45.62"
            gradientTransform="translate(26.67 124.86) rotate(-90)" xlink:href="#未命名的渐变_3" />
        <linearGradient id="未命名的渐变_3-8" x1="81.63" y1="52.57" x2="81.63" y2="45.62"
            gradientTransform="translate(32.53 130.72) rotate(-90)" xlink:href="#未命名的渐变_3" />
    </defs>
    <title>Meter 6(仪表6)</title>
    <g id="图层_2" data-name="图层 2">
        <g id="图层_13" data-name="图层 13">
            <g id="Meter_6_仪表6_" data-name="Meter 6(仪表6)">
                <rect class="cls-1" x="2.4" y="17.18" width="123.83" height="132.33" rx="1.82" />
                <path class="cls-2"
                    d="M9.71,66.17h5.93a0,0,0,0,1,0,0V90.72a.8.8,0,0,1-.8.8H10.51a.8.8,0,0,1-.8-.8V66.17a0,0,0,0,1,0,0Z"
                    transform="translate(91.52 66.17) rotate(90)" />
                <path class="cls-3"
                    d="M114.34,66.17h4.33a.8.8,0,0,1,.8.8V91.52a0,0,0,0,1,0,0h-5.93a0,0,0,0,1,0,0V67A.8.8,0,0,1,114.34,66.17Z"
                    transform="translate(195.35 -37.65) rotate(90)" />
                <rect class="cls-4" x="18.71" y="19.9" width="91.69" height="119.57" rx="1.82" />
                <rect class="cls-5" x="23.91" y="34.08" width="82" height="71.01" rx="1.82" />
                <rect class="cls-6" x="25.95" y="35.85" width="77.19" height="67.58" rx="1.82" />
                <rect class="cls-5" x="44.94" y="33.31" width="8.74" height="31.66"
                    transform="translate(98.46 -0.17) rotate(90)" />
                <rect class="cls-7" x="45.53" y="34.57" width="7.31" height="28.69"
                    transform="translate(98.09 -0.27) rotate(90)" />
                <rect class="cls-8" x="22.04" y="-3.48" width="12.14" height="19.09"
                    transform="translate(34.18 -22.04) rotate(90)" />
                <rect class="cls-9" x="25.51" y="2.08" width="5.24" height="25.35"
                    transform="translate(42.88 -13.37) rotate(90)" />
                <rect class="cls-5" x="76.11" y="33.8" width="8.74" height="30.68"
                    transform="translate(129.63 -31.34) rotate(90)" />
                <rect class="cls-7" x="72.88" y="39.33" width="6.57" height="19.14"
                    transform="translate(125.06 -27.26) rotate(90)" />
                <rect class="cls-10" x="35.11" y="46.7" width="6.95" height="4.78"
                    transform="translate(87.68 10.51) rotate(90)" />
                <rect class="cls-11" x="95.14" y="-3.48" width="12.14" height="19.09"
                    transform="translate(107.27 -95.14) rotate(90)" />
                <rect class="cls-12" x="66.84" y="46.7" width="6.95" height="4.78"
                    transform="translate(119.41 -21.22) rotate(90)" />
                <rect class="cls-13" x="98.61" y="2.08" width="5.24" height="25.35"
                    transform="translate(115.98 -86.47) rotate(90)" />
                <rect class="cls-14" x="40.27" y="46.7" width="6.95" height="4.78"
                    transform="translate(92.84 5.35) rotate(90)" />
                <rect class="cls-15" x="46.3" y="46.7" width="6.95" height="4.78"
                    transform="translate(98.87 -0.68) rotate(90)" />
                <rect class="cls-16" x="51.65" y="46.7" width="6.95" height="4.78"
                    transform="translate(104.21 -6.03) rotate(90)" />
                <rect class="cls-17" x="57.06" y="46.87" width="6.95" height="4.44"
                    transform="translate(109.62 -11.44) rotate(90)" />
                <rect class="cls-18" x="72.29" y="46.87" width="6.95" height="4.46"
                    transform="translate(124.86 -26.67) rotate(90)" />
                <rect class="cls-19" x="78.15" y="46.67" width="6.95" height="4.84"
                    transform="translate(130.72 -32.53) rotate(90)" />
                <rect class="cls-20" x="35.01" y="65.5" width="57.66" height="30.21" />
                
            </g>
        </g>
    </g>
</svg>