<svg xmlns="http://www.w3.org/2000/svg" xmlns:xlink="http://www.w3.org/1999/xlink" viewBox="0 0 150 150">
    <defs>
        <style>
            .cls-1 {
                fill: url(#未命名的渐变_19);
            }

            .cls-2 {
                fill: url(#未命名的渐变_22);
            }

            .cls-3 {
                opacity: 0.2;
            }

            .cls-4 {
                opacity: 0.6;
            }

            .cls-5,
            .cls-6,
            .cls-7,
            .cls-8,
            .cls-9 {
                fill: none;
                stroke: #5ac8f7;
                stroke-miterlimit: 10;
            }

            .cls-5 {
                stroke-width: 4px;
                stroke-dasharray: 1.99 1.99;
            }

            .cls-6 {
                stroke-width: 14px;
            }

            .cls-7 {
                stroke-width: 8px;
            }

            .cls-8 {
                stroke-width: 5px;
            }

            .cls-9 {
                stroke-width: 2px;
                opacity: 0.2;
            }
        </style>
        <radialGradient id="未命名的渐变_19" cx="75" cy="75" r="75" gradientUnits="userSpaceOnUse">
            <stop offset="0" stop-color="#5ac8f7" stop-opacity="0.8" />
            <stop offset="1" stop-color="#5ac8f7" stop-opacity="0.1" />
        </radialGradient>
        <linearGradient id="未命名的渐变_22" x1="75" y1="127.01" x2="75" y2="22.99" gradientUnits="userSpaceOnUse">
            <stop offset="0" stop-color="#5ac8f7" stop-opacity="0.08" />
            <stop offset="0.52" stop-color="#5ac8f7" stop-opacity="0.08" />
            <stop offset="0.6" stop-color="#5ac8f7" stop-opacity="0.08" />
            <stop offset="0.77" stop-color="#5ac8f7" stop-opacity="0.09" />
            <stop offset="0.84" stop-color="#5ac8f7" stop-opacity="0.12" />
            <stop offset="0.89" stop-color="#5ac8f7" stop-opacity="0.17" />
            <stop offset="0.93" stop-color="#5ac8f7" stop-opacity="0.24" />
            <stop offset="0.97" stop-color="#5ac8f7" stop-opacity="0.32" />
            <stop offset="1" stop-color="#5ac8f7" stop-opacity="0.43" />
            <stop offset="1" stop-color="#5ac8f7" stop-opacity="0.45" />
        </linearGradient>
    </defs>
    <title>Meter（仪表）</title>
    <g id="图层_2" data-name="图层 2">
        <g id="风格1">
            <g id="Meter_仪表_" data-name="Meter（仪表）">
                <path class="cls-1"
                    d="M75,0a75,75,0,1,0,75,75A75,75,0,0,0,75,0Zm0,127a52,52,0,1,1,52-52A52,52,0,0,1,75,127Z" />
                <circle class="cls-2" cx="75" cy="75" r="52.01" />
                
                <g class="cls-4">
                    <circle class="cls-5" cx="75" cy="75" r="52.01"
                        transform="translate(-14.55 131.83) rotate(-77.4)" />
                </g>
                <path class="cls-6" d="M125.76,90.4a53.17,53.17,0,0,1-28.83,32.9" />
                <path class="cls-7" d="M48.49,120.93A53,53,0,0,1,22,75" />
                <path class="cls-8" d="M75,22a53,53,0,0,1,53,53" />
                <path class="cls-9" d="M145.4,96.36a73.76,73.76,0,0,1-40,45.62" />
                <path class="cls-9" d="M75,148.54A73.55,73.55,0,0,1,1.46,75" />
                <path class="cls-9" d="M75,1.45A73.55,73.55,0,0,1,148.55,75" />
            </g>
        </g>
    </g>
</svg>