<svg xmlns="http://www.w3.org/2000/svg" xmlns:xlink="http://www.w3.org/1999/xlink" viewBox="0 0 150 74.16">
    <defs>
        <style>
            .cls-1 {
                fill: url(#未命名的渐变_5);
            }

            .cls-2 {
                fill: none;
                stroke: #5b5f66;
                stroke-width: 0.15px;
            }

            .cls-2,
            .cls-6,
            .cls-7,
            .cls-9 {
                stroke-miterlimit: 10;
            }

            .cls-3 {
                fill: url(#未命名的渐变_32);
            }

            .cls-4 {
                fill: url(#未命名的渐变_32-2);
            }

            .cls-5 {
                fill: url(#未命名的渐变_32-3);
            }

            .cls-10,
            .cls-6,
            .cls-7,
            .cls-9 {
                fill: #222a34;
            }

            .cls-6,
            .cls-7,
            .cls-9 {
                stroke-width: 0.26px;
            }

            .cls-6 {
                stroke: url(#未命名的渐变_149);
            }

            .cls-7 {
                stroke: url(#未命名的渐变_149-2);
            }

            .cls-8 {
                fill: url(#未命名的渐变_21);
            }

            .cls-9 {
                stroke: url(#未命名的渐变_149-3);
            }

            .cls-11 {
                fill: url(#未命名的渐变_21-2);
            }

            .cls-12 {
                fill: #2f3133;
                opacity: 0.3;
            }

            .cls-13 {
                fill: url(#未命名的渐变_21-3);
            }

            .cls-14 {
                fill: url(#未命名的渐变_21-4);
            }

            .cls-15 {
                fill: url(#未命名的渐变_21-5);
            }

            .cls-16 {
                opacity: 0.2;
            }
        </style>
        <linearGradient id="未命名的渐变_5" x1="137.27" y1="-12.73" x2="37.64" y2="86.89"
            gradientTransform="matrix(-1, 0, 0, 1, 150, 0)" gradientUnits="userSpaceOnUse">
            <stop offset="0" stop-color="#d7dce0" />
            <stop offset="1" stop-color="#8a9099" />
        </linearGradient>
        <linearGradient id="未命名的渐变_32" x1="29.73" y1="9.99" x2="10.33" y2="29.38"
            gradientTransform="matrix(1, 0, 0, -1, 109.93, 39.37)" gradientUnits="userSpaceOnUse">
            <stop offset="0" stop-color="#abafb3" />
            <stop offset="1" stop-color="#45484d" />
        </linearGradient>
        <linearGradient id="未命名的渐变_32-2" x1="19.01" y1="8.86" x2="-0.39" y2="28.26"
            gradientTransform="matrix(-1, 0, 0, 1, 150, 0)" xlink:href="#未命名的渐变_32" />
        <linearGradient id="未命名的渐变_32-3" x1="29.99" y1="45.36" x2="11.13" y2="64.23"
            gradientTransform="matrix(-1, 0, 0, 1, 150, 0)" xlink:href="#未命名的渐变_32" />
        <linearGradient id="未命名的渐变_149" x1="-117.41" y1="11.51" x2="-117.41" y2="8.43"
            gradientTransform="translate(246.19)" gradientUnits="userSpaceOnUse">
            <stop offset="0" stop-color="#ccd1d5" />
            <stop offset="1" stop-color="#90969f" />
        </linearGradient>
        <linearGradient id="未命名的渐变_149-2" x1="-117.41" y1="21.23" x2="-117.41" y2="18.14" xlink:href="#未命名的渐变_149" />
        <linearGradient id="未命名的渐变_21" x1="127.97" y1="19.69" x2="129.59" y2="19.69" gradientUnits="userSpaceOnUse">
            <stop offset="0" stop-color="#767b82" />
            <stop offset="0.07" stop-color="#9ba1ab" />
            <stop offset="0.22" stop-color="#e2eaf2" />
            <stop offset="0.68" stop-color="#45484d" />
            <stop offset="1" stop-color="#8a9199" />
        </linearGradient>
        <linearGradient id="未命名的渐变_149-3" x1="-117.41" y1="30.37" x2="-117.41" y2="27.29" xlink:href="#未命名的渐变_149" />
        <linearGradient id="未命名的渐变_21-2" x1="17.34" y1="36.19" x2="19.43" y2="36.19" xlink:href="#未命名的渐变_21" />
        <linearGradient id="未命名的渐变_21-3" x1="52.2" y1="36.19" x2="54.29" y2="36.19" xlink:href="#未命名的渐变_21" />
        <linearGradient id="未命名的渐变_21-4" x1="73.32" y1="36.19" x2="75.42" y2="36.19" xlink:href="#未命名的渐变_21" />
        <linearGradient id="未命名的渐变_21-5" x1="105.01" y1="36.19" x2="107.11" y2="36.19" xlink:href="#未命名的渐变_21" />
    </defs>
    <title>Air handing unit1(空调箱1)</title>
    <g id="图层_2" data-name="图层 2">
        <g id="图层_6" data-name="图层 6">
            <g id="Air_handing_unit1_空调箱1_" data-name="Air handing unit1(空调箱1)">
                <rect class="cls-1" width="125.09" height="74.16" />
                <rect class="cls-2" x="5.48" y="4.51" width="26.37" height="65.14"
                    transform="translate(37.32 74.16) rotate(-180)" />
                <rect class="cls-2" x="89.07" y="4.51" width="30.54" height="65.14"
                    transform="translate(208.69 74.16) rotate(-180)" />
                <rect class="cls-2" x="31.84" y="4.51" width="14.63" height="65.14"
                    transform="translate(78.32 74.16) rotate(-180)" />
                <rect class="cls-2" x="46.47" y="4.51" width="14.51" height="65.14"
                    transform="translate(107.45 74.16) rotate(-180)" />
                <rect class="cls-2" x="60.98" y="4.51" width="28.09" height="65.14"
                    transform="translate(150.05 74.16) rotate(-180)" />
                <rect class="cls-3" x="125.09" y="5.16" width="9.75" height="29.04"
                    transform="translate(259.93 39.37) rotate(-180)" />
                <polygon class="cls-4" points="134.69 34.21 143.38 35.27 150 6.22 134.69 5.16 134.69 34.21" />
                <polygon class="cls-5" points="125.09 69.32 132.73 70.37 134.84 41.33 125.09 40.27 125.09 69.32" />
                <circle class="cls-6" cx="128.78" cy="9.97" r="1.41" />
                <circle class="cls-7" cx="128.78" cy="19.69" r="1.41" />
                <circle class="cls-8" cx="128.78" cy="19.69" r="0.81" />
                <circle class="cls-9" cx="128.78" cy="28.83" r="1.41" />
                <rect class="cls-10" x="8.13" y="3.46" width="1.92" height="2.31" />
                <rect class="cls-10" x="28.56" y="3.46" width="1.92" height="2.31" />
                <rect class="cls-10" x="48.63" y="3.46" width="1.92" height="2.31" />
                <rect class="cls-10" x="57.08" y="3.46" width="1.92" height="2.31" />
                <rect class="cls-10" x="63.42" y="3.46" width="1.92" height="2.31" />
                <rect class="cls-10" x="84.54" y="3.46" width="1.92" height="2.31" />
                <rect class="cls-10" x="90.88" y="3.46" width="1.92" height="2.31" />
                <rect class="cls-10" x="116.23" y="3.46" width="1.92" height="2.31" />
                <rect class="cls-10" x="8.13" y="68.41" width="1.92" height="2.31" />
                <rect class="cls-10" x="28.56" y="68.41" width="1.92" height="2.31" />
                <rect class="cls-10" x="48.63" y="68.41" width="1.92" height="2.31" />
                <rect class="cls-10" x="57.08" y="68.41" width="1.92" height="2.31" />
                <rect class="cls-10" x="63.42" y="68.41" width="1.92" height="2.31" />
                <rect class="cls-10" x="84.54" y="68.41" width="1.92" height="2.31" />
                <rect class="cls-10" x="90.88" y="68.41" width="1.92" height="2.31" />
                <rect class="cls-10" x="116.23" y="68.41" width="1.92" height="2.31" />
                <rect class="cls-11" x="17.34" y="30.34" width="2.1" height="11.7" rx="1.05" />
                <path class="cls-12"
                    d="M18.39,30.34h0a1,1,0,0,1,1,1v2.06a0,0,0,0,1,0,0h-2.1a0,0,0,0,1,0,0V31.38A1,1,0,0,1,18.39,30.34Z" />
                <path class="cls-12"
                    d="M17.34,38.91h2.1a0,0,0,0,1,0,0V41a1,1,0,0,1-1,1h0a1,1,0,0,1-1-1V38.91A0,0,0,0,1,17.34,38.91Z" />
                <rect class="cls-13" x="52.2" y="30.34" width="2.1" height="11.7" rx="1.05" />
                <path class="cls-12"
                    d="M53.24,30.34h0a1,1,0,0,1,1,1v2.06a0,0,0,0,1,0,0H52.2a0,0,0,0,1,0,0V31.38A1,1,0,0,1,53.24,30.34Z" />
                <path class="cls-12"
                    d="M52.2,38.91h2.1a0,0,0,0,1,0,0V41a1,1,0,0,1-1,1h0a1,1,0,0,1-1-1V38.91A0,0,0,0,1,52.2,38.91Z" />
                <rect class="cls-14" x="73.32" y="30.34" width="2.1" height="11.7" rx="1.05" />
                <path class="cls-12"
                    d="M74.37,30.34h0a1,1,0,0,1,1,1v2.06a0,0,0,0,1,0,0h-2.1a0,0,0,0,1,0,0V31.38A1,1,0,0,1,74.37,30.34Z" />
                <path class="cls-12"
                    d="M73.32,38.91h2.1a0,0,0,0,1,0,0V41a1,1,0,0,1-1,1h0a1,1,0,0,1-1-1V38.91a0,0,0,0,1,0,0Z" />
                <rect class="cls-15" x="105.01" y="30.34" width="2.1" height="11.7" rx="1.05" />
                <path class="cls-12"
                    d="M106.06,30.34h0a1,1,0,0,1,1,1v2.06a0,0,0,0,1,0,0H105a0,0,0,0,1,0,0V31.38A1,1,0,0,1,106.06,30.34Z" />
                <path class="cls-12"
                    d="M105,38.91h2.1a0,0,0,0,1,0,0V41a1,1,0,0,1-1,1h0a1,1,0,0,1-1-1V38.91A0,0,0,0,1,105,38.91Z" />

            </g>
        </g>
    </g>
</svg>