<svg xmlns="http://www.w3.org/2000/svg" xmlns:xlink="http://www.w3.org/1999/xlink" viewBox="0 0 48.86 149.21">
    <defs>
        <style>
            .cls-1 {
                fill: url(#未命名的渐变_143);
            }

            .cls-2 {
                fill: url(#未命名的渐变_143-2);
            }

            .cls-3 {
                fill: url(#未命名的渐变_143-3);
            }

            .cls-4 {
                fill: url(#未命名的渐变_143-4);
            }

            .cls-5 {
                fill: url(#未命名的渐变_143-5);
            }

            .cls-6 {
                fill: url(#未命名的渐变_143-6);
            }

            .cls-7 {
                fill: #dadbe0;
            }

            .cls-8 {
                fill: url(#未命名的渐变_143-7);
            }

            .cls-9 {
                fill: url(#未命名的渐变_143-8);
            }

            .cls-10 {
                fill: url(#未命名的渐变_143-9);
            }

            .cls-11 {
                fill: url(#未命名的渐变_143-10);
            }

            .cls-12 {
                fill: url(#未命名的渐变_143-11);
            }

            .cls-13 {
                fill: url(#未命名的渐变_143-12);
            }

            .cls-14 {
                fill: url(#未命名的渐变_143-13);
            }

            .cls-15 {
                fill: url(#未命名的渐变_143-14);
            }

            .cls-16 {
                fill: url(#未命名的渐变_143-15);
            }

            .cls-17 {
                fill: url(#未命名的渐变_105);
            }

            .cls-18 {
                opacity: 0.2;
            }
        </style>
        <linearGradient id="未命名的渐变_143" x1="6.45" y1="1548.91" x2="36.09" y2="1548.91"
            gradientTransform="matrix(1, 0, 0, -2.95, 0, 4572.79)" gradientUnits="userSpaceOnUse">
            <stop offset="0" stop-color="#b7b7b7" />
            <stop offset="0.03" stop-color="#9b9d9d" />
            <stop offset="0.07" stop-color="#878b8b" />
            <stop offset="0.09" stop-color="#808484" />
            <stop offset="0.2" stop-color="#a3a6a6" />
            <stop offset="0.49" stop-color="#f6f6f6" />
            <stop offset="0.61" stop-color="#f3f3f3" />
            <stop offset="0.7" stop-color="#eaeaea" />
            <stop offset="0.77" stop-color="#dbdbdb" />
            <stop offset="0.83" stop-color="#c5c5c5" />
            <stop offset="0.9" stop-color="#aaa" />
            <stop offset="0.95" stop-color="#888" />
            <stop offset="1" stop-color="#666" />
        </linearGradient>
        <linearGradient id="未命名的渐变_143-2" x1="5.49" y1="1548.88" x2="7.41" y2="1548.88" xlink:href="#未命名的渐变_143" />
        <linearGradient id="未命名的渐变_143-3" x1="7.84" y1="1543.41" x2="7.84" y2="1544.95" xlink:href="#未命名的渐变_143" />
        <linearGradient id="未命名的渐变_143-4" x1="0" y1="93.89" x2="42.69" y2="93.89"
            gradientTransform="matrix(1, 0, 0, 1, 0, 0)" xlink:href="#未命名的渐变_143" />
        <linearGradient id="未命名的渐变_143-5" x1="3.2" y1="1542.41" x2="3.2" y2="1545.98" xlink:href="#未命名的渐变_143" />
        <linearGradient id="未命名的渐变_143-6" x1="9.87" y1="1542.72" x2="32.73" y2="1542.72" xlink:href="#未命名的渐变_143" />
        <linearGradient id="未命名的渐变_143-7" x1="9.17" y1="1548.88" x2="11.09" y2="1548.88" xlink:href="#未命名的渐变_143" />
        <linearGradient id="未命名的渐变_143-8" x1="7.41" y1="1551.13" x2="34.94" y2="1551.13" xlink:href="#未命名的渐变_143" />
        <linearGradient id="未命名的渐变_143-9" x1="12.85" y1="1548.88" x2="14.77" y2="1548.88" xlink:href="#未命名的渐变_143" />
        <linearGradient id="未命名的渐变_143-10" x1="16.53" y1="1548.88" x2="18.45" y2="1548.88" xlink:href="#未命名的渐变_143" />
        <linearGradient id="未命名的渐变_143-11" x1="20.22" y1="1548.88" x2="22.13" y2="1548.88" xlink:href="#未命名的渐变_143" />
        <linearGradient id="未命名的渐变_143-12" x1="23.9" y1="1548.88" x2="25.81" y2="1548.88" xlink:href="#未命名的渐变_143" />
        <linearGradient id="未命名的渐变_143-13" x1="27.58" y1="1548.88" x2="29.49" y2="1548.88" xlink:href="#未命名的渐变_143" />
        <linearGradient id="未命名的渐变_143-14" x1="31.26" y1="1548.88" x2="33.17" y2="1548.88" xlink:href="#未命名的渐变_143" />
        <linearGradient id="未命名的渐变_143-15" x1="34.94" y1="1548.88" x2="36.85" y2="1548.88" xlink:href="#未命名的渐变_143" />
        <linearGradient id="未命名的渐变_105" x1="11.06" y1="49.3" x2="13.96" y2="49.3" gradientUnits="userSpaceOnUse">
            <stop offset="0" stop-color="#e2e2e2" />
            <stop offset="0.03" stop-color="#d0d0d0" />
            <stop offset="0.06" stop-color="#bcbcbc" />
            <stop offset="0.09" stop-color="#b5b5b5" />
            <stop offset="0.49" stop-color="#f6f6f6" />
            <stop offset="0.63" stop-color="#f3f3f3" />
            <stop offset="0.73" stop-color="#eaeaea" />
            <stop offset="0.82" stop-color="#dbdbdb" />
            <stop offset="0.9" stop-color="#c6c6c6" />
            <stop offset="0.97" stop-color="#aaa" />
            <stop offset="1" stop-color="#9b9b9b" />
        </linearGradient>
    </defs>
    <title>Air cylinder（气缸）</title>
    <g id="图层_2" data-name="图层 2">
        <g id="图层_104" data-name="图层 104">
            <g id="Air_cylinder_气缸_" data-name="Air cylinder（气缸）">
                <rect class="cls-1" x="6.45" y="2.07" width="29.64" height="10.98" />
                <rect class="cls-2" x="5.49" y="3.1" width="1.91" height="9.14" />
                <rect class="cls-3" x="5.82" y="19.24" width="4.05" height="4.54" />
                <path class="cls-4"
                    d="M35.22,45c-1.1-1.22-2.6-6.47-2.6-6.47H9.87a50.31,50.31,0,0,1-2.43,6.36C6.19,47,2.83,49.87,1.68,52.22A18.41,18.41,0,0,0,0,59.36v76.75s-.59,8.21,3.4,10.49C9.3,150,31.64,150,38.2,147.15c4.82-2.09,4.48-11,4.48-11V59.36s-.36-4.52-1.31-6.34S38.72,48.94,35.22,45Z" />
                <rect class="cls-5" x="0.57" y="16.21" width="5.25" height="10.53" />
                <rect class="cls-6" x="9.87" y="13.06" width="22.87" height="25.51" />
                <rect class="cls-7" x="7.76" y="59.43" width="34.92" height="75.43" />
                <rect class="cls-8" x="9.17" y="3.1" width="1.91" height="9.14" />
                <rect class="cls-9" x="7.41" width="27.53" height="2.07" />
                <rect class="cls-10" x="12.85" y="3.1" width="1.91" height="9.14" />
                <rect class="cls-11" x="16.53" y="3.1" width="1.91" height="9.14" />
                <rect class="cls-12" x="20.22" y="3.1" width="1.91" height="9.14" />
                <rect class="cls-13" x="23.9" y="3.1" width="1.91" height="9.14" />
                <rect class="cls-14" x="27.58" y="3.1" width="1.91" height="9.14" />
                <rect class="cls-15" x="31.26" y="3.1" width="1.91" height="9.14" />
                <rect class="cls-16" x="34.94" y="3.1" width="1.91" height="9.14" />
                <path class="cls-17" d="M12.51,50.8a1.5,1.5,0,0,0,0-3,1.5,1.5,0,0,0,0,3Z" />
                
            </g>
        </g>
    </g>
</svg>