<svg xmlns="http://www.w3.org/2000/svg" xmlns:xlink="http://www.w3.org/1999/xlink" viewBox="0 0 150.39 138.21">
    <defs>
        <style>
            .cls-1 {
                fill: url(#未命名的渐变_105);
            }

            .cls-2 {
                fill: url(#未命名的渐变_105-2);
            }

            .cls-3 {
                fill: url(#未命名的渐变_105-3);
            }

            .cls-4 {
                fill: url(#未命名的渐变_105-4);
            }

            .cls-5 {
                fill: url(#未命名的渐变_105-5);
            }

            .cls-6 {
                fill: url(#未命名的渐变_105-6);
            }

            .cls-7 {
                fill: url(#未命名的渐变_105-7);
            }

            .cls-8 {
                fill: url(#未命名的渐变_105-8);
            }

            .cls-9 {
                fill: url(#未命名的渐变_105-9);
            }

            .cls-10 {
                fill: url(#未命名的渐变_105-10);
            }

            .cls-11 {
                fill: url(#未命名的渐变_105-11);
            }

            .cls-12 {
                fill: url(#未命名的渐变_105-12);
            }

            .cls-13 {
                fill: url(#未命名的渐变_105-13);
            }

            .cls-14 {
                fill: url(#未命名的渐变_105-14);
            }

            .cls-15 {
                fill: url(#未命名的渐变_67);
            }

            .cls-16 {
                fill: url(#未命名的渐变_67-2);
            }

            .cls-17 {
                fill: url(#未命名的渐变_67-3);
            }

            .cls-18 {
                fill: url(#未命名的渐变_67-4);
            }

            .cls-19 {
                fill: url(#未命名的渐变_67-5);
            }

            .cls-20 {
                fill: url(#未命名的渐变_67-6);
            }

            .cls-21 {
                fill: url(#未命名的渐变_67-7);
            }

            .cls-22 {
                fill: url(#未命名的渐变_67-8);
            }

            .cls-23 {
                fill: url(#未命名的渐变_67-9);
            }

            .cls-24 {
                fill: url(#未命名的渐变_67-10);
            }

            .cls-25 {
                fill: url(#未命名的渐变_67-11);
            }

            .cls-26 {
                fill: url(#未命名的渐变_67-12);
            }

            .cls-27 {
                fill: url(#未命名的渐变_105-15);
            }

            .cls-28 {
                fill: url(#未命名的渐变_67-13);
            }

            .cls-29 {
                fill: url(#未命名的渐变_105-16);
            }

            .cls-30 {
                fill: url(#未命名的渐变_67-14);
            }

            .cls-31 {
                fill: url(#未命名的渐变_105-17);
            }

            .cls-32 {
                fill: url(#未命名的渐变_67-15);
            }

            .cls-33 {
                fill: url(#未命名的渐变_105-18);
            }

            .cls-34 {
                fill: url(#未命名的渐变_67-16);
            }

            .cls-35 {
                fill: url(#未命名的渐变_105-19);
            }

            .cls-36 {
                fill: url(#未命名的渐变_67-17);
            }

            .cls-37 {
                fill: url(#未命名的渐变_105-20);
            }

            .cls-38 {
                fill: url(#未命名的渐变_67-18);
            }

            .cls-39 {
                fill: url(#未命名的渐变_105-21);
            }

            .cls-40 {
                fill: url(#未命名的渐变_67-19);
            }

            .cls-41 {
                fill: url(#未命名的渐变_67-20);
            }

            .cls-42 {
                fill: url(#未命名的渐变_67-21);
            }

            .cls-43 {
                fill: url(#未命名的渐变_105-22);
            }

            .cls-44 {
                fill: url(#未命名的渐变_105-23);
            }

            .cls-45 {
                fill: url(#未命名的渐变_67-22);
            }

            .cls-46 {
                fill: url(#未命名的渐变_67-23);
            }

            .cls-47 {
                fill: url(#未命名的渐变_67-24);
            }

            .cls-48 {
                fill: url(#未命名的渐变_67-25);
            }

            .cls-49 {
                fill: url(#未命名的渐变_67-26);
            }

            .cls-50 {
                fill: url(#未命名的渐变_67-27);
            }

            .cls-51 {
                fill: url(#未命名的渐变_67-28);
            }

            .cls-52 {
                fill: url(#未命名的渐变_67-29);
            }

            .cls-53 {
                fill: url(#未命名的渐变_67-30);
            }

            .cls-54 {
                fill: url(#未命名的渐变_67-31);
            }

            .cls-55 {
                fill: url(#未命名的渐变_67-32);
            }

            .cls-56 {
                fill: url(#未命名的渐变_67-33);
            }

            .cls-57 {
                fill: url(#未命名的渐变_67-34);
            }

            .cls-58 {
                fill: url(#未命名的渐变_67-35);
            }

            .cls-59 {
                opacity: 0.2;
            }
        </style>
        <linearGradient id="未命名的渐变_105" x1="2.25" y1="67.61" x2="148.38" y2="67.61" gradientUnits="userSpaceOnUse">
            <stop offset="0" stop-color="#e2e2e2" />
            <stop offset="0.03" stop-color="#d0d0d0" />
            <stop offset="0.06" stop-color="#bcbcbc" />
            <stop offset="0.09" stop-color="#b5b5b5" />
            <stop offset="0.49" stop-color="#f6f6f6" />
            <stop offset="0.63" stop-color="#f3f3f3" />
            <stop offset="0.73" stop-color="#eaeaea" />
            <stop offset="0.82" stop-color="#dbdbdb" />
            <stop offset="0.9" stop-color="#c6c6c6" />
            <stop offset="0.97" stop-color="#aaa" />
            <stop offset="1" stop-color="#9b9b9b" />
        </linearGradient>
        <linearGradient id="未命名的渐变_105-2" x1="2.13" y1="44.67" x2="4.54" y2="44.67" xlink:href="#未命名的渐变_105" />
        <linearGradient id="未命名的渐变_105-3" x1="-301.6" y1="-974.07" x2="-299.41" y2="-974.07"
            gradientTransform="translate(375.9 1015.64)" xlink:href="#未命名的渐变_105" />
        <linearGradient id="未命名的渐变_105-4" x1="10.11" y1="44.67" x2="12.52" y2="44.67" xlink:href="#未命名的渐变_105" />
        <linearGradient id="未命名的渐变_105-5" x1="18.23" y1="44.67" x2="20.65" y2="44.67" xlink:href="#未命名的渐变_105" />
        <linearGradient id="未命名的渐变_105-6" x1="26.36" y1="44.67" x2="28.77" y2="44.67" xlink:href="#未命名的渐变_105" />
        <linearGradient id="未命名的渐变_105-7" x1="34.48" y1="44.67" x2="36.9" y2="44.67" xlink:href="#未命名的渐变_105" />
        <linearGradient id="未命名的渐变_105-8" x1="42.61" y1="44.67" x2="45.02" y2="44.67" xlink:href="#未命名的渐变_105" />
        <linearGradient id="未命名的渐变_105-9" x1="50.73" y1="44.67" x2="53.14" y2="44.67" xlink:href="#未命名的渐变_105" />
        <linearGradient id="未命名的渐变_105-10" x1="58.85" y1="44.67" x2="61.27" y2="44.67" xlink:href="#未命名的渐变_105" />
        <linearGradient id="未命名的渐变_105-11" x1="66.98" y1="44.67" x2="69.39" y2="44.67" xlink:href="#未命名的渐变_105" />
        <linearGradient id="未命名的渐变_105-12" x1="75.16" y1="44.67" x2="77.57" y2="44.67" xlink:href="#未命名的渐变_105" />
        <linearGradient id="未命名的渐变_105-13" x1="83.23" y1="44.67" x2="85.64" y2="44.67" xlink:href="#未命名的渐变_105" />
        <linearGradient id="未命名的渐变_105-14" x1="91.35" y1="44.67" x2="93.76" y2="44.67" xlink:href="#未命名的渐变_105" />
        <linearGradient id="未命名的渐变_67" x1="2.84" y1="41.57" x2="4.44" y2="41.57" gradientUnits="userSpaceOnUse">
            <stop offset="0" stop-color="#6b6b6b" />
            <stop offset="0.11" stop-color="#767676" />
            <stop offset="0.3" stop-color="#959595" />
            <stop offset="0.41" stop-color="#aaa" />
            <stop offset="0.56" stop-color="#ccc" />
            <stop offset="0.71" stop-color="#eaeaea" />
            <stop offset="0.8" stop-color="#f6f6f6" />
            <stop offset="0.83" stop-color="#ededed" />
            <stop offset="0.87" stop-color="#d4d4d4" />
            <stop offset="0.92" stop-color="#ababab" />
            <stop offset="0.98" stop-color="#737373" />
            <stop offset="0.99" stop-color="#666" />
        </linearGradient>
        <linearGradient id="未命名的渐变_67-2" x1="10.82" y1="41.57" x2="12.42" y2="41.57" xlink:href="#未命名的渐变_67" />
        <linearGradient id="未命名的渐变_67-3" x1="18.94" y1="41.57" x2="20.55" y2="41.57" xlink:href="#未命名的渐变_67" />
        <linearGradient id="未命名的渐变_67-4" x1="27.06" y1="41.57" x2="28.67" y2="41.57" xlink:href="#未命名的渐变_67" />
        <linearGradient id="未命名的渐变_67-5" x1="35.19" y1="41.57" x2="36.8" y2="41.57" xlink:href="#未命名的渐变_67" />
        <linearGradient id="未命名的渐变_67-6" x1="43.31" y1="41.57" x2="44.92" y2="41.57" xlink:href="#未命名的渐变_67" />
        <linearGradient id="未命名的渐变_67-7" x1="51.44" y1="41.57" x2="53.04" y2="41.57" xlink:href="#未命名的渐变_67" />
        <linearGradient id="未命名的渐变_67-8" x1="59.56" y1="41.57" x2="61.17" y2="41.57" xlink:href="#未命名的渐变_67" />
        <linearGradient id="未命名的渐变_67-9" x1="67.68" y1="41.57" x2="69.29" y2="41.57" xlink:href="#未命名的渐变_67" />
        <linearGradient id="未命名的渐变_67-10" x1="75.81" y1="41.57" x2="77.42" y2="41.57" xlink:href="#未命名的渐变_67" />
        <linearGradient id="未命名的渐变_67-11" x1="83.93" y1="41.57" x2="85.54" y2="41.57" xlink:href="#未命名的渐变_67" />
        <linearGradient id="未命名的渐变_67-12" x1="92.06" y1="41.57" x2="93.66" y2="41.57" xlink:href="#未命名的渐变_67" />
        <linearGradient id="未命名的渐变_105-15" x1="99.05" y1="44.67" x2="101.47" y2="44.67" xlink:href="#未命名的渐变_105" />
        <linearGradient id="未命名的渐变_67-13" x1="99.76" y1="41.57" x2="101.37" y2="41.57" xlink:href="#未命名的渐变_67" />
        <linearGradient id="未命名的渐变_105-16" x1="106.75" y1="44.67" x2="109.17" y2="44.67" xlink:href="#未命名的渐变_105" />
        <linearGradient id="未命名的渐变_67-14" x1="107.46" y1="41.57" x2="109.07" y2="41.57" xlink:href="#未命名的渐变_67" />
        <linearGradient id="未命名的渐变_105-17" x1="114.46" y1="44.67" x2="116.87" y2="44.67" xlink:href="#未命名的渐变_105" />
        <linearGradient id="未命名的渐变_67-15" x1="115.16" y1="41.57" x2="116.77" y2="41.57" xlink:href="#未命名的渐变_67" />
        <linearGradient id="未命名的渐变_105-18" x1="122.16" y1="44.67" x2="124.57" y2="44.67" xlink:href="#未命名的渐变_105" />
        <linearGradient id="未命名的渐变_67-16" x1="122.86" y1="41.57" x2="124.47" y2="41.57" xlink:href="#未命名的渐变_67" />
        <linearGradient id="未命名的渐变_105-19" x1="129.86" y1="44.67" x2="132.27" y2="44.67" xlink:href="#未命名的渐变_105" />
        <linearGradient id="未命名的渐变_67-17" x1="130.57" y1="41.57" x2="132.17" y2="41.57" xlink:href="#未命名的渐变_67" />
        <linearGradient id="未命名的渐变_105-20" x1="137.56" y1="44.67" x2="139.97" y2="44.67" xlink:href="#未命名的渐变_105" />
        <linearGradient id="未命名的渐变_67-18" x1="138.27" y1="41.57" x2="139.87" y2="41.57" xlink:href="#未命名的渐变_67" />
        <linearGradient id="未命名的渐变_105-21" x1="145.26" y1="44.67" x2="147.68" y2="44.67" xlink:href="#未命名的渐变_105" />
        <linearGradient id="未命名的渐变_67-19" x1="145.97" y1="41.57" x2="147.58" y2="41.57" xlink:href="#未命名的渐变_67" />
        <linearGradient id="未命名的渐变_67-20" x1="0" y1="55.88" x2="150.39" y2="55.88" xlink:href="#未命名的渐变_67" />
        <linearGradient id="未命名的渐变_67-21" x1="1.06" y1="132.82" x2="148.86" y2="132.82" xlink:href="#未命名的渐变_67" />
        <linearGradient id="未命名的渐变_105-22" x1="0.15" y1="136.11" x2="150.04" y2="136.11" xlink:href="#未命名的渐变_105" />
        <linearGradient id="未命名的渐变_105-23" x1="0" y1="55.56" x2="150.39" y2="55.56" xlink:href="#未命名的渐变_105" />
        <linearGradient id="未命名的渐变_67-22" x1="2.92" y1="76.5" x2="4.18" y2="76.5" xlink:href="#未命名的渐变_67" />
        <linearGradient id="未命名的渐变_67-23" x1="10.53" y1="80.5" x2="11.79" y2="80.5" xlink:href="#未命名的渐变_67" />
        <linearGradient id="未命名的渐变_67-24" x1="18.59" y1="84.94" x2="19.84" y2="84.94" xlink:href="#未命名的渐变_67" />
        <linearGradient id="未命名的渐变_67-25" x1="26.88" y1="88.95" x2="28.14" y2="88.95" xlink:href="#未命名的渐变_67" />
        <linearGradient id="未命名的渐变_67-26" x1="34.79" y1="94.01" x2="36.05" y2="94.01" xlink:href="#未命名的渐变_67" />
        <linearGradient id="未命名的渐变_67-27" x1="43.33" y1="99.08" x2="44.59" y2="99.08" xlink:href="#未命名的渐变_67" />
        <linearGradient id="未命名的渐变_67-28" x1="51.24" y1="104.15" x2="52.5" y2="104.15" xlink:href="#未命名的渐变_67" />
        <linearGradient id="未命名的渐变_67-29" x1="59.15" y1="109.21" x2="60.41" y2="109.21" xlink:href="#未命名的渐变_67" />
        <linearGradient id="未命名的渐变_67-30" x1="67.06" y1="114.28" x2="68.32" y2="114.28" xlink:href="#未命名的渐变_67" />
        <linearGradient id="未命名的渐变_67-31" x1="75.81" y1="118.69" x2="77.07" y2="118.69" xlink:href="#未命名的渐变_67" />
        <linearGradient id="未命名的渐变_67-32" x1="83.49" y1="122.56" x2="84.74" y2="122.56" xlink:href="#未命名的渐变_67" />
        <linearGradient id="未命名的渐变_67-33" x1="91.16" y1="126.43" x2="92.42" y2="126.43" xlink:href="#未命名的渐变_67" />
        <linearGradient id="未命名的渐变_67-34" x1="479.17" y1="-103.29" x2="479.17" y2="-45.96"
            gradientTransform="matrix(-0.39, 0, 0, 1.47, 238.19, 232.91)" xlink:href="#未命名的渐变_67" />
        <linearGradient id="未命名的渐变_67-35" x1="1985.74" y1="-109.23" x2="1985.74" y2="-51.9"
            gradientTransform="matrix(-0.15, 0, 0, 1.48, 339.99, 233.57)" xlink:href="#未命名的渐变_67" />
    </defs>
    <title>Storage facility 1（储存设施）</title>
    <g id="图层_2" data-name="图层 2">
        <g id="图层_104" data-name="图层 104">
            <g id="Storage_facility_1_储存设施_" data-name="Storage facility 1（储存设施）">
                <path class="cls-1"
                    d="M148.38,135.21H2.25V53.55S47,14,63.43,4.52C66.09,3,74.35,0,74.35,0A62.5,62.5,0,0,1,90.63,7.3c6.29,4.17,57.75,46.25,57.75,46.25Z" />
                <rect class="cls-2" x="2.13" y="37.6" width="2.41" height="14.15" />
                <rect class="cls-3" x="74.3" y="-32.27" width="2.19" height="147.68"
                    transform="translate(116.96 -33.83) rotate(90)" />
                <rect class="cls-4" x="10.11" y="37.6" width="2.41" height="14.15" />
                <rect class="cls-5" x="18.23" y="37.6" width="2.41" height="14.15" />
                <rect class="cls-6" x="26.36" y="37.6" width="2.41" height="14.15" />
                <rect class="cls-7" x="34.48" y="37.6" width="2.41" height="14.15" />
                <rect class="cls-8" x="42.61" y="37.6" width="2.41" height="14.15" />
                <rect class="cls-9" x="50.73" y="37.6" width="2.41" height="14.15" />
                <rect class="cls-10" x="58.85" y="37.6" width="2.41" height="14.15" />
                <rect class="cls-11" x="66.98" y="37.6" width="2.41" height="14.15" />
                <rect class="cls-12" x="75.16" y="37.6" width="2.41" height="14.15" />
                <rect class="cls-13" x="83.23" y="37.6" width="2.41" height="14.15" />
                <rect class="cls-14" x="91.35" y="37.6" width="2.41" height="14.15" />
                <ellipse class="cls-15" cx="3.34" cy="41.57" rx="1.07" ry="1.09" />
                <ellipse class="cls-16" cx="11.32" cy="41.57" rx="1.07" ry="1.09" />
                <ellipse class="cls-17" cx="19.44" cy="41.57" rx="1.07" ry="1.09" />
                <ellipse class="cls-18" cx="27.57" cy="41.57" rx="1.07" ry="1.09" />
                <ellipse class="cls-19" cx="35.69" cy="41.57" rx="1.07" ry="1.09" />
                <ellipse class="cls-20" cx="43.81" cy="41.57" rx="1.07" ry="1.09" />
                <ellipse class="cls-21" cx="51.94" cy="41.57" rx="1.07" ry="1.09" />
                <ellipse class="cls-22" cx="60.06" cy="41.57" rx="1.07" ry="1.09" />
                <ellipse class="cls-23" cx="68.19" cy="41.57" rx="1.07" ry="1.09" />
                <ellipse class="cls-24" cx="76.31" cy="41.57" rx="1.07" ry="1.09" />
                <ellipse class="cls-25" cx="84.43" cy="41.57" rx="1.07" ry="1.09" />
                <ellipse class="cls-26" cx="92.56" cy="41.57" rx="1.07" ry="1.09" />
                <rect class="cls-27" x="99.05" y="37.6" width="2.41" height="14.15" />
                <ellipse class="cls-28" cx="100.26" cy="41.57" rx="1.07" ry="1.09" />
                <rect class="cls-29" x="106.75" y="37.6" width="2.41" height="14.15" />
                <ellipse class="cls-30" cx="107.96" cy="41.57" rx="1.07" ry="1.09" />
                <rect class="cls-31" x="114.46" y="37.6" width="2.41" height="14.15" />
                <ellipse class="cls-32" cx="115.66" cy="41.57" rx="1.07" ry="1.09" />
                <rect class="cls-33" x="122.16" y="37.6" width="2.41" height="14.15" />
                <ellipse class="cls-34" cx="123.36" cy="41.57" rx="1.07" ry="1.09" />
                <rect class="cls-35" x="129.86" y="37.6" width="2.41" height="14.15" />
                <ellipse class="cls-36" cx="131.07" cy="41.57" rx="1.07" ry="1.09" />
                <rect class="cls-37" x="137.56" y="37.6" width="2.41" height="14.15" />
                <ellipse class="cls-38" cx="138.77" cy="41.57" rx="1.07" ry="1.09" />
                <rect class="cls-39" x="145.26" y="37.6" width="2.41" height="14.15" />
                <ellipse class="cls-40" cx="146.47" cy="41.57" rx="1.07" ry="1.09" />
                <rect class="cls-41" y="51.75" width="150.39" height="8.27" />
                <rect class="cls-42" x="1.06" y="131.63" width="147.8" height="2.38" />
                <rect class="cls-43" x="0.15" y="134.01" width="149.88" height="4.2" rx="0.32" />
                <rect class="cls-44" y="53.81" width="150.39" height="3.49" />
                <rect class="cls-45" x="2.48" y="71.43" width="1.67" height="10.13" />
                <rect class="cls-46" x="10.09" y="75.43" width="1.67" height="10.13" />
                <rect class="cls-47" x="18.14" y="79.88" width="1.67" height="10.13" />
                <rect class="cls-48" x="26.44" y="83.88" width="1.67" height="10.13" />
                <rect class="cls-49" x="34.34" y="88.95" width="1.67" height="10.13" />
                <rect class="cls-50" x="42.89" y="94.01" width="1.67" height="10.13" />
                <rect class="cls-51" x="50.8" y="99.08" width="1.67" height="10.13" />
                <rect class="cls-52" x="58.71" y="104.15" width="1.67" height="10.13" />
                <rect class="cls-53" x="66.62" y="109.21" width="1.67" height="10.13" />
                <rect class="cls-54" x="75.37" y="113.63" width="1.67" height="10.13" />
                <rect class="cls-55" x="83.04" y="117.5" width="1.67" height="10.13" />
                <rect class="cls-56" x="90.72" y="121.37" width="1.67" height="10.13" />
                <rect class="cls-57" x="48.71" y="51.78" width="5.48" height="111.75"
                    transform="translate(-67.51 98.38) rotate(-60)" />
                <rect class="cls-58" x="49.57" y="42.28" width="2.05" height="112.61"
                    transform="translate(-60.08 93.1) rotate(-60)" />
                
            </g>
        </g>
    </g>
</svg>