 

<svg xmlns:agg="http://www.example.com" xmlns="http://www.w3.org/2000/svg"  width="1.3983in" height="1.0750in" viewBox="0 0 999 768">

<path style="fill:#e56500;stroke:#000;stroke-width:2" d="M412,57 l539,297 0,251 -885,0 0,-347 3,-35 7,-33 13,-32 16,-29 21,-26 24,-23 27,-19 30,-15 32,-11 34,-6 12,-1 12,0 7,0 30,3 30,6 28,11 20,9z" />
<path style="fill:#7f7f7f;stroke:#000;stroke-width:2" d="M605,590 l115,0 0,29 -115,0 0,-29z" />
<path style="fill:#b2b2b2" d="M605,596 l115,0 0,18 -115,0 0,-18z" />
<path style="fill:#e5e5e5" d="M605,602 l115,0 0,6 -115,0 0,-6z" />
<path style="fill:#666;stroke:#000;stroke-width:2" d="M355,412 l235,0 0,193 -235,0 0,-193z" />
<path style="fill:#999;stroke:#000;stroke-width:2" d="M85,412 l270,0 0,193 -270,0 0,-193z" />
<path style="fill:#7f7f7f;stroke:#000;stroke-width:2" d="M263,266 l14,114 306,-35 -14,-115 -306,36z" />
<path style="fill:#bfbfbf;stroke:#000;stroke-width:2" d="M374,585 l231,0 0,39 -231,0 0,-39z" />
<path style="fill:#bfbfbf;stroke:#000;stroke-width:2" d="M66,374 l308,0 0,38 -308,0 0,-38z" />
<path style="fill:#bfbfbf;stroke:#000;stroke-width:2" d="M66,489 l308,0 0,39 -308,0 0,-39z" />
<path style="fill:#bfbfbf;stroke:#000;stroke-width:2" d="M66,605 l308,0 0,38 -308,0 0,-38z" />
<path style="fill:#a6a6a6;stroke:#000;stroke-width:2" d="M124,374 l-39,-97 289,-19 0,116 -250,0z" />
<path style="fill:#7f7f7f;stroke:#000;stroke-width:2" d="M480,624 l57,0 0,38 -57,0 0,-38z" />
<path style="fill:#7f7f7f;stroke:#000;stroke-width:2" d="M172,643 l57,0 0,19 -57,0 0,-19z" />
<path style="fill:#ccc;stroke:#000;stroke-width:2" d="M720,653 l250,0 0,-68 -250,0 0,68z" />
<path style="fill:#ccc;stroke:#000;stroke-width:2" d="M28,682 l923,0 0,58 -923,0 0,-58z" />
<path style="fill:#333" d="M778,566 l154,0 0,19 -154,0 0,-19z" />
<path style="fill:#666;stroke:#000;stroke-width:2" d="M786,558 l-27,-69 27,-69 69,-27 69,27 27,69 -27,69 -69,28 -69,-28z" />
<path style="fill:#7f7f7f" d="M797,548 l-24,-59 24,-58 58,-24 59,24 23,58 -23,59 -59,23 -58,-23z" />
<path style="fill:#333" d="M821,524 l-14,-35 14,-34 34,-14 35,14 13,34 -13,35 -35,13 -34,-13z" />
<path style="fill:none;stroke:#7f7f7f;stroke-width:2" d="M855,537 l0,-96" />
<path style="fill:none;stroke:#7f7f7f;stroke-width:2" d="M889,523 l-68,-67" />
<path style="fill:none;stroke:#7f7f7f;stroke-width:2" d="M821,523 l68,-67" />
<path style="fill:none;stroke:#7f7f7f;stroke-width:2" d="M807,489 l96,0" />
<path style="fill:#7f7f7f;stroke:#000;stroke-width:2" d="M648,576 l29,0 0,58 -29,0 0,-58z" />
<path style="fill:#b2b2b2" d="M648,587 l29,0 0,36 -29,0 0,-36z" />
<path style="fill:#e5e5e5" d="M648,599 l29,0 0,11 -29,0 0,-11z" />
<path style="fill:#e5e5e5;stroke:#000;stroke-width:2" d="M740,653 l57,0 0,29 -57,0 0,-29z" />
<path style="fill:#e5e5e5;stroke:#000;stroke-width:2" d="M894,653 l57,0 0,29 -57,0 0,-29z" />
<path style="fill:#e5e5e5;stroke:#000;stroke-width:2" d="M143,662 l115,0 0,25 -115,0 0,-25z" />
<path style="fill:#e5e5e5;stroke:#000;stroke-width:2" d="M451,662 l115,0 0,25 -115,0 0,-25z" />
<path style="fill:#b2b2b2;stroke:#000;stroke-width:2" d="M623,427 l-144,-250 50,-29 144,250 -50,29z" />
<path style="fill:#b2b2b2;stroke:#000;stroke-width:2" d="M479,398 l144,-250 50,29 -144,249 -50,-28z" />
<path style="fill:#b2b2b2;stroke:#000;stroke-width:2" d="M432,258 l288,0 0,58 -288,0 0,-58z" />
<path style="fill:#ccc" d="M576,143 l31,3 28,9 25,14 20,19 17,21 13,25 7,26 3,27 -3,29 -8,27 -13,25 -18,21 -22,18 -24,13 -27,8 -29,3 -29,-3 -27,-8 -25,-13 -21,-18 -18,-21 -13,-25 -8,-27 -3,-29 3,-29 8,-27 13,-24 18,-22 21,-17 25,-14 27,-8 29,-3 0,-77 -11,0 -34,5 -31,9 -29,13 -27,17 -24,21 -21,24 -17,27 -14,29 -9,32 -4,33 0,11 0,12 4,33 9,31 14,30 17,26 21,24 24,21 27,18 29,13 31,9 34,4 11,0 12,0 32,-4 32,-9 29,-13 27,-18 24,-21 21,-24 17,-27 14,-29 9,-31 4,-33 0,-12 0,-11 -4,-34 -9,-32 -13,-29 -17,-27 -21,-24 -24,-21 -26,-17 -30,-13 -32,-9 -33,-4 -12,0 0,77z" />
<circle style="fill:none;stroke:#000;stroke-width:2" cx="576" cy="287" r="221" />
<circle style="fill:none;stroke:#000;stroke-width:2" cx="576" cy="287" r="144" />
<path style="fill:none;stroke:#7f7f7f;stroke-width:2" d="M450,413 l-22,-27 -12,-23 -10,-24 -5,-25 -3,-27 4,-35 10,-34 17,-30 22,-26 26,-22 30,-16 33,-11 36,-3 35,3 25,7 24,11 22,14 20,16" />
<circle style="fill:#ccc;stroke:#000;stroke-width:2" cx="576" cy="287" r="58" />
<path style="fill:none;stroke:#fff;stroke-width:2" d="M702,161 l22,27 13,23 9,24 6,26 2,26 -4,35 -10,34 -17,30 -21,26 -27,22 -30,17 -33,10 -36,3 -35,-3 -25,-7 -24,-11 -22,-14 -19,-16" />

</svg>
