<?xml version="1.0" encoding="utf-8"?>
<!-- Generator: Adobe Illustrator 19.0.0, SVG Export Plug-In . SVG Version: 6.00 Build 0)  -->
<svg version="1.1" id="图层_1" xmlns="http://www.w3.org/2000/svg" xmlns:xlink="http://www.w3.org/1999/xlink" x="0px" y="0px"
	 viewBox="-37 80.9 144.7 61.1" style="enable-background:new -37 80.9 144.7 61.1;" xml:space="preserve">
<style type="text/css">
	.st0{fill:#64B264;stroke:#000000;stroke-width:0.25;}
	.st1{fill:#98CB98;}
	.st2{fill:#B2D8B2;}
	.st3{fill:#7EBF7E;}
	.st4{fill:#004C00;stroke:#000000;stroke-width:0.25;}
</style>
<path class="st0" d="M39.2,133.6h64.3V89H39.2V133.6z"/>
<path class="st1" d="M40.7,132.4v-42l30.6,21.2L40.7,132.4z"/>
<path class="st2" d="M71.2,111.2l-30.6,21.2h61.6L71.2,111.2z"/>
<path class="st3" d="M102.2,132.4v-42l-31,21.2L102.2,132.4z"/>
<path class="st0" d="M-27.6,133.6h64V89h-64V133.6z"/>
<path class="st1" d="M-26.1,132.4v-42l30.6,21.2L-26.1,132.4z"/>
<path class="st2" d="M4.4,111.2l-30.6,21.2h61.3L4.4,111.2z"/>
<path class="st3" d="M35.2,132.4v-42L4.5,111.6L35.2,132.4z"/>
<path class="st4" d="M33.9,86.3h8.4v1.4h-8.4V86.3z"/>
<path class="st4" d="M33.9,134.9h8.4v1.7h-8.4V134.9z"/>
<path class="st0" d="M36.5,137.9h3v-53h-3V137.9z"/>
<path class="st4" d="M-32.9,86.3h8.4v1.4h-8.4V86.3z"/>
<path class="st4" d="M-32.9,134.9h8.4v1.7h-8.4V134.9z"/>
<path class="st0" d="M-30.3,137.9h3v-53h-3V137.9z"/>
</svg>
