<?xml version="1.0" encoding="utf-8"?>
<!-- Generator: Adobe Illustrator 19.0.0, SVG Export Plug-In . SVG Version: 6.00 Build 0)  -->
<svg version="1.1" id="图层_1" xmlns="http://www.w3.org/2000/svg" xmlns:xlink="http://www.w3.org/1999/xlink" x="0px" y="0px"
	 viewBox="-261 367.4 72.6 106.5" style="enable-background:new -261 367.4 72.6 106.5;" xml:space="preserve">
<style type="text/css">
	.st0{fill:#E0EFE0;stroke:#000000;stroke-width:0.25;}
	.st1{fill:#C0DFC0;stroke:#000000;stroke-width:0.25;}
	.st2{fill:#007F00;stroke:#000000;stroke-width:0.25;}
	.st3{fill:#005500;stroke:#000000;stroke-width:0.25;}
	.st4{fill:#FFFFFF;}
	.st5{fill:none;stroke:#000000;stroke-width:0.25;}
	.st6{fill:#FFFFFF;stroke:#000000;stroke-width:0.25;}
</style>
<path class="st0" d="M-191.3,470.9h-49.8v-73.5h49.8V470.9z"/>
<path class="st1" d="M-258,454l17,17v-73.5l-6.1-22.5l-10.9-4.5V454z"/>
<path class="st0" d="M-197.4,375h-49.8l6.1,22.5h49.8L-197.4,375z"/>
<path class="st1" d="M-197.4,375h-49.8l-10.9-4.7h49.8L-197.4,375z"/>
<path class="st2" d="M-207.4,378.1h-27l4.2,16.7h26.8L-207.4,378.1z"/>
<path d="M-213,379.8l-2.1,0.9l-0.3,2.2l1.4,2.2l2.6,1.1l2-1.1l0.4-2.2l-1.4-2.2L-213,379.8z"/>
<path d="M-227.9,379.8l-2.1,0.9l-0.4,2.2l1.5,2.2l2.5,1.1l2.1-1.1l0.4-2.2l-1.5-2.2L-227.9,379.8z"/>
<path class="st3" d="M-209.3,387.2l-0.6,0.2l-0.2,0.9l0.6,0.6l0.6,0.2l0.6-0.2l0.2-0.6l-0.4-0.9L-209.3,387.2z"/>
<path class="st3" d="M-208.5,390.6l-0.6,0.1l-0.2,0.9l0.4,0.6l0.9,0.2l0.6-0.2l0.2-0.6l-0.6-0.9L-208.5,390.6z"/>
<path class="st4" d="M-212.8,380.4l-1.7,0.5l-0.4,1.9l1.3,1.9l1.9,0.6l1.6-0.6l0.4-1.9l-1.2-1.9L-212.8,380.4z"/>
<path class="st4" d="M-227.9,380.4l-1.5,0.5l-0.4,1.9l1.3,1.9l1.8,0.6l1.7-0.6l0.2-1.9l-1.1-1.9L-227.9,380.4z"/>
<path class="st5" d="M-212.8,380.7l0.2,0.4"/>
<path class="st5" d="M-227.6,380.7v0.4"/>
<path class="st5" d="M-211.1,381.1l-0.4,0.4"/>
<path class="st5" d="M-226,381.1l-0.4,0.4"/>
<path class="st5" d="M-210.2,382.8h-0.6"/>
<path class="st5" d="M-225,382.8h-0.6"/>
<path class="st5" d="M-214.5,382.8h0.9"/>
<path class="st5" d="M-229.3,382.8h0.9"/>
<path class="st5" d="M-214.3,381.1l0.6,0.4"/>
<path class="st5" d="M-229.1,381.1l0.6,0.4"/>
<path class="st5" d="M-213.5,384.6l0.2-0.4"/>
<path class="st5" d="M-228.5,384.6l0.4-0.4"/>
<path class="st5" d="M-210.3,384.6l-0.6-0.6"/>
<path class="st5" d="M-225.2,384.6l-0.6-0.6"/>
<path class="st5" d="M-212.2,382.8l1.1-1.1"/>
<path class="st5" d="M-227,382.8l1-1.1"/>
<path class="st6" d="M-211.3,390.9h-5.4l0.4,1.7h5.4L-211.3,390.9z"/>
<path class="st6" d="M-212.2,387.4h-5.4l0.4,1.9h5.4L-212.2,387.4z"/>
<path class="st6" d="M-223.9,392.7l-1.3-5.7h-1.6l1.2,5.7H-223.9z"/>
<path class="st5" d="M-211.5,391.3l0.2,1"/>
<path class="st5" d="M-212.4,387.9l0.2,0.9"/>
<path class="st5" d="M-224.3,392.2h-0.9"/>
<path class="st5" d="M-212.4,391.3l0.4,1"/>
<path class="st5" d="M-213,387.9l0.2,0.9"/>
<path class="st5" d="M-224.5,391.6h-0.9"/>
<path class="st5" d="M-213,391.3l0.2,1"/>
<path class="st5" d="M-213.9,387.9l0.2,0.9"/>
<path class="st5" d="M-224.5,390.7h-1.1"/>
<path class="st5" d="M-213.7,391.3l0.2,1"/>
<path class="st5" d="M-214.5,387.9l0.2,0.9"/>
<path class="st5" d="M-224.8,390.2h-1.1"/>
<path class="st5" d="M-214.5,391.3l0.2,1"/>
<path class="st5" d="M-215.3,387.9l0.3,0.9"/>
<path class="st5" d="M-225,389.4h-0.9"/>
<path class="st5" d="M-215.3,391.3l0.1,1"/>
<path class="st5" d="M-216.1,387.9l0.3,0.9"/>
<path class="st5" d="M-225.2,388.5h-0.9"/>
<path class="st5" d="M-216,391.3l0.2,1"/>
<path class="st5" d="M-216.8,387.9l0.2,0.9"/>
<path class="st5" d="M-225.4,387.9h-0.7"/>
</svg>
