<?xml version="1.0" encoding="utf-8"?>
<!-- Generator: Adobe Illustrator 19.0.0, SVG Export Plug-In . SVG Version: 6.00 Build 0)  -->
<svg version="1.1" id="图层_1" xmlns="http://www.w3.org/2000/svg" xmlns:xlink="http://www.w3.org/1999/xlink" x="0px" y="0px"
	 viewBox="0 0 595.3 841.9" style="enable-background:new 0 0 595.3 841.9;" xml:space="preserve">
<style type="text/css">
	.st0{fill:url(#SVGID_1_);}
	.st1{fill:url(#SVGID_2_);}
	.st2{fill:url(#SVGID_3_);}
	.st3{fill:url(#SVGID_4_);}
	.st4{fill:#2C6CAA;}
	.st5{fill:none;stroke:#000000;stroke-miterlimit:10;}
	.st6{fill:#043A71;}
	.st7{fill:url(#SVGID_5_);}
</style>
<linearGradient id="SVGID_1_" gradientUnits="userSpaceOnUse" x1="125.8779" y1="67.39" x2="454.8779" y2="67.39">
	<stop  offset="0" style="stop-color:#3A6A9D"/>
	<stop  offset="0.5" style="stop-color:#77ACDC"/>
	<stop  offset="1" style="stop-color:#173855"/>
</linearGradient>
<rect x="125.9" y="52.9" class="st0" width="329" height="29"/>
<linearGradient id="SVGID_2_" gradientUnits="userSpaceOnUse" x1="169.3779" y1="116.64" x2="411.3779" y2="116.64">
	<stop  offset="0" style="stop-color:#3A6A9D"/>
	<stop  offset="0.5" style="stop-color:#77ACDC"/>
	<stop  offset="1" style="stop-color:#173855"/>
</linearGradient>
<path class="st1" d="M169.4,81.9v59h0c1.5,5.8,55.1,10.5,121,10.5s119.5-4.7,121-10.5h0v-59H169.4z"/>
<linearGradient id="SVGID_3_" gradientUnits="userSpaceOnUse" x1="125.8779" y1="807.6461" x2="454.8779" y2="807.6461">
	<stop  offset="0" style="stop-color:#3A6A9D"/>
	<stop  offset="0.5" style="stop-color:#77ACDC"/>
	<stop  offset="1" style="stop-color:#173855"/>
</linearGradient>
<rect x="125.9" y="793.1" class="st2" width="329" height="29"/>
<linearGradient id="SVGID_4_" gradientUnits="userSpaceOnUse" x1="169.3779" y1="763.6461" x2="411.3779" y2="763.6461">
	<stop  offset="0" style="stop-color:#3A6A9D"/>
	<stop  offset="0.5" style="stop-color:#77ACDC"/>
	<stop  offset="1" style="stop-color:#173855"/>
</linearGradient>
<path class="st3" d="M169.4,734.1L169.4,734.1l0,59h242v-59h0"/>
<path class="st4" d="M449.3,218.6L449.3,218.6l-38-77.7h-242l-38,77.7h0c-0.4,1-0.6,2-0.6,3c0,19,71.4,34.3,159.6,34.3
	s159.6-15.4,159.6-34.3C449.9,220.5,449.7,219.5,449.3,218.6z"/>
<path class="st5" d="M449.4,653.9"/>
<path class="st6" d="M449.9,653.9c0,1-0.2,2-0.6,3h0l-38,77.7h-242l-38-77.7h0c-0.4-1-0.6-2-0.6-3H449.9z"/>
<linearGradient id="SVGID_5_" gradientUnits="userSpaceOnUse" x1="130.8076" y1="451.9734" x2="449.9482" y2="451.9734">
	<stop  offset="0" style="stop-color:#3A6A9D"/>
	<stop  offset="0.5" style="stop-color:#77ACDC"/>
	<stop  offset="1" style="stop-color:#173855"/>
</linearGradient>
<path class="st7" d="M449.9,221.6H130.8v432.3h0c0,0,0,0,0,0.1c0,15.7,71.4,28.5,159.6,28.5s159.6-12.8,159.6-28.5c0,0,0,0,0-0.1h0
	V221.6z"/>
</svg>
