<?xml version="1.0" encoding="utf-8"?>
<!-- Generator: Adobe Illustrator 19.0.0, SVG Export Plug-In . SVG Version: 6.00 Build 0)  -->
<svg version="1.1" id="图层_1" xmlns="http://www.w3.org/2000/svg" xmlns:xlink="http://www.w3.org/1999/xlink" x="0px" y="0px"
	 viewBox="-68 57.5 82.5 106.5" style="enable-background:new -68 57.5 82.5 106.5;" xml:space="preserve">
<style type="text/css">
	.st0{fill:#4CA64C;stroke:#000000;stroke-width:0.25;stroke-linejoin:round;}
	.st1{fill:#B2D8B2;stroke:#000000;stroke-width:0.25;stroke-linejoin:round;}
	.st2{fill:#004C00;}
	.st3{fill:#4CA64C;}
	.st4{fill:#64B264;}
	.st5{fill:#7EBF7E;}
	.st6{fill:#98CB98;}
	.st7{fill:none;stroke:#000000;stroke-width:0.25;stroke-linejoin:round;}
	.st8{fill:#007F00;stroke:#000000;stroke-width:0.25;stroke-linejoin:round;}
	.st9{fill:#B2D8B2;}
	.st10{fill:#CAE4CA;}
	.st11{fill:#E4F1E4;}
	.st12{fill:#98CB98;stroke:#7F7F7F;stroke-width:0.25;stroke-linejoin:round;}
	.st13{fill:#003300;}
	.st14{fill:#64B264;stroke:#7F7F7F;stroke-width:0.25;stroke-linejoin:round;}
	.st15{fill:#329932;stroke:#000000;stroke-width:0.25;stroke-linejoin:round;}
	.st16{fill:#E4F1E4;stroke:#7F7F7F;stroke-width:0.25;stroke-linejoin:round;}
	.st17{fill:#B2D8B2;stroke:#7F7F7F;stroke-width:0.25;stroke-linejoin:round;}
	.st18{fill:#188C18;}
	.st19{fill:#BADCBA;stroke:#7F7F7F;stroke-width:0.25;stroke-linejoin:round;}
</style>
<path class="st0" d="M-61.6,154.3V72.9l17.2-7.4v3.8h1.9V64l-1.9-1l-19.1,8.3v82.9h1.9L-61.6,154.3L-61.6,154.3z"/>
<path class="st1" d="M-63.1,155.8V72.3l21.6-9.3v3.8h2v-5.3l-2-1L-65,70.7v84.9h1.9V155.8z"/>
<path class="st2" d="M-12.5,143.4h-22.6v7.8h22.6V143.4z"/>
<path class="st3" d="M9.5,131.5L6,157.1l-10.5,2l-1.8-15.7h-35l-1.8,15.7l-10.6-2l-3.5-25.5H9.5L9.5,131.5L9.5,131.5z"/>
<path class="st4" d="M0.7,131.5l-3.5,27l-1.7,0.5l-1.8-15.7h-35l-1.8,15.7l-1.7-0.5l-3.5-27H0.7z"/>
<path class="st5" d="M-8,131.5l-1.8,11.8H-15l-1.7,17.6h-14.1l-1.7-17.6h-5.3l-1.7-11.8H-8z"/>
<path class="st6" d="M-16.8,131.5l-3.5,29.5h-7l-3.5-29.5H-16.8z"/>
<path class="st7" d="M9.5,131.5L6,157.1l-10.5,2l-1.8-15.7h-8.8l-1.7,17.6h-14.1l-1.7-17.6h-8.8l-1.8,15.7l-10.6-2l-3.5-25.5H9.5"/>
<path class="st8" d="M-43.1,159.1l3.5-2l1.7-13.7l-3.6-3.9L-43.1,159.1z"/>
<path class="st8" d="M-4.5,159.1l-3.5-2l-1.8-13.7l3.6-3.9L-4.5,159.1z"/>
<path class="st4" d="M-59.1,131.5V84.4l11.7-3.9V68.8l2.3-1.7l3.1-0.7l3.2-0.5l3.7-0.4l3.1-0.2l3.4-0.2h2.3l1.2-0.1h1.2l3.6,0.1
	l3.4,0.1l3.2,0.2l2.9,0.2l3.5,0.5l2.9,0.5l2.6,0.9l1.5,1.4v11.7l11.7,3.9v47.1v0.2l-2.5,1.4l-3.1,0.6l-2.9,0.4l-3.5,0.4l-4.2,0.3
	l-3,0.2l-3.2,0.1l-3.5,0.1l-3.6,0.1H-20h-1.9h-2h-3.9l-3.7-0.1l-3.6-0.1l-3.3-0.1l-3.2-0.1l-4.3-0.3l-3.7-0.4l-3.1-0.4l-3.3-0.6
	l-2.8-1.1l-0.3-0.4L-59.1,131.5L-59.1,131.5z"/>
<path class="st5" d="M-53.3,131.5V84.4l9.8-3.9V68.8l0.1-0.4l2.2-1.5l3.4-0.9l2.9-0.5l3.3-0.3l3.7-0.2l1.9-0.1h2h2l3.7,0.2l3.5,0.2
	l3.1,0.4l3.8,0.9l2.5,1.1l0.9,0.7l0.1,0.4v11.7l9.8,3.9v47.1l-2.7,1.7L0,133.9l-3.6,0.5l-3.3,0.4l-3.7,0.2l-4.1,0.2l-3,0.1l-3.1,0.1
	h-1.7h-1.6h-3.3l-3.2-0.1l-2.9-0.1l-4.2-0.2l-3.7-0.2l-3.2-0.4l-2.9-0.4l-2.9-0.5l-2.7-1.2l-0.5-0.5v-0.2L-53.3,131.5L-53.3,131.5z"
	/>
<path class="st6" d="M-47.4,131.5V84.4l7.9-3.9V68.8l2.7-2.2l3-0.9l3.9-0.5L-27,65l1.6-0.1h1.6h1.6l3,0.2l4.2,0.4l3.3,0.7l2.9,1.4
	l0.7,1.2v11.7l7.8,3.9v47.1l-0.1,0.4l-2.5,1.5l-3,0.7l-3.3,0.4l-2.8,0.3l-3.2,0.2l-3.5,0.2l-2.6,0.1h-1.3h-1.3h-3.9l-3.6-0.2
	l-3.3-0.2l-2.9-0.2l-3.4-0.5l-2.8-0.5l-2.7-1.1l-0.9-0.7l-0.1-0.2v-0.2L-47.4,131.5L-47.4,131.5z"/>
<path class="st9" d="M-41.5,131.5V84.4l5.9-3.9V68.8l2-2.2l3.2-1.1l3.1-0.4l2.3-0.2h1.2h1.2l3.4,0.3l2.9,0.5l2.9,1.2l1.4,1.9v11.7
	l5.9,3.9v47.1l-2.7,2.2l-3.3,0.7l-2.8,0.4l-3.2,0.3l-3.7,0.2h-1.9h-2l-3.6-0.2l-3.3-0.3l-2.8-0.4l-3.2-0.7l-2.5-1.5l-0.2-0.3
	L-41.5,131.5z"/>
<path class="st10" d="M-35.7,131.5V84.4l3.9-3.9V68.8l1.8-2.6l3-1.1l2.2-0.3h0.9h0.7l3,0.4l2.8,1.3l1.3,2.2v11.7l3.9,3.9v47.1
	l-1.8,2.2l-3.1,1.1l-3.1,0.4l-2.5,0.2H-24h-1.4l-3.5-0.3l-2.9-0.6l-2.8-1.1l-1.2-1.5L-35.7,131.5z"/>
<path class="st11" d="M-29.7,131.5V84.4l1.9-3.9V68.8l1.2-2.8l2-1.1l0.7-0.1l0.7,0.1l2.6,1.6l0.6,2.2v11.7l1.9,3.9v47.1l-1.2,2.6
	l-2.8,1.2l-1.3,0.2H-24h-0.6l-2.8-0.6l-2.2-2.1l-0.2-0.7v-0.5L-29.7,131.5L-29.7,131.5z"/>
<path class="st7" d="M11.5,84.5h-70.6"/>
<path class="st7" d="M-0.2,80.5h-47.2"/>
<path class="st7" d="M-59.1,131.5V84.4l11.7-3.9V68.8l2.3-1.7l3.1-0.7l3.2-0.5l3.7-0.4l3.1-0.2l3.4-0.2h2.3l1.2-0.1h1.2l3.6,0.1
	l3.4,0.1l3.2,0.2l2.9,0.2l3.5,0.5l2.9,0.5l2.6,0.9l1.5,1.4v11.7l11.7,3.9v47.1v0.2l-2.5,1.4l-3.1,0.6l-2.9,0.4l-3.5,0.4l-4.2,0.3
	l-3,0.2l-3.2,0.1l-3.5,0.1l-3.6,0.1H-20h-1.9h-2h-3.9l-3.7-0.1l-3.6-0.1l-3.3-0.1l-3.2-0.1l-4.3-0.3l-3.7-0.4l-3.1-0.4l-3.3-0.6
	l-2.8-1.1l-0.3-0.4L-59.1,131.5"/>
<path class="st2" d="M-10.1,118.9h-27.5v12.7h27.5V118.9z"/>
<path class="st12" d="M-10.1,128.8h-27.5v2.9h27.5V128.8z"/>
<path class="st12" d="M-10.1,123.9h-27.5v2.9h27.5V123.9z"/>
<path class="st12" d="M-10.1,118.9h-27.5v2.9h27.5V118.9z"/>
<path class="st13" d="M-39.5,118.9l-19.1-1.1v11.8l19.1,1.9V118.9z"/>
<path class="st13" d="M11,117.9L-8.1,119v12.7l19.1-1.9V117.9z"/>
<path class="st14" d="M-39.5,128.8l-19.1-1.4v2.3l19.1,1.9V128.8z"/>
<path class="st14" d="M-39.5,123.9l-19.1-1.4v3l19.1,1.3V123.9z"/>
<path class="st14" d="M-39.5,118.9l-19.1-1.1v2.7l19.1,1.3V118.9z"/>
<path class="st14" d="M11,127.4l-19.1,1.4v2.9l19.1-1.9V127.4z"/>
<path class="st14" d="M11,122.4l-19.1,1.4v2.9l19.1-1.3V122.4z"/>
<path class="st14" d="M11,117.9L-8.1,119v2.9l19.1-1.3V117.9z"/>
<path class="st15" d="M-32.6,143.4l-1.9-3.9h-7l3.5,3.9H-32.6z"/>
<path class="st15" d="M-15.1,143.4h5.4l3.4-3.9h-6.9L-15.1,143.4z"/>
<path class="st16" d="M-10.1,159.1V84.5l-3.9-3.9V65.4h1.9v14.7l3.9,2.9v76.1H-10.1z"/>
<path class="st16" d="M-37.6,159.1V84.5l3.9-3.9V65.4h-1.9v14.7l-3.9,2.9v76.1H-37.6z"/>
<path class="st17" d="M-54.2,157.1V84.5l9.4-3.9V66.9h-2v13.3l-9.3,2.9v74.1H-54.2z"/>
<path class="st17" d="M6.6,157.1V84.5l-9.4-3.9V66.9h2v13.3L8.6,83l-0.1,74.1H6.6z"/>
<path class="st18" d="M6.6,84.5v-1l-8.9-3h-0.5L6.6,84.5z"/>
<path class="st18" d="M-54.2,84.5v-1l8.9-3h0.5L-54.2,84.5z"/>
<path class="st3" d="M-10.1,84.5v-1l-3.5-3H-14L-10.1,84.5z"/>
<path class="st3" d="M-37.6,84.5v-1l3.4-3h0.5L-37.6,84.5z"/>
<path class="st7" d="M-35.6,80.1h1"/>
<path class="st7" d="M-12.1,80.1h-1"/>
<path class="st7" d="M-0.8,80.1h-1"/>
<path class="st7" d="M-46.9,80.1h1"/>
<path class="st19" d="M5.1,104.1H-6.6v3.4H5.1V104.1z"/>
</svg>
