<?xml version="1.0" encoding="utf-8"?>
<!-- Generator: Adobe Illustrator 19.0.0, SVG Export Plug-In . SVG Version: 6.00 Build 0)  -->
<svg version="1.1" id="图层_1" xmlns="http://www.w3.org/2000/svg" xmlns:xlink="http://www.w3.org/1999/xlink" x="0px" y="0px"
	 viewBox="0 0 382.6 745" style="enable-background:new 0 0 382.6 745;" xml:space="preserve">
<style type="text/css">
	.st0{fill:#131D26;}
	.st1{fill:url(#SVGID_1_);}
	.st2{fill:#5B98AB;}
	.st3{fill:url(#SVGID_2_);}
	.st4{fill:#4792B0;}
	.st5{fill:#2B6A89;}
	.st6{fill:url(#SVGID_3_);}
	.st7{fill:url(#SVGID_4_);}
	.st8{fill:none;stroke:#000000;stroke-miterlimit:10;}
	.st9{fill:url(#SVGID_5_);}
	.st10{fill:#143146;}
	.st11{fill:url(#SVGID_6_);}
	.st12{fill:none;stroke:#143146;stroke-width:3;stroke-miterlimit:10;}
	.st13{fill:url(#SVGID_7_);}
	.st14{fill:#9E8763;}
	.st15{fill:#E0CDBD;}
	.st16{fill:#A68960;}
	.st17{fill:url(#SVGID_8_);}
	.st18{fill:url(#SVGID_9_);}
	.st19{fill:url(#SVGID_10_);}
	.st20{fill:url(#SVGID_11_);}
	.st21{fill:url(#SVGID_12_);}
	.st22{fill:url(#SVGID_13_);}
	.st23{fill:url(#SVGID_14_);}
	.st24{fill:url(#SVGID_15_);}
	.st25{fill:url(#SVGID_16_);}
	.st26{fill:#52AEFA;}
	.st27{fill:url(#SVGID_17_);}
	.st28{fill:url(#SVGID_18_);}
	.st29{fill:url(#SVGID_19_);}
	.st30{fill:url(#SVGID_20_);}
	.st31{fill:url(#SVGID_21_);}
	.st32{fill:url(#SVGID_22_);}
	.st33{fill:url(#SVGID_23_);}
	.st34{fill:url(#SVGID_24_);}
	.st35{fill:url(#SVGID_25_);}
	.st36{fill:url(#SVGID_26_);}
	.st37{fill:url(#SVGID_27_);}
	.st38{fill:url(#SVGID_28_);}
	.st39{fill:url(#SVGID_29_);}
	.st40{fill:url(#SVGID_30_);}
	.st41{fill:url(#SVGID_31_);}
	.st42{fill:url(#SVGID_32_);}
	.st43{fill:url(#SVGID_33_);}
	.st44{fill:url(#SVGID_34_);}
	.st45{fill:url(#SVGID_35_);}
	.st46{fill:url(#SVGID_36_);}
	.st47{fill:url(#SVGID_37_);}
	.st48{fill:url(#SVGID_38_);}
	.st49{fill:url(#SVGID_39_);}
	.st50{fill:url(#SVGID_40_);}
	.st51{fill:url(#SVGID_41_);}
	.st52{fill:url(#SVGID_42_);}
	.st53{fill:url(#SVGID_43_);}
	.st54{fill:url(#SVGID_44_);}
	.st55{fill:url(#SVGID_45_);}
	.st56{fill:url(#SVGID_46_);}
	.st57{fill:url(#SVGID_47_);}
	.st58{fill:url(#SVGID_48_);}
	.st59{fill:url(#SVGID_49_);}
	.st60{fill:url(#SVGID_50_);}
	.st61{fill:url(#SVGID_51_);}
	.st62{fill:url(#SVGID_52_);}
	.st63{fill:url(#SVGID_53_);}
	.st64{fill:url(#SVGID_54_);}
	.st65{fill:url(#SVGID_55_);}
	.st66{fill:url(#SVGID_56_);}
	.st67{fill:url(#SVGID_57_);}
	.st68{fill:url(#SVGID_58_);}
	.st69{fill:url(#SVGID_59_);}
	.st70{fill:url(#SVGID_60_);}
	.st71{fill:url(#SVGID_61_);}
	.st72{fill:url(#SVGID_62_);}
	.st73{fill:url(#SVGID_63_);}
	.st74{fill:url(#SVGID_64_);}
	.st75{fill:url(#SVGID_65_);}
	.st76{fill:url(#SVGID_66_);}
	.st77{fill:url(#SVGID_67_);}
	.st78{fill:url(#SVGID_68_);}
	.st79{fill:url(#SVGID_69_);}
	.st80{fill:url(#SVGID_70_);}
	.st81{fill:url(#SVGID_71_);}
	.st82{fill:url(#SVGID_72_);}
	.st83{fill:url(#SVGID_73_);}
	.st84{fill:url(#SVGID_74_);}
	.st85{fill:url(#SVGID_75_);}
	.st86{fill:url(#SVGID_76_);}
	.st87{fill:url(#SVGID_77_);}
	.st88{fill:url(#SVGID_78_);}
	.st89{fill:url(#SVGID_79_);}
	.st90{fill:url(#SVGID_80_);}
	.st91{fill:url(#SVGID_81_);}
	.st92{fill:url(#SVGID_82_);}
	.st93{fill:url(#SVGID_83_);}
	.st94{fill:url(#SVGID_84_);}
	.st95{fill:url(#SVGID_85_);}
	.st96{fill:url(#SVGID_86_);}
	.st97{fill:url(#SVGID_87_);}
	.st98{fill:url(#SVGID_88_);}
	.st99{fill:url(#SVGID_89_);}
	.st100{fill:url(#SVGID_90_);}
	.st101{fill:url(#SVGID_91_);}
	.st102{fill:url(#SVGID_92_);}
	.st103{fill:url(#SVGID_93_);}
	.st104{fill:url(#SVGID_94_);}
	.st105{fill:url(#SVGID_95_);}
	.st106{fill:url(#SVGID_96_);}
	.st107{fill:url(#SVGID_97_);}
	.st108{fill:url(#SVGID_98_);}
	.st109{fill:url(#SVGID_99_);}
	.st110{fill:url(#SVGID_100_);}
	.st111{fill:url(#SVGID_101_);}
	.st112{fill:#476A79;}
	.st113{fill:#638DA6;}
	.st114{fill:#3E7991;}
	.st115{fill:#3F96BF;}
	.st116{fill:#377999;}
	.st117{fill:#3E90BA;}
</style>
<g>
	<rect x="175.8" y="653.9" class="st0" width="33.5" height="9.9"/>
	<rect x="178.9" y="626.7" class="st0" width="18.9" height="32.1"/>
	
		<linearGradient id="SVGID_1_" gradientUnits="userSpaceOnUse" x1="158.9511" y1="313.1488" x2="180.7156" y2="313.1488" gradientTransform="matrix(1 0 0 -1 0 959.78)">
		<stop  offset="0" style="stop-color:#25454F"/>
		<stop  offset="0.5204" style="stop-color:#3798BA"/>
		<stop  offset="1" style="stop-color:#25454F"/>
	</linearGradient>
	<path class="st1" d="M169.8,609.9L169.8,609.9c-6,0-10.9,4.9-10.9,10.9v51.7c0,6,4.9,10.9,10.9,10.9h0c6,0,10.9-4.9,10.9-10.9
		v-51.7C180.7,614.8,175.8,609.9,169.8,609.9z"/>
	<path class="st2" d="M284,106.5h-15.3c-1.7,0-3,1.3-3,3v29.2c0,1.7,1.3,3,3,3H284c1.7,0,3-1.3,3-3v-29.2
		C287,107.8,285.7,106.5,284,106.5z M276.4,117.2c-2,0-3.6-1.6-3.6-3.6s1.6-3.6,3.6-3.6s3.6,1.6,3.6,3.6S278.4,117.2,276.4,117.2z"
		/>
	<path class="st2" d="M81.4,104.1H66.1c-1.7,0-3,1.3-3,3v29.3c0,1.7,1.3,3,3,3h15.3c1.7,0,3-1.3,3-3v-29.3
		C84.4,105.5,83,104.1,81.4,104.1z M73.7,114.9c-2,0-3.6-1.6-3.6-3.6s1.6-3.6,3.6-3.6s3.6,1.6,3.6,3.6S75.7,114.9,73.7,114.9z"/>
	<linearGradient id="SVGID_2_" gradientUnits="userSpaceOnUse" x1="164.1322" y1="96.4815" x2="185.8967" y2="96.4815">
		<stop  offset="0" style="stop-color:#25454F"/>
		<stop  offset="0.5204" style="stop-color:#3798BA"/>
		<stop  offset="1" style="stop-color:#25454F"/>
	</linearGradient>
	<path class="st3" d="M175,133.2L175,133.2c-6,0-10.9-4.9-10.9-10.9V70.6c0-6,4.9-10.9,10.9-10.9h0c6,0,10.9,4.9,10.9,10.9v51.7
		C185.9,128.3,181,133.2,175,133.2z"/>
	<path class="st4" d="M173.5,107.7c-80.1,0-145,34-145,76v192h290v-192C318.5,141.8,253.6,107.7,173.5,107.7z"/>
	<path class="st5" d="M28.5,357.3v199.2c0,42,64.9,76,145,76s145-34,145-76V357.3H28.5z"/>
	<linearGradient id="SVGID_3_" gradientUnits="userSpaceOnUse" x1="28.5247" y1="372.5648" x2="318.5247" y2="372.5648">
		<stop  offset="0" style="stop-color:#25454F"/>
		<stop  offset="0.5153" style="stop-color:#3798BA"/>
		<stop  offset="1" style="stop-color:#25454F"/>
	</linearGradient>
	<path class="st6" d="M318.5,556.5c0,0-49.7,18.9-148.3,18.9c-104.3,0-141.7-18.9-141.7-18.9V179.7c0,0,59.7-10,138.3-10
		c66,0,151.7,10,151.7,10V556.5z"/>
	<linearGradient id="SVGID_4_" gradientUnits="userSpaceOnUse" x1="346.5511" y1="318.7315" x2="346.5511" y2="188.0648">
		<stop  offset="0" style="stop-color:#25454F"/>
		<stop  offset="1" style="stop-color:#3798BA"/>
	</linearGradient>
	<path class="st7" d="M346.6,188.1h-4.7v16c-1.5,12-2.5,29.6-2.5,49.4c0,19.7,1,37.4,2.5,49.4v16h4.7c4,0,7.2-29.3,7.2-65.3
		C353.7,217.3,350.5,188.1,346.6,188.1z"/>
	<ellipse class="st8" cx="341.9" cy="253.4" rx="7.2" ry="65.3"/>
	<linearGradient id="SVGID_5_" gradientUnits="userSpaceOnUse" x1="341.858" y1="318.7315" x2="341.858" y2="188.0648">
		<stop  offset="0" style="stop-color:#25454F"/>
		<stop  offset="1" style="stop-color:#3798BA"/>
	</linearGradient>
	<path class="st9" d="M341.9,188.1h-6.2v32.1c-0.6,9.7-1,21.1-1,33.3c0,12.2,0.4,23.5,1,33.3v32.1h6.2c4,0,7.2-29.3,7.2-65.3
		C349,217.3,345.8,188.1,341.9,188.1z"/>
	<ellipse class="st10" cx="335.7" cy="253.4" rx="7.2" ry="65.3"/>
	<linearGradient id="SVGID_6_" gradientUnits="userSpaceOnUse" x1="326.7573" y1="302.9917" x2="326.7573" y2="202.2444">
		<stop  offset="0" style="stop-color:#25454F"/>
		<stop  offset="1" style="stop-color:#3798BA"/>
	</linearGradient>
	<path class="st11" d="M337.2,202.2c-0.1,0-0.2,0.1-0.3,0.2h-18.4c0,0-5.3,17.5-5.3,48.8c0,28.8,5.3,51.8,5.3,51.8h18.7
		c1.7,0,3-22.6,3-50.4C340.2,224.8,338.9,202.2,337.2,202.2z"/>
	<path class="st12" d="M353,224.2h5.7c1.6,0,2.8,1.3,2.8,2.8v47.9c0,1.6-1.3,2.8-2.8,2.8H353"/>
	<linearGradient id="SVGID_7_" gradientUnits="userSpaceOnUse" x1="158.1913" y1="475.0648" x2="158.1913" y2="457.7315">
		<stop  offset="0" style="stop-color:#000000"/>
		<stop  offset="0.5153" style="stop-color:#FFFFFF"/>
		<stop  offset="1" style="stop-color:#000000"/>
	</linearGradient>
	<rect x="73.2" y="457.7" class="st13" width="170" height="17.3"/>
	<g>
		<circle class="st14" cx="171.3" cy="49" r="25.3"/>
		<circle class="st15" cx="169.3" cy="49" r="25.3"/>
		<circle class="st16" cx="170.8" cy="49" r="10.8"/>
		<circle class="st16" cx="169.3" cy="29" r="3.5"/>
		<circle class="st16" cx="155.9" cy="34.1" r="3.5"/>
		<circle class="st16" cx="150" cy="47.2" r="3.5"/>
		<circle class="st16" cx="155.2" cy="60.6" r="3.5"/>
		<circle class="st16" cx="168.3" cy="66.5" r="3.5"/>
		<circle class="st16" cx="181.7" cy="61.4" r="3.5"/>
		<circle class="st16" cx="187.5" cy="48.2" r="3.5"/>
		<circle class="st16" cx="182.4" cy="34.8" r="3.5"/>
	</g>
	
		<linearGradient id="SVGID_8_" gradientUnits="userSpaceOnUse" x1="158.1913" y1="584.0485" x2="158.1913" y2="566.7151" gradientTransform="matrix(1 0 0 -1 0 959.78)">
		<stop  offset="0" style="stop-color:#000000"/>
		<stop  offset="0.5153" style="stop-color:#FFFFFF"/>
		<stop  offset="1" style="stop-color:#000000"/>
	</linearGradient>
	<rect x="73.2" y="375.7" class="st17" width="170" height="17.3"/>
	<linearGradient id="SVGID_9_" gradientUnits="userSpaceOnUse" x1="155.5247" y1="204.9815" x2="177.5247" y2="204.9815">
		<stop  offset="0" style="stop-color:#000000"/>
		<stop  offset="0.5153" style="stop-color:#FFFFFF"/>
		<stop  offset="1" style="stop-color:#000000"/>
	</linearGradient>
	<path class="st18" d="M166.5,29.2c-6.1,0-11,4.9-11,11v335.5c0,0,3.5,5,11,5c7,0,11-5,11-5V40.2C177.5,34.2,172.6,29.2,166.5,29.2z
		"/>
	<g>
		<circle class="st14" cx="166.1" cy="694.1" r="25.3"/>
		<circle class="st15" cx="164.1" cy="694.1" r="25.3"/>
		<circle class="st16" cx="165.6" cy="694.1" r="10.8"/>
		<circle class="st16" cx="164.1" cy="714.1" r="3.5"/>
		<circle class="st16" cx="150.7" cy="709" r="3.5"/>
		<circle class="st16" cx="144.8" cy="695.9" r="3.5"/>
		<circle class="st16" cx="150" cy="682.5" r="3.5"/>
		<circle class="st16" cx="163.1" cy="676.6" r="3.5"/>
		<circle class="st16" cx="176.5" cy="681.8" r="3.5"/>
		<circle class="st16" cx="182.4" cy="694.9" r="3.5"/>
		<circle class="st16" cx="177.2" cy="708.3" r="3.5"/>
	</g>
	
		<linearGradient id="SVGID_10_" gradientUnits="userSpaceOnUse" x1="150.3435" y1="368.1487" x2="172.3435" y2="368.1487" gradientTransform="matrix(1 0 0 -1 0 959.78)">
		<stop  offset="0" style="stop-color:#000000"/>
		<stop  offset="0.5153" style="stop-color:#FFFFFF"/>
		<stop  offset="1" style="stop-color:#000000"/>
	</linearGradient>
	<path class="st19" d="M161.3,713.9c-6.1,0-11-4.9-11-11V474.4c0,0,3.5-5,11-5c7,0,11,5,11,5v228.5
		C172.3,709,167.4,713.9,161.3,713.9z"/>
	<g>
		<linearGradient id="SVGID_11_" gradientUnits="userSpaceOnUse" x1="245.6913" y1="409.2874" x2="245.6913" y2="359.509">
			<stop  offset="0" style="stop-color:#000000"/>
			<stop  offset="0.5153" style="stop-color:#FFFFFF"/>
			<stop  offset="1" style="stop-color:#000000"/>
		</linearGradient>
		<path class="st20" d="M245.7,409.3L245.7,409.3c-1.4,0-2.5-1.1-2.5-2.5V362c0-1.4,1.1-2.5,2.5-2.5h0c1.4,0,2.5,1.1,2.5,2.5v44.8
			C248.2,408.2,247.1,409.3,245.7,409.3z"/>
		<linearGradient id="SVGID_12_" gradientUnits="userSpaceOnUse" x1="264.358" y1="409.2874" x2="264.358" y2="359.509">
			<stop  offset="0" style="stop-color:#000000"/>
			<stop  offset="0.5153" style="stop-color:#FFFFFF"/>
			<stop  offset="1" style="stop-color:#000000"/>
		</linearGradient>
		<path class="st21" d="M264.4,409.3L264.4,409.3c-1.4,0-2.5-1.1-2.5-2.5V362c0-1.4,1.1-2.5,2.5-2.5l0,0c1.4,0,2.5,1.1,2.5,2.5v44.8
			C266.9,408.2,265.7,409.3,264.4,409.3z"/>
		<linearGradient id="SVGID_13_" gradientUnits="userSpaceOnUse" x1="255.0247" y1="405.4815" x2="255.0247" y2="363.3148">
			<stop  offset="0" style="stop-color:#37435B"/>
			<stop  offset="0.5153" style="stop-color:#4DACF3"/>
			<stop  offset="1" style="stop-color:#114779"/>
		</linearGradient>
		<path class="st22" d="M255,363.3L255,363.3c-3.8,0-6.8,3.1-6.8,6.8v28.5c0,3.8,3.1,6.8,6.8,6.8h0c3.8,0,6.8-3.1,6.8-6.8v-28.5
			C261.9,366.4,258.8,363.3,255,363.3z"/>
		<linearGradient id="SVGID_14_" gradientUnits="userSpaceOnUse" x1="249.2747" y1="356.5479" x2="260.7747" y2="356.5479">
			<stop  offset="0" style="stop-color:#37435B"/>
			<stop  offset="0.5153" style="stop-color:#4DACF3"/>
			<stop  offset="1" style="stop-color:#114779"/>
		</linearGradient>
		<rect x="249.3" y="350" class="st23" width="11.5" height="13"/>
		<linearGradient id="SVGID_15_" gradientUnits="userSpaceOnUse" x1="245.858" y1="347.8728" x2="264.1913" y2="347.8728">
			<stop  offset="0" style="stop-color:#37435B"/>
			<stop  offset="0.5153" style="stop-color:#4DACF3"/>
			<stop  offset="1" style="stop-color:#114779"/>
		</linearGradient>
		<rect x="245.9" y="345.7" class="st24" width="18.3" height="4.4"/>
		<linearGradient id="SVGID_16_" gradientUnits="userSpaceOnUse" x1="245.858" y1="343.5225" x2="264.1913" y2="343.5225">
			<stop  offset="0" style="stop-color:#000000"/>
			<stop  offset="0.5153" style="stop-color:#FFFFFF"/>
			<stop  offset="1" style="stop-color:#000000"/>
		</linearGradient>
		<rect x="245.9" y="341.3" class="st25" width="18.3" height="4.4"/>
		<path class="st26" d="M319.1,340.7l-71.3,1c-2.5,0-3.6-1.3-3.6-2.9v0c0-1.6,1-3,3.6-2.9l71.3,1c1,0,1.9,0.9,1.9,1.9v0
			C321,339.8,320.2,340.7,319.1,340.7z"/>
		<path class="st26" d="M312.1,353l-27.8-11.8c-0.6-0.2-0.8-0.9-0.6-1.4l0,0c0.2-0.6,0.9-0.8,1.4-0.6L313,351
			c0.6,0.2,0.8,0.9,0.6,1.4l0,0C313.3,353,312.7,353.2,312.1,353z"/>
		<linearGradient id="SVGID_17_" gradientUnits="userSpaceOnUse" x1="255.0247" y1="406.8275" x2="255.0247" y2="402.859">
			<stop  offset="0" style="stop-color:#000000"/>
			<stop  offset="0.5153" style="stop-color:#FFFFFF"/>
			<stop  offset="1" style="stop-color:#000000"/>
		</linearGradient>
		<rect x="248.2" y="402.9" class="st27" width="13.7" height="4"/>
		<linearGradient id="SVGID_18_" gradientUnits="userSpaceOnUse" x1="255.0247" y1="393.5212" x2="255.0247" y2="389.5527">
			<stop  offset="0" style="stop-color:#000000"/>
			<stop  offset="0.5153" style="stop-color:#FFFFFF"/>
			<stop  offset="1" style="stop-color:#000000"/>
		</linearGradient>
		<rect x="248.2" y="389.6" class="st28" width="13.7" height="4"/>
		<linearGradient id="SVGID_19_" gradientUnits="userSpaceOnUse" x1="255.0247" y1="377.7158" x2="255.0247" y2="373.7473">
			<stop  offset="0" style="stop-color:#000000"/>
			<stop  offset="0.5153" style="stop-color:#FFFFFF"/>
			<stop  offset="1" style="stop-color:#000000"/>
		</linearGradient>
		<rect x="248.2" y="373.7" class="st29" width="13.7" height="4"/>
		<linearGradient id="SVGID_20_" gradientUnits="userSpaceOnUse" x1="255.0247" y1="366.2822" x2="255.0247" y2="362.3137">
			<stop  offset="0" style="stop-color:#000000"/>
			<stop  offset="0.5153" style="stop-color:#FFFFFF"/>
			<stop  offset="1" style="stop-color:#000000"/>
		</linearGradient>
		<rect x="248.2" y="362.3" class="st30" width="13.7" height="4"/>
		<linearGradient id="SVGID_21_" gradientUnits="userSpaceOnUse" x1="268.1913" y1="367.122" x2="268.1913" y2="361.4738">
			<stop  offset="0" style="stop-color:#000000"/>
			<stop  offset="0.5153" style="stop-color:#FFFFFF"/>
			<stop  offset="1" style="stop-color:#000000"/>
		</linearGradient>
		<rect x="267" y="361.5" class="st31" width="2.4" height="5.6"/>
		<linearGradient id="SVGID_22_" gradientUnits="userSpaceOnUse" x1="241.5455" y1="367.122" x2="241.5455" y2="361.4738">
			<stop  offset="0" style="stop-color:#000000"/>
			<stop  offset="0.5153" style="stop-color:#FFFFFF"/>
			<stop  offset="1" style="stop-color:#000000"/>
		</linearGradient>
		<rect x="239.9" y="361.5" class="st32" width="3.3" height="5.6"/>
		<linearGradient id="SVGID_23_" gradientUnits="userSpaceOnUse" x1="268.1913" y1="378.5556" x2="268.1913" y2="372.9075">
			<stop  offset="0" style="stop-color:#000000"/>
			<stop  offset="0.5153" style="stop-color:#FFFFFF"/>
			<stop  offset="1" style="stop-color:#000000"/>
		</linearGradient>
		<rect x="267" y="372.9" class="st33" width="2.4" height="5.6"/>
		<linearGradient id="SVGID_24_" gradientUnits="userSpaceOnUse" x1="241.5455" y1="378.5556" x2="241.5455" y2="372.9075">
			<stop  offset="0" style="stop-color:#000000"/>
			<stop  offset="0.5153" style="stop-color:#FFFFFF"/>
			<stop  offset="1" style="stop-color:#000000"/>
		</linearGradient>
		<rect x="239.9" y="372.9" class="st34" width="3.3" height="5.6"/>
		<linearGradient id="SVGID_25_" gradientUnits="userSpaceOnUse" x1="268.1913" y1="394.361" x2="268.1913" y2="388.7129">
			<stop  offset="0" style="stop-color:#000000"/>
			<stop  offset="0.5153" style="stop-color:#FFFFFF"/>
			<stop  offset="1" style="stop-color:#000000"/>
		</linearGradient>
		<rect x="267" y="388.7" class="st35" width="2.4" height="5.6"/>
		<linearGradient id="SVGID_26_" gradientUnits="userSpaceOnUse" x1="241.5455" y1="394.361" x2="241.5455" y2="388.7129">
			<stop  offset="0" style="stop-color:#000000"/>
			<stop  offset="0.5153" style="stop-color:#FFFFFF"/>
			<stop  offset="1" style="stop-color:#000000"/>
		</linearGradient>
		<rect x="239.9" y="388.7" class="st36" width="3.3" height="5.6"/>
		<linearGradient id="SVGID_27_" gradientUnits="userSpaceOnUse" x1="268.1913" y1="407.6673" x2="268.1913" y2="402.0192">
			<stop  offset="0" style="stop-color:#000000"/>
			<stop  offset="0.5153" style="stop-color:#FFFFFF"/>
			<stop  offset="1" style="stop-color:#000000"/>
		</linearGradient>
		<rect x="267" y="402" class="st37" width="2.4" height="5.6"/>
		<linearGradient id="SVGID_28_" gradientUnits="userSpaceOnUse" x1="241.5455" y1="407.6673" x2="241.5455" y2="402.0192">
			<stop  offset="0" style="stop-color:#000000"/>
			<stop  offset="0.5153" style="stop-color:#FFFFFF"/>
			<stop  offset="1" style="stop-color:#000000"/>
		</linearGradient>
		<rect x="239.9" y="402" class="st38" width="3.3" height="5.6"/>
	</g>
	<g>
		<linearGradient id="SVGID_29_" gradientUnits="userSpaceOnUse" x1="52.3372" y1="409.2874" x2="52.3372" y2="359.509">
			<stop  offset="0" style="stop-color:#000000"/>
			<stop  offset="0.5153" style="stop-color:#FFFFFF"/>
			<stop  offset="1" style="stop-color:#000000"/>
		</linearGradient>
		<path class="st39" d="M52.3,409.3L52.3,409.3c-1.4,0-2.5-1.1-2.5-2.5V362c0-1.4,1.1-2.5,2.5-2.5h0c1.4,0,2.5,1.1,2.5,2.5v44.8
			C54.8,408.2,53.7,409.3,52.3,409.3z"/>
		<linearGradient id="SVGID_30_" gradientUnits="userSpaceOnUse" x1="71.0038" y1="409.2874" x2="71.0038" y2="359.509">
			<stop  offset="0" style="stop-color:#000000"/>
			<stop  offset="0.5153" style="stop-color:#FFFFFF"/>
			<stop  offset="1" style="stop-color:#000000"/>
		</linearGradient>
		<path class="st40" d="M71,409.3L71,409.3c-1.4,0-2.5-1.1-2.5-2.5V362c0-1.4,1.1-2.5,2.5-2.5h0c1.4,0,2.5,1.1,2.5,2.5v44.8
			C73.5,408.2,72.4,409.3,71,409.3z"/>
		<linearGradient id="SVGID_31_" gradientUnits="userSpaceOnUse" x1="61.6705" y1="405.4815" x2="61.6705" y2="363.3148">
			<stop  offset="0" style="stop-color:#37435B"/>
			<stop  offset="0.5153" style="stop-color:#4DACF3"/>
			<stop  offset="1" style="stop-color:#114779"/>
		</linearGradient>
		<path class="st41" d="M61.7,363.3L61.7,363.3c-3.8,0-6.8,3.1-6.8,6.8v28.5c0,3.8,3.1,6.8,6.8,6.8h0c3.8,0,6.8-3.1,6.8-6.8v-28.5
			C68.5,366.4,65.4,363.3,61.7,363.3z"/>
		<linearGradient id="SVGID_32_" gradientUnits="userSpaceOnUse" x1="55.9205" y1="356.5479" x2="67.4205" y2="356.5479">
			<stop  offset="0" style="stop-color:#37435B"/>
			<stop  offset="0.5153" style="stop-color:#4DACF3"/>
			<stop  offset="1" style="stop-color:#114779"/>
		</linearGradient>
		<rect x="55.9" y="350" class="st42" width="11.5" height="13"/>
		<linearGradient id="SVGID_33_" gradientUnits="userSpaceOnUse" x1="52.5038" y1="347.8728" x2="70.8372" y2="347.8728">
			<stop  offset="0" style="stop-color:#37435B"/>
			<stop  offset="0.5153" style="stop-color:#4DACF3"/>
			<stop  offset="1" style="stop-color:#114779"/>
		</linearGradient>
		<rect x="52.5" y="345.7" class="st43" width="18.3" height="4.4"/>
		<linearGradient id="SVGID_34_" gradientUnits="userSpaceOnUse" x1="52.5038" y1="343.5225" x2="70.8372" y2="343.5225">
			<stop  offset="0" style="stop-color:#000000"/>
			<stop  offset="0.5153" style="stop-color:#FFFFFF"/>
			<stop  offset="1" style="stop-color:#000000"/>
		</linearGradient>
		<rect x="52.5" y="341.3" class="st44" width="18.3" height="4.4"/>
		<path class="st26" d="M125.8,340.7l-71.3,1c-2.5,0-3.6-1.3-3.6-2.9v0c0-1.6,1-3,3.6-2.9l71.3,1c1,0,1.9,0.9,1.9,1.9v0
			C127.7,339.8,126.8,340.7,125.8,340.7z"/>
		<path class="st26" d="M118.8,353L91,341.2c-0.6-0.2-0.8-0.9-0.6-1.4l0,0c0.2-0.6,0.9-0.8,1.4-0.6l27.8,11.8
			c0.6,0.2,0.8,0.9,0.6,1.4l0,0C120,353,119.3,353.2,118.8,353z"/>
		<linearGradient id="SVGID_35_" gradientUnits="userSpaceOnUse" x1="61.6705" y1="406.8275" x2="61.6705" y2="402.859">
			<stop  offset="0" style="stop-color:#000000"/>
			<stop  offset="0.5153" style="stop-color:#FFFFFF"/>
			<stop  offset="1" style="stop-color:#000000"/>
		</linearGradient>
		<rect x="54.8" y="402.9" class="st45" width="13.7" height="4"/>
		<linearGradient id="SVGID_36_" gradientUnits="userSpaceOnUse" x1="61.6705" y1="393.5212" x2="61.6705" y2="389.5527">
			<stop  offset="0" style="stop-color:#000000"/>
			<stop  offset="0.5153" style="stop-color:#FFFFFF"/>
			<stop  offset="1" style="stop-color:#000000"/>
		</linearGradient>
		<rect x="54.8" y="389.6" class="st46" width="13.7" height="4"/>
		<linearGradient id="SVGID_37_" gradientUnits="userSpaceOnUse" x1="61.6705" y1="377.7158" x2="61.6705" y2="373.7473">
			<stop  offset="0" style="stop-color:#000000"/>
			<stop  offset="0.5153" style="stop-color:#FFFFFF"/>
			<stop  offset="1" style="stop-color:#000000"/>
		</linearGradient>
		<rect x="54.8" y="373.7" class="st47" width="13.7" height="4"/>
		<linearGradient id="SVGID_38_" gradientUnits="userSpaceOnUse" x1="61.6705" y1="366.2822" x2="61.6705" y2="362.3137">
			<stop  offset="0" style="stop-color:#000000"/>
			<stop  offset="0.5153" style="stop-color:#FFFFFF"/>
			<stop  offset="1" style="stop-color:#000000"/>
		</linearGradient>
		<rect x="54.8" y="362.3" class="st48" width="13.7" height="4"/>
		<linearGradient id="SVGID_39_" gradientUnits="userSpaceOnUse" x1="74.8372" y1="367.122" x2="74.8372" y2="361.4738">
			<stop  offset="0" style="stop-color:#000000"/>
			<stop  offset="0.5153" style="stop-color:#FFFFFF"/>
			<stop  offset="1" style="stop-color:#000000"/>
		</linearGradient>
		<rect x="73.6" y="361.5" class="st49" width="2.4" height="5.6"/>
		<linearGradient id="SVGID_40_" gradientUnits="userSpaceOnUse" x1="48.1913" y1="367.122" x2="48.1913" y2="361.4738">
			<stop  offset="0" style="stop-color:#000000"/>
			<stop  offset="0.5153" style="stop-color:#FFFFFF"/>
			<stop  offset="1" style="stop-color:#000000"/>
		</linearGradient>
		<rect x="46.5" y="361.5" class="st50" width="3.3" height="5.6"/>
		<linearGradient id="SVGID_41_" gradientUnits="userSpaceOnUse" x1="74.8372" y1="378.5556" x2="74.8372" y2="372.9075">
			<stop  offset="0" style="stop-color:#000000"/>
			<stop  offset="0.5153" style="stop-color:#FFFFFF"/>
			<stop  offset="1" style="stop-color:#000000"/>
		</linearGradient>
		<rect x="73.6" y="372.9" class="st51" width="2.4" height="5.6"/>
		<linearGradient id="SVGID_42_" gradientUnits="userSpaceOnUse" x1="48.1913" y1="378.5556" x2="48.1913" y2="372.9075">
			<stop  offset="0" style="stop-color:#000000"/>
			<stop  offset="0.5153" style="stop-color:#FFFFFF"/>
			<stop  offset="1" style="stop-color:#000000"/>
		</linearGradient>
		<rect x="46.5" y="372.9" class="st52" width="3.3" height="5.6"/>
		<linearGradient id="SVGID_43_" gradientUnits="userSpaceOnUse" x1="74.8372" y1="394.361" x2="74.8372" y2="388.7129">
			<stop  offset="0" style="stop-color:#000000"/>
			<stop  offset="0.5153" style="stop-color:#FFFFFF"/>
			<stop  offset="1" style="stop-color:#000000"/>
		</linearGradient>
		<rect x="73.6" y="388.7" class="st53" width="2.4" height="5.6"/>
		<linearGradient id="SVGID_44_" gradientUnits="userSpaceOnUse" x1="48.1913" y1="394.361" x2="48.1913" y2="388.7129">
			<stop  offset="0" style="stop-color:#000000"/>
			<stop  offset="0.5153" style="stop-color:#FFFFFF"/>
			<stop  offset="1" style="stop-color:#000000"/>
		</linearGradient>
		<rect x="46.5" y="388.7" class="st54" width="3.3" height="5.6"/>
		<linearGradient id="SVGID_45_" gradientUnits="userSpaceOnUse" x1="74.8372" y1="407.6673" x2="74.8372" y2="402.0192">
			<stop  offset="0" style="stop-color:#000000"/>
			<stop  offset="0.5153" style="stop-color:#FFFFFF"/>
			<stop  offset="1" style="stop-color:#000000"/>
		</linearGradient>
		<rect x="73.6" y="402" class="st55" width="2.4" height="5.6"/>
		<linearGradient id="SVGID_46_" gradientUnits="userSpaceOnUse" x1="48.1913" y1="407.6673" x2="48.1913" y2="402.0192">
			<stop  offset="0" style="stop-color:#000000"/>
			<stop  offset="0.5153" style="stop-color:#FFFFFF"/>
			<stop  offset="1" style="stop-color:#000000"/>
		</linearGradient>
		<rect x="46.5" y="402" class="st56" width="3.3" height="5.6"/>
	</g>
	<g>
		<linearGradient id="SVGID_47_" gradientUnits="userSpaceOnUse" x1="245.6913" y1="491.9819" x2="245.6913" y2="442.2036">
			<stop  offset="0" style="stop-color:#000000"/>
			<stop  offset="0.5153" style="stop-color:#FFFFFF"/>
			<stop  offset="1" style="stop-color:#000000"/>
		</linearGradient>
		<path class="st57" d="M245.7,492L245.7,492c-1.4,0-2.5-1.1-2.5-2.5v-44.8c0-1.4,1.1-2.5,2.5-2.5h0c1.4,0,2.5,1.1,2.5,2.5v44.8
			C248.2,490.9,247.1,492,245.7,492z"/>
		<linearGradient id="SVGID_48_" gradientUnits="userSpaceOnUse" x1="264.358" y1="491.9819" x2="264.358" y2="442.2036">
			<stop  offset="0" style="stop-color:#000000"/>
			<stop  offset="0.5153" style="stop-color:#FFFFFF"/>
			<stop  offset="1" style="stop-color:#000000"/>
		</linearGradient>
		<path class="st58" d="M264.4,492L264.4,492c-1.4,0-2.5-1.1-2.5-2.5v-44.8c0-1.4,1.1-2.5,2.5-2.5l0,0c1.4,0,2.5,1.1,2.5,2.5v44.8
			C266.9,490.9,265.7,492,264.4,492z"/>
		<linearGradient id="SVGID_49_" gradientUnits="userSpaceOnUse" x1="255.0247" y1="488.1761" x2="255.0247" y2="446.0095">
			<stop  offset="0" style="stop-color:#37435B"/>
			<stop  offset="0.5153" style="stop-color:#4DACF3"/>
			<stop  offset="1" style="stop-color:#114779"/>
		</linearGradient>
		<path class="st59" d="M255,446L255,446c-3.8,0-6.8,3.1-6.8,6.8v28.5c0,3.8,3.1,6.8,6.8,6.8h0c3.8,0,6.8-3.1,6.8-6.8v-28.5
			C261.9,449.1,258.8,446,255,446z"/>
		<linearGradient id="SVGID_50_" gradientUnits="userSpaceOnUse" x1="249.2747" y1="439.2425" x2="260.7747" y2="439.2425">
			<stop  offset="0" style="stop-color:#37435B"/>
			<stop  offset="0.5153" style="stop-color:#4DACF3"/>
			<stop  offset="1" style="stop-color:#114779"/>
		</linearGradient>
		<rect x="249.3" y="432.7" class="st60" width="11.5" height="13"/>
		<linearGradient id="SVGID_51_" gradientUnits="userSpaceOnUse" x1="245.858" y1="430.5674" x2="264.1913" y2="430.5674">
			<stop  offset="0" style="stop-color:#37435B"/>
			<stop  offset="0.5153" style="stop-color:#4DACF3"/>
			<stop  offset="1" style="stop-color:#114779"/>
		</linearGradient>
		<rect x="245.9" y="428.4" class="st61" width="18.3" height="4.4"/>
		<linearGradient id="SVGID_52_" gradientUnits="userSpaceOnUse" x1="245.858" y1="426.2171" x2="264.1913" y2="426.2171">
			<stop  offset="0" style="stop-color:#000000"/>
			<stop  offset="0.5153" style="stop-color:#FFFFFF"/>
			<stop  offset="1" style="stop-color:#000000"/>
		</linearGradient>
		<rect x="245.9" y="424" class="st62" width="18.3" height="4.4"/>
		<path class="st26" d="M319.1,423.4l-71.3,1c-2.5,0-3.6-1.3-3.6-2.9l0,0c0-1.6,1-3,3.6-2.9l71.3,1c1,0,1.9,0.9,1.9,1.9l0,0
			C321,422.5,320.2,423.4,319.1,423.4z"/>
		<path class="st26" d="M312.1,435.7l-27.8-11.8c-0.6-0.2-0.8-0.9-0.6-1.4l0,0c0.2-0.6,0.9-0.8,1.4-0.6l27.8,11.8
			c0.6,0.2,0.8,0.9,0.6,1.4l0,0C313.3,435.7,312.7,435.9,312.1,435.7z"/>
		<linearGradient id="SVGID_53_" gradientUnits="userSpaceOnUse" x1="255.0247" y1="489.5221" x2="255.0247" y2="485.5536">
			<stop  offset="0" style="stop-color:#000000"/>
			<stop  offset="0.5153" style="stop-color:#FFFFFF"/>
			<stop  offset="1" style="stop-color:#000000"/>
		</linearGradient>
		<rect x="248.2" y="485.6" class="st63" width="13.7" height="4"/>
		<linearGradient id="SVGID_54_" gradientUnits="userSpaceOnUse" x1="255.0247" y1="476.2158" x2="255.0247" y2="472.2473">
			<stop  offset="0" style="stop-color:#000000"/>
			<stop  offset="0.5153" style="stop-color:#FFFFFF"/>
			<stop  offset="1" style="stop-color:#000000"/>
		</linearGradient>
		<rect x="248.2" y="472.2" class="st64" width="13.7" height="4"/>
		<linearGradient id="SVGID_55_" gradientUnits="userSpaceOnUse" x1="255.0247" y1="460.4104" x2="255.0247" y2="456.4419">
			<stop  offset="0" style="stop-color:#000000"/>
			<stop  offset="0.5153" style="stop-color:#FFFFFF"/>
			<stop  offset="1" style="stop-color:#000000"/>
		</linearGradient>
		<rect x="248.2" y="456.4" class="st65" width="13.7" height="4"/>
		<linearGradient id="SVGID_56_" gradientUnits="userSpaceOnUse" x1="255.0247" y1="448.9767" x2="255.0247" y2="445.0082">
			<stop  offset="0" style="stop-color:#000000"/>
			<stop  offset="0.5153" style="stop-color:#FFFFFF"/>
			<stop  offset="1" style="stop-color:#000000"/>
		</linearGradient>
		<rect x="248.2" y="445" class="st66" width="13.7" height="4"/>
		<linearGradient id="SVGID_57_" gradientUnits="userSpaceOnUse" x1="268.1913" y1="449.8166" x2="268.1913" y2="444.1684">
			<stop  offset="0" style="stop-color:#000000"/>
			<stop  offset="0.5153" style="stop-color:#FFFFFF"/>
			<stop  offset="1" style="stop-color:#000000"/>
		</linearGradient>
		<rect x="267" y="444.2" class="st67" width="2.4" height="5.6"/>
		<linearGradient id="SVGID_58_" gradientUnits="userSpaceOnUse" x1="241.5455" y1="449.8166" x2="241.5455" y2="444.1684">
			<stop  offset="0" style="stop-color:#000000"/>
			<stop  offset="0.5153" style="stop-color:#FFFFFF"/>
			<stop  offset="1" style="stop-color:#000000"/>
		</linearGradient>
		<rect x="239.9" y="444.2" class="st68" width="3.3" height="5.6"/>
		<linearGradient id="SVGID_59_" gradientUnits="userSpaceOnUse" x1="268.1913" y1="461.2502" x2="268.1913" y2="455.6021">
			<stop  offset="0" style="stop-color:#000000"/>
			<stop  offset="0.5153" style="stop-color:#FFFFFF"/>
			<stop  offset="1" style="stop-color:#000000"/>
		</linearGradient>
		<rect x="267" y="455.6" class="st69" width="2.4" height="5.6"/>
		<linearGradient id="SVGID_60_" gradientUnits="userSpaceOnUse" x1="241.5455" y1="461.2502" x2="241.5455" y2="455.6021">
			<stop  offset="0" style="stop-color:#000000"/>
			<stop  offset="0.5153" style="stop-color:#FFFFFF"/>
			<stop  offset="1" style="stop-color:#000000"/>
		</linearGradient>
		<rect x="239.9" y="455.6" class="st70" width="3.3" height="5.6"/>
		<linearGradient id="SVGID_61_" gradientUnits="userSpaceOnUse" x1="268.1913" y1="477.0556" x2="268.1913" y2="471.4075">
			<stop  offset="0" style="stop-color:#000000"/>
			<stop  offset="0.5153" style="stop-color:#FFFFFF"/>
			<stop  offset="1" style="stop-color:#000000"/>
		</linearGradient>
		<rect x="267" y="471.4" class="st71" width="2.4" height="5.6"/>
		<linearGradient id="SVGID_62_" gradientUnits="userSpaceOnUse" x1="241.5455" y1="477.0556" x2="241.5455" y2="471.4075">
			<stop  offset="0" style="stop-color:#000000"/>
			<stop  offset="0.5153" style="stop-color:#FFFFFF"/>
			<stop  offset="1" style="stop-color:#000000"/>
		</linearGradient>
		<rect x="239.9" y="471.4" class="st72" width="3.3" height="5.6"/>
		<linearGradient id="SVGID_63_" gradientUnits="userSpaceOnUse" x1="268.1913" y1="490.3619" x2="268.1913" y2="484.7137">
			<stop  offset="0" style="stop-color:#000000"/>
			<stop  offset="0.5153" style="stop-color:#FFFFFF"/>
			<stop  offset="1" style="stop-color:#000000"/>
		</linearGradient>
		<rect x="267" y="484.7" class="st73" width="2.4" height="5.6"/>
		<linearGradient id="SVGID_64_" gradientUnits="userSpaceOnUse" x1="241.5455" y1="490.3619" x2="241.5455" y2="484.7137">
			<stop  offset="0" style="stop-color:#000000"/>
			<stop  offset="0.5153" style="stop-color:#FFFFFF"/>
			<stop  offset="1" style="stop-color:#000000"/>
		</linearGradient>
		<rect x="239.9" y="484.7" class="st74" width="3.3" height="5.6"/>
	</g>
	<g>
		<linearGradient id="SVGID_65_" gradientUnits="userSpaceOnUse" x1="52.3372" y1="491.9819" x2="52.3372" y2="442.2036">
			<stop  offset="0" style="stop-color:#000000"/>
			<stop  offset="0.5153" style="stop-color:#FFFFFF"/>
			<stop  offset="1" style="stop-color:#000000"/>
		</linearGradient>
		<path class="st75" d="M52.3,492L52.3,492c-1.4,0-2.5-1.1-2.5-2.5v-44.8c0-1.4,1.1-2.5,2.5-2.5h0c1.4,0,2.5,1.1,2.5,2.5v44.8
			C54.8,490.9,53.7,492,52.3,492z"/>
		<linearGradient id="SVGID_66_" gradientUnits="userSpaceOnUse" x1="71.0038" y1="491.9819" x2="71.0038" y2="442.2036">
			<stop  offset="0" style="stop-color:#000000"/>
			<stop  offset="0.5153" style="stop-color:#FFFFFF"/>
			<stop  offset="1" style="stop-color:#000000"/>
		</linearGradient>
		<path class="st76" d="M71,492L71,492c-1.4,0-2.5-1.1-2.5-2.5v-44.8c0-1.4,1.1-2.5,2.5-2.5h0c1.4,0,2.5,1.1,2.5,2.5v44.8
			C73.5,490.9,72.4,492,71,492z"/>
		<linearGradient id="SVGID_67_" gradientUnits="userSpaceOnUse" x1="61.6705" y1="488.1761" x2="61.6705" y2="446.0095">
			<stop  offset="0" style="stop-color:#37435B"/>
			<stop  offset="0.5153" style="stop-color:#4DACF3"/>
			<stop  offset="1" style="stop-color:#114779"/>
		</linearGradient>
		<path class="st77" d="M61.7,446L61.7,446c-3.8,0-6.8,3.1-6.8,6.8v28.5c0,3.8,3.1,6.8,6.8,6.8h0c3.8,0,6.8-3.1,6.8-6.8v-28.5
			C68.5,449.1,65.4,446,61.7,446z"/>
		<linearGradient id="SVGID_68_" gradientUnits="userSpaceOnUse" x1="55.9205" y1="439.2425" x2="67.4205" y2="439.2425">
			<stop  offset="0" style="stop-color:#37435B"/>
			<stop  offset="0.5153" style="stop-color:#4DACF3"/>
			<stop  offset="1" style="stop-color:#114779"/>
		</linearGradient>
		<rect x="55.9" y="432.7" class="st78" width="11.5" height="13"/>
		<linearGradient id="SVGID_69_" gradientUnits="userSpaceOnUse" x1="52.5038" y1="430.5674" x2="70.8372" y2="430.5674">
			<stop  offset="0" style="stop-color:#37435B"/>
			<stop  offset="0.5153" style="stop-color:#4DACF3"/>
			<stop  offset="1" style="stop-color:#114779"/>
		</linearGradient>
		<rect x="52.5" y="428.4" class="st79" width="18.3" height="4.4"/>
		<linearGradient id="SVGID_70_" gradientUnits="userSpaceOnUse" x1="52.5038" y1="426.2171" x2="70.8372" y2="426.2171">
			<stop  offset="0" style="stop-color:#000000"/>
			<stop  offset="0.5153" style="stop-color:#FFFFFF"/>
			<stop  offset="1" style="stop-color:#000000"/>
		</linearGradient>
		<rect x="52.5" y="424" class="st80" width="18.3" height="4.4"/>
		<path class="st26" d="M125.8,423.4l-71.3,1c-2.5,0-3.6-1.3-3.6-2.9l0,0c0-1.6,1-3,3.6-2.9l71.3,1c1,0,1.9,0.9,1.9,1.9l0,0
			C127.7,422.5,126.8,423.4,125.8,423.4z"/>
		<path class="st26" d="M118.8,435.7L91,423.9c-0.6-0.2-0.8-0.9-0.6-1.4l0,0c0.2-0.6,0.9-0.8,1.4-0.6l27.8,11.8
			c0.6,0.2,0.8,0.9,0.6,1.4l0,0C120,435.7,119.3,435.9,118.8,435.7z"/>
		<linearGradient id="SVGID_71_" gradientUnits="userSpaceOnUse" x1="61.6705" y1="489.5221" x2="61.6705" y2="485.5536">
			<stop  offset="0" style="stop-color:#000000"/>
			<stop  offset="0.5153" style="stop-color:#FFFFFF"/>
			<stop  offset="1" style="stop-color:#000000"/>
		</linearGradient>
		<rect x="54.8" y="485.6" class="st81" width="13.7" height="4"/>
		<linearGradient id="SVGID_72_" gradientUnits="userSpaceOnUse" x1="61.6705" y1="476.2158" x2="61.6705" y2="472.2473">
			<stop  offset="0" style="stop-color:#000000"/>
			<stop  offset="0.5153" style="stop-color:#FFFFFF"/>
			<stop  offset="1" style="stop-color:#000000"/>
		</linearGradient>
		<rect x="54.8" y="472.2" class="st82" width="13.7" height="4"/>
		<linearGradient id="SVGID_73_" gradientUnits="userSpaceOnUse" x1="61.6705" y1="460.4104" x2="61.6705" y2="456.4419">
			<stop  offset="0" style="stop-color:#000000"/>
			<stop  offset="0.5153" style="stop-color:#FFFFFF"/>
			<stop  offset="1" style="stop-color:#000000"/>
		</linearGradient>
		<rect x="54.8" y="456.4" class="st83" width="13.7" height="4"/>
		<linearGradient id="SVGID_74_" gradientUnits="userSpaceOnUse" x1="61.6705" y1="448.9767" x2="61.6705" y2="445.0082">
			<stop  offset="0" style="stop-color:#000000"/>
			<stop  offset="0.5153" style="stop-color:#FFFFFF"/>
			<stop  offset="1" style="stop-color:#000000"/>
		</linearGradient>
		<rect x="54.8" y="445" class="st84" width="13.7" height="4"/>
		<linearGradient id="SVGID_75_" gradientUnits="userSpaceOnUse" x1="74.8372" y1="449.8166" x2="74.8372" y2="444.1684">
			<stop  offset="0" style="stop-color:#000000"/>
			<stop  offset="0.5153" style="stop-color:#FFFFFF"/>
			<stop  offset="1" style="stop-color:#000000"/>
		</linearGradient>
		<rect x="73.6" y="444.2" class="st85" width="2.4" height="5.6"/>
		<linearGradient id="SVGID_76_" gradientUnits="userSpaceOnUse" x1="48.1913" y1="449.8166" x2="48.1913" y2="444.1684">
			<stop  offset="0" style="stop-color:#000000"/>
			<stop  offset="0.5153" style="stop-color:#FFFFFF"/>
			<stop  offset="1" style="stop-color:#000000"/>
		</linearGradient>
		<rect x="46.5" y="444.2" class="st86" width="3.3" height="5.6"/>
		<linearGradient id="SVGID_77_" gradientUnits="userSpaceOnUse" x1="74.8372" y1="461.2502" x2="74.8372" y2="455.6021">
			<stop  offset="0" style="stop-color:#000000"/>
			<stop  offset="0.5153" style="stop-color:#FFFFFF"/>
			<stop  offset="1" style="stop-color:#000000"/>
		</linearGradient>
		<rect x="73.6" y="455.6" class="st87" width="2.4" height="5.6"/>
		<linearGradient id="SVGID_78_" gradientUnits="userSpaceOnUse" x1="48.1913" y1="461.2502" x2="48.1913" y2="455.6021">
			<stop  offset="0" style="stop-color:#000000"/>
			<stop  offset="0.5153" style="stop-color:#FFFFFF"/>
			<stop  offset="1" style="stop-color:#000000"/>
		</linearGradient>
		<rect x="46.5" y="455.6" class="st88" width="3.3" height="5.6"/>
		<linearGradient id="SVGID_79_" gradientUnits="userSpaceOnUse" x1="74.8372" y1="477.0556" x2="74.8372" y2="471.4075">
			<stop  offset="0" style="stop-color:#000000"/>
			<stop  offset="0.5153" style="stop-color:#FFFFFF"/>
			<stop  offset="1" style="stop-color:#000000"/>
		</linearGradient>
		<rect x="73.6" y="471.4" class="st89" width="2.4" height="5.6"/>
		<linearGradient id="SVGID_80_" gradientUnits="userSpaceOnUse" x1="48.1913" y1="477.0556" x2="48.1913" y2="471.4075">
			<stop  offset="0" style="stop-color:#000000"/>
			<stop  offset="0.5153" style="stop-color:#FFFFFF"/>
			<stop  offset="1" style="stop-color:#000000"/>
		</linearGradient>
		<rect x="46.5" y="471.4" class="st90" width="3.3" height="5.6"/>
		<linearGradient id="SVGID_81_" gradientUnits="userSpaceOnUse" x1="74.8372" y1="490.3619" x2="74.8372" y2="484.7137">
			<stop  offset="0" style="stop-color:#000000"/>
			<stop  offset="0.5153" style="stop-color:#FFFFFF"/>
			<stop  offset="1" style="stop-color:#000000"/>
		</linearGradient>
		<rect x="73.6" y="484.7" class="st91" width="2.4" height="5.6"/>
		<linearGradient id="SVGID_82_" gradientUnits="userSpaceOnUse" x1="48.1913" y1="490.3619" x2="48.1913" y2="484.7137">
			<stop  offset="0" style="stop-color:#000000"/>
			<stop  offset="0.5153" style="stop-color:#FFFFFF"/>
			<stop  offset="1" style="stop-color:#000000"/>
		</linearGradient>
		<rect x="46.5" y="484.7" class="st92" width="3.3" height="5.6"/>
	</g>
	<linearGradient id="SVGID_83_" gradientUnits="userSpaceOnUse" x1="205.4205" y1="560.0649" x2="205.4205" y2="542.7315">
		<stop  offset="0" style="stop-color:#000000"/>
		<stop  offset="0.5153" style="stop-color:#FFFFFF"/>
		<stop  offset="1" style="stop-color:#000000"/>
	</linearGradient>
	<path class="st93" d="M243.2,560.1h-70.8c0,0-4.7-4-4.7-8.7c0-5.3,4.7-8.7,4.7-8.7h70.8V560.1z"/>
	<g>
		<linearGradient id="SVGID_84_" gradientUnits="userSpaceOnUse" x1="245.6913" y1="576.3982" x2="245.6913" y2="526.6199">
			<stop  offset="0" style="stop-color:#000000"/>
			<stop  offset="0.5153" style="stop-color:#FFFFFF"/>
			<stop  offset="1" style="stop-color:#000000"/>
		</linearGradient>
		<path class="st94" d="M245.7,576.4L245.7,576.4c-1.4,0-2.5-1.1-2.5-2.5v-44.8c0-1.4,1.1-2.5,2.5-2.5h0c1.4,0,2.5,1.1,2.5,2.5v44.8
			C248.2,575.3,247.1,576.4,245.7,576.4z"/>
		<linearGradient id="SVGID_85_" gradientUnits="userSpaceOnUse" x1="264.358" y1="576.3982" x2="264.358" y2="526.6199">
			<stop  offset="0" style="stop-color:#000000"/>
			<stop  offset="0.5153" style="stop-color:#FFFFFF"/>
			<stop  offset="1" style="stop-color:#000000"/>
		</linearGradient>
		<path class="st95" d="M264.4,576.4L264.4,576.4c-1.4,0-2.5-1.1-2.5-2.5v-44.8c0-1.4,1.1-2.5,2.5-2.5l0,0c1.4,0,2.5,1.1,2.5,2.5
			v44.8C266.9,575.3,265.7,576.4,264.4,576.4z"/>
		<linearGradient id="SVGID_86_" gradientUnits="userSpaceOnUse" x1="255.0247" y1="572.5923" x2="255.0247" y2="530.4257">
			<stop  offset="0" style="stop-color:#37435B"/>
			<stop  offset="0.5153" style="stop-color:#4DACF3"/>
			<stop  offset="1" style="stop-color:#114779"/>
		</linearGradient>
		<path class="st96" d="M255,530.4L255,530.4c-3.8,0-6.8,3.1-6.8,6.8v28.5c0,3.8,3.1,6.8,6.8,6.8h0c3.8,0,6.8-3.1,6.8-6.8v-28.5
			C261.9,533.5,258.8,530.4,255,530.4z"/>
		<linearGradient id="SVGID_87_" gradientUnits="userSpaceOnUse" x1="249.2747" y1="523.6588" x2="260.7747" y2="523.6588">
			<stop  offset="0" style="stop-color:#37435B"/>
			<stop  offset="0.5153" style="stop-color:#4DACF3"/>
			<stop  offset="1" style="stop-color:#114779"/>
		</linearGradient>
		<rect x="249.3" y="517.2" class="st97" width="11.5" height="13"/>
		<linearGradient id="SVGID_88_" gradientUnits="userSpaceOnUse" x1="245.858" y1="514.9836" x2="264.1913" y2="514.9836">
			<stop  offset="0" style="stop-color:#37435B"/>
			<stop  offset="0.5153" style="stop-color:#4DACF3"/>
			<stop  offset="1" style="stop-color:#114779"/>
		</linearGradient>
		<rect x="245.9" y="512.8" class="st98" width="18.3" height="4.4"/>
		<linearGradient id="SVGID_89_" gradientUnits="userSpaceOnUse" x1="245.858" y1="510.6333" x2="264.1913" y2="510.6333">
			<stop  offset="0" style="stop-color:#000000"/>
			<stop  offset="0.5153" style="stop-color:#FFFFFF"/>
			<stop  offset="1" style="stop-color:#000000"/>
		</linearGradient>
		<rect x="245.9" y="508.5" class="st99" width="18.3" height="4.4"/>
		<path class="st26" d="M319.1,507.8l-71.3,1c-2.5,0-3.6-1.3-3.6-2.9l0,0c0-1.6,1-3,3.6-2.9l71.3,1c1,0,1.9,0.9,1.9,1.9l0,0
			C321,506.9,320.2,507.8,319.1,507.8z"/>
		<path class="st26" d="M312.1,520.1l-27.8-11.8c-0.6-0.2-0.8-0.9-0.6-1.4l0,0c0.2-0.6,0.9-0.8,1.4-0.6l27.8,11.8
			c0.6,0.2,0.8,0.9,0.6,1.4l0,0C313.3,520.1,312.7,520.4,312.1,520.1z"/>
		<linearGradient id="SVGID_90_" gradientUnits="userSpaceOnUse" x1="255.0247" y1="573.9383" x2="255.0247" y2="569.9698">
			<stop  offset="0" style="stop-color:#000000"/>
			<stop  offset="0.5153" style="stop-color:#FFFFFF"/>
			<stop  offset="1" style="stop-color:#000000"/>
		</linearGradient>
		<rect x="248.2" y="570" class="st100" width="13.7" height="4"/>
		<linearGradient id="SVGID_91_" gradientUnits="userSpaceOnUse" x1="255.0247" y1="560.632" x2="255.0247" y2="556.6635">
			<stop  offset="0" style="stop-color:#000000"/>
			<stop  offset="0.5153" style="stop-color:#FFFFFF"/>
			<stop  offset="1" style="stop-color:#000000"/>
		</linearGradient>
		<rect x="248.2" y="556.7" class="st101" width="13.7" height="4"/>
		<linearGradient id="SVGID_92_" gradientUnits="userSpaceOnUse" x1="255.0247" y1="544.8266" x2="255.0247" y2="540.8581">
			<stop  offset="0" style="stop-color:#000000"/>
			<stop  offset="0.5153" style="stop-color:#FFFFFF"/>
			<stop  offset="1" style="stop-color:#000000"/>
		</linearGradient>
		<rect x="248.2" y="540.9" class="st102" width="13.7" height="4"/>
		<linearGradient id="SVGID_93_" gradientUnits="userSpaceOnUse" x1="255.0247" y1="533.393" x2="255.0247" y2="529.4245">
			<stop  offset="0" style="stop-color:#000000"/>
			<stop  offset="0.5153" style="stop-color:#FFFFFF"/>
			<stop  offset="1" style="stop-color:#000000"/>
		</linearGradient>
		<rect x="248.2" y="529.4" class="st103" width="13.7" height="4"/>
		<linearGradient id="SVGID_94_" gradientUnits="userSpaceOnUse" x1="268.1913" y1="534.2328" x2="268.1913" y2="528.5847">
			<stop  offset="0" style="stop-color:#000000"/>
			<stop  offset="0.5153" style="stop-color:#FFFFFF"/>
			<stop  offset="1" style="stop-color:#000000"/>
		</linearGradient>
		<rect x="267" y="528.6" class="st104" width="2.4" height="5.6"/>
		<linearGradient id="SVGID_95_" gradientUnits="userSpaceOnUse" x1="241.5455" y1="534.2328" x2="241.5455" y2="528.5847">
			<stop  offset="0" style="stop-color:#000000"/>
			<stop  offset="0.5153" style="stop-color:#FFFFFF"/>
			<stop  offset="1" style="stop-color:#000000"/>
		</linearGradient>
		<rect x="239.9" y="528.6" class="st105" width="3.3" height="5.6"/>
		<linearGradient id="SVGID_96_" gradientUnits="userSpaceOnUse" x1="268.1913" y1="545.6664" x2="268.1913" y2="540.0183">
			<stop  offset="0" style="stop-color:#000000"/>
			<stop  offset="0.5153" style="stop-color:#FFFFFF"/>
			<stop  offset="1" style="stop-color:#000000"/>
		</linearGradient>
		<rect x="267" y="540" class="st106" width="2.4" height="5.6"/>
		<linearGradient id="SVGID_97_" gradientUnits="userSpaceOnUse" x1="241.5455" y1="545.6664" x2="241.5455" y2="540.0183">
			<stop  offset="0" style="stop-color:#000000"/>
			<stop  offset="0.5153" style="stop-color:#FFFFFF"/>
			<stop  offset="1" style="stop-color:#000000"/>
		</linearGradient>
		<rect x="239.9" y="540" class="st107" width="3.3" height="5.6"/>
		<linearGradient id="SVGID_98_" gradientUnits="userSpaceOnUse" x1="268.1913" y1="561.4719" x2="268.1913" y2="555.8237">
			<stop  offset="0" style="stop-color:#000000"/>
			<stop  offset="0.5153" style="stop-color:#FFFFFF"/>
			<stop  offset="1" style="stop-color:#000000"/>
		</linearGradient>
		<rect x="267" y="555.8" class="st108" width="2.4" height="5.6"/>
		<linearGradient id="SVGID_99_" gradientUnits="userSpaceOnUse" x1="241.5455" y1="561.4719" x2="241.5455" y2="555.8237">
			<stop  offset="0" style="stop-color:#000000"/>
			<stop  offset="0.5153" style="stop-color:#FFFFFF"/>
			<stop  offset="1" style="stop-color:#000000"/>
		</linearGradient>
		<rect x="239.9" y="555.8" class="st109" width="3.3" height="5.6"/>
		<linearGradient id="SVGID_100_" gradientUnits="userSpaceOnUse" x1="268.1913" y1="574.7781" x2="268.1913" y2="569.13">
			<stop  offset="0" style="stop-color:#000000"/>
			<stop  offset="0.5153" style="stop-color:#FFFFFF"/>
			<stop  offset="1" style="stop-color:#000000"/>
		</linearGradient>
		<rect x="267" y="569.1" class="st110" width="2.4" height="5.6"/>
		<linearGradient id="SVGID_101_" gradientUnits="userSpaceOnUse" x1="241.5455" y1="574.7781" x2="241.5455" y2="569.13">
			<stop  offset="0" style="stop-color:#000000"/>
			<stop  offset="0.5153" style="stop-color:#FFFFFF"/>
			<stop  offset="1" style="stop-color:#000000"/>
		</linearGradient>
		<rect x="239.9" y="569.1" class="st111" width="3.3" height="5.6"/>
	</g>
	<g>
		<path class="st112" d="M77.7,713.3L45.2,719c-0.3,0.1-0.6,0-0.9-0.2L24,703.2c-0.8-0.6-0.5-1.8,0.5-1.9l32.6-5.3
			c0.3,0,0.6,0,0.8,0.2l20.2,15.1C78.9,711.9,78.6,713.1,77.7,713.3z"/>
		<path class="st113" d="M77.7,712.3L45.2,718c-0.3,0.1-0.6,0-0.9-0.2L24,702.2c-0.8-0.6-0.5-1.8,0.5-1.9l32.6-5.3
			c0.3,0,0.6,0,0.8,0.2l20.2,15.1C78.9,710.9,78.6,712.1,77.7,712.3z"/>
		<polygon class="st114" points="46.5,712.5 31.1,701.1 54.8,598.1 71,608.1 		"/>
		<path class="st115" d="M71,608.1c0,0,11.8,7,19.5,9.7l-23.3,92.1l-20.7,2.7L71,608.1z"/>
	</g>
	<path class="st112" d="M260.6,714.6l32.3,6.7c0.3,0.1,0.6,0,0.9-0.2l20.8-15.1c0.8-0.6,0.5-1.8-0.4-2l-32.5-6.1
		c-0.3-0.1-0.6,0-0.8,0.2l-20.6,14.5C259.4,713.2,259.7,714.4,260.6,714.6z"/>
	<path class="st113" d="M260.6,713.6l32.3,6.7c0.3,0.1,0.6,0,0.9-0.2l20.8-15.1c0.8-0.6,0.5-1.8-0.4-2l-32.5-6.1
		c-0.3-0.1-0.6,0-0.8,0.2l-20.6,14.5C259.4,712.2,259.7,713.4,260.6,713.6z"/>
	<polygon class="st116" points="291.7,714.6 307.4,703.6 286.5,600 270.1,609.6 	"/>
	<path class="st117" d="M270.1,609.6c0,0-12,6.7-19.8,9.1l20.9,92.7l20.6,3.2L270.1,609.6z"/>
</g>
</svg>
