<?xml version="1.0" encoding="utf-8"?>
<!-- Generator: Adobe Illustrator 19.0.0, SVG Export Plug-In . SVG Version: 6.00 Build 0)  -->
<svg version="1.1" id="图层_1" xmlns="http://www.w3.org/2000/svg" xmlns:xlink="http://www.w3.org/1999/xlink" x="0px" y="0px"
	 viewBox="170 -370 289.6 743.1" style="enable-background:new 170 -370 289.6 743.1;" xml:space="preserve">
<style type="text/css">
	.st0{fill:#41464D;}
	.st1{fill:#555559;}
	.st2{fill:#1F426E;}
	.st3{fill:#91908F;}
	.st4{fill:url(#SVGID_1_);}
	.st5{fill:#08657E;}
	.st6{fill:none;stroke:#373533;stroke-width:4;stroke-linecap:round;stroke-miterlimit:10;}
	.st7{fill:none;stroke:#91908F;stroke-width:4;stroke-linecap:round;stroke-miterlimit:10;}
	.st8{fill:none;stroke:#313033;stroke-width:6;stroke-linecap:round;stroke-miterlimit:10;}
	.st9{fill:none;stroke:#A3A2A1;stroke-width:6;stroke-linecap:round;stroke-miterlimit:10;}
	.st10{fill:#313033;}
	.st11{fill:#4C4B4E;}
	.st12{fill:url(#SVGID_2_);}
	.st13{fill:#616161;}
	.st14{fill:#3E3D3F;}
	.st15{fill:#353638;}
	.st16{fill:url(#SVGID_3_);}
	.st17{fill:#C6C7C8;}
	.st18{fill:#D4D4D5;}
	.st19{fill:url(#SVGID_4_);}
	.st20{fill:#868788;}
</style>
<g>
	<rect id="XMLID_35_" x="179.8" y="-356" class="st0" width="86" height="482"/>
	<polygon id="XMLID_34_" class="st1" points="449.8,367 363.8,367 179.8,126 265.8,126 	"/>
	<polygon id="XMLID_6_" class="st2" points="199.3,-356 383.3,-115 383.3,367 199.3,126 	"/>
	<rect id="XMLID_23_" x="363.8" y="-115" class="st1" width="86" height="482"/>
	<polygon id="XMLID_1_" class="st3" points="449.8,-115 363.8,-115 179.8,-356 265.8,-356 	"/>
	<linearGradient id="SVGID_1_" gradientUnits="userSpaceOnUse" x1="254.195" y1="-268.3" x2="365.195" y2="-268.3">
		<stop  offset="0" style="stop-color:#000000"/>
		<stop  offset="0.5" style="stop-color:#FFFFFF"/>
		<stop  offset="1" style="stop-color:#000000"/>
	</linearGradient>
	<path class="st4" d="M361.6-280.2c-8-12.6-28.2-21.5-51.9-21.5s-43.9,8.9-51.9,21.5h-3.6v11.9c0,18.4,24.8,33.4,55.5,33.4
		s55.5-14.9,55.5-33.4v-11.9H361.6z"/>
	<path class="st5" d="M361,351.3"/>
	<line class="st6" x1="190.8" y1="-225.3" x2="233.8" y2="-268.4"/>
	<line class="st6" x1="190.8" y1="-101.1" x2="287.5" y2="-198"/>
	<line class="st6" x1="190.8" y1="30.6" x2="345" y2="-123.6"/>
	<line class="st6" x1="207.5" y1="147.9" x2="354.4" y2="1"/>
	<line class="st6" x1="260.1" y1="216.9" x2="355" y2="121.9"/>
	<line class="st6" x1="317.3" y1="291.7" x2="355.4" y2="253.6"/>
	<line class="st7" x1="189.8" y1="-228.7" x2="232.8" y2="-271.7"/>
	<line class="st7" x1="189.8" y1="-104.5" x2="286.5" y2="-201.3"/>
	<line class="st7" x1="189.8" y1="27.2" x2="344" y2="-127"/>
	<line class="st7" x1="206.5" y1="144.5" x2="353.4" y2="-2.4"/>
	<line class="st7" x1="259.1" y1="213.5" x2="354" y2="118.5"/>
	<line class="st7" x1="316.3" y1="288.3" x2="354.4" y2="250.2"/>
	<line class="st8" x1="351.4" y1="-80.5" x2="342" y2="-127"/>
	<line class="st8" x1="283.9" y1="-200.6" x2="351.4" y2="79.8"/>
	<line class="st8" x1="230" y1="-271" x2="352.4" y2="250.2"/>
	<line class="st8" x1="187.8" y1="-228.7" x2="314.3" y2="288.3"/>
	<line class="st8" x1="187.8" y1="-104.5" x2="257.1" y2="213.5"/>
	<line class="st8" x1="187.8" y1="27.2" x2="204.3" y2="144.5"/>
	<line class="st9" x1="353.4" y1="-80.5" x2="344" y2="-127"/>
	<line class="st9" x1="285.9" y1="-200.6" x2="353.4" y2="79.8"/>
	<line class="st9" x1="232" y1="-271" x2="354.4" y2="250.2"/>
	<line class="st9" x1="189.8" y1="-228.7" x2="316.3" y2="288.3"/>
	<line class="st9" x1="189.8" y1="-104.5" x2="259.1" y2="213.5"/>
	<line class="st9" x1="189.8" y1="27.2" x2="206.3" y2="144.5"/>
	<polygon class="st10" points="179.8,-356 179.8,126 189.8,122.6 189.8,-342.9 	"/>
	<polygon class="st10" points="363.8,-115 353.8,-111.6 179.8,-339.5 179.8,-356 	"/>
	<polygon class="st10" points="363.8,367 363.8,-115 353.8,-111.6 353.8,337.4 	"/>
	<polygon class="st10" points="363.8,367 353.8,337.4 189.8,122.6 179.8,126 	"/>
	<ellipse class="st11" cx="309.9" cy="-280.2" rx="55.5" ry="33.4"/>
	<linearGradient id="SVGID_2_" gradientUnits="userSpaceOnUse" x1="260.395" y1="-289.2" x2="359.395" y2="-289.2">
		<stop  offset="0" style="stop-color:#000000"/>
		<stop  offset="0.5051" style="stop-color:#FFFFFF"/>
		<stop  offset="1" style="stop-color:#000000"/>
	</linearGradient>
	<path class="st12" d="M357.5-298.2c-5.8-14.1-24.9-24.4-47.7-24.4s-41.8,10.4-47.6,24.4h-1.8v9c0,18.4,22.2,33.4,49.5,33.4
		s49.5-14.9,49.5-33.4v-9H357.5z"/>
	<ellipse class="st11" cx="309.9" cy="-298.2" rx="49.5" ry="33.4"/>
	<rect x="284.8" y="-311.1" class="st13" width="49.5" height="40.1"/>
	<polygon class="st14" points="359.3,-338 359.3,-298.2 334.3,-271 334.3,-311.1 	"/>
	<polygon class="st15" points="260.4,-338.4 260.4,-298.6 284.8,-271 284.8,-311.1 	"/>
	<linearGradient id="SVGID_3_" gradientUnits="userSpaceOnUse" x1="270.095" y1="-292.5" x2="270.095" y2="-320.8333">
		<stop  offset="0" style="stop-color:#3E3738"/>
		<stop  offset="0.5" style="stop-color:#AFAFB1"/>
		<stop  offset="1" style="stop-color:#828385"/>
	</linearGradient>
	<path class="st16" d="M271.5-320.8H263v28.3h8.5c3.2,0,5.7-6.3,5.7-14.2C277.1-314.6,274.6-320.8,271.5-320.8z"/>
	<ellipse class="st17" cx="263" cy="-306.7" rx="5.7" ry="14.2"/>
	<ellipse class="st18" cx="251.1" cy="-306.8" rx="3.2" ry="10"/>
	<linearGradient id="SVGID_4_" gradientUnits="userSpaceOnUse" x1="258.645" y1="-296.8341" x2="258.645" y2="-316.7868">
		<stop  offset="0" style="stop-color:#3E3738"/>
		<stop  offset="0.5" style="stop-color:#AFAFB1"/>
		<stop  offset="1" style="stop-color:#828385"/>
	</linearGradient>
	<path class="st19" d="M263-316.8h-11.9c0,0,0.8,3.2,0.8,10c0,6.4-0.8,10-0.8,10H263c1.7,0,3.2-4.5,3.2-10S264.8-316.8,263-316.8z"
		/>
	<polygon class="st20" points="334.9,-365.4 359.3,-338 334.3,-310.8 284.8,-311.1 260.4,-338.4 285.4,-365.6 	"/>
</g>
</svg>
