<?xml version="1.0" encoding="utf-8"?>
<!-- Generator: Adobe Illustrator 19.0.0, SVG Export Plug-In . SVG Version: 6.00 Build 0)  -->
<svg version="1.1" id="图层_1" xmlns="http://www.w3.org/2000/svg" xmlns:xlink="http://www.w3.org/1999/xlink" x="0px" y="0px"
	 viewBox="-87 57.5 45 106.5" style="enable-background:new -87 57.5 45 106.5;" xml:space="preserve">
<style type="text/css">
	.st0{fill:#98CB98;stroke:#000000;stroke-width:0.25;}
	.st1{fill:#B2D8B2;}
	.st2{fill:#7EBF7E;}
	.st3{fill:#64B264;}
	.st4{fill:#004C00;stroke:#000000;stroke-width:0.25;}
	.st5{fill:#64B264;stroke:#000000;stroke-width:0.25;}
</style>
<path class="st0" d="M-48.2,107.9V60.6H-81v47.3H-48.2z"/>
<path class="st1" d="M-49.2,106.9H-80l15.5-22.5L-49.2,106.9z"/>
<path class="st2" d="M-64.7,84.4l15.6,22.5V61.5L-64.7,84.4z"/>
<path class="st3" d="M-49.2,61.5H-80l15.5,22.8L-49.2,61.5z"/>
<path class="st0" d="M-48.2,157.1V110H-81v47.1H-48.2z"/>
<path class="st1" d="M-49.2,155.9H-80l15.5-22.5L-49.2,155.9z"/>
<path class="st2" d="M-64.7,133.4l15.6,22.5v-45.1L-64.7,133.4z"/>
<path class="st3" d="M-49.2,110.9H-80l15.5,22.6L-49.2,110.9z"/>
<path class="st4" d="M-83.1,111.9v-6.2h1.1v6.2H-83.1z"/>
<path class="st4" d="M-47.2,111.9v-6.2h1.3v6.2H-47.2z"/>
<path class="st5" d="M-45,109.9v-2.2h-39v2.2H-45z"/>
<path class="st4" d="M-83.1,160.9v-6.2h1.1v6.2H-83.1z"/>
<path class="st4" d="M-47.2,160.9v-6.2h1.3v6.2H-47.2z"/>
<path class="st5" d="M-45,159.1v-2.2h-39v2.2H-45z"/>
</svg>
