<?xml version="1.0" encoding="utf-8"?>
<!-- Generator: Adobe Illustrator 19.0.0, SVG Export Plug-In . SVG Version: 6.00 Build 0)  -->
<svg version="1.1" id="图层_1" xmlns="http://www.w3.org/2000/svg" xmlns:xlink="http://www.w3.org/1999/xlink" x="0px" y="0px"
	 viewBox="170 -370 560 960" style="enable-background:new 170 -370 560 960;" xml:space="preserve">
<style type="text/css">
	.st0{fill:#3A3A38;}
	.st1{fill:#08657E;stroke:#5A5A5D;stroke-miterlimit:10;}
	.st2{fill:none;stroke:#5A5A5D;stroke-miterlimit:10;}
	.st3{fill:none;stroke:#5A5A5D;stroke-width:1.011;stroke-miterlimit:10;}
	.st4{fill:none;stroke:#5A5A5D;stroke-width:1.0109;stroke-miterlimit:10;}
	.st5{fill:none;stroke:#5A5A5D;stroke-width:1.0084;stroke-miterlimit:10;}
	.st6{fill:#626368;}
	.st7{fill:#929294;}
	.st8{fill:url(#SVGID_1_);}
	.st9{fill:url(#SVGID_2_);}
	.st10{fill:url(#SVGID_3_);}
	.st11{fill:#F0EEF1;}
	.st12{fill:url(#SVGID_4_);}
	.st13{fill:url(#SVGID_5_);}
	.st14{fill:url(#SVGID_6_);}
	.st15{fill:url(#SVGID_7_);}
	.st16{fill:url(#SVGID_8_);}
	.st17{fill:#A3A5AB;}
	.st18{fill:url(#SVGID_9_);}
	.st19{fill:url(#SVGID_10_);}
	.st20{fill:url(#SVGID_11_);}
	.st21{enable-background:new    ;}
	.st22{fill:#B6B7B7;}
	.st23{fill:#8D9096;}
	.st24{fill:url(#SVGID_12_);}
	.st25{fill:url(#SVGID_13_);}
	.st26{fill:#BFC0C3;}
	.st27{fill:#535351;}
	.st28{fill:#D9DCDE;}
</style>
<g>
	<polygon id="XMLID_24_" class="st0" points="261.2,-303.8 445.2,-62.8 445.2,419.2 261.2,178.2 	"/>
	<g>
		<path class="st1" d="M442.6,403.5"/>
		<line class="st2" x1="261.2" y1="-263.2" x2="440.2" y2="-32.2"/>
		<line class="st2" x1="261.2" y1="-237.8" x2="440.2" y2="-6.8"/>
		<line class="st2" x1="261.2" y1="-212.4" x2="440.2" y2="18.6"/>
		<line class="st2" x1="261.2" y1="-186.9" x2="440.2" y2="44.1"/>
		<line class="st2" x1="261.2" y1="-161.5" x2="440.2" y2="69.5"/>
		<line class="st2" x1="261.2" y1="-136.1" x2="440.2" y2="94.9"/>
		<line class="st2" x1="261.2" y1="-110.7" x2="440.2" y2="120.3"/>
		<line class="st2" x1="261.2" y1="-85.3" x2="440.2" y2="145.7"/>
		<line class="st2" x1="261.2" y1="-59.8" x2="440.2" y2="171.2"/>
		<line class="st2" x1="261.2" y1="-34.4" x2="440.2" y2="196.6"/>
		<line class="st2" x1="261.2" y1="-9" x2="440.2" y2="222"/>
		<line class="st2" x1="261.2" y1="16.4" x2="440.2" y2="247.4"/>
		<line class="st2" x1="261.2" y1="41.8" x2="440.2" y2="272.8"/>
		<line class="st2" x1="261.2" y1="67.3" x2="440.2" y2="298.3"/>
		<line class="st2" x1="261.2" y1="92.7" x2="440.2" y2="323.7"/>
		<line class="st2" x1="261.2" y1="118.1" x2="440.2" y2="349.1"/>
		<line class="st2" x1="261.2" y1="143.5" x2="440.2" y2="374.5"/>
		<line class="st2" x1="279.6" y1="-263.2" x2="279.6" y2="188.8"/>
		<line class="st2" x1="288.6" y1="-254.2" x2="288.6" y2="197.8"/>
		<line class="st2" x1="297.6" y1="-240.4" x2="297.6" y2="211.6"/>
		<line class="st2" x1="306.6" y1="-228.9" x2="306.6" y2="223.1"/>
		<line class="st2" x1="315.7" y1="-216.2" x2="315.7" y2="235.8"/>
		<line class="st2" x1="324.7" y1="-205.6" x2="324.7" y2="246.4"/>
		<line class="st2" x1="333.7" y1="-193" x2="333.7" y2="259"/>
		<line class="st2" x1="342.7" y1="-182.1" x2="342.7" y2="269.9"/>
		<line class="st2" x1="351.7" y1="-169.4" x2="351.7" y2="282.6"/>
		<line class="st2" x1="360.7" y1="-158.4" x2="360.7" y2="293.6"/>
		<line class="st2" x1="369.7" y1="-145.1" x2="369.7" y2="306.9"/>
		<line class="st2" x1="378.7" y1="-134.6" x2="378.7" y2="317.4"/>
		<line class="st3" x1="387.7" y1="-129.5" x2="387.7" y2="332.5"/>
		<line class="st2" x1="396.8" y1="-112.1" x2="396.8" y2="339.9"/>
		<line class="st4" x1="405.8" y1="-104" x2="405.8" y2="357.9"/>
		<line class="st2" x1="414.8" y1="-87.5" x2="414.8" y2="364.5"/>
		<line class="st5" x1="423.8" y1="-81.2" x2="423.8" y2="378.5"/>
	</g>
	<rect id="XMLID_5_" x="445.2" y="-62.8" class="st6" width="86" height="482"/>
	<polygon id="XMLID_3_" class="st7" points="531.2,-62.8 445.2,-62.8 261.2,-303.8 347.2,-303.8 	"/>
	<polygon points="261.2,-303.8 261.2,178.2 271.2,174.8 271.2,-290.7 	"/>
	<polygon points="445.2,-62.8 435.2,-59.4 261.2,-287.3 261.2,-303.8 	"/>
	<g>
		
			<linearGradient id="SVGID_1_" gradientUnits="userSpaceOnUse" x1="494.0527" y1="-133.8" x2="531.0527" y2="-133.8" gradientTransform="matrix(1 0 0 1 0 340)">
			<stop  offset="0" style="stop-color:#3E3E3E"/>
			<stop  offset="0.2366" style="stop-color:#484848"/>
			<stop  offset="0.5" style="stop-color:#4E4E4E"/>
			<stop  offset="0.6755" style="stop-color:#494949"/>
			<stop  offset="0.8717" style="stop-color:#3C3C3C"/>
			<stop  offset="1" style="stop-color:#2F2F2F"/>
		</linearGradient>
		<path class="st8" d="M494.1-16.6v426.9c0,0.1,0,0.1,0,0.2c0,10.2,8.3,18.5,18.5,18.5c10.2,0,18.5-8.3,18.5-18.5V-16.6H494.1z"/>
		
			<linearGradient id="SVGID_2_" gradientUnits="userSpaceOnUse" x1="494.062" y1="-360.4" x2="531.062" y2="-360.4" gradientTransform="matrix(1 0 0 1 0 340)">
			<stop  offset="0" style="stop-color:#000000"/>
			<stop  offset="0.5" style="stop-color:#585655"/>
			<stop  offset="1" style="stop-color:#000000"/>
		</linearGradient>
		<path class="st9" d="M494.1-28.2v11.6c0,2.2,8.3,4,18.5,4c10.2,0,18.5-1.8,18.5-4v-11.6H494.1z"/>
		
			<linearGradient id="SVGID_3_" gradientUnits="userSpaceOnUse" x1="494.062" y1="-371.3" x2="531.062" y2="-371.3" gradientTransform="matrix(1 0 0 1 0 340)">
			<stop  offset="0" style="stop-color:#FFFFFF"/>
			<stop  offset="1" style="stop-color:#000000"/>
		</linearGradient>
		<path class="st10" d="M494.1-38.4v10.2c0,2.2,8.3,4,18.5,4c10.2,0,18.5-1.8,18.5-4v-10.2H494.1z"/>
		<ellipse class="st11" cx="512.6" cy="-38.4" rx="18.5" ry="4"/>
	</g>
	
		<linearGradient id="SVGID_4_" gradientUnits="userSpaceOnUse" x1="457.9" y1="-133.8" x2="494.9" y2="-133.8" gradientTransform="matrix(1 0 0 1 0 340)">
		<stop  offset="0" style="stop-color:#3E3E3E"/>
		<stop  offset="0.2366" style="stop-color:#484848"/>
		<stop  offset="0.5" style="stop-color:#4E4E4E"/>
		<stop  offset="0.6755" style="stop-color:#494949"/>
		<stop  offset="0.8717" style="stop-color:#3C3C3C"/>
		<stop  offset="1" style="stop-color:#2F2F2F"/>
	</linearGradient>
	<path class="st12" d="M457.9-16.6v426.9c0,0.1,0,0.1,0,0.2c0,10.2,8.3,18.5,18.5,18.5s18.5-8.3,18.5-18.5V-16.6H457.9z"/>
	
		<linearGradient id="SVGID_5_" gradientUnits="userSpaceOnUse" x1="457.9" y1="-360.4" x2="494.9" y2="-360.4" gradientTransform="matrix(1 0 0 1 0 340)">
		<stop  offset="0" style="stop-color:#000000"/>
		<stop  offset="0.5" style="stop-color:#585655"/>
		<stop  offset="1" style="stop-color:#000000"/>
	</linearGradient>
	<path class="st13" d="M457.9-28.2v11.6c0,2.2,8.3,4,18.5,4s18.5-1.8,18.5-4v-11.6H457.9z"/>
	
		<linearGradient id="SVGID_6_" gradientUnits="userSpaceOnUse" x1="457.9" y1="-371.3" x2="494.9" y2="-371.3" gradientTransform="matrix(1 0 0 1 0 340)">
		<stop  offset="0" style="stop-color:#FFFFFF"/>
		<stop  offset="1" style="stop-color:#000000"/>
	</linearGradient>
	<path class="st14" d="M457.9-38.4v10.2c0,2.2,8.3,4,18.5,4s18.5-1.8,18.5-4v-10.2H457.9z"/>
	<g>
		
			<linearGradient id="SVGID_7_" gradientUnits="userSpaceOnUse" x1="475.9768" y1="100.2398" x2="505.2437" y2="74.7321" gradientTransform="matrix(1 0 0 1 0 340)">
			<stop  offset="0" style="stop-color:#565755"/>
			<stop  offset="2.655146e-002" style="stop-color:#676866"/>
			<stop  offset="0.1085" style="stop-color:#959594"/>
			<stop  offset="0.1906" style="stop-color:#BBBBBB"/>
			<stop  offset="0.2715" style="stop-color:#D9D9D9"/>
			<stop  offset="0.3508" style="stop-color:#EEEEEE"/>
			<stop  offset="0.4279" style="stop-color:#FBFBFB"/>
			<stop  offset="0.5" style="stop-color:#FFFFFF"/>
			<stop  offset="0.6271" style="stop-color:#FCFCFC"/>
			<stop  offset="0.7377" style="stop-color:#F1F1F1"/>
			<stop  offset="0.8423" style="stop-color:#DFDFDF"/>
			<stop  offset="0.9424" style="stop-color:#C6C6C7"/>
			<stop  offset="1" style="stop-color:#B4B4B5"/>
		</linearGradient>
		<path class="st15" d="M504.1,464.6c-5.4,0-10.8-2.4-14.4-6.9L462,421.1c-6.4-8-5.1-19.6,2.8-26c8-6.4,19.6-5.1,26,2.8l27.7,36.6
			c6.4,8,5.1,19.6-2.8,26C512.2,463.3,508.1,464.6,504.1,464.6z"/>
	</g>
	<polygon points="445.2,419.2 445.2,-62.8 435.2,-59.4 435.2,389.6 	"/>
	<polygon points="445.2,419.2 435.2,389.6 271.2,174.8 261.2,178.2 	"/>
	
		<linearGradient id="SVGID_8_" gradientUnits="userSpaceOnUse" x1="477.9695" y1="123.3494" x2="538.3926" y2="90.8405" gradientTransform="matrix(1 0 0 1 0 340)">
		<stop  offset="0" style="stop-color:#000000"/>
		<stop  offset="2.941081e-002" style="stop-color:#121213"/>
		<stop  offset="0.1109" style="stop-color:#3E3F41"/>
		<stop  offset="0.1925" style="stop-color:#636468"/>
		<stop  offset="0.2729" style="stop-color:#7F8185"/>
		<stop  offset="0.3517" style="stop-color:#94959B"/>
		<stop  offset="0.4283" style="stop-color:#A0A2A8"/>
		<stop  offset="0.5" style="stop-color:#A4A6AC"/>
		<stop  offset="0.5879" style="stop-color:#A1A3A9"/>
		<stop  offset="0.6644" style="stop-color:#97989E"/>
		<stop  offset="0.7367" style="stop-color:#85878C"/>
		<stop  offset="0.8064" style="stop-color:#6D6F73"/>
		<stop  offset="0.8743" style="stop-color:#4E4F52"/>
		<stop  offset="0.9399" style="stop-color:#292A2B"/>
		<stop  offset="1" style="stop-color:#000000"/>
	</linearGradient>
	<circle class="st16" cx="507.8" cy="447.3" r="34.3"/>
	<circle class="st17" cx="512.6" cy="454.5" r="34"/>
	<g>
		
			<linearGradient id="SVGID_9_" gradientUnits="userSpaceOnUse" x1="509.3073" y1="158.032" x2="553.3074" y2="125.032" gradientTransform="matrix(1 0 0 1 0 340)">
			<stop  offset="0" style="stop-color:#000000"/>
			<stop  offset="2.941081e-002" style="stop-color:#121213"/>
			<stop  offset="0.1109" style="stop-color:#3E3F41"/>
			<stop  offset="0.1925" style="stop-color:#636468"/>
			<stop  offset="0.2729" style="stop-color:#7F8185"/>
			<stop  offset="0.3517" style="stop-color:#94959B"/>
			<stop  offset="0.4283" style="stop-color:#A0A2A8"/>
			<stop  offset="0.5" style="stop-color:#A4A6AC"/>
			<stop  offset="0.5879" style="stop-color:#A1A3A9"/>
			<stop  offset="0.6644" style="stop-color:#97989E"/>
			<stop  offset="0.7367" style="stop-color:#85878C"/>
			<stop  offset="0.8064" style="stop-color:#6D6F73"/>
			<stop  offset="0.8743" style="stop-color:#4E4F52"/>
			<stop  offset="0.9399" style="stop-color:#292A2B"/>
			<stop  offset="1" style="stop-color:#000000"/>
		</linearGradient>
		<path class="st18" d="M547.2,532.4c-8.8,0-17.5-4.1-22.9-11.9l-32-45.5c-8.9-12.7-5.8-30.1,6.8-39c12.7-8.9,30.1-5.8,39,6.8
			l31.9,45.5c8.9,12.7,5.8,30.1-6.8,39C558.4,530.7,552.8,532.4,547.2,532.4z"/>
	</g>
	
		<linearGradient id="SVGID_10_" gradientUnits="userSpaceOnUse" x1="520.3604" y1="187.1544" x2="580.7835" y2="154.6454" gradientTransform="matrix(1 0 0 1 0 340)">
		<stop  offset="0" style="stop-color:#000000"/>
		<stop  offset="2.941081e-002" style="stop-color:#121213"/>
		<stop  offset="0.1109" style="stop-color:#3E3F41"/>
		<stop  offset="0.1925" style="stop-color:#636468"/>
		<stop  offset="0.2729" style="stop-color:#7F8185"/>
		<stop  offset="0.3517" style="stop-color:#94959B"/>
		<stop  offset="0.4283" style="stop-color:#A0A2A8"/>
		<stop  offset="0.5" style="stop-color:#A4A6AC"/>
		<stop  offset="0.5879" style="stop-color:#A1A3A9"/>
		<stop  offset="0.6644" style="stop-color:#97989E"/>
		<stop  offset="0.7367" style="stop-color:#85878C"/>
		<stop  offset="0.8064" style="stop-color:#6D6F73"/>
		<stop  offset="0.8743" style="stop-color:#4E4F52"/>
		<stop  offset="0.9399" style="stop-color:#292A2B"/>
		<stop  offset="1" style="stop-color:#000000"/>
	</linearGradient>
	<circle class="st19" cx="550.2" cy="511.1" r="34.3"/>
	<circle class="st17" cx="554.9" cy="518.2" r="34"/>
	<ellipse class="st11" cx="476.4" cy="-38.4" rx="18.5" ry="4"/>
	<g>
		
			<linearGradient id="SVGID_11_" gradientUnits="userSpaceOnUse" x1="565.3345" y1="219.9864" x2="594.001" y2="197.9863" gradientTransform="matrix(1 0 0 1 0 340)">
			<stop  offset="0" style="stop-color:#565755"/>
			<stop  offset="2.057266e-002" style="stop-color:#656664"/>
			<stop  offset="6.947753e-002" style="stop-color:#838483"/>
			<stop  offset="0.1234" style="stop-color:#9C9C9C"/>
			<stop  offset="0.1834" style="stop-color:#AFAFAF"/>
			<stop  offset="0.2526" style="stop-color:#BDBDBD"/>
			<stop  offset="0.3395" style="stop-color:#C5C5C5"/>
			<stop  offset="0.5" style="stop-color:#C7C7C7"/>
			<stop  offset="0.7712" style="stop-color:#C5C5C5"/>
			<stop  offset="0.9178" style="stop-color:#BDBDBD"/>
			<stop  offset="1" style="stop-color:#B4B4B5"/>
		</linearGradient>
		<path class="st20" d="M602.6,598.2c-5.6,0-11.2-2.6-14.8-7.4l-45.9-61.4c-6.1-8.2-4.4-19.8,3.7-25.9c8.2-6.1,19.8-4.4,25.9,3.7
			l45.9,61.4c6.1,8.2,4.4,19.8-3.7,25.9C610.4,597,606.5,598.2,602.6,598.2z"/>
	</g>
	<g class="st21">
		<path class="st22" d="M602.6,597.7c-9.9,0-18-7.7-18-17.1c0-9.4,8.1-17.1,18-17.1s18,7.7,18,17.1S612.5,597.7,602.6,597.7z"/>
		<path class="st23" d="M602.6,564c9.7,0,17.5,7.4,17.5,16.6s-7.9,16.6-17.5,16.6s-17.5-7.4-17.5-16.6S592.9,564,602.6,564
			 M602.6,563c-10.2,0-18.5,7.9-18.5,17.6s8.3,17.6,18.5,17.6s18.5-7.9,18.5-17.6C621.1,570.8,612.8,563,602.6,563L602.6,563z"/>
	</g>
	<g>
		
			<linearGradient id="SVGID_12_" gradientUnits="userSpaceOnUse" x1="552.632" y1="-245.1396" x2="582.3806" y2="-267.9702" gradientTransform="matrix(1 0 0 1 0 340)">
			<stop  offset="0" style="stop-color:#565755"/>
			<stop  offset="2.057266e-002" style="stop-color:#656664"/>
			<stop  offset="6.947753e-002" style="stop-color:#838483"/>
			<stop  offset="0.1234" style="stop-color:#9C9C9C"/>
			<stop  offset="0.1834" style="stop-color:#AFAFAF"/>
			<stop  offset="0.2526" style="stop-color:#BDBDBD"/>
			<stop  offset="0.3395" style="stop-color:#C5C5C5"/>
			<stop  offset="0.5" style="stop-color:#C7C7C7"/>
			<stop  offset="0.7712" style="stop-color:#C5C5C5"/>
			<stop  offset="0.9178" style="stop-color:#BDBDBD"/>
			<stop  offset="1" style="stop-color:#B4B4B5"/>
		</linearGradient>
		<path class="st24" d="M619.9,172.1c-5.6,0-11.2-2.6-14.8-7.4L500.4,24.4c-6.1-8.2-4.4-19.8,3.7-25.9c8.2-6.1,19.8-4.4,25.9,3.7
			l104.6,140.3c6.1,8.2,4.4,19.8-3.7,25.9C627.6,170.9,623.7,172.1,619.9,172.1z"/>
	</g>
	<g class="st21">
		<path class="st22" d="M620.3,171.6c-9.9,0-18-7.7-18-17.1c0-9.4,8.1-17.1,18-17.1s18,7.7,18,17.1
			C638.3,163.9,630.2,171.6,620.3,171.6z"/>
		<path class="st23" d="M620.3,137.9c9.7,0,17.5,7.4,17.5,16.6c0,9.2-7.9,16.6-17.5,16.6s-17.5-7.4-17.5-16.6
			C602.8,145.3,610.6,137.9,620.3,137.9 M620.3,136.9c-10.2,0-18.5,7.9-18.5,17.6c0,9.7,8.3,17.6,18.5,17.6s18.5-7.9,18.5-17.6
			C638.8,144.8,630.5,136.9,620.3,136.9L620.3,136.9z"/>
	</g>
	<g>
		
			<linearGradient id="SVGID_13_" gradientUnits="userSpaceOnUse" x1="516.2402" y1="100.65" x2="546.6444" y2="100.65" gradientTransform="matrix(1 0 0 1 0 340)">
			<stop  offset="0" style="stop-color:#000000"/>
			<stop  offset="2.941081e-002" style="stop-color:#121213"/>
			<stop  offset="0.1109" style="stop-color:#3E3F41"/>
			<stop  offset="0.1925" style="stop-color:#636468"/>
			<stop  offset="0.2729" style="stop-color:#7F8185"/>
			<stop  offset="0.3517" style="stop-color:#94959B"/>
			<stop  offset="0.4283" style="stop-color:#A0A2A8"/>
			<stop  offset="0.5" style="stop-color:#A4A6AC"/>
			<stop  offset="0.5879" style="stop-color:#A1A3A9"/>
			<stop  offset="0.6644" style="stop-color:#97989E"/>
			<stop  offset="0.7367" style="stop-color:#85878C"/>
			<stop  offset="0.8064" style="stop-color:#6D6F73"/>
			<stop  offset="0.8743" style="stop-color:#4E4F52"/>
			<stop  offset="0.9399" style="stop-color:#292A2B"/>
			<stop  offset="1" style="stop-color:#000000"/>
		</linearGradient>
		<path class="st25" d="M516.2,417.2v40.3c0,3.6,6.7,6.6,15.1,6.6c8.3,0,15.1-2.9,15.1-6.6h0.3v-40.3H516.2z"/>
		<rect x="528.8" y="399" class="st26" width="46.7" height="40.7"/>
		<polygon class="st27" points="528.8,439.7 500.9,402.7 500.9,362 528.8,399 		"/>
		<polygon class="st28" points="575.4,399.3 528.8,399.3 500.9,362 547.6,362 		"/>
		<polygon points="503.1,394 525.8,424.2 525.8,405.5 503.1,375.4 		"/>
	</g>
</g>
</svg>
