<?xml version="1.0" encoding="utf-8"?>
<!-- Generator: Adobe Illustrator 19.0.0, SVG Export Plug-In . SVG Version: 6.00 Build 0)  -->
<svg version="1.1" id="图层_1" xmlns="http://www.w3.org/2000/svg" xmlns:xlink="http://www.w3.org/1999/xlink" x="0px" y="0px"
	 viewBox="0 199 595.3 443.9" style="enable-background:new 0 199 595.3 443.9;" xml:space="preserve">
<style type="text/css">
	.st0{fill:none;stroke:#000000;stroke-width:6;stroke-miterlimit:10;}
	.st1{fill:#615A68;}
	.st2{fill:#2B282D;}
	.st3{fill:#343036;}
	.st4{fill:url(#SVGID_1_);}
	.st5{fill:url(#SVGID_2_);}
	.st6{fill:url(#SVGID_3_);}
	.st7{fill:url(#SVGID_4_);}
	.st8{fill:#585260;}
	.st9{fill:url(#SVGID_5_);}
	.st10{fill:#2A2832;}
	.st11{fill:#E6E0EA;}
	.st12{fill:#3F3F50;}
	.st13{fill:#60565D;}
	.st14{fill:#807682;}
	.st15{fill:url(#SVGID_6_);}
	.st16{fill:#433E45;}
	.st17{fill:url(#SVGID_7_);}
	.st18{fill:url(#SVGID_8_);}
	.st19{fill:#BFBAC4;}
	.st20{fill:#ECE7F1;}
	.st21{fill:#D0CAD6;}
	.st22{fill:none;stroke:#000000;stroke-width:10;stroke-miterlimit:10;}
	.st23{fill:#716D78;stroke:#000000;stroke-miterlimit:10;}
	.st24{fill:#6B636F;stroke:#000000;stroke-miterlimit:10;}
	.st25{font-family:'SimHei';}
	.st26{font-size:8px;}
	.st27{fill:#605D69;stroke:#000000;stroke-miterlimit:10;}
	.st28{fill:#FFFFFF;}
	.st29{fill:#AAA6B0;stroke:#000000;stroke-miterlimit:10;}
	.st30{fill:none;stroke:#000000;stroke-miterlimit:10;}
	.st31{fill:url(#SVGID_9_);}
	.st32{fill:url(#SVGID_10_);}
	.st33{fill:#DDD8E4;}
	.st34{fill:#E6DFEB;}
	.st35{fill:#D5CFDB;}
	.st36{fill:#DDD9E2;}
	.st37{fill:url(#SVGID_11_);}
	.st38{fill:url(#SVGID_12_);}
	.st39{fill:url(#SVGID_13_);}
	.st40{fill:url(#SVGID_14_);}
	.st41{fill:url(#SVGID_15_);}
	.st42{fill:url(#SVGID_16_);}
</style>
<path class="st0" d="M476.9,228.4c0,0-1.5-17.3-18.5-13.6S400,246,389,298.1s6.3,77.4,0,101.8c-6.3,24.3-12.6,57-33.7,88.3"/>
<rect x="414.6" y="607.5" class="st1" width="137" height="11.7"/>
<polygon class="st2" points="403.4,581.1 414.6,619.2 414.6,607.5 403.4,569.4 "/>
<polygon class="st3" points="534.6,569.4 403.4,569.4 414.6,607.5 551.6,607.5 "/>
<linearGradient id="SVGID_1_" gradientUnits="userSpaceOnUse" x1="408.7341" y1="449.5193" x2="425.4841" y2="449.5193" gradientTransform="matrix(1 0 0 1 0 -1.989746e-002)">
	<stop  offset="0" style="stop-color:#242124"/>
	<stop  offset="0.5204" style="stop-color:#423F48"/>
	<stop  offset="1" style="stop-color:#000000"/>
</linearGradient>
<path class="st4" d="M408.7,319.5v257.8c0,1.2,3.7,2.1,8.4,2.1s8.4-1,8.4-2.1V319.5H408.7z"/>
<linearGradient id="SVGID_2_" gradientUnits="userSpaceOnUse" x1="430.1091" y1="596.0193" x2="524.6091" y2="596.0193" gradientTransform="matrix(1 0 0 1 0 -1.989746e-002)">
	<stop  offset="0" style="stop-color:#3A3232"/>
	<stop  offset="0.5204" style="stop-color:#FDFBFD"/>
	<stop  offset="1" style="stop-color:#1B191C"/>
</linearGradient>
<path class="st5" d="M430.1,589.1v7.8c0,3.2,21.2,5.9,47.3,5.9s47.3-2.6,47.3-5.9v-7.8H430.1z"/>
<linearGradient id="SVGID_3_" gradientUnits="userSpaceOnUse" x1="430.1091" y1="465.7194" x2="524.6091" y2="465.7194" gradientTransform="matrix(1 0 0 1 0 -1.989746e-002)">
	<stop  offset="0" style="stop-color:#3A3232"/>
	<stop  offset="0.5204" style="stop-color:#9EA0A3"/>
	<stop  offset="1" style="stop-color:#1B191C"/>
</linearGradient>
<path class="st6" d="M430.1,336.3v252.8c0,3.2,21.2,5.9,47.3,5.9s47.3-2.6,47.3-5.9V336.3H430.1z"/>
<linearGradient id="SVGID_4_" gradientUnits="userSpaceOnUse" x1="430.1091" y1="335.0193" x2="524.6091" y2="335.0193" gradientTransform="matrix(1 0 0 1 0 -1.989746e-002)">
	<stop  offset="0" style="stop-color:#3A3232"/>
	<stop  offset="0.5204" style="stop-color:#FDFBFD"/>
	<stop  offset="1" style="stop-color:#1B191C"/>
</linearGradient>
<path class="st7" d="M430.1,327.7v8.6c0,3.2,21.2,5.9,47.3,5.9s47.3-2.6,47.3-5.9v-8.6H430.1z"/>
<rect x="414.6" y="312" class="st8" width="137" height="19.2"/>
<linearGradient id="SVGID_5_" gradientUnits="userSpaceOnUse" x1="362.3591" y1="318.2194" x2="367.0258" y2="318.2194" gradientTransform="matrix(1 0 0 1 0 -1.989746e-002)">
	<stop  offset="0" style="stop-color:#FFFFFF"/>
	<stop  offset="1" style="stop-color:#000000"/>
</linearGradient>
<path class="st9" d="M362.4,300.9v33.8c0,0.4,1,0.7,2.3,0.7s2.3-0.3,2.3-0.7v-33.8C367,300.9,362.4,300.9,362.4,300.9z"/>
<rect x="356.9" y="300.9" class="st10" width="5.5" height="34.5"/>
<ellipse class="st11" cx="364.7" cy="300.9" rx="2.3" ry="0.7"/>
<rect x="362.7" y="307.7" class="st12" width="4" height="4.3"/>
<rect x="362.7" y="319.5" class="st12" width="4" height="4.3"/>
<polygon class="st13" points="403.4,317.3 414.6,331.2 414.6,312 403.4,298.1 "/>
<polygon class="st14" points="540.4,298 403.4,298 414.6,312 551.6,312 "/>
<g>
	
		<linearGradient id="SVGID_6_" gradientUnits="userSpaceOnUse" x1="408.7341" y1="296.7194" x2="425.4841" y2="296.7194" gradientTransform="matrix(1 0 0 1 0 -1.989746e-002)">
		<stop  offset="0" style="stop-color:#242124"/>
		<stop  offset="0.5204" style="stop-color:#423F48"/>
		<stop  offset="1" style="stop-color:#000000"/>
	</linearGradient>
	<path class="st15" d="M408.7,292.1v6.9c0,1.2,3.7,2.2,8.4,2.2s8.4-1,8.4-2.2v-6.9H408.7z"/>
	<ellipse class="st16" cx="417.1" cy="292.1" rx="8.4" ry="2.2"/>
	
		<radialGradient id="SVGID_7_" cx="417.1091" cy="288.0193" r="6.3305" gradientTransform="matrix(1 0 0 1 0 -1.989746e-002)" gradientUnits="userSpaceOnUse">
		<stop  offset="0" style="stop-color:#423F48"/>
		<stop  offset="1" style="stop-color:#000000"/>
	</radialGradient>
	<path class="st17" d="M417.1,282.2c-3.8,0-6.9,3.1-6.9,6.9c0,0.4,0,0.8,0.1,1.2c0.2,1.1,0.6,2.1,1.2,2.9c1.5,0.3,3.4,0.5,5.5,0.5
		s4.1-0.2,5.5-0.5c0.6-0.8,1.1-1.8,1.2-2.9c0.1-0.4,0.1-0.8,0.1-1.2C424,285.3,420.9,282.2,417.1,282.2z"/>
</g>
<linearGradient id="SVGID_8_" gradientUnits="userSpaceOnUse" x1="360.0258" y1="579.7693" x2="364.6924" y2="579.7693" gradientTransform="matrix(1 0 0 1 0 -1.989746e-002)">
	<stop  offset="0" style="stop-color:#FFFFFF"/>
	<stop  offset="1" style="stop-color:#000000"/>
</linearGradient>
<path class="st18" d="M360,562.4v33.9c0,0.4,1,0.7,2.3,0.7s2.3-0.3,2.3-0.7v-33.8L360,562.4L360,562.4z"/>
<rect x="354.5" y="562.4" class="st10" width="5.5" height="34.5"/>
<ellipse class="st11" cx="362.4" cy="562.4" rx="2.3" ry="0.7"/>
<rect x="360.3" y="569.3" class="st12" width="4" height="4.3"/>
<rect x="360.3" y="581.1" class="st12" width="4" height="4.3"/>
<polygon class="st11" points="356.3,621.2 21.6,621.2 16.9,256.5 360.9,256.5 "/>
<rect x="22.4" y="248.7" class="st19" width="333" height="7.8"/>
<rect x="16.9" y="234.2" class="st20" width="344" height="14.5"/>
<polygon class="st21" points="334.5,230.2 43.4,230.2 16.9,234.2 360.9,234.2 "/>
<path class="st22" d="M240.6,520.7H135.1c-15.4,0-28-12.6-28-28v-172c0-15.4,12.6-28,28-28h105.5c15.4,0,28,12.6,28,28v172
	C268.6,508.1,256,520.7,240.6,520.7z"/>
<rect x="217.6" y="342.2" class="st23" width="35.8" height="20.5"/>
<rect x="220.8" y="345.1" class="st24" width="29.4" height="14.6"/>
<rect x="130.1" y="342.2" class="st23" width="35.8" height="20.5"/>
<rect x="133.3" y="345.1" class="st24" width="29.4" height="14.6"/>
<text transform="matrix(1 0 0 1 133.2966 389.2295)" class="st25 st26">1#启/停</text>
<text transform="matrix(1 0 0 1 220.7966 389.2295)" class="st25 st26">2#启/停</text>
<g>
	<circle class="st27" cx="148" cy="414.1" r="8.6"/>
	<circle cx="148" cy="414.1" r="5.6"/>
	<path d="M154.9,410.6L142.5,423c-0.7,0.7-1.9,0.7-2.7,0l0,0c-0.7-0.7-0.7-1.9,0-2.7l12.4-12.4c0.7-0.7,1.9-0.7,2.7,0l0,0
		C155.7,408.7,155.7,409.9,154.9,410.6z"/>
	<path class="st28" d="M154.9,410l-6.4,6.4c-0.6,0.6-1.5,0.6-2,0l0,0c-0.6-0.6-0.6-1.5,0-2l6.4-6.4c0.6-0.6,1.5-0.6,2,0l0,0
		C155.5,408.5,155.5,409.5,154.9,410z"/>
</g>
<g>
	<circle class="st27" cx="235.5" cy="414.1" r="8.6"/>
	<circle cx="235.5" cy="414.1" r="5.6"/>
	<path d="M242.4,410.6L230,423c-0.7,0.7-1.9,0.7-2.7,0l0,0c-0.7-0.7-0.7-1.9,0-2.7l12.4-12.4c0.7-0.7,1.9-0.7,2.7,0l0,0
		C243.2,408.7,243.2,409.9,242.4,410.6z"/>
	<path class="st28" d="M242.4,410l-6.4,6.4c-0.6,0.6-1.5,0.6-2,0l0,0c-0.6-0.6-0.6-1.5,0-2l6.4-6.4c0.6-0.6,1.5-0.6,2,0l0,0
		C243,408.5,243,409.5,242.4,410z"/>
</g>
<circle class="st29" cx="61.1" cy="448.7" r="9.3"/>
<circle class="st30" cx="60.4" cy="449.2" r="5.5"/>
<ellipse cx="60.5" cy="449.2" rx="1.9" ry="1.8"/>
<radialGradient id="SVGID_9_" cx="476.1091" cy="270.2693" r="44.65" gradientTransform="matrix(1 0 0 1 0 -1.989746e-002)" gradientUnits="userSpaceOnUse">
	<stop  offset="0" style="stop-color:#423F48"/>
	<stop  offset="1" style="stop-color:#000000"/>
</radialGradient>
<ellipse class="st31" cx="476.1" cy="270.2" rx="59" ry="22.5"/>
<linearGradient id="SVGID_10_" gradientUnits="userSpaceOnUse" x1="417.1091" y1="290.1194" x2="535.1091" y2="290.1194" gradientTransform="matrix(1 0 0 1 0 -1.989746e-002)">
	<stop  offset="0" style="stop-color:#242124"/>
	<stop  offset="0.5204" style="stop-color:#423F48"/>
	<stop  offset="1" style="stop-color:#000000"/>
</linearGradient>
<path class="st32" d="M417.1,270.2v34.2c0,3,26.4,5.5,59,5.5s59-2.4,59-5.5v-34.2c0,0-17.5,2.3-59,2.3
	C434.1,272.4,417.1,270.2,417.1,270.2z"/>
<ellipse class="st33" cx="476.9" cy="235.4" rx="8.4" ry="6.3"/>
<rect x="468.5" y="235.4" class="st34" width="16.8" height="6.3"/>
<path class="st35" d="M486.5,248.1c0,0-7.2-0.4-9.6-0.4s-9.6,0.2-9.6,0.2v-6.2h19.3L486.5,248.1L486.5,248.1z"/>
<path class="st36" d="M480.1,228.1h-6.5v1.5c0,0,1.6-0.5,3.3-0.5c1.5,0,3.3,0.5,3.3,0.5L480.1,228.1L480.1,228.1z"/>
<linearGradient id="SVGID_11_" gradientUnits="userSpaceOnUse" x1="528.1091" y1="468.3694" x2="544.8591" y2="468.3694" gradientTransform="matrix(1 0 0 1 0 -1.989746e-002)">
	<stop  offset="0" style="stop-color:#242124"/>
	<stop  offset="0.5204" style="stop-color:#423F48"/>
	<stop  offset="1" style="stop-color:#000000"/>
</linearGradient>
<path class="st37" d="M528.1,331.2v272.1c0,1.2,3.7,2.1,8.4,2.1s8.4-1,8.4-2.1V331.2H528.1z"/>
<linearGradient id="SVGID_12_" gradientUnits="userSpaceOnUse" x1="415.6091" y1="468.3694" x2="432.3591" y2="468.3694" gradientTransform="matrix(1 0 0 1 0 -1.989746e-002)">
	<stop  offset="0" style="stop-color:#242124"/>
	<stop  offset="0.5204" style="stop-color:#423F48"/>
	<stop  offset="1" style="stop-color:#000000"/>
</linearGradient>
<path class="st38" d="M415.6,331.2v272.1c0,1.2,3.7,2.1,8.4,2.1s8.4-1,8.4-2.1V331.2H415.6z"/>
<g>
	
		<linearGradient id="SVGID_13_" gradientUnits="userSpaceOnUse" x1="528.1091" y1="305.4194" x2="544.8591" y2="305.4194" gradientTransform="matrix(1 0 0 1 0 -1.989746e-002)">
		<stop  offset="0" style="stop-color:#242124"/>
		<stop  offset="0.5204" style="stop-color:#423F48"/>
		<stop  offset="1" style="stop-color:#000000"/>
	</linearGradient>
	<path class="st39" d="M528.1,300.8v6.9c0,1.2,3.7,2.2,8.4,2.2s8.4-1,8.4-2.2v-6.9H528.1z"/>
	<ellipse class="st16" cx="536.5" cy="300.8" rx="8.4" ry="2.2"/>
	
		<radialGradient id="SVGID_14_" cx="536.4841" cy="296.6339" r="6.3375" gradientTransform="matrix(1 0 0 1 0 -1.989746e-002)" gradientUnits="userSpaceOnUse">
		<stop  offset="0" style="stop-color:#423F48"/>
		<stop  offset="1" style="stop-color:#000000"/>
	</radialGradient>
	<path class="st40" d="M536.5,290.8c-3.8,0-6.9,3.1-6.9,6.9c0,0.4,0,0.8,0.1,1.2c0.2,1.1,0.6,2.1,1.2,2.9c1.5,0.3,3.4,0.5,5.5,0.5
		s4.1-0.2,5.5-0.5c0.6-0.8,1.1-1.8,1.2-2.9c0.1-0.4,0.1-0.8,0.1-1.2C543.4,293.9,540.3,290.8,536.5,290.8z"/>
</g>
<g>
	
		<linearGradient id="SVGID_15_" gradientUnits="userSpaceOnUse" x1="415.6091" y1="306.5194" x2="432.3591" y2="306.5194" gradientTransform="matrix(1 0 0 1 0 -1.989746e-002)">
		<stop  offset="0" style="stop-color:#242124"/>
		<stop  offset="0.5204" style="stop-color:#423F48"/>
		<stop  offset="1" style="stop-color:#000000"/>
	</linearGradient>
	<path class="st41" d="M415.6,301.9v6.9c0,1.2,3.7,2.2,8.4,2.2s8.4-1,8.4-2.2v-6.9H415.6z"/>
	<ellipse class="st16" cx="424" cy="301.9" rx="8.4" ry="2.2"/>
	
		<radialGradient id="SVGID_16_" cx="423.9841" cy="297.8194" r="6.3343" gradientTransform="matrix(1 0 0 1 0 -1.989746e-002)" gradientUnits="userSpaceOnUse">
		<stop  offset="0" style="stop-color:#423F48"/>
		<stop  offset="1" style="stop-color:#000000"/>
	</radialGradient>
	<path class="st42" d="M424,292c-3.8,0-6.9,3.1-6.9,6.9c0,0.4,0,0.8,0.1,1.2c0.2,1.1,0.6,2.1,1.2,2.9c1.5,0.3,3.4,0.5,5.5,0.5
		s4.1-0.2,5.5-0.5c0.6-0.8,1.1-1.8,1.2-2.9c0.1-0.4,0.1-0.8,0.1-1.2C430.9,295.1,427.8,292,424,292z"/>
</g>
<polygon points="515.6,619.2 533.6,619.2 530.9,627.5 518.9,627.5 "/>
<polygon points="423.4,619.2 441.4,619.2 438.7,627.5 426.7,627.5 "/>
</svg>
