<?xml version="1.0" encoding="utf-8"?>
<!-- Generator: Adobe Illustrator 19.0.0, SVG Export Plug-In . SVG Version: 6.00 Build 0)  -->
<svg version="1.1" id="图层_1" xmlns="http://www.w3.org/2000/svg" xmlns:xlink="http://www.w3.org/1999/xlink" x="0px" y="0px"
	 viewBox="0 0 595.3 841.9" style="enable-background:new 0 0 595.3 841.9;" xml:space="preserve">
<style type="text/css">
	.st0{fill:#1F5BC0;}
	.st1{fill:#B6B8D9;}
	.st2{fill:#5661A2;}
	.st3{fill:#1D2258;}
	.st4{fill:#3B4778;}
	.st5{fill:#08378B;}
	.st6{fill:#122568;}
	.st7{fill:none;stroke:#939BC3;stroke-width:4;stroke-miterlimit:10;}
	.st8{fill:#3060BF;}
	.st9{fill:url(#SVGID_1_);}
	.st10{fill:#003BA6;}
	.st11{fill:#D2D781;}
	.st12{fill:none;stroke:#C0A500;stroke-miterlimit:10;}
	.st13{fill:#CC3949;}
	.st14{fill:#DC5673;}
	.st15{fill:#D6D663;}
	.st16{fill:#D5D667;}
	.st17{fill:url(#SVGID_2_);}
	.st18{fill:#978A36;}
	.st19{fill:#3F75C3;}
	.st20{fill:#678AD0;}
	.st21{fill:#3E4C83;}
	.st22{fill:#DBD95B;}
	.st23{fill:#A49A53;}
	.st24{fill:#988644;}
	.st25{fill:url(#SVGID_3_);}
	.st26{fill:#171C38;}
	.st27{fill:url(#SVGID_4_);}
	.st28{fill:#112361;}
	.st29{fill:url(#SVGID_5_);}
	.st30{fill:#345EBC;}
	.st31{fill:url(#SVGID_6_);}
	.st32{fill:#364598;}
	.st33{fill:url(#SVGID_7_);}
	.st34{fill:none;stroke:#000000;stroke-width:7;stroke-linecap:round;stroke-miterlimit:10;}
	.st35{fill:none;stroke:#000000;stroke-width:7;stroke-miterlimit:10;}
	.st36{fill:url(#SVGID_8_);}
	.st37{fill:url(#SVGID_9_);}
	.st38{fill:url(#SVGID_10_);}
	.st39{fill:url(#SVGID_11_);}
	.st40{fill:#E3E7E8;}
	.st41{fill:none;stroke:#000000;stroke-miterlimit:10;}
	.st42{fill:#6B6B88;}
	.st43{fill:#A5A5A5;}
	.st44{fill:#520012;stroke:#000000;stroke-miterlimit:10;}
	.st45{fill:#B80014;stroke:#000000;stroke-width:1.0954;stroke-miterlimit:10;}
	.st46{fill:#FFFFFF;stroke:#000000;stroke-width:0.9931;stroke-miterlimit:10;}
	.st47{fill:#315E7D;stroke:#000000;stroke-miterlimit:10;}
	.st48{fill:#83B8C2;stroke:#000000;stroke-width:1.0954;stroke-miterlimit:10;}
	.st49{stroke:#000000;stroke-miterlimit:10;}
	.st50{stroke:#FFFFFF;stroke-width:1.0954;stroke-miterlimit:10;}
	.st51{fill:#FFFFFF;}
	.st52{fill:#A5A7C2;stroke:#000000;stroke-miterlimit:10;}
	.st53{fill:#183386;}
	.st54{fill:url(#SVGID_12_);}
	.st55{fill:#142771;}
	.st56{fill:url(#SVGID_13_);}
	.st57{fill:url(#SVGID_14_);}
</style>
<g>
	<rect x="49" y="728.2" class="st0" width="538" height="21.9"/>
	<polygon class="st1" points="81.3,613.9 49,728.2 65.3,720 93.7,620.6 	"/>
	<polygon class="st2" points="299.3,720 279,620.6 268.7,620.6 272.2,638.1 88.7,638.1 87.1,643.5 273.4,643.5 282.7,689 74.2,689 
		72.6,694.4 283.8,694.4 289,720 	"/>
	<polygon class="st3" points="348.6,720.2 340.3,720.2 317.5,640.2 317.6,620.6 	"/>
	<polygon class="st4" points="515.5,613.9 322.4,613.9 315.5,613.9 81.3,613.9 93.7,620.6 317.6,620.6 325.2,644.9 278.3,644.9 
		284.5,673.6 334.1,673.6 348.6,720.2 65.3,720 49,728.2 351.1,728.2 351.1,728.2 587,728.2 	"/>
	<polygon class="st5" points="72.6,694.4 65.3,720 289,720 283.8,694.4 	"/>
	<polygon class="st1" points="181.3,724.4 100.3,724.4 108.3,691.7 181.3,691.7 	"/>
	<polygon class="st6" points="279,620.6 283,640.2 317.5,640.2 317.6,620.6 	"/>
	<polygon class="st5" points="93.7,620.6 268.7,620.6 272.2,638.1 88.7,638.1 	"/>
	<rect x="87.1" y="643.5" class="st5" width="186.2" height="19.6"/>
	<polygon class="st3" points="282.7,689 278,689 273.4,663.1 273.4,643.5 	"/>
	<polygon class="st3" points="87.1,643.5 87.1,663.1 79.3,689 74.2,689 	"/>
</g>
<path class="st7" d="M411.2,286.6c0,0,4.4-40.1-4.4-39.1s-36.1,40.5-36.1,58.1s10,29.1,0,47s-85.3,47.8-152,45.5
	S105.3,261.1,78,264.8s-23.5,40.8-23.5,40.8"/>
<g>
	<path class="st8" d="M531.4,650.2C517.6,639,483.7,631,444,631s-73.6,7.9-87.4,19.2H350v11.2c0,16.8,42.1,30.3,94,30.3
		s94-13.6,94-30.3v-11.2H531.4z"/>
	
		<linearGradient id="SVGID_1_" gradientUnits="userSpaceOnUse" x1="350" y1="315.23" x2="538" y2="315.23" gradientTransform="matrix(1 0 0 -1 0 841.87)">
		<stop  offset="0" style="stop-color:#90803D"/>
		<stop  offset="1" style="stop-color:#CFCB6A"/>
	</linearGradient>
	<path class="st9" d="M350,372.8v277.4c0,16.8,42.1,30.3,94,30.3s94-13.6,94-30.3V372.8H350z"/>
	<path class="st10" d="M444,464.8c-51.9,0-94-5.6-94-22.3v11.2c0,16.8,42.1,22.3,94,22.3s94-5.6,94-22.3v-11.2
		C538,459.2,495.9,464.8,444,464.8z"/>
	<polygon class="st10" points="398,683.6 387.5,680.6 387.5,466.7 398,468.2 	"/>
	<polygon class="st10" points="527.9,669.6 517.4,675.6 517.4,466.7 527.9,463.2 	"/>
	<path class="st10" d="M444,678.6c-51.9,0-94-13.6-94-30.3v11.2c0,16.8,42.1,30.3,94,30.3s94-13.6,94-30.3v-11.2
		C538,665,495.9,678.6,444,678.6z"/>
	<path class="st8" d="M444,680.6c-51.9,0-94-13.6-94-30.3v11.2c0,16.8,42.1,30.3,94,30.3s94-13.6,94-30.3v-11.2
		C538,667,495.9,680.6,444,680.6z"/>
	<path class="st8" d="M444,466.8c-51.9,0-94-5.6-94-22.3v11.2c0,16.8,42.1,22.3,94,22.3s94-5.6,94-22.3v-11.2
		C538,461.2,495.9,466.8,444,466.8z"/>
	<polygon class="st8" points="396,683.6 385.5,680.6 385.5,466.7 396,468.2 	"/>
	<polygon class="st8" points="526,673.6 515.5,677.9 515.5,464 526,461.2 	"/>
	<ellipse class="st11" cx="444" cy="372.8" rx="94" ry="12.1"/>
	<path class="st12" d="M476.8,384.1"/>
	<path class="st12" d="M476,361.4"/>
	<g>
		<path class="st13" d="M476,352.6V366c0,1.7,10.9,3.1,24.3,3.1c13.4,0,24.3-1.4,24.3-3.1v-13.4H476z"/>
		<ellipse class="st14" cx="500.3" cy="352.6" rx="24.3" ry="3.1"/>
	</g>
	<path class="st11" d="M350,361.4c0,0,22,11.1,50.5,11.3s58.8-1.6,58.8-1.6l-57.8-23.3L350,361.4z"/>
	<rect x="365.5" y="344.9" class="st15" width="66" height="20.8"/>
	<rect x="391" y="344.9" class="st16" width="77.3" height="24.3"/>
	
		<linearGradient id="SVGID_2_" gradientUnits="userSpaceOnUse" x1="350.1" y1="472.48" x2="476.8" y2="472.48" gradientTransform="matrix(1 0 0 -1 0 841.87)">
		<stop  offset="0" style="stop-color:#90803D"/>
		<stop  offset="1" style="stop-color:#CFCB6A"/>
	</linearGradient>
	<path class="st17" d="M476.8,384.1c-10.2,0.5-20.6,1.4-32.1,1.4c-51.9,0-94.6-5.9-94.6-12.6v-11.5c0,0,23.7,9.1,54.6,10.5
		c34.2,1.5,54.6-0.8,54.6-0.8v-17.8h17.5V384.1z"/>
	<polygon class="st18" points="459.3,371.1 450.3,369.1 450.3,349.6 459.3,353.4 	"/>
	<polygon class="st11" points="476.8,353.4 466.7,348.9 450.3,349.6 459.3,353.4 	"/>
	<polygon class="st18" points="391,369.1 374,365.6 377.3,343.6 391,344.9 	"/>
	<polygon class="st18" points="365.5,365.6 359.3,360.9 359.3,344.1 365.5,344.9 	"/>
	<polygon class="st15" points="359.3,360.9 350,361.4 350,344.9 359.3,344.9 	"/>
	<path class="st11" d="M468.3,344.9c0,0-20.7-5.7-60-5s-58.3,5-58.3,5h9.3v-0.8l6.3,0.8h11.6l0.2-1.3l13.8,1.3H468.3z"/>
</g>
<g>
	<rect x="406.8" y="289.7" class="st10" width="8.8" height="5.2"/>
	<rect x="407.5" y="283.5" width="7.5" height="6.2"/>
	<polygon class="st19" points="439,344 439,300 433.1,294.1 411.8,294.1 405.7,300.1 405.7,344 	"/>
	<polygon class="st20" points="406.8,294.1 411.8,294.1 405.7,300.1 400.7,300.1 	"/>
	<polygon class="st21" points="405.7,344 400.7,340.2 400.7,300.1 405.7,300.1 	"/>
	<path class="st22" d="M436.8,326.6v-24.5l-5-5h-16.7l-4.5,4.5v25c0,1,0.8,1.8,1.8,1.8H435C436,328.4,436.8,327.6,436.8,326.6z"/>
	<rect x="417" y="299.4" class="st23" width="12.5" height="5"/>
	<circle class="st24" cx="413.8" cy="302.6" r="1.8"/>
	<circle class="st24" cx="416.9" cy="322.8" r="2"/>
	<circle class="st24" cx="433.2" cy="302.5" r="2"/>
	<circle class="st24" cx="431.3" cy="322.8" r="2"/>
</g>
<g>
	
		<linearGradient id="SVGID_3_" gradientUnits="userSpaceOnUse" x1="113" y1="771.43" x2="294.6" y2="771.43" gradientTransform="matrix(1 0 0 -1 0 841.87)">
		<stop  offset="0" style="stop-color:#202B4F"/>
		<stop  offset="0.5051" style="stop-color:#275CC3"/>
		<stop  offset="1" style="stop-color:#1F2B4E"/>
	</linearGradient>
	<path class="st25" d="M294.6,70.5c0-8.1-40.7-14.8-90.8-14.8S113,62.4,113,70.5v12.6h43.9c13.7,1.3,29.8,2.1,46.9,2.1
		s33.2-0.8,46.9-2.1h43.9L294.6,70.5L294.6,70.5z"/>
	<ellipse class="st26" cx="203.8" cy="83.1" rx="90.8" ry="14.8"/>
	
		<linearGradient id="SVGID_4_" gradientUnits="userSpaceOnUse" x1="134.3" y1="745.18" x2="273.3" y2="745.18" gradientTransform="matrix(1 0 0 -1 0 841.87)">
		<stop  offset="0" style="stop-color:#202B4F"/>
		<stop  offset="0.5051" style="stop-color:#275CC3"/>
		<stop  offset="1" style="stop-color:#1F2B4E"/>
	</linearGradient>
	<path class="st27" d="M203.8,72.1c-38.4,0-69.5,5.2-69.5,11.6v37.6h139V83.8C273.3,77.3,242.2,72.1,203.8,72.1z"/>
</g>
<g>
	<rect x="310.5" y="519.9" class="st8" width="14" height="141.5"/>
	<polygon class="st28" points="305.5,645.9 310.5,661.4 310.5,519.9 305.5,504.4 	"/>
</g>
<g>
	
		<linearGradient id="SVGID_5_" gradientUnits="userSpaceOnUse" x1="187.5" y1="273.83" x2="215" y2="273.83" gradientTransform="matrix(1 0 0 -1 0 841.87)">
		<stop  offset="0" style="stop-color:#14295B"/>
		<stop  offset="0.4847" style="stop-color:#507CD0"/>
		<stop  offset="1" style="stop-color:#263F8A"/>
	</linearGradient>
	<rect x="187.5" y="545.4" class="st29" width="27.5" height="45.3"/>
	<circle class="st28" cx="201.3" cy="588.9" r="13.8"/>
	<circle class="st30" cx="202.8" cy="620.6" r="37.3"/>
	
		<linearGradient id="SVGID_6_" gradientUnits="userSpaceOnUse" x1="202.8" y1="203.74" x2="202.8" y2="238.74" gradientTransform="matrix(1 0 0 -1 0 841.87)">
		<stop  offset="0" style="stop-color:#507CD0"/>
		<stop  offset="1" style="stop-color:#000000"/>
	</linearGradient>
	<circle class="st31" cx="202.8" cy="620.6" r="17.5"/>
	<circle class="st28" cx="202.8" cy="593" r="3.4"/>
	<circle class="st28" cx="183.2" cy="601.1" r="3.4"/>
	<circle class="st28" cx="175.1" cy="620.6" r="3.4"/>
	<circle class="st28" cx="183.2" cy="640.2" r="3.4"/>
	<circle class="st28" cx="202.8" cy="648.3" r="3.4"/>
	<circle class="st28" cx="222.3" cy="640.2" r="3.4"/>
	<circle class="st28" cx="230.4" cy="620.6" r="3.4"/>
	<circle class="st28" cx="222.3" cy="601.1" r="3.4"/>
</g>
<path class="st28" d="M74.3,287.9v216.3c0,27.1,58,49,129.5,49s129.5-21.9,129.5-49V287.9H74.3z"/>
<path class="st32" d="M203.8,112.9c-71.5,0-129.5,21.9-129.5,49v216.3h259V161.9C333.3,134.8,275.3,112.9,203.8,112.9z"/>
<linearGradient id="SVGID_7_" gradientUnits="userSpaceOnUse" x1="74.3" y1="501.98" x2="333.3" y2="501.98" gradientTransform="matrix(1 0 0 -1 0 841.87)">
	<stop  offset="0" style="stop-color:#14295B"/>
	<stop  offset="0.4847" style="stop-color:#507CD0"/>
	<stop  offset="1" style="stop-color:#263F8A"/>
</linearGradient>
<path class="st33" d="M333.3,504.2c0,0-67.3,17.7-129.5,17.7c-83.1,0-129.5-17.7-129.5-17.7V161.9c0,0,28.2-4,129.5-4
	c66.9,0,129.5,4,129.5,4V504.2z"/>
<path class="st34" d="M206.1,90.6c0,0,51.3,42,63.3,54s28.6,22.7,28.3,66.7c-0.3,44-4.3,117.3-3.6,146
	c0.7,28.7,5.1,120.8-42.4,125.4c-47.6,4.6-21.6-97.7-21.6-97.7"/>
<path class="st7" d="M206.1,394.1c0,0,0.6,18.2,2.9,26.8s6.4,31.6-1.5,31.6s-9.9-18.4-8.9-32s0.2-39.7,1.8-42.4"/>
<path class="st35" d="M247.8,384.9c0,0-7.3,41-2.3,56s17.8,44,52.1,45s68.9-18,86.4-50.5s18-45.5,27-66s12-27,12-27v-14"/>
<g>
	
		<linearGradient id="SVGID_8_" gradientUnits="userSpaceOnUse" x1="134.75" y1="450.43" x2="146" y2="450.43" gradientTransform="matrix(1 0 0 -1 0 841.87)">
		<stop  offset="0" style="stop-color:#E3E7E8"/>
		<stop  offset="1" style="stop-color:#4C537A"/>
	</linearGradient>
	<path class="st36" d="M143,398.1h-5.3c-1.6,0-3-1.4-3-3v-7.3c0-1.7,1.4-3,3-3h5.3c1.6,0,3,1.3,3,3v7.3
		C146,396.8,144.6,398.1,143,398.1z"/>
	
		<linearGradient id="SVGID_9_" gradientUnits="userSpaceOnUse" x1="156.6419" y1="450.43" x2="167.8919" y2="450.43" gradientTransform="matrix(1 0 0 -1 0 841.87)">
		<stop  offset="0" style="stop-color:#E3E7E8"/>
		<stop  offset="1" style="stop-color:#4C537A"/>
	</linearGradient>
	<path class="st37" d="M164.9,398.1h-5.3c-1.6,0-3-1.4-3-3v-7.3c0-1.7,1.4-3,3-3h5.3c1.6,0,3,1.3,3,3v7.3
		C167.9,396.8,166.5,398.1,164.9,398.1z"/>
	
		<linearGradient id="SVGID_10_" gradientUnits="userSpaceOnUse" x1="178.5338" y1="450.43" x2="189.7838" y2="450.43" gradientTransform="matrix(1 0 0 -1 0 841.87)">
		<stop  offset="0" style="stop-color:#E3E7E8"/>
		<stop  offset="1" style="stop-color:#4C537A"/>
	</linearGradient>
	<path class="st38" d="M186.8,398.1h-5.3c-1.6,0-3-1.4-3-3v-7.3c0-1.7,1.4-3,3-3h5.3c1.6,0,3,1.3,3,3v7.3
		C189.8,396.8,188.4,398.1,186.8,398.1z"/>
	
		<linearGradient id="SVGID_11_" gradientUnits="userSpaceOnUse" x1="200.4256" y1="450.43" x2="211.6756" y2="450.43" gradientTransform="matrix(1 0 0 -1 0 841.87)">
		<stop  offset="0" style="stop-color:#E3E7E8"/>
		<stop  offset="1" style="stop-color:#4C537A"/>
	</linearGradient>
	<path class="st39" d="M208.7,398.1h-5.3c-1.7,0-3-1.4-3-3v-7.3c0-1.7,1.3-3,3-3h5.3c1.6,0,3,1.3,3,3v7.3
		C211.7,396.8,210.3,398.1,208.7,398.1z"/>
	<rect x="102.5" y="165.4" class="st40" width="182" height="227"/>
	<rect x="116" y="177.4" class="st41" width="157.3" height="200.8"/>
	<rect x="177" y="193.4" class="st42" width="43.3" height="21"/>
	<rect x="182.5" y="198.1" class="st43" width="23" height="10.3"/>
	<rect x="205.5" y="198.1" width="9.3" height="10.3"/>
	<g>
		<path class="st44" d="M147.5,247.5v-15.3c0-3.5-2.9-6.4-6.4-6.4l0,0c-3.5,0-6.4,2.9-6.4,6.4v15.3H147.5z"/>
		<circle class="st45" cx="141.1" cy="232.2" r="6.9"/>
		<rect x="134.8" y="239.8" class="st46" width="12.8" height="7.8"/>
	</g>
	<g>
		<path class="st47" d="M174.8,247.5v-15.3c0-3.5-2.9-6.4-6.4-6.4l0,0c-3.5,0-6.4,2.9-6.4,6.4v15.3H174.8z"/>
		<circle class="st48" cx="168.4" cy="232.2" r="6.9"/>
		<rect x="162.1" y="239.8" class="st46" width="12.8" height="7.8"/>
	</g>
	<g>
		<path class="st47" d="M202.1,247.5v-15.3c0-3.5-2.9-6.4-6.4-6.4l0,0c-3.5,0-6.4,2.9-6.4,6.4v15.3H202.1z"/>
		<circle class="st48" cx="195.7" cy="232.2" r="6.9"/>
		<rect x="189.4" y="239.8" class="st46" width="12.8" height="7.8"/>
	</g>
	<g>
		<path class="st47" d="M229.4,247.5v-15.3c0-3.5-2.9-6.4-6.4-6.4l0,0c-3.5,0-6.4,2.9-6.4,6.4v15.3H229.4z"/>
		<circle class="st48" cx="223" cy="232.2" r="6.9"/>
		<rect x="216.7" y="239.8" class="st46" width="12.8" height="7.8"/>
	</g>
	<g>
		<path class="st47" d="M256.7,247.5v-15.3c0-3.5-2.9-6.4-6.4-6.4l0,0c-3.5,0-6.4,2.9-6.4,6.4v15.3H256.7z"/>
		<circle class="st48" cx="250.4" cy="232.2" r="6.9"/>
		<rect x="244" y="239.8" class="st46" width="12.8" height="7.8"/>
	</g>
	<g>
		<path class="st47" d="M202.1,275.5v-15.3c0-3.5-2.9-6.4-6.4-6.4l0,0c-3.5,0-6.4,2.9-6.4,6.4v15.3H202.1z"/>
		<circle class="st48" cx="195.7" cy="260.2" r="6.9"/>
		<rect x="189.4" y="267.7" class="st46" width="12.8" height="7.8"/>
	</g>
	<g>
		<path class="st49" d="M174.8,275.5v-15.3c0-3.5-2.9-6.4-6.4-6.4l0,0c-3.5,0-6.4,2.9-6.4,6.4v15.3H174.8z"/>
		<rect x="162.1" y="267.7" class="st46" width="12.8" height="7.8"/>
		<circle class="st50" cx="168.4" cy="260.2" r="6.9"/>
		<path class="st51" d="M164.4,264.5L164.4,264.5c-0.4-0.4-0.4-1.1,0-1.5l6.9-6.9c0.4-0.4,1.1-0.4,1.5,0l0,0c0.4,0.4,0.4,1.1,0,1.5
			l-6.9,6.9C165.5,264.9,164.8,264.9,164.4,264.5z"/>
	</g>
	<g>
		<path class="st49" d="M174.8,303.4v-15.3c0-3.5-2.9-6.4-6.4-6.4l0,0c-3.5,0-6.4,2.9-6.4,6.4v15.3H174.8z"/>
		<rect x="162.1" y="295.7" class="st46" width="12.8" height="7.8"/>
		<circle class="st50" cx="168.4" cy="288.1" r="6.9"/>
		<path class="st51" d="M164.4,292.5L164.4,292.5c-0.4-0.4-0.4-1.1,0-1.5l6.9-6.9c0.4-0.4,1.1-0.4,1.5,0l0,0c0.4,0.4,0.4,1.1,0,1.5
			l-6.9,6.9C165.5,292.9,164.8,292.9,164.4,292.5z"/>
	</g>
	<g>
		<path class="st49" d="M202.1,303.4v-15.3c0-3.5-2.9-6.4-6.4-6.4l0,0c-3.5,0-6.4,2.9-6.4,6.4v15.3H202.1z"/>
		<rect x="189.4" y="295.7" class="st46" width="12.8" height="7.8"/>
		<circle class="st50" cx="195.7" cy="288.1" r="6.9"/>
		<path class="st51" d="M191.7,292.5L191.7,292.5c-0.4-0.4-0.4-1.1,0-1.5l6.9-6.9c0.4-0.4,1.1-0.4,1.5,0l0,0c0.4,0.4,0.4,1.1,0,1.5
			l-6.9,6.9C192.8,292.9,192.1,292.9,191.7,292.5z"/>
	</g>
	<g>
		<path class="st49" d="M229.4,303.4v-15.3c0-3.5-2.9-6.4-6.4-6.4l0,0c-3.5,0-6.4,2.9-6.4,6.4v15.3H229.4z"/>
		<rect x="216.7" y="295.7" class="st46" width="12.8" height="7.8"/>
		<circle class="st50" cx="223" cy="288.1" r="6.9"/>
		<path class="st51" d="M219,292.5L219,292.5c-0.4-0.4-0.4-1.1,0-1.5l6.9-6.9c0.4-0.4,1.1-0.4,1.5,0l0,0c0.4,0.4,0.4,1.1,0,1.5
			l-6.9,6.9C220.1,292.9,219.4,292.9,219,292.5z"/>
	</g>
	<g>
		<path class="st49" d="M229.4,275.5v-15.3c0-3.5-2.9-6.4-6.4-6.4l0,0c-3.5,0-6.4,2.9-6.4,6.4v15.3H229.4z"/>
		<rect x="216.7" y="267.7" class="st46" width="12.8" height="7.8"/>
		<circle class="st50" cx="223" cy="260.2" r="6.9"/>
		<path class="st51" d="M219,264.5L219,264.5c-0.4-0.4-0.4-1.1,0-1.5l6.9-6.9c0.4-0.4,1.1-0.4,1.5,0l0,0c0.4,0.4,0.4,1.1,0,1.5
			l-6.9,6.9C220.1,264.9,219.4,264.9,219,264.5z"/>
	</g>
	<circle class="st52" cx="253.3" cy="281.9" r="7.8"/>
	<circle class="st52" cx="253.3" cy="281.9" r="5.4"/>
	<ellipse cx="255" cy="282.1" rx="1.7" ry="1.6"/>
</g>
<g>
	<polygon class="st8" points="150.5,705.9 119,698.4 119,533.9 150.5,541.4 	"/>
	<polygon class="st53" points="161.5,698.4 150.5,705.9 150.5,541.4 161.5,547.2 	"/>
</g>
<g>
	
		<linearGradient id="SVGID_12_" gradientUnits="userSpaceOnUse" x1="28.6" y1="359.28" x2="28.6" y2="536.28" gradientTransform="matrix(1 0 0 -1 0 841.87)">
		<stop  offset="0" style="stop-color:#202B4F"/>
		<stop  offset="0.5051" style="stop-color:#275CC3"/>
		<stop  offset="1" style="stop-color:#1F2B4E"/>
	</linearGradient>
	<path class="st54" d="M40.1,394.1c0-19-0.8-36.6-2.1-51.1v-37.4h-9.4c-6.4,0-11.5,39.6-11.5,88.5s5.1,88.5,11.5,88.5H38v-37.4
		C39.3,430.8,40.1,413.2,40.1,394.1z"/>
	<ellipse class="st55" cx="38" cy="394.1" rx="11.5" ry="88.5"/>
	
		<linearGradient id="SVGID_13_" gradientUnits="userSpaceOnUse" x1="59.35" y1="382.08" x2="59.35" y2="513.48" gradientTransform="matrix(1 0 0 -1 0 841.87)">
		<stop  offset="0" style="stop-color:#233B85"/>
		<stop  offset="0.5051" style="stop-color:#517DD1"/>
		<stop  offset="1" style="stop-color:#122656"/>
	</linearGradient>
	<path class="st56" d="M74.2,328.4H38.1c-4.2,0-7.6,29.4-7.6,65.7s3.4,65.7,7.6,65.7h36.1c0,0,14-17,14-67.2
		C88.2,344.7,74.2,328.4,74.2,328.4z"/>
</g>
<g>
	
		<linearGradient id="SVGID_14_" gradientUnits="userSpaceOnUse" x1="50.7778" y1="514.23" x2="58.282" y2="514.23" gradientTransform="matrix(1 0 0 -1 0 841.87)">
		<stop  offset="0" style="stop-color:#2B3454"/>
		<stop  offset="0.9949" style="stop-color:#194699"/>
	</linearGradient>
	<path class="st57" d="M54.5,332.4L54.5,332.4c-2.1,0-3.8-1.7-3.8-3.8v-5.7h7.5v5.7C58.3,330.7,56.6,332.4,54.5,332.4z"/>
	<rect x="50.8" y="319" class="st51" width="7.5" height="3.8"/>
	<rect x="49.6" y="304.7" width="9.8" height="14.3"/>
</g>
</svg>
