<?xml version="1.0" encoding="utf-8"?>
<!-- Generator: Adobe Illustrator 19.0.0, SVG Export Plug-In . SVG Version: 6.00 Build 0)  -->
<svg version="1.1" id="图层_1" xmlns="http://www.w3.org/2000/svg" xmlns:xlink="http://www.w3.org/1999/xlink" x="0px" y="0px"
	 viewBox="0 0 595.3 841.9" style="enable-background:new 0 0 595.3 841.9;" xml:space="preserve">
<style type="text/css">
	.st0{fill:#BDD2DD;stroke:#000000;stroke-linejoin:round;stroke-miterlimit:10;}
	.st1{fill:#A9C4D9;stroke:#000000;stroke-linejoin:round;stroke-miterlimit:10;}
	.st2{fill:#A7ABAF;stroke:#000000;stroke-miterlimit:10;}
	.st3{fill:#E7E7E7;stroke:#000000;stroke-miterlimit:10;}
	.st4{fill:#58585A;stroke:#000000;stroke-width:5;stroke-miterlimit:10;}
	.st5{fill:#D1D3D5;stroke:#000000;stroke-miterlimit:10;}
	.st6{fill:#D2D3D4;stroke:#000000;stroke-miterlimit:10;}
	.st7{fill:#0ABB5F;stroke:#000000;stroke-miterlimit:10;}
	.st8{fill:#FFFFFF;stroke:#000000;stroke-miterlimit:10;}
	.st9{fill:#FF061C;}
	.st10{fill:#BCC5C3;stroke:#000000;stroke-linejoin:round;stroke-miterlimit:10;}
	.st11{fill:#736E71;stroke:#000000;stroke-linejoin:round;stroke-miterlimit:10;}
</style>
<polygon class="st0" points="524,548.9 177.7,548.9 53,701.9 463,701.9 "/>
<rect x="53" y="701.9" class="st1" width="410" height="30"/>
<polygon class="st2" points="524,578.9 463,731.9 463,701.9 524,548.9 "/>
<rect x="114" y="187.9" class="st3" width="317" height="164"/>
<rect x="114" y="351.9" class="st3" width="317" height="324"/>
<rect x="221" y="269.9" class="st4" width="112" height="64"/>
<polygon class="st5" points="473,127.9 199,127.9 114,187.9 431,187.9 "/>
<polygon class="st6" points="473,578.9 431,675.9 431,187.9 473,127.9 "/>
<circle class="st7" cx="177.7" cy="225.2" r="9"/>
<circle class="st7" cx="240.7" cy="225.2" r="9"/>
<circle class="st7" cx="302.5" cy="225.2" r="9"/>
<circle class="st8" cx="365.2" cy="225.2" r="12.8"/>
<circle class="st9" cx="365.2" cy="225.2" r="7.3"/>
<rect x="114" y="675.9" class="st10" width="14" height="18"/>
<rect x="417" y="675.9" class="st10" width="14" height="18"/>
<polygon class="st11" points="128,675.9 128,693.9 151,675.9 "/>
<polygon class="st11" points="431,675.9 431,693.9 473,590.9 473,578.9 "/>
</svg>
