<?xml version="1.0" encoding="utf-8"?>
<!-- Generator: Adobe Illustrator 19.0.0, SVG Export Plug-In . SVG Version: 6.00 Build 0)  -->
<svg version="1.1" id="图层_1" xmlns="http://www.w3.org/2000/svg" xmlns:xlink="http://www.w3.org/1999/xlink" x="0px" y="0px"
	 viewBox="0 0 595.3 841.9" style="enable-background:new 0 0 595.3 841.9;" xml:space="preserve">
<style type="text/css">
	.st0{fill:#093562;}
	.st1{fill:#385C80;}
	.st2{fill:url(#SVGID_1_);}
	.st3{fill:#0269B2;}
	.st4{fill:url(#SVGID_2_);}
	.st5{fill:url(#SVGID_3_);}
	.st6{fill:url(#SVGID_4_);}
	.st7{fill:#895F34;}
	.st8{fill:#E2D1B2;}
	.st9{fill:#B0AEA5;}
	.st10{fill:#A7A69C;}
	.st11{fill:url(#SVGID_5_);}
	.st12{fill:#ADB2BA;}
	.st13{fill:#CECECE;}
	.st14{fill:url(#SVGID_6_);}
	.st15{fill:url(#SVGID_7_);}
	.st16{fill:url(#SVGID_8_);}
	.st17{fill:#7D6143;}
	.st18{fill:none;stroke:#000000;stroke-width:0.25;stroke-miterlimit:10;}
	.st19{fill:#0E151C;}
	.st20{fill:#3A3B3B;}
	.st21{fill:#A79F9A;}
	.st22{fill:none;stroke:#464646;stroke-miterlimit:10;}
	.st23{fill:#1D1D1E;}
	.st24{fill:#0E1215;}
	.st25{fill:#3B3B3B;}
	.st26{fill:#505050;}
	.st27{fill:#1F2626;}
	.st28{fill:#5C5D5F;}
	.st29{fill:#303133;}
	.st30{fill:#96A6B1;}
	.st31{fill:#3A4D62;}
	.st32{fill:url(#SVGID_9_);}
	.st33{fill:#909493;}
	.st34{fill:url(#SVGID_10_);}
	.st35{fill:#41151B;}
	.st36{fill:#BE4C61;}
	.st37{fill:#76746D;}
	.st38{fill:#3A5062;}
	.st39{fill:#1E6795;}
	.st40{fill:#06437B;}
	.st41{fill:url(#SVGID_11_);}
	.st42{fill:url(#SVGID_12_);}
	.st43{fill:url(#SVGID_13_);}
	.st44{fill:url(#SVGID_14_);}
	.st45{fill:#064A84;}
	.st46{fill:url(#SVGID_15_);}
	.st47{fill:#0C86D1;}
	.st48{fill:url(#SVGID_16_);}
	.st49{fill:url(#SVGID_17_);}
	.st50{fill:url(#SVGID_18_);}
	.st51{fill:url(#SVGID_19_);}
	.st52{fill:#B4B6B4;}
	.st53{fill:url(#SVGID_20_);}
	.st54{fill:#AFB4AD;}
	.st55{fill:#EDE6DC;}
	.st56{fill:#F9FAF5;}
	.st57{fill:#494C4F;}
	.st58{fill:#EEEBDC;}
	.st59{fill:#747472;stroke:#000000;stroke-miterlimit:10;}
	.st60{fill:#666B6E;stroke:#000000;stroke-miterlimit:10;}
	.st61{fill:#FFFFFF;stroke:#F1514A;stroke-miterlimit:10;}
	.st62{fill:#F1514A;}
	.st63{fill:none;stroke:#000000;stroke-miterlimit:10;}
	.st64{fill:#EEEAE3;stroke:#000000;stroke-miterlimit:10;}
	.st65{fill:#FDFBF2;stroke:#000000;stroke-miterlimit:10;}
	.st66{fill:#173761;}
	.st67{fill:#01539B;}
	.st68{fill:#0D97E0;}
	.st69{fill:#052440;}
	.st70{fill:#085A9B;}
	.st71{fill:#021D3A;}
	.st72{fill:#05162A;}
	.st73{fill:#0D263F;}
	.st74{fill:#1F4064;}
	.st75{fill:url(#SVGID_21_);}
	.st76{fill:url(#SVGID_22_);}
	.st77{fill:#09518B;}
	.st78{fill:url(#SVGID_23_);}
	.st79{fill:url(#SVGID_24_);}
	.st80{fill:url(#SVGID_25_);}
	.st81{fill:#015EA3;}
	.st82{fill:#083D69;}
</style>
<rect x="13.3" y="703.2" class="st0" width="528.7" height="19.3"/>
<rect x="71.5" y="588.9" class="st0" width="405.2" height="19.3"/>
<polygon class="st1" points="476.7,588.9 476.7,608.2 521.1,694.9 529.6,694.9 "/>
<polygon class="st1" points="349.8,588.9 349.8,608.2 372.7,694.9 377.9,694.9 "/>
<polygon class="st1" points="72,588.9 72,608.2 35.7,694.9 26.8,694.9 "/>
<polygon class="st1" points="132.3,588.9 132.3,608.2 99.5,694.9 92.1,694.9 "/>
<rect x="52.1" y="634.9" class="st0" width="53.3" height="19.3"/>
<rect x="45.1" y="651.9" class="st0" width="53.8" height="19.3"/>
<rect x="114.9" y="634.9" class="st0" width="247.1" height="19.3"/>
<rect x="108.4" y="651.9" class="st0" width="258" height="19.3"/>
<linearGradient id="SVGID_1_" gradientUnits="userSpaceOnUse" x1="251.4" y1="267.98" x2="251.4" y2="279.9469" gradientTransform="matrix(1 0 0 -1 0 841.87)">
	<stop  offset="0" style="stop-color:#00467C"/>
	<stop  offset="0.5" style="stop-color:#0D8DDA"/>
	<stop  offset="1" style="stop-color:#004379"/>
</linearGradient>
<rect x="73.5" y="561.9" class="st2" width="355.8" height="12"/>
<path class="st3" d="M480,582.9H67.3l-54,120.3H542L480,582.9z M529.6,694.9H387.4l-28.1-106h117.4L529.6,694.9z M362,634.9
	l2.8,10.7h-254l4-10.7H362z M117.3,628.5l15.1-39.7h217.5l10.5,39.7H117.3z M101.3,645.5H47.8l4.5-10.7h53L101.3,645.5z M98.9,651.9
	l-16.3,43H26.8l18.3-43H98.9z M108.4,651.9h258.1l11.4,43H92.1L108.4,651.9z M72,588.9h50.9l-15.1,39.7H55.1L72,588.9z"/>
<radialGradient id="SVGID_2_" cx="79.4203" cy="508.4066" r="33.7474" gradientTransform="matrix(1 0 0 -1 0 841.87)" gradientUnits="userSpaceOnUse">
	<stop  offset="0" style="stop-color:#0D8DDA"/>
	<stop  offset="1" style="stop-color:#004379"/>
</radialGradient>
<path class="st4" d="M76.7,321.9c-19.9,0-36,8.5-36,19v24.7c0,10.5,16.1,19,36,19s36-8.5,36-19v-24.7
	C112.7,330.4,96.6,321.9,76.7,321.9z"/>
<g>
	
		<linearGradient id="SVGID_3_" gradientUnits="userSpaceOnUse" x1="40.7" y1="340.38" x2="112.7" y2="340.38" gradientTransform="matrix(1 0 0 -1 0 841.87)">
		<stop  offset="0" style="stop-color:#00467C"/>
		<stop  offset="0.5" style="stop-color:#0D8DDA"/>
		<stop  offset="1" style="stop-color:#004379"/>
	</linearGradient>
	<path class="st5" d="M40.7,350.6v282.8c0,10.5,16.1,19,36,19s36-8.5,36-19V350.6c0,0-15.4,2.7-38.2,2.7
		C54.3,353.2,40.7,350.6,40.7,350.6z"/>
</g>
<g>
	
		<linearGradient id="SVGID_4_" gradientUnits="userSpaceOnUse" x1="59.4412" y1="200.5194" x2="79.4287" y2="195.691" gradientTransform="matrix(1 0 0 -1 0 841.87)">
		<stop  offset="0.1162" style="stop-color:#0D8DDA"/>
		<stop  offset="1" style="stop-color:#004379"/>
	</linearGradient>
	<path class="st6" d="M78.3,638.9L78.3,638.9c0.1-0.6,0.2-1.3,0.2-1.9c0-4.3-3.5-7.9-7.9-7.9c-3.4,0-6.3,2.2-7.4,5.3l0,0l-0.1,0.2
		c-0.1,0.3-0.2,0.6-0.2,0.9l-5,18.8l14.6,5.4l5.6-20.3c0-0.1,0-0.1,0.1-0.2L78.3,638.9z"/>
	<polygon class="st7" points="71.8,669.6 63.1,675 53.6,671.6 50.3,662 55.7,653.5 65.8,652.4 72.9,659.6 	"/>
	<polygon class="st8" points="69.5,672.7 60.9,678 51.3,674.6 48,665.1 53.4,656.5 63.5,655.4 70.6,662.6 	"/>
	<circle class="st9" cx="59.3" cy="666.9" r="9.4"/>
	<circle class="st10" cx="56.4" cy="671.6" r="9.4"/>
</g>
<g>
	
		<linearGradient id="SVGID_5_" gradientUnits="userSpaceOnUse" x1="70.35" y1="521.93" x2="83.35" y2="521.93" gradientTransform="matrix(1 0 0 -1 0 841.87)">
		<stop  offset="0" style="stop-color:#00467C"/>
		<stop  offset="0.5" style="stop-color:#0D8DDA"/>
		<stop  offset="1" style="stop-color:#004379"/>
	</linearGradient>
	<path class="st11" d="M83.4,322.3c0,0-1.6,2.1-6.7,2.1s-6.3-2.1-6.3-2.1v-6.8h13V322.3z"/>
	<path class="st12" d="M70.4,314.4v1.1c0,0.6,2.9,1.1,6.5,1.1s6.5-0.5,6.5-1.1v-1.1H70.4z"/>
	<ellipse class="st13" cx="76.9" cy="314.4" rx="6.5" ry="1.1"/>
	
		<linearGradient id="SVGID_6_" gradientUnits="userSpaceOnUse" x1="71.5375" y1="531.43" x2="81.7875" y2="531.43" gradientTransform="matrix(1 0 0 -1 0 841.87)">
		<stop  offset="0" style="stop-color:#AA8D65"/>
		<stop  offset="0.5" style="stop-color:#F6F2DF"/>
		<stop  offset="1" style="stop-color:#E3C492"/>
	</linearGradient>
	<path class="st14" d="M71.5,305.6v8.8c0,0.5,2.3,0.9,5.1,0.9s5.1-0.4,5.1-0.9v-8.8H71.5z"/>
	
		<linearGradient id="SVGID_7_" gradientUnits="userSpaceOnUse" x1="69.85" y1="539.115" x2="69.85" y2="541.9119" gradientTransform="matrix(1 0 0 -1 0 841.87)">
		<stop  offset="0" style="stop-color:#AA8D65"/>
		<stop  offset="0.5" style="stop-color:#F6F2DF"/>
		<stop  offset="1" style="stop-color:#E3C492"/>
	</linearGradient>
	<path class="st15" d="M72,302.8h-3.2c-0.6,0-1.1-0.4-1.1-0.9V301c0-0.5,0.5-0.9,1.1-0.9H72"/>
	
		<linearGradient id="SVGID_8_" gradientUnits="userSpaceOnUse" x1="71.5375" y1="540.83" x2="81.7875" y2="540.83" gradientTransform="matrix(1 0 0 -1 0 841.87)">
		<stop  offset="0" style="stop-color:#AA8D65"/>
		<stop  offset="0.5" style="stop-color:#F6F2DF"/>
		<stop  offset="1" style="stop-color:#E3C492"/>
	</linearGradient>
	<path class="st16" d="M81.8,303.7v-3.2c0-1.1-0.9-2.1-2.1-2.1h-6.1c-1.1,0-2.1,0.9-2.1,2.1v3.2"/>
	<rect x="70.7" y="304.6" class="st17" width="11.5" height="1"/>
	<rect x="70.7" y="303.6" class="st17" width="11.5" height="1"/>
	<line class="st18" x1="70.7" y1="304.6" x2="82.2" y2="304.6"/>
</g>
<g>
	<g>
		<path class="st19" d="M213.4,640.5v5.1l0,0c0.1,2.9-2.6,5.3-6,5.3h-46.2c-3.4,0-6-2.5-6-5.3l0,0v-5.1H213.4z"/>
		<path class="st20" d="M207.4,644.8h-46.2c-3.8,0-6.6-2.5-5.9-5.1l4-14.3c0.6-2,3-3.5,5.9-3.5h38.3c2.8,0,5.3,1.4,5.9,3.5l4,14.3
			C214,642.3,211.2,644.8,207.4,644.8z"/>
		<path class="st19" d="M205.3,622.7h-41.9v17.4l0,0c0,2.4,1.8,4.4,4.3,4.4H201c2.5,0,4.3-2,4.3-4.4l0,0V622.7z"/>
		<path class="st20" d="M201,626.5h-33.3c-2.7,0-4.8-2-4.2-4.2l2.9-11.8c0.4-1.7,2.2-2.8,4.2-2.8h27.6c2.1,0,3.8,1.2,4.2,2.8
			l2.9,11.8C205.8,624.5,203.7,626.5,201,626.5z"/>
		<path class="st21" d="M204.2,600.2h-39.7V620l0,0c0,2.5,1.7,4.6,4.1,4.6h31.5c2.3,0,4.1-2.1,4.1-4.6l0,0L204.2,600.2L204.2,600.2z
			"/>
		<g>
			<line class="st22" x1="168.3" y1="600.2" x2="168.3" y2="624.5"/>
			<line class="st22" x1="171.9" y1="600.2" x2="171.9" y2="624.5"/>
			<line class="st22" x1="175.5" y1="600.2" x2="175.5" y2="624.5"/>
			<line class="st22" x1="179" y1="600.2" x2="179" y2="624.5"/>
			<line class="st22" x1="182.6" y1="600.2" x2="182.6" y2="624.5"/>
			<line class="st22" x1="186.1" y1="600.2" x2="186.1" y2="624.5"/>
			<line class="st22" x1="189.7" y1="600.2" x2="189.7" y2="624.5"/>
			<line class="st22" x1="193.3" y1="600.2" x2="193.3" y2="624.5"/>
			<line class="st22" x1="196.8" y1="600.2" x2="196.8" y2="624.5"/>
			<line class="st22" x1="200.4" y1="600.2" x2="200.4" y2="624.5"/>
		</g>
		<path class="st19" d="M206.3,592.7h-43.9v8.8l0,0c0,2.5,1.9,4.6,4.5,4.6h34.9c2.6,0,4.5-2.1,4.5-4.6l0,0L206.3,592.7L206.3,592.7z
			"/>
		<path class="st20" d="M201.8,597.2h-34.9c-2.8,0-5-2.1-4.4-4.4l3-12.3c0.4-1.7,2.3-3,4.4-3h28.9c2.1,0,4,1.2,4.4,3l3,12.3
			C206.8,595.1,204.6,597.2,201.8,597.2z"/>
		<path class="st23" d="M171.4,565.6v25.1c0,2.9,6.2,5.3,13.8,5.3s13.8-2.4,13.8-5.3v-25.1H171.4z"/>
		<path class="st24" d="M203.9,558.1c-3.5-2.6-10.3-4.3-18.2-4.3s-14.7,1.7-18.2,4.3H165v3.8c0,4.5,9.2,8.2,20.6,8.2
			s20.6-3.7,20.6-8.2v-3.8H203.9z"/>
		<ellipse class="st20" cx="185.7" cy="558.1" rx="20.6" ry="8.2"/>
		<path class="st24" d="M168,553.1v6.9c0,2.5,7.9,4.6,17.7,4.6s17.7-2,17.7-4.6v-6.9H168z"/>
		<path class="st23" d="M165,515v37.3c0,3.3,9.2,6,20.6,6s20.6-2.7,20.6-6V515H165z"/>
		<path class="st25" d="M165,498.4V515c0,3.3,9.2,6,20.6,6s20.6-2.7,20.6-6v-16.6H165z"/>
		<ellipse class="st26" cx="185.7" cy="498.4" rx="20.6" ry="7.6"/>
		<rect x="168.7" y="503.7" width="34" height="17.3"/>
		<rect x="167.9" y="518.4" class="st24" width="1.6" height="36.9"/>
		<rect x="172.2" y="521" class="st24" width="1.7" height="36.4"/>
		<rect x="176.5" y="521" class="st24" width="1.7" height="36.7"/>
		<rect x="180.8" y="521" class="st24" width="1.7" height="37.1"/>
		<rect x="185.2" y="521" class="st24" width="1.7" height="37.3"/>
		<rect x="189.5" y="521" class="st24" width="1.7" height="37.1"/>
		<rect x="193.8" y="521" class="st24" width="1.7" height="36.7"/>
		<rect x="198.2" y="521" class="st24" width="1.7" height="36.4"/>
		<rect x="202.5" y="518.6" class="st24" width="1.7" height="36.4"/>
	</g>
	<ellipse class="st27" cx="185.8" cy="640.5" rx="16.9" ry="15.2"/>
	<ellipse cx="185.9" cy="642.1" rx="16.9" ry="15.2"/>
	<ellipse class="st28" cx="186.1" cy="642.3" rx="16.9" ry="15.2"/>
	<ellipse class="st29" cx="186.9" cy="644.5" rx="16.9" ry="15.2"/>
	<g>
		<circle class="st30" cx="179" cy="638.6" r="3.6"/>
		<circle class="st31" cx="179" cy="638.6" r="2.2"/>
		<circle class="st30" cx="179" cy="638.6" r="0.9"/>
	</g>
	<g>
		<circle class="st30" cx="178.2" cy="650.8" r="3.6"/>
		<circle class="st31" cx="178.2" cy="650.8" r="2.2"/>
		<circle class="st30" cx="178.2" cy="650.8" r="0.9"/>
	</g>
	<g>
		<circle class="st30" cx="195.4" cy="638.6" r="3.6"/>
		<circle class="st31" cx="195.4" cy="638.6" r="2.2"/>
		<circle class="st30" cx="195.4" cy="638.6" r="0.9"/>
	</g>
	<g>
		
			<linearGradient id="SVGID_9_" gradientUnits="userSpaceOnUse" x1="181.2614" y1="192.93" x2="194.9281" y2="192.93" gradientTransform="matrix(1 0 0 -1 0 841.87)">
			<stop  offset="0" style="stop-color:#FFFFFF"/>
			<stop  offset="1" style="stop-color:#000000"/>
		</linearGradient>
		<rect x="181.3" y="640.5" class="st32" width="13.7" height="16.9"/>
		<ellipse class="st33" cx="188.1" cy="640.6" rx="6.8" ry="4.2"/>
		<ellipse class="st33" cx="188.1" cy="623.7" rx="3.7" ry="1.8"/>
		<rect x="184.4" y="623.7" class="st33" width="7.3" height="1.8"/>
		
			<linearGradient id="SVGID_10_" gradientUnits="userSpaceOnUse" x1="184.4281" y1="208.48" x2="191.7614" y2="208.48" gradientTransform="matrix(1 0 0 -1 0 841.87)">
			<stop  offset="0" style="stop-color:#FFFFFF"/>
			<stop  offset="1" style="stop-color:#000000"/>
		</linearGradient>
		<path class="st34" d="M184.4,624.5v16c0,1,1.6,1.8,3.7,1.8c2,0,3.7-0.8,3.7-1.8v-16c0,0-1.1,0.7-3.7,0.7
			C185.7,625.2,184.4,624.5,184.4,624.5z"/>
		<path class="st35" d="M201.4,623.9c0-2.6-2.1-4.6-4.6-4.6c-1.1,0-2.1,0.4-2.8,1c-1.1-2.1-3.3-3.6-5.8-3.6c-2.7,0-5,1.6-6,4
			c-0.8-0.9-2-1.4-3.3-1.4c-2.6,0-4.6,2.1-4.6,4.6c0,1,0.3,1.9,0.8,2.6c-0.4,0.7-0.7,1.5-0.7,2.3c0,2.5,2,4.5,4.5,4.5
			c1.7,0,3.1-0.9,3.9-2.2c1.2,1.8,3.2,2.9,5.5,2.9c2.1,0,3.9-1,5.1-2.5c0.8,1.1,2.1,1.8,3.5,1.8c2.5,0,4.5-2,4.5-4.5
			c0-0.8-0.2-1.6-0.7-2.3C201.1,625.8,201.4,624.9,201.4,623.9z M188.4,629.6c-4.5,0-8.2-1.7-8.2-3.8s3.7-3.8,8.2-3.8
			s8.2,1.7,8.2,3.8C196.6,627.9,192.9,629.6,188.4,629.6z"/>
		<path class="st36" d="M201.4,621.7c0-2.6-2.1-4.6-4.6-4.6c-1.1,0-2.1,0.4-2.8,1c-1.1-2.1-3.3-3.6-5.8-3.6c-2.7,0-5,1.6-6,4
			c-0.8-0.9-2-1.4-3.3-1.4c-2.6,0-4.6,2.1-4.6,4.6c0,1,0.3,1.9,0.8,2.6c-0.4,0.7-0.7,1.5-0.7,2.3c0,2.5,2,4.5,4.5,4.5
			c1.7,0,3.1-0.9,3.9-2.2c1.2,1.8,3.2,2.9,5.5,2.9c2.1,0,3.9-1,5.1-2.5c0.8,1.1,2.1,1.8,3.5,1.8c2.5,0,4.5-2,4.5-4.5
			c0-0.8-0.2-1.6-0.7-2.3C201.1,623.6,201.4,622.7,201.4,621.7z M188.4,627.4c-4.5,0-8.2-1.7-8.2-3.8s3.7-3.8,8.2-3.8
			s8.2,1.7,8.2,3.8C196.6,625.7,192.9,627.4,188.4,627.4z"/>
		<polygon class="st36" points="189.1,625.1 190.8,624.9 193.4,627.4 189.4,628.3 		"/>
		<polygon class="st36" points="184.4,624.5 184.4,623.7 179.6,621.7 179.3,625.2 		"/>
		<polygon class="st36" points="189.4,622 191.3,619.3 194.9,620.5 190.4,622.3 		"/>
	</g>
	<circle class="st37" cx="190.9" cy="666.5" r="19"/>
	<circle class="st38" cx="190.9" cy="669.8" r="19"/>
	<circle class="st39" cx="190.9" cy="670.1" r="19"/>
	<circle class="st40" cx="190.9" cy="671.8" r="19"/>
	<g>
		<circle class="st30" cx="181.2" cy="662.9" r="3.6"/>
		<circle class="st31" cx="181.2" cy="662.9" r="2.2"/>
		<circle class="st30" cx="181.2" cy="662.9" r="0.9"/>
	</g>
	<g>
		<circle class="st30" cx="200.4" cy="662.9" r="3.6"/>
		<circle class="st31" cx="200.4" cy="662.9" r="2.2"/>
		<circle class="st30" cx="200.4" cy="662.9" r="0.9"/>
	</g>
	<g>
		<circle class="st30" cx="181.2" cy="680.6" r="3.6"/>
		<circle class="st31" cx="181.2" cy="680.6" r="2.2"/>
		<circle class="st30" cx="181.2" cy="680.6" r="0.9"/>
	</g>
	<g>
		<circle class="st30" cx="200.4" cy="680.6" r="3.6"/>
		<circle class="st31" cx="200.4" cy="680.6" r="2.2"/>
		<circle class="st30" cx="200.4" cy="680.6" r="0.9"/>
	</g>
	
		<linearGradient id="SVGID_11_" gradientUnits="userSpaceOnUse" x1="180.2611" y1="162.9649" x2="200.3274" y2="158.1175" gradientTransform="matrix(1 0 0 -1 0 841.87)">
		<stop  offset="0.1162" style="stop-color:#0D8DDA"/>
		<stop  offset="1" style="stop-color:#004379"/>
	</linearGradient>
	<path class="st41" d="M198.5,679.3L198.5,679.3c0.1-0.6,0.2-1.3,0.2-1.9c0-4.3-3.5-7.9-7.9-7.9c-3.4,0-6.3,2.2-7.4,5.3l0,0
		l-0.1,0.2c-0.1,0.3-0.2,0.6-0.2,0.9l-4.1,14.9h16.1l3.2-11c0-0.1,0-0.1,0.1-0.2L198.5,679.3z"/>
</g>
<g>
	<g>
		<path class="st19" d="M335.9,640.6v5.1l0,0c0.1,2.9-2.6,5.3-6,5.3h-46.2c-3.4,0-6-2.5-6-5.3l0,0v-5.1H335.9z"/>
		<path class="st20" d="M329.9,644.8h-46.2c-3.8,0-6.6-2.5-5.9-5.1l4-14.3c0.6-2,3-3.5,5.9-3.5H326c2.8,0,5.3,1.4,5.9,3.5l4,14.3
			C336.5,642.3,333.7,644.8,329.9,644.8z"/>
		<path class="st19" d="M327.8,622.8h-41.9v17.4l0,0c0,2.4,1.8,4.4,4.3,4.4h33.3c2.5,0,4.3-2,4.3-4.4l0,0L327.8,622.8L327.8,622.8z"
			/>
		<path class="st20" d="M323.5,626.5h-33.3c-2.7,0-4.8-2-4.2-4.2l2.9-11.8c0.4-1.7,2.2-2.8,4.2-2.8h27.6c2.1,0,3.8,1.2,4.2,2.8
			l2.9,11.8C328.2,624.5,326.2,626.5,323.5,626.5z"/>
		<path class="st21" d="M326.7,600.2H287V620l0,0c0,2.5,1.7,4.6,4.1,4.6h31.5c2.3,0,4.1-2.1,4.1-4.6l0,0V600.2z"/>
		<g>
			<line class="st22" x1="290.8" y1="600.2" x2="290.8" y2="624.5"/>
			<line class="st22" x1="294.4" y1="600.2" x2="294.4" y2="624.5"/>
			<line class="st22" x1="297.9" y1="600.2" x2="297.9" y2="624.5"/>
			<line class="st22" x1="301.5" y1="600.2" x2="301.5" y2="624.5"/>
			<line class="st22" x1="305.1" y1="600.2" x2="305.1" y2="624.5"/>
			<line class="st22" x1="308.6" y1="600.2" x2="308.6" y2="624.5"/>
			<line class="st22" x1="312.2" y1="600.2" x2="312.2" y2="624.5"/>
			<line class="st22" x1="315.7" y1="600.2" x2="315.7" y2="624.5"/>
			<line class="st22" x1="319.3" y1="600.2" x2="319.3" y2="624.5"/>
			<line class="st22" x1="322.9" y1="600.2" x2="322.9" y2="624.5"/>
		</g>
		<path class="st19" d="M328.8,592.8h-43.9v8.8l0,0c0,2.5,1.9,4.6,4.5,4.6h34.9c2.6,0,4.5-2.1,4.5-4.6l0,0V592.8z"/>
		<path class="st20" d="M324.3,597.3h-34.9c-2.8,0-5-2.1-4.4-4.4l3-12.3c0.4-1.7,2.3-3,4.4-3h28.9c2.1,0,4,1.2,4.4,3l3,12.3
			C329.3,595.2,327.1,597.3,324.3,597.3z"/>
		<path class="st23" d="M293.9,565.6v25.1c0,2.9,6.2,5.3,13.8,5.3s13.8-2.4,13.8-5.3v-25.1H293.9z"/>
		<path class="st24" d="M326.3,558.1c-3.5-2.6-10.3-4.3-18.2-4.3s-14.7,1.7-18.2,4.3h-2.4v3.8c0,4.5,9.2,8.2,20.6,8.2
			s20.6-3.7,20.6-8.2v-3.8H326.3z"/>
		<ellipse class="st20" cx="308.2" cy="558.1" rx="20.6" ry="8.2"/>
		<path class="st24" d="M290.5,553.1v6.9c0,2.5,7.9,4.6,17.7,4.6s17.7-2,17.7-4.6v-6.9H290.5z"/>
		<path class="st23" d="M287.5,515v37.3c0,3.3,9.2,6,20.6,6s20.6-2.7,20.6-6V515H287.5z"/>
		<path class="st25" d="M287.5,498.4V515c0,3.3,9.2,6,20.6,6s20.6-2.7,20.6-6v-16.6H287.5z"/>
		<ellipse class="st26" cx="308.1" cy="498.4" rx="20.6" ry="7.6"/>
		<rect x="291.2" y="503.8" width="34" height="17.3"/>
		<rect x="290.3" y="518.4" class="st24" width="1.6" height="36.9"/>
		<rect x="294.6" y="521" class="st24" width="1.7" height="36.4"/>
		<rect x="299" y="521" class="st24" width="1.7" height="36.7"/>
		<rect x="303.3" y="521" class="st24" width="1.7" height="37.1"/>
		<rect x="307.7" y="521" class="st24" width="1.7" height="37.3"/>
		<rect x="312" y="521" class="st24" width="1.7" height="37.1"/>
		<rect x="316.3" y="521" class="st24" width="1.7" height="36.7"/>
		<rect x="320.7" y="521" class="st24" width="1.7" height="36.4"/>
		<rect x="325" y="518.7" class="st24" width="1.7" height="36.4"/>
	</g>
	<ellipse class="st27" cx="308.2" cy="640.6" rx="16.9" ry="15.2"/>
	<ellipse cx="308.4" cy="642.1" rx="16.9" ry="15.2"/>
	<ellipse class="st28" cx="308.6" cy="642.4" rx="16.9" ry="15.2"/>
	<ellipse class="st29" cx="309.4" cy="644.5" rx="16.9" ry="15.2"/>
	<g>
		<circle class="st30" cx="301.5" cy="638.7" r="3.6"/>
		<circle class="st31" cx="301.5" cy="638.7" r="2.2"/>
		<circle class="st30" cx="301.5" cy="638.7" r="0.9"/>
	</g>
	<g>
		<circle class="st30" cx="300.6" cy="650.8" r="3.6"/>
		<circle class="st31" cx="300.6" cy="650.8" r="2.2"/>
		<circle class="st30" cx="300.6" cy="650.8" r="0.9"/>
	</g>
	<g>
		<circle class="st30" cx="317.9" cy="638.7" r="3.6"/>
		<circle class="st31" cx="317.9" cy="638.7" r="2.2"/>
		<circle class="st30" cx="317.9" cy="638.7" r="0.9"/>
	</g>
	<g>
		
			<linearGradient id="SVGID_12_" gradientUnits="userSpaceOnUse" x1="303.7468" y1="192.83" x2="317.4135" y2="192.83" gradientTransform="matrix(1 0 0 -1 0 841.87)">
			<stop  offset="0" style="stop-color:#FFFFFF"/>
			<stop  offset="1" style="stop-color:#000000"/>
		</linearGradient>
		<rect x="303.7" y="640.6" class="st42" width="13.7" height="16.9"/>
		<ellipse class="st33" cx="310.6" cy="640.6" rx="6.8" ry="4.2"/>
		<ellipse class="st33" cx="310.6" cy="623.8" rx="3.7" ry="1.8"/>
		<rect x="306.9" y="623.8" class="st33" width="7.3" height="1.8"/>
		
			<linearGradient id="SVGID_13_" gradientUnits="userSpaceOnUse" x1="306.9135" y1="208.48" x2="314.2468" y2="208.48" gradientTransform="matrix(1 0 0 -1 0 841.87)">
			<stop  offset="0" style="stop-color:#FFFFFF"/>
			<stop  offset="1" style="stop-color:#000000"/>
		</linearGradient>
		<path class="st43" d="M306.9,624.5v16c0,1,1.6,1.8,3.7,1.8c2,0,3.7-0.8,3.7-1.8v-16c0,0-1.1,0.7-3.7,0.7
			C308.2,625.2,306.9,624.5,306.9,624.5z"/>
		<path class="st35" d="M323.9,624c0-2.6-2.1-4.6-4.6-4.6c-1.1,0-2.1,0.4-2.8,1c-1.1-2.1-3.3-3.6-5.8-3.6c-2.7,0-5,1.6-6,4
			c-0.8-0.9-2-1.4-3.3-1.4c-2.6,0-4.6,2.1-4.6,4.6c0,1,0.3,1.9,0.8,2.6c-0.4,0.7-0.7,1.5-0.7,2.3c0,2.5,2,4.5,4.5,4.5
			c1.7,0,3.1-0.9,3.9-2.2c1.2,1.8,3.2,2.9,5.5,2.9c2.1,0,3.9-1,5.1-2.5c0.8,1.1,2.1,1.8,3.5,1.8c2.5,0,4.5-2,4.5-4.5
			c0-0.8-0.2-1.6-0.7-2.3C323.6,625.8,323.9,624.9,323.9,624z M310.9,629.6c-4.5,0-8.2-1.7-8.2-3.8s3.7-3.8,8.2-3.8s8.2,1.7,8.2,3.8
			C319.1,627.9,315.4,629.6,310.9,629.6z"/>
		<path class="st36" d="M323.9,621.8c0-2.6-2.1-4.6-4.6-4.6c-1.1,0-2.1,0.4-2.8,1c-1.1-2.1-3.3-3.6-5.8-3.6c-2.7,0-5,1.6-6,4
			c-0.8-0.9-2-1.4-3.3-1.4c-2.6,0-4.6,2.1-4.6,4.6c0,1,0.3,1.9,0.8,2.6c-0.4,0.7-0.7,1.5-0.7,2.3c0,2.5,2,4.5,4.5,4.5
			c1.7,0,3.1-0.9,3.9-2.2c1.2,1.8,3.2,2.9,5.5,2.9c2.1,0,3.9-1,5.1-2.5c0.8,1.1,2.1,1.8,3.5,1.8c2.5,0,4.5-2,4.5-4.5
			c0-0.8-0.2-1.6-0.7-2.3C323.6,623.7,323.9,622.8,323.9,621.8z M310.9,627.5c-4.5,0-8.2-1.7-8.2-3.8s3.7-3.8,8.2-3.8
			s8.2,1.7,8.2,3.8C319.1,625.7,315.4,627.5,310.9,627.5z"/>
		<polygon class="st36" points="311.6,625.2 313.3,624.9 315.9,627.5 311.9,628.4 		"/>
		<polygon class="st36" points="306.9,624.5 306.9,623.8 302.1,621.8 301.7,625.3 		"/>
		<polygon class="st36" points="311.9,622.1 313.7,619.4 317.4,620.6 312.9,622.4 		"/>
	</g>
	<circle class="st37" cx="313.4" cy="666.5" r="19"/>
	<circle class="st38" cx="313.4" cy="669.8" r="19"/>
	<circle class="st39" cx="313.4" cy="670.1" r="19"/>
	<circle class="st40" cx="313.4" cy="671.8" r="19"/>
	<g>
		<circle class="st30" cx="303.7" cy="662.9" r="3.6"/>
		<circle class="st31" cx="303.7" cy="662.9" r="2.2"/>
		<circle class="st30" cx="303.7" cy="662.9" r="0.9"/>
	</g>
	<g>
		<circle class="st30" cx="322.9" cy="662.9" r="3.6"/>
		<circle class="st31" cx="322.9" cy="662.9" r="2.2"/>
		<circle class="st30" cx="322.9" cy="662.9" r="0.9"/>
	</g>
	<g>
		<circle class="st30" cx="303.7" cy="680.6" r="3.6"/>
		<circle class="st31" cx="303.7" cy="680.6" r="2.2"/>
		<circle class="st30" cx="303.7" cy="680.6" r="0.9"/>
	</g>
	<g>
		<circle class="st30" cx="322.9" cy="680.6" r="3.6"/>
		<circle class="st31" cx="322.9" cy="680.6" r="2.2"/>
		<circle class="st30" cx="322.9" cy="680.6" r="0.9"/>
	</g>
	
		<linearGradient id="SVGID_14_" gradientUnits="userSpaceOnUse" x1="303.1598" y1="163.8531" x2="323.0213" y2="159.0551" gradientTransform="matrix(1 0 0 -1 0 841.87)">
		<stop  offset="0.1162" style="stop-color:#0D8DDA"/>
		<stop  offset="1" style="stop-color:#004379"/>
	</linearGradient>
	<path class="st44" d="M321,679.4L321,679.4c0.1-0.6,0.2-1.3,0.2-1.9c0-4.3-3.5-7.9-7.9-7.9c-3.4,0-6.3,2.2-7.4,5.3l0,0l-0.1,0.2
		c-0.1,0.3-0.2,0.6-0.2,0.9l-3.4,12.9h16.1l2.6-8.9c0-0.1,0-0.1,0.1-0.2L321,679.4z"/>
</g>
<rect x="136.7" y="515" class="st45" width="18.6" height="184.2"/>
<rect x="259" y="515" class="st45" width="18.6" height="184.2"/>
<g>
	
		<linearGradient id="SVGID_15_" gradientUnits="userSpaceOnUse" x1="33.65" y1="147.6567" x2="33.65" y2="169.5567" gradientTransform="matrix(1 0 0 -1 0 841.87)">
		<stop  offset="0" style="stop-color:#775835"/>
		<stop  offset="0.5" style="stop-color:#F4D6AE"/>
		<stop  offset="1" style="stop-color:#785F3E"/>
	</linearGradient>
	<path class="st46" d="M30.8,672.3c-3,0-5.4,4.9-5.4,10.9s2.4,10.9,5.4,10.9h11.1v-21.9L30.8,672.3L30.8,672.3z"/>
	<path class="st47" d="M351,675c3,0,5.4,3.7,5.4,8.2s-2.4,8.2-5.4,8.2h-11.1V675H351z"/>
	
		<linearGradient id="SVGID_16_" gradientUnits="userSpaceOnUse" x1="43.5" y1="146.4105" x2="43.5" y2="170.7855" gradientTransform="matrix(1 0 0 -1 0 841.87)">
		<stop  offset="0" style="stop-color:#775835"/>
		<stop  offset="0.5" style="stop-color:#F4D6AE"/>
		<stop  offset="1" style="stop-color:#785F3E"/>
	</linearGradient>
	<path class="st48" d="M35.6,671.1c-2.8,0-5,5.5-5,12.2s2.3,12.2,5,12.2h20.8v-24.4H35.6z"/>
	<ellipse class="st8" cx="56.4" cy="683.3" rx="5" ry="12.2"/>
	
		<linearGradient id="SVGID_17_" gradientUnits="userSpaceOnUse" x1="62.35" y1="147.6567" x2="62.35" y2="169.5567" gradientTransform="matrix(1 0 0 -1 0 841.87)">
		<stop  offset="0" style="stop-color:#775835"/>
		<stop  offset="0.5" style="stop-color:#F4D6AE"/>
		<stop  offset="1" style="stop-color:#785F3E"/>
	</linearGradient>
	<path class="st49" d="M59.5,672.3c-3,0-5.4,4.9-5.4,10.9s2.4,10.9,5.4,10.9h11.1v-21.9L59.5,672.3L59.5,672.3z"/>
	
		<linearGradient id="SVGID_18_" gradientUnits="userSpaceOnUse" x1="73.55" y1="147.6567" x2="73.55" y2="169.5567" gradientTransform="matrix(1 0 0 -1 0 841.87)">
		<stop  offset="0" style="stop-color:#05080A"/>
		<stop  offset="0.5" style="stop-color:#F9FAF5"/>
		<stop  offset="1" style="stop-color:#101319"/>
	</linearGradient>
	<path class="st50" d="M70.7,672.3c-3,0-5.4,4.9-5.4,10.9s2.4,10.9,5.4,10.9h11.1v-21.9L70.7,672.3L70.7,672.3z"/>
	
		<linearGradient id="SVGID_19_" gradientUnits="userSpaceOnUse" x1="83.55" y1="146.4105" x2="83.55" y2="170.7855" gradientTransform="matrix(1 0 0 -1 0 841.87)">
		<stop  offset="0" style="stop-color:#05080A"/>
		<stop  offset="0.5" style="stop-color:#F9FAF5"/>
		<stop  offset="1" style="stop-color:#101319"/>
	</linearGradient>
	<path class="st51" d="M81.8,671.1c-2.8,0-5,5.5-5,12.2s2.3,12.2,5,12.2h8.5v-24.4H81.8z"/>
	<ellipse class="st52" cx="90.3" cy="683.3" rx="5" ry="12.2"/>
	
		<linearGradient id="SVGID_20_" gradientUnits="userSpaceOnUse" x1="218.45" y1="150.365" x2="218.45" y2="166.8309" gradientTransform="matrix(1 0 0 -1 0 841.87)">
		<stop  offset="0" style="stop-color:#00467C"/>
		<stop  offset="0.5" style="stop-color:#0D8DDA"/>
		<stop  offset="1" style="stop-color:#004379"/>
	</linearGradient>
	<path class="st53" d="M104.2,675h-7h-4.1c-3,0-5.4,3.7-5.4,8.2s2.4,8.2,5.4,8.2h4.1h7h245V675H104.2z"/>
</g>
<g>
	<rect x="30" y="649.9" class="st54" width="27.9" height="19"/>
	<polygon class="st55" points="64.3,659.4 57.9,668.9 57.9,649.9 64.3,640.4 	"/>
	<polygon class="st56" points="64.3,640.4 36.3,640.4 30,649.9 57.9,649.9 	"/>
	<rect x="42.5" y="668.9" class="st57" width="8.9" height="2.2"/>
</g>
<g>
	<rect x="134.3" y="324.4" class="st58" width="144" height="190.7"/>
	<rect x="180" y="348.7" class="st59" width="50.8" height="39.2"/>
	<rect x="185.9" y="356" class="st60" width="39" height="24.7"/>
	<circle class="st61" cx="205.2" cy="411.6" r="8.2"/>
	<circle class="st62" cx="205.2" cy="411.6" r="5"/>
	<path class="st63" d="M257.6,438.9L257.6,438.9c-3.3,0-5.9-2.7-5.9-5.9v-23.9c0-1.7,1.3-3,3-3h5.8c1.6,0,3,1.3,3,3V433
		C263.5,436.2,260.8,438.9,257.6,438.9z"/>
	<path class="st64" d="M258.5,430.9H257c-1.6,0-3-1.4-3-3v-14c0-1.7,1.4-3,3-3h1.5c1.6,0,3,1.3,3,3v14
		C261.5,429.5,260.1,430.9,258.5,430.9z"/>
	<path class="st65" d="M258.5,438.9H257c-1.6,0-3-1.4-3-3v-8.5c0-1.7,1.4-3,3-3h1.5c1.6,0,3,1.3,3,3v8.5
		C261.5,437.5,260.1,438.9,258.5,438.9z"/>
	<circle class="st66" cx="257.7" cy="427.6" r="4"/>
</g>
<path class="st67" d="M405.8,143.2c-3.8-7.4-6-10.4-12.1-10.4l0,0c-6,0-11,5-11,11v43l42.1-2.3C424.8,184.5,410.9,153.3,405.8,143.2
	z M393.9,150.8c-3.4,0-6.1-2.8-6.1-6.1s2.8-6.1,6.1-6.1s6.1,2.8,6.1,6.1S397.3,150.8,393.9,150.8z"/>
<path class="st67" d="M479.2,184.5l42.1,2.3v-43c0-6-4.9-11-11-11l0,0c-6,0-8.3,2.9-12.1,10.4C493.1,153.3,479.2,184.5,479.2,184.5z
	 M504,144.6c0-3.4,2.8-6.1,6.1-6.1c3.4,0,6.1,2.8,6.1,6.1s-2.8,6.1-6.1,6.1C506.7,150.8,504,148,504,144.6z"/>
<path class="st68" d="M452,148.9c-53,0-96,24.9-96,55.6v160.7h192V204.5C548,173.8,505,148.9,452,148.9z"/>
<polygon class="st69" points="354.3,627.5 366.7,631.9 384,548.6 359.3,525.6 "/>
<polygon class="st70" points="500.7,557.8 500.7,633.3 508,626.5 516,548.6 "/>
<polygon class="st71" points="500.7,633.3 485,600.2 485,555 500.7,557.8 "/>
<path class="st72" d="M425.6,610.1c0,0,7.6,13.4,9.2,15.6c2.1,3,6.7,2.8,9.7,0.3c2.9-2.6,2.7-5.9,1-9.6c-1.4-3-9.2-15.6-9.2-15.6
	L425.6,610.1z"/>
<path class="st73" d="M436.3,611.8c0,0-1.9,8-2.2,10.7c-0.4,3.6,3.2,6.6,7.1,6.6s5.9-2.6,7.1-6.6c1-3.2,2.2-10.7,2.2-10.7H436.3z"/>
<polygon class="st74" points="366.7,631.9 377.9,621.9 389,553.1 384,548.6 "/>
<linearGradient id="SVGID_21_" gradientUnits="userSpaceOnUse" x1="392.4" y1="249.98" x2="501.6" y2="249.98" gradientTransform="matrix(1 0 0 -1 0 841.87)">
	<stop  offset="0" style="stop-color:#000000"/>
	<stop  offset="1" style="stop-color:#FFFFFF"/>
</linearGradient>
<path class="st75" d="M500.1,586.9c-5.7-9.6-27.3-16.8-53.1-16.8s-47.4,7.2-53.1,16.8h-1.5v5c0,12,24.4,21.8,54.6,21.8
	s54.6-9.8,54.6-21.8v-5H500.1z"/>
<ellipse class="st72" cx="447" cy="586.9" rx="54.6" ry="21.8"/>
<linearGradient id="SVGID_22_" gradientUnits="userSpaceOnUse" x1="406.2" y1="261.93" x2="489.7" y2="261.93" gradientTransform="matrix(1 0 0 -1 0 841.87)">
	<stop  offset="0" style="stop-color:#011220"/>
	<stop  offset="0.5" style="stop-color:#015EA3"/>
	<stop  offset="1" style="stop-color:#091C33"/>
</linearGradient>
<path class="st76" d="M406.2,560.4v28.3c0,6,18.7,10.8,41.8,10.8c23.1,0,41.8-4.8,41.8-10.8v-28.3H406.2z"/>
<path class="st77" d="M356,360.4v156.5c0,30.7,43,55.6,96,55.6s96-24.9,96-55.6V360.4H356z"/>
<linearGradient id="SVGID_23_" gradientUnits="userSpaceOnUse" x1="355.9" y1="466.98" x2="548" y2="466.98" gradientTransform="matrix(1 0 0 -1 0 841.87)">
	<stop  offset="0" style="stop-color:#00467C"/>
	<stop  offset="0.5" style="stop-color:#0D8DDA"/>
	<stop  offset="1" style="stop-color:#004379"/>
</linearGradient>
<path class="st78" d="M548,516.8c0,0-10.8,22.4-99.3,22.4c-71.5,0-92.8-22.4-92.8-22.4V210.6c0,0,48.2,4,96,4c52.2,0,96-4,96-4
	L548,516.8L548,516.8z"/>
<g>
	
		<linearGradient id="SVGID_24_" gradientUnits="userSpaceOnUse" x1="409.9" y1="728.43" x2="494.2" y2="728.43" gradientTransform="matrix(1 0 0 -1 0 841.87)">
		<stop  offset="0" style="stop-color:#00467C"/>
		<stop  offset="0.5" style="stop-color:#0D8DDA"/>
		<stop  offset="1" style="stop-color:#004379"/>
	</linearGradient>
	<rect x="409.9" y="109.8" class="st79" width="84.3" height="7.3"/>
	
		<linearGradient id="SVGID_25_" gradientUnits="userSpaceOnUse" x1="428.1" y1="706.93" x2="473.1" y2="706.93" gradientTransform="matrix(1 0 0 -1 0 841.87)">
		<stop  offset="0" style="stop-color:#00467C"/>
		<stop  offset="0.5" style="stop-color:#0D8DDA"/>
		<stop  offset="1" style="stop-color:#004379"/>
	</linearGradient>
	<path class="st80" d="M473.1,150.8c0,0-5,2.1-22.5,2.1c-17.2,0-22.5-2.1-22.5-2.1V117h45V150.8z"/>
</g>
<polygon class="st81" points="493,558.6 464.7,561.9 451,700.8 479,700.8 "/>
<polygon class="st82" points="451,700.8 445.7,691.5 452,572.4 464.7,561.9 "/>
</svg>
