<?xml version="1.0" encoding="utf-8"?>
<!-- Generator: Adobe Illustrator 19.0.0, SVG Export Plug-In . SVG Version: 6.00 Build 0)  -->
<svg version="1.1" id="图层_1" xmlns="http://www.w3.org/2000/svg" xmlns:xlink="http://www.w3.org/1999/xlink" x="0px" y="0px"
	 viewBox="0 0 220 220" style="enable-background:new 0 0 220 220;" xml:space="preserve">
<style type="text/css">
	.st0{fill:#B5B5B5;}
	.st1{fill:#C9C9C9;}
	.st2{fill:url(#XMLID_2_);}
	.st3{fill:none;}
	.st4{fill:url(#XMLID_3_);}
	.st5{fill:#BE0000;}
</style>
<g id="XMLID_149_">
	<path id="XMLID_223_" class="st0" d="M48.3,17.3h104.4c7.9,0,15.1,3.1,20.5,8.1l0,0l0.1,0.1c1.1,1,2.1,2.1,3,3.3L192,45.9l3.1,3.3
		c4.2,5.1,6.7,11.7,6.7,18.8v104.3c0,9.6-4.6,18.2-11.7,23.7l-18.8-20.8c-5.1,4-11.5,6.4-18.5,6.4H48.5c-16.5,0-30-13.5-30-30V47.3
		C18.3,30.8,31.8,17.3,48.3,17.3z"/>
	<path id="XMLID_222_" class="st1" d="M30,23.6l18.8,20.9v137.2V196L28,173.8l-3.1-3.3c-4.2-5.1-6.7-11.7-6.7-18.8V47.3
		C18.3,37.7,22.9,29.1,30,23.6z"/>
	
		<radialGradient id="XMLID_2_" cx="4682.4502" cy="120.0648" r="82.1751" gradientTransform="matrix(-1 0 0 1 4802 0)" gradientUnits="userSpaceOnUse">
		<stop  offset="0" style="stop-color:#666666"/>
		<stop  offset="1" style="stop-color:#D9D9D9"/>
	</radialGradient>
	<path id="XMLID_221_" class="st2" d="M67.3,202.3h104.4c16.5,0,30-13.5,30-30V67.9c0-16.5-13.5-30-30-30l-104.3,0
		c-16.5,0-30,13.5-30,30v104.3C37.3,188.8,50.8,202.3,67.3,202.3z"/>
	<g id="XMLID_158_">
		<g id="XMLID_159_">
			<path id="XMLID_220_" class="st3" d="M46.2,116c4.6-0.6,7.9-1.4,18.5,8.6c0,0-4.4-11-15.7-11.1c-2.8,0-6.1,0.3-9.6,0.8v-10.4
				c4-0.3,7.3-0.4,8.7-0.4c4.5,0.1,7.9-0.1,16.7,11.6c0,0-2.5-11.6-13.5-13.7c-3.3-0.6-7.6-0.8-11.9-0.9V89.7
				c5.6,0.6,10.9,1.1,12.7,1.5c4.4,1,7.8,1.4,14.4,14.4c0,0-0.4-11.9-10.9-15.8c-4.3-1.6-10.5-2.8-16.2-3.7V74.5
				c7.2,2,16.3,4.5,18.6,5.5c4.3,1.7,7.6,2.7,11.8,16.6c0,0,1.7-11.8-8-17.5c-5.8-3.4-15.5-6.7-22.4-8.8v-0.4
				c0-4.2,0.9-8.1,2.4-11.8c5.6,2.6,21.1,10,24.1,11.8c4,2.4,7,4,8.7,18.5c0,0,3.7-11.3-4.9-18.6c-7-5.9-21-12.8-26.1-15.2
				c2.3-3.9,5.5-7.2,9.2-9.7c3.9,2.7,19.8,14,22.6,16.5c3.4,3,6.1,5.1,5.3,19.6c0,0,5.6-10.5-1.6-19.1c-5.7-6.8-17.6-15.7-22.5-19.2
				c3.9-1.8,8.1-2.8,12.7-2.8h3c5.3,5.4,12.4,12.6,14,14.7c2.8,3.6,5.1,6.1,1.8,20.3c0,0,7.3-9.3,1.8-19.1
				c-2.7-4.9-7.8-11-12.3-15.9h14c3,4.4,5.7,8.5,6.6,10c2.1,4,4,6.8-1.8,20.3c0,0,8.8-7.9,5.1-18.5c-1.2-3.5-3.4-7.7-5.7-11.8h11.8
				c1.5,3.3,2.6,6,3,7.2c1.6,4.5,2.9,7.6-5.1,19.8c0,0,10.1-6.3,8.2-17.4c-0.5-2.8-1.4-6.2-2.6-9.6H122c0.8,3.2,1.4,5.7,1.6,6.9
				c0.6,4.6,1.4,7.9-8.6,18.5c0,0,11-4.4,11.1-15.7c0-2.8-0.3-6.2-0.8-9.7h10.5c0.3,4,0.5,7.4,0.4,8.8c-0.1,4.5,0.1,7.9-11.6,16.7
				c0,0,11.6-2.5,13.7-13.5c0.6-3.3,0.9-7.6,0.9-12h10.7c-0.6,5.7-1.1,11-1.5,12.8c-1,4.4-1.4,7.8-14.4,14.4c0,0,11.9-0.4,15.8-10.9
				c1.6-4.4,2.9-10.5,3.8-16.3h11.5c-2,7.2-4.6,16.4-5.5,18.7c-1.6,4.3-2.6,7.6-16.6,11.8c0,0,11.8,1.7,17.5-8
				c3.4-5.8,6.7-15.6,8.8-22.5h0.4c4.2,0,8.3,0.9,11.9,2.5c-2.6,5.5-10,21.2-11.8,24.2c-2.5,3.9-4,6.9-18.5,8.6
				c0,0,11.3,3.7,18.6-4.9c6-7,12.9-21.2,15.3-26.1c3.8,2.3,7.1,5.5,9.5,9.2c-2.7,3.8-14,19.9-16.5,22.7c-3,3.4-5,6.1-19.6,5.3
				c0,0,10.5,5.6,19.1-1.6c6.8-5.7,15.7-17.7,19.2-22.5c1.8,3.8,2.8,8.1,2.8,12.6V73c-5.4,5.3-12.6,12.4-14.7,14
				c-3.6,2.8-6.1,5.1-20.3,1.8c0,0,9.3,7.3,19.1,1.8c4.9-2.7,11-7.8,15.9-12.3v14.1c-4.4,3-8.4,5.7-9.9,6.5c-4.1,2.1-6.9,4-20.3-1.8
				c0,0,7.9,8.8,18.5,5.1c3.5-1.2,7.6-3.3,11.7-5.7v11.7c-3.3,1.5-6,2.6-7.2,3c-4.5,1.6-7.6,2.9-19.8-5.1c0,0,6.3,10.1,17.4,8.2
				c2.8-0.5,6.2-1.4,9.6-2.6v10.9c-3.2,0.8-5.7,1.4-6.9,1.6c-4.5,0.6-7.8,1.4-18.5-8.6c0,0,4.4,11,15.7,11.1c2.8,0,6.2-0.3,9.7-0.8
				v10.5c-4,0.3-7.3,0.4-8.7,0.4c-4.6-0.1-8,0.1-16.7-11.6c0,0,2.5,11.6,13.5,13.7c3.3,0.6,7.6,0.9,11.9,0.9v10.6
				c-5.6-0.6-10.9-1.1-12.7-1.5c-4.5-1-7.8-1.4-14.4-14.4c0,0,0.4,11.9,10.9,15.8c4.3,1.6,10.5,2.8,16.2,3.7v11.6
				c-7.2-2-16.4-4.6-18.7-5.5c-4.3-1.6-7.5-2.6-11.8-16.6c0,0-1.7,11.8,8,17.5c5.8,3.4,15.6,6.7,22.5,8.8v0.4
				c0,4.2-0.9,8.2-2.5,11.9c-5.6-2.6-21.2-10-24.1-11.8c-3.9-2.5-7-4-8.7-18.5c0,0-3.7,11.3,4.9,18.6c7,5.9,21.1,12.9,26.1,15.3
				c-2.3,3.8-5.5,7.1-9.2,9.6c-3.8-2.7-19.9-14-22.7-16.5c-3.4-3-6.1-5-5.3-19.6c0,0-5.6,10.5,1.6,19.1c5.7,6.8,17.7,15.7,22.5,19.2
				c-3.8,1.8-8.1,2.8-12.6,2.8h-3.1c-5.3-5.4-12.4-12.6-14-14.7c-2.8-3.6-5.1-6.1-1.8-20.3c0,0-7.3,9.3-1.8,19.1
				c2.7,4.9,7.8,11,12.3,15.9h-14.1c-3-4.4-5.7-8.4-6.5-9.9c-2.1-4.1-3.9-6.9,1.8-20.3c0,0-8.8,7.9-5.1,18.5
				c1.2,3.5,3.3,7.6,5.7,11.7h-11.7c-1.5-3.3-2.6-6-3-7.2c-1.6-4.5-2.9-7.6,5.1-19.8c0,0-10.1,6.3-8.2,17.4c0.5,2.8,1.4,6.2,2.6,9.6
				H117c-0.8-3.2-1.4-5.7-1.6-6.9c-0.6-4.5-1.4-7.8,8.6-18.5c0,0-11,4.4-11.1,15.7c0,2.8,0.3,6.2,0.8,9.7h-10.5
				c-0.3-4-0.4-7.3-0.4-8.7c0.1-4.6-0.1-8,11.6-16.7c0,0-11.6,2.5-13.7,13.5c-0.6,3.3-0.9,7.6-0.9,11.9H89.1
				c0.6-5.6,1.1-10.9,1.5-12.7c1-4.5,1.4-7.8,14.4-14.4c0,0-11.9,0.4-15.8,10.9c-1.6,4.3-2.8,10.5-3.7,16.2H73.9
				c2-7.2,4.6-16.4,5.5-18.7c1.7-4.3,2.7-7.5,16.6-11.8c0,0-11.8-1.7-17.5,8c-3.4,5.8-6.7,15.6-8.8,22.5h-0.4
				c-4.2,0-8.2-0.9-11.8-2.4c2.6-5.5,10-21.2,11.8-24.2c2.4-3.9,4-7,18.5-8.7c0,0-11.3-3.7-18.6,4.9c-6,7-12.9,21.2-15.3,26.1
				c-3.9-2.3-7.2-5.5-9.6-9.3c2.7-3.9,14-19.8,16.5-22.7c3-3.4,5.1-6.1,19.6-5.3c0,0-10.5-5.6-19.1,1.6
				c-6.7,5.6-15.6,17.6-19.2,22.4c-1.8-3.8-2.8-8.1-2.7-12.6V167c5.4-5.3,12.5-12.3,14.6-13.9c3.6-2.8,6.1-5.1,20.3-1.8
				c0,0-9.3-7.3-19.1-1.8c-4.8,2.7-10.9,7.8-15.8,12.2v-14c4.4-3,8.4-5.7,9.9-6.5c4-2.1,6.8-3.9,20.3,1.8c0,0-7.9-8.8-18.5-5.1
				c-3.5,1.2-7.6,3.3-11.7,5.7V132c3.2-1.4,5.9-2.6,7.1-3c4.5-1.6,7.6-2.9,19.8,5.1c0,0-6.3-10.1-17.4-8.2c-2.8,0.5-6.1,1.4-9.5,2.5
				v-10.9C42.5,116.8,45.1,116.2,46.2,116z"/>
			<path id="XMLID_219_" d="M124.6,65.4c11.7-8.8,11.5-12.2,11.6-16.7c0.1-1.4-0.1-4.8-0.4-8.8h3.4c0,4.4-0.3,8.7-0.9,12
				C136.2,62.9,124.6,65.4,124.6,65.4z"/>
			<path id="XMLID_218_" d="M134,67.1c13-6.6,13.4-10,14.4-14.4c0.3-1.8,0.9-7.1,1.5-12.8h3.7c-0.9,5.8-2.1,11.9-3.8,16.3
				C145.9,66.7,134,67.1,134,67.1z"/>
			<path id="XMLID_217_" d="M143,70.4c14-4.2,15-7.5,16.6-11.8c0.9-2.3,3.5-11.5,5.5-18.7h4.2c-2.1,6.9-5.4,16.7-8.8,22.5
				C154.8,72.1,143,70.4,143,70.4z"/>
			<path id="XMLID_216_" d="M151.3,75.2c14.5-1.7,16-4.7,18.5-8.6c1.8-3,9.2-18.7,11.8-24.2c1.2,0.5,2.4,1.2,3.6,1.8
				c-2.3,4.9-9.3,19-15.3,26.1C162.6,78.9,151.3,75.2,151.3,75.2z"/>
			<path id="XMLID_215_" d="M177.7,79.8c-8.6,7.2-19.1,1.6-19.1,1.6c14.6,0.8,16.6-1.9,19.6-5.3c2.6-2.8,13.9-18.9,16.5-22.7
				c0.8,1.2,1.5,2.5,2.2,3.9C193.4,62.1,184.5,74.1,177.7,79.8z"/>
			<path id="XMLID_214_" d="M164.7,88.8c14.2,3.3,16.7,1,20.3-1.8c2.1-1.6,9.3-8.7,14.7-14v5.3c-4.9,4.5-11,9.6-15.9,12.3
				C174,96.1,164.7,88.8,164.7,88.8z"/>
			<path id="XMLID_213_" d="M169.5,97.1c13.4,5.8,16.2,3.9,20.3,1.8c1.5-0.8,5.5-3.5,9.9-6.5v4.1c-4.1,2.3-8.2,4.5-11.7,5.7
				C177.4,105.9,169.5,97.1,169.5,97.1z"/>
			<path id="XMLID_212_" d="M172.7,106.1c12.2,8,15.3,6.7,19.8,5.1c1.2-0.4,3.9-1.5,7.2-3v3.5c-3.4,1.1-6.8,2.1-9.6,2.6
				C179,116.2,172.7,106.1,172.7,106.1z"/>
			<path id="XMLID_211_" d="M174.3,115.6c10.7,10,14,9.2,18.5,8.6c1.2-0.2,3.7-0.8,6.9-1.6v3.2c-3.5,0.5-6.9,0.9-9.7,0.8
				C178.7,126.6,174.3,115.6,174.3,115.6z"/>
			<path id="XMLID_210_" d="M174.3,125.2c8.7,11.7,12.1,11.5,16.7,11.6c1.4,0.1,4.7-0.1,8.7-0.4v3.4c-4.3,0-8.6-0.3-11.9-0.9
				C176.8,136.8,174.3,125.2,174.3,125.2z"/>
			<path id="XMLID_209_" d="M172.6,134.6c6.6,13,9.9,13.4,14.4,14.4c1.8,0.3,7.1,0.9,12.7,1.5v3.7c-5.7-0.9-11.9-2.1-16.2-3.7
				C173,146.5,172.6,134.6,172.6,134.6z"/>
			<path id="XMLID_208_" d="M169.2,143.6c4.3,14,7.5,15,11.8,16.6c2.3,0.9,11.5,3.5,18.7,5.5v4.2c-6.9-2.1-16.7-5.4-22.5-8.8
				C167.5,155.4,169.2,143.6,169.2,143.6z"/>
			<path id="XMLID_190_" d="M164.4,151.9c1.7,14.5,4.8,16,8.7,18.5c2.9,1.8,18.6,9.2,24.1,11.8c-0.5,1.2-1.2,2.4-1.8,3.6
				c-5-2.4-19.1-9.3-26.1-15.3C160.7,163.2,164.4,151.9,164.4,151.9z"/>
			<path id="XMLID_189_" d="M159.8,178.3c-7.2-8.6-1.6-19.1-1.6-19.1c-0.8,14.6,1.9,16.6,5.3,19.6c2.8,2.6,18.9,13.9,22.7,16.5
				c-1.2,0.8-2.5,1.5-3.9,2.2C177.5,194,165.5,185.1,159.8,178.3z"/>
			<path id="XMLID_188_" d="M150.8,165.3c-3.3,14.2-1,16.7,1.8,20.3c1.6,2.1,8.7,9.3,14,14.7h-5.3c-4.5-4.9-9.6-11-12.3-15.9
				C143.5,174.6,150.8,165.3,150.8,165.3z"/>
			<path id="XMLID_187_" d="M142.5,170.1c-5.7,13.4-3.9,16.2-1.8,20.3c0.8,1.5,3.5,5.5,6.5,9.9h-4.1c-2.3-4.1-4.5-8.2-5.7-11.7
				C133.7,178,142.5,170.1,142.5,170.1z"/>
			<path id="XMLID_186_" d="M133.5,173.3c-8,12.2-6.7,15.3-5.1,19.8c0.4,1.2,1.5,3.9,3,7.2h-3.5c-1.1-3.4-2.1-6.8-2.6-9.6
				C123.4,179.6,133.5,173.3,133.5,173.3z"/>
			<path id="XMLID_185_" d="M124,174.9c-10,10.7-9.2,14-8.6,18.5c0.2,1.2,0.8,3.7,1.6,6.9h-3.2c-0.5-3.5-0.9-6.9-0.8-9.7
				C113,179.3,124,174.9,124,174.9z"/>
			<path id="XMLID_184_" d="M114.5,174.9c-11.7,8.7-11.5,12.1-11.6,16.7c-0.1,1.4,0.1,4.7,0.4,8.7h-3.4c0-4.3,0.3-8.6,0.9-11.9
				C102.9,177.4,114.5,174.9,114.5,174.9z"/>
			<path id="XMLID_183_" d="M105,173.2c-13,6.6-13.4,9.9-14.4,14.4c-0.3,1.8-0.9,7.1-1.5,12.7h-3.7c0.9-5.7,2.1-11.9,3.7-16.2
				C93.1,173.6,105,173.2,105,173.2z"/>
			<path id="XMLID_182_" d="M96,169.8c-13.9,4.3-14.9,7.5-16.6,11.8c-0.9,2.3-3.5,11.5-5.5,18.7h-4.2c2.1-6.9,5.4-16.7,8.8-22.5
				C84.2,168.1,96,169.8,96,169.8z"/>
			<path id="XMLID_181_" d="M87.8,165c-14.5,1.7-16.1,4.8-18.5,8.7c-1.8,3-9.2,18.6-11.8,24.2c-1.2-0.5-2.4-1.1-3.6-1.8
				c2.4-5,9.3-19.1,15.3-26.1C76.5,161.3,87.8,165,87.8,165z"/>
			<path id="XMLID_180_" d="M61.3,160.4c8.6-7.2,19.1-1.6,19.1-1.6c-14.5-0.8-16.6,1.9-19.6,5.3c-2.5,2.8-13.8,18.8-16.5,22.7
				c-0.8-1.2-1.5-2.5-2.2-3.9C45.7,178,54.6,166,61.3,160.4z"/>
			<path id="XMLID_179_" d="M74.3,151.4c-14.2-3.3-16.7-1-20.3,1.8c-2.1,1.6-9.2,8.6-14.6,13.9v-5.3c4.9-4.4,11-9.5,15.8-12.2
				C65,144.1,74.3,151.4,74.3,151.4z"/>
			<path id="XMLID_178_" d="M69.6,143.1c-13.5-5.7-16.3-3.9-20.3-1.8c-1.5,0.8-5.5,3.5-9.9,6.5v-4.1c4.1-2.3,8.2-4.5,11.7-5.7
				C61.7,134.3,69.6,143.1,69.6,143.1z"/>
			<path id="XMLID_177_" d="M66.3,134.1c-12.2-8-15.3-6.7-19.8-5.1c-1.2,0.4-3.9,1.5-7.1,3v-3.5c3.4-1.1,6.7-2.1,9.5-2.5
				C60,124,66.3,134.1,66.3,134.1z"/>
			<path id="XMLID_176_" d="M64.7,124.6c-10.6-10-13.9-9.2-18.5-8.6c-1.1,0.2-3.7,0.8-6.8,1.5v-3.2c3.5-0.5,6.8-0.8,9.6-0.8
				C60.3,113.6,64.7,124.6,64.7,124.6z"/>
			<path id="XMLID_175_" d="M64.8,115.1c-8.8-11.7-12.2-11.5-16.7-11.6c-1.4-0.1-4.7,0.1-8.7,0.4v-3.4c4.3,0,8.6,0.3,11.9,0.9
				C62.3,103.5,64.8,115.1,64.8,115.1z"/>
			<path id="XMLID_169_" d="M66.5,105.6c-6.6-13-10-13.4-14.4-14.4c-1.8-0.3-7.1-0.9-12.7-1.5V86c5.7,0.9,11.9,2.1,16.2,3.7
				C66.1,93.7,66.5,105.6,66.5,105.6z"/>
			<path id="XMLID_168_" d="M69.8,96.6C65.6,82.7,62.3,81.7,58,80c-2.3-0.9-11.4-3.5-18.6-5.5v-4.2c6.9,2.1,16.6,5.3,22.4,8.8
				C71.5,84.8,69.8,96.6,69.8,96.6z"/>
			<path id="XMLID_166_" d="M74.6,88.4c-1.7-14.5-4.7-16.1-8.7-18.5c-2.9-1.8-18.5-9.1-24.1-11.8c0.5-1.2,1.1-2.4,1.8-3.6
				c5,2.4,19.1,9.3,26.1,15.2C78.3,77.1,74.6,88.4,74.6,88.4z"/>
			<path id="XMLID_165_" d="M79.2,61.9c7.2,8.6,1.6,19.1,1.6,19.1c0.8-14.5-1.9-16.6-5.3-19.6c-2.8-2.5-18.7-13.8-22.6-16.5
				c1.2-0.8,2.5-1.5,3.9-2.2C61.6,46.2,73.5,55.1,79.2,61.9z"/>
			<path id="XMLID_163_" d="M88.2,74.9c3.3-14.2,1-16.7-1.8-20.3c-1.6-2.1-8.7-9.3-14-14.7h5.3c4.5,4.9,9.6,11,12.3,15.9
				C95.5,65.6,88.2,74.9,88.2,74.9z"/>
			<path id="XMLID_162_" d="M96.5,70.2c5.8-13.5,3.9-16.3,1.8-20.3c-0.8-1.5-3.6-5.6-6.6-10h4.1c2.4,4.1,4.5,8.3,5.7,11.8
				C105.3,62.3,96.5,70.2,96.5,70.2z"/>
			<path id="XMLID_161_" d="M105.5,66.9c8-12.2,6.7-15.3,5.1-19.8c-0.4-1.2-1.5-3.9-3-7.2l3.5,0c1.1,3.4,2.1,6.8,2.6,9.6
				C115.6,60.6,105.5,66.9,105.5,66.9z"/>
			<path id="XMLID_160_" d="M115,65.3c10-10.6,9.2-13.9,8.6-18.5c-0.2-1.2-0.8-3.7-1.6-6.9h3.2c0.5,3.5,0.9,6.9,0.8,9.7
				C126,60.9,115,65.3,115,65.3z"/>
		</g>
	</g>
	
		<linearGradient id="XMLID_3_" gradientUnits="userSpaceOnUse" x1="4682.5" y1="179.5648" x2="4682.5" y2="60.5648" gradientTransform="matrix(-1 0 0 1 4802 0)">
		<stop  offset="0" style="stop-color:#666666"/>
		<stop  offset="1" style="stop-color:#CCCCCC"/>
	</linearGradient>
	<circle id="XMLID_157_" class="st4" cx="119.5" cy="120.1" r="59.5"/>
	<circle id="XMLID_156_" class="st1" cx="119.5" cy="120.1" r="52.8"/>
	<circle id="XMLID_155_" class="st5" cx="181.3" cy="61.4" r="8.5"/>
	<rect id="XMLID_152_" x="92.5" y="115.7" width="3.3" height="8.8"/>
	<rect id="XMLID_151_" x="117.9" y="98.4" width="4.2" height="43.3"/>
</g>
</svg>
