<?xml version="1.0" encoding="utf-8"?>
<!-- Generator: Adobe Illustrator 19.0.0, SVG Export Plug-In . SVG Version: 6.00 Build 0)  -->
<svg version="1.1" id="图层_1" xmlns="http://www.w3.org/2000/svg" xmlns:xlink="http://www.w3.org/1999/xlink" x="0px" y="0px"
	 viewBox="-58 57.5 102.4 106.5" style="enable-background:new -58 57.5 102.4 106.5;" xml:space="preserve">
<style type="text/css">
	.st0{fill:#98CB98;stroke:#000000;stroke-width:0.25;}
	.st1{fill:#64B264;}
	.st2{fill:#CAE4CA;stroke:#000000;stroke-width:0.25;}
	.st3{fill:#329932;}
	.st4{fill:#98CB98;}
	.st5{fill:#88C488;}
	.st6{fill:#74BA74;}
	.st7{fill:none;stroke:#000000;stroke-width:0.25;}
	.st8{fill:#007F00;}
	.st9{fill:none;stroke:#7F7F7F;stroke-width:0.25;}
	.st10{fill:#006600;}
	.st11{fill:none;stroke:#BFCCD9;stroke-width:0.25;}
	.st12{fill:#4CA64C;}
	.st13{fill:none;stroke:#FFFFFF;stroke-width:0.25;}
</style>
<path class="st0" d="M41.5,160.9V64.4H-47v96.5H41.5z"/>
<path class="st1" d="M-55,157V60.5l8,3.9v96.5L-55,157z"/>
<path class="st2" d="M33.4,60.5H-55l8,3.9h88.5L33.4,60.5z"/>
<path class="st3" d="M31.3,93.6H-37v2h68.3C31.3,95.6,31.3,93.6,31.3,93.6z"/>
<path class="st3" d="M31.3,124.8H-37v2h68.3C31.3,126.8,31.3,124.8,31.3,124.8z"/>
<path class="st3" d="M31.3,155.5H-37v2h68.3C31.3,157.5,31.3,155.5,31.3,155.5z"/>
<path class="st3" d="M27.4,157.9H-33v2h60.3C27.3,159.9,27.3,157.9,27.4,157.9z"/>
<path class="st4" d="M27.4,157.9V83.5H-33v74.4H27.4z"/>
<path class="st5" d="M27.4,157.9v-28.1L-33,109.7V158L27.4,157.9L27.4,157.9z"/>
<path class="st6" d="M27.4,157.9v-20L-33,117.8V158h60.3V157.9z"/>
<path class="st1" d="M27.4,157.9v-16.1L-33,121.7v36.2H27.4z"/>
<path class="st7" d="M27.4,157.9V83.5H-33v74.4H27.4"/>
<path class="st7" d="M-2.8,83.5v74.4"/>
<path class="st3" d="M27.4,124.8l-13.1-0.5v-2l13.1,0.5V124.8z"/>
<path class="st3" d="M-33,93.6l13.1-0.5v-2L-33,91.6V93.6z"/>
<path class="st3" d="M27.4,93.6l-13.1-0.5v-2l13.1,0.5V93.6z"/>
<path class="st3" d="M-33,124.8l13.1-0.5v-2l-13.1,0.5V124.8z"/>
<path class="st8" d="M-33,155.5l13.1-0.5v-2l-13.1,0.5V155.5z"/>
<path class="st8" d="M27.4,155.5L14.3,155v-2l13.1,0.5V155.5z"/>
<path class="st0" d="M-37,155.4h4.1v-1.9l13.1-0.5v-3l-13.1-0.5v-2H-37V155.4z"/>
<path class="st0" d="M-37,124.8h4.1v-2l13.1-0.5v-3l-13.1-0.5v-2H-37V124.8z"/>
<path class="st0" d="M-37,93.6h4.1v-2l13.1-0.5v-3L-33,87.6v-2H-37V93.6z"/>
<path class="st0" d="M31.3,93.6h-3.9v-2l-13.1-0.5v-3l13.1-0.5v-2h3.9V93.6z"/>
<path class="st0" d="M31.3,124.8h-3.9v-2l-13.1-0.5v-3l13.1-0.5v-2h3.9V124.8z"/>
<path class="st0" d="M31.3,155.4h-3.9v-1.9L14.3,153v-3l13.1-0.5v-2h3.9V155.4z"/>
<path class="st9" d="M-21.9,121.2v-1.1l-13.1-0.4v-2"/>
<path class="st9" d="M-21.9,151.8v-1l-13.1-0.5v-2"/>
<path class="st9" d="M16.3,151.8v-1l13-0.5v-2"/>
<path class="st9" d="M16.3,121.2v-1.1l13-0.4v-2"/>
<path class="st9" d="M-21.9,90.1V89L-35,88.6v-2"/>
<path class="st9" d="M16.3,90.1V89l13-0.4v-2"/>
<path class="st10" d="M-4.3,126.8v-10h-2v10H-4.3z"/>
<path class="st10" d="M0.7,126.8v-10h-2v10H0.7z"/>
<path class="st11" d="M-4.3,126.8v-10h-2"/>
<path class="st11" d="M0.7,126.8v-10h-2"/>
<path class="st9" d="M27.4,82.6V64.4"/>
<path class="st9" d="M-2.8,82.6V64.4"/>
<path class="st9" d="M-33,82.6V64.4"/>
<path class="st12" d="M-55,157v-52.3l8,18.1V161L-55,157z"/>
<path class="st7" d="M-55,157V60.5l8,3.9v96.5L-55,157"/>
<path class="st13" d="M-19.8,152.9v-3l-13.1-0.5v-2H-37"/>
<path class="st13" d="M-19.8,122.2v-3l-13.1-0.4v-2H-37"/>
<path class="st13" d="M-19.8,91.1v-3L-33,87.6v-2H-37"/>
<path class="st13" d="M31.3,93.6v-8.1h-3.9"/>
<path class="st13" d="M31.3,124.8v-8h-3.9"/>
<path class="st13" d="M31.3,155.5v-8.1h-3.9"/>
</svg>
