<?xml version="1.0" encoding="utf-8"?>
<!-- Generator: Adobe Illustrator 19.0.0, SVG Export Plug-In . SVG Version: 6.00 Build 0)  -->
<svg version="1.1" id="图层_1" xmlns="http://www.w3.org/2000/svg" xmlns:xlink="http://www.w3.org/1999/xlink" x="0px" y="0px"
	 viewBox="336 -248.2 891 716.2" style="enable-background:new 336 -248.2 891 716.2;" xml:space="preserve">
<style type="text/css">
	.st0{fill:#004300;}
	.st1{fill:#005200;}
	.st2{fill:#006200;}
	.st3{fill:#007100;}
	.st4{fill:#028102;}
	.st5{fill:#208F20;}
	.st6{fill:none;stroke:#000000;stroke-width:1.4861;stroke-linejoin:round;}
	.st7{fill:#007700;}
	.st8{fill:#0C860C;}
	.st9{fill:#2C952C;}
	.st10{fill:#4AA44A;}
	.st11{fill:#67B367;}
	.st12{fill:#85C285;}
	.st13{fill:#002900;}
	.st14{fill:#208F20;stroke:#000000;stroke-width:1.4861;stroke-linejoin:round;}
	.st15{fill:#005C00;stroke:#000000;stroke-width:1.4861;stroke-linejoin:round;}
	.st16{fill:#77BB77;}
	.st17{fill:#63B163;}
	.st18{fill:#53A953;}
	.st19{fill:#85C285;stroke:#000000;stroke-width:1.4861;stroke-linejoin:round;}
	.st20{fill:#329932;}
	.st21{fill:#007F00;}
	.st22{fill:none;stroke:#7F7F66;stroke-width:1.4861;stroke-linejoin:round;}
	.st23{fill:none;stroke:#FFFFFF;stroke-width:1.4861;stroke-linejoin:round;}
	.st24{fill:#004C00;}
	.st25{fill:#003300;}
	.st26{fill:#CAE4CA;}
	.st27{fill:none;stroke:#FF0000;stroke-width:1.4861;stroke-linejoin:round;}
	.st28{fill:#007000;}
</style>
<path class="st0" d="M1146.8,165.8H418v154.6h728.2V165.8H1146.8z"/>
<path class="st1" d="M1144.9,178.8H418v129h727V178.8z"/>
<path class="st2" d="M1144.9,192.5H418v101.6h727V192.5z"/>
<path class="st3" d="M1144.9,207.4H418v73.1h727V207.4z"/>
<path class="st4" d="M1144.9,219.9H418v45.8h727V219.9z"/>
<path class="st5" d="M1146.8,233.5H418v19.6h728.2v-19.6H1146.8z"/>
<path class="st6" d="M1146.8,165.8H418v154.6h728.2V165.8"/>
<path class="st7" d="M1152.7,72.4H410.3v156.3h742.5L1152.7,72.4L1152.7,72.4z"/>
<path class="st8" d="M1152.7,87.9H410.3v126h742.5L1152.7,87.9L1152.7,87.9z"/>
<path class="st9" d="M1152.7,101H410.3v99.3h742.5L1152.7,101L1152.7,101z"/>
<path class="st10" d="M1152.7,113.4H703.3V80.1h-45.8v33.3h-85V80.1H526v33.3H410.3v74.3h742.5L1152.7,113.4L1152.7,113.4z"/>
<path class="st11" d="M1152.7,127.1H410.3v47.6h742.5L1152.7,127.1L1152.7,127.1z"/>
<path class="st12" d="M1152.7,141.4H410.3v18.4h742.5L1152.7,141.4L1152.7,141.4z"/>
<path class="st6" d="M1152.7,72.4H410.3v156.3h742.5L1152.7,72.4"/>
<path class="st13" d="M1137.8,66.5H449.4V73h688.4V66.5z"/>
<path class="st14" d="M560.7-147.5H432.8V-31h127.8L560.7-147.5L560.7-147.5z"/>
<path class="st14" d="M890.5-38.7H782.3v82h108.2C890.5,43.3,890.5-38.7,890.5-38.7z"/>
<path class="st15" d="M859.7-158.2l-4.8-23.8l-13.7-21.4l-21.4-12.5l-22.6-4.8H483.3l-22.6,4.8l-21.4,12.5L426.8-182l-5.3,23.8
	l19.6,76.7h34.5v-45.8l-3-47.6h341.3L812,72.4h47.6C859.7,72.4,859.7-158.2,859.7-158.2z"/>
<path class="st7" d="M847.8-152.3l-4.8-21.4L831-195.1L812-207l-23.8-4.7h-293l-21.4,4.8L454.3-195l-13.7,21.4l-4.8,21.4l19.6,72.5
	l16.6-2.4l-16.6-85l16.6-22.6h341.3l14.3,22.6V66.5h19.6v-218.8H847.8z"/>
<path class="st12" d="M781.8-127.3H448.9V81.3h332.9V-127.3z"/>
<path class="st12" d="M1144.9-189.1H889.3V66.5h255.6V-189.1z"/>
<path class="st16" d="M781.8,81.3v-92.1L448.9-97V81.3H781.8z"/>
<path class="st16" d="M1144.9,66.5V-50l-255.6-61.2V67.1h255.6V66.5z"/>
<path class="st17" d="M781.8,81.3V20.1l-332.9-85V81.9h332.9V81.3z"/>
<path class="st17" d="M1144.9,66.5v-86.2L889.3-80.9V66.5H1144.9z"/>
<path class="st18" d="M1144.9,66.5V-3.6L889.3-64.8V66.6L1144.9,66.5L1144.9,66.5z"/>
<path class="st18" d="M781.8,81.3V35L448.9-49.4V81.4L781.8,81.3L781.8,81.3z"/>
<path class="st19" d="M441.1,66.5h-14.3v302h14.3V66.5z"/>
<path class="st19" d="M1137.8,66.5h-16v302h16V66.5z"/>
<path class="st6" d="M703.8,134.8V81.3H658v53.5"/>
<path class="st6" d="M572.5,134.8V81.3H526v53.5"/>
<path class="st20" d="M1079.6,101h-54.7v19h54.7V101z"/>
<path class="st21" d="M649.8,97.4h-69.5v11.9h69.5V97.4z"/>
<path class="st22" d="M1019-182V69.4"/>
<path class="st23" d="M1137.8,58.8V-182H898.3"/>
<path class="st23" d="M774.5,73.6v-193.8H457.1"/>
<path class="st6" d="M781.8-127.3H448.9V81.3h332.9V-127.3"/>
<path class="st6" d="M1144.9-189.1H889.3V66.5h255.6V-189.1"/>
<path class="st24" d="M661-89.8H569V35H661C661,35,661-89.8,661-89.8z"/>
<path class="st20" d="M515.5-116h-58.8v45.8h58.8V-116z"/>
<path class="st20" d="M765.7,1.1h-42.8v6.5h42.8C765.7,7.6,765.7,1.1,765.7,1.1z"/>
<path class="st25" d="M765.7,43.3H568.3v29.1h197.4C765.7,72.4,765.7,43.3,765.7,43.3z"/>
<path class="st26" d="M654.5-82.1h-77.3V26.7h77.3V-82.1z"/>
<path class="st26" d="M765.7,7h-42.8v27.3h42.8C765.7,34.3,765.7,7,765.7,7z"/>
<path class="st26" d="M649.8,108.7h-69.5v34.5h69.5V108.7z"/>
<path class="st26" d="M967.8,101H925v19h42.8V101z"/>
<path class="st26" d="M859.7,89.1h-45.8v39.2h45.8C859.7,128.3,859.7,89.1,859.7,89.1z"/>
<path class="st27" d="M654.5-4.8h-77.3"/>
<path class="st28" d="M859.7,108.7L837,89.1l-22.6,19.6l22.6,18.4L859.7,108.7z"/>
</svg>
