<?xml version="1.0" encoding="utf-8"?>
<!-- Generator: Adobe Illustrator 19.0.0, SVG Export Plug-In . SVG Version: 6.00 Build 0)  -->
<svg version="1.1" id="图层_1" xmlns="http://www.w3.org/2000/svg" xmlns:xlink="http://www.w3.org/1999/xlink" x="0px" y="0px"
	 viewBox="0 -5 220 231" style="enable-background:new 0 -5 220 231;" xml:space="preserve">
<style type="text/css">
	.st0{fill:url(#XMLID_2_);}
	.st1{fill:url(#XMLID_3_);}
	.st2{fill:url(#XMLID_4_);}
	.st3{fill:url(#XMLID_5_);}
	.st4{fill:url(#XMLID_6_);}
	.st5{fill:#E1E1E1;}
	.st6{fill:#B8B8B8;}
	.st7{fill:#D8D8D8;}
	.st8{fill:url(#XMLID_7_);}
	.st9{fill:url(#XMLID_8_);}
	.st10{fill:url(#XMLID_9_);}
	.st11{fill:#E6E6E6;}
	.st12{fill:url(#XMLID_10_);}
	.st13{fill:none;stroke:#FFFFFF;stroke-miterlimit:10;}
	.st14{fill:#FFFFFF;}
</style>
<g id="XMLID_515_">
	<g id="XMLID_578_">
		
			<linearGradient id="XMLID_2_" gradientUnits="userSpaceOnUse" x1="143.1156" y1="29.6351" x2="159.3656" y2="29.6351" gradientTransform="matrix(1 0 0 -1 -26 222)">
			<stop  offset="0" style="stop-color:#CCCCCC"/>
			<stop  offset="8.624054e-003" style="stop-color:#CECECE"/>
			<stop  offset="0.1605" style="stop-color:#E9E9E9"/>
			<stop  offset="0.2952" style="stop-color:#F9F9F9"/>
			<stop  offset="0.398" style="stop-color:#FFFFFF"/>
			<stop  offset="0.5279" style="stop-color:#FCFCFC"/>
			<stop  offset="0.6404" style="stop-color:#F1F1F1"/>
			<stop  offset="0.7464" style="stop-color:#DFDFDF"/>
			<stop  offset="0.8484" style="stop-color:#C6C6C6"/>
			<stop  offset="0.9466" style="stop-color:#A6A6A6"/>
			<stop  offset="1" style="stop-color:#919191"/>
		</linearGradient>
		<rect id="XMLID_580_" x="117.2" y="181.7" class="st0" width="16.3" height="21.3"/>
		
			<linearGradient id="XMLID_3_" gradientUnits="userSpaceOnUse" x1="143.1156" y1="15.9851" x2="159.3656" y2="15.9851" gradientTransform="matrix(1 0 0 -1 -26 222)">
			<stop  offset="0" style="stop-color:#050505"/>
			<stop  offset="5.726961e-002" style="stop-color:#3C3C3C"/>
			<stop  offset="0.1252" style="stop-color:#777777"/>
			<stop  offset="0.191" style="stop-color:#A8A8A8"/>
			<stop  offset="0.2527" style="stop-color:#CDCDCD"/>
			<stop  offset="0.3096" style="stop-color:#E9E9E9"/>
			<stop  offset="0.3597" style="stop-color:#F9F9F9"/>
			<stop  offset="0.398" style="stop-color:#FFFFFF"/>
			<stop  offset="0.4875" style="stop-color:#FCFCFC"/>
			<stop  offset="0.5649" style="stop-color:#F1F1F1"/>
			<stop  offset="0.6379" style="stop-color:#DFDFDF"/>
			<stop  offset="0.7083" style="stop-color:#C6C6C6"/>
			<stop  offset="0.7767" style="stop-color:#A6A6A6"/>
			<stop  offset="0.8436" style="stop-color:#7E7E7E"/>
			<stop  offset="0.9094" style="stop-color:#4F4F4F"/>
			<stop  offset="0.9726" style="stop-color:#191919"/>
			<stop  offset="1" style="stop-color:#000000"/>
		</linearGradient>
		<rect id="XMLID_579_" x="117.2" y="203" class="st1" width="16.3" height="6"/>
	</g>
	<g id="XMLID_575_">
		
			<linearGradient id="XMLID_4_" gradientUnits="userSpaceOnUse" x1="168.6156" y1="36.1351" x2="184.8656" y2="36.1351" gradientTransform="matrix(1 0 0 -1 -26 222)">
			<stop  offset="0" style="stop-color:#CCCCCC"/>
			<stop  offset="8.624054e-003" style="stop-color:#CECECE"/>
			<stop  offset="0.1605" style="stop-color:#E9E9E9"/>
			<stop  offset="0.2952" style="stop-color:#F9F9F9"/>
			<stop  offset="0.398" style="stop-color:#FFFFFF"/>
			<stop  offset="0.5279" style="stop-color:#FCFCFC"/>
			<stop  offset="0.6404" style="stop-color:#F1F1F1"/>
			<stop  offset="0.7464" style="stop-color:#DFDFDF"/>
			<stop  offset="0.8484" style="stop-color:#C6C6C6"/>
			<stop  offset="0.9466" style="stop-color:#A6A6A6"/>
			<stop  offset="1" style="stop-color:#919191"/>
		</linearGradient>
		<rect id="XMLID_577_" x="142.7" y="175.2" class="st2" width="16.3" height="21.3"/>
		
			<linearGradient id="XMLID_5_" gradientUnits="userSpaceOnUse" x1="168.6156" y1="22.5851" x2="184.8656" y2="22.5851" gradientTransform="matrix(1 0 0 -1 -26 222)">
			<stop  offset="0" style="stop-color:#050505"/>
			<stop  offset="5.726961e-002" style="stop-color:#3C3C3C"/>
			<stop  offset="0.1252" style="stop-color:#777777"/>
			<stop  offset="0.191" style="stop-color:#A8A8A8"/>
			<stop  offset="0.2527" style="stop-color:#CDCDCD"/>
			<stop  offset="0.3096" style="stop-color:#E9E9E9"/>
			<stop  offset="0.3597" style="stop-color:#F9F9F9"/>
			<stop  offset="0.398" style="stop-color:#FFFFFF"/>
			<stop  offset="0.4875" style="stop-color:#FCFCFC"/>
			<stop  offset="0.5649" style="stop-color:#F1F1F1"/>
			<stop  offset="0.6379" style="stop-color:#DFDFDF"/>
			<stop  offset="0.7083" style="stop-color:#C6C6C6"/>
			<stop  offset="0.7767" style="stop-color:#A6A6A6"/>
			<stop  offset="0.8436" style="stop-color:#7E7E7E"/>
			<stop  offset="0.9094" style="stop-color:#4F4F4F"/>
			<stop  offset="0.9726" style="stop-color:#191919"/>
			<stop  offset="1" style="stop-color:#000000"/>
		</linearGradient>
		<rect id="XMLID_576_" x="142.7" y="196.4" class="st3" width="16.3" height="6"/>
	</g>
	
		<linearGradient id="XMLID_6_" gradientUnits="userSpaceOnUse" x1="4613.1489" y1="196.2851" x2="4758.8989" y2="196.2851" gradientTransform="matrix(-1 0 0 -1 4802 222)">
		<stop  offset="0" style="stop-color:#CFCFCF"/>
		<stop  offset="1" style="stop-color:#7D7D7D"/>
	</linearGradient>
	<path id="XMLID_574_" class="st4" d="M53.8,28.6l-7.3-4c1.5-1.2,3.5-1.9,5.5-1.9h129.6c2.2,0,4.1,0.8,5.7,2.1l-2.9,3.9L53.8,28.6
		L53.8,28.6z"/>
	<path id="XMLID_573_" class="st5" d="M36.1,12.1h134c2.2,0,4.3,0.8,5.8,2.2l0,0l11.6,10.5l3,117.6h-11.4v41.7c0,5-4,9-9,9h-134
		c-5,0-9-4-9-9v-163C27.1,16.1,31.1,12.1,36.1,12.1z"/>
	<path id="XMLID_572_" class="st6" d="M46.6,148.2l132.5-0.1l11.4-5.6l-11.9,44.7c-1.3,3.4-4.6,5.9-8.4,5.9h-134
		c-3.2,0-6-1.7-7.6-4.3L46.6,148.2z"/>
	<path id="XMLID_571_" class="st7" d="M46.6,24.5v123.6l-18.1,40.6c-0.9-1.4-1.4-3-1.4-4.7V21.1c0-2.2,0.8-4.2,2.1-5.7L46.6,24.5z"
		/>
	
		<linearGradient id="XMLID_7_" gradientUnits="userSpaceOnUse" x1="4611.3989" y1="135.6351" x2="4758.8989" y2="135.6351" gradientTransform="matrix(-1 0 0 -1 4802 222)">
		<stop  offset="0" style="stop-color:#C1C1C1"/>
		<stop  offset="1" style="stop-color:#DEDEDE"/>
	</linearGradient>
	<path id="XMLID_570_" class="st8" d="M52.1,150.1h129.5c5,0,9-4.1,9-9V31.6c0-5-4-9-9-9H52.1c-4.9,0-9,4-9,9v109.5
		C43.1,146,47.2,150.1,52.1,150.1z"/>
	
		<linearGradient id="XMLID_8_" gradientUnits="userSpaceOnUse" x1="4614.6992" y1="195.9536" x2="4755.499" y2="195.9536" gradientTransform="matrix(-1 0 0 -1 4802 222)">
		<stop  offset="0" style="stop-color:#C9C9C9"/>
		<stop  offset="1" style="stop-color:#B8B8B8"/>
	</linearGradient>
	<path id="XMLID_569_" class="st9" d="M55.2,29.4l-8.7-4.8c1.5-1.2,3.5-1.9,5.5-1.9h129.6c2.2,0,4.1,0.8,5.7,2.1l-2.9,3.9L55.2,29.4
		z"/>
	
		<linearGradient id="XMLID_9_" gradientUnits="userSpaceOnUse" x1="4614.6992" y1="172.0149" x2="4755.499" y2="172.0149" gradientTransform="matrix(-1 0 0 1 4802 -25)">
		<stop  offset="0" style="stop-color:#BCBCBC"/>
		<stop  offset="1" style="stop-color:#CFCFCF"/>
	</linearGradient>
	<path id="XMLID_568_" class="st10" d="M54.9,144.1l-8.4,4C48,149.3,50,150,52,150h129.6c2.2,0,4.1-0.8,5.7-2.1l-2.9-3.9L54.9,144.1
		z"/>
	<path id="XMLID_567_" class="st11" d="M60.1,147.1h122c3.3,0,6-2.7,6-6V32.8c0-3.3-2.7-6-6-6h-122c-3.3,0-6,2.7-6,6v108.3
		C54.1,144.4,56.8,147.1,60.1,147.1z"/>
	
		<linearGradient id="XMLID_10_" gradientUnits="userSpaceOnUse" x1="4636.8989" y1="134.8851" x2="4724.1992" y2="134.8851" gradientTransform="matrix(-1 0 0 -1 4802 222)">
		<stop  offset="0" style="stop-color:#DEDEDE"/>
		<stop  offset="1" style="stop-color:#000000"/>
	</linearGradient>
	<path id="XMLID_566_" class="st12" d="M80.8,139.1h81.3c1.7,0,3-1.4,3-3v-98c0-1.7-1.3-3-3-3H80.8c-1.6,0-3,1.3-3,3v98
		C77.8,137.7,79.2,139.1,80.8,139.1z"/>
	<path id="XMLID_565_" d="M80.8,136.4h78c1.7,0,3-1.4,3-3V38.1c0-1.7-1.3-3-3-3h-78c-1.6,0-3,1.3-3,3v95.3
		C77.8,135,79.2,136.4,80.8,136.4z"/>
	<g id="XMLID_519_">
		<polyline id="XMLID_551_" class="st13" points="93.4,67.9 93.4,106.4 146.4,106.4 		"/>
		<line id="XMLID_549_" class="st13" x1="93.4" y1="106.4" x2="119.9" y2="73.4"/>
		<line id="XMLID_545_" class="st13" x1="142.1" y1="75.9" x2="93.4" y2="106.4"/>
		<rect id="XMLID_534_" x="115.5" y="67.1" class="st14" width="4.4" height="4.4"/>
		<rect id="XMLID_523_" x="142.1" y="65.1" class="st14" width="2.8" height="2.8"/>
	</g>
</g>
</svg>
