<?xml version="1.0" encoding="utf-8"?>
<!-- Generator: Adobe Illustrator 19.0.0, SVG Export Plug-In . SVG Version: 6.00 Build 0)  -->
<svg version="1.1" id="图层_1" xmlns="http://www.w3.org/2000/svg" xmlns:xlink="http://www.w3.org/1999/xlink" x="0px" y="0px"
	 viewBox="33 59.1 285.5 102.9" style="enable-background:new 33 59.1 285.5 102.9;" xml:space="preserve">
<style type="text/css">
	.st0{fill:#24446A;}
	.st1{fill:#2572B6;}
	.st2{fill:url(#SVGID_1_);}
	.st3{fill:#24446A;stroke:#000000;stroke-width:0.5644;}
	.st4{fill:#30659B;stroke:#000000;stroke-width:0.5644;}
	.st5{fill:url(#SVGID_2_);}
	.st6{fill:url(#SVGID_3_);}
	.st7{fill:url(#SVGID_4_);}
	.st8{fill:url(#SVGID_5_);}
	.st9{fill:url(#SVGID_6_);}
	.st10{fill:url(#SVGID_7_);}
</style>
<g>
	<path class="st0" d="M210.1,151.5c-1-1-4.7-1.8-9.1-1.8s-8.3,0.8-9.1,1.8h-0.3v0.5c0,1.3,4.2,2.6,9.4,2.6s9.4-1,9.4-2.6v-0.5H210.1
		z"/>
	<ellipse class="st1" cx="201" cy="151.5" rx="9.4" ry="2.6"/>
	
		<linearGradient id="SVGID_1_" gradientUnits="userSpaceOnUse" x1="195.9613" y1="-473.4" x2="204.9235" y2="-473.4" gradientTransform="matrix(1 0 0 1 0 622.65)">
		<stop  offset="0" style="stop-color:#24446A"/>
		<stop  offset="0.5" style="stop-color:#80CCFD"/>
		<stop  offset="1" style="stop-color:#24446A"/>
	</linearGradient>
	<path class="st2" d="M204.9,151.5c0,0-1,1.8-4.4,1.8s-4.4-1.8-4.4-1.8v-6.2h9.1v6.2H204.9z"/>
	<g>
		<path class="st3" d="M106.4,145.3c-0.3,0-49.9,0-49.9,0c-8.1,0-14.3-13.2-14.3-29.3c0-16.1,6.5-29.3,14.3-29.3c0,0,49.6,0,49.9,0
			V145.3z"/>
		<path class="st4" d="M78.9,145.3h215.6l0,0c0.3,0,0.5,0,0.5,0c8.1,0,14.3-13.2,14.3-29.3c0-16.1-6.5-29.3-14.3-29.3
			c-0.3,0-0.5,0-0.5,0l0,0H78.9V145.3z"/>
		
			<linearGradient id="SVGID_2_" gradientUnits="userSpaceOnUse" x1="175.8" y1="-477.2319" x2="175.8" y2="-535.9319" gradientTransform="matrix(1 0 0 1 0 622.65)">
			<stop  offset="0" style="stop-color:#24446A"/>
			<stop  offset="0.5" style="stop-color:#80CCFD"/>
			<stop  offset="1" style="stop-color:#24446A"/>
		</linearGradient>
		<rect x="56.6" y="86.6" class="st5" width="238.4" height="58.7"/>
	</g>
	<g>
		<rect x="69.3" y="66.6" class="st1" width="43.4" height="2.6"/>
		
			<linearGradient id="SVGID_3_" gradientUnits="userSpaceOnUse" x1="74.1587" y1="-542.35" x2="107.9233" y2="-542.35" gradientTransform="matrix(1 0 0 1 0 622.65)">
			<stop  offset="0" style="stop-color:#24446A"/>
			<stop  offset="0.5" style="stop-color:#80CCFD"/>
			<stop  offset="1" style="stop-color:#24446A"/>
		</linearGradient>
		<path class="st6" d="M108,86.6c0,0-3.9,4.9-16.9,4.9c-12.7,0-16.9-4.9-16.9-4.9V69.2H108V86.6L108,86.6z"/>
	</g>
	<g>
		<rect x="246.2" y="66.6" class="st1" width="36.4" height="2.6"/>
		
			<linearGradient id="SVGID_4_" gradientUnits="userSpaceOnUse" x1="250.0756" y1="-542.35" x2="278.2756" y2="-542.35" gradientTransform="matrix(1 0 0 1 0 622.65)">
			<stop  offset="0" style="stop-color:#24446A"/>
			<stop  offset="0.5" style="stop-color:#80CCFD"/>
			<stop  offset="1" style="stop-color:#24446A"/>
		</linearGradient>
		<path class="st7" d="M278.4,86.6c0,0-3.1,4.9-14,4.9c-10.6,0-14-4.9-14-4.9V69.2h28.2v17.4H278.4z"/>
	</g>
	<g>
		<rect x="132.4" y="66.6" class="st1" width="33" height="2.6"/>
		
			<linearGradient id="SVGID_5_" gradientUnits="userSpaceOnUse" x1="135.9786" y1="-542.35" x2="161.543" y2="-542.35" gradientTransform="matrix(1 0 0 1 0 622.65)">
			<stop  offset="0" style="stop-color:#24446A"/>
			<stop  offset="0.5" style="stop-color:#80CCFD"/>
			<stop  offset="1" style="stop-color:#24446A"/>
		</linearGradient>
		<path class="st8" d="M161.5,86.6c0,0-2.9,4.9-12.7,4.9c-9.6,0-12.7-4.9-12.7-4.9V69.2h25.5L161.5,86.6L161.5,86.6z"/>
	</g>
	
		<linearGradient id="SVGID_6_" gradientUnits="userSpaceOnUse" x1="135.9786" y1="-539.45" x2="161.543" y2="-539.45" gradientTransform="matrix(1 0 0 1 0 622.65)">
		<stop  offset="0" style="stop-color:#24446A"/>
		<stop  offset="0.5" style="stop-color:#80CCFD"/>
		<stop  offset="1" style="stop-color:#24446A"/>
	</linearGradient>
	<path class="st9" d="M161.5,89.5c0,0-2.9,4.9-12.7,4.9c-9.6,0-12.7-4.9-12.7-4.9V72.1h25.5L161.5,89.5L161.5,89.5z"/>
	<g>
		<rect x="190.1" y="66.6" class="st1" width="33" height="2.6"/>
		
			<linearGradient id="SVGID_7_" gradientUnits="userSpaceOnUse" x1="193.7" y1="-542.35" x2="219.2644" y2="-542.35" gradientTransform="matrix(1 0 0 1 0 622.65)">
			<stop  offset="0" style="stop-color:#24446A"/>
			<stop  offset="0.5" style="stop-color:#80CCFD"/>
			<stop  offset="1" style="stop-color:#24446A"/>
		</linearGradient>
		<path class="st10" d="M219.1,86.6c0,0-2.9,4.9-12.7,4.9c-9.6,0-12.7-4.9-12.7-4.9V69.2h25.5L219.1,86.6L219.1,86.6z"/>
	</g>
	<ellipse class="st0" cx="194.2" cy="150.2" rx="0.5" ry="0.3"/>
	<ellipse class="st0" cx="193.2" cy="151.5" rx="0.5" ry="0.3"/>
	<ellipse class="st0" cx="195.2" cy="152.6" rx="0.5" ry="0.3"/>
	<ellipse class="st0" cx="206.2" cy="150.2" rx="0.5" ry="0.3"/>
	<ellipse class="st0" cx="208.5" cy="151" rx="0.5" ry="0.3"/>
	<ellipse class="st0" cx="207.2" cy="152.6" rx="0.5" ry="0.3"/>
</g>
</svg>
