<?xml version="1.0" encoding="utf-8"?>
<!-- Generator: Adobe Illustrator 19.0.0, SVG Export Plug-In . SVG Version: 6.00 Build 0)  -->
<svg version="1.1" id="Layer_1" xmlns:agg="http://www.example.com"
	 xmlns="http://www.w3.org/2000/svg" xmlns:xlink="http://www.w3.org/1999/xlink" x="0px" y="0px" viewBox="-197 371.9 201 99"
	 style="enable-background:new -197 371.9 201 99;" xml:space="preserve">
<style type="text/css">
	.st0{fill:url(#SVGID_1_);stroke:#000000;stroke-width:0.25;stroke-miterlimit:10;}
	.st1{fill:url(#SVGID_2_);stroke:#000000;stroke-width:0.25;stroke-miterlimit:10;}
	.st2{fill:url(#SVGID_3_);stroke:#000000;stroke-width:0.25;stroke-miterlimit:10;}
	.st3{fill:url(#SVGID_4_);stroke:#000000;stroke-width:0.25;stroke-miterlimit:10;}
	.st4{fill:url(#SVGID_5_);}
	.st5{fill:url(#SVGID_6_);}
	.st6{fill:url(#SVGID_7_);stroke:#000000;stroke-width:0.25;stroke-miterlimit:10;}
	.st7{fill:url(#SVGID_8_);stroke:#000000;stroke-width:0.25;stroke-miterlimit:10;}
	.st8{fill:url(#SVGID_9_);stroke:#000000;stroke-width:0.25;stroke-miterlimit:10;}
	.st9{fill:none;stroke:#000000;stroke-width:0.25;stroke-linejoin:round;}
	.st10{fill:url(#SVGID_10_);stroke:#000000;stroke-width:0.25;stroke-miterlimit:10;}
	.st11{opacity:0.5;}
	.st12{fill:url(#SVGID_11_);stroke:#000000;stroke-width:0.25;stroke-miterlimit:10;}
	.st13{fill:url(#SVGID_12_);stroke:#000000;stroke-width:0.25;stroke-miterlimit:10;}
	.st14{fill:url(#SVGID_13_);stroke:#000000;stroke-width:0.25;stroke-miterlimit:10;}
	.st15{fill:url(#SVGID_14_);stroke:#000000;stroke-width:0.25;stroke-miterlimit:10;}
	.st16{fill:url(#SVGID_15_);stroke:#000000;stroke-width:0.25;stroke-miterlimit:10;}
	.st17{fill:url(#SVGID_16_);stroke:#000000;stroke-width:0.25;stroke-miterlimit:10;}
	.st18{fill:url(#SVGID_17_);stroke:#000000;stroke-width:0.25;stroke-miterlimit:10;}
</style>
<linearGradient id="SVGID_1_" gradientUnits="userSpaceOnUse" x1="-128.05" y1="450.29" x2="-128.05" y2="421.69">
	<stop  offset="5.100000e-003" style="stop-color:#4D5C75"/>
	<stop  offset="5.000000e-002" style="stop-color:#697188"/>
	<stop  offset="0.1127" style="stop-color:#8C90A3"/>
	<stop  offset="0.1759" style="stop-color:#ADB0BD"/>
	<stop  offset="0.2385" style="stop-color:#C9CBD4"/>
	<stop  offset="0.3004" style="stop-color:#E0E2E7"/>
	<stop  offset="0.3613" style="stop-color:#F0F3F5"/>
	<stop  offset="0.42" style="stop-color:#F6FAFC"/>
	<stop  offset="0.4738" style="stop-color:#F1F3F4"/>
	<stop  offset="0.5296" style="stop-color:#E3E4E5"/>
	<stop  offset="0.5863" style="stop-color:#CECDCF"/>
	<stop  offset="0.6436" style="stop-color:#B3B1B4"/>
	<stop  offset="0.7008" style="stop-color:#959296"/>
	<stop  offset="0.72" style="stop-color:#8A888B"/>
	<stop  offset="1" style="stop-color:#F6FAFC"/>
</linearGradient>
<rect x="-132.9" y="421.7" class="st0" width="9.7" height="28.6"/>
<linearGradient id="SVGID_2_" gradientUnits="userSpaceOnUse" x1="-404.3027" y1="585.64" x2="-404.3027" y2="534.2338" gradientTransform="matrix(1.4834 0 0 -1.4873 570.2926 1255.0125)">
	<stop  offset="5.100000e-003" style="stop-color:#4D5C75"/>
	<stop  offset="5.000000e-002" style="stop-color:#697188"/>
	<stop  offset="0.1127" style="stop-color:#8C90A3"/>
	<stop  offset="0.1759" style="stop-color:#ADB0BD"/>
	<stop  offset="0.2385" style="stop-color:#C9CBD4"/>
	<stop  offset="0.3004" style="stop-color:#E0E2E7"/>
	<stop  offset="0.3613" style="stop-color:#F0F3F5"/>
	<stop  offset="0.42" style="stop-color:#F6FAFC"/>
	<stop  offset="0.4738" style="stop-color:#F1F3F4"/>
	<stop  offset="0.5296" style="stop-color:#E3E4E5"/>
	<stop  offset="0.5863" style="stop-color:#CECDCF"/>
	<stop  offset="0.6436" style="stop-color:#B3B1B4"/>
	<stop  offset="0.7008" style="stop-color:#959296"/>
	<stop  offset="0.72" style="stop-color:#8A888B"/>
	<stop  offset="1" style="stop-color:#F6FAFC"/>
</linearGradient>
<polyline class="st1" points="-14.2,460.6 -14.2,457.6 -14.2,396.7 -14.2,384 -18.2,384 -25.8,384 -33.1,384 -38.1,384 -44.7,384 
	-44.7,417.4 -44.7,453.3 -44.7,460.6 "/>
<linearGradient id="SVGID_3_" gradientUnits="userSpaceOnUse" x1="-439.0202" y1="563.1564" x2="-439.0202" y2="538.9045" gradientTransform="matrix(1.4834 0 0 -1.4873 570.2926 1255.0125)">
	<stop  offset="5.100000e-003" style="stop-color:#4D5C75"/>
	<stop  offset="5.000000e-002" style="stop-color:#697188"/>
	<stop  offset="0.1127" style="stop-color:#8C90A3"/>
	<stop  offset="0.1759" style="stop-color:#ADB0BD"/>
	<stop  offset="0.2385" style="stop-color:#C9CBD4"/>
	<stop  offset="0.3004" style="stop-color:#E0E2E7"/>
	<stop  offset="0.3613" style="stop-color:#F0F3F5"/>
	<stop  offset="0.42" style="stop-color:#F6FAFC"/>
	<stop  offset="0.4738" style="stop-color:#F1F3F4"/>
	<stop  offset="0.5296" style="stop-color:#E3E4E5"/>
	<stop  offset="0.5863" style="stop-color:#CECDCF"/>
	<stop  offset="0.6436" style="stop-color:#B3B1B4"/>
	<stop  offset="0.7008" style="stop-color:#959296"/>
	<stop  offset="0.72" style="stop-color:#8A888B"/>
	<stop  offset="1" style="stop-color:#F6FAFC"/>
</linearGradient>
<polygon class="st2" points="-44.7,417.4 -44.7,453.3 -117.2,445.4 -117.2,426.5 "/>
<linearGradient id="SVGID_4_" gradientUnits="userSpaceOnUse" x1="-391.1572" y1="577.1469" x2="-391.1572" y2="535.7686" gradientTransform="matrix(1.4834 0 0 -1.4873 570.2926 1255.0125)">
	<stop  offset="5.100000e-003" style="stop-color:#4D5C75"/>
	<stop  offset="5.000000e-002" style="stop-color:#697188"/>
	<stop  offset="0.1127" style="stop-color:#8C90A3"/>
	<stop  offset="0.1759" style="stop-color:#ADB0BD"/>
	<stop  offset="0.2385" style="stop-color:#C9CBD4"/>
	<stop  offset="0.3004" style="stop-color:#E0E2E7"/>
	<stop  offset="0.3613" style="stop-color:#F0F3F5"/>
	<stop  offset="0.42" style="stop-color:#F6FAFC"/>
	<stop  offset="0.4738" style="stop-color:#F1F3F4"/>
	<stop  offset="0.5296" style="stop-color:#E3E4E5"/>
	<stop  offset="0.5863" style="stop-color:#CECDCF"/>
	<stop  offset="0.6436" style="stop-color:#B3B1B4"/>
	<stop  offset="0.7008" style="stop-color:#959296"/>
	<stop  offset="0.72" style="stop-color:#8A888B"/>
	<stop  offset="1" style="stop-color:#F6FAFC"/>
</linearGradient>
<polygon class="st3" points="-5.7,418 -5.7,428.4 -14.2,457.6 -14.2,396.7 "/>
<linearGradient id="SVGID_5_" gradientUnits="userSpaceOnUse" x1="-383.5396" y1="569.3969" x2="-383.5396" y2="548.8903" gradientTransform="matrix(1.4834 0 0 -1.4873 570.2926 1255.0125)">
	<stop  offset="5.100000e-003" style="stop-color:#4D5C75"/>
	<stop  offset="5.000000e-002" style="stop-color:#697188"/>
	<stop  offset="0.1127" style="stop-color:#8C90A3"/>
	<stop  offset="0.1759" style="stop-color:#ADB0BD"/>
	<stop  offset="0.2385" style="stop-color:#C9CBD4"/>
	<stop  offset="0.3004" style="stop-color:#E0E2E7"/>
	<stop  offset="0.3613" style="stop-color:#F0F3F5"/>
	<stop  offset="0.42" style="stop-color:#F6FAFC"/>
	<stop  offset="0.4738" style="stop-color:#F1F3F4"/>
	<stop  offset="0.5296" style="stop-color:#E3E4E5"/>
	<stop  offset="0.5863" style="stop-color:#CECDCF"/>
	<stop  offset="0.6436" style="stop-color:#B3B1B4"/>
	<stop  offset="0.7008" style="stop-color:#959296"/>
	<stop  offset="0.72" style="stop-color:#8A888B"/>
	<stop  offset="1" style="stop-color:#F6FAFC"/>
</linearGradient>
<polygon class="st4" points="3.5,408.3 3.5,438.1 -0.8,438.1 -0.8,428.4 -0.8,418 -0.8,408.3 "/>
<linearGradient id="SVGID_6_" gradientUnits="userSpaceOnUse" x1="-414.1486" y1="591.9938" x2="-394.4176" y2="591.9938" gradientTransform="matrix(1.4834 0 0 -1.4873 570.2926 1255.0125)">
	<stop  offset="5.100000e-003" style="stop-color:#4D5C75"/>
	<stop  offset="5.000000e-002" style="stop-color:#697188"/>
	<stop  offset="0.1127" style="stop-color:#8C90A3"/>
	<stop  offset="0.1759" style="stop-color:#ADB0BD"/>
	<stop  offset="0.2385" style="stop-color:#C9CBD4"/>
	<stop  offset="0.3004" style="stop-color:#E0E2E7"/>
	<stop  offset="0.3613" style="stop-color:#F0F3F5"/>
	<stop  offset="0.42" style="stop-color:#F6FAFC"/>
	<stop  offset="0.4738" style="stop-color:#F1F3F4"/>
	<stop  offset="0.5296" style="stop-color:#E3E4E5"/>
	<stop  offset="0.5863" style="stop-color:#CECDCF"/>
	<stop  offset="0.6436" style="stop-color:#B3B1B4"/>
	<stop  offset="0.7008" style="stop-color:#959296"/>
	<stop  offset="0.72" style="stop-color:#8A888B"/>
	<stop  offset="1" style="stop-color:#F6FAFC"/>
</linearGradient>
<polygon class="st5" points="-14.8,372.4 -14.8,376.7 -25.8,376.7 -33.1,376.7 -44.1,376.7 -44.1,372.4 "/>
<linearGradient id="SVGID_7_" gradientUnits="userSpaceOnUse" x1="-584.7849" y1="556.1682" x2="-386.4503" y2="518.1679" gradientTransform="matrix(1.4834 0 0 -1.4873 570.2926 1255.0125)">
	<stop  offset="0" style="stop-color:#4D5C75"/>
	<stop  offset="0.1359" style="stop-color:#5A657E"/>
	<stop  offset="0.3963" style="stop-color:#7C8196"/>
	<stop  offset="0.7581" style="stop-color:#BBBDC8"/>
	<stop  offset="1" style="stop-color:#F6FAFC"/>
</linearGradient>
<polygon class="st6" points="-5.7,460.6 -5.7,470.4 -196.5,470.4 -196.5,460.6 -189,460.6 -139.7,460.6 -44.7,460.6 -38.1,460.6 
	-18.2,460.6 -14.2,460.6 "/>
<linearGradient id="SVGID_8_" gradientUnits="userSpaceOnUse" x1="-543.2081" y1="546.3213" x2="-470.4559" y2="528.8207" gradientTransform="matrix(1.4834 0 0 -1.4873 570.2926 1255.0125)">
	<stop  offset="0" style="stop-color:#4D5C75"/>
	<stop  offset="0.1359" style="stop-color:#5A657E"/>
	<stop  offset="0.3963" style="stop-color:#7C8196"/>
	<stop  offset="0.7581" style="stop-color:#BBBDC8"/>
	<stop  offset="1" style="stop-color:#F6FAFC"/>
</linearGradient>
<path class="st7" d="M-139.7,460.6H-189l2.5-2.5c14.8,0,29.6,0,44.4,0L-139.7,460.6z"/>
<linearGradient id="SVGID_9_" gradientUnits="userSpaceOnUse" x1="-504.7021" y1="577.3906" x2="-481.451" y2="565.64" gradientTransform="matrix(1.4834 0 0 -1.4873 570.2926 1255.0125)">
	<stop  offset="0" style="stop-color:#4D5C75"/>
	<stop  offset="0.1359" style="stop-color:#5A657E"/>
	<stop  offset="0.3963" style="stop-color:#7C8196"/>
	<stop  offset="0.7581" style="stop-color:#BBBDC8"/>
	<stop  offset="1" style="stop-color:#F6FAFC"/>
</linearGradient>
<path class="st8" d="M-144.8,399.8v14c-8.5,0-17.1,0-25.6,0v-14H-144.8z"/>
<g>
	<polyline class="st9" points="-38.1,384 -38.1,391.7 -38.1,393 -38.1,398.9 -38.1,400.3 -38.1,409.8 -38.1,411.1 -38.1,422.5 
		-38.1,423.9 -38.1,435.3 -38.1,436.7 -38.1,446.2 -38.1,447.5 -38.1,453.4 -38.1,454.8 -38.1,460.6 	"/>
	<polyline class="st9" points="-18.2,384 -18.2,391.7 -18.2,393 -18.2,398.9 -18.2,400.3 -18.2,409.8 -18.2,411.1 -18.2,422.5 
		-18.2,423.9 -18.2,435.3 -18.2,436.7 -18.2,446.2 -18.2,447.5 -18.2,453.4 -18.2,454.8 -18.2,460.6 	"/>
	<line class="st9" x1="-18.2" y1="391.7" x2="-38.1" y2="391.7"/>
	<line class="st9" x1="-38.1" y1="393" x2="-18.2" y2="393"/>
	<line class="st9" x1="-18.2" y1="398.9" x2="-38.1" y2="398.9"/>
	<line class="st9" x1="-38.1" y1="400.3" x2="-18.2" y2="400.3"/>
	<line class="st9" x1="-38.1" y1="411.1" x2="-18.2" y2="411.1"/>
	<line class="st9" x1="-18.2" y1="409.8" x2="-38.1" y2="409.8"/>
	<line class="st9" x1="-38.1" y1="423.9" x2="-18.2" y2="423.9"/>
	<line class="st9" x1="-18.2" y1="422.5" x2="-38.1" y2="422.5"/>
	<line class="st9" x1="-18.2" y1="435.3" x2="-38.1" y2="435.3"/>
	<line class="st9" x1="-38.1" y1="436.7" x2="-18.2" y2="436.7"/>
	<line class="st9" x1="-18.2" y1="446.2" x2="-38.1" y2="446.2"/>
	<line class="st9" x1="-38.1" y1="447.5" x2="-18.2" y2="447.5"/>
	<line class="st9" x1="-18.2" y1="453.4" x2="-38.1" y2="453.4"/>
	<line class="st9" x1="-38.1" y1="454.8" x2="-18.2" y2="454.8"/>
</g>
<polygon class="st9" points="-0.8,418 -0.8,408.3 3.5,408.3 3.5,438.1 -0.8,438.1 -0.8,428.4 "/>
<polygon class="st9" points="-33.1,376.7 -44.1,376.7 -44.1,372.4 -14.8,372.4 -14.8,376.7 -25.8,376.7 "/>
<g>
	
		<linearGradient id="SVGID_10_" gradientUnits="userSpaceOnUse" x1="-495.5121" y1="565.8969" x2="-495.5121" y2="535.9109" gradientTransform="matrix(1.4834 0 0 -1.4873 570.2926 1255.0125)">
		<stop  offset="5.100000e-003" style="stop-color:#4D5C75"/>
		<stop  offset="5.000000e-002" style="stop-color:#697188"/>
		<stop  offset="0.1127" style="stop-color:#8C90A3"/>
		<stop  offset="0.1759" style="stop-color:#ADB0BD"/>
		<stop  offset="0.2385" style="stop-color:#C9CBD4"/>
		<stop  offset="0.3004" style="stop-color:#E0E2E7"/>
		<stop  offset="0.3613" style="stop-color:#F0F3F5"/>
		<stop  offset="0.42" style="stop-color:#F6FAFC"/>
		<stop  offset="0.4738" style="stop-color:#F1F3F4"/>
		<stop  offset="0.5296" style="stop-color:#E3E4E5"/>
		<stop  offset="0.5863" style="stop-color:#CECDCF"/>
		<stop  offset="0.6436" style="stop-color:#B3B1B4"/>
		<stop  offset="0.7008" style="stop-color:#959296"/>
		<stop  offset="0.72" style="stop-color:#8A888B"/>
		<stop  offset="1" style="stop-color:#F6FAFC"/>
	</linearGradient>
	<path class="st10" d="M-138.9,413.8c-2,0-3.9,0-5.9,0c-8.5,0-17.1,0-25.6,0c-6.4,0-12.8,0-19.2,0c-3.8,0-6.9,3.1-6.9,6.9
		c0,10.2,0,20.4,0,30.6c0,3.8,3.1,6.9,6.9,6.9c1,0,2.1,0,3.1,0c14.8,0,29.6,0,44.4,0c1.1,0,2.2,0,3.3,0c1.9-1.9,3.8-3.9,5.8-5.8
		c0-0.7,0-1.4,0-2.1c0-0.6,0-1.2,0-1.8c0-3.9,0-7.7,0-11.6c0-0.6,0-1.2,0-1.8c0-3.9,0-7.7,0-11.6c0-0.6,0-1.2,0-1.8
		c0-0.7,0-1.4,0-2.1C-135,417.6-136.9,415.7-138.9,413.8z"/>
	<line class="st9" x1="-189.6" y1="413.8" x2="-189.6" y2="458.2"/>
	<line class="st9" x1="-138.9" y1="413.8" x2="-138.9" y2="458.2"/>
	<g class="st11">
		<line class="st9" x1="-189.6" y1="455.9" x2="-139.2" y2="455.9"/>
		<line class="st9" x1="-189.6" y1="452.2" x2="-139" y2="452.2"/>
		<line class="st9" x1="-189.5" y1="447.5" x2="-138.9" y2="447.5"/>
		<line class="st9" x1="-189.6" y1="441.9" x2="-138.9" y2="441.9"/>
		<line class="st9" x1="-189.6" y1="436" x2="-138.9" y2="436"/>
		<line class="st9" x1="-189.6" y1="430" x2="-138.9" y2="430"/>
		<line class="st9" x1="-189.5" y1="424.5" x2="-138.9" y2="424.5"/>
		<line class="st9" x1="-189.6" y1="419.7" x2="-139" y2="419.7"/>
		<line class="st9" x1="-189.3" y1="416.1" x2="-139.2" y2="416.1"/>
	</g>
</g>
<linearGradient id="SVGID_11_" gradientUnits="userSpaceOnUse" x1="-3.25" y1="428.39" x2="-3.25" y2="417.99">
	<stop  offset="5.100000e-003" style="stop-color:#4D5C75"/>
	<stop  offset="5.000000e-002" style="stop-color:#697188"/>
	<stop  offset="0.1127" style="stop-color:#8C90A3"/>
	<stop  offset="0.1759" style="stop-color:#ADB0BD"/>
	<stop  offset="0.2385" style="stop-color:#C9CBD4"/>
	<stop  offset="0.3004" style="stop-color:#E0E2E7"/>
	<stop  offset="0.3613" style="stop-color:#F0F3F5"/>
	<stop  offset="0.42" style="stop-color:#F6FAFC"/>
	<stop  offset="0.4738" style="stop-color:#F1F3F4"/>
	<stop  offset="0.5296" style="stop-color:#E3E4E5"/>
	<stop  offset="0.5863" style="stop-color:#CECDCF"/>
	<stop  offset="0.6436" style="stop-color:#B3B1B4"/>
	<stop  offset="0.7008" style="stop-color:#959296"/>
	<stop  offset="0.72" style="stop-color:#8A888B"/>
	<stop  offset="1" style="stop-color:#F6FAFC"/>
</linearGradient>
<rect x="-5.7" y="418" class="st12" width="4.9" height="10.4"/>
<linearGradient id="SVGID_12_" gradientUnits="userSpaceOnUse" x1="-33.1" y1="380.34" x2="-25.8" y2="380.34">
	<stop  offset="5.100000e-003" style="stop-color:#4D5C75"/>
	<stop  offset="5.000000e-002" style="stop-color:#697188"/>
	<stop  offset="0.1127" style="stop-color:#8C90A3"/>
	<stop  offset="0.1759" style="stop-color:#ADB0BD"/>
	<stop  offset="0.2385" style="stop-color:#C9CBD4"/>
	<stop  offset="0.3004" style="stop-color:#E0E2E7"/>
	<stop  offset="0.3613" style="stop-color:#F0F3F5"/>
	<stop  offset="0.42" style="stop-color:#F6FAFC"/>
	<stop  offset="0.4738" style="stop-color:#F1F3F4"/>
	<stop  offset="0.5296" style="stop-color:#E3E4E5"/>
	<stop  offset="0.5863" style="stop-color:#CECDCF"/>
	<stop  offset="0.6436" style="stop-color:#B3B1B4"/>
	<stop  offset="0.7008" style="stop-color:#959296"/>
	<stop  offset="0.72" style="stop-color:#8A888B"/>
	<stop  offset="1" style="stop-color:#F6FAFC"/>
</linearGradient>
<rect x="-33.1" y="376.7" class="st13" width="7.3" height="7.3"/>
<linearGradient id="SVGID_13_" gradientUnits="userSpaceOnUse" x1="-474.1002" y1="541.6677" x2="-467.5202" y2="541.6677" gradientTransform="matrix(1.4834 0 0 -1.4873 570.2926 1255.0125)">
	<stop  offset="0" style="stop-color:#4D5C75"/>
	<stop  offset="0.1359" style="stop-color:#5A657E"/>
	<stop  offset="0.3963" style="stop-color:#7C8196"/>
	<stop  offset="0.7581" style="stop-color:#BBBDC8"/>
	<stop  offset="1" style="stop-color:#F6FAFC"/>
</linearGradient>
<path class="st14" d="M-123.2,448.5v1.8h-9.8c0-0.6,0-1.2,0-1.8H-123.2z"/>
<linearGradient id="SVGID_14_" gradientUnits="userSpaceOnUse" x1="-474.1002" y1="550.6774" x2="-467.5202" y2="550.6774" gradientTransform="matrix(1.4834 0 0 -1.4873 570.2926 1255.0125)">
	<stop  offset="0" style="stop-color:#4D5C75"/>
	<stop  offset="0.1359" style="stop-color:#5A657E"/>
	<stop  offset="0.3963" style="stop-color:#7C8196"/>
	<stop  offset="0.7581" style="stop-color:#BBBDC8"/>
	<stop  offset="1" style="stop-color:#F6FAFC"/>
</linearGradient>
<path class="st15" d="M-123.2,435.1v1.8h-9.8c0-0.6,0-1.2,0-1.8H-123.2z"/>
<linearGradient id="SVGID_15_" gradientUnits="userSpaceOnUse" x1="-474.1002" y1="559.687" x2="-467.5202" y2="559.687" gradientTransform="matrix(1.4834 0 0 -1.4873 570.2926 1255.0125)">
	<stop  offset="0" style="stop-color:#4D5C75"/>
	<stop  offset="0.1359" style="stop-color:#5A657E"/>
	<stop  offset="0.3963" style="stop-color:#7C8196"/>
	<stop  offset="0.7581" style="stop-color:#BBBDC8"/>
	<stop  offset="1" style="stop-color:#F6FAFC"/>
</linearGradient>
<path class="st16" d="M-123.2,421.7v1.8h-9.8c0-0.6,0-1.2,0-1.8H-123.2z"/>
<linearGradient id="SVGID_16_" gradientUnits="userSpaceOnUse" x1="-121.7" y1="452.69" x2="-121.7" y2="419.29">
	<stop  offset="5.100000e-003" style="stop-color:#4D5C75"/>
	<stop  offset="5.000000e-002" style="stop-color:#697188"/>
	<stop  offset="0.1127" style="stop-color:#8C90A3"/>
	<stop  offset="0.1759" style="stop-color:#ADB0BD"/>
	<stop  offset="0.2385" style="stop-color:#C9CBD4"/>
	<stop  offset="0.3004" style="stop-color:#E0E2E7"/>
	<stop  offset="0.3613" style="stop-color:#F0F3F5"/>
	<stop  offset="0.42" style="stop-color:#F6FAFC"/>
	<stop  offset="0.4738" style="stop-color:#F1F3F4"/>
	<stop  offset="0.5296" style="stop-color:#E3E4E5"/>
	<stop  offset="0.5863" style="stop-color:#CECDCF"/>
	<stop  offset="0.6436" style="stop-color:#B3B1B4"/>
	<stop  offset="0.7008" style="stop-color:#959296"/>
	<stop  offset="0.72" style="stop-color:#8A888B"/>
	<stop  offset="1" style="stop-color:#F6FAFC"/>
</linearGradient>
<rect x="-123.2" y="419.3" class="st17" width="3" height="33.4"/>
<linearGradient id="SVGID_17_" gradientUnits="userSpaceOnUse" x1="-117.8" y1="452.69" x2="-117.8" y2="419.29">
	<stop  offset="5.100000e-003" style="stop-color:#4D5C75"/>
	<stop  offset="5.000000e-002" style="stop-color:#697188"/>
	<stop  offset="0.1127" style="stop-color:#8C90A3"/>
	<stop  offset="0.1759" style="stop-color:#ADB0BD"/>
	<stop  offset="0.2385" style="stop-color:#C9CBD4"/>
	<stop  offset="0.3004" style="stop-color:#E0E2E7"/>
	<stop  offset="0.3613" style="stop-color:#F0F3F5"/>
	<stop  offset="0.42" style="stop-color:#F6FAFC"/>
	<stop  offset="0.4738" style="stop-color:#F1F3F4"/>
	<stop  offset="0.5296" style="stop-color:#E3E4E5"/>
	<stop  offset="0.5863" style="stop-color:#CECDCF"/>
	<stop  offset="0.6436" style="stop-color:#B3B1B4"/>
	<stop  offset="0.7008" style="stop-color:#959296"/>
	<stop  offset="0.72" style="stop-color:#8A888B"/>
	<stop  offset="1" style="stop-color:#F6FAFC"/>
</linearGradient>
<polygon class="st18" points="-115.4,423.4 -115.4,420.5 -117.4,420.5 -117.4,419.3 -120.2,419.3 -120.2,452.7 -117.4,452.7 
	-117.4,451.4 -115.4,451.4 -115.4,448.5 -117.4,448.5 -117.4,423.4 "/>
</svg>
