<?xml version="1.0" encoding="utf-8"?>
<!-- Generator: Adobe Illustrator 19.0.0, SVG Export Plug-In . SVG Version: 6.00 Build 0)  -->
<svg version="1.1" id="图层_1" xmlns="http://www.w3.org/2000/svg" xmlns:xlink="http://www.w3.org/1999/xlink" x="0px" y="0px"
	 viewBox="-199 -169.5 560 898.5" style="enable-background:new -199 -169.5 560 898.5;" xml:space="preserve">
<style type="text/css">
	.st0{display:none;}
	.st1{display:inline;fill:#CAE4CA;}
	.st2{display:inline;fill:#A2D0A2;}
	.st3{display:inline;fill:#64B264;}
	.st4{fill:url(#XMLID_2_);}
	.st5{fill:#2C2A6B;}
	.st6{fill:url(#XMLID_3_);}
	.st7{fill:#1C1A3E;}
	.st8{fill:url(#XMLID_4_);}
	.st9{fill:url(#XMLID_5_);}
	.st10{fill:url(#XMLID_6_);}
	.st11{fill:#5059AA;}
	.st12{fill:#292F9B;}
	.st13{fill:url(#XMLID_7_);}
	.st14{fill:url(#XMLID_8_);}
	.st15{fill:url(#XMLID_9_);}
	.st16{fill:none;stroke:#000000;stroke-miterlimit:10;}
	.st17{fill:url(#XMLID_10_);}
	.st18{fill:url(#XMLID_11_);}
	.st19{fill:none;stroke:#000000;stroke-width:0.8301;}
	.st20{fill:url(#XMLID_12_);}
	.st21{fill:url(#XMLID_13_);}
	.st22{fill:url(#XMLID_14_);}
	.st23{fill:url(#XMLID_76_);}
	.st24{fill:#3840B5;}
	.st25{fill:#19194A;}
	.st26{fill:#5661E4;}
	.st27{fill:#56587D;}
</style>
<g id="XMLID_15_" class="st0">
	<path id="XMLID_34_" class="st1" d="M220,34.9L190.5,33v267.4l5.9,7.6l19.7-11.3l3.9-7.6V34.9z"/>
	<path id="XMLID_33_" class="st1" d="M188.5,33H164v273.1l5.9,1.9l13.8-7.6l4.9-11.3L188.5,33L188.5,33z"/>
	<path id="XMLID_32_" class="st2" d="M158.1,33l-20.6-1.9v275l2.9,1.9l17.7-18.9V33z"/>
	<path id="XMLID_31_" class="st2" d="M127.6,31.1l-19.7-0.9v275.9l3.9,1.9l15.7-18.9v-258H127.6z"/>
	<path id="XMLID_30_" class="st2" d="M98.1,30.2H81.4v274.1l3.9,3.8l12.8-18.9L98.1,30.2L98.1,30.2z"/>
	<path id="XMLID_29_" class="st3" d="M55.9,28.3h5.9h5.9v260.8L55.9,308v-3.8L55.9,28.3L55.9,28.3z"/>
	<path id="XMLID_28_" class="st3" d="M41.1,30.2H23.4v275.9l2,1.9l15.7-18.9V30.2z"/>
	<path id="XMLID_27_" class="st3" d="M13.6,30.2l-19.7,0.9v273.1l2,1.9l17.7-17V30.2z"/>
	<path id="XMLID_26_" class="st3" d="M-14.9,31.1L-38.5,33v271.2l3.9,3.8l19.7-18.9L-14.9,31.1L-14.9,31.1z"/>
	<path id="XMLID_25_" class="st3" d="M-42.4,33H-67v271.2l5.9,3.8l18.7-18.9L-42.4,33L-42.4,33z"/>
</g>
<g>
	
		<linearGradient id="XMLID_2_" gradientUnits="userSpaceOnUse" x1="-4.9231" y1="-99.05" x2="168.9231" y2="-99.05" gradientTransform="matrix(1 0 0 -1 0 559)">
		<stop  offset="0" style="stop-color:#2C2A6B"/>
		<stop  offset="1.675937e-002" style="stop-color:#313070"/>
		<stop  offset="0.1789" style="stop-color:#5F659D"/>
		<stop  offset="0.3192" style="stop-color:#818CBE"/>
		<stop  offset="0.4309" style="stop-color:#95A4D3"/>
		<stop  offset="0.5" style="stop-color:#9DADDA"/>
		<stop  offset="0.5688" style="stop-color:#97A6D4"/>
		<stop  offset="0.6707" style="stop-color:#8692C3"/>
		<stop  offset="0.793" style="stop-color:#6971A7"/>
		<stop  offset="0.93" style="stop-color:#424481"/>
		<stop  offset="1" style="stop-color:#2C2A6B"/>
	</linearGradient>
	<path id="XMLID_63_" class="st4" d="M144.8,724.7H19.2c-14.7,0-25.4-13.4-24-29.2l9.5-104.1h154.6l9.5,104.1
		C170.2,711.3,159.5,724.7,144.8,724.7z"/>
	<path id="XMLID_61_" class="st5" d="M143.3,702.8H20.7c-14.3,0-24.7-13.5-23.2-29.5l9.9-103.9h149.2l9.9,103.9
		C168,689.3,157.6,702.8,143.3,702.8z"/>
	
		<linearGradient id="XMLID_3_" gradientUnits="userSpaceOnUse" x1="-160.5" y1="-79.5" x2="-160.5" y2="176" gradientTransform="matrix(1 0 0 -1 0 559)">
		<stop  offset="0" style="stop-color:#000000"/>
		<stop  offset="9.038138e-002" style="stop-color:#3D3D3D"/>
		<stop  offset="0.2017" style="stop-color:#818181"/>
		<stop  offset="0.3024" style="stop-color:#B7B7B7"/>
		<stop  offset="0.3888" style="stop-color:#DEDEDE"/>
		<stop  offset="0.4575" style="stop-color:#F6F6F6"/>
		<stop  offset="0.5" style="stop-color:#FFFFFF"/>
		<stop  offset="0.5437" style="stop-color:#F8F8F8"/>
		<stop  offset="0.6083" style="stop-color:#E4E4E4"/>
		<stop  offset="0.686" style="stop-color:#C3C3C3"/>
		<stop  offset="0.7739" style="stop-color:#959595"/>
		<stop  offset="0.8702" style="stop-color:#5B5B5B"/>
		<stop  offset="0.9722" style="stop-color:#141414"/>
		<stop  offset="1" style="stop-color:#000000"/>
	</linearGradient>
	<path id="XMLID_53_" class="st6" d="M-160.5,383c-17.8,0-32.3,57.2-32.3,127.8s14.5,127.7,32.3,127.7h32.3V383H-160.5z"/>
	<ellipse id="XMLID_46_" class="st7" cx="-128.2" cy="510.8" rx="32.3" ry="127.8"/>
	
		<linearGradient id="XMLID_4_" gradientUnits="userSpaceOnUse" x1="310.2" y1="-80" x2="310.2" y2="175.5" gradientTransform="matrix(1 0 0 -1 0 559)">
		<stop  offset="0" style="stop-color:#000000"/>
		<stop  offset="9.038138e-002" style="stop-color:#3D3D3D"/>
		<stop  offset="0.2017" style="stop-color:#818181"/>
		<stop  offset="0.3024" style="stop-color:#B7B7B7"/>
		<stop  offset="0.3888" style="stop-color:#DEDEDE"/>
		<stop  offset="0.4575" style="stop-color:#F6F6F6"/>
		<stop  offset="0.5" style="stop-color:#FFFFFF"/>
		<stop  offset="0.5437" style="stop-color:#F8F8F8"/>
		<stop  offset="0.6083" style="stop-color:#E4E4E4"/>
		<stop  offset="0.686" style="stop-color:#C3C3C3"/>
		<stop  offset="0.7739" style="stop-color:#959595"/>
		<stop  offset="0.8702" style="stop-color:#5B5B5B"/>
		<stop  offset="0.9722" style="stop-color:#141414"/>
		<stop  offset="1" style="stop-color:#000000"/>
	</linearGradient>
	<path id="XMLID_58_" class="st8" d="M310.2,383.5c17.8,0,32.3,57.2,32.3,127.8S328,639,310.2,639h-32.3V383.5H310.2z"/>
	<ellipse id="XMLID_59_" class="st7" cx="277.9" cy="511.2" rx="32.3" ry="127.8"/>
	
		<linearGradient id="XMLID_5_" gradientUnits="userSpaceOnUse" x1="31.9556" y1="4.4255" x2="289.2" y2="4.4255" gradientTransform="matrix(1 0 0 -1 0 559)">
		<stop  offset="0" style="stop-color:#191848"/>
		<stop  offset="8.859548e-002" style="stop-color:#1D1D5E"/>
		<stop  offset="0.2678" style="stop-color:#242784"/>
		<stop  offset="0.4113" style="stop-color:#282D9C"/>
		<stop  offset="0.5" style="stop-color:#2A2FA5"/>
		<stop  offset="0.5851" style="stop-color:#282D9E"/>
		<stop  offset="0.711" style="stop-color:#24298A"/>
		<stop  offset="0.8614" style="stop-color:#1E2269"/>
		<stop  offset="1" style="stop-color:#161A45"/>
	</linearGradient>
	<path id="XMLID_51_" class="st9" d="M289.2,508.5c0-26.2-8.4-47.5-18.8-47.5c-0.8,0-1.7,0.2-2.5,0.4l0,0l-0.3,0.1
		c-0.1,0-0.1,0-0.2,0.1l-48.6,18.2c-73.6-35.3-186.4,0-186.4,0s-1,121.8,0,143.8s42.5,25,80,24.5s77-14.5,110-33.4
		s58.2-66.4,58.2-66.4l0,0C285.8,539.7,289.2,525.1,289.2,508.5z"/>
	
		<linearGradient id="XMLID_6_" gradientUnits="userSpaceOnUse" x1="-139.6" y1="28.9746" x2="219.1" y2="28.9746" gradientTransform="matrix(1 0 0 -1 0 559)">
		<stop  offset="0" style="stop-color:#191848"/>
		<stop  offset="8.859548e-002" style="stop-color:#1D1D5E"/>
		<stop  offset="0.2678" style="stop-color:#242784"/>
		<stop  offset="0.4113" style="stop-color:#282D9C"/>
		<stop  offset="0.5" style="stop-color:#2A2FA5"/>
		<stop  offset="0.5851" style="stop-color:#282D9E"/>
		<stop  offset="0.711" style="stop-color:#24298A"/>
		<stop  offset="0.8614" style="stop-color:#1E2269"/>
		<stop  offset="1" style="stop-color:#161A45"/>
	</linearGradient>
	<path id="XMLID_64_" class="st10" d="M76.5,445.5C13,444-69.3,479.3-69.3,479.3l-48.6-18.2c0,0-0.1,0-0.1-0.1l-0.3-0.1l0,0
		c-0.8-0.3-1.6-0.4-2.5-0.4c-10.4,0-18.8,21.3-18.8,47.5s8.5,47.5,18.9,47.5c0,0,20.8,2,33.3,8.5s101,53,171.5,50.5s135-54,135-54
		V480C219,480,140,447,76.5,445.5z"/>
	<polygon id="XMLID_52_" class="st11" points="-116.9,459.1 -114.4,409.1 -43.7,469.4 -65.4,477.8 	"/>
	<polygon id="XMLID_57_" class="st11" points="-118.3,410.5 -114.4,409.1 -113.4,416.3 	"/>
	<polygon id="XMLID_49_" class="st12" points="-120.7,460.5 -118.3,410.5 -47.5,470.9 -69.2,479.3 	"/>
	<polygon id="XMLID_65_" class="st11" points="268,411 264.2,409.7 261.1,419.7 	"/>
	<polygon id="XMLID_56_" class="st11" points="264.2,460.1 264.2,409.7 197.1,471.4 215.2,478.5 	"/>
	<polygon id="XMLID_55_" class="st12" points="268,461.4 268,411 200.9,472.6 218.9,479.7 	"/>
	<ellipse id="XMLID_54_" class="st12" cx="73.1" cy="506.2" rx="142.4" ry="60.7"/>
	
		<linearGradient id="XMLID_7_" gradientUnits="userSpaceOnUse" x1="-47.5" y1="106.25" x2="200.5" y2="106.25" gradientTransform="matrix(1 0 0 -1 0 559)">
		<stop  offset="0" style="stop-color:#191848"/>
		<stop  offset="8.859548e-002" style="stop-color:#1D1D5E"/>
		<stop  offset="0.2678" style="stop-color:#242784"/>
		<stop  offset="0.4113" style="stop-color:#282D9C"/>
		<stop  offset="0.5" style="stop-color:#2A2FA5"/>
		<stop  offset="0.5851" style="stop-color:#282D9E"/>
		<stop  offset="0.711" style="stop-color:#24298A"/>
		<stop  offset="0.8614" style="stop-color:#1E2269"/>
		<stop  offset="1" style="stop-color:#161A45"/>
	</linearGradient>
	<path id="XMLID_50_" class="st13" d="M200.5,366h-248v138.5l0,0l0,0c0,16.2,13.6,29.3,30.3,29.3c7.5,0,14.3-2.6,19.6-6.9
		c14.7,7.5,43,12.6,75.4,12.6c31.3,0,58.7-4.7,73.8-11.8c5.1,3.9,11.6,6.1,18.6,6.1c16.7,0,30.3-13.1,30.3-29.3l0,0l0,0L200.5,366
		L200.5,366z"/>
	
		<linearGradient id="XMLID_8_" gradientUnits="userSpaceOnUse" x1="-78" y1="683.9" x2="231" y2="683.9" gradientTransform="matrix(1 0 0 -1 0 559)">
		<stop  offset="0" style="stop-color:#191848"/>
		<stop  offset="0.1409" style="stop-color:#2C2D71"/>
		<stop  offset="0.2973" style="stop-color:#3E4097"/>
		<stop  offset="0.4225" style="stop-color:#494DAF"/>
		<stop  offset="0.5" style="stop-color:#4D51B8"/>
		<stop  offset="0.5752" style="stop-color:#4A4EB1"/>
		<stop  offset="0.6865" style="stop-color:#40449D"/>
		<stop  offset="0.8202" style="stop-color:#30347C"/>
		<stop  offset="0.97" style="stop-color:#1B1F4F"/>
		<stop  offset="1" style="stop-color:#161A45"/>
	</linearGradient>
	<path id="XMLID_45_" class="st14" d="M203.3-133.3C212.2-124.5,231-90,231-90H-78c0,0,21.5-37.4,33-45.5
		c21-14.7,49.7-24.3,123-24.3C157.3-159.8,184.1-152.6,203.3-133.3z"/>
	
		<linearGradient id="XMLID_9_" gradientUnits="userSpaceOnUse" x1="1.9" y1="45.4401" x2="151.1" y2="45.4401" gradientTransform="matrix(1 0 0 -1 0 559)">
		<stop  offset="0" style="stop-color:#191848"/>
		<stop  offset="8.859548e-002" style="stop-color:#1D1D5E"/>
		<stop  offset="0.2678" style="stop-color:#242784"/>
		<stop  offset="0.4113" style="stop-color:#282D9C"/>
		<stop  offset="0.5" style="stop-color:#2A2FA5"/>
		<stop  offset="0.5851" style="stop-color:#282D9E"/>
		<stop  offset="0.711" style="stop-color:#24298A"/>
		<stop  offset="0.8614" style="stop-color:#1E2269"/>
		<stop  offset="1" style="stop-color:#161A45"/>
	</linearGradient>
	<path id="XMLID_40_" class="st15" d="M1.9,487.6v39.3c0,0,21.1,13.2,75.4,12.6s73.8-11.8,73.8-11.8v-39.3c0,0-19.8,11.8-73.8,11.8
		S1.9,487.6,1.9,487.6z"/>
	<path id="XMLID_62_" class="st16" d="M200.5,327.8h-248v138.5l0,0l0,0c0,16.2,13.6,29.3,30.3,29.3c7.5,0,14.3-2.6,19.6-6.9
		c14.7,7.5,43,12.6,75.4,12.6c31.3,0,58.7-4.7,73.8-11.8c5.1,3.9,11.6,6.1,18.6,6.1c16.7,0,30.3-13.1,30.3-29.3l0,0l0,0L200.5,327.8
		L200.5,327.8z"/>
	
		<linearGradient id="XMLID_10_" gradientUnits="userSpaceOnUse" x1="-47.5" y1="145.45" x2="200.5" y2="145.45" gradientTransform="matrix(1 0 0 -1 0 559)">
		<stop  offset="0" style="stop-color:#191848"/>
		<stop  offset="8.859548e-002" style="stop-color:#1D1D5E"/>
		<stop  offset="0.2678" style="stop-color:#242784"/>
		<stop  offset="0.4113" style="stop-color:#282D9C"/>
		<stop  offset="0.5" style="stop-color:#2A2FA5"/>
		<stop  offset="0.5851" style="stop-color:#282D9E"/>
		<stop  offset="0.711" style="stop-color:#24298A"/>
		<stop  offset="0.8614" style="stop-color:#1E2269"/>
		<stop  offset="1" style="stop-color:#161A45"/>
	</linearGradient>
	<path id="XMLID_42_" class="st17" d="M200.5,326.8h-248v138.5l0,0l0,0c0,16.2,13.6,29.3,30.3,29.3c7.5,0,14.3-2.6,19.6-6.9
		c14.7,7.5,43,12.6,75.4,12.6c31.3,0,58.7-4.7,73.8-11.8c5.1,3.9,11.6,6.1,18.6,6.1c16.7,0,30.3-13.1,30.3-29.3l0,0l0,0L200.5,326.8
		L200.5,326.8z"/>
	
		<linearGradient id="XMLID_11_" gradientUnits="userSpaceOnUse" x1="-87.5" y1="193" x2="240.5" y2="193" gradientTransform="matrix(1 0 0 -1 0 559)">
		<stop  offset="0" style="stop-color:#191848"/>
		<stop  offset="8.859548e-002" style="stop-color:#1D1D5E"/>
		<stop  offset="0.2678" style="stop-color:#242784"/>
		<stop  offset="0.4113" style="stop-color:#282D9C"/>
		<stop  offset="0.5" style="stop-color:#2A2FA5"/>
		<stop  offset="0.5851" style="stop-color:#282D9E"/>
		<stop  offset="0.711" style="stop-color:#24298A"/>
		<stop  offset="0.8614" style="stop-color:#1E2269"/>
		<stop  offset="1" style="stop-color:#161A45"/>
	</linearGradient>
	<path id="XMLID_39_" class="st18" d="M219.8,346.9c-28-12-81.7-20.2-143.3-20.2s-115.3,8.1-143.3,20.2h-20.7V366
		c0,21.7,73.4,39.3,164,39.3s164-17.6,164-39.3v-19.1H219.8z"/>
	<path id="XMLID_43_" class="st19" d="M219.8,326.8c-28-12-81.7-20.2-143.3-20.2s-115.3,8.1-143.3,20.2h-20.7v19.1
		c0,21.7,73.4,39.3,164,39.3s164-17.6,164-39.3v-19.1L219.8,326.8L219.8,326.8z"/>
	
		<linearGradient id="XMLID_12_" gradientUnits="userSpaceOnUse" x1="-87.5" y1="214.1" x2="240.5" y2="214.1" gradientTransform="matrix(1 0 0 -1 0 559)">
		<stop  offset="0" style="stop-color:#191848"/>
		<stop  offset="8.859548e-002" style="stop-color:#1D1D5E"/>
		<stop  offset="0.2678" style="stop-color:#242784"/>
		<stop  offset="0.4113" style="stop-color:#282D9C"/>
		<stop  offset="0.5" style="stop-color:#2A2FA5"/>
		<stop  offset="0.5851" style="stop-color:#282D9E"/>
		<stop  offset="0.711" style="stop-color:#24298A"/>
		<stop  offset="0.8614" style="stop-color:#1E2269"/>
		<stop  offset="1" style="stop-color:#161A45"/>
	</linearGradient>
	<path id="XMLID_67_" class="st20" d="M219.8,325.8c-28-12-81.7-20.2-143.3-20.2s-115.3,8.1-143.3,20.2h-20.7v19.1
		c0,21.7,73.4,39.3,164,39.3s164-17.6,164-39.3v-19.1L219.8,325.8L219.8,325.8z"/>
	<ellipse id="XMLID_38_" class="st12" cx="76.5" cy="326.8" rx="164" ry="39.3"/>
	
		<linearGradient id="XMLID_13_" gradientUnits="userSpaceOnUse" x1="1.9" y1="108.15" x2="151.1" y2="108.15" gradientTransform="matrix(1 0 0 -1 0 559)">
		<stop  offset="0" style="stop-color:#191848"/>
		<stop  offset="8.859548e-002" style="stop-color:#1D1D5E"/>
		<stop  offset="0.2678" style="stop-color:#242784"/>
		<stop  offset="0.4113" style="stop-color:#282D9C"/>
		<stop  offset="0.5" style="stop-color:#2A2FA5"/>
		<stop  offset="0.5851" style="stop-color:#282D9E"/>
		<stop  offset="0.711" style="stop-color:#24298A"/>
		<stop  offset="0.8614" style="stop-color:#1E2269"/>
		<stop  offset="1" style="stop-color:#161A45"/>
	</linearGradient>
	<path id="XMLID_66_" class="st21" d="M1.9,400.9v87.3c0,0,22.8,12.6,75.4,12.6c54.4,0,73.8-11.8,73.8-11.8v-87.3
		c0,0-19.8,3.6-73.8,3.6S1.9,400.9,1.9,400.9z"/>
	
		<linearGradient id="XMLID_14_" gradientUnits="userSpaceOnUse" x1="-41.8" y1="236.8" x2="194.8" y2="236.8" gradientTransform="matrix(1 0 0 -1 0 559)">
		<stop  offset="0" style="stop-color:#191848"/>
		<stop  offset="8.859548e-002" style="stop-color:#1D1D5E"/>
		<stop  offset="0.2678" style="stop-color:#242784"/>
		<stop  offset="0.4113" style="stop-color:#282D9C"/>
		<stop  offset="0.5" style="stop-color:#2A2FA5"/>
		<stop  offset="0.5851" style="stop-color:#282D9E"/>
		<stop  offset="0.711" style="stop-color:#24298A"/>
		<stop  offset="0.8614" style="stop-color:#1E2269"/>
		<stop  offset="1" style="stop-color:#161A45"/>
	</linearGradient>
	<path id="XMLID_41_" class="st22" d="M-41.8,298.5v23.7c0,13.1,53,23.7,118.3,23.7s118.3-10.6,118.3-23.7v-23.7H-41.8z"/>
	<ellipse id="XMLID_37_" class="st12" cx="76.5" cy="298.5" rx="118.3" ry="23.7"/>
	
		<linearGradient id="XMLID_76_" gradientUnits="userSpaceOnUse" x1="-78" y1="592.75" x2="231" y2="592.75" gradientTransform="matrix(1 0 0 -1 0 559)">
		<stop  offset="0" style="stop-color:#191848"/>
		<stop  offset="8.859548e-002" style="stop-color:#1D1D5E"/>
		<stop  offset="0.2678" style="stop-color:#242784"/>
		<stop  offset="0.4113" style="stop-color:#282D9C"/>
		<stop  offset="0.5" style="stop-color:#2A2FA5"/>
		<stop  offset="0.5851" style="stop-color:#282D9E"/>
		<stop  offset="0.711" style="stop-color:#24298A"/>
		<stop  offset="0.8614" style="stop-color:#1E2269"/>
		<stop  offset="1" style="stop-color:#161A45"/>
	</linearGradient>
	<path id="XMLID_48_" class="st23" d="M231-90c-1.1-10.5-69.9-19-154.5-19S-76.8-100.5-78-90l0,0V41.5h309V-90L231-90z"/>
	<ellipse id="XMLID_47_" class="st7" cx="76.5" cy="41.5" rx="154.5" ry="19.2"/>
	<path id="XMLID_17_" class="st24" d="M218.2,41.5v240.6l-42.7,26.1H-13.8l-51.3-26.1V41.5c0,0,28.4-12.7,139.2-12.7
		C189.3,28.8,218.2,41.5,218.2,41.5z"/>
	<polygon id="XMLID_44_" class="st25" points="-13.4,28.9 -5.5,33.7 -5.5,298.4 -13.4,308.2 	"/>
	<polygon id="XMLID_68_" class="st25" points="12,28.9 19.8,33.7 19.8,298.4 12,308.2 	"/>
	<polygon id="XMLID_69_" class="st25" points="40,28.9 47.8,33.7 47.8,298.4 40,308.2 	"/>
	<polygon id="XMLID_70_" class="st25" points="68,28.9 75.8,33.7 75.8,298.4 68,308.2 	"/>
	<polygon id="XMLID_71_" class="st25" points="96,28.9 103.8,33.7 103.8,298.4 96,308.2 	"/>
	<polygon id="XMLID_72_" class="st25" points="122.6,28.9 130.5,33.7 130.5,298.4 122.6,308.2 	"/>
	<path id="XMLID_16_" class="st26" d="M-13.4,308.2L-13.4,308.2c-1.1,0-2-0.9-2-2V31c0-1.1,0.9-2,2-2l0,0c1.1,0,2,0.9,2,2v275.2
		C-11.3,307.2-12.3,308.2-13.4,308.2z"/>
	<path id="XMLID_19_" class="st26" d="M12,308.2L12,308.2c-1.1,0-2-0.9-2-2V31c0-1.1,0.9-2,2-2l0,0c1.1,0,2,0.9,2,2v275.2
		C14,307.2,13.1,308.2,12,308.2z"/>
	<path id="XMLID_20_" class="st26" d="M40,308.2L40,308.2c-1.1,0-2-0.9-2-2V31c0-1.1,0.9-2,2-2l0,0c1.1,0,2,0.9,2,2v275.2
		C42,307.2,41.1,308.2,40,308.2z"/>
	<path id="XMLID_21_" class="st26" d="M68,308.2L68,308.2c-1.1,0-2-0.9-2-2V31c0-1.1,0.9-2,2-2l0,0c1.1,0,2,0.9,2,2v275.2
		C70,307.2,69.1,308.2,68,308.2z"/>
	<path id="XMLID_22_" class="st26" d="M96,308.2L96,308.2c-1.1,0-2-0.9-2-2V31c0-1.1,0.9-2,2-2l0,0c1.1,0,2,0.9,2,2v275.2
		C98,307.2,97.1,308.2,96,308.2z"/>
	<path id="XMLID_23_" class="st26" d="M122.6,308.2L122.6,308.2c-1.1,0-2-0.9-2-2V31c0-1.1,0.9-2,2-2l0,0c1.1,0,2,0.9,2,2v275.2
		C124.7,307.2,123.7,308.2,122.6,308.2z"/>
	<rect id="XMLID_18_" x="156.6" y="28.8" class="st26" width="18.7" height="288.7"/>
	<path id="XMLID_24_" class="st12" d="M156.8,269.9H-13c-9,0-16.4-7.4-16.4-16.4V83.7c0-9,7.4-16.4,16.4-16.4h169.8
		c9,0,16.4,7.4,16.4,16.4v169.8C173.2,262.5,165.8,269.9,156.8,269.9z"/>
	<path id="XMLID_35_" class="st24" d="M145.1,256.1H-1.3c-8.8,0-16-7.2-16-16v-143c0-8.8,7.2-16,16-16h146.4c8.8,0,16,7.2,16,16v143
		C161.1,248.9,153.9,256.1,145.1,256.1z"/>
	<path id="XMLID_36_" class="st26" d="M130.4,241.7h-117c-8.8,0-16-7.2-16-16V111.4c0-8.8,7.2-16,16-16h117.1c8.8,0,16,7.2,16,16
		v114.2C146.4,234.5,139.2,241.7,130.4,241.7z"/>
	<g id="XMLID_75_">
		<circle id="XMLID_60_" class="st7" cx="162.8" cy="79.8" r="5.5"/>
		<path id="XMLID_73_" class="st27" d="M160.1,82.4L160.1,82.4c-0.2-0.2-0.2-0.6,0-0.8l4.5-4.5c0.2-0.2,0.6-0.2,0.8,0l0,0
			c0.2,0.2,0.2,0.6,0,0.8l-4.5,4.5C160.7,82.6,160.3,82.6,160.1,82.4z"/>
		<path id="XMLID_74_" class="st27" d="M160.1,77.1L160.1,77.1c0.2-0.2,0.6-0.2,0.8,0l4.5,4.5c0.2,0.2,0.2,0.6,0,0.8l0,0
			c-0.2,0.2-0.6,0.2-0.8,0l-4.5-4.5C159.9,77.6,159.9,77.3,160.1,77.1z"/>
	</g>
	<g id="XMLID_77_">
		<circle id="XMLID_80_" class="st7" cx="-17.3" cy="79.7" r="5.5"/>
		<path id="XMLID_79_" class="st27" d="M-20,82.3L-20,82.3c-0.2-0.2-0.2-0.6,0-0.8l4.5-4.5c0.2-0.2,0.6-0.2,0.8,0l0,0
			c0.2,0.2,0.2,0.6,0,0.8l-4.5,4.5C-19.4,82.5-19.8,82.5-20,82.3z"/>
		<path id="XMLID_78_" class="st27" d="M-20,77L-20,77c0.2-0.2,0.6-0.2,0.8,0l4.5,4.5c0.2,0.2,0.2,0.6,0,0.8l0,0
			c-0.2,0.2-0.6,0.2-0.8,0l-4.5-4.5C-20.2,77.5-20.2,77.2-20,77z"/>
	</g>
	<g id="XMLID_81_">
		<circle id="XMLID_84_" class="st7" cx="-17.3" cy="256.1" r="5.5"/>
		<path id="XMLID_83_" class="st27" d="M-20,258.6L-20,258.6c-0.2-0.2-0.2-0.6,0-0.8l4.5-4.5c0.2-0.2,0.6-0.2,0.8,0l0,0
			c0.2,0.2,0.2,0.6,0,0.8l-4.5,4.5C-19.4,258.9-19.8,258.9-20,258.6z"/>
		<path id="XMLID_82_" class="st27" d="M-20,253.3L-20,253.3c0.2-0.2,0.6-0.2,0.8,0l4.5,4.5c0.2,0.2,0.2,0.6,0,0.8l0,0
			c-0.2,0.2-0.6,0.2-0.8,0l-4.5-4.5C-20.2,253.9-20.2,253.5-20,253.3z"/>
	</g>
	<g id="XMLID_85_">
		<circle id="XMLID_88_" class="st7" cx="162.8" cy="256.1" r="5.5"/>
		<path id="XMLID_87_" class="st27" d="M160.1,258.6L160.1,258.6c-0.2-0.2-0.2-0.6,0-0.8l4.5-4.5c0.2-0.2,0.6-0.2,0.8,0l0,0
			c0.2,0.2,0.2,0.6,0,0.8l-4.5,4.5C160.7,258.9,160.3,258.9,160.1,258.6z"/>
		<path id="XMLID_86_" class="st27" d="M160.1,253.3L160.1,253.3c0.2-0.2,0.6-0.2,0.8,0l4.5,4.5c0.2,0.2,0.2,0.6,0,0.8l0,0
			c-0.2,0.2-0.6,0.2-0.8,0l-4.5-4.5C159.9,253.9,159.9,253.5,160.1,253.3z"/>
	</g>
</g>
</svg>
