<?xml version="1.0" encoding="utf-8"?>
<!-- Generator: Adobe Illustrator 19.0.0, SVG Export Plug-In . SVG Version: 6.00 Build 0)  -->
<svg version="1.1" id="图层_1" xmlns="http://www.w3.org/2000/svg" xmlns:xlink="http://www.w3.org/1999/xlink" x="0px" y="0px"
	 viewBox="-225 370.8 144.7 100.1" style="enable-background:new -225 370.8 144.7 100.1;" xml:space="preserve">
<style type="text/css">
	.st0{fill:#E0EFE0;}
	.st1{fill:#003F00;stroke:#000000;stroke-width:0.25;stroke-linejoin:round;}
	.st2{fill:#64B264;stroke:#000000;stroke-width:0.25;stroke-linejoin:round;}
	.st3{fill:#E0EFE0;stroke:#000000;stroke-width:0.25;stroke-linejoin:round;}
	.st4{fill:#005500;stroke:#000000;stroke-width:0.25;stroke-linejoin:round;}
	.st5{fill:#007700;stroke:#000000;stroke-width:0.25;stroke-linejoin:round;}
	.st6{fill:#004600;stroke:#000000;stroke-width:0.25;stroke-linejoin:round;}
	.st7{fill:#53A953;}
	.st8{fill:#53A953;stroke:#000000;stroke-width:0.25;stroke-linejoin:round;}
	.st9{fill:none;stroke:#000000;stroke-width:0.25;stroke-linejoin:round;}
	.st10{fill:#5EAF5E;}
	.st11{fill:#65B265;}
	.st12{fill:#6FB76F;}
	.st13{fill:#7ABD7A;}
	.st14{fill:#81C081;}
	.st15{fill:#8AC58A;}
	.st16{fill:#95CA95;}
	.st17{fill:#9BCD9B;}
	.st18{fill:#A6D2A6;}
	.st19{fill:#ADD6AD;}
	.st20{fill:#B6DAB6;}
	.st21{fill:#C1E0C1;}
	.st22{fill:#C7E3C7;}
	.st23{fill:#D2E8D2;}
	.st24{fill:#DBEDDB;}
	.st25{fill:#E3F1E3;}
	.st26{fill:#EDF6ED;}
	.st27{fill:#C0DFC0;stroke:#000000;stroke-width:0.25;stroke-linejoin:round;}
	.st28{fill:#98CB98;stroke:#000000;stroke-width:0.25;stroke-linejoin:round;}
	.st29{fill:#FFFFFF;stroke:#000000;stroke-width:0.25;stroke-linejoin:round;}
	.st30{fill:#64B264;}
	.st31{fill:#007F00;}
	.st32{fill:#007F00;stroke:#000000;stroke-width:0.25;stroke-linejoin:round;}
	.st33{fill:#98CB98;}
	.st34{fill:#CAE4CA;}
	.st35{fill:#003F00;}
	.st36{fill:#003900;}
</style>
<path class="st0" d="M-219.4,462.5l45.4-62.6l9.3-3.3l10.7-9.4l31.3,25.6h22.5l-0.3,22.2h6.1l0.3,28.7L-219.4,462.5z"/>
<path class="st1" d="M-95.1,432.9l0.9,0.6l0.9,1.2v13.6l-1.2,0.3l-0.9-0.3v-12.2l-0.3-0.9l-0.7-0.3h-65.5v-2L-95.1,432.9
	L-95.1,432.9z"/>
<path class="st1" d="M-100.9,411.2l1.2,0.6l0.7,1.2v35.4l-1,0.3l-1.2-0.3v-34.2l-0.1-0.6l-0.6-0.3h-60v-2h61
	C-100.8,411.3-100.8,411.2-100.9,411.2z"/>
<path class="st1" d="M-103.5,432.6h-11.2v3.2h11.2V432.6z"/>
<path class="st1" d="M-104.8,431.5h-8.1v5.2h8.1V431.5z"/>
<path class="st2" d="M-108.4,431.5h-1.3v-0.9h1.3V431.5z"/>
<ellipse class="st3" cx="-112.5" cy="430.2" rx="5.4" ry="0.7"/>
<path class="st4" d="M-110,429.4h-7.1v1.4h7.1V429.4z"/>
<path class="st5" d="M-84.4,462.2h-134.5v4.6h134.5C-84.3,466.8-84.3,462.2-84.4,462.2z"/>
<path class="st6" d="M-220.8,457.6l2,4.6v4.6l-2-4.6V457.6z"/>
<path class="st5" d="M-84.4,462.2h-134.5l-2-4.6H-89L-84.4,462.2z"/>
<path class="st7" d="M-211.6,376.6h0.7l6.7,0.9l3.6,0.3h4.2l4.8,0.3h9.9l4.6-0.3h4.3l6.7-0.6l4.3-0.6v82.2l-4.3,0.6l-6.7,0.6h-4.1
	l-4.9,0.3h-9.9l-4.8-0.3h-4.2l-6.5-0.6l-3.8-0.3l-0.7-0.6L-211.6,376.6L-211.6,376.6z"/>
<ellipse class="st8" cx="-186.8" cy="376.4" rx="24.9" ry="1.6"/>
<path class="st9" d="M-162.5,376.9l-1.4-0.3l-2.3-0.3h-2.9l-3.8-0.3l-4.1-0.3h-4.9h-4.9h-4.9h-4.8l-4.2,0.3l-3.6,0.3h-2.9l-2.3,0.3
	l-0.9,0.3"/>
<path class="st10" d="M-210.6,376.9l6.4,0.6l3.6,0.3h4.2l4.8,0.3h9.9l4.6-0.3h4.3l6.7-0.6l3.8-0.6h0.6v82.2l-4.3,0.6l-6.7,0.6h-4.1
	l-4.9,0.3h-9.9l-4.8-0.3h-4.2l-6.5-0.6l-3.5-0.3L-210.6,376.9L-210.6,376.9z"/>
<path class="st11" d="M-208.8,377.1l4.5,0.3l3.6,0.3h4.2l4.8,0.3h9.9l4.6-0.3h4.3l6.7-0.6l3.8-0.6h0.3v82.2l-0.3,0.3l-6.7,0.6
	l-7.8,0.3l-4.9,0.3h-9.9l-4.8-0.3h-4.2l-6.5-0.6h-1.6L-208.8,377.1L-208.8,377.1z"/>
<path class="st12" d="M-206.6,377.4l5.9,0.3h4.2l4.8,0.3h9.9l4.6-0.3h4.3l6.7-0.6l2.3-0.3h0.9V459l-6.1,0.6l-7.8,0.3l-4.9,0.3h-9.9
	l-4.8-0.3h-4.2l-5.9-0.3V377.4z"/>
<path class="st12" d="M-206.6,377.4l5.9,0.3h4.2l4.8,0.3h9.9l4.6-0.3h4.3l6.7-0.6l2.3-0.3h0.9V459l-6.1,0.6l-7.8,0.3l-4.9,0.3h-9.9
	l-4.8-0.3h-4.2l-5.9-0.3V377.4z"/>
<path class="st12" d="M-206.6,377.4l5.9,0.3h4.2l4.8,0.3h9.9l4.6-0.3h4.3l6.7-0.6l2.3-0.3h0.9V459l-6.1,0.6l-7.8,0.3l-4.9,0.3h-9.9
	l-4.8-0.3h-4.2l-5.9-0.3V377.4z"/>
<path class="st12" d="M-206.6,377.4l5.9,0.3h4.2l4.8,0.3h9.9l4.6-0.3h4.3l6.7-0.6l2.3-0.3h0.9V459l-6.1,0.6l-7.8,0.3l-4.9,0.3h-9.9
	l-4.8-0.3h-4.2l-5.9-0.3V377.4z"/>
<path class="st13" d="M-204.3,377.4l3.6,0.3h4.2l4.8,0.3h4.9h4.9l4.6-0.3h4.3l3.8-0.3l2.9-0.3h2.3v82.2h-2.3l-2.9,0.3l-3.8,0.3h-4.1
	l-4.9,0.3h-4.9h-4.9l-4.8-0.3h-4.2l-3.6-0.3L-204.3,377.4L-204.3,377.4z"/>
<path class="st14" d="M-202.3,377.7h1.6h4.2l4.8,0.3h4.9h4.9l4.6-0.3h4.3l3.8-0.3l2.9-0.3h1.4v82.2h-1.4l-2.9,0.3l-3.8,0.3h-4.3
	l-4.6,0.3h-4.9h-4.9l-4.8-0.3h-4.2h-1.6V377.7z"/>
<path class="st15" d="M-200.4,377.7h3.9l4.8,0.3h4.9h4.9l4.6-0.3h4.3l3.8-0.3l2.9-0.3h0.6v82.2h-0.6l-2.9,0.3l-3.8,0.3h-4.3
	l-4.6,0.3h-4.9h-4.9l-4.8-0.3h-3.9V377.7z"/>
<path class="st16" d="M-198.4,377.7h1.9l4.8,0.3h4.9h4.9l4.6-0.3h4.3l3.8-0.3h2.6v82.2h-2.6l-3.8,0.3h-4.3l-4.6,0.3h-4.9h-4.9
	l-4.8-0.3h-1.9V377.7z"/>
<path class="st17" d="M-196.1,377.7l4.5,0.3h4.9h4.9l4.6-0.3h4.3l3.8-0.3h1.7v82.2h-1.7l-3.8,0.3h-4.3l-4.6,0.3h-4.9h-4.9l-4.5-0.3
	V377.7z"/>
<path class="st18" d="M-194.1,377.7l2.5,0.3h4.9h4.9l4.6-0.3h4.3l3.8-0.3h0.9v82.2h-0.9l-3.8,0.3h-4.3l-4.6,0.3h-4.9h-4.9h-2.5
	V377.7z"/>
<path class="st19" d="M-192,378h0.3h4.9h4.9l4.6-0.3h4.3l3.5-0.3v82.2l-3.5,0.3h-4.3l-4.6,0.3h-4.9h-4.9h-0.3V378z"/>
<path class="st20" d="M-190,378h3.2h4.9l4.6-0.3h4.3l2.6-0.3v82.4h-2.6h-4.3l-4.6,0.3h-4.9h-3.2V378z"/>
<path class="st21" d="M-188,378h1.2h4.9l4.6-0.3h4.3h1.7v82.2h-1.7h-4.3l-4.6,0.3h-4.9h-1.2V378z"/>
<path class="st22" d="M-185.8,378h3.9l4.6-0.3h4.3h0.9v82.2h-0.9h-4.1l-4.9,0.3h-3.9L-185.8,378L-185.8,378z"/>
<path class="st23" d="M-183.9,378h2l4.6-0.3h4.3v82.2h-4.1l-4.9,0.3h-2L-183.9,378L-183.9,378z"/>
<path class="st24" d="M-181.9,378l4.6-0.3h3.5v82.2h-3.2l-4.9,0.3L-181.9,378L-181.9,378z"/>
<path class="st25" d="M-179.5,378l2.3-0.3h2.6v82.2h-2.3l-2.6,0.3V378z"/>
<path class="st26" d="M-177.5,377.7h0.3h1.7v82.2h-1.7h-0.3V377.7z"/>
<path class="st9" d="M-211.6,376.6h0.7l6.7,0.9l3.6,0.3h4.2l4.8,0.3h9.9l4.6-0.3h4.3l6.7-0.6l4.3-0.6v82.2l-4.3,0.6l-6.7,0.6h-4.1
	l-4.9,0.3h-9.9l-4.8-0.3h-4.2l-6.5-0.6l-3.8-0.3l-0.7-0.6L-211.6,376.6"/>
<path class="st27" d="M-150.9,420.8h-1.7V459h1.7V420.8z"/>
<path class="st28" d="M-121.6,386.4h-33.3v33.2l1.4,0.9l32.7-32.9L-121.6,386.4z"/>
<path class="st27" d="M-120.4,387.6h-33.3v33.2h33.3C-120.3,420.8-120.3,387.6-120.4,387.6z"/>
<path class="st29" d="M-122.5,389.5h-16.8v16.8h16.8V389.5z"/>
<path d="M-151.1,389.5h7v5.8h-7V389.5z"/>
<path d="M-133.8,397.9h-1.2v1.3h1.2V397.9z"/>
<path d="M-133.8,395.5h-1.2v1.3h1.2V395.5z"/>
<path d="M-133.8,393.4h-1.2v1h1.2V393.4z"/>
<path d="M-133.8,391.3h-1.2v0.7h1.2V391.3z"/>
<path d="M-128.8,397.9h-1.2v1.3h1.2V397.9z"/>
<path d="M-128.8,395.5h-1.2v1.3h1.2V395.5z"/>
<path d="M-128.8,393.4h-1.2v1h1.2V393.4z"/>
<path d="M-128.8,391.3h-1.2v0.7h1.2V391.3z"/>
<path d="M-123.9,397.9h-1v1.3h1V397.9z"/>
<path d="M-123.9,395.5h-1v1.3h1V395.5z"/>
<path d="M-123.9,393.4h-1v1h1V393.4z"/>
<path d="M-123.9,391.3h-1v0.7h1V391.3z"/>
<path class="st27" d="M-121.6,420.8h-1.7v37.7h1.7V420.8z"/>
<path class="st30" d="M-117.1,448.3h-7.1v10.1h7.1V448.3z"/>
<path d="M-117.1,457.6h-7.1v0.3h7.1V457.6z"/>
<path d="M-117.1,456.1h-7.1v0.3h7.1V456.1z"/>
<path d="M-117.1,454.7h-7.1v0.3h7.1V454.7z"/>
<path d="M-117.1,453.2h-7.1v0.3h7.1V453.2z"/>
<path d="M-117.1,451.8h-7.1v0.3h7.1V451.8z"/>
<path d="M-117.1,450.3h-7.1v0.3h7.1V450.3z"/>
<path d="M-118.4,448.9h-4.9v0.3h4.9V448.9z"/>
<path d="M-96.1,459.9h-4.8v0.3h4.8V459.9z"/>
<path d="M-110.6,459.9h-4.6v0.3h4.6V459.9z"/>
<path class="st31" d="M-91.9,446.8h-25.4v13h25.4V446.8z"/>
<path class="st30" d="M-92.2,447.1h-24.9v11.3h24.9V447.1z"/>
<path class="st32" d="M-110,456.7h-0.6v3.5h-4.6v-3.5h-0.3v3.5h-0.3v0.6h6.1v-0.6h-0.3C-110,460.2-110,456.7-110,456.7z"/>
<path class="st32" d="M-95.7,456.7h-0.4v3.5h-4.8v-3.5h-0.3v3.5h-0.1v0.6h5.9v-0.6h-0.3C-95.7,460.2-95.7,456.7-95.7,456.7z"/>
<path class="st33" d="M-92.2,448h-24.9v9.3h24.9V448z"/>
<path class="st34" d="M-92.2,448h-24.9v7.2h24.9V448z"/>
<path class="st0" d="M-92.2,448.6h-24.9v2.3h24.9V448.6z"/>
<path class="st1" d="M-121.6,443.6l1.4,0.6l0.4,1.4v2.9l-1,0.3l-1.2-0.3v-1.4l-0.4-0.9l-0.4-0.3h-39.7v-2.3L-121.6,443.6
	L-121.6,443.6z"/>
<path class="st35" d="M-130.9,443.1h-12.8v3.8h12.8V443.1z"/>
<path class="st36" d="M-130.9,446.3h-12.8v0.6h12.8V446.3z"/>
<path class="st35" d="M-132.6,441.9h-9v6.1h9V441.9z"/>
<path class="st36" d="M-132.6,441.9h-9v1.2h9V441.9z"/>
<path class="st36" d="M-132.6,445.7h-9v2.3h9V445.7z"/>
<path class="st2" d="M-136.4,441.9h-1.7v-1.2h1.7V441.9z"/>
<ellipse class="st3" cx="-141.3" cy="440.5" rx="6.1" ry="0.9"/>
<path class="st4" d="M-138.4,439.6h-7.5v1.7h7.5V439.6z"/>
<path class="st9" d="M-132.6,441.9h-9v6.1h9V441.9"/>
</svg>
