<?xml version="1.0" encoding="utf-8"?>
<!-- Generator: Adobe Illustrator 19.0.0, SVG Export Plug-In . SVG Version: 6.00 Build 0)  -->
<svg version="1.1" id="图层_1" xmlns="http://www.w3.org/2000/svg" xmlns:xlink="http://www.w3.org/1999/xlink" x="0px" y="0px"
	 viewBox="-61 57.5 96.2 106.5" style="enable-background:new -61 57.5 96.2 106.5;" xml:space="preserve">
<style type="text/css">
	.st0{fill:#007F00;}
	.st1{fill:#64B264;}
	.st2{fill:#CAE4CA;}
	.st3{fill:#FFFFFF;}
	.st4{fill:none;stroke:#000000;stroke-width:0.25;}
	.st5{fill:#329932;}
	.st6{fill:#98CB98;}
</style>
<path class="st0" d="M-15.9,87.2v51.7h6.7V87.2H-15.9z"/>
<path class="st1" d="M-15.3,87.2v51.7h5.5V87.2H-15.3z"/>
<path class="st2" d="M-14.3,87.2v51.7h3.6V87.2H-14.3z"/>
<path class="st3" d="M-13.1,87.2v51.7h1.2V87.2H-13.1z"/>
<path class="st4" d="M-9.3,87.2v51.7"/>
<path class="st4" d="M-15.9,138.9V87.2"/>
<path class="st0" d="M-12.5,96.5h37l-0.2-3.6l-0.6-3.6l-0.8-3.4l-1.2-3.4l-1.6-3l-1.8-3L16,73.5l-2.4-2.6l-2.6-2.2l-2.8-2l-3-1.8
	l-3.2-1.6l-3.4-1.2L-5,61.1l-3.6-0.6l-3.8-0.2l-3.8,0.2l-3.6,0.6l-3.4,0.8l-3.4,1.2l-3.2,1.6l-3.2,1.8l-2.8,2l-2.6,2.2l-2.4,2.6
	l-2,2.8l-2,3l-1.4,3l-1.4,3.4l-0.8,3.4l-0.6,3.6l-0.2,3.6H-12.5z"/>
<path class="st5" d="M-12.5,96.5H21l-0.2-3.6l-0.4-3.6l-0.8-3.4l-1.2-3.2L17,79.3l-1.6-3l-2-2.8L11.1,71l-2.2-2.4l-2.6-2l-2.8-1.8
	l-2.8-1.6l-3.2-1.2l-3-0.8l-3.4-0.6l-3.4-0.2l-3.4,0.2l-3.4,0.6l-3,0.8l-3.2,1.2l-2.8,1.6l-2.8,1.8l-2.6,2l-2.4,2.4l-2,2.4l-2,2.8
	l-1.6,3l-1.4,3.2l-1.2,3.2l-0.8,3.4l-0.4,3.6l-0.2,3.6H-12.5z"/>
<path class="st1" d="M-12.5,96.5h26.7L14,92.9l-0.4-3.6L13,85.8l-0.8-3.2l-1.2-3.2l-1.4-3l-1.4-2.8L6.3,71l-1.8-2.4l-2-2l-2.2-1.8
	l-2.4-1.6l-2.4-1.2L-7,61.1l-2.6-0.6l-2.8-0.2l-2.8,0.2l-2.6,0.6l-2.4,0.8l-2.4,1.2l-2.4,1.6l-2.2,1.8l-2,2l-1.8,2.4l-1.8,2.4
	l-1.4,2.8l-1.4,3l-1.2,3.2l-0.8,3.2l-0.6,3.4l-0.4,3.6l-0.2,3.6H-12.5z"/>
<path class="st6" d="M-12.5,96.5H7.1v-3.6l-0.4-3.6l-0.4-3.4l-0.8-3.4l-0.8-3l-0.8-3l-1.2-2.8l-1.2-2.6L0,68.6l-1.6-2l-3.2-3.4
	l-3.6-2l-4-0.8l-4,0.8l-3.6,2l-3.4,3.4l-1.4,2l-1.4,2.2l-1.4,2.6l-1,2.8l-1,3l-0.8,3l-0.8,3.4l-0.4,3.4l-0.2,3.6l-0.2,3.6H-12.5z"/>
<path class="st2" d="M-12.5,96.5H0.2v-3.6L0,89.2l-0.4-3.4l-0.4-3.4l-0.6-3l-0.6-3l-0.6-2.8l-0.8-2.6l-1-2.2l-2-3.8l-2.2-2.8
	l-2.6-1.4l-1.2-0.2l-2.6,0.8l-2.4,2l-2,3.4l-1,2l-1,2.2l-0.8,2.6l-0.6,2.8l-0.6,3l-0.6,3l-0.4,3.4l-0.4,3.4l-0.2,3.6v3.6H-12.5z"/>
<path class="st4" d="M-12.5,96.5h37l-0.2-3.6l-0.6-3.6l-0.8-3.4l-1.2-3.4l-1.6-3l-1.8-3L16,73.5l-2.4-2.6l-2.6-2.2l-2.8-2l-3-1.8
	l-3.2-1.6l-3.4-1.2L-5,61.1l-3.6-0.6l-3.8-0.2l-3.8,0.2l-3.6,0.6l-3.4,0.8l-3.4,1.2l-3.2,1.6l-3.2,1.8l-2.8,2l-2.6,2.2l-2.4,2.6
	l-2,2.8l-2,3l-1.4,3l-1.4,3.4l-0.8,3.4l-0.6,3.6l-0.2,3.6H-12.5"/>
<path class="st3" d="M-12.5,96.5h3.4v-7.3l-0.2-3.4v-3.4l-0.2-3l-0.2-3l-0.2-2.8l-0.2-2.6l-0.6-4.2l-0.6-3.4l-0.8-2.6l-0.4-0.2
	l-0.4,0.2l-1,2.6l-0.6,3.4l-0.4,4.2l-0.2,2.6l-0.2,2.8l-0.2,3l-0.2,3v3.4l-0.2,3.4v7.3H-12.5z"/>
<path class="st0" d="M32.4,161.2v-45.1l-90.5,45.1v-45.1L32.4,161.2z"/>
<path class="st5" d="M32.4,158.9v-40.4l-90.5,40.4v-40.4L32.4,158.9z"/>
<path class="st1" d="M32.4,154.3v-31.1l-90.5,31.1v-31.1L32.4,154.3z"/>
<path class="st6" d="M32.4,149.6v-22l-90.5,22v-22L32.4,149.6z"/>
<path class="st2" d="M32.4,146.2v-15.2l-90.5,15.2v-15.2L32.4,146.2z"/>
<path class="st3" d="M32.4,141.6v-5.9l-90.5,5.9v-5.9L32.4,141.6z"/>
<path class="st4" d="M32.4,161.2v-45.1l-90.5,45.1v-45.1L32.4,161.2"/>
</svg>
