<?xml version="1.0" encoding="utf-8"?>
<!-- Generator: Adobe Illustrator 19.0.0, SVG Export Plug-In . SVG Version: 6.00 Build 0)  -->
<svg version="1.1" id="图层_1" xmlns="http://www.w3.org/2000/svg" xmlns:xlink="http://www.w3.org/1999/xlink" x="0px" y="0px"
	 viewBox="-21 1.2 64.5 106.5" style="enable-background:new -21 1.2 64.5 106.5;" xml:space="preserve">
<style type="text/css">
	.st0{fill:#007F00;stroke:#000000;stroke-width:0.25;}
	.st1{fill:#007F00;}
	.st2{clip-path:url(#SVGID_4_);fill:#98CB98;}
	.st3{clip-path:url(#SVGID_6_);fill:#FFFFFF;}
	.st4{fill:none;stroke:#000000;stroke-width:0.25;}
</style>
<path class="st0" d="M13.6,79h-2.4V5.2h2.4C13.5,5.2,13.5,79,13.6,79z"/>
<g>
	<g>
		<path id="SVGID_1_" class="st1" d="M41.7,106.1L14.7,79h-4.5l-27.3,27.1H41.7z"/>
	</g>
	<g>
		<defs>
			<polygon id="SVGID_3_" points="41.7,106.1 14.7,79 10.1,79 -17.1,106.1 			"/>
		</defs>
		<clipPath id="SVGID_4_">
			<use xlink:href="#SVGID_3_"  style="overflow:visible;"/>
		</clipPath>
		<path class="st2" d="M10.6,79.6h1.6l-9.5,25.9h-7.6L10.6,79.6z"/>
	</g>
	<g>
		<defs>
			<polygon id="SVGID_5_" points="41.7,106.1 14.7,79 10.1,79 -17.1,106.1 			"/>
		</defs>
		<clipPath id="SVGID_6_">
			<use xlink:href="#SVGID_5_"  style="overflow:visible;"/>
		</clipPath>
		<path class="st3" d="M11.8,79.6L0.6,105.5H-3l14.1-26.1L11.8,79.6z"/>
	</g>
	<g>
		<path id="SVGID_2_" class="st4" d="M41.7,106.1L14.7,79h-4.5l-27.3,27.1H41.7z"/>
	</g>
</g>
</svg>
