<?xml version="1.0" encoding="utf-8"?>
<!-- Generator: Adobe Illustrator 23.0.0, SVG Export Plug-In . SVG Version: 6.00 Build 0)  -->
<svg version="1.1" id="图层_1" xmlns="http://www.w3.org/2000/svg" xmlns:xlink="http://www.w3.org/1999/xlink" x="0px" y="0px"
	 viewBox="0 0 102.1 106.5" style="enable-background:new 0 0 102.1 106.5;" xml:space="preserve">
<style type="text/css">
	.st0{fill:#525252;stroke:#000000;stroke-width:2;}
	.st1{fill:#B8B8B8;stroke:#000000;stroke-linejoin:round;}
	.st2{fill:url(#SVGID_1_);}
</style>
<path class="st0" d="M99.2,50.9c0.5-0.4,0.7-1.1,0.7-1.7L96,11.1c-0.5-3.3-2-5.4-5-5.4H11.1c-3,0-4.6,2.4-5,5.4L2.3,49.3
	c-0.1,0.6,0.2,1.2,0.6,1.7l4.3,4c0.6,0.4,0.8,1,0.7,1.7c-0.3,2-0.4,3.9-0.4,6c0,24,19.5,43.5,43.5,43.5s43.5-19.5,43.5-43.5
	c0-2-0.1-4-0.4-6c-0.1-0.7,0.1-1.3,0.6-1.8L99.2,50.9z"/>
<path d="M93,14.2c-0.4-3.1-1.8-5-4.6-5H14c-2.8,0-4.3,2.3-4.6,5L5.8,49.7c-0.1,0.6,0.2,1.2,0.6,1.6l4,3.7c0.1,0.1,0.3,0.3,0.3,0.5
	C13.8,36,30.7,21,51.1,21c20.3,0,37.2,14.8,40.4,34.3c0.1-0.1,0.2-0.2,0.2-0.3l4.2-3.7c0.4-0.4,0.7-1,0.6-1.6L93,14.2z"/>
<path class="st1" d="M56.8,27.3v-6.6H45.4v6.6c-15.6,1.5-30.2,17.5-30.2,35.4c0,19.8,16,35.8,35.8,35.8s35.8-16,35.8-35.8
	C86.9,44.8,73.8,30,56.8,27.3z"/>
<circle cx="51.1" cy="62.7" r="31.6"/>
<radialGradient id="SVGID_1_" cx="61.2639" cy="54.7158" r="45.1265" gradientTransform="matrix(1 0 0 -1 0 106)" gradientUnits="userSpaceOnUse">
	<stop  offset="0" style="stop-color:#D1D1D1"/>
	<stop  offset="0.5063" style="stop-color:#B2B2B2"/>
	<stop  offset="1" style="stop-color:#7E7E7E"/>
</radialGradient>
<circle class="st2" cx="51.1" cy="62.7" r="30.5"/>
</svg>
