<?xml version="1.0" encoding="utf-8"?>
<!-- Generator: Adobe Illustrator 19.0.0, SVG Export Plug-In . SVG Version: 6.00 Build 0)  -->
<svg version="1.1" id="图层_1" xmlns="http://www.w3.org/2000/svg" xmlns:xlink="http://www.w3.org/1999/xlink" x="0px" y="0px"
	 viewBox="-34 1.2 38.4 106.5" style="enable-background:new -34 1.2 38.4 106.5;" xml:space="preserve">
<style type="text/css">
	.st0{fill:#A9D4A9;stroke:#CCCC00;stroke-width:0.25;}
	.st1{fill:#C3E1C3;}
	.st2{fill:#DCEDDC;}
	.st3{fill:#F5FAF5;}
	.st4{fill:#64B264;stroke:#000000;stroke-width:0.25;}
	.st5{fill:#98CB98;}
	.st6{fill:#FFFFFF;}
	.st7{fill:#CAE4CA;stroke:#000000;stroke-width:0.25;}
	.st8{fill:none;stroke:#000000;stroke-width:0.25;}
	.st9{fill:#329932;stroke:#000000;stroke-width:0.25;}
</style>
<g>
	<path class="st0" d="M1.2,21.6l-1.7,0.9l-2.2,0.4l-2.2-0.4l-1.7-0.9L-7,20.2h8.6L1.2,21.6z"/>
	<path class="st1" d="M0.5,21.3L-1,22l-1.8,0.4l-1.9-0.3l-1.4-0.7l-0.4-1.1h7.4L0.5,21.3z"/>
	<path class="st2" d="M-0.2,21.1l-1.2,0.6l-1.4,0.2l-1.5-0.2l-1.1-0.6l-0.3-0.9h5.9L-0.2,21.1z"/>
	<path class="st3" d="M-0.8,20.9l-0.9,0.4l-1.1,0.2L-4,21.3l-0.9-0.4l-0.2-0.6h4.5L-0.8,20.9z"/>
	<path class="st4" d="M2.5,19.8l-0.9-5.3l-1.7-2.7h-5.3l-1.7,2.7l-1,5.3H2.5z"/>
	<path class="st5" d="M0.3,19.8l-0.5-5.3l-1.1-2.7h-3l-1.1,2.7l-0.5,5.3H0.3z"/>
	<path class="st6" d="M-1.9,19.8L-2,14.5l-0.3-2.7h-0.9l-0.3,2.7l-0.1,5.3H-1.9z"/>
	<path class="st7" d="M3,19.8v0.9H-8.5v-0.9H3z"/>
	<path class="st8" d="M-1.5,11.8h-2.6"/>
	<path class="st9" d="M-1.2,11.8V6.6h-28.2V107h3.1V9.7h22v2.1H-1.2z"/>
	<path class="st5" d="M-1.7,11.8V7.1h-27.2V107h2V9.2h23v2.7L-1.7,11.8L-1.7,11.8z"/>
	<path class="st6" d="M-2.2,11.8V7.7h-26.1v99.4h1V8.6h24.1v3.2H-2.2z"/>
</g>
</svg>
