<?xml version="1.0" encoding="utf-8"?>
<!-- Generator: Adobe Illustrator 19.0.0, SVG Export Plug-In . SVG Version: 6.00 Build 0)  -->
<svg version="1.1" id="图层_1" xmlns="http://www.w3.org/2000/svg" xmlns:xlink="http://www.w3.org/1999/xlink" x="0px" y="0px"
	 viewBox="-44 1.2 18.5 106.5" style="enable-background:new -44 1.2 18.5 106.5;" xml:space="preserve">
<style type="text/css">
	.st0{fill:#006600;stroke:#000000;stroke-width:0.25;}
	.st1{fill:#64B264;}
	.st2{fill:#FFFFFF;}
	.st3{fill:#329932;stroke:#000000;stroke-width:0.25;}
	.st4{fill:#64B264;stroke:#000000;stroke-width:0.25;}
	.st5{fill:none;stroke:#000000;stroke-width:0.25;}
	.st6{fill:#98CB98;stroke:#000000;stroke-width:0.25;}
	.st7{fill:#CAE4CA;}
</style>
<path class="st0" d="M-33.8,105.8V19.1h-2.1v86.8h2.1V105.8z"/>
<path class="st1" d="M-34.3,105.8V19.1h-1.2v86.8h1.2V105.8z"/>
<path class="st2" d="M-34.6,105.8V19.1H-35v86.8h0.4V105.8z"/>
<path class="st0" d="M-33.8,17.7v1.4h-2.1v-1.4H-33.8z"/>
<path class="st3" d="M-33.8,18l-5.3-0.3l-1.5-8.6h-0.5l5.8-3.1V5.4h1.1v0.5l5.8,3.1h-4.7L-33.8,18z"/>
<path class="st4" d="M-33.8,18l0.5-9.2l4.2,0.2l-1.6,8.4L-33.8,18z"/>
<path class="st5" d="M-33.2,8.8L-40.6,9"/>
<path class="st6" d="M-34.1,11.2l-0.2-0.6l-0.5-0.6l-1-0.3l-1.1-0.1l-1,0.1l-1,0.3l-0.6,0.6l-0.1,0.6l1.1,6l4.2,0.3L-34.1,11.2z"/>
<path class="st6" d="M-29.8,10.7l-0.1-0.4l-0.3-0.4l-0.5-0.2l-0.6-0.1l-0.5,0.1l-0.5,0.2l-0.3,0.4l-0.1,0.4l-0.3,6.7l2-0.3
	L-29.8,10.7z"/>
<path class="st7" d="M-34.7,13.5l-0.4-1.1l-1.1-0.4l-1.1,0.4l-0.4,1.1l0.4,1.1l1.1,0.4l1.1-0.4L-34.7,13.5z"/>
<path class="st7" d="M-30.9,13.5l-0.2-0.7l-0.7-0.2l-0.6,0.2l-0.3,0.7l0.3,0.6l0.6,0.3l0.7-0.2L-30.9,13.5z"/>
<path class="st2" d="M-35.1,13.6l-0.3-0.6l-0.5-0.2l-0.5,0.2l-0.2,0.6l0.2,0.5l0.5,0.2l0.5-0.2L-35.1,13.6z"/>
<path class="st2" d="M-31.4,13.5l-0.2-0.3l-0.3-0.1l-0.4,0.1l-0.1,0.3l0.1,0.4l0.4,0.1l0.3-0.1L-31.4,13.5z"/>
<path class="st5" d="M-34.3,5.9h-1.1"/>
</svg>
