<?xml version="1.0" encoding="utf-8"?>
<!-- Generator: Adobe Illustrator 19.0.0, SVG Export Plug-In . SVG Version: 6.00 Build 0)  -->
<svg version="1.1" id="图层_1" xmlns="http://www.w3.org/2000/svg" xmlns:xlink="http://www.w3.org/1999/xlink" x="0px" y="0px"
	 viewBox="-2 1.2 102.4 106.5" style="enable-background:new -2 1.2 102.4 106.5;" xml:space="preserve">
<style type="text/css">
	.st0{fill:#A9D4A9;stroke:#7F7F7F;stroke-width:0.25;}
	.st1{fill:#B7DBB7;}
	.st2{fill:#C4E1C4;}
	.st3{fill:#D2E8D2;}
	.st4{fill:#DFEFDF;}
	.st5{fill:#EDF6ED;}
	.st6{fill:#006600;stroke:#000000;stroke-width:0.25;}
	.st7{fill:none;stroke:#000000;stroke-width:0.25;}
	.st8{fill:#B2D8B2;stroke:#000000;stroke-width:0.25;}
	.st9{fill:#007300;}
	.st10{fill:#329932;stroke:#000000;stroke-width:0.25;}
	.st11{fill:#98CB98;}
	.st12{fill:#329932;}
	.st13{fill:#7EBF7E;}
</style>
<path class="st0" d="M62.7,60.6l1.4,2.7l0.7,2.9l0.3,2.3l0.1,0.6v0.5l-0.4,3.6l-1.1,3.4l-1.6,3.1L60,82.5l-2.7,2.2l-3.1,1.6
	l-3.4,1.1L49,87.7l-1.8,0.1l-1.8-0.1L41.9,87l-3.2-1.4l-3-1.9l-2.5-2.5l-1.9-2.9L29.9,75l-0.7-3.5v-1.8v-0.5l0.3-3l0.9-2.9l1.3-2.7
	l6.5-21.1h18.1L62.7,60.6z"/>
<path class="st1" d="M61.2,60.4l1.2,2.5l0.6,2.9l0.3,2.2l0.1,0.5v0.7L63,72.4l-1,3l-1.4,2.8l-2,2.5l-2.5,1.9l-2.7,1.5l-3.1,1
	l-1.6,0.2L47,85.4l-1.6-0.1l-3.2-0.6l-2.9-1.2l-2.6-1.7l-2.2-2.2L33,76.8l-1.3-2.9l-0.6-3.2L31,69.2v-0.6l0.5-3.3l0.7-2.9l1.4-3.2
	l1.1-3.7l1.2-3.7l1.1-3.7l1-3.9l0.7-2.5l0.3-1.3h1.1h3.1h8.1h3h1l1.2,3.7l1.1,3.7l1.2,3.7l1.1,3.7l1.1,3.7L61.2,60.4z"/>
<path class="st2" d="M59.5,60.1l1.2,2.9l0.6,2.9l0.1,1.6l0.1,0.5v0.5l-0.3,2.8l-0.9,2.8L59,76.4l-1.8,2.1l-2.1,1.8l-2.3,1.3L50,82.5
	l-1.4,0.2l-1.5,0.1l-1.4-0.1L43,82.2l-2.7-1.1l-2.2-1.6l-2.8-3.1L34,74.1l-0.9-2.8L33,69.9l-0.1-1.4V68l0.4-3.3l0.7-2.8l1.2-3l1-3.5
	l1-3.5l1-3.4l1-3.6l0.6-2.2l0.3-1.3h1l3.5,0.1h6.3l3.6-0.1l1,3.5l1,3.6l1,3.4l1,3.5l1,3.5V60.1z"/>
<path class="st3" d="M57.9,59.8l1.1,2.8l0.5,2.9l0.1,1.5v0.5v0.4l-0.5,3.6l-1.6,3.3L55,77.5l-3,1.8l-3.6,1l-1.3,0.1L46,80.2l-3.6-1
	l-3-1.8l-2.5-2.7l-1.6-3.3l-0.5-2.2v-1.3v-0.4l0.3-3.2l0.6-2.8l1-2.8l1-3.3l0.7-3.2l1-3.3l0.7-3.3l0.5-2.2l0.3-1.1h0.7h3.2h5.4h3.1
	l0.9,3.3l0.9,3.3l0.9,3.3l0.9,3.2l0.9,3.3L57.9,59.8z"/>
<path class="st4" d="M56.3,59.5l0.9,2.7l0.4,2.8l0.1,1.5v0.4v0.3l-0.4,3.1L56,73.1l-2.1,2.2l-2.6,1.6l-3.1,0.7l-1.1,0.1L46,77.6
	l-3-0.7l-2.6-1.6l-2.1-2.2L37,70.3l-0.4-2l0-1.1v-0.4l0.3-3l0.5-2.8l0.9-2.6l0.7-3.1l0.7-3l0.7-3.1l0.6-3.1l0.5-2l0.2-1.1h0.6
	l3.3,0.1h3.9l2.7-0.1l0.7,3.1l0.7,3.1l0.6,3.1l0.7,3l0.7,3.1L56.3,59.5z"/>
<path class="st5" d="M54.6,59.1l0.9,3.1l0.3,3.2v0.4l0.1,0.4v0.3l-0.7,3.3l-1.9,2.8l-2.7,1.9L48,75.2h-0.9h-0.9l-3.1-1l-2.7-2.1
	l-1.5-2.9l-0.3-1.7v-0.9v-0.3l0.2-3l0.5-3.1l0.4-1.1l3.1-15h8.7L54.6,59.1z"/>
<path class="st6" d="M37.2,37.5l-2-8l-4.1-8.1h32.2l-4.1,8.1l-1.9,8H37.2z"/>
<path class="st7" d="M35.1,29.5h24.1"/>
<path class="st8" d="M37.7,39.5v-2h19.1v2H37.7z"/>
<path class="st9" d="M-1,13.4h96.5v-8H-1V13.4z"/>
<path class="st10" d="M79.4,69.7V21.4h-8.1v48.3l-0.2,3.6l-0.9,3.5l-1.3,3.3l-1.7,3l-2.1,2.8l-2.6,2.3l-2.9,2l-3.1,1.6L53.2,93
	l-3.6,0.6L46,93.8l-3.6-0.4L39,92.3l-3.3-1.4L32.8,89l-2.7-2.2l-2.2-2.7L26,81.2L24.6,78l-1.1-3.4l-0.4-3.7v-1.2V21.4H15v48.3
	l0.2,3.3l0.4,3.2l0.9,3.1l1.1,2.9l1.4,2.9l1.6,2.7l1.9,2.5l2,2.2l2.2,2.1l2.5,1.8L32,98l2.8,1.4l3,1.1l3,0.9l3.2,0.4l1.7,0.1
	l1.6,0.1l1.7-0.1l3.2-0.3l3.1-0.6l3.1-1l2.9-1.2l2.7-1.5l2.7-1.7l2.3-2l2.1-2.1l2-2.5l1.7-2.6l1.5-2.7l1.2-3l1-3l0.6-3.1l0.4-3.3
	L79.4,69.7L79.4,69.7z"/>
<path class="st11" d="M76.8,69.7V21.4h-3v48.3l-0.3,4.1l-0.9,3.8l-1.4,3.6l-1.9,3.3L67,87.6l-2.8,2.7L61,92.5l-3.5,1.7l-3.7,1.3
	l-4,0.7l-4.1,0.1l-3.9-0.5L38,94.7l-3.5-1.6L31.3,91l-2.9-2.5l-2.6-3l-2.1-3.2l-1.6-3.5L21,75l-0.4-3.9l-0.1-1.4V21.4h-3v48.3l0.1,3
	l0.5,3l0.7,2.9l1,2.7l1.3,2.6l1.5,2.5l1.7,2.3l1.8,2l2.1,2l2.3,1.7l2.5,1.4l2.6,1.3l2.7,1.1l2.9,0.6l3,0.5l1.5,0.1h1.5h1.5l3-0.3
	l3-0.6l2.8-0.9l2.7-1.1l2.5-1.4l2.3-1.6l2.2-1.8l2-2l1.8-2.2l1.6-2.3l1.4-2.6l1.1-2.6l1-2.9l0.5-2.9l0.3-3L76.8,69.7L76.8,69.7z"/>
<path class="st12" d="M11,21.4h72.4v-8H11V21.4z"/>
<path class="st11" d="M11,18.8h72.4v-2.9H11V18.8z"/>
<path class="st7" d="M11,21.4h72.4v-8H11V21.4"/>
<path class="st12" d="M11,77.7h72.4v-8H11V77.7z"/>
<path class="st11" d="M11,75.1h72.4v-2.9H11V75.1z"/>
<path class="st7" d="M11,77.7h72.4v-8H11V77.7"/>
<path class="st12" d="M11,49.5h72.4v-8H11V49.5z"/>
<path class="st11" d="M11,47h72.4v-2.9H11V47z"/>
<path class="st7" d="M11,49.5h72.4v-8H11V49.5"/>
<path class="st12" d="M43.1,21.4v84.4h8.1V21.4H43.1z"/>
<path class="st11" d="M45.8,21.4v84.4h2.9V21.4H45.8z"/>
<path class="st7" d="M43.1,21.4v84.4h8.1V21.4H43.1"/>
<path class="st12" d="M14,13.4h66.3v-8H14V13.4z"/>
<path class="st13" d="M35.1,13.4h24.1v-8H35.1V13.4z"/>
<path class="st7" d="M-1,13.4h96.5v-8H-1V13.4"/>
</svg>
