<?xml version="1.0" standalone="no"?>
<!DOCTYPE svg PUBLIC "-//W3C//DTD SVG 1.1//EN"
"http://www.w3.org/Graphics/SVG/1.1/DTD/svg11.dtd">
<svg width="170.0800" height="170.0800" viewBox="0.0000 0.0000 170.0800 170.0800"  version="1.1" xmlns="http://www.w3.org/2000/svg" xmlns:xlink="http://www.w3.org/1999/xlink" onload='Init(evt)'>
   <script type='text/ecmascript'><![CDATA[
          var SVGDocument = null;
          var SVGRoot = null;
          function Init(evt)
          {
                SVGDocument = evt.target.ownerDocument;
                 SVGRoot = SVGDocument.documentElement;
          }
         function Toggle(evt,targetId)
          {
                      var obj = evt.target;
         if (targetId)
         {
            obj = SVGDocument.getElementById(targetId);
         }
                id=obj.getAttributeNS(null, 'id');
                var myobj,i,myid,strs,params,Number,states,state,cur
                strs=id.split("(");
                params=strs[1].split(";");
                Number=strs[0];
                states=params[1];
                state=params[2];
                cur=params[3];
                states=parseInt(states);
                state=parseInt(state);
                if(state+1>=states)
                        state=0;
                else
                        state=state+1;
                for(i=0;i<states;i++)
                {
                        myid=Number+'('+params[0]+';'+states+';'+i+';'+cur+';'+params[4]+';'+params[5]+';'+params[6]+';'+params[7];
                        myobj=SVGDocument.getElementById(myid);
                        if(i==state)
                        {
                                myobj.setAttributeNS(null, 'visibility', 'visible');
                        }
                        else
                        {
                                myobj.setAttributeNS(null, 'visibility', 'hidden');
                        }
                }
        }
   ]]></script>
<symbol id="Anonymous(000000;1;0;0;x;x;0;0)" >
<path transform="matrix(1.0000,0.0000,0.0000,1.0000,83.6710,79.8590)" d="M35.0405,23.7575L35.0405,0.2055C35.0405,-16.3855,23.5055,-30.2505,8.0275,-33.8925C7.9345,-38.2535,4.3845,-41.7555,0.0095,-41.7555C-4.3685,-41.7555,-7.9335,-38.2375,-8.0255,-33.8925C-23.5015,-30.2505,-35.0375,-16.3855,-35.0375,0.2055L-35.0375,23.7585C-40.8685,23.7585,-45.5915,28.4805,-45.5915,34.3105L-45.5915,41.7555L45.5905,41.7555L45.5905,34.3105C45.5915,28.4795,40.8725,23.7575,35.0405,23.7575Z" style="fill-opacity:1.0000;fill:#32CD32;stroke:none "/>
<path transform="matrix(1.0000,0.0000,0.0000,1.0000,83.6710,133.4065)" d="M0.0105,5.5600C6.9955,5.5600,12.8415,0.8540,14.6835,-5.5600L-14.6835,-5.5600C-12.8385,0.8540,-6.9925,5.5600,0.0105,5.5600Z" style="fill-opacity:1.0000;fill:#32CD32;stroke:none "/>
<path transform="matrix(1.0000,0.0000,0.0000,1.0000,27.6610,79.4785)" d="M0.5225,0.0420C0.5225,-6.4510,2.3345,-12.7760,5.7625,-18.2500C6.8905,-20.0530,6.3455,-22.4280,4.5425,-23.5570C2.7405,-24.6850,0.3645,-24.1400,-0.7635,-22.3380C-4.9595,-15.6380,-7.1775,-7.8990,-7.1775,0.0410C-7.1775,8.1940,-4.8485,16.1050,-0.4435,22.9230C0.2935,24.0640,1.5315,24.6850,2.7935,24.6850C3.5095,24.6850,4.2335,24.4860,4.8795,24.0680C6.6655,22.9160,7.1775,20.5320,6.0235,18.7460C2.4255,13.1770,0.5225,6.7090,0.5225,0.0420Z" style="fill-opacity:1.0000;fill:#32CD32;stroke:none "/>
<path transform="matrix(1.0000,0.0000,0.0000,1.0000,11.0725,79.5695)" d="M-0.6920,-0.0490C-0.6920,-9.8910,2.0540,-19.4800,7.2500,-27.7770C8.4490,-29.6920,7.8690,-32.2160,5.9540,-33.4150C4.0380,-34.6150,1.5150,-34.0340,0.3160,-32.1190C-5.6960,-22.5190,-8.8740,-11.4300,-8.8740,-0.0500C-8.8740,11.6340,-5.5370,22.9740,0.7770,32.7450C1.5590,33.9550,2.8750,34.6150,4.2160,34.6150C4.9760,34.6150,5.7460,34.4020,6.4320,33.9600C8.3300,32.7340,8.8740,30.2020,7.6480,28.3040C2.1920,19.8610,-0.6920,10.0570,-0.6920,-0.0490Z" style="fill-opacity:1.0000;fill:#32CD32;stroke:none "/>
<path transform="matrix(1.0000,0.0000,0.0000,1.0000,141.1270,79.4790)" d="M-4.5425,-23.5565C-6.3465,-22.4275,-6.8905,-20.0525,-5.7635,-18.2495C-2.3355,-12.7775,-0.5225,-6.4525,-0.5225,0.0415C-0.5225,6.7085,-2.4245,13.1745,-6.0245,18.7465C-7.1775,20.5325,-6.6675,22.9165,-4.8795,24.0695C-4.2335,24.4865,-3.5095,24.6855,-2.7945,24.6855C-1.5305,24.6855,-0.2935,24.0645,0.4425,22.9235C4.8475,16.1055,7.1775,8.1925,7.1775,0.0415C7.1775,-7.8985,4.9585,-15.6385,0.7635,-22.3375C-0.3655,-24.1395,-2.7425,-24.6855,-4.5425,-23.5565Z" style="fill-opacity:1.0000;fill:#32CD32;stroke:none "/>
<path transform="matrix(1.0000,0.0000,0.0000,1.0000,157.7140,79.5710)" d="M-0.3145,-32.1195C-1.5135,-34.0345,-4.0385,-34.6155,-5.9525,-33.4155C-7.8675,-32.2165,-8.4485,-29.6925,-7.2485,-27.7775C-2.0525,-19.4795,0.6945,-9.8915,0.6945,-0.0495C0.6945,10.0565,-2.1925,19.8605,-7.6475,28.3045C-8.8755,30.2025,-8.3295,32.7355,-6.4315,33.9605C-5.7465,34.4025,-4.9765,34.6155,-4.2155,34.6155C-2.8735,34.6155,-1.5585,33.9555,-0.7775,32.7455C5.5365,22.9745,8.8745,11.6345,8.8745,-0.0495C8.8755,-11.4295,5.6995,-22.5185,-0.3145,-32.1195Z" style="fill-opacity:1.0000;fill:#32CD32;stroke:none "/>
</symbol>
<use id='Anonymous(000000;1;0;0;x;x;0;0)' onclick='Toggle(evt,"Anonymous(000000;1;0;0;x;x;0;0)")' transform="matrix(0.6679,0.7442,-0.7442,0.6679,93.9165,-33.4077)"   x="0" y="0"  xlink:href="#Anonymous(000000;1;0;0;x;x;0;0)" />

</svg>