<?xml version="1.0" encoding="utf-8"?>
<!-- Generator: Adobe Illustrator 23.0.0, SVG Export Plug-In . SVG Version: 6.00 Build 0)  -->
<svg version="1.1" id="图层_1" xmlns="http://www.w3.org/2000/svg" xmlns:xlink="http://www.w3.org/1999/xlink" x="0px" y="0px"
	 viewBox="0 0 102.1 106.5" style="enable-background:new 0 0 102.1 106.5;" xml:space="preserve">
<style type="text/css">
	.st0{fill:#525252;stroke:#000000;stroke-width:2;}
	.st1{fill:#FF9C9D;stroke:#000000;stroke-linejoin:round;}
	.st2{fill:url(#SVGID_1_);}
</style>
<path class="st0" d="M99.2,48.2c0.5-0.4,0.7-1.1,0.7-1.7L96,8.4C95.5,5.1,94,3,91,3H11.1c-3,0-4.6,2.4-5,5.4L2.3,46.6
	c-0.1,0.6,0.2,1.2,0.6,1.7l4.3,4C7.8,52.7,8,53.3,7.9,54c-0.3,2-0.4,3.9-0.4,6c0,24,19.5,43.5,43.5,43.5S94.5,84,94.5,60
	c0-2-0.1-4-0.4-6c-0.1-0.7,0.1-1.3,0.6-1.8L99.2,48.2z"/>
<path d="M93,11.5c-0.4-3.1-1.8-5-4.6-5H14c-2.8,0-4.3,2.3-4.6,5L5.8,47c-0.1,0.6,0.2,1.2,0.6,1.6l4,3.7c0.1,0.1,0.3,0.3,0.3,0.5
	c3.1-19.5,20-34.5,40.4-34.5c20.3,0,37.2,14.8,40.4,34.3c0.1-0.1,0.2-0.2,0.2-0.3l4.2-3.7c0.4-0.4,0.7-1,0.6-1.6L93,11.5z"/>
<path class="st1" d="M56.8,24.6V18H45.4v6.6C29.8,26.1,15.2,42.1,15.2,60c0,19.8,16,35.8,35.8,35.8c19.8,0,35.8-16,35.8-35.8
	C86.9,42.1,73.8,27.3,56.8,24.6z"/>
<circle cx="51.1" cy="60" r="31.6"/>
<radialGradient id="SVGID_1_" cx="61.2882" cy="48.6342" r="45.1265" gradientUnits="userSpaceOnUse">
	<stop  offset="0" style="stop-color:#FFCFD0"/>
	<stop  offset="0.3531" style="stop-color:#FF9C9D"/>
	<stop  offset="0.6732" style="stop-color:#F46D61"/>
	<stop  offset="0.8761" style="stop-color:#F32B22"/>
	<stop  offset="1" style="stop-color:#F30800"/>
</radialGradient>
<circle class="st2" cx="51.1" cy="60" r="30.5"/>
</svg>
