<svg xmlns="http://www.w3.org/2000/svg" xmlns:xlink="http://www.w3.org/1999/xlink" viewBox="0 0 150 104.76">
    <defs>
        <style>
            .cls-1 {
                fill: #c6c6c6;
            }

            .cls-2,
            .cls-8 {
                fill: #aaa;
            }

            .cls-13,
            .cls-2,
            .cls-7 {
                stroke: #727272;
                stroke-miterlimit: 10;
            }

            .cls-2 {
                stroke-width: 0.5px;
            }

            .cls-3 {
                fill: url(#未命名的渐变_4);
            }

            .cls-4 {
                fill: url(#未命名的渐变_4-2);
            }

            .cls-5 {
                fill: url(#未命名的渐变_4-3);
            }

            .cls-6 {
                fill: url(#未命名的渐变_4-4);
            }

            .cls-13,
            .cls-7 {
                stroke-width: 0.25px;
            }

            .cls-7 {
                fill: url(#未命名的渐变_74);
            }

            .cls-9 {
                fill: url(#未命名的渐变_4-5);
            }

            .cls-10 {
                fill: url(#未命名的渐变_4-6);
            }

            .cls-11 {
                fill: url(#未命名的渐变_4-7);
            }

            .cls-12 {
                fill: url(#未命名的渐变_4-8);
            }

            .cls-13 {
                fill: url(#未命名的渐变_74-2);
            }

            .cls-14 {
                opacity: 0.2;
            }
        </style>
        <linearGradient id="未命名的渐变_4" x1="91.66" y1="46" x2="105.5" y2="46"
            gradientTransform="translate(43.85 -42.07) rotate(30.87)" gradientUnits="userSpaceOnUse">
            <stop offset="0" stop-color="#aaa" />
            <stop offset="0.18" stop-color="#ccc" />
            <stop offset="0.37" stop-color="#eaeaea" />
            <stop offset="0.48" stop-color="#f6f6f6" />
            <stop offset="0.55" stop-color="#f0f0f0" />
            <stop offset="0.64" stop-color="#dfdfdf" />
            <stop offset="0.75" stop-color="#c4c4c4" />
            <stop offset="0.86" stop-color="#9e9e9e" />
            <stop offset="0.98" stop-color="#6d6d6d" />
            <stop offset="1" stop-color="#666" />
        </linearGradient>
        <linearGradient id="未命名的渐变_4-2" x1="91.42" y1="1161.49" x2="105.26" y2="1161.49"
            gradientTransform="matrix(0.86, 0.51, 0.51, -0.86, -588.38, 1015.59)" xlink:href="#未命名的渐变_4" />
        <linearGradient id="未命名的渐变_4-3" x1="-1025.45" y1="44.9" x2="-1011.6" y2="44.9"
            gradientTransform="translate(-375.69 962.05) rotate(120.87)" xlink:href="#未命名的渐变_4" />
        <linearGradient id="未命名的渐变_4-4" x1="-1025.47" y1="1154.47" x2="-1011.63" y2="1154.47"
            gradientTransform="matrix(-0.51, 0.86, 0.86, 0.51, -1425.94, 334.25)" xlink:href="#未命名的渐变_4" />
        <linearGradient id="未命名的渐变_74" x1="98.15" y1="63.24" x2="98.15" y2="53.47"
            gradientTransform="translate(43.85 -42.07) rotate(30.87)" gradientUnits="userSpaceOnUse">
            <stop offset="0" stop-color="#6b6b6b" />
            <stop offset="0.01" stop-color="#767676" />
            <stop offset="0.03" stop-color="#959595" />
            <stop offset="0.04" stop-color="#aaa" />
            <stop offset="0.37" stop-color="#ccc" />
            <stop offset="0.74" stop-color="#eaeaea" />
            <stop offset="0.94" stop-color="#f6f6f6" />
            <stop offset="0.95" stop-color="#ededed" />
            <stop offset="0.96" stop-color="#d4d4d4" />
            <stop offset="0.97" stop-color="#ababab" />
            <stop offset="0.99" stop-color="#737373" />
            <stop offset="0.99" stop-color="#666" />
        </linearGradient>
        <linearGradient id="未命名的渐变_4-5" x1="38.38" y1="30.11" x2="57.72" y2="30.11"
            gradientTransform="matrix(1, 0, 0, 1, 0, 0)" xlink:href="#未命名的渐变_4" />
        <linearGradient id="未命名的渐变_4-6" x1="38.04" y1="1167.57" x2="57.38" y2="1167.57"
            gradientTransform="matrix(1, 0, 0, -1, 0, 1232.22)" xlink:href="#未命名的渐变_4" />
        <linearGradient id="未命名的渐变_4-7" x1="-1039.08" y1="90.82" x2="-1019.74" y2="90.82"
            gradientTransform="translate(155.09 1077.13) rotate(90)" xlink:href="#未命名的渐变_4" />
        <linearGradient id="未命名的渐变_4-8" x1="-1039.08" y1="1098.86" x2="-1019.74" y2="1098.86"
            gradientTransform="matrix(0, 1, 1, 0, -1068.5, 1077.13)" xlink:href="#未命名的渐变_4" />
        <linearGradient id="未命名的渐变_74-2" x1="47.39" y1="54.23" x2="47.39" y2="40.58"
            gradientTransform="matrix(1, 0, 0, 1, 0, 0)" xlink:href="#未命名的渐变_74" />
    </defs>
    <title>IoT-pump（泵）</title>
    <g id="图层_18" data-name="图层 18">
        <circle class="cls-1" cx="98.11" cy="58.38" r="33.92" />
        <circle class="cls-2" cx="98.11" cy="58.38" r="30.02" />
        <path class="cls-3"
            d="M98.71,59.81l-3-1.81a2.94,2.94,0,0,1-1.17-3.72l8.57-19a2.94,2.94,0,0,1,4.18-1.31L115.71,39a2.93,2.93,0,0,1,.69,4.46l-14,15.78A2.92,2.92,0,0,1,98.71,59.81Z" />
        <path class="cls-4"
            d="M99.46,58.09l-3-1.81A2.93,2.93,0,0,0,92.6,57L79.9,73.56a2.93,2.93,0,0,0,.82,4.3l8.46,5.06a2.93,2.93,0,0,0,4.25-1.51l7.28-19.8A2.92,2.92,0,0,0,99.46,58.09Z" />
        <path class="cls-5"
            d="M96.54,58.63l1.81-3a2.93,2.93,0,0,1,3.72-1.17l19,8.57a2.92,2.92,0,0,1,1.31,4.17l-5,8.46a2.94,2.94,0,0,1-4.46.69l-15.79-14A2.94,2.94,0,0,1,96.54,58.63Z" />
        <path class="cls-6"
            d="M98.59,59.82l1.81-3A2.93,2.93,0,0,0,99.67,53L83.12,40.26a2.93,2.93,0,0,0-4.3.82l-5.06,8.46a2.93,2.93,0,0,0,1.51,4.25l19.79,7.28A2.93,2.93,0,0,0,98.59,59.82Z" />
        <circle class="cls-7" cx="98.15" cy="58.38" r="4.88" />
        <circle class="cls-1" cx="47.32" cy="47.4" r="47.4" />
        <circle class="cls-2" cx="47.32" cy="47.4" r="41.94" />
        <rect class="cls-1" x="-0.08" y="92.03" width="150.17" height="12.71" />
        <rect class="cls-8" x="-0.08" y="95.78" width="150.17" height="5.87" />
        <path class="cls-9"
            d="M49.14,48.68H44.21a4.09,4.09,0,0,1-4.07-3.62l-3.37-29a4.1,4.1,0,0,1,4.07-4.57H54.61a4.09,4.09,0,0,1,4,4.85l-5.46,29A4.1,4.1,0,0,1,49.14,48.68Z" />
        <path class="cls-10"
            d="M48.8,46.08H43.87A4.09,4.09,0,0,0,39.8,49.7l-3.37,29a4.1,4.1,0,0,0,4.07,4.57H54.27a4.09,4.09,0,0,0,4-4.85l-5.46-29A4.1,4.1,0,0,0,48.8,46.08Z" />
        <path class="cls-11"
            d="M45.69,48.82V43.89a4.1,4.1,0,0,1,3.62-4.07l29-3.37a4.1,4.1,0,0,1,4.57,4.07V54.28a4.1,4.1,0,0,1-4.85,4L49,52.84A4.09,4.09,0,0,1,45.69,48.82Z" />
        <path class="cls-12"
            d="M49,48.82V43.89a4.1,4.1,0,0,0-3.63-4.07l-29-3.37a4.1,4.1,0,0,0-4.57,4.07V54.28a4.1,4.1,0,0,0,4.86,4l29-5.47A4.08,4.08,0,0,0,49,48.82Z" />
        <circle class="cls-13" cx="47.39" cy="47.4" r="6.82" />
    </g>
    
</svg>