<svg xmlns="http://www.w3.org/2000/svg" xmlns:xlink="http://www.w3.org/1999/xlink" viewBox="0 0 150 86.44">
    <defs>
        <style>
            .cls-1 {
                fill: url(#未命名的渐变_105);
            }

            .cls-2 {
                fill: url(#未命名的渐变_105-2);
            }

            .cls-3 {
                fill: url(#未命名的渐变_105-3);
            }

            .cls-4 {
                fill: url(#未命名的渐变_105-4);
            }

            .cls-5 {
                fill: url(#未命名的渐变_105-5);
            }

            .cls-6 {
                fill: url(#未命名的渐变_105-6);
            }

            .cls-7 {
                fill: url(#未命名的渐变_74);
            }

            .cls-8 {
                fill: url(#未命名的渐变_74-2);
            }

            .cls-9 {
                fill: url(#未命名的渐变_74-3);
            }

            .cls-10 {
                fill: url(#未命名的渐变_105-7);
            }

            .cls-11 {
                fill: url(#未命名的渐变_105-8);
            }

            .cls-12 {
                fill: url(#未命名的渐变_105-9);
            }

            .cls-13 {
                fill: url(#未命名的渐变_105-10);
            }

            .cls-14 {
                fill: url(#未命名的渐变_105-11);
            }

            .cls-15 {
                fill: url(#未命名的渐变_105-12);
            }

            .cls-16 {
                fill: url(#未命名的渐变_105-13);
            }

            .cls-17 {
                fill: url(#未命名的渐变_105-14);
            }

            .cls-18 {
                fill: url(#未命名的渐变_105-15);
            }

            .cls-19 {
                fill: url(#未命名的渐变_105-16);
            }

            .cls-20 {
                fill: url(#未命名的渐变_105-17);
            }

            .cls-21 {
                fill: url(#未命名的渐变_105-18);
            }

            .cls-22 {
                fill: url(#未命名的渐变_105-19);
            }

            .cls-23 {
                fill: url(#未命名的渐变_105-20);
            }

            .cls-24 {
                fill: url(#未命名的渐变_105-21);
            }

            .cls-25 {
                fill: url(#未命名的渐变_67);
            }

            .cls-26 {
                fill: url(#未命名的渐变_67-2);
            }

            .cls-27 {
                fill: #818382;
            }

            .cls-28 {
                fill: url(#未命名的渐变_105-22);
            }

            .cls-29 {
                fill: url(#未命名的渐变_105-23);
            }

            .cls-30 {
                fill: url(#未命名的渐变_105-24);
            }

            .cls-31 {
                fill: url(#未命名的渐变_105-25);
            }

            .cls-32 {
                fill: url(#未命名的渐变_105-26);
            }

            .cls-33 {
                fill: url(#未命名的渐变_105-27);
            }

            .cls-34 {
                fill: url(#未命名的渐变_105-28);
            }

            .cls-35 {
                fill: url(#未命名的渐变_105-29);
            }

            .cls-36 {
                fill: url(#未命名的渐变_105-30);
            }

            .cls-37 {
                fill: url(#未命名的渐变_105-31);
            }

            .cls-38 {
                fill: url(#未命名的渐变_105-32);
            }

            .cls-39 {
                fill: url(#未命名的渐变_105-33);
            }

            .cls-40 {
                fill: url(#未命名的渐变_105-34);
            }

            .cls-41 {
                fill: url(#未命名的渐变_105-35);
            }

            .cls-42 {
                fill: url(#未命名的渐变_105-36);
            }

            .cls-43 {
                fill: url(#未命名的渐变_105-37);
            }

            .cls-44 {
                fill: url(#未命名的渐变_67-3);
            }

            .cls-45 {
                fill: url(#未命名的渐变_67-4);
            }

            .cls-46 {
                opacity: 0.2;
            }
        </style>
        <linearGradient id="未命名的渐变_105" x1="8.77" y1="52.39" x2="8.77" y2="37.18" gradientUnits="userSpaceOnUse">
            <stop offset="0" stop-color="#e2e2e2" />
            <stop offset="0.03" stop-color="#d0d0d0" />
            <stop offset="0.06" stop-color="#bcbcbc" />
            <stop offset="0.09" stop-color="#b5b5b5" />
            <stop offset="0.49" stop-color="#f6f6f6" />
            <stop offset="0.63" stop-color="#f3f3f3" />
            <stop offset="0.73" stop-color="#eaeaea" />
            <stop offset="0.82" stop-color="#dbdbdb" />
            <stop offset="0.9" stop-color="#c6c6c6" />
            <stop offset="0.97" stop-color="#aaa" />
            <stop offset="1" stop-color="#9b9b9b" />
        </linearGradient>
        <linearGradient id="未命名的渐变_105-2" x1="8.57" y1="54.1" x2="8.57" y2="35.08" xlink:href="#未命名的渐变_105" />
        <linearGradient id="未命名的渐变_105-3" x1="21.61" y1="47.67" x2="21.61" y2="41.33" xlink:href="#未命名的渐变_105" />
        <linearGradient id="未命名的渐变_105-4" x1="31.25" y1="59.01" x2="31.25" y2="30.53" xlink:href="#未命名的渐变_105" />
        <linearGradient id="未命名的渐变_105-5" x1="26.47" y1="54.81" x2="26.47" y2="36.78" xlink:href="#未命名的渐变_105" />
        <linearGradient id="未命名的渐变_105-6" x1="54.31" y1="67.98" x2="54.31" y2="20.97" xlink:href="#未命名的渐变_105" />
        <linearGradient id="未命名的渐变_74" x1="41.12" y1="73.56" x2="62.99" y2="73.56" gradientUnits="userSpaceOnUse">
            <stop offset="0" stop-color="#6b6b6b" />
            <stop offset="0.01" stop-color="#767676" />
            <stop offset="0.03" stop-color="#959595" />
            <stop offset="0.04" stop-color="#aaa" />
            <stop offset="0.37" stop-color="#ccc" />
            <stop offset="0.74" stop-color="#eaeaea" />
            <stop offset="0.94" stop-color="#f6f6f6" />
            <stop offset="0.95" stop-color="#ededed" />
            <stop offset="0.96" stop-color="#d4d4d4" />
            <stop offset="0.97" stop-color="#ababab" />
            <stop offset="0.99" stop-color="#737373" />
            <stop offset="0.99" stop-color="#666" />
        </linearGradient>
        <linearGradient id="未命名的渐变_74-2" x1="49.33" y1="73.56" x2="54.15" y2="73.56" xlink:href="#未命名的渐变_74" />
        <linearGradient id="未命名的渐变_74-3" x1="32.1" y1="82.78" x2="72.46" y2="82.78" xlink:href="#未命名的渐变_74" />
        <linearGradient id="未命名的渐变_105-7" x1="98.66" y1="10.79" x2="142.81" y2="10.79" xlink:href="#未命名的渐变_105" />
        <linearGradient id="未命名的渐变_105-8" x1="74.89" y1="56.51" x2="74.89" y2="33.47" xlink:href="#未命名的渐变_105" />
        <linearGradient id="未命名的渐变_105-9" x1="112.28" y1="69.9" x2="112.28" y2="18.36" xlink:href="#未命名的渐变_105" />
        <linearGradient id="未命名的渐变_105-10" x1="102.77" y1="26.78" x2="102.77" y2="19.99" xlink:href="#未命名的渐变_105" />
        <linearGradient id="未命名的渐变_105-11" x1="78.93" y1="50.97" x2="78.93" y2="38.38" xlink:href="#未命名的渐变_105" />
        <linearGradient id="未命名的渐变_105-12" x1="92.59" y1="49.9" x2="92.59" y2="40.26" xlink:href="#未命名的渐变_105" />
        <linearGradient id="未命名的渐变_105-13" x1="141.52" y1="58.21" x2="141.52" y2="35.71" xlink:href="#未命名的渐变_105" />
        <linearGradient id="未命名的渐变_105-14" x1="141.99" y1="66.91" x2="141.99" y2="24.72" xlink:href="#未命名的渐变_105" />
        <linearGradient id="未命名的渐变_105-15" x1="100.79" y1="24.72" x2="100.79" y2="21.91" xlink:href="#未命名的渐变_105" />
        <linearGradient id="未命名的渐变_105-16" x1="93.03" y1="35.55" x2="93.03" y2="30.49" xlink:href="#未命名的渐变_105" />
        <linearGradient id="未命名的渐变_105-17" x1="91.56" y1="34.02" x2="91.56" y2="31.92" xlink:href="#未命名的渐变_105" />
        <linearGradient id="未命名的渐变_105-18" x1="92.98" y1="60.74" x2="92.98" y2="55.68" xlink:href="#未命名的渐变_105" />
        <linearGradient id="未命名的渐变_105-19" x1="91.5" y1="59.2" x2="91.5" y2="57.11" xlink:href="#未命名的渐变_105" />
        <linearGradient id="未命名的渐变_105-20" x1="102.69" y1="74.77" x2="102.69" y2="67.98" xlink:href="#未命名的渐变_105" />
        <linearGradient id="未命名的渐变_105-21" x1="100.71" y1="72.71" x2="100.71" y2="69.9" xlink:href="#未命名的渐变_105" />
        <linearGradient id="未命名的渐变_67" x1="125.87" y1="77.22" x2="125.87" y2="15.35" gradientUnits="userSpaceOnUse">
            <stop offset="0" stop-color="#6b6b6b" />
            <stop offset="0.11" stop-color="#767676" />
            <stop offset="0.3" stop-color="#959595" />
            <stop offset="0.41" stop-color="#aaa" />
            <stop offset="0.56" stop-color="#ccc" />
            <stop offset="0.71" stop-color="#eaeaea" />
            <stop offset="0.8" stop-color="#f6f6f6" />
            <stop offset="0.83" stop-color="#ededed" />
            <stop offset="0.87" stop-color="#d4d4d4" />
            <stop offset="0.92" stop-color="#ababab" />
            <stop offset="0.98" stop-color="#737373" />
            <stop offset="0.99" stop-color="#666" />
        </linearGradient>
        <linearGradient id="未命名的渐变_67-2" x1="107.28" y1="3.21" x2="133.04" y2="3.21" xlink:href="#未命名的渐变_67" />
        <linearGradient id="未命名的渐变_105-22" x1="90.22" y1="55.68" x2="90.22" y2="35.55" xlink:href="#未命名的渐变_105" />
        <linearGradient id="未命名的渐变_105-23" x1="96.12" y1="63.56" x2="96.12" y2="29.19" xlink:href="#未命名的渐变_105" />
        <linearGradient id="未命名的渐变_105-24" x1="107.28" y1="77.22" x2="107.28" y2="15.35" xlink:href="#未命名的渐变_105" />
        <linearGradient id="未命名的渐变_105-25" x1="141.99" y1="27" x2="141.99" y2="26.06" xlink:href="#未命名的渐变_105" />
        <linearGradient id="未命名的渐变_105-26" x1="141.99" y1="30.12" x2="141.99" y2="29.19" xlink:href="#未命名的渐变_105" />
        <linearGradient id="未命名的渐变_105-27" x1="141.99" y1="33.25" x2="141.99" y2="32.31" xlink:href="#未命名的渐变_105" />
        <linearGradient id="未命名的渐变_105-28" x1="141.99" y1="36.37" x2="141.99" y2="35.44" xlink:href="#未命名的渐变_105" />
        <linearGradient id="未命名的渐变_105-29" x1="141.99" y1="39.5" x2="141.99" y2="38.56" xlink:href="#未命名的渐变_105" />
        <linearGradient id="未命名的渐变_105-30" x1="141.99" y1="42.62" x2="141.99" y2="41.69" xlink:href="#未命名的渐变_105" />
        <linearGradient id="未命名的渐变_105-31" x1="141.99" y1="45.75" x2="141.99" y2="44.81" xlink:href="#未命名的渐变_105" />
        <linearGradient id="未命名的渐变_105-32" x1="141.99" y1="48.87" x2="141.99" y2="47.94" xlink:href="#未命名的渐变_105" />
        <linearGradient id="未命名的渐变_105-33" x1="141.99" y1="52" x2="141.99" y2="51.06" xlink:href="#未命名的渐变_105" />
        <linearGradient id="未命名的渐变_105-34" x1="141.99" y1="55.12" x2="141.99" y2="54.19" xlink:href="#未命名的渐变_105" />
        <linearGradient id="未命名的渐变_105-35" x1="141.99" y1="58.25" x2="141.99" y2="57.31" xlink:href="#未命名的渐变_105" />
        <linearGradient id="未命名的渐变_105-36" x1="141.99" y1="61.37" x2="141.99" y2="60.44" xlink:href="#未命名的渐变_105" />
        <linearGradient id="未命名的渐变_105-37" x1="141.99" y1="64.5" x2="141.99" y2="63.56" xlink:href="#未命名的渐变_105" />
        <linearGradient id="未命名的渐变_67-3" x1="33.71" y1="68.05" x2="33.71" y2="20.97" xlink:href="#未命名的渐变_67" />
        <linearGradient id="未命名的渐变_67-4" x1="40.4" y1="68.02" x2="40.4" y2="20.94" xlink:href="#未命名的渐变_67" />
    </defs>
    <title>IoT-pump（泵）</title>
    <g id="图层_6" data-name="图层 6">
        <rect class="cls-1" y="37.18" width="17.54" height="15.21" />
        <rect class="cls-2" x="3.53" y="35.08" width="10.09" height="19.02" />
        <rect class="cls-3" x="17.54" y="41.33" width="8.13" height="6.34" />
        <rect class="cls-4" x="27.28" y="30.53" width="7.95" height="28.48" />
        <rect class="cls-5" x="25.67" y="36.78" width="1.61" height="18.04" />
        <rect class="cls-6" x="35.22" y="20.97" width="38.17" height="47.01" />
        <rect class="cls-7" x="41.12" y="68" width="21.88" height="11.12" />
        <rect class="cls-8" x="49.33" y="68" width="4.82" height="11.12" />
        <rect class="cls-9" x="32.1" y="79.12" width="40.36" height="7.32" />
        <rect class="cls-10" x="98.66" y="6.24" width="44.15" height="9.11" />
        <rect class="cls-11" x="73.39" y="33.47" width="2.99" height="23.04" />
        <rect class="cls-12" x="108.79" y="18.36" width="6.96" height="51.54" />
        <rect class="cls-13" x="101.74" y="19.99" width="2.05" height="6.79" />
        <rect class="cls-14" x="76.38" y="38.38" width="5.09" height="12.59" />
        <rect class="cls-15" x="81.47" y="40.26" width="22.24" height="9.64" />
        <rect class="cls-16" x="133.04" y="35.71" width="16.96" height="22.5" />
        <rect class="cls-17" x="138.13" y="24.72" width="7.72" height="42.19" />
        <rect class="cls-18" x="99.84" y="21.91" width="1.9" height="2.81" />
        <rect class="cls-19" x="92.27" y="30.49" width="1.53" height="5.06" />
        <rect class="cls-20" x="90.85" y="31.92" width="1.41" height="2.1" />
        <rect class="cls-21" x="92.21" y="55.68" width="1.53" height="5.06" />
        <rect class="cls-22" x="90.8" y="57.11" width="1.41" height="2.1" />
        <rect class="cls-23" x="101.66" y="67.98" width="2.05" height="6.79" />
        <rect class="cls-24" x="99.77" y="69.9" width="1.9" height="2.81" />
        <path class="cls-25"
            d="M134.24,77.22H114.42V15.35h19.82a149.27,149.27,0,0,1,3.08,30.94C137.34,66.06,134.24,77.22,134.24,77.22Z" />
        <rect class="cls-26" x="107.28" y="0.17" width="25.76" height="6.07" />
        <circle class="cls-27" cx="54.31" cy="44.48" r="10.08" />
        <rect class="cls-28" x="86.38" y="35.55" width="7.66" height="20.13" />
        <rect class="cls-29" x="93.57" y="29.19" width="5.09" height="34.38" />
        <rect class="cls-30" x="103.79" y="15.35" width="6.96" height="61.88" />
        <rect class="cls-31" x="138.13" y="26.06" width="7.72" height="0.94" />
        <rect class="cls-32" x="138.13" y="29.19" width="7.72" height="0.94" />
        <rect class="cls-33" x="138.13" y="32.31" width="7.72" height="0.94" />
        <rect class="cls-34" x="138.13" y="35.44" width="7.72" height="0.94" />
        <rect class="cls-35" x="138.13" y="38.56" width="7.72" height="0.94" />
        <rect class="cls-36" x="138.13" y="41.69" width="7.72" height="0.94" />
        <rect class="cls-37" x="138.13" y="44.81" width="7.72" height="0.94" />
        <rect class="cls-38" x="138.13" y="47.94" width="7.72" height="0.94" />
        <rect class="cls-39" x="138.13" y="51.06" width="7.72" height="0.94" />
        <rect class="cls-40" x="138.13" y="54.19" width="7.72" height="0.94" />
        <rect class="cls-41" x="138.13" y="57.31" width="7.72" height="0.94" />
        <rect class="cls-42" x="138.13" y="60.44" width="7.72" height="0.94" />
        <rect class="cls-43" x="138.13" y="63.56" width="7.72" height="0.94" />
        <rect class="cls-44" x="32.19" y="20.97" width="3.04" height="47.08" />
        <rect class="cls-45" x="38.88" y="20.94" width="3.04" height="47.08" />
    </g>
    
</svg>