<svg xmlns="http://www.w3.org/2000/svg" xmlns:xlink="http://www.w3.org/1999/xlink" viewBox="0 0 120.89 150">
    <defs>
        <style>
            .cls-1 {
                fill: url(#未命名的渐变_105);
            }

            .cls-2 {
                fill: url(#未命名的渐变_105-2);
            }

            .cls-3 {
                fill: url(#未命名的渐变_74);
            }

            .cls-4 {
                fill: url(#未命名的渐变_74-2);
            }

            .cls-5 {
                fill: url(#未命名的渐变_74-3);
            }

            .cls-6 {
                fill: url(#未命名的渐变_74-4);
            }

            .cls-7 {
                fill: url(#未命名的渐变_105-3);
            }

            .cls-8 {
                fill: url(#未命名的渐变_105-4);
            }

            .cls-9 {
                fill: url(#未命名的渐变_74-5);
            }

            .cls-10 {
                fill: #b7b7b7;
            }

            .cls-11,
            .cls-20,
            .cls-21 {
                stroke: #727272;
                stroke-miterlimit: 10;
                stroke-width: 0.1px;
            }

            .cls-11 {
                fill: url(#未命名的渐变_74-6);
            }

            .cls-12 {
                fill: url(#未命名的渐变_105-5);
            }

            .cls-13 {
                fill: url(#未命名的渐变_105-6);
            }

            .cls-14 {
                fill: url(#未命名的渐变_105-7);
            }

            .cls-15 {
                fill: url(#未命名的渐变_105-8);
            }

            .cls-16 {
                fill: url(#未命名的渐变_105-9);
            }

            .cls-17 {
                fill: url(#未命名的渐变_105-10);
            }

            .cls-18 {
                fill: url(#未命名的渐变_105-11);
            }

            .cls-19 {
                fill: url(#未命名的渐变_105-12);
            }

            .cls-20 {
                fill: url(#未命名的渐变_74-7);
            }

            .cls-21 {
                fill: url(#未命名的渐变_74-8);
            }

            .cls-22 {
                fill: url(#未命名的渐变_105-13);
            }

            .cls-23 {
                fill: url(#未命名的渐变_67);
            }

            .cls-24 {
                fill: url(#未命名的渐变_105-14);
            }

            .cls-25 {
                fill: url(#未命名的渐变_67-2);
            }

            .cls-26 {
                fill: url(#未命名的渐变_74-9);
            }

            .cls-27 {
                fill: url(#未命名的渐变_105-15);
            }

            .cls-28 {
                fill: url(#未命名的渐变_143);
            }

            .cls-29 {
                fill: url(#未命名的渐变_105-16);
            }

            .cls-30 {
                fill: url(#未命名的渐变_143-2);
            }

            .cls-31 {
                fill: url(#未命名的渐变_143-3);
            }

            .cls-32 {
                fill: url(#未命名的渐变_143-4);
            }

            .cls-33 {
                fill: url(#未命名的渐变_105-17);
            }

            .cls-34 {
                fill: url(#未命名的渐变_74-10);
            }

            .cls-35 {
                fill: url(#未命名的渐变_67-3);
            }

            .cls-36 {
                opacity: 0.2;
            }
        </style>
        <linearGradient id="未命名的渐变_105" x1="5.49" y1="114.27" x2="5.49" y2="101.42" gradientUnits="userSpaceOnUse">
            <stop offset="0" stop-color="#e2e2e2" />
            <stop offset="0.03" stop-color="#d0d0d0" />
            <stop offset="0.06" stop-color="#bcbcbc" />
            <stop offset="0.09" stop-color="#b5b5b5" />
            <stop offset="0.49" stop-color="#f6f6f6" />
            <stop offset="0.63" stop-color="#f3f3f3" />
            <stop offset="0.73" stop-color="#eaeaea" />
            <stop offset="0.82" stop-color="#dbdbdb" />
            <stop offset="0.9" stop-color="#c6c6c6" />
            <stop offset="0.97" stop-color="#aaa" />
            <stop offset="1" stop-color="#9b9b9b" />
        </linearGradient>
        <linearGradient id="未命名的渐变_105-2" x1="-71.62" y1="114.27" x2="-71.62" y2="101.42"
            gradientTransform="matrix(1, 0, 0, -1, 186.24, 215.69)" xlink:href="#未命名的渐变_105" />
        <linearGradient id="未命名的渐变_74" x1="7.5" y1="112.05" x2="31.15" y2="112.05" gradientUnits="userSpaceOnUse">
            <stop offset="0" stop-color="#6b6b6b" />
            <stop offset="0.01" stop-color="#767676" />
            <stop offset="0.03" stop-color="#959595" />
            <stop offset="0.04" stop-color="#aaa" />
            <stop offset="0.37" stop-color="#ccc" />
            <stop offset="0.74" stop-color="#eaeaea" />
            <stop offset="0.94" stop-color="#f6f6f6" />
            <stop offset="0.95" stop-color="#ededed" />
            <stop offset="0.96" stop-color="#d4d4d4" />
            <stop offset="0.97" stop-color="#ababab" />
            <stop offset="0.99" stop-color="#737373" />
            <stop offset="0.99" stop-color="#666" />
        </linearGradient>
        <linearGradient id="未命名的渐变_74-2" x1="89.2" y1="112.05" x2="112.85" y2="112.05" xlink:href="#未命名的渐变_74" />
        <linearGradient id="未命名的渐变_74-3" x1="-95.45" y1="49.07" x2="-70.92" y2="49.07"
            gradientTransform="matrix(-1, 0, 0, 1, 25.43, 0)" xlink:href="#未命名的渐变_74" />
        <linearGradient id="未命名的渐变_74-4" x1="26.79" y1="49.07" x2="51.32" y2="49.07"
            gradientTransform="translate(-26.79)" xlink:href="#未命名的渐变_74" />
        <linearGradient id="未命名的渐变_105-3" x1="39" y1="117.93" x2="39" y2="25.28" xlink:href="#未命名的渐变_105" />
        <linearGradient id="未命名的渐变_105-4" x1="-73.36" y1="118.02" x2="-73.36" y2="25.37"
            gradientTransform="matrix(-1, 0, 0, 1, 7.6, 0)" xlink:href="#未命名的渐变_105" />
        <linearGradient id="未命名的渐变_74-5" x1="39.42" y1="84.83" x2="81.95" y2="84.83" xlink:href="#未命名的渐变_74" />
        <linearGradient id="未命名的渐变_74-6" x1="60.62" y1="91.19" x2="60.62" y2="65.9" xlink:href="#未命名的渐变_74" />
        <linearGradient id="未命名的渐变_105-5" x1="60.62" y1="69.03" x2="60.62" y2="66.89" xlink:href="#未命名的渐变_105" />
        <linearGradient id="未命名的渐变_105-6" x1="67.59" y1="71.41" x2="67.59" y2="69.27" xlink:href="#未命名的渐变_105" />
        <linearGradient id="未命名的渐变_105-7" x1="70.91" y1="79.17" x2="70.91" y2="77.03" xlink:href="#未命名的渐变_105" />
        <linearGradient id="未命名的渐变_105-8" x1="67.59" y1="86.93" x2="67.59" y2="84.79" xlink:href="#未命名的渐变_105" />
        <linearGradient id="未命名的渐变_105-9" x1="68.97" y1="163.07" x2="68.97" y2="160.93"
            gradientTransform="matrix(0.4, -0.92, 0.92, 0.4, -115.45, 87.13)" xlink:href="#未命名的渐变_105" />
        <linearGradient id="未命名的渐变_105-10" x1="69" y1="155.28" x2="69" y2="153.14"
            gradientTransform="matrix(0.4, -0.92, 0.92, 0.4, -115.45, 87.13)" xlink:href="#未命名的渐变_105" />
        <linearGradient id="未命名的渐变_105-11" x1="74.47" y1="149.69" x2="74.47" y2="147.55"
            gradientTransform="matrix(0.4, -0.92, 0.92, 0.4, -115.45, 87.13)" xlink:href="#未命名的渐变_105" />
        <linearGradient id="未命名的渐变_105-12" x1="82.46" y1="149.43" x2="82.46" y2="147.29"
            gradientTransform="matrix(0.4, -0.92, 0.92, 0.4, -115.45, 87.13)" xlink:href="#未命名的渐变_105" />
        <linearGradient id="未命名的渐变_74-7" x1="60.62" y1="86.74" x2="60.62" y2="70.34" xlink:href="#未命名的渐变_74" />
        <linearGradient id="未命名的渐变_74-8" x1="60.62" y1="84.27" x2="60.62" y2="72.82" xlink:href="#未命名的渐变_74" />
        <linearGradient id="未命名的渐变_105-13" x1="27.06" y1="114.27" x2="27.06" y2="29.12" xlink:href="#未命名的渐变_105" />
        <linearGradient id="未命名的渐变_67" x1="27.08" y1="114.27" x2="27.08" y2="29.12" gradientUnits="userSpaceOnUse">
            <stop offset="0" stop-color="#6b6b6b" />
            <stop offset="0.11" stop-color="#767676" />
            <stop offset="0.3" stop-color="#959595" />
            <stop offset="0.41" stop-color="#aaa" />
            <stop offset="0.56" stop-color="#ccc" />
            <stop offset="0.71" stop-color="#eaeaea" />
            <stop offset="0.8" stop-color="#f6f6f6" />
            <stop offset="0.83" stop-color="#ededed" />
            <stop offset="0.87" stop-color="#d4d4d4" />
            <stop offset="0.92" stop-color="#ababab" />
            <stop offset="0.98" stop-color="#737373" />
            <stop offset="0.99" stop-color="#666" />
        </linearGradient>
        <linearGradient id="未命名的渐变_105-14" x1="93.99" y1="114.27" x2="93.99" y2="29.12" xlink:href="#未命名的渐变_105" />
        <linearGradient id="未命名的渐变_67-2" x1="58.91" y1="130.96" x2="58.91" y2="116.91" xlink:href="#未命名的渐变_67" />
        <linearGradient id="未命名的渐变_74-9" x1="19.28" y1="149.82" x2="19.28" y2="136.99" xlink:href="#未命名的渐变_74" />
        <linearGradient id="未命名的渐变_105-15" x1="0" y1="23.25" x2="27.06" y2="23.25" xlink:href="#未命名的渐变_105" />
        <linearGradient id="未命名的渐变_143" y1="23.1" x2="27.06" y2="23.1" gradientUnits="userSpaceOnUse">
            <stop offset="0" stop-color="#b7b7b7" />
            <stop offset="0.03" stop-color="#9b9d9d" />
            <stop offset="0.07" stop-color="#878b8b" />
            <stop offset="0.09" stop-color="#808484" />
            <stop offset="0.2" stop-color="#a3a6a6" />
            <stop offset="0.49" stop-color="#f6f6f6" />
            <stop offset="0.61" stop-color="#f3f3f3" />
            <stop offset="0.7" stop-color="#eaeaea" />
            <stop offset="0.77" stop-color="#dbdbdb" />
            <stop offset="0.83" stop-color="#c5c5c5" />
            <stop offset="0.9" stop-color="#aaa" />
            <stop offset="0.95" stop-color="#888" />
            <stop offset="1" stop-color="#666" />
        </linearGradient>
        <linearGradient id="未命名的渐变_105-16" x1="-95.45" y1="23.25" x2="-68.39" y2="23.25"
            gradientTransform="matrix(1, 0, 0, -1, 189.28, 46.5)" xlink:href="#未命名的渐变_105" />
        <linearGradient id="未命名的渐变_143-2" x1="-95.45" y1="23.26" x2="-68.39" y2="23.26"
            gradientTransform="matrix(1, 0, 0, -1, 189.28, 46.52)" xlink:href="#未命名的渐变_143" />
        <linearGradient id="未命名的渐变_143-3" x1="21.24" y1="17.39" x2="21.24" y2="0.11" xlink:href="#未命名的渐变_143" />
        <linearGradient id="未命名的渐变_143-4" x1="-81.82" y1="17.39" x2="-81.82" y2="0.11"
            gradientTransform="matrix(-1, 0, 0, 1, 17.16, 0)" xlink:href="#未命名的渐变_143" />
        <linearGradient id="未命名的渐变_105-17" x1="-34.57" y1="14.11" x2="-34.57" y2="0"
            gradientTransform="matrix(1, 0, 0, -1, 94.56, 14.11)" xlink:href="#未命名的渐变_105" />
        <linearGradient id="未命名的渐变_74-10" x1="101.02" y1="150" x2="101.02" y2="137.17" xlink:href="#未命名的渐变_74" />
        <linearGradient id="未命名的渐变_67-3" x1="93.99" y1="114.27" x2="93.99" y2="29.12" xlink:href="#未命名的渐变_67" />
    </defs>
    <title>IoT-pump（泵）</title>
    <g id="图层_34" data-name="图层 34">
        <path class="cls-1"
            d="M2,101.42H9.42a0,0,0,0,1,0,0v12.85a0,0,0,0,1,0,0H2a.43.43,0,0,1-.43-.43v-12A.43.43,0,0,1,2,101.42Z" />
        <path class="cls-2"
            d="M111.13,101.42h7.42a0,0,0,0,1,0,0v12.85a0,0,0,0,1,0,0h-7.42a.43.43,0,0,1-.43-.43v-12A.43.43,0,0,1,111.13,101.42Z"
            transform="translate(229.25 215.69) rotate(180)" />
        <rect class="cls-3" x="7.5" y="86.93" width="23.65" height="50.24" />
        <rect class="cls-4" x="89.2" y="86.93" width="23.65" height="50.24" />
        <polygon class="cls-5" points="103.22 69.03 120.89 50.62 120.89 29.12 96.35 29.12 103.22 69.03" />
        <polygon class="cls-6" points="17.67 69.03 0 50.62 0 29.12 24.54 29.12 17.67 69.03" />
        <path class="cls-7" d="M72,71.6,13.48,26.26A4.63,4.63,0,0,0,6,29.92v83.37A4.63,4.63,0,0,0,13.48,117Z" />
        <path class="cls-8" d="M48,71.7l58.5-45.35A4.63,4.63,0,0,1,114,30v83.37a4.63,4.63,0,0,1-7.47,3.66Z" />
        <rect class="cls-9" x="39.42" y="49.92" width="42.53" height="69.83" />
        <circle class="cls-10" cx="60.62" cy="78.54" r="17.55" />
        <circle class="cls-11" cx="60.62" cy="78.54" r="12.64" />
        <circle class="cls-12" cx="60.62" cy="67.96" r="1.07" />
        <circle class="cls-13" cx="67.59" cy="70.34" r="1.07" />
        <circle class="cls-14" cx="70.91" cy="78.1" r="1.07" />
        <circle class="cls-15" cx="67.59" cy="85.86" r="1.07" />
        <circle class="cls-16" cx="60.62" cy="88.47" r="1.07" />
        <circle class="cls-17" cx="53.49" cy="85.34" r="1.07" />
        <circle class="cls-18" cx="50.54" cy="78.1" r="1.07" />
        <circle class="cls-19" cx="53.49" cy="70.67" r="1.07" />
        <circle class="cls-20" cx="60.62" cy="78.54" r="8.2" />
        <circle class="cls-21" cx="60.62" cy="78.54" r="5.73" />
        <rect class="cls-22" x="19.33" y="29.12" width="15.47" height="85.16" />
        <rect class="cls-23" x="26.01" y="29.12" width="2.15" height="85.16" />
        <rect class="cls-24" x="86.25" y="29.12" width="15.47" height="85.16" />
        <path class="cls-25"
            d="M19,116.91h81.41a0,0,0,0,1,0,0v14a0,0,0,0,1,0,0H19a1.6,1.6,0,0,1-1.6-1.6V118.51a1.6,1.6,0,0,1,1.6-1.6Z" />
        <rect class="cls-26" x="7.45" y="136.99" width="23.65" height="12.83" />
        <rect class="cls-27" y="17.39" width="27.06" height="11.73" />
        <rect class="cls-28" y="22.36" width="27.06" height="1.47" />
        <rect class="cls-29" x="93.83" y="17.39" width="27.06" height="11.73"
            transform="translate(214.71 46.5) rotate(180)" />
        <rect class="cls-30" x="93.83" y="22.68" width="27.06" height="1.16"
            transform="translate(214.71 46.52) rotate(180)" />
        <path class="cls-31"
            d="M33.34,13.55,33.25.11s-11-.15-17.9,5.38c-5.39,4.33-6.2,11.9-6.2,11.9H26.48s-.53-.86,1.78-2.67C30.23,13.18,33.34,13.55,33.34,13.55Z" />
        <path class="cls-32"
            d="M86.89,13.55,87,.11S98,0,104.87,5.49c5.39,4.33,6.2,11.9,6.2,11.9H93.74s.53-.86-1.78-2.67C90,13.18,86.89,13.55,86.89,13.55Z" />
        <rect class="cls-33" x="30.8" width="58.4" height="14.11" transform="translate(120 14.11) rotate(180)" />
        <rect class="cls-34" x="89.2" y="137.17" width="23.65" height="12.83" />
        <rect class="cls-35" x="92.91" y="29.12" width="2.15" height="85.16" />
        
    </g>
</svg>