<svg xmlns="http://www.w3.org/2000/svg" xmlns:xlink="http://www.w3.org/1999/xlink" viewBox="0 0 65.93 150">
    <defs>
        <style>
            .cls-1 {
                fill: url(#未命名的渐变_105);
            }

            .cls-2 {
                fill: url(#未命名的渐变_105-2);
            }

            .cls-3 {
                fill: url(#未命名的渐变_105-3);
            }

            .cls-4 {
                fill: url(#未命名的渐变_105-4);
            }

            .cls-5 {
                fill: url(#未命名的渐变_105-5);
            }

            .cls-6 {
                fill: #3e3938;
            }

            .cls-7 {
                fill: url(#未命名的渐变_105-6);
            }

            .cls-8 {
                fill: url(#未命名的渐变_143);
            }

            .cls-9 {
                fill: url(#未命名的渐变_143-2);
            }

            .cls-10 {
                fill: url(#未命名的渐变_143-3);
            }

            .cls-11 {
                fill: url(#未命名的渐变_143-4);
            }

            .cls-12 {
                fill: url(#未命名的渐变_105-7);
            }

            .cls-13 {
                fill: url(#未命名的渐变_143-5);
            }

            .cls-14 {
                opacity: 0.2;
            }
        </style>
        <linearGradient id="未命名的渐变_105" x1="409.42" y1="-203.38" x2="409.42" y2="-268.76"
            gradientTransform="matrix(0, -1, -1, 0, -202.82, 509.32)" gradientUnits="userSpaceOnUse">
            <stop offset="0" stop-color="#e2e2e2" />
            <stop offset="0.03" stop-color="#d0d0d0" />
            <stop offset="0.06" stop-color="#bcbcbc" />
            <stop offset="0.09" stop-color="#b5b5b5" />
            <stop offset="0.49" stop-color="#f6f6f6" />
            <stop offset="0.63" stop-color="#f3f3f3" />
            <stop offset="0.73" stop-color="#eaeaea" />
            <stop offset="0.82" stop-color="#dbdbdb" />
            <stop offset="0.9" stop-color="#c6c6c6" />
            <stop offset="0.97" stop-color="#aaa" />
            <stop offset="1" stop-color="#9b9b9b" />
        </linearGradient>
        <linearGradient id="未命名的渐变_105-2" x1="5.11" y1="34.21" x2="15.78" y2="34.21"
            gradientTransform="matrix(1, 0, 0, 1, 0, 0)" xlink:href="#未命名的渐变_105" />
        <linearGradient id="未命名的渐变_105-3" x1="6.91" y1="30.53" x2="14.48" y2="30.53"
            gradientTransform="matrix(1, 0, 0, 1, 0, 0)" xlink:href="#未命名的渐变_105" />
        <linearGradient id="未命名的渐变_105-4" x1="50.05" y1="34.21" x2="60.72" y2="34.21"
            gradientTransform="matrix(1, 0, 0, 1, 0, 0)" xlink:href="#未命名的渐变_105" />
        <linearGradient id="未命名的渐变_105-5" x1="51.85" y1="30.53" x2="59.42" y2="30.53"
            gradientTransform="matrix(1, 0, 0, 1, 0, 0)" xlink:href="#未命名的渐变_105" />
        <linearGradient id="未命名的渐变_105-6" x1="22.58" y1="11.98" x2="43.97" y2="11.98"
            gradientTransform="matrix(1, 0, 0, 1, 0, 0)" xlink:href="#未命名的渐变_105" />
        <linearGradient id="未命名的渐变_143" x1="-1196.48" y1="1707.23" x2="-1131.3" y2="1707.23"
            gradientTransform="translate(1197.23 -1585.5)" gradientUnits="userSpaceOnUse">
            <stop offset="0" stop-color="#b7b7b7" />
            <stop offset="0.03" stop-color="#9b9d9d" />
            <stop offset="0.07" stop-color="#878b8b" />
            <stop offset="0.09" stop-color="#808484" />
            <stop offset="0.2" stop-color="#a3a6a6" />
            <stop offset="0.49" stop-color="#f6f6f6" />
            <stop offset="0.61" stop-color="#f3f3f3" />
            <stop offset="0.7" stop-color="#eaeaea" />
            <stop offset="0.77" stop-color="#dbdbdb" />
            <stop offset="0.83" stop-color="#c5c5c5" />
            <stop offset="0.9" stop-color="#aaa" />
            <stop offset="0.95" stop-color="#888" />
            <stop offset="1" stop-color="#666" />
        </linearGradient>
        <linearGradient id="未命名的渐变_143-2" x1="-1196.48" y1="1703.01" x2="-1131.3" y2="1703.01"
            gradientTransform="translate(1197.23 -1577.06)" xlink:href="#未命名的渐变_143" />
        <linearGradient id="未命名的渐变_143-3" x1="43.97" y1="7.95" x2="22.58" y2="7.95"
            gradientTransform="matrix(1, 0, 0, 1, 0, 0)" xlink:href="#未命名的渐变_143" />
        <linearGradient id="未命名的渐变_143-4" x1="43.97" y1="16.53" x2="22.58" y2="16.53"
            gradientTransform="matrix(1, 0, 0, 1, 0, 0)" xlink:href="#未命名的渐变_143" />
        <linearGradient id="未命名的渐变_105-7" x1="15.78" y1="36.88" x2="50.05" y2="36.88"
            gradientTransform="matrix(1, 0, 0, 1, 0, 0)" xlink:href="#未命名的渐变_105" />
        <linearGradient id="未命名的渐变_143-5" x1="65.93" y1="38.91" x2="0" y2="38.91"
            gradientTransform="matrix(1, 0, 0, 1, 0, 0)" xlink:href="#未命名的渐变_143" />
    </defs>
    <title>IoT-pump（泵）</title>
    <g id="图层_29" data-name="图层 29">
        <path class="cls-1" d="M.56,49.83v94.51S2.14,150,34.36,150c23.78,0,31.57-5.64,31.57-5.64V49.83Z" />
        <rect class="cls-2" x="5.11" y="32.73" width="10.67" height="2.96" />
        <rect class="cls-3" x="6.91" y="28.33" width="7.57" height="4.4" />
        <rect class="cls-4" x="50.05" y="32.73" width="10.67" height="2.96" />
        <rect class="cls-5" x="51.85" y="28.33" width="7.57" height="4.4" />
        <circle class="cls-6" cx="4.33" cy="129.73" r="1.87" />
        <circle class="cls-6" cx="10.2" cy="129.73" r="1.87" />
        <circle class="cls-6" cx="16.06" cy="129.73" r="1.87" />
        <circle class="cls-6" cx="21.93" cy="129.73" r="1.87" />
        <circle class="cls-6" cx="27.79" cy="129.73" r="1.87" />
        <circle class="cls-6" cx="33.65" cy="129.73" r="1.87" />
        <circle class="cls-6" cx="39.52" cy="129.73" r="1.87" />
        <circle class="cls-6" cx="45.38" cy="129.73" r="1.87" />
        <circle class="cls-6" cx="51.25" cy="129.73" r="1.87" />
        <circle class="cls-6" cx="57.11" cy="129.73" r="1.87" />
        <circle class="cls-6" cx="62.97" cy="129.73" r="1.87" />
        <circle class="cls-6" cx="4.02" cy="141.23" r="1.87" />
        <circle class="cls-6" cx="9.89" cy="141.23" r="1.87" />
        <circle class="cls-6" cx="15.75" cy="141.23" r="1.87" />
        <circle class="cls-6" cx="21.61" cy="141.23" r="1.87" />
        <circle class="cls-6" cx="27.48" cy="141.23" r="1.87" />
        <circle class="cls-6" cx="33.34" cy="141.23" r="1.87" />
        <circle class="cls-6" cx="39.21" cy="141.23" r="1.87" />
        <circle class="cls-6" cx="45.07" cy="141.23" r="1.87" />
        <circle class="cls-6" cx="50.93" cy="141.23" r="1.87" />
        <circle class="cls-6" cx="56.8" cy="141.23" r="1.87" />
        <circle class="cls-6" cx="62.66" cy="141.23" r="1.87" />
        <circle class="cls-6" cx="6.91" cy="135.48" r="1.87" />
        <circle class="cls-6" cx="12.77" cy="135.48" r="1.87" />
        <circle class="cls-6" cx="18.63" cy="135.48" r="1.87" />
        <circle class="cls-6" cx="24.5" cy="135.48" r="1.87" />
        <circle class="cls-6" cx="30.36" cy="135.48" r="1.87" />
        <circle class="cls-6" cx="36.23" cy="135.48" r="1.87" />
        <circle class="cls-6" cx="42.09" cy="135.48" r="1.87" />
        <circle class="cls-6" cx="47.95" cy="135.48" r="1.87" />
        <circle class="cls-6" cx="53.82" cy="135.48" r="1.87" />
        <circle class="cls-6" cx="59.68" cy="135.48" r="1.87" />
        <rect class="cls-7" x="22.58" y="0.02" width="21.39" height="23.91" />
        <rect class="cls-8" x="0.75" y="121.19" width="65.19" height="1.09"
            transform="translate(66.68 243.47) rotate(180)" />
        <rect class="cls-9" x="0.75" y="125.41" width="65.19" height="1.09"
            transform="translate(66.68 251.9) rotate(180)" />
        <rect class="cls-10" x="22.58" y="6.46" width="21.39" height="2.98" />
        <rect class="cls-11" x="22.58" y="15.04" width="21.39" height="2.98" />
        <rect class="cls-12" x="15.78" y="23.93" width="34.27" height="25.9" />
        <rect class="cls-13" y="35.39" width="65.93" height="7.03" />
    </g>
    
</svg>