<svg xmlns="http://www.w3.org/2000/svg" xmlns:xlink="http://www.w3.org/1999/xlink" viewBox="0 0 150 66.48">
    <defs>
        <style>
            .cls-1 {
                fill: url(#未命名的渐变_105);
            }

            .cls-2 {
                fill: url(#未命名的渐变_105-2);
            }

            .cls-3 {
                fill: url(#未命名的渐变_105-3);
            }

            .cls-4 {
                fill: url(#未命名的渐变_105-4);
            }

            .cls-5 {
                fill: url(#未命名的渐变_67);
            }

            .cls-6 {
                fill: url(#未命名的渐变_67-2);
            }

            .cls-7 {
                fill: url(#未命名的渐变_67-3);
            }

            .cls-8 {
                fill: url(#未命名的渐变_67-4);
            }

            .cls-9 {
                fill: url(#未命名的渐变_67-5);
            }

            .cls-10 {
                fill: url(#未命名的渐变_67-6);
            }

            .cls-11 {
                fill: url(#未命名的渐变_67-7);
            }

            .cls-12 {
                fill: url(#未命名的渐变_67-8);
            }

            .cls-13 {
                fill: url(#未命名的渐变_67-9);
            }

            .cls-14 {
                fill: url(#未命名的渐变_67-10);
            }

            .cls-15 {
                fill: url(#未命名的渐变_67-11);
            }

            .cls-16 {
                fill: url(#未命名的渐变_67-12);
            }

            .cls-17 {
                fill: url(#未命名的渐变_67-13);
            }

            .cls-18 {
                fill: url(#未命名的渐变_67-14);
            }

            .cls-19 {
                fill: url(#未命名的渐变_67-15);
            }

            .cls-20 {
                fill: url(#未命名的渐变_105-5);
            }

            .cls-21 {
                fill: url(#未命名的渐变_105-6);
            }

            .cls-22 {
                fill: url(#未命名的渐变_105-7);
            }

            .cls-23 {
                fill: url(#未命名的渐变_105-8);
            }

            .cls-24 {
                fill: url(#未命名的渐变_105-9);
            }

            .cls-25 {
                fill: url(#未命名的渐变_105-10);
            }

            .cls-26 {
                fill: url(#未命名的渐变_105-11);
            }

            .cls-27 {
                fill: url(#未命名的渐变_67-16);
            }

            .cls-28 {
                fill: url(#未命名的渐变_67-17);
            }

            .cls-29 {
                fill: url(#未命名的渐变_67-18);
            }

            .cls-30 {
                fill: url(#未命名的渐变_105-12);
            }

            .cls-31 {
                fill: url(#未命名的渐变_105-13);
            }

            .cls-32 {
                fill: url(#未命名的渐变_105-14);
            }

            .cls-33 {
                fill: url(#未命名的渐变_105-15);
            }

            .cls-34 {
                fill: url(#未命名的渐变_105-16);
            }

            .cls-35 {
                fill: url(#未命名的渐变_105-17);
            }

            .cls-36 {
                fill: url(#未命名的渐变_105-18);
            }

            .cls-37 {
                fill: url(#未命名的渐变_105-19);
            }

            .cls-38 {
                fill: url(#未命名的渐变_105-20);
            }

            .cls-39 {
                fill: url(#未命名的渐变_105-21);
            }

            .cls-40 {
                fill: url(#未命名的渐变_67-19);
            }

            .cls-41 {
                fill: url(#未命名的渐变_67-20);
            }

            .cls-42 {
                fill: url(#未命名的渐变_105-22);
            }

            .cls-43 {
                fill: url(#未命名的渐变_105-23);
            }

            .cls-44 {
                fill: url(#未命名的渐变_105-24);
            }

            .cls-45 {
                fill: #605d5b;
            }

            .cls-46 {
                fill: url(#未命名的渐变_74);
            }

            .cls-47 {
                fill: #727272;
            }

            .cls-48 {
                fill: url(#未命名的渐变_105-25);
            }

            .cls-49 {
                fill: url(#未命名的渐变_74-2);
            }

            .cls-50 {
                fill: url(#未命名的渐变_74-3);
            }

            .cls-51 {
                fill: url(#未命名的渐变_74-4);
            }

            .cls-52 {
                fill: url(#未命名的渐变_74-5);
            }

            .cls-53 {
                fill: url(#未命名的渐变_74-6);
            }

            .cls-54 {
                fill: url(#未命名的渐变_67-21);
            }

            .cls-55 {
                opacity: 0.2;
            }
        </style>
        <linearGradient id="未命名的渐变_105" x1="22.94" y1="13.31" x2="22.94" y2="10.45" gradientUnits="userSpaceOnUse">
            <stop offset="0" stop-color="#e2e2e2" />
            <stop offset="0.03" stop-color="#d0d0d0" />
            <stop offset="0.06" stop-color="#bcbcbc" />
            <stop offset="0.09" stop-color="#b5b5b5" />
            <stop offset="0.49" stop-color="#f6f6f6" />
            <stop offset="0.63" stop-color="#f3f3f3" />
            <stop offset="0.73" stop-color="#eaeaea" />
            <stop offset="0.82" stop-color="#dbdbdb" />
            <stop offset="0.9" stop-color="#c6c6c6" />
            <stop offset="0.97" stop-color="#aaa" />
            <stop offset="1" stop-color="#9b9b9b" />
        </linearGradient>
        <linearGradient id="未命名的渐变_105-2" x1="45.61" y1="18.47" x2="45.61" y2="15.61" xlink:href="#未命名的渐变_105" />
        <linearGradient id="未命名的渐变_105-3" x1="71.28" y1="33.98" x2="71.28" y2="23.91" xlink:href="#未命名的渐变_105" />
        <linearGradient id="未命名的渐变_105-4" x1="49.37" y1="36.84" x2="49.37" y2="19.88" xlink:href="#未命名的渐变_105" />
        <linearGradient id="未命名的渐变_67" x1="1277.84" y1="1285.78" x2="1277.84" y2="1236.72"
            gradientTransform="translate(-1165.61 -1031.44) scale(1 0.84)" gradientUnits="userSpaceOnUse">
            <stop offset="0" stop-color="#6b6b6b" />
            <stop offset="0.11" stop-color="#767676" />
            <stop offset="0.3" stop-color="#959595" />
            <stop offset="0.41" stop-color="#aaa" />
            <stop offset="0.56" stop-color="#ccc" />
            <stop offset="0.71" stop-color="#eaeaea" />
            <stop offset="0.8" stop-color="#f6f6f6" />
            <stop offset="0.83" stop-color="#ededed" />
            <stop offset="0.87" stop-color="#d4d4d4" />
            <stop offset="0.92" stop-color="#ababab" />
            <stop offset="0.98" stop-color="#737373" />
            <stop offset="0.99" stop-color="#666" />
        </linearGradient>
        <linearGradient id="未命名的渐变_67-2" x1="1275.99" y1="323.94" x2="1275.99" y2="322.28"
            gradientTransform="matrix(1, 0, 0, -0.69, -1165.68, 233.82)" xlink:href="#未命名的渐变_67" />
        <linearGradient id="未命名的渐变_67-3" x1="1275.99" y1="319.78" x2="1275.99" y2="318.12"
            gradientTransform="matrix(1, 0, 0, -0.69, -1165.67, 233.82)" xlink:href="#未命名的渐变_67" />
        <linearGradient id="未命名的渐变_67-4" x1="1275.99" y1="315.61" x2="1275.99" y2="313.95"
            gradientTransform="matrix(1, 0, 0, -0.69, -1165.65, 233.82)" xlink:href="#未命名的渐变_67" />
        <linearGradient id="未命名的渐变_67-5" x1="1275.99" y1="311.44" x2="1275.99" y2="309.78"
            gradientTransform="matrix(1, 0, 0, -0.69, -1165.64, 233.82)" xlink:href="#未命名的渐变_67" />
        <linearGradient id="未命名的渐变_67-6" x1="1275.99" y1="307.27" x2="1275.99" y2="305.61"
            gradientTransform="matrix(1, 0, 0, -0.69, -1165.63, 233.82)" xlink:href="#未命名的渐变_67" />
        <linearGradient id="未命名的渐变_67-7" x1="1275.99" y1="303.11" x2="1275.99" y2="301.45"
            gradientTransform="matrix(1, 0, 0, -0.69, -1165.62, 233.82)" xlink:href="#未命名的渐变_67" />
        <linearGradient id="未命名的渐变_67-8" x1="1275.99" y1="298.94" x2="1275.99" y2="297.28"
            gradientTransform="matrix(1, 0, 0, -0.69, -1165.61, 233.82)" xlink:href="#未命名的渐变_67" />
        <linearGradient id="未命名的渐变_67-9" x1="1275.99" y1="294.77" x2="1275.99" y2="293.11"
            gradientTransform="matrix(1, 0, 0, -0.69, -1165.6, 233.82)" xlink:href="#未命名的渐变_67" />
        <linearGradient id="未命名的渐变_67-10" x1="1275.99" y1="290.6" x2="1275.99" y2="288.94"
            gradientTransform="matrix(1, 0, 0, -0.69, -1165.59, 233.82)" xlink:href="#未命名的渐变_67" />
        <linearGradient id="未命名的渐变_67-11" x1="1275.99" y1="286.43" x2="1275.99" y2="284.77"
            gradientTransform="matrix(1, 0, 0, -0.69, -1165.58, 233.82)" xlink:href="#未命名的渐变_67" />
        <linearGradient id="未命名的渐变_67-12" x1="1275.99" y1="282.27" x2="1275.99" y2="280.61"
            gradientTransform="matrix(1, 0, 0, -0.69, -1165.57, 233.82)" xlink:href="#未命名的渐变_67" />
        <linearGradient id="未命名的渐变_67-13" x1="1275.99" y1="278.1" x2="1275.99" y2="276.44"
            gradientTransform="matrix(1, 0, 0, -0.69, -1165.56, 233.82)" xlink:href="#未命名的渐变_67" />
        <linearGradient id="未命名的渐变_67-14" x1="1275.99" y1="273.93" x2="1275.99" y2="272.27"
            gradientTransform="matrix(1, 0, 0, -0.69, -1165.55, 233.82)" xlink:href="#未命名的渐变_67" />
        <linearGradient id="未命名的渐变_67-15" x1="1275.99" y1="269.76" x2="1275.99" y2="268.1"
            gradientTransform="matrix(1, 0, 0, -0.69, -1165.54, 233.82)" xlink:href="#未命名的渐变_67" />
        <linearGradient id="未命名的渐变_105-5" x1="93.37" y1="46.63" x2="93.37" y2="10.45" xlink:href="#未命名的渐变_105" />
        <linearGradient id="未命名的渐变_105-6" x1="71.31" y1="50.64" x2="71.31" y2="18.47" xlink:href="#未命名的渐变_105" />
        <linearGradient id="未命名的渐变_105-7" x1="45.61" y1="25.59" x2="45.61" y2="22.74" xlink:href="#未命名的渐变_105" />
        <linearGradient id="未命名的渐变_105-8" x1="45.61" y1="32.72" x2="45.61" y2="29.86" xlink:href="#未命名的渐变_105" />
        <linearGradient id="未命名的渐变_105-9" x1="45.27" y1="39.84" x2="45.27" y2="36.98" xlink:href="#未命名的渐变_105" />
        <linearGradient id="未命名的渐变_105-10" x1="1.68" y1="41.12" x2="1.68" y2="15.16" xlink:href="#未命名的渐变_105" />
        <linearGradient id="未命名的渐变_105-11" x1="4.62" y1="35.52" x2="4.62" y2="21.7" xlink:href="#未命名的渐变_105" />
        <linearGradient id="未命名的渐变_67-16" x1="23.22" y1="42.34" x2="23.22" y2="15.36"
            gradientTransform="matrix(1, 0, 0, 1, 0, 0)" xlink:href="#未命名的渐变_67" />
        <linearGradient id="未命名的渐变_67-17" x1="41.94" y1="42.34" x2="41.94" y2="14.14"
            gradientTransform="matrix(1, 0, 0, 1, 0, 0)" xlink:href="#未命名的渐变_67" />
        <linearGradient id="未命名的渐变_67-18" x1="33.03" y1="39.84" x2="33.03" y2="17.04"
            gradientTransform="matrix(1, 0, 0, 1, 0, 0)" xlink:href="#未命名的渐变_67" />
        <linearGradient id="未命名的渐变_105-12" x1="26.57" y1="42.34" x2="26.57" y2="15.36" xlink:href="#未命名的渐变_105" />
        <linearGradient id="未命名的渐变_105-13" x1="-202.15" y1="14.74" x2="-202.15" y2="9.23"
            gradientTransform="matrix(1, 0, 0, -1, 221.47, 23.97)" xlink:href="#未命名的渐变_105" />
        <linearGradient id="未命名的渐变_105-14" x1="23.36" y1="24.33" x2="23.36" y2="21.47" xlink:href="#未命名的渐变_105" />
        <linearGradient id="未命名的渐变_105-15" x1="-202.56" y1="25.76" x2="-202.56" y2="20.25"
            gradientTransform="matrix(1, 0, 0, -1, 222.3, 46.01)" xlink:href="#未命名的渐变_105" />
        <linearGradient id="未命名的渐变_105-16" x1="23.95" y1="36.84" x2="23.95" y2="33.98" xlink:href="#未命名的渐变_105" />
        <linearGradient id="未命名的渐变_105-17" x1="-203.15" y1="38.27" x2="-203.15" y2="32.76"
            gradientTransform="matrix(1, 0, 0, -1, 223.48, 71.03)" xlink:href="#未命名的渐变_105" />
        <linearGradient id="未命名的渐变_105-18" x1="23.95" y1="45.2" x2="23.95" y2="42.34" xlink:href="#未命名的渐变_105" />
        <linearGradient id="未命名的渐变_105-19" x1="-203.98" y1="46.63" x2="-203.98" y2="41.12"
            gradientTransform="matrix(1, 0, 0, -1, 225.14, 87.75)" xlink:href="#未命名的渐变_105" />
        <linearGradient id="未命名的渐变_105-20" x1="13.31" y1="43.61" x2="13.31" y2="9.93" xlink:href="#未命名的渐变_105" />
        <linearGradient id="未命名的渐变_105-21" x1="7.13" y1="39" x2="7.13" y2="18.02" xlink:href="#未命名的渐变_105" />
        <linearGradient id="未命名的渐变_67-19" x1="13.31" y1="43.61" x2="13.31" y2="9.93"
            gradientTransform="matrix(1, 0, 0, 1, 0, 0)" xlink:href="#未命名的渐变_67" />
        <linearGradient id="未命名的渐变_67-20" x1="19.48" y1="48.65" x2="19.48" y2="8.07"
            gradientTransform="matrix(1, 0, 0, 1, 0, 0)" xlink:href="#未命名的渐变_67" />
        <linearGradient id="未命名的渐变_105-22" x1="6.41" y1="8.07" x2="19.6" y2="8.07" xlink:href="#未命名的渐变_105" />
        <linearGradient id="未命名的渐变_105-23" x1="2.3" y1="4.83" x2="23.71" y2="4.83" xlink:href="#未命名的渐变_105" />
        <linearGradient id="未命名的渐变_105-24" x1="40.9" y1="42.34" x2="40.9" y2="14.14" xlink:href="#未命名的渐变_105" />
        <linearGradient id="未命名的渐变_74" x1="103" y1="44.46" x2="124.8" y2="44.46" gradientUnits="userSpaceOnUse">
            <stop offset="0" stop-color="#6b6b6b" />
            <stop offset="0.01" stop-color="#767676" />
            <stop offset="0.03" stop-color="#959595" />
            <stop offset="0.04" stop-color="#aaa" />
            <stop offset="0.37" stop-color="#ccc" />
            <stop offset="0.74" stop-color="#eaeaea" />
            <stop offset="0.94" stop-color="#f6f6f6" />
            <stop offset="0.95" stop-color="#ededed" />
            <stop offset="0.96" stop-color="#d4d4d4" />
            <stop offset="0.97" stop-color="#ababab" />
            <stop offset="0.99" stop-color="#737373" />
            <stop offset="0.99" stop-color="#666" />
        </linearGradient>
        <linearGradient id="未命名的渐变_105-25" x1="875.63" y1="534.41" x2="875.63" y2="494.61"
            gradientTransform="matrix(1, 0, 0, -1, -737.45, 543.26)" xlink:href="#未命名的渐变_105" />
        <linearGradient id="未命名的渐变_74-2" x1="102.17" y1="4.43" x2="122.12" y2="4.43" xlink:href="#未命名的渐变_74" />
        <linearGradient id="未命名的渐变_74-3" x1="98.61" y1="49.18" x2="129.19" y2="49.18" xlink:href="#未命名的渐变_74" />
        <linearGradient id="未命名的渐变_74-4" x1="12.82" y1="47.25" x2="12.82" y2="43.61" xlink:href="#未命名的渐变_74" />
        <linearGradient id="未命名的渐变_74-5" x1="13.57" y1="50.4" x2="13.57" y2="47.25" xlink:href="#未命名的渐变_74" />
        <linearGradient id="未命名的渐变_74-6" x1="75.21" y1="66.48" x2="75.21" y2="50.4" xlink:href="#未命名的渐变_74" />
        <linearGradient id="未命名的渐变_67-21" x1="139.82" y1="48.65" x2="139.82" y2="8.76"
            gradientTransform="matrix(1, 0, 0, 1, 0, 0)" xlink:href="#未命名的渐变_67" />
    </defs>
    <title>IoT-pump（泵）</title>
    <g id="图层_12" data-name="图层 12">
        <rect class="cls-1" x="21.8" y="10.45" width="2.29" height="2.86" />
        <rect class="cls-2" x="44.47" y="15.61" width="2.29" height="2.86" />
        <rect class="cls-3" x="53.7" y="23.91" width="35.15" height="10.06" />
        <rect class="cls-4" x="44.47" y="19.88" width="9.82" height="16.96" />
        <rect class="cls-5" x="97.89" y="8.84" width="28.7" height="41.27"
            transform="translate(-0.11 0.41) rotate(-0.21)" />
        <rect class="cls-6" x="97.82" y="10.32" width="25.01" height="1.15"
            transform="translate(-0.04 0.4) rotate(-0.21)" />
        <rect class="cls-7" x="97.83" y="13.19" width="25.01" height="1.15"
            transform="translate(-0.05 0.4) rotate(-0.21)" />
        <rect class="cls-8" x="97.84" y="16.07" width="25.01" height="1.15"
            transform="translate(-0.06 0.4) rotate(-0.21)" />
        <rect class="cls-9" x="97.85" y="18.94" width="25.01" height="1.15"
            transform="translate(-0.07 0.4) rotate(-0.21)" />
        <rect class="cls-10" x="97.86" y="21.82" width="25.01" height="1.15"
            transform="translate(-0.08 0.4) rotate(-0.21)" />
        <rect class="cls-11" x="97.87" y="24.69" width="25.01" height="1.15"
            transform="translate(-0.09 0.4) rotate(-0.21)" />
        <rect class="cls-12" x="97.88" y="27.57" width="25.01" height="1.15"
            transform="translate(-0.1 0.4) rotate(-0.21)" />
        <rect class="cls-13" x="97.89" y="30.45" width="25.01" height="1.15"
            transform="translate(-0.11 0.4) rotate(-0.21)" />
        <rect class="cls-14" x="97.9" y="33.32" width="25.01" height="1.15"
            transform="translate(-0.12 0.4) rotate(-0.21)" />
        <rect class="cls-15" x="97.91" y="36.2" width="25.01" height="1.15"
            transform="translate(-0.13 0.4) rotate(-0.21)" />
        <rect class="cls-16" x="97.92" y="39.07" width="25.01" height="1.15"
            transform="translate(-0.14 0.4) rotate(-0.21)" />
        <rect class="cls-17" x="97.93" y="41.95" width="25.01" height="1.15"
            transform="translate(-0.15 0.4) rotate(-0.21)" />
        <rect class="cls-18" x="97.95" y="44.82" width="25.01" height="1.15"
            transform="translate(-0.17 0.4) rotate(-0.21)" />
        <rect class="cls-19" x="97.96" y="47.7" width="25.01" height="1.15"
            transform="translate(-0.18 0.4) rotate(-0.21)" />
        <polygon class="cls-20" points="97.89 46.63 88.86 42.34 88.86 13.31 97.89 10.45 97.89 46.63" />
        <rect class="cls-21" x="55.23" y="18.47" width="32.17" height="32.17" />
        <rect class="cls-22" x="44.47" y="22.74" width="2.29" height="2.86" />
        <rect class="cls-23" x="44.47" y="29.86" width="2.29" height="2.86" />
        <rect class="cls-24" x="44.13" y="36.98" width="2.29" height="2.86" />
        <polygon class="cls-25" points="3.36 41.12 0 41.12 0 15.16 3.36 15.16 3.36 20.99 3.36 41.12" />
        <rect class="cls-26" x="3.36" y="21.7" width="2.51" height="13.81" />
        <rect class="cls-27" x="20.74" y="15.36" width="4.96" height="26.98" />
        <rect class="cls-28" x="38.61" y="14.14" width="6.66" height="28.2" />
        <rect class="cls-29" x="27.44" y="17.04" width="11.17" height="22.8" />
        <rect class="cls-30" x="25.7" y="15.36" width="1.75" height="26.98" />
        <rect class="cls-31" x="16.57" y="9.23" width="5.51" height="5.51"
            transform="translate(38.64 23.97) rotate(180)" />
        <rect class="cls-32" x="22.21" y="21.47" width="2.29" height="2.86" />
        <rect class="cls-33" x="16.98" y="20.25" width="5.51" height="5.51"
            transform="translate(39.47 46.01) rotate(180)" />
        <rect class="cls-34" x="22.8" y="33.98" width="2.29" height="2.86" />
        <rect class="cls-35" x="17.57" y="32.76" width="5.51" height="5.51"
            transform="translate(40.65 71.03) rotate(180)" />
        <rect class="cls-36" x="22.8" y="42.34" width="2.29" height="2.86" />
        <rect class="cls-37" x="19.24" y="41.12" width="3.84" height="5.51"
            transform="translate(42.32 87.75) rotate(180)" />
        <rect class="cls-38" x="8.39" y="9.93" width="9.84" height="33.68" />
        <polygon class="cls-39" points="8.39 39 5.87 35.52 5.87 21.7 8.39 18.02 8.39 39" />
        <rect class="cls-40" x="12.05" y="9.93" width="2.51" height="33.68" />
        <rect class="cls-41" x="18.23" y="8.07" width="2.51" height="40.58" />
        <rect class="cls-42" x="6.41" y="6.21" width="13.18" height="3.72" />
        <rect class="cls-43" x="2.3" y="3.46" width="21.41" height="2.76" />
        <rect class="cls-44" x="40.16" y="14.14" width="1.48" height="28.2" />
        <rect class="cls-45" x="58.34" y="40.27" width="25.83" height="5.29" />
        <rect class="cls-46" x="103" y="40.27" width="21.79" height="8.39" />
        <circle class="cls-47" cx="106.39" cy="4.97" r="3.32" />
        <path class="cls-48" d="M139.68,8.85H126.36v39.8h13.32S150,49,150,28C150,8.84,139.68,8.85,139.68,8.85Z" />
        <rect class="cls-49" x="102.17" width="19.96" height="8.85" />
        <rect class="cls-50" x="98.61" y="47.73" width="30.58" height="2.91" />
        <rect class="cls-51" x="11.08" y="43.61" width="3.49" height="3.64" />
        <rect class="cls-52" x="6.39" y="47.25" width="14.35" height="3.15" />
        <rect class="cls-53" x="2.49" y="50.4" width="145.45" height="16.08" />
        <rect class="cls-54" x="138.56" y="8.76" width="2.51" height="39.9" />
    </g>
    
</svg>