<svg xmlns="http://www.w3.org/2000/svg" xmlns:xlink="http://www.w3.org/1999/xlink" viewBox="0 0 144.28 150">
    <defs>
        <style>
            .cls-1 {
                fill: url(#未命名的渐变_105);
            }

            .cls-2 {
                fill: url(#未命名的渐变_105-2);
            }

            .cls-3 {
                fill: url(#未命名的渐变_105-3);
            }

            .cls-4 {
                fill: url(#未命名的渐变_105-4);
            }

            .cls-5 {
                fill: url(#未命名的渐变_105-5);
            }

            .cls-6 {
                fill: url(#未命名的渐变_105-6);
            }

            .cls-7 {
                fill: url(#未命名的渐变_105-7);
            }

            .cls-8 {
                fill: url(#未命名的渐变_105-8);
            }

            .cls-9 {
                fill: url(#未命名的渐变_105-9);
            }

            .cls-10 {
                fill: url(#未命名的渐变_105-10);
            }

            .cls-11 {
                fill: url(#未命名的渐变_105-11);
            }

            .cls-12 {
                fill: url(#未命名的渐变_67);
            }

            .cls-13 {
                fill: url(#未命名的渐变_67-2);
            }

            .cls-14 {
                fill: url(#未命名的渐变_67-3);
            }

            .cls-15 {
                fill: url(#未命名的渐变_67-4);
            }

            .cls-16 {
                fill: url(#未命名的渐变_105-12);
            }

            .cls-17 {
                fill: url(#未命名的渐变_105-13);
            }

            .cls-18 {
                fill: url(#未命名的渐变_105-14);
            }

            .cls-19 {
                fill: url(#未命名的渐变_105-15);
            }

            .cls-20 {
                fill: url(#未命名的渐变_74);
            }

            .cls-21 {
                fill: url(#未命名的渐变_9);
            }

            .cls-22 {
                fill: url(#未命名的渐变_105-16);
            }

            .cls-23 {
                fill: url(#未命名的渐变_105-17);
            }

            .cls-24 {
                fill: url(#未命名的渐变_105-18);
            }

            .cls-25 {
                fill: url(#未命名的渐变_105-19);
            }

            .cls-26 {
                opacity: 0.2;
            }
        </style>
        <linearGradient id="未命名的渐变_105" x1="83.52" y1="87.08" x2="83.52" y2="82.44" gradientUnits="userSpaceOnUse">
            <stop offset="0" stop-color="#e2e2e2" />
            <stop offset="0.03" stop-color="#d0d0d0" />
            <stop offset="0.06" stop-color="#bcbcbc" />
            <stop offset="0.09" stop-color="#b5b5b5" />
            <stop offset="0.49" stop-color="#f6f6f6" />
            <stop offset="0.63" stop-color="#f3f3f3" />
            <stop offset="0.73" stop-color="#eaeaea" />
            <stop offset="0.82" stop-color="#dbdbdb" />
            <stop offset="0.9" stop-color="#c6c6c6" />
            <stop offset="0.97" stop-color="#aaa" />
            <stop offset="1" stop-color="#9b9b9b" />
        </linearGradient>
        <linearGradient id="未命名的渐变_105-2" x1="83.89" y1="99.37" x2="83.89" y2="94.73" xlink:href="#未命名的渐变_105" />
        <linearGradient id="未命名的渐变_105-3" x1="83.54" y1="111.67" x2="83.54" y2="107.03" xlink:href="#未命名的渐变_105" />
        <linearGradient id="未命名的渐变_105-4" x1="83.77" y1="123.96" x2="83.77" y2="119.32" xlink:href="#未命名的渐变_105" />
        <linearGradient id="未命名的渐变_105-5" x1="83.89" y1="136.26" x2="83.89" y2="131.62" xlink:href="#未命名的渐变_105" />
        <linearGradient id="未命名的渐变_105-6" x1="91.7" y1="92.1" x2="101.43" y2="92.1"
            gradientTransform="matrix(0.98, -0.2, 0.2, 0.97, -14.85, 23.31)" xlink:href="#未命名的渐变_105" />
        <linearGradient id="未命名的渐变_105-7" x1="138.04" y1="94.47" x2="148.84" y2="94.47"
            gradientTransform="matrix(-0.92, -0.2, -0.18, 0.94, 218.05, 29.25)" xlink:href="#未命名的渐变_105" />
        <linearGradient id="未命名的渐变_105-8" x1="130.12" y1="81.14" x2="133.88" y2="81.14" xlink:href="#未命名的渐变_105" />
        <linearGradient id="未命名的渐变_105-9" x1="124.19" y1="108.08" x2="139.87" y2="108.08" xlink:href="#未命名的渐变_105" />
        <linearGradient id="未命名的渐变_105-10" x1="120.55" y1="98.93" x2="144.28" y2="98.93" xlink:href="#未命名的渐变_105" />
        <linearGradient id="未命名的渐变_105-11" x1="120.13" y1="116.13" x2="143.87" y2="116.13" xlink:href="#未命名的渐变_105" />
        <linearGradient id="未命名的渐变_67" x1="124.19" y1="114.68" x2="139.87" y2="114.68" gradientUnits="userSpaceOnUse">
            <stop offset="0" stop-color="#6b6b6b" />
            <stop offset="0.11" stop-color="#767676" />
            <stop offset="0.3" stop-color="#959595" />
            <stop offset="0.41" stop-color="#aaa" />
            <stop offset="0.56" stop-color="#ccc" />
            <stop offset="0.71" stop-color="#eaeaea" />
            <stop offset="0.8" stop-color="#f6f6f6" />
            <stop offset="0.83" stop-color="#ededed" />
            <stop offset="0.87" stop-color="#d4d4d4" />
            <stop offset="0.92" stop-color="#ababab" />
            <stop offset="0.98" stop-color="#737373" />
            <stop offset="0.99" stop-color="#666" />
        </linearGradient>
        <linearGradient id="未命名的渐变_67-2" x1="124.04" y1="95.8" x2="139.72" y2="95.8" xlink:href="#未命名的渐变_67" />
        <linearGradient id="未命名的渐变_67-3" x1="74.05" y1="41.16" x2="94.01" y2="41.16" xlink:href="#未命名的渐变_67" />
        <linearGradient id="未命名的渐变_67-4" x1="71.36" y1="36.35" x2="91.32" y2="36.35" xlink:href="#未命名的渐变_67" />
        <linearGradient id="未命名的渐变_105-12" x1="127.77" y1="131.57" x2="135.99" y2="131.57" xlink:href="#未命名的渐变_105" />
        <linearGradient id="未命名的渐变_105-13" x1="18.98" y1="65.61" x2="24.27" y2="65.61" xlink:href="#未命名的渐变_105" />
        <linearGradient id="未命名的渐变_105-14" x1="24.27" y1="111" x2="27.68" y2="111" xlink:href="#未命名的渐变_105" />
        <linearGradient id="未命名的渐变_105-15" x1="16.4" y1="101.39" x2="19.81" y2="101.39" xlink:href="#未命名的渐变_105" />
        <linearGradient id="未命名的渐变_74" x1="64.58" y1="42.38" x2="64.58" y2="25.11"
            gradientTransform="translate(-15.56 8.34) scale(1.25 0.85)" gradientUnits="userSpaceOnUse">
            <stop offset="0" stop-color="#6b6b6b" />
            <stop offset="0.01" stop-color="#767676" />
            <stop offset="0.03" stop-color="#959595" />
            <stop offset="0.04" stop-color="#aaa" />
            <stop offset="0.37" stop-color="#ccc" />
            <stop offset="0.74" stop-color="#eaeaea" />
            <stop offset="0.94" stop-color="#f6f6f6" />
            <stop offset="0.95" stop-color="#ededed" />
            <stop offset="0.96" stop-color="#d4d4d4" />
            <stop offset="0.97" stop-color="#ababab" />
            <stop offset="0.99" stop-color="#737373" />
            <stop offset="0.99" stop-color="#666" />
        </linearGradient>
        <linearGradient id="未命名的渐变_9" x1="113.85" y1="28.54" x2="132.29" y2="16.93" gradientUnits="userSpaceOnUse">
            <stop offset="0.17" stop-color="#6b6b6b" />
            <stop offset="0.18" stop-color="#767676" />
            <stop offset="0.2" stop-color="#959595" />
            <stop offset="0.21" stop-color="#aaa" />
            <stop offset="0.47" stop-color="#ccc" />
            <stop offset="0.75" stop-color="#eaeaea" />
            <stop offset="0.91" stop-color="#f6f6f6" />
            <stop offset="0.93" stop-color="#ededed" />
            <stop offset="0.94" stop-color="#d4d4d4" />
            <stop offset="0.97" stop-color="#ababab" />
            <stop offset="0.99" stop-color="#737373" />
            <stop offset="1" stop-color="#666" />
        </linearGradient>
        <linearGradient id="未命名的渐变_105-16" x1="16.4" y1="77.22" x2="27.68" y2="77.22" xlink:href="#未命名的渐变_105" />
        <linearGradient id="未命名的渐变_105-17" x1="-4.71" y1="125.95" x2="39.36" y2="125.95"
            gradientTransform="translate(39.36 235.23) rotate(180)" xlink:href="#未命名的渐变_105" />
        <linearGradient id="未命名的渐变_105-18" x1="9.47" y1="134.95" x2="34.61" y2="134.95" xlink:href="#未命名的渐变_105" />
        <linearGradient id="未命名的渐变_105-19" x1="22.21" y1="150.81" x2="22.21" y2="142.94" xlink:href="#未命名的渐变_105" />
    </defs>
    <title>IoT-pump（泵）</title>
    <g id="图层_2" data-name="图层 2">
        <rect class="cls-1" x="74.05" y="82.52" width="18.93" height="3.84" />
        <rect class="cls-2" x="70.91" y="94.82" width="25.96" height="3.84" />
        <rect class="cls-3" x="67.74" y="107.11" width="31.6" height="3.84" />
        <rect class="cls-4" x="66.09" y="119.41" width="35.36" height="3.84" />
        <rect class="cls-5" x="63.98" y="131.7" width="39.83" height="3.84" />
        <polygon class="cls-6" points="114.04 149.76 105.86 150 83.15 37.76 91.05 36.16 114.04 149.76" />
        <polygon class="cls-7" points="53.37 149.48 61.84 149.72 84.69 30.13 76.5 28.37 53.37 149.48" />
        <rect class="cls-8" x="130.12" y="22.66" width="3.76" height="116.96" />
        <rect class="cls-9" x="124.19" y="101.12" width="15.68" height="13.92" />
        <rect class="cls-10" x="120.55" y="96.74" width="23.73" height="4.38" />
        <rect class="cls-11" x="120.13" y="115.04" width="23.73" height="2.19" />
        <rect class="cls-12" x="124.19" y="114.33" width="15.68" height="0.7" />
        <rect class="cls-13" x="124.04" y="94.86" width="15.68" height="1.88" />
        <rect class="cls-14" x="74.05" y="39.7" width="19.96" height="2.91" />
        <rect class="cls-15" x="71.36" y="32.65" width="19.96" height="7.39" />
        <rect class="cls-16" x="127.77" y="126.87" width="8.22" height="9.4" />
        <rect class="cls-17" x="18.98" y="55.21" width="5.29" height="20.79" />
        <rect class="cls-18" x="24.27" y="81.14" width="3.41" height="59.71" />
        <rect class="cls-19" x="16.4" y="78.85" width="3.41" height="45.09" />
        <rect class="cls-20" x="13.89" y="29.77" width="102.82" height="14.74"
            transform="translate(-9 26.08) rotate(-21.17)" />
        <path class="cls-21"
            d="M108.54,2.67,116.29.22A4.74,4.74,0,0,1,121.62,2l8.61,12.43A34.15,34.15,0,0,1,136.17,31l.81,9.37a4.75,4.75,0,0,1-2,4.27l-.06,0a4.74,4.74,0,0,1-6.7-1.24L106,9.81A4.74,4.74,0,0,1,108.54,2.67Z" />
        <rect class="cls-22" x="16.4" y="69.51" width="11.28" height="15.43" />
        <path class="cls-23" d="M22,98.27a22,22,0,0,0-22,22H44.07A22,22,0,0,0,22,98.27Z" />
        <rect class="cls-24" x="9.47" y="120.3" width="25.14" height="29.3" />
        <rect class="cls-25" x="4.53" y="143.08" width="35.36" height="6.52" />
    </g>
    
</svg>