<svg xmlns="http://www.w3.org/2000/svg" xmlns:xlink="http://www.w3.org/1999/xlink" viewBox="0 0 68.03 150.1">
    <defs>
        <style>
            .cls-1,
            .cls-10,
            .cls-2,
            .cls-27,
            .cls-3,
            .cls-4,
            .cls-44,
            .cls-47,
            .cls-48,
            .cls-5,
            .cls-59,
            .cls-6,
            .cls-62,
            .cls-65,
            .cls-66,
            .cls-67,
            .cls-68,
            .cls-77 {
                stroke: #5ac8f7;
            }

            .cls-1,
            .cls-10,
            .cls-11,
            .cls-12,
            .cls-13,
            .cls-14,
            .cls-15,
            .cls-16,
            .cls-17,
            .cls-18,
            .cls-19,
            .cls-2,
            .cls-20,
            .cls-21,
            .cls-27,
            .cls-3,
            .cls-38,
            .cls-39,
            .cls-4,
            .cls-40,
            .cls-41,
            .cls-42,
            .cls-44,
            .cls-45,
            .cls-46,
            .cls-47,
            .cls-48,
            .cls-5,
            .cls-50,
            .cls-51,
            .cls-52,
            .cls-53,
            .cls-54,
            .cls-55,
            .cls-56,
            .cls-57,
            .cls-58,
            .cls-59,
            .cls-6,
            .cls-60,
            .cls-61,
            .cls-62,
            .cls-63,
            .cls-64,
            .cls-65,
            .cls-66,
            .cls-67,
            .cls-68,
            .cls-69,
            .cls-70,
            .cls-71,
            .cls-72,
            .cls-73,
            .cls-74,
            .cls-75,
            .cls-76,
            .cls-77,
            .cls-8 {
                stroke-linejoin: round;
            }

            .cls-1,
            .cls-2,
            .cls-27,
            .cls-3,
            .cls-38,
            .cls-39,
            .cls-4,
            .cls-41,
            .cls-42,
            .cls-44,
            .cls-46,
            .cls-47,
            .cls-48,
            .cls-5,
            .cls-50,
            .cls-51,
            .cls-52,
            .cls-53,
            .cls-54,
            .cls-55,
            .cls-56,
            .cls-57,
            .cls-58,
            .cls-59,
            .cls-6,
            .cls-60,
            .cls-61,
            .cls-62,
            .cls-63,
            .cls-64,
            .cls-65,
            .cls-66,
            .cls-67,
            .cls-68,
            .cls-77 {
                stroke-width: 0.25px;
            }

            .cls-1,
            .cls-25 {
                fill: url(#未命名的渐变_2520);
            }

            .cls-2,
            .cls-28 {
                fill: url(#未命名的渐变_2520-2);
            }

            .cls-3,
            .cls-30 {
                fill: url(#未命名的渐变_2520-3);
            }

            .cls-32,
            .cls-4 {
                fill: url(#未命名的渐变_2520-4);
            }

            .cls-34,
            .cls-5 {
                fill: url(#未命名的渐变_2520-5);
            }

            .cls-36,
            .cls-6 {
                fill: url(#未命名的渐变_2520-6);
            }

            .cls-24,
            .cls-7 {
                isolation: isolate;
            }

            .cls-11,
            .cls-12,
            .cls-13,
            .cls-14,
            .cls-15,
            .cls-16,
            .cls-17,
            .cls-18,
            .cls-19,
            .cls-20,
            .cls-21,
            .cls-69,
            .cls-70,
            .cls-71,
            .cls-72,
            .cls-73,
            .cls-74,
            .cls-75,
            .cls-76,
            .cls-8 {
                stroke: #a4fcfe;
                stroke-width: 0.1px;
            }

            .cls-8 {
                fill: url(#未命名的渐变_89);
            }

            .cls-9 {
                opacity: 0.6;
            }

            .cls-10,
            .cls-27,
            .cls-42,
            .cls-56,
            .cls-58,
            .cls-61 {
                fill: none;
            }

            .cls-10 {
                stroke-linecap: round;
            }

            .cls-11 {
                fill: url(#未命名的渐变_86);
            }

            .cls-12 {
                fill: url(#未命名的渐变_130);
            }

            .cls-13 {
                fill: url(#未命名的渐变_86-2);
            }

            .cls-14 {
                fill: url(#未命名的渐变_130-2);
            }

            .cls-15 {
                fill: url(#未命名的渐变_86-3);
            }

            .cls-16 {
                fill: url(#未命名的渐变_89-2);
            }

            .cls-17 {
                fill: url(#未命名的渐变_86-4);
            }

            .cls-18 {
                fill: url(#未命名的渐变_86-5);
            }

            .cls-19 {
                fill: url(#未命名的渐变_86-6);
            }

            .cls-20 {
                fill: url(#未命名的渐变_104);
            }

            .cls-21 {
                fill: url(#未命名的渐变_130-3);
            }

            .cls-22 {
                fill: #3480d2;
            }

            .cls-23 {
                fill: #0c2840;
            }

            .cls-24,
            .cls-49 {
                opacity: 0.2;
            }

            .cls-26 {
                clip-path: url(#clip-path);
            }

            .cls-29 {
                clip-path: url(#clip-path-2);
            }

            .cls-31 {
                clip-path: url(#clip-path-3);
            }

            .cls-33 {
                clip-path: url(#clip-path-4);
            }

            .cls-35 {
                clip-path: url(#clip-path-5);
            }

            .cls-37 {
                clip-path: url(#clip-path-6);
            }

            .cls-38 {
                fill: url(#未命名的渐变_2520-19);
                stroke: url(#未命名的渐变_111);
            }

            .cls-39 {
                fill: url(#未命名的渐变_2520-20);
                stroke: url(#未命名的渐变_111-2);
            }

            .cls-40,
            .cls-45 {
                stroke-width: 0.5px;
            }

            .cls-40 {
                fill: url(#未命名的渐变_2520-21);
                stroke: url(#未命名的渐变_167);
            }

            .cls-41 {
                fill: url(#未命名的渐变_39);
                stroke: url(#未命名的渐变_161);
            }

            .cls-42 {
                stroke: url(#未命名的渐变_111-3);
            }

            .cls-43 {
                opacity: 0.08;
            }

            .cls-44 {
                fill: url(#未命名的渐变_2520-22);
            }

            .cls-45 {
                fill: url(#未命名的渐变_2520-23);
                stroke: url(#未命名的渐变_167-2);
            }

            .cls-46 {
                fill: url(#未命名的渐变_2520-24);
                stroke: url(#未命名的渐变_111-4);
            }

            .cls-47 {
                fill: url(#未命名的渐变_2520-25);
            }

            .cls-48 {
                fill: url(#未命名的渐变_31);
            }

            .cls-50 {
                fill: url(#未命名的渐变_2520-26);
                stroke: url(#未命名的渐变_111-5);
            }

            .cls-51 {
                fill: url(#未命名的渐变_2520-27);
                stroke: url(#未命名的渐变_111-6);
            }

            .cls-52 {
                fill: url(#未命名的渐变_2520-28);
                stroke: url(#未命名的渐变_111-7);
            }

            .cls-53 {
                fill: url(#未命名的渐变_2520-29);
                stroke: url(#未命名的渐变_111-8);
            }

            .cls-54 {
                fill: url(#未命名的渐变_2520-30);
                stroke: url(#未命名的渐变_111-9);
            }

            .cls-55 {
                fill: url(#未命名的渐变_2520-31);
                stroke: url(#未命名的渐变_111-10);
            }

            .cls-56 {
                stroke: url(#未命名的渐变_111-11);
            }

            .cls-57 {
                fill: url(#未命名的渐变_39-2);
                stroke: url(#未命名的渐变_109);
            }

            .cls-58 {
                stroke: url(#未命名的渐变_111-12);
            }

            .cls-59 {
                fill: url(#未命名的渐变_2520-32);
            }

            .cls-60 {
                fill: url(#未命名的渐变_39-3);
                stroke: url(#未命名的渐变_109-2);
            }

            .cls-61 {
                stroke: url(#未命名的渐变_111-13);
            }

            .cls-62 {
                fill: url(#未命名的渐变_2520-33);
            }

            .cls-63 {
                fill: url(#未命名的渐变_2520-34);
                stroke: url(#未命名的渐变_111-14);
            }

            .cls-64 {
                fill: url(#未命名的渐变_2520-35);
                stroke: url(#未命名的渐变_111-15);
            }

            .cls-65 {
                fill: url(#未命名的渐变_2520-36);
            }

            .cls-66 {
                fill: url(#未命名的渐变_25);
            }

            .cls-67 {
                fill: url(#未命名的渐变_25-2);
            }

            .cls-68 {
                fill: url(#未命名的渐变_25-3);
            }

            .cls-69 {
                fill: url(#未命名的渐变_86-7);
            }

            .cls-70 {
                fill: url(#未命名的渐变_130-4);
            }

            .cls-71 {
                fill: url(#未命名的渐变_86-8);
            }

            .cls-72 {
                fill: url(#未命名的渐变_130-5);
            }

            .cls-73 {
                fill: url(#未命名的渐变_86-9);
            }

            .cls-74 {
                fill: url(#未命名的渐变_130-6);
            }

            .cls-75 {
                fill: url(#未命名的渐变_86-10);
            }

            .cls-76 {
                fill: url(#未命名的渐变_130-7);
            }

            .cls-77 {
                fill: url(#未命名的渐变_25-4);
            }
        </style>
        <linearGradient id="未命名的渐变_2520" x1="17.22" y1="105.25" x2="28.87" y2="93.6" gradientUnits="userSpaceOnUse">
            <stop offset="0" stop-color="#2a6aaf" stop-opacity="0" />
            <stop offset="1" stop-color="#5ac8f7" stop-opacity="0.6" />
        </linearGradient>
        <linearGradient id="未命名的渐变_2520-2" x1="5.84" y1="105.25" x2="20.57" y2="90.52" xlink:href="#未命名的渐变_2520" />
        <linearGradient id="未命名的渐变_2520-3" x1="18.31" y1="112.49" x2="33.03" y2="97.77" xlink:href="#未命名的渐变_2520" />
        <linearGradient id="未命名的渐变_2520-4" x1="9.64" y1="110.58" x2="29.31" y2="110.58" xlink:href="#未命名的渐变_2520" />
        <linearGradient id="未命名的渐变_2520-5" x1="10.01" y1="109.42" x2="21.66" y2="97.76" xlink:href="#未命名的渐变_2520" />
        <linearGradient id="未命名的渐变_2520-6" x1="22.53" y1="97.85" x2="16.28" y2="87.02" xlink:href="#未命名的渐变_2520" />
        <linearGradient id="未命名的渐变_89" x1="7.25" y1="21.72" x2="60.89" y2="21.72" gradientUnits="userSpaceOnUse">
            <stop offset="0" stop-color="#3480d3" />
            <stop offset="0.14" stop-color="#3687d6" />
            <stop offset="0.35" stop-color="#3d9bdc" />
            <stop offset="0.6" stop-color="#47bce8" />
            <stop offset="0.88" stop-color="#55eaf8" />
            <stop offset="1" stop-color="#5cffff" />
        </linearGradient>
        <linearGradient id="未命名的渐变_86" x1="7.14" y1="26.45" x2="60.89" y2="26.45" gradientUnits="userSpaceOnUse">
            <stop offset="0" stop-color="#0a253b" />
            <stop offset="0.22" stop-color="#174169" />
            <stop offset="0.47" stop-color="#235c97" />
            <stop offset="0.69" stop-color="#2c70b8" />
            <stop offset="0.88" stop-color="#327ccc" />
            <stop offset="1" stop-color="#3480d3" />
        </linearGradient>
        <linearGradient id="未命名的渐变_130" x1="43.58" y1="32.06" x2="24.56" y2="-0.89" gradientUnits="userSpaceOnUse">
            <stop offset="0" stop-color="#5cffff" />
            <stop offset="0.12" stop-color="#55eaf8" />
            <stop offset="0.4" stop-color="#47bce8" />
            <stop offset="0.65" stop-color="#3d9bdc" />
            <stop offset="0.86" stop-color="#3687d6" />
            <stop offset="1" stop-color="#3480d3" />
        </linearGradient>
        <linearGradient id="未命名的渐变_86-2" x1="0.05" y1="138.69" x2="67.98" y2="138.69" xlink:href="#未命名的渐变_86" />
        <linearGradient id="未命名的渐变_130-2" x1="46.1" y1="148.24" x2="22.06" y2="106.6" xlink:href="#未命名的渐变_130" />
        <linearGradient id="未命名的渐变_86-3" x1="6.73" y1="110.4" x2="61.25" y2="110.4" xlink:href="#未命名的渐变_86" />
        <linearGradient id="未命名的渐变_89-2" x1="2.45" y1="126.62" x2="65.58" y2="126.62"
            gradientTransform="translate(0.36 -0.1) rotate(0.16)" xlink:href="#未命名的渐变_89" />
        <linearGradient id="未命名的渐变_86-4" x1="56.79" y1="118.68" x2="65.12" y2="118.68" xlink:href="#未命名的渐变_86" />
        <linearGradient id="未命名的渐变_86-5" x1="2.89" y1="118.67" x2="11.72" y2="118.67" xlink:href="#未命名的渐变_86" />
        <linearGradient id="未命名的渐变_86-6" x1="2.45" y1="130.39" x2="65.58" y2="130.39" xlink:href="#未命名的渐变_86" />
        <linearGradient id="未命名的渐变_104" x1="7.1" y1="118.44" x2="60.88" y2="118.44"
            gradientTransform="translate(0.34 -0.1) rotate(0.16)" gradientUnits="userSpaceOnUse">
            <stop offset="0" stop-color="#0c4380" />
            <stop offset="0.13" stop-color="#0c4a84" />
            <stop offset="0.33" stop-color="#0e5e8f" />
            <stop offset="0.57" stop-color="#107fa1" />
            <stop offset="0.84" stop-color="#12adbb" />
            <stop offset="1" stop-color="#14cccc" />
        </linearGradient>
        <linearGradient id="未命名的渐变_130-3" x1="41.44" y1="21.36" x2="30.6" y2="2.6" xlink:href="#未命名的渐变_130" />
        <clipPath id="clip-path">
            <polygon class="cls-1" points="29.24 93.97 29.31 112.12 16.85 104.88 16.78 86.73 29.24 93.97" />
        </clipPath>
        <clipPath id="clip-path-2">
            <polygon class="cls-2" points="16.78 86.73 16.85 104.88 9.64 109.05 9.57 90.89 16.78 86.73" />
        </clipPath>
        <clipPath id="clip-path-3">
            <polygon class="cls-3" points="29.24 93.97 29.31 112.12 22.1 116.29 22.03 98.14 29.24 93.97" />
        </clipPath>
        <clipPath id="clip-path-4">
            <polygon class="cls-4" points="29.31 112.12 22.1 116.29 9.64 109.05 16.85 104.88 29.31 112.12" />
        </clipPath>
        <clipPath id="clip-path-5">
            <polygon class="cls-5" points="22.1 116.29 9.64 109.05 9.57 90.89 22.03 98.14 22.1 116.29" />
        </clipPath>
        <clipPath id="clip-path-6">
            <polygon class="cls-6" points="22.03 98.14 9.57 90.89 16.78 86.73 29.24 93.97 22.03 98.14" />
        </clipPath>
        <linearGradient id="未命名的渐变_2520-19" x1="179.95" y1="24.86" x2="184.67" y2="24.86"
            gradientTransform="translate(195.35 122.86) rotate(180)" xlink:href="#未命名的渐变_2520" />
        <linearGradient id="未命名的渐变_111" x1="-14.24" y1="87.08" x2="-17.31" y2="90.15"
            gradientTransform="translate(28.81 9.38)" gradientUnits="userSpaceOnUse">
            <stop offset="0" stop-color="#5ac8f7" />
            <stop offset="1" stop-color="#2a6aaf" stop-opacity="0" />
        </linearGradient>
        <linearGradient id="未命名的渐变_2520-20" x1="180.64" y1="24.37" x2="186.06" y2="24.37"
            gradientTransform="translate(195.35 122.86) rotate(180)" xlink:href="#未命名的渐变_2520" />
        <linearGradient id="未命名的渐变_111-2" x1="-15.24" y1="87.77" x2="-18.57" y2="91.1" xlink:href="#未命名的渐变_111" />
        <linearGradient id="未命名的渐变_2520-21" x1="9.29" y1="98.79" x2="14.01" y2="98.79" xlink:href="#未命名的渐变_2520" />
        <linearGradient id="未命名的渐变_167" x1="-15.54" y1="87.78" x2="-18.79" y2="91.03"
            gradientTransform="translate(28.81 9.38)" gradientUnits="userSpaceOnUse">
            <stop offset="0" stop-color="#5cffff" />
            <stop offset="1" stop-color="#2a6aaf" stop-opacity="0" />
        </linearGradient>
        <linearGradient id="未命名的渐变_39" x1="189.3" y1="20.74" x2="183.59" y2="24.04"
            gradientTransform="translate(195.35 122.86) rotate(180)" gradientUnits="userSpaceOnUse">
            <stop offset="0" stop-color="#5ac8f7" stop-opacity="0.6" />
            <stop offset="1" stop-color="#2a6aaf" stop-opacity="0" />
        </linearGradient>
        <linearGradient id="未命名的渐变_161" x1="89.86" y1="220.22" x2="93.89" y2="227.21"
            gradientTransform="matrix(0.5, 0.87, -0.87, 0.5, 157.23, -91.15)" gradientUnits="userSpaceOnUse">
            <stop offset="0" stop-color="#5ac8f7" stop-opacity="0.6" />
            <stop offset="1" stop-color="#2a6aaf" stop-opacity="0" />
        </linearGradient>
        <linearGradient id="未命名的渐变_111-3" x1="-15.67" y1="88.04" x2="-18.45" y2="90.83" xlink:href="#未命名的渐变_111" />
        <linearGradient id="未命名的渐变_2520-22" x1="185.67" y1="21.62" x2="189.92" y2="21.62"
            gradientTransform="translate(195.35 122.86) rotate(180)" xlink:href="#未命名的渐变_2520" />
        <linearGradient id="未命名的渐变_2520-23" x1="185.49" y1="21.57" x2="190.22" y2="21.57"
            gradientTransform="translate(195.35 122.86) rotate(180)" xlink:href="#未命名的渐变_2520" />
        <linearGradient id="未命名的渐变_167-2" x1="-19.69" y1="90.27" x2="-22.95" y2="93.53" xlink:href="#未命名的渐变_167" />
        <linearGradient id="未命名的渐变_2520-24" x1="186.18" y1="21.09" x2="191.6" y2="21.09"
            gradientTransform="translate(195.35 122.86) rotate(180)" xlink:href="#未命名的渐变_2520" />
        <linearGradient id="未命名的渐变_111-4" x1="-20.78" y1="91.05" x2="-24.11" y2="94.38" xlink:href="#未命名的渐变_111" />
        <linearGradient id="未命名的渐变_2520-25" x1="186.88" y1="20.78" x2="191.6" y2="20.78"
            gradientTransform="translate(195.35 122.86) rotate(180)" xlink:href="#未命名的渐变_2520" />
        <radialGradient id="未命名的渐变_31" cx="45.08" cy="83.67" r="29.97" gradientUnits="userSpaceOnUse">
            <stop offset="0" stop-color="#2a6aaf" stop-opacity="0" />
            <stop offset="1" stop-color="#5ac8f7" stop-opacity="0.6" />
        </radialGradient>
        <linearGradient id="未命名的渐变_2520-26" x1="110.04" y1="141.4" x2="113.58" y2="141.4"
            gradientTransform="matrix(-0.5, 0.87, -0.87, -0.5, 230.01, 97.49)" xlink:href="#未命名的渐变_2520" />
        <linearGradient id="未命名的渐变_111-5" x1="55.9" y1="-29.1" x2="53.55" y2="-26.75"
            gradientTransform="matrix(0.5, -0.87, 0.87, 0.5, 48.47, 184.97)" xlink:href="#未命名的渐变_111" />
        <linearGradient id="未命名的渐变_2520-27" x1="52.31" y1="174.73" x2="55.85" y2="174.73"
            gradientTransform="matrix(-0.5, 0.87, -0.87, -0.5, 230.01, 97.49)" xlink:href="#未命名的渐变_2520" />
        <linearGradient id="未命名的渐变_111-6" x1="111.1" y1="-60.47" x2="113.82" y2="-62.04"
            gradientTransform="matrix(0.5, -0.87, 0.87, 0.5, 48.47, 184.97)" xlink:href="#未命名的渐变_111" />
        <linearGradient id="未命名的渐变_2520-28" x1="53.94" y1="188.95" x2="57.48" y2="188.95"
            gradientTransform="matrix(-0.5, 0.87, -0.87, -0.5, 230.01, 97.49)" xlink:href="#未命名的渐变_2520" />
        <linearGradient id="未命名的渐变_111-7" x1="109.47" y1="-74.7" x2="112.19" y2="-76.27"
            gradientTransform="matrix(0.5, -0.87, 0.87, 0.5, 48.47, 184.97)" xlink:href="#未命名的渐变_111" />
        <linearGradient id="未命名的渐变_2520-29" x1="109.77" y1="156.69" x2="113.31" y2="156.69"
            gradientTransform="matrix(-0.5, 0.87, -0.87, -0.5, 230.01, 97.49)" xlink:href="#未命名的渐变_2520" />
        <linearGradient id="未命名的渐变_111-8" x1="56.17" y1="-44.39" x2="53.82" y2="-42.04"
            gradientTransform="matrix(0.5, -0.87, 0.87, 0.5, 48.47, 184.97)" xlink:href="#未命名的渐变_111" />
        <linearGradient id="未命名的渐变_2520-30" x1="129.07" y1="85.42" x2="133.79" y2="85.42"
            gradientTransform="translate(195.35 122.86) rotate(180)" xlink:href="#未命名的渐变_2520" />
        <linearGradient id="未命名的渐变_111-9" x1="36.64" y1="26.52" x2="33.57" y2="29.59" xlink:href="#未命名的渐变_111" />
        <linearGradient id="未命名的渐变_2520-31" x1="129.76" y1="84.93" x2="135.18" y2="84.93"
            gradientTransform="translate(195.35 122.86) rotate(180)" xlink:href="#未命名的渐变_2520" />
        <linearGradient id="未命名的渐变_111-10" x1="35.64" y1="27.21" x2="32.31" y2="30.54" xlink:href="#未命名的渐变_111" />
        <linearGradient id="未命名的渐变_111-11" x1="35.26" y1="27.31" x2="32.18" y2="30.39" xlink:href="#未命名的渐变_111" />
        <linearGradient id="未命名的渐变_39-2" x1="138.42" y1="81.3" x2="132.71" y2="84.6" xlink:href="#未命名的渐变_39" />
        <linearGradient id="未命名的渐变_109" x1="64.77" y1="153.35" x2="64.77" y2="146.5"
            gradientTransform="matrix(0.5, 0.87, -0.87, 0.5, 157.23, -91.15)" gradientUnits="userSpaceOnUse">
            <stop offset="0" stop-color="#5ac8f7" />
            <stop offset="0.38" stop-color="#5ac7f6" stop-opacity="0.99" />
            <stop offset="0.51" stop-color="#58c5f4" stop-opacity="0.96" />
            <stop offset="0.61" stop-color="#56c0f1" stop-opacity="0.92" />
            <stop offset="0.68" stop-color="#53baec" stop-opacity="0.85" />
            <stop offset="0.75" stop-color="#4eb1e6" stop-opacity="0.76" />
            <stop offset="0.81" stop-color="#49a7de" stop-opacity="0.65" />
            <stop offset="0.86" stop-color="#439bd4" stop-opacity="0.52" />
            <stop offset="0.91" stop-color="#3c8cc9" stop-opacity="0.37" />
            <stop offset="0.96" stop-color="#347dbd" stop-opacity="0.2" />
            <stop offset="1" stop-color="#2b6bb0" stop-opacity="0.01" />
            <stop offset="1" stop-color="#2a6aaf" stop-opacity="0" />
        </linearGradient>
        <linearGradient id="未命名的渐变_111-12" x1="35.21" y1="27.48" x2="32.42" y2="30.27" xlink:href="#未命名的渐变_111" />
        <linearGradient id="未命名的渐变_2520-32" x1="134.79" y1="82.18" x2="139.04" y2="82.18"
            gradientTransform="translate(195.35 122.86) rotate(180)" xlink:href="#未命名的渐变_2520" />
        <linearGradient id="未命名的渐变_39-3" x1="150.69" y1="74.22" x2="138.36" y2="81.33" xlink:href="#未命名的渐变_39" />
        <linearGradient id="未命名的渐变_109-2" x1="69.99" y1="156.76" x2="59.75" y2="162.68" xlink:href="#未命名的渐变_109" />
        <linearGradient id="未命名的渐变_111-13" x1="29.55" y1="30.75" x2="26.77" y2="33.53" xlink:href="#未命名的渐变_111" />
        <linearGradient id="未命名的渐变_2520-33" x1="147.06" y1="75.1" x2="151.31" y2="75.1"
            gradientTransform="translate(195.35 122.86) rotate(180)" xlink:href="#未命名的渐变_2520" />
        <linearGradient id="未命名的渐变_2520-34" x1="134.61" y1="82.13" x2="139.34" y2="82.13"
            gradientTransform="translate(195.35 122.86) rotate(180)" xlink:href="#未命名的渐变_2520" />
        <linearGradient id="未命名的渐变_111-14" x1="31.1" y1="29.8" x2="28.02" y2="32.88" xlink:href="#未命名的渐变_111" />
        <linearGradient id="未命名的渐变_2520-35" x1="135.3" y1="81.64" x2="140.72" y2="81.64"
            gradientTransform="translate(195.35 122.86) rotate(180)" xlink:href="#未命名的渐变_2520" />
        <linearGradient id="未命名的渐变_111-15" x1="30.1" y1="30.49" x2="26.77" y2="33.82" xlink:href="#未命名的渐变_111" />
        <linearGradient id="未命名的渐变_2520-36" x1="136" y1="81.34" x2="140.72" y2="81.34"
            gradientTransform="translate(195.35 122.86) rotate(180)" xlink:href="#未命名的渐变_2520" />
        <linearGradient id="未命名的渐变_25" x1="43.49" y1="90.91" x2="24.54" y2="58.09"
            gradientTransform="translate(108.42 40.27) rotate(89.84)" gradientUnits="userSpaceOnUse">
            <stop offset="0" stop-color="#2a6aaf" stop-opacity="0" />
            <stop offset="1" stop-color="#5ac8f7" stop-opacity="0.6" />
        </linearGradient>
        <linearGradient id="未命名的渐变_25-2" x1="7.1" y1="81.03" x2="60.73" y2="81.03"
            gradientTransform="matrix(1, 0, 0, 1, 0, 0)" xlink:href="#未命名的渐变_25" />
        <linearGradient id="未命名的渐变_25-3" x1="43.49" y1="88.83" x2="24.54" y2="56"
            gradientTransform="translate(106.34 38.19) rotate(89.84)" xlink:href="#未命名的渐变_25" />
        <linearGradient id="未命名的渐变_86-7" x1="14.86" y1="13.83" x2="19.05" y2="13.83" xlink:href="#未命名的渐变_86" />
        <linearGradient id="未命名的渐变_130-4" x1="17.7" y1="11.7" x2="16.22" y2="9.14"
            gradientTransform="translate(27.34 -6.57) rotate(89.84)" xlink:href="#未命名的渐变_130" />
        <linearGradient id="未命名的渐变_86-8" x1="14.05" y1="10.4" x2="19.86" y2="10.4" xlink:href="#未命名的渐变_86" />
        <linearGradient id="未命名的渐变_130-5" x1="17.99" y1="10.16" x2="15.94" y2="6.61"
            gradientTransform="translate(25.3 -8.61) rotate(89.84)" xlink:href="#未命名的渐变_130" />
        <linearGradient id="未命名的渐变_86-9" x1="25.76" y1="21.83" x2="29.94" y2="21.83" xlink:href="#未命名的渐变_86" />
        <linearGradient id="未命名的渐变_130-6" x1="28.6" y1="19.69" x2="27.12" y2="17.13"
            gradientTransform="translate(46.2 -9.5) rotate(89.84)" xlink:href="#未命名的渐变_130" />
        <linearGradient id="未命名的渐变_86-10" x1="24.95" y1="18.4" x2="30.75" y2="18.4" xlink:href="#未命名的渐变_86" />
        <linearGradient id="未命名的渐变_130-7" x1="28.89" y1="18.15" x2="26.84" y2="14.6"
            gradientTransform="translate(44.16 -11.54) rotate(89.84)" xlink:href="#未命名的渐变_130" />
        <linearGradient id="未命名的渐变_25-4" x1="7.14" y1="77.92" x2="60.89" y2="77.92"
            gradientTransform="matrix(1, 0, 0, 1, 0, 0)" xlink:href="#未命名的渐变_25" />
    </defs>
    <title>Pump station（泵站）</title>
    <g id="图层_2" data-name="图层 2">
        <g id="风格1">
            <g id="Pump_station_泵站_" data-name="Pump station（泵站）">
                <g class="cls-7">
                    <path class="cls-8"
                        d="M53,10.74c10.51,6.06,10.56,15.9.12,22s-27.41,6.06-37.92,0S4.6,16.8,15,10.74,42.46,4.67,53,10.74Z" />
                </g>
                <g id="云梯" class="cls-9">
                    <line class="cls-10" x1="17.61" y1="33.96" x2="17.61" y2="83.94" />
                    <line class="cls-10" x1="25.63" y1="29.94" x2="25.63" y2="79.92" />
                    <line class="cls-10" x1="17.61" y1="39.58" x2="25.63" y2="34.95" />
                    <line class="cls-10" x1="17.61" y1="45.85" x2="25.63" y2="41.22" />
                    <line class="cls-10" x1="17.61" y1="52.12" x2="25.63" y2="47.49" />
                    <line class="cls-10" x1="17.61" y1="58.4" x2="25.63" y2="53.77" />
                    <line class="cls-10" x1="17.61" y1="64.67" x2="25.63" y2="60.04" />
                    <line class="cls-10" x1="17.61" y1="70.94" x2="25.63" y2="66.31" />
                    <line class="cls-10" x1="17.61" y1="77.21" x2="25.63" y2="72.58" />
                    <line class="cls-10" x1="9.64" y1="31.84" x2="17.66" y2="36.47" />
                    <line class="cls-10" x1="17.61" y1="27.62" x2="25.63" y2="32.25" />
                    <line class="cls-10" x1="9.64" y1="76.81" x2="17.66" y2="81.44" />
                    <line class="cls-10" x1="17.61" y1="72.58" x2="25.63" y2="77.21" />
                </g>
                <g class="cls-7">
                    <path class="cls-11"
                        d="M60.89,15.66l-.11,6.28c0,3.95-2.61,7.9-7.8,10.91-10.44,6.07-27.41,6.07-37.92,0C9.77,29.8,7.13,25.79,7.14,21.79l.11-6.28c0,4,2.63,8,7.92,11.06,10.51,6.06,27.48,6.06,37.92,0C58.28,23.55,60.88,19.61,60.89,15.66Z" />
                    <path class="cls-12"
                        d="M53,4.6c10.51,6.07,10.56,15.9.12,22s-27.41,6.06-37.92,0S4.6,10.67,15,4.6,42.46-1.47,53,4.6Z" />
                </g>
                <g class="cls-7">
                    <path class="cls-13"
                        d="M68,127.52l-.14,3c0,5-3.3,10-9.85,13.79-13.2,7.67-34.65,7.67-47.93,0-6.69-3.86-10-8.92-10-14l.14-3c0,5.06,3.32,10.13,10,14,13.28,7.67,34.73,7.67,47.92,0C64.68,137.49,68,132.51,68,127.52Z" />
                    <path class="cls-14"
                        d="M58,113.54c13.28,7.67,13.35,20.1.15,27.76s-34.64,7.67-47.92,0S-3.16,121.21,10,113.54,44.69,105.87,58,113.54Z" />
                </g>
                <path class="cls-15"
                    d="M60.49,115.87h0c-.88-3-3.24-5.8-7.1-8.13l-.5-.28c-10.32-5.91-27-6-37.53-.1l-.37.21C10.88,110,8.37,112.93,7.47,116h0a10.08,10.08,0,0,1-.75,1.79A11.62,11.62,0,0,1,9,115.56a12.68,12.68,0,0,1,1-.77c.5-.34,1.18-.77,1.69-1.07l.44-.25c12.38-6.91,31.93-6.82,44.05.11l.58.34a21,21,0,0,1,3,2.16,11.22,11.22,0,0,1,1.47,1.58A10,10,0,0,1,60.49,115.87Z" />
                <ellipse class="cls-16" cx="34.01" cy="126.62" rx="31.56" ry="18.28"
                    transform="translate(-0.36 0.1) rotate(-0.16)" />
                <path class="cls-17"
                    d="M60.5,115.88h0a9.9,9.9,0,0,0,.76,1.79,15.1,15.1,0,0,0-4.46-3.74c4.53,2.72,7.3,6.06,8.33,9.53C62.09,121.25,60.57,116.15,60.5,115.88Z" />
                <path class="cls-18"
                    d="M11.72,113.72c-.37.22-.87.51-1.23.76-.63.44-1.46,1-2.06,1.54a11.22,11.22,0,0,0-1.7,1.79A10.12,10.12,0,0,0,7.47,116h0c-.08.27-1.56,5.39-4.58,7.6C3.94,120,6.9,116.51,11.72,113.72Z" />
                <path class="cls-19"
                    d="M65.12,123.45c-3-2.2-4.55-7.3-4.62-7.57,1.45,4.92-1.2,10.17-7.89,13.9-10.72,6-27.74,5.81-38-.38-6.12-3.69-8.47-8.68-7.11-13.37-.08.27-1.56,5.39-4.58,7.6-1.6,5.51,1.16,11.36,8.35,15.69,12.07,7.26,32.05,7.46,44.62.45C63.72,135.39,66.83,129.23,65.12,123.45Z" />
                <ellipse class="cls-20" cx="33.99" cy="118.44" rx="26.89" ry="15.58"
                    transform="translate(-0.34 0.1) rotate(-0.16)" />
                <polygon class="cls-21" points="54.47 13.78 39.19 22.66 17.57 10.18 32.85 1.3 54.47 13.78" />
                <polygon class="cls-22" points="54.47 13.78 54.46 15.41 39.19 24.29 39.19 22.66 54.47 13.78" />
                <polygon class="cls-23" points="39.19 22.66 39.19 24.29 17.57 11.81 17.57 10.18 39.19 22.66" />
                <g class="cls-9">
                    <g class="cls-24">
                        <polygon class="cls-25"
                            points="29.24 93.97 29.31 112.12 16.85 104.88 16.78 86.73 29.24 93.97" />
                        <g class="cls-26">
                            <polygon class="cls-1"
                                points="29.24 93.97 29.31 112.12 16.85 104.88 16.78 86.73 29.24 93.97" />
                        </g>
                        <polygon class="cls-27"
                            points="29.24 93.97 29.31 112.12 16.85 104.88 16.78 86.73 29.24 93.97" />
                    </g>
                    <g class="cls-24">
                        <polygon class="cls-28" points="16.78 86.73 16.85 104.88 9.64 109.05 9.57 90.89 16.78 86.73" />
                        <g class="cls-29">
                            <polygon class="cls-2"
                                points="16.78 86.73 16.85 104.88 9.64 109.05 9.57 90.89 16.78 86.73" />
                        </g>
                        <polygon class="cls-27" points="16.78 86.73 16.85 104.88 9.64 109.05 9.57 90.89 16.78 86.73" />
                    </g>
                    <g class="cls-7">
                        <polygon class="cls-30" points="29.24 93.97 29.31 112.12 22.1 116.29 22.03 98.14 29.24 93.97" />
                        <g class="cls-31">
                            <polygon class="cls-3"
                                points="29.24 93.97 29.31 112.12 22.1 116.29 22.03 98.14 29.24 93.97" />
                        </g>
                        <polygon class="cls-27" points="29.24 93.97 29.31 112.12 22.1 116.29 22.03 98.14 29.24 93.97" />
                    </g>
                    <g class="cls-24">
                        <polygon class="cls-32"
                            points="29.31 112.12 22.1 116.29 9.64 109.05 16.85 104.88 29.31 112.12" />
                        <g class="cls-33">
                            <polygon class="cls-4"
                                points="29.31 112.12 22.1 116.29 9.64 109.05 16.85 104.88 29.31 112.12" />
                        </g>
                        <polygon class="cls-27"
                            points="29.31 112.12 22.1 116.29 9.64 109.05 16.85 104.88 29.31 112.12" />
                    </g>
                    <g class="cls-7">
                        <polygon class="cls-34" points="22.1 116.29 9.64 109.05 9.57 90.89 22.03 98.14 22.1 116.29" />
                        <g class="cls-35">
                            <polygon class="cls-5"
                                points="22.1 116.29 9.64 109.05 9.57 90.89 22.03 98.14 22.1 116.29" />
                        </g>
                        <polygon class="cls-27" points="22.1 116.29 9.64 109.05 9.57 90.89 22.03 98.14 22.1 116.29" />
                    </g>
                    <g class="cls-7">
                        <polygon class="cls-36" points="22.03 98.14 9.57 90.89 16.78 86.73 29.24 93.97 22.03 98.14" />
                        <g class="cls-37">
                            <polygon class="cls-6"
                                points="22.03 98.14 9.57 90.89 16.78 86.73 29.24 93.97 22.03 98.14" />
                        </g>
                        <polygon class="cls-27" points="22.03 98.14 9.57 90.89 16.78 86.73 29.24 93.97 22.03 98.14" />
                    </g>
                    <path class="cls-38"
                        d="M13,100.71a5.19,5.19,0,0,1-2.36-4.08c0-1.5,1.07-2.1,2.37-1.35a5.2,5.2,0,0,1,2.36,4.08C15.39,100.86,14.33,101.46,13,100.71Z" />
                    <path class="cls-39"
                        d="M11.64,101.53a1.68,1.68,0,0,0,1.68.16l1.39-.81a1.66,1.66,0,0,1-1.68-.17,5.19,5.19,0,0,1-2.36-4.08,1.67,1.67,0,0,1,.69-1.51L10,95.93a1.64,1.64,0,0,0-.69,1.52A5.19,5.19,0,0,0,11.64,101.53Z" />
                    <path class="cls-40"
                        d="M11.64,101.5a5.18,5.18,0,0,1-2.35-4.07c0-1.5,1.06-2.11,2.37-1.35A5.19,5.19,0,0,1,14,100.15C14,101.65,13,102.26,11.64,101.5Z" />
                    <path class="cls-41"
                        d="M7.54,103.69a1.49,1.49,0,0,0,1.51.15l4.2-2.44a1.48,1.48,0,0,1-1.51-.14,4.69,4.69,0,0,1-2.12-3.67,1.5,1.5,0,0,1,.62-1.36L6,98.66A1.5,1.5,0,0,0,5.42,100,4.68,4.68,0,0,0,7.54,103.69Z" />
                    <path class="cls-42"
                        d="M11.74,101.26a4.69,4.69,0,0,1-2.12-3.67c0-1.35,1-1.89,2.14-1.22A4.66,4.66,0,0,1,13.87,100C13.87,101.39,12.91,101.93,11.74,101.26Z" />
                    <g class="cls-43">
                        <path class="cls-44"
                            d="M7.54,103.67A4.68,4.68,0,0,1,5.42,100c0-1.35,1-1.9,2.13-1.22a4.64,4.64,0,0,1,2.12,3.67C9.67,103.81,8.71,104.35,7.54,103.67Z" />
                    </g>
                    <path class="cls-45"
                        d="M7.48,104a5.22,5.22,0,0,1-2.35-4.08c0-1.5,1.06-2.1,2.37-1.35a5.18,5.18,0,0,1,2.35,4.08C9.85,104.14,8.79,104.75,7.48,104Z" />
                    <path class="cls-46"
                        d="M6.1,104.81a1.69,1.69,0,0,0,1.68.17l1.38-.82A1.66,1.66,0,0,1,7.48,104a5.22,5.22,0,0,1-2.35-4.08,1.64,1.64,0,0,1,.69-1.52l-1.39.82a1.67,1.67,0,0,0-.69,1.51A5.19,5.19,0,0,0,6.1,104.81Z" />
                    <path class="cls-47"
                        d="M6.1,104.79a5.19,5.19,0,0,1-2.36-4.08c0-1.5,1.07-2.1,2.37-1.35a5.19,5.19,0,0,1,2.36,4.08C8.46,104.94,7.4,105.54,6.1,104.79Z" />
                </g>
                <g class="cls-9">
                    <path class="cls-48"
                        d="M51.64,125.06c-1.42,0-2.5-.83-2.5-1.77V53.71A2.36,2.36,0,0,0,48,51.65l-6.93-4v68.07c0,.94-1.12,1.47-2.5,1.47s-2.5-.64-2.5-1.47V46.78a4.5,4.5,0,0,1,6.75-3.9l7.68,4.44a7.38,7.38,0,0,1,3.69,6.39v69.58C54.14,124.32,53.05,125.06,51.64,125.06Z" />
                    <g class="cls-49">
                        <path class="cls-50"
                            d="M53.41,124.64a3.86,3.86,0,0,1-3.53,0,1.08,1.08,0,0,1,0-2,3.86,3.86,0,0,1,3.53,0A1.08,1.08,0,0,1,53.41,124.64Z" />
                    </g>
                    <path class="cls-51"
                        d="M53.41,58a3.86,3.86,0,0,1-3.53,0,1.08,1.08,0,0,1,0-2,3.92,3.92,0,0,1,3.53,0A1.08,1.08,0,0,1,53.41,58Z" />
                    <path class="cls-52"
                        d="M40.27,52.28a3.9,3.9,0,0,1-3.52,0,1.08,1.08,0,0,1,0-2.05,3.9,3.9,0,0,1,3.52,0C41.26,50.8,41.25,51.71,40.27,52.28Z" />
                    <g class="cls-49">
                        <path class="cls-53"
                            d="M40.3,116.76a3.86,3.86,0,0,1-3.53,0,1.08,1.08,0,0,1,0-2,3.86,3.86,0,0,1,3.53,0A1.08,1.08,0,0,1,40.3,116.76Z" />
                    </g>
                </g>
                <g class="cls-9">
                    <path class="cls-54"
                        d="M63.91,40.15a5.19,5.19,0,0,1-2.36-4.08c0-1.49,1.07-2.1,2.37-1.35a5.2,5.2,0,0,1,2.36,4.08C66.27,40.3,65.21,40.91,63.91,40.15Z" />
                    <path class="cls-55"
                        d="M62.52,41a1.66,1.66,0,0,0,1.68.16l1.39-.81a1.66,1.66,0,0,1-1.68-.17,5.19,5.19,0,0,1-2.36-4.08,1.68,1.68,0,0,1,.69-1.51l-1.38.81a1.64,1.64,0,0,0-.69,1.52A5.19,5.19,0,0,0,62.52,41Z" />
                    <path class="cls-56"
                        d="M62.52,41a5.19,5.19,0,0,1-2.35-4.08c0-1.5,1.06-2.11,2.37-1.35a5.2,5.2,0,0,1,2.35,4.07C64.89,41.09,63.83,41.7,62.52,41Z" />
                    <path class="cls-57"
                        d="M58.42,43.13a1.46,1.46,0,0,0,1.51.15l4.2-2.43a1.51,1.51,0,0,1-1.51-.15A4.69,4.69,0,0,1,60.5,37a1.5,1.5,0,0,1,.62-1.36l-4.2,2.43a1.53,1.53,0,0,0-.62,1.37A4.68,4.68,0,0,0,58.42,43.13Z" />
                    <path class="cls-58"
                        d="M62.62,40.7A4.69,4.69,0,0,1,60.5,37c0-1.35,1-1.89,2.14-1.22a4.66,4.66,0,0,1,2.11,3.67C64.75,40.83,63.79,41.38,62.62,40.7Z" />
                    <g class="cls-43">
                        <path class="cls-59"
                            d="M58.42,43.12a4.69,4.69,0,0,1-2.12-3.67c0-1.35,1-1.89,2.13-1.22a4.64,4.64,0,0,1,2.12,3.67C60.55,43.25,59.59,43.79,58.42,43.12Z" />
                    </g>
                    <path class="cls-60"
                        d="M46.15,50.22a1.51,1.51,0,0,0,1.51.15l10.82-6.26A1.49,1.49,0,0,1,57,44a4.63,4.63,0,0,1-2.12-3.67,1.48,1.48,0,0,1,.62-1.36L44.66,45.19A1.46,1.46,0,0,0,44,46.55,4.66,4.66,0,0,0,46.15,50.22Z" />
                    <path class="cls-61"
                        d="M57,44a4.63,4.63,0,0,1-2.12-3.67c0-1.34,1-1.89,2.13-1.21a4.69,4.69,0,0,1,2.12,3.67C59.09,44.1,58.14,44.64,57,44Z" />
                    <g class="cls-49">
                        <path class="cls-62"
                            d="M46.15,50.2A4.66,4.66,0,0,1,44,46.53c0-1.35,1-1.89,2.13-1.21A4.64,4.64,0,0,1,48.28,49C48.28,50.33,47.33,50.88,46.15,50.2Z" />
                    </g>
                    <path class="cls-63"
                        d="M58.36,43.44A5.21,5.21,0,0,1,56,39.36c0-1.5,1.06-2.1,2.37-1.35a5.18,5.18,0,0,1,2.35,4.08C60.73,43.59,59.67,44.19,58.36,43.44Z" />
                    <path class="cls-64"
                        d="M57,44.25a1.66,1.66,0,0,0,1.68.17L60,43.6a1.66,1.66,0,0,1-1.68-.16A5.21,5.21,0,0,1,56,39.36a1.63,1.63,0,0,1,.69-1.51l-1.39.81a1.68,1.68,0,0,0-.69,1.51A5.19,5.19,0,0,0,57,44.25Z" />
                    <path class="cls-65"
                        d="M57,44.23a5.19,5.19,0,0,1-2.36-4.08c0-1.5,1.07-2.1,2.37-1.35a5.2,5.2,0,0,1,2.36,4.08C59.34,44.38,58.28,45,57,44.23Z" />
                </g>
                <g class="cls-9">
                    <g class="cls-49">
                        <ellipse class="cls-66" cx="34.02" cy="74.5" rx="15.47" ry="26.72"
                            transform="translate(-40.57 108.31) rotate(-89.84)" />
                    </g>
                    <path class="cls-67"
                        d="M60.73,72.49l-.2,1.84c0,3.94-2.6,7.87-7.76,10.87-10.41,6-27.32,6-37.78,0-5.27-3-7.9-7-7.89-11l.2-1.84c0,4,2.62,8,7.89,11,10.47,6,27.37,6,37.78,0C58.14,80.35,60.72,76.43,60.73,72.49Z" />
                    <ellipse class="cls-68" cx="34.02" cy="72.41" rx="15.47" ry="26.72"
                        transform="translate(-38.49 106.23) rotate(-89.84)" />
                </g>
                <path class="cls-69"
                    d="M19.05,10.43l0,5.62a1,1,0,0,1-.61.85,3.24,3.24,0,0,1-2.94,0,1.06,1.06,0,0,1-.62-.86l0-5.62a1.06,1.06,0,0,0,.62.86,3.24,3.24,0,0,0,2.94,0A1.07,1.07,0,0,0,19.05,10.43Z" />
                <ellipse class="cls-70" cx="16.96" cy="10.42" rx="1.21" ry="2.08"
                    transform="translate(6.49 27.36) rotate(-89.84)" />
                <path class="cls-71"
                    d="M19.86,8.39l0,2.38A1.42,1.42,0,0,1,19,11.94a4.45,4.45,0,0,1-4.08,0,1.46,1.46,0,0,1-.86-1.19l0-2.38a1.44,1.44,0,0,0,.85,1.2,4.53,4.53,0,0,0,4.09,0A1.46,1.46,0,0,0,19.86,8.39Z" />
                <ellipse class="cls-72" cx="16.97" cy="8.38" rx="1.67" ry="2.89"
                    transform="translate(8.54 25.33) rotate(-89.84)" />
                <path class="cls-73"
                    d="M29.94,18.42V24a1,1,0,0,1-.61.85,3.24,3.24,0,0,1-2.94,0,1.06,1.06,0,0,1-.62-.86l0-5.62a1,1,0,0,0,.61.86,3.26,3.26,0,0,0,2.95,0A1,1,0,0,0,29.94,18.42Z" />
                <ellipse class="cls-74" cx="27.86" cy="18.41" rx="1.21" ry="2.08"
                    transform="translate(9.37 46.22) rotate(-89.84)" />
                <path class="cls-75"
                    d="M30.75,16.38l0,2.38a1.41,1.41,0,0,1-.84,1.17,4.45,4.45,0,0,1-4.08,0A1.45,1.45,0,0,1,25,18.74l0-2.37a1.46,1.46,0,0,0,.86,1.19,4.51,4.51,0,0,0,4.08,0A1.44,1.44,0,0,0,30.75,16.38Z" />
                <ellipse class="cls-76" cx="27.86" cy="16.37" rx="1.67" ry="2.89"
                    transform="translate(11.41 44.19) rotate(-89.84)" />
                <path class="cls-77"
                    d="M60.89,21.8l-.11,96.93c0,4-2.61,7.89-7.8,10.91-10.44,6.07-27.41,6.07-37.92,0-5.29-3-7.93-7.06-7.92-11.06l.11-96.94c0,4,2.63,8,7.92,11.07,10.51,6.06,27.48,6.06,37.92,0C58.28,29.69,60.88,25.75,60.89,21.8Z" />
                
            </g>
        </g>
    </g>
</svg>