<svg xmlns="http://www.w3.org/2000/svg" xmlns:xlink="http://www.w3.org/1999/xlink" viewBox="0 0 104.2 150">
    <defs>
        <style>
            .cls-1 {
                fill: url(#未命名的渐变_105);
            }

            .cls-2 {
                fill: url(#未命名的渐变_105-2);
            }

            .cls-3 {
                fill: #e0e0e0;
            }

            .cls-4 {
                fill: url(#未命名的渐变_105-3);
            }

            .cls-5 {
                fill: url(#未命名的渐变_105-4);
            }

            .cls-6 {
                fill: url(#未命名的渐变_105-5);
            }

            .cls-7 {
                fill: url(#未命名的渐变_105-6);
            }

            .cls-8 {
                fill: url(#未命名的渐变_105-7);
            }

            .cls-9 {
                fill: url(#未命名的渐变_105-8);
            }

            .cls-10 {
                fill: url(#未命名的渐变_105-9);
            }

            .cls-11 {
                fill: url(#未命名的渐变_105-10);
            }

            .cls-12 {
                fill: url(#未命名的渐变_105-11);
            }

            .cls-13 {
                fill: url(#未命名的渐变_105-12);
            }

            .cls-14 {
                fill: url(#未命名的渐变_105-13);
            }

            .cls-15 {
                fill: url(#未命名的渐变_105-14);
            }

            .cls-16 {
                fill: url(#未命名的渐变_105-15);
            }

            .cls-17 {
                opacity: 0.2;
            }
        </style>
        <linearGradient id="未命名的渐变_105" x1="12.26" y1="98.64" x2="92.62" y2="98.64" gradientUnits="userSpaceOnUse">
            <stop offset="0" stop-color="#e2e2e2" />
            <stop offset="0.03" stop-color="#d0d0d0" />
            <stop offset="0.06" stop-color="#bcbcbc" />
            <stop offset="0.09" stop-color="#b5b5b5" />
            <stop offset="0.49" stop-color="#f6f6f6" />
            <stop offset="0.63" stop-color="#f3f3f3" />
            <stop offset="0.73" stop-color="#eaeaea" />
            <stop offset="0.82" stop-color="#dbdbdb" />
            <stop offset="0.9" stop-color="#c6c6c6" />
            <stop offset="0.97" stop-color="#aaa" />
            <stop offset="1" stop-color="#9b9b9b" />
        </linearGradient>
        <linearGradient id="未命名的渐变_105-2" x1="120.52" y1="98.56" x2="177.79" y2="98.56"
            gradientTransform="matrix(-1, 0, 0, 1, 201.14, 0)" xlink:href="#未命名的渐变_105" />
        <linearGradient id="未命名的渐变_105-3" x1="37.21" y1="85.35" x2="40.75" y2="85.35" xlink:href="#未命名的渐变_105" />
        <linearGradient id="未命名的渐变_105-4" x1="50.42" y1="80.23" x2="53.96" y2="80.23" xlink:href="#未命名的渐变_105" />
        <linearGradient id="未命名的渐变_105-5" x1="62.74" y1="84.65" x2="66.27" y2="84.65" xlink:href="#未命名的渐变_105" />
        <linearGradient id="未命名的渐变_105-6" x1="68.63" y1="99.02" x2="72.16" y2="99.02" xlink:href="#未命名的渐变_105" />
        <linearGradient id="未命名的渐变_105-7" x1="62.74" y1="113.04" x2="66.27" y2="113.04" xlink:href="#未命名的渐变_105" />
        <linearGradient id="未命名的渐变_105-8" x1="50.42" y1="117.99" x2="53.96" y2="117.99" xlink:href="#未命名的渐变_105" />
        <linearGradient id="未命名的渐变_105-9" x1="37.21" y1="112.69" x2="40.75" y2="112.69" xlink:href="#未命名的渐变_105" />
        <linearGradient id="未命名的渐变_105-10" x1="31.55" y1="99.02" x2="35.09" y2="99.02" xlink:href="#未命名的渐变_105" />
        <linearGradient id="未命名的渐变_105-11" x1="44.69" y1="10.27" x2="59.69" y2="10.27" xlink:href="#未命名的渐变_105" />
        <linearGradient id="未命名的渐变_105-12" x1="30.37" y1="27.45" x2="73.8" y2="27.45" xlink:href="#未命名的渐变_105" />
        <linearGradient id="未命名的渐变_105-13" x1="5.95" y1="139.06" x2="98.28" y2="139.06" xlink:href="#未命名的渐变_105" />
        <linearGradient id="未命名的渐变_105-14" x1="0" y1="146.33" x2="104.2" y2="146.33" xlink:href="#未命名的渐变_105" />
        <linearGradient id="未命名的渐变_105-15" x1="22.66" y1="48.06" x2="81.93" y2="48.06" xlink:href="#未命名的渐变_105" />
    </defs>
    <title>IoT-pump（泵）</title>
    <g id="图层_21" data-name="图层 21">
        <polygon class="cls-1"
            points="92.62 135.75 12.26 135.75 12.26 79.25 22.64 61.54 81.93 61.54 92.62 79.25 92.62 135.75" />
        <circle class="cls-2" cx="51.98" cy="98.56" r="28.63" />
        <circle class="cls-3" cx="51.98" cy="98.56" r="23.7" />
        <circle class="cls-4" cx="38.98" cy="85.35" r="1.77" />
        <circle class="cls-5" cx="52.19" cy="80.23" r="1.77" />
        <circle class="cls-6" cx="64.5" cy="84.65" r="1.77" />
        <circle class="cls-7" cx="70.4" cy="99.02" r="1.77" />
        <circle class="cls-8" cx="64.5" cy="113.04" r="1.77" />
        <circle class="cls-9" cx="52.19" cy="117.99" r="1.77" />
        <circle class="cls-10" cx="38.98" cy="112.69" r="1.77" />
        <circle class="cls-11" cx="33.32" cy="99.02" r="1.77" />
        <rect class="cls-12" x="44.69" y="0.22" width="15" height="20.1" />
        <rect class="cls-13" x="30.37" y="20.32" width="43.43" height="14.26" />
        <rect class="cls-14" x="5.95" y="135.75" width="92.33" height="6.62" />
        <rect class="cls-15" y="142.37" width="104.2" height="7.93" />
        <polygon class="cls-16"
            points="81.93 61.54 22.66 61.54 22.66 38.76 30.37 34.58 73.8 34.58 81.93 38.76 81.93 61.54" />
    </g>
    
</svg>