<svg xmlns="http://www.w3.org/2000/svg" xmlns:xlink="http://www.w3.org/1999/xlink" viewBox="0 0 150 27.36">
    <defs>
        <style>
            .cls-1 {
                fill: url(#未命名的渐变_74);
            }

            .cls-2 {
                fill: url(#未命名的渐变_67);
            }

            .cls-3 {
                fill: url(#未命名的渐变_67-2);
            }

            .cls-4 {
                fill: url(#未命名的渐变_67-3);
            }

            .cls-5 {
                fill: url(#未命名的渐变_67-4);
            }

            .cls-6 {
                fill: url(#未命名的渐变_67-5);
            }

            .cls-7 {
                fill: url(#未命名的渐变_67-6);
            }

            .cls-8 {
                fill: url(#未命名的渐变_105);
            }

            .cls-9 {
                fill: url(#未命名的渐变_105-2);
            }

            .cls-10 {
                fill: url(#未命名的渐变_67-7);
            }

            .cls-11 {
                fill: url(#未命名的渐变_67-8);
            }

            .cls-12 {
                fill: url(#未命名的渐变_67-9);
            }

            .cls-13 {
                fill: url(#未命名的渐变_74-2);
            }

            .cls-14 {
                fill: url(#未命名的渐变_67-10);
            }

            .cls-15 {
                fill: url(#未命名的渐变_67-11);
            }

            .cls-16 {
                fill: url(#未命名的渐变_67-12);
            }

            .cls-17 {
                fill: url(#未命名的渐变_67-13);
            }

            .cls-18 {
                fill: url(#未命名的渐变_67-14);
            }

            .cls-19 {
                fill: url(#未命名的渐变_67-15);
            }

            .cls-20 {
                fill: url(#未命名的渐变_67-16);
            }

            .cls-21 {
                fill: url(#未命名的渐变_67-17);
            }

            .cls-22 {
                fill: url(#未命名的渐变_67-18);
            }

            .cls-23 {
                fill: url(#未命名的渐变_67-19);
            }

            .cls-24 {
                fill: #616161;
            }

            .cls-25 {
                fill: url(#未命名的渐变_67-20);
            }

            .cls-26 {
                fill: url(#未命名的渐变_67-21);
            }

            .cls-27 {
                fill: url(#未命名的渐变_67-22);
            }

            .cls-28 {
                fill: url(#未命名的渐变_67-23);
            }

            .cls-29 {
                fill: url(#未命名的渐变_105-3);
            }

            .cls-30 {
                fill: url(#未命名的渐变_67-24);
            }

            .cls-31 {
                fill: url(#未命名的渐变_67-25);
            }

            .cls-32 {
                fill: url(#未命名的渐变_67-26);
            }

            .cls-33 {
                fill: url(#未命名的渐变_67-27);
            }

            .cls-34 {
                fill: url(#未命名的渐变_67-28);
            }

            .cls-35 {
                fill: url(#未命名的渐变_67-29);
            }

            .cls-36 {
                fill: url(#未命名的渐变_67-30);
            }

            .cls-37 {
                fill: url(#未命名的渐变_67-31);
            }

            .cls-38 {
                fill: url(#未命名的渐变_67-32);
            }

            .cls-39 {
                fill: url(#未命名的渐变_67-33);
            }

            .cls-40 {
                fill: url(#未命名的渐变_67-34);
            }

            .cls-41 {
                fill: url(#未命名的渐变_67-35);
            }

            .cls-42 {
                fill: url(#未命名的渐变_67-36);
            }

            .cls-43 {
                fill: url(#未命名的渐变_67-37);
            }

            .cls-44 {
                fill: url(#未命名的渐变_67-38);
            }

            .cls-45 {
                fill: url(#未命名的渐变_74-3);
            }

            .cls-46 {
                fill: #1f2428;
            }

            .cls-47 {
                fill: url(#未命名的渐变_67-39);
            }

            .cls-48 {
                opacity: 0.2;
            }
        </style>
        <linearGradient id="未命名的渐变_74" x1="75" y1="27.36" x2="75" y2="22.54" gradientUnits="userSpaceOnUse">
            <stop offset="0" stop-color="#6b6b6b" />
            <stop offset="0.01" stop-color="#767676" />
            <stop offset="0.03" stop-color="#959595" />
            <stop offset="0.04" stop-color="#aaa" />
            <stop offset="0.37" stop-color="#ccc" />
            <stop offset="0.74" stop-color="#eaeaea" />
            <stop offset="0.94" stop-color="#f6f6f6" />
            <stop offset="0.95" stop-color="#ededed" />
            <stop offset="0.96" stop-color="#d4d4d4" />
            <stop offset="0.97" stop-color="#ababab" />
            <stop offset="0.99" stop-color="#737373" />
            <stop offset="0.99" stop-color="#666" />
        </linearGradient>
        <linearGradient id="未命名的渐变_67" x1="1.4" y1="19.77" x2="1.4" y2="6.39" gradientUnits="userSpaceOnUse">
            <stop offset="0" stop-color="#6b6b6b" />
            <stop offset="0.11" stop-color="#767676" />
            <stop offset="0.3" stop-color="#959595" />
            <stop offset="0.41" stop-color="#aaa" />
            <stop offset="0.56" stop-color="#ccc" />
            <stop offset="0.71" stop-color="#eaeaea" />
            <stop offset="0.8" stop-color="#f6f6f6" />
            <stop offset="0.83" stop-color="#ededed" />
            <stop offset="0.87" stop-color="#d4d4d4" />
            <stop offset="0.92" stop-color="#ababab" />
            <stop offset="0.98" stop-color="#737373" />
            <stop offset="0.99" stop-color="#666" />
        </linearGradient>
        <linearGradient id="未命名的渐变_67-2" x1="6.38" y1="16.57" x2="6.38" y2="10.46" xlink:href="#未命名的渐变_67" />
        <linearGradient id="未命名的渐变_67-3" x1="91.37" y1="14.18" x2="91.37" y2="10.52" xlink:href="#未命名的渐变_67" />
        <linearGradient id="未命名的渐变_67-4" x1="101.52" y1="16.64" x2="101.52" y2="10.25" xlink:href="#未命名的渐变_67" />
        <linearGradient id="未命名的渐变_67-5" x1="119" y1="16.37" x2="119" y2="7.06" xlink:href="#未命名的渐变_67" />
        <linearGradient id="未命名的渐变_67-6" x1="111.11" y1="18.83" x2="111.11" y2="4.17" xlink:href="#未命名的渐变_67" />
        <linearGradient id="未命名的渐变_105" x1="110.87" y1="17.56" x2="110.87" y2="4.17" gradientUnits="userSpaceOnUse">
            <stop offset="0" stop-color="#e2e2e2" />
            <stop offset="0.03" stop-color="#d0d0d0" />
            <stop offset="0.06" stop-color="#bcbcbc" />
            <stop offset="0.09" stop-color="#b5b5b5" />
            <stop offset="0.49" stop-color="#f6f6f6" />
            <stop offset="0.63" stop-color="#f3f3f3" />
            <stop offset="0.73" stop-color="#eaeaea" />
            <stop offset="0.82" stop-color="#dbdbdb" />
            <stop offset="0.9" stop-color="#c6c6c6" />
            <stop offset="0.97" stop-color="#aaa" />
            <stop offset="1" stop-color="#9b9b9b" />
        </linearGradient>
        <linearGradient id="未命名的渐变_105-2" x1="125.89" y1="18.56" x2="125.89" y2="3.83" xlink:href="#未命名的渐变_105" />
        <linearGradient id="未命名的渐变_67-7" x1="11.37" y1="22.54" x2="11.37" y2="3.91" xlink:href="#未命名的渐变_67" />
        <linearGradient id="未命名的渐变_67-8" x1="43.16" y1="22.54" x2="43.16" y2="3.91" xlink:href="#未命名的渐变_67" />
        <linearGradient id="未命名的渐变_67-9" x1="85.35" y1="19.54" x2="90" y2="19.54" xlink:href="#未命名的渐变_67" />
        <linearGradient id="未命名的渐变_74-2" x1="106.93" y1="19.37" x2="115.29" y2="19.37" xlink:href="#未命名的渐变_74" />
        <linearGradient id="未命名的渐变_67-10" x1="74.95" y1="22.54" x2="74.95" y2="3.91" xlink:href="#未命名的渐变_67" />
        <linearGradient id="未命名的渐变_67-11" x1="99.51" y1="22.54" x2="99.51" y2="6.39" xlink:href="#未命名的渐变_67" />
        <linearGradient id="未命名的渐变_67-12" x1="27.27" y1="19.77" x2="27.27" y2="6.39" xlink:href="#未命名的渐变_67" />
        <linearGradient id="未命名的渐变_67-13" x1="83.83" y1="19.77" x2="83.83" y2="6.39" xlink:href="#未命名的渐变_67" />
        <linearGradient id="未命名的渐变_67-14" x1="59.06" y1="19.77" x2="59.06" y2="6.39" xlink:href="#未命名的渐变_67" />
        <linearGradient id="未命名的渐变_67-15" x1="27.27" y1="9.15" x2="27.27" y2="7.91" xlink:href="#未命名的渐变_67" />
        <linearGradient id="未命名的渐变_67-16" x1="27.27" y1="18.83" x2="27.27" y2="17.59" xlink:href="#未命名的渐变_67" />
        <linearGradient id="未命名的渐变_67-17" x1="65.38" y1="5.31" x2="70.03" y2="5.31" xlink:href="#未命名的渐变_67" />
        <linearGradient id="未命名的渐变_67-18" x1="63.37" y1="3.18" x2="71.65" y2="3.18" xlink:href="#未命名的渐变_67" />
        <linearGradient id="未命名的渐变_67-19" x1="78.36" y1="8.83" x2="78.36" y2="7.36" xlink:href="#未命名的渐变_67" />
        <linearGradient id="未命名的渐变_67-20" x1="78.36" y1="11.61" x2="78.36" y2="10.14" xlink:href="#未命名的渐变_67" />
        <linearGradient id="未命名的渐变_67-21" x1="78.36" y1="14.18" x2="78.36" y2="12.72" xlink:href="#未命名的渐变_67" />
        <linearGradient id="未命名的渐变_67-22" x1="78.36" y1="16.9" x2="78.36" y2="15.43" xlink:href="#未命名的渐变_67" />
        <linearGradient id="未命名的渐变_67-23" x1="78.36" y1="19.3" x2="78.36" y2="17.83" xlink:href="#未命名的渐变_67" />
        <linearGradient id="未命名的渐变_105-3" x1="883.52" y1="147.75" x2="883.52" y2="131.21"
            gradientTransform="matrix(1, 0, 0, -1, -737.45, 151.53)" xlink:href="#未命名的渐变_105" />
        <linearGradient id="未命名的渐变_67-24" x1="2252.14" y1="1248.7" x2="2252.14" y2="1232.26"
            gradientTransform="matrix(1, 0, 0, -1, -2118.23, 1252.53)" xlink:href="#未命名的渐变_67" />
        <linearGradient id="未命名的渐变_67-25" x1="2250.74" y1="-103.86" x2="2250.74" y2="-104.41"
            gradientTransform="translate(-2115.43 90.06) scale(1 0.82)" xlink:href="#未命名的渐变_67" />
        <linearGradient id="未命名的渐变_67-26" x1="2250.74" y1="-105.25" x2="2250.74" y2="-105.81"
            gradientTransform="translate(-2115.43 92.35) scale(1 0.82)" xlink:href="#未命名的渐变_67" />
        <linearGradient id="未命名的渐变_67-27" x1="2250.74" y1="-106.65" x2="2250.74" y2="-107.21"
            gradientTransform="translate(-2115.43 94.64) scale(1 0.82)" xlink:href="#未命名的渐变_67" />
        <linearGradient id="未命名的渐变_67-28" x1="2250.74" y1="-108.05" x2="2250.74" y2="-108.6"
            gradientTransform="translate(-2115.43 96.93) scale(1 0.82)" xlink:href="#未命名的渐变_67" />
        <linearGradient id="未命名的渐变_67-29" x1="2250.74" y1="-109.44" x2="2250.74" y2="-110"
            gradientTransform="translate(-2115.43 99.23) scale(1 0.82)" xlink:href="#未命名的渐变_67" />
        <linearGradient id="未命名的渐变_67-30" x1="2250.74" y1="-110.84" x2="2250.74" y2="-111.4"
            gradientTransform="translate(-2115.43 101.52) scale(1 0.82)" xlink:href="#未命名的渐变_67" />
        <linearGradient id="未命名的渐变_67-31" x1="2250.74" y1="-112.24" x2="2250.74" y2="-112.79"
            gradientTransform="translate(-2115.43 103.81) scale(1 0.82)" xlink:href="#未命名的渐变_67" />
        <linearGradient id="未命名的渐变_67-32" x1="2250.74" y1="-113.63" x2="2250.74" y2="-114.19"
            gradientTransform="translate(-2115.43 106.1) scale(1 0.82)" xlink:href="#未命名的渐变_67" />
        <linearGradient id="未命名的渐变_67-33" x1="2250.74" y1="-115.03" x2="2250.74" y2="-115.59"
            gradientTransform="translate(-2115.43 108.39) scale(1 0.82)" xlink:href="#未命名的渐变_67" />
        <linearGradient id="未命名的渐变_67-34" x1="2250.74" y1="-116.43" x2="2250.74" y2="-116.98"
            gradientTransform="translate(-2115.43 110.68) scale(1 0.82)" xlink:href="#未命名的渐变_67" />
        <linearGradient id="未命名的渐变_67-35" x1="2250.74" y1="-117.82" x2="2250.74" y2="-118.38"
            gradientTransform="translate(-2115.43 112.97) scale(1 0.82)" xlink:href="#未命名的渐变_67" />
        <linearGradient id="未命名的渐变_67-36" x1="2250.74" y1="-119.22" x2="2250.74" y2="-119.78"
            gradientTransform="translate(-2115.43 115.26) scale(1 0.82)" xlink:href="#未命名的渐变_67" />
        <linearGradient id="未命名的渐变_67-37" x1="2250.74" y1="-120.62" x2="2250.74" y2="-121.17"
            gradientTransform="translate(-2115.43 117.56) scale(1 0.82)" xlink:href="#未命名的渐变_67" />
        <linearGradient id="未命名的渐变_67-38" x1="2250.74" y1="-122.01" x2="2250.74" y2="-122.57"
            gradientTransform="translate(-2115.43 119.85) scale(1 0.82)" xlink:href="#未命名的渐变_67" />
        <linearGradient id="未命名的渐变_74-3" x1="131.05" y1="3.83" x2="131.05" y2="0" xlink:href="#未命名的渐变_74" />
        <linearGradient id="未命名的渐变_67-39" x1="1078.79" y1="20.28" x2="1078.79" y2="3.78"
            gradientTransform="matrix(1, 0, 0, -1, -937.09, 24.05)" xlink:href="#未命名的渐变_67" />
    </defs>
    <title>IoT-pump（泵）</title>
    <g id="图层_13" data-name="图层 13">
        <rect class="cls-1" y="22.54" width="150" height="4.82" />
        <rect class="cls-2" y="6.39" width="2.79" height="13.39" />
        <rect class="cls-3" x="2.79" y="10.46" width="7.18" height="6.11" />
        <rect class="cls-4" x="87.68" y="10.52" width="7.4" height="3.66" />
        <rect class="cls-5" x="97.82" y="10.25" width="7.4" height="6.39" />
        <rect class="cls-6" x="113.3" y="7.06" width="11.39" height="9.31" />
        <rect class="cls-7" x="105.22" y="4.17" width="11.78" height="14.66" />
        <rect class="cls-8" x="110.4" y="4.17" width="0.95" height="13.39" />
        <rect class="cls-9" x="124.69" y="3.83" width="2.4" height="14.74" />
        <rect class="cls-10" x="9.98" y="3.91" width="2.79" height="18.63" />
        <rect class="cls-11" x="41.77" y="3.91" width="2.79" height="18.63" />
        <rect class="cls-12" x="85.35" y="16.55" width="4.66" height="5.99" />
        <rect class="cls-13" x="106.93" y="16.37" width="8.35" height="5.99" />
        <rect class="cls-14" x="73.56" y="3.91" width="2.79" height="18.63" />
        <path class="cls-15"
            d="M97.08,6.39h4.86a2,2,0,0,1,2,2V22.54a0,0,0,0,1,0,0H95.07a0,0,0,0,1,0,0V8.4A2,2,0,0,1,97.08,6.39Z" />
        <rect class="cls-16" x="12.77" y="6.39" width="29" height="13.39" />
        <path class="cls-17"
            d="M76.35,6.39h8.9a6.06,6.06,0,0,1,6.06,6.06v1.28a6.06,6.06,0,0,1-6.06,6.06h-8.9a0,0,0,0,1,0,0V6.39A0,0,0,0,1,76.35,6.39Z" />
        <rect class="cls-18" x="44.56" y="6.39" width="29" height="13.39" />
        <rect class="cls-19" x="12.77" y="7.91" width="29" height="1.24" />
        <rect class="cls-20" x="12.77" y="17.59" width="29" height="1.24" />
        <rect class="cls-21" x="65.38" y="4.24" width="4.66" height="2.15" />
        <rect class="cls-22" x="63.37" y="2.13" width="8.28" height="2.11" />
        <rect class="cls-23" x="76.35" y="7.36" width="4.02" height="1.46" />
        <rect class="cls-24" x="97.5" y="8.42" width="4.02" height="3.93" />
        <rect class="cls-24" x="96.42" y="15.43" width="6.2" height="3.93" />
        <rect class="cls-25" x="76.35" y="10.14" width="4.02" height="1.46" />
        <rect class="cls-26" x="76.35" y="12.72" width="4.02" height="1.46" />
        <rect class="cls-27" x="76.35" y="15.43" width="4.02" height="1.46" />
        <rect class="cls-28" x="76.35" y="17.83" width="4.02" height="1.46" />
        <path class="cls-29" d="M146.57,3.78h-4.42V20.32h4.42s3.43.16,3.43-8.59C150,3.77,146.57,3.78,146.57,3.78Z" />
        <rect class="cls-30" x="126.55" y="3.83" width="14.73" height="16.44"
            transform="translate(267.83 24.11) rotate(180)" />
        <rect class="cls-31" x="129.35" y="4.42" width="11.93" height="0.46"
            transform="translate(270.63 9.29) rotate(180)" />
        <rect class="cls-32" x="129.35" y="5.56" width="11.93" height="0.46"
            transform="translate(270.63 11.58) rotate(180)" />
        <rect class="cls-33" x="129.35" y="6.71" width="11.93" height="0.46"
            transform="translate(270.63 13.87) rotate(180)" />
        <rect class="cls-34" x="129.35" y="7.85" width="11.93" height="0.46"
            transform="translate(270.63 16.17) rotate(180)" />
        <rect class="cls-35" x="129.35" y="9" width="11.93" height="0.46"
            transform="translate(270.63 18.46) rotate(180)" />
        <rect class="cls-36" x="129.35" y="10.15" width="11.93" height="0.46"
            transform="translate(270.63 20.75) rotate(180)" />
        <rect class="cls-37" x="129.35" y="11.29" width="11.93" height="0.46"
            transform="translate(270.63 23.04) rotate(180)" />
        <rect class="cls-38" x="129.35" y="12.44" width="11.93" height="0.46"
            transform="translate(270.63 25.33) rotate(180)" />
        <rect class="cls-39" x="129.35" y="13.58" width="11.93" height="0.46"
            transform="translate(270.63 27.62) rotate(180)" />
        <rect class="cls-40" x="129.35" y="14.73" width="11.93" height="0.46"
            transform="translate(270.63 29.91) rotate(180)" />
        <rect class="cls-41" x="129.35" y="15.87" width="11.93" height="0.46"
            transform="translate(270.63 32.21) rotate(180)" />
        <rect class="cls-42" x="129.35" y="17.02" width="11.93" height="0.46"
            transform="translate(270.63 34.5) rotate(180)" />
        <rect class="cls-43" x="129.35" y="18.17" width="11.93" height="0.46"
            transform="translate(270.63 36.79) rotate(180)" />
        <rect class="cls-44" x="129.35" y="19.31" width="11.93" height="0.46"
            transform="translate(270.63 39.08) rotate(180)" />
        <rect class="cls-45" x="128.19" width="5.72" height="3.83" />
        <rect class="cls-46" x="142.9" y="4.51" width="4.11" height="2.56" />
        <rect class="cls-47" x="141.28" y="3.78" width="0.84" height="16.5"
            transform="translate(283.4 24.05) rotate(180)" />
    </g>
    
</svg>