<svg xmlns="http://www.w3.org/2000/svg" xmlns:xlink="http://www.w3.org/1999/xlink" viewBox="0 0 73.46 150">
    <defs>
        <style>
            .cls-1 {
                fill: url(#未命名的渐变_105);
            }

            .cls-2 {
                fill: url(#未命名的渐变_67);
            }

            .cls-3 {
                fill: url(#未命名的渐变_105-2);
            }

            .cls-4 {
                fill: url(#未命名的渐变_105-3);
            }

            .cls-5 {
                fill: url(#未命名的渐变_105-4);
            }

            .cls-6 {
                fill: url(#未命名的渐变_105-5);
            }

            .cls-7 {
                fill: url(#未命名的渐变_105-6);
            }

            .cls-8 {
                fill: url(#未命名的渐变_105-7);
            }

            .cls-9 {
                fill: url(#未命名的渐变_105-8);
            }

            .cls-10 {
                fill: url(#未命名的渐变_105-9);
            }

            .cls-11 {
                fill: url(#未命名的渐变_105-10);
            }

            .cls-12 {
                fill: #040404;
            }

            .cls-13 {
                fill: url(#未命名的渐变_67-2);
            }

            .cls-14 {
                fill: url(#未命名的渐变_67-3);
            }

            .cls-15 {
                fill: url(#未命名的渐变_67-4);
            }

            .cls-16 {
                fill: url(#未命名的渐变_67-5);
            }

            .cls-17 {
                fill: url(#未命名的渐变_67-6);
            }

            .cls-18 {
                fill: url(#未命名的渐变_105-11);
            }

            .cls-19 {
                fill: url(#未命名的渐变_67-7);
            }

            .cls-20 {
                fill: url(#未命名的渐变_67-8);
            }

            .cls-21 {
                fill: url(#未命名的渐变_67-9);
            }

            .cls-22 {
                fill: url(#未命名的渐变_67-10);
            }

            .cls-23 {
                fill: url(#未命名的渐变_67-11);
            }

            .cls-24 {
                fill: url(#未命名的渐变_67-12);
            }

            .cls-25 {
                opacity: 0.2;
            }
        </style>
        <linearGradient id="未命名的渐变_105" x1="56.2" y1="118.18" x2="71.56" y2="118.18" gradientUnits="userSpaceOnUse">
            <stop offset="0" stop-color="#e2e2e2" />
            <stop offset="0.03" stop-color="#d0d0d0" />
            <stop offset="0.06" stop-color="#bcbcbc" />
            <stop offset="0.09" stop-color="#b5b5b5" />
            <stop offset="0.49" stop-color="#f6f6f6" />
            <stop offset="0.63" stop-color="#f3f3f3" />
            <stop offset="0.73" stop-color="#eaeaea" />
            <stop offset="0.82" stop-color="#dbdbdb" />
            <stop offset="0.9" stop-color="#c6c6c6" />
            <stop offset="0.97" stop-color="#aaa" />
            <stop offset="1" stop-color="#9b9b9b" />
        </linearGradient>
        <linearGradient id="未命名的渐变_67" x1="4.09" y1="141.59" x2="53" y2="141.59" gradientUnits="userSpaceOnUse">
            <stop offset="0" stop-color="#6b6b6b" />
            <stop offset="0.11" stop-color="#767676" />
            <stop offset="0.3" stop-color="#959595" />
            <stop offset="0.41" stop-color="#aaa" />
            <stop offset="0.56" stop-color="#ccc" />
            <stop offset="0.71" stop-color="#eaeaea" />
            <stop offset="0.8" stop-color="#f6f6f6" />
            <stop offset="0.83" stop-color="#ededed" />
            <stop offset="0.87" stop-color="#d4d4d4" />
            <stop offset="0.92" stop-color="#ababab" />
            <stop offset="0.98" stop-color="#737373" />
            <stop offset="0.99" stop-color="#666" />
        </linearGradient>
        <linearGradient id="未命名的渐变_105-2" x1="6.32" y1="141.25" x2="50.75" y2="141.25" xlink:href="#未命名的渐变_105" />
        <linearGradient id="未命名的渐变_105-3" x1="6.42" y1="32.67" x2="50.63" y2="32.67" xlink:href="#未命名的渐变_105" />
        <linearGradient id="未命名的渐变_105-4" x1="3.61" y1="41.37" x2="53.7" y2="41.37" xlink:href="#未命名的渐变_105" />
        <linearGradient id="未命名的渐变_105-5" x1="6.13" y1="74.63" x2="50.92" y2="74.63" xlink:href="#未命名的渐变_105" />
        <linearGradient id="未命名的渐变_105-6" x1="19.23" y1="13.37" x2="37.95" y2="13.37" xlink:href="#未命名的渐变_105" />
        <linearGradient id="未命名的渐变_105-7" x1="23.26" y1="63.77" x2="34.53" y2="63.77" xlink:href="#未命名的渐变_105" />
        <linearGradient id="未命名的渐变_105-8" x1="3.93" y1="107.88" x2="53.12" y2="107.88" xlink:href="#未命名的渐变_105" />
        <linearGradient id="未命名的渐变_105-9" x1="7.83" y1="114.93" x2="49.28" y2="114.93" xlink:href="#未命名的渐变_105" />
        <linearGradient id="未命名的渐变_105-10" x1="0" y1="126.18" x2="57.03" y2="126.18" xlink:href="#未命名的渐变_105" />
        <linearGradient id="未命名的渐变_67-2" x1="55.68" y1="109.17" x2="71.88" y2="109.17"
            gradientTransform="translate(-45.39 172.95) rotate(-90)" xlink:href="#未命名的渐变_67" />
        <linearGradient id="未命名的渐变_67-3" x1="55.68" y1="105.09" x2="71.88" y2="105.09"
            gradientTransform="translate(-41.31 168.88) rotate(-90)" xlink:href="#未命名的渐变_67" />
        <linearGradient id="未命名的渐变_67-4" x1="55.68" y1="101.02" x2="71.88" y2="101.02"
            gradientTransform="translate(-37.23 164.8) rotate(-90)" xlink:href="#未命名的渐变_67" />
        <linearGradient id="未命名的渐变_67-5" x1="55.68" y1="96.94" x2="71.88" y2="96.94"
            gradientTransform="translate(-33.16 160.72) rotate(-90)" xlink:href="#未命名的渐变_67" />
        <linearGradient id="未命名的渐变_67-6" x1="54.72" y1="116.24" x2="73.46" y2="116.24" xlink:href="#未命名的渐变_67" />
        <linearGradient id="未命名的渐变_105-11" x1="14.88" y1="17.25" x2="42.49" y2="17.25" xlink:href="#未命名的渐变_105" />
        <linearGradient id="未命名的渐变_67-7" x1="245.26" y1="1034.54" x2="245.26" y2="989.75"
            gradientTransform="translate(-216.73 -967.27)" xlink:href="#未命名的渐变_67" />
        <linearGradient id="未命名的渐变_67-8" x1="185.76" y1="1034.41" x2="185.76" y2="989.63"
            gradientTransform="translate(-157.37 -907.64)" xlink:href="#未命名的渐变_67" />
        <linearGradient id="未命名的渐变_67-9" x1="-1217.44" y1="515.78" x2="-1217.44" y2="513.64"
            gradientTransform="matrix(1, 0, 0, -0.82, 1226.66, 496.94)" xlink:href="#未命名的渐变_67" />
        <linearGradient id="未命名的渐变_67-10" x1="-1217.44" y1="528.74" x2="-1217.44" y2="526.59"
            gradientTransform="matrix(1, 0, 0, -0.82, 1237.29, 507.57)" xlink:href="#未命名的渐变_67" />
        <linearGradient id="未命名的渐变_67-11" x1="-1217.44" y1="550.44" x2="-1217.44" y2="548.3"
            gradientTransform="matrix(1, 0, 0, -0.82, 1255.09, 525.37)" xlink:href="#未命名的渐变_67" />
        <linearGradient id="未命名的渐变_67-12" x1="-1217.44" y1="563.17" x2="-1217.44" y2="561.02"
            gradientTransform="matrix(1, 0, 0, -0.82, 1265.52, 535.81)" xlink:href="#未命名的渐变_67" />
    </defs>
    <title>IoT-pump（泵）</title>
    <g id="图层_30" data-name="图层 30">
        <path class="cls-1"
            d="M56.2,93.21H71.56a0,0,0,0,1,0,0v48.68a1.26,1.26,0,0,1-1.26,1.26H57.46a1.26,1.26,0,0,1-1.26-1.26V93.21a0,0,0,0,1,0,0Z" />
        <rect class="cls-2" x="4.09" y="133.18" width="48.91" height="16.82" />
        <rect class="cls-3" x="6.32" y="134.63" width="44.44" height="13.23" />
        <polygon class="cls-4" points="50.63 38.59 6.42 38.59 12.72 26.74 43.75 26.74 50.63 38.59" />
        <rect class="cls-5" x="3.61" y="38.59" width="50.09" height="5.57" />
        <rect class="cls-6" x="6.13" y="45.6" width="44.78" height="58.05" />
        <rect class="cls-7" x="19.23" width="18.72" height="26.74" />
        <rect class="cls-8" x="23.26" y="53.87" width="11.27" height="19.81" />
        <rect class="cls-9" x="3.93" y="105.09" width="49.2" height="5.57" />
        <rect class="cls-10" x="7.83" y="110.66" width="41.45" height="8.54" />
        <rect class="cls-11" y="119.2" width="57.03" height="13.96" />
        <rect class="cls-12" x="7.83" y="135.83" width="1.52" height="10.59" />
        <rect class="cls-12" x="12.82" y="135.83" width="1.52" height="10.59" />
        <rect class="cls-12" x="17.82" y="135.83" width="1.52" height="10.59" />
        <rect class="cls-12" x="22.81" y="135.83" width="1.52" height="10.59" />
        <rect class="cls-12" x="27.8" y="135.83" width="1.52" height="10.59" />
        <rect class="cls-12" x="32.79" y="135.83" width="1.52" height="10.59" />
        <rect class="cls-12" x="37.78" y="135.83" width="1.52" height="10.59" />
        <rect class="cls-12" x="42.77" y="135.83" width="1.52" height="10.59" />
        <rect class="cls-12" x="47.77" y="135.83" width="1.52" height="10.59" />
        <rect class="cls-13" x="63.03" y="101.07" width="1.52" height="16.2"
            transform="translate(172.95 45.39) rotate(90)" />
        <rect class="cls-14" x="63.03" y="96.99" width="1.52" height="16.2"
            transform="translate(168.88 41.31) rotate(90)" />
        <rect class="cls-15" x="63.03" y="92.92" width="1.52" height="16.2"
            transform="translate(164.8 37.23) rotate(90)" />
        <rect class="cls-16" x="63.03" y="88.84" width="1.52" height="16.2"
            transform="translate(160.72 33.16) rotate(90)" />
        <rect class="cls-17" x="54.72" y="112.86" width="18.74" height="6.74" />
        <rect class="cls-18" x="14.88" y="12.36" width="27.62" height="9.78" />
        <rect class="cls-19" x="27.8" y="22.49" width="1.44" height="44.78"
            transform="translate(-16.35 73.4) rotate(-90)" />
        <rect class="cls-20" x="27.68" y="81.98" width="1.44" height="44.78"
            transform="translate(-75.98 132.77) rotate(-90)" />
        <rect class="cls-21" x="-21.39" y="73.89" width="61.21" height="1.76"
            transform="translate(83.98 65.55) rotate(90)" />
        <rect class="cls-22" x="-10.76" y="73.89" width="61.21" height="1.76"
            transform="translate(94.61 54.92) rotate(90)" />
        <rect class="cls-23" x="7.04" y="73.89" width="61.21" height="1.76"
            transform="translate(112.41 37.12) rotate(90)" />
        <rect class="cls-24" x="17.48" y="73.89" width="61.21" height="1.76"
            transform="translate(122.85 26.68) rotate(90)" />
    </g>
    
</svg>