<svg xmlns="http://www.w3.org/2000/svg" xmlns:xlink="http://www.w3.org/1999/xlink" viewBox="0 0 57.02 150">
    <defs>
        <style>
            .cls-1 {
                fill: url(#未命名的渐变_105);
            }

            .cls-2 {
                fill: url(#未命名的渐变_74);
            }

            .cls-3 {
                fill: url(#未命名的渐变_143);
            }

            .cls-4 {
                fill: url(#未命名的渐变_143-2);
            }

            .cls-5 {
                fill: url(#未命名的渐变_143-3);
            }

            .cls-6 {
                fill: url(#未命名的渐变_143-4);
            }

            .cls-7 {
                fill: url(#未命名的渐变_105-2);
            }

            .cls-8 {
                fill: url(#未命名的渐变_105-3);
            }

            .cls-9 {
                fill: url(#未命名的渐变_105-4);
            }

            .cls-10 {
                fill: url(#未命名的渐变_105-5);
            }

            .cls-11 {
                fill: url(#未命名的渐变_105-6);
            }

            .cls-12 {
                fill: url(#未命名的渐变_105-7);
            }

            .cls-13 {
                fill: url(#未命名的渐变_105-8);
            }

            .cls-14 {
                fill: url(#未命名的渐变_105-9);
            }

            .cls-15 {
                fill: url(#未命名的渐变_105-10);
            }

            .cls-16 {
                fill: url(#未命名的渐变_105-11);
            }

            .cls-17 {
                fill: url(#未命名的渐变_105-12);
            }

            .cls-18 {
                fill: url(#未命名的渐变_105-13);
            }

            .cls-19 {
                fill: url(#未命名的渐变_105-14);
            }

            .cls-20 {
                fill: url(#未命名的渐变_105-15);
            }

            .cls-21 {
                fill: url(#未命名的渐变_105-16);
            }

            .cls-22 {
                fill: url(#未命名的渐变_105-17);
            }

            .cls-23 {
                fill: url(#未命名的渐变_105-18);
            }

            .cls-24 {
                fill: url(#未命名的渐变_143-5);
            }

            .cls-25 {
                fill: url(#未命名的渐变_143-6);
            }

            .cls-26 {
                fill: url(#未命名的渐变_143-7);
            }

            .cls-27 {
                fill: url(#未命名的渐变_143-8);
            }

            .cls-28 {
                fill: url(#未命名的渐变_105-19);
            }

            .cls-29 {
                fill: url(#未命名的渐变_105-20);
            }

            .cls-30 {
                fill: url(#未命名的渐变_143-9);
            }

            .cls-31 {
                fill: url(#未命名的渐变_143-10);
            }

            .cls-32 {
                fill: url(#未命名的渐变_74-2);
            }

            .cls-33 {
                opacity: 0.2;
            }
        </style>
        <linearGradient id="未命名的渐变_105" x1="28.44" y1="94.2" x2="37.79" y2="94.2" gradientUnits="userSpaceOnUse">
            <stop offset="0" stop-color="#e2e2e2" />
            <stop offset="0.03" stop-color="#d0d0d0" />
            <stop offset="0.06" stop-color="#bcbcbc" />
            <stop offset="0.09" stop-color="#b5b5b5" />
            <stop offset="0.49" stop-color="#f6f6f6" />
            <stop offset="0.63" stop-color="#f3f3f3" />
            <stop offset="0.73" stop-color="#eaeaea" />
            <stop offset="0.82" stop-color="#dbdbdb" />
            <stop offset="0.9" stop-color="#c6c6c6" />
            <stop offset="0.97" stop-color="#aaa" />
            <stop offset="1" stop-color="#9b9b9b" />
        </linearGradient>
        <linearGradient id="未命名的渐变_74" x1="45.61" y1="25.65" x2="49.64" y2="25.65" gradientUnits="userSpaceOnUse">
            <stop offset="0" stop-color="#6b6b6b" />
            <stop offset="0.01" stop-color="#767676" />
            <stop offset="0.03" stop-color="#959595" />
            <stop offset="0.04" stop-color="#aaa" />
            <stop offset="0.37" stop-color="#ccc" />
            <stop offset="0.74" stop-color="#eaeaea" />
            <stop offset="0.94" stop-color="#f6f6f6" />
            <stop offset="0.95" stop-color="#ededed" />
            <stop offset="0.96" stop-color="#d4d4d4" />
            <stop offset="0.97" stop-color="#ababab" />
            <stop offset="0.99" stop-color="#737373" />
            <stop offset="0.99" stop-color="#666" />
        </linearGradient>
        <linearGradient id="未命名的渐变_143" x1="21.5" y1="5.11" x2="46.26" y2="5.11" gradientUnits="userSpaceOnUse">
            <stop offset="0" stop-color="#b7b7b7" />
            <stop offset="0.03" stop-color="#9b9d9d" />
            <stop offset="0.07" stop-color="#878b8b" />
            <stop offset="0.09" stop-color="#808484" />
            <stop offset="0.2" stop-color="#a3a6a6" />
            <stop offset="0.49" stop-color="#f6f6f6" />
            <stop offset="0.61" stop-color="#f3f3f3" />
            <stop offset="0.7" stop-color="#eaeaea" />
            <stop offset="0.77" stop-color="#dbdbdb" />
            <stop offset="0.83" stop-color="#c5c5c5" />
            <stop offset="0.9" stop-color="#aaa" />
            <stop offset="0.95" stop-color="#888" />
            <stop offset="1" stop-color="#666" />
        </linearGradient>
        <linearGradient id="未命名的渐变_143-2" x1="23.74" y1="45.23" x2="42.59" y2="45.23" xlink:href="#未命名的渐变_143" />
        <linearGradient id="未命名的渐变_143-3" x1="20.9" y1="38.77" x2="45.36" y2="38.77" xlink:href="#未命名的渐变_143" />
        <linearGradient id="未命名的渐变_143-4" x1="3.75" y1="2167.61" x2="3.75" y2="2160.46"
            gradientTransform="matrix(1, 0, 0, -1, 0, 2308.79)" xlink:href="#未命名的渐变_143" />
        <linearGradient id="未命名的渐变_105-2" x1="16.47" y1="58.89" x2="50.68" y2="58.89" xlink:href="#未命名的渐变_105" />
        <linearGradient id="未命名的渐变_105-3" x1="-1521.81" y1="405.1" x2="-1521.81" y2="380.25"
            gradientTransform="matrix(0, 1, 1, 0, -358.84, 1539.37)" xlink:href="#未命名的渐变_105" />
        <linearGradient id="未命名的渐变_105-4" x1="-1443.71" y1="555.13" x2="-1443.71" y2="554.54"
            gradientTransform="translate(-532.42 -1421.78) rotate(-90)" xlink:href="#未命名的渐变_105" />
        <linearGradient id="未命名的渐变_105-5" x1="-1443.71" y1="553.52" x2="-1443.71" y2="552.92"
            gradientTransform="translate(-529.18 -1421.78) rotate(-90)" xlink:href="#未命名的渐变_105" />
        <linearGradient id="未命名的渐变_105-6" x1="-1443.71" y1="551.9" x2="-1443.71" y2="551.3"
            gradientTransform="translate(-525.95 -1421.78) rotate(-90)" xlink:href="#未命名的渐变_105" />
        <linearGradient id="未命名的渐变_105-7" x1="-1443.71" y1="550.28" x2="-1443.71" y2="549.69"
            gradientTransform="translate(-522.71 -1421.78) rotate(-90)" xlink:href="#未命名的渐变_105" />
        <linearGradient id="未命名的渐变_105-8" x1="-1443.71" y1="548.66" x2="-1443.71" y2="548.07"
            gradientTransform="translate(-519.48 -1421.78) rotate(-90)" xlink:href="#未命名的渐变_105" />
        <linearGradient id="未命名的渐变_105-9" x1="-1443.71" y1="547.04" x2="-1443.71" y2="546.45"
            gradientTransform="translate(-516.24 -1421.78) rotate(-90)" xlink:href="#未命名的渐变_105" />
        <linearGradient id="未命名的渐变_105-10" x1="-1443.71" y1="545.43" x2="-1443.71" y2="544.83"
            gradientTransform="translate(-513.01 -1421.78) rotate(-90)" xlink:href="#未命名的渐变_105" />
        <linearGradient id="未命名的渐变_105-11" x1="-1443.71" y1="543.81" x2="-1443.71" y2="543.22"
            gradientTransform="translate(-509.77 -1421.78) rotate(-90)" xlink:href="#未命名的渐变_105" />
        <linearGradient id="未命名的渐变_105-12" x1="-1443.71" y1="542.19" x2="-1443.71" y2="541.6"
            gradientTransform="translate(-506.54 -1421.78) rotate(-90)" xlink:href="#未命名的渐变_105" />
        <linearGradient id="未命名的渐变_105-13" x1="-1443.71" y1="540.57" x2="-1443.71" y2="539.98"
            gradientTransform="translate(-503.3 -1421.78) rotate(-90)" xlink:href="#未命名的渐变_105" />
        <linearGradient id="未命名的渐变_105-14" x1="-1443.71" y1="538.96" x2="-1443.71" y2="538.36"
            gradientTransform="translate(-500.07 -1421.78) rotate(-90)" xlink:href="#未命名的渐变_105" />
        <linearGradient id="未命名的渐变_105-15" x1="-1443.71" y1="537.34" x2="-1443.71" y2="536.75"
            gradientTransform="translate(-496.83 -1421.78) rotate(-90)" xlink:href="#未命名的渐变_105" />
        <linearGradient id="未命名的渐变_105-16" x1="-1443.71" y1="535.72" x2="-1443.71" y2="535.13"
            gradientTransform="translate(-493.6 -1421.78) rotate(-90)" xlink:href="#未命名的渐变_105" />
        <linearGradient id="未命名的渐变_105-17" x1="-1443.71" y1="534.1" x2="-1443.71" y2="533.51"
            gradientTransform="translate(-490.36 -1421.78) rotate(-90)" xlink:href="#未命名的渐变_105" />
        <linearGradient id="未命名的渐变_105-18" x1="-1443.71" y1="532.49" x2="-1443.71" y2="531.89"
            gradientTransform="translate(-487.13 -1421.78) rotate(-90)" xlink:href="#未命名的渐变_105" />
        <linearGradient id="未命名的渐变_143-5" x1="-461.29" y1="177.58" x2="-464.45" y2="177.58"
            gradientTransform="translate(488.77 -41.2)" xlink:href="#未命名的渐变_143" />
        <linearGradient id="未命名的渐变_143-6" x1="-768.03" y1="354.67" x2="-771.19" y2="354.67"
            gradientTransform="matrix(1, 0, 0, -1, 808.77, 491.05)" xlink:href="#未命名的渐变_143" />
        <linearGradient id="未命名的渐变_143-7" x1="40.46" y1="121.37" x2="25.52" y2="121.37" xlink:href="#未命名的渐变_143" />
        <linearGradient id="未命名的渐变_143-8" x1="39.94" y1="129.42" x2="25.9" y2="129.42" xlink:href="#未命名的渐变_143" />
        <linearGradient id="未命名的渐变_105-19" x1="0" y1="101.95" x2="5.47" y2="101.95" xlink:href="#未命名的渐变_105" />
        <linearGradient id="未命名的渐变_105-20" x1="13.99" y1="148.33" x2="13.99" y2="142.72" xlink:href="#未命名的渐变_105" />
        <linearGradient id="未命名的渐变_143-9" x1="45.61" y1="145.49" x2="20.19" y2="145.49" xlink:href="#未命名的渐变_143" />
        <linearGradient id="未命名的渐变_143-10" x1="34.94" y1="137.17" x2="31.78" y2="137.17" xlink:href="#未命名的渐变_143" />
        <linearGradient id="未命名的渐变_74-2" x1="49.64" y1="21.82" x2="57.02" y2="21.82" xlink:href="#未命名的渐变_74" />
    </defs>
    <title>IoT-pump（泵）</title>
    <g id="图层_28" data-name="图层 28">
        <rect class="cls-1" x="28.44" y="62.45" width="9.35" height="63.5" />
        <rect class="cls-2" x="45.61" y="18.11" width="4.02" height="15.1" />
        <rect class="cls-3" x="21.5" y="4.76" width="24.76" height="0.7" />
        <rect class="cls-4" x="23.74" y="35.08" width="18.85" height="20.3" />
        <rect class="cls-5" x="20.9" y="37.5" width="24.46" height="2.53" />
        <path class="cls-6"
            d="M7.5,142.76l0,5.57a8.18,8.18,0,0,1-5.56-2.23A9.43,9.43,0,0,1,0,141.17H5.38s-.17.36.55,1.11A1.92,1.92,0,0,0,7.5,142.76Z" />
        <rect class="cls-7" x="16.47" y="55.39" width="34.21" height="7.01" />
        <path class="cls-8" d="M46.26,35.08V4.84S45.69,0,33.44,0c-9,0-12,4.81-12,4.81V35.08Z" />
        <rect class="cls-9" x="22.12" y="10.87" width="0.59" height="22.12"
            transform="translate(44.83 43.86) rotate(180)" />
        <rect class="cls-10" x="23.74" y="10.87" width="0.59" height="22.12"
            transform="translate(48.07 43.86) rotate(180)" />
        <rect class="cls-11" x="25.36" y="10.87" width="0.59" height="22.12"
            transform="translate(51.3 43.86) rotate(180)" />
        <rect class="cls-12" x="26.97" y="10.87" width="0.59" height="22.12"
            transform="translate(54.54 43.86) rotate(180)" />
        <rect class="cls-13" x="28.59" y="10.87" width="0.59" height="22.12"
            transform="translate(57.77 43.86) rotate(180)" />
        <rect class="cls-14" x="30.21" y="10.87" width="0.59" height="22.12"
            transform="translate(61.01 43.86) rotate(180)" />
        <rect class="cls-15" x="31.83" y="10.87" width="0.59" height="22.12"
            transform="translate(64.25 43.86) rotate(180)" />
        <rect class="cls-16" x="33.44" y="10.87" width="0.59" height="22.12"
            transform="translate(67.48 43.86) rotate(180)" />
        <rect class="cls-17" x="35.06" y="10.87" width="0.59" height="22.12"
            transform="translate(70.72 43.86) rotate(180)" />
        <rect class="cls-18" x="36.68" y="10.87" width="0.59" height="22.12"
            transform="translate(73.95 43.86) rotate(180)" />
        <rect class="cls-19" x="38.3" y="10.87" width="0.59" height="22.12"
            transform="translate(77.19 43.86) rotate(180)" />
        <rect class="cls-20" x="39.91" y="10.87" width="0.59" height="22.12"
            transform="translate(80.42 43.86) rotate(180)" />
        <rect class="cls-21" x="41.53" y="10.87" width="0.59" height="22.12"
            transform="translate(83.66 43.86) rotate(180)" />
        <rect class="cls-22" x="43.15" y="10.87" width="0.59" height="22.12"
            transform="translate(86.89 43.86) rotate(180)" />
        <rect class="cls-23" x="44.77" y="10.87" width="0.59" height="22.12"
            transform="translate(90.13 43.86) rotate(180)" />
        <rect class="cls-24" x="24.32" y="129.26" width="3.16" height="14.25"
            transform="translate(71.66 5.32) rotate(30)" />
        <rect class="cls-25" x="37.59" y="129.26" width="3.16" height="14.25"
            transform="translate(141.27 234.9) rotate(150)" />
        <rect class="cls-26" x="25.52" y="119.53" width="14.94" height="3.68" />
        <rect class="cls-27" x="25.9" y="125.95" width="14.05" height="6.95" />
        <rect class="cls-28" y="62.45" width="5.47" height="79.01" />
        <rect class="cls-29" x="7.01" y="142.72" width="13.96" height="5.61" />
        <rect class="cls-30" x="20.19" y="141.01" width="25.42" height="8.96" />
        <rect class="cls-31" x="31.78" y="132.89" width="3.16" height="8.56" />
        <rect class="cls-32" x="49.64" y="10.65" width="7.39" height="22.34" />
    </g>
    
</svg>