<svg xmlns="http://www.w3.org/2000/svg" xmlns:xlink="http://www.w3.org/1999/xlink" viewBox="0 0 118.74 150"><defs><style>.cls-1{fill:url(#未命名的渐变_105);}.cls-2{fill:url(#未命名的渐变_74);}.cls-3{fill:url(#未命名的渐变_74-2);}.cls-4{fill:url(#未命名的渐变_105-2);}.cls-5{fill:url(#未命名的渐变_105-3);}.cls-6{fill:url(#未命名的渐变_105-4);}.cls-7{fill:url(#未命名的渐变_105-5);}.cls-8{fill:url(#未命名的渐变_74-3);}.cls-9{fill:url(#未命名的渐变_105-6);}.cls-10{fill:url(#未命名的渐变_67);}.cls-11{fill:url(#未命名的渐变_105-7);}.cls-12{fill:url(#未命名的渐变_105-8);}.cls-13{fill:url(#未命名的渐变_105-9);}.cls-14{fill:url(#未命名的渐变_67-2);}.cls-15{fill:url(#未命名的渐变_74-4);}.cls-16{fill:url(#未命名的渐变_105-10);}.cls-17{fill:url(#未命名的渐变_105-11);}.cls-18{fill:url(#未命名的渐变_105-12);}.cls-19{fill:#565656;stroke:#b9b8bc;stroke-miterlimit:10;stroke-width:4px;}.cls-20{fill:url(#未命名的渐变_74-5);}.cls-21{fill:url(#未命名的渐变_105-13);}.cls-22{fill:url(#未命名的渐变_105-14);}.cls-23{fill:url(#未命名的渐变_105-15);}.cls-24{fill:url(#未命名的渐变_74-6);}.cls-25{fill:url(#未命名的渐变_105-16);}.cls-26{fill:url(#未命名的渐变_67-3);}.cls-27{fill:url(#未命名的渐变_67-4);}.cls-28{fill:url(#未命名的渐变_67-5);}.cls-29{fill:url(#未命名的渐变_67-6);}.cls-30{fill:url(#未命名的渐变_67-7);}.cls-31{fill:url(#未命名的渐变_67-8);}.cls-32{fill:url(#未命名的渐变_67-9);}.cls-33{fill:url(#未命名的渐变_67-10);}.cls-34{fill:url(#未命名的渐变_67-11);}.cls-35{fill:url(#未命名的渐变_67-12);}.cls-36{fill:url(#未命名的渐变_67-13);}.cls-37{fill:url(#未命名的渐变_67-14);}.cls-38{fill:url(#未命名的渐变_67-15);}.cls-39{fill:url(#未命名的渐变_67-16);}.cls-40{fill:url(#未命名的渐变_105-17);}.cls-41{fill:url(#未命名的渐变_67-17);}.cls-42{fill:url(#未命名的渐变_67-18);}.cls-43{fill:url(#未命名的渐变_74-7);}.cls-44{fill:url(#未命名的渐变_67-19);}.cls-45{fill:url(#未命名的渐变_67-20);}.cls-46{fill:url(#未命名的渐变_67-21);}.cls-47{fill:url(#未命名的渐变_67-22);}.cls-48{fill:#7f8895;}.cls-49{fill:url(#未命名的渐变_74-8);}.cls-50{fill:url(#未命名的渐变_67-23);}.cls-51{fill:url(#未命名的渐变_74-9);}.cls-52{fill:url(#未命名的渐变_74-10);}.cls-53{fill:url(#未命名的渐变_74-11);}.cls-54{fill:#525658;}.cls-55{fill:url(#未命名的渐变_105-18);}.cls-56{fill:url(#未命名的渐变_74-12);}.cls-57{fill:url(#未命名的渐变_74-13);}.cls-58{fill:url(#未命名的渐变_74-14);}.cls-59{fill:url(#未命名的渐变_105-19);}.cls-60{opacity:0.2;}</style><linearGradient id="未命名的渐变_105" x1="98.71" y1="133.06" x2="104.38" y2="133.06" gradientUnits="userSpaceOnUse"><stop offset="0" stop-color="#e2e2e2"/><stop offset="0.03" stop-color="#d0d0d0"/><stop offset="0.06" stop-color="#bcbcbc"/><stop offset="0.09" stop-color="#b5b5b5"/><stop offset="0.49" stop-color="#f6f6f6"/><stop offset="0.63" stop-color="#f3f3f3"/><stop offset="0.73" stop-color="#eaeaea"/><stop offset="0.82" stop-color="#dbdbdb"/><stop offset="0.9" stop-color="#c6c6c6"/><stop offset="0.97" stop-color="#aaa"/><stop offset="1" stop-color="#9b9b9b"/></linearGradient><linearGradient id="未命名的渐变_74" x1="99.15" y1="61.93" x2="104.04" y2="61.93" gradientUnits="userSpaceOnUse"><stop offset="0" stop-color="#6b6b6b"/><stop offset="0.01" stop-color="#767676"/><stop offset="0.03" stop-color="#959595"/><stop offset="0.04" stop-color="#aaa"/><stop offset="0.37" stop-color="#ccc"/><stop offset="0.74" stop-color="#eaeaea"/><stop offset="0.94" stop-color="#f6f6f6"/><stop offset="0.95" stop-color="#ededed"/><stop offset="0.96" stop-color="#d4d4d4"/><stop offset="0.97" stop-color="#ababab"/><stop offset="0.99" stop-color="#737373"/><stop offset="0.99" stop-color="#666"/></linearGradient><linearGradient id="未命名的渐变_74-2" x1="55.91" y1="61.93" x2="60.81" y2="61.93" xlink:href="#未命名的渐变_74"/><linearGradient id="未命名的渐变_105-2" x1="47.78" y1="47.51" x2="47.78" y2="29.03" xlink:href="#未命名的渐变_105"/><linearGradient id="未命名的渐变_105-3" x1="107.07" y1="103.96" x2="52.97" y2="103.96" xlink:href="#未命名的渐变_105"/><linearGradient id="未命名的渐变_105-4" x1="92.17" y1="48.95" x2="70.02" y2="48.95" xlink:href="#未命名的渐变_105"/><linearGradient id="未命名的渐变_105-5" x1="90.32" y1="21.6" x2="72.06" y2="21.6" gradientTransform="translate(0.22 0)" xlink:href="#未命名的渐变_105"/><linearGradient id="未命名的渐变_74-3" x1="59.37" y1="50.14" x2="59.37" y2="52.55" gradientTransform="matrix(1, 0, 0, -3.35, 0, 225.95)" xlink:href="#未命名的渐变_74"/><linearGradient id="未命名的渐变_105-6" x1="90.23" y1="32.42" x2="71.97" y2="32.42" xlink:href="#未命名的渐变_105"/><linearGradient id="未命名的渐变_67" x1="92.17" y1="34.58" x2="70.02" y2="34.58" gradientUnits="userSpaceOnUse"><stop offset="0" stop-color="#6b6b6b"/><stop offset="0.11" stop-color="#767676"/><stop offset="0.3" stop-color="#959595"/><stop offset="0.41" stop-color="#aaa"/><stop offset="0.56" stop-color="#ccc"/><stop offset="0.71" stop-color="#eaeaea"/><stop offset="0.8" stop-color="#f6f6f6"/><stop offset="0.83" stop-color="#ededed"/><stop offset="0.87" stop-color="#d4d4d4"/><stop offset="0.92" stop-color="#ababab"/><stop offset="0.98" stop-color="#737373"/><stop offset="0.99" stop-color="#666"/></linearGradient><linearGradient id="未命名的渐变_105-7" x1="80.5" y1="27.01" x2="82.81" y2="27.01" xlink:href="#未命名的渐变_105"/><linearGradient id="未命名的渐变_105-8" x1="87.37" y1="27.01" x2="89.69" y2="27.01" xlink:href="#未命名的渐变_105"/><linearGradient id="未命名的渐变_105-9" x1="73.59" y1="27.01" x2="75.91" y2="27.01" xlink:href="#未命名的渐变_105"/><linearGradient id="未命名的渐变_67-2" x1="74.38" y1="43.98" x2="88.44" y2="43.98" xlink:href="#未命名的渐变_67"/><linearGradient id="未命名的渐变_74-4" x1="48.89" y1="39.94" x2="62.94" y2="39.94" xlink:href="#未命名的渐变_74"/><linearGradient id="未命名的渐变_105-10" x1="107.07" y1="63.21" x2="53.2" y2="63.21" xlink:href="#未命名的渐变_105"/><linearGradient id="未命名的渐变_105-11" x1="107.07" y1="69.33" x2="53.2" y2="69.33" xlink:href="#未命名的渐变_105"/><linearGradient id="未命名的渐变_105-12" x1="102.89" y1="74.81" x2="55.91" y2="74.81" xlink:href="#未命名的渐变_105"/><linearGradient id="未命名的渐变_74-5" x1="33.8" y1="48.66" x2="45.21" y2="48.66" xlink:href="#未命名的渐变_74"/><linearGradient id="未命名的渐变_105-13" x1="39.57" y1="45.99" x2="39.57" y2="30.45" xlink:href="#未命名的渐变_105"/><linearGradient id="未命名的渐变_105-14" x1="32.66" y1="45.99" x2="32.66" y2="28.45" xlink:href="#未命名的渐变_105"/><linearGradient id="未命名的渐变_105-15" x1="31.61" y1="47.04" x2="31.61" y2="29.49" xlink:href="#未命名的渐变_105"/><linearGradient id="未命名的渐变_74-6" x1="30.13" y1="46.36" x2="48.89" y2="46.36" xlink:href="#未命名的渐变_74"/><linearGradient id="未命名的渐变_105-16" x1="33.19" y1="30.45" x2="33.19" y2="19.28" xlink:href="#未命名的渐变_105"/><linearGradient id="未命名的渐变_67-3" x1="44.41" y1="44.07" x2="44.41" y2="42.73" xlink:href="#未命名的渐变_67"/><linearGradient id="未命名的渐变_67-4" x1="44.41" y1="32.42" x2="44.41" y2="31.08" xlink:href="#未命名的渐变_67"/><linearGradient id="未命名的渐变_67-5" x1="34.94" y1="30.45" x2="34.94" y2="19.28" xlink:href="#未命名的渐变_67"/><linearGradient id="未命名的渐变_67-6" x1="30.7" y1="30.45" x2="30.7" y2="19.28" xlink:href="#未命名的渐变_67"/><linearGradient id="未命名的渐变_67-7" x1="44.8" y1="30.45" x2="44.8" y2="19.28" xlink:href="#未命名的渐变_67"/><linearGradient id="未命名的渐变_67-8" x1="39.87" y1="19.98" x2="39.87" y2="19.28" xlink:href="#未命名的渐变_67"/><linearGradient id="未命名的渐变_67-9" x1="39.87" y1="21.26" x2="39.87" y2="20.55" xlink:href="#未命名的渐变_67"/><linearGradient id="未命名的渐变_67-10" x1="39.87" y1="22.53" x2="39.87" y2="21.83" xlink:href="#未命名的渐变_67"/><linearGradient id="未命名的渐变_67-11" x1="39.87" y1="23.81" x2="39.87" y2="23.11" xlink:href="#未命名的渐变_67"/><linearGradient id="未命名的渐变_67-12" x1="39.87" y1="25.09" x2="39.87" y2="24.38" xlink:href="#未命名的渐变_67"/><linearGradient id="未命名的渐变_67-13" x1="39.87" y1="26.36" x2="39.87" y2="25.66" xlink:href="#未命名的渐变_67"/><linearGradient id="未命名的渐变_67-14" x1="39.87" y1="27.64" x2="39.87" y2="26.94" xlink:href="#未命名的渐变_67"/><linearGradient id="未命名的渐变_67-15" x1="39.87" y1="28.91" x2="39.87" y2="28.21" xlink:href="#未命名的渐变_67"/><linearGradient id="未命名的渐变_67-16" x1="39.87" y1="30.19" x2="39.87" y2="29.49" xlink:href="#未命名的渐变_67"/><linearGradient id="未命名的渐变_105-17" x1="24.61" y1="44.68" x2="24.61" y2="33.5" xlink:href="#未命名的渐变_105"/><linearGradient id="未命名的渐变_67-17" x1="19.7" y1="44.68" x2="19.7" y2="33.5" xlink:href="#未命名的渐变_67"/><linearGradient id="未命名的渐变_67-18" x1="30.6" y1="44.68" x2="30.6" y2="33.5" xlink:href="#未命名的渐变_67"/><linearGradient id="未命名的渐变_74-7" x1="20.17" y1="32.11" x2="30.13" y2="32.11" xlink:href="#未命名的渐变_74"/><linearGradient id="未命名的渐变_67-19" x1="21.32" y1="24.6" x2="21.32" y2="23.66" xlink:href="#未命名的渐变_67"/><linearGradient id="未命名的渐变_67-20" x1="29.18" y1="24.6" x2="29.18" y2="23.66" xlink:href="#未命名的渐变_67"/><linearGradient id="未命名的渐变_67-21" x1="21.22" y1="40.6" x2="21.22" y2="39.66" xlink:href="#未命名的渐变_67"/><linearGradient id="未命名的渐变_67-22" x1="29.08" y1="40.6" x2="29.08" y2="39.66" xlink:href="#未命名的渐变_67"/><linearGradient id="未命名的渐变_74-8" x1="20.85" y1="70.66" x2="47.78" y2="70.66" xlink:href="#未命名的渐变_74"/><linearGradient id="未命名的渐变_67-23" x1="107.07" y1="66.84" x2="53.2" y2="66.84" xlink:href="#未命名的渐变_67"/><linearGradient id="未命名的渐变_74-9" x1="48.26" y1="91.73" x2="20.17" y2="91.73" xlink:href="#未命名的渐变_74"/><linearGradient id="未命名的渐变_74-10" x1="49.79" y1="100.89" x2="14.81" y2="100.89" xlink:href="#未命名的渐变_74"/><linearGradient id="未命名的渐变_74-11" x1="46.09" y1="101.15" x2="18.13" y2="101.15" xlink:href="#未命名的渐变_74"/><linearGradient id="未命名的渐变_105-18" x1="39" y1="78.12" x2="46.29" y2="78.12" xlink:href="#未命名的渐变_105"/><linearGradient id="未命名的渐变_74-12" x1="39" y1="65.9" x2="31.06" y2="65.9" xlink:href="#未命名的渐变_74"/><linearGradient id="未命名的渐变_74-13" x1="45.57" y1="123" x2="45.57" y2="116.62" xlink:href="#未命名的渐变_74"/><linearGradient id="未命名的渐变_74-14" x1="66.58" y1="138.59" x2="66.58" y2="134.41" xlink:href="#未命名的渐变_74"/><linearGradient id="未命名的渐变_105-19" x1="29.65" y1="136.5" x2="35.32" y2="136.5" xlink:href="#未命名的渐变_105"/></defs><title>IoT-Material Handling（物料运输）</title><g id="AGI_mixer_agi混合器_" data-name="AGI mixer（agi混合器）"><rect class="cls-1" x="98.71" y="116.11" width="5.67" height="33.89"/><rect class="cls-2" x="99.15" y="57.89" width="4.89" height="8.07"/><rect class="cls-3" x="55.91" y="57.89" width="4.89" height="8.07"/><path class="cls-4" d="M47,47.51l-1-3V29h1.66l1.51,5.91a15.09,15.09,0,0,1-1.06,10.42Z"/><path class="cls-5" d="M53,76.91h54.1a0,0,0,0,1,0,0V104a27,27,0,0,1-27,27h0a27,27,0,0,1-27-27V76.91a0,0,0,0,1,0,0Z"/><rect class="cls-6" x="70.02" y="35.67" width="22.15" height="26.57"/><rect class="cls-7" x="72.28" y="20.52" width="18.26" height="2.16" transform="translate(-0.44 1.74) rotate(-1.22)"/><rect class="cls-8" y="49.81" width="118.74" height="8.09"/><rect class="cls-9" x="71.97" y="31.34" width="18.26" height="2.16"/><rect class="cls-10" x="70.02" y="33.5" width="22.15" height="2.16"/><rect class="cls-11" x="80.5" y="22.69" width="2.32" height="8.65"/><rect class="cls-12" x="87.37" y="22.69" width="2.32" height="8.65"/><rect class="cls-13" x="73.59" y="22.69" width="2.32" height="8.65"/><rect class="cls-14" x="74.38" y="38.15" width="14.06" height="11.66"/><path class="cls-15" d="M55,30.08h1.85a6.1,6.1,0,0,1,6.1,6.1V49.81a0,0,0,0,1,0,0H48.89a0,0,0,0,1,0,0V36.18a6.1,6.1,0,0,1,6.1-6.1Z"/><path class="cls-16" d="M107.07,66H53.2L61,63.48a63.71,63.71,0,0,1,40.16.43Z"/><rect class="cls-17" x="53.2" y="65.96" width="53.87" height="6.74"/><rect class="cls-18" x="55.91" y="72.7" width="46.98" height="4.21"/><rect class="cls-19" x="72.2" y="97.93" width="15.64" height="12.06"/><rect class="cls-20" x="33.8" y="47.51" width="11.4" height="2.3"/><rect class="cls-21" x="33.19" y="30.45" width="12.77" height="15.54"/><rect class="cls-22" x="32.14" y="28.45" width="1.05" height="17.55"/><rect class="cls-23" x="31.09" y="29.49" width="1.05" height="17.55"/><rect class="cls-24" x="30.13" y="45.21" width="18.76" height="2.3"/><rect class="cls-25" x="18.13" y="19.28" width="30.13" height="11.18"/><circle class="cls-26" cx="44.41" cy="43.4" r="0.67"/><circle class="cls-27" cx="44.41" cy="31.75" r="0.67"/><rect class="cls-28" x="34.55" y="19.28" width="0.77" height="11.18"/><rect class="cls-29" x="30.32" y="19.28" width="0.77" height="11.18"/><rect class="cls-30" x="44.41" y="19.28" width="0.77" height="11.18"/><rect class="cls-31" x="35.32" y="19.28" width="9.1" height="0.7"/><rect class="cls-32" x="35.32" y="20.55" width="9.1" height="0.7"/><rect class="cls-33" x="35.32" y="21.83" width="9.1" height="0.7"/><rect class="cls-34" x="35.32" y="23.11" width="9.1" height="0.7"/><rect class="cls-35" x="35.32" y="24.38" width="9.1" height="0.7"/><rect class="cls-36" x="35.32" y="25.66" width="9.1" height="0.7"/><rect class="cls-37" x="35.32" y="26.94" width="9.1" height="0.7"/><rect class="cls-38" x="35.32" y="28.21" width="9.1" height="0.7"/><rect class="cls-39" x="35.32" y="29.49" width="9.1" height="0.7"/><rect class="cls-40" x="18.13" y="33.5" width="12.96" height="11.18"/><rect class="cls-41" x="19.23" y="33.5" width="0.94" height="11.18"/><rect class="cls-42" x="30.13" y="33.5" width="0.94" height="11.18"/><rect class="cls-43" x="20.17" y="23.11" width="9.96" height="18" rx="1.34"/><circle class="cls-44" cx="21.32" cy="24.13" r="0.47"/><circle class="cls-45" cx="29.18" cy="24.13" r="0.47"/><circle class="cls-46" cx="21.22" cy="40.13" r="0.47"/><circle class="cls-47" cx="29.08" cy="40.13" r="0.47"/><rect class="cls-48" x="21.58" y="24.73" width="7.13" height="14.9" rx="1.34"/><polygon class="cls-49" points="35.32 83.43 20.85 57.89 47.78 57.89 35.32 83.43"/><rect class="cls-50" x="53.2" y="65.96" width="53.87" height="1.76"/><path class="cls-51" d="M48.26,110.52H20.17V80.83l19.71-7.44c3.93-1.49,8.38.92,8.38,4.53Z"/><rect class="cls-52" x="14.81" y="85.15" width="34.98" height="31.46" rx="5.74"/><rect class="cls-53" x="18.13" y="88.37" width="27.96" height="25.58" rx="5.74"/><circle class="cls-54" cx="42.64" cy="78.12" r="4.22"/><circle class="cls-55" cx="42.64" cy="78.12" r="3.65"/><rect class="cls-56" x="31.06" y="61.93" width="7.93" height="7.93"/><circle class="cls-54" cx="42.64" cy="78.12" r="3.12"/><rect class="cls-57" x="26.81" y="116.62" width="37.53" height="6.38"/><rect class="cls-58" x="34.44" y="134.41" width="64.28" height="4.18"/><circle class="cls-54" cx="22.19" cy="87.06" r="0.91"/><circle class="cls-54" cx="31.85" cy="87.06" r="0.91"/><circle class="cls-54" cx="41.73" cy="87.06" r="0.91"/><circle class="cls-54" cx="22.08" cy="115.28" r="0.91"/><circle class="cls-54" cx="31.73" cy="115.28" r="0.91"/><circle class="cls-54" cx="41.62" cy="115.28" r="0.91"/><circle class="cls-54" cx="48.4" cy="93.19" r="0.91"/><circle class="cls-54" cx="48.4" cy="100.24" r="0.91"/><circle class="cls-54" cx="48.4" cy="108.47" r="0.91"/><circle class="cls-54" cx="16.51" cy="93.25" r="0.91"/><circle class="cls-54" cx="16.51" cy="100.29" r="0.91"/><circle class="cls-54" cx="16.51" cy="108.53" r="0.91"/><rect class="cls-59" x="29.65" y="123" width="5.67" height="27"/></g>

</svg>