<svg xmlns="http://www.w3.org/2000/svg" xmlns:xlink="http://www.w3.org/1999/xlink" viewBox="0 0 150 66.75"><defs><style>.cls-1{fill:url(#未命名的渐变_105);}.cls-2{fill:url(#未命名的渐变_74);}.cls-3{fill:url(#未命名的渐变_67);}.cls-4{fill:url(#未命名的渐变_105-2);}.cls-5{fill:url(#未命名的渐变_105-3);}.cls-6{fill:url(#未命名的渐变_67-2);}.cls-7{fill:url(#未命名的渐变_67-3);}.cls-8{fill:url(#未命名的渐变_67-4);}.cls-9{fill:url(#未命名的渐变_67-5);}.cls-10{fill:url(#未命名的渐变_67-6);}.cls-11{fill:url(#未命名的渐变_67-7);}.cls-12{fill:url(#未命名的渐变_67-8);}.cls-13{fill:url(#未命名的渐变_67-9);}.cls-14{fill:url(#未命名的渐变_67-10);}.cls-15{fill:url(#未命名的渐变_67-11);}.cls-16{fill:url(#未命名的渐变_67-12);}.cls-17{fill:url(#未命名的渐变_67-13);}.cls-18{fill:url(#未命名的渐变_67-14);}.cls-19{fill:url(#未命名的渐变_67-15);}.cls-20{fill:url(#未命名的渐变_67-16);}.cls-21{fill:url(#未命名的渐变_67-17);}.cls-22{fill:url(#未命名的渐变_67-18);}.cls-23{fill:url(#未命名的渐变_67-19);}.cls-24{fill:url(#未命名的渐变_67-20);}.cls-25{fill:url(#未命名的渐变_67-21);}.cls-26{fill:url(#未命名的渐变_67-22);}.cls-27{fill:url(#未命名的渐变_67-23);}.cls-28{fill:url(#未命名的渐变_67-24);}.cls-29{fill:url(#未命名的渐变_67-25);}.cls-30{fill:url(#未命名的渐变_74-2);}.cls-31{fill:url(#未命名的渐变_105-4);}.cls-32{fill:url(#未命名的渐变_105-5);}.cls-33{fill:url(#未命名的渐变_67-26);}.cls-34{fill:url(#未命名的渐变_105-6);}.cls-35{fill:url(#未命名的渐变_105-7);}.cls-36{fill:url(#未命名的渐变_105-8);}.cls-37{fill:url(#未命名的渐变_67-27);}.cls-38{fill:url(#未命名的渐变_67-28);}.cls-39{fill:url(#未命名的渐变_67-29);}.cls-40{fill:url(#未命名的渐变_67-30);}.cls-41{fill:url(#未命名的渐变_67-31);}.cls-42{fill:url(#未命名的渐变_67-32);}.cls-43{fill:url(#未命名的渐变_67-33);}.cls-44{fill:url(#未命名的渐变_67-34);}.cls-45{fill:url(#未命名的渐变_67-35);}.cls-46{fill:url(#未命名的渐变_67-36);}.cls-47{fill:url(#未命名的渐变_67-37);}.cls-48{fill:url(#未命名的渐变_67-38);}.cls-49{fill:url(#未命名的渐变_105-9);}.cls-50{fill:url(#未命名的渐变_74-3);}.cls-51{fill:url(#未命名的渐变_74-4);}.cls-52{opacity:0.2;}</style><linearGradient id="未命名的渐变_105" x1="65.8" y1="52.45" x2="65.8" y2="6.29" gradientUnits="userSpaceOnUse"><stop offset="0" stop-color="#e2e2e2"/><stop offset="0.03" stop-color="#d0d0d0"/><stop offset="0.06" stop-color="#bcbcbc"/><stop offset="0.09" stop-color="#b5b5b5"/><stop offset="0.49" stop-color="#f6f6f6"/><stop offset="0.63" stop-color="#f3f3f3"/><stop offset="0.73" stop-color="#eaeaea"/><stop offset="0.82" stop-color="#dbdbdb"/><stop offset="0.9" stop-color="#c6c6c6"/><stop offset="0.97" stop-color="#aaa"/><stop offset="1" stop-color="#9b9b9b"/></linearGradient><linearGradient id="未命名的渐变_74" x1="117.85" y1="35.38" x2="124.72" y2="35.38" gradientUnits="userSpaceOnUse"><stop offset="0" stop-color="#6b6b6b"/><stop offset="0.01" stop-color="#767676"/><stop offset="0.03" stop-color="#959595"/><stop offset="0.04" stop-color="#aaa"/><stop offset="0.37" stop-color="#ccc"/><stop offset="0.74" stop-color="#eaeaea"/><stop offset="0.94" stop-color="#f6f6f6"/><stop offset="0.95" stop-color="#ededed"/><stop offset="0.96" stop-color="#d4d4d4"/><stop offset="0.97" stop-color="#ababab"/><stop offset="0.99" stop-color="#737373"/><stop offset="0.99" stop-color="#666"/></linearGradient><linearGradient id="未命名的渐变_67" x1="129.96" y1="57.8" x2="129.96" y2="14.52" gradientUnits="userSpaceOnUse"><stop offset="0" stop-color="#6b6b6b"/><stop offset="0.11" stop-color="#767676"/><stop offset="0.3" stop-color="#959595"/><stop offset="0.41" stop-color="#aaa"/><stop offset="0.56" stop-color="#ccc"/><stop offset="0.71" stop-color="#eaeaea"/><stop offset="0.8" stop-color="#f6f6f6"/><stop offset="0.83" stop-color="#ededed"/><stop offset="0.87" stop-color="#d4d4d4"/><stop offset="0.92" stop-color="#ababab"/><stop offset="0.98" stop-color="#737373"/><stop offset="0.99" stop-color="#666"/></linearGradient><linearGradient id="未命名的渐变_105-2" x1="142.62" y1="56.25" x2="142.62" y2="14.52" xlink:href="#未命名的渐变_105"/><linearGradient id="未命名的渐变_105-3" x1="71.05" y1="66.15" x2="71.05" y2="59.33" xlink:href="#未命名的渐变_105"/><linearGradient id="未命名的渐变_67-2" x1="62.36" y1="7.43" x2="62.36" y2="6.29" xlink:href="#未命名的渐变_67"/><linearGradient id="未命名的渐变_67-3" x1="62.36" y1="9.35" x2="62.36" y2="8.21" xlink:href="#未命名的渐变_67"/><linearGradient id="未命名的渐变_67-4" x1="62.36" y1="11.27" x2="62.36" y2="10.13" xlink:href="#未命名的渐变_67"/><linearGradient id="未命名的渐变_67-5" x1="62.36" y1="13.19" x2="62.36" y2="12.05" xlink:href="#未命名的渐变_67"/><linearGradient id="未命名的渐变_67-6" x1="62.36" y1="15.12" x2="62.36" y2="13.98" xlink:href="#未命名的渐变_67"/><linearGradient id="未命名的渐变_67-7" x1="62.36" y1="17.04" x2="62.36" y2="15.9" xlink:href="#未命名的渐变_67"/><linearGradient id="未命名的渐变_67-8" x1="62.36" y1="18.96" x2="62.36" y2="17.82" xlink:href="#未命名的渐变_67"/><linearGradient id="未命名的渐变_67-9" x1="62.36" y1="20.88" x2="62.36" y2="19.74" xlink:href="#未命名的渐变_67"/><linearGradient id="未命名的渐变_67-10" x1="62.36" y1="22.8" x2="62.36" y2="21.66" xlink:href="#未命名的渐变_67"/><linearGradient id="未命名的渐变_67-11" x1="62.36" y1="24.73" x2="62.36" y2="23.59" xlink:href="#未命名的渐变_67"/><linearGradient id="未命名的渐变_67-12" x1="62.36" y1="26.65" x2="62.36" y2="25.51" xlink:href="#未命名的渐变_67"/><linearGradient id="未命名的渐变_67-13" x1="62.36" y1="28.57" x2="62.36" y2="27.43" xlink:href="#未命名的渐变_67"/><linearGradient id="未命名的渐变_67-14" x1="62.36" y1="30.49" x2="62.36" y2="29.35" xlink:href="#未命名的渐变_67"/><linearGradient id="未命名的渐变_67-15" x1="62.36" y1="32.41" x2="62.36" y2="31.27" xlink:href="#未命名的渐变_67"/><linearGradient id="未命名的渐变_67-16" x1="62.36" y1="34.33" x2="62.36" y2="33.2" xlink:href="#未命名的渐变_67"/><linearGradient id="未命名的渐变_67-17" x1="62.36" y1="36.26" x2="62.36" y2="35.12" xlink:href="#未命名的渐变_67"/><linearGradient id="未命名的渐变_67-18" x1="62.36" y1="38.18" x2="62.36" y2="37.04" xlink:href="#未命名的渐变_67"/><linearGradient id="未命名的渐变_67-19" x1="62.36" y1="40.1" x2="62.36" y2="38.96" xlink:href="#未命名的渐变_67"/><linearGradient id="未命名的渐变_67-20" x1="62.36" y1="42.02" x2="62.36" y2="40.88" xlink:href="#未命名的渐变_67"/><linearGradient id="未命名的渐变_67-21" x1="62.36" y1="43.94" x2="62.36" y2="42.81" xlink:href="#未命名的渐变_67"/><linearGradient id="未命名的渐变_67-22" x1="62.36" y1="45.87" x2="62.36" y2="44.73" xlink:href="#未命名的渐变_67"/><linearGradient id="未命名的渐变_67-23" x1="62.36" y1="47.79" x2="62.36" y2="46.65" xlink:href="#未命名的渐变_67"/><linearGradient id="未命名的渐变_67-24" x1="62.36" y1="49.71" x2="62.36" y2="48.57" xlink:href="#未命名的渐变_67"/><linearGradient id="未命名的渐变_67-25" x1="62.36" y1="51.63" x2="62.36" y2="50.49" xlink:href="#未命名的渐变_67"/><linearGradient id="未命名的渐变_74-2" x1="0" y1="36.52" x2="6.87" y2="36.52" xlink:href="#未命名的渐变_74"/><linearGradient id="未命名的渐变_105-4" x1="6.57" y1="4.71" x2="21.16" y2="4.71" xlink:href="#未命名的渐变_105"/><linearGradient id="未命名的渐变_105-5" x1="4.16" y1="1.57" x2="23.56" y2="1.57" xlink:href="#未命名的渐变_105"/><linearGradient id="未命名的渐变_67-26" x1="71.05" y1="59.26" x2="71.05" y2="46.65" xlink:href="#未命名的渐变_67"/><linearGradient id="未命名的渐变_105-6" x1="103.21" y1="4.71" x2="117.8" y2="4.71" xlink:href="#未命名的渐变_105"/><linearGradient id="未命名的渐变_105-7" x1="100.8" y1="1.57" x2="120.2" y2="1.57" xlink:href="#未命名的渐变_105"/><linearGradient id="未命名的渐变_105-8" x1="914.66" y1="-1168.65" x2="914.66" y2="-1184.47" gradientTransform="matrix(1, 0, 0, -1, -796.97, -1132.09)" xlink:href="#未命名的渐变_105"/><linearGradient id="未命名的渐变_67-27" x1="154.28" y1="122.53" x2="138.47" y2="122.53" gradientTransform="translate(-40.03 -78.06)" xlink:href="#未命名的渐变_67"/><linearGradient id="未命名的渐变_67-28" x1="154.28" y1="130.25" x2="138.47" y2="130.25" gradientTransform="translate(-32.32 -85.77)" xlink:href="#未命名的渐变_67"/><linearGradient id="未命名的渐变_67-29" x1="139.82" y1="138.77" x2="139.02" y2="138.77" gradientTransform="translate(-16.83 -87.34)" xlink:href="#未命名的渐变_67"/><linearGradient id="未命名的渐变_67-30" x1="141.28" y1="138.77" x2="140.47" y2="138.77" gradientTransform="translate(-18.29 -88.8)" xlink:href="#未命名的渐变_67"/><linearGradient id="未命名的渐变_67-31" x1="142.74" y1="138.77" x2="141.93" y2="138.77" gradientTransform="translate(-19.75 -90.26)" xlink:href="#未命名的渐变_67"/><linearGradient id="未命名的渐变_67-32" x1="144.2" y1="138.77" x2="143.39" y2="138.77" gradientTransform="translate(-21.21 -91.72)" xlink:href="#未命名的渐变_67"/><linearGradient id="未命名的渐变_67-33" x1="145.66" y1="138.77" x2="144.85" y2="138.77" gradientTransform="translate(-22.67 -93.18)" xlink:href="#未命名的渐变_67"/><linearGradient id="未命名的渐变_67-34" x1="147.12" y1="138.77" x2="146.31" y2="138.77" gradientTransform="translate(-24.13 -94.64)" xlink:href="#未命名的渐变_67"/><linearGradient id="未命名的渐变_67-35" x1="148.58" y1="138.77" x2="147.77" y2="138.77" gradientTransform="translate(-25.59 -96.1)" xlink:href="#未命名的渐变_67"/><linearGradient id="未命名的渐变_67-36" x1="150.04" y1="138.77" x2="149.23" y2="138.77" gradientTransform="translate(-27.05 -97.56)" xlink:href="#未命名的渐变_67"/><linearGradient id="未命名的渐变_67-37" x1="151.5" y1="138.77" x2="150.69" y2="138.77" gradientTransform="translate(-28.51 -99.02)" xlink:href="#未命名的渐变_67"/><linearGradient id="未命名的渐变_67-38" x1="152.96" y1="138.77" x2="152.15" y2="138.77" gradientTransform="translate(-29.97 -100.48)" xlink:href="#未命名的渐变_67"/><linearGradient id="未命名的渐变_105-9" x1="133.75" y1="50.37" x2="133.75" y2="38.29" xlink:href="#未命名的渐变_105"/><linearGradient id="未命名的渐变_74-3" x1="120.84" y1="66.15" x2="120.84" y2="52.45" xlink:href="#未命名的渐变_74"/><linearGradient id="未命名的渐变_74-4" x1="120.84" y1="63.41" x2="120.84" y2="55.36" xlink:href="#未命名的渐变_74"/></defs><title>IoT-Material Handling（物料运输）</title><g id="Airswept_tubular_dryer_气流管式干燥机_" data-name="Airswept tubular dryer（气流管式干燥机）"><rect class="cls-1" x="6.87" y="6.29" width="117.85" height="46.16"/><rect class="cls-2" x="117.85" y="6.29" width="6.87" height="58.18"/><polygon class="cls-3" points="135.19 57.8 124.72 57.8 124.72 14.52 129.01 14.52 135.19 21.92 135.19 57.8"/><rect class="cls-4" x="135.24" y="14.52" width="14.76" height="41.73"/><rect class="cls-5" x="6.87" y="59.33" width="128.36" height="6.82"/><rect class="cls-6" x="6.87" y="6.29" width="110.97" height="1.14"/><rect class="cls-7" x="6.87" y="8.21" width="110.97" height="1.14"/><rect class="cls-8" x="6.87" y="10.13" width="110.97" height="1.14"/><rect class="cls-9" x="6.87" y="12.05" width="110.97" height="1.14"/><rect class="cls-10" x="6.87" y="13.98" width="110.97" height="1.14"/><rect class="cls-11" x="6.87" y="15.9" width="110.97" height="1.14"/><rect class="cls-12" x="6.87" y="17.82" width="110.97" height="1.14"/><rect class="cls-13" x="6.87" y="19.74" width="110.97" height="1.14"/><rect class="cls-14" x="6.87" y="21.66" width="110.97" height="1.14"/><rect class="cls-15" x="6.87" y="23.59" width="110.97" height="1.14"/><rect class="cls-16" x="6.87" y="25.51" width="110.97" height="1.14"/><rect class="cls-17" x="6.87" y="27.43" width="110.97" height="1.14"/><rect class="cls-18" x="6.87" y="29.35" width="110.97" height="1.14"/><rect class="cls-19" x="6.87" y="31.27" width="110.97" height="1.14"/><rect class="cls-20" x="6.87" y="33.2" width="110.97" height="1.14"/><rect class="cls-21" x="6.87" y="35.12" width="110.97" height="1.14"/><rect class="cls-22" x="6.87" y="37.04" width="110.97" height="1.14"/><rect class="cls-23" x="6.87" y="38.96" width="110.97" height="1.14"/><rect class="cls-24" x="6.87" y="40.88" width="110.97" height="1.14"/><rect class="cls-25" x="6.87" y="42.81" width="110.97" height="1.14"/><rect class="cls-26" x="6.87" y="44.73" width="110.97" height="1.14"/><rect class="cls-27" x="6.87" y="46.65" width="110.97" height="1.14"/><rect class="cls-28" x="6.87" y="48.57" width="110.97" height="1.14"/><rect class="cls-29" x="6.87" y="50.49" width="110.97" height="1.14"/><rect class="cls-30" y="6.29" width="6.87" height="60.46"/><rect class="cls-31" x="6.57" y="3.13" width="14.59" height="3.16"/><rect class="cls-32" x="4.16" width="19.4" height="3.13"/><rect class="cls-33" x="6.87" y="46.65" width="128.36" height="12.62"/><rect class="cls-34" x="103.21" y="3.13" width="14.59" height="3.16"/><rect class="cls-35" x="100.8" width="19.4" height="3.13"/><path class="cls-36" d="M132.27,36.56H106s-2.89.23-2.89,8c0,5.75,2.89,7.8,2.89,7.8h26.27Z"/><rect class="cls-37" x="98.43" y="43.96" width="15.82" height="1.02" transform="translate(61.87 150.81) rotate(-90)"/><rect class="cls-38" x="106.15" y="43.96" width="15.82" height="1.02" transform="translate(69.59 158.53) rotate(-90)"/><rect class="cls-39" x="122.18" y="43.41" width="0.81" height="16.03" transform="translate(71.16 174.01) rotate(-90)"/><rect class="cls-40" x="122.18" y="41.95" width="0.81" height="16.03" transform="translate(72.62 172.55) rotate(-90)"/><rect class="cls-41" x="122.18" y="40.49" width="0.81" height="16.03" transform="translate(74.07 171.09) rotate(-90)"/><rect class="cls-42" x="122.18" y="39.03" width="0.81" height="16.03" transform="translate(75.53 169.63) rotate(-90)"/><rect class="cls-43" x="122.18" y="37.57" width="0.81" height="16.03" transform="translate(76.99 168.17) rotate(-90)"/><rect class="cls-44" x="122.18" y="36.11" width="0.81" height="16.03" transform="translate(78.45 166.71) rotate(-90)"/><rect class="cls-45" x="122.18" y="34.65" width="0.81" height="16.03" transform="translate(79.91 165.25) rotate(-90)"/><rect class="cls-46" x="122.18" y="33.19" width="0.81" height="16.03" transform="translate(81.37 163.79) rotate(-90)"/><rect class="cls-47" x="122.18" y="31.73" width="0.81" height="16.03" transform="translate(82.83 162.33) rotate(-90)"/><rect class="cls-48" x="122.18" y="30.27" width="0.81" height="16.03" transform="translate(84.29 160.87) rotate(-90)"/><rect class="cls-49" x="132.27" y="38.29" width="2.97" height="12.08"/><rect class="cls-50" x="104.85" y="52.45" width="31.97" height="13.7"/><rect class="cls-51" x="104.85" y="55.36" width="31.97" height="8.05"/></g></svg>