<svg xmlns="http://www.w3.org/2000/svg" xmlns:xlink="http://www.w3.org/1999/xlink" viewBox="0 0 87.28 150">
<defs>
<style>.cls-1{fill:url(#未命名的渐变_74);}.cls-2{fill:url(#未命名的渐变_74-2);}.cls-3{fill:url(#未命名的渐变_74-3);}.cls-4{fill:url(#未命名的渐变_74-4);}.cls-5{fill:url(#未命名的渐变_74-5);}.cls-6{fill:url(#未命名的渐变_74-6);}.cls-7{fill:url(#未命名的渐变_74-7);}.cls-8{fill:url(#未命名的渐变_74-8);}.cls-9{fill:url(#未命名的渐变_74-9);}.cls-10{fill:url(#未命名的渐变_74-10);}.cls-11{fill:url(#未命名的渐变_74-11);}.cls-12{fill:url(#未命名的渐变_74-12);}.cls-13{fill:url(#未命名的渐变_74-13);}.cls-14{fill:url(#未命名的渐变_74-14);}.cls-15{fill:url(#未命名的渐变_74-15);}.cls-16{opacity:0.2;}</style><linearGradient id="未命名的渐变_74" x1="43.66" y1="24.61" x2="43.66" y2="5.84" gradientUnits="userSpaceOnUse"><stop offset="0" stop-color="#6b6b6b"/><stop offset="0.01" stop-color="#767676"/><stop offset="0.03" stop-color="#959595"/><stop offset="0.04" stop-color="#aaa"/><stop offset="0.37" stop-color="#ccc"/><stop offset="0.74" stop-color="#eaeaea"/><stop offset="0.94" stop-color="#f6f6f6"/><stop offset="0.95" stop-color="#ededed"/><stop offset="0.96" stop-color="#d4d4d4"/><stop offset="0.97" stop-color="#ababab"/><stop offset="0.99" stop-color="#737373"/><stop offset="0.99" stop-color="#666"/></linearGradient><linearGradient id="未命名的渐变_74-2" x1="43.66" y1="69.19" x2="43.66" y2="33.6" xlink:href="#未命名的渐变_74"/><linearGradient id="未命名的渐变_74-3" x1="43.64" y1="110.39" x2="43.64" y2="74.81" xlink:href="#未命名的渐变_74"/><linearGradient id="未命名的渐变_74-4" x1="5.84" y1="110.09" x2="13.99" y2="110.09" xlink:href="#未命名的渐变_74"/><linearGradient id="未命名的渐变_74-5" x1="73.33" y1="110.09" x2="81.48" y2="110.09" xlink:href="#未命名的渐变_74"/><linearGradient id="未命名的渐变_74-6" x1="43.66" y1="30.63" x2="43.66" y2="24.61" xlink:href="#未命名的渐变_74"/><linearGradient id="未命名的渐变_74-7" x1="43.66" y1="74.81" x2="43.66" y2="68.79" xlink:href="#未命名的渐变_74"/><linearGradient id="未命名的渐变_74-8" x1="43.64" y1="33.6" x2="43.64" y2="30.63" xlink:href="#未命名的渐变_74"/><linearGradient id="未命名的渐变_74-9" x1="43.53" y1="112.6" x2="43.53" y2="110.39" xlink:href="#未命名的渐变_74"/><linearGradient id="未命名的渐变_74-10" x1="43.66" y1="121.31" x2="43.66" y2="115.02" xlink:href="#未命名的渐变_74"/><linearGradient id="未命名的渐变_74-11" x1="9.49" y1="149.87" x2="9.49" y2="145.78" xlink:href="#未命名的渐变_74"/><linearGradient id="未命名的渐变_74-12" x1="77.41" y1="149.87" x2="77.41" y2="145.78" xlink:href="#未命名的渐变_74"/><linearGradient id="未命名的渐变_74-13" x1="37.2" y1="2.92" x2="48.99" y2="2.92" xlink:href="#未命名的渐变_74"/><linearGradient id="未命名的渐变_74-14" x1="5.82" y1="2.92" x2="8.68" y2="2.92" xlink:href="#未命名的渐变_74"/><linearGradient id="未命名的渐变_74-15" x1="78.62" y1="2.92" x2="81.48" y2="2.92" xlink:href="#未命名的渐变_74"/></defs><title>IoT-Material Handling（物料运输）</title><g id="图层_21" data-name="图层 21"><rect class="cls-1" x="5.84" y="5.84" width="75.64" height="18.78"/><rect class="cls-2" x="5.84" y="33.6" width="75.64" height="35.59"/><polygon class="cls-3" points="57.13 110.39 30.52 110.39 5.82 74.81 81.46 74.81 57.13 110.39"/><rect class="cls-4" x="5.84" y="74.4" width="8.15" height="71.37"/><rect class="cls-5" x="73.33" y="74.4" width="8.15" height="71.37"/><rect class="cls-6" x="5.84" y="24.61" width="75.64" height="6.02"/><rect class="cls-7" x="5.84" y="68.79" width="75.64" height="6.02"/><rect class="cls-8" x="0.01" y="30.63" width="87.27" height="2.98"/><rect class="cls-9" x="26.14" y="110.39" width="34.79" height="2.21"/><rect class="cls-10" x="13.99" y="115.02" width="59.35" height="6.29"/><rect class="cls-11" x="2.78" y="145.78" width="13.41" height="4.09"/><rect class="cls-12" x="70.7" y="145.78" width="13.41" height="4.09"/><rect class="cls-13" x="37.2" width="11.79" height="5.84"/><rect class="cls-14" x="5.82" width="2.86" height="5.84"/><rect class="cls-15" x="78.62" width="2.86" height="5.84"/></g>
</svg>