<svg xmlns="http://www.w3.org/2000/svg" xmlns:xlink="http://www.w3.org/1999/xlink" viewBox="0 0 86.74 150">
    <defs>
        <style>
            .cls-1 {
                fill: url(#未命名的渐变_105);
            }

            .cls-2 {
                opacity: 0.89;
            }

            .cls-3 {
                fill: #e8e6e6;
            }

            .cls-4 {
                fill: #c4c4c4;
            }

            .cls-5 {
                fill: url(#未命名的渐变_74);
            }

            .cls-6 {
                fill: url(#未命名的渐变_74-2);
            }

            .cls-7 {
                fill: url(#未命名的渐变_74-3);
            }

            .cls-8 {
                fill: url(#未命名的渐变_74-4);
            }

            .cls-9 {
                fill: url(#未命名的渐变_74-5);
            }

            .cls-10 {
                fill: url(#未命名的渐变_74-6);
            }

            .cls-11 {
                fill: url(#未命名的渐变_74-7);
            }

            .cls-12 {
                fill: url(#未命名的渐变_105-2);
            }

            .cls-13 {
                fill: url(#未命名的渐变_105-3);
            }

            .cls-14 {
                opacity: 0.2;
            }
        </style>
        <linearGradient id="未命名的渐变_105" x1="31.52" y1="111.31" x2="54" y2="111.31" gradientUnits="userSpaceOnUse">
            <stop offset="0" stop-color="#e2e2e2" />
            <stop offset="0.03" stop-color="#d0d0d0" />
            <stop offset="0.06" stop-color="#bcbcbc" />
            <stop offset="0.09" stop-color="#b5b5b5" />
            <stop offset="0.49" stop-color="#f6f6f6" />
            <stop offset="0.63" stop-color="#f3f3f3" />
            <stop offset="0.73" stop-color="#eaeaea" />
            <stop offset="0.82" stop-color="#dbdbdb" />
            <stop offset="0.9" stop-color="#c6c6c6" />
            <stop offset="0.97" stop-color="#aaa" />
            <stop offset="1" stop-color="#9b9b9b" />
        </linearGradient>
        <linearGradient id="未命名的渐变_74" y1="75" x2="7.03" y2="75" gradientUnits="userSpaceOnUse">
            <stop offset="0" stop-color="#6b6b6b" />
            <stop offset="0.01" stop-color="#767676" />
            <stop offset="0.03" stop-color="#959595" />
            <stop offset="0.04" stop-color="#aaa" />
            <stop offset="0.37" stop-color="#ccc" />
            <stop offset="0.74" stop-color="#eaeaea" />
            <stop offset="0.94" stop-color="#f6f6f6" />
            <stop offset="0.95" stop-color="#ededed" />
            <stop offset="0.96" stop-color="#d4d4d4" />
            <stop offset="0.97" stop-color="#ababab" />
            <stop offset="0.99" stop-color="#737373" />
            <stop offset="0.99" stop-color="#666" />
        </linearGradient>
        <linearGradient id="未命名的渐变_74-2" x1="79.72" x2="86.74" xlink:href="#未命名的渐变_74" />
        <linearGradient id="未命名的渐变_74-3" x1="69.82" y1="18.35" x2="69.82" y2="8.07" xlink:href="#未命名的渐变_74" />
        <linearGradient id="未命名的渐变_74-4" x1="17.23" y1="18.35" x2="17.23" y2="8.07" xlink:href="#未命名的渐变_74" />
        <linearGradient id="未命名的渐变_74-5" x1="43.37" y1="8.07" x2="43.37" y2="0" xlink:href="#未命名的渐变_74" />
        <linearGradient id="未命名的渐变_74-6" x1="43.37" y1="104.19" x2="43.37" y2="97.53" xlink:href="#未命名的渐变_74" />
        <linearGradient id="未命名的渐变_74-7" x1="43.37" y1="140.77" x2="43.37" y2="134.11" xlink:href="#未命名的渐变_74" />
        <linearGradient id="未命名的渐变_105-2" x1="36.12" y1="124.46" x2="49.4" y2="124.46" xlink:href="#未命名的渐变_105" />
        <linearGradient id="未命名的渐变_105-3" x1="34.4" y1="129.06" x2="51.04" y2="129.06" xlink:href="#未命名的渐变_105" />
    </defs>
    <title>IoT-Material Handling（物料运输）</title>
    <g id="图层_24" data-name="图层 24">
        <rect class="cls-1" x="31.52" y="101.48" width="22.48" height="19.67" />
        <g class="cls-2">
            <path class="cls-3"
                d="M80.27,55.07c0,21.54,9.9,41.15-36.36,39-46.69-2.18-36.36-17.46-36.36-39,0-14.13.69-33.38,12.83-38.94,2.74-1.26,16.76,5.64,23.66,5.64,7.29,0,18-5.8,21.36-5.8C80,16,80.27,41.36,80.27,55.07Z" />
            <path class="cls-4"
                d="M80.27,55.07c0,5.63.73,11.22.9,16.85a34.24,34.24,0,0,1-.64,8.39,15.8,15.8,0,0,1-1.45,4A14.63,14.63,0,0,1,78,86.08a14.92,14.92,0,0,1-1.4,1.58,19.11,19.11,0,0,1-7.23,4.28,43.85,43.85,0,0,1-8.24,1.85,104.43,104.43,0,0,1-16.87.54,128.5,128.5,0,0,1-16.82-1.61,50.93,50.93,0,0,1-8.23-2,24.54,24.54,0,0,1-7.57-3.94,14.58,14.58,0,0,1-2.9-3.22,14.13,14.13,0,0,1-1.78-3.94,27.85,27.85,0,0,1-.77-8.51c.23-5.66,1-11.22.9-16.82A124.07,124.07,0,0,1,8,37.39a51.45,51.45,0,0,1,1.82-8.3,27.85,27.85,0,0,1,3.68-7.7,16.79,16.79,0,0,1,6.52-5.53,2.28,2.28,0,0,1,.58-.21,3,3,0,0,1,.59-.05,6.67,6.67,0,0,1,1.11.08,18.26,18.26,0,0,1,2.1.47c1.37.37,2.71.8,4.05,1.25,2.67.89,5.32,1.83,8,2.63,1.34.4,2.69.77,4.06,1a15.51,15.51,0,0,0,4.12.41,32.09,32.09,0,0,0,8.17-1.67c2.68-.84,5.3-1.86,8-2.79a21.62,21.62,0,0,1,4.08-1.14,10.49,10.49,0,0,1,4.2.58A12.23,12.23,0,0,1,75.26,22a29.2,29.2,0,0,1,3,7.87,63,63,0,0,1,1.38,8.32A157.7,157.7,0,0,1,80.27,55.07Zm0,0a160.41,160.41,0,0,0-.71-16.84,63.13,63.13,0,0,0-1.42-8.3,29.13,29.13,0,0,0-3-7.82A11.89,11.89,0,0,0,69,16.68a10.35,10.35,0,0,0-4.09-.53,22.39,22.39,0,0,0-4,1.18c-2.64,1-5.25,2-7.93,2.88A32.82,32.82,0,0,1,44.68,22a16.83,16.83,0,0,1-4.25-.38c-1.39-.27-2.76-.63-4.12-1-2.71-.78-5.37-1.69-8-2.55-1.34-.43-2.68-.84-4-1.19a18.3,18.3,0,0,0-2-.42,3,3,0,0,0-1.84.13,16,16,0,0,0-6.15,5.32,27.09,27.09,0,0,0-3.53,7.47A50.22,50.22,0,0,0,9,37.52a124.9,124.9,0,0,0-.9,16.76c.06,5.66-.71,11.28-1,16.86a27.2,27.2,0,0,0,.7,8.22,13.24,13.24,0,0,0,1.66,3.72,14.19,14.19,0,0,0,2.71,3A24.37,24.37,0,0,0,19.43,90a50.9,50.9,0,0,0,8.1,2.07,128.28,128.28,0,0,0,16.72,1.78,103.65,103.65,0,0,0,16.81-.35,43.33,43.33,0,0,0,8.21-1.75,18.67,18.67,0,0,0,7.2-4.17A14.83,14.83,0,0,0,77.87,86,16.4,16.4,0,0,0,79,84.22a15.88,15.88,0,0,0,1.45-3.93,33.59,33.59,0,0,0,.68-8.37C81,66.3,80.25,60.7,80.27,55.07Z" />
        </g>
        <rect class="cls-5" width="7.03" height="150" />
        <rect class="cls-6" x="79.72" width="7.03" height="150" />
        <rect class="cls-7" x="67.21" y="8.07" width="5.21" height="10.27" />
        <rect class="cls-8" x="14.62" y="8.07" width="5.21" height="10.27" />
        <rect class="cls-9" width="86.74" height="8.07" />
        <rect class="cls-10" y="97.53" width="86.74" height="6.66" />
        <rect class="cls-11" y="134.11" width="86.74" height="6.66" />
        <rect class="cls-12" x="36.12" y="121.14" width="13.28" height="6.62" />
        <rect class="cls-13" x="34.4" y="127.77" width="16.64" height="2.6" />
    </g>
    
</svg>