<svg xmlns="http://www.w3.org/2000/svg" xmlns:xlink="http://www.w3.org/1999/xlink" viewBox="0 0 134.05 150">
    <defs>
        <style>
            .cls-1 {
                fill: url(#未命名的渐变_105);
            }

            .cls-2 {
                fill: url(#未命名的渐变_105-2);
            }

            .cls-3 {
                fill: url(#未命名的渐变_105-3);
            }

            .cls-4 {
                fill: url(#未命名的渐变_74);
            }

            .cls-5 {
                fill: url(#未命名的渐变_74-2);
            }

            .cls-6 {
                fill: url(#未命名的渐变_74-3);
            }

            .cls-7 {
                fill: url(#未命名的渐变_74-4);
            }

            .cls-8 {
                fill: url(#未命名的渐变_74-5);
            }

            .cls-9 {
                fill: url(#未命名的渐变_74-6);
            }

            .cls-10 {
                fill: url(#未命名的渐变_74-7);
            }

            .cls-11 {
                fill: url(#未命名的渐变_74-8);
            }

            .cls-12 {
                fill: url(#未命名的渐变_74-9);
            }

            .cls-13 {
                fill: url(#未命名的渐变_74-10);
            }

            .cls-14 {
                fill: #565656;
                stroke: #b9b8bc;
                stroke-miterlimit: 10;
            }

            .cls-15 {
                fill: url(#未命名的渐变_105-4);
            }

            .cls-16 {
                fill: #e8e6e6;
            }

            .cls-17 {
                fill: #c4c4c4;
            }

            .cls-18 {
                fill: url(#未命名的渐变_105-5);
            }

            .cls-19 {
                opacity: 0.2;
            }
        </style>
        <linearGradient id="未命名的渐变_105" x1="17.39" y1="30.51" x2="19.14" y2="30.51" gradientUnits="userSpaceOnUse">
            <stop offset="0" stop-color="#e2e2e2" />
            <stop offset="0.03" stop-color="#d0d0d0" />
            <stop offset="0.06" stop-color="#bcbcbc" />
            <stop offset="0.09" stop-color="#b5b5b5" />
            <stop offset="0.49" stop-color="#f6f6f6" />
            <stop offset="0.63" stop-color="#f3f3f3" />
            <stop offset="0.73" stop-color="#eaeaea" />
            <stop offset="0.82" stop-color="#dbdbdb" />
            <stop offset="0.9" stop-color="#c6c6c6" />
            <stop offset="0.97" stop-color="#aaa" />
            <stop offset="1" stop-color="#9b9b9b" />
        </linearGradient>
        <linearGradient id="未命名的渐变_105-2" x1="49.85" y1="30.34" x2="51.6" y2="30.34" xlink:href="#未命名的渐变_105" />
        <linearGradient id="未命名的渐变_105-3" x1="33.47" y1="25.36" x2="37.18" y2="25.36" xlink:href="#未命名的渐变_105" />
        <linearGradient id="未命名的渐变_74" x1="67" y1="10.49" x2="67" gradientUnits="userSpaceOnUse">
            <stop offset="0" stop-color="#6b6b6b" />
            <stop offset="0.01" stop-color="#767676" />
            <stop offset="0.03" stop-color="#959595" />
            <stop offset="0.04" stop-color="#aaa" />
            <stop offset="0.37" stop-color="#ccc" />
            <stop offset="0.74" stop-color="#eaeaea" />
            <stop offset="0.94" stop-color="#f6f6f6" />
            <stop offset="0.95" stop-color="#ededed" />
            <stop offset="0.96" stop-color="#d4d4d4" />
            <stop offset="0.97" stop-color="#ababab" />
            <stop offset="0.99" stop-color="#737373" />
            <stop offset="0.99" stop-color="#666" />
        </linearGradient>
        <linearGradient id="未命名的渐变_74-2" x1="-278.26" y1="152.78" x2="-274.37" y2="152.78"
            gradientTransform="matrix(1.48, 0, 0, -2.22, 508.12, 390.07)" xlink:href="#未命名的渐变_74" />
        <linearGradient id="未命名的渐变_74-3" x1="-236.35" y1="135.06" x2="-232.46" y2="135.06"
            gradientTransform="translate(445.92 -248) scale(1.48 2.22)" xlink:href="#未命名的渐变_74" />
        <linearGradient id="未命名的渐变_74-4" x1="96.89" y1="6.4" x2="96.89" xlink:href="#未命名的渐变_74" />
        <linearGradient id="未命名的渐变_74-5" x1="98.59" y1="102.52" x2="98.59" y2="96.11" xlink:href="#未命名的渐变_74" />
        <linearGradient id="未命名的渐变_74-6" x1="62.76" y1="75" x2="71.02" y2="75" xlink:href="#未命名的渐变_74" />
        <linearGradient id="未命名的渐变_74-7" x1="125.79" y1="75" x2="134.05" y2="75" xlink:href="#未命名的渐变_74" />
        <linearGradient id="未命名的渐变_74-8" x1="35.39" y1="12.28" x2="35.39" y2="3.2" xlink:href="#未命名的渐变_74" />
        <linearGradient id="未命名的渐变_74-9" x1="35.52" y1="15.09" x2="35.52" y2="12.28" xlink:href="#未命名的渐变_74" />
        <linearGradient id="未命名的渐变_74-10" x1="35.52" y1="22.49" x2="35.52" y2="15.09" xlink:href="#未命名的渐变_74" />
        <linearGradient id="未命名的渐变_105-4" x1="32.39" y1="29.8" x2="38.26" y2="29.8" xlink:href="#未命名的渐变_105" />
        <linearGradient id="未命名的渐变_105-5" x1="17.39" y1="31.44" x2="51.6" y2="31.44" xlink:href="#未命名的渐变_105" />
    </defs>
    <title>IoT-Material Handling（物料运输）</title>
    <g id="图层_19" data-name="图层 19">
        <rect class="cls-1" x="17.39" y="29.12" width="1.75" height="2.78" />
        <rect class="cls-2" x="49.85" y="28.95" width="1.75" height="2.78" />
        <rect class="cls-3" x="33.47" y="21.47" width="3.7" height="7.79" />
        <rect class="cls-4" x="-0.05" width="134.1" height="10.49" />
        <rect class="cls-5" x="95.13" y="-6.15" width="5.78" height="115.1"
            transform="translate(208.34 42.51) rotate(147.73)" />
        <rect class="cls-6" x="95.13" y="-6.15" width="5.78" height="115.1"
            transform="translate(42.59 -44.4) rotate(32.27)" />
        <rect class="cls-7" x="62.76" width="68.26" height="6.4" />
        <rect class="cls-8" x="64.46" y="96.11" width="68.26" height="6.4" />
        <rect class="cls-9" x="62.76" width="8.26" height="150" />
        <rect class="cls-10" x="125.79" width="8.26" height="150" />
        <rect class="cls-11" x="27.98" y="3.2" width="14.81" height="9.07" />
        <rect class="cls-12" x="32.07" y="12.28" width="6.89" height="2.81" />
        <rect class="cls-13" x="30.22" y="15.09" width="10.6" height="7.4" />
        <circle class="cls-14" cx="35.39" cy="19.01" r="2.46" />
        <rect class="cls-15" x="32.39" y="29.26" width="5.87" height="1.09" />
        <path class="cls-16"
            d="M61.44,75c0,23.83,7.14,45.53-26.21,43.15C1.56,115.74,9,98.83,9,75c0-15.64.49-36.95,9.24-43.1,2-1.39,12.09,6.25,17.06,6.25,5.26,0,13-6.42,15.4-6.42C61.26,31.73,61.44,59.82,61.44,75Z" />
        <path class="cls-17"
            d="M61.44,75c0,5.23.38,10.45.58,15.67s.3,10.52-1.07,15.61a16.21,16.21,0,0,1-3.76,6.84,16.32,16.32,0,0,1-6.73,4,31.47,31.47,0,0,1-7.76,1.33,58.91,58.91,0,0,1-7.86-.08c-5.21-.39-10.49-1.07-15.42-3a19.55,19.55,0,0,1-6.67-4.3,16,16,0,0,1-3.85-7,31.73,31.73,0,0,1-1-7.86c-.06-2.64,0-5.26.16-7.87.28-5.24.54-10.43.47-15.66s.15-10.48.58-15.71a72,72,0,0,1,2.71-15.52,23.56,23.56,0,0,1,3.5-7.13,12.72,12.72,0,0,1,1.33-1.51,9.59,9.59,0,0,1,.75-.68l.41-.31a2.1,2.1,0,0,1,.48-.31,3.39,3.39,0,0,1,2.17.21,18.87,18.87,0,0,1,1.85.76c2.38,1.12,4.65,2.41,7,3.52a27.89,27.89,0,0,0,3.59,1.47,10.15,10.15,0,0,0,1.86.41,3.69,3.69,0,0,0,.94,0,5,5,0,0,0,.94-.1,15.51,15.51,0,0,0,3.67-1.16c1.19-.52,2.35-1.11,3.5-1.74L47.24,33c.58-.31,1.16-.62,1.76-.88a4.09,4.09,0,0,1,2-.49,5.75,5.75,0,0,1,3.63,1.53,11.18,11.18,0,0,1,2.35,3.16,30.78,30.78,0,0,1,2.45,7.46,98.22,98.22,0,0,1,1.79,15.58C61.43,64.54,61.46,69.77,61.44,75Zm0,0c0-5.23-.06-10.46-.34-15.68a100.32,100.32,0,0,0-1.86-15.55,29.78,29.78,0,0,0-2.51-7.38,10.66,10.66,0,0,0-2.33-3.07,5.4,5.4,0,0,0-3.46-1.41,3.81,3.81,0,0,0-1.8.47c-.59.27-1.16.58-1.73.9L44,35.22c-1.14.64-2.3,1.25-3.5,1.79a15.9,15.9,0,0,1-3.77,1.25,6.79,6.79,0,0,1-1,.12,4.27,4.27,0,0,1-1,0,10,10,0,0,1-2-.41,27.85,27.85,0,0,1-3.68-1.45c-2.39-1.09-4.69-2.36-7-3.44-.59-.26-1.18-.51-1.78-.71a3,3,0,0,0-1.66-.2,1.43,1.43,0,0,0-.33.23l-.37.29c-.25.19-.46.43-.7.64a14.24,14.24,0,0,0-1.24,1.44,23.75,23.75,0,0,0-3.31,6.92A71.32,71.32,0,0,0,10,57c-.4,5.19-.49,10.41-.51,15.64S9.27,83.14,9,88.35c-.14,2.61-.25,5.21-.2,7.81a31.2,31.2,0,0,0,.94,7.66,15.53,15.53,0,0,0,3.59,6.65,18.64,18.64,0,0,0,6.37,4.21c4.79,2,10,2.73,15.2,3.19a61.52,61.52,0,0,0,7.8.17,31.56,31.56,0,0,0,7.68-1.22A16.09,16.09,0,0,0,57,113a15.68,15.68,0,0,0,3.78-6.73c1.39-5,1.29-10.36,1.14-15.56S61.43,80.23,61.44,75Z" />
        <rect class="cls-18" x="17.39" y="30.34" width="34.21" height="2.19" />
    </g>
</svg>