<svg xmlns="http://www.w3.org/2000/svg" xmlns:xlink="http://www.w3.org/1999/xlink" viewBox="0 0 103.29 150">
    <defs>
        <style>
            .cls-1 {
                fill: url(#未命名的渐变_74);
            }

            .cls-2 {
                opacity: 0.89;
            }

            .cls-3 {
                fill: #e8e6e6;
            }

            .cls-4 {
                fill: #c4c4c4;
            }

            .cls-5 {
                fill: url(#未命名的渐变_74-2);
            }

            .cls-6 {
                fill: url(#未命名的渐变_74-3);
            }

            .cls-7 {
                fill: url(#未命名的渐变_67);
            }

            .cls-8 {
                fill: url(#未命名的渐变_67-2);
            }

            .cls-9 {
                fill: url(#未命名的渐变_67-3);
            }

            .cls-10 {
                fill: url(#未命名的渐变_67-4);
            }

            .cls-11 {
                fill: url(#未命名的渐变_74-4);
            }

            .cls-12 {
                fill: url(#未命名的渐变_74-5);
            }

            .cls-13 {
                fill: url(#未命名的渐变_74-6);
            }

            .cls-14 {
                fill: url(#未命名的渐变_74-7);
            }

            .cls-15 {
                fill: url(#未命名的渐变_74-8);
            }

            .cls-16 {
                fill: url(#未命名的渐变_74-9);
            }

            .cls-17 {
                opacity: 0.2;
            }
        </style>
        <linearGradient id="未命名的渐变_74" x1="51.4" y1="20.64" x2="51.4" y2="16.71" gradientUnits="userSpaceOnUse">
            <stop offset="0" stop-color="#6b6b6b" />
            <stop offset="0.01" stop-color="#767676" />
            <stop offset="0.03" stop-color="#959595" />
            <stop offset="0.04" stop-color="#aaa" />
            <stop offset="0.37" stop-color="#ccc" />
            <stop offset="0.74" stop-color="#eaeaea" />
            <stop offset="0.94" stop-color="#f6f6f6" />
            <stop offset="0.95" stop-color="#ededed" />
            <stop offset="0.96" stop-color="#d4d4d4" />
            <stop offset="0.97" stop-color="#ababab" />
            <stop offset="0.99" stop-color="#737373" />
            <stop offset="0.99" stop-color="#666" />
        </linearGradient>
        <linearGradient id="未命名的渐变_74-2" x1="3.72" y1="69.31" x2="10.21" y2="69.31" xlink:href="#未命名的渐变_74" />
        <linearGradient id="未命名的渐变_74-3" x1="0" y1="32.45" x2="13.92" y2="32.45" xlink:href="#未命名的渐变_74" />
        <linearGradient id="未命名的渐变_67" x1="1.53" y1="17.78" x2="3.68" y2="17.78" gradientUnits="userSpaceOnUse">
            <stop offset="0" stop-color="#6b6b6b" />
            <stop offset="0.11" stop-color="#767676" />
            <stop offset="0.3" stop-color="#959595" />
            <stop offset="0.41" stop-color="#aaa" />
            <stop offset="0.56" stop-color="#ccc" />
            <stop offset="0.71" stop-color="#eaeaea" />
            <stop offset="0.8" stop-color="#f6f6f6" />
            <stop offset="0.83" stop-color="#ededed" />
            <stop offset="0.87" stop-color="#d4d4d4" />
            <stop offset="0.92" stop-color="#ababab" />
            <stop offset="0.98" stop-color="#737373" />
            <stop offset="0.99" stop-color="#666" />
        </linearGradient>
        <linearGradient id="未命名的渐变_67-2" x1="10.73" y1="17.78" x2="12.87" y2="17.78" xlink:href="#未命名的渐变_67" />
        <linearGradient id="未命名的渐变_67-3" x1="1.53" y1="47.51" x2="3.68" y2="47.51" xlink:href="#未命名的渐变_67" />
        <linearGradient id="未命名的渐变_67-4" x1="10.73" y1="47.51" x2="12.87" y2="47.51" xlink:href="#未命名的渐变_67" />
        <linearGradient id="未命名的渐变_74-4" x1="52.41" y1="21.98" x2="52.41" y2="15.15" xlink:href="#未命名的渐变_74" />
        <linearGradient id="未命名的渐变_74-5" x1="87.22" y1="32.6" x2="87.22" y2="20.64" xlink:href="#未命名的渐变_74" />
        <linearGradient id="未命名的渐变_74-6" x1="25.99" y1="32.6" x2="25.99" y2="20.64" xlink:href="#未命名的渐变_74" />
        <linearGradient id="未命名的渐变_74-7" x1="51.49" y1="142.54" x2="51.49" y2="134.11" xlink:href="#未命名的渐变_74" />
        <linearGradient id="未命名的渐变_74-8" x1="12.54" y1="150" x2="12.54" y2="142.54" xlink:href="#未命名的渐变_74" />
        <linearGradient id="未命名的渐变_74-9" x1="90.26" y1="150" x2="90.26" y2="142.54" xlink:href="#未命名的渐变_74" />
    </defs>
    <title>IoT-Material Handling（物料运输）</title>
    <g id="图层_23" data-name="图层 23">
        <rect class="cls-1" x="12.54" y="16.71" width="77.72" height="3.93" />
        <g class="cls-2">
            <path class="cls-3"
                d="M102.18,78.63c0,26.73,12.29,51.07-45.12,48.4-57.95-2.7-45.12-21.67-45.12-48.4,0-17.54.85-41.43,15.92-48.34,3.4-1.55,20.8,7,29.36,7,9,0,22.38-7.2,26.52-7.2C101.87,30.1,102.18,61.61,102.18,78.63Z" />
            <path class="cls-4"
                d="M102.18,78.63c0,7,.91,13.93,1.12,20.91a42.39,42.39,0,0,1-.8,10.42,20,20,0,0,1-1.8,4.91,19.6,19.6,0,0,1-1.37,2.23l-.84,1-.42.51-.48.45a23.79,23.79,0,0,1-9,5.29,52.55,52.55,0,0,1-10.23,2.28,127.24,127.24,0,0,1-20.93.65,160.6,160.6,0,0,1-20.86-2,64.44,64.44,0,0,1-10.21-2.5A30.55,30.55,0,0,1,17,117.9a18.86,18.86,0,0,1-3.58-4,17.5,17.5,0,0,1-2.19-4.87,34.61,34.61,0,0,1-.95-10.52c.13-3.51.46-7,.72-10.46s.43-6.94.41-10.42a153.05,153.05,0,0,1,1.2-21,63.72,63.72,0,0,1,2.25-10.28,34.26,34.26,0,0,1,4.55-9.53,20.63,20.63,0,0,1,8-6.84,2.62,2.62,0,0,1,.7-.26,3.56,3.56,0,0,1,.72-.06,7.76,7.76,0,0,1,1.37.1c.88.14,1.74.35,2.59.57,1.7.46,3.36,1,5,1.55,3.32,1.1,6.61,2.26,9.94,3.25,1.67.5,3.35,1,5,1.31A19.78,19.78,0,0,0,58,37a40,40,0,0,0,10.16-2.1c3.32-1.05,6.57-2.31,9.87-3.47A27.1,27.1,0,0,1,83.08,30a13,13,0,0,1,5.2.72A15.12,15.12,0,0,1,96,37.64a36.32,36.32,0,0,1,3.72,9.76,78.51,78.51,0,0,1,1.72,10.32A197.31,197.31,0,0,1,102.18,78.63Zm0,0a197.07,197.07,0,0,0-.86-20.9,79.72,79.72,0,0,0-1.76-10.3,36.16,36.16,0,0,0-3.73-9.72A14.83,14.83,0,0,0,88.2,31a12.6,12.6,0,0,0-5.09-.66,27,27,0,0,0-5,1.45c-3.27,1.18-6.52,2.48-9.84,3.56A40.84,40.84,0,0,1,58,37.52a20.62,20.62,0,0,1-5.26-.47c-1.72-.34-3.41-.79-5.1-1.27-3.36-1-6.67-2.11-10-3.18-1.66-.53-3.32-1.05-5-1.49a25.05,25.05,0,0,0-2.52-.52,3.81,3.81,0,0,0-2.34.16,20.07,20.07,0,0,0-7.68,6.63,33.49,33.49,0,0,0-4.4,9.3,62.61,62.61,0,0,0-2.18,10.15,153.85,153.85,0,0,0-1.12,20.82c0,3.5-.17,7-.45,10.49s-.62,7-.75,10.42a33.49,33.49,0,0,0,.88,10.25,16.66,16.66,0,0,0,2.06,4.64,18,18,0,0,0,3.39,3.79,30.37,30.37,0,0,0,9.07,4.8,63.39,63.39,0,0,0,10.08,2.57,158.65,158.65,0,0,0,20.76,2.18,126.6,126.6,0,0,0,20.88-.46,53,53,0,0,0,10.19-2.18A23.3,23.3,0,0,0,97.49,119l.47-.45.42-.5.84-1a19.35,19.35,0,0,0,1.37-2.21,19.74,19.74,0,0,0,1.8-4.88,41.62,41.62,0,0,0,.83-10.39C103,92.56,102.16,85.62,102.18,78.63Z" />
        </g>
        <rect class="cls-5" x="3.72" width="6.49" height="138.61" />
        <rect class="cls-6" y="15.15" width="13.92" height="34.59" />
        <circle class="cls-7" cx="2.61" cy="17.78" r="1.07" />
        <circle class="cls-8" cx="11.8" cy="17.78" r="1.07" />
        <circle class="cls-9" cx="2.61" cy="47.51" r="1.07" />
        <circle class="cls-10" cx="11.8" cy="47.51" r="1.07" />
        <rect class="cls-11" x="42.24" y="15.15" width="20.35" height="6.83" />
        <rect class="cls-12" x="84.19" y="20.64" width="6.07" height="11.96" />
        <rect class="cls-13" x="22.96" y="20.64" width="6.07" height="11.96" />
        <rect class="cls-14" x="3.72" y="134.11" width="95.56" height="8.43" />
        <rect class="cls-15" x="3.72" y="142.54" width="17.65" height="7.46" />
        <rect class="cls-16" x="81.43" y="142.54" width="17.65" height="7.46" />
    </g>
</svg>