<svg xmlns="http://www.w3.org/2000/svg" xmlns:xlink="http://www.w3.org/1999/xlink" viewBox="0 0 106.53 150">
    <defs>
        <style>
            .cls-1 {
                fill: url(#未命名的渐变_105);
            }

            .cls-2 {
                fill: url(#未命名的渐变_67);
            }

            .cls-3 {
                fill: url(#未命名的渐变_67-2);
            }

            .cls-4 {
                fill: url(#未命名的渐变_67-3);
            }

            .cls-5 {
                fill: url(#未命名的渐变_67-4);
            }

            .cls-6 {
                fill: url(#未命名的渐变_67-5);
            }

            .cls-7 {
                fill: url(#未命名的渐变_67-6);
            }

            .cls-8 {
                fill: url(#未命名的渐变_67-7);
            }

            .cls-9 {
                fill: url(#未命名的渐变_67-8);
            }

            .cls-10 {
                fill: url(#未命名的渐变_67-9);
            }

            .cls-11 {
                fill: url(#未命名的渐变_67-10);
            }

            .cls-12 {
                fill: url(#未命名的渐变_67-11);
            }

            .cls-13 {
                fill: url(#未命名的渐变_67-12);
            }

            .cls-14 {
                fill: url(#未命名的渐变_67-13);
            }

            .cls-15 {
                fill: url(#未命名的渐变_67-14);
            }

            .cls-16 {
                fill: url(#未命名的渐变_105-2);
            }

            .cls-17 {
                fill: url(#未命名的渐变_105-3);
            }

            .cls-18 {
                fill: url(#未命名的渐变_105-4);
            }

            .cls-19 {
                fill: url(#未命名的渐变_105-5);
            }

            .cls-20 {
                fill: url(#未命名的渐变_74);
            }

            .cls-21 {
                fill: url(#未命名的渐变_74-2);
            }

            .cls-22 {
                fill: url(#未命名的渐变_67-15);
            }

            .cls-23 {
                fill: url(#未命名的渐变_67-16);
            }

            .cls-24 {
                fill: url(#未命名的渐变_67-17);
            }

            .cls-25 {
                fill: url(#未命名的渐变_67-18);
            }

            .cls-26 {
                fill: url(#未命名的渐变_74-3);
            }

            .cls-27 {
                fill: url(#未命名的渐变_74-4);
            }

            .cls-28 {
                fill: url(#未命名的渐变_74-5);
            }

            .cls-29 {
                fill: url(#未命名的渐变_74-6);
            }

            .cls-30 {
                fill: url(#未命名的渐变_74-7);
            }

            .cls-31 {
                fill: url(#未命名的渐变_74-8);
            }

            .cls-32 {
                fill: url(#未命名的渐变_74-9);
            }

            .cls-33 {
                fill: url(#未命名的渐变_74-10);
            }

            .cls-34 {
                opacity: 0.89;
            }

            .cls-35 {
                fill: #e8e6e6;
            }

            .cls-36 {
                fill: #c4c4c4;
            }

            .cls-37 {
                opacity: 0.2;
            }
        </style>
        <linearGradient id="未命名的渐变_105" x1="449.62" y1="-926.62" x2="449.62" y2="-949.48"
            gradientTransform="matrix(0.05, 2.31, 1, -0.02, 968.15, -1029.32)" gradientUnits="userSpaceOnUse">
            <stop offset="0" stop-color="#e2e2e2" />
            <stop offset="0.03" stop-color="#d0d0d0" />
            <stop offset="0.06" stop-color="#bcbcbc" />
            <stop offset="0.09" stop-color="#b5b5b5" />
            <stop offset="0.49" stop-color="#f6f6f6" />
            <stop offset="0.63" stop-color="#f3f3f3" />
            <stop offset="0.73" stop-color="#eaeaea" />
            <stop offset="0.82" stop-color="#dbdbdb" />
            <stop offset="0.9" stop-color="#c6c6c6" />
            <stop offset="0.97" stop-color="#aaa" />
            <stop offset="1" stop-color="#9b9b9b" />
        </linearGradient>
        <linearGradient id="未命名的渐变_67" x1="55.99" y1="0.77" x2="33.45" y2="0.77"
            gradientTransform="matrix(1, -0.02, 0.02, 1, 7.07, 5.28)" gradientUnits="userSpaceOnUse">
            <stop offset="0" stop-color="#6b6b6b" />
            <stop offset="0.11" stop-color="#767676" />
            <stop offset="0.3" stop-color="#959595" />
            <stop offset="0.41" stop-color="#aaa" />
            <stop offset="0.56" stop-color="#ccc" />
            <stop offset="0.71" stop-color="#eaeaea" />
            <stop offset="0.8" stop-color="#f6f6f6" />
            <stop offset="0.83" stop-color="#ededed" />
            <stop offset="0.87" stop-color="#d4d4d4" />
            <stop offset="0.92" stop-color="#ababab" />
            <stop offset="0.98" stop-color="#737373" />
            <stop offset="0.99" stop-color="#666" />
        </linearGradient>
        <linearGradient id="未命名的渐变_67-2" x1="56.17" y1="28.55" x2="33.62" y2="28.55" xlink:href="#未命名的渐变_67" />
        <linearGradient id="未命名的渐变_67-3" x1="56.28" y1="37.18" x2="33.73" y2="37.18" xlink:href="#未命名的渐变_67" />
        <linearGradient id="未命名的渐变_67-4" x1="56.02" y1="5.45" x2="33.48" y2="5.45" xlink:href="#未命名的渐变_67" />
        <linearGradient id="未命名的渐变_67-5" x1="35.5" y1="13.02" x2="34.27" y2="13.02" xlink:href="#未命名的渐变_67" />
        <linearGradient id="未命名的渐变_67-6" x1="37.58" y1="13.03" x2="36.35" y2="13.03" xlink:href="#未命名的渐变_67" />
        <linearGradient id="未命名的渐变_67-7" x1="39.66" y1="13.04" x2="38.43" y2="13.04" xlink:href="#未命名的渐变_67" />
        <linearGradient id="未命名的渐变_67-8" x1="41.74" y1="13.05" x2="40.51" y2="13.05" xlink:href="#未命名的渐变_67" />
        <linearGradient id="未命名的渐变_67-9" x1="43.82" y1="13.06" x2="42.58" y2="13.06" xlink:href="#未命名的渐变_67" />
        <linearGradient id="未命名的渐变_67-10" x1="45.9" y1="13.07" x2="44.66" y2="13.07" xlink:href="#未命名的渐变_67" />
        <linearGradient id="未命名的渐变_67-11" x1="47.98" y1="13.08" x2="46.74" y2="13.08" xlink:href="#未命名的渐变_67" />
        <linearGradient id="未命名的渐变_67-12" x1="50.06" y1="13.09" x2="48.82" y2="13.09" xlink:href="#未命名的渐变_67" />
        <linearGradient id="未命名的渐变_67-13" x1="52.14" y1="13.1" x2="50.9" y2="13.1" xlink:href="#未命名的渐变_67" />
        <linearGradient id="未命名的渐变_67-14" x1="54.37" y1="13.59" x2="53.13" y2="13.59" xlink:href="#未命名的渐变_67" />
        <linearGradient id="未命名的渐变_105-2" x1="59.04" y1="21.52" x2="30.77" y2="21.52"
            gradientTransform="matrix(1, -0.02, 0.02, 1, 7.07, 5.28)" xlink:href="#未命名的渐变_105" />
        <linearGradient id="未命名的渐变_105-3" x1="86.05" y1="20.25" x2="57.78" y2="20.25"
            gradientTransform="matrix(2.27, -0.05, -0.04, -2.02, -111.57, 74.24)" xlink:href="#未命名的渐变_105" />
        <linearGradient id="未命名的渐变_105-4" x1="56.76" y1="3.56" x2="56.76" y2="1.89"
            gradientTransform="matrix(1, -0.02, 0.02, 1, 7.07, 5.28)" xlink:href="#未命名的渐变_105" />
        <linearGradient id="未命名的渐变_105-5" x1="58.07" y1="4.55" x2="58.07" y2="1.03"
            gradientTransform="matrix(1, -0.02, 0.02, 1, 7.07, 5.28)" xlink:href="#未命名的渐变_105" />
        <linearGradient id="未命名的渐变_74" x1="25.16" y1="59.52" x2="18.72" y2="59.52" gradientUnits="userSpaceOnUse">
            <stop offset="0" stop-color="#6b6b6b" />
            <stop offset="0.01" stop-color="#767676" />
            <stop offset="0.03" stop-color="#959595" />
            <stop offset="0.04" stop-color="#aaa" />
            <stop offset="0.37" stop-color="#ccc" />
            <stop offset="0.74" stop-color="#eaeaea" />
            <stop offset="0.94" stop-color="#f6f6f6" />
            <stop offset="0.95" stop-color="#ededed" />
            <stop offset="0.96" stop-color="#d4d4d4" />
            <stop offset="0.97" stop-color="#ababab" />
            <stop offset="0.99" stop-color="#737373" />
            <stop offset="0.99" stop-color="#666" />
        </linearGradient>
        <linearGradient id="未命名的渐变_74-2" x1="82.88" y1="59.52" x2="76.44" y2="59.52" xlink:href="#未命名的渐变_74" />
        <linearGradient id="未命名的渐变_67-15" x1="69.04" y1="40.89" x2="62.76" y2="40.89"
            gradientTransform="matrix(1, 0, 0, 1, 0, 0)" xlink:href="#未命名的渐变_67" />
        <linearGradient id="未命名的渐变_67-16" x1="72.18" y1="40.75" x2="62.76" y2="40.75"
            gradientTransform="matrix(1, 0, 0, 1, 0, 0)" xlink:href="#未命名的渐变_67" />
        <linearGradient id="未命名的渐变_67-17" x1="32.93" y1="41.37" x2="39.22" y2="41.37"
            gradientTransform="matrix(1, 0, 0, 1, 0, 0)" xlink:href="#未命名的渐变_67" />
        <linearGradient id="未命名的渐变_67-18" x1="31.34" y1="41.23" x2="40.76" y2="41.23"
            gradientTransform="matrix(1, 0, 0, 1, 0, 0)" xlink:href="#未命名的渐变_67" />
        <linearGradient id="未命名的渐变_74-3" x1="71.85" y1="30.17" x2="68.15" y2="30.25" xlink:href="#未命名的渐变_74" />
        <linearGradient id="未命名的渐变_74-4" x1="34.56" y1="30.85" x2="30.87" y2="30.93" xlink:href="#未命名的渐变_74" />
        <linearGradient id="未命名的渐变_74-5" x1="50.8" y1="125.88" x2="50.8" y2="114.14" xlink:href="#未命名的渐变_74" />
        <linearGradient id="未命名的渐变_74-6" x1="53.18" y1="132.89" x2="53.18" y2="125.88" xlink:href="#未命名的渐变_74" />
        <linearGradient id="未命名的渐变_74-7" x1="13.52" y1="146.64" x2="13.52" y2="132.89" xlink:href="#未命名的渐变_74" />
        <linearGradient id="未命名的渐变_74-8" x1="13.43" y1="150" x2="13.43" y2="146.64" xlink:href="#未命名的渐变_74" />
        <linearGradient id="未命名的渐变_74-9" x1="93.18" y1="146.64" x2="93.18" y2="132.89" xlink:href="#未命名的渐变_74" />
        <linearGradient id="未命名的渐变_74-10" x1="93.1" y1="150" x2="93.1" y2="146.64" xlink:href="#未命名的渐变_74" />
    </defs>
    <title>IoT-Material Handling（物料运输）</title>
    <g id="图层_20" data-name="图层 20">
        <path class="cls-1" d="M64.49,56.48,63.08,5.41S62.6-.18,51.5,0c-8.2.14-11,5.79-11,5.79L42,56.85Z" />
        <polygon class="cls-2" points="63.07 5.37 40.54 5.74 40.51 4.83 63.05 4.46 63.07 5.37" />
        <polygon class="cls-3" points="63.84 33.14 41.31 33.52 41.28 32.6 63.82 32.23 63.84 33.14" />
        <polygon class="cls-4" points="64.14 41.77 41.6 42.14 41.58 41.23 64.11 40.86 64.14 41.77" />
        <polygon class="cls-5" points="63.2 10.04 40.67 10.41 40.64 9.51 63.18 9.13 63.2 10.04" />
        <polygon class="cls-6" points="42.99 24.7 41.85 24.72 41.45 10.4 42.6 10.38 42.99 24.7" />
        <polygon class="cls-7" points="45.07 24.67 43.93 24.69 43.53 10.37 44.68 10.35 45.07 24.67" />
        <polygon class="cls-8" points="47.15 24.64 46.01 24.65 45.61 10.33 46.76 10.31 47.15 24.64" />
        <polygon class="cls-9" points="49.23 24.6 48.09 24.62 47.69 10.3 48.84 10.28 49.23 24.6" />
        <polygon class="cls-10" points="51.31 24.57 50.16 24.59 49.77 10.27 50.92 10.25 51.31 24.57" />
        <polygon class="cls-11" points="53.39 24.53 52.24 24.55 51.85 10.23 53 10.21 53.39 24.53" />
        <polygon class="cls-12" points="55.47 24.5 54.32 24.52 53.93 10.2 55.08 10.18 55.47 24.5" />
        <polygon class="cls-13" points="57.55 24.46 56.4 24.48 56.01 10.16 57.16 10.14 57.55 24.46" />
        <polygon class="cls-14" points="59.63 24.43 58.48 24.45 58.09 10.13 59.23 10.11 59.63 24.43" />
        <polygon class="cls-15" points="61.87 24.87 60.72 24.89 60.32 10.57 61.47 10.55 61.87 24.87" />
        <polygon class="cls-16" points="66.59 26.9 38.33 27.37 38.26 24.78 66.52 24.32 66.59 26.9" />
        <polygon class="cls-17" points="82.9 26.68 18.72 27.73 18.86 32.96 83.05 31.91 82.9 26.68" />
        <polygon class="cls-18" points="64.51 7.62 63.28 7.64 63.23 5.98 64.47 5.96 64.51 7.62" />
        <polygon class="cls-19" points="65.94 8.57 64.54 8.6 64.44 5.09 65.84 5.06 65.94 8.57" />
        <rect class="cls-20" x="18.72" y="4.91" width="6.44" height="109.23" />
        <rect class="cls-21" x="76.44" y="4.91" width="6.44" height="109.23" />
        <path class="cls-22"
            d="M69,33.56a27.65,27.65,0,0,1-.58,4.08,30.24,30.24,0,0,1-1.15,4,22.37,22.37,0,0,1-1.78,3.69A17.74,17.74,0,0,1,63,48.49a18.32,18.32,0,0,0,2.42-3.27,22.89,22.89,0,0,0,1.65-3.72,28.89,28.89,0,0,0,1.46-8h0a.25.25,0,1,1,.49,0Z" />
        <path class="cls-23"
            d="M71.93,33.23a15.91,15.91,0,0,1,0,4.87,13.32,13.32,0,0,1-1.51,4.6,12.48,12.48,0,0,1-1.38,2,13.3,13.3,0,0,1-3.85,2.88c-.72.37-1.49.6-2.23.91.73-.33,1.5-.58,2.2-1a12.17,12.17,0,0,0,2-1.31,11.67,11.67,0,0,0,1.72-1.65,12,12,0,0,0,1.31-2,13,13,0,0,0,1.36-4.53,16.21,16.21,0,0,0-.16-4.72v0a.25.25,0,0,1,.2-.29.24.24,0,0,1,.29.2Z" />
        <path class="cls-24"
            d="M33.43,34A28.9,28.9,0,0,0,34.9,42a21.92,21.92,0,0,0,1.64,3.71A17.24,17.24,0,0,0,39,49a17,17,0,0,1-2.53-3.2,22.09,22.09,0,0,1-1.78-3.7,29.65,29.65,0,0,1-1.15-3.94A29,29,0,0,1,32.93,34a.23.23,0,0,1,.23-.26.25.25,0,0,1,.27.23h0Z" />
        <path class="cls-25"
            d="M32.07,33.81a16.21,16.21,0,0,0-.16,4.72,12.91,12.91,0,0,0,1.36,4.53,12.37,12.37,0,0,0,1.3,2A11.74,11.74,0,0,0,36.3,46.7a12.79,12.79,0,0,0,2,1.3c.7.39,1.47.64,2.2,1-.74-.3-1.51-.53-2.23-.9a12.25,12.25,0,0,1-2.05-1.26,11.58,11.58,0,0,1-1.8-1.63,12,12,0,0,1-1.38-2,13.32,13.32,0,0,1-1.51-4.6,16,16,0,0,1,.05-4.88.24.24,0,0,1,.28-.2.25.25,0,0,1,.21.29h0Z" />
        <rect class="cls-26" x="68.22" y="26.86" width="3.56" height="6.7" />
        <rect class="cls-27" x="30.94" y="27.54" width="3.56" height="6.7" />
        <rect class="cls-28" x="18.72" y="114.14" width="64.16" height="11.74" />
        <rect class="cls-29" x="8.31" y="125.88" width="89.73" height="7.01" />
        <rect class="cls-30" x="8.31" y="132.89" width="10.41" height="13.75" />
        <rect class="cls-31" y="146.64" width="26.87" height="3.36" />
        <rect class="cls-32" x="87.98" y="132.89" width="10.41" height="13.75" />
        <rect class="cls-33" x="79.66" y="146.64" width="26.87" height="3.36" />
        <g class="cls-34">
            <path class="cls-35"
                d="M79.87,80.15c0,19.37,7.5,37-27.56,35.07-35.4-2-27.57-15.7-27.57-35.07,0-12.71.52-30,9.73-35,2.07-1.12,12.7,5.08,17.94,5.08C57.93,50.19,66.08,45,68.6,45,79.68,45,79.87,67.81,79.87,80.15Z" />
            <path class="cls-36"
                d="M79.87,80.15c0,4.69.48,9.36.66,14a45.88,45.88,0,0,1-.19,7,16.77,16.77,0,0,1-2.11,6.67,13.18,13.18,0,0,1-5.14,4.74,23.29,23.29,0,0,1-6.7,2.18,63.53,63.53,0,0,1-14,.66,81.45,81.45,0,0,1-14-1.74,30.31,30.31,0,0,1-6.7-2.35,14.33,14.33,0,0,1-5.49-4.59A14.86,14.86,0,0,1,23.78,100a41.14,41.14,0,0,1-.14-7.1c.25-4.7.68-9.34.61-14a138.42,138.42,0,0,1,.67-14.09c.58-4.66,1.42-9.39,3.56-13.69A15.53,15.53,0,0,1,33,45.61l.76-.49a2.78,2.78,0,0,1,.88-.47,4.75,4.75,0,0,1,1.91.16A31,31,0,0,1,39.93,46c2.19.86,4.34,1.77,6.54,2.57,1.09.39,2.2.75,3.32,1a10.08,10.08,0,0,0,3.4.35,24.43,24.43,0,0,0,6.69-1.81c2.18-.85,4.29-1.87,6.5-2.7a10.58,10.58,0,0,1,1.71-.51,3.4,3.4,0,0,1,.9,0,5.27,5.27,0,0,1,.89.1,7,7,0,0,1,3.22,1.47,13.68,13.68,0,0,1,3.8,5.88A51.8,51.8,0,0,1,79.49,66.1C79.84,70.77,79.88,75.46,79.87,80.15Zm0,0c0-4.69-.08-9.38-.46-14.05a51.75,51.75,0,0,0-2.64-13.74A13.53,13.53,0,0,0,73,46.6a6.75,6.75,0,0,0-3.12-1.37,5,5,0,0,0-.86-.09,3.34,3.34,0,0,0-.84,0,10.88,10.88,0,0,0-1.65.52c-2.17.85-4.27,1.9-6.46,2.78a25.13,25.13,0,0,1-6.8,1.93,10.37,10.37,0,0,1-3.56-.32,32.42,32.42,0,0,1-3.4-1c-2.23-.77-4.4-1.67-6.59-2.48a29.31,29.31,0,0,0-3.29-1.07,4,4,0,0,0-1.57-.14,3,3,0,0,0-.65.38l-.7.47a15,15,0,0,0-4.22,5.29c-2,4.14-2.86,8.8-3.4,13.41a135.7,135.7,0,0,0-.6,14c0,4.71-.41,9.41-.69,14.07a40.18,40.18,0,0,0,.1,6.94,14,14,0,0,0,2.2,6.38A13.82,13.82,0,0,0,32,110.69a29.14,29.14,0,0,0,6.51,2.37A79.47,79.47,0,0,0,52.36,115a62.84,62.84,0,0,0,14-.47A22.85,22.85,0,0,0,73,112.43a12.72,12.72,0,0,0,5.12-4.61,16.56,16.56,0,0,0,2.12-6.62,45.56,45.56,0,0,0,.23-7C80.3,89.51,79.85,84.84,79.87,80.15Z" />
        </g>
    </g>
    
</svg>