<svg xmlns="http://www.w3.org/2000/svg" xmlns:xlink="http://www.w3.org/1999/xlink" viewBox="0 0 149.89 133.02">
    <defs>
        <style>
            .cls-1 {
                fill: url(#未命名的渐变_74);
            }

            .cls-2 {
                fill: url(#未命名的渐变_74-2);
            }

            .cls-3 {
                fill: url(#未命名的渐变_105);
            }

            .cls-4 {
                fill: url(#未命名的渐变_74-3);
            }

            .cls-5 {
                fill: url(#未命名的渐变_74-4);
            }

            .cls-6 {
                fill: url(#未命名的渐变_105-2);
            }

            .cls-7 {
                fill: url(#未命名的渐变_74-5);
            }

            .cls-8 {
                fill: #b9b8bc;
            }

            .cls-14,
            .cls-8,
            .cls-9 {
                stroke: #565656;
                stroke-miterlimit: 10;
                stroke-width: 0.5px;
            }

            .cls-9 {
                fill: none;
            }

            .cls-10 {
                fill: url(#未命名的渐变_74-6);
            }

            .cls-11 {
                fill: url(#未命名的渐变_74-7);
            }

            .cls-12 {
                fill: url(#未命名的渐变_74-8);
            }

            .cls-13 {
                fill: url(#未命名的渐变_74-9);
            }

            .cls-14 {
                fill: #939393;
            }

            .cls-15 {
                fill: url(#未命名的渐变_105-3);
            }

            .cls-16 {
                fill: url(#未命名的渐变_74-10);
            }

            .cls-17 {
                fill: url(#未命名的渐变_105-4);
            }

            .cls-18 {
                fill: url(#未命名的渐变_105-5);
            }

            .cls-19 {
                fill: url(#未命名的渐变_105-6);
            }

            .cls-20 {
                fill: url(#未命名的渐变_74-11);
            }

            .cls-21 {
                fill: url(#未命名的渐变_74-12);
            }

            .cls-22 {
                fill: url(#未命名的渐变_74-13);
            }

            .cls-23 {
                fill: url(#未命名的渐变_74-14);
            }

            .cls-24 {
                fill: url(#未命名的渐变_105-7);
            }

            .cls-25 {
                fill: url(#未命名的渐变_105-8);
            }

            .cls-26 {
                fill: url(#未命名的渐变_105-9);
            }

            .cls-27 {
                fill: url(#未命名的渐变_105-10);
            }

            .cls-28 {
                fill: url(#未命名的渐变_105-11);
            }

            .cls-29 {
                opacity: 0.2;
            }
        </style>
        <linearGradient id="未命名的渐变_74" x1="15.33" y1="132.21" x2="27.85" y2="132.21" gradientUnits="userSpaceOnUse">
            <stop offset="0" stop-color="#6b6b6b" />
            <stop offset="0.01" stop-color="#767676" />
            <stop offset="0.03" stop-color="#959595" />
            <stop offset="0.04" stop-color="#aaa" />
            <stop offset="0.37" stop-color="#ccc" />
            <stop offset="0.74" stop-color="#eaeaea" />
            <stop offset="0.94" stop-color="#f6f6f6" />
            <stop offset="0.95" stop-color="#ededed" />
            <stop offset="0.96" stop-color="#d4d4d4" />
            <stop offset="0.97" stop-color="#ababab" />
            <stop offset="0.99" stop-color="#737373" />
            <stop offset="0.99" stop-color="#666" />
        </linearGradient>
        <linearGradient id="未命名的渐变_74-2" x1="106.95" y1="132.09" x2="119.46" y2="132.09" xlink:href="#未命名的渐变_74" />
        <linearGradient id="未命名的渐变_105" x1="126.83" y1="23.01" x2="126.83" y2="21.23" gradientUnits="userSpaceOnUse">
            <stop offset="0" stop-color="#e2e2e2" />
            <stop offset="0.03" stop-color="#d0d0d0" />
            <stop offset="0.06" stop-color="#bcbcbc" />
            <stop offset="0.09" stop-color="#b5b5b5" />
            <stop offset="0.49" stop-color="#f6f6f6" />
            <stop offset="0.63" stop-color="#f3f3f3" />
            <stop offset="0.73" stop-color="#eaeaea" />
            <stop offset="0.82" stop-color="#dbdbdb" />
            <stop offset="0.9" stop-color="#c6c6c6" />
            <stop offset="0.97" stop-color="#aaa" />
            <stop offset="1" stop-color="#9b9b9b" />
        </linearGradient>
        <linearGradient id="未命名的渐变_74-3" x1="55.86" y1="87.74" x2="61.54" y2="87.74"
            gradientTransform="matrix(1, 0, 0, -1, 45.92, 189.6)" xlink:href="#未命名的渐变_74" />
        <linearGradient id="未命名的渐变_74-4" x1="25.06" y1="98.6" x2="30.75" y2="98.6"
            gradientTransform="translate(2.27 3.26)" xlink:href="#未命名的渐变_74" />
        <linearGradient id="未命名的渐变_105-2" x1="70.24" y1="73.42" x2="70.24" y2="30.12" xlink:href="#未命名的渐变_105" />
        <linearGradient id="未命名的渐变_74-5" x1="84.32" y1="78.76" x2="84.32" y2="73.42" xlink:href="#未命名的渐变_74" />
        <linearGradient id="未命名的渐变_74-6" x1="41.94" y1="43.34" x2="41.94" y2="41.6" xlink:href="#未命名的渐变_74" />
        <linearGradient id="未命名的渐变_74-7" x1="99.78" y1="42.36" x2="99.78" y2="40.63" xlink:href="#未命名的渐变_74" />
        <linearGradient id="未命名的渐变_74-8" x1="70.24" y1="28.48" x2="88.63" y2="28.48" xlink:href="#未命名的渐变_74" />
        <linearGradient id="未命名的渐变_74-9" x1="64.41" y1="20.7" x2="93.02" y2="20.7" xlink:href="#未命名的渐变_74" />
        <linearGradient id="未命名的渐变_105-3" x1="16.44" y1="65.35" x2="16.44" y2="30.12" xlink:href="#未命名的渐变_105" />
        <linearGradient id="未命名的渐变_74-10" x1="116.05" y1="51.77" x2="142.78" y2="51.77" xlink:href="#未命名的渐变_74" />
        <linearGradient id="未命名的渐变_105-4" x1="6.64" y1="57.22" x2="6.64" y2="37.23" xlink:href="#未命名的渐变_105" />
        <linearGradient id="未命名的渐变_105-5" x1="3.26" y1="53.75" x2="3.26" y2="42.02" xlink:href="#未命名的渐变_105" />
        <linearGradient id="未命名的渐变_105-6" x1="0.84" y1="55.62" x2="0.84" y2="40.07" xlink:href="#未命名的渐变_105" />
        <linearGradient id="未命名的渐变_74-11" x1="15.28" y1="69.21" x2="15.28" y2="65.35" xlink:href="#未命名的渐变_74" />
        <linearGradient id="未命名的渐变_74-12" x1="18.75" y1="105.08" x2="24.43" y2="105.08" xlink:href="#未命名的渐变_74" />
        <linearGradient id="未命名的渐变_74-13" x1="51.4" y1="105.08" x2="57.08" y2="105.08"
            gradientTransform="matrix(1, 0, 0, -1, 58.97, 210.17)" xlink:href="#未命名的渐变_74" />
        <linearGradient id="未命名的渐变_74-14" x1="108.41" y1="28.48" x2="137.71" y2="28.48" xlink:href="#未命名的渐变_74" />
        <linearGradient id="未命名的渐变_105-7" x1="117.46" y1="22.43" x2="131.85" y2="22.43" xlink:href="#未命名的渐变_105" />
        <linearGradient id="未命名的渐变_105-8" x1="111.46" y1="9.53" x2="137.71" y2="9.53" xlink:href="#未命名的渐变_105" />
        <linearGradient id="未命名的渐变_105-9" x1="108.95" y1="0.49" x2="140.29" y2="0.49" xlink:href="#未命名的渐变_105" />
        <linearGradient id="未命名的渐变_105-10" x1="134.38" y1="23.47" x2="134.38" y2="20.57" xlink:href="#未命名的渐变_105" />
        <linearGradient id="未命名的渐变_105-11" x1="139.58" y1="21.83" x2="141.51" y2="21.83" xlink:href="#未命名的渐变_105" />
    </defs>
    <title>Centrifugal type sifter(离心式筛)</title>
    <g id="图层_2" data-name="图层 2">
        <g id="图层_55" data-name="图层 55">
            <g id="Centrifugal_type_sifter_离心式筛_" data-name="Centrifugal type sifter(离心式筛)">
                <rect class="cls-1" x="15.33" y="131.41" width="12.51" height="1.62" />
                <rect class="cls-2" x="106.95" y="131.28" width="12.51" height="1.62" />
                <rect class="cls-3" x="114.08" y="21.23" width="25.5" height="1.78" />
                <rect class="cls-4" x="101.77" y="75.54" width="5.69" height="52.65"
                    transform="translate(237.15 163.14) rotate(160.58)" />
                <rect class="cls-5" x="27.34" y="75.54" width="5.69" height="52.65"
                    transform="translate(35.58 -4.24) rotate(19.42)" />
                <rect class="cls-6" x="24.43" y="30.12" width="91.62" height="43.3" />
                <rect class="cls-7" x="18.75" y="73.42" width="131.14" height="5.34" />
                <circle class="cls-8" cx="41.94" cy="42.47" r="8.26" />
                <circle class="cls-8" cx="41.94" cy="42.47" r="5.84" />
                <circle class="cls-9" cx="41.94" cy="42.47" r="0.98" />
                <rect class="cls-10" x="30.79" y="41.6" width="22.3" height="1.73" />
                <circle class="cls-8" cx="99.78" cy="41.49" r="8.26" />
                <circle class="cls-8" cx="99.78" cy="41.49" r="5.84" />
                <circle class="cls-9" cx="99.78" cy="41.49" r="0.98" />
                <rect class="cls-11" x="88.63" y="40.63" width="22.3" height="1.73" />
                <rect class="cls-12" x="70.24" y="26.83" width="18.38" height="3.29" />
                <rect class="cls-13" x="64.41" y="14.57" width="28.61" height="12.26" />
                <rect class="cls-14" x="66.15" y="15.73" width="24.92" height="9.95" />
                <rect class="cls-15" x="8.44" y="30.12" width="15.99" height="35.23" />
                <path class="cls-16"
                    d="M124.09,30.12h10.66a8,8,0,0,1,8,8V73.42a0,0,0,0,1,0,0H116.05a0,0,0,0,1,0,0V38.15a8,8,0,0,1,8-8Z" />
                <rect class="cls-17" x="4.84" y="37.23" width="3.6" height="19.99" />
                <rect class="cls-18" x="1.69" y="42.02" width="3.15" height="11.73" />
                <rect class="cls-19" y="40.07" width="1.69" height="15.55" />
                <rect class="cls-20" x="6.13" y="65.35" width="18.3" height="3.86" />
                <rect class="cls-21" x="18.75" y="78.76" width="5.69" height="52.65" />
                <rect class="cls-22" x="110.36" y="78.76" width="5.69" height="52.65"
                    transform="translate(226.41 210.17) rotate(180)" />
                <rect class="cls-23" x="108.41" y="26.83" width="29.3" height="3.29" />
                <rect class="cls-24" x="117.46" y="18.04" width="14.39" height="8.8" />
                <polygon class="cls-25" points="131.85 18.08 117.46 18.08 111.46 0.98 137.71 0.98 131.85 18.08" />
                <rect class="cls-26" x="108.95" width="31.34" height="0.98" />
                <rect class="cls-27" x="131.85" y="20.57" width="5.06" height="2.9" />
                <rect class="cls-28" x="139.58" y="19.77" width="1.93" height="4.13" />
                
            </g>
        </g>
    </g>
</svg>