<svg xmlns="http://www.w3.org/2000/svg" xmlns:xlink="http://www.w3.org/1999/xlink" viewBox="0 0 97.64 150">
    <defs>
        <style>
            .cls-1 {
                fill: url(#未命名的渐变_67);
            }

            .cls-2 {
                fill: url(#未命名的渐变_74);
            }

            .cls-3 {
                fill: url(#未命名的渐变_74-2);
            }

            .cls-4 {
                fill: url(#未命名的渐变_67-2);
            }

            .cls-5 {
                fill: url(#未命名的渐变_105);
            }

            .cls-6 {
                fill: url(#未命名的渐变_105-2);
            }

            .cls-7 {
                fill: url(#未命名的渐变_105-3);
            }

            .cls-8 {
                fill: url(#未命名的渐变_105-4);
            }

            .cls-9 {
                fill: url(#未命名的渐变_67-3);
            }

            .cls-10 {
                fill: url(#未命名的渐变_67-4);
            }

            .cls-11 {
                fill: url(#未命名的渐变_67-5);
            }

            .cls-12 {
                fill: url(#未命名的渐变_67-6);
            }

            .cls-13 {
                fill: url(#未命名的渐变_105-5);
            }

            .cls-14 {
                fill: url(#未命名的渐变_105-6);
            }

            .cls-15 {
                fill: url(#未命名的渐变_105-7);
            }

            .cls-16 {
                fill: url(#未命名的渐变_67-7);
            }

            .cls-17 {
                fill: url(#未命名的渐变_105-8);
            }

            .cls-18 {
                fill: url(#未命名的渐变_105-9);
            }

            .cls-19 {
                fill: #565656;
                stroke: #b9b8bc;
            }

            .cls-19,
            .cls-20 {
                stroke-miterlimit: 10;
                stroke-width: 4px;
            }

            .cls-20 {
                fill: #b9b8bc;
                stroke: #565656;
            }

            .cls-21 {
                fill: url(#未命名的渐变_105-10);
            }

            .cls-22 {
                fill: url(#未命名的渐变_105-11);
            }

            .cls-23 {
                fill: url(#未命名的渐变_105-12);
            }

            .cls-24 {
                fill: url(#未命名的渐变_105-13);
            }

            .cls-25 {
                fill: url(#未命名的渐变_105-14);
            }

            .cls-26 {
                fill: url(#未命名的渐变_105-15);
            }

            .cls-27 {
                fill: url(#未命名的渐变_105-16);
            }

            .cls-28 {
                fill: url(#未命名的渐变_105-17);
            }

            .cls-29 {
                fill: url(#未命名的渐变_67-8);
            }

            .cls-30 {
                fill: url(#未命名的渐变_67-9);
            }

            .cls-31 {
                fill: url(#未命名的渐变_67-10);
            }

            .cls-32 {
                fill: url(#未命名的渐变_67-11);
            }

            .cls-33 {
                fill: url(#未命名的渐变_74-3);
            }

            .cls-34 {
                fill: url(#未命名的渐变_74-4);
            }

            .cls-35 {
                fill: url(#未命名的渐变_67-12);
            }

            .cls-36 {
                fill: url(#未命名的渐变_74-5);
            }

            .cls-37 {
                opacity: 0.2;
            }
        </style>
        <linearGradient id="未命名的渐变_67" x1="76.77" y1="99.15" x2="97.64" y2="99.15" gradientUnits="userSpaceOnUse">
            <stop offset="0" stop-color="#6b6b6b" />
            <stop offset="0.11" stop-color="#767676" />
            <stop offset="0.3" stop-color="#959595" />
            <stop offset="0.41" stop-color="#aaa" />
            <stop offset="0.56" stop-color="#ccc" />
            <stop offset="0.71" stop-color="#eaeaea" />
            <stop offset="0.8" stop-color="#f6f6f6" />
            <stop offset="0.83" stop-color="#ededed" />
            <stop offset="0.87" stop-color="#d4d4d4" />
            <stop offset="0.92" stop-color="#ababab" />
            <stop offset="0.98" stop-color="#737373" />
            <stop offset="0.99" stop-color="#666" />
        </linearGradient>
        <linearGradient id="未命名的渐变_74" x1="80.09" y1="120.31" x2="96.06" y2="120.31" gradientUnits="userSpaceOnUse">
            <stop offset="0" stop-color="#6b6b6b" />
            <stop offset="0.01" stop-color="#767676" />
            <stop offset="0.03" stop-color="#959595" />
            <stop offset="0.04" stop-color="#aaa" />
            <stop offset="0.37" stop-color="#ccc" />
            <stop offset="0.74" stop-color="#eaeaea" />
            <stop offset="0.94" stop-color="#f6f6f6" />
            <stop offset="0.95" stop-color="#ededed" />
            <stop offset="0.96" stop-color="#d4d4d4" />
            <stop offset="0.97" stop-color="#ababab" />
            <stop offset="0.99" stop-color="#737373" />
            <stop offset="0.99" stop-color="#666" />
        </linearGradient>
        <linearGradient id="未命名的渐变_74-2" x1="80.09" y1="85.12" x2="96.06" y2="85.12" xlink:href="#未命名的渐变_74" />
        <linearGradient id="未命名的渐变_67-2" x1="83.67" y1="111.65" x2="93.67" y2="111.65" xlink:href="#未命名的渐变_67" />
        <linearGradient id="未命名的渐变_105" x1="88.49" y1="145.66" x2="89.89" y2="145.66" gradientUnits="userSpaceOnUse">
            <stop offset="0" stop-color="#e2e2e2" />
            <stop offset="0.03" stop-color="#d0d0d0" />
            <stop offset="0.06" stop-color="#bcbcbc" />
            <stop offset="0.09" stop-color="#b5b5b5" />
            <stop offset="0.49" stop-color="#f6f6f6" />
            <stop offset="0.63" stop-color="#f3f3f3" />
            <stop offset="0.73" stop-color="#eaeaea" />
            <stop offset="0.82" stop-color="#dbdbdb" />
            <stop offset="0.9" stop-color="#c6c6c6" />
            <stop offset="0.97" stop-color="#aaa" />
            <stop offset="1" stop-color="#9b9b9b" />
        </linearGradient>
        <linearGradient id="未命名的渐变_105-2" x1="16.08" y1="145.66" x2="17.48" y2="145.66" xlink:href="#未命名的渐变_105" />
        <linearGradient id="未命名的渐变_105-3" x1="52.21" y1="141.46" x2="52.21" y2="137.53" xlink:href="#未命名的渐变_105" />
        <linearGradient id="未命名的渐变_105-4" x1="14.26" y1="93.27" x2="19.3" y2="93.27" xlink:href="#未命名的渐变_105" />
        <linearGradient id="未命名的渐变_67-3" x1="15.52" y1="25.14" x2="18.04" y2="25.14" xlink:href="#未命名的渐变_67" />
        <linearGradient id="未命名的渐变_67-4" x1="22.24" y1="20.96" x2="24.76" y2="20.96" xlink:href="#未命名的渐变_67" />
        <linearGradient id="未命名的渐变_67-5" x1="80.88" y1="20.96" x2="83.4" y2="20.96" xlink:href="#未命名的渐变_67" />
        <linearGradient id="未命名的渐变_67-6" x1="88.07" y1="25.14" x2="90.59" y2="25.14" xlink:href="#未命名的渐变_67" />
        <linearGradient id="未命名的渐变_105-5" x1="86.81" y1="93.27" x2="91.85" y2="93.27" xlink:href="#未命名的渐变_105" />
        <linearGradient id="未命名的渐变_105-6" x1="26.3" y1="88.34" x2="80.09" y2="88.34" xlink:href="#未命名的渐变_105" />
        <linearGradient id="未命名的渐变_105-7" x1="14.26" y1="44.08" x2="91.85" y2="44.08" xlink:href="#未命名的渐变_105" />
        <linearGradient id="未命名的渐变_67-7" x1="53.19" y1="25.57" x2="53.19" y2="23.05" xlink:href="#未命名的渐变_67" />
        <linearGradient id="未命名的渐变_105-8" x1="14.4" y1="102.49" x2="91.99" y2="102.49" xlink:href="#未命名的渐变_105" />
        <linearGradient id="未命名的渐变_105-9" x1="47.87" y1="133.33" x2="58.52" y2="133.33" xlink:href="#未命名的渐变_105" />
        <linearGradient id="未命名的渐变_105-10" x1="36.67" y1="62.48" x2="41.57" y2="62.48" xlink:href="#未命名的渐变_105" />
        <linearGradient id="未命名的渐变_105-11" x1="36.67" y1="72.14" x2="41.57" y2="72.14" xlink:href="#未命名的渐变_105" />
        <linearGradient id="未命名的渐变_105-12" x1="36.67" y1="81.81" x2="41.57" y2="81.81" xlink:href="#未命名的渐变_105" />
        <linearGradient id="未命名的渐变_105-13" x1="63.14" y1="62.48" x2="68.05" y2="62.48" xlink:href="#未命名的渐变_105" />
        <linearGradient id="未命名的渐变_105-14" x1="63.14" y1="72.14" x2="68.05" y2="72.14" xlink:href="#未命名的渐变_105" />
        <linearGradient id="未命名的渐变_105-15" x1="63.14" y1="81.81" x2="68.05" y2="81.81" xlink:href="#未命名的渐变_105" />
        <linearGradient id="未命名的渐变_105-16" x1="12.92" y1="149.28" x2="20.91" y2="149.28" xlink:href="#未命名的渐变_105" />
        <linearGradient id="未命名的渐变_105-17" x1="85.34" y1="149.28" x2="93.32" y2="149.28" xlink:href="#未命名的渐变_105" />
        <linearGradient id="未命名的渐变_67-8" x1="53.05" y1="8.02" x2="53.05" y2="5.49" xlink:href="#未命名的渐变_67" />
        <linearGradient id="未命名的渐变_67-9" x1="52.82" y1="2.58" x2="52.82" y2="0.06" xlink:href="#未命名的渐变_67" />
        <linearGradient id="未命名的渐变_67-10" x1="82.14" y1="67.64" x2="82.14" y2="64.98" xlink:href="#未命名的渐变_67" />
        <linearGradient id="未命名的渐变_67-11" x1="75.51" y1="101.26" x2="78.03" y2="101.26" xlink:href="#未命名的渐变_67" />
        <linearGradient id="未命名的渐变_74-3" x1="0.81" y1="70.41" x2="14.26" y2="70.41" xlink:href="#未命名的渐变_74" />
        <linearGradient id="未命名的渐变_74-4" x1="7.53" y1="72.14" x2="7.53" y2="69.95" xlink:href="#未命名的渐变_74" />
        <linearGradient id="未命名的渐变_67-12" x1="9.07" y1="96.91" x2="9.07" y2="93.27" xlink:href="#未命名的渐变_67" />
        <linearGradient id="未命名的渐变_74-5" x1="26.02" y1="116.59" x2="26.02" y2="98.96" xlink:href="#未命名的渐变_74" />
    </defs>
    <title>IoT-Material Handling（物料运输）</title>
    <g id="Compact_spray_dryer_紧凑型喷雾干燥器_" data-name="Compact spray dryer（紧凑型喷雾干燥器）">
        <rect class="cls-1" x="76.77" y="75.44" width="20.87" height="47.44" />
        <polygon class="cls-2"
            points="96.06 129.13 80.09 129.13 80.09 118.02 84.2 111.48 93.32 111.48 96.06 118.2 96.06 129.13" />
        <polygon class="cls-3"
            points="93.32 111.48 84.2 111.48 80.09 95.09 80.09 58.75 96.06 58.75 96.06 95.09 93.32 111.48" />
        <rect class="cls-4" x="83.67" y="109.36" width="10.01" height="4.58" />
        <rect class="cls-5" x="88.49" y="142.76" width="1.4" height="5.79" />
        <rect class="cls-6" x="16.08" y="142.76" width="1.4" height="5.79" />
        <rect class="cls-7" x="15.1" y="137.53" width="74.24" height="3.92" />
        <rect class="cls-8" x="14.26" y="40.61" width="5.04" height="105.33" />
        <rect class="cls-9" x="15.52" y="5.49" width="2.52" height="39.28" />
        <rect class="cls-10" x="22.24" y="1.32" width="2.52" height="39.28" />
        <rect class="cls-11" x="80.88" y="1.32" width="2.52" height="39.28" />
        <rect class="cls-12" x="88.07" y="5.49" width="2.52" height="39.28" />
        <rect class="cls-13" x="86.81" y="40.61" width="5.04" height="105.33" />
        <polygon class="cls-14"
            points="67.76 129.13 39.47 129.13 26.3 108.12 26.3 47.55 80.09 47.55 80.09 108.12 67.76 129.13" />
        <rect class="cls-15" x="14.26" y="40.61" width="77.6" height="6.94" />
        <rect class="cls-16" x="15.66" y="23.05" width="75.08" height="2.52" />
        <rect class="cls-17" x="14.4" y="98.96" width="77.6" height="7.06" />
        <rect class="cls-18" x="47.87" y="129.13" width="10.65" height="8.4" />
        <rect class="cls-19" x="36.67" y="56.96" width="31.38" height="31.38" />
        <rect class="cls-20" x="44.04" y="63.48" width="16.43" height="19.8" />
        <rect class="cls-21" x="36.67" y="61.48" width="4.9" height="2.01" />
        <rect class="cls-22" x="36.67" y="71.14" width="4.9" height="2.01" />
        <rect class="cls-23" x="36.67" y="80.81" width="4.9" height="2.01" />
        <rect class="cls-24" x="63.14" y="61.48" width="4.9" height="2.01" />
        <rect class="cls-25" x="63.14" y="71.14" width="4.9" height="2.01" />
        <rect class="cls-26" x="63.14" y="80.81" width="4.9" height="2.01" />
        <rect class="cls-27" x="12.92" y="148.55" width="7.98" height="1.45" />
        <rect class="cls-28" x="85.34" y="148.55" width="7.98" height="1.45" />
        <rect class="cls-29" x="15.52" y="5.49" width="75.08" height="2.52" />
        <rect class="cls-30" x="22.24" y="0.06" width="61.16" height="2.52" />
        <rect class="cls-31" x="77.47" y="64.98" width="9.34" height="2.66" />
        <rect class="cls-32" x="75.51" y="64.98" width="2.52" height="72.56" />
        <path class="cls-33" d="M14.26,93.27H.81V61A13.45,13.45,0,0,1,14.26,47.55h0Z" />
        <rect class="cls-34" x="0.81" y="69.95" width="13.45" height="2.19" />
        <rect class="cls-35" x="3.75" y="93.27" width="10.65" height="3.64" />
        <path class="cls-36" d="M37.79,106a10.58,10.58,0,0,1-10.58,10.57H14.26V99H37.79V106Z" />
    </g>
    
</svg>