<svg xmlns="http://www.w3.org/2000/svg" xmlns:xlink="http://www.w3.org/1999/xlink" viewBox="0 0 73.91 150">
    <defs>
        <style>
            .cls-1 {
                fill: url(#未命名的渐变_105);
            }

            .cls-2 {
                fill: url(#未命名的渐变_105-2);
            }

            .cls-3 {
                fill: url(#未命名的渐变_105-3);
            }

            .cls-4 {
                fill: url(#未命名的渐变_105-4);
            }

            .cls-5 {
                fill: url(#未命名的渐变_105-5);
            }

            .cls-6 {
                fill: url(#未命名的渐变_105-6);
            }

            .cls-7 {
                fill: url(#未命名的渐变_105-7);
            }

            .cls-8 {
                fill: url(#未命名的渐变_105-8);
            }

            .cls-9 {
                fill: url(#未命名的渐变_105-9);
            }

            .cls-10 {
                opacity: 0.2;
            }
        </style>
        <linearGradient id="未命名的渐变_105" x1="11.81" y1="113.2" x2="61.4" y2="113.2" gradientUnits="userSpaceOnUse">
            <stop offset="0" stop-color="#e2e2e2" />
            <stop offset="0.03" stop-color="#d0d0d0" />
            <stop offset="0.06" stop-color="#bcbcbc" />
            <stop offset="0.09" stop-color="#b5b5b5" />
            <stop offset="0.49" stop-color="#f6f6f6" />
            <stop offset="0.63" stop-color="#f3f3f3" />
            <stop offset="0.73" stop-color="#eaeaea" />
            <stop offset="0.82" stop-color="#dbdbdb" />
            <stop offset="0.9" stop-color="#c6c6c6" />
            <stop offset="0.97" stop-color="#aaa" />
            <stop offset="1" stop-color="#9b9b9b" />
        </linearGradient>
        <linearGradient id="未命名的渐变_105-2" x1="23.98" y1="132.72" x2="49.24" y2="132.72" xlink:href="#未命名的渐变_105" />
        <linearGradient id="未命名的渐变_105-3" x1="29.12" y1="142.27" x2="44.09" y2="142.27" xlink:href="#未命名的渐变_105" />
        <linearGradient id="未命名的渐变_105-4" x1="23.98" y1="148.77" x2="49.24" y2="148.77" xlink:href="#未命名的渐变_105" />
        <linearGradient id="未命名的渐变_105-5" x1="26.85" y1="12.41" x2="45.61" y2="12.41" xlink:href="#未命名的渐变_105" />
        <linearGradient id="未命名的渐变_105-6" x1="11.81" y1="51.58" x2="61.4" y2="51.58" xlink:href="#未命名的渐变_105" />
        <linearGradient id="未命名的渐变_105-7" x1="0" y1="81.13" x2="73.91" y2="81.13" xlink:href="#未命名的渐变_105" />
        <linearGradient id="未命名的渐变_105-8" x1="51.64" y1="19.39" x2="51.64" y2="5.44" xlink:href="#未命名的渐变_105" />
        <linearGradient id="未命名的渐变_105-9" x1="62.06" y1="23.11" x2="62.06" y2="1.97" xlink:href="#未命名的渐变_105" />
    </defs>
    <title>Cyclone （旋风分离器）</title>
    <g id="图层_2" data-name="图层 2">
        <g id="图层_55" data-name="图层 55">
            <g id="Cyclone_旋风分离器_" data-name="Cyclone （旋风分离器）">
                <polygon class="cls-1"
                    points="11.81 83.93 33.03 132.68 33.05 132.68 33.05 142.47 40.68 142.47 40.68 132.68 40.69 132.68 61.4 83.93 11.81 83.93" />
                <rect class="cls-2" x="23.98" y="130.91" width="25.26" height="3.62" />
                <polygon class="cls-3" points="36.6 150 36.6 150 29.12 134.53 44.09 134.53 36.6 150" />
                <rect class="cls-4" x="23.98" y="147.53" width="25.26" height="2.47" />
                <rect class="cls-5" x="26.85" width="18.76" height="24.82" />
                <rect class="cls-6" x="11.81" y="24.82" width="49.6" height="53.51" />
                <rect class="cls-7" y="78.33" width="73.91" height="5.6" />
                <path class="cls-8"
                    d="M46.71,5.44H63.54a0,0,0,0,1,0,0V19.39a0,0,0,0,1,0,0H46.71a7,7,0,0,1-7-7v0A7,7,0,0,1,46.71,5.44Z" />
                <rect class="cls-9" x="60.58" y="1.97" width="2.96" height="21.13" />
                
            </g>
        </g>
    </g>
</svg>