<svg xmlns="http://www.w3.org/2000/svg" xmlns:xlink="http://www.w3.org/1999/xlink" viewBox="0 0 150 123.96"><defs><style>.cls-1{fill:none;}.cls-2{fill:url(#未命名的渐变_105);}.cls-3{fill:url(#未命名的渐变_74);}.cls-4{fill:url(#未命名的渐变_74-2);}.cls-5{fill:url(#未命名的渐变_74-3);}.cls-6{fill:url(#未命名的渐变_67);}.cls-36,.cls-7{fill:#b9b8bc;}.cls-7{stroke:#565656;stroke-miterlimit:10;}.cls-8{fill:url(#未命名的渐变_74-4);}.cls-9{fill:url(#未命名的渐变_74-5);}.cls-10{fill:url(#未命名的渐变_74-6);}.cls-11{fill:url(#未命名的渐变_105-2);}.cls-12{fill:url(#未命名的渐变_74-7);}.cls-13{fill:url(#未命名的渐变_105-3);}.cls-14{fill:url(#未命名的渐变_105-4);}.cls-15{fill:url(#未命名的渐变_105-5);}.cls-16{fill:url(#未命名的渐变_105-6);}.cls-17{fill:url(#未命名的渐变_105-7);}.cls-18{fill:url(#未命名的渐变_105-8);}.cls-19{fill:url(#未命名的渐变_105-9);}.cls-20{fill:url(#未命名的渐变_105-10);}.cls-21{fill:url(#未命名的渐变_105-11);}.cls-22{fill:url(#未命名的渐变_105-12);}.cls-23{fill:url(#未命名的渐变_105-13);}.cls-24{fill:url(#未命名的渐变_105-14);}.cls-25{fill:url(#未命名的渐变_74-8);}.cls-26{fill:url(#未命名的渐变_74-9);}.cls-27{fill:url(#未命名的渐变_74-10);}.cls-28{fill:url(#未命名的渐变_105-15);}.cls-29{fill:url(#未命名的渐变_74-11);}.cls-30{fill:url(#未命名的渐变_74-12);}.cls-31{fill:url(#未命名的渐变_74-13);}.cls-32{fill:url(#未命名的渐变_105-16);}.cls-33{fill:url(#未命名的渐变_105-17);}.cls-34{fill:url(#未命名的渐变_105-18);}.cls-35{fill:url(#未命名的渐变_105-19);}.cls-37{clip-path:url(#clip-path);}.cls-38{fill:url(#未命名的渐变_74-14);}.cls-39{fill:url(#未命名的渐变_105-20);}.cls-40{fill:url(#未命名的渐变_105-21);}.cls-41{fill:url(#未命名的渐变_105-22);}.cls-42{fill:url(#未命名的渐变_105-23);}.cls-43{fill:url(#未命名的渐变_105-24);}.cls-44{fill:url(#未命名的渐变_74-15);}.cls-45{opacity:0.2;}</style><linearGradient id="未命名的渐变_105" x1="19.82" y1="109.73" x2="19.82" y2="95.82" gradientUnits="userSpaceOnUse"><stop offset="0" stop-color="#e2e2e2"/><stop offset="0.03" stop-color="#d0d0d0"/><stop offset="0.06" stop-color="#bcbcbc"/><stop offset="0.09" stop-color="#b5b5b5"/><stop offset="0.49" stop-color="#f6f6f6"/><stop offset="0.63" stop-color="#f3f3f3"/><stop offset="0.73" stop-color="#eaeaea"/><stop offset="0.82" stop-color="#dbdbdb"/><stop offset="0.9" stop-color="#c6c6c6"/><stop offset="0.97" stop-color="#aaa"/><stop offset="1" stop-color="#9b9b9b"/></linearGradient><linearGradient id="未命名的渐变_74" x1="58.33" y1="74.68" x2="58.33" y2="67.49" gradientUnits="userSpaceOnUse"><stop offset="0" stop-color="#6b6b6b"/><stop offset="0.01" stop-color="#767676"/><stop offset="0.03" stop-color="#959595"/><stop offset="0.04" stop-color="#aaa"/><stop offset="0.37" stop-color="#ccc"/><stop offset="0.74" stop-color="#eaeaea"/><stop offset="0.94" stop-color="#f6f6f6"/><stop offset="0.95" stop-color="#ededed"/><stop offset="0.96" stop-color="#d4d4d4"/><stop offset="0.97" stop-color="#ababab"/><stop offset="0.99" stop-color="#737373"/><stop offset="0.99" stop-color="#666"/></linearGradient><linearGradient id="未命名的渐变_74-2" x1="73.15" y1="-331.56" x2="73.15" y2="-394.3" gradientTransform="translate(48.95 398.78)" xlink:href="#未命名的渐变_74"/><linearGradient id="未命名的渐变_74-3" x1="97.1" y1="67.49" x2="97.1" y2="58.19" xlink:href="#未命名的渐变_74"/><linearGradient id="未命名的渐变_67" x1="97.04" y1="64.47" x2="97.04" y2="62.02" gradientUnits="userSpaceOnUse"><stop offset="0" stop-color="#6b6b6b"/><stop offset="0.11" stop-color="#767676"/><stop offset="0.3" stop-color="#959595"/><stop offset="0.41" stop-color="#aaa"/><stop offset="0.56" stop-color="#ccc"/><stop offset="0.71" stop-color="#eaeaea"/><stop offset="0.8" stop-color="#f6f6f6"/><stop offset="0.83" stop-color="#ededed"/><stop offset="0.87" stop-color="#d4d4d4"/><stop offset="0.92" stop-color="#ababab"/><stop offset="0.98" stop-color="#737373"/><stop offset="0.99" stop-color="#666"/></linearGradient><linearGradient id="未命名的渐变_74-4" x1="56.57" y1="117.31" x2="56.57" y2="73.81" xlink:href="#未命名的渐变_74"/><linearGradient id="未命名的渐变_74-5" x1="48.31" y1="94.54" x2="50.46" y2="94.54" xlink:href="#未命名的渐变_74"/><linearGradient id="未命名的渐变_74-6" x1="89.29" y1="99.2" x2="92.77" y2="99.2" xlink:href="#未命名的渐变_74"/><linearGradient id="未命名的渐变_105-2" x1="54.91" y1="89.59" x2="54.91" y2="85.81" xlink:href="#未命名的渐变_105"/><linearGradient id="未命名的渐变_74-7" x1="72.64" y1="92.87" x2="72.64" y2="81.59" xlink:href="#未命名的渐变_74"/><linearGradient id="未命名的渐变_105-3" x1="91.14" y1="92.17" x2="91.14" y2="82.75" xlink:href="#未命名的渐变_105"/><linearGradient id="未命名的渐变_105-4" x1="82.49" y1="87.46" x2="83.81" y2="87.46" xlink:href="#未命名的渐变_105"/><linearGradient id="未命名的渐变_105-5" x1="84.9" y1="87.46" x2="86.22" y2="87.46" xlink:href="#未命名的渐变_105"/><linearGradient id="未命名的渐变_105-6" x1="87.3" y1="87.46" x2="88.62" y2="87.46" xlink:href="#未命名的渐变_105"/><linearGradient id="未命名的渐变_105-7" x1="89.7" y1="87.46" x2="91.03" y2="87.46" xlink:href="#未命名的渐变_105"/><linearGradient id="未命名的渐变_105-8" x1="92.11" y1="87.46" x2="93.43" y2="87.46" xlink:href="#未命名的渐变_105"/><linearGradient id="未命名的渐变_105-9" x1="94.51" y1="87.46" x2="95.84" y2="87.46" xlink:href="#未命名的渐变_105"/><linearGradient id="未命名的渐变_105-10" x1="96.92" y1="87.46" x2="98.24" y2="87.46" xlink:href="#未命名的渐变_105"/><linearGradient id="未命名的渐变_105-11" x1="99.32" y1="87.46" x2="100.64" y2="87.46" xlink:href="#未命名的渐变_105"/><linearGradient id="未命名的渐变_105-12" x1="101.48" y1="89.59" x2="101.48" y2="85.01" xlink:href="#未命名的渐变_105"/><linearGradient id="未命名的渐变_105-13" x1="103.85" y1="88.58" x2="103.85" y2="85.98" xlink:href="#未命名的渐变_105"/><linearGradient id="未命名的渐变_105-14" x1="62.28" y1="91.15" x2="62.28" y2="83.97" xlink:href="#未命名的渐变_105"/><linearGradient id="未命名的渐变_74-8" x1="20.38" y1="93.53" x2="36.74" y2="93.53" xlink:href="#未命名的渐变_74"/><linearGradient id="未命名的渐变_74-9" x1="21.9" y1="88.13" x2="35.21" y2="88.13" xlink:href="#未命名的渐变_74"/><linearGradient id="未命名的渐变_74-10" x1="43.6" y1="102.2" x2="43.6" y2="99.98" xlink:href="#未命名的渐变_74"/><linearGradient id="未命名的渐变_105-15" x1="65.19" y1="115.28" x2="65.19" y2="113.06" xlink:href="#未命名的渐变_105"/><linearGradient id="未命名的渐变_74-11" x1="71.95" y1="111.16" x2="71.95" y2="92.87" xlink:href="#未命名的渐变_74"/><linearGradient id="未命名的渐变_74-12" x1="73.33" y1="111.16" x2="73.33" y2="99.98" xlink:href="#未命名的渐变_74"/><linearGradient id="未命名的渐变_74-13" x1="74.16" y1="116.76" x2="74.16" y2="110.93" xlink:href="#未命名的渐变_74"/><linearGradient id="未命名的渐变_105-16" x1="53.32" y1="116.23" x2="53.32" y2="112.11" xlink:href="#未命名的渐变_105"/><linearGradient id="未命名的渐变_105-17" x1="53.73" y1="117.31" x2="53.73" y2="111.16" xlink:href="#未命名的渐变_105"/><linearGradient id="未命名的渐变_105-18" x1="55.17" y1="117.31" x2="55.17" y2="111.16" xlink:href="#未命名的渐变_105"/><linearGradient id="未命名的渐变_105-19" x1="117.91" y1="99.88" x2="117.91" y2="74.58" xlink:href="#未命名的渐变_105"/><clipPath id="clip-path"><circle class="cls-1" cx="117.91" cy="87.23" r="10.45"/></clipPath><linearGradient id="未命名的渐变_74-14" x1="117.22" y1="117.31" x2="117.22" y2="99.98" xlink:href="#未命名的渐变_74"/><linearGradient id="未命名的渐变_105-20" x1="90.54" y1="107.68" x2="90.54" y2="104.77" xlink:href="#未命名的渐变_105"/><linearGradient id="未命名的渐变_105-21" x1="91.06" y1="109.73" x2="91.06" y2="102.57" xlink:href="#未命名的渐变_105"/><linearGradient id="未命名的渐变_105-22" x1="92.04" y1="108.65" x2="92.04" y2="104" xlink:href="#未命名的渐变_105"/><linearGradient id="未命名的渐变_105-23" x1="15.6" y1="117.31" x2="15.6" y2="91.15" xlink:href="#未命名的渐变_105"/><linearGradient id="未命名的渐变_105-24" x1="6.72" y1="113.84" x2="6.72" y2="109.73" xlink:href="#未命名的渐变_105"/><linearGradient id="未命名的渐变_74-15" x1="72.92" y1="123.96" x2="72.92" y2="117.31" xlink:href="#未命名的渐变_74"/></defs><title>Double roll crusher(双辊破碎机)</title><g id="Double_roll_crusher_双辊破碎机_" data-name="Double roll crusher(双辊破碎机)"><rect class="cls-2" x="17.74" y="95.82" width="4.16" height="13.91"/><rect class="cls-3" x="10.84" y="67.49" width="94.98" height="7.18"/><rect class="cls-4" x="102.42" y="4.47" width="39.37" height="62.75" transform="translate(15.53 -33.69) rotate(16.76)"/><path class="cls-5" d="M96.76,58.19h.68a3.95,3.95,0,0,1,3.95,3.95v5.36a0,0,0,0,1,0,0H92.81a0,0,0,0,1,0,0V62.14A3.95,3.95,0,0,1,96.76,58.19Z"/><circle class="cls-6" cx="97.04" cy="63.25" r="1.22"/><rect class="cls-7" x="113.26" y="31.17" width="18.85" height="10.42" transform="matrix(0.96, 0.29, -0.29, 0.96, 15.7, -33.84)"/><polygon class="cls-8" points="92.77 73.81 20.38 73.81 20.38 96.32 20.38 96.55 20.38 117.31 81.23 117.31 81.23 96.55 92.77 96.55 92.77 73.81"/><rect class="cls-9" x="48.31" y="89.1" width="2.15" height="10.88"/><rect class="cls-10" x="89.29" y="92.17" width="3.48" height="14.05"/><rect class="cls-11" x="32.22" y="85.81" width="45.39" height="3.78"/><rect class="cls-12" x="62.8" y="81.59" width="19.69" height="11.27"/><rect class="cls-13" x="82.49" y="82.75" width="17.3" height="9.43"/><rect class="cls-14" x="82.49" y="82.75" width="1.32" height="9.43"/><rect class="cls-15" x="84.9" y="82.75" width="1.32" height="9.43"/><rect class="cls-16" x="87.3" y="82.75" width="1.32" height="9.43"/><rect class="cls-17" x="89.7" y="82.75" width="1.32" height="9.43"/><rect class="cls-18" x="92.11" y="82.75" width="1.32" height="9.43"/><rect class="cls-19" x="94.51" y="82.75" width="1.32" height="9.43"/><rect class="cls-20" x="96.92" y="82.75" width="1.32" height="9.43"/><rect class="cls-21" x="99.32" y="82.75" width="1.32" height="9.43"/><rect class="cls-22" x="100.53" y="85.01" width="1.91" height="4.57"/><rect class="cls-23" x="102.44" y="85.98" width="2.83" height="2.6"/><rect class="cls-24" x="61.75" y="83.97" width="1.04" height="7.17"/><rect class="cls-25" x="20.38" y="80.84" width="16.36" height="25.38"/><rect class="cls-26" x="21.9" y="82.81" width="13.31" height="10.64"/><rect class="cls-27" x="36.74" y="99.98" width="13.72" height="2.22"/><rect class="cls-28" x="58.33" y="113.06" width="13.72" height="2.22"/><circle class="cls-29" cx="71.95" cy="102.01" r="9.15"/><rect class="cls-30" x="65.43" y="99.98" width="15.8" height="11.18"/><rect class="cls-31" x="71.25" y="110.93" width="5.82" height="5.82"/><rect class="cls-32" x="48.31" y="112.11" width="10.02" height="4.12"/><rect class="cls-33" x="53.32" y="111.16" width="0.81" height="6.15"/><rect class="cls-34" x="54.76" y="111.16" width="0.81" height="6.15"/><circle class="cls-35" cx="117.91" cy="87.23" r="12.65"/><rect class="cls-36" x="117.32" y="76.79" width="1.18" height="20.87"/><circle class="cls-36" cx="117.91" cy="87.23" r="2.08"/><g class="cls-37"><rect class="cls-36" x="107.48" y="86.67" width="20.86" height="0.79"/><rect class="cls-36" x="107.48" y="85.33" width="20.86" height="0.79"/><rect class="cls-36" x="107.48" y="83.99" width="20.86" height="0.79"/><rect class="cls-36" x="107.49" y="82.65" width="20.86" height="0.79"/><rect class="cls-36" x="107.49" y="81.31" width="20.86" height="0.79"/><rect class="cls-36" x="107.49" y="79.97" width="20.86" height="0.79"/><rect class="cls-36" x="107.49" y="78.63" width="20.86" height="0.79"/><rect class="cls-36" x="107.5" y="77.29" width="20.86" height="0.79"/><rect class="cls-36" x="107.47" y="96.05" width="20.86" height="0.79"/><rect class="cls-36" x="107.48" y="94.71" width="20.86" height="0.79"/><rect class="cls-36" x="107.48" y="93.37" width="20.86" height="0.79"/><rect class="cls-36" x="107.48" y="92.03" width="20.86" height="0.79"/><rect class="cls-36" x="107.48" y="90.69" width="20.86" height="0.79"/><rect class="cls-36" x="107.48" y="89.35" width="20.86" height="0.79"/><rect class="cls-36" x="107.49" y="88.01" width="20.86" height="0.79"/></g><rect class="cls-38" x="99.98" y="99.98" width="34.48" height="17.33"/><rect class="cls-39" x="81.09" y="104.77" width="18.89" height="2.91"/><rect class="cls-40" x="90.54" y="102.57" width="1.05" height="7.16"/><rect class="cls-41" x="91.58" y="104" width="0.91" height="4.64"/><rect class="cls-42" x="13.45" y="91.15" width="4.3" height="26.17"/><rect class="cls-43" y="109.73" width="13.45" height="4.11"/><rect class="cls-44" x="2.68" y="117.31" width="140.47" height="6.65"/><g class="cls-45"><path d="M51.42,90.59c-.17.37-.39.79-.65,1.26s-.54,1-.84,1.44-.6,1-.9,1.43-.59.88-.85,1.25l-2.34-1.13c.27-.36.56-.76.87-1.21s.61-.9.9-1.36.55-.91.79-1.36.43-.84.58-1.18Zm4-1.84v4.12A4.05,4.05,0,0,1,55.27,94a1.56,1.56,0,0,1-.45.73,2.12,2.12,0,0,1-.8.45c-.33.12-.74.23-1.22.35l-1.17.28-.83-2.59.9-.21a2.17,2.17,0,0,0,.72-.28.61.61,0,0,0,.21-.55v-3.1l-5.6.73.58-7.74c.62-.08,1.28-.17,2-.28l2.11-.34,2.14-.39,2.07-.41c.66-.14,1.28-.27,1.87-.41s1.1-.27,1.56-.39l.55,2.63L57.81,83c-.77.18-1.57.34-2.42.51L52.8,84l-2.58.45L50,87l2.59-.34V84.43l2.78-.3v2.15l4.93-.65V88.1Zm2.71-.23c.18.2.39.46.66.79l.83,1.08c.29.39.58.79.86,1.2s.53.81.76,1.18l-2.36,1.82c-.18-.35-.4-.74-.65-1.16s-.51-.82-.79-1.23-.54-.78-.81-1.14-.51-.67-.72-.91Z"/><path d="M77,83.7v2.22L62.31,87.84V85.63l3.27-.43.24-1-2.39.31V82.65l2.84-.37.22-.88-3.4.45v-2.2l13.08-1.72v2.2l-6.85.9-.21.87,6-.78L75,84Zm-13.2,4.67L75.5,86.82v5.63L63.75,94Zm2.59,3.09,6.44-.85V89.33l-6.44.85Zm2.08-6.63,3.88-.51.06-1-3.71.49Z"/><path d="M83.63,86.35c-.17.37-.39.79-.65,1.26s-.54,1-.83,1.44-.6,1-.91,1.42-.58.88-.84,1.25L78.05,90.6c.28-.36.57-.76.87-1.21s.61-.9.9-1.36.55-.92.79-1.36.43-.84.58-1.18Zm4-1.84v4.12a4.1,4.1,0,0,1-.14,1.17,1.61,1.61,0,0,1-.45.73,2.12,2.12,0,0,1-.8.45c-.33.12-.74.23-1.21.35l-1.17.28L83,89l.89-.21a2.17,2.17,0,0,0,.72-.28.61.61,0,0,0,.21-.55v-3.1l-5.6.73.59-7.74c.62-.08,1.27-.17,2-.28l2.1-.34c.71-.12,1.43-.25,2.14-.39l2.07-.41c.66-.14,1.28-.27,1.87-.41l1.56-.39.55,2.63L90,78.75l-2.42.51L85,79.75l-2.58.45-.18,2.54,2.59-.34V80.19l2.78-.3V82l4.93-.65v2.47Zm2.72-.23c.17.2.39.46.65.79l.83,1.08c.29.39.58.79.86,1.2s.54.81.76,1.18l-2.35,1.82c-.19-.35-.41-.74-.65-1.16s-.52-.83-.79-1.23-.55-.78-.82-1.14a9.05,9.05,0,0,0-.72-.91Z"/></g></g></svg>