<svg xmlns="http://www.w3.org/2000/svg" xmlns:xlink="http://www.w3.org/1999/xlink" viewBox="0 0 116.67 150">
    <defs>
        <style>
            .cls-1 {
                fill: url(#未命名的渐变_105);
            }

            .cls-2 {
                fill: url(#未命名的渐变_105-2);
            }

            .cls-3 {
                fill: url(#未命名的渐变_105-3);
            }

            .cls-4 {
                fill: url(#未命名的渐变_105-4);
            }

            .cls-5 {
                fill: url(#未命名的渐变_105-5);
            }

            .cls-6 {
                fill: url(#未命名的渐变_105-6);
            }

            .cls-7 {
                fill: url(#未命名的渐变_105-7);
            }

            .cls-8 {
                fill: url(#未命名的渐变_105-8);
            }

            .cls-9 {
                fill: url(#未命名的渐变_105-9);
            }

            .cls-10 {
                fill: url(#未命名的渐变_105-10);
            }

            .cls-11 {
                fill: url(#未命名的渐变_105-11);
            }

            .cls-12 {
                fill: url(#未命名的渐变_105-12);
            }

            .cls-13 {
                fill: url(#未命名的渐变_105-13);
            }

            .cls-14 {
                fill: url(#未命名的渐变_105-14);
            }

            .cls-15 {
                fill: url(#未命名的渐变_105-15);
            }

            .cls-16 {
                fill: url(#未命名的渐变_105-16);
            }

            .cls-17 {
                fill: url(#未命名的渐变_105-17);
            }

            .cls-18 {
                fill: url(#未命名的渐变_33);
            }

            .cls-19 {
                fill: #fff;
            }

            .cls-20 {
                fill: #eaeaea;
            }

            .cls-21 {
                fill: #7f7f7f;
            }

            .cls-22,
            .cls-30 {
                fill: none;
                stroke-miterlimit: 10;
            }

            .cls-22 {
                stroke: #dedede;
                stroke-width: 0.1px;
            }

            .cls-23 {
                fill: #c1c1c1;
                opacity: 0.51;
            }

            .cls-24 {
                fill: url(#未命名的渐变_105-18);
            }

            .cls-25 {
                fill: url(#未命名的渐变_105-19);
            }

            .cls-26 {
                fill: url(#未命名的渐变_105-20);
            }

            .cls-27 {
                fill: url(#未命名的渐变_105-21);
            }

            .cls-28 {
                fill: url(#未命名的渐变_105-22);
            }

            .cls-29 {
                fill: url(#未命名的渐变_105-23);
            }

            .cls-30 {
                stroke: #7f7f7f;
                stroke-width: 0.25px;
            }

            .cls-31 {
                fill: #dedede;
            }

            .cls-32 {
                fill: url(#未命名的渐变_105-24);
            }

            .cls-33 {
                fill: url(#未命名的渐变_105-25);
            }

            .cls-34 {
                fill: url(#未命名的渐变_105-26);
            }

            .cls-35 {
                fill: url(#未命名的渐变_105-27);
            }

            .cls-36 {
                fill: url(#未命名的渐变_105-28);
            }

            .cls-37 {
                fill: url(#未命名的渐变_67);
            }

            .cls-38 {
                fill: url(#未命名的渐变_67-2);
            }

            .cls-39 {
                fill: url(#未命名的渐变_105-29);
            }

            .cls-40 {
                fill: url(#未命名的渐变_105-30);
            }

            .cls-41 {
                fill: url(#未命名的渐变_105-31);
            }

            .cls-42 {
                fill: url(#未命名的渐变_105-32);
            }

            .cls-43 {
                fill: url(#未命名的渐变_105-33);
            }

            .cls-44 {
                fill: url(#未命名的渐变_67-3);
            }

            .cls-45 {
                fill: url(#未命名的渐变_105-34);
            }

            .cls-46 {
                fill: url(#未命名的渐变_105-35);
            }

            .cls-47 {
                fill: url(#未命名的渐变_105-36);
            }

            .cls-48 {
                fill: url(#未命名的渐变_105-37);
            }

            .cls-49 {
                fill: url(#未命名的渐变_105-38);
            }

            .cls-50 {
                fill: url(#未命名的渐变_105-39);
            }

            .cls-51 {
                fill: url(#未命名的渐变_105-40);
            }

            .cls-52 {
                fill: url(#未命名的渐变_105-41);
            }

            .cls-53 {
                fill: url(#未命名的渐变_105-42);
            }

            .cls-54 {
                opacity: 0.2;
            }
        </style>
        <linearGradient id="未命名的渐变_105" x1="39.44" y1="27.21" x2="39.44" y2="21.88" gradientUnits="userSpaceOnUse">
            <stop offset="0" stop-color="#e2e2e2" />
            <stop offset="0.03" stop-color="#d0d0d0" />
            <stop offset="0.06" stop-color="#bcbcbc" />
            <stop offset="0.09" stop-color="#b5b5b5" />
            <stop offset="0.49" stop-color="#f6f6f6" />
            <stop offset="0.63" stop-color="#f3f3f3" />
            <stop offset="0.73" stop-color="#eaeaea" />
            <stop offset="0.82" stop-color="#dbdbdb" />
            <stop offset="0.9" stop-color="#c6c6c6" />
            <stop offset="0.97" stop-color="#aaa" />
            <stop offset="1" stop-color="#9b9b9b" />
        </linearGradient>
        <linearGradient id="未命名的渐变_105-2" x1="38.28" y1="35.02" x2="38.28" y2="26.27" xlink:href="#未命名的渐变_105" />
        <linearGradient id="未命名的渐变_105-3" x1="36.67" y1="21.88" x2="36.67" y2="13.13" xlink:href="#未命名的渐变_105" />
        <linearGradient id="未命名的渐变_105-4" x1="36.92" y1="14.07" x2="36.92" y2="13.13" xlink:href="#未命名的渐变_105" />
        <linearGradient id="未命名的渐变_105-5" x1="36.92" y1="15.61" x2="36.92" y2="14.67" xlink:href="#未命名的渐变_105" />
        <linearGradient id="未命名的渐变_105-6" x1="36.92" y1="17.16" x2="36.92" y2="16.22" xlink:href="#未命名的渐变_105" />
        <linearGradient id="未命名的渐变_105-7" x1="36.92" y1="18.71" x2="36.92" y2="17.77" xlink:href="#未命名的渐变_105" />
        <linearGradient id="未命名的渐变_105-8" x1="36.92" y1="20.25" x2="36.92" y2="19.32" xlink:href="#未命名的渐变_105" />
        <linearGradient id="未命名的渐变_105-9" x1="36.92" y1="21.8" x2="36.92" y2="20.86" xlink:href="#未命名的渐变_105" />
        <linearGradient id="未命名的渐变_105-10" x1="36.67" y1="35.02" x2="36.67" y2="26.27" xlink:href="#未命名的渐变_105" />
        <linearGradient id="未命名的渐变_105-11" x1="36.92" y1="27.21" x2="36.92" y2="26.27" xlink:href="#未命名的渐变_105" />
        <linearGradient id="未命名的渐变_105-12" x1="36.92" y1="28.76" x2="36.92" y2="27.82" xlink:href="#未命名的渐变_105" />
        <linearGradient id="未命名的渐变_105-13" x1="36.92" y1="30.3" x2="36.92" y2="29.36" xlink:href="#未命名的渐变_105" />
        <linearGradient id="未命名的渐变_105-14" x1="36.92" y1="31.85" x2="36.92" y2="30.91" xlink:href="#未命名的渐变_105" />
        <linearGradient id="未命名的渐变_105-15" x1="36.92" y1="33.4" x2="36.92" y2="32.46" xlink:href="#未命名的渐变_105" />
        <linearGradient id="未命名的渐变_105-16" x1="36.92" y1="34.94" x2="36.92" y2="34.01" xlink:href="#未命名的渐变_105" />
        <linearGradient id="未命名的渐变_105-17" x1="57.37" y1="186.7" x2="65.37" y2="186.7"
            gradientTransform="matrix(1, 0, 0, -1, 0, 236.84)" xlink:href="#未命名的渐变_105" />
        <linearGradient id="未命名的渐变_33" x1="80.61" y1="214.41" x2="89.28" y2="214.41"
            gradientTransform="matrix(1, 0, 0, -1, 0, 236.84)" gradientUnits="userSpaceOnUse">
            <stop offset="0" stop-color="#b7b7b7" />
            <stop offset="0.03" stop-color="#d6d6d6" />
            <stop offset="0.04" stop-color="#e4e4e4" />
            <stop offset="0.11" stop-color="#ededed" />
            <stop offset="0.23" stop-color="#f4f4f4" />
            <stop offset="0.56" stop-color="#f6f6f6" />
            <stop offset="0.8" stop-color="#f4f4f4" />
            <stop offset="0.89" stop-color="#ededed" />
            <stop offset="0.95" stop-color="#e2e2e2" />
            <stop offset="0.97" stop-color="#dedede" />
            <stop offset="0.98" stop-color="#c8c8c8" />
            <stop offset="1" stop-color="#b3b3b3" />
        </linearGradient>
        <linearGradient id="未命名的渐变_105-18" x1="60.17" y1="56.88" x2="62.56" y2="56.88" xlink:href="#未命名的渐变_105" />
        <linearGradient id="未命名的渐变_105-19" x1="61.37" y1="50.38" x2="61.37" y2="49.85" xlink:href="#未命名的渐变_105" />
        <linearGradient id="未命名的渐变_105-20" x1="61.37" y1="51.69" x2="61.37" y2="51.17" xlink:href="#未命名的渐变_105" />
        <linearGradient id="未命名的渐变_105-21" x1="61.37" y1="52.93" x2="61.37" y2="52.4" xlink:href="#未命名的渐变_105" />
        <linearGradient id="未命名的渐变_105-22" x1="61.37" y1="54.08" x2="61.37" y2="53.55" xlink:href="#未命名的渐变_105" />
        <linearGradient id="未命名的渐变_105-23" x1="61.37" y1="55.18" x2="61.37" y2="54.66" xlink:href="#未命名的渐变_105" />
        <linearGradient id="未命名的渐变_105-24" x1="60.58" y1="134.07" x2="60.58" y2="101.67" xlink:href="#未命名的渐变_105" />
        <linearGradient id="未命名的渐变_105-25" x1="99.59" y1="139.93" x2="99.59" y2="96.91" xlink:href="#未命名的渐变_105" />
        <linearGradient id="未命名的渐变_105-26" x1="108.01" y1="150" x2="108.01" y2="88.49" xlink:href="#未命名的渐变_105" />
        <linearGradient id="未命名的渐变_105-27" x1="2.59" y1="139.93" x2="2.59" y2="96.91"
            gradientTransform="matrix(1, 0, 0, -1, 14.49, 236.84)" xlink:href="#未命名的渐变_105" />
        <linearGradient id="未命名的渐变_105-28" x1="11.01" y1="150" x2="11.01" y2="88.49"
            gradientTransform="matrix(1, 0, 0, -1, -2.35, 238.49)" xlink:href="#未命名的渐变_105" />
        <linearGradient id="未命名的渐变_67" x1="28.4" y1="134.07" x2="28.4" y2="101.67" gradientUnits="userSpaceOnUse">
            <stop offset="0" stop-color="#6b6b6b" />
            <stop offset="0.11" stop-color="#767676" />
            <stop offset="0.3" stop-color="#959595" />
            <stop offset="0.41" stop-color="#aaa" />
            <stop offset="0.56" stop-color="#ccc" />
            <stop offset="0.71" stop-color="#eaeaea" />
            <stop offset="0.8" stop-color="#f6f6f6" />
            <stop offset="0.83" stop-color="#ededed" />
            <stop offset="0.87" stop-color="#d4d4d4" />
            <stop offset="0.92" stop-color="#ababab" />
            <stop offset="0.98" stop-color="#737373" />
            <stop offset="0.99" stop-color="#666" />
        </linearGradient>
        <linearGradient id="未命名的渐变_67-2" x1="87.67" y1="134.07" x2="87.67" y2="101.67" xlink:href="#未命名的渐变_67" />
        <linearGradient id="未命名的渐变_105-29" x1="1.77" y1="136.82" x2="1.77" y2="99.29" xlink:href="#未命名的渐变_105" />
        <linearGradient id="未命名的渐变_105-30" x1="114.9" y1="137.18" x2="114.9" y2="99.66" xlink:href="#未命名的渐变_105" />
        <linearGradient id="未命名的渐变_105-31" x1="53.85" y1="92.09" x2="67.31" y2="92.09" xlink:href="#未命名的渐变_105" />
        <linearGradient id="未命名的渐变_105-32" x1="51.44" y1="75.12" x2="70.3" y2="75.12" xlink:href="#未命名的渐变_105" />
        <linearGradient id="未命名的渐变_105-33" x1="49.8" y1="66.61" x2="71.95" y2="66.61" xlink:href="#未命名的渐变_105" />
        <linearGradient id="未命名的渐变_67-3" x1="43.94" y1="57.91" x2="76.71" y2="57.91" xlink:href="#未命名的渐变_67" />
        <linearGradient id="未命名的渐变_105-34" x1="43.94" y1="48.67" x2="76.71" y2="48.67" xlink:href="#未命名的渐变_105" />
        <linearGradient id="未命名的渐变_105-35" x1="30.02" y1="23.04" x2="30.02" y2="11.6" xlink:href="#未命名的渐变_105" />
        <linearGradient id="未命名的渐变_105-36" x1="28.1" y1="21.73" x2="28.1" y2="13.13" xlink:href="#未命名的渐变_105" />
        <linearGradient id="未命名的渐变_105-37" x1="22.62" y1="21.8" x2="22.62" y2="13.2" xlink:href="#未命名的渐变_105" />
        <linearGradient id="未命名的渐变_105-38" x1="25.96" y1="20.25" x2="25.96" y2="14.67" xlink:href="#未命名的渐变_105" />
        <linearGradient id="未命名的渐变_105-39" x1="30.02" y1="36.37" x2="30.02" y2="24.92" xlink:href="#未命名的渐变_105" />
        <linearGradient id="未命名的渐变_105-40" x1="28.1" y1="35.05" x2="28.1" y2="26.45" xlink:href="#未命名的渐变_105" />
        <linearGradient id="未命名的渐变_105-41" x1="22.62" y1="35.13" x2="22.62" y2="26.53" xlink:href="#未命名的渐变_105" />
        <linearGradient id="未命名的渐变_105-42" x1="25.96" y1="33.58" x2="25.96" y2="28" xlink:href="#未命名的渐变_105" />
    </defs>
    <title>Flow meter（流量计）</title>
    <g id="图层_2" data-name="图层 2">
        <g id="图层_55" data-name="图层 55">
            <g id="Flow_meter_流量计_" data-name="Flow meter（流量计）">
                <rect class="cls-1" x="36.67" y="21.88" width="5.56" height="5.33" />
                <rect class="cls-2" x="30.8" y="26.27" width="14.97" height="8.75" />
                <rect class="cls-3" x="30.8" y="13.13" width="11.73" height="8.75" />
                <rect class="cls-4" x="30.8" y="13.13" width="12.23" height="0.94" />
                <rect class="cls-5" x="30.8" y="14.67" width="12.23" height="0.94" />
                <rect class="cls-6" x="30.8" y="16.22" width="12.23" height="0.94" />
                <rect class="cls-7" x="30.8" y="17.77" width="12.23" height="0.94" />
                <rect class="cls-8" x="30.8" y="19.32" width="12.23" height="0.94" />
                <rect class="cls-9" x="30.8" y="20.86" width="12.23" height="0.94" />
                <rect class="cls-10" x="30.8" y="26.27" width="11.73" height="8.75" />
                <rect class="cls-11" x="30.8" y="26.27" width="12.23" height="0.94" />
                <rect class="cls-12" x="30.8" y="27.82" width="12.23" height="0.94" />
                <rect class="cls-13" x="30.8" y="29.36" width="12.23" height="0.94" />
                <rect class="cls-14" x="30.8" y="30.91" width="12.23" height="0.94" />
                <rect class="cls-15" x="30.8" y="32.46" width="12.23" height="0.94" />
                <rect class="cls-16" x="30.8" y="34.01" width="12.23" height="0.94" />
                <rect class="cls-17" x="57.37" y="44.15" width="8" height="11.98" />
                <rect class="cls-18" x="80.61" y="15.45" width="8.67" height="13.96" />
                <circle class="cls-19" cx="61.37" cy="22.48" r="20.54" />
                <path class="cls-20"
                    d="M40.83,22.48a20.53,20.53,0,0,0,9,17,21.89,21.89,0,0,0,3.05.24,22.2,22.2,0,0,0,22-22.39A22.46,22.46,0,0,0,70.65,4.18a20.5,20.5,0,0,0-29.82,18.3Z" />
                <path class="cls-21"
                    d="M61.37,0A22.48,22.48,0,1,0,83.85,22.48,22.47,22.47,0,0,0,61.37,0Zm0,43A20.54,20.54,0,1,1,81.9,22.48,20.54,20.54,0,0,1,61.37,43Z" />
                <rect class="cls-21" x="57.14" y="35.69" width="8.45" height="4.15" />
                <rect class="cls-22" x="57.62" y="36.23" width="7.5" height="3.07" />
                <circle class="cls-23" cx="61.37" cy="22.48" r="19.72" />
                <rect class="cls-24" x="60.17" y="56.13" width="2.39" height="1.49" />
                <rect class="cls-25" x="57.31" y="49.85" width="8.11" height="0.52" />
                <rect class="cls-26" x="57.31" y="51.17" width="8.11" height="0.52" />
                <rect class="cls-27" x="57.31" y="52.4" width="8.11" height="0.52" />
                <rect class="cls-28" x="57.31" y="53.55" width="8.11" height="0.52" />
                <rect class="cls-29" x="57.31" y="54.66" width="8.11" height="0.52" />
                <path class="cls-21"
                    d="M68.81,18.81,66.6,16.6a.86.86,0,0,0-1.21,0,.83.83,0,0,0-.08.12h0l0,.06c0,.07-.06.13-.08.19a15.1,15.1,0,0,1-2.4,3.67c-2.86,3-15,14.24-15,14.24s12.89-10.24,16.89-13a17.79,17.79,0,0,1,3.7-1.58.67.67,0,0,0,.24-.07h0a1.07,1.07,0,0,0,.19-.13A.85.85,0,0,0,68.81,18.81Z" />
                <circle class="cls-21" cx="62.06" cy="22.74" r="1.78" />
                <line class="cls-30" x1="70.19" y1="6.17" x2="68.74" y2="8.91" />
                <line class="cls-30" x1="53.14" y1="6.17" x2="54.59" y2="8.91" />
                <line class="cls-30" x1="43.29" y1="20.05" x2="46.35" y2="20.49" />
                <line class="cls-30" x1="80.24" y1="19.96" x2="77.18" y2="20.4" />
                <circle class="cls-31" cx="62.06" cy="22.74" r="1.01" />
                <rect class="cls-32" x="19.1" y="101.67" width="82.96" height="32.4" />
                <rect class="cls-33" x="96.3" y="96.91" width="6.59" height="43.02" />
                <rect class="cls-34" x="102.89" y="88.49" width="10.25" height="61.51" />
                <rect class="cls-35" x="13.78" y="96.91" width="6.59" height="43.02"
                    transform="translate(34.16 236.84) rotate(180)" />
                <rect class="cls-36" x="3.53" y="88.49" width="10.25" height="61.51"
                    transform="translate(17.32 238.49) rotate(180)" />
                <rect class="cls-37" x="27.51" y="101.67" width="1.78" height="32.4" />
                <rect class="cls-38" x="86.78" y="101.67" width="1.78" height="32.4" />
                <rect class="cls-39" y="99.29" width="3.53" height="37.53" />
                <rect class="cls-40" x="113.14" y="99.66" width="3.53" height="37.53" />
                <path class="cls-41"
                    d="M53.85,76.41H67.31a0,0,0,0,1,0,0v25.12a6.26,6.26,0,0,1-6.26,6.26h-.95a6.26,6.26,0,0,1-6.26-6.26V76.41A0,0,0,0,1,53.85,76.41Z" />
                <rect class="cls-42" x="51.44" y="73.84" width="18.86" height="2.56" />
                <rect class="cls-43" x="49.8" y="59.38" width="22.15" height="14.46" />
                <rect class="cls-44" x="43.94" y="56.45" width="32.77" height="2.93" />
                <rect class="cls-45" x="43.94" y="40.89" width="32.77" height="15.56" />
                <rect class="cls-46" x="29.25" y="11.6" width="1.56" height="11.44" />
                <rect class="cls-47" x="26.96" y="13.13" width="2.29" height="8.6" />
                <path class="cls-48"
                    d="M22.09,13.2H25a0,0,0,0,1,0,0v8.6a0,0,0,0,1,0,0H22.09A1.82,1.82,0,0,1,20.26,20V15A1.82,1.82,0,0,1,22.09,13.2Z" />
                <rect class="cls-49" x="24.97" y="14.67" width="1.99" height="5.58" />
                <rect class="cls-50" x="29.25" y="24.92" width="1.56" height="11.44" />
                <rect class="cls-51" x="26.96" y="26.45" width="2.29" height="8.6" />
                <path class="cls-52"
                    d="M22.09,26.53H25a0,0,0,0,1,0,0v8.6a0,0,0,0,1,0,0H22.09a1.82,1.82,0,0,1-1.82-1.82v-5A1.82,1.82,0,0,1,22.09,26.53Z" />
                <rect class="cls-53" x="24.97" y="28" width="1.99" height="5.58" />
                
            </g>
        </g>
    </g>
</svg>