<svg xmlns="http://www.w3.org/2000/svg" xmlns:xlink="http://www.w3.org/1999/xlink" viewBox="0 0 146.25 150">
    <defs>
        <style>
            .cls-1 {
                fill: url(#未命名的渐变_105);
            }

            .cls-2 {
                fill: url(#未命名的渐变_105-2);
            }

            .cls-3 {
                fill: url(#未命名的渐变_74);
            }

            .cls-4 {
                fill: url(#未命名的渐变_74-2);
            }

            .cls-5 {
                fill: url(#未命名的渐变_74-3);
            }

            .cls-6 {
                fill: url(#未命名的渐变_105-3);
            }

            .cls-7 {
                opacity: 0.2;
            }
        </style>
        <linearGradient id="未命名的渐变_105" x1="16.65" y1="9.18" x2="35.02" y2="9.18" gradientUnits="userSpaceOnUse">
            <stop offset="0" stop-color="#e2e2e2" />
            <stop offset="0.03" stop-color="#d0d0d0" />
            <stop offset="0.06" stop-color="#bcbcbc" />
            <stop offset="0.09" stop-color="#b5b5b5" />
            <stop offset="0.49" stop-color="#f6f6f6" />
            <stop offset="0.63" stop-color="#f3f3f3" />
            <stop offset="0.73" stop-color="#eaeaea" />
            <stop offset="0.82" stop-color="#dbdbdb" />
            <stop offset="0.9" stop-color="#c6c6c6" />
            <stop offset="0.97" stop-color="#aaa" />
            <stop offset="1" stop-color="#9b9b9b" />
        </linearGradient>
        <linearGradient id="未命名的渐变_105-2" x1="118.03" y1="9.18" x2="136.39" y2="9.18" xlink:href="#未命名的渐变_105" />
        <linearGradient id="未命名的渐变_74" x1="0.28" y1="18.53" x2="146.25" y2="18.53" gradientUnits="userSpaceOnUse">
            <stop offset="0" stop-color="#6b6b6b" />
            <stop offset="0.01" stop-color="#767676" />
            <stop offset="0.03" stop-color="#959595" />
            <stop offset="0.04" stop-color="#aaa" />
            <stop offset="0.37" stop-color="#ccc" />
            <stop offset="0.74" stop-color="#eaeaea" />
            <stop offset="0.94" stop-color="#f6f6f6" />
            <stop offset="0.95" stop-color="#ededed" />
            <stop offset="0.96" stop-color="#d4d4d4" />
            <stop offset="0.97" stop-color="#ababab" />
            <stop offset="0.99" stop-color="#737373" />
            <stop offset="0.99" stop-color="#666" />
        </linearGradient>
        <linearGradient id="未命名的渐变_74-2" x1="9.35" y1="51.42" x2="137.17" y2="51.42" xlink:href="#未命名的渐变_74" />
        <linearGradient id="未命名的渐变_74-3" x1="73.26" y1="123.02" x2="73.26" y2="75.28" xlink:href="#未命名的渐变_74" />
        <linearGradient id="未命名的渐变_105-3" x1="57.27" y1="136.71" x2="90.66" y2="136.71" xlink:href="#未命名的渐变_105" />
    </defs>
    <title>IoT-Material Handling（物料运输）</title>
    <g id="图层_11" data-name="图层 11">
        <path class="cls-1"
            d="M25.84,18.36A9.18,9.18,0,1,1,35,9.18,9.19,9.19,0,0,1,25.84,18.36ZM25.84,4a5.24,5.24,0,1,0,5.23,5.23A5.24,5.24,0,0,0,25.84,4Z" />
        <path class="cls-2"
            d="M127.21,18.36a9.18,9.18,0,1,1,9.18-9.18A9.18,9.18,0,0,1,127.21,18.36Zm0-14.41a5.24,5.24,0,1,0,5.23,5.23A5.24,5.24,0,0,0,127.21,4Z" />
        <rect class="cls-3" x="0.28" y="9.52" width="145.97" height="18.03" />
        <rect class="cls-4" x="9.35" y="27.55" width="127.82" height="47.74" />
        <polygon class="cls-5" points="98.36 123.02 49.91 123.02 9.35 75.28 137.17 75.28 98.36 123.02" />
        <rect class="cls-6" x="57.27" y="123.38" width="33.39" height="26.65" />
    </g>
    
</svg>