<svg xmlns="http://www.w3.org/2000/svg" xmlns:xlink="http://www.w3.org/1999/xlink" viewBox="0 0 150 96.87">
    <defs>
        <style>
            .cls-1 {
                fill: url(#未命名的渐变_74);
            }

            .cls-2,
            .cls-20 {
                fill: #b9b8bc;
            }

            .cls-19,
            .cls-2 {
                stroke: #565656;
            }

            .cls-15,
            .cls-16,
            .cls-18,
            .cls-19,
            .cls-2 {
                stroke-miterlimit: 10;
            }

            .cls-3 {
                fill: url(#未命名的渐变_105);
            }

            .cls-4 {
                fill: url(#未命名的渐变_105-2);
            }

            .cls-5 {
                fill: url(#未命名的渐变_105-3);
            }

            .cls-6 {
                fill: url(#未命名的渐变_105-4);
            }

            .cls-7 {
                fill: url(#未命名的渐变_105-5);
            }

            .cls-8 {
                fill: url(#未命名的渐变_74-2);
            }

            .cls-9 {
                fill: url(#未命名的渐变_74-3);
            }

            .cls-10 {
                fill: url(#未命名的渐变_74-4);
            }

            .cls-11 {
                fill: url(#未命名的渐变_74-5);
            }

            .cls-12 {
                fill: url(#未命名的渐变_74-6);
            }

            .cls-13 {
                fill: url(#未命名的渐变_74-7);
            }

            .cls-14 {
                fill: url(#未命名的渐变_74-8);
            }

            .cls-15,
            .cls-16,
            .cls-18,
            .cls-19 {
                fill: none;
            }

            .cls-15,
            .cls-16 {
                stroke-width: 3px;
            }

            .cls-15 {
                stroke: url(#未命名的渐变_74-9);
            }

            .cls-16 {
                stroke: url(#未命名的渐变_74-10);
            }

            .cls-17 {
                fill: url(#未命名的渐变_74-11);
            }

            .cls-18 {
                stroke-width: 5px;
                stroke: url(#未命名的渐变_74-12);
            }

            .cls-21 {
                fill: #565656;
            }

            .cls-22 {
                opacity: 0.2;
            }
        </style>
        <linearGradient id="未命名的渐变_74" x1="32.62" y1="96.87" x2="32.62" y2="42.09" gradientUnits="userSpaceOnUse">
            <stop offset="0" stop-color="#6b6b6b" />
            <stop offset="0.01" stop-color="#767676" />
            <stop offset="0.03" stop-color="#959595" />
            <stop offset="0.04" stop-color="#aaa" />
            <stop offset="0.37" stop-color="#ccc" />
            <stop offset="0.74" stop-color="#eaeaea" />
            <stop offset="0.94" stop-color="#f6f6f6" />
            <stop offset="0.95" stop-color="#ededed" />
            <stop offset="0.96" stop-color="#d4d4d4" />
            <stop offset="0.97" stop-color="#ababab" />
            <stop offset="0.99" stop-color="#737373" />
            <stop offset="0.99" stop-color="#666" />
        </linearGradient>
        <linearGradient id="未命名的渐变_105" x1="32.62" y1="46.34" x2="32.62" y2="42.09" gradientUnits="userSpaceOnUse">
            <stop offset="0" stop-color="#e2e2e2" />
            <stop offset="0.03" stop-color="#d0d0d0" />
            <stop offset="0.06" stop-color="#bcbcbc" />
            <stop offset="0.09" stop-color="#b5b5b5" />
            <stop offset="0.49" stop-color="#f6f6f6" />
            <stop offset="0.63" stop-color="#f3f3f3" />
            <stop offset="0.73" stop-color="#eaeaea" />
            <stop offset="0.82" stop-color="#dbdbdb" />
            <stop offset="0.9" stop-color="#c6c6c6" />
            <stop offset="0.97" stop-color="#aaa" />
            <stop offset="1" stop-color="#9b9b9b" />
        </linearGradient>
        <linearGradient id="未命名的渐变_105-2" x1="32.62" y1="57.32" x2="32.62" y2="53.07" xlink:href="#未命名的渐变_105" />
        <linearGradient id="未命名的渐变_105-3" x1="32.62" y1="68.3" x2="32.62" y2="64.06" xlink:href="#未命名的渐变_105" />
        <linearGradient id="未命名的渐变_105-4" x1="32.62" y1="79.29" x2="32.62" y2="75.04" xlink:href="#未命名的渐变_105" />
        <linearGradient id="未命名的渐变_105-5" x1="32.62" y1="90.27" x2="32.62" y2="86.02" xlink:href="#未命名的渐变_105" />
        <linearGradient id="未命名的渐变_74-2" x1="41.67" y1="66.18" x2="39.1" y2="66.18" xlink:href="#未命名的渐变_74" />
        <linearGradient id="未命名的渐变_74-3" x1="75" y1="96.87" x2="75" y2="90.27" xlink:href="#未命名的渐变_74" />
        <linearGradient id="未命名的渐变_74-4" x1="26.12" y1="42.09" x2="26.12" y2="11.44" xlink:href="#未命名的渐变_74" />
        <linearGradient id="未命名的渐变_74-5" x1="120.74" y1="68.3" x2="120.74" y2="42.09" xlink:href="#未命名的渐变_74" />
        <linearGradient id="未命名的渐变_74-6" x1="147.08" y1="79.29" x2="150" y2="79.29" xlink:href="#未命名的渐变_74" />
        <linearGradient id="未命名的渐变_74-7" x1="91.48" y1="79.29" x2="94.4" y2="79.29" xlink:href="#未命名的渐变_74" />
        <linearGradient id="未命名的渐变_74-8" x1="120.74" y1="45.27" x2="120.74" y2="42.09" xlink:href="#未命名的渐变_74" />
        <linearGradient id="未命名的渐变_74-9" x1="94.52" y1="75.66" x2="94.52" y2="5.48" xlink:href="#未命名的渐变_74" />
        <linearGradient id="未命名的渐变_74-10" x1="78.42" y1="104.34" x2="78.42" y2="34.5"
            gradientTransform="matrix(0.94, -0.43, 0.42, 0.91, -25.68, 38.22)" xlink:href="#未命名的渐变_74" />
        <linearGradient id="未命名的渐变_74-11" x1="126.67" y1="88.48" x2="126.67" y2="72.93" xlink:href="#未命名的渐变_74" />
        <linearGradient id="未命名的渐变_74-12" x1="45.21" y1="55.4" x2="45.21" y2="0" xlink:href="#未命名的渐变_74" />
    </defs>
    <title>Jaw crusher （颚式破碎机）</title>
    <g id="图层_2" data-name="图层 2">
        <g id="图层_55" data-name="图层 55">
            <g id="Jaw_crusher_颚式破碎机_" data-name="Jaw crusher （颚式破碎机）">
                <rect class="cls-1" y="42.09" width="65.24" height="54.78" />
                <rect class="cls-2" x="9.16" y="47.07" width="55.26" height="42.93" />
                <rect class="cls-3" y="42.09" width="65.24" height="4.25" />
                <rect class="cls-4" y="53.07" width="65.24" height="4.25" />
                <rect class="cls-5" y="64.06" width="65.24" height="4.25" />
                <rect class="cls-6" y="75.04" width="65.24" height="4.25" />
                <rect class="cls-7" y="86.02" width="65.24" height="4.25" />
                <rect class="cls-8" x="39.1" y="42.09" width="2.58" height="48.18" />
                <rect class="cls-9" y="90.27" width="150" height="6.6" />
                <rect class="cls-10" x="9.16" y="11.44" width="33.92" height="30.65" />
                <rect class="cls-11" x="91.48" y="42.09" width="58.52" height="26.21" />
                <rect class="cls-12" x="147.08" y="68.3" width="2.92" height="21.97" />
                <rect class="cls-13" x="91.48" y="68.3" width="2.92" height="21.97" />
                <rect class="cls-14" x="91.48" y="42.09" width="58.52" height="3.18" />
                <line class="cls-15" x1="61.39" y1="6.52" x2="127.65" y2="74.61" />
                <line class="cls-16" x1="31.61" y1="51" x2="121.42" y2="84.24" />
                <path class="cls-17"
                    d="M126.67,72.93a7.78,7.78,0,1,0,7.78,7.77A7.77,7.77,0,0,0,126.67,72.93Zm0,12.59a4.82,4.82,0,1,1,4.82-4.82A4.82,4.82,0,0,1,126.67,85.52Z" />
                <circle class="cls-18" cx="45.21" cy="27.7" r="25.2" />
                <circle class="cls-19" cx="45.21" cy="27.7" r="23.06" />
                <path class="cls-20"
                    d="M45.21,5.22A22.48,22.48,0,1,0,67.69,27.7,22.49,22.49,0,0,0,45.21,5.22Zm13.66,10.7a4.93,4.93,0,1,1-4.93,4.93A4.93,4.93,0,0,1,58.87,15.92ZM31.61,39.48a4.93,4.93,0,1,1,4.93-4.93A4.93,4.93,0,0,1,31.61,39.48Zm0-13.71a4.93,4.93,0,1,1,4.93-4.92A4.92,4.92,0,0,1,31.61,25.77ZM45.21,47a4.93,4.93,0,1,1,4.93-4.92A4.92,4.92,0,0,1,45.21,47Zm0-28.72a4.93,4.93,0,1,1,4.93-4.93A4.93,4.93,0,0,1,45.21,18.29ZM58.58,39.48a4.93,4.93,0,1,1,4.92-4.93A4.93,4.93,0,0,1,58.58,39.48Z" />
                <rect class="cls-21" x="22.82" y="26.3" width="44.77" height="2.81"
                    transform="translate(-3.93 47.61) rotate(-53.55)" />
                <rect class="cls-21" x="22.82" y="26.3" width="44.77" height="2.81"
                    transform="translate(49.16 80.57) rotate(-125.76)" />
                <circle class="cls-2" cx="45.21" cy="27.7" r="4.92" />
                
            </g>
        </g>
    </g>
</svg>