<svg xmlns="http://www.w3.org/2000/svg" xmlns:xlink="http://www.w3.org/1999/xlink" viewBox="0 0 150 76.93"><defs><style>.cls-1{fill:url(#未命名的渐变_105);}.cls-2{fill:url(#未命名的渐变_67);}.cls-3{fill:url(#未命名的渐变_67-2);}.cls-4{fill:url(#未命名的渐变_67-3);}.cls-5{fill:url(#未命名的渐变_67-4);}.cls-6{fill:url(#未命名的渐变_67-5);}.cls-7{fill:url(#未命名的渐变_67-6);}.cls-8{fill:url(#未命名的渐变_67-7);}.cls-9{fill:url(#未命名的渐变_67-8);}.cls-10{fill:url(#未命名的渐变_67-9);}.cls-11{fill:url(#未命名的渐变_67-10);}.cls-12{fill:url(#未命名的渐变_67-11);}.cls-13{fill:url(#未命名的渐变_105-2);}.cls-14{fill:url(#未命名的渐变_105-3);}.cls-15{fill:url(#未命名的渐变_74);}.cls-16{fill:url(#未命名的渐变_74-2);}.cls-17{fill:url(#未命名的渐变_105-4);}.cls-18{fill:url(#未命名的渐变_67-12);}.cls-19{fill:url(#未命名的渐变_67-13);}.cls-20{fill:url(#未命名的渐变_67-14);}.cls-21{fill:url(#未命名的渐变_67-15);}.cls-22{fill:url(#未命名的渐变_67-16);}.cls-23{fill:url(#未命名的渐变_67-17);}.cls-24{fill:url(#未命名的渐变_67-18);}.cls-25{fill:url(#未命名的渐变_67-19);}.cls-26{fill:url(#未命名的渐变_67-20);}.cls-27{fill:url(#未命名的渐变_67-21);}.cls-28{fill:url(#未命名的渐变_67-22);}.cls-29{fill:url(#未命名的渐变_105-5);}.cls-30{fill:url(#未命名的渐变_105-6);}.cls-31{fill:url(#未命名的渐变_74-3);}.cls-32{fill:url(#未命名的渐变_74-4);}.cls-33{fill:url(#未命名的渐变_105-7);}.cls-34{fill:url(#未命名的渐变_105-8);}.cls-35{fill:url(#未命名的渐变_105-9);}.cls-36,.cls-37{fill:#b9b8bc;}.cls-37{stroke:#565656;}.cls-37,.cls-84{stroke-miterlimit:10;}.cls-38,.cls-84{fill:#565656;}.cls-39{fill:url(#未命名的渐变_74-5);}.cls-40{fill:url(#未命名的渐变_105-10);}.cls-41{fill:url(#未命名的渐变_105-11);}.cls-42{fill:url(#未命名的渐变_105-12);}.cls-43{fill:url(#未命名的渐变_105-13);}.cls-44{fill:url(#未命名的渐变_105-14);}.cls-45{fill:url(#未命名的渐变_105-15);}.cls-46{fill:url(#未命名的渐变_105-16);}.cls-47{fill:url(#未命名的渐变_105-17);}.cls-48{fill:url(#未命名的渐变_105-18);}.cls-49{fill:url(#未命名的渐变_105-19);}.cls-50{fill:url(#未命名的渐变_105-20);}.cls-51{fill:url(#未命名的渐变_105-21);}.cls-52{fill:url(#未命名的渐变_105-22);}.cls-53{fill:url(#未命名的渐变_105-23);}.cls-54{fill:url(#未命名的渐变_105-24);}.cls-55{fill:url(#未命名的渐变_105-25);}.cls-56{fill:url(#未命名的渐变_105-26);}.cls-57{fill:url(#未命名的渐变_105-27);}.cls-58{fill:url(#未命名的渐变_105-28);}.cls-59{fill:url(#未命名的渐变_105-29);}.cls-60{fill:url(#未命名的渐变_105-30);}.cls-61{fill:url(#未命名的渐变_105-31);}.cls-62{fill:url(#未命名的渐变_105-32);}.cls-63{fill:url(#未命名的渐变_105-33);}.cls-64{fill:url(#未命名的渐变_105-34);}.cls-65{fill:url(#未命名的渐变_74-6);}.cls-66{fill:url(#未命名的渐变_74-7);}.cls-67{fill:url(#未命名的渐变_74-8);}.cls-68{fill:url(#未命名的渐变_74-9);}.cls-69{fill:url(#未命名的渐变_74-10);}.cls-70{fill:url(#未命名的渐变_74-11);}.cls-71{fill:url(#未命名的渐变_74-12);}.cls-72{fill:url(#未命名的渐变_74-13);}.cls-73{fill:url(#未命名的渐变_74-14);}.cls-74{fill:url(#未命名的渐变_74-15);}.cls-75{fill:url(#未命名的渐变_74-16);}.cls-76{fill:url(#未命名的渐变_105-35);}.cls-77{fill:url(#未命名的渐变_105-36);}.cls-78{fill:url(#未命名的渐变_105-37);}.cls-79{fill:url(#未命名的渐变_105-38);}.cls-80{fill:url(#未命名的渐变_105-39);}.cls-81{fill:url(#未命名的渐变_105-40);}.cls-82{fill:url(#未命名的渐变_105-41);}.cls-83{fill:url(#未命名的渐变_105-42);}.cls-84{stroke:#b9b8bc;stroke-width:0.5px;}</style><linearGradient id="未命名的渐变_105" x1="1173.45" y1="-1546.79" x2="1173.45" y2="-1559.4" gradientTransform="matrix(-1, 0, 0, 1, 1318.47, 1567.94)" gradientUnits="userSpaceOnUse"><stop offset="0" stop-color="#e2e2e2"/><stop offset="0.03" stop-color="#d0d0d0"/><stop offset="0.06" stop-color="#bcbcbc"/><stop offset="0.09" stop-color="#b5b5b5"/><stop offset="0.49" stop-color="#f6f6f6"/><stop offset="0.63" stop-color="#f3f3f3"/><stop offset="0.73" stop-color="#eaeaea"/><stop offset="0.82" stop-color="#dbdbdb"/><stop offset="0.9" stop-color="#c6c6c6"/><stop offset="0.97" stop-color="#aaa"/><stop offset="1" stop-color="#9b9b9b"/></linearGradient><linearGradient id="未命名的渐变_67" x1="162.24" y1="4.51" x2="149.64" y2="4.51" gradientTransform="matrix(0, 1, -1, 0, 146.47, -137.17)" gradientUnits="userSpaceOnUse"><stop offset="0" stop-color="#6b6b6b"/><stop offset="0.11" stop-color="#767676"/><stop offset="0.3" stop-color="#959595"/><stop offset="0.41" stop-color="#aaa"/><stop offset="0.56" stop-color="#ccc"/><stop offset="0.71" stop-color="#eaeaea"/><stop offset="0.8" stop-color="#f6f6f6"/><stop offset="0.83" stop-color="#ededed"/><stop offset="0.87" stop-color="#d4d4d4"/><stop offset="0.92" stop-color="#ababab"/><stop offset="0.98" stop-color="#737373"/><stop offset="0.99" stop-color="#666"/></linearGradient><linearGradient id="未命名的渐变_67-2" x1="150.72" y1="10.84" x2="150.07" y2="10.84" gradientTransform="matrix(0, 1, -1, 0, 146.45, -137.14)" xlink:href="#未命名的渐变_67"/><linearGradient id="未命名的渐变_67-3" x1="151.88" y1="10.84" x2="151.24" y2="10.84" gradientTransform="matrix(0, 1, -1, 0, 146.45, -137.14)" xlink:href="#未命名的渐变_67"/><linearGradient id="未命名的渐变_67-4" x1="153.05" y1="10.84" x2="152.4" y2="10.84" gradientTransform="matrix(0, 1, -1, 0, 146.46, -137.14)" xlink:href="#未命名的渐变_67"/><linearGradient id="未命名的渐变_67-5" x1="154.21" y1="10.83" x2="153.56" y2="10.83" gradientTransform="matrix(0, 1, -1, 0, 146.46, -137.14)" xlink:href="#未命名的渐变_67"/><linearGradient id="未命名的渐变_67-6" x1="155.37" y1="10.83" x2="154.73" y2="10.83" gradientTransform="translate(146.47 -137.14) rotate(90.03)" xlink:href="#未命名的渐变_67"/><linearGradient id="未命名的渐变_67-7" x1="156.54" y1="10.83" x2="155.89" y2="10.83" gradientTransform="translate(146.47 -137.15) rotate(90.03)" xlink:href="#未命名的渐变_67"/><linearGradient id="未命名的渐变_67-8" x1="157.7" y1="10.83" x2="157.05" y2="10.83" gradientTransform="matrix(0, 1, -1, 0, 146.48, -137.15)" xlink:href="#未命名的渐变_67"/><linearGradient id="未命名的渐变_67-9" x1="158.86" y1="10.83" x2="158.21" y2="10.83" gradientTransform="matrix(0, 1, -1, 0, 146.48, -137.15)" xlink:href="#未命名的渐变_67"/><linearGradient id="未命名的渐变_67-10" x1="160.02" y1="10.83" x2="159.38" y2="10.83" gradientTransform="translate(146.49 -137.15) rotate(90.03)" xlink:href="#未命名的渐变_67"/><linearGradient id="未命名的渐变_67-11" x1="161.27" y1="10.85" x2="160.62" y2="10.85" gradientTransform="matrix(0, 1, -1, 0, 146.49, -137.14)" xlink:href="#未命名的渐变_67"/><linearGradient id="未命名的渐变_105-2" x1="154.23" y1="13.15" x2="154.23" y2="12.22" gradientTransform="matrix(0.01, 1.75, -1, 0, 145.46, -257.98)" xlink:href="#未命名的渐变_105"/><linearGradient id="未命名的渐变_105-3" x1="154.66" y1="13.69" x2="154.66" y2="11.74" gradientTransform="matrix(0.01, 1.75, -1, 0, 145.46, -257.98)" xlink:href="#未命名的渐变_105"/><linearGradient id="未命名的渐变_74" x1="131.24" y1="17.09" x2="136.22" y2="17.09" gradientUnits="userSpaceOnUse"><stop offset="0" stop-color="#6b6b6b"/><stop offset="0.01" stop-color="#767676"/><stop offset="0.03" stop-color="#959595"/><stop offset="0.04" stop-color="#aaa"/><stop offset="0.37" stop-color="#ccc"/><stop offset="0.74" stop-color="#eaeaea"/><stop offset="0.94" stop-color="#f6f6f6"/><stop offset="0.95" stop-color="#ededed"/><stop offset="0.96" stop-color="#d4d4d4"/><stop offset="0.97" stop-color="#ababab"/><stop offset="0.99" stop-color="#737373"/><stop offset="0.99" stop-color="#666"/></linearGradient><linearGradient id="未命名的渐变_74-2" x1="135.45" y1="17.09" x2="132.01" y2="17.09" xlink:href="#未命名的渐变_74"/><linearGradient id="未命名的渐变_105-4" x1="1286.18" y1="-1546.76" x2="1286.18" y2="-1559.37" gradientTransform="translate(-1281.2 1567.94) rotate(0.19)" xlink:href="#未命名的渐变_105"/><linearGradient id="未命名的渐变_67-12" x1="162.28" y1="117.24" x2="149.68" y2="117.24" gradientTransform="matrix(-1, 0, 0, 1, 164.03, -98.13)" xlink:href="#未命名的渐变_67"/><linearGradient id="未命名的渐变_67-13" x1="150.75" y1="123.56" x2="150.11" y2="123.56" gradientTransform="matrix(-1, 0, 0, 1, 164.83, -109.98)" xlink:href="#未命名的渐变_67"/><linearGradient id="未命名的渐变_67-14" x1="151.92" y1="123.56" x2="151.27" y2="123.56" gradientTransform="matrix(-1, 0, 0, 1, 165.99, -108.81)" xlink:href="#未命名的渐变_67"/><linearGradient id="未命名的渐变_67-15" x1="153.08" y1="123.56" x2="152.43" y2="123.56" gradientTransform="matrix(-1, 0, 0, 1, 167.15, -107.65)" xlink:href="#未命名的渐变_67"/><linearGradient id="未命名的渐变_67-16" x1="154.24" y1="123.56" x2="153.6" y2="123.56" gradientTransform="matrix(-1, 0, 0, 1, 168.31, -106.49)" xlink:href="#未命名的渐变_67"/><linearGradient id="未命名的渐变_67-17" x1="155.41" y1="123.56" x2="154.76" y2="123.56" gradientTransform="matrix(-1, 0, 0, 1, 169.47, -105.33)" xlink:href="#未命名的渐变_67"/><linearGradient id="未命名的渐变_67-18" x1="156.57" y1="123.56" x2="155.92" y2="123.56" gradientTransform="matrix(-1, 0, 0, 1, 170.62, -104.16)" xlink:href="#未命名的渐变_67"/><linearGradient id="未命名的渐变_67-19" x1="157.73" y1="123.56" x2="157.09" y2="123.56" gradientTransform="matrix(-1, 0, 0, 1, 171.78, -103)" xlink:href="#未命名的渐变_67"/><linearGradient id="未命名的渐变_67-20" x1="158.9" y1="123.56" x2="158.25" y2="123.56" gradientTransform="matrix(-1, 0, 0, 1, 172.94, -101.84)" xlink:href="#未命名的渐变_67"/><linearGradient id="未命名的渐变_67-21" x1="160.06" y1="123.56" x2="159.41" y2="123.56" gradientTransform="matrix(-1, 0, 0, 1, 174.1, -100.67)" xlink:href="#未命名的渐变_67"/><linearGradient id="未命名的渐变_67-22" x1="161.3" y1="123.57" x2="160.66" y2="123.57" gradientTransform="matrix(-1, 0, 0, 1, 175.36, -99.44)" xlink:href="#未命名的渐变_67"/><linearGradient id="未命名的渐变_105-5" x1="154.25" y1="125.87" x2="154.25" y2="124.95" gradientTransform="matrix(-0.01, 1.75, 1, 0, -108.19, -257.98)" xlink:href="#未命名的渐变_105"/><linearGradient id="未命名的渐变_105-6" x1="154.68" y1="126.42" x2="154.68" y2="124.47" gradientTransform="matrix(-0.01, 1.75, 1, 0, -108.19, -257.98)" xlink:href="#未命名的渐变_105"/><linearGradient id="未命名的渐变_74-3" x1="30.3" y1="32.74" x2="31.4" y2="32.74" xlink:href="#未命名的渐变_74"/><linearGradient id="未命名的渐变_74-4" x1="30.7" y1="36.52" x2="30.7" y2="35.34" xlink:href="#未命名的渐变_74"/><linearGradient id="未命名的渐变_105-7" x1="72.05" y1="25.11" x2="72.05" y2="12.51" gradientTransform="matrix(1, 0, 0, 1, 0, 0)" xlink:href="#未命名的渐变_105"/><linearGradient id="未命名的渐变_105-8" x1="128.5" y1="23.09" x2="128.5" y2="14.22" gradientTransform="matrix(1, 0, 0, 1, 0, 0)" xlink:href="#未命名的渐变_105"/><linearGradient id="未命名的渐变_105-9" x1="15.77" y1="23.5" x2="15.77" y2="14.63" gradientTransform="matrix(1, 0, 0, -1, 5.73, 38.13)" xlink:href="#未命名的渐变_105"/><linearGradient id="未命名的渐变_74-5" x1="72.4" y1="44.72" x2="72.4" y2="36.52" xlink:href="#未命名的渐变_74"/><linearGradient id="未命名的渐变_105-10" x1="106.17" y1="27.07" x2="106.17" y2="10.96" gradientTransform="matrix(1, 0, 0, 1, 0, 0)" xlink:href="#未命名的渐变_105"/><linearGradient id="未命名的渐变_105-11" x1="125.87" y1="25.11" x2="125.87" y2="12.51" gradientTransform="matrix(1, 0, 0, 1, 0, 0)" xlink:href="#未命名的渐变_105"/><linearGradient id="未命名的渐变_105-12" x1="109.15" y1="28.83" x2="109.15" y2="9.2" gradientTransform="matrix(1, 0, 0, 1, 0, 0)" xlink:href="#未命名的渐变_105"/><linearGradient id="未命名的渐变_105-13" x1="110.18" y1="28.83" x2="110.18" y2="9.2" gradientTransform="matrix(1, 0, 0, 1, 0, 0)" xlink:href="#未命名的渐变_105"/><linearGradient id="未命名的渐变_105-14" x1="116.41" y1="28.83" x2="116.41" y2="9.2" gradientTransform="matrix(1, 0, 0, 1, 0, 0)" xlink:href="#未命名的渐变_105"/><linearGradient id="未命名的渐变_105-15" x1="110.18" y1="9.98" x2="110.18" y2="9.2" gradientTransform="matrix(1, 0, 0, 1, 0, 0)" xlink:href="#未命名的渐变_105"/><linearGradient id="未命名的渐变_105-16" x1="110.18" y1="11.52" x2="110.18" y2="10.74" gradientTransform="matrix(1, 0, 0, 1, 0, 0)" xlink:href="#未命名的渐变_105"/><linearGradient id="未命名的渐变_105-17" x1="110.18" y1="13.06" x2="110.18" y2="12.29" gradientTransform="matrix(1, 0, 0, 1, 0, 0)" xlink:href="#未命名的渐变_105"/><linearGradient id="未命名的渐变_105-18" x1="110.18" y1="14.6" x2="110.18" y2="13.83" gradientTransform="matrix(1, 0, 0, 1, 0, 0)" xlink:href="#未命名的渐变_105"/><linearGradient id="未命名的渐变_105-19" x1="110.18" y1="16.15" x2="110.18" y2="15.37" gradientTransform="matrix(1, 0, 0, 1, 0, 0)" xlink:href="#未命名的渐变_105"/><linearGradient id="未命名的渐变_105-20" x1="110.18" y1="17.69" x2="110.18" y2="16.91" gradientTransform="matrix(1, 0, 0, 1, 0, 0)" xlink:href="#未命名的渐变_105"/><linearGradient id="未命名的渐变_105-21" x1="110.18" y1="19.23" x2="110.18" y2="18.46" gradientTransform="matrix(1, 0, 0, 1, 0, 0)" xlink:href="#未命名的渐变_105"/><linearGradient id="未命名的渐变_105-22" x1="110.18" y1="20.77" x2="110.18" y2="20" gradientTransform="matrix(1, 0, 0, 1, 0, 0)" xlink:href="#未命名的渐变_105"/><linearGradient id="未命名的渐变_105-23" x1="110.18" y1="22.32" x2="110.18" y2="21.54" gradientTransform="matrix(1, 0, 0, 1, 0, 0)" xlink:href="#未命名的渐变_105"/><linearGradient id="未命名的渐变_105-24" x1="110.18" y1="23.86" x2="110.18" y2="23.09" gradientTransform="matrix(1, 0, 0, 1, 0, 0)" xlink:href="#未命名的渐变_105"/><linearGradient id="未命名的渐变_105-25" x1="110.18" y1="25.4" x2="110.18" y2="24.63" gradientTransform="matrix(1, 0, 0, 1, 0, 0)" xlink:href="#未命名的渐变_105"/><linearGradient id="未命名的渐变_105-26" x1="110.18" y1="26.95" x2="110.18" y2="26.17" gradientTransform="matrix(1, 0, 0, 1, 0, 0)" xlink:href="#未命名的渐变_105"/><linearGradient id="未命名的渐变_105-27" x1="110.18" y1="28.49" x2="110.18" y2="27.71" gradientTransform="matrix(1, 0, 0, 1, 0, 0)" xlink:href="#未命名的渐变_105"/><linearGradient id="未命名的渐变_105-28" x1="122.52" y1="13.78" x2="122.52" y2="12.93" gradientTransform="matrix(1, 0, 0, 1, 0, 0)" xlink:href="#未命名的渐变_105"/><linearGradient id="未命名的渐变_105-29" x1="122.52" y1="15.59" x2="122.52" y2="14.74" gradientTransform="matrix(1, 0, 0, 1, 0, 0)" xlink:href="#未命名的渐变_105"/><linearGradient id="未命名的渐变_105-30" x1="122.53" y1="17.39" x2="122.53" y2="16.55" gradientTransform="matrix(1, 0, 0, 1, 0, 0)" xlink:href="#未命名的渐变_105"/><linearGradient id="未命名的渐变_105-31" x1="122.53" y1="19.2" x2="122.53" y2="18.36" gradientTransform="matrix(1, 0, 0, 1, 0, 0)" xlink:href="#未命名的渐变_105"/><linearGradient id="未命名的渐变_105-32" x1="122.53" y1="21.01" x2="122.53" y2="20.16" gradientTransform="matrix(1, 0, 0, 1, 0, 0)" xlink:href="#未命名的渐变_105"/><linearGradient id="未命名的渐变_105-33" x1="122.53" y1="22.81" x2="122.53" y2="21.97" gradientTransform="matrix(1, 0, 0, 1, 0, 0)" xlink:href="#未命名的渐变_105"/><linearGradient id="未命名的渐变_105-34" x1="122.54" y1="24.62" x2="122.54" y2="23.78" gradientTransform="matrix(1, 0, 0, 1, 0, 0)" xlink:href="#未命名的渐变_105"/><linearGradient id="未命名的渐变_74-6" x1="113.3" y1="18.91" x2="108.67" y2="18.91" xlink:href="#未命名的渐变_74"/><linearGradient id="未命名的渐变_74-7" x1="111.54" y1="28.26" x2="110.18" y2="28.26" xlink:href="#未命名的渐变_74"/><linearGradient id="未命名的渐变_74-8" x1="113.88" y1="35.98" x2="108.09" y2="35.98" xlink:href="#未命名的渐变_74"/><linearGradient id="未命名的渐变_74-9" x1="118.81" y1="32.67" x2="117.04" y2="32.67" xlink:href="#未命名的渐变_74"/><linearGradient id="未命名的渐变_74-10" x1="100.34" y1="76.93" x2="100.34" y2="44.72" xlink:href="#未命名的渐变_74"/><linearGradient id="未命名的渐变_74-11" x1="130.21" y1="76.93" x2="130.21" y2="44.72" xlink:href="#未命名的渐变_74"/><linearGradient id="未命名的渐变_74-12" x1="115.23" y1="76.93" x2="115.23" y2="71.93" xlink:href="#未命名的渐变_74"/><linearGradient id="未命名的渐变_74-13" x1="14.63" y1="76.93" x2="14.63" y2="44.72" xlink:href="#未命名的渐变_74"/><linearGradient id="未命名的渐变_74-14" x1="44.5" y1="76.93" x2="44.5" y2="44.72" xlink:href="#未命名的渐变_74"/><linearGradient id="未命名的渐变_74-15" x1="29.52" y1="76.93" x2="29.52" y2="71.93" xlink:href="#未命名的渐变_74"/><linearGradient id="未命名的渐变_74-16" x1="30.72" y1="28.49" x2="30.72" y2="9.2" xlink:href="#未命名的渐变_74"/><linearGradient id="未命名的渐变_105-35" x1="30.72" y1="10.95" x2="30.72" y2="9.2" gradientTransform="matrix(1, 0, 0, 1, 0, 0)" xlink:href="#未命名的渐变_105"/><linearGradient id="未命名的渐变_105-36" x1="30.72" y1="13.95" x2="30.72" y2="12.2" gradientTransform="matrix(1, 0, 0, 1, 0, 0)" xlink:href="#未命名的渐变_105"/><linearGradient id="未命名的渐变_105-37" x1="30.72" y1="16.95" x2="30.72" y2="15.2" gradientTransform="matrix(1, 0, 0, 1, 0, 0)" xlink:href="#未命名的渐变_105"/><linearGradient id="未命名的渐变_105-38" x1="30.72" y1="19.95" x2="30.72" y2="18.2" gradientTransform="matrix(1, 0, 0, 1, 0, 0)" xlink:href="#未命名的渐变_105"/><linearGradient id="未命名的渐变_105-39" x1="30.72" y1="22.95" x2="30.72" y2="21.2" gradientTransform="matrix(1, 0, 0, 1, 0, 0)" xlink:href="#未命名的渐变_105"/><linearGradient id="未命名的渐变_105-40" x1="30.72" y1="25.95" x2="30.72" y2="24.21" gradientTransform="matrix(1, 0, 0, 1, 0, 0)" xlink:href="#未命名的渐变_105"/><linearGradient id="未命名的渐变_105-41" x1="30.72" y1="28.95" x2="30.72" y2="27.21" gradientTransform="matrix(1, 0, 0, 1, 0, 0)" xlink:href="#未命名的渐变_105"/><linearGradient id="未命名的渐变_105-42" x1="22.6" y1="24.21" x2="22.6" y2="13.83" gradientTransform="matrix(1, 0, 0, 1, 0, 0)" xlink:href="#未命名的渐变_105"/></defs><title>Shredder(碎纸机)</title><g id="图层_2" data-name="图层 2"><g id="图层_55" data-name="图层 55"><g id="Shredder_碎纸机_" data-name="Shredder(碎纸机)"><path class="cls-1" d="M129.64,25.11,148,25.05s2-.18,2-6.39c0-4.58-2-6.21-2-6.21l-18.37.06Z"/><rect class="cls-2" x="141.51" y="12.47" width="0.76" height="12.6" transform="translate(-0.07 0.55) rotate(-0.22)"/><rect class="cls-3" x="129.59" y="12.93" width="11.89" height="0.64" transform="translate(-0.05 0.52) rotate(-0.22)"/><rect class="cls-4" x="129.6" y="14.09" width="11.89" height="0.64" transform="translate(-0.05 0.52) rotate(-0.22)"/><rect class="cls-5" x="129.6" y="15.25" width="11.89" height="0.64" transform="translate(-0.06 0.52) rotate(-0.22)"/><rect class="cls-6" x="129.61" y="16.42" width="11.89" height="0.64" transform="translate(-0.06 0.52) rotate(-0.22)"/><rect class="cls-7" x="129.61" y="17.58" width="11.89" height="0.64" transform="translate(-0.07 0.52) rotate(-0.22)"/><rect class="cls-8" x="129.62" y="18.74" width="11.89" height="0.64" transform="translate(-0.07 0.52) rotate(-0.22)"/><rect class="cls-9" x="129.62" y="19.9" width="11.89" height="0.64" transform="translate(-0.08 0.52) rotate(-0.22)"/><rect class="cls-10" x="129.62" y="21.07" width="11.89" height="0.64" transform="translate(-0.08 0.52) rotate(-0.22)"/><rect class="cls-11" x="129.63" y="22.23" width="11.89" height="0.64" transform="translate(-0.09 0.52) rotate(-0.22)"/><rect class="cls-12" x="129.62" y="23.48" width="11.89" height="0.64" transform="translate(-0.09 0.52) rotate(-0.22)"/><polygon class="cls-13" points="133.21 11.69 133.21 10.98 134.13 10.98 134.13 11.69 133.21 11.69"/><polygon class="cls-14" points="132.67 12.5 132.67 11.69 134.62 11.69 134.62 12.5 132.67 12.5"/><rect class="cls-15" x="131.24" y="14.6" width="4.98" height="4.98"/><rect class="cls-16" x="132.01" y="15.37" width="3.45" height="3.45"/><path class="cls-17" d="M20.36,25.52,2,25.47s-2-.19-2-6.4c0-4.58,2-6.2,2-6.2l18.37.05Z"/><rect class="cls-18" x="1.81" y="18.81" width="12.6" height="0.76" transform="translate(-11.1 27.23) rotate(-89.78)"/><rect class="cls-19" x="14.14" y="7.71" width="0.64" height="11.89" transform="translate(0.74 28.07) rotate(-89.78)"/><rect class="cls-20" x="14.14" y="8.88" width="0.64" height="11.89" transform="translate(-0.42 29.22) rotate(-89.78)"/><rect class="cls-21" x="14.13" y="10.04" width="0.64" height="11.89" transform="translate(-1.59 30.38) rotate(-89.78)"/><rect class="cls-22" x="14.13" y="11.2" width="0.64" height="11.89" transform="translate(-2.76 31.53) rotate(-89.78)"/><rect class="cls-23" x="14.12" y="12.37" width="0.64" height="11.89" transform="translate(-3.92 32.68) rotate(-89.78)"/><rect class="cls-24" x="14.12" y="13.53" width="0.64" height="11.89" transform="translate(-5.09 33.84) rotate(-89.78)"/><rect class="cls-25" x="14.11" y="14.69" width="0.64" height="11.89" transform="translate(-6.26 34.99) rotate(-89.78)"/><rect class="cls-26" x="14.11" y="15.85" width="0.64" height="11.89" transform="translate(-7.43 36.15) rotate(-89.78)"/><rect class="cls-27" x="14.1" y="17.02" width="0.64" height="11.89" transform="translate(-8.59 37.3) rotate(-89.78)"/><rect class="cls-28" x="14.11" y="18.26" width="0.64" height="11.89" transform="translate(-9.83 38.55) rotate(-89.78)"/><polygon class="cls-29" points="16.79 12.11 16.79 11.39 15.87 11.39 15.87 12.1 16.79 12.11"/><polygon class="cls-30" points="17.33 12.91 17.33 12.11 15.38 12.1 15.38 12.91 17.33 12.91"/><rect class="cls-31" x="30.3" y="28.95" width="1.1" height="7.57"/><rect class="cls-32" x="25.61" y="35.34" width="10.19" height="1.18"/><path class="cls-33" d="M120.84,25.11H25.23l-1-2.26a10,10,0,0,1,.31-9l.73-1.32h95.61Z"/><rect class="cls-34" x="127.4" y="14.22" width="2.19" height="8.87"/><rect class="cls-35" x="20.41" y="14.63" width="2.19" height="8.87" transform="translate(43.01 38.13) rotate(180)"/><rect class="cls-36" x="37.67" width="64.56" height="36.52"/><rect class="cls-37" x="42.56" y="4.23" width="54.78" height="28.07"/><circle class="cls-38" cx="49.46" cy="9.98" r="1.44"/><circle class="cls-38" cx="49.46" cy="15.5" r="1.44"/><circle class="cls-38" cx="49.46" cy="21.02" r="1.44"/><circle class="cls-38" cx="49.46" cy="26.54" r="1.44"/><circle class="cls-38" cx="56.29" cy="9.98" r="1.44"/><circle class="cls-38" cx="56.29" cy="15.5" r="1.44"/><circle class="cls-38" cx="56.29" cy="21.02" r="1.44"/><circle class="cls-38" cx="56.29" cy="26.54" r="1.44"/><circle class="cls-38" cx="63.12" cy="9.98" r="1.44"/><circle class="cls-38" cx="63.12" cy="15.5" r="1.44"/><circle class="cls-38" cx="63.12" cy="21.02" r="1.44"/><circle class="cls-38" cx="63.12" cy="26.54" r="1.44"/><circle class="cls-38" cx="69.95" cy="9.98" r="1.44"/><circle class="cls-38" cx="69.95" cy="15.5" r="1.44"/><circle class="cls-38" cx="69.95" cy="21.02" r="1.44"/><circle class="cls-38" cx="69.95" cy="26.54" r="1.44"/><circle class="cls-38" cx="76.78" cy="9.98" r="1.44"/><circle class="cls-38" cx="76.78" cy="15.5" r="1.44"/><circle class="cls-38" cx="76.78" cy="21.02" r="1.44"/><circle class="cls-38" cx="76.78" cy="26.54" r="1.44"/><circle class="cls-38" cx="83.61" cy="9.98" r="1.44"/><circle class="cls-38" cx="83.61" cy="15.5" r="1.44"/><circle class="cls-38" cx="83.61" cy="21.02" r="1.44"/><circle class="cls-38" cx="83.61" cy="26.54" r="1.44"/><circle class="cls-38" cx="90.44" cy="9.98" r="1.44"/><circle class="cls-38" cx="90.44" cy="15.5" r="1.44"/><circle class="cls-38" cx="90.44" cy="21.02" r="1.44"/><circle class="cls-38" cx="90.44" cy="26.54" r="1.44"/><rect class="cls-39" x="11.6" y="36.52" width="121.61" height="8.2"/><rect class="cls-40" x="104.52" y="10.96" width="3.3" height="16.1"/><rect class="cls-41" x="124.22" y="12.51" width="3.3" height="12.6"/><rect class="cls-42" x="107.5" y="9.2" width="3.3" height="19.63"/><rect class="cls-43" x="107.06" y="9.2" width="6.23" height="19.63"/><rect class="cls-44" x="113.3" y="9.2" width="6.23" height="19.63"/><rect class="cls-45" x="107.06" y="9.2" width="6.23" height="0.78"/><rect class="cls-46" x="107.06" y="10.74" width="6.23" height="0.78"/><rect class="cls-47" x="107.06" y="12.29" width="6.23" height="0.78"/><rect class="cls-48" x="107.06" y="13.83" width="6.23" height="0.78"/><rect class="cls-49" x="107.06" y="15.37" width="6.23" height="0.78"/><rect class="cls-50" x="107.06" y="16.91" width="6.23" height="0.78"/><rect class="cls-51" x="107.06" y="18.46" width="6.23" height="0.78"/><rect class="cls-52" x="107.06" y="20" width="6.23" height="0.78"/><rect class="cls-53" x="107.06" y="21.54" width="6.23" height="0.78"/><rect class="cls-54" x="107.06" y="23.09" width="6.23" height="0.78"/><rect class="cls-55" x="107.06" y="24.63" width="6.23" height="0.78"/><rect class="cls-56" x="107.06" y="26.17" width="6.23" height="0.78"/><rect class="cls-57" x="107.06" y="27.71" width="6.23" height="0.78"/><rect class="cls-58" x="120.83" y="12.93" width="3.38" height="0.85"/><rect class="cls-59" x="120.84" y="14.74" width="3.38" height="0.85"/><rect class="cls-60" x="120.84" y="16.55" width="3.38" height="0.85"/><rect class="cls-61" x="120.84" y="18.36" width="3.38" height="0.85"/><rect class="cls-62" x="120.84" y="20.16" width="3.38" height="0.85"/><rect class="cls-63" x="120.85" y="21.97" width="3.38" height="0.85"/><rect class="cls-64" x="120.85" y="23.78" width="3.38" height="0.85"/><rect class="cls-65" x="108.67" y="17.82" width="4.63" height="2.18"/><rect class="cls-66" x="110.18" y="20" width="1.36" height="16.52"/><rect class="cls-67" x="108.09" y="35.43" width="5.79" height="1.1"/><rect class="cls-68" x="117.04" y="28.83" width="1.78" height="7.69"/><rect class="cls-69" x="97.34" y="44.72" width="6" height="32.21"/><rect class="cls-70" x="127.21" y="44.72" width="6" height="32.21"/><rect class="cls-71" x="97.25" y="71.93" width="35.95" height="4.99"/><rect class="cls-72" x="11.63" y="44.72" width="6" height="32.21"/><rect class="cls-73" x="41.5" y="44.72" width="6" height="32.21"/><rect class="cls-74" x="11.54" y="71.93" width="35.95" height="4.99"/><rect class="cls-75" x="26.75" y="9.2" width="7.95" height="19.29"/><rect class="cls-76" x="26.75" y="9.2" width="7.95" height="1.75"/><rect class="cls-77" x="26.75" y="12.2" width="7.95" height="1.75"/><rect class="cls-78" x="26.75" y="15.2" width="7.95" height="1.75"/><rect class="cls-79" x="26.75" y="18.2" width="7.95" height="1.75"/><rect class="cls-80" x="26.75" y="21.2" width="7.95" height="1.75"/><rect class="cls-81" x="26.75" y="24.21" width="7.95" height="1.75"/><rect class="cls-82" x="26.75" y="27.21" width="7.95" height="1.75"/><rect class="cls-83" x="21.93" y="13.83" width="1.33" height="10.38"/><circle class="cls-84" cx="116.41" cy="19.01" r="1.19"/></g></g></g></svg>