<svg xmlns="http://www.w3.org/2000/svg" xmlns:xlink="http://www.w3.org/1999/xlink" viewBox="0 0 147.38 150.07"><defs><style>.cls-1{fill:url(#未命名的渐变_74);}.cls-2{fill:url(#未命名的渐变_74-2);}.cls-3{fill:url(#未命名的渐变_74-3);}.cls-4{fill:url(#未命名的渐变_74-4);}.cls-5{fill:url(#未命名的渐变_74-5);}.cls-6{fill:url(#未命名的渐变_74-6);}.cls-7{fill:url(#未命名的渐变_74-7);}.cls-8{fill:url(#未命名的渐变_74-8);}.cls-9{fill:url(#未命名的渐变_74-9);}.cls-10{fill:url(#未命名的渐变_74-10);}.cls-11{fill:#666;stroke:#565656;stroke-miterlimit:10;stroke-width:0.5px;}.cls-12{fill:url(#未命名的渐变_74-11);}.cls-13{fill:url(#未命名的渐变_74-12);}.cls-14{opacity:0.2;}</style><linearGradient id="未命名的渐变_74" x1="10.71" y1="134.68" x2="48.92" y2="134.68" gradientUnits="userSpaceOnUse"><stop offset="0" stop-color="#6b6b6b"/><stop offset="0.01" stop-color="#767676"/><stop offset="0.03" stop-color="#959595"/><stop offset="0.04" stop-color="#aaa"/><stop offset="0.37" stop-color="#ccc"/><stop offset="0.74" stop-color="#eaeaea"/><stop offset="0.94" stop-color="#f6f6f6"/><stop offset="0.95" stop-color="#ededed"/><stop offset="0.96" stop-color="#d4d4d4"/><stop offset="0.97" stop-color="#ababab"/><stop offset="0.99" stop-color="#737373"/><stop offset="0.99" stop-color="#666"/></linearGradient><linearGradient id="未命名的渐变_74-2" x1="142.33" y1="-2.81" x2="57.65" y2="143.86" xlink:href="#未命名的渐变_74"/><linearGradient id="未命名的渐变_74-3" x1="29.82" y1="96.25" x2="29.82" y2="87.32" xlink:href="#未命名的渐变_74"/><linearGradient id="未命名的渐变_74-4" x1="0" y1="145.61" x2="107.95" y2="145.61" xlink:href="#未命名的渐变_74"/><linearGradient id="未命名的渐变_74-5" x1="0" y1="118.69" x2="10.71" y2="118.69" xlink:href="#未命名的渐变_74"/><linearGradient id="未命名的渐变_74-6" x1="48.92" y1="118.69" x2="59.64" y2="118.69" xlink:href="#未命名的渐变_74"/><linearGradient id="未命名的渐变_74-7" x1="29.82" y1="87.32" x2="29.82" y2="62.68" xlink:href="#未命名的渐变_74"/><linearGradient id="未命名的渐变_74-8" x1="29.5" y1="103.74" x2="29.5" y2="96.25" xlink:href="#未命名的渐变_74"/><linearGradient id="未命名的渐变_74-9" x1="30.27" y1="107.72" x2="30.27" y2="103.74" xlink:href="#未命名的渐变_74"/><linearGradient id="未命名的渐变_74-10" x1="18.12" y1="121.86" x2="42.43" y2="121.86" xlink:href="#未命名的渐变_74"/><linearGradient id="未命名的渐变_74-11" x1="102.48" y1="109.33" x2="107.95" y2="109.33" xlink:href="#未命名的渐变_74"/><linearGradient id="未命名的渐变_74-12" x1="129.83" y1="14.35" x2="147.38" y2="14.35" xlink:href="#未命名的渐变_74"/></defs><title>Spiral conveyor with hopper(带料斗的螺旋输送机)</title><g id="图层_2" data-name="图层 2"><g id="图层_55" data-name="图层 55"><g id="Spiral_conveyor_with_hopper_带料斗的螺旋输送机_" data-name="Spiral conveyor with hopper(带料斗的螺旋输送机)"><rect class="cls-1" x="10.71" y="131.37" width="38.21" height="6.63"/><polygon class="cls-2" points="77.91 140.94 52.59 140.94 122.07 0.11 147.38 0.11 77.91 140.94"/><rect class="cls-3" y="87.32" width="59.64" height="8.93"/><rect class="cls-4" y="141.14" width="107.95" height="8.93"/><rect class="cls-5" y="87.32" width="10.71" height="62.75"/><rect class="cls-6" x="48.92" y="87.32" width="10.71" height="62.75"/><polygon class="cls-7" points="48.92 87.32 10.71 87.32 0 62.68 59.64 62.68 48.92 87.32"/><rect class="cls-8" x="19.44" y="96.25" width="20.11" height="7.49"/><rect class="cls-9" x="14.36" y="103.74" width="31.82" height="3.98"/><rect class="cls-10" x="18.12" y="107.72" width="24.31" height="28.29"/><line class="cls-11" x1="134.02" y1="0.11" x2="63.29" y2="140.94"/><rect class="cls-12" x="102.48" y="68.59" width="5.48" height="81.48"/><polygon class="cls-13" points="147.38 28.58 137.46 28.58 129.83 0.11 147.38 0.11 147.38 28.58"/><g class="cls-14"><path d="M14.56,108.53c-.18.37-.39.79-.65,1.26s-.54.94-.84,1.43-.6,1-.9,1.43-.59.88-.85,1.25L9,112.78c.27-.36.56-.77.87-1.21s.6-.91.89-1.37.55-.91.79-1.35.44-.84.59-1.19Zm4-1.84v4.11A3.84,3.84,0,0,1,18.4,112a1.65,1.65,0,0,1-.44.72,2.42,2.42,0,0,1-.81.46c-.33.11-.73.23-1.21.34l-1.17.29-.83-2.59.89-.22a2.69,2.69,0,0,0,.73-.27.65.65,0,0,0,.2-.55v-3.11l-5.6.74.59-7.74,2-.28,2.11-.35L17,99,19,98.63l1.87-.41c.59-.14,1.11-.27,1.56-.4l.56,2.63-2.08.48c-.76.17-1.57.34-2.41.5l-2.6.49-2.58.46-.18,2.54,2.59-.34v-2.21l2.78-.3v2.14l4.93-.64V106Zm2.72-.23c.17.19.39.46.65.78s.54.69.83,1.08.58.79.86,1.21.54.8.77,1.17L22,112.53c-.19-.36-.4-.74-.65-1.16s-.51-.83-.79-1.23L19.76,109c-.27-.36-.51-.66-.73-.9Z"/><path d="M40.08,101.64v2.21l-14.64,1.93v-2.21l3.27-.44.25-1-2.4.31v-1.88l2.85-.38.21-.87-3.4.45v-2.2L39.3,95.87v2.19L32.45,99l-.21.87,6-.79-.15,2.85ZM26.89,106.3l11.75-1.54v5.63l-11.75,1.54Zm2.59,3.1,6.44-.85v-1.29l-6.44.85Zm2.08-6.64,3.87-.51.07-1-3.71.49Z"/><path d="M46.77,104.29c-.17.37-.39.79-.65,1.26s-.54.94-.84,1.43-.6,1-.9,1.43-.59.88-.85,1.25l-2.34-1.12c.27-.36.56-.77.87-1.22s.61-.9.9-1.36.55-.91.78-1.36.44-.83.59-1.18Zm4-1.84v4.11a4.18,4.18,0,0,1-.14,1.18,1.58,1.58,0,0,1-.45.72,2.37,2.37,0,0,1-.8.46c-.34.11-.74.23-1.22.34l-1.17.29L46.15,107l.9-.22a2.59,2.59,0,0,0,.72-.27.63.63,0,0,0,.2-.55v-3.11l-5.59.74L43,95.81c.62-.08,1.28-.18,2-.29s1.4-.22,2.11-.34l2.14-.39,2.06-.4L53.12,94c.58-.14,1.1-.27,1.56-.4l.55,2.63-2.07.48c-.77.17-1.57.34-2.42.5l-2.6.49-2.57.45-.18,2.55,2.58-.34V98.13l2.79-.3V100l4.93-.65v2.48Zm2.71-.23c.18.19.39.45.65.78s.54.69.83,1.08.58.79.87,1.21.53.8.76,1.17l-2.36,1.83c-.18-.36-.4-.75-.65-1.16s-.51-.83-.79-1.23-.55-.79-.81-1.15-.51-.66-.73-.9Z"/></g></g></g></g></svg>