<svg xmlns="http://www.w3.org/2000/svg" xmlns:xlink="http://www.w3.org/1999/xlink" viewBox="0 0 150 110.26">
    <defs>
        <style>
            .cls-1 {
                fill: url(#未命名的渐变_105);
            }

            .cls-2 {
                fill: url(#未命名的渐变_105-2);
            }

            .cls-3 {
                fill: url(#未命名的渐变_67);
            }

            .cls-4 {
                fill: url(#未命名的渐变_67-2);
            }

            .cls-5 {
                fill: url(#未命名的渐变_67-3);
            }

            .cls-6 {
                fill: url(#未命名的渐变_67-4);
            }

            .cls-7 {
                fill: url(#未命名的渐变_67-5);
            }

            .cls-8 {
                fill: url(#未命名的渐变_67-6);
            }

            .cls-9 {
                fill: url(#未命名的渐变_67-7);
            }

            .cls-10 {
                fill: url(#未命名的渐变_67-8);
            }

            .cls-11 {
                fill: url(#未命名的渐变_67-9);
            }

            .cls-12 {
                fill: url(#未命名的渐变_67-10);
            }

            .cls-13 {
                fill: url(#未命名的渐变_67-11);
            }

            .cls-14 {
                fill: url(#未命名的渐变_67-12);
            }

            .cls-15 {
                fill: url(#未命名的渐变_105-3);
            }

            .cls-16 {
                fill: url(#未命名的渐变_67-13);
            }

            .cls-17 {
                fill: #7f8895;
            }

            .cls-18 {
                fill: url(#未命名的渐变_105-4);
            }

            .cls-19 {
                fill: url(#未命名的渐变_67-14);
            }

            .cls-20 {
                fill: url(#未命名的渐变_105-5);
            }

            .cls-21 {
                fill: url(#未命名的渐变_105-6);
            }

            .cls-22 {
                fill: url(#未命名的渐变_105-7);
            }

            .cls-23 {
                fill: url(#未命名的渐变_105-8);
            }

            .cls-24 {
                fill: url(#未命名的渐变_105-9);
            }

            .cls-25 {
                fill: url(#未命名的渐变_105-10);
            }

            .cls-26 {
                fill: url(#未命名的渐变_105-11);
            }

            .cls-27 {
                fill: url(#未命名的渐变_105-12);
            }

            .cls-28 {
                fill: url(#未命名的渐变_105-13);
            }

            .cls-29 {
                fill: url(#未命名的渐变_67-15);
            }

            .cls-30 {
                fill: url(#未命名的渐变_67-16);
            }

            .cls-31 {
                fill: url(#未命名的渐变_67-17);
            }

            .cls-32 {
                fill: url(#未命名的渐变_67-18);
            }

            .cls-33 {
                fill: url(#未命名的渐变_67-19);
            }

            .cls-34 {
                fill: url(#未命名的渐变_67-20);
            }

            .cls-35 {
                fill: url(#未命名的渐变_67-21);
            }

            .cls-36 {
                fill: url(#未命名的渐变_67-22);
            }

            .cls-37 {
                fill: url(#未命名的渐变_67-23);
            }

            .cls-38 {
                fill: url(#未命名的渐变_67-24);
            }

            .cls-39 {
                fill: url(#未命名的渐变_67-25);
            }

            .cls-40 {
                opacity: 0.2;
            }
        </style>
        <linearGradient id="未命名的渐变_105" x1="49.93" y1="25.14" x2="49.93" y2="9.57" gradientUnits="userSpaceOnUse">
            <stop offset="0" stop-color="#e2e2e2" />
            <stop offset="0.03" stop-color="#d0d0d0" />
            <stop offset="0.06" stop-color="#bcbcbc" />
            <stop offset="0.09" stop-color="#b5b5b5" />
            <stop offset="0.49" stop-color="#f6f6f6" />
            <stop offset="0.63" stop-color="#f3f3f3" />
            <stop offset="0.73" stop-color="#eaeaea" />
            <stop offset="0.82" stop-color="#dbdbdb" />
            <stop offset="0.9" stop-color="#c6c6c6" />
            <stop offset="0.97" stop-color="#aaa" />
            <stop offset="1" stop-color="#9b9b9b" />
        </linearGradient>
        <linearGradient id="未命名的渐变_105-2" x1="-185.86" y1="-245.01" x2="-185.86" y2="-267.38"
            gradientTransform="matrix(-1, 0, 0, 1, -112.12, 273.74)" xlink:href="#未命名的渐变_105" />
        <linearGradient id="未命名的渐变_67" x1="57.92" y1="39.78" x2="35.55" y2="39.78"
            gradientTransform="translate(40.59 -22.24)" gradientUnits="userSpaceOnUse">
            <stop offset="0" stop-color="#6b6b6b" />
            <stop offset="0.11" stop-color="#767676" />
            <stop offset="0.3" stop-color="#959595" />
            <stop offset="0.41" stop-color="#aaa" />
            <stop offset="0.56" stop-color="#ccc" />
            <stop offset="0.71" stop-color="#eaeaea" />
            <stop offset="0.8" stop-color="#f6f6f6" />
            <stop offset="0.83" stop-color="#ededed" />
            <stop offset="0.87" stop-color="#d4d4d4" />
            <stop offset="0.92" stop-color="#ababab" />
            <stop offset="0.98" stop-color="#737373" />
            <stop offset="0.99" stop-color="#666" />
        </linearGradient>
        <linearGradient id="未命名的渐变_67-2" x1="57.92" y1="49.74" x2="35.55" y2="49.74"
            gradientTransform="translate(30.62 -32.2)" xlink:href="#未命名的渐变_67" />
        <linearGradient id="未命名的渐变_67-3" x1="37.47" y1="60.75" x2="36.33" y2="60.75"
            gradientTransform="translate(29.45 -53.05)" xlink:href="#未命名的渐变_67" />
        <linearGradient id="未命名的渐变_67-4" x1="39.53" y1="60.75" x2="38.39" y2="60.75"
            gradientTransform="translate(27.39 -50.99)" xlink:href="#未命名的渐变_67" />
        <linearGradient id="未命名的渐变_67-5" x1="41.6" y1="60.75" x2="40.46" y2="60.75"
            gradientTransform="translate(25.32 -48.92)" xlink:href="#未命名的渐变_67" />
        <linearGradient id="未命名的渐变_67-6" x1="43.66" y1="60.75" x2="42.52" y2="60.75"
            gradientTransform="translate(23.26 -46.86)" xlink:href="#未命名的渐变_67" />
        <linearGradient id="未命名的渐变_67-7" x1="45.72" y1="60.75" x2="44.59" y2="60.75"
            gradientTransform="translate(21.19 -44.79)" xlink:href="#未命名的渐变_67" />
        <linearGradient id="未命名的渐变_67-8" x1="47.79" y1="60.75" x2="46.65" y2="60.75"
            gradientTransform="translate(19.13 -42.73)" xlink:href="#未命名的渐变_67" />
        <linearGradient id="未命名的渐变_67-9" x1="49.85" y1="60.75" x2="48.71" y2="60.75"
            gradientTransform="translate(17.07 -40.66)" xlink:href="#未命名的渐变_67" />
        <linearGradient id="未命名的渐变_67-10" x1="51.92" y1="60.75" x2="50.78" y2="60.75"
            gradientTransform="translate(15 -38.6)" xlink:href="#未命名的渐变_67" />
        <linearGradient id="未命名的渐变_67-11" x1="53.98" y1="60.75" x2="52.84" y2="60.75"
            gradientTransform="translate(12.94 -36.53)" xlink:href="#未命名的渐变_67" />
        <linearGradient id="未命名的渐变_67-12" x1="56.05" y1="60.75" x2="54.91" y2="60.75"
            gradientTransform="translate(10.87 -34.47)" xlink:href="#未命名的渐变_67" />
        <linearGradient id="未命名的渐变_105-3" x1="7.79" y1="98.87" x2="7.79" y2="0" xlink:href="#未命名的渐变_105" />
        <linearGradient id="未命名的渐变_67-13" x1="20.73" y1="104.78" x2="20.73" y2="31.37"
            gradientTransform="matrix(1, 0, 0, 1, 0, 0)" xlink:href="#未命名的渐变_67" />
        <linearGradient id="未命名的渐变_105-4" x1="27.53" y1="110.26" x2="27.53" y2="24" xlink:href="#未命名的渐变_105" />
        <linearGradient id="未命名的渐变_67-14" x1="148.36" y1="108.51" x2="148.36" y2="37.9"
            gradientTransform="matrix(1, 0, 0, 1, 0, 0)" xlink:href="#未命名的渐变_67" />
        <linearGradient id="未命名的渐变_105-5" x1="32.25" y1="37.9" x2="32.25" y2="4.58" xlink:href="#未命名的渐变_105" />
        <linearGradient id="未命名的渐变_105-6" x1="87.98" y1="98.87" x2="87.98" y2="37.9" xlink:href="#未命名的渐变_105" />
        <linearGradient id="未命名的渐变_105-7" x1="54.74" y1="26.85" x2="54.74" y2="7.7" xlink:href="#未命名的渐变_105" />
        <linearGradient id="未命名的渐变_105-8" x1="122.17" y1="83.04" x2="122.17" y2="78.13"
            gradientTransform="matrix(1, 0, 0, -1, -75.66, 117.24)" xlink:href="#未命名的渐变_105" />
        <linearGradient id="未命名的渐变_105-9" x1="124.84" y1="85.92" x2="124.84" y2="75.57"
            gradientTransform="matrix(1, 0, 0, -1, -78.49, 114.73)" xlink:href="#未命名的渐变_105" />
        <linearGradient id="未命名的渐变_105-10" x1="122.18" y1="42.72" x2="122.18" y2="37.82"
            gradientTransform="matrix(1, 0, 0, -1, -35.36, 76.91)" xlink:href="#未命名的渐变_105" />
        <linearGradient id="未命名的渐变_105-11" x1="124.86" y1="45.61" x2="124.86" y2="35.26"
            gradientTransform="matrix(1, 0, 0, -1, -38.19, 74.4)" xlink:href="#未命名的渐变_105" />
        <linearGradient id="未命名的渐变_105-12" x1="122.17" y1="-12.16" x2="122.17" y2="-17.06"
            gradientTransform="matrix(1, 0, 0, -1, 19.53, 22.04)" xlink:href="#未命名的渐变_105" />
        <linearGradient id="未命名的渐变_105-13" x1="124.84" y1="-9.27" x2="124.84" y2="-19.62"
            gradientTransform="matrix(1, 0, 0, -1, 16.7, 19.53)" xlink:href="#未命名的渐变_105" />
        <linearGradient id="未命名的渐变_67-15" x1="118.37" y1="98.87" x2="118.37" y2="37.9"
            gradientTransform="matrix(1, 0, 0, 1, 0, 0)" xlink:href="#未命名的渐变_67" />
        <linearGradient id="未命名的渐变_67-16" x1="74.78" y1="55.49" x2="71.52" y2="55.49"
            gradientTransform="translate(-1.54 -11.54)" xlink:href="#未命名的渐变_67" />
        <linearGradient id="未命名的渐变_67-17" x1="80.7" y1="55.49" x2="77.44" y2="55.49"
            gradientTransform="translate(-7.46 -5.62)" xlink:href="#未命名的渐变_67" />
        <linearGradient id="未命名的渐变_67-18" x1="86.62" y1="55.49" x2="83.36" y2="55.49"
            gradientTransform="translate(-13.38 0.3)" xlink:href="#未命名的渐变_67" />
        <linearGradient id="未命名的渐变_67-19" x1="92.55" y1="55.49" x2="89.28" y2="55.49"
            gradientTransform="translate(-19.3 6.22)" xlink:href="#未命名的渐变_67" />
        <linearGradient id="未命名的渐变_67-20" x1="98.47" y1="55.49" x2="95.2" y2="55.49"
            gradientTransform="translate(-25.22 12.15)" xlink:href="#未命名的渐变_67" />
        <linearGradient id="未命名的渐变_67-21" x1="104.39" y1="55.49" x2="101.12" y2="55.49"
            gradientTransform="translate(-31.15 18.07)" xlink:href="#未命名的渐变_67" />
        <linearGradient id="未命名的渐变_67-22" x1="110.31" y1="55.49" x2="107.04" y2="55.49"
            gradientTransform="translate(-37.07 23.99)" xlink:href="#未命名的渐变_67" />
        <linearGradient id="未命名的渐变_67-23" x1="116.23" y1="55.49" x2="112.96" y2="55.49"
            gradientTransform="translate(-42.99 29.91)" xlink:href="#未命名的渐变_67" />
        <linearGradient id="未命名的渐变_67-24" x1="122.15" y1="55.49" x2="118.88" y2="55.49"
            gradientTransform="translate(-48.91 35.83)" xlink:href="#未命名的渐变_67" />
        <linearGradient id="未命名的渐变_67-25" x1="128.07" y1="55.49" x2="124.8" y2="55.49"
            gradientTransform="translate(-54.83 41.75)" xlink:href="#未命名的渐变_67" />
    </defs>
    <title>IoT-Material Handling（物料运输）</title>
    <g id="Stainless_steel_heavy-duty_mixer_不锈钢重型搅拌机_" data-name="Stainless steel heavy-duty mixer（不锈钢重型搅拌机）">
        <path class="cls-1" d="M53.48,25.14H49.77l-1.85-2.88a9,9,0,0,1,.3-10.51l1.55-2.18h3.71Z" />
        <path class="cls-2" d="M56,28.72H88s3.51-.31,3.51-11.34c0-8.14-3.51-11-3.51-11H56Z" />
        <rect class="cls-3" x="76.14" y="16.88" width="22.37" height="1.32"
            transform="translate(104.86 -69.78) rotate(90)" />
        <rect class="cls-4" x="66.17" y="16.88" width="22.37" height="1.32"
            transform="translate(94.89 -59.82) rotate(90)" />
        <rect class="cls-5" x="65.78" y="-2.65" width="1.14" height="20.7"
            transform="translate(74.05 -58.65) rotate(90)" />
        <rect class="cls-6" x="65.78" y="-0.59" width="1.14" height="20.7"
            transform="translate(76.11 -56.59) rotate(90)" />
        <rect class="cls-7" x="65.78" y="1.48" width="1.14" height="20.7"
            transform="translate(78.18 -54.52) rotate(90)" />
        <rect class="cls-8" x="65.78" y="3.54" width="1.14" height="20.7"
            transform="translate(80.24 -52.46) rotate(90)" />
        <rect class="cls-9" x="65.78" y="5.61" width="1.14" height="20.7"
            transform="translate(82.31 -50.39) rotate(90)" />
        <rect class="cls-10" x="65.78" y="7.67" width="1.14" height="20.7"
            transform="translate(84.37 -48.33) rotate(90)" />
        <rect class="cls-11" x="65.78" y="9.73" width="1.14" height="20.7"
            transform="translate(86.43 -46.26) rotate(90)" />
        <rect class="cls-12" x="65.78" y="11.8" width="1.14" height="20.7"
            transform="translate(88.5 -44.2) rotate(90)" />
        <rect class="cls-13" x="65.78" y="13.86" width="1.14" height="20.7"
            transform="translate(90.56 -42.13) rotate(90)" />
        <rect class="cls-14" x="65.78" y="15.93" width="1.14" height="20.7"
            transform="translate(92.63 -40.07) rotate(90)" />
        <rect class="cls-15" x="-0.01" width="15.59" height="98.87" />
        <polygon class="cls-16" points="25.88 104.78 15.58 98.87 15.58 31.37 25.88 31.37 25.88 104.78" />
        <rect class="cls-17" x="4.45" y="17.56" width="6.98" height="6.98" />
        <rect class="cls-17" x="4.45" y="32.87" width="6.98" height="6.98" />
        <rect class="cls-18" x="25.88" y="24" width="3.3" height="86.26" />
        <rect class="cls-19" x="146.72" y="37.9" width="3.3" height="70.61" />
        <rect class="cls-20" x="15.58" y="4.58" width="33.33" height="33.33" />
        <rect class="cls-21" x="29.24" y="37.9" width="117.47" height="60.97" />
        <rect class="cls-22" x="53.48" y="7.7" width="2.52" height="19.15" />
        <rect class="cls-23" x="45.26" y="34.2" width="2.51" height="4.9"
            transform="translate(9.86 83.16) rotate(-90)" />
        <rect class="cls-24" x="44.93" y="28.8" width="2.84" height="10.35"
            transform="translate(12.37 80.33) rotate(-90)" />
        <rect class="cls-25" x="85.57" y="34.19" width="2.51" height="4.9"
            transform="translate(50.19 123.47) rotate(-90)" />
        <rect class="cls-26" x="85.24" y="28.79" width="2.84" height="10.35"
            transform="translate(52.7 120.63) rotate(-90)" />
        <rect class="cls-27" x="140.45" y="34.2" width="2.51" height="4.9"
            transform="translate(105.05 178.36) rotate(-90)" />
        <rect class="cls-28" x="140.12" y="28.8" width="2.84" height="10.35"
            transform="translate(107.56 175.52) rotate(-90)" />
        <rect class="cls-29" x="114.04" y="37.9" width="8.65" height="60.97" />
        <rect class="cls-30" x="69.98" y="1.52" width="3.27" height="84.86"
            transform="translate(115.56 -27.66) rotate(90)" />
        <rect class="cls-31" x="69.98" y="7.44" width="3.27" height="84.86"
            transform="translate(121.48 -21.74) rotate(90)" />
        <rect class="cls-32" x="69.98" y="13.36" width="3.27" height="84.86"
            transform="translate(127.4 -15.82) rotate(90)" />
        <rect class="cls-33" x="69.98" y="19.28" width="3.27" height="84.86"
            transform="translate(133.32 -9.89) rotate(90)" />
        <rect class="cls-34" x="69.98" y="25.2" width="3.27" height="84.86"
            transform="translate(139.24 -3.97) rotate(90)" />
        <rect class="cls-35" x="69.98" y="31.12" width="3.27" height="84.86"
            transform="translate(145.16 1.95) rotate(90)" />
        <rect class="cls-36" x="69.98" y="37.05" width="3.27" height="84.86"
            transform="translate(151.09 7.87) rotate(90)" />
        <rect class="cls-37" x="69.98" y="42.97" width="3.27" height="84.86"
            transform="translate(157.01 13.79) rotate(90)" />
        <rect class="cls-38" x="69.98" y="48.89" width="3.27" height="84.86"
            transform="translate(162.93 19.71) rotate(90)" />
        <rect class="cls-39" x="69.98" y="54.81" width="3.27" height="84.86"
            transform="translate(168.85 25.63) rotate(90)" />
    </g>
    
</svg>