<svg xmlns="http://www.w3.org/2000/svg" xmlns:xlink="http://www.w3.org/1999/xlink" viewBox="0 0 63.25 150">
    <defs>
        <style>
            .cls-1 {
                fill: url(#未命名的渐变_74);
            }

            .cls-10,
            .cls-2 {
                fill: #b9b8bc;
                stroke: #565656;
                stroke-miterlimit: 10;
            }

            .cls-3 {
                fill: url(#未命名的渐变_74-2);
            }

            .cls-4 {
                fill: url(#未命名的渐变_74-3);
            }

            .cls-5 {
                fill: url(#未命名的渐变_74-4);
            }

            .cls-6 {
                fill: url(#未命名的渐变_74-5);
            }

            .cls-7 {
                fill: url(#未命名的渐变_74-6);
            }

            .cls-8 {
                fill: url(#未命名的渐变_105);
            }

            .cls-9 {
                fill: url(#未命名的渐变_105-2);
            }

            .cls-10 {
                stroke-width: 0.25px;
            }

            .cls-11 {
                fill: url(#未命名的渐变_105-3);
            }

            .cls-12 {
                opacity: 0.2;
            }
        </style>
        <linearGradient id="未命名的渐变_74" x1="2.71" y1="90.3" x2="60.63" y2="90.3" gradientUnits="userSpaceOnUse">
            <stop offset="0" stop-color="#6b6b6b" />
            <stop offset="0.01" stop-color="#767676" />
            <stop offset="0.03" stop-color="#959595" />
            <stop offset="0.04" stop-color="#aaa" />
            <stop offset="0.37" stop-color="#ccc" />
            <stop offset="0.74" stop-color="#eaeaea" />
            <stop offset="0.94" stop-color="#f6f6f6" />
            <stop offset="0.95" stop-color="#ededed" />
            <stop offset="0.96" stop-color="#d4d4d4" />
            <stop offset="0.97" stop-color="#ababab" />
            <stop offset="0.99" stop-color="#737373" />
            <stop offset="0.99" stop-color="#666" />
        </linearGradient>
        <linearGradient id="未命名的渐变_74-2" x1="2.71" y1="142.9" x2="7.4" y2="142.9" xlink:href="#未命名的渐变_74" />
        <linearGradient id="未命名的渐变_74-3" x1="0" y1="148.66" x2="10.02" y2="148.66" xlink:href="#未命名的渐变_74" />
        <linearGradient id="未命名的渐变_74-4" x1="55.93" y1="142.9" x2="60.63" y2="142.9" xlink:href="#未命名的渐变_74" />
        <linearGradient id="未命名的渐变_74-5" x1="53.23" y1="148.66" x2="63.25" y2="148.66" xlink:href="#未命名的渐变_74" />
        <linearGradient id="未命名的渐变_74-6" x1="11.49" y1="32.43" x2="51.84" y2="32.43" xlink:href="#未命名的渐变_74" />
        <linearGradient id="未命名的渐变_105" x1="4.32" y1="40.44" x2="9.22" y2="40.44" gradientUnits="userSpaceOnUse">
            <stop offset="0" stop-color="#e2e2e2" />
            <stop offset="0.03" stop-color="#d0d0d0" />
            <stop offset="0.06" stop-color="#bcbcbc" />
            <stop offset="0.09" stop-color="#b5b5b5" />
            <stop offset="0.49" stop-color="#f6f6f6" />
            <stop offset="0.63" stop-color="#f3f3f3" />
            <stop offset="0.73" stop-color="#eaeaea" />
            <stop offset="0.82" stop-color="#dbdbdb" />
            <stop offset="0.9" stop-color="#c6c6c6" />
            <stop offset="0.97" stop-color="#aaa" />
            <stop offset="1" stop-color="#9b9b9b" />
        </linearGradient>
        <linearGradient id="未命名的渐变_105-2" x1="54.43" y1="40.44" x2="59.32" y2="40.44" xlink:href="#未命名的渐变_105" />
        <linearGradient id="未命名的渐变_105-3" x1="19.04" y1="11.37" x2="31.89" y2="11.37" xlink:href="#未命名的渐变_105" />
    </defs>
    <title>Three-stage wet collector（三级湿式收集器）</title>
    <g id="图层_2" data-name="图层 2">
        <g id="图层_55" data-name="图层 55">
            <g id="Three-stage_wet_collector_三级湿式收集器_" data-name="Three-stage wet collector（三级湿式收集器）">
                <rect class="cls-1" x="2.71" y="42.12" width="57.92" height="96.35" />
                <rect class="cls-2" x="19.92" y="116.7" width="24.63" height="14.43" />
                <rect class="cls-2" x="8.71" y="51.73" width="8.24" height="6.68" />
                <rect class="cls-2" x="21.2" y="51.73" width="8.24" height="6.68" />
                <rect class="cls-2" x="33.69" y="51.73" width="8.24" height="6.68" />
                <rect class="cls-2" x="46.19" y="51.73" width="8.24" height="6.68" />
                <rect class="cls-3" x="2.71" y="138.48" width="4.69" height="8.84" />
                <rect class="cls-4" y="147.31" width="10.02" height="2.69" />
                <rect class="cls-5" x="55.93" y="138.48" width="4.69" height="8.84" />
                <rect class="cls-6" x="53.23" y="147.31" width="10.02" height="2.69" />
                <rect class="cls-7" x="11.49" y="22.73" width="40.35" height="19.39" />
                <rect class="cls-8" x="4.32" y="38.76" width="4.89" height="3.36" />
                <rect class="cls-9" x="54.43" y="38.76" width="4.89" height="3.36" />
                <rect class="cls-10" x="22.3" y="24.28" width="3.6" height="1.7" />
                <rect class="cls-10" x="28.29" y="24.28" width="3.6" height="1.7" />
                <rect class="cls-10" x="34.28" y="24.28" width="3.6" height="1.7" />
                <rect class="cls-10" x="40.28" y="24.28" width="3.6" height="1.7" />
                <rect class="cls-10" x="46.27" y="24.28" width="3.6" height="1.7" />
                <rect class="cls-10" x="22.3" y="26.95" width="3.6" height="1.7" />
                <rect class="cls-10" x="28.29" y="26.95" width="3.6" height="1.7" />
                <rect class="cls-10" x="34.28" y="26.95" width="3.6" height="1.7" />
                <rect class="cls-10" x="40.28" y="26.95" width="3.6" height="1.7" />
                <rect class="cls-10" x="46.27" y="26.95" width="3.6" height="1.7" />
                <rect class="cls-10" x="22.3" y="29.61" width="3.6" height="1.7" />
                <rect class="cls-10" x="28.29" y="29.61" width="3.6" height="1.7" />
                <rect class="cls-10" x="34.28" y="29.61" width="3.6" height="1.7" />
                <rect class="cls-10" x="40.28" y="29.61" width="3.6" height="1.7" />
                <rect class="cls-10" x="46.27" y="29.61" width="3.6" height="1.7" />
                <rect class="cls-10" x="22.3" y="32.28" width="3.6" height="1.7" />
                <rect class="cls-10" x="28.29" y="32.28" width="3.6" height="1.7" />
                <rect class="cls-10" x="34.28" y="32.28" width="3.6" height="1.7" />
                <rect class="cls-10" x="40.28" y="32.28" width="3.6" height="1.7" />
                <rect class="cls-10" x="46.27" y="32.28" width="3.6" height="1.7" />
                <rect class="cls-10" x="22.3" y="34.94" width="3.6" height="1.7" />
                <rect class="cls-10" x="28.29" y="34.94" width="3.6" height="1.7" />
                <rect class="cls-10" x="34.28" y="34.94" width="3.6" height="1.7" />
                <rect class="cls-10" x="40.28" y="34.94" width="3.6" height="1.7" />
                <rect class="cls-10" x="46.27" y="34.94" width="3.6" height="1.7" />
                <rect class="cls-10" x="22.3" y="37.6" width="3.6" height="1.7" />
                <rect class="cls-10" x="28.29" y="37.6" width="3.6" height="1.7" />
                <rect class="cls-10" x="34.28" y="37.6" width="3.6" height="1.7" />
                <rect class="cls-10" x="40.28" y="37.6" width="3.6" height="1.7" />
                <rect class="cls-10" x="46.27" y="37.6" width="3.6" height="1.7" />
                <rect class="cls-10" x="22.3" y="40.27" width="3.6" height="1.7" />
                <rect class="cls-10" x="28.29" y="40.27" width="3.6" height="1.7" />
                <rect class="cls-10" x="34.28" y="40.27" width="3.6" height="1.7" />
                <rect class="cls-10" x="40.28" y="40.27" width="3.6" height="1.7" />
                <rect class="cls-10" x="46.27" y="40.27" width="3.6" height="1.7" />
                <rect class="cls-11" x="19.04" width="12.85" height="22.73" />
                
            </g>
        </g>
    </g>
</svg>