<svg xmlns="http://www.w3.org/2000/svg" xmlns:xlink="http://www.w3.org/1999/xlink" viewBox="0 0 146.71 150"><defs><style>.cls-1,.cls-17,.cls-19{fill:none;}.cls-2{fill:url(#未命名的渐变_74);}.cls-3{fill:url(#未命名的渐变_105);}.cls-4{fill:url(#未命名的渐变_74-2);}.cls-5{fill:url(#未命名的渐变_74-3);}.cls-6{fill:url(#未命名的渐变_105-2);}.cls-7{fill:url(#未命名的渐变_67);}.cls-8{fill:#565656;stroke:#b9b8bc;stroke-width:0.5px;}.cls-17,.cls-19,.cls-8{stroke-miterlimit:10;}.cls-9{fill:url(#未命名的渐变_74-4);}.cls-10{clip-path:url(#clip-path);}.cls-11{fill:url(#未命名的渐变_74-5);}.cls-12{fill:url(#未命名的渐变_74-6);}.cls-13{fill:url(#未命名的渐变_67-2);}.cls-14{fill:url(#未命名的渐变_74-7);}.cls-15{fill:url(#未命名的渐变_105-3);}.cls-16{fill:url(#未命名的渐变_105-4);}.cls-17{stroke:#eaeaea;}.cls-18{fill:#eaeaea;}.cls-19{stroke:#000;}.cls-20{opacity:0.2;}</style><linearGradient id="未命名的渐变_74" x1="16.42" y1="70.7" x2="28.28" y2="70.7" gradientUnits="userSpaceOnUse"><stop offset="0" stop-color="#6b6b6b"/><stop offset="0.01" stop-color="#767676"/><stop offset="0.03" stop-color="#959595"/><stop offset="0.04" stop-color="#aaa"/><stop offset="0.37" stop-color="#ccc"/><stop offset="0.74" stop-color="#eaeaea"/><stop offset="0.94" stop-color="#f6f6f6"/><stop offset="0.95" stop-color="#ededed"/><stop offset="0.96" stop-color="#d4d4d4"/><stop offset="0.97" stop-color="#ababab"/><stop offset="0.99" stop-color="#737373"/><stop offset="0.99" stop-color="#666"/></linearGradient><linearGradient id="未命名的渐变_105" x1="28.28" y1="67.09" x2="119.35" y2="67.09" gradientUnits="userSpaceOnUse"><stop offset="0" stop-color="#e2e2e2"/><stop offset="0.03" stop-color="#d0d0d0"/><stop offset="0.06" stop-color="#bcbcbc"/><stop offset="0.09" stop-color="#b5b5b5"/><stop offset="0.49" stop-color="#f6f6f6"/><stop offset="0.63" stop-color="#f3f3f3"/><stop offset="0.73" stop-color="#eaeaea"/><stop offset="0.82" stop-color="#dbdbdb"/><stop offset="0.9" stop-color="#c6c6c6"/><stop offset="0.97" stop-color="#aaa"/><stop offset="1" stop-color="#9b9b9b"/></linearGradient><linearGradient id="未命名的渐变_74-2" x1="119.35" y1="70.7" x2="131.22" y2="70.7" xlink:href="#未命名的渐变_74"/><linearGradient id="未命名的渐变_74-3" x1="10.33" y1="41.33" x2="28.28" y2="41.33" xlink:href="#未命名的渐变_74"/><linearGradient id="未命名的渐变_105-2" x1="73.82" y1="87.46" x2="73.82" y2="79.97" xlink:href="#未命名的渐变_105"/><linearGradient id="未命名的渐变_67" x1="28.28" y1="29.21" x2="119.35" y2="29.21" gradientUnits="userSpaceOnUse"><stop offset="0" stop-color="#6b6b6b"/><stop offset="0.11" stop-color="#767676"/><stop offset="0.3" stop-color="#959595"/><stop offset="0.41" stop-color="#aaa"/><stop offset="0.56" stop-color="#ccc"/><stop offset="0.71" stop-color="#eaeaea"/><stop offset="0.8" stop-color="#f6f6f6"/><stop offset="0.83" stop-color="#ededed"/><stop offset="0.87" stop-color="#d4d4d4"/><stop offset="0.92" stop-color="#ababab"/><stop offset="0.98" stop-color="#737373"/><stop offset="0.99" stop-color="#666"/></linearGradient><linearGradient id="未命名的渐变_74-4" x1="72.62" y1="59.65" x2="76.06" y2="59.65" xlink:href="#未命名的渐变_74"/><clipPath id="clip-path"><circle class="cls-1" cx="73.82" cy="59.62" r="14.03"/></clipPath><linearGradient id="未命名的渐变_74-5" x1="64.79" y1="59.62" x2="68.22" y2="59.62" xlink:href="#未命名的渐变_74"/><linearGradient id="未命名的渐变_74-6" x1="80.02" y1="59.62" x2="83.46" y2="59.62" xlink:href="#未命名的渐变_74"/><linearGradient id="未命名的渐变_67-2" x1="59.79" y1="59" x2="87.85" y2="59" xlink:href="#未命名的渐变_67"/><linearGradient id="未命名的渐变_74-7" x1="73.43" y1="121.77" x2="73.43" y2="112.2" xlink:href="#未命名的渐变_74"/><linearGradient id="未命名的渐变_105-3" x1="65.16" y1="8.29" x2="83.14" y2="8.29" xlink:href="#未命名的渐变_105"/><linearGradient id="未命名的渐变_105-4" x1="60.03" y1="1.88" x2="89.89" y2="1.88" xlink:href="#未命名的渐变_105"/></defs><title>Vacuum pressure unloader（真空减压器）</title><g id="Vacuum_pressure_unloader_真空减压器_" data-name="Vacuum pressure unloader（真空减压器）"><rect class="cls-2" x="16.42" y="29.2" width="11.86" height="83.01"/><path class="cls-3" d="M119.35,84.15,75.76,121.77,28.28,84.15V22.69l.44-.21a106,106,0,0,1,90.63.21h0Z"/><rect class="cls-4" x="119.35" y="29.2" width="11.86" height="83.01"/><rect class="cls-5" x="10.33" y="29.2" width="17.96" height="24.27"/><rect class="cls-6" x="28.28" y="79.97" width="91.07" height="7.49"/><rect class="cls-7" x="28.28" y="28.04" width="91.07" height="2.34"/><circle class="cls-8" cx="73.82" cy="59.62" r="14.03"/><rect class="cls-9" x="72.62" y="45.65" width="3.44" height="28"/><g class="cls-10"><rect class="cls-11" x="64.79" y="45.62" width="3.44" height="28"/></g><g class="cls-10"><rect class="cls-12" x="80.02" y="45.62" width="3.44" height="28"/></g><rect class="cls-13" x="59.79" y="57.25" width="28.05" height="3.49"/><rect class="cls-14" y="112.2" width="146.86" height="9.57"/><rect class="cls-15" x="65.16" y="3.77" width="17.98" height="9.05"/><rect class="cls-16" x="60.03" y="-0.01" width="29.87" height="3.78"/><circle cx="36.61" cy="129.99" r="20.19"/><circle class="cls-17" cx="36.61" cy="129.99" r="16.63"/><circle class="cls-18" cx="36.61" cy="129.99" r="8.22"/><circle class="cls-19" cx="36.61" cy="129.99" r="2.77"/><circle cx="120.26" cy="129.99" r="20.19"/><circle class="cls-17" cx="120.26" cy="129.99" r="16.63"/><circle class="cls-18" cx="120.26" cy="129.99" r="8.22"/><circle class="cls-19" cx="120.26" cy="129.99" r="2.77"/><g class="cls-20"><path d="M54.72,47.76c-.17.37-.39.79-.65,1.26s-.54.94-.83,1.43-.6,1-.91,1.43-.58.88-.84,1.25L49.14,52c.27-.36.56-.77.87-1.22s.61-.9.9-1.36.55-.91.79-1.36.43-.83.58-1.18Zm4-1.85V50a4.05,4.05,0,0,1-.14,1.17,1.56,1.56,0,0,1-.45.73,2.28,2.28,0,0,1-.8.46c-.33.11-.74.23-1.21.34L54.94,53l-.83-2.59.89-.22a2.46,2.46,0,0,0,.72-.27.63.63,0,0,0,.21-.55V46.28l-5.6.74.59-7.74c.62-.08,1.27-.18,2-.29s1.39-.22,2.1-.34,1.43-.25,2.14-.39,1.41-.27,2.07-.41,1.28-.27,1.87-.4,1.11-.27,1.56-.4l.55,2.63-2.07.48c-.77.17-1.57.34-2.42.5S57,41,56.1,41.15l-2.58.45-.18,2.55,2.59-.34V41.6l2.78-.31v2.15l4.93-.65v2.48Zm2.72-.22c.17.19.39.45.65.78l.83,1.08c.29.39.58.79.86,1.21s.54.8.76,1.17l-2.35,1.83c-.19-.36-.41-.75-.66-1.16s-.51-.83-.78-1.23-.55-.79-.82-1.15-.51-.66-.72-.91Z"/><path d="M80.25,40.87v2.21L65.61,45V42.79l3.27-.43.24-1-2.39.31V39.82l2.85-.38.21-.87-3.4.44V36.82L79.47,35.1v2.19l-6.85.9-.21.88,6-.79-.15,2.85ZM67.06,45.53,78.8,44v5.63L67.06,51.16Zm2.58,3.09,6.45-.84V46.49l-6.45.85ZM71.72,42l3.88-.51.06-.95L72,41Z"/><path d="M86.94,43.52c-.18.37-.39.79-.65,1.25s-.54.95-.84,1.44-.6,1-.9,1.43-.59.88-.85,1.25l-2.34-1.12c.27-.37.56-.77.87-1.22s.6-.9.89-1.36.55-.91.79-1.36.43-.83.59-1.18Zm4-1.85v4.12A3.73,3.73,0,0,1,90.78,47a1.63,1.63,0,0,1-.44.73,2.42,2.42,0,0,1-.81.46c-.33.11-.73.22-1.21.34l-1.17.29-.83-2.59.89-.22a2.69,2.69,0,0,0,.73-.27.65.65,0,0,0,.2-.55V42l-5.6.74L83.13,35c.62-.08,1.27-.18,2-.29s1.39-.22,2.11-.34L89.34,34c.72-.13,1.41-.27,2.07-.41s1.29-.27,1.87-.41,1.11-.26,1.56-.39l.56,2.63-2.08.48c-.76.17-1.57.34-2.41.5l-2.6.49-2.58.45-.18,2.55,2.59-.34V37.36l2.78-.31V39.2l4.93-.65V41Zm2.72-.22c.17.19.39.45.65.78s.54.69.83,1.08.58.79.86,1.2.54.81.77,1.18l-2.36,1.82c-.19-.35-.4-.74-.65-1.15s-.52-.83-.79-1.24L92.14,44c-.27-.36-.51-.66-.73-.91Z"/></g></g></svg>