<svg xmlns="http://www.w3.org/2000/svg" xmlns:xlink="http://www.w3.org/1999/xlink" viewBox="0 0 150 140.32">
    <defs>
        <style>
            .cls-1 {
                fill: url(#未命名的渐变_67);
            }

            .cls-2 {
                fill: url(#未命名的渐变_67-2);
            }

            .cls-3 {
                fill: url(#未命名的渐变_67-3);
            }

            .cls-4 {
                fill: url(#未命名的渐变_67-4);
            }

            .cls-5 {
                fill: url(#未命名的渐变_67-5);
            }

            .cls-6 {
                fill: url(#未命名的渐变_67-6);
            }

            .cls-7 {
                fill: url(#未命名的渐变_67-7);
            }

            .cls-8 {
                fill: url(#未命名的渐变_67-8);
            }

            .cls-9 {
                fill: url(#未命名的渐变_67-9);
            }

            .cls-10 {
                fill: url(#未命名的渐变_67-10);
            }

            .cls-11 {
                fill: url(#未命名的渐变_67-11);
            }

            .cls-12 {
                fill: url(#未命名的渐变_67-12);
            }

            .cls-13 {
                fill: url(#未命名的渐变_67-13);
            }

            .cls-14 {
                fill: url(#未命名的渐变_67-14);
            }

            .cls-15 {
                fill: url(#未命名的渐变_67-15);
            }

            .cls-16 {
                fill: url(#未命名的渐变_67-16);
            }

            .cls-17 {
                fill: url(#未命名的渐变_67-17);
            }

            .cls-18 {
                fill: url(#未命名的渐变_67-18);
            }

            .cls-19 {
                fill: url(#未命名的渐变_67-19);
            }

            .cls-20 {
                fill: url(#未命名的渐变_67-20);
            }

            .cls-21 {
                fill: url(#未命名的渐变_67-21);
            }

            .cls-22 {
                fill: url(#未命名的渐变_67-22);
            }

            .cls-23 {
                fill: url(#未命名的渐变_67-23);
            }

            .cls-24 {
                fill: url(#未命名的渐变_67-24);
            }

            .cls-25 {
                fill: url(#未命名的渐变_67-25);
            }

            .cls-26 {
                fill: url(#未命名的渐变_67-26);
            }

            .cls-27 {
                fill: url(#未命名的渐变_67-27);
            }

            .cls-28 {
                fill: url(#未命名的渐变_67-28);
            }

            .cls-29 {
                fill: url(#未命名的渐变_67-29);
            }

            .cls-30 {
                fill: url(#未命名的渐变_67-30);
            }

            .cls-31 {
                fill: url(#未命名的渐变_67-31);
            }

            .cls-32 {
                fill: url(#未命名的渐变_67-32);
            }

            .cls-33 {
                fill: #7f7f7f;
            }

            .cls-34 {
                fill: url(#未命名的渐变_105);
            }

            .cls-35 {
                fill: url(#未命名的渐变_74);
            }

            .cls-36 {
                fill: url(#未命名的渐变_74-2);
            }

            .cls-37 {
                fill: url(#未命名的渐变_105-2);
            }

            .cls-38 {
                fill: url(#未命名的渐变_105-3);
            }

            .cls-39 {
                fill: url(#未命名的渐变_105-4);
            }

            .cls-40 {
                fill: url(#未命名的渐变_67-33);
            }

            .cls-41 {
                fill: url(#未命名的渐变_67-34);
            }

            .cls-42 {
                fill: url(#未命名的渐变_67-35);
            }

            .cls-43 {
                fill: url(#未命名的渐变_67-36);
            }

            .cls-44 {
                fill: url(#未命名的渐变_67-37);
            }

            .cls-45 {
                fill: url(#未命名的渐变_67-38);
            }

            .cls-46 {
                fill: url(#未命名的渐变_67-39);
            }

            .cls-47 {
                fill: url(#未命名的渐变_67-40);
            }

            .cls-48 {
                fill: url(#未命名的渐变_67-41);
            }

            .cls-49 {
                fill: url(#未命名的渐变_67-42);
            }

            .cls-50 {
                fill: url(#未命名的渐变_67-43);
            }

            .cls-51 {
                fill: url(#未命名的渐变_67-44);
            }

            .cls-52 {
                fill: url(#未命名的渐变_67-45);
            }

            .cls-53 {
                fill: url(#未命名的渐变_67-46);
            }

            .cls-54 {
                fill: url(#未命名的渐变_67-47);
            }

            .cls-55 {
                fill: url(#未命名的渐变_67-48);
            }

            .cls-56 {
                fill: url(#未命名的渐变_67-49);
            }

            .cls-57 {
                fill: url(#未命名的渐变_67-50);
            }

            .cls-58 {
                fill: url(#未命名的渐变_67-51);
            }

            .cls-59 {
                fill: url(#未命名的渐变_67-52);
            }

            .cls-60 {
                fill: url(#未命名的渐变_67-53);
            }

            .cls-61 {
                fill: url(#未命名的渐变_67-54);
            }

            .cls-62 {
                fill: url(#未命名的渐变_105-5);
            }

            .cls-63 {
                fill: url(#未命名的渐变_67-55);
            }

            .cls-64 {
                fill: url(#未命名的渐变_67-56);
            }

            .cls-65 {
                fill: url(#未命名的渐变_67-57);
            }

            .cls-66 {
                fill: url(#未命名的渐变_105-6);
            }

            .cls-67 {
                fill: url(#未命名的渐变_74-3);
            }

            .cls-68 {
                fill: url(#未命名的渐变_74-4);
            }

            .cls-69 {
                fill: url(#未命名的渐变_74-5);
            }

            .cls-70 {
                fill: url(#未命名的渐变_74-6);
            }

            .cls-71 {
                fill: url(#未命名的渐变_74-7);
            }

            .cls-72 {
                fill: url(#未命名的渐变_105-7);
            }

            .cls-73 {
                fill: url(#未命名的渐变_105-8);
            }

            .cls-74 {
                fill: url(#未命名的渐变_74-8);
            }

            .cls-75 {
                opacity: 0.2;
            }
        </style>
        <linearGradient id="未命名的渐变_67" x1="74.83" y1="34.08" x2="74.83" y2="29.39" gradientUnits="userSpaceOnUse">
            <stop offset="0" stop-color="#6b6b6b" />
            <stop offset="0.11" stop-color="#767676" />
            <stop offset="0.3" stop-color="#959595" />
            <stop offset="0.41" stop-color="#aaa" />
            <stop offset="0.56" stop-color="#ccc" />
            <stop offset="0.71" stop-color="#eaeaea" />
            <stop offset="0.8" stop-color="#f6f6f6" />
            <stop offset="0.83" stop-color="#ededed" />
            <stop offset="0.87" stop-color="#d4d4d4" />
            <stop offset="0.92" stop-color="#ababab" />
            <stop offset="0.98" stop-color="#737373" />
            <stop offset="0.99" stop-color="#666" />
        </linearGradient>
        <linearGradient id="未命名的渐变_67-2" x1="75.85" y1="59.03" x2="75.85" y2="54.34" xlink:href="#未命名的渐变_67" />
        <linearGradient id="未命名的渐变_67-3" x1="76.87" y1="83.98" x2="76.87" y2="79.29" xlink:href="#未命名的渐变_67" />
        <linearGradient id="未命名的渐变_67-4" x1="77.88" y1="108.93" x2="77.88" y2="104.24" xlink:href="#未命名的渐变_67" />
        <linearGradient id="未命名的渐变_67-5" x1="17.22" y1="53.92" x2="19.94" y2="53.92" xlink:href="#未命名的渐变_67" />
        <linearGradient id="未命名的渐变_67-6" x1="6.21" y1="58.74" x2="7.91" y2="58.74" xlink:href="#未命名的渐变_67" />
        <linearGradient id="未命名的渐变_67-7" x1="3.99" y1="60.1" x2="5.68" y2="60.1" xlink:href="#未命名的渐变_67" />
        <linearGradient id="未命名的渐变_67-8" x1="143.4" y1="58.78" x2="145.09" y2="58.78" xlink:href="#未命名的渐变_67" />
        <linearGradient id="未命名的渐变_67-9" x1="141.17" y1="57.68" x2="142.87" y2="57.68" xlink:href="#未命名的渐变_67" />
        <linearGradient id="未命名的渐变_67-10" x1="22.31" y1="53.92" x2="25.02" y2="53.92" xlink:href="#未命名的渐变_67" />
        <linearGradient id="未命名的渐变_67-11" x1="27.39" y1="53.92" x2="30.1" y2="53.92" xlink:href="#未命名的渐变_67" />
        <linearGradient id="未命名的渐变_67-12" x1="32.47" y1="53.92" x2="35.18" y2="53.92" xlink:href="#未命名的渐变_67" />
        <linearGradient id="未命名的渐变_67-13" x1="37.56" y1="53.92" x2="40.27" y2="53.92" xlink:href="#未命名的渐变_67" />
        <linearGradient id="未命名的渐变_67-14" x1="42.64" y1="53.92" x2="45.35" y2="53.92" xlink:href="#未命名的渐变_67" />
        <linearGradient id="未命名的渐变_67-15" x1="47.72" y1="53.92" x2="50.43" y2="53.92" xlink:href="#未命名的渐变_67" />
        <linearGradient id="未命名的渐变_67-16" x1="52.81" y1="53.92" x2="55.52" y2="53.92" xlink:href="#未命名的渐变_67" />
        <linearGradient id="未命名的渐变_67-17" x1="57.89" y1="53.92" x2="60.6" y2="53.92" xlink:href="#未命名的渐变_67" />
        <linearGradient id="未命名的渐变_67-18" x1="62.97" y1="53.92" x2="65.68" y2="53.92" xlink:href="#未命名的渐变_67" />
        <linearGradient id="未命名的渐变_67-19" x1="68.06" y1="53.92" x2="70.77" y2="53.92" xlink:href="#未命名的渐变_67" />
        <linearGradient id="未命名的渐变_67-20" x1="73.14" y1="53.92" x2="75.85" y2="53.92" xlink:href="#未命名的渐变_67" />
        <linearGradient id="未命名的渐变_67-21" x1="78.22" y1="53.92" x2="80.93" y2="53.92" xlink:href="#未命名的渐变_67" />
        <linearGradient id="未命名的渐变_67-22" x1="83.3" y1="53.92" x2="86.02" y2="53.92" xlink:href="#未命名的渐变_67" />
        <linearGradient id="未命名的渐变_67-23" x1="88.39" y1="53.92" x2="91.1" y2="53.92" xlink:href="#未命名的渐变_67" />
        <linearGradient id="未命名的渐变_67-24" x1="93.47" y1="53.92" x2="96.18" y2="53.92" xlink:href="#未命名的渐变_67" />
        <linearGradient id="未命名的渐变_67-25" x1="98.55" y1="53.92" x2="101.27" y2="53.92" xlink:href="#未命名的渐变_67" />
        <linearGradient id="未命名的渐变_67-26" x1="103.64" y1="53.92" x2="106.35" y2="53.92" xlink:href="#未命名的渐变_67" />
        <linearGradient id="未命名的渐变_67-27" x1="108.72" y1="53.92" x2="111.43" y2="53.92" xlink:href="#未命名的渐变_67" />
        <linearGradient id="未命名的渐变_67-28" x1="113.8" y1="53.92" x2="116.51" y2="53.92" xlink:href="#未命名的渐变_67" />
        <linearGradient id="未命名的渐变_67-29" x1="118.89" y1="53.92" x2="121.6" y2="53.92" xlink:href="#未命名的渐变_67" />
        <linearGradient id="未命名的渐变_67-30" x1="123.97" y1="53.92" x2="126.68" y2="53.92" xlink:href="#未命名的渐变_67" />
        <linearGradient id="未命名的渐变_67-31" x1="129.05" y1="53.92" x2="131.76" y2="53.92" xlink:href="#未命名的渐变_67" />
        <linearGradient id="未命名的渐变_67-32" x1="134.14" y1="53.92" x2="136.85" y2="53.92" xlink:href="#未命名的渐变_67" />
        <linearGradient id="未命名的渐变_105" x1="76.19" y1="109.58" x2="76.19" y2="104.88" gradientUnits="userSpaceOnUse">
            <stop offset="0" stop-color="#e2e2e2" />
            <stop offset="0.03" stop-color="#d0d0d0" />
            <stop offset="0.06" stop-color="#bcbcbc" />
            <stop offset="0.09" stop-color="#b5b5b5" />
            <stop offset="0.49" stop-color="#f6f6f6" />
            <stop offset="0.63" stop-color="#f3f3f3" />
            <stop offset="0.73" stop-color="#eaeaea" />
            <stop offset="0.82" stop-color="#dbdbdb" />
            <stop offset="0.9" stop-color="#c6c6c6" />
            <stop offset="0.97" stop-color="#aaa" />
            <stop offset="1" stop-color="#9b9b9b" />
        </linearGradient>
        <linearGradient id="未命名的渐变_74" x1="8.87" y1="54.83" x2="15.19" y2="54.83" gradientUnits="userSpaceOnUse">
            <stop offset="0" stop-color="#6b6b6b" />
            <stop offset="0.01" stop-color="#767676" />
            <stop offset="0.03" stop-color="#959595" />
            <stop offset="0.04" stop-color="#aaa" />
            <stop offset="0.37" stop-color="#ccc" />
            <stop offset="0.74" stop-color="#eaeaea" />
            <stop offset="0.94" stop-color="#f6f6f6" />
            <stop offset="0.95" stop-color="#ededed" />
            <stop offset="0.96" stop-color="#d4d4d4" />
            <stop offset="0.97" stop-color="#ababab" />
            <stop offset="0.99" stop-color="#737373" />
            <stop offset="0.99" stop-color="#666" />
        </linearGradient>
        <linearGradient id="未命名的渐变_74-2" x1="135.83" y1="54.75" x2="140.57" y2="54.75" xlink:href="#未命名的渐变_74" />
        <linearGradient id="未命名的渐变_105-2" x1="53.99" y1="96.76" x2="56.92" y2="96.76"
            gradientTransform="translate(-73.35 8.67) scale(1.44 1.11)" xlink:href="#未命名的渐变_105" />
        <linearGradient id="未命名的渐变_105-3" x1="86.35" y1="73.24" x2="89.29" y2="73.24"
            gradientTransform="matrix(1.44, 0, 0, -1.11, 17.31, 197.93)" xlink:href="#未命名的渐变_105" />
        <linearGradient id="未命名的渐变_105-4" x1="4.35" y1="9.04" x2="7.29" y2="9.04"
            gradientTransform="matrix(0.98, 0, 0, -1.16, 138.24, 19.41)" xlink:href="#未命名的渐变_105" />
        <linearGradient id="未命名的渐变_67-33" x1="12.48" y1="69.61" x2="15.19" y2="69.61" xlink:href="#未命名的渐变_67" />
        <linearGradient id="未命名的渐变_67-34" x1="18.58" y1="69.61" x2="21.29" y2="69.61" xlink:href="#未命名的渐变_67" />
        <linearGradient id="未命名的渐变_67-35" x1="24.68" y1="69.61" x2="27.39" y2="69.61" xlink:href="#未命名的渐变_67" />
        <linearGradient id="未命名的渐变_67-36" x1="30.78" y1="69.61" x2="33.49" y2="69.61" xlink:href="#未命名的渐变_67" />
        <linearGradient id="未命名的渐变_67-37" x1="36.88" y1="69.61" x2="39.59" y2="69.61" xlink:href="#未命名的渐变_67" />
        <linearGradient id="未命名的渐变_67-38" x1="42.98" y1="69.61" x2="45.69" y2="69.61" xlink:href="#未命名的渐变_67" />
        <linearGradient id="未命名的渐变_67-39" x1="49.08" y1="69.61" x2="51.79" y2="69.61" xlink:href="#未命名的渐变_67" />
        <linearGradient id="未命名的渐变_67-40" x1="55.18" y1="69.61" x2="57.89" y2="69.61" xlink:href="#未命名的渐变_67" />
        <linearGradient id="未命名的渐变_67-41" x1="61.28" y1="69.61" x2="63.99" y2="69.61" xlink:href="#未命名的渐变_67" />
        <linearGradient id="未命名的渐变_67-42" x1="67.38" y1="69.61" x2="70.09" y2="69.61" xlink:href="#未命名的渐变_67" />
        <linearGradient id="未命名的渐变_67-43" x1="73.48" y1="69.61" x2="76.19" y2="69.61" xlink:href="#未命名的渐变_67" />
        <linearGradient id="未命名的渐变_67-44" x1="79.58" y1="69.61" x2="82.29" y2="69.61" xlink:href="#未命名的渐变_67" />
        <linearGradient id="未命名的渐变_67-45" x1="85.68" y1="69.61" x2="88.39" y2="69.61" xlink:href="#未命名的渐变_67" />
        <linearGradient id="未命名的渐变_67-46" x1="91.78" y1="69.61" x2="94.49" y2="69.61" xlink:href="#未命名的渐变_67" />
        <linearGradient id="未命名的渐变_67-47" x1="97.88" y1="69.61" x2="100.59" y2="69.61" xlink:href="#未命名的渐变_67" />
        <linearGradient id="未命名的渐变_67-48" x1="103.98" y1="69.61" x2="106.69" y2="69.61" xlink:href="#未命名的渐变_67" />
        <linearGradient id="未命名的渐变_67-49" x1="110.08" y1="69.61" x2="112.79" y2="69.61" xlink:href="#未命名的渐变_67" />
        <linearGradient id="未命名的渐变_67-50" x1="116.18" y1="69.61" x2="118.89" y2="69.61" xlink:href="#未命名的渐变_67" />
        <linearGradient id="未命名的渐变_67-51" x1="122.28" y1="69.61" x2="124.99" y2="69.61" xlink:href="#未命名的渐变_67" />
        <linearGradient id="未命名的渐变_67-52" x1="128.37" y1="69.61" x2="131.09" y2="69.61" xlink:href="#未命名的渐变_67" />
        <linearGradient id="未命名的渐变_67-53" x1="134.47" y1="69.61" x2="137.19" y2="69.61" xlink:href="#未命名的渐变_67" />
        <linearGradient id="未命名的渐变_67-54" x1="140.57" y1="69.61" x2="143.29" y2="69.61" xlink:href="#未命名的渐变_67" />
        <linearGradient id="未命名的渐变_105-5" x1="74.1" y1="20.28" x2="74.1" y2="15.58" xlink:href="#未命名的渐变_105" />
        <linearGradient id="未命名的渐变_67-55" x1="74.1" y1="46.11" x2="74.1" y2="41.42" xlink:href="#未命名的渐变_67" />
        <linearGradient id="未命名的渐变_67-56" x1="74.1" y1="71.95" x2="74.1" y2="67.26" xlink:href="#未命名的渐变_67" />
        <linearGradient id="未命名的渐变_67-57" x1="74.1" y1="97.79" x2="74.1" y2="93.1" xlink:href="#未命名的渐变_67" />
        <linearGradient id="未命名的渐变_105-6" x1="74.1" y1="123.63" x2="74.1" y2="118.93" xlink:href="#未命名的渐变_105" />
        <linearGradient id="未命名的渐变_74-3" x1="141.25" y1="69.61" x2="149.67" y2="69.61" xlink:href="#未命名的渐变_74" />
        <linearGradient id="未命名的渐变_74-4" x1="8.75" y1="128.89" x2="8.75" y2="123.63" xlink:href="#未命名的渐变_74" />
        <linearGradient id="未命名的渐变_74-5" x1="0.05" y1="134.88" x2="6.83" y2="134.88" xlink:href="#未命名的渐变_74" />
        <linearGradient id="未命名的渐变_74-6" x1="65.86" y1="128.45" x2="65.86" y2="123.19"
            gradientTransform="matrix(1, 0, 0, -1, 75.39, 251.64)" xlink:href="#未命名的渐变_74" />
        <linearGradient id="未命名的渐变_74-7" x1="57.16" y1="134.44" x2="63.94" y2="134.44"
            gradientTransform="matrix(1, 0, 0, -1, 86.01, 268.88)" xlink:href="#未命名的渐变_74" />
        <linearGradient id="未命名的渐变_105-7" x1="-3.78" y1="12.49" x2="-0.84" y2="12.49"
            gradientTransform="translate(7.94 -5.41) scale(0.98 1.11)" xlink:href="#未命名的渐变_105" />
        <linearGradient id="未命名的渐变_105-8" x1="74.72" y1="2.83" x2="74.72" y2="0.07" xlink:href="#未命名的渐变_105" />
        <linearGradient id="未命名的渐变_74-8" x1="0.05" y1="69.61" x2="8.87" y2="69.61" xlink:href="#未命名的渐变_74" />
    </defs>
    <title>IoT-Material Handling（物料运输）</title>
    <g id="图层_10" data-name="图层 10">
        <rect class="cls-1" x="5.2" y="29.39" width="139.27" height="4.69" />
        <rect class="cls-2" x="6.21" y="54.34" width="139.27" height="4.69" />
        <rect class="cls-3" x="7.23" y="79.29" width="139.27" height="4.69" />
        <rect class="cls-4" x="8.25" y="104.24" width="139.27" height="4.69" />
        <rect class="cls-5" x="17.22" y="2.32" width="2.71" height="103.19" />
        <rect class="cls-6" x="6.21" y="7.15" width="1.69" height="103.19" />
        <rect class="cls-7" x="3.99" y="8.51" width="1.69" height="103.19" />
        <rect class="cls-8" x="143.4" y="9.64" width="1.69" height="98.28" />
        <rect class="cls-9" x="141.17" y="6.09" width="1.69" height="103.19" />
        <rect class="cls-10" x="22.31" y="2.32" width="2.71" height="103.19" />
        <rect class="cls-11" x="27.39" y="2.32" width="2.71" height="103.19" />
        <rect class="cls-12" x="32.47" y="2.32" width="2.71" height="103.19" />
        <rect class="cls-13" x="37.56" y="2.32" width="2.71" height="103.19" />
        <rect class="cls-14" x="42.64" y="2.32" width="2.71" height="103.19" />
        <rect class="cls-15" x="47.72" y="2.32" width="2.71" height="103.19" />
        <rect class="cls-16" x="52.81" y="2.32" width="2.71" height="103.19" />
        <rect class="cls-17" x="57.89" y="2.32" width="2.71" height="103.19" />
        <rect class="cls-18" x="62.97" y="2.32" width="2.71" height="103.19" />
        <rect class="cls-19" x="68.06" y="2.32" width="2.71" height="103.19" />
        <rect class="cls-20" x="73.14" y="2.32" width="2.71" height="103.19" />
        <rect class="cls-21" x="78.22" y="2.32" width="2.71" height="103.19" />
        <rect class="cls-22" x="83.3" y="2.32" width="2.71" height="103.19" />
        <rect class="cls-23" x="88.39" y="2.32" width="2.71" height="103.19" />
        <rect class="cls-24" x="93.47" y="2.32" width="2.71" height="103.19" />
        <rect class="cls-25" x="98.55" y="2.32" width="2.71" height="103.19" />
        <rect class="cls-26" x="103.64" y="2.32" width="2.71" height="103.19" />
        <rect class="cls-27" x="108.72" y="2.32" width="2.71" height="103.19" />
        <rect class="cls-28" x="113.8" y="2.32" width="2.71" height="103.19" />
        <rect class="cls-29" x="118.89" y="2.32" width="2.71" height="103.19" />
        <rect class="cls-30" x="123.97" y="2.32" width="2.71" height="103.19" />
        <rect class="cls-31" x="129.05" y="2.32" width="2.71" height="103.19" />
        <rect class="cls-32" x="134.14" y="2.32" width="2.71" height="103.19" />
        <rect class="cls-33" x="6.27" y="106.13" width="136.9" height="14.23" />
        <rect class="cls-34" x="6.55" y="104.88" width="139.27" height="4.69" />
        <rect class="cls-35" x="8.87" y="0.07" width="6.32" height="109.5" />
        <rect class="cls-36" x="135.83" y="0.07" width="4.74" height="109.36" />
        <rect class="cls-37" x="4.16" y="107.52" width="4.22" height="17.89"
            transform="translate(57.75 11.81) rotate(29.27)" />
        <rect class="cls-38" x="141.29" y="107.39" width="4.22" height="17.89"
            transform="translate(325.37 147.7) rotate(150.73)" />
        <rect class="cls-39" x="142.49" y="-0.42" width="2.87" height="18.66"
            transform="translate(273.83 -53.69) rotate(150.73)" />
        <rect class="cls-40" x="12.48" y="15.58" width="2.71" height="108.05" />
        <rect class="cls-41" x="18.58" y="15.58" width="2.71" height="108.05" />
        <rect class="cls-42" x="24.68" y="15.58" width="2.71" height="108.05" />
        <rect class="cls-43" x="30.78" y="15.58" width="2.71" height="108.05" />
        <rect class="cls-44" x="36.88" y="15.58" width="2.71" height="108.05" />
        <rect class="cls-45" x="42.98" y="15.58" width="2.71" height="108.05" />
        <rect class="cls-46" x="49.08" y="15.58" width="2.71" height="108.05" />
        <rect class="cls-47" x="55.18" y="15.58" width="2.71" height="108.05" />
        <rect class="cls-48" x="61.28" y="15.58" width="2.71" height="108.05" />
        <rect class="cls-49" x="67.38" y="15.58" width="2.71" height="108.05" />
        <rect class="cls-50" x="73.48" y="15.58" width="2.71" height="108.05" />
        <rect class="cls-51" x="79.58" y="15.58" width="2.71" height="108.05" />
        <rect class="cls-52" x="85.68" y="15.58" width="2.71" height="108.05" />
        <rect class="cls-53" x="91.78" y="15.58" width="2.71" height="108.05" />
        <rect class="cls-54" x="97.88" y="15.58" width="2.71" height="108.05" />
        <rect class="cls-55" x="103.98" y="15.58" width="2.71" height="108.05" />
        <rect class="cls-56" x="110.08" y="15.58" width="2.71" height="108.05" />
        <rect class="cls-57" x="116.18" y="15.58" width="2.71" height="108.05" />
        <rect class="cls-58" x="122.28" y="15.58" width="2.71" height="108.05" />
        <rect class="cls-59" x="128.37" y="15.58" width="2.71" height="108.05" />
        <rect class="cls-60" x="134.47" y="15.58" width="2.71" height="108.05" />
        <rect class="cls-61" x="140.57" y="15.58" width="2.71" height="108.05" />
        <rect class="cls-62" x="4.46" y="15.58" width="139.27" height="4.69" />
        <rect class="cls-63" x="4.46" y="41.42" width="139.27" height="4.69" />
        <rect class="cls-64" x="4.46" y="67.26" width="139.27" height="4.69" />
        <rect class="cls-65" x="4.46" y="93.1" width="139.27" height="4.69" />
        <rect class="cls-66" x="4.46" y="118.93" width="139.27" height="4.69" />
        <rect class="cls-67" x="141.25" y="15.58" width="8.42" height="108.05" />
        <rect class="cls-68" x="0.05" y="123.63" width="17.4" height="5.26" />
        <rect class="cls-69" x="0.05" y="128.89" width="6.78" height="11.97" />
        <rect class="cls-70" x="132.55" y="123.19" width="17.4" height="5.26"
            transform="translate(282.49 251.64) rotate(180)" />
        <rect class="cls-71" x="143.17" y="128.45" width="6.78" height="11.97"
            transform="translate(293.11 268.88) rotate(180)" />
        <rect class="cls-72" x="4.25" y="-0.44" width="2.87" height="17.89"
            transform="translate(4.88 -1.69) rotate(29.27)" />
        <rect class="cls-73" x="8.87" y="0.07" width="131.7" height="2.76" />
        <rect class="cls-74" x="0.05" y="15.58" width="8.82" height="108.05" />
    </g>
    
</svg>