<svg xmlns="http://www.w3.org/2000/svg" xmlns:xlink="http://www.w3.org/1999/xlink" viewBox="0 0 60.14 150.25">
    <defs>
        <style>
            .cls-1,
            .cls-10,
            .cls-11,
            .cls-12,
            .cls-13,
            .cls-14,
            .cls-15,
            .cls-16,
            .cls-17,
            .cls-2,
            .cls-21,
            .cls-3,
            .cls-4,
            .cls-45,
            .cls-5,
            .cls-6,
            .cls-7,
            .cls-8,
            .cls-9 {
                stroke: #5ac8f7;
                stroke-linejoin: round;
                stroke-width: 0.25px;
            }

            .cls-1,
            .cls-19 {
                fill: url(#未命名的渐变_105);
            }

            .cls-2,
            .cls-22 {
                fill: url(#未命名的渐变_105-2);
            }

            .cls-3,
            .cls-41 {
                fill: url(#未命名的渐变_175);
            }

            .cls-4,
            .cls-43 {
                fill: url(#未命名的渐变_105-3);
            }

            .cls-46,
            .cls-5 {
                fill: url(#未命名的渐变_105-4);
            }

            .cls-48,
            .cls-6 {
                fill: url(#未命名的渐变_105-5);
            }

            .cls-50,
            .cls-7 {
                fill: url(#未命名的渐变_105-6);
            }

            .cls-52,
            .cls-8 {
                fill: url(#未命名的渐变_175-2);
            }

            .cls-54,
            .cls-9 {
                fill: url(#未命名的渐变_105-7);
            }

            .cls-10,
            .cls-24 {
                fill: url(#未命名的渐变_175-3);
            }

            .cls-11,
            .cls-27 {
                fill: url(#未命名的渐变_105-8);
            }

            .cls-12,
            .cls-29 {
                fill: url(#未命名的渐变_105-9);
            }

            .cls-13,
            .cls-31 {
                fill: url(#未命名的渐变_175-4);
            }

            .cls-14,
            .cls-33 {
                fill: url(#未命名的渐变_105-10);
            }

            .cls-15,
            .cls-35 {
                fill: url(#未命名的渐变_105-11);
            }

            .cls-16,
            .cls-37 {
                fill: url(#未命名的渐变_105-12);
            }

            .cls-17,
            .cls-39 {
                fill: url(#未命名的渐变_105-13);
            }

            .cls-18,
            .cls-61 {
                opacity: 0.2;
            }

            .cls-18,
            .cls-26 {
                isolation: isolate;
            }

            .cls-20 {
                clip-path: url(#clip-path);
            }

            .cls-21 {
                fill: none;
            }

            .cls-23 {
                clip-path: url(#clip-path-2);
            }

            .cls-25 {
                clip-path: url(#clip-path-3);
            }

            .cls-28 {
                clip-path: url(#clip-path-4);
            }

            .cls-30 {
                clip-path: url(#clip-path-5);
            }

            .cls-32 {
                clip-path: url(#clip-path-6);
            }

            .cls-34 {
                clip-path: url(#clip-path-7);
            }

            .cls-36 {
                clip-path: url(#clip-path-8);
            }

            .cls-38 {
                clip-path: url(#clip-path-9);
            }

            .cls-40 {
                clip-path: url(#clip-path-10);
            }

            .cls-42 {
                clip-path: url(#clip-path-11);
            }

            .cls-44 {
                clip-path: url(#clip-path-12);
            }

            .cls-45 {
                fill: url(#未命名的渐变_105-32);
            }

            .cls-47 {
                clip-path: url(#clip-path-13);
            }

            .cls-49 {
                clip-path: url(#clip-path-14);
            }

            .cls-51 {
                clip-path: url(#clip-path-15);
            }

            .cls-53 {
                clip-path: url(#clip-path-16);
            }

            .cls-55 {
                clip-path: url(#clip-path-17);
            }

            .cls-56 {
                fill: #82cbd8;
            }

            .cls-57 {
                fill: url(#未命名的渐变_27);
            }

            .cls-58 {
                fill: url(#未命名的渐变_27-2);
            }

            .cls-59 {
                fill: url(#未命名的渐变_27-3);
            }

            .cls-60 {
                fill: url(#未命名的渐变_27-4);
            }
        </style>
        <linearGradient id="未命名的渐变_105" x1="20.31" y1="95.9" x2="79.49" y2="36.72" gradientUnits="userSpaceOnUse">
            <stop offset="0" stop-color="#2a6aaf" stop-opacity="0" />
            <stop offset="1" stop-color="#5ac8f7" stop-opacity="0.6" />
        </linearGradient>
        <linearGradient id="未命名的渐变_105-2" x1="-23.09" y1="115.14" x2="63.24" y2="28.81" xlink:href="#未命名的渐变_105" />
        <linearGradient id="未命名的渐变_175" x1="42.16" y1="29.5" x2="17.91" y2="5.26" gradientUnits="userSpaceOnUse">
            <stop offset="0" stop-color="#5ac8f7" stop-opacity="0.6" />
            <stop offset="1" stop-color="#2a6aaf" stop-opacity="0" />
        </linearGradient>
        <linearGradient id="未命名的渐变_105-3" x1="17.49" y1="147.31" x2="62.66" y2="102.14" xlink:href="#未命名的渐变_105" />
        <linearGradient id="未命名的渐变_105-4" x1="372.07" y1="50.93" x2="374.6" y2="48.39"
            gradientTransform="matrix(-1, 0, 0, 1, 414.41, 0)" xlink:href="#未命名的渐变_105" />
        <linearGradient id="未命名的渐变_105-5" x1="372.09" y1="43.93" x2="374.62" y2="41.4"
            gradientTransform="matrix(-1, 0, 0, 1, 414.41, 0)" xlink:href="#未命名的渐变_105" />
        <linearGradient id="未命名的渐变_105-6" x1="375.4" y1="50.72" x2="379.67" y2="46.45"
            gradientTransform="matrix(-1, 0, 0, 1, 414.41, 0)" xlink:href="#未命名的渐变_105" />
        <linearGradient id="未命名的渐变_175-2" x1="377.91" y1="51.49" x2="367.81" y2="41.4"
            gradientTransform="matrix(-1, 0, 0, 1, 414.41, 0)" xlink:href="#未命名的渐变_175" />
        <linearGradient id="未命名的渐变_105-7" x1="367.02" y1="45.88" x2="371.29" y2="41.61"
            gradientTransform="matrix(-1, 0, 0, 1, 414.41, 0)" xlink:href="#未命名的渐变_105" />
        <linearGradient id="未命名的渐变_175-3" x1="42.21" y1="144.95" x2="18.05" y2="120.79" xlink:href="#未命名的渐变_175" />
        <linearGradient id="未命名的渐变_105-8" x1="-19.4" y1="118.83" x2="39.79" y2="59.64" xlink:href="#未命名的渐变_105" />
        <linearGradient id="未命名的渐变_105-9" x1="-3.14" y1="126.73" x2="83.18" y2="40.41" xlink:href="#未命名的渐变_105" />
        <linearGradient id="未命名的渐变_175-4" x1="42.04" y1="34.76" x2="17.88" y2="10.6" xlink:href="#未命名的渐变_175" />
        <linearGradient id="未命名的渐变_105-10" x1="46.39" y1="11.97" x2="53.21" y2="5.15" xlink:href="#未命名的渐变_105" />
        <linearGradient id="未命名的渐变_105-11" x1="3" y1="31.21" x2="36.96" y2="-2.75" xlink:href="#未命名的渐变_105" />
        <linearGradient id="未命名的渐变_105-12" x1="6.69" y1="34.9" x2="13.51" y2="28.08" xlink:href="#未命名的渐变_105" />
        <linearGradient id="未命名的渐变_105-13" x1="22.94" y1="42.8" x2="56.9" y2="8.84" xlink:href="#未命名的渐变_105" />
        <clipPath id="clip-path">
            <polygon class="cls-1" points="59.79 17.01 39.85 5.42 40.01 115.61 59.96 127.2 59.79 17.01" />
        </clipPath>
        <clipPath id="clip-path-2">
            <polygon class="cls-2" points="39.85 5.42 0.14 28.35 0.3 138.53 40.01 115.61 39.85 5.42" />
        </clipPath>
        <clipPath id="clip-path-3">
            <polygon class="cls-10" points="0.3 138.53 20.25 150.13 59.96 127.2 40.01 115.61 0.3 138.53" />
        </clipPath>
        <clipPath id="clip-path-4">
            <polygon class="cls-11" points="0.14 28.35 0.3 138.53 20.25 150.13 20.08 39.94 0.14 28.35" />
        </clipPath>
        <clipPath id="clip-path-5">
            <polygon class="cls-12" points="20.08 39.94 20.25 150.13 59.96 127.2 59.79 17.01 20.08 39.94" />
        </clipPath>
        <clipPath id="clip-path-6">
            <polygon class="cls-13" points="0.14 28.35 20.08 39.94 59.79 17.01 39.85 5.42 0.14 28.35" />
        </clipPath>
        <clipPath id="clip-path-7">
            <polygon class="cls-14" points="59.78 11.71 39.83 0.13 39.83 5.41 59.78 17 59.78 11.71" />
        </clipPath>
        <clipPath id="clip-path-8">
            <polygon class="cls-15" points="39.83 0.13 0.13 23.05 0.13 28.34 39.83 5.41 39.83 0.13" />
        </clipPath>
        <clipPath id="clip-path-9">
            <polygon class="cls-16" points="0.13 23.05 0.13 28.34 20.07 39.93 20.07 34.64 0.13 23.05" />
        </clipPath>
        <clipPath id="clip-path-10">
            <polygon class="cls-17" points="20.07 34.64 20.07 39.93 59.78 17 59.78 11.71 20.07 34.64" />
        </clipPath>
        <clipPath id="clip-path-11">
            <polygon class="cls-3" points="0.13 23.05 20.24 34.64 59.94 11.71 39.83 0.13 0.13 23.05" />
        </clipPath>
        <clipPath id="clip-path-12">
            <polygon class="cls-4" points="59.85 99.33 20.14 122.25 20.3 150.13 60.01 127.2 59.85 99.33" />
        </clipPath>
        <linearGradient id="未命名的渐变_105-32" x1="14.19" y1="144.01" x2="34.84" y2="123.35" xlink:href="#未命名的渐变_105" />
        <clipPath id="clip-path-13">
            <polygon class="cls-5" points="36.4 51.8 37.37 52.36 45.75 47.52 44.78 46.96 36.4 51.8" />
        </clipPath>
        <clipPath id="clip-path-14">
            <polygon class="cls-6" points="36.38 44.8 37.35 45.37 45.73 40.53 44.76 39.97 36.38 44.8" />
        </clipPath>
        <clipPath id="clip-path-15">
            <polygon class="cls-7" points="36.38 44.8 36.4 51.8 37.37 52.36 37.35 45.37 36.38 44.8" />
        </clipPath>
        <clipPath id="clip-path-16">
            <polygon class="cls-8" points="37.35 45.37 37.37 52.36 45.75 47.52 45.73 40.53 37.35 45.37" />
        </clipPath>
        <clipPath id="clip-path-17">
            <polygon class="cls-9" points="45.73 40.53 44.76 39.97 44.78 46.96 45.75 47.52 45.73 40.53" />
        </clipPath>
        <linearGradient id="未命名的渐变_27" x1="38.82" y1="47.89" x2="40.53" y2="46.38" gradientUnits="userSpaceOnUse">
            <stop offset="0" stop-color="#2a6aaf" stop-opacity="0" />
            <stop offset="0.23" stop-color="#2a6bb0" stop-opacity="0.01" />
            <stop offset="0.36" stop-color="#2b70b2" stop-opacity="0.04" />
            <stop offset="0.48" stop-color="#2d78b7" stop-opacity="0.1" />
            <stop offset="0.58" stop-color="#3084bd" stop-opacity="0.18" />
            <stop offset="0.67" stop-color="#3493c5" stop-opacity="0.28" />
            <stop offset="0.75" stop-color="#38a5cf" stop-opacity="0.41" />
            <stop offset="0.83" stop-color="#3dbbdb" stop-opacity="0.56" />
            <stop offset="0.91" stop-color="#43d4e9" stop-opacity="0.74" />
            <stop offset="0.98" stop-color="#4af0f9" stop-opacity="0.93" />
            <stop offset="1" stop-color="#4cfafe" />
        </linearGradient>
        <linearGradient id="未命名的渐变_27-2" x1="40.62" y1="46.87" x2="41.97" y2="45.68" xlink:href="#未命名的渐变_27" />
        <linearGradient id="未命名的渐变_27-3" x1="41.93" y1="46.74" x2="42.37" y2="46.36" xlink:href="#未命名的渐变_27" />
        <linearGradient id="未命名的渐变_27-4" x1="42.45" y1="46.16" x2="44.07" y2="44.72" xlink:href="#未命名的渐变_27" />
    </defs>
    <title>Air conditioner（空调）</title>
    <g id="图层_2" data-name="图层 2">
        <g id="图层_27" data-name="图层 27">
            <g id="Air_conditioner_空调_" data-name="Air conditioner（空调）">
                <g class="cls-18">
                    <polygon class="cls-19" points="59.79 17.01 39.85 5.42 40.01 115.61 59.96 127.2 59.79 17.01" />
                    <g class="cls-20">
                        <polygon class="cls-1" points="59.79 17.01 39.85 5.42 40.01 115.61 59.96 127.2 59.79 17.01" />
                    </g>
                    <polygon class="cls-21" points="59.79 17.01 39.85 5.42 40.01 115.61 59.96 127.2 59.79 17.01" />
                </g>
                <g class="cls-18">
                    <polygon class="cls-22" points="39.85 5.42 0.14 28.35 0.3 138.53 40.01 115.61 39.85 5.42" />
                    <g class="cls-23">
                        <polygon class="cls-2" points="39.85 5.42 0.14 28.35 0.3 138.53 40.01 115.61 39.85 5.42" />
                    </g>
                    <polygon class="cls-21" points="39.85 5.42 0.14 28.35 0.3 138.53 40.01 115.61 39.85 5.42" />
                </g>
                <g class="cls-18">
                    <polygon class="cls-24" points="0.3 138.53 20.25 150.13 59.96 127.2 40.01 115.61 0.3 138.53" />
                    <g class="cls-25">
                        <polygon class="cls-10" points="0.3 138.53 20.25 150.13 59.96 127.2 40.01 115.61 0.3 138.53" />
                    </g>
                    <polygon class="cls-21" points="0.3 138.53 20.25 150.13 59.96 127.2 40.01 115.61 0.3 138.53" />
                </g>
                <g class="cls-26">
                    <polygon class="cls-27" points="0.14 28.35 0.3 138.53 20.25 150.13 20.08 39.94 0.14 28.35" />
                    <g class="cls-28">
                        <polygon class="cls-11" points="0.14 28.35 0.3 138.53 20.25 150.13 20.08 39.94 0.14 28.35" />
                    </g>
                    <polygon class="cls-21" points="0.14 28.35 0.3 138.53 20.25 150.13 20.08 39.94 0.14 28.35" />
                </g>
                <g class="cls-26">
                    <polygon class="cls-29" points="20.08 39.94 20.25 150.13 59.96 127.2 59.79 17.01 20.08 39.94" />
                    <g class="cls-30">
                        <polygon class="cls-12" points="20.08 39.94 20.25 150.13 59.96 127.2 59.79 17.01 20.08 39.94" />
                    </g>
                    <polygon class="cls-21" points="20.08 39.94 20.25 150.13 59.96 127.2 59.79 17.01 20.08 39.94" />
                </g>
                <g class="cls-18">
                    <polygon class="cls-31" points="0.14 28.35 20.08 39.94 59.79 17.01 39.85 5.42 0.14 28.35" />
                    <g class="cls-32">
                        <polygon class="cls-13" points="0.14 28.35 20.08 39.94 59.79 17.01 39.85 5.42 0.14 28.35" />
                    </g>
                    <polygon class="cls-21" points="0.14 28.35 20.08 39.94 59.79 17.01 39.85 5.42 0.14 28.35" />
                </g>
                <g class="cls-18">
                    <polygon class="cls-33" points="59.78 11.71 39.83 0.13 39.83 5.41 59.78 17 59.78 11.71" />
                    <g class="cls-34">
                        <polygon class="cls-14" points="59.78 11.71 39.83 0.13 39.83 5.41 59.78 17 59.78 11.71" />
                    </g>
                    <polygon class="cls-21" points="59.78 11.71 39.83 0.13 39.83 5.41 59.78 17 59.78 11.71" />
                </g>
                <g class="cls-18">
                    <polygon class="cls-35" points="39.83 0.13 0.13 23.05 0.13 28.34 39.83 5.41 39.83 0.13" />
                    <g class="cls-36">
                        <polygon class="cls-15" points="39.83 0.13 0.13 23.05 0.13 28.34 39.83 5.41 39.83 0.13" />
                    </g>
                    <polygon class="cls-21" points="39.83 0.13 0.13 23.05 0.13 28.34 39.83 5.41 39.83 0.13" />
                </g>
                <g class="cls-26">
                    <polygon class="cls-37" points="0.13 23.05 0.13 28.34 20.07 39.93 20.07 34.64 0.13 23.05" />
                    <g class="cls-38">
                        <polygon class="cls-16" points="0.13 23.05 0.13 28.34 20.07 39.93 20.07 34.64 0.13 23.05" />
                    </g>
                    <polygon class="cls-21" points="0.13 23.05 0.13 28.34 20.07 39.93 20.07 34.64 0.13 23.05" />
                </g>
                <g class="cls-26">
                    <polygon class="cls-39" points="20.07 34.64 20.07 39.93 59.78 17 59.78 11.71 20.07 34.64" />
                    <g class="cls-40">
                        <polygon class="cls-17" points="20.07 34.64 20.07 39.93 59.78 17 59.78 11.71 20.07 34.64" />
                    </g>
                    <polygon class="cls-21" points="20.07 34.64 20.07 39.93 59.78 17 59.78 11.71 20.07 34.64" />
                </g>
                <g class="cls-26">
                    <polygon class="cls-41" points="0.13 23.05 20.24 34.64 59.94 11.71 39.83 0.13 0.13 23.05" />
                    <g class="cls-42">
                        <polygon class="cls-3" points="0.13 23.05 20.24 34.64 59.94 11.71 39.83 0.13 0.13 23.05" />
                    </g>
                    <polygon class="cls-21" points="0.13 23.05 20.24 34.64 59.94 11.71 39.83 0.13 0.13 23.05" />
                </g>
                <g class="cls-26">
                    <polygon class="cls-43" points="59.85 99.33 20.14 122.25 20.3 150.13 60.01 127.2 59.85 99.33" />
                    <g class="cls-44">
                        <polygon class="cls-4" points="59.85 99.33 20.14 122.25 20.3 150.13 60.01 127.2 59.85 99.33" />
                        <polygon class="cls-45"
                            points="28.76 117.27 28.76 145.25 20.31 150.13 20.14 122.25 28.76 117.27" />
                    </g>
                    <polygon class="cls-21" points="59.85 99.33 20.14 122.25 20.3 150.13 60.01 127.2 59.85 99.33" />
                </g>
                <g class="cls-18">
                    <polygon class="cls-46" points="36.4 51.8 37.37 52.36 45.75 47.52 44.78 46.96 36.4 51.8" />
                    <g class="cls-47">
                        <polygon class="cls-5" points="36.4 51.8 37.37 52.36 45.75 47.52 44.78 46.96 36.4 51.8" />
                    </g>
                    <polygon class="cls-21" points="36.4 51.8 37.37 52.36 45.75 47.52 44.78 46.96 36.4 51.8" />
                </g>
                <g class="cls-26">
                    <polygon class="cls-48" points="36.38 44.8 37.35 45.37 45.73 40.53 44.76 39.97 36.38 44.8" />
                    <g class="cls-49">
                        <polygon class="cls-6" points="36.38 44.8 37.35 45.37 45.73 40.53 44.76 39.97 36.38 44.8" />
                    </g>
                    <polygon class="cls-21" points="36.38 44.8 37.35 45.37 45.73 40.53 44.76 39.97 36.38 44.8" />
                </g>
                <g class="cls-26">
                    <polygon class="cls-50" points="36.38 44.8 36.4 51.8 37.37 52.36 37.35 45.37 36.38 44.8" />
                    <g class="cls-51">
                        <polygon class="cls-7" points="36.38 44.8 36.4 51.8 37.37 52.36 37.35 45.37 36.38 44.8" />
                    </g>
                    <polygon class="cls-21" points="36.38 44.8 36.4 51.8 37.37 52.36 37.35 45.37 36.38 44.8" />
                </g>
                <polygon class="cls-52" points="37.35 45.37 37.37 52.36 45.75 47.52 45.73 40.53 37.35 45.37" />
                <g class="cls-53">
                    <polygon class="cls-8" points="37.35 45.37 37.37 52.36 45.75 47.52 45.73 40.53 37.35 45.37" />
                </g>
                <polygon class="cls-21" points="37.35 45.37 37.37 52.36 45.75 47.52 45.73 40.53 37.35 45.37" />
                <g class="cls-18">
                    <polygon class="cls-54" points="45.73 40.53 44.76 39.97 44.78 46.96 45.75 47.52 45.73 40.53" />
                    <g class="cls-55">
                        <polygon class="cls-9" points="45.73 40.53 44.76 39.97 44.78 46.96 45.75 47.52 45.73 40.53" />
                    </g>
                    <polygon class="cls-21" points="45.73 40.53 44.76 39.97 44.78 46.96 45.75 47.52 45.73 40.53" />
                </g>
                <path class="cls-56"
                    d="M39.36,47.36l0,.41-.25.27,0-.49a.13.13,0,0,0,0,0l.06-.07.08-.09Zm0,.41.64-.31.12,0-.13.14-.9.42Zm.76-.88-.09.1A.12.12,0,0,1,40,47l-.07,0-.53.24-.12,0,.08-.1.05,0,.08,0,.53-.25Zm-.09-.46-.65.3-.12,0,.12-.14.63-.29a.19.19,0,0,1,.12,0l.05,0Zm0,.4,0-.39.15-.17.06,0a0,0,0,0,1,0,0v.35s0,0,0,0,0,0,0,.06l-.09.09Z" />
                <path class="cls-57"
                    d="M40.13,46.25h0l.05,0-.15.16-.65.3-.12,0,.12-.14.63-.29a.16.16,0,0,1,.09,0m.11,0,.06,0a0,0,0,0,1,0,0v.35s0,0,0,0,0,0,0,.06l-.09.09-.11,0,0-.39.15-.17m-.21.6.12,0-.09.1A.12.12,0,0,1,40,47l-.07,0-.53.24-.12,0,.08-.1.05,0,.08,0,.53-.25m-.77.47.1,0,0,.41-.25.27,0-.49a.13.13,0,0,0,0,0l.06-.07.08-.09m.77.12.12,0-.13.14-.9.42.27-.28.64-.31m.1-1.31a.27.27,0,0,0-.14,0l-.62.29,0,0-.13.14a.12.12,0,0,0,0,.1.11.11,0,0,0,.08.07l.12,0h.06l.53-.25v.22l-.51.24-.09,0a.13.13,0,0,0-.07.06l-.09.1v0s0,0,0,0l-.08.09a.26.26,0,0,0-.06.08s0,0,0,.09l0,.5a.09.09,0,0,0,.06.09h.12l.9-.42,0,0,.12-.14a.1.1,0,0,0,0-.1.14.14,0,0,0-.08-.07l-.12,0H40l-.54.26v-.22l.52-.24.09-.05.07-.06.09-.1s0,0,0,0l0,0,.08-.09a.23.23,0,0,0,0-.07.24.24,0,0,0,0-.09V46.3a.14.14,0,0,0-.11-.11h-.19Z" />
                <path class="cls-56"
                    d="M40.79,46l0,.51-.12.14h-.06s-.06,0-.06,0v0l0-.45.13-.15Zm0,.51.62-.29.12,0-.14.14-.51.24a.33.33,0,0,1-.14,0h-.08Zm.89-.23,0,.52-.13.13-.12,0,0-.51.13-.14Zm0-.72,0,.51-.13.14-.12,0,0-.51.13-.15Z" />
                <path class="cls-58"
                    d="M41.61,45.52l.12,0,0,.51-.13.14-.12,0,0-.51.13-.15m-.94.44.12,0,0,.51-.12.14h-.06s-.06,0-.06,0v0l0-.45.13-.15m.75.26.12,0-.14.14-.51.24a.3.3,0,0,1-.13,0h-.09l.13-.15.62-.29m.15,0,.12,0,0,.52-.13.13-.12,0,0-.51.13-.14m0-.84a.12.12,0,0,0-.08,0l-.12.15a.06.06,0,0,0,0,.06l0,.47-.49.23,0-.37a.1.1,0,0,0-.07-.1l-.12,0h0a.13.13,0,0,0-.07,0l-.13.14s0,0,0,.06l0,.45v.07a.17.17,0,0,0,.14.12h.19a.45.45,0,0,0,.18-.05l.4-.19v.37a.1.1,0,0,0,.07.11l.12,0h0a.11.11,0,0,0,.08,0l.12-.14a.07.07,0,0,0,0-.06l0-.51a.12.12,0,0,0-.06-.1l0,0a.09.09,0,0,0,0-.06l0-.52a.11.11,0,0,0-.08-.1l-.11,0Z" />
                <path class="cls-56" d="M42.28,46.41v.17l-.25.11v-.17Z" />
                <path class="cls-59"
                    d="M42.28,46.41v.17l-.25.11v-.17l.25-.11m0-.1h0l-.25.11a.11.11,0,0,0-.06.09v.16a.11.11,0,0,0,0,.09l.05,0h0l.24-.11a.11.11,0,0,0,.06-.09v-.17a.1.1,0,0,0-.05-.08l0,0Z" />
                <path class="cls-56"
                    d="M42.91,45.68l0,.42-.15.17h-.05s0,0,0,0a0,0,0,0,1,0,0l0-.4.12-.14Zm0,.42.61-.28.13,0-.06.07a.25.25,0,0,1-.12.08l-.54.25a.15.15,0,0,1-.12,0h0Zm0-1,0,.41-.13.15-.11,0,0-.36s0-.06,0-.07,0,0,0,0l.08-.09Zm.66-.33-.61.28-.14,0,.06-.07a.48.48,0,0,1,.11-.09l.56-.26a.19.19,0,0,1,.12,0l0,0Zm0,1,0-.42.12-.15.12,0,0,.36s0,.06,0,.07l0,0-.09.08Zm0-.59,0-.41.15-.17h0s.05,0,.05,0v0l0,.39-.13.15Z" />
                <path class="cls-60"
                    d="M43.67,44.59h0l0,0-.15.16-.61.28-.14,0,.06-.07a.48.48,0,0,1,.11-.09l.56-.26.09,0m.12,0h0s.05,0,.05,0v0l0,.39-.13.15-.12,0,0-.41.15-.17m-1,.46.12,0,0,.41-.13.15-.11,0,0-.36s0-.06,0-.07,0,0,0,0l.08-.09m.91.14.12,0,0,.36s0,.06,0,.07l0,0-.09.08-.12,0,0-.42.12-.15m-.94.45.12,0,0,.42-.15.17h-.05s0,0,0,0a0,0,0,0,1,0,0l0-.4.12-.14m.75.16.13,0-.06.07a.25.25,0,0,1-.12.08l-.54.25a.19.19,0,0,1-.1,0h-.07l.15-.17.61-.28m.13-1.33-.13,0-.56.26a.44.44,0,0,0-.15.12l0,.06s0,0,0,0h0l-.08.09a.21.21,0,0,0-.06.08.25.25,0,0,0,0,.1l0,.35a.09.09,0,0,0,0,.09l0,0a.11.11,0,0,0,0,.06l0,.41s0,0,0,0a.14.14,0,0,0,.12.11h.18a.43.43,0,0,0,.14,0l.54-.26a.4.4,0,0,0,.15-.1l.07-.07a.08.08,0,0,0,0-.05h0l.09-.09a.21.21,0,0,0,.06-.08.58.58,0,0,0,0-.1l0-.35a.1.1,0,0,0,0-.09l0,0a.07.07,0,0,0,0-.06l0-.39v-.06a.18.18,0,0,0-.13-.11h-.18Zm-.63.65.49-.23,0,.27a.13.13,0,0,0,0,.09l0,0a.14.14,0,0,0,0,.06l0,.38L43,46v-.27a.12.12,0,0,0,0-.09l0,0a.14.14,0,0,0,0-.06l0-.38Z" />
                
            </g>
        </g>
    </g>
</svg>