<svg xmlns="http://www.w3.org/2000/svg" xmlns:xlink="http://www.w3.org/1999/xlink" viewBox="0 0 150.25 138.46">
    <defs>
        <style>
            .cls-1,
            .cls-10,
            .cls-11,
            .cls-12,
            .cls-13,
            .cls-14,
            .cls-146,
            .cls-149,
            .cls-15,
            .cls-152,
            .cls-16,
            .cls-17,
            .cls-18,
            .cls-19,
            .cls-2,
            .cls-20,
            .cls-21,
            .cls-22,
            .cls-23,
            .cls-24,
            .cls-25,
            .cls-26,
            .cls-27,
            .cls-28,
            .cls-29,
            .cls-3,
            .cls-30,
            .cls-31,
            .cls-32,
            .cls-33,
            .cls-34,
            .cls-35,
            .cls-36,
            .cls-37,
            .cls-38,
            .cls-39,
            .cls-4,
            .cls-40,
            .cls-41,
            .cls-42,
            .cls-43,
            .cls-44,
            .cls-45,
            .cls-46,
            .cls-5,
            .cls-50,
            .cls-56,
            .cls-59,
            .cls-6,
            .cls-66,
            .cls-69,
            .cls-7,
            .cls-8,
            .cls-80,
            .cls-83,
            .cls-9,
            .cls-90 {
                stroke: #5ac8f7;
                stroke-linejoin: round;
                stroke-width: 0.25px;
            }

            .cls-1,
            .cls-48 {
                fill: url(#未命名的渐变_10);
            }

            .cls-2,
            .cls-51 {
                fill: url(#未命名的渐变_10-2);
            }

            .cls-3,
            .cls-74 {
                fill: url(#未命名的渐变_10-3);
            }

            .cls-4,
            .cls-76 {
                fill: url(#未命名的渐变_10-4);
            }

            .cls-5,
            .cls-78 {
                fill: url(#未命名的渐变_10-5);
            }

            .cls-6,
            .cls-81 {
                fill: url(#未命名的渐变_10-6);
            }

            .cls-7,
            .cls-84 {
                fill: url(#未命名的渐变_10-7);
            }

            .cls-8,
            .cls-86 {
                fill: url(#未命名的渐变_10-8);
            }

            .cls-88,
            .cls-9 {
                fill: url(#未命名的渐变_87);
            }

            .cls-10,
            .cls-91 {
                fill: url(#未命名的渐变_87-2);
            }

            .cls-11,
            .cls-93 {
                fill: url(#未命名的渐变_10-9);
            }

            .cls-12,
            .cls-95 {
                fill: url(#未命名的渐变_10-10);
            }

            .cls-13,
            .cls-54 {
                fill: url(#未命名的渐变_10-11);
            }

            .cls-14,
            .cls-98 {
                fill: url(#未命名的渐变_10-12);
            }

            .cls-100,
            .cls-15 {
                fill: url(#未命名的渐变_10-13);
            }

            .cls-102,
            .cls-16 {
                fill: url(#未命名的渐变_10-14);
            }

            .cls-104,
            .cls-17 {
                fill: url(#未命名的渐变_10-15);
            }

            .cls-106,
            .cls-18 {
                fill: url(#未命名的渐变_10-16);
            }

            .cls-108,
            .cls-19 {
                fill: url(#未命名的渐变_10-17);
            }

            .cls-110,
            .cls-20 {
                fill: url(#未命名的渐变_10-18);
            }

            .cls-112,
            .cls-21 {
                fill: url(#未命名的渐变_10-19);
            }

            .cls-114,
            .cls-22 {
                fill: url(#未命名的渐变_10-20);
            }

            .cls-116,
            .cls-23 {
                fill: url(#未命名的渐变_10-21);
            }

            .cls-24,
            .cls-57 {
                fill: url(#未命名的渐变_10-22);
            }

            .cls-118,
            .cls-25 {
                fill: url(#未命名的渐变_10-23);
            }

            .cls-120,
            .cls-26 {
                fill: url(#未命名的渐变_10-24);
            }

            .cls-122,
            .cls-27 {
                fill: url(#未命名的渐变_10-25);
            }

            .cls-124,
            .cls-28 {
                fill: url(#未命名的渐变_10-26);
            }

            .cls-126,
            .cls-29 {
                fill: url(#未命名的渐变_10-27);
            }

            .cls-128,
            .cls-30 {
                fill: url(#未命名的渐变_10-28);
            }

            .cls-130,
            .cls-31 {
                fill: url(#未命名的渐变_87-3);
            }

            .cls-132,
            .cls-32 {
                fill: url(#未命名的渐变_87-4);
            }

            .cls-134,
            .cls-33 {
                fill: url(#未命名的渐变_10-29);
            }

            .cls-136,
            .cls-34 {
                fill: url(#未命名的渐变_10-30);
            }

            .cls-35,
            .cls-60 {
                fill: url(#未命名的渐变_10-31);
            }

            .cls-138,
            .cls-36 {
                fill: url(#未命名的渐变_10-32);
            }

            .cls-140,
            .cls-37 {
                fill: url(#未命名的渐变_10-33);
            }

            .cls-142,
            .cls-38 {
                fill: url(#未命名的渐变_10-34);
            }

            .cls-144,
            .cls-39 {
                fill: url(#未命名的渐变_10-35);
            }

            .cls-147,
            .cls-40 {
                fill: url(#未命名的渐变_10-36);
            }

            .cls-150,
            .cls-41 {
                fill: url(#未命名的渐变_10-37);
            }

            .cls-42,
            .cls-62 {
                fill: url(#未命名的渐变_10-38);
            }

            .cls-43,
            .cls-64 {
                fill: url(#未命名的渐变_10-39);
            }

            .cls-44,
            .cls-67 {
                fill: url(#未命名的渐变_10-40);
            }

            .cls-45,
            .cls-70 {
                fill: url(#未命名的渐变_10-41);
            }

            .cls-46,
            .cls-72 {
                fill: url(#未命名的渐变_10-42);
            }

            .cls-47,
            .cls-97 {
                opacity: 0.2;
            }

            .cls-47,
            .cls-53 {
                isolation: isolate;
            }

            .cls-49 {
                clip-path: url(#clip-path);
            }

            .cls-50 {
                fill: none;
            }

            .cls-52 {
                clip-path: url(#clip-path-2);
            }

            .cls-55 {
                clip-path: url(#clip-path-3);
            }

            .cls-56 {
                fill: url(#未命名的渐变_87-5);
            }

            .cls-58 {
                clip-path: url(#clip-path-4);
            }

            .cls-59 {
                fill: url(#未命名的渐变_87-6);
            }

            .cls-61 {
                clip-path: url(#clip-path-5);
            }

            .cls-63 {
                clip-path: url(#clip-path-6);
            }

            .cls-65 {
                clip-path: url(#clip-path-7);
            }

            .cls-66 {
                fill: url(#未命名的渐变_87-7);
            }

            .cls-68 {
                clip-path: url(#clip-path-8);
            }

            .cls-69 {
                fill: url(#未命名的渐变_87-8);
            }

            .cls-71 {
                clip-path: url(#clip-path-9);
            }

            .cls-73 {
                clip-path: url(#clip-path-10);
            }

            .cls-75 {
                clip-path: url(#clip-path-11);
            }

            .cls-77 {
                clip-path: url(#clip-path-12);
            }

            .cls-79 {
                clip-path: url(#clip-path-13);
            }

            .cls-80 {
                fill: url(#未命名的渐变_87-9);
            }

            .cls-82 {
                clip-path: url(#clip-path-14);
            }

            .cls-83 {
                fill: url(#未命名的渐变_87-10);
            }

            .cls-85 {
                clip-path: url(#clip-path-15);
            }

            .cls-87 {
                clip-path: url(#clip-path-16);
            }

            .cls-89 {
                clip-path: url(#clip-path-17);
            }

            .cls-90 {
                fill: url(#未命名的渐变_10-69);
            }

            .cls-92 {
                clip-path: url(#clip-path-18);
            }

            .cls-94 {
                clip-path: url(#clip-path-19);
            }

            .cls-96 {
                clip-path: url(#clip-path-20);
            }

            .cls-99 {
                clip-path: url(#clip-path-21);
            }

            .cls-101 {
                clip-path: url(#clip-path-22);
            }

            .cls-103 {
                clip-path: url(#clip-path-23);
            }

            .cls-105 {
                clip-path: url(#clip-path-24);
            }

            .cls-107 {
                clip-path: url(#clip-path-25);
            }

            .cls-109 {
                clip-path: url(#clip-path-26);
            }

            .cls-111 {
                clip-path: url(#clip-path-27);
            }

            .cls-113 {
                clip-path: url(#clip-path-28);
            }

            .cls-115 {
                clip-path: url(#clip-path-29);
            }

            .cls-117 {
                clip-path: url(#clip-path-30);
            }

            .cls-119 {
                clip-path: url(#clip-path-31);
            }

            .cls-121 {
                clip-path: url(#clip-path-32);
            }

            .cls-123 {
                clip-path: url(#clip-path-33);
            }

            .cls-125 {
                clip-path: url(#clip-path-34);
            }

            .cls-127 {
                clip-path: url(#clip-path-35);
            }

            .cls-129 {
                clip-path: url(#clip-path-36);
            }

            .cls-131 {
                clip-path: url(#clip-path-37);
            }

            .cls-133 {
                clip-path: url(#clip-path-38);
            }

            .cls-135 {
                clip-path: url(#clip-path-39);
            }

            .cls-137 {
                clip-path: url(#clip-path-40);
            }

            .cls-139 {
                clip-path: url(#clip-path-41);
            }

            .cls-141 {
                clip-path: url(#clip-path-42);
            }

            .cls-143 {
                clip-path: url(#clip-path-43);
            }

            .cls-145 {
                clip-path: url(#clip-path-44);
            }

            .cls-146 {
                fill: url(#未命名的渐变_87-18);
            }

            .cls-148 {
                clip-path: url(#clip-path-45);
            }

            .cls-149 {
                fill: url(#未命名的渐变_87-19);
            }

            .cls-151 {
                clip-path: url(#clip-path-46);
            }

            .cls-152 {
                fill: url(#未命名的渐变_10-119);
            }
        </style>
        <linearGradient id="未命名的渐变_10" x1="131.68" y1="100.17" x2="155.32" y2="76.53" gradientUnits="userSpaceOnUse">
            <stop offset="0" stop-color="#5ac8f7" stop-opacity="0.6" />
            <stop offset="1" stop-color="#2a6aaf" stop-opacity="0" />
        </linearGradient>
        <linearGradient id="未命名的渐变_10-2" x1="137.36" y1="98.9" x2="158.45" y2="77.8" xlink:href="#未命名的渐变_10" />
        <linearGradient id="未命名的渐变_10-3" x1="92.21" y1="123.12" x2="115.84" y2="99.49" xlink:href="#未命名的渐变_10" />
        <linearGradient id="未命名的渐变_10-4" x1="97.89" y1="121.85" x2="118.98" y2="100.76" xlink:href="#未命名的渐变_10" />
        <linearGradient id="未命名的渐变_10-5" x1="96.63" y1="125.67" x2="120.26" y2="102.04" xlink:href="#未命名的渐变_10" />
        <linearGradient id="未命名的渐变_10-6" x1="93.49" y1="124.4" x2="114.59" y2="103.31" xlink:href="#未命名的渐变_10" />
        <linearGradient id="未命名的渐变_10-7" x1="108.15" y1="98.76" x2="143.78" y2="63.13" xlink:href="#未命名的渐变_10" />
        <linearGradient id="未命名的渐变_10-8" x1="108.16" y1="95.72" x2="143.79" y2="60.09" xlink:href="#未命名的渐变_10" />
        <linearGradient id="未命名的渐变_87" x1="110.06" y1="98.81" x2="146.29" y2="62.59" gradientUnits="userSpaceOnUse">
            <stop offset="0" stop-color="#2a6aaf" stop-opacity="0" />
            <stop offset="1" stop-color="#5ac8f7" stop-opacity="0.6" />
        </linearGradient>
        <linearGradient id="未命名的渐变_87-2" x1="102.79" y1="93.41" x2="105.25" y2="90.95" xlink:href="#未命名的渐变_87" />
        <linearGradient id="未命名的渐变_10-9" x1="105.65" y1="96.26" x2="141.87" y2="60.04" xlink:href="#未命名的渐变_10" />
        <linearGradient id="未命名的渐变_10-10" x1="146.68" y1="67.9" x2="149.14" y2="65.44" xlink:href="#未命名的渐变_10" />
        <linearGradient id="未命名的渐变_10-11" x1="136.1" y1="102.72" x2="159.73" y2="79.08" xlink:href="#未命名的渐变_10" />
        <linearGradient id="未命名的渐变_10-12" x1="30.03" y1="41.44" x2="53.66" y2="17.81" xlink:href="#未命名的渐变_10" />
        <linearGradient id="未命名的渐变_10-13" x1="35.7" y1="40.17" x2="56.8" y2="19.08" xlink:href="#未命名的渐变_10" />
        <linearGradient id="未命名的渐变_10-14" x1="34.44" y1="44" x2="58.08" y2="20.36" xlink:href="#未命名的渐变_10" />
        <linearGradient id="未命名的渐变_10-15" x1="31.31" y1="42.73" x2="52.4" y2="21.63" xlink:href="#未命名的渐变_10" />
        <linearGradient id="未命名的渐变_10-16" x1="3.99" y1="80.89" x2="40.22" y2="44.67" xlink:href="#未命名的渐变_10" />
        <linearGradient id="未命名的渐变_10-17" x1="6.49" y1="83.4" x2="42.12" y2="47.77" xlink:href="#未命名的渐变_10" />
        <linearGradient id="未命名的渐变_10-18" x1="6.5" y1="80.35" x2="42.13" y2="44.72" xlink:href="#未命名的渐变_10" />
        <linearGradient id="未命名的渐变_10-19" x1="8.41" y1="83.44" x2="44.63" y2="47.22" xlink:href="#未命名的渐变_10" />
        <linearGradient id="未命名的渐变_10-20" x1="45.03" y1="52.54" x2="47.49" y2="50.07" xlink:href="#未命名的渐变_10" />
        <linearGradient id="未命名的渐变_10-21" x1="1.14" y1="78.04" x2="3.6" y2="75.58" xlink:href="#未命名的渐变_10" />
        <linearGradient id="未命名的渐变_10-22" x1="132.96" y1="101.45" x2="154.06" y2="80.36" xlink:href="#未命名的渐变_10" />
        <linearGradient id="未命名的渐变_10-23" x1="-9.44" y1="64.4" x2="14.19" y2="40.76" xlink:href="#未命名的渐变_10" />
        <linearGradient id="未命名的渐变_10-24" x1="-3.77" y1="63.13" x2="17.32" y2="42.03" xlink:href="#未命名的渐变_10" />
        <linearGradient id="未命名的渐变_10-25" x1="-5.03" y1="66.95" x2="18.61" y2="43.31" xlink:href="#未命名的渐变_10" />
        <linearGradient id="未命名的渐变_10-26" x1="-8.16" y1="65.68" x2="12.93" y2="44.59" xlink:href="#未命名的渐变_10" />
        <linearGradient id="未命名的渐变_10-27" x1="6.49" y1="40.04" x2="42.12" y2="4.41" xlink:href="#未命名的渐变_10" />
        <linearGradient id="未命名的渐变_10-28" x1="6.5" y1="36.99" x2="42.13" y2="1.36" xlink:href="#未命名的渐变_10" />
        <linearGradient id="未命名的渐变_87-3" x1="8.41" y1="40.09" x2="44.63" y2="3.87" xlink:href="#未命名的渐变_87" />
        <linearGradient id="未命名的渐变_87-4" x1="1.14" y1="34.69" x2="3.6" y2="32.22" xlink:href="#未命名的渐变_87" />
        <linearGradient id="未命名的渐变_10-29" x1="3.99" y1="37.54" x2="40.22" y2="1.32" xlink:href="#未命名的渐变_10" />
        <linearGradient id="未命名的渐变_10-30" x1="45.03" y1="9.18" x2="47.49" y2="6.72" xlink:href="#未命名的渐变_10" />
        <linearGradient id="未命名的渐变_10-31" x1="105.65" y1="139.62" x2="141.87" y2="103.39" xlink:href="#未命名的渐变_10" />
        <linearGradient id="未命名的渐变_10-32" x1="46.53" y1="77.11" x2="103.63" y2="20.01" xlink:href="#未命名的渐变_10" />
        <linearGradient id="未命名的渐变_10-33" x1="3.46" y1="34.04" x2="40.7" y2="-3.21" xlink:href="#未命名的渐变_10" />
        <linearGradient id="未命名的渐变_10-34" x1="84.56" y1="45.75" x2="109.51" y2="20.79" xlink:href="#未命名的渐变_10" />
        <linearGradient id="未命名的渐变_10-35" x1="109.48" y1="95.25" x2="146.72" y2="58.01" xlink:href="#未命名的渐变_10" />
        <linearGradient id="未命名的渐变_10-36" x1="40.67" y1="71.25" x2="65.62" y2="46.3" xlink:href="#未命名的渐变_10" />
        <linearGradient id="未命名的渐变_10-37" x1="46.54" y1="72.04" x2="103.65" y2="14.93" xlink:href="#未命名的渐变_10" />
        <linearGradient id="未命名的渐变_10-38" x1="108.15" y1="142.12" x2="143.78" y2="106.49" xlink:href="#未命名的渐变_10" />
        <linearGradient id="未命名的渐变_10-39" x1="108.16" y1="139.07" x2="143.79" y2="103.44" xlink:href="#未命名的渐变_10" />
        <linearGradient id="未命名的渐变_10-40" x1="110.06" y1="142.17" x2="146.29" y2="105.94" xlink:href="#未命名的渐变_10" />
        <linearGradient id="未命名的渐变_10-41" x1="146.68" y1="111.26" x2="149.14" y2="108.8" xlink:href="#未命名的渐变_10" />
        <linearGradient id="未命名的渐变_10-42" x1="102.79" y1="136.76" x2="105.25" y2="134.3" xlink:href="#未命名的渐变_10" />
        <clipPath id="clip-path">
            <polygon class="cls-1" points="141.31 69.47 145.7 66.92 145.69 107.23 141.3 109.78 141.31 69.47" />
        </clipPath>
        <clipPath id="clip-path-2">
            <polygon class="cls-2" points="145.7 66.92 150.12 69.47 150.1 109.78 145.69 107.23 145.7 66.92" />
        </clipPath>
        <clipPath id="clip-path-3">
            <polygon class="cls-13" points="150.12 69.47 150.1 109.78 145.71 112.33 145.73 72.02 150.12 69.47" />
        </clipPath>
        <linearGradient id="未命名的渐变_87-5" x1="136.1" y1="102.72" x2="159.73" y2="79.08" xlink:href="#未命名的渐变_87" />
        <clipPath id="clip-path-4">
            <polygon class="cls-24" points="145.73 72.02 145.71 112.33 141.3 109.78 141.31 69.47 145.73 72.02" />
        </clipPath>
        <linearGradient id="未命名的渐变_87-6" x1="132.96" y1="101.45" x2="154.06" y2="80.36" xlink:href="#未命名的渐变_87" />
        <clipPath id="clip-path-5">
            <polygon class="cls-35" points="101.82 132.74 145.71 107.23 145.7 110.28 101.81 135.78 101.82 132.74" />
        </clipPath>
        <clipPath id="clip-path-6">
            <polygon class="cls-42" points="150.12 112.83 106.23 138.33 101.81 135.78 145.7 110.28 150.12 112.83" />
        </clipPath>
        <clipPath id="clip-path-7">
            <polygon class="cls-43" points="150.13 109.78 106.24 135.29 101.82 132.74 145.71 107.23 150.13 109.78" />
        </clipPath>
        <linearGradient id="未命名的渐变_87-7" x1="108.16" y1="139.07" x2="143.79" y2="103.44" xlink:href="#未命名的渐变_87" />
        <clipPath id="clip-path-8">
            <polygon class="cls-44" points="150.13 109.78 150.12 112.83 106.23 138.33 106.24 135.29 150.13 109.78" />
        </clipPath>
        <linearGradient id="未命名的渐变_87-8" x1="110.06" y1="142.17" x2="146.29" y2="105.94" xlink:href="#未命名的渐变_87" />
        <clipPath id="clip-path-9">
            <polygon class="cls-45" points="145.71 107.23 150.13 109.78 150.12 112.83 145.7 110.28 145.71 107.23" />
        </clipPath>
        <clipPath id="clip-path-10">
            <polygon class="cls-46" points="106.24 135.29 106.23 138.33 101.81 135.78 101.82 132.74 106.24 135.29" />
        </clipPath>
        <clipPath id="clip-path-11">
            <polygon class="cls-3" points="101.84 92.43 106.23 89.88 106.22 130.18 101.82 132.74 101.84 92.43" />
        </clipPath>
        <clipPath id="clip-path-12">
            <polygon class="cls-4" points="106.23 89.88 110.65 92.42 110.63 132.73 106.22 130.18 106.23 89.88" />
        </clipPath>
        <clipPath id="clip-path-13">
            <polygon class="cls-5" points="110.65 92.42 110.63 132.73 106.24 135.29 106.26 94.98 110.65 92.42" />
        </clipPath>
        <linearGradient id="未命名的渐变_87-9" x1="96.63" y1="125.67" x2="120.26" y2="102.04" xlink:href="#未命名的渐变_87" />
        <clipPath id="clip-path-14">
            <polygon class="cls-6" points="106.26 94.98 106.24 135.29 101.82 132.74 101.84 92.43 106.26 94.98" />
        </clipPath>
        <linearGradient id="未命名的渐变_87-10" x1="93.49" y1="124.4" x2="114.59" y2="103.31" xlink:href="#未命名的渐变_87" />
        <clipPath id="clip-path-15">
            <polygon class="cls-7" points="150.12 69.47 106.23 94.98 101.81 92.43 145.7 66.92 150.12 69.47" />
        </clipPath>
        <clipPath id="clip-path-16">
            <polygon class="cls-8" points="150.13 66.42 106.24 91.93 101.82 89.38 145.71 63.88 150.13 66.42" />
        </clipPath>
        <clipPath id="clip-path-17">
            <polygon class="cls-9" points="150.13 66.42 150.12 69.47 106.23 94.98 106.24 91.93 150.13 66.42" />
        </clipPath>
        <linearGradient id="未命名的渐变_10-69" x1="110.06" y1="98.81" x2="146.29" y2="62.59" xlink:href="#未命名的渐变_10" />
        <clipPath id="clip-path-18">
            <polygon class="cls-10" points="106.24 91.93 106.23 94.98 101.81 92.43 101.82 89.38 106.24 91.93" />
        </clipPath>
        <clipPath id="clip-path-19">
            <polygon class="cls-11" points="101.82 89.38 145.71 63.88 145.7 66.92 101.81 92.43 101.82 89.38" />
        </clipPath>
        <clipPath id="clip-path-20">
            <polygon class="cls-12" points="145.71 63.88 150.13 66.42 150.12 69.47 145.7 66.92 145.71 63.88" />
        </clipPath>
        <clipPath id="clip-path-21">
            <polygon class="cls-14" points="39.65 10.75 44.05 8.2 44.03 48.51 39.64 51.06 39.65 10.75" />
        </clipPath>
        <clipPath id="clip-path-22">
            <polygon class="cls-15" points="44.05 8.2 48.46 10.75 48.45 51.06 44.03 48.51 44.05 8.2" />
        </clipPath>
        <clipPath id="clip-path-23">
            <polygon class="cls-16" points="48.46 10.75 48.45 51.06 44.06 53.61 44.07 13.3 48.46 10.75" />
        </clipPath>
        <clipPath id="clip-path-24">
            <polygon class="cls-17" points="44.07 13.3 44.06 53.61 39.64 51.06 39.65 10.75 44.07 13.3" />
        </clipPath>
        <clipPath id="clip-path-25">
            <polygon class="cls-18" points="0.16 74.01 44.05 48.51 44.04 51.55 0.15 77.06 0.16 74.01" />
        </clipPath>
        <clipPath id="clip-path-26">
            <polygon class="cls-19" points="48.46 54.1 4.57 79.61 0.15 77.06 44.04 51.55 48.46 54.1" />
        </clipPath>
        <clipPath id="clip-path-27">
            <polygon class="cls-20" points="48.47 51.06 4.58 76.56 0.16 74.01 44.05 48.51 48.47 51.06" />
        </clipPath>
        <clipPath id="clip-path-28">
            <polygon class="cls-21" points="48.47 51.06 48.46 54.1 4.57 79.61 4.58 76.56 48.47 51.06" />
        </clipPath>
        <clipPath id="clip-path-29">
            <polygon class="cls-22" points="44.05 48.51 48.47 51.06 48.46 54.1 44.04 51.55 44.05 48.51" />
        </clipPath>
        <clipPath id="clip-path-30">
            <polygon class="cls-23" points="4.58 76.56 4.57 79.61 0.15 77.06 0.16 74.01 4.58 76.56" />
        </clipPath>
        <clipPath id="clip-path-31">
            <polygon class="cls-25" points="0.18 33.7 4.58 31.15 4.56 71.46 0.17 74.01 0.18 33.7" />
        </clipPath>
        <clipPath id="clip-path-32">
            <polygon class="cls-26" points="4.58 31.15 8.99 33.7 8.98 74.01 4.56 71.46 4.58 31.15" />
        </clipPath>
        <clipPath id="clip-path-33">
            <polygon class="cls-27" points="8.99 33.7 8.98 74.01 4.59 76.56 4.6 36.25 8.99 33.7" />
        </clipPath>
        <clipPath id="clip-path-34">
            <polygon class="cls-28" points="4.6 36.25 4.59 76.56 0.17 74.01 0.18 33.7 4.6 36.25" />
        </clipPath>
        <clipPath id="clip-path-35">
            <polygon class="cls-29" points="48.46 10.75 4.57 36.25 0.15 33.7 44.04 8.2 48.46 10.75" />
        </clipPath>
        <clipPath id="clip-path-36">
            <polygon class="cls-30" points="48.47 7.7 4.58 33.21 0.16 30.66 44.05 5.15 48.47 7.7" />
        </clipPath>
        <clipPath id="clip-path-37">
            <polygon class="cls-31" points="48.47 7.7 48.46 10.75 4.57 36.25 4.58 33.21 48.47 7.7" />
        </clipPath>
        <clipPath id="clip-path-38">
            <polygon class="cls-32" points="4.58 33.21 4.57 36.25 0.15 33.7 0.16 30.66 4.58 33.21" />
        </clipPath>
        <clipPath id="clip-path-39">
            <polygon class="cls-33" points="0.16 30.66 44.05 5.15 44.04 8.2 0.15 33.7 0.16 30.66" />
        </clipPath>
        <clipPath id="clip-path-40">
            <polygon class="cls-34" points="44.05 5.15 48.47 7.7 48.46 10.75 44.04 8.2 44.05 5.15" />
        </clipPath>
        <clipPath id="clip-path-41">
            <polygon class="cls-36" points="150.04 66.41 106.15 91.92 0.13 30.71 44.01 5.2 150.04 66.41" />
        </clipPath>
        <clipPath id="clip-path-42">
            <polygon class="cls-37" points="0.14 25.63 44.03 0.13 44.01 5.2 0.13 30.71 0.14 25.63" />
        </clipPath>
        <clipPath id="clip-path-43">
            <polygon class="cls-38" points="44.03 0.13 150.05 61.34 150.04 66.41 44.01 5.2 44.03 0.13" />
        </clipPath>
        <clipPath id="clip-path-44">
            <polygon class="cls-39" points="150.05 61.34 150.04 66.41 106.15 91.92 106.16 86.84 150.05 61.34" />
        </clipPath>
        <linearGradient id="未命名的渐变_87-18" x1="109.48" y1="95.25" x2="146.72" y2="58.01" xlink:href="#未命名的渐变_87" />
        <clipPath id="clip-path-45">
            <polygon class="cls-40" points="106.16 86.84 106.15 91.92 0.13 30.71 0.14 25.63 106.16 86.84" />
        </clipPath>
        <linearGradient id="未命名的渐变_87-19" x1="40.67" y1="71.25" x2="65.62" y2="46.3" xlink:href="#未命名的渐变_87" />
        <clipPath id="clip-path-46">
            <polygon class="cls-41" points="150.05 61.34 106.16 86.84 0.14 25.63 44.03 0.13 150.05 61.34" />
        </clipPath>
        <linearGradient id="未命名的渐变_10-119" x1="121.5" y1="89.89" x2="28.69" y2="-2.92" xlink:href="#未命名的渐变_10" />
    </defs>
    <title>Desk（办公桌）</title>
    <g id="图层_2" data-name="图层 2">
        <g id="图层_27" data-name="图层 27">
            <g id="Desk_办公桌_" data-name="Desk（办公桌）">
                <g class="cls-47">
                    <polygon class="cls-48" points="141.31 69.47 145.7 66.92 145.69 107.23 141.3 109.78 141.31 69.47" />
                    <g class="cls-49">
                        <polygon class="cls-1"
                            points="141.31 69.47 145.7 66.92 145.69 107.23 141.3 109.78 141.31 69.47" />
                    </g>
                    <polygon class="cls-50" points="141.31 69.47 145.7 66.92 145.69 107.23 141.3 109.78 141.31 69.47" />
                </g>
                <g class="cls-47">
                    <polygon class="cls-51" points="145.7 66.92 150.12 69.47 150.1 109.78 145.69 107.23 145.7 66.92" />
                    <g class="cls-52">
                        <polygon class="cls-2"
                            points="145.7 66.92 150.12 69.47 150.1 109.78 145.69 107.23 145.7 66.92" />
                    </g>
                    <polygon class="cls-50" points="145.7 66.92 150.12 69.47 150.1 109.78 145.69 107.23 145.7 66.92" />
                </g>
                <g class="cls-53">
                    <polygon class="cls-54"
                        points="150.12 69.47 150.1 109.78 145.71 112.33 145.73 72.02 150.12 69.47" />
                    <g class="cls-55">
                        <polygon class="cls-56"
                            points="150.12 69.47 150.1 109.78 145.71 112.33 145.73 72.02 150.12 69.47" />
                    </g>
                    <polygon class="cls-50"
                        points="150.12 69.47 150.1 109.78 145.71 112.33 145.73 72.02 150.12 69.47" />
                </g>
                <g class="cls-53">
                    <polygon class="cls-57"
                        points="145.73 72.02 145.71 112.33 141.3 109.78 141.31 69.47 145.73 72.02" />
                    <g class="cls-58">
                        <polygon class="cls-59"
                            points="145.73 72.02 145.71 112.33 141.3 109.78 141.31 69.47 145.73 72.02" />
                    </g>
                    <polygon class="cls-50"
                        points="145.73 72.02 145.71 112.33 141.3 109.78 141.31 69.47 145.73 72.02" />
                </g>
                <g class="cls-47">
                    <polygon class="cls-60"
                        points="101.82 132.74 145.71 107.23 145.7 110.28 101.81 135.78 101.82 132.74" />
                    <g class="cls-61">
                        <polygon class="cls-35"
                            points="101.82 132.74 145.71 107.23 145.7 110.28 101.81 135.78 101.82 132.74" />
                    </g>
                    <polygon class="cls-50"
                        points="101.82 132.74 145.71 107.23 145.7 110.28 101.81 135.78 101.82 132.74" />
                </g>
                <g class="cls-47">
                    <polygon class="cls-62"
                        points="150.12 112.83 106.23 138.33 101.81 135.78 145.7 110.28 150.12 112.83" />
                    <g class="cls-63">
                        <polygon class="cls-42"
                            points="150.12 112.83 106.23 138.33 101.81 135.78 145.7 110.28 150.12 112.83" />
                    </g>
                    <polygon class="cls-50"
                        points="150.12 112.83 106.23 138.33 101.81 135.78 145.7 110.28 150.12 112.83" />
                </g>
                <g class="cls-53">
                    <polygon class="cls-64"
                        points="150.13 109.78 106.24 135.29 101.82 132.74 145.71 107.23 150.13 109.78" />
                    <g class="cls-65">
                        <polygon class="cls-66"
                            points="150.13 109.78 106.24 135.29 101.82 132.74 145.71 107.23 150.13 109.78" />
                    </g>
                    <polygon class="cls-50"
                        points="150.13 109.78 106.24 135.29 101.82 132.74 145.71 107.23 150.13 109.78" />
                </g>
                <g class="cls-53">
                    <polygon class="cls-67"
                        points="150.13 109.78 150.12 112.83 106.23 138.33 106.24 135.29 150.13 109.78" />
                    <g class="cls-68">
                        <polygon class="cls-69"
                            points="150.13 109.78 150.12 112.83 106.23 138.33 106.24 135.29 150.13 109.78" />
                    </g>
                    <polygon class="cls-50"
                        points="150.13 109.78 150.12 112.83 106.23 138.33 106.24 135.29 150.13 109.78" />
                </g>
                <g class="cls-47">
                    <polygon class="cls-70"
                        points="145.71 107.23 150.13 109.78 150.12 112.83 145.7 110.28 145.71 107.23" />
                    <g class="cls-71">
                        <polygon class="cls-45"
                            points="145.71 107.23 150.13 109.78 150.12 112.83 145.7 110.28 145.71 107.23" />
                    </g>
                    <polygon class="cls-50"
                        points="145.71 107.23 150.13 109.78 150.12 112.83 145.7 110.28 145.71 107.23" />
                </g>
                <g class="cls-53">
                    <polygon class="cls-72"
                        points="106.24 135.29 106.23 138.33 101.81 135.78 101.82 132.74 106.24 135.29" />
                    <g class="cls-73">
                        <polygon class="cls-46"
                            points="106.24 135.29 106.23 138.33 101.81 135.78 101.82 132.74 106.24 135.29" />
                    </g>
                    <polygon class="cls-50"
                        points="106.24 135.29 106.23 138.33 101.81 135.78 101.82 132.74 106.24 135.29" />
                </g>
                <g class="cls-47">
                    <polygon class="cls-74"
                        points="101.84 92.43 106.23 89.88 106.22 130.18 101.82 132.74 101.84 92.43" />
                    <g class="cls-75">
                        <polygon class="cls-3"
                            points="101.84 92.43 106.23 89.88 106.22 130.18 101.82 132.74 101.84 92.43" />
                    </g>
                    <polygon class="cls-50"
                        points="101.84 92.43 106.23 89.88 106.22 130.18 101.82 132.74 101.84 92.43" />
                </g>
                <g class="cls-47">
                    <polygon class="cls-76"
                        points="106.23 89.88 110.65 92.42 110.63 132.73 106.22 130.18 106.23 89.88" />
                    <g class="cls-77">
                        <polygon class="cls-4"
                            points="106.23 89.88 110.65 92.42 110.63 132.73 106.22 130.18 106.23 89.88" />
                    </g>
                    <polygon class="cls-50"
                        points="106.23 89.88 110.65 92.42 110.63 132.73 106.22 130.18 106.23 89.88" />
                </g>
                <g class="cls-53">
                    <polygon class="cls-78"
                        points="110.65 92.42 110.63 132.73 106.24 135.29 106.26 94.98 110.65 92.42" />
                    <g class="cls-79">
                        <polygon class="cls-80"
                            points="110.65 92.42 110.63 132.73 106.24 135.29 106.26 94.98 110.65 92.42" />
                    </g>
                    <polygon class="cls-50"
                        points="110.65 92.42 110.63 132.73 106.24 135.29 106.26 94.98 110.65 92.42" />
                </g>
                <g class="cls-53">
                    <polygon class="cls-81"
                        points="106.26 94.98 106.24 135.29 101.82 132.74 101.84 92.43 106.26 94.98" />
                    <g class="cls-82">
                        <polygon class="cls-83"
                            points="106.26 94.98 106.24 135.29 101.82 132.74 101.84 92.43 106.26 94.98" />
                    </g>
                    <polygon class="cls-50"
                        points="106.26 94.98 106.24 135.29 101.82 132.74 101.84 92.43 106.26 94.98" />
                </g>
                <g class="cls-47">
                    <polygon class="cls-84" points="150.12 69.47 106.23 94.98 101.81 92.43 145.7 66.92 150.12 69.47" />
                    <g class="cls-85">
                        <polygon class="cls-7"
                            points="150.12 69.47 106.23 94.98 101.81 92.43 145.7 66.92 150.12 69.47" />
                    </g>
                    <polygon class="cls-50" points="150.12 69.47 106.23 94.98 101.81 92.43 145.7 66.92 150.12 69.47" />
                </g>
                <g class="cls-47">
                    <polygon class="cls-86" points="150.13 66.42 106.24 91.93 101.82 89.38 145.71 63.88 150.13 66.42" />
                    <g class="cls-87">
                        <polygon class="cls-8"
                            points="150.13 66.42 106.24 91.93 101.82 89.38 145.71 63.88 150.13 66.42" />
                    </g>
                    <polygon class="cls-50" points="150.13 66.42 106.24 91.93 101.82 89.38 145.71 63.88 150.13 66.42" />
                </g>
                <g class="cls-53">
                    <polygon class="cls-88" points="150.13 66.42 150.12 69.47 106.23 94.98 106.24 91.93 150.13 66.42" />
                    <g class="cls-89">
                        <polygon class="cls-90"
                            points="150.13 66.42 150.12 69.47 106.23 94.98 106.24 91.93 150.13 66.42" />
                    </g>
                    <polygon class="cls-50" points="150.13 66.42 150.12 69.47 106.23 94.98 106.24 91.93 150.13 66.42" />
                </g>
                <g class="cls-53">
                    <polygon class="cls-91" points="106.24 91.93 106.23 94.98 101.81 92.43 101.82 89.38 106.24 91.93" />
                    <g class="cls-92">
                        <polygon class="cls-10"
                            points="106.24 91.93 106.23 94.98 101.81 92.43 101.82 89.38 106.24 91.93" />
                    </g>
                    <polygon class="cls-50" points="106.24 91.93 106.23 94.98 101.81 92.43 101.82 89.38 106.24 91.93" />
                </g>
                <g class="cls-47">
                    <polygon class="cls-93" points="101.82 89.38 145.71 63.88 145.7 66.92 101.81 92.43 101.82 89.38" />
                    <g class="cls-94">
                        <polygon class="cls-11"
                            points="101.82 89.38 145.71 63.88 145.7 66.92 101.81 92.43 101.82 89.38" />
                    </g>
                    <polygon class="cls-50" points="101.82 89.38 145.71 63.88 145.7 66.92 101.81 92.43 101.82 89.38" />
                </g>
                <g class="cls-47">
                    <polygon class="cls-95" points="145.71 63.88 150.13 66.42 150.12 69.47 145.7 66.92 145.71 63.88" />
                    <g class="cls-96">
                        <polygon class="cls-12"
                            points="145.71 63.88 150.13 66.42 150.12 69.47 145.7 66.92 145.71 63.88" />
                    </g>
                    <polygon class="cls-50" points="145.71 63.88 150.13 66.42 150.12 69.47 145.7 66.92 145.71 63.88" />
                </g>
                <g class="cls-97">
                    <g class="cls-47">
                        <polygon class="cls-98" points="39.65 10.75 44.05 8.2 44.03 48.51 39.64 51.06 39.65 10.75" />
                        <g class="cls-99">
                            <polygon class="cls-14"
                                points="39.65 10.75 44.05 8.2 44.03 48.51 39.64 51.06 39.65 10.75" />
                        </g>
                        <polygon class="cls-50" points="39.65 10.75 44.05 8.2 44.03 48.51 39.64 51.06 39.65 10.75" />
                    </g>
                    <g class="cls-47">
                        <polygon class="cls-100" points="44.05 8.2 48.46 10.75 48.45 51.06 44.03 48.51 44.05 8.2" />
                        <g class="cls-101">
                            <polygon class="cls-15" points="44.05 8.2 48.46 10.75 48.45 51.06 44.03 48.51 44.05 8.2" />
                        </g>
                        <polygon class="cls-50" points="44.05 8.2 48.46 10.75 48.45 51.06 44.03 48.51 44.05 8.2" />
                    </g>
                    <g class="cls-53">
                        <polygon class="cls-102" points="48.46 10.75 48.45 51.06 44.06 53.61 44.07 13.3 48.46 10.75" />
                        <g class="cls-103">
                            <polygon class="cls-16"
                                points="48.46 10.75 48.45 51.06 44.06 53.61 44.07 13.3 48.46 10.75" />
                        </g>
                        <polygon class="cls-50" points="48.46 10.75 48.45 51.06 44.06 53.61 44.07 13.3 48.46 10.75" />
                    </g>
                    <g class="cls-53">
                        <polygon class="cls-104" points="44.07 13.3 44.06 53.61 39.64 51.06 39.65 10.75 44.07 13.3" />
                        <g class="cls-105">
                            <polygon class="cls-17"
                                points="44.07 13.3 44.06 53.61 39.64 51.06 39.65 10.75 44.07 13.3" />
                        </g>
                        <polygon class="cls-50" points="44.07 13.3 44.06 53.61 39.64 51.06 39.65 10.75 44.07 13.3" />
                    </g>
                </g>
                <g class="cls-47">
                    <polygon class="cls-106" points="0.16 74.01 44.05 48.51 44.04 51.55 0.15 77.06 0.16 74.01" />
                    <g class="cls-107">
                        <polygon class="cls-18" points="0.16 74.01 44.05 48.51 44.04 51.55 0.15 77.06 0.16 74.01" />
                    </g>
                    <polygon class="cls-50" points="0.16 74.01 44.05 48.51 44.04 51.55 0.15 77.06 0.16 74.01" />
                </g>
                <g class="cls-47">
                    <polygon class="cls-108" points="48.46 54.1 4.57 79.61 0.15 77.06 44.04 51.55 48.46 54.1" />
                    <g class="cls-109">
                        <polygon class="cls-19" points="48.46 54.1 4.57 79.61 0.15 77.06 44.04 51.55 48.46 54.1" />
                    </g>
                    <polygon class="cls-50" points="48.46 54.1 4.57 79.61 0.15 77.06 44.04 51.55 48.46 54.1" />
                </g>
                <g class="cls-53">
                    <polygon class="cls-110" points="48.47 51.06 4.58 76.56 0.16 74.01 44.05 48.51 48.47 51.06" />
                    <g class="cls-111">
                        <polygon class="cls-20" points="48.47 51.06 4.58 76.56 0.16 74.01 44.05 48.51 48.47 51.06" />
                    </g>
                    <polygon class="cls-50" points="48.47 51.06 4.58 76.56 0.16 74.01 44.05 48.51 48.47 51.06" />
                </g>
                <g class="cls-53">
                    <polygon class="cls-112" points="48.47 51.06 48.46 54.1 4.57 79.61 4.58 76.56 48.47 51.06" />
                    <g class="cls-113">
                        <polygon class="cls-21" points="48.47 51.06 48.46 54.1 4.57 79.61 4.58 76.56 48.47 51.06" />
                    </g>
                    <polygon class="cls-50" points="48.47 51.06 48.46 54.1 4.57 79.61 4.58 76.56 48.47 51.06" />
                </g>
                <g class="cls-47">
                    <polygon class="cls-114" points="44.05 48.51 48.47 51.06 48.46 54.1 44.04 51.55 44.05 48.51" />
                    <g class="cls-115">
                        <polygon class="cls-22" points="44.05 48.51 48.47 51.06 48.46 54.1 44.04 51.55 44.05 48.51" />
                    </g>
                    <polygon class="cls-50" points="44.05 48.51 48.47 51.06 48.46 54.1 44.04 51.55 44.05 48.51" />
                </g>
                <g class="cls-53">
                    <polygon class="cls-116" points="4.58 76.56 4.57 79.61 0.15 77.06 0.16 74.01 4.58 76.56" />
                    <g class="cls-117">
                        <polygon class="cls-23" points="4.58 76.56 4.57 79.61 0.15 77.06 0.16 74.01 4.58 76.56" />
                    </g>
                    <polygon class="cls-50" points="4.58 76.56 4.57 79.61 0.15 77.06 0.16 74.01 4.58 76.56" />
                </g>
                <g class="cls-47">
                    <polygon class="cls-118" points="0.18 33.7 4.58 31.15 4.56 71.46 0.17 74.01 0.18 33.7" />
                    <g class="cls-119">
                        <polygon class="cls-25" points="0.18 33.7 4.58 31.15 4.56 71.46 0.17 74.01 0.18 33.7" />
                    </g>
                    <polygon class="cls-50" points="0.18 33.7 4.58 31.15 4.56 71.46 0.17 74.01 0.18 33.7" />
                </g>
                <g class="cls-47">
                    <polygon class="cls-120" points="4.58 31.15 8.99 33.7 8.98 74.01 4.56 71.46 4.58 31.15" />
                    <g class="cls-121">
                        <polygon class="cls-26" points="4.58 31.15 8.99 33.7 8.98 74.01 4.56 71.46 4.58 31.15" />
                    </g>
                    <polygon class="cls-50" points="4.58 31.15 8.99 33.7 8.98 74.01 4.56 71.46 4.58 31.15" />
                </g>
                <g class="cls-53">
                    <polygon class="cls-122" points="8.99 33.7 8.98 74.01 4.59 76.56 4.6 36.25 8.99 33.7" />
                    <g class="cls-123">
                        <polygon class="cls-27" points="8.99 33.7 8.98 74.01 4.59 76.56 4.6 36.25 8.99 33.7" />
                    </g>
                    <polygon class="cls-50" points="8.99 33.7 8.98 74.01 4.59 76.56 4.6 36.25 8.99 33.7" />
                </g>
                <g class="cls-53">
                    <polygon class="cls-124" points="4.6 36.25 4.59 76.56 0.17 74.01 0.18 33.7 4.6 36.25" />
                    <g class="cls-125">
                        <polygon class="cls-28" points="4.6 36.25 4.59 76.56 0.17 74.01 0.18 33.7 4.6 36.25" />
                    </g>
                    <polygon class="cls-50" points="4.6 36.25 4.59 76.56 0.17 74.01 0.18 33.7 4.6 36.25" />
                </g>
                <g class="cls-47">
                    <polygon class="cls-126" points="48.46 10.75 4.57 36.25 0.15 33.7 44.04 8.2 48.46 10.75" />
                    <g class="cls-127">
                        <polygon class="cls-29" points="48.46 10.75 4.57 36.25 0.15 33.7 44.04 8.2 48.46 10.75" />
                    </g>
                    <polygon class="cls-50" points="48.46 10.75 4.57 36.25 0.15 33.7 44.04 8.2 48.46 10.75" />
                </g>
                <g class="cls-47">
                    <polygon class="cls-128" points="48.47 7.7 4.58 33.21 0.16 30.66 44.05 5.15 48.47 7.7" />
                    <g class="cls-129">
                        <polygon class="cls-30" points="48.47 7.7 4.58 33.21 0.16 30.66 44.05 5.15 48.47 7.7" />
                    </g>
                    <polygon class="cls-50" points="48.47 7.7 4.58 33.21 0.16 30.66 44.05 5.15 48.47 7.7" />
                </g>
                <g class="cls-47">
                    <polygon class="cls-130" points="48.47 7.7 48.46 10.75 4.57 36.25 4.58 33.21 48.47 7.7" />
                    <g class="cls-131">
                        <polygon class="cls-31" points="48.47 7.7 48.46 10.75 4.57 36.25 4.58 33.21 48.47 7.7" />
                    </g>
                    <polygon class="cls-50" points="48.47 7.7 48.46 10.75 4.57 36.25 4.58 33.21 48.47 7.7" />
                </g>
                <g class="cls-53">
                    <polygon class="cls-132" points="4.58 33.21 4.57 36.25 0.15 33.7 0.16 30.66 4.58 33.21" />
                    <g class="cls-133">
                        <polygon class="cls-32" points="4.58 33.21 4.57 36.25 0.15 33.7 0.16 30.66 4.58 33.21" />
                    </g>
                    <polygon class="cls-50" points="4.58 33.21 4.57 36.25 0.15 33.7 0.16 30.66 4.58 33.21" />
                </g>
                <g class="cls-47">
                    <polygon class="cls-134" points="0.16 30.66 44.05 5.15 44.04 8.2 0.15 33.7 0.16 30.66" />
                    <g class="cls-135">
                        <polygon class="cls-33" points="0.16 30.66 44.05 5.15 44.04 8.2 0.15 33.7 0.16 30.66" />
                    </g>
                    <polygon class="cls-50" points="0.16 30.66 44.05 5.15 44.04 8.2 0.15 33.7 0.16 30.66" />
                </g>
                <g class="cls-47">
                    <polygon class="cls-136" points="44.05 5.15 48.47 7.7 48.46 10.75 44.04 8.2 44.05 5.15" />
                    <g class="cls-137">
                        <polygon class="cls-34" points="44.05 5.15 48.47 7.7 48.46 10.75 44.04 8.2 44.05 5.15" />
                    </g>
                    <polygon class="cls-50" points="44.05 5.15 48.47 7.7 48.46 10.75 44.04 8.2 44.05 5.15" />
                </g>
                <g class="cls-47">
                    <polygon class="cls-138" points="150.04 66.41 106.15 91.92 0.13 30.71 44.01 5.2 150.04 66.41" />
                    <g class="cls-139">
                        <polygon class="cls-36" points="150.04 66.41 106.15 91.92 0.13 30.71 44.01 5.2 150.04 66.41" />
                    </g>
                    <polygon class="cls-50" points="150.04 66.41 106.15 91.92 0.13 30.71 44.01 5.2 150.04 66.41" />
                </g>
                <g class="cls-47">
                    <polygon class="cls-140" points="0.14 25.63 44.03 0.13 44.01 5.2 0.13 30.71 0.14 25.63" />
                    <g class="cls-141">
                        <polygon class="cls-37" points="0.14 25.63 44.03 0.13 44.01 5.2 0.13 30.71 0.14 25.63" />
                    </g>
                    <polygon class="cls-50" points="0.14 25.63 44.03 0.13 44.01 5.2 0.13 30.71 0.14 25.63" />
                </g>
                <g class="cls-47">
                    <polygon class="cls-142" points="44.03 0.13 150.05 61.34 150.04 66.41 44.01 5.2 44.03 0.13" />
                    <g class="cls-143">
                        <polygon class="cls-38" points="44.03 0.13 150.05 61.34 150.04 66.41 44.01 5.2 44.03 0.13" />
                    </g>
                    <polygon class="cls-50" points="44.03 0.13 150.05 61.34 150.04 66.41 44.01 5.2 44.03 0.13" />
                </g>
                <g class="cls-53">
                    <polygon class="cls-144"
                        points="150.05 61.34 150.04 66.41 106.15 91.92 106.16 86.84 150.05 61.34" />
                    <g class="cls-145">
                        <polygon class="cls-146"
                            points="150.05 61.34 150.04 66.41 106.15 91.92 106.16 86.84 150.05 61.34" />
                    </g>
                    <polygon class="cls-50" points="150.05 61.34 150.04 66.41 106.15 91.92 106.16 86.84 150.05 61.34" />
                </g>
                <g class="cls-53">
                    <polygon class="cls-147" points="106.16 86.84 106.15 91.92 0.13 30.71 0.14 25.63 106.16 86.84" />
                    <g class="cls-148">
                        <polygon class="cls-149"
                            points="106.16 86.84 106.15 91.92 0.13 30.71 0.14 25.63 106.16 86.84" />
                    </g>
                    <polygon class="cls-50" points="106.16 86.84 106.15 91.92 0.13 30.71 0.14 25.63 106.16 86.84" />
                </g>
                <g class="cls-53">
                    <polygon class="cls-150" points="150.05 61.34 106.16 86.84 0.14 25.63 44.03 0.13 150.05 61.34" />
                    <g class="cls-151">
                        <polygon class="cls-152"
                            points="150.05 61.34 106.16 86.84 0.14 25.63 44.03 0.13 150.05 61.34" />
                    </g>
                    <polygon class="cls-50" points="150.05 61.34 106.16 86.84 0.14 25.63 44.03 0.13 150.05 61.34" />
                </g>
                
            </g>
        </g>
    </g>
</svg>