<svg xmlns="http://www.w3.org/2000/svg" xmlns:xlink="http://www.w3.org/1999/xlink" viewBox="0 0 105.72 150.25">
    <defs>
        <style>
            .cls-1,
            .cls-10,
            .cls-102,
            .cls-11,
            .cls-12,
            .cls-13,
            .cls-14,
            .cls-15,
            .cls-16,
            .cls-17,
            .cls-18,
            .cls-19,
            .cls-2,
            .cls-20,
            .cls-21,
            .cls-22,
            .cls-23,
            .cls-24,
            .cls-25,
            .cls-26,
            .cls-27,
            .cls-28,
            .cls-29,
            .cls-3,
            .cls-30,
            .cls-31,
            .cls-32,
            .cls-33,
            .cls-34,
            .cls-35,
            .cls-36,
            .cls-4,
            .cls-40,
            .cls-5,
            .cls-6,
            .cls-7,
            .cls-8,
            .cls-9,
            .cls-91 {
                stroke: #5ac8f7;
                stroke-linejoin: round;
                stroke-width: 0.25px;
            }

            .cls-1,
            .cls-38 {
                fill: url(#未命名的渐变_2520);
            }

            .cls-2,
            .cls-41 {
                fill: url(#未命名的渐变_2520-2);
            }

            .cls-3,
            .cls-60 {
                fill: url(#未命名的渐变_8);
            }

            .cls-4,
            .cls-62 {
                fill: url(#未命名的渐变_2520-3);
            }

            .cls-5,
            .cls-64 {
                fill: url(#未命名的渐变_2520-4);
            }

            .cls-6,
            .cls-66 {
                fill: url(#未命名的渐变_2520-5);
            }

            .cls-68,
            .cls-7 {
                fill: url(#未命名的渐变_8-2);
            }

            .cls-70,
            .cls-8 {
                fill: url(#未命名的渐变_2520-6);
            }

            .cls-72,
            .cls-9 {
                fill: url(#未命名的渐变_8-3);
            }

            .cls-10,
            .cls-74 {
                fill: url(#未命名的渐变_2520-7);
            }

            .cls-11,
            .cls-77 {
                fill: url(#未命名的渐变_2520-8);
            }

            .cls-12,
            .cls-79 {
                fill: url(#未命名的渐变_2520-9);
            }

            .cls-13,
            .cls-43 {
                fill: url(#未命名的渐变_8-4);
            }

            .cls-14,
            .cls-81 {
                fill: url(#未命名的渐变_8-5);
            }

            .cls-15,
            .cls-83 {
                fill: url(#未命名的渐变_2520-10);
            }

            .cls-16,
            .cls-85 {
                fill: url(#未命名的渐变_8-6);
            }

            .cls-17,
            .cls-87 {
                fill: url(#未命名的渐变_2520-11);
            }

            .cls-18,
            .cls-89 {
                fill: url(#未命名的渐变_2520-12);
            }

            .cls-19,
            .cls-92 {
                fill: url(#未命名的渐变_2520-13);
            }

            .cls-20,
            .cls-94 {
                fill: url(#未命名的渐变_2520-14);
            }

            .cls-21,
            .cls-96 {
                fill: url(#未命名的渐变_2520-15);
            }

            .cls-22,
            .cls-98 {
                fill: url(#未命名的渐变_2520-16);
            }

            .cls-100,
            .cls-102,
            .cls-23 {
                fill: url(#未命名的渐变_8-7);
            }

            .cls-24,
            .cls-46 {
                fill: url(#未命名的渐变_2520-17);
            }

            .cls-103,
            .cls-25 {
                fill: url(#未命名的渐变_2520-18);
            }

            .cls-105,
            .cls-26 {
                fill: url(#未命名的渐变_2520-19);
            }

            .cls-107,
            .cls-27 {
                fill: url(#未命名的渐变_2520-20);
            }

            .cls-109,
            .cls-28 {
                fill: url(#未命名的渐变_2520-21);
            }

            .cls-111,
            .cls-29 {
                fill: url(#未命名的渐变_2520-22);
            }

            .cls-113,
            .cls-30 {
                fill: url(#未命名的渐变_8-8);
            }

            .cls-31,
            .cls-48 {
                fill: url(#未命名的渐变_8-9);
            }

            .cls-32,
            .cls-50 {
                fill: url(#未命名的渐变_2520-23);
            }

            .cls-33,
            .cls-52 {
                fill: url(#未命名的渐变_2520-24);
            }

            .cls-34,
            .cls-54 {
                fill: url(#未命名的渐变_2520-25);
            }

            .cls-35,
            .cls-56 {
                fill: url(#未命名的渐变_8-10);
            }

            .cls-36,
            .cls-58 {
                fill: url(#未命名的渐变_2520-26);
            }

            .cls-102,
            .cls-37,
            .cls-76,
            .cls-91 {
                opacity: 0.2;
            }

            .cls-37,
            .cls-45 {
                isolation: isolate;
            }

            .cls-39 {
                clip-path: url(#clip-path);
            }

            .cls-40 {
                fill: none;
            }

            .cls-42 {
                clip-path: url(#clip-path-2);
            }

            .cls-44 {
                clip-path: url(#clip-path-3);
            }

            .cls-47 {
                clip-path: url(#clip-path-4);
            }

            .cls-49 {
                clip-path: url(#clip-path-5);
            }

            .cls-51 {
                clip-path: url(#clip-path-6);
            }

            .cls-53 {
                clip-path: url(#clip-path-7);
            }

            .cls-55 {
                clip-path: url(#clip-path-8);
            }

            .cls-57 {
                clip-path: url(#clip-path-9);
            }

            .cls-59 {
                clip-path: url(#clip-path-10);
            }

            .cls-61 {
                clip-path: url(#clip-path-11);
            }

            .cls-63 {
                clip-path: url(#clip-path-12);
            }

            .cls-65 {
                clip-path: url(#clip-path-13);
            }

            .cls-67 {
                clip-path: url(#clip-path-14);
            }

            .cls-69 {
                clip-path: url(#clip-path-15);
            }

            .cls-71 {
                clip-path: url(#clip-path-16);
            }

            .cls-73 {
                clip-path: url(#clip-path-17);
            }

            .cls-75 {
                clip-path: url(#clip-path-18);
            }

            .cls-78 {
                clip-path: url(#clip-path-19);
            }

            .cls-80 {
                clip-path: url(#clip-path-20);
            }

            .cls-82 {
                clip-path: url(#clip-path-21);
            }

            .cls-84 {
                clip-path: url(#clip-path-22);
            }

            .cls-86 {
                clip-path: url(#clip-path-23);
            }

            .cls-88 {
                clip-path: url(#clip-path-24);
            }

            .cls-90 {
                clip-path: url(#clip-path-25);
            }

            .cls-91 {
                fill: url(#未命名的渐变_8-27);
            }

            .cls-93 {
                clip-path: url(#clip-path-26);
            }

            .cls-95 {
                clip-path: url(#clip-path-27);
            }

            .cls-97 {
                clip-path: url(#clip-path-28);
            }

            .cls-99 {
                clip-path: url(#clip-path-29);
            }

            .cls-101 {
                clip-path: url(#clip-path-30);
            }

            .cls-104 {
                clip-path: url(#clip-path-31);
            }

            .cls-106 {
                clip-path: url(#clip-path-32);
            }

            .cls-108 {
                clip-path: url(#clip-path-33);
            }

            .cls-110 {
                clip-path: url(#clip-path-34);
            }

            .cls-112 {
                clip-path: url(#clip-path-35);
            }

            .cls-114 {
                clip-path: url(#clip-path-36);
            }
        </style>
        <linearGradient id="未命名的渐变_2520" x1="-190.16" y1="145.77" x2="-181.53" y2="137.15"
            gradientTransform="matrix(-1, 0, 0, 1, -132.43, 0)" gradientUnits="userSpaceOnUse">
            <stop offset="0" stop-color="#2a6aaf" stop-opacity="0" />
            <stop offset="1" stop-color="#5ac8f7" stop-opacity="0.6" />
        </linearGradient>
        <linearGradient id="未命名的渐变_2520-2" x1="-183.8" y1="144.23" x2="-178.19" y2="138.61" xlink:href="#未命名的渐变_2520" />
        <linearGradient id="未命名的渐变_8" x1="-142.17" y1="118.27" x2="-146.97" y2="113.46"
            gradientTransform="matrix(-1, 0, 0, 1, -132.43, 0)" gradientUnits="userSpaceOnUse">
            <stop offset="0" stop-color="#5ac8f7" stop-opacity="0.6" />
            <stop offset="1" stop-color="#2a6aaf" stop-opacity="0" />
        </linearGradient>
        <linearGradient id="未命名的渐变_2520-3" x1="-149.71" y1="124.28" x2="-144.78" y2="119.36"
            xlink:href="#未命名的渐变_2520" />
        <linearGradient id="未命名的渐变_2520-4" x1="-230.02" y1="122.78" x2="-221.4" y2="114.15" xlink:href="#未命名的渐变_2520" />
        <linearGradient id="未命名的渐变_2520-5" x1="-223.67" y1="121.23" x2="-218.05" y2="115.61"
            xlink:href="#未命名的渐变_2520" />
        <linearGradient id="未命名的渐变_8-2" x1="-221.22" y1="126.68" x2="-225.84" y2="122.06" xlink:href="#未命名的渐变_8" />
        <linearGradient id="未命名的渐变_2520-6" x1="-225.52" y1="125.4" x2="-216.89" y2="116.77" xlink:href="#未命名的渐变_2520" />
        <linearGradient id="未命名的渐变_8-3" x1="-221.23" y1="118.02" x2="-226.04" y2="113.21" xlink:href="#未命名的渐变_8" />
        <linearGradient id="未命名的渐变_2520-7" x1="-228.77" y1="124.03" x2="-223.84" y2="119.1" xlink:href="#未命名的渐变_2520" />
        <linearGradient id="未命名的渐变_2520-8" x1="-190.82" y1="100.03" x2="-182.2" y2="91.41" xlink:href="#未命名的渐变_2520" />
        <linearGradient id="未命名的渐变_2520-9" x1="-184.47" y1="98.49" x2="-178.85" y2="92.87" xlink:href="#未命名的渐变_2520" />
        <linearGradient id="未命名的渐变_8-4" x1="-181.36" y1="149.68" x2="-185.98" y2="145.06" xlink:href="#未命名的渐变_8" />
        <linearGradient id="未命名的渐变_8-5" x1="-182.02" y1="103.94" x2="-186.64" y2="99.32" xlink:href="#未命名的渐变_8" />
        <linearGradient id="未命名的渐变_2520-10" x1="-186.32" y1="102.65" x2="-177.69" y2="94.03"
            xlink:href="#未命名的渐变_2520" />
        <linearGradient id="未命名的渐变_8-6" x1="-182.03" y1="95.27" x2="-186.84" y2="90.47" xlink:href="#未命名的渐变_8" />
        <linearGradient id="未命名的渐变_2520-11" x1="-189.57" y1="101.29" x2="-184.64" y2="96.36"
            xlink:href="#未命名的渐变_2520" />
        <linearGradient id="未命名的渐变_2520-12" x1="29.45" y1="137.99" x2="73.9" y2="93.55"
            gradientTransform="matrix(1, 0, 0, 1, 0, 0)" xlink:href="#未命名的渐变_2520" />
        <linearGradient id="未命名的渐变_2520-13" x1="-7.84" y1="100.71" x2="68.56" y2="24.31"
            gradientTransform="matrix(1, 0, 0, 1, 0, 0)" xlink:href="#未命名的渐变_2520" />
        <linearGradient id="未命名的渐变_2520-14" x1="37.22" y1="126.89" x2="113.62" y2="50.5"
            gradientTransform="matrix(1, 0, 0, 1, 0, 0)" xlink:href="#未命名的渐变_2520" />
        <linearGradient id="未命名的渐变_2520-15" x1="48.37" y1="86.89" x2="99.19" y2="36.07"
            gradientTransform="matrix(1, 0, 0, 1, 0, 0)" xlink:href="#未命名的渐变_2520" />
        <linearGradient id="未命名的渐变_2520-16" x1="5.28" y1="113.83" x2="53.5" y2="65.61"
            gradientTransform="matrix(1, 0, 0, 1, 0, 0)" xlink:href="#未命名的渐变_2520" />
        <linearGradient id="未命名的渐变_8-7" x1="72.69" y1="56.62" x2="30.3" y2="14.23"
            gradientTransform="matrix(1, 0, 0, 1, 0, 0)" xlink:href="#未命名的渐变_8" />
        <linearGradient id="未命名的渐变_2520-17" x1="-185.65" y1="148.39" x2="-177.03" y2="139.77"
            xlink:href="#未命名的渐变_2520" />
        <linearGradient id="未命名的渐变_2520-18" x1="2.84" y1="43.39" x2="48.81" y2="-2.58"
            gradientTransform="matrix(1, 0, 0, 1, 0, 0)" xlink:href="#未命名的渐变_2520" />
        <linearGradient id="未命名的渐变_2520-19" x1="56.91" y1="74.81" x2="102.88" y2="28.85"
            gradientTransform="matrix(1, 0, 0, 1, 0, 0)" xlink:href="#未命名的渐变_2520" />
        <linearGradient id="未命名的渐变_2520-20" x1="71.47" y1="25.75" x2="85.63" y2="11.6"
            gradientTransform="matrix(1, 0, 0, 1, 0, 0)" xlink:href="#未命名的渐变_2520" />
        <linearGradient id="未命名的渐变_2520-21" x1="25.64" y1="66.19" x2="80.1" y2="11.73"
            gradientTransform="matrix(1, 0, 0, 1, 0, 0)" xlink:href="#未命名的渐变_2520" />
        <linearGradient id="未命名的渐变_2520-22" x1="20.09" y1="60.64" x2="34.25" y2="46.48"
            gradientTransform="matrix(1, 0, 0, 1, 0, 0)" xlink:href="#未命名的渐变_2520" />
        <linearGradient id="未命名的渐变_8-8" x1="78.35" y1="58.78" x2="27.35" y2="7.78"
            gradientTransform="matrix(1, 0, 0, 1, 0, 0)" xlink:href="#未命名的渐变_8" />
        <linearGradient id="未命名的渐变_8-9" x1="-181.37" y1="141.01" x2="-186.17" y2="136.21" xlink:href="#未命名的渐变_8" />
        <linearGradient id="未命名的渐变_2520-23" x1="-188.91" y1="147.03" x2="-183.98" y2="142.1"
            xlink:href="#未命名的渐变_2520" />
        <linearGradient id="未命名的渐变_2520-24" x1="-150.96" y1="123.03" x2="-142.33" y2="114.41"
            xlink:href="#未命名的渐变_2520" />
        <linearGradient id="未命名的渐变_2520-25" x1="-144.61" y1="121.48" x2="-138.99" y2="115.86"
            xlink:href="#未命名的渐变_2520" />
        <linearGradient id="未命名的渐变_8-10" x1="-142.16" y1="126.94" x2="-146.78" y2="122.32" xlink:href="#未命名的渐变_8" />
        <linearGradient id="未命名的渐变_2520-26" x1="-146.45" y1="125.65" x2="-137.83" y2="117.02"
            xlink:href="#未命名的渐变_2520" />
        <clipPath id="clip-path">
            <polygon class="cls-1" points="56.54 139 50.65 135.6 50.99 144.62 56 147.51 56.54 139" />
        </clipPath>
        <clipPath id="clip-path-2">
            <polygon class="cls-2" points="46.14 138.22 46.48 147.23 50.99 144.62 50.65 135.6 46.14 138.22" />
        </clipPath>
        <clipPath id="clip-path-3">
            <polygon class="cls-13" points="46.48 147.23 51.49 150.13 56 147.51 50.99 144.62 46.48 147.23" />
        </clipPath>
        <clipPath id="clip-path-4">
            <polygon class="cls-24" points="52.03 141.62 46.14 138.22 46.48 147.23 51.49 150.13 52.03 141.62" />
        </clipPath>
        <clipPath id="clip-path-5">
            <polygon class="cls-31" points="52.03 141.62 56.54 139 50.65 135.6 46.14 138.22 52.03 141.62" />
        </clipPath>
        <clipPath id="clip-path-6">
            <polygon class="cls-32" points="51.49 150.13 56 147.51 56.54 139 52.03 141.62 51.49 150.13" />
        </clipPath>
        <clipPath id="clip-path-7">
            <polygon class="cls-33" points="17.34 116.26 11.45 112.86 11.79 121.87 16.8 124.76 17.34 116.26" />
        </clipPath>
        <clipPath id="clip-path-8">
            <polygon class="cls-34" points="6.95 115.48 7.28 124.49 11.79 121.87 11.45 112.86 6.95 115.48" />
        </clipPath>
        <clipPath id="clip-path-9">
            <polygon class="cls-35" points="7.28 124.49 12.29 127.38 16.8 124.76 11.79 121.87 7.28 124.49" />
        </clipPath>
        <clipPath id="clip-path-10">
            <polygon class="cls-36" points="12.83 118.88 6.95 115.48 7.28 124.49 12.29 127.38 12.83 118.88" />
        </clipPath>
        <clipPath id="clip-path-11">
            <polygon class="cls-3" points="12.83 118.88 17.34 116.26 11.45 112.86 6.95 115.48 12.83 118.88" />
        </clipPath>
        <clipPath id="clip-path-12">
            <polygon class="cls-4" points="12.29 127.38 16.8 124.76 17.34 116.26 12.83 118.88 12.29 127.38" />
        </clipPath>
        <clipPath id="clip-path-13">
            <polygon class="cls-5" points="96.4 116 90.51 112.6 90.85 121.62 95.86 124.51 96.4 116" />
        </clipPath>
        <clipPath id="clip-path-14">
            <polygon class="cls-6" points="86.01 115.22 86.35 124.24 90.85 121.62 90.51 112.6 86.01 115.22" />
        </clipPath>
        <clipPath id="clip-path-15">
            <polygon class="cls-7" points="86.35 124.24 91.35 127.13 95.86 124.51 90.85 121.62 86.35 124.24" />
        </clipPath>
        <clipPath id="clip-path-16">
            <polygon class="cls-8" points="91.89 118.62 86.01 115.22 86.35 124.24 91.35 127.13 91.89 118.62" />
        </clipPath>
        <clipPath id="clip-path-17">
            <polygon class="cls-9" points="91.89 118.62 96.4 116 90.51 112.6 86.01 115.22 91.89 118.62" />
        </clipPath>
        <clipPath id="clip-path-18">
            <polygon class="cls-10" points="91.35 127.13 95.86 124.51 96.4 116 91.89 118.62 91.35 127.13" />
        </clipPath>
        <clipPath id="clip-path-19">
            <polygon class="cls-11" points="57.2 93.26 51.31 89.86 51.65 98.88 56.66 101.77 57.2 93.26" />
        </clipPath>
        <clipPath id="clip-path-20">
            <polygon class="cls-12" points="46.81 92.48 47.15 101.49 51.65 98.88 51.31 89.86 46.81 92.48" />
        </clipPath>
        <clipPath id="clip-path-21">
            <polygon class="cls-14" points="47.15 101.49 52.16 104.39 56.66 101.77 51.65 98.88 47.15 101.49" />
        </clipPath>
        <clipPath id="clip-path-22">
            <polygon class="cls-15" points="52.7 95.88 46.81 92.48 47.15 101.49 52.16 104.39 52.7 95.88" />
        </clipPath>
        <clipPath id="clip-path-23">
            <polygon class="cls-16" points="52.7 95.88 57.2 93.26 51.31 89.86 46.81 92.48 52.7 95.88" />
        </clipPath>
        <clipPath id="clip-path-24">
            <polygon class="cls-17" points="52.16 104.39 56.66 101.77 57.2 93.26 52.7 95.88 52.16 104.39" />
        </clipPath>
        <clipPath id="clip-path-25">
            <polygon class="cls-18" points="96.4 116.05 52.01 141.68 6.95 115.49 51.34 89.86 96.4 116.05" />
        </clipPath>
        <linearGradient id="未命名的渐变_8-27" x1="74.17" y1="138.27" x2="29.17" y2="93.27"
            gradientTransform="matrix(1, 0, 0, 1, 0, 0)" xlink:href="#未命名的渐变_8" />
        <clipPath id="clip-path-26">
            <polygon class="cls-19" points="51.16 6.91 51.34 89.86 6.95 115.49 6.78 37.76 51.16 6.91" />
        </clipPath>
        <clipPath id="clip-path-27">
            <polygon class="cls-20" points="96.22 33.1 96.4 116.05 52.01 141.68 51.84 63.94 96.22 33.1" />
        </clipPath>
        <clipPath id="clip-path-28">
            <polygon class="cls-21" points="96.22 33.1 96.4 116.05 51.34 89.86 51.16 6.91 96.22 33.1" />
        </clipPath>
        <clipPath id="clip-path-29">
            <polygon class="cls-22" points="52.01 141.68 6.95 115.49 6.78 37.76 51.84 63.94 52.01 141.68" />
        </clipPath>
        <clipPath id="clip-path-30">
            <polygon class="cls-23" points="51.84 63.94 6.78 37.76 51.16 6.91 96.22 33.1 51.84 63.94" />
        </clipPath>
        <clipPath id="clip-path-31">
            <polygon class="cls-25" points="51.51 0.13 51.52 5.8 0.14 40.69 0.13 35.01 51.51 0.13" />
        </clipPath>
        <clipPath id="clip-path-32">
            <polygon class="cls-26" points="105.58 31.55 105.6 37.23 54.21 72.11 54.2 66.43 105.58 31.55" />
        </clipPath>
        <clipPath id="clip-path-33">
            <polygon class="cls-27" points="105.58 31.55 105.6 37.23 51.52 5.8 51.51 0.13 105.58 31.55" />
        </clipPath>
        <clipPath id="clip-path-34">
            <polygon class="cls-28" points="105.6 37.23 54.21 72.11 0.14 40.69 51.52 5.8 105.6 37.23" />
        </clipPath>
        <clipPath id="clip-path-35">
            <polygon class="cls-29" points="54.21 72.11 0.14 40.69 0.13 35.01 54.2 66.43 54.21 72.11" />
        </clipPath>
        <clipPath id="clip-path-36">
            <polygon class="cls-30" points="54.2 66.43 0.13 35.01 51.51 0.13 105.58 31.55 54.2 66.43" />
        </clipPath>
    </defs>
    <title>Fire Fighting Box（消防箱）</title>
    <g id="图层_2" data-name="图层 2">
        <g id="图层_27" data-name="图层 27">
            <g id="Fire_Fighting_Box_消防箱_" data-name="Fire Fighting Box（消防箱）">
                <g class="cls-37">
                    <polygon class="cls-38" points="56.54 139 50.65 135.6 50.99 144.62 56 147.51 56.54 139" />
                    <g class="cls-39">
                        <polygon class="cls-1" points="56.54 139 50.65 135.6 50.99 144.62 56 147.51 56.54 139" />
                    </g>
                    <polygon class="cls-40" points="56.54 139 50.65 135.6 50.99 144.62 56 147.51 56.54 139" />
                </g>
                <g class="cls-37">
                    <polygon class="cls-41" points="46.14 138.22 46.48 147.23 50.99 144.62 50.65 135.6 46.14 138.22" />
                    <g class="cls-42">
                        <polygon class="cls-2"
                            points="46.14 138.22 46.48 147.23 50.99 144.62 50.65 135.6 46.14 138.22" />
                    </g>
                    <polygon class="cls-40" points="46.14 138.22 46.48 147.23 50.99 144.62 50.65 135.6 46.14 138.22" />
                </g>
                <g class="cls-37">
                    <polygon class="cls-43" points="46.48 147.23 51.49 150.13 56 147.51 50.99 144.62 46.48 147.23" />
                    <g class="cls-44">
                        <polygon class="cls-13"
                            points="46.48 147.23 51.49 150.13 56 147.51 50.99 144.62 46.48 147.23" />
                    </g>
                    <polygon class="cls-40" points="46.48 147.23 51.49 150.13 56 147.51 50.99 144.62 46.48 147.23" />
                </g>
                <g class="cls-45">
                    <polygon class="cls-46" points="52.03 141.62 46.14 138.22 46.48 147.23 51.49 150.13 52.03 141.62" />
                    <g class="cls-47">
                        <polygon class="cls-24"
                            points="52.03 141.62 46.14 138.22 46.48 147.23 51.49 150.13 52.03 141.62" />
                    </g>
                    <polygon class="cls-40" points="52.03 141.62 46.14 138.22 46.48 147.23 51.49 150.13 52.03 141.62" />
                </g>
                <g class="cls-45">
                    <polygon class="cls-48" points="52.03 141.62 56.54 139 50.65 135.6 46.14 138.22 52.03 141.62" />
                    <g class="cls-49">
                        <polygon class="cls-31" points="52.03 141.62 56.54 139 50.65 135.6 46.14 138.22 52.03 141.62" />
                    </g>
                    <polygon class="cls-40" points="52.03 141.62 56.54 139 50.65 135.6 46.14 138.22 52.03 141.62" />
                </g>
                <g class="cls-45">
                    <polygon class="cls-50" points="51.49 150.13 56 147.51 56.54 139 52.03 141.62 51.49 150.13" />
                    <g class="cls-51">
                        <polygon class="cls-32" points="51.49 150.13 56 147.51 56.54 139 52.03 141.62 51.49 150.13" />
                    </g>
                    <polygon class="cls-40" points="51.49 150.13 56 147.51 56.54 139 52.03 141.62 51.49 150.13" />
                </g>
                <g class="cls-37">
                    <polygon class="cls-52" points="17.34 116.26 11.45 112.86 11.79 121.87 16.8 124.76 17.34 116.26" />
                    <g class="cls-53">
                        <polygon class="cls-33"
                            points="17.34 116.26 11.45 112.86 11.79 121.87 16.8 124.76 17.34 116.26" />
                    </g>
                    <polygon class="cls-40" points="17.34 116.26 11.45 112.86 11.79 121.87 16.8 124.76 17.34 116.26" />
                </g>
                <g class="cls-37">
                    <polygon class="cls-54" points="6.95 115.48 7.28 124.49 11.79 121.87 11.45 112.86 6.95 115.48" />
                    <g class="cls-55">
                        <polygon class="cls-34"
                            points="6.95 115.48 7.28 124.49 11.79 121.87 11.45 112.86 6.95 115.48" />
                    </g>
                    <polygon class="cls-40" points="6.95 115.48 7.28 124.49 11.79 121.87 11.45 112.86 6.95 115.48" />
                </g>
                <g class="cls-37">
                    <polygon class="cls-56" points="7.28 124.49 12.29 127.38 16.8 124.76 11.79 121.87 7.28 124.49" />
                    <g class="cls-57">
                        <polygon class="cls-35"
                            points="7.28 124.49 12.29 127.38 16.8 124.76 11.79 121.87 7.28 124.49" />
                    </g>
                    <polygon class="cls-40" points="7.28 124.49 12.29 127.38 16.8 124.76 11.79 121.87 7.28 124.49" />
                </g>
                <g class="cls-45">
                    <polygon class="cls-58" points="12.83 118.88 6.95 115.48 7.28 124.49 12.29 127.38 12.83 118.88" />
                    <g class="cls-59">
                        <polygon class="cls-36"
                            points="12.83 118.88 6.95 115.48 7.28 124.49 12.29 127.38 12.83 118.88" />
                    </g>
                    <polygon class="cls-40" points="12.83 118.88 6.95 115.48 7.28 124.49 12.29 127.38 12.83 118.88" />
                </g>
                <g class="cls-45">
                    <polygon class="cls-60" points="12.83 118.88 17.34 116.26 11.45 112.86 6.95 115.48 12.83 118.88" />
                    <g class="cls-61">
                        <polygon class="cls-3"
                            points="12.83 118.88 17.34 116.26 11.45 112.86 6.95 115.48 12.83 118.88" />
                    </g>
                    <polygon class="cls-40" points="12.83 118.88 17.34 116.26 11.45 112.86 6.95 115.48 12.83 118.88" />
                </g>
                <g class="cls-45">
                    <polygon class="cls-62" points="12.29 127.38 16.8 124.76 17.34 116.26 12.83 118.88 12.29 127.38" />
                    <g class="cls-63">
                        <polygon class="cls-4"
                            points="12.29 127.38 16.8 124.76 17.34 116.26 12.83 118.88 12.29 127.38" />
                    </g>
                    <polygon class="cls-40" points="12.29 127.38 16.8 124.76 17.34 116.26 12.83 118.88 12.29 127.38" />
                </g>
                <g class="cls-37">
                    <polygon class="cls-64" points="96.4 116 90.51 112.6 90.85 121.62 95.86 124.51 96.4 116" />
                    <g class="cls-65">
                        <polygon class="cls-5" points="96.4 116 90.51 112.6 90.85 121.62 95.86 124.51 96.4 116" />
                    </g>
                    <polygon class="cls-40" points="96.4 116 90.51 112.6 90.85 121.62 95.86 124.51 96.4 116" />
                </g>
                <g class="cls-37">
                    <polygon class="cls-66" points="86.01 115.22 86.35 124.24 90.85 121.62 90.51 112.6 86.01 115.22" />
                    <g class="cls-67">
                        <polygon class="cls-6"
                            points="86.01 115.22 86.35 124.24 90.85 121.62 90.51 112.6 86.01 115.22" />
                    </g>
                    <polygon class="cls-40" points="86.01 115.22 86.35 124.24 90.85 121.62 90.51 112.6 86.01 115.22" />
                </g>
                <g class="cls-37">
                    <polygon class="cls-68" points="86.35 124.24 91.35 127.13 95.86 124.51 90.85 121.62 86.35 124.24" />
                    <g class="cls-69">
                        <polygon class="cls-7"
                            points="86.35 124.24 91.35 127.13 95.86 124.51 90.85 121.62 86.35 124.24" />
                    </g>
                    <polygon class="cls-40" points="86.35 124.24 91.35 127.13 95.86 124.51 90.85 121.62 86.35 124.24" />
                </g>
                <g class="cls-45">
                    <polygon class="cls-70" points="91.89 118.62 86.01 115.22 86.35 124.24 91.35 127.13 91.89 118.62" />
                    <g class="cls-71">
                        <polygon class="cls-8"
                            points="91.89 118.62 86.01 115.22 86.35 124.24 91.35 127.13 91.89 118.62" />
                    </g>
                    <polygon class="cls-40" points="91.89 118.62 86.01 115.22 86.35 124.24 91.35 127.13 91.89 118.62" />
                </g>
                <g class="cls-45">
                    <polygon class="cls-72" points="91.89 118.62 96.4 116 90.51 112.6 86.01 115.22 91.89 118.62" />
                    <g class="cls-73">
                        <polygon class="cls-9" points="91.89 118.62 96.4 116 90.51 112.6 86.01 115.22 91.89 118.62" />
                    </g>
                    <polygon class="cls-40" points="91.89 118.62 96.4 116 90.51 112.6 86.01 115.22 91.89 118.62" />
                </g>
                <g class="cls-45">
                    <polygon class="cls-74" points="91.35 127.13 95.86 124.51 96.4 116 91.89 118.62 91.35 127.13" />
                    <g class="cls-75">
                        <polygon class="cls-10" points="91.35 127.13 95.86 124.51 96.4 116 91.89 118.62 91.35 127.13" />
                    </g>
                    <polygon class="cls-40" points="91.35 127.13 95.86 124.51 96.4 116 91.89 118.62 91.35 127.13" />
                </g>
                <g class="cls-76">
                    <g class="cls-37">
                        <polygon class="cls-77" points="57.2 93.26 51.31 89.86 51.65 98.88 56.66 101.77 57.2 93.26" />
                        <g class="cls-78">
                            <polygon class="cls-11"
                                points="57.2 93.26 51.31 89.86 51.65 98.88 56.66 101.77 57.2 93.26" />
                        </g>
                        <polygon class="cls-40" points="57.2 93.26 51.31 89.86 51.65 98.88 56.66 101.77 57.2 93.26" />
                    </g>
                    <g class="cls-37">
                        <polygon class="cls-79" points="46.81 92.48 47.15 101.49 51.65 98.88 51.31 89.86 46.81 92.48" />
                        <g class="cls-80">
                            <polygon class="cls-12"
                                points="46.81 92.48 47.15 101.49 51.65 98.88 51.31 89.86 46.81 92.48" />
                        </g>
                        <polygon class="cls-40" points="46.81 92.48 47.15 101.49 51.65 98.88 51.31 89.86 46.81 92.48" />
                    </g>
                    <g class="cls-37">
                        <polygon class="cls-81"
                            points="47.15 101.49 52.16 104.39 56.66 101.77 51.65 98.88 47.15 101.49" />
                        <g class="cls-82">
                            <polygon class="cls-14"
                                points="47.15 101.49 52.16 104.39 56.66 101.77 51.65 98.88 47.15 101.49" />
                        </g>
                        <polygon class="cls-40"
                            points="47.15 101.49 52.16 104.39 56.66 101.77 51.65 98.88 47.15 101.49" />
                    </g>
                    <g class="cls-45">
                        <polygon class="cls-83" points="52.7 95.88 46.81 92.48 47.15 101.49 52.16 104.39 52.7 95.88" />
                        <g class="cls-84">
                            <polygon class="cls-15"
                                points="52.7 95.88 46.81 92.48 47.15 101.49 52.16 104.39 52.7 95.88" />
                        </g>
                        <polygon class="cls-40" points="52.7 95.88 46.81 92.48 47.15 101.49 52.16 104.39 52.7 95.88" />
                    </g>
                    <g class="cls-45">
                        <polygon class="cls-85" points="52.7 95.88 57.2 93.26 51.31 89.86 46.81 92.48 52.7 95.88" />
                        <g class="cls-86">
                            <polygon class="cls-16" points="52.7 95.88 57.2 93.26 51.31 89.86 46.81 92.48 52.7 95.88" />
                        </g>
                        <polygon class="cls-40" points="52.7 95.88 57.2 93.26 51.31 89.86 46.81 92.48 52.7 95.88" />
                    </g>
                    <g class="cls-45">
                        <polygon class="cls-87" points="52.16 104.39 56.66 101.77 57.2 93.26 52.7 95.88 52.16 104.39" />
                        <g class="cls-88">
                            <polygon class="cls-17"
                                points="52.16 104.39 56.66 101.77 57.2 93.26 52.7 95.88 52.16 104.39" />
                        </g>
                        <polygon class="cls-40" points="52.16 104.39 56.66 101.77 57.2 93.26 52.7 95.88 52.16 104.39" />
                    </g>
                </g>
                <g class="cls-37">
                    <polygon class="cls-89" points="96.4 116.05 52.01 141.68 6.95 115.49 51.34 89.86 96.4 116.05" />
                    <g class="cls-90">
                        <polygon class="cls-91" points="96.4 116.05 52.01 141.68 6.95 115.49 51.34 89.86 96.4 116.05" />
                    </g>
                    <polygon class="cls-40" points="96.4 116.05 52.01 141.68 6.95 115.49 51.34 89.86 96.4 116.05" />
                </g>
                <g class="cls-37">
                    <polygon class="cls-92" points="51.16 6.91 51.34 89.86 6.95 115.49 6.78 37.76 51.16 6.91" />
                    <g class="cls-93">
                        <polygon class="cls-19" points="51.16 6.91 51.34 89.86 6.95 115.49 6.78 37.76 51.16 6.91" />
                    </g>
                    <polygon class="cls-40" points="51.16 6.91 51.34 89.86 6.95 115.49 6.78 37.76 51.16 6.91" />
                </g>
                <g class="cls-45">
                    <polygon class="cls-94" points="96.22 33.1 96.4 116.05 52.01 141.68 51.84 63.94 96.22 33.1" />
                    <g class="cls-95">
                        <polygon class="cls-20" points="96.22 33.1 96.4 116.05 52.01 141.68 51.84 63.94 96.22 33.1" />
                    </g>
                    <polygon class="cls-40" points="96.22 33.1 96.4 116.05 52.01 141.68 51.84 63.94 96.22 33.1" />
                </g>
                <g class="cls-37">
                    <polygon class="cls-96" points="96.22 33.1 96.4 116.05 51.34 89.86 51.16 6.91 96.22 33.1" />
                    <g class="cls-97">
                        <polygon class="cls-21" points="96.22 33.1 96.4 116.05 51.34 89.86 51.16 6.91 96.22 33.1" />
                    </g>
                    <polygon class="cls-40" points="96.22 33.1 96.4 116.05 51.34 89.86 51.16 6.91 96.22 33.1" />
                </g>
                <g class="cls-45">
                    <polygon class="cls-98" points="52.01 141.68 6.95 115.49 6.78 37.76 51.84 63.94 52.01 141.68" />
                    <g class="cls-99">
                        <polygon class="cls-22" points="52.01 141.68 6.95 115.49 6.78 37.76 51.84 63.94 52.01 141.68" />
                    </g>
                    <polygon class="cls-40" points="52.01 141.68 6.95 115.49 6.78 37.76 51.84 63.94 52.01 141.68" />
                </g>
                <g class="cls-45">
                    <polygon class="cls-100" points="51.84 63.94 6.78 37.76 51.16 6.91 96.22 33.1 51.84 63.94" />
                    <g class="cls-101">
                        <polygon class="cls-102" points="51.84 63.94 6.78 37.76 51.16 6.91 96.22 33.1 51.84 63.94" />
                    </g>
                    <polygon class="cls-40" points="51.84 63.94 6.78 37.76 51.16 6.91 96.22 33.1 51.84 63.94" />
                </g>
                <g class="cls-37">
                    <polygon class="cls-103" points="51.51 0.13 51.52 5.8 0.14 40.69 0.13 35.01 51.51 0.13" />
                    <g class="cls-104">
                        <polygon class="cls-25" points="51.51 0.13 51.52 5.8 0.14 40.69 0.13 35.01 51.51 0.13" />
                    </g>
                    <polygon class="cls-40" points="51.51 0.13 51.52 5.8 0.14 40.69 0.13 35.01 51.51 0.13" />
                </g>
                <g class="cls-45">
                    <polygon class="cls-105" points="105.58 31.55 105.6 37.23 54.21 72.11 54.2 66.43 105.58 31.55" />
                    <g class="cls-106">
                        <polygon class="cls-26" points="105.58 31.55 105.6 37.23 54.21 72.11 54.2 66.43 105.58 31.55" />
                    </g>
                    <polygon class="cls-40" points="105.58 31.55 105.6 37.23 54.21 72.11 54.2 66.43 105.58 31.55" />
                </g>
                <g class="cls-37">
                    <polygon class="cls-107" points="105.58 31.55 105.6 37.23 51.52 5.8 51.51 0.13 105.58 31.55" />
                    <g class="cls-108">
                        <polygon class="cls-27" points="105.58 31.55 105.6 37.23 51.52 5.8 51.51 0.13 105.58 31.55" />
                    </g>
                    <polygon class="cls-40" points="105.58 31.55 105.6 37.23 51.52 5.8 51.51 0.13 105.58 31.55" />
                </g>
                <g class="cls-37">
                    <polygon class="cls-109" points="105.6 37.23 54.21 72.11 0.14 40.69 51.52 5.8 105.6 37.23" />
                    <g class="cls-110">
                        <polygon class="cls-28" points="105.6 37.23 54.21 72.11 0.14 40.69 51.52 5.8 105.6 37.23" />
                    </g>
                    <polygon class="cls-40" points="105.6 37.23 54.21 72.11 0.14 40.69 51.52 5.8 105.6 37.23" />
                </g>
                <g class="cls-45">
                    <polygon class="cls-111" points="54.21 72.11 0.14 40.69 0.13 35.01 54.2 66.43 54.21 72.11" />
                    <g class="cls-112">
                        <polygon class="cls-29" points="54.21 72.11 0.14 40.69 0.13 35.01 54.2 66.43 54.21 72.11" />
                    </g>
                    <polygon class="cls-40" points="54.21 72.11 0.14 40.69 0.13 35.01 54.2 66.43 54.21 72.11" />
                </g>
                <g class="cls-45">
                    <polygon class="cls-113" points="54.2 66.43 0.13 35.01 51.51 0.13 105.58 31.55 54.2 66.43" />
                    <g class="cls-114">
                        <polygon class="cls-30" points="54.2 66.43 0.13 35.01 51.51 0.13 105.58 31.55 54.2 66.43" />
                    </g>
                    <polygon class="cls-40" points="54.2 66.43 0.13 35.01 51.51 0.13 105.58 31.55 54.2 66.43" />
                </g>
                
            </g>
        </g>
    </g>
</svg>