<svg xmlns="http://www.w3.org/2000/svg" xmlns:xlink="http://www.w3.org/1999/xlink" viewBox="0 0 150.25 113.85">
    <defs>
        <style>
            .cls-1,
            .cls-10,
            .cls-11,
            .cls-12,
            .cls-13,
            .cls-14,
            .cls-15,
            .cls-16,
            .cls-17,
            .cls-18,
            .cls-19,
            .cls-2,
            .cls-20,
            .cls-21,
            .cls-22,
            .cls-23,
            .cls-27,
            .cls-3,
            .cls-5,
            .cls-6,
            .cls-7,
            .cls-76,
            .cls-78,
            .cls-79,
            .cls-8,
            .cls-80,
            .cls-81,
            .cls-9 {
                stroke: #5ac8f7;
            }

            .cls-1,
            .cls-10,
            .cls-11,
            .cls-12,
            .cls-13,
            .cls-14,
            .cls-15,
            .cls-16,
            .cls-17,
            .cls-18,
            .cls-19,
            .cls-2,
            .cls-20,
            .cls-21,
            .cls-22,
            .cls-23,
            .cls-27,
            .cls-3,
            .cls-4,
            .cls-5,
            .cls-51,
            .cls-6,
            .cls-7,
            .cls-74,
            .cls-76,
            .cls-77,
            .cls-78,
            .cls-79,
            .cls-8,
            .cls-80,
            .cls-81,
            .cls-9 {
                stroke-linejoin: round;
                stroke-width: 0.25px;
            }

            .cls-1,
            .cls-25 {
                fill: url(#未命名的渐变_39);
            }

            .cls-2,
            .cls-28 {
                fill: url(#未命名的渐变_141);
            }

            .cls-3,
            .cls-47 {
                fill: url(#未命名的渐变_141-2);
            }

            .cls-4,
            .cls-49 {
                fill: url(#未命名的渐变_84);
            }

            .cls-4,
            .cls-51 {
                stroke: url(#未命名的渐变_136);
            }

            .cls-5,
            .cls-52 {
                fill: url(#未命名的渐变_141-3);
            }

            .cls-54,
            .cls-6 {
                fill: url(#未命名的渐变_39-2);
            }

            .cls-56,
            .cls-7 {
                fill: url(#未命名的渐变_141-4);
            }

            .cls-58,
            .cls-8 {
                fill: url(#未命名的渐变_141-5);
            }

            .cls-60,
            .cls-9 {
                fill: url(#未命名的渐变_141-6);
            }

            .cls-10,
            .cls-62 {
                fill: url(#未命名的渐变_141-7);
            }

            .cls-11,
            .cls-64 {
                fill: url(#未命名的渐变_39-3);
            }

            .cls-12,
            .cls-66 {
                fill: url(#未命名的渐变_141-8);
            }

            .cls-13,
            .cls-30 {
                fill: url(#未命名的渐变_39-4);
            }

            .cls-14,
            .cls-68 {
                fill: url(#未命名的渐变_141-9);
            }

            .cls-15,
            .cls-70 {
                fill: url(#未命名的渐变_141-10);
            }

            .cls-16,
            .cls-72 {
                fill: url(#未命名的渐变_39-5);
            }

            .cls-17,
            .cls-33 {
                fill: url(#未命名的渐变_39-6);
            }

            .cls-18,
            .cls-35 {
                fill: url(#未命名的渐变_141-11);
            }

            .cls-19,
            .cls-37 {
                fill: url(#未命名的渐变_39-7);
            }

            .cls-20,
            .cls-39 {
                fill: url(#未命名的渐变_39-8);
            }

            .cls-21,
            .cls-41 {
                fill: url(#未命名的渐变_39-9);
            }

            .cls-22,
            .cls-43 {
                fill: url(#未命名的渐变_141-12);
            }

            .cls-23,
            .cls-45 {
                fill: url(#未命名的渐变_141-13);
            }

            .cls-24,
            .cls-75 {
                opacity: 0.2;
            }

            .cls-24,
            .cls-32 {
                isolation: isolate;
            }

            .cls-26 {
                clip-path: url(#clip-path);
            }

            .cls-27,
            .cls-51,
            .cls-74 {
                fill: none;
            }

            .cls-29 {
                clip-path: url(#clip-path-2);
            }

            .cls-31 {
                clip-path: url(#clip-path-3);
            }

            .cls-34 {
                clip-path: url(#clip-path-4);
            }

            .cls-36 {
                clip-path: url(#clip-path-5);
            }

            .cls-38 {
                clip-path: url(#clip-path-6);
            }

            .cls-40 {
                clip-path: url(#clip-path-7);
            }

            .cls-42 {
                clip-path: url(#clip-path-8);
            }

            .cls-44 {
                clip-path: url(#clip-path-9);
            }

            .cls-46 {
                clip-path: url(#clip-path-10);
            }

            .cls-48 {
                clip-path: url(#clip-path-11);
            }

            .cls-50 {
                clip-path: url(#clip-path-12);
            }

            .cls-53 {
                clip-path: url(#clip-path-13);
            }

            .cls-55 {
                clip-path: url(#clip-path-14);
            }

            .cls-57 {
                clip-path: url(#clip-path-15);
            }

            .cls-59 {
                clip-path: url(#clip-path-16);
            }

            .cls-61 {
                clip-path: url(#clip-path-17);
            }

            .cls-63 {
                clip-path: url(#clip-path-18);
            }

            .cls-65 {
                clip-path: url(#clip-path-19);
            }

            .cls-67 {
                clip-path: url(#clip-path-20);
            }

            .cls-69 {
                clip-path: url(#clip-path-21);
            }

            .cls-71 {
                clip-path: url(#clip-path-22);
            }

            .cls-73 {
                clip-path: url(#clip-path-23);
            }

            .cls-74 {
                stroke: url(#未命名的渐变_164);
            }

            .cls-76 {
                fill: url(#未命名的渐变_39-28);
            }

            .cls-77 {
                fill: url(#未命名的渐变_39-29);
                stroke: url(#未命名的渐变_154);
            }

            .cls-78 {
                fill: url(#未命名的渐变_39-30);
            }

            .cls-79 {
                fill: url(#未命名的渐变_141-40);
            }

            .cls-80 {
                fill: url(#未命名的渐变_141-41);
            }

            .cls-81 {
                fill: url(#未命名的渐变_141-42);
            }
        </style>
        <linearGradient id="未命名的渐变_39" x1="4.71" y1="71.54" x2="21.29" y2="54.96" gradientUnits="userSpaceOnUse">
            <stop offset="0" stop-color="#5ac8f7" stop-opacity="0.6" />
            <stop offset="1" stop-color="#2a6aaf" stop-opacity="0" />
        </linearGradient>
        <linearGradient id="未命名的渐变_141" x1="-6.7" y1="78.99" x2="18.92" y2="53.37" gradientUnits="userSpaceOnUse">
            <stop offset="0" stop-color="#2a6aaf" stop-opacity="0" />
            <stop offset="1" stop-color="#5ac8f7" stop-opacity="0.6" />
        </linearGradient>
        <linearGradient id="未命名的渐变_141-2" x1="74.35" y1="69.81" x2="79.71" y2="64.45" xlink:href="#未命名的渐变_141" />
        <linearGradient id="未命名的渐变_84" x1="87.42" y1="76.21" x2="117.84" y2="45.79" gradientUnits="userSpaceOnUse">
            <stop offset="0" stop-color="#2a6aaf" stop-opacity="0" />
            <stop offset="1" stop-color="#5ac8f7" stop-opacity="0.2" />
        </linearGradient>
        <linearGradient id="未命名的渐变_136" x1="87.33" y1="76.3" x2="117.92" y2="45.7" gradientUnits="userSpaceOnUse">
            <stop offset="0" stop-color="#5ac8f7" />
            <stop offset="0" stop-color="#59c7f6" stop-opacity="0.99" />
            <stop offset="0.04" stop-color="#50b5e9" stop-opacity="0.8" />
            <stop offset="0.09" stop-color="#48a6dd" stop-opacity="0.63" />
            <stop offset="0.14" stop-color="#4197d2" stop-opacity="0.48" />
            <stop offset="0.19" stop-color="#3b8bc8" stop-opacity="0.35" />
            <stop offset="0.25" stop-color="#3681c0" stop-opacity="0.24" />
            <stop offset="0.32" stop-color="#3178ba" stop-opacity="0.15" />
            <stop offset="0.39" stop-color="#2e72b5" stop-opacity="0.08" />
            <stop offset="0.49" stop-color="#2c6db2" stop-opacity="0.04" />
            <stop offset="0.62" stop-color="#2a6bb0" stop-opacity="0.01" />
            <stop offset="1" stop-color="#2a6aaf" stop-opacity="0" />
        </linearGradient>
        <linearGradient id="未命名的渐变_141-3" x1="103.63" y1="43.5" x2="119.86" y2="27.27" xlink:href="#未命名的渐变_141" />
        <linearGradient id="未命名的渐变_39-2" x1="113.54" y1="73.49" x2="74.97" y2="34.93" xlink:href="#未命名的渐变_39" />
        <linearGradient id="未命名的渐变_141-4" x1="55.38" y1="52.04" x2="88.7" y2="18.72" xlink:href="#未命名的渐变_141" />
        <linearGradient id="未命名的渐变_141-5" x1="67.71" y1="64.37" x2="83.95" y2="48.13" xlink:href="#未命名的渐变_141" />
        <linearGradient id="未命名的渐变_141-6" x1="100.31" y1="80.34" x2="136.62" y2="44.03" xlink:href="#未命名的渐变_141" />
        <linearGradient id="未命名的渐变_141-7" x1="101.69" y1="33.38" x2="121.8" y2="13.27" xlink:href="#未命名的渐变_141" />
        <linearGradient id="未命名的渐变_39-3" x1="120.76" y1="68.66" x2="67.75" y2="15.64" xlink:href="#未命名的渐变_39" />
        <linearGradient id="未命名的渐变_141-8" x1="46.21" y1="34.69" x2="79.54" y2="1.37" xlink:href="#未命名的渐变_141" />
        <linearGradient id="未命名的渐变_39-4" x1="8.99" y1="84.86" x2="5.04" y2="80.91" xlink:href="#未命名的渐变_39" />
        <linearGradient id="未命名的渐变_141-9" x1="65.77" y1="54.25" x2="85.88" y2="34.14" xlink:href="#未命名的渐变_141" />
        <linearGradient id="未命名的渐变_141-10" x1="109.48" y1="73.57" x2="145.79" y2="37.26" xlink:href="#未命名的渐变_141" />
        <linearGradient id="未命名的渐变_39-5" x1="128.34" y1="63.38" x2="64.16" y2="-0.79" xlink:href="#未命名的渐变_39" />
        <linearGradient id="未命名的渐变_39-6" x1="-7.22" y1="78.47" x2="9.36" y2="61.89" xlink:href="#未命名的渐变_39" />
        <linearGradient id="未命名的渐变_141-11" x1="-4.85" y1="80.06" x2="20.76" y2="54.44" xlink:href="#未命名的渐变_141" />
        <linearGradient id="未命名的渐变_39-7" x1="9.03" y1="52.53" x2="5.08" y2="48.57" xlink:href="#未命名的渐变_39" />
        <linearGradient id="未命名的渐变_39-8" x1="104.72" y1="68.45" x2="92.94" y2="56.68" xlink:href="#未命名的渐变_39" />
        <linearGradient id="未命名的渐变_39-9" x1="98.87" y1="65.8" x2="83.65" y2="50.58" xlink:href="#未命名的渐变_39" />
        <linearGradient id="未命名的渐变_141-12" x1="110.26" y1="48.94" x2="115.63" y2="43.58" xlink:href="#未命名的渐变_141" />
        <linearGradient id="未命名的渐变_141-13" x1="72.27" y1="67.47" x2="102.69" y2="37.05" xlink:href="#未命名的渐变_141" />
        <clipPath id="clip-path">
            <polygon class="cls-1" points="13.94 47.62 13.9 79.95 12.05 78.88 12.1 46.55 13.94 47.62" />
        </clipPath>
        <clipPath id="clip-path-2">
            <polygon class="cls-2" points="0.13 85.82 0.17 53.48 12.1 46.55 12.05 78.88 0.13 85.82" />
        </clipPath>
        <clipPath id="clip-path-3">
            <polygon class="cls-13" points="1.97 86.88 0.13 85.82 12.05 78.88 13.9 79.95 1.97 86.88" />
        </clipPath>
        <clipPath id="clip-path-4">
            <polygon class="cls-17" points="2.01 54.55 1.97 86.88 0.13 85.82 0.17 53.48 2.01 54.55" />
        </clipPath>
        <clipPath id="clip-path-5">
            <polygon class="cls-18" points="2.01 54.55 13.94 47.62 13.9 79.95 1.97 86.88 2.01 54.55" />
        </clipPath>
        <clipPath id="clip-path-6">
            <polygon class="cls-19" points="0.17 53.48 12.1 46.55 13.94 47.62 2.01 54.55 0.17 53.48" />
        </clipPath>
        <clipPath id="clip-path-7">
            <polygon class="cls-20" points="84.66 73.46 77.08 72.54 113 51.68 120.58 52.59 84.66 73.46" />
        </clipPath>
        <clipPath id="clip-path-8">
            <polygon class="cls-21" points="77.08 72.54 69.52 64.71 105.43 43.85 113 51.68 77.08 72.54" />
        </clipPath>
        <clipPath id="clip-path-9">
            <polygon class="cls-22"
                points="120.59 48.55 120.58 52.59 113 51.68 105.43 43.85 105.45 39.8 120.59 48.55" />
        </clipPath>
        <clipPath id="clip-path-10">
            <polygon class="cls-23" points="69.52 64.71 69.53 60.67 105.45 39.8 105.43 43.85 69.52 64.71" />
        </clipPath>
        <clipPath id="clip-path-11">
            <polygon class="cls-3" points="84.67 69.41 84.66 73.46 77.08 72.54 69.52 64.71 69.53 60.67 84.67 69.41" />
        </clipPath>
        <clipPath id="clip-path-12">
            <polygon class="cls-4" points="84.67 69.41 120.59 48.55 120.58 52.59 84.66 73.46 84.67 69.41" />
        </clipPath>
        <clipPath id="clip-path-13">
            <polygon class="cls-5" points="140.96 48.37 131.89 55.14 92.54 32.42 87.46 17.48 140.96 48.37" />
        </clipPath>
        <clipPath id="clip-path-14">
            <polygon class="cls-6" points="95.97 76 56.62 53.28 92.54 32.42 131.89 55.14 95.97 76" />
        </clipPath>
        <clipPath id="clip-path-15">
            <polygon class="cls-7" points="56.62 53.28 51.54 38.34 87.46 17.48 92.54 32.42 56.62 53.28" />
        </clipPath>
        <clipPath id="clip-path-16">
            <polygon class="cls-8" points="105.04 69.23 95.97 76 56.62 53.28 51.54 38.34 105.04 69.23" />
        </clipPath>
        <clipPath id="clip-path-17">
            <polygon class="cls-9" points="105.04 69.23 140.96 48.37 131.89 55.14 95.97 76 105.04 69.23" />
        </clipPath>
        <clipPath id="clip-path-18">
            <polygon class="cls-10" points="150.13 41.6 141.05 48.37 83.37 15.07 78.29 0.13 150.13 41.6" />
        </clipPath>
        <clipPath id="clip-path-19">
            <polygon class="cls-11" points="105.14 69.23 47.46 35.93 83.37 15.07 141.05 48.37 105.14 69.23" />
        </clipPath>
        <clipPath id="clip-path-20">
            <polygon class="cls-12" points="47.46 35.93 42.38 20.99 78.29 0.13 83.37 15.07 47.46 35.93" />
        </clipPath>
        <clipPath id="clip-path-21">
            <polygon class="cls-14" points="114.21 62.46 105.14 69.23 47.46 35.93 42.38 20.99 114.21 62.46" />
        </clipPath>
        <clipPath id="clip-path-22">
            <polygon class="cls-15" points="114.21 62.46 150.13 41.6 141.05 48.37 105.14 69.23 114.21 62.46" />
        </clipPath>
        <clipPath id="clip-path-23">
            <polygon class="cls-16" points="42.38 20.99 78.29 0.13 150.13 41.6 114.21 62.46 42.38 20.99" />
        </clipPath>
        <linearGradient id="未命名的渐变_164" x1="46.85" y1="113.85" x2="46.85" y2="63" gradientUnits="userSpaceOnUse">
            <stop offset="0" stop-color="#5ac8f7" />
            <stop offset="0.11" stop-color="#59c6f6" stop-opacity="0.98" />
            <stop offset="0.24" stop-color="#56c1f2" stop-opacity="0.93" />
            <stop offset="0.37" stop-color="#52b8eb" stop-opacity="0.84" />
            <stop offset="0.51" stop-color="#4cace2" stop-opacity="0.71" />
            <stop offset="0.65" stop-color="#449dd6" stop-opacity="0.54" />
            <stop offset="0.79" stop-color="#3a8ac8" stop-opacity="0.34" />
            <stop offset="0.94" stop-color="#2f74b7" stop-opacity="0.11" />
            <stop offset="1" stop-color="#2a6aaf" stop-opacity="0" />
        </linearGradient>
        <linearGradient id="未命名的渐变_39-28" x1="7.26" y1="67.69" x2="14.36" y2="67.69"
            gradientTransform="translate(63.91 24.33) rotate(59.84)" xlink:href="#未命名的渐变_39" />
        <linearGradient id="未命名的渐变_39-29" x1="35.95" y1="99.74" x2="76.7" y2="58.99" xlink:href="#未命名的渐变_39" />
        <linearGradient id="未命名的渐变_154" x1="7.14" y1="88.42" x2="86.57" y2="88.42" gradientUnits="userSpaceOnUse">
            <stop offset="0" stop-color="#5ac8f7" />
            <stop offset="1" stop-color="#2a6aaf" stop-opacity="0" />
        </linearGradient>
        <linearGradient id="未命名的渐变_39-30" x1="78.55" y1="71.61" x2="84.32" y2="65.84" xlink:href="#未命名的渐变_39" />
        <linearGradient id="未命名的渐变_141-40" x1="4.08" y1="70.43" x2="12.48" y2="62.03"
            gradientTransform="translate(61.38 25.79) rotate(59.84)" xlink:href="#未命名的渐变_141" />
        <linearGradient id="未命名的渐变_141-41" x1="11.31" y1="68.85" x2="5.84" y2="63.38" xlink:href="#未命名的渐变_141" />
        <linearGradient id="未命名的渐变_141-42" x1="6.27" y1="71.7" x2="14.67" y2="63.3"
            gradientTransform="translate(63.57 24.54) rotate(59.84)" xlink:href="#未命名的渐变_141" />
    </defs>
    <title>Monitor 1（监控1）</title>
    <g id="图层_2" data-name="图层 2">
        <g id="图层_27" data-name="图层 27">
            <g id="Monitor_1_监控1_" data-name="Monitor 1（监控1）">
                <g class="cls-24">
                    <polygon class="cls-25" points="13.94 47.62 13.9 79.95 12.05 78.88 12.1 46.55 13.94 47.62" />
                    <g class="cls-26">
                        <polygon class="cls-1" points="13.94 47.62 13.9 79.95 12.05 78.88 12.1 46.55 13.94 47.62" />
                    </g>
                    <polygon class="cls-27" points="13.94 47.62 13.9 79.95 12.05 78.88 12.1 46.55 13.94 47.62" />
                </g>
                <g class="cls-24">
                    <polygon class="cls-28" points="0.13 85.82 0.17 53.48 12.1 46.55 12.05 78.88 0.13 85.82" />
                    <g class="cls-29">
                        <polygon class="cls-2" points="0.13 85.82 0.17 53.48 12.1 46.55 12.05 78.88 0.13 85.82" />
                    </g>
                    <polygon class="cls-27" points="0.13 85.82 0.17 53.48 12.1 46.55 12.05 78.88 0.13 85.82" />
                </g>
                <g class="cls-24">
                    <polygon class="cls-30" points="1.97 86.88 0.13 85.82 12.05 78.88 13.9 79.95 1.97 86.88" />
                    <g class="cls-31">
                        <polygon class="cls-13" points="1.97 86.88 0.13 85.82 12.05 78.88 13.9 79.95 1.97 86.88" />
                    </g>
                    <polygon class="cls-27" points="1.97 86.88 0.13 85.82 12.05 78.88 13.9 79.95 1.97 86.88" />
                </g>
                <g class="cls-32">
                    <polygon class="cls-33" points="2.01 54.55 1.97 86.88 0.13 85.82 0.17 53.48 2.01 54.55" />
                    <g class="cls-34">
                        <polygon class="cls-17" points="2.01 54.55 1.97 86.88 0.13 85.82 0.17 53.48 2.01 54.55" />
                    </g>
                    <polygon class="cls-27" points="2.01 54.55 1.97 86.88 0.13 85.82 0.17 53.48 2.01 54.55" />
                </g>
                <g class="cls-32">
                    <polygon class="cls-35" points="2.01 54.55 13.94 47.62 13.9 79.95 1.97 86.88 2.01 54.55" />
                    <g class="cls-36">
                        <polygon class="cls-18" points="2.01 54.55 13.94 47.62 13.9 79.95 1.97 86.88 2.01 54.55" />
                    </g>
                    <polygon class="cls-27" points="2.01 54.55 13.94 47.62 13.9 79.95 1.97 86.88 2.01 54.55" />
                </g>
                <g class="cls-32">
                    <polygon class="cls-37" points="0.17 53.48 12.1 46.55 13.94 47.62 2.01 54.55 0.17 53.48" />
                    <g class="cls-38">
                        <polygon class="cls-19" points="0.17 53.48 12.1 46.55 13.94 47.62 2.01 54.55 0.17 53.48" />
                    </g>
                    <polygon class="cls-27" points="0.17 53.48 12.1 46.55 13.94 47.62 2.01 54.55 0.17 53.48" />
                </g>
                <g class="cls-32">
                    <g class="cls-24">
                        <polygon class="cls-39" points="84.66 73.46 77.08 72.54 113 51.68 120.58 52.59 84.66 73.46" />
                        <g class="cls-40">
                            <polygon class="cls-20"
                                points="84.66 73.46 77.08 72.54 113 51.68 120.58 52.59 84.66 73.46" />
                        </g>
                        <polygon class="cls-27" points="84.66 73.46 77.08 72.54 113 51.68 120.58 52.59 84.66 73.46" />
                    </g>
                    <g class="cls-24">
                        <polygon class="cls-41" points="77.08 72.54 69.52 64.71 105.43 43.85 113 51.68 77.08 72.54" />
                        <g class="cls-42">
                            <polygon class="cls-21"
                                points="77.08 72.54 69.52 64.71 105.43 43.85 113 51.68 77.08 72.54" />
                        </g>
                        <polygon class="cls-27" points="77.08 72.54 69.52 64.71 105.43 43.85 113 51.68 77.08 72.54" />
                    </g>
                    <g class="cls-24">
                        <polygon class="cls-43"
                            points="120.59 48.55 120.58 52.59 113 51.68 105.43 43.85 105.45 39.8 120.59 48.55" />
                        <g class="cls-44">
                            <polygon class="cls-22"
                                points="120.59 48.55 120.58 52.59 113 51.68 105.43 43.85 105.45 39.8 120.59 48.55" />
                        </g>
                        <polygon class="cls-27"
                            points="120.59 48.55 120.58 52.59 113 51.68 105.43 43.85 105.45 39.8 120.59 48.55" />
                    </g>
                    <g class="cls-24">
                        <polygon class="cls-45" points="69.52 64.71 69.53 60.67 105.45 39.8 105.43 43.85 69.52 64.71" />
                        <g class="cls-46">
                            <polygon class="cls-23"
                                points="69.52 64.71 69.53 60.67 105.45 39.8 105.43 43.85 69.52 64.71" />
                        </g>
                        <polygon class="cls-27" points="69.52 64.71 69.53 60.67 105.45 39.8 105.43 43.85 69.52 64.71" />
                    </g>
                    <g class="cls-32">
                        <polygon class="cls-47"
                            points="84.67 69.41 84.66 73.46 77.08 72.54 69.52 64.71 69.53 60.67 84.67 69.41" />
                        <g class="cls-48">
                            <polygon class="cls-3"
                                points="84.67 69.41 84.66 73.46 77.08 72.54 69.52 64.71 69.53 60.67 84.67 69.41" />
                        </g>
                        <polygon class="cls-27"
                            points="84.67 69.41 84.66 73.46 77.08 72.54 69.52 64.71 69.53 60.67 84.67 69.41" />
                    </g>
                    <g class="cls-32">
                        <polygon class="cls-49"
                            points="84.67 69.41 120.59 48.55 120.58 52.59 84.66 73.46 84.67 69.41" />
                        <g class="cls-50">
                            <polygon class="cls-4"
                                points="84.67 69.41 120.59 48.55 120.58 52.59 84.66 73.46 84.67 69.41" />
                        </g>
                        <polygon class="cls-51"
                            points="84.67 69.41 120.59 48.55 120.58 52.59 84.66 73.46 84.67 69.41" />
                    </g>
                </g>
                <g class="cls-32">
                    <g class="cls-24">
                        <polygon class="cls-52"
                            points="140.96 48.37 131.89 55.14 92.54 32.42 87.46 17.48 140.96 48.37" />
                        <g class="cls-53">
                            <polygon class="cls-5"
                                points="140.96 48.37 131.89 55.14 92.54 32.42 87.46 17.48 140.96 48.37" />
                        </g>
                        <polygon class="cls-27"
                            points="140.96 48.37 131.89 55.14 92.54 32.42 87.46 17.48 140.96 48.37" />
                    </g>
                    <g class="cls-24">
                        <polygon class="cls-54" points="95.97 76 56.62 53.28 92.54 32.42 131.89 55.14 95.97 76" />
                        <g class="cls-55">
                            <polygon class="cls-6" points="95.97 76 56.62 53.28 92.54 32.42 131.89 55.14 95.97 76" />
                        </g>
                        <polygon class="cls-27" points="95.97 76 56.62 53.28 92.54 32.42 131.89 55.14 95.97 76" />
                    </g>
                    <g class="cls-24">
                        <polygon class="cls-56" points="56.62 53.28 51.54 38.34 87.46 17.48 92.54 32.42 56.62 53.28" />
                        <g class="cls-57">
                            <polygon class="cls-7"
                                points="56.62 53.28 51.54 38.34 87.46 17.48 92.54 32.42 56.62 53.28" />
                        </g>
                        <polygon class="cls-27" points="56.62 53.28 51.54 38.34 87.46 17.48 92.54 32.42 56.62 53.28" />
                    </g>
                    <g class="cls-32">
                        <polygon class="cls-58" points="105.04 69.23 95.97 76 56.62 53.28 51.54 38.34 105.04 69.23" />
                        <g class="cls-59">
                            <polygon class="cls-8"
                                points="105.04 69.23 95.97 76 56.62 53.28 51.54 38.34 105.04 69.23" />
                        </g>
                        <polygon class="cls-27" points="105.04 69.23 95.97 76 56.62 53.28 51.54 38.34 105.04 69.23" />
                    </g>
                    <g class="cls-32">
                        <polygon class="cls-60" points="105.04 69.23 140.96 48.37 131.89 55.14 95.97 76 105.04 69.23" />
                        <g class="cls-61">
                            <polygon class="cls-9"
                                points="105.04 69.23 140.96 48.37 131.89 55.14 95.97 76 105.04 69.23" />
                        </g>
                        <polygon class="cls-27" points="105.04 69.23 140.96 48.37 131.89 55.14 95.97 76 105.04 69.23" />
                    </g>
                </g>
                <g class="cls-32">
                    <g class="cls-24">
                        <polygon class="cls-62" points="150.13 41.6 141.05 48.37 83.37 15.07 78.29 0.13 150.13 41.6" />
                        <g class="cls-63">
                            <polygon class="cls-10"
                                points="150.13 41.6 141.05 48.37 83.37 15.07 78.29 0.13 150.13 41.6" />
                        </g>
                        <polygon class="cls-27" points="150.13 41.6 141.05 48.37 83.37 15.07 78.29 0.13 150.13 41.6" />
                    </g>
                    <g class="cls-24">
                        <polygon class="cls-64"
                            points="105.14 69.23 47.46 35.93 83.37 15.07 141.05 48.37 105.14 69.23" />
                        <g class="cls-65">
                            <polygon class="cls-11"
                                points="105.14 69.23 47.46 35.93 83.37 15.07 141.05 48.37 105.14 69.23" />
                        </g>
                        <polygon class="cls-27"
                            points="105.14 69.23 47.46 35.93 83.37 15.07 141.05 48.37 105.14 69.23" />
                    </g>
                    <g class="cls-24">
                        <polygon class="cls-66" points="47.46 35.93 42.38 20.99 78.29 0.13 83.37 15.07 47.46 35.93" />
                        <g class="cls-67">
                            <polygon class="cls-12"
                                points="47.46 35.93 42.38 20.99 78.29 0.13 83.37 15.07 47.46 35.93" />
                        </g>
                        <polygon class="cls-27" points="47.46 35.93 42.38 20.99 78.29 0.13 83.37 15.07 47.46 35.93" />
                    </g>
                    <g class="cls-32">
                        <polygon class="cls-68"
                            points="114.21 62.46 105.14 69.23 47.46 35.93 42.38 20.99 114.21 62.46" />
                        <g class="cls-69">
                            <polygon class="cls-14"
                                points="114.21 62.46 105.14 69.23 47.46 35.93 42.38 20.99 114.21 62.46" />
                        </g>
                        <polygon class="cls-27"
                            points="114.21 62.46 105.14 69.23 47.46 35.93 42.38 20.99 114.21 62.46" />
                    </g>
                    <g class="cls-32">
                        <polygon class="cls-70"
                            points="114.21 62.46 150.13 41.6 141.05 48.37 105.14 69.23 114.21 62.46" />
                        <g class="cls-71">
                            <polygon class="cls-15"
                                points="114.21 62.46 150.13 41.6 141.05 48.37 105.14 69.23 114.21 62.46" />
                        </g>
                        <polygon class="cls-27"
                            points="114.21 62.46 150.13 41.6 141.05 48.37 105.14 69.23 114.21 62.46" />
                    </g>
                    <g class="cls-32">
                        <polygon class="cls-72" points="42.38 20.99 78.29 0.13 150.13 41.6 114.21 62.46 42.38 20.99" />
                        <g class="cls-73">
                            <polygon class="cls-16"
                                points="42.38 20.99 78.29 0.13 150.13 41.6 114.21 62.46 42.38 20.99" />
                        </g>
                        <polygon class="cls-27" points="42.38 20.99 78.29 0.13 150.13 41.6 114.21 62.46 42.38 20.99" />
                    </g>
                </g>
                <path class="cls-74"
                    d="M86.37,109.56a5,5,0,0,1-1.38,2.7,5,5,0,0,1-5.72,1l-.58-.33s0,0-.06,0l-2.3-1.31L8.3,72a2.47,2.47,0,0,1-1-2.27A7.81,7.81,0,0,1,10.8,63.6a2.53,2.53,0,0,1,2.52-.24l63,36.64.08-31.28a2.5,2.5,0,0,0,1.47,2.06,7.82,7.82,0,0,0,7.08,0,2.5,2.5,0,0,0,1.45-2l-.06,39.2Z" />
                <g class="cls-75">
                    <ellipse class="cls-76" cx="10.81" cy="67.69" rx="5" ry="2.9"
                        transform="translate(-53.15 43.03) rotate(-59.84)" />
                </g>
                <path class="cls-77"
                    d="M86.37,109.56a5,5,0,0,1-1.38,2.7,5,5,0,0,1-5.72,1l-.58-.33s0,0-.06,0l-2.3-1.31L8.3,72a2.47,2.47,0,0,1-1-2.27A7.81,7.81,0,0,1,10.8,63.6a2.53,2.53,0,0,1,2.52-.24l63,36.64.08-31.28a2.5,2.5,0,0,0,1.47,2.06,7.82,7.82,0,0,0,7.08,0,2.5,2.5,0,0,0,1.45-2l-.06,39.2Z" />
                <g class="cls-75">
                    <path class="cls-78"
                        d="M85,66.68c2,1.13,2,3,0,4.1a7.82,7.82,0,0,1-7.08,0c-2-1.14-2-3,0-4.1A7.76,7.76,0,0,1,85,66.68Z" />
                </g>
                <g class="cls-32">
                    <g class="cls-75">
                        <ellipse class="cls-79" cx="8.28" cy="66.23" rx="6.07" ry="3.52"
                            transform="translate(-53.14 40.11) rotate(-59.84)" />
                    </g>
                    <path class="cls-80"
                        d="M11.33,61a3,3,0,0,0-3.06.3A9.46,9.46,0,0,0,4,68.71a3,3,0,0,0,1.26,2.76l2.19,1.28A3,3,0,0,1,6.16,70a9.45,9.45,0,0,1,4.29-7.43,3,3,0,0,1,3.07-.3Z" />
                    <ellipse class="cls-81" cx="10.47" cy="67.5" rx="6.07" ry="3.52"
                        transform="translate(-53.15 42.63) rotate(-59.84)" />
                </g>
                
            </g>
        </g>
    </g>
</svg>