<svg xmlns="http://www.w3.org/2000/svg" xmlns:xlink="http://www.w3.org/1999/xlink" viewBox="0 0 150.25 131.33">
    <defs>
        <style>
            .cls-1,
            .cls-10,
            .cls-11,
            .cls-16,
            .cls-2,
            .cls-3,
            .cls-4,
            .cls-5,
            .cls-6,
            .cls-7,
            .cls-8,
            .cls-9 {
                stroke: #5ac8f7;
                stroke-linejoin: round;
                stroke-width: 0.25px;
            }

            .cls-1,
            .cls-14 {
                fill: url(#未命名的渐变_89);
            }

            .cls-17,
            .cls-2 {
                fill: url(#未命名的渐变_89-2);
            }

            .cls-3,
            .cls-34 {
                fill: url(#未命名的渐变_89-3);
            }

            .cls-36,
            .cls-4 {
                fill: url(#未命名的渐变_115);
            }

            .cls-19,
            .cls-5 {
                fill: url(#未命名的渐变_115-2);
            }

            .cls-21,
            .cls-6 {
                fill: url(#未命名的渐变_89-4);
            }

            .cls-23,
            .cls-7 {
                fill: url(#未命名的渐变_89-5);
            }

            .cls-26,
            .cls-8 {
                fill: url(#未命名的渐变_89-6);
            }

            .cls-28,
            .cls-9 {
                fill: url(#未命名的渐变_89-7);
            }

            .cls-10,
            .cls-30 {
                fill: url(#未命名的渐变_115-3);
            }

            .cls-11,
            .cls-32 {
                fill: url(#未命名的渐变_89-8);
            }

            .cls-12,
            .cls-13 {
                isolation: isolate;
            }

            .cls-13,
            .cls-38 {
                opacity: 0.2;
            }

            .cls-15 {
                clip-path: url(#clip-path);
            }

            .cls-16 {
                fill: none;
            }

            .cls-18 {
                clip-path: url(#clip-path-2);
            }

            .cls-20 {
                clip-path: url(#clip-path-3);
            }

            .cls-22 {
                clip-path: url(#clip-path-4);
            }

            .cls-24 {
                clip-path: url(#clip-path-5);
            }

            .cls-25 {
                fill: url(#未命名的渐变_115-6);
            }

            .cls-27 {
                clip-path: url(#clip-path-6);
            }

            .cls-29 {
                clip-path: url(#clip-path-7);
            }

            .cls-31 {
                clip-path: url(#clip-path-8);
            }

            .cls-33 {
                clip-path: url(#clip-path-9);
            }

            .cls-35 {
                clip-path: url(#clip-path-10);
            }

            .cls-37 {
                clip-path: url(#clip-path-11);
            }
        </style>
        <linearGradient id="未命名的渐变_89" x1="5.4" y1="85.67" x2="57.53" y2="33.54" gradientUnits="userSpaceOnUse">
            <stop offset="0" stop-color="#2a6aaf" stop-opacity="0" />
            <stop offset="1" stop-color="#5ac8f7" stop-opacity="0.6" />
        </linearGradient>
        <linearGradient id="未命名的渐变_89-2" x1="95.91" y1="77.45" x2="116.97" y2="56.39" xlink:href="#未命名的渐变_89" />
        <linearGradient id="未命名的渐变_89-3" x1="16.83" y1="91.36" x2="70.98" y2="37.21" xlink:href="#未命名的渐变_89" />
        <linearGradient id="未命名的渐变_115" x1="81.28" y1="61.96" x2="11.19" y2="-8.13" gradientUnits="userSpaceOnUse">
            <stop offset="0" stop-color="#5ac8f7" stop-opacity="0.6" />
            <stop offset="1" stop-color="#2a6aaf" stop-opacity="0" />
        </linearGradient>
        <linearGradient id="未命名的渐变_115-2" x1="116.29" y1="128.9" x2="34.01" y2="46.61" xlink:href="#未命名的渐变_115" />
        <linearGradient id="未命名的渐变_89-4" x1="92.76" y1="136.43" x2="144.88" y2="84.31" xlink:href="#未命名的渐变_89" />
        <linearGradient id="未命名的渐变_89-5" x1="33.32" y1="113.59" x2="54.37" y2="92.53" xlink:href="#未命名的渐变_89" />
        <linearGradient id="未命名的渐变_89-6" x1="21.7" y1="88.55" x2="75.86" y2="34.39" xlink:href="#未命名的渐变_89" />
        <linearGradient id="未命名的渐变_89-7" x1="-17.19" y1="57.35" x2="22.52" y2="17.64" xlink:href="#未命名的渐变_89" />
        <linearGradient id="未命名的渐变_115-3" x1="81.49" y1="133.88" x2="11.4" y2="63.8" xlink:href="#未命名的渐变_115" />
        <linearGradient id="未命名的渐变_89-8" x1="70.17" y1="108.11" x2="109.87" y2="68.41" xlink:href="#未命名的渐变_89" />
        <clipPath id="clip-path">
            <polygon class="cls-1" points="62.76 38.77 62.77 44.31 0.18 80.44 0.16 74.91 62.76 38.77" />
        </clipPath>
        <clipPath id="clip-path-2">
            <polygon class="cls-2" points="150.11 89.53 150.13 95.07 62.77 44.31 62.76 38.77 150.11 89.53" />
        </clipPath>
        <clipPath id="clip-path-3">
            <polygon class="cls-5" points="150.13 95.07 87.53 131.21 0.18 80.44 62.77 44.31 150.13 95.07" />
        </clipPath>
        <clipPath id="clip-path-4">
            <polygon class="cls-6" points="150.11 89.53 150.13 95.07 87.53 131.21 87.52 125.67 150.11 89.53" />
        </clipPath>
        <clipPath id="clip-path-5">
            <polygon class="cls-7" points="87.53 131.21 0.18 80.44 0.16 74.91 87.52 125.67 87.53 131.21" />
        </clipPath>
        <linearGradient id="未命名的渐变_115-6" x1="116.28" y1="123.36" x2="33.99" y2="41.08" xlink:href="#未命名的渐变_115" />
        <clipPath id="clip-path-6">
            <polygon class="cls-8" points="92.35 50.89 92.56 122.81 5.2 72.05 5 0.13 92.35 50.89" />
        </clipPath>
        <clipPath id="clip-path-7">
            <polygon class="cls-9" points="5 0.13 5.2 72.05 0.33 74.86 0.13 2.94 5 0.13" />
        </clipPath>
        <clipPath id="clip-path-8">
            <polygon class="cls-10" points="92.56 122.81 87.68 125.63 0.33 74.86 5.2 72.05 92.56 122.81" />
        </clipPath>
        <clipPath id="clip-path-9">
            <polygon class="cls-11" points="92.35 50.89 92.56 122.81 87.68 125.63 87.48 53.7 92.35 50.89" />
        </clipPath>
        <clipPath id="clip-path-10">
            <polygon class="cls-3" points="87.68 125.63 0.33 74.86 0.13 2.94 87.48 53.7 87.68 125.63" />
        </clipPath>
        <clipPath id="clip-path-11">
            <polygon class="cls-4" points="87.48 53.7 0.13 2.94 5 0.13 92.35 50.89 87.48 53.7" />
        </clipPath>
    </defs>
    <title>Notebook computer（笔记本电脑）</title>
    <g id="图层_2" data-name="图层 2">
        <g id="图层_27" data-name="图层 27">
            <g id="Notebook_computer_笔记本电脑_" data-name="Notebook computer（笔记本电脑）">
                <g class="cls-12">
                    <g class="cls-13">
                        <polygon class="cls-14" points="62.76 38.77 62.77 44.31 0.18 80.44 0.16 74.91 62.76 38.77" />
                        <g class="cls-15">
                            <polyline class="cls-1" points="62.76 38.77 62.77 44.31 0.18 80.44 0.16 74.91" />
                        </g>
                        <polygon class="cls-16" points="62.76 38.77 62.77 44.31 0.18 80.44 0.16 74.91 62.76 38.77" />
                    </g>
                    <g class="cls-13">
                        <polygon class="cls-17"
                            points="150.11 89.53 150.13 95.07 62.77 44.31 62.76 38.77 150.11 89.53" />
                        <g class="cls-18">
                            <polygon class="cls-2"
                                points="150.11 89.53 150.13 95.07 62.77 44.31 62.76 38.77 150.11 89.53" />
                        </g>
                        <polygon class="cls-16"
                            points="150.11 89.53 150.13 95.07 62.77 44.31 62.76 38.77 150.11 89.53" />
                    </g>
                    <g class="cls-13">
                        <polygon class="cls-19"
                            points="150.13 95.07 87.53 131.21 0.18 80.44 62.77 44.31 150.13 95.07" />
                        <g class="cls-20">
                            <polygon class="cls-5"
                                points="150.13 95.07 87.53 131.21 0.18 80.44 62.77 44.31 150.13 95.07" />
                        </g>
                        <polygon class="cls-16"
                            points="150.13 95.07 87.53 131.21 0.18 80.44 62.77 44.31 150.13 95.07" />
                    </g>
                    <g class="cls-12">
                        <polygon class="cls-21"
                            points="150.11 89.53 150.13 95.07 87.53 131.21 87.52 125.67 150.11 89.53" />
                        <g class="cls-22">
                            <polygon class="cls-6"
                                points="150.11 89.53 150.13 95.07 87.53 131.21 87.52 125.67 150.11 89.53" />
                        </g>
                        <polygon class="cls-16"
                            points="150.11 89.53 150.13 95.07 87.53 131.21 87.52 125.67 150.11 89.53" />
                    </g>
                    <g class="cls-12">
                        <polygon class="cls-23" points="87.53 131.21 0.18 80.44 0.16 74.91 87.52 125.67 87.53 131.21" />
                        <g class="cls-24">
                            <polygon class="cls-7"
                                points="87.53 131.21 0.18 80.44 0.16 74.91 87.52 125.67 87.53 131.21" />
                        </g>
                        <polygon class="cls-16" points="87.53 131.21 0.18 80.44 0.16 74.91 87.52 125.67 87.53 131.21" />
                    </g>
                    <g class="cls-12">
                        <polyline class="cls-25" points="62.76 38.77 150.11 89.53 87.52 125.67 0.16 74.91" />
                        <polyline class="cls-16" points="62.76 38.77 150.11 89.53 87.52 125.67 0.16 74.91" />
                    </g>
                </g>
                <g class="cls-12">
                    <g class="cls-13">
                        <polygon class="cls-26" points="92.35 50.89 92.56 122.81 5.2 72.05 5 0.13 92.35 50.89" />
                        <g class="cls-27">
                            <polygon class="cls-8" points="92.35 50.89 92.56 122.81 5.2 72.05 5 0.13 92.35 50.89" />
                        </g>
                        <polygon class="cls-16" points="92.35 50.89 92.56 122.81 5.2 72.05 5 0.13 92.35 50.89" />
                    </g>
                    <g class="cls-13">
                        <polygon class="cls-28" points="5 0.13 5.2 72.05 0.33 74.86 0.13 2.94 5 0.13" />
                        <g class="cls-29">
                            <polygon class="cls-9" points="5 0.13 5.2 72.05 0.33 74.86 0.13 2.94 5 0.13" />
                        </g>
                        <polygon class="cls-16" points="5 0.13 5.2 72.05 0.33 74.86 0.13 2.94 5 0.13" />
                    </g>
                    <g class="cls-13">
                        <polygon class="cls-30" points="92.56 122.81 87.68 125.63 0.33 74.86 5.2 72.05 92.56 122.81" />
                        <g class="cls-31">
                            <polygon class="cls-10"
                                points="92.56 122.81 87.68 125.63 0.33 74.86 5.2 72.05 92.56 122.81" />
                        </g>
                        <polygon class="cls-16" points="92.56 122.81 87.68 125.63 0.33 74.86 5.2 72.05 92.56 122.81" />
                    </g>
                    <g class="cls-12">
                        <polygon class="cls-32" points="92.35 50.89 92.56 122.81 87.68 125.63 87.48 53.7 92.35 50.89" />
                        <g class="cls-33">
                            <polygon class="cls-11"
                                points="92.35 50.89 92.56 122.81 87.68 125.63 87.48 53.7 92.35 50.89" />
                        </g>
                        <polygon class="cls-16" points="92.35 50.89 92.56 122.81 87.68 125.63 87.48 53.7 92.35 50.89" />
                    </g>
                    <g class="cls-12">
                        <polygon class="cls-34" points="87.68 125.63 0.33 74.86 0.13 2.94 87.48 53.7 87.68 125.63" />
                        <g class="cls-35">
                            <polygon class="cls-3" points="87.68 125.63 0.33 74.86 0.13 2.94 87.48 53.7 87.68 125.63" />
                        </g>
                        <polygon class="cls-16" points="87.68 125.63 0.33 74.86 0.13 2.94 87.48 53.7 87.68 125.63" />
                    </g>
                    <g class="cls-12">
                        <polygon class="cls-36" points="87.48 53.7 0.13 2.94 5 0.13 92.35 50.89 87.48 53.7" />
                        <g class="cls-37">
                            <polygon class="cls-4" points="87.48 53.7 0.13 2.94 5 0.13 92.35 50.89 87.48 53.7" />
                        </g>
                        <polygon class="cls-16" points="87.48 53.7 0.13 2.94 5 0.13 92.35 50.89 87.48 53.7" />
                    </g>
                </g>
                
            </g>
        </g>
    </g>
</svg>