<svg xmlns="http://www.w3.org/2000/svg" xmlns:xlink="http://www.w3.org/1999/xlink" viewBox="0 0 127.54 150.25">
    <defs>
        <style>
            .cls-1,
            .cls-10,
            .cls-11,
            .cls-13,
            .cls-14,
            .cls-15,
            .cls-16,
            .cls-17,
            .cls-19,
            .cls-2,
            .cls-20,
            .cls-21,
            .cls-23,
            .cls-25,
            .cls-26,
            .cls-30,
            .cls-4,
            .cls-5,
            .cls-6,
            .cls-8,
            .cls-9 {
                stroke: #5ac8f7;
            }

            .cls-1,
            .cls-10,
            .cls-11,
            .cls-12,
            .cls-13,
            .cls-14,
            .cls-15,
            .cls-16,
            .cls-17,
            .cls-18,
            .cls-19,
            .cls-2,
            .cls-20,
            .cls-21,
            .cls-22,
            .cls-23,
            .cls-24,
            .cls-25,
            .cls-26,
            .cls-3,
            .cls-30,
            .cls-4,
            .cls-42,
            .cls-47,
            .cls-5,
            .cls-54,
            .cls-6,
            .cls-64,
            .cls-7,
            .cls-75,
            .cls-8,
            .cls-86,
            .cls-89,
            .cls-9 {
                stroke-linejoin: round;
                stroke-width: 0.25px;
            }

            .cls-1,
            .cls-28 {
                fill: url(#未命名的渐变_215);
            }

            .cls-2,
            .cls-31 {
                fill: url(#未命名的渐变_215-2);
            }

            .cls-3,
            .cls-52 {
                fill: url(#未命名的渐变_215-3);
            }

            .cls-3,
            .cls-54 {
                stroke: url(#未命名的渐变_215-4);
            }

            .cls-4,
            .cls-56 {
                fill: url(#未命名的渐变_215-5);
            }

            .cls-5,
            .cls-58 {
                fill: url(#未命名的渐变_215-6);
            }

            .cls-6,
            .cls-60 {
                fill: url(#未命名的渐变_172);
            }

            .cls-62,
            .cls-7 {
                fill: url(#未命名的渐变_172-2);
            }

            .cls-64,
            .cls-7 {
                stroke: url(#未命名的渐变_216);
            }

            .cls-65,
            .cls-8 {
                fill: url(#未命名的渐变_172-3);
            }

            .cls-67,
            .cls-9 {
                fill: url(#未命名的渐变_215-7);
            }

            .cls-10,
            .cls-69 {
                fill: url(#未命名的渐变_215-8);
            }

            .cls-11,
            .cls-71 {
                fill: url(#未命名的渐变_172-4);
            }

            .cls-12,
            .cls-73 {
                fill: url(#未命名的渐变_172-5);
            }

            .cls-12,
            .cls-75 {
                stroke: url(#未命名的渐变_216-2);
            }

            .cls-13,
            .cls-33 {
                fill: url(#未命名的渐变_215-9);
            }

            .cls-14,
            .cls-76 {
                fill: url(#未命名的渐变_172-6);
            }

            .cls-15,
            .cls-78 {
                fill: url(#未命名的渐变_172-7);
            }

            .cls-16,
            .cls-80 {
                fill: url(#未命名的渐变_172-8);
            }

            .cls-17,
            .cls-82 {
                fill: url(#未命名的渐变_172-9);
            }

            .cls-18,
            .cls-84 {
                fill: url(#未命名的渐变_172-10);
            }

            .cls-18,
            .cls-86 {
                stroke: url(#未命名的渐变_216-3);
            }

            .cls-19,
            .cls-87 {
                fill: url(#未命名的渐变_215-10);
            }

            .cls-20,
            .cls-36 {
                fill: url(#未命名的渐变_215-11);
            }

            .cls-21,
            .cls-38 {
                fill: url(#未命名的渐变_215-12);
            }

            .cls-22,
            .cls-40 {
                fill: url(#未命名的渐变_172-11);
            }

            .cls-22,
            .cls-42 {
                stroke: url(#未命名的渐变_172-12);
            }

            .cls-23,
            .cls-43 {
                fill: url(#未命名的渐变_215-13);
            }

            .cls-24,
            .cls-45 {
                fill: url(#未命名的渐变_172-13);
            }

            .cls-24,
            .cls-47 {
                stroke: url(#未命名的渐变_172-14);
            }

            .cls-25,
            .cls-48 {
                fill: url(#未命名的渐变_215-14);
            }

            .cls-26,
            .cls-50 {
                fill: url(#未命名的渐变_172-15);
            }

            .cls-27,
            .cls-90 {
                opacity: 0.2;
            }

            .cls-27,
            .cls-35,
            .cls-55 {
                isolation: isolate;
            }

            .cls-29 {
                clip-path: url(#clip-path);
            }

            .cls-30,
            .cls-42,
            .cls-47,
            .cls-54,
            .cls-64,
            .cls-75,
            .cls-86 {
                fill: none;
            }

            .cls-32 {
                clip-path: url(#clip-path-2);
            }

            .cls-34 {
                clip-path: url(#clip-path-3);
            }

            .cls-37 {
                clip-path: url(#clip-path-4);
            }

            .cls-39 {
                clip-path: url(#clip-path-5);
            }

            .cls-41 {
                clip-path: url(#clip-path-6);
            }

            .cls-44 {
                clip-path: url(#clip-path-7);
            }

            .cls-46 {
                clip-path: url(#clip-path-8);
            }

            .cls-49 {
                clip-path: url(#clip-path-9);
            }

            .cls-51 {
                clip-path: url(#clip-path-10);
            }

            .cls-53 {
                clip-path: url(#clip-path-11);
            }

            .cls-55 {
                opacity: 0.1;
            }

            .cls-57 {
                clip-path: url(#clip-path-12);
            }

            .cls-59 {
                clip-path: url(#clip-path-13);
            }

            .cls-61 {
                clip-path: url(#clip-path-14);
            }

            .cls-63 {
                clip-path: url(#clip-path-15);
            }

            .cls-66 {
                clip-path: url(#clip-path-16);
            }

            .cls-68 {
                clip-path: url(#clip-path-17);
            }

            .cls-70 {
                clip-path: url(#clip-path-18);
            }

            .cls-72 {
                clip-path: url(#clip-path-19);
            }

            .cls-74 {
                clip-path: url(#clip-path-20);
            }

            .cls-77 {
                clip-path: url(#clip-path-21);
            }

            .cls-79 {
                clip-path: url(#clip-path-22);
            }

            .cls-81 {
                clip-path: url(#clip-path-23);
            }

            .cls-83 {
                clip-path: url(#clip-path-24);
            }

            .cls-85 {
                clip-path: url(#clip-path-25);
            }

            .cls-88 {
                clip-path: url(#clip-path-26);
            }

            .cls-89 {
                fill: url(#未命名的渐变_172-46);
                stroke: url(#未命名的渐变_217);
            }
        </style>
        <linearGradient id="未命名的渐变_215" x1="35.73" y1="141.34" x2="91.68" y2="85.39" gradientUnits="userSpaceOnUse">
            <stop offset="0" stop-color="#5ac8f7" stop-opacity="0.6" />
            <stop offset="1" stop-color="#2a6aaf" stop-opacity="0" />
        </linearGradient>
        <linearGradient id="未命名的渐变_215-2" x1="-7.31" y1="98.31" x2="57.82" y2="33.18" xlink:href="#未命名的渐变_215" />
        <linearGradient id="未命名的渐变_215-3" x1="87.99" y1="144.22" x2="31.5" y2="87.73" xlink:href="#未命名的渐变_215" />
        <linearGradient id="未命名的渐变_215-4" x1="88.08" y1="144.31" x2="31.41" y2="87.64" xlink:href="#未命名的渐变_215" />
        <linearGradient id="未命名的渐变_215-5" x1="8.64" y1="110.87" x2="50.45" y2="69.06" xlink:href="#未命名的渐变_215" />
        <linearGradient id="未命名的渐变_215-6" x1="70.05" y1="105.95" x2="91.53" y2="84.47" xlink:href="#未命名的渐变_215" />
        <linearGradient id="未命名的渐变_172" x1="69.19" y1="145.73" x2="110.99" y2="103.93" gradientUnits="userSpaceOnUse">
            <stop offset="0" stop-color="#2a6aaf" stop-opacity="0" />
            <stop offset="1" stop-color="#5ac8f7" stop-opacity="0.6" />
        </linearGradient>
        <linearGradient id="未命名的渐变_172-2" x1="88.13" y1="127.07" x2="31.64" y2="70.58" xlink:href="#未命名的渐变_172" />
        <linearGradient id="未命名的渐变_216" x1="59.88" y1="128.57" x2="59.88" y2="69.08" gradientUnits="userSpaceOnUse">
            <stop offset="0" stop-color="#2a6aaf" stop-opacity="0" />
            <stop offset="1" stop-color="#5ac8f7" />
        </linearGradient>
        <linearGradient id="未命名的渐变_172-3" x1="28.1" y1="130.33" x2="49.58" y2="108.85" xlink:href="#未命名的渐变_172" />
        <linearGradient id="未命名的渐变_215-7" x1="10.09" y1="95.17" x2="48.99" y2="56.28" xlink:href="#未命名的渐变_215" />
        <linearGradient id="未命名的渐变_215-8" x1="71.5" y1="90.26" x2="90.08" y2="71.68" xlink:href="#未命名的渐变_215" />
        <linearGradient id="未命名的渐变_172-4" x1="70.64" y1="130.04" x2="109.54" y2="91.14" xlink:href="#未命名的渐变_172" />
        <linearGradient id="未命名的渐变_172-5" x1="88.13" y1="115.73" x2="31.64" y2="59.24" xlink:href="#未命名的渐变_172" />
        <linearGradient id="未命名的渐变_216-2" x1="59.88" y1="117.24" x2="59.88" y2="57.74" xlink:href="#未命名的渐变_216" />
        <linearGradient id="未命名的渐变_215-9" x1="67.93" y1="94.28" x2="109.75" y2="52.46" xlink:href="#未命名的渐变_215" />
        <linearGradient id="未命名的渐变_172-6" x1="29.55" y1="114.63" x2="48.13" y2="96.06" xlink:href="#未命名的渐变_172" />
        <linearGradient id="未命名的渐变_172-7" x1="68.46" y1="85.78" x2="84.27" y2="69.97" xlink:href="#未命名的渐变_172" />
        <linearGradient id="未命名的渐变_172-8" x1="30.77" y1="48.09" x2="65.53" y2="13.33" xlink:href="#未命名的渐变_172" />
        <linearGradient id="未命名的渐变_172-9" x1="58.31" y1="69.52" x2="102.78" y2="25.06" xlink:href="#未命名的渐变_172" />
        <linearGradient id="未命名的渐变_172-10" x1="91.68" y1="83.49" x2="126.45" y2="48.73" xlink:href="#未命名的渐变_172" />
        <linearGradient id="未命名的渐变_216-3" x1="107.87" y1="96.82" x2="107.87" y2="35.4" xlink:href="#未命名的渐变_216" />
        <linearGradient id="未命名的渐变_215-10" x1="105.34" y1="43.43" x2="56.36" y2="-5.54" xlink:href="#未命名的渐变_215" />
        <linearGradient id="未命名的渐变_215-11" x1="59.48" y1="135.94" x2="86.72" y2="108.7" xlink:href="#未命名的渐变_215" />
        <linearGradient id="未命名的渐变_215-12" x1="60.62" y1="137.08" x2="119.28" y2="78.42" xlink:href="#未命名的渐变_215" />
        <linearGradient id="未命名的渐变_172-11" x1="61.49" y1="97.29" x2="99.82" y2="58.96" xlink:href="#未命名的渐变_172" />
        <linearGradient id="未命名的渐变_172-12" x1="80.65" y1="121.11" x2="80.65" y2="35.14" xlink:href="#未命名的渐变_172" />
        <linearGradient id="未命名的渐变_215-13" x1="-9.3" y1="96.31" x2="17.93" y2="69.07" xlink:href="#未命名的渐变_215" />
        <linearGradient id="未命名的渐变_172-13" x1="0.08" y1="102.21" x2="58.74" y2="43.55" xlink:href="#未命名的渐变_172" />
        <linearGradient id="未命名的渐变_172-14" x1="29.41" y1="110.62" x2="29.41" y2="35.14" xlink:href="#未命名的渐变_172" />
        <linearGradient id="未命名的渐变_215-14" x1="99.44" y1="98.11" x2="28.24" y2="26.91" xlink:href="#未命名的渐变_215" />
        <linearGradient id="未命名的渐变_172-15" x1="69.73" y1="142.69" x2="134.85" y2="77.57" xlink:href="#未命名的渐变_172" />
        <clipPath id="clip-path">
            <polygon class="cls-1"
                points="127.29 120.99 77.16 150.13 68.91 145.37 110.86 120.99 50.31 86.12 8.37 110.5 0.13 105.74 50.25 76.61 127.29 120.99" />
        </clipPath>
        <clipPath id="clip-path-2">
            <polygon class="cls-2" points="0.26 54.88 50.39 25.75 50.25 76.61 0.13 105.74 0.26 54.88" />
        </clipPath>
        <clipPath id="clip-path-3">
            <polygon class="cls-13" points="50.39 25.75 127.42 70.14 127.29 120.99 50.25 76.61 50.39 25.75" />
        </clipPath>
        <clipPath id="clip-path-4">
            <polygon class="cls-20" points="77.29 99.27 77.16 150.13 68.91 145.37 69.05 94.51 77.29 99.27" />
        </clipPath>
        <clipPath id="clip-path-5">
            <polygon class="cls-21" points="69.05 94.51 110.99 70.13 110.86 120.99 68.91 145.37 69.05 94.51" />
        </clipPath>
        <clipPath id="clip-path-6">
            <polygon class="cls-22" points="110.99 70.13 110.86 120.99 50.31 86.12 50.45 35.27 110.99 70.13" />
        </clipPath>
        <clipPath id="clip-path-7">
            <polygon class="cls-23" points="8.5 59.64 8.37 110.5 0.13 105.74 0.26 54.88 8.5 59.64" />
        </clipPath>
        <clipPath id="clip-path-8">
            <polygon class="cls-24" points="50.45 35.27 50.31 86.12 8.37 110.5 8.5 59.64 50.45 35.27" />
        </clipPath>
        <clipPath id="clip-path-9">
            <polygon class="cls-25"
                points="127.42 70.14 77.29 99.27 69.05 94.51 110.99 70.13 50.45 35.27 8.5 59.64 0.26 54.88 50.39 25.75 127.42 70.14" />
        </clipPath>
        <clipPath id="clip-path-10">
            <polygon class="cls-26" points="127.42 70.14 127.29 120.99 77.16 150.13 77.29 99.27 127.42 70.14" />
        </clipPath>
        <clipPath id="clip-path-11">
            <polygon class="cls-3" points="110.99 121.22 69.05 145.6 8.5 110.73 50.45 86.35 110.99 121.22" />
        </clipPath>
        <clipPath id="clip-path-12">
            <polygon class="cls-4" points="8.64 93.58 50.58 69.2 50.45 86.35 8.5 110.73 8.64 93.58" />
        </clipPath>
        <clipPath id="clip-path-13">
            <polygon class="cls-5" points="50.58 69.2 111.13 104.07 110.99 121.22 50.45 86.35 50.58 69.2" />
        </clipPath>
        <clipPath id="clip-path-14">
            <polygon class="cls-6" points="111.13 104.07 110.99 121.22 69.05 145.6 69.18 128.44 111.13 104.07" />
        </clipPath>
        <clipPath id="clip-path-15">
            <polygon class="cls-7" points="111.13 104.07 69.18 128.44 8.64 93.58 50.58 69.2 111.13 104.07" />
        </clipPath>
        <clipPath id="clip-path-16">
            <polygon class="cls-8" points="69.18 128.44 69.05 145.6 8.5 110.73 8.64 93.58 69.18 128.44" />
        </clipPath>
        <clipPath id="clip-path-17">
            <polygon class="cls-9" points="8.64 82.24 50.58 57.87 50.45 69.21 8.5 93.58 8.64 82.24" />
        </clipPath>
        <clipPath id="clip-path-18">
            <polygon class="cls-10" points="50.58 57.87 111.13 92.73 110.99 104.08 50.45 69.21 50.58 57.87" />
        </clipPath>
        <clipPath id="clip-path-19">
            <polygon class="cls-11" points="111.13 92.73 110.99 104.08 69.05 128.45 69.18 117.11 111.13 92.73" />
        </clipPath>
        <clipPath id="clip-path-20">
            <polygon class="cls-12" points="111.13 92.73 69.18 117.11 8.64 82.24 50.58 57.87 111.13 92.73" />
        </clipPath>
        <clipPath id="clip-path-21">
            <polygon class="cls-14" points="69.18 117.11 69.05 128.45 8.5 93.58 8.64 82.24 69.18 117.11" />
        </clipPath>
        <clipPath id="clip-path-22">
            <polygon class="cls-15" points="108.76 94.46 104.89 96.7 43.97 61.3 47.85 59.06 108.76 94.46" />
        </clipPath>
        <clipPath id="clip-path-23">
            <path class="cls-16"
                d="M52.33.12,47.85,59.06,44,61.29a148.93,148.93,0,0,1-2.38-26c0-14.07,6.75-31.95,6.86-32.89Z" />
        </clipPath>
        <clipPath id="clip-path-24">
            <polygon class="cls-17" points="113.25 35.53 108.76 94.46 47.85 59.06 52.33 0.13 113.25 35.53" />
        </clipPath>
        <clipPath id="clip-path-25">
            <path class="cls-18"
                d="M113.24,35.53l-4.48,58.93-3.87,2.24a149.12,149.12,0,0,1-2.38-26c0-14.07,6.75-31.95,6.86-32.89Z" />
        </clipPath>
        <clipPath id="clip-path-26">
            <polygon class="cls-19" points="109.37 37.76 48.45 2.36 52.33 0.13 113.25 35.53 109.37 37.76" />
        </clipPath>
        <linearGradient id="未命名的渐变_172-46" x1="54.44" y1="71.76" x2="98.9" y2="27.3" xlink:href="#未命名的渐变_172" />
        <linearGradient id="未命名的渐变_217" x1="41.46" y1="49.53" x2="109.49" y2="49.53" gradientUnits="userSpaceOnUse">
            <stop offset="0" stop-color="#5ac8f7" />
            <stop offset="1" stop-color="#2a6aaf" stop-opacity="0" />
        </linearGradient>
    </defs>
    <title>Single person sofa（单人沙发）</title>
    <g id="图层_2" data-name="图层 2">
        <g id="图层_27" data-name="图层 27">
            <g id="Single_person_sofa_单人沙发_" data-name="Single person sofa（单人沙发）">
                <g class="cls-27">
                    <polygon class="cls-28"
                        points="127.29 120.99 77.16 150.13 68.91 145.37 110.86 120.99 50.31 86.12 8.37 110.5 0.13 105.74 50.25 76.61 127.29 120.99" />
                    <g class="cls-29">
                        <polygon class="cls-1"
                            points="127.29 120.99 77.16 150.13 68.91 145.37 110.86 120.99 50.31 86.12 8.37 110.5 0.13 105.74 50.25 76.61 127.29 120.99" />
                    </g>
                    <polygon class="cls-30"
                        points="127.29 120.99 77.16 150.13 68.91 145.37 110.86 120.99 50.31 86.12 8.37 110.5 0.13 105.74 50.25 76.61 127.29 120.99" />
                </g>
                <g class="cls-27">
                    <polygon class="cls-31" points="0.26 54.88 50.39 25.75 50.25 76.61 0.13 105.74 0.26 54.88" />
                    <g class="cls-32">
                        <polygon class="cls-2" points="0.26 54.88 50.39 25.75 50.25 76.61 0.13 105.74 0.26 54.88" />
                    </g>
                    <polygon class="cls-30" points="0.26 54.88 50.39 25.75 50.25 76.61 0.13 105.74 0.26 54.88" />
                </g>
                <g class="cls-27">
                    <polygon class="cls-33" points="50.39 25.75 127.42 70.14 127.29 120.99 50.25 76.61 50.39 25.75" />
                    <g class="cls-34">
                        <polygon class="cls-13"
                            points="50.39 25.75 127.42 70.14 127.29 120.99 50.25 76.61 50.39 25.75" />
                    </g>
                    <polygon class="cls-30" points="50.39 25.75 127.42 70.14 127.29 120.99 50.25 76.61 50.39 25.75" />
                </g>
                <g class="cls-35">
                    <polygon class="cls-36" points="77.29 99.27 77.16 150.13 68.91 145.37 69.05 94.51 77.29 99.27" />
                    <g class="cls-37">
                        <polygon class="cls-20"
                            points="77.29 99.27 77.16 150.13 68.91 145.37 69.05 94.51 77.29 99.27" />
                    </g>
                    <polygon class="cls-30" points="77.29 99.27 77.16 150.13 68.91 145.37 69.05 94.51 77.29 99.27" />
                </g>
                <g class="cls-35">
                    <polygon class="cls-38" points="69.05 94.51 110.99 70.13 110.86 120.99 68.91 145.37 69.05 94.51" />
                    <g class="cls-39">
                        <polygon class="cls-21"
                            points="69.05 94.51 110.99 70.13 110.86 120.99 68.91 145.37 69.05 94.51" />
                    </g>
                    <polygon class="cls-30" points="69.05 94.51 110.99 70.13 110.86 120.99 68.91 145.37 69.05 94.51" />
                </g>
                <polygon class="cls-40" points="110.99 70.13 110.86 120.99 50.31 86.12 50.45 35.27 110.99 70.13" />
                <g class="cls-41">
                    <polygon class="cls-22" points="110.99 70.13 110.86 120.99 50.31 86.12 50.45 35.27 110.99 70.13" />
                </g>
                <polygon class="cls-42" points="110.99 70.13 110.86 120.99 50.31 86.12 50.45 35.27 110.99 70.13" />
                <g class="cls-35">
                    <polygon class="cls-43" points="8.5 59.64 8.37 110.5 0.13 105.74 0.26 54.88 8.5 59.64" />
                    <g class="cls-44">
                        <polygon class="cls-23" points="8.5 59.64 8.37 110.5 0.13 105.74 0.26 54.88 8.5 59.64" />
                    </g>
                    <polygon class="cls-30" points="8.5 59.64 8.37 110.5 0.13 105.74 0.26 54.88 8.5 59.64" />
                </g>
                <g class="cls-35">
                    <polygon class="cls-45" points="50.45 35.27 50.31 86.12 8.37 110.5 8.5 59.64 50.45 35.27" />
                    <g class="cls-46">
                        <polygon class="cls-24" points="50.45 35.27 50.31 86.12 8.37 110.5 8.5 59.64 50.45 35.27" />
                    </g>
                    <polygon class="cls-47" points="50.45 35.27 50.31 86.12 8.37 110.5 8.5 59.64 50.45 35.27" />
                </g>
                <g class="cls-35">
                    <polygon class="cls-48"
                        points="127.42 70.14 77.29 99.27 69.05 94.51 110.99 70.13 50.45 35.27 8.5 59.64 0.26 54.88 50.39 25.75 127.42 70.14" />
                    <g class="cls-49">
                        <polygon class="cls-25"
                            points="127.42 70.14 77.29 99.27 69.05 94.51 110.99 70.13 50.45 35.27 8.5 59.64 0.26 54.88 50.39 25.75 127.42 70.14" />
                    </g>
                    <polygon class="cls-30"
                        points="127.42 70.14 77.29 99.27 69.05 94.51 110.99 70.13 50.45 35.27 8.5 59.64 0.26 54.88 50.39 25.75 127.42 70.14" />
                </g>
                <g class="cls-35">
                    <polygon class="cls-50" points="127.42 70.14 127.29 120.99 77.16 150.13 77.29 99.27 127.42 70.14" />
                    <g class="cls-51">
                        <polygon class="cls-26"
                            points="127.42 70.14 127.29 120.99 77.16 150.13 77.29 99.27 127.42 70.14" />
                    </g>
                    <polygon class="cls-30" points="127.42 70.14 127.29 120.99 77.16 150.13 77.29 99.27 127.42 70.14" />
                </g>
                <g class="cls-27">
                    <polygon class="cls-52" points="110.99 121.22 69.05 145.6 8.5 110.73 50.45 86.35 110.99 121.22" />
                    <g class="cls-53">
                        <polygon class="cls-3"
                            points="110.99 121.22 69.05 145.6 8.5 110.73 50.45 86.35 110.99 121.22" />
                    </g>
                    <polygon class="cls-54" points="110.99 121.22 69.05 145.6 8.5 110.73 50.45 86.35 110.99 121.22" />
                </g>
                <g class="cls-55">
                    <polygon class="cls-56" points="8.64 93.58 50.58 69.2 50.45 86.35 8.5 110.73 8.64 93.58" />
                    <g class="cls-57">
                        <polygon class="cls-4" points="8.64 93.58 50.58 69.2 50.45 86.35 8.5 110.73 8.64 93.58" />
                    </g>
                    <polygon class="cls-30" points="8.64 93.58 50.58 69.2 50.45 86.35 8.5 110.73 8.64 93.58" />
                </g>
                <g class="cls-27">
                    <polygon class="cls-58" points="50.58 69.2 111.13 104.07 110.99 121.22 50.45 86.35 50.58 69.2" />
                    <g class="cls-59">
                        <polygon class="cls-5" points="50.58 69.2 111.13 104.07 110.99 121.22 50.45 86.35 50.58 69.2" />
                    </g>
                    <polygon class="cls-30" points="50.58 69.2 111.13 104.07 110.99 121.22 50.45 86.35 50.58 69.2" />
                </g>
                <g class="cls-55">
                    <polygon class="cls-60"
                        points="111.13 104.07 110.99 121.22 69.05 145.6 69.18 128.44 111.13 104.07" />
                    <g class="cls-61">
                        <polygon class="cls-6"
                            points="111.13 104.07 110.99 121.22 69.05 145.6 69.18 128.44 111.13 104.07" />
                    </g>
                    <polygon class="cls-30"
                        points="111.13 104.07 110.99 121.22 69.05 145.6 69.18 128.44 111.13 104.07" />
                </g>
                <g class="cls-35">
                    <polygon class="cls-62" points="111.13 104.07 69.18 128.44 8.64 93.58 50.58 69.2 111.13 104.07" />
                    <g class="cls-63">
                        <polygon class="cls-7"
                            points="111.13 104.07 69.18 128.44 8.64 93.58 50.58 69.2 111.13 104.07" />
                    </g>
                    <polygon class="cls-64" points="111.13 104.07 69.18 128.44 8.64 93.58 50.58 69.2 111.13 104.07" />
                </g>
                <g class="cls-35">
                    <polygon class="cls-65" points="69.18 128.44 69.05 145.6 8.5 110.73 8.64 93.58 69.18 128.44" />
                    <g class="cls-66">
                        <polygon class="cls-8" points="69.18 128.44 69.05 145.6 8.5 110.73 8.64 93.58 69.18 128.44" />
                    </g>
                    <polygon class="cls-30" points="69.18 128.44 69.05 145.6 8.5 110.73 8.64 93.58 69.18 128.44" />
                </g>
                <g class="cls-27">
                    <polygon class="cls-67" points="8.64 82.24 50.58 57.87 50.45 69.21 8.5 93.58 8.64 82.24" />
                    <g class="cls-68">
                        <polygon class="cls-9" points="8.64 82.24 50.58 57.87 50.45 69.21 8.5 93.58 8.64 82.24" />
                    </g>
                    <polygon class="cls-30" points="8.64 82.24 50.58 57.87 50.45 69.21 8.5 93.58 8.64 82.24" />
                </g>
                <g class="cls-27">
                    <polygon class="cls-69" points="50.58 57.87 111.13 92.73 110.99 104.08 50.45 69.21 50.58 57.87" />
                    <g class="cls-70">
                        <polygon class="cls-10"
                            points="50.58 57.87 111.13 92.73 110.99 104.08 50.45 69.21 50.58 57.87" />
                    </g>
                    <polygon class="cls-30" points="50.58 57.87 111.13 92.73 110.99 104.08 50.45 69.21 50.58 57.87" />
                </g>
                <g class="cls-27">
                    <polygon class="cls-71"
                        points="111.13 92.73 110.99 104.08 69.05 128.45 69.18 117.11 111.13 92.73" />
                    <g class="cls-72">
                        <polygon class="cls-11"
                            points="111.13 92.73 110.99 104.08 69.05 128.45 69.18 117.11 111.13 92.73" />
                    </g>
                    <polygon class="cls-30"
                        points="111.13 92.73 110.99 104.08 69.05 128.45 69.18 117.11 111.13 92.73" />
                </g>
                <g class="cls-35">
                    <polygon class="cls-73" points="111.13 92.73 69.18 117.11 8.64 82.24 50.58 57.87 111.13 92.73" />
                    <g class="cls-74">
                        <polygon class="cls-12"
                            points="111.13 92.73 69.18 117.11 8.64 82.24 50.58 57.87 111.13 92.73" />
                    </g>
                    <polygon class="cls-75" points="111.13 92.73 69.18 117.11 8.64 82.24 50.58 57.87 111.13 92.73" />
                </g>
                <g class="cls-35">
                    <polygon class="cls-76" points="69.18 117.11 69.05 128.45 8.5 93.58 8.64 82.24 69.18 117.11" />
                    <g class="cls-77">
                        <polygon class="cls-14" points="69.18 117.11 69.05 128.45 8.5 93.58 8.64 82.24 69.18 117.11" />
                    </g>
                    <polygon class="cls-30" points="69.18 117.11 69.05 128.45 8.5 93.58 8.64 82.24 69.18 117.11" />
                </g>
                <g class="cls-27">
                    <polygon class="cls-78" points="108.76 94.46 104.89 96.7 43.97 61.3 47.85 59.06 108.76 94.46" />
                    <g class="cls-79">
                        <polygon class="cls-15" points="108.76 94.46 104.89 96.7 43.97 61.3 47.85 59.06 108.76 94.46" />
                    </g>
                    <polygon class="cls-30" points="108.76 94.46 104.89 96.7 43.97 61.3 47.85 59.06 108.76 94.46" />
                </g>
                <g class="cls-27">
                    <path class="cls-80"
                        d="M52.33.12,47.85,59.06,44,61.29a148.93,148.93,0,0,1-2.38-26c0-14.07,6.75-31.95,6.86-32.89Z" />
                    <g class="cls-81">
                        <path class="cls-16"
                            d="M52.33.12,47.85,59.06,44,61.29a148.93,148.93,0,0,1-2.38-26c0-14.07,6.75-31.95,6.86-32.89Z" />
                    </g>
                    <path class="cls-30"
                        d="M52.33.12,47.85,59.06,44,61.29a148.93,148.93,0,0,1-2.38-26c0-14.07,6.75-31.95,6.86-32.89Z" />
                </g>
                <g class="cls-27">
                    <polygon class="cls-82" points="113.25 35.53 108.76 94.46 47.85 59.06 52.33 0.13 113.25 35.53" />
                    <g class="cls-83">
                        <polygon class="cls-17"
                            points="113.25 35.53 108.76 94.46 47.85 59.06 52.33 0.13 113.25 35.53" />
                    </g>
                    <polygon class="cls-30" points="113.25 35.53 108.76 94.46 47.85 59.06 52.33 0.13 113.25 35.53" />
                </g>
                <path class="cls-84"
                    d="M113.24,35.53l-4.48,58.93-3.87,2.24a149.12,149.12,0,0,1-2.38-26c0-14.07,6.75-31.95,6.86-32.89Z" />
                <g class="cls-85">
                    <path class="cls-18"
                        d="M113.24,35.53l-4.48,58.93-3.87,2.24a149.12,149.12,0,0,1-2.38-26c0-14.07,6.75-31.95,6.86-32.89Z" />
                </g>
                <path class="cls-86"
                    d="M113.24,35.53l-4.48,58.93-3.87,2.24a149.12,149.12,0,0,1-2.38-26c0-14.07,6.75-31.95,6.86-32.89Z" />
                <g class="cls-35">
                    <polygon class="cls-87" points="109.37 37.76 48.45 2.36 52.33 0.13 113.25 35.53 109.37 37.76" />
                    <g class="cls-88">
                        <polygon class="cls-19" points="109.37 37.76 48.45 2.36 52.33 0.13 113.25 35.53 109.37 37.76" />
                    </g>
                    <polygon class="cls-30" points="109.37 37.76 48.45 2.36 52.33 0.13 113.25 35.53 109.37 37.76" />
                </g>
                <path class="cls-89"
                    d="M102.51,70.65c0-14.07,6.75-31.95,6.86-32.89L48.45,2.36c-.11.94-6.9,18.82-6.86,32.89,0,5.28.34,10.18.74,14.27.07.68.14,1.34.21,2,.17,1.59.36,3,.53,4.28.07.5.14,1,.21,1.42l.09.63c.23,1.44.41,2.47.52,3q0,.12,0,.21c0,.12,0,.2,0,.23L104.89,96.7A149.12,149.12,0,0,1,102.51,70.65Z" />
                
            </g>
        </g>
    </g>
</svg>