<svg xmlns="http://www.w3.org/2000/svg" xmlns:xlink="http://www.w3.org/1999/xlink" viewBox="0 0 148.21 150.25">
    <defs>
        <style>
            .cls-1,
            .cls-10,
            .cls-11,
            .cls-12,
            .cls-13,
            .cls-14,
            .cls-15,
            .cls-16,
            .cls-17,
            .cls-18,
            .cls-19,
            .cls-2,
            .cls-20,
            .cls-23,
            .cls-24,
            .cls-26,
            .cls-27,
            .cls-28,
            .cls-29,
            .cls-3,
            .cls-30,
            .cls-35,
            .cls-4,
            .cls-5,
            .cls-6,
            .cls-7,
            .cls-8,
            .cls-9 {
                stroke: #5ac8f7;
            }

            .cls-1,
            .cls-10,
            .cls-11,
            .cls-12,
            .cls-13,
            .cls-14,
            .cls-15,
            .cls-16,
            .cls-17,
            .cls-18,
            .cls-19,
            .cls-2,
            .cls-20,
            .cls-21,
            .cls-22,
            .cls-23,
            .cls-24,
            .cls-25,
            .cls-26,
            .cls-27,
            .cls-28,
            .cls-29,
            .cls-3,
            .cls-30,
            .cls-35,
            .cls-4,
            .cls-44,
            .cls-5,
            .cls-6,
            .cls-7,
            .cls-8,
            .cls-9,
            .cls-91,
            .cls-92,
            .cls-95 {
                stroke-linejoin: round;
                stroke-width: 0.25px;
            }

            .cls-1,
            .cls-33 {
                fill: url(#未命名的渐变_148);
            }

            .cls-2,
            .cls-36 {
                fill: url(#未命名的渐变_148-2);
            }

            .cls-3,
            .cls-55 {
                fill: url(#未命名的渐变_148-3);
            }

            .cls-4,
            .cls-57 {
                fill: url(#未命名的渐变_148-4);
            }

            .cls-5,
            .cls-59 {
                fill: url(#未命名的渐变_148-5);
            }

            .cls-6,
            .cls-61 {
                fill: url(#未命名的渐变_148-6);
            }

            .cls-63,
            .cls-7 {
                fill: url(#未命名的渐变_148-7);
            }

            .cls-65,
            .cls-8 {
                fill: url(#未命名的渐变_148-8);
            }

            .cls-67,
            .cls-9 {
                fill: url(#未命名的渐变_148-9);
            }

            .cls-10,
            .cls-69 {
                fill: url(#未命名的渐变_148-10);
            }

            .cls-11,
            .cls-71 {
                fill: url(#未命名的渐变_148-11);
            }

            .cls-12,
            .cls-73 {
                fill: url(#未命名的渐变_2520);
            }

            .cls-13,
            .cls-38 {
                fill: url(#未命名的渐变_148-12);
            }

            .cls-14,
            .cls-75 {
                fill: url(#未命名的渐变_2520-2);
            }

            .cls-15,
            .cls-77 {
                fill: url(#未命名的渐变_148-13);
            }

            .cls-16,
            .cls-79 {
                fill: url(#未命名的渐变_2520-3);
            }

            .cls-17,
            .cls-81 {
                fill: url(#未命名的渐变_2520-4);
            }

            .cls-18,
            .cls-83 {
                fill: url(#未命名的渐变_148-14);
            }

            .cls-19,
            .cls-85 {
                fill: url(#未命名的渐变_148-15);
            }

            .cls-20,
            .cls-87 {
                fill: url(#未命名的渐变_148-16);
            }

            .cls-21,
            .cls-89,
            .cls-91 {
                fill: url(#未命名的渐变_148-17);
            }

            .cls-21,
            .cls-92 {
                stroke: url(#未命名的渐变_159);
            }

            .cls-22,
            .cls-93 {
                fill: url(#未命名的渐变_148-18);
            }

            .cls-22,
            .cls-95 {
                stroke: url(#未命名的渐变_159-2);
            }

            .cls-23,
            .cls-96 {
                fill: url(#未命名的渐变_148-19);
            }

            .cls-24,
            .cls-40 {
                fill: url(#未命名的渐变_148-20);
            }

            .cls-25,
            .cls-42 {
                fill: url(#未命名的渐变_148-21);
            }

            .cls-25,
            .cls-44 {
                stroke: url(#未命名的渐变_159-3);
            }

            .cls-26,
            .cls-45 {
                fill: url(#未命名的渐变_148-22);
            }

            .cls-27,
            .cls-47 {
                fill: url(#未命名的渐变_148-23);
            }

            .cls-28,
            .cls-49 {
                fill: url(#未命名的渐变_148-24);
            }

            .cls-29,
            .cls-51 {
                fill: url(#未命名的渐变_148-25);
            }

            .cls-30,
            .cls-53 {
                fill: url(#未命名的渐变_148-26);
            }

            .cls-31,
            .cls-32 {
                isolation: isolate;
            }

            .cls-32,
            .cls-98 {
                opacity: 0.2;
            }

            .cls-34 {
                clip-path: url(#clip-path);
            }

            .cls-35,
            .cls-44,
            .cls-92,
            .cls-95 {
                fill: none;
            }

            .cls-37 {
                clip-path: url(#clip-path-2);
            }

            .cls-39 {
                clip-path: url(#clip-path-3);
            }

            .cls-41 {
                clip-path: url(#clip-path-4);
            }

            .cls-43 {
                clip-path: url(#clip-path-5);
            }

            .cls-46 {
                clip-path: url(#clip-path-6);
            }

            .cls-48 {
                clip-path: url(#clip-path-7);
            }

            .cls-50 {
                clip-path: url(#clip-path-8);
            }

            .cls-52 {
                clip-path: url(#clip-path-9);
            }

            .cls-54 {
                clip-path: url(#clip-path-10);
            }

            .cls-56 {
                clip-path: url(#clip-path-11);
            }

            .cls-58 {
                clip-path: url(#clip-path-12);
            }

            .cls-60 {
                clip-path: url(#clip-path-13);
            }

            .cls-62 {
                clip-path: url(#clip-path-14);
            }

            .cls-64 {
                clip-path: url(#clip-path-15);
            }

            .cls-66 {
                clip-path: url(#clip-path-16);
            }

            .cls-68 {
                clip-path: url(#clip-path-17);
            }

            .cls-70 {
                clip-path: url(#clip-path-18);
            }

            .cls-72 {
                clip-path: url(#clip-path-19);
            }

            .cls-74 {
                clip-path: url(#clip-path-20);
            }

            .cls-76 {
                clip-path: url(#clip-path-21);
            }

            .cls-78 {
                clip-path: url(#clip-path-22);
            }

            .cls-80 {
                clip-path: url(#clip-path-23);
            }

            .cls-82 {
                clip-path: url(#clip-path-24);
            }

            .cls-84 {
                clip-path: url(#clip-path-25);
            }

            .cls-86 {
                clip-path: url(#clip-path-26);
            }

            .cls-88 {
                clip-path: url(#clip-path-27);
            }

            .cls-90 {
                clip-path: url(#clip-path-28);
            }

            .cls-91 {
                stroke: url(#未命名的渐变_159-6);
            }

            .cls-94 {
                clip-path: url(#clip-path-29);
            }

            .cls-97 {
                clip-path: url(#clip-path-30);
            }
        </style>
        <linearGradient id="未命名的渐变_148" x1="-9.81" y1="74.13" x2="20.94" y2="43.38" gradientUnits="userSpaceOnUse">
            <stop offset="0" stop-color="#5ac8f7" stop-opacity="0.6" />
            <stop offset="1" stop-color="#2a6aaf" stop-opacity="0" />
        </linearGradient>
        <linearGradient id="未命名的渐变_148-2" x1="-14.29" y1="76.11" x2="18.7" y2="43.12" xlink:href="#未命名的渐变_148" />
        <linearGradient id="未命名的渐变_148-3" x1="91.82" y1="136.13" x2="124.18" y2="103.78" xlink:href="#未命名的渐变_148" />
        <linearGradient id="未命名的渐变_148-4" x1="108.08" y1="91.9" x2="103.55" y2="87.36" xlink:href="#未命名的渐变_148" />
        <linearGradient id="未命名的渐变_148-5" x1="131.1" y1="109.76" x2="160.67" y2="80.2" xlink:href="#未命名的渐变_148" />
        <linearGradient id="未命名的渐变_148-6" x1="126.62" y1="111.75" x2="158.43" y2="79.93" xlink:href="#未命名的渐变_148" />
        <linearGradient id="未命名的渐变_148-7" x1="145.97" y1="127.42" x2="143.46" y2="124.91" xlink:href="#未命名的渐变_148" />
        <linearGradient id="未命名的渐变_148-8" x1="127.02" y1="112.14" x2="156.58" y2="82.57" xlink:href="#未命名的渐变_148" />
        <linearGradient id="未命名的渐变_148-9" x1="129.72" y1="113.97" x2="162.08" y2="81.61" xlink:href="#未命名的渐变_148" />
        <linearGradient id="未命名的渐变_148-10" x1="145.98" y1="69.73" x2="141.45" y2="65.19" xlink:href="#未命名的渐变_148" />
        <linearGradient id="未命名的渐变_148-11" x1="120.25" y1="95.44" x2="28.03" y2="3.22" xlink:href="#未命名的渐变_148" />
        <linearGradient id="未命名的渐变_2520" x1="3.01" y1="33.85" x2="39.53" y2="-2.68" gradientUnits="userSpaceOnUse">
            <stop offset="0" stop-color="#2a6aaf" stop-opacity="0" />
            <stop offset="1" stop-color="#5ac8f7" stop-opacity="0.6" />
        </linearGradient>
        <linearGradient id="未命名的渐变_148-12" x1="4.46" y1="91.19" x2="1.96" y2="88.69" xlink:href="#未命名的渐变_148" />
        <linearGradient id="未命名的渐变_2520-2" x1="82.42" y1="46.66" x2="107.99" y2="21.09" xlink:href="#未命名的渐变_2520" />
        <linearGradient id="未命名的渐变_148-13" x1="120.25" y1="89" x2="28.03" y2="-3.22" xlink:href="#未命名的渐变_148" />
        <linearGradient id="未命名的渐变_2520-3" x1="108.75" y1="94.9" x2="145.27" y2="58.38" xlink:href="#未命名的渐变_2520" />
        <linearGradient id="未命名的渐变_2520-4" x1="40.29" y1="71.14" x2="65.86" y2="45.57" xlink:href="#未命名的渐变_2520" />
        <linearGradient id="未命名的渐变_148-14" x1="28.29" y1="52.06" x2="59.04" y2="21.31" xlink:href="#未命名的渐变_148" />
        <linearGradient id="未命名的渐变_148-15" x1="23.81" y1="54.04" x2="56.8" y2="21.05" xlink:href="#未命名的渐变_148" />
        <linearGradient id="未命名的渐变_148-16" x1="42.56" y1="69.12" x2="40.06" y2="66.62" xlink:href="#未命名的渐变_148" />
        <linearGradient id="未命名的渐变_148-17" x1="24.2" y1="54.43" x2="54.95" y2="23.69" xlink:href="#未命名的渐变_148" />
        <linearGradient id="未命名的渐变_159" x1="38.1" y1="39.33" x2="43.08" y2="39.33" gradientUnits="userSpaceOnUse">
            <stop offset="0" stop-color="#5ac8f7" stop-opacity="0.6" />
            <stop offset="0.29" stop-color="#59c6f6" stop-opacity="0.59" />
            <stop offset="0.45" stop-color="#57c1f2" stop-opacity="0.56" />
            <stop offset="0.58" stop-color="#52b9eb" stop-opacity="0.5" />
            <stop offset="0.69" stop-color="#4cace2" stop-opacity="0.42" />
            <stop offset="0.79" stop-color="#439cd5" stop-opacity="0.32" />
            <stop offset="0.89" stop-color="#3988c6" stop-opacity="0.19" />
            <stop offset="0.98" stop-color="#2d71b4" stop-opacity="0.04" />
            <stop offset="1" stop-color="#2a6aaf" stop-opacity="0" />
        </linearGradient>
        <linearGradient id="未命名的渐变_148-18" x1="26.91" y1="56.26" x2="60.45" y2="22.72" xlink:href="#未命名的渐变_148" />
        <linearGradient id="未命名的渐变_159-2" x1="58.02" y1="53.84" x2="29.33" y2="25.15" xlink:href="#未命名的渐变_159" />
        <linearGradient id="未命名的渐变_148-19" x1="44.94" y1="11.43" x2="40.4" y2="6.9" xlink:href="#未命名的渐变_148" />
        <linearGradient id="未命名的渐变_148-20" x1="-13.9" y1="76.5" x2="16.85" y2="45.76" xlink:href="#未命名的渐变_148" />
        <linearGradient id="未命名的渐变_148-21" x1="-11.19" y1="78.33" x2="22.35" y2="44.79" xlink:href="#未命名的渐变_148" />
        <linearGradient id="未命名的渐变_159-3" x1="19.93" y1="75.91" x2="-8.76" y2="47.22" xlink:href="#未命名的渐变_159" />
        <linearGradient id="未命名的渐变_148-22" x1="6.84" y1="33.5" x2="2.31" y2="28.97" xlink:href="#未命名的渐变_148" />
        <linearGradient id="未命名的渐变_148-23" x1="93.2" y1="131.93" x2="122.77" y2="102.37" xlink:href="#未命名的渐变_148" />
        <linearGradient id="未命名的渐变_148-24" x1="88.72" y1="133.91" x2="120.53" y2="102.1" xlink:href="#未命名的渐变_148" />
        <linearGradient id="未命名的渐变_148-25" x1="108.06" y1="149.59" x2="105.56" y2="147.08" xlink:href="#未命名的渐变_148" />
        <linearGradient id="未命名的渐变_148-26" x1="89.11" y1="134.31" x2="118.68" y2="104.74" xlink:href="#未命名的渐变_148" />
        <clipPath id="clip-path">
            <polygon class="cls-1" points="8.95 31.39 6.3 89.35 4.21 88.15 4.29 28.7 8.95 31.39" />
        </clipPath>
        <clipPath id="clip-path-2">
            <polygon class="cls-2" points="0.13 90.53 0.2 31.08 4.29 28.7 4.21 88.15 0.13 90.53" />
        </clipPath>
        <clipPath id="clip-path-3">
            <polygon class="cls-13" points="2.21 91.73 0.13 90.53 4.21 88.15 6.3 89.35 2.21 91.73" />
        </clipPath>
        <clipPath id="clip-path-4">
            <polygon class="cls-24" points="4.86 33.77 2.21 91.73 0.13 90.53 0.2 31.08 4.86 33.77" />
        </clipPath>
        <clipPath id="clip-path-5">
            <polygon class="cls-25" points="4.86 33.77 8.95 31.39 6.3 89.35 2.21 91.73 4.86 33.77" />
        </clipPath>
        <clipPath id="clip-path-6">
            <polygon class="cls-26" points="0.2 31.08 4.29 28.7 8.95 31.39 4.86 33.77 0.2 31.08" />
        </clipPath>
        <clipPath id="clip-path-7">
            <polygon class="cls-27" points="110.19 89.79 109.9 147.75 107.81 146.54 105.53 87.1 110.19 89.79" />
        </clipPath>
        <clipPath id="clip-path-8">
            <polygon class="cls-28" points="103.72 148.92 101.44 89.47 105.53 87.1 107.81 146.54 103.72 148.92" />
        </clipPath>
        <clipPath id="clip-path-9">
            <polygon class="cls-29" points="105.81 150.13 103.72 148.92 107.81 146.54 109.9 147.75 105.81 150.13" />
        </clipPath>
        <clipPath id="clip-path-10">
            <polygon class="cls-30" points="106.1 92.16 105.81 150.13 103.72 148.92 101.44 89.47 106.1 92.16" />
        </clipPath>
        <clipPath id="clip-path-11">
            <polygon class="cls-3" points="106.1 92.16 110.19 89.79 109.9 147.75 105.81 150.13 106.1 92.16" />
        </clipPath>
        <clipPath id="clip-path-12">
            <polygon class="cls-4" points="101.44 89.47 105.53 87.1 110.19 89.79 106.1 92.16 101.44 89.47" />
        </clipPath>
        <clipPath id="clip-path-13">
            <polygon class="cls-5" points="148.09 67.62 147.8 125.58 145.72 124.38 143.43 64.93 148.09 67.62" />
        </clipPath>
        <clipPath id="clip-path-14">
            <polygon class="cls-6" points="141.63 126.75 139.34 67.3 143.43 64.93 145.72 124.38 141.63 126.75" />
        </clipPath>
        <clipPath id="clip-path-15">
            <polygon class="cls-7" points="143.71 127.96 141.63 126.75 145.72 124.38 147.8 125.58 143.71 127.96" />
        </clipPath>
        <clipPath id="clip-path-16">
            <polygon class="cls-8" points="144 69.99 143.71 127.96 141.63 126.75 139.34 67.3 144 69.99" />
        </clipPath>
        <clipPath id="clip-path-17">
            <polygon class="cls-9" points="144 69.99 148.09 67.62 147.8 125.58 143.71 127.96 144 69.99" />
        </clipPath>
        <clipPath id="clip-path-18">
            <polygon class="cls-10" points="139.34 67.3 143.43 64.93 148.09 67.62 144 69.99 139.34 67.3" />
        </clipPath>
        <clipPath id="clip-path-19">
            <polygon class="cls-11" points="148.07 67.62 105.95 92.1 0.2 31.05 42.33 6.57 148.07 67.62" />
        </clipPath>
        <clipPath id="clip-path-20">
            <polygon class="cls-12" points="0.2 24.61 42.33 0.13 42.33 6.57 0.2 31.05 0.2 24.61" />
        </clipPath>
        <clipPath id="clip-path-21">
            <polygon class="cls-14" points="42.33 0.13 148.07 61.18 148.07 67.62 42.33 6.57 42.33 0.13" />
        </clipPath>
        <clipPath id="clip-path-22">
            <polygon class="cls-15" points="148.07 61.18 105.95 85.66 0.2 24.61 42.33 0.13 148.07 61.18" />
        </clipPath>
        <clipPath id="clip-path-23">
            <polygon class="cls-16" points="148.07 61.18 148.07 67.62 105.95 92.1 105.95 85.66 148.07 61.18" />
        </clipPath>
        <clipPath id="clip-path-24">
            <polygon class="cls-17" points="105.95 85.66 105.95 92.1 0.2 31.05 0.2 24.61 105.95 85.66" />
        </clipPath>
        <clipPath id="clip-path-25">
            <polygon class="cls-18" points="47.05 9.32 44.4 67.28 42.31 66.08 42.38 6.63 47.05 9.32" />
        </clipPath>
        <clipPath id="clip-path-26">
            <polygon class="cls-19" points="38.22 68.45 38.3 9.01 42.38 6.63 42.31 66.08 38.22 68.45" />
        </clipPath>
        <clipPath id="clip-path-27">
            <polygon class="cls-20" points="40.31 69.66 38.22 68.45 42.31 66.08 44.4 67.28 40.31 69.66" />
        </clipPath>
        <clipPath id="clip-path-28">
            <polygon class="cls-21" points="42.96 11.7 40.31 69.66 38.22 68.45 38.3 9.01 42.96 11.7" />
        </clipPath>
        <linearGradient id="未命名的渐变_159-6" x1="40.59" y1="69.79" x2="40.59" y2="8.88" xlink:href="#未命名的渐变_159" />
        <clipPath id="clip-path-29">
            <polygon class="cls-22" points="42.96 11.7 47.05 9.32 44.4 67.28 40.31 69.66 42.96 11.7" />
        </clipPath>
        <clipPath id="clip-path-30">
            <polygon class="cls-23" points="38.3 9.01 42.38 6.63 47.05 9.32 42.96 11.7 38.3 9.01" />
        </clipPath>
    </defs>
    <title>Tea table（茶几）</title>
    <g id="图层_2" data-name="图层 2">
        <g id="图层_27" data-name="图层 27">
            <g id="Tea_table_茶几_" data-name="Tea table（茶几）">
                <g class="cls-31">
                    <g class="cls-32">
                        <polygon class="cls-33" points="8.95 31.39 6.3 89.35 4.21 88.15 4.29 28.7 8.95 31.39" />
                        <g class="cls-34">
                            <polygon class="cls-1" points="8.95 31.39 6.3 89.35 4.21 88.15 4.29 28.7 8.95 31.39" />
                        </g>
                        <polygon class="cls-35" points="8.95 31.39 6.3 89.35 4.21 88.15 4.29 28.7 8.95 31.39" />
                    </g>
                    <g class="cls-32">
                        <polygon class="cls-36" points="0.13 90.53 0.2 31.08 4.29 28.7 4.21 88.15 0.13 90.53" />
                        <g class="cls-37">
                            <polygon class="cls-2" points="0.13 90.53 0.2 31.08 4.29 28.7 4.21 88.15 0.13 90.53" />
                        </g>
                        <polygon class="cls-35" points="0.13 90.53 0.2 31.08 4.29 28.7 4.21 88.15 0.13 90.53" />
                    </g>
                    <g class="cls-32">
                        <polygon class="cls-38" points="2.21 91.73 0.13 90.53 4.21 88.15 6.3 89.35 2.21 91.73" />
                        <g class="cls-39">
                            <polygon class="cls-13" points="2.21 91.73 0.13 90.53 4.21 88.15 6.3 89.35 2.21 91.73" />
                        </g>
                        <polygon class="cls-35" points="2.21 91.73 0.13 90.53 4.21 88.15 6.3 89.35 2.21 91.73" />
                    </g>
                    <g class="cls-31">
                        <polygon class="cls-40" points="4.86 33.77 2.21 91.73 0.13 90.53 0.2 31.08 4.86 33.77" />
                        <g class="cls-41">
                            <polygon class="cls-24" points="4.86 33.77 2.21 91.73 0.13 90.53 0.2 31.08 4.86 33.77" />
                        </g>
                        <polygon class="cls-35" points="4.86 33.77 2.21 91.73 0.13 90.53 0.2 31.08 4.86 33.77" />
                    </g>
                    <g class="cls-31">
                        <polygon class="cls-42" points="4.86 33.77 8.95 31.39 6.3 89.35 2.21 91.73 4.86 33.77" />
                        <g class="cls-43">
                            <polygon class="cls-25" points="4.86 33.77 8.95 31.39 6.3 89.35 2.21 91.73 4.86 33.77" />
                        </g>
                        <polygon class="cls-44" points="4.86 33.77 8.95 31.39 6.3 89.35 2.21 91.73 4.86 33.77" />
                    </g>
                    <g class="cls-32">
                        <polygon class="cls-45" points="0.2 31.08 4.29 28.7 8.95 31.39 4.86 33.77 0.2 31.08" />
                        <g class="cls-46">
                            <polygon class="cls-26" points="0.2 31.08 4.29 28.7 8.95 31.39 4.86 33.77 0.2 31.08" />
                        </g>
                        <polygon class="cls-35" points="0.2 31.08 4.29 28.7 8.95 31.39 4.86 33.77 0.2 31.08" />
                    </g>
                </g>
                <g class="cls-31">
                    <g class="cls-32">
                        <polygon class="cls-47"
                            points="110.19 89.79 109.9 147.75 107.81 146.54 105.53 87.1 110.19 89.79" />
                        <g class="cls-48">
                            <polygon class="cls-27"
                                points="110.19 89.79 109.9 147.75 107.81 146.54 105.53 87.1 110.19 89.79" />
                        </g>
                        <polygon class="cls-35"
                            points="110.19 89.79 109.9 147.75 107.81 146.54 105.53 87.1 110.19 89.79" />
                    </g>
                    <g class="cls-32">
                        <polygon class="cls-49"
                            points="103.72 148.92 101.44 89.47 105.53 87.1 107.81 146.54 103.72 148.92" />
                        <g class="cls-50">
                            <polygon class="cls-28"
                                points="103.72 148.92 101.44 89.47 105.53 87.1 107.81 146.54 103.72 148.92" />
                        </g>
                        <polygon class="cls-35"
                            points="103.72 148.92 101.44 89.47 105.53 87.1 107.81 146.54 103.72 148.92" />
                    </g>
                    <g class="cls-32">
                        <polygon class="cls-51"
                            points="105.81 150.13 103.72 148.92 107.81 146.54 109.9 147.75 105.81 150.13" />
                        <g class="cls-52">
                            <polygon class="cls-29"
                                points="105.81 150.13 103.72 148.92 107.81 146.54 109.9 147.75 105.81 150.13" />
                        </g>
                        <polygon class="cls-35"
                            points="105.81 150.13 103.72 148.92 107.81 146.54 109.9 147.75 105.81 150.13" />
                    </g>
                    <g class="cls-31">
                        <polygon class="cls-53"
                            points="106.1 92.16 105.81 150.13 103.72 148.92 101.44 89.47 106.1 92.16" />
                        <g class="cls-54">
                            <polygon class="cls-30"
                                points="106.1 92.16 105.81 150.13 103.72 148.92 101.44 89.47 106.1 92.16" />
                        </g>
                        <polygon class="cls-35"
                            points="106.1 92.16 105.81 150.13 103.72 148.92 101.44 89.47 106.1 92.16" />
                    </g>
                    <g class="cls-31">
                        <polygon class="cls-55"
                            points="106.1 92.16 110.19 89.79 109.9 147.75 105.81 150.13 106.1 92.16" />
                        <g class="cls-56">
                            <polygon class="cls-3"
                                points="106.1 92.16 110.19 89.79 109.9 147.75 105.81 150.13 106.1 92.16" />
                        </g>
                        <polygon class="cls-35"
                            points="106.1 92.16 110.19 89.79 109.9 147.75 105.81 150.13 106.1 92.16" />
                    </g>
                    <g class="cls-32">
                        <polygon class="cls-57"
                            points="101.44 89.47 105.53 87.1 110.19 89.79 106.1 92.16 101.44 89.47" />
                        <g class="cls-58">
                            <polygon class="cls-4"
                                points="101.44 89.47 105.53 87.1 110.19 89.79 106.1 92.16 101.44 89.47" />
                        </g>
                        <polygon class="cls-35"
                            points="101.44 89.47 105.53 87.1 110.19 89.79 106.1 92.16 101.44 89.47" />
                    </g>
                </g>
                <g class="cls-31">
                    <g class="cls-32">
                        <polygon class="cls-59"
                            points="148.09 67.62 147.8 125.58 145.72 124.38 143.43 64.93 148.09 67.62" />
                        <g class="cls-60">
                            <polygon class="cls-5"
                                points="148.09 67.62 147.8 125.58 145.72 124.38 143.43 64.93 148.09 67.62" />
                        </g>
                        <polygon class="cls-35"
                            points="148.09 67.62 147.8 125.58 145.72 124.38 143.43 64.93 148.09 67.62" />
                    </g>
                    <g class="cls-32">
                        <polygon class="cls-61"
                            points="141.63 126.75 139.34 67.3 143.43 64.93 145.72 124.38 141.63 126.75" />
                        <g class="cls-62">
                            <polygon class="cls-6"
                                points="141.63 126.75 139.34 67.3 143.43 64.93 145.72 124.38 141.63 126.75" />
                        </g>
                        <polygon class="cls-35"
                            points="141.63 126.75 139.34 67.3 143.43 64.93 145.72 124.38 141.63 126.75" />
                    </g>
                    <g class="cls-32">
                        <polygon class="cls-63"
                            points="143.71 127.96 141.63 126.75 145.72 124.38 147.8 125.58 143.71 127.96" />
                        <g class="cls-64">
                            <polygon class="cls-7"
                                points="143.71 127.96 141.63 126.75 145.72 124.38 147.8 125.58 143.71 127.96" />
                        </g>
                        <polygon class="cls-35"
                            points="143.71 127.96 141.63 126.75 145.72 124.38 147.8 125.58 143.71 127.96" />
                    </g>
                    <g class="cls-31">
                        <polygon class="cls-65" points="144 69.99 143.71 127.96 141.63 126.75 139.34 67.3 144 69.99" />
                        <g class="cls-66">
                            <polygon class="cls-8"
                                points="144 69.99 143.71 127.96 141.63 126.75 139.34 67.3 144 69.99" />
                        </g>
                        <polygon class="cls-35" points="144 69.99 143.71 127.96 141.63 126.75 139.34 67.3 144 69.99" />
                    </g>
                    <g class="cls-31">
                        <polygon class="cls-67" points="144 69.99 148.09 67.62 147.8 125.58 143.71 127.96 144 69.99" />
                        <g class="cls-68">
                            <polygon class="cls-9"
                                points="144 69.99 148.09 67.62 147.8 125.58 143.71 127.96 144 69.99" />
                        </g>
                        <polygon class="cls-35" points="144 69.99 148.09 67.62 147.8 125.58 143.71 127.96 144 69.99" />
                    </g>
                    <g class="cls-32">
                        <polygon class="cls-69" points="139.34 67.3 143.43 64.93 148.09 67.62 144 69.99 139.34 67.3" />
                        <g class="cls-70">
                            <polygon class="cls-10"
                                points="139.34 67.3 143.43 64.93 148.09 67.62 144 69.99 139.34 67.3" />
                        </g>
                        <polygon class="cls-35" points="139.34 67.3 143.43 64.93 148.09 67.62 144 69.99 139.34 67.3" />
                    </g>
                </g>
                <g class="cls-32">
                    <polygon class="cls-71" points="148.07 67.62 105.95 92.1 0.2 31.05 42.33 6.57 148.07 67.62" />
                    <g class="cls-72">
                        <polygon class="cls-11" points="148.07 67.62 105.95 92.1 0.2 31.05 42.33 6.57 148.07 67.62" />
                    </g>
                    <polygon class="cls-35" points="148.07 67.62 105.95 92.1 0.2 31.05 42.33 6.57 148.07 67.62" />
                </g>
                <g class="cls-32">
                    <polygon class="cls-73" points="0.2 24.61 42.33 0.13 42.33 6.57 0.2 31.05 0.2 24.61" />
                    <g class="cls-74">
                        <polygon class="cls-12" points="0.2 24.61 42.33 0.13 42.33 6.57 0.2 31.05 0.2 24.61" />
                    </g>
                    <polygon class="cls-35" points="0.2 24.61 42.33 0.13 42.33 6.57 0.2 31.05 0.2 24.61" />
                </g>
                <g class="cls-32">
                    <polygon class="cls-75" points="42.33 0.13 148.07 61.18 148.07 67.62 42.33 6.57 42.33 0.13" />
                    <g class="cls-76">
                        <polygon class="cls-14" points="42.33 0.13 148.07 61.18 148.07 67.62 42.33 6.57 42.33 0.13" />
                    </g>
                    <polygon class="cls-35" points="42.33 0.13 148.07 61.18 148.07 67.62 42.33 6.57 42.33 0.13" />
                </g>
                <g class="cls-31">
                    <polygon class="cls-77" points="148.07 61.18 105.95 85.66 0.2 24.61 42.33 0.13 148.07 61.18" />
                    <g class="cls-78">
                        <polygon class="cls-15" points="148.07 61.18 105.95 85.66 0.2 24.61 42.33 0.13 148.07 61.18" />
                    </g>
                    <polygon class="cls-35" points="148.07 61.18 105.95 85.66 0.2 24.61 42.33 0.13 148.07 61.18" />
                </g>
                <g class="cls-31">
                    <polygon class="cls-79" points="148.07 61.18 148.07 67.62 105.95 92.1 105.95 85.66 148.07 61.18" />
                    <g class="cls-80">
                        <polygon class="cls-16"
                            points="148.07 61.18 148.07 67.62 105.95 92.1 105.95 85.66 148.07 61.18" />
                    </g>
                    <polygon class="cls-35" points="148.07 61.18 148.07 67.62 105.95 92.1 105.95 85.66 148.07 61.18" />
                </g>
                <g class="cls-31">
                    <polygon class="cls-81" points="105.95 85.66 105.95 92.1 0.2 31.05 0.2 24.61 105.95 85.66" />
                    <g class="cls-82">
                        <polygon class="cls-17" points="105.95 85.66 105.95 92.1 0.2 31.05 0.2 24.61 105.95 85.66" />
                    </g>
                    <polygon class="cls-35" points="105.95 85.66 105.95 92.1 0.2 31.05 0.2 24.61 105.95 85.66" />
                </g>
                <g class="cls-31">
                    <g class="cls-32">
                        <polygon class="cls-83" points="47.05 9.32 44.4 67.28 42.31 66.08 42.38 6.63 47.05 9.32" />
                        <g class="cls-84">
                            <polygon class="cls-18" points="47.05 9.32 44.4 67.28 42.31 66.08 42.38 6.63 47.05 9.32" />
                        </g>
                        <polygon class="cls-35" points="47.05 9.32 44.4 67.28 42.31 66.08 42.38 6.63 47.05 9.32" />
                    </g>
                    <g class="cls-32">
                        <polygon class="cls-85" points="38.22 68.45 38.3 9.01 42.38 6.63 42.31 66.08 38.22 68.45" />
                        <g class="cls-86">
                            <polygon class="cls-19" points="38.22 68.45 38.3 9.01 42.38 6.63 42.31 66.08 38.22 68.45" />
                        </g>
                        <polygon class="cls-35" points="38.22 68.45 38.3 9.01 42.38 6.63 42.31 66.08 38.22 68.45" />
                    </g>
                    <g class="cls-32">
                        <polygon class="cls-87" points="40.31 69.66 38.22 68.45 42.31 66.08 44.4 67.28 40.31 69.66" />
                        <g class="cls-88">
                            <polygon class="cls-20"
                                points="40.31 69.66 38.22 68.45 42.31 66.08 44.4 67.28 40.31 69.66" />
                        </g>
                        <polygon class="cls-35" points="40.31 69.66 38.22 68.45 42.31 66.08 44.4 67.28 40.31 69.66" />
                    </g>
                    <polygon class="cls-89" points="42.96 11.7 40.31 69.66 38.22 68.45 38.3 9.01 42.96 11.7" />
                    <g class="cls-90">
                        <polygon class="cls-91" points="42.96 11.7 40.31 69.66 38.22 68.45 38.3 9.01 42.96 11.7" />
                    </g>
                    <polygon class="cls-92" points="42.96 11.7 40.31 69.66 38.22 68.45 38.3 9.01 42.96 11.7" />
                    <polygon class="cls-93" points="42.96 11.7 47.05 9.32 44.4 67.28 40.31 69.66 42.96 11.7" />
                    <g class="cls-94">
                        <polygon class="cls-22" points="42.96 11.7 47.05 9.32 44.4 67.28 40.31 69.66 42.96 11.7" />
                    </g>
                    <polygon class="cls-95" points="42.96 11.7 47.05 9.32 44.4 67.28 40.31 69.66 42.96 11.7" />
                    <g class="cls-32">
                        <polygon class="cls-96" points="38.3 9.01 42.38 6.63 47.05 9.32 42.96 11.7 38.3 9.01" />
                        <g class="cls-97">
                            <polygon class="cls-23" points="38.3 9.01 42.38 6.63 47.05 9.32 42.96 11.7 38.3 9.01" />
                        </g>
                        <polygon class="cls-35" points="38.3 9.01 42.38 6.63 47.05 9.32 42.96 11.7 38.3 9.01" />
                    </g>
                </g>
                
            </g>
        </g>
    </g>
</svg>