<svg xmlns="http://www.w3.org/2000/svg" xmlns:xlink="http://www.w3.org/1999/xlink" viewBox="0 0 52.27 150">
    <defs>
        <style>
            .cls-1,
            .cls-4,
            .cls-5 {
                opacity: 0.64;
            }

            .cls-1 {
                fill: url(#未命名的渐变_12);
            }

            .cls-2 {
                fill: #fff;
            }

            .cls-2,
            .cls-3 {
                opacity: 0.29;
            }

            .cls-3 {
                fill: #bcbcbc;
            }

            .cls-4 {
                fill: url(#未命名的渐变_12-2);
            }

            .cls-5 {
                fill: url(#未命名的渐变_12-3);
            }

            .cls-6 {
                fill: url(#未命名的渐变_12-4);
            }

            .cls-7 {
                fill: #707070;
            }

            .cls-8 {
                fill: none;
                stroke: #fff;
                stroke-linecap: round;
                stroke-linejoin: round;
                stroke-width: 3px;
            }

            .cls-9 {
                opacity: 0.2;
            }
        </style>
        <linearGradient id="未命名的渐变_12" y1="81.39" x2="52.27" y2="81.39" gradientUnits="userSpaceOnUse">
            <stop offset="0" stop-color="#6b6b6b" />
            <stop offset="0.04" stop-color="#767676" />
            <stop offset="0.11" stop-color="#959595" />
            <stop offset="0.15" stop-color="#aaa" />
            <stop offset="0.2" stop-color="#aeaeae" />
            <stop offset="0.62" stop-color="#ccc" />
            <stop offset="0.85" stop-color="#d8d8d8" />
            <stop offset="0.9" stop-color="#cfcfcf" />
            <stop offset="0.98" stop-color="#b6b6b6" />
            <stop offset="0.99" stop-color="#b2b2b2" />
        </linearGradient>
        <linearGradient id="未命名的渐变_12-2" x1="19.37" y1="6.39" x2="32.15" y2="6.39" xlink:href="#未命名的渐变_12" />
        <linearGradient id="未命名的渐变_12-3" x1="18.58" y1="4.79" x2="32.8" y2="4.79" xlink:href="#未命名的渐变_12" />
        <linearGradient id="未命名的渐变_12-4" x1="17.05" y1="10.49" x2="34.48" y2="10.49" xlink:href="#未命名的渐变_12" />
    </defs>
    <title>2-liter bottle(2L瓶装)</title>
    <g id="图层_2" data-name="图层 2">
        <g id="图层_17" data-name="图层 17">
            <g id="_2-liter_bottle_2L瓶装_" data-name="2-liter bottle(2L瓶装)">
                <path class="cls-1"
                    d="M52.27,57.12V23.22a6.22,6.22,0,0,0-4.47-6L32.52,12.77H19.75l-14,4.11A8,8,0,0,0,0,24.53V57.12a2.42,2.42,0,0,0,2.42,2.42h0A2.42,2.42,0,0,1,4.85,62v.84a2.43,2.43,0,0,1-2.43,2.43h0A2.42,2.42,0,0,0,0,67.65v75.89A6.46,6.46,0,0,0,6.46,150H45.82a6.46,6.46,0,0,0,6.45-6.46V67.65a2.42,2.42,0,0,0-2.42-2.42h0a2.42,2.42,0,0,1-2.42-2.43V62a2.42,2.42,0,0,1,2.42-2.42h0A2.42,2.42,0,0,0,52.27,57.12Z" />
                <path class="cls-2"
                    d="M8.37,72.39H43.91a4.42,4.42,0,0,1,4.42,4.42v59.74A5.32,5.32,0,0,1,43,141.87H9.27a5.32,5.32,0,0,1-5.32-5.32V76.81A4.42,4.42,0,0,1,8.37,72.39Z" />
                <rect class="cls-3" x="4.85" y="59.81" width="42.59" height="5.27" rx="2.32" />
                <path class="cls-4"
                    d="M20.78,0h10a1.4,1.4,0,0,1,1.4,1.4V12.77a0,0,0,0,1,0,0H19.37a0,0,0,0,1,0,0V1.4A1.4,1.4,0,0,1,20.78,0Z" />
                <path class="cls-5"
                    d="M20,0H31.4a1.4,1.4,0,0,1,1.4,1.4V9.58a0,0,0,0,1,0,0H18.58a0,0,0,0,1,0,0V1.4A1.4,1.4,0,0,1,20,0Z" />
                <rect class="cls-6" x="17.05" y="9.58" width="17.43" height="1.81" />
                <rect class="cls-2" x="4.04" y="23.23" width="44.3" height="30.19" rx="3.47" />
                <path class="cls-7"
                    d="M14.26,147.38a39.7,39.7,0,0,1-5.61-.83c-1.76-.42-3.6-1.12-4.2-2.35a5,5,0,0,1-.36-2.36v-2.9c.07-15.49-.09-31-.34-46.46L3.41,65a2.32,2.32,0,0,1-1,.22,2.47,2.47,0,0,0-.72.12V92.48c-.05,15.49,0,31,.25,46.46L2,141.85a6.92,6.92,0,0,0,.66,3.29,5.4,5.4,0,0,0,2.61,2.29,13.48,13.48,0,0,0,3,.95,58.33,58.33,0,0,0,11.74.84c7.77-.11,15.5-.33,23.25-.61v-.22c-7.74-.3-15.5-.45-23.22-.65C18.08,147.67,16.16,147.56,14.26,147.38Z" />
                <path class="cls-7"
                    d="M1.82,22.69a17.37,17.37,0,0,0-.12,3V59.42a2.47,2.47,0,0,0,.72.12,2.32,2.32,0,0,1,.92.18L3.16,46,3,34.41,3,28.6l0-2.9a21.08,21.08,0,0,1,0-2.79,6.44,6.44,0,0,1,3.27-4.05,23.09,23.09,0,0,1,5.2-2.29,67.54,67.54,0,0,1,11.33-2.31l0-.23A68,68,0,0,0,11.24,15.9a24.19,24.19,0,0,0-5.5,2.16,10.61,10.61,0,0,0-2.41,1.85A5.91,5.91,0,0,0,1.82,22.69Z" />
                <line class="cls-8" x1="43.59" y1="76.54" x2="43.59" y2="115.74" />
                <line class="cls-8" x1="43.64" y1="26.41" x2="43.64" y2="47.25" />
               
            </g>
        </g>
    </g>
</svg>