<svg xmlns="http://www.w3.org/2000/svg" viewBox="0 0 54.01 147.97">
    <defs>
        <style>
            .cls-1 {
                fill: #eaeaea;
                opacity: 0.81;
            }

            .cls-2 {
                fill: #d6d6d6;
            }

            .cls-3 {
                fill: none;
                stroke: #fff;
                stroke-linecap: round;
                stroke-linejoin: round;
                stroke-width: 3px;
            }

            .cls-4 {
                opacity: 0.2;
            }
        </style>
    </defs>
    <title>bottle(瓶子)</title>
    <g id="图层_2" data-name="图层 2">
        <g id="图层_17" data-name="图层 17">
            <g id="bottle_瓶子_" data-name="bottle(瓶子)">
                <path class="cls-1"
                    d="M36.71,25.94V0H16.46V25.94a20.53,20.53,0,0,1-3.87,12L9,42.9A47.72,47.72,0,0,0,0,70.79v70.52H53.17V70.79a47.72,47.72,0,0,0-9-27.89l-3.59-5A20.46,20.46,0,0,1,36.71,25.94Z" />
                <path class="cls-2" d="M31.54,119.44S12.31,118.53,7,123V79.9c4.34-4.34,24.56-3.55,24.56-3.55Z" />
                <path class="cls-3" d="M39.94,52a9.7,9.7,0,0,1,4.92,9.23" />
                <line class="cls-3" x1="45.71" y1="84.69" x2="45.71" y2="118.69" />
                <ellipse class="cls-2" cx="26.58" cy="141.31" rx="26.58" ry="6.66" />
               
            </g>
        </g>
    </g>
</svg>