<svg xmlns="http://www.w3.org/2000/svg" viewBox="0 0 261.6 144.63">
    <defs>
        <style>
            .cls-1 {
                fill: #ba987d;
            }

            .cls-2 {
                fill: #ad845b;
            }

            .cls-3 {
                fill: #c2a385;
            }

            .cls-4 {
                fill: #dbc5b2;
            }

            .cls-5 {
                opacity: 0.2;
            }
        </style>
    </defs>
    <title>Cardboard box （纸板箱）</title>
    <g id="图层_2" data-name="图层 2">
        <g id="图层_17" data-name="图层 17">
            <g id="Cardboard_box_纸板箱_" data-name="Cardboard box （纸板箱）">
                <polygon class="cls-1" points="180.47 144.63 111.6 119.92 111.6 25.07 180.47 49.78 180.47 144.63" />
                <polygon class="cls-2" points="261.6 119.92 180.47 144.63 180.47 49.78 261.6 25.07 261.6 119.92" />
                <polygon class="cls-3" points="180.47 50.15 111.6 25.07 192.73 0 261.6 25.07 180.47 50.15" />
                <polygon class="cls-4"
                    points="146.15 84.86 145.09 82.07 143.53 83.9 142.23 80.89 139.82 82.55 138.31 79.56 135.69 81.04 134.21 78.74 132.49 79.87 132.49 32.68 146.15 37.67 146.15 84.86" />
                <polygon class="cls-4" points="146.15 37.67 132.49 32.68 211.36 6.82 225.02 11.81 146.15 37.67" />
               
            </g>
        </g>
    </g>
</svg>