<svg xmlns="http://www.w3.org/2000/svg" xmlns:xlink="http://www.w3.org/1999/xlink" viewBox="0 0 276.01 137.79">
    <defs>
        <style>
            .cls-1 {
                fill: #ad845b;
            }

            .cls-2 {
                fill: #b89471;
            }

            .cls-3 {
                fill: url(#未命名的渐变_36);
            }

            .cls-4 {
                fill: url(#未命名的渐变_36-2);
            }

            .cls-5 {
                fill: url(#未命名的渐变_36-3);
            }

            .cls-6 {
                fill: url(#未命名的渐变_36-4);
            }

            .cls-7 {
                fill: url(#未命名的渐变_36-5);
            }

            .cls-8 {
                fill: url(#未命名的渐变_36-6);
            }

            .cls-9 {
                fill: url(#未命名的渐变_36-7);
            }

            .cls-10 {
                fill: url(#未命名的渐变_36-8);
            }

            .cls-11 {
                fill: url(#未命名的渐变_36-9);
            }

            .cls-12 {
                fill: url(#未命名的渐变_36-10);
            }

            .cls-13 {
                fill: url(#未命名的渐变_36-11);
            }

            .cls-14 {
                fill: url(#未命名的渐变_36-12);
            }

            .cls-15 {
                fill: url(#未命名的渐变_36-13);
            }

            .cls-16 {
                opacity: 0.2;
            }
        </style>
        <linearGradient id="未命名的渐变_36" x1="143.12" y1="55.05" x2="143.12" y2="38.81"
            gradientTransform="translate(-96.51 26.45) scale(1.12 1)" gradientUnits="userSpaceOnUse">
            <stop offset="0" stop-color="#ad845b" />
            <stop offset="0.03" stop-color="#b68d66" />
            <stop offset="0.1" stop-color="#cfa685" />
            <stop offset="0.1" stop-color="#d3aa89" />
            <stop offset="0.17" stop-color="#d2a988" />
            <stop offset="0.88" stop-color="#c6a383" />
            <stop offset="0.92" stop-color="#c09c7a" />
            <stop offset="0.98" stop-color="#b18861" />
            <stop offset="0.99" stop-color="#ad845b" />
        </linearGradient>
        <linearGradient id="未命名的渐变_36-2" x1="62.87" y1="28.03" x2="62.87" y2="11.8"
            gradientTransform="matrix(1, 0, 0, 1, 0, 0)" xlink:href="#未命名的渐变_36" />
        <linearGradient id="未命名的渐变_36-3" x1="128.79" y1="-14.82" x2="128.79" y2="-31.06"
            gradientTransform="translate(-11.16 97.61)" xlink:href="#未命名的渐变_36" />
        <linearGradient id="未命名的渐变_36-4" x1="128.79" y1="94.69" x2="128.79" y2="78.45"
            gradientTransform="translate(-120.67 -11.9)" xlink:href="#未命名的渐变_36" />
        <linearGradient id="未命名的渐变_36-5" x1="62.87" y1="137.54" x2="62.87" y2="121.3"
            gradientTransform="matrix(1, 0, 0, 1, 0, 0)" xlink:href="#未命名的渐变_36" />
        <linearGradient id="未命名的渐变_36-6" x1="0" y1="5.9" x2="40.49" y2="5.9"
            gradientTransform="matrix(1, 0, 0, 1, 0, 0)" xlink:href="#未命名的渐变_36" />
        <linearGradient id="未命名的渐变_36-7" x1="109.51" y1="5.9" x2="150" y2="5.9"
            gradientTransform="matrix(1, 0, 0, 1, 0, 0)" xlink:href="#未命名的渐变_36" />
        <linearGradient id="未命名的渐变_36-8" x1="0" y1="11.01" x2="128.97" y2="11.01"
            gradientTransform="matrix(1, 0, 0, 1, 0, 0)" xlink:href="#未命名的渐变_36" />
        <linearGradient id="未命名的渐变_36-9" x1="21.03" y1="0.64" x2="150" y2="0.64"
            gradientTransform="matrix(1, 0, 0, 1, 0, 0)" xlink:href="#未命名的渐变_36" />
        <linearGradient id="未命名的渐变_36-10" x1="125.75" y1="73.24" x2="132.2" y2="73.24"
            gradientTransform="matrix(1, 0, 0, 1, 0, 0)" xlink:href="#未命名的渐变_36" />
        <linearGradient id="未命名的渐变_36-11" x1="143.47" y1="64.55" x2="149.93" y2="64.55"
            gradientTransform="matrix(1, 0, 0, 1, 0, 0)" xlink:href="#未命名的渐变_36" />
        <linearGradient id="未命名的渐变_36-12" x1="125.75" y1="11.01" x2="150" y2="11.01"
            gradientTransform="matrix(1, 0, 0, 1, 0, 0)" xlink:href="#未命名的渐变_36" />
        <linearGradient id="未命名的渐变_36-13" x1="125.75" y1="126.53" x2="150" y2="126.53"
            gradientTransform="matrix(1, 0, 0, 1, 0, 0)" xlink:href="#未命名的渐变_36" />
    </defs>
    <title>crate（木箱）</title>
    <g id="图层_2" data-name="图层 2">
        <g id="图层_17" data-name="图层 17">
            <g id="crate_木箱_" data-name="crate（木箱）">
                <rect class="cls-1" x="130.74" y="11.8" width="15.96" height="115.56" />
                <rect class="cls-2" y="11.8" width="125.75" height="125.75" />
                <rect class="cls-3" x="-6.74" y="65.26" width="140.66" height="16.24"
                    transform="translate(70.51 -23.47) rotate(45)" />
                <rect class="cls-4" y="11.8" width="125.75" height="16.24" />
                <rect class="cls-5" x="54.75" y="66.55" width="125.75" height="16.24"
                    transform="translate(192.29 -42.96) rotate(90)" />
                <rect class="cls-6" x="-54.75" y="66.55" width="125.75" height="16.24"
                    transform="translate(82.79 66.55) rotate(90)" />
                <rect class="cls-7" y="121.3" width="125.75" height="16.24" />
                <polygon class="cls-1" points="125.75 11.79 0 11.79 24.18 0 149.93 0 125.75 11.79" />
                <polygon class="cls-8" points="16.24 11.79 0 11.79 24.25 0 40.49 0 16.24 11.79" />
                <polygon class="cls-9" points="125.75 11.79 109.51 11.79 133.76 0 150 0 125.75 11.79" />
                <polygon class="cls-10" points="125.8 11.79 0 11.7 3.23 10.23 128.97 10.23 125.8 11.79" />
                <polygon class="cls-11" points="146.77 1.28 21.03 1.28 24.25 0 150 0 146.77 1.28" />
                <polygon class="cls-12" points="132.2 134.31 125.75 137.79 125.75 11.79 132.2 8.69 132.2 134.31" />
                <polygon class="cls-13" points="149.93 125.62 143.47 129.1 143.47 3.1 149.93 0 149.93 125.62" />
                <polygon class="cls-14" points="125.75 22.02 125.75 11.79 150 0 150 10.23 125.75 22.02" />
                <polygon class="cls-15" points="125.75 137.54 125.75 127.31 150 115.52 150 125.75 125.75 137.54" />
                <path class="cls-2" d="M68.08,4.94a1.5,1.5,0,0,0,0-3,1.5,1.5,0,0,0,0,3Z" />
               
            </g>
        </g>
    </g>
</svg>