<svg xmlns="http://www.w3.org/2000/svg" viewBox="0 0 86.81 129.14">
    <defs>
        <style>
            .cls-1 {
                fill: #ac6438;
                opacity: 0.8;
            }

            .cls-2 {
                fill: #f5cd6e;
            }

            .cls-3 {
                fill: #f9e7c6;
            }

            .cls-4 {
                fill: #dcb558;
            }

            .cls-5 {
                fill: #8e4c39;
            }

            .cls-6 {
                fill: #f4b798;
            }

            .cls-7 {
                fill: none;
                stroke: #fff;
                stroke-linecap: round;
                stroke-linejoin: round;
                stroke-width: 3px;
            }

            .cls-8 {
                opacity: 0.2;
            }
        </style>
    </defs>
    <title>Pill bottle(药瓶)</title>
    <g id="图层_2" data-name="图层 2">
        <g id="图层_17" data-name="图层 17">
            <g id="Pill_bottle_药瓶_" data-name="Pill bottle(药瓶)">
                <path class="cls-1"
                    d="M76.58,10.14h-11a2.18,2.18,0,0,1-2-2.28V4.24H21.32V6.82a3.17,3.17,0,0,1-3,3.32h-8.1C4.58,10.14,0,15.24,0,21.53v96.22c0,6.29,4.58,11.39,10.23,11.39H76.58c5.65,0,10.23-5.1,10.23-11.39V21.53C86.81,15.24,82.23,10.14,76.58,10.14Z" />
                <rect class="cls-2" x="12.09" y="27.23" width="62.63" height="85.27" />
                <rect class="cls-3" x="12.71" y="27.23" width="15.23" height="85.27" />
                <rect class="cls-4" x="56.91" y="27.23" width="17.27" height="85.27" />
                <path class="cls-5"
                    d="M70.09,12.19A20.13,20.13,0,0,1,78,15.87a13.32,13.32,0,0,1,3,3.29,14.52,14.52,0,0,1,1.84,4.05,32,32,0,0,1,1,8.71L84,40.54,84.78,75c.23,11.49.8,23,.56,34.46l-.19,8.62-.07,2.15a5.6,5.6,0,0,1-.93,2.89A8.67,8.67,0,0,1,80,126.2a20.5,20.5,0,0,1-9,1.15c-2.87-.21-5.74-.41-8.61-.71v-.4c2.87-.3,5.74-.51,8.61-.72a19.82,19.82,0,0,0,7.83-1.88,6.23,6.23,0,0,0,2.56-2.2,2.17,2.17,0,0,0,.28-1.19l-.09-2.15-.28-8.62C81,98,81.46,86.5,81.58,75L82,40.55l.15-8.62a30.35,30.35,0,0,0-.58-8.39,13.3,13.3,0,0,0-1.53-3.84,12.41,12.41,0,0,0-2.64-3.18A19.44,19.44,0,0,0,70,12.58Z" />
                <path class="cls-6"
                    d="M16.66,125.18l-1.48-1.53a20.74,20.74,0,0,1-5.54-15.79l1.53-81.24c.08-4.27,3.25-6.71,6.87-8.09,3-1.14,28.82.35,34.46-2.73,2.2-1.21,14.62-7.73,2.17-14.15C45.24-3.22,21.32,4.24,21.32,4.24V6.82a3.17,3.17,0,0,1-3,3.32h-8.1A6.21,6.21,0,0,0,7.36,11c-3.88,2-6.25,6.53-6.31,11.31C.84,39.57.33,94,2,109.65,4,128.29,16.66,125.18,16.66,125.18Z" />
                <path class="cls-7" d="M9.36,14.7a10,10,0,0,0-4.47,9.36" />
                <line class="cls-7" x1="4.85" y1="33.92" x2="4.85" y2="68.39" />
               
            </g>
        </g>
    </g>
</svg>