<svg xmlns="http://www.w3.org/2000/svg" xmlns:xlink="http://www.w3.org/1999/xlink" viewBox="0 0 143.63 139.3">
    <defs>
        <style>
            .cls-1 {
                opacity: 0.64;
                fill: url(#未命名的渐变_12);
            }

            .cls-2 {
                fill: #f4f4f4;
            }

            .cls-2,
            .cls-3 {
                opacity: 0.29;
            }

            .cls-3,
            .cls-4 {
                fill: #fff;
            }

            .cls-5 {
                fill: #707070;
            }

            .cls-6 {
                opacity: 0.2;
            }
        </style>
        <linearGradient id="未命名的渐变_12" y1="69.65" x2="143.63" y2="69.65" gradientUnits="userSpaceOnUse">
            <stop offset="0" stop-color="#6b6b6b" />
            <stop offset="0.04" stop-color="#767676" />
            <stop offset="0.11" stop-color="#959595" />
            <stop offset="0.15" stop-color="#aaa" />
            <stop offset="0.2" stop-color="#aeaeae" />
            <stop offset="0.62" stop-color="#ccc" />
            <stop offset="0.85" stop-color="#d8d8d8" />
            <stop offset="0.9" stop-color="#cfcfcf" />
            <stop offset="0.98" stop-color="#b6b6b6" />
            <stop offset="0.99" stop-color="#b2b2b2" />
        </linearGradient>
    </defs>
    <title>Polyethylene jar（聚乙烯罐）</title>
    <g id="图层_2" data-name="图层 2">
        <g id="图层_17" data-name="图层 17">
            <g id="Polyethylene_jar_聚乙烯罐_" data-name="Polyethylene jar（聚乙烯罐）">
                <path class="cls-1"
                    d="M143,21.73C142.29,7,122.88,2.78,122.88,2.78h0V0H19.3V2.78h0S0,11,0,21.93L.64,134.11c0,2.87,4.7,5.19,10.48,5.19h122c5.8,0,10.49-2.34,10.47-5.22Z" />
                <path class="cls-2"
                    d="M27.31,19.69h89a11.92,11.92,0,0,1,11.92,11.92v84.73a12.82,12.82,0,0,1-12.82,12.82H28.21a12.82,12.82,0,0,1-12.82-12.82V31.61A11.92,11.92,0,0,1,27.31,19.69Z" />
                <path class="cls-3" d="M128.24,86.14,15.39,64.58V30.71a11,11,0,0,1,11-11h90.8a11,11,0,0,1,11,11Z" />
                <path class="cls-4"
                    d="M123.14,6.21A20.64,20.64,0,0,1,132,10.4a16.51,16.51,0,0,1,5.3,8.49,39.24,39.24,0,0,1,1.07,9.93l.23,9.8q.36,19.59.4,39.19c.05,13.07-.07,26.14-.29,39.2l-.21,9.8-.08,2.45c0,.41,0,.8-.06,1.29a4.83,4.83,0,0,1-.37,1.35,7.81,7.81,0,0,1-3.74,3.58,20.84,20.84,0,0,1-9.71,1.85l-9.8-.24,9.8-.24a20.2,20.2,0,0,0,9.26-2.21,6.71,6.71,0,0,0,3.08-3.2,4.66,4.66,0,0,0,.21-2.18l-.1-2.45-.3-9.79c-.33-13.07-.57-26.13-.64-39.2s-.07-26.13.06-39.2l.14-9.8c0-1.64.08-3.25,0-4.84a27.17,27.17,0,0,0-.54-4.7,15.9,15.9,0,0,0-4.34-8.23A22.16,22.16,0,0,0,123.14,6.21Z" />
                <path class="cls-5"
                    d="M19.41,2.91a41.56,41.56,0,0,0-7.94,6.46,29.56,29.56,0,0,0-5.73,8.3,14.22,14.22,0,0,0-1.2,4.72V23l0,.65,0,1.29.06,2.58.24,10.32,1,41.29c.37,13.76.73,27.52.78,41.29v7.71a8.81,8.81,0,0,0,.27,2.19,4.88,4.88,0,0,0,2.63,3,15.93,15.93,0,0,0,4.55,1.42,84,84,0,0,0,10.16.68c3.45.18,6.89.3,10.33.54v.3c-3.44.23-6.88.36-10.33.54L19.1,137a39.1,39.1,0,0,1-5.29-.15,16.32,16.32,0,0,1-5.35-1.34A8.48,8.48,0,0,1,6,133.77a7,7,0,0,1-1.62-2.69,10.79,10.79,0,0,1-.48-2.9l-.07-2.61-.15-5.16c-.34-13.76-.39-27.53-.42-41.29L3,37.83,3,27.5V23l0-.71a14.8,14.8,0,0,1,1.55-5.16A30.39,30.39,0,0,1,10.9,8.8a42.19,42.19,0,0,1,8.36-6.15Z" />
             
            </g>
        </g>
    </g>
</svg>