<svg xmlns="http://www.w3.org/2000/svg" viewBox="0 0 150 150">
    <defs>
        <style>
            .cls-1 {
                fill: #fff;
            }

            .cls-2 {
                fill: #eaeaea;
            }

            .cls-3 {
                fill: #7f7f7f;
            }

            .cls-4 {
                fill: none;
                stroke: #7f7f7f;
                stroke-miterlimit: 10;
                stroke-width: 0.25px;
            }

            .cls-5 {
                fill: #dedede;
            }

            .cls-6 {
                opacity: 0.2;
            }
        </style>
    </defs>
    <title>iot-按钮</title>
    <g id="图层_16" data-name="图层 16">
        <circle class="cls-1" cx="75.51" cy="75" r="68.52" />
        <path class="cls-2"
            d="M7,75a68.44,68.44,0,0,0,29.93,56.61,72.67,72.67,0,0,0,10.17.8c40.55,0,73.43-33.44,73.43-74.69a75.09,75.09,0,0,0-14-43.78A68.43,68.43,0,0,0,7,75Z" />
        <path class="cls-3"
            d="M75.51,0a75,75,0,1,0,75,75A75,75,0,0,0,75.51,0Zm0,143.52A68.52,68.52,0,1,1,144,75,68.52,68.52,0,0,1,75.51,143.52Z" />
        <path class="cls-3"
            d="M98.47,95.42l5.14-9.07a2.86,2.86,0,0,0-1.07-3.9,2.59,2.59,0,0,0-.45-.14l0,0-.23,0a2.38,2.38,0,0,0-.69-.12,50.2,50.2,0,0,1-13.92-4.45C75.16,71.14,28.13,42,28.13,42s44.38,32.35,57,42.71c3,2.49,7,8.42,8.37,10.5a2.59,2.59,0,0,0,.45.68A.72.72,0,0,0,94,96v0a3.18,3.18,0,0,0,.59.51A2.86,2.86,0,0,0,98.47,95.42Z" />
        <circle class="cls-3" cx="77.82" cy="75.87" r="5.92" />
        <line class="cls-4" x1="104.97" y1="20.59" x2="100.12" y2="29.71" />
        <line class="cls-4" x1="48.07" y1="20.59" x2="52.92" y2="29.71" />
        <line class="cls-4" x1="15.19" y1="66.89" x2="25.42" y2="68.35" />
        <circle class="cls-5" cx="77.82" cy="75.87" r="3.38" />
    </g>
   
</svg>