<?xml version="1.0" encoding="utf-8"?>
<!-- Generator: Adobe Illustrator 24.0.0, SVG Export Plug-In . SVG Version: 6.00 Build 0)  -->
<svg version="1.1" id="图层_1" xmlns="http://www.w3.org/2000/svg" xmlns:xlink="http://www.w3.org/1999/xlink" x="0px"
	y="0px" viewBox="0 0 150 150" style="enable-background:new 0 0 150 150;" xml:space="preserve">
	<style type="text/css">
		.st0 {
			fill: #5D5F69;
		}

		.st1 {
			fill: #858792;
		}

		.st2 {
			fill: #53565E;
		}

		.st3 {
			fill: #3E3938;
		}

		.st4 {
			fill: #F6EB68;
		}

		.st5 {
			opacity: 0.68;
			fill: url(#SVGID_1_);
			enable-background: new;
		}

		.st6 {
			opacity: 0.2;
		}
	</style>
	<title>iot-按钮</title>
	<g id="图层_55">
		<polygon class="st0" points="95.1,0 54.9,0 20.1,20.1 0,54.9 0,95.1 20.1,129.9 54.9,150 95.1,150 129.9,129.9 150,95.1 150,54.9
		129.9,20.1 	" />
		<polygon class="st1" points="93.8,4.7 56.2,4.7 23.5,23.5 4.7,56.2 4.7,93.8 23.5,126.5 56.2,145.3 93.8,145.3 126.5,126.5
		145.3,93.8 145.3,56.2 126.5,23.5 	" />
		<polygon class="st2" points="90.5,17.1 59.5,17.1 32.7,32.7 17.1,59.5 17.1,90.5 32.7,117.3 59.5,132.9 90.5,132.9 117.3,117.3
		132.9,90.5 132.9,59.5 117.3,32.7 	" />
		<circle class="st3" cx="75" cy="75" r="53.8" />
		<circle class="st4" cx="75" cy="75" r="49.1" />

		<radialGradient id="SVGID_1_" cx="75" cy="78.17" r="40.47" gradientTransform="matrix(1 0 0 -1 0 152)"
			gradientUnits="userSpaceOnUse">
			<stop offset="0" style="stop-color:#F4F4F4;stop-opacity:0" />
			<stop offset="0.38" style="stop-color:#F4F4F4;stop-opacity:1.000000e-02" />
			<stop offset="0.52" style="stop-color:#F3F3F3;stop-opacity:4.000000e-02" />
			<stop offset="0.62" style="stop-color:#F2F2F2;stop-opacity:9.000000e-02" />
			<stop offset="0.7" style="stop-color:#F1F1F1;stop-opacity:0.17" />
			<stop offset="0.76" style="stop-color:#EFEFEF;stop-opacity:0.26" />
			<stop offset="0.82" style="stop-color:#EDEDED;stop-opacity:0.38" />
			<stop offset="0.88" style="stop-color:#EBEBEB;stop-opacity:0.53" />
			<stop offset="0.93" style="stop-color:#E8E8E8;stop-opacity:0.69" />
			<stop offset="0.97" style="stop-color:#E4E4E4;stop-opacity:0.88" />
			<stop offset="1" style="stop-color:#E2E2E2" />
		</radialGradient>
		<circle class="st5" cx="75" cy="73.8" r="41.9" />
	</g>
	
</svg>