<svg xmlns="http://www.w3.org/2000/svg" viewBox="0 0 150 150">
    <defs>
        <style>
            .cls-1 {
                fill: #fff;
                stroke: #000;
            }

            .cls-1,
            .cls-4 {
                stroke-miterlimit: 10;
                stroke-width: 0.25px;
            }

            .cls-2 {
                fill: #eaeaea;
            }

            .cls-3 {
                fill: #7f7f7f;
            }

            .cls-4 {
                fill: none;
                stroke: #7f7f7f;
            }

            .cls-5 {
                opacity: 0.2;
            }
        </style>
    </defs>
    <title>iot-按钮</title>
    <g id="图层_15" data-name="图层 15">
        <circle class="cls-1" cx="75" cy="75" r="64.87" />
        <path class="cls-2"
            d="M10.84,75.5a64,64,0,0,0,28,52.91,67.76,67.76,0,0,0,9.5.75C86.23,129.16,117,97.9,117,59.35a70.18,70.18,0,0,0-13.12-40.93,64,64,0,0,0-93,57.08Z" />
        <path class="cls-3"
            d="M75,2.62A72.38,72.38,0,1,0,147.38,75,72.37,72.37,0,0,0,75,2.62Zm0,138.51A66.13,66.13,0,1,1,141.13,75,66.13,66.13,0,0,1,75,141.13Z" />
        <path class="cls-3"
            d="M48.72,93.84l6.94,7a2.69,2.69,0,0,0,3.82,0,2.19,2.19,0,0,0,.25-.37l0,0,.09-.2a2.28,2.28,0,0,0,.28-.59,47.49,47.49,0,0,1,7.65-11.53c9.07-9.35,47.74-44.67,47.74-44.67S74.6,75.63,61.91,84.41c-3,2.11-9.48,4.22-11.72,4.92a2.74,2.74,0,0,0-.74.22l-.11,0,0,0a3,3,0,0,0-.62.41A2.7,2.7,0,0,0,48.72,93.84Z" />
        <circle class="cls-3" cx="77.19" cy="75" r="9.47" />
        <line class="cls-4" x1="102.89" y1="23.48" x2="98.3" y2="32.12" />
        <line class="cls-4" x1="49.02" y1="23.48" x2="53.61" y2="32.12" />
        <line class="cls-4" x1="17.89" y1="67.32" x2="27.57" y2="68.71" />
        <rect class="cls-4" x="46.95" y="116.42" width="60.47" height="11.77" rx="1.06" />
    </g>
    
</svg>