<svg xmlns="http://www.w3.org/2000/svg" xmlns:xlink="http://www.w3.org/1999/xlink" viewBox="0 0 147.73 150">
    <defs>
        <style>
            .cls-1 {
                fill: url(#未命名的渐变_33);
            }

            .cls-2 {
                fill: #7f7f7f;
            }

            .cls-3 {
                fill: #dcdcdd;
            }

            .cls-4 {
                fill: url(#未命名的渐变_105);
            }

            .cls-5 {
                fill: url(#未命名的渐变_105-2);
            }

            .cls-6 {
                fill: none;
                stroke: #7f7f7f;
                stroke-width: 0.25px;
            }

            .cls-6,
            .cls-8 {
                stroke-miterlimit: 10;
            }

            .cls-7 {
                fill: #faf9f9;
            }

            .cls-8 {
                stroke: #c1c1c1;
                stroke-width: 0.5px;
                fill: url(#未命名的渐变_33-2);
            }

            .cls-9 {
                opacity: 0.2;
            }
        </style>
        <linearGradient id="未命名的渐变_33" x1="0.16" y1="75.24" x2="147.73" y2="75.24" gradientUnits="userSpaceOnUse">
            <stop offset="0" stop-color="#b7b7b7" />
            <stop offset="0.03" stop-color="#d6d6d6" />
            <stop offset="0.04" stop-color="#e4e4e4" />
            <stop offset="0.11" stop-color="#ededed" />
            <stop offset="0.23" stop-color="#f4f4f4" />
            <stop offset="0.56" stop-color="#f6f6f6" />
            <stop offset="0.8" stop-color="#f4f4f4" />
            <stop offset="0.89" stop-color="#ededed" />
            <stop offset="0.95" stop-color="#e2e2e2" />
            <stop offset="0.97" stop-color="#dedede" />
            <stop offset="0.98" stop-color="#c8c8c8" />
            <stop offset="1" stop-color="#b3b3b3" />
        </linearGradient>
        <linearGradient id="未命名的渐变_105" x1="124.82" y1="78.93" x2="132.9" y2="78.93" gradientUnits="userSpaceOnUse">
            <stop offset="0" stop-color="#e2e2e2" />
            <stop offset="0.03" stop-color="#d0d0d0" />
            <stop offset="0.06" stop-color="#bcbcbc" />
            <stop offset="0.09" stop-color="#b5b5b5" />
            <stop offset="0.49" stop-color="#f6f6f6" />
            <stop offset="0.63" stop-color="#f3f3f3" />
            <stop offset="0.73" stop-color="#eaeaea" />
            <stop offset="0.82" stop-color="#dbdbdb" />
            <stop offset="0.9" stop-color="#c6c6c6" />
            <stop offset="0.97" stop-color="#aaa" />
            <stop offset="1" stop-color="#9b9b9b" />
        </linearGradient>
        <linearGradient id="未命名的渐变_105-2" x1="70.42" y1="133.22" x2="78.51" y2="133.22" xlink:href="#未命名的渐变_105" />
        <linearGradient id="未命名的渐变_33-2" x1="78.69" y1="111.88" x2="137.82" y2="111.88"
            gradientTransform="translate(-1.76 -1.45) rotate(-0.18)" xlink:href="#未命名的渐变_33" />
    </defs>
    <title>iot-按钮</title>
    <g id="图层_18" data-name="图层 18">
        <rect class="cls-1" x="0.16" y="0.48" width="147.57" height="149.52" rx="0.29" />
        <path class="cls-2"
            d="M137.33,10.53h-127A1.34,1.34,0,0,0,9,11.87v128.9a1.34,1.34,0,0,0,1.35,1.34H89.14l49.54-48.22v-82A1.35,1.35,0,0,0,137.33,10.53Z" />
        <path class="cls-3"
            d="M134.66,13.1H13a1.29,1.29,0,0,0-1.29,1.29V137.86A1.29,1.29,0,0,0,13,139.15H88.49L136,93V14.39A1.29,1.29,0,0,0,134.66,13.1Z" />
        <circle class="cls-4" cx="128.86" cy="78.93" r="4.04" />
        <circle class="cls-5" cx="74.46" cy="133.22" r="4.04" />
        <line class="cls-6" x1="70.45" y1="30.21" x2="77.96" y2="40.85" />
        <line class="cls-6" x1="111.6" y1="23.71" x2="111.74" y2="36.72" />
        <line class="cls-6" x1="30.22" y1="72.53" x2="41.95" y2="78.18" />
        <line class="cls-6" x1="24.89" y1="109.78" x2="37.9" y2="110.1" />
        <rect class="cls-7" x="17.88" y="20.24" width="41.21" height="15.29" />
        <polygon class="cls-2" points="45.64 42.84 90.06 95.06 94.94 89.6 45.64 42.84" />
        <path class="cls-8" d="M136.35,90.85a34.77,34.77,0,0,0-49.93,48.36Z" />
    </g>
   
</svg>