<svg xmlns="http://www.w3.org/2000/svg" viewBox="0 0 83.51 150">
    <defs>
        <style>
            .cls-1 {
                fill: #d44c5b;
            }

            .cls-2 {
                fill: #da707b;
            }

            .cls-3 {
                opacity: 0.2;
            }
        </style>
    </defs>
    <title>iot-按钮</title>
    <g id="图层_10" data-name="图层 10">
        <path class="cls-1" d="M6,0h71.6a6,6,0,0,1,6,6V150a0,0,0,0,1,0,0H0a0,0,0,0,1,0,0V6A6,6,0,0,1,6,0Z" />
        <path class="cls-2"
            d="M9.67,4.26H73.85a6,6,0,0,1,6,6v135a0,0,0,0,1,0,0H3.71a0,0,0,0,1,0,0v-135a6,6,0,0,1,6-6Z" />
    </g>
    
</svg>