<?xml version="1.0" encoding="utf-8"?>
<!-- Generator: Adobe Illustrator 23.0.0, SVG Export Plug-In . SVG Version: 6.00 Build 0)  -->
<svg version="1.1" id="图层_1" xmlns="http://www.w3.org/2000/svg" xmlns:xlink="http://www.w3.org/1999/xlink" x="0px" y="0px"
	 viewBox="0 0 106.5 106.5" style="enable-background:new 0 0 106.5 106.5;" xml:space="preserve">
<style type="text/css">
	.st0{stroke:#000000;stroke-width:2;}
	.st1{fill:#E8E8E8;stroke:#000000;stroke-width:0.5;}
	.st2{stroke:#000000;stroke-width:0.5;}
	.st3{fill:none;stroke:#999999;stroke-width:0.5;}
	.st4{fill:none;stroke:#000000;stroke-width:0.5;}
	.st5{fill:#4D4D4D;stroke:#7F7F7F;stroke-width:0.5;}
	.st6{fill:#FFFFFF;stroke:#000000;stroke-width:0.5;}
</style>
<path class="st0" d="M102.8,103.3V3.1H2.7v100.2H102.8z"/>
<circle class="st1" cx="52.8" cy="53.2" r="50.2"/>
<circle class="st2" cx="52.8" cy="53.2" r="43"/>
<path class="st3" d="M102.8,19.6L86.2,3.1"/>
<path class="st3" d="M86.2,103.3l16.6-16.7"/>
<path class="st4" d="M11,61.6h-0.4"/>
<path class="st4" d="M10.6,44.8H11"/>
<path class="st3" d="M2.7,19.6L19.2,3.1"/>
<path class="st3" d="M19.2,103.3L2.7,86.6"/>
<path class="st5" d="M10.8,53.2l1.2-10l1.2-1.6l2-0.4l24.9,2h25.4l25.1-2l1.8,0.4l1.3,1.6l1.2,10l-1.2,9.9l-1.3,1.7l-1.8,0.4
	l-25.1-2H40.1l-24.9,2l-2-0.4l-1-1.6L10.8,53.2z"/>
<path class="st6" d="M73.2,57.5h-0.1L73,57.4l-0.7-0.2l-0.9-0.4L70.7,56L70,55.3l-0.1-0.6l-0.3-1l-0.1-1.1v-0.1h0.1v-0.2l0.3-1
	l0.4-0.9l0.7-0.7l0.5-0.3l0.3-0.1l0,0l0.5-0.2l1.1-0.1h17.9v8.4H73.5H73.2z"/>
</svg>
