<?xml version="1.0" encoding="utf-8"?>
<!-- Generator: Adobe Illustrator 23.0.0, SVG Export Plug-In . SVG Version: 6.00 Build 0)  -->
<svg version="1.1" id="图层_1" xmlns="http://www.w3.org/2000/svg" xmlns:xlink="http://www.w3.org/1999/xlink" x="0px" y="0px"
	 viewBox="0 0 106.5 106.5" style="enable-background:new 0 0 106.5 106.5;" xml:space="preserve">
<style type="text/css">
	.st0{fill:#BDBDBD;stroke:#000000;stroke-width:0.5;}
	.st1{fill:#636363;}
	.st2{fill:#CCCCCC;}
	.st3{fill:#FFFFFF;}
	.st4{fill:none;stroke:#000000;stroke-width:0.5;}
</style>
<circle class="st0" cx="53.2" cy="53.2" r="50.2"/>
<path d="M61.6,28L53.2,7.1L44.8,28H61.6z"/>
<circle cx="53.2" cy="53.2" r="32.2"/>
<circle class="st1" cx="53.2" cy="53.2" r="31.3"/>
<circle class="st2" cx="53.2" cy="53.2" r="25.2"/>
<path class="st3" d="M53.2,53.2l12.6,21.7l0.6-0.4l0.7-0.4l0.6-0.4l0.6-0.5l0.6-0.5l0.6-0.5l0.6-0.5L71,71l0.5-0.6l0.5-0.6l0.5-0.6
	l0.5-0.6l0.5-0.6l0.4-0.6l0.4-0.7l0.4-0.6L53.2,53.2z"/>
<path class="st3" d="M53.2,53.2L40.6,31.3L40,31.9l-0.7,0.4l-0.6,0.4L38,33.3l-0.7,0.4l-0.5,0.6L36,34.9l-0.6,0.5L34.9,36l-0.5,0.6
	l-0.6,0.5L33.3,38l-0.5,0.6l-0.4,0.6L31.9,40l-0.5,0.6L53.2,53.2z"/>
<circle class="st4" cx="53.2" cy="53.2" r="25.2"/>
</svg>
