<?xml version="1.0" encoding="utf-8"?>
<!-- Generator: Adobe Illustrator 23.0.0, SVG Export Plug-In . SVG Version: 6.00 Build 0)  -->
<svg version="1.1" id="图层_1" xmlns="http://www.w3.org/2000/svg" xmlns:xlink="http://www.w3.org/1999/xlink" x="0px" y="0px"
	 viewBox="0 0 141.9 106.5" style="enable-background:new 0 0 141.9 106.5;" xml:space="preserve">
<style type="text/css">
	.st0{stroke:#000000;stroke-width:0.5;}
	.st1{fill:#B2B2B2;stroke:#000000;stroke-width:0.5;}
	.st2{fill:#7F7F7F;stroke:#000000;stroke-width:0.5;}
</style>
<path class="st0" d="M3,74.8V4h134.1v70.8H3z"/>
<path class="st1" d="M70,71V7.7h63.1V71H70z"/>
<path class="st2" d="M70,71l-55.2,31.5V39.4L70,7.7V71z"/>
<path class="st1" d="M7,39.4v6.4l0.1,6.3l0.3,6.1l0.1,5.7L8,69.5l0.3,5.1l0.6,4.8L9.3,84l0.6,4l0.9,5.3l1,4.3l1.6,3.6l1.1,1.3
	l0.4,0.1V39.4L12.2,36l-1.1-4l-0.9-4.4l-0.7-3.7L9,19.5l-0.6-4.7L8,9.5L7.8,7.7H7V39.4z"/>
</svg>
