<?xml version="1.0" encoding="utf-8"?>
<!-- Generator: Adobe Illustrator 23.0.0, SVG Export Plug-In . SVG Version: 6.00 Build 0)  -->
<svg version="1.1" id="图层_1" xmlns="http://www.w3.org/2000/svg" xmlns:xlink="http://www.w3.org/1999/xlink" x="0px" y="0px"
	 viewBox="0 0 106.5 106.5" style="enable-background:new 0 0 106.5 106.5;" xml:space="preserve">
<style type="text/css">
	.st0{stroke:#000000;stroke-width:2;}
	.st1{fill:#E8E8E8;stroke:#000000;stroke-width:0.5;}
	.st2{stroke:#000000;stroke-width:0.5;}
	.st3{fill:none;stroke:#999999;stroke-width:0.5;}
	.st4{fill:none;stroke:#000000;stroke-width:0.5;}
	.st5{fill:#4C4C4C;stroke:#7F7F7F;stroke-width:0.5;}
	.st6{fill:#FFFFFF;stroke:#000000;stroke-width:0.5;}
</style>
<path class="st0" d="M103.3,103.3V3.1H3.2v100.2H103.3z"/>
<circle class="st1" cx="53.2" cy="53.2" r="50.2"/>
<circle class="st2" cx="53.2" cy="53.2" r="43"/>
<path class="st3" d="M19.8,3.1L3.2,19.6"/>
<path class="st3" d="M3.2,86.6l16.6,16.7"/>
<path class="st4" d="M95.4,61.6H95"/>
<path class="st4" d="M95,44.8h0.4"/>
<path class="st3" d="M86.8,3.1l16.5,16.5"/>
<path class="st3" d="M103.3,86.6l-16.5,16.7"/>
<path class="st5" d="M43.2,93.8l-1.6-1l-0.4-2l2-24.9V40.5l-2-25.1l0.4-1.8l1.8-1.3l9.8-1.2l10,1.2l1.6,1.3l0.4,1.8l-2,25.1v25.4
	l2,24.9l-0.4,2L63.2,94l-10,1.2L43.2,93.8z"/>
<path class="st6" d="M49,32.5V14.6h8.4v17.9l-0.2,1.1L57,34.1l0,0l-0.1,0.3L56.6,35l-0.7,0.7L55,36.1l-1,0.3h-0.2v0.1h-0.1l-1.1-0.1
	l-1-0.3L51.1,36l-0.6-0.7l-0.7-0.6l-0.4-0.9L49,33v-0.1v-0.1V32.5z"/>
</svg>
