<?xml version="1.0" encoding="utf-8"?>
<!-- Generator: Adobe Illustrator 23.0.0, SVG Export Plug-In . SVG Version: 6.00 Build 0)  -->
<svg version="1.1" id="图层_1" xmlns="http://www.w3.org/2000/svg" xmlns:xlink="http://www.w3.org/1999/xlink" x="0px" y="0px"
	 viewBox="0 0 106.5 106.5" style="enable-background:new 0 0 106.5 106.5;" xml:space="preserve">
<style type="text/css">
	.st0{stroke:#000000;stroke-width:0.5;}
	.st1{fill:#FFFFFF;stroke:#000000;stroke-width:0.5;}
</style>
<path class="st0" d="M95.6,80.4l2.2-4.1L88,70.7l-2.2,4.1L95.6,80.4z"/>
<path class="st0" d="M76.3,97.9l4.1-2.2l-5.7-9.9L70.7,88L76.3,97.9z"/>
<path class="st0" d="M26,95.6l4.1,2.2l5.7-9.9l-4.1-2.2L26,95.6z"/>
<path class="st0" d="M8.5,76.3l2.2,4.1l9.9-5.7l-2.2-4.1L8.5,76.3z"/>
<path class="st0" d="M10.8,26l-2.2,4.1l9.9,5.7l2.2-4.1L10.8,26z"/>
<path class="st0" d="M30.1,8.5L26,10.8l5.7,9.9l4.1-2.2L30.1,8.5z"/>
<path class="st0" d="M80.4,10.8l-4.1-2.2l-5.7,9.9l4.1,2.2L80.4,10.8z"/>
<path class="st0" d="M97.9,30.1L95.6,26l-9.9,5.7l2.2,4.1L97.9,30.1z"/>
<path class="st1" d="M51,103.4h4.5V92H51V103.4z"/>
<path class="st1" d="M3,51v4.5h11.4V51H3z"/>
<path class="st1" d="M55.4,3H51v11.4h4.5V3z"/>
<path class="st1" d="M103.4,55.4V51H92v4.5H103.4z"/>
</svg>
