<?xml version="1.0" encoding="utf-8"?>
<!-- Generator: Adobe Illustrator 23.0.0, SVG Export Plug-In . SVG Version: 6.00 Build 0)  -->
<svg version="1.1" id="图层_1" xmlns="http://www.w3.org/2000/svg" xmlns:xlink="http://www.w3.org/1999/xlink" x="0px" y="0px"
	 viewBox="0 0 80 106.5" style="enable-background:new 0 0 80 106.5;" xml:space="preserve">
<style type="text/css">
	.st0{stroke:#000000;stroke-width:0.5;}
	.st1{fill:#B2B2B2;stroke:#000000;stroke-width:0.5;}
	.st2{fill:#7F7F7F;stroke:#000000;stroke-width:0.5;}
</style>
<path class="st0" d="M23.7,103.4h53.2V3H23.7V103.4z"/>
<path class="st1" d="M26.7,100.4h47.2V53.2H26.7V100.4z"/>
<path class="st2" d="M73.9,53.2L50.3,11.8H3l23.7,41.4H73.9z"/>
<path class="st1" d="M73.9,6v0.6l-1.4,0.1L68.6,7l-3.5,0.4l-3.2,0.4L59,8.4l-3.3,0.6l-3,0.9l-2.5,1.9H3v-0.3l1-0.9l2.7-1.2l3.2-0.7
	l3.9-0.6l3.1-0.4l3.3-0.3l3.7-0.4l3.8-0.2l4.2-0.3l4.3-0.1l4.6-0.2L45.5,6h4.8H73.9z"/>
</svg>
