<?xml version="1.0" encoding="utf-8"?>
<!-- Generator: Adobe Illustrator 23.0.0, SVG Export Plug-In . SVG Version: 6.00 Build 0)  -->
<svg version="1.1" id="图层_1" xmlns="http://www.w3.org/2000/svg" xmlns:xlink="http://www.w3.org/1999/xlink" x="0px" y="0px"
	 viewBox="0 0 106.5 106.5" style="enable-background:new 0 0 106.5 106.5;" xml:space="preserve">
<style type="text/css">
	.st0{fill:#9A9A9A;stroke:#000000;stroke-width:0.5;}
	.st1{fill:#FFFFFF;stroke:#B2B2B2;stroke-width:0.5;}
	.st2{fill:#FFFF01;stroke:#000000;stroke-width:0.5;}
	.st3{fill:#FFFF01;stroke:#EBEB00;stroke-width:0.5;}
	.st4{fill:none;stroke:#FFFFFF;stroke-width:0.5;}
	.st5{fill:#FFFF01;stroke:#EBEB00;stroke-width:0.6003;}
</style>
<path class="st0" d="M84.6,93.6l9.7-9.7l6.5-11.4l3.4-12.5V46.5L100.8,34l-6.5-11.4l-9.7-9.7L73.1,6.4L60.7,3H47.2L34.7,6.4
	l-11.4,6.5l-9.7,9.7L7.1,34L3.7,46.5V60l3.4,12.5l6.5,11.4l9.7,9.7l11.4,6.5l12.5,3.4h13.4l12.5-3.4L84.6,93.6z"/>
<path class="st1" d="M22.9,77.5l45.5-60.7l23.6,10.4l-9.8-10.6l-8.9-6L61.4,7H49.1l-11.7,3.5L27,16.3l-8.9,8.9l-6.1,10.5L8.9,47.3
	v12.3l3.2,12.1L18.2,82l8.9,8.5l12.1,5.1L22.9,77.5z"/>
<path class="st2" d="M77.9,84.6l7.3-7.1l5.2-9.1l2.7-9.9V48.2l-2.7-10l-5.2-9L77.9,22l-9-5.2l-10-2.7H48.7l-9.9,2.7L29.7,22
	l-7.1,7.3l-5.3,9l-2.7,10v10.2l2.7,9.9l5.3,9.1l7.4,7.1l8.9,5.3l9.9,2.7h10.2L69,90L77.9,84.6z"/>
<path class="st3" d="M70.8,78.9l8.5-8.5l4.5-11V47.3l-4.5-10.9l-8.5-8.5l-11.1-4.5H47.9l-11,4.5l-8.5,8.5l-4.5,11.1v11.8l4.5,11
	l8.5,8.5L48,83.3h12L70.8,78.9z"/>
<path class="st3" d="M68.2,74.9l7.1-7.3l3.7-9.2V48.2L75.4,39l-7.1-7.1l-9.5-3.7h-10l-9.2,3.7L32.3,39l-3.7,9.5v10l3.7,9.2l7.3,7.3
	l9.4,3.7h10L68.2,74.9z"/>
<path class="st4" d="M22.6,77.5l7.4,7.1l8.9,5.3l9.9,2.7h10.2L69,90l9-5.3l7.3-7.1l5.2-9.1l2.7-9.9V48.2l-2.7-10l-5.2-9"/>
<circle class="st5" cx="54" cy="53.3" r="30.5"/>
<circle class="st3" cx="54" cy="53.3" r="25.4"/>
</svg>
