<?xml version="1.0" encoding="utf-8"?>
<!-- Generator: Adobe Illustrator 23.0.0, SVG Export Plug-In . SVG Version: 6.00 Build 0)  -->
<svg version="1.1" id="图层_1" xmlns="http://www.w3.org/2000/svg" xmlns:xlink="http://www.w3.org/1999/xlink" x="0px" y="0px"
	 viewBox="0 0 109.5 106.5" style="enable-background:new 0 0 109.5 106.5;" xml:space="preserve">
<style type="text/css">
	.st0{fill:#CAE4CA;stroke:#000000;stroke-width:0.5;}
	.st1{fill:#007F00;stroke:#000000;stroke-width:0.5;}
	.st2{fill:#64B264;stroke:#000000;stroke-width:0.5;}
	.st3{stroke:#7F7F7F;stroke-width:0.5;}
	.st4{fill:#FFFFFF;stroke:#7F7F7F;stroke-width:0.5;}
	.st5{fill:none;stroke:#7F7F7F;stroke-width:0.5;}
</style>
<path d="M4,59.4V3.2l103,0.1l-0.1,56.1l-16.9,9.3l-3.4,8.7l-5.8,7.5l-7.3,5.6L64.9,94l-9.2,1.2L46.2,94l-8.7-3.6l-7.3-5.6l-5.8-7.5
	L21,68.7L4,59.4z"/>
<path d="M4,3.2L4,3.2v56.2H3.9V3.2L4,3.1L3.9,3.2V3.1H4V3.2z"/>
<path d="M107,3.3v0.1L4,3.2V3.1l103,0.1l0.1,0.1L107,3.2h0.1v0.1H107z"/>
<path d="M106.9,59.4h-0.1L107,3.3h0.1L107,59.4v0.1v-0.1v0.1l0,0L106.9,59.4z"/>
<path d="M90.1,68.6L90.1,68.6l16.9-9.2l0.1,0.1l-16.9,9.2l0,0L90.1,68.6L90.1,68.6L90.1,68.6z"/>
<path d="M86.6,77.2L86.6,77.2l3.5-8.7l0.1,0.1l-3.4,8.7l0,0l0,0l0,0L86.6,77.2z"/>
<path d="M80.9,84.7l-0.1,0.1l5.8-7.6l0.2,0.1L81,84.9l0,0l0,0l0,0l0,0L80.9,84.7z"/>
<path d="M73.5,90.4L73.5,90.4l7.3-5.7l0.1,0.2l-7.3,5.6l0,0l0,0l0,0L73.5,90.4z"/>
<path d="M64.9,94h-0.1l8.8-3.6l0.1,0.1l-8.8,3.6l0,0l0,0l0,0V94z"/>
<path d="M55.7,95.2h-0.1l9.3-1.2v0.1l-9.2,1.2h-0.1h0.1l0,0h-0.1L55.7,95.2z"/>
<path d="M46.3,94h-0.1l9.4,1.2l-0.1,0.1l-9.3-1.2l0,0l0,0l0,0L46.3,94z"/>
<path d="M37.6,90.4L37.6,90.4l8.8,3.6l-0.1,0.1l-8.8-3.6l0,0l0,0l0,0L37.6,90.4z"/>
<path d="M30.3,84.8l-0.1-0.1l7.3,5.7l-0.1,0.1l-7.3-5.6l0,0l0,0l0,0l0,0L30.3,84.8z"/>
<path d="M24.5,77.2L24.5,77.2l5.8,7.6l-0.2,0.1l-5.8-7.6l0,0l0,0l0,0L24.5,77.2z"/>
<path d="M21,68.6L21,68.6l3.5,8.7l-0.2,0.1l-3.4-8.7l0,0L21,68.6L21,68.6L21,68.6z"/>
<path d="M4,59.4L4,59.4l17,9.2l-0.1,0.1l-17-9.2v-0.1v0.1l0,0v-0.1H4z"/>
<path class="st0" d="M69.4,28.2l17.5,17.3l0.5,1.6v24.4l-0.5,1.6L69.4,90.7l-1.8,0.4H43.5l-1.8-0.4L24.2,73.2l-0.5-1.6V47.1l0.5-1.6
	l17.5-17.3l1.8-0.7h24.1L69.4,28.2z"/>
<circle class="st1" cx="55.5" cy="59.4" r="29.9"/>
<path class="st2" d="M51.2,25.4v6.4l-5.8,1.5l-5.5,3l-4.8,4.1l-3.6,4.9L29,50.8l-1.2,6l0.1,6.2l1.4,5.9l2.7,5.5l3.9,4.8l4.7,3.7
	l5.8,2.7l5.8,1.2h6.4l5.8-1.2l5.7-2.7l4.8-3.7l3.9-4.8l2.7-5.5l1.4-5.9l0.2-6.2l-1.2-6l-2.5-5.6L76,40.3l-4.6-4.1l-5.7-3l-6-1.5
	v-6.4H51.2z"/>
<circle cx="55.5" cy="59.4" r="23.9"/>
<path class="st3" d="M73.5,54.3L59.6,40.4L10.2,91.3l12.1,12.2L73.5,54.3z"/>
<path class="st4" d="M64.4,49.5l-5.9,1.1l1.4,1.2l-6.5,6.4l2.2,2.2l6.4-6.2l1.3,1.3L64.4,49.5z"/>
<path class="st5" d="M46,54.3L50,57l3.6,3.1l3.3,3.8l2.5,3.9"/>
<path class="st5" d="M26.9,98.7L14.8,86.5"/>
<path class="st5" d="M27.5,98.3L15.3,85.9"/>
<path class="st5" d="M32.5,93.5L20,81.1"/>
<path class="st5" d="M32.9,93.1L20.6,80.5"/>
<path class="st5" d="M37.8,88.3L25.3,75.6"/>
<path class="st5" d="M38.3,87.9L25.7,75.1"/>
<path class="st5" d="M43.3,83.1L30.5,70.2"/>
<path class="st5" d="M43.7,82.7L31,69.7"/>
<path class="st5" d="M48.6,78L35.8,64.9"/>
<path class="st5" d="M49.3,77.5l-13-13.1"/>
<path class="st5" d="M54.1,72.8l-13-13.4"/>
<path class="st5" d="M54.7,72.2L41.4,58.8"/>
<path class="st5" d="M23.8,77.2l-13.6,14"/>
<path class="st5" d="M22.2,103.4L10.2,91.3"/>
<path class="st5" d="M36.3,90l-14,13.5"/>
<path class="st5" d="M52.7,61.1"/>
<path class="st5" d="M16.2,97.3"/>
<path class="st5" d="M22.2,103.4L10.2,91.3"/>
</svg>
