<?xml version="1.0" encoding="utf-8"?>
<!-- Generator: Adobe Illustrator 23.0.0, SVG Export Plug-In . SVG Version: 6.00 Build 0)  -->
<svg version="1.1" id="图层_1" xmlns="http://www.w3.org/2000/svg" xmlns:xlink="http://www.w3.org/1999/xlink" x="0px" y="0px"
	 viewBox="0 0 58.2 106.5" style="enable-background:new 0 0 58.2 106.5;" xml:space="preserve">
<style type="text/css">
	.st0{fill:#C0C0C0;stroke:#FFFFFF;stroke-width:0.5;stroke-linejoin:round;}
	.st1{stroke:#000000;stroke-width:0.5;stroke-linejoin:round;}
	.st2{fill:#7F7F7F;stroke:#000000;stroke-width:0.5;stroke-linejoin:round;}
	.st3{fill:#9C0800;stroke:#000000;stroke-width:0.5;stroke-linejoin:round;}
	.st4{fill:#C0797B;stroke:#000000;stroke-width:0.5;stroke-linejoin:round;}
	.st5{fill:none;stroke:#000000;stroke-width:0.5;stroke-linejoin:round;}
</style>
<path class="st0" d="M53.2,6.2l-44,94l-3,3.2h50.2V3L53.2,6.2z"/>
<path class="st1" d="M9.2,100.2l44-94L56.4,3H6.2v100.4L9.2,100.2z"/>
<path class="st2" d="M9.2,100.2h44v-94h-44V100.2z"/>
<path class="st3" d="M46.8,61.2l6.2-3.8V6.3L46.8,10H4.2v51.2H46.8z"/>
<path class="st3" d="M40.9,27.5l6-3.5V11.7l-6,3.5H4.2v12.3H40.9z"/>
<path class="st4" d="M40.9,15.2l6-3.5H10.4l-6.2,3.5H40.9z"/>
<path class="st5" d="M40.9,15.2v12.3"/>
<path class="st3" d="M40.9,45.2l6-3.8V29.2l-6,3.8H4.2v12.2H40.9z"/>
<path class="st4" d="M40.9,33.1l6-3.8H10.4l-6.2,3.8H40.9z"/>
<path class="st5" d="M40.9,33.1v12.2"/>
<path class="st3" d="M40.9,62.7l6-3.8V46.7l-6,3.8H4.2v12.2H40.9z"/>
<path class="st4" d="M40.9,50.5l6-3.8H10.4l-6.2,3.8H40.9z"/>
<path class="st5" d="M40.9,50.5v12.2"/>
<path class="st5" d="M46.8,10v51.2"/>
<path class="st4" d="M46.8,10L53,6.3H10.4L4.2,10H46.8z"/>
</svg>
