<?xml version="1.0" encoding="utf-8"?>
<!-- Generator: Adobe Illustrator 23.0.0, SVG Export Plug-In . SVG Version: 6.00 Build 0)  -->
<svg version="1.1" id="图层_1" xmlns="http://www.w3.org/2000/svg" xmlns:xlink="http://www.w3.org/1999/xlink" x="0px" y="0px"
	 viewBox="0 0 109.5 106.5" style="enable-background:new 0 0 109.5 106.5;" xml:space="preserve">
<style type="text/css">
	.st0{fill:#CAE4CA;stroke:#000000;stroke-width:0.5;}
	.st1{fill:#007F00;stroke:#000000;stroke-width:0.5;}
	.st2{fill:#64B264;stroke:#000000;stroke-width:0.5;}
	.st3{stroke:#7F7F7F;stroke-width:0.5;}
	.st4{fill:#FFFFFF;stroke:#7F7F7F;stroke-width:0.5;}
	.st5{fill:none;stroke:#7F7F7F;stroke-width:0.5;}
</style>
<path d="M107.6,59.3l0.1-56.1L4.7,3.3l0.1,56l16.8,9.3l3.5,8.8l5.8,7.5l7.3,5.6l8.7,3.6l9.3,1.2l9.3-1.2l8.5-3.6l7.5-5.6l5.7-7.5
	l3.5-8.8L107.6,59.3z"/>
<path d="M107.7,3.3l-0.1-0.1l-0.1,56.1h0.2l0.1-56.1l-0.1-0.1l0.1,0.1V3.1h-0.1V3.3z"/>
<path d="M4.8,3.3L4.7,3.4l103-0.1V3.1L4.7,3.2L4.6,3.3l0.1-0.1H4.6v0.1H4.8z"/>
<path d="M4.8,59.3h0.1l-0.1-56H4.6l0.1,56v0.1v-0.1v0.1l0,0L4.8,59.3z"/>
<path d="M21.7,68.6h-0.1L4.8,59.3l-0.1,0.1l16.8,9.3v-0.1H21.7L21.7,68.6h-0.1H21.7z"/>
<path d="M25.2,77.2v0.1l-3.5-8.8h-0.2l3.5,8.8l0,0l0,0l0,0L25.2,77.2z"/>
<path d="M30.9,84.7L30.9,84.7l-5.7-7.5L25,77.4l5.8,7.5v0.1v-0.1v0.1l0,0L30.9,84.7z"/>
<path d="M38.2,90.3v0.1l-7.3-5.7l-0.1,0.2l7.3,5.6l0,0l0,0l0,0L38.2,90.3z"/>
<path d="M46.9,93.9l-8.7-3.6l-0.1,0.2l8.8,3.6V93.9z"/>
<path d="M56.2,95.1L56.2,95.1l-9.3-1.2v0.2l9.3,1.2l0,0l0,0l0,0l0,0V95.1z"/>
<path d="M65.5,93.9l-9.3,1.2v0.2l9.3-1.2V93.9z"/>
<path d="M74.1,90.4v-0.1l-8.5,3.6v0.2l8.5-3.6h0.1h-0.1h0.1L74.1,90.4z"/>
<path d="M81.5,84.7L81.5,84.7l-7.5,5.7l0.1,0.1l7.5-5.6v-0.1v0.1l0,0v-0.1L81.5,84.7z"/>
<path d="M87.1,77.4v-0.1l-5.6,7.5l0.1,0.1l5.6-7.5h0.1h-0.1h0.1H87.1z"/>
<path d="M90.6,68.6L90.6,68.6l-3.5,8.8h0.2l3.5-8.8l-0.1,0.1L90.6,68.6L90.6,68.6L90.6,68.6z"/>
<path d="M107.5,59.3h0.1l-17,9.3l0.1,0.1l17-9.3v-0.1v0.1l0,0v-0.1H107.5z"/>
<path class="st0" d="M42.4,28.1L24.8,45.6l-0.5,1.5v24.4l0.5,1.8l17.6,17.4l1.5,0.4h24.4l1.6-0.4l17.4-17.4l0.5-1.8V47.1l-0.5-1.5
	L70,28.1l-1.6-0.5H43.9L42.4,28.1z"/>
<path class="st1" d="M86,59.3l-0.5-6.6l-2.3-6.4l-3.4-5.7l-4.8-4.8l-5.8-3.4l-6.4-2.3l-6.7-0.8l-6.7,0.8l-6.2,2.3l-5.7,3.4l-4.8,4.8
	l-3.5,5.7L27,52.7l-0.8,6.6L27,66l2.2,6.5l3.5,5.8l4.8,4.6l5.7,3.5l6.2,2.3l6.7,0.7l6.7-0.7l6.4-2.3l5.8-3.5l4.8-4.6l3.4-5.8
	l2.3-6.5L86,59.3z"/>
<path class="st2" d="M60.6,25.4v6.2l5.7,1.8l5.6,3l4.7,3.9l3.5,4.9l2.6,5.6l1.1,6v6.2L82.3,69l-2.7,5.5l-3.9,4.8l-4.7,3.6l-5.7,2.7
	l-5.9,1.2h-6.1l-6-1.2l-5.6-2.7l-4.9-3.6l-3.9-4.8L30,69l-1.4-5.9l-0.2-6.2l1.1-6l2.6-5.6l3.5-4.9l4.7-3.9l5.6-3l5.9-1.8v-6.2H60.6z
	"/>
<circle cx="56.2" cy="59.3" r="23.8"/>
<path class="st3" d="M38.2,54.2l13.9-13.9l49.4,51l-12.2,12.2L38.2,54.2z"/>
<path class="st4" d="M47.3,49.6l5.8,1l-1.3,1.2l6.4,6.4l-2.1,2.2l-6.5-6.2l-1.3,1.2L47.3,49.6z"/>
<path class="st5" d="M65.7,54.3l-4.1,2.5l-3.6,3.3l-3.2,3.6l-2.6,3.9"/>
<path class="st5" d="M84.7,98.7l12.2-12.3"/>
<path class="st5" d="M84.3,98.3l12.1-12.4"/>
<path class="st5" d="M79.3,93.6L91.7,81"/>
<path class="st5" d="M78.8,93.1l12.4-12.6"/>
<path class="st5" d="M73.9,88.3l12.5-12.7"/>
<path class="st5" d="M73.2,87.9l12.7-12.8"/>
<path class="st5" d="M68.4,83.2l12.7-12.8"/>
<path class="st5" d="M67.9,82.7l12.8-12.9"/>
<path class="st5" d="M63,77.9l12.9-13.1"/>
<path class="st5" d="M62.3,77.5l13.1-13.3"/>
<path class="st5" d="M57.5,72.9l13.1-13.4"/>
<path class="st5" d="M57.1,72.3l13-13.4"/>
<path class="st5" d="M87.9,77.2l13.7,14"/>
<path class="st5" d="M89.4,103.4l12.2-12.2"/>
<path class="st5" d="M75.5,89.8l13.9,13.6"/>
<path class="st5" d="M59.1,61.1"/>
<path class="st5" d="M95.5,97.3"/>
<path class="st5" d="M89.4,103.4l12.2-12.2"/>
</svg>
