<?xml version="1.0" encoding="utf-8"?>
<!-- Generator: Adobe Illustrator 23.0.0, SVG Export Plug-In . SVG Version: 6.00 Build 0)  -->
<svg version="1.1" id="图层_1" xmlns="http://www.w3.org/2000/svg" xmlns:xlink="http://www.w3.org/1999/xlink" x="0px" y="0px"
	 viewBox="0 0 106.5 106.5" style="enable-background:new 0 0 106.5 106.5;" xml:space="preserve">
<style type="text/css">
	.st0{fill:#989898;stroke:#000000;stroke-width:0.5;}
	.st1{fill:#FFFFFF;stroke:#B2B2B2;stroke-width:0.5;}
	.st2{stroke:#333333;stroke-width:0.5;}
	.st3{fill:#4C4C4C;stroke:#000000;stroke-width:0.5;}
	.st4{fill:#4C4C4C;stroke:#999999;stroke-width:0.5;}
	.st5{fill:#4C4C4C;stroke:#7F7F7F;stroke-width:0.5;}
</style>
<path class="st0" d="M87,93.5l9.7-9.7l6.6-11.4l3.4-12.5V46.5L103.3,34l-6.6-11.4L87,12.9L75.5,6.3L63.1,2.9H49.6L37.2,6.3
	l-11.4,6.6l-9.7,9.7L9.4,34L6,46.5v13.4l3.4,12.5l6.6,11.4l9.7,9.7l11.4,6.6l12.5,3.4h13.4l12.5-3.4L87,93.5z"/>
<path class="st1" d="M25.3,77.4l45.5-60.8l23.6,10.4l-9.8-10.6l-9-6.1L63.8,7H51.6l-11.7,3.4l-10.3,5.9l-8.8,8.8l-6.1,10.4
	l-3.2,11.6v12.3l3.2,12.2L20.6,82l8.8,8.5l12,5L25.3,77.4z"/>
<path class="st2" d="M87.2,93.5l9.5-9.5l6.6-11.5l3.4-12.8V46.5l-3.4-12.6l-34-20.8L19.7,71l30.2,32.5h13.2l12.6-3.4L87.2,93.5z"/>
<path class="st3" d="M80.2,84.8l7.6-7.6l5.1-9l2.6-9.6V48l-2.6-9.6l-5.1-9.1l-7.6-7.6l-9.1-5.1l-9.6-2.6H50.9l-9.6,2.6l-9,5.1
	l-7.6,7.6l-5.1,9.1L17,48v10.7l2.7,9.6l5.1,9l7.6,7.6l9,5.1l9.6,2.7h10.7l9.6-2.7L80.2,84.8z"/>
<path class="st3" d="M71.9,76.1l7.1-7.1l5.3-9.1l2.6-10V39.7l-2.6-10l-5.3-9l-7.1-7.1l-9.1-5.3l-10-2.7H42.7l-10,2.7l-9.1,5.3
	l-7.1,7.1l-5.3,9l-2.7,10v10.2l2.7,10l5.3,9.1l7.4,7.1l8.8,5.3l10,2.6h10.1l10-2.6L71.9,76.1z"/>
<path class="st4" d="M64.8,70.3l8.5-8.5l4.5-10.9V38.7l-4.5-10.9l-8.5-8.5l-11.2-4.5H41.8l-11,4.5l-8.4,8.5l-4.6,11.1v11.9l4.6,10.9
	l8.4,8.5l11.1,4.5h11.9L64.8,70.3z"/>
<path class="st5" d="M62.1,66.3l7.1-7.1l3.8-9.3V39.7l-3.8-9.2l-7.1-7.2l-9.4-3.7h-10l-9.3,3.7l-7.1,7.2l-3.8,9.4v10l3.8,9.3
	l7.1,7.1l9.4,3.8h10L62.1,66.3z"/>
</svg>
