<?xml version="1.0" encoding="utf-8"?>
<!-- Generator: Adobe Illustrator 23.0.0, SVG Export Plug-In . SVG Version: 6.00 Build 0)  -->
<svg version="1.1" id="图层_1" xmlns="http://www.w3.org/2000/svg" xmlns:xlink="http://www.w3.org/1999/xlink" x="0px" y="0px"
	 viewBox="0 0 79.7 106.5" style="enable-background:new 0 0 79.7 106.5;" xml:space="preserve">
<style type="text/css">
	.st0{stroke:#000000;stroke-width:0.5;}
	.st1{fill:#7F7F7F;stroke:#000000;stroke-width:0.5;}
	.st2{fill:#B2B2B2;stroke:#000000;stroke-width:0.5;}
</style>
<path class="st0" d="M22.3,3h53.2v100.4H22.3V3z"/>
<path class="st1" d="M25.2,6h47.2v47.2H25.2V6z"/>
<path class="st2" d="M72.5,53.2L48.9,94.6H1.7l23.6-41.4H72.5z"/>
<path class="st1" d="M72.5,100.4v-0.6l-1.4-0.1l-3.8-0.3l-3.5-0.4l-3.2-0.4L57.7,98l-3.2-0.6l-3-0.9l-2.6-1.9H1.7l0.1,0.3l1,0.9
	l2.7,1.2l3.2,0.7l3.9,0.6l3,0.4L19,99l3.6,0.4l3.8,0.2l4.2,0.3l4.3,0.1l4.6,0.2l4.7,0.1h4.8H72.5z"/>
</svg>
