<?xml version="1.0" encoding="utf-8"?>
<!-- Generator: Adobe Illustrator 23.0.0, SVG Export Plug-In . SVG Version: 6.00 Build 0)  -->
<svg version="1.1" id="图层_1" xmlns="http://www.w3.org/2000/svg" xmlns:xlink="http://www.w3.org/1999/xlink" x="0px" y="0px"
	 viewBox="0 0 106.5 106.5" style="enable-background:new 0 0 106.5 106.5;" xml:space="preserve">
<style type="text/css">
	.st0{fill:#9A9A9A;stroke:#000000;stroke-width:0.5;}
	.st1{fill:#FFFFFF;stroke:#B2B2B2;stroke-width:0.5;}
	.st2{fill:#323232;stroke:#333333;stroke-width:0.5;}
	.st3{fill:#003498;stroke:#000000;stroke-width:0.5;}
	.st4{fill:#0000FE;stroke:#000000;stroke-width:0.5;}
	.st5{fill:none;stroke:#6666CC;stroke-width:0.5;}
</style>
<path class="st0" d="M84,93.5l9.7-9.7l6.6-11.5l3.3-12.4V46.5l-3.3-12.4l-6.6-11.5L84,12.9L72.5,6.3L60.1,3H46.7L34.3,6.3l-11.5,6.6
	l-9.7,9.7L6.5,34.1L3.2,46.5v13.4l3.3,12.4l6.6,11.5l9.7,9.7l11.5,6.6l12.4,3.3h13.4l12.4-3.3L84,93.5z"/>
<path class="st1" d="M22.4,77.4l45.4-60.7l23.6,10.3l-9.7-10.6l-9-6.1L60.9,7.1H48.6l-11.7,3.3l-10.3,5.9l-8.8,8.8l-6.1,10.4
	L8.4,47.2v12.3l3.2,12L17.7,82l8.8,8.4l12,5.1L22.4,77.4z"/>
<path class="st2" d="M84.2,93.5l9.5-9.5l6.6-11.5l3.3-12.8V46.5l-3.3-12.6l-34-20.8L16.7,71l30.2,32.4h13.2l12.6-3.3L84.2,93.5z"/>
<path class="st3" d="M77.3,84.8l7.5-7.6l5.1-9l2.7-9.7V48.1l-2.7-9.7l-5.1-9.1l-7.5-7.5l-9.1-5.1l-9.7-2.7H48.1l-9.7,2.7l-9,5.1
	l-7.6,7.5l-5.1,9.1l-2.7,9.7v10.4l2.7,9.7l5.1,9l7.6,7.6l9,5.1l9.7,2.7h10.4l9.7-2.7L77.3,84.8z"/>
<path class="st4" d="M69,76.1l7.1-7.1l5.3-9.1l2.6-10V39.7l-2.6-9.9l-5.3-9.1L69,13.5l-9.1-5.3l-10-2.7H39.7l-10,2.7l-9.1,5.3
	l-7.1,7.1l-5.2,9.1l-2.7,9.9v10.2l2.7,10l5.2,9.1l7.4,7.1l8.8,5.3l10,2.6h10.1l10-2.6L69,76.1z"/>
<path class="st5" d="M61.8,70.3l8.4-8.4l4.6-11v-12l-4.6-11l-8.4-8.5l-11.2-4.5H38.8l-10.9,4.5l-8.5,8.5l-4.5,11.1v11.9l4.5,11
	l8.5,8.4L39,74.8h11.8L61.8,70.3z"/>
<path class="st5" d="M59.2,66.3l7.1-7.1l3.7-9.3V39.7l-3.7-9.2l-7.1-7.1l-9.4-3.8h-10l-9.3,3.8l-7.1,7.1L19.5,40v9.9l3.8,9.3
	l7.1,7.1l9.4,3.7h10L59.2,66.3z"/>
</svg>
