<?xml version="1.0" encoding="utf-8"?>
<!-- Generator: Adobe Illustrator 23.0.0, SVG Export Plug-In . SVG Version: 6.00 Build 0)  -->
<svg version="1.1" id="图层_1" xmlns="http://www.w3.org/2000/svg" xmlns:xlink="http://www.w3.org/1999/xlink" x="0px" y="0px"
	 viewBox="0 0 106.5 106.5" style="enable-background:new 0 0 106.5 106.5;" xml:space="preserve">
<style type="text/css">
	.st0{fill:#9A9A9A;stroke:#000000;stroke-width:0.5;}
	.st1{fill:#FFFFFF;stroke:#B2B2B2;stroke-width:0.5;}
	.st2{fill:#0000FF;stroke:#000000;stroke-width:0.5;}
	.st3{fill:none;stroke:#6666CC;stroke-width:0.5;}
	.st4{fill:none;stroke:#FFFFFF;stroke-width:0.5;}
</style>
<path class="st0" d="M85.4,93.5l9.7-9.7l6.5-11.4l3.4-12.5V46.5L101.6,34l-6.5-11.4l-9.7-9.7L74,6.4L61.5,3H48.1L35.6,6.4l-11.4,6.5
	l-9.7,9.7L8,34L4.6,46.5v13.4L8,72.4l6.5,11.4l9.7,9.7l11.4,6.5l12.5,3.4h13.4L74,100L85.4,93.5z"/>
<path class="st1" d="M23.7,77.5l45.4-60.7l23.7,10.3l-9.9-10.6l-8.8-6.1L62.3,7H50l-11.8,3.5l-10.3,5.9l-8.8,8.8L13,35.6L9.8,47.2
	v12.3l3.2,12l6.2,10.4l8.8,8.5l12,5.1L23.7,77.5z"/>
<path class="st2" d="M78.8,84.5l7.2-7.1l5.2-9.1l2.7-9.9V48.2l-2.7-9.9L86,29.2L78.8,22l-9.1-5.2l-9.9-2.7H49.6l-9.9,2.7L30.6,22
	l-7.1,7.2l-5.3,9.1l-2.7,9.9v10.3l2.7,9.9l5.3,9.1l7.4,7.1l8.8,5.3l9.9,2.7h10.2l9.9-2.7L78.8,84.5z"/>
<path class="st3" d="M71.7,78.8l8.5-8.5l4.5-10.9V47.2l-4.5-10.9l-8.5-8.5l-11.1-4.5H48.7l-10.9,4.5l-8.5,8.5l-4.5,11.1v12l4.5,10.9
	l8.5,8.5l11.1,4.5h11.9L71.7,78.8z"/>
<path class="st3" d="M69.2,74.8l7.1-7.2l3.7-9.2V48.2l-3.8-9.4l-7.1-7.1L59.6,28h-10l-9.2,3.9L33.2,39l-3.7,9.5v10l3.7,9.2l7.2,7.2
	l9.4,3.7h10L69.2,74.8z"/>
<path class="st4" d="M23.5,77.4l7.4,7.1l8.8,5.3l9.9,2.7h10.2l9.9-2.7l9.1-5.3l7.2-7.1l5.2-9.1l2.7-9.9V48.2l-2.7-9.9L86,29.2"/>
</svg>
