<?xml version="1.0" encoding="utf-8"?>
<!-- Generator: Adobe Illustrator 23.0.0, SVG Export Plug-In . SVG Version: 6.00 Build 0)  -->
<svg version="1.1" id="图层_1" xmlns="http://www.w3.org/2000/svg" xmlns:xlink="http://www.w3.org/1999/xlink" x="0px" y="0px"
	 viewBox="0 0 106.5 106.5" style="enable-background:new 0 0 106.5 106.5;" xml:space="preserve">
<style type="text/css">
	.st0{fill:#9A9A9A;stroke:#000000;stroke-width:0.5;}
	.st1{fill:#FFFFFF;stroke:#B2B2B2;stroke-width:0.5;}
	.st2{fill:#34CC33;stroke:#000000;stroke-width:0.5;}
	.st3{fill:none;stroke:#31B331;stroke-width:0.5;}
	.st4{fill:none;stroke:#FFFFFF;stroke-width:0.5;}
</style>
<path class="st0" d="M84.6,93.5l9.7-9.7l6.6-11.4l3.3-12.5V46.5L100.9,34l-6.6-11.4l-9.7-9.7L73.2,6.3L60.7,3H47.3L34.8,6.3
	l-11.4,6.6l-9.7,9.7L7.1,34L3.8,46.5v13.4l3.3,12.5l6.6,11.4l9.7,9.7l11.4,6.6l12.5,3.3h13.4l12.5-3.3L84.6,93.5z"/>
<path class="st1" d="M23,77.4l45.4-60.7l23.6,10.3l-9.8-10.6l-8.8-6.1L61.4,7.1H49.2l-11.7,3.3l-10.3,5.9l-8.8,8.8l-6.1,10.4L9,47.2
	v12.3l3.2,12L18.3,82l8.8,8.4l12,5.1L23,77.4z"/>
<path class="st2" d="M78.1,84.5l7.1-7.1l5.2-9.1l2.7-9.9V48.2l-2.7-10l-5.2-9.1L78.1,22L69,16.7l-10-2.7H48.8l-9.9,2.7L29.8,22
	l-7.1,7.1l-5.3,9.1l-2.7,10v10.2l2.7,9.9l5.3,9.1l7.2,7.1l9,5.3l9.9,2.7H59l10-2.7L78.1,84.5z"/>
<path class="st3" d="M70.8,78.8l8.5-8.5l4.5-10.9V47.2l-4.5-10.9l-8.5-8.5l-11.1-4.5H47.8l-10.9,4.5l-8.5,8.5l-4.5,11.1v11.9
	l4.5,10.9l8.5,8.5L48,83.3H60L70.8,78.8z"/>
<path class="st3" d="M68.3,74.7l7.1-7.1l3.7-9.2V48.2l-3.7-9.3l-7.1-7.1L58.8,28h-10l-9.2,3.7l-7.1,7.1l-3.8,9.5v10l3.8,9.2l7.1,7.1
	l9.4,3.8h10L68.3,74.7z"/>
<path class="st4" d="M22.6,77.4l7.2,7.1l9,5.3l9.9,2.7H59l10-2.7l9.1-5.3l7.1-7.1l5.2-9.1l2.7-9.9V48.2l-2.7-10l-5.2-9.1"/>
</svg>
