<?xml version="1.0" encoding="utf-8"?>
<!-- Generator: Adobe Illustrator 23.0.0, SVG Export Plug-In . SVG Version: 6.00 Build 0)  -->
<svg version="1.1" id="图层_1" xmlns="http://www.w3.org/2000/svg" xmlns:xlink="http://www.w3.org/1999/xlink" x="0px" y="0px"
	 viewBox="0 0 144.7 77.8" style="enable-background:new 0 0 144.7 77.8;" xml:space="preserve">
<style type="text/css">
	.st0{fill:#C0C0C0;stroke:#FFFFFF;stroke-width:0.5;}
	.st1{stroke:#000000;stroke-width:0.5;}
	.st2{fill:#7F7F7F;stroke:#000000;stroke-width:0.5;}
	.st3{fill:#AB0002;stroke:#000000;stroke-width:0.5;}
	.st4{fill:#BC6F6E;stroke:#000000;stroke-width:0.5;stroke-linejoin:round;}
	.st5{fill:none;stroke:#000000;stroke-width:0.5;}
	.st6{fill:#FF525A;stroke:#000000;stroke-width:0.5;stroke-linejoin:round;}
	.st7{fill:#FF4F4F;stroke:#000000;stroke-width:0.5;stroke-linejoin:round;}
</style>
<path class="st0" d="M135.4,8.4L8.2,67.5l-4.1,4.3h135.3l0.3-67.8L135.4,8.4z"/>
<path class="st1" d="M8.5,67.8L135.4,8.4l4.3-4.3L4.1,4.1v67.8L8.5,67.8z"/>
<path class="st2" d="M135.4,67.8V8.4H8.5v59.4H135.4z"/>
<path class="st3" d="M138.4,16.5l-5.2-8.1H65l5.2,8.1v57.2h68.2V16.5z"/>
<path class="st3" d="M93.5,24.6l-4.9-8.1H72.5l4.6,8.1v49.1h16.4V24.6z"/>
<path class="st4" d="M77.2,24.6l-4.6-8.1v49l4.6,8.3V24.6z"/>
<path class="st5" d="M77.2,24.6h16.4"/>
<path class="st3" d="M117,24.6l-4.9-8.1H95.7l5.2,8.1v49.1H117V24.6z"/>
<path class="st4" d="M100.9,24.6l-5.2-8.1v49l5.2,8.3V24.6z"/>
<path class="st5" d="M100.9,24.6H117"/>
<path class="st3" d="M140.6,24.6l-5.2-8.1h-16.2l5.2,8.1v49.1h16.2V24.6z"/>
<path class="st6" d="M124.4,24.6l-5.2-8.1v49l5.2,8.3V24.6z"/>
<path class="st5" d="M124.4,24.6h16.2"/>
<path class="st5" d="M70.2,16.5h68.2"/>
<path class="st7" d="M70.2,16.5L65,8.4v57.1l5.2,8.3V16.5z"/>
</svg>
