<?xml version="1.0" encoding="utf-8"?>
<!-- Generator: Adobe Illustrator 23.0.0, SVG Export Plug-In . SVG Version: 6.00 Build 0)  -->
<svg version="1.1" id="图层_1" xmlns="http://www.w3.org/2000/svg" xmlns:xlink="http://www.w3.org/1999/xlink" x="0px" y="0px"
	 viewBox="0 0 142.2 106.5" style="enable-background:new 0 0 142.2 106.5;" xml:space="preserve">
<style type="text/css">
	.st0{stroke:#000000;stroke-width:0.5;}
	.st1{fill:#7F7F7F;stroke:#000000;stroke-width:0.5;}
	.st2{fill:#B2B2B2;stroke:#000000;stroke-width:0.5;}
</style>
<path class="st0" d="M136.7,73.8V3H3v70.9H136.7z"/>
<path class="st1" d="M69.9,69.9V7H7v62.9H69.9z"/>
<path class="st2" d="M69.9,69.9l55.1,31.5v-63L69.9,7V69.9z"/>
<path class="st1" d="M132.8,38.3v6.4l-0.1,6.2l-0.3,6.1l-0.1,5.7l-0.4,5.5l-0.3,5.3l-0.6,4.8l-0.4,4.5l-0.6,4.1l-0.9,5.3l-1,4.1
	l-1.6,3.7l-1.1,1.3H125v-63l2.6-3.4l1.1-4l0.9-4.3l0.7-3.8l0.6-4.3l0.6-4.7l0.4-5.1l0.1-1.8h0.9V38.3z"/>
</svg>
