<?xml version="1.0" encoding="utf-8"?>
<!-- Generator: Adobe Illustrator 23.0.0, SVG Export Plug-In . SVG Version: 6.00 Build 0)  -->
<svg version="1.1" id="图层_1" xmlns="http://www.w3.org/2000/svg" xmlns:xlink="http://www.w3.org/1999/xlink" x="0px" y="0px"
	 viewBox="0 0 57.6 106.5" style="enable-background:new 0 0 57.6 106.5;" xml:space="preserve">
<style type="text/css">
	.st0{fill:#C0C0C0;stroke:#FFFFFF;stroke-width:0.5;stroke-linejoin:round;}
	.st1{stroke:#000000;stroke-width:0.5;stroke-linejoin:round;}
	.st2{fill:#7F7F7F;stroke:#000000;stroke-width:0.5;stroke-linejoin:round;}
	.st3{fill:#A50204;stroke:#000000;stroke-width:0.5;stroke-linejoin:round;}
	.st4{fill:#F85159;stroke:#000000;stroke-width:0.5;stroke-linejoin:round;}
	.st5{fill:none;stroke:#000000;stroke-width:0.5;stroke-linejoin:round;}
</style>
<path class="st0" d="M51.4,6.1L7.9,99.2l-3,3.2h49.7V3L51.4,6.1z"/>
<path class="st1" d="M7.9,99.2L51.4,6.1L54.6,3H4.9v99.4L7.9,99.2z"/>
<path class="st2" d="M7.9,99.2h43.5V6.1H7.9V99.2z"/>
<path class="st3" d="M45.2,102l6.1-3.7V47.7l-6.1,3.7H3V102H45.2z"/>
<path class="st3" d="M39.2,68.7l6-3.5V53l-6,3.5H3v12.2H39.2z"/>
<path class="st4" d="M39.2,56.6l6-3.5H9.1L3,56.6H39.2z"/>
<path class="st5" d="M39.2,56.6v12.2"/>
<path class="st3" d="M39.2,86.2l6-3.8v-12l-6,3.8H3v12H39.2z"/>
<path class="st4" d="M39.2,74.1l6-3.8H9.1L3,74.1H39.2z"/>
<path class="st5" d="M39.2,74.1v12"/>
<path class="st3" d="M39.2,103.5l6-3.8v-12l-6,3.8H3v12H39.2z"/>
<path class="st4" d="M39.2,91.4l6-3.8H9.1L3,91.4H39.2z"/>
<path class="st5" d="M39.2,91.4v12"/>
<path class="st5" d="M45.2,51.4V102"/>
<path class="st4" d="M45.2,51.4l6.1-3.7H9.1L3,51.4H45.2z"/>
</svg>
