<?xml version="1.0" encoding="utf-8"?>
<!-- Generator: Adobe Illustrator 23.0.0, SVG Export Plug-In . SVG Version: 6.00 Build 0)  -->
<svg version="1.1" id="图层_1" xmlns="http://www.w3.org/2000/svg" xmlns:xlink="http://www.w3.org/1999/xlink" x="0px" y="0px"
	 viewBox="0 0 64.7 106.5" style="enable-background:new 0 0 64.7 106.5;" xml:space="preserve">
<style type="text/css">
	.st0{fill:#7F7F7F;stroke:#000000;stroke-width:0.3698;}
	.st1{fill:#808080;stroke:#000000;stroke-width:0.3698;}
	.st2{fill:#FFFFFF;}
	.st3{fill:#FF0001;stroke:#000000;stroke-width:0.3698;}
</style>
<path class="st0" d="M19.7,40.4H2.8v63.2h16.9V40.4z"/>
<path class="st0" d="M61.9,40.4H45v63.2h16.9V40.4z"/>
<path d="M17.6,42.4H4.9v58.9h12.6V42.4z"/>
<path d="M59.8,42.4H47.1v58.9h12.6V42.4z"/>
<path class="st1" d="M28.2,36.1H7.1v35.8h8.5V44.5h33.6v27.3h8.5V36.1h-21V14.5h-8.5V36.1z"/>
<path class="st2" d="M30.7,38.8h-21v32.7H13V41.9h38.9v29.6h3.2V38.8H34v-20h-3.2V38.8z"/>
<circle class="st3" cx="32.5" cy="9.9" r="7.4"/>
<circle class="st2" cx="30.2" cy="7.7" r="2.3"/>
</svg>
