<?xml version="1.0" encoding="utf-8"?>
<!-- Generator: Adobe Illustrator 23.0.0, SVG Export Plug-In . SVG Version: 6.00 Build 0)  -->
<svg version="1.1" id="图层_1" xmlns="http://www.w3.org/2000/svg" xmlns:xlink="http://www.w3.org/1999/xlink" x="0px" y="0px"
	 viewBox="0 0 106.5 106.5" style="enable-background:new 0 0 106.5 106.5;" xml:space="preserve">
<style type="text/css">
	.st0{stroke:#000000;stroke-width:2;}
	.st1{fill:#E8E8E8;stroke:#000000;stroke-width:0.5;}
	.st2{stroke:#000000;stroke-width:0.5;}
	.st3{fill:none;stroke:#999999;stroke-width:0.5;}
	.st4{fill:none;stroke:#000000;stroke-width:0.5;}
	.st5{fill:#4D4D4D;}
	.st6{fill:#FFFFFF;stroke:#000000;stroke-width:0.5;}
</style>
<path class="st0" d="M104.8,103.2V3.2H4.8v100H104.8z"/>
<circle class="st1" cx="54.8" cy="53.2" r="50.2"/>
<circle class="st2" cx="54.8" cy="53.2" r="43"/>
<path class="st3" d="M104.8,19.6L88.2,3.2"/>
<path class="st3" d="M88.2,103.2l16.6-16.6"/>
<path class="st4" d="M13,61.6h-0.4"/>
<path class="st4" d="M12.6,44.8H13"/>
<path class="st3" d="M4.8,19.6L21.2,3.2"/>
<path class="st3" d="M21.2,103.2L4.8,86.6"/>
<path class="st5" d="M96.8,53.2l-1.2,10l-1.3,1.6l-2,0.4l-24.8-2H42.1l-25.1,2l-1.8-0.4L14,63.2l-1.2-10l1.2-9.8l1.3-1.8l1.8-0.4
	l25.1,2h25.4l24.8-2l2,0.4l1.1,1.6L96.8,53.2z"/>
<path class="st6" d="M34.4,48.9h0.1l0.1,0.1l0.3,0.1l1,0.3l0.7,0.6l0.9,0.7l0.2,0.9l0.3,1l0.1,1.1v0.1h-0.1v0.2l-0.3,1l-0.4,0.9
	l-0.9,0.7L35.7,57l0,0l-0.5,0.2l-1.1,0.2H16.2v-8.5h17.9H34.4z"/>
</svg>
