<?xml version="1.0" encoding="utf-8"?>
<!-- Generator: Adobe Illustrator 23.0.0, SVG Export Plug-In . SVG Version: 6.00 Build 0)  -->
<svg version="1.1" id="图层_1" xmlns="http://www.w3.org/2000/svg" xmlns:xlink="http://www.w3.org/1999/xlink" x="0px" y="0px"
	 viewBox="0 0 106.5 106.5" style="enable-background:new 0 0 106.5 106.5;" xml:space="preserve">
<style type="text/css">
	.st0{fill:#9A9A9A;stroke:#000000;stroke-width:0.5;}
	.st1{fill:#FFFFFF;stroke:#B2B2B2;stroke-width:0.5;}
	.st2{fill:#323232;stroke:#000000;stroke-width:0.5;}
	.st3{fill:#AC0003;stroke:#000000;stroke-width:0.5;}
	.st4{fill:#FF0000;stroke:#000000;stroke-width:0.5;}
	.st5{fill:none;stroke:#DC0000;stroke-width:0.5;}
</style>
<path class="st0" d="M84,93.5l9.6-9.6l6.6-11.5l3.4-12.5V46.5L100.2,34l-6.6-11.5L84,12.9L72.4,6.3L60,2.9H46.5L34.1,6.3l-11.5,6.6
	L13,22.5L6.3,34L2.9,46.5v13.4l3.4,12.5L13,83.9l9.6,9.6l11.5,6.6l12.5,3.4H60l12.5-3.4L84,93.5z"/>
<path class="st1" d="M22.2,77.4l45.4-60.7l23.7,10.3l-9.9-10.6l-8.8-6.1L60.7,7H48.5l-11.7,3.4l-10.3,5.9l-8.8,8.8l-6.1,10.3
	L8.3,47.2v12.3l3.2,12.2L17.5,82l8.8,8.4l12,5.1L22.2,77.4z"/>
<path class="st2" d="M84.1,93.5l9.5-9.5l6.6-11.5l3.4-12.8V46.5l-3.4-12.6l-34-20.8L16.6,71l30.2,32.5H60l12.6-3.4L84.1,93.5z"/>
<path class="st3" d="M77.1,84.8l7.6-7.5l5-9.1l2.7-9.6V48l-2.7-9.6l-5-9.1l-7.6-7.6l-9.1-5l-9.6-2.7H47.8l-9.6,2.7l-9.1,5l-7.5,7.6
	l-5.1,9.1L13.9,48v10.7l2.7,9.6l5.1,9.1l7.5,7.5l9.1,5.1l9.6,2.7h10.7l9.6-2.7L77.1,84.8z"/>
<path class="st4" d="M68.8,76.1L76,69l5.3-9.1l2.7-10V39.8l-2.7-10L76,20.7l-7.1-7.1l-9.1-5.3l-10-2.7H39.6l-10,2.7l-9.1,5.3
	l-7.1,7.1L8,29.7l-2.6,10v10.1l2.6,10l5.3,9.1l7.4,7.1l8.8,5.2l10,2.7h10.1l10-2.7L68.8,76.1z"/>
<path class="st5" d="M50.7,74.7l11-4.5l8.4-8.5l4.6-10.9v-12l-4.6-11l-8.4-8.5l-11.2-4.5H38.6l-11,4.5l-8.4,8.5L14.7,39v11.8
	l4.6,10.9l8.4,8.5l11.2,4.5H50.7"/>
<path class="st5" d="M49.7,70l9.3-3.7l7.1-7.1l3.8-9.3V39.8l-3.8-9.3L59,23.3l-9.5-3.8h-9.9l-9.3,3.8l-7.1,7.1l-3.8,9.4v10l3.8,9.3
	l7.1,7.1l9.5,3.7H49.7"/>
</svg>
