<?xml version="1.0" encoding="utf-8"?>
<!-- Generator: Adobe Illustrator 23.0.0, SVG Export Plug-In . SVG Version: 6.00 Build 0)  -->
<svg version="1.1" id="图层_1" xmlns="http://www.w3.org/2000/svg" xmlns:xlink="http://www.w3.org/1999/xlink" x="0px" y="0px"
	 viewBox="0 0 106.5 106.5" style="enable-background:new 0 0 106.5 106.5;" xml:space="preserve">
<style type="text/css">
	.st0{fill:#9A9A9A;stroke:#000000;stroke-width:0.5;}
	.st1{fill:#FFFFFF;stroke:#B2B2B2;stroke-width:0.5;}
	.st2{fill:#FD0100;stroke:#000000;stroke-width:0.5;}
	.st3{fill:none;stroke:#DC0000;stroke-width:0.5;}
	.st4{fill:none;stroke:#FFFFFF;stroke-width:0.5;}
</style>
<path class="st0" d="M83.8,93.5l9.7-9.7l6.5-11.5l3.4-12.4V46.5l-3.4-12.4l-6.5-11.5l-9.7-9.7L72.3,6.4L60,3H46.5L34.2,6.4
	l-11.5,6.5L13,22.6L6.4,34.1L3,46.5v13.4l3.4,12.4L13,83.8l9.7,9.7l11.5,6.5l12.4,3.4H60l12.4-3.4L83.8,93.5z"/>
<path class="st1" d="M22.2,77.4l45.4-60.7l23.6,10.3l-9.8-10.6l-8.8-6.1L60.7,7.1H48.5l-11.7,3.3l-10.3,5.9l-8.8,8.8l-6.1,10.4
	L8.3,47.2v12.3l3.2,12L17.5,82l8.8,8.4l12,5.1L22.2,77.4z"/>
<path class="st2" d="M77.2,84.5l7.2-7.1l5.2-9.1l2.7-9.9V48.2l-2.7-10l-5.2-9L77.2,22l-9-5.2l-10-2.7H48l-9.9,2.7L29.1,22l-7.1,7.2
	l-5.3,9l-2.7,10v10.2l2.7,9.9l5.3,9.1l7.4,7.1l8.8,5.3l9.9,2.7h10.2l10-2.7L77.2,84.5z"/>
<path class="st3" d="M59.2,83.3l10.9-4.5l8.5-8.5l4.5-11v-12l-4.5-10.9l-8.5-8.5L59,23.3H47.2l-11,4.5l-8.5,8.5l-4.5,11.1v11.8
	l4.5,11l8.5,8.5l11.1,4.5H59.2"/>
<path class="st3" d="M58.3,78.6l9.2-3.8l7.2-7.1l3.7-9.2V48.2L74.7,39l-7.2-7.2L58,28H48l-9.2,3.7L31.7,39l-3.8,9.4v10l3.8,9.2
	l7.1,7.1l9.4,3.8H58.3"/>
<path class="st4" d="M21.9,77.4l7.4,7.1l8.8,5.3l9.9,2.7h10.2l10-2.7l9-5.3l7.2-7.1l5.2-9.1l2.7-9.9V48.2l-2.7-10l-5.2-9"/>
</svg>
