<?xml version="1.0" encoding="utf-8"?>
<!-- Generator: Adobe Illustrator 23.0.0, SVG Export Plug-In . SVG Version: 6.00 Build 0)  -->
<svg version="1.1" id="图层_1" xmlns="http://www.w3.org/2000/svg" xmlns:xlink="http://www.w3.org/1999/xlink" x="0px" y="0px"
	 viewBox="0 0 144.7 78.6" style="enable-background:new 0 0 144.7 78.6;" xml:space="preserve">
<style type="text/css">
	.st0{fill:#C0C0C0;stroke:#FFFFFF;stroke-width:0.5;}
	.st1{stroke:#000000;stroke-width:0.5;}
	.st2{fill:#7F7F7F;stroke:#000000;stroke-width:0.5;}
	.st3{fill:#B10000;stroke:#000000;stroke-width:0.5;stroke-linecap:round;}
	.st4{fill:#FF544F;stroke:#000000;stroke-width:0.5;}
	.st5{fill:none;stroke:#000000;stroke-width:0.5;}
	.st6{fill:#CB696B;stroke:#000000;stroke-width:0.5;}
</style>
<path class="st0" d="M136.9,8.4L8.7,68l-4.1,4.4h136.5V4.1L136.9,8.4z"/>
<path class="st1" d="M9,68.3L136.9,8.4l4.4-4.4L4.6,4.1v68.3L9,68.3z"/>
<path class="st2" d="M136.9,68.3V8.4H9v59.9H136.9z"/>
<path class="st3" d="M83.3,16.8L78,8.7H9.3l5.2,8.1v57.7h68.7V16.8z"/>
<path class="st3" d="M38,25.1l-4.9-8.3H16.7l4.8,8.3v49.5H38V25.1z"/>
<path class="st4" d="M21.5,25.1l-4.8-8.3v49.3l4.8,8.4V25.1z"/>
<path class="st5" d="M21.5,25.1H38"/>
<path class="st3" d="M61.6,25.1l-4.9-8.3H40.2l5.2,8.3v49.5h16.2V25.1z"/>
<path class="st6" d="M45.4,25.1l-5.2-8.3v49.3l5.2,8.4V25.1z"/>
<path class="st5" d="M45.4,25.1h16.2"/>
<path class="st3" d="M85.4,25.1l-5.4-8.3H63.8l5.2,8.3v49.5h16.4V25.1z"/>
<path class="st6" d="M69,25.1l-5.2-8.3v49.3l5.2,8.4V25.1z"/>
<path class="st5" d="M69,25.1h16.4"/>
<path class="st5" d="M14.5,16.8h68.7"/>
<path class="st6" d="M14.5,16.8L9.3,8.7v57.4l5.2,8.4V16.8z"/>
</svg>
