<?xml version="1.0" encoding="utf-8"?>
<!-- Generator: Adobe Illustrator 23.0.0, SVG Export Plug-In . SVG Version: 6.00 Build 0)  -->
<svg version="1.1" id="图层_1" xmlns="http://www.w3.org/2000/svg" xmlns:xlink="http://www.w3.org/1999/xlink" x="0px" y="0px"
	 viewBox="0 0 64.7 106.5" style="enable-background:new 0 0 64.7 106.5;" xml:space="preserve">
<style type="text/css">
	.st0{fill:#7F7F7F;stroke:#000000;stroke-width:0.3698;}
	.st1{fill:#808080;stroke:#000000;stroke-width:0.3698;}
	.st2{fill:#FFFFFF;}
	.st3{fill:#FF0001;stroke:#000000;stroke-width:0.3698;}
</style>
<path class="st0" d="M45,65.9h16.9V2.7H45V65.9z"/>
<path class="st0" d="M2.8,65.9h16.9V2.7H2.8V65.9z"/>
<path d="M47.1,63.9h12.6V5H47.1V63.9z"/>
<path d="M4.9,63.9h12.6V5H4.9V63.9z"/>
<path class="st1" d="M36.5,70.2h21.1V34.4h-8.5v27.3H15.5V34.4H7.1v35.8h21v21.5h8.5V70.2z"/>
<path class="st2" d="M34,67.6h21V34.9h-3.2v29.6H12.9V34.9H9.6v32.7h21.1v20H34V67.6z"/>
<circle class="st3" cx="32.2" cy="96.4" r="7.4"/>
<circle class="st2" cx="34.5" cy="98.6" r="2.3"/>
</svg>
