

<svg xmlns:agg="http://www.example.com" xmlns="http://www.w3.org/2000/svg" width="0.9150in" height="1.4792in" viewBox="0 0 618 999">

<path style="fill:#ccc;stroke:#000;stroke-width:2" d="M303,320 l34,0 0,177 -34,0 0,-177z" />
<path style="fill:#fff" d="M314,320 l11,0 0,177 -11,0 0,-177z" />
<path style="fill:#999;stroke:#000;stroke-width:2" d="M125,573 l22,0 0,11 -22,0 0,-11z" />
<path style="fill:#999;stroke:#000;stroke-width:2" d="M181,347 l-92,0 0,65 92,0 0,-65z" />
<path style="fill:#999;stroke:#000;stroke-width:2" d="M286,286 l67,0 0,34 -67,0 0,-34z" />
<path style="fill:#999;stroke:#000;stroke-width:2" d="M231,347 l17,0 0,84 -17,0 0,-84z" />
<path style="fill:#4c4c4c;stroke:#000;stroke-width:2" d="M225,409 l0,-6 39,0 0,-100 114,0 0,6 -108,0 0,100 -45,0z" />
<path style="fill:#4c4c4c;stroke:#000;stroke-width:2" d="M286,534 l67,0 0,11 -67,0 0,-11z" />
<path style="fill:#4c4c4c;stroke:#000;stroke-width:2" d="M181,359 l72,0 0,11 -72,0 0,-11z" />
<path style="fill:#ccc;stroke:#000;stroke-width:2" d="M389,253 l45,0 0,94 -45,0 0,-94z" />
<path style="fill:#666;stroke:#000;stroke-width:2" d="M231,926 l181,0 0,44 -181,0 0,-44z" />
<path style="fill:#666;stroke:#000;stroke-width:2" d="M523,837 l0,78 -45,0 0,-78 45,0z" />
<path style="fill:#666;stroke:#000;stroke-width:2" d="M164,837 l0,78 -45,0 0,-78 45,0z" />
<path style="fill:#666;stroke:#000;stroke-width:2" d="M231,600 l181,0 0,45 -181,0 0,-45z" />
<path style="fill:#666;stroke:#000;stroke-width:2" d="M264,545 l114,0 0,33 -114,0 0,-33z" />
<path style="fill:#999;stroke:#000;stroke-width:2" d="M297,545 l56,0 0,33 -56,0 0,-33z" />
<path style="fill:#999;stroke:#000;stroke-width:2" d="M264,600 l89,0 0,45 -89,0 0,-45z" />
<path style="fill:#999;stroke:#000;stroke-width:2" d="M523,748 l0,89 -45,0 0,-89 45,0z" />
<path style="fill:#999;stroke:#000;stroke-width:2" d="M164,748 l0,89 -45,0 0,-89 45,0z" />
<path style="fill:#999;stroke:#000;stroke-width:2" d="M281,926 l91,0 0,44 -91,0 0,-44z" />
<path style="fill:#00f;stroke:#000;stroke-width:2" d="M186,286 l11,-23 25,-17 14,-7 32,3 30,0 11,0 0,33 -73,0 -22,17 0,264 28,17 170,0 16,-28 0,-253 -22,-17 -75,0 0,-33 1,-2 11,-1 5,-1 7,0 34,1 17,0 23,12 21,20 5,7 1,8 0,12 0,269 -14,25 -22,8 -8,0 -12,0 -169,0 -31,-8 -13,-17 -1,-8 0,-12 0,-269z" />
<path style="fill:#b2b2b2;stroke:#000;stroke-width:2" d="M297,501 l48,0 0,33 -48,0 0,-33z" />
<path style="fill:#0000e5;stroke:#000;stroke-width:2" d="M50,139 l539,0 0,22 -539,0 0,-22z" />
<path style="fill:#00f;stroke:#000;stroke-width:2" d="M545,94 l0,13 0,7 0,2 0,10 0,13 -1,0 -446,0 -1,0 0,-13 0,-32 18,-21 4,-1 13,0 391,0 22,18 0,4z" />
<path style="fill:#00c;stroke:#000;stroke-width:2" d="M97,231 l0,-13 0,-7 0,-2 0,-10 0,-13 1,0 446,0 1,0 0,13 0,32 -18,21 -4,1 -13,0 -391,0 -21,-18 -1,-4z" />
<path style="fill:#00c;stroke:#000;stroke-width:2" d="M50,161 l539,0 0,25 -539,0 0,-25z" />
<path style="fill:#4c4cff;stroke:#000;stroke-width:2" d="M61,139 l22,0 0,-11 -22,0 0,11z" />
<path style="fill:#4c4cff;stroke:#000;stroke-width:2" d="M556,139 l22,0 0,-11 -22,0 0,11z" />
<path style="fill:#4c4cff;stroke:#000;stroke-width:2" d="M309,139 l22,0 0,-11 -22,0 0,11z" />
<path style="fill:#4c4cff;stroke:#000;stroke-width:2" d="M142,139 l22,0 0,-11 -22,0 0,11z" />
<path style="fill:#4c4cff;stroke:#000;stroke-width:2" d="M220,139 l22,0 0,-11 -22,0 0,11z" />
<path style="fill:#4c4cff;stroke:#000;stroke-width:2" d="M400,139 l22,0 0,-11 -22,0 0,11z" />
<path style="fill:#4c4cff;stroke:#000;stroke-width:2" d="M478,139 l23,0 0,-11 -23,0 0,11z" />
<path style="fill:#00c;stroke:#000;stroke-width:2" d="M61,197 l25,0 0,-11 -25,0 0,11z" />
<path style="fill:#00c;stroke:#000;stroke-width:2" d="M556,197 l25,0 0,-11 -25,0 0,11z" />
<path style="fill:#00c;stroke:#000;stroke-width:2" d="M309,197 l25,0 0,-11 -25,0 0,11z" />
<path style="fill:#00c;stroke:#000;stroke-width:2" d="M139,197 l25,0 0,-11 -25,0 0,11z" />
<path style="fill:#00c;stroke:#000;stroke-width:2" d="M220,197 l25,0 0,-11 -25,0 0,11z" />
<path style="fill:#00c;stroke:#000;stroke-width:2" d="M400,197 l22,0 0,-11 -22,0 0,11z" />
<path style="fill:#00c;stroke:#000;stroke-width:2" d="M478,197 l23,0 0,-11 -23,0 0,11z" />
<path style="fill:#00c;stroke:#000;stroke-width:2" d="M275,253 l89,0 0,33 -89,0 0,-33z" />
<path style="fill:#999" d="M231,645 l181,0 0,33 -181,0 0,-33z" />
<path style="fill:#b2b2b2" d="M248,645 l147,0 0,33 -147,0 0,-33z" />
<path style="fill:#ccc" d="M270,645 l102,0 0,33 -102,0 0,-33z" />
<path style="fill:#e5e5e5" d="M292,645 l55,0 0,33 -55,0 0,-33z" />
<path style="fill:#fff" d="M314,645 l11,0 0,33 -11,0 0,-33z" />
<path style="fill:none;stroke:#000;stroke-width:2" d="M231,645 l181,0 0,33 -181,0 0,-33" />
<path style="fill:#b2b2b2;stroke:#000;stroke-width:2" d="M89,484 l0,17 11,0 0,-6 70,0 0,6 11,0 0,-17 -92,0z" />
<path style="fill:#b2b2b2;stroke:#000;stroke-width:2" d="M100,495 l70,0 0,78 -70,0 0,-78z" />
<path style="fill:#b2b2b2;stroke:#000;stroke-width:2" d="M231,678 l0,23 -11,11 -45,0 -11,-11 0,203 11,-11 45,0 11,11 0,22 181,0 0,-22 10,-11 45,0 11,11 0,-203 -11,11 -45,0 -10,-11 0,-23 -181,0z" />
<path style="fill:#ccc;stroke:#000;stroke-width:2" d="M523,689 l0,59 -45,0 0,-59 45,0z" />
<path style="fill:#ccc;stroke:#000;stroke-width:2" d="M164,689 l0,59 -45,0 0,-59 45,0z" />
<path style="fill:#999" d="M170,837 l61,0 0,50 -61,0 0,-50z" />
<path style="fill:#999" d="M236,893 l170,0 0,27 -170,0 0,-27z" />
<path style="fill:#999" d="M400,881 l-3,-12 -1,-9 -1,-10 -2,-10 0,-10 -1,-11 0,-10 0,-17 0,-11 1,-11 1,-10 1,-10 1,-9 2,-9 1,-5 1,-4 -4,1 -8,2 -9,2 -10,2 -10,1 -11,1 -11,1 -12,1 -11,0 -10,-1 -11,-1 -10,-1 -11,-1 -9,-2 -9,-2 -8,-2 -4,-1 1,4 2,9 1,9 2,10 1,10 0,11 1,11 0,11 0,16 0,11 -1,10 -1,10 -1,10 -1,10 -2,8 -1,4 -1,4 4,-1 8,-2 9,-1 9,-1 11,-2 10,0 11,-1 10,0 17,0 11,0 11,1 11,1 10,1 10,1 8,2 8,2z" />
<path style="fill:#999" d="M412,837 l61,0 0,50 -61,0 0,-50z" />
<path style="fill:#666;stroke:#000;stroke-width:2" d="M412,303 l7,3 3,8 -3,8 -7,3 -8,-3 -4,-8 4,-8 8,-3z" />
<path style="fill:#666;stroke:#000;stroke-width:2" d="M181,412 l-92,0 0,72 92,0 0,-72z" />
<path style="fill:#ffedcc;stroke:#000;stroke-width:2" d="M142,347 l-21,-32 -15,-23 -16,-23 -15,-23 -17,-30 -8,-30 0,-96 11,-23 28,-10 30,-1 139,0 39,0 0,-23 -4,0 -4,0 -5,0 -170,0 -27,2 -30,8 -23,18 -6,16 0,6 0,7 0,107 11,32 15,29 18,27 18,26 18,27 6,9 3,0 25,0z" />
<path style="fill:#c93;stroke:#000;stroke-width:2" d="M342,72 l0,-44 -45,0 0,33 12,0 0,11 33,0z" />
<path style="fill:#c93;stroke:#000;stroke-width:2" d="M286,28 l-28,0 0,33 28,0 0,-33z" />
<path style="fill:none;stroke:#000;stroke-width:2" d="M309,61 l11,-11" />
<path style="fill:none;stroke:#000;stroke-width:2" d="M412,303 l0,22" />

</svg>
