<?xml version="1.0" encoding="utf-8"?>
<!-- Generator: Adobe Illustrator 19.0.0, SVG Export Plug-In . SVG Version: 6.00 Build 0)  -->
<svg version="1.1" id="图层_1" xmlns="http://www.w3.org/2000/svg" xmlns:xlink="http://www.w3.org/1999/xlink" x="0px" y="0px"
	 viewBox="0 1.2 106.9 106.5" style="enable-background:new 0 1.2 106.9 106.5;" xml:space="preserve">
<style type="text/css">
	.st0{fill:#329932;}
	.st1{fill:#98CB98;}
	.st2{fill:none;stroke:#000000;stroke-width:0.25;}
	.st3{fill:url(#SVGID_1_);}
	.st4{fill:url(#SVGID_2_);}
	.st5{fill:#006600;}
	.st6{fill:url(#SVGID_3_);}
	.st7{fill:none;stroke:#000000;stroke-width:0.5;stroke-linejoin:round;}
	.st8{fill:none;stroke:#4C4C4C;stroke-width:2;}
	.st9{fill:none;stroke:#B2B2B2;stroke-width:2;}
</style>
<path class="st0" d="M93.7,16.2L88,22.1l11.5,11.7l5.9-5.8L93.7,16.2z"/>
<path class="st1" d="M93.7,16.2L88,22.1L76.3,10.5l5.8-5.8L93.7,16.2z"/>
<path class="st2" d="M76.3,10.5l23.1,23.2l5.9-5.8L82.1,4.7L76.3,10.5z"/>
<linearGradient id="SVGID_1_" gradientUnits="userSpaceOnUse" x1="52.7" y1="4.14" x2="52.7" y2="41.74" gradientTransform="matrix(1 0 0 -1 0 110.16)">
	<stop  offset="0" style="stop-color:#007F00"/>
	<stop  offset="0.5" style="stop-color:#FFFFFF"/>
	<stop  offset="1" style="stop-color:#007F00"/>
</linearGradient>
<polygon class="st3" points="101.9,68.6 101.9,106 3.5,106 3.5,68.4 "/>
<linearGradient id="SVGID_2_" gradientUnits="userSpaceOnUse" x1="68.325" y1="42.765" x2="42.375" y2="68.7151" gradientTransform="matrix(1 0 0 -1 0 110.16)">
	<stop  offset="0" style="stop-color:#007F00"/>
	<stop  offset="0.5" style="stop-color:#FFFFFF"/>
	<stop  offset="1" style="stop-color:#007F00"/>
</linearGradient>
<polygon class="st4" points="15.4,68.4 75.9,7.9 101.9,33.8 66.1,69.6 21.7,87.9 "/>
<path class="st5" d="M85.5,68.8h-1.1v37.1h1.1V68.8z"/>
<path class="st5" d="M13.7,68.6h-1V106h1V68.6z"/>
<linearGradient id="SVGID_3_" gradientUnits="userSpaceOnUse" x1="53.85" y1="4.1158" x2="53.85" y2="10.3158" gradientTransform="matrix(1 0 0 -1 0 110.16)">
	<stop  offset="0" style="stop-color:#003300"/>
	<stop  offset="0.5" style="stop-color:#008000"/>
	<stop  offset="1" style="stop-color:#003300"/>
</linearGradient>
<path class="st6" d="M62,106l-8.2-6.2l-8.1,6.2H62z"/>
<path class="st5" d="M59.8,24.2l-0.7,0.7L85,50.6l0.6-0.5L59.8,24.2z"/>
<g>
	<path class="st7" d="M97.1,38.5l-0.5-9.7l-10-0.5L86,18.2l-9.7-0.5L75.8,8"/>
	<path class="st7" d="M71.1,12.6l9.8,0.5l0.5,10.1l10,0.5l0.5,9.8l9.4,0.5"/>
	<polyline class="st7" points="78.7,20.3 88.4,20.8 89,30.9 99.2,31.4 99.5,36.1 94.6,35.8 94.1,26.4 84,25.9 83.4,15.6 73.8,15 
		73.5,10.3 78.2,10.6 78.7,20.3 88.4,20.8 89,30.9 99.2,31.4 99.5,36.1 94.6,35.8 94.1,26.4 84,25.9 83.4,15.6 73.8,15 73.5,10.3 
		78.2,10.6 	"/>
</g>
<path class="st8" d="M6.3,84.2c1.7-1.7,4.4-1.7,6.1,0s1.7,4.4,0,6.1"/>
<path class="st9" d="M12.4,90.3C10.7,92,8,92,6.3,90.3s-1.7-4.4,0-6.1"/>
<polygon class="st2" points="15.4,68.4 75.9,7.9 101.9,33.8 67,68.6 101.9,68.6 101.9,106 3.5,106 3.5,68.4 "/>
<path class="st8" d="M75.3,28.3c1.7-1.7,4.4-1.7,6.1,0s1.7,4.4,0,6.1"/>
<path class="st9" d="M81.4,34.4c-1.7,1.7-4.4,1.7-6.1,0s-1.7-4.4,0-6.1"/>
<path class="st8" d="M91.6,84.8c1.7-1.7,4.4-1.7,6.1,0s1.7,4.4,0,6.1"/>
<path class="st9" d="M97.7,90.9c-1.7,1.7-4.4,1.7-6.1,0s-1.7-4.4,0-6.1"/>
<line class="st2" x1="71" y1="12.9" x2="96.9" y2="38.8"/>
</svg>
