<?xml version="1.0" encoding="utf-8"?>
<!-- Generator: Adobe Illustrator 19.0.0, SVG Export Plug-In . SVG Version: 6.00 Build 0)  -->
<svg version="1.1" id="图层_1" xmlns="http://www.w3.org/2000/svg" xmlns:xlink="http://www.w3.org/1999/xlink" x="0px" y="0px"
	 viewBox="0 1.2 106.5 106.5" style="enable-background:new 0 1.2 106.5 106.5;" xml:space="preserve">
<style type="text/css">
	.st0{fill:url(#SVGID_1_);stroke:#000000;stroke-width:0.25;}
	.st1{fill:url(#SVGID_2_);stroke:#000000;stroke-width:0.25;}
	.st2{fill:url(#SVGID_3_);stroke:#000000;stroke-width:0.25;}
	.st3{fill:url(#SVGID_4_);stroke:#000000;stroke-width:0.25;}
	.st4{fill:#329932;stroke:#000000;stroke-width:0.25;}
	.st5{fill:#CAE4CA;stroke:#000000;stroke-width:0.25;}
</style>
<g>
	
		<linearGradient id="SVGID_1_" gradientUnits="userSpaceOnUse" x1="88.9863" y1="33.9138" x2="139.1863" y2="33.9138" gradientTransform="matrix(4.489659e-011 1 1 -4.489659e-011 19.3862 -41.7663)">
		<stop  offset="0" style="stop-color:#007F00"/>
		<stop  offset="0.5" style="stop-color:#FFFFFF"/>
		<stop  offset="1" style="stop-color:#007F00"/>
	</linearGradient>
	<rect x="19.6" y="47.2" class="st0" width="67.4" height="50.2"/>
	
		<linearGradient id="SVGID_2_" gradientUnits="userSpaceOnUse" x1="80.4863" y1="75.7638" x2="147.5863" y2="75.7638" gradientTransform="matrix(4.489659e-011 1 1 -4.489659e-011 19.3862 -41.7663)">
		<stop  offset="0" style="stop-color:#007F00"/>
		<stop  offset="0.5" style="stop-color:#FFFFFF"/>
		<stop  offset="1" style="stop-color:#007F00"/>
	</linearGradient>
	<rect x="86.8" y="38.7" class="st1" width="16.7" height="67.1"/>
	
		<linearGradient id="SVGID_3_" gradientUnits="userSpaceOnUse" x1="80.4863" y1="-8.0362" x2="147.5863" y2="-8.0362" gradientTransform="matrix(4.489659e-011 1 1 -4.489659e-011 19.3862 -41.7663)">
		<stop  offset="0" style="stop-color:#007F00"/>
		<stop  offset="0.5" style="stop-color:#FFFFFF"/>
		<stop  offset="1" style="stop-color:#007F00"/>
	</linearGradient>
	<rect x="3" y="38.7" class="st2" width="16.7" height="67.1"/>
	
		<linearGradient id="SVGID_4_" gradientUnits="userSpaceOnUse" x1="78.0375" y1="25.5613" x2="78.0375" y2="42.2913" gradientTransform="matrix(4.489659e-011 1 1 -4.489659e-011 19.3862 -41.7663)">
		<stop  offset="0" style="stop-color:#007F00"/>
		<stop  offset="0.5" style="stop-color:#FFFFFF"/>
		<stop  offset="1" style="stop-color:#007F00"/>
	</linearGradient>
	<path class="st3" d="M61.7,46.3c0-0.2,0-0.3,0-0.5V19.5H44.9v26.7l0,0l0,0c0,3.8,3.7,6.8,8.4,6.8C57.9,53.1,61.7,50.1,61.7,46.3z"
		/>
	<path class="st4" d="M86.8,17.7v-7.4H19.9v7.4c0,2.2,15,4,33.5,4C71.8,21.7,86.8,19.9,86.8,17.7z"/>
	<ellipse class="st5" cx="53.3" cy="9.5" rx="33.4" ry="4"/>
</g>
</svg>
