<svg xmlns="http://www.w3.org/2000/svg" xmlns:xlink="http://www.w3.org/1999/xlink" viewBox="0 0 149.01 86.68">
    <defs>
        <style>
            .cls-1 {
                fill: #4d5d5f;
            }

            .cls-2,
            .cls-6,
            .cls-8,
            .cls-9 {
                fill: none;
                stroke-miterlimit: 10;
            }

            .cls-2,
            .cls-6,
            .cls-9 {
                stroke: #b6aba1;
            }

            .cls-2 {
                stroke-width: 0.25px;
            }

            .cls-3 {
                fill: #b6aba1;
            }

            .cls-4 {
                fill: url(#未命名的渐变_50);
            }

            .cls-5 {
                fill: url(#未命名的渐变_44);
            }

            .cls-6 {
                stroke-width: 0.5px;
            }

            .cls-7 {
                fill: url(#未命名的渐变_49);
            }

            .cls-8 {
                stroke: #4f5d5f;
                stroke-width: 6px;
            }

            .cls-9 {
                stroke-width: 2px;
            }

            .cls-10 {
                fill: url(#未命名的渐变_43);
            }

            .cls-11 {
                fill: url(#未命名的渐变_43-2);
            }

            .cls-12 {
                fill: url(#未命名的渐变_44-2);
            }

            .cls-13 {
                fill: url(#未命名的渐变_46);
            }

            .cls-14 {
                fill: url(#未命名的渐变_50-2);
            }

            .cls-15 {
                fill: url(#未命名的渐变_47);
            }

            .cls-16 {
                fill: url(#未命名的渐变_45);
            }

            .cls-17 {
                fill: url(#未命名的渐变_49-2);
            }

            .cls-18 {
                fill: url(#未命名的渐变_44-3);
            }

            .cls-19 {
                opacity: 0.2;
            }

            .cls-20 {
                fill: #040000;
            }
        </style>
        <linearGradient id="未命名的渐变_50" x1="83.71" y1="73.29" x2="94.62" y2="66.1"
            gradientTransform="matrix(-0.48, -0.47, 0.7, -0.71, 60.61, 147.28)" gradientUnits="userSpaceOnUse">
            <stop offset="0.3" stop-color="#4d5d5f" />
            <stop offset="0.38" stop-color="#7f9199" />
            <stop offset="0.47" stop-color="#a9bdcb" />
            <stop offset="0.51" stop-color="#b9cede" />
        </linearGradient>
        <linearGradient id="未命名的渐变_44" x1="45.17" y1="42.7" x2="45.93" y2="43.4"
            gradientTransform="translate(-4.29 4.79) rotate(-5.94)" gradientUnits="userSpaceOnUse">
            <stop offset="0" stop-color="#4d5d5f" />
            <stop offset="0.35" stop-color="#7f9199" />
            <stop offset="0.69" stop-color="#a9bdcb" />
            <stop offset="0.86" stop-color="#b9cede" />
        </linearGradient>
        <linearGradient id="未命名的渐变_49" x1="90.73" y1="12.43" x2="117.56" y2="4.16" gradientUnits="userSpaceOnUse">
            <stop offset="0.19" stop-color="#4d5d5f" />
            <stop offset="0.42" stop-color="#7f9199" />
            <stop offset="0.64" stop-color="#a9bdcb" />
            <stop offset="0.74" stop-color="#b9cede" />
        </linearGradient>
        <linearGradient id="未命名的渐变_43" x1="49.01" y1="14.64" x2="51.35" y2="13.82"
            gradientTransform="translate(7.4 -15.6) rotate(19.06)" gradientUnits="userSpaceOnUse">
            <stop offset="0" stop-color="#4d5d5f" />
            <stop offset="0.41" stop-color="#7f9199" />
            <stop offset="0.81" stop-color="#a9bdcb" />
            <stop offset="1" stop-color="#b9cede" />
        </linearGradient>
        <linearGradient id="未命名的渐变_43-2" x1="34.95" y1="3.33" x2="59.8" y2="3.33"
            gradientTransform="matrix(1, 0, 0, 1, 0, 0)" xlink:href="#未命名的渐变_43" />
        <linearGradient id="未命名的渐变_44-2" x1="107.27" y1="39.56" x2="110.15" y2="37.95"
            gradientTransform="matrix(1, 0, 0, 1, 0, 0)" xlink:href="#未命名的渐变_44" />
        <linearGradient id="未命名的渐变_46" x1="52.22" y1="48.17" x2="70.66" y2="41.91"
            gradientTransform="translate(-2.42 3.34) rotate(-3.1)" gradientUnits="userSpaceOnUse">
            <stop offset="0.36" stop-color="#4d5d5f" />
            <stop offset="0.48" stop-color="#7f9199" />
            <stop offset="0.59" stop-color="#a9bdcb" />
            <stop offset="0.64" stop-color="#b9cede" />
        </linearGradient>
        <linearGradient id="未命名的渐变_50-2" x1="73.55" y1="32.75" x2="98.01" y2="52.92"
            gradientTransform="matrix(1, 0, 0, 1, 0, 0)" xlink:href="#未命名的渐变_50" />
        <linearGradient id="未命名的渐变_47" x1="73.96" y1="13.19" x2="80.95" y2="51.42" gradientUnits="userSpaceOnUse">
            <stop offset="0.16" stop-color="#4d5d5f" />
            <stop offset="0.19" stop-color="#7f9199" />
            <stop offset="0.22" stop-color="#a9bdcb" />
            <stop offset="0.24" stop-color="#b9cede" />
        </linearGradient>
        <linearGradient id="未命名的渐变_45" x1="92.8" y1="15.74" x2="98.2" y2="12.93" gradientUnits="userSpaceOnUse">
            <stop offset="0.31" stop-color="#4d5d5f" />
            <stop offset="0.46" stop-color="#7f9199" />
            <stop offset="0.61" stop-color="#a9bdcb" />
            <stop offset="0.68" stop-color="#b9cede" />
        </linearGradient>
        <linearGradient id="未命名的渐变_49-2" x1="93.4" y1="22" x2="103.62" y2="18.85" xlink:href="#未命名的渐变_49" />
        <linearGradient id="未命名的渐变_44-3" x1="43.57" y1="41.4" x2="44.33" y2="42.11"
            gradientTransform="matrix(1, 0, 0, 1, 0, 0)" xlink:href="#未命名的渐变_44" />
    </defs>
    <title>bicycle（自行车)</title>
    <g id="图层_2" data-name="图层 2">
        <g id="图层_35" data-name="图层 35">
            <g id="bicycle_自行车_" data-name="bicycle（自行车)">
                <rect class="cls-1" x="69.49" y="48.6" width="7.17" height="2.05" rx="0.4" />
                <rect class="cls-2" x="69.87" y="48.94" width="6.44" height="1.34" rx="0.23" />
                <circle class="cls-3" cx="71.01" cy="49.61" r="0.42" />
                <circle class="cls-3" cx="72.39" cy="49.61" r="0.42" />
                <circle class="cls-3" cx="73.78" cy="49.61" r="0.42" />
                <circle class="cls-3" cx="75.17" cy="49.61" r="0.42" />
                <path class="cls-4"
                    d="M70.27,48.52h0a1.1,1.1,0,0,1,.49,1.29L66.89,62a1.92,1.92,0,0,1-1.75,1.33h0c-.54,0-.8-.54-.6-1.16l4.12-13A1.1,1.1,0,0,1,70.27,48.52Z" />
                <path class="cls-5"
                    d="M32.86,60.66a.91.91,0,0,1-.68-.19A1,1,0,0,1,32,59.12L57.53,25.58a1,1,0,1,1,1.52,1.17L33.53,60.29A.93.93,0,0,1,32.86,60.66Z" />
                <rect class="cls-6" x="115.97" y="30.25" width="7.24" height="54.53"
                    transform="translate(32.03 -42.21) rotate(23.03)" />
                <rect class="cls-6" x="115.97" y="30.25" width="7.24" height="54.53"
                    transform="matrix(0.37, 0.93, -0.93, 0.37, 128.19, -74.92)" />
                <rect class="cls-6" x="115.97" y="30.25" width="7.24" height="54.53"
                    transform="translate(219.31 -30.05) rotate(113.03)" />
                <rect class="cls-6" x="115.97" y="30.25" width="7.24" height="54.53"
                    transform="translate(252.02 66.1) rotate(158.03)" />
                <rect class="cls-6" x="115.97" y="30.25" width="7.24" height="54.53" />
                <rect class="cls-6" x="115.97" y="30.25" width="7.24" height="54.53"
                    transform="translate(75.69 -67.72) rotate(45)" />
                <rect class="cls-6" x="115.97" y="30.25" width="7.24" height="54.53"
                    transform="translate(177.11 -62.09) rotate(90)" />
                <rect class="cls-6" x="115.97" y="30.25" width="7.24" height="54.53"
                    transform="translate(244.83 13.61) rotate(135)" />
                <rect class="cls-6" x="25.71" y="30.07" width="7.24" height="54.53"
                    transform="translate(24.77 -6.91) rotate(23.03)" />
                <rect class="cls-6" x="25.71" y="30.07" width="7.24" height="54.53"
                    transform="translate(71.53 8.68) rotate(68.03)" />
                <rect class="cls-6" x="25.71" y="30.07" width="7.24" height="54.53"
                    transform="translate(93.57 52.76) rotate(113.03)" />
                <rect class="cls-6" x="25.71" y="30.07" width="7.24" height="54.53"
                    transform="translate(77.98 99.52) rotate(158.03)" />
                <rect class="cls-6" x="25.71" y="30.07" width="7.24" height="54.53" />
                <rect class="cls-6" x="25.71" y="30.07" width="7.24" height="54.53"
                    transform="translate(49.13 -3.95) rotate(45)" />
                <rect class="cls-6" x="25.71" y="30.07" width="7.24" height="54.53"
                    transform="translate(86.66 28) rotate(90)" />
                <rect class="cls-6" x="25.71" y="30.07" width="7.24" height="54.53"
                    transform="translate(90.61 77.13) rotate(135)" />
                <path class="cls-7"
                    d="M111.06.85h0A1.6,1.6,0,0,0,109.54,2l-1,3A6,6,0,0,1,105,8.72l-9.27,3.56a1.59,1.59,0,0,0-.92,2.07l.23.59a1.6,1.6,0,0,0,2.07.93l10-3.84a6.76,6.76,0,0,0,4-4.28l1.51-4.81A1.61,1.61,0,0,0,111.06.85Z" />
                <circle class="cls-8" cx="29.33" cy="57.33" r="26.33" />
                <circle class="cls-9" cx="29.33" cy="57.33" r="26.33" />
                <circle class="cls-8" cx="119.67" cy="57.34" r="26.33" />
                <circle class="cls-1" cx="29.33" cy="57.33" r="7.42" />
                <circle class="cls-3" cx="29.33" cy="57.33" r="5.92" />
                <line class="cls-1" x1="53.8" y1="24.72" x2="46.55" y2="3.74" />
                <rect class="cls-10" x="48.73" y="3.13" width="2.89" height="22.2"
                    transform="translate(-1.9 17.16) rotate(-19.06)" />
                <path class="cls-11"
                    d="M59.8,2.41c0,.78-6.36,1-10.21,2.1-3.26.92-4.54,2-6.84,2.12A7.26,7.26,0,0,1,35,.13c0-.51,5.67.64,11.6.64S59.8,1,59.8,2.41Z" />
                <line class="cls-1" x1="94.27" y1="12.67" x2="98.11" y2="18.81" />
                <circle class="cls-9" cx="119.67" cy="57.34" r="26.33" />
                <path class="cls-12"
                    d="M121.08,60.53h0a2.69,2.69,0,0,1-3.75-.92L94.4,18.05l4.83.66L122,56.86A2.7,2.7,0,0,1,121.08,60.53Z" />
                <path class="cls-13" d="M72,66.1l-6.22.6L50.51,24.87a.86.86,0,0,1,.6-1.13L56,22.63l1.51,3.69Z" />
                <polygon class="cls-14"
                    points="98.54 26.59 98.17 26.67 98.16 26.66 71.36 60.67 66.84 57.06 95.61 21.1 98.54 26.59" />
                <polygon class="cls-15" points="94.82 19.36 57.42 26.15 55.96 22.63 93.26 15.98 94.82 19.36" />
                <path class="cls-16"
                    d="M95.82,18.31l-3.08-4.92a1.44,1.44,0,0,1,.46-2h0a1.44,1.44,0,0,1,2,.46l3.08,4.91Z" />
                <polygon class="cls-17" points="103.66 24.29 98.15 26.66 92.87 16.05 98.42 14.68 103.66 24.29" />
                <path class="cls-18"
                    d="M29.57,58.12a1,1,0,0,1-.7-1.62L57.73,25.78a1,1,0,0,1,1.4,1.32L30.26,57.82A1,1,0,0,1,29.57,58.12Z" />
                
            </g>
        </g>
    </g>
</svg>