<svg xmlns="http://www.w3.org/2000/svg" viewBox="0 0 150 59.98">
    <defs>
        <style>
            .cls-1 {
                fill: #a0a0a0;
            }

            .cls-2 {
                fill: #717070;
            }

            .cls-3 {
                fill: #666767;
            }

            .cls-4 {
                fill: #dadae0;
            }

            .cls-5 {
                fill: #6d6b6b;
            }

            .cls-6 {
                opacity: 0.2;
            }

            .cls-7 {
                fill: #040000;
            }
        </style>
    </defs>
    <title>boxcar（货车车厢）</title>
    <g id="图层_2" data-name="图层 2">
        <g id="图层_35" data-name="图层 35">
            <g id="boxcar_货车车厢_" data-name="boxcar（货车车厢）">
                <circle class="cls-1" cx="12.93" cy="52.49" r="7.49" />
                <circle class="cls-2" cx="12.93" cy="52.49" r="6.49" />
                <circle class="cls-1" cx="12.93" cy="52.49" r="5.91" />
                <circle class="cls-2" cx="12.93" cy="52.49" r="2.6" />
                <circle class="cls-1" cx="12.93" cy="52.49" r="2.22" />
                <circle class="cls-3" cx="12.93" cy="52.49" r="2.03" />
                <circle class="cls-1" cx="33.95" cy="52.49" r="7.49" />
                <circle class="cls-2" cx="33.95" cy="52.49" r="6.49" />
                <circle class="cls-1" cx="33.95" cy="52.49" r="5.91" />
                <circle class="cls-2" cx="33.95" cy="52.49" r="2.6" />
                <circle class="cls-1" cx="33.95" cy="52.49" r="2.22" />
                <circle class="cls-3" cx="33.95" cy="52.49" r="2.03" />
                <circle class="cls-1" cx="117.97" cy="52.49" r="7.49" />
                <circle class="cls-2" cx="117.97" cy="52.49" r="6.49" />
                <circle class="cls-1" cx="117.97" cy="52.49" r="5.91" />
                <circle class="cls-2" cx="117.97" cy="52.49" r="2.6" />
                <circle class="cls-1" cx="117.97" cy="52.49" r="2.22" />
                <circle class="cls-3" cx="117.97" cy="52.49" r="2.03" />
                <circle class="cls-1" cx="138.99" cy="52.49" r="7.49" />
                <circle class="cls-2" cx="138.99" cy="52.49" r="6.49" />
                <circle class="cls-1" cx="138.99" cy="52.49" r="5.91" />
                <circle class="cls-2" cx="138.99" cy="52.49" r="2.6" />
                <circle class="cls-1" cx="138.99" cy="52.49" r="2.22" />
                <circle class="cls-3" cx="138.99" cy="52.49" r="2.03" />
                <rect class="cls-4" width="150" height="48.57" />
                <rect class="cls-1" y="3" width="150" height="1" />
                <rect class="cls-1" y="45" width="150" height="1" />
                <rect class="cls-1" x="55" y="4" width="1" height="41.26" />
                <rect class="cls-1" x="37" y="4" width="1" height="41.26" />
                <rect class="cls-1" x="19" y="4" width="1" height="41.26" />
                <rect class="cls-1" x="1" y="4" width="1" height="41.26" />
                <rect class="cls-1" x="95" y="4" width="1" height="41.26" />
                <rect class="cls-1" x="56" y="12" width="40" height="1" />
                <rect class="cls-1" x="56" y="20" width="40" height="1" />
                <rect class="cls-1" x="56" y="28" width="40" height="1" />
                <rect class="cls-1" x="56" y="36" width="40" height="1" />
                <rect class="cls-1" x="39" y="5" width="15" height="7" />
                <rect class="cls-1" x="39" y="13" width="15" height="7" />
                <rect class="cls-1" x="39" y="21" width="15" height="7" />
                <rect class="cls-1" x="39" y="29" width="15" height="7" />
                <rect class="cls-1" x="39" y="37" width="15" height="7" />
                <rect class="cls-1" x="21" y="5" width="15" height="7" />
                <rect class="cls-1" x="21" y="13" width="15" height="7" />
                <rect class="cls-1" x="21" y="21" width="15" height="7" />
                <rect class="cls-1" x="21" y="29" width="15" height="7" />
                <rect class="cls-1" x="21" y="37" width="15" height="7" />
                <rect class="cls-1" x="3" y="5" width="15" height="7" />
                <rect class="cls-1" x="3" y="13" width="15" height="7" />
                <rect class="cls-1" x="3" y="21" width="15" height="7" />
                <rect class="cls-1" x="3" y="29" width="15" height="7" />
                <rect class="cls-1" x="3" y="37" width="15" height="7" />
                <rect class="cls-1" x="113.47" y="3.87" width="1" height="41.26"
                    transform="translate(227.94 49) rotate(180)" />
                <rect class="cls-1" x="131.47" y="3.87" width="1" height="41.26"
                    transform="translate(263.94 49) rotate(180)" />
                <rect class="cls-1" x="97.47" y="4.87" width="15" height="7"
                    transform="translate(209.94 16.74) rotate(180)" />
                <rect class="cls-1" x="97.47" y="12.87" width="15" height="7"
                    transform="translate(209.94 32.74) rotate(180)" />
                <rect class="cls-1" x="97.47" y="20.87" width="15" height="7"
                    transform="translate(209.94 48.74) rotate(180)" />
                <rect class="cls-1" x="97.47" y="28.87" width="15" height="7"
                    transform="translate(209.94 64.74) rotate(180)" />
                <rect class="cls-1" x="97.47" y="36.87" width="15" height="7"
                    transform="translate(209.94 80.74) rotate(180)" />
                <rect class="cls-1" x="115.47" y="4.87" width="15" height="7"
                    transform="translate(245.94 16.74) rotate(180)" />
                <rect class="cls-1" x="115.47" y="12.87" width="15" height="7"
                    transform="translate(245.94 32.74) rotate(180)" />
                <rect class="cls-1" x="115.47" y="20.87" width="15" height="7"
                    transform="translate(245.94 48.74) rotate(180)" />
                <rect class="cls-1" x="115.47" y="28.87" width="15" height="7"
                    transform="translate(245.94 64.74) rotate(180)" />
                <rect class="cls-1" x="115.47" y="36.87" width="15" height="7"
                    transform="translate(245.94 80.74) rotate(180)" />
                <rect class="cls-1" x="133.47" y="4.87" width="15" height="7"
                    transform="translate(281.94 16.74) rotate(180)" />
                <rect class="cls-1" x="133.47" y="12.87" width="15" height="7"
                    transform="translate(281.94 32.74) rotate(180)" />
                <rect class="cls-1" x="133.47" y="20.87" width="15" height="7"
                    transform="translate(281.94 48.74) rotate(180)" />
                <rect class="cls-1" x="133.47" y="28.87" width="15" height="7"
                    transform="translate(281.94 64.74) rotate(180)" />
                <rect class="cls-1" x="133.47" y="36.87" width="15" height="7"
                    transform="translate(281.94 80.74) rotate(180)" />
                <rect class="cls-1" x="54.4" y="17" width="2.47" height="5.96" />
                <rect class="cls-1" x="54.27" y="33.89" width="2.47" height="5.96" />
                <circle class="cls-5" cx="1.5" cy="25.97" r="0.92" />
                <circle class="cls-5" cx="19.5" cy="26.07" r="0.92" />
                <ellipse class="cls-5" cx="10.32" cy="26.07" rx="9.18" ry="0.46" />
                <circle class="cls-5" cx="1.5" cy="33.42" r="0.92" />
                <circle class="cls-5" cx="19.5" cy="33.52" r="0.92" />
                <ellipse class="cls-5" cx="10.32" cy="33.52" rx="9.18" ry="0.46" />
                <circle class="cls-5" cx="1.5" cy="40.87" r="0.92" />
                <circle class="cls-5" cx="19.5" cy="40.97" r="0.92" />
                <ellipse class="cls-5" cx="10.32" cy="40.97" rx="9.18" ry="0.46" />
               
            </g>
        </g>
    </g>
</svg>