<svg xmlns="http://www.w3.org/2000/svg" xmlns:xlink="http://www.w3.org/1999/xlink" viewBox="0 0 150 82.99">
    <defs>
        <style>
            .cls-1 {
                fill: #424242;
            }

            .cls-2,
            .cls-6 {
                fill: #444;
            }

            .cls-14,
            .cls-15,
            .cls-3 {
                stroke: #99a2a4;
                stroke-width: 0.5px;
            }

            .cls-14,
            .cls-15,
            .cls-3,
            .cls-6,
            .cls-8 {
                stroke-miterlimit: 10;
            }

            .cls-3 {
                fill: url(#未命名的渐变_56);
            }

            .cls-4 {
                fill: #5d5e5e;
            }

            .cls-5 {
                fill: url(#未命名的渐变_28);
            }

            .cls-6 {
                stroke: #757575;
            }

            .cls-6,
            .cls-8 {
                stroke-width: 0.25px;
            }

            .cls-7 {
                fill: url(#未命名的渐变_46);
            }

            .cls-8 {
                fill: #757575;
                stroke: #444;
            }

            .cls-9 {
                fill: #9e9e9e;
            }

            .cls-10 {
                fill: url(#未命名的渐变_44);
            }

            .cls-11 {
                fill: #4c4c4c;
            }

            .cls-12 {
                fill: #99a2a4;
            }

            .cls-13 {
                fill: #f4f4f4;
            }

            .cls-14 {
                fill: url(#未命名的渐变_56-2);
            }

            .cls-15 {
                fill: url(#未命名的渐变_56-3);
            }

            .cls-16 {
                fill: url(#未命名的渐变_58);
            }

            .cls-17 {
                fill: url(#未命名的渐变_58-2);
            }

            .cls-18 {
                fill: url(#未命名的渐变_59);
            }

            .cls-19 {
                opacity: 0.2;
            }

            .cls-20 {
                fill: #040000;
            }
        </style>
        <linearGradient id="未命名的渐变_56" x1="45.26" y1="14.18" x2="101.85" y2="14.18" gradientUnits="userSpaceOnUse">
            <stop offset="0" stop-color="#dce4eb" />
            <stop offset="0.49" stop-color="#f4f4f4" />
            <stop offset="1" stop-color="#b9cede" />
        </linearGradient>
        <linearGradient id="未命名的渐变_28" x1="141.54" y1="39.18" x2="146.27" y2="39.18" gradientUnits="userSpaceOnUse">
            <stop offset="0" stop-color="#dce4eb" />
            <stop offset="0.44" stop-color="#f4f4f4" />
            <stop offset="0.55" stop-color="#f0f2f3" />
            <stop offset="0.65" stop-color="#e5eaee" />
            <stop offset="0.75" stop-color="#d2dee7" />
            <stop offset="0.84" stop-color="#b9cede" />
        </linearGradient>
        <linearGradient id="未命名的渐变_46" x1="53.9" y1="66.83" x2="73.89" y2="66.83"
            gradientTransform="matrix(0.98, 0.18, -0.18, 0.98, 13.22, -10.5)" gradientUnits="userSpaceOnUse">
            <stop offset="0.36" stop-color="#4d5d5f" />
            <stop offset="0.48" stop-color="#7f9199" />
            <stop offset="0.59" stop-color="#a9bdcb" />
            <stop offset="0.64" stop-color="#b9cede" />
        </linearGradient>
        <linearGradient id="未命名的渐变_44" x1="5.69" y1="48.16" x2="11.43" y2="48.16"
            gradientTransform="translate(6.72 -0.72) rotate(7.93)" gradientUnits="userSpaceOnUse">
            <stop offset="0" stop-color="#4d5d5f" />
            <stop offset="0.35" stop-color="#7f9199" />
            <stop offset="0.69" stop-color="#a9bdcb" />
            <stop offset="0.86" stop-color="#b9cede" />
        </linearGradient>
        <linearGradient id="未命名的渐变_56-2" x1="33.52" y1="8.35" x2="43.63" y2="28.34" xlink:href="#未命名的渐变_56" />
        <linearGradient id="未命名的渐变_56-3" x1="24.32" y1="10.33" x2="33.21" y2="21.73" xlink:href="#未命名的渐变_56" />
        <linearGradient id="未命名的渐变_58" x1="30.8" y1="37.34" x2="32.16" y2="31.98" gradientUnits="userSpaceOnUse">
            <stop offset="0.44" stop-color="#4d5d5f" />
            <stop offset="0.59" stop-color="#7f9199" />
            <stop offset="0.74" stop-color="#a9bdcb" />
            <stop offset="0.81" stop-color="#b9cede" />
        </linearGradient>
        <linearGradient id="未命名的渐变_58-2" x1="15.95" y1="30.96" x2="16.96" y2="26.94" xlink:href="#未命名的渐变_58" />
        <linearGradient id="未命名的渐变_59" x1="113.44" y1="42.91" x2="89.63" y2="59.23" gradientUnits="userSpaceOnUse">
            <stop offset="0.22" stop-color="#dce4eb" />
            <stop offset="0.23" stop-color="#e0e6ec" />
            <stop offset="0.28" stop-color="#ebeef1" />
            <stop offset="0.35" stop-color="#f2f3f3" />
            <stop offset="0.55" stop-color="#f4f4f4" />
            <stop offset="0.67" stop-color="#f0f2f3" />
            <stop offset="0.77" stop-color="#e5eaee" />
            <stop offset="0.88" stop-color="#d2dee7" />
            <stop offset="0.98" stop-color="#b9cede" />
        </linearGradient>
    </defs>
    <title>car（汽车）</title>
    <g id="图层_2" data-name="图层 2">
        <g id="图层_35" data-name="图层 35">
            <g id="car_汽车_" data-name="car（汽车）">
                <path class="cls-1"
                    d="M146.38,38.38a8,8,0,0,0-6.26-7.7L102.78,21.5,85.88,5.8A21.79,21.79,0,0,0,71.73,0S54.59.46,41.82,1.09c-5.82.28-12.69.94-13.17,1C23.22,3,18.14,5.29,15.92,10.75a14.09,14.09,0,0,1-4.72,5.68c-2.71,1.69-2.8,1.16-7.83,2.37a4.48,4.48,0,0,0-2.8,2.72C-.84,25.41.82,45,.82,45l2.56,1.15c.13-3.8,1.69-6.77,4-7.09,2.81-.39,5.66,3.37,6.36,8.4a16,16,0,0,1,.11,3.36l38,17C50.78,59.62,54.71,52.25,61,51.09c6.57-1.22,13.19,4.85,14.8,13.54a18.36,18.36,0,0,1-2.11,13l13.51,4.18c4.77,1.88,13.46,1.13,17.1.33,2-.43,5.93-1.71,9.42-2.88A100.71,100.71,0,0,0,144.61,62l1.53-1.42a15,15,0,0,0,2.09-2.41l1-1.46.06-10.91-2.78-1.34Z" />
                <path class="cls-2" d="M66.54,82.57l7.94-1.75c4-.88,7-3.67,7.69-7.14l1.71-8.4H69.93Z" />
                <path class="cls-2" d="M9.63,57.2l4.19-.93a5.09,5.09,0,0,0,4.06-3.77l.91-4.44H11.42Z" />
                <path class="cls-3"
                    d="M101.85,21.52s-27,.84-46.91,5.86L45.26,3.11C47.6,1.49,66.87.39,74.62,1.32a27.32,27.32,0,0,1,5.21,1.46l1,.44A18.39,18.39,0,0,1,85.5,6.4Z" />
                <path class="cls-4"
                    d="M53.49,28.21l46.93,22.47-.58-.77c3.27-2.12,6.41-3.25,9.91-5a98.86,98.86,0,0,1,10.78-4.64,91,91,0,0,1,11.3-2.82c1.92-.43,3.86-.8,5.82-1.09a63.72,63.72,0,0,1,6.7-.24L143.62,39a48.27,48.27,0,0,0-5.54.3c-1.87.2-3.75.47-5.62.8a92.73,92.73,0,0,0-11.07,2.75,101,101,0,0,0-10.7,4.08,104.88,104.88,0,0,0-10.21,5.28l-.42.25-.41-.22Z" />
                <path class="cls-5"
                    d="M146.05,38.38a7.88,7.88,0,0,0-1.42-4.46,1.09,1.09,0,0,0-1.7-.07l-.45.51a3.63,3.63,0,0,0-.93,2.63,28,28,0,0,1,1.25,7,.91.91,0,0,0,1.3.84l.44-.21a3.07,3.07,0,0,0,1.72-3Z" />
                <path class="cls-4"
                    d="M72.28,56.12l-2.85-3L88.54,58.6l9.77-.68c19.41-.55,34-5.29,47.66-13.92l4,2.11C139.48,65,95.88,65.15,94.14,65.28Z" />
                <ellipse class="cls-6" cx="63.89" cy="66.83" rx="12.09" ry="16.01"
                    transform="translate(-11.09 12.73) rotate(-10.48)" />
                <ellipse class="cls-7" cx="63.89" cy="66.83" rx="9.87" ry="13.08"
                    transform="translate(-11.09 12.73) rotate(-10.48)" />
                <ellipse class="cls-8" cx="63.89" cy="66.83" rx="5.75" ry="7.62"
                    transform="translate(-11.09 12.73) rotate(-10.48)" />
                <ellipse class="cls-6" cx="63.89" cy="66.83" rx="2.8" ry="3.71"
                    transform="translate(-11.09 12.73) rotate(-10.48)" />
                <path class="cls-9"
                    d="M50.85,67.42a18.32,18.32,0,0,1,.52-6.79,15.76,15.76,0,0,1,3.34-6.56,10.59,10.59,0,0,1,6.43-3.58,10.33,10.33,0,0,1,3.72.17,12.52,12.52,0,0,1,3.39,1.43,16.19,16.19,0,0,1,5,5.16,20.59,20.59,0,0,1,2.58,6.66,18.66,18.66,0,0,1-2.19,13.72A18.39,18.39,0,0,0,75.41,64a20.22,20.22,0,0,0-2.72-6.39,15.43,15.43,0,0,0-4.91-4.74,11.67,11.67,0,0,0-3.14-1.21A9,9,0,0,0,55.76,55,14.15,14.15,0,0,0,53,61a21.92,21.92,0,0,0-.42,7.17Z" />
                <ellipse class="cls-6" cx="8.62" cy="48.06" rx="5.14" ry="9.19"
                    transform="translate(-6.55 1.65) rotate(-7.93)" />
                <ellipse class="cls-10" cx="8.56" cy="48.16" rx="2.81" ry="5.02"
                    transform="translate(-6.56 1.64) rotate(-7.93)" />
                <ellipse class="cls-8" cx="8.56" cy="48.16" rx="1.46" ry="2.61"
                    transform="translate(-6.56 1.64) rotate(-7.93)" />
                <ellipse class="cls-6" cx="8.56" cy="48.16" rx="0.73" ry="1.3"
                    transform="translate(-6.56 1.64) rotate(-7.93)" />
                <path class="cls-9"
                    d="M14.27,51.05l-.92-.43a13.26,13.26,0,0,0-.09-3.2c-.65-4.69-3.33-8.35-5.84-8-2,.28-3.95,3-4,6.76L3.08,46c.1-4.23,1.7-7.19,4.21-7.54,3.12-.43,6.14,3.43,6.89,8.79A17.62,17.62,0,0,1,14.27,51.05Z" />
                <path class="cls-11"
                    d="M51.81,29.35C48.31,35.46,51,57.2,51,57.2L15.76,40.64a28.51,28.51,0,0,1,0-21.84" />
                <path class="cls-12"
                    d="M51.83,29.36A14.12,14.12,0,0,0,51.19,31c-.12.57-.32,1.12-.39,1.7s-.2,1.15-.27,1.73l-.17,1.74c-.16,2.33-.18,4.68-.13,7s.2,4.68.34,7,.33,4.68.59,7l0,.26L51,57.33c-2.93-1.4-5.84-2.84-8.79-4.19l-8.85-4.07Q24.47,45,15.65,40.87l-.09,0,0-.09a29.69,29.69,0,0,1-1.61-5.4,27.16,27.16,0,0,1-.49-5.61,28.48,28.48,0,0,1,.6-5.6,23.87,23.87,0,0,1,1.72-5.33l0,0a26.41,26.41,0,0,0-1.52,5.36,27.94,27.94,0,0,0-.48,5.55,27.51,27.51,0,0,0,.6,5.51A31,31,0,0,0,16,40.54l-.13-.14c5.89,2.74,11.74,5.55,17.59,8.37L42.24,53c2.93,1.41,5.9,2.72,8.84,4.09l-.2.15a117.78,117.78,0,0,1-1-14c0-2.35,0-4.7.24-7a18.13,18.13,0,0,1,1.7-6.8Z" />
                <rect class="cls-13" x="62.93" y="2.78" width="2.33" height="18.4" rx="1.13"
                    transform="translate(17.09 -33.22) rotate(33.29)" />
                <rect class="cls-13" x="74.82" y="3.51" width="2.33" height="15.67" rx="1.13"
                    transform="translate(18.69 -39.84) rotate(33.29)" />
                <rect class="cls-13" x="79.66" y="10.53" width="2.33" height="12.28" rx="1.13"
                    transform="translate(22.41 -41.62) rotate(33.29)" />
                <path class="cls-14"
                    d="M51.81,29.35,29.41,22.8c-.24-9.28,4.72-17.56,6-19.54a23.83,23.83,0,0,1,6.45-.21C44,3.55,51.81,29.35,51.81,29.35Z" />
                <path class="cls-15"
                    d="M34.12,3.44C32.37,6.31,28.3,14,28.41,22.5L15.76,18.8l.47-5.26,2.14-3A20.71,20.71,0,0,1,31.16,3.93S32.43,3.69,34.12,3.44Z" />
                <path class="cls-1"
                    d="M46.92,29.2h-8.2a1.58,1.58,0,0,1-1.58-1.52l-.09-2.12a1.59,1.59,0,0,1,1.34-1.64l7.26-1.13a1.58,1.58,0,0,1,1.76,1.09l1,3.26A1.58,1.58,0,0,1,46.92,29.2Z" />
                <rect class="cls-1" x="47.1" y="23.91" width="2.14" height="3.26"
                    transform="translate(-3.06 6.89) rotate(-7.93)" />
                <path class="cls-1"
                    d="M52,28.32l-1.35.24a.93.93,0,0,1-1.09-.75L48.65,23a.94.94,0,0,1,.75-1.1l.9-.16Z" />
                <path class="cls-12"
                    d="M28.93,22.78c-.43,1.95-.75,3.92-1.06,5.88a25.93,25.93,0,0,0-.52,6c.08,2,.17,4,.37,6s.43,4,.66,6h-.05a34,34,0,0,1-1.12-5.92,35.62,35.62,0,0,1-.13-6c.14-2,.21-4,.38-6a22.64,22.64,0,0,1,1.42-5.85Z" />
                <rect class="cls-13" x="37.1" y="8.28" width="1.66" height="12.28" rx="0.8"
                    transform="translate(19.18 -21.57) rotate(41.67)" />
                <rect class="cls-13" x="41.05" y="15.9" width="1.66" height="6.71" rx="0.8"
                    transform="translate(23.4 -22.97) rotate(41.67)" />
                <rect class="cls-13" x="22.89" y="9.61" width="1.66" height="6.71" rx="0.8"
                    transform="translate(14.62 -12.49) rotate(41.67)" />
                <path class="cls-16"
                    d="M33,36.14,29.76,34.8a.56.56,0,0,1-.35-.52V32.71a.56.56,0,0,1,.78-.52l3.26,1.33a.58.58,0,0,1,.35.53v1.57A.57.57,0,0,1,33,36.14Z" />
                <path class="cls-17"
                    d="M17.61,30.06l-2.44-1a.42.42,0,0,1-.27-.39V27.49a.42.42,0,0,1,.59-.39l2.44,1a.42.42,0,0,1,.26.39v1.18A.42.42,0,0,1,17.61,30.06Z" />
                <path class="cls-4"
                    d="M147.6,52.63a28.41,28.41,0,0,1-5,4.88c-.89.75-1.87,1.38-2.81,2.07s-2,1.25-3,1.87a67.91,67.91,0,0,1-12.78,5.68,97.66,97.66,0,0,1-13.59,3.45c-2.31.38-4.63.69-7,1l-7,.64a1,1,0,0,1-.18-2h.09l6.91-.38c2.29-.25,4.59-.47,6.88-.77a96,96,0,0,0,13.52-2.92A68.61,68.61,0,0,0,136.61,61c1-.59,2-1.14,3-1.75s2-1.24,2.87-2A28.15,28.15,0,0,0,147.6,52.63Z" />
                <path class="cls-4"
                    d="M147.6,56.3a52.8,52.8,0,0,1-10.53,9.37,77.78,77.78,0,0,1-12.35,6.92l-3.28,1.33c-1.09.47-2.22.84-3.34,1.21s-2.24.77-3.38,1.1l-3.44.91-1.72.45-1.74.35-3.49.68c-2.34.4-4.7.64-7,1a1,1,0,0,1-1.13-.86A1,1,0,0,1,97,77.61h.12c2.31-.23,4.64-.39,6.94-.7l3.45-.55,1.73-.28,1.7-.38,3.41-.77c1.13-.29,2.24-.65,3.37-1s2.24-.65,3.33-1.08l3.29-1.2a75.52,75.52,0,0,0,12.45-6.41A52.72,52.72,0,0,0,147.6,56.3Z" />
                <path class="cls-18"
                    d="M112.91,56.79,89.67,58.58c-2.2.17-4.1-1.3-4.1-3.18V49.72c0-1.93,1.83-3.49,4.09-3.49h15.16c4.94,0,9.18,3,10.1,7.12l.2.94A2.2,2.2,0,0,1,112.91,56.79Z" />
            </g>
        </g>
    </g>
</svg>