<svg xmlns="http://www.w3.org/2000/svg" xmlns:xlink="http://www.w3.org/1999/xlink" viewBox="0 0 79.94 150">
    <defs>
        <style>
            .cls-1 {
                fill: url(#未命名的渐变_143);
            }

            .cls-2 {
                fill: url(#未命名的渐变_143-2);
            }

            .cls-3 {
                fill: url(#未命名的渐变_143-3);
            }

            .cls-4 {
                fill: url(#未命名的渐变_143-4);
            }

            .cls-11,
            .cls-5 {
                stroke: #666767;
                stroke-miterlimit: 10;
                stroke-width: 0.25px;
            }

            .cls-5 {
                fill: url(#未命名的渐变_74);
            }

            .cls-6 {
                fill: url(#未命名的渐变_143-5);
            }

            .cls-7 {
                fill: url(#未命名的渐变_74-2);
            }

            .cls-8 {
                fill: url(#未命名的渐变_143-6);
            }

            .cls-9 {
                fill: url(#未命名的渐变_143-7);
            }

            .cls-10 {
                fill: url(#未命名的渐变_143-8);
            }

            .cls-11 {
                fill: url(#未命名的渐变_74-3);
            }

            .cls-12 {
                fill: url(#未命名的渐变_143-9);
            }

            .cls-13 {
                fill: url(#未命名的渐变_143-10);
            }

            .cls-14 {
                fill: url(#未命名的渐变_143-11);
            }

            .cls-15 {
                fill: #666767;
            }

            .cls-16 {
                fill: url(#未命名的渐变_143-12);
            }

            .cls-17 {
                fill: url(#未命名的渐变_143-13);
            }

            .cls-18 {
                fill: url(#未命名的渐变_143-14);
            }

            .cls-19 {
                opacity: 0.2;
            }

            .cls-20 {
                fill: #040000;
            }
        </style>
        <linearGradient id="未命名的渐变_143" y1="1.7" x2="79.94" y2="1.7" gradientUnits="userSpaceOnUse">
            <stop offset="0" stop-color="#b7b7b8" />
            <stop offset="0.03" stop-color="#9c9e9e" />
            <stop offset="0.07" stop-color="#888b8b" />
            <stop offset="0.09" stop-color="#818484" />
            <stop offset="0.2" stop-color="#a3a5a5" />
            <stop offset="0.49" stop-color="#f6f6f6" />
            <stop offset="0.61" stop-color="#f3f3f3" />
            <stop offset="0.7" stop-color="#eaeaea" />
            <stop offset="0.77" stop-color="#dbdbdb" />
            <stop offset="0.83" stop-color="#c5c6c6" />
            <stop offset="0.9" stop-color="#aaa" />
            <stop offset="0.95" stop-color="#888989" />
            <stop offset="1" stop-color="#666767" />
        </linearGradient>
        <linearGradient id="未命名的渐变_143-2" x1="7.94" y1="8.2" x2="72" y2="8.2" xlink:href="#未命名的渐变_143" />
        <linearGradient id="未命名的渐变_143-3" x1="7.94" y1="23.4" x2="72" y2="23.4" xlink:href="#未命名的渐变_143" />
        <linearGradient id="未命名的渐变_143-4" x1="16.6" y1="35.81" x2="63.34" y2="35.81" xlink:href="#未命名的渐变_143" />
        <linearGradient id="未命名的渐变_74" x1="7.94" y1="13.01" x2="72" y2="13.01" gradientUnits="userSpaceOnUse">
            <stop offset="0" stop-color="#6b6c6b" />
            <stop offset="0.01" stop-color="#767776" />
            <stop offset="0.03" stop-color="#959595" />
            <stop offset="0.04" stop-color="#ababab" />
            <stop offset="0.37" stop-color="#ccc" />
            <stop offset="0.73" stop-color="#eaeaea" />
            <stop offset="0.94" stop-color="#f6f6f6" />
            <stop offset="0.95" stop-color="#ededed" />
            <stop offset="0.96" stop-color="#d4d4d4" />
            <stop offset="0.97" stop-color="#ababab" />
            <stop offset="0.99" stop-color="#737474" />
            <stop offset="0.99" stop-color="#666767" />
        </linearGradient>
        <linearGradient id="未命名的渐变_143-5" x1="7.94" y1="120.75" x2="13.02" y2="120.75" xlink:href="#未命名的渐变_143" />
        <linearGradient id="未命名的渐变_74-2" x1="7.94" y1="54.79" x2="72" y2="54.79" xlink:href="#未命名的渐变_74" />
        <linearGradient id="未命名的渐变_143-6" x1="14.11" y1="78.37" x2="65.83" y2="78.37" xlink:href="#未命名的渐变_143" />
        <linearGradient id="未命名的渐变_143-7" x1="30.64" y1="90.45" x2="49.31" y2="90.45" xlink:href="#未命名的渐变_143" />
        <linearGradient id="未命名的渐变_143-8" x1="42.47" y1="122.63" x2="42.47" y2="117.72" xlink:href="#未命名的渐变_143" />
        <linearGradient id="未命名的渐变_74-3" x1="7.94" y1="67.88" x2="72" y2="67.88" xlink:href="#未命名的渐变_74" />
        <linearGradient id="未命名的渐变_143-9" x1="66.92" y1="120.75" x2="72" y2="120.75" xlink:href="#未命名的渐变_143" />
        <linearGradient id="未命名的渐变_143-10" x1="39.97" y1="100.74" x2="39.97" y2="95.88" xlink:href="#未命名的渐变_143" />
        <linearGradient id="未命名的渐变_143-11" x1="6.49" y1="139.85" x2="14.42" y2="139.85" xlink:href="#未命名的渐变_143" />
        <linearGradient id="未命名的渐变_143-12" x1="5.24" y1="141.42" x2="15.7" y2="141.42" xlink:href="#未命名的渐变_143" />
        <linearGradient id="未命名的渐变_143-13" x1="65.49" y1="139.85" x2="73.42" y2="139.85" xlink:href="#未命名的渐变_143" />
        <linearGradient id="未命名的渐变_143-14" x1="64.23" y1="141.42" x2="74.7" y2="141.42" xlink:href="#未命名的渐变_143" />
    </defs>
    <title>Mobile bulk scale（移动式散装秤）</title>
    <g id="图层_2" data-name="图层 2">
        <g id="图层_35" data-name="图层 35">
            <g id="Mobile_bulk_scale_移动式散装秤_" data-name="Mobile bulk scale（移动式散装秤）">
                <rect class="cls-1" width="79.94" height="3.4" rx="1.7" />
                <rect class="cls-2" x="7.94" y="3.4" width="64.06" height="9.61" />
                <polygon class="cls-3" points="60.85 33.78 19.09 33.78 7.94 13.01 72 13.01 60.85 33.78" />
                <rect class="cls-4" x="16.6" y="33.78" width="46.74" height="4.06" />
                <line class="cls-5" x1="7.94" y1="13.01" x2="72" y2="13.01" />
                <rect class="cls-6" x="7.94" y="100.74" width="5.08" height="40.01" />
                <rect class="cls-7" x="7.94" y="37.84" width="64.06" height="33.89" />
                <polygon class="cls-8" points="56.83 85.01 23.11 85.01 14.11 71.73 65.83 71.73 56.83 85.01" />
                <rect class="cls-9" x="30.64" y="85.01" width="18.67" height="10.87" />
                <rect class="cls-10" x="12.94" y="117.72" width="59.06" height="4.9" />
                <line class="cls-11" x1="7.94" y1="67.88" x2="72" y2="67.88" />
                <rect class="cls-12" x="66.92" y="100.74" width="5.08" height="40.01" />
                <path class="cls-13"
                    d="M10.61,95.88H69.33A2.67,2.67,0,0,1,72,98.55v2.19a0,0,0,0,1,0,0H7.94a0,0,0,0,1,0,0V98.55A2.67,2.67,0,0,1,10.61,95.88Z" />
                <rect class="cls-14" x="6.49" y="138.94" width="7.93" height="1.81" />
                <rect class="cls-15" x="8.62" y="140.52" width="3.58" height="9.48" rx="1.68" />
                <rect class="cls-16" x="5.24" y="140.52" width="10.46" height="1.81" />
                <rect class="cls-17" x="65.49" y="138.94" width="7.93" height="1.81" />
                <rect class="cls-15" x="67.62" y="140.52" width="3.58" height="9.48" rx="1.68" />
                <rect class="cls-18" x="64.23" y="140.52" width="10.46" height="1.81" />
              
            </g>
        </g>
    </g>
</svg>