<svg xmlns="http://www.w3.org/2000/svg" xmlns:xlink="http://www.w3.org/1999/xlink" viewBox="0 0 150 86.68">
    <defs>
        <style>
            .cls-1,
            .cls-5 {
                fill: none;
            }

            .cls-2 {
                fill: #989898;
            }

            .cls-3 {
                fill: #9a9a9a;
            }

            .cls-4 {
                fill: #818181;
            }

            .cls-5 {
                stroke: #4c4c4c;
                stroke-linecap: round;
                stroke-miterlimit: 10;
                stroke-width: 0.75px;
            }

            .cls-6 {
                clip-path: url(#clip-path);
            }

            .cls-7 {
                fill: #afafaf;
            }

            .cls-8 {
                fill: #898989;
            }

            .cls-9 {
                fill: #4c4c4c;
            }

            .cls-10 {
                opacity: 0.2;
            }

            .cls-11 {
                fill: #040000;
            }
        </style>
        <clipPath id="clip-path">
            <polygon class="cls-1" points="56.67 47.37 103.36 30.76 150 34.25 149.93 73.57 56.6 86.68 56.67 47.37" />
        </clipPath>
    </defs>
    <title>Port entrepot storage(港口转口仓库)</title>
    <g id="图层_2" data-name="图层 2">
        <g id="图层_35" data-name="图层 35">
            <g id="Port_entrepot_storage_港口转口仓库_" data-name="Port entrepot storage(港口转口仓库)">
                <polygon class="cls-2" points="103.3 30.76 46.76 0 93.4 3.5 149.94 34.25 103.3 30.76" />
                <polygon class="cls-3" points="56.61 47.37 0.07 16.61 46.76 0 103.3 30.76 56.61 47.37" />
                <polygon class="cls-4" points="56.54 86.68 0 55.93 0.07 16.61 56.61 47.37 56.54 86.68" />
                <line class="cls-5" x1="2.3" y1="17.99" x2="2.3" y2="57.21" />
                <line class="cls-5" x1="4.45" y1="19.15" x2="4.45" y2="58.37" />
                <line class="cls-5" x1="6.59" y1="20.31" x2="6.59" y2="59.53" />
                <line class="cls-5" x1="8.73" y1="21.47" x2="8.73" y2="60.69" />
                <line class="cls-5" x1="10.87" y1="22.63" x2="10.87" y2="61.86" />
                <line class="cls-5" x1="13.02" y1="23.79" x2="13.02" y2="63.02" />
                <line class="cls-5" x1="15.16" y1="24.95" x2="15.16" y2="64.18" />
                <line class="cls-5" x1="17.3" y1="26.12" x2="17.3" y2="65.34" />
                <line class="cls-5" x1="19.44" y1="27.28" x2="19.44" y2="66.5" />
                <line class="cls-5" x1="21.59" y1="28.44" x2="21.59" y2="67.66" />
                <line class="cls-5" x1="23.73" y1="29.6" x2="23.73" y2="68.82" />
                <line class="cls-5" x1="25.87" y1="30.76" x2="25.87" y2="69.98" />
                <line class="cls-5" x1="28.02" y1="31.92" x2="28.02" y2="71.15" />
                <line class="cls-5" x1="30.16" y1="33.08" x2="30.16" y2="72.31" />
                <line class="cls-5" x1="32.3" y1="34.24" x2="32.3" y2="73.47" />
                <line class="cls-5" x1="34.44" y1="35.41" x2="34.44" y2="74.63" />
                <line class="cls-5" x1="36.59" y1="36.57" x2="36.59" y2="75.79" />
                <line class="cls-5" x1="38.73" y1="37.73" x2="38.73" y2="76.95" />
                <line class="cls-5" x1="40.87" y1="38.89" x2="40.87" y2="78.11" />
                <line class="cls-5" x1="43.01" y1="40.05" x2="43.01" y2="79.27" />
                <line class="cls-5" x1="45.16" y1="41.21" x2="45.16" y2="80.44" />
                <line class="cls-5" x1="47.3" y1="42.37" x2="47.3" y2="81.6" />
                <line class="cls-5" x1="49.44" y1="43.53" x2="49.44" y2="82.76" />
                <line class="cls-5" x1="51.58" y1="44.7" x2="51.58" y2="83.92" />
                <line class="cls-5" x1="53.73" y1="45.86" x2="53.73" y2="85.08" />
                <line class="cls-5" x1="53.73" y1="45.86" x2="100.42" y2="29.24" />
                <line class="cls-5" x1="51.39" y1="44.59" x2="98.08" y2="27.98" />
                <line class="cls-5" x1="49.05" y1="43.32" x2="95.74" y2="26.71" />
                <line class="cls-5" x1="46.72" y1="42.06" x2="93.4" y2="25.44" />
                <line class="cls-5" x1="44.38" y1="40.79" x2="91.07" y2="24.18" />
                <line class="cls-5" x1="42.04" y1="39.52" x2="88.73" y2="22.91" />
                <line class="cls-5" x1="39.7" y1="38.26" x2="86.39" y2="21.64" />
                <line class="cls-5" x1="37.37" y1="36.99" x2="84.05" y2="20.38" />
                <line class="cls-5" x1="35.03" y1="35.72" x2="81.72" y2="19.11" />
                <line class="cls-5" x1="32.69" y1="34.46" x2="79.38" y2="17.84" />
                <line class="cls-5" x1="30.35" y1="33.19" x2="77.04" y2="16.57" />
                <line class="cls-5" x1="28.02" y1="31.92" x2="74.7" y2="15.31" />
                <line class="cls-5" x1="25.68" y1="30.65" x2="72.37" y2="14.04" />
                <line class="cls-5" x1="23.34" y1="29.39" x2="70.03" y2="12.77" />
                <line class="cls-5" x1="21" y1="28.12" x2="67.69" y2="11.51" />
                <line class="cls-5" x1="18.67" y1="26.85" x2="65.35" y2="10.24" />
                <line class="cls-5" x1="16.33" y1="25.59" x2="63.02" y2="8.97" />
                <line class="cls-5" x1="13.99" y1="24.32" x2="60.68" y2="7.71" />
                <line class="cls-5" x1="11.65" y1="23.05" x2="58.34" y2="6.44" />
                <line class="cls-5" x1="9.32" y1="21.79" x2="56" y2="5.17" />
                <line class="cls-5" x1="6.98" y1="20.52" x2="53.67" y2="3.91" />
                <line class="cls-5" x1="4.64" y1="19.25" x2="51.33" y2="2.64" />
                <line class="cls-5" x1="2.3" y1="17.99" x2="48.99" y2="1.37" />
                <line class="cls-5" x1="100.42" y1="29.24" x2="147.06" y2="32.74" />
                <line class="cls-5" x1="97.71" y1="27.78" x2="144.35" y2="31.27" />
                <line class="cls-5" x1="95" y1="26.31" x2="141.64" y2="29.81" />
                <line class="cls-5" x1="92.3" y1="24.84" x2="138.94" y2="28.34" />
                <line class="cls-5" x1="89.59" y1="23.38" x2="136.23" y2="26.87" />
                <line class="cls-5" x1="86.88" y1="21.91" x2="133.52" y2="25.41" />
                <line class="cls-5" x1="84.18" y1="20.44" x2="130.82" y2="23.94" />
                <line class="cls-5" x1="81.47" y1="18.98" x2="128.11" y2="22.47" />
                <line class="cls-5" x1="78.76" y1="17.51" x2="125.41" y2="21.01" />
                <line class="cls-5" x1="76.06" y1="16.04" x2="122.7" y2="19.54" />
                <line class="cls-5" x1="73.35" y1="14.57" x2="119.99" y2="18.07" />
                <line class="cls-5" x1="70.64" y1="13.11" x2="117.29" y2="16.6" />
                <line class="cls-5" x1="67.94" y1="11.64" x2="114.58" y2="15.14" />
                <line class="cls-5" x1="65.23" y1="10.17" x2="111.87" y2="13.67" />
                <line class="cls-5" x1="62.52" y1="8.71" x2="109.17" y2="12.2" />
                <line class="cls-5" x1="59.82" y1="7.24" x2="106.46" y2="10.74" />
                <line class="cls-5" x1="57.11" y1="5.77" x2="103.75" y2="9.27" />
                <line class="cls-5" x1="54.4" y1="4.31" x2="101.05" y2="7.8" />
                <line class="cls-5" x1="51.7" y1="2.84" x2="98.34" y2="6.34" />
                <line class="cls-5" x1="48.99" y1="1.37" x2="95.63" y2="4.87" />
                <g class="cls-6">
                    <polygon class="cls-7"
                        points="56.67 47.37 103.36 30.76 150 34.25 149.93 73.57 56.6 86.68 56.67 47.37" />
                    <line class="cls-5" x1="100.47" y1="31.78" x2="100.47" y2="80.53" />
                    <line class="cls-5" x1="97.58" y1="32.81" x2="97.58" y2="80.93" />
                    <line class="cls-5" x1="94.69" y1="33.84" x2="94.69" y2="81.34" />
                    <line class="cls-5" x1="91.81" y1="34.87" x2="91.81" y2="81.74" />
                    <line class="cls-5" x1="88.92" y1="35.89" x2="88.92" y2="82.15" />
                    <line class="cls-5" x1="86.03" y1="36.92" x2="86.03" y2="82.55" />
                    <line class="cls-5" x1="83.14" y1="37.95" x2="83.14" y2="82.96" />
                    <line class="cls-5" x1="80.26" y1="38.98" x2="80.26" y2="83.36" />
                    <line class="cls-5" x1="77.37" y1="40" x2="77.37" y2="83.77" />
                    <line class="cls-5" x1="74.48" y1="41.03" x2="74.48" y2="84.17" />
                    <line class="cls-5" x1="71.59" y1="42.06" x2="71.59" y2="84.58" />
                    <line class="cls-5" x1="68.71" y1="43.09" x2="68.71" y2="84.98" />
                    <line class="cls-5" x1="65.82" y1="44.11" x2="65.82" y2="85.39" />
                    <line class="cls-5" x1="62.93" y1="45.14" x2="62.93" y2="85.79" />
                    <line class="cls-5" x1="60.04" y1="46.17" x2="60.04" y2="86.2" />
                    <line class="cls-5" x1="103.36" y1="30.99" x2="103.36" y2="80.36" />
                    <line class="cls-5" x1="106" y1="31.18" x2="106" y2="79.97" />
                    <line class="cls-5" x1="108.65" y1="31.38" x2="108.65" y2="79.58" />
                    <line class="cls-5" x1="111.29" y1="31.57" x2="111.29" y2="79.2" />
                    <line class="cls-5" x1="113.94" y1="31.76" x2="113.94" y2="78.81" />
                    <line class="cls-5" x1="116.59" y1="31.95" x2="116.59" y2="78.43" />
                    <line class="cls-5" x1="119.23" y1="32.14" x2="119.23" y2="78.04" />
                    <line class="cls-5" x1="121.88" y1="32.33" x2="121.88" y2="77.65" />
                    <line class="cls-5" x1="124.52" y1="32.53" x2="124.52" y2="77.27" />
                    <line class="cls-5" x1="127.17" y1="32.72" x2="127.17" y2="76.88" />
                    <line class="cls-5" x1="129.81" y1="32.91" x2="129.81" y2="76.49" />
                    <line class="cls-5" x1="132.46" y1="33.1" x2="132.46" y2="76.11" />
                    <line class="cls-5" x1="135.11" y1="33.29" x2="135.11" y2="75.72" />
                    <line class="cls-5" x1="137.75" y1="33.49" x2="137.75" y2="75.34" />
                    <line class="cls-5" x1="140.4" y1="33.68" x2="140.4" y2="74.95" />
                    <line class="cls-5" x1="143.04" y1="33.87" x2="143.04" y2="74.56" />
                    <line class="cls-5" x1="145.69" y1="34.06" x2="145.69" y2="74.18" />
                    <line class="cls-5" x1="148.33" y1="34.25" x2="148.33" y2="73.79" />
                </g>
                <polygon class="cls-8" points="116.78 41.32 116.72 78.16 96.37 81.02 96.44 44.18 116.78 41.32" />
                <polygon class="cls-9"
                    points="96.44 44.18 96.44 45.79 115.31 43.14 115.25 78.36 116.72 78.16 116.78 41.32 96.44 44.18" />
                <ellipse class="cls-9" cx="112.71" cy="63.01" rx="1.41" ry="1.23"
                    transform="translate(33.06 164.64) rotate(-81.12)" />
                <rect class="cls-9" x="108.03" y="63.08" width="5.06" height="0.81" rx="0.4"
                    transform="translate(-10.33 23.01) rotate(-11.35)" />
               
            </g>
        </g>
    </g>
</svg>