<svg xmlns="http://www.w3.org/2000/svg" viewBox="0 0 98.81 150">
    <defs>
        <style>
            .cls-1 {
                fill: #a0a0a0;
            }

            .cls-2 {
                fill: #dadae0;
            }

            .cls-3 {
                fill: #fff;
            }

            .cls-4 {
                opacity: 0.2;
            }

            .cls-5 {
                fill: #040000;
            }
        </style>
    </defs>
    <title>Port crane (港口起重机)</title>
    <g id="图层_2" data-name="图层 2">
        <g id="图层_35" data-name="图层 35">
            <g id="Port_crane_港口起重机_" data-name="Port crane (港口起重机)">
                <rect class="cls-1" x="34.31" y="93.31" width="48.12" height="3.05" />
                <rect class="cls-1" x="34.31" y="89.95" width="48.12" height="0.43" />
                <rect class="cls-1" x="34.31" y="91.15" width="48.12" height="0.43" />
                <rect class="cls-1" x="23.83" y="145.58" width="69.02" height="3.05" />
                <rect class="cls-1" x="31.55" y="116.63" width="52.44" height="6.72" />
                <polygon class="cls-1" points="27.5 150 17.47 150 41.27 83.25 47.11 83.25 27.5 150" />
                <polygon class="cls-1" points="88.77 150 98.81 150 75 83.25 69.17 83.25 88.77 150" />
                <rect class="cls-1" x="34.31" y="89.95" width="0.64" height="6.42" />
                <rect class="cls-1" x="37.48" y="89.95" width="0.64" height="6.42" />
                <rect class="cls-1" x="40.65" y="89.95" width="0.64" height="6.42" />
                <rect class="cls-1" x="43.82" y="89.95" width="0.64" height="6.42" />
                <rect class="cls-1" x="46.99" y="89.95" width="0.64" height="6.42" />
                <rect class="cls-1" x="50.16" y="89.95" width="0.64" height="6.42" />
                <rect class="cls-1" x="53.33" y="89.95" width="0.64" height="6.42" />
                <rect class="cls-1" x="56.5" y="89.95" width="0.64" height="6.42" />
                <rect class="cls-1" x="59.67" y="89.95" width="0.64" height="6.42" />
                <rect class="cls-1" x="62.84" y="89.95" width="0.64" height="6.42" />
                <rect class="cls-1" x="66.01" y="89.95" width="0.64" height="6.42" />
                <rect class="cls-1" x="69.18" y="89.95" width="0.64" height="6.42" />
                <rect class="cls-1" x="72.35" y="89.95" width="0.64" height="6.42" />
                <rect class="cls-1" x="75.52" y="89.95" width="0.64" height="6.42" />
                <rect class="cls-1" x="78.69" y="89.95" width="0.64" height="6.42" />
                <rect class="cls-1" x="81.78" y="89.95" width="0.64" height="6.42" />
                <rect class="cls-1" x="85.25" y="52.02" width="0.83" height="8.27" />
                <rect class="cls-1" x="78.35" y="52.02" width="0.83" height="8.27" />
                <rect class="cls-1" x="71.45" y="52.02" width="0.83" height="8.27" />
                <rect class="cls-1" x="64.55" y="52.02" width="0.83" height="8.27" />
                <rect class="cls-1" x="54.6" y="83.25" width="6.34" height="66.75" />
                <polygon class="cls-1" points="60.89 107.14 58.77 107.14 71.77 95.86 73.89 95.86 60.89 107.14" />
                <polygon class="cls-1" points="55.47 107.14 57.59 107.14 44.59 95.86 42.47 95.86 55.47 107.14" />
                <rect class="cls-1" x="28.18" y="79.75" width="57.9" height="3.5" />
                <rect class="cls-2" x="44.25" y="60.29" width="41.83" height="19.47" />
                <rect class="cls-1" x="37.48" y="58.48" width="48.6" height="1.8" />
                <rect class="cls-1" x="46.95" y="60.29" width="1.13" height="19.47" />
                <rect class="cls-1" x="52.83" y="60.29" width="1.13" height="19.47" />
                <rect class="cls-1" x="58.72" y="60.29" width="1.13" height="19.47" />
                <rect class="cls-1" x="64.61" y="60.29" width="1.13" height="19.47" />
                <rect class="cls-1" x="70.5" y="60.29" width="1.13" height="19.47" />
                <rect class="cls-1" x="76.38" y="60.29" width="1.13" height="19.47" />
                <rect class="cls-1" x="82.27" y="60.29" width="1.13" height="19.47" />
                <rect class="cls-1" x="52.06" y="65.92" width="8.69" height="6.31" />
                <rect class="cls-1" x="69.66" y="65.92" width="8.69" height="6.31" />
                <polygon class="cls-1" points="59.85 60.29 44.25 60.29 57.16 33.83 62.54 33.83 59.85 60.29" />
                <rect class="cls-1" x="56.04" y="32.63" width="7.89" height="1.2" />
                <rect class="cls-1" x="58.72" y="52.02" width="27.36" height="0.75" />
                <rect class="cls-1" x="58.72" y="53.85" width="27.36" height="0.75" />
                <polygon class="cls-1" points="46.15 58.48 42.34 58.48 20.29 14.67 22.85 12.19 46.15 58.48" />
                <polygon class="cls-1" points="72.96 40.25 65.74 40.25 28.91 1.17 32.72 1.17 72.96 40.25" />
                <polygon class="cls-1" points="72.41 59.39 70.83 59.39 60.99 35.34 62.57 35.34 72.41 59.39" />
                <polygon class="cls-1" points="5.5 36.68 1.6 36.68 28.81 1.17 32.72 1.17 5.5 36.68" />
                <rect class="cls-1" y="36.68" width="6.61" height="5.37" />
                <polygon class="cls-1" points="32.72 2 14.83 7.18 14.83 5.17 32.72 0 32.72 2" />
                <polygon class="cls-1" points="2.71 36.94 0.9 36.94 14.83 5.37 16.64 5.37 2.71 36.94" />
                <rect class="cls-1" x="2.81" y="38.69" width="1" height="17.34" />
                <polygon class="cls-1" points="22.77 15.49 15.38 7.78 15.38 5.37 22.77 13.09 22.77 15.49" />
                <rect class="cls-2" x="52.83" y="40.25" width="9.56" height="0.68" />
                <rect class="cls-2" x="52.83" y="42.43" width="9.56" height="0.68" />
                <rect class="cls-2" x="52.83" y="40.32" width="0.26" height="2.78" />
                <rect class="cls-2" x="53.76" y="40.32" width="0.26" height="2.78" />
                <rect class="cls-2" x="54.69" y="40.32" width="0.26" height="2.78" />
                <rect class="cls-2" x="55.62" y="40.32" width="0.26" height="2.78" />
                <rect class="cls-2" x="56.55" y="40.32" width="0.26" height="2.78" />
                <rect class="cls-2" x="57.49" y="40.32" width="0.26" height="2.78" />
                <rect class="cls-2" x="58.42" y="40.32" width="0.26" height="2.78" />
                <rect class="cls-2" x="59.35" y="40.32" width="0.26" height="2.78" />
                <rect class="cls-2" x="60.28" y="40.32" width="0.26" height="2.78" />
                <rect class="cls-2" x="61.21" y="40.32" width="0.26" height="2.78" />
                <rect class="cls-2" x="62.14" y="40.32" width="0.26" height="2.78" />
                <path class="cls-1"
                    d="M3.31,54.83a2.18,2.18,0,0,1,2,1.44,2,2,0,0,1-.55,2.23,1.94,1.94,0,0,1-2.13.32,1.83,1.83,0,0,1-1-1.74,1.71,1.71,0,0,0,1.13,1.51,1.59,1.59,0,0,0,1.69-.44,1.46,1.46,0,0,0,.21-1.6,1.31,1.31,0,0,0-1.27-.72.51.51,0,0,1-.55-.45.5.5,0,0,1,.45-.55h.1Z" />
                <rect class="cls-3" x="32.55" y="4.45" width="3.91" height="0.93"
                    transform="translate(13.58 -22.96) rotate(45)" />
                <rect class="cls-3" x="37.08" y="8.98" width="3.91" height="0.93"
                    transform="translate(18.11 -24.84) rotate(45)" />
                <rect class="cls-3" x="41.61" y="13.5" width="3.91" height="0.93"
                    transform="translate(22.64 -26.71) rotate(45)" />
                <rect class="cls-3" x="46.14" y="18.03" width="3.91" height="0.93"
                    transform="translate(27.17 -28.59) rotate(45)" />
                <rect class="cls-3" x="50.67" y="22.56" width="3.91" height="0.93"
                    transform="translate(31.69 -30.46) rotate(45)" />
                <rect class="cls-3" x="55.19" y="27.09" width="3.91" height="0.93"
                    transform="translate(36.22 -32.34) rotate(45)" />
                <rect class="cls-3" x="59.72" y="31.62" width="3.91" height="0.93"
                    transform="translate(40.75 -34.21) rotate(45)" />
                <rect class="cls-3" x="64.25" y="36.15" width="3.91" height="0.93"
                    transform="translate(45.28 -36.09) rotate(45)" />
                <polygon class="cls-2" points="46.6 58.48 46.86 58.48 58.68 33.83 58.41 33.83 46.6 58.48" />
               
            </g>
        </g>
    </g>
</svg>