<svg xmlns="http://www.w3.org/2000/svg" xmlns:xlink="http://www.w3.org/1999/xlink" viewBox="0 0 144.04 150">
    <defs>
        <style>
            .cls-1 {
                fill: url(#未命名的渐变_11);
            }

            .cls-2 {
                fill: url(#未命名的渐变_11-2);
            }

            .cls-3 {
                fill: url(#未命名的渐变_8);
            }

            .cls-4 {
                fill: #666767;
            }

            .cls-5 {
                fill: #444;
            }

            .cls-6 {
                fill: url(#未命名的渐变_14);
            }

            .cls-7 {
                fill: url(#未命名的渐变_11-3);
            }

            .cls-8 {
                opacity: 0.2;
            }

            .cls-9 {
                fill: #040000;
            }
        </style>
        <linearGradient id="未命名的渐变_11" x1="10.87" y1="93.16" x2="10.87" y2="87.42"
            gradientTransform="translate(-0.15 0.28)" gradientUnits="userSpaceOnUse">
            <stop offset="0" stop-color="#818484" />
            <stop offset="0.05" stop-color="#9b9d9d" />
            <stop offset="0.13" stop-color="#bbbdbd" />
            <stop offset="0.21" stop-color="#d5d6d6" />
            <stop offset="0.3" stop-color="#e8e8e8" />
            <stop offset="0.39" stop-color="#f2f3f3" />
            <stop offset="0.49" stop-color="#f6f6f6" />
            <stop offset="0.59" stop-color="#dfdddd" />
            <stop offset="0.8" stop-color="#a7a19f" />
            <stop offset="0.83" stop-color="#9f9a98" />
            <stop offset="0.87" stop-color="#898685" />
            <stop offset="0.93" stop-color="#666767" />
        </linearGradient>
        <linearGradient id="未命名的渐变_11-2" x1="16.98" y1="113.63" x2="121.54" y2="11.94"
            gradientTransform="matrix(1, 0, 0, 1, 0, 0)" xlink:href="#未命名的渐变_11" />
        <linearGradient id="未命名的渐变_8" x1="38.16" y1="8.85" x2="162.85" y2="143.8" gradientUnits="userSpaceOnUse">
            <stop offset="0.08" stop-color="#818484" />
            <stop offset="0.12" stop-color="#9b9d9d" />
            <stop offset="0.19" stop-color="#bbbdbd" />
            <stop offset="0.26" stop-color="#d5d6d6" />
            <stop offset="0.33" stop-color="#e8e8e8" />
            <stop offset="0.4" stop-color="#f2f3f3" />
            <stop offset="0.49" stop-color="#f6f6f6" />
            <stop offset="0.56" stop-color="#e4e4e4" />
            <stop offset="0.71" stop-color="#b4b4b4" />
            <stop offset="0.92" stop-color="#686969" />
            <stop offset="0.93" stop-color="#666767" />
        </linearGradient>
        <linearGradient id="未命名的渐变_14" x1="10.78" y1="-40.67" x2="95.35" y2="-18.27"
            gradientTransform="matrix(1.88, 0.68, -0.98, 0.18, -14.78, -8.13)" gradientUnits="userSpaceOnUse">
            <stop offset="0" stop-color="#818484" />
            <stop offset="0.03" stop-color="#9b9d9d" />
            <stop offset="0.08" stop-color="#bbbdbd" />
            <stop offset="0.13" stop-color="#d5d6d6" />
            <stop offset="0.18" stop-color="#e8e8e8" />
            <stop offset="0.23" stop-color="#f2f3f3" />
            <stop offset="0.29" stop-color="#f6f6f6" />
            <stop offset="0.36" stop-color="#e4e4e4" />
            <stop offset="0.5" stop-color="#b4b4b4" />
            <stop offset="0.71" stop-color="#686969" />
            <stop offset="0.71" stop-color="#666767" />
        </linearGradient>
        <linearGradient id="未命名的渐变_11-3" x1="29.56" y1="95.5" x2="29.56" y2="85.13"
            gradientTransform="translate(-0.15 0.08)" xlink:href="#未命名的渐变_11" />
    </defs>
    <title>Scale hopper of the weighing sensor（称重传感器称斗）</title>
    <g id="图层_2" data-name="图层 2">
        <g id="图层_35" data-name="图层 35">
            <g id="Scale_hopper_of_the_weighing_sensor_称重传感器称斗_"
                data-name="Scale hopper of the weighing sensor（称重传感器称斗）">
                <path class="cls-1"
                    d="M0,87.7h19.6a1.78,1.78,0,0,1,1.78,1.78v2.18a1.78,1.78,0,0,1-1.78,1.78H0a0,0,0,0,1,0,0V87.7a0,0,0,0,1,0,0Z"
                    transform="translate(-1 0.12) rotate(-0.63)" />
                <path class="cls-2" d="M35.68,139.92,63.37,150V24L35.68,14m0,112.19,5.45,2.12-5.45,2.1" />
                <polygon class="cls-3"
                    points="144.04 9.69 63.37 23.92 63.37 149.88 144.04 135.66 144.04 33.79 137.83 31.08 144.04 29.99 144.04 9.69" />
                <ellipse class="cls-4" cx="111.74" cy="55.45" rx="6.24" ry="5.24"
                    transform="translate(-4.62 100.41) rotate(-47.52)" />
                <ellipse class="cls-4" cx="87.63" cy="59.7" rx="6.24" ry="5.24"
                    transform="translate(-15.58 84.01) rotate(-47.52)" />
                <ellipse class="cls-4" cx="87.63" cy="59.7" rx="6.24" ry="5.24"
                    transform="translate(-15.58 84.01) rotate(-47.52)" />
                <path class="cls-5"
                    d="M91.23,56.76a5.07,5.07,0,0,0-.62-2.44,5.18,5.18,0,0,0-3-.34,7.12,7.12,0,0,0-5.72,6.73,5,5,0,0,0,.63,2.44,5.08,5.08,0,0,0,3,.34A7.12,7.12,0,0,0,91.23,56.76Z" />
                <path class="cls-5"
                    d="M115.34,52.51a5,5,0,0,0-.63-2.45,5.17,5.17,0,0,0-3-.33A7.12,7.12,0,0,0,106,56.46a5,5,0,0,0,.63,2.44,5.09,5.09,0,0,0,3,.33A7.11,7.11,0,0,0,115.34,52.51Z" />
                <polygon class="cls-5" points="77.77 133.92 63.37 136.46 63.37 140.59 77.77 138.05 77.77 133.92" />
                <polygon class="cls-4"
                    points="77.9 125.26 74.64 125.84 76.55 126.7 76.55 134.13 72.78 134.8 77.9 138.05 77.9 125.26" />
                <polygon class="cls-4" points="72.92 116.63 71.58 116.87 71.58 126.95 72.92 126.71 72.92 116.63" />
                <polygon class="cls-5"
                    points="74.75 125.82 72.92 126.14 71.58 125.43 71.58 127.58 76.55 126.7 74.75 125.82" />
                <ellipse class="cls-4" cx="98.58" cy="112.93" rx="6.78" ry="5.69"
                    transform="translate(-51.28 109.37) rotate(-47.52)" />
                <ellipse class="cls-4" cx="124.77" cy="108.31" rx="6.78" ry="5.69"
                    transform="translate(-39.37 127.18) rotate(-47.52)" />
                <path class="cls-5"
                    d="M128.56,105a5.45,5.45,0,0,0-.63-2.56,5.62,5.62,0,0,0-3.16-.34,7.74,7.74,0,0,0-6.21,7.31,5.45,5.45,0,0,0,.63,2.56,5.62,5.62,0,0,0,3.16.34A7.74,7.74,0,0,0,128.56,105Z" />
                <path class="cls-5"
                    d="M102.32,109.57a5.52,5.52,0,0,0-.63-2.57,5.62,5.62,0,0,0-3.16-.33,7.73,7.73,0,0,0-6.21,7.3,5.45,5.45,0,0,0,.62,2.57,5.56,5.56,0,0,0,3.17.33A7.72,7.72,0,0,0,102.32,109.57Z" />
                <ellipse class="cls-4" cx="103.7" cy="83.92" rx="14.78" ry="12.39"
                    transform="translate(-28.22 103.73) rotate(-47.52)" />
                <path class="cls-5"
                    d="M114.28,76.61a12.47,12.47,0,0,0-.48-3.46,11.49,11.49,0,0,0-10.1-2.76C96.23,71.7,90.17,78.83,90.17,86.3a12.41,12.41,0,0,0,.49,3.46,11.5,11.5,0,0,0,10.09,2.77C108.23,91.21,114.28,84.08,114.28,76.61Z" />
                <polygon class="cls-5" points="130.78 32.33 130.78 36.13 144.04 33.79 137.83 31.08 130.78 32.33" />
                <polygon class="cls-5" points="35.68 130.37 63.37 140.5 63.37 136.34 41.13 128.27 35.68 130.37" />
                <polygon class="cls-6" points="63.32 24.02 35.68 13.96 113.41 0 144.04 9.69 63.32 24.02" />
                <polygon class="cls-5"
                    points="124.77 106.33 71.58 115.7 71.58 118.69 72.92 119.42 124.77 110.29 124.77 106.33" />
                <polygon class="cls-5" points="82.88 62.37 136.6 52.9 136.6 49.26 82.88 58.73 82.88 62.37" />
                <polygon class="cls-4"
                    points="136.6 42.55 136.6 41.97 132.02 42.77 132.02 35.91 130.78 35.16 130.78 42.99 130.78 43.57 130.78 44.1 135.36 43.29 135.36 49.48 131.66 50.13 136.6 52.9 136.6 43.07 136.6 42.55" />
                <polygon class="cls-5"
                    points="135.36 43.29 133.52 42.51 132.02 42.77 130.78 41.88 130.78 44.1 135.36 43.29" />
                <ellipse class="cls-4" cx="88.86" cy="12.01" rx="14.95" ry="4.85" />
                <ellipse class="cls-5" cx="88.86" cy="13.76" rx="13.92" ry="3.09" />
                <ellipse class="cls-5" cx="46.49" cy="89.6" rx="3.41" ry="9.38" />
                <rect class="cls-5" x="40.1" y="80.22" width="6.39" height="18.75" />
                <ellipse class="cls-4" cx="40.1" cy="89.6" rx="3.41" ry="9.38" />
                <path class="cls-7"
                    d="M18.72,85.21h19.6A1.78,1.78,0,0,1,40.1,87V93.8a1.78,1.78,0,0,1-1.78,1.78H18.72a0,0,0,0,1,0,0V85.21a0,0,0,0,1,0,0Z"
                    transform="translate(-1 0.33) rotate(-0.63)" />
                
            </g>
        </g>
    </g>
</svg>