<svg xmlns="http://www.w3.org/2000/svg" viewBox="0 0 150 76.59">
    <defs>
        <style>
            .cls-1 {
                fill: #a0a0a0;
            }

            .cls-2 {
                fill: #666767;
            }

            .cls-3 {
                opacity: 0.2;
            }

            .cls-4 {
                fill: #040000;
            }
        </style>
    </defs>
    <title>Standard 20-foot container（标准20英尺集装箱）</title>
    <g id="图层_2" data-name="图层 2">
        <g id="图层_35" data-name="图层 35">
            <g id="Standard_20-foot_container_标准20英尺集装箱_" data-name="Standard 20-foot container（标准20英尺集装箱）">
                <rect class="cls-1" x="2.43" y="1" width="145.14" height="74.7" />
                <path class="cls-2" d="M142.26,72.27H7.73V4.43H142.26ZM8.83,71.17H141.16V5.53H8.83Z" />
                <rect class="cls-1" x="0.01" width="7.73" height="5.31" />
                <rect class="cls-2" x="2.43" y="5.31" width="5.3" height="0.62" />
                <rect class="cls-2" x="7.74" y="1" width="0.6" height="3.43" />
                <circle class="cls-2" cx="3.87" cy="2.66" r="1.42" />
                <rect class="cls-1" y="71.27" width="7.73" height="5.31" />
                <rect class="cls-2" x="2.42" y="70.65" width="5.3" height="0.62" />
                <rect class="cls-2" x="7.73" y="72.26" width="0.6" height="3.43" />
                <circle class="cls-2" cx="3.86" cy="73.92" r="1.42" />
                <rect class="cls-1" x="142.27" y="71.27" width="7.73" height="5.31"
                    transform="translate(292.27 147.86) rotate(180)" />
                <rect class="cls-2" x="142.28" y="70.65" width="5.3" height="0.62"
                    transform="translate(289.86 141.93) rotate(180)" />
                <rect class="cls-2" x="141.67" y="72.27" width="0.6" height="3.43"
                    transform="translate(283.94 147.97) rotate(180)" />
                <circle class="cls-2" cx="146.14" cy="73.93" r="1.42" />
                <rect class="cls-1" x="142.2" y="0.12" width="7.73" height="5.31"
                    transform="translate(292.13 5.55) rotate(180)" />
                <rect class="cls-2" x="142.21" y="5.43" width="5.3" height="0.62"
                    transform="translate(289.72 11.48) rotate(180)" />
                <rect class="cls-2" x="141.6" y="1" width="0.6" height="3.43"
                    transform="translate(283.81 5.44) rotate(180)" />
                <circle class="cls-2" cx="146.07" cy="2.78" r="1.42" />
                <rect class="cls-2" x="15.41" y="5.31" width="5.16" height="65.96" />
                <rect class="cls-2" x="26.57" y="5.31" width="5.16" height="65.96" />
                <rect class="cls-2" x="37.73" y="5.31" width="5.16" height="65.96" />
                <rect class="cls-2" x="48.9" y="5.31" width="5.16" height="65.96" />
                <rect class="cls-2" x="60.06" y="5.31" width="5.16" height="65.96" />
                <rect class="cls-2" x="71.22" y="5.31" width="5.16" height="65.96" />
                <rect class="cls-2" x="82.38" y="5.31" width="5.16" height="65.96" />
                <rect class="cls-2" x="93.55" y="5.31" width="5.16" height="65.96" />
                <rect class="cls-2" x="104.71" y="5.31" width="5.16" height="65.96" />
                <rect class="cls-2" x="115.87" y="5.31" width="5.16" height="65.96" />
                <rect class="cls-2" x="127.03" y="5.31" width="5.16" height="65.96" />
                <rect class="cls-2" x="49.72" y="72.27" width="9.43" height="3.43" />
                <rect class="cls-2" x="98.71" y="72.21" width="9.43" height="3.43" />
               
            </g>
        </g>
    </g>
</svg>