<svg xmlns="http://www.w3.org/2000/svg" xmlns:xlink="http://www.w3.org/1999/xlink" viewBox="0 0 150.03 48.53">
    <defs>
        <style>
            .cls-1 {
                fill: #a0a0a0;
            }

            .cls-2 {
                fill: #666767;
            }

            .cls-3 {
                fill: url(#未命名的渐变_143);
            }

            .cls-4 {
                fill: #dadae0;
            }

            .cls-5 {
                fill: none;
                stroke: #afafaf;
                stroke-miterlimit: 10;
                stroke-width: 0.5px;
            }

            .cls-6 {
                fill: #afafaf;
            }

            .cls-7 {
                fill: #bcbcbc;
            }

            .cls-8 {
                fill: url(#未命名的渐变_143-2);
            }

            .cls-9 {
                fill: url(#未命名的渐变_143-3);
            }

            .cls-10 {
                fill: url(#未命名的渐变_143-4);
            }

            .cls-11 {
                fill: url(#未命名的渐变_143-5);
            }

            .cls-12 {
                fill: url(#未命名的渐变_143-6);
            }

            .cls-13 {
                fill: url(#未命名的渐变_143-7);
            }

            .cls-14 {
                fill: url(#未命名的渐变_143-8);
            }

            .cls-15 {
                fill: url(#未命名的渐变_143-9);
            }

            .cls-16 {
                fill: url(#未命名的渐变_143-10);
            }

            .cls-17 {
                fill: url(#未命名的渐变_143-11);
            }

            .cls-18 {
                fill: url(#未命名的渐变_143-12);
            }

            .cls-19 {
                fill: url(#未命名的渐变_143-13);
            }

            .cls-20 {
                fill: url(#未命名的渐变_143-14);
            }

            .cls-21 {
                fill: url(#未命名的渐变_143-15);
            }

            .cls-22 {
                fill: url(#未命名的渐变_143-16);
            }

            .cls-23 {
                opacity: 0.2;
            }

            .cls-24 {
                fill: #040000;
            }
        </style>
        <linearGradient id="未命名的渐变_143" x1="7.82" y1="37.58" x2="17.57" y2="37.58" gradientUnits="userSpaceOnUse">
            <stop offset="0" stop-color="#b7b7b8" />
            <stop offset="0.03" stop-color="#9c9e9e" />
            <stop offset="0.07" stop-color="#888b8b" />
            <stop offset="0.09" stop-color="#818484" />
            <stop offset="0.2" stop-color="#a3a5a5" />
            <stop offset="0.49" stop-color="#f6f6f6" />
            <stop offset="0.61" stop-color="#f3f3f3" />
            <stop offset="0.7" stop-color="#eaeaea" />
            <stop offset="0.77" stop-color="#dbdbdb" />
            <stop offset="0.83" stop-color="#c5c6c6" />
            <stop offset="0.9" stop-color="#aaa" />
            <stop offset="0.95" stop-color="#888989" />
            <stop offset="1" stop-color="#666767" />
        </linearGradient>
        <linearGradient id="未命名的渐变_143-2" x1="109.28" y1="39.61" x2="119.03" y2="39.61" xlink:href="#未命名的渐变_143" />
        <linearGradient id="未命名的渐变_143-3" x1="97.8" y1="35.54" x2="97.8" y2="4.39" xlink:href="#未命名的渐变_143" />
        <linearGradient id="未命名的渐变_143-4" x1="129.31" y1="39.61" x2="139.05" y2="39.61" xlink:href="#未命名的渐变_143" />
        <linearGradient id="未命名的渐变_143-5" x1="59.28" y1="29.7" x2="59.28" y2="4.39" xlink:href="#未命名的渐变_143" />
        <linearGradient id="未命名的渐变_143-6" x1="66.26" y1="29.7" x2="66.26" y2="4.39" xlink:href="#未命名的渐变_143" />
        <linearGradient id="未命名的渐变_143-7" x1="73.24" y1="29.7" x2="73.24" y2="4.39" xlink:href="#未命名的渐变_143" />
        <linearGradient id="未命名的渐变_143-8" x1="80.22" y1="29.7" x2="80.22" y2="4.39" xlink:href="#未命名的渐变_143" />
        <linearGradient id="未命名的渐变_143-9" x1="87.2" y1="29.7" x2="87.2" y2="4.39" xlink:href="#未命名的渐变_143" />
        <linearGradient id="未命名的渐变_143-10" x1="94.17" y1="29.7" x2="94.17" y2="4.39" xlink:href="#未命名的渐变_143" />
        <linearGradient id="未命名的渐变_143-11" x1="101.15" y1="29.7" x2="101.15" y2="4.39" xlink:href="#未命名的渐变_143" />
        <linearGradient id="未命名的渐变_143-12" x1="108.13" y1="29.7" x2="108.13" y2="4.39" xlink:href="#未命名的渐变_143" />
        <linearGradient id="未命名的渐变_143-13" x1="115.11" y1="29.7" x2="115.11" y2="4.39" xlink:href="#未命名的渐变_143" />
        <linearGradient id="未命名的渐变_143-14" x1="122.09" y1="29.7" x2="122.09" y2="4.39" xlink:href="#未命名的渐变_143" />
        <linearGradient id="未命名的渐变_143-15" x1="129.07" y1="29.7" x2="129.07" y2="4.39" xlink:href="#未命名的渐变_143" />
        <linearGradient id="未命名的渐变_143-16" x1="136.05" y1="29.7" x2="136.05" y2="4.39" xlink:href="#未命名的渐变_143" />
    </defs>
    <title>tanker(油罐车)</title>
    <g id="图层_2" data-name="图层 2">
        <g id="图层_35" data-name="图层 35">
            <g id="tanker_油罐车_" data-name="tanker(油罐车)">
                <circle class="cls-1" cx="12.69" cy="37.58" r="8.92" />
                <circle class="cls-2" cx="12.69" cy="37.58" r="7.88" />
                <circle class="cls-3" cx="12.69" cy="37.58" r="4.87" />
                <circle class="cls-1" cx="12.69" cy="37.58" r="2.04" />
                <path class="cls-4"
                    d="M31.27,0,24,12.78v0L7,16.44a7,7,0,0,0-5.36,5.43L0,29.84v6.3H2.58a10.21,10.21,0,0,1,20.22,0H50.43V0Z" />
                <path class="cls-1"
                    d="M32.8,15.28H27.35A1.59,1.59,0,0,1,26,12.91L32.12,1.79A1.59,1.59,0,0,1,33.52,1h2.11a1.6,1.6,0,0,1,1.55,2L34.35,14.08A1.61,1.61,0,0,1,32.8,15.28Z" />
                <path class="cls-1"
                    d="M45.35,15.28H37.54a1.78,1.78,0,0,1-1.72-2.18L38.19,2.37A1.76,1.76,0,0,1,39.91,1h5.44a1.78,1.78,0,0,1,1.76,1.79V13.49A1.78,1.78,0,0,1,45.35,15.28Z" />
                <line class="cls-5" x1="48" x2="48" y2="36.14" />
                <rect class="cls-5" x="24.02" y="29.7" width="23.97" height="1.06" />
                <rect class="cls-5" x="24.02" y="34.48" width="23.97" height="1.06" />
                <rect class="cls-6" x="24.02" y="31.33" width="23.97" height="2.75" />
                <circle class="cls-6" cx="45.83" cy="17.3" r="1.01" />
                <circle class="cls-6" cx="45.83" cy="28.36" r="1.01" />
                <rect class="cls-7" x="45.21" y="16.76" width="1.24" height="12.03" rx="0.58" />
                <polygon class="cls-4" points="24.02 40.89 23.41 40.89 21.61 26.82 24.02 26.49 24.02 40.89" />
                <line class="cls-5" x1="24.02" y1="12.76" x2="24.02" y2="36.14" />
                <rect class="cls-1" y="29.99" width="2.3" height="4.09" />
                <rect class="cls-1" x="24.29" y="16.99" width="4.25" height="1.83" />
                <rect class="cls-1" x="50.43" y="7.58" width="3.74" height="22.12" />
                <circle class="cls-1" cx="114.15" cy="39.61" r="8.92" />
                <circle class="cls-2" cx="114.15" cy="39.61" r="7.88" />
                <circle class="cls-8" cx="114.15" cy="39.61" r="4.87" />
                <circle class="cls-1" cx="114.15" cy="39.61" r="2.04" />
                <circle class="cls-1" cx="134.18" cy="39.61" r="8.92" />
                <path class="cls-9"
                    d="M134.18,29.7a9.91,9.91,0,0,1,6.69,2.61A35.5,35.5,0,0,0,139.5,4.39H55.81l-.57,1.44a38.06,38.06,0,0,0,0,28.27l.57,1.44h49.31a9.9,9.9,0,0,1,18.06,0h2A9.9,9.9,0,0,1,134.18,29.7Z" />
                <circle class="cls-2" cx="134.18" cy="39.61" r="7.88" />
                <circle class="cls-10" cx="134.18" cy="39.61" r="4.87" />
                <circle class="cls-1" cx="134.18" cy="39.61" r="2.04" />
                <rect class="cls-11" x="58.9" y="4.39" width="0.77" height="25.31" />
                <rect class="cls-12" x="65.88" y="4.39" width="0.77" height="25.31" />
                <rect class="cls-13" x="72.86" y="4.39" width="0.77" height="25.31" />
                <rect class="cls-14" x="79.83" y="4.39" width="0.77" height="25.31" />
                <rect class="cls-15" x="86.81" y="4.39" width="0.77" height="25.31" />
                <rect class="cls-16" x="93.79" y="4.39" width="0.77" height="25.31" />
                <rect class="cls-17" x="100.77" y="4.39" width="0.77" height="25.31" />
                <rect class="cls-18" x="107.75" y="4.39" width="0.77" height="25.31" />
                <rect class="cls-19" x="114.73" y="4.39" width="0.77" height="25.31" />
                <rect class="cls-20" x="121.71" y="4.39" width="0.77" height="25.31" />
                <rect class="cls-21" x="128.69" y="4.39" width="0.77" height="25.31" />
                <rect class="cls-22" x="135.66" y="4.39" width="0.77" height="25.31" />
                <path class="cls-4" d="M50.43,36.14h54.45a9.9,9.9,0,0,1,9.27-6.44H50.43Z" />
                <path class="cls-4" d="M134.18,29.7a9.9,9.9,0,0,1,9.27,6.44H150V29.7Z" />
                <path class="cls-4"
                    d="M123.43,36.14h1.48a9.89,9.89,0,0,1,9.27-6.44h-20A9.91,9.91,0,0,1,123.43,36.14Z" />
               
            </g>
        </g>
    </g>
</svg>