 

<svg xmlns:agg="http://www.example.com" xmlns="http://www.w3.org/2000/svg" width="1.1585in" height="1.0750in" viewBox="0 0 999 927">

<path style="fill:#333" d="M708,754 l244,0 2,-217 -47,0 0,-19 64,0 0,254 -263,0 0,-18z" />
<path style="fill:#191919" d="M754,608 l-83,0 0,95 9,0 0,94 11,0 0,102 42,0 0,-102 9,0 0,-94 12,0 0,-95z" />
<path style="fill:#191919" d="M588,608 l-83,0 0,95 11,0 0,94 9,0 0,102 42,0 0,-102 10,0 0,-94 11,0 0,-95z" />
<path style="fill:#191919" d="M421,608 l-82,0 0,95 11,0 0,94 10,0 0,102 41,0 0,-102 11,0 0,-94 9,0 0,-95z" />
<path style="fill:#191919" d="M256,608 l-83,0 0,95 11,0 0,94 9,0 0,102 42,0 0,-102 11,0 0,-94 10,0 0,-95z" />
<path style="fill:#9cc" d="M301,608 l-236,0 -17,-20 -13,-38 -8,-51 0,-53 8,-51 13,-37 17,-21 234,0 2,271z" />
<path style="fill:#699" d="M625,337 l236,0 17,21 13,37 8,51 0,53 -8,51 -13,38 -17,20 -236,0 0,-271z" />
<path style="fill:#366" d="M63,337 l800,0 0,271 -800,0 0,-271z" />
<path style="fill:#407373" d="M65,346 l798,0 0,251 -798,0 0,-251z" />
<path style="fill:#4c7f7f" d="M65,358 l798,0 0,230 -798,0 0,-230z" />
<path style="fill:#598c8c" d="M65,369 l798,0 0,208 -798,0 0,-208z" />
<path style="fill:#699" d="M65,378 l798,0 0,189 -798,0 0,-189z" />
<path style="fill:#73a6a6" d="M65,390 l798,0 0,166 -798,0 0,-166z" />
<path style="fill:#7fb2b2" d="M65,399 l798,0 0,145 -798,0 0,-145z" />
<path style="fill:#8cbfbf" d="M65,410 l798,0 0,125 -798,0 0,-125z" />
<path style="fill:#9cc" d="M65,421 l798,0 0,102 -798,0 0,-102z" />
<path style="fill:#a6d9d9" d="M65,431 l798,0 0,83 -798,0 0,-83z" />
<path style="fill:#b2e5e5" d="M65,442 l798,0 0,61 -798,0 0,-61z" />
<path style="fill:#bff2f2" d="M65,454 l798,0 0,37 -798,0 0,-37z" />
<path style="fill:#cff" d="M63,463 l800,0 0,19 -800,0 0,-19z" />
<path style="fill:#9cc" d="M390,173 l0,-125 11,-9 20,-8 27,-4 30,0 27,4 20,8 10,9 0,125 -145,0z" />
<path style="fill:#699" d="M535,173 l0,126 -10,9 -20,6 -27,4 -30,0 -27,-4 -20,-6 -11,-9 0,-126 145,0z" />
<path style="fill:#699" d="M392,50 l143,0 0,245 -143,0 0,-245z" />
<path style="fill:#70a3a3" d="M397,50 l132,0 0,245 -132,0 0,-245z" />
<path style="fill:#7aadad" d="M405,50 l117,0 0,245 -117,0 0,-245z" />
<path style="fill:#85b8b8" d="M412,50 l104,0 0,245 -104,0 0,-245z" />
<path style="fill:#8fc2c2" d="M418,50 l91,0 0,245 -91,0 0,-245z" />
<path style="fill:#9cc" d="M425,50 l78,0 0,245 -78,0 0,-245z" />
<path style="fill:#a3d6d6" d="M431,50 l64,0 0,245 -64,0 0,-245z" />
<path style="fill:#ade0e0" d="M439,50 l49,0 0,245 -49,0 0,-245z" />
<path style="fill:#b8ebeb" d="M446,50 l36,0 0,245 -36,0 0,-245z" />
<path style="fill:#c2f5f5" d="M452,50 l23,0 0,245 -23,0 0,-245z" />
<path style="fill:#cff" d="M459,50 l8,0 0,245 -8,0 0,-245z" />
<path style="fill:none;stroke:#000;stroke-width:2" d="M535,299 l-10,9 -20,6 -27,4 -30,0 -27,-4 -20,-6 -11,-9 0,-251 11,-9 20,-8 27,-4 30,0 27,4 20,8 10,9 0,251" />
<path style="fill:none;stroke:#000;stroke-width:2" d="M861,337 l17,21 13,37 8,51 0,53 -8,51 -13,38 -17,20 -796,0 -17,-20 -13,-38 -8,-51 0,-53 8,-51 13,-37 17,-21 796,0" />
<circle style="fill:#cff;stroke:#366;stroke-width:2" cx="460" cy="121" r="48" />
<path style="fill:#000" d="M444,218 l0,-17 38,0 0,17 -38,0z" />
<path style="fill:#9cc;stroke:#000;stroke-width:2" d="M373,218 l19,0 0,119 -19,0 0,-119z" />
<path style="fill:#9cc;stroke:#000;stroke-width:2" d="M537,218 l17,0 0,119 -17,0 0,-119z" />
<path style="fill:#9cc;stroke:#000;stroke-width:2" d="M808,573 l36,0 0,326 -36,0 0,-326z" />
<path style="fill:#9cc;stroke:#000;stroke-width:2" d="M82,573 l36,0 0,326 -36,0 0,-326z" />
<path style="fill:#9cc;stroke:#000;stroke-width:2" d="M118,722 l690,0 0,18 -690,0 0,-18z" />
<path style="fill:#9cc;stroke:#000;stroke-width:2" d="M118,880 l690,0 0,19 -690,0 0,-19z" />
<path style="fill:#333" d="M186,790 l554,0 0,18 -554,0 0,-18z" />
<path style="fill:#699" d="M82,808 l36,0 0,10 -36,0 0,-10z" />
<path style="fill:#699" d="M808,808 l36,0 0,10 -36,0 0,-10z" />
<path style="fill:#9cc;stroke:#000;stroke-width:2" d="M799,718 l90,0 0,90 -90,0 0,-90z" />
<path style="fill:#9cc;stroke:#000;stroke-width:2" d="M37,718 l90,0 0,90 -90,0 0,-90z" />
<path style="fill:#000" d="M835,772 l18,0 0,33 -18,0 0,-33z" />
<path style="fill:#000" d="M73,772 l18,0 0,33 -18,0 0,-33z" />
<path style="fill:#ffb27f" d="M829,727 l28,0 0,4 -28,0 0,-4z" />
<path style="fill:#ffb27f" d="M69,727 l26,0 0,4 -26,0 0,-4z" />
<path style="fill:#e5e5e5" d="M69,731 l26,0 0,32 -26,0 0,-32z" />
<path style="fill:#e5e5e5" d="M829,731 l28,0 0,32 -28,0 0,-32z" />
<path style="fill:#699" d="M571,305 l19,0 0,335 -19,0 0,-335z" />
<path style="fill:#cff" d="M578,305 l6,0 0,335 -6,0 0,-335z" />
<path style="fill:#699" d="M808,622 l0,18 -690,0 0,-18 690,0z" />
<path style="fill:#cff" d="M808,629 l0,4 -690,0 0,-4 690,0z" />
<path style="fill:#699" d="M341,305 l19,0 0,335 -19,0 0,-335z" />
<path style="fill:#cff" d="M346,305 l6,0 0,335 -6,0 0,-335z" />
<path style="fill:#cff;stroke:#000;stroke-width:2" d="M880,518 l27,0 0,19 -27,0 0,-19z" />
<path style="fill:none;stroke:#000;stroke-width:2" d="M893,463 l51,0 0,-122 -37,0 0,-17 -131,0 0,13" />
<path style="fill:none;stroke:#033;stroke-width:2" d="M363,337 l0,104 23,96 81,85 81,-72 15,-68 4,-145" />

</svg>
