 

<svg xmlns:agg="http://www.example.com" xmlns="http://www.w3.org/2000/svg" width="0.9674in" height="1.0750in" viewBox="0 0 899 999">

<circle style="fill:#666;stroke:#000;stroke-width:2" cx="785" cy="825" r="69" />
<path style="fill:none;stroke:#000;stroke-width:2" d="M756,459 l-3,44 -3,35 -1,29 0,22 1,17 2,13 2,10 3,8 3,6 3,7 3,7 4,9 3,12 3,16 2,21 2,25" />
<path style="fill:none;stroke:#000;stroke-width:2" d="M725,459 l-2,43 -1,33 0,24 2,18 4,12 4,7 6,3 6,1 6,-1 6,0 6,1 7,3 5,7 5,12 4,18 3,25" />
<path style="fill:#366" d="M269,910 l0,-181 -20,-19 0,-613 14,-20 27,-17 36,-15 47,-12 51,-5 53,0 51,5 45,12 37,15 27,17 13,20 0,613 -21,19 0,181 -360,0z" />
<path style="fill:#3b6e6e" d="M283,910 l0,-181 -20,-19 3,-613 11,-20 24,-17 34,-15 44,-12 47,-5 49,0 47,5 41,12 34,15 25,17 13,20 0,613 -17,19 -2,181 -333,0z" />
<path style="fill:#457878" d="M296,910 l1,-181 -18,-19 0,-613 13,-20 22,-17 31,-15 39,-12 43,-5 46,0 43,5 38,12 32,15 23,17 11,20 0,613 -17,19 0,181 -307,0z" />
<path style="fill:#4c7f7f" d="M311,910 l0,-181 -17,-19 0,-613 11,-20 21,-17 28,-15 36,-12 39,-5 42,0 40,5 34,12 30,15 20,17 10,20 0,613 -15,19 0,181 -279,0z" />
<path style="fill:#548787" d="M324,910 l0,-181 -15,-19 0,-613 9,-20 19,-17 27,-15 32,-12 35,-5 36,0 38,5 32,12 25,15 18,17 10,20 0,613 -14,19 0,181 -252,0z" />
<path style="fill:#5e9191" d="M337,910 l0,-181 -13,-19 0,-613 9,-20 17,-17 23,-15 28,-12 32,-5 32,0 32,5 31,12 22,15 17,17 8,20 0,613 -12,19 0,181 -226,0z" />
<path style="fill:#699" d="M350,910 l0,-181 -11,-19 0,-613 8,-20 15,-17 20,-15 25,-12 28,-5 28,0 29,5 26,12 19,15 15,17 7,20 0,613 -9,19 0,181 -200,0z" />
<path style="fill:#6ea1a1" d="M364,910 l0,-181 -10,-19 0,-613 8,-20 11,-17 19,-15 21,-12 24,-5 24,0 25,5 23,12 16,15 14,17 6,20 0,613 -10,19 0,181 -171,0z" />
<path style="fill:#78abab" d="M379,910 l0,-181 -10,-19 0,-613 6,-20 11,-17 15,-15 17,-12 21,-5 21,0 20,5 19,12 15,15 10,17 5,20 0,613 -7,19 0,181 -143,0z" />
<path style="fill:#7fb2b2" d="M392,910 l0,-181 -8,-19 0,-613 4,-20 9,-17 13,-15 16,-12 15,-5 17,0 17,5 15,12 11,15 10,17 3,20 0,613 -5,19 0,181 -117,0z" />
<path style="fill:#87baba" d="M405,910 l0,-181 -6,-19 0,-613 4,-20 7,-17 8,-15 13,-12 12,-5 13,0 13,5 11,12 10,15 7,17 2,20 0,613 -4,19 0,181 -90,0z" />
<path style="fill:#91c4c4" d="M418,910 l0,-181 -4,-19 0,-613 2,-20 6,-17 5,-15 10,-12 7,-5 10,0 9,5 8,12 7,15 4,17 4,20 0,613 -4,19 0,181 -64,0z" />
<path style="fill:#9cc" d="M431,910 l0,-181 -2,-19 0,-613 2,-20 2,-17 4,-15 4,-12 5,-5 6,0 6,5 3,12 4,15 4,17 0,20 0,613 -2,19 0,181 -36,0z" />
<path style="fill:none;stroke:#000;stroke-width:2" d="M269,910 l0,-181 -20,-19 0,-613 14,-20 27,-17 36,-15 47,-12 51,-5 53,0 51,5 45,12 37,15 27,17 13,20 0,613 -21,19 0,181 -360,0" />
<path style="fill:none;stroke:#366;stroke-width:2" d="M629,733 l-11,3 -25,6 -34,4 -39,2 -47,2 -47,0 -46,-2 -41,-2 -34,-4 -25,-6 -11,-3" />
<path style="fill:none;stroke:#366;stroke-width:2" d="M650,710 l-13,4 -27,5 -37,4 -45,2 -51,2 -53,0 -51,-2 -47,-2 -36,-4 -27,-5 -14,-4" />
<path style="fill:none;stroke:#9cc;stroke-width:2" d="M650,705 l-13,5 -27,6 -37,3 -45,2 -51,2 -53,0 -51,-2 -45,-2 -38,-3 -27,-6 -13,-5" />
<path style="fill:none;stroke:#9cc;stroke-width:2" d="M629,729 l-11,4 -25,5 -34,4 -39,2 -47,2 -47,0 -46,-2 -41,-2 -34,-4 -25,-5 -11,-4" />
<path style="fill:#699" d="M49,925 l801,0 0,30 -801,0 0,-30z" />
<path style="fill:#366" d="M49,925 l801,0 0,15 -801,0 0,-15z" />
<path style="fill:#9cc" d="M28,925 l843,0 0,-15 -843,0 0,15z" />
<path style="fill:#9cc" d="M28,970 l843,0 0,-15 -843,0 0,15z" />
<path style="fill:none;stroke:#000;stroke-width:2" d="M28,970 l0,-15 21,0 0,-30 -21,0 0,-15 843,0 0,15 -21,0 0,30 21,0 0,15 -843,0" />
<circle style="fill:#e5e5e5;stroke:#000;stroke-width:2" cx="449" cy="488" r="20" />
<circle style="fill:#ccc;stroke:#000;stroke-width:2" cx="449" cy="590" r="20" />
<path style="fill:#366;stroke:#000;stroke-width:2" d="M429,127 l40,0 0,242 -40,0 0,-242z" />
<path style="fill:#366;stroke:#000;stroke-width:2" d="M569,228 l0,41 -100,0 0,-41 100,0z" />
<path style="fill:#366" d="M371,327 l-21,-28 -11,-34 0,-34 11,-34 21,-28 28,-21 32,-9 36,0 34,9 28,21 19,28 11,34 0,34 -11,34 -20,28 -27,21 -34,11 -36,0 -32,-11 -28,-21z" />
<circle style="fill:#457878" cx="449" cy="247" r="102" />
<circle style="fill:#548787" cx="447" cy="247" r="95" />
<circle style="fill:#699" cx="447" cy="245" r="88" />
<circle style="fill:#78abab" cx="445" cy="245" r="80" />
<circle style="fill:#87baba" cx="445" cy="243" r="70" />
<circle style="fill:#8fc2c2" cx="444" cy="243" r="45" />
<path style="fill:none;stroke:#000;stroke-width:2" d="M371,327 l-21,-28 -11,-34 0,-34 11,-34 21,-28 28,-21 32,-9 36,0 34,9 28,21 19,28 11,34 0,34 -11,34 -20,28 -27,21 -34,11 -36,0 -32,-11 -28,-21" />
<path style="fill:#ccc" d="M620,303 l160,0 0,156 -160,0 0,-156z" />
<path style="fill:#c7c7c7" d="M620,414 l160,-64 0,109 -160,0 0,-45z" />
<path style="fill:#c2c2c2" d="M620,420 l160,-64 0,103 -160,0 0,-39z" />
<path style="fill:#bdbdbd" d="M620,431 l160,-66 0,94 -160,0 0,-28z" />
<path style="fill:none;stroke:#000;stroke-width:2" d="M620,303 l160,0 0,156 -160,0 0,-156" />
<path style="fill:#e5e5e5" d="M635,318 l54,0 0,41 -54,0 0,-41z" />
<path style="fill:#999" d="M780,339 l21,0 0,571 -21,0 0,-571z" />
<path style="fill:#999;stroke:#000;stroke-width:2" d="M780,614 l0,21 -151,0 0,-21 151,0z" />
<path style="fill:#999" d="M780,490 l0,20 -151,0 0,-20 151,0z" />
<path style="fill:#999" d="M820,139 l0,15 -170,0 0,-15 170,0z" />
<path style="fill:#ccc" d="M820,143 l0,5 -170,0 0,-5 170,0z" />
<path style="fill:#ccc" d="M787,339 l6,0 0,571 -6,0 0,-571z" />
<path style="fill:#ccc" d="M780,495 l0,8 -151,0 0,-8 151,0z" />
<path style="fill:#ccc" d="M780,622 l0,5 -151,0 0,-5 151,0z" />
<path style="fill:none;stroke:#000;stroke-width:2" d="M780,339 l21,0 0,571 -21,0 0,-571" />
<path style="fill:none;stroke:#000;stroke-width:2" d="M780,490 l0,20 -151,0 0,-20 151,0" />
<path style="fill:none;stroke:#000;stroke-width:2" d="M820,139 l0,15 -170,0 0,-15 170,0" />
<path style="fill:none;stroke:#000;stroke-width:2" d="M780,409 l5,-7 3,-10 2,-12 1,-16 0,-17 0,-19 -1,-20 -1,-21 -1,-21 -1,-21 0,-19 1,-19 2,-17 3,-15 5,-12 6,-9" />
<path style="fill:#999" d="M756,130 l0,34 -42,0 0,-34 42,0z" />
<path style="fill:#ccc" d="M756,141 l0,11 -42,0 0,-11 42,0z" />
<path style="fill:none;stroke:#000;stroke-width:2" d="M756,130 l0,34 -42,0 0,-34 42,0" />
<path style="fill:#7f7f7f" d="M469,810 l377,0 0,49 -377,0 0,-49z" />
<path style="fill:#999" d="M469,814 l377,0 0,43 -377,0 0,-43z" />
<path style="fill:#b2b2b2" d="M469,818 l377,0 0,33 -377,0 0,-33z" />
<path style="fill:#ccc" d="M469,823 l377,0 0,23 -377,0 0,-23z" />
<path style="fill:#e5e5e5" d="M469,827 l377,0 0,15 -377,0 0,-15z" />
<path style="fill:#fff" d="M469,833 l377,0 0,5 -377,0 0,-5z" />
<path style="fill:none;stroke:#000;stroke-width:2" d="M469,810 l377,0 0,49 -377,0 0,-49" />
<path style="fill:#7f7f7f;stroke:#000;stroke-width:2" d="M550,810 l19,10 21,-10 -6,-6 -30,0 -4,6z" />
<path style="fill:#000;stroke:#000;stroke-width:2" d="M565,804 l10,0 0,-15 9,0 0,-3 -30,0 0,3 11,0 0,15z" />
<circle style="fill:#000;stroke:#000;stroke-width:2" cx="449" cy="669" r="10" />
<circle style="fill:#000;stroke:#000;stroke-width:2" cx="567" cy="665" r="8" />
<path style="fill:#000;stroke:#000;stroke-width:2" d="M686,439 l-4,-8 4,-8 9,0 4,8 -4,8 -9,0z" />
<path style="fill:#000;stroke:#000;stroke-width:2" d="M644,439 l-3,-8 3,-8 10,0 4,8 -4,8 -10,0z" />
<path style="fill:#000;stroke:#000;stroke-width:2" d="M731,439 l-3,-8 3,-8 9,0 5,8 -5,8 -9,0z" />

</svg>
