<svg xmlns="http://www.w3.org/2000/svg" xmlns:xlink="http://www.w3.org/1999/xlink" viewBox="0 0 256 137.95"><defs><style>.cls-1{isolation:isolate;}.cls-2{fill:url(#未命名的渐变_243);}.cls-3{fill:url(#未命名的渐变_1622);}.cls-4{fill:url(#未命名的渐变_1622-2);}.cls-5{fill:url(#未命名的渐变_1622-3);}.cls-6{fill:url(#未命名的渐变_1622-4);}.cls-7{fill:url(#未命名的渐变_1622-5);}.cls-8{fill:url(#未命名的渐变_1622-6);}.cls-9{fill:url(#未命名的渐变_1622-7);}.cls-10{fill:url(#未命名的渐变_1622-8);}.cls-11{fill:url(#未命名的渐变_1622-9);}.cls-12{fill:url(#未命名的渐变_1622-10);}.cls-13{fill:url(#未命名的渐变_1622-11);}.cls-14,.cls-17,.cls-26,.cls-29,.cls-30,.cls-38,.cls-39,.cls-45,.cls-48,.cls-49,.cls-57,.cls-58,.cls-64,.cls-67,.cls-68,.cls-76,.cls-77{opacity:0.3;mix-blend-mode:multiply;}.cls-14{fill:url(#未命名的渐变_464);}.cls-15{fill:url(#未命名的渐变_243-2);}.cls-16{fill:url(#未命名的渐变_243-3);}.cls-17{fill:url(#未命名的渐变_464-2);}.cls-18{fill:url(#未命名的渐变_243-4);}.cls-19{fill:#1a1a33;}.cls-20{fill:url(#未命名的渐变_1623);}.cls-21{fill:url(#未命名的渐变_1631);}.cls-22{fill:url(#未命名的渐变_1631-2);}.cls-23{fill:url(#未命名的渐变_1631-3);}.cls-24,.cls-43,.cls-62{stroke-miterlimit:10;stroke-width:0.5px;}.cls-24{fill:url(#未命名的渐变_979);stroke:url(#未命名的渐变_978);}.cls-25{fill:url(#未命名的渐变_243-5);}.cls-26{fill:url(#未命名的渐变_464-3);}.cls-27{fill:url(#未命名的渐变_243-6);}.cls-28{fill:url(#未命名的渐变_1631-4);}.cls-29{fill:url(#未命名的渐变_464-4);}.cls-30{fill:url(#未命名的渐变_464-5);}.cls-31{fill:url(#未命名的渐变_1609);}.cls-32{fill:url(#未命名的渐变_1609-2);}.cls-33{fill:url(#未命名的渐变_243-7);}.cls-34{fill:url(#未命名的渐变_243-8);}.cls-35{fill:url(#未命名的渐变_243-9);}.cls-36{fill:url(#未命名的渐变_243-10);}.cls-37{fill:url(#未命名的渐变_1631-5);}.cls-38{fill:url(#未命名的渐变_464-6);}.cls-39{fill:url(#未命名的渐变_464-7);}.cls-40{fill:url(#未命名的渐变_1631-6);}.cls-41{fill:url(#未命名的渐变_1631-7);}.cls-42{fill:url(#未命名的渐变_1631-8);}.cls-43{fill:url(#未命名的渐变_979-2);stroke:url(#未命名的渐变_978-2);}.cls-44{fill:url(#未命名的渐变_243-11);}.cls-45{fill:url(#未命名的渐变_464-8);}.cls-46{fill:url(#未命名的渐变_243-12);}.cls-47{fill:url(#未命名的渐变_1631-9);}.cls-48{fill:url(#未命名的渐变_464-9);}.cls-49{fill:url(#未命名的渐变_464-10);}.cls-50{fill:url(#未命名的渐变_1609-3);}.cls-51{fill:url(#未命名的渐变_1609-4);}.cls-52{fill:url(#未命名的渐变_243-13);}.cls-53{fill:url(#未命名的渐变_243-14);}.cls-54{fill:url(#未命名的渐变_243-15);}.cls-55{fill:url(#未命名的渐变_243-16);}.cls-56{fill:url(#未命名的渐变_1631-10);}.cls-57{fill:url(#未命名的渐变_464-11);}.cls-58{fill:url(#未命名的渐变_464-12);}.cls-59{fill:url(#未命名的渐变_1631-11);}.cls-60{fill:url(#未命名的渐变_1631-12);}.cls-61{fill:url(#未命名的渐变_1631-13);}.cls-62{fill:url(#未命名的渐变_979-3);stroke:url(#未命名的渐变_978-3);}.cls-63{fill:url(#未命名的渐变_243-17);}.cls-64{fill:url(#未命名的渐变_464-13);}.cls-65{fill:url(#未命名的渐变_243-18);}.cls-66{fill:url(#未命名的渐变_1631-14);}.cls-67{fill:url(#未命名的渐变_464-14);}.cls-68{fill:url(#未命名的渐变_464-15);}.cls-69{fill:url(#未命名的渐变_1609-5);}.cls-70{fill:url(#未命名的渐变_1609-6);}.cls-71{fill:url(#未命名的渐变_243-19);}.cls-72{fill:url(#未命名的渐变_243-20);}.cls-73{fill:url(#未命名的渐变_243-21);}.cls-74{fill:url(#未命名的渐变_243-22);}.cls-75{fill:url(#未命名的渐变_1631-15);}.cls-76{fill:url(#未命名的渐变_464-16);}.cls-77{fill:url(#未命名的渐变_464-17);}.cls-78{opacity:0.2;}.cls-79{fill:#fff;}</style><linearGradient id="未命名的渐变_243" x1="1.03" y1="55.1" x2="254.97" y2="55.1" gradientUnits="userSpaceOnUse"><stop offset="0" stop-color="#9dadff"/><stop offset="0.02" stop-color="#d2d9f7"/><stop offset="0.04" stop-color="#d2d9f7"/><stop offset="0.98" stop-color="#7580c0"/><stop offset="1" stop-color="#8795dc"/></linearGradient><linearGradient id="未命名的渐变_1622" x1="126.12" y1="55.1" x2="129.82" y2="55.1" gradientUnits="userSpaceOnUse"><stop offset="0" stop-color="#b7c3ff"/><stop offset="0.08" stop-color="#d3daff"/><stop offset="0.09" stop-color="#e4e7ff"/><stop offset="0.1" stop-color="#b1bbef" stop-opacity="0"/><stop offset="0.9" stop-color="#9dadff" stop-opacity="0"/><stop offset="0.92" stop-color="#7580c0"/><stop offset="0.98" stop-color="#7580c0"/><stop offset="1" stop-color="#7580c0"/></linearGradient><linearGradient id="未命名的渐变_1622-2" x1="134.65" y1="55.1" x2="138.35" y2="55.1" xlink:href="#未命名的渐变_1622"/><linearGradient id="未命名的渐变_1622-3" x1="143.18" y1="55.1" x2="146.88" y2="55.1" xlink:href="#未命名的渐变_1622"/><linearGradient id="未命名的渐变_1622-4" x1="232.15" y1="55.1" x2="235.85" y2="55.1" xlink:href="#未命名的渐变_1622"/><linearGradient id="未命名的渐变_1622-5" x1="240.68" y1="55.1" x2="244.39" y2="55.1" xlink:href="#未命名的渐变_1622"/><linearGradient id="未命名的渐变_1622-6" x1="249.21" y1="55.1" x2="252.92" y2="55.1" xlink:href="#未命名的渐变_1622"/><linearGradient id="未命名的渐变_1622-7" x1="117.59" y1="55.1" x2="121.29" y2="55.1" xlink:href="#未命名的渐变_1622"/><linearGradient id="未命名的渐变_1622-8" x1="109.05" y1="55.1" x2="112.76" y2="55.1" xlink:href="#未命名的渐变_1622"/><linearGradient id="未命名的渐变_1622-9" x1="20.08" y1="55.1" x2="23.79" y2="55.1" xlink:href="#未命名的渐变_1622"/><linearGradient id="未命名的渐变_1622-10" x1="11.55" y1="55.1" x2="15.26" y2="55.1" xlink:href="#未命名的渐变_1622"/><linearGradient id="未命名的渐变_1622-11" x1="3.02" y1="55.1" x2="6.72" y2="55.1" xlink:href="#未命名的渐变_1622"/><linearGradient id="未命名的渐变_464" x1="128" y1="3.29" x2="128" y2="1.5" gradientUnits="userSpaceOnUse"><stop offset="0" stop-color="#060ea4" stop-opacity="0"/><stop offset="1" stop-color="#060ea4" stop-opacity="0.6"/></linearGradient><linearGradient id="未命名的渐变_243-2" x1="0" y1="0.75" x2="256" y2="0.75" xlink:href="#未命名的渐变_243"/><linearGradient id="未命名的渐变_243-3" x1="9.64" y1="118.94" x2="246.36" y2="118.94" xlink:href="#未命名的渐变_243"/><linearGradient id="未命名的渐变_464-2" x1="128" y1="113.15" x2="128" y2="111.36" xlink:href="#未命名的渐变_464"/><linearGradient id="未命名的渐变_243-4" x1="0" y1="110.61" x2="256" y2="110.61" xlink:href="#未命名的渐变_243"/><linearGradient id="未命名的渐变_1623" x1="128" y1="137.95" x2="128" y2="126.09" gradientUnits="userSpaceOnUse"><stop offset="0" stop-color="#8795dc"/><stop offset="0.1" stop-color="#7580c0"/><stop offset="0.75" stop-color="#fff"/><stop offset="0.85" stop-color="#fff"/><stop offset="1" stop-color="#9dadff"/></linearGradient><linearGradient id="未命名的渐变_1631" x1="109.68" y1="126.74" x2="146.32" y2="126.74" gradientUnits="userSpaceOnUse"><stop offset="0" stop-color="#9dadff"/><stop offset="0.15" stop-color="#fff"/><stop offset="0.25" stop-color="#fff"/><stop offset="0.9" stop-color="#7580c0"/><stop offset="1" stop-color="#8795dc"/></linearGradient><linearGradient id="未命名的渐变_1631-2" x1="103.19" y1="122.06" x2="152.81" y2="122.06" xlink:href="#未命名的渐变_1631"/><linearGradient id="未命名的渐变_1631-3" x1="103.19" y1="111.61" x2="152.81" y2="111.61" xlink:href="#未命名的渐变_1631"/><linearGradient id="未命名的渐变_979" x1="112.53" y1="111.61" x2="143.47" y2="111.61" gradientTransform="translate(239.61 -16.39) rotate(90)" gradientUnits="userSpaceOnUse"><stop offset="0" stop-color="#b2bded"/><stop offset="1" stop-color="#bfc7e9"/></linearGradient><linearGradient id="未命名的渐变_978" x1="139.56" y1="123.17" x2="116.44" y2="100.06" gradientTransform="translate(239.61 -16.39) rotate(90)" gradientUnits="userSpaceOnUse"><stop offset="0" stop-color="#6774b6"/><stop offset="1" stop-color="#fff"/></linearGradient><linearGradient id="未命名的渐变_243-5" x1="112.53" y1="101.74" x2="143.47" y2="101.74" gradientTransform="translate(229.74 -26.26) rotate(90)" xlink:href="#未命名的渐变_243"/><linearGradient id="未命名的渐变_464-3" x1="128" y1="101.6" x2="128" y2="101.23" gradientTransform="translate(229.41 -26.59) rotate(90)" xlink:href="#未命名的渐变_464"/><linearGradient id="未命名的渐变_243-6" x1="111.47" y1="95.39" x2="144.53" y2="95.39" gradientTransform="translate(223.39 -32.61) rotate(90)" xlink:href="#未命名的渐变_243"/><linearGradient id="未命名的渐变_1631-4" x1="114.84" y1="84.82" x2="141.16" y2="84.82" gradientTransform="translate(212.82 -43.18) rotate(90)" xlink:href="#未命名的渐变_1631"/><linearGradient id="未命名的渐变_464-4" x1="128" y1="80.48" x2="128" y2="80.1" gradientTransform="translate(208.29 -47.71) rotate(90)" xlink:href="#未命名的渐变_464"/><linearGradient id="未命名的渐变_464-5" x1="128" y1="90.39" x2="128" y2="89.55" gradientTransform="translate(217.97 -38.03) rotate(90)" xlink:href="#未命名的渐变_464"/><linearGradient id="未命名的渐变_1609" x1="112.4" y1="89.25" x2="143.6" y2="89.25" gradientTransform="translate(217.25 -38.75) rotate(90)" gradientUnits="userSpaceOnUse"><stop offset="0" stop-color="#7d8cd2"/><stop offset="0.15" stop-color="#cdd0ec"/><stop offset="0.25" stop-color="#cdd0ec"/><stop offset="0.9" stop-color="#6472bf"/><stop offset="1" stop-color="#7b89cf"/></linearGradient><linearGradient id="未命名的渐变_1609-2" x1="112.4" y1="79.8" x2="143.6" y2="79.8" gradientTransform="translate(207.8 -48.2) rotate(90)" xlink:href="#未命名的渐变_1609"/><linearGradient id="未命名的渐变_243-7" x1="120.95" y1="101.74" x2="122.59" y2="101.74" gradientTransform="translate(223.51 -20.03) rotate(90)" xlink:href="#未命名的渐变_243"/><linearGradient id="未命名的渐变_243-8" x1="103.19" y1="101.74" x2="112.53" y2="101.74" xlink:href="#未命名的渐变_243"/><linearGradient id="未命名的渐变_243-9" x1="1296.88" y1="101.74" x2="1306.22" y2="101.74" gradientTransform="matrix(-1, 0, 0, 1, 1449.69, 0)" xlink:href="#未命名的渐变_243"/><linearGradient id="未命名的渐变_243-10" x1="133.41" y1="101.74" x2="135.05" y2="101.74" gradientTransform="translate(235.97 -32.49) rotate(90)" xlink:href="#未命名的渐变_243"/><linearGradient id="未命名的渐变_1631-5" x1="109.68" y1="121.42" x2="146.32" y2="121.42" xlink:href="#未命名的渐变_1631"/><linearGradient id="未命名的渐变_464-6" x1="128" y1="121.87" x2="128" y2="120.98" xlink:href="#未命名的渐变_464"/><linearGradient id="未命名的渐变_464-7" x1="128" y1="123.15" x2="128" y2="122.25" xlink:href="#未命名的渐变_464"/><linearGradient id="未命名的渐变_1631-6" x1="7.53" y1="126.74" x2="44.16" y2="126.74" xlink:href="#未命名的渐变_1631"/><linearGradient id="未命名的渐变_1631-7" x1="1.03" y1="122.06" x2="50.66" y2="122.06" xlink:href="#未命名的渐变_1631"/><linearGradient id="未命名的渐变_1631-8" x1="1.03" y1="111.61" x2="50.66" y2="111.61" xlink:href="#未命名的渐变_1631"/><linearGradient id="未命名的渐变_979-2" x1="10.37" y1="111.61" x2="41.31" y2="111.61" gradientTransform="translate(137.46 85.77) rotate(90)" xlink:href="#未命名的渐变_979"/><linearGradient id="未命名的渐变_978-2" x1="37.4" y1="123.17" x2="14.29" y2="100.06" gradientTransform="translate(137.46 85.77) rotate(90)" xlink:href="#未命名的渐变_978"/><linearGradient id="未命名的渐变_243-11" x1="10.37" y1="101.74" x2="41.31" y2="101.74" gradientTransform="translate(127.58 75.9) rotate(90)" xlink:href="#未命名的渐变_243"/><linearGradient id="未命名的渐变_464-8" x1="25.84" y1="101.6" x2="25.84" y2="101.23" gradientTransform="translate(127.26 75.57) rotate(90)" xlink:href="#未命名的渐变_464"/><linearGradient id="未命名的渐变_243-12" x1="9.32" y1="95.39" x2="42.37" y2="95.39" gradientTransform="translate(121.23 69.55) rotate(90)" xlink:href="#未命名的渐变_243"/><linearGradient id="未命名的渐变_1631-9" x1="12.68" y1="84.82" x2="39" y2="84.82" gradientTransform="translate(110.67 58.98) rotate(90)" xlink:href="#未命名的渐变_1631"/><linearGradient id="未命名的渐变_464-9" x1="25.84" y1="80.48" x2="25.84" y2="80.1" gradientTransform="translate(106.13 54.44) rotate(90)" xlink:href="#未命名的渐变_464"/><linearGradient id="未命名的渐变_464-10" x1="25.84" y1="90.39" x2="25.84" y2="89.55" gradientTransform="translate(115.81 64.12) rotate(90)" xlink:href="#未命名的渐变_464"/><linearGradient id="未命名的渐变_1609-3" x1="10.24" y1="89.25" x2="41.45" y2="89.25" gradientTransform="translate(115.1 63.41) rotate(90)" xlink:href="#未命名的渐变_1609"/><linearGradient id="未命名的渐变_1609-4" x1="10.24" y1="79.8" x2="41.45" y2="79.8" gradientTransform="translate(105.64 53.96) rotate(90)" xlink:href="#未命名的渐变_1609"/><linearGradient id="未命名的渐变_243-13" x1="18.79" y1="101.74" x2="20.43" y2="101.74" gradientTransform="translate(121.35 82.13) rotate(90)" xlink:href="#未命名的渐变_243"/><linearGradient id="未命名的渐变_243-14" x1="1.03" y1="101.74" x2="10.37" y2="101.74" xlink:href="#未命名的渐变_243"/><linearGradient id="未命名的渐变_243-15" x1="1399.03" y1="101.74" x2="1408.38" y2="101.74" gradientTransform="matrix(-1, 0, 0, 1, 1449.69, 0)" xlink:href="#未命名的渐变_243"/><linearGradient id="未命名的渐变_243-16" x1="31.26" y1="101.74" x2="32.89" y2="101.74" gradientTransform="translate(133.81 69.67) rotate(90)" xlink:href="#未命名的渐变_243"/><linearGradient id="未命名的渐变_1631-10" x1="7.53" y1="121.42" x2="44.16" y2="121.42" xlink:href="#未命名的渐变_1631"/><linearGradient id="未命名的渐变_464-11" x1="25.84" y1="121.87" x2="25.84" y2="120.98" xlink:href="#未命名的渐变_464"/><linearGradient id="未命名的渐变_464-12" x1="25.84" y1="123.15" x2="25.84" y2="122.25" xlink:href="#未命名的渐变_464"/><linearGradient id="未命名的渐变_1631-11" x1="211.84" y1="126.74" x2="248.47" y2="126.74" xlink:href="#未命名的渐变_1631"/><linearGradient id="未命名的渐变_1631-12" x1="205.34" y1="122.06" x2="254.97" y2="122.06" xlink:href="#未命名的渐变_1631"/><linearGradient id="未命名的渐变_1631-13" x1="205.34" y1="111.61" x2="254.97" y2="111.61" xlink:href="#未命名的渐变_1631"/><linearGradient id="未命名的渐变_979-3" x1="214.69" y1="111.61" x2="245.63" y2="111.61" gradientTransform="translate(341.77 -118.54) rotate(90)" xlink:href="#未命名的渐变_979"/><linearGradient id="未命名的渐变_978-3" x1="241.71" y1="123.17" x2="218.6" y2="100.06" gradientTransform="translate(341.77 -118.54) rotate(90)" xlink:href="#未命名的渐变_978"/><linearGradient id="未命名的渐变_243-17" x1="214.69" y1="101.74" x2="245.63" y2="101.74" gradientTransform="translate(331.9 -128.42) rotate(90)" xlink:href="#未命名的渐变_243"/><linearGradient id="未命名的渐变_464-13" x1="230.16" y1="101.6" x2="230.16" y2="101.23" gradientTransform="translate(331.57 -128.74) rotate(90)" xlink:href="#未命名的渐变_464"/><linearGradient id="未命名的渐变_243-18" x1="213.63" y1="95.39" x2="246.68" y2="95.39" gradientTransform="translate(325.55 -134.77) rotate(90)" xlink:href="#未命名的渐变_243"/><linearGradient id="未命名的渐变_1631-14" x1="217" y1="84.82" x2="243.32" y2="84.82" gradientTransform="translate(314.98 -145.33) rotate(90)" xlink:href="#未命名的渐变_1631"/><linearGradient id="未命名的渐变_464-14" x1="230.16" y1="80.48" x2="230.16" y2="80.1" gradientTransform="translate(310.44 -149.87) rotate(90)" xlink:href="#未命名的渐变_464"/><linearGradient id="未命名的渐变_464-15" x1="230.16" y1="90.39" x2="230.16" y2="89.55" gradientTransform="translate(320.12 -140.19) rotate(90)" xlink:href="#未命名的渐变_464"/><linearGradient id="未命名的渐变_1609-5" x1="214.55" y1="89.25" x2="245.76" y2="89.25" gradientTransform="translate(319.41 -140.9) rotate(90)" xlink:href="#未命名的渐变_1609"/><linearGradient id="未命名的渐变_1609-6" x1="214.55" y1="79.8" x2="245.76" y2="79.8" gradientTransform="translate(309.96 -150.36) rotate(90)" xlink:href="#未命名的渐变_1609"/><linearGradient id="未命名的渐变_243-19" x1="223.11" y1="101.74" x2="224.74" y2="101.74" gradientTransform="translate(325.67 -122.19) rotate(90)" xlink:href="#未命名的渐变_243"/><linearGradient id="未命名的渐变_243-20" x1="205.34" y1="101.74" x2="214.69" y2="101.74" xlink:href="#未命名的渐变_243"/><linearGradient id="未命名的渐变_243-21" x1="1194.72" y1="101.74" x2="1204.07" y2="101.74" gradientTransform="matrix(-1, 0, 0, 1, 1449.69, 0)" xlink:href="#未命名的渐变_243"/><linearGradient id="未命名的渐变_243-22" x1="235.57" y1="101.74" x2="237.21" y2="101.74" gradientTransform="translate(338.13 -134.65) rotate(90)" xlink:href="#未命名的渐变_243"/><linearGradient id="未命名的渐变_1631-15" x1="211.84" y1="121.42" x2="248.47" y2="121.42" xlink:href="#未命名的渐变_1631"/><linearGradient id="未命名的渐变_464-16" x1="230.16" y1="121.87" x2="230.16" y2="120.98" xlink:href="#未命名的渐变_464"/><linearGradient id="未命名的渐变_464-17" x1="230.16" y1="123.15" x2="230.16" y2="122.25" xlink:href="#未命名的渐变_464"/></defs><title>RTO主机</title><g class="cls-1"><g id="图层_2" data-name="图层 2"><g id="废气处理"><g id="RTO主机"><rect class="cls-2" x="1.03" width="253.94" height="110.2"/><rect class="cls-3" x="126.12" width="3.7" height="110.2"/><rect class="cls-4" x="134.65" width="3.7" height="110.2"/><rect class="cls-5" x="143.18" width="3.7" height="110.2"/><rect class="cls-6" x="232.15" width="3.7" height="110.2"/><rect class="cls-7" x="240.68" width="3.7" height="110.2"/><rect class="cls-8" x="249.21" width="3.7" height="110.2"/><rect class="cls-9" x="117.59" width="3.7" height="110.2"/><rect class="cls-10" x="109.05" width="3.7" height="110.2"/><rect class="cls-11" x="20.08" width="3.7" height="110.2"/><rect class="cls-12" x="11.55" width="3.7" height="110.2"/><rect class="cls-13" x="3.02" width="3.7" height="110.2"/><rect class="cls-14" x="1.03" y="1.5" width="253.94" height="1.79"/><rect class="cls-15" width="256" height="1.5"/><polygon class="cls-16" points="241.81 127.68 14.19 127.68 9.64 110.2 246.36 110.2 241.81 127.68"/><rect class="cls-17" x="1.03" y="111.36" width="253.94" height="1.79"/><rect class="cls-18" y="109.86" width="256" height="1.5"/><rect class="cls-19" x="8.31" y="7.28" width="239.38" height="72.22" rx="4"/><rect class="cls-20" y="126.09" width="256" height="11.86"/><path class="cls-21" d="M123.86,130.8l-14.18-3.73v-4.82h36.64v4.82l-14.18,3.73A19.92,19.92,0,0,1,123.86,130.8Z"/><rect class="cls-22" x="103.19" y="121.87" width="49.63" height="0.38"/><rect class="cls-23" x="103.19" y="102.25" width="49.63" height="18.73"/><rect class="cls-24" x="120.85" y="96.15" width="14.3" height="30.94" transform="translate(16.39 239.61) rotate(-90)"/><rect class="cls-25" x="127.49" y="86.27" width="1.02" height="30.94" transform="translate(26.26 229.74) rotate(-90)"/><rect class="cls-26" x="127.82" y="85.94" width="0.37" height="30.94" transform="translate(26.59 229.41) rotate(-90)"/><rect class="cls-27" x="122.16" y="78.86" width="11.68" height="33.05" transform="translate(32.61 223.39) rotate(-90)"/><rect class="cls-28" x="123.27" y="71.66" width="9.45" height="26.32" transform="translate(43.18 212.82) rotate(-90)"/><rect class="cls-29" x="127.81" y="67.13" width="0.38" height="26.32" transform="translate(47.71 208.29) rotate(-90)"/><rect class="cls-30" x="127.58" y="73.44" width="0.84" height="33.05" transform="translate(38.03 217.97) rotate(-90)"/><rect class="cls-31" x="127.7" y="73.65" width="0.6" height="31.21" transform="translate(38.75 217.25) rotate(-90)"/><rect class="cls-32" x="127.7" y="64.2" width="0.6" height="31.21" transform="translate(48.2 207.8) rotate(-90)"/><rect class="cls-33" x="121.26" y="100.92" width="1.02" height="1.64" transform="translate(20.03 223.51) rotate(-90)"/><polygon class="cls-34" points="103.19 102.25 103.19 101.93 112.53 101.23 112.53 102.25 103.19 102.25"/><polygon class="cls-35" points="152.81 102.25 152.81 101.93 143.47 101.23 143.47 102.25 152.81 102.25"/><rect class="cls-36" x="133.72" y="100.92" width="1.02" height="1.64" transform="translate(32.49 235.97) rotate(-90)"/><rect class="cls-37" x="109.68" y="120.98" width="36.64" height="0.89"/><rect class="cls-38" x="109.68" y="120.98" width="36.64" height="0.89"/><rect class="cls-39" x="109.68" y="122.25" width="36.64" height="0.89"/><path class="cls-40" d="M21.7,130.8,7.53,127.07v-4.82H44.16v4.82L30,130.8A20,20,0,0,1,21.7,130.8Z"/><rect class="cls-41" x="1.03" y="121.87" width="49.63" height="0.38"/><rect class="cls-42" x="1.03" y="102.25" width="49.63" height="18.73"/><rect class="cls-43" x="18.7" y="96.15" width="14.3" height="30.94" transform="translate(-85.77 137.46) rotate(-90)"/><rect class="cls-44" x="25.33" y="86.27" width="1.02" height="30.94" transform="translate(-75.9 127.58) rotate(-90)"/><rect class="cls-45" x="25.66" y="85.94" width="0.37" height="30.94" transform="translate(-75.57 127.26) rotate(-90)"/><rect class="cls-46" x="20" y="78.86" width="11.68" height="33.05" transform="translate(-69.55 121.23) rotate(-90)"/><rect class="cls-47" x="21.12" y="71.66" width="9.45" height="26.32" transform="translate(-58.98 110.67) rotate(-90)"/><rect class="cls-48" x="25.66" y="67.13" width="0.38" height="26.32" transform="translate(-54.44 106.13) rotate(-90)"/><rect class="cls-49" x="25.43" y="73.44" width="0.84" height="33.05" transform="translate(-64.12 115.81) rotate(-90)"/><rect class="cls-50" x="25.55" y="73.65" width="0.6" height="31.21" transform="translate(-63.41 115.1) rotate(-90)"/><rect class="cls-51" x="25.55" y="64.2" width="0.6" height="31.21" transform="translate(-53.96 105.64) rotate(-90)"/><rect class="cls-52" x="19.1" y="100.92" width="1.02" height="1.64" transform="translate(-82.13 121.35) rotate(-90)"/><polygon class="cls-53" points="1.03 102.25 1.03 101.93 10.38 101.23 10.38 102.25 1.03 102.25"/><polygon class="cls-54" points="50.66 102.25 50.66 101.93 41.31 101.23 41.31 102.25 50.66 102.25"/><rect class="cls-55" x="31.56" y="100.92" width="1.02" height="1.64" transform="translate(-69.67 133.81) rotate(-90)"/><rect class="cls-56" x="7.53" y="120.98" width="36.64" height="0.89"/><rect class="cls-57" x="7.53" y="120.98" width="36.64" height="0.89"/><rect class="cls-58" x="7.53" y="122.25" width="36.64" height="0.89"/><path class="cls-59" d="M226,130.8l-14.17-3.73v-4.82h36.63v4.82L234.3,130.8A20,20,0,0,1,226,130.8Z"/><rect class="cls-60" x="205.34" y="121.87" width="49.63" height="0.38"/><rect class="cls-61" x="205.34" y="102.25" width="49.63" height="18.73"/><rect class="cls-62" x="223.01" y="96.15" width="14.3" height="30.94" transform="translate(118.54 341.77) rotate(-90)"/><rect class="cls-63" x="229.65" y="86.27" width="1.02" height="30.94" transform="translate(128.42 331.9) rotate(-90)"/><rect class="cls-64" x="229.97" y="85.94" width="0.37" height="30.94" transform="translate(128.74 331.57) rotate(-90)"/><rect class="cls-65" x="224.32" y="78.86" width="11.68" height="33.05" transform="translate(134.77 325.55) rotate(-90)"/><rect class="cls-66" x="225.43" y="71.66" width="9.45" height="26.32" transform="translate(145.33 314.98) rotate(-90)"/><rect class="cls-67" x="229.97" y="67.13" width="0.38" height="26.32" transform="translate(149.87 310.44) rotate(-90)"/><rect class="cls-68" x="229.74" y="73.44" width="0.84" height="33.05" transform="translate(140.19 320.12) rotate(-90)"/><rect class="cls-69" x="229.86" y="73.65" width="0.6" height="31.21" transform="translate(140.9 319.41) rotate(-90)"/><rect class="cls-70" x="229.86" y="64.2" width="0.6" height="31.21" transform="translate(150.36 309.96) rotate(-90)"/><rect class="cls-71" x="223.42" y="100.92" width="1.02" height="1.64" transform="translate(122.19 325.67) rotate(-90)"/><polygon class="cls-72" points="205.34 102.25 205.34 101.93 214.69 101.23 214.69 102.25 205.34 102.25"/><polygon class="cls-73" points="254.97 102.25 254.97 101.93 245.63 101.23 245.63 102.25 254.97 102.25"/><rect class="cls-74" x="235.88" y="100.92" width="1.02" height="1.64" transform="translate(134.65 338.13) rotate(-90)"/><rect class="cls-75" x="211.84" y="120.98" width="36.64" height="0.89"/><rect class="cls-76" x="211.84" y="120.98" width="36.64" height="0.89"/><rect class="cls-77" x="211.84" y="122.25" width="36.64" height="0.89"/>
</g></g></g></g></svg>