<svg xmlns="http://www.w3.org/2000/svg" xmlns:xlink="http://www.w3.org/1999/xlink" viewBox="0 0 181.93 256"><defs><style>.cls-1{isolation:isolate;}.cls-2{fill:url(#未命名的渐变_612);}.cls-3{fill:url(#未命名的渐变_516);}.cls-4{fill:url(#未命名的渐变_41);}.cls-5{fill:url(#未命名的渐变_41-2);}.cls-6{fill:url(#未命名的渐变_517);}.cls-7{fill:url(#未命名的渐变_517-2);}.cls-8{fill:url(#未命名的渐变_517-3);}.cls-9{fill:url(#未命名的渐变_518);}.cls-10{opacity:0.8;}.cls-10,.cls-13{mix-blend-mode:multiply;}.cls-11{fill:#040966;}.cls-12{fill:url(#未命名的渐变_517-4);}.cls-13{opacity:0.3;fill:url(#未命名的渐变_126);}.cls-14{fill:url(#未命名的渐变_517-5);}.cls-15{fill:url(#未命名的渐变_518-2);}.cls-16{fill:url(#未命名的渐变_20);}.cls-17{fill:url(#未命名的渐变_41-3);}.cls-18{opacity:0.2;}.cls-19{fill:#fff;}</style><linearGradient id="未命名的渐变_612" x1="90.96" y1="138.63" x2="90.96" y2="64.17" gradientUnits="userSpaceOnUse"><stop offset="0" stop-color="#14288a"/><stop offset="0.02" stop-color="#212c9e"/><stop offset="0.98" stop-color="#2f379e"/><stop offset="0.99" stop-color="#3b56bd"/><stop offset="1" stop-color="#14288a"/></linearGradient><linearGradient id="未命名的渐变_516" x1="90.96" y1="142.8" x2="90.96" y2="60" gradientUnits="userSpaceOnUse"><stop offset="0" stop-color="#2740bb"/><stop offset="0.02" stop-color="#414ed5"/><stop offset="0.98" stop-color="#5e67d5"/><stop offset="0.99" stop-color="#7692ff"/><stop offset="1" stop-color="#2740bb"/></linearGradient><linearGradient id="未命名的渐变_41" x1="90.96" y1="142.8" x2="90.96" y2="60" gradientUnits="userSpaceOnUse"><stop offset="0" stop-color="#8795dc"/><stop offset="0.02" stop-color="#7580c0"/><stop offset="0.96" stop-color="#d2d9f7"/><stop offset="0.98" stop-color="#d2d9f7"/><stop offset="1" stop-color="#9dadff"/></linearGradient><linearGradient id="未命名的渐变_41-2" x1="90.96" y1="33.61" x2="90.96" y2="11.2" xlink:href="#未命名的渐变_41"/><linearGradient id="未命名的渐变_517" x1="72.78" y1="41.28" x2="80.71" y2="41.28" gradientUnits="userSpaceOnUse"><stop offset="0" stop-color="#9dadff"/><stop offset="0.15" stop-color="#fff"/><stop offset="0.25" stop-color="#fff"/><stop offset="0.9" stop-color="#7580c0"/><stop offset="1" stop-color="#8795dc"/></linearGradient><linearGradient id="未命名的渐变_517-2" x1="84.83" y1="46.81" x2="97.1" y2="46.81" xlink:href="#未命名的渐变_517"/><linearGradient id="未命名的渐变_517-3" x1="101.22" y1="41.28" x2="109.15" y2="41.28" xlink:href="#未命名的渐变_517"/><linearGradient id="未命名的渐变_518" x1="119.19" y1="27.12" x2="63.07" y2="-5.28" gradientUnits="userSpaceOnUse"><stop offset="0" stop-color="#8795dc"/><stop offset="0.1" stop-color="#7580c0"/><stop offset="0.75" stop-color="#fff"/><stop offset="0.85" stop-color="#fff"/><stop offset="1" stop-color="#9dadff"/></linearGradient><linearGradient id="未命名的渐变_517-4" x1="70.21" y1="163.55" x2="111.72" y2="163.55" xlink:href="#未命名的渐变_517"/><linearGradient id="未命名的渐变_126" x1="90.96" y1="158.84" x2="90.96" y2="150.69" gradientUnits="userSpaceOnUse"><stop offset="0" stop-color="#060ea4" stop-opacity="0"/><stop offset="1" stop-color="#060ea4" stop-opacity="0.6"/></linearGradient><linearGradient id="未命名的渐变_517-5" x1="61.98" y1="146.75" x2="119.95" y2="146.75" xlink:href="#未命名的渐变_517"/><linearGradient id="未命名的渐变_518-2" x1="90.96" y1="256" x2="90.96" y2="178.79" xlink:href="#未命名的渐变_518"/><linearGradient id="未命名的渐变_20" x1="90.96" y1="201.63" x2="90.96" y2="166.98" gradientUnits="userSpaceOnUse"><stop offset="0" stop-color="#b2bded"/><stop offset="1" stop-color="#dbe1ff"/></linearGradient><linearGradient id="未命名的渐变_41-3" x1="90.96" y1="59.98" x2="90.96" y2="40.56" xlink:href="#未命名的渐变_41"/></defs><title>信号</title><g class="cls-1"><g id="图层_2" data-name="图层 2"><g id="废气处理"><g id="信号"><g id="_编组_" data-name="&lt;编组&gt;"><rect class="cls-2" y="64.17" width="181.93" height="74.46"/><rect class="cls-3" x="6.68" y="60" width="168.57" height="82.8"/><rect class="cls-4" x="18.01" y="60" width="145.91" height="82.8"/><rect class="cls-5" x="50.08" y="11.2" width="81.77" height="22.41"/><rect class="cls-6" x="72.78" y="33.61" width="7.93" height="15.33"/><rect class="cls-7" x="84.83" y="33.61" width="12.27" height="26.39"/><rect class="cls-8" x="101.22" y="33.61" width="7.93" height="15.33"/><path class="cls-9" d="M128.38,11.2H53.55S64.36,0,91,0,128.38,11.2,128.38,11.2Z"/><g class="cls-10"><rect class="cls-11" x="50.08" y="17.5" width="81.77" height="0.66"/></g><rect class="cls-12" x="70.21" y="142.8" width="41.5" height="41.5"/><rect class="cls-13" x="70.21" y="150.69" width="41.5" height="8.14"/><rect class="cls-14" x="61.98" y="142.8" width="57.97" height="7.9"/><rect class="cls-15" x="63.87" y="178.79" width="54.18" height="77.21"/><rect class="cls-16" x="85.92" y="166.98" width="10.08" height="34.65"/><path class="cls-17" d="M120.06,60h-4.83a2.66,2.66,0,0,1-2.65-2.66V44.54a1.33,1.33,0,0,0-1.33-1.32H70.68a1.32,1.32,0,0,0-1.33,1.32V57.32A2.66,2.66,0,0,1,66.69,60H61.87V57.32h4.82V44.54a4,4,0,0,1,4-4h40.57a4,4,0,0,1,4,4V57.32h4.83Z"/></g>
</g></g></g></g></svg>