<svg xmlns="http://www.w3.org/2000/svg" xmlns:xlink="http://www.w3.org/1999/xlink" viewBox="0 0 113.91 256"><defs><style>.cls-1{isolation:isolate;}.cls-2{fill:url(#未命名的渐变_202);}.cls-3{fill:url(#未命名的渐变_202-2);}.cls-4{fill:url(#未命名的渐变_45);}.cls-5{fill:url(#未命名的渐变_45-2);}.cls-6{fill:url(#未命名的渐变_45-3);}.cls-11,.cls-14,.cls-7,.cls-8{opacity:0.3;mix-blend-mode:multiply;}.cls-7{fill:url(#未命名的渐变_464);}.cls-8{fill:url(#未命名的渐变_464-2);}.cls-9{fill:url(#未命名的渐变_47);}.cls-10{fill:url(#未命名的渐变_47-2);}.cls-11{fill:url(#未命名的渐变_464-3);}.cls-12{fill:url(#未命名的渐变_47-3);}.cls-13{fill:url(#未命名的渐变_47-4);}.cls-14{fill:url(#未命名的渐变_464-4);}.cls-15{stroke-miterlimit:10;fill:url(#未命名的渐变_20);stroke:url(#未命名的渐变_19);}.cls-16{fill:url(#未命名的渐变_202-3);}.cls-17{opacity:0.2;}.cls-18{fill:#fff;}</style><linearGradient id="未命名的渐变_202" x1="25.51" y1="256" x2="25.51" y2="212.82" gradientUnits="userSpaceOnUse"><stop offset="0" stop-color="#7580bb"/><stop offset="0.02" stop-color="#93a2cc"/><stop offset="0.04" stop-color="#8795d9"/><stop offset="0.98" stop-color="#8795d9"/><stop offset="1" stop-color="#7580bb"/></linearGradient><linearGradient id="未命名的渐变_202-2" x1="78.39" y1="256" x2="78.39" y2="212.82" gradientTransform="matrix(-1, 0, 0, 1, 166.56, 0)" xlink:href="#未命名的渐变_202"/><linearGradient id="未命名的渐变_45" x1="70.69" y1="172.89" x2="70.69" y2="83.11" gradientTransform="translate(-13.73 -13.73)" gradientUnits="userSpaceOnUse"><stop offset="0" stop-color="#8795dc"/><stop offset="0.1" stop-color="#7580c0"/><stop offset="0.75" stop-color="#fff"/><stop offset="0.85" stop-color="#fff"/><stop offset="1" stop-color="#9dadff"/></linearGradient><linearGradient id="未命名的渐变_45-2" x1="146.02" y1="163.25" x2="185.09" y2="95.58" gradientTransform="translate(-71.04 184.96) rotate(-90)" xlink:href="#未命名的渐变_45"/><linearGradient id="未命名的渐变_45-3" x1="346.57" y1="163.25" x2="385.64" y2="95.58" gradientTransform="matrix(0, 1, 1, 0, -71.04, -156.98)" xlink:href="#未命名的渐变_45"/><linearGradient id="未命名的渐变_464" x1="56.96" y1="228.54" x2="56.96" y2="206.28" gradientUnits="userSpaceOnUse"><stop offset="0" stop-color="#060ea4" stop-opacity="0"/><stop offset="1" stop-color="#060ea4" stop-opacity="0.6"/></linearGradient><linearGradient id="未命名的渐变_464-2" x1="56.96" y1="35" x2="56.96" y2="22.25" gradientTransform="translate(85.58 -28.33) rotate(90)" xlink:href="#未命名的渐变_464"/><linearGradient id="未命名的渐变_47" x1="110.88" y1="73.25" x2="132.88" y2="73.25" gradientTransform="translate(-119.67 -10.17)" gradientUnits="userSpaceOnUse"><stop offset="0" stop-color="#9dadff"/><stop offset="0.15" stop-color="#fff"/><stop offset="0.25" stop-color="#fff"/><stop offset="0.9" stop-color="#7580c0"/><stop offset="1" stop-color="#8795dc"/></linearGradient><linearGradient id="未命名的渐变_47-2" x1="114.51" y1="79.28" x2="129.24" y2="79.28" gradientTransform="translate(-113.64 -16.21)" xlink:href="#未命名的渐变_47"/><linearGradient id="未命名的渐变_464-3" x1="121.88" y1="79.28" x2="121.88" y2="75.46" gradientTransform="translate(-115.55 -14.29)" xlink:href="#未命名的渐变_464"/><linearGradient id="未命名的渐变_47-3" x1="29.29" y1="172.96" x2="51.29" y2="172.96" gradientTransform="matrix(1, 0, 0, -1, 71.42, 317.63)" xlink:href="#未命名的渐变_47"/><linearGradient id="未命名的渐变_47-4" x1="32.93" y1="178.99" x2="47.65" y2="178.99" gradientTransform="matrix(1, 0, 0, -1, 65.38, 323.66)" xlink:href="#未命名的渐变_47"/><linearGradient id="未命名的渐变_464-4" x1="40.29" y1="178.99" x2="40.29" y2="175.17" gradientTransform="matrix(1, 0, 0, -1, 67.3, 321.75)" xlink:href="#未命名的渐变_464"/><linearGradient id="未命名的渐变_20" x1="56.96" y1="176.63" x2="56.96" y2="161.46" gradientUnits="userSpaceOnUse"><stop offset="0" stop-color="#b2bded"/><stop offset="1" stop-color="#dbe1ff"/></linearGradient><linearGradient id="未命名的渐变_19" x1="56.96" y1="177.13" x2="56.96" y2="160.96" gradientUnits="userSpaceOnUse"><stop offset="0" stop-color="#6774b6"/><stop offset="1" stop-color="#b2bded"/></linearGradient><linearGradient id="未命名的渐变_202-3" x1="53.94" y1="234.41" x2="61.9" y2="234.41" xlink:href="#未命名的渐变_202"/></defs><title>储气罐</title><g class="cls-1"><g id="图层_2" data-name="图层 2"><g id="废气处理"><g id="储气罐"><polygon class="cls-2" points="28.05 256 18.51 256 18.51 212.82 32.51 212.82 28.05 256"/><polygon class="cls-3" points="85.63 256 95.17 256 95.17 212.82 81.17 212.82 85.63 256"/><rect class="cls-4" x="-35.06" y="69.38" width="184.03" height="89.78" transform="translate(-57.31 171.22) rotate(-90)"/><path class="cls-5" d="M101.85,22.25H12.07S18.17,0,57,0,101.85,22.25,101.85,22.25Z"/><path class="cls-6" d="M101.85,206.28H12.07s6.1,22.26,44.89,22.26S101.85,206.28,101.85,206.28Z"/><path class="cls-7" d="M101.85,206.28H12.07s6.1,22.26,44.89,22.26S101.85,206.28,101.85,206.28Z"/><rect class="cls-8" x="50.58" y="-16.26" width="12.75" height="89.78" transform="translate(28.33 85.58) rotate(-90)"/><rect class="cls-9" x="-8.79" y="60.87" width="22" height="4.41" transform="translate(-60.87 65.29) rotate(-90)"/><rect class="cls-10" x="0.88" y="59.25" width="14.73" height="7.65" transform="translate(-54.84 71.32) rotate(-90)"/><rect class="cls-11" x="-1.04" y="61.17" width="14.73" height="3.83" transform="translate(-56.75 69.41) rotate(-90)"/><rect class="cls-12" x="100.7" y="142.46" width="22" height="4.41" transform="translate(-32.96 256.37) rotate(-90)"/><rect class="cls-13" x="98.31" y="140.84" width="14.73" height="7.65" transform="translate(-38.99 250.34) rotate(-90)"/><rect class="cls-14" x="100.22" y="142.75" width="14.73" height="3.83" transform="translate(-37.08 252.25) rotate(-90)"/><circle class="cls-15" cx="56.96" cy="169.04" r="7.58"/><rect class="cls-16" x="53.94" y="212.82" width="7.97" height="43.18"/>
</g></g></g></g></svg>