<svg xmlns="http://www.w3.org/2000/svg" xmlns:xlink="http://www.w3.org/1999/xlink" viewBox="0 0 256 103.96"><defs><style>.cls-1{isolation:isolate;}.cls-2{fill:url(#未命名的渐变_1631);}.cls-3{fill:url(#未命名的渐变_1631-2);}.cls-19,.cls-22,.cls-4,.cls-7{opacity:0.3;}.cls-10,.cls-14,.cls-19,.cls-22,.cls-4,.cls-7,.cls-9{mix-blend-mode:multiply;}.cls-4{fill:url(#未命名的渐变_126);}.cls-5{fill:url(#未命名的渐变_1631-3);}.cls-6{fill:url(#未命名的渐变_1631-4);}.cls-7{fill:url(#未命名的渐变_126-2);}.cls-8{fill:url(#未命名的渐变_1623);}.cls-10,.cls-9{opacity:0.1;}.cls-9{fill:url(#未命名的渐变_58);}.cls-10{fill:url(#未命名的渐变_126-3);}.cls-11{fill:url(#未命名的渐变_1623-2);}.cls-12{fill:url(#未命名的渐变_1623-3);}.cls-13{fill:url(#未命名的渐变_1623-4);}.cls-14{opacity:0.8;}.cls-15{fill:#040966;}.cls-16{fill:url(#未命名的渐变_1623-5);}.cls-17{fill:url(#未命名的渐变_1631-5);}.cls-18{fill:url(#未命名的渐变_1631-6);}.cls-19{fill:url(#未命名的渐变_126-4);}.cls-20{fill:url(#未命名的渐变_1631-7);}.cls-21{fill:url(#未命名的渐变_1631-8);}.cls-22{fill:url(#未命名的渐变_126-5);}.cls-23{opacity:0.2;}.cls-24{fill:#fff;}</style><linearGradient id="未命名的渐变_1631" x1="203.76" y1="-163.89" x2="259.77" y2="-163.89" gradientTransform="matrix(1, 0, 0, -1, -229.64, -107.27)" gradientUnits="userSpaceOnUse"><stop offset="0" stop-color="#9dadff"/><stop offset="0.15" stop-color="#fff"/><stop offset="0.25" stop-color="#fff"/><stop offset="0.9" stop-color="#7580c0"/><stop offset="1" stop-color="#8795dc"/></linearGradient><linearGradient id="未命名的渐变_1631-2" x1="218.49" y1="-158.09" x2="245.03" y2="-158.09" gradientTransform="matrix(1, 0, 0, -1, -223.85, -101.47)" xlink:href="#未命名的渐变_1631"/><linearGradient id="未命名的渐变_126" x1="231.76" y1="-158.09" x2="231.76" y2="-161.77" gradientTransform="matrix(1, 0, 0, -1, -225.69, -103.31)" gradientUnits="userSpaceOnUse"><stop offset="0" stop-color="#060ea4" stop-opacity="0"/><stop offset="1" stop-color="#060ea4" stop-opacity="0.6"/></linearGradient><linearGradient id="未命名的渐变_1631-3" x1="203.76" y1="45.06" x2="259.77" y2="45.06" gradientTransform="translate(22.12 11.55)" xlink:href="#未命名的渐变_1631"/><linearGradient id="未命名的渐变_1631-4" x1="218.49" y1="50.86" x2="245.03" y2="50.86" gradientTransform="translate(16.32 5.76)" xlink:href="#未命名的渐变_1631"/><linearGradient id="未命名的渐变_126-2" x1="231.76" y1="50.86" x2="231.76" y2="47.18" gradientTransform="translate(18.16 7.6)" xlink:href="#未命名的渐变_126"/><linearGradient id="未命名的渐变_1623" x1="128.11" y1="98.07" x2="128.11" y2="12.91" gradientUnits="userSpaceOnUse"><stop offset="0" stop-color="#8795dc"/><stop offset="0.1" stop-color="#7580c0"/><stop offset="0.75" stop-color="#fff"/><stop offset="0.85" stop-color="#fff"/><stop offset="1" stop-color="#9dadff"/></linearGradient><linearGradient id="未命名的渐变_58" x1="29.66" y1="55.49" x2="35.13" y2="55.49" gradientUnits="userSpaceOnUse"><stop offset="0" stop-color="#060ea4" stop-opacity="0.6"/><stop offset="1" stop-color="#060ea4" stop-opacity="0"/></linearGradient><linearGradient id="未命名的渐变_126-3" x1="221.1" y1="55.49" x2="226.56" y2="55.49" gradientTransform="matrix(1, 0, 0, 1, 0, 0)" xlink:href="#未命名的渐变_126"/><linearGradient id="未命名的渐变_1623-2" x1="215.44" y1="87.78" x2="252.32" y2="23.9" xlink:href="#未命名的渐变_1623"/><linearGradient id="未命名的渐变_1623-3" x1="-3108.77" y1="87.78" x2="-3071.89" y2="23.9" gradientTransform="matrix(-1, 0, 0, 1, -3067.98, 0)" xlink:href="#未命名的渐变_1623"/><linearGradient id="未命名的渐变_1623-4" x1="229.92" y1="103.96" x2="229.92" y2="7.02" xlink:href="#未命名的渐变_1623"/><linearGradient id="未命名的渐变_1623-5" x1="26.31" y1="103.96" x2="26.31" y2="7.02" xlink:href="#未命名的渐变_1623"/><linearGradient id="未命名的渐变_1631-5" x1="206.5" y1="2.51" x2="218.23" y2="2.51" gradientTransform="matrix(1, 0, 0, 1, 0, 0)" xlink:href="#未命名的渐变_1631"/><linearGradient id="未命名的渐变_1631-6" x1="210.31" y1="8.97" x2="214.42" y2="8.97" gradientTransform="matrix(1, 0, 0, 1, 0, 0)" xlink:href="#未命名的渐变_1631"/><linearGradient id="未命名的渐变_126-4" x1="212.36" y1="9.38" x2="212.36" y2="5.02" gradientTransform="matrix(1, 0, 0, 1, 0, 0)" xlink:href="#未命名的渐变_126"/><linearGradient id="未命名的渐变_1631-7" x1="38" y1="2.51" x2="49.73" y2="2.51" gradientTransform="matrix(1, 0, 0, 1, 0, 0)" xlink:href="#未命名的渐变_1631"/><linearGradient id="未命名的渐变_1631-8" x1="41.8" y1="8.97" x2="45.92" y2="8.97" gradientTransform="matrix(1, 0, 0, 1, 0, 0)" xlink:href="#未命名的渐变_1631"/><linearGradient id="未命名的渐变_126-5" x1="43.86" y1="9.38" x2="43.86" y2="5.02" gradientTransform="matrix(1, 0, 0, 1, 0, 0)" xlink:href="#未命名的渐变_126"/></defs><title>冷凝器</title><g class="cls-1"><g id="图层_2" data-name="图层 2"><g id="废气处理"><g id="冷凝器"><rect class="cls-2" x="-25.88" y="54.5" width="56.01" height="4.24" transform="translate(58.74 54.5) rotate(90)"/><rect class="cls-3" x="-5.35" y="52.94" width="26.54" height="7.35" transform="translate(64.54 48.7) rotate(90)"/><rect class="cls-4" x="-7.19" y="54.78" width="26.54" height="3.68" transform="translate(62.7 50.54) rotate(90)"/><rect class="cls-5" x="225.88" y="54.5" width="56.01" height="4.24" transform="translate(310.5 -197.26) rotate(90)"/><rect class="cls-6" x="234.81" y="52.94" width="26.54" height="7.35" transform="translate(304.7 -191.46) rotate(90)"/><rect class="cls-7" x="236.65" y="54.78" width="26.54" height="3.68" transform="translate(306.54 -193.3) rotate(90)"/><rect class="cls-8" x="22.96" y="12.91" width="210.31" height="85.17"/><rect class="cls-9" x="29.66" y="12.91" width="5.47" height="85.17"/><rect class="cls-10" x="221.1" y="12.91" width="5.47" height="85.17"/><path class="cls-11" d="M233.27,98.07V12.91S245,18.7,245,55.49,233.27,98.07,233.27,98.07Z"/><path class="cls-12" d="M23,98.07V12.91s-11.7,5.79-11.7,42.58S23,98.07,23,98.07Z"/><rect class="cls-13" x="226.56" y="7.02" width="6.71" height="96.94"/><g class="cls-14"><rect class="cls-15" x="229.62" y="7.02" width="0.58" height="96.94"/></g><rect class="cls-16" x="22.96" y="7.02" width="6.71" height="96.94"/><g class="cls-14"><rect class="cls-15" x="26.02" y="7.02" width="0.58" height="96.94"/></g><rect class="cls-17" x="206.5" width="11.73" height="5.02"/><rect class="cls-18" x="210.31" y="5.02" width="4.12" height="7.88"/><rect class="cls-19" x="210.31" y="5.02" width="4.12" height="4.36"/><rect class="cls-20" x="38" width="11.73" height="5.02"/><rect class="cls-21" x="41.8" y="5.02" width="4.12" height="7.88"/><rect class="cls-22" x="41.8" y="5.02" width="4.12" height="4.36"/>

</g></g></g></g></svg>