<svg xmlns="http://www.w3.org/2000/svg" xmlns:xlink="http://www.w3.org/1999/xlink" viewBox="0 0 180.53 256"><defs><style>.cls-1{mix-blend-mode:overlay;}.cls-2{fill:url(#新建图案色板_1);}.cls-3,.cls-4{fill:none;}.cls-4{stroke:#fff;stroke-miterlimit:10;stroke-width:0.1px;}.cls-5{isolation:isolate;}.cls-6{fill:url(#未命名的渐变_176);}.cls-7{fill:url(#未命名的渐变_1623);}.cls-8{fill:url(#未命名的渐变_1631);}.cls-10,.cls-16,.cls-17,.cls-23,.cls-46,.cls-9{opacity:0.3;}.cls-10,.cls-12,.cls-16,.cls-17,.cls-23,.cls-46,.cls-9{mix-blend-mode:multiply;}.cls-9{fill:url(#未命名的渐变_464);}.cls-10{fill:url(#未命名的渐变_464-2);}.cls-11{fill:url(#未命名的渐变_1631-2);}.cls-12,.cls-51{opacity:0.2;}.cls-13{fill:#3941cc;}.cls-14{fill:url(#未命名的渐变_4756);}.cls-15{fill:url(#未命名的渐变_1631-3);}.cls-16{fill:url(#未命名的渐变_49);}.cls-17{fill:url(#未命名的渐变_49-2);}.cls-18{fill:url(#未命名的渐变_1631-4);}.cls-19{fill:url(#未命名的渐变_4756-2);}.cls-20{fill:url(#未命名的渐变_130);}.cls-21{fill:url(#未命名的渐变_1623-2);}.cls-22{fill:url(#未命名的渐变_1623-3);}.cls-23{fill:url(#未命名的渐变_464-3);}.cls-24{fill:url(#未命名的渐变_130-2);}.cls-25{fill:url(#未命名的渐变_1631-5);}.cls-26{fill:url(#未命名的渐变_94);}.cls-27{fill:url(#未命名的渐变_96);}.cls-28{mask:url(#mask);}.cls-29{fill:url(#未命名的渐变_130-3);}.cls-30{fill:url(#未命名的渐变_130-4);}.cls-31{fill:url(#未命名的渐变_130-5);}.cls-32{fill:url(#未命名的渐变_130-6);}.cls-33{fill:url(#未命名的渐变_130-7);}.cls-34{fill:url(#未命名的渐变_130-8);}.cls-35{fill:url(#未命名的渐变_130-9);}.cls-36{fill:url(#未命名的渐变_130-10);}.cls-37{fill:url(#未命名的渐变_130-11);}.cls-38{fill:url(#未命名的渐变_130-12);}.cls-39{fill:url(#未命名的渐变_130-13);}.cls-40{fill:url(#未命名的渐变_130-14);}.cls-41{fill:url(#未命名的渐变_130-15);}.cls-42{fill:url(#未命名的渐变_130-16);}.cls-43{fill:url(#未命名的渐变_1631-6);}.cls-44{fill:url(#未命名的渐变_130-17);}.cls-45{fill:url(#未命名的渐变_130-18);}.cls-46{fill:url(#未命名的渐变_464-4);}.cls-47{fill:url(#未命名的渐变_172);}.cls-48{fill:url(#未命名的渐变_181);}.cls-49{fill:url(#未命名的渐变_130-19);}.cls-50{fill:url(#未命名的渐变_130-20);}.cls-52{fill:#fff;}</style><pattern id="新建图案色板_1" data-name="新建图案色板 1" width="5" height="5" patternTransform="translate(15.1 76.63) scale(1.41 1.26)" patternUnits="userSpaceOnUse" viewBox="0 0 5 5"><rect class="cls-3" width="5" height="5"/><line class="cls-4" x1="2.5" x2="2.5" y2="5"/><line class="cls-4" x1="5" y1="2.5" y2="2.5"/></pattern><linearGradient id="未命名的渐变_176" x1="133.31" y1="227.96" x2="123.05" y2="169.78" gradientUnits="userSpaceOnUse"><stop offset="0" stop-color="#ca9200"/><stop offset="0.15" stop-color="#bf5f00"/><stop offset="0.75" stop-color="#f9dc6a"/><stop offset="0.85" stop-color="#f9dc6a"/><stop offset="1" stop-color="#d9a600"/></linearGradient><linearGradient id="未命名的渐变_1623" x1="160.48" y1="226.13" x2="160.48" y2="166.14" gradientUnits="userSpaceOnUse"><stop offset="0" stop-color="#8795dc"/><stop offset="0.1" stop-color="#7580c0"/><stop offset="0.75" stop-color="#fff"/><stop offset="0.85" stop-color="#fff"/><stop offset="1" stop-color="#9dadff"/></linearGradient><linearGradient id="未命名的渐变_1631" x1="152.93" y1="160.9" x2="168.03" y2="160.9" gradientUnits="userSpaceOnUse"><stop offset="0" stop-color="#9dadff"/><stop offset="0.15" stop-color="#fff"/><stop offset="0.25" stop-color="#fff"/><stop offset="0.9" stop-color="#7580c0"/><stop offset="1" stop-color="#8795dc"/></linearGradient><linearGradient id="未命名的渐变_464" x1="160.48" y1="157.08" x2="160.48" y2="156.05" gradientUnits="userSpaceOnUse"><stop offset="0" stop-color="#060ea4" stop-opacity="0"/><stop offset="1" stop-color="#060ea4" stop-opacity="0.6"/></linearGradient><linearGradient id="未命名的渐变_464-2" x1="160.48" y1="165.29" x2="160.48" y2="164.26" xlink:href="#未命名的渐变_464"/><linearGradient id="未命名的渐变_1631-2" x1="150.32" y1="152.16" x2="170.64" y2="152.16" xlink:href="#未命名的渐变_1631"/><linearGradient id="未命名的渐变_4756" x1="150.32" y1="161.18" x2="170.64" y2="161.18" gradientUnits="userSpaceOnUse"><stop offset="0" stop-color="#b7c3ff"/><stop offset="0.19" stop-color="#d3daff"/><stop offset="0.2" stop-color="#e4e7ff"/><stop offset="0.21" stop-color="#b1bbef"/><stop offset="0.8" stop-color="#9dadff"/><stop offset="0.81" stop-color="#7580c0"/><stop offset="0.98" stop-color="#7580c0"/><stop offset="1" stop-color="#7580c0"/></linearGradient><linearGradient id="未命名的渐变_1631-3" x1="152.93" y1="3181.99" x2="168.03" y2="3181.99" gradientTransform="matrix(1, 0, 0, -1, 0, 3413.36)" xlink:href="#未命名的渐变_1631"/><linearGradient id="未命名的渐变_49" x1="160.48" y1="3179.2" x2="160.48" y2="3178.18" gradientTransform="matrix(1, 0, 0, -1, 0, 3413.36)" gradientUnits="userSpaceOnUse"><stop offset="0" stop-color="#060ea4" stop-opacity="0.6"/><stop offset="1" stop-color="#060ea4" stop-opacity="0"/></linearGradient><linearGradient id="未命名的渐变_49-2" x1="160.48" y1="3187.23" x2="160.48" y2="3186.21" xlink:href="#未命名的渐变_49"/><linearGradient id="未命名的渐变_1631-4" x1="150.32" y1="3173.26" x2="170.64" y2="3173.26" gradientTransform="matrix(1, 0, 0, -1, 0, 3413.36)" xlink:href="#未命名的渐变_1631"/><linearGradient id="未命名的渐变_4756-2" x1="150.32" y1="3182.28" x2="170.64" y2="3182.28" gradientTransform="matrix(1, 0, 0, -1, 0, 3413.36)" xlink:href="#未命名的渐变_4756"/><linearGradient id="未命名的渐变_130" x1="178.9" y1="226.13" x2="178.9" y2="166.14" gradientUnits="userSpaceOnUse"><stop offset="0" stop-color="#d9a600"/><stop offset="0.15" stop-color="#f9dc6a"/><stop offset="0.25" stop-color="#f9dc6a"/><stop offset="0.85" stop-color="#bf5f00"/><stop offset="1" stop-color="#ca9200"/></linearGradient><linearGradient id="未命名的渐变_1623-2" x1="-517.9" y1="2370.11" x2="-517.9" y2="2278.21" gradientTransform="translate(-2262.72 -487.65) rotate(-90)" xlink:href="#未命名的渐变_1623"/><linearGradient id="未命名的渐变_1623-3" x1="-514.33" y1="2367.12" x2="-484.79" y2="2285.97" gradientTransform="translate(-2262.72 -487.65) rotate(-90)" xlink:href="#未命名的渐变_1623"/><linearGradient id="未命名的渐变_464-3" x1="61.44" y1="30.25" x2="61.44" y2="18.46" xlink:href="#未命名的渐变_464"/><linearGradient id="未命名的渐变_130-2" x1="19.14" y1="77.49" x2="103.73" y2="77.49" gradientTransform="translate(138.93 16.06) rotate(90)" xlink:href="#未命名的渐变_130"/><linearGradient id="未命名的渐变_1631-5" x1="15.52" y1="121.71" x2="107.35" y2="121.71" gradientTransform="translate(183.15 60.28) rotate(90)" xlink:href="#未命名的渐变_1631"/><linearGradient id="未命名的渐变_94" x1="61.44" y1="112.94" x2="61.44" y2="45.02" gradientUnits="userSpaceOnUse"><stop offset="0" stop-color="#ffffb0"/><stop offset="0.04" stop-color="#ffffb0" stop-opacity="0.6"/><stop offset="1" stop-color="#d9a600" stop-opacity="0"/></linearGradient><linearGradient id="未命名的渐变_96" x1="61.44" y1="112.94" x2="61.44" y2="45.02" gradientUnits="userSpaceOnUse"><stop offset="0" stop-color="#ffffb0"/><stop offset="0.04" stop-color="#ffffb0" stop-opacity="0.6"/><stop offset="0.28" stop-color="#f4e47c" stop-opacity="0.42"/><stop offset="0.62" stop-color="#e5c339" stop-opacity="0.19"/><stop offset="0.87" stop-color="#dcae10" stop-opacity="0.05"/><stop offset="1" stop-color="#d9a600" stop-opacity="0"/></linearGradient><mask id="mask" x="0" y="2.55" width="103.74" height="110.39" maskUnits="userSpaceOnUse"><g class="cls-1"><rect class="cls-2" x="19.13" y="45.02" width="84.61" height="67.92"/></g></mask><linearGradient id="未命名的渐变_130-3" x1="21.95" y1="77.49" x2="24.3" y2="77.49" gradientTransform="translate(100.62 54.36) rotate(90)" xlink:href="#未命名的渐变_130"/><linearGradient id="未命名的渐变_130-4" x1="27.85" y1="77.49" x2="30.2" y2="77.49" gradientTransform="translate(106.51 48.47) rotate(90)" xlink:href="#未命名的渐变_130"/><linearGradient id="未命名的渐变_130-5" x1="33.74" y1="77.49" x2="36.09" y2="77.49" gradientTransform="translate(112.41 42.58) rotate(90)" xlink:href="#未命名的渐变_130"/><linearGradient id="未命名的渐变_130-6" x1="39.63" y1="77.49" x2="41.98" y2="77.49" gradientTransform="translate(118.3 36.68) rotate(90)" xlink:href="#未命名的渐变_130"/><linearGradient id="未命名的渐变_130-7" x1="45.53" y1="77.49" x2="47.88" y2="77.49" gradientTransform="translate(124.19 30.79) rotate(90)" xlink:href="#未命名的渐变_130"/><linearGradient id="未命名的渐变_130-8" x1="51.42" y1="77.49" x2="53.77" y2="77.49" gradientTransform="translate(130.09 24.9) rotate(90)" xlink:href="#未命名的渐变_130"/><linearGradient id="未命名的渐变_130-9" x1="57.32" y1="77.49" x2="59.66" y2="77.49" gradientTransform="translate(135.98 19) rotate(90)" xlink:href="#未命名的渐变_130"/><linearGradient id="未命名的渐变_130-10" x1="63.21" y1="77.49" x2="65.56" y2="77.49" gradientTransform="translate(141.87 13.11) rotate(90)" xlink:href="#未命名的渐变_130"/><linearGradient id="未命名的渐变_130-11" x1="69.1" y1="77.49" x2="71.45" y2="77.49" gradientTransform="translate(147.77 7.21) rotate(90)" xlink:href="#未命名的渐变_130"/><linearGradient id="未命名的渐变_130-12" x1="75" y1="77.49" x2="77.34" y2="77.49" gradientTransform="translate(153.66 1.32) rotate(90)" xlink:href="#未命名的渐变_130"/><linearGradient id="未命名的渐变_130-13" x1="80.89" y1="77.49" x2="83.24" y2="77.49" gradientTransform="translate(159.55 -4.57) rotate(90)" xlink:href="#未命名的渐变_130"/><linearGradient id="未命名的渐变_130-14" x1="86.78" y1="77.49" x2="89.13" y2="77.49" gradientTransform="translate(165.45 -10.47) rotate(90)" xlink:href="#未命名的渐变_130"/><linearGradient id="未命名的渐变_130-15" x1="92.68" y1="77.49" x2="95.02" y2="77.49" gradientTransform="translate(171.34 -16.36) rotate(90)" xlink:href="#未命名的渐变_130"/><linearGradient id="未命名的渐变_130-16" x1="98.57" y1="77.49" x2="100.92" y2="77.49" gradientTransform="translate(177.24 -22.25) rotate(90)" xlink:href="#未命名的渐变_130"/><linearGradient id="未命名的渐变_1631-6" x1="10.69" y1="134.55" x2="112.18" y2="134.55" xlink:href="#未命名的渐变_1631"/><linearGradient id="未命名的渐变_130-17" x1="30.24" y1="149.84" x2="92.63" y2="149.84" xlink:href="#未命名的渐变_130"/><linearGradient id="未命名的渐变_130-18" x1="30.24" y1="242.64" x2="92.63" y2="242.64" xlink:href="#未命名的渐变_130"/><linearGradient id="未命名的渐变_464-4" x1="61.44" y1="149.79" x2="61.44" y2="146.75" gradientTransform="translate(209.71 86.83) rotate(90)" xlink:href="#未命名的渐变_464"/><linearGradient id="未命名的渐变_172" x1="61.44" y1="242.64" x2="61.44" y2="149.59" gradientUnits="userSpaceOnUse"><stop offset="0" stop-color="#ca9200"/><stop offset="1" stop-color="#e6b800"/></linearGradient><linearGradient id="未命名的渐变_181" x1="61.44" y1="242.64" x2="61.44" y2="149.59" gradientUnits="userSpaceOnUse"><stop offset="0" stop-color="#ca9200"/><stop offset="1" stop-color="#f9dc6a"/></linearGradient><linearGradient id="未命名的渐变_130-19" x1="10.69" y1="142.68" x2="112.18" y2="142.68" xlink:href="#未命名的渐变_130"/><linearGradient id="未命名的渐变_130-20" x1="1.76" y1="250.87" x2="121.11" y2="250.87" xlink:href="#未命名的渐变_130"/></defs><title>加药泵（黄）</title><g class="cls-5"><g id="图层_2" data-name="图层 2"><g id="废气处理"><g id="加药泵_黄_" data-name="加药泵（黄）"><polygon class="cls-6" points="143.69 226.13 110.12 217.22 110.12 175.05 143.69 166.14 143.69 226.13"/><rect class="cls-7" x="143.69" y="166.14" width="33.57" height="59.99"/><rect class="cls-8" x="152.93" y="155.65" width="15.09" height="10.49"/><rect class="cls-9" x="152.93" y="156.05" width="15.09" height="1.03"/><rect class="cls-10" x="152.93" y="164.26" width="15.09" height="1.03"/><rect class="cls-11" x="150.32" y="148.27" width="20.33" height="7.78"/><g class="cls-12"><rect class="cls-13" x="168.4" y="149.38" width="1.11" height="5.56"/></g><g class="cls-12"><rect class="cls-13" x="165.99" y="149.38" width="1.11" height="5.56"/></g><g class="cls-12"><rect class="cls-13" x="163.57" y="149.38" width="1.11" height="5.56"/></g><g class="cls-12"><rect class="cls-13" x="161.15" y="149.38" width="1.11" height="5.56"/></g><g class="cls-12"><rect class="cls-13" x="158.73" y="149.38" width="1.11" height="5.56"/></g><g class="cls-12"><rect class="cls-13" x="156.32" y="149.38" width="1.11" height="5.56"/></g><g class="cls-12"><rect class="cls-13" x="153.9" y="149.38" width="1.11" height="5.56"/></g><g class="cls-12"><rect class="cls-13" x="151.48" y="149.38" width="1.11" height="5.56"/></g><rect class="cls-14" x="150.32" y="158.11" width="20.33" height="6.15"/><rect class="cls-15" x="152.93" y="226.13" width="15.09" height="10.49"/><rect class="cls-16" x="152.93" y="234.16" width="15.09" height="1.03"/><rect class="cls-17" x="152.93" y="226.13" width="15.09" height="1.03"/><rect class="cls-18" x="150.32" y="236.21" width="20.33" height="7.78"/><g class="cls-12"><rect class="cls-13" x="168.4" y="237.33" width="1.11" height="5.56"/></g><g class="cls-12"><rect class="cls-13" x="165.99" y="237.33" width="1.11" height="5.56"/></g><g class="cls-12"><rect class="cls-13" x="163.57" y="237.33" width="1.11" height="5.56"/></g><g class="cls-12"><rect class="cls-13" x="161.15" y="237.33" width="1.11" height="5.56"/></g><g class="cls-12"><rect class="cls-13" x="158.73" y="237.33" width="1.11" height="5.56"/></g><g class="cls-12"><rect class="cls-13" x="156.32" y="237.33" width="1.11" height="5.56"/></g><g class="cls-12"><rect class="cls-13" x="153.9" y="237.33" width="1.11" height="5.56"/></g><g class="cls-12"><rect class="cls-13" x="151.48" y="237.33" width="1.11" height="5.56"/></g><rect class="cls-19" x="150.32" y="228.01" width="20.33" height="6.15"/><rect class="cls-20" x="177.27" y="166.14" width="3.26" height="59.99"/><rect class="cls-21" x="15.49" y="18.46" width="91.9" height="23.58"/><polygon class="cls-22" points="97.44 0 107.39 18.46 15.49 18.46 25.43 0 97.44 0"/><rect class="cls-23" x="15.49" y="18.46" width="91.9" height="11.79"/><rect class="cls-24" x="25.99" y="35.2" width="70.89" height="84.59" transform="translate(-16.06 138.93) rotate(-90)"/><rect class="cls-25" x="52.66" y="75.79" width="17.55" height="91.83" transform="translate(-60.28 183.15) rotate(-90)"/><g class="cls-12"><rect class="cls-13" x="17.7" y="115.12" width="18.98" height="13.19"/><rect class="cls-13" x="42.59" y="115.12" width="37.7" height="13.19"/><rect class="cls-13" x="86.2" y="115.12" width="18.98" height="13.19"/></g><rect class="cls-26" x="19.13" y="45.02" width="84.61" height="67.92"/><path class="cls-27" d="M103.35,45.41v67.14H19.52V45.41h83.83m.39-.39H19.13v67.92h84.61V45Z"/><g class="cls-28"><rect class="cls-26" x="19.13" y="45.02" width="84.61" height="67.92"/></g><rect class="cls-29" x="-12.32" y="76.32" width="70.89" height="2.35" transform="translate(-54.36 100.62) rotate(-90)"/><rect class="cls-30" x="-6.43" y="76.32" width="70.89" height="2.35" transform="translate(-48.47 106.51) rotate(-90)"/><rect class="cls-31" x="-0.53" y="76.32" width="70.89" height="2.35" transform="translate(-42.58 112.41) rotate(-90)"/><rect class="cls-32" x="5.36" y="76.32" width="70.89" height="2.35" transform="translate(-36.68 118.3) rotate(-90)"/><rect class="cls-33" x="11.26" y="76.32" width="70.89" height="2.35" transform="translate(-30.79 124.19) rotate(-90)"/><rect class="cls-34" x="17.15" y="76.32" width="70.89" height="2.35" transform="translate(-24.9 130.09) rotate(-90)"/><rect class="cls-35" x="23.04" y="76.32" width="70.89" height="2.35" transform="translate(-19 135.98) rotate(-90)"/><rect class="cls-36" x="28.94" y="76.32" width="70.89" height="2.35" transform="translate(-13.11 141.87) rotate(-90)"/><rect class="cls-37" x="34.83" y="76.32" width="70.89" height="2.35" transform="translate(-7.21 147.77) rotate(-90)"/><rect class="cls-38" x="40.72" y="76.32" width="70.89" height="2.35" transform="translate(-1.32 153.66) rotate(-90)"/><rect class="cls-39" x="46.62" y="76.32" width="70.89" height="2.35" transform="translate(4.57 159.55) rotate(-90)"/><rect class="cls-40" x="52.51" y="76.32" width="70.89" height="2.35" transform="translate(10.47 165.45) rotate(-90)"/><rect class="cls-41" x="58.4" y="76.32" width="70.89" height="2.35" transform="translate(16.36 171.34) rotate(-90)"/><rect class="cls-42" x="64.3" y="76.32" width="70.89" height="2.35" transform="translate(22.25 177.24) rotate(-90)"/><rect class="cls-43" x="10.69" y="130.48" width="101.49" height="8.13"/><rect class="cls-44" x="30.24" y="146.75" width="62.39" height="6.19"/><rect class="cls-45" x="30.24" y="239.55" width="62.39" height="6.19"/><rect class="cls-46" x="59.92" y="117.08" width="3.04" height="62.39" transform="translate(-86.83 209.71) rotate(-90)"/><rect class="cls-47" y="149.59" width="122.87" height="93.05" rx="41.77"/><path class="cls-48" d="M81.11,150.59a40.81,40.81,0,0,1,40.76,40.77v9.51a40.81,40.81,0,0,1-40.76,40.77H41.77A40.82,40.82,0,0,1,1,200.87v-9.51a40.82,40.82,0,0,1,40.77-40.77H81.11m0-1H41.77A41.89,41.89,0,0,0,0,191.36v9.51a41.88,41.88,0,0,0,41.77,41.77H81.11a41.88,41.88,0,0,0,41.76-41.77v-9.51a41.89,41.89,0,0,0-41.76-41.77Z"/><rect class="cls-49" x="10.69" y="138.62" width="101.49" height="8.13"/><rect class="cls-50" x="1.76" y="245.73" width="119.34" height="10.27"/></g></g></g></g></svg>