<svg xmlns="http://www.w3.org/2000/svg" xmlns:xlink="http://www.w3.org/1999/xlink" viewBox="0 0 140.37 256"><defs><style>.cls-1{isolation:isolate;}.cls-2{fill:url(#未命名的渐变_29);}.cls-3{fill:url(#未命名的渐变_177);}.cls-4{fill:url(#未命名的渐变_460);}.cls-5{opacity:0.3;mix-blend-mode:multiply;fill:url(#未命名的渐变_73);}.cls-6{fill:url(#未命名的渐变_465);}.cls-7{fill:url(#未命名的渐变_486);}.cls-8{fill:url(#未命名的渐变_471);}.cls-9{fill:url(#未命名的渐变_470);}.cls-10{fill:url(#未命名的渐变_486-2);}.cls-11{fill:url(#未命名的渐变_470-2);}.cls-12{fill:url(#未命名的渐变_470-3);}.cls-13{fill:url(#未命名的渐变_465-2);}.cls-14{fill:url(#未命名的渐变_470-4);}.cls-15{fill:url(#未命名的渐变_465-3);}.cls-16{fill:url(#未命名的渐变_470-5);}.cls-17{opacity:0.2;}.cls-18{fill:#fff;}</style><linearGradient id="未命名的渐变_29" x1="105.28" y1="96.63" x2="35.09" y2="26.45" gradientUnits="userSpaceOnUse"><stop offset="0" stop-color="#8795dc"/><stop offset="0.1" stop-color="#7580c0"/><stop offset="0.75" stop-color="#fff"/><stop offset="0.85" stop-color="#fff"/><stop offset="1" stop-color="#9dadff"/></linearGradient><linearGradient id="未命名的渐变_177" y1="253.61" x2="140.37" y2="253.61" gradientUnits="userSpaceOnUse"><stop offset="0" stop-color="#28398b"/><stop offset="0.15" stop-color="#999fda"/><stop offset="0.25" stop-color="#999fda"/><stop offset="0.9" stop-color="#1e2a6b"/><stop offset="1" stop-color="#23317a"/></linearGradient><linearGradient id="未命名的渐变_460" x1="140.37" y1="156.38" x2="0" y2="156.38" xlink:href="#未命名的渐变_29"/><linearGradient id="未命名的渐变_73" x1="70.19" y1="61.54" x2="70.19" y2="96.81" gradientUnits="userSpaceOnUse"><stop offset="0" stop-color="#060ea4" stop-opacity="0.6"/><stop offset="1" stop-color="#060ea4" stop-opacity="0"/></linearGradient><linearGradient id="未命名的渐变_465" x1="6.52" y1="42.53" x2="133.85" y2="42.53" gradientUnits="userSpaceOnUse"><stop offset="0" stop-color="#9dadff"/><stop offset="0.15" stop-color="#fff"/><stop offset="0.25" stop-color="#fff"/><stop offset="0.9" stop-color="#7580c0"/><stop offset="1" stop-color="#8795dc"/></linearGradient><linearGradient id="未命名的渐变_486" x1="70.2" y1="52.72" x2="70.2" y2="40.44" gradientTransform="translate(0.26 -0.38) rotate(0.31)" gradientUnits="userSpaceOnUse"><stop offset="0" stop-color="#6e75e0"/><stop offset="1" stop-color="#c0c5ff"/></linearGradient><linearGradient id="未命名的渐变_471" x1="49.46" y1="42.49" x2="90.93" y2="42.49" gradientUnits="userSpaceOnUse"><stop offset="0" stop-color="#060fbc"/><stop offset="0.15" stop-color="#060ea4"/><stop offset="0.75" stop-color="#969eeb"/><stop offset="0.85" stop-color="#969eeb"/><stop offset="1" stop-color="#2e36c9"/></linearGradient><linearGradient id="未命名的渐变_470" x1="43.48" y1="50.73" x2="96.92" y2="50.73" gradientUnits="userSpaceOnUse"><stop offset="0" stop-color="#2e36c9"/><stop offset="0.15" stop-color="#969eeb"/><stop offset="0.25" stop-color="#969eeb"/><stop offset="0.85" stop-color="#060ea4"/><stop offset="1" stop-color="#060fbc"/></linearGradient><linearGradient id="未命名的渐变_486-2" x1="70.19" y1="52.34" x2="70.19" y2="36.52" gradientTransform="matrix(1, 0, 0, 1, 0, 0)" xlink:href="#未命名的渐变_486"/><linearGradient id="未命名的渐变_470-2" x1="64.61" y1="26.33" x2="75.76" y2="26.33" xlink:href="#未命名的渐变_470"/><linearGradient id="未命名的渐变_470-3" x1="67.36" y1="12.42" x2="73.01" y2="12.42" xlink:href="#未命名的渐变_470"/><linearGradient id="未命名的渐变_465-2" x1="109.84" y1="24.64" x2="120.98" y2="24.64" xlink:href="#未命名的渐变_465"/><linearGradient id="未命名的渐变_470-4" x1="109.84" y1="8.33" x2="120.98" y2="8.33" xlink:href="#未命名的渐变_470"/><linearGradient id="未命名的渐变_465-3" x1="106.91" y1="20.26" x2="123.91" y2="20.26" xlink:href="#未命名的渐变_465"/><linearGradient id="未命名的渐变_470-5" x1="106.91" y1="17.86" x2="123.91" y2="17.86" xlink:href="#未命名的渐变_470"/></defs><title>加药罐</title><g class="cls-1"><g id="图层_2" data-name="图层 2"><g id="废气处理"><g id="加药罐"><g id="_编组_" data-name="&lt;编组&gt;"><path class="cls-2" d="M140.37,61.54S114.55,40.9,70.17,40.9,0,61.54,0,61.54Z"/><rect class="cls-3" y="251.22" width="140.37" height="4.78"/><rect class="cls-4" y="61.54" width="140.37" height="189.68"/><rect class="cls-5" y="61.54" width="140.37" height="35.26"/><path class="cls-6" d="M70.17,40.9c31.34,0,53.41,10.29,63.68,16.33V27.82H6.52V57.23C16.79,51.18,38.83,40.9,70.17,40.9Z"/><g class="cls-1"><ellipse class="cls-7" cx="70.2" cy="46.58" rx="20.73" ry="6.14" transform="translate(-0.25 0.39) rotate(-0.31)"/><path class="cls-8" d="M90.92,44.32c0-2-3.41-4-9.6-5.13-9.66-1.77-22.47-.86-28.62,2-2.2,1-3.25,2.18-3.24,3.32v2.14c0-1.13,1-2.28,3.24-3.31,6.15-2.89,19-3.8,28.62-2,6.2,1.14,9.59,3.1,9.6,5.13Z"/><path class="cls-9" d="M96.89,44.29c0,1.46-1.34,2.94-4.17,4.27-7.92,3.73-24.43,4.9-36.87,2.61-8-1.46-12.35-4-12.37-6.6l0,4.83c0,2.61,4.38,5.14,12.37,6.6,12.44,2.29,28.94,1.12,36.86-2.61,2.84-1.33,4.19-2.81,4.18-4.27Z"/><path class="cls-10" d="M84.53,37.68c-12.45-2.28-28.95-1.11-36.87,2.61s-4.25,8.6,8.19,10.88,28.95,1.12,36.87-2.61S97,40,84.53,37.68Zm3.14,10c-6.14,2.89-19,3.79-28.61,2s-12.5-5.55-6.36-8.44,19-3.8,28.62-2S93.82,44.75,87.67,47.64Z"/></g><rect class="cls-11" x="64.61" y="24.85" width="11.14" height="2.97"/><rect class="cls-12" x="67.36" width="5.64" height="24.85"/><rect class="cls-13" x="109.84" y="21.46" width="11.14" height="6.36"/><rect class="cls-14" x="109.84" width="11.14" height="16.65"/><rect class="cls-15" x="106.91" y="19.06" width="16.99" height="2.41"/><rect class="cls-16" x="106.91" y="16.65" width="16.99" height="2.41"/></g>
</g></g></g></g></svg>