<svg xmlns="http://www.w3.org/2000/svg" xmlns:xlink="http://www.w3.org/1999/xlink" viewBox="0 0 181.03 256"><defs><style>.cls-1{mix-blend-mode:overlay;}.cls-2{fill:url(#新建图案色板_1);}.cls-3,.cls-4{fill:none;}.cls-4{stroke:#fff;stroke-width:0.1px;}.cls-4,.cls-47{stroke-miterlimit:10;}.cls-5{isolation:isolate;}.cls-6{fill:url(#未命名的渐变_46);}.cls-7{fill:url(#未命名的渐变_1623);}.cls-8{fill:url(#未命名的渐变_1631);}.cls-10,.cls-16,.cls-17,.cls-23,.cls-46,.cls-9{opacity:0.3;}.cls-10,.cls-12,.cls-16,.cls-17,.cls-23,.cls-46,.cls-9{mix-blend-mode:multiply;}.cls-9{fill:url(#未命名的渐变_464);}.cls-10{fill:url(#未命名的渐变_464-2);}.cls-11{fill:url(#未命名的渐变_1631-2);}.cls-12,.cls-50{opacity:0.2;}.cls-13{fill:#3941cc;}.cls-14{fill:url(#未命名的渐变_4756);}.cls-15{fill:url(#未命名的渐变_1631-3);}.cls-16{fill:url(#未命名的渐变_49);}.cls-17{fill:url(#未命名的渐变_49-2);}.cls-18{fill:url(#未命名的渐变_1631-4);}.cls-19{fill:url(#未命名的渐变_4756-2);}.cls-20{fill:url(#未命名的渐变_46-2);}.cls-21{fill:url(#未命名的渐变_1623-2);}.cls-22{fill:url(#未命名的渐变_1623-3);}.cls-23{fill:url(#未命名的渐变_464-3);}.cls-24{fill:url(#未命名的渐变_12);}.cls-25{fill:url(#未命名的渐变_1631-5);}.cls-26{fill:url(#未命名的渐变_79);}.cls-27{fill:url(#未命名的渐变_81);}.cls-28{mask:url(#mask);}.cls-29{fill:url(#未命名的渐变_1631-6);}.cls-30{fill:url(#未命名的渐变_1631-7);}.cls-31{fill:url(#未命名的渐变_1631-8);}.cls-32{fill:url(#未命名的渐变_1631-9);}.cls-33{fill:url(#未命名的渐变_1631-10);}.cls-34{fill:url(#未命名的渐变_1631-11);}.cls-35{fill:url(#未命名的渐变_1631-12);}.cls-36{fill:url(#未命名的渐变_1631-13);}.cls-37{fill:url(#未命名的渐变_1631-14);}.cls-38{fill:url(#未命名的渐变_1631-15);}.cls-39{fill:url(#未命名的渐变_1631-16);}.cls-40{fill:url(#未命名的渐变_1631-17);}.cls-41{fill:url(#未命名的渐变_1631-18);}.cls-42{fill:url(#未命名的渐变_1631-19);}.cls-43{fill:url(#未命名的渐变_1631-20);}.cls-44{fill:url(#未命名的渐变_12-2);}.cls-45{fill:url(#未命名的渐变_12-3);}.cls-46{fill:url(#未命名的渐变_464-4);}.cls-47{fill:url(#未命名的渐变_22);stroke:url(#未命名的渐变_43);}.cls-48{fill:url(#未命名的渐变_12-4);}.cls-49{fill:url(#未命名的渐变_12-5);}.cls-51{fill:#fff;}</style><pattern id="新建图案色板_1" data-name="新建图案色板 1" width="5" height="5" patternTransform="translate(0.96 -181.66) scale(1.41 1.26)" patternUnits="userSpaceOnUse" viewBox="0 0 5 5"><rect class="cls-3" width="5" height="5"/><line class="cls-4" x1="2.5" x2="2.5" y2="5"/><line class="cls-4" x1="5" y1="2.5" y2="2.5"/></pattern><linearGradient id="未命名的渐变_46" x1="133.81" y1="227.96" x2="123.55" y2="169.78" gradientUnits="userSpaceOnUse"><stop offset="0" stop-color="#060fbc"/><stop offset="0.15" stop-color="#060ea4"/><stop offset="0.75" stop-color="#969eeb"/><stop offset="0.85" stop-color="#969eeb"/><stop offset="1" stop-color="#2e36c9"/></linearGradient><linearGradient id="未命名的渐变_1623" x1="160.98" y1="226.13" x2="160.98" y2="166.14" gradientUnits="userSpaceOnUse"><stop offset="0" stop-color="#8795dc"/><stop offset="0.1" stop-color="#7580c0"/><stop offset="0.75" stop-color="#fff"/><stop offset="0.85" stop-color="#fff"/><stop offset="1" stop-color="#9dadff"/></linearGradient><linearGradient id="未命名的渐变_1631" x1="153.43" y1="160.9" x2="168.53" y2="160.9" gradientUnits="userSpaceOnUse"><stop offset="0" stop-color="#9dadff"/><stop offset="0.15" stop-color="#fff"/><stop offset="0.25" stop-color="#fff"/><stop offset="0.9" stop-color="#7580c0"/><stop offset="1" stop-color="#8795dc"/></linearGradient><linearGradient id="未命名的渐变_464" x1="160.98" y1="157.08" x2="160.98" y2="156.05" gradientUnits="userSpaceOnUse"><stop offset="0" stop-color="#060ea4" stop-opacity="0"/><stop offset="1" stop-color="#060ea4" stop-opacity="0.6"/></linearGradient><linearGradient id="未命名的渐变_464-2" x1="160.98" y1="165.29" x2="160.98" y2="164.26" xlink:href="#未命名的渐变_464"/><linearGradient id="未命名的渐变_1631-2" x1="150.82" y1="152.16" x2="171.14" y2="152.16" xlink:href="#未命名的渐变_1631"/><linearGradient id="未命名的渐变_4756" x1="150.82" y1="161.18" x2="171.14" y2="161.18" gradientUnits="userSpaceOnUse"><stop offset="0" stop-color="#b7c3ff"/><stop offset="0.19" stop-color="#d3daff"/><stop offset="0.2" stop-color="#e4e7ff"/><stop offset="0.21" stop-color="#b1bbef"/><stop offset="0.8" stop-color="#9dadff"/><stop offset="0.81" stop-color="#7580c0"/><stop offset="0.98" stop-color="#7580c0"/><stop offset="1" stop-color="#7580c0"/></linearGradient><linearGradient id="未命名的渐变_1631-3" x1="153.43" y1="1994.99" x2="168.53" y2="1994.99" gradientTransform="matrix(1, 0, 0, -1, 0, 2226.36)" xlink:href="#未命名的渐变_1631"/><linearGradient id="未命名的渐变_49" x1="160.98" y1="1992.2" x2="160.98" y2="1991.17" gradientTransform="matrix(1, 0, 0, -1, 0, 2226.36)" gradientUnits="userSpaceOnUse"><stop offset="0" stop-color="#060ea4" stop-opacity="0.6"/><stop offset="1" stop-color="#060ea4" stop-opacity="0"/></linearGradient><linearGradient id="未命名的渐变_49-2" x1="160.98" y1="2000.23" x2="160.98" y2="1999.2" xlink:href="#未命名的渐变_49"/><linearGradient id="未命名的渐变_1631-4" x1="150.82" y1="1986.25" x2="171.14" y2="1986.25" gradientTransform="matrix(1, 0, 0, -1, 0, 2226.36)" xlink:href="#未命名的渐变_1631"/><linearGradient id="未命名的渐变_4756-2" x1="150.82" y1="1995.27" x2="171.14" y2="1995.27" gradientTransform="matrix(1, 0, 0, -1, 0, 2226.36)" xlink:href="#未命名的渐变_4756"/><linearGradient id="未命名的渐变_46-2" x1="179.4" y1="226.13" x2="179.4" y2="166.14" xlink:href="#未命名的渐变_46"/><linearGradient id="未命名的渐变_1623-2" x1="-1110.9" y1="1776.61" x2="-1110.9" y2="1684.71" gradientTransform="translate(-1668.72 -1080.65) rotate(-90)" xlink:href="#未命名的渐变_1623"/><linearGradient id="未命名的渐变_1623-3" x1="-1107.33" y1="1773.62" x2="-1077.79" y2="1692.47" gradientTransform="translate(-1668.72 -1080.65) rotate(-90)" xlink:href="#未命名的渐变_1623"/><linearGradient id="未命名的渐变_464-3" x1="61.94" y1="30.25" x2="61.94" y2="18.46" xlink:href="#未命名的渐变_464"/><linearGradient id="未命名的渐变_12" x1="19.64" y1="77.49" x2="104.23" y2="77.49" gradientTransform="translate(139.43 15.56) rotate(90)" gradientUnits="userSpaceOnUse"><stop offset="0" stop-color="#2e36c9"/><stop offset="0.15" stop-color="#969eeb"/><stop offset="0.25" stop-color="#969eeb"/><stop offset="0.85" stop-color="#060ea4"/><stop offset="1" stop-color="#060fbc"/></linearGradient><linearGradient id="未命名的渐变_1631-5" x1="16.02" y1="121.71" x2="107.85" y2="121.71" gradientTransform="translate(183.65 59.78) rotate(90)" xlink:href="#未命名的渐变_1631"/><linearGradient id="未命名的渐变_79" x1="61.94" y1="112.94" x2="61.94" y2="45.02" gradientUnits="userSpaceOnUse"><stop offset="0" stop-color="#4fc5fa"/><stop offset="0.04" stop-color="#4fc5fa" stop-opacity="0.6"/><stop offset="1" stop-color="#1a30ff" stop-opacity="0"/></linearGradient><linearGradient id="未命名的渐变_81" x1="61.94" y1="112.94" x2="61.94" y2="45.02" gradientUnits="userSpaceOnUse"><stop offset="0" stop-color="#4fc5fa"/><stop offset="0.04" stop-color="#4fc5fa" stop-opacity="0.6"/><stop offset="0.27" stop-color="#409bfb" stop-opacity="0.43"/><stop offset="0.61" stop-color="#2c61fd" stop-opacity="0.2"/><stop offset="0.87" stop-color="#1f3eff" stop-opacity="0.05"/><stop offset="1" stop-color="#1a30ff" stop-opacity="0"/></linearGradient><mask id="mask" x="0" y="2.55" width="104.24" height="110.39" maskUnits="userSpaceOnUse"><g class="cls-1"><rect class="cls-2" x="19.63" y="45.02" width="84.61" height="67.92"/></g></mask><linearGradient id="未命名的渐变_1631-6" x1="22.45" y1="77.49" x2="24.8" y2="77.49" gradientTransform="translate(101.12 53.86) rotate(90)" xlink:href="#未命名的渐变_1631"/><linearGradient id="未命名的渐变_1631-7" x1="28.35" y1="77.49" x2="30.7" y2="77.49" gradientTransform="translate(107.01 47.97) rotate(90)" xlink:href="#未命名的渐变_1631"/><linearGradient id="未命名的渐变_1631-8" x1="34.24" y1="77.49" x2="36.59" y2="77.49" gradientTransform="translate(112.91 42.08) rotate(90)" xlink:href="#未命名的渐变_1631"/><linearGradient id="未命名的渐变_1631-9" x1="40.13" y1="77.49" x2="42.48" y2="77.49" gradientTransform="translate(118.8 36.18) rotate(90)" xlink:href="#未命名的渐变_1631"/><linearGradient id="未命名的渐变_1631-10" x1="46.03" y1="77.49" x2="48.38" y2="77.49" gradientTransform="translate(124.69 30.29) rotate(90)" xlink:href="#未命名的渐变_1631"/><linearGradient id="未命名的渐变_1631-11" x1="51.92" y1="77.49" x2="54.27" y2="77.49" gradientTransform="translate(130.59 24.4) rotate(90)" xlink:href="#未命名的渐变_1631"/><linearGradient id="未命名的渐变_1631-12" x1="57.82" y1="77.49" x2="60.16" y2="77.49" gradientTransform="translate(136.48 18.5) rotate(90)" xlink:href="#未命名的渐变_1631"/><linearGradient id="未命名的渐变_1631-13" x1="63.71" y1="77.49" x2="66.06" y2="77.49" gradientTransform="translate(142.37 12.61) rotate(90)" xlink:href="#未命名的渐变_1631"/><linearGradient id="未命名的渐变_1631-14" x1="69.6" y1="77.49" x2="71.95" y2="77.49" gradientTransform="translate(148.27 6.71) rotate(90)" xlink:href="#未命名的渐变_1631"/><linearGradient id="未命名的渐变_1631-15" x1="75.5" y1="77.49" x2="77.84" y2="77.49" gradientTransform="translate(154.16 0.82) rotate(90)" xlink:href="#未命名的渐变_1631"/><linearGradient id="未命名的渐变_1631-16" x1="81.39" y1="77.49" x2="83.74" y2="77.49" gradientTransform="translate(160.05 -5.07) rotate(90)" xlink:href="#未命名的渐变_1631"/><linearGradient id="未命名的渐变_1631-17" x1="87.28" y1="77.49" x2="89.63" y2="77.49" gradientTransform="translate(165.95 -10.97) rotate(90)" xlink:href="#未命名的渐变_1631"/><linearGradient id="未命名的渐变_1631-18" x1="93.18" y1="77.49" x2="95.52" y2="77.49" gradientTransform="translate(171.84 -16.86) rotate(90)" xlink:href="#未命名的渐变_1631"/><linearGradient id="未命名的渐变_1631-19" x1="99.07" y1="77.49" x2="101.42" y2="77.49" gradientTransform="translate(177.74 -22.75) rotate(90)" xlink:href="#未命名的渐变_1631"/><linearGradient id="未命名的渐变_1631-20" x1="11.19" y1="134.55" x2="112.68" y2="134.55" xlink:href="#未命名的渐变_1631"/><linearGradient id="未命名的渐变_12-2" x1="30.74" y1="149.84" x2="93.13" y2="149.84" gradientTransform="matrix(1, 0, 0, 1, 0, 0)" xlink:href="#未命名的渐变_12"/><linearGradient id="未命名的渐变_12-3" x1="30.74" y1="242.64" x2="93.13" y2="242.64" gradientTransform="matrix(1, 0, 0, 1, 0, 0)" xlink:href="#未命名的渐变_12"/><linearGradient id="未命名的渐变_464-4" x1="61.94" y1="149.79" x2="61.94" y2="146.75" gradientTransform="translate(210.21 86.33) rotate(90)" xlink:href="#未命名的渐变_464"/><linearGradient id="未命名的渐变_22" x1="61.94" y1="242.64" x2="61.94" y2="149.59" gradientUnits="userSpaceOnUse"><stop offset="0" stop-color="#2e36c9"/><stop offset="1" stop-color="#969eeb"/></linearGradient><linearGradient id="未命名的渐变_43" x1="61.94" y1="243.14" x2="61.94" y2="149.09" gradientUnits="userSpaceOnUse"><stop offset="0" stop-color="#161fac"/><stop offset="1" stop-color="#bcc0eb"/></linearGradient><linearGradient id="未命名的渐变_12-4" x1="11.19" y1="142.68" x2="112.68" y2="142.68" gradientTransform="matrix(1, 0, 0, 1, 0, 0)" xlink:href="#未命名的渐变_12"/><linearGradient id="未命名的渐变_12-5" x1="2.26" y1="250.87" x2="121.61" y2="250.87" gradientTransform="matrix(1, 0, 0, 1, 0, 0)" xlink:href="#未命名的渐变_12"/></defs><title>加药泵</title><g class="cls-5"><g id="图层_2" data-name="图层 2"><g id="废气处理"><g id="加药泵"><polygon class="cls-6" points="144.19 226.13 110.62 217.22 110.62 175.05 144.19 166.14 144.19 226.13"/><rect class="cls-7" x="144.19" y="166.14" width="33.57" height="59.99"/><rect class="cls-8" x="153.43" y="155.65" width="15.09" height="10.49"/><rect class="cls-9" x="153.43" y="156.05" width="15.09" height="1.03"/><rect class="cls-10" x="153.43" y="164.26" width="15.09" height="1.03"/><rect class="cls-11" x="150.82" y="148.27" width="20.33" height="7.78"/><g class="cls-12"><rect class="cls-13" x="168.9" y="149.38" width="1.11" height="5.56"/></g><g class="cls-12"><rect class="cls-13" x="166.49" y="149.38" width="1.11" height="5.56"/></g><g class="cls-12"><rect class="cls-13" x="164.07" y="149.38" width="1.11" height="5.56"/></g><g class="cls-12"><rect class="cls-13" x="161.65" y="149.38" width="1.11" height="5.56"/></g><g class="cls-12"><rect class="cls-13" x="159.23" y="149.38" width="1.11" height="5.56"/></g><g class="cls-12"><rect class="cls-13" x="156.82" y="149.38" width="1.11" height="5.56"/></g><g class="cls-12"><rect class="cls-13" x="154.4" y="149.38" width="1.11" height="5.56"/></g><g class="cls-12"><rect class="cls-13" x="151.98" y="149.38" width="1.11" height="5.56"/></g><rect class="cls-14" x="150.82" y="158.11" width="20.33" height="6.15"/><rect class="cls-15" x="153.43" y="226.13" width="15.09" height="10.49"/><rect class="cls-16" x="153.43" y="234.16" width="15.09" height="1.03"/><rect class="cls-17" x="153.43" y="226.13" width="15.09" height="1.03"/><rect class="cls-18" x="150.82" y="236.21" width="20.33" height="7.78"/><g class="cls-12"><rect class="cls-13" x="168.9" y="237.33" width="1.11" height="5.56"/></g><g class="cls-12"><rect class="cls-13" x="166.49" y="237.33" width="1.11" height="5.56"/></g><g class="cls-12"><rect class="cls-13" x="164.07" y="237.33" width="1.11" height="5.56"/></g><g class="cls-12"><rect class="cls-13" x="161.65" y="237.33" width="1.11" height="5.56"/></g><g class="cls-12"><rect class="cls-13" x="159.23" y="237.33" width="1.11" height="5.56"/></g><g class="cls-12"><rect class="cls-13" x="156.82" y="237.33" width="1.11" height="5.56"/></g><g class="cls-12"><rect class="cls-13" x="154.4" y="237.33" width="1.11" height="5.56"/></g><g class="cls-12"><rect class="cls-13" x="151.98" y="237.33" width="1.11" height="5.56"/></g><rect class="cls-19" x="150.82" y="228.01" width="20.33" height="6.15"/><rect class="cls-20" x="177.77" y="166.14" width="3.26" height="59.99"/><rect class="cls-21" x="15.99" y="18.46" width="91.9" height="23.58"/><polygon class="cls-22" points="97.94 0 107.89 18.46 15.99 18.46 25.93 0 97.94 0"/><rect class="cls-23" x="15.99" y="18.46" width="91.9" height="11.79"/><rect class="cls-24" x="26.49" y="35.2" width="70.89" height="84.59" transform="translate(-15.56 139.43) rotate(-90)"/><rect class="cls-25" x="53.16" y="75.79" width="17.55" height="91.83" transform="translate(-59.78 183.65) rotate(-90)"/><g class="cls-12"><rect class="cls-13" x="18.2" y="115.12" width="18.98" height="13.19"/><rect class="cls-13" x="43.09" y="115.12" width="37.7" height="13.19"/><rect class="cls-13" x="86.7" y="115.12" width="18.98" height="13.19"/></g><rect class="cls-26" x="19.63" y="45.02" width="84.61" height="67.92"/><path class="cls-27" d="M103.74,45.52v66.92H20.13V45.52h83.61m.5-.5H19.63v67.92h84.61V45Z"/><g class="cls-28"><rect class="cls-26" x="19.63" y="45.02" width="84.61" height="67.92"/></g><rect class="cls-29" x="-11.82" y="76.32" width="70.89" height="2.35" transform="translate(-53.86 101.12) rotate(-90)"/><rect class="cls-30" x="-5.93" y="76.32" width="70.89" height="2.35" transform="translate(-47.97 107.01) rotate(-90)"/><rect class="cls-31" x="-0.03" y="76.32" width="70.89" height="2.35" transform="translate(-42.08 112.91) rotate(-90)"/><rect class="cls-32" x="5.86" y="76.32" width="70.89" height="2.35" transform="translate(-36.18 118.8) rotate(-90)"/><rect class="cls-33" x="11.76" y="76.32" width="70.89" height="2.35" transform="translate(-30.29 124.69) rotate(-90)"/><rect class="cls-34" x="17.65" y="76.32" width="70.89" height="2.35" transform="translate(-24.4 130.59) rotate(-90)"/><rect class="cls-35" x="23.54" y="76.32" width="70.89" height="2.35" transform="translate(-18.5 136.48) rotate(-90)"/><rect class="cls-36" x="29.44" y="76.32" width="70.89" height="2.35" transform="translate(-12.61 142.37) rotate(-90)"/><rect class="cls-37" x="35.33" y="76.32" width="70.89" height="2.35" transform="translate(-6.71 148.27) rotate(-90)"/><rect class="cls-38" x="41.22" y="76.32" width="70.89" height="2.35" transform="translate(-0.82 154.16) rotate(-90)"/><rect class="cls-39" x="47.12" y="76.32" width="70.89" height="2.35" transform="translate(5.07 160.05) rotate(-90)"/><rect class="cls-40" x="53.01" y="76.32" width="70.89" height="2.35" transform="translate(10.97 165.95) rotate(-90)"/><rect class="cls-41" x="58.9" y="76.32" width="70.89" height="2.35" transform="translate(16.86 171.84) rotate(-90)"/><rect class="cls-42" x="64.8" y="76.32" width="70.89" height="2.35" transform="translate(22.75 177.74) rotate(-90)"/><rect class="cls-43" x="11.19" y="130.48" width="101.49" height="8.13"/><rect class="cls-44" x="30.74" y="146.75" width="62.39" height="6.19"/><rect class="cls-45" x="30.74" y="239.55" width="62.39" height="6.19"/><rect class="cls-46" x="60.42" y="117.08" width="3.04" height="62.39" transform="translate(-86.33 210.21) rotate(-90)"/><rect class="cls-47" x="0.5" y="149.59" width="122.87" height="93.05" rx="41.77"/><rect class="cls-48" x="11.19" y="138.62" width="101.49" height="8.13"/><rect class="cls-49" x="2.26" y="245.73" width="119.34" height="10.27"/></g></g></g></g></svg>