<svg xmlns="http://www.w3.org/2000/svg" xmlns:xlink="http://www.w3.org/1999/xlink" viewBox="0 0 256 238"><defs><style>.cls-1{isolation:isolate;}.cls-2{fill:url(#未命名的渐变_243);}.cls-3{opacity:0.5;mix-blend-mode:multiply;}.cls-4{fill:#040966;}.cls-5,.cls-7{stroke:#8b8fba;stroke-miterlimit:10;stroke-width:0.5px;}.cls-5{fill:url(#未命名的渐变_2);}.cls-6{fill:#8b8fba;}.cls-7{fill:url(#未命名的渐变_2-2);}.cls-8{opacity:0.2;}.cls-9{fill:#fff;}</style><linearGradient id="未命名的渐变_243" y1="119" x2="256" y2="119" gradientUnits="userSpaceOnUse"><stop offset="0" stop-color="#9dadff"/><stop offset="0.02" stop-color="#d2d9f7"/><stop offset="0.04" stop-color="#d2d9f7"/><stop offset="0.98" stop-color="#7580c0"/><stop offset="1" stop-color="#8795dc"/></linearGradient><linearGradient id="未命名的渐变_2" x1="99.28" y1="265.18" x2="99.28" y2="272.02" gradientTransform="translate(-233.27 -90.92) rotate(-45)" gradientUnits="userSpaceOnUse"><stop offset="0" stop-color="#a2addb"/><stop offset="0" stop-color="#a9b0e1"/><stop offset="0.09" stop-color="#a9b0e1"/><stop offset="0.46" stop-color="#c7d2ff"/><stop offset="1" stop-color="#a7b1e2"/></linearGradient><linearGradient id="未命名的渐变_2-2" x1="-33.58" y1="398.04" x2="-33.58" y2="404.88" xlink:href="#未命名的渐变_2"/></defs><title>多功能盒</title><g class="cls-1"><g id="图层_2" data-name="图层 2"><g id="废气处理"><g id="多功能盒"><g id="_编组_" data-name="&lt;编组&gt;"><path class="cls-2" d="M0,0V38.76a4,4,0,0,0,2.93,3.85L15.08,46A4,4,0,0,1,18,49.84V234a4,4,0,0,0,4,4H234a4,4,0,0,0,4-4V49.84A4,4,0,0,1,240.92,46l12.15-3.38A4,4,0,0,0,256,38.76V0ZM232,225.46a2.86,2.86,0,0,1-5.72,0V216a2.86,2.86,0,1,1,5.72,0Zm0-187.89a2.86,2.86,0,0,1-5.72,0V28.12a2.86,2.86,0,0,1,5.72,0Z"/><g class="cls-3"><path class="cls-4" d="M26.86,25.76a2.36,2.36,0,0,1,2.36,2.36v9.45a2.36,2.36,0,1,1-4.72,0V28.12a2.36,2.36,0,0,1,2.36-2.36m0-.5A2.87,2.87,0,0,0,24,28.12v9.45a2.86,2.86,0,1,0,5.72,0V28.12a2.87,2.87,0,0,0-2.86-2.86Z"/></g><circle class="cls-5" cx="26.86" cy="28.81" r="3.42"/><polygon class="cls-6" points="28.24 30.81 26.77 29.35 25.44 30.68 24.85 30.09 26.18 28.76 24.85 27.43 25.49 26.8 26.81 28.12 28.14 26.8 28.73 27.39 27.41 28.71 28.87 30.18 28.24 30.81"/><g class="cls-3"><path class="cls-4" d="M26.86,213.65A2.37,2.37,0,0,1,29.22,216v9.44a2.36,2.36,0,0,1-4.72,0V216a2.37,2.37,0,0,1,2.36-2.37m0-.5A2.87,2.87,0,0,0,24,216v9.44a2.86,2.86,0,0,0,5.72,0V216a2.87,2.87,0,0,0-2.86-2.87Z"/></g><circle class="cls-7" cx="26.86" cy="216.7" r="3.42"/><polygon class="cls-6" points="28.24 218.7 26.77 217.24 25.44 218.57 24.85 217.98 26.18 216.65 24.85 215.32 25.49 214.69 26.81 216.01 28.14 214.69 28.73 215.28 27.41 216.61 28.87 218.07 28.24 218.7"/></g>
</g></g></g></g></svg>