<svg xmlns="http://www.w3.org/2000/svg" xmlns:xlink="http://www.w3.org/1999/xlink" viewBox="0 0 256 64.42"><defs><style>.cls-1{isolation:isolate;}.cls-2{fill:url(#未命名的渐变_45);}.cls-3{fill:url(#未命名的渐变_45-2);}.cls-4{fill:url(#未命名的渐变_45-3);}.cls-5{fill:url(#未命名的渐变_44);}.cls-6{fill:url(#未命名的渐变_44-2);}.cls-7{fill:url(#未命名的渐变_47);}.cls-8{fill:url(#未命名的渐变_47-2);}.cls-12,.cls-9{opacity:0.3;mix-blend-mode:multiply;}.cls-9{fill:url(#未命名的渐变_464);}.cls-10{fill:url(#未命名的渐变_47-3);}.cls-11{fill:url(#未命名的渐变_47-4);}.cls-12{fill:url(#未命名的渐变_464-2);}.cls-13{opacity:0.2;}.cls-14{fill:#fff;}</style><linearGradient id="未命名的渐变_45" x1="128" y1="64.42" x2="128" y2="12.7" gradientUnits="userSpaceOnUse"><stop offset="0" stop-color="#8795dc"/><stop offset="0.1" stop-color="#7580c0"/><stop offset="0.75" stop-color="#fff"/><stop offset="0.85" stop-color="#fff"/><stop offset="1" stop-color="#9dadff"/></linearGradient><linearGradient id="未命名的渐变_45-2" x1="233.57" y1="58.87" x2="256.08" y2="19.88" xlink:href="#未命名的渐变_45"/><linearGradient id="未命名的渐变_45-3" x1="1053.59" y1="58.87" x2="1076.09" y2="19.88" gradientTransform="matrix(-1, 0, 0, 1, 1076.02, 0)" xlink:href="#未命名的渐变_45"/><linearGradient id="未命名的渐变_44" x1="16.49" y1="64.42" x2="16.49" y2="12.7" gradientUnits="userSpaceOnUse"><stop offset="0" stop-color="#060fbc"/><stop offset="0.15" stop-color="#060ea4"/><stop offset="0.75" stop-color="#969eeb"/><stop offset="0.85" stop-color="#969eeb"/><stop offset="1" stop-color="#2e36c9"/></linearGradient><linearGradient id="未命名的渐变_44-2" x1="239.51" y1="64.42" x2="239.51" y2="12.7" xlink:href="#未命名的渐变_44"/><linearGradient id="未命名的渐变_47" x1="30" y1="2.32" x2="53.15" y2="2.32" gradientUnits="userSpaceOnUse"><stop offset="0" stop-color="#9dadff"/><stop offset="0.15" stop-color="#fff"/><stop offset="0.25" stop-color="#fff"/><stop offset="0.9" stop-color="#7580c0"/><stop offset="1" stop-color="#8795dc"/></linearGradient><linearGradient id="未命名的渐变_47-2" x1="33.83" y1="8.67" x2="49.33" y2="8.67" xlink:href="#未命名的渐变_47"/><linearGradient id="未命名的渐变_464" x1="41.58" y1="8.67" x2="41.58" y2="4.64" gradientUnits="userSpaceOnUse"><stop offset="0" stop-color="#060ea4" stop-opacity="0"/><stop offset="1" stop-color="#060ea4" stop-opacity="0.6"/></linearGradient><linearGradient id="未命名的渐变_47-3" x1="202.85" y1="2.32" x2="226" y2="2.32" xlink:href="#未命名的渐变_47"/><linearGradient id="未命名的渐变_47-4" x1="206.67" y1="8.67" x2="222.17" y2="8.67" xlink:href="#未命名的渐变_47"/><linearGradient id="未命名的渐变_464-2" x1="214.42" y1="8.67" x2="214.42" y2="4.64" xlink:href="#未命名的渐变_464"/></defs><title>换热器</title><g class="cls-1"><g id="图层_2" data-name="图层 2"><g id="废气处理"><g id="换热器"><rect class="cls-2" x="12.82" y="12.7" width="230.36" height="51.72"/><path class="cls-3" d="M243.18,64.42V12.7S256,16.21,256,38.56,243.18,64.42,243.18,64.42Z"/><path class="cls-4" d="M12.82,64.42V12.7S0,16.21,0,38.56,12.82,64.42,12.82,64.42Z"/><rect class="cls-5" x="12.82" y="12.7" width="7.34" height="51.72"/><rect class="cls-6" x="235.84" y="12.7" width="7.34" height="51.72"/><rect class="cls-7" x="30" width="23.15" height="4.64"/><rect class="cls-8" x="33.83" y="4.64" width="15.5" height="8.05"/><rect class="cls-9" x="33.83" y="4.64" width="15.5" height="4.03"/><rect class="cls-10" x="202.85" width="23.15" height="4.64"/><rect class="cls-11" x="206.67" y="4.64" width="15.5" height="8.05"/><rect class="cls-12" x="206.67" y="4.64" width="15.5" height="4.03"/>
</g></g></g></g></svg>