<svg xmlns="http://www.w3.org/2000/svg" xmlns:xlink="http://www.w3.org/1999/xlink" viewBox="0 0 96.2 256"><defs><style>.cls-1{isolation:isolate;}.cls-2{fill:url(#未命名的渐变_4287);}.cls-3{fill:url(#未命名的渐变_4287-2);}.cls-4{fill:url(#未命名的渐变_4287-3);}.cls-5{fill:url(#未命名的渐变_4287-4);}.cls-6{opacity:0.3;mix-blend-mode:multiply;fill:url(#未命名的渐变_133);}.cls-7{stroke-miterlimit:10;fill:url(#未命名的渐变_4711);stroke:url(#未命名的渐变_19);}.cls-8{fill:url(#未命名的渐变_4287-5);}.cls-9{fill:url(#未命名的渐变_4287-6);}.cls-10{fill:url(#未命名的渐变_177);}.cls-11{fill:url(#未命名的渐变_182);}.cls-12{fill:url(#未命名的渐变_177-2);}.cls-13{fill:url(#未命名的渐变_4711-2);}.cls-14{fill:url(#未命名的渐变_4711-3);}.cls-15{fill:url(#未命名的渐变_177-3);}.cls-16{fill:url(#未命名的渐变_4287-7);}.cls-17{fill:url(#未命名的渐变_4287-8);}.cls-18{opacity:0.2;}.cls-19{fill:#fff;}</style><linearGradient id="未命名的渐变_4287" y1="140.86" x2="96.2" y2="140.86" gradientUnits="userSpaceOnUse"><stop offset="0" stop-color="#9dadff"/><stop offset="0.15" stop-color="#fff"/><stop offset="0.25" stop-color="#fff"/><stop offset="0.9" stop-color="#7580c0"/><stop offset="1" stop-color="#8795dc"/></linearGradient><linearGradient id="未命名的渐变_4287-2" x1="24.05" y1="1.67" x2="72.15" y2="49.77" xlink:href="#未命名的渐变_4287"/><linearGradient id="未命名的渐变_4287-3" x1="26" y1="5.79" x2="70.2" y2="5.79" xlink:href="#未命名的渐变_4287"/><linearGradient id="未命名的渐变_4287-4" x1="23.7" y1="0.83" x2="72.5" y2="0.83" xlink:href="#未命名的渐变_4287"/><linearGradient id="未命名的渐变_133" x1="48.1" y1="25.72" x2="48.1" y2="55.68" gradientUnits="userSpaceOnUse"><stop offset="0" stop-color="#060ea4" stop-opacity="0.6"/><stop offset="1" stop-color="#060ea4" stop-opacity="0"/></linearGradient><linearGradient id="未命名的渐变_4711" x1="48.1" y1="241.55" x2="48.1" y2="199.69" gradientUnits="userSpaceOnUse"><stop offset="0" stop-color="#b2bded"/><stop offset="1" stop-color="#dbe1ff"/></linearGradient><linearGradient id="未命名的渐变_19" x1="48.1" y1="242.05" x2="48.1" y2="199.19" gradientUnits="userSpaceOnUse"><stop offset="0" stop-color="#6774b6"/><stop offset="1" stop-color="#b2bded"/></linearGradient><linearGradient id="未命名的渐变_4287-5" x1="9.74" y1="15.54" x2="16.11" y2="15.54" gradientTransform="translate(1.18 -0.57)" xlink:href="#未命名的渐变_4287"/><linearGradient id="未命名的渐变_4287-6" x1="8.8" y1="13.19" x2="17.05" y2="13.19" gradientTransform="translate(-0.04 -0.23)" xlink:href="#未命名的渐变_4287"/><linearGradient id="未命名的渐变_177" x1="44.42" y1="21.69" x2="51.08" y2="21.69" gradientTransform="translate(-0.19 0.95) rotate(-1.13)" gradientUnits="userSpaceOnUse"><stop offset="0" stop-color="#28398b"/><stop offset="0.15" stop-color="#999fda"/><stop offset="0.25" stop-color="#999fda"/><stop offset="0.9" stop-color="#1e2a6b"/><stop offset="1" stop-color="#23317a"/></linearGradient><linearGradient id="未命名的渐变_182" x1="45.41" y1="17.91" x2="50.29" y2="17.91" gradientTransform="translate(-0.19 0.95) rotate(-1.13)" gradientUnits="userSpaceOnUse"><stop offset="0" stop-color="#23317a"/><stop offset="0.1" stop-color="#1e2a6b"/><stop offset="0.75" stop-color="#999fda"/><stop offset="0.85" stop-color="#999fda"/><stop offset="1" stop-color="#606cb2"/></linearGradient><linearGradient id="未命名的渐变_177-2" x1="43.02" y1="19.54" x2="52.76" y2="19.54" xlink:href="#未命名的渐变_177"/><linearGradient id="未命名的渐变_4711-2" x1="47.92" y1="21.42" x2="47.92" y2="13.05" gradientTransform="translate(-0.19 0.95) rotate(-1.13)" xlink:href="#未命名的渐变_4711"/><linearGradient id="未命名的渐变_4711-3" x1="47.93" y1="20.09" x2="47.93" y2="13.87" gradientTransform="translate(-0.19 0.95) rotate(-1.13)" xlink:href="#未命名的渐变_4711"/><linearGradient id="未命名的渐变_177-3" x1="44.33" y1="18.59" x2="51.52" y2="18.59" xlink:href="#未命名的渐变_177"/><linearGradient id="未命名的渐变_4287-7" x1="34.27" y1="30.38" x2="40.63" y2="30.38" gradientTransform="matrix(1, 0, 0, -1, 44.64, 45.35)" xlink:href="#未命名的渐变_4287"/><linearGradient id="未命名的渐变_4287-8" x1="33.32" y1="28.03" x2="41.58" y2="28.03" gradientTransform="matrix(1, 0, 0, -1, 45.86, 40.99)" xlink:href="#未命名的渐变_4287"/></defs><title>极冷塔</title><g class="cls-1"><g id="图层_2" data-name="图层 2"><g id="废气处理"><g id="极冷塔"><rect class="cls-2" y="25.72" width="96.2" height="230.28"/><polygon class="cls-3" points="96.2 25.72 0 25.72 26 9.91 70.2 9.91 96.2 25.72"/><rect class="cls-4" x="26" y="1.66" width="44.2" height="8.25"/><rect class="cls-5" x="23.7" width="48.8" height="1.66"/><rect class="cls-6" y="25.72" width="96.2" height="29.97"/><circle class="cls-7" cx="48.1" cy="220.62" r="20.93"/><rect class="cls-8" x="10.92" y="13.11" width="6.37" height="3.71" transform="translate(-5.71 9.47) rotate(-31.18)"/><rect class="cls-9" x="8.77" y="12.47" width="8.25" height="0.99" transform="translate(-4.85 8.55) rotate(-31.18)"/><g class="cls-1"><path class="cls-10" d="M44.62,20.81a3.36,3.36,0,0,0,.73.89,4.16,4.16,0,0,0,5.28,0,3.47,3.47,0,0,0,.66-.79A5.41,5.41,0,0,1,44.62,20.81Z"/><path class="cls-11" d="M49.73,15.54a2.62,2.62,0,0,0-3.34,0,1.91,1.91,0,0,0-.69,1.41l-.08,3.83c0-.51.24-.05.69-.44a2.62,2.62,0,0,1,3.33,0c.48.41.71,0,.7.51L50.42,17A1.9,1.9,0,0,0,49.73,15.54Z"/><path class="cls-12" d="M51.49,20.2a5.38,5.38,0,0,1-6.84,0,3.92,3.92,0,0,1-1.43-3l0,.6a3.92,3.92,0,0,0,1.43,3,5.38,5.38,0,0,0,6.84,0,3.87,3.87,0,0,0,1.4-2.88l.06-.6A3.88,3.88,0,0,1,51.49,20.2Z"/><path class="cls-13" d="M51.47,14.29a5.38,5.38,0,0,0-6.84,0,3.8,3.8,0,0,0,0,5.92,5.38,5.38,0,0,0,6.84,0A3.8,3.8,0,0,0,51.47,14.29Zm-.86,5.15a4,4,0,0,1-5.08,0,2.81,2.81,0,0,1,0-4.39,4,4,0,0,1,5.08,0A2.81,2.81,0,0,1,50.61,19.44Z"/><path class="cls-14" d="M50.6,14.79a4,4,0,0,0-5.08,0,2.82,2.82,0,0,0,0,4.4,4,4,0,0,0,5.08,0A2.81,2.81,0,0,0,50.6,14.79Zm-.86,3.64a2.64,2.64,0,0,1-3.34,0,1.85,1.85,0,0,1,0-2.89,2.62,2.62,0,0,1,3.34,0A1.86,1.86,0,0,1,49.74,18.43Z"/><path class="cls-15" d="M50.61,19.18a4,4,0,0,1-5.08,0,2.92,2.92,0,0,1-1.06-2.26v.27a2.88,2.88,0,0,0,1.06,2.25,4,4,0,0,0,5.08,0,2.88,2.88,0,0,0,1-2.14V17A2.89,2.89,0,0,1,50.61,19.18Z"/></g><rect class="cls-16" x="78.91" y="13.11" width="6.37" height="3.71" transform="translate(144.58 70.28) rotate(-148.82)"/><rect class="cls-17" x="79.18" y="12.47" width="8.25" height="0.99" transform="translate(147.87 67.18) rotate(-148.82)"/>
</g></g></g></g></svg>