<svg xmlns="http://www.w3.org/2000/svg" xmlns:xlink="http://www.w3.org/1999/xlink" viewBox="0 0 169.11 256"><defs><style>.cls-1{mix-blend-mode:overlay;}.cls-2{fill:url(#新建图案色板_1);}.cls-3,.cls-4{fill:none;}.cls-4{stroke:#fff;stroke-width:0.1px;}.cls-4,.cls-45,.cls-46{stroke-miterlimit:10;}.cls-5{isolation:isolate;}.cls-6{fill:url(#未命名的渐变_460);}.cls-7{fill:url(#未命名的渐变_2026);}.cls-8{fill:url(#未命名的渐变_460-2);}.cls-9{fill:url(#未命名的渐变_460-3);}.cls-10{fill:url(#未命名的渐变_460-4);}.cls-11{fill:url(#未命名的渐变_460-5);}.cls-12,.cls-18{opacity:0.3;}.cls-12,.cls-15,.cls-18{mix-blend-mode:multiply;}.cls-12{fill:url(#未命名的渐变_464);}.cls-13{fill:url(#未命名的渐变_1268);}.cls-14{fill:url(#未命名的渐变_465);}.cls-15,.cls-51{opacity:0.2;}.cls-16{fill:#3941cc;}.cls-17{fill:url(#未命名的渐变_1609);}.cls-18{fill:url(#未命名的渐变_464-2);}.cls-19{fill:url(#未命名的渐变_50);}.cls-20{fill:url(#未命名的渐变_55);}.cls-21{mask:url(#mask);}.cls-22{fill:url(#未命名的渐变_1268-2);}.cls-23{fill:url(#未命名的渐变_1268-3);}.cls-24{fill:url(#未命名的渐变_1268-4);}.cls-25{fill:url(#未命名的渐变_1268-5);}.cls-26{fill:url(#未命名的渐变_1268-6);}.cls-27{fill:url(#未命名的渐变_1268-7);}.cls-28{fill:url(#未命名的渐变_1268-8);}.cls-29{fill:url(#未命名的渐变_1268-9);}.cls-30{fill:url(#未命名的渐变_1268-10);}.cls-31{fill:url(#未命名的渐变_1268-11);}.cls-32{fill:url(#未命名的渐变_1268-12);}.cls-33{fill:url(#未命名的渐变_1268-13);}.cls-34{fill:url(#未命名的渐变_1268-14);}.cls-35{fill:url(#未命名的渐变_1268-15);}.cls-36{fill:url(#未命名的渐变_465-2);}.cls-37{fill:url(#未命名的渐变_1609-2);}.cls-38{fill:url(#未命名的渐变_1609-3);}.cls-39{fill:url(#未命名的渐变_943);}.cls-40{fill:url(#未命名的渐变_460-6);}.cls-41{fill:url(#未命名的渐变_460-7);}.cls-42{fill:url(#未命名的渐变_460-8);}.cls-43{fill:url(#未命名的渐变_460-9);}.cls-44{fill:url(#未命名的渐变_460-10);}.cls-45{fill:url(#未命名的渐变_979);stroke:url(#未命名的渐变_978);}.cls-46{stroke-width:5px;fill:url(#未命名的渐变_979-2);stroke:url(#未命名的渐变_978-2);}.cls-47{fill:url(#未命名的渐变_4711);}.cls-48{fill:url(#未命名的渐变_4795);}.cls-49{fill:url(#未命名的渐变_4711-2);}.cls-50{fill:url(#未命名的渐变_4795-2);}.cls-52{fill:#fff;}</style><pattern id="新建图案色板_1" data-name="新建图案色板 1" width="5" height="5" patternTransform="translate(10.17 93.23) scale(1.83 1.64)" patternUnits="userSpaceOnUse" viewBox="0 0 5 5"><rect class="cls-3" width="5" height="5"/><line class="cls-4" x1="2.5" x2="2.5" y2="5"/><line class="cls-4" x1="5" y1="2.5" y2="2.5"/></pattern><linearGradient id="未命名的渐变_460" x1="-561.66" y1="1811.94" x2="-561.66" y2="1692.64" gradientTransform="translate(-1674.93 -494.86) rotate(-90)" gradientUnits="userSpaceOnUse"><stop offset="0" stop-color="#8795dc"/><stop offset="0.1" stop-color="#7580c0"/><stop offset="0.75" stop-color="#fff"/><stop offset="0.85" stop-color="#fff"/><stop offset="1" stop-color="#9dadff"/></linearGradient><linearGradient id="未命名的渐变_2026" x1="77.36" y1="15.61" x2="77.36" gradientUnits="userSpaceOnUse"><stop offset="0" stop-color="#e43900"/><stop offset="1" stop-color="#ffa98d"/></linearGradient><linearGradient id="未命名的渐变_460-2" x1="-516.42" y1="1754.64" x2="-516.42" y2="1749.93" xlink:href="#未命名的渐变_460"/><linearGradient id="未命名的渐变_460-3" x1="-516.42" y1="1794.27" x2="-516.42" y2="1789.56" xlink:href="#未命名的渐变_460"/><linearGradient id="未命名的渐变_460-4" x1="-516.42" y1="1715.01" x2="-516.42" y2="1710.3" xlink:href="#未命名的渐变_460"/><linearGradient id="未命名的渐变_460-5" x1="-557.01" y1="1808.05" x2="-518.67" y2="1702.71" xlink:href="#未命名的渐变_460"/><linearGradient id="未命名的渐变_464" x1="77.36" y1="66.8" x2="77.36" y2="51.49" gradientUnits="userSpaceOnUse"><stop offset="0" stop-color="#060ea4" stop-opacity="0"/><stop offset="1" stop-color="#060ea4" stop-opacity="0.6"/></linearGradient><linearGradient id="未命名的渐变_1268" x1="20.72" y1="128.12" x2="130.53" y2="128.12" gradientTransform="translate(203.74 52.49) rotate(90)" gradientUnits="userSpaceOnUse"><stop offset="0" stop-color="#e43900"/><stop offset="0.15" stop-color="#ffa98d"/><stop offset="0.25" stop-color="#ffa98d"/><stop offset="0.85" stop-color="#c73200"/><stop offset="1" stop-color="#e43900"/></linearGradient><linearGradient id="未命名的渐变_465" x1="17.79" y1="185.52" x2="137.01" y2="185.52" gradientTransform="translate(262.92 108.12) rotate(90)" gradientUnits="userSpaceOnUse"><stop offset="0" stop-color="#9dadff"/><stop offset="0.15" stop-color="#fff"/><stop offset="0.25" stop-color="#fff"/><stop offset="0.9" stop-color="#7580c0"/><stop offset="1" stop-color="#8795dc"/></linearGradient><linearGradient id="未命名的渐变_1609" x1="17.79" y1="230.04" x2="137.01" y2="230.04" gradientUnits="userSpaceOnUse"><stop offset="0" stop-color="#7d8cd2"/><stop offset="0.15" stop-color="#cdd0ec"/><stop offset="0.25" stop-color="#cdd0ec"/><stop offset="0.9" stop-color="#6472bf"/><stop offset="1" stop-color="#7b89cf"/></linearGradient><linearGradient id="未命名的渐变_464-2" x1="77.4" y1="225.91" x2="77.4" y2="218.03" gradientTransform="translate(299.37 144.57) rotate(90)" xlink:href="#未命名的渐变_464"/><linearGradient id="未命名的渐变_50" x1="75.63" y1="174.13" x2="75.63" y2="85.97" gradientUnits="userSpaceOnUse"><stop offset="0" stop-color="#ffe8ae"/><stop offset="0.04" stop-color="#ffe8ae" stop-opacity="0.6"/><stop offset="1" stop-color="#ff5219" stop-opacity="0"/></linearGradient><linearGradient id="未命名的渐变_55" x1="75.63" y1="174.13" x2="75.63" y2="85.97" gradientUnits="userSpaceOnUse"><stop offset="0" stop-color="#ffe8ae"/><stop offset="0.04" stop-color="#ffe8ae" stop-opacity="0.6"/><stop offset="0.28" stop-color="#ffbb82" stop-opacity="0.42"/><stop offset="0.62" stop-color="#ff8349" stop-opacity="0.19"/><stop offset="0.87" stop-color="#ff5f26" stop-opacity="0.05"/><stop offset="1" stop-color="#ff5219" stop-opacity="0"/></linearGradient><mask id="mask" x="0" y="2.55" width="130.54" height="171.58" maskUnits="userSpaceOnUse"><g class="cls-1"><rect class="cls-2" x="20.71" y="85.97" width="109.83" height="88.17"/></g></mask><linearGradient id="未命名的渐变_1268-2" x1="24.64" y1="128.12" x2="27.68" y2="128.12" gradientTransform="translate(154.28 101.96) rotate(90)" xlink:href="#未命名的渐变_1268"/><linearGradient id="未命名的渐变_1268-3" x1="32.29" y1="128.12" x2="35.33" y2="128.12" gradientTransform="translate(161.93 94.31) rotate(90)" xlink:href="#未命名的渐变_1268"/><linearGradient id="未命名的渐变_1268-4" x1="39.94" y1="128.12" x2="42.98" y2="128.12" gradientTransform="translate(169.58 86.66) rotate(90)" xlink:href="#未命名的渐变_1268"/><linearGradient id="未命名的渐变_1268-5" x1="47.59" y1="128.12" x2="50.63" y2="128.12" gradientTransform="translate(177.23 79.01) rotate(90)" xlink:href="#未命名的渐变_1268"/><linearGradient id="未命名的渐变_1268-6" x1="55.24" y1="128.12" x2="58.29" y2="128.12" gradientTransform="translate(184.88 71.36) rotate(90)" xlink:href="#未命名的渐变_1268"/><linearGradient id="未命名的渐变_1268-7" x1="62.89" y1="128.12" x2="65.94" y2="128.12" gradientTransform="translate(192.53 63.71) rotate(90)" xlink:href="#未命名的渐变_1268"/><linearGradient id="未命名的渐变_1268-8" x1="70.54" y1="128.12" x2="73.59" y2="128.12" gradientTransform="translate(200.18 56.06) rotate(90)" xlink:href="#未命名的渐变_1268"/><linearGradient id="未命名的渐变_1268-9" x1="78.19" y1="128.12" x2="81.24" y2="128.12" gradientTransform="translate(207.83 48.41) rotate(90)" xlink:href="#未命名的渐变_1268"/><linearGradient id="未命名的渐变_1268-10" x1="85.84" y1="128.12" x2="88.89" y2="128.12" gradientTransform="translate(215.48 40.75) rotate(90)" xlink:href="#未命名的渐变_1268"/><linearGradient id="未命名的渐变_1268-11" x1="93.49" y1="128.12" x2="96.54" y2="128.12" gradientTransform="translate(223.13 33.1) rotate(90)" xlink:href="#未命名的渐变_1268"/><linearGradient id="未命名的渐变_1268-12" x1="101.14" y1="128.12" x2="104.19" y2="128.12" gradientTransform="translate(230.78 25.45) rotate(90)" xlink:href="#未命名的渐变_1268"/><linearGradient id="未命名的渐变_1268-13" x1="108.79" y1="128.12" x2="111.84" y2="128.12" gradientTransform="translate(238.43 17.8) rotate(90)" xlink:href="#未命名的渐变_1268"/><linearGradient id="未命名的渐变_1268-14" x1="116.44" y1="128.12" x2="119.49" y2="128.12" gradientTransform="translate(246.09 10.15) rotate(90)" xlink:href="#未命名的渐变_1268"/><linearGradient id="未命名的渐变_1268-15" x1="124.09" y1="128.12" x2="127.14" y2="128.12" gradientTransform="translate(253.74 2.5) rotate(90)" xlink:href="#未命名的渐变_1268"/><linearGradient id="未命名的渐变_465-2" x1="6.94" y1="202.19" x2="148" y2="202.19" gradientTransform="matrix(1, 0, 0, 1, 0, 0)" xlink:href="#未命名的渐变_465"/><linearGradient id="未命名的渐变_1609-2" x1="6.94" y1="212.75" x2="148" y2="212.75" xlink:href="#未命名的渐变_1609"/><linearGradient id="未命名的渐变_1609-3" x1="1.84" y1="249.03" x2="153.11" y2="249.03" xlink:href="#未命名的渐变_1609"/><linearGradient id="未命名的渐变_943" x1="127.77" y1="159.25" x2="127.77" y2="145.14" gradientUnits="userSpaceOnUse"><stop offset="0" stop-color="#2238a4"/><stop offset="0.15" stop-color="#969eeb"/><stop offset="0.25" stop-color="#969eeb"/><stop offset="0.9" stop-color="#19297e"/><stop offset="1" stop-color="#1d308e"/></linearGradient><linearGradient id="未命名的渐变_460-6" x1="125.38" y1="160.67" x2="125.38" y2="143.72" gradientTransform="matrix(1, 0, 0, 1, 0, 0)" xlink:href="#未命名的渐变_460"/><linearGradient id="未命名的渐变_460-7" x1="136.37" y1="160.67" x2="136.37" y2="143.72" gradientTransform="matrix(1, 0, 0, 1, 0, 0)" xlink:href="#未命名的渐变_460"/><linearGradient id="未命名的渐变_460-8" x1="145.46" y1="160.67" x2="145.46" y2="143.72" gradientTransform="matrix(1, 0, 0, 1, 0, 0)" xlink:href="#未命名的渐变_460"/><linearGradient id="未命名的渐变_460-9" x1="155.72" y1="158.45" x2="155.72" y2="145.94" gradientTransform="matrix(1, 0, 0, 1, 0, 0)" xlink:href="#未命名的渐变_460"/><linearGradient id="未命名的渐变_460-10" x1="163.25" y1="156.69" x2="163.25" y2="147.7" gradientTransform="matrix(1, 0, 0, 1, 0, 0)" xlink:href="#未命名的渐变_460"/><linearGradient id="未命名的渐变_979" x1="77.36" y1="197.54" x2="77.36" y2="106.85" gradientUnits="userSpaceOnUse"><stop offset="0" stop-color="#b2bded"/><stop offset="1" stop-color="#bfc7e9"/></linearGradient><linearGradient id="未命名的渐变_978" x1="77.36" y1="198.04" x2="77.36" y2="106.35" gradientUnits="userSpaceOnUse"><stop offset="0" stop-color="#6774b6"/><stop offset="1" stop-color="#fff"/></linearGradient><linearGradient id="未命名的渐变_979-2" x1="77.36" y1="180.27" x2="77.36" y2="124.13" xlink:href="#未命名的渐变_979"/><linearGradient id="未命名的渐变_978-2" x1="77.36" y1="182.77" x2="77.36" y2="121.63" xlink:href="#未命名的渐变_978"/><linearGradient id="未命名的渐变_4711" x1="141.92" y1="152.2" x2="141.92" y2="142.25" gradientUnits="userSpaceOnUse"><stop offset="0" stop-color="#b2bded"/><stop offset="1" stop-color="#dbe1ff"/></linearGradient><linearGradient id="未命名的渐变_4795" x1="141.92" y1="162.14" x2="141.92" y2="152.2" gradientUnits="userSpaceOnUse"><stop offset="0" stop-color="#8795dc"/><stop offset="1" stop-color="#4d5897"/></linearGradient><linearGradient id="未命名的渐变_4711-2" x1="151.07" y1="152.2" x2="151.07" y2="142.25" xlink:href="#未命名的渐变_4711"/><linearGradient id="未命名的渐变_4795-2" x1="151.07" y1="162.14" x2="151.07" y2="152.2" xlink:href="#未命名的渐变_4795"/></defs><title>水泵（红）</title><g class="cls-5"><g id="图层_2" data-name="图层 2"><g id="废气处理"><g id="水泵_红_" data-name="水泵（红）"><rect class="cls-6" x="17.71" y="51.49" width="119.3" height="30.61"/><polygon class="cls-7" points="112.26 0 154.71 12.78 154.71 15.61 0 15.61 0 12.78 42.46 0 112.26 0"/><rect class="cls-8" x="75" y="15.61" width="4.71" height="11.92"/><rect class="cls-9" x="114.63" y="15.61" width="4.71" height="11.92"/><rect class="cls-10" x="35.37" y="15.61" width="4.71" height="11.92"/><polygon class="cls-11" points="124.09 27.52 137.01 51.49 17.71 51.49 30.62 27.52 124.09 27.52"/><rect class="cls-12" x="17.71" y="51.49" width="119.3" height="15.3"/><rect class="cls-13" x="29.61" y="73.22" width="92.03" height="109.81" transform="translate(-52.49 203.74) rotate(-90)"/><rect class="cls-14" x="66.01" y="125.92" width="22.78" height="119.21" transform="translate(-108.12 262.92) rotate(-90)"/><g class="cls-15"><rect class="cls-16" x="20.63" y="176.97" width="24.64" height="17.12"/><rect class="cls-16" x="52.93" y="176.97" width="48.94" height="17.12"/><rect class="cls-16" x="109.54" y="176.97" width="24.64" height="17.12"/></g><path class="cls-17" d="M17.79,218v24H137V218ZM120,235.33H34.84V224.76H120Z"/><rect class="cls-18" x="73.46" y="162.36" width="7.89" height="119.21" transform="translate(-144.57 299.37) rotate(-90)"/><rect class="cls-19" x="20.71" y="85.97" width="109.83" height="88.17"/><path class="cls-20" d="M130,86.47v87.16H21.21V86.47H130m.5-.5H20.71v88.16H130.54V86Z"/><g class="cls-21"><rect class="cls-19" x="20.71" y="85.97" width="109.83" height="88.17"/></g><rect class="cls-22" x="-19.86" y="126.6" width="92.03" height="3.05" transform="translate(-101.96 154.28) rotate(-90)"/><rect class="cls-23" x="-12.21" y="126.6" width="92.03" height="3.05" transform="translate(-94.31 161.93) rotate(-90)"/><rect class="cls-24" x="-4.56" y="126.6" width="92.03" height="3.05" transform="translate(-86.66 169.58) rotate(-90)"/><rect class="cls-25" x="3.1" y="126.6" width="92.03" height="3.05" transform="translate(-79.01 177.23) rotate(-90)"/><rect class="cls-26" x="10.75" y="126.6" width="92.03" height="3.05" transform="translate(-71.36 184.88) rotate(-90)"/><rect class="cls-27" x="18.4" y="126.6" width="92.03" height="3.05" transform="translate(-63.71 192.53) rotate(-90)"/><rect class="cls-28" x="26.05" y="126.6" width="92.03" height="3.05" transform="translate(-56.06 200.18) rotate(-90)"/><rect class="cls-29" x="33.7" y="126.6" width="92.03" height="3.05" transform="translate(-48.41 207.83) rotate(-90)"/><rect class="cls-30" x="41.35" y="126.6" width="92.03" height="3.05" transform="translate(-40.75 215.48) rotate(-90)"/><rect class="cls-31" x="49" y="126.6" width="92.03" height="3.05" transform="translate(-33.1 223.13) rotate(-90)"/><rect class="cls-32" x="56.65" y="126.6" width="92.03" height="3.05" transform="translate(-25.45 230.78) rotate(-90)"/><rect class="cls-33" x="64.3" y="126.6" width="92.03" height="3.05" transform="translate(-17.8 238.43) rotate(-90)"/><rect class="cls-34" x="71.95" y="126.6" width="92.03" height="3.05" transform="translate(-10.15 246.09) rotate(-90)"/><rect class="cls-35" x="79.6" y="126.6" width="92.03" height="3.05" transform="translate(-2.5 253.74) rotate(-90)"/><rect class="cls-36" x="6.94" y="196.91" width="141.06" height="10.56"/><rect class="cls-37" x="6.94" y="207.47" width="141.06" height="10.56"/><rect class="cls-38" x="1.84" y="242.06" width="151.27" height="13.94"/><rect class="cls-39" x="121.06" y="145.14" width="13.42" height="14.11"/><rect class="cls-40" x="121.06" y="143.72" width="8.65" height="16.94"/><rect class="cls-41" x="133.02" y="143.72" width="6.69" height="16.94"/><rect class="cls-42" x="143.78" y="143.72" width="3.35" height="16.94"/><rect class="cls-43" x="154.04" y="145.94" width="3.35" height="12.51"/><rect class="cls-44" x="157.39" y="147.7" width="11.72" height="9"/><circle class="cls-45" cx="77.36" cy="152.2" r="45.35"/><circle class="cls-46" cx="77.36" cy="152.2" r="28.07"/><rect class="cls-47" x="137.98" y="142.25" width="7.88" height="9.94"/><rect class="cls-48" x="137.98" y="152.2" width="7.88" height="9.94"/><rect class="cls-49" x="147.13" y="142.25" width="7.88" height="9.94"/><rect class="cls-50" x="147.13" y="152.2" width="7.88" height="9.94"/>
</g></g></g></g></svg>