<svg xmlns="http://www.w3.org/2000/svg" xmlns:xlink="http://www.w3.org/1999/xlink" viewBox="0 0 256 150.78"><defs><style>.cls-1{isolation:isolate;}.cls-2{fill:url(#未命名的渐变_243);}.cls-3{fill:url(#未命名的渐变_1622);}.cls-4{fill:url(#未命名的渐变_1622-2);}.cls-5{fill:url(#未命名的渐变_1622-3);}.cls-6{fill:url(#未命名的渐变_1622-4);}.cls-7{fill:url(#未命名的渐变_1622-5);}.cls-8{fill:url(#未命名的渐变_1622-6);}.cls-9{fill:url(#未命名的渐变_1622-7);}.cls-10{fill:url(#未命名的渐变_1622-8);}.cls-11{fill:url(#未命名的渐变_1622-9);}.cls-12{fill:url(#未命名的渐变_1622-10);}.cls-13{fill:url(#未命名的渐变_1622-11);}.cls-14{fill:url(#未命名的渐变_1622-12);}.cls-15{fill:url(#未命名的渐变_1622-13);}.cls-16{fill:url(#未命名的渐变_1622-14);}.cls-17,.cls-19{opacity:0.3;}.cls-17,.cls-19,.cls-23,.cls-24,.cls-26,.cls-27,.cls-29,.cls-30,.cls-32,.cls-33,.cls-35,.cls-36,.cls-38,.cls-39,.cls-41,.cls-42,.cls-63,.cls-64,.cls-66,.cls-67,.cls-69,.cls-70,.cls-72,.cls-73,.cls-75,.cls-76,.cls-78,.cls-79,.cls-81,.cls-82{mix-blend-mode:multiply;}.cls-17{fill:url(#未命名的渐变_126);}.cls-18{fill:url(#未命名的渐变_243-2);}.cls-19{fill:url(#未命名的渐变_126-2);}.cls-20{fill:url(#未命名的渐变_243-3);}.cls-21{fill:url(#未命名的渐变_1623);}.cls-22{fill:url(#未命名的渐变_1623-2);}.cls-23,.cls-24,.cls-26,.cls-27,.cls-29,.cls-30,.cls-32,.cls-33,.cls-35,.cls-36,.cls-38,.cls-39,.cls-41,.cls-42,.cls-63,.cls-64,.cls-66,.cls-67,.cls-69,.cls-70,.cls-72,.cls-73,.cls-75,.cls-76,.cls-78,.cls-79,.cls-81,.cls-82{opacity:0.1;}.cls-23{fill:url(#未命名的渐变_126-3);}.cls-24{fill:url(#未命名的渐变_127);}.cls-25{fill:url(#未命名的渐变_1623-3);}.cls-26{fill:url(#未命名的渐变_126-4);}.cls-27{fill:url(#未命名的渐变_127-2);}.cls-28{fill:url(#未命名的渐变_1623-4);}.cls-29{fill:url(#未命名的渐变_126-5);}.cls-30{fill:url(#未命名的渐变_127-3);}.cls-31{fill:url(#未命名的渐变_1623-5);}.cls-32{fill:url(#未命名的渐变_126-6);}.cls-33{fill:url(#未命名的渐变_127-4);}.cls-34{fill:url(#未命名的渐变_1623-6);}.cls-35{fill:url(#未命名的渐变_126-7);}.cls-36{fill:url(#未命名的渐变_127-5);}.cls-37{fill:url(#未命名的渐变_1623-7);}.cls-38{fill:url(#未命名的渐变_126-8);}.cls-39{fill:url(#未命名的渐变_127-6);}.cls-40{fill:url(#未命名的渐变_1623-8);}.cls-41{fill:url(#未命名的渐变_126-9);}.cls-42{fill:url(#未命名的渐变_127-7);}.cls-43{fill:url(#未命名的渐变_243-4);}.cls-44{fill:url(#未命名的渐变_243-5);}.cls-45{fill:url(#未命名的渐变_243-6);}.cls-46{fill:url(#未命名的渐变_52);}.cls-47{fill:url(#未命名的渐变_41);}.cls-48{fill:url(#未命名的渐变_41-2);}.cls-49{fill:url(#未命名的渐变_243-7);}.cls-50{fill:url(#未命名的渐变_243-8);}.cls-51{fill:url(#未命名的渐变_243-9);}.cls-52{fill:url(#未命名的渐变_52-2);}.cls-53{fill:url(#未命名的渐变_41-3);}.cls-54{fill:url(#未命名的渐变_41-4);}.cls-55{fill:url(#未命名的渐变_243-10);}.cls-56{fill:url(#未命名的渐变_243-11);}.cls-57{fill:url(#未命名的渐变_243-12);}.cls-58{fill:url(#未命名的渐变_52-3);}.cls-59{fill:url(#未命名的渐变_41-5);}.cls-60{fill:url(#未命名的渐变_41-6);}.cls-61{fill:url(#未命名的渐变_1623-9);}.cls-62{fill:url(#未命名的渐变_1623-10);}.cls-63{fill:url(#未命名的渐变_126-10);}.cls-64{fill:url(#未命名的渐变_127-8);}.cls-65{fill:url(#未命名的渐变_1623-11);}.cls-66{fill:url(#未命名的渐变_126-11);}.cls-67{fill:url(#未命名的渐变_127-9);}.cls-68{fill:url(#未命名的渐变_1623-12);}.cls-69{fill:url(#未命名的渐变_126-12);}.cls-70{fill:url(#未命名的渐变_127-10);}.cls-71{fill:url(#未命名的渐变_1623-13);}.cls-72{fill:url(#未命名的渐变_126-13);}.cls-73{fill:url(#未命名的渐变_127-11);}.cls-74{fill:url(#未命名的渐变_1623-14);}.cls-75{fill:url(#未命名的渐变_126-14);}.cls-76{fill:url(#未命名的渐变_127-12);}.cls-77{fill:url(#未命名的渐变_1623-15);}.cls-78{fill:url(#未命名的渐变_126-15);}.cls-79{fill:url(#未命名的渐变_127-13);}.cls-80{fill:url(#未命名的渐变_1623-16);}.cls-81{fill:url(#未命名的渐变_126-16);}.cls-82{fill:url(#未命名的渐变_127-14);}.cls-83{opacity:0.2;}.cls-84{fill:#fff;}</style><linearGradient id="未命名的渐变_243" x1="1.03" y1="47.1" x2="254.97" y2="47.1" gradientUnits="userSpaceOnUse"><stop offset="0" stop-color="#9dadff"/><stop offset="0.02" stop-color="#d2d9f7"/><stop offset="0.04" stop-color="#d2d9f7"/><stop offset="0.98" stop-color="#7580c0"/><stop offset="1" stop-color="#8795dc"/></linearGradient><linearGradient id="未命名的渐变_1622" x1="134.71" y1="47.1" x2="140.39" y2="47.1" gradientUnits="userSpaceOnUse"><stop offset="0" stop-color="#b7c3ff"/><stop offset="0.08" stop-color="#d3daff"/><stop offset="0.09" stop-color="#e4e7ff"/><stop offset="0.1" stop-color="#b1bbef" stop-opacity="0"/><stop offset="0.9" stop-color="#9dadff" stop-opacity="0"/><stop offset="0.92" stop-color="#7580c0"/><stop offset="0.98" stop-color="#7580c0"/><stop offset="1" stop-color="#7580c0"/></linearGradient><linearGradient id="未命名的渐变_1622-2" x1="153.81" y1="47.1" x2="159.49" y2="47.1" xlink:href="#未命名的渐变_1622"/><linearGradient id="未命名的渐变_1622-3" x1="172.9" y1="47.1" x2="178.58" y2="47.1" xlink:href="#未命名的渐变_1622"/><linearGradient id="未命名的渐变_1622-4" x1="192" y1="47.1" x2="197.68" y2="47.1" xlink:href="#未命名的渐变_1622"/><linearGradient id="未命名的渐变_1622-5" x1="211.1" y1="47.1" x2="216.78" y2="47.1" xlink:href="#未命名的渐变_1622"/><linearGradient id="未命名的渐变_1622-6" x1="230.2" y1="47.1" x2="235.87" y2="47.1" xlink:href="#未命名的渐变_1622"/><linearGradient id="未命名的渐变_1622-7" x1="249.29" y1="47.1" x2="254.97" y2="47.1" xlink:href="#未命名的渐变_1622"/><linearGradient id="未命名的渐变_1622-8" x1="115.61" y1="47.1" x2="121.29" y2="47.1" xlink:href="#未命名的渐变_1622"/><linearGradient id="未命名的渐变_1622-9" x1="96.51" y1="47.1" x2="102.19" y2="47.1" xlink:href="#未命名的渐变_1622"/><linearGradient id="未命名的渐变_1622-10" x1="77.42" y1="47.1" x2="83.1" y2="47.1" xlink:href="#未命名的渐变_1622"/><linearGradient id="未命名的渐变_1622-11" x1="58.32" y1="47.1" x2="64" y2="47.1" xlink:href="#未命名的渐变_1622"/><linearGradient id="未命名的渐变_1622-12" x1="39.22" y1="47.1" x2="44.9" y2="47.1" xlink:href="#未命名的渐变_1622"/><linearGradient id="未命名的渐变_1622-13" x1="20.13" y1="47.1" x2="25.8" y2="47.1" xlink:href="#未命名的渐变_1622"/><linearGradient id="未命名的渐变_1622-14" x1="1.03" y1="47.1" x2="6.71" y2="47.1" xlink:href="#未命名的渐变_1622"/><linearGradient id="未命名的渐变_126" x1="128" y1="3.29" x2="128" y2="1.5" gradientUnits="userSpaceOnUse"><stop offset="0" stop-color="#060ea4" stop-opacity="0"/><stop offset="1" stop-color="#060ea4" stop-opacity="0.6"/></linearGradient><linearGradient id="未命名的渐变_243-2" x1="0" y1="0.75" x2="256" y2="0.75" xlink:href="#未命名的渐变_243"/><linearGradient id="未命名的渐变_126-2" x1="128" y1="97.15" x2="128" y2="95.36" xlink:href="#未命名的渐变_126"/><linearGradient id="未命名的渐变_243-3" x1="0" y1="94.61" x2="256" y2="94.61" xlink:href="#未命名的渐变_243"/><linearGradient id="未命名的渐变_1623" x1="128" y1="148.35" x2="128" y2="125.67" gradientUnits="userSpaceOnUse"><stop offset="0" stop-color="#8795dc"/><stop offset="0.1" stop-color="#7580c0"/><stop offset="0.75" stop-color="#fff"/><stop offset="0.85" stop-color="#fff"/><stop offset="1" stop-color="#9dadff"/></linearGradient><linearGradient id="未命名的渐变_1623-2" y1="150.78" y2="123.24" xlink:href="#未命名的渐变_1623"/><linearGradient id="未命名的渐变_126-3" x1="126.7" y1="137.01" x2="127.46" y2="137.01" xlink:href="#未命名的渐变_126"/><linearGradient id="未命名的渐变_127" x1="128.54" y1="137.01" x2="129.3" y2="137.01" gradientUnits="userSpaceOnUse"><stop offset="0" stop-color="#060ea4" stop-opacity="0.6"/><stop offset="1" stop-color="#060ea4" stop-opacity="0"/></linearGradient><linearGradient id="未命名的渐变_1623-3" x1="166.9" y1="150.78" x2="166.9" y2="123.24" xlink:href="#未命名的渐变_1623"/><linearGradient id="未命名的渐变_126-4" x1="165.6" y1="137.01" x2="166.36" y2="137.01" xlink:href="#未命名的渐变_126"/><linearGradient id="未命名的渐变_127-2" x1="167.43" y1="137.01" x2="168.2" y2="137.01" xlink:href="#未命名的渐变_127"/><linearGradient id="未命名的渐变_1623-4" x1="205.8" y1="150.78" x2="205.8" y2="123.24" xlink:href="#未命名的渐变_1623"/><linearGradient id="未命名的渐变_126-5" x1="204.49" y1="137.01" x2="205.26" y2="137.01" xlink:href="#未命名的渐变_126"/><linearGradient id="未命名的渐变_127-3" x1="206.33" y1="137.01" x2="207.1" y2="137.01" xlink:href="#未命名的渐变_127"/><linearGradient id="未命名的渐变_1623-5" x1="244.7" y1="150.78" x2="244.7" y2="123.24" xlink:href="#未命名的渐变_1623"/><linearGradient id="未命名的渐变_126-6" x1="243.39" y1="137.01" x2="244.16" y2="137.01" xlink:href="#未命名的渐变_126"/><linearGradient id="未命名的渐变_127-4" x1="245.23" y1="137.01" x2="246" y2="137.01" xlink:href="#未命名的渐变_127"/><linearGradient id="未命名的渐变_1623-6" x1="89.1" y1="150.78" x2="89.1" y2="123.24" xlink:href="#未命名的渐变_1623"/><linearGradient id="未命名的渐变_126-7" x1="87.8" y1="137.01" x2="88.57" y2="137.01" xlink:href="#未命名的渐变_126"/><linearGradient id="未命名的渐变_127-5" x1="89.64" y1="137.01" x2="90.4" y2="137.01" xlink:href="#未命名的渐变_127"/><linearGradient id="未命名的渐变_1623-7" x1="50.2" y1="150.78" x2="50.2" y2="123.24" xlink:href="#未命名的渐变_1623"/><linearGradient id="未命名的渐变_126-8" x1="48.9" y1="137.01" x2="49.67" y2="137.01" xlink:href="#未命名的渐变_126"/><linearGradient id="未命名的渐变_127-6" x1="50.74" y1="137.01" x2="51.51" y2="137.01" xlink:href="#未命名的渐变_127"/><linearGradient id="未命名的渐变_1623-8" x1="11.3" y1="150.78" x2="11.3" y2="123.24" xlink:href="#未命名的渐变_1623"/><linearGradient id="未命名的渐变_126-9" x1="10" y1="137.01" x2="10.77" y2="137.01" xlink:href="#未命名的渐变_126"/><linearGradient id="未命名的渐变_127-7" x1="11.84" y1="137.01" x2="12.61" y2="137.01" xlink:href="#未命名的渐变_127"/><linearGradient id="未命名的渐变_243-4" x1="191.03" y1="98.85" x2="246" y2="98.85" xlink:href="#未命名的渐变_243"/><linearGradient id="未命名的渐变_243-5" x1="202.24" y1="103.21" x2="234.38" y2="103.21" xlink:href="#未命名的渐变_243"/><linearGradient id="未命名的渐变_243-6" x1="205.72" y1="108.78" x2="230.9" y2="108.78" xlink:href="#未命名的渐变_243"/><linearGradient id="未命名的渐变_52" x1="207.45" y1="115.74" x2="229.17" y2="115.74" gradientUnits="userSpaceOnUse"><stop offset="0" stop-color="#7184e5"/><stop offset="0.02" stop-color="#97a5de"/><stop offset="0.04" stop-color="#97a5de"/><stop offset="0.98" stop-color="#5561ad"/><stop offset="1" stop-color="#6171c6"/></linearGradient><linearGradient id="未命名的渐变_41" x1="21.21" y1="153.76" x2="53.35" y2="153.76" gradientTransform="translate(181.03 -27.74)" gradientUnits="userSpaceOnUse"><stop offset="0" stop-color="#8795dc"/><stop offset="0.02" stop-color="#7580c0"/><stop offset="0.96" stop-color="#d2d9f7"/><stop offset="0.98" stop-color="#d2d9f7"/><stop offset="1" stop-color="#9dadff"/></linearGradient><linearGradient id="未命名的渐变_41-2" x1="24.69" y1="158.21" x2="49.87" y2="158.21" gradientTransform="translate(181.03 -36.64)" xlink:href="#未命名的渐变_41"/><linearGradient id="未命名的渐变_243-7" x1="100.51" y1="98.85" x2="155.49" y2="98.85" xlink:href="#未命名的渐变_243"/><linearGradient id="未命名的渐变_243-8" x1="111.73" y1="103.21" x2="143.86" y2="103.21" xlink:href="#未命名的渐变_243"/><linearGradient id="未命名的渐变_243-9" x1="115.2" y1="108.78" x2="140.39" y2="108.78" xlink:href="#未命名的渐变_243"/><linearGradient id="未命名的渐变_52-2" x1="116.94" y1="115.74" x2="138.65" y2="115.74" xlink:href="#未命名的渐变_52"/><linearGradient id="未命名的渐变_41-3" x1="111.73" y1="153.76" x2="143.86" y2="153.76" gradientTransform="translate(0 -27.74)" xlink:href="#未命名的渐变_41"/><linearGradient id="未命名的渐变_41-4" x1="115.2" y1="158.21" x2="140.39" y2="158.21" gradientTransform="translate(0 -36.64)" xlink:href="#未命名的渐变_41"/><linearGradient id="未命名的渐变_243-10" x1="10" y1="98.85" x2="64.97" y2="98.85" xlink:href="#未命名的渐变_243"/><linearGradient id="未命名的渐变_243-11" x1="21.21" y1="103.21" x2="53.35" y2="103.21" xlink:href="#未命名的渐变_243"/><linearGradient id="未命名的渐变_243-12" x1="24.69" y1="108.78" x2="49.87" y2="108.78" xlink:href="#未命名的渐变_243"/><linearGradient id="未命名的渐变_52-3" x1="26.42" y1="115.74" x2="48.14" y2="115.74" xlink:href="#未命名的渐变_52"/><linearGradient id="未命名的渐变_41-5" x1="202.24" y1="153.76" x2="234.38" y2="153.76" gradientTransform="translate(-181.03 -27.74)" xlink:href="#未命名的渐变_41"/><linearGradient id="未命名的渐变_41-6" x1="205.72" y1="158.21" x2="230.9" y2="158.21" gradientTransform="translate(-181.03 -36.64)" xlink:href="#未命名的渐变_41"/><linearGradient id="未命名的渐变_1623-9" y1="91.95" y2="76.67" xlink:href="#未命名的渐变_1623"/><linearGradient id="未命名的渐变_1623-10" y1="93.58" y2="75.04" xlink:href="#未命名的渐变_1623"/><linearGradient id="未命名的渐变_126-10" x1="126.7" y1="84.31" x2="127.46" y2="84.31" xlink:href="#未命名的渐变_126"/><linearGradient id="未命名的渐变_127-8" x1="128.54" y1="84.31" x2="129.3" y2="84.31" xlink:href="#未命名的渐变_127"/><linearGradient id="未命名的渐变_1623-11" x1="166.9" y1="93.58" x2="166.9" y2="75.04" xlink:href="#未命名的渐变_1623"/><linearGradient id="未命名的渐变_126-11" x1="165.6" y1="84.31" x2="166.36" y2="84.31" xlink:href="#未命名的渐变_126"/><linearGradient id="未命名的渐变_127-9" x1="167.43" y1="84.31" x2="168.2" y2="84.31" xlink:href="#未命名的渐变_127"/><linearGradient id="未命名的渐变_1623-12" x1="205.8" y1="93.58" x2="205.8" y2="75.04" xlink:href="#未命名的渐变_1623"/><linearGradient id="未命名的渐变_126-12" x1="204.49" y1="84.31" x2="205.26" y2="84.31" xlink:href="#未命名的渐变_126"/><linearGradient id="未命名的渐变_127-10" x1="206.33" y1="84.31" x2="207.1" y2="84.31" xlink:href="#未命名的渐变_127"/><linearGradient id="未命名的渐变_1623-13" x1="244.7" y1="93.58" x2="244.7" y2="75.04" xlink:href="#未命名的渐变_1623"/><linearGradient id="未命名的渐变_126-13" x1="243.39" y1="84.31" x2="244.16" y2="84.31" xlink:href="#未命名的渐变_126"/><linearGradient id="未命名的渐变_127-11" x1="245.23" y1="84.31" x2="246" y2="84.31" xlink:href="#未命名的渐变_127"/><linearGradient id="未命名的渐变_1623-14" x1="89.1" y1="93.58" x2="89.1" y2="75.04" xlink:href="#未命名的渐变_1623"/><linearGradient id="未命名的渐变_126-14" x1="87.8" y1="84.31" x2="88.57" y2="84.31" xlink:href="#未命名的渐变_126"/><linearGradient id="未命名的渐变_127-12" x1="89.64" y1="84.31" x2="90.4" y2="84.31" xlink:href="#未命名的渐变_127"/><linearGradient id="未命名的渐变_1623-15" x1="50.2" y1="93.58" x2="50.2" y2="75.04" xlink:href="#未命名的渐变_1623"/><linearGradient id="未命名的渐变_126-15" x1="48.9" y1="84.31" x2="49.67" y2="84.31" xlink:href="#未命名的渐变_126"/><linearGradient id="未命名的渐变_127-13" x1="50.74" y1="84.31" x2="51.51" y2="84.31" xlink:href="#未命名的渐变_127"/><linearGradient id="未命名的渐变_1623-16" x1="11.3" y1="93.58" x2="11.3" y2="75.04" xlink:href="#未命名的渐变_1623"/><linearGradient id="未命名的渐变_126-16" x1="10" y1="84.31" x2="10.77" y2="84.31" xlink:href="#未命名的渐变_126"/><linearGradient id="未命名的渐变_127-14" x1="11.84" y1="84.31" x2="12.61" y2="84.31" xlink:href="#未命名的渐变_127"/></defs><title>沸石吸附床</title><g class="cls-1"><g id="图层_2" data-name="图层 2"><g id="废气处理"><g id="沸石吸附床"><rect class="cls-2" x="1.03" width="253.94" height="94.2"/><rect class="cls-3" x="134.71" width="5.68" height="94.2"/><rect class="cls-4" x="153.81" width="5.68" height="94.2"/><rect class="cls-5" x="172.9" width="5.68" height="94.2"/><rect class="cls-6" x="192" width="5.68" height="94.2"/><rect class="cls-7" x="211.1" width="5.68" height="94.2"/><rect class="cls-8" x="230.2" width="5.68" height="94.2"/><rect class="cls-9" x="249.29" width="5.68" height="94.2"/><rect class="cls-10" x="115.61" width="5.68" height="94.2"/><rect class="cls-11" x="96.51" width="5.68" height="94.2"/><rect class="cls-12" x="77.42" width="5.68" height="94.2"/><rect class="cls-13" x="58.32" width="5.68" height="94.2"/><rect class="cls-14" x="39.22" width="5.68" height="94.2"/><rect class="cls-15" x="20.13" width="5.68" height="94.2"/><rect class="cls-16" x="1.03" width="5.68" height="94.2"/><rect class="cls-17" x="1.03" y="1.5" width="253.94" height="1.79"/><rect class="cls-18" width="256" height="1.5"/><rect class="cls-19" x="1.03" y="95.36" width="253.94" height="1.79"/><rect class="cls-20" y="93.86" width="256" height="1.5"/><rect class="cls-21" y="125.67" width="256" height="22.69"/><rect class="cls-22" x="127.46" y="123.24" width="1.07" height="27.55"/><rect class="cls-23" x="126.7" y="125.67" width="0.77" height="22.69"/><rect class="cls-24" x="128.54" y="125.67" width="0.77" height="22.69"/><rect class="cls-25" x="166.36" y="123.24" width="1.07" height="27.55"/><rect class="cls-26" x="165.6" y="125.67" width="0.77" height="22.69"/><rect class="cls-27" x="167.43" y="125.67" width="0.77" height="22.69"/><rect class="cls-28" x="205.26" y="123.24" width="1.07" height="27.55"/><rect class="cls-29" x="204.49" y="125.67" width="0.77" height="22.69"/><rect class="cls-30" x="206.33" y="125.67" width="0.77" height="22.69"/><rect class="cls-31" x="244.16" y="123.24" width="1.07" height="27.55"/><rect class="cls-32" x="243.39" y="125.67" width="0.77" height="22.69"/><rect class="cls-33" x="245.23" y="125.67" width="0.77" height="22.69"/><rect class="cls-34" x="88.57" y="123.24" width="1.07" height="27.55"/><rect class="cls-35" x="87.8" y="125.67" width="0.77" height="22.69"/><rect class="cls-36" x="89.64" y="125.67" width="0.77" height="22.69"/><rect class="cls-37" x="49.67" y="123.24" width="1.07" height="27.55"/><rect class="cls-38" x="48.9" y="125.67" width="0.77" height="22.69"/><rect class="cls-39" x="50.74" y="125.67" width="0.77" height="22.69"/><rect class="cls-40" x="10.77" y="123.24" width="1.07" height="27.55"/><rect class="cls-41" x="10" y="125.67" width="0.77" height="22.69"/><rect class="cls-42" x="11.84" y="125.67" width="0.77" height="22.69"/><polygon class="cls-43" points="234.79 102.35 202.24 102.35 191.03 95.36 246 95.36 234.79 102.35"/><rect class="cls-44" x="202.24" y="102.1" width="32.14" height="2.24"/><rect class="cls-45" x="205.72" y="104.33" width="25.19" height="8.9"/><rect class="cls-46" x="207.45" y="113.23" width="21.71" height="5"/><rect class="cls-47" x="202.24" y="124.9" width="32.14" height="2.24" transform="translate(436.62 252.04) rotate(180)"/><rect class="cls-48" x="205.72" y="118.24" width="25.19" height="6.67" transform="translate(436.62 243.14) rotate(180)"/><polygon class="cls-49" points="144.27 102.35 111.73 102.35 100.52 95.36 155.49 95.36 144.27 102.35"/><rect class="cls-50" x="111.73" y="102.1" width="32.14" height="2.24"/><rect class="cls-51" x="115.2" y="104.33" width="25.19" height="8.9"/><rect class="cls-52" x="116.94" y="113.23" width="21.71" height="5"/><rect class="cls-53" x="111.73" y="124.9" width="32.14" height="2.24" transform="translate(255.59 252.04) rotate(180)"/><rect class="cls-54" x="115.2" y="118.24" width="25.19" height="6.67" transform="translate(255.59 243.14) rotate(180)"/><polygon class="cls-55" points="53.76 102.35 21.21 102.35 10 95.36 64.97 95.36 53.76 102.35"/><rect class="cls-56" x="21.21" y="102.1" width="32.14" height="2.24"/><rect class="cls-57" x="24.69" y="104.33" width="25.19" height="8.9"/><rect class="cls-58" x="26.42" y="113.23" width="21.71" height="5"/><rect class="cls-59" x="21.21" y="124.9" width="32.14" height="2.24" transform="translate(74.56 252.04) rotate(180)"/><rect class="cls-60" x="24.69" y="118.24" width="25.19" height="6.67" transform="translate(74.56 243.14) rotate(180)"/><rect class="cls-61" y="76.67" width="256" height="15.28"/><rect class="cls-62" x="127.46" y="75.04" width="1.07" height="18.55"/><rect class="cls-63" x="126.7" y="76.67" width="0.77" height="15.28"/><rect class="cls-64" x="128.54" y="76.67" width="0.77" height="15.28"/><rect class="cls-65" x="166.36" y="75.04" width="1.07" height="18.55"/><rect class="cls-66" x="165.6" y="76.67" width="0.77" height="15.28"/><rect class="cls-67" x="167.43" y="76.67" width="0.77" height="15.28"/><rect class="cls-68" x="205.26" y="75.04" width="1.07" height="18.55"/><rect class="cls-69" x="204.49" y="76.67" width="0.77" height="15.28"/><rect class="cls-70" x="206.33" y="76.67" width="0.77" height="15.28"/><rect class="cls-71" x="244.16" y="75.04" width="1.07" height="18.55"/><rect class="cls-72" x="243.39" y="76.67" width="0.77" height="15.28"/><rect class="cls-73" x="245.23" y="76.67" width="0.77" height="15.28"/><rect class="cls-74" x="88.57" y="75.04" width="1.07" height="18.55"/><rect class="cls-75" x="87.8" y="76.67" width="0.77" height="15.28"/><rect class="cls-76" x="89.64" y="76.67" width="0.77" height="15.28"/><rect class="cls-77" x="49.67" y="75.04" width="1.07" height="18.55"/><rect class="cls-78" x="48.9" y="76.67" width="0.77" height="15.28"/><rect class="cls-79" x="50.74" y="76.67" width="0.77" height="15.28"/><rect class="cls-80" x="10.77" y="75.04" width="1.07" height="18.55"/><rect class="cls-81" x="10" y="76.67" width="0.77" height="15.28"/><rect class="cls-82" x="11.84" y="76.67" width="0.77" height="15.28"/>
</g></g></g></g></svg>