<svg xmlns="http://www.w3.org/2000/svg" xmlns:xlink="http://www.w3.org/1999/xlink" viewBox="0 0 256 120"><defs><style>.cls-1{fill:url(#未命名的渐变_243);}.cls-2{fill:url(#未命名的渐变_334);}.cls-3{fill:url(#未命名的渐变_334-2);}.cls-4{fill:url(#未命名的渐变_334-3);}.cls-5{fill:url(#未命名的渐变_334-4);}.cls-6{fill:url(#未命名的渐变_334-5);}.cls-7{fill:url(#未命名的渐变_334-6);}.cls-8{fill:url(#未命名的渐变_27);}.cls-9{fill:url(#未命名的渐变_29);}.cls-10{fill:url(#未命名的渐变_27-2);}.cls-11{fill:url(#未命名的渐变_29-2);}.cls-12{fill:url(#未命名的渐变_40);}.cls-13{fill:url(#未命名的渐变_40-2);}.cls-14{opacity:0.2;}.cls-15{fill:#fff;}</style><linearGradient id="未命名的渐变_243" x1="50" y1="56" x2="206" y2="56" gradientUnits="userSpaceOnUse"><stop offset="0" stop-color="#9dadff"/><stop offset="0.02" stop-color="#d2d9f7"/><stop offset="0.04" stop-color="#d2d9f7"/><stop offset="0.98" stop-color="#7580c0"/><stop offset="1" stop-color="#8795dc"/></linearGradient><linearGradient id="未命名的渐变_334" x1="72.5" y1="28" x2="123.5" y2="28" gradientTransform="translate(70 126) rotate(-90)" gradientUnits="userSpaceOnUse"><stop offset="0" stop-color="#2740bb"/><stop offset="0.01" stop-color="#7692ff"/><stop offset="0.02" stop-color="#414ed5"/><stop offset="0.98" stop-color="#414ed5"/><stop offset="1" stop-color="#2740bb"/></linearGradient><linearGradient id="未命名的渐变_334-2" x1="132" y1="28" x2="183" y2="28" gradientTransform="translate(129.5 185.5) rotate(-90)" xlink:href="#未命名的渐变_334"/><linearGradient id="未命名的渐变_334-3" y1="58" y2="58" gradientTransform="translate(40 156) rotate(-90)" xlink:href="#未命名的渐变_334"/><linearGradient id="未命名的渐变_334-4" x1="132" y1="58" x2="183" y2="58" gradientTransform="translate(99.5 215.5) rotate(-90)" xlink:href="#未命名的渐变_334"/><linearGradient id="未命名的渐变_334-5" y1="88" y2="88" gradientTransform="translate(10 186) rotate(-90)" xlink:href="#未命名的渐变_334"/><linearGradient id="未命名的渐变_334-6" x1="132" y1="88" x2="183" y2="88" gradientTransform="translate(69.5 245.5) rotate(-90)" xlink:href="#未命名的渐变_334"/><linearGradient id="未命名的渐变_27" x1="29.5" y1="112" x2="29.5" gradientUnits="userSpaceOnUse"><stop offset="0" stop-color="#8795dc"/><stop offset="0.1" stop-color="#7580c0"/><stop offset="1" stop-color="#dbe1ff"/></linearGradient><linearGradient id="未命名的渐变_29" x1="4.5" y1="82" x2="4.5" y2="30" gradientUnits="userSpaceOnUse"><stop offset="0" stop-color="#8795dc"/><stop offset="0.1" stop-color="#7580c0"/><stop offset="0.75" stop-color="#fff"/><stop offset="0.85" stop-color="#fff"/><stop offset="1" stop-color="#9dadff"/></linearGradient><linearGradient id="未命名的渐变_27-2" x1="226.5" y1="112" x2="226.5" y2="0" xlink:href="#未命名的渐变_27"/><linearGradient id="未命名的渐变_29-2" x1="251.5" y1="82" x2="251.5" y2="30" gradientTransform="translate(503 112) rotate(180)" xlink:href="#未命名的渐变_29"/><linearGradient id="未命名的渐变_40" x1="50" y1="116" x2="58" y2="116" gradientUnits="userSpaceOnUse"><stop offset="0" stop-color="#7580bb"/><stop offset="0.01" stop-color="#dee3fc"/><stop offset="0.02" stop-color="#8795d9"/><stop offset="0.98" stop-color="#8795d9"/><stop offset="1" stop-color="#7580bb"/></linearGradient><linearGradient id="未命名的渐变_40-2" x1="954" y1="116" x2="962" y2="116" gradientTransform="matrix(-1, 0, 0, 1, 1160, 0)" xlink:href="#未命名的渐变_40"/></defs><title>活性炭吸附器</title><g id="图层_2" data-name="图层 2"><g id="废气处理"><g id="活性炭吸附器"><rect class="cls-1" x="50" width="156" height="112"/><rect class="cls-2" x="88" y="2.5" width="20" height="51" transform="translate(126 -70) rotate(90)"/><rect class="cls-3" x="147.5" y="2.5" width="20" height="51" transform="translate(185.5 -129.5) rotate(90)"/><rect class="cls-4" x="88" y="32.5" width="20" height="51" transform="translate(156 -40) rotate(90)"/><rect class="cls-5" x="147.5" y="32.5" width="20" height="51" transform="translate(215.5 -99.5) rotate(90)"/><rect class="cls-6" x="88" y="62.5" width="20" height="51" transform="translate(186 -10) rotate(90)"/><rect class="cls-7" x="147.5" y="62.5" width="20" height="51" transform="translate(245.5 -69.5) rotate(90)"/><polygon class="cls-8" points="50 112 9 82 9 30 50 0 50 112"/><rect class="cls-9" y="30" width="9" height="52"/><polygon class="cls-10" points="206 112 247 82 247 30 206 0 206 112"/><rect class="cls-11" x="247" y="30" width="9" height="52" transform="translate(503 112) rotate(-180)"/><polygon class="cls-12" points="55.33 120 50 120 50 112 58 112 55.33 120"/><polygon class="cls-13" points="200.67 120 206 120 206 112 198 112 200.67 120"/>
</g></g></g></svg>