<svg xmlns="http://www.w3.org/2000/svg" xmlns:xlink="http://www.w3.org/1999/xlink" viewBox="0 0 199.16 256"><defs><style>.cls-1{isolation:isolate;}.cls-2{fill:#3348c0;}.cls-3{fill:url(#未命名的渐变_95);}.cls-4{fill:url(#未命名的渐变_4282);}.cls-5{mix-blend-mode:overlay;}.cls-6{fill:url(#未命名的渐变_113);}.cls-7{fill:url(#未命名的渐变_2730);}.cls-8{fill:url(#未命名的渐变_42);}.cls-9{fill:url(#未命名的渐变_42-2);}.cls-10{fill:url(#未命名的渐变_2730-2);}.cls-11{fill:url(#未命名的渐变_42-3);}.cls-12{fill:url(#未命名的渐变_42-4);}.cls-13{fill:url(#未命名的渐变_91);}.cls-14{fill:#5974ff;}.cls-15{fill:#4664fb;opacity:0.6;}.cls-16{fill:#7586df;}.cls-17{fill:#6678c3;}.cls-18{fill:#22286e;}.cls-19{fill:#2e41ad;}.cls-20{opacity:0.2;}.cls-21{fill:#fff;}</style><linearGradient id="未命名的渐变_95" x1="99.58" y1="164.9" x2="99.58" gradientUnits="userSpaceOnUse"><stop offset="0" stop-color="#7580c0"/><stop offset="1" stop-color="#9dadff"/></linearGradient><linearGradient id="未命名的渐变_4282" x1="99.58" y1="147.14" x2="99.58" y2="17.77" gradientUnits="userSpaceOnUse"><stop offset="0" stop-color="#414ed5"/><stop offset="1" stop-color="#090919"/></linearGradient><linearGradient id="未命名的渐变_113" x1="99.58" y1="149.14" x2="99.58" y2="15.77" gradientUnits="userSpaceOnUse"><stop offset="0" stop-color="#a0a5d5"/><stop offset="1" stop-color="#090919"/></linearGradient><linearGradient id="未命名的渐变_2730" x1="186.89" y1="110.53" x2="186.89" y2="60.91" gradientUnits="userSpaceOnUse"><stop offset="0" stop-color="#060fbc"/><stop offset="0.15" stop-color="#060ea4"/><stop offset="0.75" stop-color="#969eeb"/><stop offset="0.85" stop-color="#969eeb"/><stop offset="1" stop-color="#2e36c9"/></linearGradient><linearGradient id="未命名的渐变_42" x1="195.46" y1="85.72" x2="195.46" y2="63.72" gradientUnits="userSpaceOnUse"><stop offset="0" stop-color="#516eff"/><stop offset="0.19" stop-color="#5d77ff"/><stop offset="0.2" stop-color="#6476ff"/><stop offset="0.21" stop-color="#4e68ef"/><stop offset="0.8" stop-color="#4563ff"/><stop offset="0.81" stop-color="#3348c0"/><stop offset="0.98" stop-color="#3348c0"/><stop offset="1" stop-color="#3348c0"/></linearGradient><linearGradient id="未命名的渐变_42-2" x1="195.46" y1="105" x2="195.46" y2="95.11" xlink:href="#未命名的渐变_42"/><linearGradient id="未命名的渐变_2730-2" x1="-49.83" y1="110.53" x2="-49.83" y2="60.91" gradientTransform="matrix(1, 0, 0, -1, 62.1, 171.44)" xlink:href="#未命名的渐变_2730"/><linearGradient id="未命名的渐变_42-3" x1="-41.26" y1="85.72" x2="-41.26" y2="63.72" gradientTransform="matrix(1, 0, 0, -1, 44.97, 149.44)" xlink:href="#未命名的渐变_42"/><linearGradient id="未命名的渐变_42-4" x1="-41.26" y1="105" x2="-41.26" y2="95.11" gradientTransform="matrix(1, 0, 0, -1, 44.97, 200.1)" xlink:href="#未命名的渐变_42"/><linearGradient id="未命名的渐变_91" x1="74.14" y1="224.22" x2="125.02" y2="224.22" gradientUnits="userSpaceOnUse"><stop offset="0" stop-color="#9dadff"/><stop offset="0.15" stop-color="#fff"/><stop offset="0.25" stop-color="#fff"/><stop offset="0.9" stop-color="#7580c0"/><stop offset="1" stop-color="#8795dc"/></linearGradient></defs><title>烟雾探测器</title><g class="cls-1"><g id="图层_2" data-name="图层 2"><g id="废气处理"><g id="烟雾探测器"><polygon class="cls-2" points="133.73 0 65.43 0 17.13 48.3 17.13 116.61 74.31 192.44 124.85 192.44 182.03 116.61 182.03 48.3 133.73 0"/><polygon class="cls-3" points="133.73 0 65.43 0 17.13 48.3 17.13 116.61 65.43 164.9 133.73 164.9 182.03 116.61 182.03 48.3 133.73 0"/><polygon class="cls-4" points="72.79 147.13 34.9 109.25 34.9 55.66 72.79 17.77 126.37 17.77 164.26 55.66 164.26 109.25 126.37 147.13 72.79 147.13"/><g class="cls-5"><path class="cls-6" d="M126.37,17.77l37.89,37.89v53.58l-37.89,37.9H72.79L34.9,109.24V55.66L72.79,17.77h53.58m.83-2H72l-.59.58L33.48,54.25l-.58.58v55.24l.58.59,37.89,37.89.59.59H127.2l.59-.59,37.89-37.89.58-.59V54.83l-.58-.58-37.89-37.9-.59-.58Z"/></g><rect class="cls-7" x="182.03" y="60.91" width="9.72" height="49.62"/><rect class="cls-8" x="191.76" y="63.72" width="7.4" height="22"/><rect class="cls-9" x="191.76" y="95.11" width="7.4" height="9.89"/><rect class="cls-10" x="7.41" y="60.91" width="9.72" height="49.62" transform="translate(24.54 171.44) rotate(-180)"/><rect class="cls-11" y="63.72" width="7.4" height="22" transform="translate(7.4 149.44) rotate(-180)"/><rect class="cls-12" y="95.11" width="7.4" height="9.89" transform="translate(7.4 200.1) rotate(-180)"/><rect class="cls-13" x="74.14" y="192.45" width="50.88" height="63.55"/><polygon class="cls-14" points="65.43 164.9 74.14 192.44 17.13 116.61 65.43 164.9"/><polygon class="cls-15" points="125.02 192.44 133.73 164.9 182.03 116.61 125.02 192.44"/><rect class="cls-16" x="57.66" y="66.59" width="83.84" height="33.27"/><path class="cls-17" d="M141.28,66.81V99.64H57.88V66.81h83.4m.44-.44H57.44v33.71h84.28V66.37Z"/><polygon class="cls-18" points="120.32 164.9 119.5 172.97 79.66 172.97 78.84 164.9 120.32 164.9"/><polygon class="cls-19" points="119.5 172.97 117.54 192.44 81.62 192.44 79.66 172.97 119.5 172.97"/>

</g></g></g></g></svg>