<svg xmlns="http://www.w3.org/2000/svg" xmlns:xlink="http://www.w3.org/1999/xlink" viewBox="0 0 123.73 256"><defs><style>.cls-1{isolation:isolate;}.cls-2{fill:url(#未命名的渐变_2725);}.cls-3{opacity:0.3;fill:url(#未命名的渐变_464);}.cls-16,.cls-3{mix-blend-mode:multiply;}.cls-4{fill:url(#未命名的渐变_90);}.cls-5{fill:url(#未命名的渐变_90-2);}.cls-6{fill:url(#未命名的渐变_90-3);}.cls-7{fill:url(#未命名的渐变_2725-2);}.cls-8{fill:url(#未命名的渐变_90-4);}.cls-9{fill:url(#未命名的渐变_502);}.cls-10{fill:url(#未命名的渐变_502-2);}.cls-11{fill:url(#未命名的渐变_2725-3);}.cls-12{fill:url(#未命名的渐变_82);}.cls-13{fill:url(#未命名的渐变_100);}.cls-14{fill:url(#未命名的渐变_82-2);}.cls-15{fill:url(#未命名的渐变_100-2);}.cls-16{opacity:0.5;}.cls-17{fill:#464bad;}.cls-18{fill:url(#未命名的渐变_13);}.cls-19{fill:url(#未命名的渐变_70);}.cls-20{fill:url(#未命名的渐变_70-2);}.cls-21{fill:url(#未命名的渐变_13-2);}.cls-22{fill:url(#未命名的渐变_497);}.cls-23{opacity:0.2;}.cls-24{fill:#fff;}</style><linearGradient id="未命名的渐变_2725" x1="30.7" y1="197.44" x2="93.03" y2="197.44" gradientUnits="userSpaceOnUse"><stop offset="0" stop-color="#2e36c9"/><stop offset="0.15" stop-color="#969eeb"/><stop offset="0.25" stop-color="#969eeb"/><stop offset="0.85" stop-color="#060ea4"/><stop offset="1" stop-color="#060fbc"/></linearGradient><linearGradient id="未命名的渐变_464" x1="61.87" y1="150.71" x2="61.87" y2="138.88" gradientUnits="userSpaceOnUse"><stop offset="0" stop-color="#060ea4" stop-opacity="0"/><stop offset="1" stop-color="#060ea4" stop-opacity="0.6"/></linearGradient><linearGradient id="未命名的渐变_90" x1="57.96" y1="50.94" x2="65.77" y2="50.94" gradientUnits="userSpaceOnUse"><stop offset="0" stop-color="#9dadff"/><stop offset="0.15" stop-color="#fff"/><stop offset="0.25" stop-color="#fff"/><stop offset="0.9" stop-color="#7580c0"/><stop offset="1" stop-color="#8795dc"/></linearGradient><linearGradient id="未命名的渐变_90-2" x1="53.72" y1="96.54" x2="70.01" y2="96.54" xlink:href="#未命名的渐变_90"/><linearGradient id="未命名的渐变_90-3" x1="53.72" y1="58.41" x2="70.01" y2="58.41" xlink:href="#未命名的渐变_90"/><linearGradient id="未命名的渐变_2725-2" x1="53.72" y1="25.38" x2="70.01" y2="25.38" xlink:href="#未命名的渐变_2725"/><linearGradient id="未命名的渐变_90-4" x1="14.85" y1="124.12" x2="108.88" y2="124.12" xlink:href="#未命名的渐变_90"/><linearGradient id="未命名的渐变_502" x1="22.48" y1="19.59" x2="53.72" y2="19.59" gradientUnits="userSpaceOnUse"><stop offset="0" stop-color="#969eeb"/><stop offset="1" stop-color="#2e36c9"/></linearGradient><linearGradient id="未命名的渐变_502-2" x1="175.45" y1="19.59" x2="206.69" y2="19.59" gradientTransform="matrix(-1, 0, 0, 1, 276.7, 0)" xlink:href="#未命名的渐变_502"/><linearGradient id="未命名的渐变_2725-3" x1="0" y1="7.38" x2="123.73" y2="7.38" xlink:href="#未命名的渐变_2725"/><linearGradient id="未命名的渐变_82" x1="43.76" y1="75.99" x2="61.87" y2="75.99" gradientUnits="userSpaceOnUse"><stop offset="0" stop-color="#dbe1ff"/><stop offset="1" stop-color="#b2bded"/></linearGradient><linearGradient id="未命名的渐变_100" x1="61.87" y1="75.99" x2="79.97" y2="75.99" gradientUnits="userSpaceOnUse"><stop offset="0" stop-color="#9dadff"/><stop offset="1" stop-color="#7580c0"/></linearGradient><linearGradient id="未命名的渐变_82-2" x1="43.76" y1="66.19" x2="61.87" y2="66.19" xlink:href="#未命名的渐变_82"/><linearGradient id="未命名的渐变_100-2" x1="61.87" y1="66.19" x2="79.97" y2="66.19" xlink:href="#未命名的渐变_100"/><linearGradient id="未命名的渐变_13" x1="8" y1="245.62" x2="8" y2="159.85" gradientUnits="userSpaceOnUse"><stop offset="0" stop-color="#060fbc"/><stop offset="0.15" stop-color="#060ea4"/><stop offset="0.75" stop-color="#969eeb"/><stop offset="0.85" stop-color="#969eeb"/><stop offset="1" stop-color="#2e36c9"/></linearGradient><linearGradient id="未命名的渐变_70" x1="24.2" y1="227.37" x2="24.2" y2="178.1" gradientUnits="userSpaceOnUse"><stop offset="0" stop-color="#8795dc"/><stop offset="0.1" stop-color="#7580c0"/><stop offset="0.75" stop-color="#fff"/><stop offset="0.85" stop-color="#fff"/><stop offset="1" stop-color="#9dadff"/></linearGradient><linearGradient id="未命名的渐变_70-2" x1="233.58" y1="227.37" x2="233.58" y2="178.1" gradientTransform="matrix(-1, 0, 0, 1, 332.94, 0)" xlink:href="#未命名的渐变_70"/><linearGradient id="未命名的渐变_13-2" x1="243.21" y1="245.62" x2="243.21" y2="159.85" gradientTransform="matrix(1, 0, 0, -1, -127.63, 405.46)" xlink:href="#未命名的渐变_13"/><linearGradient id="未命名的渐变_497" x1="78.47" y1="123.91" x2="45.26" y2="90.7" xlink:href="#未命名的渐变_13"/></defs><title>电动阀</title><g class="cls-1"><g id="图层_2" data-name="图层 2"><g id="废气处理"><g id="电动阀"><rect class="cls-2" x="30.7" y="138.88" width="62.33" height="117.12"/><rect class="cls-3" x="30.7" y="138.88" width="62.33" height="11.83"/><rect class="cls-4" x="57.96" y="23.77" width="7.82" height="54.33"/><rect class="cls-5" x="53.72" y="79.86" width="16.29" height="33.36"/><rect class="cls-6" x="53.72" y="54.5" width="16.29" height="7.83"/><rect class="cls-7" x="53.72" y="21.47" width="16.29" height="7.83"/><rect class="cls-8" x="14.85" y="109.36" width="94.03" height="29.53"/><polygon class="cls-9" points="53.72 27.28 35.38 27.28 22.48 13.97 24.63 11.89 36.64 24.29 53.72 24.29 53.72 27.28"/><polygon class="cls-10" points="70.01 27.28 88.36 27.28 101.25 13.97 99.11 11.89 87.09 24.29 70.01 24.29 70.01 27.28"/><rect class="cls-11" width="123.73" height="14.76"/><rect class="cls-12" x="43.76" y="72.13" width="18.1" height="7.73"/><rect class="cls-13" x="61.87" y="72.13" width="18.1" height="7.73"/><rect class="cls-14" x="43.76" y="62.32" width="18.1" height="7.73"/><rect class="cls-15" x="61.87" y="62.32" width="18.1" height="7.73"/><g class="cls-16"><rect class="cls-17" x="14.85" y="123.01" width="94.03" height="2.22"/></g><rect class="cls-18" x="3.01" y="159.85" width="9.97" height="85.77"/><path class="cls-19" d="M30.7,227.37H13V178.1H30.7a66.68,66.68,0,0,1,0,49.27Z"/><path class="cls-20" d="M92.86,227.37h17.72V178.1H92.86a66.78,66.78,0,0,0,0,49.27Z"/><rect class="cls-21" x="110.6" y="159.85" width="9.97" height="85.77" transform="translate(231.17 405.46) rotate(-180)"/><path class="cls-22" d="M93,109.36S88.69,90.17,61.86,90.17,30.7,109.36,30.7,109.36Z"/>
</g></g></g></g></svg>