<svg xmlns="http://www.w3.org/2000/svg" xmlns:xlink="http://www.w3.org/1999/xlink" viewBox="0 0 202.43 256"><defs><style>.cls-1{isolation:isolate;}.cls-2{fill:url(#未命名的渐变_549);}.cls-3{fill:url(#未命名的渐变_548);}.cls-4{fill:url(#未命名的渐变_549-2);}.cls-5{fill:url(#未命名的渐变_548-2);}.cls-6{fill:url(#未命名的渐变_70);}.cls-7{fill:url(#未命名的渐变_104);}.cls-8{fill:url(#未命名的渐变_1833);}.cls-9{fill:url(#未命名的渐变_1833-2);}.cls-10{fill:url(#未命名的渐变_1833-3);}.cls-11{fill:url(#未命名的渐变_69);}.cls-12{fill:url(#未命名的渐变_69-2);}.cls-13{opacity:0.5;}.cls-13,.cls-26,.cls-28{mix-blend-mode:multiply;}.cls-14{fill:#464bad;}.cls-15{fill:url(#未命名的渐变_1833-4);}.cls-16{fill:url(#未命名的渐变_1236);}.cls-17{fill:url(#未命名的渐变_1833-5);}.cls-18{fill:url(#未命名的渐变_1236-2);}.cls-19{fill:url(#未命名的渐变_1833-6);}.cls-20{fill:url(#未命名的渐变_1236-3);}.cls-21{fill:url(#未命名的渐变_1979);}.cls-22{fill:url(#未命名的渐变_1833-7);}.cls-23{fill:url(#未命名的渐变_1833-8);}.cls-24{fill:url(#未命名的渐变_1833-9);}.cls-25{fill:url(#未命名的渐变_1833-10);}.cls-26,.cls-28{opacity:0.3;}.cls-26{fill:url(#未命名的渐变_23);}.cls-27{fill:url(#未命名的渐变_1979-2);}.cls-28{fill:url(#未命名的渐变_464);}.cls-29{opacity:0.2;}.cls-30{fill:#fff;}</style><linearGradient id="未命名的渐变_549" x1="15.45" y1="206.33" x2="15.45" y2="156.66" gradientUnits="userSpaceOnUse"><stop offset="0" stop-color="#00e36d"/><stop offset="1" stop-color="#a6ff8d"/></linearGradient><linearGradient id="未命名的渐变_548" x1="15.45" y1="256" x2="15.45" y2="206.33" gradientUnits="userSpaceOnUse"><stop offset="0" stop-color="#00b167"/><stop offset="1" stop-color="#008260"/></linearGradient><linearGradient id="未命名的渐变_549-2" x1="186.98" y1="206.33" x2="186.98" y2="156.66" xlink:href="#未命名的渐变_549"/><linearGradient id="未命名的渐变_548-2" x1="186.98" x2="186.98" y2="206.33" xlink:href="#未命名的渐变_548"/><linearGradient id="未命名的渐变_70" x1="101.1" y1="241.71" x2="101.1" y2="170.96" gradientUnits="userSpaceOnUse"><stop offset="0" stop-color="#8795dc"/><stop offset="0.1" stop-color="#7580c0"/><stop offset="0.75" stop-color="#fff"/><stop offset="0.85" stop-color="#fff"/><stop offset="1" stop-color="#9dadff"/></linearGradient><linearGradient id="未命名的渐变_104" x1="56.35" y1="160.6" x2="145.85" y2="160.6" gradientUnits="userSpaceOnUse"><stop offset="0" stop-color="#9dadff"/><stop offset="0.15" stop-color="#fff"/><stop offset="0.25" stop-color="#fff"/><stop offset="0.9" stop-color="#7580c0"/><stop offset="1" stop-color="#8795dc"/></linearGradient><linearGradient id="未命名的渐变_1833" x1="30.9" y1="119.15" x2="171.3" y2="119.15" gradientUnits="userSpaceOnUse"><stop offset="0" stop-color="#00e36d"/><stop offset="0.15" stop-color="#a6ff8d"/><stop offset="0.25" stop-color="#a6ff8d"/><stop offset="0.85" stop-color="#008260"/><stop offset="1" stop-color="#00b167"/></linearGradient><linearGradient id="未命名的渐变_1833-2" x1="65.84" y1="47.04" x2="136.36" y2="47.04" xlink:href="#未命名的渐变_1833"/><linearGradient id="未命名的渐变_1833-3" x1="63.12" y1="209.38" x2="139.08" y2="209.38" gradientTransform="matrix(1, 0, 0, -1.12, 0, 236.55)" xlink:href="#未命名的渐变_1833"/><linearGradient id="未命名的渐变_69" x1="30.9" y1="146.49" x2="56.35" y2="146.49" gradientUnits="userSpaceOnUse"><stop offset="0" stop-color="#9dadff"/><stop offset="0.15" stop-color="#fff"/><stop offset="0.6" stop-color="#7580c0"/><stop offset="0.9" stop-color="#8795dc"/><stop offset="1" stop-color="#9dadff"/></linearGradient><linearGradient id="未命名的渐变_69-2" x1="125.57" y1="146.49" x2="151.01" y2="146.49" gradientTransform="matrix(1, 0, 0, -1, 20.29, 292.98)" xlink:href="#未命名的渐变_69"/><linearGradient id="未命名的渐变_1833-4" x1="33.17" y1="104.35" x2="45.35" y2="104.35" xlink:href="#未命名的渐变_1833"/><linearGradient id="未命名的渐变_1236" x1="-289.57" y1="-300.96" x2="-289.57" y2="-310.27" gradientTransform="translate(328.83 406.72)" gradientUnits="userSpaceOnUse"><stop offset="0" stop-color="#00e36d"/><stop offset="0.2" stop-color="#97f289"/><stop offset="0.21" stop-color="#47b773"/><stop offset="0.8" stop-color="#47b773"/><stop offset="0.81" stop-color="#008260"/><stop offset="1" stop-color="#009162"/></linearGradient><linearGradient id="未命名的渐变_1833-5" x1="156.85" y1="104.35" x2="169.03" y2="104.35" xlink:href="#未命名的渐变_1833"/><linearGradient id="未命名的渐变_1236-2" x1="-289.57" y1="-424.64" x2="-289.57" y2="-433.95" gradientTransform="translate(452.51 530.4)" xlink:href="#未命名的渐变_1236"/><linearGradient id="未命名的渐变_1833-6" x1="82" y1="102.24" x2="120.2" y2="102.24" xlink:href="#未命名的渐变_1833"/><linearGradient id="未命名的渐变_1236-3" x1="-295.93" y1="-352.85" x2="-295.93" y2="-382.06" gradientTransform="translate(397.03 462.2)" xlink:href="#未命名的渐变_1236"/><linearGradient id="未命名的渐变_1979" x1="136.36" y1="39.18" x2="169.03" y2="39.18" gradientTransform="translate(113.52 191.87) rotate(-90)" gradientUnits="userSpaceOnUse"><stop offset="0" stop-color="#008260"/><stop offset="0.01" stop-color="#a6ff8d"/><stop offset="0.02" stop-color="#00e36d"/><stop offset="0.98" stop-color="#00e36d"/><stop offset="1" stop-color="#008260"/></linearGradient><linearGradient id="未命名的渐变_1833-7" x1="169.03" y1="32.35" x2="194.54" y2="32.35" gradientTransform="translate(149.43 214.14) rotate(-90)" xlink:href="#未命名的渐变_1833"/><linearGradient id="未命名的渐变_1833-8" x1="171.51" y1="63.64" x2="192.06" y2="63.64" gradientTransform="translate(118.15 245.42) rotate(-90)" xlink:href="#未命名的渐变_1833"/><linearGradient id="未命名的渐变_1833-9" x1="172.5" y1="78.38" x2="191.68" y2="73.24" xlink:href="#未命名的渐变_1833"/><linearGradient id="未命名的渐变_1833-10" x1="166.98" y1="78.75" x2="196.59" y2="78.75" gradientTransform="translate(103.03 260.54) rotate(-90)" xlink:href="#未命名的渐变_1833"/><linearGradient id="未命名的渐变_23" x1="152.69" y1="18.04" x2="152.69" y2="12.08" gradientTransform="translate(137.63 167.76) rotate(-90)" gradientUnits="userSpaceOnUse"><stop offset="0" stop-color="#002b1e" stop-opacity="0"/><stop offset="1" stop-color="#002b1e" stop-opacity="0.6"/></linearGradient><linearGradient id="未命名的渐变_1979-2" x1="136.36" y1="9.81" x2="169.03" y2="9.81" gradientTransform="translate(142.88 162.51) rotate(-90)" xlink:href="#未命名的渐变_1979"/><linearGradient id="未命名的渐变_464" x1="101.1" y1="141.86" x2="101.1" y2="132.82" gradientUnits="userSpaceOnUse"><stop offset="0" stop-color="#060ea4" stop-opacity="0"/><stop offset="1" stop-color="#060ea4" stop-opacity="0.6"/></linearGradient></defs><title>电磁阀（绿）</title><g class="cls-1"><g id="图层_2" data-name="图层 2"><g id="废气处理"><g id="电磁阀_绿_" data-name="电磁阀（绿）"><rect class="cls-2" y="156.66" width="30.9" height="49.67"/><rect class="cls-3" y="206.33" width="30.9" height="49.67"/><rect class="cls-4" x="171.54" y="156.66" width="30.9" height="49.67"/><rect class="cls-5" x="171.54" y="206.33" width="30.9" height="49.67"/><rect class="cls-6" x="30.66" y="170.96" width="140.87" height="70.75"/><path class="cls-7" d="M145.85,171l-32.19,14.69a30.26,30.26,0,0,1-25.12,0L56.35,171V132.82h89.5Z"/><rect class="cls-8" x="30.9" y="105.48" width="140.4" height="27.34"/><rect class="cls-9" x="65.84" y="3.6" width="70.53" height="86.88"/><rect class="cls-10" x="63.12" width="75.97" height="3.6"/><rect class="cls-11" x="30.9" y="132.82" width="25.45" height="27.34"/><rect class="cls-12" x="145.85" y="132.82" width="25.45" height="27.34" transform="translate(317.15 292.98) rotate(-180)"/><g class="cls-13"><rect class="cls-14" x="30.9" y="125.29" width="140.4" height="3.18"/></g><rect class="cls-15" x="33.17" y="103.21" width="12.18" height="2.28"/><rect class="cls-16" x="37.16" y="96.45" width="4.2" height="9.32" transform="translate(140.37 61.85) rotate(90)"/><rect class="cls-17" x="156.85" y="103.21" width="12.18" height="2.28"/><rect class="cls-18" x="160.84" y="96.45" width="4.2" height="9.32" transform="translate(264.04 -61.83) rotate(90)"/><rect class="cls-19" x="82" y="99.01" width="38.2" height="6.48"/><rect class="cls-20" x="96.84" y="80.14" width="8.52" height="29.21" transform="translate(195.84 -6.36) rotate(90)"/><rect class="cls-21" x="125.6" y="22.84" width="54.19" height="32.67" transform="translate(191.87 -113.52) rotate(90)"/><rect class="cls-22" x="161.51" y="19.6" width="40.54" height="25.51" transform="translate(214.14 -149.43) rotate(90)"/><rect class="cls-23" x="170.77" y="53.36" width="22.03" height="20.56" transform="translate(245.42 -118.15) rotate(90)"/><polygon class="cls-24" points="173.24 77.59 171.5 74.65 192.06 74.65 190.32 77.59 173.24 77.59"/><rect class="cls-25" x="180.62" y="63.95" width="2.32" height="29.61" transform="translate(260.54 -103.03) rotate(90)"/><rect class="cls-26" x="149.72" y="-1.27" width="5.96" height="32.67" transform="translate(167.76 -137.63) rotate(90)"/><rect class="cls-27" x="150.43" y="-6.52" width="4.54" height="32.67" transform="translate(162.51 -142.88) rotate(90)"/><rect class="cls-28" x="56.35" y="132.82" width="89.51" height="9.04"/>
</g></g></g></g></svg>