<svg xmlns="http://www.w3.org/2000/svg" xmlns:xlink="http://www.w3.org/1999/xlink" viewBox="0 0 80 256"><defs><style>.cls-1{isolation:isolate;}.cls-2{fill:url(#未命名的渐变_1847);}.cls-3{fill:url(#未命名的渐变_1847-2);}.cls-4{fill:url(#未命名的渐变_1847-3);}.cls-5{fill:url(#未命名的渐变_1847-4);}.cls-10,.cls-6,.cls-8{opacity:0.3;mix-blend-mode:multiply;}.cls-6{fill:url(#未命名的渐变_14);}.cls-7{fill:url(#未命名的渐变_1847-5);}.cls-8{fill:url(#未命名的渐变_14-2);}.cls-9{fill:url(#未命名的渐变_1847-6);}.cls-10{fill:url(#未命名的渐变_14-3);}.cls-11{fill:url(#未命名的渐变_1847-7);}.cls-12{fill:url(#未命名的渐变_177);}.cls-13{fill:url(#未命名的渐变_177-2);}.cls-14{fill:url(#未命名的渐变_4711);}.cls-15{fill:url(#未命名的渐变_4711-2);}.cls-16{fill:url(#未命名的渐变_177-3);}.cls-17{fill:url(#未命名的渐变_61);}.cls-18{fill:url(#未命名的渐变_57);}.cls-19{fill:url(#未命名的渐变_80);}.cls-20{fill:url(#未命名的渐变_76);}.cls-21{fill:url(#未命名的渐变_61-2);}.cls-22{fill:url(#未命名的渐变_57-2);}.cls-23{fill:url(#未命名的渐变_80-2);}.cls-24{fill:url(#未命名的渐变_76-2);}.cls-25{fill:url(#未命名的渐变_61-3);}.cls-26{fill:url(#未命名的渐变_57-3);}.cls-27{fill:url(#未命名的渐变_80-3);}.cls-28{fill:url(#未命名的渐变_76-3);}.cls-29{opacity:0.2;}.cls-30{fill:#fff;}</style><linearGradient id="未命名的渐变_1847" x1="7.9" y1="147.36" x2="72.1" y2="147.36" gradientUnits="userSpaceOnUse"><stop offset="0" stop-color="#9dadff"/><stop offset="0.15" stop-color="#fff"/><stop offset="0.25" stop-color="#fff"/><stop offset="0.9" stop-color="#7580c0"/><stop offset="1" stop-color="#8795dc"/></linearGradient><linearGradient id="未命名的渐变_1847-2" x1="21.25" y1="14.56" x2="58.75" y2="52.07" xlink:href="#未命名的渐变_1847"/><linearGradient id="未命名的渐变_1847-3" x1="25.9" y1="5.79" x2="54.1" y2="5.79" xlink:href="#未命名的渐变_1847"/><linearGradient id="未命名的渐变_1847-4" x1="23.6" y1="0.83" x2="56.4" y2="0.83" xlink:href="#未命名的渐变_1847"/><linearGradient id="未命名的渐变_14" x1="40" y1="46.56" x2="40" y2="50.92" gradientUnits="userSpaceOnUse"><stop offset="0" stop-color="#060ea4" stop-opacity="0.6"/><stop offset="1" stop-color="#060ea4" stop-opacity="0"/></linearGradient><linearGradient id="未命名的渐变_1847-5" x1="6.98" y1="42.64" x2="73.02" y2="42.64" xlink:href="#未命名的渐变_1847"/><linearGradient id="未命名的渐变_14-2" y1="107.13" y2="111.49" xlink:href="#未命名的渐变_14"/><linearGradient id="未命名的渐变_1847-6" x1="6.98" y1="103.21" x2="73.02" y2="103.21" xlink:href="#未命名的渐变_1847"/><linearGradient id="未命名的渐变_14-3" y1="167.7" y2="172.05" xlink:href="#未命名的渐变_14"/><linearGradient id="未命名的渐变_1847-7" x1="6.98" y1="163.77" x2="73.02" y2="163.77" xlink:href="#未命名的渐变_1847"/><linearGradient id="未命名的渐变_177" x1="29.12" y1="26.65" x2="49.59" y2="26.65" gradientTransform="translate(-0.14 6.61) rotate(-1.13)" gradientUnits="userSpaceOnUse"><stop offset="0" stop-color="#28398b"/><stop offset="0.15" stop-color="#999fda"/><stop offset="0.25" stop-color="#999fda"/><stop offset="0.9" stop-color="#1e2a6b"/><stop offset="1" stop-color="#23317a"/></linearGradient><linearGradient id="未命名的渐变_177-2" x1="24.81" y1="21.75" x2="54.7" y2="21.75" xlink:href="#未命名的渐变_177"/><linearGradient id="未命名的渐变_4711" x1="39.85" y1="28.04" x2="39.85" y2="2.33" gradientTransform="translate(-0.14 6.61) rotate(-1.13)" gradientUnits="userSpaceOnUse"><stop offset="0" stop-color="#b2bded"/><stop offset="1" stop-color="#dbe1ff"/></linearGradient><linearGradient id="未命名的渐变_4711-2" x1="39.88" y1="23.94" x2="39.88" y2="4.83" xlink:href="#未命名的渐变_4711"/><linearGradient id="未命名的渐变_177-3" x1="28.81" y1="19.36" x2="50.91" y2="19.36" xlink:href="#未命名的渐变_177"/><linearGradient id="未命名的渐变_61" x1="40" y1="87.89" x2="40" y2="58.73" gradientUnits="userSpaceOnUse"><stop offset="0" stop-color="#414ed5"/><stop offset="1" stop-color="#090919"/></linearGradient><linearGradient id="未命名的渐变_57" x1="40" y1="88.89" x2="40" y2="57.73" gradientUnits="userSpaceOnUse"><stop offset="0" stop-color="#a5add6"/><stop offset="1" stop-color="#d6ddff"/></linearGradient><linearGradient id="未命名的渐变_80" x1="40" y1="87.89" x2="40" y2="58.73" gradientUnits="userSpaceOnUse"><stop offset="0" stop-color="#b4c0ee"/><stop offset="1" stop-color="#fff"/></linearGradient><linearGradient id="未命名的渐变_76" x1="41.97" y1="75.28" x2="30.74" y2="64.05" gradientUnits="userSpaceOnUse"><stop offset="0" stop-color="#b0bdff" stop-opacity="0"/><stop offset="1" stop-color="#b0bdff" stop-opacity="0.5"/></linearGradient><linearGradient id="未命名的渐变_61-2" y1="148.64" y2="119.47" xlink:href="#未命名的渐变_61"/><linearGradient id="未命名的渐变_57-2" y1="149.64" y2="118.47" xlink:href="#未命名的渐变_57"/><linearGradient id="未命名的渐变_80-2" y1="148.64" y2="119.47" xlink:href="#未命名的渐变_80"/><linearGradient id="未命名的渐变_76-2" x1="41.97" y1="136.02" x2="30.74" y2="124.79" xlink:href="#未命名的渐变_76"/><linearGradient id="未命名的渐变_61-3" y1="209.59" y2="180.42" xlink:href="#未命名的渐变_61"/><linearGradient id="未命名的渐变_57-3" y1="210.59" y2="179.42" xlink:href="#未命名的渐变_57"/><linearGradient id="未命名的渐变_80-3" y1="209.59" y2="180.42" xlink:href="#未命名的渐变_80"/><linearGradient id="未命名的渐变_76-3" x1="41.97" y1="196.98" x2="30.74" y2="185.75" xlink:href="#未命名的渐变_76"/></defs><title>碱洗塔</title><g class="cls-1"><g id="图层_2" data-name="图层 2"><g id="废气处理"><g id="碱洗塔"><rect class="cls-2" x="7.9" y="38.72" width="64.2" height="217.28"/><polygon class="cls-3" points="72.1 38.72 7.9 38.72 25.9 9.91 54.1 9.91 72.1 38.72"/><rect class="cls-4" x="25.9" y="1.66" width="28.2" height="8.25"/><rect class="cls-5" x="23.6" width="32.8" height="1.66"/><rect class="cls-6" x="7.9" y="46.56" width="64.2" height="4.36"/><rect class="cls-7" x="6.98" y="38.72" width="66.04" height="7.85"/><rect class="cls-8" x="7.9" y="107.13" width="64.2" height="4.36"/><rect class="cls-9" x="6.98" y="99.28" width="66.04" height="7.85"/><rect class="cls-10" x="7.9" y="167.7" width="64.2" height="4.36"/><rect class="cls-11" x="6.98" y="159.85" width="66.04" height="7.85"/><g class="cls-1"><path class="cls-12" d="M29.44,29.76a10.18,10.18,0,0,0,2.23,2.73,12.75,12.75,0,0,0,16.21,0,10.27,10.27,0,0,0,2-2.41A16.58,16.58,0,0,1,29.44,29.76Z"/><path class="cls-13" d="M50.54,30.12a16.55,16.55,0,0,1-21,0,12.08,12.08,0,0,1-4.38-9.33l-.16.84a12,12,0,0,0,4.38,9.33,16.55,16.55,0,0,0,21,0,12,12,0,0,0,4.32-8.85l.16-.83A12,12,0,0,1,50.54,30.12Z"/><path class="cls-14" d="M50.48,12a16.55,16.55,0,0,0-21,0,11.67,11.67,0,0,0,.05,18.18,16.55,16.55,0,0,0,21,0C56.32,25.12,56.3,17,50.48,12ZM47.83,27.78a12.29,12.29,0,0,1-15.61,0,8.67,8.67,0,0,1,0-13.51,12.3,12.3,0,0,1,15.62,0A8.66,8.66,0,0,1,47.83,27.78Z"/><path class="cls-15" d="M47.8,13.48a12.29,12.29,0,0,0-15.61,0,8.67,8.67,0,0,0,0,13.51,12.29,12.29,0,0,0,15.61,0A8.66,8.66,0,0,0,47.8,13.48Z"/><path class="cls-16" d="M47.84,27a12.29,12.29,0,0,1-15.61,0A8.93,8.93,0,0,1,29,20l0,.8a8.93,8.93,0,0,0,3.26,6.93,12.29,12.29,0,0,0,15.61,0A8.85,8.85,0,0,0,51,21.21v-.8A8.88,8.88,0,0,1,47.84,27Z"/></g><circle class="cls-17" cx="40" cy="73.31" r="14.58"/><path class="cls-18" d="M40,58.73A14.58,14.58,0,1,1,25.42,73.31,14.58,14.58,0,0,1,40,58.73m0-1A15.58,15.58,0,1,0,55.58,73.31,15.6,15.6,0,0,0,40,57.73Z"/><path class="cls-19" d="M40,59A14.33,14.33,0,1,1,25.67,73.31,14.35,14.35,0,0,1,40,59m0-.25A14.58,14.58,0,1,0,54.58,73.31,14.58,14.58,0,0,0,40,58.73Z"/><path class="cls-20" d="M49.74,64.34A40,40,0,0,1,31,83.05c-5.19-5.51-5.35-13.93-.29-19S44.24,59.15,49.74,64.34Z"/><circle class="cls-21" cx="40" cy="134.05" r="14.58"/><path class="cls-22" d="M40,119.47a14.59,14.59,0,1,1-14.58,14.58A14.58,14.58,0,0,1,40,119.47m0-1a15.59,15.59,0,1,0,15.58,15.58A15.6,15.6,0,0,0,40,118.47Z"/><path class="cls-23" d="M40,119.72a14.34,14.34,0,1,1-14.33,14.33A14.35,14.35,0,0,1,40,119.72m0-.25a14.59,14.59,0,1,0,14.58,14.58A14.58,14.58,0,0,0,40,119.47Z"/><path class="cls-24" d="M49.74,125.08A40,40,0,0,1,31,143.79c-5.19-5.51-5.35-13.93-.29-19S44.24,119.89,49.74,125.08Z"/><circle class="cls-25" cx="40" cy="195.01" r="14.58"/><path class="cls-26" d="M40,180.42A14.59,14.59,0,1,1,25.42,195,14.59,14.59,0,0,1,40,180.42m0-1A15.59,15.59,0,1,0,55.58,195,15.6,15.6,0,0,0,40,179.42Z"/><path class="cls-27" d="M40,180.67A14.34,14.34,0,1,1,25.67,195,14.35,14.35,0,0,1,40,180.67m0-.25A14.59,14.59,0,1,0,54.58,195,14.59,14.59,0,0,0,40,180.42Z"/><path class="cls-28" d="M49.74,186A40,40,0,0,1,31,204.74c-5.19-5.5-5.35-13.93-.29-19S44.24,180.84,49.74,186Z"/></g></g></g></g></svg>