<svg xmlns="http://www.w3.org/2000/svg" xmlns:xlink="http://www.w3.org/1999/xlink" viewBox="0 0 256 171.33"><defs><style>.cls-1{fill:url(#未命名的渐变_2730);}.cls-2{fill:url(#未命名的渐变_7518);}.cls-3{fill:url(#未命名的渐变_4293);}.cls-4{fill:url(#未命名的渐变_4293-2);}.cls-5{fill:url(#未命名的渐变_4293-3);}.cls-6{fill:url(#未命名的渐变_4293-4);}.cls-7{fill:url(#未命名的渐变_2730-2);}.cls-8{fill:url(#未命名的渐变_4293-5);}.cls-9{fill:url(#未命名的渐变_4293-6);}.cls-10{fill:url(#未命名的渐变_4287);}.cls-11{fill:url(#未命名的渐变_4756);}.cls-12{fill:url(#未命名的渐变_4287-2);}.cls-13{fill:url(#未命名的渐变_4756-2);}.cls-14{fill:url(#未命名的渐变_4287-3);}.cls-15{fill:url(#未命名的渐变_4756-3);}.cls-16{fill:url(#未命名的渐变_4287-4);}.cls-17{fill:url(#未命名的渐变_4756-4);}.cls-18{fill:url(#未命名的渐变_4287-5);}.cls-19{fill:url(#未命名的渐变_4756-5);}.cls-20{fill:url(#未命名的渐变_4287-6);}.cls-21{fill:url(#未命名的渐变_4756-6);}.cls-22{fill:url(#未命名的渐变_4287-7);}.cls-23{fill:url(#未命名的渐变_4756-7);}.cls-24{fill:url(#未命名的渐变_4287-8);}.cls-25{fill:url(#未命名的渐变_4756-8);}.cls-26{opacity:0.2;}.cls-27{fill:#fff;}</style><linearGradient id="未命名的渐变_2730" x1="9.51" y1="171.33" x2="9.51" gradientUnits="userSpaceOnUse"><stop offset="0" stop-color="#060fbc"/><stop offset="0.15" stop-color="#060ea4"/><stop offset="0.75" stop-color="#969eeb"/><stop offset="0.85" stop-color="#969eeb"/><stop offset="1" stop-color="#2e36c9"/></linearGradient><linearGradient id="未命名的渐变_7518" x1="128" y1="155.02" x2="128" y2="16.31" gradientUnits="userSpaceOnUse"><stop offset="0" stop-color="#1d308e"/><stop offset="0.1" stop-color="#19297e"/><stop offset="0.75" stop-color="#969eeb"/><stop offset="0.85" stop-color="#969eeb"/><stop offset="1" stop-color="#2238a4"/></linearGradient><linearGradient id="未命名的渐变_4293" x1="116.55" y1="167.27" x2="116.55" y2="4.07" gradientUnits="userSpaceOnUse"><stop offset="0" stop-color="#8795dc"/><stop offset="0.1" stop-color="#7580c0"/><stop offset="0.75" stop-color="#fff"/><stop offset="0.85" stop-color="#fff"/><stop offset="1" stop-color="#9dadff"/></linearGradient><linearGradient id="未命名的渐变_4293-2" x1="139.45" y1="167.27" x2="139.45" y2="4.07" xlink:href="#未命名的渐变_4293"/><linearGradient id="未命名的渐变_4293-3" x1="28.55" y1="124.53" x2="28.55" y2="46.8" xlink:href="#未命名的渐变_4293"/><linearGradient id="未命名的渐变_4293-4" x1="102.32" y1="153.7" x2="59.69" y2="36.58" xlink:href="#未命名的渐变_4293"/><linearGradient id="未命名的渐变_2730-2" x1="3076.45" y1="171.33" x2="3076.45" gradientTransform="matrix(1, 0, 0, -1, -2829.96, 171.33)" xlink:href="#未命名的渐变_2730"/><linearGradient id="未命名的渐变_4293-5" x1="3095.49" y1="124.53" x2="3095.49" y2="46.8" gradientTransform="matrix(-1, 0, 0, 1, 3322.94, 0)" xlink:href="#未命名的渐变_4293"/><linearGradient id="未命名的渐变_4293-6" x1="3169.25" y1="153.7" x2="3126.63" y2="36.58" gradientTransform="matrix(-1, 0, 0, 1, 3322.94, 0)" xlink:href="#未命名的渐变_4293"/><linearGradient id="未命名的渐变_4287" x1="1840.04" y1="1255.6" x2="1845.61" y2="1255.6" gradientTransform="translate(-1744.21 -1233.85)" gradientUnits="userSpaceOnUse"><stop offset="0" stop-color="#9dadff"/><stop offset="0.15" stop-color="#fff"/><stop offset="0.25" stop-color="#fff"/><stop offset="0.9" stop-color="#7580c0"/><stop offset="1" stop-color="#8795dc"/></linearGradient><linearGradient id="未命名的渐变_4756" x1="1520.81" y1="-2118.5" x2="1520.81" y2="-2130.96" gradientTransform="translate(-1416.95 2146.48)" gradientUnits="userSpaceOnUse"><stop offset="0" stop-color="#b7c3ff"/><stop offset="0.19" stop-color="#d3daff"/><stop offset="0.2" stop-color="#e4e7ff"/><stop offset="0.21" stop-color="#b1bbef"/><stop offset="0.8" stop-color="#9dadff"/><stop offset="0.81" stop-color="#7580c0"/><stop offset="0.98" stop-color="#7580c0"/><stop offset="1" stop-color="#7580c0"/></linearGradient><linearGradient id="未命名的渐变_4287-2" x1="1968.09" y1="1255.6" x2="1973.67" y2="1255.6" gradientTransform="translate(-1872.26 -1105.8)" xlink:href="#未命名的渐变_4287"/><linearGradient id="未命名的渐变_4756-2" x1="1520.81" y1="-2246.56" x2="1520.81" y2="-2259.02" gradientTransform="translate(-1416.95 2402.59)" xlink:href="#未命名的渐变_4756"/><linearGradient id="未命名的渐变_4287-3" x1="1925.41" y1="1255.6" x2="1930.98" y2="1255.6" gradientTransform="translate(-1829.57 -1148.48)" xlink:href="#未命名的渐变_4287"/><linearGradient id="未命名的渐变_4756-3" x1="1520.81" y1="-2203.87" x2="1520.81" y2="-2216.33" gradientTransform="translate(-1416.95 2317.22)" xlink:href="#未命名的渐变_4756"/><linearGradient id="未命名的渐变_4287-4" x1="1882.72" y1="1255.6" x2="1888.3" y2="1255.6" gradientTransform="translate(-1786.89 -1191.17)" xlink:href="#未命名的渐变_4287"/><linearGradient id="未命名的渐变_4756-4" x1="1520.81" y1="-2161.19" x2="1520.81" y2="-2173.65" gradientTransform="translate(-1416.95 2231.85)" xlink:href="#未命名的渐变_4756"/><linearGradient id="未命名的渐变_4287-5" x1="1840.04" y1="-1766.54" x2="1845.61" y2="-1766.54" gradientTransform="matrix(1, 0, 0, -1, -1685.45, -1744.79)" xlink:href="#未命名的渐变_4287"/><linearGradient id="未命名的渐变_4756-5" x1="-1501.33" y1="-2118.5" x2="-1501.33" y2="-2130.96" gradientTransform="matrix(1, 0, 0, -1, 1653.47, -2102.98)" xlink:href="#未命名的渐变_4756"/><linearGradient id="未命名的渐变_4287-6" x1="1968.09" y1="-1766.54" x2="1973.67" y2="-1766.54" gradientTransform="matrix(1, 0, 0, -1, -1813.5, -1616.74)" xlink:href="#未命名的渐变_4287"/><linearGradient id="未命名的渐变_4756-6" x1="-1501.33" y1="-2246.56" x2="-1501.33" y2="-2259.02" gradientTransform="matrix(1, 0, 0, -1, 1653.47, -2102.98)" xlink:href="#未命名的渐变_4756"/><linearGradient id="未命名的渐变_4287-7" x1="1925.41" y1="-1766.54" x2="1930.98" y2="-1766.54" gradientTransform="matrix(1, 0, 0, -1, -1770.82, -1659.42)" xlink:href="#未命名的渐变_4287"/><linearGradient id="未命名的渐变_4756-7" x1="-1501.33" y1="-2203.87" x2="-1501.33" y2="-2216.33" gradientTransform="matrix(1, 0, 0, -1, 1653.47, -2102.98)" xlink:href="#未命名的渐变_4756"/><linearGradient id="未命名的渐变_4287-8" x1="1882.72" y1="-1766.54" x2="1888.3" y2="-1766.54" gradientTransform="matrix(1, 0, 0, -1, -1728.13, -1702.1)" xlink:href="#未命名的渐变_4287"/><linearGradient id="未命名的渐变_4756-8" x1="-1501.33" y1="-2161.19" x2="-1501.33" y2="-2173.65" gradientTransform="matrix(1, 0, 0, -1, 1653.47, -2102.98)" xlink:href="#未命名的渐变_4756"/></defs><title>阻火器</title><g id="图层_2" data-name="图层 2"><g id="废气处理"><g id="阻火器"><rect class="cls-1" width="19.02" height="171.33"/><rect class="cls-2" x="118.47" y="16.31" width="19.05" height="138.71"/><rect class="cls-3" x="107.04" y="4.07" width="19.02" height="163.2"/><rect class="cls-4" x="129.94" y="4.07" width="19.02" height="163.2"/><rect class="cls-5" x="19.02" y="46.8" width="19.05" height="77.72"/><polygon class="cls-6" points="38.08 46.8 38.08 124.53 107.04 151.98 107.04 19.35 38.08 46.8"/><rect class="cls-7" x="236.98" width="19.02" height="171.33" transform="translate(492.98 171.33) rotate(-180)"/><rect class="cls-8" x="217.92" y="46.8" width="19.05" height="77.72"/><polygon class="cls-9" points="148.96 19.35 148.96 151.98 217.93 124.53 217.93 46.8 148.96 19.35"/><rect class="cls-10" x="95.83" y="19.7" width="5.58" height="4.1" transform="translate(120.37 -76.87) rotate(90)"/><rect class="cls-11" x="100.67" y="15.52" width="6.37" height="12.46" transform="translate(207.71 43.5) rotate(-180)"/><rect class="cls-12" x="95.83" y="147.75" width="5.58" height="4.1" transform="translate(248.42 51.18) rotate(90)"/><rect class="cls-13" x="100.67" y="143.57" width="6.37" height="12.46" transform="translate(207.71 299.6) rotate(-180)"/><rect class="cls-14" x="95.83" y="105.07" width="5.58" height="4.1" transform="translate(205.74 8.5) rotate(90)"/><rect class="cls-15" x="100.67" y="100.89" width="6.37" height="12.46" transform="translate(207.71 214.23) rotate(-180)"/><rect class="cls-16" x="95.83" y="62.38" width="5.58" height="4.1" transform="translate(163.05 -34.19) rotate(90)"/><rect class="cls-17" x="100.67" y="58.2" width="6.37" height="12.46" transform="translate(207.71 128.86) rotate(-180)"/><rect class="cls-18" x="154.59" y="19.7" width="5.58" height="4.1" transform="translate(179.13 -135.63) rotate(90)"/><rect class="cls-19" x="148.96" y="15.52" width="6.37" height="12.46"/><rect class="cls-20" x="154.59" y="147.75" width="5.58" height="4.1" transform="translate(307.18 -7.58) rotate(90)"/><rect class="cls-21" x="148.96" y="143.57" width="6.37" height="12.46"/><rect class="cls-22" x="154.59" y="105.07" width="5.58" height="4.1" transform="translate(264.5 -50.26) rotate(90)"/><rect class="cls-23" x="148.96" y="100.89" width="6.37" height="12.46"/><rect class="cls-24" x="154.59" y="62.38" width="5.58" height="4.1" transform="translate(221.81 -92.95) rotate(90)"/><rect class="cls-25" x="148.96" y="58.2" width="6.37" height="12.46"/></g></g></g></svg>