<svg xmlns="http://www.w3.org/2000/svg" xmlns:xlink="http://www.w3.org/1999/xlink" viewBox="0 0 256 241.29"><defs><style>.cls-1{fill:url(#未命名的渐变_243);}.cls-2{fill:url(#未命名的渐变_243-2);}.cls-3{fill:url(#未命名的渐变_243-3);}.cls-4{fill:url(#未命名的渐变_202);}.cls-5{fill:url(#未命名的渐变_29);}.cls-6{fill:url(#未命名的渐变_29-2);}.cls-7{fill:url(#未命名的渐变_40);}.cls-8{fill:url(#未命名的渐变_40-2);}.cls-9{opacity:0.2;}.cls-10{fill:#fff;}</style><linearGradient id="未命名的渐变_243" x1="13.24" y1="114.76" x2="242.76" y2="114.76" gradientUnits="userSpaceOnUse"><stop offset="0" stop-color="#9dadff"/><stop offset="0.02" stop-color="#d2d9f7"/><stop offset="0.04" stop-color="#d2d9f7"/><stop offset="0.98" stop-color="#7580c0"/><stop offset="1" stop-color="#8795dc"/></linearGradient><linearGradient id="未命名的渐变_243-2" x1="79.59" y1="108.87" x2="152.47" y2="108.87" xlink:href="#未命名的渐变_243"/><linearGradient id="未命名的渐变_243-3" x1="156.26" y1="108.87" x2="229.13" y2="108.87" xlink:href="#未命名的渐变_243"/><linearGradient id="未命名的渐变_202" x1="13.24" y1="226.66" x2="242.76" y2="226.66" gradientUnits="userSpaceOnUse"><stop offset="0" stop-color="#7580bb"/><stop offset="0.02" stop-color="#93a2cc"/><stop offset="0.04" stop-color="#8795d9"/><stop offset="0.98" stop-color="#8795d9"/><stop offset="1" stop-color="#7580bb"/></linearGradient><linearGradient id="未命名的渐变_29" x1="6.62" y1="147.13" x2="6.62" y2="70.62" gradientUnits="userSpaceOnUse"><stop offset="0" stop-color="#8795dc"/><stop offset="0.1" stop-color="#7580c0"/><stop offset="0.75" stop-color="#fff"/><stop offset="0.85" stop-color="#fff"/><stop offset="1" stop-color="#9dadff"/></linearGradient><linearGradient id="未命名的渐变_29-2" x1="249.38" y1="147.13" x2="249.38" y2="70.62" gradientTransform="translate(498.76 217.75) rotate(180)" xlink:href="#未命名的渐变_29"/><linearGradient id="未命名的渐变_40" x1="13.24" y1="235.4" x2="25.01" y2="235.4" gradientUnits="userSpaceOnUse"><stop offset="0" stop-color="#7580bb"/><stop offset="0.01" stop-color="#dee3fc"/><stop offset="0.02" stop-color="#8795d9"/><stop offset="0.98" stop-color="#8795d9"/><stop offset="1" stop-color="#7580bb"/></linearGradient><linearGradient id="未命名的渐变_40-2" x1="-1450.76" y1="235.4" x2="-1438.99" y2="235.4" gradientTransform="matrix(-1, 0, 0, 1, -1208, 0)" xlink:href="#未命名的渐变_40"/></defs><title>除雾塔</title><g id="图层_2" data-name="图层 2"><g id="废气处理"><g id="除雾塔"><rect class="cls-1" x="13.24" width="229.52" height="229.52"/><rect class="cls-2" x="79.59" y="24.45" width="72.87" height="168.85"/><rect class="cls-3" x="156.26" y="24.45" width="72.87" height="168.85"/><rect class="cls-4" x="13.24" y="223.8" width="229.52" height="5.71"/><rect class="cls-5" y="70.62" width="13.24" height="76.51"/><rect class="cls-6" x="242.76" y="70.62" width="13.24" height="76.51" transform="translate(498.76 217.75) rotate(-180)"/><polygon class="cls-7" points="21.09 241.29 13.24 241.29 13.24 229.52 25.01 229.52 21.09 241.29"/><polygon class="cls-8" points="234.91 241.29 242.76 241.29 242.76 229.52 230.99 229.52 234.91 241.29"/>
</g></g></g></svg>