<svg xmlns="http://www.w3.org/2000/svg" xmlns:xlink="http://www.w3.org/1999/xlink" viewBox="0 0 256 157.82"><defs><style>.cls-1{isolation:isolate;}.cls-2{fill:url(#未命名的渐变_4797);}.cls-3{fill:url(#未命名的渐变_4287);}.cls-4{fill:url(#未命名的渐变_4797-2);}.cls-5{fill:url(#未命名的渐变_4287-2);}.cls-6{fill:url(#未命名的渐变_5848);}.cls-7{fill:url(#未命名的渐变_5848-2);}.cls-8{fill:url(#未命名的渐变_5848-3);}.cls-20,.cls-9{fill:none;stroke-miterlimit:10;}.cls-9{stroke-width:3px;stroke:url(#未命名的渐变_5864);}.cls-10{fill:#1a1a33;}.cls-11{fill:url(#未命名的渐变_5872);}.cls-12{fill:url(#未命名的渐变_5872-2);}.cls-13{fill:url(#未命名的渐变_5872-3);}.cls-14{fill:url(#未命名的渐变_5872-4);}.cls-15{fill:url(#未命名的渐变_5872-5);}.cls-16{fill:url(#未命名的渐变_5872-6);}.cls-17{fill:url(#未命名的渐变_4795);}.cls-18{fill:url(#未命名的渐变_5876);}.cls-19{mix-blend-mode:overlay;}.cls-20{stroke:#090919;}.cls-21{opacity:0.2;}.cls-22{fill:#fff;}</style><linearGradient id="未命名的渐变_4797" x1="-57.41" y1="169.58" x2="-57.41" y2="112.44" gradientTransform="translate(245.74 -108.34)" gradientUnits="userSpaceOnUse"><stop offset="0" stop-color="#8795dc"/><stop offset="0.1" stop-color="#7580c0"/><stop offset="0.75" stop-color="#fff"/><stop offset="0.85" stop-color="#fff"/><stop offset="1" stop-color="#9dadff"/></linearGradient><linearGradient id="未命名的渐变_4287" x1="398.38" y1="-773.28" x2="463.71" y2="-773.28" gradientTransform="translate(-178.42 805.95)" gradientUnits="userSpaceOnUse"><stop offset="0" stop-color="#9dadff"/><stop offset="0.15" stop-color="#fff"/><stop offset="0.25" stop-color="#fff"/><stop offset="0.9" stop-color="#7580c0"/><stop offset="1" stop-color="#8795dc"/></linearGradient><linearGradient id="未命名的渐变_4797-2" x1="2331.15" y1="262.05" x2="2331.15" y2="204.92" gradientTransform="matrix(1, 0, 0, -1, -2263.48, 358.63)" xlink:href="#未命名的渐变_4797"/><linearGradient id="未命名的渐变_4287-2" x1="490.85" y1="-3161.85" x2="556.19" y2="-3161.85" gradientTransform="matrix(1, 0, 0, -1, -520.15, -3036.7)" xlink:href="#未命名的渐变_4287"/><linearGradient id="未命名的渐变_5848" x1="-140" y1="-478.03" x2="9.46" y2="-478.03" gradientTransform="matrix(0, -1, -1, 0, -349.28, 13.56)" gradientUnits="userSpaceOnUse"><stop offset="0" stop-color="#dbe1ff"/><stop offset="1" stop-color="#b2bded"/></linearGradient><linearGradient id="未命名的渐变_5848-2" x1="1.91" y1="-478.03" x2="-132.46" y2="-478.03" xlink:href="#未命名的渐变_5848"/><linearGradient id="未命名的渐变_5848-3" x1="-128.66" y1="-478.03" x2="-1.88" y2="-478.03" xlink:href="#未命名的渐变_5848"/><linearGradient id="未命名的渐变_5864" x1="127.56" y1="28.82" x2="127.56" y2="126.65" gradientUnits="userSpaceOnUse"><stop offset="0" stop-color="#dae0ff"/><stop offset="1" stop-color="#b4bdee"/></linearGradient><linearGradient id="未命名的渐变_5872" x1="120.74" y1="55.66" x2="134.56" y2="55.66" gradientUnits="userSpaceOnUse"><stop offset="0" stop-color="#969eeb"/><stop offset="1" stop-color="#060fbc"/></linearGradient><linearGradient id="未命名的渐变_5872-2" x1="456.4" y1="-1117.71" x2="470.21" y2="-1117.71" gradientTransform="matrix(0.5, -0.87, 0.87, 0.5, 844.85, 1026.79)" xlink:href="#未命名的渐变_5872"/><linearGradient id="未命名的渐变_5872-3" x1="2153.09" y1="637.04" x2="2166.91" y2="637.04" gradientTransform="matrix(-0.5, 0.87, -0.87, -0.5, 1778.44, -1463.3)" xlink:href="#未命名的渐变_5872"/><linearGradient id="未命名的渐变_5872-4" x1="1640.4" y1="-1413.71" x2="1654.21" y2="-1413.71" gradientTransform="translate(2156.49 808.52) rotate(-120)" xlink:href="#未命名的渐变_5872"/><linearGradient id="未命名的渐变_5872-5" x1="969.08" y1="933.04" x2="982.89" y2="933.04" gradientTransform="matrix(0.5, 0.87, -0.87, 0.5, 466.81, -1245.04)" xlink:href="#未命名的渐变_5872"/><linearGradient id="未命名的渐变_5872-6" x1="2488.76" y1="-536.34" x2="2502.57" y2="-536.34" gradientTransform="translate(2623.28 -436.53) rotate(180)" xlink:href="#未命名的渐变_5872"/><linearGradient id="未命名的渐变_4795" x1="127.57" y1="123.91" x2="127.57" y2="31.56" gradientUnits="userSpaceOnUse"><stop offset="0" stop-color="#8795dc"/><stop offset="1" stop-color="#4d5897"/></linearGradient><linearGradient id="未命名的渐变_5876" x1="127.56" y1="89.32" x2="127.56" y2="66.16" gradientUnits="userSpaceOnUse"><stop offset="0" stop-color="#060fbc"/><stop offset="1" stop-color="#525bd5"/></linearGradient></defs><title>风机</title><g class="cls-1"><g id="图层_2" data-name="图层 2"><g id="废气处理"><g id="风机"><rect class="cls-2" x="127.56" y="4.1" width="121.54" height="57.14"/><rect class="cls-3" x="219.96" y="29.3" width="65.34" height="6.74" transform="translate(285.3 -219.96) rotate(90)"/><rect class="cls-4" x="6.9" y="96.58" width="121.54" height="57.14" transform="translate(135.34 250.29) rotate(-180)"/><rect class="cls-5" x="-29.3" y="121.77" width="65.34" height="6.74" transform="translate(128.52 121.77) rotate(90)"/><circle class="cls-6" cx="128.75" cy="78.83" r="74.73"/><circle class="cls-7" cx="128.75" cy="78.83" r="67.18"/><circle class="cls-8" cx="128.75" cy="78.83" r="63.39"/><circle class="cls-9" cx="127.56" cy="77.73" r="47.41"/><circle class="cls-10" cx="127.56" cy="77.74" r="36.51" transform="translate(22.59 184.03) rotate(-76.72)"/><polygon class="cls-11" points="123.6 77.73 131.41 77.73 134.56 46 124.88 33.59 120.74 33.59 123.6 77.73"/><polygon class="cls-12" points="125.63 81.23 129.53 74.47 103.62 55.89 88.03 58.05 85.96 61.64 125.63 81.23"/><polygon class="cls-13" points="129.67 74.23 125.76 81 151.67 99.58 167.26 97.41 169.33 93.83 129.67 74.23"/><polygon class="cls-14" points="129.67 81.23 125.76 74.47 96.71 87.62 90.8 102.2 92.87 105.79 129.67 81.23"/><polygon class="cls-15" points="125.63 74.23 129.53 81 158.58 67.85 164.5 53.27 162.43 49.68 125.63 74.23"/><polygon class="cls-16" points="131.69 77.73 123.88 77.73 120.74 109.47 130.41 121.88 134.56 121.88 131.69 77.73"/><path class="cls-17" d="M127.56,31.56a46.18,46.18,0,1,0,46.18,46.18A46.18,46.18,0,0,0,127.56,31.56Zm0,82.69a36.51,36.51,0,1,1,36.51-36.51A36.52,36.52,0,0,1,127.56,114.25Z"/><path class="cls-18" d="M127.56,89.32a11.58,11.58,0,1,1,11.58-11.58A11.59,11.59,0,0,1,127.56,89.32Z"/><g class="cls-19"><path class="cls-20" d="M127.56,82.49a4.75,4.75,0,1,1,4.75-4.75A4.75,4.75,0,0,1,127.56,82.49Z"/></g>
</g></g></g></g></svg>