<svg xmlns="http://www.w3.org/2000/svg" viewBox="0 0 150 150"><defs><style>.cls-1{fill:#7ae6f6;}.cls-2{fill:#02147a;}.cls-3{fill:#000f70;}.cls-4{fill:#17469c;}.cls-5{fill:#000d6b;}.cls-6{fill:#000c66;}.cls-7{fill:#e3645a;}.cls-8{fill:#81f678;}.cls-9{fill:#010b5d;}.cls-10{fill:#010857;}</style></defs><title>图层 6</title><g id="图层_2" data-name="图层 2"><g id="图层_5" data-name="图层 5"><g id="图层_6" data-name="图层 6"><g id="中转站"><path class="cls-1" d="M24.8,130.8l-6.72-7a94.74,94.74,0,0,1-10.9-16.49C3.93,99.53,1.3,91.62.43,83.2A74.52,74.52,0,0,1,11.25,35.57c.33-.54.65-1.09,1-1.64a109.62,109.62,0,0,1,12.94-15l7.66-6.14a113.93,113.93,0,0,1,18.2-9c.77-.2,1.55-.38,2.31-.61A75.24,75.24,0,0,1,84.2.56a80.37,80.37,0,0,1,22.49,6.38,96.56,96.56,0,0,1,16.74,10.83l6.93,6.63a121.58,121.58,0,0,1,11.41,16.18c.27.65.53,1.31.83,2A77.48,77.48,0,0,1,150,75.63a83.22,83.22,0,0,1-3.8,23,78.32,78.32,0,0,1-8.74,17.72,2.54,2.54,0,0,0-.21.91c-2.4,2.16-4.05,4.93-6.1,7.38a103.41,103.41,0,0,1-14.4,12.69c-7.84,4.87-16.08,8.83-25.16,10.79a74.48,74.48,0,0,1-47.51-4.85l-2.6-1.21C35.41,139.08,30.06,135,24.8,130.8ZM74.88,3.21A72,72,0,0,0,3.29,75.7c.27,39.25,33,71.4,72.27,71,39.65-.35,71.45-33,71.1-72.93C146.33,35.21,113.48,2.9,74.88,3.21Z"/><path class="cls-2" d="M74.88,3.21c38.6-.31,71.45,32,71.78,70.6.35,40-31.45,72.58-71.1,72.93-39.3.36-72-31.79-72.27-71A72,72,0,0,1,74.88,3.21ZM11.61,77.52c-1.66.65-1,2.07-.85,3.11a74.4,74.4,0,0,0,2.76,13.84,61.56,61.56,0,0,0,18.93,28.94,62.81,62.81,0,0,0,32.69,14.92c12.68,1.83,24.86.48,36.49-4.92a62.7,62.7,0,0,0,32.55-34,58.22,58.22,0,0,0,4.72-21.17c0-1.43-.25-2.39-1.93-2.22.23-1.27,1.21-2.34,1-3.73,1.89-.84.55-2.25.48-3.33a60.87,60.87,0,0,0-12.27-32.73A62.19,62.19,0,0,0,92.51,13,65,65,0,0,0,68.87,10.6,62.08,62.08,0,0,0,53,13.9,63.16,63.16,0,0,0,26.07,32.43c-10,11.62-15,25-15.69,40.25,0,1,.64,1.15,1.23,1.5ZM85.23,7.38c-1-.11-1.68-.27-1.8.66s.63.75,1.12.88l1.17.27c20.85,4,36.53,15.3,47.17,33.65.24.42.46.84.7,1.26a.72.72,0,0,0,1,.24.67.67,0,0,0,.38-1,20.33,20.33,0,0,0-1-1.91A69,69,0,0,0,97.62,10.67,65.77,65.77,0,0,0,85.23,7.38ZM16.79,108.1c-.22.13-.57.23-.73.46-.4.6.15,1.06.42,1.5,10.16,16.56,24.6,27.19,43.64,31.4.62.14,1.5.62,1.66-.59.14-1-.77-.82-1.31-1a77.09,77.09,0,0,1-12.3-3.9,66,66,0,0,1-30.24-26.69C17.66,108.86,17.54,108.25,16.79,108.1Z"/><path class="cls-3" d="M137.93,72.32c.25,1.39-.73,2.46-1,3.73-1,0-1.92.09-2.88,0-1.44-.09-1.92.49-2,2A55.65,55.65,0,0,1,122,108a58.29,58.29,0,0,1-59.32,23.6,55.68,55.68,0,0,1-32.93-20.4A59,59,0,0,1,17.94,84c-.32-1.89.1-4.13-.79-5.62-1.15-1.93-3.67-.41-5.54-.86V74.17c1.28,0,2.56-.06,3.84,0,1.46.08,2-.51,1.94-2a29,29,0,0,1,.46-6.44A55.94,55.94,0,0,1,37.09,31.33a57.09,57.09,0,0,1,39.76-14A54.86,54.86,0,0,1,113.17,32c10.28,9.26,16.22,21,18.44,34.68.29,1.78-.7,4,.92,5.23C134,73,136.12,72.06,137.93,72.32Zm-63.5-51c-29.78.93-52.29,23.27-53,52.11-.82,31.71,23.76,54.77,52.91,54.89,30.76.12,54-23.39,53.84-53.71C128,44.7,105,21.92,74.43,21.3Z"/><path class="cls-4" d="M137.93,72.32c-1.81-.26-3.94.64-5.4-.44-1.62-1.19-.63-3.45-.92-5.23C129.39,53,123.45,41.23,113.17,32A54.86,54.86,0,0,0,76.85,17.36a57.09,57.09,0,0,0-39.76,14A55.94,55.94,0,0,0,17.85,65.79a29,29,0,0,0-.46,6.44c.09,1.45-.48,2-1.94,2-1.28-.08-2.56,0-3.84,0-.59-.34-1.27-.45-1.23-1.49.69-15.2,5.71-28.63,15.69-40.25A63.16,63.16,0,0,1,53,13.9a62.08,62.08,0,0,1,15.88-3.3A65,65,0,0,1,92.51,13a62.19,62.19,0,0,1,33.63,23.31A60.87,60.87,0,0,1,138.41,69C138.48,70.07,139.82,71.48,137.93,72.32Z"/><path class="cls-4" d="M11.61,77.52c1.87.45,4.39-1.07,5.54.86.89,1.49.47,3.73.79,5.62a59,59,0,0,0,11.79,27.21,55.68,55.68,0,0,0,32.93,20.4A58.29,58.29,0,0,0,122,108a55.65,55.65,0,0,0,10.13-30c.06-1.46.54-2,2-2,1,.07,1.92,0,2.88,0,1.68-.17,2,.79,1.93,2.22a58.22,58.22,0,0,1-4.72,21.17,62.7,62.7,0,0,1-32.55,34c-11.63,5.4-23.81,6.75-36.49,4.92a62.81,62.81,0,0,1-32.69-14.92A61.56,61.56,0,0,1,13.52,94.47a74.4,74.4,0,0,1-2.76-13.84C10.64,79.59,10,78.17,11.61,77.52Z"/><path class="cls-1" d="M85.23,7.38a65.77,65.77,0,0,1,12.39,3.29A69,69,0,0,1,134,41.45a20.33,20.33,0,0,1,1,1.91.67.67,0,0,1-.38,1,.72.72,0,0,1-1-.24c-.24-.42-.46-.84-.7-1.26C122.25,24.49,106.57,13.22,85.72,9.19l-1.17-.27c-.49-.13-1.24,0-1.12-.88S84.27,7.27,85.23,7.38Z"/><path class="cls-1" d="M16.79,108.1c.75.15.87.76,1.14,1.22A66,66,0,0,0,48.17,136a77.09,77.09,0,0,0,12.3,3.9c.54.14,1.45-.07,1.31,1-.16,1.21-1,.73-1.66.59-19-4.21-33.48-14.84-43.64-31.4-.27-.44-.82-.9-.42-1.5C16.22,108.33,16.57,108.23,16.79,108.1Z"/><path class="cls-5" d="M74.43,21.3C105,21.92,128,44.7,128.14,74.59c.17,30.32-23.08,53.83-53.84,53.71-29.15-.12-53.73-23.18-52.91-54.89C22.14,44.57,44.65,22.23,74.43,21.3Zm46.7,53.6A46.26,46.26,0,0,0,77.07,28.43C49.7,27,28.8,49.71,28.35,73.27A46.71,46.71,0,0,0,72.4,121.32C100.05,122.75,121.58,100.05,121.13,74.9Z"/><path class="cls-6" d="M121.13,74.9c.45,25.15-21.08,47.85-48.73,46.42a46.71,46.71,0,0,1-44.05-48C28.8,49.71,49.7,27,77.07,28.43A46.26,46.26,0,0,1,121.13,74.9ZM103.42,97.26c.17.57-.38,1.22.29,1.87a34.49,34.49,0,0,0,8.51-28.9c-2.58-17.29-15.28-32.29-36.56-32.09-1.63,0-2-.67-2.11-2.11-.11-1.79-.43-3.56-.66-5.37-1,.06-1.42.87-2,1.39q-5.46,5.4-10.85,10.86c-.88.9-2,1.58-2.43,2.9-2.85,0-4.55,2-6.42,3.74s-3.32,4.05-5.66,5.36l.55-4.3c-5.4,5.21-8.77,13.52-9.25,22.32-1,17.83,12,38.46,34.45,39.18,4.66.15,4.66.23,4.8,4.9a1.53,1.53,0,0,1,0,.48,1.39,1.39,0,0,0,.55,1.86c.64.26,1-.61,1.46-1q6.34-6.21,12.64-12.45a4.44,4.44,0,0,0,2.89-.91,33.81,33.81,0,0,0,7.13-5.83C101.5,98.33,102.14,97.31,103.42,97.26Z"/><path class="cls-7" d="M90.77,105.86q-6.31,6.23-12.64,12.45c-.43.43-.82,1.3-1.46,1a1.39,1.39,0,0,1-.55-1.86,1.53,1.53,0,0,0,0-.48c-.14-4.67-.14-4.75-4.8-4.9-22.42-.72-35.44-21.35-34.45-39.18.48-8.8,3.85-17.11,9.25-22.32-.21,1.59-.38,2.94-.55,4.3a50.43,50.43,0,0,0-.29,18.81A28,28,0,0,0,51,87.26c5.52,8.08,13.76,10.68,22.94,11.42,1.09.08,1.1-.6,1.1-1.38,0-2,0-3.94,0-6.34l10,7.89c1.88,1.59,3.73,3.24,5.68,4.75C91.78,104.43,91.52,105.08,90.77,105.86Z"/><path class="cls-8" d="M57.66,45.81c.39-1.32,1.55-2,2.43-2.9q5.38-5.47,10.85-10.86c.53-.52.9-1.33,2-1.39.23,1.81.55,3.58.66,5.37.08,1.44.48,2.13,2.11,2.11,21.28-.2,34,14.8,36.56,32.09a34.49,34.49,0,0,1-8.51,28.9c-.67-.65-.12-1.3-.29-1.87a50.55,50.55,0,0,0,.94-19.41c-.77-6-2.7-11.58-6.74-16.26-5.57-7.22-13.37-9.6-22-10.24-1.35-.1-1.08.79-1.13,1.54-.13,1.92.26,3.87-.31,6-3.5-2.74-6.63-5.55-10.16-7.82A25.76,25.76,0,0,0,57.66,45.81Z"/><path class="cls-9" d="M97.62,61.59c4,4.68,6,10.23,6.74,16.26a50.55,50.55,0,0,1-.94,19.41c-1.28,0-1.92,1.07-2.63,1.86A33.81,33.81,0,0,1,93.66,105a4.44,4.44,0,0,1-2.89.91c.75-.78,1-1.43-.06-2.26-1.95-1.51-3.8-3.16-5.68-4.75.31-.82,1.07-1.12,1.77-1.51A24.56,24.56,0,0,0,94.44,91c5.21-6.76,7.41-14.09,4.92-22.55C98.69,66.23,97.54,64.05,97.62,61.59Z"/><path class="cls-9" d="M57.66,45.81A25.76,25.76,0,0,1,64,51.08,66.3,66.3,0,0,0,58.29,55c-8,6.94-10.64,15.55-8.79,25.8C49.9,83,51,85,51,87.26a28,28,0,0,1-5.67-13.54,50.43,50.43,0,0,1,.29-18.81c2.34-1.31,3.76-3.59,5.66-5.36S54.81,45.84,57.66,45.81Z"/><path class="cls-10" d="M51,87.26C51,85,49.9,83,49.5,80.76c-1.85-10.25.82-18.86,8.79-25.8A66.3,66.3,0,0,1,64,51.08c3.53,2.27,6.66,5.08,10.16,7.82.57-2.14.18-4.09.31-6,.05-.75-.22-1.64,1.13-1.54,8.63.64,16.43,3,22,10.24-.08,2.46,1.07,4.64,1.74,6.9,2.49,8.46.29,15.79-4.92,22.55a24.56,24.56,0,0,1-7.64,6.3c-.7.39-1.46.69-1.77,1.51L75,91c0,2.4,0,4.37,0,6.34,0,.78,0,1.46-1.1,1.38C64.72,97.94,56.48,95.34,51,87.26Z"/>
</g></g></g></g></svg>