<svg xmlns="http://www.w3.org/2000/svg" viewBox="0 0 150 150"><defs><style>.cls-1{fill:#7ae6f6;}.cls-2{fill:#02147a;}.cls-3{fill:#000f70;}.cls-4{fill:#7eeffc;}.cls-5{fill:#000d6b;}</style></defs><title>大站点</title><g id="图层_2" data-name="图层 2"><g id="图层_5" data-name="图层 5"><g id="大站点"><path class="cls-1" d="M24.8,130.8l-6.72-7a94.74,94.74,0,0,1-10.9-16.49C3.93,99.53,1.3,91.62.43,83.2A74.52,74.52,0,0,1,11.25,35.57c.33-.54.65-1.09,1-1.64a109.62,109.62,0,0,1,12.94-15l7.66-6.14a113.93,113.93,0,0,1,18.2-9c.77-.2,1.55-.38,2.31-.61A75.24,75.24,0,0,1,84.2.56a80.37,80.37,0,0,1,22.49,6.38,96.56,96.56,0,0,1,16.74,10.83l6.93,6.63a121.58,121.58,0,0,1,11.41,16.18c.27.65.53,1.31.83,2A77.48,77.48,0,0,1,150,75.63a83.22,83.22,0,0,1-3.8,23,78.32,78.32,0,0,1-8.74,17.72,2.54,2.54,0,0,0-.21.91c-2.4,2.16-4.05,4.93-6.1,7.38a103.41,103.41,0,0,1-14.4,12.69c-7.84,4.87-16.08,8.83-25.16,10.79a74.48,74.48,0,0,1-47.51-4.85l-2.6-1.21C35.41,139.08,30.06,135,24.8,130.8ZM74.88,3.21A72,72,0,0,0,3.29,75.7c.27,39.25,33,71.4,72.27,71,39.65-.35,71.45-33,71.1-72.93C146.33,35.21,113.48,2.9,74.88,3.21Z"/><path class="cls-2" d="M74.88,3.21c38.6-.31,71.45,32,71.78,70.6.35,40-31.45,72.58-71.1,72.93-39.3.36-72-31.79-72.27-71A72,72,0,0,1,74.88,3.21ZM11.61,77.52c-1.66.65-1,2.07-.85,3.11a74.4,74.4,0,0,0,2.76,13.84,61.56,61.56,0,0,0,18.93,28.94,62.81,62.81,0,0,0,32.69,14.92c12.68,1.83,24.86.48,36.49-4.92a62.7,62.7,0,0,0,32.55-34,58.22,58.22,0,0,0,4.72-21.17c0-1.43-.25-2.39-1.93-2.22.23-1.27,1.21-2.34,1-3.73,1.89-.84.55-2.25.48-3.33a60.87,60.87,0,0,0-12.27-32.73A62.19,62.19,0,0,0,92.51,13,65,65,0,0,0,68.87,10.6,62.08,62.08,0,0,0,53,13.9,63.16,63.16,0,0,0,26.07,32.43c-10,11.62-15,25-15.69,40.25,0,1,.64,1.15,1.23,1.5ZM85.23,7.38c-1-.11-1.68-.27-1.8.66s.63.75,1.12.88l1.17.27c20.85,4,36.53,15.3,47.17,33.65.24.42.46.84.7,1.26a.72.72,0,0,0,1,.24.67.67,0,0,0,.38-1,20.33,20.33,0,0,0-1-1.91A69,69,0,0,0,97.62,10.67,65.77,65.77,0,0,0,85.23,7.38ZM16.79,108.1c-.22.13-.57.23-.73.46-.4.6.15,1.06.42,1.5,10.16,16.56,24.6,27.19,43.64,31.4.62.14,1.5.62,1.66-.59.14-1-.77-.82-1.31-1a77.09,77.09,0,0,1-12.3-3.9,66,66,0,0,1-30.24-26.69C17.66,108.86,17.54,108.25,16.79,108.1Z"/><path class="cls-3" d="M137.93,72.32c.25,1.39-.73,2.46-1,3.73-1,0-1.92.09-2.88,0-1.44-.09-1.92.49-2,2A55.65,55.65,0,0,1,122,108a58.29,58.29,0,0,1-59.32,23.6,55.68,55.68,0,0,1-32.93-20.4A59,59,0,0,1,17.94,84c-.32-1.89.1-4.13-.79-5.62-1.15-1.93-3.67-.41-5.54-.86V74.17c1.28,0,2.56-.06,3.84,0,1.46.08,2-.51,1.94-2a29,29,0,0,1,.46-6.44A55.94,55.94,0,0,1,37.09,31.33a57.09,57.09,0,0,1,39.76-14A54.86,54.86,0,0,1,113.17,32c10.28,9.26,16.22,21,18.44,34.68.29,1.78-.7,4,.92,5.23C134,73,136.12,72.06,137.93,72.32Zm-63.5-51c-29.78.93-52.29,23.27-53,52.11-.82,31.71,23.76,54.77,52.91,54.89,30.76.12,54-23.39,53.84-53.71C128,44.7,105,21.92,74.43,21.3Z"/><path class="cls-4" d="M137.93,72.32c-1.81-.26-3.94.64-5.4-.44-1.62-1.19-.63-3.45-.92-5.23C129.39,53,123.45,41.23,113.17,32A54.86,54.86,0,0,0,76.85,17.36a57.09,57.09,0,0,0-39.76,14A55.94,55.94,0,0,0,17.85,65.79a29,29,0,0,0-.46,6.44c.09,1.45-.48,2-1.94,2-1.28-.08-2.56,0-3.84,0-.59-.34-1.27-.45-1.23-1.49.69-15.2,5.71-28.63,15.69-40.25A63.16,63.16,0,0,1,53,13.9a62.08,62.08,0,0,1,15.88-3.3A65,65,0,0,1,92.51,13a62.19,62.19,0,0,1,33.63,23.31A60.87,60.87,0,0,1,138.41,69C138.48,70.07,139.82,71.48,137.93,72.32Z"/><path class="cls-4" d="M11.61,77.52c1.87.45,4.39-1.07,5.54.86.89,1.49.47,3.73.79,5.62a59,59,0,0,0,11.79,27.21,55.68,55.68,0,0,0,32.93,20.4A58.29,58.29,0,0,0,122,108a55.65,55.65,0,0,0,10.13-30c.06-1.46.54-2,2-2,1,.07,1.92,0,2.88,0,1.68-.17,2,.79,1.93,2.22a58.22,58.22,0,0,1-4.72,21.17,62.7,62.7,0,0,1-32.55,34c-11.63,5.4-23.81,6.75-36.49,4.92a62.81,62.81,0,0,1-32.69-14.92A61.56,61.56,0,0,1,13.52,94.47a74.4,74.4,0,0,1-2.76-13.84C10.64,79.59,10,78.17,11.61,77.52Z"/><path class="cls-1" d="M85.23,7.38a65.77,65.77,0,0,1,12.39,3.29A69,69,0,0,1,134,41.45a20.33,20.33,0,0,1,1,1.91.67.67,0,0,1-.38,1,.72.72,0,0,1-1-.24c-.24-.42-.46-.84-.7-1.26C122.25,24.49,106.57,13.22,85.72,9.19l-1.17-.27c-.49-.13-1.24,0-1.12-.88S84.27,7.27,85.23,7.38Z"/><path class="cls-1" d="M16.79,108.1c.75.15.87.76,1.14,1.22A66,66,0,0,0,48.17,136a77.09,77.09,0,0,0,12.3,3.9c.54.14,1.45-.07,1.31,1-.16,1.21-1,.73-1.66.59-19-4.21-33.48-14.84-43.64-31.4-.27-.44-.82-.9-.42-1.5C16.22,108.33,16.57,108.23,16.79,108.1Z"/><path class="cls-5" d="M74.43,21.3C105,21.92,128,44.7,128.14,74.59c.17,30.32-23.08,53.83-53.84,53.71-29.15-.12-53.73-23.18-52.91-54.89C22.14,44.57,44.65,22.23,74.43,21.3Zm46.7,53.6A46.26,46.26,0,0,0,77.07,28.43C49.7,27,28.8,49.71,28.35,73.27A46.71,46.71,0,0,0,72.4,121.32C100.05,122.75,121.58,100.05,121.13,74.9Z"/><circle class="cls-4" cx="75" cy="75" r="47.67"/>
</g></g></g></svg>