<svg xmlns="http://www.w3.org/2000/svg" viewBox="0 0 132.48 150"><defs><style>.cls-1{fill:#eb392c;}</style></defs><title>火车站</title><g id="图层_2" data-name="图层 2"><g id="图层_5" data-name="图层 5"><g id="火车站"><path class="cls-1" d="M103.21,131.47a4.51,4.51,0,0,1-2.71-8.13A57.21,57.21,0,1,0,9,77.51,56.82,56.82,0,0,0,32,123.34a4.52,4.52,0,0,1-5.42,7.23A66.25,66.25,0,1,1,132.48,77.51a65.78,65.78,0,0,1-26.56,53.06A4.5,4.5,0,0,1,103.21,131.47Z"/><path class="cls-1" d="M55.61,10.63a10.63,10.63,0,0,1,21.26,0c0,5.87-4.76,8-10.63,8S55.61,16.5,55.61,10.63Z"/><path class="cls-1" d="M109.14,150H23.33a4.52,4.52,0,1,1,0-9h85.81a4.52,4.52,0,1,1,0,9Z"/><path class="cls-1" d="M93.62,90.81H38.85a4.52,4.52,0,0,1,0-9H93.62a4.52,4.52,0,0,1,0,9Z"/><path class="cls-1" d="M66.24,146.89a4.51,4.51,0,0,1-4.52-4.51V89.08a4.52,4.52,0,1,1,9,0v53.3A4.51,4.51,0,0,1,66.24,146.89Z"/>
</g></g></g></svg>