<svg xmlns="http://www.w3.org/2000/svg" xmlns:xlink="http://www.w3.org/1999/xlink" viewBox="0 0 77.05 149.74">
    <defs>
        <style>
            .cls-1 {
                fill: url(#未命名的渐变_143);
            }

            .cls-2 {
                fill: #b0b0b1;
            }

            .cls-3 {
                fill: url(#未命名的渐变_19);
            }

            .cls-4 {
                fill: #f9f9f9;
            }

            .cls-5 {
                fill: #cecece;
            }

            .cls-6 {
                fill: #75757f;
            }

            .cls-7 {
                opacity: 0.2;
            }
        </style>
        <linearGradient id="未命名的渐变_143" x1="9.87" y1="11.37" x2="68.13" y2="11.37" gradientUnits="userSpaceOnUse">
            <stop offset="0" stop-color="#b7b7b7" />
            <stop offset="0.03" stop-color="#9b9d9d" />
            <stop offset="0.07" stop-color="#878b8b" />
            <stop offset="0.09" stop-color="#808484" />
            <stop offset="0.2" stop-color="#a3a6a6" />
            <stop offset="0.49" stop-color="#f6f6f6" />
            <stop offset="0.61" stop-color="#f3f3f3" />
            <stop offset="0.7" stop-color="#eaeaea" />
            <stop offset="0.77" stop-color="#dbdbdb" />
            <stop offset="0.83" stop-color="#c5c5c5" />
            <stop offset="0.9" stop-color="#aaa" />
            <stop offset="0.95" stop-color="#888" />
            <stop offset="1" stop-color="#666" />
        </linearGradient>
        <linearGradient id="未命名的渐变_19" y1="88.25" x2="77.05" y2="88.25" gradientUnits="userSpaceOnUse">
            <stop offset="0" stop-color="#8c8c8c" />
            <stop offset="0.01" stop-color="#969696" />
            <stop offset="0.04" stop-color="#acacac" />
            <stop offset="0.08" stop-color="#bdbdbd" />
            <stop offset="0.13" stop-color="#c8c8c8" />
            <stop offset="0.19" stop-color="#cfcfcf" />
            <stop offset="0.37" stop-color="#d1d1d1" />
            <stop offset="0.72" stop-color="#d3d3d3" />
            <stop offset="0.84" stop-color="#dadada" />
            <stop offset="0.93" stop-color="#e5e5e5" />
            <stop offset="1" stop-color="#f6f6f6" />
            <stop offset="1" stop-color="#f7f7f7" />
        </linearGradient>
    </defs>
    <title>Chiller（冷却器） (2)</title>
    <g id="图层_2" data-name="图层 2">
        <g id="图层_23" data-name="图层 23">
            <g id="Chiller_冷却器_" data-name="Chiller（冷却器）">
                <path class="cls-1"
                    d="M11,0H67a1.13,1.13,0,0,1,1.13,1.13V22.75a0,0,0,0,1,0,0H9.87a0,0,0,0,1,0,0V1.13A1.13,1.13,0,0,1,11,0Z" />
                <path class="cls-2"
                    d="M1.13,22.75H75.92a1.13,1.13,0,0,1,1.13,1.13v2.88a0,0,0,0,1,0,0H0a0,0,0,0,1,0,0V23.88A1.13,1.13,0,0,1,1.13,22.75Z" />
                <rect class="cls-3" y="26.76" width="77.05" height="122.98" />
                <rect class="cls-4" x="5.05" y="31.18" width="65.83" height="70.2" rx="1.21" />
                <rect class="cls-5" x="27.25" y="42.73" width="20.68" height="8.58" />
                <path class="cls-5" d="M26.18,31.11H9.11A4.29,4.29,0,0,0,4.82,35.4v6.25H26.18Z" />
                <rect class="cls-5" x="27.25" y="52.38" width="20.68" height="8.58" />
                <rect class="cls-5" x="4.82" y="42.73" width="21.36" height="8.58" />
                <rect class="cls-5" x="4.82" y="52.38" width="21.36" height="8.58" />
                <rect class="cls-5" x="27.25" y="62.03" width="20.68" height="8.58" />
                <rect class="cls-5" x="27.25" y="71.68" width="20.68" height="8.58" />
                <rect class="cls-5" x="4.82" y="62.03" width="21.36" height="8.58" />
                <rect class="cls-5" x="27.25" y="31.11" width="20.68" height="10.55" />
                <rect class="cls-5" x="27.25" y="81.34" width="20.68" height="8.58" />
                <path class="cls-5" d="M4.82,91v6a4.29,4.29,0,0,0,4.29,4.29H26.18V91Z" />
                <rect class="cls-5" x="49" y="81.34" width="21.65" height="8.58" />
                <rect class="cls-5" x="49" y="71.68" width="21.65" height="8.58" />
                <rect class="cls-5" x="49" y="62.03" width="21.65" height="8.58" />
                <rect class="cls-5" x="49" y="52.38" width="21.65" height="8.58" />
                <rect class="cls-5" x="4.82" y="71.68" width="21.36" height="8.58" />
                <rect class="cls-5" x="49" y="42.73" width="21.65" height="8.58" />
                <path class="cls-5" d="M66.36,31.11H49V41.65H70.65V35.4A4.29,4.29,0,0,0,66.36,31.11Z" />
                <path class="cls-5" d="M49,101.31H66.36A4.29,4.29,0,0,0,70.65,97V91H49Z" />
                <rect class="cls-5" x="4.82" y="81.34" width="21.36" height="8.58" />
                <rect class="cls-5" x="27.25" y="90.99" width="20.68" height="10.32" />
                <rect class="cls-6" x="8.3" y="35.19" width="16.55" height="5.81" rx="0.8" />
                <rect class="cls-6" x="29.24" y="35.19" width="16.55" height="5.65" rx="0.8" />
                <rect class="cls-6" x="50.62" y="35.19" width="16.55" height="5.65" rx="0.8" />
                <rect class="cls-6" x="8.3" y="44.71" width="16.55" height="5.81" rx="0.8" />
                <rect class="cls-6" x="29.24" y="44.71" width="16.55" height="5.65" rx="0.8" />
                <rect class="cls-6" x="50.62" y="44.71" width="16.55" height="5.65" rx="0.8" />
                <rect class="cls-6" x="8.3" y="54.24" width="16.55" height="5.81" rx="0.8" />
                <rect class="cls-6" x="29.24" y="54.24" width="16.55" height="5.65" rx="0.8" />
                <rect class="cls-6" x="50.62" y="54.24" width="16.55" height="5.65" rx="0.8" />
                <rect class="cls-6" x="8.3" y="63.76" width="16.55" height="5.81" rx="0.8" />
                <rect class="cls-6" x="29.24" y="63.76" width="16.55" height="5.65" rx="0.8" />
                <rect class="cls-6" x="50.62" y="63.76" width="16.55" height="5.65" rx="0.8" />
                <rect class="cls-6" x="8.3" y="73.29" width="16.55" height="5.81" rx="0.8" />
                <rect class="cls-6" x="29.24" y="73.29" width="16.55" height="5.65" rx="0.8" />
                <rect class="cls-6" x="50.62" y="73.29" width="16.55" height="5.65" rx="0.8" />
                <rect class="cls-6" x="8.3" y="82.81" width="16.55" height="5.81" rx="0.8" />
                <rect class="cls-6" x="29.24" y="82.81" width="16.55" height="5.65" rx="0.8" />
                <rect class="cls-6" x="50.62" y="82.81" width="16.55" height="5.65" rx="0.8" />
                <rect class="cls-6" x="8.3" y="92.34" width="16.55" height="5.81" rx="0.8" />
                <rect class="cls-6" x="29.24" y="92.34" width="16.55" height="5.65" rx="0.8" />
                <rect class="cls-6" x="50.62" y="92.34" width="16.55" height="5.65" rx="0.8" />
                
            </g>
        </g>
    </g>
</svg>