<svg xmlns="http://www.w3.org/2000/svg" xmlns:xlink="http://www.w3.org/1999/xlink" viewBox="0 0 75.5 150">
    <defs>
        <style>
            .cls-1 {
                fill: #cecece;
            }

            .cls-2 {
                fill: #b0b0b1;
            }

            .cls-3 {
                fill: #5b5b5b;
            }

            .cls-4,
            .cls-5 {
                fill: #e5e5e5;
            }

            .cls-4 {
                stroke: #9c9cb5;
                stroke-miterlimit: 10;
                stroke-width: 0.25px;
            }

            .cls-6 {
                fill: url(#未命名的渐变_143);
            }

            .cls-7 {
                fill: url(#未命名的渐变_143-2);
            }

            .cls-8 {
                fill: url(#未命名的渐变_143-3);
            }

            .cls-9 {
                fill: url(#未命名的渐变_143-4);
            }

            .cls-10 {
                opacity: 0.2;
            }
        </style>
        <linearGradient id="未命名的渐变_143" x1="12.79" y1="16.78" x2="25.25" y2="16.78" gradientUnits="userSpaceOnUse">
            <stop offset="0" stop-color="#b7b7b7" />
            <stop offset="0.03" stop-color="#9b9d9d" />
            <stop offset="0.07" stop-color="#878b8b" />
            <stop offset="0.09" stop-color="#808484" />
            <stop offset="0.2" stop-color="#a3a6a6" />
            <stop offset="0.49" stop-color="#f6f6f6" />
            <stop offset="0.61" stop-color="#f3f3f3" />
            <stop offset="0.7" stop-color="#eaeaea" />
            <stop offset="0.77" stop-color="#dbdbdb" />
            <stop offset="0.83" stop-color="#c5c5c5" />
            <stop offset="0.9" stop-color="#aaa" />
            <stop offset="0.95" stop-color="#888" />
            <stop offset="1" stop-color="#666" />
        </linearGradient>
        <linearGradient id="未命名的渐变_143-2" x1="15.03" y1="4.94" x2="23.01" y2="4.94" xlink:href="#未命名的渐变_143" />
        <linearGradient id="未命名的渐变_143-3" x1="50.59" y1="16.78" x2="63.05" y2="16.78" xlink:href="#未命名的渐变_143" />
        <linearGradient id="未命名的渐变_143-4" x1="52.83" y1="4.94" x2="60.81" y2="4.94" xlink:href="#未命名的渐变_143" />
    </defs>
    <title>Chiller（冷却器） (3)</title>
    <g id="图层_2" data-name="图层 2">
        <g id="图层_23" data-name="图层 23">
            <g id="Chiller_冷却器_" data-name="Chiller（冷却器）">
                <rect class="cls-1" y="59.43" width="75.5" height="90.57" />
                <rect class="cls-2" y="23.34" width="75.5" height="36.09" />
                <rect class="cls-1" x="6.98" y="23.67" width="61.46" height="29.57" />
                <rect class="cls-3" x="14.08" y="30.27" width="47.09" height="15.7" />
                <rect class="cls-1" x="18.56" y="33.39" width="30.4" height="8.85" />
                <circle class="cls-4" cx="56.82" cy="49.81" r="2.32" />
                <circle class="cls-4" cx="49.07" cy="49.81" r="2.32" />
                <circle class="cls-4" cx="41.31" cy="49.81" r="2.32" />
                <rect class="cls-3" x="6.98" y="67.28" width="60.3" height="74" />
                <rect class="cls-1" x="18.56" y="33.39" width="30.4" height="8.85" />
                <path class="cls-5"
                    d="M7,67.28v74h60.3v-74Zm15.88,68.21H12.08a1.25,1.25,0,0,1,0-2.5H22.86a1.25,1.25,0,1,1,0,2.5Zm0-6.73H12.08a1.25,1.25,0,0,1,0-2.49H22.86a1.25,1.25,0,1,1,0,2.49Zm0-6.73H12.08a1.25,1.25,0,0,1,0-2.49H22.86a1.25,1.25,0,1,1,0,2.49Zm0-6.73H12.08a1.25,1.25,0,0,1,0-2.49H22.86a1.25,1.25,0,1,1,0,2.49Zm0-6.72H12.08a1.25,1.25,0,0,1,0-2.5H22.86a1.25,1.25,0,0,1,0,2.5Zm0-6.73H12.08a1.25,1.25,0,0,1,0-2.49H22.86a1.25,1.25,0,1,1,0,2.49Zm0-6.73H12.08a1.25,1.25,0,0,1,0-2.49H22.86a1.25,1.25,0,1,1,0,2.49Zm0-6.73H12.08a1.25,1.25,0,0,1,0-2.49H22.86a1.25,1.25,0,1,1,0,2.49Zm0-6.72H12.08a1.25,1.25,0,0,1,0-2.5H22.86a1.25,1.25,0,0,1,0,2.5Zm0-6.73H12.08a1.25,1.25,0,0,1,0-2.49H22.86a1.25,1.25,0,1,1,0,2.49ZM43,135.49H32.24a1.25,1.25,0,0,1,0-2.5H43a1.25,1.25,0,0,1,0,2.5Zm0-6.73H32.24a1.25,1.25,0,1,1,0-2.49H43a1.25,1.25,0,1,1,0,2.49ZM43,122H32.24a1.25,1.25,0,1,1,0-2.49H43A1.25,1.25,0,1,1,43,122Zm0-6.73H32.24a1.25,1.25,0,1,1,0-2.49H43a1.25,1.25,0,1,1,0,2.49Zm0-6.72H32.24a1.25,1.25,0,0,1,0-2.5H43a1.25,1.25,0,1,1,0,2.5Zm0-6.73H32.24a1.25,1.25,0,1,1,0-2.49H43a1.25,1.25,0,1,1,0,2.49Zm0-6.73H32.24a1.25,1.25,0,1,1,0-2.49H43a1.25,1.25,0,1,1,0,2.49Zm0-6.73H32.24a1.25,1.25,0,1,1,0-2.49H43a1.25,1.25,0,1,1,0,2.49Zm0-6.72H32.24a1.25,1.25,0,0,1,0-2.5H43a1.25,1.25,0,1,1,0,2.5Zm0-6.73H32.24a1.25,1.25,0,1,1,0-2.49H43a1.25,1.25,0,1,1,0,2.49Zm20.15,60.55H52.39a1.25,1.25,0,1,1,0-2.5H63.16a1.25,1.25,0,0,1,0,2.5Zm0-6.73H52.39a1.25,1.25,0,1,1,0-2.49H63.16a1.25,1.25,0,1,1,0,2.49Zm0-6.73H52.39a1.25,1.25,0,1,1,0-2.49H63.16a1.25,1.25,0,1,1,0,2.49Zm0-6.73H52.39a1.25,1.25,0,1,1,0-2.49H63.16a1.25,1.25,0,1,1,0,2.49Zm0-6.72H52.39a1.25,1.25,0,0,1,0-2.5H63.16a1.25,1.25,0,1,1,0,2.5Zm0-6.73H52.39a1.25,1.25,0,1,1,0-2.49H63.16a1.25,1.25,0,1,1,0,2.49Zm0-6.73H52.39a1.25,1.25,0,1,1,0-2.49H63.16a1.25,1.25,0,1,1,0,2.49Zm0-6.73H52.39a1.25,1.25,0,1,1,0-2.49H63.16a1.25,1.25,0,1,1,0,2.49Zm0-6.72H52.39a1.25,1.25,0,0,1,0-2.5H63.16a1.25,1.25,0,0,1,0,2.5Zm0-6.73H52.39a1.25,1.25,0,1,1,0-2.49H63.16a1.25,1.25,0,1,1,0,2.49Z" />
                <rect class="cls-6" x="12.79" y="9.88" width="12.46" height="13.79" />
                <rect class="cls-7" x="15.03" width="7.97" height="9.88" />
                <circle class="cls-3" cx="19.02" cy="4.98" r="2.53" />
                <rect class="cls-8" x="50.59" y="9.88" width="12.46" height="13.79" />
                <rect class="cls-9" x="52.83" width="7.97" height="9.88" />
                <circle class="cls-3" cx="56.82" cy="4.98" r="2.53" />
                
            </g>
        </g>
    </g>
</svg>