<svg xmlns="http://www.w3.org/2000/svg" xmlns:xlink="http://www.w3.org/1999/xlink" viewBox="0 0 150 117.82">
    <defs>
        <style>
            .cls-1 {
                fill: url(#未命名的渐变_143);
            }

            .cls-2 {
                fill: url(#未命名的渐变_143-2);
            }

            .cls-3 {
                fill: url(#未命名的渐变_143-3);
            }

            .cls-4 {
                fill: url(#未命名的渐变_143-4);
            }

            .cls-5 {
                fill: url(#未命名的渐变_143-5);
            }

            .cls-6 {
                fill: url(#未命名的渐变_143-6);
            }

            .cls-7 {
                fill: url(#未命名的渐变_143-7);
            }

            .cls-8 {
                fill: url(#未命名的渐变_143-8);
            }

            .cls-9 {
                fill: url(#未命名的渐变_143-9);
            }

            .cls-10 {
                fill: url(#未命名的渐变_143-10);
            }

            .cls-11 {
                fill: url(#未命名的渐变_143-11);
            }

            .cls-12 {
                fill: url(#未命名的渐变_143-12);
            }

            .cls-13 {
                fill: url(#未命名的渐变_79);
            }

            .cls-14 {
                fill: url(#未命名的渐变_143-13);
            }

            .cls-15 {
                fill: url(#未命名的渐变_143-14);
            }

            .cls-16 {
                fill: url(#未命名的渐变_143-15);
            }

            .cls-17 {
                fill: url(#未命名的渐变_143-16);
            }

            .cls-18 {
                fill: url(#未命名的渐变_143-17);
            }

            .cls-19 {
                fill: url(#未命名的渐变_143-18);
            }

            .cls-20 {
                fill: url(#未命名的渐变_143-19);
            }

            .cls-21 {
                fill: url(#未命名的渐变_143-20);
            }

            .cls-22 {
                fill: url(#未命名的渐变_143-21);
            }

            .cls-23 {
                fill: url(#未命名的渐变_143-22);
            }

            .cls-24 {
                fill: url(#未命名的渐变_143-23);
            }

            .cls-25 {
                fill: url(#未命名的渐变_143-24);
            }

            .cls-26 {
                fill: url(#未命名的渐变_143-25);
            }

            .cls-27 {
                fill: url(#未命名的渐变_143-26);
            }

            .cls-28 {
                fill: url(#未命名的渐变_143-27);
            }

            .cls-29 {
                fill: url(#未命名的渐变_143-28);
            }

            .cls-30 {
                fill: url(#未命名的渐变_79-2);
            }

            .cls-31 {
                fill: url(#未命名的渐变_143-29);
            }

            .cls-32 {
                fill: url(#未命名的渐变_143-30);
            }

            .cls-33 {
                fill: url(#未命名的渐变_143-31);
            }

            .cls-34 {
                fill: url(#未命名的渐变_143-32);
            }

            .cls-35 {
                fill: url(#未命名的渐变_143-33);
            }

            .cls-36 {
                fill: url(#未命名的渐变_143-34);
            }

            .cls-37 {
                fill: url(#未命名的渐变_143-35);
            }

            .cls-38 {
                fill: url(#未命名的渐变_143-36);
            }

            .cls-39 {
                fill: url(#未命名的渐变_143-37);
            }

            .cls-40 {
                fill: url(#未命名的渐变_143-38);
            }

            .cls-41 {
                fill: url(#未命名的渐变_143-39);
            }

            .cls-42 {
                fill: url(#未命名的渐变_143-40);
            }

            .cls-43 {
                fill: url(#未命名的渐变_143-41);
            }

            .cls-44 {
                fill: url(#未命名的渐变_143-42);
            }

            .cls-45 {
                fill: url(#未命名的渐变_143-43);
            }

            .cls-46 {
                fill: url(#未命名的渐变_143-44);
            }

            .cls-47 {
                fill: url(#未命名的渐变_79-3);
            }

            .cls-48 {
                fill: url(#未命名的渐变_143-45);
            }

            .cls-49 {
                fill: url(#未命名的渐变_143-46);
            }

            .cls-50 {
                fill: url(#未命名的渐变_143-47);
            }

            .cls-51 {
                fill: url(#未命名的渐变_143-48);
            }

            .cls-52 {
                fill: #b0b0b1;
            }

            .cls-53 {
                opacity: 0.2;
            }
        </style>
        <linearGradient id="未命名的渐变_143" x1="92.44" y1="19.21" x2="134.85" y2="19.21" gradientUnits="userSpaceOnUse">
            <stop offset="0" stop-color="#b7b7b7" />
            <stop offset="0.03" stop-color="#9b9d9d" />
            <stop offset="0.07" stop-color="#878b8b" />
            <stop offset="0.09" stop-color="#808484" />
            <stop offset="0.2" stop-color="#a3a6a6" />
            <stop offset="0.49" stop-color="#f6f6f6" />
            <stop offset="0.61" stop-color="#f3f3f3" />
            <stop offset="0.7" stop-color="#eaeaea" />
            <stop offset="0.77" stop-color="#dbdbdb" />
            <stop offset="0.83" stop-color="#c5c5c5" />
            <stop offset="0.9" stop-color="#aaa" />
            <stop offset="0.95" stop-color="#888" />
            <stop offset="1" stop-color="#666" />
        </linearGradient>
        <linearGradient id="未命名的渐变_143-2" x1="94.57" y1="18.7" x2="92.87" y2="18.7" xlink:href="#未命名的渐变_143" />
        <linearGradient id="未命名的渐变_143-3" x1="99.27" y1="18.76" x2="97.57" y2="18.76" xlink:href="#未命名的渐变_143" />
        <linearGradient id="未命名的渐变_143-4" x1="103.01" y1="18.8" x2="101.31" y2="18.8" xlink:href="#未命名的渐变_143" />
        <linearGradient id="未命名的渐变_143-5" x1="107.83" y1="18.76" x2="106.12" y2="18.76" xlink:href="#未命名的渐变_143" />
        <linearGradient id="未命名的渐变_143-6" x1="112.32" y1="18.8" x2="110.62" y2="18.8" xlink:href="#未命名的渐变_143" />
        <linearGradient id="未命名的渐变_143-7" x1="116.47" y1="18.8" x2="114.77" y2="18.8" xlink:href="#未命名的渐变_143" />
        <linearGradient id="未命名的渐变_143-8" x1="120.81" y1="18.7" x2="119.11" y2="18.7" xlink:href="#未命名的渐变_143" />
        <linearGradient id="未命名的渐变_143-9" x1="125.27" y1="18.76" x2="123.56" y2="18.76" xlink:href="#未命名的渐变_143" />
        <linearGradient id="未命名的渐变_143-10" x1="129.61" y1="18.8" x2="127.9" y2="18.8" xlink:href="#未命名的渐变_143" />
        <linearGradient id="未命名的渐变_143-11" x1="133.91" y1="18.8" x2="132.2" y2="18.8" xlink:href="#未命名的渐变_143" />
        <linearGradient id="未命名的渐变_143-12" x1="77.69" y1="70" x2="150" y2="70" xlink:href="#未命名的渐变_143" />
        <linearGradient id="未命名的渐变_79" x1="80.4" y1="63.01" x2="145.85" y2="63.01" gradientUnits="userSpaceOnUse">
            <stop offset="0" stop-color="#ccc" />
            <stop offset="0.03" stop-color="#bbb" />
            <stop offset="0.06" stop-color="#a7a7a7" />
            <stop offset="0.09" stop-color="#a0a0a0" />
            <stop offset="0.1" stop-color="#a3a3a3" />
            <stop offset="0.49" stop-color="#f6f6f6" />
            <stop offset="0.62" stop-color="#f3f3f3" />
            <stop offset="0.72" stop-color="#eaeaea" />
            <stop offset="0.8" stop-color="#dbdbdb" />
            <stop offset="0.87" stop-color="#c5c5c5" />
            <stop offset="0.94" stop-color="#aaa" />
            <stop offset="1" stop-color="#898989" />
        </linearGradient>
        <linearGradient id="未命名的渐变_143-13" x1="99.78" y1="63.11" x2="97.91" y2="63.11" xlink:href="#未命名的渐变_143" />
        <linearGradient id="未命名的渐变_143-14" x1="109.7" y1="63.11" x2="107.83" y2="63.11" xlink:href="#未命名的渐变_143" />
        <linearGradient id="未命名的渐变_143-15" x1="119.45" y1="63.11" x2="117.58" y2="63.11" xlink:href="#未命名的渐变_143" />
        <linearGradient id="未命名的渐变_143-16" x1="129.13" y1="63.11" x2="127.26" y2="63.11" xlink:href="#未命名的渐变_143" />
        <linearGradient id="未命名的渐变_143-17" x1="14.76" y1="19.31" x2="57.16" y2="19.31" xlink:href="#未命名的渐变_143" />
        <linearGradient id="未命名的渐变_143-18" x1="16.89" y1="18.8" x2="15.19" y2="18.8" xlink:href="#未命名的渐变_143" />
        <linearGradient id="未命名的渐变_143-19" x1="21.59" y1="18.85" x2="19.88" y2="18.85" xlink:href="#未命名的渐变_143" />
        <linearGradient id="未命名的渐变_143-20" x1="25.33" y1="18.89" x2="23.62" y2="18.89" xlink:href="#未命名的渐变_143" />
        <linearGradient id="未命名的渐变_143-21" x1="30.14" y1="18.85" x2="28.44" y2="18.85" xlink:href="#未命名的渐变_143" />
        <linearGradient id="未命名的渐变_143-22" x1="34.63" y1="18.89" x2="32.93" y2="18.89" xlink:href="#未命名的渐变_143" />
        <linearGradient id="未命名的渐变_143-23" x1="38.78" y1="18.89" x2="37.08" y2="18.89" xlink:href="#未命名的渐变_143" />
        <linearGradient id="未命名的渐变_143-24" x1="43.12" y1="18.8" x2="41.42" y2="18.8" xlink:href="#未命名的渐变_143" />
        <linearGradient id="未命名的渐变_143-25" x1="47.58" y1="18.85" x2="45.87" y2="18.85" xlink:href="#未命名的渐变_143" />
        <linearGradient id="未命名的渐变_143-26" x1="51.92" y1="18.89" x2="50.21" y2="18.89" xlink:href="#未命名的渐变_143" />
        <linearGradient id="未命名的渐变_143-27" x1="56.22" y1="18.89" x2="54.52" y2="18.89" xlink:href="#未命名的渐变_143" />
        <linearGradient id="未命名的渐变_143-28" x1="0" y1="70.1" x2="72.31" y2="70.1" xlink:href="#未命名的渐变_143" />
        <linearGradient id="未命名的渐变_79-2" x1="2.71" y1="63.11" x2="68.17" y2="63.11" xlink:href="#未命名的渐变_79" />
        <linearGradient id="未命名的渐变_143-29" x1="22.1" y1="63.2" x2="20.23" y2="63.2" xlink:href="#未命名的渐变_143" />
        <linearGradient id="未命名的渐变_143-30" x1="32.01" y1="63.2" x2="30.14" y2="63.2" xlink:href="#未命名的渐变_143" />
        <linearGradient id="未命名的渐变_143-31" x1="41.77" y1="63.2" x2="39.9" y2="63.2" xlink:href="#未命名的渐变_143" />
        <linearGradient id="未命名的渐变_143-32" x1="51.45" y1="63.2" x2="49.58" y2="63.2" xlink:href="#未命名的渐变_143" />
        <linearGradient id="未命名的渐变_143-33" x1="50.36" y1="2.57" x2="100.36" y2="2.57" xlink:href="#未命名的渐变_143" />
        <linearGradient id="未命名的渐变_143-34" x1="52.87" y1="1.97" x2="50.87" y2="1.97" xlink:href="#未命名的渐变_143" />
        <linearGradient id="未命名的渐变_143-35" x1="58.41" y1="2.03" x2="56.4" y2="2.03" xlink:href="#未命名的渐变_143" />
        <linearGradient id="未命名的渐变_143-36" x1="62.82" y1="2.08" x2="60.81" y2="2.08" xlink:href="#未命名的渐变_143" />
        <linearGradient id="未命名的渐变_143-37" x1="68.5" y1="2.03" x2="66.49" y2="2.03" xlink:href="#未命名的渐变_143" />
        <linearGradient id="未命名的渐变_143-38" x1="73.8" y1="2.08" x2="71.79" y2="2.08" xlink:href="#未命名的渐变_143" />
        <linearGradient id="未命名的渐变_143-39" x1="78.69" y1="2.08" x2="76.68" y2="2.08" xlink:href="#未命名的渐变_143" />
        <linearGradient id="未命名的渐变_143-40" x1="83.81" y1="1.97" x2="81.8" y2="1.97" xlink:href="#未命名的渐变_143" />
        <linearGradient id="未命名的渐变_143-41" x1="89.06" y1="2.03" x2="87.05" y2="2.03" xlink:href="#未命名的渐变_143" />
        <linearGradient id="未命名的渐变_143-42" x1="94.18" y1="2.08" x2="92.17" y2="2.08" xlink:href="#未命名的渐变_143" />
        <linearGradient id="未命名的渐变_143-43" x1="99.26" y1="2.08" x2="97.25" y2="2.08" xlink:href="#未命名的渐变_143" />
        <linearGradient id="未命名的渐变_143-44" x1="32.96" y1="62.47" x2="118.23" y2="62.47" xlink:href="#未命名的渐变_143" />
        <linearGradient id="未命名的渐变_79-3" x1="36.16" y1="54.22" x2="113.34" y2="54.22" xlink:href="#未命名的渐变_79" />
        <linearGradient id="未命名的渐变_143-45" x1="59.02" y1="54.34" x2="56.81" y2="54.34" xlink:href="#未命名的渐变_143" />
        <linearGradient id="未命名的渐变_143-46" x1="70.7" y1="54.34" x2="68.5" y2="54.34" xlink:href="#未命名的渐变_143" />
        <linearGradient id="未命名的渐变_143-47" x1="82.21" y1="54.34" x2="80.01" y2="54.34" xlink:href="#未命名的渐变_143" />
        <linearGradient id="未命名的渐变_143-48" x1="93.62" y1="54.34" x2="91.42" y2="54.34" xlink:href="#未命名的渐变_143" />
    </defs>
    <title>Cooling tower（冷却塔）</title>
    <g id="图层_2" data-name="图层 2">
        <g id="图层_23" data-name="图层 23">
            <g id="Cooling_tower_冷却塔_" data-name="Cooling tower（冷却塔）">
                <rect class="cls-1" x="92.44" y="18.02" width="42.4" height="2.38" rx="0.28" />
                <rect class="cls-2" x="92.87" y="17.07" width="1.7" height="3.25" />
                <rect class="cls-3" x="97.57" y="17.09" width="1.7" height="3.33" />
                <rect class="cls-4" x="101.31" y="17.13" width="1.7" height="3.33" />
                <rect class="cls-5" x="106.12" y="17.09" width="1.7" height="3.33" />
                <rect class="cls-6" x="110.62" y="17.13" width="1.7" height="3.33" />
                <rect class="cls-7" x="114.77" y="17.13" width="1.7" height="3.33" />
                <rect class="cls-8" x="119.11" y="17.03" width="1.7" height="3.33" />
                <rect class="cls-9" x="123.56" y="17.09" width="1.7" height="3.33" />
                <rect class="cls-10" x="127.9" y="17.13" width="1.7" height="3.33" />
                <rect class="cls-11" x="132.2" y="17.13" width="1.7" height="3.33" />
                <path class="cls-12"
                    d="M150,112.69H77.69S99.07,61.52,93,27.32h41.09C126.75,80.73,150,112.69,150,112.69Z" />
                <path class="cls-13"
                    d="M145.85,105.7H80.4S97.57,54.53,91.92,20.33l42.93,0C125.27,70.24,145.85,105.7,145.85,105.7Z" />
                <rect class="cls-14" x="97.91" y="20.08" width="1.87" height="86.06" />
                <rect class="cls-15" x="107.83" y="20.08" width="1.87" height="86.06" />
                <rect class="cls-16" x="117.58" y="20.08" width="1.87" height="86.06" />
                <rect class="cls-17" x="127.26" y="20.08" width="1.87" height="86.06" />
                <rect class="cls-18" x="14.76" y="18.12" width="42.4" height="2.38" rx="0.28" />
                <rect class="cls-19" x="15.19" y="17.17" width="1.7" height="3.25" />
                <rect class="cls-20" x="19.88" y="17.19" width="1.7" height="3.33" />
                <rect class="cls-21" x="23.62" y="17.23" width="1.7" height="3.33" />
                <rect class="cls-22" x="28.44" y="17.19" width="1.7" height="3.33" />
                <rect class="cls-23" x="32.93" y="17.23" width="1.7" height="3.33" />
                <rect class="cls-24" x="37.08" y="17.23" width="1.7" height="3.33" />
                <rect class="cls-25" x="41.42" y="17.13" width="1.7" height="3.33" />
                <rect class="cls-26" x="45.87" y="17.19" width="1.7" height="3.33" />
                <rect class="cls-27" x="50.21" y="17.23" width="1.7" height="3.33" />
                <rect class="cls-28" x="54.52" y="17.23" width="1.7" height="3.33" />
                <path class="cls-29"
                    d="M72.31,112.78H0S21.38,61.62,15.27,27.41H56.36C49.06,80.83,72.31,112.78,72.31,112.78Z" />
                <path class="cls-30"
                    d="M68.17,105.79H2.71S19.88,54.63,14.24,20.42l42.92,0C47.58,70.34,68.17,105.79,68.17,105.79Z" />
                <rect class="cls-31" x="20.23" y="20.17" width="1.87" height="86.06" />
                <rect class="cls-32" x="30.14" y="20.17" width="1.87" height="86.06" />
                <rect class="cls-33" x="39.9" y="20.17" width="1.87" height="86.06" />
                <rect class="cls-34" x="49.58" y="20.17" width="1.87" height="86.06" />
                <rect class="cls-35" x="50.36" y="1.17" width="50.01" height="2.81" rx="0.28" />
                <rect class="cls-36" x="50.87" y="0.05" width="2" height="3.84" />
                <rect class="cls-37" x="56.4" y="0.07" width="2.01" height="3.93" />
                <rect class="cls-38" x="60.81" y="0.11" width="2.01" height="3.93" />
                <rect class="cls-39" x="66.49" y="0.07" width="2.01" height="3.93" />
                <rect class="cls-40" x="71.79" y="0.11" width="2.01" height="3.93" />
                <rect class="cls-41" x="76.68" y="0.11" width="2.01" height="3.93" />
                <rect class="cls-42" x="81.8" width="2.01" height="3.93" />
                <rect class="cls-43" x="87.05" y="0.07" width="2.01" height="3.93" />
                <rect class="cls-44" x="92.17" y="0.11" width="2.01" height="3.93" />
                <rect class="cls-45" x="97.25" y="0.11" width="2.01" height="3.93" />
                <path class="cls-46"
                    d="M118.23,112.8H33S58.17,52.47,51,12.13H99.42C90.82,75.12,118.23,112.8,118.23,112.8Z" />
                <path class="cls-47"
                    d="M113.34,104.56H36.16S56.4,44.22,49.75,3.89l50.61,0C89.06,62.75,113.34,104.56,113.34,104.56Z" />
                <rect class="cls-48" x="56.81" y="3.59" width="2.2" height="101.49" />
                <rect class="cls-49" x="68.5" y="3.59" width="2.2" height="101.49" />
                <rect class="cls-50" x="80.01" y="3.59" width="2.2" height="101.49" />
                <rect class="cls-51" x="91.42" y="3.59" width="2.2" height="101.49" />
                <rect class="cls-52" y="112.78" width="150" height="5.04" />
                
            </g>
        </g>
    </g>
</svg>