<svg xmlns="http://www.w3.org/2000/svg" xmlns:xlink="http://www.w3.org/1999/xlink" viewBox="0 0 150 140.09">
    <defs>
        <style>
            .cls-1 {
                fill: none;
            }

            .cls-2 {
                fill: url(#未命名的渐变_79);
            }

            .cls-3 {
                fill: url(#未命名的渐变_143);
            }

            .cls-4 {
                fill: url(#未命名的渐变_143-2);
            }

            .cls-5 {
                fill: url(#未命名的渐变_143-3);
            }

            .cls-6 {
                fill: url(#未命名的渐变_79-2);
            }

            .cls-7 {
                fill: url(#未命名的渐变_79-3);
            }

            .cls-8 {
                fill: url(#未命名的渐变_143-4);
            }

            .cls-9 {
                fill: url(#未命名的渐变_143-5);
            }

            .cls-10 {
                fill: url(#未命名的渐变_143-6);
            }

            .cls-11 {
                fill: url(#未命名的渐变_143-7);
            }

            .cls-12 {
                clip-path: url(#clip-path);
            }

            .cls-13 {
                fill: url(#未命名的渐变_143-8);
            }

            .cls-14 {
                clip-path: url(#clip-path-2);
            }

            .cls-15 {
                fill: url(#未命名的渐变_143-9);
            }

            .cls-16 {
                clip-path: url(#clip-path-3);
            }

            .cls-17 {
                fill: url(#未命名的渐变_143-10);
            }

            .cls-18 {
                clip-path: url(#clip-path-4);
            }

            .cls-19 {
                fill: url(#未命名的渐变_143-11);
            }

            .cls-20 {
                fill: url(#未命名的渐变_143-12);
            }

            .cls-21 {
                fill: #b7b7b7;
            }

            .cls-22 {
                fill: url(#未命名的渐变_75);
            }

            .cls-23 {
                fill: url(#未命名的渐变_143-13);
            }

            .cls-24 {
                fill: url(#未命名的渐变_143-14);
            }

            .cls-25 {
                fill: url(#未命名的渐变_143-15);
            }

            .cls-26 {
                fill: url(#未命名的渐变_143-16);
            }

            .cls-27 {
                opacity: 0.2;
            }
        </style>
        <linearGradient id="未命名的渐变_79" x1="150" y1="35.58" x2="0" y2="35.58" gradientUnits="userSpaceOnUse">
            <stop offset="0" stop-color="#ccc" />
            <stop offset="0.03" stop-color="#bbb" />
            <stop offset="0.06" stop-color="#a7a7a7" />
            <stop offset="0.09" stop-color="#a0a0a0" />
            <stop offset="0.1" stop-color="#a3a3a3" />
            <stop offset="0.49" stop-color="#f6f6f6" />
            <stop offset="0.62" stop-color="#f3f3f3" />
            <stop offset="0.72" stop-color="#eaeaea" />
            <stop offset="0.8" stop-color="#dbdbdb" />
            <stop offset="0.87" stop-color="#c5c5c5" />
            <stop offset="0.94" stop-color="#aaa" />
            <stop offset="1" stop-color="#898989" />
        </linearGradient>
        <linearGradient id="未命名的渐变_143" x1="22.21" y1="132.89" x2="12.61" y2="132.89" gradientUnits="userSpaceOnUse">
            <stop offset="0" stop-color="#b7b7b7" />
            <stop offset="0.03" stop-color="#9b9d9d" />
            <stop offset="0.07" stop-color="#878b8b" />
            <stop offset="0.09" stop-color="#808484" />
            <stop offset="0.2" stop-color="#a3a6a6" />
            <stop offset="0.49" stop-color="#f6f6f6" />
            <stop offset="0.61" stop-color="#f3f3f3" />
            <stop offset="0.7" stop-color="#eaeaea" />
            <stop offset="0.77" stop-color="#dbdbdb" />
            <stop offset="0.83" stop-color="#c5c5c5" />
            <stop offset="0.9" stop-color="#aaa" />
            <stop offset="0.95" stop-color="#888" />
            <stop offset="1" stop-color="#666" />
        </linearGradient>
        <linearGradient id="未命名的渐变_143-2" x1="79.8" y1="132.89" x2="70.2" y2="132.89" xlink:href="#未命名的渐变_143" />
        <linearGradient id="未命名的渐变_143-3" x1="138.48" y1="132.89" x2="128.88" y2="132.89" xlink:href="#未命名的渐变_143" />
        <linearGradient id="未命名的渐变_79-2" x1="117.6" y1="12.6" x2="33.19" y2="12.6" xlink:href="#未命名的渐变_79" />
        <linearGradient id="未命名的渐变_79-3" x1="119.76" y1="1.44" x2="30.31" y2="1.44" xlink:href="#未命名的渐变_79" />
        <linearGradient id="未命名的渐变_143-4" x1="44.4" y1="12.69" x2="41.88" y2="12.69" xlink:href="#未命名的渐变_143" />
        <linearGradient id="未命名的渐变_143-5" x1="65.91" y1="12.93" x2="63.39" y2="12.93" xlink:href="#未命名的渐变_143" />
        <linearGradient id="未命名的渐变_143-6" x1="87.78" y1="12.93" x2="85.26" y2="12.93" xlink:href="#未命名的渐变_143" />
        <linearGradient id="未命名的渐变_143-7" x1="110.01" y1="12.48" x2="107.49" y2="12.48" xlink:href="#未命名的渐变_143" />
        <clipPath id="clip-path">
            <rect class="cls-1" x="6.19" y="22.08" width="43.83" height="26.34" />
        </clipPath>
        <linearGradient id="未命名的渐变_143-8" x1="-3.3" y1="141.07" x2="-6.63" y2="141.07"
            gradientTransform="matrix(0.61, 0.79, -1.75, 1.35, 277.3, -150.97)" xlink:href="#未命名的渐变_143" />
        <clipPath id="clip-path-2">
            <rect class="cls-1" x="102.37" y="22.53" width="43.83" height="26.46"
                transform="translate(248.58 71.52) rotate(180)" />
        </clipPath>
        <linearGradient id="未命名的渐变_143-9" x1="65.12" y1="101.21" x2="61.67" y2="101.21"
            gradientTransform="matrix(-0.61, 0.79, 1.75, 1.35, -13.5, -150.97)" xlink:href="#未命名的渐变_143" />
        <clipPath id="clip-path-3">
            <rect class="cls-1" x="34.91" y="22.53" width="43.83" height="25.89" />
        </clipPath>
        <linearGradient id="未命名的渐变_143-10" x1="19.97" y1="114.14" x2="17.09" y2="114.14"
            gradientTransform="matrix(0.84, 0.54, -1.19, 1.86, 173.25, -181.98)" xlink:href="#未命名的渐变_143" />
        <clipPath id="clip-path-4">
            <rect class="cls-1" x="72.53" y="22.2" width="43.83" height="26.22"
                transform="translate(188.88 70.62) rotate(180)" />
        </clipPath>
        <linearGradient id="未命名的渐变_143-11" x1="123.56" y1="84.24" x2="120.4" y2="84.24"
            gradientTransform="matrix(-0.84, 0.54, 1.19, 1.86, 100.73, -181.98)" xlink:href="#未命名的渐变_143" />
        <linearGradient id="未命名的渐变_143-12" x1="150" y1="87.06" x2="0.01" y2="87.06" xlink:href="#未命名的渐变_143" />
        <linearGradient id="未命名的渐变_75" x1="150" y1="113.15" x2="0" y2="113.15" gradientUnits="userSpaceOnUse">
            <stop offset="0" stop-color="#c9c9c9" />
            <stop offset="0" stop-color="#c8c8c8" />
            <stop offset="0.05" stop-color="#b4b4b4" />
            <stop offset="0.09" stop-color="#adadad" />
            <stop offset="0.49" stop-color="#f9f9f9" />
            <stop offset="0.62" stop-color="#f6f6f6" />
            <stop offset="0.72" stop-color="#ededed" />
            <stop offset="0.8" stop-color="#dedede" />
            <stop offset="0.87" stop-color="#c8c9c9" />
            <stop offset="0.94" stop-color="#adaeae" />
            <stop offset="1" stop-color="#8b8c8c" />
        </linearGradient>
        <linearGradient id="未命名的渐变_143-13" x1="143.02" y1="77.1" x2="140.1" y2="77.1" xlink:href="#未命名的渐变_143" />
        <linearGradient id="未命名的渐变_143-14" x1="11.42" y1="77.1" x2="8.9" y2="77.1" xlink:href="#未命名的渐变_143" />
        <linearGradient id="未命名的渐变_143-15" x1="49.61" y1="77.1" x2="47.09" y2="77.1" xlink:href="#未命名的渐变_143" />
        <linearGradient id="未命名的渐变_143-16" x1="104.14" y1="77.1" x2="101.22" y2="77.1" xlink:href="#未命名的渐变_143" />
    </defs>
    <title>Cooling tower（冷却塔） (4)</title>
    <g id="图层_2" data-name="图层 2">
        <g id="图层_23" data-name="图层 23">
            <g id="Cooling_tower_冷却塔_" data-name="Cooling tower（冷却塔）">
                <path class="cls-2"
                    d="M148.86,44.16c-4.13-8.72-31.26-21.42-31.26-21.42H32.65S3.55,35.54.43,45.18A9.86,9.86,0,0,0,0,48.42H150A20.49,20.49,0,0,0,148.86,44.16Z" />
                <polygon class="cls-3" points="21.05 140.09 13.97 140.09 12.61 125.69 22.21 125.69 21.05 140.09" />
                <polygon class="cls-4" points="78.64 140.09 71.57 140.09 70.2 125.69 79.8 125.69 78.64 140.09" />
                <polygon class="cls-5" points="137.32 140.09 130.25 140.09 128.88 125.69 138.48 125.69 137.32 140.09" />
                <rect class="cls-6" x="33.19" y="2.88" width="84.42" height="19.44" />
                <rect class="cls-7" x="30.31" width="89.46" height="2.88" />
                <rect class="cls-8" x="41.88" y="2.88" width="2.52" height="19.62" />
                <rect class="cls-9" x="63.39" y="2.88" width="2.52" height="20.1" />
                <rect class="cls-10" x="85.26" y="2.88" width="2.52" height="20.1" />
                <rect class="cls-11" x="107.49" y="2.43" width="2.52" height="20.1" />
                <g class="cls-12">
                    <polygon class="cls-13" points="10.74 50.07 9.2 48 44.35 19.98 45.89 22.05 10.74 50.07" />
                </g>
                <g class="cls-14">
                    <polygon class="cls-15" points="141.65 50.65 143.19 48.58 108.03 20.42 106.5 22.5 141.65 50.65" />
                </g>
                <g class="cls-16">
                    <polygon class="cls-17" points="42.68 60.2 40.55 58.82 64.38 20.74 66.51 22.12 42.68 60.2" />
                </g>
                <g class="cls-18">
                    <polygon class="cls-19" points="108.59 60.34 110.72 58.95 86.88 20.39 84.76 21.78 108.59 60.34" />
                </g>
                <path class="cls-20"
                    d="M0,48.42H150a0,0,0,0,1,0,0v76.47a.81.81,0,0,1-.81.81H.82a.81.81,0,0,1-.81-.81V48.42A0,0,0,0,1,0,48.42Z" />
                <rect class="cls-21" x="33.19" y="21.42" width="84.42" height="1.32" />
                <rect class="cls-22" y="105.78" width="150" height="14.76" />
                <rect class="cls-23" x="140.1" y="48.42" width="2.92" height="57.36" />
                <rect class="cls-24" x="8.9" y="48.42" width="2.52" height="57.36" />
                <rect class="cls-25" x="47.09" y="48.42" width="2.52" height="57.36" />
                <rect class="cls-26" x="101.22" y="48.42" width="2.92" height="57.36" />
                
            </g>
        </g>
    </g>
</svg>