<svg xmlns="http://www.w3.org/2000/svg" xmlns:xlink="http://www.w3.org/1999/xlink" viewBox="0 0 118.47 149.75">
    <defs>
        <style>
            .cls-1 {
                fill: url(#未命名的渐变_79);
            }

            .cls-2 {
                fill: url(#未命名的渐变_143);
            }

            .cls-3 {
                fill: url(#未命名的渐变_143-2);
            }

            .cls-4 {
                fill: url(#未命名的渐变_143-3);
            }

            .cls-5 {
                fill: url(#未命名的渐变_143-4);
            }

            .cls-6 {
                fill: url(#未命名的渐变_79-2);
            }

            .cls-7 {
                fill: url(#未命名的渐变_143-5);
            }

            .cls-8 {
                fill: url(#未命名的渐变_143-6);
            }

            .cls-9 {
                fill: url(#未命名的渐变_143-7);
            }

            .cls-10 {
                fill: url(#未命名的渐变_143-8);
            }

            .cls-11 {
                fill: url(#未命名的渐变_143-9);
            }

            .cls-12 {
                fill: url(#未命名的渐变_143-10);
            }

            .cls-13 {
                fill: url(#未命名的渐变_143-11);
            }

            .cls-14 {
                fill: url(#未命名的渐变_143-12);
            }

            .cls-15 {
                fill: url(#未命名的渐变_143-13);
            }

            .cls-16 {
                fill: url(#未命名的渐变_143-14);
            }

            .cls-17 {
                fill: url(#未命名的渐变_143-15);
            }

            .cls-18 {
                fill: url(#未命名的渐变_143-16);
            }

            .cls-19 {
                fill: url(#未命名的渐变_143-17);
            }

            .cls-20 {
                fill: url(#未命名的渐变_79-3);
            }

            .cls-21 {
                fill: url(#未命名的渐变_79-4);
            }

            .cls-22 {
                fill: url(#未命名的渐变_143-18);
            }

            .cls-23 {
                fill: url(#未命名的渐变_143-19);
            }

            .cls-24 {
                opacity: 0.2;
            }
        </style>
        <linearGradient id="未命名的渐变_79" x1="101.61" y1="10.55" x2="17.44" y2="10.55" gradientUnits="userSpaceOnUse">
            <stop offset="0" stop-color="#ccc" />
            <stop offset="0.03" stop-color="#bbb" />
            <stop offset="0.06" stop-color="#a7a7a7" />
            <stop offset="0.09" stop-color="#a0a0a0" />
            <stop offset="0.1" stop-color="#a3a3a3" />
            <stop offset="0.49" stop-color="#f6f6f6" />
            <stop offset="0.62" stop-color="#f3f3f3" />
            <stop offset="0.72" stop-color="#eaeaea" />
            <stop offset="0.8" stop-color="#dbdbdb" />
            <stop offset="0.87" stop-color="#c5c5c5" />
            <stop offset="0.94" stop-color="#aaa" />
            <stop offset="1" stop-color="#898989" />
        </linearGradient>
        <linearGradient id="未命名的渐变_143" x1="19.47" y1="10.63" x2="17.16" y2="10.63" gradientUnits="userSpaceOnUse">
            <stop offset="0" stop-color="#b7b7b7" />
            <stop offset="0.03" stop-color="#9b9d9d" />
            <stop offset="0.07" stop-color="#878b8b" />
            <stop offset="0.09" stop-color="#808484" />
            <stop offset="0.2" stop-color="#a3a6a6" />
            <stop offset="0.49" stop-color="#f6f6f6" />
            <stop offset="0.61" stop-color="#f3f3f3" />
            <stop offset="0.7" stop-color="#eaeaea" />
            <stop offset="0.77" stop-color="#dbdbdb" />
            <stop offset="0.83" stop-color="#c5c5c5" />
            <stop offset="0.9" stop-color="#aaa" />
            <stop offset="0.95" stop-color="#888" />
            <stop offset="1" stop-color="#666" />
        </linearGradient>
        <linearGradient id="未命名的渐变_143-2" x1="45.13" y1="10.83" x2="42.82" y2="10.83" xlink:href="#未命名的渐变_143" />
        <linearGradient id="未命名的渐变_143-3" x1="76.23" y1="10.83" x2="73.92" y2="10.83" xlink:href="#未命名的渐变_143" />
        <linearGradient id="未命名的渐变_143-4" x1="101.39" y1="10.83" x2="99.08" y2="10.83" xlink:href="#未命名的渐变_143" />
        <linearGradient id="未命名的渐变_79-2" x1="118.47" y1="90.11" x2="0" y2="90.11" xlink:href="#未命名的渐变_79" />
        <linearGradient id="未命名的渐变_143-5" x1="118.36" y1="127.67" x2="0" y2="127.67" xlink:href="#未命名的渐变_143" />
        <linearGradient id="未命名的渐变_143-6" x1="-245.05" y1="481.19" x2="-246.81" y2="481.19"
            gradientTransform="translate(304.73 -369.66)" xlink:href="#未命名的渐变_143" />
        <linearGradient id="未命名的渐变_143-7" x1="-164.86" y1="481.02" x2="-166.62" y2="481.02"
            gradientTransform="translate(224.38 -449.67)" xlink:href="#未命名的渐变_143" />
        <linearGradient id="未命名的渐变_143-8" x1="-249.25" y1="481.19" x2="-251.01" y2="481.19"
            gradientTransform="translate(308.94 -365.45)" xlink:href="#未命名的渐变_143" />
        <linearGradient id="未命名的渐变_143-9" x1="-253.46" y1="481.19" x2="-255.22" y2="481.19"
            gradientTransform="translate(313.15 -361.24)" xlink:href="#未命名的渐变_143" />
        <linearGradient id="未命名的渐变_143-10" x1="-257.67" y1="481.19" x2="-259.43" y2="481.19"
            gradientTransform="translate(317.36 -357.04)" xlink:href="#未命名的渐变_143" />
        <linearGradient id="未命名的渐变_143-11" x1="-261.88" y1="481.19" x2="-263.64" y2="481.19"
            gradientTransform="translate(321.56 -352.83)" xlink:href="#未命名的渐变_143" />
        <linearGradient id="未命名的渐变_143-12" x1="-266.08" y1="481.19" x2="-267.84" y2="481.19"
            gradientTransform="translate(325.77 -348.62)" xlink:href="#未命名的渐变_143" />
        <linearGradient id="未命名的渐变_143-13" x1="-270.29" y1="481.19" x2="-272.05" y2="481.19"
            gradientTransform="translate(329.98 -344.42)" xlink:href="#未命名的渐变_143" />
        <linearGradient id="未命名的渐变_143-14" x1="-274.5" y1="481.19" x2="-276.26" y2="481.19"
            gradientTransform="translate(334.18 -340.21)" xlink:href="#未命名的渐变_143" />
        <linearGradient id="未命名的渐变_143-15" x1="-277.6" y1="481.02" x2="-279.36" y2="481.02"
            gradientTransform="translate(337.12 -336.93)" xlink:href="#未命名的渐变_143" />
        <linearGradient id="未命名的渐变_143-16" x1="83.94" y1="87.79" x2="81.02" y2="87.79" xlink:href="#未命名的渐变_143" />
        <linearGradient id="未命名的渐变_143-17" x1="118.47" y1="87.79" x2="115.55" y2="87.79" xlink:href="#未命名的渐变_143" />
        <linearGradient id="未命名的渐变_79-3" x1="103.67" y1="1.21" x2="14.8" y2="1.21" xlink:href="#未命名的渐变_79" />
        <linearGradient id="未命名的渐变_79-4" x1="118.47" y1="24.66" x2="0" y2="24.66" xlink:href="#未命名的渐变_79" />
        <linearGradient id="未命名的渐变_143-18" x1="2.92" y1="87.79" x2="0" y2="87.79" xlink:href="#未命名的渐变_143" />
        <linearGradient id="未命名的渐变_143-19" x1="40.1" y1="87.79" x2="37.18" y2="87.79" xlink:href="#未命名的渐变_143" />
    </defs>
    <title>Cooling tower（冷却塔） (5)</title>
    <g id="图层_2" data-name="图层 2">
        <g id="图层_23" data-name="图层 23">
            <g id="Cooling_tower_冷却塔_" data-name="Cooling tower（冷却塔）">
                <rect class="cls-1" x="17.44" y="2.41" width="84.17" height="16.28" />
                <rect class="cls-2" x="17.16" y="2.41" width="2.31" height="16.43" />
                <rect class="cls-3" x="42.82" y="2.41" width="2.31" height="16.84" />
                <rect class="cls-4" x="73.92" y="2.41" width="2.31" height="16.84" />
                <rect class="cls-5" x="99.08" y="2.41" width="2.31" height="16.84" />
                <path class="cls-6"
                    d="M0,30.47H118.47a0,0,0,0,1,0,0V148.94a.81.81,0,0,1-.81.81H.81a.81.81,0,0,1-.81-.81V30.47A0,0,0,0,1,0,30.47Z" />
                <rect class="cls-7" y="110.87" width="118.36" height="33.6" />
                <rect class="cls-8" x="57.93" y="54.35" width="1.76" height="114.35"
                    transform="translate(-52.72 170.34) rotate(-90)" />
                <rect class="cls-9" x="57.76" y="-25.83" width="1.76" height="114.35"
                    transform="translate(27.29 89.98) rotate(-90)" />
                <rect class="cls-10" x="57.93" y="58.56" width="1.76" height="114.35"
                    transform="translate(-56.93 174.55) rotate(-90)" />
                <rect class="cls-11" x="57.93" y="62.77" width="1.76" height="114.35"
                    transform="translate(-61.14 178.75) rotate(-90)" />
                <rect class="cls-12" x="57.93" y="66.98" width="1.76" height="114.35"
                    transform="translate(-65.34 182.96) rotate(-90)" />
                <rect class="cls-13" x="57.93" y="71.18" width="1.76" height="114.35"
                    transform="translate(-69.55 187.17) rotate(-90)" />
                <rect class="cls-14" x="57.93" y="75.39" width="1.76" height="114.35"
                    transform="translate(-73.76 191.37) rotate(-90)" />
                <rect class="cls-15" x="57.93" y="79.6" width="1.76" height="114.35"
                    transform="translate(-77.97 195.58) rotate(-90)" />
                <rect class="cls-16" x="57.93" y="83.8" width="1.76" height="114.35"
                    transform="translate(-82.17 199.79) rotate(-90)" />
                <rect class="cls-17" x="57.76" y="86.91" width="1.76" height="114.35"
                    transform="translate(-85.45 202.73) rotate(-90)" />
                <rect class="cls-18" x="81.02" y="30.62" width="2.92" height="114.35" />
                <rect class="cls-19" x="115.55" y="30.62" width="2.92" height="114.35" />
                <rect class="cls-20" x="14.8" width="88.87" height="2.41" />
                <path class="cls-21"
                    d="M117.57,28.64c-3.27-4.05-16-9.94-16-9.94H17.25S2.81,24.64.34,29.11A2.84,2.84,0,0,0,0,30.62H118.47A6.74,6.74,0,0,0,117.57,28.64Z" />
                <rect class="cls-22" y="30.62" width="2.92" height="114.35" />
                <rect class="cls-23" x="37.18" y="30.62" width="2.92" height="114.35" />
                
            </g>
        </g>
    </g>
</svg>