<svg xmlns="http://www.w3.org/2000/svg" xmlns:xlink="http://www.w3.org/1999/xlink" viewBox="0 0 150 99.89">
    <defs>
        <style>
            .cls-1 {
                fill: url(#未命名的渐变_19);
            }

            .cls-2 {
                fill: url(#未命名的渐变_19-2);
            }

            .cls-3 {
                fill: url(#未命名的渐变_143);
            }

            .cls-4 {
                fill: url(#未命名的渐变_143-2);
            }

            .cls-5 {
                fill: #b0b0b1;
            }

            .cls-6 {
                fill: #cecece;
            }

            .cls-7 {
                fill: url(#未命名的渐变_143-3);
            }

            .cls-8 {
                fill: url(#未命名的渐变_143-4);
            }

            .cls-9 {
                fill: url(#未命名的渐变_143-5);
            }

            .cls-10 {
                fill: url(#未命名的渐变_143-6);
            }

            .cls-11 {
                fill: url(#未命名的渐变_143-7);
            }

            .cls-12 {
                fill: url(#未命名的渐变_143-8);
            }

            .cls-13 {
                fill: url(#未命名的渐变_143-9);
            }

            .cls-14 {
                fill: url(#未命名的渐变_143-10);
            }

            .cls-15 {
                fill: url(#未命名的渐变_143-11);
            }

            .cls-16 {
                fill: url(#未命名的渐变_79);
            }

            .cls-17 {
                fill: url(#未命名的渐变_143-12);
            }

            .cls-18 {
                fill: url(#未命名的渐变_143-13);
            }

            .cls-19 {
                fill: url(#未命名的渐变_143-14);
            }

            .cls-20 {
                fill: url(#未命名的渐变_143-15);
            }

            .cls-21 {
                opacity: 0.2;
            }
        </style>
        <linearGradient id="未命名的渐变_19" x1="17.38" y1="30.01" x2="52.24" y2="30.01" gradientUnits="userSpaceOnUse">
            <stop offset="0" stop-color="#8c8c8c" />
            <stop offset="0.01" stop-color="#969696" />
            <stop offset="0.04" stop-color="#acacac" />
            <stop offset="0.08" stop-color="#bdbdbd" />
            <stop offset="0.13" stop-color="#c8c8c8" />
            <stop offset="0.19" stop-color="#cfcfcf" />
            <stop offset="0.37" stop-color="#d1d1d1" />
            <stop offset="0.72" stop-color="#d3d3d3" />
            <stop offset="0.84" stop-color="#dadada" />
            <stop offset="0.93" stop-color="#e5e5e5" />
            <stop offset="1" stop-color="#f6f6f6" />
            <stop offset="1" stop-color="#f7f7f7" />
        </linearGradient>
        <linearGradient id="未命名的渐变_19-2" x1="55.54" y1="34.68" x2="94.6" y2="34.68" xlink:href="#未命名的渐变_19" />
        <linearGradient id="未命名的渐变_143" x1="75.53" y1="83.64" x2="75.53" y2="55.3" gradientUnits="userSpaceOnUse">
            <stop offset="0" stop-color="#b7b7b7" />
            <stop offset="0.03" stop-color="#9b9d9d" />
            <stop offset="0.07" stop-color="#878b8b" />
            <stop offset="0.09" stop-color="#808484" />
            <stop offset="0.2" stop-color="#a3a6a6" />
            <stop offset="0.49" stop-color="#f6f6f6" />
            <stop offset="0.61" stop-color="#f3f3f3" />
            <stop offset="0.7" stop-color="#eaeaea" />
            <stop offset="0.77" stop-color="#dbdbdb" />
            <stop offset="0.83" stop-color="#c5c5c5" />
            <stop offset="0.9" stop-color="#aaa" />
            <stop offset="0.95" stop-color="#888" />
            <stop offset="1" stop-color="#666" />
        </linearGradient>
        <linearGradient id="未命名的渐变_143-2" x1="100.23" y1="24.04" x2="128.57" y2="24.04" xlink:href="#未命名的渐变_143" />
        <linearGradient id="未命名的渐变_143-3" x1="5.21" y1="65.3" x2="5.21" y2="58.44" xlink:href="#未命名的渐变_143" />
        <linearGradient id="未命名的渐变_143-4" x1="1.63" y1="61.97" x2="3.69" y2="61.97" xlink:href="#未命名的渐变_143" />
        <linearGradient id="未命名的渐变_143-5" x1="5.21" y1="79.51" x2="5.21" y2="72.64" xlink:href="#未命名的渐变_143" />
        <linearGradient id="未命名的渐变_143-6" x1="1.63" y1="76.18" x2="3.69" y2="76.18" xlink:href="#未命名的渐变_143" />
        <linearGradient id="未命名的渐变_143-7" x1="13.01" y1="74.88" x2="15.07" y2="74.88" xlink:href="#未命名的渐变_143" />
        <linearGradient id="未命名的渐变_143-8" x1="146.23" y1="74.67" x2="148.28" y2="74.67" xlink:href="#未命名的渐变_143" />
        <linearGradient id="未命名的渐变_143-9" x1="108.65" y1="51.26" x2="120.45" y2="51.26" xlink:href="#未命名的渐变_143" />
        <linearGradient id="未命名的渐变_143-10" x1="136.19" y1="31.01" x2="136.19" y2="23.82" xlink:href="#未命名的渐变_143" />
        <linearGradient id="未命名的渐变_143-11" x1="67.34" y1="17.51" x2="80.91" y2="17.51" xlink:href="#未命名的渐变_143" />
        <linearGradient id="未命名的渐变_79" x1="55.75" y1="52.56" x2="55.75" y2="48.85" gradientUnits="userSpaceOnUse">
            <stop offset="0" stop-color="#ccc" />
            <stop offset="0.03" stop-color="#bbb" />
            <stop offset="0.06" stop-color="#a7a7a7" />
            <stop offset="0.09" stop-color="#a0a0a0" />
            <stop offset="0.1" stop-color="#a3a3a3" />
            <stop offset="0.49" stop-color="#f6f6f6" />
            <stop offset="0.62" stop-color="#f3f3f3" />
            <stop offset="0.72" stop-color="#eaeaea" />
            <stop offset="0.8" stop-color="#dbdbdb" />
            <stop offset="0.87" stop-color="#c5c5c5" />
            <stop offset="0.94" stop-color="#aaa" />
            <stop offset="1" stop-color="#898989" />
        </linearGradient>
        <linearGradient id="未命名的渐变_143-12" x1="124.16" y1="71.12" x2="129.45" y2="71.12"
            gradientTransform="translate(22.06 -105.24) rotate(45)" xlink:href="#未命名的渐变_143" />
        <linearGradient id="未命名的渐变_143-13" x1="134.26" y1="27.4" x2="136.32" y2="27.4" xlink:href="#未命名的渐变_143" />
        <linearGradient id="未命名的渐变_143-14" x1="147.29" y1="99.68" x2="147.29" y2="95.44" xlink:href="#未命名的渐变_143" />
        <linearGradient id="未命名的渐变_143-15" x1="14.08" y1="99.89" x2="14.08" y2="95.64" xlink:href="#未命名的渐变_143" />
    </defs>
    <title>Engine driven chiller（发电机驱动冷却器）</title>
    <g id="图层_2" data-name="图层 2">
        <g id="图层_23" data-name="图层 23">
            <g id="Engine_driven_chiller_发电机驱动冷却器_" data-name="Engine driven chiller（发电机驱动冷却器）">
                <rect class="cls-1" x="17.38" y="11.17" width="34.86" height="37.68" />
                <rect class="cls-2" x="55.54" y="20.51" width="39.06" height="28.34" />
                <path class="cls-3" d="M146.23,83.64H12a17.57,17.57,0,0,1-1.12-27.36l1.12-1H146.23Z" />
                <path class="cls-4" d="M128.57,42.88h0a21.91,21.91,0,0,1-28.34,0h0V5.57h0a20.8,20.8,0,0,1,28.34,0h0Z" />
                <rect class="cls-5" x="55.54" y="12.06" width="11.79" height="8.57" />
                <rect class="cls-5" x="19.49" y="18.1" width="30.82" height="23.77" />
                <rect class="cls-6" x="20.6" y="52.56" width="6.01" height="2.74" />
                <rect class="cls-7" y="58.44" width="10.42" height="6.86" rx="0.68" />
                <rect class="cls-6" x="52.74" y="52.56" width="6.01" height="2.74" />
                <rect class="cls-6" x="84.88" y="52.56" width="6.01" height="2.74" />
                <rect class="cls-8" x="1.63" y="57.15" width="2.06" height="9.64" rx="0.3" />
                <rect class="cls-9" y="72.64" width="10.42" height="6.86" rx="0.68" />
                <rect class="cls-10" x="1.63" y="71.35" width="2.06" height="9.64" rx="0.3" />
                <rect class="cls-11" x="13.01" y="53.13" width="2.06" height="43.49" rx="0.3" />
                <rect class="cls-12" x="146.23" y="52.93" width="2.06" height="43.49" rx="0.3" />
                <rect class="cls-13" x="108.65" y="47.22" width="11.79" height="8.09" />
                <path class="cls-14"
                    d="M128.57,23.82h14.34a.9.9,0,0,1,.9.9v5.4a.9.9,0,0,1-.9.9H128.57a0,0,0,0,1,0,0v-7.2A0,0,0,0,1,128.57,23.82Z" />
                <rect class="cls-15" x="67.34" y="14.51" width="13.57" height="6.01" />
                <rect class="cls-5" x="68.74" y="32.68" width="23.41" height="12.54" />
                <rect class="cls-5" x="57.49" y="25.19" width="35.03" height="3.71" />
                <rect class="cls-6" x="23.89" y="21.21" width="22.37" height="5.31" />
                <rect class="cls-16" x="16" y="48.85" width="79.48" height="3.71" />
                <circle class="cls-17" cx="61.43" cy="34.72" r="2.64" />
                <rect class="cls-18" x="134.26" y="21.65" width="2.06" height="11.49" rx="0.3" />
                <rect class="cls-19" x="144.58" y="95.44" width="5.42" height="4.25" />
                <rect class="cls-20" x="11.37" y="95.64" width="5.42" height="4.25" />
                
            </g>
        </g>
    </g>
</svg>