<?xml version="1.0" standalone="no"?><!DOCTYPE svg PUBLIC "-//W3C//DTD SVG 1.1//EN" "http://www.w3.org/Graphics/SVG/1.1/DTD/svg11.dtd"><svg t="1722306015524" class="icon" viewBox="0 0 1024 1024" version="1.1" xmlns="http://www.w3.org/2000/svg" p-id="27065" width="48" height="48" xmlns:xlink="http://www.w3.org/1999/xlink"><path d="M511.77 821.08l1.15 160.17H222.54s12.43-110.73 84.28-180.03c1.57-1.52 3.31-2.86 5.17-4.03 6.95-4.36 22.15-15.89 53.74-24.48 8.02-2.18 17.09-4.17 27.35-5.8h118.69v54.17z" fill="#E0ECFF" p-id="27066"></path><path d="M511.77 821.08l-1.15 160.17H801s-12.43-110.73-84.28-180.03a31.611 31.611 0 0 0-5.17-4.03c-8.71-5.46-30.39-22.21-81.1-30.27H511.77v54.16z" fill="#FBFCFF" p-id="27067"></path><path d="M456.32 631.04s-0.11 5.58-0.45 14.35c-1.2 30.48-5.28 99.49-17.79 106.67 0 0-23.03 11.56-46.07 15.05 0 0 79.59 52.88 118.77 53.97l-0.29-180.91-54.17-9.13z" fill="#FCD1AE" p-id="27068"></path><path d="M564.63 630.87s2.48 111.77 18.63 120.96c0 0 23.06 11.49 46.12 14.91 0 0-79.42 53.13-118.6 54.35l-0.29-180.91 54.14-9.31z" fill="#FFDDB7" p-id="27069"></path><path d="M564.84 648.62s2.85 31.45 2.55 33.39c-0.3 1.95-129.36 69.93-129.36 69.93s10.37 1.15 17.28-95.64l109.53-7.68z" fill="#EBCCAA" p-id="27070"></path><path d="M310.12 301.4h199.35v372.19s-167.08-12.68-199.35-185.52c0 0-76.05-53.01-41.48-93.34 0 0 13.83-12.68 26.5-1.15 0 0 0-47.24 4.61-62.22l10.37-29.96z" fill="#FCD1AE" p-id="27071"></path><path d="M708.82 301.4H509.47v372.19s167.08-12.68 199.35-185.52c0 0 76.05-53.01 41.48-93.34 0 0-13.83-12.68-26.5-1.15 0 0 0-47.24-4.61-62.22l-10.37-29.96z" fill="#FFDDB7" p-id="27072"></path><path d="M300.9 295.63l-5.76 97.95s14.98 5.76 20.74 27.66c0 0 4.99-89.88 32.26-107.16l-47.24-18.45zM719.19 295.63l5.76 97.95s-14.98 5.76-20.74 27.66c0 0-4.99-89.88-32.26-107.16l47.24-18.45z" fill="#4A2E00" p-id="27073"></path><path d="M246.74 310.04a262.15 58.06 0 1 0 524.3 0 262.15 58.06 0 1 0-524.3 0Z" fill="#6700F4" p-id="27074"></path><path d="M284.77 303.7s232.98 57.62 448.22 0c0 0 5.79-230.46-223.52-245.44 0 0-209.33 3.46-224.7 245.44z" fill="#A25FFF" p-id="27075"></path><path d="M469.15 62.87s40.31-43.5 80.62 0L531.46 294.4s-18.32 36.48-39.09 0L469.15 62.87z" fill="#6700F4" p-id="27076"></path><path d="M363.12 773.84s-29.96 4.61-47.24 20.74v186.67h47.24V773.84z" fill="#00206A" p-id="27077"></path><path d="M649.03 769.81s33.1 4.2 47.22 17.8l-0.24 193.67-47.24-0.06 0.26-211.41z" fill="#103A92" p-id="27078"></path></svg>