<?xml version="1.0" standalone="no"?><!DOCTYPE svg PUBLIC "-//W3C//DTD SVG 1.1//EN" "http://www.w3.org/Graphics/SVG/1.1/DTD/svg11.dtd"><svg t="1722306026582" class="icon" viewBox="0 0 1024 1024" version="1.1" xmlns="http://www.w3.org/2000/svg" p-id="27541" width="48" height="48" xmlns:xlink="http://www.w3.org/1999/xlink"><path d="M511.67 820.83L512.82 981H222.44s12.43-110.73 84.28-180.03c1.57-1.52 3.31-2.86 5.17-4.03 6.95-4.36 22.15-15.89 53.74-24.48 8.02-2.18 17.09-4.17 27.35-5.8h118.69v54.17z" fill="#E0ECFF" p-id="27542"></path><path d="M511.67 820.83L510.51 981H800.9s-12.43-110.73-84.28-180.03a31.611 31.611 0 0 0-5.17-4.03c-8.71-5.46-30.39-22.21-81.1-30.27H511.67v54.16z" fill="#FBFCFF" p-id="27543"></path><path d="M456.21 630.79s-0.11 5.58-0.45 14.35c-1.2 30.48-5.28 99.49-17.79 106.67 0 0-23.03 11.56-46.07 15.05 0 0 79.59 52.88 118.77 53.97l-0.29-180.91-54.17-9.13z" fill="#FCD1AE" p-id="27544"></path><path d="M564.53 630.62s2.48 111.77 18.63 120.96c0 0 23.06 11.49 46.12 14.91 0 0-79.42 53.13-118.6 54.35l-0.29-180.91 54.14-9.31z" fill="#FFDDB7" p-id="27545"></path><path d="M564.73 648.37s2.85 31.45 2.55 33.39c-0.3 1.95-129.36 69.93-129.36 69.93s10.37 1.15 17.28-95.64l109.53-7.68z" fill="#EBCCAA" p-id="27546"></path><path d="M310.01 301.15h199.35v372.19s-167.08-12.68-199.35-185.52c0 0-76.05-53.01-41.48-93.34 0 0 13.83-12.68 26.5-1.15 0 0 0-47.24 4.61-62.22l10.37-29.96z" fill="#FCD1AE" p-id="27547"></path><path d="M708.71 301.15H509.36v372.19s167.08-12.68 199.35-185.52c0 0 76.05-53.01 41.48-93.34 0 0-13.83-12.68-26.5-1.15 0 0 0-47.24-4.61-62.22l-10.37-29.96z" fill="#FFDDB7" p-id="27548"></path><path d="M300.79 295.38l-5.76 97.95s14.98 5.76 20.74 27.66c0 0 4.99-89.88 32.26-107.16l-47.24-18.45zM719.08 295.38l5.76 97.95s-14.98 5.76-20.74 27.66c0 0-4.99-89.88-32.26-107.16l47.24-18.45z" fill="#4A2E00" p-id="27549"></path><path d="M246.64 309.79a262.15 58.06 0 1 0 524.3 0 262.15 58.06 0 1 0-524.3 0Z" fill="#C90000" p-id="27550"></path><path d="M284.66 303.45s232.98 57.62 448.22 0c0 0 5.79-230.46-223.52-245.44 0.01 0-209.32 3.46-224.7 245.44z" fill="#F41400" p-id="27551"></path><path d="M469.05 62.62s40.31-43.5 80.62 0l-18.32 231.53s-18.32 36.48-39.09 0L469.05 62.62z" fill="#C90000" p-id="27552"></path><path d="M363.02 773.59s-29.96 4.61-47.24 20.74V981h47.24V773.59z" fill="#00206A" p-id="27553"></path><path d="M648.79 769.59s29.96 1.61 47.24 17.74V981h-47.24V769.59z" fill="#103A92" p-id="27554"></path></svg>