<?xml version="1.0" standalone="no"?><!DOCTYPE svg PUBLIC "-//W3C//DTD SVG 1.1//EN" "http://www.w3.org/Graphics/SVG/1.1/DTD/svg11.dtd"><svg t="1722306021277" class="icon" viewBox="0 0 1024 1024" version="1.1" xmlns="http://www.w3.org/2000/svg" p-id="27303" width="48" height="48" xmlns:xlink="http://www.w3.org/1999/xlink"><path d="M494.37 813.93l1.15 160.17H205.14s12.43-110.73 84.28-180.03c1.57-1.52 3.31-2.86 5.17-4.03 6.95-4.36 22.15-15.89 53.74-24.48 8.02-2.18 17.09-4.17 27.35-5.8h118.69v54.17z" fill="#E0ECFF" p-id="27304"></path><path d="M494.37 813.93l-1.15 160.17H783.6s-12.43-110.73-84.28-180.03a31.611 31.611 0 0 0-5.17-4.03c-8.71-5.46-30.39-22.21-81.1-30.27H494.37v54.16z" fill="#FBFCFF" p-id="27305"></path><path d="M438.91 623.89s-0.11 5.58-0.45 14.35c-1.2 30.48-5.28 99.49-17.79 106.67 0 0-23.03 11.56-46.07 15.05 0 0 79.59 52.88 118.77 53.97l-0.29-180.91-54.17-9.13z" fill="#FCD1AE" p-id="27306"></path><path d="M547.23 623.72s2.48 111.77 18.63 120.96c0 0 23.06 11.49 46.12 14.91 0 0-79.42 53.13-118.6 54.35l-0.29-180.91 54.14-9.31z" fill="#FFDDB7" p-id="27307"></path><path d="M547.44 641.47s2.85 31.45 2.55 33.39c-0.3 1.95-129.36 69.93-129.36 69.93s10.37 1.15 17.28-95.64l109.53-7.68z" fill="#EBCCAA" p-id="27308"></path><path d="M292.72 294.24h199.35v372.19s-167.08-12.68-199.35-185.52c0 0-76.05-53.01-41.48-93.34 0 0 13.83-12.68 26.5-1.15 0 0 0-47.24 4.61-62.22l10.37-29.96z" fill="#FCD1AE" p-id="27309"></path><path d="M691.41 294.24H492.07v372.19s167.08-12.68 199.35-185.52c0 0 76.05-53.01 41.48-93.34 0 0-13.83-12.68-26.5-1.15 0 0 0-47.24-4.61-62.22l-10.38-29.96z" fill="#FFDDB7" p-id="27310"></path><path d="M283.5 288.48l-5.76 97.95s14.98 5.76 20.74 27.66c0 0 4.99-89.88 32.26-107.16l-47.24-18.45zM701.79 288.48l5.76 97.95s-14.98 5.76-20.74 27.66c0 0-4.99-89.88-32.26-107.16l47.24-18.45z" fill="#4A2E00" p-id="27311"></path><path d="M229.34 302.89a262.15 58.06 0 1 0 524.3 0 262.15 58.06 0 1 0-524.3 0Z" fill="#0A5DFF" p-id="27312"></path><path d="M267.03 295.85s232.8 58.34 448.22 1.39c0 0 6.5-230.44-222.76-246.13 0 0-209.34 2.81-225.46 244.74z" fill="#0097F4" p-id="27313"></path><path d="M451.75 55.72s40.31-43.5 80.62 0l-18.32 231.53s-18.32 36.48-39.09 0L451.75 55.72z" fill="#0A5DFF" p-id="27314"></path><path d="M345.72 766.69s-29.96 4.61-47.24 20.74V974.1h47.24V766.69z" fill="#00206A" p-id="27315"></path><path d="M631.49 762.69s29.96 1.61 47.24 17.74V974.1h-47.24V762.69z" fill="#103A92" p-id="27316"></path></svg>