<?xml version="1.0" standalone="no"?><!DOCTYPE svg PUBLIC "-//W3C//DTD SVG 1.1//EN" "http://www.w3.org/Graphics/SVG/1.1/DTD/svg11.dtd"><svg t="1722305994227" class="icon" viewBox="0 0 1024 1024" version="1.1" xmlns="http://www.w3.org/2000/svg" p-id="26485" width="48" height="48" xmlns:xlink="http://www.w3.org/1999/xlink"><path d="M506 812.77l1.15 160.17H216.77s12.43-110.73 84.28-180.03c1.57-1.52 3.31-2.86 5.17-4.03 6.95-4.36 22.15-15.89 53.74-24.48 8.02-2.18 17.09-4.17 27.35-5.8H506v54.17z" fill="#E0ECFF" p-id="26486"></path><path d="M506 812.77l-1.15 160.17h290.38s-12.43-110.73-84.28-180.03a31.611 31.611 0 0 0-5.17-4.03c-8.71-5.46-30.39-22.21-81.1-30.27H506v54.16z" fill="#FBFCFF" p-id="26487"></path><path d="M450.54 622.73s-0.11 5.58-0.45 14.35c-1.2 30.48-5.28 99.49-17.79 106.67 0 0-23.03 11.56-46.07 15.05 0 0 79.59 52.88 118.77 53.97l-0.29-180.91-54.17-9.13z" fill="#FCD1AE" p-id="26488"></path><path d="M558.86 622.56s2.48 111.77 18.63 120.96c0 0 23.06 11.49 46.12 14.91 0 0-79.42 53.13-118.6 54.35l-0.29-180.91 54.14-9.31z" fill="#FFDDB7" p-id="26489"></path><path d="M559.07 640.31s2.85 31.45 2.55 33.39c-0.3 1.95-129.36 69.93-129.36 69.93s10.37 1.15 17.28-95.64l109.53-7.68z" fill="#EBCCAA" p-id="26490"></path><path d="M304.35 293.08H503.7v372.19s-167.08-12.68-199.35-185.52c0 0-76.05-53.01-41.48-93.34 0 0 13.83-12.68 26.5-1.15 0 0 0-47.24 4.61-62.22l10.37-29.96z" fill="#FCD1AE" p-id="26491"></path><path d="M703.04 293.08H503.7v372.19s167.08-12.68 199.35-185.52c0 0 76.05-53.01 41.48-93.34 0 0-13.83-12.68-26.5-1.15 0 0 0-47.24-4.61-62.22l-10.38-29.96z" fill="#FFDDB7" p-id="26492"></path><path d="M295.13 287.32l-5.76 97.95s14.98 5.76 20.74 27.66c0 0 4.99-89.88 32.26-107.16l-47.24-18.45zM713.41 287.32l5.76 97.95s-14.98 5.76-20.74 27.66c0 0-4.99-89.88-32.26-107.16l47.24-18.45z" fill="#4A2E00" p-id="26493"></path><path d="M240.97 301.73a262.15 58.06 0 1 0 524.3 0 262.15 58.06 0 1 0-524.3 0Z" fill="#F4DC00" p-id="26494"></path><path d="M279 295.39s232.98 57.62 448.22 0c0 0 5.79-230.46-223.52-245.44 0 0-209.33 3.45-224.7 245.44z" fill="#FFF755" p-id="26495"></path><path d="M463.38 54.56s40.31-43.5 80.62 0l-18.32 231.53s-18.32 36.48-39.09 0L463.38 54.56z" fill="#F4DC00" p-id="26496"></path><path d="M357.35 765.53s-29.96 4.61-47.24 20.74v186.67h47.24V765.53z" fill="#00206A" p-id="26497"></path><path d="M658 766s30.09 6.72 47.37 22.85v184.67h-47.24L658 766z" fill="#103A92" p-id="26498"></path></svg>