<svg xmlns="http://www.w3.org/2000/svg" xmlns:xlink="http://www.w3.org/1999/xlink" viewBox="0 0 150 150">
    <defs>
        <style>
            .cls-1,
            .cls-2,
            .cls-40 {
                fill: none;
            }

            .cls-2 {
                stroke: #fff;
                stroke-width: 0.1px;
            }

            .cls-2,
            .cls-40 {
                stroke-miterlimit: 10;
            }

            .cls-3 {
                opacity: 0;
            }

            .cls-4 {
                fill: #000714;
            }

            .cls-5 {
                opacity: 0.1;
                fill: url(#新建图案);
            }

            .cls-6 {
                isolation: isolate;
            }

            .cls-7 {
                fill: url(#未命名的渐变_54);
            }

            .cls-8 {
                fill: url(#未命名的渐变_2170);
            }

            .cls-9 {
                fill: url(#未命名的渐变_79);
            }

            .cls-10 {
                fill: url(#未命名的渐变_54-2);
            }

            .cls-11 {
                fill: url(#未命名的渐变_2170-2);
            }

            .cls-12 {
                fill: url(#未命名的渐变_54-3);
            }

            .cls-13 {
                fill: url(#未命名的渐变_79-2);
            }

            .cls-14 {
                fill: url(#未命名的渐变_54-4);
            }

            .cls-15 {
                fill: #dbdbdb;
            }

            .cls-16 {
                fill: url(#未命名的渐变_125);
            }

            .cls-17,
            .cls-19,
            .cls-23,
            .cls-25 {
                opacity: 0.45;
            }

            .cls-17 {
                fill: url(#未命名的渐变_164);
            }

            .cls-18 {
                fill: url(#未命名的渐变_190);
            }

            .cls-19 {
                fill: url(#未命名的渐变_164-2);
            }

            .cls-20 {
                fill: url(#未命名的渐变_79-3);
            }

            .cls-21 {
                fill: url(#未命名的渐变_54-5);
            }

            .cls-22 {
                fill: url(#未命名的渐变_125-2);
            }

            .cls-23 {
                fill: url(#未命名的渐变_164-3);
            }

            .cls-24 {
                fill: url(#未命名的渐变_190-2);
            }

            .cls-25 {
                fill: url(#未命名的渐变_164-4);
            }

            .cls-26 {
                fill: url(#未命名的渐变_79-4);
            }

            .cls-27 {
                fill: url(#未命名的渐变_54-6);
            }

            .cls-28 {
                fill: url(#未命名的渐变_2170-3);
            }

            .cls-29 {
                fill: url(#未命名的渐变_79-5);
            }

            .cls-30 {
                fill: url(#未命名的渐变_54-7);
            }

            .cls-31 {
                fill: url(#未命名的渐变_2170-4);
            }

            .cls-32 {
                fill: url(#未命名的渐变_2170-5);
            }

            .cls-33 {
                fill: url(#未命名的渐变_54-8);
            }

            .cls-34 {
                fill: #0b131f;
            }

            .cls-35,
            .cls-41,
            .cls-42,
            .cls-43 {
                fill: #4cfafe;
            }

            .cls-36 {
                fill: url(#未命名的渐变_79-6);
            }

            .cls-37 {
                fill: url(#未命名的渐变_79-7);
            }

            .cls-38 {
                fill: url(#未命名的渐变_54-9);
            }

            .cls-39 {
                fill: #242d3a;
            }

            .cls-40 {
                stroke: #4cfafe;
                stroke-width: 0.25px;
                mix-blend-mode: overlay;
            }

            .cls-41 {
                opacity: 0.04;
            }

            .cls-42 {
                opacity: 0.12;
            }

            .cls-43 {
                opacity: 0.2;
            }

            .cls-44 {
                fill: url(#未命名的渐变_159);
            }

            .cls-45 {
                fill: url(#未命名的渐变_2118);
            }

            .cls-46 {
                fill: url(#未命名的渐变_159-2);
            }

            .cls-47 {
                fill: url(#未命名的渐变_2118-2);
            }

            .cls-48 {
                opacity: 0.2;
            }
        </style>
        <pattern id="新建图案" data-name="新建图案" width="18.57" height="32.16" patternTransform="translate(1240.05 649.22)"
            patternUnits="userSpaceOnUse" viewBox="0 0 18.57 32.16">
            <rect class="cls-1" width="18.57" height="32.16" />
            <polyline class="cls-2" points="18.57 21.44 18.57 32.16 18.57 42.88" />
            <polyline class="cls-2" points="9.29 26.8 18.57 32.16 27.85 37.51 27.85 37.52" />
            <polyline class="cls-2" points="9.29 37.52 9.29 37.51 18.57 32.16 27.85 26.8" />
            <polygon class="cls-2"
                points="27.85 37.52 27.85 26.8 18.57 21.44 9.28 26.8 9.28 37.52 18.57 42.88 27.85 37.52" />
            <polyline class="cls-2" points="0 21.44 0 32.16 0 42.88" />
            <polyline class="cls-2" points="-9.28 26.8 0 32.16 9.28 37.51 9.28 37.52" />
            <polyline class="cls-2" points="-9.28 37.52 -9.28 37.51 0 32.16 9.28 26.8" />
            <polygon class="cls-2" points="9.28 37.52 9.28 26.8 0 21.44 -9.29 26.8 -9.29 37.52 0 42.88 9.28 37.52" />
            <polyline class="cls-2" points="18.57 10.72 27.85 16.08 37.13 21.43 37.13 21.44" />
            <polyline class="cls-2" points="18.57 21.44 18.57 21.43 27.85 16.08 37.13 10.72" />
            <polygon class="cls-2"
                points="37.14 21.44 37.14 10.72 27.85 5.36 18.57 10.72 18.57 21.44 27.85 26.8 37.14 21.44" />
            <polyline class="cls-2" points="9.29 5.36 9.29 16.08 9.29 26.8" />
            <polyline class="cls-2" points="0.01 10.72 9.29 16.08 18.57 21.43 18.57 21.44" />
            <polyline class="cls-2" points="0.01 21.44 0.01 21.43 9.29 16.08 18.57 10.72" />
            <polygon class="cls-2" points="18.57 21.44 18.57 10.72 9.28 5.36 0 10.72 0 21.44 9.28 26.8 18.57 21.44" />
            <polyline class="cls-2" points="-18.56 10.72 -9.28 16.08 0 21.43 0 21.44" />
            <polyline class="cls-2" points="-18.56 21.44 -18.56 21.43 -9.28 16.08 0 10.72" />
            <polygon class="cls-2" points="0 21.44 0 10.72 -9.29 5.36 -18.57 10.72 -18.57 21.44 -9.29 26.8 0 21.44" />
            <polyline class="cls-2" points="18.57 -10.72 18.57 0 18.57 10.72" />
            <polyline class="cls-2" points="9.29 -5.36 18.57 0 27.85 5.35 27.85 5.36" />
            <polyline class="cls-2" points="9.29 5.36 9.29 5.35 18.57 0 27.85 -5.36" />
            <polygon class="cls-2"
                points="27.85 5.36 27.85 -5.36 18.57 -10.72 9.28 -5.36 9.28 5.36 18.57 10.72 27.85 5.36" />
            <polyline class="cls-2" points="0 -10.72 0 0 0 10.72" />
            <polyline class="cls-2" points="-9.28 -5.36 0 0 9.28 5.35 9.28 5.36" />
            <polyline class="cls-2" points="-9.28 5.36 -9.28 5.35 0 0 9.28 -5.36" />
            <polygon class="cls-2" points="9.28 5.36 9.28 -5.36 0 -10.72 -9.29 -5.36 -9.29 5.36 0 10.72 9.28 5.36" />
        </pattern>
        <linearGradient id="未命名的渐变_54" x1="93.51" y1="146.13" x2="55.89" y2="108.51" gradientUnits="userSpaceOnUse">
            <stop offset="0" stop-color="#425266" />
            <stop offset="1" stop-color="#596b8c" />
        </linearGradient>
        <linearGradient id="未命名的渐变_2170" x1="56.48" y1="116.87" x2="98.49" y2="116.87" gradientUnits="userSpaceOnUse">
            <stop offset="0" stop-color="#89abe6" />
            <stop offset="1" stop-color="#547099" />
        </linearGradient>
        <linearGradient id="未命名的渐变_79" x1="70.89" y1="124.7" x2="126.06" y2="69.53" gradientUnits="userSpaceOnUse">
            <stop offset="0" stop-color="#283140" />
            <stop offset="0.34" stop-color="#232b37" />
            <stop offset="0.9" stop-color="#15191f" />
            <stop offset="1" stop-color="#12161a" />
        </linearGradient>
        <linearGradient id="未命名的渐变_54-2" x1="113.84" y1="110.47" x2="46.54" y2="43.16" xlink:href="#未命名的渐变_54" />
        <linearGradient id="未命名的渐变_2170-2" x1="61.89" y1="37.06" x2="102.85" y2="37.06" xlink:href="#未命名的渐变_2170" />
        <linearGradient id="未命名的渐变_54-3" x1="87.31" y1="150.34" x2="51.62" y2="114.65" xlink:href="#未命名的渐变_54" />
        <linearGradient id="未命名的渐变_79-2" x1="46.81" y1="129.87" x2="56.1" y2="120.58" xlink:href="#未命名的渐变_79" />
        <linearGradient id="未命名的渐变_54-4" x1="53.08" y1="129.89" x2="43.76" y2="120.57" xlink:href="#未命名的渐变_54" />
        <linearGradient id="未命名的渐变_125" x1="59.97" y1="136.34" x2="69.26" y2="127.05" gradientUnits="userSpaceOnUse">
            <stop offset="0" stop-color="#198cff" stop-opacity="0" />
            <stop offset="0.14" stop-color="#1a8eff" stop-opacity="0.02" />
            <stop offset="0.28" stop-color="#1d95ff" stop-opacity="0.07" />
            <stop offset="0.42" stop-color="#22a0ff" stop-opacity="0.15" />
            <stop offset="0.56" stop-color="#2ab0ff" stop-opacity="0.26" />
            <stop offset="0.71" stop-color="#33c4fe" stop-opacity="0.41" />
            <stop offset="0.85" stop-color="#3fddfe" stop-opacity="0.59" />
            <stop offset="1" stop-color="#4cfafe" stop-opacity="0.8" />
        </linearGradient>
        <linearGradient id="未命名的渐变_164" x1="59.97" y1="136.34" x2="69.26" y2="127.05" gradientUnits="userSpaceOnUse">
            <stop offset="0" stop-color="#4cfafe" stop-opacity="0.8" />
            <stop offset="0.15" stop-color="#3fddfe" stop-opacity="0.59" />
            <stop offset="0.29" stop-color="#33c4fe" stop-opacity="0.41" />
            <stop offset="0.44" stop-color="#2ab0ff" stop-opacity="0.26" />
            <stop offset="0.58" stop-color="#22a0ff" stop-opacity="0.15" />
            <stop offset="0.72" stop-color="#1d95ff" stop-opacity="0.07" />
            <stop offset="0.86" stop-color="#1a8eff" stop-opacity="0.02" />
            <stop offset="1" stop-color="#198cff" stop-opacity="0" />
        </linearGradient>
        <linearGradient id="未命名的渐变_190" x1="54.04" y1="134.24" x2="60.02" y2="123.87" gradientUnits="userSpaceOnUse">
            <stop offset="0" stop-color="#198cff" stop-opacity="0" />
            <stop offset="1" stop-color="#4cfafe" />
        </linearGradient>
        <linearGradient id="未命名的渐变_164-2" x1="54.04" y1="134.24" x2="60.02" y2="123.87" xlink:href="#未命名的渐变_164" />
        <linearGradient id="未命名的渐变_79-3" x1="63.61" y1="139.67" x2="72.9" y2="130.38" xlink:href="#未命名的渐变_79" />
        <linearGradient id="未命名的渐变_54-5" x1="69.88" y1="139.69" x2="60.56" y2="130.37" xlink:href="#未命名的渐变_54" />
        <linearGradient id="未命名的渐变_125-2" x1="77.87" y1="146.86" x2="87.16" y2="137.57" xlink:href="#未命名的渐变_125" />
        <linearGradient id="未命名的渐变_164-3" x1="77.87" y1="146.86" x2="87.16" y2="137.57" xlink:href="#未命名的渐变_164" />
        <linearGradient id="未命名的渐变_190-2" x1="71.36" y1="144.43" x2="77.4" y2="133.97" xlink:href="#未命名的渐变_190" />
        <linearGradient id="未命名的渐变_164-4" x1="71.36" y1="144.43" x2="77.4" y2="133.97" xlink:href="#未命名的渐变_164" />
        <linearGradient id="未命名的渐变_79-4" x1="83.27" y1="145.57" x2="95.68" y2="133.15" xlink:href="#未命名的渐变_79" />
        <linearGradient id="未命名的渐变_54-6" x1="80.43" y1="141.53" x2="49.73" y2="110.84" xlink:href="#未命名的渐变_54" />
        <linearGradient id="未命名的渐变_2170-3" x1="46.88" y1="121.68" x2="92.2" y2="121.68" xlink:href="#未命名的渐变_2170" />
        <linearGradient id="未命名的渐变_79-5" x1="72.5" y1="109.71" x2="116.94" y2="65.27" xlink:href="#未命名的渐变_79" />
        <linearGradient id="未命名的渐变_54-7" x1="108.68" y1="113.09" x2="39.27" y2="43.68" xlink:href="#未命名的渐变_54" />
        <linearGradient id="未命名的渐变_2170-4" x1="55.67" y1="36.39" x2="97.16" y2="36.39" xlink:href="#未命名的渐变_2170" />
        <linearGradient id="未命名的渐变_2170-5" x1="65.43" y1="42.73" x2="87.39" y2="30.05" xlink:href="#未命名的渐变_2170" />
        <linearGradient id="未命名的渐变_54-8" x1="92.41" y1="49.38" x2="64.32" y2="21.28" xlink:href="#未命名的渐变_54" />
        <linearGradient id="未命名的渐变_79-6" x1="56.52" y1="26.23" x2="60.77" y2="26.23" xlink:href="#未命名的渐变_79" />
        <linearGradient id="未命名的渐变_79-7" x1="69.63" y1="111.41" x2="112.28" y2="68.76" xlink:href="#未命名的渐变_79" />
        <linearGradient id="未命名的渐变_54-9" x1="106.86" y1="113.62" x2="38.05" y2="44.81" xlink:href="#未命名的渐变_54" />
        <linearGradient id="未命名的渐变_159" x1="73.76" y1="38.2" x2="73.76" y2="12.89"
            gradientTransform="matrix(1, 0.58, 0, 1, 0, -42.62)" gradientUnits="userSpaceOnUse">
            <stop offset="0" stop-color="#2f77eb" />
            <stop offset="0.12" stop-color="#2c7aee" stop-opacity="0.84" />
            <stop offset="0.36" stop-color="#2581f4" stop-opacity="0.55" />
            <stop offset="0.58" stop-color="#2085f9" stop-opacity="0.31" />
            <stop offset="0.76" stop-color="#1c89fc" stop-opacity="0.14" />
            <stop offset="0.91" stop-color="#1a8bfe" stop-opacity="0.04" />
            <stop offset="1" stop-color="#198cff" stop-opacity="0" />
        </linearGradient>
        <linearGradient id="未命名的渐变_2118" x1="73.76" y1="38.2" x2="73.76" y2="12.89"
            gradientTransform="matrix(1, 0.58, 0, 1, 0, -42.62)" gradientUnits="userSpaceOnUse">
            <stop offset="0" stop-color="#4cfafe" stop-opacity="0.8" />
            <stop offset="0.01" stop-color="#4bf7fe" stop-opacity="0.78" />
            <stop offset="0.05" stop-color="#40e1fe" stop-opacity="0.62" />
            <stop offset="0.1" stop-color="#37ccfe" stop-opacity="0.47" />
            <stop offset="0.16" stop-color="#2fbbff" stop-opacity="0.34" />
            <stop offset="0.22" stop-color="#28acff" stop-opacity="0.23" />
            <stop offset="0.29" stop-color="#22a0ff" stop-opacity="0.15" />
            <stop offset="0.37" stop-color="#1e97ff" stop-opacity="0.08" />
            <stop offset="0.47" stop-color="#1b91ff" stop-opacity="0.03" />
            <stop offset="0.61" stop-color="#198dff" stop-opacity="0.01" />
            <stop offset="1" stop-color="#198cff" stop-opacity="0" />
        </linearGradient>
        <linearGradient id="未命名的渐变_159-2" x1="84.66" y1="29.55" x2="84.66" y2="4.25" xlink:href="#未命名的渐变_159" />
        <linearGradient id="未命名的渐变_2118-2" x1="84.66" y1="29.55" x2="84.66" y2="4.25" xlink:href="#未命名的渐变_2118" />
    </defs>
    <title>建筑3</title>
    <g id="图层_2" data-name="图层 2">
        <g id="图元">
            <g id="建筑3">
                <g class="cls-3">
                    <rect class="cls-4" width="150" height="150" />
                    <rect id="网格" class="cls-5" width="150" height="150" />
                </g>
                <g class="cls-6">
                    <polygon class="cls-7" points="92.87 129.06 56.48 107.92 56.53 125.58 92.92 146.72 92.87 129.06" />
                    <polygon class="cls-8" points="62.11 104.67 56.48 107.92 92.87 129.06 98.49 125.81 62.11 104.67" />
                    <polygon class="cls-9"
                        points="102.85 46.31 98.27 48.96 98.49 125.81 92.87 129.06 92.92 146.72 103.12 140.83 102.85 46.31" />
                    <polygon class="cls-10" points="98.27 48.96 61.89 27.81 62.11 104.67 98.49 125.81 98.27 48.96" />
                    <polygon class="cls-11" points="66.47 25.17 61.89 27.81 98.27 48.96 102.85 46.31 66.47 25.17" />
                </g>
                <g class="cls-6">
                    <polygon class="cls-12" points="87.64 136.17 51.25 115.02 51.29 128.83 87.68 149.97 87.64 136.17" />
                    <g class="cls-6">
                        <polygon class="cls-13"
                            points="52.96 117.44 49.91 119.21 49.95 133.01 53 131.25 52.96 117.44" />
                        <polygon class="cls-14"
                            points="49.91 119.21 46.88 117.44 46.92 131.25 49.95 133.01 49.91 119.21" />
                        <polygon class="cls-15"
                            points="49.93 115.68 46.88 117.44 49.91 119.21 52.96 117.44 49.93 115.68" />
                    </g>
                    <g class="cls-6">
                        <polygon class="cls-16"
                            points="66.13 123.92 63.07 125.68 63.11 139.48 66.16 137.72 66.13 123.92" />
                        <polygon class="cls-17"
                            points="66.13 123.92 63.07 125.68 63.11 139.48 66.16 137.72 66.13 123.92" />
                        <polygon class="cls-18"
                            points="63.07 125.68 50.95 118.63 50.98 132.43 63.11 139.48 63.07 125.68" />
                        <polygon class="cls-19"
                            points="63.07 125.68 50.95 118.63 50.98 132.43 63.11 139.48 63.07 125.68" />
                        <polygon class="cls-15" points="54 116.87 50.95 118.63 63.07 125.68 66.13 123.92 54 116.87" />
                    </g>
                    <g class="cls-6">
                        <polygon class="cls-20"
                            points="69.77 127.25 66.71 129.01 66.75 142.81 69.81 141.05 69.77 127.25" />
                        <polygon class="cls-21"
                            points="66.71 129.01 63.68 127.25 63.72 141.05 66.75 142.81 66.71 129.01" />
                        <polygon class="cls-15"
                            points="66.73 125.48 63.68 127.25 66.71 129.01 69.77 127.25 66.73 125.48" />
                    </g>
                    <g class="cls-6">
                        <polygon class="cls-22"
                            points="84.02 134.43 80.97 136.19 81.01 150 84.06 148.24 84.02 134.43" />
                        <polygon class="cls-23"
                            points="84.02 134.43 80.97 136.19 81.01 150 84.06 148.24 84.02 134.43" />
                        <polygon class="cls-24" points="80.97 136.19 67.75 128.4 67.79 142.2 81.01 150 80.97 136.19" />
                        <polygon class="cls-25" points="80.97 136.19 67.75 128.4 67.79 142.2 81.01 150 80.97 136.19" />
                        <polygon class="cls-15"
                            points="70.8 126.63 67.75 128.4 80.97 136.19 84.02 134.43 70.8 126.63" />
                    </g>
                    <polygon class="cls-26"
                        points="92.2 129.67 83.26 134.83 83.28 138.69 87.64 136.17 87.68 149.97 92.25 147.33 92.2 129.67" />
                    <polygon class="cls-27" points="83.26 134.83 46.88 113.69 46.89 117.54 83.28 138.69 83.26 134.83" />
                    <polygon class="cls-28" points="55.82 108.53 46.88 113.69 83.26 134.83 92.2 129.67 55.82 108.53" />
                </g>
                <g class="cls-6">
                    <polygon class="cls-29" points="97.16 45.49 92.05 48.43 92.28 129.49 97.39 126.54 97.16 45.49" />
                    <polygon class="cls-30" points="92.05 48.43 55.67 27.29 55.9 108.34 92.28 129.49 92.05 48.43" />
                    <polygon class="cls-31" points="60.77 24.34 55.67 27.29 92.05 48.43 97.16 45.49 60.77 24.34" />
                    <polygon class="cls-32" points="56.52 27.29 60.77 24.84 96.31 45.49 92.05 47.94 56.52 27.29" />
                    <polygon class="cls-33" points="96.3 45.49 95.72 45.82 60.77 25.52 60.77 24.83 96.3 45.49" />
                    <polygon class="cls-34" points="94.36 125.58 93.51 126.07 93.55 51.58 94.4 51.09 94.36 125.58" />
                    <polygon class="cls-35" points="94.37 113.32 93.51 113.81 93.51 111.5 94.37 111 94.37 113.32" />
                    <polygon class="cls-35" points="94.39 70.71 93.54 71.2 93.54 69.91 94.39 69.41 94.39 70.71" />
                    <polygon class="cls-35" points="94.4 54.76 93.55 55.26 93.55 53.7 94.4 53.2 94.4 54.76" />
                    <polygon class="cls-34" points="96.22 124.1 95.36 124.6 95.41 50.1 96.26 49.61 96.22 124.1" />
                    <polygon class="cls-35" points="96.22 120.14 95.37 120.64 95.37 118.28 96.22 117.78 96.22 120.14" />
                    <polygon class="cls-35" points="96.25 99.68 95.39 100.17 95.39 98.61 96.25 98.12 96.25 99.68" />
                    <polygon class="cls-35" points="96.25 63.94 95.4 64.44 95.4 62.1 96.25 61.61 96.25 63.94" />
                    <polygon class="cls-36" points="60.77 24.83 60.77 25.52 57.1 27.63 56.52 27.29 60.77 24.83" />
                </g>
                <g class="cls-6">
                    <polygon class="cls-37"
                        points="92.19 129.49 89.35 131.13 89.72 119.4 89.84 115.44 90.18 104.66 90.31 100.69 90.65 89.91 90.77 85.95 91.11 75.16 91.24 71.2 91.58 60.41 91.7 56.45 91.96 48.44 91.98 56.29 91.99 60.18 92.02 70.75 92.03 74.63 92.06 85.21 92.08 89.09 92.1 99.65 92.11 103.54 92.14 114.11 92.15 118 92.19 129.49" />
                    <polygon class="cls-38"
                        points="91.96 48.44 91.7 56.44 91.58 60.39 91.24 71.2 91.11 75.14 90.77 85.95 90.65 89.89 90.65 89.9 90.31 100.69 90.31 100.7 90.18 104.64 89.84 115.45 89.72 119.39 89.35 131.13 52.96 109.99 55.57 27.29 91.96 48.44" />
                    <polygon class="cls-39" points="88.47 59.38 56.48 40.91 56.48 40.06 88.47 58.53 88.47 59.38" />
                    <polygon class="cls-35" points="78.16 53.42 76.41 52.42 76.41 51.56 78.16 52.57 78.16 53.42" />
                    <polygon class="cls-39" points="88.47 65.95 56.48 47.48 56.48 46.63 88.47 65.1 88.47 65.95" />
                    <polygon class="cls-35" points="61.26 50.24 59.51 49.23 59.51 48.38 61.26 49.39 61.26 50.24" />
                    <polygon class="cls-39" points="88.47 72.53 56.48 54.06 56.48 53.21 88.47 71.68 88.47 72.53" />
                    <polygon class="cls-35" points="88.47 72.53 86.79 71.56 86.79 70.71 88.47 71.68 88.47 72.53" />
                    <polygon class="cls-39" points="88.47 79.11 56.48 60.64 56.48 59.78 88.47 78.25 88.47 79.11" />
                    <polygon class="cls-35" points="69.51 68.16 68 67.29 68 66.44 69.51 67.3 69.51 68.16" />
                    <polygon class="cls-39" points="88.47 85.68 56.48 67.21 56.48 66.36 88.47 84.83 88.47 85.68" />
                    <polygon class="cls-35" points="74.75 77.75 73 76.75 73 75.9 74.75 76.9 74.75 77.75" />
                    <polygon class="cls-39" points="88.47 92.26 56.48 73.79 56.48 72.93 88.47 91.41 88.47 92.26" />
                    <polygon class="cls-35" points="78.16 86.3 76.41 85.29 76.41 84.44 78.16 85.45 78.16 86.3" />
                    <polygon class="cls-39" points="88.47 98.83 56.48 80.36 56.48 79.51 88.47 97.98 88.47 98.83" />
                    <polygon class="cls-35" points="76 91.63 73.56 90.22 73.56 89.37 76 90.78 76 91.63" />
                    <polygon class="cls-39" points="88.47 105.41 56.48 86.94 56.48 86.08 88.47 104.56 88.47 105.41" />
                    <polygon class="cls-35" points="61.89 90.06 60.38 89.19 60.38 88.34 61.89 89.21 61.89 90.06" />
                    <polygon class="cls-39" points="88.47 111.98 56.48 93.51 56.48 92.66 88.47 111.13 88.47 111.98" />
                    <polygon class="cls-35" points="69.63 101.1 67.89 100.1 67.89 99.24 69.63 100.25 69.63 101.1" />
                    <polygon class="cls-39" points="88.47 118.56 56.48 100.09 56.48 99.24 88.47 117.71 88.47 118.56" />
                    <polygon class="cls-35" points="82.36 115.03 80.85 114.16 80.85 113.31 82.36 114.17 82.36 115.03" />
                    <polyline class="cls-40" points="64.7 32.74 69 39.52 79.57 45.62 83.62 43.52" />
                    <polyline class="cls-40" points="89.7 46.97 89.35 57.01 90.84 58.58 90.67 63.36 91.44 64.18" />
                    <polygon class="cls-41" points="91.96 48.44 89.35 131.13 73.97 126.38 91.96 48.44" />
                    <polygon class="cls-42" points="91.96 48.44 73.97 126.38 68.19 123.02 55.57 27.29 91.96 48.44" />
                    <polygon class="cls-43" points="55.57 27.29 52.96 109.99 68.19 123.03 55.57 27.29" />
                </g>
                <polygon class="cls-44" points="91.96 48.67 55.57 27.66 55.57 2.35 91.96 23.36 91.96 48.67" />
                <polygon class="cls-45" points="91.96 48.67 55.57 27.66 55.57 2.35 91.96 23.36 91.96 48.67" />
                <polygon class="cls-46" points="102.85 46.31 66.47 25.31 66.47 0 102.85 21.01 102.85 46.31" />
                <polygon class="cls-47" points="102.85 46.31 66.47 25.31 66.47 0 102.85 21.01 102.85 46.31" />
             
            </g>
        </g>
    </g>
</svg>