<svg xmlns="http://www.w3.org/2000/svg" xmlns:xlink="http://www.w3.org/1999/xlink" viewBox="0 0 150 126.17">
    <defs>
        <style>
            .cls-1 {
                fill: url(#未命名的渐变_127);
            }

            .cls-2,
            .cls-20 {
                fill: #cecece;
            }

            .cls-3 {
                fill: #b0b0b1;
            }

            .cls-4 {
                fill: url(#未命名的渐变_119);
            }

            .cls-5 {
                fill: url(#未命名的渐变_119-2);
            }

            .cls-6 {
                fill: url(#未命名的渐变_119-3);
            }

            .cls-7 {
                fill: url(#未命名的渐变_119-4);
            }

            .cls-8 {
                fill: url(#未命名的渐变_119-5);
            }

            .cls-9 {
                fill: url(#未命名的渐变_119-6);
            }

            .cls-10 {
                fill: url(#未命名的渐变_119-7);
            }

            .cls-11 {
                fill: url(#未命名的渐变_119-8);
            }

            .cls-12 {
                fill: url(#未命名的渐变_119-9);
            }

            .cls-13 {
                fill: url(#未命名的渐变_119-10);
            }

            .cls-14 {
                fill: url(#未命名的渐变_127-2);
            }

            .cls-15 {
                fill: #7a7a7a;
            }

            .cls-16 {
                fill: url(#未命名的渐变_127-3);
            }

            .cls-17 {
                fill: url(#未命名的渐变_127-4);
            }

            .cls-18 {
                fill: #aaa;
            }

            .cls-19 {
                fill: #373332;
            }

            .cls-20 {
                stroke: #515151;
            }

            .cls-20,
            .cls-21 {
                stroke-miterlimit: 10;
                stroke-width: 0.1px;
            }

            .cls-21 {
                fill: #b1bcbc;
                stroke: #657a7a;
            }

            .cls-22 {
                fill: #515151;
            }

            .cls-23 {
                fill: #bcbcbc;
            }

            .cls-24 {
                opacity: 0.2;
            }
        </style>
        <linearGradient id="未命名的渐变_127" x1="81.14" y1="23.84" x2="81.14" y2="30.47" gradientUnits="userSpaceOnUse">
            <stop offset="0" stop-color="#808484" />
            <stop offset="0.15" stop-color="#bfc1c1" />
            <stop offset="0.29" stop-color="#f6f6f6" />
            <stop offset="0.45" stop-color="#d3d3d3" />
            <stop offset="0.68" stop-color="#999" />
            <stop offset="1" stop-color="#666" />
        </linearGradient>
        <linearGradient id="未命名的渐变_119" x1="80.39" y1="3.31" x2="80.39" y2="11.88" gradientUnits="userSpaceOnUse">
            <stop offset="0" stop-color="#808484" />
            <stop offset="0.04" stop-color="#878b8b" />
            <stop offset="0.09" stop-color="#9c9f9f" />
            <stop offset="0.16" stop-color="#bdbfbf" />
            <stop offset="0.23" stop-color="#ebebeb" />
            <stop offset="0.25" stop-color="#f6f6f6" />
            <stop offset="0.34" stop-color="#dbdbdb" />
            <stop offset="0.47" stop-color="#b7b7b7" />
            <stop offset="0.58" stop-color="#a1a1a1" />
            <stop offset="0.65" stop-color="#999" />
            <stop offset="0.74" stop-color="#888" />
            <stop offset="0.9" stop-color="#6f6f6f" />
            <stop offset="1" stop-color="#666" />
        </linearGradient>
        <linearGradient id="未命名的渐变_119-2" x1="82.68" y1="5.3" x2="82.68" y2="9.99" xlink:href="#未命名的渐变_119" />
        <linearGradient id="未命名的渐变_119-3" x1="118.87" y1="3.31" x2="118.87" y2="11.88" xlink:href="#未命名的渐变_119" />
        <linearGradient id="未命名的渐变_119-4" x1="121.16" y1="5.3" x2="121.16" y2="9.99" xlink:href="#未命名的渐变_119" />
        <linearGradient id="未命名的渐变_119-5" x1="1043.12" y1="3.31" x2="1043.12" y2="11.88"
            gradientTransform="matrix(1, 0, 0, -1, -897.2, 15.29)" xlink:href="#未命名的渐变_119" />
        <linearGradient id="未命名的渐变_119-6" x1="1045.42" y1="5.3" x2="1045.42" y2="9.99"
            gradientTransform="matrix(1, 0, 0, -1, -901.79, 15.29)" xlink:href="#未命名的渐变_119" />
        <linearGradient id="未命名的渐变_119-7" x1="1081.61" y1="3.31" x2="1081.61" y2="11.88"
            gradientTransform="matrix(1, 0, 0, -1, -974.17, 15.29)" xlink:href="#未命名的渐变_119" />
        <linearGradient id="未命名的渐变_119-8" x1="1083.9" y1="5.3" x2="1083.9" y2="9.99"
            gradientTransform="matrix(1, 0, 0, -1, -978.75, 15.29)" xlink:href="#未命名的渐变_119" />
        <linearGradient id="未命名的渐变_119-9" x1="1119.98" y1="3.31" x2="1119.98" y2="11.88"
            gradientTransform="matrix(1, 0, 0, -1, -1050.92, 15.29)" xlink:href="#未命名的渐变_119" />
        <linearGradient id="未命名的渐变_119-10" x1="1122.28" y1="5.3" x2="1122.28" y2="9.99"
            gradientTransform="matrix(1, 0, 0, -1, -1055.51, 15.29)" xlink:href="#未命名的渐变_119" />
        <linearGradient id="未命名的渐变_127-2" x1="45.72" y1="23.86" x2="45.72" y2="32.89" xlink:href="#未命名的渐变_127" />
        <linearGradient id="未命名的渐变_127-3" x1="84.29" y1="23.86" x2="84.29" y2="32.89" xlink:href="#未命名的渐变_127" />
        <linearGradient id="未命名的渐变_127-4" x1="122.67" y1="23.86" x2="122.67" y2="32.89" xlink:href="#未命名的渐变_127" />
    </defs>
    <title>Additive injection system（添加剂注入系统）</title>
    <g id="图层_2" data-name="图层 2">
        <g id="图层_14" data-name="图层 14">
            <g id="Additive_injection_system_添加剂注入系统_" data-name="Additive injection system（添加剂注入系统）">
                <rect class="cls-1" x="12.29" y="23.84" width="137.71" height="6.63" />
                <rect class="cls-2" y="17.62" width="150" height="6.22" />
                <rect class="cls-3" y="21.5" width="150" height="1.2" />
                <polygon class="cls-2"
                    points="64.24 0 64.24 15.06 46.83 15.06 46.83 0 44.77 0 44.77 17.62 46.83 17.62 64.24 17.62 66.3 17.62 66.3 0 64.24 0" />
                <polygon class="cls-2"
                    points="64.44 0 64.44 15.06 47.03 15.06 47.03 0 44.97 0 44.97 17.62 47.03 17.62 64.44 17.62 66.5 17.62 66.5 0 64.44 0" />
                <polygon class="cls-2"
                    points="102.62 0 102.62 15.06 85.2 15.06 85.2 0 83.14 0 83.14 17.62 85.2 17.62 102.62 17.62 104.68 17.62 104.68 0 102.62 0" />
                <polygon class="cls-2"
                    points="141.1 0 141.1 15.06 123.69 15.06 123.69 0 121.63 0 121.63 17.62 123.69 17.62 141.1 17.62 143.16 17.62 143.16 0 141.1 0" />
                <rect class="cls-4" x="78.56" y="3.29" width="3.65" height="8.71" />
                <rect class="cls-5" x="82.21" y="5.3" width="0.94" height="4.68" />
                <rect class="cls-6" x="117.04" y="3.29" width="3.65" height="8.71" />
                <rect class="cls-7" x="120.69" y="5.3" width="0.94" height="4.68" />
                <rect class="cls-8" x="144.1" y="3.29" width="3.65" height="8.71"
                    transform="translate(291.84 15.29) rotate(180)" />
                <rect class="cls-9" x="143.16" y="5.3" width="0.94" height="4.68"
                    transform="translate(287.26 15.29) rotate(180)" />
                <rect class="cls-10" x="105.61" y="3.29" width="3.65" height="8.71"
                    transform="translate(214.88 15.29) rotate(180)" />
                <rect class="cls-11" x="104.68" y="5.3" width="0.94" height="4.68"
                    transform="translate(210.29 15.29) rotate(180)" />
                <rect class="cls-12" x="67.24" y="3.29" width="3.65" height="8.71"
                    transform="translate(138.12 15.29) rotate(180)" />
                <rect class="cls-13" x="66.3" y="5.3" width="0.94" height="4.68"
                    transform="translate(133.54 15.29) rotate(180)" />
                <rect class="cls-14" x="32.31" y="23.84" width="26.82" height="9.17" />
                <rect class="cls-15" x="32.31" y="30.35" width="26.82" height="2.66" />
                <rect class="cls-15" x="55.69" y="23.84" width="2.36" height="6.63" />
                <rect class="cls-15" x="33.65" y="23.84" width="4.72" height="6.63" />
                <rect class="cls-16" x="70.88" y="23.84" width="26.82" height="9.17" />
                <rect class="cls-15" x="70.88" y="30.35" width="26.82" height="2.66" />
                <rect class="cls-15" x="94.26" y="23.84" width="2.36" height="6.63" />
                <rect class="cls-15" x="72.22" y="23.84" width="4.72" height="6.63" />
                <rect class="cls-17" x="109.26" y="23.84" width="26.82" height="9.17" />
                <rect class="cls-15" x="109.26" y="30.35" width="26.82" height="2.66" />
                <rect class="cls-15" x="132.64" y="23.84" width="2.36" height="6.63" />
                <rect class="cls-15" x="110.6" y="23.84" width="4.72" height="6.63" />
                <rect class="cls-2" y="33.01" width="150" height="38.68" />
                <rect class="cls-3" y="52.85" width="150" height="4.65" />
                <rect class="cls-2" y="115.09" width="150" height="4.65" />
                <rect class="cls-18" x="47.43" y="34.52" width="11.7" height="16.53" />
                <rect class="cls-19" x="48.31" y="36.56" width="9.94" height="12.45" />
                <rect class="cls-20" x="49.47" y="38.63" width="7.63" height="1.91" />
                <rect class="cls-21" x="49.47" y="42.4" width="2.07" height="2.07" />
                <rect class="cls-21" x="52.24" y="42.4" width="2.07" height="2.07" />
                <rect class="cls-21" x="55.02" y="42.4" width="2.07" height="2.07" />
                <rect class="cls-21" x="49.47" y="45.67" width="2.07" height="2.07" />
                <rect class="cls-21" x="52.24" y="45.67" width="2.07" height="2.07" />
                <rect class="cls-21" x="55.02" y="45.67" width="2.07" height="2.07" />
                <rect class="cls-18" x="89.6" y="34.52" width="11.7" height="16.53" />
                <rect class="cls-19" x="90.48" y="36.56" width="9.94" height="12.45" />
                <rect class="cls-20" x="91.64" y="38.63" width="7.63" height="1.91" />
                <rect class="cls-21" x="91.64" y="42.4" width="2.07" height="2.07" />
                <rect class="cls-21" x="94.42" y="42.4" width="2.07" height="2.07" />
                <rect class="cls-21" x="97.19" y="42.4" width="2.07" height="2.07" />
                <rect class="cls-21" x="91.64" y="45.67" width="2.07" height="2.07" />
                <rect class="cls-21" x="94.42" y="45.67" width="2.07" height="2.07" />
                <rect class="cls-21" x="97.19" y="45.67" width="2.07" height="2.07" />
                <rect class="cls-18" x="131.77" y="34.52" width="11.7" height="16.53" />
                <rect class="cls-19" x="132.65" y="36.56" width="9.94" height="12.45" />
                <rect class="cls-20" x="133.81" y="38.63" width="7.63" height="1.91" />
                <rect class="cls-21" x="133.81" y="42.4" width="2.07" height="2.07" />
                <rect class="cls-21" x="136.59" y="42.4" width="2.07" height="2.07" />
                <rect class="cls-21" x="139.36" y="42.4" width="2.07" height="2.07" />
                <rect class="cls-21" x="133.81" y="45.67" width="2.07" height="2.07" />
                <rect class="cls-21" x="136.59" y="45.67" width="2.07" height="2.07" />
                <rect class="cls-21" x="139.36" y="45.67" width="2.07" height="2.07" />
                <rect class="cls-2" x="145.73" y="71.06" width="4.27" height="55.11" />
                <path class="cls-22"
                    d="M20.88,98.61h1.6a.31.31,0,0,1,.31.31v13.39a0,0,0,0,1,0,0H20.57a0,0,0,0,1,0,0V98.93a.31.31,0,0,1,.31-.31Z" />
                <polygon class="cls-22" points="23.78 115.09 19.57 115.09 20.57 112.32 22.79 112.32 23.78 115.09" />
                <rect class="cls-23" x="20.57" y="112.01" width="2.22" height="0.3" />
                <path class="cls-22"
                    d="M74.2,98.61h1.6a.31.31,0,0,1,.31.31v13.39a0,0,0,0,1,0,0H73.89a0,0,0,0,1,0,0V98.93A.31.31,0,0,1,74.2,98.61Z" />
                <polygon class="cls-22" points="77.11 115.09 72.89 115.09 73.89 112.32 76.11 112.32 77.11 115.09" />
                <rect class="cls-23" x="73.89" y="112.01" width="2.22" height="0.3" />
                <path class="cls-22"
                    d="M127.52,98.61h1.6a.31.31,0,0,1,.31.31v13.39a0,0,0,0,1,0,0h-2.22a0,0,0,0,1,0,0V98.93a.31.31,0,0,1,.31-.31Z" />
                <polygon class="cls-22"
                    points="130.43 115.09 126.22 115.09 127.21 112.32 129.43 112.32 130.43 115.09" />
                <rect class="cls-23" x="127.21" y="112.01" width="2.22" height="0.3" />
                
            </g>
        </g>
    </g>
</svg>