<svg xmlns="http://www.w3.org/2000/svg" xmlns:xlink="http://www.w3.org/1999/xlink" viewBox="0 0 77.06 150.03">
    <defs>
        <style>
            .cls-1 {
                fill: url(#未命名的渐变_119);
            }

            .cls-2 {
                fill: url(#未命名的渐变_119-2);
            }

            .cls-3 {
                fill: #b0b0b1;
            }

            .cls-4 {
                fill: url(#未命名的渐变_119-3);
            }

            .cls-5 {
                fill: none;
                stroke: #cecece;
                stroke-miterlimit: 10;
                stroke-width: 3px;
            }

            .cls-6 {
                fill: #cecece;
            }

            .cls-7 {
                opacity: 0.2;
            }
        </style>
        <linearGradient id="未命名的渐变_119" x1="13.29" y1="26.35" x2="15.71" y2="26.35" gradientUnits="userSpaceOnUse">
            <stop offset="0" stop-color="#808484" />
            <stop offset="0.04" stop-color="#878b8b" />
            <stop offset="0.09" stop-color="#9c9f9f" />
            <stop offset="0.16" stop-color="#bdbfbf" />
            <stop offset="0.23" stop-color="#ebebeb" />
            <stop offset="0.25" stop-color="#f6f6f6" />
            <stop offset="0.34" stop-color="#dbdbdb" />
            <stop offset="0.47" stop-color="#b7b7b7" />
            <stop offset="0.58" stop-color="#a1a1a1" />
            <stop offset="0.65" stop-color="#999" />
            <stop offset="0.74" stop-color="#888" />
            <stop offset="0.9" stop-color="#6f6f6f" />
            <stop offset="1" stop-color="#666" />
        </linearGradient>
        <linearGradient id="未命名的渐变_119-2" x1="46.77" y1="26" x2="49.19" y2="26" xlink:href="#未命名的渐变_119" />
        <linearGradient id="未命名的渐变_119-3" x1="27.43" y1="27.36" x2="34.66" y2="27.36" xlink:href="#未命名的渐变_119" />
    </defs>
    <title>Baling press（打包机）</title>
    <g id="图层_2" data-name="图层 2">
        <g id="图层_14" data-name="图层 14">
            <g id="Baling_press_打包机_" data-name="Baling press（打包机）">
                <rect class="cls-1" x="13.29" y="0.35" width="2.42" height="52" />
                <rect class="cls-2" x="46.77" width="2.42" height="52" />
                <rect class="cls-3" x="62.04" y="39.85" width="15.02" height="29.83" />
                <path class="cls-4"
                    d="M28.2,2h5.7a.76.76,0,0,1,.76.76V52.68a0,0,0,0,1,0,0H27.46a0,0,0,0,1,0,0V2.77A.76.76,0,0,1,28.2,2Z" />
                <rect class="cls-5" x="1.5" y="33.93" width="58.99" height="114.6" />
                <rect class="cls-6" x="9.4" y="52.36" width="43.51" height="91.53" />
                <rect class="cls-3" x="28.65" y="124.76" width="5.63" height="3.77" />
                <rect class="cls-3" x="20.5" y="103.35" width="5.63" height="4" />
                <rect class="cls-3" x="28.65" y="110.64" width="5.63" height="3.77" />
                <rect class="cls-3" x="28.65" y="117.7" width="5.63" height="3.77" />
                <rect class="cls-3" x="20.5" y="110.64" width="5.63" height="3.77" />
                <rect class="cls-3" x="20.5" y="124.76" width="5.63" height="3.77" />
                <rect class="cls-3" x="20.5" y="117.7" width="5.63" height="3.77" />
                <rect class="cls-3" x="36.8" y="110.64" width="5.63" height="3.77" />
                <rect class="cls-3" x="28.65" y="103.35" width="5.63" height="4" />
                <rect class="cls-3" x="36.8" y="103.35" width="5.63" height="4" />
                <rect class="cls-3" x="36.8" y="124.76" width="5.63" height="3.77" />
                <rect class="cls-3" x="36.8" y="117.7" width="5.63" height="3.77" />
                <rect class="cls-3" x="44.94" y="103.35" width="6" height="4" />
                <rect class="cls-3" x="28.65" y="131.83" width="5.63" height="4.09" />
                <rect class="cls-3" x="44.94" y="131.83" width="6" height="4.09" />
                <rect class="cls-3" x="36.8" y="131.83" width="5.63" height="4.09" />
                <rect class="cls-3" x="44.94" y="124.76" width="6" height="3.77" />
                <rect class="cls-3" x="44.94" y="110.64" width="6" height="3.77" />
                <rect class="cls-3" x="44.94" y="117.7" width="6" height="3.77" />
                <rect class="cls-3" x="11.89" y="131.83" width="6.11" height="4.09" />
                <rect class="cls-3" x="11.89" y="117.7" width="6.11" height="3.77" />
                <rect class="cls-3" x="20.5" y="131.83" width="5.63" height="4.09" />
                <rect class="cls-3" x="11.89" y="110.64" width="6.11" height="3.77" />
                <rect class="cls-3" x="11.89" y="124.76" width="6.11" height="3.77" />
                <rect class="cls-3" x="11.89" y="103.35" width="6.11" height="4" />
                <rect class="cls-3" x="17.82" y="61.37" width="26.95" height="13.47" />
                <rect class="cls-3" x="9.47" y="79.35" width="43.48" height="3.16" />
                <rect class="cls-3" x="9.4" y="140.41" width="43.51" height="3.16" />
                <path class="cls-3"
                    d="M11.89,85.1V98.79H50.94V85.1ZM30.34,97.17H14V86.72H30.34Zm18.6,0H32.59V86.72H48.94Z" />
                <rect class="cls-3" x="52.73" y="86.99" width="5.16" height="5.16" />
                <rect class="cls-3" x="57.52" y="85.27" width="3.32" height="8.58" />
                <rect class="cls-3" x="52.73" y="130.09" width="5.16" height="5.16" />
                <rect class="cls-3" x="57.52" y="128.37" width="3.32" height="8.58" />
                <rect class="cls-3" x="4.1" y="86.99" width="5.16" height="5.16"
                    transform="translate(13.35 179.14) rotate(180)" />
                <rect class="cls-3" x="1.15" y="85.27" width="3.32" height="8.58"
                    transform="translate(5.61 179.12) rotate(180)" />
                <rect class="cls-3" x="4.1" y="130.09" width="5.16" height="5.16"
                    transform="translate(13.35 265.34) rotate(180)" />
                <rect class="cls-3" x="1.15" y="128.37" width="3.32" height="8.58"
                    transform="translate(5.61 265.32) rotate(180)" />
                
            </g>
        </g>
    </g>
</svg>