<svg xmlns="http://www.w3.org/2000/svg" xmlns:xlink="http://www.w3.org/1999/xlink" viewBox="0 0 150 117.28">
    <defs>
        <style>
            .cls-1 {
                fill: #b0b0b1;
            }

            .cls-2 {
                fill: #cecece;
            }

            .cls-3 {
                fill: url(#未命名的渐变_143);
            }

            .cls-4 {
                fill: url(#未命名的渐变_147);
            }

            .cls-5 {
                fill: url(#未命名的渐变_147-2);
            }

            .cls-6 {
                fill: url(#未命名的渐变_147-3);
            }

            .cls-7 {
                fill: url(#未命名的渐变_143-2);
            }

            .cls-8 {
                fill: url(#未命名的渐变_143-3);
            }

            .cls-9 {
                fill: url(#未命名的渐变_143-4);
            }

            .cls-10 {
                fill: url(#未命名的渐变_143-5);
            }

            .cls-11 {
                opacity: 0.2;
            }
        </style>
        <linearGradient id="未命名的渐变_143" x1="25.45" y1="30.06" x2="25.45" y2="11.1" gradientUnits="userSpaceOnUse">
            <stop offset="0" stop-color="#b7b7b7" />
            <stop offset="0.03" stop-color="#9b9d9d" />
            <stop offset="0.07" stop-color="#878b8b" />
            <stop offset="0.09" stop-color="#808484" />
            <stop offset="0.2" stop-color="#a3a6a6" />
            <stop offset="0.49" stop-color="#f6f6f6" />
            <stop offset="0.61" stop-color="#f3f3f3" />
            <stop offset="0.7" stop-color="#eaeaea" />
            <stop offset="0.77" stop-color="#dbdbdb" />
            <stop offset="0.83" stop-color="#c5c5c5" />
            <stop offset="0.9" stop-color="#aaa" />
            <stop offset="0.95" stop-color="#888" />
            <stop offset="1" stop-color="#666" />
        </linearGradient>
        <linearGradient id="未命名的渐变_147" x1="39.57" y1="10.65" x2="39.57" y2="30.52" gradientUnits="userSpaceOnUse">
            <stop offset="0" stop-color="#808484" />
            <stop offset="0.05" stop-color="#9c9f9f" />
            <stop offset="0.13" stop-color="#bcbebe" />
            <stop offset="0.2" stop-color="#d6d7d7" />
            <stop offset="0.28" stop-color="#e8e8e8" />
            <stop offset="0.36" stop-color="#f3f3f3" />
            <stop offset="0.46" stop-color="#f6f6f6" />
            <stop offset="0.54" stop-color="#dbdbdb" />
            <stop offset="0.65" stop-color="#b7b7b7" />
            <stop offset="0.75" stop-color="#a1a1a1" />
            <stop offset="0.81" stop-color="#999" />
            <stop offset="0.86" stop-color="#888" />
            <stop offset="0.95" stop-color="#6f6f6f" />
            <stop offset="1" stop-color="#666" />
        </linearGradient>
        <linearGradient id="未命名的渐变_147-2" x1="20.93" y1="10.65" x2="20.93" y2="30.52" xlink:href="#未命名的渐变_147" />
        <linearGradient id="未命名的渐变_147-3" x1="45.47" y1="13.82" x2="45.47" y2="27.35" xlink:href="#未命名的渐变_147" />
        <linearGradient id="未命名的渐变_143-2" x1="46.74" y1="25.73" x2="46.74" y2="15.43" xlink:href="#未命名的渐变_143" />
        <linearGradient id="未命名的渐变_143-3" x1="51.08" y1="22.53" x2="51.08" y2="18.64" xlink:href="#未命名的渐变_143" />
        <linearGradient id="未命名的渐变_143-4" x1="42.81" y1="29.51" x2="42.81" y2="11.65" xlink:href="#未命名的渐变_143" />
        <linearGradient id="未命名的渐变_143-5" x1="48.16" y1="23.35" x2="48.16" y2="17.81" xlink:href="#未命名的渐变_143" />
    </defs>
    <title>Horizontal baler（卧式打捆机）</title>
    <g id="图层_2" data-name="图层 2">
        <g id="图层_14" data-name="图层 14">
            <g id="Horizontal_baler_卧式打捆机_" data-name="Horizontal baler（卧式打捆机）">
                <rect class="cls-1" x="141.64" width="8.36" height="117.28" />
                <rect class="cls-1" y="55.45" width="141.64" height="60.98" />
                <rect class="cls-2" x="38.88" y="99.54" width="9.14" height="6.13" />
                <rect class="cls-2" x="27.94" y="66.45" width="9.14" height="6.41" />
                <rect class="cls-2" x="27.94" y="91.27" width="9.14" height="6.41" />
                <rect class="cls-2" x="27.94" y="74.72" width="9.14" height="6.41" />
                <rect class="cls-2" x="38.88" y="83" width="9.14" height="6.41" />
                <rect class="cls-2" x="38.88" y="66.45" width="9.14" height="6.41" />
                <rect class="cls-2" x="38.88" y="74.72" width="9.14" height="6.41" />
                <rect class="cls-2" x="38.88" y="91.27" width="9.14" height="6.41" />
                <rect class="cls-2" x="27.94" y="99.54" width="9.14" height="6.13" />
                <rect class="cls-2" x="27.94" y="83" width="9.14" height="6.41" />
                <rect class="cls-2" x="17" y="91.27" width="9.14" height="6.41" />
                <rect class="cls-2" x="71.71" y="83" width="69.94" height="6.41" />
                <rect class="cls-2" x="71.71" y="74.72" width="69.94" height="6.41" />
                <rect class="cls-2" x="71.71" y="58.64" width="69.94" height="5.95" />
                <rect class="cls-2" x="71.71" y="66.45" width="69.94" height="6.41" />
                <rect class="cls-2" x="17" y="99.54" width="9.14" height="6.13" />
                <rect class="cls-2" x="71.71" y="91.27" width="69.94" height="6.41" />
                <rect class="cls-2" x="17" y="66.45" width="9.14" height="6.41" />
                <rect class="cls-2" x="60.76" y="58.64" width="9.14" height="5.95" />
                <rect class="cls-2" x="17" y="74.72" width="9.14" height="6.41" />
                <rect class="cls-2" x="17" y="83" width="9.14" height="6.41" />
                <rect class="cls-2" x="60.76" y="83" width="9.14" height="6.41" />
                <rect class="cls-2" x="5.52" y="74.72" width="9.67" height="6.41" />
                <rect class="cls-2" x="5.52" y="66.45" width="9.67" height="6.41" />
                <rect class="cls-2" x="5.52" y="58.64" width="9.67" height="5.95" />
                <rect class="cls-2" x="27.94" y="58.64" width="9.14" height="5.95" />
                <rect class="cls-2" x="17" y="58.64" width="9.14" height="5.95" />
                <rect class="cls-2" x="71.71" y="99.54" width="69.94" height="6.13" />
                <rect class="cls-2" x="49.82" y="83" width="9.14" height="6.41" />
                <rect class="cls-2" x="5.52" y="83" width="9.67" height="6.41" />
                <rect class="cls-2" x="5.52" y="99.54" width="9.67" height="6.13" />
                <rect class="cls-2" x="5.52" y="91.27" width="9.67" height="6.41" />
                <rect class="cls-2" x="38.88" y="58.64" width="9.14" height="5.95" />
                <rect class="cls-2" x="49.82" y="99.54" width="9.14" height="6.13" />
                <rect class="cls-2" x="49.82" y="74.72" width="9.14" height="6.41" />
                <rect class="cls-2" x="49.82" y="66.45" width="9.14" height="6.41" />
                <rect class="cls-2" x="49.82" y="58.64" width="9.14" height="5.95" />
                <rect class="cls-2" x="49.82" y="91.27" width="9.14" height="6.41" />
                <rect class="cls-2" x="60.76" y="66.45" width="9.14" height="6.41" />
                <rect class="cls-2" x="60.76" y="99.54" width="9.14" height="6.13" />
                <rect class="cls-2" x="60.76" y="91.27" width="9.14" height="6.41" />
                <rect class="cls-2" x="60.76" y="74.72" width="9.14" height="6.41" />
                <rect class="cls-2" x="69.26" y="5.74" width="63.24" height="3.54" />
                <rect class="cls-1" x="73.73" y="52.41" width="54.82" height="3.05" />
                <rect class="cls-2" x="4.14" y="52.41" width="56.3" height="3.05" />
                <rect class="cls-1" x="70.54" y="9.28" width="61.54" height="23.58" />
                <rect class="cls-1" x="5.52" y="30.06" width="53.43" height="22.34" />
                <polygon class="cls-2" points="132.08 32.86 70.54 32.86 73.94 52.41 128.47 52.41 132.08 32.86" />
                <rect class="cls-2" x="6.8" y="10.73" width="4.5" height="19.33" />
                <rect class="cls-2" x="53.33" y="10.73" width="4.5" height="19.33" />
                <path class="cls-3" d="M39.62,30.06H13.69L12.78,28A17.87,17.87,0,0,1,14.16,11.1h0l25.46.23Z" />
                <rect class="cls-4" x="38.46" y="10.65" width="2.23" height="19.87" />
                <rect class="cls-5" x="19.81" y="10.65" width="2.23" height="19.87" />
                <rect class="cls-6" x="44.94" y="13.82" width="1.06" height="13.53" />
                <rect class="cls-7" x="46" y="15.43" width="1.49" height="10.3" />
                <rect class="cls-8" x="48.83" y="18.64" width="4.5" height="3.9" />
                <path class="cls-9" d="M44.94,26.91a10.27,10.27,0,0,1-4.25,2.6V11.65A9.94,9.94,0,0,1,44.94,14Z" />
                <path class="cls-10" d="M48.83,22.55a3.18,3.18,0,0,1-1.34.8V17.81a3.08,3.08,0,0,1,1.34.74Z" />
                
            </g>
        </g>
    </g>
</svg>