<svg xmlns="http://www.w3.org/2000/svg" xmlns:xlink="http://www.w3.org/1999/xlink" viewBox="0 0 124.44 149.72">
    <defs>
        <style>
            .cls-1 {
                fill: #cecece;
            }

            .cls-2 {
                fill: url(#未命名的渐变_147);
            }

            .cls-3 {
                fill: #b0b0b1;
            }

            .cls-4 {
                fill: #5b5b5b;
            }

            .cls-5 {
                opacity: 0.2;
            }
        </style>
        <linearGradient id="未命名的渐变_147" x1="100.23" y1="44.35" x2="100.23" y2="74.48" gradientUnits="userSpaceOnUse">
            <stop offset="0" stop-color="#808484" />
            <stop offset="0.05" stop-color="#9c9f9f" />
            <stop offset="0.13" stop-color="#bcbebe" />
            <stop offset="0.2" stop-color="#d6d7d7" />
            <stop offset="0.28" stop-color="#e8e8e8" />
            <stop offset="0.36" stop-color="#f3f3f3" />
            <stop offset="0.46" stop-color="#f6f6f6" />
            <stop offset="0.54" stop-color="#dbdbdb" />
            <stop offset="0.65" stop-color="#b7b7b7" />
            <stop offset="0.75" stop-color="#a1a1a1" />
            <stop offset="0.81" stop-color="#999" />
            <stop offset="0.86" stop-color="#888" />
            <stop offset="0.95" stop-color="#6f6f6f" />
            <stop offset="1" stop-color="#666" />
        </linearGradient>
    </defs>
    <title>Simple extruder（简易挤出机）</title>
    <g id="图层_2" data-name="图层 2">
        <g id="图层_14" data-name="图层 14">
            <g id="Simple_extruder_简易挤出机_" data-name="Simple extruder（简易挤出机）">
                <rect class="cls-1" x="13.98" y="137.6" width="88.92" height="10.1" />
                <rect class="cls-2" x="95.33" y="44.35" width="9.81" height="30.13" />
                <rect class="cls-1" x="-21.24" y="105.6" width="75.33" height="10.74"
                    transform="translate(127.39 94.54) rotate(90)" />
                <rect class="cls-1" x="104.51" y="42.64" width="19.92" height="107.08" />
                <rect class="cls-1" x="11.83" y="73.37" width="97.35" height="9.11" />
                <rect class="cls-3" x="62.49" width="51.36" height="14.16" />
                <polygon class="cls-3" points="94.32 39.38 81.93 39.38 62.78 14.16 114.14 14.16 94.32 39.38" />
                <polygon class="cls-3"
                    points="8.25 43.34 7 43.34 0 43.34 0 68.4 7 68.4 7 73.3 96.27 73.3 96.27 43.34 8.25 43.34" />
                <rect class="cls-4" x="7.16" y="48.47" width="89.11" height="19.7" />
                <rect class="cls-4" x="80.84" y="39.38" width="14.49" height="3.96" />
                <rect class="cls-4" x="85.81" y="15.29" width="4.55" height="15.88" />
                
            </g>
        </g>
    </g>
</svg>