<svg xmlns="http://www.w3.org/2000/svg" xmlns:xlink="http://www.w3.org/1999/xlink" viewBox="0 0 150 150">
    <defs>
        <style>
            .cls-1,
            .cls-2 {
                fill: none;
            }

            .cls-2 {
                stroke: #fff;
                stroke-miterlimit: 10;
                stroke-width: 0.1px;
            }

            .cls-3 {
                opacity: 0;
            }

            .cls-4 {
                fill: #000714;
            }

            .cls-5 {
                opacity: 0.1;
                fill: url(#新建图案);
            }

            .cls-6 {
                isolation: isolate;
            }

            .cls-7 {
                fill: url(#未命名的渐变_124);
            }

            .cls-8 {
                fill: #bdbdbd;
            }

            .cls-9 {
                fill: url(#未命名的渐变_13);
            }

            .cls-10 {
                fill: url(#未命名的渐变_124-2);
            }

            .cls-11 {
                fill: #828282;
            }

            .cls-12 {
                fill: #88abe6;
            }

            .cls-13 {
                fill: #45556a;
            }

            .cls-14 {
                fill: url(#未命名的渐变_124-3);
            }

            .cls-15 {
                fill: #fcfcfc;
            }

            .cls-16 {
                fill: #818181;
            }

            .cls-17 {
                fill: url(#未命名的渐变_124-4);
            }

            .cls-18 {
                fill: url(#未命名的渐变_124-5);
            }

            .cls-19 {
                fill: #f3f3f3;
            }

            .cls-20 {
                fill: url(#未命名的渐变_13-2);
            }

            .cls-21 {
                fill: url(#未命名的渐变_114);
            }

            .cls-22 {
                fill: url(#未命名的渐变_124-6);
            }

            .cls-23 {
                fill: url(#未命名的渐变_13-3);
            }

            .cls-24 {
                fill: url(#未命名的渐变_114-2);
            }

            .cls-25 {
                fill: url(#未命名的渐变_80);
            }

            .cls-26 {
                fill: url(#未命名的渐变_1707);
            }

            .cls-27 {
                fill: url(#未命名的渐变_164);
            }

            .cls-28 {
                fill: url(#未命名的渐变_80-2);
            }

            .cls-29 {
                fill: url(#未命名的渐变_1707-2);
            }

            .cls-30 {
                fill: url(#未命名的渐变_80-3);
            }

            .cls-31 {
                fill: url(#未命名的渐变_1707-3);
            }

            .cls-32 {
                fill: url(#未命名的渐变_164-2);
            }

            .cls-33 {
                fill: url(#未命名的渐变_80-4);
            }

            .cls-34 {
                fill: url(#未命名的渐变_1707-4);
            }

            .cls-35 {
                fill: #151a21;
            }

            .cls-36 {
                fill: url(#未命名的渐变_80-5);
            }

            .cls-37 {
                fill: url(#未命名的渐变_1707-5);
            }

            .cls-38 {
                fill: url(#未命名的渐变_164-3);
            }

            .cls-39 {
                fill: url(#未命名的渐变_80-6);
            }

            .cls-40 {
                fill: url(#未命名的渐变_1707-6);
            }

            .cls-41 {
                fill: url(#未命名的渐变_80-7);
            }

            .cls-42 {
                fill: url(#未命名的渐变_1707-7);
            }

            .cls-43 {
                fill: url(#未命名的渐变_164-4);
            }

            .cls-44 {
                fill: url(#未命名的渐变_80-8);
            }

            .cls-45 {
                fill: url(#未命名的渐变_1707-8);
            }

            .cls-46 {
                fill: #7696cb;
            }

            .cls-47 {
                fill: #6e8bbd;
            }

            .cls-48 {
                fill: url(#未命名的渐变_124-7);
            }

            .cls-49 {
                fill: url(#未命名的渐变_114-3);
            }

            .cls-50 {
                fill: url(#未命名的渐变_124-8);
            }

            .cls-51 {
                fill: #4e5f79;
            }

            .cls-52 {
                fill: url(#未命名的渐变_124-9);
            }

            .cls-53 {
                fill: url(#未命名的渐变_13-4);
            }

            .cls-54 {
                fill: url(#未命名的渐变_124-10);
            }

            .cls-55 {
                fill: url(#未命名的渐变_114-4);
            }

            .cls-56 {
                fill: url(#未命名的渐变_124-11);
            }

            .cls-57 {
                opacity: 0.2;
            }
        </style>
        <pattern id="新建图案" data-name="新建图案" width="18.57" height="32.16" patternTransform="translate(2828.51 1160.4)"
            patternUnits="userSpaceOnUse" viewBox="0 0 18.57 32.16">
            <rect class="cls-1" width="18.57" height="32.16" />
            <polyline class="cls-2" points="18.57 21.44 18.57 32.16 18.57 42.88" />
            <polyline class="cls-2" points="9.29 26.8 18.57 32.16 27.85 37.51 27.85 37.52" />
            <polyline class="cls-2" points="9.29 37.52 9.29 37.51 18.57 32.16 27.85 26.8" />
            <polygon class="cls-2"
                points="27.85 37.52 27.85 26.8 18.57 21.44 9.28 26.8 9.28 37.52 18.57 42.88 27.85 37.52" />
            <polyline class="cls-2" points="0 21.44 0 32.16 0 42.88" />
            <polyline class="cls-2" points="-9.28 26.8 0 32.16 9.28 37.51 9.28 37.52" />
            <polyline class="cls-2" points="-9.28 37.52 -9.28 37.51 0 32.16 9.28 26.8" />
            <polygon class="cls-2" points="9.28 37.52 9.28 26.8 0 21.44 -9.29 26.8 -9.29 37.52 0 42.88 9.28 37.52" />
            <polyline class="cls-2" points="18.57 10.72 27.85 16.08 37.13 21.43 37.13 21.44" />
            <polyline class="cls-2" points="18.57 21.44 18.57 21.43 27.85 16.08 37.13 10.72" />
            <polygon class="cls-2"
                points="37.14 21.44 37.14 10.72 27.85 5.36 18.57 10.72 18.57 21.44 27.85 26.8 37.14 21.44" />
            <polyline class="cls-2" points="9.29 5.36 9.29 16.08 9.29 26.8" />
            <polyline class="cls-2" points="0.01 10.72 9.29 16.08 18.57 21.43 18.57 21.44" />
            <polyline class="cls-2" points="0.01 21.44 0.01 21.43 9.29 16.08 18.57 10.72" />
            <polygon class="cls-2" points="18.57 21.44 18.57 10.72 9.28 5.36 0 10.72 0 21.44 9.28 26.8 18.57 21.44" />
            <polyline class="cls-2" points="-18.56 10.72 -9.28 16.08 0 21.43 0 21.44" />
            <polyline class="cls-2" points="-18.56 21.44 -18.56 21.43 -9.28 16.08 0 10.72" />
            <polygon class="cls-2" points="0 21.44 0 10.72 -9.29 5.36 -18.57 10.72 -18.57 21.44 -9.29 26.8 0 21.44" />
            <polyline class="cls-2" points="18.57 -10.72 18.57 0 18.57 10.72" />
            <polyline class="cls-2" points="9.29 -5.36 18.57 0 27.85 5.35 27.85 5.36" />
            <polyline class="cls-2" points="9.29 5.36 9.29 5.35 18.57 0 27.85 -5.36" />
            <polygon class="cls-2"
                points="27.85 5.36 27.85 -5.36 18.57 -10.72 9.28 -5.36 9.28 5.36 18.57 10.72 27.85 5.36" />
            <polyline class="cls-2" points="0 -10.72 0 0 0 10.72" />
            <polyline class="cls-2" points="-9.28 -5.36 0 0 9.28 5.35 9.28 5.36" />
            <polyline class="cls-2" points="-9.28 5.36 -9.28 5.35 0 0 9.28 -5.36" />
            <polygon class="cls-2" points="9.28 5.36 9.28 -5.36 0 -10.72 -9.29 -5.36 -9.29 5.36 0 10.72 9.28 5.36" />
        </pattern>
        <linearGradient id="未命名的渐变_124" x1="51.23" y1="83.97" x2="68.33" y2="66.87" gradientUnits="userSpaceOnUse">
            <stop offset="0" stop-color="#283140" />
            <stop offset="1" stop-color="#12161a" />
        </linearGradient>
        <linearGradient id="未命名的渐变_13" x1="48.99" y1="74.21" x2="69.96" y2="74.21" gradientUnits="userSpaceOnUse">
            <stop offset="0" stop-color="#89abe6" />
            <stop offset="1" stop-color="#547099" />
        </linearGradient>
        <linearGradient id="未命名的渐变_124-2" x1="39.66" y1="117.48" x2="77.91" y2="79.23" xlink:href="#未命名的渐变_124" />
        <linearGradient id="未命名的渐变_124-3" x1="56.07" y1="99.09" x2="61.5" y2="93.66" xlink:href="#未命名的渐变_124" />
        <linearGradient id="未命名的渐变_124-4" x1="34.16" y1="69.04" x2="83.42" y2="19.78" xlink:href="#未命名的渐变_124" />
        <linearGradient id="未命名的渐变_124-5" x1="50.27" y1="49.88" x2="67.3" y2="32.85" xlink:href="#未命名的渐变_124" />
        <linearGradient id="未命名的渐变_13-2" x1="48.34" y1="117.32" x2="71.51" y2="117.32" xlink:href="#未命名的渐变_13" />
        <linearGradient id="未命名的渐变_114" x1="97.81" y1="85.71" x2="42.53" y2="30.43" gradientUnits="userSpaceOnUse">
            <stop offset="0" stop-color="#425266" />
            <stop offset="1" stop-color="#596b8c" />
        </linearGradient>
        <linearGradient id="未命名的渐变_124-6" x1="22.95" y1="102.77" x2="98.96" y2="26.76" xlink:href="#未命名的渐变_124" />
        <linearGradient id="未命名的渐变_13-3" x1="45.64" y1="8.07" x2="73.58" y2="8.07" xlink:href="#未命名的渐变_13" />
        <linearGradient id="未命名的渐变_114-2" x1="76" y1="100.47" x2="17.96" y2="42.44" xlink:href="#未命名的渐变_114" />
        <linearGradient id="未命名的渐变_80" x1="59.39" y1="9.73" x2="57.83" y2="7.02" gradientUnits="userSpaceOnUse">
            <stop offset="0" stop-color="#1b212c" />
            <stop offset="0.1" stop-color="#12161a" />
            <stop offset="0.75" stop-color="#53678b" />
            <stop offset="0.85" stop-color="#53678b" />
            <stop offset="1" stop-color="#262f3d" />
        </linearGradient>
        <linearGradient id="未命名的渐变_1707" x1="58.62" y1="10.08" x2="56.46" y2="7.92" gradientUnits="userSpaceOnUse">
            <stop offset="0" stop-color="#2d3845" />
            <stop offset="1" stop-color="#3d495f" />
        </linearGradient>
        <linearGradient id="未命名的渐变_164" x1="57.14" y1="10.39" x2="56.13" y2="8.65" gradientUnits="userSpaceOnUse">
            <stop offset="0" stop-color="#0073e6" />
            <stop offset="0.15" stop-color="#1433cc" />
            <stop offset="0.7" stop-color="#59c8ff" />
            <stop offset="0.9" stop-color="#59c8ff" />
            <stop offset="1" stop-color="#2596f0" />
        </linearGradient>
        <linearGradient id="未命名的渐变_80-2" x1="55.72" y1="11.87" x2="54.15" y2="9.16" xlink:href="#未命名的渐变_80" />
        <linearGradient id="未命名的渐变_1707-2" x1="54.94" y1="12.21" x2="52.78" y2="10.05" xlink:href="#未命名的渐变_1707" />
        <linearGradient id="未命名的渐变_80-3" x1="59.39" y1="85.52" x2="57.83" y2="82.81" xlink:href="#未命名的渐变_80" />
        <linearGradient id="未命名的渐变_1707-3" x1="58.62" y1="85.86" x2="56.46" y2="83.7" xlink:href="#未命名的渐变_1707" />
        <linearGradient id="未命名的渐变_164-2" x1="57.14" y1="86.18" x2="56.13" y2="84.44" xlink:href="#未命名的渐变_164" />
        <linearGradient id="未命名的渐变_80-4" x1="55.72" y1="87.65" x2="54.15" y2="84.94" xlink:href="#未命名的渐变_80" />
        <linearGradient id="未命名的渐变_1707-4" x1="54.94" y1="88" x2="52.78" y2="85.84" xlink:href="#未命名的渐变_1707" />
        <linearGradient id="未命名的渐变_80-5" x1="66.86" y1="5.44" x2="65.3" y2="2.73" xlink:href="#未命名的渐变_80" />
        <linearGradient id="未命名的渐变_1707-5" x1="66.09" y1="5.79" x2="63.93" y2="3.63" xlink:href="#未命名的渐变_1707" />
        <linearGradient id="未命名的渐变_164-3" x1="64.61" y1="6.1" x2="63.6" y2="4.36" xlink:href="#未命名的渐变_164" />
        <linearGradient id="未命名的渐变_80-6" x1="63.19" y1="7.58" x2="61.62" y2="4.87" xlink:href="#未命名的渐变_80" />
        <linearGradient id="未命名的渐变_1707-6" x1="62.41" y1="7.92" x2="60.25" y2="5.76" xlink:href="#未命名的渐变_1707" />
        <linearGradient id="未命名的渐变_80-7" x1="66.86" y1="81.23" x2="65.3" y2="78.52" xlink:href="#未命名的渐变_80" />
        <linearGradient id="未命名的渐变_1707-7" x1="66.09" y1="81.57" x2="63.93" y2="79.41" xlink:href="#未命名的渐变_1707" />
        <linearGradient id="未命名的渐变_164-4" x1="64.61" y1="81.89" x2="63.6" y2="80.15" xlink:href="#未命名的渐变_164" />
        <linearGradient id="未命名的渐变_80-8" x1="63.19" y1="83.36" x2="61.62" y2="80.65" xlink:href="#未命名的渐变_80" />
        <linearGradient id="未命名的渐变_1707-8" x1="62.41" y1="83.71" x2="60.25" y2="81.55" xlink:href="#未命名的渐变_1707" />
        <linearGradient id="未命名的渐变_124-7" x1="74.53" y1="102.87" x2="90.52" y2="86.87" xlink:href="#未命名的渐变_124" />
        <linearGradient id="未命名的渐变_114-3" x1="109.89" y1="125.53" x2="72.2" y2="87.83" xlink:href="#未命名的渐变_114" />
        <linearGradient id="未命名的渐变_124-8" x1="108.18" y1="127.22" x2="110.57" y2="124.83" xlink:href="#未命名的渐变_124" />
        <linearGradient id="未命名的渐变_124-9" x1="46.56" y1="112.19" x2="77.47" y2="81.28" xlink:href="#未命名的渐变_124" />
        <linearGradient id="未命名的渐变_13-4" x1="41.71" y1="95.7" x2="81.13" y2="95.7" xlink:href="#未命名的渐变_13" />
        <linearGradient id="未命名的渐变_124-10" x1="34.46" y1="125.64" x2="50.46" y2="109.64" xlink:href="#未命名的渐变_124" />
        <linearGradient id="未命名的渐变_114-4" x1="69.83" y1="148.3" x2="32.13" y2="110.6" xlink:href="#未命名的渐变_114" />
        <linearGradient id="未命名的渐变_124-11" x1="68.12" y1="149.99" x2="70.51" y2="147.6" xlink:href="#未命名的渐变_124" />
    </defs>
    <title>升降台</title>
    <g id="图层_2" data-name="图层 2">
        <g id="图层_1-2" data-name="图层 1">
            <g id="升降台">
                <g class="cls-3">
                    <rect class="cls-4" width="150" height="150" />
                    <rect id="网格" class="cls-5" width="150" height="150" />
                </g>
                <g id="支撑架">
                    <g class="cls-6">
                        <polygon class="cls-7" points="69.96 68.5 49.59 80.27 49.59 82.33 69.97 70.57 69.96 68.5" />
                        <polygon class="cls-8" points="49.59 80.27 48.99 79.92 49 81.99 49.59 82.33 49.59 80.27" />
                        <polygon class="cls-9" points="69.37 68.16 48.99 79.92 49.59 80.27 69.96 68.5 69.37 68.16" />
                    </g>
                    <g class="cls-6">
                        <polygon class="cls-10"
                            points="68.94 70.85 47.21 125.03 48.63 125.85 70.36 71.67 68.94 70.85" />
                        <polygon class="cls-11" points="70.06 71.5 68.64 70.68 68.94 70.85 70.36 71.67 70.06 71.5" />
                        <polygon class="cls-12"
                            points="68.64 70.68 46.92 124.86 47.21 125.03 68.94 70.85 68.64 70.68" />
                    </g>
                    <g class="cls-6">
                        <polygon class="cls-13" points="69.06 112.08 68.77 111.91 46.8 82.95 47.1 83.12 69.06 112.08" />
                        <polygon class="cls-14" points="48.51 80.67 70.47 109.63 69.06 112.08 47.1 83.12 48.51 80.67" />
                        <polygon class="cls-15" points="47.1 83.12 46.8 82.95 48.21 80.5 48.51 80.67 47.1 83.12" />
                    </g>
                    <g class="cls-6">
                        <polygon class="cls-16" points="47.24 81.84 46.95 81.67 48.37 83.37 48.67 83.54 47.24 81.84" />
                        <polygon class="cls-17" points="68.91 5.27 47.24 81.84 48.67 83.54 70.33 6.97 68.91 5.27" />
                        <polygon class="cls-12" points="68.61 5.1 46.95 81.67 47.24 81.84 68.91 5.27 68.61 5.1" />
                    </g>
                    <g class="cls-6">
                        <polygon class="cls-13" points="47.07 17.36 46.77 17.19 68.8 68.54 69.1 68.71 47.07 17.36" />
                        <polygon class="cls-18" points="48.48 14.03 47.07 17.36 69.1 68.71 70.5 65.38 48.48 14.03" />
                        <polygon class="cls-19" points="48.18 13.86 46.77 17.19 47.07 17.36 48.48 14.03 48.18 13.86" />
                    </g>
                    <g class="cls-6">
                        <polygon class="cls-20"
                            points="69.13 110.63 48.34 122.64 50.72 124.02 71.51 112.01 69.13 110.63" />
                        <polygon class="cls-21" points="71.2 5.5 68.83 4.12 69.13 110.63 71.51 112.01 71.2 5.5" />
                        <path class="cls-22"
                            d="M73.58,1.38,48,16.15l.32,112L73.9,113.38ZM50.71,124l-.3-106.51L71.2,5.5,71.51,112Z" />
                        <polygon class="cls-23" points="71.21 0 45.64 14.77 48.01 16.14 73.58 1.38 71.21 0" />
                        <polygon class="cls-24"
                            points="48.01 16.14 45.64 14.77 45.95 126.76 48.33 128.14 48.01 16.14" />
                    </g>
                    <path class="cls-25"
                        d="M58.88,6.92a.77.77,0,0,0-.77-.06l-1.35.79a.75.75,0,0,1,.77.06,2.43,2.43,0,0,1,1.12,1.9.82.82,0,0,1-.32.74l1.35-.79A.78.78,0,0,0,60,8.83,2.46,2.46,0,0,0,58.88,6.92Z" />
                    <path class="cls-26"
                        d="M57.53,7.71c-.62-.34-1.11,0-1.1.67a2.44,2.44,0,0,0,1.13,1.9c.61.34,1.1,0,1.09-.67A2.43,2.43,0,0,0,57.53,7.71Zm0,2.11a1.57,1.57,0,0,1-.72-1.22c0-.45.31-.64.7-.43a1.56,1.56,0,0,1,.72,1.22C58.26,9.85,57.94,10,57.55,9.82Z" />
                    <path class="cls-27"
                        d="M57.53,8.17a.52.52,0,0,0-.49,0L54.72,9.48a.48.48,0,0,1,.5,0,1.57,1.57,0,0,1,.72,1.22.52.52,0,0,1-.21.47L58,9.86a.51.51,0,0,0,.21-.47A1.56,1.56,0,0,0,57.53,8.17Z" />
                    <path class="cls-28"
                        d="M55.21,9.06A.78.78,0,0,0,54.44,9l-1.36.79a.78.78,0,0,1,.77.07A2.43,2.43,0,0,1,55,11.75a.77.77,0,0,1-.32.73L56,11.69a.78.78,0,0,0,.33-.73A2.44,2.44,0,0,0,55.21,9.06Z" />
                    <path class="cls-29"
                        d="M53.85,9.85c-.61-.34-1.1,0-1.09.67a2.41,2.41,0,0,0,1.12,1.9c.61.34,1.1,0,1.09-.67A2.43,2.43,0,0,0,53.85,9.85Z" />
                    <path class="cls-30"
                        d="M58.88,82.71a.78.78,0,0,0-.77-.07l-1.35.79a.78.78,0,0,1,.77.07,2.43,2.43,0,0,1,1.12,1.9.79.79,0,0,1-.32.73l1.35-.79a.77.77,0,0,0,.33-.73A2.44,2.44,0,0,0,58.88,82.71Z" />
                    <path class="cls-31"
                        d="M57.53,83.5c-.62-.34-1.11,0-1.1.67a2.46,2.46,0,0,0,1.13,1.9c.61.34,1.1,0,1.09-.67A2.43,2.43,0,0,0,57.53,83.5Zm0,2.11a1.59,1.59,0,0,1-.72-1.22c0-.46.31-.65.7-.43a1.55,1.55,0,0,1,.72,1.22C58.26,85.63,57.94,85.82,57.55,85.61Z" />
                    <path class="cls-32"
                        d="M57.53,84a.47.47,0,0,0-.49,0l-2.32,1.34a.54.54,0,0,1,.5,0,1.59,1.59,0,0,1,.72,1.22.51.51,0,0,1-.21.47L58,85.65a.52.52,0,0,0,.21-.47A1.55,1.55,0,0,0,57.53,84Z" />
                    <path class="cls-33"
                        d="M55.21,84.84a.77.77,0,0,0-.77-.06l-1.36.79a.76.76,0,0,1,.77.07A2.43,2.43,0,0,1,55,87.54a.78.78,0,0,1-.32.73L56,87.48a.78.78,0,0,0,.33-.73A2.46,2.46,0,0,0,55.21,84.84Z" />
                    <path class="cls-34"
                        d="M53.85,85.64c-.61-.35-1.1,0-1.09.66a2.41,2.41,0,0,0,1.12,1.9c.61.34,1.1,0,1.09-.66A2.43,2.43,0,0,0,53.85,85.64Z" />
                    <polygon class="cls-35" points="56.34 86.78 54.97 87.57 54.97 11.74 56.34 10.95 56.34 86.78" />
                    <polygon class="cls-35" points="60.01 84.66 58.65 85.44 58.65 9.62 60.01 8.83 60.01 84.66" />
                    <path class="cls-36"
                        d="M66.35,2.63a.77.77,0,0,0-.77-.06l-1.35.79a.75.75,0,0,1,.77.06,2.43,2.43,0,0,1,1.12,1.9.82.82,0,0,1-.32.74l1.35-.79a.79.79,0,0,0,.33-.74A2.43,2.43,0,0,0,66.35,2.63Z" />
                    <path class="cls-37"
                        d="M65,3.42c-.62-.34-1.11,0-1.1.67A2.44,2.44,0,0,0,65,6c.61.34,1.1,0,1.09-.67A2.43,2.43,0,0,0,65,3.42Zm0,2.11a1.59,1.59,0,0,1-.72-1.22c0-.45.31-.65.7-.43a1.56,1.56,0,0,1,.72,1.22C65.73,5.56,65.41,5.75,65,5.53Z" />
                    <path class="cls-38"
                        d="M65,3.88a.52.52,0,0,0-.49,0L62.19,5.19a.48.48,0,0,1,.5,0,1.57,1.57,0,0,1,.72,1.22.52.52,0,0,1-.21.47l2.31-1.35a.51.51,0,0,0,.21-.47A1.56,1.56,0,0,0,65,3.88Z" />
                    <path class="cls-39"
                        d="M62.68,4.77a.78.78,0,0,0-.77-.07l-1.36.79a.78.78,0,0,1,.77.07,2.43,2.43,0,0,1,1.12,1.9.77.77,0,0,1-.32.73l1.36-.79a.78.78,0,0,0,.33-.73A2.44,2.44,0,0,0,62.68,4.77Z" />
                    <path class="cls-40"
                        d="M61.32,5.56c-.61-.34-1.1,0-1.09.67a2.45,2.45,0,0,0,1.12,1.9c.61.34,1.1,0,1.09-.67A2.43,2.43,0,0,0,61.32,5.56Z" />
                    <path class="cls-41"
                        d="M66.35,78.42a.78.78,0,0,0-.77-.07l-1.35.79a.78.78,0,0,1,.77.07,2.43,2.43,0,0,1,1.12,1.9.8.8,0,0,1-.32.73l1.35-.79a.77.77,0,0,0,.33-.73A2.42,2.42,0,0,0,66.35,78.42Z" />
                    <path class="cls-42"
                        d="M65,79.21c-.62-.34-1.11,0-1.1.66A2.46,2.46,0,0,0,65,81.78c.61.34,1.1,0,1.09-.67A2.43,2.43,0,0,0,65,79.21Zm0,2.11a1.59,1.59,0,0,1-.72-1.22c0-.46.31-.65.7-.43a1.55,1.55,0,0,1,.72,1.22C65.73,81.34,65.41,81.53,65,81.32Z" />
                    <path class="cls-43"
                        d="M65,79.67a.47.47,0,0,0-.49,0L62.19,81a.54.54,0,0,1,.5,0,1.59,1.59,0,0,1,.72,1.22.51.51,0,0,1-.21.47l2.31-1.34a.52.52,0,0,0,.21-.47A1.55,1.55,0,0,0,65,79.67Z" />
                    <path class="cls-44"
                        d="M62.68,80.55a.77.77,0,0,0-.77-.06l-1.36.79a.77.77,0,0,1,.77.06,2.47,2.47,0,0,1,1.12,1.91.78.78,0,0,1-.32.73l1.36-.79a.79.79,0,0,0,.33-.74A2.46,2.46,0,0,0,62.68,80.55Z" />
                    <path class="cls-45"
                        d="M61.32,81.34c-.61-.34-1.1,0-1.09.67a2.43,2.43,0,0,0,1.12,1.9c.61.34,1.1,0,1.09-.66A2.47,2.47,0,0,0,61.32,81.34Z" />
                    <polygon class="cls-35" points="63.81 82.49 62.44 83.28 62.44 7.45 63.81 6.66 63.81 82.49" />
                    <polygon class="cls-35" points="67.48 80.37 66.12 81.16 66.12 5.33 67.48 4.54 67.48 80.37" />
                </g>
                <g id="载物架">
                    <g class="cls-6">
                        <polygon class="cls-46"
                            points="83.67 108.26 81.3 109.64 87.56 113.26 89.94 111.88 83.67 108.26" />
                        <polygon class="cls-47"
                            points="89.94 111.88 87.56 113.26 88.53 114.85 90.91 113.47 89.94 111.88" />
                        <polygon class="cls-48" points="81.38 81.48 81.3 109.64 83.67 108.26 83.75 80.1 81.38 81.48" />
                        <polygon class="cls-46" points="81.96 79.07 79.58 80.45 81.38 81.48 83.75 80.1 81.96 79.07" />
                        <polygon class="cls-49"
                            points="88.53 114.85 87.56 113.26 81.3 109.64 81.38 81.48 79.58 80.45 79.5 110.67 81.29 111.7 108.19 127.23 108.19 126.2 88.53 114.85" />
                        <polygon class="cls-46"
                            points="90.91 113.47 88.53 114.85 108.19 126.2 110.56 124.82 90.91 113.47" />
                        <polygon class="cls-50"
                            points="108.19 126.2 108.19 127.23 110.56 125.85 110.56 124.82 108.19 126.2" />
                    </g>
                    <g class="cls-6">
                        <polygon class="cls-51"
                            points="41.71 106.46 41.71 107.84 42.9 108.53 42.91 107.15 41.71 106.46" />
                        <polygon class="cls-52"
                            points="42.91 107.15 42.9 108.53 81.13 86.32 81.13 84.94 42.91 107.15" />
                        <polygon class="cls-53"
                            points="79.94 84.25 41.71 106.46 42.91 107.15 81.13 84.94 79.94 84.25" />
                    </g>
                    <g class="cls-6">
                        <polygon class="cls-46"
                            points="43.61 131.03 41.23 132.41 47.5 136.03 49.88 134.65 43.61 131.03" />
                        <polygon class="cls-47"
                            points="49.88 134.65 47.5 136.03 48.47 137.62 50.85 136.24 49.88 134.65" />
                        <polygon class="cls-54"
                            points="41.31 104.25 41.23 132.41 43.61 131.03 43.69 102.87 41.31 104.25" />
                        <polygon class="cls-46"
                            points="41.9 101.84 39.52 103.22 41.31 104.25 43.69 102.87 41.9 101.84" />
                        <polygon class="cls-55"
                            points="48.47 137.62 47.5 136.03 41.23 132.41 41.31 104.25 39.52 103.22 39.44 133.44 41.23 134.47 68.12 150 68.13 148.97 48.47 137.62" />
                        <polygon class="cls-46"
                            points="50.85 136.24 48.47 137.62 68.13 148.97 70.5 147.59 50.85 136.24" />
                        <polygon class="cls-56" points="68.13 148.97 68.12 150 70.5 148.62 70.5 147.59 68.13 148.97" />
                    </g>
                </g>
              
            </g>
        </g>
    </g>
</svg>