<svg xmlns="http://www.w3.org/2000/svg" xmlns:xlink="http://www.w3.org/1999/xlink" viewBox="0 0 150 150">
    <defs>
        <style>
            .cls-1,
            .cls-2 {
                fill: none;
            }

            .cls-2 {
                stroke: #fff;
                stroke-miterlimit: 10;
                stroke-width: 0.1px;
            }

            .cls-3 {
                opacity: 0;
            }

            .cls-4 {
                fill: #000714;
            }

            .cls-5 {
                opacity: 0.1;
                fill: url(#新建图案);
            }

            .cls-6 {
                isolation: isolate;
            }

            .cls-7 {
                fill: #4e5f79;
            }

            .cls-8 {
                fill: #171d23;
            }

            .cls-9 {
                fill: #7696cb;
            }

            .cls-10 {
                opacity: 0.2;
            }
        </style>
        <pattern id="新建图案" data-name="新建图案" width="18.57" height="32.16" patternTransform="translate(2336.34 1077.08)"
            patternUnits="userSpaceOnUse" viewBox="0 0 18.57 32.16">
            <rect class="cls-1" width="18.57" height="32.16" />
            <polyline class="cls-2" points="18.57 21.44 18.57 32.16 18.57 42.88" />
            <polyline class="cls-2" points="9.29 26.8 18.57 32.16 27.85 37.51 27.85 37.52" />
            <polyline class="cls-2" points="9.29 37.52 9.29 37.51 18.57 32.16 27.85 26.8" />
            <polygon class="cls-2"
                points="27.85 37.52 27.85 26.8 18.57 21.44 9.28 26.8 9.28 37.52 18.57 42.88 27.85 37.52" />
            <polyline class="cls-2" points="0 21.44 0 32.16 0 42.88" />
            <polyline class="cls-2" points="-9.28 26.8 0 32.16 9.28 37.51 9.28 37.52" />
            <polyline class="cls-2" points="-9.28 37.52 -9.28 37.51 0 32.16 9.28 26.8" />
            <polygon class="cls-2" points="9.28 37.52 9.28 26.8 0 21.44 -9.29 26.8 -9.29 37.52 0 42.88 9.28 37.52" />
            <polyline class="cls-2" points="18.57 10.72 27.85 16.08 37.13 21.43 37.13 21.44" />
            <polyline class="cls-2" points="18.57 21.44 18.57 21.43 27.85 16.08 37.13 10.72" />
            <polygon class="cls-2"
                points="37.14 21.44 37.14 10.72 27.85 5.36 18.57 10.72 18.57 21.44 27.85 26.8 37.14 21.44" />
            <polyline class="cls-2" points="9.29 5.36 9.29 16.08 9.29 26.8" />
            <polyline class="cls-2" points="0.01 10.72 9.29 16.08 18.57 21.43 18.57 21.44" />
            <polyline class="cls-2" points="0.01 21.44 0.01 21.43 9.29 16.08 18.57 10.72" />
            <polygon class="cls-2" points="18.57 21.44 18.57 10.72 9.28 5.36 0 10.72 0 21.44 9.28 26.8 18.57 21.44" />
            <polyline class="cls-2" points="-18.56 10.72 -9.28 16.08 0 21.43 0 21.44" />
            <polyline class="cls-2" points="-18.56 21.44 -18.56 21.43 -9.28 16.08 0 10.72" />
            <polygon class="cls-2" points="0 21.44 0 10.72 -9.29 5.36 -18.57 10.72 -18.57 21.44 -9.29 26.8 0 21.44" />
            <polyline class="cls-2" points="18.57 -10.72 18.57 0 18.57 10.72" />
            <polyline class="cls-2" points="9.29 -5.36 18.57 0 27.85 5.35 27.85 5.36" />
            <polyline class="cls-2" points="9.29 5.36 9.29 5.35 18.57 0 27.85 -5.36" />
            <polygon class="cls-2"
                points="27.85 5.36 27.85 -5.36 18.57 -10.72 9.28 -5.36 9.28 5.36 18.57 10.72 27.85 5.36" />
            <polyline class="cls-2" points="0 -10.72 0 0 0 10.72" />
            <polyline class="cls-2" points="-9.28 -5.36 0 0 9.28 5.35 9.28 5.36" />
            <polyline class="cls-2" points="-9.28 5.36 -9.28 5.35 0 0 9.28 -5.36" />
            <polygon class="cls-2" points="9.28 5.36 9.28 -5.36 0 -10.72 -9.29 -5.36 -9.29 5.36 0 10.72 9.28 5.36" />
        </pattern>
    </defs>
    <title>地面轨道1</title>
    <g id="图层_2" data-name="图层 2">
        <g id="图层_1-2" data-name="图层 1">
            <g id="地面轨道1">
                <g class="cls-3">
                    <rect class="cls-4" width="150" height="150" />
                    <rect id="网格" class="cls-5" width="150" height="150" />
                </g>
                <g class="cls-6">
                    <polygon class="cls-7" points="19.24 101.51 19.23 103.94 29.59 109.92 29.59 107.49 19.24 101.51" />
                    <polygon class="cls-8" points="29.59 107.49 29.59 109.92 31.69 108.7 31.7 106.27 29.59 107.49" />
                    <polygon class="cls-9" points="21.34 100.29 19.24 101.51 29.59 107.49 31.7 106.27 21.34 100.29" />
                </g>
                <g class="cls-6">
                    <polygon class="cls-7" points="114.72 45.86 114.72 48.29 125.07 54.27 125.08 51.84 114.72 45.86" />
                    <polygon class="cls-8" points="125.08 51.84 125.07 54.27 127.18 53.05 127.19 50.61 125.08 51.84" />
                    <polygon class="cls-9" points="116.83 44.63 114.72 45.86 125.08 51.84 127.19 50.61 116.83 44.63" />
                </g>
                <g class="cls-6">
                    <polygon class="cls-8" points="111.24 38.24 111.23 41.48 122.64 34.85 122.64 31.61 111.24 38.24" />
                    <polygon class="cls-8" points="87.33 52.13 87.33 55.37 109.13 42.7 109.13 39.46 87.33 52.13" />
                    <polygon class="cls-7" points="109.13 39.46 109.13 42.7 134.37 57.28 134.37 54.03 109.13 39.46" />
                    <polygon class="cls-8" points="63.44 66.01 63.43 69.26 85.22 56.59 85.23 53.35 63.44 66.01" />
                    <polygon class="cls-7" points="85.23 53.35 85.22 56.59 110.46 71.17 110.47 67.92 85.23 53.35" />
                    <polygon class="cls-8" points="39.54 79.91 39.53 83.15 61.32 70.48 61.33 67.24 39.54 79.91" />
                    <polygon class="cls-7" points="61.33 67.24 61.32 70.48 86.56 85.06 86.57 81.81 61.33 67.24" />
                    <polygon class="cls-8" points="15.63 93.8 15.63 97.04 37.43 84.37 37.44 81.13 15.63 93.8" />
                    <polygon class="cls-7" points="37.44 81.13 37.43 84.37 62.67 98.94 62.67 95.7 37.44 81.13" />
                    <polygon class="cls-7" points="0.01 100.42 0 103.67 2.12 104.89 2.13 101.65 0.01 100.42" />
                    <polygon class="cls-8" points="2.13 101.65 2.12 104.89 13.52 98.26 13.53 95.02 2.13 101.65" />
                    <polygon class="cls-7" points="13.53 95.02 13.52 98.26 38.76 112.83 38.77 109.59 13.53 95.02" />
                    <path class="cls-9"
                        d="M147.88,46.18l-11.4,6.63L111.24,38.24l11.4-6.63-2.11-1.22L0,100.42l2.12,1.23L13.53,95l25.24,14.57-11.4,6.63,2.11,1.22L150,47.4Zm-107,62.19L15.64,93.79,37.43,81.13,62.67,95.7Zm23.9-13.89L39.54,79.9,61.33,67.24,86.57,81.81Zm23.9-13.89L63.44,66,85.23,53.35l25.24,14.57ZM112.57,66.7,87.33,52.13l21.8-12.67L134.37,54Z" />
                    <polygon class="cls-7" points="27.36 116.22 27.36 119.46 29.47 120.69 29.48 117.44 27.36 116.22" />
                    <polygon class="cls-8" points="29.48 117.44 29.47 120.69 149.99 50.65 150 47.4 29.48 117.44" />
                </g>
                <g class="cls-6">
                    <polygon class="cls-9" points="13.46 84.89 11.35 86.12 13.47 87.34 15.58 86.12 13.46 84.89" />
                    <polygon class="cls-8" points="13.47 87.34 13.46 92.62 15.56 91.4 15.58 86.12 13.47 87.34" />
                    <polygon class="cls-9" points="15.56 91.4 13.46 92.62 38.72 107.21 40.83 105.98 15.56 91.4" />
                    <polygon class="cls-7"
                        points="38.74 101.93 38.72 107.21 13.46 92.62 13.47 87.34 11.35 86.12 11.33 93.83 40.83 110.86 40.85 103.15 38.74 101.93" />
                    <polygon class="cls-8" points="40.85 103.15 40.83 110.86 42.94 109.64 42.96 101.93 40.85 103.15" />
                    <polygon class="cls-9" points="40.84 100.7 38.74 101.93 40.85 103.15 42.96 101.93 40.84 100.7" />
                </g>
                <g class="cls-6">
                    <polygon class="cls-9" points="109.15 29.32 107.05 30.54 109.17 31.76 111.27 30.54 109.15 29.32" />
                    <polygon class="cls-8" points="109.17 31.76 109.15 37.04 111.26 35.82 111.27 30.54 109.17 31.76" />
                    <polygon class="cls-9" points="111.26 35.82 109.15 37.04 134.42 51.63 136.52 50.41 111.26 35.82" />
                    <polygon class="cls-7"
                        points="134.43 46.35 134.42 51.63 109.15 37.04 109.17 31.76 107.05 30.54 107.02 38.25 136.53 55.28 136.55 47.57 134.43 46.35" />
                    <polygon class="cls-8" points="136.55 47.57 136.53 55.28 138.63 54.06 138.65 46.35 136.55 47.57" />
                    <polygon class="cls-9" points="136.54 45.13 134.43 46.35 136.55 47.57 138.65 46.35 136.54 45.13" />
                </g>
            </g>
        </g>
    </g>
</svg>