<svg xmlns="http://www.w3.org/2000/svg" xmlns:xlink="http://www.w3.org/1999/xlink" viewBox="0 0 150 150">
    <defs>
        <style>
            .cls-1,
            .cls-2 {
                fill: none;
            }

            .cls-2 {
                stroke: #fff;
                stroke-miterlimit: 10;
                stroke-width: 0.1px;
            }

            .cls-3 {
                opacity: 0;
            }

            .cls-4 {
                fill: #000714;
            }

            .cls-5 {
                opacity: 0.1;
                fill: url(#新建图案);
            }

            .cls-6 {
                isolation: isolate;
            }

            .cls-7 {
                fill: #3d4e6a;
            }

            .cls-8 {
                fill: #171d23;
            }

            .cls-9 {
                fill: #29313f;
            }

            .cls-10 {
                fill: url(#未命名的渐变_1319);
            }

            .cls-11 {
                fill: #7696cb;
            }

            .cls-12 {
                fill: #4e5f79;
            }

            .cls-13 {
                fill: url(#未命名的渐变_1313);
            }

            .cls-14 {
                fill: url(#未命名的渐变_1311);
            }

            .cls-15 {
                fill: url(#未命名的渐变_1313-2);
            }

            .cls-16 {
                fill: url(#未命名的渐变_1311-2);
            }

            .cls-17 {
                fill: url(#未命名的渐变_1319-2);
            }

            .cls-18 {
                fill: url(#未命名的渐变_1319-3);
            }

            .cls-19 {
                fill: url(#未命名的渐变_1313-3);
            }

            .cls-20 {
                fill: url(#未命名的渐变_1311-3);
            }

            .cls-21 {
                fill: url(#未命名的渐变_1313-4);
            }

            .cls-22 {
                fill: url(#未命名的渐变_1311-4);
            }

            .cls-23 {
                fill: url(#未命名的渐变_1319-4);
            }

            .cls-24 {
                fill: url(#未命名的渐变_1319-5);
            }

            .cls-25 {
                fill: url(#未命名的渐变_1313-5);
            }

            .cls-26 {
                fill: url(#未命名的渐变_1311-5);
            }

            .cls-27 {
                fill: url(#未命名的渐变_1313-6);
            }

            .cls-28 {
                fill: url(#未命名的渐变_1311-6);
            }

            .cls-29 {
                fill: url(#未命名的渐变_1319-6);
            }

            .cls-30 {
                opacity: 0.2;
            }
        </style>
        <pattern id="新建图案" data-name="新建图案" width="18.57" height="32.16" patternTransform="translate(2349.3 1077.08)"
            patternUnits="userSpaceOnUse" viewBox="0 0 18.57 32.16">
            <rect class="cls-1" width="18.57" height="32.16" />
            <polyline class="cls-2" points="18.57 21.44 18.57 32.16 18.57 42.88" />
            <polyline class="cls-2" points="9.29 26.8 18.57 32.16 27.85 37.51 27.85 37.52" />
            <polyline class="cls-2" points="9.29 37.52 9.29 37.51 18.57 32.16 27.85 26.8" />
            <polygon class="cls-2"
                points="27.85 37.52 27.85 26.8 18.57 21.44 9.28 26.8 9.28 37.52 18.57 42.88 27.85 37.52" />
            <polyline class="cls-2" points="0 21.44 0 32.16 0 42.88" />
            <polyline class="cls-2" points="-9.28 26.8 0 32.16 9.28 37.51 9.28 37.52" />
            <polyline class="cls-2" points="-9.28 37.52 -9.28 37.51 0 32.16 9.28 26.8" />
            <polygon class="cls-2" points="9.28 37.52 9.28 26.8 0 21.44 -9.29 26.8 -9.29 37.52 0 42.88 9.28 37.52" />
            <polyline class="cls-2" points="18.57 10.72 27.85 16.08 37.13 21.43 37.13 21.44" />
            <polyline class="cls-2" points="18.57 21.44 18.57 21.43 27.85 16.08 37.13 10.72" />
            <polygon class="cls-2"
                points="37.14 21.44 37.14 10.72 27.85 5.36 18.57 10.72 18.57 21.44 27.85 26.8 37.14 21.44" />
            <polyline class="cls-2" points="9.29 5.36 9.29 16.08 9.29 26.8" />
            <polyline class="cls-2" points="0.01 10.72 9.29 16.08 18.57 21.43 18.57 21.44" />
            <polyline class="cls-2" points="0.01 21.44 0.01 21.43 9.29 16.08 18.57 10.72" />
            <polygon class="cls-2" points="18.57 21.44 18.57 10.72 9.28 5.36 0 10.72 0 21.44 9.28 26.8 18.57 21.44" />
            <polyline class="cls-2" points="-18.56 10.72 -9.28 16.08 0 21.43 0 21.44" />
            <polyline class="cls-2" points="-18.56 21.44 -18.56 21.43 -9.28 16.08 0 10.72" />
            <polygon class="cls-2" points="0 21.44 0 10.72 -9.29 5.36 -18.57 10.72 -18.57 21.44 -9.29 26.8 0 21.44" />
            <polyline class="cls-2" points="18.57 -10.72 18.57 0 18.57 10.72" />
            <polyline class="cls-2" points="9.29 -5.36 18.57 0 27.85 5.35 27.85 5.36" />
            <polyline class="cls-2" points="9.29 5.36 9.29 5.35 18.57 0 27.85 -5.36" />
            <polygon class="cls-2"
                points="27.85 5.36 27.85 -5.36 18.57 -10.72 9.28 -5.36 9.28 5.36 18.57 10.72 27.85 5.36" />
            <polyline class="cls-2" points="0 -10.72 0 0 0 10.72" />
            <polyline class="cls-2" points="-9.28 -5.36 0 0 9.28 5.35 9.28 5.36" />
            <polyline class="cls-2" points="-9.28 5.36 -9.28 5.35 0 0 9.28 -5.36" />
            <polygon class="cls-2" points="9.28 5.36 9.28 -5.36 0 -10.72 -9.29 -5.36 -9.29 5.36 0 10.72 9.28 5.36" />
        </pattern>
        <linearGradient id="未命名的渐变_1319" x1="36.77" y1="107.76" x2="38.74" y2="104.36" gradientUnits="userSpaceOnUse">
            <stop offset="0" stop-color="#38455a" />
            <stop offset="0.3" stop-color="#7a98cc" />
            <stop offset="0.6" stop-color="#7a98cc" />
            <stop offset="0.95" stop-color="#12161a" />
            <stop offset="1" stop-color="#283140" />
        </linearGradient>
        <linearGradient id="未命名的渐变_1313" x1="40.8" y1="108.93" x2="42.48" y2="107.25" gradientUnits="userSpaceOnUse">
            <stop offset="0" stop-color="#0073e6" />
            <stop offset="1" stop-color="#143ccc" />
        </linearGradient>
        <linearGradient id="未命名的渐变_1311" x1="39.48" y1="108.11" x2="40.57" y2="106.22" gradientUnits="userSpaceOnUse">
            <stop offset="0" stop-color="#0073e6" />
            <stop offset="0.3" stop-color="#59c8ff" />
            <stop offset="0.6" stop-color="#59c8ff" />
            <stop offset="0.95" stop-color="#1433cc" />
            <stop offset="1" stop-color="#0073e6" />
        </linearGradient>
        <linearGradient id="未命名的渐变_1313-2" x1="20.7" y1="97.09" x2="22.38" y2="95.41" xlink:href="#未命名的渐变_1313" />
        <linearGradient id="未命名的渐变_1311-2" x1="19.38" y1="96.27" x2="20.48" y2="94.38" xlink:href="#未命名的渐变_1311" />
        <linearGradient id="未命名的渐变_1319-2" x1="20.54" y1="98.26" x2="22.5" y2="94.86" xlink:href="#未命名的渐变_1319" />
        <linearGradient id="未命名的渐变_1319-3" x1="84.08" y1="80.24" x2="86.05" y2="76.84" xlink:href="#未命名的渐变_1319" />
        <linearGradient id="未命名的渐变_1313-3" x1="88.11" y1="81.41" x2="89.79" y2="79.73" xlink:href="#未命名的渐变_1313" />
        <linearGradient id="未命名的渐变_1311-3" x1="86.79" y1="80.59" x2="87.88" y2="78.7" xlink:href="#未命名的渐变_1311" />
        <linearGradient id="未命名的渐变_1313-4" x1="68.01" y1="69.57" x2="69.69" y2="67.89" xlink:href="#未命名的渐变_1313" />
        <linearGradient id="未命名的渐变_1311-4" x1="66.69" y1="68.75" x2="67.79" y2="66.85" xlink:href="#未命名的渐变_1311" />
        <linearGradient id="未命名的渐变_1319-4" x1="67.85" y1="70.74" x2="69.82" y2="67.34" xlink:href="#未命名的渐变_1319" />
        <linearGradient id="未命名的渐变_1319-5" x1="127.97" y1="54.73" x2="129.94" y2="51.33" xlink:href="#未命名的渐变_1319" />
        <linearGradient id="未命名的渐变_1313-5" x1="132" y1="55.91" x2="133.68" y2="54.23" xlink:href="#未命名的渐变_1313" />
        <linearGradient id="未命名的渐变_1311-5" x1="130.68" y1="55.09" x2="131.78" y2="53.19" xlink:href="#未命名的渐变_1311" />
        <linearGradient id="未命名的渐变_1313-6" x1="111.9" y1="44.07" x2="113.58" y2="42.39" xlink:href="#未命名的渐变_1313" />
        <linearGradient id="未命名的渐变_1311-6" x1="110.59" y1="43.25" x2="111.68" y2="41.35" xlink:href="#未命名的渐变_1311" />
        <linearGradient id="未命名的渐变_1319-6" x1="111.74" y1="45.24" x2="113.71" y2="41.84" xlink:href="#未命名的渐变_1319" />
    </defs>
    <title>地面轨道2</title>
    <g id="图层_2" data-name="图层 2">
        <g id="图层_1-2" data-name="图层 1">
            <g id="地面轨道2">
                <g class="cls-3">
                    <rect class="cls-4" width="150" height="150" />
                    <rect id="网格" class="cls-5" width="150" height="150" />
                </g>
                <g class="cls-6">
                    <polygon class="cls-7" points="119.49 30.56 0.01 100 30.51 117.61 150 48.17 119.49 30.56" />
                    <polygon class="cls-8" points="30.51 117.61 30.51 119.44 150 50 150 48.17 30.51 117.61" />
                    <polygon class="cls-9" points="0.01 100 0 101.83 30.51 119.44 30.51 117.61 0.01 100" />
                </g>
                <g class="cls-6">
                    <path class="cls-8"
                        d="M38.34,105a4.16,4.16,0,0,0-1.79,2.61l3.58-2.06C39.92,104.78,39.2,104.52,38.34,105Z" />
                    <path class="cls-10"
                        d="M39.13,104.58a1.32,1.32,0,0,0-1.31.13A4.15,4.15,0,0,0,36,107.32l.52.31A4.16,4.16,0,0,1,38.34,105a1.28,1.28,0,0,1,1.31-.13Z" />
                </g>
                <g class="cls-6">
                    <polygon class="cls-11" points="39.59 105.56 37.15 106.98 40.67 109.01 43.12 107.59 39.59 105.56" />
                    <polygon class="cls-8" points="40.67 109.01 40.67 109.32 43.11 107.9 43.12 107.59 40.67 109.01" />
                    <polygon class="cls-12" points="37.15 106.98 37.15 107.28 40.67 109.32 40.67 109.01 37.15 106.98" />
                </g>
                <g class="cls-6">
                    <path class="cls-13"
                        d="M41.72,107.47a2.73,2.73,0,0,0-1.06,1.33l2.12-1.22C42.57,107.27,42.18,107.21,41.72,107.47Z" />
                    <path class="cls-14"
                        d="M39.42,105.55a.82.82,0,0,0-.85.09A2.62,2.62,0,0,0,37.5,107l3.16,1.84a2.73,2.73,0,0,1,1.06-1.33.85.85,0,0,1,.86-.08Z" />
                </g>
                <g class="cls-6">
                    <polygon class="cls-11" points="19.5 93.72 17.05 95.14 20.58 97.17 23.02 95.75 19.5 93.72" />
                    <polygon class="cls-8" points="20.58 97.17 20.58 97.48 23.02 96.06 23.02 95.75 20.58 97.17" />
                    <polygon class="cls-12" points="17.05 95.14 17.05 95.44 20.58 97.48 20.58 97.17 17.05 95.14" />
                </g>
                <g class="cls-6">
                    <path class="cls-15"
                        d="M21.63,95.63A2.67,2.67,0,0,0,20.57,97l2.12-1.22C22.48,95.43,22.08,95.37,21.63,95.63Z" />
                    <path class="cls-16"
                        d="M19.33,93.71a.84.84,0,0,0-.86.09,2.61,2.61,0,0,0-1.06,1.32L20.57,97a2.67,2.67,0,0,1,1.06-1.33.85.85,0,0,1,.86-.08Z" />
                </g>
                <g class="cls-6">
                    <path class="cls-8"
                        d="M22.11,95.52a4.19,4.19,0,0,0-1.79,2.61l3.58-2.06C23.69,95.28,23,95,22.11,95.52Z" />
                    <path class="cls-17"
                        d="M22.9,95.09a1.29,1.29,0,0,0-1.31.12,4.15,4.15,0,0,0-1.79,2.62l.52.3a4.19,4.19,0,0,1,1.79-2.61,1.32,1.32,0,0,1,1.31-.13Z" />
                </g>
                <g class="cls-6">
                    <path class="cls-8"
                        d="M85.65,77.5a4.16,4.16,0,0,0-1.79,2.61l3.58-2.06C87.23,77.26,86.51,77,85.65,77.5Z" />
                    <path class="cls-18"
                        d="M86.44,77.06a1.32,1.32,0,0,0-1.31.13,4.15,4.15,0,0,0-1.79,2.61l.52.31a4.16,4.16,0,0,1,1.79-2.61A1.28,1.28,0,0,1,87,77.37Z" />
                </g>
                <g class="cls-6">
                    <polygon class="cls-11" points="86.9 78.04 84.46 79.46 87.98 81.49 90.42 80.07 86.9 78.04" />
                    <polygon class="cls-8" points="87.98 81.49 87.98 81.8 90.42 80.38 90.42 80.07 87.98 81.49" />
                    <polygon class="cls-12" points="84.46 79.46 84.46 79.76 87.98 81.8 87.98 81.49 84.46 79.46" />
                </g>
                <g class="cls-6">
                    <path class="cls-19" d="M89,80A2.73,2.73,0,0,0,88,81.28l2.12-1.23C89.88,79.75,89.49,79.69,89,80Z" />
                    <path class="cls-20"
                        d="M86.73,78a.82.82,0,0,0-.85.09,2.62,2.62,0,0,0-1.07,1.32L88,81.28A2.73,2.73,0,0,1,89,80a.85.85,0,0,1,.86-.08Z" />
                </g>
                <g class="cls-6">
                    <polygon class="cls-11" points="66.81 66.2 64.36 67.62 67.89 69.65 70.33 68.23 66.81 66.2" />
                    <polygon class="cls-8" points="67.89 69.65 67.89 69.96 70.33 68.53 70.33 68.23 67.89 69.65" />
                    <polygon class="cls-12" points="64.36 67.62 64.36 67.92 67.89 69.96 67.89 69.65 64.36 67.62" />
                </g>
                <g class="cls-6">
                    <path class="cls-21"
                        d="M68.94,68.11a2.67,2.67,0,0,0-1.06,1.33L70,68.21C69.79,67.91,69.39,67.85,68.94,68.11Z" />
                    <path class="cls-22"
                        d="M66.64,66.19a.84.84,0,0,0-.86.09,2.61,2.61,0,0,0-1.06,1.32l3.16,1.84a2.67,2.67,0,0,1,1.06-1.33A.85.85,0,0,1,69.8,68Z" />
                </g>
                <g class="cls-6">
                    <path class="cls-8"
                        d="M69.42,68a4.19,4.19,0,0,0-1.79,2.61l3.58-2.06C71,67.76,70.28,67.51,69.42,68Z" />
                    <path class="cls-23"
                        d="M70.21,67.57a1.29,1.29,0,0,0-1.31.12,4.15,4.15,0,0,0-1.79,2.62l.52.3A4.19,4.19,0,0,1,69.42,68a1.3,1.3,0,0,1,1.31-.13Z" />
                </g>
                <g class="cls-6">
                    <path class="cls-8"
                        d="M129.54,52a4.17,4.17,0,0,0-1.78,2.62l3.57-2.07C131.12,51.75,130.4,51.5,129.54,52Z" />
                    <path class="cls-24"
                        d="M130.33,51.56a1.3,1.3,0,0,0-1.31.13,4.12,4.12,0,0,0-1.79,2.61l.53.31A4.17,4.17,0,0,1,129.54,52a1.31,1.31,0,0,1,1.32-.12Z" />
                </g>
                <g class="cls-6">
                    <polygon class="cls-11" points="130.79 52.53 128.35 53.95 131.87 55.99 134.32 54.57 130.79 52.53" />
                    <polygon class="cls-8" points="131.87 55.99 131.87 56.29 134.31 54.87 134.32 54.57 131.87 55.99" />
                    <polygon class="cls-12" points="128.35 53.95 128.35 54.26 131.87 56.29 131.87 55.99 128.35 53.95" />
                </g>
                <g class="cls-6">
                    <path class="cls-25"
                        d="M132.92,54.45a2.7,2.7,0,0,0-1.06,1.32L134,54.55C133.77,54.24,133.38,54.19,132.92,54.45Z" />
                    <path class="cls-26"
                        d="M130.62,52.53a.84.84,0,0,0-.85.08,2.69,2.69,0,0,0-1.07,1.33l3.16,1.83a2.7,2.7,0,0,1,1.06-1.32.89.89,0,0,1,.86-.09Z" />
                </g>
                <g class="cls-6">
                    <polygon class="cls-11" points="110.7 40.69 108.25 42.12 111.78 44.15 114.22 42.73 110.7 40.69" />
                    <polygon class="cls-8" points="111.78 44.15 111.78 44.45 114.22 43.03 114.22 42.73 111.78 44.15" />
                    <polygon class="cls-12" points="108.25 42.12 108.25 42.42 111.78 44.45 111.78 44.15 108.25 42.12" />
                </g>
                <g class="cls-6">
                    <path class="cls-27"
                        d="M112.83,42.61a2.65,2.65,0,0,0-1.06,1.32l2.12-1.22C113.68,42.4,113.28,42.35,112.83,42.61Z" />
                    <path class="cls-28"
                        d="M110.53,40.69a.85.85,0,0,0-.86.08,2.67,2.67,0,0,0-1.06,1.33l3.16,1.83a2.65,2.65,0,0,1,1.06-1.32.89.89,0,0,1,.86-.09Z" />
                </g>
                <g class="cls-6">
                    <path class="cls-8"
                        d="M113.31,42.5a4.16,4.16,0,0,0-1.79,2.61l3.58-2.06C114.89,42.26,114.17,42,113.31,42.5Z" />
                    <path class="cls-29"
                        d="M114.1,42.06a1.32,1.32,0,0,0-1.31.13A4.15,4.15,0,0,0,111,44.81l.52.3a4.16,4.16,0,0,1,1.79-2.61,1.3,1.3,0,0,1,1.31-.13Z" />
                </g>
            </g>
        </g>
    </g>
</svg>