<svg xmlns="http://www.w3.org/2000/svg" xmlns:xlink="http://www.w3.org/1999/xlink" viewBox="0 0 150 150">
    <defs>
        <style>
            .cls-1,
            .cls-2 {
                fill: none;
            }

            .cls-2 {
                stroke: #fff;
                stroke-miterlimit: 10;
                stroke-width: 0.1px;
            }

            .cls-3 {
                opacity: 0;
            }

            .cls-4 {
                fill: #000714;
            }

            .cls-5 {
                opacity: 0.1;
                fill: url(#新建图案);
            }

            .cls-6 {
                isolation: isolate;
            }

            .cls-7 {
                fill: url(#未命名的渐变_21);
            }

            .cls-8 {
                fill: url(#未命名的渐变_13);
            }

            .cls-9 {
                mix-blend-mode: multiply;
                fill: url(#未命名的渐变_131);
            }

            .cls-10 {
                fill: url(#未命名的渐变_21-2);
            }

            .cls-11 {
                fill: url(#未命名的渐变_144);
            }

            .cls-12 {
                fill: url(#未命名的渐变_13-2);
            }

            .cls-13 {
                fill: url(#未命名的渐变_140);
            }

            .cls-14 {
                fill: #4e5f79;
            }

            .cls-15 {
                fill: url(#未命名的渐变_78);
            }

            .cls-16 {
                fill: url(#未命名的渐变_73);
            }

            .cls-17 {
                fill: url(#未命名的渐变_138);
            }

            .cls-18 {
                fill: url(#未命名的渐变_297);
            }

            .cls-19 {
                fill: url(#未命名的渐变_140-2);
            }

            .cls-20 {
                fill: url(#未命名的渐变_140-3);
            }

            .cls-21 {
                fill: #5d779e;
            }

            .cls-22 {
                fill: #4eb2fa;
            }

            .cls-23 {
                fill: url(#未命名的渐变_164);
            }

            .cls-24 {
                fill: url(#未命名的渐变_197);
            }

            .cls-25 {
                fill: url(#未命名的渐变_197-2);
            }

            .cls-26 {
                fill: url(#未命名的渐变_164-2);
            }

            .cls-27 {
                fill: #0e4ad2;
            }

            .cls-28 {
                fill: url(#未命名的渐变_118);
            }

            .cls-29 {
                fill: url(#未命名的渐变_164-3);
            }

            .cls-30 {
                fill: url(#未命名的渐变_164-4);
            }

            .cls-31 {
                fill: url(#未命名的渐变_118-2);
            }

            .cls-32 {
                fill: url(#未命名的渐变_221);
            }

            .cls-33 {
                fill: url(#未命名的渐变_155);
            }

            .cls-34 {
                fill: url(#未命名的渐变_118-3);
            }

            .cls-35 {
                fill: url(#未命名的渐变_164-5);
            }

            .cls-36 {
                fill: url(#未命名的渐变_164-6);
            }

            .cls-37 {
                fill: url(#未命名的渐变_143);
            }

            .cls-38 {
                fill: url(#未命名的渐变_118-4);
            }

            .cls-39 {
                fill: url(#未命名的渐变_164-7);
            }

            .cls-40 {
                fill: url(#未命名的渐变_164-8);
            }

            .cls-41 {
                fill: url(#未命名的渐变_159);
            }

            .cls-42 {
                fill: url(#未命名的渐变_140-4);
            }

            .cls-43 {
                fill: url(#未命名的渐变_155-2);
            }

            .cls-44 {
                fill: url(#未命名的渐变_118-5);
            }

            .cls-45 {
                fill: url(#未命名的渐变_164-9);
            }

            .cls-46 {
                fill: url(#未命名的渐变_235);
            }

            .cls-47 {
                fill: url(#未命名的渐变_249);
            }

            .cls-48 {
                fill: url(#未命名的渐变_255);
            }

            .cls-49 {
                fill: url(#未命名的渐变_197-3);
            }

            .cls-50,
            .cls-58 {
                fill: #171d23;
            }

            .cls-51 {
                fill: url(#未命名的渐变_261);
            }

            .cls-52 {
                fill: url(#未命名的渐变_17280);
            }

            .cls-53 {
                fill: url(#未命名的渐变_264);
            }

            .cls-54 {
                fill: url(#未命名的渐变_17280-2);
            }

            .cls-55 {
                fill: url(#未命名的渐变_235-2);
            }

            .cls-56 {
                fill: url(#未命名的渐变_274);
            }

            .cls-57 {
                fill: url(#未命名的渐变_274-2);
            }

            .cls-58 {
                mix-blend-mode: overlay;
            }

            .cls-59 {
                fill: url(#未命名的渐变_274-3);
            }

            .cls-60 {
                fill: url(#未命名的渐变_17280-3);
            }

            .cls-61 {
                fill: url(#未命名的渐变_261-2);
            }

            .cls-62 {
                fill: url(#未命名的渐变_261-3);
            }

            .cls-63 {
                fill: url(#未命名的渐变_261-4);
            }

            .cls-64 {
                fill: url(#未命名的渐变_17280-4);
            }

            .cls-65 {
                fill: url(#未命名的渐变_318);
            }

            .cls-66 {
                fill: url(#未命名的渐变_324);
            }

            .cls-67 {
                fill: url(#未命名的渐变_17280-5);
            }

            .cls-68 {
                fill: url(#未命名的渐变_261-5);
            }

            .cls-69 {
                fill: url(#未命名的渐变_318-2);
            }

            .cls-70 {
                opacity: 0.2;
            }
        </style>
        <pattern id="新建图案" data-name="新建图案" width="18.57" height="32.16" patternTransform="translate(2173.47 1141.4)"
            patternUnits="userSpaceOnUse" viewBox="0 0 18.57 32.16">
            <rect class="cls-1" width="18.57" height="32.16" />
            <polyline class="cls-2" points="18.57 21.44 18.57 32.16 18.57 42.88" />
            <polyline class="cls-2" points="9.29 26.8 18.57 32.16 27.85 37.51 27.85 37.52" />
            <polyline class="cls-2" points="9.29 37.52 9.29 37.51 18.57 32.16 27.85 26.8" />
            <polygon class="cls-2"
                points="27.85 37.52 27.85 26.8 18.57 21.44 9.28 26.8 9.28 37.52 18.57 42.88 27.85 37.52" />
            <polyline class="cls-2" points="0 21.44 0 32.16 0 42.88" />
            <polyline class="cls-2" points="-9.28 26.8 0 32.16 9.28 37.51 9.28 37.52" />
            <polyline class="cls-2" points="-9.28 37.52 -9.28 37.51 0 32.16 9.28 26.8" />
            <polygon class="cls-2" points="9.28 37.52 9.28 26.8 0 21.44 -9.29 26.8 -9.29 37.52 0 42.88 9.28 37.52" />
            <polyline class="cls-2" points="18.57 10.72 27.85 16.08 37.13 21.43 37.13 21.44" />
            <polyline class="cls-2" points="18.57 21.44 18.57 21.43 27.85 16.08 37.13 10.72" />
            <polygon class="cls-2"
                points="37.14 21.44 37.14 10.72 27.85 5.36 18.57 10.72 18.57 21.44 27.85 26.8 37.14 21.44" />
            <polyline class="cls-2" points="9.29 5.36 9.29 16.08 9.29 26.8" />
            <polyline class="cls-2" points="0.01 10.72 9.29 16.08 18.57 21.43 18.57 21.44" />
            <polyline class="cls-2" points="0.01 21.44 0.01 21.43 9.29 16.08 18.57 10.72" />
            <polygon class="cls-2" points="18.57 21.44 18.57 10.72 9.28 5.36 0 10.72 0 21.44 9.28 26.8 18.57 21.44" />
            <polyline class="cls-2" points="-18.56 10.72 -9.28 16.08 0 21.43 0 21.44" />
            <polyline class="cls-2" points="-18.56 21.44 -18.56 21.43 -9.28 16.08 0 10.72" />
            <polygon class="cls-2" points="0 21.44 0 10.72 -9.29 5.36 -18.57 10.72 -18.57 21.44 -9.29 26.8 0 21.44" />
            <polyline class="cls-2" points="18.57 -10.72 18.57 0 18.57 10.72" />
            <polyline class="cls-2" points="9.29 -5.36 18.57 0 27.85 5.35 27.85 5.36" />
            <polyline class="cls-2" points="9.29 5.36 9.29 5.35 18.57 0 27.85 -5.36" />
            <polygon class="cls-2"
                points="27.85 5.36 27.85 -5.36 18.57 -10.72 9.28 -5.36 9.28 5.36 18.57 10.72 27.85 5.36" />
            <polyline class="cls-2" points="0 -10.72 0 0 0 10.72" />
            <polyline class="cls-2" points="-9.28 -5.36 0 0 9.28 5.35 9.28 5.36" />
            <polyline class="cls-2" points="-9.28 5.36 -9.28 5.35 0 0 9.28 -5.36" />
            <polygon class="cls-2" points="9.28 5.36 9.28 -5.36 0 -10.72 -9.29 -5.36 -9.29 5.36 0 10.72 9.28 5.36" />
        </pattern>
        <linearGradient id="未命名的渐变_21" x1="46.27" y1="136.99" x2="83.72" y2="136.99" gradientUnits="userSpaceOnUse">
            <stop offset="0" stop-color="#38455a" />
            <stop offset="0.15" stop-color="#7a98cc" />
            <stop offset="0.25" stop-color="#7a98cc" />
            <stop offset="0.9" stop-color="#12161a" />
            <stop offset="1" stop-color="#283140" />
        </linearGradient>
        <linearGradient id="未命名的渐变_13" x1="46.31" y1="124.03" x2="83.72" y2="124.03" gradientUnits="userSpaceOnUse">
            <stop offset="0" stop-color="#89abe6" />
            <stop offset="1" stop-color="#547099" />
        </linearGradient>
        <linearGradient id="未命名的渐变_131" x1="65.05" y1="124.03" x2="83.72" y2="124.03" gradientUnits="userSpaceOnUse">
            <stop offset="0" stop-color="#142439" stop-opacity="0.6" />
            <stop offset="1" stop-color="#142439" stop-opacity="0" />
        </linearGradient>
        <linearGradient id="未命名的渐变_21-2" x1="52.01" y1="126.19" x2="78.03" y2="126.19" xlink:href="#未命名的渐变_21" />
        <linearGradient id="未命名的渐变_144" x1="52.92" y1="116.88" x2="77.5" y2="123.47" gradientUnits="userSpaceOnUse">
            <stop offset="0" stop-color="#38455a" />
            <stop offset="0.2" stop-color="#7a98cc" />
            <stop offset="0.45" stop-color="#7a98cc" />
            <stop offset="0.9" stop-color="#12161a" />
            <stop offset="1" stop-color="#283140" />
        </linearGradient>
        <linearGradient id="未命名的渐变_13-2" x1="54.45" y1="114.27" x2="75.64" y2="114.27" xlink:href="#未命名的渐变_13" />
        <linearGradient id="未命名的渐变_140" x1="85.7" y1="11.47" x2="80.68" y2="2.77" gradientUnits="userSpaceOnUse">
            <stop offset="0" stop-color="#283140" />
            <stop offset="0.1" stop-color="#12161a" />
            <stop offset="0.75" stop-color="#7a98cc" />
            <stop offset="0.85" stop-color="#7a98cc" />
            <stop offset="1" stop-color="#38455a" />
        </linearGradient>
        <linearGradient id="未命名的渐变_78" x1="54.45" y1="112.14" x2="75.65" y2="112.14" gradientUnits="userSpaceOnUse">
            <stop offset="0" stop-color="#8ce2ff" />
            <stop offset="1" stop-color="#44b6ff" />
        </linearGradient>
        <linearGradient id="未命名的渐变_73" x1="54.45" y1="116.26" x2="75.65" y2="116.26" gradientUnits="userSpaceOnUse">
            <stop offset="0" stop-color="#0073e6" />
            <stop offset="0.15" stop-color="#59c8ff" />
            <stop offset="0.25" stop-color="#59c8ff" />
            <stop offset="0.85" stop-color="#1433cc" />
            <stop offset="1" stop-color="#0073e6" />
        </linearGradient>
        <linearGradient id="未命名的渐变_138" x1="54.57" y1="115" x2="63.96" y2="98.73" gradientUnits="userSpaceOnUse">
            <stop offset="0" stop-color="#3b77b3" />
            <stop offset="0.21" stop-color="#596b8c" />
            <stop offset="1" stop-color="#425266" />
        </linearGradient>
        <linearGradient id="未命名的渐变_297" x1="78.12" y1="113.53" x2="61.72" y2="85.12" gradientUnits="userSpaceOnUse">
            <stop offset="0" stop-color="#143080" />
            <stop offset="0.14" stop-color="#283140" />
            <stop offset="0.36" stop-color="#12161a" />
            <stop offset="0.5" stop-color="#14171b" />
            <stop offset="0.75" stop-color="#7a98cc" />
            <stop offset="0.94" stop-color="#7a98cc" />
            <stop offset="1" stop-color="#38455a" />
        </linearGradient>
        <linearGradient id="未命名的渐变_140-2" x1="42.8" y1="44.66" x2="36.76" y2="34.21" xlink:href="#未命名的渐变_140" />
        <linearGradient id="未命名的渐变_140-3" x1="45.57" y1="42.84" x2="39.09" y2="31.62" xlink:href="#未命名的渐变_140" />
        <linearGradient id="未命名的渐变_164" x1="51.29" y1="38.6" x2="45.17" y2="28" gradientUnits="userSpaceOnUse">
            <stop offset="0" stop-color="#0073e6" />
            <stop offset="0.15" stop-color="#1433cc" />
            <stop offset="0.7" stop-color="#59c8ff" />
            <stop offset="0.9" stop-color="#59c8ff" />
            <stop offset="1" stop-color="#2596f0" />
        </linearGradient>
        <linearGradient id="未命名的渐变_197" x1="86.21" y1="19.15" x2="94.14" y2="12.01" gradientUnits="userSpaceOnUse">
            <stop offset="0" stop-color="#283140" />
            <stop offset="0.1" stop-color="#12161a" />
            <stop offset="0.38" stop-color="#7a98cc" />
            <stop offset="0.7" stop-color="#7a98cc" />
            <stop offset="1" stop-color="#38455a" />
        </linearGradient>
        <linearGradient id="未命名的渐变_197-2" x1="92.01" y1="22.14" x2="100.25" y2="22.14" xlink:href="#未命名的渐变_197" />
        <linearGradient id="未命名的渐变_164-2" x1="93.61" y1="26.98" x2="98.88" y2="17.86" xlink:href="#未命名的渐变_164" />
        <linearGradient id="未命名的渐变_118" x1="32.52" y1="50.92" x2="23.81" y2="42.21" gradientUnits="userSpaceOnUse">
            <stop offset="0" stop-color="#2f77eb" />
            <stop offset="1" stop-color="#59c8ff" />
        </linearGradient>
        <linearGradient id="未命名的渐变_164-3" x1="33.72" y1="50.63" x2="27.42" y2="39.71" xlink:href="#未命名的渐变_164" />
        <linearGradient id="未命名的渐变_164-4" x1="64.02" y1="107.37" x2="54.27" y2="90.48" xlink:href="#未命名的渐变_164" />
        <linearGradient id="未命名的渐变_118-2" x1="62.6" y1="107.57" x2="49.11" y2="94.09" xlink:href="#未命名的渐变_118" />
        <linearGradient id="未命名的渐变_221" x1="59.69" y1="109.76" x2="21.25" y2="43.19" gradientUnits="userSpaceOnUse">
            <stop offset="0" stop-color="#283140" />
            <stop offset="0.07" stop-color="#12161a" />
            <stop offset="0.16" stop-color="#576c90" />
            <stop offset="0.87" stop-color="#38455a" />
            <stop offset="0.94" stop-color="#7a98cc" />
            <stop offset="1" stop-color="#7a98cc" />
        </linearGradient>
        <linearGradient id="未命名的渐变_155" x1="60.38" y1="106.12" x2="8.35" y2="54.08" gradientUnits="userSpaceOnUse">
            <stop offset="0" stop-color="#425266" />
            <stop offset="1" stop-color="#596b8c" />
        </linearGradient>
        <linearGradient id="未命名的渐变_118-3" x1="22.26" y1="56.56" x2="14.44" y2="48.73" xlink:href="#未命名的渐变_118" />
        <linearGradient id="未命名的渐变_164-5" x1="23.34" y1="56.3" x2="17.68" y2="46.5" xlink:href="#未命名的渐变_164" />
        <linearGradient id="未命名的渐变_164-6" x1="52.8" y1="112.32" x2="44.31" y2="97.62" xlink:href="#未命名的渐变_164" />
        <linearGradient id="未命名的渐变_143" x1="51.56" y1="112.5" x2="39.82" y2="100.76" xlink:href="#未命名的渐变_118" />
        <linearGradient id="未命名的渐变_118-4" x1="78.46" y1="15.33" x2="71.49" y2="8.36" xlink:href="#未命名的渐变_118" />
        <linearGradient id="未命名的渐变_164-7" x1="79.42" y1="15.1" x2="74.38" y2="6.37" xlink:href="#未命名的渐变_164" />
        <linearGradient id="未命名的渐变_164-8" x1="60.04" y1="34.17" x2="54.39" y2="24.38" xlink:href="#未命名的渐变_164" />
        <linearGradient id="未命名的渐变_159" x1="52.46" y1="39.18" x2="66.32" y2="15.18" gradientUnits="userSpaceOnUse">
            <stop offset="0" stop-color="#495a71" />
            <stop offset="0.22" stop-color="#283140" />
            <stop offset="0.49" stop-color="#232b37" />
            <stop offset="0.93" stop-color="#15191f" />
            <stop offset="1" stop-color="#12161a" />
        </linearGradient>
        <linearGradient id="未命名的渐变_140-4" x1="75.73" y1="17.55" x2="70.37" y2="8.26" xlink:href="#未命名的渐变_140" />
        <linearGradient id="未命名的渐变_155-2" x1="64.04" y1="29.21" x2="53.25" y2="18.42" xlink:href="#未命名的渐变_155" />
        <linearGradient id="未命名的渐变_118-5" x1="70.22" y1="19.58" x2="63.83" y2="13.19" xlink:href="#未命名的渐变_118" />
        <linearGradient id="未命名的渐变_164-9" x1="71.1" y1="19.37" x2="66.48" y2="11.36" xlink:href="#未命名的渐变_164" />
        <linearGradient id="未命名的渐变_235" x1="93.1" y1="28.88" x2="103.26" y2="19.74" gradientUnits="userSpaceOnUse">
            <stop offset="0" stop-color="#283140" />
            <stop offset="0.1" stop-color="#12161a" />
            <stop offset="0.42" stop-color="#7a98cc" />
            <stop offset="0.65" stop-color="#7a98cc" />
            <stop offset="1" stop-color="#38455a" />
        </linearGradient>
        <linearGradient id="未命名的渐变_249" x1="96.69" y1="32.87" x2="106.86" y2="23.71" gradientUnits="userSpaceOnUse">
            <stop offset="0" stop-color="#283140" />
            <stop offset="0.1" stop-color="#12161a" />
            <stop offset="0.38" stop-color="#7a98cc" />
            <stop offset="0.7" stop-color="#7a98cc" />
            <stop offset="1" stop-color="#38455a" />
        </linearGradient>
        <linearGradient id="未命名的渐变_255" x1="100.74" y1="37.31" x2="110.39" y2="27.66" gradientUnits="userSpaceOnUse">
            <stop offset="0" stop-color="#283140" />
            <stop offset="0.34" stop-color="#232b37" />
            <stop offset="0.9" stop-color="#15191f" />
            <stop offset="1" stop-color="#12161a" />
        </linearGradient>
        <linearGradient id="未命名的渐变_197-3" x1="110.33" y1="45.56" x2="118.29" y2="38.38" xlink:href="#未命名的渐变_197" />
        <linearGradient id="未命名的渐变_261" x1="120.69" y1="59.23" x2="130.83" y2="50.1" gradientUnits="userSpaceOnUse">
            <stop offset="0" stop-color="#0073e6" />
            <stop offset="0.15" stop-color="#1433cc" />
            <stop offset="0.38" stop-color="#59c8ff" />
            <stop offset="0.7" stop-color="#59c8ff" />
            <stop offset="1" stop-color="#2596f0" />
        </linearGradient>
        <linearGradient id="未命名的渐变_17280" x1="122.65" y1="61.37" x2="132.28" y2="51.74" gradientUnits="userSpaceOnUse">
            <stop offset="0" stop-color="#0073e6" />
            <stop offset="1" stop-color="#143ccc" />
        </linearGradient>
        <linearGradient id="未命名的渐变_264" x1="126.03" y1="59.85" x2="130.89" y2="55.47" gradientUnits="userSpaceOnUse">
            <stop offset="0" stop-color="#0073e6" />
            <stop offset="0.15" stop-color="#1433cc" />
            <stop offset="0.38" stop-color="#59c8ff" />
            <stop offset="0.6" stop-color="#59c8ff" />
            <stop offset="1" stop-color="#2596f0" />
        </linearGradient>
        <linearGradient id="未命名的渐变_17280-2" x1="128.38" y1="59.44" x2="131.76" y2="59.44" xlink:href="#未命名的渐变_17280" />
        <linearGradient id="未命名的渐变_235-2" x1="118.66" y1="56.92" x2="128.74" y2="47.85" xlink:href="#未命名的渐变_235" />
        <linearGradient id="未命名的渐变_274" x1="123.84" y1="60.38" x2="125.5" y2="60.02" gradientUnits="userSpaceOnUse">
            <stop offset="0" stop-color="#2596f0" />
            <stop offset="0.3" stop-color="#59c8ff" />
            <stop offset="0.62" stop-color="#59c8ff" />
            <stop offset="0.94" stop-color="#1433cc" />
            <stop offset="1" stop-color="#0073e6" />
        </linearGradient>
        <linearGradient id="未命名的渐变_274-2" x1="123.96" y1="60.92" x2="125.61" y2="60.57" xlink:href="#未命名的渐变_274" />
        <linearGradient id="未命名的渐变_274-3" x1="124.52" y1="62.66" x2="125.78" y2="62.4" xlink:href="#未命名的渐变_274" />
        <linearGradient id="未命名的渐变_17280-3" x1="124.88" y1="64.26" x2="126.13" y2="64.26" xlink:href="#未命名的渐变_17280" />
        <linearGradient id="未命名的渐变_261-2" x1="131.48" y1="55.19" x2="132.24" y2="53.7" xlink:href="#未命名的渐变_261" />
        <linearGradient id="未命名的渐变_261-3" x1="130.96" y1="54.93" x2="131.72" y2="53.43" xlink:href="#未命名的渐变_261" />
        <linearGradient id="未命名的渐变_261-4" x1="133.38" y1="55.91" x2="133.96" y2="54.79" xlink:href="#未命名的渐变_261" />
        <linearGradient id="未命名的渐变_17280-4" x1="135.02" y1="56.19" x2="135.66" y2="56.19" xlink:href="#未命名的渐变_17280" />
        <linearGradient id="未命名的渐变_318" x1="126.17" y1="56.03" x2="127.47" y2="54.94" gradientUnits="userSpaceOnUse">
            <stop offset="0" stop-color="#0073e6" />
            <stop offset="0.38" stop-color="#59c8ff" />
            <stop offset="0.7" stop-color="#59c8ff" />
            <stop offset="1" stop-color="#2596f0" />
        </linearGradient>
        <linearGradient id="未命名的渐变_324" x1="126.51" y1="56.42" x2="127.81" y2="55.34" gradientUnits="userSpaceOnUse">
            <stop offset="0" stop-color="#0073e6" />
            <stop offset="0.3" stop-color="#66e5ff" />
            <stop offset="0.7" stop-color="#66e5ff" />
            <stop offset="1" stop-color="#2596f0" />
        </linearGradient>
        <linearGradient id="未命名的渐变_17280-5" x1="127.68" y1="57.14" x2="128.89" y2="57.14" xlink:href="#未命名的渐变_17280" />
        <linearGradient id="未命名的渐变_261-5" x1="127.11" y1="56.79" x2="128.11" y2="55.94" xlink:href="#未命名的渐变_261" />
        <linearGradient id="未命名的渐变_318-2" x1="127.11" y1="56.79" x2="128.11" y2="55.94" xlink:href="#未命名的渐变_318" />
    </defs>
    <title>机械臂1</title>
    <g id="图层_2" data-name="图层 2">
        <g id="图层_1-2" data-name="图层 1">
            <g id="机械臂1">
                <g class="cls-3">
                    <rect class="cls-4" width="150" height="150" />
                    <rect id="网格" class="cls-5" width="150" height="150" />
                </g>
                <g class="cls-6">
                    <path class="cls-7"
                        d="M78.05,131.83c-7.4,4.15-19.25,4-26.45-.27-3.54-2.12-5.3-4.85-5.29-7.58l0,15.13c0,2.73,1.75,5.47,5.29,7.58,7.2,4.31,19,4.43,26.45.27,3.76-2.11,5.66-4.92,5.67-7.74l0-15.13C83.71,126.9,81.82,129.71,78.05,131.83Z" />
                    <path class="cls-8"
                        d="M78.43,116.51h0c-7.19-4.3-19-4.41-26.42-.26s-7.58,11-.37,15.32,19,4.42,26.44.27l.44-.26C85.47,127.39,85.48,120.73,78.43,116.51ZM65.05,131.57a18.63,18.63,0,0,1-9.36-2.3c-5-3-4.89-7.76.26-10.65a18.78,18.78,0,0,1,9.1-2.12,18.63,18.63,0,0,1,9.29,2.3c5,3,4.89,7.76-.26,10.66a18.8,18.8,0,0,1-9,2.11Z" />
                    <path class="cls-9" d="M78.49,131.57H65.05V116.5H78.43C85.48,120.73,85.47,127.39,78.49,131.57Z" />
                    <path class="cls-10"
                        d="M74.09,126.27c-5.15,2.89-13.39,2.81-18.39-.18-2.47-1.48-3.69-3.38-3.68-5.27V124c0,1.89,1.21,3.8,3.68,5.27,5,3,13.24,3.07,18.39.18C76.7,128,78,126,78,124.07v-3.18C78,122.85,76.71,124.8,74.09,126.27Z" />
                    <path class="cls-11"
                        d="M78,120.45h0a5.07,5.07,0,0,0-.88-2.34v0a12.09,12.09,0,0,1-1-2,9,9,0,0,1-.54-2.21c0,.41.11.82.19,1.22-.08-.4-.15-.81-.19-1.22.17,1.71-.9,3.46-3.19,4.74-4.2,2.36-10.9,2.29-15-.15-2.16-1.29-3.15-3-3-4.65a10.64,10.64,0,0,1-1.54,4.18v0a5.06,5.06,0,0,0-.89,2.33c-.21,2,1,4.13,3.66,5.72,5,3,13.24,3.07,18.39.18C76.91,124.69,78.22,122.55,78,120.45Z" />
                    <path class="cls-12"
                        d="M72.64,110c-4.08-2.44-10.78-2.51-15-.15s-4.29,6.24-.21,8.67,10.78,2.51,15,.15S76.72,112.45,72.64,110Z" />
                </g>
                <g class="cls-6">
                    <path class="cls-13"
                        d="M87.59.49A2.48,2.48,0,0,0,85.07.24L73.79,6.8A2.48,2.48,0,0,1,76.31,7a7.8,7.8,0,0,1,3.54,6.13,2.49,2.49,0,0,1-1,2.27L90.1,8.88a2.48,2.48,0,0,0,1-2.27A7.78,7.78,0,0,0,87.59.49Z" />
                    <path class="cls-14"
                        d="M76.31,7c-2-1.13-3.55-.22-3.56,2a7.8,7.8,0,0,0,3.54,6.12c2,1.13,3.55.23,3.56-2A7.8,7.8,0,0,0,76.31,7Z" />
                </g>
                <path class="cls-15"
                    d="M75.65,112.16c0,1.57-1,3.13-3.09,4.33a16.47,16.47,0,0,1-15,0c-2.08-1.2-3.12-2.78-3.12-4.36s1-3.12,3.07-4.32a16.5,16.5,0,0,1,15,0C74.6,109,75.65,110.59,75.65,112.16Z" />
                <path class="cls-16"
                    d="M75.65,112.16v2.12c0,1.57-1,3.14-3.09,4.33a16.47,16.47,0,0,1-15,0c-2.08-1.2-3.12-2.78-3.12-4.36v-2.12c0,1.58,1,3.16,3.12,4.36a16.47,16.47,0,0,0,15,0C74.62,115.29,75.65,113.73,75.65,112.16Z" />
                <path class="cls-17"
                    d="M65,104.17v14.36h-.48a17.18,17.18,0,0,1-3.68-.51,12.33,12.33,0,0,1-3.3-1.29c-2.09-1.2-3.13-2.79-3.13-4.36V93.57l6.1,3.2a8.41,8.41,0,0,1,4.49,7.4Z" />
                <path class="cls-18"
                    d="M80.71,92.82a11.44,11.44,0,0,0-5.19-9c-2.69-2.44-14.6,1.75-18,3.73-2.05,1.19-3.08,2.76-3.08,4.32v1.7l6.1,3.2a8.41,8.41,0,0,1,4.49,7.4v14.36a15.14,15.14,0,0,0,7.53-1.79,6.66,6.66,0,0,0,2.61-2.51,3.83,3.83,0,0,0,.47-1.82v-9.49a7.22,7.22,0,0,1,1.85-4.82l1.83-2h0A3.7,3.7,0,0,0,80.71,92.82Z" />
                <g class="cls-6">
                    <path class="cls-19"
                        d="M46.26,30.77a3,3,0,0,0-3-.3L27.29,39.74a3,3,0,0,1,3,.29,9.35,9.35,0,0,1,4.25,7.36,3,3,0,0,1-1.24,2.74l15.94-9.27a3,3,0,0,0,1.24-2.73A9.35,9.35,0,0,0,46.26,30.77Z" />
                    <path class="cls-14"
                        d="M30.32,40C28,38.68,26.05,39.77,26,42.47a9.39,9.39,0,0,0,4.25,7.36c2.36,1.36,4.27.27,4.28-2.44A9.35,9.35,0,0,0,30.32,40Z" />
                </g>
                <g class="cls-6">
                    <path class="cls-20"
                        d="M52.59,37.68c-2.41,1.33-5.73.1-7.42-2.75S44,29,46.13,27.56L35.65,34.72c-2.12,1.45-2.57,4.66-1,7.37s5,4.08,7.42,2.75l.33-.21,10.48-7.16Z" />
                    <path class="cls-21"
                        d="M53.88,30.1c-1.69-2.85-5-4.08-7.42-2.75s-3,4.73-1.29,7.58,5,4.08,7.42,2.75S55.57,33,53.88,30.1Z" />
                </g>
                <g class="cls-6">
                    <path class="cls-22"
                        d="M55.23,29.29c-1.71-2.88-5.07-4.13-7.5-2.78s-3,4.78-1.3,7.66S51.49,38.3,53.92,37,56.94,32.17,55.23,29.29Z" />
                    <path class="cls-23"
                        d="M53.92,37c-2.43,1.35-5.78.11-7.49-2.78s-1.18-6,1-7.45l-1.25.85C44,29,43.55,32.28,45.18,35s5.06,4.13,7.5,2.78a3,3,0,0,0,.33-.21l1.25-.85Z" />
                </g>
                <path class="cls-24"
                    d="M89.39,6.84C89,6.4,88,6.49,86.72,7.19a12.61,12.61,0,0,0-5.18,5.29c-.27.7-.25,1.2,0,1.48L92.21,25.7c-.26-.28-.28-.78,0-1.47a12.57,12.57,0,0,1,5.18-5.3c1.31-.69,2.27-.79,2.66-.35Z" />
                <path class="cls-25"
                    d="M97.39,18.93a12.57,12.57,0,0,0-5.18,5.3c-.7,1.77.49,2.27,2.66,1.12a12.6,12.6,0,0,0,5.19-5.3C100.75,18.28,99.56,17.78,97.39,18.93Z" />
                <g class="cls-6">
                    <path class="cls-26"
                        d="M100.06,18.58c-.39-.44-1.35-.34-2.67.36a12.49,12.49,0,0,0-5.18,5.29c-.28.7-.26,1.2,0,1.48l.89,1c-.26-.29-.28-.79,0-1.48a12.57,12.57,0,0,1,5.18-5.3c1.32-.7,2.27-.79,2.67-.35Z" />
                    <path class="cls-27"
                        d="M98.28,19.91a12.57,12.57,0,0,0-5.18,5.3c-.7,1.77.49,2.27,2.66,1.12A12.6,12.6,0,0,0,101,21C101.64,19.26,100.45,18.76,98.28,19.91Z" />
                </g>
                <g class="cls-6">
                    <path class="cls-28"
                        d="M28.18,41.43C25.71,40,23.7,41.15,23.69,44a9.85,9.85,0,0,0,4.46,7.72c2.47,1.43,4.47.28,4.48-2.56A9.79,9.79,0,0,0,28.18,41.43Z" />
                    <path class="cls-29"
                        d="M29.84,40.46a3.15,3.15,0,0,0-3.18-.31l-1.66,1a3.15,3.15,0,0,1,3.18.31,9.79,9.79,0,0,1,4.45,7.71A3.12,3.12,0,0,1,31.33,52L33,51a3.11,3.11,0,0,0,1.31-2.86A9.85,9.85,0,0,0,29.84,40.46Z" />
                </g>
                <g class="cls-6">
                    <path class="cls-30"
                        d="M57.59,91.88c-1.92-1.11-3.66-1.21-4.92-.48L51,92.4c1.25-.73,3-.63,4.91.48a15.19,15.19,0,0,1,6.9,12c0,2.17-.78,3.71-2,4.43l1.72-1c1.24-.72,2-2.25,2-4.43A15.21,15.21,0,0,0,57.59,91.88Z" />
                    <path class="cls-31"
                        d="M55.87,92.88c-3.81-2.2-6.92-.43-6.93,4a15.17,15.17,0,0,0,6.89,11.94c3.82,2.2,6.93.43,6.94-4A15.19,15.19,0,0,0,55.87,92.88Z" />
                </g>
                <path class="cls-32"
                    d="M61.09,98.45c-3.54-7-7.55-11.08-17.24-29C35.1,53.35,34.36,50.12,32.17,45.8c-1.76-3.47-4.91-5.6-7-4.74l-8,4.51c2.13-.86,5.28,1.26,7,4.73,2.19,4.33,2.93,7.55,11.68,23.7,9.69,17.88,13.71,22,17.25,29,2.35,4.64,2.08,9.33-.53,10.8l8-4.51C63.17,107.78,63.44,103.09,61.09,98.45Z" />
                <path class="cls-33"
                    d="M53.1,103c-3.54-7-7.56-11.08-17.25-29C27.1,57.85,26.36,54.63,24.17,50.3c-1.76-3.47-4.91-5.59-7-4.73s-2.42,4.37-.66,7.85c.46,1.07,7.47,16.76,10.86,23.89,3.84,8.13,14.36,28.8,15,30,2.46,4.87,6.88,7.84,9.86,6.64S55.56,107.82,53.1,103Z" />
                <g class="cls-6">
                    <path class="cls-34"
                        d="M18.36,48c-2.22-1.28-4-.26-4,2.29a8.81,8.81,0,0,0,4,6.93c2.22,1.28,4,.25,4-2.3A8.78,8.78,0,0,0,18.36,48Z" />
                    <path class="cls-35"
                        d="M19.86,47.17A2.81,2.81,0,0,0,17,46.89l-1.49.87a2.79,2.79,0,0,1,2.85.28,8.78,8.78,0,0,1,4,6.92,2.81,2.81,0,0,1-1.17,2.58l1.49-.87a2.81,2.81,0,0,0,1.17-2.58A8.81,8.81,0,0,0,19.86,47.17Z" />
                </g>
                <g class="cls-6">
                    <path class="cls-36"
                        d="M47.2,98.84c-1.67-1-3.18-1-4.28-.42l-1.49.87c1.09-.63,2.61-.54,4.28.42a13.24,13.24,0,0,1,6,10.4C51.7,112,51,113.34,50,114l1.5-.87c1.08-.62,1.75-2,1.75-3.85A13.23,13.23,0,0,0,47.2,98.84Z" />
                    <path class="cls-37"
                        d="M45.71,99.71c-3.32-1.92-6-.38-6,3.45a13.22,13.22,0,0,0,6,10.38c3.32,1.92,6,.38,6-3.43A13.24,13.24,0,0,0,45.71,99.71Z" />
                </g>
                <g class="cls-6">
                    <path class="cls-38"
                        d="M75,7.74c-2-1.14-3.58-.22-3.59,2A7.86,7.86,0,0,0,75,16c2,1.14,3.58.22,3.59-2.05A7.85,7.85,0,0,0,75,7.74Z" />
                    <path class="cls-39"
                        d="M76.32,7a2.51,2.51,0,0,0-2.55-.25l-1.33.77A2.54,2.54,0,0,1,75,7.74a7.85,7.85,0,0,1,3.56,6.17,2.52,2.52,0,0,1-1,2.3l1.33-.78a2.49,2.49,0,0,0,1-2.29A7.85,7.85,0,0,0,76.32,7Z" />
                </g>
                <path class="cls-21"
                    d="M63.85,26c-1.69-2.85-5-4.08-7.42-2.75s-3,4.73-1.29,7.58,5,4.08,7.42,2.75S65.54,28.84,63.85,26Z" />
                <g class="cls-6">
                    <path class="cls-22"
                        d="M63.37,25.79c-1.59-2.68-4.71-3.83-7-2.58s-2.8,4.44-1.21,7.11,4.7,3.84,7,2.58S65,28.47,63.37,25.79Z" />
                    <path class="cls-40"
                        d="M62.15,32.9c-2.26,1.26-5.37.1-7-2.58s-1.1-5.55.9-6.92l-.46.31c-2,1.36-2.42,4.37-.9,6.92s4.7,3.84,7,2.58L62,33l.47-.31A3.37,3.37,0,0,1,62.15,32.9Z" />
                </g>
                <g class="cls-6">
                    <path class="cls-41"
                        d="M46.69,34.82c1.91,3.42,7.19,4.49,9.23,3.36l.32-.2,6.65-4.62-.33.21a5.07,5.07,0,0,1-4.45,0c-.44-.24-1.12-1.07-.08-2.48,2.48-3.37,3.9-3.89,10.81-9.45a40.39,40.39,0,0,1,3.69-2.86A42.83,42.83,0,0,0,60,24.18C53.55,28.39,47.42,35.14,46.69,34.82Z" />
                    <path class="cls-14"
                        d="M62.83,11.8l-6,4.45c2.48-1.48,8.92-5.22,9.27-5.37L72,7.36C71.62,7.51,65.31,10.32,62.83,11.8Z" />
                    <path class="cls-42"
                        d="M77.33,9.91c-1.52-2.35-3.8-3.5-5.19-2.66l-5.9,3.51c1.39-.83,3.67.32,5.19,2.67s1.77,5.28.4,6.31a6.79,6.79,0,0,1-.62.42l5.9-3.52a7.23,7.23,0,0,0,.61-.41C79.1,15.19,78.92,12.36,77.33,9.91Z" />
                    <path class="cls-43"
                        d="M71.43,13.43c-1.58-2.45-4-3.59-5.36-2.55-.36.15-7,3.76-9.27,5.37-3.21,2.31-8.68,6.52-10.48,9.76-1.33,2.39-1,5.43-.19,7.73,2.08,5.72,8.55,4.82,8.55,4.82A2.66,2.66,0,0,1,53.32,35c.58-1.63,1.83-4,8.86-10,4.91-4.23,7.41-3.54,9.65-5.24C73.2,18.71,73,15.88,71.43,13.43Z" />
                </g>
                <g class="cls-6">
                    <path class="cls-44"
                        d="M67,12.62c-1.81-1-3.29-.21-3.29,1.87A7.18,7.18,0,0,0,67,20.15c1.81,1.05,3.29.21,3.29-1.87A7.19,7.19,0,0,0,67,12.62Z" />
                    <path class="cls-45"
                        d="M68.26,11.91a2.36,2.36,0,0,0-2.34-.23l-1.22.71a2.33,2.33,0,0,1,2.34.23,7.19,7.19,0,0,1,3.26,5.66,2.3,2.3,0,0,1-1,2.1l1.22-.71a2.28,2.28,0,0,0,1-2.1A7.19,7.19,0,0,0,68.26,11.91Z" />
                </g>
                <g class="cls-6">
                    <path class="cls-46"
                        d="M104.28,20.91,101,18.82h0l-.17-.08h-.07l-.15,0h-.38l-.18,0-.13,0-.21.07-.14.05-.24.09-.15.07-.28.13-.14.07-.44.25a16.09,16.09,0,0,0-5.71,5.74,2.7,2.7,0,0,0-.15.38.42.42,0,0,0,0,.1c0,.09,0,.16-.05.24s0,.06,0,.09a1,1,0,0,0,0,.25v0a.65.65,0,0,0,.06.21v0L94.18,30c.32.65,1.56.48,3.38-.59,2.73-1.6,5.73-4.62,6.72-6.75C104.71,21.77,104.68,21.16,104.28,20.91Z" />
                    <path class="cls-47"
                        d="M104.41,21c-.43-.48-1.61-.26-3.29.72-2.73,1.61-5.74,4.63-6.72,6.76-.38.82-.4,1.38-.13,1.68l6.22,6.88c-.26-.29-.24-.86.14-1.68,1-2.12,4-5.15,6.71-6.75,1.68-1,2.86-1.2,3.29-.73Z" />
                    <path class="cls-48"
                        d="M107.34,28.63c-2.72,1.6-5.73,4.63-6.71,6.75s.43,2.56,3.15,1,5.74-4.63,6.72-6.76S110.07,27,107.34,28.63Z" />
                </g>
                <g class="cls-6">
                    <path class="cls-49"
                        d="M110.21,29.59c-.39-.44-1.35-.35-2.66.35a12.58,12.58,0,0,0-5.19,5.29c-.27.7-.25,1.2,0,1.48l17.29,19c-.26-.28-.27-.78,0-1.48A12.49,12.49,0,0,1,124.83,49c1.32-.7,2.27-.79,2.67-.36Z" />
                    <path class="cls-50"
                        d="M124.83,49a12.49,12.49,0,0,0-5.18,5.29c-.7,1.77.5,2.28,2.66,1.13a12.65,12.65,0,0,0,5.19-5.3C128.19,48.31,127,47.81,124.83,49Z" />
                </g>
                <g class="cls-6">
                    <path class="cls-51"
                        d="M130.46,49.71c-.43-.48-1.6-.26-3.28.72-2.72,1.6-5.72,4.62-6.7,6.74-.38.82-.4,1.38-.14,1.68l2.06,2.28c-.27-.3-.24-.86.13-1.68,1-2.12,4-5.14,6.71-6.74,1.67-1,2.85-1.2,3.28-.73Z" />
                    <path class="cls-52"
                        d="M129.24,52.71c-2.72,1.6-5.73,4.62-6.71,6.74s.44,2.55,3.16.95,5.72-4.61,6.7-6.74S132,51.11,129.24,52.71Zm.58,2.46a9.06,9.06,0,0,1-3.21,3.23c-1.3.76-2,.56-1.51-.46a9.14,9.14,0,0,1,3.21-3.23C129.62,54,130.29,54.15,129.82,55.17Z" />
                    <path class="cls-53"
                        d="M129.93,54.43c-.15-.31-.74-.23-1.62.28a9.14,9.14,0,0,0-3.21,3.23c-.2.45-.19.74,0,.86L128.48,61c-.12-.08-.13-.28,0-.58a6.28,6.28,0,0,1,2.16-2.17c.59-.34,1-.39,1.09-.19Z" />
                    <path class="cls-50"
                        d="M130.64,58.2a6.28,6.28,0,0,0-2.16,2.17c-.31.68.14.82,1,.31a6.28,6.28,0,0,0,2.16-2.17C132,57.83,131.52,57.69,130.64,58.2Z" />
                    <path class="cls-54"
                        d="M131.5,58.12a.5.5,0,0,1-.07.28,5.86,5.86,0,0,1-2.06,2.06,2.07,2.07,0,0,1-.73.3.5.5,0,0,1,.07-.28,5.78,5.78,0,0,1,2.06-2.06,1.58,1.58,0,0,1,.71-.28l0,0m0-.23a1.89,1.89,0,0,0-.84.31,6.28,6.28,0,0,0-2.16,2.17c-.18.41-.1.62.18.62a1.89,1.89,0,0,0,.84-.31,6.28,6.28,0,0,0,2.16-2.17c.18-.41.1-.62-.18-.62Z" />
                    <path class="cls-55"
                        d="M127.3,48c-.44-.23-1.35,0-2.58.72a15.73,15.73,0,0,0-5.56,5.58,1.69,1.69,0,0,0-.2,1.24c.42,1,.84,2.09,1.27,3.13a2,2,0,0,1,.25-1.49c1-2.12,4-5.14,6.7-6.74,1.48-.87,2.58-1.14,3.11-.86Z" />
                </g>
                <g class="cls-6">
                    <path class="cls-56"
                        d="M125.48,59.94c0-.17-.25-.28-.59-.29a1.24,1.24,0,0,0-1,.45.25.25,0,0,0,0,.18l.12.6a.29.29,0,0,1,0-.18,1.26,1.26,0,0,1,1-.45c.33,0,.55.12.59.29Z" />
                    <path class="cls-57"
                        d="M125,60.25a1.26,1.26,0,0,0-1,.45.25.25,0,0,0,0,.29l.28.33a.16.16,0,0,1,0-.21.91.91,0,0,1,.77-.34c.3,0,.48.14.43.3,0-.13.09-.27.13-.41S125.42,60.26,125,60.25Z" />
                    <path class="cls-58"
                        d="M125,60.25a1.26,1.26,0,0,0-1,.45.25.25,0,0,0,0,.29l.28.33a.16.16,0,0,1,0-.21.91.91,0,0,1,.77-.34c.3,0,.48.14.43.3,0-.13.09-.27.13-.41S125.42,60.26,125,60.25Z" />
                    <path class="cls-59"
                        d="M125.48,61c0-.12-.19-.21-.44-.21a.91.91,0,0,0-.77.34.16.16,0,0,0,0,.13l.65,3.14a.21.21,0,0,1,0-.13,1,1,0,0,1,.77-.33c.25,0,.42.09.44.21Z" />
                    <path class="cls-50"
                        d="M125.68,63.92a1,1,0,0,0-.77.33c-.1.19.09.34.42.35a.92.92,0,0,0,.77-.34C126.2,64.07,126,63.92,125.68,63.92Z" />
                    <path class="cls-60"
                        d="M125.67,63.92V64c.19,0,.3,0,.34.11a.16.16,0,0,1,0,.09.85.85,0,0,1-.68.28.44.44,0,0,1-.34-.11.08.08,0,0,1,0-.09.81.81,0,0,1,.67-.28v-.1m0,0a.94.94,0,0,0-.76.33c-.1.19.09.34.42.35h0a.92.92,0,0,0,.76-.34c.1-.19-.09-.34-.42-.34Z" />
                </g>
                <g class="cls-6">
                    <path class="cls-61"
                        d="M132.43,54v0l0,0,0,0v0l0,0,0,0,0,0,0,0,0,0,0,0,0,0h0c-.05-.06-.16,0-.3.13a2.47,2.47,0,0,0-.53,1.06c0,.19,0,.29.09.3h.5c-.06,0-.09-.08-.06-.23a1.74,1.74,0,0,1,.39-.78c.1-.11.18-.14.22-.09Z" />
                    <path class="cls-58"
                        d="M132.43,54v0l0,0,0,0v0l0,0,0,0,0,0,0,0,0,0,0,0,0,0h0c-.05-.06-.16,0-.3.13a2.47,2.47,0,0,0-.53,1.06c0,.19,0,.29.09.3h.5c-.06,0-.09-.08-.06-.23a1.74,1.74,0,0,1,.39-.78c.1-.11.18-.14.22-.09Z" />
                    <path class="cls-62"
                        d="M131.85,53.79c.12-.13.22-.18.27-.15l-.6-.3c-.06,0-.16,0-.28.14a2.4,2.4,0,0,0-.52,1.06c0,.17,0,.27.05.29l.61.31c-.06,0-.08-.13-.06-.29A2.47,2.47,0,0,1,131.85,53.79Z" />
                    <path class="cls-63"
                        d="M135.41,55.74c.09-.1.16-.13.21-.11L132.44,54s-.11,0-.2.11a1.74,1.74,0,0,0-.39.78c0,.13,0,.2,0,.22l3.17,1.59s-.06-.09,0-.22A1.91,1.91,0,0,1,135.41,55.74Z" />
                    <path class="cls-50"
                        d="M135.41,55.74a1.91,1.91,0,0,0-.39.78c0,.25.07.3.25.12a2,2,0,0,0,.39-.79C135.7,55.6,135.59,55.55,135.41,55.74Z" />
                    <path class="cls-64"
                        d="M135.56,55.74s0,0,0,.09a1.73,1.73,0,0,1-.37.74.45.45,0,0,0-.07.07s0,0,0-.1a1.69,1.69,0,0,1,.37-.73l.07-.07m0-.11a.3.3,0,0,0-.18.11,1.91,1.91,0,0,0-.39.78c0,.15,0,.23.07.23s.1,0,.18-.11a2,2,0,0,0,.39-.79c0-.15,0-.22-.07-.22Z" />
                </g>
                <g class="cls-6">
                    <path class="cls-65"
                        d="M127.6,55.1a.8.8,0,0,0-.9-.17.86.86,0,0,0-.5,1.07.59.59,0,0,0,.14.23l.19.21a.59.59,0,0,1-.14-.23.87.87,0,0,1,.5-1.07.8.8,0,0,1,.9.17Z" />
                    <path class="cls-66"
                        d="M127.93,55.55a.76.76,0,0,0-1-.41.87.87,0,0,0-.5,1.07.76.76,0,0,0,1,.41A.88.88,0,0,0,127.93,55.55Zm-.44,1a.57.57,0,0,1-.78-.3.66.66,0,0,1,.38-.8.57.57,0,0,1,.77.3A.66.66,0,0,1,127.49,56.57Z" />
                    <path class="cls-50"
                        d="M128.86,56.89a.56.56,0,0,0-.77-.3.64.64,0,0,0-.38.79.56.56,0,0,0,.78.3A.65.65,0,0,0,128.86,56.89Z" />
                    <path class="cls-67"
                        d="M128.34,56.63a.47.47,0,0,1,.43.29.55.55,0,0,1-.32.67.54.54,0,0,1-.22,0,.45.45,0,0,1-.42-.29.54.54,0,0,1,.32-.67.5.5,0,0,1,.21,0m0-.1a.57.57,0,0,0-.25.06.64.64,0,0,0-.38.79.54.54,0,0,0,.52.36.62.62,0,0,0,.26-.06.65.65,0,0,0,.37-.79.55.55,0,0,0-.52-.36Z" />
                    <path class="cls-68"
                        d="M127.76,55.6a.61.61,0,0,0-.67-.13.66.66,0,0,0-.38.8.5.5,0,0,0,.11.17l1,1.12a.54.54,0,0,1-.11-.18.64.64,0,0,1,.38-.79.59.59,0,0,1,.67.12Z" />
                    <path class="cls-69"
                        d="M127.76,55.6a.61.61,0,0,0-.67-.13.66.66,0,0,0-.38.8.5.5,0,0,0,.11.17l1,1.12a.54.54,0,0,1-.11-.18.64.64,0,0,1,.38-.79.59.59,0,0,1,.67.12Z" />
                </g>
     
            </g>
        </g>
    </g>
</svg>