<svg xmlns="http://www.w3.org/2000/svg" xmlns:xlink="http://www.w3.org/1999/xlink" viewBox="0 0 150 150">
    <defs>
        <style>
            .cls-1,
            .cls-2 {
                fill: none;
            }

            .cls-2 {
                stroke: #fff;
                stroke-miterlimit: 10;
                stroke-width: 0.1px;
            }

            .cls-3 {
                opacity: 0;
            }

            .cls-4 {
                fill: #000714;
            }

            .cls-5 {
                opacity: 0.1;
                fill: url(#新建图案);
            }

            .cls-6 {
                fill: url(#未命名的渐变_324);
            }

            .cls-7 {
                fill: url(#未命名的渐变_324-2);
            }

            .cls-8 {
                fill: url(#未命名的渐变_591);
            }

            .cls-9 {
                fill: url(#未命名的渐变_586);
            }

            .cls-10 {
                isolation: isolate;
            }

            .cls-11 {
                fill: url(#未命名的渐变_575);
            }

            .cls-12 {
                fill: url(#未命名的渐变_575-2);
            }

            .cls-13 {
                fill: url(#未命名的渐变_564);
            }

            .cls-14 {
                fill: url(#未命名的渐变_569);
            }

            .cls-15 {
                fill: url(#未命名的渐变_569-2);
            }

            .cls-16 {
                fill: url(#未命名的渐变_564-2);
            }

            .cls-17 {
                fill: #6a82a6;
            }

            .cls-18 {
                fill: #4eb2fa;
            }

            .cls-19 {
                fill: url(#未命名的渐变_164);
            }

            .cls-20 {
                fill: url(#未命名的渐变_528);
            }

            .cls-21 {
                fill: url(#未命名的渐变_21);
            }

            .cls-22 {
                fill: url(#未命名的渐变_13);
            }

            .cls-23 {
                mix-blend-mode: multiply;
                fill: url(#未命名的渐变_131);
            }

            .cls-24 {
                fill: url(#未命名的渐变_21-2);
            }

            .cls-25 {
                fill: url(#未命名的渐变_144);
            }

            .cls-26 {
                fill: url(#未命名的渐变_13-2);
            }

            .cls-27 {
                fill: url(#未命名的渐变_140);
            }

            .cls-28 {
                fill: #4e5f79;
            }

            .cls-29 {
                fill: url(#未命名的渐变_78);
            }

            .cls-30 {
                fill: url(#未命名的渐变_73);
            }

            .cls-31 {
                fill: url(#未命名的渐变_138);
            }

            .cls-32 {
                fill: url(#未命名的渐变_297);
            }

            .cls-33 {
                fill: url(#未命名的渐变_17280);
            }

            .cls-34 {
                fill: url(#未命名的渐变_512);
            }

            .cls-35 {
                fill: url(#未命名的渐变_255);
            }

            .cls-36 {
                fill: url(#未命名的渐变_500);
            }

            .cls-37 {
                fill: url(#未命名的渐变_140-2);
            }

            .cls-38 {
                fill: url(#未命名的渐变_118);
            }

            .cls-39 {
                fill: url(#未命名的渐变_164-2);
            }

            .cls-40 {
                fill: url(#未命名的渐变_164-3);
            }

            .cls-41 {
                fill: url(#未命名的渐变_118-2);
            }

            .cls-42 {
                fill: #7a98cc;
            }

            .cls-43 {
                fill: url(#未命名的渐变_255-2);
            }

            .cls-44 {
                fill: url(#未命名的渐变_114);
            }

            .cls-45 {
                fill: url(#未命名的渐变_140-3);
            }

            .cls-46 {
                fill: url(#未命名的渐变_164-4);
            }

            .cls-47 {
                fill: url(#未命名的渐变_118-3);
            }

            .cls-48 {
                fill: url(#未命名的渐变_118-4);
            }

            .cls-49 {
                fill: url(#未命名的渐变_164-5);
            }

            .cls-50 {
                fill: url(#未命名的渐变_118-5);
            }

            .cls-51 {
                fill: url(#未命名的渐变_164-6);
            }

            .cls-52 {
                fill: url(#未命名的渐变_604);
            }

            .cls-53 {
                fill: #191f26;
            }

            .cls-54 {
                fill: url(#未命名的渐变_606);
            }

            .cls-55 {
                fill: url(#未命名的渐变_114-2);
            }

            .cls-56 {
                fill: url(#未命名的渐变_118-6);
            }

            .cls-57 {
                fill: url(#未命名的渐变_164-7);
            }

            .cls-58 {
                opacity: 0.2;
            }
        </style>
        <pattern id="新建图案" data-name="新建图案" width="18.57" height="32.16" patternTransform="translate(2322.02 1160.4)"
            patternUnits="userSpaceOnUse" viewBox="0 0 18.57 32.16">
            <rect class="cls-1" width="18.57" height="32.16" />
            <polyline class="cls-2" points="18.57 21.44 18.57 32.16 18.57 42.88" />
            <polyline class="cls-2" points="9.29 26.8 18.57 32.16 27.85 37.51 27.85 37.52" />
            <polyline class="cls-2" points="9.29 37.52 9.29 37.51 18.57 32.16 27.85 26.8" />
            <polygon class="cls-2"
                points="27.85 37.52 27.85 26.8 18.57 21.44 9.28 26.8 9.28 37.52 18.57 42.88 27.85 37.52" />
            <polyline class="cls-2" points="0 21.44 0 32.16 0 42.88" />
            <polyline class="cls-2" points="-9.28 26.8 0 32.16 9.28 37.51 9.28 37.52" />
            <polyline class="cls-2" points="-9.28 37.52 -9.28 37.51 0 32.16 9.28 26.8" />
            <polygon class="cls-2" points="9.28 37.52 9.28 26.8 0 21.44 -9.29 26.8 -9.29 37.52 0 42.88 9.28 37.52" />
            <polyline class="cls-2" points="18.57 10.72 27.85 16.08 37.13 21.43 37.13 21.44" />
            <polyline class="cls-2" points="18.57 21.44 18.57 21.43 27.85 16.08 37.13 10.72" />
            <polygon class="cls-2"
                points="37.14 21.44 37.14 10.72 27.85 5.36 18.57 10.72 18.57 21.44 27.85 26.8 37.14 21.44" />
            <polyline class="cls-2" points="9.29 5.36 9.29 16.08 9.29 26.8" />
            <polyline class="cls-2" points="0.01 10.72 9.29 16.08 18.57 21.43 18.57 21.44" />
            <polyline class="cls-2" points="0.01 21.44 0.01 21.43 9.29 16.08 18.57 10.72" />
            <polygon class="cls-2" points="18.57 21.44 18.57 10.72 9.28 5.36 0 10.72 0 21.44 9.28 26.8 18.57 21.44" />
            <polyline class="cls-2" points="-18.56 10.72 -9.28 16.08 0 21.43 0 21.44" />
            <polyline class="cls-2" points="-18.56 21.44 -18.56 21.43 -9.28 16.08 0 10.72" />
            <polygon class="cls-2" points="0 21.44 0 10.72 -9.29 5.36 -18.57 10.72 -18.57 21.44 -9.29 26.8 0 21.44" />
            <polyline class="cls-2" points="18.57 -10.72 18.57 0 18.57 10.72" />
            <polyline class="cls-2" points="9.29 -5.36 18.57 0 27.85 5.35 27.85 5.36" />
            <polyline class="cls-2" points="9.29 5.36 9.29 5.35 18.57 0 27.85 -5.36" />
            <polygon class="cls-2"
                points="27.85 5.36 27.85 -5.36 18.57 -10.72 9.28 -5.36 9.28 5.36 18.57 10.72 27.85 5.36" />
            <polyline class="cls-2" points="0 -10.72 0 0 0 10.72" />
            <polyline class="cls-2" points="-9.28 -5.36 0 0 9.28 5.35 9.28 5.36" />
            <polyline class="cls-2" points="-9.28 5.36 -9.28 5.35 0 0 9.28 -5.36" />
            <polygon class="cls-2" points="9.28 5.36 9.28 -5.36 0 -10.72 -9.29 -5.36 -9.29 5.36 0 10.72 9.28 5.36" />
        </pattern>
        <linearGradient id="未命名的渐变_324" x1="35.59" y1="22.09" x2="35.94" y2="20.67" gradientUnits="userSpaceOnUse">
            <stop offset="0" stop-color="#0073e6" />
            <stop offset="0.3" stop-color="#66e5ff" />
            <stop offset="0.7" stop-color="#66e5ff" />
            <stop offset="1" stop-color="#2596f0" />
        </linearGradient>
        <linearGradient id="未命名的渐变_324-2" x1="37.7" y1="22.62" x2="38.04" y2="21.27"
            gradientTransform="translate(49.28 -20.31) rotate(75.03)" xlink:href="#未命名的渐变_324" />
        <linearGradient id="未命名的渐变_591" x1="40.7" y1="17.16" x2="41.86" y2="16.35" gradientUnits="userSpaceOnUse">
            <stop offset="0" stop-color="#0073e6" />
            <stop offset="0.15" stop-color="#1e48d3" />
            <stop offset="0.65" stop-color="#3d8ceb" />
            <stop offset="0.83" stop-color="#3d8ceb" />
            <stop offset="1" stop-color="#2596f0" />
        </linearGradient>
        <linearGradient id="未命名的渐变_586" x1="40.22" y1="31.13" x2="39.22" y2="30.13" gradientUnits="userSpaceOnUse">
            <stop offset="0" stop-color="#0073e6" />
            <stop offset="0.15" stop-color="#1433cc" />
            <stop offset="0.65" stop-color="#3d8ceb" />
            <stop offset="0.83" stop-color="#3d8ceb" />
            <stop offset="1" stop-color="#2596f0" />
        </linearGradient>
        <linearGradient id="未命名的渐变_575" x1="41.31" y1="29.07" x2="38.1" y2="21.49" gradientUnits="userSpaceOnUse">
            <stop offset="0" stop-color="#0073e6" />
            <stop offset="0.15" stop-color="#1433cc" />
            <stop offset="0.65" stop-color="#59c8ff" />
            <stop offset="0.83" stop-color="#59c8ff" />
            <stop offset="1" stop-color="#2596f0" />
        </linearGradient>
        <linearGradient id="未命名的渐变_575-2" x1="43.92" y1="30.79" x2="38.66" y2="18.4" xlink:href="#未命名的渐变_575" />
        <linearGradient id="未命名的渐变_564" x1="44.74" y1="29.66" x2="44.74" y2="16.6" gradientUnits="userSpaceOnUse">
            <stop offset="0" stop-color="#283140" />
            <stop offset="0.1" stop-color="#12161a" />
            <stop offset="0.41" stop-color="#89abe6" />
            <stop offset="0.7" stop-color="#89abe6" />
            <stop offset="1" stop-color="#38455a" />
        </linearGradient>
        <linearGradient id="未命名的渐变_569" x1="54.12" y1="24.83" x2="49.9" y2="14.88" gradientUnits="userSpaceOnUse">
            <stop offset="0" stop-color="#283140" />
            <stop offset="0.1" stop-color="#12161a" />
            <stop offset="0.65" stop-color="#637ca6" />
            <stop offset="0.84" stop-color="#637ca6" />
            <stop offset="1" stop-color="#38455a" />
        </linearGradient>
        <linearGradient id="未命名的渐变_569-2" x1="64.35" y1="21.78" x2="59.07" y2="9.33" xlink:href="#未命名的渐变_569" />
        <linearGradient id="未命名的渐变_564-2" x1="66.95" y1="19.83" x2="66.95" y2="6.77" xlink:href="#未命名的渐变_564" />
        <linearGradient id="未命名的渐变_164" x1="69.52" y1="17.38" x2="65.63" y2="8.65" gradientUnits="userSpaceOnUse">
            <stop offset="0" stop-color="#0073e6" />
            <stop offset="0.15" stop-color="#1433cc" />
            <stop offset="0.7" stop-color="#59c8ff" />
            <stop offset="0.9" stop-color="#59c8ff" />
            <stop offset="1" stop-color="#2596f0" />
        </linearGradient>
        <linearGradient id="未命名的渐变_528" x1="75.41" y1="14.79" x2="71.51" y2="6.02" gradientUnits="userSpaceOnUse">
            <stop offset="0" stop-color="#283140" />
            <stop offset="0.1" stop-color="#12161a" />
            <stop offset="0.7" stop-color="#7a98cc" />
            <stop offset="0.9" stop-color="#7a98cc" />
            <stop offset="1" stop-color="#38455a" />
        </linearGradient>
        <linearGradient id="未命名的渐变_21" x1="57.08" y1="136.93" x2="94.7" y2="136.93" gradientUnits="userSpaceOnUse">
            <stop offset="0" stop-color="#38455a" />
            <stop offset="0.15" stop-color="#7a98cc" />
            <stop offset="0.25" stop-color="#7a98cc" />
            <stop offset="0.9" stop-color="#12161a" />
            <stop offset="1" stop-color="#283140" />
        </linearGradient>
        <linearGradient id="未命名的渐变_13" x1="57.12" y1="123.92" x2="94.7" y2="123.92" gradientUnits="userSpaceOnUse">
            <stop offset="0" stop-color="#89abe6" />
            <stop offset="1" stop-color="#547099" />
        </linearGradient>
        <linearGradient id="未命名的渐变_131" x1="75.94" y1="123.92" x2="94.7" y2="123.92" gradientUnits="userSpaceOnUse">
            <stop offset="0" stop-color="#142439" stop-opacity="0.6" />
            <stop offset="1" stop-color="#142439" stop-opacity="0" />
        </linearGradient>
        <linearGradient id="未命名的渐变_21-2" x1="62.84" y1="126.09" x2="88.98" y2="126.09" xlink:href="#未命名的渐变_21" />
        <linearGradient id="未命名的渐变_144" x1="63.76" y1="116.73" x2="88.44" y2="123.35" gradientUnits="userSpaceOnUse">
            <stop offset="0" stop-color="#38455a" />
            <stop offset="0.2" stop-color="#7a98cc" />
            <stop offset="0.45" stop-color="#7a98cc" />
            <stop offset="0.9" stop-color="#12161a" />
            <stop offset="1" stop-color="#283140" />
        </linearGradient>
        <linearGradient id="未命名的渐变_13-2" x1="65.3" y1="114.11" x2="86.58" y2="114.11" xlink:href="#未命名的渐变_13" />
        <linearGradient id="未命名的渐变_140" x1="82.6" y1="11.52" x2="77.56" y2="2.79" gradientUnits="userSpaceOnUse">
            <stop offset="0" stop-color="#283140" />
            <stop offset="0.1" stop-color="#12161a" />
            <stop offset="0.75" stop-color="#7a98cc" />
            <stop offset="0.85" stop-color="#7a98cc" />
            <stop offset="1" stop-color="#38455a" />
        </linearGradient>
        <linearGradient id="未命名的渐变_78" x1="65.29" y1="111.97" x2="86.59" y2="111.97" gradientUnits="userSpaceOnUse">
            <stop offset="0" stop-color="#8ce2ff" />
            <stop offset="1" stop-color="#44b6ff" />
        </linearGradient>
        <linearGradient id="未命名的渐变_73" x1="65.29" y1="116.11" x2="86.59" y2="116.11" gradientUnits="userSpaceOnUse">
            <stop offset="0" stop-color="#0073e6" />
            <stop offset="0.15" stop-color="#59c8ff" />
            <stop offset="0.25" stop-color="#59c8ff" />
            <stop offset="0.85" stop-color="#1433cc" />
            <stop offset="1" stop-color="#0073e6" />
        </linearGradient>
        <linearGradient id="未命名的渐变_138" x1="65.41" y1="114.84" x2="74.85" y2="98.5" gradientUnits="userSpaceOnUse">
            <stop offset="0" stop-color="#3b77b3" />
            <stop offset="0.21" stop-color="#596b8c" />
            <stop offset="1" stop-color="#425266" />
        </linearGradient>
        <linearGradient id="未命名的渐变_297" x1="89.07" y1="113.36" x2="72.6" y2="84.83" gradientUnits="userSpaceOnUse">
            <stop offset="0" stop-color="#143080" />
            <stop offset="0.14" stop-color="#283140" />
            <stop offset="0.36" stop-color="#12161a" />
            <stop offset="0.5" stop-color="#14171b" />
            <stop offset="0.75" stop-color="#7a98cc" />
            <stop offset="0.94" stop-color="#7a98cc" />
            <stop offset="1" stop-color="#38455a" />
        </linearGradient>
        <linearGradient id="未命名的渐变_17280" x1="85.98" y1="47.54" x2="96.3" y2="47.54" gradientUnits="userSpaceOnUse">
            <stop offset="0" stop-color="#0073e6" />
            <stop offset="1" stop-color="#143ccc" />
        </linearGradient>
        <linearGradient id="未命名的渐变_512" x1="85.32" y1="49.6" x2="95.8" y2="43.55" gradientUnits="userSpaceOnUse">
            <stop offset="0" stop-color="#2596f0" />
            <stop offset="0.3" stop-color="#59c8ff" />
            <stop offset="0.6" stop-color="#59c8ff" />
            <stop offset="0.87" stop-color="#2596f0" />
        </linearGradient>
        <linearGradient id="未命名的渐变_255" x1="98.48" y1="68.09" x2="108.79" y2="68.09" gradientUnits="userSpaceOnUse">
            <stop offset="0" stop-color="#283140" />
            <stop offset="0.34" stop-color="#232b37" />
            <stop offset="0.9" stop-color="#15191f" />
            <stop offset="1" stop-color="#12161a" />
        </linearGradient>
        <linearGradient id="未命名的渐变_500" x1="91.89" y1="60.84" x2="102.78" y2="54.55" gradientUnits="userSpaceOnUse">
            <stop offset="0" stop-color="#38455a" />
            <stop offset="0.3" stop-color="#7a98cc" />
            <stop offset="0.6" stop-color="#7a98cc" />
            <stop offset="0.89" stop-color="#38455a" />
        </linearGradient>
        <linearGradient id="未命名的渐变_140-2" x1="108.88" y1="77" x2="102.82" y2="66.5" xlink:href="#未命名的渐变_140" />
        <linearGradient id="未命名的渐变_118" x1="99.05" y1="82.59" x2="90.3" y2="73.84" gradientUnits="userSpaceOnUse">
            <stop offset="0" stop-color="#2f77eb" />
            <stop offset="1" stop-color="#59c8ff" />
        </linearGradient>
        <linearGradient id="未命名的渐变_164-2" x1="100.25" y1="82.3" x2="93.92" y2="71.33" xlink:href="#未命名的渐变_164" />
        <linearGradient id="未命名的渐变_164-3" x1="74.91" y1="107.18" x2="65.11" y2="90.21" xlink:href="#未命名的渐变_164" />
        <linearGradient id="未命名的渐变_118-2" x1="73.48" y1="107.38" x2="59.93" y2="93.84" xlink:href="#未命名的渐变_118" />
        <linearGradient id="未命名的渐变_255-2" x1="62.13" y1="99.14" x2="98.76" y2="99.14" xlink:href="#未命名的渐变_255" />
        <linearGradient id="未命名的渐变_114" x1="77.9" y1="101.8" x2="63.29" y2="87.19" gradientUnits="userSpaceOnUse">
            <stop offset="0" stop-color="#425266" />
            <stop offset="1" stop-color="#596b8c" />
        </linearGradient>
        <linearGradient id="未命名的渐变_140-3" x1="96.05" y1="85.94" x2="88.9" y2="73.56" xlink:href="#未命名的渐变_140" />
        <linearGradient id="未命名的渐变_164-4" x1="63.64" y1="112.15" x2="55.11" y2="97.39" xlink:href="#未命名的渐变_164" />
        <linearGradient id="未命名的渐变_118-3" x1="62.39" y1="112.33" x2="50.6" y2="100.54" xlink:href="#未命名的渐变_118" />
        <linearGradient id="未命名的渐变_118-4" x1="88.74" y1="88.25" x2="80.88" y2="80.39" xlink:href="#未命名的渐变_118" />
        <linearGradient id="未命名的渐变_164-5" x1="89.82" y1="87.99" x2="84.14" y2="78.15" xlink:href="#未命名的渐变_164" />
        <linearGradient id="未命名的渐变_118-5" x1="75.33" y1="15.4" x2="68.33" y2="8.4" xlink:href="#未命名的渐变_118" />
        <linearGradient id="未命名的渐变_164-6" x1="76.29" y1="15.17" x2="71.23" y2="6.4" xlink:href="#未命名的渐变_164" />
        <linearGradient id="未命名的渐变_604" x1="92.21" y1="44.97" x2="86.95" y2="35.85" gradientUnits="userSpaceOnUse">
            <stop offset="0" stop-color="#283140" />
            <stop offset="0.23" stop-color="#12161a" />
            <stop offset="0.64" stop-color="#576c90" />
            <stop offset="1" stop-color="#4f6282" />
        </linearGradient>
        <linearGradient id="未命名的渐变_606" x1="90.88" y1="46.02" x2="68.74" y2="7.67" gradientUnits="userSpaceOnUse">
            <stop offset="0" stop-color="#283140" />
            <stop offset="0.07" stop-color="#12161a" />
            <stop offset="0.16" stop-color="#576c90" />
            <stop offset="0.87" stop-color="#38455a" />
            <stop offset="0.94" stop-color="#7a98cc" />
            <stop offset="1" stop-color="#7a98cc" />
        </linearGradient>
        <linearGradient id="未命名的渐变_114-2" x1="89.98" y1="47.11" x2="58.35" y2="15.47" xlink:href="#未命名的渐变_114" />
        <linearGradient id="未命名的渐变_118-6" x1="67.43" y1="19.65" x2="61.01" y2="13.23" xlink:href="#未命名的渐变_118" />
        <linearGradient id="未命名的渐变_164-7" x1="68.31" y1="19.43" x2="63.67" y2="11.39" xlink:href="#未命名的渐变_164" />
    </defs>
    <title>机械臂2</title>
    <g id="图层_2" data-name="图层 2">
        <g id="图层_1-2" data-name="图层 1">
            <g id="机械臂2">
                <g class="cls-3">
                    <rect class="cls-4" width="150" height="150" />
                    <rect id="网格" class="cls-5" width="150" height="150" />
                </g>
                <path class="cls-6"
                    d="M38.05,21.27l-4.21-1.12h-.07a.26.26,0,0,0-.11.08,1.8,1.8,0,0,0-.3.93.58.58,0,0,0,0,.21s0,0,0,0,0,0,.06.06h0l2,.52.62.17,1.64.44c.05,0,.11,0,.17-.1a1.61,1.61,0,0,0,.3-.93C38.16,21.4,38.12,21.29,38.05,21.27Z" />
                <ellipse class="cls-7" cx="37.87" cy="21.94" rx="0.7" ry="0.24"
                    transform="translate(6.89 52.86) rotate(-75.03)" />
                <path class="cls-8"
                    d="M42.69,17.6a0,0,0,0,0,0,0L41,15.15s0,0,0,0a.44.44,0,0,0-.15-.12l-.08,0a.7.7,0,0,0-.29,0,.82.82,0,0,0-.67.71.48.48,0,0,0,.07.24v0l.83,1.22.84,1.21s0,0,0,0a.46.46,0,0,0,.16.11l.07,0a.51.51,0,0,0,.3,0,.8.8,0,0,0,.66-.7A.43.43,0,0,0,42.69,17.6Z" />
                <path class="cls-9"
                    d="M41.36,28.94a1,1,0,0,0-.21-.16l-.08,0-.13-.07h-.07a.22.22,0,0,0-.11,0l-.06,0-.07,0-2.81,2.83h0c-.12.16,0,.49.28.76a1.46,1.46,0,0,0,.21.16s0,0,.07,0a.35.35,0,0,0,.14.06h.07a.21.21,0,0,0,.11,0l.05,0,.07,0,1.4-1.41.58-.58.83-.83v0C41.76,29.54,41.64,29.2,41.36,28.94Z" />
                <g class="cls-10">
                    <path class="cls-11"
                        d="M39.88,25.57c-1-1.95-.62-4.21.83-5.19l-2.88,1.94a3.46,3.46,0,0,0-.72,4.43,3.35,3.35,0,0,0,3.56,2l3.38-.83A3.9,3.9,0,0,1,39.88,25.57Z" />
                    <path class="cls-12"
                        d="M39.9,25.76c-1.7-3.3-.94-7.15,1.69-8.61L39.75,18c-2.63,1.45-3.39,5.31-1.69,8.61S43,31.24,45.54,30.1l1.84-.82C44.8,30.43,41.52,28.92,39.9,25.76Z" />
                    <path class="cls-13"
                        d="M48.84,27.05c-2.07,1.14-4.83,0-6.16-2.63s-.74-5.63,1.33-6.77a3.71,3.71,0,0,1,3.06-.2l-1.59-.55a4.71,4.71,0,0,0-3.89.25C39,18.61,38.2,22.46,39.9,25.76s5.2,4.8,7.83,3.35a4.84,4.84,0,0,0,2.09-2.39l.66-1.55A3.78,3.78,0,0,1,48.84,27.05Z" />
                    <path class="cls-14"
                        d="M57.7,17.77C56.37,15.17,57,12.14,59,11L44,17.65c-2.07,1.14-2.66,4.18-1.33,6.77s3.85,3.67,5.88,2.77l15-6.65C61.55,21.44,59,20.25,57.7,17.77Z" />
                    <path class="cls-15"
                        d="M62.11,15.93c-1.7-3.3-.94-7.15,1.69-8.61l-5.42,2.4C55.75,11.18,55,15,56.69,18.33s4.89,4.67,7.47,3.52l5.43-2.4C67,20.6,63.73,19.09,62.11,15.93Z" />
                    <path class="cls-16"
                        d="M70.94,16.63c-1.84,1-4.29,0-5.47-2.34s-.66-5,1.18-6a3.51,3.51,0,0,1,3.65.28L69,7.72a5,5,0,0,0-5.22-.4c-2.63,1.46-3.39,5.31-1.69,8.61s5.2,4.8,7.83,3.35a5.22,5.22,0,0,0,2.5-3.82c.09-.5.17-1,.25-1.51A3.65,3.65,0,0,1,70.94,16.63Z" />
                    <path class="cls-17"
                        d="M72.12,10.61c-1.18-2.31-3.64-3.36-5.47-2.34s-2.37,3.71-1.18,6,3.63,3.35,5.47,2.34S73.31,12.91,72.12,10.61Z" />
                </g>
                <g class="cls-10">
                    <path class="cls-18"
                        d="M73.2,10.05C72,7.73,69.44,6.72,67.57,7.81S65.18,11.66,66.42,14s3.76,3.34,5.63,2.25S74.44,12.38,73.2,10.05Z" />
                    <path class="cls-19"
                        d="M66.42,14c-1.24-2.32-.72-5.09,1.15-6.17a1.91,1.91,0,0,1,.32-.16l-.92.4-.32.16c-1.87,1.08-2.38,3.85-1.15,6.18S69,17.6,70.81,16.8l.91-.4C69.9,17.2,67.59,16.18,66.42,14Z" />
                </g>
                <g class="cls-10">
                    <path class="cls-17"
                        d="M84.1,5.24C82.87,2.92,80.34,1.91,78.48,3s-2.39,3.85-1.15,6.17S81.08,12.5,83,11.41,85.34,7.57,84.1,5.24Z" />
                    <path class="cls-20"
                        d="M77.33,9.17C76.09,6.85,76.61,4.08,78.48,3l.32-.17-11,4.82-.32.17C65.64,8.9,65.13,11.67,66.36,14s3.47,3.21,5.3,2.4l11-4.82C80.8,12.38,78.49,11.36,77.33,9.17Z" />
                </g>
                <g class="cls-10">
                    <path class="cls-21"
                        d="M89,131.75c-7.44,4.17-19.33,4.05-26.56-.27-3.56-2.13-5.33-4.87-5.32-7.61l0,15.2c0,2.73,1.76,5.48,5.31,7.61C69.63,151,81.52,151.12,89,147c3.78-2.13,5.68-4.95,5.69-7.78l0-15.2C94.69,126.8,92.78,129.62,89,131.75Z" />
                    <path class="cls-22"
                        d="M89.38,116.36h0c-7.22-4.32-19.1-4.43-26.54-.26s-7.61,11.06-.37,15.39,19.12,4.44,26.56.27l.45-.26C96.45,127.29,96.47,120.6,89.38,116.36ZM75.94,131.49a18.69,18.69,0,0,1-9.4-2.31c-5-3-4.91-7.8.26-10.7a19,19,0,0,1,9.14-2.13,18.69,18.69,0,0,1,9.34,2.31c5,3,4.91,7.8-.26,10.71A19,19,0,0,1,76,131.49Z" />
                    <path class="cls-23" d="M89.45,131.49H75.94V116.35H89.38C96.47,120.6,96.45,127.29,89.45,131.49Z" />
                    <path class="cls-24"
                        d="M85,126.17c-5.17,2.9-13.44,2.82-18.47-.19-2.48-1.48-3.7-3.39-3.7-5.29v3.19c0,1.91,1.22,3.82,3.7,5.3,5,3,13.3,3.09,18.48.18,2.63-1.47,4-3.44,4-5.41v-3.19C89,122.73,87.65,124.69,85,126.17Z" />
                    <path class="cls-25"
                        d="M89,120.31h0a5.11,5.11,0,0,0-.88-2.34h0a10.17,10.17,0,0,1-1-2,8.52,8.52,0,0,1-.55-2.21c0,.41.11.82.19,1.22-.08-.4-.15-.81-.19-1.22.17,1.72-.91,3.47-3.21,4.76-4.21,2.37-10.95,2.3-15-.15-2.17-1.3-3.17-3-3-4.67a10.45,10.45,0,0,1-1.56,4.19h0a5.18,5.18,0,0,0-.9,2.34c-.21,2.05,1,4.15,3.68,5.74,5,3,13.3,3.09,18.47.19C87.85,124.58,89.17,122.43,89,120.31Z" />
                    <path class="cls-26"
                        d="M83.57,109.83c-4.1-2.45-10.84-2.52-15-.15s-4.31,6.26-.21,8.71,10.83,2.52,15,.15S87.66,112.28,83.57,109.83Z" />
                </g>
                <g class="cls-10">
                    <path class="cls-27"
                        d="M84.5.49A2.5,2.5,0,0,0,82,.24L70.64,6.83a2.5,2.5,0,0,1,2.53.24,7.87,7.87,0,0,1,3.56,6.16,2.5,2.5,0,0,1-1,2.28L87,8.92a2.5,2.5,0,0,0,1-2.28A7.84,7.84,0,0,0,84.5.49Z" />
                    <path class="cls-28"
                        d="M73.17,7.07c-2-1.13-3.57-.22-3.57,2a7.8,7.8,0,0,0,3.55,6.15c2,1.14,3.57.23,3.58-2A7.87,7.87,0,0,0,73.17,7.07Z" />
                </g>
                <path class="cls-29"
                    d="M86.59,112c0,1.57-1,3.15-3.1,4.35a16.56,16.56,0,0,1-15.06,0c-2.09-1.2-3.14-2.79-3.14-4.38s1-3.14,3.09-4.34a16.59,16.59,0,0,1,15.06,0C85.53,108.82,86.59,110.41,86.59,112Z" />
                <path class="cls-30"
                    d="M86.59,112v2.13c0,1.57-1,3.15-3.1,4.35a16.56,16.56,0,0,1-15.06,0c-2.09-1.2-3.14-2.79-3.14-4.38V112c0,1.59,1,3.18,3.14,4.38a16.56,16.56,0,0,0,15.06,0C85.56,115.14,86.59,113.56,86.59,112Z" />
                <path class="cls-31"
                    d="M75.92,104v14.43h-.48a17.46,17.46,0,0,1-3.7-.51,12.76,12.76,0,0,1-3.31-1.3c-2.1-1.21-3.14-2.8-3.14-4.38V93.31l6.13,3.22a8.35,8.35,0,0,1,4,4.67A8.26,8.26,0,0,1,75.92,104Z" />
                <path class="cls-32"
                    d="M91.68,92.56a11.54,11.54,0,0,0-5.22-9c-2.7-2.44-14.67,1.76-18.08,3.75-2.06,1.2-3.09,2.77-3.09,4.34v1.7l6.13,3.22a8.35,8.35,0,0,1,4,4.67,8.26,8.26,0,0,1,.48,2.76v14.43a15.27,15.27,0,0,0,7.57-1.8,6.71,6.71,0,0,0,2.62-2.52,3.86,3.86,0,0,0,.47-1.83v-9.53a7.23,7.23,0,0,1,1.86-4.84l1.84-2h0A3.75,3.75,0,0,0,91.68,92.56Z" />
                <g class="cls-10">
                    <path class="cls-33"
                        d="M93.88,45.54c-2.42,1.34-5.6,3.32-7.11,4.42s-.78.91,1.63-.43a79.12,79.12,0,0,0,7.11-4.42C97,44,96.29,44.2,93.88,45.54Z" />
                    <path class="cls-34"
                        d="M95.26,42.7a7.72,7.72,0,0,0-2.42,1.12c-2.42,1.34-5.6,3.32-7.11,4.42-.57.42-.82.65-.78.71l1,1.71c0-.06.21-.29.78-.7,1.51-1.1,4.69-3.08,7.11-4.42a7.64,7.64,0,0,1,2.42-1.13Z" />
                </g>
                <g class="cls-10">
                    <path class="cls-35"
                        d="M106.38,66.09a83,83,0,0,0-7.11,4.42c-1.51,1.1-.78.91,1.63-.43A81.63,81.63,0,0,0,108,65.67C109.52,64.56,108.79,64.75,106.38,66.09Z" />
                    <path class="cls-36"
                        d="M96.31,44.38a8.29,8.29,0,0,0-2.41,1.13c-2.41,1.34-5.6,3.32-7.11,4.42-.57.42-.82.65-.79.7L98.49,71.21c0-.06.21-.29.78-.7a83,83,0,0,1,7.11-4.42A8,8,0,0,1,108.79,65Z" />
                </g>
                <g class="cls-10">
                    <path class="cls-37"
                        d="M112.37,63.05a3,3,0,0,0-3.05-.3l-16,9.31a3,3,0,0,1,3,.29,9.4,9.4,0,0,1,4.27,7.39,3,3,0,0,1-1.25,2.75l16-9.3a3,3,0,0,0,1.25-2.75A9.43,9.43,0,0,0,112.37,63.05Z" />
                    <path class="cls-28"
                        d="M96.35,72.35C94,71,92.07,72.09,92.06,74.8a9.37,9.37,0,0,0,4.27,7.39c2.36,1.37,4.29.27,4.29-2.45A9.4,9.4,0,0,0,96.35,72.35Z" />
                </g>
                <g class="cls-10">
                    <path class="cls-38"
                        d="M94.69,73.06c-2.48-1.44-4.5-.29-4.51,2.56a9.88,9.88,0,0,0,4.48,7.75c2.48,1.43,4.49.28,4.5-2.56A9.85,9.85,0,0,0,94.69,73.06Z" />
                    <path class="cls-39"
                        d="M96.36,72.08a3.17,3.17,0,0,0-3.19-.31l-1.68,1a3.19,3.19,0,0,1,3.2.32,9.85,9.85,0,0,1,4.47,7.75,3.13,3.13,0,0,1-1.31,2.88l1.67-1a3.12,3.12,0,0,0,1.31-2.88A9.86,9.86,0,0,0,96.36,72.08Z" />
                </g>
                <g class="cls-10">
                    <path class="cls-40"
                        d="M68.45,91.62c-1.93-1.11-3.68-1.21-4.94-.48l-1.72,1c1.26-.73,3-.63,4.94.49a15.24,15.24,0,0,1,6.92,12c0,2.19-.78,3.73-2,4.46l1.72-1c1.25-.72,2-2.26,2-4.45A15.28,15.28,0,0,0,68.45,91.62Z" />
                    <path class="cls-41"
                        d="M66.73,92.63c-3.84-2.22-7-.44-7,4a15.24,15.24,0,0,0,6.92,12c3.84,2.22,7,.44,7-4A15.24,15.24,0,0,0,66.73,92.63Z" />
                </g>
                <g class="cls-10">
                    <path class="cls-42"
                        d="M76.31,81l-8.19,5.07c5.77-3.58,14.14-8.33,14.61-8.6l8.19-5.06C90.46,72.69,82.09,77.44,76.31,81Z" />
                    <path class="cls-43"
                        d="M90.56,89.11c-.46.33-9.33,6.69-14.22,11s-11,10.8-13.13,13.08a3.62,3.62,0,0,1-.77.84,2.11,2.11,0,0,1-.31.21l8.19-5.07a2.11,2.11,0,0,0,.31-.21,3.63,3.63,0,0,0,.78-.83c2.12-2.29,8.22-8.75,13.13-13.08S98.29,84.38,98.76,84Z" />
                    <path class="cls-44"
                        d="M90,80.69c-2.17-3.21-5.42-4.64-7.26-3.2-.49.28-9.8,5.57-15.56,9.18A128.29,128.29,0,0,0,52,98.53c-2.46,1.91-2.11,6.93.77,11.22S60,115.94,62.44,114a3.62,3.62,0,0,0,.77-.84c2.13-2.28,8.23-8.75,13.13-13.08s13.76-10.66,14.22-11C92.41,87.67,92.15,83.9,90,80.69Z" />
                    <path class="cls-45"
                        d="M98.18,75.63c-2.08-3.09-5.15-4.53-7-3.37L83,77.33c1.87-1.16,5,.28,7,3.36s2.42,7,.57,8.42L98.76,84C100.6,82.6,100.34,78.84,98.18,75.63Z" />
                </g>
                <g class="cls-10">
                    <path class="cls-46"
                        d="M58,98.62c-1.68-1-3.2-1.06-4.3-.42l-1.5.87c1.09-.64,2.62-.55,4.29.42a13.29,13.29,0,0,1,6,10.44c0,1.9-.68,3.24-1.76,3.87l1.5-.87c1.09-.63,1.76-2,1.76-3.87A13.26,13.26,0,0,0,58,98.62Z" />
                    <path class="cls-47"
                        d="M56.51,99.49c-3.33-1.93-6-.38-6.06,3.46a13.3,13.3,0,0,0,6,10.43c3.35,1.93,6.06.38,6.07-3.45A13.29,13.29,0,0,0,56.51,99.49Z" />
                </g>
                <g class="cls-10">
                    <path class="cls-48"
                        d="M84.83,79.69c-2.23-1.28-4-.25-4,2.31a8.85,8.85,0,0,0,4,7c2.23,1.29,4,.26,4-2.3A8.86,8.86,0,0,0,84.83,79.69Z" />
                    <path class="cls-49"
                        d="M86.33,78.82a2.83,2.83,0,0,0-2.87-.28l-1.5.87a2.83,2.83,0,0,1,2.87.28,8.86,8.86,0,0,1,4,7,2.81,2.81,0,0,1-1.17,2.58l1.5-.87a2.81,2.81,0,0,0,1.17-2.58A8.85,8.85,0,0,0,86.33,78.82Z" />
                </g>
                <g class="cls-10">
                    <path class="cls-50"
                        d="M71.84,7.77c-2-1.14-3.6-.22-3.6,2.06A7.87,7.87,0,0,0,71.82,16c2,1.14,3.59.22,3.6-2.06A7.91,7.91,0,0,0,71.84,7.77Z" />
                    <path class="cls-51"
                        d="M73.18,7a2.53,2.53,0,0,0-2.56-.25l-1.34.77a2.56,2.56,0,0,1,2.56.25A7.91,7.91,0,0,1,75.42,14a2.51,2.51,0,0,1-1,2.31l1.34-.78a2.53,2.53,0,0,0,1.05-2.3A7.91,7.91,0,0,0,73.18,7Z" />
                </g>
                <g class="cls-10">
                    <path class="cls-52"
                        d="M92.19,33.1a8.4,8.4,0,0,0-2.42,1.13c-2.41,1.34-5.59,3.32-7.1,4.42-.56.41-.82.65-.78.7l5.2,8.58c0-.06.22-.29.78-.71A82.84,82.84,0,0,1,95,42.81a7.86,7.86,0,0,1,2.42-1.13Z" />
                    <path class="cls-53"
                        d="M95,42.81a82.84,82.84,0,0,0-7.1,4.41c-1.51,1.11-.78.92,1.63-.42s5.6-3.32,7.11-4.42S97.39,41.47,95,42.81Z" />
                </g>
                <path class="cls-54"
                    d="M74.8,11.11C74,8.2,71,6.75,69.33,7.42l-6.22,3.51c1.66-.67,4.11,1,5.48,3.68,1.7,3.36,4.14,12.31,7.58,18.23,7.94,13.69,3.23,4.4,6,9.84,1.82,3.61,2.61,3.71.58,4.86l7.09-.92c1-.57,7.56-4.94,7.56-4.94C86.5,45.12,75.93,15,74.8,11.11Z" />
                <path class="cls-55"
                    d="M82.62,40.87c-2.93-4.19-12.33-22.9-14-26.26-1.37-2.7-3.82-4.35-5.48-3.68s-1.89,3.4-.52,6.1c.36.84,5.81,13,8.45,18.59,3,6.32,3.76,7.45,4.36,8.32a10.06,10.06,0,0,0,12.26,4.12,21.12,21.12,0,0,0,3.9-2.53C87.35,46.49,83.4,42,82.62,40.87Z" />
                <g class="cls-10">
                    <path class="cls-56"
                        d="M64.23,12.65c-1.82-1.05-3.3-.2-3.3,1.89a7.21,7.21,0,0,0,3.28,5.68c1.82,1.05,3.3.21,3.3-1.88A7.23,7.23,0,0,0,64.23,12.65Z" />
                    <path class="cls-57"
                        d="M65.46,11.94a2.33,2.33,0,0,0-2.35-.23l-1.22.71a2.36,2.36,0,0,1,2.34.23,7.23,7.23,0,0,1,3.28,5.69,2.29,2.29,0,0,1-1,2.11l1.23-.71a2.34,2.34,0,0,0,1-2.11A7.28,7.28,0,0,0,65.46,11.94Z" />
                </g>
            
            </g>
        </g>
    </g>
</svg>