<svg xmlns="http://www.w3.org/2000/svg" xmlns:xlink="http://www.w3.org/1999/xlink" viewBox="0 0 150 150">
    <defs>
        <style>
            .cls-1,
            .cls-2 {
                fill: none;
            }

            .cls-2 {
                stroke: #fff;
                stroke-miterlimit: 10;
                stroke-width: 0.1px;
            }

            .cls-3 {
                opacity: 0;
            }

            .cls-4 {
                fill: #000714;
            }

            .cls-5 {
                opacity: 0.1;
                fill: url(#新建图案);
            }

            .cls-6 {
                isolation: isolate;
            }

            .cls-7 {
                fill: #46586f;
            }

            .cls-8 {
                fill: #4e5f79;
            }

            .cls-9 {
                fill: url(#未命名的渐变_13);
            }

            .cls-10 {
                fill: #171d23;
            }

            .cls-11 {
                fill: url(#未命名的渐变_193);
            }

            .cls-12 {
                fill: url(#未命名的渐变_102);
            }

            .cls-13 {
                fill: url(#未命名的渐变_104);
            }

            .cls-14 {
                fill: #14171b;
            }

            .cls-15 {
                fill: url(#未命名的渐变_148);
            }

            .cls-16 {
                fill: url(#未命名的渐变_117);
            }

            .cls-17 {
                fill: #7696cb;
            }

            .cls-18 {
                fill: url(#未命名的渐变_1823);
            }

            .cls-19 {
                fill: url(#未命名的渐变_140);
            }

            .cls-20 {
                fill: url(#未命名的渐变_13-2);
            }

            .cls-21 {
                fill: url(#未命名的渐变_1823-2);
            }

            .cls-22 {
                fill: url(#未命名的渐变_76);
            }

            .cls-23 {
                fill: url(#未命名的渐变_1823-3);
            }

            .cls-24 {
                fill: url(#未命名的渐变_81);
            }

            .cls-25 {
                mix-blend-mode: overlay;
                opacity: 0.2;
            }

            .cls-26 {
                fill: url(#未命名的渐变_140-2);
            }

            .cls-27 {
                fill: url(#未命名的渐变_140-3);
            }

            .cls-28 {
                fill: url(#未命名的渐变_1823-4);
            }

            .cls-29 {
                fill: url(#未命名的渐变_1823-5);
            }

            .cls-30 {
                fill: url(#未命名的渐变_140-4);
            }

            .cls-31 {
                fill: url(#未命名的渐变_180);
            }

            .cls-32 {
                fill: url(#未命名的渐变_180-2);
            }

            .cls-33 {
                fill: url(#未命名的渐变_102-2);
            }

            .cls-34 {
                fill: url(#未命名的渐变_104-2);
            }

            .cls-35 {
                fill: url(#未命名的渐变_148-2);
            }

            .cls-36 {
                fill: url(#未命名的渐变_117-2);
            }

            .cls-37 {
                fill: url(#未命名的渐变_15);
            }

            .cls-38 {
                fill: url(#未命名的渐变_14);
            }

            .cls-39 {
                fill: url(#未命名的渐变_155);
            }

            .cls-40 {
                fill: url(#未命名的渐变_14-2);
            }

            .cls-41 {
                fill: url(#未命名的渐变_13-3);
            }

            .cls-42 {
                fill: url(#未命名的渐变_15-2);
            }

            .cls-43 {
                fill: url(#未命名的渐变_14-3);
            }

            .cls-44 {
                fill: url(#未命名的渐变_155-2);
            }

            .cls-45 {
                fill: url(#未命名的渐变_13-4);
            }

            .cls-46 {
                fill: url(#未命名的渐变_14-4);
            }

            .cls-47 {
                fill: url(#未命名的渐变_25);
            }

            .cls-48 {
                fill: url(#未命名的渐变_28);
            }

            .cls-49 {
                fill: url(#未命名的渐变_1823-6);
            }

            .cls-50 {
                fill: url(#未命名的渐变_140-5);
            }

            .cls-51 {
                fill: url(#未命名的渐变_13-5);
            }

            .cls-52 {
                fill: url(#未命名的渐变_1823-7);
            }

            .cls-53 {
                fill: url(#未命名的渐变_76-2);
            }

            .cls-54 {
                fill: url(#未命名的渐变_1823-8);
            }

            .cls-55 {
                fill: url(#未命名的渐变_81-2);
            }

            .cls-56 {
                fill: url(#未命名的渐变_140-6);
            }

            .cls-57 {
                fill: url(#未命名的渐变_140-7);
            }

            .cls-58 {
                fill: url(#未命名的渐变_1823-9);
            }

            .cls-59 {
                fill: url(#未命名的渐变_1823-10);
            }

            .cls-60 {
                fill: url(#未命名的渐变_140-8);
            }

            .cls-61 {
                fill: url(#未命名的渐变_25-2);
            }

            .cls-62 {
                fill: url(#未命名的渐变_28-2);
            }

            .cls-63 {
                fill: url(#未命名的渐变_102-3);
            }

            .cls-64 {
                fill: url(#未命名的渐变_104-3);
            }

            .cls-65 {
                fill: url(#未命名的渐变_148-3);
            }

            .cls-66 {
                fill: url(#未命名的渐变_117-3);
            }

            .cls-67 {
                fill: url(#未命名的渐变_102-4);
            }

            .cls-68 {
                fill: url(#未命名的渐变_104-4);
            }

            .cls-69 {
                fill: url(#未命名的渐变_148-4);
            }

            .cls-70 {
                fill: url(#未命名的渐变_117-4);
            }

            .cls-71 {
                fill: url(#未命名的渐变_63);
            }

            .cls-72 {
                fill: url(#未命名的渐变_13-6);
            }

            .cls-73 {
                fill: url(#未命名的渐变_67);
            }

            .cls-74 {
                opacity: 0.2;
            }
        </style>
        <pattern id="新建图案" data-name="新建图案" width="18.57" height="32.16" patternTransform="translate(2083.35 1370.69)"
            patternUnits="userSpaceOnUse" viewBox="0 0 18.57 32.16">
            <rect class="cls-1" width="18.57" height="32.16" />
            <polyline class="cls-2" points="18.57 21.44 18.57 32.16 18.57 42.88" />
            <polyline class="cls-2" points="9.29 26.8 18.57 32.16 27.85 37.51 27.85 37.52" />
            <polyline class="cls-2" points="9.29 37.52 9.29 37.51 18.57 32.16 27.85 26.8" />
            <polygon class="cls-2"
                points="27.85 37.52 27.85 26.8 18.57 21.44 9.28 26.8 9.28 37.52 18.57 42.88 27.85 37.52" />
            <polyline class="cls-2" points="0 21.44 0 32.16 0 42.88" />
            <polyline class="cls-2" points="-9.28 26.8 0 32.16 9.28 37.51 9.28 37.52" />
            <polyline class="cls-2" points="-9.28 37.52 -9.28 37.51 0 32.16 9.28 26.8" />
            <polygon class="cls-2" points="9.28 37.52 9.28 26.8 0 21.44 -9.29 26.8 -9.29 37.52 0 42.88 9.28 37.52" />
            <polyline class="cls-2" points="18.57 10.72 27.85 16.08 37.13 21.43 37.13 21.44" />
            <polyline class="cls-2" points="18.57 21.44 18.57 21.43 27.85 16.08 37.13 10.72" />
            <polygon class="cls-2"
                points="37.14 21.44 37.14 10.72 27.85 5.36 18.57 10.72 18.57 21.44 27.85 26.8 37.14 21.44" />
            <polyline class="cls-2" points="9.29 5.36 9.29 16.08 9.29 26.8" />
            <polyline class="cls-2" points="0.01 10.72 9.29 16.08 18.57 21.43 18.57 21.44" />
            <polyline class="cls-2" points="0.01 21.44 0.01 21.43 9.29 16.08 18.57 10.72" />
            <polygon class="cls-2" points="18.57 21.44 18.57 10.72 9.28 5.36 0 10.72 0 21.44 9.28 26.8 18.57 21.44" />
            <polyline class="cls-2" points="-18.56 10.72 -9.28 16.08 0 21.43 0 21.44" />
            <polyline class="cls-2" points="-18.56 21.44 -18.56 21.43 -9.28 16.08 0 10.72" />
            <polygon class="cls-2" points="0 21.44 0 10.72 -9.29 5.36 -18.57 10.72 -18.57 21.44 -9.29 26.8 0 21.44" />
            <polyline class="cls-2" points="18.57 -10.72 18.57 0 18.57 10.72" />
            <polyline class="cls-2" points="9.29 -5.36 18.57 0 27.85 5.35 27.85 5.36" />
            <polyline class="cls-2" points="9.29 5.36 9.29 5.35 18.57 0 27.85 -5.36" />
            <polygon class="cls-2"
                points="27.85 5.36 27.85 -5.36 18.57 -10.72 9.28 -5.36 9.28 5.36 18.57 10.72 27.85 5.36" />
            <polyline class="cls-2" points="0 -10.72 0 0 0 10.72" />
            <polyline class="cls-2" points="-9.28 -5.36 0 0 9.28 5.35 9.28 5.36" />
            <polyline class="cls-2" points="-9.28 5.36 -9.28 5.35 0 0 9.28 -5.36" />
            <polygon class="cls-2" points="9.28 5.36 9.28 -5.36 0 -10.72 -9.29 -5.36 -9.29 5.36 0 10.72 9.28 5.36" />
        </pattern>
        <linearGradient id="未命名的渐变_13" x1="107.63" y1="36.86" x2="150" y2="36.86" gradientUnits="userSpaceOnUse">
            <stop offset="0" stop-color="#89abe6" />
            <stop offset="1" stop-color="#547099" />
        </linearGradient>
        <linearGradient id="未命名的渐变_193" x1="144.1" y1="48.67" x2="148.18" y2="48.67" gradientUnits="userSpaceOnUse">
            <stop offset="0" stop-color="#485970" />
            <stop offset="1" stop-color="#425266" />
        </linearGradient>
        <linearGradient id="未命名的渐变_102" x1="-659.16" y1="43.18" x2="-643.17" y2="43.18"
            gradientTransform="translate(753.46)" gradientUnits="userSpaceOnUse">
            <stop offset="0" stop-color="#283140" />
            <stop offset="0.34" stop-color="#232b37" />
            <stop offset="0.9" stop-color="#15191f" />
            <stop offset="1" stop-color="#12161a" />
        </linearGradient>
        <linearGradient id="未命名的渐变_104" x1="-663.03" y1="49.35" x2="-651.74" y2="29.8"
            gradientTransform="translate(753.46)" gradientUnits="userSpaceOnUse">
            <stop offset="0" stop-color="#455672" />
            <stop offset="0.5" stop-color="#12161a" />
            <stop offset="0.75" stop-color="#171c23" />
            <stop offset="1" stop-color="#283140" />
        </linearGradient>
        <linearGradient id="未命名的渐变_148" x1="100.31" y1="50.49" x2="107.75" y2="37.59" gradientUnits="userSpaceOnUse">
            <stop offset="0" stop-color="#283140" />
            <stop offset="0.15" stop-color="#7a98cc" />
            <stop offset="1" stop-color="#12161a" />
        </linearGradient>
        <linearGradient id="未命名的渐变_117" x1="96.3" y1="43.3" x2="109.17" y2="43.3" gradientUnits="userSpaceOnUse">
            <stop offset="0" stop-color="#283140" />
            <stop offset="0.5" stop-color="#7a98cc" />
            <stop offset="1" stop-color="#12161a" />
        </linearGradient>
        <linearGradient id="未命名的渐变_1823" x1="111.8" y1="50.15" x2="113.06" y2="48.89" gradientUnits="userSpaceOnUse">
            <stop offset="0" stop-color="#283140" />
            <stop offset="1" stop-color="#12161a" />
        </linearGradient>
        <linearGradient id="未命名的渐变_140" x1="106.38" y1="47.08" x2="107.31" y2="45.48" gradientUnits="userSpaceOnUse">
            <stop offset="0" stop-color="#283140" />
            <stop offset="0.1" stop-color="#12161a" />
            <stop offset="0.75" stop-color="#7a98cc" />
            <stop offset="0.85" stop-color="#7a98cc" />
            <stop offset="1" stop-color="#38455a" />
        </linearGradient>
        <linearGradient id="未命名的渐变_13-2" x1="106.15" y1="47.38" x2="126.9" y2="47.38" xlink:href="#未命名的渐变_13" />
        <linearGradient id="未命名的渐变_1823-2" x1="118.31" y1="55.67" x2="128.32" y2="55.67" xlink:href="#未命名的渐变_1823" />
        <linearGradient id="未命名的渐变_76" x1="110.9" y1="57.03" x2="114.7" y2="50.46" gradientUnits="userSpaceOnUse">
            <stop offset="0" stop-color="#425266" />
            <stop offset="0.89" stop-color="#627fad" />
            <stop offset="1" stop-color="#88aae5" />
        </linearGradient>
        <linearGradient id="未命名的渐变_1823-3" x1="121.91" y1="58.78" x2="126.57" y2="54.11" xlink:href="#未命名的渐变_1823" />
        <linearGradient id="未命名的渐变_81" x1="121.3" y1="59.05" x2="126.75" y2="53.59" gradientUnits="userSpaceOnUse">
            <stop offset="0" stop-color="#283140" />
            <stop offset="0.1" stop-color="#12161a" />
            <stop offset="0.7" stop-color="#7a98cc" />
            <stop offset="0.8" stop-color="#7a98cc" />
            <stop offset="1" stop-color="#38455a" />
        </linearGradient>
        <linearGradient id="未命名的渐变_140-2" x1="120.56" y1="58.87" x2="124.51" y2="52.04" xlink:href="#未命名的渐变_140" />
        <linearGradient id="未命名的渐变_140-3" x1="123.73" y1="58.99" x2="126.41" y2="54.35" xlink:href="#未命名的渐变_140" />
        <linearGradient id="未命名的渐变_1823-4" x1="124.56" y1="59.29" x2="128.25" y2="55.6" xlink:href="#未命名的渐变_1823" />
        <linearGradient id="未命名的渐变_1823-5" x1="136.72" y1="64.49" x2="137.98" y2="63.23" xlink:href="#未命名的渐变_1823" />
        <linearGradient id="未命名的渐变_140-4" x1="131.31" y1="61.42" x2="132.23" y2="59.81" xlink:href="#未命名的渐变_140" />
        <linearGradient id="未命名的渐变_180" x1="94.58" y1="53.32" x2="110.41" y2="25.9" gradientUnits="userSpaceOnUse">
            <stop offset="0" stop-color="#7696cb" />
            <stop offset="0.1" stop-color="#7696cb" />
            <stop offset="0.1" stop-color="#6982ab" />
            <stop offset="0.4" stop-color="#99c3ff" />
            <stop offset="0.7" stop-color="#6982ab" />
            <stop offset="0.7" stop-color="#7696cb" />
            <stop offset="1" stop-color="#7696cb" />
        </linearGradient>
        <linearGradient id="未命名的渐变_180-2" x1="123.94" y1="70.15" x2="139.77" y2="42.73" xlink:href="#未命名的渐变_180" />
        <linearGradient id="未命名的渐变_102-2" x1="-745.25" y1="93.02" x2="-729.25" y2="93.02" xlink:href="#未命名的渐变_102" />
        <linearGradient id="未命名的渐变_104-2" x1="-749.11" y1="99.19" x2="-737.83" y2="79.64" xlink:href="#未命名的渐变_104" />
        <linearGradient id="未命名的渐变_148-2" x1="14.22" y1="100.32" x2="21.67" y2="87.43" xlink:href="#未命名的渐变_148" />
        <linearGradient id="未命名的渐变_117-2" x1="10.22" y1="93.14" x2="23.09" y2="93.14" xlink:href="#未命名的渐变_117" />
        <linearGradient id="未命名的渐变_15" x1="110.55" y1="75.63" x2="120.15" y2="75.63" gradientUnits="userSpaceOnUse">
            <stop offset="0" stop-color="#15181d" />
            <stop offset="1" stop-color="#354152" />
        </linearGradient>
        <linearGradient id="未命名的渐变_14" x1="27.21" y1="86.62" x2="27.6" y2="86.62" gradientUnits="userSpaceOnUse">
            <stop offset="0" stop-color="#354152" />
            <stop offset="1" stop-color="#15181d" />
        </linearGradient>
        <linearGradient id="未命名的渐变_155" x1="55.75" y1="109.02" x2="30.06" y2="83.34" gradientUnits="userSpaceOnUse">
            <stop offset="0" stop-color="#425266" />
            <stop offset="1" stop-color="#596b8c" />
        </linearGradient>
        <linearGradient id="未命名的渐变_14-2" x1="58.2" y1="102.44" x2="77.74" y2="102.44" xlink:href="#未命名的渐变_14" />
        <linearGradient id="未命名的渐变_13-3" x1="27.22" y1="76.75" x2="120.15" y2="76.75" xlink:href="#未命名的渐变_13" />
        <linearGradient id="未命名的渐变_15-2" x1="109.88" y1="73.18" x2="119.19" y2="73.18" xlink:href="#未命名的渐变_15" />
        <linearGradient id="未命名的渐变_14-3" x1="28.17" y1="84.24" x2="28.44" y2="84.24" xlink:href="#未命名的渐变_14" />
        <linearGradient id="未命名的渐变_155-2" x1="55.71" y1="105.68" x2="31.44" y2="81.41" xlink:href="#未命名的渐变_155" />
        <linearGradient id="未命名的渐变_13-4" x1="28.18" y1="75.66" x2="119.19" y2="75.66" xlink:href="#未命名的渐变_13" />
        <linearGradient id="未命名的渐变_14-4" x1="58.72" y1="99.72" x2="77.06" y2="99.72" xlink:href="#未命名的渐变_14" />
        <linearGradient id="未命名的渐变_25" x1="23.26" y1="88.98" x2="24.1" y2="87.54" gradientUnits="userSpaceOnUse">
            <stop offset="0" stop-color="#171d23" />
            <stop offset="1" stop-color="#7696cb" />
        </linearGradient>
        <linearGradient id="未命名的渐变_28" x1="14.46" y1="90.11" x2="16.96" y2="85.78" gradientUnits="userSpaceOnUse">
            <stop offset="0" stop-color="#7696cb" />
            <stop offset="1" stop-color="#171d23" />
        </linearGradient>
        <linearGradient id="未命名的渐变_1823-6" x1="26.13" y1="98.05" x2="27.39" y2="96.79" xlink:href="#未命名的渐变_1823" />
        <linearGradient id="未命名的渐变_140-5" x1="20.71" y1="94.98" x2="21.64" y2="93.37" xlink:href="#未命名的渐变_140" />
        <linearGradient id="未命名的渐变_13-5" x1="20.48" y1="95.28" x2="41.23" y2="95.28" xlink:href="#未命名的渐变_13" />
        <linearGradient id="未命名的渐变_1823-7" x1="32.64" y1="103.56" x2="42.66" y2="103.56" xlink:href="#未命名的渐变_1823" />
        <linearGradient id="未命名的渐变_76-2" x1="25.23" y1="104.93" x2="29.03" y2="98.35" xlink:href="#未命名的渐变_76" />
        <linearGradient id="未命名的渐变_1823-8" x1="36.24" y1="106.67" x2="40.9" y2="102.01" xlink:href="#未命名的渐变_1823" />
        <linearGradient id="未命名的渐变_81-2" x1="35.63" y1="106.94" x2="41.08" y2="101.49" xlink:href="#未命名的渐变_81" />
        <linearGradient id="未命名的渐变_140-6" x1="34.9" y1="106.77" x2="38.84" y2="99.94" xlink:href="#未命名的渐变_140" />
        <linearGradient id="未命名的渐变_140-7" x1="38.06" y1="106.88" x2="40.74" y2="102.25" xlink:href="#未命名的渐变_140" />
        <linearGradient id="未命名的渐变_1823-9" x1="38.89" y1="107.19" x2="42.59" y2="103.49" xlink:href="#未命名的渐变_1823" />
        <linearGradient id="未命名的渐变_1823-10" x1="51.06" y1="112.38" x2="52.32" y2="111.12" xlink:href="#未命名的渐变_1823" />
        <linearGradient id="未命名的渐变_140-8" x1="45.64" y1="109.31" x2="46.57" y2="107.7" xlink:href="#未命名的渐变_140" />
        <linearGradient id="未命名的渐变_25-2" x1="52.53" y1="105.86" x2="53.36" y2="104.42" xlink:href="#未命名的渐变_25" />
        <linearGradient id="未命名的渐变_28-2" x1="43.73" y1="106.98" x2="46.23" y2="102.65" xlink:href="#未命名的渐变_28" />
        <linearGradient id="未命名的渐变_102-3" x1="-707.24" y1="115.08" x2="-691.25" y2="115.08" xlink:href="#未命名的渐变_102" />
        <linearGradient id="未命名的渐变_104-3" x1="-711.11" y1="121.25" x2="-699.82" y2="101.71" xlink:href="#未命名的渐变_104" />
        <linearGradient id="未命名的渐变_148-3" x1="52.23" y1="122.39" x2="59.67" y2="109.5" xlink:href="#未命名的渐变_148" />
        <linearGradient id="未命名的渐变_117-3" x1="48.22" y1="115.21" x2="61.09" y2="115.21" xlink:href="#未命名的渐变_117" />
        <linearGradient id="未命名的渐变_102-4" x1="-621.16" y1="65.25" x2="-605.16" y2="65.25" xlink:href="#未命名的渐变_102" />
        <linearGradient id="未命名的渐变_104-4" x1="-625.02" y1="71.42" x2="-613.74" y2="51.87" xlink:href="#未命名的渐变_104" />
        <linearGradient id="未命名的渐变_148-4" x1="138.31" y1="72.55" x2="145.75" y2="59.66" xlink:href="#未命名的渐变_148" />
        <linearGradient id="未命名的渐变_117-4" x1="134.31" y1="65.37" x2="147.17" y2="65.37" xlink:href="#未命名的渐变_117" />
        <linearGradient id="未命名的渐变_63" y1="94.48" x2="2.85" y2="94.48" gradientUnits="userSpaceOnUse">
            <stop offset="0" stop-color="#374255" />
            <stop offset="1" stop-color="#4e5f79" />
        </linearGradient>
        <linearGradient id="未命名的渐变_13-6" x1="0.01" y1="101.44" x2="39.22" y2="101.44" xlink:href="#未命名的渐变_13" />
        <linearGradient id="未命名的渐变_67" x1="30.86" y1="113.49" x2="39.22" y2="113.49" gradientUnits="userSpaceOnUse">
            <stop offset="0" stop-color="#4e5f79" />
            <stop offset="1" stop-color="#374255" />
        </linearGradient>
    </defs>
    <g id="图层_2" data-name="图层 2">
        <g id="图层_2-2" data-name="图层 2">
            <g id="汽车底盘">
                <g class="cls-3">
                    <rect class="cls-4" width="150" height="150" />
                    <rect id="网格" class="cls-5" width="150" height="150" />
                </g>
                <g class="cls-6">
                    <g class="cls-6">
                        <path class="cls-7"
                            d="M107.63,25.68v3.1a20.71,20.71,0,0,1,6.82,2.35V28A20.79,20.79,0,0,0,107.63,25.68Z" />
                        <polygon class="cls-8"
                            points="114.45 28.03 114.44 31.13 144.1 48.25 144.11 45.15 114.45 28.03" />
                        <path class="cls-9"
                            d="M145.45,44.37,115.79,27.25a23.13,23.13,0,0,0-7.63-2.62l-.53,1.05A20.79,20.79,0,0,1,114.45,28l29.66,17.12a10.2,10.2,0,0,1,4.07,4l1.82-.32A11.39,11.39,0,0,0,145.45,44.37Z" />
                        <polygon class="cls-10" points="148.18 49.1 148.17 52.2 149.99 51.88 150 48.78 148.18 49.1" />
                        <path class="cls-11"
                            d="M144.11,45.15v3.1a10.25,10.25,0,0,1,4.07,3.94V49.1A10.2,10.2,0,0,0,144.11,45.15Z" />
                    </g>
                    <path class="cls-12"
                        d="M102.26,34c-4.41,2.55-8,8.73-8,13.81s3.61,7.12,8,4.57,8-8.73,8-13.81S106.68,31.44,102.26,34Z" />
                    <path class="cls-13"
                        d="M101.15,29.47c-1.46-.84-3.47-.72-5.7.56-4.41,2.55-8,8.73-8,13.81,0,2.52.9,4.29,2.34,5.13l6.81,4c-1.44-.84-2.33-2.61-2.34-5.13,0-5.08,3.56-11.26,8-13.81,2.23-1.29,4.24-1.4,5.7-.56Z" />
                    <g class="cls-6">
                        <path class="cls-14"
                            d="M102.75,49.37c-2.91,1.68-5.28.32-5.29-3a11.61,11.61,0,0,1,5.26-9.11c2.91-1.68,5.29-.33,5.3,3A11.64,11.64,0,0,1,102.75,49.37Z" />
                        <path class="cls-15"
                            d="M106.48,36.86l-1.14-.66a3.67,3.67,0,0,1,1.54,3.38,11.64,11.64,0,0,1-5.27,9.13,3.72,3.72,0,0,1-3.75.36l1.14.66a3.7,3.7,0,0,0,3.75-.36A11.64,11.64,0,0,0,108,40.24,3.68,3.68,0,0,0,106.48,36.86Z" />
                        <path class="cls-16"
                            d="M102.71,35.91A14.15,14.15,0,0,0,96.3,47c0,4.08,2.9,5.73,6.46,3.68a14.15,14.15,0,0,0,6.41-11.11C109.16,35.5,106.27,33.86,102.71,35.91Zm0,13.46c-2.91,1.68-5.28.32-5.29-3a11.61,11.61,0,0,1,5.26-9.11c2.91-1.68,5.29-.33,5.3,3A11.64,11.64,0,0,1,102.75,49.37Z" />
                    </g>
                    <g class="cls-6">
                        <polygon class="cls-10" points="99.82 46.85 99.81 48.4 106.42 44.56 106.43 43.01 99.82 46.85" />
                        <polygon class="cls-10" points="93.07 50.78 93.06 52.33 98.48 49.18 98.48 47.63 93.07 50.78" />
                        <polygon class="cls-8"
                            points="106.43 43.01 106.42 44.56 133.14 59.99 133.15 58.44 106.43 43.01" />
                        <polygon class="cls-8" points="98.48 47.63 98.48 49.18 125.2 64.61 125.2 63.06 98.48 47.63" />
                        <path class="cls-17"
                            d="M106.42,41.46l-16,9.32,29.42,17,16-9.32ZM119.79,66.2,93.07,50.78l5.41-3.15L125.2,63.06Zm-20-19.35L106.43,43l26.72,15.43-6.61,3.84Z" />
                        <polygon class="cls-10"
                            points="119.8 67.76 119.8 69.31 135.83 59.99 135.84 58.44 119.8 67.76" />
                        <polygon class="cls-8" points="90.38 50.78 90.38 52.33 119.8 69.31 119.8 67.76 90.38 50.78" />
                    </g>
                    <g class="cls-6">
                        <path class="cls-18"
                            d="M112.42,48.78a1.45,1.45,0,0,0-.64,1.12c0,.41.3.57.65.37a1.4,1.4,0,0,0,.64-1.12C113.07,48.74,112.78,48.58,112.42,48.78Z" />
                        <path class="cls-19"
                            d="M102.17,42.51a.46.46,0,0,0-.46,0,1.42,1.42,0,0,0-.64,1.12.44.44,0,0,0,.18.41L112,50.31a.44.44,0,0,1-.19-.41,1.45,1.45,0,0,1,.64-1.12.46.46,0,0,1,.46,0Z" />
                    </g>
                    <g class="cls-6">
                        <polygon class="cls-20"
                            points="113.34 41.37 106.15 45.52 119.71 53.4 126.9 49.24 113.34 41.37" />
                        <path class="cls-21"
                            d="M126.9,49.25l-7.19,4.15a9.5,9.5,0,0,0-1.4,5.23c0,3.19,1.35,3.44,1.42,3.45l7.19-4.15a8.72,8.72,0,0,0,1.4-5.08C128.31,49.66,127,49.27,126.9,49.25Z" />
                        <path class="cls-22"
                            d="M118.31,58.63a9.5,9.5,0,0,1,1.4-5.23l-13.56-7.88a9.5,9.5,0,0,0-1.4,5.23c0,2.35.74,3.11,1.15,3.35L119.46,62C119.05,61.74,118.31,61,118.31,58.63Z" />
                    </g>
                    <path class="cls-23"
                        d="M124.28,53.67c1.32-.73,2.37-.09,2.35,1.44a5.27,5.27,0,0,1-2.42,4.11c-1.32.73-2.38.09-2.36-1.44A5.28,5.28,0,0,1,124.28,53.67Z" />
                    <path class="cls-24"
                        d="M121.23,57.88c0,1.79,1.21,2.54,2.75,1.68a6.13,6.13,0,0,0,2.84-4.8c0-1.79-1.21-2.54-2.76-1.68A6.14,6.14,0,0,0,121.23,57.88Zm.62-.1a5.28,5.28,0,0,1,2.43-4.11c1.32-.73,2.37-.09,2.35,1.44a5.27,5.27,0,0,1-2.42,4.11C122.89,60,121.83,59.31,121.85,57.78Z" />
                    <g class="cls-25">
                        <path
                            d="M121.23,57.88c0,1.79,1.21,2.54,2.75,1.68a6.13,6.13,0,0,0,2.84-4.8c0-1.79-1.21-2.54-2.76-1.68A6.14,6.14,0,0,0,121.23,57.88Zm.62-.1a5.28,5.28,0,0,1,2.43-4.11c1.32-.73,2.37-.09,2.35,1.44a5.27,5.27,0,0,1-2.42,4.11C122.89,60,121.83,59.31,121.85,57.78Z" />
                    </g>
                    <path class="cls-26"
                        d="M123.06,52.49a2,2,0,0,1,1.94-.17l1,.59a1.94,1.94,0,0,0-2,.17,6.14,6.14,0,0,0-2.83,4.8,2,2,0,0,0,.81,1.85l-1-.59a2,2,0,0,1-.82-1.85A6.13,6.13,0,0,1,123.06,52.49Z" />
                    <g class="cls-6">
                        <path class="cls-27"
                            d="M126.41,54.35a1.35,1.35,0,0,0-1.35.13,4.19,4.19,0,0,0-1.89,3.28,1.33,1.33,0,0,0,.55,1.22l1.34.77a1.3,1.3,0,0,1-.55-1.21,4.19,4.19,0,0,1,1.89-3.28,1.35,1.35,0,0,1,1.35-.13Z" />
                        <path class="cls-28"
                            d="M126.4,55.26a4.19,4.19,0,0,0-1.89,3.28c0,1.2.86,1.69,1.91,1.08a4.15,4.15,0,0,0,1.88-3.27C128.3,55.15,127.45,54.66,126.4,55.26Z" />
                    </g>
                    <g class="cls-6">
                        <path class="cls-29"
                            d="M137.35,63.11a1.45,1.45,0,0,0-.64,1.12c0,.41.29.57.64.37a1.42,1.42,0,0,0,.65-1.12C138,63.07,137.71,62.91,137.35,63.11Z" />
                        <path class="cls-30"
                            d="M127.1,56.84a.46.46,0,0,0-.47,0A1.42,1.42,0,0,0,126,58a.47.47,0,0,0,.19.42l10.72,6.22a.43.43,0,0,1-.19-.41,1.45,1.45,0,0,1,.64-1.12.46.46,0,0,1,.46,0Z" />
                    </g>
                    <g class="cls-6">
                        <path class="cls-10"
                            d="M115.89,29.07l-9,5.17a24.2,24.2,0,0,0-7.92,8L96.34,46.4a7.93,7.93,0,0,1-2.63,2.65l-3.26,1.88V54l3.26-1.88a13.68,13.68,0,0,0,4.4-4.43l2.66-4.19a18.68,18.68,0,0,1,6.15-6.2l9-5.18Z" />
                        <polygon class="cls-8" points="90.45 50.93 89.11 50.16 89.12 53.26 90.46 54.04 90.45 50.93" />
                        <path class="cls-31"
                            d="M114.55,28.29l-9,5.17a24.2,24.2,0,0,0-7.92,8L95,45.62a7.93,7.93,0,0,1-2.63,2.65l-3.26,1.89,1.34.77,3.26-1.88a7.93,7.93,0,0,0,2.63-2.65L99,42.21a24.2,24.2,0,0,1,7.92-8l9-5.17Z" />
                    </g>
                    <g class="cls-6">
                        <polygon class="cls-17"
                            points="106.17 35.49 104.83 36.27 134.13 53.19 135.47 52.41 106.17 35.49" />
                        <polygon class="cls-10"
                            points="134.13 53.19 134.13 54.74 135.47 53.96 135.47 52.41 134.13 53.19" />
                        <polygon class="cls-8"
                            points="104.83 36.27 104.83 37.82 134.13 54.74 134.13 53.19 104.83 36.27" />
                    </g>
                    <g class="cls-6">
                        <path class="cls-10"
                            d="M145.24,45.9l-9,5.17a24.2,24.2,0,0,0-7.92,8l-2.66,4.19a8,8,0,0,1-2.64,2.65l-3.26,1.88v3.1L123.07,69a13.45,13.45,0,0,0,4.4-4.42l2.66-4.19a18.8,18.8,0,0,1,6.16-6.2l9-5.18Z" />
                        <polygon class="cls-8"
                            points="119.8 67.76 118.46 66.98 118.47 70.09 119.81 70.86 119.8 67.76" />
                        <path class="cls-32"
                            d="M143.9,45.12l-9,5.17a24.2,24.2,0,0,0-7.92,8l-2.66,4.19a8,8,0,0,1-2.64,2.65L118.46,67l1.34.78,3.26-1.88a8,8,0,0,0,2.64-2.65L128.36,59a24.2,24.2,0,0,1,7.92-8l9-5.17Z" />
                    </g>
                    <path class="cls-33"
                        d="M16.18,83.82c-4.42,2.55-8,8.74-8,13.81s3.61,7.13,8,4.58,8-8.74,8-13.81S20.6,81.27,16.18,83.82Z" />
                    <path class="cls-34"
                        d="M15.06,79.31c-1.45-.85-3.47-.73-5.69.56a17.57,17.57,0,0,0-8,13.81c0,2.52.9,4.29,2.33,5.13l6.81,4c-1.43-.83-2.32-2.6-2.33-5.13,0-5.07,3.55-11.26,8-13.81,2.22-1.28,4.24-1.4,5.69-.55Z" />
                    <g class="cls-6">
                        <path class="cls-14"
                            d="M16.67,99.21c-2.91,1.68-5.29.32-5.29-3a11.59,11.59,0,0,1,5.25-9.11c2.92-1.68,5.3-.34,5.31,3A11.64,11.64,0,0,1,16.67,99.21Z" />
                        <path class="cls-35"
                            d="M20.4,86.7,19.26,86a3.69,3.69,0,0,1,1.54,3.38,11.67,11.67,0,0,1-5.27,9.13,3.72,3.72,0,0,1-3.75.36l1.14.66a3.72,3.72,0,0,0,3.75-.36,11.64,11.64,0,0,0,5.27-9.13A3.69,3.69,0,0,0,20.4,86.7Z" />
                        <path class="cls-36"
                            d="M16.63,85.75a14.12,14.12,0,0,0-6.41,11.1c0,4.08,2.9,5.73,6.45,3.68a14.15,14.15,0,0,0,6.42-11.11C23.07,85.34,20.18,83.7,16.63,85.75Zm0,13.46c-2.91,1.68-5.29.32-5.29-3a11.59,11.59,0,0,1,5.25-9.11c2.92-1.68,5.3-.34,5.31,3A11.64,11.64,0,0,1,16.67,99.21Z" />
                    </g>
                    <g class="cls-6">
                        <polygon class="cls-10" points="12.95 95.45 12.95 97 19.55 93.16 19.56 91.61 12.95 95.45" />
                        <polygon class="cls-10" points="6.2 99.37 6.2 100.92 11.61 97.78 11.61 96.23 6.2 99.37" />
                        <polygon class="cls-8" points="19.56 91.61 19.55 93.16 46.27 108.59 46.28 107.04 19.56 91.61" />
                        <polygon class="cls-8" points="11.61 96.23 11.61 97.78 38.33 113.2 38.34 111.65 11.61 96.23" />
                        <path class="cls-17"
                            d="M19.55,90.05l-16,9.32,29.42,17L49,107ZM32.92,114.8,6.2,99.37l5.41-3.14,26.73,15.42ZM13,95.45l6.61-3.84L46.28,107l-6.61,3.84Z" />
                        <polygon class="cls-10"
                            points="32.94 116.36 32.93 117.91 48.97 108.59 48.97 107.04 32.94 116.36" />
                        <polygon class="cls-8" points="3.52 99.37 3.51 100.92 32.93 117.91 32.94 116.36 3.52 99.37" />
                    </g>
                    <polygon class="cls-10" points="9.32 98.24 7.36 99.37 7.36 93.82 9.32 92.68 9.32 98.24" />
                    <polygon class="cls-10" points="37.01 114.04 35.04 115.17 35.04 109.61 37.01 108.48 37.01 114.04" />
                    <g class="cls-6">
                        <path class="cls-37"
                            d="M110.56,79v3.1c.53-.31,9.58-5.57,9.59-9.88v-3.1C120.14,73.46,111.09,78.71,110.56,79Z" />
                        <path class="cls-38"
                            d="M27.22,84.35v3.1a2.9,2.9,0,0,0,.38,1.44v-3.1A2.87,2.87,0,0,1,27.22,84.35Z" />
                        <polygon class="cls-10" points="77.73 98.1 77.73 101.19 110.55 82.12 110.56 79.02 77.73 98.1" />
                        <polygon class="cls-39" points="27.6 85.79 27.59 88.89 58.2 106.56 58.21 103.47 27.6 85.79" />
                        <path class="cls-40"
                            d="M58.21,103.47v3.1c7.74,1.47,18.94-5,19.53-5.38V98.1C77.15,98.44,66,104.94,58.21,103.47Z" />
                        <path class="cls-41"
                            d="M119.76,67.7,89.15,50c-7.73-1.47-18.92,5-19.51,5.37L36.81,74.47c-.59.34-11.78,6.85-9.21,11.32l30.61,17.68c7.74,1.47,18.94-5,19.53-5.37L110.56,79C111.15,78.68,122.34,72.17,119.76,67.7Z" />
                    </g>
                    <g class="cls-6">
                        <path class="cls-42"
                            d="M109.88,77.55v.77c.11-.06,9.29-5.45,9.3-9.52V68C119.17,72.1,110,77.49,109.88,77.55Z" />
                        <path class="cls-43"
                            d="M28.18,83.3v.77a2.45,2.45,0,0,0,.26,1.12v-.78A2.38,2.38,0,0,1,28.18,83.3Z" />
                        <polygon class="cls-10" points="77.06 96.63 77.05 97.4 109.88 78.32 109.88 77.55 77.06 96.63" />
                        <polygon class="cls-44" points="28.44 84.42 28.43 85.19 58.72 102.67 58.72 101.9 28.44 84.42" />
                        <path class="cls-45"
                            d="M118.93,66.91,88.64,49.43c-7.09-1.19-18.22,5.2-18.33,5.27L37.48,73.78c-.11.06-11.12,6.53-9,10.63L58.72,101.9c7.1,1.19,18.23-5.21,18.34-5.27l32.82-19.08C110,77.48,121,71,118.93,66.91Z" />
                        <path class="cls-46"
                            d="M58.72,101.9v.77c7.1,1.19,18.22-5.21,18.33-5.27v-.77C77,96.69,65.82,103.09,58.72,101.9Z" />
                    </g>
                    <g class="cls-6">
                        <polygon class="cls-17" points="27.59 85.79 24.33 87.67 25.67 88.45 28.93 86.57 27.59 85.79" />
                        <path class="cls-47" d="M24.33,87.68a3,3,0,0,1-2.64.39l1.34.78a3,3,0,0,0,2.64-.4Z" />
                        <polygon class="cls-10" points="21.69 88.07 19.01 86.96 20.35 87.74 23.03 88.85 21.69 88.07" />
                        <path class="cls-48"
                            d="M19,87c-2.21-.92-5-.49-7.94,1.18l1.34.78c2.91-1.67,5.73-2.1,7.94-1.18Z" />
                        <path class="cls-10"
                            d="M28.93,86.57l-3.26,1.88a3,3,0,0,1-2.64.4l-2.68-1.11c-2.21-.92-5-.49-7.94,1.18l-9,5.18v3.1l9-5.17c2.26-1.31,4.46-1.64,6.17-.93l2.68,1.11a5.06,5.06,0,0,0,4.41-.66l3.26-1.88Z" />
                        <polygon class="cls-8" points="3.45 94.1 2.11 93.32 2.12 96.42 3.46 97.2 3.45 94.1" />
                        <polygon class="cls-17" points="11.07 88.14 2.11 93.32 3.45 94.1 12.41 88.92 11.07 88.14" />
                    </g>
                    <g class="cls-6">
                        <path class="cls-49"
                            d="M26.76,96.68a1.4,1.4,0,0,0-.65,1.11c0,.41.3.57.65.37a1.42,1.42,0,0,0,.65-1.11C27.41,96.64,27.11,96.47,26.76,96.68Z" />
                        <path class="cls-50"
                            d="M16.5,90.4a.44.44,0,0,0-.46,0,1.42,1.42,0,0,0-.64,1.12.44.44,0,0,0,.19.41L26.3,98.21a.5.5,0,0,1-.19-.42,1.4,1.4,0,0,1,.65-1.11.44.44,0,0,1,.46-.05Z" />
                    </g>
                    <g class="cls-6">
                        <polygon class="cls-51" points="27.68 89.26 20.48 93.41 34.04 101.29 41.23 97.14 27.68 89.26" />
                        <path class="cls-52"
                            d="M41.23,97.14,34,101.29a9.51,9.51,0,0,0-1.4,5.24c0,3.18,1.35,3.44,1.42,3.45l7.2-4.15a8.77,8.77,0,0,0,1.4-5.09C42.65,97.55,41.3,97.16,41.23,97.14Z" />
                        <path class="cls-53"
                            d="M32.64,106.53a9.51,9.51,0,0,1,1.4-5.24L20.48,93.41a9.55,9.55,0,0,0-1.4,5.24c0,2.35.74,3.1,1.16,3.34l13.55,7.88C33.38,109.63,32.65,108.87,32.64,106.53Z" />
                    </g>
                    <path class="cls-54"
                        d="M38.61,101.57c1.32-.74,2.37-.09,2.35,1.44a5.23,5.23,0,0,1-2.42,4.1c-1.32.73-2.38.09-2.36-1.44A5.25,5.25,0,0,1,38.61,101.57Z" />
                    <path class="cls-55"
                        d="M35.56,105.77c0,1.79,1.21,2.54,2.76,1.68a6.14,6.14,0,0,0,2.83-4.8c0-1.79-1.21-2.54-2.75-1.68A6.13,6.13,0,0,0,35.56,105.77Zm.62-.1a5.25,5.25,0,0,1,2.43-4.1c1.32-.74,2.37-.09,2.35,1.44a5.23,5.23,0,0,1-2.42,4.1C37.22,107.84,36.16,107.2,36.18,105.67Z" />
                    <g class="cls-25">
                        <path
                            d="M35.56,105.77c0,1.79,1.21,2.54,2.76,1.68a6.14,6.14,0,0,0,2.83-4.8c0-1.79-1.21-2.54-2.75-1.68A6.13,6.13,0,0,0,35.56,105.77Zm.62-.1a5.25,5.25,0,0,1,2.43-4.1c1.32-.74,2.37-.09,2.35,1.44a5.23,5.23,0,0,1-2.42,4.1C37.22,107.84,36.16,107.2,36.18,105.67Z" />
                    </g>
                    <path class="cls-56"
                        d="M37.39,100.39a1.93,1.93,0,0,1,1.94-.17l1,.58a2,2,0,0,0-1.94.17,6.13,6.13,0,0,0-2.84,4.8,2,2,0,0,0,.82,1.85l-1-.58a2,2,0,0,1-.82-1.85A6.18,6.18,0,0,1,37.39,100.39Z" />
                    <g class="cls-6">
                        <path class="cls-57"
                            d="M40.74,102.25a1.33,1.33,0,0,0-1.34.13,4.17,4.17,0,0,0-1.9,3.28,1.33,1.33,0,0,0,.56,1.21l1.33.78a1.32,1.32,0,0,1-.55-1.21,4.17,4.17,0,0,1,1.9-3.28,1.31,1.31,0,0,1,1.34-.13Z" />
                        <path class="cls-58"
                            d="M40.74,103.16a4.17,4.17,0,0,0-1.9,3.28c0,1.19.86,1.68,1.91,1.07a4.13,4.13,0,0,0,1.88-3.26C42.63,103,41.78,102.55,40.74,103.16Z" />
                    </g>
                    <g class="cls-6">
                        <path class="cls-59"
                            d="M51.68,111a1.42,1.42,0,0,0-.64,1.11c0,.42.29.58.65.37a1.42,1.42,0,0,0,.64-1.11C52.33,111,52,110.8,51.68,111Z" />
                        <path class="cls-60"
                            d="M41.43,104.74a.46.46,0,0,0-.46,0,1.38,1.38,0,0,0-.64,1.12.46.46,0,0,0,.18.41l10.72,6.23a.45.45,0,0,1-.19-.42,1.42,1.42,0,0,1,.64-1.11.44.44,0,0,1,.46-.05Z" />
                    </g>
                    <g class="cls-6">
                        <polygon class="cls-17" points="15.63 87.91 14.3 88.68 43.6 105.6 44.94 104.82 15.63 87.91" />
                        <polygon class="cls-10" points="43.6 105.6 43.6 107.15 44.94 106.37 44.94 104.82 43.6 105.6" />
                        <polygon class="cls-8" points="14.3 88.68 14.29 90.23 43.6 107.15 43.6 105.6 14.3 88.68" />
                    </g>
                    <g class="cls-6">
                        <polygon class="cls-17"
                            points="56.86 102.67 53.6 104.55 54.94 105.33 58.2 103.45 56.86 102.67" />
                        <path class="cls-61" d="M53.6,104.55A3,3,0,0,1,51,105l1.34.78a3,3,0,0,0,2.64-.4Z" />
                        <polygon class="cls-10"
                            points="50.96 104.95 48.28 103.84 49.62 104.62 52.3 105.72 50.96 104.95" />
                        <path class="cls-62"
                            d="M48.28,103.84c-2.21-.92-5-.5-7.94,1.18l1.34.78c2.9-1.68,5.73-2.1,7.94-1.18Z" />
                        <path class="cls-10"
                            d="M58.2,103.45l-3.26,1.88a3,3,0,0,1-2.64.4l-2.68-1.11c-2.21-.92-5-.5-7.94,1.18l-9,5.17v3.11l9-5.18c2.26-1.3,4.45-1.63,6.17-.92l2.68,1.11a5.1,5.1,0,0,0,4.41-.66l3.25-1.88Z" />
                        <polygon class="cls-8"
                            points="32.72 110.97 31.38 110.2 31.39 113.3 32.73 114.08 32.72 110.97" />
                        <polygon class="cls-17"
                            points="40.34 105.02 31.38 110.2 32.72 110.97 41.68 105.8 40.34 105.02" />
                    </g>
                    <path class="cls-63"
                        d="M54.19,105.89c-4.42,2.55-8,8.74-8,13.81s3.6,7.12,8,4.57,8-8.73,8-13.8S58.6,103.34,54.19,105.89Z" />
                    <path class="cls-64"
                        d="M53.07,101.38c-1.46-.85-3.47-.73-5.7.56-4.41,2.55-8,8.73-8,13.81,0,2.52.9,4.29,2.34,5.12l6.81,4c-1.44-.83-2.33-2.6-2.33-5.13,0-5.07,3.55-11.26,8-13.81,2.22-1.28,4.23-1.4,5.69-.55Z" />
                    <g class="cls-6">
                        <path class="cls-14"
                            d="M54.67,121.28c-2.91,1.68-5.28.31-5.29-3a11.6,11.6,0,0,1,5.26-9.11c2.91-1.68,5.29-.34,5.3,3A11.62,11.62,0,0,1,54.67,121.28Z" />
                        <path class="cls-65"
                            d="M58.4,108.77l-1.14-.66a3.67,3.67,0,0,1,1.54,3.38,11.65,11.65,0,0,1-5.27,9.13,3.7,3.7,0,0,1-3.74.36l1.13.66a3.72,3.72,0,0,0,3.75-.36,11.62,11.62,0,0,0,5.27-9.13A3.67,3.67,0,0,0,58.4,108.77Z" />
                        <path class="cls-66"
                            d="M54.64,107.82a14.1,14.1,0,0,0-6.42,11.1c0,4.08,2.91,5.73,6.46,3.68a14.17,14.17,0,0,0,6.41-11.11C61.08,107.41,58.19,105.77,54.64,107.82Zm0,13.46c-2.91,1.68-5.28.31-5.29-3a11.6,11.6,0,0,1,5.26-9.11c2.91-1.68,5.29-.34,5.3,3A11.62,11.62,0,0,1,54.67,121.28Z" />
                    </g>
                    <path class="cls-67"
                        d="M140.27,56.06c-4.42,2.55-8,8.73-8,13.81s3.6,7.12,8,4.57,8-8.73,8-13.81S144.69,53.51,140.27,56.06Z" />
                    <path class="cls-68"
                        d="M139.15,51.54c-1.46-.84-3.47-.72-5.69.56-4.42,2.55-8,8.73-8,13.81,0,2.52.9,4.29,2.33,5.13L134.63,75c-1.43-.83-2.32-2.6-2.33-5.12,0-5.08,3.55-11.26,8-13.81,2.22-1.29,4.24-1.41,5.69-.56Z" />
                    <g class="cls-6">
                        <path class="cls-14"
                            d="M140.76,71.44c-2.91,1.68-5.29.32-5.3-3a11.61,11.61,0,0,1,5.26-9.11c2.91-1.68,5.3-.33,5.31,3A11.64,11.64,0,0,1,140.76,71.44Z" />
                        <path class="cls-69"
                            d="M144.49,58.93l-1.14-.66a3.72,3.72,0,0,1,1.54,3.38,11.64,11.64,0,0,1-5.27,9.13,3.72,3.72,0,0,1-3.75.36l1.14.66a3.72,3.72,0,0,0,3.75-.36A11.64,11.64,0,0,0,146,62.31,3.72,3.72,0,0,0,144.49,58.93Z" />
                        <path class="cls-70"
                            d="M140.72,58a14.11,14.11,0,0,0-6.41,11.1c0,4.08,2.9,5.73,6.45,3.68a14.12,14.12,0,0,0,6.41-11.11C147.16,57.57,144.27,55.93,140.72,58Zm0,13.46c-2.91,1.68-5.29.32-5.3-3a11.61,11.61,0,0,1,5.26-9.11c2.91-1.68,5.3-.33,5.31,3A11.64,11.64,0,0,1,140.76,71.44Z" />
                    </g>
                    <g class="cls-6">
                        <path class="cls-71" d="M0,90.92V94c0,1.52,1,3,2.84,4V95C1,93.89,0,92.45,0,90.92Z" />
                        <polygon class="cls-8" points="2.85 94.95 2.84 98.05 30.86 114.23 30.87 111.13 2.85 94.95" />
                        <path class="cls-72"
                            d="M39,111.61a12.05,12.05,0,0,1-6.75-1.26L4.2,94.17c-1.75-1-2.55-2.43-2.22-3.91L.1,90.12C-.32,91.94.68,93.7,2.85,95l28,16.18a14.83,14.83,0,0,0,8.35,1.57Z" />
                        <path class="cls-73"
                            d="M30.87,111.13v3.1a14.85,14.85,0,0,0,8.36,1.57v-3.1A14.83,14.83,0,0,1,30.87,111.13Z" />
                    </g>
                    <polygon class="cls-8" points="52.99 74.98 52.64 75.19 44.79 70.65 44.79 70.25 52.99 74.98" />
                    <polygon class="cls-10" points="44.79 70.25 44.79 70.65 40.5 73.11 40.15 72.91 44.79 70.25" />
                    <polygon class="cls-8" points="62.89 80.75 62.54 80.96 54.69 76.42 54.69 76.02 62.89 80.75" />
                    <polygon class="cls-10" points="54.69 76.02 54.69 76.42 50.4 78.88 50.05 78.68 54.69 76.02" />
                    <polygon class="cls-8" points="73.06 86.6 72.71 86.81 64.86 82.27 64.86 81.87 73.06 86.6" />
                    <polygon class="cls-10" points="64.86 81.87 64.86 82.27 60.57 84.73 60.22 84.53 64.86 81.87" />
                    <polygon class="cls-8" points="83.09 92.37 82.75 92.58 74.89 88.04 74.89 87.64 83.09 92.37" />
                    <polygon class="cls-10" points="74.89 87.64 74.89 88.04 70.6 90.5 70.25 90.3 74.89 87.64" />
                    <polygon class="cls-8" points="67.75 66.4 67.4 66.61 59.55 62.07 59.55 61.67 67.75 66.4" />
                    <polygon class="cls-10" points="59.55 61.67 59.55 62.07 46.25 69.8 45.9 69.6 59.55 61.67" />
                    <polygon class="cls-8" points="77.65 72.16 77.3 72.37 69.45 67.83 69.45 67.43 77.65 72.16" />
                    <polygon class="cls-10" points="69.45 67.43 69.45 67.83 56.15 75.56 55.8 75.36 69.45 67.43" />
                    <polygon class="cls-8" points="87.82 78.02 87.47 78.23 79.62 73.69 79.62 73.29 87.82 78.02" />
                    <polygon class="cls-10" points="79.62 73.29 79.62 73.69 66.32 81.42 65.97 81.22 79.62 73.29" />
                    <polygon class="cls-8" points="97.85 83.79 97.5 84 89.65 79.46 89.65 79.06 97.85 83.79" />
                    <polygon class="cls-10" points="89.65 79.06 89.65 79.46 76.35 87.19 76 86.99 89.65 79.06" />
                    <polygon class="cls-8" points="82.46 58.04 82.11 58.25 74.26 53.71 74.26 53.31 82.46 58.04" />
                    <polygon class="cls-10" points="74.26 53.31 74.26 53.71 60.96 61.44 60.61 61.24 74.26 53.31" />
                    <polygon class="cls-8" points="92.36 63.81 92.01 64.02 84.16 59.48 84.16 59.08 92.36 63.81" />
                    <polygon class="cls-10" points="84.16 59.08 84.16 59.48 70.86 67.21 70.51 67.01 84.16 59.08" />
                    <polygon class="cls-8" points="102.53 69.67 102.18 69.88 94.33 65.34 94.33 64.94 102.53 69.67" />
                    <polygon class="cls-10" points="94.33 64.94 94.33 65.34 81.03 73.07 80.68 72.87 94.33 64.94" />
                    <polygon class="cls-8" points="112.56 75.43 112.21 75.64 104.36 71.1 104.36 70.7 112.56 75.43" />
                    <polygon class="cls-10" points="104.36 70.7 104.36 71.1 91.06 78.83 90.71 78.63 104.36 70.7" />
                </g>
              
            </g>
        </g>
    </g>
</svg>