<svg xmlns="http://www.w3.org/2000/svg" xmlns:xlink="http://www.w3.org/1999/xlink" viewBox="0 0 150 150">
    <defs>
        <style>
            .cls-1,
            .cls-2 {
                fill: none;
            }

            .cls-2 {
                stroke: #fff;
                stroke-miterlimit: 10;
                stroke-width: 0.1px;
            }

            .cls-3 {
                opacity: 0;
            }

            .cls-4 {
                fill: #000714;
            }

            .cls-5 {
                opacity: 0.1;
                fill: url(#新建图案);
            }

            .cls-6 {
                isolation: isolate;
            }

            .cls-7 {
                fill: #002b52;
            }

            .cls-8 {
                fill: #004280;
            }

            .cls-9 {
                fill: #005099;
            }

            .cls-10 {
                fill: #c4fdfe;
            }

            .cls-11 {
                opacity: 0.5;
            }

            .cls-12,
            .cls-14 {
                fill: #008dff;
            }

            .cls-13 {
                fill: url(#未命名的渐变_102);
            }

            .cls-14 {
                opacity: 0.2;
                mix-blend-mode: soft-light;
            }

            .cls-15 {
                fill: #5d779e;
            }

            .cls-16 {
                fill: url(#未命名的渐变_114);
            }

            .cls-17 {
                opacity: 0.2;
            }
        </style>
        <pattern id="新建图案" data-name="新建图案" width="18.57" height="32.16" patternTransform="translate(2633.45 1160.4)"
            patternUnits="userSpaceOnUse" viewBox="0 0 18.57 32.16">
            <rect class="cls-1" width="18.57" height="32.16" />
            <polyline class="cls-2" points="18.57 21.44 18.57 32.16 18.57 42.88" />
            <polyline class="cls-2" points="9.29 26.8 18.57 32.16 27.85 37.51 27.85 37.52" />
            <polyline class="cls-2" points="9.29 37.52 9.29 37.51 18.57 32.16 27.85 26.8" />
            <polygon class="cls-2"
                points="27.85 37.52 27.85 26.8 18.57 21.44 9.28 26.8 9.28 37.52 18.57 42.88 27.85 37.52" />
            <polyline class="cls-2" points="0 21.44 0 32.16 0 42.88" />
            <polyline class="cls-2" points="-9.28 26.8 0 32.16 9.28 37.51 9.28 37.52" />
            <polyline class="cls-2" points="-9.28 37.52 -9.28 37.51 0 32.16 9.28 26.8" />
            <polygon class="cls-2" points="9.28 37.52 9.28 26.8 0 21.44 -9.29 26.8 -9.29 37.52 0 42.88 9.28 37.52" />
            <polyline class="cls-2" points="18.57 10.72 27.85 16.08 37.13 21.43 37.13 21.44" />
            <polyline class="cls-2" points="18.57 21.44 18.57 21.43 27.85 16.08 37.13 10.72" />
            <polygon class="cls-2"
                points="37.14 21.44 37.14 10.72 27.85 5.36 18.57 10.72 18.57 21.44 27.85 26.8 37.14 21.44" />
            <polyline class="cls-2" points="9.29 5.36 9.29 16.08 9.29 26.8" />
            <polyline class="cls-2" points="0.01 10.72 9.29 16.08 18.57 21.43 18.57 21.44" />
            <polyline class="cls-2" points="0.01 21.44 0.01 21.43 9.29 16.08 18.57 10.72" />
            <polygon class="cls-2" points="18.57 21.44 18.57 10.72 9.28 5.36 0 10.72 0 21.44 9.28 26.8 18.57 21.44" />
            <polyline class="cls-2" points="-18.56 10.72 -9.28 16.08 0 21.43 0 21.44" />
            <polyline class="cls-2" points="-18.56 21.44 -18.56 21.43 -9.28 16.08 0 10.72" />
            <polygon class="cls-2" points="0 21.44 0 10.72 -9.29 5.36 -18.57 10.72 -18.57 21.44 -9.29 26.8 0 21.44" />
            <polyline class="cls-2" points="18.57 -10.72 18.57 0 18.57 10.72" />
            <polyline class="cls-2" points="9.29 -5.36 18.57 0 27.85 5.35 27.85 5.36" />
            <polyline class="cls-2" points="9.29 5.36 9.29 5.35 18.57 0 27.85 -5.36" />
            <polygon class="cls-2"
                points="27.85 5.36 27.85 -5.36 18.57 -10.72 9.28 -5.36 9.28 5.36 18.57 10.72 27.85 5.36" />
            <polyline class="cls-2" points="0 -10.72 0 0 0 10.72" />
            <polyline class="cls-2" points="-9.28 -5.36 0 0 9.28 5.35 9.28 5.36" />
            <polyline class="cls-2" points="-9.28 5.36 -9.28 5.35 0 0 9.28 -5.36" />
            <polygon class="cls-2" points="9.28 5.36 9.28 -5.36 0 -10.72 -9.29 -5.36 -9.29 5.36 0 10.72 9.28 5.36" />
        </pattern>
        <linearGradient id="未命名的渐变_102" x1="16.65" y1="80" x2="141.37" y2="80" gradientUnits="userSpaceOnUse">
            <stop offset="0" stop-color="#283140" />
            <stop offset="0.34" stop-color="#232b37" />
            <stop offset="0.9" stop-color="#15191f" />
            <stop offset="1" stop-color="#12161a" />
        </linearGradient>
        <linearGradient id="未命名的渐变_114" x1="65.58" y1="101.07" x2="39.41" y2="74.91" gradientUnits="userSpaceOnUse">
            <stop offset="0" stop-color="#425266" />
            <stop offset="1" stop-color="#596b8c" />
        </linearGradient>
    </defs>
    <title>烤灯1</title>
    <g id="图层_2" data-name="图层 2">
        <g id="图层_1-2" data-name="图层 1">
            <g id="烤灯1">
                <g class="cls-3">
                    <rect class="cls-4" width="150" height="150" />
                    <rect id="网格" class="cls-5" width="150" height="150" />
                </g>
                <g class="cls-6">
                    <path class="cls-7" d="M47.52,117.21,14.93,136,88.51,30.79,121.1,12Z" />
                    <polygon class="cls-8" points="50.49 113.21 17.9 132.03 25.93 142.03 58.52 123.21 50.49 113.21" />
                    <polygon class="cls-9" points="124.07 7.97 50.49 113.21 58.52 123.21 132.1 17.98 124.07 7.97" />
                    <path class="cls-10"
                        d="M124.78,14c-1.52-1.81-4.12-2.42-5.81-1.34a2.76,2.76,0,0,0-.91.92s0-.09.07-.13L44.53,119.48a3.67,3.67,0,0,0,.54,4.43c1.53,1.82,4.13,2.43,5.81,1.36a2.8,2.8,0,0,0,.84-.8L125.33,18.4c-.06.08-.13.15-.19.22A3.58,3.58,0,0,0,124.78,14Z" />
                    <g class="cls-11">
                        <path class="cls-12"
                            d="M120.9,12.09A5.21,5.21,0,0,1,124.78,14a3.58,3.58,0,0,1,.36,4.66c.06-.07.13-.14.19-.22L51.72,124.47a2.8,2.8,0,0,1-.84.8,3.62,3.62,0,0,1-1.92.52,5.22,5.22,0,0,1-3.89-1.88,3.67,3.67,0,0,1-.54-4.43l73.6-106.07s0,.09-.07.13a2.76,2.76,0,0,1,.91-.92,3.55,3.55,0,0,1,1.93-.53m-2.77,1.32h0m2.77-1.82a4.17,4.17,0,0,0-2.2.6,3.47,3.47,0,0,0-1,.94h0L44.12,119.2a4.15,4.15,0,0,0,.57,5A5.67,5.67,0,0,0,49,126.29a4,4,0,0,0,2.19-.6,3.48,3.48,0,0,0,1-.93L125.74,18.68h0a4.17,4.17,0,0,0-.56-5,5.68,5.68,0,0,0-4.27-2.05Z" />
                    </g>
                    <path class="cls-10"
                        d="M113.34,20.68c-1.52-1.81-4.13-2.42-5.82-1.34a2.82,2.82,0,0,0-.9.92.83.83,0,0,1,.07-.13L33.09,126.2a3.65,3.65,0,0,0,.54,4.43c1.52,1.82,4.13,2.43,5.81,1.36a3.06,3.06,0,0,0,.84-.8l73.6-106.07a1.3,1.3,0,0,1-.19.22A3.57,3.57,0,0,0,113.34,20.68Z" />
                    <g class="cls-11">
                        <path class="cls-12"
                            d="M109.46,18.81a5.21,5.21,0,0,1,3.88,1.87,3.57,3.57,0,0,1,.35,4.66,1.3,1.3,0,0,0,.19-.22L40.28,131.19a3.06,3.06,0,0,1-.84.8,3.62,3.62,0,0,1-1.92.52,5.21,5.21,0,0,1-3.89-1.88,3.65,3.65,0,0,1-.54-4.43l73.6-106.07a.83.83,0,0,0-.07.13,2.82,2.82,0,0,1,.9-.92,3.6,3.6,0,0,1,1.94-.53m-2.77,1.32h0m2.77-1.82a4.12,4.12,0,0,0-2.2.6,3.47,3.47,0,0,0-1,.94h0L32.68,125.92a4.15,4.15,0,0,0,.56,5A5.71,5.71,0,0,0,37.52,133a4,4,0,0,0,2.19-.6,3.48,3.48,0,0,0,1-.93L114.3,25.4h0a4.15,4.15,0,0,0-.56-5,5.64,5.64,0,0,0-4.26-2.05Z" />
                    </g>
                    <path class="cls-13"
                        d="M96.37,36,16.65,150l45-26L141.37,10ZM58.52,123.21,25.93,142,99.51,36.79,132.1,18Z" />
                    <path class="cls-14"
                        d="M96.37,36,16.65,150l45-26L141.37,10ZM58.52,123.21,25.93,142,99.51,36.79,132.1,18Z" />
                    <polygon class="cls-15" points="133.35 0 88.34 25.98 96.37 35.99 141.37 10.01 133.35 0" />
                    <polygon class="cls-16" points="88.34 25.98 8.63 140 16.65 150 96.37 35.99 88.34 25.98" />
                </g>

            </g>
        </g>
    </g>
</svg>