<svg xmlns="http://www.w3.org/2000/svg" xmlns:xlink="http://www.w3.org/1999/xlink" viewBox="0 0 150 150">
    <defs>
        <style>
            .cls-1,
            .cls-2 {
                fill: none;
            }

            .cls-2 {
                stroke: #fff;
                stroke-miterlimit: 10;
                stroke-width: 0.1px;
            }

            .cls-3 {
                opacity: 0;
            }

            .cls-4 {
                fill: #000714;
            }

            .cls-5 {
                opacity: 0.1;
                fill: url(#新建图案);
            }

            .cls-6 {
                isolation: isolate;
            }

            .cls-7 {
                fill: url(#未命名的渐变_21);
            }

            .cls-8 {
                fill: url(#未命名的渐变_13);
            }

            .cls-9 {
                mix-blend-mode: multiply;
                fill: url(#未命名的渐变_131);
            }

            .cls-10 {
                fill: url(#未命名的渐变_21-2);
            }

            .cls-11 {
                fill: url(#未命名的渐变_144);
            }

            .cls-12 {
                fill: url(#未命名的渐变_13-2);
            }

            .cls-13 {
                fill: url(#未命名的渐变_140);
            }

            .cls-14 {
                fill: #4e5f79;
            }

            .cls-15 {
                fill: url(#未命名的渐变_78);
            }

            .cls-16 {
                fill: url(#未命名的渐变_73);
            }

            .cls-17 {
                fill: url(#未命名的渐变_138);
            }

            .cls-18 {
                fill: url(#未命名的渐变_297);
            }

            .cls-19 {
                fill: url(#未命名的渐变_140-2);
            }

            .cls-20 {
                fill: url(#未命名的渐变_140-3);
            }

            .cls-21 {
                fill: #5d779e;
            }

            .cls-22 {
                fill: #4eb2fa;
            }

            .cls-23 {
                fill: url(#未命名的渐变_164);
            }

            .cls-24 {
                fill: url(#未命名的渐变_118);
            }

            .cls-25 {
                fill: url(#未命名的渐变_164-2);
            }

            .cls-26 {
                fill: url(#未命名的渐变_164-3);
            }

            .cls-27 {
                fill: url(#未命名的渐变_118-2);
            }

            .cls-28 {
                fill: url(#未命名的渐变_221);
            }

            .cls-29 {
                fill: url(#未命名的渐变_155);
            }

            .cls-30 {
                fill: url(#未命名的渐变_118-3);
            }

            .cls-31 {
                fill: url(#未命名的渐变_164-4);
            }

            .cls-32 {
                fill: url(#未命名的渐变_164-5);
            }

            .cls-33 {
                fill: url(#未命名的渐变_143);
            }

            .cls-34 {
                fill: url(#未命名的渐变_118-4);
            }

            .cls-35 {
                fill: url(#未命名的渐变_164-6);
            }

            .cls-36 {
                fill: url(#未命名的渐变_164-7);
            }

            .cls-37 {
                fill: url(#未命名的渐变_159);
            }

            .cls-38 {
                fill: url(#未命名的渐变_140-4);
            }

            .cls-39 {
                fill: url(#未命名的渐变_155-2);
            }

            .cls-40 {
                fill: url(#未命名的渐变_118-5);
            }

            .cls-41 {
                fill: url(#未命名的渐变_164-8);
            }

            .cls-42 {
                fill: url(#未命名的渐变_235);
            }

            .cls-43 {
                fill: url(#未命名的渐变_249);
            }

            .cls-44 {
                fill: url(#未命名的渐变_255);
            }

            .cls-45 {
                fill: url(#未命名的渐变_192);
            }

            .cls-46 {
                fill: url(#未命名的渐变_255-2);
            }

            .cls-47 {
                fill: url(#未命名的渐变_261);
            }

            .cls-48 {
                fill: url(#未命名的渐变_192-2);
            }

            .cls-49 {
                fill: url(#未命名的渐变_197);
            }

            .cls-50 {
                fill: url(#未命名的渐变_255-3);
            }

            .cls-51 {
                fill: url(#未命名的渐变_197-2);
            }

            .cls-52 {
                fill: url(#未命名的渐变_255-4);
            }

            .cls-53 {
                fill: url(#未命名的渐变_197-3);
            }

            .cls-54 {
                fill: url(#未命名的渐变_261-2);
            }

            .cls-55 {
                fill: url(#未命名的渐变_197-4);
            }

            .cls-56 {
                fill: url(#未命名的渐变_255-5);
            }

            .cls-57 {
                fill: url(#未命名的渐变_123);
            }

            .cls-58 {
                fill: url(#未命名的渐变_197-5);
            }

            .cls-59 {
                opacity: 0.2;
            }
        </style>
        <pattern id="新建图案" data-name="新建图案" width="18.57" height="32.16" patternTransform="translate(1730.54 1467.18)"
            patternUnits="userSpaceOnUse" viewBox="0 0 18.57 32.16">
            <rect class="cls-1" width="18.57" height="32.16" />
            <polyline class="cls-2" points="18.57 21.44 18.57 32.16 18.57 42.88" />
            <polyline class="cls-2" points="9.29 26.8 18.57 32.16 27.85 37.51 27.85 37.52" />
            <polyline class="cls-2" points="9.29 37.52 9.29 37.51 18.57 32.16 27.85 26.8" />
            <polygon class="cls-2"
                points="27.85 37.52 27.85 26.8 18.57 21.44 9.28 26.8 9.28 37.52 18.57 42.88 27.85 37.52" />
            <polyline class="cls-2" points="0 21.44 0 32.16 0 42.88" />
            <polyline class="cls-2" points="-9.28 26.8 0 32.16 9.28 37.51 9.28 37.52" />
            <polyline class="cls-2" points="-9.28 37.52 -9.28 37.51 0 32.16 9.28 26.8" />
            <polygon class="cls-2" points="9.28 37.52 9.28 26.8 0 21.44 -9.29 26.8 -9.29 37.52 0 42.88 9.28 37.52" />
            <polyline class="cls-2" points="18.57 10.72 27.85 16.08 37.13 21.43 37.13 21.44" />
            <polyline class="cls-2" points="18.57 21.44 18.57 21.43 27.85 16.08 37.13 10.72" />
            <polygon class="cls-2"
                points="37.14 21.44 37.14 10.72 27.85 5.36 18.57 10.72 18.57 21.44 27.85 26.8 37.14 21.44" />
            <polyline class="cls-2" points="9.29 5.36 9.29 16.08 9.29 26.8" />
            <polyline class="cls-2" points="0.01 10.72 9.29 16.08 18.57 21.43 18.57 21.44" />
            <polyline class="cls-2" points="0.01 21.44 0.01 21.43 9.29 16.08 18.57 10.72" />
            <polygon class="cls-2" points="18.57 21.44 18.57 10.72 9.28 5.36 0 10.72 0 21.44 9.28 26.8 18.57 21.44" />
            <polyline class="cls-2" points="-18.56 10.72 -9.28 16.08 0 21.43 0 21.44" />
            <polyline class="cls-2" points="-18.56 21.44 -18.56 21.43 -9.28 16.08 0 10.72" />
            <polygon class="cls-2" points="0 21.44 0 10.72 -9.29 5.36 -18.57 10.72 -18.57 21.44 -9.29 26.8 0 21.44" />
            <polyline class="cls-2" points="18.57 -10.72 18.57 0 18.57 10.72" />
            <polyline class="cls-2" points="9.29 -5.36 18.57 0 27.85 5.35 27.85 5.36" />
            <polyline class="cls-2" points="9.29 5.36 9.29 5.35 18.57 0 27.85 -5.36" />
            <polygon class="cls-2"
                points="27.85 5.36 27.85 -5.36 18.57 -10.72 9.28 -5.36 9.28 5.36 18.57 10.72 27.85 5.36" />
            <polyline class="cls-2" points="0 -10.72 0 0 0 10.72" />
            <polyline class="cls-2" points="-9.28 -5.36 0 0 9.28 5.35 9.28 5.36" />
            <polyline class="cls-2" points="-9.28 5.36 -9.28 5.35 0 0 9.28 -5.36" />
            <polygon class="cls-2" points="9.28 5.36 9.28 -5.36 0 -10.72 -9.29 -5.36 -9.29 5.36 0 10.72 9.28 5.36" />
        </pattern>
        <linearGradient id="未命名的渐变_21" x1="59.55" y1="136.99" x2="97" y2="136.99" gradientUnits="userSpaceOnUse">
            <stop offset="0" stop-color="#38455a" />
            <stop offset="0.15" stop-color="#7a98cc" />
            <stop offset="0.25" stop-color="#7a98cc" />
            <stop offset="0.9" stop-color="#12161a" />
            <stop offset="1" stop-color="#283140" />
        </linearGradient>
        <linearGradient id="未命名的渐变_13" x1="59.59" y1="124.03" x2="97.01" y2="124.03" gradientUnits="userSpaceOnUse">
            <stop offset="0" stop-color="#89abe6" />
            <stop offset="1" stop-color="#547099" />
        </linearGradient>
        <linearGradient id="未命名的渐变_131" x1="78.33" y1="124.03" x2="97.01" y2="124.03" gradientUnits="userSpaceOnUse">
            <stop offset="0" stop-color="#142439" stop-opacity="0.6" />
            <stop offset="1" stop-color="#142439" stop-opacity="0" />
        </linearGradient>
        <linearGradient id="未命名的渐变_21-2" x1="65.29" y1="126.19" x2="91.32" y2="126.19" xlink:href="#未命名的渐变_21" />
        <linearGradient id="未命名的渐变_144" x1="66.2" y1="116.88" x2="90.78" y2="123.47" gradientUnits="userSpaceOnUse">
            <stop offset="0" stop-color="#38455a" />
            <stop offset="0.2" stop-color="#7a98cc" />
            <stop offset="0.45" stop-color="#7a98cc" />
            <stop offset="0.9" stop-color="#12161a" />
            <stop offset="1" stop-color="#283140" />
        </linearGradient>
        <linearGradient id="未命名的渐变_13-2" x1="67.73" y1="114.27" x2="88.92" y2="114.27" xlink:href="#未命名的渐变_13" />
        <linearGradient id="未命名的渐变_140" x1="98.98" y1="11.47" x2="93.96" y2="2.77" gradientUnits="userSpaceOnUse">
            <stop offset="0" stop-color="#283140" />
            <stop offset="0.1" stop-color="#12161a" />
            <stop offset="0.75" stop-color="#7a98cc" />
            <stop offset="0.85" stop-color="#7a98cc" />
            <stop offset="1" stop-color="#38455a" />
        </linearGradient>
        <linearGradient id="未命名的渐变_78" x1="67.73" y1="112.14" x2="88.93" y2="112.14" gradientUnits="userSpaceOnUse">
            <stop offset="0" stop-color="#8ce2ff" />
            <stop offset="1" stop-color="#44b6ff" />
        </linearGradient>
        <linearGradient id="未命名的渐变_73" x1="67.73" y1="116.26" x2="88.93" y2="116.26" gradientUnits="userSpaceOnUse">
            <stop offset="0" stop-color="#0073e6" />
            <stop offset="0.15" stop-color="#59c8ff" />
            <stop offset="0.25" stop-color="#59c8ff" />
            <stop offset="0.85" stop-color="#1433cc" />
            <stop offset="1" stop-color="#0073e6" />
        </linearGradient>
        <linearGradient id="未命名的渐变_138" x1="67.85" y1="115" x2="77.24" y2="98.73" gradientUnits="userSpaceOnUse">
            <stop offset="0" stop-color="#3b77b3" />
            <stop offset="0.21" stop-color="#596b8c" />
            <stop offset="1" stop-color="#425266" />
        </linearGradient>
        <linearGradient id="未命名的渐变_297" x1="91.41" y1="113.53" x2="75.01" y2="85.12" gradientUnits="userSpaceOnUse">
            <stop offset="0" stop-color="#143080" />
            <stop offset="0.14" stop-color="#283140" />
            <stop offset="0.36" stop-color="#12161a" />
            <stop offset="0.5" stop-color="#14171b" />
            <stop offset="0.75" stop-color="#7a98cc" />
            <stop offset="0.94" stop-color="#7a98cc" />
            <stop offset="1" stop-color="#38455a" />
        </linearGradient>
        <linearGradient id="未命名的渐变_140-2" x1="56.08" y1="44.66" x2="50.04" y2="34.21" xlink:href="#未命名的渐变_140" />
        <linearGradient id="未命名的渐变_140-3" x1="58.85" y1="42.84" x2="52.37" y2="31.62" xlink:href="#未命名的渐变_140" />
        <linearGradient id="未命名的渐变_164" x1="64.57" y1="38.6" x2="58.45" y2="28" gradientUnits="userSpaceOnUse">
            <stop offset="0" stop-color="#0073e6" />
            <stop offset="0.15" stop-color="#1433cc" />
            <stop offset="0.7" stop-color="#59c8ff" />
            <stop offset="0.9" stop-color="#59c8ff" />
            <stop offset="1" stop-color="#2596f0" />
        </linearGradient>
        <linearGradient id="未命名的渐变_118" x1="45.8" y1="50.92" x2="37.09" y2="42.21" gradientUnits="userSpaceOnUse">
            <stop offset="0" stop-color="#2f77eb" />
            <stop offset="1" stop-color="#59c8ff" />
        </linearGradient>
        <linearGradient id="未命名的渐变_164-2" x1="47" y1="50.63" x2="40.7" y2="39.71" xlink:href="#未命名的渐变_164" />
        <linearGradient id="未命名的渐变_164-3" x1="77.31" y1="107.37" x2="67.55" y2="90.48" xlink:href="#未命名的渐变_164" />
        <linearGradient id="未命名的渐变_118-2" x1="75.88" y1="107.57" x2="62.39" y2="94.09" xlink:href="#未命名的渐变_118" />
        <linearGradient id="未命名的渐变_221" x1="72.97" y1="109.76" x2="34.54" y2="43.19" gradientUnits="userSpaceOnUse">
            <stop offset="0" stop-color="#283140" />
            <stop offset="0.07" stop-color="#12161a" />
            <stop offset="0.16" stop-color="#576c90" />
            <stop offset="0.87" stop-color="#38455a" />
            <stop offset="0.94" stop-color="#7a98cc" />
            <stop offset="1" stop-color="#7a98cc" />
        </linearGradient>
        <linearGradient id="未命名的渐变_155" x1="73.67" y1="106.12" x2="21.63" y2="54.08" gradientUnits="userSpaceOnUse">
            <stop offset="0" stop-color="#425266" />
            <stop offset="1" stop-color="#596b8c" />
        </linearGradient>
        <linearGradient id="未命名的渐变_118-3" x1="35.54" y1="56.56" x2="27.72" y2="48.73" xlink:href="#未命名的渐变_118" />
        <linearGradient id="未命名的渐变_164-4" x1="36.62" y1="56.3" x2="30.96" y2="46.5" xlink:href="#未命名的渐变_164" />
        <linearGradient id="未命名的渐变_164-5" x1="66.08" y1="112.32" x2="57.6" y2="97.62" xlink:href="#未命名的渐变_164" />
        <linearGradient id="未命名的渐变_143" x1="64.84" y1="112.5" x2="53.11" y2="100.76" xlink:href="#未命名的渐变_118" />
        <linearGradient id="未命名的渐变_118-4" x1="91.74" y1="15.33" x2="84.77" y2="8.36" xlink:href="#未命名的渐变_118" />
        <linearGradient id="未命名的渐变_164-6" x1="92.7" y1="15.1" x2="87.66" y2="6.37" xlink:href="#未命名的渐变_164" />
        <linearGradient id="未命名的渐变_164-7" x1="73.32" y1="34.17" x2="67.67" y2="24.38" xlink:href="#未命名的渐变_164" />
        <linearGradient id="未命名的渐变_159" x1="65.74" y1="39.18" x2="79.6" y2="15.18" gradientUnits="userSpaceOnUse">
            <stop offset="0" stop-color="#495a71" />
            <stop offset="0.22" stop-color="#283140" />
            <stop offset="0.49" stop-color="#232b37" />
            <stop offset="0.93" stop-color="#15191f" />
            <stop offset="1" stop-color="#12161a" />
        </linearGradient>
        <linearGradient id="未命名的渐变_140-4" x1="89.01" y1="17.55" x2="83.65" y2="8.26" xlink:href="#未命名的渐变_140" />
        <linearGradient id="未命名的渐变_155-2" x1="77.32" y1="29.21" x2="66.53" y2="18.42" xlink:href="#未命名的渐变_155" />
        <linearGradient id="未命名的渐变_118-5" x1="83.5" y1="19.58" x2="77.11" y2="13.19" xlink:href="#未命名的渐变_118" />
        <linearGradient id="未命名的渐变_164-8" x1="84.38" y1="19.37" x2="79.76" y2="11.36" xlink:href="#未命名的渐变_164" />
        <linearGradient id="未命名的渐变_235" x1="94.82" y1="13.76" x2="103.18" y2="6.23" gradientUnits="userSpaceOnUse">
            <stop offset="0" stop-color="#283140" />
            <stop offset="0.1" stop-color="#12161a" />
            <stop offset="0.42" stop-color="#7a98cc" />
            <stop offset="0.65" stop-color="#7a98cc" />
            <stop offset="1" stop-color="#38455a" />
        </linearGradient>
        <linearGradient id="未命名的渐变_249" x1="96.43" y1="15.55" x2="104.79" y2="8.02" gradientUnits="userSpaceOnUse">
            <stop offset="0" stop-color="#283140" />
            <stop offset="0.1" stop-color="#12161a" />
            <stop offset="0.38" stop-color="#7a98cc" />
            <stop offset="0.7" stop-color="#7a98cc" />
            <stop offset="1" stop-color="#38455a" />
        </linearGradient>
        <linearGradient id="未命名的渐变_255" x1="98.4" y1="17.72" x2="106.36" y2="9.77" gradientUnits="userSpaceOnUse">
            <stop offset="0" stop-color="#283140" />
            <stop offset="0.34" stop-color="#232b37" />
            <stop offset="0.9" stop-color="#15191f" />
            <stop offset="1" stop-color="#12161a" />
        </linearGradient>
        <linearGradient id="未命名的渐变_192" x1="99.85" y1="14.89" x2="107.25" y2="14.89" gradientUnits="userSpaceOnUse">
            <stop offset="0" stop-color="#0073e6" />
            <stop offset="1" stop-color="#143ccc" />
        </linearGradient>
        <linearGradient id="未命名的渐变_255-2" x1="103.04" y1="18.26" x2="109.83" y2="18.26" xlink:href="#未命名的渐变_255" />
        <linearGradient id="未命名的渐变_261" x1="104.26" y1="21.77" x2="110.15" y2="16.46" gradientUnits="userSpaceOnUse">
            <stop offset="0" stop-color="#0073e6" />
            <stop offset="0.15" stop-color="#1433cc" />
            <stop offset="0.38" stop-color="#59c8ff" />
            <stop offset="0.7" stop-color="#59c8ff" />
            <stop offset="1" stop-color="#2596f0" />
        </linearGradient>
        <linearGradient id="未命名的渐变_192-2" x1="105.83" y1="20.77" x2="111.32" y2="20.77" xlink:href="#未命名的渐变_192" />
        <linearGradient id="未命名的渐变_197" x1="101.35" y1="19.1" x2="107.88" y2="13.22" gradientUnits="userSpaceOnUse">
            <stop offset="0" stop-color="#283140" />
            <stop offset="0.1" stop-color="#12161a" />
            <stop offset="0.38" stop-color="#7a98cc" />
            <stop offset="0.7" stop-color="#7a98cc" />
            <stop offset="1" stop-color="#38455a" />
        </linearGradient>
        <linearGradient id="未命名的渐变_255-3" x1="108.37" y1="23.15" x2="112.85" y2="23.15" xlink:href="#未命名的渐变_255" />
        <linearGradient id="未命名的渐变_197-2" x1="109.57" y1="25.49" x2="113.04" y2="22.36" xlink:href="#未命名的渐变_197" />
        <linearGradient id="未命名的渐变_255-4" x1="110.72" y1="25.18" x2="113.96" y2="25.18" xlink:href="#未命名的渐变_255" />
        <linearGradient id="未命名的渐变_197-3" x1="107.18" y1="23.63" x2="111.5" y2="19.74" xlink:href="#未命名的渐变_197" />
        <linearGradient id="未命名的渐变_261-2" x1="99.18" y1="17.11" x2="106.24" y2="10.75" xlink:href="#未命名的渐变_261" />
        <linearGradient id="未命名的渐变_197-4" x1="111.76" y1="26.86" x2="114.03" y2="24.81" xlink:href="#未命名的渐变_197" />
        <linearGradient id="未命名的渐变_255-5" x1="112.53" y1="26.77" x2="114.88" y2="26.77" xlink:href="#未命名的渐变_255" />
        <linearGradient id="未命名的渐变_123" x1="113.66" y1="40.55" x2="121.12" y2="33.83" gradientUnits="userSpaceOnUse">
            <stop offset="0" stop-color="#283140" />
            <stop offset="0.68" stop-color="#12161a" />
            <stop offset="0.81" stop-color="#262f3c" />
            <stop offset="0.92" stop-color="#38455a" />
        </linearGradient>
        <linearGradient id="未命名的渐变_197-5" x1="119.09" y1="42.37" x2="120.64" y2="42.1" xlink:href="#未命名的渐变_197" />
    </defs>
    <g id="图层_2" data-name="图层 2">
        <g id="图层_2-2" data-name="图层 2">
            <g id="焊接机器人">
                <g class="cls-3">
                    <rect class="cls-4" width="150" height="150" />
                    <rect id="网格" class="cls-5" width="150" height="150" />
                </g>
                <g class="cls-6">
                    <path class="cls-7"
                        d="M91.34,131.83c-7.41,4.15-19.25,4-26.45-.27-3.54-2.12-5.3-4.85-5.3-7.58l0,15.13c0,2.73,1.75,5.47,5.29,7.58,7.2,4.31,19,4.43,26.45.27C95.06,144.85,97,142,97,139.22l0-15.13C97,126.9,95.1,129.71,91.34,131.83Z" />
                    <path class="cls-8"
                        d="M91.71,116.51h0c-7.2-4.3-19-4.41-26.43-.26s-7.57,11-.37,15.32,19,4.42,26.45.27l.44-.26C98.75,127.39,98.77,120.73,91.71,116.51ZM78.33,131.57a18.66,18.66,0,0,1-9.36-2.3c-5-3-4.89-7.76.26-10.65a20.26,20.26,0,0,1,18.4.18c5,3,4.89,7.76-.26,10.66a18.85,18.85,0,0,1-9,2.11Z" />
                    <path class="cls-9" d="M91.78,131.57H78.33V116.5H91.71C98.77,120.73,98.75,127.39,91.78,131.57Z" />
                    <path class="cls-10"
                        d="M87.38,126.27c-5.16,2.89-13.39,2.81-18.4-.18-2.46-1.48-3.69-3.38-3.68-5.27V124c0,1.89,1.22,3.8,3.68,5.27,5,3,13.24,3.07,18.4.18C90,128,91.3,126,91.31,124.07v-3.18C91.31,122.85,90,124.8,87.38,126.27Z" />
                    <path class="cls-11"
                        d="M91.3,120.45h0a5.07,5.07,0,0,0-.88-2.34v0a11.26,11.26,0,0,1-1-2,9.06,9.06,0,0,1-.55-2.21c0,.41.11.82.19,1.22-.08-.4-.15-.81-.19-1.22.17,1.71-.9,3.46-3.19,4.74-4.2,2.36-10.9,2.29-15-.15-2.16-1.29-3.15-3-3-4.65a10.49,10.49,0,0,1-1.54,4.18v0a5,5,0,0,0-.9,2.33c-.21,2,1,4.13,3.66,5.72,5,3,13.24,3.07,18.4.18C90.19,124.69,91.5,122.55,91.3,120.45Z" />
                    <path class="cls-12"
                        d="M85.92,110c-4.08-2.44-10.78-2.51-15-.15s-4.29,6.24-.21,8.67,10.78,2.51,15,.15S90,112.45,85.92,110Z" />
                </g>
                <g class="cls-6">
                    <path class="cls-13"
                        d="M100.87.49A2.48,2.48,0,0,0,98.35.24L87.07,6.8A2.48,2.48,0,0,1,89.59,7a7.8,7.8,0,0,1,3.54,6.13,2.47,2.47,0,0,1-1,2.27l11.28-6.56a2.46,2.46,0,0,0,1-2.27A7.78,7.78,0,0,0,100.87.49Z" />
                    <path class="cls-14"
                        d="M89.59,7c-2-1.13-3.55-.22-3.55,2a7.77,7.77,0,0,0,3.53,6.12c2,1.13,3.56.23,3.56-2A7.8,7.8,0,0,0,89.59,7Z" />
                </g>
                <path class="cls-15"
                    d="M88.93,112.16c0,1.57-1,3.13-3.08,4.33a16.49,16.49,0,0,1-15,0c-2.08-1.2-3.12-2.78-3.12-4.36s1-3.12,3.07-4.32a16.52,16.52,0,0,1,15,0C87.88,109,88.93,110.59,88.93,112.16Z" />
                <path class="cls-16"
                    d="M88.93,112.16v2.12c0,1.57-1,3.14-3.08,4.33a16.49,16.49,0,0,1-15,0c-2.08-1.2-3.12-2.78-3.12-4.36v-2.12c0,1.58,1,3.16,3.12,4.36a16.49,16.49,0,0,0,15,0C87.9,115.29,88.93,113.73,88.93,112.16Z" />
                <path class="cls-17"
                    d="M78.31,104.17v14.36h-.47a17.28,17.28,0,0,1-3.69-.51,12.33,12.33,0,0,1-3.3-1.29c-2.08-1.2-3.12-2.79-3.12-4.36V93.57l6.1,3.2a8.31,8.31,0,0,1,4,4.64A8.21,8.21,0,0,1,78.31,104.17Z" />
                <path class="cls-18"
                    d="M94,92.82a11.45,11.45,0,0,0-5.2-9c-2.69-2.44-14.6,1.75-18,3.73-2,1.19-3.07,2.76-3.07,4.32v1.7l6.1,3.2a8.31,8.31,0,0,1,4,4.64,8.21,8.21,0,0,1,.47,2.76v14.36a15.14,15.14,0,0,0,7.53-1.79,6.59,6.59,0,0,0,2.61-2.51,3.84,3.84,0,0,0,.48-1.82v-9.49a7.17,7.17,0,0,1,1.85-4.82l1.82-2h0A3.73,3.73,0,0,0,94,92.82Z" />
                <g class="cls-6">
                    <path class="cls-19"
                        d="M59.55,30.77a3,3,0,0,0-3-.3L40.57,39.74a3,3,0,0,1,3,.29,9.35,9.35,0,0,1,4.25,7.36,3,3,0,0,1-1.24,2.74l15.94-9.27a3,3,0,0,0,1.25-2.73A9.41,9.41,0,0,0,59.55,30.77Z" />
                    <path class="cls-14"
                        d="M43.6,40c-2.35-1.35-4.26-.26-4.27,2.44a9.36,9.36,0,0,0,4.24,7.36c2.36,1.36,4.28.27,4.28-2.44A9.35,9.35,0,0,0,43.6,40Z" />
                </g>
                <g class="cls-6">
                    <path class="cls-20"
                        d="M65.87,37.68c-2.41,1.33-5.73.1-7.42-2.75s-1.16-5.92,1-7.37L48.94,34.72c-2.13,1.45-2.58,4.66-1,7.37s5,4.08,7.42,2.75l.33-.21L66.2,37.47Z" />
                    <path class="cls-21"
                        d="M67.16,30.1c-1.69-2.85-5-4.08-7.42-2.75s-3,4.73-1.29,7.58,5,4.08,7.42,2.75S68.85,33,67.16,30.1Z" />
                </g>
                <g class="cls-6">
                    <path class="cls-22"
                        d="M68.52,29.29c-1.71-2.88-5.07-4.13-7.5-2.78s-3,4.78-1.31,7.66,5.06,4.13,7.5,2.78S70.23,32.17,68.52,29.29Z" />
                    <path class="cls-23"
                        d="M67.21,37c-2.44,1.35-5.79.11-7.5-2.78s-1.18-6,1-7.45l-1.25.85c-2.15,1.47-2.6,4.71-1,7.45s5.06,4.13,7.5,2.78a2.3,2.3,0,0,0,.33-.21l1.25-.85Z" />
                </g>
                <g class="cls-6">
                    <path class="cls-24"
                        d="M41.46,41.43C39,40,37,41.15,37,44a9.81,9.81,0,0,0,4.45,7.72c2.47,1.43,4.48.28,4.49-2.56A9.83,9.83,0,0,0,41.46,41.43Z" />
                    <path class="cls-25"
                        d="M43.13,40.46A3.15,3.15,0,0,0,40,40.15l-1.67,1a3.15,3.15,0,0,1,3.18.31,9.83,9.83,0,0,1,4.46,7.71A3.15,3.15,0,0,1,44.61,52l1.67-1a3.1,3.1,0,0,0,1.3-2.86A9.84,9.84,0,0,0,43.13,40.46Z" />
                </g>
                <g class="cls-6">
                    <path class="cls-26"
                        d="M70.87,91.88C69,90.77,67.21,90.67,66,91.4l-1.72,1c1.26-.73,3-.63,4.92.48a15.18,15.18,0,0,1,6.89,12c0,2.17-.77,3.71-2,4.43l1.71-1c1.25-.72,2-2.25,2-4.43A15.19,15.19,0,0,0,70.87,91.88Z" />
                    <path class="cls-27"
                        d="M69.16,92.88c-3.82-2.2-6.93-.43-6.94,4a15.2,15.2,0,0,0,6.89,11.94c3.82,2.2,6.93.43,6.94-4A15.18,15.18,0,0,0,69.16,92.88Z" />
                </g>
                <path class="cls-28"
                    d="M74.37,98.45c-3.54-7-7.55-11.08-17.24-29C48.38,53.35,47.64,50.12,45.45,45.8c-1.76-3.47-4.91-5.6-7-4.74l-8,4.51c2.13-.86,5.28,1.26,7,4.73,2.19,4.33,2.93,7.55,11.68,23.7,9.69,17.88,13.7,22,17.24,29,2.35,4.64,2.08,9.33-.53,10.8l8-4.51C76.45,107.78,76.72,103.09,74.37,98.45Z" />
                <path class="cls-29"
                    d="M66.38,103c-3.54-7-7.55-11.08-17.24-29-8.75-16.15-9.49-19.37-11.68-23.7-1.76-3.47-4.91-5.59-7-4.73s-2.43,4.37-.67,7.85c.47,1.07,7.47,16.76,10.86,23.89,3.84,8.13,14.36,28.8,15,30,2.47,4.87,6.88,7.84,9.86,6.64S68.84,107.82,66.38,103Z" />
                <g class="cls-6">
                    <path class="cls-30"
                        d="M31.64,48c-2.21-1.28-4-.26-4,2.29a8.8,8.8,0,0,0,4,6.93c2.21,1.28,4,.25,4-2.3A8.78,8.78,0,0,0,31.64,48Z" />
                    <path class="cls-31"
                        d="M33.14,47.17a2.81,2.81,0,0,0-2.86-.28l-1.49.87a2.79,2.79,0,0,1,2.85.28,8.78,8.78,0,0,1,4,6.92,2.81,2.81,0,0,1-1.17,2.58l1.5-.87a2.83,2.83,0,0,0,1.17-2.58A8.85,8.85,0,0,0,33.14,47.17Z" />
                </g>
                <g class="cls-6">
                    <path class="cls-32"
                        d="M60.49,98.84c-1.68-1-3.19-1-4.28-.42l-1.5.87c1.1-.63,2.61-.54,4.28.42a13.21,13.21,0,0,1,6,10.4c0,1.89-.67,3.23-1.75,3.85l1.49-.87c1.08-.62,1.75-2,1.76-3.85A13.25,13.25,0,0,0,60.49,98.84Z" />
                    <path class="cls-33"
                        d="M59,99.71c-3.32-1.92-6-.38-6,3.45a13.22,13.22,0,0,0,6,10.38c3.33,1.92,6,.38,6-3.43A13.21,13.21,0,0,0,59,99.71Z" />
                </g>
                <g class="cls-6">
                    <path class="cls-34"
                        d="M88.27,7.74c-2-1.14-3.58-.22-3.59,2A7.88,7.88,0,0,0,88.25,16c2,1.14,3.58.22,3.58-2.05A7.85,7.85,0,0,0,88.27,7.74Z" />
                    <path class="cls-35"
                        d="M89.6,7a2.5,2.5,0,0,0-2.54-.25l-1.33.77a2.52,2.52,0,0,1,2.54.25,7.85,7.85,0,0,1,3.56,6.17,2.52,2.52,0,0,1-1,2.3l1.33-.78a2.49,2.49,0,0,0,1-2.29A7.82,7.82,0,0,0,89.6,7Z" />
                </g>
                <path class="cls-21"
                    d="M77.14,26c-1.7-2.85-5-4.08-7.42-2.75s-3,4.73-1.3,7.58,5,4.08,7.42,2.75S78.83,28.84,77.14,26Z" />
                <g class="cls-6">
                    <path class="cls-22"
                        d="M76.65,25.79c-1.59-2.68-4.71-3.83-7-2.58s-2.81,4.44-1.22,7.11,4.71,3.84,7,2.58S78.24,28.47,76.65,25.79Z" />
                    <path class="cls-36"
                        d="M75.44,32.9c-2.26,1.26-5.38.1-7-2.58s-1.09-5.55.9-6.92l-.46.31c-2,1.36-2.41,4.37-.9,6.92s4.7,3.84,7,2.58a3.37,3.37,0,0,0,.32-.19l.46-.31Z" />
                </g>
                <g class="cls-6">
                    <path class="cls-37"
                        d="M60,34.82c1.91,3.42,7.19,4.49,9.23,3.36l.32-.2,6.66-4.62-.34.21a5.07,5.07,0,0,1-4.45,0c-.44-.24-1.11-1.07-.07-2.48,2.48-3.37,3.9-3.89,10.8-9.45a40.28,40.28,0,0,1,3.7-2.86,42.83,42.83,0,0,0-12.53,5.41C66.84,28.39,60.7,35.14,60,34.82Z" />
                    <path class="cls-14"
                        d="M76.12,11.8l-6,4.45C72.56,14.77,79,11,79.35,10.88l5.9-3.52C84.9,7.51,78.6,10.32,76.12,11.8Z" />
                    <path class="cls-38"
                        d="M90.62,9.91c-1.53-2.35-3.81-3.5-5.2-2.66l-5.9,3.51c1.39-.83,3.67.32,5.2,2.67s1.76,5.28.39,6.31a5.65,5.65,0,0,1-.62.42l5.9-3.52a7.36,7.36,0,0,0,.62-.41C92.38,15.19,92.21,12.36,90.62,9.91Z" />
                    <path class="cls-39"
                        d="M84.72,13.43c-1.59-2.45-4-3.59-5.37-2.55-.35.15-7,3.76-9.27,5.37C66.87,18.56,61.4,22.77,59.6,26c-1.33,2.39-1,5.43-.19,7.73C61.5,39.46,68,38.56,68,38.56A2.66,2.66,0,0,1,66.6,35c.59-1.63,1.84-4,8.86-10,4.91-4.23,7.41-3.54,9.65-5.24C86.48,18.71,86.31,15.88,84.72,13.43Z" />
                </g>
                <g class="cls-6">
                    <path class="cls-40"
                        d="M80.32,12.62c-1.81-1-3.28-.21-3.29,1.87a7.19,7.19,0,0,0,3.27,5.66c1.81,1.05,3.28.21,3.29-1.87A7.23,7.23,0,0,0,80.32,12.62Z" />
                    <path class="cls-41"
                        d="M81.54,11.91a2.34,2.34,0,0,0-2.33-.23L78,12.39a2.31,2.31,0,0,1,2.33.23,7.23,7.23,0,0,1,3.27,5.66,2.31,2.31,0,0,1-1,2.1l1.22-.71a2.31,2.31,0,0,0,1-2.1A7.23,7.23,0,0,0,81.54,11.91Z" />
                </g>
                <g class="cls-6">
                    <path class="cls-42"
                        d="M104,7.19l-2.69-1.72h0a.35.35,0,0,0-.14-.06h-.06l-.12,0h-.31l-.15,0-.11,0-.17,0-.12,0-.19.08-.13,0-.23.11-.11.06-.37.2a13.31,13.31,0,0,0-4.7,4.73,2,2,0,0,0-.13.32.24.24,0,0,0,0,.08,1.94,1.94,0,0,0,0,.2s0,0,0,.07a1.62,1.62,0,0,0,0,.21h0a.78.78,0,0,0,0,.18v0l1.44,2.85c.27.53,1.29.39,2.79-.49A15.66,15.66,0,0,0,104,8.67C104.38,7.9,104.35,7.4,104,7.19Z" />
                    <path class="cls-43"
                        d="M104.13,7.28c-.35-.39-1.33-.21-2.71.6a15.66,15.66,0,0,0-5.53,5.56c-.31.68-.33,1.14-.11,1.39l2.42,2.69c-.22-.24-.2-.71.11-1.38a15.68,15.68,0,0,1,5.53-5.57c1.39-.81,2.36-1,2.72-.6Z" />
                    <path class="cls-44"
                        d="M103.84,10.57a15.68,15.68,0,0,0-5.53,5.57c-.81,1.75.36,2.1,2.6.78a15.69,15.69,0,0,0,5.54-5.56C107.26,9.61,106.09,9.25,103.84,10.57Z" />
                </g>
                <g class="cls-6">
                    <path class="cls-45"
                        d="M105,12.23a14.11,14.11,0,0,0-4.86,4.51c-.8,1.47.08,1.82,2,.8A14,14,0,0,0,107,13C107.75,11.57,106.88,11.21,105,12.23Zm1.67.95a12.78,12.78,0,0,1-4.45,4.14c-1.73.94-2.53.61-1.8-.73a12.82,12.82,0,0,1,4.46-4.14C106.6,11.51,107.41,11.84,106.67,13.18Z" />
                    <path class="cls-46"
                        d="M107.76,15.83A12.78,12.78,0,0,0,103.31,20c-.74,1.34.07,1.67,1.79.73a12.82,12.82,0,0,0,4.46-4.14C110.29,15.22,109.49,14.89,107.76,15.83Zm1.53.88a11.77,11.77,0,0,1-4.07,3.78c-1.58.86-2.31.56-1.64-.67A11.68,11.68,0,0,1,107.65,16C109.22,15.18,110,15.48,109.29,16.71Z" />
                    <path class="cls-47"
                        d="M109.47,15.72c-.19-.3-.84-.21-1.82.32a11.68,11.68,0,0,0-4.07,3.78c-.29.53-.32.88-.13,1.05l2.48,2.2c-.16-.14-.14-.46.12-.93a10.35,10.35,0,0,1,3.6-3.34c.86-.47,1.44-.55,1.61-.28Z" />
                    <path class="cls-48"
                        d="M109.65,18.8a10.35,10.35,0,0,0-3.6,3.34c-.59,1.09.06,1.35,1.45.59a10.34,10.34,0,0,0,3.6-3.34C111.69,18.31,111,18,109.65,18.8Zm1,.85a8.66,8.66,0,0,1-2.94,2.73c-1.14.62-1.67.4-1.19-.49a8.57,8.57,0,0,1,2.94-2.73C110.59,18.54,111.12,18.76,110.64,19.65Z" />
                    <path class="cls-49"
                        d="M106.85,12.07c-.25-.29-.95-.18-2,.38a12.82,12.82,0,0,0-4.46,4.14c-.29.54-.34.92-.17,1.11l2.88,3.38c-.16-.19-.12-.57.18-1.11a12.78,12.78,0,0,1,4.45-4.14c1-.56,1.73-.67,2-.38Z" />
                    <path class="cls-50"
                        d="M111.49,21.55a8.39,8.39,0,0,0-2.94,2.73c-.49.88,0,1.1,1.18.48A8.39,8.39,0,0,0,112.67,22C113.16,21.14,112.63,20.92,111.49,21.55Zm.8.69a6.82,6.82,0,0,1-2.4,2.22c-.93.51-1.36.33-1-.39a6.94,6.94,0,0,1,2.4-2.23C112.25,21.34,112.69,21.51,112.29,22.24Z" />
                    <path class="cls-51"
                        d="M112.4,21.65c-.12-.17-.5-.12-1.07.19a6.94,6.94,0,0,0-2.4,2.23c-.17.31-.19.51-.09.61l1.94,1.86c-.1-.09-.08-.27.07-.55A6.1,6.1,0,0,1,113,24c.5-.28.84-.32,1-.17Z" />
                    <path class="cls-52"
                        d="M113,24a6.1,6.1,0,0,0-2.13,2c-.35.65,0,.8.86.35a6.15,6.15,0,0,0,2.12-2C114.18,23.73,113.8,23.57,113,24Zm.44.57A4.28,4.28,0,0,1,111.88,26c-.6.33-.87.22-.62-.25a4.46,4.46,0,0,1,1.54-1.43C113.4,24,113.68,24.13,113.42,24.59Z" />
                    <path class="cls-53"
                        d="M110.75,18.91c-.16-.19-.62-.12-1.3.25a8.57,8.57,0,0,0-2.94,2.73c-.2.36-.23.61-.12.74l2,2.38c-.11-.12-.08-.37.12-.73a8.39,8.39,0,0,1,2.94-2.73c.68-.37,1.14-.45,1.3-.26Z" />
                    <path class="cls-54"
                        d="M106.29,10.81c-.27-.31-1-.19-2.15.42a13.89,13.89,0,0,0-4.85,4.51c-.33.59-.38,1-.2,1.21l.86,1c-.18-.21-.13-.63.19-1.22A14.11,14.11,0,0,1,105,12.23c1.12-.61,1.88-.73,2.14-.42Z" />
                    <path class="cls-55"
                        d="M113.48,24.21c-.08-.1-.32-.07-.68.13a4.46,4.46,0,0,0-1.54,1.43q-.15.29-.06.39l1.36,1.59q-.09-.11.06-.39a4.65,4.65,0,0,1,1.54-1.43c.36-.19.6-.23.68-.13Z" />
                    <path class="cls-56"
                        d="M114.16,25.93a4.65,4.65,0,0,0-1.54,1.43c-.25.47,0,.58.62.26a4.39,4.39,0,0,0,1.54-1.44C115,25.72,114.76,25.61,114.16,25.93Z" />
                </g>
                <path class="cls-57"
                    d="M119.14,33.45a6.77,6.77,0,0,0-1.49-3.22l-3.26-3.88h0c0-.07-.16-.06-.35,0a2.4,2.4,0,0,0-.78.73c-.07.13-.06.2,0,.22l3.24,3.85a5.28,5.28,0,0,1,1.16,2.5L120,47.62l1.48-.25Z" />
                <path class="cls-58" d="M120,47.62,118.27,37.3c.14-.27,1.28-.5,1.48-.25l1.75,10.32Z" />
              
            </g>
        </g>
    </g>
</svg>