<svg xmlns="http://www.w3.org/2000/svg" xmlns:xlink="http://www.w3.org/1999/xlink" viewBox="0 0 150 150">
    <defs>
        <style>
            .cls-1,
            .cls-2 {
                fill: none;
            }

            .cls-2 {
                stroke: #fff;
                stroke-miterlimit: 10;
                stroke-width: 0.1px;
            }

            .cls-3 {
                opacity: 0;
            }

            .cls-4 {
                fill: #000714;
            }

            .cls-5 {
                opacity: 0.1;
                fill: url(#新建图案);
            }

            .cls-6 {
                isolation: isolate;
            }

            .cls-7 {
                fill: #546d98;
            }

            .cls-8 {
                fill: #3d4d66;
            }

            .cls-9 {
                fill: #171d23;
            }

            .cls-10 {
                fill: url(#未命名的渐变_1560);
            }

            .cls-11 {
                fill: url(#未命名的渐变_1579);
            }

            .cls-12 {
                fill: url(#未命名的渐变_1336);
            }

            .cls-13 {
                fill: url(#未命名的渐变_1586);
            }

            .cls-14 {
                fill: url(#未命名的渐变_1855);
            }

            .cls-15 {
                fill: url(#未命名的渐变_1855-2);
            }

            .cls-16 {
                opacity: 0.2;
            }
        </style>
        <pattern id="新建图案" data-name="新建图案" width="18.57" height="32.16" patternTransform="translate(2182.62 1096.07)"
            patternUnits="userSpaceOnUse" viewBox="0 0 18.57 32.16">
            <rect class="cls-1" width="18.57" height="32.16" />
            <polyline class="cls-2" points="18.57 21.44 18.57 32.16 18.57 42.88" />
            <polyline class="cls-2" points="9.29 26.8 18.57 32.16 27.85 37.51 27.85 37.52" />
            <polyline class="cls-2" points="9.29 37.52 9.29 37.51 18.57 32.16 27.85 26.8" />
            <polygon class="cls-2"
                points="27.85 37.52 27.85 26.8 18.57 21.44 9.28 26.8 9.28 37.52 18.57 42.88 27.85 37.52" />
            <polyline class="cls-2" points="0 21.44 0 32.16 0 42.88" />
            <polyline class="cls-2" points="-9.28 26.8 0 32.16 9.28 37.51 9.28 37.52" />
            <polyline class="cls-2" points="-9.28 37.52 -9.28 37.51 0 32.16 9.28 26.8" />
            <polygon class="cls-2" points="9.28 37.52 9.28 26.8 0 21.44 -9.29 26.8 -9.29 37.52 0 42.88 9.28 37.52" />
            <polyline class="cls-2" points="18.57 10.72 27.85 16.08 37.13 21.43 37.13 21.44" />
            <polyline class="cls-2" points="18.57 21.44 18.57 21.43 27.85 16.08 37.13 10.72" />
            <polygon class="cls-2"
                points="37.14 21.44 37.14 10.72 27.85 5.36 18.57 10.72 18.57 21.44 27.85 26.8 37.14 21.44" />
            <polyline class="cls-2" points="9.29 5.36 9.29 16.08 9.29 26.8" />
            <polyline class="cls-2" points="0.01 10.72 9.29 16.08 18.57 21.43 18.57 21.44" />
            <polyline class="cls-2" points="0.01 21.44 0.01 21.43 9.29 16.08 18.57 10.72" />
            <polygon class="cls-2" points="18.57 21.44 18.57 10.72 9.28 5.36 0 10.72 0 21.44 9.28 26.8 18.57 21.44" />
            <polyline class="cls-2" points="-18.56 10.72 -9.28 16.08 0 21.43 0 21.44" />
            <polyline class="cls-2" points="-18.56 21.44 -18.56 21.43 -9.28 16.08 0 10.72" />
            <polygon class="cls-2" points="0 21.44 0 10.72 -9.29 5.36 -18.57 10.72 -18.57 21.44 -9.29 26.8 0 21.44" />
            <polyline class="cls-2" points="18.57 -10.72 18.57 0 18.57 10.72" />
            <polyline class="cls-2" points="9.29 -5.36 18.57 0 27.85 5.35 27.85 5.36" />
            <polyline class="cls-2" points="9.29 5.36 9.29 5.35 18.57 0 27.85 -5.36" />
            <polygon class="cls-2"
                points="27.85 5.36 27.85 -5.36 18.57 -10.72 9.28 -5.36 9.28 5.36 18.57 10.72 27.85 5.36" />
            <polyline class="cls-2" points="0 -10.72 0 0 0 10.72" />
            <polyline class="cls-2" points="-9.28 -5.36 0 0 9.28 5.35 9.28 5.36" />
            <polyline class="cls-2" points="-9.28 5.36 -9.28 5.35 0 0 9.28 -5.36" />
            <polygon class="cls-2" points="9.28 5.36 9.28 -5.36 0 -10.72 -9.29 -5.36 -9.29 5.36 0 10.72 9.28 5.36" />
        </pattern>
        <linearGradient id="未命名的渐变_1560" x1="44.7" y1="132.39" x2="106.52" y2="25.31" gradientUnits="userSpaceOnUse">
            <stop offset="0" stop-color="#0e82f4" />
            <stop offset="0.15" stop-color="#1cc6ff" />
            <stop offset="0.42" stop-color="#19d9ff" />
            <stop offset="0.61" stop-color="#19d9ff" />
            <stop offset="0.71" stop-color="#14b1ff" />
            <stop offset="1" stop-color="#0ea1ff" />
        </linearGradient>
        <linearGradient id="未命名的渐变_1579" x1="44.7" y1="132.39" x2="106.52" y2="25.31" gradientUnits="userSpaceOnUse">
            <stop offset="0" stop-color="#4cfafe" />
            <stop offset="0.04" stop-color="#4cfafe" stop-opacity="0.6" />
            <stop offset="0.2" stop-color="#198cff" stop-opacity="0" />
        </linearGradient>
        <linearGradient id="未命名的渐变_1336" x1="45.97" y1="89.27" x2="150" y2="89.27" gradientUnits="userSpaceOnUse">
            <stop offset="0" stop-color="#88dfff" stop-opacity="0" />
            <stop offset="0.3" stop-color="#0073e6" />
            <stop offset="1" stop-color="#143ccc" />
        </linearGradient>
        <linearGradient id="未命名的渐变_1586" x1="102.58" y1="100.75" x2="85.25" y2="70.74" gradientUnits="userSpaceOnUse">
            <stop offset="0" stop-color="#4cfafe" />
            <stop offset="0.04" stop-color="#4cfafe" stop-opacity="0.6" />
            <stop offset="0.28" stop-color="#3ddafe" stop-opacity="0.42" />
            <stop offset="0.62" stop-color="#2ab0ff" stop-opacity="0.2" />
            <stop offset="0.87" stop-color="#1e96ff" stop-opacity="0.05" />
            <stop offset="1" stop-color="#198cff" stop-opacity="0" />
        </linearGradient>
        <linearGradient id="未命名的渐变_1855" x1="125.7" y1="81.83" x2="140.99" y2="66.53" gradientUnits="userSpaceOnUse">
            <stop offset="0" stop-color="#3d4c66" />
            <stop offset="1" stop-color="#263340" />
        </linearGradient>
        <linearGradient id="未命名的渐变_1855-2" x1="56.43" y1="121.55" x2="72.03" y2="105.95" xlink:href="#未命名的渐变_1855" />
    </defs>
    <title>车架2</title>
    <g id="图层_2" data-name="图层 2">
        <g id="图层_1-2" data-name="图层 1">
            <g id="车架2">
                <g class="cls-3">
                    <rect class="cls-4" width="150" height="150" />
                    <rect id="网格" class="cls-5" width="150" height="150" />
                </g>
                <g class="cls-6">
                    <polygon class="cls-7"
                        points="50.97 124.64 78.08 109.04 78.51 113.03 123.3 87.61 124.7 82.2 142.66 71.86 103.09 46.34 7.31 99.98 50.97 124.64" />
                    <polygon class="cls-8" points="80.11 56.63 80.1 60.79 124.05 86.17 124.06 82 80.11 56.63" />
                    <path class="cls-8"
                        d="M146.16,70.47a17.18,17.18,0,0,1-.67,4.68v0c-.08.3-.16.59-.26.9l0,0-12.43-7.23-4.21-2.44-13-7.56L98.88,49.22h0s-2.19-9.29-2.38-10.07C96,37.2,86.2,22.37,84.87,21.59l13.9,1.1,38.32,21.94,8.58,8.14-2.57,11C145,64.83,146.14,67.16,146.16,70.47Z" />
                    <polygon class="cls-7" points="140.26 73.27 140.26 59.12 129.11 70.88 140.26 73.27" />
                    <path class="cls-9"
                        d="M103.27,31.62a16,16,0,0,0-1.86-6.08v0a5.91,5.91,0,0,0-.84-1.1c-.54-.58-1.14-1.15-1.79-1.73A29.18,29.18,0,0,0,81,21.59c-12.65,3.56-27.1,12.09-34.34,19C41,46.09,26.58,64.9,26.58,64.9A48.42,48.42,0,0,1,22.47,69S7.37,78.76,3.79,81.35-.95,96,1.24,102.43a29.42,29.42,0,0,0,8.13-1.89,19.17,19.17,0,0,1,.47-5c1.11-5.34,4-12.61,9.82-16,3.14-1.82,6-1.86,7.88-.46,1.65,1.17,2.64,3.4,2.65,6.46A20.21,20.21,0,0,1,29.87,89a.18.18,0,0,0,0,0l0,0,3.68-2.12.06-.07,5.91-3.41,5.25-3L77.08,61.77h.07l1.45-.84A15.79,15.79,0,0,1,78.42,59a19.82,19.82,0,0,1,.46-5.39,22.67,22.67,0,0,1,6.59-11.38c4.3-4,8.38-4.81,11-3.13,1.77,1.13,2.86,3.41,2.87,6.62a14.12,14.12,0,0,1-.49,3.45v0l0,0,4.21-2.88s.32-2.36.47-5.58A50.81,50.81,0,0,0,103.27,31.62ZM58.72,69.14A2.16,2.16,0,0,1,57.66,71l-23,13.45A1.06,1.06,0,0,1,33,83.58c-.21-4.29-.6-12.3.37-17.07.7-3.47,7.59-18.61,13.92-23A31.31,31.31,0,0,1,53.79,40a3.48,3.48,0,0,1,4.93,3.17ZM82.55,42.53a26.51,26.51,0,0,0-6,16.07,2.15,2.15,0,0,1-1.1,1.85L62,68.09a1.07,1.07,0,0,1-1.61-.93V40.82a6.46,6.46,0,0,1,3.23-5.59L70,31.63a2.17,2.17,0,0,1,2.62.39,40.71,40.71,0,0,0,7.25,5.2C82.67,38.87,83.06,42,82.55,42.53Zm5.66-11.47-6.63,4.6a1.09,1.09,0,0,1-1.22,0l-5.68-3.91A1.08,1.08,0,0,1,75,29.83a21.66,21.66,0,0,1,6-1.06,40.94,40.94,0,0,1,6.75.34A1.08,1.08,0,0,1,88.21,31.06Z" />
                    <path class="cls-8"
                        d="M24.74,74.83l49.4,28.71c1.89,1.1,3.06,3.43,3.07,6.74a18.12,18.12,0,0,1-1,5.68L26.82,87.25a18.12,18.12,0,0,0,1-5.68C27.8,78.26,26.63,75.93,24.74,74.83Z" />
                    <polygon class="cls-7" points="71.1 112.92 71.1 98.77 59.95 110.54 71.1 112.92" />
                    <path class="cls-10"
                        d="M146.92,51.31C137.07,41,108.78,27.19,100,23.21c-.38-.17-.8-.35-1.25-.52A29.18,29.18,0,0,0,81,21.59c-12.65,3.56-27.1,12.09-34.34,19C41,46.09,29.46,60.56,29.46,60.56c-.86,1-3.95,6.61-8.08,9.1-6.07,3.66-14,9-17.59,11.69a4.08,4.08,0,0,0-.49.45c1.17,2.13,2.52,4.79,4,8.1,0,0-2.38.1-3.08-.37a24.14,24.14,0,0,1-3-3.43c-1.42,4.77-1.76,11.77.05,16.33a4.62,4.62,0,0,0,.24.57c5,9.74,29.24,20.93,38.29,24.82,7.45,3.2,13.13.44,16-.39a19.73,19.73,0,0,1,.47-5c.92-4.44,3.09-10.19,7.12-13.93a15.33,15.33,0,0,1,2.7-2c5.81-3.36,10.52-.66,10.53,6a18.47,18.47,0,0,1-.33,3.51l3.72-2.15.06-.07,43.44-25.08h.07l1.45-.84a36.65,36.65,0,0,1,.91-7.55,20.9,20.9,0,0,1,5.95-10.53c.31-.29.64-.57,1-.83,6.84-5.68,12.9-3.25,12.92,4.32a8.76,8.76,0,0,1-.2,1.92v0a6.35,6.35,0,0,1-.26.9.08.08,0,0,0,0,0l4.24-2.9S151.76,56.36,146.92,51.31ZM52.51,110.37a1.44,1.44,0,0,1-1.11.66c-2.81.41-11-.52-12.16-1-.76-.36-1.94-2.43-1.94-2.43,13.1-1.71,17.94-.47,17.94-.47C55.66,107.84,54.34,107.83,52.51,110.37ZM73,87.55c-6.1,1.37-26.28-9.63-26.41-9.71-.52-.33-9.83-6-12-8.31S32,65.17,33.05,62.32c.67-1.72,1.91-3.08,5.33-7.18,3.8-4.55,8-9.33,10.07-11.56a2.15,2.15,0,0,1,2.67-.41l7.6,4.42,1.64,1,16.16,9.39,1.9,1.1,9.65,5.61a2.15,2.15,0,0,1,.74,3C85.22,73.26,76.45,86.78,73,87.55ZM105.09,96A2.19,2.19,0,0,1,104,97.82L81,111.26a1.07,1.07,0,0,1-1.61-.87c-.21-4.28-.59-12.29.37-17.06.72-3.47,7.59-18.61,13.92-23a31.56,31.56,0,0,1,6.46-3.55A3.49,3.49,0,0,1,105.09,70Zm23.82-26.61a26.51,26.51,0,0,0-6,16.06,2.14,2.14,0,0,1-1.09,1.86l-13.44,7.65a1.07,1.07,0,0,1-1.6-.94V67.63A6.48,6.48,0,0,1,110,62l5.6-3.12.84-.46a2.14,2.14,0,0,1,2.61.38A39.64,39.64,0,0,0,126.28,64a5.91,5.91,0,0,1,2.28,2.45C129.21,67.76,129.23,69,128.91,69.34Zm5.67-11.47L128,62.46a1.07,1.07,0,0,1-1.23,0l-5.67-3.91a1.07,1.07,0,0,1,.27-1.9,21.38,21.38,0,0,1,6.05-1.07,42,42,0,0,1,6.75.35A1.07,1.07,0,0,1,134.58,57.87Zm-6.31-11.72L87.4,22.39l12,2,40.88,23.76Z" />
                    <path class="cls-11"
                        d="M146.92,51.31C137.07,41,108.78,27.19,100,23.21c-.38-.17-.8-.35-1.25-.52A29.18,29.18,0,0,0,81,21.59c-12.65,3.56-27.1,12.09-34.34,19C41,46.09,29.46,60.56,29.46,60.56c-.86,1-3.95,6.61-8.08,9.1-6.07,3.66-14,9-17.59,11.69a4.08,4.08,0,0,0-.49.45c1.17,2.13,2.52,4.79,4,8.1,0,0-2.38.1-3.08-.37a24.14,24.14,0,0,1-3-3.43c-1.42,4.77-1.76,11.77.05,16.33a4.62,4.62,0,0,0,.24.57c5,9.74,29.24,20.93,38.29,24.82,7.45,3.2,13.13.44,16-.39a19.73,19.73,0,0,1,.47-5c.92-4.44,3.09-10.19,7.12-13.93a15.33,15.33,0,0,1,2.7-2c5.81-3.36,10.52-.66,10.53,6a18.47,18.47,0,0,1-.33,3.51l3.72-2.15.06-.07,43.44-25.08h.07l1.45-.84a36.65,36.65,0,0,1,.91-7.55,20.9,20.9,0,0,1,5.95-10.53c.31-.29.64-.57,1-.83,6.84-5.68,12.9-3.25,12.92,4.32a8.76,8.76,0,0,1-.2,1.92v0a6.35,6.35,0,0,1-.26.9.08.08,0,0,0,0,0l4.24-2.9S151.76,56.36,146.92,51.31ZM52.51,110.37a1.44,1.44,0,0,1-1.11.66c-2.81.41-11-.52-12.16-1-.76-.36-1.94-2.43-1.94-2.43,13.1-1.71,17.94-.47,17.94-.47C55.66,107.84,54.34,107.83,52.51,110.37ZM73,87.55c-6.1,1.37-26.28-9.63-26.41-9.71-.52-.33-9.83-6-12-8.31S32,65.17,33.05,62.32c.67-1.72,1.91-3.08,5.33-7.18,3.8-4.55,8-9.33,10.07-11.56a2.15,2.15,0,0,1,2.67-.41l7.6,4.42,1.64,1,16.16,9.39,1.9,1.1,9.65,5.61a2.15,2.15,0,0,1,.74,3C85.22,73.26,76.45,86.78,73,87.55ZM105.09,96A2.19,2.19,0,0,1,104,97.82L81,111.26a1.07,1.07,0,0,1-1.61-.87c-.21-4.28-.59-12.29.37-17.06.72-3.47,7.59-18.61,13.92-23a31.56,31.56,0,0,1,6.46-3.55A3.49,3.49,0,0,1,105.09,70Zm23.82-26.61a26.51,26.51,0,0,0-6,16.06,2.14,2.14,0,0,1-1.09,1.86l-13.44,7.65a1.07,1.07,0,0,1-1.6-.94V67.63A6.48,6.48,0,0,1,110,62l5.6-3.12.84-.46a2.14,2.14,0,0,1,2.61.38A39.64,39.64,0,0,0,126.28,64a5.91,5.91,0,0,1,2.28,2.45C129.21,67.76,129.23,69,128.91,69.34Zm5.67-11.47L128,62.46a1.07,1.07,0,0,1-1.23,0l-5.67-3.91a1.07,1.07,0,0,1,.27-1.9,21.38,21.38,0,0,1,6.05-1.07,42,42,0,0,1,6.75.35A1.07,1.07,0,0,1,134.58,57.87Zm-6.31-11.72L87.4,22.39l12,2,40.88,23.76Z" />
                    <path class="cls-12"
                        d="M63.32,108.47a15.33,15.33,0,0,1,2.7-2c5.81-3.36,10.52-.66,10.53,6a18.47,18.47,0,0,1-.33,3.51l3.72-2.15.06-.07,43.44-25.08h.07l1.45-.84a36.65,36.65,0,0,1,.91-7.55,20.9,20.9,0,0,1,5.95-10.53c.31-.29.64-.57,1-.83,6.84-5.68,12.9-3.25,12.92,4.32a8.76,8.76,0,0,1-.2,1.92v0a6.35,6.35,0,0,1-.26.9.08.08,0,0,0,0,0l4.24-2.9s2.19-16-2.18-21.51a33.58,33.58,0,0,0-7-1.92c-4.05-.6-9.23-.93-12.46,0-7.22,2.07-31.32,13.88-34.45,16.39C87.91,70.57,80.56,86,75,91.46c-3.62,3.58-17.15,11-17.15,11a14.94,14.94,0,0,0-4.74,4.37,14.3,14.3,0,0,1,2.13.29c.42.75-.9.74-2.73,3.28a1.44,1.44,0,0,1-1.11.66c-.27,0-.6.06-.95.08C48.4,115.19,46.57,121,46,129.3c4.4.23,7.78-1.29,9.76-1.87a19.73,19.73,0,0,1,.47-5C57.12,118,59.29,112.21,63.32,108.47Zm58-51.82a21.38,21.38,0,0,1,6.05-1.07,42,42,0,0,1,6.75.35,1.07,1.07,0,0,1,.46,1.94L128,62.46a1.07,1.07,0,0,1-1.23,0l-5.67-3.91A1.07,1.07,0,0,1,121.32,56.65Zm-14.59,11A6.48,6.48,0,0,1,110,62l5.6-3.12.84-.46a2.14,2.14,0,0,1,2.61.38A39.64,39.64,0,0,0,126.28,64a5.91,5.91,0,0,1,2.28,2.45c.65,1.29.67,2.53.35,2.87a26.51,26.51,0,0,0-6,16.06,2.14,2.14,0,0,1-1.09,1.86l-13.44,7.65a1.07,1.07,0,0,1-1.6-.94Zm-27,25.7c.72-3.47,7.59-18.61,13.92-23a31.56,31.56,0,0,1,6.46-3.55A3.49,3.49,0,0,1,105.09,70V96A2.19,2.19,0,0,1,104,97.82L81,111.26a1.07,1.07,0,0,1-1.61-.87C79.19,106.11,78.81,98.1,79.77,93.33Z" />
                    <path class="cls-13"
                        d="M63.32,108.47a15.33,15.33,0,0,1,2.7-2c5.81-3.36,10.52-.66,10.53,6a18.47,18.47,0,0,1-.33,3.51l3.72-2.15.06-.07,43.44-25.08h.07l1.45-.84a36.65,36.65,0,0,1,.91-7.55,20.9,20.9,0,0,1,5.95-10.53c.31-.29.64-.57,1-.83,6.84-5.68,12.9-3.25,12.92,4.32a8.76,8.76,0,0,1-.2,1.92v0a6.35,6.35,0,0,1-.26.9.08.08,0,0,0,0,0l4.24-2.9s2.19-16-2.18-21.51a33.58,33.58,0,0,0-7-1.92c-4.05-.6-9.23-.93-12.46,0-7.22,2.07-31.32,13.88-34.45,16.39C87.91,70.57,80.56,86,75,91.46c-3.62,3.58-17.15,11-17.15,11a14.94,14.94,0,0,0-4.74,4.37,14.3,14.3,0,0,1,2.13.29c.42.75-.9.74-2.73,3.28a1.44,1.44,0,0,1-1.11.66c-.27,0-.6.06-.95.08C48.4,115.19,46.57,121,46,129.3c4.4.23,7.78-1.29,9.76-1.87a19.73,19.73,0,0,1,.47-5C57.12,118,59.29,112.21,63.32,108.47Zm58-51.82a21.38,21.38,0,0,1,6.05-1.07,42,42,0,0,1,6.75.35,1.07,1.07,0,0,1,.46,1.94L128,62.46a1.07,1.07,0,0,1-1.23,0l-5.67-3.91A1.07,1.07,0,0,1,121.32,56.65Zm-14.59,11A6.48,6.48,0,0,1,110,62l5.6-3.12.84-.46a2.14,2.14,0,0,1,2.61.38A39.64,39.64,0,0,0,126.28,64a5.91,5.91,0,0,1,2.28,2.45c.65,1.29.67,2.53.35,2.87a26.51,26.51,0,0,0-6,16.06,2.14,2.14,0,0,1-1.09,1.86l-13.44,7.65a1.07,1.07,0,0,1-1.6-.94Zm-27,25.7c.72-3.47,7.59-18.61,13.92-23a31.56,31.56,0,0,1,6.46-3.55A3.49,3.49,0,0,1,105.09,70V96A2.19,2.19,0,0,1,104,97.82L81,111.26a1.07,1.07,0,0,1-1.61-.87C79.19,106.11,78.81,98.1,79.77,93.33Z" />
                    <path class="cls-14"
                        d="M140.26,65.8v7.44l0,0L125.57,81.7c.08-.47.18-1,.3-1.43a21.32,21.32,0,0,1,4.58-9.1,18.35,18.35,0,0,1,1.37-1.43c.31-.29.64-.57,1-.83a17,17,0,0,1,2.56-1.78A9.11,9.11,0,0,1,140.26,65.8Z" />
                    <path class="cls-15"
                        d="M71.16,113l-14.76,8.5a28.86,28.86,0,0,1,4.81-10.71,18.06,18.06,0,0,1,2.11-2.34,14.85,14.85,0,0,1,2.7-2A9.18,9.18,0,0,1,71.1,105v7.9l-.18,0Z" />
                </g>

            </g>
        </g>
    </g>
</svg>