<svg xmlns="http://www.w3.org/2000/svg" xmlns:xlink="http://www.w3.org/1999/xlink" viewBox="0 0 150 150">
    <defs>
        <style>
            .cls-1 {
                fill: url(#未命名的渐变_30);
            }

            .cls-2 {
                fill: url(#未命名的渐变_44);
            }

            .cls-3 {
                fill: #17334d;
            }

            .cls-4 {
                fill: #3275b3;
            }

            .cls-5 {
                fill: #16324d;
            }

            .cls-6 {
                stroke-miterlimit: 10;
                fill: url(#未命名的渐变_51);
                stroke: url(#未命名的渐变_47);
            }

            .cls-7 {
                fill: #fff;
            }

            .cls-8 {
                opacity: 0.2;
            }
        </style>
        <linearGradient id="未命名的渐变_30" y1="75" x2="150" y2="75" gradientUnits="userSpaceOnUse">
            <stop offset="0" stop-color="#1e4366" />
            <stop offset="1" stop-color="#245480" />
        </linearGradient>
        <linearGradient id="未命名的渐变_44" x1="75" y1="150" x2="75" gradientUnits="userSpaceOnUse">
            <stop offset="0" stop-color="#1e4366" />
            <stop offset="0.27" stop-color="#1f4669" />
            <stop offset="0.45" stop-color="#214f71" />
            <stop offset="0.61" stop-color="#255e7f" />
            <stop offset="0.75" stop-color="#2a7392" />
            <stop offset="0.87" stop-color="#318eac" />
            <stop offset="0.99" stop-color="#3aafca" />
            <stop offset="1" stop-color="#3ab1cc" />
        </linearGradient>
        <linearGradient id="未命名的渐变_51" x1="75" y1="133.55" x2="75" y2="16.45" gradientUnits="userSpaceOnUse">
            <stop offset="0" stop-color="#8b9299" />
            <stop offset="1" stop-color="#a5b9cc" />
        </linearGradient>
        <linearGradient id="未命名的渐变_47" x1="75" y1="134.05" x2="75" y2="15.95" gradientUnits="userSpaceOnUse">
            <stop offset="0" stop-color="#61676b" stop-opacity="0" />
            <stop offset="0.2" stop-color="#62686d" stop-opacity="0.01" />
            <stop offset="0.34" stop-color="#676d72" stop-opacity="0.05" />
            <stop offset="0.45" stop-color="#6e757a" stop-opacity="0.1" />
            <stop offset="0.56" stop-color="#798087" stop-opacity="0.19" />
            <stop offset="0.65" stop-color="#878e97" stop-opacity="0.3" />
            <stop offset="0.74" stop-color="#98a0aa" stop-opacity="0.43" />
            <stop offset="0.83" stop-color="#acb4c2" stop-opacity="0.59" />
            <stop offset="0.91" stop-color="#c3cddd" stop-opacity="0.77" />
            <stop offset="0.99" stop-color="#dde7fb" stop-opacity="0.97" />
            <stop offset="1" stop-color="#e1ebff" />
        </linearGradient>
    </defs>
    <title>3</title>
    <g id="图层_2" data-name="图层 2">
        <g id="单个电脑按键">
            <g id="_3" data-name="3">
                <path class="cls-1"
                    d="M150,14.09V135.91A14.1,14.1,0,0,1,135.91,150H14.09A14.1,14.1,0,0,1,0,135.91V14.09A14.1,14.1,0,0,1,14.09,0H135.91A14.1,14.1,0,0,1,150,14.09Z" />
                <path class="cls-2"
                    d="M135.91,2A12.1,12.1,0,0,1,148,14.09V135.91A12.1,12.1,0,0,1,135.91,148H14.09A12.1,12.1,0,0,1,2,135.91V14.09A12.1,12.1,0,0,1,14.09,2H135.91m0-2H14.09A14.1,14.1,0,0,0,0,14.09V135.91A14.1,14.1,0,0,0,14.09,150H135.91A14.1,14.1,0,0,0,150,135.91V14.09A14.1,14.1,0,0,0,135.91,0Z" />
                <path class="cls-3"
                    d="M145.52,145.52a14,14,0,0,1-9.91,4.11H14.39a14,14,0,0,1-9.91-4.11l17.1-17.1H128.42Z" />
                <path class="cls-4"
                    d="M145.52,4.48l-17.1,17.1H21.58L4.48,4.48A14,14,0,0,1,14.39.37H135.61A14,14,0,0,1,145.52,4.48Z" />
                <path class="cls-5"
                    d="M149.63,14.39V135.61a14,14,0,0,1-4.11,9.91l-17.1-17.1V21.58l17.1-17.1A14,14,0,0,1,149.63,14.39Z" />
                <path class="cls-5"
                    d="M21.58,21.58V128.42l-17.1,17.1a14,14,0,0,1-4.11-9.91V14.39A14,14,0,0,1,4.48,4.48Z" />
                <rect class="cls-6" x="16.45" y="16.45" width="117.1" height="117.1" rx="9.34" />
                <path class="cls-7"
                    d="M71.63,69.27h1.64A5,5,0,0,0,77,67.88a4.7,4.7,0,0,0,1.35-3.49A5.12,5.12,0,0,0,77,60.84a4.83,4.83,0,0,0-3.46-1.39,4.27,4.27,0,0,0-2.77,1A5.12,5.12,0,0,0,69,63.59H64.25a10.07,10.07,0,0,1,3-6.39,8.56,8.56,0,0,1,6.13-2.63,9.39,9.39,0,0,1,7.18,3,10,10,0,0,1,2.59,6.75,10.49,10.49,0,0,1-.7,3.8,8.07,8.07,0,0,1-2.93,3.26,8.51,8.51,0,0,1,3.11,3.37,9.69,9.69,0,0,1,.92,4.13,10.24,10.24,0,0,1-2.88,7.57,9.77,9.77,0,0,1-7.17,2.88,8.9,8.9,0,0,1-6-2.25,10.72,10.72,0,0,1-3.38-6.5h4.74a6.81,6.81,0,0,0,1.8,2.77,4.37,4.37,0,0,0,3.13,1.11A4.73,4.73,0,0,0,77.29,83,5.36,5.36,0,0,0,78.79,79a5.55,5.55,0,0,0-1.5-4,5,5,0,0,0-3.63-1.39h-2Z" />
               
            </g>
        </g>
    </g>
</svg>