<svg xmlns="http://www.w3.org/2000/svg" xmlns:xlink="http://www.w3.org/1999/xlink" viewBox="0 0 150 150">
    <defs>
        <style>
            .cls-1 {
                fill: url(#未命名的渐变_30);
            }

            .cls-2 {
                fill: url(#未命名的渐变_44);
            }

            .cls-3 {
                fill: #17334d;
            }

            .cls-4 {
                fill: #3275b3;
            }

            .cls-5 {
                fill: #16324d;
            }

            .cls-6 {
                stroke-miterlimit: 10;
                fill: url(#未命名的渐变_51);
                stroke: url(#未命名的渐变_47);
            }

            .cls-7 {
                fill: #fff;
            }

            .cls-8 {
                opacity: 0.2;
            }
        </style>
        <linearGradient id="未命名的渐变_30" y1="75" x2="150" y2="75" gradientUnits="userSpaceOnUse">
            <stop offset="0" stop-color="#1e4366" />
            <stop offset="1" stop-color="#245480" />
        </linearGradient>
        <linearGradient id="未命名的渐变_44" x1="75" y1="150" x2="75" gradientUnits="userSpaceOnUse">
            <stop offset="0" stop-color="#1e4366" />
            <stop offset="0.27" stop-color="#1f4669" />
            <stop offset="0.45" stop-color="#214f71" />
            <stop offset="0.61" stop-color="#255e7f" />
            <stop offset="0.75" stop-color="#2a7392" />
            <stop offset="0.87" stop-color="#318eac" />
            <stop offset="0.99" stop-color="#3aafca" />
            <stop offset="1" stop-color="#3ab1cc" />
        </linearGradient>
        <linearGradient id="未命名的渐变_51" x1="75" y1="133.55" x2="75" y2="16.45" gradientUnits="userSpaceOnUse">
            <stop offset="0" stop-color="#8b9299" />
            <stop offset="1" stop-color="#a5b9cc" />
        </linearGradient>
        <linearGradient id="未命名的渐变_47" x1="75" y1="134.05" x2="75" y2="15.95" gradientUnits="userSpaceOnUse">
            <stop offset="0" stop-color="#61676b" stop-opacity="0" />
            <stop offset="0.2" stop-color="#62686d" stop-opacity="0.01" />
            <stop offset="0.34" stop-color="#676d72" stop-opacity="0.05" />
            <stop offset="0.45" stop-color="#6e757a" stop-opacity="0.1" />
            <stop offset="0.56" stop-color="#798087" stop-opacity="0.19" />
            <stop offset="0.65" stop-color="#878e97" stop-opacity="0.3" />
            <stop offset="0.74" stop-color="#98a0aa" stop-opacity="0.43" />
            <stop offset="0.83" stop-color="#acb4c2" stop-opacity="0.59" />
            <stop offset="0.91" stop-color="#c3cddd" stop-opacity="0.77" />
            <stop offset="0.99" stop-color="#dde7fb" stop-opacity="0.97" />
            <stop offset="1" stop-color="#e1ebff" />
        </linearGradient>
    </defs>
    <title>6</title>
    <g id="图层_2" data-name="图层 2">
        <g id="单个电脑按键">
            <g id="_6" data-name="6">
                <path class="cls-1"
                    d="M150,14.09V135.91A14.1,14.1,0,0,1,135.91,150H14.09A14.1,14.1,0,0,1,0,135.91V14.09A14.1,14.1,0,0,1,14.09,0H135.91A14.1,14.1,0,0,1,150,14.09Z" />
                <path class="cls-2"
                    d="M135.91,2A12.1,12.1,0,0,1,148,14.09V135.91A12.1,12.1,0,0,1,135.91,148H14.09A12.1,12.1,0,0,1,2,135.91V14.09A12.1,12.1,0,0,1,14.09,2H135.91m0-2H14.09A14.1,14.1,0,0,0,0,14.09V135.91A14.1,14.1,0,0,0,14.09,150H135.91A14.1,14.1,0,0,0,150,135.91V14.09A14.1,14.1,0,0,0,135.91,0Z" />
                <path class="cls-3"
                    d="M145.52,145.52a14,14,0,0,1-9.91,4.11H14.39a14,14,0,0,1-9.91-4.11l17.1-17.1H128.42Z" />
                <path class="cls-4"
                    d="M145.52,4.48l-17.1,17.1H21.58L4.48,4.48A14,14,0,0,1,14.39.37H135.61A14,14,0,0,1,145.52,4.48Z" />
                <path class="cls-5"
                    d="M149.63,14.39V135.61a14,14,0,0,1-4.11,9.91l-17.1-17.1V21.58l17.1-17.1A14,14,0,0,1,149.63,14.39Z" />
                <path class="cls-5"
                    d="M21.58,21.58V128.42l-17.1,17.1a14,14,0,0,1-4.11-9.91V14.39A14,14,0,0,1,4.48,4.48Z" />
                <rect class="cls-6" x="16.45" y="16.45" width="117.1" height="117.1" rx="9.34" />
                <path class="cls-7"
                    d="M81.29,54.5a2.47,2.47,0,0,1-.22.51l-.67,1.37c-.28.58-.61,1.24-1,2l-1.19,2.37c-.41.83-.83,1.66-1.26,2.51l-1.24,2.41-1.09,2.09c-.33.62-.6,1.12-.82,1.5a3.53,3.53,0,0,1,1.53-.48,13.92,13.92,0,0,1,2,0,7.4,7.4,0,0,1,4.9,1.85,7.53,7.53,0,0,1,1.44,1.72,10.18,10.18,0,0,1,.9,1.86A8.88,8.88,0,0,1,85,75.84a7.77,7.77,0,0,1,.13,1.23v1.35c0,.31,0,.62,0,.93s0,.58,0,.79-.06.4-.15.86a9.9,9.9,0,0,1-.47,1.64,12.34,12.34,0,0,1-1,2,9.27,9.27,0,0,1-1.66,2.06,9.83,9.83,0,0,1-2.51,1.68,10.05,10.05,0,0,1-3.52.87A10.32,10.32,0,0,1,72.06,89a9,9,0,0,1-2.84-1.33,8.62,8.62,0,0,1-2-2A10.34,10.34,0,0,1,66,83.33,10,10,0,0,1,65.37,81a7.68,7.68,0,0,1-.06-1.88c.09-.77.19-1.45.3-2s.24-1.18.39-1.72.32-1.09.5-1.62.41-1.11.66-1.73c.06-.16.23-.53.52-1.12s.62-1.31,1-2.17.88-1.8,1.39-2.83,1-2.08,1.55-3.14l4.1-8.28Zm-1,25c0-.59,0-1.25-.07-2a5.6,5.6,0,0,0-.53-2.05,4.13,4.13,0,0,0-1.49-1.67A6,6,0,0,0,75.29,73a4,4,0,0,0-1.61.19,4.44,4.44,0,0,0-1.29.7,5.25,5.25,0,0,0-1,1A8.14,8.14,0,0,0,70.73,76a5.32,5.32,0,0,0-.38,1,3.33,3.33,0,0,0-.12.74c0,.39,0,.83,0,1.3a9.93,9.93,0,0,0,.16,1.43,5.53,5.53,0,0,0,.43,1.38,3.58,3.58,0,0,0,.87,1.19,4.34,4.34,0,0,0,1.44.84,6.27,6.27,0,0,0,2.19.33A4.76,4.76,0,0,0,77.18,84a4.92,4.92,0,0,0,1.34-.75,4.34,4.34,0,0,0,.9-1,5.94,5.94,0,0,0,.55-1.1,5.78,5.78,0,0,0,.27-1A4.11,4.11,0,0,0,80.31,79.51Z" />
              
            </g>
        </g>
    </g>
</svg>