<svg xmlns="http://www.w3.org/2000/svg" xmlns:xlink="http://www.w3.org/1999/xlink" viewBox="0 0 150 150">
    <defs>
        <style>
            .cls-1 {
                fill: url(#未命名的渐变_30);
            }

            .cls-2 {
                fill: url(#未命名的渐变_44);
            }

            .cls-3 {
                fill: #17334d;
            }

            .cls-4 {
                fill: #3275b3;
            }

            .cls-5 {
                fill: #16324d;
            }

            .cls-6 {
                stroke-miterlimit: 10;
                fill: url(#未命名的渐变_51);
                stroke: url(#未命名的渐变_47);
            }

            .cls-7 {
                fill: #fff;
            }

            .cls-8 {
                opacity: 0.2;
            }
        </style>
        <linearGradient id="未命名的渐变_30" y1="75" x2="150" y2="75" gradientUnits="userSpaceOnUse">
            <stop offset="0" stop-color="#1e4366" />
            <stop offset="1" stop-color="#245480" />
        </linearGradient>
        <linearGradient id="未命名的渐变_44" x1="75" y1="150" x2="75" gradientUnits="userSpaceOnUse">
            <stop offset="0" stop-color="#1e4366" />
            <stop offset="0.27" stop-color="#1f4669" />
            <stop offset="0.45" stop-color="#214f71" />
            <stop offset="0.61" stop-color="#255e7f" />
            <stop offset="0.75" stop-color="#2a7392" />
            <stop offset="0.87" stop-color="#318eac" />
            <stop offset="0.99" stop-color="#3aafca" />
            <stop offset="1" stop-color="#3ab1cc" />
        </linearGradient>
        <linearGradient id="未命名的渐变_51" x1="130.81" y1="130.81" x2="19.19" y2="19.19" gradientUnits="userSpaceOnUse">
            <stop offset="0" stop-color="#8b9299" />
            <stop offset="1" stop-color="#a5b9cc" />
        </linearGradient>
        <linearGradient id="未命名的渐变_47" x1="75" y1="134.05" x2="75" y2="15.95" gradientUnits="userSpaceOnUse">
            <stop offset="0" stop-color="#61676b" stop-opacity="0" />
            <stop offset="0.2" stop-color="#62686d" stop-opacity="0.01" />
            <stop offset="0.34" stop-color="#676d72" stop-opacity="0.05" />
            <stop offset="0.45" stop-color="#6e757a" stop-opacity="0.1" />
            <stop offset="0.56" stop-color="#798087" stop-opacity="0.19" />
            <stop offset="0.65" stop-color="#878e97" stop-opacity="0.3" />
            <stop offset="0.74" stop-color="#98a0aa" stop-opacity="0.43" />
            <stop offset="0.83" stop-color="#acb4c2" stop-opacity="0.59" />
            <stop offset="0.91" stop-color="#c3cddd" stop-opacity="0.77" />
            <stop offset="0.99" stop-color="#dde7fb" stop-opacity="0.97" />
            <stop offset="1" stop-color="#e1ebff" />
        </linearGradient>
    </defs>
    <title>9</title>
    <g id="图层_2" data-name="图层 2">
        <g id="单个电脑按键">
            <g id="_9" data-name="9">
                <path class="cls-1"
                    d="M150,14.09V135.91A14.1,14.1,0,0,1,135.91,150H14.09A14.1,14.1,0,0,1,0,135.91V14.09A14.1,14.1,0,0,1,14.09,0H135.91A14.1,14.1,0,0,1,150,14.09Z" />
                <path class="cls-2"
                    d="M135.91,2A12.1,12.1,0,0,1,148,14.09V135.91A12.1,12.1,0,0,1,135.91,148H14.09A12.1,12.1,0,0,1,2,135.91V14.09A12.1,12.1,0,0,1,14.09,2H135.91m0-2H14.09A14.1,14.1,0,0,0,0,14.09V135.91A14.1,14.1,0,0,0,14.09,150H135.91A14.1,14.1,0,0,0,150,135.91V14.09A14.1,14.1,0,0,0,135.91,0Z" />
                <path class="cls-3"
                    d="M145.52,145.52a14,14,0,0,1-9.91,4.11H14.39a14,14,0,0,1-9.91-4.11l17.1-17.1H128.42Z" />
                <path class="cls-4"
                    d="M145.52,4.48l-17.1,17.1H21.58L4.48,4.48A14,14,0,0,1,14.39.37H135.61A14,14,0,0,1,145.52,4.48Z" />
                <path class="cls-5"
                    d="M149.63,14.39V135.61a14,14,0,0,1-4.11,9.91l-17.1-17.1V21.58l17.1-17.1A14,14,0,0,1,149.63,14.39Z" />
                <path class="cls-5"
                    d="M21.58,21.58V128.42l-17.1,17.1a14,14,0,0,1-4.11-9.91V14.39A14,14,0,0,1,4.48,4.48Z" />
                <rect class="cls-6" x="16.45" y="16.45" width="117.1" height="117.1" rx="9.34" />
                <path class="cls-7"
                    d="M68.54,88.65s.12-.28.4-.85L70,85.58c.46-.9,1-1.91,1.53-3l1.66-3.28c.55-1.08,1.06-2.07,1.54-3s.86-1.62,1.16-2.13a3.92,3.92,0,0,1-1.54.48,14.05,14.05,0,0,1-2,0,7.06,7.06,0,0,1-2.71-.56,7.17,7.17,0,0,1-2-1.29,7.7,7.7,0,0,1-1.41-1.72,12.52,12.52,0,0,1-.9-1.85,10.06,10.06,0,0,1-.49-1.69,6.92,6.92,0,0,1-.15-1.23c0-.09,0-.26,0-.51s0-.53,0-.84,0-.61,0-.92a7.76,7.76,0,0,1,.06-.8c0-.11.07-.39.16-.83a9.16,9.16,0,0,1,.48-1.61,12.61,12.61,0,0,1,1-2,8.73,8.73,0,0,1,1.65-2,9.36,9.36,0,0,1,2.51-1.62,12,12,0,0,1,7.29-.61,8.71,8.71,0,0,1,2.8,1.29,8.1,8.1,0,0,1,2,2,10.88,10.88,0,0,1,1.2,2.28,10.67,10.67,0,0,1,.58,2.25,7.4,7.4,0,0,1,0,1.86c-.09.77-.19,1.45-.3,2.06s-.24,1.17-.39,1.72-.31,1.08-.5,1.62-.41,1.1-.66,1.73c-.06.17-.23.55-.5,1.12l-1,2.13c-.42.83-.87,1.76-1.36,2.79s-1,2-1.51,3.08q-1.82,3.65-4,8.15ZM69.6,63.9c0,.61,0,1.28.09,2A6.1,6.1,0,0,0,70.24,68a4.32,4.32,0,0,0,1.44,1.67,5.27,5.27,0,0,0,2.77.78,4.06,4.06,0,0,0,1.62-.22,4.77,4.77,0,0,0,1.29-.72,5.4,5.4,0,0,0,1-1A8,8,0,0,0,79,67.38a4.44,4.44,0,0,0,.38-1,3.16,3.16,0,0,0,.12-.75c0-.39,0-.82,0-1.31a10.73,10.73,0,0,0-.14-1.47,6.08,6.08,0,0,0-.44-1.45,3.53,3.53,0,0,0-.86-1.2,3.84,3.84,0,0,0-1.45-.81,5.8,5.8,0,0,0-2.19-.22,4.33,4.33,0,0,0-2.38.72,5.78,5.78,0,0,0-1.46,1.46,5.32,5.32,0,0,0-.75,1.54A4.75,4.75,0,0,0,69.6,63.9Z" />
            </g>
        </g>
    </g>
</svg>