<svg xmlns="http://www.w3.org/2000/svg" xmlns:xlink="http://www.w3.org/1999/xlink" viewBox="0 0 150 150">
    <defs>
        <style>
            .cls-1 {
                fill: url(#未命名的渐变_30);
            }

            .cls-2 {
                fill: url(#未命名的渐变_44);
            }

            .cls-3 {
                fill: #0b1926;
            }

            .cls-4 {
                fill: #3275b3;
            }

            .cls-5 {
                fill: #16324d;
            }

            .cls-6 {
                stroke-miterlimit: 10;
                fill: url(#未命名的渐变_49);
                stroke: url(#未命名的渐变_36);
            }

            .cls-7 {
                fill: #fff;
            }

            .cls-8 {
                opacity: 0.2;
            }
        </style>
        <linearGradient id="未命名的渐变_30" y1="75" x2="150" y2="75" gradientUnits="userSpaceOnUse">
            <stop offset="0" stop-color="#1e4366" />
            <stop offset="1" stop-color="#245480" />
        </linearGradient>
        <linearGradient id="未命名的渐变_44" x1="75" y1="150" x2="75" gradientUnits="userSpaceOnUse">
            <stop offset="0" stop-color="#1e4366" />
            <stop offset="0.27" stop-color="#1f4669" />
            <stop offset="0.45" stop-color="#214f71" />
            <stop offset="0.61" stop-color="#255e7f" />
            <stop offset="0.75" stop-color="#2a7392" />
            <stop offset="0.87" stop-color="#318eac" />
            <stop offset="0.99" stop-color="#3aafca" />
            <stop offset="1" stop-color="#3ab1cc" />
        </linearGradient>
        <linearGradient id="未命名的渐变_49" x1="75" y1="133.55" x2="75" y2="16.45" gradientUnits="userSpaceOnUse">
            <stop offset="0" stop-color="#61666b" />
            <stop offset="1" stop-color="#7c8b99" />
        </linearGradient>
        <linearGradient id="未命名的渐变_36" x1="75" y1="134.05" x2="75" y2="15.95" gradientUnits="userSpaceOnUse">
            <stop offset="0" stop-color="#61676b" stop-opacity="0" />
            <stop offset="0.21" stop-color="#62686c" stop-opacity="0.01" />
            <stop offset="0.35" stop-color="#666c71" stop-opacity="0.05" />
            <stop offset="0.47" stop-color="#6d7479" stop-opacity="0.12" />
            <stop offset="0.58" stop-color="#777e85" stop-opacity="0.21" />
            <stop offset="0.68" stop-color="#848b93" stop-opacity="0.33" />
            <stop offset="0.77" stop-color="#939ba5" stop-opacity="0.48" />
            <stop offset="0.86" stop-color="#a6aebb" stop-opacity="0.65" />
            <stop offset="0.94" stop-color="#bbc3d3" stop-opacity="0.85" />
            <stop offset="1" stop-color="#cbd4e6" />
        </linearGradient>
    </defs>
    <title>? -</title>
    <g id="图层_2" data-name="图层 2">
        <g id="单个电脑按键">
            <g id="_" data-name="? /">
                <path class="cls-1"
                    d="M150,14.09V135.91A14.1,14.1,0,0,1,135.91,150H14.09A14.1,14.1,0,0,1,0,135.91V14.09A14.1,14.1,0,0,1,14.09,0H135.91A14.1,14.1,0,0,1,150,14.09Z" />
                <path class="cls-2"
                    d="M135.91,2A12.1,12.1,0,0,1,148,14.09V135.91A12.1,12.1,0,0,1,135.91,148H14.09A12.1,12.1,0,0,1,2,135.91V14.09A12.1,12.1,0,0,1,14.09,2H135.91m0-2H14.09A14.1,14.1,0,0,0,0,14.09V135.91A14.1,14.1,0,0,0,14.09,150H135.91A14.1,14.1,0,0,0,150,135.91V14.09A14.1,14.1,0,0,0,135.91,0Z" />
                <path class="cls-3"
                    d="M145.52,145.52a14,14,0,0,1-9.91,4.11H14.39a14,14,0,0,1-9.91-4.11l17.1-17.1H128.42Z" />
                <path class="cls-4"
                    d="M145.52,4.48l-17.1,17.1H21.58L4.48,4.48A14,14,0,0,1,14.39.37H135.61A14,14,0,0,1,145.52,4.48Z" />
                <path class="cls-5"
                    d="M149.63,14.39V135.61a14,14,0,0,1-4.11,9.91l-17.1-17.1V21.58l17.1-17.1A14,14,0,0,1,149.63,14.39Z" />
                <path class="cls-5"
                    d="M21.58,21.58V128.42l-17.1,17.1a14,14,0,0,1-4.11-9.91V14.39A14,14,0,0,1,4.48,4.48Z" />
                <rect class="cls-6" x="16.45" y="16.45" width="117.1" height="117.1" rx="9.34" />
                <path class="cls-7"
                    d="M81.08,40a6.53,6.53,0,0,1,2.16,5.18,7.22,7.22,0,0,1-1.33,4.43c-.32.36-1.37,1.33-3.1,2.85a5.22,5.22,0,0,0-2,4.13v.51H72.7v-.51a7.53,7.53,0,0,1,.72-3.52c.46-1,1.87-2.49,4.21-4.57l.43-.51a4.12,4.12,0,0,0,0-5.36,4.65,4.65,0,0,0-6.26.43,6,6,0,0,0-.9,3.56h-4.1a8.2,8.2,0,0,1,2.34-6.26,8.59,8.59,0,0,1,6.29-2.27A8.17,8.17,0,0,1,81.08,40ZM76.76,59.61a2.62,2.62,0,0,1,.79,1.94,2.71,2.71,0,0,1-.79,2,2.88,2.88,0,0,1-2,.76,2.7,2.7,0,0,1-2-.79,2.48,2.48,0,0,1-.83-2,2.45,2.45,0,0,1,.83-1.94,2.68,2.68,0,0,1,2-.76A2.87,2.87,0,0,1,76.76,59.61Z" />
                <path class="cls-7" d="M83,78,70.54,111.09H67L79.5,78Z" />
               
            </g>
        </g>
    </g>
</svg>