<svg xmlns="http://www.w3.org/2000/svg" xmlns:xlink="http://www.w3.org/1999/xlink" viewBox="0 0 246.92 150">
    <defs>
        <style>
            .cls-1 {
                fill: url(#未命名的渐变_30);
            }

            .cls-2 {
                fill: url(#未命名的渐变_44);
            }

            .cls-3 {
                fill: #0b1926;
            }

            .cls-4 {
                fill: #3275b3;
            }

            .cls-5 {
                fill: #16324d;
            }

            .cls-6 {
                stroke-miterlimit: 10;
                fill: url(#未命名的渐变_49);
                stroke: url(#未命名的渐变_36);
            }

            .cls-7 {
                fill: #fff;
            }

            .cls-8 {
                opacity: 0.2;
            }
        </style>
        <linearGradient id="未命名的渐变_30" y1="75" x2="246.92" y2="75" gradientUnits="userSpaceOnUse">
            <stop offset="0" stop-color="#1e4366" />
            <stop offset="1" stop-color="#245480" />
        </linearGradient>
        <linearGradient id="未命名的渐变_44" x1="123.46" y1="150" x2="123.46" gradientUnits="userSpaceOnUse">
            <stop offset="0" stop-color="#1e4366" />
            <stop offset="0.27" stop-color="#1f4669" />
            <stop offset="0.45" stop-color="#214f71" />
            <stop offset="0.61" stop-color="#255e7f" />
            <stop offset="0.75" stop-color="#2a7392" />
            <stop offset="0.87" stop-color="#318eac" />
            <stop offset="0.99" stop-color="#3aafca" />
            <stop offset="1" stop-color="#3ab1cc" />
        </linearGradient>
        <linearGradient id="未命名的渐变_49" x1="123.46" y1="133.55" x2="123.46" y2="16.45" gradientUnits="userSpaceOnUse">
            <stop offset="0" stop-color="#61666b" />
            <stop offset="1" stop-color="#7c8b99" />
        </linearGradient>
        <linearGradient id="未命名的渐变_36" x1="123.46" y1="134.05" x2="123.46" y2="15.95" gradientUnits="userSpaceOnUse">
            <stop offset="0" stop-color="#61676b" stop-opacity="0" />
            <stop offset="0.21" stop-color="#62686c" stop-opacity="0.01" />
            <stop offset="0.35" stop-color="#666c71" stop-opacity="0.05" />
            <stop offset="0.47" stop-color="#6d7479" stop-opacity="0.12" />
            <stop offset="0.58" stop-color="#777e85" stop-opacity="0.21" />
            <stop offset="0.68" stop-color="#848b93" stop-opacity="0.33" />
            <stop offset="0.77" stop-color="#939ba5" stop-opacity="0.48" />
            <stop offset="0.86" stop-color="#a6aebb" stop-opacity="0.65" />
            <stop offset="0.94" stop-color="#bbc3d3" stop-opacity="0.85" />
            <stop offset="1" stop-color="#cbd4e6" />
        </linearGradient>
    </defs>
    <title>Back</title>
    <g id="图层_2" data-name="图层 2">
        <g id="单个电脑按键">
            <g id="Back">
                <path class="cls-1"
                    d="M246.92,14.09V135.91A14.1,14.1,0,0,1,232.83,150H14.09A14.1,14.1,0,0,1,0,135.91V14.09A14.1,14.1,0,0,1,14.09,0H232.83a14.1,14.1,0,0,1,14.09,14.09Z" />
                <path class="cls-2"
                    d="M232.83,2a12.1,12.1,0,0,1,12.09,12.09V135.91A12.1,12.1,0,0,1,232.83,148H14.09A12.1,12.1,0,0,1,2,135.91V14.09A12.1,12.1,0,0,1,14.09,2H232.83m0-2H14.09A14.1,14.1,0,0,0,0,14.09V135.91A14.1,14.1,0,0,0,14.09,150H232.83a14.1,14.1,0,0,0,14.09-14.09V14.09A14.1,14.1,0,0,0,232.83,0Z" />
                <path class="cls-3"
                    d="M242.44,145.52a14,14,0,0,1-9.91,4.11H14.39a14,14,0,0,1-9.91-4.11l17.1-17.1H225.34Z" />
                <path class="cls-4"
                    d="M242.44,4.48l-17.1,17.1H21.58L4.48,4.48A14,14,0,0,1,14.39.37H232.53A14,14,0,0,1,242.44,4.48Z" />
                <path class="cls-5"
                    d="M246.55,14.39V135.61a14,14,0,0,1-4.11,9.91l-17.1-17.1V21.58l17.1-17.1A14,14,0,0,1,246.55,14.39Z" />
                <path class="cls-5"
                    d="M21.58,21.58V128.42l-17.1,17.1a14,14,0,0,1-4.11-9.91V14.39A14,14,0,0,1,4.48,4.48Z" />
                <rect class="cls-6" x="16.45" y="16.45" width="214.02" height="117.1" rx="9.34" />
                <path class="cls-7"
                    d="M70.7,67.06h5.61a4.45,4.45,0,0,1,3.21,1.11,4,4,0,0,1,1.08,2.9,3.57,3.57,0,0,1-.43,1.77,2.8,2.8,0,0,1-.65.75,4.55,4.55,0,0,1-1,.69v0a3,3,0,0,1,1.79,1.28,4.32,4.32,0,0,1,.57,2.17,4.17,4.17,0,0,1-1.18,3.06A3.79,3.79,0,0,1,76.8,82H70.7Zm2.19,2v4.3h3.17a2.25,2.25,0,0,0,1.77-.65,2.1,2.1,0,0,0,.58-1.5,2.21,2.21,0,0,0-.58-1.54,2.46,2.46,0,0,0-1.77-.61Zm0,6.31v4.5h3.39a2.26,2.26,0,0,0,1.79-.69,2.25,2.25,0,0,0-1.79-3.81Z" />
                <path class="cls-7"
                    d="M88.73,81.07h0a1.81,1.81,0,0,1-.9.8,4.07,4.07,0,0,1-1.65.27,3.7,3.7,0,0,1-2.66-1,3,3,0,0,1-1-2.3,3.07,3.07,0,0,1,.85-2.23,3.35,3.35,0,0,1,2.51-.92h2.86V74.62c0-1-.69-1.4-2.11-1.37a3.64,3.64,0,0,0-1.22.16,1.52,1.52,0,0,0-.74.66L83,72.79a4,4,0,0,1,3.49-1.55,5.32,5.32,0,0,1,3.1.76,3.1,3.1,0,0,1,1.18,2.74V82H88.73Zm0-3.57H86.25c-1.21,0-1.81.46-1.79,1.28a1.16,1.16,0,0,0,.46.93,2.16,2.16,0,0,0,1.49.42,3.53,3.53,0,0,0,1.84-.32c.32-.23.48-.74.48-1.54Z" />
                <path class="cls-7"
                    d="M101.41,80.3a5.71,5.71,0,0,1-1.59,1.3,4.54,4.54,0,0,1-5.32-.75A5.44,5.44,0,0,1,93,76.7a5.58,5.58,0,0,1,1.47-4.2,4.68,4.68,0,0,1,5.32-.75,5.22,5.22,0,0,1,1.59,1.34l-1.53,1.4a2.57,2.57,0,0,0-2.1-1.12q-2.64,0-2.68,3.33T97.78,80a2.49,2.49,0,0,0,2.1-1.11Z" />
                <path class="cls-7"
                    d="M103.14,67.06h2.07v9.3h0l4-5h2.48l-3.55,4.15,4,6.49h-2.61l-2.74-5L105.21,79V82h-2.07Z" />
                <path class="cls-7"
                    d="M114.34,78.76a4.26,4.26,0,0,0,3.27,1.37,2.68,2.68,0,0,0,1.46-.36,1.14,1.14,0,0,0,.57-1,.88.88,0,0,0-.34-.8,1.76,1.76,0,0,0-.92-.25l-1.84-.17a3.4,3.4,0,0,1-2.11-.9,2.76,2.76,0,0,1-.86-2.12,2.9,2.9,0,0,1,1.12-2.46,4.37,4.37,0,0,1,2.73-.82,8.29,8.29,0,0,1,1.28.09,5.68,5.68,0,0,1,1.06.29,5.81,5.81,0,0,1,1.71,1.07l-1.28,1.55a6.48,6.48,0,0,0-1.27-.74,4.12,4.12,0,0,0-1.51-.25,2.06,2.06,0,0,0-1.36.35,1.19,1.19,0,0,0-.41.93.72.72,0,0,0,.31.63,1.85,1.85,0,0,0,1,.38l1.71.13a3.18,3.18,0,0,1,2.33,1,3.46,3.46,0,0,1,.67,2.19,2.79,2.79,0,0,1-1.22,2.39,5.2,5.2,0,0,1-3,.89,6.43,6.43,0,0,1-4.54-1.91Z" />
                <path class="cls-7"
                    d="M124.12,71.37h2.07v1.11a3.49,3.49,0,0,1,2.66-1.24,3.18,3.18,0,0,1,2.77,1.39A2.86,2.86,0,0,1,132.2,74a17.26,17.26,0,0,1,.15,2.75,17,17,0,0,1-.15,2.71,2.94,2.94,0,0,1-.58,1.34,3.25,3.25,0,0,1-1.12,1,3.65,3.65,0,0,1-1.65.4,2.8,2.8,0,0,1-1.42-.36,4.62,4.62,0,0,1-1.24-.9v5.44h-2.07ZM128.23,80a2.08,2.08,0,0,0,1.16-.28A1.72,1.72,0,0,0,130,79a4,4,0,0,0,.26-1.08c0-.38,0-.77,0-1.18s0-.84,0-1.24a3.65,3.65,0,0,0-.26-1.07,1.49,1.49,0,0,0-.61-.76,2.17,2.17,0,0,0-1.16-.26,1.85,1.85,0,0,0-1.11.3,1.76,1.76,0,0,0-.62.78,3.84,3.84,0,0,0-.25,1q-.06.6-.06,1.2a10.55,10.55,0,0,0,.06,1.13,3.89,3.89,0,0,0,.25,1.08,1.73,1.73,0,0,0,.62.79A1.85,1.85,0,0,0,128.23,80Z" />
                <path class="cls-7"
                    d="M140.44,81.07h0a1.77,1.77,0,0,1-.9.8,4,4,0,0,1-1.65.27,3.71,3.71,0,0,1-2.66-1,3,3,0,0,1-1-2.3,3.11,3.11,0,0,1,.85-2.23,3.35,3.35,0,0,1,2.51-.92h2.87V74.62c0-1-.7-1.4-2.12-1.37a3.64,3.64,0,0,0-1.22.16,1.52,1.52,0,0,0-.74.66l-1.63-1.28a4,4,0,0,1,3.49-1.55,5.32,5.32,0,0,1,3.1.76,3.1,3.1,0,0,1,1.18,2.74V82h-2.06Zm0-3.57H138c-1.21,0-1.81.46-1.79,1.28a1.16,1.16,0,0,0,.46.93,2.16,2.16,0,0,0,1.49.42,3.53,3.53,0,0,0,1.84-.32c.32-.23.49-.74.49-1.54Z" />
                <path class="cls-7"
                    d="M153.11,80.3a5.71,5.71,0,0,1-1.59,1.3,4.54,4.54,0,0,1-5.32-.75,5.44,5.44,0,0,1-1.47-4.15,5.58,5.58,0,0,1,1.47-4.2,4.68,4.68,0,0,1,5.32-.75,5.22,5.22,0,0,1,1.59,1.34l-1.53,1.4a2.59,2.59,0,0,0-2.1-1.12q-2.64,0-2.68,3.33t2.68,3.3a2.5,2.5,0,0,0,2.1-1.11Z" />
                <path class="cls-7"
                    d="M156.4,77.5a2.55,2.55,0,0,0,.71,2,2.37,2.37,0,0,0,1.75.68,3.07,3.07,0,0,0,2.26-1l1.5,1.33a4.8,4.8,0,0,1-3.71,1.72,5.29,5.29,0,0,1-1.59-.25,4,4,0,0,1-.76-.36,3.47,3.47,0,0,1-.72-.48,4.21,4.21,0,0,1-1.06-1.66,6.69,6.69,0,0,1-.45-2.67,7.54,7.54,0,0,1,.39-2.62,4.4,4.4,0,0,1,1-1.68,3.73,3.73,0,0,1,1.38-.91,4.39,4.39,0,0,1,1.49-.27,4.19,4.19,0,0,1,3,1.2,4.49,4.49,0,0,1,1.26,3.3V77.5Zm4.36-1.76a2.79,2.79,0,0,0-.65-1.89,2.26,2.26,0,0,0-3.07,0,3,3,0,0,0-.64,1.89Z" />
               
            </g>
        </g>
    </g>
</svg>