<svg xmlns="http://www.w3.org/2000/svg" xmlns:xlink="http://www.w3.org/1999/xlink" viewBox="0 0 260 150">
    <defs>
        <style>
            .cls-1 {
                fill: url(#未命名的渐变_30);
            }

            .cls-2 {
                fill: url(#未命名的渐变_44);
            }

            .cls-3 {
                fill: #0b1926;
            }

            .cls-4 {
                fill: #3275b3;
            }

            .cls-5 {
                fill: #16324d;
            }

            .cls-6 {
                stroke-miterlimit: 10;
                fill: url(#未命名的渐变_49);
                stroke: url(#未命名的渐变_36);
            }

            .cls-7 {
                fill: #fff;
            }

            .cls-8 {
                opacity: 0.2;
            }
        </style>
        <linearGradient id="未命名的渐变_30" y1="75" x2="260" y2="75" gradientUnits="userSpaceOnUse">
            <stop offset="0" stop-color="#1e4366" />
            <stop offset="1" stop-color="#245480" />
        </linearGradient>
        <linearGradient id="未命名的渐变_44" x1="130" y1="150" x2="130" gradientUnits="userSpaceOnUse">
            <stop offset="0" stop-color="#1e4366" />
            <stop offset="0.27" stop-color="#1f4669" />
            <stop offset="0.45" stop-color="#214f71" />
            <stop offset="0.61" stop-color="#255e7f" />
            <stop offset="0.75" stop-color="#2a7392" />
            <stop offset="0.87" stop-color="#318eac" />
            <stop offset="0.99" stop-color="#3aafca" />
            <stop offset="1" stop-color="#3ab1cc" />
        </linearGradient>
        <linearGradient id="未命名的渐变_49" x1="130" y1="133.55" x2="130" y2="16.45" gradientUnits="userSpaceOnUse">
            <stop offset="0" stop-color="#61666b" />
            <stop offset="1" stop-color="#7c8b99" />
        </linearGradient>
        <linearGradient id="未命名的渐变_36" x1="130" y1="134.05" x2="130" y2="15.95" gradientUnits="userSpaceOnUse">
            <stop offset="0" stop-color="#61676b" stop-opacity="0" />
            <stop offset="0.21" stop-color="#62686c" stop-opacity="0.01" />
            <stop offset="0.35" stop-color="#666c71" stop-opacity="0.05" />
            <stop offset="0.47" stop-color="#6d7479" stop-opacity="0.12" />
            <stop offset="0.58" stop-color="#777e85" stop-opacity="0.21" />
            <stop offset="0.68" stop-color="#848b93" stop-opacity="0.33" />
            <stop offset="0.77" stop-color="#939ba5" stop-opacity="0.48" />
            <stop offset="0.86" stop-color="#a6aebb" stop-opacity="0.65" />
            <stop offset="0.94" stop-color="#bbc3d3" stop-opacity="0.85" />
            <stop offset="1" stop-color="#cbd4e6" />
        </linearGradient>
    </defs>
    <title>Caps Lock</title>
    <g id="图层_2" data-name="图层 2">
        <g id="单个电脑按键">
            <g id="Caps_Lock" data-name="Caps Lock">
                <path class="cls-1"
                    d="M260,14.09V135.91A14.1,14.1,0,0,1,245.91,150H14.09A14.1,14.1,0,0,1,0,135.91V14.09A14.1,14.1,0,0,1,14.09,0H245.91A14.1,14.1,0,0,1,260,14.09Z" />
                <path class="cls-2"
                    d="M245.91,2A12.1,12.1,0,0,1,258,14.09V135.91A12.1,12.1,0,0,1,245.91,148H14.09A12.1,12.1,0,0,1,2,135.91V14.09A12.1,12.1,0,0,1,14.09,2H245.91m0-2H14.09A14.1,14.1,0,0,0,0,14.09V135.91A14.1,14.1,0,0,0,14.09,150H245.91A14.1,14.1,0,0,0,260,135.91V14.09A14.1,14.1,0,0,0,245.91,0Z" />
                <path class="cls-3"
                    d="M255.52,145.52a14,14,0,0,1-9.91,4.11H14.39a14,14,0,0,1-9.91-4.11l17.1-17.1H238.42Z" />
                <path class="cls-4"
                    d="M255.52,4.48l-17.1,17.1H21.58L4.48,4.48A14,14,0,0,1,14.39.37H245.61A14,14,0,0,1,255.52,4.48Z" />
                <path class="cls-5"
                    d="M259.63,14.39V135.61a14,14,0,0,1-4.11,9.91l-17.1-17.1V21.58l17.1-17.1A14,14,0,0,1,259.63,14.39Z" />
                <path class="cls-5"
                    d="M21.58,21.58V128.42l-17.1,17.1a14,14,0,0,1-4.11-9.91V14.39A14,14,0,0,1,4.48,4.48Z" />
                <rect class="cls-6" x="16.45" y="16.45" width="227.1" height="117.1" rx="9.34" />
                <path class="cls-7"
                    d="M119.72,63.67a5.58,5.58,0,0,1-1.82,3.19A5.06,5.06,0,0,1,114.63,68a5,5,0,0,1-2.85-.86,5.11,5.11,0,0,1-1.69-1.83c-.1-.22-.2-.44-.28-.64a4,4,0,0,1-.2-.8,25.68,25.68,0,0,1-.15-3.47,25.45,25.45,0,0,1,.15-3.48,4.27,4.27,0,0,1,.48-1.43,5.25,5.25,0,0,1,1.69-1.85,5,5,0,0,1,2.85-.84,4.85,4.85,0,0,1,3.42,1.28,5.71,5.71,0,0,1,1.67,3.15h-2.33a3.25,3.25,0,0,0-1-1.54,2.77,2.77,0,0,0-1.79-.63,2.94,2.94,0,0,0-1.34.32,2.75,2.75,0,0,0-.91.77,2.42,2.42,0,0,0-.57,1.24,19.26,19.26,0,0,0-.16,3,18.77,18.77,0,0,0,.16,3,2.52,2.52,0,0,0,.57,1.27,2.82,2.82,0,0,0,.91.75,2.61,2.61,0,0,0,1.34.33,3,3,0,0,0,2.76-2Z" />
                <path class="cls-7"
                    d="M126.86,66.9h0a1.7,1.7,0,0,1-.89.8,4.11,4.11,0,0,1-1.65.27,3.69,3.69,0,0,1-2.66-.94,3,3,0,0,1-1-2.31,3,3,0,0,1,.85-2.22,3.33,3.33,0,0,1,2.5-.93h2.87V60.45c0-.94-.69-1.4-2.11-1.37a3.7,3.7,0,0,0-1.23.16,1.5,1.5,0,0,0-.73.66l-1.63-1.28a4,4,0,0,1,3.48-1.55,5.43,5.43,0,0,1,3.11.76,3.14,3.14,0,0,1,1.18,2.75v7.27h-2.07Zm0-3.57h-2.49c-1.2,0-1.8.46-1.79,1.29a1.15,1.15,0,0,0,.47.92,2.13,2.13,0,0,0,1.48.42,3.53,3.53,0,0,0,1.84-.32c.33-.22.49-.74.49-1.54Z" />
                <path class="cls-7"
                    d="M132,57.2H134v1.11a3.49,3.49,0,0,1,2.66-1.24,3.19,3.19,0,0,1,2.77,1.39,3,3,0,0,1,.58,1.33,17.18,17.18,0,0,1,.15,2.75,16.87,16.87,0,0,1-.15,2.7,3,3,0,0,1-.59,1.35,3.05,3.05,0,0,1-1.12,1,3.46,3.46,0,0,1-1.64.4,2.78,2.78,0,0,1-1.42-.36,4.1,4.1,0,0,1-1.24-.9v5.44H132Zm4.1,8.64a2.11,2.11,0,0,0,1.17-.29,1.65,1.65,0,0,0,.6-.76,4.3,4.3,0,0,0,.27-1.07c0-.39,0-.78,0-1.18s0-.84,0-1.25a4.09,4.09,0,0,0-.27-1.07,1.51,1.51,0,0,0-.6-.76,2.3,2.3,0,0,0-1.17-.26,1.82,1.82,0,0,0-1.1.3,1.85,1.85,0,0,0-.63.78,3.84,3.84,0,0,0-.24,1,12.1,12.1,0,0,0-.06,1.21,10.84,10.84,0,0,0,.06,1.13,4,4,0,0,0,.24,1.08,1.85,1.85,0,0,0,.63.78A1.75,1.75,0,0,0,136.05,65.84Z" />
                <path class="cls-7"
                    d="M143.15,64.6A4.23,4.23,0,0,0,146.41,66a2.71,2.71,0,0,0,1.47-.36,1.11,1.11,0,0,0,.56-1,.89.89,0,0,0-.33-.8,1.71,1.71,0,0,0-.93-.26l-1.83-.16a3.47,3.47,0,0,1-2.12-.91,2.78,2.78,0,0,1-.86-2.12,2.94,2.94,0,0,1,1.13-2.46,4.32,4.32,0,0,1,2.72-.82,8.1,8.1,0,0,1,1.28.09,6.69,6.69,0,0,1,1.07.29,6.11,6.11,0,0,1,1.71,1.08L149,60.07a6.65,6.65,0,0,0-1.26-.73,4.15,4.15,0,0,0-1.51-.26,2,2,0,0,0-1.37.36,1.19,1.19,0,0,0-.41.92.75.75,0,0,0,.31.63,1.79,1.79,0,0,0,1.06.38l1.71.13a3.16,3.16,0,0,1,2.33,1,3.47,3.47,0,0,1,.66,2.18,2.79,2.79,0,0,1-1.22,2.4,5.17,5.17,0,0,1-3,.88,6.47,6.47,0,0,1-4.54-1.91Z" />
                <path class="cls-7" d="M110.33,78.1h2.19V90.92h7.06v2.13h-9.25Z" />
                <path class="cls-7"
                    d="M121.31,87.71a9.47,9.47,0,0,1,.27-2.58,3.83,3.83,0,0,1,.85-1.49,3.94,3.94,0,0,1,1.2-1,4.18,4.18,0,0,1,1.93-.42,4.28,4.28,0,0,1,2,.42,3.72,3.72,0,0,1,1.15,1,3.38,3.38,0,0,1,.87,1.49,10,10,0,0,1,.25,2.58,9.85,9.85,0,0,1-.25,2.57,4.08,4.08,0,0,1-1.36,2,2.17,2.17,0,0,1-.66.44,4.05,4.05,0,0,1-2,.46,3.9,3.9,0,0,1-1.93-.46,4.18,4.18,0,0,1-1.2-.9,4.23,4.23,0,0,1-.85-1.53A9.29,9.29,0,0,1,121.31,87.71Zm6.43,0a9.5,9.5,0,0,0-.1-1.67,1.92,1.92,0,0,0-.41-.89,1.5,1.5,0,0,0-.67-.56,2.31,2.31,0,0,0-2,0,1.85,1.85,0,0,0-.7.56,2.57,2.57,0,0,0-.39.89,8.09,8.09,0,0,0-.12,1.64,7.85,7.85,0,0,0,.12,1.63,2.77,2.77,0,0,0,.39.93,2.65,2.65,0,0,0,.7.54,2.22,2.22,0,0,0,2,0,2,2,0,0,0,.67-.54,2.06,2.06,0,0,0,.41-.93A8.89,8.89,0,0,0,127.74,87.74Z" />
                <path class="cls-7"
                    d="M139.91,91.33a5.54,5.54,0,0,1-1.59,1.3,4.27,4.27,0,0,1-2.11.54A4.59,4.59,0,0,1,133,91.89a5.43,5.43,0,0,1-1.46-4.15A5.51,5.51,0,0,1,133,83.53a4.5,4.5,0,0,1,3.2-1.26,4.45,4.45,0,0,1,2.11.51,5.36,5.36,0,0,1,1.59,1.34l-1.53,1.4a2.57,2.57,0,0,0-2.09-1.12q-2.64,0-2.69,3.34t2.69,3.3a2.53,2.53,0,0,0,2.09-1.11Z" />
                <path class="cls-7"
                    d="M141.65,78.1h2.07v9.3h0l4-5h2.49l-3.56,4.16,4,6.49h-2.6l-2.74-5L143.72,90v3.07h-2.07Z" />
               
            </g>
        </g>
    </g>
</svg>