<svg xmlns="http://www.w3.org/2000/svg" xmlns:xlink="http://www.w3.org/1999/xlink" viewBox="0 0 150 150">
    <defs>
        <style>
            .cls-1 {
                fill: url(#未命名的渐变_30);
            }

            .cls-2 {
                fill: url(#未命名的渐变_44);
            }

            .cls-3 {
                fill: #0b1926;
            }

            .cls-4 {
                fill: #3275b3;
            }

            .cls-5 {
                fill: #16324d;
            }

            .cls-6 {
                stroke-miterlimit: 10;
                fill: url(#未命名的渐变_49);
                stroke: url(#未命名的渐变_36);
            }

            .cls-7 {
                fill: #fff;
            }

            .cls-8 {
                opacity: 0.2;
            }
        </style>
        <linearGradient id="未命名的渐变_30" y1="75" x2="150" y2="75" gradientUnits="userSpaceOnUse">
            <stop offset="0" stop-color="#1e4366" />
            <stop offset="1" stop-color="#245480" />
        </linearGradient>
        <linearGradient id="未命名的渐变_44" x1="75" y1="150" x2="75" gradientUnits="userSpaceOnUse">
            <stop offset="0" stop-color="#1e4366" />
            <stop offset="0.27" stop-color="#1f4669" />
            <stop offset="0.45" stop-color="#214f71" />
            <stop offset="0.61" stop-color="#255e7f" />
            <stop offset="0.75" stop-color="#2a7392" />
            <stop offset="0.87" stop-color="#318eac" />
            <stop offset="0.99" stop-color="#3aafca" />
            <stop offset="1" stop-color="#3ab1cc" />
        </linearGradient>
        <linearGradient id="未命名的渐变_49" x1="75" y1="133.55" x2="75" y2="16.45" gradientUnits="userSpaceOnUse">
            <stop offset="0" stop-color="#61666b" />
            <stop offset="1" stop-color="#7c8b99" />
        </linearGradient>
        <linearGradient id="未命名的渐变_36" x1="75" y1="134.05" x2="75" y2="15.95" gradientUnits="userSpaceOnUse">
            <stop offset="0" stop-color="#61676b" stop-opacity="0" />
            <stop offset="0.21" stop-color="#62686c" stop-opacity="0.01" />
            <stop offset="0.35" stop-color="#666c71" stop-opacity="0.05" />
            <stop offset="0.47" stop-color="#6d7479" stop-opacity="0.12" />
            <stop offset="0.58" stop-color="#777e85" stop-opacity="0.21" />
            <stop offset="0.68" stop-color="#848b93" stop-opacity="0.33" />
            <stop offset="0.77" stop-color="#939ba5" stop-opacity="0.48" />
            <stop offset="0.86" stop-color="#a6aebb" stop-opacity="0.65" />
            <stop offset="0.94" stop-color="#bbc3d3" stop-opacity="0.85" />
            <stop offset="1" stop-color="#cbd4e6" />
        </linearGradient>
    </defs>
    <title>Delete</title>
    <g id="图层_2" data-name="图层 2">
        <g id="单个电脑按键">
            <g id="Delete">
                <path class="cls-1"
                    d="M150,14.09V135.91A14.1,14.1,0,0,1,135.91,150H14.09A14.1,14.1,0,0,1,0,135.91V14.09A14.1,14.1,0,0,1,14.09,0H135.91A14.1,14.1,0,0,1,150,14.09Z" />
                <path class="cls-2"
                    d="M135.91,2A12.1,12.1,0,0,1,148,14.09V135.91A12.1,12.1,0,0,1,135.91,148H14.09A12.1,12.1,0,0,1,2,135.91V14.09A12.1,12.1,0,0,1,14.09,2H135.91m0-2H14.09A14.1,14.1,0,0,0,0,14.09V135.91A14.1,14.1,0,0,0,14.09,150H135.91A14.1,14.1,0,0,0,150,135.91V14.09A14.1,14.1,0,0,0,135.91,0Z" />
                <path class="cls-3"
                    d="M145.52,145.52a14,14,0,0,1-9.91,4.11H14.39a14,14,0,0,1-9.91-4.11l17.1-17.1H128.42Z" />
                <path class="cls-4"
                    d="M145.52,4.48l-17.1,17.1H21.58L4.48,4.48A14,14,0,0,1,14.39.37H135.61A14,14,0,0,1,145.52,4.48Z" />
                <path class="cls-5"
                    d="M149.63,14.39V135.61a14,14,0,0,1-4.11,9.91l-17.1-17.1V21.58l17.1-17.1A14,14,0,0,1,149.63,14.39Z" />
                <path class="cls-5"
                    d="M21.58,21.58V128.42l-17.1,17.1a14,14,0,0,1-4.11-9.91V14.39A14,14,0,0,1,4.48,4.48Z" />
                <rect class="cls-6" x="16.45" y="16.45" width="117.1" height="117.1" rx="9.34" />
                <path class="cls-7"
                    d="M48.54,67.06h5.07A4.85,4.85,0,0,1,58,69.59a4.56,4.56,0,0,1,.66,1.76,29.39,29.39,0,0,1,.11,3.19,21.26,21.26,0,0,1-.17,3.36,4,4,0,0,1-.23.86,8.29,8.29,0,0,1-.41.77,5.2,5.2,0,0,1-1.77,1.75,4.93,4.93,0,0,1-2.75.73H48.54Zm2.19,12.82h2.63A2.93,2.93,0,0,0,56,78.58a2.52,2.52,0,0,0,.47-1.23,26.62,26.62,0,0,0,.09-2.73q0-2-.09-2.79a2.6,2.6,0,0,0-.57-1.37,2.87,2.87,0,0,0-2.58-1.26H50.73Z" />
                <path class="cls-7"
                    d="M63.14,77.5a2.51,2.51,0,0,0,.72,2,2.33,2.33,0,0,0,1.74.68,3.05,3.05,0,0,0,2.26-1l1.5,1.33a4.8,4.8,0,0,1-3.71,1.72,5,5,0,0,1-1.59-.25,4,4,0,0,1-.76-.36,4.1,4.1,0,0,1-.72-.48,4.21,4.21,0,0,1-1.06-1.66,6.69,6.69,0,0,1-.45-2.67,7.58,7.58,0,0,1,.39-2.62,4.67,4.67,0,0,1,1-1.68,3.73,3.73,0,0,1,1.38-.91,4.39,4.39,0,0,1,1.49-.27,4.19,4.19,0,0,1,3,1.2,4.41,4.41,0,0,1,1.26,3.3V77.5Zm4.36-1.76a2.79,2.79,0,0,0-.65-1.89,2.25,2.25,0,0,0-3.06,0,3,3,0,0,0-.65,1.89Z" />
                <path class="cls-7"
                    d="M72.08,67.06h2.07V79.28c0,.48.26.73.78.73h.72v2h-.93a2.89,2.89,0,0,1-1.86-.58,2.34,2.34,0,0,1-.78-2Z" />
                <path class="cls-7"
                    d="M79.05,77.5a2.51,2.51,0,0,0,.72,2,2.35,2.35,0,0,0,1.75.68,3,3,0,0,0,2.25-1l1.51,1.33a4.82,4.82,0,0,1-3.72,1.72A5.08,5.08,0,0,1,80,81.89a4,4,0,0,1-.75-.36,3.83,3.83,0,0,1-.73-.48,4.32,4.32,0,0,1-1.06-1.66A6.7,6.7,0,0,1,77,76.72a7.6,7.6,0,0,1,.38-2.62,4.67,4.67,0,0,1,1-1.68,3.77,3.77,0,0,1,1.39-.91,4.34,4.34,0,0,1,1.48-.27,4.18,4.18,0,0,1,3,1.2,4.41,4.41,0,0,1,1.26,3.3V77.5Zm4.36-1.76a2.79,2.79,0,0,0-.64-1.89,2.26,2.26,0,0,0-3.07,0,3,3,0,0,0-.65,1.89Z" />
                <path class="cls-7"
                    d="M88.12,68.13h2.07v3.24H91.7V73H90.19v6.21c0,.54.23.8.73.79h.78v2H90.62a2.44,2.44,0,0,1-1.79-.69,2.54,2.54,0,0,1-.71-1.93V73h-1V71.37h1Z" />
                <path class="cls-7"
                    d="M95.39,77.5a2.55,2.55,0,0,0,.71,2,2.37,2.37,0,0,0,1.75.68,3.07,3.07,0,0,0,2.26-1l1.5,1.33a4.8,4.8,0,0,1-3.71,1.72,5,5,0,0,1-1.59-.25,4,4,0,0,1-.76-.36,3.47,3.47,0,0,1-.72-.48,4.21,4.21,0,0,1-1.06-1.66,6.69,6.69,0,0,1-.45-2.67,7.58,7.58,0,0,1,.39-2.62,4.53,4.53,0,0,1,1-1.68,3.73,3.73,0,0,1,1.38-.91,4.39,4.39,0,0,1,1.49-.27,4.19,4.19,0,0,1,3,1.2,4.49,4.49,0,0,1,1.26,3.3V77.5Zm4.36-1.76a2.79,2.79,0,0,0-.65-1.89,2.07,2.07,0,0,0-1.53-.6,2,2,0,0,0-1.53.6,2.89,2.89,0,0,0-.65,1.89Z" />
                
            </g>
        </g>
    </g>
</svg>