<svg xmlns="http://www.w3.org/2000/svg" xmlns:xlink="http://www.w3.org/1999/xlink" viewBox="0 0 150 150">
    <defs>
        <style>
            .cls-1 {
                fill: url(#未命名的渐变_30);
            }

            .cls-2 {
                fill: url(#未命名的渐变_44);
            }

            .cls-3 {
                fill: #0b1926;
            }

            .cls-4 {
                fill: #3275b3;
            }

            .cls-5 {
                fill: #16324d;
            }

            .cls-6 {
                stroke-miterlimit: 10;
                fill: url(#未命名的渐变_49);
                stroke: url(#未命名的渐变_36);
            }

            .cls-7 {
                fill: #fff;
            }

            .cls-8 {
                opacity: 0.2;
            }
        </style>
        <linearGradient id="未命名的渐变_30" y1="75" x2="150" y2="75" gradientUnits="userSpaceOnUse">
            <stop offset="0" stop-color="#1e4366" />
            <stop offset="1" stop-color="#245480" />
        </linearGradient>
        <linearGradient id="未命名的渐变_44" x1="75" y1="150" x2="75" gradientUnits="userSpaceOnUse">
            <stop offset="0" stop-color="#1e4366" />
            <stop offset="0.27" stop-color="#1f4669" />
            <stop offset="0.45" stop-color="#214f71" />
            <stop offset="0.61" stop-color="#255e7f" />
            <stop offset="0.75" stop-color="#2a7392" />
            <stop offset="0.87" stop-color="#318eac" />
            <stop offset="0.99" stop-color="#3aafca" />
            <stop offset="1" stop-color="#3ab1cc" />
        </linearGradient>
        <linearGradient id="未命名的渐变_49" x1="75" y1="133.55" x2="75" y2="16.45" gradientUnits="userSpaceOnUse">
            <stop offset="0" stop-color="#61666b" />
            <stop offset="1" stop-color="#7c8b99" />
        </linearGradient>
        <linearGradient id="未命名的渐变_36" x1="75" y1="134.05" x2="75" y2="15.95" gradientUnits="userSpaceOnUse">
            <stop offset="0" stop-color="#61676b" stop-opacity="0" />
            <stop offset="0.21" stop-color="#62686c" stop-opacity="0.01" />
            <stop offset="0.35" stop-color="#666c71" stop-opacity="0.05" />
            <stop offset="0.47" stop-color="#6d7479" stop-opacity="0.12" />
            <stop offset="0.58" stop-color="#777e85" stop-opacity="0.21" />
            <stop offset="0.68" stop-color="#848b93" stop-opacity="0.33" />
            <stop offset="0.77" stop-color="#939ba5" stop-opacity="0.48" />
            <stop offset="0.86" stop-color="#a6aebb" stop-opacity="0.65" />
            <stop offset="0.94" stop-color="#bbc3d3" stop-opacity="0.85" />
            <stop offset="1" stop-color="#cbd4e6" />
        </linearGradient>
    </defs>
    <title>End</title>
    <g id="图层_2" data-name="图层 2">
        <g id="单个电脑按键">
            <g id="End">
                <path class="cls-1"
                    d="M150,14.09V135.91A14.1,14.1,0,0,1,135.91,150H14.09A14.1,14.1,0,0,1,0,135.91V14.09A14.1,14.1,0,0,1,14.09,0H135.91A14.1,14.1,0,0,1,150,14.09Z" />
                <path class="cls-2"
                    d="M135.91,2A12.1,12.1,0,0,1,148,14.09V135.91A12.1,12.1,0,0,1,135.91,148H14.09A12.1,12.1,0,0,1,2,135.91V14.09A12.1,12.1,0,0,1,14.09,2H135.91m0-2H14.09A14.1,14.1,0,0,0,0,14.09V135.91A14.1,14.1,0,0,0,14.09,150H135.91A14.1,14.1,0,0,0,150,135.91V14.09A14.1,14.1,0,0,0,135.91,0Z" />
                <path class="cls-3"
                    d="M145.52,145.52a14,14,0,0,1-9.91,4.11H14.39a14,14,0,0,1-9.91-4.11l17.1-17.1H128.42Z" />
                <path class="cls-4"
                    d="M145.52,4.48l-17.1,17.1H21.58L4.48,4.48A14,14,0,0,1,14.39.37H135.61A14,14,0,0,1,145.52,4.48Z" />
                <path class="cls-5"
                    d="M149.63,14.39V135.61a14,14,0,0,1-4.11,9.91l-17.1-17.1V21.58l17.1-17.1A14,14,0,0,1,149.63,14.39Z" />
                <path class="cls-5"
                    d="M21.58,21.58V128.42l-17.1,17.1a14,14,0,0,1-4.11-9.91V14.39A14,14,0,0,1,4.48,4.48Z" />
                <rect class="cls-6" x="16.45" y="16.45" width="117.1" height="117.1" rx="9.34" />
                <path class="cls-7" d="M59.6,67.06h9.25V69.2H61.79v4.27h6v2h-6v4.4h7.06V82H59.6Z" />
                <path class="cls-7"
                    d="M71.09,71.37h2.07V72.5h0a3.29,3.29,0,0,1,2.68-1.26,3.44,3.44,0,0,1,2.34.93,3.67,3.67,0,0,1,1.11,2.77V82H77.26V75.67A2.33,2.33,0,0,0,76.68,74a1.94,1.94,0,0,0-1.46-.59,2,2,0,0,0-1.47.59,2.33,2.33,0,0,0-.59,1.71V82H71.09Z" />
                <path class="cls-7"
                    d="M88.54,80.9a3.49,3.49,0,0,1-2.67,1.24,3.44,3.44,0,0,1-1.6-.4,3.58,3.58,0,0,1-1.16-1,2.65,2.65,0,0,1-.57-1.36,15.37,15.37,0,0,1-.17-2.71A15.4,15.4,0,0,1,82.54,74a2.66,2.66,0,0,1,.57-1.33,3.15,3.15,0,0,1,2.76-1.38,3.23,3.23,0,0,1,1.46.33,6.35,6.35,0,0,1,1.21.92V67.06h2.07V82H88.54Zm-2-7.53a2,2,0,0,0-1.12.26,1.57,1.57,0,0,0-.63.76,4.25,4.25,0,0,0-.25,1c0,.4-.06.82-.06,1.24a11.22,11.22,0,0,0,.06,1.18,4.44,4.44,0,0,0,.25,1.1,1.77,1.77,0,0,0,.63.76A1.87,1.87,0,0,0,86.5,80a2,2,0,0,0,1.16-.31,1.5,1.5,0,0,0,.59-.79,4.27,4.27,0,0,0,.27-1.08c0-.39,0-.77,0-1.15s0-.8,0-1.18a4.25,4.25,0,0,0-.27-1,1.52,1.52,0,0,0-.59-.78A2,2,0,0,0,86.5,73.37Z" />
               
            </g>
        </g>
    </g>
</svg>