<svg xmlns="http://www.w3.org/2000/svg" xmlns:xlink="http://www.w3.org/1999/xlink" viewBox="0 0 150 319.95">
    <defs>
        <style>
            .cls-1 {
                fill: url(#未命名的渐变_30);
            }

            .cls-2 {
                fill: url(#未命名的渐变_44);
            }

            .cls-3 {
                fill: #0b1926;
            }

            .cls-4 {
                fill: #3275b3;
            }

            .cls-5 {
                fill: #16324d;
            }

            .cls-6 {
                stroke-miterlimit: 10;
                fill: url(#未命名的渐变_49);
                stroke: url(#未命名的渐变_36);
            }

            .cls-7 {
                fill: #fff;
            }

            .cls-8 {
                opacity: 0.2;
            }
        </style>
        <linearGradient id="未命名的渐变_30" y1="159.98" x2="150" y2="159.98" gradientUnits="userSpaceOnUse">
            <stop offset="0" stop-color="#1e4366" />
            <stop offset="1" stop-color="#245480" />
        </linearGradient>
        <linearGradient id="未命名的渐变_44" x1="75" y1="319.95" x2="75" gradientUnits="userSpaceOnUse">
            <stop offset="0" stop-color="#1e4366" />
            <stop offset="0.27" stop-color="#1f4669" />
            <stop offset="0.45" stop-color="#214f71" />
            <stop offset="0.61" stop-color="#255e7f" />
            <stop offset="0.75" stop-color="#2a7392" />
            <stop offset="0.87" stop-color="#318eac" />
            <stop offset="0.99" stop-color="#3aafca" />
            <stop offset="1" stop-color="#3ab1cc" />
        </linearGradient>
        <linearGradient id="未命名的渐变_49" x1="75" y1="303.5" x2="75" y2="16.45" gradientUnits="userSpaceOnUse">
            <stop offset="0" stop-color="#61666b" />
            <stop offset="1" stop-color="#7c8b99" />
        </linearGradient>
        <linearGradient id="未命名的渐变_36" x1="75" y1="304" x2="75" y2="15.95" gradientUnits="userSpaceOnUse">
            <stop offset="0" stop-color="#61676b" stop-opacity="0" />
            <stop offset="0.21" stop-color="#62686c" stop-opacity="0.01" />
            <stop offset="0.35" stop-color="#666c71" stop-opacity="0.05" />
            <stop offset="0.47" stop-color="#6d7479" stop-opacity="0.12" />
            <stop offset="0.58" stop-color="#777e85" stop-opacity="0.21" />
            <stop offset="0.68" stop-color="#848b93" stop-opacity="0.33" />
            <stop offset="0.77" stop-color="#939ba5" stop-opacity="0.48" />
            <stop offset="0.86" stop-color="#a6aebb" stop-opacity="0.65" />
            <stop offset="0.94" stop-color="#bbc3d3" stop-opacity="0.85" />
            <stop offset="1" stop-color="#cbd4e6" />
        </linearGradient>
    </defs>
    <title>Enter 2</title>
    <g id="图层_2" data-name="图层 2">
        <g id="单个电脑按键">
            <g id="Enter_2" data-name="Enter 2">
                <path class="cls-1"
                    d="M150,14.09V305.86A14.1,14.1,0,0,1,135.91,320H14.09A14.1,14.1,0,0,1,0,305.86V14.09A14.1,14.1,0,0,1,14.09,0H135.91A14.1,14.1,0,0,1,150,14.09Z" />
                <path class="cls-2"
                    d="M135.91,2A12.1,12.1,0,0,1,148,14.09V305.86A12.1,12.1,0,0,1,135.91,318H14.09A12.1,12.1,0,0,1,2,305.86V14.09A12.1,12.1,0,0,1,14.09,2H135.91m0-2H14.09A14.1,14.1,0,0,0,0,14.09V305.86A14.1,14.1,0,0,0,14.09,320H135.91A14.1,14.1,0,0,0,150,305.86V14.09A14.1,14.1,0,0,0,135.91,0Z" />
                <path class="cls-3"
                    d="M145.52,315.47a14,14,0,0,1-9.91,4.11H14.39a14,14,0,0,1-9.91-4.11l17.1-17.1H128.42Z" />
                <path class="cls-4"
                    d="M145.52,4.48l-17.1,17.1H21.58L4.48,4.48A14,14,0,0,1,14.39.37H135.61A14,14,0,0,1,145.52,4.48Z" />
                <path class="cls-5"
                    d="M149.63,14.39V305.56a14,14,0,0,1-4.11,9.91l-17.1-17.1V21.58l17.1-17.1A14,14,0,0,1,149.63,14.39Z" />
                <path class="cls-5"
                    d="M21.58,21.58V298.37l-17.1,17.1a14,14,0,0,1-4.11-9.91V14.39A14,14,0,0,1,4.48,4.48Z" />
                <rect class="cls-6" x="16.45" y="16.45" width="117.1" height="287.05" rx="9.34" />
                <path class="cls-7" d="M52.8,145h9.25v2.14H55v4.27h6v2H55v4.4h7.06V160H52.8Z" />
                <path class="cls-7"
                    d="M64.29,149.33h2.07v1.13h0a3.28,3.28,0,0,1,2.68-1.26,3.48,3.48,0,0,1,2.34.93,3.66,3.66,0,0,1,1.1,2.77V160H70.45v-6.34a2.33,2.33,0,0,0-.57-1.7,2.09,2.09,0,0,0-2.93,0,2.29,2.29,0,0,0-.59,1.7V160H64.29Z" />
                <path class="cls-7"
                    d="M75.69,146.09h2.07v3.24h1.51V151H77.76v6.21c0,.54.23.8.74.79h.77v2H78.19a2.4,2.4,0,0,1-1.78-.69,2.51,2.51,0,0,1-.72-1.93V151h-1v-1.64h1Z" />
                <path class="cls-7"
                    d="M83,155.46a2.51,2.51,0,0,0,.72,1.95,2.33,2.33,0,0,0,1.75.68,3,3,0,0,0,2.25-1l1.5,1.33a4.8,4.8,0,0,1-3.71,1.72,5.08,5.08,0,0,1-1.59-.25,3.69,3.69,0,0,1-.75-.36,3.83,3.83,0,0,1-.73-.48,4.21,4.21,0,0,1-1.06-1.66,6.69,6.69,0,0,1-.45-2.67,7.58,7.58,0,0,1,.39-2.62,4.67,4.67,0,0,1,1-1.68,3.73,3.73,0,0,1,1.38-.91,4.43,4.43,0,0,1,1.49-.27,4.18,4.18,0,0,1,3,1.2,4.41,4.41,0,0,1,1.26,3.3v1.76Zm4.36-1.76a2.79,2.79,0,0,0-.65-1.89,2.25,2.25,0,0,0-3.06,0A3,3,0,0,0,83,153.7Z" />
                <path class="cls-7"
                    d="M91.91,149.33H94v1.13h0a3.39,3.39,0,0,1,4.85-.44l-1.52,1.84a2.14,2.14,0,0,0-1.36-.53,1.94,1.94,0,0,0-1.36.53,2.18,2.18,0,0,0-.66,1.7V160H91.91Z" />
               
            </g>
        </g>
    </g>
</svg>