<svg xmlns="http://www.w3.org/2000/svg" xmlns:xlink="http://www.w3.org/1999/xlink" viewBox="0 0 150 150">
    <defs>
        <style>
            .cls-1 {
                fill: url(#未命名的渐变_30);
            }

            .cls-2 {
                fill: url(#未命名的渐变_44);
            }

            .cls-3 {
                fill: #0b1926;
            }

            .cls-4 {
                fill: #3275b3;
            }

            .cls-5 {
                fill: #16324d;
            }

            .cls-6 {
                stroke-miterlimit: 10;
                fill: url(#未命名的渐变_49);
                stroke: url(#未命名的渐变_36);
            }

            .cls-7 {
                fill: #fff;
            }

            .cls-8 {
                opacity: 0.2;
            }
        </style>
        <linearGradient id="未命名的渐变_30" y1="75" x2="150" y2="75" gradientUnits="userSpaceOnUse">
            <stop offset="0" stop-color="#1e4366" />
            <stop offset="1" stop-color="#245480" />
        </linearGradient>
        <linearGradient id="未命名的渐变_44" x1="75" y1="150" x2="75" gradientUnits="userSpaceOnUse">
            <stop offset="0" stop-color="#1e4366" />
            <stop offset="0.27" stop-color="#1f4669" />
            <stop offset="0.45" stop-color="#214f71" />
            <stop offset="0.61" stop-color="#255e7f" />
            <stop offset="0.75" stop-color="#2a7392" />
            <stop offset="0.87" stop-color="#318eac" />
            <stop offset="0.99" stop-color="#3aafca" />
            <stop offset="1" stop-color="#3ab1cc" />
        </linearGradient>
        <linearGradient id="未命名的渐变_49" x1="75" y1="133.55" x2="75" y2="16.45" gradientUnits="userSpaceOnUse">
            <stop offset="0" stop-color="#61666b" />
            <stop offset="1" stop-color="#7c8b99" />
        </linearGradient>
        <linearGradient id="未命名的渐变_36" x1="75" y1="134.05" x2="75" y2="15.95" gradientUnits="userSpaceOnUse">
            <stop offset="0" stop-color="#61676b" stop-opacity="0" />
            <stop offset="0.21" stop-color="#62686c" stop-opacity="0.01" />
            <stop offset="0.35" stop-color="#666c71" stop-opacity="0.05" />
            <stop offset="0.47" stop-color="#6d7479" stop-opacity="0.12" />
            <stop offset="0.58" stop-color="#777e85" stop-opacity="0.21" />
            <stop offset="0.68" stop-color="#848b93" stop-opacity="0.33" />
            <stop offset="0.77" stop-color="#939ba5" stop-opacity="0.48" />
            <stop offset="0.86" stop-color="#a6aebb" stop-opacity="0.65" />
            <stop offset="0.94" stop-color="#bbc3d3" stop-opacity="0.85" />
            <stop offset="1" stop-color="#cbd4e6" />
        </linearGradient>
    </defs>
    <title>F6</title>
    <g id="图层_2" data-name="图层 2">
        <g id="单个电脑按键">
            <g id="F6">
                <path class="cls-1"
                    d="M150,14.09V135.91A14.1,14.1,0,0,1,135.91,150H14.09A14.1,14.1,0,0,1,0,135.91V14.09A14.1,14.1,0,0,1,14.09,0H135.91A14.1,14.1,0,0,1,150,14.09Z" />
                <path class="cls-2"
                    d="M135.91,2A12.1,12.1,0,0,1,148,14.09V135.91A12.1,12.1,0,0,1,135.91,148H14.09A12.1,12.1,0,0,1,2,135.91V14.09A12.1,12.1,0,0,1,14.09,2H135.91m0-2H14.09A14.1,14.1,0,0,0,0,14.09V135.91A14.1,14.1,0,0,0,14.09,150H135.91A14.1,14.1,0,0,0,150,135.91V14.09A14.1,14.1,0,0,0,135.91,0Z" />
                <path class="cls-3"
                    d="M145.52,145.52a14,14,0,0,1-9.91,4.11H14.39a14,14,0,0,1-9.91-4.11l17.1-17.1H128.42Z" />
                <path class="cls-4"
                    d="M145.52,4.48l-17.1,17.1H21.58L4.48,4.48A14,14,0,0,1,14.39.37H135.61A14,14,0,0,1,145.52,4.48Z" />
                <path class="cls-5"
                    d="M149.63,14.39V135.61a14,14,0,0,1-4.11,9.91l-17.1-17.1V21.58l17.1-17.1A14,14,0,0,1,149.63,14.39Z" />
                <path class="cls-5"
                    d="M21.58,21.58V128.42l-17.1,17.1a14,14,0,0,1-4.11-9.91V14.39A14,14,0,0,1,4.48,4.48Z" />
                <rect class="cls-6" x="16.45" y="16.45" width="117.1" height="117.1" rx="9.34" />
                <path class="cls-7" d="M59.31,63H75.17v3.66H63.07v7.58H73.4V77.7H63.07v11H59.31Z" />
                <path class="cls-7"
                    d="M89.39,62.76a2.6,2.6,0,0,1-.17.38l-.5,1L88,65.66l-.89,1.78c-.31.62-.62,1.24-1,1.88l-.93,1.81-.81,1.56c-.25.47-.46.85-.62,1.13a2.73,2.73,0,0,1,1.15-.36,11.74,11.74,0,0,1,1.49,0,5.71,5.71,0,0,1,2.12.42,5.59,5.59,0,0,1,1.55,1,5.7,5.7,0,0,1,1.08,1.29,8.44,8.44,0,0,1,.68,1.39,6.89,6.89,0,0,1,.34,1.27,5.47,5.47,0,0,1,.1.92v1c0,.23,0,.46,0,.69s0,.44,0,.6,0,.3-.11.64a8.56,8.56,0,0,1-.35,1.23,9.52,9.52,0,0,1-.73,1.53,6.87,6.87,0,0,1-1.25,1.55,7.44,7.44,0,0,1-1.88,1.26,7.75,7.75,0,0,1-2.64.65,8,8,0,0,1-2.83-.21,6.62,6.62,0,0,1-2.12-1,6.28,6.28,0,0,1-1.5-1.5,8.15,8.15,0,0,1-1.4-3.47,5.73,5.73,0,0,1,0-1.41c.07-.57.15-1.08.23-1.53s.18-.89.29-1.3.24-.81.38-1.21.3-.83.49-1.3c0-.12.17-.4.39-.84L80,73.45c.31-.65.66-1.36,1-2.13s.78-1.56,1.16-2.35l3.08-6.21Zm-.74,18.76c0-.45,0-.94-.05-1.48a4.33,4.33,0,0,0-.4-1.54,3.2,3.2,0,0,0-1.11-1.25,4.42,4.42,0,0,0-2.2-.64,3,3,0,0,0-1.21.14,3.36,3.36,0,0,0-1,.53,3.55,3.55,0,0,0-.73.77,4.78,4.78,0,0,0-.51.85,3.78,3.78,0,0,0-.29.78,2.44,2.44,0,0,0-.09.55c0,.3,0,.62,0,1a7.76,7.76,0,0,0,.11,1.07,4.84,4.84,0,0,0,.33,1,2.79,2.79,0,0,0,.65.89,3.31,3.31,0,0,0,1.08.63,4.84,4.84,0,0,0,1.64.25,3.64,3.64,0,0,0,1.38-.21,3.1,3.1,0,0,0,1-.56,3,3,0,0,0,.68-.76,4,4,0,0,0,.41-.83A4.38,4.38,0,0,0,88.6,82,4.3,4.3,0,0,0,88.65,81.52Z" />
               
            </g>
        </g>
    </g>
</svg>