<svg xmlns="http://www.w3.org/2000/svg" xmlns:xlink="http://www.w3.org/1999/xlink" viewBox="0 0 150 150">
    <defs>
        <style>
            .cls-1 {
                fill: url(#未命名的渐变_30);
            }

            .cls-2 {
                fill: url(#未命名的渐变_44);
            }

            .cls-3 {
                fill: #0b1926;
            }

            .cls-4 {
                fill: #3275b3;
            }

            .cls-5 {
                fill: #16324d;
            }

            .cls-6 {
                stroke-miterlimit: 10;
                fill: url(#未命名的渐变_49);
                stroke: url(#未命名的渐变_36);
            }

            .cls-7 {
                fill: #fff;
            }

            .cls-8 {
                opacity: 0.2;
            }
        </style>
        <linearGradient id="未命名的渐变_30" y1="75" x2="150" y2="75" gradientUnits="userSpaceOnUse">
            <stop offset="0" stop-color="#1e4366" />
            <stop offset="1" stop-color="#245480" />
        </linearGradient>
        <linearGradient id="未命名的渐变_44" x1="75" y1="150" x2="75" gradientUnits="userSpaceOnUse">
            <stop offset="0" stop-color="#1e4366" />
            <stop offset="0.27" stop-color="#1f4669" />
            <stop offset="0.45" stop-color="#214f71" />
            <stop offset="0.61" stop-color="#255e7f" />
            <stop offset="0.75" stop-color="#2a7392" />
            <stop offset="0.87" stop-color="#318eac" />
            <stop offset="0.99" stop-color="#3aafca" />
            <stop offset="1" stop-color="#3ab1cc" />
        </linearGradient>
        <linearGradient id="未命名的渐变_49" x1="75" y1="133.55" x2="75" y2="16.45" gradientUnits="userSpaceOnUse">
            <stop offset="0" stop-color="#61666b" />
            <stop offset="1" stop-color="#7c8b99" />
        </linearGradient>
        <linearGradient id="未命名的渐变_36" x1="75" y1="134.05" x2="75" y2="15.95" gradientUnits="userSpaceOnUse">
            <stop offset="0" stop-color="#61676b" stop-opacity="0" />
            <stop offset="0.21" stop-color="#62686c" stop-opacity="0.01" />
            <stop offset="0.35" stop-color="#666c71" stop-opacity="0.05" />
            <stop offset="0.47" stop-color="#6d7479" stop-opacity="0.12" />
            <stop offset="0.58" stop-color="#777e85" stop-opacity="0.21" />
            <stop offset="0.68" stop-color="#848b93" stop-opacity="0.33" />
            <stop offset="0.77" stop-color="#939ba5" stop-opacity="0.48" />
            <stop offset="0.86" stop-color="#a6aebb" stop-opacity="0.65" />
            <stop offset="0.94" stop-color="#bbc3d3" stop-opacity="0.85" />
            <stop offset="1" stop-color="#cbd4e6" />
        </linearGradient>
    </defs>
    <title>F9</title>
    <g id="图层_2" data-name="图层 2">
        <g id="单个电脑按键">
            <g id="F9">
                <path class="cls-1"
                    d="M150,14.09V135.91A14.1,14.1,0,0,1,135.91,150H14.09A14.1,14.1,0,0,1,0,135.91V14.09A14.1,14.1,0,0,1,14.09,0H135.91A14.1,14.1,0,0,1,150,14.09Z" />
                <path class="cls-2"
                    d="M135.91,2A12.1,12.1,0,0,1,148,14.09V135.91A12.1,12.1,0,0,1,135.91,148H14.09A12.1,12.1,0,0,1,2,135.91V14.09A12.1,12.1,0,0,1,14.09,2H135.91m0-2H14.09A14.1,14.1,0,0,0,0,14.09V135.91A14.1,14.1,0,0,0,14.09,150H135.91A14.1,14.1,0,0,0,150,135.91V14.09A14.1,14.1,0,0,0,135.91,0Z" />
                <path class="cls-3"
                    d="M145.52,145.52a14,14,0,0,1-9.91,4.11H14.39a14,14,0,0,1-9.91-4.11l17.1-17.1H128.42Z" />
                <path class="cls-4"
                    d="M145.52,4.48l-17.1,17.1H21.58L4.48,4.48A14,14,0,0,1,14.39.37H135.61A14,14,0,0,1,145.52,4.48Z" />
                <path class="cls-5"
                    d="M149.63,14.39V135.61a14,14,0,0,1-4.11,9.91l-17.1-17.1V21.58l17.1-17.1A14,14,0,0,1,149.63,14.39Z" />
                <path class="cls-5"
                    d="M21.58,21.58V128.42l-17.1,17.1a14,14,0,0,1-4.11-9.91V14.39A14,14,0,0,1,4.48,4.48Z" />
                <rect class="cls-6" x="16.45" y="16.45" width="117.1" height="117.1" rx="9.34" />
                <path class="cls-7" d="M59.31,63H75.17v3.66H63.07v7.58H73.4V77.7H63.07v11H59.31Z" />
                <path class="cls-7"
                    d="M79.83,88.65a3.76,3.76,0,0,1,.29-.64L81,86.35l1.14-2.27c.43-.83.84-1.65,1.25-2.46s.79-1.55,1.15-2.23.65-1.21.87-1.6a2.73,2.73,0,0,1-1.15.36,11.63,11.63,0,0,1-1.48,0,5.63,5.63,0,0,1-2-.42,5.37,5.37,0,0,1-1.51-1,5.83,5.83,0,0,1-1-1.29,9.33,9.33,0,0,1-.68-1.39,8.37,8.37,0,0,1-.37-1.27,5.69,5.69,0,0,1-.11-.92c0-.07,0-.2,0-.39s0-.39,0-.62,0-.46,0-.7a4.69,4.69,0,0,1,0-.59c0-.09,0-.29.12-.63a7,7,0,0,1,.36-1.2,8.63,8.63,0,0,1,.74-1.5,6.38,6.38,0,0,1,1.23-1.51,7.06,7.06,0,0,1,1.89-1.21A8,8,0,0,1,84,62.92a8.18,8.18,0,0,1,2.82.19,6.57,6.57,0,0,1,2.1,1,5.7,5.7,0,0,1,1.46,1.48A7.69,7.69,0,0,1,91.71,69a5.51,5.51,0,0,1,0,1.39c-.07.58-.14,1.09-.22,1.54s-.18.88-.3,1.29S91,74,90.85,74.4s-.31.83-.49,1.3c0,.13-.18.41-.38.84s-.47,1-.78,1.59l-1,2.09c-.37.77-.74,1.54-1.13,2.32l-3,6.11Zm.79-18.56c0,.46,0,1,.07,1.51a4.39,4.39,0,0,0,.41,1.56,3.28,3.28,0,0,0,1.08,1.25,4,4,0,0,0,2.08.59,3.14,3.14,0,0,0,1.21-.17,4,4,0,0,0,1-.54,3.65,3.65,0,0,0,.72-.75,4.72,4.72,0,0,0,.51-.84,3.16,3.16,0,0,0,.29-.76,2.5,2.5,0,0,0,.09-.57c0-.29,0-.62,0-1a8.69,8.69,0,0,0-.11-1.11,4.62,4.62,0,0,0-.32-1.08,2.77,2.77,0,0,0-.65-.9,3.1,3.1,0,0,0-1.09-.61,4.49,4.49,0,0,0-1.64-.17,3.29,3.29,0,0,0-1.78.55,4.22,4.22,0,0,0-1.1,1.09,3.85,3.85,0,0,0-.56,1.16A3.21,3.21,0,0,0,80.62,70.09Z" />
               
            </g>
        </g>
    </g>
</svg>