<svg xmlns="http://www.w3.org/2000/svg" xmlns:xlink="http://www.w3.org/1999/xlink" viewBox="0 0 150 150">
    <defs>
        <style>
            .cls-1 {
                fill: url(#未命名的渐变_30);
            }

            .cls-2 {
                fill: url(#未命名的渐变_44);
            }

            .cls-3 {
                fill: #0b1926;
            }

            .cls-4 {
                fill: #3275b3;
            }

            .cls-5 {
                fill: #16324d;
            }

            .cls-6 {
                stroke-miterlimit: 10;
                fill: url(#未命名的渐变_49);
                stroke: url(#未命名的渐变_36);
            }

            .cls-7 {
                fill: #fff;
            }

            .cls-8 {
                opacity: 0.2;
            }
        </style>
        <linearGradient id="未命名的渐变_30" y1="75" x2="150" y2="75" gradientUnits="userSpaceOnUse">
            <stop offset="0" stop-color="#1e4366" />
            <stop offset="1" stop-color="#245480" />
        </linearGradient>
        <linearGradient id="未命名的渐变_44" x1="75" y1="150" x2="75" gradientUnits="userSpaceOnUse">
            <stop offset="0" stop-color="#1e4366" />
            <stop offset="0.27" stop-color="#1f4669" />
            <stop offset="0.45" stop-color="#214f71" />
            <stop offset="0.61" stop-color="#255e7f" />
            <stop offset="0.75" stop-color="#2a7392" />
            <stop offset="0.87" stop-color="#318eac" />
            <stop offset="0.99" stop-color="#3aafca" />
            <stop offset="1" stop-color="#3ab1cc" />
        </linearGradient>
        <linearGradient id="未命名的渐变_49" x1="75" y1="133.55" x2="75" y2="16.45" gradientUnits="userSpaceOnUse">
            <stop offset="0" stop-color="#61666b" />
            <stop offset="1" stop-color="#7c8b99" />
        </linearGradient>
        <linearGradient id="未命名的渐变_36" x1="75" y1="134.05" x2="75" y2="15.95" gradientUnits="userSpaceOnUse">
            <stop offset="0" stop-color="#61676b" stop-opacity="0" />
            <stop offset="0.21" stop-color="#62686c" stop-opacity="0.01" />
            <stop offset="0.35" stop-color="#666c71" stop-opacity="0.05" />
            <stop offset="0.47" stop-color="#6d7479" stop-opacity="0.12" />
            <stop offset="0.58" stop-color="#777e85" stop-opacity="0.21" />
            <stop offset="0.68" stop-color="#848b93" stop-opacity="0.33" />
            <stop offset="0.77" stop-color="#939ba5" stop-opacity="0.48" />
            <stop offset="0.86" stop-color="#a6aebb" stop-opacity="0.65" />
            <stop offset="0.94" stop-color="#bbc3d3" stop-opacity="0.85" />
            <stop offset="1" stop-color="#cbd4e6" />
        </linearGradient>
    </defs>
    <title>Home</title>
    <g id="图层_2" data-name="图层 2">
        <g id="单个电脑按键">
            <g id="Home">
                <path class="cls-1"
                    d="M150,14.09V135.91A14.1,14.1,0,0,1,135.91,150H14.09A14.1,14.1,0,0,1,0,135.91V14.09A14.1,14.1,0,0,1,14.09,0H135.91A14.1,14.1,0,0,1,150,14.09Z" />
                <path class="cls-2"
                    d="M135.91,2A12.1,12.1,0,0,1,148,14.09V135.91A12.1,12.1,0,0,1,135.91,148H14.09A12.1,12.1,0,0,1,2,135.91V14.09A12.1,12.1,0,0,1,14.09,2H135.91m0-2H14.09A14.1,14.1,0,0,0,0,14.09V135.91A14.1,14.1,0,0,0,14.09,150H135.91A14.1,14.1,0,0,0,150,135.91V14.09A14.1,14.1,0,0,0,135.91,0Z" />
                <path class="cls-3"
                    d="M145.52,145.52a14,14,0,0,1-9.91,4.11H14.39a14,14,0,0,1-9.91-4.11l17.1-17.1H128.42Z" />
                <path class="cls-4"
                    d="M145.52,4.48l-17.1,17.1H21.58L4.48,4.48A14,14,0,0,1,14.39.37H135.61A14,14,0,0,1,145.52,4.48Z" />
                <path class="cls-5"
                    d="M149.63,14.39V135.61a14,14,0,0,1-4.11,9.91l-17.1-17.1V21.58l17.1-17.1A14,14,0,0,1,149.63,14.39Z" />
                <path class="cls-5"
                    d="M21.58,21.58V128.42l-17.1,17.1a14,14,0,0,1-4.11-9.91V14.39A14,14,0,0,1,4.48,4.48Z" />
                <rect class="cls-6" x="16.45" y="16.45" width="117.1" height="117.1" rx="9.34" />
                <path class="cls-7" d="M58.22,75.48H52.47V82H50.28v-15h2.19v6.41h5.75V67.06h2.19V82H58.22Z" />
                <path class="cls-7"
                    d="M63.19,76.68a9.6,9.6,0,0,1,.27-2.59,3.78,3.78,0,0,1,.85-1.49,3.87,3.87,0,0,1,1.19-.94,4.22,4.22,0,0,1,1.94-.42,4.34,4.34,0,0,1,2,.42,3.84,3.84,0,0,1,1.15,1,3.33,3.33,0,0,1,.87,1.49,10.51,10.51,0,0,1,.25,2.58,10.36,10.36,0,0,1-.25,2.57,3.67,3.67,0,0,1-.87,1.52,3.63,3.63,0,0,1-.49.46,2.24,2.24,0,0,1-.67.45,4.12,4.12,0,0,1-2,.46,4.06,4.06,0,0,1-1.94-.46,3.85,3.85,0,0,1-1.19-.91,4.13,4.13,0,0,1-.85-1.52A9.34,9.34,0,0,1,63.19,76.68Zm6.43,0a10.56,10.56,0,0,0-.1-1.66,2,2,0,0,0-.41-.89,1.55,1.55,0,0,0-.68-.57,2.19,2.19,0,0,0-1-.21,2.3,2.3,0,0,0-1,.21,1.84,1.84,0,0,0-.69.57,2.49,2.49,0,0,0-.39.89,11.2,11.2,0,0,0,0,3.27,2.64,2.64,0,0,0,.39.92,2.43,2.43,0,0,0,.69.55,2.17,2.17,0,0,0,1,.22,2.07,2.07,0,0,0,1-.22,1.93,1.93,0,0,0,.68-.55,2.09,2.09,0,0,0,.41-.92A10.09,10.09,0,0,0,69.62,76.7Z" />
                <path class="cls-7"
                    d="M74.12,71.37h2.07V72.5h0A3.44,3.44,0,0,1,79,71.24a3.89,3.89,0,0,1,1.78.38,5.05,5.05,0,0,1,1.22,1,4.21,4.21,0,0,1,3.36-1.39,3.66,3.66,0,0,1,2.42.93,3.61,3.61,0,0,1,1.13,2.77V82H86.84V75.67A2.28,2.28,0,0,0,86.25,74a2.1,2.1,0,0,0-1.53-.59,2.15,2.15,0,0,0-1.55.59,2.25,2.25,0,0,0-.61,1.71V82H80.49V75.67a2.28,2.28,0,0,0-.6-1.71,2.3,2.3,0,0,0-3.08,0,2.25,2.25,0,0,0-.62,1.71V82H74.12Z" />
                <path class="cls-7"
                    d="M93.65,77.5a2.51,2.51,0,0,0,.72,2,2.33,2.33,0,0,0,1.75.68,3,3,0,0,0,2.25-1l1.5,1.33a4.8,4.8,0,0,1-3.71,1.72,5.39,5.39,0,0,1-1.59-.25,3.69,3.69,0,0,1-.75-.36,3.83,3.83,0,0,1-.73-.48A4.21,4.21,0,0,1,92,79.39a6.69,6.69,0,0,1-.45-2.67A7.54,7.54,0,0,1,92,74.1a4.67,4.67,0,0,1,1-1.68,3.73,3.73,0,0,1,1.38-.91,4.39,4.39,0,0,1,1.49-.27,4.19,4.19,0,0,1,3,1.2,4.41,4.41,0,0,1,1.26,3.3V77.5ZM98,75.74a2.79,2.79,0,0,0-.65-1.89,2.25,2.25,0,0,0-3.06,0,3,3,0,0,0-.65,1.89Z" />
                
            </g>
        </g>
    </g>
</svg>