<svg xmlns="http://www.w3.org/2000/svg" xmlns:xlink="http://www.w3.org/1999/xlink" viewBox="0 0 150 150">
    <defs>
        <style>
            .cls-1 {
                fill: url(#未命名的渐变_30);
            }

            .cls-2 {
                fill: url(#未命名的渐变_44);
            }

            .cls-3 {
                fill: #0b1926;
            }

            .cls-4 {
                fill: #3275b3;
            }

            .cls-5 {
                fill: #16324d;
            }

            .cls-6 {
                stroke-miterlimit: 10;
                fill: url(#未命名的渐变_49);
                stroke: url(#未命名的渐变_36);
            }

            .cls-7 {
                fill: #fff;
            }

            .cls-8 {
                opacity: 0.2;
            }
        </style>
        <linearGradient id="未命名的渐变_30" y1="75" x2="150" y2="75" gradientUnits="userSpaceOnUse">
            <stop offset="0" stop-color="#1e4366" />
            <stop offset="1" stop-color="#245480" />
        </linearGradient>
        <linearGradient id="未命名的渐变_44" x1="75" y1="150" x2="75" gradientUnits="userSpaceOnUse">
            <stop offset="0" stop-color="#1e4366" />
            <stop offset="0.27" stop-color="#1f4669" />
            <stop offset="0.45" stop-color="#214f71" />
            <stop offset="0.61" stop-color="#255e7f" />
            <stop offset="0.75" stop-color="#2a7392" />
            <stop offset="0.87" stop-color="#318eac" />
            <stop offset="0.99" stop-color="#3aafca" />
            <stop offset="1" stop-color="#3ab1cc" />
        </linearGradient>
        <linearGradient id="未命名的渐变_49" x1="75" y1="133.55" x2="75" y2="16.45" gradientUnits="userSpaceOnUse">
            <stop offset="0" stop-color="#61666b" />
            <stop offset="1" stop-color="#7c8b99" />
        </linearGradient>
        <linearGradient id="未命名的渐变_36" x1="75" y1="134.05" x2="75" y2="15.95" gradientUnits="userSpaceOnUse">
            <stop offset="0" stop-color="#61676b" stop-opacity="0" />
            <stop offset="0.21" stop-color="#62686c" stop-opacity="0.01" />
            <stop offset="0.35" stop-color="#666c71" stop-opacity="0.05" />
            <stop offset="0.47" stop-color="#6d7479" stop-opacity="0.12" />
            <stop offset="0.58" stop-color="#777e85" stop-opacity="0.21" />
            <stop offset="0.68" stop-color="#848b93" stop-opacity="0.33" />
            <stop offset="0.77" stop-color="#939ba5" stop-opacity="0.48" />
            <stop offset="0.86" stop-color="#a6aebb" stop-opacity="0.65" />
            <stop offset="0.94" stop-color="#bbc3d3" stop-opacity="0.85" />
            <stop offset="1" stop-color="#cbd4e6" />
        </linearGradient>
    </defs>
    <title>Insert</title>
    <g id="图层_2" data-name="图层 2">
        <g id="单个电脑按键">
            <g id="Insert">
                <path class="cls-1"
                    d="M150,14.09V135.91A14.1,14.1,0,0,1,135.91,150H14.09A14.1,14.1,0,0,1,0,135.91V14.09A14.1,14.1,0,0,1,14.09,0H135.91A14.1,14.1,0,0,1,150,14.09Z" />
                <path class="cls-2"
                    d="M135.91,2A12.1,12.1,0,0,1,148,14.09V135.91A12.1,12.1,0,0,1,135.91,148H14.09A12.1,12.1,0,0,1,2,135.91V14.09A12.1,12.1,0,0,1,14.09,2H135.91m0-2H14.09A14.1,14.1,0,0,0,0,14.09V135.91A14.1,14.1,0,0,0,14.09,150H135.91A14.1,14.1,0,0,0,150,135.91V14.09A14.1,14.1,0,0,0,135.91,0Z" />
                <path class="cls-3"
                    d="M145.52,145.52a14,14,0,0,1-9.91,4.11H14.39a14,14,0,0,1-9.91-4.11l17.1-17.1H128.42Z" />
                <path class="cls-4"
                    d="M145.52,4.48l-17.1,17.1H21.58L4.48,4.48A14,14,0,0,1,14.39.37H135.61A14,14,0,0,1,145.52,4.48Z" />
                <path class="cls-5"
                    d="M149.63,14.39V135.61a14,14,0,0,1-4.11,9.91l-17.1-17.1V21.58l17.1-17.1A14,14,0,0,1,149.63,14.39Z" />
                <path class="cls-5"
                    d="M21.58,21.58V128.42l-17.1,17.1a14,14,0,0,1-4.11-9.91V14.39A14,14,0,0,1,4.48,4.48Z" />
                <rect class="cls-6" x="16.45" y="16.45" width="117.1" height="117.1" rx="9.34" />
                <path class="cls-7" d="M50.89,67.06h2.19V82H50.89Z" />
                <path class="cls-7"
                    d="M56.12,71.37h2.07V72.5h0a3.28,3.28,0,0,1,2.68-1.26,3.48,3.48,0,0,1,2.34.93,3.66,3.66,0,0,1,1.1,2.77V82H62.28V75.67A2.35,2.35,0,0,0,61.71,74a2,2,0,0,0-1.46-.59,2,2,0,0,0-1.48.59,2.32,2.32,0,0,0-.58,1.71V82H56.12Z" />
                <path class="cls-7"
                    d="M67.7,78.76A4.24,4.24,0,0,0,71,80.13a2.71,2.71,0,0,0,1.47-.36,1.12,1.12,0,0,0,.57-1,.92.92,0,0,0-.34-.8,1.77,1.77,0,0,0-.93-.25l-1.83-.17a3.43,3.43,0,0,1-2.12-.9,2.74,2.74,0,0,1-.85-2.12,2.88,2.88,0,0,1,1.12-2.46,4.32,4.32,0,0,1,2.72-.82,8.33,8.33,0,0,1,1.29.09,5.36,5.36,0,0,1,2.77,1.36l-1.29,1.55a6.4,6.4,0,0,0-1.26-.74,4.16,4.16,0,0,0-1.51-.25,2,2,0,0,0-1.37.36,1.15,1.15,0,0,0-.4.92.71.71,0,0,0,.3.63,1.86,1.86,0,0,0,1.06.38l1.71.13a3.18,3.18,0,0,1,2.33,1,3.52,3.52,0,0,1,.67,2.19,2.78,2.78,0,0,1-1.23,2.39,5.17,5.17,0,0,1-3,.89,6.47,6.47,0,0,1-4.54-1.91Z" />
                <path class="cls-7"
                    d="M79,77.5a2.51,2.51,0,0,0,.72,2,2.35,2.35,0,0,0,1.75.68,3,3,0,0,0,2.25-1l1.5,1.33a4.79,4.79,0,0,1-3.71,1.72A5.39,5.39,0,0,1,80,81.89a4,4,0,0,1-.75-.36,3.83,3.83,0,0,1-.73-.48,4.32,4.32,0,0,1-1.06-1.66A6.69,6.69,0,0,1,77,76.72a7.54,7.54,0,0,1,.39-2.62,4.67,4.67,0,0,1,1-1.68,3.69,3.69,0,0,1,1.39-.91,4.34,4.34,0,0,1,1.48-.27,4.18,4.18,0,0,1,3,1.2,4.41,4.41,0,0,1,1.26,3.3V77.5Zm4.36-1.76a2.79,2.79,0,0,0-.64-1.89,2.26,2.26,0,0,0-3.07,0A3,3,0,0,0,79,75.74Z" />
                <path class="cls-7"
                    d="M88,71.37h2.07V72.5h0a3.41,3.41,0,0,1,4.85-.45L93.43,73.9a2.17,2.17,0,0,0-1.36-.53,2,2,0,0,0-1.37.53,2.14,2.14,0,0,0-.65,1.7V82H88Z" />
                <path class="cls-7"
                    d="M96.27,68.13h2.07v3.24h1.51V73H98.34v6.21c0,.54.23.8.74.78h.77v2H98.77A2.4,2.4,0,0,1,97,81.32a2.51,2.51,0,0,1-.72-1.93V73h-1V71.37h1Z" />
               
            </g>
        </g>
    </g>
</svg>