<svg xmlns="http://www.w3.org/2000/svg" xmlns:xlink="http://www.w3.org/1999/xlink" viewBox="0 0 150 150">
    <defs>
        <style>
            .cls-1 {
                fill: url(#未命名的渐变_30);
            }

            .cls-2 {
                fill: url(#未命名的渐变_44);
            }

            .cls-3 {
                fill: #0b1926;
            }

            .cls-4 {
                fill: #3275b3;
            }

            .cls-5 {
                fill: #16324d;
            }

            .cls-6 {
                stroke-miterlimit: 10;
                fill: url(#未命名的渐变_49);
                stroke: url(#未命名的渐变_36);
            }

            .cls-7 {
                fill: #fff;
            }

            .cls-8 {
                opacity: 0.2;
            }
        </style>
        <linearGradient id="未命名的渐变_30" y1="75" x2="150" y2="75" gradientUnits="userSpaceOnUse">
            <stop offset="0" stop-color="#1e4366" />
            <stop offset="1" stop-color="#245480" />
        </linearGradient>
        <linearGradient id="未命名的渐变_44" x1="75" y1="150" x2="75" gradientUnits="userSpaceOnUse">
            <stop offset="0" stop-color="#1e4366" />
            <stop offset="0.27" stop-color="#1f4669" />
            <stop offset="0.45" stop-color="#214f71" />
            <stop offset="0.61" stop-color="#255e7f" />
            <stop offset="0.75" stop-color="#2a7392" />
            <stop offset="0.87" stop-color="#318eac" />
            <stop offset="0.99" stop-color="#3aafca" />
            <stop offset="1" stop-color="#3ab1cc" />
        </linearGradient>
        <linearGradient id="未命名的渐变_49" x1="75" y1="133.55" x2="75" y2="16.45" gradientUnits="userSpaceOnUse">
            <stop offset="0" stop-color="#61666b" />
            <stop offset="1" stop-color="#7c8b99" />
        </linearGradient>
        <linearGradient id="未命名的渐变_36" x1="75" y1="134.05" x2="75" y2="15.95" gradientUnits="userSpaceOnUse">
            <stop offset="0" stop-color="#61676b" stop-opacity="0" />
            <stop offset="0.21" stop-color="#62686c" stop-opacity="0.01" />
            <stop offset="0.35" stop-color="#666c71" stop-opacity="0.05" />
            <stop offset="0.47" stop-color="#6d7479" stop-opacity="0.12" />
            <stop offset="0.58" stop-color="#777e85" stop-opacity="0.21" />
            <stop offset="0.68" stop-color="#848b93" stop-opacity="0.33" />
            <stop offset="0.77" stop-color="#939ba5" stop-opacity="0.48" />
            <stop offset="0.86" stop-color="#a6aebb" stop-opacity="0.65" />
            <stop offset="0.94" stop-color="#bbc3d3" stop-opacity="0.85" />
            <stop offset="1" stop-color="#cbd4e6" />
        </linearGradient>
    </defs>
    <title>Page Down</title>
    <g id="图层_2" data-name="图层 2">
        <g id="单个电脑按键">
            <g id="Page_Down" data-name="Page Down">
                <path class="cls-1"
                    d="M150,14.09V135.91A14.1,14.1,0,0,1,135.91,150H14.09A14.1,14.1,0,0,1,0,135.91V14.09A14.1,14.1,0,0,1,14.09,0H135.91A14.1,14.1,0,0,1,150,14.09Z" />
                <path class="cls-2"
                    d="M135.91,2A12.1,12.1,0,0,1,148,14.09V135.91A12.1,12.1,0,0,1,135.91,148H14.09A12.1,12.1,0,0,1,2,135.91V14.09A12.1,12.1,0,0,1,14.09,2H135.91m0-2H14.09A14.1,14.1,0,0,0,0,14.09V135.91A14.1,14.1,0,0,0,14.09,150H135.91A14.1,14.1,0,0,0,150,135.91V14.09A14.1,14.1,0,0,0,135.91,0Z" />
                <path class="cls-3"
                    d="M145.52,145.52a14,14,0,0,1-9.91,4.11H14.39a14,14,0,0,1-9.91-4.11l17.1-17.1H128.42Z" />
                <path class="cls-4"
                    d="M145.52,4.48l-17.1,17.1H21.58L4.48,4.48A14,14,0,0,1,14.39.37H135.61A14,14,0,0,1,145.52,4.48Z" />
                <path class="cls-5"
                    d="M149.63,14.39V135.61a14,14,0,0,1-4.11,9.91l-17.1-17.1V21.58l17.1-17.1A14,14,0,0,1,149.63,14.39Z" />
                <path class="cls-5"
                    d="M21.58,21.58V128.42l-17.1,17.1a14,14,0,0,1-4.11-9.91V14.39A14,14,0,0,1,4.48,4.48Z" />
                <rect class="cls-6" x="16.45" y="16.45" width="117.1" height="117.1" rx="9.34" />
                <path class="cls-7"
                    d="M54.62,52.66h5.25a8.17,8.17,0,0,1,1.65.17,4.45,4.45,0,0,1,1.61.88,3.6,3.6,0,0,1,1.11,1.44,4.85,4.85,0,0,1,.44,2.13,4.58,4.58,0,0,1-1.13,3,4.24,4.24,0,0,1-3.4,1.48H56.81v5.83H54.62Zm2.19,7h3.25a2.29,2.29,0,0,0,1.84-.79,2.53,2.53,0,0,0,.59-1.64A3,3,0,0,0,62.25,56a1.86,1.86,0,0,0-.69-.73A2.64,2.64,0,0,0,60,54.8H56.81Z" />
                <path class="cls-7"
                    d="M71.77,66.67h0a1.75,1.75,0,0,1-.89.8,4.11,4.11,0,0,1-1.65.27,3.7,3.7,0,0,1-2.66-.95,3,3,0,0,1-1-2.3,3.07,3.07,0,0,1,.85-2.23,3.33,3.33,0,0,1,2.5-.92h2.87V60.22c0-.94-.69-1.4-2.11-1.37a3.7,3.7,0,0,0-1.23.16,1.5,1.5,0,0,0-.73.66l-1.63-1.28a4,4,0,0,1,3.48-1.55,5.33,5.33,0,0,1,3.11.76,3.13,3.13,0,0,1,1.18,2.74v7.27H71.77Zm0-3.57H69.28c-1.2,0-1.8.46-1.79,1.28a1.17,1.17,0,0,0,.47.93,2.13,2.13,0,0,0,1.48.42,3.53,3.53,0,0,0,1.84-.32c.33-.23.49-.74.49-1.54Z" />
                <path class="cls-7"
                    d="M82.65,66.5A3.46,3.46,0,0,1,80,67.74a3.28,3.28,0,0,1-1.67-.44,3.83,3.83,0,0,1-1.06-.87,3.21,3.21,0,0,1-.58-1.28,13.6,13.6,0,0,1-.19-2.85,14,14,0,0,1,.19-2.9,3.23,3.23,0,0,1,.58-1.27A3.38,3.38,0,0,1,80,56.84a3.45,3.45,0,0,1,2.66,1.26V57h2.07V67.36A4.29,4.29,0,0,1,80.25,72a4.62,4.62,0,0,1-3.57-1.78l1.6-1.32a3.81,3.81,0,0,0,.92.65,2.29,2.29,0,0,0,1.09.32A2.37,2.37,0,0,0,82,69.3a2.33,2.33,0,0,0,.65-1.71Zm-4.09-4.2A10.8,10.8,0,0,0,78.64,64a1.56,1.56,0,0,0,.32.8,1.93,1.93,0,0,0,.64.53,1.92,1.92,0,0,0,2,0,1.9,1.9,0,0,0,.61-.53,1.68,1.68,0,0,0,.35-.8,15.59,15.59,0,0,0,.06-1.69,16.63,16.63,0,0,0-.06-1.73,1.56,1.56,0,0,0-.35-.78,2.4,2.4,0,0,0-.61-.56,2.11,2.11,0,0,0-2,0,2.42,2.42,0,0,0-.64.56,1.46,1.46,0,0,0-.32.78A11.5,11.5,0,0,0,78.56,62.3Z" />
                <path class="cls-7"
                    d="M89.31,63.1A2.51,2.51,0,0,0,90,65.05a2.35,2.35,0,0,0,1.75.68,3,3,0,0,0,2.25-1L95.53,66a4.79,4.79,0,0,1-3.71,1.72,5.08,5.08,0,0,1-1.59-.25,3.69,3.69,0,0,1-.75-.36,3.83,3.83,0,0,1-.73-.48A4.32,4.32,0,0,1,87.69,65a6.69,6.69,0,0,1-.45-2.67,7.58,7.58,0,0,1,.39-2.62,4.67,4.67,0,0,1,1-1.68A3.73,3.73,0,0,1,90,57.11a4.43,4.43,0,0,1,1.49-.27,4.18,4.18,0,0,1,3,1.2,4.41,4.41,0,0,1,1.26,3.3V63.1Zm4.36-1.76A2.79,2.79,0,0,0,93,59.45a2.26,2.26,0,0,0-3.07,0,3,3,0,0,0-.65,1.89Z" />
                <path class="cls-7"
                    d="M51.44,77.86h5.07a4.85,4.85,0,0,1,4.41,2.53,4.68,4.68,0,0,1,.67,1.76c.07.62.1,1.68.1,3.19a23,23,0,0,1-.16,3.36,4.63,4.63,0,0,1-.24.86,8.29,8.29,0,0,1-.41.77,5,5,0,0,1-1.77,1.75,4.9,4.9,0,0,1-2.75.73H51.44Zm2.2,12.82h2.62A3,3,0,0,0,59,89.38a2.52,2.52,0,0,0,.46-1.22,27,27,0,0,0,.09-2.74q0-2-.09-2.79a2.71,2.71,0,0,0-.56-1.37A2.88,2.88,0,0,0,56.26,80H53.64Z" />
                <path class="cls-7"
                    d="M64,87.48a9.6,9.6,0,0,1,.27-2.59,4,4,0,0,1,.85-1.49,3.92,3.92,0,0,1,1.2-.94A4.18,4.18,0,0,1,68.22,82a4.28,4.28,0,0,1,2,.42,3.72,3.72,0,0,1,1.15,1,3.38,3.38,0,0,1,.87,1.49,10,10,0,0,1,.25,2.58,9.9,9.9,0,0,1-.25,2.57,3.67,3.67,0,0,1-.87,1.52,2.73,2.73,0,0,1-.49.46,2.19,2.19,0,0,1-.66.45,4.17,4.17,0,0,1-2,.46,4.24,4.24,0,0,1-3.13-1.37,4.27,4.27,0,0,1-.85-1.52A9.34,9.34,0,0,1,64,87.48Zm6.43,0a9.45,9.45,0,0,0-.1-1.66,1.87,1.87,0,0,0-.41-.89,1.44,1.44,0,0,0-.67-.56,2.31,2.31,0,0,0-2,0,1.76,1.76,0,0,0-.7.56,2.49,2.49,0,0,0-.39.89A8.09,8.09,0,0,0,66,87.48a7.91,7.91,0,0,0,.12,1.63,2.64,2.64,0,0,0,.39.92,2.48,2.48,0,0,0,.7.55,2.22,2.22,0,0,0,2,0,1.89,1.89,0,0,0,.67-.55,2,2,0,0,0,.41-.92A9,9,0,0,0,70.4,87.5Z" />
                <path class="cls-7"
                    d="M81,85.36h0l-2.15,7.45H77l-3.3-10.64h2.2l2,7.47h0l2.35-7.47h1.5l2.34,7.47h0l2-7.47h2.19L85,92.81H83.16Z" />
                <path class="cls-7"
                    d="M90.15,82.17h2.07V83.3h0A3.28,3.28,0,0,1,94.94,82a3.48,3.48,0,0,1,2.34.93,3.66,3.66,0,0,1,1.1,2.77v7.07H96.31V86.47a2.33,2.33,0,0,0-.57-1.7,2.09,2.09,0,0,0-2.93,0,2.29,2.29,0,0,0-.59,1.7v6.34H90.15Z" />
               
            </g>
        </g>
    </g>
</svg>