<svg xmlns="http://www.w3.org/2000/svg" xmlns:xlink="http://www.w3.org/1999/xlink" viewBox="0 0 150 150">
    <defs>
        <style>
            .cls-1 {
                fill: url(#未命名的渐变_30);
            }

            .cls-2 {
                fill: url(#未命名的渐变_44);
            }

            .cls-3 {
                fill: #0b1926;
            }

            .cls-4 {
                fill: #3275b3;
            }

            .cls-5 {
                fill: #16324d;
            }

            .cls-6 {
                stroke-miterlimit: 10;
                fill: url(#未命名的渐变_49);
                stroke: url(#未命名的渐变_36);
            }

            .cls-7 {
                fill: #fff;
            }

            .cls-8 {
                opacity: 0.2;
            }
        </style>
        <linearGradient id="未命名的渐变_30" y1="75" x2="150" y2="75" gradientUnits="userSpaceOnUse">
            <stop offset="0" stop-color="#1e4366" />
            <stop offset="1" stop-color="#245480" />
        </linearGradient>
        <linearGradient id="未命名的渐变_44" x1="75" y1="150" x2="75" gradientUnits="userSpaceOnUse">
            <stop offset="0" stop-color="#1e4366" />
            <stop offset="0.27" stop-color="#1f4669" />
            <stop offset="0.45" stop-color="#214f71" />
            <stop offset="0.61" stop-color="#255e7f" />
            <stop offset="0.75" stop-color="#2a7392" />
            <stop offset="0.87" stop-color="#318eac" />
            <stop offset="0.99" stop-color="#3aafca" />
            <stop offset="1" stop-color="#3ab1cc" />
        </linearGradient>
        <linearGradient id="未命名的渐变_49" x1="75" y1="133.55" x2="75" y2="16.45" gradientUnits="userSpaceOnUse">
            <stop offset="0" stop-color="#61666b" />
            <stop offset="1" stop-color="#7c8b99" />
        </linearGradient>
        <linearGradient id="未命名的渐变_36" x1="75" y1="134.05" x2="75" y2="15.95" gradientUnits="userSpaceOnUse">
            <stop offset="0" stop-color="#61676b" stop-opacity="0" />
            <stop offset="0.21" stop-color="#62686c" stop-opacity="0.01" />
            <stop offset="0.35" stop-color="#666c71" stop-opacity="0.05" />
            <stop offset="0.47" stop-color="#6d7479" stop-opacity="0.12" />
            <stop offset="0.58" stop-color="#777e85" stop-opacity="0.21" />
            <stop offset="0.68" stop-color="#848b93" stop-opacity="0.33" />
            <stop offset="0.77" stop-color="#939ba5" stop-opacity="0.48" />
            <stop offset="0.86" stop-color="#a6aebb" stop-opacity="0.65" />
            <stop offset="0.94" stop-color="#bbc3d3" stop-opacity="0.85" />
            <stop offset="1" stop-color="#cbd4e6" />
        </linearGradient>
    </defs>
    <title>Pause Break</title>
    <g id="图层_2" data-name="图层 2">
        <g id="单个电脑按键">
            <g id="Pause_Break" data-name="Pause Break">
                <path class="cls-1"
                    d="M150,14.09V135.91A14.1,14.1,0,0,1,135.91,150H14.09A14.1,14.1,0,0,1,0,135.91V14.09A14.1,14.1,0,0,1,14.09,0H135.91A14.1,14.1,0,0,1,150,14.09Z" />
                <path class="cls-2"
                    d="M135.91,2A12.1,12.1,0,0,1,148,14.09V135.91A12.1,12.1,0,0,1,135.91,148H14.09A12.1,12.1,0,0,1,2,135.91V14.09A12.1,12.1,0,0,1,14.09,2H135.91m0-2H14.09A14.1,14.1,0,0,0,0,14.09V135.91A14.1,14.1,0,0,0,14.09,150H135.91A14.1,14.1,0,0,0,150,135.91V14.09A14.1,14.1,0,0,0,135.91,0Z" />
                <path class="cls-3"
                    d="M145.52,145.52a14,14,0,0,1-9.91,4.11H14.39a14,14,0,0,1-9.91-4.11l17.1-17.1H128.42Z" />
                <path class="cls-4"
                    d="M145.52,4.48l-17.1,17.1H21.58L4.48,4.48A14,14,0,0,1,14.39.37H135.61A14,14,0,0,1,145.52,4.48Z" />
                <path class="cls-5"
                    d="M149.63,14.39V135.61a14,14,0,0,1-4.11,9.91l-17.1-17.1V21.58l17.1-17.1A14,14,0,0,1,149.63,14.39Z" />
                <path class="cls-5"
                    d="M21.58,21.58V128.42l-17.1,17.1a14,14,0,0,1-4.11-9.91V14.39A14,14,0,0,1,4.48,4.48Z" />
                <rect class="cls-6" x="16.45" y="16.45" width="117.1" height="117.1" rx="9.34" />
                <path class="cls-7"
                    d="M49.39,52.66h5.25a8.1,8.1,0,0,1,1.65.17,4.45,4.45,0,0,1,1.61.88A3.71,3.71,0,0,1,59,55.14a4.78,4.78,0,0,1,.44,2.14,4.6,4.6,0,0,1-1.13,3,4.22,4.22,0,0,1-3.4,1.48H51.58v5.83H49.39Zm2.19,7h3.25a2.32,2.32,0,0,0,1.85-.79,2.57,2.57,0,0,0,.58-1.64A3,3,0,0,0,57,56a1.86,1.86,0,0,0-.69-.73,2.62,2.62,0,0,0-1.58-.42H51.58Z" />
                <path class="cls-7"
                    d="M66.54,66.67h0a1.75,1.75,0,0,1-.89.8,4.11,4.11,0,0,1-1.65.27,3.7,3.7,0,0,1-2.66-.95,3,3,0,0,1-1-2.3,3.07,3.07,0,0,1,.85-2.23,3.33,3.33,0,0,1,2.5-.92h2.87V60.22c0-.94-.69-1.4-2.11-1.37A3.7,3.7,0,0,0,63.2,59a1.5,1.5,0,0,0-.73.66l-1.63-1.28a4,4,0,0,1,3.48-1.55,5.33,5.33,0,0,1,3.11.76,3.13,3.13,0,0,1,1.18,2.74v7.27H66.54Zm0-3.57H64.05c-1.2,0-1.8.46-1.79,1.28a1.17,1.17,0,0,0,.47.93,2.13,2.13,0,0,0,1.48.42,3.51,3.51,0,0,0,1.84-.32c.33-.23.49-.74.49-1.54Z" />
                <path class="cls-7"
                    d="M71.63,57H73.7v6.35A2.32,2.32,0,0,0,74.28,65a2,2,0,0,0,1.47.61A1.91,1.91,0,0,0,77.21,65a2.32,2.32,0,0,0,.58-1.68V57h2.07V67.61H77.79V66.48h0a3.27,3.27,0,0,1-2.67,1.26,3.5,3.5,0,0,1-2.31-1,3.38,3.38,0,0,1-1.14-2.73Z" />
                <path class="cls-7"
                    d="M83.21,64.36a4.24,4.24,0,0,0,3.26,1.37,2.71,2.71,0,0,0,1.47-.36,1.12,1.12,0,0,0,.57-1,.92.92,0,0,0-.34-.8,1.8,1.8,0,0,0-.93-.25l-1.83-.17a3.43,3.43,0,0,1-2.12-.9,2.78,2.78,0,0,1-.86-2.12,2.94,2.94,0,0,1,1.13-2.46,4.32,4.32,0,0,1,2.72-.82,8.1,8.1,0,0,1,1.28.09,5.78,5.78,0,0,1,1.07.29,6.08,6.08,0,0,1,1.71,1.07l-1.29,1.55a6.4,6.4,0,0,0-1.26-.74,4.16,4.16,0,0,0-1.51-.25,2,2,0,0,0-1.37.36,1.16,1.16,0,0,0-.4.92.71.71,0,0,0,.3.63,1.86,1.86,0,0,0,1.06.38l1.71.13a3.16,3.16,0,0,1,2.33,1,3.47,3.47,0,0,1,.67,2.18,2.81,2.81,0,0,1-1.23,2.39,5.17,5.17,0,0,1-3,.89,6.47,6.47,0,0,1-4.54-1.91Z" />
                <path class="cls-7"
                    d="M94.54,63.1a2.51,2.51,0,0,0,.72,1.95,2.35,2.35,0,0,0,1.75.68,3,3,0,0,0,2.25-1l1.5,1.33a4.8,4.8,0,0,1-3.71,1.72,5.08,5.08,0,0,1-1.59-.25,3.69,3.69,0,0,1-.75-.36,3.83,3.83,0,0,1-.73-.48A4.32,4.32,0,0,1,92.92,65a6.69,6.69,0,0,1-.45-2.67,7.58,7.58,0,0,1,.39-2.62,4.67,4.67,0,0,1,1-1.68,3.73,3.73,0,0,1,1.38-.91,4.43,4.43,0,0,1,1.49-.27,4.18,4.18,0,0,1,3,1.2,4.41,4.41,0,0,1,1.26,3.3V63.1Zm4.36-1.76a2.79,2.79,0,0,0-.64-1.89,2.26,2.26,0,0,0-3.07,0,3,3,0,0,0-.65,1.89Z" />
                <path class="cls-7"
                    d="M50.28,77.86h5.61A4.43,4.43,0,0,1,59.1,79a4,4,0,0,1,1.08,2.9,3.56,3.56,0,0,1-.42,1.77,3.27,3.27,0,0,1-.66.76,4.64,4.64,0,0,1-1.05.68v0a3,3,0,0,1,1.79,1.29,4.25,4.25,0,0,1,.57,2.16,4.2,4.2,0,0,1-1.17,3.06,3.82,3.82,0,0,1-2.86,1.18h-6.1Zm2.19,2v4.3h3.17a2.21,2.21,0,0,0,1.77-.65A2.06,2.06,0,0,0,58,82a2.17,2.17,0,0,0-.58-1.54,2.46,2.46,0,0,0-1.77-.61Zm0,6.31v4.5h3.39A2.26,2.26,0,0,0,57.65,90a2.25,2.25,0,0,0-1.79-3.81Z" />
                <path class="cls-7"
                    d="M62.9,82.17H65V83.3h0A3.31,3.31,0,0,1,67.7,82a3.27,3.27,0,0,1,2.16.81L68.35,84.7A2.17,2.17,0,0,0,67,84.17a1.94,1.94,0,0,0-1.36.53A2.11,2.11,0,0,0,65,86.4v6.41H62.9Z" />
                <path class="cls-7"
                    d="M72.25,88.3a2.51,2.51,0,0,0,.72,2,2.33,2.33,0,0,0,1.75.68,3,3,0,0,0,2.25-1l1.5,1.33a4.8,4.8,0,0,1-3.71,1.72,5.08,5.08,0,0,1-1.59-.25,3.69,3.69,0,0,1-.75-.36,3.83,3.83,0,0,1-.73-.48,4.21,4.21,0,0,1-1.06-1.66,6.69,6.69,0,0,1-.45-2.67,7.58,7.58,0,0,1,.39-2.62,4.67,4.67,0,0,1,1-1.68,3.73,3.73,0,0,1,1.38-.91A4.39,4.39,0,0,1,74.43,82a4.19,4.19,0,0,1,3,1.2,4.41,4.41,0,0,1,1.26,3.3V88.3Zm4.36-1.76A2.74,2.74,0,0,0,76,84.65a2.25,2.25,0,0,0-3.06,0,3,3,0,0,0-.65,1.89Z" />
                <path class="cls-7"
                    d="M86.61,91.87h0a1.75,1.75,0,0,1-.89.8,4.11,4.11,0,0,1-1.65.27,3.7,3.7,0,0,1-2.66-1,3,3,0,0,1-1-2.3,3.08,3.08,0,0,1,.86-2.23,3.33,3.33,0,0,1,2.5-.92h2.87V85.42c0-.94-.69-1.4-2.12-1.37a3.68,3.68,0,0,0-1.22.16,1.5,1.5,0,0,0-.73.66l-1.63-1.28A4,4,0,0,1,84.39,82a5.35,5.35,0,0,1,3.11.76,3.13,3.13,0,0,1,1.18,2.74v7.27H86.61Zm0-3.57H84.12c-1.21,0-1.8.46-1.79,1.28a1.16,1.16,0,0,0,.47.93,2.13,2.13,0,0,0,1.48.42,3.53,3.53,0,0,0,1.84-.32c.33-.23.49-.74.49-1.54Z" />
                <path class="cls-7"
                    d="M91.69,77.86h2.07v9.3h0l4-5h2.49L96.7,86.32l4,6.49h-2.6l-2.75-5-1.63,1.91v3.06H91.69Z" />
               
            </g>
        </g>
    </g>
</svg>