<svg xmlns="http://www.w3.org/2000/svg" xmlns:xlink="http://www.w3.org/1999/xlink" viewBox="0 0 150 150">
    <defs>
        <style>
            .cls-1 {
                fill: url(#未命名的渐变_30);
            }

            .cls-2 {
                fill: url(#未命名的渐变_44);
            }

            .cls-3 {
                fill: #0b1926;
            }

            .cls-4 {
                fill: #3275b3;
            }

            .cls-5 {
                fill: #16324d;
            }

            .cls-6 {
                stroke-miterlimit: 10;
                fill: url(#未命名的渐变_49);
                stroke: url(#未命名的渐变_36);
            }

            .cls-7 {
                fill: #fff;
            }

            .cls-8 {
                opacity: 0.2;
            }
        </style>
        <linearGradient id="未命名的渐变_30" y1="75" x2="150" y2="75" gradientUnits="userSpaceOnUse">
            <stop offset="0" stop-color="#1e4366" />
            <stop offset="1" stop-color="#245480" />
        </linearGradient>
        <linearGradient id="未命名的渐变_44" x1="75" y1="150" x2="75" gradientUnits="userSpaceOnUse">
            <stop offset="0" stop-color="#1e4366" />
            <stop offset="0.27" stop-color="#1f4669" />
            <stop offset="0.45" stop-color="#214f71" />
            <stop offset="0.61" stop-color="#255e7f" />
            <stop offset="0.75" stop-color="#2a7392" />
            <stop offset="0.87" stop-color="#318eac" />
            <stop offset="0.99" stop-color="#3aafca" />
            <stop offset="1" stop-color="#3ab1cc" />
        </linearGradient>
        <linearGradient id="未命名的渐变_49" x1="75" y1="133.55" x2="75" y2="16.45" gradientUnits="userSpaceOnUse">
            <stop offset="0" stop-color="#61666b" />
            <stop offset="1" stop-color="#7c8b99" />
        </linearGradient>
        <linearGradient id="未命名的渐变_36" x1="75" y1="134.05" x2="75" y2="15.95" gradientUnits="userSpaceOnUse">
            <stop offset="0" stop-color="#61676b" stop-opacity="0" />
            <stop offset="0.21" stop-color="#62686c" stop-opacity="0.01" />
            <stop offset="0.35" stop-color="#666c71" stop-opacity="0.05" />
            <stop offset="0.47" stop-color="#6d7479" stop-opacity="0.12" />
            <stop offset="0.58" stop-color="#777e85" stop-opacity="0.21" />
            <stop offset="0.68" stop-color="#848b93" stop-opacity="0.33" />
            <stop offset="0.77" stop-color="#939ba5" stop-opacity="0.48" />
            <stop offset="0.86" stop-color="#a6aebb" stop-opacity="0.65" />
            <stop offset="0.94" stop-color="#bbc3d3" stop-opacity="0.85" />
            <stop offset="1" stop-color="#cbd4e6" />
        </linearGradient>
    </defs>
    <title>Print Screen</title>
    <g id="图层_2" data-name="图层 2">
        <g id="单个电脑按键">
            <g id="Print_Screen" data-name="Print Screen">
                <path class="cls-1"
                    d="M150,14.09V135.91A14.1,14.1,0,0,1,135.91,150H14.09A14.1,14.1,0,0,1,0,135.91V14.09A14.1,14.1,0,0,1,14.09,0H135.91A14.1,14.1,0,0,1,150,14.09Z" />
                <path class="cls-2"
                    d="M135.91,2A12.1,12.1,0,0,1,148,14.09V135.91A12.1,12.1,0,0,1,135.91,148H14.09A12.1,12.1,0,0,1,2,135.91V14.09A12.1,12.1,0,0,1,14.09,2H135.91m0-2H14.09A14.1,14.1,0,0,0,0,14.09V135.91A14.1,14.1,0,0,0,14.09,150H135.91A14.1,14.1,0,0,0,150,135.91V14.09A14.1,14.1,0,0,0,135.91,0Z" />
                <path class="cls-3"
                    d="M145.52,145.52a14,14,0,0,1-9.91,4.11H14.39a14,14,0,0,1-9.91-4.11l17.1-17.1H128.42Z" />
                <path class="cls-4"
                    d="M145.52,4.48l-17.1,17.1H21.58L4.48,4.48A14,14,0,0,1,14.39.37H135.61A14,14,0,0,1,145.52,4.48Z" />
                <path class="cls-5"
                    d="M149.63,14.39V135.61a14,14,0,0,1-4.11,9.91l-17.1-17.1V21.58l17.1-17.1A14,14,0,0,1,149.63,14.39Z" />
                <path class="cls-5"
                    d="M21.58,21.58V128.42l-17.1,17.1a14,14,0,0,1-4.11-9.91V14.39A14,14,0,0,1,4.48,4.48Z" />
                <rect class="cls-6" x="16.45" y="16.45" width="117.1" height="117.1" rx="9.34" />
                <path class="cls-7"
                    d="M55.14,52.66h5.25a8.1,8.1,0,0,1,1.65.17,4.37,4.37,0,0,1,1.61.88,3.53,3.53,0,0,1,1.11,1.43,4.78,4.78,0,0,1,.45,2.14,4.65,4.65,0,0,1-1.13,3,4.24,4.24,0,0,1-3.4,1.48H57.34v5.83h-2.2Zm2.2,7h3.25a2.29,2.29,0,0,0,1.84-.79A2.58,2.58,0,0,0,63,57.22,3,3,0,0,0,62.78,56a1.89,1.89,0,0,0-.7-.73,2.59,2.59,0,0,0-1.57-.42H57.34Z" />
                <path class="cls-7"
                    d="M67.41,57h2.07V58.1h0a3.41,3.41,0,0,1,4.85-.45L72.86,59.5A2.17,2.17,0,0,0,71.5,59a2,2,0,0,0-1.37.53,2.14,2.14,0,0,0-.65,1.7v6.41H67.41Z" />
                <path class="cls-7" d="M75.64,52.66h2.07V54.8H75.64Zm0,4.31h2.07V67.61H75.64Z" />
                <path class="cls-7"
                    d="M80.61,57h2.07V58.1h0a3.3,3.3,0,0,1,2.68-1.26,3.49,3.49,0,0,1,2.35.93,3.7,3.7,0,0,1,1.1,2.77v7.07H86.78V61.27a2.33,2.33,0,0,0-.58-1.71A1.94,1.94,0,0,0,84.74,59a2,2,0,0,0-1.47.59,2.33,2.33,0,0,0-.59,1.71v6.34H80.61Z" />
                <path class="cls-7"
                    d="M92,53.73h2.07V57H95.6v1.64H94.09v6.21c0,.54.23.8.73.79h.78v2H94.52a2.43,2.43,0,0,1-1.79-.69A2.54,2.54,0,0,1,92,65V58.61H91V57h1Z" />
                <path class="cls-7"
                    d="M46,89.19a6.2,6.2,0,0,0,4.11,1.49C52,90.66,52.94,90,53,88.6q0-1.68-1.89-2l-1.92-.28a4.68,4.68,0,0,1-2.84-1.43,4,4,0,0,1-1-2.77A4.17,4.17,0,0,1,46.58,79,4.84,4.84,0,0,1,50,77.74a7.94,7.94,0,0,1,4.69,1.55l-1.22,1.86A6.41,6.41,0,0,0,49.92,80a2.68,2.68,0,0,0-1.69.52,2,2,0,0,0-.72,1.62A1.66,1.66,0,0,0,48,83.31a2.72,2.72,0,0,0,1.55.74c.4.07,1,.15,1.63.24a4.44,4.44,0,0,1,3,1.5,4.32,4.32,0,0,1,1,2.8c-.07,2.86-1.77,4.31-5.08,4.35a8.07,8.07,0,0,1-5.53-2Z" />
                <path class="cls-7"
                    d="M65.26,91.1a5.71,5.71,0,0,1-1.59,1.3,4.53,4.53,0,0,1-2.12.54,4.58,4.58,0,0,1-3.2-1.28,5.48,5.48,0,0,1-1.47-4.16,5.58,5.58,0,0,1,1.47-4.2,4.68,4.68,0,0,1,5.32-.75,5.22,5.22,0,0,1,1.59,1.34l-1.53,1.4a2.57,2.57,0,0,0-2.1-1.12Q59,84.13,59,87.5t2.68,3.31a2.52,2.52,0,0,0,2.1-1.12Z" />
                <path class="cls-7"
                    d="M67,82.17h2.07V83.3h0A3.39,3.39,0,0,1,74,82.85L72.44,84.7a2.14,2.14,0,0,0-1.36-.53,1.94,1.94,0,0,0-1.36.53,2.14,2.14,0,0,0-.66,1.7v6.41H67Z" />
                <path class="cls-7"
                    d="M76.34,88.3a2.51,2.51,0,0,0,.72,2,2.35,2.35,0,0,0,1.75.68,3,3,0,0,0,2.25-1l1.5,1.33a4.8,4.8,0,0,1-3.71,1.72,5.08,5.08,0,0,1-1.59-.25,3.69,3.69,0,0,1-.75-.36,3.83,3.83,0,0,1-.73-.48,4.21,4.21,0,0,1-1.06-1.66,6.69,6.69,0,0,1-.45-2.67,7.58,7.58,0,0,1,.39-2.62,4.67,4.67,0,0,1,1-1.68A3.73,3.73,0,0,1,77,82.31,4.43,4.43,0,0,1,78.52,82a4.18,4.18,0,0,1,3,1.2,4.41,4.41,0,0,1,1.26,3.3V88.3Zm4.36-1.76a2.79,2.79,0,0,0-.64-1.89,2.26,2.26,0,0,0-3.07,0,3,3,0,0,0-.65,1.89Z" />
                <path class="cls-7"
                    d="M86.84,88.3a2.51,2.51,0,0,0,.72,2,2.35,2.35,0,0,0,1.75.68,3,3,0,0,0,2.25-1l1.5,1.33a4.8,4.8,0,0,1-3.71,1.72,5.08,5.08,0,0,1-1.59-.25,3.69,3.69,0,0,1-.75-.36,3.83,3.83,0,0,1-.73-.48,4.21,4.21,0,0,1-1.06-1.66,6.69,6.69,0,0,1-.45-2.67,7.58,7.58,0,0,1,.39-2.62,4.67,4.67,0,0,1,1-1.68,3.73,3.73,0,0,1,1.38-.91A4.43,4.43,0,0,1,89,82a4.18,4.18,0,0,1,3,1.2,4.41,4.41,0,0,1,1.26,3.3V88.3Zm4.36-1.76a2.79,2.79,0,0,0-.64-1.89,2.26,2.26,0,0,0-3.07,0,3,3,0,0,0-.65,1.89Z" />
                <path class="cls-7"
                    d="M95.79,82.17h2.06V83.3h0A3.3,3.3,0,0,1,100.57,82a3.49,3.49,0,0,1,2.35.93,3.7,3.7,0,0,1,1.1,2.77v7.07H102V86.47a2.33,2.33,0,0,0-.58-1.71,1.93,1.93,0,0,0-1.46-.59,2,2,0,0,0-1.47.59,2.33,2.33,0,0,0-.59,1.71v6.34H95.79Z" />
               
            </g>
        </g>
    </g>
</svg>