<svg xmlns="http://www.w3.org/2000/svg" xmlns:xlink="http://www.w3.org/1999/xlink" viewBox="0 0 150 150">
    <defs>
        <style>
            .cls-1 {
                fill: url(#未命名的渐变_30);
            }

            .cls-2 {
                fill: url(#未命名的渐变_44);
            }

            .cls-3 {
                fill: #0b1926;
            }

            .cls-4 {
                fill: #3275b3;
            }

            .cls-5 {
                fill: #16324d;
            }

            .cls-6 {
                stroke-miterlimit: 10;
                fill: url(#未命名的渐变_49);
                stroke: url(#未命名的渐变_36);
            }

            .cls-7 {
                fill: #fff;
            }

            .cls-8 {
                opacity: 0.2;
            }
        </style>
        <linearGradient id="未命名的渐变_30" y1="75" x2="150" y2="75" gradientUnits="userSpaceOnUse">
            <stop offset="0" stop-color="#1e4366" />
            <stop offset="1" stop-color="#245480" />
        </linearGradient>
        <linearGradient id="未命名的渐变_44" x1="75" y1="150" x2="75" gradientUnits="userSpaceOnUse">
            <stop offset="0" stop-color="#1e4366" />
            <stop offset="0.27" stop-color="#1f4669" />
            <stop offset="0.45" stop-color="#214f71" />
            <stop offset="0.61" stop-color="#255e7f" />
            <stop offset="0.75" stop-color="#2a7392" />
            <stop offset="0.87" stop-color="#318eac" />
            <stop offset="0.99" stop-color="#3aafca" />
            <stop offset="1" stop-color="#3ab1cc" />
        </linearGradient>
        <linearGradient id="未命名的渐变_49" x1="75" y1="133.55" x2="75" y2="16.45" gradientUnits="userSpaceOnUse">
            <stop offset="0" stop-color="#61666b" />
            <stop offset="1" stop-color="#7c8b99" />
        </linearGradient>
        <linearGradient id="未命名的渐变_36" x1="75" y1="134.05" x2="75" y2="15.95" gradientUnits="userSpaceOnUse">
            <stop offset="0" stop-color="#61676b" stop-opacity="0" />
            <stop offset="0.21" stop-color="#62686c" stop-opacity="0.01" />
            <stop offset="0.35" stop-color="#666c71" stop-opacity="0.05" />
            <stop offset="0.47" stop-color="#6d7479" stop-opacity="0.12" />
            <stop offset="0.58" stop-color="#777e85" stop-opacity="0.21" />
            <stop offset="0.68" stop-color="#848b93" stop-opacity="0.33" />
            <stop offset="0.77" stop-color="#939ba5" stop-opacity="0.48" />
            <stop offset="0.86" stop-color="#a6aebb" stop-opacity="0.65" />
            <stop offset="0.94" stop-color="#bbc3d3" stop-opacity="0.85" />
            <stop offset="1" stop-color="#cbd4e6" />
        </linearGradient>
    </defs>
    <title>Scroll Lock</title>
    <g id="图层_2" data-name="图层 2">
        <g id="单个电脑按键">
            <g id="Scroll_Lock" data-name="Scroll Lock">
                <path class="cls-1"
                    d="M150,14.09V135.91A14.1,14.1,0,0,1,135.91,150H14.09A14.1,14.1,0,0,1,0,135.91V14.09A14.1,14.1,0,0,1,14.09,0H135.91A14.1,14.1,0,0,1,150,14.09Z" />
                <path class="cls-2"
                    d="M135.91,2A12.1,12.1,0,0,1,148,14.09V135.91A12.1,12.1,0,0,1,135.91,148H14.09A12.1,12.1,0,0,1,2,135.91V14.09A12.1,12.1,0,0,1,14.09,2H135.91m0-2H14.09A14.1,14.1,0,0,0,0,14.09V135.91A14.1,14.1,0,0,0,14.09,150H135.91A14.1,14.1,0,0,0,150,135.91V14.09A14.1,14.1,0,0,0,135.91,0Z" />
                <path class="cls-3"
                    d="M145.52,145.52a14,14,0,0,1-9.91,4.11H14.39a14,14,0,0,1-9.91-4.11l17.1-17.1H128.42Z" />
                <path class="cls-4"
                    d="M145.52,4.48l-17.1,17.1H21.58L4.48,4.48A14,14,0,0,1,14.39.37H135.61A14,14,0,0,1,145.52,4.48Z" />
                <path class="cls-5"
                    d="M149.63,14.39V135.61a14,14,0,0,1-4.11,9.91l-17.1-17.1V21.58l17.1-17.1A14,14,0,0,1,149.63,14.39Z" />
                <path class="cls-5"
                    d="M21.58,21.58V128.42l-17.1,17.1a14,14,0,0,1-4.11-9.91V14.39A14,14,0,0,1,4.48,4.48Z" />
                <rect class="cls-6" x="16.45" y="16.45" width="117.1" height="117.1" rx="9.34" />
                <path class="cls-7"
                    d="M51.46,64a6.24,6.24,0,0,0,4.12,1.49c1.88,0,2.83-.72,2.86-2.08,0-1.12-.61-1.79-1.89-2l-1.91-.28a4.63,4.63,0,0,1-2.84-1.43,4,4,0,0,1-1-2.77,4.17,4.17,0,0,1,1.26-3.16,4.83,4.83,0,0,1,3.46-1.21,8,8,0,0,1,4.7,1.55L59,56A6.46,6.46,0,0,0,55.4,54.8a2.66,2.66,0,0,0-1.69.52A2,2,0,0,0,53,56.94a1.7,1.7,0,0,0,.49,1.17,2.79,2.79,0,0,0,1.56.74c.4.07.94.15,1.63.24a4.46,4.46,0,0,1,3,1.5,4.36,4.36,0,0,1,1,2.8q-.1,4.29-5.08,4.35a8.1,8.1,0,0,1-5.53-2Z" />
                <path class="cls-7"
                    d="M70.74,65.9a5.85,5.85,0,0,1-1.59,1.3,4.56,4.56,0,0,1-5.32-.74,5.4,5.4,0,0,1-1.47-4.16,5.5,5.5,0,0,1,1.47-4.2A4.43,4.43,0,0,1,67,56.84a4.52,4.52,0,0,1,2.12.51,5.34,5.34,0,0,1,1.59,1.34l-1.53,1.4A2.6,2.6,0,0,0,67.11,59c-1.76,0-2.66,1.08-2.68,3.33s.92,3.34,2.68,3.31a2.52,2.52,0,0,0,2.09-1.12Z" />
                <path class="cls-7"
                    d="M72.47,57h2.07V58.1h0a3.41,3.41,0,0,1,4.85-.45L77.92,59.5A2.17,2.17,0,0,0,76.56,59a2,2,0,0,0-1.37.53,2.14,2.14,0,0,0-.65,1.7v6.41H72.47Z" />
                <path class="cls-7"
                    d="M79.75,62.28A9.6,9.6,0,0,1,80,59.69a3.78,3.78,0,0,1,.85-1.49,3.87,3.87,0,0,1,1.19-.94A4.22,4.22,0,0,1,84,56.84a4.34,4.34,0,0,1,2,.42,3.84,3.84,0,0,1,1.15,1A3.33,3.33,0,0,1,88,59.7a10,10,0,0,1,.25,2.58A10.36,10.36,0,0,1,88,64.85a3.67,3.67,0,0,1-.87,1.52,4.44,4.44,0,0,1-.49.47,2.29,2.29,0,0,1-.67.44,4.38,4.38,0,0,1-3.91,0,4,4,0,0,1-1.19-.91A4.13,4.13,0,0,1,80,64.85,9.34,9.34,0,0,1,79.75,62.28Zm6.43,0a10.56,10.56,0,0,0-.1-1.66,2,2,0,0,0-.41-.89,1.55,1.55,0,0,0-.68-.57A2.19,2.19,0,0,0,84,59a2.17,2.17,0,0,0-1,.22,1.8,1.8,0,0,0-.69.56,2.57,2.57,0,0,0-.39.89,11.2,11.2,0,0,0,0,3.27,2.64,2.64,0,0,0,.39.92,2.57,2.57,0,0,0,.69.55,2.17,2.17,0,0,0,1,.23,2.07,2.07,0,0,0,1-.23,1.93,1.93,0,0,0,.68-.55,2.09,2.09,0,0,0,.41-.92A10.09,10.09,0,0,0,86.18,62.3Z" />
                <path class="cls-7"
                    d="M90.76,52.66h2.07V64.88c0,.48.26.73.78.73h.71v2H93.4A2.87,2.87,0,0,1,91.54,67a2.34,2.34,0,0,1-.78-2Z" />
                <path class="cls-7"
                    d="M96.18,52.66h2.07V64.88c0,.48.25.73.77.73h.72v2h-.92A2.9,2.9,0,0,1,97,67a2.34,2.34,0,0,1-.77-2Z" />
                <path class="cls-7" d="M55.33,77.86h2.19V90.68h7.06v2.13H55.33Z" />
                <path class="cls-7"
                    d="M66.31,87.48a9.6,9.6,0,0,1,.27-2.59,3.78,3.78,0,0,1,.85-1.49,3.87,3.87,0,0,1,1.19-.94A4.22,4.22,0,0,1,70.56,82a4.31,4.31,0,0,1,2,.42,3.84,3.84,0,0,1,1.15,1,3.33,3.33,0,0,1,.87,1.49,10,10,0,0,1,.25,2.58,9.9,9.9,0,0,1-.25,2.57,3.67,3.67,0,0,1-.87,1.52,4.44,4.44,0,0,1-.49.47,2.37,2.37,0,0,1-.66.44,4.2,4.2,0,0,1-2,.46,4.09,4.09,0,0,1-1.94-.46,4,4,0,0,1-1.19-.91,4.13,4.13,0,0,1-.85-1.52A9.34,9.34,0,0,1,66.31,87.48Zm6.43,0a9.45,9.45,0,0,0-.1-1.66,2,2,0,0,0-.41-.89,1.57,1.57,0,0,0-.67-.57,2.26,2.26,0,0,0-1-.21,2.1,2.1,0,0,0-1,.22,1.76,1.76,0,0,0-.7.56,2.57,2.57,0,0,0-.39.89,11.2,11.2,0,0,0,0,3.27,2.64,2.64,0,0,0,.39.92,2.48,2.48,0,0,0,.7.55,2.1,2.1,0,0,0,1,.23,2.14,2.14,0,0,0,1-.23,2,2,0,0,0,.67-.55,2.09,2.09,0,0,0,.41-.92A9,9,0,0,0,72.74,87.5Z" />
                <path class="cls-7"
                    d="M84.91,91.1a5.71,5.71,0,0,1-1.59,1.3,4.5,4.5,0,0,1-2.12.54A4.58,4.58,0,0,1,78,91.66a5.48,5.48,0,0,1-1.47-4.16A5.58,5.58,0,0,1,78,83.3a4.68,4.68,0,0,1,5.32-.75,5.22,5.22,0,0,1,1.59,1.34l-1.53,1.4a2.57,2.57,0,0,0-2.09-1.12c-1.77,0-2.66,1.08-2.69,3.33s.92,3.34,2.68,3.31a2.52,2.52,0,0,0,2.1-1.12Z" />
                <path class="cls-7"
                    d="M86.64,77.86h2.07v9.3h.05l4-5h2.49l-3.56,4.15,4,6.49h-2.6l-2.75-5-1.63,1.91v3.06H86.64Z" />
               
            </g>
        </g>
    </g>
</svg>