<svg xmlns="http://www.w3.org/2000/svg" xmlns:xlink="http://www.w3.org/1999/xlink" viewBox="0 0 450 150">
    <defs>
        <style>
            .cls-1 {
                fill: url(#未命名的渐变_30);
            }

            .cls-2 {
                fill: url(#未命名的渐变_44);
            }

            .cls-3 {
                fill: #0b1926;
            }

            .cls-4 {
                fill: #3275b3;
            }

            .cls-5 {
                fill: #16324d;
            }

            .cls-6 {
                stroke-miterlimit: 10;
                fill: url(#未命名的渐变_49);
                stroke: url(#未命名的渐变_36);
            }

            .cls-7 {
                fill: #fff;
            }

            .cls-8 {
                opacity: 0.2;
            }
        </style>
        <linearGradient id="未命名的渐变_30" y1="75" x2="450" y2="75" gradientUnits="userSpaceOnUse">
            <stop offset="0" stop-color="#1e4366" />
            <stop offset="1" stop-color="#245480" />
        </linearGradient>
        <linearGradient id="未命名的渐变_44" x1="225" y1="150" x2="225" gradientUnits="userSpaceOnUse">
            <stop offset="0" stop-color="#1e4366" />
            <stop offset="0.27" stop-color="#1f4669" />
            <stop offset="0.45" stop-color="#214f71" />
            <stop offset="0.61" stop-color="#255e7f" />
            <stop offset="0.75" stop-color="#2a7392" />
            <stop offset="0.87" stop-color="#318eac" />
            <stop offset="0.99" stop-color="#3aafca" />
            <stop offset="1" stop-color="#3ab1cc" />
        </linearGradient>
        <linearGradient id="未命名的渐变_49" x1="225" y1="133.55" x2="225" y2="16.45" gradientUnits="userSpaceOnUse">
            <stop offset="0" stop-color="#61666b" />
            <stop offset="1" stop-color="#7c8b99" />
        </linearGradient>
        <linearGradient id="未命名的渐变_36" x1="225" y1="134.05" x2="225" y2="15.95" gradientUnits="userSpaceOnUse">
            <stop offset="0" stop-color="#61676b" stop-opacity="0" />
            <stop offset="0.21" stop-color="#62686c" stop-opacity="0.01" />
            <stop offset="0.35" stop-color="#666c71" stop-opacity="0.05" />
            <stop offset="0.47" stop-color="#6d7479" stop-opacity="0.12" />
            <stop offset="0.58" stop-color="#777e85" stop-opacity="0.21" />
            <stop offset="0.68" stop-color="#848b93" stop-opacity="0.33" />
            <stop offset="0.77" stop-color="#939ba5" stop-opacity="0.48" />
            <stop offset="0.86" stop-color="#a6aebb" stop-opacity="0.65" />
            <stop offset="0.94" stop-color="#bbc3d3" stop-opacity="0.85" />
            <stop offset="1" stop-color="#cbd4e6" />
        </linearGradient>
    </defs>
    <title>Shift 2</title>
    <g id="图层_2" data-name="图层 2">
        <g id="单个电脑按键">
            <g id="Shift_2" data-name="Shift 2">
                <path class="cls-1"
                    d="M450,14.09V135.91A14.1,14.1,0,0,1,435.91,150H14.09A14.1,14.1,0,0,1,0,135.91V14.09A14.1,14.1,0,0,1,14.09,0H435.91A14.1,14.1,0,0,1,450,14.09Z" />
                <path class="cls-2"
                    d="M435.91,2A12.1,12.1,0,0,1,448,14.09V135.91A12.1,12.1,0,0,1,435.91,148H14.09A12.1,12.1,0,0,1,2,135.91V14.09A12.1,12.1,0,0,1,14.09,2H435.91m0-2H14.09A14.1,14.1,0,0,0,0,14.09V135.91A14.1,14.1,0,0,0,14.09,150H435.91A14.1,14.1,0,0,0,450,135.91V14.09A14.1,14.1,0,0,0,435.91,0Z" />
                <path class="cls-3"
                    d="M445.52,145.52a14,14,0,0,1-9.91,4.11H14.39a14,14,0,0,1-9.91-4.11l17.1-17.1H428.42Z" />
                <path class="cls-4"
                    d="M445.52,4.48l-17.1,17.1H21.58L4.48,4.48A14,14,0,0,1,14.39.37H435.61A14,14,0,0,1,445.52,4.48Z" />
                <path class="cls-5"
                    d="M449.63,14.39V135.61a14,14,0,0,1-4.11,9.91l-17.1-17.1V21.58l17.1-17.1A14,14,0,0,1,449.63,14.39Z" />
                <path class="cls-5"
                    d="M21.58,21.58V128.42l-17.1,17.1a14,14,0,0,1-4.11-9.91V14.39A14,14,0,0,1,4.48,4.48Z" />
                <rect class="cls-6" x="16.45" y="16.45" width="417.1" height="117.1" rx="9.34" />
                <path class="cls-7"
                    d="M211.7,78.39a6.2,6.2,0,0,0,4.11,1.49c1.88,0,2.84-.72,2.86-2.08,0-1.12-.61-1.79-1.88-2l-1.92-.28A4.65,4.65,0,0,1,212,74.08a4,4,0,0,1-1-2.77,4.17,4.17,0,0,1,1.26-3.16,4.84,4.84,0,0,1,3.47-1.21,8,8,0,0,1,4.69,1.54l-1.22,1.87a6.52,6.52,0,0,0-3.59-1.16,2.69,2.69,0,0,0-1.69.53,2,2,0,0,0-.72,1.62,1.69,1.69,0,0,0,.48,1.17,2.79,2.79,0,0,0,1.56.74c.4.07.94.15,1.63.23a4.51,4.51,0,0,1,3,1.51,4.36,4.36,0,0,1,1,2.79q-.12,4.31-5.08,4.36a8.07,8.07,0,0,1-5.53-2Z" />
                <path class="cls-7"
                    d="M223.38,67.06h2.07V72.5h0a3.28,3.28,0,0,1,2.68-1.26,3.48,3.48,0,0,1,2.34.93,3.66,3.66,0,0,1,1.1,2.77V82h-2.07V75.67A2.35,2.35,0,0,0,229,74,2.11,2.11,0,0,0,226,74a2.28,2.28,0,0,0-.59,1.71V82h-2.07Z" />
                <path class="cls-7" d="M234.72,67.06h2.07v2.13h-2.07Zm0,4.31h2.07V82h-2.07Z" />
                <path class="cls-7"
                    d="M240,73h-1V71.37h1V70a2.81,2.81,0,0,1,.82-2.24,3,3,0,0,1,2-.67h1.34v2H243c-.63,0-.93.28-.9.89v1.41h2.08V73h-2.08v9H240Z" />
                <path class="cls-7"
                    d="M245.65,68.13h2.07v3.24h1.51V73h-1.51v6.21c0,.54.23.8.74.78h.77v2h-1.08a2.4,2.4,0,0,1-1.78-.69,2.51,2.51,0,0,1-.72-1.93V73h-1V71.37h1Z" />
               
            </g>
        </g>
    </g>
</svg>