<svg xmlns="http://www.w3.org/2000/svg" xmlns:xlink="http://www.w3.org/1999/xlink" viewBox="0 0 200 150">
    <defs>
        <style>
            .cls-1 {
                fill: url(#未命名的渐变_30);
            }

            .cls-2 {
                fill: url(#未命名的渐变_44);
            }

            .cls-3 {
                fill: #0b1926;
            }

            .cls-4 {
                fill: #3275b3;
            }

            .cls-5 {
                fill: #16324d;
            }

            .cls-6 {
                stroke-miterlimit: 10;
                fill: url(#未命名的渐变_49);
                stroke: url(#未命名的渐变_36);
            }

            .cls-7 {
                fill: #fff;
            }

            .cls-8 {
                opacity: 0.2;
            }
        </style>
        <linearGradient id="未命名的渐变_30" y1="75" x2="200" y2="75" gradientUnits="userSpaceOnUse">
            <stop offset="0" stop-color="#1e4366" />
            <stop offset="1" stop-color="#245480" />
        </linearGradient>
        <linearGradient id="未命名的渐变_44" x1="100" y1="150" x2="100" gradientUnits="userSpaceOnUse">
            <stop offset="0" stop-color="#1e4366" />
            <stop offset="0.27" stop-color="#1f4669" />
            <stop offset="0.45" stop-color="#214f71" />
            <stop offset="0.61" stop-color="#255e7f" />
            <stop offset="0.75" stop-color="#2a7392" />
            <stop offset="0.87" stop-color="#318eac" />
            <stop offset="0.99" stop-color="#3aafca" />
            <stop offset="1" stop-color="#3ab1cc" />
        </linearGradient>
        <linearGradient id="未命名的渐变_49" x1="100" y1="133.55" x2="100" y2="16.45" gradientUnits="userSpaceOnUse">
            <stop offset="0" stop-color="#61666b" />
            <stop offset="1" stop-color="#7c8b99" />
        </linearGradient>
        <linearGradient id="未命名的渐变_36" x1="100" y1="134.05" x2="100" y2="15.95" gradientUnits="userSpaceOnUse">
            <stop offset="0" stop-color="#61676b" stop-opacity="0" />
            <stop offset="0.21" stop-color="#62686c" stop-opacity="0.01" />
            <stop offset="0.35" stop-color="#666c71" stop-opacity="0.05" />
            <stop offset="0.47" stop-color="#6d7479" stop-opacity="0.12" />
            <stop offset="0.58" stop-color="#777e85" stop-opacity="0.21" />
            <stop offset="0.68" stop-color="#848b93" stop-opacity="0.33" />
            <stop offset="0.77" stop-color="#939ba5" stop-opacity="0.48" />
            <stop offset="0.86" stop-color="#a6aebb" stop-opacity="0.65" />
            <stop offset="0.94" stop-color="#bbc3d3" stop-opacity="0.85" />
            <stop offset="1" stop-color="#cbd4e6" />
        </linearGradient>
    </defs>
    <title>Tab</title>
    <g id="图层_2" data-name="图层 2">
        <g id="单个电脑按键">
            <g id="Tab">
                <path class="cls-1"
                    d="M200,14.09V135.91A14.1,14.1,0,0,1,185.91,150H14.09A14.1,14.1,0,0,1,0,135.91V14.09A14.1,14.1,0,0,1,14.09,0H185.91A14.1,14.1,0,0,1,200,14.09Z" />
                <path class="cls-2"
                    d="M185.91,2A12.1,12.1,0,0,1,198,14.09V135.91A12.1,12.1,0,0,1,185.91,148H14.09A12.1,12.1,0,0,1,2,135.91V14.09A12.1,12.1,0,0,1,14.09,2H185.91m0-2H14.09A14.1,14.1,0,0,0,0,14.09V135.91A14.1,14.1,0,0,0,14.09,150H185.91A14.1,14.1,0,0,0,200,135.91V14.09A14.1,14.1,0,0,0,185.91,0Z" />
                <path class="cls-3"
                    d="M195.52,145.52a14,14,0,0,1-9.91,4.11H14.39a14,14,0,0,1-9.91-4.11l17.1-17.1H178.42Z" />
                <path class="cls-4"
                    d="M195.52,4.48l-17.1,17.1H21.58L4.48,4.48A14,14,0,0,1,14.39.37H185.61A14,14,0,0,1,195.52,4.48Z" />
                <path class="cls-5"
                    d="M199.63,14.39V135.61a14,14,0,0,1-4.11,9.91l-17.1-17.1V21.58l17.1-17.1A14,14,0,0,1,199.63,14.39Z" />
                <path class="cls-5"
                    d="M21.58,21.58V128.42l-17.1,17.1a14,14,0,0,1-4.11-9.91V14.39A14,14,0,0,1,4.48,4.48Z" />
                <rect class="cls-6" x="16.45" y="16.45" width="167.1" height="117.1" rx="9.34" />
                <path class="cls-7" d="M89.09,69.07h-4v-2H95.26v2h-4V82h-2.2Z" />
                <path class="cls-7"
                    d="M100.26,81.07h0a1.75,1.75,0,0,1-.89.8,4.11,4.11,0,0,1-1.65.27,3.7,3.7,0,0,1-2.66-1,3,3,0,0,1-1-2.3,3.07,3.07,0,0,1,.85-2.23,3.33,3.33,0,0,1,2.5-.92h2.87V74.62c0-.94-.69-1.4-2.12-1.37a3.68,3.68,0,0,0-1.22.16,1.5,1.5,0,0,0-.73.66l-1.63-1.28A4,4,0,0,1,98,71.24a5.35,5.35,0,0,1,3.11.76,3.12,3.12,0,0,1,1.18,2.74V82h-2.07Zm0-3.57H97.77c-1.21,0-1.8.46-1.79,1.28a1.17,1.17,0,0,0,.47.93,2.13,2.13,0,0,0,1.48.42,3.53,3.53,0,0,0,1.84-.32c.33-.23.49-.74.49-1.54Z" />
                <path class="cls-7"
                    d="M105.34,67.06h2.08V72.5a4.76,4.76,0,0,1,1.24-.92,2.87,2.87,0,0,1,1.42-.34,3.16,3.16,0,0,1,2.76,1.39,2.87,2.87,0,0,1,.59,1.32,17.05,17.05,0,0,1,.15,2.73,17,17,0,0,1-.15,2.71,2.84,2.84,0,0,1-.59,1.36,3.16,3.16,0,0,1-1.12,1,3.62,3.62,0,0,1-1.65.4,3.45,3.45,0,0,1-2.65-1.24V82h-2.08Zm4.11,6.31a1.82,1.82,0,0,0-1.1.3,1.71,1.71,0,0,0-.63.78,4.25,4.25,0,0,0-.25,1,13.6,13.6,0,0,0,0,2.33,4.28,4.28,0,0,0,.25,1.08,1.69,1.69,0,0,0,.63.79,1.82,1.82,0,0,0,1.1.31,2.05,2.05,0,0,0,1.16-.29,1.66,1.66,0,0,0,.61-.76,4.43,4.43,0,0,0,.27-1.1c0-.38,0-.77,0-1.18s0-.84,0-1.24a4.25,4.25,0,0,0-.27-1,1.44,1.44,0,0,0-.61-.76A2.15,2.15,0,0,0,109.45,73.37Z" />
               
            </g>
        </g>
    </g>
</svg>