<svg xmlns="http://www.w3.org/2000/svg" xmlns:xlink="http://www.w3.org/1999/xlink" viewBox="0 0 150 150">
    <defs>
        <style>
            .cls-1 {
                fill: url(#未命名的渐变_30);
            }

            .cls-2 {
                fill: url(#未命名的渐变_44);
            }

            .cls-3 {
                fill: #17334d;
            }

            .cls-4 {
                fill: #3985cc;
            }

            .cls-5 {
                fill: #245280;
            }

            .cls-6 {
                stroke-miterlimit: 10;
                fill: url(#未命名的渐变_51);
                stroke: url(#未命名的渐变_47);
            }

            .cls-7 {
                fill: #fff;
            }

            .cls-8 {
                opacity: 0.2;
            }
        </style>
        <linearGradient id="未命名的渐变_30" y1="75" x2="150" y2="75" gradientUnits="userSpaceOnUse">
            <stop offset="0" stop-color="#1e4366" />
            <stop offset="1" stop-color="#245480" />
        </linearGradient>
        <linearGradient id="未命名的渐变_44" x1="75" y1="150" x2="75" gradientUnits="userSpaceOnUse">
            <stop offset="0" stop-color="#1e4366" />
            <stop offset="0.27" stop-color="#1f4669" />
            <stop offset="0.45" stop-color="#214f71" />
            <stop offset="0.61" stop-color="#255e7f" />
            <stop offset="0.75" stop-color="#2a7392" />
            <stop offset="0.87" stop-color="#318eac" />
            <stop offset="0.99" stop-color="#3aafca" />
            <stop offset="1" stop-color="#3ab1cc" />
        </linearGradient>
        <linearGradient id="未命名的渐变_51" x1="75" y1="133.55" x2="75" y2="16.45" gradientUnits="userSpaceOnUse">
            <stop offset="0" stop-color="#8b9299" />
            <stop offset="1" stop-color="#a5b9cc" />
        </linearGradient>
        <linearGradient id="未命名的渐变_47" x1="75" y1="134.05" x2="75" y2="15.95" gradientUnits="userSpaceOnUse">
            <stop offset="0" stop-color="#61676b" stop-opacity="0" />
            <stop offset="0.2" stop-color="#62686d" stop-opacity="0.01" />
            <stop offset="0.34" stop-color="#676d72" stop-opacity="0.05" />
            <stop offset="0.45" stop-color="#6e757a" stop-opacity="0.1" />
            <stop offset="0.56" stop-color="#798087" stop-opacity="0.19" />
            <stop offset="0.65" stop-color="#878e97" stop-opacity="0.3" />
            <stop offset="0.74" stop-color="#98a0aa" stop-opacity="0.43" />
            <stop offset="0.83" stop-color="#acb4c2" stop-opacity="0.59" />
            <stop offset="0.91" stop-color="#c3cddd" stop-opacity="0.77" />
            <stop offset="0.99" stop-color="#dde7fb" stop-opacity="0.97" />
            <stop offset="1" stop-color="#e1ebff" />
        </linearGradient>
    </defs>
    <title>向左箭头</title>
    <g id="图层_2" data-name="图层 2">
        <g id="单个电脑按键">
            <g id="向左箭头">
                <path class="cls-1"
                    d="M150,14.09V135.91A14.1,14.1,0,0,1,135.91,150H14.09A14.1,14.1,0,0,1,0,135.91V14.09A14.1,14.1,0,0,1,14.09,0H135.91A14.1,14.1,0,0,1,150,14.09Z" />
                <path class="cls-2"
                    d="M135.91,2A12.1,12.1,0,0,1,148,14.09V135.91A12.1,12.1,0,0,1,135.91,148H14.09A12.1,12.1,0,0,1,2,135.91V14.09A12.1,12.1,0,0,1,14.09,2H135.91m0-2H14.09A14.1,14.1,0,0,0,0,14.09V135.91A14.1,14.1,0,0,0,14.09,150H135.91A14.1,14.1,0,0,0,150,135.91V14.09A14.1,14.1,0,0,0,135.91,0Z" />
                <path class="cls-3"
                    d="M145.52,145.52a14,14,0,0,1-9.91,4.11H14.39a14,14,0,0,1-9.91-4.11l17.1-17.1H128.42Z" />
                <path class="cls-4"
                    d="M145.52,4.48l-17.1,17.1H21.58L4.48,4.48A14,14,0,0,1,14.39.37H135.61A14,14,0,0,1,145.52,4.48Z" />
                <path class="cls-5"
                    d="M149.63,14.39V135.61a14,14,0,0,1-4.11,9.91l-17.1-17.1V21.58l17.1-17.1A14,14,0,0,1,149.63,14.39Z" />
                <path class="cls-5"
                    d="M21.58,21.58V128.42l-17.1,17.1a14,14,0,0,1-4.11-9.91V14.39A14,14,0,0,1,4.48,4.48Z" />
                <rect class="cls-6" x="16.45" y="16.45" width="117.1" height="117.1" rx="9.34" />
                <polygon class="cls-7" points="53.79 76.65 85.61 89.92 85.61 63.38 53.79 76.65" />
               
            </g>
        </g>
    </g>
</svg>