<?xml version="1.0" encoding="utf-8"?>
<!-- Generator: Adobe Illustrator 19.0.0, SVG Export Plug-In . SVG Version: 6.00 Build 0)  -->
<svg version="1.1" id="图层_1" xmlns="http://www.w3.org/2000/svg" xmlns:xlink="http://www.w3.org/1999/xlink" x="0px" y="0px"
	 viewBox="14 1.2 135.4 106.5" style="enable-background:new 14 1.2 135.4 106.5;" xml:space="preserve">
<style type="text/css">
	.st0{fill:#003300;stroke:#000000;stroke-width:0.25;}
	.st1{fill:#002100;}
	.st2{fill:#004C00;}
	.st3{fill:#007700;stroke:#000000;stroke-width:0.25;}
	.st4{fill:#008000;stroke:#000000;stroke-width:0.25;}
	.st5{fill:#001100;}
	.st6{fill:#219021;stroke:#000000;stroke-width:0.25;}
	.st7{fill:#329932;stroke:#000000;stroke-width:0.25;}
	.st8{fill:none;stroke:#B27F00;stroke-width:0.25;}
</style>
<g>
	<path class="st0" d="M130.9,26.4l-19.7-11.1L91.6,8.1L79,6.1l-17.6,2l-16.2,6.4l-14,9.8L22,33.4L130.9,26.4z"/>
	<path class="st1" d="M108.1,59.5l30.6-24.1l-40.2-3H67.7L25.2,48l33.5,39.8h83.5V59.5H108.1z"/>
	<path d="M59.6,65.1h-3.8v39.8h3.8V65.1z M64.5,66.4l-3.4-1.1l-10.2,38.3l3.3,0.9L64.5,66.4z M69.3,68.7l-3.4-1.9L46,101.4l3.3,1.8
		L69.3,68.7z M73.1,72.2l-2.6-2.6L42.2,97.7l2.6,2.6L73.1,72.2z M76,76.6l-2-3L39.7,93.5l1.8,3L76,76.6z M77.5,81.7l-1-3.6
		L37.9,88.4l0.9,3.5L77.5,81.7z M77.5,86.7v-3.5H37.9v3.5H77.5z M76.5,91.9l0.9-3.5L38.9,78.1L38,81.8L76.5,91.9z M74,96.5l2-3
		L41.4,73.6l-1.8,3L74,96.5z M70.6,100.3l2.6-2.6l-28.3-28l-2.7,2.5L70.6,100.3z M66,103.1l3.4-1.8L49.3,66.8L46,68.7L66,103.1z
		 M61.1,104.6l3.4-0.9L54.2,65.3l-3.3,1.1L61.1,104.6z M116.4,65.1h-3.7v39.8h3.7V65.1z M121.4,66.4l-3.5-1.1l-10.3,38.3l3.7,0.9
		L121.4,66.4z M126,68.7l-3-1.9l-20.1,34.6l3.1,1.8L126,68.7z M129.8,72.2l-2.4-2.6L99.2,97.7l2.6,2.6L129.8,72.2z M132.6,76.6
		l-1.8-3L96.4,93.5l1.8,3L132.6,76.6z M134.2,81.7l-1-3.6L94.8,88.4l0.8,3.5L134.2,81.7z M134.4,86.7v-3.5H94.5v3.5H134.4z
		 M133.2,91.9l1.1-3.5L95.6,78.1l-0.8,3.7L133.2,91.9z M130.9,96.5l1.8-3L98.2,73.6l-1.8,3L130.9,96.5z M127.3,100.3l2.4-2.6l-28-28
		l-2.5,2.5L127.3,100.3z M123,103.1l3-1.8l-19.9-34.6l-3.1,1.9L123,103.1z M117.9,104.6l3.5-0.9l-10.2-38.4l-3.7,1.1L117.9,104.6z"
		/>
	<path class="st0" d="M50.4,102.6l4.9,1.4h4.9l4.9-1.4l4.3-2.6l3.5-3.5l2.6-4.1l1.2-4.9v-5.1l-1.2-4.7l-2.6-4.5l-3.5-3.3l-4.3-2.6
		l-5-1.2h-4.9l-4.9,1.2L46,69.9l-3.5,3.3l-2.6,4.5l-1.4,4.7v5.1l1.4,4.6l2.6,4.3l3.5,3.5L50.4,102.6z"/>
	<path class="st0" d="M107.1,102.6l4.7,1.4h4.9l4.9-1.4l4.3-2.6l3.5-3.5l2.7-4.1l1.2-4.9v-5.1l-1.2-4.7l-2.7-4.5l-3.5-3.3l-4.3-2.6
		l-4.6-1.2h-5.1l-4.7,1.2l-4.3,2.6l-3.7,3.3l-2.3,4.5l-1.2,4.7v5.1l1.2,4.9l2.3,4.1l3.7,3.5L107.1,102.6z"/>
	<circle class="st2" cx="57.7" cy="85" r="8"/>
	<circle class="st2" cx="114.3" cy="85" r="8"/>
	<circle class="st3" cx="57.7" cy="85" r="6.2"/>
	<circle class="st3" cx="114.5" cy="85" r="6.4"/>
	<path d="M56.7,85.8l-3.3,0.9l0.5,1.1l0.9,0.8l1.1,0.4L56.7,85.8z"/>
	<path d="M58.6,85.8l0.7,3.3l1.1-0.4l0.9-0.8l0.5-1.1L58.6,85.8z"/>
	<path d="M58.6,84l3.3-0.8l-0.5-1.1l-0.9-0.7l-1.1-0.8L58.6,84z"/>
	<path d="M56.7,84L56,80.6l-1.1,0.8L54,82.1l-0.5,1.1L56.7,84z"/>
	<path d="M113.5,85.8l-3.4,0.9l0.8,1.1l0.8,0.8l0.9,0.4L113.5,85.8z"/>
	<path d="M115.3,85.8l1.1,3.3l0.9-0.4l0.8-0.8l0.4-1.1L115.3,85.8z"/>
	<path d="M115.3,84l3.3-0.8l-0.4-1.1l-0.8-0.7l-0.9-0.8L115.3,84z"/>
	<path d="M113.5,84l-0.8-3.4l-0.9,0.8l-0.8,0.7l-0.8,1.1L113.5,84z"/>
	<path class="st4" d="M135.7,41.6h-27.6v17.9h27.6V41.6z"/>
	<path class="st5" d="M123.7,45.1h-3.5v8.7h3.5V45.1z"/>
	<path class="st5" d="M134.9,45.1H130l1.6,8.7h3.3L134.9,45.1L134.9,45.1z"/>
	<path class="st5" d="M128.6,45.1h-3.3v8.7h4.7L128.6,45.1z"/>
	<path class="st6" d="M139.3,41.6h-31.2v-2h31.2V41.6z"/>
	<path class="st6" d="M145.6,59.5h-37.5v2.7h20.5l12.3,28.5h4.7V59.5z"/>
	<path class="st7" d="M100.2,64.2l7.2-29h31.8v-10H41.4L34.2,31L23.5,48.8L100.2,64.2z"/>
	<path class="st8" d="M94.5,62.2l8.4-36.2"/>
	<path class="st8" d="M100.9,33.9H33.6"/>
	<path class="st8" d="M98.2,43.9H30.7"/>
	<path class="st8" d="M96.6,52.3H42.8"/>
	<path class="st8" d="M91.8,61.5V26"/>
	<path class="st7" d="M91,24l0.8,5.6L68.3,40.3l-45.4,10L18,48.8l1.5-17.7H57l27.6-7L91,24C91,24.1,91,24,91,24z"/>
</g>
</svg>
