<?xml version="1.0" encoding="utf-8"?>
<!-- Generator: Adobe Illustrator 19.0.0, SVG Export Plug-In . SVG Version: 6.00 Build 0)  -->
<svg version="1.1" id="图层_1" xmlns="http://www.w3.org/2000/svg" xmlns:xlink="http://www.w3.org/1999/xlink" x="0px" y="0px"
	 viewBox="18 17.7 144.7 72" style="enable-background:new 18 17.7 144.7 72;" xml:space="preserve">
<style type="text/css">
	.st0{fill:#006600;stroke:#000000;stroke-width:0.25;}
	.st1{fill:#007F00;stroke:#000000;stroke-width:0.25;}
	.st2{stroke:#000000;stroke-width:0.25;}
	.st3{fill:#54AA54;stroke:#000000;stroke-width:0.25;}
	.st4{fill:#CAE4CA;stroke:#000000;stroke-width:0.25;}
	.st5{fill:#64B264;stroke:#000000;stroke-width:0.25;}
	.st6{fill:#98CB98;stroke:#000000;stroke-width:0.25;}
	.st7{fill:#007F00;}
	.st8{fill:#329932;}
	.st9{fill:#64B264;}
	.st10{fill:#98CB98;}
	.st11{fill:#CAE4CA;}
	.st12{fill:none;stroke:#000000;stroke-width:0.25;}
	.st13{fill:none;stroke:#7F7F7F;stroke-width:0.25;}
	.st14{fill:#329932;stroke:#000000;stroke-width:0.25;}
	.st15{fill:#004C00;stroke:#000000;stroke-width:0.25;}
</style>
<path class="st0" d="M143.3,37.3H31.8v24.8h111.3V37.3H143.3z"/>
<path class="st1" d="M125,64H59.8v5.8H125V64z"/>
<path class="st2" d="M156,59.2H32.5v20.7h123.4V59.2H156z"/>
<circle class="st0" cx="69.3" cy="79.9" r="9.1"/>
<circle class="st0" cx="49.3" cy="79.9" r="9.1"/>
<path class="st3" d="M151.3,68.6l2.8,12.6h5.8l-1.2-13.3V54.4l-14.6-1.9V41.1h3.9v-1.9l-23.6-1.9v39.3h7l3.2-8
	C134.8,68.6,151.3,68.6,151.3,68.6z"/>
<path class="st4" d="M160.5,73.5h-5.7v8h5.7V73.5z"/>
<path class="st5" d="M121.3,63.2h-92V67h91.9L121.3,63.2L121.3,63.2z"/>
<path class="st2" d="M144.3,41.1v11.4l-7.7-1.9V41L144.3,41.1L144.3,41.1z"/>
<circle class="st6" cx="69.3" cy="79.9" r="4.5"/>
<circle class="st6" cx="49.1" cy="79.9" r="4.6"/>
<path class="st7" d="M31.8,61.8h85.8l2.9-2.6l1.3-4.1l0.9-4.5l0.3-4.3l0.1-0.9v-0.9v-1L123,39l-0.6-4.2l-0.9-4.2l-1.4-3.6l-2.2-1.7
	h-0.3H31.8l-2.8,3l-1.1,3.6l-0.7,4.5l-0.4,4.3v0.9v1v0.9l0.1,4.6l0.4,4.1l0.9,4.2l1.4,3.6l2,1.7L31.8,61.8
	C31.9,61.7,31.9,61.8,31.8,61.8z"/>
<path class="st8" d="M31.8,58.6h85.8l3-2.6l1.4-4.1l0.7-3.9l0.3-2.9v-1.6v-1.6l-0.4-4.3l-0.9-3.6l-1.6-3.6l-2-1.7l-0.6-0.1H31.8
	L29,31.2l-1.4,4.1L26.9,39l-0.1,2.9v1.6v1.6l0.4,4.2l0.7,3.8l1.6,3.6l1.9,1.7L31.8,58.6z"/>
<path class="st9" d="M31.8,55.5h85.8l3-2l1.7-4.3l0.7-4.5v-1.2v-1.2l-0.7-4.5l-1.3-3.6l-2.9-2.6l-0.6-0.1H31.8l-3.2,2.8l-1.3,3.6
	l-0.6,4.5v1.1v1.2l0.6,4.5l1.3,3.6l2.8,2.6L31.8,55.5z"/>
<path class="st10" d="M31.8,50.6h85.8l3.5-1.6l1.7-3.5l0.3-1.3v-0.7v-0.7l-1.3-3.9l-3-2.3l-0.6-0.1h-0.6H31.8l-3.6,2l-1.4,3.6v0.7
	v0.7v0.7L28,48l2.9,2.5l0.6,0.1C31.5,50.6,31.8,50.6,31.8,50.6z"/>
<ellipse class="st11" cx="74.9" cy="43.5" rx="48.1" ry="2.5"/>
<path class="st12" d="M31.8,61.8h85.8l2.9-2.6l1.3-4.1l0.9-4.5l0.3-4.3l0.1-0.9v-0.9v-1L123,39l-0.6-4.2l-0.9-4.2l-1.4-3.6l-2.2-1.7
	h-0.3H31.8l-2.8,3l-1.1,3.6l-0.7,4.5l-0.4,4.3v0.9v1v0.9l0.1,4.6l0.4,4.1l0.9,4.2l1.4,3.6l2,1.7L31.8,61.8"/>
<path class="st13" d="M77.4,25.3L76.2,26l-0.7,1.4l-0.4,1.4l-0.3,1.7l-0.1,1.3l-0.3,1.3l-0.1,1.6L74,36.4l-0.1,1.7l-0.1,1.7v1.7v1v1
	v1.9v1.9l0.1,1.7l0.1,1.6l0.1,1.6l0.1,1.6l0.3,1.3l0.1,1.3l0.4,1.7l0.4,1.4l0.6,1.2l0.9,1h0.3h0.1"/>
<path class="st14" d="M120.4,70.3h-18.3v11.4h18.4C120.4,81.7,120.4,70.3,120.4,70.3z"/>
<path class="st1" d="M38.8,67.3h-2l-4.9,19.1h2L38.8,67.3z"/>
<path class="st15" d="M111.9,53.1h-88v6.1h88V53.1z"/>
<path class="st14" d="M35.4,51.9h-2.2v11.3h2.2V51.9z"/>
<path class="st14" d="M58.9,51.9h-2.2v11.3h2.2V51.9z"/>
<path class="st14" d="M82.4,51.9h-2.2v11.3h2.2V51.9z"/>
<path class="st14" d="M105.9,51.9h-2.2v11.3h2.2V51.9z"/>
<circle class="st0" cx="142.6" cy="79.9" r="9.3"/>
<circle class="st6" cx="142.6" cy="79.9" r="4.6"/>
<path class="st14" d="M132.8,78v-2.3h-11.4V78H132.8z"/>
<path class="st14" d="M138.8,70.6v-2.2h-11.4v2.2H138.8z"/>
</svg>
