<?xml version="1.0" encoding="utf-8"?>
<!-- Generator: Adobe Illustrator 19.0.0, SVG Export Plug-In . SVG Version: 6.00 Build 0)  -->
<svg version="1.1" id="图层_1" xmlns="http://www.w3.org/2000/svg" xmlns:xlink="http://www.w3.org/1999/xlink" x="0px" y="0px"
	 viewBox="18 23 144.7 61.7" style="enable-background:new 18 23 144.7 61.7;" xml:space="preserve">
<style type="text/css">
	.st0{fill:#E4F1E4;stroke:#000000;stroke-width:0.25;}
	.st1{fill:#FFFFFF;}
	.st2{fill:none;stroke:#000000;stroke-width:0.25;}
</style>
<g>
	<path class="st0" d="M134.1,67.3V41.6h17l6.2,11l1.2,10.9v3.8H134.1z"/>
	<circle cx="151.1" cy="75.7" r="7.2"/>
	<circle class="st1" cx="151.1" cy="75.8" r="3.6"/>
	<path class="st2" d="M158.5,63.5H145l-2.3-2.5V42.8"/>
	<path class="st2" d="M134.1,42.8h17.7"/>
	<path class="st2" d="M156,51.3h-21.9"/>
	<path class="st2" d="M152.4,63.5V51.3l-2.5-8.5"/>
	<path class="st2" d="M140.8,44.7v4.9h-4.9v-4.9H140.8"/>
	<path class="st0" d="M142.8,77.6h-3.9V67.3h19.6l1.2,1.7l-1.7,1.2l-1-0.7l-1.2-0.7l-1.3-0.4l-1.2-0.3L152,68h-1.3l-1.7,0.3
		l-1.4,0.6l-1.4,0.9l-1.2,1l-1,1.2l-0.7,1.4l-0.3,1.4v1.6L142.8,77.6z"/>
	<path d="M134.1,67.3V63h-1.9V46.4l-0.6-0.6v-9.7h-1.3v9.7l-0.6,0.6v16.5h-1.6v4.3L134.1,67.3L134.1,67.3z"/>
	<path d="M135.3,53.8V61h6.1v-7.2H135.3z"/>
	<path d="M131.1,68.4V80h10.3V68.4h-2.5l0.1-1.2h-5.7v1.2H131.1z"/>
	<path d="M29.2,68.4h-1.9v12.8h1.9V68.4z"/>
	<path d="M56,68.4l2.5,1.9h41.4l-3.6,6.1l0.6,1.7l4.9-7.8l1.7-1.9C103.6,68.4,56,68.4,56,68.4z"/>
	<circle cx="122.4" cy="75.7" r="7.2"/>
	<circle class="st1" cx="122.6" cy="75.8" r="3.6"/>
	<circle cx="107.8" cy="75.7" r="7.2"/>
	<circle class="st1" cx="107.9" cy="75.8" r="3.6"/>
	<path class="st0" d="M127.9,29.5H23.2v37.8h104.8L127.9,29.5L127.9,29.5z"/>
	<circle cx="52.3" cy="75.7" r="7.2"/>
	<circle class="st1" cx="52.4" cy="75.8" r="3.6"/>
	<circle cx="37.6" cy="75.7" r="7.2"/>
	<circle class="st1" cx="37.8" cy="75.8" r="3.6"/>
</g>
</svg>
