<?xml version="1.0" encoding="utf-8"?>
<!-- Generator: Adobe Illustrator 19.0.0, SVG Export Plug-In . SVG Version: 6.00 Build 0)  -->
<svg version="1.1" id="图层_1" xmlns="http://www.w3.org/2000/svg" xmlns:xlink="http://www.w3.org/1999/xlink" x="0px" y="0px"
	 viewBox="18 9.7 144.7 89" style="enable-background:new 18 9.7 144.7 89;" xml:space="preserve">
<style type="text/css">
	.st0{fill:#002100;}
	.st1{fill:#003300;stroke:#000000;stroke-width:0.25;}
	.st2{fill:#004C00;}
	.st3{fill:#007700;stroke:#000000;stroke-width:0.25;}
	.st4{fill:#329932;stroke:#000000;stroke-width:0.25;}
	.st5{fill:#108710;}
	.st6{fill:#CAE4CA;stroke:#000000;stroke-width:0.25;}
	.st7{fill:none;stroke:#FFCC00;stroke-width:0.25;}
	.st8{fill:#008000;stroke:#000000;stroke-width:0.25;}
	.st9{fill:#001100;}
	.st10{fill:#219021;}
	.st11{fill:none;stroke:#000000;stroke-width:0.25;}
</style>
<path class="st0" d="M113.7,47.9l4.9-18.1l20.6-12.6h-20.9L24.6,36.6l37.2,40.7h87.4V47.9H113.7z"/>
<path d="M62.9,53.6h-3.8v41.6h3.8V53.6z M68.1,54.9l-3.5-1L53.9,94l3.6,1.2L68.1,54.9z M73,57.5l-3.2-2L49,91.5l3.3,1.9L73,57.5z
	 M77.2,61l-2.7-2.5L44.9,87.8l2.8,2.8L77.2,61z M80.1,65.6l-2.2-3.3L42.2,83.1l1.9,3.2L80.1,65.6z M81.6,70.8l-0.9-3.6L40.6,77.9
	l0.7,3.8L81.6,70.8z M81.9,76.3v-3.6H40.3v3.6H81.9z M80.7,81.7l0.9-3.8L41.3,67.2l-0.7,3.6L80.7,81.7z M77.9,86.3l2.2-3.2L44,62.3
	l-1.9,3.3L77.9,86.3z M74.5,90.5l2.8-2.8L47.7,58.5L44.9,61L74.5,90.5z M69.8,93.4l3.2-1.9l-20.7-36l-3.3,2L69.8,93.4z M64.6,95.2
	l3.5-1.2L57.5,53.9l-3.6,1L64.6,95.2z M122.3,53.6h-3.6v41.6h3.6V53.6z M127.6,54.9l-3.8-1L113.1,94l3.9,1.2L127.6,54.9z
	 M132.6,57.5l-3.3-2l-21,36.1l3.3,1.9L132.6,57.5z M136.5,61l-2.8-2.5l-29.2,29.3l2.8,2.8L136.5,61z M139.4,65.6l-1.9-3.3
	l-36.1,20.9l1.9,3.2L139.4,65.6z M141.1,70.8l-1.2-3.6L99.8,77.9l1.2,3.8L141.1,70.8z M141.4,76.3v-3.6H99.5v3.6H141.4z M140,81.7
	l1.2-3.8l-40.1-10.7l-1.2,3.6L140,81.7z M137.5,86.3l1.9-3.2l-36.1-20.9l-1.9,3.3L137.5,86.3z M133.7,90.5l2.8-2.8l-29.3-29.2
	l-2.8,2.5L133.7,90.5z M129.2,93.4l3.3-1.9l-21-36.1l-3.3,2L129.2,93.4z M123.9,95.2l3.8-1.2l-10.6-40.1l-3.9,1L123.9,95.2z"/>
<circle class="st1" cx="61" cy="74.4" r="19.9"/>
<circle class="st1" cx="120.4" cy="74.4" r="19.7"/>
<circle class="st2" cx="61" cy="74.3" r="8.4"/>
<circle class="st2" cx="120.4" cy="74.3" r="8.5"/>
<circle class="st3" cx="61" cy="74.4" r="6.5"/>
<circle class="st3" cx="120.4" cy="74.4" r="6.7"/>
<path d="M60.1,75.5l-3.5,0.9l0.6,1l1,0.9l0.9,0.6L60.1,75.5z"/>
<path d="M61.9,75.5l1,3.3l1.2-0.6l0.9-0.9l0.4-1L61.9,75.5z"/>
<path d="M61.9,73.6l3.5-0.9l-0.4-1l-0.9-0.9l-1.2-0.9L61.9,73.6z"/>
<path d="M60.1,73.6l-1-3.6l-0.9,0.9l-1,0.9l-0.6,1L60.1,73.6z"/>
<path d="M119.5,75.5l-3.6,0.9l0.9,1l0.7,0.9l1.2,0.6L119.5,75.5z"/>
<path d="M121.4,75.5l0.9,3.3l1-0.6l0.9-0.9l0.7-1L121.4,75.5z"/>
<path d="M121.4,73.6l3.5-0.9l-0.7-1l-0.9-0.9l-1-0.9L121.4,73.6z"/>
<path d="M119.5,73.6l-0.9-3.6l-1.2,0.9l-0.7,0.9l-0.9,1L119.5,73.6z"/>
<path class="st4" d="M90.8,59.7l5.9-20.9l25.2-21.6h17.7l-5.9-2.9h-26.5l-77.4,2.9L19.6,35.9L90.8,59.7z"/>
<path class="st5" d="M87.8,35.9H25.5l56.4,17.7L87.8,35.9z"/>
<path class="st5" d="M87.8,32.9l5.9-11.7l-62.4,2.9l-2.8,8.8H87.8z"/>
<path class="st6" d="M150.1,58.8v-6.5h-1.4v6.5H150.1z"/>
<path class="st7" d="M151,77.3V41.8"/>
<path class="st7" d="M153.9,77.3V41.8"/>
<path class="st7" d="M153.9,50.5H151"/>
<path class="st7" d="M153.9,53.6H151"/>
<path class="st7" d="M153.9,56.6H151"/>
<path class="st7" d="M153.9,59.7H151"/>
<path class="st7" d="M153.9,62.6H151"/>
<path class="st7" d="M153.9,65.6H151"/>
<path class="st7" d="M153.9,68.6H151"/>
<path class="st7" d="M153.9,71.7H151"/>
<path class="st7" d="M153.9,74.3H151"/>
<path class="st7" d="M153.9,47.9H151"/>
<path class="st7" d="M153.9,44.9H151"/>
<path class="st8" d="M142.7,29.2h-29v18.7h29V29.2z"/>
<path class="st9" d="M130.1,32.9h-3.8v9h3.8V32.9z"/>
<path class="st9" d="M141.8,32.9h-5.2l1.7,9h3.5V32.9z"/>
<path class="st9" d="M135.3,32.9h-3.8v9h5.1L135.3,32.9z"/>
<path class="st10" d="M146.5,29.2h-32.7v-2.5h32.7V29.2z M150.1,47.9H99.5v2.6h35.8l13.3,29.8h7.4v-3h-5.9l-6.5-15.5h6.5v-3h-8.3
	l-3.5-8.3H150v-2.6H150.1z M148.7,58.8v-6.5l-5.9,0.7v5.2L148.7,58.8z"/>
<path class="st11" d="M146.5,29.2h-32.7v-2.5h32.7V29.2"/>
<path class="st11" d="M150.1,47.9H99.5v2.6h35.8l13.3,29.8h7.4v-3h-5.9l-6.5-15.5h6.5v-3h-8.3l-3.5-8.3H150v-2.6"/>
<path class="st11" d="M148.7,58.8v-6.5l-5.9,0.7v5.2L148.7,58.8"/>
</svg>
