<?xml version="1.0" encoding="utf-8"?>
<!-- Generator: Adobe Illustrator 15.1.0, SVG Export Plug-In . SVG Version: 6.00 Build 0)  -->
<!DOCTYPE svg PUBLIC "-//W3C//DTD SVG 1.1//EN" "http://www.w3.org/Graphics/SVG/1.1/DTD/svg11.dtd">
<svg version="1.1" id="Layer_1" xmlns="http://www.w3.org/2000/svg" preserveAspectRatio="none"  xmlns:xlink="http://www.w3.org/1999/xlink" x="0px"
     y="0px"   viewBox="0 0 252 57" xmlns:agg="http://www.example.com">

<agg:params>
	<agg:param type="C" name="color" description="Color" cssAttributes="fill" classes="color"/>
</agg:params>
	 
<style type="text/css" >
<![CDATA[

	.stroked,.color{
		stroke-width:0.25;
		stroke-linecap:round;
		stroke-linejoin:round;
		stroke:black;
	}
	
	.color {
		fill: #FFCC00;
	}
	
	.stroked {
		fill:none;
	}
		]]>

</style>
	 
<g>
	<polygon fill="#666666" points="36.02,8.93 36.02,34.771 48.978,43.699 215.98,43.699 215.98,8.93"/>
	<polygon fill="#E5E5E5" points="225.979,8.93 221.007,1 76.514,1 70.984,7.433 36.02,7.433 1,26.842 1,44.698 65.008,44.698 65.008,34.771 36.02,34.771 
		36.02,8.93 65.008,8.93 74,8.93 106.507,8.93 117.008,24.346 117.008,44.698 148.006,44.698 148.006,24.346 158.507,8.93 
		200.007,8.93 200.007,44.698 225.979,44.698 225.979,39.707 251,39.707 251,8.93 	"/>
	<polygon fill="#666666" points="110.473,8.93 117.008,18.856 117.008,16.416 
		148.006,16.416 148.006,18.856 154.485,8.93 110.473,8.93 	"/>
	<polygon fill="#E5E5E5" points="117.008,12.423 148.006,12.423 148.006,15.418 117.008,15.418 117.008,12.423 	"/>
	<polygon fill="#B2B2B2" points="117.008,25.344 148.006,25.344 148.006,26.842 117.008,26.842 117.008,25.344 	"/>
	<polygon fill="#B2B2B2" points="117.008,34.771 148.006,34.771 148.006,35.77 117.008,35.77 117.008,34.771 	"/>
	<polygon fill="#B2B2B2" points="201.514,16.416 201.514,17.858 221.512,17.858 221.512,39.707 222.974,39.707 222.974,16.416 	"/>
	<path d="M128.514,18.856h7.986v3.992h-7.986V18.856L128.514,18.856z M17.979,29.281v3.993
		h7.54v-3.993H17.979L17.979,29.281z M14.014,22.849h1.508v5.436h-1.508V22.849L14.014,22.849z M11.5,38.209h4.021v3.993H11.5
		V38.209L11.5,38.209z"/>
	<polygon fill="#FFFFFF" points="201.514,15.418 222.974,15.418 222.974,16.416 201.514,16.416 201.514,15.418 	"/>
	<polygon fill="#FFFFFF" points="117.008,24.346 148.006,24.346 148.006,25.344 117.008,25.344 117.008,24.346 	"/>
	<polygon fill="#FFFFFF" points="117.008,33.274 148.006,33.274 148.006,34.771 117.008,34.771 117.008,33.274 	"/>
	<polygon fill="#FFFFFF" points="117.008,42.202 148.006,42.202 148.006,43.699 117.008,43.699 117.008,42.202 	"/>
	<path fill="#666666" d="M201.514,8.93h21.46v4.99h-21.46V8.93L201.514,8.93z
		 M225.979,9.928v28.281h23.515V9.928H225.979L225.979,9.928z"/>
	
	<g id="wheel">
		<polygon points="114.074,31.164 107.295,31.164 113.81,29.441 112.963,25.487 106.006,27.323 112.116,23.8 110.13,20.119 
			104.112,23.622 109.009,18.736 105.902,15.892 101.043,20.75 104.479,14.781 101.072,12.785 97.513,18.858 99.387,11.938 
			95.432,10.827 93.473,18.059 93.473,10.515 89.52,10.515 89.52,18.189 87.522,10.827 83.579,11.938 85.49,18.99 81.883,12.785 
			78.203,14.781 81.677,20.741 76.791,15.892 73.984,18.736 78.814,23.604 72.836,20.119 70.877,23.8 77.026,27.34 70.03,25.487 
			68.882,29.441 75.442,31.164 68.882,31.164 68.882,35.391 75.312,35.391 68.882,37.075 70.03,41.03 77.826,38.97 70.877,43.026 
			72.836,46.406 78.88,42.933 73.984,47.819 76.791,50.936 81.413,46.313 78.203,51.772 81.883,54.041 85.367,47.989 83.579,54.617 
			87.522,55.728 89.52,48.364 89.52,56 93.473,56 93.473,48.496 95.432,55.728 99.387,54.617 97.626,48.121 101.072,54.041 
			104.479,51.772 101.307,46.304 105.902,50.936 109.009,47.819 104.046,42.904 110.13,46.406 112.116,43.026 105.196,38.988 
			112.963,41.03 113.81,37.075 107.428,35.391 114.074,35.391 		"/>
		<circle fill="#333333" cx="91.478" cy="33.258" r="21.672"/>
		<circle opacity="0.3" fill="#FFFFFF" cx="91.478" cy="33.258" r="9.239"/>
		<circle class="color" cx="91.478" cy="33.258" r="7.279"/>
		<path d="M88.725,27.881l1.482,4.083l-0.023,0.022l-4.081-1.48L88.725,27.881z M96.853,36.011l-4.083-1.482l-0.021,0.021
			l1.48,4.083L96.853,36.011z M86.101,36.011l4.083-1.482l0.022,0.021l-1.481,4.083L86.101,36.011z M94.229,27.881l-1.481,4.083
			l0.022,0.022l4.083-1.48L94.229,27.881z"/>
	</g>
	
	<use xlink:href="#wheel" transform="translate(82.3 0)"/>

</g>
</svg>
