<?xml version="1.0" encoding="utf-8"?>
<!-- Generator: Adobe Illustrator 15.1.0, SVG Export Plug-In . SVG Version: 6.00 Build 0)  -->
<!DOCTYPE svg PUBLIC "-//W3C//DTD SVG 1.1//EN" "http://www.w3.org/Graphics/SVG/1.1/DTD/svg11.dtd">
<svg version="1.1" id="Default" xmlns="http://www.w3.org/2000/svg" preserveAspectRatio="none"  x="0px" y="0px"
       viewBox="0 0 102 102" xmlns:agg="http://www.example.com">

<agg:params>
	<agg:param type="C" name="color" description="Color" cssAttributes="fill" classes="color"/>
</agg:params>
	 
<style type="text/css" >
<![CDATA[

	.stroked,.color{
		stroke-width:0.3;
		stroke-linecap:round;
		stroke-linejoin:round;
		stroke:black;
	}
	
	.color {
		fill: #E5CB98;
	}
	
	.stroked {
		fill:none;
	}
		]]>

</style>
	 
<polygon class="color" points="78.384,23.615 94.397,26.008 86.997,30.187 88.4,41 101,50.984 92.61,50.984 88.4,61 
	94.206,75.992 86.997,71.813 78.384,78.385 75.992,94.397 71.813,86.997 61,88.592 51.016,101 51.016,92.611 40.809,88.401 
	26.008,94.397 30.187,86.997 23.392,78.385 7.603,75.992 15.003,71.813 13.408,61 1,50.984 9.389,50.984 13.408,41 7.603,26.008 
	15.003,30.187 23.392,23.615 26.008,7.603 30.187,15.003 41,13.408 51.016,1 51.016,9.389 61,13.408 75.992,7.794 71.813,15.003 	
	"/>
<g opacity="0.15">
	<path fill="#FFFFFF" d="M16.605,60.13c1.616,6.106,4.813,11.563,9.135,15.913c4.337,4.386,9.821,7.646,15.956,9.303
		c2.979,0.811,6.106,1.238,9.338,1.238c3.204,0,6.316-0.427,9.268-1.231l-9.29-34.373l-34.4,9.149H16.605z"/>
	<path fill="#FFFFFF" d="M85.386,41.685c-1.644-6.093-4.868-11.542-9.198-15.871c-4.386-4.393-9.919-7.638-16.102-9.261
		c-2.903-0.763-5.946-1.168-9.086-1.168s-6.184,0.405-9.08,1.175v0.007l9.093,34.414l34.366-9.295H85.386z"/>
</g>
<path opacity="0.5" fill="#FFFFFF" d="M70.225,9.927c1.128-0.435,2.396,0.127,2.831,1.255c0.435,1.128-0.127,2.396-1.255,2.832
	c-1.128,0.435-2.396-0.127-2.832-1.256C68.534,11.63,69.096,10.362,70.225,9.927z M85.678,26.856
	c-0.188,1.195,0.629,2.315,1.824,2.502c1.195,0.188,2.315-0.629,2.503-1.824c0.188-1.195-0.629-2.315-1.824-2.502
	C86.985,24.845,85.865,25.662,85.678,26.856z M93.098,47.419c-0.76,0.941-0.613,2.32,0.329,3.08
	c0.941,0.759,2.319,0.612,3.079-0.329c0.76-0.941,0.613-2.32-0.329-3.08C95.236,46.331,93.858,46.478,93.098,47.419z
	 M89.243,68.938c-1.128,0.435-1.69,1.703-1.255,2.831c0.435,1.128,1.703,1.69,2.831,1.255c1.128-0.435,1.691-1.703,1.256-2.831
	C91.639,69.064,90.371,68.502,89.243,68.938z M75.145,85.645c-1.195-0.187-2.315,0.629-2.503,1.824
	c-0.187,1.195,0.629,2.315,1.825,2.503c1.195,0.187,2.315-0.629,2.502-1.824S76.339,85.833,75.145,85.645z M54.581,93.065
	c-0.941-0.759-2.32-0.612-3.08,0.329c-0.759,0.941-0.613,2.32,0.329,3.08c0.941,0.76,2.32,0.613,3.08-0.328
	C55.669,95.204,55.522,93.825,54.581,93.065z M33.062,89.21c-0.435-1.128-1.703-1.69-2.831-1.255s-1.69,1.703-1.255,2.831
	c0.436,1.128,1.703,1.69,2.832,1.255S33.498,90.339,33.062,89.21z M16.354,75.112c0.187-1.195-0.63-2.315-1.824-2.502
	c-1.195-0.188-2.315,0.629-2.503,1.824c-0.188,1.194,0.629,2.315,1.824,2.502S16.167,76.307,16.354,75.112z M8.934,54.549
	c0.76-0.941,0.613-2.32-0.328-3.08c-0.941-0.759-2.32-0.612-3.08,0.329c-0.759,0.941-0.612,2.32,0.329,3.079
	C6.795,55.637,8.174,55.49,8.934,54.549z M12.789,33.031c1.128-0.436,1.69-1.703,1.255-2.831c-0.435-1.128-1.703-1.69-2.832-1.255
	c-1.128,0.435-1.69,1.703-1.255,2.831C10.393,32.904,11.661,33.466,12.789,33.031z M26.887,16.323
	c1.195,0.188,2.315-0.629,2.502-1.824c0.188-1.195-0.629-2.315-1.824-2.503c-1.195-0.187-2.315,0.63-2.502,1.824
	C24.875,15.016,25.692,16.136,26.887,16.323z M47.451,8.903c0.941,0.76,2.32,0.613,3.08-0.328c0.76-0.941,0.613-2.32-0.329-3.08
	c-0.941-0.76-2.32-0.612-3.08,0.329C46.363,6.765,46.509,8.144,47.451,8.903z"/>
<path opacity="0.3" fill="#FFFFFF" d="M51.013,50.98l-9.317,34.359v0.007c-6.135-1.658-11.619-4.917-15.956-9.303L51.013,50.98z
	 M60.085,16.553v0.007L51.013,50.98l25.175-25.167C71.802,21.421,66.269,18.176,60.085,16.553z"/>
<path fill="#331900" d="M68.315,48.892c1.145-1.982,3.679-2.661,5.66-1.517c1.982,1.145,2.661,3.678,1.517,5.66
	c-1.145,1.982-3.679,2.661-5.661,1.517C67.851,53.407,67.171,50.873,68.315,48.892z M38.519,65.496
	c-1.982,1.144-2.661,3.678-1.517,5.66c1.144,1.981,3.678,2.661,5.66,1.517c1.982-1.145,2.661-3.678,1.517-5.66
	C43.035,65.031,40.5,64.352,38.519,65.496z M44.697,32.905c0-2.288-1.855-4.143-4.144-4.143s-4.143,1.855-4.143,4.143
	c0,2.289,1.854,4.144,4.143,4.144S44.697,35.194,44.697,32.905z M58.4,43.6c-4.079-4.078-10.691-4.078-14.77,0
	c-4.078,4.079-4.078,10.69,0,14.769c4.078,4.078,10.691,4.078,14.769,0C62.479,54.29,62.479,47.678,58.4,43.6z"/>
	
<g opacity="0.5" class="stroked">
	<circle cx="51.016" cy="50.984" r="16.695"/>
	<circle cx="51.013" cy="50.98" r="35.597"/>
</g>

</svg>
