<?xml version="1.0" encoding="utf-8"?>
<!-- Generator: Adobe Illustrator 19.0.0, SVG Export Plug-In . SVG Version: 6.00 Build 0)  -->
<svg version="1.1" id="图层_1" xmlns="http://www.w3.org/2000/svg" xmlns:xlink="http://www.w3.org/1999/xlink" x="0px" y="0px"
	 viewBox="0 1.2 108.2 106.5" style="enable-background:new 0 1.2 108.2 106.5;" xml:space="preserve">
<style type="text/css">
	.st0{fill:url(#SVGID_1_);}
	.st1{fill:url(#SVGID_2_);}
	.st2{fill:none;stroke:#000000;stroke-width:0.5;}
	.st3{fill:#A8D3A8;}
	.st4{fill:#B2D8B2;stroke:#000000;stroke-width:0.5;}
	.st5{fill:#007F00;}
	.st6{fill:#004C00;}
	.st7{fill:#4CA64C;stroke:#000000;stroke-width:0.5;}
	.st8{fill:#003300;}
	.st9{fill:#006600;stroke:#000000;stroke-width:0.5;}
	.st10{fill:#004C00;stroke:#000000;stroke-width:0.5;}
	.st11{fill:url(#SVGID_3_);stroke:#000000;stroke-width:0.5;}
</style>
<radialGradient id="SVGID_1_" cx="57.4" cy="50.44" r="48.8534" gradientTransform="matrix(1 0 0 -1 0 110.16)" gradientUnits="userSpaceOnUse">
	<stop  offset="0" style="stop-color:#007F00"/>
	<stop  offset="0.7799" style="stop-color:#FFFFFF"/>
	<stop  offset="1" style="stop-color:#007F00"/>
</radialGradient>
<ellipse class="st0" cx="56.2" cy="59.7" rx="49.1" ry="44.4"/>
<linearGradient id="SVGID_2_" gradientUnits="userSpaceOnUse" x1="4.7" y1="75.84" x2="29.2" y2="75.84" gradientTransform="matrix(1 0 0 -1 0 110.16)">
	<stop  offset="0" style="stop-color:#007F00"/>
	<stop  offset="0.5" style="stop-color:#FFFFFF"/>
	<stop  offset="1" style="stop-color:#007F00"/>
</linearGradient>
<path class="st1" d="M29.2,10.5H4.7l2.4,47.6l21.2-35L29.2,10.5z"/>
<path class="st2" d="M56.2,14.8c-10.3,0-27.6,7.7-27.6,7.7L29.3,10H4.8c0,0,2.4,48.2,2.4,49.2c0,24.5,22,44.4,49.1,44.4
	s49-19.9,49-44.4S83.3,14.8,56.2,14.8z"/>
<g>
	<circle class="st3" cx="57.4" cy="58.8" r="38.2"/>
	<circle class="st4" cx="57.4" cy="58.2" r="32.2"/>
	<path class="st5" d="M71.9,29.8L39.7,85.5l3.6,2l32.1-55.6L71.9,29.8z"/>
	<path class="st5" d="M84.4,40.9L28.7,73l2,3.6l55.7-32.2L84.4,40.9z"/>
	<path class="st5" d="M89.7,56.7H25.4v4h64.3C89.7,60.7,89.7,56.7,89.7,56.7z"/>
	<path class="st5" d="M28.7,44.3l55.7,32.1l2.1-3.5l-55.8-32L28.7,44.3z"/>
	<path class="st5" d="M39.7,31.9l32.2,55.6l3.5-2L43.3,29.8L39.7,31.9z"/>
	<path class="st5" d="M55.5,26.5v64.2h4V26.5H55.5z"/>
	<circle class="st6" cx="57.4" cy="58.2" r="29.9"/>
	<circle class="st7" cx="57.4" cy="58.3" r="23.3"/>
	<path class="st8" d="M70.3,40.5l-3.5-2.1L44.7,76.9l3.5,2L70.3,40.5z"/>
	<path class="st8" d="M79.4,54.9l-1.1-3.8L35.6,62.4l1.1,3.9L79.4,54.9z"/>
	<path class="st8" d="M75.6,71.4l2.1-3.5l-38.3-22l-2.1,3.5L75.6,71.4z"/>
	<path class="st8" d="M53.7,36.9l-3.8,1l11.4,42.7l3.9-1.1L53.7,36.9z"/>
	<circle class="st9" cx="57.4" cy="58.2" r="10"/>
	<path class="st2" d="M66.3,53.7l-17.5,10"/>
	<path class="st2" d="M67.2,61.3l-19.4-5.2"/>
	<path class="st2" d="M62.6,67.3L52.5,50"/>
	<path class="st2" d="M60.1,49L55,68.4"/>
</g>
<path class="st10" d="M79.5,101H31.2v6.1h48.3V101z"/>
<linearGradient id="SVGID_3_" gradientUnits="userSpaceOnUse" x1="2.9" y1="102.14" x2="31" y2="102.14" gradientTransform="matrix(1 0 0 -1 0 110.16)">
	<stop  offset="0" style="stop-color:#007F00"/>
	<stop  offset="0.5" style="stop-color:#FFFFFF"/>
	<stop  offset="1" style="stop-color:#007F00"/>
</linearGradient>
<rect x="2.9" y="6" class="st11" width="28.1" height="4"/>
</svg>
