<?xml version="1.0" encoding="utf-8"?>
<!-- Generator: Adobe Illustrator 19.0.0, SVG Export Plug-In . SVG Version: 6.00 Build 0)  -->
<svg version="1.1" id="图层_1" xmlns="http://www.w3.org/2000/svg" xmlns:xlink="http://www.w3.org/1999/xlink" x="0px" y="0px"
	 viewBox="-9 1.2 88.1 106.5" style="enable-background:new -9 1.2 88.1 106.5;" xml:space="preserve">
<style type="text/css">
	.st0{fill:#98CB98;stroke:#000000;stroke-width:0.25;}
	.st1{fill:#007F00;stroke:#000000;stroke-width:0.25;}
	.st2{fill:#006600;stroke:#000000;stroke-width:0.25;}
	.st3{fill:#56AB56;stroke:#000000;stroke-width:0.25;}
	.st4{fill:#329932;stroke:#000000;stroke-width:0.25;}
	.st5{fill:#64B264;}
	.st6{fill:#98CB98;}
	.st7{fill:#329932;}
	.st8{fill:#64B264;stroke:#000000;stroke-width:0.25;}
	.st9{fill:#003300;stroke:#000000;stroke-width:0.25;}
	.st10{fill:#CAE4CA;stroke:#7F7F7F;stroke-width:0.25;}
</style>
<path class="st0" d="M65.2,13.2v90.7v0.9h0.3h1.6h0.3v-0.9V12.1l-1.5-2.8l-1.2-0.5l-0.6-0.1h-0.6h-9.3l-2.8,1.6l-0.5,1.2l-0.1,0.6
	v0.4v3.4H53l0.1-3.3l0.2-1l3-0.7h6.6l2.2,1.7L65.2,13.2L65.2,13.2z"/>
<path class="st1" d="M30.9,38.1h-6.1v2.2h6.1V38.1z"/>
<path class="st2" d="M9.6,25.4H7.4v79.3h2.2V25.4z"/>
<path class="st2" d="M69.7,25.4h-1.1v3.8h1.1V25.4z"/>
<path class="st2" d="M74.1,86.9h-80v17.8h80V86.9z"/>
<path class="st3" d="M65.2,24.7h-5.1v1.4h5.1V24.7z"/>
<path class="st3" d="M65.2,35.2h-5.1v1.4h5.1V35.2z"/>
<path class="st3" d="M65.2,26.1h-0.3l-2.2,3.7l-2-3.7h-0.4V27l2.1,3.6l-2.2,3.8v0.9h0.4l2.1-3.8l2.1,3.8h0.4v-0.9l-1.9-3.9l1.9-3.6
	C65.2,26.9,65.2,26.1,65.2,26.1z"/>
<path class="st3" d="M65.2,45.8h-5.1v1.3h5.1V45.8z"/>
<path class="st3" d="M65.2,36.6h-0.3l-2.2,3.7l-2-3.7h-0.4v0.7l2.1,3.7l-2.2,3.8v0.9h0.4l2.1-3.9l2.1,3.9h0.4v-0.9l-1.9-3.7l1.9-3.6
	C65.2,37.5,65.2,36.6,65.2,36.6z"/>
<path class="st3" d="M65.2,56.3h-5.1v1.3h5.1V56.3z"/>
<path class="st3" d="M65.2,47.1h-0.3l-2.2,3.7l-2-3.7h-0.4V48l2.1,3.6l-2.2,3.9v0.9h0.4l2.1-3.9l2.1,3.9h0.4v-0.9l-1.9-4l1.9-3.6
	C65.2,47.9,65.2,47.1,65.2,47.1z"/>
<path class="st3" d="M65.2,66.8h-5.1v1.4h5.1V66.8z"/>
<path class="st3" d="M65.2,57.6h-0.3l-2.2,3.7l-2-3.7h-0.4v0.9l2.1,3.6L60,66v0.7h0.4l2.1-3.8l2.1,3.8H65V66l-1.8-3.9l1.9-3.6
	L65.2,57.6L65.2,57.6z"/>
<path class="st3" d="M65.2,77.3h-5.1v1.3h5.1V77.3z"/>
<path class="st3" d="M65.2,68.2h-0.3l-2.2,3.6l-2-3.6h-0.4v0.7l2.1,3.6l-2.2,3.9v0.7h0.4l2.1-3.8l2.1,3.8h0.4v-0.7l-1.9-3.9l1.9-3.5
	C65.2,69,65.2,68.2,65.2,68.2z"/>
<path class="st3" d="M65.2,87.8h-5.1v1.4h5.1V87.8z"/>
<path class="st3" d="M65.2,78.6h-0.3l-2.2,3.7l-2-3.7h-0.4v0.9l2.1,3.6l-2.2,3.8v0.9h0.4l2.1-3.8l2.1,3.8h0.4v-0.9l-1.9-3.8l1.9-3.6
	C65.2,79.5,65.2,78.6,65.2,78.6z"/>
<path class="st3" d="M65.2,98.3h-5.1v1.4h5.1V98.3z"/>
<path class="st3" d="M65.2,89.2h-0.3l-2.2,3.7l-2-3.7h-0.4V90l2.1,3.6l-2.2,3.8v0.9h0.4l2.1-3.8l2.1,3.8h0.4v-0.7l-1.9-4l1.9-3.6
	C65.2,90,65.2,89.2,65.2,89.2z"/>
<path class="st4" d="M42.5,17.6v87.1h18.3V17.6l-2.1-2.5l-2.7-1l-3.4-0.4l-1-0.1L48,14l-3,0.9l-2.2,1.6L42.5,17.6z"/>
<path class="st4" d="M64,33.1v71.6h10V33.1l-0.1-1l-0.3-0.9l-0.4-0.8l-0.6-0.7L72,29.2l-0.9-0.4l-1-0.3l-1-0.1L68,28.5l-1,0.3
	l-0.9,0.4l-0.7,0.5l-0.5,0.7l-0.5,0.9l-0.2,0.9L64,33.1z"/>
<path class="st4" d="M-5.8,24.2v80.5H5.8V24.2l-0.7-2.7l-1.8-2l-2.7-1H0l-2.8,0.7l-2,1.9l-1,2.6L-5.8,24.2z"/>
<path class="st1" d="M17,42.6v62.2h18.3V42.6l-0.1-0.3l-2.7-1.4l-2.9-0.5l-2.7-0.1l-3.6,0.1l-3,0.4l-2.6,0.9L17,42.3
	C16.9,42.3,16.9,42.6,17,42.6z"/>
<path class="st5" d="M66.3,33.5v71.2h5.5V33.5l-0.1-1l-0.1-1l-0.3-0.7L71,30.1l-0.4-0.6L70.2,29l-0.5-0.2l-0.5-0.1l-0.6,0.1L68.1,29
	l-0.5,0.4L67.2,30l-0.3,0.7l-0.2,0.7l-0.2,1v1.1H66.3z"/>
<path class="st6" d="M45.2,18.2v86.6H58V18.2l-1.5-2.5L54,14.5l-2.5-0.3l-3.1,0.5l-2.6,1.5L45.2,18.2z"/>
<path class="st7" d="M20.3,42.7v62H32v-62l-2.1-1.8l-3.1-0.5l-2.9,0.1l-2.6,0.8L20.3,42.7z"/>
<path class="st4" d="M8.6,53.1v51.6h15.6V53.1L22.4,51l-3-1l-2.2-0.3L14,49.8l-3.2,0.9l-2.1,1.7L8.6,53.1z"/>
<path class="st5" d="M11.4,53.7v51.1h10V53.7V53l-0.3-0.6l-0.4-0.6l-0.6-0.4L19.4,51l-0.9-0.3l-1-0.2h-1h-1.1l-1,0.2L13.5,51
	l-0.7,0.4l-0.5,0.4l-0.5,0.6L11.6,53L11.4,53.7z"/>
<path class="st6" d="M-3.7,24.9v79.8h7.2V24.9v-1.2l-0.2-1l-0.4-1l-0.4-0.9L2,20.1l-0.6-0.5l-0.6-0.3l-0.7-0.1l-0.9,0.1l-0.6,0.3
	L-2,20.1l-0.5,0.7l-0.4,0.9l-0.3,1l-0.2,1L-3.7,24.9z"/>
<path class="st1" d="M76.3,104.7V98l-6.7-6.6h-9.4L53.5,98v6.7H76.3z"/>
<path class="st8" d="M30.9,38.1h-2.2v66.6h2.2V38.1z"/>
<path class="st9" d="M64,74.7H24.1v1.2H64C64.1,75.9,64.1,74.7,64,74.7z"/>
<path class="st8" d="M64,68.6H24.1v1.2H64C64.1,69.8,64.1,68.6,64,68.6z"/>
<path class="st2" d="M62.3,69.8h-1.1v4.9h1.1V69.8z"/>
<path class="st2" d="M58,69.8h-1.2v4.9H58V69.8z"/>
<path class="st2" d="M53.5,69.8h-1.1v4.9h1.1V69.8z"/>
<path class="st2" d="M49.2,69.8H48v4.9h1.2V69.8z"/>
<path class="st2" d="M44.7,69.8h-1.2v4.9h1.2V69.8z"/>
<path class="st2" d="M40.2,69.8h-1.1v4.9h1.1V69.8z"/>
<path class="st2" d="M35.8,69.8h-1.2v4.9h1.2V69.8z"/>
<path class="st2" d="M31.4,69.8h-1.2v4.9h1.2V69.8z"/>
<path class="st2" d="M26.9,69.8h-1.1v4.9h1.1V69.8z"/>
<path class="st0" d="M11.6,50.5v53.6v0.6h-0.3h-1.2H9.8v-0.6V49.6l1.6-2.5l0.4-0.1l0.5-0.1h1h0.4h-0.3l3.1,0.9l0.7,1.3l0.1,0.5v0.2
	v0.1v-0.2V50h-1.8l-0.1-0.7L15.3,49l-0.2-0.1l-2-0.1h1L11.6,50V50.5z"/>
<path class="st10" d="M28,36l-0.1-3l0.2-1.9l0.1-0.1v-0.2l-0.7-2.7l-2.3-2.4L25,25.3l-0.2-0.4l0.6-3.3l-1.5-2.2L22.6,16L21,14.7
	l-0.2-0.2v-0.2l0.6-3V10l-0.2-0.4L19,8l-2.1-0.1L14.4,6l-2.5-1.5l-1.1-0.3l-0.2-0.1h-0.3L7.8,4.8L5.1,5.5L3.7,5.2L3,4.8l0.1,0.3
	l1.1,1.8V7L3.7,7.1L3.5,7.5l1.9,2.6l2.7,1.6l2.7,1.1l2.1,0.6l-0.1,0.2l-0.6,0.5l-0.1,0.5l0.2,0.7l2.5,2.2l1.8,2.6l1.1,0.2l1.5,2.2
	l1.8,1.6l0.4,0.9v0.2l0.3,3.6l1.5,2.7l0.5,0.4l1.7,2.3l1.8,2l0.6,0.9l0.2,0.2l0.1-0.1L28,36z"/>
<path class="st7" d="M27.5,35.4l0.1-0.4v-0.3v-0.4l-0.7-2.9L26,28.7l-1.5-2.9l-1.2-1.3v-0.3l0.2-2.6l-0.3-0.5l-2-0.9l-1.1-2.6
	l-1.9-1v-0.3l0.5-3v-0.4l-0.2-0.4l-2.3-1.3l-2.7-1.3l-1.9-2.5l-0.3-0.1h-0.2h-3l-3-0.9L4.7,6.2L4.3,6l0.2,0.3l2.3,2.1l0.5,0.5
	l0.1,0.3L7.1,9.3L6.9,9.5L7,9.7l2.9,1l2.5,1.4l2.3,1.2l0.3,0.1l-1,0.4l-0.2,0.4l0.1,0.5l1.9,1.8l1.9,2.6l0.9,0.2l1.1,2.5l0.7,1.7
	l1.6,2.3l0.5,2.8l1.5,1.6l1.1,2.9l1.5,2.3l0.4,0.5l0.3,0.3l0.1-0.2L27.5,35.4L27.5,35.4z"/>
</svg>
