<?xml version="1.0" encoding="utf-8"?>
<!-- Generator: Adobe Illustrator 19.0.0, SVG Export Plug-In . SVG Version: 6.00 Build 0)  -->
<svg version="1.1" id="图层_1" xmlns="http://www.w3.org/2000/svg" xmlns:xlink="http://www.w3.org/1999/xlink" x="0px" y="0px"
	 viewBox="-17 1.2 72.9 106.5" style="enable-background:new -17 1.2 72.9 106.5;" xml:space="preserve">
<style type="text/css">
	.st0{fill:url(#SVGID_1_);stroke:#000000;stroke-width:0.5;}
	.st1{fill:url(#SVGID_2_);stroke:#000000;stroke-width:0.5;}
	.st2{fill:url(#SVGID_3_);stroke:#000000;stroke-width:0.5;}
	.st3{fill:#FFFFFF;stroke:#000000;stroke-width:0.5;}
	.st4{fill:#007F00;stroke:#000000;stroke-width:0.5;}
	.st5{stroke:#7F7F7F;stroke-width:0.5;}
	.st6{fill:#005500;stroke:#7F7F7F;stroke-width:0.5;}
	.st7{fill:none;stroke:#000000;stroke-width:0.5;}
	.st8{fill:url(#SVGID_4_);stroke:#000000;stroke-width:0.5;}
	.st9{fill:url(#SVGID_5_);stroke:#000000;stroke-width:0.5;}
	.st10{stroke:#000000;stroke-width:0.5;}
	.st11{fill:url(#SVGID_6_);stroke:#000000;stroke-width:0.5;}
	.st12{fill:#54AA54;stroke:#000000;stroke-width:0.5;}
</style>
<linearGradient id="SVGID_1_" gradientUnits="userSpaceOnUse" x1="9.25" y1="69.54" x2="29.85" y2="69.54" gradientTransform="matrix(1 0 0 -1 0 110.16)">
	<stop  offset="0" style="stop-color:#87817F"/>
	<stop  offset="0.5" style="stop-color:#FFFFFF"/>
	<stop  offset="1" style="stop-color:#000000"/>
</linearGradient>
<path class="st0" d="M29.9,36.3H9.3V45h20.5v-8.7H29.9z"/>
<linearGradient id="SVGID_2_" gradientUnits="userSpaceOnUse" x1="42.25" y1="88.47" x2="42.25" y2="94.37" gradientTransform="matrix(1 0 0 -1 0 110.16)">
	<stop  offset="0" style="stop-color:#87817F"/>
	<stop  offset="0.5" style="stop-color:#FFFFFF"/>
	<stop  offset="1" style="stop-color:#000000"/>
</linearGradient>
<path class="st1" d="M50.3,15.8H34.2v5.9h16.1C50.3,21.7,50.3,15.8,50.3,15.8z"/>
<linearGradient id="SVGID_3_" gradientUnits="userSpaceOnUse" x1="42.25" y1="78.17" x2="42.25" y2="84.07" gradientTransform="matrix(1 0 0 -1 0 110.16)">
	<stop  offset="0" style="stop-color:#87817F"/>
	<stop  offset="0.5" style="stop-color:#FFFFFF"/>
	<stop  offset="1" style="stop-color:#000000"/>
</linearGradient>
<path class="st2" d="M50.3,26.1H34.2V32h16.1C50.3,32,50.3,26.1,50.3,26.1z"/>
<circle class="st3" cx="19.6" cy="23.2" r="19"/>
<circle class="st4" cx="19.6" cy="23.2" r="17.5"/>
<circle class="st5" cx="19.6" cy="23.2" r="16"/>
<circle class="st5" cx="19.6" cy="23.2" r="10.2"/>
<path class="st6" d="M28.4,20.3H10.8v5.8h17.5v-5.8H28.4z"/>
<path class="st7" d="M12.3,24.5v-1.1"/>
<path class="st7" d="M12.3,23v-1.1"/>
<path class="st7" d="M12.4,21.8h1.2"/>
<path class="st7" d="M13.8,21.9V23"/>
<path class="st7" d="M13.8,23.3v1.2"/>
<path class="st7" d="M13.6,24.6h-1.2"/>
<linearGradient id="SVGID_4_" gradientUnits="userSpaceOnUse" x1="43.6" y1="76.77" x2="43.6" y2="85.47" gradientTransform="matrix(1 0 0 -1 0 110.16)">
	<stop  offset="0" style="stop-color:#87817F"/>
	<stop  offset="0.5" style="stop-color:#FFFFFF"/>
	<stop  offset="1" style="stop-color:#000000"/>
</linearGradient>
<path class="st8" d="M47.3,24.7h-7.4v8.7h7.4V24.7z"/>
<linearGradient id="SVGID_5_" gradientUnits="userSpaceOnUse" x1="43.6" y1="87.07" x2="43.6" y2="95.77" gradientTransform="matrix(1 0 0 -1 0 110.16)">
	<stop  offset="0" style="stop-color:#87817F"/>
	<stop  offset="0.5" style="stop-color:#FFFFFF"/>
	<stop  offset="1" style="stop-color:#000000"/>
</linearGradient>
<path class="st9" d="M47.3,14.4h-7.4v8.7h7.4V14.4z"/>
<path class="st10" d="M47.3,20.3h-7.4v2.9h7.4V20.3z"/>
<path class="st10" d="M47.3,30.4h-7.4v3h7.4V30.4z"/>
<path class="st4" d="M47.3,18.8h-7.4v2.9h7.4V18.8z"/>
<path class="st4" d="M47.3,28.9h-7.4v3h7.4V28.9z"/>
<linearGradient id="SVGID_6_" gradientUnits="userSpaceOnUse" x1="4.95" y1="57.19" x2="34.15" y2="57.19" gradientTransform="matrix(1 0 0 -1 0 110.16)">
	<stop  offset="0" style="stop-color:#87817F"/>
	<stop  offset="0.5" style="stop-color:#FFFFFF"/>
	<stop  offset="1" style="stop-color:#000000"/>
</linearGradient>
<path class="st11" d="M28.4,45l5.8,16H5l5.9-16H28.4z"/>
<path class="st12" d="M42.9,61H-3.8v1.5h46.7V61z"/>
<path class="st12" d="M45.8,62.5H-6.7v42.3h52.5V62.5z"/>
<path class="st12" d="M53,62.5h-5.8v42.3H53V62.5z"/>
<path class="st12" d="M-8.2,62.5h-5.9v42.3h5.9C-8.2,104.8-8.2,62.5-8.2,62.5z"/>
<path class="st10" d="M47.3,62.5h-1.5v42.3h1.5V62.5z"/>
<path class="st10" d="M-6.7,62.5h-1.5v42.3h1.5V62.5z"/>
<path class="st4" d="M50.3,83l-0.9,0.2l-0.5,1l-0.1,0.2l0.5,1.1l1,0.4l0.6-0.1l0.7-0.7l0.1-0.6L51.5,84l-0.7-0.9L50.3,83z"/>
<path class="st4" d="M-11,83l-0.9,0.2l-0.6,1v0.2l0.4,1.1l1.1,0.4l0.5-0.1l0.9-0.7l0.1-0.6L-9.6,84l-0.9-0.7L-11,83z"/>
<path class="st7" d="M50.3,85.9v-3"/>
<path class="st7" d="M-9.5,84.4h-3"/>
<path class="st10" d="M29.9,89.8H15.8l5.1,5.1h-5.1l-6.4-6.4v-2.4l6.4-6.5h5.1l-5.1,5.1h14.1V89.8z"/>
</svg>
