<?xml version="1.0" encoding="utf-8"?>
<!-- Generator: Adobe Illustrator 19.0.0, SVG Export Plug-In . SVG Version: 6.00 Build 0)  -->
<svg version="1.1" id="图层_1" xmlns="http://www.w3.org/2000/svg" xmlns:xlink="http://www.w3.org/1999/xlink" x="0px" y="0px"
	 viewBox="18 4.5 144.7 98.2" style="enable-background:new 18 4.5 144.7 98.2;" xml:space="preserve">
<style type="text/css">
	.st0{fill:#CAE4CA;stroke:#4C4C4C;stroke-width:0.25;}
	.st1{fill:#B2D8B2;stroke:#4C4C4C;stroke-width:0.25;}
	.st2{fill:#E4F1E4;stroke:#7F7F7F;stroke-width:0.25;}
</style>
<path class="st0" d="M161.6,19.8H25.2v2.9h136.5v-2.9H161.6z"/>
<path class="st0" d="M161.6,87.5H25.2v2.8h136.5v-2.8H161.6z"/>
<path class="st1" d="M156.1,8.6h-5.7v90.1h5.7V8.6z"/>
<path class="st1" d="M36.3,8.6h-5.7v90.1h5.7V8.6z"/>
<path class="st2" d="M147.6,14.1h-1.5v81.7h1.4V14.1H147.6z"/>
<path class="st2" d="M141.9,14.1h-1.3v81.7h1.3V14.1z"/>
<path class="st2" d="M136.3,14.1H135v81.7h1.3V14.1z"/>
<path class="st2" d="M130.6,14.1h-1.3v81.7h1.3V14.1z"/>
<path class="st2" d="M125.1,14.1h-1.4v81.7h1.4V14.1z"/>
<path class="st2" d="M119.5,14.1h-1.4v81.7h1.4V14.1z"/>
<path class="st2" d="M113.8,14.1h-1.4v81.7h1.4V14.1z"/>
<path class="st2" d="M108.2,14.1h-1.4v81.7h1.4V14.1z"/>
<path class="st2" d="M102.5,14.1h-1.4v81.7h1.4V14.1z"/>
<path class="st2" d="M96.9,14.1h-1.4v81.7h1.4V14.1z"/>
<path class="st2" d="M91.2,14.1h-1.3v81.7h1.3V14.1z"/>
<path class="st2" d="M85.6,14.1h-1.3v81.7h1.3V14.1z"/>
<path class="st2" d="M79.9,14.1h-1.3v81.7h1.3V14.1z"/>
<path class="st2" d="M74.4,14.1H73v81.7h1.4V14.1z"/>
<path class="st2" d="M68.8,14.1h-1.4v81.7h1.4V14.1z"/>
<path class="st2" d="M63.1,14.1h-1.4v81.7h1.4V14.1z"/>
<path class="st2" d="M57.5,14.1h-1.4v81.7h1.4V14.1z"/>
<path class="st2" d="M51.8,14.1h-1.4v81.7h1.4V14.1z"/>
<path class="st2" d="M46.2,14.1h-1.4v81.7h1.4V14.1z"/>
<path class="st2" d="M40.5,14.1h-1.3v81.7h1.3V14.1z"/>
</svg>
