<?xml version="1.0" encoding="utf-8"?>
<!-- Generator: Adobe Illustrator 21.0.0, SVG Export Plug-In . SVG Version: 6.00 Build 0)  -->
<svg version="1.1" id="_x30_" xmlns:agg="http://www.example.com"
	 xmlns="http://www.w3.org/2000/svg" xmlns:xlink="http://www.w3.org/1999/xlink" x="0px" y="0px" viewBox="0 0 75 282"
	 style="enable-background:new 0 0 75 282;" xml:space="preserve">
<style type="text/css">
	.st0{fill:url(#SVGID_1_);}
	.st1{fill:url(#con_3_);}
	.st2{fill:url(#SVGID_2_);}
	.st3{fill:url(#con_4_);}
	.st4{fill:url(#SVGID_3_);}
	.st5{fill:url(#con_5_);}
	.st6{fill:url(#SVGID_4_);}
	.st7{fill:url(#SVGID_5_);}
	.st8{fill:url(#SVGID_6_);}
	.st9{fill:url(#SVGID_7_);}
	.st10{fill:url(#SVGID_8_);}
	.st11{fill:url(#boss_1_);}
	.st12{fill:url(#SVGID_9_);}
	.st13{fill:url(#SVGID_10_);}
	.st14{fill:url(#window_1_);}
	.st15{opacity:0.2;fill:#3664BF;enable-background:new    ;}
	.st16{fill:#606060;}
	.st17{opacity:0.5;}
	.st18{fill:none;stroke:#000000;stroke-width:0.5;stroke-linejoin:round;}
	.st19{fill:none;stroke:#000000;stroke-linejoin:round;}
</style>
<agg:params>
	<agg:param  classes="color" cssAttributes="fill" description="Color" name="color" type="C"></agg:param>
	<agg:param  classes="color" cssAttributes="opacity" description="Saturation" max="1" min="0" name="saturation" type="F">
		</agg:param>
</agg:params>
<g id="sect">
	
		<linearGradient id="SVGID_1_" gradientUnits="userSpaceOnUse" x1="237.6901" y1="1040.1707" x2="284.9161" y2="1040.1707" gradientTransform="matrix(1 0 0 1 -229.6201 -845.9647)">
		<stop  offset="5.100000e-03" style="stop-color:#4C5B75"/>
		<stop  offset="3.230000e-02" style="stop-color:#616F86"/>
		<stop  offset="9.800000e-02" style="stop-color:#8E99AA"/>
		<stop  offset="0.1641" style="stop-color:#B4BCC7"/>
		<stop  offset="0.2298" style="stop-color:#D1D7DE"/>
		<stop  offset="0.2946" style="stop-color:#E5EAEF"/>
		<stop  offset="0.3584" style="stop-color:#F2F6F9"/>
		<stop  offset="0.42" style="stop-color:#F6FAFC"/>
		<stop  offset="0.4709" style="stop-color:#F2F6F8"/>
		<stop  offset="0.5236" style="stop-color:#E6E9EC"/>
		<stop  offset="0.5772" style="stop-color:#D3D5D7"/>
		<stop  offset="0.6314" style="stop-color:#B7B8BB"/>
		<stop  offset="0.6856" style="stop-color:#949396"/>
		<stop  offset="0.7005" style="stop-color:#89878B"/>
		<stop  offset="1" style="stop-color:#F6FAFC"/>
	</linearGradient>
	<polygon class="st0" points="55.3,185.6 55.3,202.9 47.8,202.9 15.5,202.9 8.1,202.9 8.1,185.6 	"/>
	
		<linearGradient id="con_3_" gradientUnits="userSpaceOnUse" x1="235.578" y1="1038.7463" x2="284.2083" y2="1020.6653" gradientTransform="matrix(1 0 0 1 -229.6201 -845.9647)">
		<stop  offset="5.100000e-03" style="stop-color:#4C5B75"/>
		<stop  offset="3.230000e-02" style="stop-color:#616F86"/>
		<stop  offset="9.800000e-02" style="stop-color:#8E99AA"/>
		<stop  offset="0.1641" style="stop-color:#B4BCC7"/>
		<stop  offset="0.2298" style="stop-color:#D1D7DE"/>
		<stop  offset="0.2946" style="stop-color:#E5EAEF"/>
		<stop  offset="0.3584" style="stop-color:#F2F6F9"/>
		<stop  offset="0.42" style="stop-color:#F6FAFC"/>
		<stop  offset="0.4709" style="stop-color:#F2F6F8"/>
		<stop  offset="0.5236" style="stop-color:#E6E9EC"/>
		<stop  offset="0.5772" style="stop-color:#D3D5D7"/>
		<stop  offset="0.6314" style="stop-color:#B7B8BB"/>
		<stop  offset="0.6856" style="stop-color:#949396"/>
		<stop  offset="0.7005" style="stop-color:#89878B"/>
		<stop  offset="1" style="stop-color:#F6FAFC"/>
	</linearGradient>
	<polygon id="con" class="st1" points="55.3,185.6 8.1,185.6 15.5,178.1 47.8,178.1 	"/>
</g>
<g transform="translate(0 24.746)">
	<g id="sect_1_">
		
			<linearGradient id="SVGID_2_" gradientUnits="userSpaceOnUse" x1="237.6901" y1="1040.1707" x2="284.9161" y2="1040.1707" gradientTransform="matrix(1 0 0 1 -229.6201 -821.2187)">
			<stop  offset="5.100000e-03" style="stop-color:#4C5B75"/>
			<stop  offset="3.230000e-02" style="stop-color:#616F86"/>
			<stop  offset="9.800000e-02" style="stop-color:#8E99AA"/>
			<stop  offset="0.1641" style="stop-color:#B4BCC7"/>
			<stop  offset="0.2298" style="stop-color:#D1D7DE"/>
			<stop  offset="0.2946" style="stop-color:#E5EAEF"/>
			<stop  offset="0.3584" style="stop-color:#F2F6F9"/>
			<stop  offset="0.42" style="stop-color:#F6FAFC"/>
			<stop  offset="0.4709" style="stop-color:#F2F6F8"/>
			<stop  offset="0.5236" style="stop-color:#E6E9EC"/>
			<stop  offset="0.5772" style="stop-color:#D3D5D7"/>
			<stop  offset="0.6314" style="stop-color:#B7B8BB"/>
			<stop  offset="0.6856" style="stop-color:#949396"/>
			<stop  offset="0.7005" style="stop-color:#89878B"/>
			<stop  offset="1" style="stop-color:#F6FAFC"/>
		</linearGradient>
		<polygon class="st2" points="55.3,210.3 55.3,227.6 47.8,227.6 15.5,227.6 8.1,227.6 8.1,210.3 		"/>
		
			<linearGradient id="con_4_" gradientUnits="userSpaceOnUse" x1="235.578" y1="1038.7463" x2="284.2083" y2="1020.6653" gradientTransform="matrix(1 0 0 1 -229.6201 -821.2187)">
			<stop  offset="5.100000e-03" style="stop-color:#4C5B75"/>
			<stop  offset="3.230000e-02" style="stop-color:#616F86"/>
			<stop  offset="9.800000e-02" style="stop-color:#8E99AA"/>
			<stop  offset="0.1641" style="stop-color:#B4BCC7"/>
			<stop  offset="0.2298" style="stop-color:#D1D7DE"/>
			<stop  offset="0.2946" style="stop-color:#E5EAEF"/>
			<stop  offset="0.3584" style="stop-color:#F2F6F9"/>
			<stop  offset="0.42" style="stop-color:#F6FAFC"/>
			<stop  offset="0.4709" style="stop-color:#F2F6F8"/>
			<stop  offset="0.5236" style="stop-color:#E6E9EC"/>
			<stop  offset="0.5772" style="stop-color:#D3D5D7"/>
			<stop  offset="0.6314" style="stop-color:#B7B8BB"/>
			<stop  offset="0.6856" style="stop-color:#949396"/>
			<stop  offset="0.7005" style="stop-color:#89878B"/>
			<stop  offset="1" style="stop-color:#F6FAFC"/>
		</linearGradient>
		<polygon id="con_1_" class="st3" points="55.3,210.3 8.1,210.3 15.5,202.9 47.8,202.9 		"/>
	</g>
</g>
<g transform="translate(0 49.49)">
	<g id="sect_2_">
		
			<linearGradient id="SVGID_3_" gradientUnits="userSpaceOnUse" x1="237.6901" y1="1040.1707" x2="284.9161" y2="1040.1707" gradientTransform="matrix(1 0 0 1 -229.6201 -796.4747)">
			<stop  offset="5.100000e-03" style="stop-color:#4C5B75"/>
			<stop  offset="3.230000e-02" style="stop-color:#616F86"/>
			<stop  offset="9.800000e-02" style="stop-color:#8E99AA"/>
			<stop  offset="0.1641" style="stop-color:#B4BCC7"/>
			<stop  offset="0.2298" style="stop-color:#D1D7DE"/>
			<stop  offset="0.2946" style="stop-color:#E5EAEF"/>
			<stop  offset="0.3584" style="stop-color:#F2F6F9"/>
			<stop  offset="0.42" style="stop-color:#F6FAFC"/>
			<stop  offset="0.4709" style="stop-color:#F2F6F8"/>
			<stop  offset="0.5236" style="stop-color:#E6E9EC"/>
			<stop  offset="0.5772" style="stop-color:#D3D5D7"/>
			<stop  offset="0.6314" style="stop-color:#B7B8BB"/>
			<stop  offset="0.6856" style="stop-color:#949396"/>
			<stop  offset="0.7005" style="stop-color:#89878B"/>
			<stop  offset="1" style="stop-color:#F6FAFC"/>
		</linearGradient>
		<polygon class="st4" points="55.3,235 55.3,252.3 47.8,252.3 15.5,252.3 8.1,252.3 8.1,235 		"/>
		
			<linearGradient id="con_5_" gradientUnits="userSpaceOnUse" x1="235.578" y1="1038.7463" x2="284.2083" y2="1020.6653" gradientTransform="matrix(1 0 0 1 -229.6201 -796.4747)">
			<stop  offset="5.100000e-03" style="stop-color:#4C5B75"/>
			<stop  offset="3.230000e-02" style="stop-color:#616F86"/>
			<stop  offset="9.800000e-02" style="stop-color:#8E99AA"/>
			<stop  offset="0.1641" style="stop-color:#B4BCC7"/>
			<stop  offset="0.2298" style="stop-color:#D1D7DE"/>
			<stop  offset="0.2946" style="stop-color:#E5EAEF"/>
			<stop  offset="0.3584" style="stop-color:#F2F6F9"/>
			<stop  offset="0.42" style="stop-color:#F6FAFC"/>
			<stop  offset="0.4709" style="stop-color:#F2F6F8"/>
			<stop  offset="0.5236" style="stop-color:#E6E9EC"/>
			<stop  offset="0.5772" style="stop-color:#D3D5D7"/>
			<stop  offset="0.6314" style="stop-color:#B7B8BB"/>
			<stop  offset="0.6856" style="stop-color:#949396"/>
			<stop  offset="0.7005" style="stop-color:#89878B"/>
			<stop  offset="1" style="stop-color:#F6FAFC"/>
		</linearGradient>
		<polygon id="con_2_" class="st5" points="55.3,235 8.1,235 15.5,227.6 47.8,227.6 		"/>
	</g>
</g>
<g id="cyl">
	
		<linearGradient id="SVGID_4_" gradientUnits="userSpaceOnUse" x1="249.4921" y1="908.4397" x2="249.4921" y2="908.4397" gradientTransform="matrix(1 0 0 1 -229.6201 -845.9647)">
		<stop  offset="5.100000e-03" style="stop-color:#4C5B75"/>
		<stop  offset="3.230000e-02" style="stop-color:#616F86"/>
		<stop  offset="9.800000e-02" style="stop-color:#8E99AA"/>
		<stop  offset="0.1641" style="stop-color:#B4BCC7"/>
		<stop  offset="0.2298" style="stop-color:#D1D7DE"/>
		<stop  offset="0.2946" style="stop-color:#E5EAEF"/>
		<stop  offset="0.3584" style="stop-color:#F2F6F9"/>
		<stop  offset="0.42" style="stop-color:#F6FAFC"/>
		<stop  offset="0.4709" style="stop-color:#F2F6F8"/>
		<stop  offset="0.5236" style="stop-color:#E6E9EC"/>
		<stop  offset="0.5772" style="stop-color:#D3D5D7"/>
		<stop  offset="0.6314" style="stop-color:#B7B8BB"/>
		<stop  offset="0.6856" style="stop-color:#949396"/>
		<stop  offset="0.7005" style="stop-color:#89878B"/>
		<stop  offset="1" style="stop-color:#F6FAFC"/>
	</linearGradient>
	<polygon class="st6" points="19.9,62.5 19.9,62.5 19.9,62.5 	"/>
	
		<linearGradient id="SVGID_5_" gradientUnits="userSpaceOnUse" x1="230.6201" y1="906.6042" x2="291.9851" y2="906.6042" gradientTransform="matrix(1 0 0 1 -229.6201 -845.9647)">
		<stop  offset="5.100000e-03" style="stop-color:#4C5B75"/>
		<stop  offset="3.230000e-02" style="stop-color:#616F86"/>
		<stop  offset="9.800000e-02" style="stop-color:#8E99AA"/>
		<stop  offset="0.1641" style="stop-color:#B4BCC7"/>
		<stop  offset="0.2298" style="stop-color:#D1D7DE"/>
		<stop  offset="0.2946" style="stop-color:#E5EAEF"/>
		<stop  offset="0.3584" style="stop-color:#F2F6F9"/>
		<stop  offset="0.42" style="stop-color:#F6FAFC"/>
		<stop  offset="0.4709" style="stop-color:#F2F6F8"/>
		<stop  offset="0.5236" style="stop-color:#E6E9EC"/>
		<stop  offset="0.5772" style="stop-color:#D3D5D7"/>
		<stop  offset="0.6314" style="stop-color:#B7B8BB"/>
		<stop  offset="0.6856" style="stop-color:#949396"/>
		<stop  offset="0.7005" style="stop-color:#89878B"/>
		<stop  offset="1" style="stop-color:#F6FAFC"/>
	</linearGradient>
	<polygon class="st7" points="62.4,58.8 62.4,62.5 43.5,62.5 19.9,62.5 1,62.5 1,58.8 9.4,58.8 54.3,58.8 	"/>
	
		<linearGradient id="SVGID_6_" gradientUnits="userSpaceOnUse" x1="302.6191" y1="905.8683" x2="302.6191" y2="878.5063" gradientTransform="matrix(1 0 0 1 -229.6201 -845.9647)">
		<stop  offset="5.100000e-03" style="stop-color:#4C5B75"/>
		<stop  offset="3.230000e-02" style="stop-color:#616F86"/>
		<stop  offset="9.800000e-02" style="stop-color:#8E99AA"/>
		<stop  offset="0.1641" style="stop-color:#B4BCC7"/>
		<stop  offset="0.2298" style="stop-color:#D1D7DE"/>
		<stop  offset="0.2946" style="stop-color:#E5EAEF"/>
		<stop  offset="0.3584" style="stop-color:#F2F6F9"/>
		<stop  offset="0.42" style="stop-color:#F6FAFC"/>
		<stop  offset="0.4709" style="stop-color:#F2F6F8"/>
		<stop  offset="0.5236" style="stop-color:#E6E9EC"/>
		<stop  offset="0.5772" style="stop-color:#D3D5D7"/>
		<stop  offset="0.6314" style="stop-color:#B7B8BB"/>
		<stop  offset="0.6856" style="stop-color:#949396"/>
		<stop  offset="0.7005" style="stop-color:#89878B"/>
		<stop  offset="1" style="stop-color:#F6FAFC"/>
	</linearGradient>
	<polygon class="st8" points="74,32.5 74,60 72,60 72,53.6 72,39 72,32.5 	"/>
	
		<linearGradient id="SVGID_7_" gradientUnits="userSpaceOnUse" x1="291.1561" y1="884.7955" x2="291.1561" y2="899.157" gradientTransform="matrix(1 0 0 1 -229.6201 -845.9647)">
		<stop  offset="5.100000e-03" style="stop-color:#4C5B75"/>
		<stop  offset="3.230000e-02" style="stop-color:#616F86"/>
		<stop  offset="9.800000e-02" style="stop-color:#8E99AA"/>
		<stop  offset="0.1641" style="stop-color:#B4BCC7"/>
		<stop  offset="0.2298" style="stop-color:#D1D7DE"/>
		<stop  offset="0.2946" style="stop-color:#E5EAEF"/>
		<stop  offset="0.3584" style="stop-color:#F2F6F9"/>
		<stop  offset="0.42" style="stop-color:#F6FAFC"/>
		<stop  offset="0.4709" style="stop-color:#F2F6F8"/>
		<stop  offset="0.5236" style="stop-color:#E6E9EC"/>
		<stop  offset="0.5772" style="stop-color:#D3D5D7"/>
		<stop  offset="0.6314" style="stop-color:#B7B8BB"/>
		<stop  offset="0.6856" style="stop-color:#949396"/>
		<stop  offset="0.7005" style="stop-color:#89878B"/>
		<stop  offset="1" style="stop-color:#F6FAFC"/>
	</linearGradient>
	<path class="st9" d="M72,39v14.5c-5.9,0-11.8,0-17.7,0c-0.1,0-0.3,0-0.4,0c-3.8-4.1-3.8-10.4,0-14.5c0.1,0,0.3,0,0.4,0
		C60.2,39,66.1,39,72,39z"/>
	
		<linearGradient id="SVGID_8_" gradientUnits="userSpaceOnUse" x1="230.6201" y1="848.7902" x2="291.9851" y2="848.7902" gradientTransform="matrix(1 0 0 1 -229.6201 -845.9647)">
		<stop  offset="5.100000e-03" style="stop-color:#4C5B75"/>
		<stop  offset="3.230000e-02" style="stop-color:#616F86"/>
		<stop  offset="9.800000e-02" style="stop-color:#8E99AA"/>
		<stop  offset="0.1641" style="stop-color:#B4BCC7"/>
		<stop  offset="0.2298" style="stop-color:#D1D7DE"/>
		<stop  offset="0.2946" style="stop-color:#E5EAEF"/>
		<stop  offset="0.3584" style="stop-color:#F2F6F9"/>
		<stop  offset="0.42" style="stop-color:#F6FAFC"/>
		<stop  offset="0.4709" style="stop-color:#F2F6F8"/>
		<stop  offset="0.5236" style="stop-color:#E6E9EC"/>
		<stop  offset="0.5772" style="stop-color:#D3D5D7"/>
		<stop  offset="0.6314" style="stop-color:#B7B8BB"/>
		<stop  offset="0.6856" style="stop-color:#949396"/>
		<stop  offset="0.7005" style="stop-color:#89878B"/>
		<stop  offset="1" style="stop-color:#F6FAFC"/>
	</linearGradient>
	<polygon class="st10" points="62.4,1 62.4,4.7 54.3,4.7 9.4,4.7 1,4.7 1,1 	"/>
	
		<linearGradient id="boss_1_" gradientUnits="userSpaceOnUse" x1="239.0171" y1="877.6927" x2="283.9631" y2="877.6927" gradientTransform="matrix(1 0 0 1 -229.6201 -845.9647)">
		<stop  offset="5.100000e-03" style="stop-color:#4C5B75"/>
		<stop  offset="3.230000e-02" style="stop-color:#616F86"/>
		<stop  offset="9.800000e-02" style="stop-color:#8E99AA"/>
		<stop  offset="0.1641" style="stop-color:#B4BCC7"/>
		<stop  offset="0.2298" style="stop-color:#D1D7DE"/>
		<stop  offset="0.2946" style="stop-color:#E5EAEF"/>
		<stop  offset="0.3584" style="stop-color:#F2F6F9"/>
		<stop  offset="0.42" style="stop-color:#F6FAFC"/>
		<stop  offset="0.4709" style="stop-color:#F2F6F8"/>
		<stop  offset="0.5236" style="stop-color:#E6E9EC"/>
		<stop  offset="0.5772" style="stop-color:#D3D5D7"/>
		<stop  offset="0.6314" style="stop-color:#B7B8BB"/>
		<stop  offset="0.6856" style="stop-color:#949396"/>
		<stop  offset="0.7005" style="stop-color:#89878B"/>
		<stop  offset="1" style="stop-color:#F6FAFC"/>
	</linearGradient>
	<path id="boss" class="st11" d="M53.9,53.6c0.1,0,0.3,0,0.4,0v5.2H9.4V4.7h44.9V39c-0.1,0-0.3,0-0.4,0
		C50.1,43.1,50.1,49.5,53.9,53.6z M40.1,43.1c0-7.5,0-15.1,0-22.6c0-2.4-1-3.4-3.4-3.4c-3.3,0-6.7,0-10,0c-2.4,0-3.4,1-3.4,3.4
		c0,7.5,0,15.1,0,22.6c0,2.4,1,3.4,3.4,3.4c3.3,0,6.7,0,10,0C39.1,46.5,40.1,45.5,40.1,43.1z"/>
	
		<linearGradient id="SVGID_9_" gradientUnits="userSpaceOnUse" x1="237.6901" y1="1020.5402" x2="284.9161" y2="1020.5402" gradientTransform="matrix(1 0 0 1 -229.6201 -845.9647)">
		<stop  offset="5.100000e-03" style="stop-color:#4C5B75"/>
		<stop  offset="3.230000e-02" style="stop-color:#616F86"/>
		<stop  offset="9.800000e-02" style="stop-color:#8E99AA"/>
		<stop  offset="0.1641" style="stop-color:#B4BCC7"/>
		<stop  offset="0.2298" style="stop-color:#D1D7DE"/>
		<stop  offset="0.2946" style="stop-color:#E5EAEF"/>
		<stop  offset="0.3584" style="stop-color:#F2F6F9"/>
		<stop  offset="0.42" style="stop-color:#F6FAFC"/>
		<stop  offset="0.4709" style="stop-color:#F2F6F8"/>
		<stop  offset="0.5236" style="stop-color:#E6E9EC"/>
		<stop  offset="0.5772" style="stop-color:#D3D5D7"/>
		<stop  offset="0.6314" style="stop-color:#B7B8BB"/>
		<stop  offset="0.6856" style="stop-color:#949396"/>
		<stop  offset="0.7005" style="stop-color:#89878B"/>
		<stop  offset="1" style="stop-color:#F6FAFC"/>
	</linearGradient>
	<polygon class="st12" points="55.3,171.3 55.3,177.9 8.1,177.9 8.1,171.3 	"/>
	
		<linearGradient id="SVGID_10_" gradientUnits="userSpaceOnUse" x1="248.2191" y1="1098.3217" x2="248.2191" y2="1098.3217" gradientTransform="matrix(1 0 0 1 -229.6201 -845.9647)">
		<stop  offset="5.100000e-03" style="stop-color:#4C5B75"/>
		<stop  offset="3.230000e-02" style="stop-color:#616F86"/>
		<stop  offset="9.800000e-02" style="stop-color:#8E99AA"/>
		<stop  offset="0.1641" style="stop-color:#B4BCC7"/>
		<stop  offset="0.2298" style="stop-color:#D1D7DE"/>
		<stop  offset="0.2946" style="stop-color:#E5EAEF"/>
		<stop  offset="0.3584" style="stop-color:#F2F6F9"/>
		<stop  offset="0.42" style="stop-color:#F6FAFC"/>
		<stop  offset="0.4709" style="stop-color:#F2F6F8"/>
		<stop  offset="0.5236" style="stop-color:#E6E9EC"/>
		<stop  offset="0.5772" style="stop-color:#D3D5D7"/>
		<stop  offset="0.6314" style="stop-color:#B7B8BB"/>
		<stop  offset="0.6856" style="stop-color:#949396"/>
		<stop  offset="0.7005" style="stop-color:#89878B"/>
		<stop  offset="1" style="stop-color:#F6FAFC"/>
	</linearGradient>
	<polygon class="st13" points="18.6,252.4 18.6,252.4 18.6,252.4 	"/>
</g>
<linearGradient id="window_1_" gradientUnits="userSpaceOnUse" x1="252.6523" y1="877.7047" x2="298.1667" y2="877.7047" gradientTransform="matrix(1 0 0 1 -229.6201 -845.9647)">
	<stop  offset="5.100000e-03" style="stop-color:#4C5B75"/>
	<stop  offset="3.230000e-02" style="stop-color:#616F86"/>
	<stop  offset="9.800000e-02" style="stop-color:#8E99AA"/>
	<stop  offset="0.1641" style="stop-color:#B4BCC7"/>
	<stop  offset="0.2298" style="stop-color:#D1D7DE"/>
	<stop  offset="0.2946" style="stop-color:#E5EAEF"/>
	<stop  offset="0.3584" style="stop-color:#F2F6F9"/>
	<stop  offset="0.42" style="stop-color:#F6FAFC"/>
	<stop  offset="0.4709" style="stop-color:#F2F6F8"/>
	<stop  offset="0.5236" style="stop-color:#E6E9EC"/>
	<stop  offset="0.5772" style="stop-color:#D3D5D7"/>
	<stop  offset="0.6314" style="stop-color:#B7B8BB"/>
	<stop  offset="0.6856" style="stop-color:#949396"/>
	<stop  offset="0.7005" style="stop-color:#89878B"/>
	<stop  offset="1" style="stop-color:#F6FAFC"/>
</linearGradient>
<path id="window" class="st14" d="M40.1,20.4c0,7.5,0,15.1,0,22.6c0,2.4-1,3.4-3.4,3.4c-3.3,0-6.7,0-10,0c-2.4,0-3.4-1-3.4-3.4
	c0-7.5,0-15.1,0-22.6c0-2.4,1-3.4,3.4-3.4c3.3,0,6.7,0,10,0C39.1,17,40.1,18,40.1,20.4z"/>
<g id="图层_2">
	<path id="boundary" class="st15" d="M16.2,202.9l-7.4,7.5v17.3h7.4h32.3H56v-17.3l-7.5-7.5H16.2z M16.2,227.6l-7.4,7.5v17.3h10.5
		V281h26.1v-28.6H56v-17.3l-7.5-7.5L16.2,227.6L16.2,227.6z M72.7,32.5V39c-5.9,0-11.8,0-17.7,0V4.7h8V1H1.7v3.7h8.4v54.2H1.7v3.7
		h18.9v108.8H8.8v3.4v3.4h7.4l-7.4,7.5v17.3h7.4h32.3H56v-17.3l-7.5-7.5H56v-3.4v-3.4H44.2V62.5h18.9v-3.7h-8v-5.2
		c5.9,0,11.8,0,17.7,0V60h2V32.5L72.7,32.5L72.7,32.5z"/>
</g>
<g id="nuts">
	<polygon class="st16" points="2.1,62.5 2.1,62.5 2.1,62.5 	"/>
	<polygon class="st16" points="57.2,62.5 57.2,62.5 57.2,62.5 	"/>
	<polygon class="st16" points="49.3,62.5 49.3,62.5 49.3,62.5 	"/>
	<polygon class="st16" points="33.5,62.5 33.5,62.5 33.5,62.5 	"/>
	<polygon class="st16" points="9.9,62.5 9.9,62.5 9.9,62.5 	"/>
	<polygon class="st16" points="25.7,62.5 25.7,62.5 25.7,62.5 	"/>
	<polygon class="st16" points="17.8,62.5 17.8,62.5 17.8,62.5 	"/>
	<polygon class="st16" points="41.4,62.5 41.4,62.5 41.4,62.5 	"/>
</g>
<g id="nuts_2">
	<polygon class="st16" points="49.3,169.5 49.3,169.5 49.3,169.5 	"/>
	<polygon class="st16" points="33.5,169.5 33.5,169.5 33.5,169.5 	"/>
	<polygon class="st16" points="9.9,169.5 9.9,169.5 9.9,169.5 	"/>
	<polygon class="st16" points="25.7,169.5 25.7,169.5 25.7,169.5 	"/>
	<polygon class="st16" points="17.8,169.5 17.8,169.5 17.8,169.5 	"/>
	<polygon class="st16" points="41.4,169.5 41.4,169.5 41.4,169.5 	"/>
</g>
<g transform="translate(0 8.61)">
	<g id="nuts_2_1_">
		<polygon class="st16" points="49.3,178.1 49.3,178.1 49.3,178.1 		"/>
		<polygon class="st16" points="33.5,178.1 33.5,178.1 33.5,178.1 		"/>
		<polygon class="st16" points="9.9,178.1 9.9,178.1 9.9,178.1 		"/>
		<polygon class="st16" points="25.7,178.1 25.7,178.1 25.7,178.1 		"/>
		<polygon class="st16" points="17.8,178.1 17.8,178.1 17.8,178.1 		"/>
		<polygon class="st16" points="41.4,178.1 41.4,178.1 41.4,178.1 		"/>
	</g>
</g>
<g transform="translate(0 33.356)">
	<g id="nuts_2_2_">
		<polygon class="st16" points="49.3,202.9 49.3,202.9 49.3,202.9 		"/>
		<polygon class="st16" points="33.5,202.9 33.5,202.9 33.5,202.9 		"/>
		<polygon class="st16" points="9.9,202.9 9.9,202.9 9.9,202.9 		"/>
		<polygon class="st16" points="25.7,202.9 25.7,202.9 25.7,202.9 		"/>
		<polygon class="st16" points="17.8,202.9 17.8,202.9 17.8,202.9 		"/>
		<polygon class="st16" points="41.4,202.9 41.4,202.9 41.4,202.9 		"/>
	</g>
</g>
<g transform="translate(0 58.101)">
	<g id="nuts_2_3_">
		<polygon class="st16" points="49.3,227.6 49.3,227.6 49.3,227.6 		"/>
		<polygon class="st16" points="33.5,227.6 33.5,227.6 33.5,227.6 		"/>
		<polygon class="st16" points="9.9,227.6 9.9,227.6 9.9,227.6 		"/>
		<polygon class="st16" points="25.7,227.6 25.7,227.6 25.7,227.6 		"/>
		<polygon class="st16" points="17.8,227.6 17.8,227.6 17.8,227.6 		"/>
		<polygon class="st16" points="41.4,227.6 41.4,227.6 41.4,227.6 		"/>
	</g>
</g>
<g transform="translate(0 82.861)">
	<g id="nuts_2_4_">
		<polygon class="st16" points="49.3,252.4 49.3,252.4 49.3,252.4 		"/>
		<polygon class="st16" points="33.5,252.4 33.5,252.4 33.5,252.4 		"/>
		<polygon class="st16" points="9.9,252.4 9.9,252.4 9.9,252.4 		"/>
		<polygon class="st16" points="25.7,252.4 25.7,252.4 25.7,252.4 		"/>
		<polygon class="st16" points="17.8,252.4 17.8,252.4 17.8,252.4 		"/>
		<polygon class="st16" points="41.4,252.4 41.4,252.4 41.4,252.4 		"/>
	</g>
</g>
<g id="net" class="st17">
	<path class="st18" d="M27.7,252.4c-1,1-1.9,2-2.7,3.2c-0.8,1.1-1.6,2.3-2.2,3.5c-0.7,1.2-1.3,2.5-1.8,3.8c-0.5,1.3-1,2.6-1.3,3.9
		c-0.7,2.6-1.1,5.2-1.2,7.6c0,1.2,0.1,2.4,0.3,3.5c0.2,1.1,0.5,2.2,0.9,3.2"/>
	<path class="st18" d="M21.6,252.4c-0.6,1-1.2,2-1.6,3.2c-0.4,1.1-0.8,2.3-1,3.5c-0.2,1.2-0.4,2.5-0.4,3.8c-0.1,1.3,0,2.6,0.1,3.9
		c0.3,2.6,0.9,5.2,1.8,7.6c0.5,1.2,1.1,2.4,1.7,3.5c0.7,1.1,1.4,2.2,2.3,3.2"/>
	<path class="st18" d="M18.6,252.4c-0.1,1-0.1,2,0,3.2c0.1,1.1,0.3,2.3,0.6,3.5c0.3,1.2,0.6,2.5,1.1,3.8c0.4,1.3,1,2.6,1.5,3.9
		c1.2,2.6,2.6,5.2,4.2,7.6c0.8,1.2,1.7,2.4,2.6,3.5c0.9,1.1,1.9,2.2,2.9,3.2"/>
	<path class="st18" d="M19.8,252.4c0.4,1,0.9,2,1.5,3.2c0.6,1.1,1.2,2.3,1.9,3.5c0.7,1.2,1.5,2.5,2.2,3.8c0.8,1.3,1.6,2.6,2.5,3.9
		c1.7,2.6,3.5,5.2,5.3,7.6c0.9,1.2,1.8,2.4,2.7,3.5c0.9,1.1,1.8,2.2,2.6,3.2"/>
	<path class="st18" d="M24.7,252.4c0.9,1,1.7,2,2.6,3.2c0.9,1.1,1.8,2.3,2.7,3.5c0.9,1.2,1.8,2.5,2.7,3.8c0.9,1.3,1.8,2.6,2.6,3.9
		c1.7,2.6,3.3,5.2,4.7,7.6c0.7,1.2,1.4,2.4,1.9,3.5c0.6,1.1,1.1,2.2,1.5,3.2"/>
	<path class="st18" d="M31.8,252.4c1,1,2,2,2.9,3.2c0.9,1.1,1.8,2.3,2.6,3.5c0.8,1.2,1.6,2.5,2.3,3.8c0.7,1.3,1.3,2.6,1.9,3.9
		c1.1,2.6,2,5.2,2.6,7.6c0.3,1.2,0.5,2.4,0.5,3.5c0.1,1.1,0.1,2.2-0.1,3.2"/>
	<path class="st18" d="M38.8,252.4c0.8,1,1.6,2,2.2,3.2c0.7,1.1,1.2,2.3,1.7,3.5c0.5,1.2,0.9,2.5,1.2,3.8c0.3,1.3,0.5,2.6,0.6,3.9
		c0.2,2.6,0.1,5.2-0.4,7.6c-0.2,1.2-0.6,2.4-1,3.5c-0.4,1.1-1,2.2-1.6,3.2"/>
	<path class="st18" d="M43.5,252.4c0.4,1,0.7,2,0.9,3.2c0.2,1.1,0.3,2.3,0.2,3.5c0,1.2-0.1,2.5-0.3,3.8c-0.2,1.3-0.5,2.6-0.9,3.9
		c-0.7,2.6-1.8,5.2-3.2,7.6c-0.7,1.2-1.4,2.4-2.3,3.5c-0.8,1.1-1.7,2.2-2.7,3.2"/>
	<path class="st18" d="M35.1,252.4c-1,1-1.9,2-2.9,3.2c-0.9,1.1-1.9,2.3-2.8,3.5c-0.9,1.2-1.8,2.5-2.6,3.8c-0.8,1.3-1.6,2.6-2.4,3.9
		c-1.5,2.6-2.8,5.2-3.8,7.6c-0.5,1.2-0.9,2.4-1.3,3.5c-0.3,1.1-0.6,2.2-0.8,3.2"/>
	<path class="st18" d="M44.5,252.4c-0.2,1-0.4,2-0.8,3.2c-0.4,1.1-0.8,2.3-1.3,3.5c-0.5,1.2-1.1,2.5-1.7,3.8
		c-0.6,1.3-1.3,2.6-2.1,3.9c-1.5,2.6-3.2,5.2-5,7.6c-0.9,1.2-1.8,2.4-2.8,3.5c-1,1.1-1.9,2.2-2.9,3.2"/>
	<path class="st18" d="M41.3,252.4c-0.7,1-1.4,2-2.2,3.2c-0.8,1.1-1.6,2.3-2.4,3.5c-0.8,1.2-1.7,2.5-2.6,3.8
		c-0.9,1.3-1.8,2.6-2.6,3.9c-1.8,2.6-3.5,5.2-5.2,7.6c-0.8,1.2-1.7,2.4-2.4,3.5c-0.8,1.1-1.5,2.2-2.2,3.2"/>
</g>
<g id="lines" class="st17">
	<polyline class="st19" points="15.5,227.6 8.1,235.1 8.1,252.4 18.6,252.4 44.7,252.4 55.3,252.4 55.3,235.1 47.8,227.6 	"/>
	<polyline class="st19" points="15.5,202.9 8.1,210.3 8.1,227.6 15.5,227.6 47.8,227.6 55.3,227.6 55.3,210.3 47.8,202.9 	"/>
	<polyline class="st19" points="15.5,178.1 8.1,185.6 8.1,202.9 15.5,202.9 47.8,202.9 55.3,202.9 55.3,185.6 47.8,178.1 	"/>
	<line class="st19" x1="18.6" y1="281" x2="44.7" y2="281"/>
	<line class="st19" x1="55.3" y1="210.3" x2="8.1" y2="210.3"/>
	<line class="st19" x1="8.1" y1="174.7" x2="55.3" y2="174.7"/>
	<line class="st19" x1="55.3" y1="235.1" x2="8.1" y2="235.1"/>
	<polyline class="st19" points="8.1,171.3 19.9,171.3 43.5,171.3 55.3,171.3 	"/>
	<polyline class="st19" points="8.1,178.1 8.1,174.7 8.1,171.3 	"/>
	<polyline class="st19" points="55.3,178.1 55.3,174.7 55.3,171.3 	"/>
	<line class="st19" x1="55.3" y1="185.6" x2="8.1" y2="185.6"/>
	<line class="st19" x1="9.4" y1="58.8" x2="9.4" y2="4.7"/>
	<line class="st19" x1="54.3" y1="4.7" x2="54.3" y2="39"/>
	<path class="st19" d="M26.7,46.5c-2.4,0-3.4-1-3.4-3.4c0-7.5,0-15.1,0-22.6c0-2.4,1-3.4,3.4-3.4c3.3,0,6.7,0,10,0
		c2.4,0,3.4,1,3.4,3.4c0,7.5,0,15.1,0,22.6c0,2.4-1,3.4-3.4,3.4C33.3,46.5,30,46.5,26.7,46.5z"/>
	<line class="st19" x1="54.3" y1="53.6" x2="54.3" y2="58.8"/>
	<path class="st19" d="M72,53.6c-5.9,0-11.8,0-17.7,0c-0.1,0-0.3,0-0.4,0c-3.8-4.1-3.8-10.4,0-14.5c0.1,0,0.3,0,0.4,0
		c5.9,0,11.8,0,17.7,0"/>
	<polygon class="st19" points="72,53.6 72,60 74,60 74,32.5 72,32.5 72,39 	"/>
	<polygon class="st19" points="54.3,4.7 62.4,4.7 62.4,1 1,1 1,4.7 9.4,4.7 	"/>
	<polygon class="st19" points="19.9,62.5 1,62.5 1,58.8 9.4,58.8 54.3,58.8 62.4,58.8 62.4,62.5 43.5,62.5 	"/>
	<line class="st19" x1="18.6" y1="252.4" x2="18.6" y2="281"/>
	<polyline class="st19" points="8.1,178.1 15.5,178.1 47.8,178.1 55.3,178.1 	"/>
	<line class="st19" x1="19.9" y1="62.5" x2="19.9" y2="171.3"/>
	<line class="st19" x1="44.7" y1="252.4" x2="44.7" y2="281"/>
	<line class="st19" x1="43.5" y1="62.5" x2="43.5" y2="171.3"/>
</g>
</svg>
