<?xml version="1.0" encoding="utf-8"?>
<!-- Generator: Adobe Illustrator 21.0.0, SVG Export Plug-In . SVG Version: 6.00 Build 0)  -->
<svg version="1.1" id="Layer_1" xmlns:agg="http://www.example.com"
	 xmlns="http://www.w3.org/2000/svg" xmlns:xlink="http://www.w3.org/1999/xlink" x="0px" y="0px" viewBox="0 0 202 54"
	 style="enable-background:new 0 0 202 54;" xml:space="preserve">
<style type="text/css">
	.st0{fill:url(#SVGID_1_);}
	.st1{fill:url(#SVGID_2_);}
	.st2{fill:url(#SVGID_3_);}
	.st3{fill:url(#SVGID_4_);}
	.st4{fill:url(#SVGID_5_);}
	.st5{fill:url(#SVGID_6_);}
	.st6{fill:url(#SVGID_7_);}
	.st7{fill:url(#SVGID_8_);}
	.st8{fill:url(#SVGID_9_);}
	.st9{fill:url(#SVGID_10_);}
	.st10{fill:url(#SVGID_11_);}
	.st11{fill:url(#SVGID_12_);}
	.st12{fill:url(#SVGID_13_);}
	.st13{opacity:0.3;}
	.st14{opacity:0.2;}
	.st15{fill:#3664BF;}
	.st16{opacity:0.5;}
	.st17{fill:none;stroke:#000000;stroke-width:0.5;stroke-linejoin:round;}
</style>
<agg:params>
	<agg:param  classes="color" cssAttributes="fill" description="Color" name="color" type="C"></agg:param>
	<agg:param  classes="color" cssAttributes="opacity" description="Saturation" max="1" min="0" name="saturation" type="F">
		</agg:param>
</agg:params>
<g id="cyl">
	
		<linearGradient id="SVGID_1_" gradientUnits="userSpaceOnUse" x1="18.38" y1="31.661" x2="18.38" y2="31.661" gradientTransform="matrix(1 0 0 -1 0 53.89)">
		<stop  offset="0" style="stop-color:#616161"/>
		<stop  offset="1.340000e-02" style="stop-color:#676767"/>
		<stop  offset="8.239999e-02" style="stop-color:#949494"/>
		<stop  offset="0.1517" style="stop-color:#BABABA"/>
		<stop  offset="0.2205" style="stop-color:#D7D7D7"/>
		<stop  offset="0.2885" style="stop-color:#EBEBEB"/>
		<stop  offset="0.3554" style="stop-color:#F8F8F8"/>
		<stop  offset="0.42" style="stop-color:#FCFCFC"/>
		<stop  offset="0.546" style="stop-color:#F8F8F8"/>
		<stop  offset="0.6766" style="stop-color:#EBEBEB"/>
		<stop  offset="0.8093" style="stop-color:#D7D7D7"/>
		<stop  offset="0.9426" style="stop-color:#BABABA"/>
		<stop  offset="1" style="stop-color:#ABABAB"/>
	</linearGradient>
	<polygon class="st0" points="18.4,22.2 18.4,22.2 18.4,22.2 	"/>
	
		<linearGradient id="SVGID_2_" gradientUnits="userSpaceOnUse" x1="68.932" y1="36.027" x2="68.932" y2="36.027" gradientTransform="matrix(1 0 0 -1 0 53.89)">
		<stop  offset="0" style="stop-color:#616161"/>
		<stop  offset="1.340000e-02" style="stop-color:#676767"/>
		<stop  offset="8.239999e-02" style="stop-color:#949494"/>
		<stop  offset="0.1517" style="stop-color:#BABABA"/>
		<stop  offset="0.2205" style="stop-color:#D7D7D7"/>
		<stop  offset="0.2885" style="stop-color:#EBEBEB"/>
		<stop  offset="0.3554" style="stop-color:#F8F8F8"/>
		<stop  offset="0.42" style="stop-color:#FCFCFC"/>
		<stop  offset="0.546" style="stop-color:#F8F8F8"/>
		<stop  offset="0.6766" style="stop-color:#EBEBEB"/>
		<stop  offset="0.8093" style="stop-color:#D7D7D7"/>
		<stop  offset="0.9426" style="stop-color:#BABABA"/>
		<stop  offset="1" style="stop-color:#ABABAB"/>
	</linearGradient>
	<polygon class="st1" points="68.9,17.9 68.9,17.9 68.9,17.9 	"/>
	
		<linearGradient id="SVGID_3_" gradientUnits="userSpaceOnUse" x1="123.385" y1="53.0565" x2="123.385" y2="0.8876" gradientTransform="matrix(1 0 0 -1 0 53.89)">
		<stop  offset="0" style="stop-color:#616161"/>
		<stop  offset="1.340000e-02" style="stop-color:#676767"/>
		<stop  offset="8.239999e-02" style="stop-color:#949494"/>
		<stop  offset="0.1517" style="stop-color:#BABABA"/>
		<stop  offset="0.2205" style="stop-color:#D7D7D7"/>
		<stop  offset="0.2885" style="stop-color:#EBEBEB"/>
		<stop  offset="0.3554" style="stop-color:#F8F8F8"/>
		<stop  offset="0.42" style="stop-color:#FCFCFC"/>
		<stop  offset="0.546" style="stop-color:#F8F8F8"/>
		<stop  offset="0.6766" style="stop-color:#EBEBEB"/>
		<stop  offset="0.8093" style="stop-color:#D7D7D7"/>
		<stop  offset="0.9426" style="stop-color:#BABABA"/>
		<stop  offset="1" style="stop-color:#ABABAB"/>
	</linearGradient>
	<path class="st2" d="M116.8,1v51.9H130V1H116.8z M128,50.9h-9.1V3h9.1V50.9z"/>
	
		<linearGradient id="SVGID_4_" gradientUnits="userSpaceOnUse" x1="1096.6337" y1="996.9054" x2="1096.6337" y2="996.9054" gradientTransform="matrix(0 1 -1 0 1126.8744 -1083.6367)">
		<stop  offset="0" style="stop-color:#616161"/>
		<stop  offset="1.340000e-02" style="stop-color:#676767"/>
		<stop  offset="8.239999e-02" style="stop-color:#949494"/>
		<stop  offset="0.1517" style="stop-color:#BABABA"/>
		<stop  offset="0.2205" style="stop-color:#D7D7D7"/>
		<stop  offset="0.2885" style="stop-color:#EBEBEB"/>
		<stop  offset="0.3554" style="stop-color:#F8F8F8"/>
		<stop  offset="0.42" style="stop-color:#FCFCFC"/>
		<stop  offset="0.546" style="stop-color:#F8F8F8"/>
		<stop  offset="0.6766" style="stop-color:#EBEBEB"/>
		<stop  offset="0.8093" style="stop-color:#D7D7D7"/>
		<stop  offset="0.9426" style="stop-color:#BABABA"/>
		<stop  offset="1" style="stop-color:#ABABAB"/>
	</linearGradient>
	<polygon class="st3" points="130,13 130,13 130,13 	"/>
	
		<linearGradient id="SVGID_5_" gradientUnits="userSpaceOnUse" x1="1088.8937" y1="965.7219" x2="1131.9797" y2="965.7219" gradientTransform="matrix(0 1 -1 0 1126.8744 -1083.6367)">
		<stop  offset="0" style="stop-color:#616161"/>
		<stop  offset="1.340000e-02" style="stop-color:#676767"/>
		<stop  offset="8.239999e-02" style="stop-color:#949494"/>
		<stop  offset="0.1517" style="stop-color:#BABABA"/>
		<stop  offset="0.2205" style="stop-color:#D7D7D7"/>
		<stop  offset="0.2885" style="stop-color:#EBEBEB"/>
		<stop  offset="0.3554" style="stop-color:#F8F8F8"/>
		<stop  offset="0.42" style="stop-color:#FCFCFC"/>
		<stop  offset="0.546" style="stop-color:#F8F8F8"/>
		<stop  offset="0.6766" style="stop-color:#EBEBEB"/>
		<stop  offset="0.8093" style="stop-color:#D7D7D7"/>
		<stop  offset="0.9426" style="stop-color:#BABABA"/>
		<stop  offset="1" style="stop-color:#ABABAB"/>
	</linearGradient>
	<path class="st4" d="M185.6,48.3h-42.2l-6.7-6.1v-1.7V13v-1.7l6.7-6.1h42.2C185.6,19.6,185.6,34,185.6,48.3z"/>
	
		<linearGradient id="SVGID_6_" gradientUnits="userSpaceOnUse" x1="1086.7354" y1="933.5634" x2="1134.1584" y2="933.5634" gradientTransform="matrix(0 1 -1 0 1126.8744 -1083.6367)">
		<stop  offset="0" style="stop-color:#616161"/>
		<stop  offset="1.340000e-02" style="stop-color:#676767"/>
		<stop  offset="8.239999e-02" style="stop-color:#949494"/>
		<stop  offset="0.1517" style="stop-color:#BABABA"/>
		<stop  offset="0.2205" style="stop-color:#D7D7D7"/>
		<stop  offset="0.2885" style="stop-color:#EBEBEB"/>
		<stop  offset="0.3554" style="stop-color:#F8F8F8"/>
		<stop  offset="0.42" style="stop-color:#FCFCFC"/>
		<stop  offset="0.546" style="stop-color:#F8F8F8"/>
		<stop  offset="0.6766" style="stop-color:#EBEBEB"/>
		<stop  offset="0.8093" style="stop-color:#D7D7D7"/>
		<stop  offset="0.9426" style="stop-color:#BABABA"/>
		<stop  offset="1" style="stop-color:#ABABAB"/>
	</linearGradient>
	<path class="st5" d="M190.1,50.6c-1.5,0-3,0-4.5,0c0-0.7,0-46.8,0-47.6c1.5,0,3,0,4.5,0c6,0,10.9,4.8,10.9,10.8c0,8.7,0,17.3,0,26
		C201,45.8,196.1,50.6,190.1,50.6z"/>
	
		<linearGradient id="SVGID_7_" gradientUnits="userSpaceOnUse" x1="99.167" y1="39.655" x2="108.1916" y2="39.655" gradientTransform="matrix(1 0 0 -1 0 53.89)">
		<stop  offset="0" style="stop-color:#616161"/>
		<stop  offset="1.340000e-02" style="stop-color:#676767"/>
		<stop  offset="8.239999e-02" style="stop-color:#949494"/>
		<stop  offset="0.1517" style="stop-color:#BABABA"/>
		<stop  offset="0.2205" style="stop-color:#D7D7D7"/>
		<stop  offset="0.2885" style="stop-color:#EBEBEB"/>
		<stop  offset="0.3554" style="stop-color:#F8F8F8"/>
		<stop  offset="0.42" style="stop-color:#FCFCFC"/>
		<stop  offset="0.546" style="stop-color:#F8F8F8"/>
		<stop  offset="0.6766" style="stop-color:#EBEBEB"/>
		<stop  offset="0.8093" style="stop-color:#D7D7D7"/>
		<stop  offset="0.9426" style="stop-color:#BABABA"/>
		<stop  offset="1" style="stop-color:#ABABAB"/>
	</linearGradient>
	<path class="st6" d="M108.2,8.4v9.4c0,1.2-2,2.2-4.5,2.2c-2.5,0-4.5-1-4.5-2.2h0V8.4H108.2z"/>
	
		<linearGradient id="SVGID_8_" gradientUnits="userSpaceOnUse" x1="1" y1="36.027" x2="1" y2="36.027" gradientTransform="matrix(1 0 0 -1 0 53.89)">
		<stop  offset="0" style="stop-color:#616161"/>
		<stop  offset="1.340000e-02" style="stop-color:#676767"/>
		<stop  offset="8.239999e-02" style="stop-color:#949494"/>
		<stop  offset="0.1517" style="stop-color:#BABABA"/>
		<stop  offset="0.2205" style="stop-color:#D7D7D7"/>
		<stop  offset="0.2885" style="stop-color:#EBEBEB"/>
		<stop  offset="0.3554" style="stop-color:#F8F8F8"/>
		<stop  offset="0.42" style="stop-color:#FCFCFC"/>
		<stop  offset="0.546" style="stop-color:#F8F8F8"/>
		<stop  offset="0.6766" style="stop-color:#EBEBEB"/>
		<stop  offset="0.8093" style="stop-color:#D7D7D7"/>
		<stop  offset="0.9426" style="stop-color:#BABABA"/>
		<stop  offset="1" style="stop-color:#ABABAB"/>
	</linearGradient>
	<polygon class="st7" points="1,17.9 1,17.9 1,17.9 	"/>
	
		<linearGradient id="SVGID_9_" gradientUnits="userSpaceOnUse" x1="13.897" y1="42.803" x2="13.897" y2="42.803" gradientTransform="matrix(1 0 0 -1 0 53.89)">
		<stop  offset="0" style="stop-color:#616161"/>
		<stop  offset="1.340000e-02" style="stop-color:#676767"/>
		<stop  offset="8.239999e-02" style="stop-color:#949494"/>
		<stop  offset="0.1517" style="stop-color:#BABABA"/>
		<stop  offset="0.2205" style="stop-color:#D7D7D7"/>
		<stop  offset="0.2885" style="stop-color:#EBEBEB"/>
		<stop  offset="0.3554" style="stop-color:#F8F8F8"/>
		<stop  offset="0.42" style="stop-color:#FCFCFC"/>
		<stop  offset="0.546" style="stop-color:#F8F8F8"/>
		<stop  offset="0.6766" style="stop-color:#EBEBEB"/>
		<stop  offset="0.8093" style="stop-color:#D7D7D7"/>
		<stop  offset="0.9426" style="stop-color:#BABABA"/>
		<stop  offset="1" style="stop-color:#ABABAB"/>
	</linearGradient>
	<polygon class="st8" points="13.9,11.1 13.9,11.1 13.9,11.1 	"/>
	
		<linearGradient id="SVGID_10_" gradientUnits="userSpaceOnUse" x1="64.448" y1="42.803" x2="64.448" y2="42.803" gradientTransform="matrix(1 0 0 -1 0 53.89)">
		<stop  offset="0" style="stop-color:#616161"/>
		<stop  offset="1.340000e-02" style="stop-color:#676767"/>
		<stop  offset="8.239999e-02" style="stop-color:#949494"/>
		<stop  offset="0.1517" style="stop-color:#BABABA"/>
		<stop  offset="0.2205" style="stop-color:#D7D7D7"/>
		<stop  offset="0.2885" style="stop-color:#EBEBEB"/>
		<stop  offset="0.3554" style="stop-color:#F8F8F8"/>
		<stop  offset="0.42" style="stop-color:#FCFCFC"/>
		<stop  offset="0.546" style="stop-color:#F8F8F8"/>
		<stop  offset="0.6766" style="stop-color:#EBEBEB"/>
		<stop  offset="0.8093" style="stop-color:#D7D7D7"/>
		<stop  offset="0.9426" style="stop-color:#BABABA"/>
		<stop  offset="1" style="stop-color:#ABABAB"/>
	</linearGradient>
	<polygon class="st9" points="64.4,11.1 64.4,11.1 64.4,11.1 	"/>
	
		<linearGradient id="SVGID_11_" gradientUnits="userSpaceOnUse" x1="18.38" y1="40.045" x2="18.38" y2="40.045" gradientTransform="matrix(1 0 0 -1 0 53.89)">
		<stop  offset="0" style="stop-color:#616161"/>
		<stop  offset="1.340000e-02" style="stop-color:#676767"/>
		<stop  offset="8.239999e-02" style="stop-color:#949494"/>
		<stop  offset="0.1517" style="stop-color:#BABABA"/>
		<stop  offset="0.2205" style="stop-color:#D7D7D7"/>
		<stop  offset="0.2885" style="stop-color:#EBEBEB"/>
		<stop  offset="0.3554" style="stop-color:#F8F8F8"/>
		<stop  offset="0.42" style="stop-color:#FCFCFC"/>
		<stop  offset="0.546" style="stop-color:#F8F8F8"/>
		<stop  offset="0.6766" style="stop-color:#EBEBEB"/>
		<stop  offset="0.8093" style="stop-color:#D7D7D7"/>
		<stop  offset="0.9426" style="stop-color:#BABABA"/>
		<stop  offset="1" style="stop-color:#ABABAB"/>
	</linearGradient>
	<polygon class="st10" points="18.4,13.8 18.4,13.8 18.4,13.8 	"/>
	
		<linearGradient id="SVGID_12_" gradientUnits="userSpaceOnUse" x1="18.38" y1="16.824" x2="18.38" y2="16.824" gradientTransform="matrix(1 0 0 -1 0 53.89)">
		<stop  offset="0" style="stop-color:#616161"/>
		<stop  offset="1.340000e-02" style="stop-color:#676767"/>
		<stop  offset="8.239999e-02" style="stop-color:#949494"/>
		<stop  offset="0.1517" style="stop-color:#BABABA"/>
		<stop  offset="0.2205" style="stop-color:#D7D7D7"/>
		<stop  offset="0.2885" style="stop-color:#EBEBEB"/>
		<stop  offset="0.3554" style="stop-color:#F8F8F8"/>
		<stop  offset="0.42" style="stop-color:#FCFCFC"/>
		<stop  offset="0.546" style="stop-color:#F8F8F8"/>
		<stop  offset="0.6766" style="stop-color:#EBEBEB"/>
		<stop  offset="0.8093" style="stop-color:#D7D7D7"/>
		<stop  offset="0.9426" style="stop-color:#BABABA"/>
		<stop  offset="1" style="stop-color:#ABABAB"/>
	</linearGradient>
	<polygon class="st11" points="18.4,37.1 18.4,37.1 18.4,37.1 	"/>
	
		<linearGradient id="SVGID_13_" gradientUnits="userSpaceOnUse" x1="95.807" y1="49.286" x2="95.807" y2="49.286" gradientTransform="matrix(1 0 0 -1 0 53.89)">
		<stop  offset="0" style="stop-color:#616161"/>
		<stop  offset="1.340000e-02" style="stop-color:#676767"/>
		<stop  offset="8.239999e-02" style="stop-color:#949494"/>
		<stop  offset="0.1517" style="stop-color:#BABABA"/>
		<stop  offset="0.2205" style="stop-color:#D7D7D7"/>
		<stop  offset="0.2885" style="stop-color:#EBEBEB"/>
		<stop  offset="0.3554" style="stop-color:#F8F8F8"/>
		<stop  offset="0.42" style="stop-color:#FCFCFC"/>
		<stop  offset="0.546" style="stop-color:#F8F8F8"/>
		<stop  offset="0.6766" style="stop-color:#EBEBEB"/>
		<stop  offset="0.8093" style="stop-color:#D7D7D7"/>
		<stop  offset="0.9426" style="stop-color:#BABABA"/>
		<stop  offset="1" style="stop-color:#ABABAB"/>
	</linearGradient>
	<polygon class="st12" points="95.8,4.6 95.8,4.6 95.8,4.6 	"/>
</g>
<g id="ribs" class="st13">
	<polyline points="185.6,45.5 147.3,45.5 144.5,47.2 145.1,47.2 185.6,47.2 	"/>
	<polyline points="185.6,40.9 147.3,40.9 144.5,42.5 145.1,42.5 185.6,42.5 	"/>
	<polyline points="185.6,33.9 147.3,33.9 144.5,35.5 145.1,35.5 185.6,35.5 	"/>
	<polyline points="185.6,25.6 147.3,25.6 144.5,27.3 145.1,27.3 185.6,27.3 	"/>
	<polyline points="185.6,17.4 147.3,17.4 144.5,19 145.1,19 185.6,19 	"/>
	<polyline points="185.6,10.4 147.3,10.4 144.5,12.1 145.1,12.1 185.6,12.1 	"/>
	<polyline points="185.6,6.5 147.3,6.5 144.5,8.2 145.1,8.2 185.6,8.2 	"/>
</g>
<g class="st14">
	<path id="boundary" class="st15" d="M190.1,3c-1.5,0-3,0-4.5,0c0,0.1,0,0.9,0,2.2h-42.2l-6.7,6.1V13H130V1h-13.2l0,16.9h-8.6
		c0,0,0,0,0,0V8.4h3.3V4.6H95.8v3.8h3.3v9.4h0c0,0,0,0,0,0H68.9l0-6.8h-4.5v2.8H18.4v-2.8h-4.5v6.8H1V36h12.9v6.8h4.5V40h46.1v2.8
		h4.5l0-6.8h47.9l0,16.9H130V40.6h6.7v1.7l6.7,6.1h42.2c0,1.3,0,2.2,0,2.3c1.5,0,3,0,4.5,0c6,0,10.9-4.8,10.9-10.8
		c0-8.7,0-17.4,0-26C201,7.8,196.1,3,190.1,3z M64.4,16.8v5.4H18.4v-5.4C18.4,16.8,64.4,16.8,64.4,16.8z M18.4,37.1v-5.4h46.1v5.4
		H18.4z M128,50.9h-9.1V31.6h9.1V50.9z M128,22.2h-9.1V3h9.1V22.2z"/>
</g>
<g class="st16">
	<g>
		<path id="boundary_1_" class="st17" d="M190.1,3c-1.5,0-3,0-4.5,0c0,0.1,0,0.9,0,2.2h-42.2l-6.7,6.1V13H130V1h-13.2l0,16.9h-8.6
			c0,0,0,0,0,0V8.4h3.3V4.6H95.8v3.8h3.3v9.4h0c0,0,0,0,0,0H68.9l0-6.8h-4.5v2.8H18.4v-2.8h-4.5v6.8H1V36h12.9v6.8h4.5V40h46.1v2.8
			h4.5l0-6.8h47.9l0,16.9H130V40.6h6.7v1.7l6.7,6.1h42.2c0,1.3,0,2.2,0,2.3c1.5,0,3,0,4.5,0c6,0,10.9-4.8,10.9-10.8
			c0-8.7,0-17.4,0-26C201,7.8,196.1,3,190.1,3z M64.4,16.8v5.4H18.4v-5.4C18.4,16.8,64.4,16.8,64.4,16.8z M18.4,37.1v-5.4h46.1v5.4
			H18.4z M128,50.9h-9.1V31.6h9.1V50.9z M128,22.2h-9.1V3h9.1V22.2z"/>
	</g>
	<path class="st17" d="M185.6,48.4c0,1.3,0,2.2,0,2.3c1.5,0,3,0,4.5,0c6,0,10.9-4.8,10.9-10.8c0-8.7,0-17.4,0-26
		c0-6-4.9-10.8-10.9-10.8c-1.5,0-3,0-4.5,0c0,0.1,0,0.9,0,2.2h-42.2l-6.7,6.1V13H130V1h-13.2v16.9h-8.6V8.4h3.3V4.6H95.8v3.8h3.3
		v9.4H68.9v-6.8h-4.5v2.8H18.4v-2.8h-4.5v6.8H1V36h12.9v6.8h4.5V40h46.1v2.8h4.5V36h47.9v16.9H130V40.6h6.7v1.7l6.7,6.1L185.6,48.4
		L185.6,48.4z"/>
	<polygon class="st17" points="18.4,16.8 18.4,16.8 18.4,16.8 	"/>
	<polygon class="st17" points="18.4,31.6 18.4,31.6 18.4,31.6 	"/>
	<polygon class="st17" points="118.8,31.6 118.8,31.6 118.8,31.6 	"/>
	<polygon class="st17" points="118.8,3 118.8,3 118.8,3 	"/>
	<line class="st17" x1="185.6" y1="5.3" x2="185.6" y2="48.3"/>
	<line class="st17" x1="136.7" y1="13" x2="136.7" y2="40.6"/>
	<line class="st17" x1="130" y1="13" x2="130" y2="40.6"/>
	<line class="st17" x1="116.8" y1="17.9" x2="116.8" y2="36"/>
	<line class="st17" x1="68.9" y1="17.9" x2="68.9" y2="36"/>
	<line class="st17" x1="64.4" y1="13.8" x2="64.4" y2="16.8"/>
	<line class="st17" x1="64.4" y1="22.2" x2="64.4" y2="31.6"/>
	<line class="st17" x1="64.4" y1="37.1" x2="64.4" y2="40"/>
	<line class="st17" x1="99.1" y1="8.4" x2="108.2" y2="8.4"/>
	<line class="st17" x1="13.9" y1="17.9" x2="13.9" y2="36"/>
	<line class="st17" x1="18.4" y1="13.8" x2="18.4" y2="16.8"/>
	<line class="st17" x1="18.4" y1="22.2" x2="18.4" y2="31.6"/>
	<line class="st17" x1="18.4" y1="37.1" x2="18.4" y2="40"/>
	<line class="st17" x1="118.8" y1="22.2" x2="118.8" y2="31.6"/>
	<line class="st17" x1="127.9" y1="22.2" x2="127.9" y2="31.6"/>
	<path class="st17" d="M108.2,17.9c0,1.2-2,2.2-4.5,2.2c-2.5,0-4.5-1-4.5-2.2"/>
</g>
</svg>
