<?xml version="1.0" encoding="utf-8"?>
<!-- Generator: Adobe Illustrator 21.0.0, SVG Export Plug-In . SVG Version: 6.00 Build 0)  -->
<svg version="1.1" id="_x30_" xmlns:agg="http://www.example.com"
	 xmlns="http://www.w3.org/2000/svg" xmlns:xlink="http://www.w3.org/1999/xlink" x="0px" y="0px" viewBox="0 0 80.5 90"
	 style="enable-background:new 0 0 80.5 90;" xml:space="preserve">
<style type="text/css">
	.st0{fill:url(#SVGID_1_);}
	.st1{fill:url(#SVGID_2_);}
	.st2{fill:url(#SVGID_3_);}
	.st3{fill:url(#scrubber_body_2_);}
	.st4{fill:url(#scrubber_body_3_);}
	.st5{fill:url(#SVGID_4_);}
	.st6{fill:url(#SVGID_5_);}
	.st7{fill:url(#SVGID_6_);}
	.st8{fill:url(#SVGID_7_);}
	.st9{fill:url(#SVGID_8_);}
	.st10{fill:url(#SVGID_9_);}
	.st11{opacity:0.64;fill:#3664BF;enable-background:new    ;}
	.st12{opacity:0.5;}
	.st13{fill:none;stroke:#000000;stroke-width:0.3;stroke-linecap:round;stroke-linejoin:round;}
	.st14{fill:#606060;}
</style>
<agg:params>
	<agg:param  classes="color" cssAttributes="fill" description="Color" name="color" type="C"></agg:param>
	<agg:param  classes="color" cssAttributes="opacity" description="Saturation" max="1" min="0" name="saturation" type="F">
		</agg:param>
</agg:params>
<linearGradient id="SVGID_1_" gradientUnits="userSpaceOnUse" x1="37.032" y1="84.298" x2="37.032" y2="84.298" gradientTransform="matrix(1 0 0 -1 0 89.89)">
	<stop  offset="0" style="stop-color:#767676"/>
	<stop  offset="6.000000e-02" style="stop-color:#919191"/>
	<stop  offset="0.14" style="stop-color:#B1B1B1"/>
	<stop  offset="0.21" style="stop-color:#CECECE"/>
	<stop  offset="0.28" style="stop-color:#E4E4E4"/>
	<stop  offset="0.35" style="stop-color:#F6F6F6"/>
	<stop  offset="0.42" style="stop-color:#FEFEFF"/>
	<stop  offset="0.47" style="stop-color:#F6F6F6"/>
	<stop  offset="0.53" style="stop-color:#E7E7E7"/>
	<stop  offset="0.58" style="stop-color:#D2D1D1"/>
	<stop  offset="0.64" style="stop-color:#B7B7B7"/>
	<stop  offset="0.7" style="stop-color:#989898"/>
	<stop  offset="0.72" style="stop-color:#8B8B8B"/>
	<stop  offset="1" style="stop-color:#FDFDFD"/>
</linearGradient>
<polygon class="st0" points="37,5.6 37,5.6 37,5.6 "/>
<linearGradient id="SVGID_2_" gradientUnits="userSpaceOnUse" x1="35.805" y1="9.973" x2="35.805" y2="9.973" gradientTransform="matrix(1 0 0 -1 0 89.89)">
	<stop  offset="0" style="stop-color:#767676"/>
	<stop  offset="6.000000e-02" style="stop-color:#919191"/>
	<stop  offset="0.14" style="stop-color:#B1B1B1"/>
	<stop  offset="0.21" style="stop-color:#CECECE"/>
	<stop  offset="0.28" style="stop-color:#E4E4E4"/>
	<stop  offset="0.35" style="stop-color:#F6F6F6"/>
	<stop  offset="0.42" style="stop-color:#FEFEFF"/>
	<stop  offset="0.47" style="stop-color:#F6F6F6"/>
	<stop  offset="0.53" style="stop-color:#E7E7E7"/>
	<stop  offset="0.58" style="stop-color:#D2D1D1"/>
	<stop  offset="0.64" style="stop-color:#B7B7B7"/>
	<stop  offset="0.7" style="stop-color:#989898"/>
	<stop  offset="0.72" style="stop-color:#8B8B8B"/>
	<stop  offset="1" style="stop-color:#FDFDFD"/>
</linearGradient>
<polygon class="st1" points="35.8,79.9 35.8,79.9 35.8,79.9 "/>
<linearGradient id="SVGID_3_" gradientUnits="userSpaceOnUse" x1="35.805" y1="14.029" x2="35.805" y2="14.029" gradientTransform="matrix(1 0 0 -1 0 89.89)">
	<stop  offset="0" style="stop-color:#767676"/>
	<stop  offset="6.000000e-02" style="stop-color:#919191"/>
	<stop  offset="0.14" style="stop-color:#B1B1B1"/>
	<stop  offset="0.21" style="stop-color:#CECECE"/>
	<stop  offset="0.28" style="stop-color:#E4E4E4"/>
	<stop  offset="0.35" style="stop-color:#F6F6F6"/>
	<stop  offset="0.42" style="stop-color:#FEFEFF"/>
	<stop  offset="0.47" style="stop-color:#F6F6F6"/>
	<stop  offset="0.53" style="stop-color:#E7E7E7"/>
	<stop  offset="0.58" style="stop-color:#D2D1D1"/>
	<stop  offset="0.64" style="stop-color:#B7B7B7"/>
	<stop  offset="0.7" style="stop-color:#989898"/>
	<stop  offset="0.72" style="stop-color:#8B8B8B"/>
	<stop  offset="1" style="stop-color:#FDFDFD"/>
</linearGradient>
<polygon class="st2" points="35.8,75.9 35.8,75.9 35.8,75.9 "/>
<g>
	
		<linearGradient id="scrubber_body_2_" gradientUnits="userSpaceOnUse" x1="40.293" y1="81.05" x2="40.293" y2="16.4235" gradientTransform="matrix(1 0 0 -1 0 89.89)">
		<stop  offset="0" style="stop-color:#757575"/>
		<stop  offset="1.310000e-02" style="stop-color:#868686"/>
		<stop  offset="4.480000e-02" style="stop-color:#AAAAAA"/>
		<stop  offset="7.670000e-02" style="stop-color:#C7C7C7"/>
		<stop  offset="0.1083" style="stop-color:#DEDEDE"/>
		<stop  offset="0.1396" style="stop-color:#EFEFEF"/>
		<stop  offset="0.1703" style="stop-color:#F9F9F9"/>
		<stop  offset="0.2" style="stop-color:#FCFCFC"/>
		<stop  offset="0.6709" style="stop-color:#FDFDFD"/>
		<stop  offset="0.9" style="stop-color:#FFFFFF"/>
		<stop  offset="1" style="stop-color:#B0B0B0"/>
	</linearGradient>
	<path id="scrubber_body" class="st3" d="M20.7,67.3c0,1.9,2.2,3.1,3.6,3.7c1.7,0.8,3.4,1.3,5.2,1.7c3.6,0.8,7.2,1.1,10.8,1.1
		s7.2-0.3,10.8-1.1c1.8-0.4,3.5-0.9,5.2-1.7c1.3-0.6,3.6-1.8,3.6-3.7c0-17.3,0-34.7,0-52c0-1.9-2.2-3.1-3.6-3.7
		c-1.7-0.8-3.4-1.3-5.2-1.7C47.5,9.1,44,8.8,40.3,8.8c-3.7,0-7.2,0.3-10.8,1.1c-1.8,0.4-3.5,0.9-5.2,1.7c-1.3,0.6-3.6,1.8-3.6,3.7
		C20.7,32.7,20.7,50,20.7,67.3z"/>
</g>
<g>
	
		<linearGradient id="scrubber_body_3_" gradientUnits="userSpaceOnUse" x1="20.726" y1="48.553" x2="59.86" y2="48.553" gradientTransform="matrix(1 0 0 -1 0 89.89)">
		<stop  offset="5.100000e-03" style="stop-color:#757575"/>
		<stop  offset="1.710000e-02" style="stop-color:#868686"/>
		<stop  offset="4.600000e-02" style="stop-color:#AAAAAA"/>
		<stop  offset="7.510000e-02" style="stop-color:#C7C7C7"/>
		<stop  offset="0.104" style="stop-color:#DEDEDE"/>
		<stop  offset="0.1326" style="stop-color:#EFEFEF"/>
		<stop  offset="0.1607" style="stop-color:#F9F9F9"/>
		<stop  offset="0.1878" style="stop-color:#FCFCFC"/>
		<stop  offset="0.3085" style="stop-color:#F8F8F8"/>
		<stop  offset="0.4335" style="stop-color:#ECECEC"/>
		<stop  offset="0.5606" style="stop-color:#D7D7D7"/>
		<stop  offset="0.689" style="stop-color:#BBBBBB"/>
		<stop  offset="0.8173" style="stop-color:#969696"/>
		<stop  offset="0.8528" style="stop-color:#8B8B8B"/>
	</linearGradient>
	<path id="scrubber_body_1_" class="st4" d="M20.7,67.3c0,1.9,2.2,3.1,3.6,3.7c1.7,0.8,3.4,1.3,5.2,1.7c3.6,0.8,7.2,1.1,10.8,1.1
		s7.2-0.3,10.8-1.1c1.8-0.4,3.5-0.9,5.2-1.7c1.3-0.6,3.6-1.8,3.6-3.7c0-17.3,0-34.7,0-52c0-1.9-2.2-3.1-3.6-3.7
		c-1.7-0.8-3.4-1.3-5.2-1.7C47.5,9.1,44,8.8,40.3,8.8c-3.7,0-7.2,0.3-10.8,1.1c-1.8,0.4-3.5,0.9-5.2,1.7c-1.3,0.6-3.6,1.8-3.6,3.7
		C20.7,32.7,20.7,50,20.7,67.3z"/>
</g>
<linearGradient id="SVGID_4_" gradientUnits="userSpaceOnUse" x1="15.822" y1="25.025" x2="15.822" y2="25.025" gradientTransform="matrix(1 0 0 -1 0 89.89)">
	<stop  offset="0" style="stop-color:#767676"/>
	<stop  offset="6.000000e-02" style="stop-color:#919191"/>
	<stop  offset="0.14" style="stop-color:#B1B1B1"/>
	<stop  offset="0.21" style="stop-color:#CECECE"/>
	<stop  offset="0.28" style="stop-color:#E4E4E4"/>
	<stop  offset="0.35" style="stop-color:#F6F6F6"/>
	<stop  offset="0.42" style="stop-color:#FEFEFF"/>
	<stop  offset="0.47" style="stop-color:#F6F6F6"/>
	<stop  offset="0.53" style="stop-color:#E7E7E7"/>
	<stop  offset="0.58" style="stop-color:#D2D1D1"/>
	<stop  offset="0.64" style="stop-color:#B7B7B7"/>
	<stop  offset="0.7" style="stop-color:#989898"/>
	<stop  offset="0.72" style="stop-color:#8B8B8B"/>
	<stop  offset="1" style="stop-color:#FDFDFD"/>
</linearGradient>
<polygon class="st5" points="15.8,64.9 15.8,64.9 15.8,64.9 "/>
<linearGradient id="SVGID_5_" gradientUnits="userSpaceOnUse" x1="15.822" y1="27.443" x2="15.822" y2="27.443" gradientTransform="matrix(1 0 0 -1 0 89.89)">
	<stop  offset="0" style="stop-color:#767676"/>
	<stop  offset="6.000000e-02" style="stop-color:#919191"/>
	<stop  offset="0.14" style="stop-color:#B1B1B1"/>
	<stop  offset="0.21" style="stop-color:#CECECE"/>
	<stop  offset="0.28" style="stop-color:#E4E4E4"/>
	<stop  offset="0.35" style="stop-color:#F6F6F6"/>
	<stop  offset="0.42" style="stop-color:#FEFEFF"/>
	<stop  offset="0.47" style="stop-color:#F6F6F6"/>
	<stop  offset="0.53" style="stop-color:#E7E7E7"/>
	<stop  offset="0.58" style="stop-color:#D2D1D1"/>
	<stop  offset="0.64" style="stop-color:#B7B7B7"/>
	<stop  offset="0.7" style="stop-color:#989898"/>
	<stop  offset="0.72" style="stop-color:#8B8B8B"/>
	<stop  offset="1" style="stop-color:#FDFDFD"/>
</linearGradient>
<polygon class="st6" points="15.8,62.4 15.8,62.4 15.8,62.4 "/>
<linearGradient id="SVGID_6_" gradientUnits="userSpaceOnUse" x1="72.905" y1="51.803" x2="72.905" y2="51.803" gradientTransform="matrix(1 0 0 -1 0 89.89)">
	<stop  offset="0" style="stop-color:#767676"/>
	<stop  offset="6.000000e-02" style="stop-color:#919191"/>
	<stop  offset="0.14" style="stop-color:#B1B1B1"/>
	<stop  offset="0.21" style="stop-color:#CECECE"/>
	<stop  offset="0.28" style="stop-color:#E4E4E4"/>
	<stop  offset="0.35" style="stop-color:#F6F6F6"/>
	<stop  offset="0.42" style="stop-color:#FEFEFF"/>
	<stop  offset="0.47" style="stop-color:#F6F6F6"/>
	<stop  offset="0.53" style="stop-color:#E7E7E7"/>
	<stop  offset="0.58" style="stop-color:#D2D1D1"/>
	<stop  offset="0.64" style="stop-color:#B7B7B7"/>
	<stop  offset="0.7" style="stop-color:#989898"/>
	<stop  offset="0.72" style="stop-color:#8B8B8B"/>
	<stop  offset="1" style="stop-color:#FDFDFD"/>
</linearGradient>
<polygon class="st7" points="72.9,38.1 72.9,38.1 72.9,38.1 "/>
<linearGradient id="SVGID_7_" gradientUnits="userSpaceOnUse" x1="4.419" y1="51.803" x2="4.419" y2="51.803" gradientTransform="matrix(1 0 0 -1 0 89.89)">
	<stop  offset="0" style="stop-color:#767676"/>
	<stop  offset="6.000000e-02" style="stop-color:#919191"/>
	<stop  offset="0.14" style="stop-color:#B1B1B1"/>
	<stop  offset="0.21" style="stop-color:#CECECE"/>
	<stop  offset="0.28" style="stop-color:#E4E4E4"/>
	<stop  offset="0.35" style="stop-color:#F6F6F6"/>
	<stop  offset="0.42" style="stop-color:#FEFEFF"/>
	<stop  offset="0.47" style="stop-color:#F6F6F6"/>
	<stop  offset="0.53" style="stop-color:#E7E7E7"/>
	<stop  offset="0.58" style="stop-color:#D2D1D1"/>
	<stop  offset="0.64" style="stop-color:#B7B7B7"/>
	<stop  offset="0.7" style="stop-color:#989898"/>
	<stop  offset="0.72" style="stop-color:#8B8B8B"/>
	<stop  offset="1" style="stop-color:#FDFDFD"/>
</linearGradient>
<polygon class="st8" points="4.4,38.1 4.4,38.1 4.4,38.1 "/>
<linearGradient id="SVGID_8_" gradientUnits="userSpaceOnUse" x1="63.1215" y1="48.6742" x2="63.1215" y2="35.9237" gradientTransform="matrix(1 0 0 -1 0 89.89)">
	<stop  offset="0" style="stop-color:#767676"/>
	<stop  offset="6.000000e-02" style="stop-color:#919191"/>
	<stop  offset="0.14" style="stop-color:#B1B1B1"/>
	<stop  offset="0.21" style="stop-color:#CECECE"/>
	<stop  offset="0.28" style="stop-color:#E4E4E4"/>
	<stop  offset="0.35" style="stop-color:#F6F6F6"/>
	<stop  offset="0.42" style="stop-color:#FEFEFF"/>
	<stop  offset="0.47" style="stop-color:#F6F6F6"/>
	<stop  offset="0.53" style="stop-color:#E7E7E7"/>
	<stop  offset="0.58" style="stop-color:#D2D1D1"/>
	<stop  offset="0.64" style="stop-color:#B7B7B7"/>
	<stop  offset="0.7" style="stop-color:#989898"/>
	<stop  offset="0.72" style="stop-color:#8B8B8B"/>
	<stop  offset="1" style="stop-color:#FDFDFD"/>
</linearGradient>
<path class="st9" d="M72.9,54.3v-13h-13c-3.6,0-6.5,2.9-6.5,6.5c0,3.6,2.9,6.5,6.5,6.5C59.9,54.3,72.9,54.3,72.9,54.3z"/>
<linearGradient id="SVGID_9_" gradientUnits="userSpaceOnUse" x1="17.464" y1="48.6742" x2="17.464" y2="35.9237" gradientTransform="matrix(1 0 0 -1 0 89.89)">
	<stop  offset="0" style="stop-color:#767676"/>
	<stop  offset="6.000000e-02" style="stop-color:#919191"/>
	<stop  offset="0.14" style="stop-color:#B1B1B1"/>
	<stop  offset="0.21" style="stop-color:#CECECE"/>
	<stop  offset="0.28" style="stop-color:#E4E4E4"/>
	<stop  offset="0.35" style="stop-color:#F6F6F6"/>
	<stop  offset="0.42" style="stop-color:#FEFEFF"/>
	<stop  offset="0.47" style="stop-color:#F6F6F6"/>
	<stop  offset="0.53" style="stop-color:#E7E7E7"/>
	<stop  offset="0.58" style="stop-color:#D2D1D1"/>
	<stop  offset="0.64" style="stop-color:#B7B7B7"/>
	<stop  offset="0.7" style="stop-color:#989898"/>
	<stop  offset="0.72" style="stop-color:#8B8B8B"/>
	<stop  offset="1" style="stop-color:#FDFDFD"/>
</linearGradient>
<path class="st10" d="M7.7,54.3v-13h13c3.6,0,6.5,2.9,6.5,6.5c0,3.6-2.9,6.5-6.5,6.5C20.7,54.3,7.7,54.3,7.7,54.3z"/>
<path class="st11" d="M72.9,38.1v3.3h-13c0-8.7,0-17.3,0-26c0-1.9-2.2-3.1-3.6-3.7c-1.7-0.8-3.4-1.3-5.2-1.7c-2.5-0.6-5-0.9-7.6-1
	V5.6H37v3.3c-2.5,0.1-5,0.4-7.6,1c-1.8,0.4-3.5,0.9-5.2,1.7c-1.3,0.6-3.6,1.8-3.6,3.7c0,8.7,0,17.3,0,26h-13v-3.3H4.4v19.4h3.3v-3.2
	h13c0,2.2,0,4.3,0,6.5h-1.2v1.6h-3.7v2.4v2.5h3.7v1.6h1.8c0.8,1,2.1,1.7,3,2.1c1.7,0.8,3.4,1.3,5.2,1.7c2.5,0.6,5,0.9,7.6,1v2.1
	h-1.2v2H37v2h-1.2v2H37v2h6.5v-2h1.2v-2h-1.2v-2h1.2v-2h-1.2v-2.1c2.5-0.1,5-0.4,7.6-1c1.8-0.4,3.5-0.9,5.2-1.7
	c0.9-0.4,2.2-1.1,3-2.1h1.8v-1.6h3.7v-2.5v-2.4h-3.7v-1.6h-1.2c0-2.2,0-4.3,0-6.5h13v3.2h3.3V38.1H72.9z"/>
<g class="st12">
	<path class="st13" d="M72.9,41.3c-4.3,0-8.7,0-13,0c-3.6,0-6.5,2.9-6.5,6.5c0,3.6,2.9,6.5,6.5,6.5c4.3,0,8.7,0,13,0"/>
	<path class="st13" d="M7.7,41.3c4.3,0,8.7,0,13,0c3.6,0,6.5,2.9,6.5,6.5c0,3.6-2.9,6.5-6.5,6.5c-4.3,0-8.7,0-13,0"/>
	<line class="st13" x1="20.7" y1="54.3" x2="20.7" y2="62.4"/>
	<path class="st13" d="M59.9,41.3c0-8.7,0-17.3,0-26c0-1.9-2.2-3.1-3.6-3.7c-1.7-0.8-3.4-1.3-5.2-1.7C47.5,9.1,44,8.8,40.3,8.8
		c-3.7,0-7.2,0.3-10.8,1.1c-1.8,0.4-3.5,0.9-5.2,1.7c-1.3,0.6-3.6,1.8-3.6,3.7c0,8.7,0,17.3,0,26"/>
	<line class="st13" x1="59.9" y1="62.4" x2="59.9" y2="54.3"/>
	<path class="st13" d="M20.7,67.3c0,1.9,2.2,3.1,3.6,3.7c1.7,0.8,3.4,1.3,5.2,1.7c3.6,0.8,7.2,1.1,10.8,1.1s7.2-0.3,10.8-1.1
		c1.8-0.4,3.5-0.9,5.2-1.7c1.3-0.6,3.6-1.8,3.6-3.7"/>
	<polygon class="st13" points="15.8,62.4 15.8,62.4 15.8,62.4 	"/>
	<line class="st13" x1="15.8" y1="64.9" x2="64.8" y2="64.9"/>
	<polyline class="st13" points="37,81.9 37,84 43.6,84 43.6,81.9 	"/>
	<line class="st13" x1="37" y1="77.9" x2="37" y2="79.9"/>
	<line class="st13" x1="43.6" y1="79.9" x2="43.6" y2="77.9"/>
	<line class="st13" x1="43.6" y1="75.9" x2="43.6" y2="73.7"/>
	<line class="st13" x1="37" y1="73.7" x2="37" y2="75.9"/>
	<polygon class="st13" points="35.8,79.9 35.8,79.9 35.8,79.9 	"/>
	<polygon class="st13" points="35.8,75.9 35.8,75.9 35.8,75.9 	"/>
	<polyline class="st13" points="43.6,8.9 43.6,5.6 37,5.6 37,8.9 	"/>
	<polygon class="st13" points="72.9,38.1 72.9,38.1 72.9,38.1 	"/>
	<polygon class="st13" points="4.4,38.1 4.4,38.1 4.4,38.1 	"/>
</g>
<g id="nuts">
	<polygon class="st14" points="28.8,67.3 28.8,67.3 28.8,67.3 	"/>
	<polygon class="st14" points="56.8,67.3 56.8,67.3 56.8,67.3 	"/>
	<polygon class="st14" points="47.5,67.3 47.5,67.3 47.5,67.3 	"/>
	<polygon class="st14" points="38.2,67.3 38.2,67.3 38.2,67.3 	"/>
	<polygon class="st14" points="19.5,67.3 19.5,67.3 19.5,67.3 	"/>
	<polygon class="st14" points="28.8,60.8 28.8,60.8 28.8,60.8 	"/>
	<polygon class="st14" points="56.8,60.8 56.8,60.8 56.8,60.8 	"/>
	<polygon class="st14" points="47.5,60.8 47.5,60.8 47.5,60.8 	"/>
	<polygon class="st14" points="38.2,60.8 38.2,60.8 38.2,60.8 	"/>
	<polygon class="st14" points="19.5,60.8 19.5,60.8 19.5,60.8 	"/>
</g>
</svg>
