<?xml version="1.0" encoding="utf-8"?>
<!-- Generator: Adobe Illustrator 19.0.0, SVG Export Plug-In . SVG Version: 6.00 Build 0)  -->
<svg version="1.1" id="图层_1" xmlns="http://www.w3.org/2000/svg" xmlns:xlink="http://www.w3.org/1999/xlink" x="0px" y="0px"
	 viewBox="0 1.2 106.5 106.5" style="enable-background:new 0 1.2 106.5 106.5;" xml:space="preserve">
<style type="text/css">
	.st0{fill:url(#SVGID_1_);stroke:#000000;stroke-width:0.5;}
	.st1{fill:#007F00;stroke:#000000;stroke-width:0.5;}
	.st2{fill:#001900;}
	.st3{fill:#64B264;}
	.st4{fill:#98CB98;}
	.st5{fill:none;stroke:#000000;stroke-width:0.5;}
	.st6{fill:#006600;stroke:#000000;stroke-width:0.5;}
	.st7{fill:#CAE4CA;}
	.st8{fill:#007F00;}
</style>
<g>
	
		<linearGradient id="SVGID_1_" gradientUnits="userSpaceOnUse" x1="87.4872" y1="112.7272" x2="18.9128" y2="-6.0472" gradientTransform="matrix(1 0 0 -1 0 110.16)">
		<stop  offset="0" style="stop-color:#98CB98"/>
		<stop  offset="1" style="stop-color:#7ABD7A"/>
	</linearGradient>
	<path class="st0" d="M103.4,6.6H3V107h100.4V6.6z"/>
	<circle class="st1" cx="53" cy="57" r="46.8"/>
	<circle class="st2" cx="53" cy="57" r="44.2"/>
	<path class="st3" d="M46.2,98.6V63.9h14.1v34.8L46.2,98.6L46.2,98.6z"/>
	<path class="st4" d="M46.2,98.6l1.8-3l1.4-3.2l1.1-3.3l0.6-3.3l0.3-3.4V79L51,75.6l-0.9-3.3L48.9,69l-1.6-3.1l-0.5-1.1l-0.6-1H47
		h13.2l1.8,3.1l1.3,3.1l1.1,3.3l0.6,3.4l0.2,2.2l0.1,1.1v1.2l-0.2,3.4L64.6,88l-0.8,3.4l-1.3,3.2l-1.6,3.1l-0.6,1h-0.9L46.2,98.6
		L46.2,98.6z"/>
	<path class="st5" d="M46.2,98.6V63.9h14.1l1.8,3.1l1.3,3.1l1.1,3.3l0.6,3.4l0.3,3.3l-0.1,3.4l-0.4,3.4l-0.7,3.4L63,93.5l-1.5,3.1
		l-1.2,2H46.2"/>
	<path class="st3" d="M13.4,71.7l30.4-17.6l6.7,12l-30,17.7L13.4,71.7z"/>
	<path class="st4" d="M13.4,71.7H17l3.5-0.4l3.3-0.7l3.3-1.1l3.1-1.5l3-1.8l2.8-2l2.5-2.3l2.2-2.7l2-2.9l0.5-1.1l0.6-1.1l0.3,0.7
		l1.7,3.1l1.7,3l1.8,3l0.9,1.5l0.3,0.7l-0.4,1.1l-1.8,3.2l-2.2,2.7l-2.3,2.6l-2.8,2l-2.9,1.9L35,81.1l-3.1,1.3l-3.4,0.9l-3.4,0.4
		L24,83.8h-1.3h-1.1h-1.2l-1.8-3.1l-1.7-3l-1.8-3l-1.3-2.2L13.4,71.7z"/>
	<path class="st5" d="M13.4,71.7l30.4-17.6l6.7,12l-1.7,3.3l-2,2.8l-2.2,2.6L42,77.1L39.1,79l-3,1.7L32.9,82l-3.3,1.1l-3.4,0.5
		l-3.5,0.2h-2.2L13.4,71.7"/>
	<path class="st3" d="M20.5,29.8l30,17.6l-6.7,12L13.4,41.9L20.5,29.8z"/>
	<path class="st4" d="M20.5,29.8l1.7,3.1l2.1,2.8l2.2,2.6l2.6,2.3l2.9,1.9l3,1.7l3.1,1.4l3.3,1l3.4,0.6l3.5,0.2h1.1h1.2l-0.3,0.7
		l-1.7,3l-1.7,3l-1.7,3l-1.3,2.3h-1.3h-1.2l-3.5-0.2l-3.4-0.6l-3.3-1L28,56.2l-3-1.7l-2.8-1.9l-2.7-2.3l-2.2-2.6l-2.1-2.8l-1.2-2
		l-0.5-1.1l0.4-0.7l1.7-3l1.8-3l1.7-3.1l1-1.5L20.5,29.8z"/>
	<path class="st5" d="M20.5,29.8l30,17.6l-6.7,12h-1.3H39l-3.4-0.5L32.2,58L29,56.7l-3.1-1.5L23,53.3l-2.7-2.1L18,48.7l-2.2-2.8
		l-1.8-3l-0.5-1.1L20.5,29.8"/>
	<path class="st3" d="M60.2,15v34.8h-14V15H60.2z"/>
	<path class="st4" d="M60.2,15l-1.8,3L57,21.2l-1,3.3l-0.6,3.3L55,31.2l0.1,3.4l0.4,3.4l0.7,3.3l1.2,3.3l1.6,3.1l0.5,1.1l0.6,1h-0.9
		h-13l-1.8-3.1l-1.3-3.1L42,40.3l-0.6-3.4l-0.2-2.2L41,33.6v-1.2l0.2-3.4l0.5-3.4l0.9-3.3l1.3-3.2l1.6-3.1l0.6-1H47
		C47,15,60.2,15,60.2,15z"/>
	<path class="st5" d="M60.2,15v34.8h-14l-1.8-3.1l-1.3-3.1L42,40.3l-0.6-3.4L41,33.6l0.1-3.4l0.4-3.4l0.7-3.4l1.2-3.2l1.5-3.1l1.2-2
		h14.1"/>
	<path class="st3" d="M93,41.9L62.6,59.5l-6.7-12L86,29.9L93,41.9z"/>
	<path class="st4" d="M93,41.9h-3.5L86,42.3L82.7,43l-3.3,1.1l-3.1,1.5l-3,1.8l-2.8,2L68,51.8l-2.2,2.7l-2,2.9l-0.6,1l-0.6,1.1
		l-0.3-0.7l-1.7-3.1l-1.7-3l-1.8-3l-0.9-1.5l-0.3-0.8l0.4-1.1l1.8-3.1l2.2-2.7l2.3-2.6l2.7-2.1l2.9-1.9l3.1-1.5l3.2-1.3l3.4-0.9
		l3.4-0.4l1.1-0.1h1.3h1.1H86l1.8,3.1l1.7,3l1.8,3l1.3,2.2L93,41.9z"/>
	<path class="st5" d="M93,41.9L62.6,59.5l-6.7-12l1.7-3.2l2-2.8l2.2-2.6l2.6-2.3l2.9-1.9l3-1.7l3.2-1.3l3.3-1.1l3.4-0.5l3.5-0.2h2.2
		L93,41.9"/>
	<path class="st3" d="M85.9,83.8l-30-17.6l6.7-12L93,71.7L85.9,83.8z"/>
	<path class="st4" d="M85.9,83.8l-1.7-3.1l-2.1-2.8l-2.2-2.5l-2.6-2.3l-2.9-1.9l-3-1.7l-3.1-1.4l-3.3-1l-3.4-0.7l-3.5-0.2H57h-1.2
		l0.3-0.7l1.7-3l1.7-3l1.7-3l1.3-2.3h1.3H65l3.5,0.2l3.4,0.6l3.3,1l3.2,1.4l3,1.7l2.8,1.9l2.7,2.3l2.2,2.6l2.1,2.8l1.2,2l0.5,1.1
		l-0.4,0.7l-1.7,3l-1.8,3l-1.7,3.1l-1,1.5L85.9,83.8z"/>
	<path class="st5" d="M85.9,83.8l-30-17.6l6.7-12h1.3l3.5,0.1l3.4,0.5l3.4,0.9l3.2,1.3l3.1,1.5l2.9,1.9l2.7,2.1l2.3,2.5l2.2,2.8
		l1.8,3l0.5,1.1L85.9,83.8"/>
	<circle class="st6" cx="53.2" cy="56.8" r="12.3"/>
	<circle class="st7" cx="53.2" cy="56.8" r="10.4"/>
	<circle class="st8" cx="53.2" cy="56.8" r="3.4"/>
	<path d="M97.2,104.5h-6.3v2h6.3V104.5z"/>
	<path d="M88.8,104.5h-6.3v2h6.3V104.5z"/>
	<path d="M74.1,104.5h-6.2v2h6.2V104.5z"/>
	<path d="M9.2,106.5h6.3v-2H9.2V106.5z"/>
	<path d="M17.6,106.5h6.3v-2h-6.3C17.6,104.5,17.6,106.5,17.6,106.5z"/>
	<path d="M32.3,106.5h6.2v-2h-6.2V106.5z"/>
</g>
</svg>
