<?xml version="1.0" encoding="utf-8"?>
<!-- Generator: Adobe Illustrator 15.1.0, SVG Export Plug-In . SVG Version: 6.00 Build 0)  -->
<!DOCTYPE svg PUBLIC "-//W3C//DTD SVG 1.1//EN" "http://www.w3.org/Graphics/SVG/1.1/DTD/svg11.dtd">
<svg version="1.1" id="Layer_1" xmlns="http://www.w3.org/2000/svg" preserveAspectRatio="none"  x="0px" y="0px"
       viewBox="0 0 152 152" xmlns:agg="http://www.example.com">
	 
<agg:params>
	<agg:param type="C" name="color" description="Color" cssAttributes="fill" classes="color"/>
	<agg:param name="state" description="State" type="state">
		<agg:state name="loaded" description="Loaded">
			<agg:param attributes="visibility" ids="cargo" value="visible"/>
		</agg:state>
		<agg:state name="empty" description="Empty">
			<agg:param attributes="visibility" ids="cargo" value="hidden"/>
		</agg:state>
	</agg:param>
</agg:params>

<style type="text/css" >
<![CDATA[

	.stroked,.white{
		stroke-width:0.5;
		stroke-linecap:round;
		stroke-linejoin:round;
		fill:none;
	}
	
	.color {
		fill: #4C4C4C;
	}
	
	.stroked {
		stroke:black;
	}
	
	.white {
		stroke:white;
	}

		]]>
</style>

<g id="cargo">	 
	<polygon class="color" points="13.5,26 16.649,20.55 27.549,17.4 38.499,17.4
		44.749,12.7 47.898,6.45 59.598,4.9 65.048,1 81.448,2.55 90.047,9.6 93.947,8.05 104.897,8.05 118.196,11.15 125.196,18.95 
		129.896,17.4 140.846,23.65 140.846,26 13.5,26 "/>
	<path opacity="0.5" d="M113.496,26l-7.799-2.35l6.249-4.7l-4.7-2.35l5.45-2.3l-1.55,2.3
		l6.25-1.55l7.8,3.9l-8.55-1.55l-4.7,4.7L113.496,26L113.496,26z M90.047,10.35l-3.9,5.5l-9.35,0.75l3.899,4.7l4.7-3.9l10.9,3.9
		l5.5-4.7l-7.05,1.6l-2.35-4.7l-3.101,3.1L90.047,10.35L90.047,10.35z M67.398,17.4l-4.7,8.6h3.15l7.049-4.699L77.548,26l-1.55-9.399
		L67.398,17.4L67.398,17.4z M47.898,6.45L64.298,9.6l10.15,7l3.1-8.55l-6.25,2.3l-11.7-5.45L47.898,6.45L47.898,6.45z M44.749,12.7
		l-0.8,7.851l-2.3,2.3l5.45,2.35l7.799-6.25l5.5,2.351l-3.95-4.7l-10.899,2.35L44.749,12.7L44.749,12.7z M27.549,17.4l3.899,3.15
		L25.999,26h10.95l-5.5-1.55l0.8-4.7L27.549,17.4L27.549,17.4z"/>
</g>
<polygon fill="#333333" points="38.549,126 38.549,132.25 113.496,132.25 113.496,126 38.549,126 "/>
<polygon fill="#7F7F7F" points="7.25,32.25 13.5,119.749 19.75,126 132.247,126 
	138.496,119.749 144.746,32.25 150.995,32.25 150.995,26 1,26 1,32.25 7.25,32.25 "/>
<path fill="#CCCCCC" d="M128.996,126v6.25h-15.55l-6.2-6.25H128.996L128.996,126zM22.899,126v6.25h15.6l6.25-6.25H22.899L22.899,126z"/>
<polygon fill="#666666" points="12.7,107.249 15.85,116.6 18.95,119.749 38.499,119.749 
	44.749,51 50.999,119.749 69.748,119.749 75.998,51 82.248,119.749 100.997,119.749 107.246,51 113.496,119.749 132.247,119.749 
	136.146,116.6 139.296,107.249 138.496,119.749 132.247,126 19.75,126 13.5,119.749 12.7,107.249 "/>
<polygon fill="#666666" points="7.25,32.25 10.399,76 19.75,38.5 132.247,38.5 141.646,76 144.746,32.25 7.25,32.25 "/>
<circle fill="#7F7F7F" cx="30.699" cy="140.05" r="10.925"/>
<circle opacity="0.5" cx="30.699" cy="140.05" r="6.25"/>
<circle fill="#7F7F7F" cx="121.296" cy="140.05" r="10.925"/>
<circle opacity="0.5" cx="121.296" cy="140.05" r="6.25"/>

<g class="white">
	<line x1="44.749" y1="51" x2="50.999" y2="119.749"/>
	<line x1="75.998" y1="51" x2="82.248" y2="119.749"/>
	<line x1="107.246" y1="51" x2="113.496" y2="119.749"/>
</g>

<g class="stroked">
	<line x1="44.749" y1="51" x2="38.499" y2="119.749"/>
	<line x1="75.998" y1="51" x2="69.748" y2="119.749"/>
	<line x1="107.246" y1="51" x2="100.997" y2="119.749"/>
	<polyline points="7.25,32.25 13.5,119.749 19.75,126 132.247,126 138.496,119.749 144.746,32.25 150.995,32.25 150.995,26 1,26 1,32.25 7.25,32.25 	"/>
	<line x1="7.25" y1="32.25" x2="144.746" y2="32.25"/>
	<line x1="22.899" y1="126" x2="22.899" y2="132.25"/>
	<line x1="128.996" y1="126" x2="128.996" y2="132.25"/>
	<circle cx="30.699" cy="140.05" r="10.925"/>
	<circle cx="121.296" cy="140.05" r="10.925"/>
	<line x1="38.342" y1="132.25" x2="113.573" y2="132.25"/>
	<line x1="38.342" y1="132.25" x2="44.749" y2="126"/>
	<line x1="113.573" y1="132.25" x2="107.246" y2="126"/>
</g>
</svg>
