<?xml version="1.0" encoding="utf-8"?>
<!-- Generator: Adobe Illustrator 19.0.0, SVG Export Plug-In . SVG Version: 6.00 Build 0)  -->
<svg version="1.1" id="图层_1" xmlns="http://www.w3.org/2000/svg" xmlns:xlink="http://www.w3.org/1999/xlink" x="0px" y="0px"
	 viewBox="-12 1.2 81.3 106.5" style="enable-background:new -12 1.2 81.3 106.5;" xml:space="preserve">
<style type="text/css">
	.st0{fill:#FF0000;stroke:#000000;stroke-width:0.25;stroke-linejoin:round;}
	.st1{fill:#DBEDDB;stroke:#000000;stroke-width:0.25;stroke-linejoin:round;}
	.st2{fill:#910000;stroke:#000000;stroke-width:0.25;stroke-linejoin:round;}
</style>
<path class="st0" d="M62,105.8V30.5L41.2,5.4v75.4L62,105.8z"/>
<path class="st0" d="M49.5,105.8V30.5l-21-25.1v75.4L49.5,105.8z"/>
<path class="st0" d="M37,105.8V30.5L16,5.4v75.4L37,105.8z"/>
<path class="st0" d="M24.5,105.8V30.5L3.6,5.4v75.4L24.5,105.8z"/>
<path class="st0" d="M11.9,105.8V30.5L-9,5.4v75.4L11.9,105.8z"/>
<path class="st1" d="M66.4,30.5h-4.3L41.2,5.4h4.2L66.4,30.5z"/>
<path class="st1" d="M53.8,30.5h-4.2l-21-25.1h4.2L53.8,30.5z"/>
<path class="st1" d="M41.2,30.5H37L16,5.4h4.3L41.2,30.5z"/>
<path class="st1" d="M28.6,30.5h-4.2L3.6,5.4h4.2L28.6,30.5z"/>
<path class="st1" d="M16,30.5h-4.2L-9,5.4h4.2L16,30.5z"/>
<path class="st2" d="M66.4,30.5h-4.3v75.4h4.3V30.5z"/>
<path class="st2" d="M53.8,30.5h-4.2v75.4h4.2V30.5z"/>
<path class="st2" d="M41.2,30.5H37v75.4h4.2V30.5z"/>
<path class="st2" d="M28.6,30.5h-4.2v75.4h4.2C28.6,105.9,28.6,30.5,28.6,30.5z"/>
<path class="st2" d="M16,30.5h-4.2v75.4H16V30.5z"/>
</svg>
