<?xml version="1.0" encoding="utf-8"?>
<!-- Generator: Adobe Illustrator 19.0.0, SVG Export Plug-In . SVG Version: 6.00 Build 0)  -->
<svg version="1.1" id="图层_1" xmlns="http://www.w3.org/2000/svg" xmlns:xlink="http://www.w3.org/1999/xlink" x="0px" y="0px"
	 viewBox="0 1.2 106.5 106.5" style="enable-background:new 0 1.2 106.5 106.5;" xml:space="preserve">
<style type="text/css">
	.st0{fill:url(#SVGID_1_);stroke:#000000;stroke-width:0.5;}
	.st1{fill:#7EBF7E;stroke:#000000;stroke-width:0.5;}
	.st2{fill:none;stroke:#000000;stroke-width:0.5;}
	.st3{fill:#007F00;}
	.st4{fill:#329932;}
	.st5{fill:none;stroke:#000000;stroke-width:3;stroke-miterlimit:10;}
	.st6{fill:none;stroke:#000000;stroke-width:3;}
</style>
<g>
	
		<linearGradient id="SVGID_1_" gradientUnits="userSpaceOnUse" x1="3" y1="51.24" x2="103.4" y2="51.24" gradientTransform="matrix(1 0 0 -1 0 110.16)">
		<stop  offset="0" style="stop-color:#007F00"/>
		<stop  offset="0.5" style="stop-color:#FFFFFF"/>
		<stop  offset="1" style="stop-color:#007F00"/>
	</linearGradient>
	<path class="st0" d="M3.2,10.8c-0.1,0-0.2,0.1-0.2,0.3v91.7c0,2.3,22.5,4.2,50.2,4.2s50.2-1.9,50.2-4.2V11.1c0-0.1-0.1-0.2-0.2-0.2
		L3.2,10.8L3.2,10.8z"/>
	<ellipse class="st1" cx="53.2" cy="10.8" rx="50.2" ry="4.2"/>
	<path class="st2" d="M78.4,14.4v92.1"/>
	<path class="st3" d="M82.5,17.1h-2.1v2.1h2.1V17.1z"/>
	<path class="st3" d="M82.5,25.4h-2.1v2.1h2.1V25.4z"/>
	<path class="st3" d="M82.5,33.8h-2.1v2.1h2.1V33.8z"/>
	<path class="st3" d="M82.5,42.1h-2.1v2.1h2.1V42.1z"/>
	<path class="st3" d="M82.5,50.5h-2.1v2.1h2.1V50.5z"/>
	<path class="st3" d="M82.5,58.8h-2.1v2.1h2.1V58.8z"/>
	<path class="st3" d="M82.5,67.3h-2.1v2.1h2.1V67.3z"/>
	<path class="st3" d="M82.5,75.7h-2.1v2h2.1V75.7z"/>
	<path class="st3" d="M82.5,84h-2.1v2.1h2.1V84z"/>
	<path class="st3" d="M82.5,92.4h-2.1v2h2.1V92.4z"/>
	<path class="st3" d="M82.5,100.7h-2.1v2.1h2.1V100.7z"/>
	<path class="st2" d="M36.5,14.4v92.1"/>
	<path class="st4" d="M40.6,17.1h-2.1v2.1h2.1V17.1z"/>
	<path class="st4" d="M40.6,25.4h-2.1v2.1h2.1V25.4z"/>
	<path class="st4" d="M40.6,33.8h-2.1v2.1h2.1V33.8z"/>
	<path class="st4" d="M40.6,42.1h-2.1v2.1h2.1V42.1z"/>
	<path class="st4" d="M40.6,50.5h-2.1v2.1h2.1V50.5z"/>
	<path class="st4" d="M40.6,58.8h-2.1v2.1h2.1V58.8z"/>
	<path class="st4" d="M40.6,67.3h-2.1v2.1h2.1V67.3z"/>
	<path class="st4" d="M40.6,75.7h-2.1v2h2.1V75.7z"/>
	<path class="st4" d="M40.6,84h-2.1v2.1h2.1V84z"/>
	<path class="st4" d="M40.6,92.4h-2.1v2h2.1V92.4z"/>
	<path class="st4" d="M40.6,100.7h-2.1v2.1h2.1V100.7z"/>
	<path class="st5" d="M26.8,108.1V15.6c0-3.8,3.1-6.9,6.9-6.9l0,0c2.5,0,4.6,1.3,5.9,3.3"/>
	<path class="st5" d="M16.5,107.6V15c0-3.8,3.1-6.9,6.9-6.9l0,0c2.5,0,4.6,1.3,5.9,3.3"/>
	<line class="st6" x1="16.5" y1="17.1" x2="26.8" y2="17.1"/>
	<line class="st6" x1="16.5" y1="25" x2="26.8" y2="25"/>
	<line class="st6" x1="16.5" y1="33" x2="26.8" y2="33"/>
	<line class="st6" x1="16.5" y1="40.9" x2="26.8" y2="40.9"/>
	<line class="st6" x1="16.5" y1="48.8" x2="26.8" y2="48.8"/>
	<line class="st6" x1="16.5" y1="56.8" x2="26.8" y2="56.8"/>
	<line class="st6" x1="16.5" y1="64.7" x2="26.8" y2="64.7"/>
	<line class="st6" x1="16.5" y1="72.6" x2="26.8" y2="72.6"/>
	<line class="st6" x1="16.5" y1="80.5" x2="26.8" y2="80.5"/>
	<line class="st6" x1="16.5" y1="88.5" x2="26.8" y2="88.5"/>
	<line class="st6" x1="16.5" y1="96.4" x2="26.8" y2="96.4"/>
</g>
</svg>
