<?xml version="1.0" encoding="utf-8"?>
<!-- Generator: Adobe Illustrator 19.0.0, SVG Export Plug-In . SVG Version: 6.00 Build 0)  -->
<svg version="1.1" id="图层_1" xmlns="http://www.w3.org/2000/svg" xmlns:xlink="http://www.w3.org/1999/xlink" x="0px" y="0px"
	 viewBox="-28 1.2 50.4 106.5" style="enable-background:new -28 1.2 50.4 106.5;" xml:space="preserve">
<style type="text/css">
	.st0{fill:#329932;}
	.st1{fill:#4CA64C;}
	.st2{fill:#64B264;}
	.st3{fill:#7EBF7E;}
	.st4{fill:#98CB98;}
	.st5{fill:none;stroke:#000000;stroke-width:0.25;}
	.st6{fill:#007F00;stroke:#000000;stroke-width:0.25;}
	.st7{fill:#88C488;}
	.st8{fill:#B2D8B2;}
	.st9{fill:#D6EAD6;}
	.st10{fill:#FFFFFF;}
	.st11{fill:#006600;stroke:#000000;stroke-width:0.25;}
	.st12{stroke:#000000;stroke-width:0.25;}
	.st13{fill:#004C00;stroke:#000000;stroke-width:0.25;}
	.st14{fill:#329932;stroke:#000000;stroke-width:0.25;}
</style>
<path class="st0" d="M-18.9,24.7V14l8.6-8.4H2.5l8.6,8.4v92H2.5V16.3l-2-2.2h-8.7l-2,2.2v8.4H-18.9z"/>
<path class="st1" d="M-18.1,24.8V14.1l8.2-8H2.4l8,8.2v91.6l-7,0.1V16.4l-3.2-3.1h-8.3l-3,3v8.5H-18.1z"/>
<path class="st2" d="M-17.2,24.8V14.3l7.8-7.6H2.3l7.5,7.8V106H4.2V16.5l-4.1-4.1h-8.2l-3.7,3.8v8.5h-5.4
	C-17.2,24.7-17.2,24.8-17.2,24.8z"/>
<path class="st3" d="M-16.5,24.8V14.5L-9,7.6H2.2L9.1,15v91.1H5V16.6l-5-4.9h-8.1l-4.6,4.6v8.5H-16.5z"/>
<path class="st4" d="M-15.6,24.7v-10l7-6.5H2.1l6.4,7.1V106H5.7V16.9L-0.2,11h-8.1l-5.2,5.2v8.4L-15.6,24.7L-15.6,24.7z"/>
<path class="st5" d="M-18.9,24.7V14l8.6-8.4H2.5l8.6,8.4v92H2.5V16.3l-2-2.2h-8.7l-2,2.2v8.4H-18.9"/>
<circle class="st6" cx="11" cy="97.4" r="6.4"/>
<path class="st2" d="M-6,29.2l-4.3-4.5h-8.6l-4.2,4.5v76.9H-6V29.2z"/>
<path class="st7" d="M-7.6,29.1l-3.4-4.3h-7l-3.4,4.3v77h13.9L-7.6,29.1L-7.6,29.1z"/>
<path class="st8" d="M-9.2,29.1l-2.7-4.3h-5.3l-2.8,4.3v77h10.8V29.1z"/>
<path class="st9" d="M-10.8,29.1l-1.8-4.3h-3.8l-1.9,4.3v77h7.6L-10.8,29.1C-10.7,29.1-10.8,29.1-10.8,29.1z"/>
<path class="st10" d="M-12.4,29.2l-1.1-4.5h-2.1l-1.1,4.5v76.9h4.3C-12.4,106.1-12.4,29.2-12.4,29.2z"/>
<path class="st5" d="M-6,29.2l-4.3-4.5h-8.6l-4.2,4.5v76.9H-6V29.2"/>
<path class="st2" d="M6.9,93.1H-6v8.6H6.9V93.1z"/>
<path class="st7" d="M6.8,94H-6v6.9H6.8V94z"/>
<path class="st8" d="M6.8,94.8H-6v5.3H6.8V94.8z"/>
<path class="st9" d="M6.8,95.6H-6v3.7H6.8V95.6z"/>
<path class="st10" d="M6.9,96.3H-6v2.2H6.9V96.3z"/>
<path class="st5" d="M6.9,93.1H-6v8.6H6.9V93.1"/>
<circle class="st11" cx="-18.3" cy="39.2" r="1"/>
<path class="st12" d="M-17.9,39.2h-1V106h1.1V39.2H-17.9z"/>
<path class="st12" d="M-25.7,98.6h-1.2v7.5h1.2V98.6z"/>
<path class="st12" d="M-11.5,101.8h-14.3v1.1h14.3C-11.6,102.9-11.6,101.8-11.5,101.8z"/>
<path class="st12" d="M-25.7,55.3H2.6v1.1h-28.4L-25.7,55.3L-25.7,55.3z"/>
<path class="st12" d="M-18.9,44h-5.2v1.1h5.2C-18.9,45.1-18.9,44-18.9,44z"/>
<path class="st13" d="M13.7,98.6H8.3v7.5h5.4C13.7,106.1,13.7,98.6,13.7,98.6z"/>
<path class="st14" d="M13.7,98.6H8.3v-3.8h5.4C13.7,94.8,13.7,98.6,13.7,98.6z"/>
<path class="st5" d="M2.5,16.3l8.6-2.2"/>
<path class="st5" d="M0.5,14l1.6-8.4"/>
<path class="st5" d="M-8.3,14l-2-8.4"/>
<path class="st5" d="M-10.3,16.3l-8.6-2.2"/>
<path class="st5" d="M-6,29.2h-17.1"/>
<path class="st14" d="M11.7,54.6H2.1v2.2h9.6C11.7,56.8,11.7,54.6,11.7,54.6z"/>
<path class="st14" d="M11.7,87.9H2.1v2h9.6C11.7,89.9,11.7,87.9,11.7,87.9z"/>
<path class="st14" d="M-23.1,41.9h-2.2v8.6h2.2V41.9z"/>
<path class="st14" d="M-23.1,84.7h-2.2v8.4h2.2V84.7z"/>
</svg>
