<?xml version="1.0" encoding="utf-8"?>
<!-- Generator: Adobe Illustrator 19.0.0, SVG Export Plug-In . SVG Version: 6.00 Build 0)  -->
<svg version="1.1" id="图层_1" xmlns="http://www.w3.org/2000/svg" xmlns:xlink="http://www.w3.org/1999/xlink" x="0px" y="0px"
	 viewBox="18 18.6 144.7 71.1" style="enable-background:new 18 18.6 144.7 71.1;" xml:space="preserve">
<style type="text/css">
	.st0{fill:#006600;stroke:#000000;stroke-width:0.25;}
	.st1{fill:#006100;}
	.st2{fill:#005900;}
	.st3{fill:none;stroke:#999999;stroke-width:0.25;}
	.st4{fill:none;stroke:#333333;stroke-width:0.25;}
</style>
<path class="st0" d="M146.9,87.9l14.8-2.9l2.9-2.8l-9-9l-11.7-6.1l-5.9-8.7l-14.8-9l-6.1-12l-14.6-8.8l-9-2.9l-14.8,2.9l-6,6.1
	l-9,5.7L51.9,54.6l-12,9.6l-5.8,9.1l-5.9,5.9l6.8,3.6L45.9,85l22.5,2.2l26.7-0.6l26.5,2.2L146.9,87.9z"/>
<path class="st1" d="M124.5,87.9l12.6-1.3l-2.8-5.9l-8.1-4.5L111.9,65l-6.5-9.6l-4.6-5.9l-7.4-12l-6-2.8l-7.1,3.5l-11.7,2.5
	l-4.9,4.6L57,54.6l-7.5,9.5l-12,4.9l-4.8,7.1l-1.2,4.2l5.5,2.5l13.3,1.6l22.2,2.2l14.8-0.7l12.8,0.7L124.5,87.9z"/>
<path class="st2" d="M80.9,82l-5.2-2.2l5.2-5.2l5.1-3.5l1.4-11.3l5.9-9l-5.9-10.4l-5.2,4.7l-9.6,2l-3.3,3.6l-3.5,3.6l0.7,9.3
	l-7.2,1.3l-11.3,9l-0.4,7.4l8.1,2.5l16.7,1.6L92.1,85L80.9,82z"/>
<path class="st3" d="M54.1,68.8l-1.4-1.6l-3,1.6"/>
<path class="st3" d="M43.7,64.1l1.6-1.3l3,1.3"/>
<path class="st3" d="M55.7,61.5l-1.6-1.7l-3,1.7"/>
<path class="st3" d="M60,67.2l-1.3-1.3l-3,1.3"/>
<path class="st3" d="M49.6,65l1.4-1.3l3,1.3"/>
<path class="st3" d="M135.7,77l-1.4-1.6l-3,1.6"/>
<path class="st3" d="M125.4,72.4l1.3-1.3l3,1.3"/>
<path class="st3" d="M137.1,69.3l-1.3-1.3l-3,1.3"/>
<path class="st3" d="M141.7,75.4l-1.6-1.4l-3,1.4"/>
<path class="st3" d="M131.2,73.3l1.4-1.7l3,1.7"/>
<path class="st3" d="M94.2,36.9l-1.3-1.7l-3,1.7"/>
<path class="st3" d="M83.7,32.5l1.4-1.7l3,1.7"/>
<path class="st3" d="M95.5,29.5l-1.3-1.6l-3,1.6"/>
<path class="st3" d="M100.2,35.2l-1.6-1.3l-3,1.3"/>
<path class="st3" d="M89.9,33.1l1.3-1.4l3,1.4"/>
<path class="st3" d="M109.7,47.2l-1.3-1.6l-3,1.6"/>
<path class="st3" d="M99.4,42.8l1.3-1.6l3,1.6"/>
<path class="st3" d="M111.2,39.8l-1.4-1.6l-2.9,1.6"/>
<path class="st3" d="M115.7,45.6l-1.6-1.3l-3,1.3"/>
<path class="st3" d="M105.4,43.4l1.4-1.3l2.9,1.3"/>
<path class="st4" d="M82.2,62l-1.3-1.3l-3,1.3"/>
<path class="st4" d="M71.7,57.6l1.7-1.3l2.9,1.3"/>
<path class="st4" d="M83.7,54.6l-1.6-1.3l-3,1.3"/>
<path class="st4" d="M88.2,60.7l-1.5-1.6l-3,1.6"/>
<path class="st4" d="M77.9,58.5l1.3-1.6l3,1.6"/>
<path class="st4" d="M68.3,81.4l-1.7-1.6l-2.9,1.6"/>
<path class="st4" d="M57.9,77l1.4-1.6l2.9,1.6"/>
<path class="st4" d="M69.6,74l-1.3-1.6l-3,1.6"/>
<path class="st4" d="M74.2,79.8l-1.6-1.3l-3,1.3"/>
<path class="st4" d="M63.7,77.6l1.6-1.4l3,1.4"/>
</svg>
