<?xml version="1.0" encoding="utf-8"?>
<!-- Generator: Adobe Illustrator 19.0.0, SVG Export Plug-In . SVG Version: 6.00 Build 0)  -->
<svg version="1.1" id="图层_1" xmlns="http://www.w3.org/2000/svg" xmlns:xlink="http://www.w3.org/1999/xlink" x="0px" y="0px"
	 viewBox="-34 1.2 39 106.5" style="enable-background:new -34 1.2 39 106.5;" xml:space="preserve">
<style type="text/css">
	.st0{fill:#CAE4CA;stroke:#000000;stroke-width:0.25;}
	.st1{fill:#FFFFFF;stroke:#000000;stroke-width:0.25;}
	.st2{fill:#98CB98;stroke:#000000;stroke-width:0.25;}
	.st3{fill:#005500;stroke:#000000;stroke-width:0.25;}
	.st4{fill:#003300;stroke:#000000;stroke-width:0.25;}
	.st5{fill:#64B264;stroke:#000000;stroke-width:0.25;}
	.st6{fill:#004C00;}
	.st7{fill:none;}
</style>
<path class="st0" d="M-16.8,39.9h-1.1v5.5h1.1C-16.7,45.4-16.7,39.9-16.8,39.9z"/>
<path class="st1" d="M-13.4,39.9h-3.3v5.5h3.3C-13.3,45.4-13.3,39.9-13.4,39.9z"/>
<path class="st2" d="M-11.2,39.9h-2.2v5.5h2.2V39.9z"/>
<path class="st2" d="M-15.6,48.8h-1.2V106h1.2V48.8z"/>
<path class="st2" d="M-12.9,45.5h1.2v3.3h-1.2V45.5z"/>
<path class="st3" d="M-0.1,18.5H-29V6.1h28.9C-0.1,6.1-0.1,18.5-0.1,18.5z"/>
<path class="st3" d="M-4.2,7.1H-25v5.1h20.7C-4.3,12.2-4.3,7.1-4.2,7.1z"/>
<circle class="st3" cx="-14.6" cy="24.7" r="16.2"/>
<circle class="st4" cx="-14.5" cy="24.7" r="10.3"/>
<path class="st5" d="M-7.3,27.2h-14.4v-5.1h14.4C-7.4,22.1-7.4,27.2-7.3,27.2z"/>
<path class="st5" d="M-12.3,48.8h-1.2V106h1.2V48.8z"/>
<path class="st3" d="M-14.5,11.4c6.8,0,12.5,5.1,13.3,11.8H2c-0.8-8.4-7.9-15-16.5-15s-15.7,6.6-16.5,15h3.3
	C-27,16.5-21.4,11.4-14.5,11.4z"/>
<path class="st6" d="M-12.5,20.8h-4.2v-3.7h4.2C-12.5,17.1-12.5,20.8-12.5,20.8z"/>
<path class="st3" d="M-13.7,11.3h-1.6V5.6h1.6C-13.6,5.6-13.6,11.3-13.7,11.3z"/>
<path class="st0" d="M-17.3,45.5h1.1v3.3h-1.1V45.5z"/>
<path class="st0" d="M-13.4,48.8h-2.1V106h2.1V48.8z"/>
<path class="st2" d="M-11.7,82.4h-1.2v2.8h1.2V82.4z"/>
<path class="st2" d="M-11.7,78.5h-1.2v2.8h1.2V78.5z"/>
<path class="st0" d="M-16.3,82.4h-1.1v2.8h1.1C-16.2,85.2-16.2,82.4-16.3,82.4z"/>
<path class="st0" d="M-16.3,78.5h-1.1v2.8h1.1C-16.2,81.3-16.2,78.5-16.3,78.5z"/>
<path class="st1" d="M-12.9,45.5h-3.3v3.3h3.3C-12.8,48.8-12.8,45.5-12.9,45.5z"/>
<path class="st1" d="M-12.9,78.5h-3.3v2.8h3.3C-12.8,81.3-12.8,78.5-12.9,78.5z"/>
<path class="st1" d="M-12.9,82.4h-3.3v2.8h3.3C-12.8,85.2-12.8,82.4-12.9,82.4z"/>
<path class="st1" d="M-29,7.1l-2,0.6v5.4l2,0.6V7.1z"/>
<path class="st1" d="M-0.1,13.8L2,13.2V7.7l-2.1-0.6C-0.1,7.1-0.1,13.8-0.1,13.8z"/>
<path d="M-17.8,45.5V45h6.6v1h-6.6V45.5z"/>
<path class="st7" d="M-14.5,11.4c-6.8,0-12.5,5.1-13.3,11.8h26.5C-2.1,16.5-7.7,11.4-14.5,11.4z"/>
<path class="st7" d="M-14.5,38.1C-7.7,38.1-2,33-1.2,26.3h-26.5C-27,32.9-21.4,38.1-14.5,38.1z"/>
<path class="st3" d="M-14.5,38.1c-6.8,0-12.5-5.1-13.3-11.8H-31c0.8,8.4,7.9,15,16.5,15S1.2,34.7,2,26.3h-3.3
	C-2.1,32.9-7.7,38.1-14.5,38.1z"/>
</svg>
