<?xml version="1.0" encoding="utf-8"?>
<!-- Generator: Adobe Illustrator 19.0.0, SVG Export Plug-In . SVG Version: 6.00 Build 0)  -->
<svg version="1.1" id="图层_1" xmlns="http://www.w3.org/2000/svg" xmlns:xlink="http://www.w3.org/1999/xlink" x="0px" y="0px"
	 viewBox="-9 1.2 88.2 106.5" style="enable-background:new -9 1.2 88.2 106.5;" xml:space="preserve">
<style type="text/css">
	.st0{fill:#98CB98;stroke:#000000;stroke-width:0.5;}
	.st1{fill:#64B264;stroke:#000000;stroke-width:0.5;}
	.st2{fill:#B2D8B2;stroke:#000000;stroke-width:0.5;}
	.st3{fill:#64B264;}
	.st4{fill:#98CB98;}
	.st5{fill:#CAE4CA;}
	.st6{fill:none;stroke:#000000;stroke-width:0.5;}
	.st7{fill:#329932;stroke:#000000;stroke-width:0.5;}
	.st8{fill:#007F00;stroke:#000000;stroke-width:0.5;}
	.st9{fill:#4CA64C;}
	.st10{fill:#329932;}
	.st11{fill:#188C18;}
	.st12{fill:#007F00;}
	.st13{fill:#006600;stroke:#000000;stroke-width:0.5;}
	.st14{fill:#004000;}
	.st15{fill:#004C00;}
</style>
<path class="st0" d="M13.3,55.2h50.2v50.2H13.3V55.2z"/>
<path class="st1" d="M15.3,57.2h45.9v44H15.3V57.2z"/>
<path class="st2" d="M9.5,46.2H-0.6V11.8h23.9h20.4l3.5,0.1l3.4,0.5l3.3,0.9l3.1,1.2l3.1,1.5l2.8,1.7l2.7,2l2.5,2.1l2.2,2.5l1.9,2.7
	l1.7,2.8l1.4,3l1.2,3.2l0.9,3.2l0.5,3.5l0.1,1.7l0.1,1.7l-0.1,1.8l-0.3,3.4l-0.6,3.3l-1.2,3.3l-1.3,3l-1.6,3l-1.9,2.7l-2,2.6
	l-2.3,2.3l-2.6,2.1l-2.8,1.8L58.5,77l-3.1,1.3l-3.2,1.1l-3.3,0.5l-3.4,0.3l-1.8,0.1h-0.9L39.4,80L36,79.4l-3.2-0.9l-3.1-1.3l-3-1.5
	L23.9,74l-2.6-2l-2.2-2.2l-2.2-2.6l-1.8-2.7l-1.7-2.9l-1.4-3l-1.1-3.2l-0.7-3.3l-0.4-3.4L9.5,46.2z"/>
<path class="st3" d="M9.5,46.2H-0.6V25.5l20.3-3.4l-1.2,1.2l-1.1,1.3l-1.1,1.2l-1,1.3l-1,1.4L13.6,30l-0.7,1.5L12.2,33l-0.5,1.6
	l-0.5,1.6l-0.6,1.6l-0.4,1.6l-0.3,1.7l-0.1,1.6l-0.1,1.7v1.8C9.7,46.2,9.5,46.2,9.5,46.2z"/>
<path class="st4" d="M-4.1,53V5h3.4v48H-4.1z"/>
<path class="st3" d="M-4.1,53V37.5h3.4V53H-4.1z"/>
<path class="st5" d="M-4.1,15.2V5h3.4v10.2H-4.1z"/>
<path class="st6" d="M-4.1,53V5h3.4v48H-4.1"/>
<path class="st7" d="M11,101.3h54.5v4.2H11V101.3z"/>
<circle class="st8" cx="43.9" cy="46" r="27.5"/>
<circle class="st3" cx="43.9" cy="46" r="20"/>
<circle class="st9" cx="44" cy="46" r="18"/>
<circle class="st10" cx="44" cy="45.9" r="15.9"/>
<circle class="st11" cx="44.2" cy="46" r="13.9"/>
<circle class="st12" cx="44.4" cy="46" r="11.7"/>
<circle class="st13" cx="43.7" cy="46" r="10.2"/>
<path class="st14" d="M46.4,44.6l5.2-2.8L51,40.7l-1-0.9l-0.9-0.9l-1-0.6l-0.9-0.5L46,37.5l-1.1-0.3l-1.2-0.1v6.1l1.2,0.2l1,0.6
	L46.4,44.6z"/>
<path class="st14" d="M42.4,43.4l-3-5l-1,0.6l-0.9,0.8l-0.7,1l-0.6,1l-0.5,1.1l-0.5,0.9L34.9,45l-0.1,1.2h5.9l0.2-1.3l0.7-1
	L42.4,43.4z"/>
<path class="st14" d="M41.2,47.5l-5,2.9l0.6,1l0.7,1l1,0.7l1,0.6l1,0.5l1.1,0.4l1.1,0.2l1.1,0.1V49l-1.1-0.2l-1-0.6L41.2,47.5z"/>
<path class="st14" d="M45.2,48.8l2.9,5l1-0.6l1-0.9l0.7-0.9l0.6-1l0.5-1.1l0.3-1.2l0.2-1.1v-0.6v-0.6h-5.7l-0.3,1.3L46,48.3
	L45.2,48.8z"/>
<path class="st15" d="M43,70.9v-1.6h1.7v1.6H43z"/>
<path class="st15" d="M66,46.2h1.8v1.6H66V46.2z"/>
<path class="st15" d="M43,24.6v-1.7h1.7v1.7H43z"/>
<path class="st15" d="M19.7,46.2h1.8v1.6h-1.8V46.2z"/>
<path class="st15" d="M53.4,88.8l-0.9-0.4l-0.2-0.9l0.2-0.5l0.9-0.4l0.7,0.4l0.2,0.5l-0.2,0.9L53.4,88.8z"/>
<path class="st15" d="M53.4,97l-0.9-0.2l-0.2-0.7l0.2-0.9l0.9-0.2l0.7,0.2l0.2,0.9l-0.1,0.7L53.4,97z"/>
</svg>
