<?xml version="1.0" encoding="utf-8"?>
<!-- Generator: Adobe Illustrator 15.1.0, SVG Export Plug-In . SVG Version: 6.00 Build 0)  -->
<!DOCTYPE svg PUBLIC "-//W3C//DTD SVG 1.1//EN" "http://www.w3.org/Graphics/SVG/1.1/DTD/svg11.dtd">
<svg version="1.1" id="Layer_1" xmlns="http://www.w3.org/2000/svg" preserveAspectRatio="none"   x="0px" y="0px"
	   viewBox="0 0 152 115" enable-background="new 0 0 152 115" xml:space="preserve" xmlns:agg="http://www.example.com">

<agg:params>
	<agg:param type="C" name="color" description="Color" cssAttributes="fill" classes="color"/>
</agg:params>
	 
<style type="text/css" >
   <![CDATA[

	.stroke,.thin,.thick{
		stroke-linecap:butt;
		stroke-linejoin:round;
		stroke: black;
		fill:none;
		opacity:0.5;
	}

	.stroke{stroke-width:0.5;}

	.thin {stroke-width:0.25;}

	.thick {stroke-width:0.75;}
	
	.color {
		fill:#F26700;
		opacity:1;
	}

      ]]>
</style>	 
	 
<path fill="#B2B2B2" d="M81,20.554l7.202,12.468l-0.041,0.058c-0.357,0-0.708,0.023-1.07,0.07c-2.938,0.356-5.384,2.06-6.781,4.423
	h-0.105l-2.112-3.652l-5.079-8.787l-0.006-0.006C75.271,23.126,77.963,21.545,81,20.554z"/>
<path fill="#B2B2B2" d="M80.263,46.756l-0.006,0.012H65.77c-0.638-3.116-0.603-6.237,0.012-9.195h0.006h14.417l0.053,0.093
	c-0.948,1.651-1.394,3.606-1.146,5.642C79.262,44.563,79.665,45.724,80.263,46.756z"/>
<path fill="#B2B2B2" d="M88.161,51.336l0.023,0.053l-7.22,12.469c-2.926-0.975-5.629-2.532-7.945-4.574l3.609-6.243l3.628-6.272
	h0.012C81.859,49.527,84.85,51.331,88.161,51.336z"/>
<path fill="#B2B2B2" d="M95.399,63.863l-7.215-12.475l0.035-0.053c0.356,0,0.714-0.023,1.076-0.07c2.967-0.355,5.43-2.1,6.822-4.498
	h0.023l7.227,12.521v0.005C101.109,61.29,98.424,62.865,95.399,63.863z"/>
<path fill="#B2B2B2" d="M110.6,37.573c0.649,3.116,0.626,6.231,0.018,9.195H96.142L96.13,46.75c0.948-1.65,1.393-3.605,1.147-5.642
	c-0.152-1.249-0.551-2.41-1.142-3.437l0.059-0.099H110.6z"/>
<path fill="#B2B2B2" d="M103.385,25.145l-1.387,2.404l-5.804,10.024h-0.116c-1.604-2.713-4.564-4.48-7.841-4.493l-0.035-0.058
	l5.728-9.913l1.475-2.555C98.348,21.528,101.063,23.091,103.385,25.145z"/>
<path fill="#CCCBCB" d="M88.161,33.08c0.029,0,0.053,0,0.076,0c3.276,0.012,6.237,1.779,7.841,4.493
	c0.017,0.035,0.04,0.064,0.058,0.099c0.591,1.026,0.989,2.188,1.142,3.437c0.245,2.036-0.199,3.991-1.147,5.642
	c-0.006,0.006-0.006,0.012-0.012,0.018c-1.393,2.398-3.855,4.142-6.822,4.498c-0.362,0.047-0.72,0.07-1.076,0.07
	c-0.023,0-0.041,0-0.059,0c-3.312-0.005-6.302-1.809-7.893-4.568c-0.006-0.006-0.006-0.006-0.006-0.012
	c-0.598-1.033-1.001-2.194-1.152-3.448c-0.247-2.036,0.198-3.991,1.146-5.642c0.017-0.035,0.035-0.064,0.053-0.093
	c1.397-2.363,3.844-4.066,6.781-4.423C87.453,33.104,87.804,33.08,88.161,33.08z"/>
<path fill="#CCCBCB" d="M123.36,39.311c-1.475-18.087-16.651-32.3-35.17-32.3c-5.874,0-11.415,1.43-16.289,3.968
	c-9.631,5.006-16.657,14.317-18.513,25.375c-0.321,1.908-0.485,3.863-0.485,5.858c0,4.655,0.907,9.096,2.551,13.163
	c0.954,2.352,2.153,4.58,3.569,6.651c6.349,9.283,17.044,15.379,29.167,15.379c0.784,0,1.563-0.022,2.329-0.08
	c18.412-1.191,32.964-16.46,32.964-35.113C123.483,41.237,123.442,40.268,123.36,39.311z M110.617,46.768
	c-0.995,4.836-3.546,9.248-7.249,12.526c-2.259,1.996-4.944,3.571-7.969,4.569c-0.375,0.122-0.75,0.238-1.136,0.345
	c-4.54,1.248-9.145,1.032-13.299-0.351c-2.926-0.975-5.629-2.532-7.945-4.574c-1.668-1.465-3.137-3.191-4.324-5.135
	c-1.106-1.791-1.978-3.764-2.563-5.887c-0.141-0.496-0.257-0.992-0.362-1.494c-0.638-3.116-0.603-6.237,0.012-9.195
	c0.182-0.852,0.41-1.686,0.685-2.509c1.258-3.81,3.511-7.247,6.541-9.937c2.265-2.001,4.956-3.582,7.993-4.574v-0.006
	c0.368-0.123,0.743-0.234,1.123-0.338c1.702-0.468,3.411-0.729,5.102-0.8c2.82-0.122,5.582,0.28,8.18,1.144
	c2.943,0.974,5.658,2.538,7.98,4.591c1.838,1.622,3.43,3.548,4.676,5.735l0.005,0.006c0.931,1.623,1.668,3.384,2.188,5.269
	c0.129,0.472,0.246,0.945,0.346,1.417C111.249,40.688,111.226,43.804,110.617,46.768z"/>
<path fill="#979797" d="M80.257,46.768l-3.628,6.272l-7.934,1.108c-1.106-1.791-1.978-3.764-2.563-5.887
	c-0.141-0.496-0.257-0.992-0.362-1.494H80.257z"/>
<path fill="#979797" d="M80.204,37.573H65.787h-0.006c0.182-0.852,0.41-1.686,0.685-2.509l11.626-1.144L80.204,37.573z"/>
<path fill="#979797" d="M55.454,55.374l-1.105,0.536H16.323l-6.12-15.304l43.186-4.253c-0.321,1.908-0.485,3.863-0.485,5.858
	C52.903,46.867,53.811,51.308,55.454,55.374z"/>
<path fill="#676767" d="M54.349,62.025h4.675c6.349,9.283,17.044,15.379,29.167,15.379c0.784,0,1.563-0.022,2.329-0.08v12.183
	H53.056v-9.149h3.036v-6.108h-3.036V62.025H54.349z"/>
<rect x="10.203" y="80.357" fill="#979797"  />
<rect x="10.203" y="62.025" fill="#979797"  />
<polygon fill="#CCCBCB" points="54.349,55.91 54.349,62.025 53.056,62.025 10.203,62.025 7.12,62.025 7.12,55.91 16.323,55.91 "/>
<polygon fill="#CCCBCB" points="56.092,74.249 56.092,80.357 53.056,80.357 10.203,80.357 7.12,80.357 7.12,74.249 10.203,74.249 
	53.056,74.249 "/>
<rect x="104.28" y="90.281" fill="#B2B2B2"  />
<rect x="92.824" y="90.281" fill="#B2B2B2"  />
<polygon fill="#CCCBCB" points="104.28,94.88 104.28,97.179 99.775,97.179 99.775,94.88 99.775,90.281 99.775,87.989 104.28,87.989 
	104.28,90.281 "/>
<path fill="#333333" d="M138.069,68.869c-1.387-1.389-3.306-2.252-5.43-2.252h-0.006c-2.123,0-4.043,0.857-5.43,2.252
	c-1.387,1.383-2.241,3.297-2.241,5.402c0,2.106,0.861,4.021,2.241,5.403c1.387,1.395,3.307,2.252,5.43,2.252h0.006
	c2.124,0,4.043-0.863,5.43-2.252c1.381-1.383,2.241-3.297,2.241-5.403C140.311,72.166,139.45,70.252,138.069,68.869z"/>
<path fill="#979797" d="M132.634,61.237c7.221,0,13.071,5.841,13.071,13.034c0,7.194-5.851,13.035-13.071,13.029
	c-7.214,0-13.064-5.835-13.064-13.029C119.569,67.078,125.42,61.237,132.634,61.237z M140.311,74.271c0-2.105-0.86-4.02-2.241-5.402
	c-1.387-1.389-3.306-2.252-5.43-2.252h-0.006c-2.123,0-4.043,0.857-5.43,2.252c-1.387,1.383-2.241,3.297-2.241,5.402
	c0,2.106,0.861,4.021,2.241,5.403c1.387,1.395,3.307,2.252,5.43,2.252h0.006c2.124,0,4.043-0.863,5.43-2.252
	C139.45,78.292,140.311,76.378,140.311,74.271z"/>
<path fill="#676767" d="M147.917,72.614v3.321c-0.463,4.294-2.703,8.058-5.974,10.536c-2.147,1.635-4.746,2.714-7.571,3.029
	c-0.567,0.064-1.153,0.099-1.738,0.099s-1.164-0.034-1.731-0.099c-2.826-0.315-5.418-1.395-7.571-3.029
	c-3.687-2.801-6.067-7.223-6.067-12.2c0-8.466,6.881-15.327,15.37-15.327C140.567,58.944,147.092,64.931,147.917,72.614z
	 M145.705,74.271c0-7.193-5.851-13.034-13.071-13.034c-7.214,0-13.064,5.841-13.064,13.034c0,7.194,5.851,13.029,13.064,13.029
	C139.854,87.307,145.705,81.466,145.705,74.271z"/>
<rect x="138.76" y="95.614" fill="#676767"  />
<rect x="114.273" y="95.614" fill="#676767"  />
<rect x="72.937" y="95.614" fill="#676767"  />
<rect x="23.965" y="95.614" fill="#676767"  />
<path fill="#CCCBCB" d="M151,89.507v6.107h-3.083h-9.157h-15.329h-9.157h-3.083V94.88v-4.599v-0.774h9.203h10.509v-0.006
	c0.567,0.064,1.146,0.099,1.731,0.099s1.171-0.034,1.738-0.099v0.006h10.508h3.037H151z"/>
<path fill="#CCCBCB" d="M7.12,95.614c0-2.111,0-4.142,0-6.107h3.083h42.853H90.52h2.305v0.774v4.599v0.734h-10.73h-9.157H33.121
	h-9.156H7.12z"/>
<polygon fill="#CCCBCB" points="147.917,104.811 147.917,114 1,114 1,104.811 23.965,104.811 33.121,104.811 72.937,104.811 
	82.094,104.811 114.273,104.811 123.431,104.811 138.76,104.811 "/>
<path fill="#F47E20" d="M7.12,37.573c-0.064-12.819,7.372-25.305,18.366-31.67c10.999-6.366,25.557-6.617,36.726-0.257
	c3.23,1.78,6.46,3.553,9.689,5.333c-9.631,5.006-16.657,14.317-18.513,25.375l-43.186,4.253l6.12,15.304H7.12
	C7.12,50.298,7.12,44.358,7.12,37.573z"/>
	<path fill="#333333" d="M130.902,89.501v0.006h-10.509v-0.006v-3.029h2.938C125.484,88.106,128.076,89.186,130.902,89.501z"/>
<path fill="#333333" d="M144.88,89.501v0.006h-10.508v-0.006c2.825-0.315,5.424-1.395,7.571-3.029h2.937V89.501z"/>

<g class="color">
	<path d="M7.12,80.357h3.083v9.149H7.12C7.12,86.303,7.12,83.275,7.12,80.357z"/>
	<path d="M7.12,74.249c0-4.138,0-8.14,0-12.224h3.083v12.224H7.12z"/>

	<path d="M73.013,25.133l5.079,8.787l-11.626,1.144c1.258-3.81,3.511-7.247,6.541-9.937L73.013,25.133z"/>
	<path d="M76.629,53.04l-3.609,6.243c-1.668-1.465-3.137-3.191-4.324-5.135L76.629,53.04z"/>
	<path d="M88.185,51.389l7.215,12.475c-0.375,0.122-0.75,0.238-1.136,0.345c-4.54,1.248-9.145,1.032-13.299-0.351
		L88.185,51.389z"/>
	<path d="M96.142,46.768h14.476c-0.995,4.836-3.546,9.248-7.249,12.526v-0.005L96.142,46.768z"/>
	<path d="M93.93,23.109l-5.728,9.913L81,20.554v-0.006c0.368-0.123,0.743-0.234,1.123-0.338
		c1.702-0.468,3.411-0.729,5.102-0.8v0.006L93.93,23.109z"/>
	<path d="M110.254,36.155c0.129,0.472,0.246,0.945,0.346,1.417H96.194l5.804-10.024l6.063,3.332l0.005,0.006
		C108.996,32.509,109.733,34.271,110.254,36.155z"/>
	<path d="M147.917,75.936v13.571h-3.037v-0.006v-3.029h-2.937C145.214,83.993,147.454,80.229,147.917,75.936z"/>
	<path d="M147.917,52.83v19.784c-0.825-7.684-7.35-13.67-15.283-13.67c-8.489,0-15.37,6.861-15.37,15.327
		c0,4.978,2.381,9.399,6.067,12.2h-2.938v3.029v0.006h-9.203v0.774h-6.91v-2.292h-4.505v2.292h-6.951v-0.774H90.52V77.324
		c18.412-1.191,32.964-16.46,32.964-35.113c0-0.974-0.041-1.943-0.123-2.9h0.006L147.917,52.83z"/>
	<path d="M55.454,55.374c0.954,2.352,2.153,4.58,3.569,6.651h-4.675V55.91L55.454,55.374z"/>
</g>
	
<g class="stroke">
	<path d="M7.12,55.91
		c0-5.612,0-11.552,0-18.337c-0.064-12.819,7.372-25.305,18.366-31.67c10.999-6.366,25.557-6.617,36.726-0.257
		c3.23,1.78,6.46,3.553,9.689,5.333c0.006,0,0.006,0.006,0.012,0.006"/>
	<path d="M7.12,74.249
		c0-4.138,0-8.14,0-12.224"/>
	<path d="M7.12,95.614
		c0-2.111,0-4.142,0-6.107c0-3.204,0-6.231,0-9.149"/>
	<polyline points="
		123.366,39.311 147.917,52.83 147.917,72.614 147.917,75.936 147.917,89.507 	"/>
	<polyline points="
		88.161,33.086 88.161,33.08 88.202,33.022 93.93,23.109 95.404,20.554 	"/>
	<polyline points="
		103.385,25.145 101.998,27.549 96.194,37.573 96.136,37.672 	"/>
	<polyline points="
		96.078,37.573 96.194,37.573 110.6,37.573 	"/>
	<polyline points="
		96.13,46.75 96.142,46.768 103.368,59.289 	"/>
	<polyline points="
		88.22,51.331 88.22,51.336 88.185,51.389 80.965,63.857 	"/>
	<polyline points="
		95.399,63.863 88.185,51.389 88.161,51.336 88.155,51.331 	"/>
	<polyline points="
		73.02,59.283 76.629,53.04 80.257,46.768 80.263,46.756 	"/>
	<polyline points="
		65.787,37.573 80.204,37.573 80.31,37.573 	"/>
	<polyline points="
		80.257,37.666 80.204,37.573 78.092,33.92 73.013,25.133 	"/>
	<polyline points="81,20.554 
		88.202,33.022 88.237,33.08 88.237,33.086 	"/>
	<polyline points="
		53.396,36.354 53.389,36.354 10.203,40.606 16.323,55.91 	"/>
	
		<line x1="68.695" y1="54.148" x2="76.629" y2="53.04"/>
	
		<line x1="78.092" y1="33.92" x2="66.466" y2="35.064"/>
	<polyline points="
		110.617,46.768 96.142,46.768 96.118,46.768 	"/>
	<polyline points="
		80.269,46.768 80.257,46.768 65.77,46.768 	"/>
	<polyline points="
		7.12,89.507 10.203,89.507 53.056,89.507 90.52,89.507 92.824,89.507 92.824,90.281 92.824,94.88 92.824,95.614 82.094,95.614 
		72.937,95.614 33.121,95.614 23.965,95.614 7.12,95.614 	"/>
	<polyline points="
		120.394,89.501 120.394,86.472 123.331,86.472 	"/>
	<polyline points="
		141.943,86.472 144.88,86.472 144.88,89.501 	"/>
	
		<line x1="90.52" y1="77.324" x2="90.52" y2="89.507"/>
	
		<line x1="54.349" y1="62.025" x2="59.023" y2="62.025"/>
	<polygon points="7.12,55.91 
		16.323,55.91 54.349,55.91 54.349,62.025 53.056,62.025 10.203,62.025 7.12,62.025 	"/>
	<polyline points="
		130.902,89.507 120.394,89.507 111.19,89.507 111.19,90.281 111.19,94.88 111.19,95.614 114.273,95.614 123.431,95.614 
		138.76,95.614 147.917,95.614 151,95.614 151,89.507 147.917,89.507 144.88,89.507 134.372,89.507 	"/>
	
		<line x1="82.094" y1="95.614" x2="82.094" y2="104.811"/>
	
		<line x1="72.937" y1="104.811" x2="72.937" y2="95.614"/>
	
		<line x1="23.965" y1="104.811" x2="23.965" y2="95.614"/>
	
		<line x1="33.121" y1="95.614" x2="33.121" y2="104.811"/>
	
		<line x1="53.056" y1="74.249" x2="53.056" y2="62.025"/>
	
		<line x1="53.056" y1="89.507" x2="53.056" y2="80.357"/>
	
		<line x1="10.203" y1="74.249" x2="10.203" y2="62.025"/>
	
		<line x1="10.203" y1="89.507" x2="10.203" y2="80.357"/>
	
		<line x1="104.28" y1="90.281" x2="111.19" y2="90.281"/>
	
		<line x1="92.824" y1="90.281" x2="99.775" y2="90.281"/>
	
		<line x1="99.775" y1="94.88" x2="92.824" y2="94.88"/>
	
		<line x1="111.19" y1="94.88" x2="104.28" y2="94.88"/>
	
		<line x1="114.273" y1="104.811" x2="114.273" y2="95.614"/>
	
		<line x1="123.431" y1="95.614" x2="123.431" y2="104.811"/>
	
		<line x1="138.76" y1="104.811" x2="138.76" y2="95.614"/>
	
		<line x1="147.917" y1="95.614" x2="147.917" y2="104.811"/>
	<path d="M88.22,51.336
		c0.356,0,0.714-0.023,1.076-0.07c2.967-0.355,5.43-2.1,6.822-4.498c0.006-0.006,0.006-0.012,0.012-0.018
		c0.948-1.65,1.393-3.605,1.147-5.642c-0.152-1.249-0.551-2.41-1.142-3.437c-0.018-0.035-0.041-0.064-0.058-0.099
		c-1.604-2.713-4.564-4.48-7.841-4.493c-0.023,0-0.047,0-0.076,0c-0.357,0-0.708,0.023-1.07,0.07
		c-2.938,0.356-5.384,2.06-6.781,4.423c-0.018,0.029-0.036,0.058-0.053,0.093c-0.948,1.651-1.394,3.606-1.146,5.642
		c0.151,1.254,0.555,2.416,1.152,3.448c0,0.006,0,0.006,0.006,0.012c1.591,2.759,4.581,4.563,7.893,4.568
		C88.179,51.336,88.196,51.336,88.22,51.336z"/>
	<path d="M108.061,30.88
		c-1.246-2.188-2.838-4.113-4.676-5.735c-2.322-2.054-5.037-3.617-7.98-4.591c-2.598-0.864-5.359-1.266-8.18-1.144
		c-1.69,0.07-3.399,0.332-5.102,0.8c-0.38,0.104-0.755,0.215-1.123,0.338v0.006c-3.037,0.992-5.729,2.573-7.993,4.574
		c-3.03,2.69-5.283,6.126-6.541,9.937c-0.274,0.823-0.503,1.657-0.685,2.509c-0.614,2.958-0.649,6.08-0.012,9.195
		c0.105,0.502,0.222,0.998,0.362,1.494c0.586,2.123,1.457,4.096,2.563,5.887c1.188,1.943,2.656,3.67,4.324,5.135
		c2.316,2.042,5.02,3.6,7.945,4.574c4.154,1.383,8.759,1.599,13.299,0.351c0.386-0.106,0.761-0.223,1.136-0.345
		c3.024-0.998,5.71-2.573,7.969-4.569c3.703-3.278,6.254-7.689,7.249-12.526c0.608-2.964,0.632-6.08-0.018-9.195
		c-0.1-0.473-0.217-0.945-0.346-1.417c-0.521-1.885-1.258-3.646-2.188-5.269"/>
	<path d="M97.827,15.646
		c-14.715-5.304-30.951,2.287-36.27,16.955C56.238,47.275,63.851,63.466,78.56,68.77c14.716,5.304,30.952-2.287,36.271-16.955
		C120.148,37.141,112.536,20.95,97.827,15.646z"/>
	<path d="M123.36,39.311
		c-1.475-18.087-16.651-32.3-35.17-32.3c-5.874,0-11.415,1.43-16.289,3.968c-9.631,5.006-16.657,14.317-18.513,25.375
		c-0.321,1.908-0.485,3.863-0.485,5.858c0,4.655,0.907,9.096,2.551,13.163c0.954,2.352,2.153,4.58,3.569,6.651
		c6.349,9.283,17.044,15.379,29.167,15.379c0.784,0,1.563-0.022,2.329-0.08c18.412-1.191,32.964-16.46,32.964-35.113
		C123.483,41.237,123.442,40.268,123.36,39.311z"/>
	<polygon points="
		23.965,104.811 1,104.811 1,114 147.917,114 147.917,104.811 138.76,104.811 123.431,104.811 114.273,104.811 82.094,104.811 
		72.937,104.811 33.121,104.811 	"/>
	<polyline points="
		127.204,79.675 132.64,74.271 138.069,68.869 	"/>
	<polyline points="
		138.069,79.675 132.64,74.271 127.204,68.869 	"/>
	<polyline points="
		124.976,74.271 132.64,74.271 140.311,74.271 	"/>
	<polyline points="
		132.64,81.904 132.64,74.271 132.64,66.646 	"/>
	<path d="M132.64,66.617
		h-0.006c-2.123,0-4.043,0.857-5.43,2.252c-1.387,1.383-2.241,3.297-2.241,5.402c0,2.106,0.861,4.021,2.241,5.403
		c1.387,1.395,3.307,2.252,5.43,2.252h0.006c2.124,0,4.043-0.863,5.43-2.252c1.381-1.383,2.241-3.297,2.241-5.403
		c0-2.105-0.86-4.02-2.241-5.402C136.683,67.48,134.764,66.617,132.64,66.617z"/>
	<path d="M132.634,61.237
		c-7.214,0-13.064,5.841-13.064,13.034c0,7.194,5.851,13.029,13.064,13.029c7.221,0.006,13.071-5.835,13.071-13.029
		C145.705,67.078,139.854,61.237,132.634,61.237z"/>
	<path d="M147.917,72.614
		c-0.825-7.684-7.35-13.67-15.283-13.67c-8.489,0-15.37,6.861-15.37,15.327c0,4.978,2.381,9.399,6.067,12.2
		c2.153,1.635,4.745,2.714,7.571,3.029c0.567,0.064,1.146,0.099,1.731,0.099s1.171-0.034,1.738-0.099
		c2.825-0.315,5.424-1.395,7.571-3.029c3.271-2.479,5.511-6.242,5.974-10.536c0.064-0.55,0.094-1.103,0.094-1.664
		C148.011,73.712,147.981,73.158,147.917,72.614z"/>
	<polygon points="
		99.775,90.281 99.775,87.989 104.28,87.989 104.28,90.281 104.28,94.88 104.28,97.179 99.775,97.179 99.775,94.88 	"/>
	<polygon points="7.12,74.249 
		10.203,74.249 53.056,74.249 56.092,74.249 56.092,80.357 53.056,80.357 10.203,80.357 7.12,80.357 	"/>
	<polyline points="
		101.998,27.549 108.061,30.88 108.065,30.886 	"/>
	
		<line x1="87.225" y1="19.416" x2="93.93" y2="23.109"/>
	
		<line x1="54.349" y1="55.91" x2="55.454" y2="55.374"/>
</g>
</svg>
