<?xml version="1.0" encoding="utf-8"?>
<!-- Generator: Adobe Illustrator 15.1.0, SVG Export Plug-In . SVG Version: 6.00 Build 0)  -->
<!DOCTYPE svg PUBLIC "-//W3C//DTD SVG 1.1//EN" "http://www.w3.org/Graphics/SVG/1.1/DTD/svg11.dtd">
<svg version="1.1" id="Layer_1" xmlns="http://www.w3.org/2000/svg" preserveAspectRatio="none"  x="0px" y="0px"
       viewBox="0 0 152 80" xmlns:agg="http://www.example.com">
	 
<agg:params>
	<agg:param type="C" name="color" description="Color" cssAttributes="fill" classes="color"/>
</agg:params>

<style type="text/css" >
<![CDATA[

	.stroked,.white{
		stroke-width:0.5;
		stroke-linecap:round;
		stroke-linejoin:round;
		fill:none;
	}
	
	.color {
		fill: #996633;
	}
	
	.stroked {
		stroke:white;
	}
	
	.white {
		stroke:white;
	}

		]]>
</style>
	 
<polygon class="color" points="129.114,16.608 122.792,13.286 116.791,1 104.188,1 91.584,4.001 82.302,1 60.416,7.283 47.813,7.283 32.208,16.608 29.208,28.895
	16.604,32.216 10.282,44.823 4,47.824 1,72.717 13.604,76.039 44.812,76.039 60.416,79 82.302,76.039 97.905,76.039 116.791,79 
	141.717,76.039 151,69.716 147.999,54.107 138.396,38.499 132.395,32.216 129.114,16.608 "/>
<path opacity="0.3" d="M138.396,69.716l-21.606-6.284l15.604-6.323l3-6.003l3.001,6.003
	l-6.001,6.323L138.396,69.716L138.396,69.716z M97.905,10.285l12.604,9.325v9.285l3-9.285l6.282-6.324h-9.282L97.905,10.285
	L97.905,10.285z M32.208,28.895l3.28,3.322l12.324-6.324l12.603,6.324l12.604-9.325L69.698,7.283V19.61l-18.605,3.281l-3.281-6.283
	l-6.322,9.285L32.208,28.895L32.208,28.895z M75.98,28.895l9.322,9.604l-3,9.325l-12.604,3.282l-3.001-6.283l-12.604,3.001
	L47.813,41.5l3.281,9.605l12.323,6.003h9.603l9.283,12.607h6.282V57.109l6.322-6.003l18.604,3.001l12.604-9.284l-12.604,6.283
	l-9.322-3.282l-3.281-6.323l6.282-6.283l-9.283,3.282l-15.604-9.604V19.61L75.98,28.895L75.98,28.895z M44.812,72.717l3.001-6.003
	l-6.322-9.605l-12.283-3.002l-6.322,9.325H10.282v-9.325l-3,9.325l3,6.284l15.604-3.002l6.322-6.284l9.282,6.284L44.812,72.717
	L44.812,72.717z"/>
</svg>
