<?xml version="1.0" encoding="utf-8"?>
<!-- Generator: Adobe Illustrator 15.1.0, SVG Export Plug-In . SVG Version: 6.00 Build 0)  -->
<!DOCTYPE svg PUBLIC "-//W3C//DTD SVG 1.1//EN" "http://www.w3.org/Graphics/SVG/1.1/DTD/svg11.dtd">
<svg version="1.1" id="Layer_1" xmlns="http://www.w3.org/2000/svg" preserveAspectRatio="none"  x="0px" y="0px"
       viewBox="0 0 152 77" xmlns:agg="http://www.example.com">
	 
<agg:params>
	<agg:param type="C" name="color" description="Color" cssAttributes="fill" classes="color"/>
</agg:params>

<style type="text/css" >
<![CDATA[

	.stroked,.white{
		stroke-width:0.5;
		stroke-linecap:round;
		stroke-linejoin:round;
		fill:none;
	}
	
	.color {
		fill: #4C4C4C;
	}
	
	.stroked {
		stroke:white;
	}
	
	.white {
		stroke:white;
	}

		]]>
</style>
	 
<polygon class="color" points="1,72.505 5.194,60.483 11.819,53.494 13.581,46.015
	17.48,39.024 23.184,34.971 25.909,27.98 28.299,22.529 32.493,20.012 34.883,12.533 37.609,10.017 40.293,4.006 43.899,3.027 
	52.286,4.006 60.379,1 70.611,4.984 73.882,4.006 82.898,3.516 90.111,4.006 92.501,4.495 101.182,2.468 109.317,6.033 
	112.001,4.984 119.507,10.017 129.11,13.022 132.381,20.501 137.497,21.97 141.69,28.47 145.884,29.029 149.491,37.976 151,47.971 
	143.788,52.026 139.887,50.977 134.184,54.471 129.404,56.009 125.797,62.021 109.317,63 99.085,68.032 84.995,68.521 
	74.511,74.532 58.618,72.505 50.189,73.973 37.902,72.994 24.106,76 16.013,74.532 6.116,75.021 1,72.505 "/>
<polygon opacity="0.2" points="64.908,70.479 60.086,59.994 61.596,48.53 59.205,40.003 
	56.479,30.008 57.402,23.997 61.596,17.007 69.689,10.017 75.392,6.033 80.802,6.522 85.582,5.473 90.111,4.006 92.501,4.495 
	101.182,2.468 109.317,6.033 112.001,4.984 119.507,10.017 129.11,13.022 132.381,20.501 137.497,21.97 141.69,28.47 
	145.884,29.029 149.491,37.976 151,47.971 143.788,52.026 139.887,50.977 134.184,54.471 129.404,56.009 125.797,62.021 109.317,63 
	99.085,68.032 84.995,68.521 74.511,74.532 64.908,70.479 "/>
<polygon opacity="0.2" points="70.318,65.515 69.689,56.988 67.886,48.53 65.202,42.519 
	66.083,36.508 70.318,29.519 78.412,22.529 84.114,18.475 89.482,19.034 98.498,23.507 96.988,17.007 107.514,19.034 
	109.317,17.496 114.098,14.979 118.92,20.991 124.288,23.507 129.404,24.486 133.597,30.008 138.084,32.035 142.32,36.019 
	146.513,37.487 148.903,43.498 151,47.971 143.788,52.026 139.007,48.53 131.794,47.482 127.307,55.03 125.797,62.021 109.317,63 
	99.085,68.032 84.995,68.521 78.118,69.989 70.318,65.515 "/>
<path d="M31.319,56.988l2.977-7.968l-1.803-3.496l0.922-12.022l0.587,9.995l1.51,0.49
	l4.781-31.455l-0.587,18.942l-3.019,20.061L31.319,56.988L31.319,56.988z M21.38,40.982l-4.78,9.995l-4.487,13.001l8.974-20.969
	L21.38,40.982L21.38,40.982z M34.59,21.97l-8.681,18.033l-7.8,23.485l16.187-37.954L34.59,21.97L34.59,21.97z M30.983,44.477
	l-4.78,9.995l-4.487,13.561l8.974-21.529L30.983,44.477L30.983,44.477z M79.921,57.477l-0.923-3.495L57.402,24.486l11.406,19.502
	L79.921,57.477L79.921,57.477z M83.485,50.488l-0.88-3.496L61.008,17.496l11.407,19.012L83.485,50.488L83.485,50.488z
	 M93.717,57.477l-0.922-3.495L71.199,24.486l11.406,19.502L93.717,57.477L93.717,57.477z M97.911,41.471l-0.629-1.468l-11.7-16.496
	l6.039,10.485L97.911,41.471L97.911,41.471z M113.804,54.471l-1.216-3.495L91.285,21.48l11.113,19.012L113.804,54.471
	L113.804,54.471z M106.885,34.481l-0.587-1.957L94.011,15.469l6.29,11.044L106.885,34.481L106.885,34.481z M120.094,27.98
	l-0.587-0.979l-7.213-9.995l3.9,6.5L120.094,27.98L120.094,27.98z M133.891,40.492l-0.587-1.957L121.017,21.48l6.291,11.044
	L133.891,40.492L133.891,40.492z"/>
</svg>
