<?xml version="1.0" encoding="utf-8"?>
<!-- Generator: Adobe Illustrator 15.1.0, SVG Export Plug-In . SVG Version: 6.00 Build 0)  -->
<!DOCTYPE svg PUBLIC "-//W3C//DTD SVG 1.1//EN" "http://www.w3.org/Graphics/SVG/1.1/DTD/svg11.dtd">
<svg version="1.1" id="Layer_01" xmlns="http://www.w3.org/2000/svg" preserveAspectRatio="none"  xmlns:xlink="http://www.w3.org/1999/xlink" x="0px" y="0px"
	   viewBox="0 0 102 102" xmlns:agg="http://www.example.com" xml:space="preserve">
	 
<agg:params>
	<agg:param type="C" name="color" description="Color" cssAttributes="fill" classes="color"/>
	<agg:param type="F" name="saturation" description="Saturation" min="0" max="1" cssAttributes="opacity" classes="color"/>
</agg:params>

<style type="text/css" >
   <![CDATA[

	.stroke{
		stroke-width:0.3;
		stroke-linecap:round;
		stroke-linejoin:round;
		stroke: black;
		fill:none;
	}
	
	.color {
		fill:#3664BF;
		opacity:0.2;
	}

      ]]>
</style>
	 
<defs>	 
	<path id="gear" d="M97.202,54.375
		c1.341-0.332,2.621-0.913,3.769-1.667c0.039-1.139,0.039-2.276,0-3.416c-1.148-0.754-2.428-1.335-3.769-1.667
		c-1.271-0.314-2.596-0.404-3.894-0.301c-0.109-1.25-0.272-2.488-0.49-3.723c1.28-0.236,2.538-0.666,3.684-1.299
		c1.209-0.667,2.294-1.561,3.209-2.586c-0.257-1.11-0.551-2.208-0.884-3.299c-1.304-0.431-2.691-0.662-4.072-0.635
		c-1.309,0.025-2.613,0.281-3.839,0.717c-0.429-1.179-0.906-2.333-1.438-3.469c1.176-0.56,2.279-1.301,3.222-2.208
		c0.995-0.958,1.813-2.101,2.43-3.328c-0.536-1.006-1.104-1.991-1.708-2.958c-1.372-0.079-2.771,0.057-4.098,0.44
		c-1.257,0.363-2.451,0.948-3.523,1.686c-0.719-1.027-1.479-2.019-2.286-2.979c0.991-0.845,1.864-1.846,2.541-2.966
		c0.713-1.183,1.208-2.499,1.486-3.844c-0.778-0.833-1.582-1.637-2.415-2.415c-1.345,0.279-2.661,0.773-3.844,1.486
		c-1.121,0.676-2.122,1.55-2.967,2.541c-0.96-0.807-1.951-1.567-2.979-2.286c0.738-1.072,1.323-2.266,1.686-3.523
		c0.383-1.327,0.52-2.726,0.441-4.098c-0.967-0.603-1.952-1.172-2.958-1.708c-1.227,0.617-2.371,1.435-3.328,2.43
		c-0.908,0.943-1.648,2.046-2.208,3.222c-1.136-0.531-2.291-1.009-3.469-1.438c0.435-1.227,0.691-2.53,0.717-3.839
		c0.027-1.381-0.204-2.768-0.635-4.072c-1.09-0.333-2.188-0.627-3.299-0.884c-1.025,0.915-1.918,2-2.586,3.209
		c-0.633,1.146-1.063,2.403-1.299,3.684c-1.235-0.218-2.474-0.381-3.723-0.49c0.103-1.298,0.013-2.624-0.302-3.895
		c-0.332-1.341-0.913-2.621-1.667-3.769c-1.139-0.039-2.276-0.039-3.416,0c-0.754,1.148-1.335,2.428-1.667,3.769
		c-0.314,1.271-0.404,2.597-0.302,3.895c-1.249,0.108-2.488,0.271-3.722,0.49c-0.237-1.28-0.667-2.538-1.299-3.684
		c-0.667-1.209-1.56-2.294-2.586-3.209c-1.11,0.257-2.208,0.552-3.299,0.884c-0.431,1.304-0.662,2.691-0.635,4.072
		c0.025,1.309,0.282,2.613,0.717,3.839c-1.179,0.429-2.333,0.906-3.469,1.438c-0.56-1.176-1.301-2.279-2.208-3.222
		c-0.958-0.995-2.102-1.813-3.329-2.43c-1.006,0.536-1.991,1.104-2.958,1.708c-0.079,1.372,0.058,2.771,0.44,4.098
		c0.363,1.257,0.948,2.451,1.686,3.523c-1.028,0.719-2.019,1.479-2.979,2.286c-0.845-0.99-1.846-1.864-2.967-2.541
		c-1.183-0.713-2.499-1.208-3.844-1.486c-0.833,0.778-1.637,1.582-2.415,2.415c0.279,1.345,0.772,2.661,1.486,3.844
		c0.676,1.121,1.55,2.121,2.54,2.966c-0.807,0.96-1.567,1.952-2.285,2.979c-1.073-0.738-2.266-1.323-3.523-1.686
		c-1.327-0.383-2.726-0.52-4.098-0.44c-0.604,0.967-1.172,1.952-1.708,2.958c0.618,1.227,1.436,2.371,2.431,3.328
		c0.943,0.908,2.046,1.648,3.222,2.208c-0.53,1.136-1.008,2.291-1.437,3.469c-1.228-0.436-2.531-0.692-3.84-0.717
		c-1.381-0.027-2.768,0.204-4.072,0.635c-0.333,1.09-0.627,2.188-0.884,3.299c0.914,1.025,2,1.918,3.209,2.586
		c1.146,0.633,2.403,1.063,3.684,1.299c-0.218,1.235-0.381,2.474-0.49,3.723c-1.298-0.103-2.623-0.013-3.894,0.301
		c-1.341,0.332-2.621,0.913-3.769,1.667c-0.039,1.139-0.039,2.276,0,3.416c1.148,0.754,2.428,1.335,3.769,1.667
		c1.271,0.314,2.596,0.404,3.894,0.302c0.109,1.249,0.272,2.488,0.49,3.722c-1.28,0.237-2.537,0.667-3.684,1.3
		c-1.209,0.667-2.295,1.56-3.209,2.585c0.257,1.11,0.552,2.209,0.884,3.299c1.304,0.431,2.691,0.662,4.072,0.635
		c1.309-0.025,2.612-0.282,3.84-0.717c0.428,1.179,0.906,2.333,1.437,3.469c-1.175,0.56-2.278,1.301-3.222,2.208
		c-0.995,0.958-1.813,2.101-2.431,3.328c0.536,1.006,1.104,1.991,1.708,2.958c1.372,0.079,2.771-0.057,4.098-0.44
		c1.257-0.363,2.451-0.948,3.523-1.686c0.718,1.028,1.479,2.019,2.285,2.979c-0.99,0.845-1.864,1.846-2.54,2.967
		c-0.714,1.183-1.208,2.499-1.486,3.844c0.778,0.833,1.582,1.637,2.415,2.415c1.345-0.279,2.661-0.772,3.844-1.486
		c1.121-0.676,2.122-1.55,2.967-2.54c0.96,0.807,1.951,1.567,2.979,2.286c-0.738,1.073-1.323,2.266-1.686,3.523
		c-0.383,1.327-0.52,2.727-0.44,4.098c0.967,0.604,1.952,1.172,2.958,1.708c1.227-0.618,2.371-1.435,3.329-2.431
		c0.907-0.943,1.648-2.046,2.208-3.222c1.136,0.531,2.29,1.009,3.469,1.437c-0.435,1.228-0.691,2.531-0.717,3.84
		c-0.026,1.381,0.204,2.768,0.635,4.072c1.09,0.333,2.188,0.627,3.299,0.884c1.026-0.914,1.918-2,2.586-3.209
		c0.632-1.146,1.063-2.403,1.299-3.684c1.234,0.219,2.473,0.381,3.722,0.49c-0.103,1.298-0.013,2.624,0.302,3.894
		c0.332,1.341,0.913,2.621,1.667,3.769c1.139,0.039,2.276,0.039,3.416,0c0.754-1.148,1.335-2.428,1.667-3.769
		c0.314-1.271,0.404-2.596,0.302-3.894c1.249-0.109,2.487-0.271,3.723-0.49c0.236,1.28,0.666,2.538,1.299,3.684
		c0.667,1.209,1.561,2.295,2.586,3.209c1.11-0.257,2.208-0.552,3.299-0.884c0.431-1.304,0.662-2.691,0.635-4.072
		c-0.025-1.309-0.282-2.612-0.717-3.84c1.178-0.428,2.333-0.906,3.469-1.437c0.56,1.175,1.301,2.278,2.208,3.222
		c0.958,0.996,2.101,1.813,3.328,2.431c1.006-0.536,1.991-1.104,2.958-1.708c0.079-1.371-0.058-2.771-0.441-4.098
		c-0.363-1.257-0.948-2.45-1.686-3.523c1.028-0.719,2.019-1.479,2.979-2.286c0.845,0.99,1.846,1.864,2.967,2.54
		c1.183,0.714,2.499,1.208,3.844,1.486c0.833-0.778,1.637-1.582,2.415-2.415c-0.279-1.345-0.773-2.661-1.486-3.844
		c-0.676-1.121-1.55-2.122-2.541-2.967c0.807-0.96,1.567-1.951,2.286-2.979c1.072,0.738,2.266,1.323,3.523,1.686
		c1.327,0.383,2.726,0.52,4.098,0.44c0.604-0.967,1.172-1.952,1.708-2.958c-0.617-1.227-1.435-2.371-2.43-3.328
		c-0.943-0.908-2.046-1.648-3.222-2.208c0.531-1.136,1.009-2.29,1.438-3.469c1.227,0.435,2.531,0.691,3.839,0.717
		c1.381,0.026,2.768-0.204,4.072-0.635c0.333-1.09,0.627-2.188,0.884-3.299c-0.915-1.025-2-1.918-3.209-2.585
		c-1.146-0.633-2.403-1.063-3.684-1.3c0.218-1.234,0.381-2.473,0.49-3.722C94.606,54.779,95.932,54.689,97.202,54.375z
		 M38.025,15.724c8.375-3.081,17.574-3.081,25.95,0c3.185,1.171,4.545,4.93,2.849,7.869c-2.221,3.846-4.442,7.693-6.663,11.54
		c-1.209,2.094-3.65,3.146-6.002,2.586c-2.159-0.513-4.159-0.513-6.317,0c-2.353,0.56-4.794-0.492-6.003-2.586
		c-2.221-3.847-4.441-7.693-6.662-11.54C33.479,20.653,34.841,16.895,38.025,15.724z M59.898,51c0,4.914-3.984,8.897-8.898,8.897
		S42.103,55.914,42.103,51s3.983-8.898,8.897-8.898S59.898,46.086,59.898,51z M23.593,66.824c-2.939,1.697-6.697,0.335-7.869-2.849
		c-3.08-8.375-3.08-17.574,0-25.95c1.172-3.185,4.93-4.545,7.869-2.849c3.847,2.221,7.693,4.441,11.54,6.662
		c2.094,1.209,3.146,3.65,2.586,6.002c-0.513,2.159-0.513,4.159,0,6.317c0.56,2.353-0.492,4.794-2.586,6.003
		C31.286,62.382,27.439,64.603,23.593,66.824z M63.975,86.276c-8.375,3.08-17.574,3.08-25.95,0c-3.185-1.172-4.546-4.93-2.849-7.869
		c2.221-3.847,4.441-7.693,6.662-11.54c1.209-2.094,3.65-3.146,6.003-2.586c2.158,0.513,4.159,0.513,6.317,0
		c2.353-0.56,4.793,0.492,6.002,2.586c2.221,3.847,4.441,7.693,6.663,11.54C68.521,81.346,67.16,85.104,63.975,86.276z
		 M86.276,63.975c-1.171,3.185-4.93,4.546-7.869,2.849c-3.846-2.221-7.693-4.442-11.54-6.663c-2.094-1.209-3.146-3.65-2.586-6.003
		c0.513-2.158,0.513-4.159,0-6.317c-0.56-2.353,0.492-4.793,2.586-6.002c3.847-2.221,7.693-4.441,11.54-6.662
		c2.939-1.697,6.697-0.336,7.869,2.849C89.357,46.4,89.357,55.599,86.276,63.975z"/>
		
		<clipPath id="mask">
			<use xlink:href="#gear"/>
		</clipPath>
</defs>

<use xlink:href="#gear" fill="#E5E5E5"/>
<use xlink:href="#gear" class="color"/>

<g clip-path="url(#mask)">
	<path opacity="0.1" d="M45.675,91.959
		c1.743,0.224,3.521,0.341,5.326,0.341c22.81,0,41.3-18.49,41.3-41.3c0-1.805-0.116-3.582-0.342-5.326L51.001,51L45.675,91.959z"/>
	<path opacity="0.1" d="M51.001,9.7C28.191,9.7,9.699,28.191,9.699,51
		c0,1.876,0.128,3.722,0.37,5.531L51.001,51l5.531-40.929C54.722,9.828,52.876,9.7,51.001,9.7z"/>
	<path opacity="0.1" d="M12.798,35.285L51.001,51L35.285,12.799
		C25.116,16.986,16.986,25.115,12.798,35.285z"/>
	<path opacity="0.1" d="M89.139,66.872L51.001,51l15.872,38.138
		C76.917,84.953,84.954,76.916,89.139,66.872z"/>
	<path opacity="0.05" d="M18.295,25.78L51.001,51L25.897,18.206
		C23.047,20.391,20.49,22.938,18.295,25.78z"/>
	<path opacity="0.05" d="M83.773,76.131L51.001,51l25.13,32.773
		C79,81.57,81.571,78.999,83.773,76.131z"/>
</g>

<g class="stroke">
	<circle cx="51" cy="51" r="42.468"/>
	<use xlink:href="#gear"	/>
</g>

</svg>
