<?xml version="1.0" encoding="utf-8"?>
<!-- Generator: Adobe Illustrator 19.0.0, SVG Export Plug-In . SVG Version: 6.00 Build 0)  -->
<svg version="1.1" id="图层_1" xmlns="http://www.w3.org/2000/svg" xmlns:xlink="http://www.w3.org/1999/xlink" x="0px" y="0px"
	 viewBox="-4 1.2 98.4 106.5" style="enable-background:new -4 1.2 98.4 106.5;" xml:space="preserve">
<style type="text/css">
	.st0{fill:#007F00;}
	.st1{fill:#329932;}
	.st2{fill:#64B264;}
	.st3{fill:#98CB98;}
	.st4{fill:#CAE4CA;}
	.st5{fill:#FFFFFF;}
	.st6{fill:none;stroke:#000000;stroke-width:0.25;stroke-linejoin:round;}
	.st7{fill:#F4F9F4;}
	.st8{fill:#EAF4EA;}
	.st9{fill:#E0EFE0;}
	.st10{fill:#D6EAD6;}
	.st11{fill:#003300;stroke:#000000;stroke-width:0.25;stroke-linejoin:round;}
	.st12{fill:#1E8F1E;}
	.st13{fill:#3C9E3C;}
	.st14{fill:#60B060;}
	.st15{fill:#7EBF7E;}
	.st16{fill:#9ECE9E;}
	.st17{fill:#BCDDBC;}
	.st18{fill:none;stroke:#7F7F7F;stroke-width:0.25;stroke-linejoin:round;}
	.st19{fill:#64B264;stroke:#000000;stroke-width:0.25;stroke-linejoin:round;}
	.st20{fill:#007F00;stroke:#000000;stroke-width:0.25;stroke-linejoin:round;}
	.st21{fill:none;stroke:#FFFFFF;stroke-width:0.25;stroke-linejoin:round;}
</style>
<path class="st0" d="M8.5,54l3.2-3l-6.3-6l-3,3L8.5,54z"/>
<path class="st0" d="M8.5,54.2L2.4,48L2,48.2l-0.2,0.3L1.6,49l-0.3,0.2l-0.2,0.4L0.8,50l-0.2,0.3v0.4l-0.2,0.4l-0.2,0.4L0,51.8v0.4
	v0.4l-0.1,0.6v0.5v0.4L8.5,54.2L8.5,54.2z"/>
<path class="st0" d="M8.5,58.4v-4.3h-8.6v4.3H8.5z"/>
<path class="st0" d="M0.2,80.2V58.4h8.3v21.9l0.2,0.4v0.2l0.7,0.6h7.5V90h-7L7,89.6l-2.6-1.4l-2.7-2.7l-1.2-2.3L0.2,80.2z"/>
<path class="st1" d="M8.1,53.8l3.2-3.2l-5.4-5.5l-3,3.2L8.1,53.8z"/>
<path class="st1" d="M8.5,54.2l-5.6-5.9l-0.4,0.2L2.2,49L2,49.2l-0.2,0.4L1.6,50l-0.1,0.2l-0.2,0.3L1.1,51l-0.2,0.4v0.4l-0.2,0.3
	v0.4L0.4,53v0.4v0.3v0.4L8.5,54.2L8.5,54.2z"/>
<path class="st1" d="M8.1,58.4v-4.3H0.4v4.3H8.1z"/>
<path class="st1" d="M9.9,89.4H9.1l-2.8-0.7l-0.9-0.2l-2.5-2.6l-1.8-3l-0.4-1.8V58.4h7.5v22.5l0.4,0.6l1,0.5h7.3v7.2h-7V89.4z"/>
<path class="st2" d="M7.5,53l3.2-3l-4.2-4l-3.1,3L7.5,53z"/>
<path class="st2" d="M8.5,54.2L3.4,49l-0.5,0.6L2.4,50L2,50.7l-0.2,0.6l-0.2,0.5l-0.1,0.6l-0.2,0.9V54h7.2V54.2z"/>
<path class="st2" d="M7,58.4v-4.3H1.3v4.3H7z"/>
<path class="st2" d="M9.9,88.6h7V83H9.3l-1-0.4l-0.6-0.7l-0.4-0.4l-0.2-1.2V58.4H1.5v21.7l0.1,1.6L2,82.4l0.2,0.9L2.6,84L3,84.6
	l0.3,0.7l1.3,1.1l1.2,1l0.9,0.2L7.4,88L9,88.4h0.9V88.6z"/>
<path class="st3" d="M6.9,52.4l3-3L7,46.6l-3,3L6.9,52.4z"/>
<path class="st3" d="M8.5,54.2L4,49.6l-0.4,0.6l-0.3,0.3L2.9,51l-0.2,0.6l-0.2,0.5l-0.2,0.6v0.6V54h6.2C8.5,54,8.5,54.2,8.5,54.2z"
	/>
<path class="st3" d="M6.3,58.4v-4.3H2.2v4.3H6.3z"/>
<path class="st3" d="M9.9,87.5H9.1l-1.4-0.2L7,87l-0.7-0.2l-1.2-0.9l-0.4-0.5L4,85l-0.7-1.2l-0.4-1.5l-0.4-1.4V58.4h3.8v22.5
	l0.6,1.2l0.3,0.6l1.3,0.7l1.4,0.4h7v3.7H9.9z"/>
<path class="st4" d="M6.5,51.9l3-3l-1.8-2l-3,3.3L6.5,51.9z"/>
<path class="st4" d="M8.5,54.2l-4.1-3.9l-0.2,0.3L3.8,51l-0.2,0.4l-0.2,0.5l-0.1,0.6L3.1,53v0.6l-0.2,0.6H8.5z"/>
<path class="st4" d="M5.4,58.4v-4.3H2.9v4.3H5.4z"/>
<path class="st4" d="M9.9,87h7v-2.5h-7l-1.6-0.4l-0.9-0.3l-1.2-1.3l-0.3-0.6l-0.2-1l-0.2-0.7V58.4H3.1v22.5l0.3,1.2l0.4,1.3l0.9,1.2
	l1,0.9l1.1,0.7l1.1,0.6L9.3,87H9.9z"/>
<path class="st5" d="M5.9,51.4l3-3.1l-0.5-0.7l-3.2,3L5.9,51.4z"/>
<path class="st5" d="M8.5,54.2l-3.4-3.6L4.9,51l-0.4,0.4l-0.2,0.4l-0.2,0.3l-0.2,0.4v0.6l-0.2,0.4V54h4.8C8.5,54,8.5,54.2,8.5,54.2z
	"/>
<path class="st5" d="M4.7,58.4v-4.3H3.6v4.3H4.7z"/>
<path class="st5" d="M9.9,86.4l-0.6-0.2L8.1,86L7,85.6l-1-0.5L5.1,84l-0.5-0.7L4,82l-0.2-0.5V58.4h1.1v21.7l0.2,1l0.1,1L5.6,83
	l0.6,0.9l0.7,0.5l1,0.4l1,0.4h8v1.2H9.9z"/>
<path class="st0" d="M54.6,6.2V26h12.6V6.2H54.6z"/>
<path class="st1" d="M55.3,6.2V26h11.1V6.2H55.3z"/>
<path class="st2" d="M56.7,6.2V26H65V6.2H56.7z"/>
<path class="st3" d="M58,6.2V26h5.8V6.2H58z"/>
<path class="st4" d="M58.9,6.2V26h3.8V6.2H58.9z"/>
<path class="st5" d="M60.1,6.2V26h1.4V6.2H60.1z"/>
<path class="st6" d="M54.6,6.2V26h12.6V6.2H54.6"/>
<path class="st0" d="M47.3,19.9h8.4v-8.5h-8.4V19.9z"/>
<path class="st0" d="M42.8,19.9h4.5v-8.7L42.8,11V19.9z"/>
<path class="st0" d="M42.8,11l-0.4,0.2H42h-0.3h-0.4l-0.4,0.2h-0.4l-0.6,0.1l-0.2,0.2L39.2,12l-0.4,0.2l-0.4,0.2l-0.3,0.2l-0.4,0.2
	L37.4,13L37,13.3l-0.3,0.2l6.2,6.3L42.8,11L42.8,11z"/>
<path class="st0" d="M39.9,22.8l3-3l-6.2-6.3l-3.1,3.3L39.9,22.8z"/>
<path class="st1" d="M47.3,19.2h8.4v-7.5h-8.4V19.2z"/>
<path class="st1" d="M42.8,19.2h4.5v-7.7h-4.5V19.2z"/>
<path class="st1" d="M42.8,19.9v-8.4h-0.4H42l-0.3,0.2h-0.4L40.8,12h-0.4l-0.3,0.2h-0.4l-0.2,0.2l-0.4,0.2l-0.3,0.2L38.4,13
	l-0.3,0.2l-0.4,0.1l-0.2,0.4L37,14L42.8,19.9z"/>
<path class="st1" d="M39.4,22.4l3-3L37,14l-3,3L39.4,22.4z"/>
<path class="st2" d="M47.3,18.5h10.4v-5.6H47.3V18.5z"/>
<path class="st2" d="M42.8,18.3h4.5v-5.6h-4.5V18.3z"/>
<path class="st2" d="M42.8,19.9v-7.2h-0.9h-0.5l-0.9,0.2L40.1,13l-0.6,0.3l-0.6,0.4l-0.5,0.4l-0.6,0.4L42.8,19.9z"/>
<path class="st2" d="M38.8,21.9l3.1-3.1l-4.3-4.2l-3,3.2L38.8,21.9z"/>
<path class="st3" d="M47.3,17.4h11.4v-3.8H47.3V17.4z"/>
<path class="st3" d="M42.8,17.4h4.5v-4.1h-4.5V17.4z"/>
<path class="st3" d="M42.8,19.9v-6.5l-0.6,0.2h-0.5h-0.6L40.4,14l-0.5,0.2l-0.4,0.4l-0.6,0.2l-0.4,0.5L42.8,19.9z"/>
<path class="st3" d="M38,21.2l3.2-3l-2.9-2.9l-3.2,3.1L38,21.2z"/>
<path class="st4" d="M47.3,16.9h12.5v-2.5H47.3V16.9z"/>
<path class="st4" d="M42.8,16.9h4.3l0.2-2.7h-4.5V16.9z"/>
<path class="st4" d="M42.8,19.9v-5.6h-0.6h-0.3l-0.6,0.2l-0.6,0.2l-0.3,0.2l-0.5,0.3l-0.6,0.2l-0.4,0.4L42.8,19.9z"/>
<path class="st4" d="M37.6,20.6l3-3l-1.8-1.8l-3,3L37.6,20.6z"/>
<path class="st5" d="M47.3,16h13.6v-1H47.3V16z"/>
<path class="st5" d="M42.8,16h4.5v-1h-4.5V16z"/>
<path class="st5" d="M42.8,19.9v-4.8h-0.4h-0.5l-0.4,0.1h-0.4l-0.4,0.2l-0.3,0.4L39.9,16l-0.4,0.4L42.8,19.9z"/>
<path class="st5" d="M37,20.3l3.3-3.3l-0.9-0.5l-3,3L37,20.3z"/>
<path class="st7" d="M43.1,94H29.4v12.6H43L43.1,94L43.1,94z"/>
<path class="st7" d="M92.3,94H78.7v12.6h13.6V94z"/>
<path class="st8" d="M43.1,100.4l-13.6-3.2v9.4h13.6V100.4z"/>
<path class="st8" d="M92.3,100.4l-13.6-3.2v9.4h13.6V100.4z"/>
<path class="st9" d="M92.3,101.4l-13.6-3.2v8.4h13.6V101.4z"/>
<path class="st9" d="M43.1,101.4l-13.6-3.2v8.4h13.6V101.4z"/>
<path class="st10" d="M43.1,102.5l-13.6-3.2v7.4h13.6V102.5z"/>
<path class="st10" d="M92.3,102.5l-13.6-3.2v7.4h13.6V102.5z"/>
<path class="st11" d="M90.1,94L86,81.5H35.8L31.5,94h3.1l6.4-7.2h39.8l6.3,7.2H90.1z"/>
<path class="st0" d="M42,27.1l1.3-0.9l2.6-0.4l3.4-0.3l4.3-0.4h4.8h5.1h4.8l4.2,0.4l3.4,0.3l2.7,0.4l1.2,0.9v35.5l2.2,2.2v16.7H39.9
	V64.8l2.1-2.2V27.1z"/>
<path class="st12" d="M44,27.1l1.3-0.9l2.1-0.4l3.1-0.3l3.8-0.4h4.2H63h4.4l3.6,0.4l3.2,0.3l2.2,0.4l1.2,0.9v35.5l1.8,2v16.9H42.2
	V64.6l1.8-2V27.1z"/>
<path class="st13" d="M46.3,27.1l1.1-0.9l1.8-0.4l2.8-0.3l3.2-0.4h3.7h3.8h3.6l3.4,0.4l2.6,0.3l2,0.4l1.1,0.9v35.5l1.6,2v16.9H44.7
	V64.6l1.6-2C46.3,62.6,46.3,27.1,46.3,27.1z"/>
<path class="st14" d="M48.3,27.1l1-0.9l1.7-0.4l2.1-0.3l2.9-0.4h3.2h3.4h3l3.1,0.4l2.1,0.3l1.6,0.4l1.1,0.9v35.5l1.2,2v16.9H46.9
	V64.6l1.4-2V27.1z"/>
<path class="st15" d="M50.5,27.1l0.5-0.9l1.5-0.4l2-0.3l2.1-0.4h2.9h2.6h2.7l2.3,0.4l2,0.3l1.4,0.4l0.6,0.9v35.5l1.2,2v16.9H49.2
	V64.6l1.3-2V27.1z"/>
<path class="st16" d="M52.5,27.1l0.5-0.9l1.3-0.4l1.4-0.3l2-0.4h2h2.2h2l2,0.4l1.4,0.3l1.3,0.4l0.3,0.9v35.5l1.1,2v16.9H51.7V64.6
	l0.9-2L52.5,27.1L52.5,27.1z"/>
<path class="st17" d="M54.7,27.1l0.4-0.9l0.9-0.4l1.2-0.3l1.4-0.4h1.3h1.6h1.7l1.4,0.4l1.2,0.3l0.9,0.4l0.4,0.9v35.5l0.5,2v16.9
	H54.1V64.6l0.5-2L54.7,27.1L54.7,27.1z"/>
<path class="st9" d="M56.7,27.1l0.4-0.9l0.4-0.4l0.7-0.3l1.1-0.4h1h1.1h1l1.1,0.4l0.5,0.3l0.6,0.4l0.2,0.9v35.5l0.5,2v16.9h-9.1
	V64.6l0.4-2L56.7,27.1L56.7,27.1z"/>
<path class="st5" d="M58.9,27.1l0.2-0.9l0.2-0.4l0.4-0.3l0.3-0.4h0.4H61h0.3l0.4,0.4l0.4,0.3l0.2,0.4l0.2,0.9v35.5l0.2,2.2v16.7
	h-4.3V64.8l0.2-2.2V27.1H58.9z"/>
<path class="st6" d="M42,27.1l1.3-0.9l2.6-0.4l3.4-0.3l4.3-0.4h4.8h5.1h4.8l4.2,0.4l3.4,0.3l2.7,0.4l1.2,0.9v35.5l2.2,2.2v16.7H39.9
	V64.8l2.1-2.2V27.1"/>
<path class="st18" d="M79.6,29H42"/>
<path class="st18" d="M79.6,62.6H42"/>
<path class="st18" d="M81.9,64.8h-42"/>
<path class="st18" d="M52.5,62.6V29"/>
<path class="st18" d="M50.5,29v-1.9l10.4-2"/>
<path class="st18" d="M47.3,19.9v-8.5"/>
<path class="st18" d="M67.2,7.2H54.6"/>
<path class="st19" d="M90.1,94L86,81.5H35.8L31.5,94h2l6.3-8.3h42L88,94H90.1z"/>
<path class="st6" d="M43.1,94H29.4v12.6H43L43.1,94"/>
<path class="st6" d="M92.3,94H78.7v12.6h13.6V94"/>
<path class="st0" d="M11.3,51.2L41,21.7l-6-6.1L5.4,45.3L11.3,51.2z"/>
<path class="st1" d="M10.9,50.8l29.7-29.5L35.4,16L5.9,45.5L10.9,50.8z"/>
<path class="st2" d="M10.3,50.2L40,20.6l-4.1-3.9L6.5,46.4L10.3,50.2z"/>
<path class="st3" d="M9.7,49.6l29.7-29.5l-2.8-2.9L7,46.9L9.7,49.6z"/>
<path class="st4" d="M9.3,49.2l29.5-29.7l-1.6-1.6L7.5,47.4L9.3,49.2z"/>
<path class="st5" d="M8.7,48.5L38.4,19l-0.7-0.7L8.1,48L8.7,48.5z"/>
<path class="st6" d="M35.1,15.6L5.4,45.3"/>
<path class="st6" d="M11.3,51.2L41,21.7"/>
<path class="st4" d="M8.5,54.2l-2.6-2.8l-0.2,0.4l-0.2,0.1l-0.2,0.4l-0.1,0.2L4.9,53v0.4v0.3l-0.2,0.4L8.5,54.2L8.5,54.2z"/>
<path class="st3" d="M8.5,54.2L6.3,52l-0.2,0.2v0.2l-0.2,0.2L5.6,53v0.2l-0.2,0.4v0.1v0.4L8.5,54.2L8.5,54.2z"/>
<path class="st2" d="M8.5,54.2l-1.6-1.8l-0.2,0.2v0.2L6.5,53l-0.2,0.2v0.2v0.2l-0.2,0.1v0.4L8.5,54.2L8.5,54.2z"/>
<path class="st1" d="M8.5,54.2l-1-1.2l-0.2,0.4v0.2l-0.2,0.1v0.4L8.5,54.2L8.5,54.2z"/>
<path class="st0" d="M8.5,54.2l-0.4-0.4V54v0.2H8.5z"/>
<path class="st19" d="M13.7,106.6h14.6v-2.1H13.7V106.6z"/>
<path class="st4" d="M42.8,19.9V16h-0.4H42l-0.3,0.2h-0.2l-0.4,0.2l-0.4,0.2l-0.2,0.2l-0.1,0.3L42.8,19.9z"/>
<path class="st3" d="M42.8,19.9v-3h-0.2h-0.4H42L41.7,17h-0.2l-0.4,0.2l-0.2,0.2l-0.2,0.2L42.8,19.9z"/>
<path class="st2" d="M42.8,19.9v-2.5h-0.2h-0.2l-0.2,0.2H42h-0.3l-0.2,0.2L41.2,18v0.2L42.8,19.9z"/>
<path class="st1" d="M42.8,19.9v-1.4h-0.2h-0.4L42,18.6l-0.1,0.2L42.8,19.9z"/>
<path class="st0" d="M42.8,19.9v-0.6h-0.2l-0.2,0.2L42.8,19.9z"/>
<path class="st6" d="M54.6,11.4h-7.2"/>
<path class="st6" d="M54.6,19.9h-7.2"/>
<path class="st6" d="M42.8,11l4.5,0.2"/>
<path class="st6" d="M42.8,19.9l-3,3"/>
<path class="st6" d="M33.6,16.9l3.1-3.3"/>
<path class="st6" d="M42.8,11l-0.4,0.2H42h-0.3h-0.4l-0.4,0.2h-0.4l-0.6,0.1l-0.2,0.2L39.2,12l-0.4,0.2l-0.4,0.2l-0.3,0.2l-0.4,0.2
	L37.4,13L37,13.3l-0.3,0.2"/>
<path class="st6" d="M47.3,19.9h-4.5"/>
<path class="st6" d="M8.5,58.4v21.7v0.1l0.2,0.4v0.2L8.8,81L9,81.2l0.4,0.2h0.2h0.3h7"/>
<path class="st6" d="M16.9,90h-7l-1.1-0.2H7.9L7,89.6l-1-0.4l-0.9-0.4l-0.7-0.5l-0.9-0.6L3.1,87l-0.6-0.6l-0.6-0.9l-0.3-0.7
	l-0.4-0.9l-0.4-0.7l-0.2-1.1l-0.2-1v-1V58.4"/>
<path class="st6" d="M2.4,48l3-3"/>
<path class="st6" d="M8.5,54.2v4.3"/>
<path class="st6" d="M-0.1,58.4v-4.3"/>
<path class="st6" d="M2.4,48L2,48.2l-0.2,0.3L1.6,49l-0.3,0.2l-0.2,0.4L0.8,50l-0.2,0.3v0.4l-0.2,0.4l-0.2,0.4L0,51.8v0.4v0.4
	l-0.1,0.6v0.5v0.4"/>
<path class="st6" d="M11.7,51l-3.2,3"/>
<path class="st0" d="M14.7,102.5h12.7V68.9H14.7V102.5z"/>
<path class="st1" d="M14.7,100.2h12.7V70.9H14.7V100.2z"/>
<path class="st2" d="M14.7,97h12.7V74.5H14.7V97z"/>
<path class="st3" d="M14.7,93.4h12.7V78.2H14.7V93.4z"/>
<path class="st4" d="M14.7,90.6h12.7v-9.9H14.7V90.6z"/>
<path class="st5" d="M14.7,87.8h12.7v-3.9H14.7V87.8z"/>
<path class="st6" d="M14.7,102.5h12.7V68.9H14.7V102.5"/>
<path class="st20" d="M26.3,104.5L24.2,94l-1.1,8.4h-4.2l-1-8.4l-2,10.4L26.3,104.5L26.3,104.5z"/>
<path class="st20" d="M74.4,59.4l0.6-1l0.5-1.4V43L75,41.8l-0.6-1l-1.2-0.9l-1.3-0.1h-1.4l-1.2,0.3l-1,0.9l-0.9,1L67,43.2v14
	l0.4,1.4l0.9,1l1,0.9l1.2,0.4h1.4l1.3-0.4L74.4,59.4z"/>
<path class="st19" d="M74.6,56.6l0.6-0.9l0.3-1V44.4l-0.3-0.9l-0.6-0.7l-0.7-0.7l-1.1-0.4h-1l-0.9,0.4l-0.7,0.6l-0.6,0.7l-0.4,0.9
	v10.4l0.4,1l0.6,0.9l0.7,0.6l0.9,0.1h1l1.1-0.1L74.6,56.6z"/>
<path class="st21" d="M51.5,57.4V49h-6.2"/>
<path class="st6" d="M51.5,57.4h-6.2V49"/>
</svg>
