<?xml version="1.0" encoding="utf-8"?>
<!-- Generator: Adobe Illustrator 19.0.0, SVG Export Plug-In . SVG Version: 6.00 Build 0)  -->
<svg version="1.1" id="图层_1" xmlns="http://www.w3.org/2000/svg" xmlns:xlink="http://www.w3.org/1999/xlink" x="0px" y="0px"
	 viewBox="-8 1.2 90.5 106.5" style="enable-background:new -8 1.2 90.5 106.5;" xml:space="preserve">
<style type="text/css">
	.st0{fill:url(#SVGID_1_);}
	.st1{fill:url(#SVGID_2_);}
	.st2{fill:url(#SVGID_3_);}
	.st3{fill:none;stroke:#7F7F7F;stroke-width:0.25;}
	.st4{fill:#005500;stroke:#000000;stroke-width:0.25;}
	.st5{fill:#54AA54;stroke:#000000;stroke-width:0.25;}
	.st6{fill:#007F00;}
	.st7{fill:#005500;}
	.st8{fill:#007700;}
	.st9{fill:none;stroke:#000000;stroke-width:0.25;}
</style>
<g>
	
		<linearGradient id="SVGID_1_" gradientUnits="userSpaceOnUse" x1="15.7" y1="86.44" x2="58.9" y2="86.44" gradientTransform="matrix(1 0 0 -1 0 110.16)">
		<stop  offset="0" style="stop-color:#007F00"/>
		<stop  offset="0.5" style="stop-color:#FFFFFF"/>
		<stop  offset="1" style="stop-color:#007F00"/>
	</linearGradient>
	<rect x="15.7" y="6.6" class="st0" width="43.2" height="34.2"/>
	
		<linearGradient id="SVGID_2_" gradientUnits="userSpaceOnUse" x1="-4.95" y1="61.34" x2="79.55" y2="61.34" gradientTransform="matrix(1 0 0 -1 0 110.16)">
		<stop  offset="0" style="stop-color:#007F00"/>
		<stop  offset="0.5" style="stop-color:#FFFFFF"/>
		<stop  offset="1" style="stop-color:#007F00"/>
	</linearGradient>
	<polygon class="st1" points="-5,56.8 15.7,40.8 58.8,40.8 79.7,56.8 	"/>
	
		<linearGradient id="SVGID_3_" gradientUnits="userSpaceOnUse" x1="-4.95" y1="28.24" x2="79.55" y2="28.24" gradientTransform="matrix(1 0 0 -1 0 110.16)">
		<stop  offset="0" style="stop-color:#007F00"/>
		<stop  offset="0.5" style="stop-color:#FFFFFF"/>
		<stop  offset="1" style="stop-color:#007F00"/>
	</linearGradient>
	<rect x="-5" y="56.8" class="st2" width="84.5" height="50.2"/>
	<path class="st3" d="M58.8,40.8H15.7"/>
	<path class="st3" d="M79.3,56.8H-5.2"/>
	<path class="st3" d="M36,40.8v11.4"/>
	<path class="st4" d="M77.3,59.2h-80v45.6h80V59.2z"/>
	<path class="st5" d="M68.2,91.1l0.4,1l0.3,0.1l0.2-0.1l1.2-2.6l0.9-3.9l0.4-3.4l0.3-3.9l0.1-2l0.5,3l0.3,3.3l1.1,3.1l0.4,0.1
		l0.4-0.2l1.2-1.7l0.7-1.7v1.7l-0.1,3l-0.4,3.8L75.6,94l-0.5,3l-0.5,3l-0.2,1l-2.2,1.5l-3,1.4l-3.6,0.5l-3.9,0.3l-2.7,0.2l-1.5-0.1
		l-2.9-0.2l-4.1-0.2h-3.9l-4.1-0.1l-4.2-0.3h-3.1l-3.1,0.1l-3,0.2l-3,0.1l-3.3,0.2l-3.5-0.1l-3.8-0.4l-4.4-0.7l-2.3-0.6l-3,0.4
		l-3.4-0.9l-2.3-2.2l-1.3-2.7l-1-3.8l-0.4-2.3l0.2-1.2l0.4-3.4l0.3-3.4l0.4-3.4l0.4-3.5l0.3-3.4l0.2,4.1l0.4,1l0.3,0.2l0.5-0.1
		l1.7-2.3l1.4-2.3L4,73.3l0.2,0.1l-0.3,4l-1.1,2.5l-0.9,2.9l-0.2,1.6l1.1,2.7l1.1,3.1L5,92.7l0.6,0.6l2.5-1.1l-0.3-3.1l-1.2-2.9
		l-0.3-1.8L6.9,84l0.6-3.6L7,77.3v-1.5l0.2-0.3l0.5-0.1l3.5,2.6l2,1.8l-0.7,2.9l-0.7,2.9l-0.6,2.8L11,88.9l1.6-3l0.5-0.6l0.3-0.2
		l0.3,0.3v4.1l-0.2,2.9l-0.3,4.1l0.1,1.8l0.4-0.3l0.5-3.6l0.3-3.1l0.4-1.3l0.4-0.2l0.5,0.1l2.7,3.6l1.4,2.5L19,93.4l-0.9-2.7
		L16.9,87l-0.5-3.1l0.2-3l1.7-2.7l1.5-2.9l2.1,1.9l2.2,1.9l0.6,3l-0.5,4.1l0.3,2.9l2.6,1l3.1-0.1l0.7,0.9l-0.7-2.7l-1.7-2.1
		l-0.2-3.6l0.9-2.5l1.7-2.9l0.6-3.2l0.6-3.4l1-3.1l0.9-1.5l0.4-0.5v1l0.9,2.9l1.6,3.1l1.3,3.6l0.2,3.1l-0.6,3.7l-1.7,4.5l1.6,2.3
		l1.2,1.1l0.2-0.1l0.2-0.3l0.7-3.5l0.2-3.5l0.3,0.1l1.1,2.8l0.3,1.7h0.2l0.9-1.3L43,83.1l-0.5-3.3L42,76.3l-0.4-3l0.1-1.9l0.3-0.3
		l0.4,0.1l3,4.2l0.4,0.2l2.5-1.4l2.5-1.8l0.5,0.1l0.4,0.3l0.7,3.8l0.1,2.6l-0.2,3.1l-1.7,2.1l-1.1,3.1l0.3,3.6l2.1,2.6l0.5,0.3h0.4
		l0.4-0.3l0.4-0.7l-1-2.9l0.3-3L54,85l1.4-2.8l0.7-2.8l1.1-1.6h0.4l1.7,2.3l1.7,4.3h0.4l2.5-1.2l0.6-0.2l0.2,0.4l-1.4,3L63.3,87
		l0.5,2.7L63,92.9l-0.9,3.5l-0.9,2.2l2.1-1.9l1.8-2.5l1.7-2.2L68.2,91.1z"/>
	<path class="st6" d="M66.4,94.4l0.5,1l0.3,0.2h0.4l0.4-0.1l1.8-2.3l1.2-3.4l0.6-3.1l0.3-3.5l0.5,2.7l0.3,3.1l0.6,2.2l0.3,0.3
		l0.3,0.2l1.4-1.9l0.6-1.5v1.5l-0.4,3.4l-1.1,2.9l-1.2,2.5l-1,2.9l-2.8,1.5l-3.3,0.7l-3.7,0.4l-3.8,0.3l-2.3,0.2l-1.4-0.2l-3.7-0.3
		l-3.6-0.1l-3.5-0.1l-3.6-0.1l-3.9-0.2l-4.1,0.1l-4.1,0.3l-4.4,0.2l-3.2-0.1l-3.4-0.3l-3.9-0.7l-2.2-0.5L8.1,103L5,102.8l-3-1.4
		l-2.6-3.1l-1.2-3.2l-0.7-2.9l-0.2-0.7v-0.7v-0.9l0.4-3.2l1-3.5l0.5-2.9l0.2-1.1l0.2,3.4l0.2,0.6l0.3-0.1l1.1-2.3l1.2-3.6l0.5-1.6
		l-0.4,3.6l-0.3,3.2l-0.1,3.5L2,86.8l1.3,2.5l1.8,2.6l2.3,2.2l0.9,0.3l1.1-0.1l0.6-0.6l-0.4-3.3l-1.1-2.7l-0.3-1.8L9.4,85l0.3-3.4
		l-0.5-2.8v-0.2l1.1,3l0.7,1.9l-0.1,3l0.4,2.8l0.6,2.7l1.6,2.5h0.3l1.4-2.8l0.5-1.2l0.2-0.1l-0.7,3.1l-0.6,2.9l-0.2,2.2L16,96l3-0.9
		l2.3,1.1l-0.7-3.1L19.8,90l-0.9-3.3l-0.2-3.3l1.3-2.8l1.6-2.3l0.2-0.6l1.6,2.3l0.7,2.8l-0.5,3.6l-0.1,3.1l0.7,2.7l2,2.8l2.6,1.1
		l0.7-0.1l1.9-2l0.6-2.8l-1.2-2.7l-1.7-2.3l0.4-3.1l0.4-1.2l1.5-2.9l0.2-3l0.4-2.8l0.5-1.1l0.4-0.4v0.9l1.3,2.7l1.7,2.9l0.4,3.2
		l-0.5,3l-1.6,3.9l1.7,2.5l2.1,2h0.4l1.2-2.5l0.3-3.1l0.6,0.3l1.3,1.8h0.3l1.1-1.6l-0.1-3.1l-0.4-3l-0.4-3.1l-0.2-3.6l0.1-0.6
		l0.3-0.3l0.3,0.2l2.7,3.7l0.4,0.2l2.2-2.2l1.2-1.6l0.3-0.1l0.2,0.2l0.4,3.2l-0.2,5l-1.7,2.5L47,87.6l-0.2,3.6l0.4,1.2l2.2,1.7
		l2.5,1.4l2.7,0.4l0.6-0.7L55.1,92l1.1-2.6l0.1-0.6l0.6-2.8l-0.2-3.1l-0.1-2.3l0.1,0.2l1.4,3l0.7,2.1l0.4,0.1l2.8-1.2l0.2,0.3
		L60.8,88l1.2,2.7l0.2,3.2l-0.6,2.8l-1.3,3.7l2.2-2.1l2.5-2.8L66.4,94.4z"/>
	<path class="st7" d="M66.4,96.8l1.4,2.6l1.5,0.5l1.5-2.8l0.3-2.7l2-2.1l0.5-0.5l0,0v0.1l-1.4,3.3l-1,4.2l-0.2,1.8l-2.8,1.1l-3.6,1
		l-3.5,0.5l-3,0.3l-3.4,0.3l-2,0.2l-1.1-0.1l-3.1-0.2l-3.7-0.1l-3.8-0.1l-3.2-0.2h-3.4l-3.2,0.2l-3.4,0.2h-3.7l-2.9-0.2l-3.2-0.6
		l-3.2-0.9l-2.8-0.5l-3.5-0.5l-3.2-0.4L2.7,100l-2-2.5l-0.5-1.2l2.1,1.8h0.1l-1.7-2.6l-1.8-3.2l-0.7-2.1l-0.1-1l0.2-0.9l0.6-0.6
		l0.2,3.1l0.2-0.1l1.3-3.3l1-2.9L1.8,84l0.1-0.1l-0.4,3.4l-0.1,3.2L1.2,93l2.2,2.7l2.1,1.9l2.1,1.6l2.7,1.3l3.4-0.7l2.7-1.4l0.5-0.6
		l0.1-0.9l1-0.3l0.4-0.3l0.1-0.3l-0.1-0.1l-0.2,0.2l0.2,3.9l2,2l0.7,0.3l1.4-2.8l1.5-1.4l-0.7-2.6l-0.7-3.6v-1.8l0.1-0.2l0.1,0.1
		l1.6,2.2l1.4,2.5l1.4,2.5l2,2.8l1.8,0.9l1.5-3.5l0.3-3.3l-0.4-3.2L32,86.3l0.1-1.9l0.1-0.2l0.2,0.1l1.2,3l0.7,3l0.3,1.4l2,2.2
		l2.8,1.3l2.7-1.4l1.5-2.5l1.2-3l0.6-2.7l0.3-2.2l0.1-0.1h-0.1l-0.3,3l-0.3,3.4l-0.4,4.9l2.5,1.9l3.1,1.2l0.7-0.1l0.4-0.6l0.4,1
		l0.5,0.5l0.5,0.1l2.7-1.3l1.6-1.4l0.1,0.2l-1,3l-0.7,2l2.9-1.1l2.5-1.1l2.6-1l2.6-1.2L66.4,96.8z"/>
	<path class="st5" d="M65.7,81.5L65,80.8l-0.9-0.9l-0.5-0.7l-0.6-1l-0.4-1l-0.1-0.5v-0.5v-0.6l0.3-1.3l0.2-0.7l0.5-0.9l0.5-0.9
		l0.3-0.9l0.6-1.4l0.5-1.3l0.3-1.2l0.3-1.1l0.3-1.1l0.4-1.2l0.2-0.5l0.6,1l0.5,1l0.3,0.9l0.5,1.3l0.3,1.2v0.3v0.4L69,70.4l0.1,0.9
		l-0.4,1l-0.5,1l-0.5,0.9l-0.4,1l-0.3,1.2l-0.3,1l-0.3,1.1l-0.2,1.4L65.7,81.5z"/>
	<path class="st8" d="M65.2,80.6l-0.5-0.7l-0.6-0.6l-0.5-0.7l-0.7-1.5l-0.1-0.9l0.1-1l0.4-1.1l0.9-1.4l0.5-1.3l0.4-1l0.3-1l0.2-1
		l0.3-1.3l0.2-1l0.2-0.5l0.9,1.7l0.6,1.3l0.2,1l0.1,0.7v1v0.9l-0.3,0.9l-0.5,1l-0.4,0.7l-0.3,1l-0.4,1.4l-0.3,0.9l-0.3,1.2
		L65.2,80.6z"/>
	<path class="st7" d="M65.2,78.7L64.5,78l-0.6-0.9L63.6,76l0.3-1.4l0.5-1l0.6-1.5l0.3-1.2l0.3-1.2l0.2-0.6l0.6,1.1l0.3,0.7l0.3,1.1
		v1v0.3l-0.4,0.9l-0.5,1.2l-0.3,0.7l-0.2,1.1L65.2,78.7z"/>
	<path class="st5" d="M26.9,77.9l-0.6-0.6l-0.6-0.6L25.1,76l-0.5-0.7l-0.5-0.9l-0.1-1l0.1-1l0.5-1.2l0.4-0.9l0.6-1.4l0.5-1.2
		l0.3-1.2l0.3-1l0.2-0.9l0.3-1l0.3-1l0.2-0.5l1,1.7l0.6,1.3l0.3,1l0.1,1.4l-0.1,1l0.1,0.4l-0.3,0.9l-0.5,0.9l-0.5,0.7L28,72.7
		l-0.2,1.7l-0.3,1l-0.2,1.2L26.9,77.9z"/>
	<path class="st8" d="M26.7,77l-1.1-1.2l-1-1.1l-0.3-1.3l0.1-0.7l0.3-1l0.7-1.3l0.4-1l0.4-1l0.3-1.2l0.3-1l0.3-1.2l0.2-0.4l0.7,1.3
		l0.4,1.1l0.7,1.4L29,69.6l0.1,0.3l-0.4,1l-0.4,0.7l-0.4,0.9l-0.2,1l-0.4,1.4l-0.2,1L26.7,77z"/>
	<path class="st5" d="M13.6,74.3l1-1.1l0.9-1.2l0.3-1.4v-0.9l-0.4-0.9l-0.6-1.2l-0.5-1.1L14,65.6l-0.3-1.2l-0.4-1.2l-0.4-0.8
		L12.7,62L12,63.3l-0.5,1.1l-0.3,1.4v1.3v0.3l0.3,1l0.5,0.7l0.3,0.9l0.3,1l0.4,1.4l0.2,1L13.6,74.3z"/>
	<path class="st8" d="M13.7,73.6l0.7-1l0.7-1l0.2-1.1l-0.2-1.4l-0.5-0.9l-0.4-0.9L13.7,66l-0.3-1.2L13,63.7l-0.5,1.2L12,65.8
		l-0.3,1.1l0.2,1l0.2,1l0.5,0.9L13,71l0.3,1.2L13.7,73.6z"/>
	<ellipse class="st7" cx="13.7" cy="69.2" rx="1.2" ry="3.1"/>
	<path class="st5" d="M54,72.5l1-0.7l0.6-0.9l0.3-1.2L55.8,69l-0.2-0.9l-0.5-1l-0.3-0.7L54.3,65l-0.2-1.2l-0.4-1.4L53,63.6l-0.3,0.9
		l-0.3,1.2l0.1,1l-0.1,0.2l0.4,1.1l0.5,1.2l0.2,0.6l0.3,1.2L54,72.5z"/>
	<ellipse class="st8" cx="54.3" cy="68" rx="1.5" ry="3.9"/>
	<ellipse class="st7" cx="54.3" cy="68.3" rx="1" ry="2.6"/>
	<path class="st9" d="M79.7,107V56.8l-20.8-16V6.6H15.7v34.2l-20.6,16V107H79.7z"/>
</g>
</svg>
