<?xml version="1.0" encoding="utf-8"?>
<!-- Generator: Adobe Illustrator 19.0.0, SVG Export Plug-In . SVG Version: 6.00 Build 0)  -->
<svg version="1.1" id="图层_1" xmlns="http://www.w3.org/2000/svg" xmlns:xlink="http://www.w3.org/1999/xlink" x="0px" y="0px"
	 viewBox="-11 1.2 84.7 106.5" style="enable-background:new -11 1.2 84.7 106.5;" xml:space="preserve">
<style type="text/css">
	.st0{fill:#002200;stroke:#000000;stroke-width:0.5;}
	.st1{fill:url(#SVGID_1_);stroke:#000000;stroke-width:0.5;}
	.st2{fill:none;stroke:#000000;stroke-width:0.5;}
	.st3{fill:#002200;}
	.st4{fill:#42A142;stroke:#000000;stroke-width:0.5;}
	.st5{fill:url(#SVGID_2_);stroke:#000000;stroke-width:0.5;}
	.st6{fill:#003B00;}
	.st7{fill:url(#SVGID_3_);stroke:#000000;stroke-width:0.5;}
	.st8{fill:#82C182;stroke:#000000;stroke-width:0.5;}
	.st9{fill:#006E00;stroke:#000000;stroke-width:0.5;}
	.st10{fill:#003B00;stroke:#000000;stroke-width:0.5;}
	.st11{fill:#007F00;stroke:#000000;stroke-width:0.5;}
	.st12{fill:#98CB98;stroke:#000000;stroke-width:0.5;}
	.st13{fill:#CAE4CA;stroke:#000000;stroke-width:0.5;}
	.st14{stroke:#000000;stroke-width:0.5;}
	.st15{fill:#64B264;stroke:#000000;stroke-width:0.5;}
</style>
<g>
	<path class="st0" d="M27,105H11.8v2.1H27V105L27,105z"/>
	
		<linearGradient id="SVGID_1_" gradientUnits="userSpaceOnUse" x1="-20" y1="51.13" x2="58.6" y2="51.13" gradientTransform="matrix(1 0 0 1 0 2.44)">
		<stop  offset="0" style="stop-color:#003300"/>
		<stop  offset="0.5" style="stop-color:#008000"/>
		<stop  offset="1" style="stop-color:#003300"/>
	</linearGradient>
	<path class="st1" d="M58.6,13.1v15.4L32.5,89.6l-13,4.4L6.4,89.6L-20,28.5V13.1H58.6z"/>
	<path class="st2" d="M58.6,13.1v15.4L32.5,89.6l-13,4.4L6.4,89.6L-20,28.5V13.1H58.6"/>
	<path class="st3" d="M-7,46l0.1-8.8L-9.1,35v37.1L-7,46z"/>
	<path class="st3" d="M45.5,46v-8.8l2.2-2.2v37.1L45.5,46z"/>
	<path class="st4" d="M-15.6,105V35h6.5v70H-15.6z"/>
	<path class="st4" d="M54.4,105V35h-6.5v70H54.4z"/>
	<path class="st2" d="M58.6,28.5H-20"/>
	
		<linearGradient id="SVGID_2_" gradientUnits="userSpaceOnUse" x1="-9.1" y1="8.48" x2="47.8" y2="8.48" gradientTransform="matrix(1 0 0 1 0 2.44)">
		<stop  offset="0" style="stop-color:#003300"/>
		<stop  offset="0.5" style="stop-color:#008000"/>
		<stop  offset="1" style="stop-color:#003300"/>
	</linearGradient>
	<path class="st5" d="M47.8,8.7H-9.1v4.4h56.9L47.8,8.7z"/>
	<path class="st6" d="M39,6.6H-0.4v2.1H39V6.6z"/>
	
		<linearGradient id="SVGID_3_" gradientUnits="userSpaceOnUse" x1="-0.35" y1="5.23" x2="39.05" y2="5.23" gradientTransform="matrix(1 0 0 1 0 2.44)">
		<stop  offset="0" style="stop-color:#003300"/>
		<stop  offset="0.5" style="stop-color:#008000"/>
		<stop  offset="1" style="stop-color:#003300"/>
	</linearGradient>
	<path class="st7" d="M39,6.6H-0.4v2.1H39V6.6z"/>
	<path class="st8" d="M26,19.7h-41.6v6.5H26V19.7z"/>
	<path class="st9" d="M58.6,105H43.5v2.1h15.3V105H58.6z"/>
	<path class="st9" d="M-4.8,105H-20v2.1h15.2V105z"/>
	<path class="st10" d="M23.8,96.2l12-9.8H2.9L15,96.2H23.8z"/>
	<path class="st11" d="M10.9,95.3H9.2v8.5h1.7V95.3z"/>
	<path class="st11" d="M29.5,95.3h-1.6v8.5h1.6V95.3z"/>
	<circle class="st12" cx="19.3" cy="99.6" r="7.6"/>
	<path class="st13" d="M30.3,97.1H8.4v5h21.9V97.1L30.3,97.1z"/>
	<path class="st2" d="M30.3,99.6H8.4"/>
	<circle class="st10" cx="19.3" cy="99.6" r="6.7"/>
	<circle class="st14" cx="19.3" cy="99.6" r="5"/>
	<path class="st15" d="M38,79.8H0.7v6.5H38V79.8z"/>
	<path class="st11" d="M21,87.2v1.7h8.4v-1.7H21z"/>
	<path class="st11" d="M21,77v1.7h8.4V77H21z"/>
	<path class="st13" d="M22.8,75.4v14.3h5V75.4H22.8z"/>
	<path class="st2" d="M25.1,75.4v14.3"/>
</g>
</svg>
