<?xml version="1.0" encoding="utf-8"?>
<!-- Generator: Adobe Illustrator 19.0.0, SVG Export Plug-In . SVG Version: 6.00 Build 0)  -->
<svg version="1.1" id="图层_1" xmlns="http://www.w3.org/2000/svg" xmlns:xlink="http://www.w3.org/1999/xlink" x="0px" y="0px"
	 viewBox="5 1.2 118.6 106.5" style="enable-background:new 5 1.2 118.6 106.5;" xml:space="preserve">
<style type="text/css">
	.st0{fill:#7EBF7E;stroke:#000000;stroke-width:0.25;stroke-linejoin:round;}
	.st1{fill:#B2D8B2;stroke:#000000;stroke-width:0.25;stroke-linejoin:round;}
	.st2{fill:#329932;stroke:#000000;stroke-width:0.25;stroke-linejoin:round;}
	.st3{fill:#98CB98;stroke:#000000;stroke-width:0.25;stroke-linejoin:round;}
	.st4{fill:#329932;}
	.st5{fill:#64B264;}
	.st6{fill:#98CB98;}
	.st7{fill:#CAE4CA;}
	.st8{fill:none;stroke:#000000;stroke-width:0.25;stroke-linejoin:round;}
	.st9{fill:#E4F1E4;stroke:#000000;stroke-width:0.25;stroke-linejoin:round;}
	.st10{fill:#FFFFFF;}
</style>
<path class="st0" d="M80.3,38.8l-14.6,8.4l3.8,1.2l2.4,2.3l1.9,3l1.3,3.9l0.4,4.3l-0.2,3.6l-1,3.3l-1.3,3l-2.5,3.1l-1.5,1l-0.8,0.3
	l14.6-8.8l2.9-2l2.3-3.2l1.2-3l0.7-3.4l0.1-1.2v-1.2v-1.5l-0.7-4.2l-1.5-3.6l-2-2.9l-2.6-1.9l-1.8-0.6h-1.1
	C80.3,38.7,80.3,38.8,80.3,38.8z"/>
<path class="st0" d="M30.5,68.4l2.9-2l2.3-3.2l1.3-3l0.6-3.4l0.1-3.7l-0.5-3.4l-1.1-3.2l-1.5-2.7L32,41.2l-0.7-0.5l-0.8-0.5l17,7.4
	l3,1.9l2.3,3.2l1.2,3.1l0.7,3.4l0.1,1.2v1.2v1.2l-0.5,3.6l-1.1,3.2l-1.5,2.6L49,74.8l-0.8,0.5l-0.7,0.4L30.5,68.4z"/>
<path class="st1" d="M9.1,85.4L40.7,83l-1-3.4l-0.6-3.7L39,72.6L38.9,69l0.1-4.4l0.4-3.8l0.6-3.9l1.2-2.5h0.1L9.7,56.8l-0.2,0.1
	l-1.3,3.3l-0.6,4.3l-0.2,3.9v1.5v1.4v3.6l0.2,3.3L8,81.9L8.8,85L9.1,85.4z"/>
<path class="st1" d="M85.8,82.4l31.7-1.2l1.1-3.4l0.5-3.8l0.2-3.3v-1.1v-1.3v-1.2l-0.1-4.3l-0.2-3.9l-0.7-3.9l-1.1-2.4l-0.2-0.1
	l-31.7,1.3h0.2l1.3,3.3l0.6,4.3l0.2,4l0.1,4.2L87.6,73l-0.4,3.2l-0.5,3.4L86,82.1L85.8,82.4z"/>
<path class="st2" d="M38.9,71.4v-1.8h48.7l-0.5,3.3L84.6,75l-4.2,1.8l-3.7,1.1l-4,0.7l-4.5,0.6l-4.9,0.1l-4.9-0.1l-4.6-0.6l-4-0.7
	l-3.7-1.1l-3-1.2l-3.1-2L38.9,71.4z"/>
<ellipse class="st3" cx="63.3" cy="68.3" rx="24.4" ry="8.4"/>
<path class="st4" d="M46.2,67.9V45.2h34.2v22.7l-0.1,0.6l-2.9,2.4l-3.3,1.3L70,73l-3.2,0.4l-3.4,0.1L60,73.4L56.8,73l-4.3-0.8
	l-3.3-1.3L46.6,69l-0.2-0.5L46.2,67.9z"/>
<path class="st5" d="M51.1,67.9v-4.3v-1.4v-1.4v-10v-1.4v-4.2h4.5l1.5-0.1h1.5h10.7l1.5,0.1h3h1.5v1.4v2.7v1.4v11.5v1.4v4.3L75.1,69
	l-0.7,1l-1.1,1l-1.5,0.8L71,72.1l-1,0.4l-1,0.2l-1.2,0.2l-1.1,0.2l-1.2,0.1l-1.2,0.1h-1.2H62l-1.2-0.1l-1.2-0.1l-1.1-0.2l-1.1-0.2
	l-1.1-0.2l-1-0.4l-1.5-0.7l-1.3-1l-1-1L51,68.3L51.1,67.9z"/>
<path class="st6" d="M55.9,67.9v-4.3v-1.4v-1.4v-10v-1.4v-4.2h2.7l1-0.1h0.8h6.4l1.9,0.1h0.8h1v1.4v2.7v1.4v11.5v1.4v4.3L70.4,69
	l-0.5,1l-0.6,1l-1,0.8l-1.1,0.7L66,73l-1.4,0.4H64h-0.7h-0.8l-1.4-0.2l-1.3-0.5l-1.2-0.6l-1-0.7l-0.7-1l-0.6-1l-0.4-1.1
	C55.9,68.3,55.9,67.9,55.9,67.9z"/>
<path class="st7" d="M60.8,67.9V45.2h5v22.7L65.7,69l-0.1,1l-0.2,1l-0.2,1l-0.5,0.6l-0.4,0.6l-0.5,0.4l-0.5,0.1l-0.5-0.1l-0.5-0.4
	L62,72.4l-0.5-0.6l-0.2-1l-0.2-1l-0.1-1L60.8,67.9z"/>
<path class="st8" d="M46.2,67.9V45.2h34.2v22.7l-0.1,0.6l-2.9,2.4l-3.3,1.3L70,73l-3.2,0.4l-3.4,0.1L60,73.4L56.8,73l-4.3-0.8
	l-3.3-1.3L46.6,69l-0.2-0.5L46.2,67.9"/>
<ellipse class="st3" cx="63.3" cy="45.2" rx="17.1" ry="4.9"/>
<path class="st9" d="M76.6,89.1l-2.8-1.9L71.5,84l-1.3-3.1l-0.7-3.4l-0.1-1.3V75v-1.4l0.8-4.3l1.4-3.6l2-2.9l2.6-1.8l1.9-0.6l1-0.1
	l24.4,12.2l-3.8,1.1l-2.4,2.3L95.4,79l-1.2,3.8l-0.5,4.4l0.4,3.6l0.8,3.3l1.3,2.9l2.5,3l1.4,1l0.8,0.4L76.6,89.1z"/>
<path class="st9" d="M42,105.5l14.5-17l-2.9-2l-2.4-3.1L50,80.3l-0.6-3.4L49.3,73l0.7-4.2l1.4-3.6l2-2.9l2.6-1.8l1.9-0.6l1-0.1
	l-14.6,17L40.6,78l-2.4,2.2l-1.7,3l-1.4,4l-0.4,2.9l-0.1,1.4l0.1,1.2l0.5,3.6l1.1,3.2l1.5,2.7l2.6,2.6l0.7,0.4L42,105.5z"/>
<path class="st1" d="M39.5,78.7l0.6-0.5l0.6-0.4l0.6-0.2l0.6-0.4l0.5-0.2l0.7-0.1l0.6-0.1h0.6l14.6-17h-0.6l-0.6,0.1L57,60l-0.6,0.2
	l-0.6,0.2l-0.6,0.4l-0.6,0.4L54,61.7L39.5,78.7z"/>
<path class="st4" d="M51.2,44.1v-36h24.4v36l-2.9,1.8l-3.6,0.7L65.7,47l-1.3,0.1L60.7,47l-3.3-0.4l-3.6-0.7l-2.7-1.5
	C51.1,44.4,51.1,44.1,51.2,44.1z"/>
<path class="st5" d="M54.5,44.1v-6.9v-1V35V16v-3.4V8.1h3.2L58.9,8H60h7.6l3.3,0.1H72v1.1v5.6v3.4v18v3.4v4.5v0.2l-2.6,1.9l-3.6,0.7
	L65,47h-0.8h-0.8L60,46.8L56.6,46l-1.9-1.5L54.5,44.1z"/>
<path class="st6" d="M58,44.1v-6.9v-1V35V16v-3.4V8.1h2L60.6,8h0.7h4.6l2,0.1h0.6v1.1v5.6v3.4v18v3.4v4.5l-2.3,2.4l-2,0.5h-1.1H62
	l-3.3-1.3L58,44.1z"/>
<path class="st7" d="M61.5,44.1v-36h3.6v36v0.5L65,45.2l-0.1,0.5l-0.3,0.5l-0.2,0.4L64,46.9L63.6,47l-0.4,0.1L63,47l-0.4-0.1
	l-0.4-0.4L62,46.2l-0.2-0.5l-0.2-0.5l-0.1-0.6C61.5,44.6,61.5,44.1,61.5,44.1z"/>
<path class="st8" d="M51.2,44.1v-36h24.4v36l-2.9,1.8l-3.6,0.7L65.7,47l-1.3,0.1L60.7,47l-3.3-0.4l-3.6-0.7l-2.7-1.5L51.2,44.1"/>
<ellipse class="st3" cx="63.3" cy="8.1" rx="12.1" ry="2.4"/>
<path class="st10" d="M94.9,74.6L76.2,64.1l-3.1,3.7L92,77.5L94.9,74.6z"/>
<path class="st10" d="M53,87.9l-2.5-2.4L38.4,98.2l1.8,2.4L53,87.9z"/>
</svg>
