<?xml version="1.0" encoding="utf-8"?>
<!-- Generator: Adobe Illustrator 21.0.0, SVG Export Plug-In . SVG Version: 6.00 Build 0)  -->
<svg version="1.1" id="Layer_2" xmlns:agg="http://www.example.com"
	 xmlns="http://www.w3.org/2000/svg" xmlns:xlink="http://www.w3.org/1999/xlink" x="0px" y="0px" viewBox="0 0 127 152"
	 style="enable-background:new 0 0 127 152;" xml:space="preserve">
<style type="text/css">
	.st0{fill:url(#SVGID_1_);}
	.st1{fill:url(#SVGID_2_);}
	.st2{fill:url(#SVGID_3_);}
	.st3{fill:url(#SVGID_4_);}
	.st4{fill:url(#SVGID_5_);}
	.st5{fill:url(#SVGID_6_);}
	.st6{fill:url(#SVGID_7_);}
	.st7{fill:url(#SVGID_8_);}
	.st8{fill:url(#SVGID_9_);}
	.st9{fill:url(#SVGID_10_);}
	.st10{fill:url(#SVGID_11_);}
	.st11{opacity:0.1;enable-background:new    ;}
	.st12{opacity:0.5;fill:#FFFFFF;enable-background:new    ;}
	.st13{fill:url(#SVGID_12_);}
	.st14{fill:url(#SVGID_13_);}
	.st15{opacity:0.2;fill:#3664BF;enable-background:new    ;}
	.st16{opacity:0.5;}
	.st17{fill:none;stroke:#000000;stroke-width:0.5;stroke-linejoin:round;}
</style>
<agg:params>
	<agg:param  classes="color" cssAttributes="fill" description="Color" name="color" type="C"></agg:param>
	<agg:param  classes="color" cssAttributes="opacity" description="Saturation" max="1" min="0" name="saturation" type="F">
		</agg:param>
</agg:params>
<linearGradient id="SVGID_1_" gradientUnits="userSpaceOnUse" x1="122.7373" y1="144.7684" x2="85.9162" y2="117.5539" gradientTransform="matrix(1 0 0 -1 0 151.89)">
	<stop  offset="0.3817" style="stop-color:#99A3B2"/>
	<stop  offset="0.5753" style="stop-color:#ADB7C5"/>
	<stop  offset="0.9997" style="stop-color:#F6FAFC"/>
</linearGradient>
<polygon class="st0" points="89.4,7.1 89.4,37.7 122.9,31.6 122.9,22.5 122.9,13.2 "/>
<linearGradient id="SVGID_2_" gradientUnits="userSpaceOnUse" x1="-3.6042" y1="64.7022" x2="30.0382" y2="16.6558" gradientTransform="matrix(1 0 0 -1 0 151.89)">
	<stop  offset="5.100000e-03" style="stop-color:#4D5C75"/>
	<stop  offset="0.127" style="stop-color:#5C6780"/>
	<stop  offset="0.3681" style="stop-color:#828B9E"/>
	<stop  offset="0.4788" style="stop-color:#99A3B2"/>
	<stop  offset="0.4946" style="stop-color:#ADB7C5"/>
	<stop  offset="0.9997" style="stop-color:#F6FAFC"/>
</linearGradient>
<polygon class="st1" points="10.2,77.5 16.3,77.5 16.3,144.9 10.2,144.9 "/>
<linearGradient id="SVGID_3_" gradientUnits="userSpaceOnUse" x1="45.1658" y1="64.7022" x2="78.8082" y2="16.6558" gradientTransform="matrix(1 0 0 -1 0 151.89)">
	<stop  offset="5.100000e-03" style="stop-color:#4D5C75"/>
	<stop  offset="0.127" style="stop-color:#5C6780"/>
	<stop  offset="0.3681" style="stop-color:#828B9E"/>
	<stop  offset="0.4788" style="stop-color:#99A3B2"/>
	<stop  offset="0.4946" style="stop-color:#ADB7C5"/>
	<stop  offset="0.9997" style="stop-color:#F6FAFC"/>
</linearGradient>
<polygon class="st2" points="58.9,77.5 65,77.5 65,144.9 58.9,144.9 "/>
<linearGradient id="SVGID_4_" gradientUnits="userSpaceOnUse" x1="25.434" y1="29.9785" x2="49.819" y2="29.9785" gradientTransform="matrix(1 0 0 -1 0 151.89)">
	<stop  offset="0" style="stop-color:#B0B6BD"/>
	<stop  offset="6.230000e-02" style="stop-color:#C2C7CC"/>
	<stop  offset="0.1545" style="stop-color:#D8DBDF"/>
	<stop  offset="0.2524" style="stop-color:#E8EBED"/>
	<stop  offset="0.3587" style="stop-color:#F2F5F7"/>
	<stop  offset="0.4892" style="stop-color:#F6FAFC"/>
	<stop  offset="0.5306" style="stop-color:#F1F3F4"/>
	<stop  offset="0.5736" style="stop-color:#E3E4E5"/>
	<stop  offset="0.6172" style="stop-color:#CECDCF"/>
	<stop  offset="0.6612" style="stop-color:#B3B1B4"/>
	<stop  offset="0.7053" style="stop-color:#959296"/>
	<stop  offset="0.72" style="stop-color:#8A888B"/>
	<stop  offset="1" style="stop-color:#F6FAFC"/>
</linearGradient>
<polygon class="st3" points="25.4,120.4 49.8,120.4 49.8,123.4 25.4,123.4 "/>
<g id="cyl">
	
		<linearGradient id="SVGID_5_" gradientUnits="userSpaceOnUse" x1="-9.1655" y1="67.6165" x2="70.6162" y2="47.7246" gradientTransform="matrix(1 0 0 -1 0 151.89)">
		<stop  offset="0.1183" style="stop-color:#4D5C75"/>
		<stop  offset="0.1584" style="stop-color:#697188"/>
		<stop  offset="0.2145" style="stop-color:#8C90A3"/>
		<stop  offset="0.271" style="stop-color:#ADB0BD"/>
		<stop  offset="0.3269" style="stop-color:#C9CBD4"/>
		<stop  offset="0.3823" style="stop-color:#E0E2E7"/>
		<stop  offset="0.4367" style="stop-color:#F0F3F5"/>
		<stop  offset="0.4892" style="stop-color:#F6FAFC"/>
		<stop  offset="0.5306" style="stop-color:#F1F3F4"/>
		<stop  offset="0.5736" style="stop-color:#E3E4E5"/>
		<stop  offset="0.6172" style="stop-color:#CECDCF"/>
		<stop  offset="0.6612" style="stop-color:#B3B1B4"/>
		<stop  offset="0.7053" style="stop-color:#959296"/>
		<stop  offset="0.72" style="stop-color:#8A888B"/>
		<stop  offset="1" style="stop-color:#F6FAFC"/>
	</linearGradient>
	<polygon class="st4" points="1,77.5 25.4,120.4 49.8,120.4 74.2,77.5 	"/>
	
		<linearGradient id="SVGID_6_" gradientUnits="userSpaceOnUse" x1="1" y1="111.075" x2="74.155" y2="111.075" gradientTransform="matrix(1 0 0 -1 0 151.89)">
		<stop  offset="0.1183" style="stop-color:#4D5C75"/>
		<stop  offset="0.1584" style="stop-color:#697188"/>
		<stop  offset="0.2145" style="stop-color:#8C90A3"/>
		<stop  offset="0.271" style="stop-color:#ADB0BD"/>
		<stop  offset="0.3269" style="stop-color:#C9CBD4"/>
		<stop  offset="0.3823" style="stop-color:#E0E2E7"/>
		<stop  offset="0.4367" style="stop-color:#F0F3F5"/>
		<stop  offset="0.4892" style="stop-color:#F6FAFC"/>
		<stop  offset="0.5306" style="stop-color:#F1F3F4"/>
		<stop  offset="0.5736" style="stop-color:#E3E4E5"/>
		<stop  offset="0.6172" style="stop-color:#CECDCF"/>
		<stop  offset="0.6612" style="stop-color:#B3B1B4"/>
		<stop  offset="0.7053" style="stop-color:#959296"/>
		<stop  offset="0.72" style="stop-color:#8A888B"/>
		<stop  offset="1" style="stop-color:#F6FAFC"/>
	</linearGradient>
	<polyline class="st5" points="1,77.5 1,4.1 74.2,4.1 74.2,77.5 1,77.5 	"/>
	
		<linearGradient id="SVGID_7_" gradientUnits="userSpaceOnUse" x1="37.577" y1="147.803" x2="37.577" y2="147.803" gradientTransform="matrix(1 0 0 -1 0 151.89)">
		<stop  offset="3.760000e-02" style="stop-color:#F6FAFC"/>
		<stop  offset="0.1086" style="stop-color:#F0F1F3"/>
		<stop  offset="0.1976" style="stop-color:#DEDFE0"/>
		<stop  offset="0.2962" style="stop-color:#C5C4C6"/>
		<stop  offset="0.4011" style="stop-color:#A6A4A7"/>
		<stop  offset="0.4892" style="stop-color:#8A888B"/>
		<stop  offset="0.5649" style="stop-color:#8F8D91"/>
		<stop  offset="0.6776" style="stop-color:#9F9DA0"/>
		<stop  offset="0.8133" style="stop-color:#BCBABC"/>
		<stop  offset="0.9657" style="stop-color:#E9EAEB"/>
		<stop  offset="1" style="stop-color:#F6FAFC"/>
	</linearGradient>
	<polygon class="st6" points="37.6,4.1 37.6,4.1 37.6,4.1 	"/>
	
		<linearGradient id="SVGID_8_" gradientUnits="userSpaceOnUse" x1="28.458" y1="25.3995" x2="46.748" y2="25.3995" gradientTransform="matrix(1 0 0 -1 0 151.89)">
		<stop  offset="5.100000e-03" style="stop-color:#4D5C75"/>
		<stop  offset="5.750000e-02" style="stop-color:#697188"/>
		<stop  offset="0.1307" style="stop-color:#8C90A3"/>
		<stop  offset="0.2044" style="stop-color:#ADB0BD"/>
		<stop  offset="0.2774" style="stop-color:#C9CBD4"/>
		<stop  offset="0.3497" style="stop-color:#E0E2E7"/>
		<stop  offset="0.4207" style="stop-color:#F0F3F5"/>
		<stop  offset="0.4892" style="stop-color:#F6FAFC"/>
		<stop  offset="0.5306" style="stop-color:#F1F3F4"/>
		<stop  offset="0.5736" style="stop-color:#E3E4E5"/>
		<stop  offset="0.6172" style="stop-color:#CECDCF"/>
		<stop  offset="0.6612" style="stop-color:#B3B1B4"/>
		<stop  offset="0.7053" style="stop-color:#959296"/>
		<stop  offset="0.72" style="stop-color:#8A888B"/>
		<stop  offset="1" style="stop-color:#F6FAFC"/>
	</linearGradient>
	<polygon class="st7" points="28.5,123.4 46.7,123.4 46.7,129.6 28.5,129.6 	"/>
	
		<linearGradient id="SVGID_9_" gradientUnits="userSpaceOnUse" x1="11.681" y1="26.995" x2="11.681" y2="26.995" gradientTransform="matrix(1 0 0 -1 0 151.89)">
		<stop  offset="5.100000e-03" style="stop-color:#4D5C75"/>
		<stop  offset="5.750000e-02" style="stop-color:#697188"/>
		<stop  offset="0.1307" style="stop-color:#8C90A3"/>
		<stop  offset="0.2044" style="stop-color:#ADB0BD"/>
		<stop  offset="0.2774" style="stop-color:#C9CBD4"/>
		<stop  offset="0.3497" style="stop-color:#E0E2E7"/>
		<stop  offset="0.4207" style="stop-color:#F0F3F5"/>
		<stop  offset="0.4892" style="stop-color:#F6FAFC"/>
		<stop  offset="0.5306" style="stop-color:#F1F3F4"/>
		<stop  offset="0.5736" style="stop-color:#E3E4E5"/>
		<stop  offset="0.6172" style="stop-color:#CECDCF"/>
		<stop  offset="0.6612" style="stop-color:#B3B1B4"/>
		<stop  offset="0.7053" style="stop-color:#959296"/>
		<stop  offset="0.72" style="stop-color:#8A888B"/>
		<stop  offset="1" style="stop-color:#F6FAFC"/>
	</linearGradient>
	<polygon class="st8" points="11.7,124.9 11.7,124.9 11.7,124.9 	"/>
	
		<linearGradient id="SVGID_10_" gradientUnits="userSpaceOnUse" x1="124.462" y1="117.6361" x2="124.462" y2="141.8481" gradientTransform="matrix(1 0 0 -1 0 151.89)">
		<stop  offset="5.100000e-03" style="stop-color:#4D5C75"/>
		<stop  offset="5.000000e-02" style="stop-color:#697188"/>
		<stop  offset="0.1127" style="stop-color:#8C90A3"/>
		<stop  offset="0.1759" style="stop-color:#ADB0BD"/>
		<stop  offset="0.2385" style="stop-color:#C9CBD4"/>
		<stop  offset="0.3004" style="stop-color:#E0E2E7"/>
		<stop  offset="0.3613" style="stop-color:#F0F3F5"/>
		<stop  offset="0.42" style="stop-color:#F6FAFC"/>
		<stop  offset="0.4738" style="stop-color:#F1F3F4"/>
		<stop  offset="0.5296" style="stop-color:#E3E4E5"/>
		<stop  offset="0.5863" style="stop-color:#CECDCF"/>
		<stop  offset="0.6436" style="stop-color:#B3B1B4"/>
		<stop  offset="0.7008" style="stop-color:#959296"/>
		<stop  offset="0.72" style="stop-color:#8A888B"/>
		<stop  offset="1" style="stop-color:#F6FAFC"/>
	</linearGradient>
	<polygon class="st9" points="122.9,34.7 126,34.7 126,10.2 122.9,10.2 	"/>
	
		<linearGradient id="SVGID_11_" gradientUnits="userSpaceOnUse" x1="87.887" y1="108.038" x2="87.887" y2="151.0949" gradientTransform="matrix(1 0 0 -1 0 151.89)">
		<stop  offset="5.100000e-03" style="stop-color:#4D5C75"/>
		<stop  offset="5.000000e-02" style="stop-color:#697188"/>
		<stop  offset="0.1127" style="stop-color:#8C90A3"/>
		<stop  offset="0.1759" style="stop-color:#ADB0BD"/>
		<stop  offset="0.2385" style="stop-color:#C9CBD4"/>
		<stop  offset="0.3004" style="stop-color:#E0E2E7"/>
		<stop  offset="0.3613" style="stop-color:#F0F3F5"/>
		<stop  offset="0.42" style="stop-color:#F6FAFC"/>
		<stop  offset="0.4738" style="stop-color:#F1F3F4"/>
		<stop  offset="0.5296" style="stop-color:#E3E4E5"/>
		<stop  offset="0.5863" style="stop-color:#CECDCF"/>
		<stop  offset="0.6436" style="stop-color:#B3B1B4"/>
		<stop  offset="0.7008" style="stop-color:#959296"/>
		<stop  offset="0.72" style="stop-color:#8A888B"/>
		<stop  offset="1" style="stop-color:#F6FAFC"/>
	</linearGradient>
	<polygon class="st10" points="86.3,43.9 89.4,43.9 89.4,1 86.3,1 	"/>
</g>
<polygon class="st11" points="74.2,40.8 37.6,40.8 74.2,64.9 "/>
<polygon class="st11" points="89.4,37.7 122.9,31.6 122.9,22.5 "/>
<polygon class="st12" points="89.4,7.1 122.9,22.5 122.9,13.2 "/>
<g id="flat">
	
		<linearGradient id="SVGID_12_" gradientUnits="userSpaceOnUse" x1="-17.7841" y1="69.184" x2="24.1014" y2="8.7591" gradientTransform="matrix(1 0 0 -1 0 151.89)">
		<stop  offset="5.100000e-03" style="stop-color:#4D5C75"/>
		<stop  offset="0.127" style="stop-color:#5C6780"/>
		<stop  offset="0.3681" style="stop-color:#828B9E"/>
		<stop  offset="0.4788" style="stop-color:#99A3B2"/>
		<stop  offset="0.4946" style="stop-color:#ADB7C5"/>
		<stop  offset="0.9997" style="stop-color:#F6FAFC"/>
	</linearGradient>
	<polygon class="st13" points="1,77.5 7.1,77.5 7.1,151 1,151 	"/>
	
		<linearGradient id="SVGID_13_" gradientUnits="userSpaceOnUse" x1="49.2258" y1="69.1841" x2="91.1112" y2="8.7592" gradientTransform="matrix(1 0 0 -1 0 151.89)">
		<stop  offset="5.100000e-03" style="stop-color:#4D5C75"/>
		<stop  offset="0.127" style="stop-color:#5C6780"/>
		<stop  offset="0.3681" style="stop-color:#828B9E"/>
		<stop  offset="0.4788" style="stop-color:#99A3B2"/>
		<stop  offset="0.4946" style="stop-color:#ADB7C5"/>
		<stop  offset="0.9997" style="stop-color:#F6FAFC"/>
	</linearGradient>
	<polygon class="st14" points="68.1,77.5 74.2,77.5 74.2,151 68.1,151 	"/>
</g>
<path class="st15" d="M28.5,123.4v1.5H16.3v-20.5l9.1,16h0v3H28.5z"/>
<g id="图层_2">
	<polygon class="st15" points="122.9,10.2 122.9,13.2 89.4,7.1 89.4,1 86.3,1 86.3,4.1 1,4.1 1,151 7.1,151 7.1,88.3 10.2,93.7 
		10.2,144.9 16.3,144.9 16.3,128 28.5,128 28.5,129.6 46.7,129.6 46.7,123.4 49.8,123.4 49.8,120.4 49.8,120.4 58.9,104.3 
		58.9,144.9 65,144.9 65,93.6 68.1,88.3 68.1,151 74.2,151 74.2,40.8 86.3,40.8 86.3,43.9 89.4,43.9 89.4,37.7 122.9,31.6 
		122.9,34.7 126,34.7 126,10.2 	"/>
</g>
<g class="st16">
	<line class="st17" x1="89.4" y1="7.1" x2="122.9" y2="13.2"/>
	<line class="st17" x1="122.9" y1="31.6" x2="89.4" y2="37.7"/>
	<polyline class="st17" points="86.3,4.1 1,4.1 1,151 7.1,151 7.1,77.5 	"/>
	<polyline class="st17" points="74.2,40.8 74.2,151 68.1,151 68.1,77.5 	"/>
	<line class="st17" x1="74.2" y1="77.5" x2="1" y2="77.5"/>
	<polyline class="st17" points="7.1,88.3 25.4,120.4 25.4,123.4 49.8,123.4 49.8,120.4 68.1,88.3 	"/>
	<polyline class="st17" points="28.5,123.4 28.5,129.6 46.7,129.6 46.7,123.4 	"/>
	<polyline class="st17" points="28.5,124.9 11.7,124.9 11.7,128 28.5,128 	"/>
	<polyline class="st17" points="10.2,93.6 10.2,144.9 16.3,144.9 16.3,128 	"/>
	<line class="st17" x1="16.3" y1="124.9" x2="16.3" y2="104.4"/>
	<polyline class="st17" points="58.9,104.4 58.9,144.9 65,144.9 65,93.7 	"/>
	<line class="st17" x1="86.3" y1="40.8" x2="37.6" y2="40.8"/>
	<polygon class="st17" points="86.3,1 86.3,1 86.3,1 	"/>
	<polygon class="st17" points="122.9,10.2 122.9,10.2 122.9,10.2 	"/>
	<line class="st17" x1="25.4" y1="120.4" x2="49.8" y2="120.4"/>
</g>
</svg>
