<?xml version="1.0" encoding="utf-8"?>
<!-- Generator: Adobe Illustrator 19.0.0, SVG Export Plug-In . SVG Version: 6.00 Build 0)  -->
<svg version="1.1" id="图层_1" xmlns="http://www.w3.org/2000/svg" xmlns:xlink="http://www.w3.org/1999/xlink" x="0px" y="0px"
	 viewBox="-2 1.2 102.9 106.5" style="enable-background:new -2 1.2 102.9 106.5;" xml:space="preserve">
<style type="text/css">
	.st0{fill:none;stroke:#000000;stroke-width:0.25;}
	.st1{fill:#003300;stroke:#000000;stroke-width:0.25;}
	.st2{fill:#006600;stroke:#000000;stroke-width:0.25;}
	.st3{fill:#007F00;}
	.st4{fill:#0A850A;}
	.st5{fill:#148A14;}
	.st6{fill:#1E8F1E;}
	.st7{fill:#2C962C;}
	.st8{fill:#389C38;}
	.st9{fill:#42A142;}
	.st10{fill:#4CA64C;}
	.st11{fill:#56AB56;}
	.st12{fill:#60B060;}
	.st13{fill:#6AB56A;}
	.st14{fill:#7ABD7A;}
	.st15{fill:#84C284;}
	.st16{fill:#8EC78E;}
	.st17{fill:#98CB98;}
	.st18{fill:#64B264;stroke:#000000;stroke-width:0.25;}
	.st19{fill:#007F00;stroke:#000000;stroke-width:0.25;}
	.st20{fill:none;stroke:#FFFFFF;stroke-width:0.25;}
	.st21{fill:none;stroke:#4C4C4C;stroke-width:0.25;}
	.st22{fill:#53A953;}
	.st23{fill:#004C00;}
	.st24{fill:#CAE4CA;}
	.st25{fill:#108810;}
	.st26{fill:#329932;}
	.st27{fill:#329932;stroke:#000000;stroke-width:0.25;}
</style>
<circle class="st0" cx="11.1" cy="8.7" r="2"/>
<circle class="st0" cx="31.3" cy="8.7" r="2"/>
<path class="st1" d="M39.3,80.7h-3.9v20.4h3.9V80.7z"/>
<path class="st1" d="M7,80.7H3v20.4h4V80.7z"/>
<path class="st2" d="M45.4,80.7h-4.1v20.4h4.1V80.7z"/>
<path class="st2" d="M1,80.7h-4v20.4h4V80.7z"/>
<path class="st3" d="M14.6,84.7h13.1l11.2-1.1l6.5-1.9V13l-6.5-1.8l-11.2-1H14.6l-11.2,1L-3,13v68.8l6.4,1.9L14.6,84.7z"/>
<path class="st4" d="M15,84.7h12l10.4-1.1l6.3-1.5V12.8L37.4,11L27,10H15L4.6,11l-6,1.8v69.4l6,1.5L15,84.7z"/>
<path class="st5" d="M15.4,84.7h11.3l9.8-0.9l5.7-1.7V12.6L36.5,11l-9.8-1H15.4l-9.6,1L0,12.6v69.6l5.9,1.7L15.4,84.7z"/>
<path class="st6" d="M15.9,84.7h10.4l9.1-0.9l5.2-1.4v-70L35.4,11l-9.1-1H15.9l-9.1,1l-5.2,1.4v70.1l5.2,1.4L15.9,84.7z"/>
<path class="st7" d="M16.3,84.7h9.6l8.2-0.9l4.8-1.2V12.1l-4.8-1.4L25.9,10h-9.6L8,10.8l-4.8,1.3v70.6L8,83.9L16.3,84.7z"/>
<path class="st8" d="M16.7,84.7h8.7l7.7-0.9l4.3-1.2V12l-4.3-1.3L25.4,10h-8.7l-7.5,0.7L4.8,12v70.7l4.5,1.2L16.7,84.7z"/>
<path class="st9" d="M17.2,84.7h7.9l6.8-0.6l3.9-1V11.8L32,10.7l-6.8-0.6h-7.9l-6.8,0.6l-4.1,1.2v71.3l4.1,1L17.2,84.7z"/>
<path class="st10" d="M17.7,84.7h7l6-0.6l3.4-0.7V11.6l-3.4-1l-6-0.6h-7l-6.1,0.6l-3.6,1v71.8l3.6,0.7L17.7,84.7z"/>
<path class="st11" d="M18.1,84.7h6.2l5.2-0.4l3.1-0.7V11.4l-3.1-0.7l-5.2-0.6h-6.2l-5.4,0.6l-3,0.7v72.2l3,0.7L18.1,84.7z"/>
<path class="st12" d="M18.4,84.7h5.4l4.7-0.4l2.6-0.6V11.2l-2.6-0.5l-4.7-0.6h-5.4l-4.6,0.6l-2.7,0.5v72.5l2.7,0.6L18.4,84.7z"/>
<path class="st13" d="M18.8,84.7h4.6l3.8-0.2l2.2-0.6V11l-2.1-0.6L23.5,10h-4.6L15,10.4l-2.1,0.5v72.9l2.1,0.6L18.8,84.7z"/>
<path class="st14" d="M19.3,84.7h3.6l3.2-0.2l1.8-0.4V10.8l-1.8-0.4L22.9,10h-3.6l-3,0.4l-1.8,0.3V84l1.8,0.4L19.3,84.7z"/>
<path class="st15" d="M19.7,84.7h2.8l2.5-0.2l1.4-0.2V10.7L25,10.3l-2.5-0.2h-2.8l-2.5,0.2l-1.4,0.4v73.7l1.4,0.2L19.7,84.7z"/>
<path class="st16" d="M20,84.7h2h1.6l1.1-0.2V10.4l-1.1-0.2L22,10h-2l-1.6,0.2l-1,0.2v74.1l1,0.2C18.4,84.7,20,84.7,20,84.7z"/>
<path class="st17" d="M20.7,84.7h1.1h1h0.4V10.2h-0.4h-1h-1.1h-1h-0.6v74.5h0.6H20.7z"/>
<path class="st0" d="M14.6,84.7h13.1l11.2-1.1l6.5-1.9V13l-6.5-1.8l-11.2-1H14.6l-11.2,1L-3,13v68.8l6.4,1.9L14.6,84.7"/>
<path class="st17" d="M93.8,46.6h-45v54.5h45V46.6z"/>
<path class="st16" d="M93.8,81.8l-45-22.7v42h45V81.8z"/>
<path class="st15" d="M93.8,86.1l-45-22.7V101h45V86.1z"/>
<path class="st14" d="M93.8,90.7L48.8,68v33h45V90.7z"/>
<path class="st0" d="M93.8,46.6h-45v54.5h45V46.6"/>
<path class="st18" d="M93.8,101.1H-3v1.4h96.8V101.1z"/>
<path class="st18" d="M93.8,105.4H-3v1.6h96.8V105.4z"/>
<path class="st19" d="M91.9,102.4h-93v3h93V102.4z"/>
<path class="st10" d="M65.4,74.7h-8V99h8V74.7z"/>
<path class="st10" d="M85.8,82.7h-8.1V99h8.1V82.7z"/>
<path class="st20" d="M63.5,60.7V47.3h-12"/>
<path class="st21" d="M63.5,60.7h-12V47.3"/>
<path class="st22" d="M81.7,58.6h-12v8h12V58.6z"/>
<path class="st23" d="M77.7,48.4h-3.9v8.2h3.9V48.4z"/>
<path class="st23" d="M61.5,62.7h-6.1v8h6.1V62.7z"/>
<circle cx="28.1" cy="59.6" r="3"/>
<circle class="st24" cx="28.1" cy="59.6" r="2.2"/>
<path class="st20" d="M81.7,66.6v-8h-12"/>
<path class="st0" d="M69.5,58.6v8h12"/>
<path class="st25" d="M24.1,31.3v1.9h13.3v-1.9H24.1z"/>
<path class="st25" d="M37.4,48.4v2.2h38.4v-2.2H37.4z"/>
<path class="st25" d="M39.3,24.2h-1.9v24.2h1.9V24.2z"/>
<path class="st26" d="M37.7,48.9V50h38.1v-1.1H37.7z"/>
<path class="st26" d="M38.8,24.2h-0.9v24.7h0.9V24.2z"/>
<path class="st26" d="M24.1,31.9v0.9h13.6v-0.9H24.1z"/>
<path class="st25" d="M76.7,45.6h-2v9h2V45.6z"/>
<path class="st25" d="M32.4,43.4v2.2h44.3v-2.2H32.4z"/>
<path class="st25" d="M3,98v2h31.1v-2H3z"/>
<path class="st25" d="M34.3,45.6h-1.9v52.3h1.9V45.6z"/>
<path class="st26" d="M76,45h-0.6v9.6H76V45z"/>
<path class="st26" d="M32.7,43.9V45h43.5v-1.1H32.7z"/>
<path class="st26" d="M33.8,45h-0.9v53.4h0.9V45z"/>
<path class="st26" d="M3,98.6v0.8h30.8v-0.7H3V98.6z"/>
<path class="st27" d="M93.8,40.9h-1.4v5.7h1.4V40.9z"/>
</svg>
