<?xml version="1.0" encoding="utf-8"?>
<!-- Generator: Adobe Illustrator 19.0.0, SVG Export Plug-In . SVG Version: 6.00 Build 0)  -->
<svg version="1.1" id="图层_1" xmlns="http://www.w3.org/2000/svg" xmlns:xlink="http://www.w3.org/1999/xlink" x="0px" y="0px"
	 viewBox="-25 1.2 56.2 106.5" style="enable-background:new -25 1.2 56.2 106.5;" xml:space="preserve">
<style type="text/css">
	.st0{stroke:#000000;stroke-width:0.25;}
	.st1{fill:url(#SVGID_1_);stroke:#000000;stroke-width:0.25;}
	.st2{fill:none;stroke:#000000;stroke-width:0.5;}
	.st3{fill:#007F00;stroke:#000000;stroke-width:0.5;}
	.st4{fill:#CAE4CA;}
	.st5{fill:#188C18;stroke:#000000;stroke-width:0.25;}
	.st6{fill:none;stroke:#000000;stroke-width:0.25;}
	.st7{fill:none;stroke:#7F7F7F;stroke-width:0.25;}
	.st8{fill:#004C00;stroke:#000000;stroke-width:0.25;}
</style>
<path class="st0" d="M-11.9,24.1l11.3,15.7h1.4l-11.2-15.7H-11.9z"/>
<path class="st0" d="M18,24.1L6.8,39.8H5.3l11.2-15.7H18z"/>
<linearGradient id="SVGID_1_" gradientUnits="userSpaceOnUse" x1="-4.1" y1="54.14" x2="10.5" y2="54.14" gradientTransform="matrix(1 0 0 -1 0 110.16)">
	<stop  offset="0" style="stop-color:#007F00"/>
	<stop  offset="0.5" style="stop-color:#FFFFFF"/>
	<stop  offset="1" style="stop-color:#007F00"/>
</linearGradient>
<path class="st1" d="M10.4,7.4H-4.2v97.3h14.6L10.4,7.4"/>
<path class="st2" d="M-4,5.3L9.5,18.8"/>
<path class="st2" d="M0.3,5.3l13.3,13.2"/>
<path class="st2" d="M24.1,5.1l2,1.9"/>
<path class="st2" d="M20.3,5.1l6,6"/>
<path class="st2" d="M16.3,5.3l10,10"/>
<path class="st2" d="M12.1,5.3l13.5,13.5"/>
<path class="st2" d="M8.2,5.3l13.4,13.5"/>
<path class="st2" d="M4.1,5.3l13.4,13.5"/>
<path class="st2" d="M26.3,17.3l-1.5,1.5"/>
<path class="st2" d="M26.3,13.4l-5.5,5.4"/>
<path class="st2" d="M26.3,9.1l-9.5,9.4"/>
<path class="st2" d="M14,5.3L0.6,18.8"/>
<path class="st2" d="M18.1,5.3L4.6,18.8"/>
<path class="st2" d="M22.1,5.3L8.7,18.8"/>
<path class="st2" d="M26.3,5.3L12.6,18.8"/>
<path class="st2" d="M-20,17.3l1.5,1.5"/>
<path class="st2" d="M-20,13.4l5.5,5.4"/>
<path class="st2" d="M-20,9.1l9.5,9.4"/>
<path class="st2" d="M-7.8,5.3L5.7,18.8"/>
<path class="st2" d="M-11.9,5.3L1.5,18.8"/>
<path class="st2" d="M-15.9,5.3l13.5,13.5"/>
<path class="st2" d="M-20,5.3l13.5,13.5"/>
<path class="st2" d="M10.1,5.4L-3.4,18.8"/>
<path class="st2" d="M5.9,5.3L-7.4,18.5"/>
<path class="st2" d="M-18,5.1L-20,7"/>
<path class="st2" d="M-14,5.1l-6,6"/>
<path class="st2" d="M-10,5.3l-10,10"/>
<path class="st2" d="M-5.9,5.3l-13.5,13.5"/>
<path class="st2" d="M-1.9,5.3l-13.5,13.5"/>
<path class="st2" d="M2.1,5.3l-13.4,13.5"/>
<path class="st3" d="M27.1,18.8V4.3h-48.1v14.5h1V5.3h46.2v5.5H-20v1h46.2v7H27.1z"/>
<path class="st4" d="M26.8,18.6V4.5h-47.5v14.1h0.5V5.1h46.6v6h-46.7v0.4h46.7v7h0.4C26.8,18.5,26.8,18.6,26.8,18.6z"/>
<path class="st5" d="M28.1,18.8H-22V22h50.1C28.1,22,28.1,18.8,28.1,18.8z"/>
<path class="st0" d="M23.9,22h-41.8v2h41.8V22z"/>
<path class="st6" d="M10.4,29.4H-4.2"/>
<path class="st6" d="M10.4,67.1H-4.2"/>
<path class="st7" d="M10.4,79.7H-4.2"/>
<path class="st7" d="M10.4,92.1H-4.2"/>
<path class="st7" d="M10.4,41.9H-4.2"/>
<path class="st7" d="M10.4,54.5H-4.2"/>
<path class="st8" d="M-17.9,24.1l15.7,22h2.1l-15.7-22H-17.9z"/>
<path class="st8" d="M24,24.1l-15.7,22h-2l15.7-22H24z"/>
</svg>
