<?xml version="1.0" encoding="utf-8"?>
<!-- Generator: Adobe Illustrator 15.1.0, SVG Export Plug-In . SVG Version: 6.00 Build 0)  -->
<!DOCTYPE svg PUBLIC "-//W3C//DTD SVG 1.1//EN" "http://www.w3.org/Graphics/SVG/1.1/DTD/svg11.dtd">
<svg version="1.1" id="Layer_1" xmlns="http://www.w3.org/2000/svg" preserveAspectRatio="none"  x="0px" y="0px"
       viewBox="0 0 152 71" xmlns:agg="http://www.example.com">
	 
<agg:params>
	<agg:param type="C" name="color" description="Color" cssAttributes="fill" classes="color"/>
</agg:params>

<style type="text/css" >
<![CDATA[

	.stroked,.white{
		stroke-width:0.5;
		stroke-linecap:round;
		stroke-linejoin:round;
		fill:none;
	}
	
	.color {
		fill: #4C4C4C;
	}
	
	.stroked {
		stroke:white;
	}
	
	.white {
		stroke:white;
	}

		]]>
</style>
	 
<polygon class="color" points="20.488,69.112 4.312,65.815 1,62.855 10.892,52.961
	23.799,46.408 30.38,36.853 46.599,27.002 53.179,13.853 69.398,4.298 79.291,1 95.509,4.298 102.09,10.852 111.982,17.15 
	124.889,32.667 138.093,43.111 144.419,52.961 151,59.557 143.485,63.448 131.512,65.815 106.887,68.224 77.507,67.632 48.382,70 
	20.488,69.112 "/>
<polygon opacity="0.2" points="45.113,69.112 31.314,67.632 34.286,61.037 43.287,56.26 
	58.911,44.041 66.086,33.555 71.181,27.002 79.291,13.853 85.914,10.852 93.683,14.741 106.59,17.447 111.982,22.521 119.2,32.667 
	127.309,43.111 140.513,48.479 145.905,56.26 147.094,60.741 141.107,63.448 126.417,65.223 102.09,67.632 85.914,66.745 
	71.818,67.632 45.113,69.112 "/>
<polygon opacity="0.2" points="93.089,62.56 98.82,60.149 93.089,54.484 87.399,50.594 
	85.914,38.333 79.291,28.482 85.914,17.15 91.603,22.224 102.09,24.592 105.699,28.482 109.604,32.371 108.713,42.518 
	116.78,44.041 129.092,53.892 129.687,61.924 120.686,64.63 102.387,66.406 80.819,65.815 93.089,62.56 "/>
	
<g class="white" opacity="0.5">
	<polyline points="122.511,48.184 123.998,46.408 127.309,48.184 	"/>
	<polyline points="133.89,43.111 132.107,41.63 128.795,43.111 	"/>
	<polyline points="120.686,40.15 122.511,38.333 125.781,40.15 	"/>
	<polyline points="115.888,46.408 117.417,44.928 120.686,46.408 	"/>
	<polyline points="127.309,44.041 125.781,42.518 122.511,44.041 	"/>
	<polyline points="32.8,57.147 34.286,55.372 37.598,57.147 	"/>
	<polyline points="44.221,52.074 42.692,50.594 39.381,52.074 	"/>
	<polyline points="31.314,48.818 32.8,47.296 36.112,48.818 	"/>
	<polyline points="26.219,55.372 28.002,53.892 31.314,55.372 	"/>
	<polyline points="37.598,52.961 36.112,51.186 32.8,52.961 	"/>
	<polyline points="78.398,13.261 79.885,11.443 83.196,13.261 	"/>
	<polyline points="89.819,8.484 88.291,6.666 84.979,8.484 	"/>
	<polyline points="76.913,5.186 78.398,3.41 81.71,5.186 	"/>
	<polyline points="71.818,11.443 73.601,9.963 76.913,11.443 	"/>
	<polyline points="83.196,9.076 81.71,7.553 78.398,9.076 	"/>
	<polyline points="61.289,24.592 62.817,22.816 66.086,24.592 	"/>
	<polyline points="72.709,19.814 71.181,18.039 67.912,19.814 	"/>
	<polyline points="59.803,16.517 61.289,14.741 64.6,16.517 	"/>
	<polyline points="54.708,22.816 56.491,21.294 59.803,22.816 	"/>
	<polyline points="66.086,20.406 64.6,18.927 61.289,20.406 	"/>
	<polyline points="91.603,40.742 93.089,39.22 96.4,40.742 "/>
	<polyline points="102.981,35.965 101.198,34.443 97.886,35.965 "/>
	<polyline points="89.819,32.667 91.603,31.188 94.915,32.667 "/>
	<polyline points="84.979,39.22 86.508,37.445 89.819,39.22 "/>
	<polyline points="96.4,36.853 94.915,35.077 91.603,36.853 "/>
	<polyline points="106.887,61.924 108.713,60.149 111.982,61.924 "/>
	<polyline points="118.308,57.147 116.78,55.372 113.51,57.147 "/>
	<polyline points="105.401,53.892 106.887,52.074 110.199,53.892 "/>
	<polyline points="100.306,60.149 102.09,58.669 105.401,60.149 "/>
	<polyline points="111.982,57.781 110.199,56.26 106.887,57.781 "/>
</g>
</svg>
