<?xml version="1.0" encoding="utf-8"?>
<!-- Generator: Adobe Illustrator 21.0.0, SVG Export Plug-In . SVG Version: 6.00 Build 0)  -->
<svg version="1.1" id="图层_2" xmlns="http://www.w3.org/2000/svg" xmlns:xlink="http://www.w3.org/1999/xlink" x="0px" y="0px"
	 viewBox="0 0 202 86" style="enable-background:new 0 0 202 86;" xml:space="preserve">
<style type="text/css">
	.st0{fill:url(#SVGID_1_);}
	.st1{fill:url(#SVGID_2_);}
	.st2{fill:url(#SVGID_3_);}
	.st3{fill:url(#SVGID_4_);}
	.st4{fill:url(#SVGID_5_);}
	.st5{fill:url(#SVGID_6_);}
	.st6{fill:url(#SVGID_7_);}
	.st7{fill:url(#flat_1_);}
	.st8{fill:url(#con_1_);}
	.st9{opacity:0.2;fill:#3664BF;enable-background:new    ;}
	.st10{opacity:0.5;}
	.st11{fill:none;stroke:#000000;stroke-width:0.5;stroke-linejoin:round;}
	.st12{fill:none;stroke:#000000;stroke-width:0.75;stroke-linejoin:round;}
</style>
<g id="cyl">
	
		<linearGradient id="SVGID_1_" gradientUnits="userSpaceOnUse" x1="299.7201" y1="-876.1926" x2="299.7201" y2="-935.8663" gradientTransform="matrix(1 0 0 -1 -229.6201 -852.9077)">
		<stop  offset="0" style="stop-color:#4D5C75"/>
		<stop  offset="5.000000e-02" style="stop-color:#697188"/>
		<stop  offset="0.1127" style="stop-color:#8C90A3"/>
		<stop  offset="0.1759" style="stop-color:#ADB0BD"/>
		<stop  offset="0.2385" style="stop-color:#C9CBD4"/>
		<stop  offset="0.3004" style="stop-color:#E0E2E7"/>
		<stop  offset="0.3613" style="stop-color:#F0F3F5"/>
		<stop  offset="0.42" style="stop-color:#F6FAFC"/>
		<stop  offset="0.4738" style="stop-color:#F1F3F4"/>
		<stop  offset="0.5296" style="stop-color:#E3E4E5"/>
		<stop  offset="0.5863" style="stop-color:#CECDCF"/>
		<stop  offset="0.6436" style="stop-color:#B3B1B4"/>
		<stop  offset="0.7008" style="stop-color:#959296"/>
		<stop  offset="0.72" style="stop-color:#8A888B"/>
		<stop  offset="1" style="stop-color:#F6FAFC"/>
	</linearGradient>
	<path class="st0" d="M139.1,75c0,0.8,0,1.6,0,2.4c-6.5,1.6-13,3.2-19.5,4.8c-32.9,0-65.7,0-98.6,0c-11,0-20-9-20-20
		C1,55.8,1,49.4,1,43c0-11,9-20,20.1-20c32.8,0,65.7,0,98.6,0c6.5,1.6,13,3.2,19.5,4.8c0,0.9,0,1.9,0,2.8
		C139.1,45.4,139.1,60.2,139.1,75z"/>
	
		<linearGradient id="SVGID_2_" gradientUnits="userSpaceOnUse" x1="371.1201" y1="-856.3077" x2="430.6201" y2="-856.3077" gradientTransform="matrix(1 0 0 -1 -229.6201 -852.9077)">
		<stop  offset="0" style="stop-color:#4D5C75"/>
		<stop  offset="5.000000e-02" style="stop-color:#697188"/>
		<stop  offset="0.1127" style="stop-color:#8C90A3"/>
		<stop  offset="0.1759" style="stop-color:#ADB0BD"/>
		<stop  offset="0.2385" style="stop-color:#C9CBD4"/>
		<stop  offset="0.3004" style="stop-color:#E0E2E7"/>
		<stop  offset="0.3613" style="stop-color:#F0F3F5"/>
		<stop  offset="0.42" style="stop-color:#F6FAFC"/>
		<stop  offset="0.4738" style="stop-color:#F1F3F4"/>
		<stop  offset="0.5296" style="stop-color:#E3E4E5"/>
		<stop  offset="0.5863" style="stop-color:#CECDCF"/>
		<stop  offset="0.6436" style="stop-color:#B3B1B4"/>
		<stop  offset="0.7008" style="stop-color:#959296"/>
		<stop  offset="0.72" style="stop-color:#8A888B"/>
		<stop  offset="1" style="stop-color:#F6FAFC"/>
	</linearGradient>
	<polygon class="st1" points="201,1 201,5.8 183.4,5.8 159.1,5.8 141.5,5.8 141.5,1 	"/>
	
		<linearGradient id="SVGID_3_" gradientUnits="userSpaceOnUse" x1="425.6201" y1="-878.6541" x2="425.6201" y2="-933.2807" gradientTransform="matrix(1 0 0 -1 -229.6201 -852.9077)">
		<stop  offset="0" style="stop-color:#4D5C75"/>
		<stop  offset="5.000000e-02" style="stop-color:#697188"/>
		<stop  offset="0.1127" style="stop-color:#8C90A3"/>
		<stop  offset="0.1759" style="stop-color:#ADB0BD"/>
		<stop  offset="0.2385" style="stop-color:#C9CBD4"/>
		<stop  offset="0.3004" style="stop-color:#E0E2E7"/>
		<stop  offset="0.3613" style="stop-color:#F0F3F5"/>
		<stop  offset="0.42" style="stop-color:#F6FAFC"/>
		<stop  offset="0.4738" style="stop-color:#F1F3F4"/>
		<stop  offset="0.5296" style="stop-color:#E3E4E5"/>
		<stop  offset="0.5863" style="stop-color:#CECDCF"/>
		<stop  offset="0.6436" style="stop-color:#B3B1B4"/>
		<stop  offset="0.7008" style="stop-color:#959296"/>
		<stop  offset="0.72" style="stop-color:#8A888B"/>
		<stop  offset="1" style="stop-color:#F6FAFC"/>
	</linearGradient>
	<polygon class="st2" points="198.6,25.4 198.6,80.2 193.4,80.2 193.4,70.2 193.4,35.4 193.4,25.4 	"/>
	
		<linearGradient id="SVGID_4_" gradientUnits="userSpaceOnUse" x1="418.2201" y1="-888.3077" x2="418.2201" y2="-888.3077" gradientTransform="matrix(1 0 0 -1 -229.6201 -852.9077)">
		<stop  offset="0" style="stop-color:#4D5C75"/>
		<stop  offset="5.000000e-02" style="stop-color:#697188"/>
		<stop  offset="0.1127" style="stop-color:#8C90A3"/>
		<stop  offset="0.1759" style="stop-color:#ADB0BD"/>
		<stop  offset="0.2385" style="stop-color:#C9CBD4"/>
		<stop  offset="0.3004" style="stop-color:#E0E2E7"/>
		<stop  offset="0.3613" style="stop-color:#F0F3F5"/>
		<stop  offset="0.42" style="stop-color:#F6FAFC"/>
		<stop  offset="0.4738" style="stop-color:#F1F3F4"/>
		<stop  offset="0.5296" style="stop-color:#E3E4E5"/>
		<stop  offset="0.5863" style="stop-color:#CECDCF"/>
		<stop  offset="0.6436" style="stop-color:#B3B1B4"/>
		<stop  offset="0.7008" style="stop-color:#959296"/>
		<stop  offset="0.72" style="stop-color:#8A888B"/>
		<stop  offset="1" style="stop-color:#F6FAFC"/>
	</linearGradient>
	<path class="st3" d="M188.6,35.4L188.6,35.4L188.6,35.4z"/>
	
		<linearGradient id="SVGID_5_" gradientUnits="userSpaceOnUse" x1="400.8201" y1="-875.7063" x2="400.8201" y2="-938.1652" gradientTransform="matrix(1 0 0 -1 -229.6201 -852.9077)">
		<stop  offset="0" style="stop-color:#4D5C75"/>
		<stop  offset="5.000000e-02" style="stop-color:#697188"/>
		<stop  offset="0.1127" style="stop-color:#8C90A3"/>
		<stop  offset="0.1759" style="stop-color:#ADB0BD"/>
		<stop  offset="0.2385" style="stop-color:#C9CBD4"/>
		<stop  offset="0.3004" style="stop-color:#E0E2E7"/>
		<stop  offset="0.3613" style="stop-color:#F0F3F5"/>
		<stop  offset="0.42" style="stop-color:#F6FAFC"/>
		<stop  offset="0.4738" style="stop-color:#F1F3F4"/>
		<stop  offset="0.5296" style="stop-color:#E3E4E5"/>
		<stop  offset="0.5863" style="stop-color:#CECDCF"/>
		<stop  offset="0.6436" style="stop-color:#B3B1B4"/>
		<stop  offset="0.7008" style="stop-color:#959296"/>
		<stop  offset="0.72" style="stop-color:#8A888B"/>
		<stop  offset="1" style="stop-color:#F6FAFC"/>
	</linearGradient>
	<path class="st4" d="M178.6,75v10h-14.8V75V30.6c4.4,3,10.3,3,14.8,0V75z"/>
	
		<linearGradient id="SVGID_6_" gradientUnits="userSpaceOnUse" x1="386.1201" y1="-876.1179" x2="386.1201" y2="-935.7179" gradientTransform="matrix(1 0 0 -1 -229.6201 -852.9077)">
		<stop  offset="0" style="stop-color:#4D5C75"/>
		<stop  offset="5.000000e-02" style="stop-color:#697188"/>
		<stop  offset="0.1127" style="stop-color:#8C90A3"/>
		<stop  offset="0.1759" style="stop-color:#ADB0BD"/>
		<stop  offset="0.2385" style="stop-color:#C9CBD4"/>
		<stop  offset="0.3004" style="stop-color:#E0E2E7"/>
		<stop  offset="0.3613" style="stop-color:#F0F3F5"/>
		<stop  offset="0.42" style="stop-color:#F6FAFC"/>
		<stop  offset="0.4738" style="stop-color:#F1F3F4"/>
		<stop  offset="0.5296" style="stop-color:#E3E4E5"/>
		<stop  offset="0.5863" style="stop-color:#CECDCF"/>
		<stop  offset="0.6436" style="stop-color:#B3B1B4"/>
		<stop  offset="0.7008" style="stop-color:#959296"/>
		<stop  offset="0.72" style="stop-color:#8A888B"/>
		<stop  offset="1" style="stop-color:#F6FAFC"/>
	</linearGradient>
	<polygon class="st5" points="159.1,82.6 153.9,82.6 153.9,23 159.1,23 	"/>
	
		<linearGradient id="SVGID_7_" gradientUnits="userSpaceOnUse" x1="163.85" y1="786.2415" x2="163.85" y2="830.9395" gradientTransform="matrix(1 0 0 1 0 -756)">
		<stop  offset="0" style="stop-color:#4D5C75"/>
		<stop  offset="5.000000e-02" style="stop-color:#697188"/>
		<stop  offset="0.1127" style="stop-color:#8C90A3"/>
		<stop  offset="0.1759" style="stop-color:#ADB0BD"/>
		<stop  offset="0.2385" style="stop-color:#C9CBD4"/>
		<stop  offset="0.3004" style="stop-color:#E0E2E7"/>
		<stop  offset="0.3613" style="stop-color:#F0F3F5"/>
		<stop  offset="0.42" style="stop-color:#F6FAFC"/>
		<stop  offset="0.4738" style="stop-color:#F1F3F4"/>
		<stop  offset="0.5296" style="stop-color:#E3E4E5"/>
		<stop  offset="0.5863" style="stop-color:#CECDCF"/>
		<stop  offset="0.6436" style="stop-color:#B3B1B4"/>
		<stop  offset="0.7008" style="stop-color:#959296"/>
		<stop  offset="0.72" style="stop-color:#8A888B"/>
		<stop  offset="1" style="stop-color:#F6FAFC"/>
	</linearGradient>
	<path class="st6" d="M188.6,35.4v34.8l-10,4.8V30.6L188.6,35.4z M159.1,30.6h4.8V75h-4.8V30.6z M153.9,30.6V75h-14.8l0,0
		c0-14.8,0-29.6,0-44.4l0,0C139.2,30.6,153.9,30.6,153.9,30.6z"/>
</g>
<linearGradient id="flat_1_" gradientUnits="userSpaceOnUse" x1="236.157" y1="-875.1439" x2="304.868" y2="-937.0637" gradientTransform="matrix(1 0 0 -1 -229.6201 -852.9077)">
	<stop  offset="0" style="stop-color:#4D5C75"/>
	<stop  offset="0.1359" style="stop-color:#5A657E"/>
	<stop  offset="0.3963" style="stop-color:#7C8196"/>
	<stop  offset="0.7581" style="stop-color:#BBBDC8"/>
	<stop  offset="1" style="stop-color:#F6FAFC"/>
</linearGradient>
<path id="flat" class="st7" d="M39.3,85c-1.9,0-3.4-1.5-3.4-3.4c0-10.1,0-20.2,0-30.3c0-1.9,1.5-3.4,3.4-3.4c10.9,0,21.7,0,32.6,0
	c1.9,0,3.4,1.5,3.4,3.4c0,10.1,0,20.2,0,30.3c0,1.9-1.5,3.4-3.4,3.4C61,85,50.1,85,39.3,85z"/>
<linearGradient id="con_1_" gradientUnits="userSpaceOnUse" x1="413.9184" y1="-872.201" x2="381.6885" y2="-872.2012" gradientTransform="matrix(1 0 0 -1 -229.6201 -852.9077)">
	<stop  offset="0" style="stop-color:#4D5C75"/>
	<stop  offset="5.000000e-02" style="stop-color:#697188"/>
	<stop  offset="0.1127" style="stop-color:#8C90A3"/>
	<stop  offset="0.1759" style="stop-color:#ADB0BD"/>
	<stop  offset="0.2385" style="stop-color:#C9CBD4"/>
	<stop  offset="0.3004" style="stop-color:#E0E2E7"/>
	<stop  offset="0.3613" style="stop-color:#F0F3F5"/>
	<stop  offset="0.42" style="stop-color:#F6FAFC"/>
	<stop  offset="0.4817" style="stop-color:#F1F3F4"/>
	<stop  offset="0.5455" style="stop-color:#E3E4E5"/>
	<stop  offset="0.6105" style="stop-color:#CECDCF"/>
	<stop  offset="0.6761" style="stop-color:#B3B1B4"/>
	<stop  offset="0.7417" style="stop-color:#959296"/>
	<stop  offset="0.7636" style="stop-color:#8A888B"/>
</linearGradient>
<path id="con" class="st8" d="M183.4,5.8c-1.6,8.3-3.2,16.5-4.8,24.8c-4.5,3-10.3,3-14.8,0c-1.6-8.3-3.2-16.5-4.8-24.8
	C159.1,5.8,183.4,5.8,183.4,5.8z"/>
<g id="图层_3">
	<path id="boundary" class="st9" d="M201,5.8V1h-59.5v4.8h17.6c1.6,8.3,3.2,16.5,4.8,24.8h-4.8V23h-5.2v7.6h-14.8l0,0
		c0-0.9,0-1.9,0-2.8c-6.5-1.6-13-3.2-19.5-4.8c-32.9,0-65.7,0-98.6,0C10,23,1,32,1,43c0,6.4,0,12.8,0,19.2c0,11,9,20,20.1,20
		c4.9,0,9.9,0,14.8,0c0.3,1.6,1.7,2.8,3.4,2.8c10.9,0,21.7,0,32.6,0c1.7,0,3.1-1.2,3.4-2.8c14.8,0,29.6,0,44.4,0
		c6.5-1.6,13-3.2,19.5-4.8c0-0.8,0-1.6,0-2.4l0,0H154v7.6h5.2V75h4.8v10h14.8V75l10-4.8h4.8v10h5.2V25.4h-5.2v10h-4.8l-10-4.8
		c1.6-8.3,3.2-16.5,4.8-24.8L201,5.8L201,5.8z"/>
</g>
<g id="lines">
	<g class="st10">
		<path class="st11" d="M75.3,82.2c0,0,26,0,44.3,0c6.5-1.6,13-3.2,19.5-4.8c0-0.8,0-1.6,0-2.4c0-14.8,0-29.6,0-44.4
			c0-0.9,0-1.9,0-2.8c-6.5-1.6-13-3.2-19.5-4.8c-32.9,0-65.7,0-98.6,0C10,23,1,32,1,43c0,6.4,0,12.8,0,19.2c0,11,9,20,20.1,20
			c8,0,14.9,0,14.9,0"/>
		<polygon class="st11" points="159.1,5.8 141.5,5.8 141.5,1 201,1 201,5.8 183.4,5.8 		"/>
		<path class="st11" d="M183.4,5.8c-1.6,8.3-3.2,16.5-4.8,24.8c-4.5,3-10.3,3-14.8,0c-1.6-8.3-3.2-16.5-4.8-24.8"/>
		<polyline class="st11" points="163.9,30.6 163.9,75 163.9,85 178.6,85 178.6,75 178.6,30.6 		"/>
		<polyline class="st11" points="178.6,30.6 188.6,35.4 188.6,70.2 178.6,75 		"/>
		<line class="st11" x1="188.6" y1="35.4" x2="193.4" y2="35.4"/>
		<line class="st11" x1="193.4" y1="70.2" x2="188.6" y2="70.2"/>
		<polygon class="st11" points="153.9,30.6 153.9,23 159.1,23 159.1,30.6 159.1,75 159.1,82.6 153.9,82.6 153.9,75 		"/>
		<line class="st11" x1="159.1" y1="30.6" x2="163.9" y2="30.6"/>
		<line class="st11" x1="163.9" y1="75" x2="159.1" y2="75"/>
		<line class="st11" x1="153.9" y1="75" x2="139.2" y2="75"/>
		<line class="st11" x1="139.2" y1="30.6" x2="153.9" y2="30.6"/>
		<polygon class="st11" points="193.4,35.4 193.4,25.4 198.6,25.4 198.6,80.2 193.4,80.2 193.4,70.2 		"/>
		<line class="st11" x1="119.6" y1="23" x2="119.6" y2="82.2"/>
		<line class="st11" x1="21.1" y1="23" x2="21.1" y2="82.2"/>
		<path class="st11" d="M39.3,85c-1.9,0-3.4-1.5-3.4-3.4c0-10.1,0-20.2,0-30.3c0-1.9,1.5-3.4,3.4-3.4c10.9,0,21.7,0,32.6,0
			c1.9,0,3.4,1.5,3.4,3.4c0,10.1,0,20.2,0,30.3c0,1.9-1.5,3.4-3.4,3.4C61,85,50.1,85,39.3,85z"/>
	</g>
	<g class="st10">
		<line class="st12" x1="21.1" y1="81.2" x2="35.9" y2="81.2"/>
		<line class="st12" x1="21.1" y1="78.2" x2="35.9" y2="78.2"/>
		<line class="st12" x1="21.1" y1="73.5" x2="35.9" y2="73.5"/>
		<line class="st12" x1="21.1" y1="67.4" x2="35.9" y2="67.4"/>
		<line class="st12" x1="21.1" y1="60.3" x2="35.9" y2="60.3"/>
		<line class="st12" x1="21.1" y1="52.6" x2="35.9" y2="52.6"/>
		<line class="st12" x1="75.3" y1="81.2" x2="119.6" y2="81.2"/>
		<line class="st12" x1="75.4" y1="78.2" x2="119.6" y2="78.2"/>
		<line class="st12" x1="75.3" y1="73.5" x2="119.6" y2="73.5"/>
		<line class="st12" x1="75.4" y1="67.4" x2="119.7" y2="67.4"/>
		<line class="st12" x1="75.4" y1="60.3" x2="119.6" y2="60.3"/>
		<line class="st12" x1="75.4" y1="52.6" x2="119.6" y2="52.6"/>
		<line class="st12" x1="21.3" y1="45" x2="119.5" y2="45"/>
		<line class="st12" x1="21.3" y1="37.9" x2="119.7" y2="37.9"/>
		<line class="st12" x1="21.1" y1="31.7" x2="119.5" y2="31.7"/>
		<line class="st12" x1="21.3" y1="27" x2="119.5" y2="27"/>
		<line class="st12" x1="21.1" y1="24.1" x2="119.6" y2="24.1"/>
	</g>
</g>
</svg>
