<?xml version="1.0" encoding="utf-8"?>
<!-- Generator: Adobe Illustrator 15.1.0, SVG Export Plug-In . SVG Version: 6.00 Build 0)  -->
<!DOCTYPE svg PUBLIC "-//W3C//DTD SVG 1.1//EN" "http://www.w3.org/Graphics/SVG/1.1/DTD/svg11.dtd">
<svg version="1.1" id="Default" xmlns="http://www.w3.org/2000/svg" preserveAspectRatio="none"  xmlns:xlink="http://www.w3.org/1999/xlink" x="0px" y="0px"
	   xmlns:agg="http://www.example.com" xml:space="preserve">
	 
<agg:params>
	<agg:param type="C" name="color" description="Color" cssAttributes="fill" classes="color"/>
	<agg:param type="F" name="saturation" description="Saturation" min="0" max="1" cssAttributes="opacity" classes="color"/>
</agg:params>
	 
<style type="text/css" >
   <![CDATA[

	.stroke,.thin,.thick{
		stroke-linecap:butt;
		stroke-linejoin:round;
		stroke: black;
		fill:none;
		opacity:0.5;
	}

	.stroke{stroke-width:0.5;}

	.thin {stroke-width:0.25;}

	.thick {stroke-width:0.75;}
	
	.color {
		fill:#3664BF;
		opacity:0.2;
	}

      ]]>
</style>
	 
<defs>	 
	<linearGradient id="cyl" gradientUnits="userSpaceOnUse">
		<stop  offset="0" style="stop-color:#4D5C75"/>
		<stop  offset="0.05" style="stop-color:#697188"/>
		<stop  offset="0.1127" style="stop-color:#8C90A3"/>
		<stop  offset="0.1759" style="stop-color:#ADB0BD"/>
		<stop  offset="0.2385" style="stop-color:#C9CBD4"/>
		<stop  offset="0.3004" style="stop-color:#E0E2E7"/>
		<stop  offset="0.3613" style="stop-color:#F0F3F5"/>
		<stop  offset="0.42" style="stop-color:#F6FAFC"/>
		<stop  offset="0.4703" style="stop-color:#F1F3F4"/>
		<stop  offset="0.5225" style="stop-color:#E3E4E5"/>
		<stop  offset="0.5755" style="stop-color:#CECDCF"/>
		<stop  offset="0.6291" style="stop-color:#B3B1B4"/>
		<stop  offset="0.6826" style="stop-color:#959296"/>
		<stop  offset="0.7005" style="stop-color:#8A888B"/>
		<stop  offset="1" style="stop-color:#F6FAFC"/>
	</linearGradient>
	<linearGradient id="cyl_1" xlink:href="#cyl" x1="37" y1="0" x2="53" y2="0"/>
	<linearGradient id="cyl_2" xlink:href="#cyl" x1="39" y1="0" x2="51" y2="0"/>
	<linearGradient id="cyl_3" xlink:href="#cyl" x1="13" y1="0" x2="29" y2="0"/>
	<linearGradient id="cyl_4" xlink:href="#cyl" x1="15" y1="0" x2="27" y2="0"/>
	<linearGradient id="cyl_5" xlink:href="#cyl" x1="0" y1="0.7969" x2="0" y2="23.132"/>
	<linearGradient id="cyl_6" xlink:href="#cyl" x1="0" y1="3.2368" x2="0" y2="20.8426"/>
	
	<linearGradient id="flat" gradientUnits="userSpaceOnUse" x1="47.145" y1="35.1455" x2="18.8628" y2="6.8633">
		<stop  offset="0.0051" style="stop-color:#4D5C75"/>
		<stop  offset="0.1472" style="stop-color:#5C6780"/>
		<stop  offset="0.4285" style="stop-color:#828B9E"/>
		<stop  offset="0.5576" style="stop-color:#99A3B2"/>
		<stop  offset="0.5636" style="stop-color:#AEB7C4"/>
		<stop  offset="0.9997" style="stop-color:#F6FAFC"/>
	</linearGradient>
</defs>

<polygon fill="url(#cyl_1)" points="53,48.998 53,53 37.004,53 37.004,48.998 39.005,48.998 50.999,48.998 	"/>
<path fill="url(#cyl_2)" d="M50.999,29.745v19.253H39.005v-8.919C44.276,38.433,48.608,34.65,50.999,29.745z"/>
<polygon fill="url(#cyl_3)" points="29.001,48.998 29.001,53 13.005,53 13.005,48.998 15.006,48.998 27,48.998 	"/>
<path fill="url(#cyl_4)" d="M27,40.079v8.919H15.006V29.745C17.398,34.65,21.729,38.433,27,40.079z"/>
<polygon fill="url(#cyl_5)" points="5.001,20.997 5.001,22.998 1,22.998 1,1 5.001,1 5.001,3.001 	"/>
<path fill="url(#cyl_6)" d="M5.001,3.001h19.278c-6.674,3.245-11.274,10.09-11.274,17.996H5.001V3.001z"/>

<path fill="url(#flat)" d="M33.002,1c-3.135,0-6.088,0.72-8.723,2.001c-6.674,3.245-11.274,10.09-11.274,17.996
	c0,3.136,0.721,6.112,2.001,8.748C17.398,34.65,21.729,38.433,27,40.079c1.891,0.61,3.904,0.928,6.002,0.928
	s4.112-0.318,6.003-0.928c5.271-1.646,9.603-5.429,11.993-10.334C52.28,27.109,53,24.133,53,20.997C53,9.955,44.044,1,33.002,1z"/>
	
<path class="color" d="M50.999,29.745C52.28,27.109,53,24.133,53,20.997C53,9.955,44.044,1,33.002,1
	c-3.135,0-6.088,0.72-8.723,2.001H5.001V1H1v21.998h4.001v-2.001h8.004c0,3.136,0.721,6.112,2.001,8.748v19.253h-2.001V53h15.996
	v-4.002H27v-8.919c1.891,0.61,3.904,0.928,6.002,0.928s4.112-0.318,6.003-0.928v8.919h-2.001V53H53v-4.002h-2.001V29.745z"/>
	
<g opacity="0.5">
	<polygon points="47.729,12.506 45.13,11.005 42.532,12.506 42.532,15.494 45.13,16.995 47.729,15.494 		"/>
	<polygon points="47.729,29.501 47.729,26.5 45.13,24.999 42.532,26.5 42.532,29.501 45.13,31.001 		"/>
	<polygon points="33.002,38.005 35.601,36.504 35.601,33.503 33.002,32.002 30.404,33.503 30.404,36.504 		"/>
	<polygon points="18.277,29.501 20.875,31.001 23.474,29.501 23.474,26.5 20.875,24.999 18.277,26.5 		"/>
	<polygon points="18.277,12.506 18.277,15.494 20.875,16.995 23.474,15.494 23.474,12.506 20.875,11.005 		"/>
	<polygon points="33.002,4.001 30.404,5.502 30.404,8.503 33.002,10.004 35.601,8.503 35.601,5.502 		"/>
</g>

<g class="stroke">
	<line x1="5.001" y1="20.997" x2="13.005" y2="20.997"/>
	<line x1="24.279" y1="3.001" x2="5.001" y2="3.001"/>
	<polygon points="5.001,3.001 5.001,1 1,1 1,22.998 5.001,22.998 5.001,20.997"/>
	<line x1="39.005" y1="48.998" x2="39.005" y2="40.079"/>
	<polyline points="15.006,29.721 15.006,29.745 15.006,48.998"/>
	<polyline points="50.999,29.721 50.999,29.745 50.999,48.998"/>
	<polygon points="39.005,48.998 37.004,48.998 37.004,53 53,53 53,48.998 50.999,48.998"/>
	<polygon points="15.006,48.998 13.005,48.998 13.005,53 29.001,53 29.001,48.998 27,48.998"/>
	<line x1="27" y1="48.998" x2="27" y2="40.079"/>
	<path d="M50.999,29.745
		C52.28,27.109,53,24.133,53,20.997C53,9.955,44.044,1,33.002,1c-3.135,0-6.088,0.72-8.723,2.001
		c-6.674,3.245-11.274,10.09-11.274,17.996c0,3.136,0.721,6.112,2.001,8.748C17.398,34.65,21.729,38.433,27,40.079
		c1.891,0.61,3.904,0.928,6.002,0.928s4.112-0.318,6.003-0.928C44.276,38.433,48.608,34.65,50.999,29.745z"/>
</g>

</svg>
