<?xml version="1.0" encoding="utf-8"?>
<!-- Generator: Adobe Illustrator 15.1.0, SVG Export Plug-In . SVG Version: 6.00 Build 0)  -->
<!DOCTYPE svg PUBLIC "-//W3C//DTD SVG 1.1//EN" "http://www.w3.org/Graphics/SVG/1.1/DTD/svg11.dtd">
<svg version="1.1" id="Layer_1" xmlns="http://www.w3.org/2000/svg" preserveAspectRatio="none"  x="0px" y="0px"
       viewBox="0 0 202 102" xmlns:agg="http://www.example.com">
	 
<agg:params>
	<agg:param type="C" name="color" description="Color" cssAttributes="fill" classes="color"/>
	<agg:param type="F" name="saturation" description="Saturation" min="0" max="1" cssAttributes="opacity" classes="color"/>
</agg:params>	 

<style type="text/css" >
   <![CDATA[

	.stroke,.thin,.thick{
		stroke-linecap:butt;
		stroke-linejoin:round;
		stroke: black;
		fill:none;
	}

	.stroke{stroke-width:0.5;}

	.thin {stroke-width:0.25;}

	.thick {stroke-width:0.75;}
	
	.color {
		fill:#3664BF;
		opacity:0.2;
	}

      ]]>
</style>	
	 
<linearGradient id="SVGID_1_" gradientUnits="userSpaceOnUse" x1="138.8418" y1="40.2759" x2="108.8743" y2="-23.9897">
	<stop  offset="0" style="stop-color:#7A869A"/>
	<stop  offset="0.4788" style="stop-color:#99A3B2"/>
	<stop  offset="0.4909" style="stop-color:#A7B3C4"/>
	<stop  offset="1" style="stop-color:#D9DFE5"/>
</linearGradient>
<rect x="55.285" y="1" fill="url(#SVGID_1_)"  />
<linearGradient id="SVGID_2_" gradientUnits="userSpaceOnUse" x1="123.8584" y1="23.4897" x2="123.8584" y2="80.6323">
	<stop  offset="0.0051" style="stop-color:#4C5B75"/>
	<stop  offset="0.0323" style="stop-color:#616F86"/>
	<stop  offset="0.098" style="stop-color:#8E99AA"/>
	<stop  offset="0.1641" style="stop-color:#B4BCC7"/>
	<stop  offset="0.2298" style="stop-color:#D1D7DE"/>
	<stop  offset="0.2946" style="stop-color:#E5EAEF"/>
	<stop  offset="0.3584" style="stop-color:#F2F6F9"/>
	<stop  offset="0.42" style="stop-color:#F6FAFC"/>
	<stop  offset="0.4744" style="stop-color:#F2F6F8"/>
	<stop  offset="0.5308" style="stop-color:#E6E9EC"/>
	<stop  offset="0.5882" style="stop-color:#D3D5D7"/>
	<stop  offset="0.6461" style="stop-color:#B7B8BB"/>
	<stop  offset="0.704" style="stop-color:#949396"/>
	<stop  offset="0.72" style="stop-color:#89878B"/>
	<stop  offset="1" style="stop-color:#F6FAFC"/>
</linearGradient>
<rect x="55.285" y="23.862" fill="url(#SVGID_2_)"  />
<linearGradient id="SVGID_3_" gradientUnits="userSpaceOnUse" x1="123.8584" y1="89.4775" x2="123.8584" y2="97.9648">
	<stop  offset="0.0051" style="stop-color:#4C5B75"/>
	<stop  offset="0.0323" style="stop-color:#616F86"/>
	<stop  offset="0.098" style="stop-color:#8E99AA"/>
	<stop  offset="0.1641" style="stop-color:#B4BCC7"/>
	<stop  offset="0.2298" style="stop-color:#D1D7DE"/>
	<stop  offset="0.2946" style="stop-color:#E5EAEF"/>
	<stop  offset="0.3584" style="stop-color:#F2F6F9"/>
	<stop  offset="0.42" style="stop-color:#F6FAFC"/>
	<stop  offset="0.4744" style="stop-color:#F2F6F8"/>
	<stop  offset="0.5308" style="stop-color:#E6E9EC"/>
	<stop  offset="0.5882" style="stop-color:#D3D5D7"/>
	<stop  offset="0.6461" style="stop-color:#B7B8BB"/>
	<stop  offset="0.704" style="stop-color:#949396"/>
	<stop  offset="0.72" style="stop-color:#89878B"/>
	<stop  offset="1" style="stop-color:#F6FAFC"/>
</linearGradient>
<rect x="55.285" y="89.572" fill="url(#SVGID_3_)"  />
<linearGradient id="SVGID_4_" gradientUnits="userSpaceOnUse" x1="44.8184" y1="97.5918" x2="10.7626" y2="24.559">
	<stop  offset="0" style="stop-color:#7A869A"/>
	<stop  offset="0.4788" style="stop-color:#99A3B2"/>
	<stop  offset="0.4909" style="stop-color:#A7B3C4"/>
	<stop  offset="1" style="stop-color:#D9DFE5"/>
</linearGradient>
<path fill="url(#SVGID_4_)" d="M43.854,35.287l-5.712-5.712H6.712L1,35.287v28.575c0,0,14.348,26.909,16.311,30.191
	c1.983,3.316,5.218,5.678,8.975,6.572c7.844,1.848,15.667-3.154,17.285-11.053C43.977,87.563,43.854,35.287,43.854,35.287z"/>
<linearGradient id="SVGID_5_" gradientUnits="userSpaceOnUse" x1="37.0054" y1="97.0928" x2="22.454" y2="76.7886">
	<stop  offset="0" style="stop-color:#7A869A"/>
	<stop  offset="0.4788" style="stop-color:#99A3B2"/>
	<stop  offset="0.4909" style="stop-color:#A7B3C4"/>
	<stop  offset="1" style="stop-color:#D9DFE5"/>
</linearGradient>
<path fill="url(#SVGID_5_)" d="M29.567,75.292c6.315,0,11.431,5.116,11.431,11.425c0,6.314-5.116,11.431-11.431,11.431
	c-6.308,0-11.424-5.116-11.424-11.431C18.143,80.408,23.26,75.292,29.567,75.292z"/>
<linearGradient id="SVGID_6_" gradientUnits="userSpaceOnUse" x1="23.855" y1="41.0864" x2="23.855" y2="63.4448">
	<stop  offset="0.0051" style="stop-color:#4C5B75"/>
	<stop  offset="0.0323" style="stop-color:#616F86"/>
	<stop  offset="0.098" style="stop-color:#8E99AA"/>
	<stop  offset="0.1641" style="stop-color:#B4BCC7"/>
	<stop  offset="0.2298" style="stop-color:#D1D7DE"/>
	<stop  offset="0.2946" style="stop-color:#E5EAEF"/>
	<stop  offset="0.3584" style="stop-color:#F2F6F9"/>
	<stop  offset="0.42" style="stop-color:#F6FAFC"/>
	<stop  offset="0.4744" style="stop-color:#F2F6F8"/>
	<stop  offset="0.5308" style="stop-color:#E6E9EC"/>
	<stop  offset="0.5882" style="stop-color:#D3D5D7"/>
	<stop  offset="0.6461" style="stop-color:#B7B8BB"/>
	<stop  offset="0.704" style="stop-color:#949396"/>
	<stop  offset="0.72" style="stop-color:#89878B"/>
	<stop  offset="1" style="stop-color:#F6FAFC"/>
</linearGradient>
<path fill="url(#SVGID_6_)" d="M11.707,41.005c-0.84,0-1.428,0.244-2.024,0.833c-0.71,0.717-1.421,1.428-2.132,2.139
	c-0.596,0.589-0.839,1.185-0.839,2.017c0,4.291,0,8.582,0,12.873c0,0.839,0.244,1.428,0.839,2.023
	c0.711,0.711,1.421,1.421,2.132,2.132c0.596,0.596,1.184,0.84,2.024,0.84c9.766,0,19.525,0,29.292,0V41.005
	C31.232,41.005,21.473,41.005,11.707,41.005z"/>
<linearGradient id="SVGID_7_" gradientUnits="userSpaceOnUse" x1="35.8926" y1="96.2354" x2="23.1654" y2="77.079">
	<stop  offset="0.0051" style="stop-color:#000000"/>
	<stop  offset="1" style="stop-color:#FFFFFF"/>
</linearGradient>
<path opacity="0.5" fill="url(#SVGID_7_)" d="M35.093,95.02c4.584-3.047,5.831-9.24,2.778-13.823
	c-3.047-4.584-9.24-5.83-13.823-2.777c-4.584,3.047-5.831,9.239-2.777,13.823C24.317,96.826,30.509,98.073,35.093,95.02z
	 M39.083,80.394c3.496,5.251,2.071,12.345-3.187,15.839c-5.251,3.496-12.344,2.07-15.84-3.188
	c-3.495-5.251-2.07-12.344,3.181-15.84C28.496,73.711,35.589,75.135,39.083,80.394z"/>
<linearGradient id="SVGID_8_" gradientUnits="userSpaceOnUse" x1="43.855" y1="36.4751" x2="43.855" y2="67.7033">
	<stop  offset="0.0051" style="stop-color:#4C5B75"/>
	<stop  offset="0.0323" style="stop-color:#616F86"/>
	<stop  offset="0.098" style="stop-color:#8E99AA"/>
	<stop  offset="0.1641" style="stop-color:#B4BCC7"/>
	<stop  offset="0.2298" style="stop-color:#D1D7DE"/>
	<stop  offset="0.2946" style="stop-color:#E5EAEF"/>
	<stop  offset="0.3584" style="stop-color:#F2F6F9"/>
	<stop  offset="0.42" style="stop-color:#F6FAFC"/>
	<stop  offset="0.4744" style="stop-color:#F2F6F8"/>
	<stop  offset="0.5308" style="stop-color:#E6E9EC"/>
	<stop  offset="0.5882" style="stop-color:#D3D5D7"/>
	<stop  offset="0.6461" style="stop-color:#B7B8BB"/>
	<stop  offset="0.704" style="stop-color:#949396"/>
	<stop  offset="0.72" style="stop-color:#89878B"/>
	<stop  offset="1" style="stop-color:#F6FAFC"/>
</linearGradient>
<rect x="40.999" y="38.143" fill="url(#SVGID_8_)"  />
<linearGradient id="SVGID_9_" gradientUnits="userSpaceOnUse" x1="154.0498" y1="122.8975" x2="93.6612" y2="-6.6063">
	<stop  offset="0" style="stop-color:#7A869A"/>
	<stop  offset="0.4788" style="stop-color:#99A3B2"/>
	<stop  offset="0.4909" style="stop-color:#A7B3C4"/>
	<stop  offset="1" style="stop-color:#D9DFE5"/>
</linearGradient>
<polygon fill="url(#SVGID_9_)" points="201,15.287 201,101.004 192.432,101.004 192.432,23.862 55.285,23.862 55.285,101.004 
	46.711,101.004 46.711,66.717 46.711,38.143 46.711,15.287 "/>
	
<path class="color" d="M192.432,15.287V1H55.285v14.287h-8.574v22.855H43.86c-0.003-1.806-0.005-2.856-0.005-2.856l-5.712-5.712
	H6.712L1,35.287v28.575c0,0,14.348,26.909,16.311,30.191c1.983,3.316,5.218,5.678,8.975,6.572
	c7.844,1.848,15.667-3.154,17.285-11.053c0.177-0.878,0.254-11.344,0.284-22.855h2.856v34.287h8.574v-2.856h137.146v2.856H201
	V15.287H192.432z M192.432,89.572H55.285v-8.568h137.146V89.572z"/>
	
<g fill="#606060">
	<path d="M82.426,77.174c0-0.785-0.637-1.428-1.428-1.428c-0.785,0-1.429,0.643-1.429,1.428
		c0,0.791,0.644,1.428,1.429,1.428C81.789,78.602,82.426,77.965,82.426,77.174z"/>
	<path d="M111,77.174c0-0.785-0.637-1.428-1.429-1.428c-0.785,0-1.428,0.643-1.428,1.428
		c0,0.791,0.643,1.428,1.428,1.428C110.363,78.602,111,77.965,111,77.174z"/>
	<path d="M139.574,77.174c0-0.785-0.644-1.428-1.429-1.428c-0.791,0-1.428,0.643-1.428,1.428
		c0,0.791,0.637,1.428,1.428,1.428C138.931,78.602,139.574,77.965,139.574,77.174z"/>
	<path d="M168.142,77.174c0-0.785-0.637-1.428-1.429-1.428c-0.785,0-1.427,0.643-1.427,1.428
		c0,0.791,0.642,1.428,1.427,1.428C167.505,78.602,168.142,77.965,168.142,77.174z"/>
	<path d="M168.142,27.686c0-0.785-0.637-1.428-1.429-1.428c-0.785,0-1.427,0.643-1.427,1.428
		c0,0.792,0.642,1.428,1.427,1.428C167.505,29.114,168.142,28.478,168.142,27.686z"/>
	<path d="M139.574,27.686c0-0.785-0.644-1.428-1.429-1.428c-0.791,0-1.428,0.643-1.428,1.428
		c0,0.792,0.637,1.428,1.428,1.428C138.931,29.114,139.574,28.478,139.574,27.686z"/>
	<path d="M111,27.686c0-0.785-0.637-1.428-1.429-1.428c-0.785,0-1.428,0.643-1.428,1.428
		c0,0.792,0.643,1.428,1.428,1.428C110.363,29.114,111,28.478,111,27.686z"/>
	<path d="M82.426,27.686c0-0.785-0.637-1.428-1.428-1.428c-0.785,0-1.429,0.643-1.429,1.428
		c0,0.792,0.644,1.428,1.429,1.428C81.789,29.114,82.426,28.478,82.426,27.686z"/>
	<path d="M182.429,66.717c0-0.785-0.636-1.428-1.428-1.428c-0.785,0-1.429,0.643-1.429,1.428
		c0,0.792,0.644,1.428,1.429,1.428C181.793,68.145,182.429,67.509,182.429,66.717z"/>
	<path d="M182.429,38.143c0-0.785-0.636-1.428-1.428-1.428c-0.785,0-1.429,0.643-1.429,1.428
		c0,0.792,0.644,1.435,1.429,1.435C181.793,39.578,182.429,38.934,182.429,38.143z"/>
	<path d="M168.142,52.43c0-0.785-0.637-1.428-1.429-1.428c-0.785,0-1.427,0.643-1.427,1.428
		c0,0.792,0.642,1.428,1.427,1.428C167.505,53.857,168.142,53.222,168.142,52.43z"/>
	<path d="M153.861,66.717c0-0.785-0.643-1.428-1.428-1.428c-0.792,0-1.436,0.643-1.436,1.428
		c0,0.792,0.644,1.428,1.436,1.428C153.219,68.145,153.861,67.509,153.861,66.717z"/>
	<path d="M153.861,38.143c0-0.785-0.643-1.428-1.428-1.428c-0.792,0-1.436,0.643-1.436,1.428
		c0,0.792,0.644,1.435,1.436,1.435C153.219,39.578,153.861,38.934,153.861,38.143z"/>
	<path d="M139.574,52.43c0-0.785-0.644-1.428-1.429-1.428c-0.791,0-1.428,0.643-1.428,1.428
		c0,0.792,0.637,1.428,1.428,1.428C138.931,53.857,139.574,53.222,139.574,52.43z"/>
	<path d="M125.287,66.717c0-0.785-0.644-1.428-1.428-1.428c-0.793,0-1.429,0.643-1.429,1.428
		c0,0.792,0.636,1.428,1.429,1.428C124.644,68.145,125.287,67.509,125.287,66.717z"/>
	<path d="M125.287,38.143c0-0.785-0.644-1.428-1.428-1.428c-0.793,0-1.429,0.643-1.429,1.428
		c0,0.792,0.636,1.435,1.429,1.435C124.644,39.578,125.287,38.934,125.287,38.143z"/>
	<path d="M111,52.43c0-0.785-0.637-1.428-1.429-1.428c-0.785,0-1.428,0.643-1.428,1.428
		c0,0.792,0.643,1.428,1.428,1.428C110.363,53.857,111,53.222,111,52.43z"/>
	<path d="M96.713,38.143c0-0.785-0.637-1.428-1.429-1.428c-0.785,0-1.428,0.643-1.428,1.428
		c0,0.792,0.643,1.435,1.428,1.435C96.076,39.578,96.713,38.934,96.713,38.143z"/>
	<path d="M96.713,66.717c0-0.785-0.637-1.428-1.429-1.428c-0.785,0-1.428,0.643-1.428,1.428
		c0,0.792,0.643,1.428,1.428,1.428C96.076,68.145,96.713,67.509,96.713,66.717z"/>
	<path d="M68.145,66.717c0-0.785-0.643-1.428-1.428-1.428c-0.792,0-1.428,0.643-1.428,1.428
		c0,0.792,0.636,1.428,1.428,1.428C67.502,68.145,68.145,67.509,68.145,66.717z"/>
	<path d="M82.426,52.43c0-0.785-0.637-1.428-1.428-1.428c-0.785,0-1.429,0.643-1.429,1.428
		c0,0.792,0.644,1.428,1.429,1.428C81.789,53.857,82.426,53.222,82.426,52.43z"/>
	<path d="M68.145,38.143c0-0.785-0.643-1.428-1.428-1.428c-0.792,0-1.428,0.643-1.428,1.428
		c0,0.792,0.636,1.435,1.428,1.435C67.502,39.578,68.145,38.934,68.145,38.143z"/>
</g>

<g class="stroke">
	<line x1="10.522" y1="42.434" x2="10.522" y2="62.433"/>
	<path d="M40.999,63.861
		c-9.766,0-19.525,0-29.292,0c-0.84,0-1.428-0.244-2.024-0.84c-0.71-0.711-1.421-1.421-2.132-2.132
		c-0.596-0.596-0.839-1.185-0.839-2.023c0-4.291,0-8.582,0-12.873c0-0.833,0.244-1.428,0.839-2.017
		c0.711-0.71,1.421-1.421,2.132-2.139c0.596-0.589,1.184-0.833,2.024-0.833c9.766,0,19.525,0,29.292,0"/>
	<polyline points="46.711,38.143 43.854,38.143 40.999,38.143 40.999,41.005 40.999,63.861 40.999,66.717 43.854,66.717 46.711,66.717 	"/>
	<line x1="192.432" y1="81.004" x2="55.285" y2="81.004"/>
	<line x1="55.285" y1="98.147" x2="192.432" y2="98.147"/>
	<line x1="55.285" y1="89.572" x2="192.432" y2="89.572"/>
	<polyline points="55.285,15.287 55.285,1 192.432,1 192.432,15.287 	"/>
	<polygon points="192.432,101.004 201,101.004 201,15.287 46.711,15.287 46.711,38.143 46.711,66.717 46.711,101.004 55.285,101.004 55.285,23.862 
		192.432,23.862 	"/>
	<path d="M43.854,38.143
		c0-0.948,0-1.902,0-2.856c-1.902-1.902-3.81-3.811-5.712-5.712c-10.477,0-20.954,0-31.431,0C4.81,31.476,2.901,33.385,1,35.287
		c0,9.529,0,19.051,0,28.575c3.621,6.707,7.242,13.414,10.862,20.121c1.814,3.363,3.485,6.788,5.448,10.07
		c1.983,3.316,5.218,5.678,8.975,6.572c7.844,1.848,15.667-3.154,17.285-11.053c0.406-2.01,0.284-9.428,0.284-11.424
		c0-3.811,0-7.621,0-11.432"/>
	<path d="M40.999,86.717
		c0-6.309-5.116-11.425-11.431-11.425c-6.308,0-11.424,5.116-11.424,11.425c0,6.314,5.117,11.431,11.424,11.431
		C35.882,98.147,40.999,93.031,40.999,86.717z"/>
</g>
</svg>
