<?xml version="1.0" encoding="utf-8"?>
<!-- Generator: Adobe Illustrator 19.0.0, SVG Export Plug-In . SVG Version: 6.00 Build 0)  -->
<svg version="1.1" id="图层_1" xmlns="http://www.w3.org/2000/svg" xmlns:xlink="http://www.w3.org/1999/xlink" x="0px" y="0px"
	 viewBox="18 14.6 144.7 79.1" style="enable-background:new 18 14.6 144.7 79.1;" xml:space="preserve">
<style type="text/css">
	.st0{fill:#006600;stroke:#000000;stroke-width:0.5;}
	.st1{fill:#003300;}
</style>
<g>
	<path class="st0" d="M49.9,32.9l5.8-3l5.5-11.2h11.4L84,21.5l8.4-2.8l20,5.7h11.4l14.2,8.5l2.8,11.2l11.4,3l5.8,11.4l5.7,2.8
		l2.8,22.6l-11.4,3h-28.4l-14.2,2.8l-20-2.8H78.3l-17.1,2.8l-22.7-2.8l-8.4-5.8l2.8-14.2l8.7-14.2l5.5-5.7L49.9,32.9z"/>
	<path class="st1" d="M41.5,81.1l5.5-5.7l-5.5-5.8l2.8-5.5l2.8,5.5l14.2,5.8L41.5,81.1z"/>
	<path class="st1" d="M78.3,27.1l-11.4,2.8h-8.4l5.7,5.8l2.8,8.4v-8.4L78.3,27.1z"/>
	<path class="st1" d="M138.1,44l-2.9,3l-11.3-5.8L112.6,47l-11.4-8.5l3-14.2v11.3l17,2.9l2.9-5.7l5.8,8.4L138.1,44z"/>
	<path class="st1" d="M98.3,44l-8.4,8.7l2.6,8.5l11.6,2.9l2.6-5.7l11.6,2.8l5.7-5.8l-2.9,8.7l-11.4,5.5H101L92.6,81h-5.7V69.7
		l-5.8-5.5L64,67l-11.4-8.4L64,64.3l8.5-2.9l2.9-5.8l-5.7-5.7l8.4,2.9L92.6,44v-8.4L98.3,44z"/>
	<path class="st1" d="M126.6,83.9l3-5.4l8.4-5.8l5.8,5.8l14.2,2.6l2.8-5.7l-2.8-8.5v8.5h-11.4l-5.8-8.5l-11.2,2.8l-5.8,8.8
		L126.6,83.9z"/>
</g>
</svg>
