<?xml version="1.0" encoding="utf-8"?>
<!-- Generator: Adobe Illustrator 21.0.0, SVG Export Plug-In . SVG Version: 6.00 Build 0)  -->
<svg version="1.1" id="图层_1" xmlns="http://www.w3.org/2000/svg" xmlns:xlink="http://www.w3.org/1999/xlink" x="0px" y="0px"
	 viewBox="0 0 302 152" style="enable-background:new 0 0 302 152;" xml:space="preserve">
<style type="text/css">
	.st0{fill:url(#SVGID_1_);}
	.st1{fill:url(#support_2_);}
	.st2{fill:url(#support_3_);}
	.st3{fill:url(#SVGID_2_);}
	.st4{fill:url(#SVGID_3_);}
	.st5{fill:url(#SVGID_4_);}
	.st6{fill:url(#SVGID_5_);}
	.st7{fill:url(#SVGID_6_);}
	.st8{fill:url(#SVGID_7_);}
	.st9{fill:url(#SVGID_8_);}
	.st10{fill:url(#SVGID_9_);}
	.st11{fill:url(#SVGID_10_);}
	.st12{fill:url(#SVGID_11_);}
	.st13{fill:url(#SVGID_12_);}
	.st14{fill:url(#SVGID_13_);}
	.st15{opacity:0.5;}
	.st16{fill:none;stroke:#000000;stroke-width:0.5;stroke-linejoin:round;}
	.st17{opacity:0.2;fill:#3664BF;enable-background:new    ;}
</style>
<g id="图层_1_1_" xmlns:agg="http://www.example.com">
	<agg:params>
		<agg:param  classes="color" cssAttributes="fill" description="Color" name="color" type="C"></agg:param>
		<agg:param  classes="color" cssAttributes="opacity" description="Saturation" max="1" min="0" name="saturation" type="F">
			</agg:param>
	</agg:params>
	
		<linearGradient id="SVGID_1_" gradientUnits="userSpaceOnUse" x1="51" y1="706" x2="51" y2="706" gradientTransform="matrix(1 0 0 1 0 -690)">
		<stop  offset="5.100000e-03" style="stop-color:#4D5C75"/>
		<stop  offset="5.000000e-02" style="stop-color:#697188"/>
		<stop  offset="0.1127" style="stop-color:#8C90A3"/>
		<stop  offset="0.1759" style="stop-color:#ADB0BD"/>
		<stop  offset="0.2385" style="stop-color:#C9CBD4"/>
		<stop  offset="0.3004" style="stop-color:#E0E2E7"/>
		<stop  offset="0.3613" style="stop-color:#F0F3F5"/>
		<stop  offset="0.42" style="stop-color:#F6FAFC"/>
		<stop  offset="0.4738" style="stop-color:#F1F3F4"/>
		<stop  offset="0.5296" style="stop-color:#E3E4E5"/>
		<stop  offset="0.5863" style="stop-color:#CECDCF"/>
		<stop  offset="0.6436" style="stop-color:#B3B1B4"/>
		<stop  offset="0.7008" style="stop-color:#959296"/>
		<stop  offset="0.72" style="stop-color:#8A888B"/>
		<stop  offset="1" style="stop-color:#F6FAFC"/>
	</linearGradient>
	<path class="st0" d="M51,16L51,16L51,16z"/>
	
		<linearGradient id="support_2_" gradientUnits="userSpaceOnUse" x1="84.1718" y1="836.7027" x2="56.2928" y2="794.6211" gradientTransform="matrix(1 0 0 1 0 -690)">
		<stop  offset="5.100000e-03" style="stop-color:#4D5C75"/>
		<stop  offset="0.1472" style="stop-color:#5C6780"/>
		<stop  offset="0.4285" style="stop-color:#828B9E"/>
		<stop  offset="0.5576" style="stop-color:#99A3B2"/>
		<stop  offset="0.5636" style="stop-color:#AEB7C4"/>
		<stop  offset="0.9997" style="stop-color:#F6FAFC"/>
	</linearGradient>
	<polygon id="support" class="st1" points="80.4,141 61.6,141 66,106 76,106 	"/>
	<g transform="translate(160 0)">
		
			<linearGradient id="support_3_" gradientUnits="userSpaceOnUse" x1="-235.8282" y1="836.7027" x2="-263.7072" y2="794.6211" gradientTransform="matrix(1 0 0 1 320 -690)">
			<stop  offset="5.100000e-03" style="stop-color:#4D5C75"/>
			<stop  offset="0.1472" style="stop-color:#5C6780"/>
			<stop  offset="0.4285" style="stop-color:#828B9E"/>
			<stop  offset="0.5576" style="stop-color:#99A3B2"/>
			<stop  offset="0.5636" style="stop-color:#AEB7C4"/>
			<stop  offset="0.9997" style="stop-color:#F6FAFC"/>
		</linearGradient>
		<polygon id="support_1_" class="st2" points="80.4,141 61.6,141 66,106 76,106 		"/>
	</g>
	
		<radialGradient id="SVGID_2_" cx="21" cy="750.9368" r="19.999" gradientTransform="matrix(1 0 0 1.0001 0 -690.0119)" gradientUnits="userSpaceOnUse">
		<stop  offset="0" style="stop-color:#F6FAFC"/>
		<stop  offset="0.6061" style="stop-color:#8A888B"/>
		<stop  offset="0.7697" style="stop-color:#F6FAFC"/>
		<stop  offset="0.8023" style="stop-color:#F0F3F5"/>
		<stop  offset="0.8361" style="stop-color:#E0E2E7"/>
		<stop  offset="0.8705" style="stop-color:#C9CBD4"/>
		<stop  offset="0.9052" style="stop-color:#ADB0BD"/>
		<stop  offset="0.9403" style="stop-color:#8C90A3"/>
		<stop  offset="0.9751" style="stop-color:#697188"/>
		<stop  offset="1" style="stop-color:#4D5C75"/>
	</radialGradient>
	<path class="st3" d="M41,61c0-11-9-20-20-20c-6,0-11.3,2.6-15,6.8C2.9,51.3,1,55.9,1,61c0,11,9,20,20,20S41,72,41,61z"/>
	
		<linearGradient id="SVGID_3_" gradientUnits="userSpaceOnUse" x1="111.2083" y1="763.5272" x2="54.4484" y2="696.8959" gradientTransform="matrix(1 0 0 1 0 -690)">
		<stop  offset="5.100000e-03" style="stop-color:#4D5C75"/>
		<stop  offset="0.1472" style="stop-color:#5C6780"/>
		<stop  offset="0.4285" style="stop-color:#828B9E"/>
		<stop  offset="0.5576" style="stop-color:#99A3B2"/>
		<stop  offset="0.5636" style="stop-color:#AEB7C4"/>
		<stop  offset="0.9997" style="stop-color:#F6FAFC"/>
	</linearGradient>
	<polygon class="st4" points="106,16 106,71 61,71 61,16 61,11 106,11 	"/>
</g>
<g id="图层_2">
	
		<linearGradient id="SVGID_4_" gradientUnits="userSpaceOnUse" x1="91" y1="809.85" x2="106" y2="809.85" gradientTransform="matrix(1 0 0 1 0 -690)">
		<stop  offset="5.100000e-03" style="stop-color:#4D5C75"/>
		<stop  offset="5.000000e-02" style="stop-color:#697188"/>
		<stop  offset="0.1127" style="stop-color:#8C90A3"/>
		<stop  offset="0.1759" style="stop-color:#ADB0BD"/>
		<stop  offset="0.2385" style="stop-color:#C9CBD4"/>
		<stop  offset="0.3004" style="stop-color:#E0E2E7"/>
		<stop  offset="0.3613" style="stop-color:#F0F3F5"/>
		<stop  offset="0.42" style="stop-color:#F6FAFC"/>
		<stop  offset="0.4738" style="stop-color:#F1F3F4"/>
		<stop  offset="0.5296" style="stop-color:#E3E4E5"/>
		<stop  offset="0.5863" style="stop-color:#CECDCF"/>
		<stop  offset="0.6436" style="stop-color:#B3B1B4"/>
		<stop  offset="0.7008" style="stop-color:#959296"/>
		<stop  offset="0.72" style="stop-color:#8A888B"/>
		<stop  offset="1" style="stop-color:#F6FAFC"/>
	</linearGradient>
	<path class="st5" d="M106,116c0,3.3,0,6.7,0,10H91c0-3.3,0-6.7,0-10c2.4-1.5,5-2.3,7.5-2.3c1.2,0,2.5,0.2,3.7,0.6
		c0.6,0.2,1.2,0.4,1.8,0.7C104.7,115.3,105.3,115.6,106,116z"/>
	
		<linearGradient id="SVGID_5_" gradientUnits="userSpaceOnUse" x1="51" y1="831" x2="51" y2="831" gradientTransform="matrix(1 0 0 1 0 -690)">
		<stop  offset="5.100000e-03" style="stop-color:#4D5C75"/>
		<stop  offset="0.1472" style="stop-color:#5C6780"/>
		<stop  offset="0.4285" style="stop-color:#828B9E"/>
		<stop  offset="0.5576" style="stop-color:#99A3B2"/>
		<stop  offset="0.5636" style="stop-color:#AEB7C4"/>
		<stop  offset="0.9997" style="stop-color:#F6FAFC"/>
	</linearGradient>
	<path class="st6" d="M51,141L51,141L51,141z"/>
	
		<linearGradient id="SVGID_6_" gradientUnits="userSpaceOnUse" x1="263.3" y1="741.3506" x2="263.3" y2="766.2062" gradientTransform="matrix(1 0 0 1 0 -690)">
		<stop  offset="5.100000e-03" style="stop-color:#4D5C75"/>
		<stop  offset="5.000000e-02" style="stop-color:#697188"/>
		<stop  offset="0.1127" style="stop-color:#8C90A3"/>
		<stop  offset="0.1759" style="stop-color:#ADB0BD"/>
		<stop  offset="0.2385" style="stop-color:#C9CBD4"/>
		<stop  offset="0.3004" style="stop-color:#E0E2E7"/>
		<stop  offset="0.3613" style="stop-color:#F0F3F5"/>
		<stop  offset="0.42" style="stop-color:#F6FAFC"/>
		<stop  offset="0.4738" style="stop-color:#F1F3F4"/>
		<stop  offset="0.5296" style="stop-color:#E3E4E5"/>
		<stop  offset="0.5863" style="stop-color:#CECDCF"/>
		<stop  offset="0.6436" style="stop-color:#B3B1B4"/>
		<stop  offset="0.7008" style="stop-color:#959296"/>
		<stop  offset="0.72" style="stop-color:#8A888B"/>
		<stop  offset="1" style="stop-color:#F6FAFC"/>
	</linearGradient>
	<polygon class="st7" points="265.3,51 275.6,76 251,76 251,51 	"/>
	
		<linearGradient id="SVGID_7_" gradientUnits="userSpaceOnUse" x1="270.5854" y1="735.8459" x2="288.4686" y2="753.4662" gradientTransform="matrix(1 0 0 1 0 -690)">
		<stop  offset="5.100000e-03" style="stop-color:#4D5C75"/>
		<stop  offset="5.000000e-02" style="stop-color:#697188"/>
		<stop  offset="0.1127" style="stop-color:#8C90A3"/>
		<stop  offset="0.1759" style="stop-color:#ADB0BD"/>
		<stop  offset="0.2385" style="stop-color:#C9CBD4"/>
		<stop  offset="0.3004" style="stop-color:#E0E2E7"/>
		<stop  offset="0.3613" style="stop-color:#F0F3F5"/>
		<stop  offset="0.42" style="stop-color:#F6FAFC"/>
		<stop  offset="0.4738" style="stop-color:#F1F3F4"/>
		<stop  offset="0.5296" style="stop-color:#E3E4E5"/>
		<stop  offset="0.5863" style="stop-color:#CECDCF"/>
		<stop  offset="0.6436" style="stop-color:#B3B1B4"/>
		<stop  offset="0.7008" style="stop-color:#959296"/>
		<stop  offset="0.72" style="stop-color:#8A888B"/>
		<stop  offset="1" style="stop-color:#F6FAFC"/>
	</linearGradient>
	<polygon class="st8" points="301,50.6 275.6,76 265.3,51 276,40.3 	"/>
	
		<linearGradient id="SVGID_8_" gradientUnits="userSpaceOnUse" x1="276" y1="723.3" x2="301" y2="723.3" gradientTransform="matrix(1 0 0 1 0 -690)">
		<stop  offset="5.100000e-03" style="stop-color:#4D5C75"/>
		<stop  offset="5.000000e-02" style="stop-color:#697188"/>
		<stop  offset="0.1127" style="stop-color:#8C90A3"/>
		<stop  offset="0.1759" style="stop-color:#ADB0BD"/>
		<stop  offset="0.2385" style="stop-color:#C9CBD4"/>
		<stop  offset="0.3004" style="stop-color:#E0E2E7"/>
		<stop  offset="0.3613" style="stop-color:#F0F3F5"/>
		<stop  offset="0.42" style="stop-color:#F6FAFC"/>
		<stop  offset="0.4738" style="stop-color:#F1F3F4"/>
		<stop  offset="0.5296" style="stop-color:#E3E4E5"/>
		<stop  offset="0.5863" style="stop-color:#CECDCF"/>
		<stop  offset="0.6436" style="stop-color:#B3B1B4"/>
		<stop  offset="0.7008" style="stop-color:#959296"/>
		<stop  offset="0.72" style="stop-color:#8A888B"/>
		<stop  offset="1" style="stop-color:#F6FAFC"/>
	</linearGradient>
	<polygon class="st9" points="301,16 301,50.6 276,40.3 276,16 	"/>
	
		<linearGradient id="SVGID_9_" gradientUnits="userSpaceOnUse" x1="36" y1="750.8188" x2="36" y2="770.9183" gradientTransform="matrix(1 0 0 1 0 -690)">
		<stop  offset="5.100000e-03" style="stop-color:#4D5C75"/>
		<stop  offset="5.000000e-02" style="stop-color:#697188"/>
		<stop  offset="0.1127" style="stop-color:#8C90A3"/>
		<stop  offset="0.1759" style="stop-color:#ADB0BD"/>
		<stop  offset="0.2385" style="stop-color:#C9CBD4"/>
		<stop  offset="0.3004" style="stop-color:#E0E2E7"/>
		<stop  offset="0.3613" style="stop-color:#F0F3F5"/>
		<stop  offset="0.42" style="stop-color:#F6FAFC"/>
		<stop  offset="0.4738" style="stop-color:#F1F3F4"/>
		<stop  offset="0.5296" style="stop-color:#E3E4E5"/>
		<stop  offset="0.5863" style="stop-color:#CECDCF"/>
		<stop  offset="0.6436" style="stop-color:#B3B1B4"/>
		<stop  offset="0.7008" style="stop-color:#959296"/>
		<stop  offset="0.72" style="stop-color:#8A888B"/>
		<stop  offset="1" style="stop-color:#F6FAFC"/>
	</linearGradient>
	<path class="st10" d="M51,61v20H21c11,0,20-9,20-20H51z"/>
	
		<linearGradient id="SVGID_10_" gradientUnits="userSpaceOnUse" x1="-6.1187" y1="719.0754" x2="35.4357" y2="767.994" gradientTransform="matrix(1 0 0 1 0 -690)">
		<stop  offset="5.100000e-03" style="stop-color:#4D5C75"/>
		<stop  offset="5.000000e-02" style="stop-color:#697188"/>
		<stop  offset="0.1127" style="stop-color:#8C90A3"/>
		<stop  offset="0.1759" style="stop-color:#ADB0BD"/>
		<stop  offset="0.2385" style="stop-color:#C9CBD4"/>
		<stop  offset="0.3004" style="stop-color:#E0E2E7"/>
		<stop  offset="0.3613" style="stop-color:#F0F3F5"/>
		<stop  offset="0.42" style="stop-color:#F6FAFC"/>
		<stop  offset="0.4738" style="stop-color:#F1F3F4"/>
		<stop  offset="0.5296" style="stop-color:#E3E4E5"/>
		<stop  offset="0.5863" style="stop-color:#CECDCF"/>
		<stop  offset="0.6436" style="stop-color:#B3B1B4"/>
		<stop  offset="0.7008" style="stop-color:#959296"/>
		<stop  offset="0.72" style="stop-color:#8A888B"/>
		<stop  offset="1" style="stop-color:#F6FAFC"/>
	</linearGradient>
	<path class="st11" d="M21,51c-5.5,0-10,4.5-10,10s4.5,10,10,10s10-4.5,10-10S26.5,51,21,51z"/>
	
		<linearGradient id="SVGID_11_" gradientUnits="userSpaceOnUse" x1="221" y1="702.1" x2="236" y2="702.1" gradientTransform="matrix(1 0 0 1 0 -690)">
		<stop  offset="5.100000e-03" style="stop-color:#4D5C75"/>
		<stop  offset="5.000000e-02" style="stop-color:#697188"/>
		<stop  offset="0.1127" style="stop-color:#8C90A3"/>
		<stop  offset="0.1759" style="stop-color:#ADB0BD"/>
		<stop  offset="0.2385" style="stop-color:#C9CBD4"/>
		<stop  offset="0.3004" style="stop-color:#E0E2E7"/>
		<stop  offset="0.3613" style="stop-color:#F0F3F5"/>
		<stop  offset="0.42" style="stop-color:#F6FAFC"/>
		<stop  offset="0.4738" style="stop-color:#F1F3F4"/>
		<stop  offset="0.5296" style="stop-color:#E3E4E5"/>
		<stop  offset="0.5863" style="stop-color:#CECDCF"/>
		<stop  offset="0.6436" style="stop-color:#B3B1B4"/>
		<stop  offset="0.7008" style="stop-color:#959296"/>
		<stop  offset="0.72" style="stop-color:#8A888B"/>
		<stop  offset="1" style="stop-color:#F6FAFC"/>
	</linearGradient>
	<path class="st12" d="M236,6c0,3.3,0,6.7,0,10c-2.4,1.5-5,2.3-7.5,2.3c-1.2,0-2.5-0.2-3.7-0.6c-0.6-0.2-1.2-0.4-1.8-0.7
		c-0.7-0.3-1.3-0.6-2-1.1c0-3.3,0-6.7,0-10h15V6z"/>
	
		<linearGradient id="SVGID_12_" gradientUnits="userSpaceOnUse" x1="216" y1="693.5" x2="241" y2="693.5" gradientTransform="matrix(1 0 0 1 0 -690)">
		<stop  offset="5.100000e-03" style="stop-color:#4D5C75"/>
		<stop  offset="5.000000e-02" style="stop-color:#697188"/>
		<stop  offset="0.1127" style="stop-color:#8C90A3"/>
		<stop  offset="0.1759" style="stop-color:#ADB0BD"/>
		<stop  offset="0.2385" style="stop-color:#C9CBD4"/>
		<stop  offset="0.3004" style="stop-color:#E0E2E7"/>
		<stop  offset="0.3613" style="stop-color:#F0F3F5"/>
		<stop  offset="0.42" style="stop-color:#F6FAFC"/>
		<stop  offset="0.4738" style="stop-color:#F1F3F4"/>
		<stop  offset="0.5296" style="stop-color:#E3E4E5"/>
		<stop  offset="0.5863" style="stop-color:#CECDCF"/>
		<stop  offset="0.6436" style="stop-color:#B3B1B4"/>
		<stop  offset="0.7008" style="stop-color:#959296"/>
		<stop  offset="0.72" style="stop-color:#8A888B"/>
		<stop  offset="1" style="stop-color:#F6FAFC"/>
	</linearGradient>
	<polygon class="st13" points="241,1 241,6 236,6 221,6 216,6 216,1 	"/>
	
		<linearGradient id="SVGID_13_" gradientUnits="userSpaceOnUse" x1="86" y1="818.5" x2="111" y2="818.5" gradientTransform="matrix(1 0 0 1 0 -690)">
		<stop  offset="5.100000e-03" style="stop-color:#4D5C75"/>
		<stop  offset="5.000000e-02" style="stop-color:#697188"/>
		<stop  offset="0.1127" style="stop-color:#8C90A3"/>
		<stop  offset="0.1759" style="stop-color:#ADB0BD"/>
		<stop  offset="0.2385" style="stop-color:#C9CBD4"/>
		<stop  offset="0.3004" style="stop-color:#E0E2E7"/>
		<stop  offset="0.3613" style="stop-color:#F0F3F5"/>
		<stop  offset="0.42" style="stop-color:#F6FAFC"/>
		<stop  offset="0.4738" style="stop-color:#F1F3F4"/>
		<stop  offset="0.5296" style="stop-color:#E3E4E5"/>
		<stop  offset="0.5863" style="stop-color:#CECDCF"/>
		<stop  offset="0.6436" style="stop-color:#B3B1B4"/>
		<stop  offset="0.7008" style="stop-color:#959296"/>
		<stop  offset="0.72" style="stop-color:#8A888B"/>
		<stop  offset="1" style="stop-color:#F6FAFC"/>
	</linearGradient>
	<polygon class="st14" points="111,126 111,131 86,131 86,126 91,126 106,126 	"/>
	<g class="st15">
		<path class="st16" d="M41,61c0-11-9-20-20-20c-6,0-11.3,2.6-15,6.8C2.9,51.3,1,55.9,1,61c0,11,9,20,20,20S41,72,41,61z"/>
		<polyline class="st16" points="240.4,141 237.3,116 236,106 226,106 224.7,116 221.6,141 		"/>
		<line class="st16" x1="77.3" y1="116" x2="80.4" y2="141"/>
		<polyline class="st16" points="61.6,141 64.7,116 66,106 76,106 77.2,116 		"/>
		<polygon class="st16" points="61.6,141 51,141 51,151 251,151 251,141 240.4,141 221.6,141 80.4,141 		"/>
		<polyline class="st16" points="77.2,116 77.3,116 91,116 		"/>
		<polyline class="st16" points="61,16 51,16 51,61 51,81 51,116 64.7,116 		"/>
		<polyline class="st16" points="237.3,116 251,116 251,76 251,51 251,16 236,16 		"/>
		<line class="st16" x1="106" y1="116" x2="224.7" y2="116"/>
		<line class="st16" x1="221" y1="16" x2="106" y2="16"/>
		<line class="st16" x1="236" y1="6" x2="221" y2="6"/>
		<line class="st16" x1="265.3" y1="51" x2="275.6" y2="76"/>
		<polyline class="st16" points="221,6 216,6 216,1 241,1 241,6 236,6 		"/>
		<line class="st16" x1="91" y1="126" x2="106" y2="126"/>
		<polyline class="st16" points="106,126 111,126 111,131 86,131 86,126 91,126 		"/>
		<line class="st16" x1="276" y1="40.3" x2="301" y2="50.6"/>
		<line class="st16" x1="21" y1="81" x2="51" y2="81"/>
		<line class="st16" x1="41" y1="61" x2="51" y2="61"/>
		<path class="st16" d="M21,51c-5.5,0-10,4.5-10,10s4.5,10,10,10s10-4.5,10-10S26.5,51,21,51z"/>
		<polyline class="st16" points="251,51 265.3,51 276,40.3 276,16 301,16 301,50.6 275.6,76 251,76 		"/>
		<polygon class="st16" points="61,16 61,71 106,71 106,16 106,11 61,11 		"/>
		<path class="st16" d="M236,6c0,3.3,0,6.7,0,10c-2.4,1.5-5,2.3-7.5,2.3c-1.2,0-2.5-0.2-3.7-0.6c-0.6-0.2-1.2-0.4-1.8-0.7
			c-0.7-0.3-1.3-0.6-2-1.1c0-3.3,0-6.7,0-10"/>
		<path class="st16" d="M91,126c0-3.3,0-6.7,0-10c2.4-1.5,5-2.3,7.5-2.3c1.2,0,2.5,0.2,3.7,0.6c0.6,0.2,1.2,0.4,1.8,0.7
			c0.7,0.3,1.3,0.6,2,1c0,3.3,0,6.7,0,10"/>
	</g>
	<path class="st17" d="M276,16v24.3L265.3,51H251V16h-15c0-3.3,0-6.7,0-10h5V1h-25v5h5c0,3.3,0,6.7,0,10H106v-5H61v5H51v45H41
		c0-11-9-20-20-20c-6,0-11.3,2.6-15,6.8C2.9,51.3,1,55.9,1,61c0,11,9,20,20,20h30v35h13.7l-3.1,25H51v10h200v-10h-10.6l-3.1-25H251
		V76h24.6L301,50.6V16H276z M80.4,141l-3.1-25l0,0H91c0,3.3,0,6.7,0,10h-5v5h25v-5h-5c0-3.3,0-6.7,0-10h118.7l-3.1,25H80.4L80.4,141
		z"/>
</g>
</svg>
