<?xml version="1.0" encoding="utf-8"?>
<!-- Generator: Adobe Illustrator 15.1.0, SVG Export Plug-In . SVG Version: 6.00 Build 0)  -->
<!DOCTYPE svg PUBLIC "-//W3C//DTD SVG 1.1//EN" "http://www.w3.org/Graphics/SVG/1.1/DTD/svg11.dtd">
<svg version="1.1" id="Layer_1" xmlns="http://www.w3.org/2000/svg" preserveAspectRatio="none"   x="0px" y="0px"
	   viewBox="0 0 152 117" xml:space="preserve" xmlns:agg="http://www.example.com">
	 
<agg:params>
	<agg:param type="C" name="color" description="Color" cssAttributes="fill" classes="color"/>
</agg:params>

<style type="text/css" >
   <![CDATA[

	.stroke,.thin,.thick{
		stroke-linecap:butt;
		stroke-linejoin:round;
		stroke: black;
		fill:none;
		opacity:0.5;
	}

	.stroke{stroke-width:0.5;}

	.thin {stroke-width:0.25;}

	.thick {stroke-width:0.75;}
	
	.color {
		fill:#F26700;
		opacity:1;
	}

      ]]>
</style>
	 
<path class="color" d="M52.431,13.279
	c-4.43-1.878-9.152-2.931-13.874-2.931h-0.006c0-3.116,0-6.232,0-9.348C28.142,4.116,17.732,7.232,7.317,10.348
	c2.651,2.843,5.295,5.692,7.946,8.535C6.539,25.813,0.595,36.266,1.068,47.638c0,18.645,0,37.288,0,55.933c1.053,0,2.101,0,3.154,0
	c23.938,0,47.875,0,71.812,0c23.961,0,47.915,0,71.87,0c1.03,0,2.065,0,3.096,0c0-1.046,0-2.086,0-3.132
	c0-15.087,0-30.175,0-45.261C118.146,41.213,85.285,27.249,52.431,13.279z"/>
<polygon fill="#4D4D4D" points="131.649,63.898 107.264,94.223 131.649,94.223 
	124.772,85.149 146.914,85.149 143.842,63.898 131.649,63.898 	"/>
<ellipse fill="#989898" cx="119.724" cy="72.497" rx="3.102" ry="3.081"/>
<path fill="#B3B3B3" d="M119.771,60.078c6.904,0.029,12.475,5.61,12.445,12.465c-0.023,6.86-5.64,12.396-12.545,12.366
	c-6.898-0.029-12.469-5.604-12.445-12.465C107.261,65.59,112.872,60.057,119.771,60.078z M122.825,72.496
	c0-1.702-1.387-3.08-3.102-3.08c-1.714,0-3.102,1.378-3.102,3.08c0,1.704,1.388,3.081,3.102,3.081
	C121.438,75.577,122.825,74.2,122.825,72.496z"/>
<path fill="#989898" d="M135.165,61.915c5.88,8.477,3.733,20.082-4.792,25.925c-8.531,5.842-20.21,3.709-26.091-4.762
	c-5.88-8.477-3.732-20.081,4.793-25.923C117.605,51.313,129.285,53.438,135.165,61.915z M132.216,72.543
	c0.029-6.854-5.541-12.436-12.445-12.465c-6.898-0.021-12.51,5.512-12.545,12.366c-0.023,6.86,5.547,12.436,12.445,12.465
	C126.576,84.938,132.192,79.403,132.216,72.543z"/>
<path fill="#676767" d="M138.395,61.282c6.231,10.249,2.926,23.574-7.39,29.766c-3.528,2.116-7.419,3.128-11.264,3.128
	c-6.928,0-13.691-3.278-17.887-9.256c-0.281-0.389-0.55-0.796-0.802-1.215c-1.545-2.541-2.504-5.268-2.908-8.029h-0.006
	c-0.474-3.167-0.223-6.376,0.685-9.394c0.661-2.203,1.68-4.309,3.02-6.215h0.006c1.686-2.407,3.896-4.506,6.589-6.122
	C118.753,47.754,132.163,51.038,138.395,61.282z M130.373,87.84c8.525-5.843,10.672-17.448,4.792-25.925s-17.56-10.603-26.09-4.76
	c-8.525,5.842-10.673,17.446-4.793,25.923C110.163,91.549,121.842,93.682,130.373,87.84z"/>

	<linearGradient id="SVGID_1_" gradientUnits="userSpaceOnUse" x1="90.5" y1="75.4482" x2="90.5" y2="84.9125">
		<stop  offset="0.0051" style="stop-color:#4D5C75"/>
		<stop  offset="0.05" style="stop-color:#697188"/>
		<stop  offset="0.1127" style="stop-color:#8C90A3"/>
		<stop  offset="0.1759" style="stop-color:#ADB0BD"/>
		<stop  offset="0.2385" style="stop-color:#C9CBD4"/>
		<stop  offset="0.3004" style="stop-color:#E0E2E7"/>
		<stop  offset="0.3613" style="stop-color:#F0F3F5"/>
		<stop  offset="0.42" style="stop-color:#F6FAFC"/>
		<stop  offset="0.4738" style="stop-color:#F1F3F4"/>
		<stop  offset="0.5296" style="stop-color:#E3E4E5"/>
		<stop  offset="0.5863" style="stop-color:#CECDCF"/>
		<stop  offset="0.6436" style="stop-color:#B3B1B4"/>
		<stop  offset="0.7008" style="stop-color:#959296"/>
		<stop  offset="0.72" style="stop-color:#8A888B"/>
		<stop  offset="1" style="stop-color:#F6FAFC"/>
	</linearGradient>
	<path fill="url(#SVGID_1_)" d="M101.053,83.705c0.252,0.419,0.521,0.826,0.802,1.215l-0.006,0.006H79.146v-9.25h18.993h0.006
		C98.549,78.438,99.508,81.164,101.053,83.705z"/>
	<linearGradient id="SVGID_2_" gradientUnits="userSpaceOnUse" x1="93.2148" y1="59.8721" x2="93.2148" y2="66.2932">
		<stop  offset="0.0051" style="stop-color:#4D5C75"/>
		<stop  offset="0.05" style="stop-color:#697188"/>
		<stop  offset="0.1127" style="stop-color:#8C90A3"/>
		<stop  offset="0.1759" style="stop-color:#ADB0BD"/>
		<stop  offset="0.2385" style="stop-color:#C9CBD4"/>
		<stop  offset="0.3004" style="stop-color:#E0E2E7"/>
		<stop  offset="0.3613" style="stop-color:#F0F3F5"/>
		<stop  offset="0.42" style="stop-color:#F6FAFC"/>
		<stop  offset="0.4738" style="stop-color:#F1F3F4"/>
		<stop  offset="0.5296" style="stop-color:#E3E4E5"/>
		<stop  offset="0.5863" style="stop-color:#CECDCF"/>
		<stop  offset="0.6436" style="stop-color:#B3B1B4"/>
		<stop  offset="0.7008" style="stop-color:#959296"/>
		<stop  offset="0.72" style="stop-color:#8A888B"/>
		<stop  offset="1" style="stop-color:#F6FAFC"/>
	</linearGradient>
	<path fill="url(#SVGID_2_)" d="M84.587,60.067h17.256c-1.34,1.906-2.358,4.012-3.02,6.215H84.587V60.067z"/>
	<linearGradient id="SVGID_3_" gradientUnits="userSpaceOnUse" x1="81.8662" y1="56.9658" x2="81.8662" y2="69.1877">
		<stop  offset="0.0051" style="stop-color:#4D5C75"/>
		<stop  offset="0.05" style="stop-color:#697188"/>
		<stop  offset="0.1127" style="stop-color:#8C90A3"/>
		<stop  offset="0.1759" style="stop-color:#ADB0BD"/>
		<stop  offset="0.2385" style="stop-color:#C9CBD4"/>
		<stop  offset="0.3004" style="stop-color:#E0E2E7"/>
		<stop  offset="0.3613" style="stop-color:#F0F3F5"/>
		<stop  offset="0.42" style="stop-color:#F6FAFC"/>
		<stop  offset="0.4738" style="stop-color:#F1F3F4"/>
		<stop  offset="0.5296" style="stop-color:#E3E4E5"/>
		<stop  offset="0.5863" style="stop-color:#CECDCF"/>
		<stop  offset="0.6436" style="stop-color:#B3B1B4"/>
		<stop  offset="0.7008" style="stop-color:#959296"/>
		<stop  offset="0.72" style="stop-color:#8A888B"/>
		<stop  offset="1" style="stop-color:#F6FAFC"/>
	</linearGradient>
	<polygon fill="url(#SVGID_3_)" points="84.587,66.282 84.587,69.363 79.146,69.363 79.146,57.033 84.587,57.033 84.587,60.067 	"/>
	<path fill="#CDCCCC" d="M79.146,100.438V44.504
		l-7.378-18.93h-3.312c4.909,6.245,7.87,13.918,7.536,22.063c0,17.598,0,35.201,0,52.801c0,1.046,0,2.086,0,3.132
		c23.961,0,74.965,0,74.965,0v-3.132H79.146z"/>
	
		<rect x="1.026" y="112.868" fill="#CDCCCC"  />
	<path fill="#989898" d="M147.862,103.57v9.298
		H4.18v-9.298c23.938,0,47.875,0,71.813,0C99.953,103.57,123.907,103.57,147.862,103.57z"/>
	<path opacity="0.2" fill="#FFFFFF" d="M68.456,25.647c4.909,6.244,7.87,13.917,7.536,22.063c0,17.597,0,35.202,0,52.799
		c0,1.046,0,2.087,0,3.135c-23.938,0-47.875,0-71.813,0c-1.053,0-2.101,0-3.153,0c0-18.646,0-37.29,0-55.934
		C0.553,36.339,6.497,25.886,15.221,18.956c6.676-5.296,14.985-8.535,23.288-8.535h0.006c4.721,0,9.443,1.053,13.874,2.931
		C58.62,16.002,64.254,20.299,68.456,25.647z"/>
	
		<rect x="91.639" y="94.223" fill="#E5E5E5"  />
		
<g class="stroke">
	
	<g>
	<line x1="123.666" y1="67.724" x2="123.666" y2="62.536"/>
	<line x1="121.596" y1="68.742" x2="121.596" y2="61.909"/>
	<line x1="117.405" y1="68.729" x2="117.405" y2="61.978"/>
	<line x1="119.497" y1="68.304" x2="119.497" y2="61.751"/>
	<line x1="113.247" y1="66.623" x2="113.227" y2="63.887"/>
	<line x1="115.328" y1="67.716" x2="115.332" y2="62.665"/>
		
			<line x1="125.73" y1="66.678" x2="125.753" y2="63.586"/>
		
			<line x1="116.183" y1="74.787" x2="110.488" y2="78.092"/>
		
			<line x1="123.493" y1="74.397" x2="129.219" y2="77.644"/>
		
			<line x1="124.156" y1="72.38" x2="130.022" y2="75.789"/>
		
			<line x1="122.066" y1="75.988" x2="128.056" y2="79.352"/>
		
			<line x1="128.06" y1="69.836" x2="130.46" y2="71.175"/>
		
			<line x1="126.072" y1="71.091" x2="130.485" y2="73.597"/>
		
			<line x1="121.822" y1="80.58" x2="124.516" y2="82.134"/>
		
			<line x1="121.931" y1="78.282" x2="126.477" y2="80.834"/>
		
			<line x1="117.609" y1="76.369" x2="111.707" y2="79.712"/>
		
			<line x1="115.506" y1="72.764" x2="109.582" y2="76.235"/>
		
			<line x1="117.876" y1="80.997" x2="115.508" y2="82.393"/>
		
			<line x1="117.774" y1="78.661" x2="113.383" y2="81.205"/>
		
			<line x1="111.628" y1="70.258" x2="108.929" y2="71.799"/>
		
			<line x1="113.576" y1="71.502" x2="109.078" y2="74.138"/>
	</g>
		<polyline  points="
			79.146,57.033 84.587,57.033 84.587,60.067 84.587,66.282 84.587,69.363 79.146,69.363 		"/>
		<polyline  points="
			68.456,25.574 71.768,25.574 79.146,44.504 79.146,57.033 79.146,69.363 79.146,75.676 79.146,84.926 79.146,100.438 		"/>
		<polyline  points="
			150.957,100.438 147.862,100.438 91.639,100.438 79.146,100.438 75.992,100.438 		"/>
		
			<line  x1="79.146" y1="75.676" x2="98.139" y2="75.676"/>
		
			<line  x1="101.849" y1="84.926" x2="79.146" y2="84.926"/>
		
			<line  x1="98.823" y1="66.282" x2="84.587" y2="66.282"/>
		
			<line  x1="84.587" y1="60.067" x2="101.843" y2="60.067"/>
		<path  d="M15.221,18.883
			c6.676-5.296,14.985-8.535,23.288-8.535"/>
		<path  d="M75.992,103.57
			c0-1.046,0-2.086,0-3.132c0-17.6,0-35.203,0-52.801c0.334-8.146-2.627-15.819-7.536-22.063
			c-4.202-5.348-9.836-9.645-16.067-12.295"/>
		<polyline  points="
			91.639,100.438 91.639,94.223 119.741,94.223 147.862,94.223 147.862,100.438 		"/>
		
			<line  x1="4.18" y1="112.868" x2="4.18" y2="103.57"/>
		
			<line  x1="147.862" y1="103.57" x2="147.862" y2="112.868"/>
		<path  d="M132.216,72.543
			c0.029-6.854-5.541-12.436-12.445-12.465c-6.898-0.021-12.51,5.512-12.545,12.366c-0.023,6.86,5.547,12.436,12.445,12.465
			C126.576,84.938,132.192,79.403,132.216,72.543z"/>
		
			<ellipse  cx="119.724" cy="72.497" rx="3.102" ry="3.081"/>
		<path  d="M109.075,57.155
			c-8.525,5.842-10.673,17.446-4.793,25.923c5.881,8.471,17.56,10.604,26.091,4.762c8.525-5.843,10.672-17.448,4.792-25.925
			S117.605,51.313,109.075,57.155z"/>
		<path  d="M119.741,94.176
			c3.845,0,7.735-1.012,11.264-3.128c10.315-6.191,13.621-19.517,7.39-29.766c-6.231-10.244-19.642-13.528-29.957-7.337
			c-2.692,1.616-4.903,3.715-6.589,6.122h-0.006c-1.34,1.906-2.358,4.012-3.02,6.215c-0.907,3.018-1.158,6.227-0.685,9.394h0.006
			c0.404,2.762,1.363,5.488,2.908,8.029c0.252,0.419,0.521,0.826,0.802,1.215C106.05,90.897,112.813,94.176,119.741,94.176z"/>
		<path  d="M15.221,18.883
			c-2.651-2.843-5.295-5.692-7.946-8.535C17.69,7.232,28.1,4.116,38.509,1c0,3.116,0,6.232,0,9.348h0.006
			c4.721,0,9.443,1.053,13.874,2.931c32.854,13.97,65.715,27.935,98.568,41.899c0,15.086,0,30.174,0,45.261c0,1.046,0,2.086,0,3.132
			c-1.029,0-2.065,0-3.095,0c-23.955,0-47.909,0-71.87,0c-23.938,0-47.875,0-71.813,0c-1.053,0-2.101,0-3.153,0
			c0-18.645,0-37.288,0-55.933C0.553,36.266,6.497,25.813,15.221,18.883z"/>
		<polygon  points="
			147.862,112.868 150.957,112.868 150.957,116 1.026,116 1.026,112.868 4.18,112.868 		"/>
	</g>

</svg>
