<?xml version="1.0" encoding="utf-8"?>
<!-- Generator: Adobe Illustrator 15.1.0, SVG Export Plug-In . SVG Version: 6.00 Build 0)  -->
<!DOCTYPE svg PUBLIC "-//W3C//DTD SVG 1.1//EN" "http://www.w3.org/Graphics/SVG/1.1/DTD/svg11.dtd">
<svg version="1.1" id="Layer_1" xmlns:agg="http://www.example.com"
	 xmlns="http://www.w3.org/2000/svg" preserveAspectRatio="none"  xmlns:xlink="http://www.w3.org/1999/xlink" x="0px" y="0px"  
	 viewBox="0 0 150 220" xml:space="preserve">
	 
<agg:params>
	<agg:param type="C" name="color" description="Color" cssAttributes="fill" classes="color"/>
	<agg:param type="F" name="saturation" description="Saturation" min="0" max="1" cssAttributes="opacity" classes="color"/>
	<agg:param name="supportColor" description="Support Color" type="C" cssAttributes="fill" classes="color"/>
</agg:params>

<style type="text/css" >
   <![CDATA[

	.stroke,.supportStroke{
		stroke-width:0.3;
		stroke-linecap:round;
		stroke-linejoin:round;
		stroke: black;
		fill:none;
	}
	
	.color {
		fill:#3664BF;
		opacity:0.2;
	}
	
	.supportColor {
		fill:#DA1F26;
	}
	
	.supportStroke {
		opacity:0.5;
		stroke-width:1;
	}
	
      ]]>
</style>

<defs>
<path id="tankBody" d="M0.001,15.397C-0.121,6.926,6.675-0.009,15.095,0
	c39.939,0,79.879,0,119.819,0c8.41-0.003,15.194,6.918,15.085,15.382c0,17.146,0,34.296,0,51.444
	c-0.098,6.979-2.221,11.87-7.235,16.688c-13.123,12.749-26.244,25.493-39.367,38.24c-4.889,4.91-11.582,6.685-18.279,7.577
	c-6.698,0.887-13.398,0.891-20.098,0.011c-6.699-0.881-13.396-2.643-18.291-7.541C33.575,109.065,20.421,96.329,7.267,83.591
	c-5.029-4.815-7.159-9.71-7.265-16.697C0.001,49.729,0.001,32.564,0.001,15.397z"/>
</defs>
	 
<linearGradient id="horizontalGradient" gradientUnits="userSpaceOnUse" x1="0" y1="100" x2="150" y2="100">
	<stop  offset="0" style="stop-color:#767676"/>
	<stop  offset="0.06" style="stop-color:#919191"/>
	<stop  offset="0.14" style="stop-color:#B1B1B1"/>
	<stop  offset="0.21" style="stop-color:#CECECE"/>
	<stop  offset="0.28" style="stop-color:#E4E4E4"/>
	<stop  offset="0.35" style="stop-color:#F6F6F6"/>
	<stop  offset="0.42" style="stop-color:#FEFEFF"/>
	<stop  offset="0.47" style="stop-color:#F6F6F6"/>
	<stop  offset="0.53" style="stop-color:#E7E7E7"/>
	<stop  offset="0.58" style="stop-color:#D2D1D1"/>
	<stop  offset="0.64" style="stop-color:#B7B7B7"/>
	<stop  offset="0.7" style="stop-color:#989898"/>
	<stop  offset="0.72" style="stop-color:#8B8B8B"/>
	<stop  offset="1" style="stop-color:#FDFDFD"/>
</linearGradient>

<linearGradient id="verticalGradient" gradientUnits="userSpaceOnUse" x1="75" y1="0" x2="75" y2="130">
	<stop  offset="0" style="stop-color:#757575"/>
	<stop  offset="0.03" style="stop-color:#959595"/>
	<stop  offset="0.06" style="stop-color:#BABABA"/>
	<stop  offset="0.1" style="stop-color:#D7D7D7"/>
	<stop  offset="0.13" style="stop-color:#EBEBEB"/>
	<stop  offset="0.17" style="stop-color:#F8F8F8"/>
	<stop  offset="0.2" style="stop-color:#FCFCFC"/>
	<stop  offset="0.9" style="stop-color:#FFFFFF"/>
	<stop  offset="1" style="stop-color:#B0B0B0"/>
</linearGradient>

<use xlink:href="#tankBody" fill="url(#horizontalGradient)"/>
<use xlink:href="#tankBody" fill="url(#verticalGradient)" opacity="0.5"/>
<use xlink:href="#tankBody" class="color"/>
<use xlink:href="#tankBody" class="stroke"/>

<g class="supportColor">
	<path d="M137.22,88.34c0.51,1.01,0.66,2.24,0.38,3.34c-0.29,1.11-1.02,2.07-1.91,2.79
		c-1.19,0.98-2.67,1.54-4.11,2.06c-1.09,0.37-2.2,0.68-3.32,0.95c-1.22,0.29-2.46,0.55-3.7,0.77c-0.18,0.04-0.35,0.07-0.53,0.1
		c-2.17,0.39-4.36,0.72-6.56,0.99c-1.39,0.18-2.78,0.34-4.17,0.49c-9.35,0.98-18.74,1.43-28.13,1.65c-0.04,0-0.08,0-0.12,0.01
		l-3.5-3.44l-3.59,3.54c-0.28,0-0.57,0-0.86,0c-9.77,0.05-19.53-0.19-29.28-0.81c-7.21-0.44-14.39-1.1-21.5-2.35
		c-0.26-0.04-0.52-0.08-0.78-0.13c-2.12-0.39-4.24-0.84-6.31-1.47c-0.03-0.01-0.06-0.02-0.09-0.03c-1.4-0.43-2.78-0.96-4-1.76
		c-0.92-0.61-1.75-1.37-2.25-2.34c-0.46-0.89-0.62-1.97-0.44-2.96c0.09-0.44,0.24-0.86,0.44-1.26c1.47-2.83,4.25-1.02,6.14,0.13
		c0.3,0.18,0.62,0.32,0.95,0.45c0.51,0.19,1.03,0.35,1.56,0.5c1.39,0.39,2.81,0.68,4.24,0.94c4.04,0.75,8.13,1.21,12.22,1.6
		c11.15,1.04,22.33,1.43,33.52,1.5c11.7,0.07,23.39-0.2,35.04-1.07c4.56-0.34,9.12-0.77,13.65-1.41c3.04-0.43,6.06-0.95,9-1.81
		C131.18,88.73,135.5,85.01,137.22,88.34z"/>
	<path d="M124.56,159.71c-2.21,0.65-4.6,1.22-7.09,1.73c-11.39,2.3-24.84,3.199-32.39,3.369h-0.03l-3.49-3.85
		l3.49-3.95l0.06-0.069c2.39-0.21,4.77-0.32,7.14-0.46c2.23-0.141,4.44-0.301,6.66-0.5c4.26-0.37,8.51-0.86,12.74-1.53
		c1.95-0.311,3.89-0.65,5.82-1.061c1.46-0.3,2.9-0.64,4.34-1.02c0.92-0.24,1.84-0.5,2.75-0.8c1.42-0.46,2.82-1,4.15-1.67
		c0.49-0.21,0.92-0.48,1.34-0.82c-1.7-1.34-3.54-2.061-5.47-2.64c-0.81-0.25-1.63-0.48-2.46-0.71c-0.36-0.101-0.69-0.25-1.01-0.44
		c-0.34-0.2-0.66-0.44-0.96-0.7c-0.31-0.27-0.6-0.56-0.86-0.88c-0.34-0.4-0.63-0.84-0.92-1.28c-0.03-0.04-0.06-0.08-0.1-0.25
		c0.55-0.61,1.02-1.2,1.58-1.68c0.44-0.37,0.94-0.68,1.45-0.95c0.48-0.26,0.97-0.5,1.51-0.63c0.37-0.08,0.76-0.12,1.13-0.03
		c0.2,0.05,0.41,0.11,0.62,0.17c1.49,0.41,3.06,0.91,4.54,1.47c1.31,0.5,2.55,1.05,3.78,1.76c1.81,1.04,3.59,2.43,4.43,4.29
		c0.77,1.71,0.76,3.82-0.05,5.51c-0.96,2.03-3.07,3.48-4.91,4.561C130.23,157.82,127.56,158.84,124.56,159.71z"/>
	<path d="M124.58,146.44l-0.02,0.05v5.08c-0.91,0.3-1.83,0.56-2.75,0.8c-1.44,0.38-2.88,0.72-4.34,1.02v-8.81V144
		h0.01c0.05-0.73,0.32-1.28,0.79-1.82c0.04,0.17,0.07,0.21,0.1,0.25c0.29,0.44,0.58,0.879,0.92,1.28c0.26,0.32,0.55,0.61,0.86,0.88
		c0.3,0.26,0.62,0.5,0.96,0.7c0.32,0.19,0.65,0.34,1.01,0.44C122.95,145.96,123.77,146.19,124.58,146.44z"/>
	<path d="M124.56,159.71c0,10.08,0,22.95,0,33.021c0,1.59-2.5,1.689-3.54,1.689s-3.55-0.1-3.55-1.689
		c0-9.5,0-21.79,0-31.29C119.96,160.93,122.35,160.36,124.56,159.71z"/>
	<path d="M117.47,137.42V99.35v-0.01c2.2-0.27,4.39-0.6,6.56-0.99c0.18-0.03,0.35-0.06,0.53-0.1v0.01v40.8
		c-0.21-0.06-0.42-0.12-0.62-0.17c-0.37-0.09-0.76-0.05-1.13,0.03c-0.54,0.13-1.03,0.37-1.51,0.63c-0.51,0.27-1.01,0.58-1.45,0.95
		c-0.56,0.48-1.03,1.07-1.58,1.68c-0.49-0.85-0.75-1.68-0.77-2.66h-0.03V137.42z"/>
	<path d="M117.5,139.52c0.02,0.98,0.28,1.81,0.77,2.66c-0.47,0.54-0.74,1.089-0.79,1.82h-0.01v0.58
		c-10.72-2.1-21.42-3.26-32.34-3.52h-0.08v-6.86h0.09c10.88,0.26,21.61,1.32,32.33,3.22v2.1H117.5z"/>
	<path d="M85.05,164.81c0,16.9,0,36.601,0,53.5c0,1.591-2.51,1.69-3.54,1.69c-1.04,0-3.55-0.1-3.55-1.69
		c0-16.819,0-36.46,0-53.29l3.6-4.06L85.05,164.81z"/>
	<polygon points="85.05,141.06 85.05,157.01 81.56,160.96 77.96,156.99 77.96,140.9 77.96,134.05 77.96,101.59 
		81.55,98.05 85.05,101.49 85.05,134.2 		"/>
	<path d="M20.09,149.19c0.13,0.109,0.28,0.199,0.42,0.29c0.48,0.31,0.99,0.569,1.51,0.819
		c1.38,0.65,2.83,1.15,4.3,1.59c0.11,0.04,0.23,0.08,0.34,0.11c4.4,1.29,8.92,2.12,13.46,2.77c5.8,0.83,11.63,1.381,17.47,1.73
		c6.5,0.39,13.02,0.54,19.53,0.5c0.28,0,0.56-0.01,0.84-0.01l3.6,3.97l-3.6,4.06c-2.14,0.021-4.27,0.021-6.41,0
		c-2.13-0.02-4.27-0.06-6.41-0.13c-2.13-0.069-4.27-0.17-6.4-0.29c-2.14-0.119-4.27-0.27-6.4-0.449
		c-2.13-0.181-4.25-0.391-6.38-0.62c-2.12-0.24-4.24-0.511-6.36-0.82c-2.11-0.31-4.22-0.66-6.32-1.07
		c-2.09-0.409-4.18-0.87-6.24-1.439c-0.24-0.07-0.48-0.13-0.72-0.2c-1.82-0.52-3.61-1.12-5.37-1.79c-0.58-0.22-1.15-0.45-1.72-0.7
		c-1.39-0.609-2.72-1.34-3.9-2.34c-1.66-1.41-3.01-3.36-3.12-5.4c-0.12-2.05,1-4.17,2.57-5.649c1.28-1.21,2.86-1.98,4.45-2.71
		c0.36-0.17,0.72-0.33,1.07-0.49c0.22-0.1,0.44-0.14,0.67-0.17c0.27-0.02,0.53-0.01,0.8,0.03c0.6,0.09,1.17,0.3,1.72,0.57
		c1.15,0.58,2.17,1.46,2.83,2.58c-0.64,1.7-1.6,2.761-3.21,3.59C22.02,147.96,21.03,148.5,20.09,149.19z"/>
	<path d="M77.96,134.05v6.85c-0.28,0-0.57,0-0.85,0c-2.57-0.02-5.14,0-7.71,0.05c-2.38,0.05-4.76,0.13-7.15,0.24
		c-4.58,0.22-9.16,0.55-13.73,1.03c-4.08,0.43-8.15,0.98-12.18,1.709c-3.23,0.59-6.43,1.311-9.57,2.271
		c-0.15,0.05-0.3,0.09-0.45,0.14v-2.41v-4.99c0.13-0.03,0.26-0.06,0.39-0.1c1.6-0.42,3.2-0.78,4.82-1.12
		c1.73-0.35,3.48-0.67,5.23-0.95c4.06-0.66,8.16-1.15,12.25-1.54c9.34-0.88,18.72-1.22,28.1-1.18
		C77.39,134.05,77.68,134.05,77.96,134.05z"/>
	<path d="M26.32,160c0,10.61,0,24.03,0,34.64c0,1.591-2.51,1.681-3.55,1.681c-1.03,0-3.54-0.09-3.54-1.681
		c0-11.449,0-25.689,0-37.13c0.57,0.25,1.14,0.48,1.72,0.7C22.71,158.88,24.5,159.48,26.32,160z"/>
	<path d="M26.32,146.34v5.55c-1.47-0.439-2.92-0.939-4.3-1.59c-0.52-0.25-1.03-0.51-1.51-0.819
		c-0.14-0.091-0.29-0.181-0.42-0.29c0.94-0.69,1.93-1.23,3.02-1.671c1.61-0.829,2.57-1.89,3.21-3.59V146.34z"/>
	<path d="M26.32,138.94v4.99c-0.66-1.12-1.68-2-2.83-2.58c-0.55-0.27-1.12-0.48-1.72-0.57
		c-0.27-0.04-0.53-0.05-0.8-0.03c-0.23,0.03-0.45,0.07-0.67,0.17c-0.35,0.16-0.71,0.32-1.07,0.49V96.83
		c2.07,0.63,4.19,1.08,6.31,1.47c0.26,0.05,0.52,0.09,0.78,0.13V138.94z"/>
</g>

<g class="supportStroke">
	<path d="M124.56,159.7v0.01c0,10.08,0,22.95,0,33.021c0,1.59-2.5,1.689-3.54,1.689s-3.55-0.1-3.55-1.689c0-9.5,0-21.79,0-31.29v-0.011"/>
	<line x1="124.56" y1="146.49" x2="124.56" y2="151.57"/>
	<polyline points="117.47,153.39 117.47,144.58 117.47,144 		"/>
	<line x1="124.56" y1="98.26" x2="124.56" y2="139.06"/>
	<polyline points="117.47,139.52 117.47,137.42 117.47,99.35 		"/>
	<path d="M26.32,160c0,10.61,0,24.03,0,34.64c0,1.591-2.51,1.681-3.55,1.681c-1.03,0-3.54-0.09-3.54-1.681c0-11.449,0-25.689,0-37.13v-0.01"/>
	<polyline points="26.32,98.43 26.32,138.94 26.32,143.93 26.32,146.34 26.32,151.89 		"/>
	<line x1="19.23" y1="141.41" x2="19.23" y2="96.83"/>
	<polyline points="77.96,156.99 77.96,140.9 77.96,134.05 77.96,101.59 		"/>
	<path d="M85.05,164.81c0,16.9,0,36.601,0,53.5c0,1.591-2.51,1.69-3.54,1.69c-1.04,0-3.55-0.1-3.55-1.69c0-16.819,0-36.46,0-53.29"/>
	<polyline points="85.05,101.49 85.05,134.2 85.05,141.06 85.05,157.01 85.05,157.02 		"/>
	<polyline points="77.96,101.59 81.55,98.05 85.05,101.49 		"/>
	<polyline points="77.96,156.99 81.56,160.96 85.05,164.81 		"/>
	<polyline points="77.96,165.02 81.56,160.96 85.05,157.01 85.11,156.94 		"/>
	<path d="M117.47,144.58c-10.72-2.1-21.42-3.26-32.34-3.52"/>
	<path d="M85.14,134.2c10.88,0.26,21.61,1.32,32.33,3.22c0.02,0,0.03,0.01,0.05,0.01"/>
	<path d="M77.96,101.59c-0.28,0-0.57,0-0.86,0
		c-9.77,0.05-19.53-0.19-29.28-0.81c-7.21-0.44-14.39-1.1-21.5-2.35c-0.26-0.04-0.52-0.08-0.78-0.13
		c-2.12-0.39-4.24-0.84-6.31-1.47c-0.03-0.01-0.06-0.02-0.09-0.03c-1.4-0.43-2.78-0.96-4-1.76c-0.92-0.61-1.75-1.37-2.25-2.34
		c-0.46-0.89-0.62-1.97-0.44-2.96c0.09-0.44,0.24-0.86,0.44-1.26c1.47-2.83,4.25-1.02,6.14,0.13c0.3,0.18,0.62,0.32,0.95,0.45
		c0.51,0.19,1.03,0.35,1.56,0.5c1.39,0.39,2.81,0.68,4.24,0.94c4.04,0.75,8.13,1.21,12.22,1.6c11.15,1.04,22.33,1.43,33.52,1.5
		c11.7,0.07,23.39-0.2,35.04-1.07c4.56-0.34,9.12-0.77,13.65-1.41c3.04-0.43,6.06-0.95,9-1.81c1.97-0.58,6.29-4.3,8.01-0.97
		c0.51,1.01,0.66,2.24,0.38,3.34c-0.29,1.11-1.02,2.07-1.91,2.79c-1.19,0.98-2.67,1.54-4.11,2.06c-1.09,0.37-2.2,0.68-3.32,0.95
		c-1.22,0.29-2.46,0.55-3.7,0.77c-0.18,0.04-0.35,0.07-0.53,0.1c-2.17,0.39-4.36,0.72-6.56,0.99c-1.39,0.18-2.78,0.34-4.17,0.49
		c-9.35,0.98-18.74,1.43-28.13,1.65c-0.04,0-0.08,0-0.12,0.01"/>
	<path d="M85.11,156.94
		c2.39-0.21,4.77-0.32,7.14-0.46c2.23-0.141,4.44-0.301,6.66-0.5c4.26-0.37,8.51-0.86,12.74-1.53c1.95-0.311,3.89-0.65,5.82-1.061
		c1.46-0.3,2.9-0.64,4.34-1.02c0.92-0.24,1.84-0.5,2.75-0.8c1.42-0.46,2.82-1,4.15-1.67c0.49-0.21,0.92-0.48,1.34-0.82
		c-1.7-1.34-3.54-2.061-5.47-2.64c-0.81-0.25-1.63-0.48-2.46-0.71c-0.36-0.101-0.69-0.25-1.01-0.44c-0.34-0.2-0.66-0.44-0.96-0.7
		c-0.31-0.27-0.6-0.56-0.86-0.88c-0.34-0.4-0.63-0.84-0.92-1.28c-0.03-0.04-0.06-0.08-0.1-0.25c0.55-0.61,1.02-1.2,1.58-1.68
		c0.44-0.37,0.94-0.68,1.45-0.95c0.48-0.26,0.97-0.5,1.51-0.63c0.37-0.08,0.76-0.12,1.13-0.03c0.2,0.05,0.41,0.11,0.62,0.17
		c1.49,0.41,3.06,0.91,4.54,1.47c1.31,0.5,2.55,1.05,3.78,1.76c1.81,1.04,3.59,2.43,4.43,4.29c0.77,1.71,0.76,3.82-0.05,5.51
		c-0.96,2.03-3.07,3.48-4.91,4.561c-2.12,1.17-4.79,2.189-7.79,3.06c-2.21,0.65-4.6,1.22-7.09,1.73
		c-11.39,2.3-24.84,3.199-32.39,3.369"/>
	<path d="M77.96,140.9c-0.28,0-0.57,0-0.85,0
		c-2.57-0.02-5.14,0-7.71,0.05c-2.38,0.05-4.76,0.13-7.15,0.24c-4.58,0.22-9.16,0.55-13.73,1.03c-4.08,0.43-8.15,0.98-12.18,1.709
		c-3.23,0.59-6.43,1.311-9.57,2.271c-0.15,0.05-0.3,0.09-0.45,0.14"/>
	<path d="M26.32,138.94
		c0.13-0.03,0.26-0.06,0.39-0.1c1.6-0.42,3.2-0.78,4.82-1.12c1.73-0.35,3.48-0.67,5.23-0.95c4.06-0.66,8.16-1.15,12.25-1.54
		c9.34-0.88,18.72-1.22,28.1-1.18c0.28,0,0.57,0,0.85,0"/>
	<path d="M77.96,165.02
		c-2.14,0.021-4.27,0.021-6.41,0c-2.13-0.02-4.27-0.06-6.41-0.13c-2.13-0.069-4.27-0.17-6.4-0.29c-2.14-0.119-4.27-0.27-6.4-0.449
		c-2.13-0.181-4.25-0.391-6.38-0.62c-2.12-0.24-4.24-0.511-6.36-0.82c-2.11-0.31-4.22-0.66-6.32-1.07
		c-2.09-0.409-4.18-0.87-6.24-1.439c-0.24-0.07-0.48-0.13-0.72-0.2c-1.82-0.52-3.61-1.12-5.37-1.79c-0.58-0.22-1.15-0.45-1.72-0.7
		c-1.39-0.609-2.72-1.34-3.9-2.34c-1.66-1.41-3.01-3.36-3.12-5.4c-0.12-2.05,1-4.17,2.57-5.649c1.28-1.21,2.86-1.98,4.45-2.71
		c0.36-0.17,0.72-0.33,1.07-0.49c0.22-0.1,0.44-0.14,0.67-0.17c0.27-0.02,0.53-0.01,0.8,0.03c0.6,0.09,1.17,0.3,1.72,0.57
		c1.15,0.58,2.17,1.46,2.83,2.58c-0.64,1.7-1.6,2.761-3.21,3.59c-1.09,0.44-2.08,0.98-3.02,1.671"/>
	<path d="M117.48,144c0.05-0.73,0.32-1.28,0.79-1.82"/>
	<path d="M118.27,142.18c-0.49-0.85-0.75-1.68-0.77-2.66"/>
	<path d="M19.53,148.68
		c0.16,0.2,0.35,0.37,0.56,0.511c0.13,0.109,0.28,0.199,0.42,0.29c0.48,0.31,0.99,0.569,1.51,0.819c1.38,0.65,2.83,1.15,4.3,1.59
		c0.11,0.04,0.23,0.08,0.34,0.11c4.4,1.29,8.92,2.12,13.46,2.77c5.8,0.83,11.63,1.381,17.47,1.73c6.5,0.39,13.02,0.54,19.53,0.5
		c0.28,0,0.56-0.01,0.84-0.01"/>
</g>

</svg>
