<?xml version="1.0" encoding="utf-8"?>
<!-- Generator: Adobe Illustrator 19.0.0, SVG Export Plug-In . SVG Version: 6.00 Build 0)  -->
<svg version="1.1" id="图层_1" xmlns="http://www.w3.org/2000/svg" xmlns:xlink="http://www.w3.org/1999/xlink" x="0px" y="0px"
	 viewBox="-17 1.2 71.6 106.5" style="enable-background:new -17 1.2 71.6 106.5;" xml:space="preserve">
<style type="text/css">
	.st0{fill:url(#SVGID_1_);stroke:#000000;stroke-width:0.5;}
	.st1{fill:#98CB98;stroke:#7F7F7F;stroke-width:0.5;}
	.st2{fill:#007F00;stroke:#000000;stroke-width:0.5;}
	.st3{fill:none;stroke:#000000;stroke-width:0.5;}
</style>
<g>
	
		<linearGradient id="SVGID_1_" gradientUnits="userSpaceOnUse" x1="-19" y1="57.28" x2="33.9832" y2="57.28" gradientTransform="matrix(1 0 0 1 0 2.44)">
		<stop  offset="0" style="stop-color:#007F00"/>
		<stop  offset="0.5" style="stop-color:#FFFFFF"/>
		<stop  offset="1" style="stop-color:#007F00"/>
	</linearGradient>
	<path class="st0" d="M23,11.7H-7.9c-6,0-11,5-11,11V98c-0.1,0.3-0.1,0.6-0.1,0.8c0,4.9,11.8,8.9,26.4,8.9s26.4-4,26.4-8.9h0.1V22.7
		C34,16.6,29,11.7,23,11.7z"/>
	<path class="st1" d="M34.6,54.2H2.9v1.5h31.7V54.2z"/>
	<path class="st2" d="M-9.7,5.5h34v0.2h-34C-9.7,5.7-9.7,5.5-9.7,5.5z"/>
	<path class="st2" d="M-9.7,10.7h34v0.2h-34C-9.7,10.9-9.7,10.7-9.7,10.7z"/>
	<path class="st3" d="M24.3,10.7v-5"/>
	<path class="st3" d="M18.6,10.7v-5"/>
	<path class="st3" d="M13.1,10.7v-5"/>
	<path class="st3" d="M7.5,10.7v-5"/>
	<path class="st3" d="M1.6,10.7v-5"/>
	<path class="st3" d="M-4,10.7v-5"/>
	<path class="st3" d="M-9.7,5.7v5"/>
	<path class="st3" d="M24.3,8.2h-34"/>
	<path class="st2" d="M34.6,55.7H2.9v0.5h31.7V55.7z"/>
	<path class="st2" d="M-31.1,50.7h34V51h-34V50.7z"/>
	<path class="st2" d="M-31.1,55.9h34v0.3h-34V55.9z"/>
	<path class="st3" d="M2.9,55.9V51"/>
	<path class="st3" d="M-2.8,55.9V51"/>
	<path class="st3" d="M-8.5,55.9V51"/>
	<path class="st3" d="M-14.3,55.9V51"/>
	<path class="st3" d="M-19.9,55.9V51"/>
	<path class="st3" d="M-25.4,55.9V51"/>
	<path class="st3" d="M-31.1,51v4.9"/>
	<path class="st3" d="M2.9,53.5h-34"/>
</g>
</svg>
