<?xml version="1.0" encoding="utf-8"?>
<!-- Generator: Adobe Illustrator 19.0.0, SVG Export Plug-In . SVG Version: 6.00 Build 0)  -->
<svg version="1.1" id="图层_1" xmlns="http://www.w3.org/2000/svg" xmlns:xlink="http://www.w3.org/1999/xlink" x="0px" y="0px"
	 viewBox="-12 1.2 81.3 106.5" style="enable-background:new -12 1.2 81.3 106.5;" xml:space="preserve">
<style type="text/css">
	.st0{fill:#CAE4CA;stroke:#000000;stroke-width:0.25;}
	.st1{fill:#CAE4CA;}
	.st2{fill:#FFFFFF;}
	.st3{fill:#006500;}
	.st4{fill:none;stroke:#000000;stroke-width:0.25;}
	.st5{fill:#A2D0A2;}
	.st6{fill:#7EBF7E;}
	.st7{fill:#4CA64C;}
	.st8{fill:#007F00;stroke:#000000;stroke-width:0.25;}
	.st9{fill:url(#SVGID_1_);stroke:#000000;stroke-width:0.25;}
	.st10{fill:#005500;}
	.st11{fill:#005B00;}
	.st12{fill:#006200;}
	.st13{fill:#006900;}
	.st14{fill:#007000;}
	.st15{fill:#007700;}
	.st16{fill:#007E00;}
	.st17{fill:#0A850A;}
	.st18{fill:#178B17;}
	.st19{fill:#259225;}
	.st20{fill:#329932;}
	.st21{fill:#64B264;stroke:#000000;stroke-width:0.25;}
	.st22{fill:#006600;stroke:#000000;stroke-width:0.25;}
</style>
<g>
	<path class="st0" d="M58.3,86.3H45.3v9.5h4.3c0.6,3.9,4,6.9,8.1,6.9c4.5,0,8.2-3.7,8.2-8.2C66,90.1,62.6,86.6,58.3,86.3z"/>
	<path class="st1" d="M45.4,48.4H-9.1V107h54.5V48.4z"/>
	<path class="st2" d="M43.1,56.8H-7.2v48h50.3C43.1,104.8,43.1,56.8,43.1,56.8z"/>
	<path class="st3" d="M43.1,56.8H-7.2v18.9h50.3C43.1,75.7,43.1,56.8,43.1,56.8z"/>
	<path class="st4" d="M37.9,75.7V56.8"/>
	<path class="st4" d="M33.1,75.7V56.8"/>
	<path class="st4" d="M28,75.7V56.8"/>
	<path class="st4" d="M23.2,75.7V56.8"/>
	<path class="st4" d="M18.2,75.7V56.8"/>
	<path class="st4" d="M13.2,75.7V56.8"/>
	<path class="st4" d="M8.4,75.7V56.8"/>
	<path class="st4" d="M3.4,75.7V56.8"/>
	<path class="st4" d="M-1.8,75.7V56.8"/>
	<path class="st4" d="M43.1,63H-7.2"/>
	<path class="st4" d="M-7.2,69.3h50.3"/>
	<path class="st4" d="M43.1,75.7H-7.2"/>
	<circle class="st5" cx="57.8" cy="94.4" r="7.2"/>
	<circle class="st6" cx="57.7" cy="94.4" r="5.2"/>
	<circle class="st7" cx="57.8" cy="94.4" r="3.1"/>
	<circle class="st8" cx="57.8" cy="94.4" r="2"/>
	
		<linearGradient id="SVGID_1_" gradientUnits="userSpaceOnUse" x1="44.2" y1="15.712" x2="44.2" y2="22.912" gradientTransform="matrix(1 0 0 -1 0 110.16)">
		<stop  offset="0" style="stop-color:#007F00"/>
		<stop  offset="0.5" style="stop-color:#FFFFFF"/>
		<stop  offset="1" style="stop-color:#007F00"/>
	</linearGradient>
	<path class="st9" d="M45.4,94.4l-2.3-1v-5.2l2.2-1L45.4,94.4L45.4,94.4z"/>
	<path class="st10" d="M43.1,88.2l-2.7-0.9l-2.2-1.7l-2.7-1.8l-2.8-0.7L31.5,83l0.7,1.2L30,86.3l-3.1-1.1l-2.7-1.6l-2.8-1.1
		l-2.9-0.6h-0.3V82v0.2l1.5,2.3l0.1,0.9l-0.2,0.3l-0.3,0.2l-3,0.3l-2.9-1.3l-2.2-1.5l-2.6-1.5l-3-0.9l-1.2-0.1l-0.2,0.4l-0.1,0.5
		l1.2,2.8l0.2,0.5l-0.1,0.1L2.1,85l-3.5-0.3l-1.2,0.2L-3,85.1l0.5,0.3l2.4,1.6l1.4,1.2l0.1,0.3l-0.2,0.1l-3.6,0.3l-0.5,0.2v0.4
		l2.3,1.3l3.2,1l0.9,0.5l0.2,0.6l-0.1,0.3l-2.8,0.9l-3.1,1.1l-0.6,0.4h3.7l3-0.4l3.4-0.4L8.4,95l0.2,0.3l0.2,0.3l-1.6,2.7l-0.6,0.3
		l3.1,0.3l2.8-1.1l3-1.1l1.9-0.1l0.2,0.3l-0.2,3l-0.3,0.9l2.7-1l3-1.4l2.7-0.9l3.2-0.1l1.7,0.1l0.3,0.3l0.1,2.9l0.7,0.1l0.7-0.1
		l2.7-1.7l2-2l2.3-2l2.8-1.5l1.2-0.2v-0.6v-4.5H43.1z"/>
	<path class="st11" d="M42.7,88.6l-2.9-1.1l-2.6-2.1L34.4,84l-1.9-0.2l0.6,1.1l-0.2,0.7l-2.5,1.1l-2.6-1.3l-2.6-1.5l-2.9-1l-1.8-0.3
		v0.1l1.4,2.3l0.1,0.7L21.8,86l-0.3,0.2h-3.4l-2.8-1.5l-2.6-1.6l-2.6-1.2l-1.4-0.2l-0.5-0.1H7.7l-0.2,0.3l-0.1,0.4l1,2.6l0.2,0.5
		l-0.1,0.1H8.3l-3-0.2l-3.1-0.2l-1.5,0.3L3.2,87l1.4,1.4l-0.2,0.1l-3.3,0.3l-0.5,0.3l0.2,0.6L1.2,90l3.3,0.9L6.2,92l0.1,0.3
		l-0.1,0.4l-3.1,1l-2.2,0.7l-0.5,0.3l0.5,0.2l3.7-0.2l3.3-0.3l2.5,0.1l0.2,0.1l0.1,0.3l-1.2,2.7L8.9,98l0.7,0.5l3.3-0.7l2.6-1.1
		l2.9-0.4h0.3l0.2,0.2l-0.3,3.5l2.9-1.2l2.9-1.2L28,97l2.7,0.2l0.2,0.1l0.2,2.7l0.6,0.1l0.6-0.1l2.6-1.5l2.5-2.3l2.3-1.7l2.8-1.1
		l0.1-3l0.1-0.6v-0.6C42.7,89.2,42.7,88.6,42.7,88.6z"/>
	<path class="st12" d="M42.3,89l-9-4.3l-0.9,2.5l-9.3-3.4L22.4,87l-5.1-2l-6.4-2.5l0.6,3.4h-7l3,2.5l-3.6,1l4.9,2.7l-5.3,2.6h9.3
		l-1.7,2.7l8.6-1.6l0.2,3.4l10.4-2.5l1.2,2.5l10.3-5.8L42.3,89z"/>
	<path class="st13" d="M41.7,89.5L34,85.7l-0.6,2l-8-3.2l-1,2.8l-4.5-1.7l-5.8-2.2l0.4,3H8.2l2.5,2.2l-3.3,0.7l4.1,2.5l-4.6,2.3
		l8.2,0.3l-1.4,2.1l7.6-1.2l0.4,3l9.3-2.1l1.2,2.1l9.3-5.2L41.7,89.5z"/>
	<path class="st14" d="M41.3,90l-6.4-3.4l-0.4,1.6l-7-2.6l-0.9,2.1l-3.9-1.6l-5-1.8v2.5h-5.9l2,1.8l-3.1,0.7l3.3,2.2l-3.8,2l6.8,0.4
		l-1.1,2l6.7-1.1l0.5,2.7l8.1-1.8l1.4,1.8l8-4.5L41.3,90z"/>
	<path class="st15" d="M40.9,90.4l-5.2-2.9l-0.4,1.3l-5.5-2.5l-0.9,1.8l-3.6-1.4l-4.4-1.6l-0.2,2h-5.1l1.3,1.6l-2.8,0.7l2.8,1.8
		L13.5,93l5.6,0.4l-0.7,2l5.6-0.9l0.5,2.2l7.2-1.4l1.3,1.6l6.9-3.8L40.9,90.4z"/>
	<path class="st16" d="M40.3,90.8l-4-2.4v1l-4.7-2l-0.7,1.2l-3-1.3l-3.8-1.4l-0.4,1.6h-4.5l0.9,1.5l-2.7,0.5l2.1,1.6l-2.9,1.6
		l4.6,0.4l-0.5,1.6l4.8-0.6l0.7,1.9l6.1-1.1l1.4,1.3l5.9-3.1L40.3,90.8z"/>
	<path class="st17" d="M39.9,91.1L37,89.3l0.2,0.6l-3.4-1.8L33.1,89l-2.5-1.1l-3.2-1.2l-0.9,1.2h-3.8l0.2,1.1l-2.1,0.5l1.2,1.4
		l-2.2,1.3l3.4,0.5L23,94l3.8-0.2l1.1,1.4l4.8-0.6l1.4,0.9l4.8-2.2L39.9,91.1z"/>
	<path class="st18" d="M39.5,91.8l-1.6-1.6l0.2,0.2L35.9,89l-0.6,0.3l-1.9-0.7l-2.7-0.9l-1,0.6h-3.1L26.2,89l-1.9,0.6l0.5,1.1
		l-1.8,1l2.5,0.5v1.2h2.8l1.1,1.2l3.8-0.5l1.6,0.5l3.8-1.6L39.5,91.8z"/>
	<path class="st19" d="M39.1,92.2l-0.4-1.1l0.4-0.2l-1.2-1l-0.6-0.2l-1.4-0.6l-2-0.5l-1.2,0.2h-2.5l-1,0.5l-1.6,0.4l-0.2,0.9
		l-1.2,0.8l1.3,0.6l0.2,0.7l2,0.2l1.2,0.9l2.6-0.2L35,94l2.9-1.1L39.1,92.2z"/>
	<ellipse class="st20" cx="34.7" cy="91.2" rx="5.2" ry="1.9"/>
	<path class="st21" d="M26.4,23.2L26.4,23.2L26.5,11c0-2.2-1.6-4.2-3.8-4.4c-2.3-0.2-4.3,1.5-4.6,3.7c0,0.3-0.2,0.5-0.5,0.5h-7.5
		c-0.3,0-0.5,0.2-0.5,0.5v11.9l-8.4,6.3v6.4h8.5v12.5h16.6V35.9h8.5v-7.5L26.4,23.2z"/>
	<path class="st4" d="M43.1,56.8h-50v48h50V56.8z"/>
	<path class="st4" d="M45.4,48.4H-9.1V107h54.5V48.4z"/>
	<path class="st4" d="M26.4,35.9H9.8"/>
	<path class="st4" d="M9.8,23.2h16.6"/>
	<path class="st4" d="M34.9,29.5H1.3"/>
	<circle class="st22" cx="13.9" cy="10.8" r="4.2"/>
</g>
</svg>
