<?xml version="1.0" encoding="utf-8"?>
<!-- Generator: Adobe Illustrator 21.0.0, SVG Export Plug-In . SVG Version: 6.00 Build 0)  -->
<svg version="1.1" id="Layer_01" xmlns:agg="http://www.example.com"
	 xmlns="http://www.w3.org/2000/svg" xmlns:xlink="http://www.w3.org/1999/xlink" x="0px" y="0px" viewBox="0 0 102 127"
	 style="enable-background:new 0 0 102 127;" xml:space="preserve">
<style type="text/css">
	.st0{fill:url(#SVGID_1_);}
	.st1{fill:url(#SVGID_2_);}
	.st2{fill:url(#SVGID_3_);}
	.st3{fill:url(#SVGID_4_);}
	.st4{fill:url(#SVGID_5_);}
	.st5{fill:url(#SVGID_6_);}
	.st6{fill:url(#SVGID_7_);}
	.st7{fill:url(#SVGID_8_);}
	.st8{fill:url(#SVGID_9_);}
	.st9{fill:url(#SVGID_10_);}
	.st10{fill:url(#SVGID_11_);}
	.st11{fill:url(#SVGID_12_);}
	.st12{fill:url(#SVGID_13_);}
	.st13{fill:url(#SVGID_14_);}
	.st14{fill:url(#SVGID_15_);}
	.st15{fill:url(#SVGID_16_);}
	.st16{fill:url(#SVGID_17_);}
	.st17{fill:url(#SVGID_18_);}
	.st18{fill:url(#SVGID_19_);}
	.st19{fill:url(#SVGID_20_);}
	.st20{fill:url(#SVGID_21_);}
	.st21{fill:url(#SVGID_22_);}
	.st22{fill:url(#SVGID_23_);}
	.st23{fill:url(#SVGID_24_);}
	.st24{fill:url(#SVGID_25_);}
	.st25{opacity:0.2;fill:#3664BF;enable-background:new    ;}
	.st26{opacity:0.5;}
	.st27{fill:none;stroke:#000000;stroke-width:0.5;stroke-linejoin:round;}
</style>
<agg:params>
	<agg:param  classes="color" cssAttributes="fill" description="Color" name="color" type="C"></agg:param>
	<agg:param  classes="color" cssAttributes="opacity" description="Saturation" max="1" min="0" name="saturation" type="F">
		</agg:param>
</agg:params>
<radialGradient id="SVGID_1_" cx="90" cy="63.39" r="80" gradientTransform="matrix(1 0 0 -1 0 127.89)" gradientUnits="userSpaceOnUse">
	<stop  offset="0" style="stop-color:#757575"/>
	<stop  offset="5.830000e-02" style="stop-color:#959595"/>
	<stop  offset="0.132" style="stop-color:#BABABA"/>
	<stop  offset="0.2058" style="stop-color:#D7D7D7"/>
	<stop  offset="0.2788" style="stop-color:#EBEBEB"/>
	<stop  offset="0.3507" style="stop-color:#F8F8F8"/>
	<stop  offset="0.42" style="stop-color:#FCFCFC"/>
	<stop  offset="0.4749" style="stop-color:#F8F8F8"/>
	<stop  offset="0.5318" style="stop-color:#EBEBEB"/>
	<stop  offset="0.5897" style="stop-color:#D7D7D7"/>
	<stop  offset="0.6481" style="stop-color:#BABABA"/>
	<stop  offset="0.7066" style="stop-color:#959595"/>
	<stop  offset="0.72" style="stop-color:#8B8B8B"/>
	<stop  offset="1" style="stop-color:#FCFCFC"/>
</radialGradient>
<path class="st0" d="M29.9,31.9v63.2c-6.7,0.1-12.1-4.2-15.6-9.2c-4.7-12.4-4.7-32.4,0-44.8C17.8,36,23.2,31.8,29.9,31.9z"/>
<radialGradient id="SVGID_2_" cx="13" cy="63.39" r="80" gradientTransform="matrix(1 0 0 -1 0 127.89)" gradientUnits="userSpaceOnUse">
	<stop  offset="0" style="stop-color:#757575"/>
	<stop  offset="5.830000e-02" style="stop-color:#959595"/>
	<stop  offset="0.132" style="stop-color:#BABABA"/>
	<stop  offset="0.2058" style="stop-color:#D7D7D7"/>
	<stop  offset="0.2788" style="stop-color:#EBEBEB"/>
	<stop  offset="0.3507" style="stop-color:#F8F8F8"/>
	<stop  offset="0.42" style="stop-color:#FCFCFC"/>
	<stop  offset="0.4749" style="stop-color:#F8F8F8"/>
	<stop  offset="0.5318" style="stop-color:#EBEBEB"/>
	<stop  offset="0.5897" style="stop-color:#D7D7D7"/>
	<stop  offset="0.6481" style="stop-color:#BABABA"/>
	<stop  offset="0.7066" style="stop-color:#959595"/>
	<stop  offset="0.72" style="stop-color:#8B8B8B"/>
	<stop  offset="1" style="stop-color:#FCFCFC"/>
</radialGradient>
<path class="st1" d="M87.7,41.1c4.7,12.4,4.7,32.4,0,44.8c-3.5,5.1-8.9,9.3-15.6,9.2V31.9C78.8,31.8,84.2,36,87.7,41.1z"/>
<g id="cyl">
	
		<linearGradient id="SVGID_3_" gradientUnits="userSpaceOnUse" x1="29.876" y1="100.343" x2="29.876" y2="100.343" gradientTransform="matrix(1 0 0 -1 0 127.89)">
		<stop  offset="0" style="stop-color:#757575"/>
		<stop  offset="5.830000e-02" style="stop-color:#959595"/>
		<stop  offset="0.132" style="stop-color:#BABABA"/>
		<stop  offset="0.2058" style="stop-color:#D7D7D7"/>
		<stop  offset="0.2788" style="stop-color:#EBEBEB"/>
		<stop  offset="0.3507" style="stop-color:#F8F8F8"/>
		<stop  offset="0.42" style="stop-color:#FCFCFC"/>
		<stop  offset="0.4749" style="stop-color:#F8F8F8"/>
		<stop  offset="0.5318" style="stop-color:#EBEBEB"/>
		<stop  offset="0.5897" style="stop-color:#D7D7D7"/>
		<stop  offset="0.6481" style="stop-color:#BABABA"/>
		<stop  offset="0.7066" style="stop-color:#959595"/>
		<stop  offset="0.72" style="stop-color:#8B8B8B"/>
		<stop  offset="1" style="stop-color:#FCFCFC"/>
	</linearGradient>
	<polygon class="st2" points="29.9,27.5 29.9,27.5 29.9,27.5 	"/>
	
		<linearGradient id="SVGID_4_" gradientUnits="userSpaceOnUse" x1="35.128" y1="94.557" x2="35.128" y2="94.557" gradientTransform="matrix(1 0 0 -1 0 127.89)">
		<stop  offset="0" style="stop-color:#757575"/>
		<stop  offset="5.830000e-02" style="stop-color:#959595"/>
		<stop  offset="0.132" style="stop-color:#BABABA"/>
		<stop  offset="0.2058" style="stop-color:#D7D7D7"/>
		<stop  offset="0.2788" style="stop-color:#EBEBEB"/>
		<stop  offset="0.3507" style="stop-color:#F8F8F8"/>
		<stop  offset="0.42" style="stop-color:#FCFCFC"/>
		<stop  offset="0.4749" style="stop-color:#F8F8F8"/>
		<stop  offset="0.5318" style="stop-color:#EBEBEB"/>
		<stop  offset="0.5897" style="stop-color:#D7D7D7"/>
		<stop  offset="0.6481" style="stop-color:#BABABA"/>
		<stop  offset="0.7066" style="stop-color:#959595"/>
		<stop  offset="0.72" style="stop-color:#8B8B8B"/>
		<stop  offset="1" style="stop-color:#FCFCFC"/>
	</linearGradient>
	<polygon class="st3" points="35.1,33.3 35.1,33.3 35.1,33.3 	"/>
	
		<linearGradient id="SVGID_5_" gradientUnits="userSpaceOnUse" x1="40.938" y1="97.174" x2="40.938" y2="97.174" gradientTransform="matrix(1 0 0 -1 0 127.89)">
		<stop  offset="0" style="stop-color:#757575"/>
		<stop  offset="5.830000e-02" style="stop-color:#959595"/>
		<stop  offset="0.132" style="stop-color:#BABABA"/>
		<stop  offset="0.2058" style="stop-color:#D7D7D7"/>
		<stop  offset="0.2788" style="stop-color:#EBEBEB"/>
		<stop  offset="0.3507" style="stop-color:#F8F8F8"/>
		<stop  offset="0.42" style="stop-color:#FCFCFC"/>
		<stop  offset="0.4749" style="stop-color:#F8F8F8"/>
		<stop  offset="0.5318" style="stop-color:#EBEBEB"/>
		<stop  offset="0.5897" style="stop-color:#D7D7D7"/>
		<stop  offset="0.6481" style="stop-color:#BABABA"/>
		<stop  offset="0.7066" style="stop-color:#959595"/>
		<stop  offset="0.72" style="stop-color:#8B8B8B"/>
		<stop  offset="1" style="stop-color:#FCFCFC"/>
	</linearGradient>
	<polygon class="st4" points="40.9,30.7 40.9,30.7 40.9,30.7 	"/>
	
		<linearGradient id="SVGID_6_" gradientUnits="userSpaceOnUse" x1="42.683" y1="88.749" x2="42.683" y2="88.749" gradientTransform="matrix(1 0 0 -1 0 127.89)">
		<stop  offset="0" style="stop-color:#757575"/>
		<stop  offset="5.830000e-02" style="stop-color:#959595"/>
		<stop  offset="0.132" style="stop-color:#BABABA"/>
		<stop  offset="0.2058" style="stop-color:#D7D7D7"/>
		<stop  offset="0.2788" style="stop-color:#EBEBEB"/>
		<stop  offset="0.3507" style="stop-color:#F8F8F8"/>
		<stop  offset="0.42" style="stop-color:#FCFCFC"/>
		<stop  offset="0.4749" style="stop-color:#F8F8F8"/>
		<stop  offset="0.5318" style="stop-color:#EBEBEB"/>
		<stop  offset="0.5897" style="stop-color:#D7D7D7"/>
		<stop  offset="0.6481" style="stop-color:#BABABA"/>
		<stop  offset="0.7066" style="stop-color:#959595"/>
		<stop  offset="0.72" style="stop-color:#8B8B8B"/>
		<stop  offset="1" style="stop-color:#FCFCFC"/>
	</linearGradient>
	<polygon class="st5" points="42.7,39.1 42.7,39.1 42.7,39.1 	"/>
	
		<linearGradient id="SVGID_7_" gradientUnits="userSpaceOnUse" x1="59.309" y1="97.174" x2="59.309" y2="97.174" gradientTransform="matrix(1 0 0 -1 0 127.89)">
		<stop  offset="0" style="stop-color:#757575"/>
		<stop  offset="5.830000e-02" style="stop-color:#959595"/>
		<stop  offset="0.132" style="stop-color:#BABABA"/>
		<stop  offset="0.2058" style="stop-color:#D7D7D7"/>
		<stop  offset="0.2788" style="stop-color:#EBEBEB"/>
		<stop  offset="0.3507" style="stop-color:#F8F8F8"/>
		<stop  offset="0.42" style="stop-color:#FCFCFC"/>
		<stop  offset="0.4749" style="stop-color:#F8F8F8"/>
		<stop  offset="0.5318" style="stop-color:#EBEBEB"/>
		<stop  offset="0.5897" style="stop-color:#D7D7D7"/>
		<stop  offset="0.6481" style="stop-color:#BABABA"/>
		<stop  offset="0.7066" style="stop-color:#959595"/>
		<stop  offset="0.72" style="stop-color:#8B8B8B"/>
		<stop  offset="1" style="stop-color:#FCFCFC"/>
	</linearGradient>
	<polygon class="st6" points="59.3,30.7 59.3,30.7 59.3,30.7 	"/>
	
		<linearGradient id="SVGID_8_" gradientUnits="userSpaceOnUse" x1="61.063" y1="94.557" x2="61.063" y2="94.557" gradientTransform="matrix(1 0 0 -1 0 127.89)">
		<stop  offset="0" style="stop-color:#757575"/>
		<stop  offset="5.830000e-02" style="stop-color:#959595"/>
		<stop  offset="0.132" style="stop-color:#BABABA"/>
		<stop  offset="0.2058" style="stop-color:#D7D7D7"/>
		<stop  offset="0.2788" style="stop-color:#EBEBEB"/>
		<stop  offset="0.3507" style="stop-color:#F8F8F8"/>
		<stop  offset="0.42" style="stop-color:#FCFCFC"/>
		<stop  offset="0.4749" style="stop-color:#F8F8F8"/>
		<stop  offset="0.5318" style="stop-color:#EBEBEB"/>
		<stop  offset="0.5897" style="stop-color:#D7D7D7"/>
		<stop  offset="0.6481" style="stop-color:#BABABA"/>
		<stop  offset="0.7066" style="stop-color:#959595"/>
		<stop  offset="0.72" style="stop-color:#8B8B8B"/>
		<stop  offset="1" style="stop-color:#FCFCFC"/>
	</linearGradient>
	<polygon class="st7" points="61.1,33.3 61.1,33.3 61.1,33.3 	"/>
	
		<linearGradient id="SVGID_9_" gradientUnits="userSpaceOnUse" x1="66.872" y1="100.343" x2="66.872" y2="100.343" gradientTransform="matrix(1 0 0 -1 0 127.89)">
		<stop  offset="0" style="stop-color:#757575"/>
		<stop  offset="5.830000e-02" style="stop-color:#959595"/>
		<stop  offset="0.132" style="stop-color:#BABABA"/>
		<stop  offset="0.2058" style="stop-color:#D7D7D7"/>
		<stop  offset="0.2788" style="stop-color:#EBEBEB"/>
		<stop  offset="0.3507" style="stop-color:#F8F8F8"/>
		<stop  offset="0.42" style="stop-color:#FCFCFC"/>
		<stop  offset="0.4749" style="stop-color:#F8F8F8"/>
		<stop  offset="0.5318" style="stop-color:#EBEBEB"/>
		<stop  offset="0.5897" style="stop-color:#D7D7D7"/>
		<stop  offset="0.6481" style="stop-color:#BABABA"/>
		<stop  offset="0.7066" style="stop-color:#959595"/>
		<stop  offset="0.72" style="stop-color:#8B8B8B"/>
		<stop  offset="1" style="stop-color:#FCFCFC"/>
	</linearGradient>
	<polygon class="st8" points="66.9,27.5 66.9,27.5 66.9,27.5 	"/>
	
		<linearGradient id="SVGID_10_" gradientUnits="userSpaceOnUse" x1="85.075" y1="100.494" x2="85.075" y2="100.494" gradientTransform="matrix(1 0 0 -1 0 127.89)">
		<stop  offset="0" style="stop-color:#757575"/>
		<stop  offset="5.830000e-02" style="stop-color:#959595"/>
		<stop  offset="0.132" style="stop-color:#BABABA"/>
		<stop  offset="0.2058" style="stop-color:#D7D7D7"/>
		<stop  offset="0.2788" style="stop-color:#EBEBEB"/>
		<stop  offset="0.3507" style="stop-color:#F8F8F8"/>
		<stop  offset="0.42" style="stop-color:#FCFCFC"/>
		<stop  offset="0.4749" style="stop-color:#F8F8F8"/>
		<stop  offset="0.5318" style="stop-color:#EBEBEB"/>
		<stop  offset="0.5897" style="stop-color:#D7D7D7"/>
		<stop  offset="0.6481" style="stop-color:#BABABA"/>
		<stop  offset="0.7066" style="stop-color:#959595"/>
		<stop  offset="0.72" style="stop-color:#8B8B8B"/>
		<stop  offset="1" style="stop-color:#FCFCFC"/>
	</linearGradient>
	<polygon class="st9" points="85.1,27.4 85.1,27.4 85.1,27.4 	"/>
	
		<linearGradient id="SVGID_11_" gradientUnits="userSpaceOnUse" x1="85.075" y1="30.924" x2="85.075" y2="30.924" gradientTransform="matrix(1 0 0 -1 0 127.89)">
		<stop  offset="0" style="stop-color:#757575"/>
		<stop  offset="5.830000e-02" style="stop-color:#959595"/>
		<stop  offset="0.132" style="stop-color:#BABABA"/>
		<stop  offset="0.2058" style="stop-color:#D7D7D7"/>
		<stop  offset="0.2788" style="stop-color:#EBEBEB"/>
		<stop  offset="0.3507" style="stop-color:#F8F8F8"/>
		<stop  offset="0.42" style="stop-color:#FCFCFC"/>
		<stop  offset="0.4749" style="stop-color:#F8F8F8"/>
		<stop  offset="0.5318" style="stop-color:#EBEBEB"/>
		<stop  offset="0.5897" style="stop-color:#D7D7D7"/>
		<stop  offset="0.6481" style="stop-color:#BABABA"/>
		<stop  offset="0.7066" style="stop-color:#959595"/>
		<stop  offset="0.72" style="stop-color:#8B8B8B"/>
		<stop  offset="1" style="stop-color:#FCFCFC"/>
	</linearGradient>
	<polygon class="st10" points="85.1,97 85.1,97 85.1,97 	"/>
	
		<linearGradient id="SVGID_12_" gradientUnits="userSpaceOnUse" x1="1" y1="30.924" x2="1" y2="30.924" gradientTransform="matrix(1 0 0 -1 0 127.89)">
		<stop  offset="0" style="stop-color:#757575"/>
		<stop  offset="5.830000e-02" style="stop-color:#959595"/>
		<stop  offset="0.132" style="stop-color:#BABABA"/>
		<stop  offset="0.2058" style="stop-color:#D7D7D7"/>
		<stop  offset="0.2788" style="stop-color:#EBEBEB"/>
		<stop  offset="0.3507" style="stop-color:#F8F8F8"/>
		<stop  offset="0.42" style="stop-color:#FCFCFC"/>
		<stop  offset="0.4749" style="stop-color:#F8F8F8"/>
		<stop  offset="0.5318" style="stop-color:#EBEBEB"/>
		<stop  offset="0.5897" style="stop-color:#D7D7D7"/>
		<stop  offset="0.6481" style="stop-color:#BABABA"/>
		<stop  offset="0.7066" style="stop-color:#959595"/>
		<stop  offset="0.72" style="stop-color:#8B8B8B"/>
		<stop  offset="1" style="stop-color:#FCFCFC"/>
	</linearGradient>
	<polygon class="st11" points="1,97 1,97 1,97 	"/>
	
		<linearGradient id="SVGID_13_" gradientUnits="userSpaceOnUse" x1="1" y1="100.494" x2="1" y2="100.494" gradientTransform="matrix(1 0 0 -1 0 127.89)">
		<stop  offset="0" style="stop-color:#757575"/>
		<stop  offset="5.830000e-02" style="stop-color:#959595"/>
		<stop  offset="0.132" style="stop-color:#BABABA"/>
		<stop  offset="0.2058" style="stop-color:#D7D7D7"/>
		<stop  offset="0.2788" style="stop-color:#EBEBEB"/>
		<stop  offset="0.3507" style="stop-color:#F8F8F8"/>
		<stop  offset="0.42" style="stop-color:#FCFCFC"/>
		<stop  offset="0.4749" style="stop-color:#F8F8F8"/>
		<stop  offset="0.5318" style="stop-color:#EBEBEB"/>
		<stop  offset="0.5897" style="stop-color:#D7D7D7"/>
		<stop  offset="0.6481" style="stop-color:#BABABA"/>
		<stop  offset="0.7066" style="stop-color:#959595"/>
		<stop  offset="0.72" style="stop-color:#8B8B8B"/>
		<stop  offset="1" style="stop-color:#FCFCFC"/>
	</linearGradient>
	<polygon class="st12" points="1,27.4 1,27.4 1,27.4 	"/>
	
		<linearGradient id="SVGID_14_" gradientUnits="userSpaceOnUse" x1="43.042" y1="4.529" x2="43.042" y2="4.529" gradientTransform="matrix(1 0 0 -1 0 127.89)">
		<stop  offset="0" style="stop-color:#757575"/>
		<stop  offset="5.830000e-02" style="stop-color:#959595"/>
		<stop  offset="0.132" style="stop-color:#BABABA"/>
		<stop  offset="0.2058" style="stop-color:#D7D7D7"/>
		<stop  offset="0.2788" style="stop-color:#EBEBEB"/>
		<stop  offset="0.3507" style="stop-color:#F8F8F8"/>
		<stop  offset="0.42" style="stop-color:#FCFCFC"/>
		<stop  offset="0.4749" style="stop-color:#F8F8F8"/>
		<stop  offset="0.5318" style="stop-color:#EBEBEB"/>
		<stop  offset="0.5897" style="stop-color:#D7D7D7"/>
		<stop  offset="0.6481" style="stop-color:#BABABA"/>
		<stop  offset="0.7066" style="stop-color:#959595"/>
		<stop  offset="0.72" style="stop-color:#8B8B8B"/>
		<stop  offset="1" style="stop-color:#FCFCFC"/>
	</linearGradient>
	<polygon class="st13" points="43,123.4 43,123.4 43,123.4 	"/>
	
		<linearGradient id="SVGID_15_" gradientUnits="userSpaceOnUse" x1="45.694" y1="11.126" x2="56.306" y2="11.126" gradientTransform="matrix(1 0 0 -1 0 127.89)">
		<stop  offset="0" style="stop-color:#757575"/>
		<stop  offset="5.830000e-02" style="stop-color:#959595"/>
		<stop  offset="0.132" style="stop-color:#BABABA"/>
		<stop  offset="0.2058" style="stop-color:#D7D7D7"/>
		<stop  offset="0.2788" style="stop-color:#EBEBEB"/>
		<stop  offset="0.3507" style="stop-color:#F8F8F8"/>
		<stop  offset="0.42" style="stop-color:#FCFCFC"/>
		<stop  offset="0.4749" style="stop-color:#F8F8F8"/>
		<stop  offset="0.5318" style="stop-color:#EBEBEB"/>
		<stop  offset="0.5897" style="stop-color:#D7D7D7"/>
		<stop  offset="0.6481" style="stop-color:#BABABA"/>
		<stop  offset="0.7066" style="stop-color:#959595"/>
		<stop  offset="0.72" style="stop-color:#8B8B8B"/>
		<stop  offset="1" style="stop-color:#FCFCFC"/>
	</linearGradient>
	<polygon class="st14" points="56.3,115.4 56.3,123.4 45.7,123.4 45.7,115.4 51,110.2 	"/>
	
		<linearGradient id="SVGID_16_" gradientUnits="userSpaceOnUse" x1="43.042" y1="126.89" x2="43.042" y2="126.89" gradientTransform="matrix(1 0 0 -1 0 127.89)">
		<stop  offset="0" style="stop-color:#757575"/>
		<stop  offset="5.830000e-02" style="stop-color:#959595"/>
		<stop  offset="0.132" style="stop-color:#BABABA"/>
		<stop  offset="0.2058" style="stop-color:#D7D7D7"/>
		<stop  offset="0.2788" style="stop-color:#EBEBEB"/>
		<stop  offset="0.3507" style="stop-color:#F8F8F8"/>
		<stop  offset="0.42" style="stop-color:#FCFCFC"/>
		<stop  offset="0.4749" style="stop-color:#F8F8F8"/>
		<stop  offset="0.5318" style="stop-color:#EBEBEB"/>
		<stop  offset="0.5897" style="stop-color:#D7D7D7"/>
		<stop  offset="0.6481" style="stop-color:#BABABA"/>
		<stop  offset="0.7066" style="stop-color:#959595"/>
		<stop  offset="0.72" style="stop-color:#8B8B8B"/>
		<stop  offset="1" style="stop-color:#FCFCFC"/>
	</linearGradient>
	<polygon class="st15" points="43,1 43,1 43,1 	"/>
	
		<linearGradient id="SVGID_17_" gradientUnits="userSpaceOnUse" x1="45.694" y1="117.654" x2="56.306" y2="117.654" gradientTransform="matrix(1 0 0 -1 0 127.89)">
		<stop  offset="0" style="stop-color:#757575"/>
		<stop  offset="5.830000e-02" style="stop-color:#959595"/>
		<stop  offset="0.132" style="stop-color:#BABABA"/>
		<stop  offset="0.2058" style="stop-color:#D7D7D7"/>
		<stop  offset="0.2788" style="stop-color:#EBEBEB"/>
		<stop  offset="0.3507" style="stop-color:#F8F8F8"/>
		<stop  offset="0.42" style="stop-color:#FCFCFC"/>
		<stop  offset="0.4749" style="stop-color:#F8F8F8"/>
		<stop  offset="0.5318" style="stop-color:#EBEBEB"/>
		<stop  offset="0.5897" style="stop-color:#D7D7D7"/>
		<stop  offset="0.6481" style="stop-color:#BABABA"/>
		<stop  offset="0.7066" style="stop-color:#959595"/>
		<stop  offset="0.72" style="stop-color:#8B8B8B"/>
		<stop  offset="1" style="stop-color:#FCFCFC"/>
	</linearGradient>
	<polygon class="st16" points="56.3,3.6 56.3,11.6 51,16.8 45.7,11.6 45.7,3.6 	"/>
	
		<linearGradient id="SVGID_18_" gradientUnits="userSpaceOnUse" x1="87.736" y1="20.3655" x2="98.347" y2="20.3655" gradientTransform="matrix(1 0 0 -1 0 127.89)">
		<stop  offset="0" style="stop-color:#757575"/>
		<stop  offset="5.830000e-02" style="stop-color:#959595"/>
		<stop  offset="0.132" style="stop-color:#BABABA"/>
		<stop  offset="0.2058" style="stop-color:#D7D7D7"/>
		<stop  offset="0.2788" style="stop-color:#EBEBEB"/>
		<stop  offset="0.3507" style="stop-color:#F8F8F8"/>
		<stop  offset="0.42" style="stop-color:#FCFCFC"/>
		<stop  offset="0.4749" style="stop-color:#F8F8F8"/>
		<stop  offset="0.5318" style="stop-color:#EBEBEB"/>
		<stop  offset="0.5897" style="stop-color:#D7D7D7"/>
		<stop  offset="0.6481" style="stop-color:#BABABA"/>
		<stop  offset="0.7066" style="stop-color:#959595"/>
		<stop  offset="0.72" style="stop-color:#8B8B8B"/>
		<stop  offset="1" style="stop-color:#FCFCFC"/>
	</linearGradient>
	<polygon class="st17" points="98.3,99.6 98.3,115.4 87.7,104.9 87.7,99.6 	"/>
	
		<linearGradient id="SVGID_19_" gradientUnits="userSpaceOnUse" x1="51" y1="23.4852" x2="51" y2="12.4906" gradientTransform="matrix(1 0 0 -1 0 127.89)">
		<stop  offset="0" style="stop-color:#757575"/>
		<stop  offset="5.830000e-02" style="stop-color:#959595"/>
		<stop  offset="0.132" style="stop-color:#BABABA"/>
		<stop  offset="0.2058" style="stop-color:#D7D7D7"/>
		<stop  offset="0.2788" style="stop-color:#EBEBEB"/>
		<stop  offset="0.3507" style="stop-color:#F8F8F8"/>
		<stop  offset="0.42" style="stop-color:#FCFCFC"/>
		<stop  offset="0.4749" style="stop-color:#F8F8F8"/>
		<stop  offset="0.5318" style="stop-color:#EBEBEB"/>
		<stop  offset="0.5897" style="stop-color:#D7D7D7"/>
		<stop  offset="0.6481" style="stop-color:#BABABA"/>
		<stop  offset="0.7066" style="stop-color:#959595"/>
		<stop  offset="0.72" style="stop-color:#8B8B8B"/>
		<stop  offset="1" style="stop-color:#FCFCFC"/>
	</linearGradient>
	<polygon class="st18" points="87.7,104.9 98.3,115.4 56.3,115.4 51,110.2 45.7,115.4 3.7,115.4 14.3,104.9 	"/>
	
		<linearGradient id="SVGID_20_" gradientUnits="userSpaceOnUse" x1="3.653" y1="20.3655" x2="14.264" y2="20.3655" gradientTransform="matrix(1 0 0 -1 0 127.89)">
		<stop  offset="0" style="stop-color:#757575"/>
		<stop  offset="5.830000e-02" style="stop-color:#959595"/>
		<stop  offset="0.132" style="stop-color:#BABABA"/>
		<stop  offset="0.2058" style="stop-color:#D7D7D7"/>
		<stop  offset="0.2788" style="stop-color:#EBEBEB"/>
		<stop  offset="0.3507" style="stop-color:#F8F8F8"/>
		<stop  offset="0.42" style="stop-color:#FCFCFC"/>
		<stop  offset="0.4749" style="stop-color:#F8F8F8"/>
		<stop  offset="0.5318" style="stop-color:#EBEBEB"/>
		<stop  offset="0.5897" style="stop-color:#D7D7D7"/>
		<stop  offset="0.6481" style="stop-color:#BABABA"/>
		<stop  offset="0.7066" style="stop-color:#959595"/>
		<stop  offset="0.72" style="stop-color:#8B8B8B"/>
		<stop  offset="1" style="stop-color:#FCFCFC"/>
	</linearGradient>
	<polygon class="st19" points="14.3,99.6 14.3,104.9 3.7,115.4 3.7,99.6 	"/>
	
		<linearGradient id="SVGID_21_" gradientUnits="userSpaceOnUse" x1="3.653" y1="64.39" x2="14.264" y2="64.39" gradientTransform="matrix(1 0 0 -1 0 127.89)">
		<stop  offset="0" style="stop-color:#757575"/>
		<stop  offset="5.830000e-02" style="stop-color:#959595"/>
		<stop  offset="0.132" style="stop-color:#BABABA"/>
		<stop  offset="0.2058" style="stop-color:#D7D7D7"/>
		<stop  offset="0.2788" style="stop-color:#EBEBEB"/>
		<stop  offset="0.3507" style="stop-color:#F8F8F8"/>
		<stop  offset="0.42" style="stop-color:#FCFCFC"/>
		<stop  offset="0.4749" style="stop-color:#F8F8F8"/>
		<stop  offset="0.5318" style="stop-color:#EBEBEB"/>
		<stop  offset="0.5897" style="stop-color:#D7D7D7"/>
		<stop  offset="0.6481" style="stop-color:#BABABA"/>
		<stop  offset="0.7066" style="stop-color:#959595"/>
		<stop  offset="0.72" style="stop-color:#8B8B8B"/>
		<stop  offset="1" style="stop-color:#FCFCFC"/>
	</linearGradient>
	<path class="st20" d="M14.3,85.9V97H3.7V30h10.6v11.1C9.6,53.5,9.6,73.5,14.3,85.9z"/>
	
		<linearGradient id="SVGID_22_" gradientUnits="userSpaceOnUse" x1="3.653" y1="108.4145" x2="14.264" y2="108.4145" gradientTransform="matrix(1 0 0 -1 0 127.89)">
		<stop  offset="0" style="stop-color:#757575"/>
		<stop  offset="5.830000e-02" style="stop-color:#959595"/>
		<stop  offset="0.132" style="stop-color:#BABABA"/>
		<stop  offset="0.2058" style="stop-color:#D7D7D7"/>
		<stop  offset="0.2788" style="stop-color:#EBEBEB"/>
		<stop  offset="0.3507" style="stop-color:#F8F8F8"/>
		<stop  offset="0.42" style="stop-color:#FCFCFC"/>
		<stop  offset="0.4749" style="stop-color:#F8F8F8"/>
		<stop  offset="0.5318" style="stop-color:#EBEBEB"/>
		<stop  offset="0.5897" style="stop-color:#D7D7D7"/>
		<stop  offset="0.6481" style="stop-color:#BABABA"/>
		<stop  offset="0.7066" style="stop-color:#959595"/>
		<stop  offset="0.72" style="stop-color:#8B8B8B"/>
		<stop  offset="1" style="stop-color:#FCFCFC"/>
	</linearGradient>
	<polygon class="st21" points="14.3,22.1 14.3,27.4 3.7,27.4 3.7,11.6 	"/>
	
		<linearGradient id="SVGID_23_" gradientUnits="userSpaceOnUse" x1="87.736" y1="64.39" x2="98.347" y2="64.39" gradientTransform="matrix(1 0 0 -1 0 127.89)">
		<stop  offset="0" style="stop-color:#757575"/>
		<stop  offset="5.830000e-02" style="stop-color:#959595"/>
		<stop  offset="0.132" style="stop-color:#BABABA"/>
		<stop  offset="0.2058" style="stop-color:#D7D7D7"/>
		<stop  offset="0.2788" style="stop-color:#EBEBEB"/>
		<stop  offset="0.3507" style="stop-color:#F8F8F8"/>
		<stop  offset="0.42" style="stop-color:#FCFCFC"/>
		<stop  offset="0.4749" style="stop-color:#F8F8F8"/>
		<stop  offset="0.5318" style="stop-color:#EBEBEB"/>
		<stop  offset="0.5897" style="stop-color:#D7D7D7"/>
		<stop  offset="0.6481" style="stop-color:#BABABA"/>
		<stop  offset="0.7066" style="stop-color:#959595"/>
		<stop  offset="0.72" style="stop-color:#8B8B8B"/>
		<stop  offset="1" style="stop-color:#FCFCFC"/>
	</linearGradient>
	<path class="st22" d="M98.3,30V97H87.7V85.9c4.7-12.4,4.7-32.4,0-44.8V30H98.3z"/>
	
		<linearGradient id="SVGID_24_" gradientUnits="userSpaceOnUse" x1="87.736" y1="108.4145" x2="98.347" y2="108.4145" gradientTransform="matrix(1 0 0 -1 0 127.89)">
		<stop  offset="0" style="stop-color:#757575"/>
		<stop  offset="5.830000e-02" style="stop-color:#959595"/>
		<stop  offset="0.132" style="stop-color:#BABABA"/>
		<stop  offset="0.2058" style="stop-color:#D7D7D7"/>
		<stop  offset="0.2788" style="stop-color:#EBEBEB"/>
		<stop  offset="0.3507" style="stop-color:#F8F8F8"/>
		<stop  offset="0.42" style="stop-color:#FCFCFC"/>
		<stop  offset="0.4749" style="stop-color:#F8F8F8"/>
		<stop  offset="0.5318" style="stop-color:#EBEBEB"/>
		<stop  offset="0.5897" style="stop-color:#D7D7D7"/>
		<stop  offset="0.6481" style="stop-color:#BABABA"/>
		<stop  offset="0.7066" style="stop-color:#959595"/>
		<stop  offset="0.72" style="stop-color:#8B8B8B"/>
		<stop  offset="1" style="stop-color:#FCFCFC"/>
	</linearGradient>
	<polygon class="st23" points="98.3,11.6 98.3,27.4 87.7,27.4 87.7,22.1 	"/>
	
		<linearGradient id="SVGID_25_" gradientUnits="userSpaceOnUse" x1="51" y1="116.7518" x2="51" y2="105.7572" gradientTransform="matrix(1 0 0 -1 0 127.89)">
		<stop  offset="0" style="stop-color:#757575"/>
		<stop  offset="5.830000e-02" style="stop-color:#959595"/>
		<stop  offset="0.132" style="stop-color:#BABABA"/>
		<stop  offset="0.2058" style="stop-color:#D7D7D7"/>
		<stop  offset="0.2788" style="stop-color:#EBEBEB"/>
		<stop  offset="0.3507" style="stop-color:#F8F8F8"/>
		<stop  offset="0.42" style="stop-color:#FCFCFC"/>
		<stop  offset="0.4749" style="stop-color:#F8F8F8"/>
		<stop  offset="0.5318" style="stop-color:#EBEBEB"/>
		<stop  offset="0.5897" style="stop-color:#D7D7D7"/>
		<stop  offset="0.6481" style="stop-color:#BABABA"/>
		<stop  offset="0.7066" style="stop-color:#959595"/>
		<stop  offset="0.72" style="stop-color:#8B8B8B"/>
		<stop  offset="1" style="stop-color:#FCFCFC"/>
	</linearGradient>
	<polygon class="st24" points="98.3,11.6 87.7,22.1 14.3,22.1 3.7,11.6 45.7,11.6 51,16.8 56.3,11.6 	"/>
</g>
<g id="图层_2">
	<path class="st25" d="M101,30v-2.6h-2.7V11.6h-42V3.6H59V1H43v2.6h2.7v7.9h-42v15.8H1V30h2.7V97H1v2.6h2.7v15.8h42v7.9H43v2.6H59
		v-2.6h-2.7v-7.9h42V99.6h2.7V97h-2.7V30H101z M87.7,104.9H14.3v-5.3h2.7V97h-2.7V85.9c3.5,5.1,8.9,9.4,15.6,9.2v4.3h5.3v-5.8h5.8
		v2.6h1.7v-8.4h16.6v8.4h1.8v-2.6h5.8v5.8h5.3v-4.3c6.7,0.1,12.1-4.2,15.6-9.2V97h-2.7v2.6h2.7V104.9z M87.7,27.4h-2.7V30h2.7v11.1
		c-3.5-5.1-8.9-9.4-15.6-9.2v-4.3h-5.3v5.8h-5.8v-2.6h-1.8v8.4H42.7v-8.4h-1.7v2.6h-5.8v-5.8h-5.3v4.3c-6.7-0.1-12.1,4.2-15.6,9.2
		V30h2.7v-2.6h-2.7v-5.3h73.5V27.4z"/>
</g>
<g class="st26">
	<polygon class="st27" points="98.3,99.6 101,99.6 101,97 98.3,97 87.7,97 85.1,97 85.1,99.6 87.7,99.6 	"/>
	<polygon class="st27" points="98.3,27.4 101,27.4 101,30 98.3,30 87.7,30 85.1,30 85.1,27.4 87.7,27.4 	"/>
	<polygon class="st27" points="3.7,99.6 1,99.6 1,97 3.7,97 14.3,97 16.9,97 16.9,99.6 14.3,99.6 	"/>
	<polygon class="st27" points="3.7,27.4 1,27.4 1,30 3.7,30 14.3,30 16.9,30 16.9,27.4 14.3,27.4 	"/>
	<line class="st27" x1="87.7" y1="30" x2="87.7" y2="41.1"/>
	<line class="st27" x1="87.7" y1="22.1" x2="87.7" y2="27.4"/>
	<line class="st27" x1="98.3" y1="30" x2="98.3" y2="97"/>
	<line class="st27" x1="98.3" y1="11.6" x2="98.3" y2="27.4"/>
	<line class="st27" x1="87.7" y1="99.6" x2="87.7" y2="104.9"/>
	<line class="st27" x1="87.7" y1="85.9" x2="87.7" y2="97"/>
	<line class="st27" x1="98.3" y1="99.6" x2="98.3" y2="115.4"/>
	<line class="st27" x1="98.3" y1="115.4" x2="56.3" y2="115.4"/>
	<line class="st27" x1="98.3" y1="11.6" x2="56.3" y2="11.6"/>
	<line class="st27" x1="98.3" y1="115.4" x2="87.7" y2="104.9"/>
	<line class="st27" x1="98.3" y1="11.6" x2="87.7" y2="22.1"/>
	<path class="st27" d="M87.7,85.9c4.7-12.4,4.7-32.4,0-44.8"/>
	<path class="st27" d="M87.7,41.1c-3.5-5.1-8.9-9.4-15.6-9.2"/>
	<path class="st27" d="M72.1,95.1c6.7,0.1,12.1-4.2,15.6-9.2"/>
	<line class="st27" x1="59.3" y1="87.9" x2="42.7" y2="87.9"/>
	<line class="st27" x1="59.3" y1="39.1" x2="42.7" y2="39.1"/>
	<polyline class="st27" points="72.1,27.5 72.1,31.9 72.1,95.1 72.1,99.5 	"/>
	<polyline class="st27" points="66.9,27.5 66.9,33.3 66.9,93.7 66.9,99.5 	"/>
	<line class="st27" x1="66.9" y1="93.7" x2="61.1" y2="93.7"/>
	<line class="st27" x1="72.1" y1="99.5" x2="66.9" y2="99.5"/>
	<line class="st27" x1="66.9" y1="33.3" x2="61.1" y2="33.3"/>
	<line class="st27" x1="72.1" y1="27.5" x2="66.9" y2="27.5"/>
	<line class="st27" x1="14.3" y1="30" x2="14.3" y2="41.1"/>
	<line class="st27" x1="14.3" y1="22.1" x2="14.3" y2="27.4"/>
	<line class="st27" x1="3.7" y1="30" x2="3.7" y2="97"/>
	<line class="st27" x1="3.7" y1="11.6" x2="3.7" y2="27.4"/>
	<line class="st27" x1="14.3" y1="99.6" x2="14.3" y2="104.9"/>
	<line class="st27" x1="14.3" y1="85.9" x2="14.3" y2="97"/>
	<line class="st27" x1="3.7" y1="99.6" x2="3.7" y2="115.4"/>
	<line class="st27" x1="45.7" y1="115.4" x2="45.7" y2="123.4"/>
	<line class="st27" x1="56.3" y1="115.4" x2="56.3" y2="123.4"/>
	<polygon class="st27" points="56.3,123.4 59,123.4 59,126 43,126 43,123.4 45.7,123.4 	"/>
	<line class="st27" x1="45.7" y1="11.6" x2="45.7" y2="3.6"/>
	<line class="st27" x1="56.3" y1="11.6" x2="56.3" y2="3.6"/>
	<polygon class="st27" points="56.3,3.6 59,3.6 59,1 43,1 43,3.6 45.7,3.6 	"/>
	<line class="st27" x1="3.7" y1="115.4" x2="45.7" y2="115.4"/>
	<polyline class="st27" points="45.7,115.4 51,110.2 56.3,115.4 	"/>
	<line class="st27" x1="3.7" y1="11.6" x2="45.7" y2="11.6"/>
	<polyline class="st27" points="45.7,11.6 51,16.8 56.3,11.6 	"/>
	<line class="st27" x1="3.7" y1="115.4" x2="14.3" y2="104.9"/>
	<line class="st27" x1="14.3" y1="104.9" x2="87.7" y2="104.9"/>
	<line class="st27" x1="3.7" y1="11.6" x2="14.3" y2="22.1"/>
	<line class="st27" x1="14.3" y1="22.1" x2="87.7" y2="22.1"/>
	<path class="st27" d="M14.3,85.9c-4.7-12.4-4.7-32.4,0-44.8"/>
	<path class="st27" d="M14.3,41.1c3.5-5.1,8.9-9.4,15.6-9.2"/>
	<path class="st27" d="M29.9,95.1c-6.7,0.1-12.1-4.2-15.6-9.2"/>
	<polyline class="st27" points="61.1,30.7 61.1,33.3 61.1,93.7 61.1,96.3 	"/>
	<polyline class="st27" points="59.3,30.7 59.3,39.1 59.3,87.9 59.3,96.3 	"/>
	<line class="st27" x1="61.1" y1="96.3" x2="59.3" y2="96.3"/>
	<line class="st27" x1="61.1" y1="30.7" x2="59.3" y2="30.7"/>
	<polyline class="st27" points="29.9,27.5 29.9,31.9 29.9,95.1 29.9,99.5 	"/>
	<polyline class="st27" points="35.1,27.5 35.1,33.3 35.1,93.7 35.1,99.5 	"/>
	<polyline class="st27" points="40.9,30.7 40.9,33.3 40.9,93.7 40.9,96.3 	"/>
	<polyline class="st27" points="42.7,30.7 42.7,39.1 42.7,87.9 42.7,96.3 	"/>
	<line class="st27" x1="35.1" y1="93.7" x2="40.9" y2="93.7"/>
	<line class="st27" x1="40.9" y1="96.3" x2="42.7" y2="96.3"/>
	<line class="st27" x1="29.9" y1="99.5" x2="35.1" y2="99.5"/>
	<line class="st27" x1="35.1" y1="33.3" x2="40.9" y2="33.3"/>
	<line class="st27" x1="40.9" y1="30.7" x2="42.7" y2="30.7"/>
	<line class="st27" x1="29.9" y1="27.5" x2="35.1" y2="27.5"/>
</g>
</svg>
