<?xml version="1.0" encoding="utf-8"?>
<!-- Generator: Adobe Illustrator 19.0.0, SVG Export Plug-In . SVG Version: 6.00 Build 0)  -->
<svg version="1.1" id="图层_1" xmlns="http://www.w3.org/2000/svg" xmlns:xlink="http://www.w3.org/1999/xlink" x="0px" y="0px"
	 viewBox="-33 1.2 40.9 106.5" style="enable-background:new -33 1.2 40.9 106.5;" xml:space="preserve">
<style type="text/css">
	.st0{fill:#008000;stroke:#000000;stroke-width:0.25;}
	.st1{fill:none;stroke:#000000;stroke-width:2;}
</style>
<path class="st0" d="M-26.1,43.7V4.6l2.8-0.8l3.3-0.6l3.7-0.4l1.9-0.1h4L-6.5,3L-3,3.5l3,0.7l1.3,0.4v39.1l-2.8,0.8l-3.3,0.6
	l-3.7,0.4l-1.9,0.1h-4l-3.7-0.3l-3.6-0.6l-3-0.7L-26.1,43.7z"/>
<path class="st0" d="M-27.8,103.4l30.5-7.7l1,0.7l0.7,0.8l0.4,1.1L5,99.6l-0.1,1.1l-0.4,1.1l-0.7,1L3,103.5l-30.7-7.7l-1,0.7
	l-0.7,0.8l-0.6,1.1l-0.1,1.2l0.1,1.1l0.6,1.1l0.7,1L-27.8,103.4z"/>
<path class="st1" d="M-12.5,45.6v54.1"/>
</svg>
