<?xml version="1.0" encoding="utf-8"?>
<!-- Generator: Adobe Illustrator 15.1.0, SVG Export Plug-In . SVG Version: 6.00 Build 0)  -->
<!DOCTYPE svg PUBLIC "-//W3C//DTD SVG 1.1//EN" "http://www.w3.org/Graphics/SVG/1.1/DTD/svg11.dtd">
<svg version="1.1" id="Layer_1" xmlns="http://www.w3.org/2000/svg" preserveAspectRatio="none"   x="0px" y="0px"
	   viewBox="0 0 152 142" xmlns:agg="http://www.example.com" xml:space="preserve">
	 
<agg:params>
	<agg:param type="C" name="color" description="Color" cssAttributes="fill" classes="color"/>
</agg:params>
	 
<style type="text/css" >
   <![CDATA[

	.stroke,.thin,.thick{
		stroke-linecap:butt;
		stroke-linejoin:round;
		stroke: black;
		fill:none;
		opacity:0.5;
	}

	.stroke{stroke-width:0.5;}

	.thin {stroke-width:0.25;}

	.thick {stroke-width:0.75;}
	
	.color {
		fill:#F26700;
		opacity:1;
	}

      ]]>
</style>
	 
	<rect x="128.448" y="130.724" fill="#979797"  />
	<rect x="130.488" y="130.724" fill="#979797"  />
	<rect x="134.631" y="130.724" fill="#979797"  />
	<rect x="97.604" y="130.724" fill="#979797"  />
	<rect x="99.638" y="130.724" fill="#979797"  />
	<rect x="103.78" y="130.724" fill="#979797"  />
	<rect x="72.943" y="130.724" fill="#979797"  />
	<rect x="74.983" y="130.724" fill="#979797"  />
	<rect x="79.125" y="130.724" fill="#979797"  />
	<rect x="25.661" y="130.724" fill="#979797"  />
	<rect x="21.512" y="130.724" fill="#979797"  />
	<rect x="19.472" y="130.724" fill="#979797"  />
	<path fill="#CCCBCB" d="M151,99.823v8.237h-28.735h-10.256H99.645v-8.237h23.338c2.288,1.047,4.824,1.626,7.506,1.626
		c2.674,0,5.217-0.579,7.499-1.626C142.322,99.823,146.665,99.823,151,99.823z"/>
	<path class="color" d="M151,58.646c0,13.721,0,27.449,0,41.177c-4.335,0-8.678,0-13.013,0c6.258-2.846,10.607-9.147,10.607-16.471
		c0-9.993-8.112-18.101-18.106-18.101c-10.008,0-18.113,8.107-18.113,18.101c0,7.323,4.35,13.625,10.607,16.471H99.645H89.389
		l14.398-8.238V73.069h-29.61c5.176-5.455,7.857-11.116,8.788-18.576c1.461,0,2.923,0,4.376,0c0-2.749,0-5.49,0-8.232
		c-1.46,0-2.922,0-4.383,0c-2.096-16.463-16.101-28.799-32.705-28.799c-11.241,0-21.298,5.662-27.266,14.43h-7.589v14.369
		c-0.676,0-1.358,0-2.041,0c0,2.742,0,5.483,0,8.232c0.683,0,1.365,0,2.041,0v14.431h7.513c0.992,1.412,2.123,2.782,3.419,4.146
		h-0.669v20.044c-7.423-4.305-13.688-10.6-17.996-18.039C3.357,67.621,1.007,59.032,1,50.443c-0.007-8.597,2.329-17.193,6.624-24.64
		c4.3-7.446,10.565-13.742,17.995-18.081C33.05,3.383,41.645,1.007,50.239,1c8.596-0.007,17.19,2.355,24.676,6.584
		C100.278,24.598,125.643,41.625,151,58.646z"/>
	<path fill="#676767" d="M130.488,65.252c9.994,0,18.106,8.107,18.106,18.101c0,7.323-4.35,13.625-10.607,16.471
		c-2.282,1.047-4.825,1.626-7.499,1.626c-2.682,0-5.218-0.579-7.506-1.626c-6.258-2.846-10.607-9.147-10.607-16.471
		C112.375,73.359,120.48,65.252,130.488,65.252z M145.879,83.353c0-8.499-6.893-15.387-15.391-15.387
		c-8.505,0-15.397,6.888-15.397,15.387c0,8.494,6.893,15.382,15.397,15.382C138.986,98.734,145.879,91.847,145.879,83.353z"/>
	<path fill="#979797" d="M124.085,89.725c1.634,1.64,3.894,2.658,6.403,2.658c2.502,0,4.763-1.012,6.396-2.651
		c1.626-1.632,2.639-3.891,2.639-6.379c0-2.493-1.006-4.745-2.632-6.378c-1.634-1.639-3.901-2.658-6.403-2.658
		c-2.51,0-4.77,1.02-6.41,2.658c-1.627,1.633-2.633,3.885-2.633,6.378C121.445,85.841,122.451,88.092,124.085,89.725z
		 M130.488,67.966c8.498,0,15.391,6.888,15.391,15.387c0,8.494-6.893,15.382-15.391,15.382c-8.505,0-15.397-6.888-15.397-15.382
		C115.091,74.854,121.983,67.966,130.488,67.966z"/>
<path fill="#333333" d="M61.729,38.905c-2.923-2.914-6.947-4.712-11.394-4.726c-4.467-0.007-8.525,1.784-11.47,4.69
		c-2.963,2.935-4.804,6.998-4.816,11.49c0,0.014,0,0.027,0,0.048c0,4.477,1.819,8.534,4.755,11.469
		c2.923,2.921,6.947,4.739,11.4,4.76c0.014,0,0.021,0,0.034,0c4.467,0.006,8.52-1.777,11.463-4.691
		c2.963-2.928,4.804-6.991,4.817-11.489c0-0.013,0-0.034,0-0.048C66.52,45.91,64.693,41.839,61.729,38.905z M50.274,50.408h-0.028
		l0.021-0.021h0.008v0.007l0.014,0.014H50.274z"/>
	<rect x="112.009" y="108.061" fill="#979797"  />
	<polygon fill="#CCCBCB" points="103.787,73.069 103.787,91.585 89.389,99.823 89.381,99.823 74.983,108.061 70.771,108.061 
		29.804,108.061 25.661,108.061 25.661,93.113 25.661,73.069 26.33,73.069 32.519,73.069 68.057,73.069 74.177,73.069 	"/>
	<path fill="#CCCBCB" d="M87.341,46.261c0,2.742,0,5.483,0,8.232c-1.453,0-2.915,0-4.376,0c0.345-2.77,0.345-5.47-0.007-8.232
		C84.419,46.261,85.881,46.261,87.341,46.261z"/>
	<polygon fill="#CCCBCB" points="83.199,134.808 83.199,141 17.438,141 17.438,134.808 19.472,134.808 21.512,134.808 
		25.661,134.808 27.694,134.808 29.804,134.808 70.771,134.808 72.943,134.808 74.983,134.808 79.125,134.808 81.166,134.808 	"/>
	<path fill="#CCCBCB" d="M22.911,68.924c-2.984-4.251-4.673-8.831-5.369-14.431c-0.345-2.77-0.345-5.47,0.007-8.232
		c0.676-5.311,2.591-10.194,5.438-14.369c5.968-8.768,16.024-14.43,27.266-14.43c16.604,0,30.609,12.336,32.705,28.799
		c0.352,2.762,0.352,5.462,0.007,8.232c-0.931,7.46-3.612,13.121-8.788,18.576h-6.12c21.552-16.875,9.615-51.454-17.769-51.454
		c-27.377,0-39.321,34.579-17.77,51.454H26.33C25.034,71.706,23.903,70.336,22.911,68.924z"/>
	<path fill="#979797" d="M66.52,50.408c0-4.498-1.826-8.569-4.79-11.503c-2.923-2.914-6.947-4.712-11.394-4.726
		c-4.467-0.007-8.525,1.784-11.47,4.69c-2.963,2.935-4.804,6.998-4.816,11.49c0,0.014,0,0.027,0,0.048
		c0,4.477,1.819,8.534,4.755,11.469c2.923,2.921,6.947,4.739,11.4,4.76c0.014,0,0.021,0,0.034,0
		c4.467,0.006,8.52-1.777,11.463-4.691c2.963-2.928,4.804-6.991,4.817-11.489C66.52,50.443,66.52,50.422,66.52,50.408z
		 M72.833,48.142c1.255,12.44-7.823,23.551-20.277,24.797c-12.448,1.254-23.565-7.817-24.813-20.265
		C26.488,40.234,35.565,29.13,48.02,27.877C60.468,26.624,71.579,35.695,72.833,48.142z"/>
	<polygon fill="#979797" points="70.771,134.677 70.771,134.808 29.804,134.808 29.804,134.677 29.804,108.984 29.804,108.061 
		70.771,108.061 	"/>
	<path fill="#CCCBCB" d="M50.288,21.616c27.384,0,39.32,34.579,17.769,51.454H32.519C10.967,56.194,22.911,21.616,50.288,21.616z
		 M52.556,72.938c12.454-1.246,21.532-12.356,20.277-24.797C71.579,35.695,60.468,26.624,48.02,27.877
		C35.565,29.13,26.488,40.234,27.742,52.674C28.99,65.121,40.107,74.192,52.556,72.938z"/>

		<path fill="#333333" d="M136.892,76.975c-1.634-1.639-3.901-2.658-6.403-2.658c-2.51,0-4.77,1.02-6.41,2.658
		c-1.627,1.633-2.633,3.885-2.633,6.378c0,2.488,1.006,4.739,2.64,6.372c1.634,1.64,3.894,2.658,6.403,2.658
		c2.502,0,4.763-1.012,6.396-2.651c1.626-1.632,2.639-3.891,2.639-6.379C139.523,80.859,138.518,78.607,136.892,76.975z"/>	
		
	<path fill="#979797" d="M15.398,31.893h7.589c-2.848,4.174-4.763,9.058-5.438,14.369c-0.717,0-1.434,0-2.15,0V31.893z"/>
	<path fill="#979797" d="M22.911,68.924h-7.513V54.493c0.717,0,1.434,0,2.144,0C18.238,60.093,19.927,64.673,22.911,68.924z"/>
	<path fill="#CCCBCB" d="M15.398,46.261c0.717,0,1.434,0,2.15,0c-0.352,2.762-0.352,5.462-0.007,8.232c-0.71,0-1.427,0-2.144,0
		c-0.676,0-1.358,0-2.041,0c0-2.749,0-5.49,0-8.232C14.04,46.261,14.723,46.261,15.398,46.261z"/>

<g class="stroke">
		<polyline points="
		22.987,68.924 22.911,68.924 15.398,68.924 15.398,54.493 	"/>
	<polyline points="
		15.398,46.261 15.398,31.893 22.987,31.893 	"/>
	<polyline points="
		81.166,134.808 83.199,134.808 83.199,141 17.438,141 17.438,134.808 19.472,134.808 21.512,134.808 25.661,134.808 
		27.694,134.808 29.804,134.808 70.771,134.808 72.943,134.808 	"/>
	
		<line x1="130.488" y1="83.353" x2="130.488" y2="74.344"/>
	
		<line x1="130.488" y1="92.355" x2="130.488" y2="83.36"/>
	
		<line x1="70.771" y1="108.061" x2="70.771" y2="134.677"/>
	<polyline points="
		29.804,134.677 29.804,108.984 29.804,108.061 	"/>
	
		<line x1="130.488" y1="83.353" x2="139.523" y2="83.353"/>
	
		<line x1="121.459" y1="83.353" x2="130.481" y2="83.353"/>
	
		<line x1="130.481" y1="83.353" x2="124.078" y2="76.975"/>
	<polyline points="
		136.885,89.731 130.488,83.36 130.488,83.353 	"/>
	<polyline points="
		124.078,89.731 124.085,89.725 130.481,83.353 130.488,83.353 136.892,76.975 	"/>
	<polyline points="
		38.874,38.878 50.267,50.388 50.274,50.395 50.288,50.408 61.702,61.945 61.826,62.069 	"/>
	<polyline points="
		38.612,62.069 38.805,61.877 50.246,50.408 50.267,50.388 50.274,50.388 61.729,38.905 61.826,38.809 	"/>
	<polyline points="
		33.877,50.408 34.05,50.408 50.246,50.408 50.274,50.408 50.288,50.408 66.52,50.408 66.761,50.408 	"/>
	<polyline points="
		50.336,34.18 50.274,50.388 50.274,50.395 50.274,50.408 50.205,66.637 50.205,66.864 	"/>
	<polygon points="
		136.671,134.808 138.704,134.808 138.704,141 95.564,141 95.564,134.808 97.604,134.808 99.638,134.808 103.78,134.808 
		105.82,134.808 112.009,134.808 122.265,134.808 128.448,134.808 130.488,134.808 134.631,134.808 	"/>
	
		<line x1="79.125" y1="130.724" x2="79.125" y2="134.808"/>
	
		<line x1="74.983" y1="134.808" x2="74.983" y2="130.724"/>
	<polyline points="
		81.166,134.808 79.125,134.808 74.983,134.808 72.943,134.808 	"/>
	<polyline points="
		72.943,134.808 72.943,130.724 74.983,130.724 79.125,130.724 81.166,130.724 81.166,134.808 	"/>
	
		<line x1="21.512" y1="130.724" x2="21.512" y2="134.808"/>
	
		<line x1="25.661" y1="134.808" x2="25.661" y2="130.724"/>
	<polyline points="
		27.694,134.808 27.694,130.724 25.661,130.724 21.512,130.724 19.472,130.724 19.472,134.808 	"/>
	
		<line x1="134.631" y1="130.724" x2="134.631" y2="134.808"/>
	
		<line x1="130.488" y1="134.808" x2="130.488" y2="130.724"/>
	<polyline points="
		128.448,134.808 128.448,130.724 130.488,130.724 134.631,130.724 136.671,130.724 136.671,134.808 	"/>
	
		<line x1="99.638" y1="130.724" x2="99.638" y2="134.808"/>
	
		<line x1="103.78" y1="134.808" x2="103.78" y2="130.724"/>
	<polyline points="
		105.82,134.808 105.82,130.724 103.78,130.724 99.638,130.724 97.604,130.724 97.604,134.808 	"/>
	
		<line x1="122.265" y1="108.061" x2="122.265" y2="134.808"/>
	
		<line x1="112.009" y1="134.808" x2="112.009" y2="108.061"/>
	<polyline points="151,99.823 
		151,108.061 122.265,108.061 112.009,108.061 99.645,108.061 99.645,99.823 	"/>
	<polyline points="
		89.381,99.823 74.983,108.061 70.771,108.061 29.804,108.061 25.661,108.061 25.661,93.113 25.661,73.069 26.33,73.069 
		32.519,73.069 68.057,73.069 74.177,73.069 103.787,73.069 103.787,91.585 89.389,99.823 	"/>
	<path d="M82.965,54.493
		c0.345-2.77,0.345-5.47-0.007-8.232"/>
	<path d="M17.549,46.261
		c-0.352,2.762-0.352,5.462-0.007,8.232"/>
	<path d="M48.02,27.877
		C35.565,29.13,26.488,40.234,27.742,52.674c1.248,12.447,12.365,21.519,24.813,20.265c12.454-1.246,21.532-12.356,20.277-24.797
		C71.579,35.695,60.468,26.624,48.02,27.877z"/>
	<path d="M50.336,34.18
		c-4.467-0.007-8.525,1.784-11.47,4.69c-2.963,2.935-4.804,6.998-4.816,11.49c0,0.014,0,0.027,0,0.048
		c0,4.477,1.819,8.534,4.755,11.469c2.923,2.921,6.947,4.739,11.4,4.76c0.014,0,0.021,0,0.034,0
		c4.467,0.006,8.52-1.777,11.463-4.691c2.963-2.928,4.804-6.991,4.817-11.489c0-0.013,0-0.034,0-0.048
		c0-4.498-1.826-8.569-4.79-11.503C58.807,35.991,54.782,34.193,50.336,34.18z"/>
	<path d="M68.057,73.069
		c21.552-16.875,9.615-51.454-17.769-51.454c-27.377,0-39.321,34.579-17.77,51.454"/>
	<path d="M74.177,73.069
		c5.176-5.455,7.857-11.116,8.788-18.576c1.461,0,2.923,0,4.376,0c0-2.749,0-5.49,0-8.232c-1.46,0-2.922,0-4.383,0
		c-2.096-16.463-16.101-28.799-32.705-28.799c-11.241,0-21.298,5.662-27.266,14.43c-2.848,4.174-4.763,9.058-5.438,14.369
		c-0.717,0-1.434,0-2.15,0c-0.676,0-1.358,0-2.041,0c0,2.742,0,5.483,0,8.232c0.683,0,1.365,0,2.041,0c0.717,0,1.434,0,2.144,0
		c0.696,5.6,2.385,10.18,5.369,14.431c0.992,1.412,2.123,2.782,3.419,4.146"/>
	<path d="M137.987,99.823
		c4.335,0,8.678,0,13.013,0c0-13.728,0-27.456,0-41.177c-25.357-17.021-50.722-34.048-76.085-51.062
		C67.43,3.355,58.835,0.993,50.239,1c-8.595,0.007-17.189,2.383-24.62,6.723c-7.43,4.339-13.695,10.635-17.995,18.081
		C3.329,33.25,0.993,41.846,1,50.443c0.007,8.589,2.357,17.178,6.665,24.631c4.308,7.439,10.573,13.734,17.996,18.039"/>
	<path d="M130.488,74.316
		c-2.51,0-4.77,1.02-6.41,2.658c-1.627,1.633-2.633,3.885-2.633,6.378c0,2.488,1.006,4.739,2.64,6.372
		c1.634,1.64,3.894,2.658,6.403,2.658c2.502,0,4.763-1.012,6.396-2.651c1.626-1.632,2.639-3.891,2.639-6.379
		c0-2.493-1.006-4.745-2.632-6.378C135.258,75.336,132.99,74.316,130.488,74.316z"/>
	<path d="M130.488,67.966
		c-8.505,0-15.397,6.888-15.397,15.387c0,8.494,6.893,15.382,15.397,15.382c8.498,0,15.391-6.888,15.391-15.382
		C145.879,74.854,138.986,67.966,130.488,67.966z"/>
	<path d="M137.987,99.823
		c6.258-2.846,10.607-9.147,10.607-16.471c0-9.993-8.112-18.101-18.106-18.101c-10.008,0-18.113,8.107-18.113,18.101
		c0,7.323,4.35,13.625,10.607,16.471c2.288,1.047,4.824,1.626,7.506,1.626C133.162,101.449,135.705,100.87,137.987,99.823z"/>
	<polyline points="
		89.381,99.823 89.389,99.823 99.645,99.823 122.982,99.823 	"/>
</g>
</svg>
