<?xml version="1.0" encoding="utf-8"?>
<!-- Generator: Adobe Illustrator 19.0.0, SVG Export Plug-In . SVG Version: 6.00 Build 0)  -->
<svg version="1.1" id="图层_1" xmlns="http://www.w3.org/2000/svg" xmlns:xlink="http://www.w3.org/1999/xlink" x="0px" y="0px"
	 viewBox="-244 367.4 106.5 106.5" style="enable-background:new -244 367.4 106.5 106.5;" xml:space="preserve">
<style type="text/css">
	.st0{fill:#64B264;}
	.st1{fill:#007F00;stroke:#000000;stroke-width:0.25;}
	.st2{fill:#329932;}
</style>
<path class="st0" d="M-157.3,450.8c0,0,0-0.1-0.1-0.1l-0.4-0.7l-0.8-0.7l-0.9-0.6l-1.2-0.6l-1.5-0.4l-1.5-0.3l-1.6-0.2l-1.7-0.1
	l-13.1,2.1c-5.3,0.2-9.7,0.7-11.6,1.3c-2-0.6-6.2-1-11.7-1.1l-15.6-2.2l-2.1,0.1l-1.9,0.3l-1.8,0.3l-1.8,0.5l-1.4,0.7l-1,0.7
	l-0.9,0.8l-0.5,0.9l0,0l0,0l0,0.9l0.5,0.8l0.7,0.8l1.1,0.8l1.7,0.5l1.7,0.4l1.9,0.3l2.2,0.1l16.7-2.8c5.8-0.3,10.3-0.8,12.3-1.5
	c2,0.6,6.5,1,12,1.1l15,2.1l1.8-0.1l1.5-0.3l1.3-0.4l1.3-0.5l0.8-0.7l0.4-0.7l0.3-0.7l-0.1-0.7
	C-157.2,450.9-157.3,450.9-157.3,450.8L-157.3,450.8L-157.3,450.8z"/>
<path class="st0" d="M-176.8,438.8c-0.1,0-0.1,0-0.2,0l-1.4-0.2l-1.5-0.1l-1.5-0.1l-1.6,0l-1.4,0.3l-1.2,0.3l-1.1,0.4l-1,0.6
	l-2.3,5.9c-2.2,2.1-3.4,4-3.2,5.1c-2.1,0.5-5.2,2-8.5,4.2l-13.9,5.8l-1.1,1l-0.6,1l-0.3,1l0.1,1.1l0.8,1l1.1,0.8l1.4,0.8l1.9,0.6
	l0,0l0,0l2.2,0.4l2.2,0.1l2.1,0l2.3-0.2l2.1-0.6l1.7-0.7l1.6-0.8l1.3-1l3.1-8.4c2.4-2.5,3.5-4.6,3.2-5.7c2.1-0.5,5-2,7.7-4l9.9-4.2
	l0.5-0.7l0.1-0.7l-0.1-0.6l-0.3-0.7l-0.8-0.6l-1-0.5l-1.1-0.5l-1.2-0.4C-176.7,438.9-176.7,438.8-176.8,438.8L-176.8,438.8
	L-176.8,438.8z"/>
<path class="st0" d="M-209.2,438.5c-0.1,0-0.1,0-0.2,0.1l-1.3,0.4l-1.2,0.5l-1,0.5l-0.9,0.7l-0.2,0.7l0,0.7l0.2,0.7l0.7,0.7
	l11.5,4.4c3.2,2,6.4,3.5,8.7,4c-0.1,1.1,1.3,3,3.8,5.4l4.3,8.2l1.4,0.8l1.6,0.6l1.7,0.5l2,0.4l2.1,0l1.9-0.2l1.9-0.3l1.8-0.5l0,0h0
	l1.5-0.7l1.1-0.8l0.8-0.8l0.6-1l-0.1-1l-0.4-0.9l-0.6-0.9l-1-0.9l-12.8-4.8c-3.4-2.1-6.7-3.5-8.8-4c0.1-1.1-1.3-2.9-3.8-5l-3.2-6.1
	l-1.1-0.6l-1.3-0.4l-1.3-0.4l-1.6-0.3l-1.8-0.1l-1.6,0l-1.7,0.1l-1.5,0.2C-209,438.5-209.1,438.5-209.2,438.5L-209.2,438.5
	L-209.2,438.5z"/>
<path class="st1" d="M-197.2,442.8v-71.2h9.6v71.2l1.8,2.4l0.7,3l-0.7,3l-1.6,2.3l-2.3,1.6l-3,0.7l-2.7-0.8l-2.3-1.6l-1.6-2.3
	l-0.7-3l0.7-3L-197.2,442.8z"/>
<path class="st2" d="M-196.8,442.6v-70.1h8.8v70.1l0.9,0.9l0.4,1.1l0.4,1.3l0.3,1.3l-0.4,2.4l-1.6,2l-2,1.7l-2.4,0.4l-2.4-0.4
	l-2.1-1.6l-1.3-2l-0.4-2.4l0.3-1.3l0.4-1.3l0.4-1.1L-196.8,442.6z"/>
<path class="st0" d="M-195.7,442.3v-68.9h6.5v68.9l0.7,0.7l0.7,0.9l0.3,0.9l0.3,1.1l-0.4,1.8l-1.1,1.6l-1.6,1.1l-2,0.4l-2-0.4
	l-1.7-1.1l-0.9-1.6l-0.4-1.8l0.3-1.1l0.3-0.9l0.7-0.9L-195.7,442.3z"/>
</svg>
