<?xml version="1.0" encoding="utf-8"?>
<!-- Generator: Adobe Illustrator 15.1.0, SVG Export Plug-In . SVG Version: 6.00 Build 0)  -->
<!DOCTYPE svg PUBLIC "-//W3C//DTD SVG 1.1//EN" "http://www.w3.org/Graphics/SVG/1.1/DTD/svg11.dtd">
<svg version="1.1" id="Layer_1" xmlns="http://www.w3.org/2000/svg" preserveAspectRatio="none"  xmlns:xlink="http://www.w3.org/1999/xlink" x="0px" y="0px"
	   viewBox="0 0 101 101" xmlns:agg="http://www.example.com" xml:space="preserve">
	 
<agg:params>
	<agg:param type="C" name="color" description="Color" cssAttributes="fill" classes="color"/>
	<agg:param type="F" name="saturation" description="Saturation" min="0" max="1" cssAttributes="opacity" classes="color"/>
</agg:params>

<style type="text/css" >
   <![CDATA[

	.stroke{
		stroke-width:0.3;
		stroke-linecap:round;
		stroke-linejoin:round;
		stroke: black;
		fill:none;
	}
	
	.color {
		fill:#3664BF;
		opacity:0.2;
	}

      ]]>
</style>
	 
<defs>
	<path id="saw" d="
		M100.796,55.267l-2.012-3.872c0.002-0.167,0.013-0.331,0.013-0.498c0-0.571-0.023-1.137-0.043-1.704L101,50.898l-2.354-3.624
		c-0.055-0.728-0.124-1.451-0.21-2.169l2.36,1.423l-2.618-3.299c-0.128-0.795-0.276-1.583-0.442-2.365l2.489,1.541l-2.945-3.511
		c-0.166-0.643-0.351-1.278-0.542-1.911l2.466,1.052l-3.183-3.222c-0.221-0.621-0.459-1.234-0.706-1.844l2.705,0.901l-3.518-2.791
		c-0.286-0.628-0.584-1.249-0.896-1.862l2.658,0.691l-3.666-2.569c-0.337-0.595-0.684-1.183-1.045-1.762l2.71,0.371l-3.717-1.931
		c-0.463-0.681-0.945-1.348-1.442-2.004l2.791,0.382l-3.89-1.782c-0.504-0.616-1.021-1.221-1.554-1.812h2.872l-4.231-1.436
		c-0.507-0.517-1.027-1.021-1.558-1.516l2.808-0.192l-4.199-1.05c-0.557-0.479-1.125-0.946-1.703-1.4l2.758-0.53l-4.367-0.68
		c-0.583-0.419-1.175-0.827-1.777-1.22l2.55-0.673l-4.198-0.362c-0.659-0.394-1.329-0.771-2.008-1.134l2.653-0.873h-4.357
		c-0.685-0.331-1.38-0.645-2.083-0.943l2.479-1.058l-4.227,0.364c-0.702-0.266-1.411-0.514-2.127-0.748l2.395-1.373l-4.116,0.852
		c-0.799-0.227-1.606-0.434-2.422-0.62l2.374-1.62l-3.865,1.3c-0.831-0.162-1.669-0.3-2.515-0.418l2.011-1.698l-3.733,1.479
		c-0.824-0.085-1.653-0.15-2.489-0.193l1.894-1.858l-3.66,1.813C51.371,3.014,51.136,3,50.898,3c-0.567,0-1.128,0.023-1.69,0.042
		L50.898,1l-3.462,2.138c-0.8,0.057-1.595,0.134-2.384,0.229l1.477-2.163l-2.968,2.355c-0.868,0.133-1.727,0.295-2.579,0.474
		L42.2,1.776l-3.014,2.672c-0.772,0.194-1.538,0.407-2.295,0.638l1.144-2.289L35.127,5.67c-0.701,0.244-1.394,0.505-2.08,0.781
		l0.823-2.47l-2.539,3.2c-0.693,0.311-1.377,0.637-2.052,0.979l0.631-2.423l-2.331,3.324c-0.735,0.411-1.456,0.841-2.167,1.289
		l0.537-2.612l-2.042,3.592c-0.642,0.438-1.272,0.893-1.892,1.362l0.177-2.586l-1.487,3.615c-0.648,0.527-1.284,1.067-1.903,1.626
		v-2.669l-1.334,3.931c-0.557,0.543-1.1,1.099-1.63,1.668l-0.179-2.618l-0.979,3.914c-0.516,0.596-1.017,1.204-1.503,1.825
		l-0.5-2.594l-0.639,4.107c-0.49,0.679-0.962,1.373-1.417,2.078l-0.721-2.592L9.728,26.42c-0.403,0.676-0.789,1.363-1.159,2.06
		l-0.832-2.53v4.155c-0.351,0.727-0.683,1.464-0.997,2.21L5.573,29.91l0.496,4.108c-0.27,0.716-0.522,1.44-0.758,2.172l-1.33-2.319
		l0.828,4c-0.231,0.82-0.442,1.649-0.63,2.488l-1.585-2.322l1.214,4.143c-0.135,0.732-0.254,1.468-0.354,2.211l-1.677-1.985
		l1.464,3.694c-0.083,0.834-0.143,1.676-0.182,2.523l-1.854-1.889l1.809,3.651C3.011,50.557,3,50.726,3,50.898
		c0,0.637,0.023,1.268,0.048,1.899L1,51.102l2.156,3.491c0.065,0.846,0.151,1.685,0.259,2.517l-2.21-1.638l2.455,3.322
		c0.125,0.757,0.268,1.509,0.429,2.254L1.775,59.8l2.738,3.089c0.207,0.801,0.436,1.593,0.682,2.377l-2.603-1.301l3.193,3.047
		c0.238,0.665,0.492,1.321,0.758,1.972L3.98,68.13l3.345,2.654c0.313,0.686,0.642,1.362,0.986,2.029L5.573,72.09L9.27,74.58
		c0.394,0.691,0.804,1.371,1.231,2.039l-2.764-0.567l3.838,2.183c0.417,0.598,0.844,1.186,1.287,1.763l-2.756-0.189l3.857,1.586
		c0.508,0.614,1.033,1.215,1.57,1.803h-2.855l4.22,1.431c0.515,0.519,1.042,1.024,1.58,1.52l-2.818,0.193l4.245,1.061
		c0.545,0.463,1.101,0.913,1.666,1.352l-2.767,0.569l4.53,0.735c0.615,0.435,1.241,0.854,1.878,1.259l-2.814,0.782l4.408,0.19
		c0.63,0.368,1.27,0.722,1.918,1.062l-2.773,0.912h4.603c0.657,0.309,1.321,0.605,1.995,0.885l-2.636,1.28l4.503-0.543
		c0.62,0.227,1.249,0.435,1.88,0.637L33.87,98.02l4.416-0.914c0.758,0.207,1.523,0.395,2.295,0.564l-2.546,1.738l4.575-1.341
		c0.604,0.105,1.21,0.2,1.822,0.283l-2.027,1.875l3.968-1.647c0.749,0.07,1.502,0.126,2.261,0.162l-1.902,2.057l3.864-2.008
		c0.101,0.001,0.2,0.008,0.302,0.008c0.642,0,1.277-0.023,1.913-0.048L51.103,101l3.653-2.372c0.76-0.061,1.514-0.139,2.264-0.234
		l0.004,0.035l-1.553,2.368l3.685-2.724c0.676-0.117,1.349-0.246,2.015-0.392l-1.575,2.544l3.618-3.034
		c0.648-0.172,1.293-0.35,1.93-0.548l-1.179,2.765l3.333-3.494c0.595-0.217,1.18-0.453,1.764-0.692L68.13,98.02l2.905-3.662
		c0.614-0.285,1.219-0.584,1.819-0.894l0.012,0.024l-0.776,2.939l2.713-4.029c0.553-0.319,1.1-0.648,1.638-0.989l-0.391,2.854
		l2.051-3.947c0.648-0.448,1.284-0.912,1.908-1.391l-0.407,2.971l1.904-4.159c0.562-0.467,1.113-0.944,1.652-1.436l0.038,0.041v2.981
		l1.534-4.521c0.475-0.474,0.936-0.961,1.391-1.455l0.015,0.014l0.204,2.98l1.133-4.531c0.426-0.504,0.84-1.019,1.246-1.54
		l0.602,2.927l0.775-4.778l-0.005-0.004c0.367-0.522,0.723-1.052,1.07-1.589l0.732,2.777l0.398-4.617
		c0.352-0.604,0.692-1.214,1.018-1.833l0.952,2.897v-4.806c0.292-0.62,0.574-1.245,0.839-1.878l1.162,2.723l-0.401-4.653
		c0.218-0.594,0.417-1.196,0.613-1.801l1.544,2.493l-0.938-4.531c0.2-0.73,0.383-1.467,0.549-2.21l0.021,0.004l1.757,2.572
		l-1.433-4.261c0.133-0.715,0.251-1.435,0.353-2.161l1.897,2.052l-1.66-3.999c0.072-0.74,0.132-1.484,0.17-2.234L100.796,55.267z"/>
</defs>

<use xlink:href="#saw" fill="#E5E5E5"/>
<use xlink:href="#saw" class="color"/>

<path opacity="0.03" d="M45.232,94.471c1.854,0.239,3.746,0.363,5.666,0.363
	c24.266,0,43.937-19.67,43.937-43.936c0-1.92-0.124-3.811-0.363-5.666l-43.573,5.666L45.232,94.471z"/>
<path opacity="0.03" d="M50.898,6.962c-24.266,0-43.938,19.671-43.938,43.936
	c0,1.996,0.136,3.959,0.394,5.884l43.544-5.884l5.884-43.542C54.857,7.098,52.894,6.962,50.898,6.962z"/>
<path opacity="0.03" d="M10.257,34.18l40.642,16.718L34.18,10.258
	C23.361,14.713,14.713,23.361,10.257,34.18z"/>
<path opacity="0.03" d="M91.471,67.784L50.898,50.898L67.783,91.47
	C78.469,87.018,87.019,78.469,91.471,67.784z"/>
<path opacity="0.03" d="M16.105,24.068l34.793,26.83L24.192,16.011
	C21.16,18.335,18.44,21.045,16.105,24.068z"/>
<path opacity="0.03" d="M85.763,77.633L50.898,50.898l26.734,34.865
	C80.685,83.419,83.42,80.685,85.763,77.633z"/>
<circle fill="#757575" cx="50.898" cy="50.898" r="2.959"/>

<use xlink:href="#saw" class="stroke"/>

</svg>
