<?xml version="1.0" encoding="utf-8"?>
<!-- Generator: Adobe Illustrator 19.0.0, SVG Export Plug-In . SVG Version: 6.00 Build 0)  -->
<svg version="1.1" id="图层_1" xmlns="http://www.w3.org/2000/svg" xmlns:xlink="http://www.w3.org/1999/xlink" x="0px" y="0px"
	 viewBox="-21 1.2 64.5 106.5" style="enable-background:new -21 1.2 64.5 106.5;" xml:space="preserve">
<style type="text/css">
	.st0{fill:url(#SVGID_1_);stroke:#000000;stroke-width:0.25;}
	.st1{fill:url(#SVGID_2_);stroke:#000000;stroke-width:0.25;}
	.st2{fill:url(#SVGID_3_);stroke:#000000;stroke-width:0.25;}
	.st3{fill:#004C00;stroke:#000000;stroke-width:0.25;}
	.st4{fill:#CAE4CA;}
	.st5{fill:#005500;stroke:#000000;stroke-width:0.25;}
	.st6{fill:#003300;stroke:#000000;stroke-width:0.25;}
	.st7{fill:#64B264;stroke:#000000;stroke-width:0.25;}
	.st8{fill:#329932;stroke:#000000;stroke-width:0.25;}
	.st9{fill:#98CB98;stroke:#000000;stroke-width:0.25;}
	.st10{fill:#006600;stroke:#000000;stroke-width:0.25;}
	.st11{fill:url(#SVGID_4_);stroke:#000000;stroke-width:0.25;}
	.st12{fill:url(#SVGID_5_);stroke:#000000;stroke-width:0.25;}
</style>
<linearGradient id="SVGID_1_" gradientUnits="userSpaceOnUse" x1="-15.6" y1="3.89" x2="-15.6" y2="42.79" gradientTransform="matrix(1 0 0 -1 0 110.16)">
	<stop  offset="0" style="stop-color:#007F00"/>
	<stop  offset="0.5" style="stop-color:#FFFFFF"/>
	<stop  offset="1" style="stop-color:#007F00"/>
</linearGradient>
<path class="st0" d="M-20.5,67.4v38.9h9.8V67.4H-20.5z"/>
<linearGradient id="SVGID_2_" gradientUnits="userSpaceOnUse" x1="8.8" y1="13.52" x2="8.8" y2="33.02" gradientTransform="matrix(1 0 0 -1 0 110.16)">
	<stop  offset="0" style="stop-color:#007F00"/>
	<stop  offset="0.5" style="stop-color:#FFFFFF"/>
	<stop  offset="1" style="stop-color:#007F00"/>
</linearGradient>
<path class="st1" d="M28.3,77.2h-39v19.5h39V77.2z"/>
<linearGradient id="SVGID_3_" gradientUnits="userSpaceOnUse" x1="33.1" y1="3.89" x2="33.1" y2="42.79" gradientTransform="matrix(1 0 0 -1 0 110.16)">
	<stop  offset="0" style="stop-color:#007F00"/>
	<stop  offset="0.5" style="stop-color:#FFFFFF"/>
	<stop  offset="1" style="stop-color:#007F00"/>
</linearGradient>
<path class="st2" d="M28.3,67.4v38.9h9.6V67.4H28.3z"/>
<path class="st3" d="M20.8,21.8l7.5-1.3V7.1l-7.5-1.2V21.8z"/>
<path class="st3" d="M-3.5,5.9l-7.2,1.2v13.4l7.2,1.3C-3.5,21.8-3.5,5.9-3.5,5.9z"/>
<path class="st4" d="M-3.5,11.3h-7V9.5l7-0.6C-3.5,8.9-3.5,11.3-3.5,11.3z"/>
<path class="st4" d="M20.8,11.3h7V9.5l-7-0.6V11.3z"/>
<path class="st5" d="M20.8,5.9H-3.5v42h24.3V5.9z"/>
<circle class="st5" cx="8.7" cy="25.3" r="19.4"/>
<circle class="st3" cx="8.7" cy="25.3" r="13.3"/>
<path class="st3" d="M5,77.9l0.1,0.2l0.2,0.2l0.3,0.2L6,78.6l0.5,0.2l0.6,0.1L7.7,79h0.7h0.9l0.6-0.1l0.6-0.1l0.6-0.2l0.4-0.1
	l0.3-0.2l0.2-0.2l0.1-0.2v-30H5V77.9z"/>
<path class="st3" d="M6.1,44.7l-1.6-0.3l-1.6-0.3l-1.5-0.5L-0.1,43l-1.4-0.9l-1.3-0.9l-1.3-1l-1.1-1.1l-1.2-1.2l-1-1.3l-0.9-1.3
	L-9,33.9l-0.6-1.5l-0.5-1.6l-0.4-1.5l-0.3-1.7h3.3l0.3,1.3l0.3,1.3l0.4,1.3l0.5,1.2l0.6,1.2l0.6,1.1l0.9,1.1l0.9,1l1,0.9l1,0.7
	l1.2,0.7L1.3,40l1.2,0.5L3.7,41L5,41.3l1.3,0.2v3.2H6.1z"/>
<path class="st3" d="M-10.7,23l0.3-1.6l0.4-1.6l0.5-1.5l0.6-1.5l0.7-1.5l0.9-1.3l1-1.3l1.2-1.2l1.1-1.1l1.3-1l1.3-0.7L0,8l1.5-0.6
	L3,6.9l1.5-0.6l1.6-0.2l0.2,3L5.1,9.3L3.8,9.7l-1.3,0.5l-1.2,0.5l-1.1,0.6L-0.9,12L-2,12.7l-1,1l-0.9,1l-0.6,1.1l-0.7,1L-5.8,18
	l-0.5,1.2l-0.4,1.3l-0.5,1.2L-7.5,23H-10.7z"/>
<path class="st3" d="M11.3,6.1l1.6,0.2l1.6,0.5L16,7.3l1.5,0.6l1.3,0.8l1.3,0.9l1.3,1l1.2,1.1l1.1,1.2l1,1.3l0.9,1.3l0.7,1.5
	l0.6,1.5l0.5,1.5l0.4,1.6l0.3,1.6h-3.2l-0.2-1.5l-0.4-1.3l-0.4-1.3l-0.5-1.2l-0.6-1.2l-0.6-1l-0.9-1.1l-0.9-1l-1-1l-1-0.7l-1.1-0.7
	l-1.1-0.5L15,10.2l-1.2-0.5l-1.3-0.4l-1.3-0.2v-3C11.2,6.1,11.3,6.1,11.3,6.1z"/>
<path class="st3" d="M28.1,27.8l-0.2,1.7L27.5,31L27,32.6l-0.6,1.5l-0.9,1.3l-0.8,1.3L23.6,38l-1.1,1.2l-1.2,1.1l-1.2,1l-1.4,0.9
	l-1.4,0.9l-1.5,0.6l-1.3,0.4l-1.6,0.3l-1.6,0.3v-3.1l1.3-0.2l1.3-0.3l1.2-0.5l1.2-0.5l1.2-0.6l1.1-0.7l1-0.7l1-0.9l0.9-1l0.9-1.1
	L23,34l0.6-1.2l0.5-1.2l0.4-1.3l0.4-1.3l0.2-1.3L28.1,27.8L28.1,27.8z"/>
<path class="st6" d="M17.7,21.4H0v8h17.7C17.7,29.4,17.7,21.4,17.7,21.4z"/>
<path class="st7" d="M16.6,22.3H0.8v6.1h15.8V22.3z"/>
<circle class="st7" cx="8.8" cy="43" r="1"/>
<circle class="st7" cx="-9" cy="25.2" r="0.9"/>
<circle class="st7" cx="8.8" cy="7.3" r="0.9"/>
<circle class="st7" cx="26.6" cy="25.2" r="1"/>
<path class="st8" d="M14.2,50.3h-11v12.3h11.1L14.2,50.3L14.2,50.3z"/>
<path class="st8" d="M14.2,67.4h-11v3.5h11.1L14.2,67.4L14.2,67.4z"/>
<path class="st9" d="M10.6,50.3H5v12.3h5.7L10.6,50.3L10.6,50.3z"/>
<path class="st9" d="M10.6,67.4H5v3.5h5.7L10.6,67.4L10.6,67.4z"/>
<path class="st10" d="M13.6,50.3H3.8v-0.6h9.8C13.6,49.7,13.6,50.3,13.6,50.3z"/>
<path class="st7" d="M18.4,94.7l0.6-8.4H-1.6l0.6,8.4H18.4z"/>
<linearGradient id="SVGID_4_" gradientUnits="userSpaceOnUse" x1="3.2" y1="37.09" x2="14.3" y2="37.09" gradientTransform="matrix(1 0 0 -1 0 110.16)">
	<stop  offset="0" style="stop-color:#007F00"/>
	<stop  offset="0.5" style="stop-color:#FFFFFF"/>
	<stop  offset="1" style="stop-color:#007F00"/>
</linearGradient>
<path class="st11" d="M3.2,72.2V74h11.1v-1.8H3.2z"/>
<linearGradient id="SVGID_5_" gradientUnits="userSpaceOnUse" x1="3.2" y1="44.99" x2="14.3" y2="44.99" gradientTransform="matrix(1 0 0 -1 0 110.16)">
	<stop  offset="0" style="stop-color:#007F00"/>
	<stop  offset="0.5" style="stop-color:#FFFFFF"/>
	<stop  offset="1" style="stop-color:#007F00"/>
</linearGradient>
<path class="st12" d="M3.2,64.3v1.8h11.1v-1.8H3.2z"/>
</svg>
