<?xml version="1.0" encoding="utf-8"?>
<!-- Generator: Adobe Illustrator 19.0.0, SVG Export Plug-In . SVG Version: 6.00 Build 0)  -->
<svg version="1.1" id="图层_1" xmlns="http://www.w3.org/2000/svg" xmlns:xlink="http://www.w3.org/1999/xlink" x="0px" y="0px"
	 viewBox="-13 1.2 80.6 106.5" style="enable-background:new -13 1.2 80.6 106.5;" xml:space="preserve">
<style type="text/css">
	.st0{fill:#002200;stroke:#000000;stroke-width:0.25;stroke-linejoin:round;}
	.st1{fill:#42A142;stroke:#000000;stroke-width:0.25;stroke-linejoin:round;}
	.st2{fill:#108810;}
	.st3{fill:#006E00;}
	.st4{fill:#005500;}
	.st5{fill:#003B00;}
</style>
<path class="st0" d="M57.6,105.3V7.9h-3.2v97.4C54.4,105.3,57.6,105.3,57.6,105.3z"/>
<path class="st0" d="M-0.5,105.3V7.9h3.2v97.4C2.7,105.3-0.5,105.3-0.5,105.3z"/>
<path class="st1" d="M65.9,5.9v20.8L41,105.4H16.1L-8.7,26.7V5.9H65.9z"/>
<path class="st2" d="M64.8,26.7L40.9,105H16.1L-7.8,26.7H64.8z"/>
<path class="st3" d="M57.6,50.4L41,104.9H16.1L-0.5,50.4H57.6z"/>
<path class="st4" d="M50.3,74.3l-9.4,30.6H16.1L6.7,74.3H50.3z"/>
<path class="st5" d="M42,100.2l-1.1,4.7H16.1l-1.1-4.7H42z"/>
<path class="st5" d="M60.7,105.3V4.9h1.1v100.4C61.8,105.3,60.7,105.3,60.7,105.3z"/>
<path class="st5" d="M-3.6,105.3V4.9h-1.1v100.4C-4.7,105.3-3.6,105.3-3.6,105.3z"/>
<path class="st1" d="M61.8,24.5H-4.7v4.2h66.4L61.8,24.5L61.8,24.5z"/>
<path class="st5" d="M61.8,29.7H-4.7v-1h66.4L61.8,29.7L61.8,29.7z"/>
<path class="st1" d="M61.8,48.3H-4.7v4.2h66.4L61.8,48.3L61.8,48.3z"/>
<path class="st1" d="M61.8,72.2H-4.7v4.2h66.4L61.8,72.2L61.8,72.2z"/>
<path class="st1" d="M61.8,96.1H-4.7v4.2h66.4L61.8,96.1L61.8,96.1z"/>
<path class="st5" d="M61.8,53.5H-4.7v-1.1h66.4L61.8,53.5L61.8,53.5z"/>
<path class="st5" d="M61.8,77.4H-4.7v-1.1h66.4L61.8,77.4L61.8,77.4z"/>
<path class="st5" d="M61.8,101.3H-4.7v-1.1h66.4L61.8,101.3L61.8,101.3z"/>
<path class="st1" d="M65.9,105.3V4.9h-4.2v100.4C61.7,105.3,65.9,105.3,65.9,105.3z"/>
<path class="st1" d="M-8.7,105.3V4.9h4v100.4C-4.7,105.3-8.7,105.3-8.7,105.3z"/>
</svg>
