<?xml version="1.0" encoding="utf-8"?>
<!-- Generator: Adobe Illustrator 21.0.0, SVG Export Plug-In . SVG Version: 6.00 Build 0)  -->
<svg version="1.1" id="图层_1" xmlns:agg="http://www.example.com"
	 xmlns="http://www.w3.org/2000/svg" xmlns:xlink="http://www.w3.org/1999/xlink" x="0px" y="0px" viewBox="0 0 91 102"
	 style="enable-background:new 0 0 91 102;" xml:space="preserve">
<style type="text/css">
	.st0{fill:url(#SVGID_1_);}
	.st1{fill:url(#SVGID_2_);}
	.st2{fill:url(#SVGID_3_);}
	.st3{fill:url(#SVGID_4_);}
	.st4{fill:url(#SVGID_5_);}
	.st5{fill:url(#SVGID_6_);}
	.st6{fill:url(#SVGID_7_);}
	.st7{fill:url(#SVGID_8_);}
	.st8{fill:url(#SVGID_9_);}
	.st9{fill:url(#SVGID_10_);}
	.st10{fill:url(#SVGID_11_);}
	.st11{fill:url(#SVGID_12_);}
	.st12{fill:url(#SVGID_13_);}
	.st13{fill:url(#SVGID_14_);}
	.st14{fill:url(#SVGID_15_);}
	.st15{fill:url(#SVGID_16_);}
	.st16{fill:url(#SVGID_17_);}
	.st17{fill:url(#SVGID_18_);}
	.st18{opacity:0.5;}
	.st19{fill:url(#SVGID_19_);}
	.st20{fill:url(#SVGID_20_);}
	.st21{opacity:0.2;}
	.st22{fill:#3664BF;}
	.st23{fill:none;stroke:#000000;stroke-width:0.5;stroke-linejoin:round;}
	.st24{fill:#606060;}
</style>
<agg:params>
	<agg:param  classes="color" cssAttributes="fill" description="Color" name="color" type="C"></agg:param>
	<agg:param  classes="color" cssAttributes="opacity" description="Saturation" max="1" min="0" name="saturation" type="F">
		</agg:param>
</agg:params>
<linearGradient id="SVGID_1_" gradientUnits="userSpaceOnUse" x1="10.998" y1="65.886" x2="80.999" y2="65.886" gradientTransform="matrix(1 0 0 -1 0 101.89)">
	<stop  offset="0" style="stop-color:#4C5B75"/>
	<stop  offset="3.230000e-02" style="stop-color:#616F86"/>
	<stop  offset="9.800000e-02" style="stop-color:#8E99AA"/>
	<stop  offset="0.1641" style="stop-color:#B4BCC7"/>
	<stop  offset="0.2298" style="stop-color:#D1D7DE"/>
	<stop  offset="0.2946" style="stop-color:#E5EAEF"/>
	<stop  offset="0.3584" style="stop-color:#F2F6F9"/>
	<stop  offset="0.42" style="stop-color:#F6FAFC"/>
	<stop  offset="0.4744" style="stop-color:#F2F6F8"/>
	<stop  offset="0.5308" style="stop-color:#E6E9EC"/>
	<stop  offset="0.5882" style="stop-color:#D3D5D7"/>
	<stop  offset="0.6461" style="stop-color:#B7B8BB"/>
	<stop  offset="0.704" style="stop-color:#949396"/>
	<stop  offset="0.72" style="stop-color:#89878B"/>
	<stop  offset="1" style="stop-color:#F6FAFC"/>
</linearGradient>
<path class="st0" d="M81,31c0,3.3,0,6.7,0,10c-1.7,0-68.3,0-70,0c0-3.3,0-6.7,0-10C12.7,31,79.3,31,81,31z"/>
<linearGradient id="SVGID_2_" gradientUnits="userSpaceOnUse" x1="15.9869" y1="33.5505" x2="75.998" y2="33.5505" gradientTransform="matrix(1 0 0 -1 0 101.89)">
	<stop  offset="0" style="stop-color:#4C5B75"/>
	<stop  offset="3.230000e-02" style="stop-color:#616F86"/>
	<stop  offset="9.800000e-02" style="stop-color:#8E99AA"/>
	<stop  offset="0.1641" style="stop-color:#B4BCC7"/>
	<stop  offset="0.2298" style="stop-color:#D1D7DE"/>
	<stop  offset="0.2946" style="stop-color:#E5EAEF"/>
	<stop  offset="0.3584" style="stop-color:#F2F6F9"/>
	<stop  offset="0.42" style="stop-color:#F6FAFC"/>
	<stop  offset="0.4744" style="stop-color:#F2F6F8"/>
	<stop  offset="0.5308" style="stop-color:#E6E9EC"/>
	<stop  offset="0.5882" style="stop-color:#D3D5D7"/>
	<stop  offset="0.6461" style="stop-color:#B7B8BB"/>
	<stop  offset="0.704" style="stop-color:#949396"/>
	<stop  offset="0.72" style="stop-color:#89878B"/>
	<stop  offset="1" style="stop-color:#F6FAFC"/>
</linearGradient>
<path class="st1" d="M75,76c0,1.8,0.3,3.4,1,5c0,0.2,0,0.4,0,0.6c0,0.2,0,0.4-0.1,0.6c-0.1,0.4-0.2,0.8-0.3,1.2
	c-0.3,0.8-0.6,1.6-1.1,2.3c-2.7,0.3-5,1-7.2,2.5c-2.3,1.5-3.9,3.3-5.3,5.6c-0.4,0.1-0.8,0.2-1.1,0.3s-0.8,0.2-1.2,0.3
	c-0.8,0.2-1.6,0.4-2.4,0.6c-1.7,0.3-3.4,0.6-5.1,0.8c0-1.7,0-3.4,0-5.1c0-0.3-0.1-0.5-0.1-0.8c-0.1-0.3-0.2-0.6-0.4-0.9
	c-0.2-0.3-0.4-0.6-0.7-0.9c-0.3-0.3-0.6-0.6-0.9-0.8c-0.3-0.3-0.7-0.5-1.1-0.7c-0.3-0.2-0.7-0.3-1-0.5c-0.6-0.2-1.3-0.4-2-0.4
	c-0.7,0-1.4,0.2-2,0.4c-0.8,0.3-1.5,0.7-2.1,1.2c-0.3,0.2-0.6,0.5-0.9,0.8c-0.3,0.3-0.5,0.6-0.7,0.9c-0.2,0.3-0.3,0.5-0.4,0.8
	c-0.1,0.3-0.1,0.5-0.1,0.8c0,1.7,0,3.4,0,5.1c-3.3-0.4-6.6-1-9.8-2c-1.4-2.3-3-4.1-5.3-5.6c-2.3-1.4-4.6-2.2-7.2-2.5
	C15.7,83,16,81.3,16,78.4c0-2.5,0-17.5,0-22.4c0.8-1.6,1.2-3.2,1.2-5c0-1.8-0.4-3.4-1.2-5c0-1.7,0-3.3,0-5h60c0,10,0,20,0,30
	c0,0,0,0,0,0c-0.1,0.2-0.2,0.5-0.2,0.6c-0.1,0.2-0.1,0.4-0.2,0.6c-0.1,0.4-0.2,0.8-0.3,1.2C75.1,74.3,75,75.1,75,76z"/>
<linearGradient id="SVGID_3_" gradientUnits="userSpaceOnUse" x1="17.462" y1="8.5745" x2="29.961" y2="8.5745" gradientTransform="matrix(1 0 0 -1 0 101.89)">
	<stop  offset="0" style="stop-color:#4C5B75"/>
	<stop  offset="3.230000e-02" style="stop-color:#616F86"/>
	<stop  offset="9.800000e-02" style="stop-color:#8E99AA"/>
	<stop  offset="0.1641" style="stop-color:#B4BCC7"/>
	<stop  offset="0.2298" style="stop-color:#D1D7DE"/>
	<stop  offset="0.2946" style="stop-color:#E5EAEF"/>
	<stop  offset="0.3584" style="stop-color:#F2F6F9"/>
	<stop  offset="0.42" style="stop-color:#F6FAFC"/>
	<stop  offset="0.4744" style="stop-color:#F2F6F8"/>
	<stop  offset="0.5308" style="stop-color:#E6E9EC"/>
	<stop  offset="0.5882" style="stop-color:#D3D5D7"/>
	<stop  offset="0.6461" style="stop-color:#B7B8BB"/>
	<stop  offset="0.704" style="stop-color:#949396"/>
	<stop  offset="0.72" style="stop-color:#89878B"/>
	<stop  offset="1" style="stop-color:#F6FAFC"/>
</linearGradient>
<path class="st2" d="M30,93.7c0,2.4,0,4.9,0,7.3c-2.1,0-10.4,0-12.5,0c0-5.1,0-10.2,0-15.4c2.6,0.3,5,1,7.2,2.5
	C27,89.6,28.6,91.4,30,93.7z"/>
<linearGradient id="SVGID_4_" gradientUnits="userSpaceOnUse" x1="39.748" y1="8.5746" x2="52.247" y2="8.5746" gradientTransform="matrix(1 0 0 -1 0 101.89)">
	<stop  offset="0" style="stop-color:#4C5B75"/>
	<stop  offset="3.230000e-02" style="stop-color:#616F86"/>
	<stop  offset="9.800000e-02" style="stop-color:#8E99AA"/>
	<stop  offset="0.1641" style="stop-color:#B4BCC7"/>
	<stop  offset="0.2298" style="stop-color:#D1D7DE"/>
	<stop  offset="0.2946" style="stop-color:#E5EAEF"/>
	<stop  offset="0.3584" style="stop-color:#F2F6F9"/>
	<stop  offset="0.42" style="stop-color:#F6FAFC"/>
	<stop  offset="0.4744" style="stop-color:#F2F6F8"/>
	<stop  offset="0.5308" style="stop-color:#E6E9EC"/>
	<stop  offset="0.5882" style="stop-color:#D3D5D7"/>
	<stop  offset="0.6461" style="stop-color:#B7B8BB"/>
	<stop  offset="0.704" style="stop-color:#949396"/>
	<stop  offset="0.72" style="stop-color:#89878B"/>
	<stop  offset="1" style="stop-color:#F6FAFC"/>
</linearGradient>
<path class="st3" d="M52.2,95.7c0,1.8,0,3.6,0,5.3c-4.2,0-8.3,0-12.5,0c0-1.8,0-3.6,0-5.3c0-1.7,0-3.4,0-5.1c0-0.3,0.1-0.6,0.1-0.8
	c0.1-0.3,0.2-0.5,0.4-0.8c0.2-0.3,0.4-0.6,0.7-0.9c0.3-0.3,0.6-0.5,0.9-0.8c0.6-0.5,1.3-0.9,2.1-1.2c0.6-0.3,1.3-0.4,2-0.4
	c0.7,0,1.4,0.1,2,0.4c0.4,0.1,0.7,0.3,1,0.5c0.4,0.2,0.7,0.4,1.1,0.7c0.3,0.3,0.6,0.5,0.9,0.8c0.3,0.3,0.5,0.6,0.7,0.9
	c0.2,0.3,0.3,0.6,0.4,0.9c0.1,0.2,0.1,0.5,0.1,0.8C52.2,92.3,52.2,94,52.2,95.7z"/>
<linearGradient id="SVGID_5_" gradientUnits="userSpaceOnUse" x1="62.034" y1="8.5745" x2="74.533" y2="8.5745" gradientTransform="matrix(1 0 0 -1 0 101.89)">
	<stop  offset="0" style="stop-color:#4C5B75"/>
	<stop  offset="3.230000e-02" style="stop-color:#616F86"/>
	<stop  offset="9.800000e-02" style="stop-color:#8E99AA"/>
	<stop  offset="0.1641" style="stop-color:#B4BCC7"/>
	<stop  offset="0.2298" style="stop-color:#D1D7DE"/>
	<stop  offset="0.2946" style="stop-color:#E5EAEF"/>
	<stop  offset="0.3584" style="stop-color:#F2F6F9"/>
	<stop  offset="0.42" style="stop-color:#F6FAFC"/>
	<stop  offset="0.4744" style="stop-color:#F2F6F8"/>
	<stop  offset="0.5308" style="stop-color:#E6E9EC"/>
	<stop  offset="0.5882" style="stop-color:#D3D5D7"/>
	<stop  offset="0.6461" style="stop-color:#B7B8BB"/>
	<stop  offset="0.704" style="stop-color:#949396"/>
	<stop  offset="0.72" style="stop-color:#89878B"/>
	<stop  offset="1" style="stop-color:#F6FAFC"/>
</linearGradient>
<path class="st4" d="M74.5,85.6c0,5.1,0,10.2,0,15.4c-4.2,0-8.3,0-12.5,0c0-2.4,0-4.9,0-7.3c1.4-2.3,3-4.1,5.3-5.6
	C69.6,86.7,71.9,85.9,74.5,85.6z"/>
<linearGradient id="SVGID_6_" gradientUnits="userSpaceOnUse" x1="87.499" y1="33.5936" x2="87.499" y2="18.11" gradientTransform="matrix(1 0 0 -1 0 101.89)">
	<stop  offset="0" style="stop-color:#4C5B75"/>
	<stop  offset="3.230000e-02" style="stop-color:#616F86"/>
	<stop  offset="9.800000e-02" style="stop-color:#8E99AA"/>
	<stop  offset="0.1641" style="stop-color:#B4BCC7"/>
	<stop  offset="0.2298" style="stop-color:#D1D7DE"/>
	<stop  offset="0.2946" style="stop-color:#E5EAEF"/>
	<stop  offset="0.3584" style="stop-color:#F2F6F9"/>
	<stop  offset="0.42" style="stop-color:#F6FAFC"/>
	<stop  offset="0.4744" style="stop-color:#F2F6F8"/>
	<stop  offset="0.5308" style="stop-color:#E6E9EC"/>
	<stop  offset="0.5882" style="stop-color:#D3D5D7"/>
	<stop  offset="0.6461" style="stop-color:#B7B8BB"/>
	<stop  offset="0.704" style="stop-color:#949396"/>
	<stop  offset="0.72" style="stop-color:#89878B"/>
	<stop  offset="1" style="stop-color:#F6FAFC"/>
</linearGradient>
<path class="st5" d="M90,68.5c0,5,0,10,0,15c-1.7,0-3.3,0-5,0c0-0.8,0-14.2,0-15C86.7,68.5,88.3,68.5,90,68.5z"/>
<linearGradient id="SVGID_7_" gradientUnits="userSpaceOnUse" x1="79.998" y1="30.9413" x2="79.998" y2="20.9992" gradientTransform="matrix(1 0 0 -1 0 101.89)">
	<stop  offset="0" style="stop-color:#4C5B75"/>
	<stop  offset="3.230000e-02" style="stop-color:#616F86"/>
	<stop  offset="9.800000e-02" style="stop-color:#8E99AA"/>
	<stop  offset="0.1641" style="stop-color:#B4BCC7"/>
	<stop  offset="0.2298" style="stop-color:#D1D7DE"/>
	<stop  offset="0.2946" style="stop-color:#E5EAEF"/>
	<stop  offset="0.3584" style="stop-color:#F2F6F9"/>
	<stop  offset="0.42" style="stop-color:#F6FAFC"/>
	<stop  offset="0.4744" style="stop-color:#F2F6F8"/>
	<stop  offset="0.5308" style="stop-color:#E6E9EC"/>
	<stop  offset="0.5882" style="stop-color:#D3D5D7"/>
	<stop  offset="0.6461" style="stop-color:#B7B8BB"/>
	<stop  offset="0.704" style="stop-color:#949396"/>
	<stop  offset="0.72" style="stop-color:#89878B"/>
	<stop  offset="1" style="stop-color:#F6FAFC"/>
</linearGradient>
<path class="st6" d="M85,71v10c-3.3,0-5.7,0-9,0c-0.7-1.6-1-3.2-1-5c0-0.9,0.1-1.7,0.3-2.6c0.1-0.4,0.2-0.8,0.3-1.2
	c0.1-0.2,0.1-0.4,0.2-0.6c0-0.1,0.2-0.4,0.2-0.6l0,0C79.3,71,81.7,71,85,71z"/>
<linearGradient id="SVGID_8_" gradientUnits="userSpaceOnUse" x1="3.498" y1="58.412" x2="3.498" y2="43.413" gradientTransform="matrix(1 0 0 -1 0 101.89)">
	<stop  offset="0" style="stop-color:#4C5B75"/>
	<stop  offset="3.230000e-02" style="stop-color:#616F86"/>
	<stop  offset="9.800000e-02" style="stop-color:#8E99AA"/>
	<stop  offset="0.1641" style="stop-color:#B4BCC7"/>
	<stop  offset="0.2298" style="stop-color:#D1D7DE"/>
	<stop  offset="0.2946" style="stop-color:#E5EAEF"/>
	<stop  offset="0.3584" style="stop-color:#F2F6F9"/>
	<stop  offset="0.42" style="stop-color:#F6FAFC"/>
	<stop  offset="0.4744" style="stop-color:#F2F6F8"/>
	<stop  offset="0.5308" style="stop-color:#E6E9EC"/>
	<stop  offset="0.5882" style="stop-color:#D3D5D7"/>
	<stop  offset="0.6461" style="stop-color:#B7B8BB"/>
	<stop  offset="0.704" style="stop-color:#949396"/>
	<stop  offset="0.72" style="stop-color:#89878B"/>
	<stop  offset="1" style="stop-color:#F6FAFC"/>
</linearGradient>
<path class="st7" d="M6,58.5c-1.7,0-3.3,0-5,0c0-5,0-10,0-15c1.7,0,3.3,0,5,0C6,44.3,6,57.7,6,58.5z"/>
<linearGradient id="SVGID_9_" gradientUnits="userSpaceOnUse" x1="11.612" y1="56.1849" x2="11.612" y2="45.5698" gradientTransform="matrix(1 0 0 -1 0 101.89)">
	<stop  offset="0" style="stop-color:#4C5B75"/>
	<stop  offset="3.230000e-02" style="stop-color:#616F86"/>
	<stop  offset="9.800000e-02" style="stop-color:#8E99AA"/>
	<stop  offset="0.1641" style="stop-color:#B4BCC7"/>
	<stop  offset="0.2298" style="stop-color:#D1D7DE"/>
	<stop  offset="0.2946" style="stop-color:#E5EAEF"/>
	<stop  offset="0.3584" style="stop-color:#F2F6F9"/>
	<stop  offset="0.42" style="stop-color:#F6FAFC"/>
	<stop  offset="0.4744" style="stop-color:#F2F6F8"/>
	<stop  offset="0.5308" style="stop-color:#E6E9EC"/>
	<stop  offset="0.5882" style="stop-color:#D3D5D7"/>
	<stop  offset="0.6461" style="stop-color:#B7B8BB"/>
	<stop  offset="0.704" style="stop-color:#949396"/>
	<stop  offset="0.72" style="stop-color:#89878B"/>
	<stop  offset="1" style="stop-color:#F6FAFC"/>
</linearGradient>
<path class="st8" d="M16,46c0.8,1.6,1.2,3.2,1.2,5c0,1.8-0.4,3.4-1.2,5c-3.3,0-6.7,0-10,0V46C9.3,46,12.7,46,16,46z"/>
<linearGradient id="SVGID_10_" gradientUnits="userSpaceOnUse" x1="15.999" y1="75.8865" x2="75.996" y2="75.8865" gradientTransform="matrix(1 0 0 -1 0 101.89)">
	<stop  offset="0" style="stop-color:#4C5B75"/>
	<stop  offset="3.230000e-02" style="stop-color:#616F86"/>
	<stop  offset="9.800000e-02" style="stop-color:#8E99AA"/>
	<stop  offset="0.1641" style="stop-color:#B4BCC7"/>
	<stop  offset="0.2298" style="stop-color:#D1D7DE"/>
	<stop  offset="0.2946" style="stop-color:#E5EAEF"/>
	<stop  offset="0.3584" style="stop-color:#F2F6F9"/>
	<stop  offset="0.42" style="stop-color:#F6FAFC"/>
	<stop  offset="0.4744" style="stop-color:#F2F6F8"/>
	<stop  offset="0.5308" style="stop-color:#E6E9EC"/>
	<stop  offset="0.5882" style="stop-color:#D3D5D7"/>
	<stop  offset="0.6461" style="stop-color:#B7B8BB"/>
	<stop  offset="0.704" style="stop-color:#949396"/>
	<stop  offset="0.72" style="stop-color:#89878B"/>
	<stop  offset="1" style="stop-color:#F6FAFC"/>
</linearGradient>
<path class="st9" d="M76,31H16c0-2.7,3.1-4.6,5-5.5c1.9,0.3,3.6,0.2,5.4-0.3c1.8-0.6,3.3-1.5,4.6-2.8c1.7-0.2,3.3-0.5,5-0.7
	c1.7,0.7,3.3,1,5.1,0.9c1.8-0.1,3.4-0.6,4.9-1.5c2,0,3.9,0.1,5.9,0.2c1.9,0.1,3.8,0.3,5.6,0.6c1.7,0.2,3.5,0.5,5.2,0.9
	c1.5,0.3,3,0.7,4.5,1.2c1.3,0.4,2.5,0.9,3.7,1.5c0.5,0.3,1,0.5,1.5,0.8c0.4,0.3,0.9,0.6,1.3,0.9c0.4,0.3,0.7,0.6,1,0.9
	c0.3,0.3,0.5,0.6,0.7,0.9c0.2,0.3,0.3,0.6,0.4,1C75.9,30.3,76,30.7,76,31z"/>
<linearGradient id="SVGID_11_" gradientUnits="userSpaceOnUse" x1="3.498" y1="101.0492" x2="3.498" y2="85.8586" gradientTransform="matrix(1 0 0 -1 0 101.89)">
	<stop  offset="0" style="stop-color:#4C5B75"/>
	<stop  offset="3.230000e-02" style="stop-color:#616F86"/>
	<stop  offset="9.800000e-02" style="stop-color:#8E99AA"/>
	<stop  offset="0.1641" style="stop-color:#B4BCC7"/>
	<stop  offset="0.2298" style="stop-color:#D1D7DE"/>
	<stop  offset="0.2946" style="stop-color:#E5EAEF"/>
	<stop  offset="0.3584" style="stop-color:#F2F6F9"/>
	<stop  offset="0.42" style="stop-color:#F6FAFC"/>
	<stop  offset="0.4744" style="stop-color:#F2F6F8"/>
	<stop  offset="0.5308" style="stop-color:#E6E9EC"/>
	<stop  offset="0.5882" style="stop-color:#D3D5D7"/>
	<stop  offset="0.6461" style="stop-color:#B7B8BB"/>
	<stop  offset="0.704" style="stop-color:#949396"/>
	<stop  offset="0.72" style="stop-color:#89878B"/>
	<stop  offset="1" style="stop-color:#F6FAFC"/>
</linearGradient>
<path class="st10" d="M6,16c-1.7,0-3.3,0-5,0C1,11,1,6,1,1c1.7,0,3.3,0,5,0C6,1.8,6,15.2,6,16z"/>
<linearGradient id="SVGID_12_" gradientUnits="userSpaceOnUse" x1="87.499" y1="101.0492" x2="87.499" y2="85.8586" gradientTransform="matrix(1 0 0 -1 0 101.89)">
	<stop  offset="0" style="stop-color:#4C5B75"/>
	<stop  offset="3.230000e-02" style="stop-color:#616F86"/>
	<stop  offset="9.800000e-02" style="stop-color:#8E99AA"/>
	<stop  offset="0.1641" style="stop-color:#B4BCC7"/>
	<stop  offset="0.2298" style="stop-color:#D1D7DE"/>
	<stop  offset="0.2946" style="stop-color:#E5EAEF"/>
	<stop  offset="0.3584" style="stop-color:#F2F6F9"/>
	<stop  offset="0.42" style="stop-color:#F6FAFC"/>
	<stop  offset="0.4744" style="stop-color:#F2F6F8"/>
	<stop  offset="0.5308" style="stop-color:#E6E9EC"/>
	<stop  offset="0.5882" style="stop-color:#D3D5D7"/>
	<stop  offset="0.6461" style="stop-color:#B7B8BB"/>
	<stop  offset="0.704" style="stop-color:#949396"/>
	<stop  offset="0.72" style="stop-color:#89878B"/>
	<stop  offset="1" style="stop-color:#F6FAFC"/>
</linearGradient>
<path class="st11" d="M90,1c0,5,0,10,0,15c-1.7,0-3.3,0-5,0c0-0.8,0-14.2,0-15C86.7,1,88.3,1,90,1z"/>
<linearGradient id="SVGID_13_" gradientUnits="userSpaceOnUse" x1="30.998" y1="81.0284" x2="20.994" y2="81.0284" gradientTransform="matrix(1 0 0 -1 0 101.89)">
	<stop  offset="0" style="stop-color:#4C5B75"/>
	<stop  offset="3.230000e-02" style="stop-color:#616F86"/>
	<stop  offset="9.800000e-02" style="stop-color:#8E99AA"/>
	<stop  offset="0.1641" style="stop-color:#B4BCC7"/>
	<stop  offset="0.2298" style="stop-color:#D1D7DE"/>
	<stop  offset="0.2946" style="stop-color:#E5EAEF"/>
	<stop  offset="0.3584" style="stop-color:#F2F6F9"/>
	<stop  offset="0.42" style="stop-color:#F6FAFC"/>
	<stop  offset="0.4744" style="stop-color:#F2F6F8"/>
	<stop  offset="0.5308" style="stop-color:#E6E9EC"/>
	<stop  offset="0.5882" style="stop-color:#D3D5D7"/>
	<stop  offset="0.6461" style="stop-color:#B7B8BB"/>
	<stop  offset="0.704" style="stop-color:#949396"/>
	<stop  offset="0.72" style="stop-color:#89878B"/>
	<stop  offset="1" style="stop-color:#F6FAFC"/>
</linearGradient>
<path class="st12" d="M21,16.2C21,16.1,21,16.1,21,16.2l10-0.1c0,0,0,0,0,0.1c0,0.1,0,0.2,0,0.4c0,0.3,0,0.5,0,0.8c0,1.7,0,3.4,0,5
	c-1.4,1.3-2.8,2.2-4.6,2.8c-1.8,0.6-3.5,0.6-5.4,0.3c0-2.7,0-5.4,0-8.2c0-0.3,0-0.6,0-0.9C21,16.4,21,16.3,21,16.2z"/>
<linearGradient id="SVGID_14_" gradientUnits="userSpaceOnUse" x1="12.108" y1="98.389" x2="12.108" y2="88.386" gradientTransform="matrix(1 0 0 -1 0 101.89)">
	<stop  offset="0" style="stop-color:#4C5B75"/>
	<stop  offset="3.230000e-02" style="stop-color:#616F86"/>
	<stop  offset="9.800000e-02" style="stop-color:#8E99AA"/>
	<stop  offset="0.1641" style="stop-color:#B4BCC7"/>
	<stop  offset="0.2298" style="stop-color:#D1D7DE"/>
	<stop  offset="0.2946" style="stop-color:#E5EAEF"/>
	<stop  offset="0.3584" style="stop-color:#F2F6F9"/>
	<stop  offset="0.42" style="stop-color:#F6FAFC"/>
	<stop  offset="0.4744" style="stop-color:#F2F6F8"/>
	<stop  offset="0.5308" style="stop-color:#E6E9EC"/>
	<stop  offset="0.5882" style="stop-color:#D3D5D7"/>
	<stop  offset="0.6461" style="stop-color:#B7B8BB"/>
	<stop  offset="0.704" style="stop-color:#949396"/>
	<stop  offset="0.72" style="stop-color:#89878B"/>
	<stop  offset="1" style="stop-color:#F6FAFC"/>
</linearGradient>
<path class="st13" d="M18.2,3.5v10H6v-10c0,0,11.8,0,12,0C18,3.5,18.2,3.5,18.2,3.5z"/>
<linearGradient id="SVGID_15_" gradientUnits="userSpaceOnUse" x1="66.6945" y1="98.396" x2="66.6945" y2="88.3893" gradientTransform="matrix(1 0 0 -1 0 101.89)">
	<stop  offset="0" style="stop-color:#4C5B75"/>
	<stop  offset="3.230000e-02" style="stop-color:#616F86"/>
	<stop  offset="9.800000e-02" style="stop-color:#8E99AA"/>
	<stop  offset="0.1641" style="stop-color:#B4BCC7"/>
	<stop  offset="0.2298" style="stop-color:#D1D7DE"/>
	<stop  offset="0.2946" style="stop-color:#E5EAEF"/>
	<stop  offset="0.3584" style="stop-color:#F2F6F9"/>
	<stop  offset="0.42" style="stop-color:#F6FAFC"/>
	<stop  offset="0.4744" style="stop-color:#F2F6F8"/>
	<stop  offset="0.5308" style="stop-color:#E6E9EC"/>
	<stop  offset="0.5882" style="stop-color:#D3D5D7"/>
	<stop  offset="0.6461" style="stop-color:#B7B8BB"/>
	<stop  offset="0.704" style="stop-color:#949396"/>
	<stop  offset="0.72" style="stop-color:#89878B"/>
	<stop  offset="1" style="stop-color:#F6FAFC"/>
</linearGradient>
<path class="st14" d="M85,3.5v10c-9.1,0-27.3,0-36.4,0c-0.1,0-0.2,0-0.2,0v-10v0c0.1,0,0.2,0,0.3,0C48.8,3.5,85,3.5,85,3.5L85,3.5z"
	/>
<linearGradient id="SVGID_16_" gradientUnits="userSpaceOnUse" x1="36" y1="82.5314" x2="45.998" y2="82.5314" gradientTransform="matrix(1 0 0 -1 0 101.89)">
	<stop  offset="0" style="stop-color:#4C5B75"/>
	<stop  offset="3.230000e-02" style="stop-color:#616F86"/>
	<stop  offset="9.800000e-02" style="stop-color:#8E99AA"/>
	<stop  offset="0.1641" style="stop-color:#B4BCC7"/>
	<stop  offset="0.2298" style="stop-color:#D1D7DE"/>
	<stop  offset="0.2946" style="stop-color:#E5EAEF"/>
	<stop  offset="0.3584" style="stop-color:#F2F6F9"/>
	<stop  offset="0.42" style="stop-color:#F6FAFC"/>
	<stop  offset="0.4744" style="stop-color:#F2F6F8"/>
	<stop  offset="0.5308" style="stop-color:#E6E9EC"/>
	<stop  offset="0.5882" style="stop-color:#D3D5D7"/>
	<stop  offset="0.6461" style="stop-color:#B7B8BB"/>
	<stop  offset="0.704" style="stop-color:#949396"/>
	<stop  offset="0.72" style="stop-color:#89878B"/>
	<stop  offset="1" style="stop-color:#F6FAFC"/>
</linearGradient>
<path class="st15" d="M46,21c-1.6,0.9-3.1,1.4-4.9,1.5c-1.8,0.1-3.4-0.2-5.1-0.9c0-1.7,0-5.4,0-5.5h10C46,16.2,46,19.5,46,21z"/>
<radialGradient id="SVGID_17_" cx="18.22" cy="85.738" r="12.645" gradientTransform="matrix(1 0 0 -1 0 101.89)" gradientUnits="userSpaceOnUse">
	<stop  offset="0.2093" style="stop-color:#F6FAFC"/>
	<stop  offset="0.4307" style="stop-color:#89878B"/>
	<stop  offset="0.4434" style="stop-color:#949396"/>
	<stop  offset="0.4891" style="stop-color:#B7B8BB"/>
	<stop  offset="0.5349" style="stop-color:#D3D5D7"/>
	<stop  offset="0.5803" style="stop-color:#E6E9EC"/>
	<stop  offset="0.6249" style="stop-color:#F2F6F8"/>
	<stop  offset="0.6679" style="stop-color:#F6FAFC"/>
	<stop  offset="0.7166" style="stop-color:#F2F6F9"/>
	<stop  offset="0.7671" style="stop-color:#E5EAEF"/>
	<stop  offset="0.8183" style="stop-color:#D1D7DE"/>
	<stop  offset="0.8703" style="stop-color:#B4BCC7"/>
	<stop  offset="0.9225" style="stop-color:#8E99AA"/>
	<stop  offset="0.9745" style="stop-color:#616F86"/>
	<stop  offset="1" style="stop-color:#4C5B75"/>
</radialGradient>
<path class="st16" d="M31,15c0,0.3,0,0.7,0,1c0,0,0,0.1,0,0.1H21c0-0.1,0-0.2,0-0.2c0-0.1,0-0.1,0-0.2c-0.1-0.4-0.2-0.9-0.5-1.2
	c-0.3-0.3-0.6-0.6-1-0.8c-0.2-0.1-0.3-0.1-0.5-0.1c-0.1,0-0.1,0-0.2,0c0,0,0,0-0.1,0c-0.1,0-0.2,0-0.3,0c-0.1,0-0.1,0-0.2,0v-10
	c0,0,0.1,0,0.1,0c0.2,0,0.3,0,0.5,0c0.4,0,0.9,0.1,1.3,0.1c0.4,0.1,0.8,0.1,1.2,0.2c0.8,0.2,1.7,0.5,2.5,0.9
	c1.4,0.7,2.7,1.6,3.7,2.7c1.1,1.1,1.9,2.5,2.5,3.9c0.2,0.6,0.4,1.2,0.6,1.8C30.8,13.7,30.9,14.4,31,15z"/>
<radialGradient id="SVGID_18_" cx="48.391" cy="85.738" r="12.645" gradientTransform="matrix(1 0 0 -1 0 101.89)" gradientUnits="userSpaceOnUse">
	<stop  offset="0.2093" style="stop-color:#F6FAFC"/>
	<stop  offset="0.4307" style="stop-color:#89878B"/>
	<stop  offset="0.4434" style="stop-color:#949396"/>
	<stop  offset="0.4891" style="stop-color:#B7B8BB"/>
	<stop  offset="0.5349" style="stop-color:#D3D5D7"/>
	<stop  offset="0.5803" style="stop-color:#E6E9EC"/>
	<stop  offset="0.6249" style="stop-color:#F2F6F8"/>
	<stop  offset="0.6679" style="stop-color:#F6FAFC"/>
	<stop  offset="0.7166" style="stop-color:#F2F6F9"/>
	<stop  offset="0.7671" style="stop-color:#E5EAEF"/>
	<stop  offset="0.8183" style="stop-color:#D1D7DE"/>
	<stop  offset="0.8703" style="stop-color:#B4BCC7"/>
	<stop  offset="0.9225" style="stop-color:#8E99AA"/>
	<stop  offset="0.9745" style="stop-color:#616F86"/>
	<stop  offset="1" style="stop-color:#4C5B75"/>
</radialGradient>
<path class="st17" d="M48.4,3.5v10c0,0-0.1,0-0.1,0c-0.1,0-0.3,0-0.4,0.1c-0.4,0.1-0.8,0.3-1.1,0.6c-0.3,0.3-0.5,0.7-0.7,1.2
	c0,0.1,0,0.2-0.1,0.3c0,0.1,0,0.2,0,0.3c0,0.1,0,0.1,0,0.2H36c0,0,0,0,0,0c0-0.1,0-0.1,0-0.2c0-0.4,0-0.7,0.1-1.1
	c0.1-1.3,0.4-2.5,0.9-3.7c0.6-1.4,1.5-2.7,2.5-3.8c1.1-1.1,2.4-2,3.8-2.7c0.8-0.4,1.6-0.6,2.4-0.8c0.4-0.1,0.8-0.2,1.2-0.2
	c0.4-0.1,0.9-0.1,1.3-0.1C48.3,3.5,48.3,3.5,48.4,3.5L48.4,3.5L48.4,3.5z"/>
<g id="top" class="st18">
	
		<linearGradient id="SVGID_19_" gradientUnits="userSpaceOnUse" x1="45.9925" y1="5.4867" x2="45.9925" y2="60.745" gradientTransform="matrix(1 0 0 -1 0 101.89)">
		<stop  offset="0" style="stop-color:#757575"/>
		<stop  offset="0.1636" style="stop-color:#BABABA"/>
		<stop  offset="0.2485" style="stop-color:#D7D7D7"/>
		<stop  offset="0.3273" style="stop-color:#EBEBEB"/>
		<stop  offset="0.4" style="stop-color:#F8F8F8"/>
		<stop  offset="1" style="stop-color:#FFFFFF"/>
	</linearGradient>
	<path class="st19" d="M75,76.2c0,1.8,0.3,3.4,1,5c0,0.2,0,0.4,0,0.6c0,0.2,0,0.4-0.1,0.6c-0.1,0.4-0.2,0.8-0.3,1.2
		c-0.3,0.8-0.6,1.6-1.1,2.3c-2.7,0.3-5,1-7.2,2.5c-2.3,1.5-3.9,3.3-5.3,5.6c-0.4,0.1-0.8,0.2-1.1,0.3s-0.8,0.2-1.2,0.3
		c-0.8,0.2-1.6,0.4-2.4,0.6c-1.7,0.3-3.4,0.6-5.1,0.8c0-1.7,0-3.4,0-5.1c0-0.3-0.1-0.5-0.1-0.8c-0.1-0.3-0.2-0.6-0.4-0.9
		c-0.2-0.3-0.4-0.6-0.7-0.9c-0.3-0.3-0.6-0.6-0.9-0.8c-0.3-0.3-0.7-0.5-1.1-0.7c-0.3-0.2-0.7-0.3-1-0.5c-0.6-0.2-1.3-0.4-2-0.4
		c-0.7,0-1.4,0.2-2,0.4c-0.8,0.3-1.5,0.7-2.1,1.2c-0.3,0.2-0.6,0.5-0.9,0.8c-0.3,0.3-0.5,0.6-0.7,0.9c-0.2,0.3-0.3,0.5-0.4,0.8
		c-0.1,0.3-0.1,0.5-0.1,0.8c0,1.7,0,3.4,0,5.1c-3.3-0.4-6.6-1-9.8-2c-1.4-2.3-3-4.1-5.3-5.6c-2.3-1.4-4.6-2.2-7.2-2.5
		c-1.7-2.7-1.5-4.3-1.5-7.2c0-2.5,0-17.4,0-22.4c0.8-1.6,1.2-3.2,1.2-5c0-1.8-0.4-3.4-1.2-5c0-1.7,0-3.3,0-5h60c0,10,0,20,0,30
		c0,0,0,0,0,0c-0.1,0.2-0.2,0.5-0.2,0.6c-0.1,0.2-0.1,0.4-0.2,0.6c-0.1,0.4-0.2,0.8-0.3,1.2C75.1,74.5,75,75.3,75,76.2z"/>
	
		<linearGradient id="SVGID_20_" gradientUnits="userSpaceOnUse" x1="45.9975" y1="80.6849" x2="45.9975" y2="60.6168" gradientTransform="matrix(1 0 0 -1 0 101.89)">
		<stop  offset="0" style="stop-color:#757575"/>
		<stop  offset="0.1636" style="stop-color:#BABABA"/>
		<stop  offset="0.2485" style="stop-color:#D7D7D7"/>
		<stop  offset="0.3273" style="stop-color:#EBEBEB"/>
		<stop  offset="0.4" style="stop-color:#F8F8F8"/>
		<stop  offset="1" style="stop-color:#FFFFFF"/>
	</linearGradient>
	<path class="st20" d="M76,31H16c0-2.7,3.1-4.6,5-5.5c1.9,0.3,3.6,0.2,5.4-0.3c1.8-0.6,3.3-1.5,4.6-2.8c1.7-0.2,3.3-0.5,5-0.7
		c1.7,0.7,3.3,1,5.1,0.9c1.8-0.1,3.4-0.6,4.9-1.5c2,0,3.9,0.1,5.9,0.2c1.9,0.1,3.8,0.3,5.6,0.6c1.7,0.2,3.5,0.5,5.2,0.9
		c1.5,0.3,3,0.7,4.5,1.2c1.3,0.4,2.5,0.9,3.7,1.5c0.5,0.3,1,0.5,1.5,0.8c0.4,0.3,0.9,0.6,1.3,0.9c0.4,0.3,0.7,0.6,1,0.9
		c0.3,0.3,0.5,0.6,0.7,0.9c0.2,0.3,0.3,0.6,0.4,1C75.9,30.3,76,30.7,76,31z"/>
</g>
<g class="st21">
	<path id="boundary" class="st22" d="M90,16c0-5,0-10,0-15c-1.7,0-3.3,0-5,0c0,0.2,0,1.2,0,2.5c0,0-36.2,0-36.3,0
		c-0.1,0-0.2,0-0.3,0c-0.1,0-0.1,0-0.2,0c-0.4,0-0.9,0-1.3,0.1c-0.4,0.1-0.8,0.1-1.2,0.2c-0.8,0.2-1.7,0.5-2.4,0.8
		c-1.4,0.6-2.7,1.6-3.8,2.7c-1.1,1.1-1.9,2.4-2.5,3.8c-0.5,1.2-0.8,2.4-0.9,3.7c0,0.4-0.1,0.7-0.1,1.1c0,0.1,0,0.1,0,0.2
		c0,0,0,0,0,0c0,0.1,0,3.8,0,5.5c-1.7,0.2-3.3,0.5-5,0.7c0-1.7,0-3.4,0-5c0-0.3,0-0.5,0-0.8c0-0.1,0-0.2,0-0.4c0,0,0,0,0-0.1
		c0,0,0-0.1,0-0.1c0-0.3,0-0.7,0-1c-0.1-0.6-0.1-1.2-0.3-1.8c-0.1-0.6-0.3-1.2-0.6-1.8c-0.6-1.4-1.4-2.8-2.5-3.9
		c-1.1-1.1-2.3-2-3.7-2.7c-0.8-0.4-1.6-0.7-2.5-0.9c-0.4-0.1-0.8-0.2-1.2-0.2c-0.4-0.1-0.9-0.1-1.3-0.1c-0.2,0-0.4,0-0.5,0
		c0,0-0.1,0-0.1,0c0,0-0.2,0-0.3,0c-0.2,0-12,0-12,0C6,2.2,6,1.2,6,1C4.3,1,2.7,1,1,1c0,5,0,10,0,15c1.7,0,3.3,0,5,0
		c0-0.2,0-1.2,0-2.5h12.2c0.1,0,0.1,0,0.2,0c0.1,0,0.2,0,0.3,0c0,0,0,0,0.1,0c0.1,0,0.1,0,0.2,0c0.2,0,0.3,0.1,0.5,0.1
		c0.4,0.2,0.8,0.4,1,0.8c0.3,0.4,0.5,0.8,0.5,1.2c0,0.1,0,0.1,0,0.2c0,0.1,0,0.2,0,0.2c0,0,0,0.1,0,0.1c0,0.1,0,0.2,0,0.3
		c0,0.3,0,0.6,0,0.9c0,2.7,0,5.4,0,8.2c-1.9,0.9-5,2.9-5,5.5c-2.9,0-4.7,0-5,0c0,3.3,0,6.7,0,10c0.3,0,2.1,0,5,0c0,1.7,0,3.3,0,5
		c-3.3,0-6.7,0-10,0c0-1.3,0-2.3,0-2.5c-1.7,0-3.3,0-5,0c0,5,0,10,0,15c1.7,0,3.3,0,5,0c0-0.2,0-1.2,0-2.5c3.3,0,6.7,0,10,0
		c0,5,0,19.9,0,22.4c0,2.9-0.3,4.5,1.5,7.2c0,5.1,0,10.2,0,15.4c2.1,0,10.4,0,12.5,0c0-2.4,0-4.9,0-7.3c3.2,1,6.4,1.6,9.8,2
		c0,1.8,0,3.6,0,5.3c4.2,0,8.3,0,12.5,0c0-1.8,0-3.6,0-5.3c1.7-0.2,3.4-0.4,5.1-0.8c0.8-0.2,1.6-0.3,2.4-0.6
		c0.4-0.1,0.8-0.2,1.2-0.3c0.4-0.1,0.8-0.2,1.1-0.3c0,2.4,0,4.9,0,7.3c4.2,0,8.3,0,12.5,0c0-5.1,0-10.2,0-15.4
		c0.5-0.7,0.8-1.5,1.1-2.3c0.1-0.4,0.2-0.8,0.3-1.2c0-0.2,0.1-0.4,0.1-0.6c0-0.2,0-0.4,0-0.6c3.3,0,5.7,0,9,0c0,1.3,0,2.3,0,2.5
		c1.7,0,3.3,0,5,0c0-5,0-10,0-15c-1.7,0-3.3,0-5,0c0,0.2,0,1.2,0,2.5c-3.3,0-5.7,0-9,0l0,0c0,0,0,0,0,0c0-10,0-20,0-30
		c2.9,0,4.7,0,5,0c0-3.3,0-6.7,0-10c-0.3,0-2.1,0-5,0c0-0.3-0.1-0.7-0.1-1c-0.1-0.3-0.2-0.7-0.4-1c-0.2-0.3-0.4-0.7-0.7-0.9
		c-0.3-0.3-0.6-0.6-1-0.9c-0.4-0.3-0.8-0.6-1.3-0.9c-0.5-0.3-1-0.6-1.5-0.8c-1.2-0.6-2.4-1.1-3.7-1.5c-1.5-0.5-3-0.9-4.5-1.2
		c-1.7-0.4-3.4-0.7-5.2-0.9c-1.9-0.3-3.7-0.4-5.6-0.6C49.9,21.1,48,21,46,21c0-1.5,0-4.8,0-4.9c0-0.1,0-0.1,0-0.2c0-0.1,0-0.2,0-0.3
		c0-0.1,0-0.2,0.1-0.3c0.1-0.4,0.3-0.8,0.7-1.2c0.3-0.3,0.7-0.5,1.1-0.6c0.1,0,0.3-0.1,0.4-0.1c0,0,0.1,0,0.1,0c0.1,0,0.2,0,0.2,0
		c9.1,0,27.2,0,36.4,0c0,1.3,0,2.3,0,2.5C86.7,16,88.3,16,90,16z"/>
</g>
<g class="st18">
	<g>
		<path id="boundary_1_" class="st23" d="M90,16c0-5,0-10,0-15c-1.7,0-3.3,0-5,0c0,0.2,0,1.2,0,2.5c0,0-36.2,0-36.3,0
			c-0.1,0-0.2,0-0.3,0c-0.1,0-0.1,0-0.2,0c-0.4,0-0.9,0-1.3,0.1c-0.4,0.1-0.8,0.1-1.2,0.2c-0.8,0.2-1.7,0.5-2.4,0.8
			c-1.4,0.6-2.7,1.6-3.8,2.7c-1.1,1.1-1.9,2.4-2.5,3.8c-0.5,1.2-0.8,2.4-0.9,3.7c0,0.4-0.1,0.7-0.1,1.1c0,0.1,0,0.1,0,0.2
			c0,0,0,0,0,0c0,0.1,0,3.8,0,5.5c-1.7,0.2-3.3,0.5-5,0.7c0-1.7,0-3.4,0-5c0-0.3,0-0.5,0-0.8c0-0.1,0-0.2,0-0.4c0,0,0,0,0-0.1
			c0,0,0-0.1,0-0.1c0-0.3,0-0.7,0-1c-0.1-0.6-0.1-1.2-0.3-1.8c-0.1-0.6-0.3-1.2-0.6-1.8c-0.6-1.4-1.4-2.8-2.5-3.9
			c-1.1-1.1-2.3-2-3.7-2.7c-0.8-0.4-1.6-0.7-2.5-0.9c-0.4-0.1-0.8-0.2-1.2-0.2c-0.4-0.1-0.9-0.1-1.3-0.1c-0.2,0-0.4,0-0.5,0
			c0,0-0.1,0-0.1,0c0,0-0.2,0-0.3,0c-0.2,0-12,0-12,0C6,2.2,6,1.2,6,1C4.3,1,2.7,1,1,1c0,5,0,10,0,15c1.7,0,3.3,0,5,0
			c0-0.2,0-1.2,0-2.5h12.2c0.1,0,0.1,0,0.2,0c0.1,0,0.2,0,0.3,0c0,0,0,0,0.1,0c0.1,0,0.1,0,0.2,0c0.2,0,0.3,0.1,0.5,0.1
			c0.4,0.2,0.8,0.4,1,0.8c0.3,0.4,0.5,0.8,0.5,1.2c0,0.1,0,0.1,0,0.2c0,0.1,0,0.2,0,0.2c0,0,0,0.1,0,0.1c0,0.1,0,0.2,0,0.3
			c0,0.3,0,0.6,0,0.9c0,2.7,0,5.4,0,8.2c-1.9,0.9-5,2.9-5,5.5c-2.9,0-4.7,0-5,0c0,3.3,0,6.7,0,10c0.3,0,2.1,0,5,0c0,1.7,0,3.3,0,5
			c-3.3,0-6.7,0-10,0c0-1.3,0-2.3,0-2.5c-1.7,0-3.3,0-5,0c0,5,0,10,0,15c1.7,0,3.3,0,5,0c0-0.2,0-1.2,0-2.5c3.3,0,6.7,0,10,0
			c0,5,0,19.9,0,22.4c0,2.9-0.3,4.5,1.5,7.2c0,5.1,0,10.2,0,15.4c2.1,0,10.4,0,12.5,0c0-2.4,0-4.9,0-7.3c3.2,1,6.4,1.6,9.8,2
			c0,1.8,0,3.6,0,5.3c4.2,0,8.3,0,12.5,0c0-1.8,0-3.6,0-5.3c1.7-0.2,3.4-0.4,5.1-0.8c0.8-0.2,1.6-0.3,2.4-0.6
			c0.4-0.1,0.8-0.2,1.2-0.3c0.4-0.1,0.8-0.2,1.1-0.3c0,2.4,0,4.9,0,7.3c4.2,0,8.3,0,12.5,0c0-5.1,0-10.2,0-15.4
			c0.5-0.7,0.8-1.5,1.1-2.3c0.1-0.4,0.2-0.8,0.3-1.2c0-0.2,0.1-0.4,0.1-0.6c0-0.2,0-0.4,0-0.6c3.3,0,5.7,0,9,0c0,1.3,0,2.3,0,2.5
			c1.7,0,3.3,0,5,0c0-5,0-10,0-15c-1.7,0-3.3,0-5,0c0,0.2,0,1.2,0,2.5c-3.3,0-5.7,0-9,0l0,0c0,0,0,0,0,0c0-10,0-20,0-30
			c2.9,0,4.7,0,5,0c0-3.3,0-6.7,0-10c-0.3,0-2.1,0-5,0c0-0.3-0.1-0.7-0.1-1c-0.1-0.3-0.2-0.7-0.4-1c-0.2-0.3-0.4-0.7-0.7-0.9
			c-0.3-0.3-0.6-0.6-1-0.9c-0.4-0.3-0.8-0.6-1.3-0.9c-0.5-0.3-1-0.6-1.5-0.8c-1.2-0.6-2.4-1.1-3.7-1.5c-1.5-0.5-3-0.9-4.5-1.2
			c-1.7-0.4-3.4-0.7-5.2-0.9c-1.9-0.3-3.7-0.4-5.6-0.6C49.9,21.1,48,21,46,21c0-1.5,0-4.8,0-4.9c0-0.1,0-0.1,0-0.2
			c0-0.1,0-0.2,0-0.3c0-0.1,0-0.2,0.1-0.3c0.1-0.4,0.3-0.8,0.7-1.2c0.3-0.3,0.7-0.5,1.1-0.6c0.1,0,0.3-0.1,0.4-0.1c0,0,0.1,0,0.1,0
			c0.1,0,0.2,0,0.2,0c9.1,0,27.2,0,36.4,0c0,1.3,0,2.3,0,2.5C86.7,16,88.3,16,90,16z"/>
	</g>
	<line class="st23" x1="85" y1="71" x2="85" y2="81"/>
	<polyline class="st23" points="85,3.5 85,13.5 85,13.5 	"/>
	<line class="st23" x1="6" y1="13.5" x2="6" y2="3.5"/>
	<line class="st23" x1="6" y1="56" x2="6" y2="46"/>
	<line class="st23" x1="48.4" y1="13.5" x2="48.4" y2="3.5"/>
	<line class="st23" x1="46" y1="16.2" x2="36" y2="16.2"/>
	<line class="st23" x1="21" y1="16.1" x2="31" y2="16.1"/>
	<line class="st23" x1="18.2" y1="13.5" x2="18.2" y2="3.5"/>
	<path class="st23" d="M31,22.3c-1.4,1.3-2.8,2.2-4.6,2.8c-1.8,0.6-3.5,0.6-5.4,0.3"/>
	<path class="st23" d="M39.7,95.7c0-1.7,0-3.4,0-5.1c0-0.3,0.1-0.6,0.1-0.8c0.1-0.3,0.2-0.5,0.4-0.8c0.2-0.3,0.4-0.6,0.7-0.9
		c0.3-0.3,0.6-0.5,0.9-0.8c0.6-0.5,1.3-0.9,2.1-1.2c0.6-0.3,1.3-0.4,2-0.4c0.7,0,1.4,0.1,2,0.4c0.4,0.1,0.7,0.3,1,0.5
		c0.4,0.2,0.7,0.4,1.1,0.7c0.3,0.3,0.6,0.5,0.9,0.8c0.3,0.3,0.5,0.6,0.7,0.9c0.2,0.3,0.3,0.6,0.4,0.9c0.1,0.2,0.1,0.5,0.1,0.8
		c0,1.7,0,3.4,0,5.1"/>
	<line class="st23" x1="76" y1="31" x2="16" y2="31"/>
	<line class="st23" x1="16" y1="41" x2="76" y2="41"/>
	<path class="st23" d="M74.5,85.6c-2.7,0.3-5,1-7.2,2.5c-2.3,1.5-3.9,3.3-5.3,5.6"/>
	<path class="st23" d="M30,93.7c-1.4-2.3-3-4.1-5.3-5.6c-2.3-1.4-4.6-2.2-7.2-2.5"/>
	<path class="st23" d="M46,21c-1.6,0.9-3.1,1.4-4.9,1.5c-1.8,0.1-3.4-0.2-5.1-0.9"/>
	<path class="st23" d="M16,56c0.8-1.6,1.2-3.2,1.2-5c0-1.8-0.4-3.4-1.2-5"/>
	<path class="st23" d="M76,71C76,71,76,71,76,71c-0.1,0.2-0.2,0.5-0.2,0.6c-0.1,0.2-0.1,0.4-0.2,0.6c-0.1,0.4-0.2,0.8-0.3,1.2
		C75.1,74.3,75,75.1,75,76c0,1.8,0.3,3.4,1,5"/>
	<path class="st23" d="M76,71C76,70.9,76,70.9,76,71L76,71z"/>
	<path class="st23" d="M76,71L76,71C76,71,76,71,76,71C76,71,76,71,76,71"/>
	<line class="st23" x1="11" y1="36" x2="81" y2="36"/>
</g>
<g>
	<polygon class="st24" points="64.9,29.5 64.9,29.5 64.9,29.5 	"/>
	<polygon class="st24" points="33.7,29.5 33.7,29.5 33.7,29.5 	"/>
	<polygon class="st24" points="14.5,29.5 14.5,29.5 14.5,29.5 	"/>
	<polygon class="st24" points="74.7,29.5 74.7,29.5 74.7,29.5 	"/>
	<polygon class="st24" points="44.6,29.5 44.6,29.5 44.6,29.5 	"/>
	<polygon class="st24" points="23.9,29.5 23.9,29.5 23.9,29.5 	"/>
	<polygon class="st24" points="55.4,29.5 55.4,29.5 55.4,29.5 	"/>
	<polygon class="st24" points="64.9,41 64.9,41 64.9,41 	"/>
	<polygon class="st24" points="33.7,41 33.7,41 33.7,41 	"/>
	<polygon class="st24" points="14.5,41 14.5,41 14.5,41 	"/>
	<polygon class="st24" points="74.7,41 74.7,41 74.7,41 	"/>
	<polygon class="st24" points="44.6,41 44.6,41 44.6,41 	"/>
	<polygon class="st24" points="23.9,41 23.9,41 23.9,41 	"/>
	<polygon class="st24" points="55.4,41 55.4,41 55.4,41 	"/>
</g>
</svg>
