<?xml version="1.0" encoding="utf-8"?>
<!-- Generator: Adobe Illustrator 19.0.0, SVG Export Plug-In . SVG Version: 6.00 Build 0)  -->
<svg version="1.1" id="图层_1" xmlns="http://www.w3.org/2000/svg" xmlns:xlink="http://www.w3.org/1999/xlink" x="0px" y="0px"
	 viewBox="18 8.3 144.7 91.4" style="enable-background:new 18 8.3 144.7 91.4;" xml:space="preserve">
<style type="text/css">
	.st0{fill:#007F00;stroke:#000000;stroke-width:0.25;}
	.st1{fill:#003300;}
	.st2{fill:#329932;}
	.st3{fill:#64B264;}
	.st4{fill:#98CB98;}
	.st5{fill:#64B264;stroke:#000000;stroke-width:0.25;}
	.st6{fill:#98CB98;stroke:#000000;stroke-width:0.25;}
	.st7{fill:none;stroke:#000000;stroke-width:0.25;}
	.st8{clip-path:url(#SVGID_6_);fill:#B2D8B2;}
	.st9{clip-path:url(#SVGID_8_);fill:#B2D8B2;}
	.st10{fill:#003300;stroke:#000000;stroke-width:0.25;}
	.st11{fill:#006600;}
	.st12{fill:url(#SVGID_9_);stroke:#000000;stroke-width:0.25;}
	.st13{fill:url(#SVGID_10_);stroke:#000000;stroke-width:0.25;}
	.st14{fill:url(#SVGID_11_);stroke:#000000;stroke-width:0.25;}
	.st15{fill:#007F00;}
</style>
<g>
	<path class="st0" d="M121.2,55.7h-64v38.6h19.4v-26h44.5L121.2,55.7L121.2,55.7z"/>
	<path class="st1" d="M121.2,66.7h-64v1.6h64V66.7z"/>
	<path class="st0" d="M84,98.8H49.8v-4.5H84V98.8z"/>
	<path class="st1" d="M150.9,98.8h-3V81.6h-16.2v17.1h-1.6V79.5h20.8V98.8z"/>
	<path class="st2" d="M121.2,76.4l-17.9-14.8V49.7l17.8-14.9L121.2,76.4L121.2,76.4z"/>
	<path class="st3" d="M121.2,75.7L103.3,60v-8.8l17.8-15.7L121.2,75.7L121.2,75.7z"/>
	<path class="st4" d="M121.2,74.3l-17.9-16.4v-4.5L121.1,37L121.2,74.3L121.2,74.3z"/>
	<path class="st5" d="M156.8,79.5h-5.9v19.3h5.9V79.5z"/>
	<path class="st5" d="M130,79.5h-5.9v19.3h5.9V79.5z"/>
	<path class="st6" d="M160.8,32.1l16.6,5.6v30.4L161,79.3c-0.6,0.4-1.5,0-1.5-0.8V33C159.5,32.3,160.2,31.9,160.8,32.1z"/>
	<path class="st7" d="M121.2,76.4l-17.9-14.8V49.7l17.8-14.9L121.2,76.4"/>
	<g>
		<g>
			<path id="SVGID_1_" class="st4" d="M121.2,31.9h38.6v47.6h-38.6C121.2,79.5,121.2,31.9,121.2,31.9z"/>
		</g>
		<g>
			<defs>
				<rect id="SVGID_5_" x="121.2" y="31.9" width="38.6" height="47.6"/>
			</defs>
			<clipPath id="SVGID_6_">
				<use xlink:href="#SVGID_5_"  style="overflow:visible;"/>
			</clipPath>
			<path class="st8" d="M159,78.6v-7.7L121.9,66v12.6H159z"/>
		</g>
		<g>
			<path id="SVGID_2_" class="st7" d="M121.2,31.9h38.6v47.6h-38.6C121.2,79.5,121.2,31.9,121.2,31.9z"/>
		</g>
	</g>
	<g>
		<g>
			<path id="SVGID_3_" class="st4" d="M150.9,20h-23.8v11.9h23.8V20z"/>
		</g>
		<g>
			<defs>
				<rect id="SVGID_7_" x="127.1" y="20" width="23.8" height="11.9"/>
			</defs>
			<clipPath id="SVGID_8_">
				<use xlink:href="#SVGID_7_"  style="overflow:visible;"/>
			</clipPath>
			<path class="st9" d="M150.2,31v-1.4l-22.3-2.9v4.4h22.3V31z"/>
		</g>
		<g>
			<path id="SVGID_4_" class="st7" d="M150.9,20h-23.8v11.9h23.8V20z"/>
		</g>
	</g>
	<path class="st6" d="M88.5,51.5H66.7c-11,0-20,8.9-20,20c0,11,8.9,20,20,20c11,0,20-8.9,20-20c0-4.3-1.3-8.2-3.6-11.4h5.5
		L88.5,51.5L88.5,51.5z"/>
	<circle class="st10" cx="66.9" cy="71.2" r="8.1"/>
	<circle class="st11" cx="66.9" cy="71.2" r="5.9"/>
	<path class="st6" d="M162.1,98.8H44.6v-5.9H41v10.3h124.7V92.8h-3.6L162.1,98.8L162.1,98.8z"/>
	
		<linearGradient id="SVGID_9_" gradientUnits="userSpaceOnUse" x1="89.25" y1="43.6867" x2="89.25" y2="64.3867" gradientTransform="matrix(1 0 0 -1 0 108.36)">
		<stop  offset="0" style="stop-color:#007F00"/>
		<stop  offset="0.5" style="stop-color:#FFFFFF"/>
		<stop  offset="1" style="stop-color:#007F00"/>
	</linearGradient>
	<rect x="87.8" y="44" class="st12" width="2.9" height="20.7"/>
	
		<linearGradient id="SVGID_10_" gradientUnits="userSpaceOnUse" x1="101.85" y1="43.6867" x2="101.85" y2="64.3867" gradientTransform="matrix(1 0 0 -1 0 108.36)">
		<stop  offset="0" style="stop-color:#007F00"/>
		<stop  offset="0.5" style="stop-color:#FFFFFF"/>
		<stop  offset="1" style="stop-color:#007F00"/>
	</linearGradient>
	<rect x="100.4" y="44" class="st13" width="2.9" height="20.7"/>
	<linearGradient id="SVGID_11_" gradientUnits="userSpaceOnUse" x1="95.55" y1="60.42" x2="95.55" y2="48.22">
		<stop  offset="0" style="stop-color:#8D8785"/>
		<stop  offset="0.5" style="stop-color:#FFFFFF"/>
		<stop  offset="1" style="stop-color:#000000"/>
	</linearGradient>
	<rect x="90.7" y="48.2" class="st14" width="9.7" height="12.2"/>
	<path class="st15" d="M141.5,21h-4.4v1.5h4.4V21z"/>
</g>
</svg>
