<?xml version="1.0" encoding="utf-8"?>
<!-- Generator: Adobe Illustrator 21.0.0, SVG Export Plug-In . SVG Version: 6.00 Build 0)  -->
<svg version="1.1" id="Layer_1" xmlns:agg="http://www.example.com"
	 xmlns="http://www.w3.org/2000/svg" xmlns:xlink="http://www.w3.org/1999/xlink" x="0px" y="0px" viewBox="0 0 289.1 272.1"
	 style="enable-background:new 0 0 289.1 272.1;" xml:space="preserve">
<style type="text/css">
	.st0{fill:#63B8C1;}
	.st1{opacity:0.3;fill:#FFFFFF;enable-background:new    ;}
	.st2{fill:#7F7F7F;}
	.st3{opacity:0.15;enable-background:new    ;}
	.st4{fill:#333333;}
	.st5{fill:#7F0000;}
	.st6{opacity:5.000000e-02;enable-background:new    ;}
	.st7{fill:none;}
	.st8{opacity:0.15;fill:#4F4F4F;enable-background:new    ;}
	.st9{opacity:0.1;enable-background:new    ;}
	.st10{opacity:0.35;}
	.st11{fill:none;stroke:#000000;stroke-width:0.5;stroke-linejoin:round;}
</style>
<agg:params>
	<agg:param  classes="color" cssAttributes="fill" description="Color" name="color" type="C"></agg:param>
</agg:params>
<polyline class="st0" points="127,60 135.5,60 135.5,80.9 127,80.9 127,60 "/>
<polygon class="st1" points="127,62.2 135.5,62.2 135.5,78.6 127,78.6 "/>
<polygon class="st1" points="127,64 135.5,64 135.5,76.4 127,76.4 "/>
<polygon class="st1" points="127,66.2 135.5,66.2 135.5,74.7 127,74.7 "/>
<polygon class="st1" points="127,68.4 135.5,68.4 135.5,72.4 127,72.4 "/>
<polyline class="st2" points="127,20.4 268.7,20.4 268.7,40.7 127,40.7 127,20.4 "/>
<polygon class="st1" points="127,22.1 268.7,22.1 268.7,39 127,39 "/>
<polygon class="st1" points="127,24.3 268.7,24.3 268.7,36.8 127,36.8 "/>
<polygon class="st1" points="127,26.6 268.7,26.6 268.7,34.5 127,34.5 "/>
<polygon class="st1" points="127,28.3 268.7,28.3 268.7,32.8 127,32.8 "/>
<polygon class="st2" points="191.8,192.4 191.8,216.1 193.2,216.1 193.2,239.8 205.1,239.8 205.1,216.1 206.5,216.1 206.5,192.4 "/>
<polygon class="st1" points="192.6,192.4 192.6,216.1 194.1,216.1 194.1,239.8 204.2,239.8 204.2,216.1 205.7,216.1 205.7,192.4 "/>
<polygon class="st1" points="194.3,192.4 194.3,216.1 195.2,216.1 195.2,239.8 203.1,239.8 203.1,216.1 204,216.1 204,192.4 "/>
<polygon class="st1" points="195.8,192.4 195.8,216.1 196.6,216.1 196.6,239.8 201.7,239.8 201.7,216.1 202.5,216.1 202.5,192.4 "/>
<polygon class="st1" points="197.2,192.4 197.2,216.1 197.5,216.1 197.5,239.8 200.9,239.8 200.9,216.1 201.1,216.1 201.1,192.4 "/>
<polygon class="st1" points="198.3,192.4 198.3,216.1 198.3,239.8 200,239.8 200,216.1 200,192.4 "/>
<polygon class="st0" points="280.7,192.4 280.7,15.8 268.7,15.8 268.7,116 227.4,116 227.4,110.3 132.7,110.3 132.7,116 127,116 
	127,15.8 32.3,15.8 25.4,116 2.8,116 2.8,222.3 18,222.3 14.8,269.3 244.9,269.3 250.6,245.5 120.7,222.3 120.7,192.4 "/>
<path class="st1" d="M55.9,116c0,0.6,0,1.2,0,1.7c5.3,4.2,11.9,6.7,19.2,6.7c16.9,0,30.7-13.7,30.7-30.6c0-4.4-0.9-8.5-2.6-12.2
	c-3.5-1.1-7.2-1.7-11.1-1.7C72.1,79.9,55.9,96.1,55.9,116z"/>
<polygon class="st3" points="25.4,116 2.8,116 2.8,222.3 18,222.3 "/>
<polygon class="st0" points="72,98.5 78.2,98.5 78.2,127.8 72,127.8 "/>
<polygon class="st0" points="55.3,2.8 59.3,4 51.9,33.4 80.8,41.3 79.7,45.3 50.7,37.3 42.9,66.2 38.9,65.6 46.8,36.2 17.3,28.3 
	18.5,24.3 47.3,32.3 "/>
<polygon class="st4" points="70.9,23.2 117.9,23.2 117.9,33.3 70.9,33.3 "/>
<polygon class="st5" points="75.4,28.9 113.4,28.9 113.4,36.2 75.4,36.2 "/>
<polygon class="st6" points="120.7,192.4 120.7,166.3 280.7,125 280.7,192.4 "/>
<polygon class="st6" points="120.7,192.4 120.7,174.8 280.7,133.5 280.7,192.4 "/>
<line class="st7" x1="224.4" y1="185" x2="224.4" y2="192.4"/>
<line class="st7" x1="244.2" y1="182.2" x2="244.2" y2="192.4"/>
<line class="st7" x1="262.2" y1="174.8" x2="262.2" y2="192.4"/>
<line class="st7" x1="225.6" y1="185" x2="225.6" y2="192.4"/>
<line class="st7" x1="244.9" y1="182.2" x2="244.9" y2="192.4"/>
<line class="st7" x1="263.1" y1="173.7" x2="263.1" y2="192.4"/>
<polyline class="st7" points="120.7,186.6 187.7,186.6 219.7,185 245.4,182.2 262.2,174.8 271,164.6 277.4,151.6 280.3,136.9 
	280.7,121.6 "/>
<polygon class="st0" points="179.7,18.7 179.7,36.7 179.7,42.4 188.8,42.4 188.8,80.9 197.8,80.9 197.8,42.4 206.4,42.4 206.4,36.7 
	206.4,18.7 "/>
<polyline class="st7" points="179.7,18.7 206.4,18.7 206.4,42.4 197.8,42.4 197.8,80.9 188.8,80.9 188.8,42.4 179.7,42.4 
	179.7,18.7 "/>
<polygon class="st1" points="188.8,60 197.8,60 197.8,80.9 188.8,80.9 "/>
<polygon class="st1" points="188.8,62.2 197.8,62.2 197.8,78.6 188.8,78.6 "/>
<polygon class="st1" points="188.8,64 197.8,64 197.8,76.4 188.8,76.4 "/>
<polygon class="st1" points="188.8,66.2 197.8,66.2 197.8,74.7 188.8,74.7 "/>
<polygon class="st1" points="188.8,68.4 197.8,68.4 197.8,72.4 188.8,72.4 "/>
<polygon class="st0" points="247.7,18.7 247.7,36.7 247.7,42.4 256.8,42.4 256.8,80.9 265.9,80.9 265.9,42.4 268.7,42.4 268.7,36.7 
	268.7,18.7 "/>
<polyline class="st7" points="247.7,18.7 268.7,18.7 268.7,42.4 265.9,42.4 265.9,80.9 256.8,80.9 256.8,42.4 247.7,42.4 
	247.7,18.7 "/>
<polygon class="st1" points="256.8,60 265.9,60 265.9,80.9 256.8,80.9 "/>
<polygon class="st1" points="256.8,62.2 265.9,62.2 265.9,78.6 256.8,78.6 "/>
<polygon class="st1" points="256.8,64 265.9,64 265.9,76.4 256.8,76.4 "/>
<polygon class="st1" points="256.8,66.2 265.9,66.2 265.9,74.7 256.8,74.7 "/>
<polygon class="st1" points="256.8,68.4 265.9,68.4 265.9,72.4 256.8,72.4 "/>
<polygon class="st0" points="280.7,125 286.3,125 286.3,155.5 280.7,155.5 "/>
<polygon class="st1" points="280.7,127.8 286.3,127.8 286.3,152.7 280.7,152.7 "/>
<polygon class="st1" points="280.7,131.2 286.3,131.2 286.3,149.9 280.7,149.9 "/>
<polygon class="st1" points="280.7,134.1 286.3,134.1 286.3,146.5 280.7,146.5 "/>
<polygon class="st1" points="280.7,136.9 286.3,136.9 286.3,143.7 280.7,143.7 "/>
<polyline class="st7" points="280.7,125 286.3,125 286.3,155.5 280.7,155.5 280.7,125 "/>
<polyline class="st7" points="141.7,114.8 141.7,121.6 135.5,121.6 "/>
<polyline class="st7" points="135.5,121.6 135.5,114.3 141.7,114.3 "/>
<polygon class="st7" points="132.7,110.3 227.4,110.3 227.4,127.8 197.8,127.8 203.6,138 156.5,138 162.1,127.8 132.7,127.8 "/>
<polygon class="st1" points="179.7,18.7 206.4,18.7 206.4,42.4 179.7,42.4 "/>
<polygon class="st1" points="247.7,18.7 268.7,18.7 268.7,42.4 247.7,42.4 "/>
<path class="st8" d="M55.8,116c0-19.9,16.2-36.1,36.2-36.1c3.9,0,7.6,0.6,11.1,1.7c-4.7-10.8-15.5-18.3-28.1-18.3
	c-16.9,0-30.7,13.7-30.7,30.6c0,9.6,4.5,18.2,11.5,23.8C55.9,117.2,55.8,116.6,55.8,116z"/>
<ellipse class="st0" cx="49.1" cy="34.5" rx="11.9" ry="11.9"/>
<path class="st0" d="M72,150.4c-22.7,0-41.1,18.3-41.1,41v65h82.2v-65C113.1,168.7,94.7,150.4,72,150.4z"/>
<path class="st0" d="M72,171.7c-13,0-23.5,10.5-23.5,23.5v37.2h47.1v-37.2C95.5,182.2,85,171.7,72,171.7z"/>
<polygon class="st1" points="30.9,256.4 48.4,232.7 95.5,232.7 113.1,256.4 "/>
<polygon class="st9" points="48.4,191.4 48.4,232.7 30.9,256.4 30.9,187.7 "/>
<g>
	<line class="st7" x1="49.6" y1="225.9" x2="94.4" y2="225.9"/>
	<line class="st7" x1="94.4" y1="220.2" x2="49.6" y2="220.2"/>
	<line class="st7" x1="49.6" y1="214" x2="94.4" y2="214"/>
	<line class="st7" x1="94.4" y1="208.3" x2="49.6" y2="208.3"/>
	<line class="st7" x1="49.6" y1="202" x2="94.4" y2="202"/>
	<line class="st7" x1="94.4" y1="196.4" x2="49.6" y2="196.4"/>
	<line class="st7" x1="49.6" y1="190.2" x2="94.4" y2="190.2"/>
	<line class="st7" x1="53" y1="184.5" x2="91.5" y2="184.5"/>
	<line class="st7" x1="57" y1="178.9" x2="87" y2="178.9"/>
	<line class="st7" x1="72.2" y1="230.3" x2="72.2" y2="174.3"/>
	<line class="st7" x1="60.4" y1="177.2" x2="60.4" y2="230.3"/>
	<line class="st7" x1="83.6" y1="230.3" x2="83.6" y2="177.2"/>
</g>
<path class="st9" d="M112.9,187.7l-17.4,3.7v41.3l17.6,23.7L112.9,187.7z M108.9,225.3h-4.6v-13h4.6V225.3z"/>
<line class="st7" x1="25.4" y1="116" x2="18" y2="222.3"/>
<polyline class="st7" points="127,116 120.7,166.2 120.7,192.3 "/>
<ellipse class="st0" cx="75.1" cy="93.9" rx="5.4" ry="5.4"/>
<g class="st10">
	<polyline class="st11" points="127,60 135.5,60 135.5,80.9 127,80.9 	"/>
	<line class="st11" x1="179.7" y1="40.7" x2="127" y2="40.7"/>
	<line class="st11" x1="127" y1="20.4" x2="179.7" y2="20.4"/>
	<line class="st11" x1="247.4" y1="40.7" x2="206.5" y2="40.7"/>
	<line class="st11" x1="206.5" y1="20.4" x2="247.4" y2="20.4"/>
	<polyline class="st11" points="205.1,237.4 205.1,216.1 206.5,216.1 206.5,192.4 	"/>
	<polyline class="st11" points="191.8,192.4 191.8,216.1 193.2,216.1 193.2,235.3 	"/>
	<polyline class="st11" points="31.2,32 25.4,116 2.8,116 2.8,222.3 18,222.3 14.8,269.3 244.9,269.3 250.6,245.5 120.7,222.3 
		120.7,192.4 280.7,192.4 280.7,15.8 268.7,15.8 268.7,116 227.4,116 	"/>
	<polyline class="st11" points="51.8,15.8 32.3,15.8 31.5,27.9 	"/>
	<polyline class="st11" points="132.7,116 127,116 127,15.8 56.3,15.8 	"/>
	<polyline class="st11" points="78.2,98.5 78.2,127.8 72,127.8 72,98.5 	"/>
	<polygon class="st11" points="55.3,2.8 59.3,4 51.9,33.4 80.8,41.3 79.7,45.3 50.7,37.3 42.9,66.2 38.9,65.6 46.8,36.2 17.3,28.3 
		18.5,24.3 47.3,32.3 	"/>
	<line class="st11" x1="224.4" y1="184.5" x2="224.4" y2="192.4"/>
	<line class="st11" x1="244.2" y1="182.3" x2="244.2" y2="192.4"/>
	<line class="st11" x1="262.2" y1="174.8" x2="262.2" y2="192.4"/>
	<polyline class="st11" points="120.7,186.6 187.7,186.6 219.7,185 245.4,182.2 262.2,174.8 271,164.6 277.4,151.6 280.3,136.9 
		280.7,125 	"/>
	<polygon class="st11" points="179.7,18.7 179.7,36.7 179.7,42.4 188.8,42.4 188.8,80.9 197.8,80.9 197.8,42.4 206.4,42.4 
		206.4,36.7 206.4,18.7 	"/>
	<polyline class="st11" points="268.7,18.7 247.7,18.7 247.7,42.4 256.8,42.4 256.8,80.9 265.9,80.9 265.9,42.4 268.7,42.4 	"/>
	<polyline class="st11" points="280.7,125 286.3,125 286.3,155.5 280.7,155.5 	"/>
	<polygon class="st11" points="132.7,110.3 227.4,110.3 227.4,127.8 197.8,127.8 203.6,138 156.5,138 162.1,127.8 132.7,127.8 	"/>
	<path class="st11" d="M38.1,29.8c1.8-4.2,6-7.1,10.9-7.1c0.3,0,0.6,0,0.9,0"/>
	<path class="st11" d="M44.3,45.4c-4.2-1.8-7.2-6-7.2-10.9c0-0.3,0-0.6,0-0.9"/>
	<path class="st11" d="M59.8,39.8c-2,3.9-6,6.6-10.7,6.6c-0.3,0-0.5,0-0.8,0"/>
	<path class="st11" d="M54.3,23.8c4,1.9,6.7,6,6.7,10.7c0,0.4,0,0.9-0.1,1.3"/>
	<path class="st11" d="M72,150.4c-22.7,0-41.1,18.3-41.1,41v65h82.2v-65C113.1,168.7,94.7,150.4,72,150.4z"/>
	<path class="st11" d="M72,171.7c-13,0-23.5,10.5-23.5,23.5v37.2h47.1v-37.2C95.5,182.2,85,171.7,72,171.7z"/>
	<line class="st11" x1="49.6" y1="225.9" x2="94.4" y2="225.9"/>
	<line class="st11" x1="94.4" y1="220.2" x2="49.6" y2="220.2"/>
	<line class="st11" x1="49.6" y1="214" x2="94.4" y2="214"/>
	<line class="st11" x1="94.4" y1="208.3" x2="49.6" y2="208.3"/>
	<line class="st11" x1="49.6" y1="202" x2="94.4" y2="202"/>
	<line class="st11" x1="94.4" y1="196.4" x2="49.6" y2="196.4"/>
	<line class="st11" x1="49.6" y1="190.2" x2="94.4" y2="190.2"/>
	<line class="st11" x1="53" y1="184.5" x2="91.5" y2="184.5"/>
	<line class="st11" x1="57" y1="178.9" x2="87" y2="178.9"/>
	<line class="st11" x1="72.2" y1="230.3" x2="72.2" y2="174.3"/>
	<line class="st11" x1="60.4" y1="177.2" x2="60.4" y2="230.3"/>
	<line class="st11" x1="83.6" y1="230.3" x2="83.6" y2="177.2"/>
	<line class="st11" x1="25.4" y1="116" x2="18" y2="222.3"/>
	<polyline class="st11" points="127,116 120.7,166.2 120.7,192.3 	"/>
	<ellipse class="st11" cx="75.1" cy="93.9" rx="5.4" ry="5.4"/>
	<path class="st11" d="M78.2,124.3c15.5-1.6,27.6-14.6,27.6-30.4c0-16.9-13.7-30.6-30.7-30.6c-16.9,0-30.7,13.7-30.7,30.6
		c0,15.8,12.1,28.8,27.5,30.4"/>
	<line class="st11" x1="193.2" y1="216.1" x2="205.1" y2="216.1"/>
	<line class="st11" x1="188.8" y1="42.4" x2="197.8" y2="42.4"/>
	<line class="st11" x1="256.8" y1="42.4" x2="265.9" y2="42.4"/>
</g>
</svg>
