<?xml version="1.0" encoding="utf-8"?>
<!-- Generator: Adobe Illustrator 21.0.0, SVG Export Plug-In . SVG Version: 6.00 Build 0)  -->
<svg version="1.1" id="Layer_3" xmlns:agg="http://www.example.com"
	 xmlns="http://www.w3.org/2000/svg" xmlns:xlink="http://www.w3.org/1999/xlink" x="0px" y="0px" viewBox="0 0 72 202"
	 style="enable-background:new 0 0 72 202;" xml:space="preserve">
<style type="text/css">
	.st0{fill:url(#SVGID_1_);}
	.st1{fill:url(#SVGID_2_);}
	.st2{fill:url(#SVGID_3_);}
	.st3{fill:url(#SVGID_4_);}
	.st4{fill:url(#SVGID_5_);}
	.st5{fill:url(#SVGID_6_);}
	.st6{fill:url(#SVGID_7_);}
	.st7{fill:url(#SVGID_8_);}
	.st8{fill:url(#SVGID_9_);}
	.st9{fill:url(#SVGID_10_);}
	.st10{fill:url(#SVGID_11_);}
	.st11{fill:url(#SVGID_12_);}
	.st12{fill:url(#SVGID_13_);}
	.st13{fill:url(#screw_6_);}
	.st14{fill:url(#screw_7_);}
	.st15{fill:url(#screw_8_);}
	.st16{fill:url(#screw_9_);}
	.st17{fill:url(#screw_10_);}
	.st18{fill:url(#screw_11_);}
	.st19{opacity:0.5;}
	.st20{opacity:0.2;fill:#3664BF;enable-background:new    ;}
	.st21{fill:none;stroke:#000000;stroke-width:0.5;stroke-linejoin:round;}
	.st22{opacity:0.3;fill:#010101;enable-background:new    ;}
</style>
<agg:params>
	<agg:param  classes="color" cssAttributes="fill" description="Color" name="color" type="C"></agg:param>
	<agg:param  classes="color" cssAttributes="opacity" description="Saturation" max="1" min="0" name="saturation" type="F">
		</agg:param>
</agg:params>
<linearGradient id="SVGID_1_" gradientUnits="userSpaceOnUse" x1="1" y1="64.151" x2="8.505" y2="64.151" gradientTransform="matrix(1 0 0 -1 0 201.89)">
	<stop  offset="0" style="stop-color:#4D5C75"/>
	<stop  offset="3.110000e-02" style="stop-color:#616F85"/>
	<stop  offset="9.700001e-02" style="stop-color:#8E99A9"/>
	<stop  offset="0.1634" style="stop-color:#B4BCC7"/>
	<stop  offset="0.2292" style="stop-color:#D1D7DE"/>
	<stop  offset="0.2942" style="stop-color:#E5EAEF"/>
	<stop  offset="0.3583" style="stop-color:#F2F6F9"/>
	<stop  offset="0.42" style="stop-color:#F6FAFC"/>
	<stop  offset="0.4747" style="stop-color:#F2F6F8"/>
	<stop  offset="0.5313" style="stop-color:#E6E9EC"/>
	<stop  offset="0.5889" style="stop-color:#D3D5D7"/>
	<stop  offset="0.6471" style="stop-color:#B7B8BA"/>
	<stop  offset="0.7053" style="stop-color:#949396"/>
	<stop  offset="0.72" style="stop-color:#8A888B"/>
	<stop  offset="1" style="stop-color:#F6FAFC"/>
</linearGradient>
<polygon class="st0" points="8.5,88.1 8.5,184.2 1,187.3 1,88.1 "/>
<linearGradient id="SVGID_2_" gradientUnits="userSpaceOnUse" x1="6.2611" y1="9.7893" x2="11.4623" y2="14.8113" gradientTransform="matrix(1 0 0 -1 0 201.89)">
	<stop  offset="0" style="stop-color:#4D5C75"/>
	<stop  offset="3.110000e-02" style="stop-color:#616F85"/>
	<stop  offset="9.700001e-02" style="stop-color:#8E99A9"/>
	<stop  offset="0.1634" style="stop-color:#B4BCC7"/>
	<stop  offset="0.2292" style="stop-color:#D1D7DE"/>
	<stop  offset="0.2942" style="stop-color:#E5EAEF"/>
	<stop  offset="0.3583" style="stop-color:#F2F6F9"/>
	<stop  offset="0.42" style="stop-color:#F6FAFC"/>
	<stop  offset="0.4747" style="stop-color:#F2F6F8"/>
	<stop  offset="0.5313" style="stop-color:#E6E9EC"/>
	<stop  offset="0.5889" style="stop-color:#D3D5D7"/>
	<stop  offset="0.6471" style="stop-color:#B7B8BA"/>
	<stop  offset="0.7053" style="stop-color:#949396"/>
	<stop  offset="0.72" style="stop-color:#8A888B"/>
	<stop  offset="1" style="stop-color:#F6FAFC"/>
</linearGradient>
<polygon class="st1" points="14.1,189.8 11,197.4 1,187.3 8.5,184.2 "/>
<linearGradient id="SVGID_3_" gradientUnits="userSpaceOnUse" x1="20.9985" y1="4.4608" x2="20.9985" y2="12.078" gradientTransform="matrix(1 0 0 -1 0 201.89)">
	<stop  offset="0" style="stop-color:#4D5C75"/>
	<stop  offset="3.110000e-02" style="stop-color:#616F85"/>
	<stop  offset="9.700001e-02" style="stop-color:#8E99A9"/>
	<stop  offset="0.1634" style="stop-color:#B4BCC7"/>
	<stop  offset="0.2292" style="stop-color:#D1D7DE"/>
	<stop  offset="0.2942" style="stop-color:#E5EAEF"/>
	<stop  offset="0.3583" style="stop-color:#F2F6F9"/>
	<stop  offset="0.42" style="stop-color:#F6FAFC"/>
	<stop  offset="0.4747" style="stop-color:#F2F6F8"/>
	<stop  offset="0.5313" style="stop-color:#E6E9EC"/>
	<stop  offset="0.5889" style="stop-color:#D3D5D7"/>
	<stop  offset="0.6471" style="stop-color:#B7B8BA"/>
	<stop  offset="0.7053" style="stop-color:#949396"/>
	<stop  offset="0.72" style="stop-color:#8A888B"/>
	<stop  offset="1" style="stop-color:#F6FAFC"/>
</linearGradient>
<polygon class="st2" points="31,189.8 31,197.4 11,197.4 14.1,189.8 "/>
<linearGradient id="SVGID_4_" gradientUnits="userSpaceOnUse" x1="30.991" y1="26.91" x2="30.991" y2="26.91" gradientTransform="matrix(1 0 0 -1 0 201.89)">
	<stop  offset="0" style="stop-color:#4D5C75"/>
	<stop  offset="3.110000e-02" style="stop-color:#616F85"/>
	<stop  offset="9.700001e-02" style="stop-color:#8E99A9"/>
	<stop  offset="0.1634" style="stop-color:#B4BCC7"/>
	<stop  offset="0.2292" style="stop-color:#D1D7DE"/>
	<stop  offset="0.2942" style="stop-color:#E5EAEF"/>
	<stop  offset="0.3583" style="stop-color:#F2F6F9"/>
	<stop  offset="0.42" style="stop-color:#F6FAFC"/>
	<stop  offset="0.4747" style="stop-color:#F2F6F8"/>
	<stop  offset="0.5313" style="stop-color:#E6E9EC"/>
	<stop  offset="0.5889" style="stop-color:#D3D5D7"/>
	<stop  offset="0.6471" style="stop-color:#B7B8BA"/>
	<stop  offset="0.7053" style="stop-color:#949396"/>
	<stop  offset="0.72" style="stop-color:#8A888B"/>
	<stop  offset="1" style="stop-color:#F6FAFC"/>
</linearGradient>
<polygon class="st3" points="31,175 31,175 31,175 "/>
<linearGradient id="SVGID_5_" gradientUnits="userSpaceOnUse" x1="28.591" y1="28.3065" x2="68.197" y2="28.3065" gradientTransform="matrix(1 0 0 -1 0 201.89)">
	<stop  offset="0" style="stop-color:#4D5C75"/>
	<stop  offset="3.110000e-02" style="stop-color:#616F85"/>
	<stop  offset="9.700001e-02" style="stop-color:#8E99A9"/>
	<stop  offset="0.1634" style="stop-color:#B4BCC7"/>
	<stop  offset="0.2292" style="stop-color:#D1D7DE"/>
	<stop  offset="0.2942" style="stop-color:#E5EAEF"/>
	<stop  offset="0.3583" style="stop-color:#F2F6F9"/>
	<stop  offset="0.42" style="stop-color:#F6FAFC"/>
	<stop  offset="0.4747" style="stop-color:#F2F6F8"/>
	<stop  offset="0.5313" style="stop-color:#E6E9EC"/>
	<stop  offset="0.5889" style="stop-color:#D3D5D7"/>
	<stop  offset="0.6471" style="stop-color:#B7B8BA"/>
	<stop  offset="0.7053" style="stop-color:#949396"/>
	<stop  offset="0.72" style="stop-color:#8A888B"/>
	<stop  offset="1" style="stop-color:#F6FAFC"/>
</linearGradient>
<polygon class="st4" points="68.2,172.2 68.2,175 65.8,175 31,175 28.6,175 28.6,172.2 35.8,172.2 60.9,172.2 "/>
<linearGradient id="SVGID_6_" gradientUnits="userSpaceOnUse" x1="35.843" y1="31.106" x2="60.944" y2="31.106" gradientTransform="matrix(1 0 0 -1 0 201.89)">
	<stop  offset="0" style="stop-color:#4D5C75"/>
	<stop  offset="3.110000e-02" style="stop-color:#616F85"/>
	<stop  offset="9.700001e-02" style="stop-color:#8E99A9"/>
	<stop  offset="0.1634" style="stop-color:#B4BCC7"/>
	<stop  offset="0.2292" style="stop-color:#D1D7DE"/>
	<stop  offset="0.2942" style="stop-color:#E5EAEF"/>
	<stop  offset="0.3583" style="stop-color:#F2F6F9"/>
	<stop  offset="0.42" style="stop-color:#F6FAFC"/>
	<stop  offset="0.4747" style="stop-color:#F2F6F8"/>
	<stop  offset="0.5313" style="stop-color:#E6E9EC"/>
	<stop  offset="0.5889" style="stop-color:#D3D5D7"/>
	<stop  offset="0.6471" style="stop-color:#B7B8BA"/>
	<stop  offset="0.7053" style="stop-color:#949396"/>
	<stop  offset="0.72" style="stop-color:#8A888B"/>
	<stop  offset="1" style="stop-color:#F6FAFC"/>
</linearGradient>
<polygon class="st5" points="60.9,169.4 60.9,172.2 35.8,172.2 35.8,169.4 39.8,169.4 57,169.4 "/>
<linearGradient id="SVGID_7_" gradientUnits="userSpaceOnUse" x1="39.79" y1="113.761" x2="39.79" y2="113.761" gradientTransform="matrix(1 0 0 -1 0 201.89)">
	<stop  offset="0" style="stop-color:#4D5C75"/>
	<stop  offset="3.110000e-02" style="stop-color:#616F85"/>
	<stop  offset="9.700001e-02" style="stop-color:#8E99A9"/>
	<stop  offset="0.1634" style="stop-color:#B4BCC7"/>
	<stop  offset="0.2292" style="stop-color:#D1D7DE"/>
	<stop  offset="0.2942" style="stop-color:#E5EAEF"/>
	<stop  offset="0.3583" style="stop-color:#F2F6F9"/>
	<stop  offset="0.42" style="stop-color:#F6FAFC"/>
	<stop  offset="0.4747" style="stop-color:#F2F6F8"/>
	<stop  offset="0.5313" style="stop-color:#E6E9EC"/>
	<stop  offset="0.5889" style="stop-color:#D3D5D7"/>
	<stop  offset="0.6471" style="stop-color:#B7B8BA"/>
	<stop  offset="0.7053" style="stop-color:#949396"/>
	<stop  offset="0.72" style="stop-color:#8A888B"/>
	<stop  offset="1" style="stop-color:#F6FAFC"/>
</linearGradient>
<polygon class="st6" points="39.8,88.1 39.8,88.1 39.8,88.1 "/>
<linearGradient id="SVGID_8_" gradientUnits="userSpaceOnUse" x1="25.8" y1="116.3655" x2="71" y2="116.3655" gradientTransform="matrix(1 0 0 -1 0 201.89)">
	<stop  offset="0" style="stop-color:#4D5C75"/>
	<stop  offset="3.110000e-02" style="stop-color:#616F85"/>
	<stop  offset="9.700001e-02" style="stop-color:#8E99A9"/>
	<stop  offset="0.1634" style="stop-color:#B4BCC7"/>
	<stop  offset="0.2292" style="stop-color:#D1D7DE"/>
	<stop  offset="0.2942" style="stop-color:#E5EAEF"/>
	<stop  offset="0.3583" style="stop-color:#F2F6F9"/>
	<stop  offset="0.42" style="stop-color:#F6FAFC"/>
	<stop  offset="0.4747" style="stop-color:#F2F6F8"/>
	<stop  offset="0.5313" style="stop-color:#E6E9EC"/>
	<stop  offset="0.5889" style="stop-color:#D3D5D7"/>
	<stop  offset="0.6471" style="stop-color:#B7B8BA"/>
	<stop  offset="0.7053" style="stop-color:#949396"/>
	<stop  offset="0.72" style="stop-color:#8A888B"/>
	<stop  offset="1" style="stop-color:#F6FAFC"/>
</linearGradient>
<polygon class="st7" points="71,82.9 71,88.1 57,88.1 39.8,88.1 25.8,88.1 25.8,82.9 28.6,82.9 68.2,82.9 "/>
<linearGradient id="SVGID_9_" gradientUnits="userSpaceOnUse" x1="28.591" y1="120.367" x2="68.197" y2="120.367" gradientTransform="matrix(1 0 0 -1 0 201.89)">
	<stop  offset="0" style="stop-color:#4D5C75"/>
	<stop  offset="3.110000e-02" style="stop-color:#616F85"/>
	<stop  offset="9.700001e-02" style="stop-color:#8E99A9"/>
	<stop  offset="0.1634" style="stop-color:#B4BCC7"/>
	<stop  offset="0.2292" style="stop-color:#D1D7DE"/>
	<stop  offset="0.2942" style="stop-color:#E5EAEF"/>
	<stop  offset="0.3583" style="stop-color:#F2F6F9"/>
	<stop  offset="0.42" style="stop-color:#F6FAFC"/>
	<stop  offset="0.4747" style="stop-color:#F2F6F8"/>
	<stop  offset="0.5313" style="stop-color:#E6E9EC"/>
	<stop  offset="0.5889" style="stop-color:#D3D5D7"/>
	<stop  offset="0.6471" style="stop-color:#B7B8BA"/>
	<stop  offset="0.7053" style="stop-color:#949396"/>
	<stop  offset="0.72" style="stop-color:#8A888B"/>
	<stop  offset="1" style="stop-color:#F6FAFC"/>
</linearGradient>
<polygon class="st8" points="68.2,80.1 68.2,82.9 28.6,82.9 28.6,80.1 36.1,80.1 60.7,80.1 "/>
<linearGradient id="SVGID_10_" gradientUnits="userSpaceOnUse" x1="36.145" y1="125.569" x2="60.655" y2="125.569" gradientTransform="matrix(1 0 0 -1 0 201.89)">
	<stop  offset="0" style="stop-color:#4D5C75"/>
	<stop  offset="3.110000e-02" style="stop-color:#616F85"/>
	<stop  offset="9.700001e-02" style="stop-color:#8E99A9"/>
	<stop  offset="0.1634" style="stop-color:#B4BCC7"/>
	<stop  offset="0.2292" style="stop-color:#D1D7DE"/>
	<stop  offset="0.2942" style="stop-color:#E5EAEF"/>
	<stop  offset="0.3583" style="stop-color:#F2F6F9"/>
	<stop  offset="0.42" style="stop-color:#F6FAFC"/>
	<stop  offset="0.4747" style="stop-color:#F2F6F8"/>
	<stop  offset="0.5313" style="stop-color:#E6E9EC"/>
	<stop  offset="0.5889" style="stop-color:#D3D5D7"/>
	<stop  offset="0.6471" style="stop-color:#B7B8BA"/>
	<stop  offset="0.7053" style="stop-color:#949396"/>
	<stop  offset="0.72" style="stop-color:#8A888B"/>
	<stop  offset="1" style="stop-color:#F6FAFC"/>
</linearGradient>
<path class="st9" d="M60.7,72.5v7.6H36.1v-7.6c4.1,0,8.1,0,12.2,0C52.4,72.5,56.5,72.5,60.7,72.5z"/>
<linearGradient id="SVGID_11_" gradientUnits="userSpaceOnUse" x1="28.6003" y1="161.994" x2="68.059" y2="161.994" gradientTransform="matrix(1 0 0 -1 0 201.89)">
	<stop  offset="0" style="stop-color:#4D5C75"/>
	<stop  offset="3.110000e-02" style="stop-color:#616F85"/>
	<stop  offset="9.700001e-02" style="stop-color:#8E99A9"/>
	<stop  offset="0.1634" style="stop-color:#B4BCC7"/>
	<stop  offset="0.2292" style="stop-color:#D1D7DE"/>
	<stop  offset="0.2942" style="stop-color:#E5EAEF"/>
	<stop  offset="0.3583" style="stop-color:#F2F6F9"/>
	<stop  offset="0.42" style="stop-color:#F6FAFC"/>
	<stop  offset="0.4747" style="stop-color:#F2F6F8"/>
	<stop  offset="0.5313" style="stop-color:#E6E9EC"/>
	<stop  offset="0.5889" style="stop-color:#D3D5D7"/>
	<stop  offset="0.6471" style="stop-color:#B7B8BA"/>
	<stop  offset="0.7053" style="stop-color:#949396"/>
	<stop  offset="0.72" style="stop-color:#8A888B"/>
	<stop  offset="1" style="stop-color:#F6FAFC"/>
</linearGradient>
<path class="st10" d="M68.1,11.5c0,18.6,0,37.2,0,55.8c0,0.5-0.1,0.9-0.4,1.3c-0.6,0.9-1.1,1.8-1.7,2.6c-0.5,0.8-1.1,1.2-2.1,1.2
	c-1.1,0-2.2,0-3.2,0c-4.1,0-8.2,0-12.3,0c-4,0-8.1,0-12.2,0c-1.1,0-2.3,0-3.4,0c-1,0-1.6-0.3-2.1-1.2c-0.6-0.9-1.1-1.7-1.7-2.6
	c-0.3-0.4-0.4-0.8-0.4-1.3c0-18.6,0-37.2,0-55.8c0-0.9,0.3-1.5,1.1-2.1c0.9-0.6,1.7-1.2,2.6-1.8c0.4-0.3,0.9-0.4,1.4-0.4
	c4.9,0,9.8,0,14.7,0c4.9,0,9.8,0,14.7,0c0.5,0,1,0.1,1.4,0.4c0.9,0.6,1.7,1.2,2.6,1.8C67.8,10,68.1,10.6,68.1,11.5z"/>
<linearGradient id="SVGID_12_" gradientUnits="userSpaceOnUse" x1="33.644" y1="196.015" x2="63.019" y2="196.015" gradientTransform="matrix(1 0 0 -1 0 201.89)">
	<stop  offset="0" style="stop-color:#4D5C75"/>
	<stop  offset="3.110000e-02" style="stop-color:#616F85"/>
	<stop  offset="9.700001e-02" style="stop-color:#8E99A9"/>
	<stop  offset="0.1634" style="stop-color:#B4BCC7"/>
	<stop  offset="0.2292" style="stop-color:#D1D7DE"/>
	<stop  offset="0.2942" style="stop-color:#E5EAEF"/>
	<stop  offset="0.3583" style="stop-color:#F2F6F9"/>
	<stop  offset="0.42" style="stop-color:#F6FAFC"/>
	<stop  offset="0.4747" style="stop-color:#F2F6F8"/>
	<stop  offset="0.5313" style="stop-color:#E6E9EC"/>
	<stop  offset="0.5889" style="stop-color:#D3D5D7"/>
	<stop  offset="0.6471" style="stop-color:#B7B8BA"/>
	<stop  offset="0.7053" style="stop-color:#949396"/>
	<stop  offset="0.72" style="stop-color:#8A888B"/>
	<stop  offset="1" style="stop-color:#F6FAFC"/>
</linearGradient>
<path class="st11" d="M63,4.5v2.8c-4.9,0-9.8,0-14.7,0c-4.9,0-9.8,0-14.7,0V4.5H63z"/>
<linearGradient id="SVGID_13_" gradientUnits="userSpaceOnUse" x1="28.591" y1="199.154" x2="68.197" y2="199.154" gradientTransform="matrix(1 0 0 -1 0 201.89)">
	<stop  offset="0" style="stop-color:#4D5C75"/>
	<stop  offset="3.110000e-02" style="stop-color:#616F85"/>
	<stop  offset="9.700001e-02" style="stop-color:#8E99A9"/>
	<stop  offset="0.1634" style="stop-color:#B4BCC7"/>
	<stop  offset="0.2292" style="stop-color:#D1D7DE"/>
	<stop  offset="0.2942" style="stop-color:#E5EAEF"/>
	<stop  offset="0.3583" style="stop-color:#F2F6F9"/>
	<stop  offset="0.42" style="stop-color:#F6FAFC"/>
	<stop  offset="0.4747" style="stop-color:#F2F6F8"/>
	<stop  offset="0.5313" style="stop-color:#E6E9EC"/>
	<stop  offset="0.5889" style="stop-color:#D3D5D7"/>
	<stop  offset="0.6471" style="stop-color:#B7B8BA"/>
	<stop  offset="0.7053" style="stop-color:#949396"/>
	<stop  offset="0.72" style="stop-color:#8A888B"/>
	<stop  offset="1" style="stop-color:#F6FAFC"/>
</linearGradient>
<polygon class="st12" points="68.2,1 68.2,4.5 63,4.5 33.6,4.5 28.6,4.5 28.6,1 "/>
<g>
	
		<linearGradient id="screw_6_" gradientUnits="userSpaceOnUse" x1="32.52" y1="26.904" x2="32.52" y2="26.904" gradientTransform="matrix(1 0 0 -1 0 201.89)">
		<stop  offset="0" style="stop-color:#4D5C75"/>
		<stop  offset="3.110000e-02" style="stop-color:#616F85"/>
		<stop  offset="9.700001e-02" style="stop-color:#8E99A9"/>
		<stop  offset="0.1634" style="stop-color:#B4BCC7"/>
		<stop  offset="0.2292" style="stop-color:#D1D7DE"/>
		<stop  offset="0.2942" style="stop-color:#E5EAEF"/>
		<stop  offset="0.3583" style="stop-color:#F2F6F9"/>
		<stop  offset="0.42" style="stop-color:#F6FAFC"/>
		<stop  offset="0.4747" style="stop-color:#F2F6F8"/>
		<stop  offset="0.5313" style="stop-color:#E6E9EC"/>
		<stop  offset="0.5889" style="stop-color:#D3D5D7"/>
		<stop  offset="0.6471" style="stop-color:#B7B8BA"/>
		<stop  offset="0.7053" style="stop-color:#949396"/>
		<stop  offset="0.72" style="stop-color:#8A888B"/>
		<stop  offset="1" style="stop-color:#F6FAFC"/>
	</linearGradient>
	<polygon id="screw" class="st13" points="32.5,175 32.5,175 32.5,175 	"/>
</g>
<g transform="translate(4.403 0)">
	
		<linearGradient id="screw_7_" gradientUnits="userSpaceOnUse" x1="32.52" y1="26.904" x2="32.52" y2="26.904" gradientTransform="matrix(1 0 0 -1 4.403 201.89)">
		<stop  offset="0" style="stop-color:#4D5C75"/>
		<stop  offset="3.110000e-02" style="stop-color:#616F85"/>
		<stop  offset="9.700001e-02" style="stop-color:#8E99A9"/>
		<stop  offset="0.1634" style="stop-color:#B4BCC7"/>
		<stop  offset="0.2292" style="stop-color:#D1D7DE"/>
		<stop  offset="0.2942" style="stop-color:#E5EAEF"/>
		<stop  offset="0.3583" style="stop-color:#F2F6F9"/>
		<stop  offset="0.42" style="stop-color:#F6FAFC"/>
		<stop  offset="0.4747" style="stop-color:#F2F6F8"/>
		<stop  offset="0.5313" style="stop-color:#E6E9EC"/>
		<stop  offset="0.5889" style="stop-color:#D3D5D7"/>
		<stop  offset="0.6471" style="stop-color:#B7B8BA"/>
		<stop  offset="0.7053" style="stop-color:#949396"/>
		<stop  offset="0.72" style="stop-color:#8A888B"/>
		<stop  offset="1" style="stop-color:#F6FAFC"/>
	</linearGradient>
	<polygon id="screw_1_" class="st14" points="36.9,175 36.9,175 36.9,175 	"/>
</g>
<g transform="translate(14.869 0)">
	
		<linearGradient id="screw_8_" gradientUnits="userSpaceOnUse" x1="32.52" y1="26.904" x2="32.52" y2="26.904" gradientTransform="matrix(1 0 0 -1 14.869 201.89)">
		<stop  offset="0" style="stop-color:#4D5C75"/>
		<stop  offset="3.110000e-02" style="stop-color:#616F85"/>
		<stop  offset="9.700001e-02" style="stop-color:#8E99A9"/>
		<stop  offset="0.1634" style="stop-color:#B4BCC7"/>
		<stop  offset="0.2292" style="stop-color:#D1D7DE"/>
		<stop  offset="0.2942" style="stop-color:#E5EAEF"/>
		<stop  offset="0.3583" style="stop-color:#F2F6F9"/>
		<stop  offset="0.42" style="stop-color:#F6FAFC"/>
		<stop  offset="0.4747" style="stop-color:#F2F6F8"/>
		<stop  offset="0.5313" style="stop-color:#E6E9EC"/>
		<stop  offset="0.5889" style="stop-color:#D3D5D7"/>
		<stop  offset="0.6471" style="stop-color:#B7B8BA"/>
		<stop  offset="0.7053" style="stop-color:#949396"/>
		<stop  offset="0.72" style="stop-color:#8A888B"/>
		<stop  offset="1" style="stop-color:#F6FAFC"/>
	</linearGradient>
	<polygon id="screw_2_" class="st15" points="47.4,175 47.4,175 47.4,175 	"/>
</g>
<g transform="translate(25.334 0)">
	
		<linearGradient id="screw_9_" gradientUnits="userSpaceOnUse" x1="32.52" y1="26.904" x2="32.52" y2="26.904" gradientTransform="matrix(1 0 0 -1 25.334 201.89)">
		<stop  offset="0" style="stop-color:#4D5C75"/>
		<stop  offset="3.110000e-02" style="stop-color:#616F85"/>
		<stop  offset="9.700001e-02" style="stop-color:#8E99A9"/>
		<stop  offset="0.1634" style="stop-color:#B4BCC7"/>
		<stop  offset="0.2292" style="stop-color:#D1D7DE"/>
		<stop  offset="0.2942" style="stop-color:#E5EAEF"/>
		<stop  offset="0.3583" style="stop-color:#F2F6F9"/>
		<stop  offset="0.42" style="stop-color:#F6FAFC"/>
		<stop  offset="0.4747" style="stop-color:#F2F6F8"/>
		<stop  offset="0.5313" style="stop-color:#E6E9EC"/>
		<stop  offset="0.5889" style="stop-color:#D3D5D7"/>
		<stop  offset="0.6471" style="stop-color:#B7B8BA"/>
		<stop  offset="0.7053" style="stop-color:#949396"/>
		<stop  offset="0.72" style="stop-color:#8A888B"/>
		<stop  offset="1" style="stop-color:#F6FAFC"/>
	</linearGradient>
	<polygon id="screw_3_" class="st16" points="57.9,175 57.9,175 57.9,175 	"/>
</g>
<g transform="translate(27.486 0)">
	
		<linearGradient id="screw_10_" gradientUnits="userSpaceOnUse" x1="32.52" y1="26.904" x2="32.52" y2="26.904" gradientTransform="matrix(1 0 0 -1 27.486 201.89)">
		<stop  offset="0" style="stop-color:#4D5C75"/>
		<stop  offset="3.110000e-02" style="stop-color:#616F85"/>
		<stop  offset="9.700001e-02" style="stop-color:#8E99A9"/>
		<stop  offset="0.1634" style="stop-color:#B4BCC7"/>
		<stop  offset="0.2292" style="stop-color:#D1D7DE"/>
		<stop  offset="0.2942" style="stop-color:#E5EAEF"/>
		<stop  offset="0.3583" style="stop-color:#F2F6F9"/>
		<stop  offset="0.42" style="stop-color:#F6FAFC"/>
		<stop  offset="0.4747" style="stop-color:#F2F6F8"/>
		<stop  offset="0.5313" style="stop-color:#E6E9EC"/>
		<stop  offset="0.5889" style="stop-color:#D3D5D7"/>
		<stop  offset="0.6471" style="stop-color:#B7B8BA"/>
		<stop  offset="0.7053" style="stop-color:#949396"/>
		<stop  offset="0.72" style="stop-color:#8A888B"/>
		<stop  offset="1" style="stop-color:#F6FAFC"/>
	</linearGradient>
	<polygon id="screw_4_" class="st17" points="60,175 60,175 60,175 	"/>
</g>
<g transform="translate(29.668 0)">
	
		<linearGradient id="screw_11_" gradientUnits="userSpaceOnUse" x1="32.52" y1="26.904" x2="32.52" y2="26.904" gradientTransform="matrix(1 0 0 -1 29.668 201.89)">
		<stop  offset="0" style="stop-color:#4D5C75"/>
		<stop  offset="3.110000e-02" style="stop-color:#616F85"/>
		<stop  offset="9.700001e-02" style="stop-color:#8E99A9"/>
		<stop  offset="0.1634" style="stop-color:#B4BCC7"/>
		<stop  offset="0.2292" style="stop-color:#D1D7DE"/>
		<stop  offset="0.2942" style="stop-color:#E5EAEF"/>
		<stop  offset="0.3583" style="stop-color:#F2F6F9"/>
		<stop  offset="0.42" style="stop-color:#F6FAFC"/>
		<stop  offset="0.4747" style="stop-color:#F2F6F8"/>
		<stop  offset="0.5313" style="stop-color:#E6E9EC"/>
		<stop  offset="0.5889" style="stop-color:#D3D5D7"/>
		<stop  offset="0.6471" style="stop-color:#B7B8BA"/>
		<stop  offset="0.7053" style="stop-color:#949396"/>
		<stop  offset="0.72" style="stop-color:#8A888B"/>
		<stop  offset="1" style="stop-color:#F6FAFC"/>
	</linearGradient>
	<polygon id="screw_5_" class="st18" points="62.2,175 62.2,175 62.2,175 	"/>
</g>
<g id="nuts" class="st19">
	<polygon points="32.5,170.9 32.5,170.9 32.5,170.9 	"/>
	<polygon points="36.9,170.9 36.9,170.9 36.9,170.9 	"/>
	<polygon points="47.3,170.9 47.3,170.9 47.3,170.9 	"/>
	<polygon points="57.8,170.9 57.8,170.9 57.8,170.9 	"/>
	<polygon points="62.1,170.9 62.1,170.9 62.1,170.9 	"/>
</g>
<g id="图层_2">
	<path class="st20" d="M71,88.1v-5.2h-2.8v-2.8h-7.5v-7.6c1.1,0,2.2,0,3.2,0c1,0,1.6-0.3,2.1-1.2c0.6-0.9,1.1-1.7,1.7-2.6
		c0.3-0.4,0.4-0.8,0.4-1.3c0-18.6,0-37.2,0-55.8c0-0.9-0.3-1.5-1.1-2.1c-0.9-0.6-1.7-1.2-2.6-1.8C64,7.4,63.6,7.3,63,7.3V4.5h5.2V1
		H28.6v3.5h5.1v2.8c-0.5,0-1,0.1-1.4,0.4c-0.9,0.6-1.7,1.2-2.6,1.8c-0.8,0.5-1.1,1.1-1.1,2.1c0,18.6,0,37.2,0,55.8
		c0,0.5,0.1,0.9,0.4,1.3c0.6,0.9,1.1,1.8,1.7,2.6c0.5,0.8,1.1,1.2,2.1,1.2c1.1,0,2.3,0,3.4,0v7.6h-7.6v2.8h-2.8v5.2h14v81.3h-3.9
		v2.8h-7.3v2.8H31v14.9H14.1l-5.6-5.6V88.1H1v99.2l10,10h20v3.6h34.8v-26h2.4v-2.8h-7.3v-2.8H57V88.1H71z"/>
</g>
<g class="st19">
	<polyline class="st21" points="31,189.8 14.1,189.8 8.5,184.2 8.5,88.1 1,88.1 1,187.3 11,197.4 31,197.4 	"/>
	<line class="st21" x1="8.5" y1="184.2" x2="1" y2="187.3"/>
	<line class="st21" x1="14.1" y1="189.8" x2="11" y2="197.4"/>
	<path class="st21" d="M36.1,72.5c4.1,0,8.1,0,12.2,0c4.1,0,8.2,0,12.3,0c1.1,0,2.2,0,3.2,0c1,0,1.6-0.3,2.1-1.2
		c0.6-0.9,1.1-1.7,1.7-2.6c0.3-0.4,0.4-0.8,0.4-1.3c0-18.6,0-37.2,0-55.8c0-0.9-0.3-1.5-1.1-2.1c-0.9-0.6-1.7-1.2-2.6-1.8
		C64,7.4,63.6,7.3,63,7.3c-4.9,0-9.8,0-14.7,0c-4.9,0-9.8,0-14.7,0c-0.5,0-1,0.1-1.4,0.4c-0.9,0.6-1.7,1.2-2.6,1.8
		c-0.8,0.5-1.1,1.1-1.1,2.1c0,18.6,0,37.2,0,55.8c0,0.5,0.1,0.9,0.4,1.3c0.6,0.9,1.1,1.8,1.7,2.6c0.5,0.8,1.1,1.2,2.1,1.2
		C33.9,72.5,35,72.5,36.1,72.5z"/>
	<line class="st21" x1="31" y1="186.2" x2="65.8" y2="186.2"/>
	<polygon class="st21" points="28.6,82.9 25.8,82.9 25.8,88.1 39.8,88.1 57,88.1 71,88.1 71,82.9 68.2,82.9 	"/>
	<line class="st21" x1="39.8" y1="88.1" x2="39.8" y2="169.4"/>
	<line class="st21" x1="57" y1="88.1" x2="57" y2="169.4"/>
	<polygon class="st21" points="63,4.5 68.2,4.5 68.2,1 28.6,1 28.6,4.5 33.6,4.5 	"/>
	<line class="st21" x1="63" y1="7.3" x2="63" y2="4.5"/>
	<polyline class="st21" points="28.6,82.9 28.6,80.1 36.1,80.1 60.7,80.1 68.2,80.1 68.2,82.9 	"/>
	<line class="st21" x1="36.1" y1="72.5" x2="36.1" y2="80.1"/>
	<line class="st21" x1="60.7" y1="72.5" x2="60.7" y2="80.1"/>
	<line class="st21" x1="33.6" y1="7.3" x2="33.6" y2="4.5"/>
	<polyline class="st21" points="35.8,172.2 35.8,169.4 39.8,169.4 57,169.4 60.9,169.4 60.9,172.2 	"/>
	<polyline class="st21" points="31,175 31,186.2 31,189.8 31,197.4 31,201 65.8,201 65.8,186.2 65.8,175 	"/>
	<polygon class="st21" points="35.8,172.2 28.6,172.2 28.6,175 31,175 65.8,175 68.2,175 68.2,172.2 60.9,172.2 	"/>
	<line class="st21" x1="32.5" y1="175" x2="32.5" y2="186.2"/>
	<line class="st21" x1="34.7" y1="175" x2="34.7" y2="186.2"/>
	<line class="st21" x1="36.9" y1="175" x2="36.9" y2="186.2"/>
	<line class="st21" x1="39" y1="175" x2="39" y2="186.2"/>
	<line class="st21" x1="47.3" y1="175" x2="47.3" y2="186.2"/>
	<line class="st21" x1="49.5" y1="175" x2="49.5" y2="186.2"/>
	<line class="st21" x1="57.8" y1="175" x2="57.8" y2="186.2"/>
	<line class="st21" x1="59.9" y1="175" x2="59.9" y2="186.2"/>
	<line class="st21" x1="62.1" y1="175" x2="62.1" y2="186.2"/>
	<line class="st21" x1="64.3" y1="175" x2="64.3" y2="186.2"/>
	<line class="st21" x1="28.6" y1="22.9" x2="68.1" y2="22.9"/>
	<line class="st21" x1="28.6" y1="59.3" x2="68.1" y2="59.3"/>
	<line class="st21" x1="28.6" y1="67.4" x2="68.1" y2="67.4"/>
</g>
<g id="holes" class="st19">
	<path d="M36.3,192.6c0-0.5,0-1-0.7-1c-0.7,0-0.7,0.5-0.7,1s0,1,0.7,1C36.3,193.6,36.3,193.1,36.3,192.6z"/>
	<path d="M65.3,196.9c0-0.2,0-0.4-0.1-0.6c-0.1-0.2,0-0.4-0.3-0.4c-0.3,0-0.3,0.2-0.3,0.4c-0.1,0.2-0.1,0.4-0.1,0.6s0,0.4,0.1,0.6
		c0.1,0.2,0,0.4,0.3,0.4c0.3,0,0.3-0.2,0.3-0.4C65.2,197.3,65.3,197.1,65.3,196.9z"/>
	<path d="M42.8,199.1c0,0.7-0.3,1-1,1s-1-0.3-1-1c0-0.7,0.3-1,1-1S42.8,198.4,42.8,199.1z"/>
	<path d="M44.9,192.6c0-0.7-0.3-1-1-1c-0.7,0-1,0.3-1,1s0.3,1,1,1C44.7,193.6,44.9,193.2,44.9,192.6z"/>
	<path d="M42.8,190.4c0-0.7-0.3-1-1-1s-1,0.3-1,1s0.3,1,1,1S42.8,191.1,42.8,190.4z"/>
	<path d="M44.9,196.9c0-0.7-0.3-1-1-1c-0.7,0-1,0.3-1,1s0.3,1,1,1C44.7,197.9,44.9,197.6,44.9,196.9z"/>
	<path d="M44.9,188.2c0-0.7-0.3-1-1-1c-0.7,0-1,0.3-1,1s0.3,1,1,1C44.7,189.2,44.9,188.9,44.9,188.2z"/>
	<path d="M32.5,199.1c0,0.2,0,0.4-0.1,0.6c-0.1,0.2,0,0.4-0.3,0.4c-0.3,0-0.3-0.2-0.3-0.4c-0.1-0.2-0.1-0.4-0.1-0.6s0-0.4,0.1-0.6
		c0.1-0.2,0-0.4,0.3-0.4c0.3,0,0.3,0.2,0.3,0.4C32.4,198.7,32.5,198.9,32.5,199.1z"/>
	<path d="M40.3,188.2c0-0.6-0.2-1-0.8-1s-0.8,0.4-0.8,1s0.2,1,0.8,1S40.3,188.8,40.3,188.2z"/>
	<path d="M38.4,199.1c0,0.6-0.2,1-0.8,1s-0.8-0.4-0.8-1s0.1-1,0.8-1C38.3,198.1,38.4,198.5,38.4,199.1z"/>
	<path d="M38.4,194.7c0-0.6-0.2-1-0.8-1s-0.8,0.4-0.8,1c0,0.6,0.1,1,0.8,1C38.3,195.7,38.4,195.4,38.4,194.7z"/>
	<path d="M38.4,190.4c0-0.6-0.2-1-0.8-1s-0.8,0.4-0.8,1c0,0.6,0.1,1,0.8,1C38.3,191.4,38.4,191,38.4,190.4z"/>
	<path d="M40.3,196.9c0-0.6-0.2-1-0.8-1s-0.8,0.4-0.8,1s0.2,1,0.8,1S40.3,197.6,40.3,196.9z"/>
	<path d="M40.3,192.6c0-0.6-0.2-1-0.8-1s-0.8,0.4-0.8,1c0,0.6,0.2,1,0.8,1S40.3,193.2,40.3,192.6z"/>
	<path d="M36.3,188.2c0-0.5,0-1-0.7-1c-0.7,0-0.7,0.5-0.7,1s0,1,0.7,1C36.3,189.2,36.3,188.7,36.3,188.2z"/>
	<path d="M61.4,199.1c0,0.5,0,1-0.7,1c-0.7,0-0.7-0.5-0.7-1c0-0.5,0-1,0.7-1C61.4,198.1,61.4,198.6,61.4,199.1z"/>
	<path d="M61.4,194.7c0-0.5,0-1-0.7-1c-0.7,0-0.7,0.5-0.7,1s0,1,0.7,1C61.4,195.7,61.4,195.3,61.4,194.7z"/>
	<path d="M62.8,188.2c0-0.5,0-1-0.7-1c-0.7,0-0.7,0.5-0.7,1s0,1,0.7,1C62.8,189.2,62.8,188.7,62.8,188.2z"/>
	<path d="M65.3,192.6c0-0.2,0-0.4-0.1-0.6c-0.1-0.2,0-0.4-0.3-0.4c-0.3,0-0.3,0.2-0.3,0.4c-0.1,0.2-0.1,0.4-0.1,0.6s0,0.4,0.1,0.6
		c0.1,0.2,0,0.4,0.3,0.4c0.3,0,0.3-0.2,0.3-0.4C65.2,192.9,65.3,192.8,65.3,192.6z"/>
	<path d="M61.4,190.4c0-0.5,0-1-0.7-1c-0.7,0-0.7,0.5-0.7,1s0,1,0.7,1C61.4,191.4,61.4,190.9,61.4,190.4z"/>
	<path d="M62.8,196.9c0-0.5,0-1-0.7-1c-0.7,0-0.7,0.5-0.7,1s0,1,0.7,1C62.8,197.9,62.8,197.5,62.8,196.9z"/>
	<path d="M33.4,188.2c0-0.2,0-0.4-0.1-0.6c-0.1-0.2,0-0.4-0.3-0.4c-0.3,0-0.3,0.2-0.3,0.4c-0.1,0.2-0.1,0.4-0.1,0.6s0,0.4,0.1,0.6
		c0.1,0.2,0,0.4,0.3,0.4s0.3-0.2,0.3-0.4C33.3,188.6,33.4,188.4,33.4,188.2z"/>
	<path d="M64.4,190.4c0-0.2,0-0.4-0.1-0.6c-0.1-0.2,0-0.4-0.3-0.4c-0.3,0-0.3,0.2-0.3,0.4c-0.1,0.2-0.1,0.4-0.1,0.6s0,0.4,0.1,0.6
		c0.1,0.2,0,0.4,0.3,0.4c0.3,0,0.3-0.2,0.3-0.4C64.3,190.8,64.4,190.6,64.4,190.4z"/>
	<path d="M64.4,194.7c0-0.2,0-0.4-0.1-0.6c-0.1-0.2,0-0.4-0.3-0.4c-0.3,0-0.3,0.2-0.3,0.4c-0.1,0.2-0.1,0.4-0.1,0.6s0,0.4,0.1,0.6
		c0.1,0.2,0,0.4,0.3,0.4c0.3,0,0.3-0.2,0.3-0.4C64.3,195.1,64.4,194.9,64.4,194.7z"/>
	<path d="M64.4,199.1c0,0.2,0,0.4-0.1,0.6c-0.1,0.2,0,0.4-0.3,0.4c-0.3,0-0.3-0.2-0.3-0.4c-0.1-0.2-0.1-0.4-0.1-0.6s0-0.4,0.1-0.6
		c0.1-0.2,0-0.4,0.3-0.4c0.3,0,0.3,0.2,0.3,0.4C64.3,198.7,64.4,198.9,64.4,199.1z"/>
	<path d="M65.3,188.2c0-0.2,0-0.4-0.1-0.6c-0.1-0.2,0-0.4-0.3-0.4c-0.3,0-0.3,0.2-0.3,0.4c-0.1,0.2-0.1,0.4-0.1,0.6s0,0.4,0.1,0.6
		c0.1,0.2,0,0.4,0.3,0.4c0.3,0,0.3-0.2,0.3-0.4C65.2,188.6,65.3,188.4,65.3,188.2z"/>
	<path d="M33.4,192.6c0-0.2,0-0.4-0.1-0.6c-0.1-0.2,0-0.4-0.3-0.4c-0.3,0-0.3,0.2-0.3,0.4c-0.1,0.2-0.1,0.4-0.1,0.6s0,0.4,0.1,0.6
		c0.1,0.2,0,0.4,0.3,0.4s0.3-0.2,0.3-0.4C33.3,192.9,33.4,192.8,33.4,192.6z"/>
	<path d="M33.4,196.9c0-0.2,0-0.4-0.1-0.6c-0.1-0.2,0-0.4-0.3-0.4c-0.3,0-0.3,0.2-0.3,0.4c-0.1,0.2-0.1,0.4-0.1,0.6s0,0.4,0.1,0.6
		c0.1,0.2,0,0.4,0.3,0.4s0.3-0.2,0.3-0.4C33.3,197.3,33.4,197.1,33.4,196.9z"/>
	<path d="M32.5,190.4c0-0.2,0-0.4-0.1-0.6c-0.1-0.2,0-0.4-0.3-0.4c-0.3,0-0.3,0.2-0.3,0.4c-0.1,0.2-0.1,0.4-0.1,0.6s0,0.4,0.1,0.6
		c0.1,0.2,0,0.4,0.3,0.4c0.3,0,0.3-0.2,0.3-0.4C32.4,190.8,32.5,190.6,32.5,190.4z"/>
	<path d="M32.5,194.7c0-0.2,0-0.4-0.1-0.6c-0.1-0.2,0-0.4-0.3-0.4c-0.3,0-0.3,0.2-0.3,0.4c-0.1,0.2-0.1,0.4-0.1,0.6s0,0.4,0.1,0.6
		c0.1,0.2,0,0.4,0.3,0.4c0.3,0,0.3-0.2,0.3-0.4C32.4,195.1,32.5,194.9,32.5,194.7z"/>
	<path d="M34.9,199.1c0,0.5,0,1-0.7,1c-0.7,0-0.7-0.5-0.7-1c0-0.5,0-1,0.7-1C34.9,198.1,34.9,198.6,34.9,199.1z"/>
	<path d="M34.9,194.7c0-0.5,0-1-0.7-1c-0.7,0-0.7,0.5-0.7,1s0,1,0.7,1C34.9,195.7,34.9,195.3,34.9,194.7z"/>
	<path d="M36.3,196.9c0-0.5,0-1-0.7-1c-0.7,0-0.7,0.5-0.7,1s0,1,0.7,1C36.3,197.9,36.3,197.5,36.3,196.9z"/>
	<path d="M34.9,190.4c0-0.5,0-1-0.7-1c-0.7,0-0.7,0.5-0.7,1s0,1,0.7,1C34.9,191.4,34.9,190.9,34.9,190.4z"/>
	<path d="M49.9,192.6c0-0.7-0.3-1-1-1s-1,0.3-1,1c0,0.7,0.3,1,1,1S49.9,193.3,49.9,192.6z"/>
	<path d="M52.7,199.1c0,0.7-0.3,1-1,1s-1-0.3-1-1c0-0.7,0.3-1,1-1S52.7,198.4,52.7,199.1z"/>
	<path d="M59.2,196.9c0-0.6-0.2-1-0.8-1s-0.8,0.4-0.8,1s0.2,1,0.8,1S59.2,197.6,59.2,196.9z"/>
	<path d="M57.4,199.1c0,0.6-0.2,1-0.8,1s-0.8-0.4-0.8-1s0.2-1,0.8-1S57.4,198.5,57.4,199.1z"/>
	<path d="M49.9,196.9c0-0.7-0.3-1-1-1s-1,0.3-1,1c0,0.7,0.3,1,1,1S49.9,197.6,49.9,196.9z"/>
	<path d="M47.7,190.4c0-0.7-0.3-1-1-1s-1,0.3-1,1s0.3,1,1,1S47.7,191.1,47.7,190.4z"/>
	<path d="M47.7,194.7c0-0.7-0.3-1-1-1s-1,0.3-1,1c0,0.7,0.3,1,1,1S47.7,195.5,47.7,194.7z"/>
	<path d="M47.7,199.1c0,0.7-0.3,1-1,1s-1-0.3-1-1c0-0.7,0.3-1,1-1S47.7,198.4,47.7,199.1z"/>
	<path d="M49.9,188.2c0-0.7-0.3-1-1-1s-1,0.3-1,1c0,0.7,0.3,1,1,1S49.9,188.9,49.9,188.2z"/>
	<path d="M54.8,192.6c0-0.7-0.3-1-1-1s-1,0.3-1,1s0.3,1,1,1S54.8,193.2,54.8,192.6z"/>
	<path d="M54.8,196.9c0-0.7-0.3-1-1-1s-1,0.3-1,1s0.3,1,1,1S54.8,197.6,54.8,196.9z"/>
	<path d="M54.8,188.2c0-0.7-0.3-1-1-1s-1,0.3-1,1s0.3,1,1,1S54.8,188.9,54.8,188.2z"/>
	<path d="M57.4,190.4c0-0.6-0.2-1-0.8-1s-0.8,0.4-0.8,1c0,0.6,0.2,1,0.8,1S57.4,191,57.4,190.4z"/>
	<path d="M59.2,188.2c0-0.6-0.2-1-0.8-1s-0.8,0.4-0.8,1s0.2,1,0.8,1S59.2,188.8,59.2,188.2z"/>
	<path d="M52.7,190.4c0-0.7-0.3-1-1-1s-1,0.3-1,1s0.3,1,1,1S52.7,191.1,52.7,190.4z"/>
	<path d="M52.7,194.7c0-0.7-0.3-1-1-1s-1,0.3-1,1s0.3,1,1,1S52.7,195.4,52.7,194.7z"/>
	<path d="M59.2,192.6c0-0.6-0.2-1-0.8-1s-0.8,0.4-0.8,1c0,0.6,0.2,1,0.8,1S59.2,193.2,59.2,192.6z"/>
	<path d="M57.4,194.7c0-0.6-0.2-1-0.8-1s-0.8,0.4-0.8,1c0,0.6,0.2,1,0.8,1S57.4,195.4,57.4,194.7z"/>
	<path d="M62.8,192.6c0-0.5,0-1-0.7-1c-0.7,0-0.7,0.5-0.7,1s0,1,0.7,1C62.8,193.6,62.8,193.1,62.8,192.6z"/>
	<path d="M42.8,194.7c0-0.7-0.3-1-1-1s-1,0.3-1,1s0.3,1,1,1S42.8,195.4,42.8,194.7z"/>
</g>
<g id="ribs">
	<polyline class="st22" points="32.7,59.3 32.7,28 31.4,25.7 31.4,26.2 31.4,59.3 	"/>
	<polyline class="st22" points="36.6,59.3 36.6,28 35.3,25.7 35.3,26.2 35.3,59.3 	"/>
	<polyline class="st22" points="42.5,59.3 42.5,28 41.1,25.7 41.1,26.2 41.1,59.3 	"/>
	<polyline class="st22" points="49.3,59.3 49.3,28 48,25.7 48,26.2 48,59.3 	"/>
	<polyline class="st22" points="56.2,59.3 56.2,28 54.8,25.7 54.8,26.2 54.8,59.3 	"/>
	<polyline class="st22" points="62,59.3 62,28 60.7,25.7 60.7,26.2 60.7,59.3 	"/>
	<polyline class="st22" points="65.3,59.3 65.3,28 63.9,25.7 63.9,26.2 63.9,59.3 	"/>
</g>
</svg>
