<?xml version="1.0" encoding="utf-8"?>
<!-- Generator: Adobe Illustrator 19.0.0, SVG Export Plug-In . SVG Version: 6.00 Build 0)  -->
<svg version="1.1" id="图层_1" xmlns="http://www.w3.org/2000/svg" xmlns:xlink="http://www.w3.org/1999/xlink" x="0px" y="0px"
	 viewBox="-17 1.2 72.9 106.5" style="enable-background:new -17 1.2 72.9 106.5;" xml:space="preserve">
<style type="text/css">
	.st0{fill:#54AA54;stroke:#000000;stroke-width:0.25;}
	.st1{fill:#4CA54C;stroke:#000000;stroke-width:0.25;}
	.st2{fill:#FFFFFF;stroke:#000000;stroke-width:0.25;}
	.st3{fill:#FFFFFF;}
	.st4{fill:none;stroke:#000000;stroke-width:2;}
	.st5{fill:none;stroke:#000000;stroke-width:0.25;}
</style>
<path class="st0" d="M-14,93.5V37.7h67v55.9l-1.1,2.8l-2.2,2l-2.3,1.4l-3.1,1.3l-3.4,1.2l-4.1,0.9l-2.8,0.5l-3,0.4l-3.2,0.3
	l-3.2,0.2l-1.7,0.1h-1.7h-1.7H16l-3.3-0.2l-3.3-0.2l-3-0.4l-3-0.4l-2.8-0.6l-3.7-1l-3.3-1.2l-2.9-1.3l-2.8-1.9l-1.9-2.7l-0.1-0.6
	v-0.7H-14z"/>
<path class="st1" d="M25,12.5l0.6-3.2l1.8-2.7l2.7-1.8l3.3-0.6l3.2,0.6l2.7,1.8l1.8,2.7l0.6,3.2v25.2H25V12.5z"/>
<path class="st1" d="M-2.9,12.5l0.6-3.2l1.8-2.7l2.7-1.8l3.3-0.6l3.2,0.6l2.7,1.8l1.8,2.7l0.6,3.2v25.2H-2.9V12.5z"/>
<path class="st2" d="M24.5,87.9l-1-0.3l-0.6-0.9l-0.4-1.4l-0.2-1.6l0.2-1.6l0.4-1.4l0.6-0.9l1-0.3l17.8,8.3l1-0.3l0.6-0.9l0.5-1.4
	l0.1-1.6L44.4,82l-0.5-1.4l-0.6-0.9l-1-0.3L24.5,87.9z"/>
<path class="st3" d="M-3.5,87.9l-0.9-0.3l-0.7-0.9l-0.4-1.4l-0.2-1.6l0.2-1.6l0.4-1.4l0.7-0.9l0.9-0.3l17.9,8.3l0.9-0.3l0.6-0.9
	l0.5-1.4l0.1-1.6L16.4,82l-0.5-1.4l-0.6-0.9l-0.9-0.3L-3.5,87.9z"/>
<path class="st4" d="M33.4,83.7V26.5"/>
<path class="st5" d="M-3.5,87.9l-0.9-0.3l-0.7-0.9l-0.4-1.4l-0.2-1.6l0.2-1.6l0.4-1.4l0.7-0.9l0.9-0.3l17.9,8.3l0.9-0.3l0.6-0.9
	l0.5-1.4l0.1-1.6L16.4,82l-0.5-1.4l-0.6-0.9l-0.9-0.3L-3.5,87.9"/>
<path class="st4" d="M5.5,83.7V26.5"/>
</svg>
