<?xml version="1.0" encoding="utf-8"?>
<!-- Generator: Adobe Illustrator 15.1.0, SVG Export Plug-In . SVG Version: 6.00 Build 0)  -->
<!DOCTYPE svg PUBLIC "-//W3C//DTD SVG 1.1//EN" "http://www.w3.org/Graphics/SVG/1.1/DTD/svg11.dtd">
<svg version="1.1" id="Layer_1" xmlns="http://www.w3.org/2000/svg" preserveAspectRatio="none"  x="0px" y="0px"
       viewBox="0 0 102 175" xmlns:agg="http://www.example.com">
	 
<agg:params>
	<agg:param type="C" name="color" description="Color" cssAttributes="fill" classes="color"/>
	<agg:param type="F" name="saturation" description="Saturation" min="0" max="1" cssAttributes="opacity" classes="color"/>
</agg:params>	 

<style type="text/css" >
   <![CDATA[

	.stroke,.thin,.thick{
		stroke-linecap:butt;
		stroke-linejoin:round;
		stroke: black;
		fill:none;
	}

	.stroke{stroke-width:0.5;}

	.thin {stroke-width:0.25;}

	.thick {stroke-width:0.75;}
	
	.color {
		fill:#3664BF;
		opacity:0.2;
	}

      ]]>
</style>
	 
<linearGradient id="SVGID_1_" gradientUnits="userSpaceOnUse" x1="101.0684" y1="112.4316" x2="1.4014" y2="13.0981">
	<stop  offset="0.0051" style="stop-color:#4C5B75"/>
	<stop  offset="0.1372" style="stop-color:#5D6B83"/>
	<stop  offset="0.3988" style="stop-color:#8A95A6"/>
	<stop  offset="0.4788" style="stop-color:#99A3B2"/>
	<stop  offset="0.503" style="stop-color:#ADB7C4"/>
	<stop  offset="0.9997" style="stop-color:#F6FAFC"/>
</linearGradient>
<polygon fill-rule="evenodd" clip-rule="evenodd" fill="url(#SVGID_1_)" points="1,12.562 101,12.562 101,112.5 1,112.5 1,12.562 	
	"/>
<polygon opacity="0.7" fill-rule="evenodd" clip-rule="evenodd" fill="#DFE4E3" points="4.877,108.625 51.031,62.5 4.877,16.437 
	4.877,108.625 	"/>
<polygon opacity="0.7" fill-rule="evenodd" clip-rule="evenodd" fill="#FFFFFF" points="4.877,16.437 51.031,62.5 97.123,16.437 
	4.877,16.437 	"/>
<polygon opacity="0.7" fill-rule="evenodd" clip-rule="evenodd" fill="#D3D8D8" points="97.123,16.437 51.031,62.5 97.123,108.625 
	97.123,16.437 	"/>
<polygon opacity="0.6" fill-rule="evenodd" clip-rule="evenodd" fill="#A2A5A4" points="97.123,108.625 51.031,62.5 4.877,108.625 
	97.123,108.625 	"/>
<linearGradient id="SVGID_2_" gradientUnits="userSpaceOnUse" x1="51" y1="24.75" x2="51" y2="0.1723">
	<stop  offset="0.0051" style="stop-color:#4C5B75"/>
	<stop  offset="0.1372" style="stop-color:#5D6B83"/>
	<stop  offset="0.3988" style="stop-color:#8A95A6"/>
	<stop  offset="0.4788" style="stop-color:#99A3B2"/>
	<stop  offset="0.503" style="stop-color:#ADB7C4"/>
	<stop  offset="0.9997" style="stop-color:#F6FAFC"/>
</linearGradient>
<polygon fill-rule="evenodd" clip-rule="evenodd" fill="url(#SVGID_2_)" points="1,12.562 51.031,4.875 101,12.562 1,12.562 	"/>
<linearGradient id="SVGID_3_" gradientUnits="userSpaceOnUse" x1="27.8921" y1="6.6475" x2="74.1074" y2="6.6475">
	<stop  offset="0.0051" style="stop-color:#4C5B75"/>
	<stop  offset="0.0323" style="stop-color:#616F86"/>
	<stop  offset="0.098" style="stop-color:#8E99AA"/>
	<stop  offset="0.1641" style="stop-color:#B4BCC7"/>
	<stop  offset="0.2298" style="stop-color:#D1D7DE"/>
	<stop  offset="0.2946" style="stop-color:#E5EAEF"/>
	<stop  offset="0.3584" style="stop-color:#F2F6F9"/>
	<stop  offset="0.42" style="stop-color:#F6FAFC"/>
	<stop  offset="0.4744" style="stop-color:#F2F6F8"/>
	<stop  offset="0.5308" style="stop-color:#E6E9EC"/>
	<stop  offset="0.5882" style="stop-color:#D3D5D7"/>
	<stop  offset="0.6461" style="stop-color:#B7B8BB"/>
	<stop  offset="0.704" style="stop-color:#949396"/>
	<stop  offset="0.72" style="stop-color:#89878B"/>
	<stop  offset="1" style="stop-color:#F6FAFC"/>
</linearGradient>
<polygon fill-rule="evenodd" clip-rule="evenodd" fill="url(#SVGID_3_)" points="27.892,4.875 74.107,4.875 74.107,8.42 
	27.892,8.42 27.892,4.875 	"/>
<polygon fill-rule="evenodd" clip-rule="evenodd" fill="#B2B2B2" points="35.585,1 66.416,1 66.416,4.813 35.585,4.813 35.585,1 	
	"/>
<linearGradient id="SVGID_4_" gradientUnits="userSpaceOnUse" x1="35.585" y1="2.9063" x2="66.416" y2="2.9063">
	<stop  offset="0.0051" style="stop-color:#4C5B75"/>
	<stop  offset="0.0323" style="stop-color:#616F86"/>
	<stop  offset="0.098" style="stop-color:#8E99AA"/>
	<stop  offset="0.1641" style="stop-color:#B4BCC7"/>
	<stop  offset="0.2298" style="stop-color:#D1D7DE"/>
	<stop  offset="0.2946" style="stop-color:#E5EAEF"/>
	<stop  offset="0.3584" style="stop-color:#F2F6F9"/>
	<stop  offset="0.42" style="stop-color:#F6FAFC"/>
	<stop  offset="0.4744" style="stop-color:#F2F6F8"/>
	<stop  offset="0.5308" style="stop-color:#E6E9EC"/>
	<stop  offset="0.5882" style="stop-color:#D3D5D7"/>
	<stop  offset="0.6461" style="stop-color:#B7B8BB"/>
	<stop  offset="0.704" style="stop-color:#949396"/>
	<stop  offset="0.72" style="stop-color:#89878B"/>
	<stop  offset="1" style="stop-color:#F6FAFC"/>
</linearGradient>
<polyline fill="url(#SVGID_4_)" points="35.585,1 66.416,1 66.416,4.813 35.585,4.813 35.585,1 	"/>
<linearGradient id="SVGID_5_" gradientUnits="userSpaceOnUse" x1="76.084" y1="137.584" x2="37.0503" y2="98.5503">
	<stop  offset="0.0051" style="stop-color:#4C5B75"/>
	<stop  offset="0.1372" style="stop-color:#5D6B83"/>
	<stop  offset="0.3988" style="stop-color:#8A95A6"/>
	<stop  offset="0.4788" style="stop-color:#99A3B2"/>
	<stop  offset="0.503" style="stop-color:#ADB7C4"/>
	<stop  offset="1" style="stop-color:#D4DBE2"/>
</linearGradient>
<polygon fill-rule="evenodd" clip-rule="evenodd" fill="url(#SVGID_5_)" points="1,112.5 39.462,150.938 62.537,150.938 101,112.5 
	1,112.5 	"/>
<linearGradient id="SVGID_6_" gradientUnits="userSpaceOnUse" x1="39" y1="158.625" x2="62.512" y2="158.625">
	<stop  offset="0.0051" style="stop-color:#4C5B75"/>
	<stop  offset="0.0323" style="stop-color:#616F86"/>
	<stop  offset="0.098" style="stop-color:#8E99AA"/>
	<stop  offset="0.1641" style="stop-color:#B4BCC7"/>
	<stop  offset="0.2298" style="stop-color:#D1D7DE"/>
	<stop  offset="0.2946" style="stop-color:#E5EAEF"/>
	<stop  offset="0.3584" style="stop-color:#F2F6F9"/>
	<stop  offset="0.42" style="stop-color:#F6FAFC"/>
	<stop  offset="0.4744" style="stop-color:#F2F6F8"/>
	<stop  offset="0.5308" style="stop-color:#E6E9EC"/>
	<stop  offset="0.5882" style="stop-color:#D3D5D7"/>
	<stop  offset="0.6461" style="stop-color:#B7B8BB"/>
	<stop  offset="0.704" style="stop-color:#949396"/>
	<stop  offset="0.72" style="stop-color:#89878B"/>
	<stop  offset="1" style="stop-color:#F6FAFC"/>
</linearGradient>
<polygon fill-rule="evenodd" clip-rule="evenodd" fill="url(#SVGID_6_)" points="39.462,150.938 62.537,150.938 62.537,166.313 
	39.462,166.313 39.462,150.938 	"/>
<linearGradient id="SVGID_7_" gradientUnits="userSpaceOnUse" x1="92.7314" y1="184.9814" x2="6.9334" y2="99.1834">
	<stop  offset="0.0051" style="stop-color:#4C5B75"/>
	<stop  offset="0.1372" style="stop-color:#5D6B83"/>
	<stop  offset="0.3988" style="stop-color:#8A95A6"/>
	<stop  offset="0.4788" style="stop-color:#99A3B2"/>
	<stop  offset="0.4848" style="stop-color:#ADB7C4"/>
	<stop  offset="1" style="stop-color:#D4DBE2"/>
</linearGradient>
<polygon fill-rule="evenodd" clip-rule="evenodd" fill="url(#SVGID_7_)" points="97.123,112.5 97.123,127.875 85.615,158.625 
	77.922,158.625 77.922,162.438 24.077,162.438 24.077,158.625 16.384,158.625 4.877,127.875 4.877,112.5 1,112.5 1,174 8.692,174 
	8.692,170.125 93.309,170.125 93.309,174 101,174 101,112.5 	"/>
<polygon opacity="0.5" points="97.123,158.625 97.123,127.875 85.615,158.625 
	97.123,158.625 	"/>
<polygon opacity="0.3" points="4.877,158.625 4.877,127.875 16.384,158.625 
	4.877,158.625 	"/>

<path class="color" d="M74.08,8.42h0.027V4.875h-7.691V4.813V1H35.585
	v3.813v0.062h-7.693V8.42h0.062L1,12.562V112.5V174h7.692v-3.875h84.616V174H101v-61.5V12.562L74.08,8.42z M16.384,158.625
	l-11.507-30.75v-11.5l34.585,34.563v11.5H24.077v-3.813H16.384z M97.123,127.875l-11.508,30.75h-7.693v3.813H62.537v-11.5
	l34.586-34.563V127.875z"/>

<g class="stroke">
	<polyline points="97.123,112.5 
		97.123,127.875 85.615,158.625 77.922,158.625 77.922,162.438 24.077,162.438 24.077,158.625 16.384,158.625 4.877,127.875 
		4.877,112.5 	"/>
	<polyline points="1,112.5 1,174 
		8.692,174 8.692,170.125 93.309,170.125 93.309,174 101,174 101,112.5 	"/>
	<polyline points="4.877,127.875 4.877,158.625 16.384,158.625 	"/>
	<polyline points="85.615,158.625 97.123,158.625 97.123,127.875 	"/>
	<polyline points="39.462,162.438 39.462,150.938 62.537,150.938 
		62.537,162.438 	"/>
	<line x1="62.537" y1="150.938" x2="97.123" y2="116.374"/>
	<line x1="39.462" y1="150.938" x2="4.877" y2="116.374"/>
	<rect x="27.892" y="4.875"  />
	<polyline points="66.447,4.875 
		66.447,1 35.616,1 35.616,4.875 	"/>
	<rect x="1" y="12.562"  />
	<line x1="27.892" y1="8.42" x2="1" y2="12.562"/>
	<line x1="74.107" y1="8.42" x2="101" y2="12.562"/>
	<rect x="4.877" y="16.437"  />
	<line x1="4.877" y1="16.437" x2="97.123" y2="108.625"/>
	<line x1="4.877" y1="108.625" x2="97.123" y2="16.437"/>
</g>


</svg>
