<?xml version="1.0" encoding="utf-8"?>
<!-- Generator: Adobe Illustrator 19.0.0, SVG Export Plug-In . SVG Version: 6.00 Build 0)  -->
<svg version="1.1" id="图层_1" xmlns="http://www.w3.org/2000/svg" xmlns:xlink="http://www.w3.org/1999/xlink" x="0px" y="0px"
	 viewBox="-18 1.2 70.3 106.5" style="enable-background:new -18 1.2 70.3 106.5;" xml:space="preserve">
<style type="text/css">
	.st0{fill:#006600;stroke:#000000;stroke-width:0.25;}
	.st1{fill:url(#SVGID_1_);stroke:#000000;stroke-width:0.25;}
	.st2{fill:url(#SVGID_2_);stroke:#000000;stroke-width:0.25;}
	.st3{fill:url(#SVGID_3_);stroke:#000000;stroke-width:0.25;}
	.st4{fill:#64B264;stroke:#000000;stroke-width:0.25;}
	.st5{fill:url(#SVGID_4_);stroke:#000000;stroke-width:0.25;}
	.st6{fill:url(#SVGID_5_);stroke:#000000;stroke-width:0.25;}
	.st7{fill:#004C00;stroke:#000000;stroke-width:0.25;}
	.st8{fill:#FFFFFF;stroke:#000000;stroke-width:0.25;}
	.st9{fill:url(#SVGID_6_);stroke:#000000;stroke-width:0.25;}
	.st10{fill:url(#SVGID_7_);stroke:#000000;stroke-width:0.25;}
	.st11{fill:url(#SVGID_8_);stroke:#000000;stroke-width:0.25;}
	.st12{fill:#007F00;stroke:#000000;stroke-width:0.25;}
	.st13{fill:#002A00;stroke:#000000;stroke-width:0.25;}
</style>
<g>
	<circle class="st0" cx="20" cy="26.1" r="3.5"/>
	
		<linearGradient id="SVGID_1_" gradientUnits="userSpaceOnUse" x1="-1.4875" y1="97.74" x2="2.4125" y2="97.74" gradientTransform="matrix(1 0 0 -1 0 110.16)">
		<stop  offset="0" style="stop-color:#007F00"/>
		<stop  offset="0.5" style="stop-color:#FFFFFF"/>
		<stop  offset="1" style="stop-color:#007F00"/>
	</linearGradient>
	<path class="st1" d="M-1.5,14.5v-4.1h3.9v4.1H-1.5"/>
	
		<linearGradient id="SVGID_2_" gradientUnits="userSpaceOnUse" x1="30.5125" y1="97.74" x2="34.6125" y2="97.74" gradientTransform="matrix(1 0 0 -1 0 110.16)">
		<stop  offset="0" style="stop-color:#007F00"/>
		<stop  offset="0.5" style="stop-color:#FFFFFF"/>
		<stop  offset="1" style="stop-color:#007F00"/>
	</linearGradient>
	<path class="st2" d="M30.5,14.5v-4.1h4.1v4.1H30.5"/>
	
		<linearGradient id="SVGID_3_" gradientUnits="userSpaceOnUse" x1="14.6125" y1="90.64" x2="18.5125" y2="90.64" gradientTransform="matrix(1 0 0 -1 0 110.16)">
		<stop  offset="0" style="stop-color:#007F00"/>
		<stop  offset="0.5" style="stop-color:#FFFFFF"/>
		<stop  offset="1" style="stop-color:#007F00"/>
	</linearGradient>
	<path class="st3" d="M14.6,10.5h3.9v18.1h-3.9C14.6,28.6,14.6,10.5,14.6,10.5z"/>
	<path class="st0" d="M38.6,84.7H-5.6v12h44.2V84.7z"/>
	<path class="st4" d="M44.6,72.6h-3.9v24.1h3.9V72.6z"/>
	<path class="st4" d="M-7.6,72.6h-3.8v24.1h3.8V72.6z"/>
	
		<linearGradient id="SVGID_4_" gradientUnits="userSpaceOnUse" x1="-7.5375" y1="58.94" x2="8.5625" y2="58.94" gradientTransform="matrix(1 0 0 -1 0 110.16)">
		<stop  offset="0" style="stop-color:#007F00"/>
		<stop  offset="0.5" style="stop-color:#FFFFFF"/>
		<stop  offset="1" style="stop-color:#007F00"/>
	</linearGradient>
	<path class="st5" d="M8.6,88.8H-7.5V18.7c0-2.8,2.3-5,5-5h6.1c2.8,0,5,2.3,5,5V88.8z"/>
	
		<linearGradient id="SVGID_5_" gradientUnits="userSpaceOnUse" x1="25.0625" y1="58.94" x2="41.1625" y2="58.94" gradientTransform="matrix(1 0 0 -1 0 110.16)">
		<stop  offset="0" style="stop-color:#007F00"/>
		<stop  offset="0.5" style="stop-color:#FFFFFF"/>
		<stop  offset="1" style="stop-color:#007F00"/>
	</linearGradient>
	<path class="st6" d="M41.2,88.8H25.1V18.7c0-2.8,2.3-5,5-5h6.1c2.8,0,5,2.3,5,5V88.8z"/>
	<path class="st7" d="M44.6,98.8h-56.1v2h56.1V98.8z"/>
	<path class="st8" d="M28.5,28.6H4.4v30.2h24.1V28.6z"/>
	<path class="st7" d="M25.5,32.7h-18v19.1h18V32.7z"/>
	
		<linearGradient id="SVGID_6_" gradientUnits="userSpaceOnUse" x1="16.5" y1="99.67" x2="16.5" y2="101.67" gradientTransform="matrix(1 0 0 -1 0 110.16)">
		<stop  offset="0" style="stop-color:#007F00"/>
		<stop  offset="0.5" style="stop-color:#FFFFFF"/>
		<stop  offset="1" style="stop-color:#007F00"/>
	</linearGradient>
	<path class="st9" d="M36.6,10.5H-3.6v-2h40.2V10.5z"/>
	<path class="st8" d="M34.6,53.7h-3v4.1h3V53.7z"/>
	<path class="st8" d="M34.1,96H-0.1c-1.7,0-3-1.4-3-3v-0.4c0-1.7,1.4-3,3-3H34c1.7,0,3,1.4,3,3V93C37.1,94.6,35.7,96,34.1,96z"/>
	
		<linearGradient id="SVGID_7_" gradientUnits="userSpaceOnUse" x1="16.55" y1="14.2125" x2="16.55" y2="20.5672" gradientTransform="matrix(1 0 0 -1 0 110.16)">
		<stop  offset="0" style="stop-color:#007F00"/>
		<stop  offset="0.5" style="stop-color:#FFFFFF"/>
		<stop  offset="1" style="stop-color:#007F00"/>
	</linearGradient>
	<rect x="3.5" y="89.6" class="st10" width="26.1" height="6.4"/>
	
		<linearGradient id="SVGID_8_" gradientUnits="userSpaceOnUse" x1="13.5125" y1="28.44" x2="19.6125" y2="28.44" gradientTransform="matrix(1 0 0 -1 0 110.16)">
		<stop  offset="0" style="stop-color:#007F00"/>
		<stop  offset="0.5" style="stop-color:#FFFFFF"/>
		<stop  offset="1" style="stop-color:#007F00"/>
	</linearGradient>
	<path class="st11" d="M16.6,92.8L16.6,92.8c-1.7,0-3.1-1.4-3.1-3.1v-16c0-1.7,1.4-3,3-3l0,0c1.7,0,3,1.4,3,3v16.1
		C19.6,91.4,18.2,92.8,16.6,92.8z"/>
	<path class="st7" d="M25.5,55.7h-18v18.9h18V55.7z"/>
	<path class="st12" d="M15.5,58.8H9.4v6.8h6.1V58.8z"/>
	<path class="st8" d="M24.6,56.8h-3.1v3.9h3.1V56.8z"/>
	<path class="st7" d="M48.7,104.7l-1-1h-1.1v-10h1.1l1-1.1h-4.1v12.1H48.7z"/>
	<path class="st7" d="M-11.4,104.7V92.6h-4.1l1,1.1h1.1v10h-1.1l-1,1H-11.4z"/>
	<path class="st13" d="M24.6,56.8h-3.1v1h3.1V56.8z"/>
	<path class="st13" d="M34.6,53.7h-3v1.1h3V53.7z"/>
	<path class="st8" d="M24.6,46.6h-3.1v4.1h3.1V46.6z"/>
	<path class="st13" d="M24.6,46.6h-3.1v1.1h3.1V46.6z"/>
	<path class="st8" d="M1.4,53.7h-3v4.1h3V53.7z"/>
	<path class="st13" d="M1.4,53.7h-3v1.1h3V53.7z"/>
	<path class="st0" d="M1,6.1H0.5V45H1V6.1z"/>
	<path class="st0" d="M1,45h6.5v-0.3H1V45z"/>
	<path class="st0" d="M1,43.6h6.5v-0.5H1V43.6z"/>
	<path class="st0" d="M1,41.6h6.5v-0.5H1V41.6z"/>
	<path class="st0" d="M1,6.5h27V6.1H1C1,6.1,1,6.5,1,6.5z"/>
	<path class="st0" d="M28,6.5h-0.4v1.9H28V6.5z"/>
	<path class="st0" d="M-1.5,24.6h36.1V24H-1.5V24.6z"/>
	<path class="st0" d="M-1,24.6h-0.5v6.1H-1C-1,30.7-1,24.6-1,24.6z"/>
	<path class="st0" d="M34.6,24.6H34v6.1h0.6V24.6z"/>
	<path class="st4" d="M24.1,4.3l-1.4,1.4l2.2,2.2l1.5-1.4L24.1,4.3z"/>
	<path class="st4" d="M20.5,5.7l-1.4-1.4l-2,2.2l1.4,1.4L20.5,5.7z"/>
</g>
</svg>
