<?xml version="1.0" standalone="no"?><!DOCTYPE svg PUBLIC "-//W3C//DTD SVG 1.1//EN" "http://www.w3.org/Graphics/SVG/1.1/DTD/svg11.dtd"><svg t="1721888212269" class="icon" viewBox="0 0 1024 1024" version="1.1" xmlns="http://www.w3.org/2000/svg" p-id="19498" xmlns:xlink="http://www.w3.org/1999/xlink" width="32" height="32"><path d="M544 85.312a32 32 0 0 0-64 0v96h-33.344c-18.816 0-34.944 0-48.256 1.28-14.08 1.216-27.968 4.032-41.088 11.584-27.904 16.128-39.872 40.96-44.672 64.64-3.712 18.176-3.52 38.144-3.328 53.376v15.616c-0.192 15.168-0.384 35.2 3.328 53.44 4.8 23.616 16.768 48.448 44.672 64.576 13.12 7.552 27.072 10.368 41.088 11.648 13.312 1.216 29.44 1.216 48.256 1.216h33.28v106.624H276.032c-18.752 0-34.944 0-48.256 1.28-14.08 1.216-27.904 4.032-41.024 11.584-27.904 16.128-39.872 40.96-44.736 64.64-3.712 18.176-3.456 38.144-3.328 53.376a810.56 810.56 0 0 1 0 15.616c-0.128 15.232-0.384 35.2 3.328 53.44 4.864 23.616 16.832 48.448 44.736 64.576 13.12 7.552 27.008 10.368 41.024 11.648 13.312 1.216 29.44 1.216 48.256 1.216H480v96a32 32 0 1 0 64 0v-96h204.032c18.752 0 34.944 0 48.256-1.28 14.08-1.216 27.968-4.032 41.024-11.584 27.968-16.128 39.936-40.96 44.736-64.64 3.712-18.176 3.52-38.144 3.328-53.376V704v-7.808c0.192-15.232 0.384-35.2-3.328-53.44-4.8-23.616-16.768-48.448-44.736-64.576a97.408 97.408 0 0 0-41.024-11.648c-13.312-1.216-29.44-1.216-48.256-1.216H544V458.688h33.408c18.752 0 34.944 0 48.192-1.28 14.08-1.216 27.968-4.032 41.088-11.584 27.904-16.128 39.872-40.96 44.672-64.64 3.712-18.176 3.52-38.208 3.392-53.376a693.568 693.568 0 0 1 0-15.616c0.128-15.232 0.32-35.2-3.392-53.44-4.8-23.616-16.768-48.448-44.672-64.576a97.344 97.344 0 0 0-41.088-11.648c-13.248-1.216-29.44-1.216-48.192-1.216H544v-96z m-31.68 693.376H277.312c-20.48 0-33.728 0-43.776-0.96-9.6-0.896-13.12-2.368-14.848-3.328-7.68-4.48-11.712-10.624-14.016-21.952-2.24-10.944-2.112-22.912-2.048-38.144a1579.776 1579.776 0 0 0 0-20.608c-0.064-15.232-0.192-27.2 2.048-38.144 2.304-11.328 6.4-17.536 14.016-21.952 1.728-0.96 5.184-2.432 14.848-3.328 10.048-0.896 23.296-0.96 43.776-0.96h469.376c20.48 0 33.792 0 43.84 0.96 9.6 0.896 13.056 2.368 14.784 3.328 7.68 4.48 11.712 10.624 14.016 21.952 2.24 10.944 2.176 22.912 2.048 38.08v20.672c0.128 15.232 0.192 27.2-2.048 38.144-2.304 11.328-6.4 17.536-14.016 21.952-1.728 0.96-5.184 2.432-14.784 3.328a544.32 544.32 0 0 1-43.84 0.96H512.32z m-0.32-384H448c-20.48 0-33.792 0-43.84-0.96-9.6-0.896-13.056-2.368-14.848-3.328-7.616-4.48-11.648-10.624-13.952-21.952-2.24-11.008-2.176-22.912-2.048-38.144V320v-10.304c-0.128-15.232-0.192-27.2 2.048-38.144 2.304-11.328 6.336-17.536 13.952-21.952 1.792-0.96 5.248-2.432 14.848-3.328 10.048-0.896 23.296-0.96 43.84-0.96h128c20.48 0 33.792 0 43.84 0.96 9.6 0.896 13.056 2.368 14.848 3.328 7.68 4.48 11.648 10.624 13.952 21.952 2.24 10.944 2.176 22.912 2.048 38.144v20.608c0.128 15.232 0.192 27.136-2.048 38.144-2.304 11.328-6.336 17.536-13.952 21.952-1.728 0.96-5.248 2.432-14.848 3.328A546.304 546.304 0 0 1 576 394.688H512z" fill="#2c2c2c" p-id="19499"></path></svg>