<?xml version="1.0" standalone="no"?><!DOCTYPE svg PUBLIC "-//W3C//DTD SVG 1.1//EN" "http://www.w3.org/Graphics/SVG/1.1/DTD/svg11.dtd"><svg t="1721888292700" class="icon" viewBox="0 0 1024 1024" version="1.1" xmlns="http://www.w3.org/2000/svg" p-id="23348" xmlns:xlink="http://www.w3.org/1999/xlink" width="32" height="32"><path d="M853.333333 656.410256h-682.666666a52.512821 52.512821 0 0 1-52.512821-52.51282v-157.538462a52.512821 52.512821 0 0 1 52.512821-52.51282h210.051282v-315.076923a52.512821 52.512821 0 0 1 52.51282-52.512821h157.538462a52.512821 52.512821 0 0 1 52.51282 52.512821v315.076923h210.051282a52.512821 52.512821 0 0 1 52.512821 52.51282v157.538462a52.512821 52.512821 0 0 1-52.512821 52.51282z m0-210.051282h-262.564102v-367.589743h-157.538462v367.589743h-262.564102v157.538462h682.666666v-157.538462z" fill="#2c2c2c" p-id="23349" data-spm-anchor-id="a313x.search_index.0.i26.1dba3a81qlxFwU" class="selected"></path><path d="M170.666667 603.897436v-157.538462h262.564102v-367.589743h157.538462v367.589743h262.564102v157.538462h-682.666666z" fill="#F6F7F8" p-id="23350"></path><path d="M170.666667 656.410256h682.666666v367.589744h-682.666666z" fill="#F6F7F8" p-id="23351"></path><path d="M853.333333 1024h-682.666666a52.512821 52.512821 0 0 1-52.512821-52.512821v-315.076923a52.512821 52.512821 0 0 1 52.512821-52.51282h682.666666a52.512821 52.512821 0 0 1 52.512821 52.51282v315.076923a52.512821 52.512821 0 0 1-52.512821 52.512821z m0-367.589744h-682.666666v315.076923h105.025641V840.205128a26.25641 26.25641 0 0 1 52.51282 0v131.282051h157.538462V787.692308a26.25641 26.25641 0 0 1 52.51282 0v183.794871h157.538462V840.205128a26.25641 26.25641 0 0 1 52.51282 0v131.282051h105.025641v-315.076923z" fill="#2c2c2c" p-id="23352" data-spm-anchor-id="a313x.search_index.0.i29.1dba3a81qlxFwU" class="selected"></path></svg>