<?xml version="1.0" standalone="no"?><!DOCTYPE svg PUBLIC "-//W3C//DTD SVG 1.1//EN" "http://www.w3.org/Graphics/SVG/1.1/DTD/svg11.dtd"><svg t="1721888021626" class="icon" viewBox="0 0 1024 1024" version="1.1" xmlns="http://www.w3.org/2000/svg" p-id="5082" xmlns:xlink="http://www.w3.org/1999/xlink" width="32" height="32"><path d="M371.55 481h255.9A99.67 99.67 0 0 0 727 381.45v-35.9A99.67 99.67 0 0 0 627.45 246h-255.9A99.67 99.67 0 0 0 272 345.55v35.9A99.67 99.67 0 0 0 371.55 481zM332 345.55A39.59 39.59 0 0 1 371.55 306h255.9A39.59 39.59 0 0 1 667 345.55v35.9A39.59 39.59 0 0 1 627.45 421h-255.9A39.59 39.59 0 0 1 332 381.45zM809.45 542h-437.9A99.67 99.67 0 0 0 272 641.55v35.9A99.67 99.67 0 0 0 371.55 777h437.9A99.67 99.67 0 0 0 909 677.45v-35.9A99.67 99.67 0 0 0 809.45 542zM849 677.45A39.59 39.59 0 0 1 809.45 717h-437.9A39.59 39.59 0 0 1 332 677.45v-35.9A39.59 39.59 0 0 1 371.55 602h437.9A39.59 39.59 0 0 1 849 641.55zM182.5 168a30 30 0 0 0-30 30v620.1a30 30 0 0 0 60 0V198a30 30 0 0 0-30-30z" p-id="5083" fill="#2c2c2c"></path></svg>