<?xml version="1.0" standalone="no"?><!DOCTYPE svg PUBLIC "-//W3C//DTD SVG 1.1//EN" "http://www.w3.org/Graphics/SVG/1.1/DTD/svg11.dtd"><svg t="1721888232590" class="icon" viewBox="0 0 1024 1024" version="1.1" xmlns="http://www.w3.org/2000/svg" p-id="20550" xmlns:xlink="http://www.w3.org/1999/xlink" width="32" height="32"><path d="M312.192 138.688L320 138.752h7.808c15.168-0.192 35.2-0.384 53.44 3.328 23.552 4.8 48.448 16.768 64.576 44.672 7.552 13.12 10.368 27.008 11.648 41.088 1.216 13.248 1.216 29.44 1.216 48.192V480h106.624v-33.28c0-18.752 0-34.944 1.216-48.256 1.28-14.016 4.096-27.904 11.648-41.024 16.128-27.904 40.96-39.872 64.576-44.672 18.24-3.712 38.208-3.52 53.44-3.392a811.968 811.968 0 0 0 15.616 0c15.168-0.128 35.2-0.32 53.44 3.392 23.552 4.8 48.448 16.768 64.512 44.672 7.616 13.12 10.432 27.008 11.712 41.024 1.152 13.312 1.152 29.44 1.152 48.256v33.28h96a32 32 0 0 1 0 64h-96v33.472c0 18.752 0 34.944-1.152 48.256a97.28 97.28 0 0 1-11.648 41.024c-16.128 27.904-40.96 39.872-64.64 44.736-18.176 3.648-38.208 3.456-53.376 3.328a694.72 694.72 0 0 0-15.616 0c-15.232 0.128-35.2 0.32-53.44-3.392-23.616-4.8-48.448-16.768-64.576-44.672a97.344 97.344 0 0 1-11.648-41.024c-1.216-13.312-1.216-29.44-1.216-48.256V544H458.688v204.16c0 18.752 0 34.944-1.28 48.192-1.28 14.08-4.032 27.968-11.584 41.088-16.128 27.904-40.96 39.872-64.64 44.672-18.176 3.712-38.208 3.52-53.376 3.392L320 885.44h-7.808c-15.232 0.192-35.2 0.384-53.44-3.328-23.616-4.8-48.448-16.768-64.576-44.672a97.408 97.408 0 0 1-11.648-41.088c-1.216-13.248-1.216-29.44-1.216-48.192V544h-96a32 32 0 1 1 0-64h96V276.032c0-18.752 0-34.944 1.216-48.192 1.28-14.08 4.096-27.968 11.648-41.088 16.128-27.904 40.96-39.872 64.576-44.672 18.24-3.712 38.208-3.52 53.44-3.392z m466.432 373.12v-63.68c0-20.544 0-33.792-0.896-43.84-0.896-9.6-2.368-13.12-3.328-14.848-4.48-7.68-10.624-11.712-21.952-13.952-11.008-2.24-22.912-2.176-38.144-2.112a1581.76 1581.76 0 0 1-20.672 0c-15.168-0.064-27.136-0.128-38.08 2.112-11.328 2.24-17.536 6.272-21.952 13.952-1.024 1.728-2.496 5.248-3.328 14.848a546.688 546.688 0 0 0-0.96 43.84v128c0 20.48 0 33.728 0.96 43.776 0.832 9.6 2.304 13.12 3.328 14.848 4.48 7.68 10.624 11.712 21.952 14.016 10.944 2.24 22.848 2.112 38.08 2.048h20.672c15.232 0.064 27.136 0.192 38.144-2.048 11.328-2.304 17.536-6.4 21.952-14.016 0.96-1.728 2.432-5.248 3.328-14.848 0.896-10.048 0.896-23.296 0.896-43.776v-64V512v-0.192z m-384-234.368c0-20.48 0-33.792-0.896-43.84-0.896-9.6-2.368-13.12-3.328-14.848-4.48-7.68-10.624-11.648-21.952-13.952-11.008-2.24-22.912-2.176-38.144-2.048h-20.672c-15.232-0.128-27.136-0.192-38.08 2.048-11.328 2.304-17.536 6.336-21.952 13.952-1.024 1.728-2.496 5.248-3.328 14.848a546.688 546.688 0 0 0-0.96 43.84v469.312c0 20.544 0 33.792 0.96 43.84 0.832 9.6 2.304 13.12 3.328 14.848 4.48 7.68 10.624 11.648 21.952 13.952 10.944 2.24 22.848 2.176 38.08 2.112a1315.264 1315.264 0 0 1 20.672 0c15.232 0.064 27.136 0.128 38.144-2.112 11.328-2.304 17.536-6.336 21.952-13.952 0.96-1.728 2.432-5.248 3.328-14.848 0.896-10.048 0.96-23.296 0.96-43.84V277.44z" fill="#2c2c2c" p-id="20551"></path></svg>