<?xml version="1.0" standalone="no"?><!DOCTYPE svg PUBLIC "-//W3C//DTD SVG 1.1//EN" "http://www.w3.org/Graphics/SVG/1.1/DTD/svg11.dtd"><svg t="1721888262175" class="icon" viewBox="0 0 1024 1024" version="1.1" xmlns="http://www.w3.org/2000/svg" p-id="22058" xmlns:xlink="http://www.w3.org/1999/xlink" width="32" height="32"><path d="M102.4 102.4h348.16v148.48h51.2V61.44c0-5.632-4.608-10.24-10.24-10.24H61.44c-5.632 0-10.24 4.608-10.24 10.24v430.08c0 5.632 4.608 10.24 10.24 10.24h184.32V450.56H102.4V102.4zM962.56 522.24h-179.2v51.2h138.24v348.16h-348.16v-158.72h-51.2v199.68c0 5.632 4.608 10.24 10.24 10.24h430.08c5.632 0 10.24-4.608 10.24-10.24v-430.08c0-5.632-4.608-10.24-10.24-10.24z" fill="#2c2c2c" p-id="22059"></path><path d="M482.816 512.512l32.768-38.912-46.08-38.912 108.544-129.024-316.416-15.36 69.632 309.248 105.472-125.44zM697.344 412.672l-105.472 125.44-46.08-38.912-32.768 39.424 46.08 38.4L450.56 706.56l316.416 14.848z" fill="#2c2c2c" p-id="22060"></path></svg>